<svg width="66" height="66" viewBox="0 0 66 66" fill="none" xmlns="http://www.w3.org/2000/svg"><rect width="65.2253" height="65.2253" rx="32.6127" fill="white"/><path d="M41.7431 30.9714L25.3801 20.3951C25.1045 20.2169 24.7889 20.1195 24.4659 20.113C24.1429 20.1066 23.8241 20.1912 23.5423 20.3583C23.2605 20.5254 23.0259 20.7689 22.8626 21.0637C22.6993 21.3585 22.6133 21.6941 22.6133 22.0357V43.1903C22.6135 43.5319 22.6998 43.8672 22.8631 44.1619C23.0265 44.4565 23.2611 44.6998 23.5428 44.8669C23.8245 45.0339 24.1431 45.1187 24.466 45.1123C24.7889 45.106 25.1044 45.0089 25.3801 44.831L41.7431 34.2546C42.0089 34.0827 42.2285 33.8414 42.3809 33.554C42.5333 33.2665 42.6133 32.9426 42.6133 32.613C42.6133 32.2835 42.5333 31.9595 42.3809 31.672C42.2285 31.3846 42.0089 31.1434 41.7431 30.9714Z" fill="#0D0F2C"/></svg>