<svg width="12" height="10" viewBox="0 0 12 10" fill="none" xmlns="http://www.w3.org/2000/svg">
<path d="M4.34162 10C3.96135 10 3.60119 9.85499 3.3704 9.60496L0.246956 6.23251C0.150388 6.12836 0.0798871 6.00967 0.0394839 5.88324C-0.00091932 5.75681 -0.0104325 5.62512 0.0114879 5.49568C0.0334084 5.36624 0.0863327 5.24161 0.167235 5.1289C0.248138 5.01619 0.355433 4.91761 0.482985 4.8388C0.610492 4.75967 0.755856 4.70188 0.910746 4.66874C1.06564 4.6356 1.22701 4.62776 1.38561 4.64568C1.54421 4.6636 1.69693 4.70692 1.83501 4.77315C1.97309 4.83939 2.09381 4.92725 2.19026 5.03168L4.24546 7.24903L9.41274 0.468397C9.58411 0.244518 9.85715 0.0853227 10.172 0.0257293C10.4868 -0.0338641 10.8177 0.0110105 11.092 0.15051C11.6629 0.440537 11.8386 1.05488 11.4819 1.52207L5.37665 9.52996C5.27243 9.66727 5.12877 9.78172 4.95816 9.86339C4.78754 9.94505 4.59511 9.99145 4.39757 9.99857C4.37834 10 4.36085 10 4.34162 10Z" fill="#ffffff"/>
</svg>
