<svg width="24" height="24" viewBox="0 0 24 24" fill="none" xmlns="http://www.w3.org/2000/svg">
<path d="M22.125 2H1.875C0.841125 2 0 2.84113 0 3.875V19.625C0 20.6589 0.841125 21.5 1.875 21.5H22.125C23.1589 21.5 24 20.6589 24 19.625V3.875C24 2.84113 23.1589 2 22.125 2ZM14.625 12.875C14.625 14.3225 13.4471 15.5 12 15.5C10.5529 15.5 9.375 14.3225 9.375 12.875V10.625C9.375 9.1775 10.5529 8 12 8C13.4471 8 14.625 9.1775 14.625 10.625V12.875ZM12 16.25C13.2885 16.25 14.4098 15.5236 14.9783 14.459L17.4855 14.9952C18.0007 15.1055 18.375 15.5683 18.375 16.0955V20.75H5.625V16.0955C5.625 15.5683 5.99925 15.1055 6.5145 14.9952L9.02175 14.459C9.59025 15.5232 10.7115 16.25 12 16.25ZM23.25 19.625C23.25 20.2453 22.7453 20.75 22.125 20.75H19.125V16.0955C19.125 15.2169 18.5014 14.4459 17.6423 14.2618L15.2554 13.7514C15.3307 13.4713 15.375 13.1784 15.375 12.875V10.625C15.375 8.76425 13.8611 7.25 12 7.25C10.1389 7.25 8.625 8.76425 8.625 10.625V12.875C8.625 13.1784 8.66887 13.4713 8.74463 13.7514L6.35775 14.2618C5.49863 14.4455 4.875 15.2165 4.875 16.0955V20.75H1.875C1.25475 20.75 0.75 20.2453 0.75 19.625V3.875C0.75 3.25475 1.25475 2.75 1.875 2.75H22.125C22.7453 2.75 23.25 3.25475 23.25 3.875V19.625Z" fill="#293FCC"/>
<path d="M1.87509 5.1875C1.97109 5.1875 2.06709 5.15075 2.14022 5.07763L3.07772 4.14013C3.22434 3.9935 3.22434 3.7565 3.07772 3.60988C2.93109 3.46325 2.69409 3.46325 2.54747 3.60988L1.60997 4.54738C1.46334 4.694 1.46334 4.931 1.60997 5.07763C1.68309 5.15075 1.77909 5.1875 1.87509 5.1875Z" fill="#293FCC"/>
<path d="M1.87509 8.9375C1.97109 8.9375 2.06709 8.90075 2.14022 8.82763L6.82772 4.14013C6.97434 3.9935 6.97434 3.7565 6.82772 3.60988C6.68109 3.46325 6.44409 3.46325 6.29747 3.60988L1.60997 8.29738C1.46334 8.444 1.46334 8.681 1.60997 8.82763C1.68309 8.90075 1.77909 8.9375 1.87509 8.9375Z" fill="#293FCC"/>
<path d="M10.0475 3.60988L1.60997 12.0474C1.46334 12.194 1.46334 12.431 1.60997 12.5776C1.68309 12.6508 1.77909 12.6875 1.87509 12.6875C1.97109 12.6875 2.06709 12.6508 2.14022 12.5776L10.5777 4.14013C10.7243 3.9935 10.7243 3.7565 10.5777 3.60988C10.4311 3.46325 10.1941 3.46325 10.0475 3.60988Z" fill="#293FCC"/>
<path d="M13.7975 3.60988L11.735 5.67238C11.5883 5.819 11.5883 6.056 11.735 6.20263C11.8081 6.27575 11.9041 6.3125 12.0001 6.3125C12.0961 6.3125 12.1921 6.27575 12.2652 6.20263L14.3277 4.14013C14.4743 3.9935 14.4743 3.7565 14.3277 3.60988C14.1811 3.46325 13.9441 3.46325 13.7975 3.60988Z" fill="#293FCC"/>
<path d="M18.4527 3.60988C18.3061 3.46325 18.0691 3.46325 17.9225 3.60988L14.9225 6.60988C14.7758 6.7565 14.7758 6.9935 14.9225 7.14013C14.9956 7.21325 15.0916 7.25 15.1876 7.25C15.2836 7.25 15.3796 7.21325 15.4527 7.14013L18.4527 4.14013C18.5993 3.9935 18.5993 3.7565 18.4527 3.60988Z" fill="#293FCC"/>
<path d="M22.1761 4.14013C22.3227 3.9935 22.3227 3.7565 22.1761 3.60988C22.0295 3.46325 21.7925 3.46325 21.6458 3.60988L16.235 9.02075C16.0883 9.16738 16.0883 9.40438 16.235 9.551C16.3081 9.62413 16.4041 9.66088 16.5001 9.66088C16.5961 9.66088 16.6921 9.62413 16.7652 9.551L22.1761 4.14013Z" fill="#293FCC"/>
<path d="M21.86 7.17238L16.7975 12.2349C16.6508 12.3815 16.6508 12.6185 16.7975 12.7651C16.8706 12.8383 16.9666 12.875 17.0626 12.875C17.1586 12.875 17.2546 12.8383 17.3277 12.7651L22.3902 7.70263C22.5368 7.556 22.5368 7.319 22.3902 7.17238C22.2436 7.02575 22.0066 7.02575 21.86 7.17238Z" fill="#293FCC"/>
<path d="M21.86 10.9224L19.235 13.5474C19.0883 13.694 19.0883 13.931 19.235 14.0776C19.3081 14.1508 19.4041 14.1875 19.5001 14.1875C19.5961 14.1875 19.6921 14.1508 19.7652 14.0776L22.3902 11.4526C22.5368 11.306 22.5368 11.069 22.3902 10.9224C22.2436 10.7758 22.0066 10.7758 21.86 10.9224Z" fill="#293FCC"/>
<path d="M21.86 14.6724L19.985 16.5474C19.8383 16.694 19.8383 16.931 19.985 17.0776C20.0581 17.1508 20.1541 17.1875 20.2501 17.1875C20.3461 17.1875 20.4421 17.1508 20.5152 17.0776L22.3902 15.2026C22.5368 15.056 22.5368 14.819 22.3902 14.6724C22.2436 14.5258 22.0066 14.5258 21.86 14.6724Z" fill="#293FCC"/>
<path d="M21.86 18.4224L20.9225 19.3599C20.7758 19.5065 20.7758 19.7435 20.9225 19.8901C20.9956 19.9633 21.0916 20 21.1876 20C21.2836 20 21.3796 19.9633 21.4527 19.8901L22.3902 18.9526C22.5368 18.806 22.5368 18.569 22.3902 18.4224C22.2436 18.2758 22.0066 18.2758 21.86 18.4224Z" fill="#293FCC"/>
<path d="M7.04747 10.3599L1.60997 15.7974C1.46334 15.944 1.46334 16.181 1.60997 16.3276C1.68309 16.4008 1.77909 16.4375 1.87509 16.4375C1.97109 16.4375 2.06709 16.4008 2.14022 16.3276L7.57772 10.8901C7.72434 10.7435 7.72434 10.5065 7.57772 10.3599C7.43109 10.2133 7.19409 10.2133 7.04747 10.3599Z" fill="#293FCC"/>
<path d="M3.29747 18.2349L2.17247 19.3599C2.02584 19.5065 2.02584 19.7435 2.17247 19.8901C2.24559 19.9633 2.34159 20 2.43759 20C2.53359 20 2.62959 19.9633 2.70272 19.8901L3.82772 18.7651C3.97434 18.6185 3.97434 18.3815 3.82772 18.2349C3.68109 18.0883 3.44409 18.0883 3.29747 18.2349Z" fill="#293FCC"/>
</svg>
