<svg width="24" height="24" viewBox="0 0 24 24" fill="none" xmlns="http://www.w3.org/2000/svg">
<path d="M22.4007 8.80029H16.0005V1.60005C16.0005 1.17569 15.832 0.768713 15.5319 0.468645C15.2318 0.168577 14.8248 0 14.4005 0L1.60005 0C1.17569 0 0.768713 0.168577 0.468645 0.468645C0.168577 0.768713 0 1.17569 0 1.60005L0 10.8004C0 11.2247 0.168577 11.6317 0.468645 11.9318C0.768713 12.2318 1.17569 12.4004 1.60005 12.4004H2.40008V14.1725C2.39775 14.3649 2.44973 14.5541 2.55007 14.7183C2.6504 14.8826 2.79501 15.0152 2.9673 15.1009C3.12897 15.1806 3.30984 15.2131 3.48915 15.1946C3.66845 15.1762 3.83891 15.1075 3.98093 14.9965L7.33705 12.4004H8.00027V19.6007C8.00027 20.025 8.16884 20.432 8.46891 20.7321C8.76898 21.0321 9.17596 21.2007 9.60032 21.2007H16.6638L20.0203 23.7968C20.1622 23.9078 20.3326 23.9765 20.5118 23.995C20.6911 24.0134 20.8719 23.9809 21.0335 23.9012C21.2058 23.8154 21.3504 23.6828 21.4507 23.5186C21.5511 23.3544 21.6031 23.1652 21.6007 22.9728V21.2007H22.4007C22.8251 21.2007 23.2321 21.0321 23.5322 20.7321C23.8322 20.432 24.0008 20.025 24.0008 19.6007V10.4003C24.0008 9.97599 23.8322 9.56901 23.5322 9.26894C23.2321 8.96887 22.8251 8.80029 22.4007 8.80029ZM7.20024 11.6004C7.11163 11.6004 7.02552 11.6298 6.95543 11.684L3.49172 14.3641C3.46837 14.3842 3.43947 14.3968 3.40883 14.4001C3.3782 14.4035 3.34726 14.3975 3.32011 14.3829C3.28191 14.3632 3.25025 14.3328 3.22895 14.2954C3.20765 14.2581 3.19764 14.2154 3.20011 14.1725V12.0004C3.20011 11.8943 3.15796 11.7926 3.08295 11.7175C3.00793 11.6425 2.90618 11.6004 2.80009 11.6004H1.60005C1.38787 11.6004 1.18438 11.5161 1.03435 11.3661C0.884315 11.216 0.800027 11.0125 0.800027 10.8004V1.60005C0.800027 1.38787 0.884315 1.18438 1.03435 1.03435C1.18438 0.884315 1.38787 0.800027 1.60005 0.800027H14.4005C14.6127 0.800027 14.8162 0.884315 14.9662 1.03435C15.1162 1.18438 15.2005 1.38787 15.2005 1.60005V10.8004C15.2005 11.0125 15.1162 11.216 14.9662 11.3661C14.8162 11.5161 14.6127 11.6004 14.4005 11.6004H7.20024ZM10.8004 12.4004H11.6004V13.2004C11.6004 13.3065 11.5582 13.4083 11.4832 13.4833C11.4082 13.5583 11.3065 13.6005 11.2004 13.6005C11.0943 13.6005 10.9925 13.5583 10.9175 13.4833C10.8425 13.4083 10.8004 13.3065 10.8004 13.2004V12.4004ZM23.2008 19.6007C23.2008 19.8128 23.1165 20.0163 22.9665 20.1664C22.8164 20.3164 22.6129 20.4007 22.4007 20.4007H21.2007C21.0946 20.4007 20.9929 20.4428 20.9179 20.5178C20.8428 20.5929 20.8007 20.6946 20.8007 20.8007V22.9728C20.8031 23.0156 20.793 23.0582 20.7717 23.0955C20.7504 23.1328 20.7188 23.1631 20.6807 23.1828C20.6536 23.1973 20.6227 23.2033 20.5922 23.2C20.5616 23.1966 20.5328 23.1841 20.5095 23.164L17.0454 20.4839C16.9752 20.4298 16.8891 20.4006 16.8006 20.4007H9.60032C9.38814 20.4007 9.18465 20.3164 9.03462 20.1664C8.88458 20.0163 8.80029 19.8128 8.80029 19.6007V12.4004H10.0003V13.2004C10.0003 13.5187 10.1268 13.8239 10.3518 14.049C10.5769 14.274 10.8821 14.4005 11.2004 14.4005C11.5186 14.4005 11.8239 14.274 12.0489 14.049C12.274 13.8239 12.4004 13.5187 12.4004 13.2004V12.4004H14.0005V14.0005C14.0005 14.1066 14.0426 14.2083 14.1176 14.2833C14.1926 14.3583 14.2944 14.4005 14.4005 14.4005C14.5066 14.4005 14.6083 14.3583 14.6833 14.2833C14.7584 14.2083 14.8005 14.1066 14.8005 14.0005V12.3436C15.143 12.2552 15.4465 12.0558 15.6636 11.7766C15.8807 11.4973 15.9992 11.1541 16.0005 10.8004V9.60032H22.4007C22.6129 9.60032 22.8164 9.68461 22.9665 9.83464C23.1165 9.98468 23.2008 10.1882 23.2008 10.4003V19.6007Z" fill="#293FCC"/>
<path d="M6.40001 4.40015C6.29392 4.40015 6.19218 4.44229 6.11716 4.51731C6.04214 4.59232 6 4.69407 6 4.80016V7.20024C6 7.30633 6.04214 7.40808 6.11716 7.48309C6.19218 7.55811 6.29392 7.60025 6.40001 7.60025C6.5061 7.60025 6.60785 7.55811 6.68287 7.48309C6.75788 7.40808 6.80003 7.30633 6.80003 7.20024V4.80016C6.80003 4.69407 6.75788 4.59232 6.68287 4.51731C6.60785 4.44229 6.5061 4.40015 6.40001 4.40015Z" fill="#293FCC"/>
<path d="M4.8004 4.00012C4.69431 4.00012 4.59257 4.04227 4.51755 4.11728C4.44253 4.1923 4.40039 4.29405 4.40039 4.40014V7.60024C4.40039 7.70633 4.44253 7.80808 4.51755 7.8831C4.59257 7.95811 4.69431 8.00026 4.8004 8.00026C4.90649 8.00026 5.00824 7.95811 5.08326 7.8831C5.15827 7.80808 5.20042 7.70633 5.20042 7.60024V4.40014C5.20042 4.29405 5.15827 4.1923 5.08326 4.11728C5.00824 4.04227 4.90649 4.00012 4.8004 4.00012Z" fill="#293FCC"/>
<path d="M13.2004 6.40024V5.60021C13.2004 5.49412 13.1583 5.39237 13.0833 5.31736C13.0082 5.24234 12.9065 5.2002 12.8004 5.2002C12.6943 5.2002 12.5926 5.24234 12.5176 5.31736C12.4425 5.39237 12.4004 5.49412 12.4004 5.60021V6.40024C12.4004 6.50633 12.4425 6.60807 12.5176 6.68309C12.5926 6.75811 12.6943 6.80025 12.8004 6.80025C12.9065 6.80025 13.0082 6.75811 13.0833 6.68309C13.1583 6.60807 13.2004 6.50633 13.2004 6.40024Z" fill="#293FCC"/>
<path d="M2.80078 5.60021V6.40024C2.80078 6.50633 2.84293 6.60807 2.91794 6.68309C2.99296 6.75811 3.0947 6.80025 3.20079 6.80025C3.30688 6.80025 3.40863 6.75811 3.48365 6.68309C3.55866 6.60807 3.60081 6.50633 3.60081 6.40024V5.60021C3.60081 5.49412 3.55866 5.39237 3.48365 5.31736C3.40863 5.24234 3.30688 5.2002 3.20079 5.2002C3.0947 5.2002 2.99296 5.24234 2.91794 5.31736C2.84293 5.39237 2.80078 5.49412 2.80078 5.60021Z" fill="#293FCC"/>
<path d="M9.60119 4.40015C9.4951 4.40015 9.39335 4.44229 9.31833 4.51731C9.24332 4.59232 9.20117 4.69407 9.20117 4.80016V7.20024C9.20117 7.30633 9.24332 7.40808 9.31833 7.48309C9.39335 7.55811 9.4951 7.60025 9.60119 7.60025C9.70728 7.60025 9.80902 7.55811 9.88404 7.48309C9.95905 7.40808 10.0012 7.30633 10.0012 7.20024V4.80016C10.0012 4.69407 9.95905 4.59232 9.88404 4.51731C9.80902 4.44229 9.70728 4.40015 9.60119 4.40015Z" fill="#293FCC"/>
<path d="M11.6008 7.60024V4.40014C11.6008 4.29405 11.5587 4.1923 11.4836 4.11728C11.4086 4.04227 11.3069 4.00012 11.2008 4.00012C11.0947 4.00012 10.993 4.04227 10.9179 4.11728C10.8429 4.1923 10.8008 4.29405 10.8008 4.40014V7.60024C10.8008 7.70633 10.8429 7.80808 10.9179 7.8831C10.993 7.95811 11.0947 8.00026 11.2008 8.00026C11.3069 8.00026 11.4086 7.95811 11.4836 7.8831C11.5587 7.80808 11.6008 7.70633 11.6008 7.60024Z" fill="#293FCC"/>
<path d="M7.99962 2.80011C7.89353 2.80011 7.79179 2.84225 7.71677 2.91727C7.64175 2.99229 7.59961 3.09403 7.59961 3.20012V8.80031C7.59961 8.9064 7.64175 9.00815 7.71677 9.08316C7.79179 9.15818 7.89353 9.20032 7.99962 9.20032C8.10571 9.20032 8.20746 9.15818 8.28248 9.08316C8.35749 9.00815 8.39964 8.9064 8.39964 8.80031V3.20012C8.39964 3.09403 8.35749 2.99229 8.28248 2.91727C8.20746 2.84225 8.10571 2.80011 7.99962 2.80011Z" fill="#293FCC"/>
<path d="M2.8004 4.4002C2.90649 4.4002 3.00824 4.35806 3.08326 4.28304C3.15827 4.20802 3.20042 4.10628 3.20042 4.00019V3.20016C3.20042 3.09407 3.24256 2.99233 3.31758 2.91731C3.3926 2.84229 3.49434 2.80015 3.60043 2.80015H4.40046C4.50655 2.80015 4.60829 2.758 4.68331 2.68299C4.75833 2.60797 4.80047 2.50623 4.80047 2.40014C4.80047 2.29405 4.75833 2.1923 4.68331 2.11728C4.60829 2.04227 4.50655 2.00012 4.40046 2.00012H3.60043C3.28216 2.00012 2.97693 2.12655 2.75187 2.35161C2.52682 2.57666 2.40039 2.88189 2.40039 3.20016V4.00019C2.40039 4.10628 2.44253 4.20802 2.51755 4.28304C2.59257 4.35806 2.69431 4.4002 2.8004 4.4002Z" fill="#293FCC"/>
<path d="M12.4012 2.00012H11.6012C11.4951 2.00012 11.3933 2.04227 11.3183 2.11728C11.2433 2.1923 11.2012 2.29405 11.2012 2.40014C11.2012 2.50623 11.2433 2.60797 11.3183 2.68299C11.3933 2.758 11.4951 2.80015 11.6012 2.80015H12.4012C12.5073 2.80015 12.609 2.84229 12.6841 2.91731C12.7591 2.99233 12.8012 3.09407 12.8012 3.20016V4.00019C12.8012 4.10628 12.8434 4.20802 12.9184 4.28304C12.9934 4.35806 13.0951 4.4002 13.2012 4.4002C13.3073 4.4002 13.4091 4.35806 13.4841 4.28304C13.5591 4.20802 13.6013 4.10628 13.6013 4.00019V3.20016C13.6013 2.88189 13.4748 2.57666 13.2498 2.35161C13.0247 2.12655 12.7195 2.00012 12.4012 2.00012Z" fill="#293FCC"/>
<path d="M4.40046 9.20027H3.60043C3.49434 9.20027 3.3926 9.15813 3.31758 9.08311C3.24256 9.0081 3.20042 8.90635 3.20042 8.80026V8.00023C3.20042 7.89414 3.15827 7.7924 3.08326 7.71738C3.00824 7.64236 2.90649 7.60022 2.8004 7.60022C2.69431 7.60022 2.59257 7.64236 2.51755 7.71738C2.44253 7.7924 2.40039 7.89414 2.40039 8.00023V8.80026C2.40039 9.11853 2.52682 9.42377 2.75187 9.64882C2.97693 9.87387 3.28216 10.0003 3.60043 10.0003H4.40046C4.50655 10.0003 4.60829 9.95816 4.68331 9.88314C4.75833 9.80812 4.80047 9.70638 4.80047 9.60029C4.80047 9.4942 4.75833 9.39245 4.68331 9.31743C4.60829 9.24242 4.50655 9.20027 4.40046 9.20027Z" fill="#293FCC"/>
<path d="M13.2012 7.60022C13.0951 7.60022 12.9934 7.64236 12.9184 7.71738C12.8434 7.7924 12.8012 7.89414 12.8012 8.00023V8.80026C12.8012 8.90635 12.7591 9.0081 12.6841 9.08311C12.609 9.15813 12.5073 9.20027 12.4012 9.20027H11.6012C11.4951 9.20027 11.3933 9.24242 11.3183 9.31743C11.2433 9.39245 11.2012 9.4942 11.2012 9.60029C11.2012 9.70638 11.2433 9.80812 11.3183 9.88314C11.3933 9.95816 11.4951 10.0003 11.6012 10.0003H12.4012C12.7195 10.0003 13.0247 9.87387 13.2498 9.64882C13.4748 9.42377 13.6013 9.11853 13.6013 8.80026V8.00023C13.6013 7.89414 13.5591 7.7924 13.4841 7.71738C13.4091 7.64236 13.3073 7.60022 13.2012 7.60022Z" fill="#293FCC"/>
<path d="M20.8016 10.4003C20.4833 10.4003 20.1781 10.5268 19.953 10.7518C19.728 10.9769 19.6016 11.2821 19.6016 11.6004V13.2004C19.6016 13.5187 19.728 13.8239 19.953 14.049C20.1781 14.274 20.4833 14.4005 20.8016 14.4005C21.1199 14.4005 21.4251 14.274 21.6502 14.049C21.8752 13.8239 22.0016 13.5187 22.0016 13.2004V11.6004C22.0016 11.2821 21.8752 10.9769 21.6502 10.7518C21.4251 10.5268 21.1199 10.4003 20.8016 10.4003ZM21.2016 13.2004C21.2016 13.3065 21.1595 13.4083 21.0845 13.4833C21.0094 13.5583 20.9077 13.6004 20.8016 13.6004C20.6955 13.6004 20.5938 13.5583 20.5188 13.4833C20.4437 13.4083 20.4016 13.3065 20.4016 13.2004V11.6004C20.4016 11.4943 20.4437 11.3925 20.5188 11.3175C20.5938 11.2425 20.6955 11.2004 20.8016 11.2004C20.9077 11.2004 21.0094 11.2425 21.0845 11.3175C21.1595 11.3925 21.2016 11.4943 21.2016 11.6004V13.2004Z" fill="#293FCC"/>
<path d="M17.6004 10.4003C17.2822 10.4003 16.9769 10.5268 16.7519 10.7518C16.5268 10.9769 16.4004 11.2821 16.4004 11.6004V13.2004C16.4004 13.5187 16.5268 13.8239 16.7519 14.049C16.9769 14.274 17.2822 14.4005 17.6004 14.4005C17.9187 14.4005 18.2239 14.274 18.449 14.049C18.674 13.8239 18.8005 13.5187 18.8005 13.2004V11.6004C18.8005 11.2821 18.674 10.9769 18.449 10.7518C18.2239 10.5268 17.9187 10.4003 17.6004 10.4003ZM18.0004 13.2004C18.0004 13.3065 17.9583 13.4083 17.8833 13.4833C17.8083 13.5583 17.7065 13.6004 17.6004 13.6004C17.4943 13.6004 17.3926 13.5583 17.3176 13.4833C17.2426 13.4083 17.2004 13.3065 17.2004 13.2004V11.6004C17.2004 11.4943 17.2426 11.3925 17.3176 11.3175C17.3926 11.2425 17.4943 11.2004 17.6004 11.2004C17.7065 11.2004 17.8083 11.2425 17.8833 11.3175C17.9583 11.3925 18.0004 11.4943 18.0004 11.6004V13.2004Z" fill="#293FCC"/>
<path d="M14.4012 15.2006C14.0829 15.2006 13.7777 15.327 13.5527 15.552C13.3276 15.7771 13.2012 16.0823 13.2012 16.4006V18.0007C13.2012 18.3189 13.3276 18.6242 13.5527 18.8492C13.7777 19.0743 14.0829 19.2007 14.4012 19.2007C14.7195 19.2007 15.0247 19.0743 15.2498 18.8492C15.4748 18.6242 15.6013 18.3189 15.6013 18.0007V16.4006C15.6013 16.0823 15.4748 15.7771 15.2498 15.552C15.0247 15.327 14.7195 15.2006 14.4012 15.2006ZM14.8012 18.0007C14.8012 18.1067 14.7591 18.2085 14.6841 18.2835C14.609 18.3585 14.5073 18.4007 14.4012 18.4007C14.2951 18.4007 14.1934 18.3585 14.1184 18.2835C14.0433 18.2085 14.0012 18.1067 14.0012 18.0007V16.4006C14.0012 16.2945 14.0433 16.1928 14.1184 16.1177C14.1934 16.0427 14.2951 16.0006 14.4012 16.0006C14.5073 16.0006 14.609 16.0427 14.6841 16.1177C14.7591 16.1928 14.8012 16.2945 14.8012 16.4006V18.0007Z" fill="#293FCC"/>
<path d="M11.2 15.2006C10.8818 15.2006 10.5765 15.327 10.3515 15.552C10.1264 15.7771 10 16.0823 10 16.4006V18.0007C10 18.3189 10.1264 18.6242 10.3515 18.8492C10.5765 19.0743 10.8818 19.2007 11.2 19.2007C11.5183 19.2007 11.8235 19.0743 12.0486 18.8492C12.2736 18.6242 12.4001 18.3189 12.4001 18.0007V16.4006C12.4001 16.0823 12.2736 15.7771 12.0486 15.552C11.8235 15.327 11.5183 15.2006 11.2 15.2006ZM11.6001 18.0007C11.6001 18.1067 11.5579 18.2085 11.4829 18.2835C11.4079 18.3585 11.3061 18.4007 11.2 18.4007C11.0939 18.4007 10.9922 18.3585 10.9172 18.2835C10.8422 18.2085 10.8 18.1067 10.8 18.0007V16.4006C10.8 16.2945 10.8422 16.1928 10.9172 16.1177C10.9922 16.0427 11.0939 16.0006 11.2 16.0006C11.3061 16.0006 11.4079 16.0427 11.4829 16.1177C11.5579 16.1928 11.6001 16.2945 11.6001 16.4006V18.0007Z" fill="#293FCC"/>
<path d="M17.6012 15.2006C17.4951 15.2006 17.3933 15.2427 17.3183 15.3177C17.2433 15.3927 17.2012 15.4945 17.2012 15.6006V18.8007C17.2012 18.9068 17.2433 19.0085 17.3183 19.0835C17.3933 19.1586 17.4951 19.2007 17.6012 19.2007C17.7073 19.2007 17.809 19.1586 17.884 19.0835C17.9591 19.0085 18.0012 18.9068 18.0012 18.8007V15.6006C18.0012 15.4945 17.9591 15.3927 17.884 15.3177C17.809 15.2427 17.7073 15.2006 17.6012 15.2006Z" fill="#293FCC"/>
<path d="M20.8004 15.2006C20.6943 15.2006 20.5926 15.2427 20.5176 15.3177C20.4425 15.3927 20.4004 15.4945 20.4004 15.6006V18.8007C20.4004 18.9068 20.4425 19.0085 20.5176 19.0835C20.5926 19.1586 20.6943 19.2007 20.8004 19.2007C20.9065 19.2007 21.0082 19.1586 21.0833 19.0835C21.1583 19.0085 21.2004 18.9068 21.2004 18.8007V15.6006C21.2004 15.4945 21.1583 15.3927 21.0833 15.3177C21.0082 15.2427 20.9065 15.2006 20.8004 15.2006Z" fill="#293FCC"/>
</svg>
