<svg width="18" height="19" viewBox="0 0 18 19" fill="none" xmlns="http://www.w3.org/2000/svg">
<path d="M8.54348 0.500244C6.85371 0.500244 5.20194 1.02809 3.79698 2.01701C2.39202 3.00594 1.29697 4.41155 0.650339 6.05609C0.00369895 7.7006 -0.165488 9.5102 0.164167 11.256C0.493814 13.0018 1.3075 14.6055 2.50233 15.8642C3.69716 17.1229 5.21946 17.9801 6.87676 18.3273C8.53402 18.6746 10.2518 18.4963 11.813 17.8151C13.374 17.134 14.7084 15.9804 15.6471 14.5003C16.5859 13.0203 17.087 11.2803 17.087 9.50023C17.0843 7.11413 16.1834 4.82655 14.5817 3.13933C12.9801 1.4521 10.8085 0.503004 8.54348 0.500244ZM12.6125 7.92426L7.79262 12.7704C7.67003 12.8933 7.5074 12.9618 7.33819 12.9618C7.16907 12.9618 7.00635 12.8933 6.88385 12.7704L4.47455 10.3473C4.34867 10.2203 4.27581 10.0459 4.27195 9.86235C4.26809 9.67875 4.33356 9.50106 4.45397 9.36832C4.57438 9.23558 4.7399 9.1586 4.91415 9.15426C5.0884 9.15001 5.25714 9.21869 5.38332 9.34543L7.33819 11.3121L11.7036 6.92234C11.8298 6.79565 11.9985 6.72692 12.1728 6.73121C12.347 6.73552 12.5126 6.81249 12.633 6.94525C12.7534 7.078 12.8189 7.25568 12.815 7.43928C12.8112 7.62278 12.7383 7.79725 12.6125 7.92426Z" fill="#293FCC"/>
</svg>
