<svg width="10" height="7" viewBox="0 0 10 7" fill="none" xmlns="http://www.w3.org/2000/svg">
<path d="M9.7529 1.0669C9.75232 1.19497 9.72843 1.32135 9.68301 1.43673C9.63759 1.55212 9.57177 1.65359 9.49041 1.73368L5.28295 5.84369C5.15746 5.96887 5.0007 6.03665 4.83944 6.03547C4.67819 6.03429 4.52244 5.96421 4.39879 5.83721L0.253092 1.52021C0.111986 1.37365 0.0241111 1.1639 0.00879958 0.93709C-0.0065119 0.71028 0.0519941 0.484993 0.171447 0.31079C0.290899 0.136586 0.461514 0.0277366 0.645757 0.00818631C0.83 -0.011364 1.01278 0.0599863 1.15389 0.206541L4.85736 4.06592L8.61606 0.389854C8.71901 0.285773 8.84394 0.220094 8.97605 0.200591C9.10816 0.181087 9.24193 0.208574 9.36153 0.279799C9.48112 0.351024 9.58154 0.463006 9.6509 0.602495C9.72026 0.741984 9.75566 0.903142 9.7529 1.0669Z" fill="#FF7350"/>
</svg>
