<svg width="48" height="48" viewBox="0 0 48 48" fill="none" xmlns="http://www.w3.org/2000/svg">
<path d="M44 34.9329C44 37.1311 42.2485 38.9092 40.1177 38.9092H8.88227C6.73727 38.9092 5 37.1258 5 34.9329V18.8242C5 17.8385 5.69136 17.4538 6.51568 17.9449L22.0802 27.2304C23.4665 28.0583 25.537 28.0583 26.9198 27.2304L42.4843 17.9449C43.321 17.4485 44 17.8332 44 18.8224V34.9312V34.9329Z" fill="#9D60FB"/>
<path d="M44 10.9762C44 8.78336 42.2627 7 40.1177 7H8.88227C6.75145 7 5 8.77982 5 10.9762V11.8005C5 12.7826 5.6825 13.9845 6.51923 14.4845L23.5551 24.6475C24.0285 24.9311 24.9733 24.9311 25.4466 24.6475L42.4825 14.4845C43.321 13.9828 44 12.7826 44 11.8005V10.9762V10.9762Z" fill="#9D60FB"/>
</svg>