<svg width="18" height="18" viewBox="0 0 18 18" fill="none" xmlns="http://www.w3.org/2000/svg">
<path d="M6.02056 13.6283C6.02056 13.6977 5.9371 13.7532 5.83185 13.7532C5.7121 13.7636 5.62863 13.7081 5.62863 13.6283C5.62863 13.559 5.7121 13.5035 5.81734 13.5035C5.92621 13.4931 6.02056 13.5486 6.02056 13.6283ZM4.89194 13.4723C4.86653 13.5417 4.93911 13.6214 5.04798 13.6422C5.14234 13.6769 5.25121 13.6422 5.27298 13.5729C5.29476 13.5035 5.22581 13.4238 5.11694 13.3926C5.02258 13.3683 4.91734 13.403 4.89194 13.4723ZM6.49597 13.4134C6.39073 13.4376 6.31814 13.5035 6.32903 13.5833C6.33992 13.6526 6.43427 13.6977 6.54315 13.6734C6.64839 13.6491 6.72097 13.5833 6.71008 13.5139C6.69919 13.448 6.60121 13.403 6.49597 13.4134ZM8.88387 0.126953C3.8504 0.126953 0 3.77795 0 8.58699C0 12.4321 2.53306 15.7225 6.15121 16.8806C6.61573 16.9604 6.77903 16.6864 6.77903 16.4611C6.77903 16.2461 6.76814 15.0603 6.76814 14.3322C6.76814 14.3322 4.22782 14.8523 3.69435 13.299C3.69435 13.299 3.28065 12.29 2.68548 12.0299C2.68548 12.0299 1.85444 11.4856 2.74355 11.496C2.74355 11.496 3.64718 11.5653 4.14435 12.3905C4.93911 13.7289 6.27097 13.344 6.78992 13.1152C6.87339 12.5604 7.10927 12.1756 7.37056 11.9467C5.34194 11.7318 3.29516 11.4509 3.29516 8.11545C3.29516 7.16196 3.57097 6.68348 4.15161 6.07325C4.05726 5.84788 3.74879 4.91866 4.24597 3.719C5.00444 3.49363 6.75 4.65515 6.75 4.65515C7.47581 4.46099 8.25605 4.36044 9.02903 4.36044C9.80202 4.36044 10.5823 4.46099 11.3081 4.65515C11.3081 4.65515 13.0536 3.49017 13.8121 3.719C14.3093 4.92213 14.0008 5.84788 13.9065 6.07325C14.4871 6.68695 14.8427 7.16543 14.8427 8.11545C14.8427 11.4613 12.7052 11.7283 10.6766 11.9467C11.0105 12.2206 11.2935 12.7407 11.2935 13.5555C11.2935 14.724 11.2827 16.1698 11.2827 16.4541C11.2827 16.6795 11.4496 16.9534 11.9105 16.8737C15.5395 15.7225 18 12.4321 18 8.58699C18 3.77795 13.9173 0.126953 8.88387 0.126953ZM3.52742 12.0854C3.48024 12.1201 3.49113 12.1998 3.55282 12.2657C3.61089 12.3212 3.69435 12.3455 3.74153 12.3004C3.78871 12.2657 3.77782 12.186 3.71613 12.1201C3.65806 12.0646 3.5746 12.0404 3.52742 12.0854ZM3.13548 11.8046C3.11008 11.8497 3.14637 11.9051 3.21895 11.9398C3.27702 11.9745 3.3496 11.9641 3.375 11.9155C3.4004 11.8705 3.36411 11.815 3.29153 11.7803C3.21895 11.7595 3.16089 11.7699 3.13548 11.8046ZM4.31129 13.0389C4.25323 13.084 4.275 13.188 4.35847 13.2539C4.44194 13.3336 4.54718 13.344 4.59435 13.2886C4.64153 13.2435 4.61976 13.1395 4.54718 13.0736C4.46734 12.9938 4.35847 12.9834 4.31129 13.0389ZM3.89758 12.5292C3.83952 12.5639 3.83952 12.6541 3.89758 12.7338C3.95565 12.8135 4.05363 12.8482 4.10081 12.8135C4.15887 12.7685 4.15887 12.6783 4.10081 12.5986C4.05 12.5188 3.95565 12.4842 3.89758 12.5292Z" fill="#303245"/>
</svg>
