<svg width="16" height="17" viewBox="0 0 16 17" fill="none" xmlns="http://www.w3.org/2000/svg">
<path fill-rule="evenodd" clip-rule="evenodd" d="M8 16.5C10.1217 16.5 12.1566 15.6571 13.6569 14.1569C15.1571 12.6566 16 10.6217 16 8.5C16 6.37827 15.1571 4.34344 13.6569 2.84315C12.1566 1.34285 10.1217 0.5 8 0.5C5.87827 0.5 3.84344 1.34285 2.34315 2.84315C0.842855 4.34344 0 6.37827 0 8.5C0 10.6217 0.842855 12.6566 2.34315 14.1569C3.84344 15.6571 5.87827 16.5 8 16.5ZM2.332 6.527C2.70329 5.46372 3.36579 4.5261 4.244 3.821C4.512 4.23 4.974 4.5 5.5 4.5C5.89782 4.5 6.27936 4.65804 6.56066 4.93934C6.84196 5.22064 7 5.60218 7 6V6.5C7 7.03043 7.21071 7.53914 7.58579 7.91421C7.96086 8.28929 8.46957 8.5 9 8.5C9.53043 8.5 10.0391 8.28929 10.4142 7.91421C10.7893 7.53914 11 7.03043 11 6.5C10.9998 6.05242 11.1498 5.61773 11.4259 5.26547C11.702 4.91321 12.0883 4.66375 12.523 4.557C13.4773 5.64867 14.0022 7.05002 14 8.5C14 8.84 13.972 9.175 13.917 9.5H13C12.4696 9.5 11.9609 9.71071 11.5858 10.0858C11.2107 10.4609 11 10.9696 11 11.5V13.697C10.0883 14.2245 9.05331 14.5015 8 14.5V12.5C8 11.9696 7.78929 11.4609 7.41421 11.0858C7.03914 10.7107 6.53043 10.5 6 10.5C5.46957 10.5 4.96086 10.2893 4.58579 9.91421C4.21071 9.53914 4 9.03043 4 8.5C4.00018 8.027 3.83271 7.56924 3.52733 7.20803C3.22195 6.84681 2.79844 6.60552 2.332 6.527Z" fill="white"/>
</svg>