<svg width="20" height="20" viewBox="0 0 20 20" fill="none" xmlns="http://www.w3.org/2000/svg">
<path d="M4.28346 12.5988C4.28346 13.7484 3.35432 14.6775 2.20472 14.6775C1.05511 14.6775 0.125977 13.7484 0.125977 12.5988C0.125977 11.4492 1.05511 10.52 2.20472 10.52H4.28346V12.5988ZM5.32283 12.5988C5.32283 11.4492 6.25196 10.52 7.40157 10.52C8.55117 10.52 9.48031 11.4492 9.48031 12.5988V17.7956C9.48031 18.9452 8.55117 19.8743 7.40157 19.8743C6.25196 19.8743 5.32283 18.9452 5.32283 17.7956V12.5988Z" fill="#E01E5A"/>
<path d="M7.40157 4.25172C6.25196 4.25172 5.32283 3.32258 5.32283 2.17298C5.32283 1.02337 6.25196 0.0942383 7.40157 0.0942383C8.55117 0.0942383 9.48031 1.02337 9.48031 2.17298V4.25172H7.40157ZM7.40157 5.30684C8.55117 5.30684 9.48031 6.23597 9.48031 7.38558C9.48031 8.53518 8.55117 9.46432 7.40157 9.46432H2.18897C1.03936 9.46432 0.110229 8.53518 0.110229 7.38558C0.110229 6.23597 1.03936 5.30684 2.18897 5.30684H7.40157Z" fill="#36C5F0"/>
<path d="M15.7323 7.38558C15.7323 6.23597 16.6614 5.30684 17.811 5.30684C18.9606 5.30684 19.8897 6.23597 19.8897 7.38558C19.8897 8.53518 18.9606 9.46432 17.811 9.46432H15.7323V7.38558ZM14.6929 7.38558C14.6929 8.53518 13.7637 9.46432 12.6141 9.46432C11.4645 9.46432 10.5354 8.53518 10.5354 7.38558V2.17298C10.5354 1.02337 11.4645 0.0942383 12.6141 0.0942383C13.7637 0.0942383 14.6929 1.02337 14.6929 2.17298V7.38558Z" fill="#2EB67D"/>
<path d="M12.6141 15.7169C13.7637 15.7169 14.6929 16.646 14.6929 17.7956C14.6929 18.9452 13.7637 19.8743 12.6141 19.8743C11.4645 19.8743 10.5354 18.9452 10.5354 17.7956V15.7169H12.6141ZM12.6141 14.6775C11.4645 14.6775 10.5354 13.7484 10.5354 12.5988C10.5354 11.4492 11.4645 10.52 12.6141 10.52H17.8267C18.9763 10.52 19.9055 11.4492 19.9055 12.5988C19.9055 13.7484 18.9763 14.6775 17.8267 14.6775H12.6141Z" fill="#ECB22E"/>
</svg>
