<svg width="768" height="203" viewBox="0 0 768 203" fill="none" xmlns="http://www.w3.org/2000/svg">
<path opacity="0.1" d="M96.8 123.2L97.7471 122.879L97.5171 122.2H96.8V123.2ZM44.4 123.2V122.2H43.6829L43.4529 122.879L44.4 123.2ZM36 148V149H36.7171L36.9471 148.321L36 148ZM0.2 148L-0.74034 147.66L-1.22527 149H0.2V148ZM51 7.6V6.6H50.2984L50.0597 7.25976L51 7.6ZM90.6 7.6L91.5403 7.25976L91.3016 6.6H90.6V7.6ZM141.4 148V149H142.825L142.34 147.66L141.4 148ZM105.2 148L104.253 148.321L104.483 149H105.2V148ZM88 96.8V97.8H89.3943L88.9472 96.4794L88 96.8ZM70.6 45.4L71.5472 45.0794L70.5945 42.2651L69.6517 45.0827L70.6 45.4ZM53.4 96.8L52.4517 96.4827L52.0109 97.8H53.4V96.8ZM96.8 122.2H44.4V124.2H96.8V122.2ZM43.4529 122.879L35.0529 147.679L36.9471 148.321L45.3471 123.521L43.4529 122.879ZM36 147H0.2V149H36V147ZM1.14034 148.34L51.9403 7.94023L50.0597 7.25976L-0.74034 147.66L1.14034 148.34ZM51 8.6H90.6V6.6H51V8.6ZM89.6597 7.94023L140.46 148.34L142.34 147.66L91.5403 7.25976L89.6597 7.94023ZM141.4 147H105.2V149H141.4V147ZM106.147 147.679L97.7471 122.879L95.8529 123.521L104.253 148.321L106.147 147.679ZM88.9472 96.4794L71.5472 45.0794L69.6528 45.7206L87.0528 97.1207L88.9472 96.4794ZM69.6517 45.0827L52.4517 96.4827L54.3483 97.1173L71.5483 45.7173L69.6517 45.0827ZM53.4 97.8H88V95.8H53.4V97.8ZM213.861 39.6L213.382 40.4779L213.39 40.4823L213.861 39.6ZM227.661 52.2L226.809 52.7241L228.661 55.733V52.2H227.661ZM227.661 36.4V35.4H226.661V36.4H227.661ZM261.861 36.4H262.861V35.4H261.861V36.4ZM255.661 175.6L254.767 175.153L254.762 175.161L254.758 175.17L255.661 175.6ZM237.061 195.6L236.555 194.738L236.548 194.741L237.061 195.6ZM165.861 191.2L166.469 190.406L166.463 190.401L165.861 191.2ZM148.261 159.6V158.6H147.145L147.267 159.709L148.261 159.6ZM182.061 159.6L183.031 159.357L182.842 158.6H182.061V159.6ZM189.661 169.6L190.196 168.755L190.186 168.749L190.175 168.743L189.661 169.6ZM221.261 167.2L220.577 166.47L220.565 166.481L220.554 166.493L221.261 167.2ZM227.661 132H228.661V128.587L226.819 131.46L227.661 132ZM213.861 144.8L214.34 145.678L214.347 145.674L214.355 145.669L213.861 144.8ZM168.261 142.6L167.72 143.441L167.731 143.448L168.261 142.6ZM150.461 122.4L149.561 122.836L149.565 122.845L149.569 122.853L150.461 122.4ZM150.461 61.8L149.569 61.3473L149.564 61.3583L150.461 61.8ZM168.261 41.8L168.791 42.648L168.261 41.8ZM220.461 72L219.734 72.6873L219.744 72.6974L220.461 72ZM185.861 72L185.144 71.3026L185.144 71.3029L185.861 72ZM185.861 112.4L185.125 113.077L185.135 113.088L185.144 113.097L185.861 112.4ZM220.461 112.4L219.744 111.703L219.734 111.713L220.461 112.4ZM193.261 35.8C200.99 35.8 207.686 37.3711 213.382 40.4779L214.34 38.7221C208.302 35.4289 201.265 33.8 193.261 33.8V35.8ZM213.39 40.4823C219.252 43.6086 223.713 47.6919 226.809 52.7241L228.513 51.6759C225.209 46.3081 220.47 41.9914 214.332 38.7176L213.39 40.4823ZM228.661 52.2V36.4H226.661V52.2H228.661ZM227.661 37.4H261.861V35.4H227.661V37.4ZM260.861 36.4V147.8H262.861V36.4H260.861ZM260.861 147.8C260.861 157.929 258.823 167.04 254.767 175.153L256.555 176.047C260.766 167.627 262.861 158.204 262.861 147.8H260.861ZM254.758 175.17C250.848 183.381 244.791 189.901 236.555 194.738L237.567 196.462C246.131 191.433 252.474 184.619 256.564 176.03L254.758 175.17ZM236.548 194.741C228.475 199.559 218.331 202 206.061 202V204C218.59 204 229.113 201.508 237.573 196.459L236.548 194.741ZM206.061 202C189.686 202 176.518 198.106 166.469 190.406L165.253 191.994C175.737 200.027 189.37 204 206.061 204V202ZM166.463 190.401C156.427 182.842 150.693 172.563 149.255 159.491L147.267 159.709C148.762 173.303 154.762 184.092 165.259 191.999L166.463 190.401ZM148.261 160.6H182.061V158.6H148.261V160.6ZM181.091 159.843C182.226 164.383 184.934 167.93 189.146 170.457L190.175 168.743C186.388 166.47 184.029 163.35 183.031 159.357L181.091 159.843ZM189.126 170.445C193.32 173.101 198.45 174.4 204.461 174.4V172.4C198.738 172.4 194.002 171.165 190.196 168.755L189.126 170.445ZM204.461 174.4C211.734 174.4 217.609 172.266 221.968 167.907L220.554 166.493C216.646 170.401 211.322 172.4 204.461 172.4V174.4ZM221.945 167.93C226.499 163.66 228.661 156.865 228.661 147.8H226.661C226.661 156.601 224.557 162.74 220.577 166.47L221.945 167.93ZM228.661 147.8V132H226.661V147.8H228.661ZM226.819 131.46C223.581 136.512 219.106 140.67 213.367 143.931L214.355 145.669C220.349 142.264 225.074 137.889 228.503 132.54L226.819 131.46ZM213.382 143.922C207.686 147.029 200.99 148.6 193.261 148.6V150.6C201.265 150.6 208.302 148.971 214.34 145.678L213.382 143.922ZM193.261 148.6C184.24 148.6 176.091 146.315 168.791 141.752L167.731 143.448C175.364 148.219 183.882 150.6 193.261 150.6V148.6ZM168.802 141.759C161.498 137.064 155.68 130.471 151.353 121.947L149.569 122.853C154.042 131.662 160.09 138.536 167.72 143.441L168.802 141.759ZM151.361 121.964C147.17 113.321 145.061 103.341 145.061 92H143.061C143.061 103.592 145.218 113.879 149.561 122.836L151.361 121.964ZM145.061 92C145.061 80.6581 147.171 70.7475 151.358 62.2417L149.564 61.3583C145.218 70.1858 143.061 80.4086 143.061 92H145.061ZM151.353 62.2527C155.679 53.7309 161.494 47.2084 168.791 42.648L167.731 40.952C160.094 45.7249 154.043 52.5358 149.569 61.3473L151.353 62.2527ZM168.791 42.648C176.091 38.0852 184.24 35.8 193.261 35.8V33.8C183.882 33.8 175.364 36.1814 167.731 40.952L168.791 42.648ZM228.661 92.2C228.661 83.472 226.201 76.4651 221.178 71.3026L219.744 72.6974C224.321 77.4016 226.661 83.8613 226.661 92.2H228.661ZM221.187 71.3128C216.332 66.1795 210.335 63.6 203.261 63.6V65.6C209.787 65.6 215.257 67.9538 219.734 72.6872L221.187 71.3128ZM203.261 63.6C196.187 63.6 190.13 66.1785 185.144 71.3026L186.578 72.6974C191.192 67.9548 196.735 65.6 203.261 65.6V63.6ZM185.144 71.3029C180.25 76.3371 177.861 83.281 177.861 92H179.861C179.861 83.6523 182.139 77.2629 186.578 72.6971L185.144 71.3029ZM177.861 92C177.861 100.722 180.25 107.785 185.125 113.077L186.596 111.723C182.138 106.882 179.861 100.345 179.861 92H177.861ZM185.144 113.097C190.13 118.222 196.187 120.8 203.261 120.8V118.8C196.735 118.8 191.192 116.445 186.578 111.703L185.144 113.097ZM203.261 120.8C210.335 120.8 216.332 118.221 221.187 113.087L219.734 111.713C215.257 116.446 209.787 118.8 203.261 118.8V120.8ZM221.178 113.097C226.201 107.935 228.661 100.928 228.661 92.2H226.661C226.661 100.539 224.321 106.998 219.744 111.703L221.178 113.097ZM385.203 100.4V101.4H386.094L386.197 100.515L385.203 100.4ZM307.803 100.4V99.4H306.723L306.806 100.477L307.803 100.4ZM314.403 116.4L313.709 117.119L313.721 117.132L313.734 117.143L314.403 116.4ZM346.803 111V110H346.164L345.896 110.58L346.803 111ZM383.203 111L384.172 111.247L384.49 110H383.203V111ZM373.003 130.8L372.238 130.156L372.229 130.167L373.003 130.8ZM354.803 144.6L355.217 145.51L354.803 144.6ZM301.003 142.6L300.523 143.477L301.003 142.6ZM281.003 122.6L281.878 122.115L281.003 122.6ZM280.803 61.8L279.928 61.3155L279.923 61.3259L280.803 61.8ZM300.803 41.8L301.283 42.6774L300.803 41.8ZM359.003 41.6L358.528 42.48L359.003 41.6ZM378.603 61L377.729 61.4857L377.735 61.4961L378.603 61ZM350.803 81.4V82.4H351.803V81.4H350.803ZM344.803 67.4L345.458 66.6443L344.803 67.4ZM315.203 67.2L314.563 66.4318L314.557 66.4371L314.55 66.4426L315.203 67.2ZM308.003 81.4L307.014 81.2496L306.839 82.4H308.003V81.4ZM384.803 90.4C384.803 93.5584 384.606 96.8534 384.21 100.285L386.197 100.515C386.601 97.0133 386.803 93.6416 386.803 90.4H384.803ZM385.203 99.4H307.803V101.4H385.203V99.4ZM306.806 100.477C307.353 107.581 309.619 113.171 313.709 117.119L315.098 115.681C311.454 112.162 309.32 107.086 308.8 100.323L306.806 100.477ZM313.734 117.143C317.93 120.92 323.04 122.8 329.003 122.8V120.8C323.499 120.8 318.876 119.08 315.072 115.657L313.734 117.143ZM329.003 122.8C333.411 122.8 337.216 121.869 340.372 119.955C343.532 118.038 345.973 115.174 347.711 111.42L345.896 110.58C344.3 114.026 342.108 116.562 339.334 118.245C336.556 119.931 333.129 120.8 329.003 120.8V122.8ZM346.803 112H383.203V110H346.803V112ZM382.234 110.753C380.405 117.939 377.075 124.403 372.238 130.156L373.768 131.444C378.797 125.463 382.268 118.728 384.172 111.247L382.234 110.753ZM372.229 130.167C367.532 135.907 361.592 140.416 354.389 143.69L355.217 145.51C362.681 142.118 368.874 137.426 373.777 131.433L372.229 130.167ZM354.389 143.69C347.201 146.957 339.145 148.6 330.203 148.6V150.6C339.395 150.6 347.738 148.91 355.217 145.51L354.389 143.69ZM330.203 148.6C319.416 148.6 309.852 146.299 301.483 141.723L300.523 143.477C309.221 148.234 319.123 150.6 330.203 150.6V148.6ZM301.483 141.723C293.119 137.149 286.588 130.62 281.878 122.115L280.128 123.085C285.018 131.914 291.821 138.718 300.523 143.477L301.483 141.723ZM281.878 122.115C277.173 113.621 274.803 103.66 274.803 92.2H272.803C272.803 103.94 275.233 114.246 280.128 123.085L281.878 122.115ZM274.803 92.2C274.803 80.7359 277.108 70.7711 281.684 62.2741L279.923 61.3259C275.165 70.1622 272.803 80.4641 272.803 92.2H274.803ZM281.678 62.2845C286.388 53.7803 292.919 47.2514 301.283 42.6774L300.323 40.9226C291.621 45.682 284.818 52.4864 279.928 61.3155L281.678 62.2845ZM301.283 42.6774C309.65 38.1017 319.281 35.8 330.203 35.8V33.8C318.992 33.8 309.023 36.165 300.323 40.9226L301.283 42.6774ZM330.203 35.8C340.859 35.8 350.292 38.0353 358.528 42.48L359.478 40.72C350.914 36.098 341.147 33.8 330.203 33.8V35.8ZM358.528 42.48C366.759 46.9221 373.154 53.2513 377.729 61.4856L379.477 60.5143C374.719 51.9487 368.047 45.3446 359.478 40.72L358.528 42.48ZM377.735 61.4961C382.436 69.7226 384.803 79.3463 384.803 90.4H386.803C386.803 79.0537 384.371 69.0773 379.471 60.5039L377.735 61.4961ZM351.803 81.4C351.803 75.2786 349.703 70.3229 345.458 66.6443L344.148 68.1557C347.904 71.4105 349.803 75.7881 349.803 81.4H351.803ZM345.458 66.6443C341.252 62.999 336.009 61.2 329.803 61.2V63.2C335.597 63.2 340.354 64.8677 344.148 68.1557L345.458 66.6443ZM329.803 61.2C323.861 61.2 318.761 62.9332 314.563 66.4318L315.843 67.9682C319.645 64.8001 324.278 63.2 329.803 63.2V61.2ZM314.55 66.4426C310.466 69.9634 307.976 74.9332 307.014 81.2496L308.992 81.5504C309.897 75.6001 312.207 71.1032 315.856 67.9574L314.55 66.4426ZM308.003 82.4H350.803V80.4H308.003V82.4ZM497.045 48L496.304 48.6715L496.31 48.6776L496.315 48.6836L497.045 48ZM508.845 148V149H509.845V148H508.845ZM474.845 148H473.845V149H474.845V148ZM469.045 70L468.315 70.6832L469.045 70ZM437.845 70L438.576 70.6832L437.845 70ZM432.045 148V149H433.045V148H432.045ZM397.845 148H396.845V149H397.845V148ZM397.845 36.4V35.4H396.845V36.4H397.845ZM432.045 36.4H433.045V35.4H432.045V36.4ZM432.045 51.2H431.045V54.3624L432.863 51.7749L432.045 51.2ZM446.045 39.6L446.476 40.5025L446.484 40.4985L446.493 40.4944L446.045 39.6ZM465.845 36.2C478.672 36.2 488.787 40.3766 496.304 48.6715L497.786 47.3285C489.837 38.5567 479.152 34.2 465.845 34.2V36.2ZM496.315 48.6836C503.963 56.8498 507.845 68.1787 507.845 82.8H509.845C509.845 67.8213 505.861 55.9502 497.775 47.3164L496.315 48.6836ZM507.845 82.8V148H509.845V82.8H507.845ZM508.845 147H474.845V149H508.845V147ZM475.845 148V87.4H473.845V148H475.845ZM475.845 87.4C475.845 79.7628 473.865 73.6883 469.776 69.3168L468.315 70.6832C471.959 74.5783 473.845 80.1039 473.845 87.4H475.845ZM469.776 69.3168C465.69 64.9496 460.209 62.8 453.445 62.8V64.8C459.749 64.8 464.667 66.7837 468.315 70.6832L469.776 69.3168ZM453.445 62.8C446.682 62.8 441.201 64.9496 437.115 69.3168L438.576 70.6832C442.223 66.7837 447.142 64.8 453.445 64.8V62.8ZM437.115 69.3168C433.026 73.6883 431.045 79.7628 431.045 87.4H433.045C433.045 80.1039 434.932 74.5783 438.576 70.6832L437.115 69.3168ZM431.045 87.4V148H433.045V87.4H431.045ZM432.045 147H397.845V149H432.045V147ZM398.845 148V36.4H396.845V148H398.845ZM397.845 37.4H432.045V35.4H397.845V37.4ZM431.045 36.4V51.2H433.045V36.4H431.045ZM432.863 51.7749C436.224 46.9932 440.752 43.2344 446.476 40.5025L445.615 38.6975C439.605 41.5656 434.8 45.5401 431.227 50.625L432.863 51.7749ZM446.493 40.4944C452.205 37.6384 458.649 36.2 465.845 36.2V34.2C458.375 34.2 451.619 35.695 445.598 38.7056L446.493 40.4944ZM526.211 61.8L525.319 61.3473L525.314 61.3583L526.211 61.8ZM544.011 41.8L544.541 42.648L544.011 41.8ZM589.011 39.4L588.556 40.2905L588.564 40.2944L589.011 39.4ZM603.411 51.8L602.579 52.3547L604.411 55.1028V51.8H603.411ZM603.411 0V-1H602.411V0H603.411ZM637.611 0H638.611V-1H637.611V0ZM637.611 148V149H638.611V148H637.611ZM603.411 148H602.411V149H603.411V148ZM603.411 132H604.411V128.39L602.553 131.486L603.411 132ZM589.611 144.8L589.14 143.918L589.132 143.922L589.611 144.8ZM544.011 142.6L543.47 143.441L543.481 143.448L544.011 142.6ZM526.211 122.4L525.311 122.836L525.315 122.845L525.319 122.853L526.211 122.4ZM596.211 72L595.484 72.6873L595.494 72.6974L596.211 72ZM561.611 72L560.894 71.3026L560.894 71.3029L561.611 72ZM561.611 112.4L560.875 113.077L560.885 113.088L560.894 113.097L561.611 112.4ZM596.211 112.4L595.494 111.703L595.484 111.713L596.211 112.4ZM520.811 92C520.811 80.6581 522.921 70.7475 527.108 62.2417L525.314 61.3583C520.968 70.1858 518.811 80.4086 518.811 92H520.811ZM527.103 62.2527C531.429 53.7309 537.244 47.2084 544.541 42.648L543.481 40.952C535.844 45.7249 529.793 52.5358 525.319 61.3473L527.103 62.2527ZM544.541 42.648C551.841 38.0852 559.99 35.8 569.011 35.8V33.8C559.632 33.8 551.114 36.1814 543.481 40.952L544.541 42.648ZM569.011 35.8C576.2 35.8 582.709 37.302 588.556 40.2904L589.466 38.5096C583.313 35.3647 576.488 33.8 569.011 33.8V35.8ZM588.564 40.2944C594.557 43.291 599.218 47.3133 602.579 52.3547L604.243 51.2453C600.671 45.8867 595.732 41.6423 589.458 38.5056L588.564 40.2944ZM604.411 51.8V0H602.411V51.8H604.411ZM603.411 1H637.611V-1H603.411V1ZM636.611 0V148H638.611V0H636.611ZM637.611 147H603.411V149H637.611V147ZM604.411 148V132H602.411V148H604.411ZM602.553 131.486C599.455 136.649 594.996 140.795 589.14 143.918L590.082 145.682C596.226 142.405 600.967 138.018 604.268 132.514L602.553 131.486ZM589.132 143.922C583.436 147.029 576.74 148.6 569.011 148.6V150.6C577.015 150.6 584.052 148.971 590.09 145.678L589.132 143.922ZM569.011 148.6C559.99 148.6 551.841 146.315 544.541 141.752L543.481 143.448C551.114 148.219 559.632 150.6 569.011 150.6V148.6ZM544.552 141.759C537.248 137.064 531.43 130.471 527.103 121.947L525.319 122.853C529.792 131.662 535.84 138.536 543.47 143.441L544.552 141.759ZM527.111 121.964C522.92 113.321 520.811 103.341 520.811 92H518.811C518.811 103.592 520.968 113.879 525.311 122.836L527.111 121.964ZM604.411 92.2C604.411 83.472 601.951 76.4651 596.928 71.3026L595.494 72.6974C600.071 77.4016 602.411 83.8613 602.411 92.2H604.411ZM596.937 71.3128C592.082 66.1795 586.085 63.6 579.011 63.6V65.6C585.536 65.6 591.007 67.9538 595.484 72.6872L596.937 71.3128ZM579.011 63.6C571.937 63.6 565.88 66.1785 560.894 71.3026L562.328 72.6974C566.942 67.9548 572.485 65.6 579.011 65.6V63.6ZM560.894 71.3029C556 76.3371 553.611 83.281 553.611 92H555.611C555.611 83.6523 557.889 77.2629 562.328 72.6971L560.894 71.3029ZM553.611 92C553.611 100.722 556 107.785 560.875 113.077L562.346 111.723C557.888 106.882 555.611 100.345 555.611 92H553.611ZM560.894 113.097C565.88 118.222 571.937 120.8 579.011 120.8V118.8C572.485 118.8 566.942 116.445 562.328 111.703L560.894 113.097ZM579.011 120.8C586.085 120.8 592.082 118.221 596.937 113.087L595.484 111.713C591.007 116.446 585.536 118.8 579.011 118.8V120.8ZM596.928 113.097C601.951 107.935 604.411 100.928 604.411 92.2H602.411C602.411 100.539 600.071 106.998 595.494 111.703L596.928 113.097ZM655.953 61.8L655.061 61.3473L655.056 61.3583L655.953 61.8ZM673.753 41.8L674.283 42.648L673.753 41.8ZM719.353 39.6L718.874 40.4779L718.883 40.4823L719.353 39.6ZM733.153 52.2L732.301 52.7241L734.153 55.733V52.2H733.153ZM733.153 36.4V35.4H732.153V36.4H733.153ZM767.353 36.4H768.353V35.4H767.353V36.4ZM767.353 148V149H768.353V148H767.353ZM733.153 148H732.153V149H733.153V148ZM733.153 132.2H734.153V128.787L732.311 131.66L733.153 132.2ZM719.153 144.8L718.682 143.918L718.674 143.922L719.153 144.8ZM673.753 142.6L673.212 143.441L673.223 143.448L673.753 142.6ZM655.953 122.4L655.053 122.836L655.057 122.845L655.061 122.853L655.953 122.4ZM725.953 72L725.227 72.6873L725.236 72.6974L725.953 72ZM691.353 72L690.636 71.3026L690.636 71.3029L691.353 72ZM691.353 112.4L690.618 113.077L690.627 113.088L690.636 113.097L691.353 112.4ZM725.953 112.4L725.236 111.703L725.227 111.713L725.953 112.4ZM650.553 92C650.553 80.6581 652.663 70.7475 656.85 62.2417L655.056 61.3583C650.71 70.1858 648.553 80.4086 648.553 92H650.553ZM656.845 62.2527C661.171 53.7309 666.986 47.2084 674.283 42.648L673.223 40.952C665.586 45.7249 659.535 52.5358 655.061 61.3473L656.845 62.2527ZM674.283 42.648C681.584 38.0852 689.732 35.8 698.753 35.8V33.8C689.375 33.8 680.856 36.1814 673.223 40.952L674.283 42.648ZM698.753 35.8C706.482 35.8 713.179 37.3711 718.874 40.4779L719.832 38.7221C713.794 35.4289 706.757 33.8 698.753 33.8V35.8ZM718.883 40.4823C724.744 43.6086 729.205 47.6919 732.301 52.7241L734.005 51.6759C730.702 46.3081 725.962 41.9914 719.824 38.7176L718.883 40.4823ZM734.153 52.2V36.4H732.153V52.2H734.153ZM733.153 37.4H767.353V35.4H733.153V37.4ZM766.353 36.4V148H768.353V36.4H766.353ZM767.353 147H733.153V149H767.353V147ZM734.153 148V132.2H732.153V148H734.153ZM732.311 131.66C729.079 136.702 724.547 140.79 718.683 143.918L719.624 145.682C725.759 142.41 730.56 138.098 733.995 132.74L732.311 131.66ZM718.674 143.922C712.979 147.029 706.282 148.6 698.553 148.6V150.6C706.557 150.6 713.594 148.971 719.632 145.678L718.674 143.922ZM698.553 148.6C689.668 148.6 681.586 146.316 674.283 141.752L673.223 143.448C680.854 148.217 689.305 150.6 698.553 150.6V148.6ZM674.294 141.759C666.991 137.064 661.172 130.471 656.845 121.947L655.061 122.853C659.534 131.662 665.582 138.536 673.212 143.441L674.294 141.759ZM656.853 121.964C652.663 113.321 650.553 103.341 650.553 92H648.553C648.553 103.592 650.71 113.879 655.053 122.836L656.853 121.964ZM734.153 92.2C734.153 83.472 731.693 76.4651 726.67 71.3026L725.236 72.6974C729.813 77.4016 732.153 83.8613 732.153 92.2H734.153ZM726.68 71.3128C721.824 66.1795 715.828 63.6 708.753 63.6V65.6C715.279 65.6 720.749 67.9538 725.227 72.6872L726.68 71.3128ZM708.753 63.6C701.679 63.6 695.622 66.1785 690.636 71.3026L692.07 72.6974C696.684 67.9548 702.227 65.6 708.753 65.6V63.6ZM690.636 71.3029C685.742 76.3371 683.353 83.281 683.353 92H685.353C685.353 83.6523 687.631 77.2629 692.07 72.6971L690.636 71.3029ZM683.353 92C683.353 100.722 685.743 107.785 690.618 113.077L692.089 111.723C687.63 106.882 685.353 100.345 685.353 92H683.353ZM690.636 113.097C695.622 118.222 701.679 120.8 708.753 120.8V118.8C702.227 118.8 696.684 116.445 692.07 111.703L690.636 113.097ZM708.753 120.8C715.828 120.8 721.824 118.221 726.68 113.087L725.227 111.713C720.749 116.446 715.279 118.8 708.753 118.8V120.8ZM726.67 113.097C731.693 107.935 734.153 100.928 734.153 92.2H732.153C732.153 100.539 729.813 106.998 725.236 111.703L726.67 113.097Z" fill="white"/>
</svg>
