<svg width="24" height="24" viewBox="0 0 24 24" fill="none" xmlns="http://www.w3.org/2000/svg">
<path fill-rule="evenodd" clip-rule="evenodd" d="M17.4783 0.000233737C17.1901 0.000233737 16.9566 0.233711 16.9566 0.521969C16.9566 0.810228 17.1901 1.0437 17.4783 1.0437H20.8695C22.0225 1.0437 22.9565 1.97762 22.9565 3.13065V5.75629L22.1113 4.18717C21.9743 3.93413 21.6587 3.8389 21.4043 3.97587C21.1513 4.11283 21.056 4.42849 21.193 4.68283L22.5287 7.16238C22.9134 7.87845 23.9999 7.60455 23.9999 6.79194V3.13061C23.9999 1.40235 22.5978 0.000196797 20.8695 0.000196797L17.4783 0.000233737ZM3.65242 5.21759C3.65242 5.64934 4.00329 6.00021 4.43504 6.00021C4.86678 6.00021 5.21766 5.64934 5.21766 5.21759C5.21766 4.78584 4.86678 4.43497 4.43504 4.43497C4.00329 4.43497 3.65242 4.78584 3.65242 5.21759ZM9.65246 6.00021C9.22071 6.00021 8.86984 5.64934 8.86984 5.21759C8.86984 4.78584 9.22071 4.43497 9.65246 4.43497C10.0842 4.43497 10.4351 4.78584 10.4351 5.21759C10.4351 5.64934 10.0842 6.00021 9.65246 6.00021ZM9.0003 10.7791C9.19073 10.9957 9.52073 11.0165 9.73594 10.8261C9.95246 10.6357 9.97333 10.3057 9.78289 10.0905C9.12288 9.34046 8.13811 8.86961 7.04379 8.86961C5.94946 8.86961 4.96466 9.34049 4.30468 10.0905C4.11425 10.3057 4.13512 10.6357 4.35164 10.8261C4.56685 11.0165 4.89685 10.9957 5.08728 10.7791C5.55161 10.2535 6.25206 9.91304 7.04379 9.91304C7.83553 9.91304 8.53596 10.2535 9.0003 10.7791ZM6.00031 23.4781C6.00031 23.7664 5.76683 23.9998 5.47857 23.9998H3.13078C1.40253 23.9998 0.000367482 22.5977 0.000367482 20.8694V16.6865C0.000367482 15.8739 1.08688 15.6 1.47164 16.3161L2.80729 18.7956C2.94424 19.05 2.84903 19.3656 2.59599 19.5026C2.34164 19.6395 2.026 19.5443 1.88903 19.2913L1.04384 17.7222V20.8696C1.04384 22.0226 1.97775 22.9565 3.13078 22.9565H5.47857C5.76683 22.9565 6.00031 23.1898 6.00031 23.4781ZM19.3046 8.60872C21.8977 8.60872 24.0001 10.7113 24.0001 13.3042V16.9565C24.0001 20.8459 20.8462 24 16.9566 24C13.067 24 9.91308 20.8461 9.91308 16.9565V14.7822C9.03656 15.1735 8.06615 15.3913 7.04351 15.3913C3.15412 15.3913 0 12.2374 0 8.34777V4.69545C0 2.10244 2.1026 0 4.69545 0H9.39091C11.9839 0 14.0864 2.1026 14.0864 4.69545V8.34777C14.0864 8.44559 14.0851 8.54211 14.0811 8.63733C14.2533 8.61907 14.4294 8.60864 14.6081 8.60864L19.3046 8.60872ZM7.04378 14.348C8.08335 14.348 9.0603 14.0832 9.91334 13.6188V13.3045C9.91334 11.2684 11.2085 9.53632 13.0203 8.88419C13.0359 8.70811 13.0438 8.52941 13.0438 8.3481V4.69578C13.0438 2.67926 11.4081 1.04347 9.39144 1.04347H4.69599C2.67947 1.04347 1.04368 2.6791 1.04368 4.69578V8.3481C1.04368 11.6611 3.73069 14.348 7.04378 14.348ZM22.9566 13.3045C22.9566 11.288 21.321 9.65219 19.3043 9.65219H14.6089C12.5923 9.65219 10.9565 11.2878 10.9565 13.3045V16.9568C10.9565 20.2699 13.6435 22.9569 16.9566 22.9569C20.2697 22.9569 22.9566 20.2699 22.9566 16.9568V13.3045ZM18.9133 18.1776C19.1037 17.9611 19.4337 17.9402 19.6489 18.1306C19.8655 18.3211 19.8863 18.6511 19.6959 18.8663C19.0359 19.6163 18.0511 20.0871 16.9568 20.0871C15.8625 20.0871 14.8777 19.6162 14.2177 18.8663C14.0273 18.6511 14.0481 18.3211 14.2646 18.1306C14.4799 17.9402 14.8099 17.9611 15.0003 18.1776C15.4646 18.7032 16.1651 19.0437 16.9568 19.0437C17.7485 19.0437 18.449 18.7033 18.9133 18.1776ZM18.7829 13.8264C18.7829 14.2582 19.1337 14.609 19.5655 14.609C19.9972 14.609 20.3481 14.2582 20.3481 13.8264C20.3481 13.3947 19.9972 13.0438 19.5655 13.0438C19.1337 13.0438 18.7829 13.3947 18.7829 13.8264ZM14.3482 14.609C13.9165 14.609 13.5656 14.2582 13.5656 13.8264C13.5656 13.3947 13.9165 13.0438 14.3482 13.0438C14.78 13.0438 15.1308 13.3947 15.1308 13.8264C15.1308 14.2582 14.78 14.609 14.3482 14.609Z" fill="#293FCC"/>
</svg>
