<svg width="24" height="22" viewBox="0 0 24 22" fill="none" xmlns="http://www.w3.org/2000/svg">
<path d="M12.8643 15.0439V1.02533C12.8643 0.460221 12.3967 0 11.8236 0H1.04064C0.466524 0 0 0.460221 0 1.02533V15.0439C0 15.609 0.467557 16.0682 1.04064 16.0682H11.8226C12.3967 16.0682 12.8632 15.608 12.8632 15.0439H12.8643ZM0.827652 15.0439V1.02533C0.827652 0.909257 0.923854 0.814565 1.04075 0.814565H11.8227C11.9406 0.814565 12.0358 0.909257 12.0358 1.02533V15.0439C12.0358 15.16 11.9396 15.2536 11.8227 15.2536H1.04075C0.922821 15.2536 0.827652 15.1589 0.827652 15.0439Z" fill="#293FCC"/>
<path d="M10.8737 1.43146H1.98994C1.76134 1.43146 1.57617 1.61372 1.57617 1.83874V3.94031C1.58755 4.4769 2.3944 4.47487 2.40372 3.94031V2.24602H10.4599V6.89828L8.99308 5.35468C8.91756 5.27526 8.81412 5.22944 8.70448 5.22537C8.59276 5.2162 8.48725 5.26202 8.4076 5.33533L6.46494 7.13347L5.15122 5.75075C5.01261 5.60413 4.78607 5.57969 4.61746 5.69067L2.40377 7.16298V5.36586C2.40377 5.14084 2.21861 4.95858 1.99 4.95858C1.76139 4.95858 1.57622 5.14084 1.57622 5.36586V10.5832C1.57622 10.8083 1.76139 10.9905 1.99 10.9905H10.8737C11.1023 10.9905 11.2875 10.8083 11.2875 10.5832V1.83887C11.2875 1.61385 11.1023 1.43146 10.8737 1.43146ZM2.40385 10.1758V8.14551L4.78822 6.56018L6.67089 8.54161C6.75261 8.62714 6.86226 8.67092 6.97294 8.67092C7.32051 8.68314 7.52531 8.23207 7.27499 7.98567L7.02982 7.72705L8.67146 6.20688L10.459 8.08853V10.1738L2.40385 10.1758Z" fill="#293FCC"/>
<path d="M7.56424 3.94524C7.52493 2.47496 5.33815 2.47496 5.29883 3.94524C5.33814 5.41552 7.52491 5.4145 7.56424 3.94524ZM6.12637 3.94524C6.12844 3.55222 6.73463 3.55222 6.73669 3.94524C6.73462 4.33826 6.12844 4.33826 6.12637 3.94524Z" fill="#293FCC"/>
<path d="M19.1103 19.2744C18.8972 19.1929 18.6573 19.2958 18.5735 19.5045L17.9632 21.0349C17.9011 21.1764 17.7749 21.208 17.6456 21.1642L7.67664 17.3072C7.6063 17.2797 7.55562 17.2298 7.53493 17.1657C7.46459 16.9518 7.23081 16.8368 7.01356 16.905C6.39808 17.1626 6.91942 17.9273 7.37561 18.0668L17.3414 21.9237C17.6124 22.0296 17.9093 22.0256 18.1762 21.9095C18.4379 21.7955 18.6375 21.5867 18.7358 21.3281L19.344 19.8048C19.4278 19.5951 19.3234 19.3589 19.1103 19.2764L19.1103 19.2744Z" fill="#293FCC"/>
<path d="M23.9053 7.52229C23.7884 7.26571 23.5764 7.0702 23.3157 6.97449L14.2582 3.45975C13.7534 3.27444 13.4493 4.00959 13.9551 4.21832L23.019 7.73515C23.0945 7.76264 23.1317 7.8166 23.1503 7.85631C23.1783 7.9174 23.1793 7.98562 23.1555 8.04774L19.1335 18.1076C18.9432 18.6004 19.6921 18.9059 19.9042 18.406L23.927 8.34319C24.0325 8.0744 24.0243 7.78295 23.9053 7.52229Z" fill="#293FCC"/>
<path d="M14.2559 14.3993C13.748 14.2109 13.45 14.9542 13.9538 15.1578L18.3813 16.8684C18.4309 16.8878 18.4816 16.8969 18.5323 16.8969C18.6978 16.8969 18.854 16.7992 18.9171 16.6383L22.1653 8.50076C22.2491 8.29203 22.1446 8.0548 21.9315 7.97334L14.2561 5.00025C13.7482 4.81596 13.4493 5.55111 13.9531 5.75883L21.2437 8.58229L19.5151 12.9126L18.7248 10.9475C18.6473 10.7428 18.3917 10.6339 18.1869 10.7194L15.7074 11.6938L14.9988 9.93337C14.9233 9.74704 14.7216 9.64013 14.5219 9.68595L14.013 9.79999C13.4854 9.92726 13.6644 10.7062 14.1971 10.5942L14.3606 10.5575L15.3764 13.0796C15.5812 13.5745 16.3425 13.2741 16.146 12.7793L16.0136 12.4504L18.1104 11.6267L19.0744 14.0225L18.3007 15.9622L14.258 14.4002L14.2559 14.3993Z" fill="#293FCC"/>
<path d="M16.4511 9.75014C17.8538 10.2552 18.6565 8.24931 17.2807 7.67505C15.877 7.17003 15.0753 9.17893 16.4511 9.75014ZM16.5814 8.60264C16.7294 8.23813 17.2931 8.45602 17.1493 8.82257C17.0014 9.18708 16.4366 8.96817 16.5814 8.60264Z" fill="#293FCC"/>
</svg>
