<svg width="17" height="18" viewBox="0 0 17 18" fill="none" xmlns="http://www.w3.org/2000/svg">
<path d="M8.40297 13.2C7.7814 13.1991 7.17067 13.0372 6.63023 12.7302C6.26071 12.5202 5.93265 12.2474 5.66012 11.9252C5.45003 11.6769 5.0928 11.5803 4.81201 11.7445C4.52651 11.9114 4.43007 12.2824 4.63497 12.5421C5.02029 13.0303 5.4981 13.4406 6.04305 13.7483C6.76314 14.1549 7.57604 14.3685 8.40297 14.3685C9.2299 14.3685 10.0428 14.1549 10.7629 13.7483C11.3078 13.4406 11.7856 13.0303 12.171 12.5421C12.3759 12.2824 12.2794 11.9114 11.9939 11.7445C11.7131 11.5803 11.3559 11.6769 11.1458 11.9252C10.8733 12.2474 10.5452 12.5202 10.1757 12.7302C9.63526 13.0372 9.02453 13.1991 8.40297 13.2Z" fill="#293FCC"/>
<path d="M16.8047 3C16.8047 2.66863 16.5361 2.4 16.2047 2.4H14.4047V0.599999C14.4047 0.268629 14.1361 0 13.8047 0C13.4733 0 13.2047 0.268629 13.2047 0.6V2.4H11.4047C11.0733 2.4 10.8047 2.66863 10.8047 3C10.8047 3.33137 11.0733 3.6 11.4047 3.6H13.2047V5.4C13.2047 5.73137 13.4733 6 13.8047 6C14.1361 6 14.4047 5.73137 14.4047 5.4V3.6H16.2047C16.5361 3.6 16.8047 3.33137 16.8047 3Z" fill="#293FCC"/>
<path d="M5.70313 6.5999C5.40645 6.5999 5.11644 6.68788 4.86977 6.8527C4.6231 7.01752 4.43084 7.25179 4.31731 7.52588C4.20377 7.79997 4.17407 8.10157 4.23195 8.39254C4.28983 8.68351 4.43269 8.95078 4.64247 9.16056C4.85224 9.37034 5.11952 9.5132 5.41049 9.57108C5.70146 9.62896 6.00306 9.59925 6.27715 9.48572C6.55124 9.37219 6.78551 9.17993 6.95033 8.93326C7.11515 8.68658 7.20313 8.39657 7.20313 8.0999C7.20472 7.90247 7.16702 7.7067 7.0922 7.52399C7.01739 7.34128 6.90696 7.17529 6.76735 7.03568C6.62774 6.89607 6.46175 6.78564 6.27904 6.71083C6.09633 6.63601 5.90055 6.5983 5.70313 6.5999Z" fill="#293FCC"/>
<path d="M11.1016 6.5999C10.8049 6.5999 10.5149 6.68788 10.2682 6.8527C10.0215 7.01752 9.82928 7.25179 9.71574 7.52588C9.60221 7.79997 9.57251 8.10157 9.63039 8.39254C9.68826 8.68351 9.83112 8.95078 10.0409 9.16056C10.2507 9.37034 10.518 9.5132 10.8089 9.57108C11.0999 9.62896 11.4015 9.59925 11.6756 9.48572C11.9497 9.37219 12.1839 9.17993 12.3488 8.93326C12.5136 8.68658 12.6016 8.39657 12.6016 8.0999C12.6032 7.90247 12.5655 7.7067 12.4906 7.52399C12.4158 7.34128 12.3054 7.17529 12.1658 7.03568C12.0262 6.89607 11.8602 6.78564 11.6775 6.71083C11.4948 6.63601 11.299 6.5983 11.1016 6.5999Z" fill="#293FCC"/>
<path d="M16.1303 7.79995C15.7446 7.79995 15.4633 8.16438 15.5207 8.54571C15.5731 8.89439 15.6007 9.2467 15.6029 9.59995C15.6029 11.024 15.1806 12.416 14.3895 13.6001C13.5983 14.7841 12.4738 15.7069 11.1582 16.2519C9.84257 16.7968 8.39489 16.9394 6.99823 16.6616C5.60156 16.3838 4.31865 15.6981 3.31171 14.6911C2.30477 13.6842 1.61904 12.4013 1.34122 11.0046C1.06341 9.60794 1.20599 8.16026 1.75094 6.84463C2.2959 5.529 3.21874 4.40452 4.40277 3.61337C5.42 2.93368 6.59077 2.52625 7.80344 2.42494C8.13372 2.39735 8.40288 2.13128 8.40288 1.79985C8.40288 1.4685 8.13396 1.19763 7.80345 1.22116C6.27659 1.32985 4.80424 1.85418 3.54845 2.74266C2.12898 3.74694 1.05614 5.16698 0.477969 6.80685C-0.100208 8.44672 -0.155233 10.2256 0.320484 11.8981C0.796202 13.5706 1.77921 15.0542 3.1339 16.1443C4.48859 17.2344 6.14818 17.8772 7.8837 17.9841C9.61923 18.0909 11.3451 17.6566 12.8233 16.741C14.3015 15.8253 15.4592 14.4735 16.1365 12.872C16.7521 11.4166 16.9434 9.82012 16.6934 8.26618C16.6494 7.99255 16.4074 7.79995 16.1303 7.79995Z" fill="#293FCC"/>
</svg>
