<svg width="75" height="75" viewBox="0 0 75 75" fill="none" xmlns="http://www.w3.org/2000/svg">
<circle cx="37.5" cy="37.5" r="37" fill="#FFD232" stroke="#D1AA1F"/>
<path d="M30.1801 35.66V44H28.8121V38.288L26.2681 44H25.3201L22.7641 38.288V44H21.3961V35.66H22.8721L25.8001 42.2L28.7161 35.66H30.1801ZM35.7821 44.084C35.0061 44.084 34.2901 43.904 33.6341 43.544C32.9861 43.176 32.4701 42.668 32.0861 42.02C31.7101 41.364 31.5221 40.628 31.5221 39.812C31.5221 38.996 31.7101 38.264 32.0861 37.616C32.4701 36.968 32.9861 36.464 33.6341 36.104C34.2901 35.736 35.0061 35.552 35.7821 35.552C36.5661 35.552 37.2821 35.736 37.9301 36.104C38.5861 36.464 39.1021 36.968 39.4781 37.616C39.8541 38.264 40.0421 38.996 40.0421 39.812C40.0421 40.628 39.8541 41.364 39.4781 42.02C39.1021 42.668 38.5861 43.176 37.9301 43.544C37.2821 43.904 36.5661 44.084 35.7821 44.084ZM35.7821 42.896C36.3341 42.896 36.8261 42.772 37.2581 42.524C37.6901 42.268 38.0261 41.908 38.2661 41.444C38.5141 40.972 38.6381 40.428 38.6381 39.812C38.6381 39.196 38.5141 38.656 38.2661 38.192C38.0261 37.728 37.6901 37.372 37.2581 37.124C36.8261 36.876 36.3341 36.752 35.7821 36.752C35.2301 36.752 34.7381 36.876 34.3061 37.124C33.8741 37.372 33.5341 37.728 33.2861 38.192C33.0461 38.656 32.9261 39.196 32.9261 39.812C32.9261 40.428 33.0461 40.972 33.2861 41.444C33.5341 41.908 33.8741 42.268 34.3061 42.524C34.7381 42.772 35.2301 42.896 35.7821 42.896ZM44.1363 44.084C43.5763 44.084 43.0723 43.988 42.6243 43.796C42.1763 43.596 41.8243 43.316 41.5683 42.956C41.3123 42.596 41.1843 42.176 41.1843 41.696H42.6483C42.6803 42.056 42.8203 42.352 43.0683 42.584C43.3243 42.816 43.6803 42.932 44.1363 42.932C44.6083 42.932 44.9763 42.82 45.2403 42.596C45.5043 42.364 45.6363 42.068 45.6363 41.708C45.6363 41.428 45.5523 41.2 45.3843 41.024C45.2243 40.848 45.0203 40.712 44.7723 40.616C44.5323 40.52 44.1963 40.416 43.7643 40.304C43.2203 40.16 42.7763 40.016 42.4323 39.872C42.0963 39.72 41.8083 39.488 41.5683 39.176C41.3283 38.864 41.2083 38.448 41.2083 37.928C41.2083 37.448 41.3283 37.028 41.5683 36.668C41.8083 36.308 42.1443 36.032 42.5763 35.84C43.0083 35.648 43.5083 35.552 44.0763 35.552C44.8843 35.552 45.5443 35.756 46.0563 36.164C46.5763 36.564 46.8643 37.116 46.9203 37.82H45.4083C45.3843 37.516 45.2403 37.256 44.9763 37.04C44.7123 36.824 44.3643 36.716 43.9323 36.716C43.5403 36.716 43.2203 36.816 42.9723 37.016C42.7243 37.216 42.6003 37.504 42.6003 37.88C42.6003 38.136 42.6763 38.348 42.8283 38.516C42.9883 38.676 43.1883 38.804 43.4283 38.9C43.6683 38.996 43.9963 39.1 44.4123 39.212C44.9643 39.364 45.4123 39.516 45.7563 39.668C46.1083 39.82 46.4043 40.056 46.6443 40.376C46.8923 40.688 47.0163 41.108 47.0163 41.636C47.0163 42.06 46.9003 42.46 46.6683 42.836C46.4443 43.212 46.1123 43.516 45.6723 43.748C45.2403 43.972 44.7283 44.084 44.1363 44.084ZM54.0185 35.66V36.776H51.7985V44H50.4305V36.776H48.1985V35.66H54.0185ZM17.607 49.144C17.607 49.568 17.507 49.968 17.307 50.344C17.107 50.72 16.787 51.028 16.347 51.268C15.907 51.5 15.343 51.616 14.655 51.616H13.143L13.143 55H11.775L11.775 46.66H14.655C15.295 46.66 15.835 46.772 16.275 46.996C16.723 47.212 17.055 47.508 17.271 47.884C17.495 48.26 17.607 48.68 17.607 49.144ZM14.655 50.5C15.175 50.5 15.563 50.384 15.819 50.152C16.075 49.912 16.203 49.576 16.203 49.144C16.203 48.232 15.687 47.776 14.655 47.776H13.143V50.5H14.655ZM22.7157 55.084C21.9397 55.084 21.2237 54.904 20.5677 54.544C19.9197 54.176 19.4037 53.668 19.0197 53.02C18.6437 52.364 18.4557 51.628 18.4557 50.812C18.4557 49.996 18.6437 49.264 19.0197 48.616C19.4037 47.968 19.9197 47.464 20.5677 47.104C21.2237 46.736 21.9397 46.552 22.7157 46.552C23.4997 46.552 24.2157 46.736 24.8637 47.104C25.5197 47.464 26.0357 47.968 26.4117 48.616C26.7877 49.264 26.9757 49.996 26.9757 50.812C26.9757 51.628 26.7877 52.364 26.4117 53.02C26.0357 53.668 25.5197 54.176 24.8637 54.544C24.2157 54.904 23.4997 55.084 22.7157 55.084ZM22.7157 53.896C23.2677 53.896 23.7597 53.772 24.1917 53.524C24.6237 53.268 24.9597 52.908 25.1997 52.444C25.4477 51.972 25.5717 51.428 25.5717 50.812C25.5717 50.196 25.4477 49.656 25.1997 49.192C24.9597 48.728 24.6237 48.372 24.1917 48.124C23.7597 47.876 23.2677 47.752 22.7157 47.752C22.1637 47.752 21.6717 47.876 21.2397 48.124C20.8077 48.372 20.4677 48.728 20.2197 49.192C19.9797 49.656 19.8597 50.196 19.8597 50.812C19.8597 51.428 19.9797 51.972 20.2197 52.444C20.4677 52.908 20.8077 53.268 21.2397 53.524C21.6717 53.772 22.1637 53.896 22.7157 53.896ZM34.1539 49.144C34.1539 49.568 34.0539 49.968 33.8539 50.344C33.6539 50.72 33.3339 51.028 32.8939 51.268C32.4539 51.5 31.8899 51.616 31.2019 51.616H29.6899V55H28.3219V46.66H31.2019C31.8419 46.66 32.3819 46.772 32.8219 46.996C33.2699 47.212 33.6019 47.508 33.8179 47.884C34.0419 48.26 34.1539 48.68 34.1539 49.144ZM31.2019 50.5C31.7219 50.5 32.1099 50.384 32.3659 50.152C32.6219 49.912 32.7499 49.576 32.7499 49.144C32.7499 48.232 32.2339 47.776 31.2019 47.776H29.6899V50.5H31.2019ZM36.8146 46.66V51.976C36.8146 52.608 36.9786 53.084 37.3066 53.404C37.6426 53.724 38.1066 53.884 38.6986 53.884C39.2986 53.884 39.7626 53.724 40.0906 53.404C40.4266 53.084 40.5946 52.608 40.5946 51.976V46.66H41.9626V51.952C41.9626 52.632 41.8146 53.208 41.5186 53.68C41.2226 54.152 40.8266 54.504 40.3306 54.736C39.8346 54.968 39.2866 55.084 38.6866 55.084C38.0866 55.084 37.5386 54.968 37.0426 54.736C36.5546 54.504 36.1666 54.152 35.8786 53.68C35.5906 53.208 35.4466 52.632 35.4466 51.952V46.66H36.8146ZM45.1118 53.896H47.9318V55H43.7438V46.66H45.1118V53.896ZM54.1038 53.296H50.6118L50.0118 55H48.5838L51.5718 46.648H53.1558L56.1438 55H54.7038L54.1038 53.296ZM53.7198 52.18L52.3638 48.304L50.9958 52.18H53.7198ZM61.775 55L59.855 51.664H58.811V55H57.443V46.66H60.323C60.963 46.66 61.503 46.772 61.943 46.996C62.391 47.22 62.723 47.52 62.939 47.896C63.163 48.272 63.275 48.692 63.275 49.156C63.275 49.7 63.115 50.196 62.795 50.644C62.483 51.084 61.999 51.384 61.343 51.544L63.407 55H61.775ZM58.811 50.572H60.323C60.835 50.572 61.219 50.444 61.475 50.188C61.739 49.932 61.871 49.588 61.871 49.156C61.871 48.724 61.743 48.388 61.487 48.148C61.231 47.9 60.843 47.776 60.323 47.776H58.811V50.572Z" fill="#0B0757"/>
<path d="M37.7378 13.9227L37.5 13.191L37.2622 13.9227L35.6345 18.9324H30.3671H29.5977L30.2201 19.3846L34.4816 22.4807L32.8538 27.4904L32.6161 28.2221L33.2386 27.7699L37.5 24.6738L41.7614 27.7699L42.3839 28.2221L42.1462 27.4904L40.5184 22.4807L44.7799 19.3846L45.4023 18.9324H44.6329H39.3655L37.7378 13.9227Z" fill="#293FCC" stroke="#293FCC" stroke-width="0.5"/>
</svg>
