<svg width="461" height="293" viewBox="0 0 461 293" fill="none" xmlns="http://www.w3.org/2000/svg">
<path d="M451.024 213.363C448.969 212.135 446.066 212.304 442.844 214.165L384.378 247.92C378.136 251.524 373.076 260.087 373.076 267.047C373.076 270.447 374.284 272.834 376.247 273.966C377.314 274.582 381.449 276.968 382.522 277.582C384.572 278.752 387.437 278.562 390.612 276.728L449.079 242.972C455.321 239.369 460.381 230.805 460.381 223.845C460.381 220.461 459.184 218.081 457.237 216.942C456.165 216.315 452.055 213.979 451.024 213.363Z" fill="#E0E0E0"/>
<path d="M385.425 277.933C381.893 277.933 379.697 275.141 379.697 270.648C379.697 263.822 384.681 255.391 390.807 251.854L449.274 218.098C451.02 217.09 452.747 216.558 454.271 216.558C457.805 216.558 460 219.349 460 223.842C460 230.669 455.016 239.099 448.89 242.636L390.422 276.392C388.677 277.401 386.949 277.933 385.425 277.933Z" fill="#FAFAFA"/>
<path d="M454.27 216.942C457.566 216.942 459.614 219.587 459.614 223.843C459.614 230.548 454.717 238.829 448.697 242.305L390.23 276.061C388.543 277.035 386.881 277.55 385.425 277.55C383.851 277.55 382.528 276.953 381.601 275.824C380.607 274.613 380.081 272.823 380.081 270.649C380.081 263.945 384.979 255.663 390.999 252.187L449.465 218.432C451.151 217.457 452.813 216.942 454.27 216.942ZM454.269 216.175C452.716 216.175 450.951 216.687 449.08 217.767L390.614 251.522C384.373 255.126 379.312 263.689 379.312 270.649C379.312 275.523 381.793 278.318 385.424 278.318C386.978 278.318 388.743 277.806 390.613 276.726L449.08 242.97C455.322 239.367 460.381 230.803 460.381 223.843C460.382 218.97 457.901 216.175 454.269 216.175Z" fill="#EBEBEB"/>
<path d="M399.779 259.054C400.016 258.609 399.975 258.152 399.754 258.027C399.682 257.986 398.016 257.027 397.799 256.898C397.727 256.855 397.635 256.848 397.527 256.889L395.731 257.578L395.139 256.32C395.106 256.248 395.06 256.198 395.007 256.169C394.76 256.033 393.102 255.068 393.05 255.038C392.803 254.898 392.393 255.21 392.233 255.735L391.012 259.736C390.935 259.988 390.786 260.218 390.614 260.35L387.886 262.454C387.453 262.788 387.28 263.599 387.594 263.825L389.568 265.252C389.693 265.341 389.749 265.542 389.72 265.787L389.254 269.679C389.22 269.963 389.297 270.154 389.428 270.23C389.583 270.318 391.256 271.287 391.387 271.362C391.542 271.45 391.77 271.379 391.979 271.111L394.419 267.992C394.574 267.795 394.757 267.689 394.911 267.708L397.352 268.01C397.739 268.057 398.192 267.357 398.119 266.824L397.653 263.471C397.623 263.259 397.68 262.993 397.805 262.759L399.779 259.054Z" fill="#0B0757"/>
<path opacity="0.15" d="M399.755 258.026C399.683 257.988 399.591 257.983 399.485 258.022L396.755 259.069C396.586 259.136 396.436 259.078 396.36 258.914L395.732 257.578L397.527 256.893C397.633 256.85 397.725 256.855 397.797 256.898C398.014 257.028 399.683 257.988 399.755 258.026Z" fill="white"/>
<path opacity="0.15" d="M392.973 260.868C392.896 261.123 392.747 261.351 392.572 261.486L389.847 263.589C389.726 263.68 389.625 263.811 389.553 263.956L387.594 262.822C387.666 262.682 387.767 262.552 387.888 262.455L390.614 260.352C390.787 260.222 390.937 259.99 391.014 259.739V259.735L392.973 260.868Z" fill="white"/>
<path opacity="0.1" d="M395.025 256.178C394.779 256.02 394.359 256.333 394.195 256.869L392.975 260.868L391.016 259.734L392.236 255.735C392.395 255.214 392.806 254.9 393.051 255.04C393.104 255.069 394.759 256.034 395.01 256.169C395.015 256.173 395.02 256.173 395.025 256.178Z" fill="black"/>
<path opacity="0.25" d="M391.526 266.385L389.587 265.27C389.582 265.265 389.577 265.255 389.568 265.251L387.595 263.823C387.368 263.659 387.397 263.196 387.595 262.82L389.554 263.954C389.356 264.325 389.327 264.793 389.554 264.957L391.526 266.385Z" fill="black"/>
<path opacity="0.15" d="M391.213 270.813C391.179 271.103 391.261 271.295 391.401 271.368C391.396 271.368 391.391 271.368 391.386 271.364C391.256 271.286 389.582 270.316 389.428 270.23C389.297 270.153 389.22 269.964 389.254 269.68L389.722 265.787C389.746 265.555 389.699 265.367 389.587 265.271L391.526 266.386C391.531 266.39 391.536 266.396 391.541 266.396L391.545 266.4V266.405C391.657 266.501 391.71 266.694 391.68 266.921L391.213 270.813Z" fill="black"/>
<path d="M395.138 256.32L396.359 258.912C396.436 259.076 396.585 259.134 396.756 259.068L399.485 258.022C399.918 257.856 400.091 258.466 399.778 259.054L397.803 262.76C397.679 262.994 397.622 263.26 397.651 263.472L398.117 266.826C398.191 267.358 397.738 268.058 397.351 268.011L394.91 267.709C394.756 267.69 394.573 267.796 394.418 267.993L391.978 271.113C391.59 271.609 391.138 271.431 391.211 270.813L391.677 266.921C391.706 266.675 391.65 266.475 391.525 266.385L389.551 264.959C389.237 264.732 389.41 263.923 389.843 263.588L392.571 261.484C392.743 261.351 392.892 261.121 392.969 260.869L394.19 256.868C394.385 256.232 394.945 255.909 395.138 256.32Z" fill="#0B0757"/>
<path opacity="0.5" d="M395.138 256.32L396.359 258.912C396.436 259.076 396.585 259.134 396.756 259.068L399.485 258.022C399.918 257.856 400.091 258.466 399.778 259.054L397.803 262.76C397.679 262.994 397.622 263.26 397.651 263.472L398.117 266.826C398.191 267.358 397.738 268.058 397.351 268.011L394.91 267.709C394.756 267.69 394.573 267.796 394.418 267.993L391.978 271.113C391.59 271.609 391.138 271.431 391.211 270.813L391.677 266.921C391.706 266.675 391.65 266.475 391.525 266.385L389.551 264.959C389.237 264.732 389.41 263.923 389.843 263.588L392.571 261.484C392.743 261.351 392.892 261.121 392.969 260.869L394.19 256.868C394.385 256.232 394.945 255.909 395.138 256.32Z" fill="white"/>
<path d="M413.478 251.156C413.715 250.711 413.673 250.254 413.452 250.129C413.381 250.088 411.715 249.129 411.498 249C411.426 248.957 411.334 248.95 411.226 248.991L409.43 249.68L408.838 248.422C408.805 248.35 408.758 248.3 408.706 248.271C408.458 248.135 406.801 247.17 406.749 247.14C406.502 247 406.092 247.312 405.931 247.837L404.712 251.838C404.635 252.09 404.486 252.32 404.314 252.452L401.586 254.556C401.152 254.89 400.98 255.7 401.293 255.927L403.267 257.354C403.391 257.443 403.448 257.644 403.419 257.889L402.953 261.781C402.919 262.065 402.996 262.256 403.127 262.332C403.282 262.42 404.955 263.389 405.086 263.464C405.241 263.552 405.469 263.481 405.678 263.214L408.118 260.094C408.273 259.897 408.456 259.791 408.61 259.81L411.051 260.112C411.438 260.159 411.891 259.459 411.817 258.926L411.351 255.573C411.322 255.361 411.379 255.095 411.503 254.861L413.478 251.156Z" fill="#0B0757"/>
<path opacity="0.15" d="M413.455 250.129C413.383 250.09 413.29 250.085 413.184 250.124L410.454 251.171C410.285 251.239 410.136 251.181 410.059 251.017L409.432 249.68L411.226 248.995C411.332 248.952 411.424 248.956 411.497 248.999C411.713 249.13 413.383 250.089 413.455 250.129Z" fill="white"/>
<path opacity="0.15" d="M406.672 252.968C406.595 253.224 406.446 253.451 406.272 253.585L403.546 255.689C403.425 255.78 403.324 255.91 403.252 256.056L401.293 254.922C401.365 254.782 401.466 254.652 401.587 254.555L404.313 252.452C404.486 252.321 404.636 252.09 404.713 251.839V251.834L406.672 252.968Z" fill="white"/>
<path opacity="0.1" d="M408.724 248.28C408.478 248.121 408.059 248.434 407.894 248.97L406.674 252.969L404.715 251.836L405.935 247.836C406.094 247.315 406.505 247.002 406.751 247.142C406.804 247.171 408.458 248.136 408.709 248.271C408.714 248.275 408.719 248.275 408.724 248.28Z" fill="black"/>
<path opacity="0.25" d="M405.225 258.487L403.286 257.372C403.281 257.367 403.276 257.357 403.267 257.353L401.294 255.925C401.068 255.761 401.096 255.298 401.294 254.922L403.253 256.056C403.055 256.427 403.027 256.895 403.253 257.059L405.225 258.487Z" fill="black"/>
<path opacity="0.15" d="M404.911 262.915C404.878 263.205 404.96 263.398 405.1 263.47C405.095 263.47 405.09 263.47 405.085 263.466C404.954 263.388 403.281 262.419 403.127 262.332C402.996 262.255 402.919 262.066 402.953 261.782L403.422 257.889C403.445 257.657 403.398 257.469 403.286 257.373L405.225 258.488C405.23 258.492 405.235 258.498 405.24 258.498L405.245 258.502V258.507C405.356 258.604 405.409 258.796 405.38 259.023L404.911 262.915Z" fill="black"/>
<path d="M408.838 248.422L410.059 251.014C410.136 251.178 410.284 251.236 410.456 251.17L413.184 250.124C413.618 249.957 413.791 250.568 413.477 251.156L411.503 254.862C411.378 255.097 411.321 255.362 411.351 255.574L411.817 258.928C411.89 259.46 411.437 260.16 411.05 260.113L408.61 259.811C408.456 259.792 408.272 259.899 408.117 260.095L405.677 263.215C405.29 263.711 404.837 263.533 404.91 262.915L405.376 259.023C405.406 258.777 405.349 258.577 405.224 258.487L403.25 257.061C402.936 256.834 403.11 256.025 403.543 255.69L406.271 253.586C406.443 253.453 406.592 253.224 406.669 252.971L407.89 248.97C408.084 248.334 408.645 248.011 408.838 248.422Z" fill="#0B0757"/>
<path opacity="0.5" d="M408.838 248.422L410.059 251.014C410.136 251.178 410.284 251.236 410.456 251.17L413.184 250.124C413.618 249.957 413.791 250.568 413.477 251.156L411.503 254.862C411.378 255.097 411.321 255.362 411.351 255.574L411.817 258.928C411.89 259.46 411.437 260.16 411.05 260.113L408.61 259.811C408.456 259.792 408.272 259.899 408.117 260.095L405.677 263.215C405.29 263.711 404.837 263.533 404.91 262.915L405.376 259.023C405.406 258.777 405.349 258.577 405.224 258.487L403.25 257.061C402.936 256.834 403.11 256.025 403.543 255.69L406.271 253.586C406.443 253.453 406.592 253.224 406.669 252.971L407.89 248.97C408.084 248.334 408.645 248.011 408.838 248.422Z" fill="white"/>
<path d="M427.179 243.256C427.416 242.812 427.375 242.354 427.154 242.229C427.082 242.189 425.416 241.229 425.199 241.099C425.127 241.056 425.035 241.049 424.927 241.091L423.131 241.779L422.539 240.522C422.506 240.45 422.46 240.4 422.407 240.371C422.16 240.234 420.502 239.269 420.45 239.239C420.203 239.1 419.793 239.411 419.633 239.936L418.413 243.937C418.336 244.19 418.187 244.419 418.015 244.552L415.287 246.656C414.853 246.99 414.681 247.801 414.994 248.027L416.968 249.453C417.093 249.543 417.149 249.743 417.12 249.989L416.654 253.881C416.62 254.165 416.697 254.356 416.828 254.431C416.983 254.519 418.656 255.488 418.787 255.563C418.942 255.652 419.17 255.58 419.379 255.313L421.819 252.194C421.974 251.997 422.157 251.89 422.312 251.91L424.752 252.211C425.139 252.26 425.592 251.559 425.519 251.026L425.053 247.672C425.023 247.461 425.08 247.195 425.205 246.961L427.179 243.256Z" fill="#0B0757"/>
<path opacity="0.15" d="M427.156 242.228C427.084 242.19 426.992 242.185 426.886 242.224L424.155 243.271C423.986 243.338 423.837 243.28 423.76 243.116L423.133 241.78L424.927 241.095C425.033 241.052 425.126 241.057 425.198 241.1C425.414 241.23 427.084 242.19 427.156 242.228Z" fill="white"/>
<path opacity="0.15" d="M420.374 245.07C420.296 245.325 420.147 245.552 419.973 245.687L417.247 247.79C417.127 247.882 417.025 248.012 416.953 248.157L414.994 247.023C415.066 246.884 415.168 246.753 415.288 246.656L418.014 244.553C418.187 244.423 418.337 244.192 418.415 243.941V243.936L420.374 245.07Z" fill="white"/>
<path opacity="0.1" d="M422.425 240.38C422.18 240.221 421.76 240.534 421.595 241.07L420.375 245.069L418.416 243.936L419.637 239.936C419.795 239.415 420.206 239.102 420.452 239.242C420.505 239.271 422.16 240.236 422.411 240.371C422.415 240.376 422.42 240.376 422.425 240.38Z" fill="black"/>
<path opacity="0.25" d="M418.926 250.586L416.987 249.472C416.983 249.467 416.977 249.457 416.968 249.452L414.995 248.025C414.769 247.86 414.797 247.398 414.995 247.021L416.954 248.155C416.756 248.527 416.728 248.995 416.954 249.159L418.926 250.586Z" fill="black"/>
<path opacity="0.15" d="M418.613 255.016C418.58 255.305 418.662 255.498 418.801 255.571C418.797 255.571 418.791 255.571 418.787 255.566C418.656 255.488 416.983 254.519 416.828 254.432C416.697 254.355 416.621 254.167 416.654 253.882L417.123 249.988C417.146 249.757 417.099 249.569 416.988 249.473L418.927 250.587C418.931 250.592 418.936 250.597 418.941 250.597L418.946 250.602V250.606C419.057 250.703 419.11 250.896 419.081 251.122L418.613 255.016Z" fill="black"/>
<path d="M422.539 240.522L423.76 243.114C423.837 243.278 423.986 243.336 424.158 243.27L426.886 242.224C427.319 242.057 427.492 242.668 427.178 243.256L425.204 246.963C425.08 247.197 425.023 247.462 425.052 247.674L425.518 251.028C425.592 251.56 425.139 252.261 424.751 252.213L422.311 251.911C422.156 251.892 421.973 251.999 421.819 252.195L419.378 255.315C418.991 255.811 418.538 255.633 418.612 255.015L419.078 251.122C419.107 250.877 419.05 250.676 418.926 250.586L416.951 249.16C416.637 248.934 416.811 248.124 417.244 247.79L419.972 245.686C420.144 245.553 420.293 245.323 420.369 245.071L421.59 241.07C421.786 240.433 422.346 240.11 422.539 240.522Z" fill="#0B0757"/>
<path opacity="0.5" d="M422.539 240.522L423.76 243.114C423.837 243.278 423.986 243.336 424.158 243.27L426.886 242.224C427.319 242.057 427.492 242.668 427.178 243.256L425.204 246.963C425.08 247.197 425.023 247.462 425.052 247.674L425.518 251.028C425.592 251.56 425.139 252.261 424.751 252.213L422.311 251.911C422.156 251.892 421.973 251.999 421.819 252.195L419.378 255.315C418.991 255.811 418.538 255.633 418.612 255.015L419.078 251.122C419.107 250.877 419.05 250.676 418.926 250.586L416.951 249.16C416.637 248.934 416.811 248.124 417.244 247.79L419.972 245.686C420.144 245.553 420.293 245.323 420.369 245.071L421.59 241.07C421.786 240.433 422.346 240.11 422.539 240.522Z" fill="white"/>
<path d="M440.878 235.358C441.116 234.913 441.074 234.456 440.853 234.331C440.782 234.29 439.116 233.33 438.899 233.201C438.827 233.158 438.735 233.151 438.626 233.193L436.831 233.881L436.239 232.624C436.205 232.552 436.159 232.502 436.106 232.473C435.859 232.336 434.202 231.371 434.15 231.341C433.902 231.202 433.493 231.513 433.332 232.038L432.112 236.039C432.035 236.292 431.886 236.521 431.714 236.654L428.986 238.758C428.553 239.092 428.38 239.903 428.693 240.129L430.668 241.555C430.792 241.645 430.849 241.845 430.82 242.091L430.354 245.983C430.32 246.267 430.397 246.458 430.528 246.533C430.682 246.622 432.356 247.59 432.487 247.665C432.641 247.754 432.87 247.682 433.079 247.415L435.519 244.296C435.673 244.099 435.857 243.992 436.011 244.012L438.451 244.313C438.839 244.361 439.292 243.661 439.218 243.128L438.752 239.774C438.723 239.563 438.78 239.297 438.904 239.063L440.878 235.358Z" fill="#0B0757"/>
<path opacity="0.15" d="M440.855 234.328C440.783 234.289 440.691 234.285 440.585 234.323L437.854 235.37C437.686 235.438 437.536 235.38 437.459 235.216L436.832 233.88L438.627 233.195C438.733 233.151 438.825 233.157 438.897 233.199C439.113 233.329 440.782 234.289 440.855 234.328Z" fill="white"/>
<path opacity="0.15" d="M434.073 237.17C433.995 237.425 433.846 237.652 433.672 237.787L430.946 239.89C430.826 239.982 430.724 240.112 430.652 240.257L428.693 239.123C428.766 238.984 428.867 238.853 428.987 238.757L431.713 236.653C431.887 236.523 432.036 236.292 432.114 236.041V236.036L434.073 237.17Z" fill="white"/>
<path opacity="0.1" d="M436.124 232.48C435.879 232.321 435.459 232.634 435.295 233.17L434.074 237.169L432.115 236.035L433.336 232.036C433.495 231.515 433.905 231.202 434.151 231.341C434.204 231.371 435.859 232.335 436.11 232.471C436.114 232.475 436.119 232.475 436.124 232.48Z" fill="black"/>
<path opacity="0.25" d="M432.625 242.686L430.686 241.572C430.682 241.567 430.676 241.557 430.667 241.553L428.695 240.125C428.468 239.961 428.496 239.498 428.695 239.122L430.653 240.255C430.455 240.627 430.427 241.095 430.653 241.259L432.625 242.686Z" fill="black"/>
<path opacity="0.15" d="M432.313 247.117C432.279 247.406 432.361 247.599 432.501 247.672C432.496 247.672 432.491 247.672 432.486 247.667C432.356 247.59 430.681 246.62 430.527 246.533C430.397 246.456 430.32 246.268 430.354 245.984L430.822 242.091C430.846 241.859 430.798 241.671 430.687 241.575L432.626 242.689C432.63 242.694 432.636 242.699 432.64 242.699L432.645 242.704V242.708C432.756 242.805 432.809 242.998 432.78 243.224L432.313 247.117Z" fill="black"/>
<path d="M436.241 232.624L437.461 235.216C437.538 235.379 437.687 235.438 437.859 235.371L440.587 234.325C441.021 234.159 441.193 234.769 440.879 235.358L438.905 239.064C438.781 239.298 438.724 239.563 438.753 239.775L439.219 243.129C439.293 243.662 438.84 244.362 438.452 244.314L436.012 244.012C435.858 243.993 435.674 244.099 435.52 244.296L433.08 247.416C432.692 247.912 432.239 247.735 432.313 247.116L432.779 243.224C432.808 242.978 432.751 242.778 432.627 242.688L430.652 241.262C430.339 241.036 430.512 240.226 430.945 239.891L433.673 237.787C433.845 237.654 433.994 237.424 434.071 237.172L435.291 233.172C435.487 232.536 436.046 232.212 436.241 232.624Z" fill="#0B0757"/>
<path opacity="0.5" d="M436.241 232.624L437.461 235.216C437.538 235.379 437.687 235.438 437.859 235.371L440.587 234.325C441.021 234.159 441.193 234.769 440.879 235.358L438.905 239.064C438.781 239.298 438.724 239.563 438.753 239.775L439.219 243.129C439.293 243.662 438.84 244.362 438.452 244.314L436.012 244.012C435.858 243.993 435.674 244.099 435.52 244.296L433.08 247.416C432.692 247.912 432.239 247.735 432.313 247.116L432.779 243.224C432.808 242.978 432.751 242.778 432.627 242.688L430.652 241.262C430.339 241.036 430.512 240.226 430.945 239.891L433.673 237.787C433.845 237.654 433.994 237.424 434.071 237.172L435.291 233.172C435.487 232.536 436.046 232.212 436.241 232.624Z" fill="white"/>
<path d="M454.579 227.457C454.816 227.013 454.775 226.555 454.554 226.43C454.483 226.389 452.817 225.43 452.6 225.301C452.527 225.258 452.435 225.251 452.327 225.293L450.532 225.981L449.94 224.724C449.906 224.652 449.86 224.602 449.807 224.573C449.56 224.436 447.903 223.471 447.85 223.441C447.603 223.301 447.193 223.613 447.033 224.138L445.813 228.139C445.736 228.391 445.588 228.621 445.416 228.754L442.688 230.858C442.254 231.192 442.081 232.001 442.394 232.229L444.369 233.655C444.493 233.745 444.55 233.945 444.521 234.191L444.055 238.082C444.021 238.366 444.098 238.558 444.229 238.633C444.383 238.722 446.057 239.69 446.188 239.765C446.342 239.853 446.57 239.782 446.78 239.514L449.22 236.394C449.374 236.198 449.558 236.091 449.712 236.11L452.152 236.412C452.54 236.46 452.993 235.76 452.919 235.227L452.453 231.873C452.424 231.661 452.481 231.396 452.605 231.162L454.579 227.457Z" fill="#0B0757"/>
<path opacity="0.15" d="M454.556 226.427C454.484 226.389 454.392 226.384 454.286 226.423L451.556 227.47C451.387 227.537 451.237 227.48 451.16 227.316L450.533 225.979L452.328 225.294C452.434 225.251 452.526 225.256 452.598 225.299C452.815 225.429 454.483 226.389 454.556 226.427Z" fill="white"/>
<path opacity="0.15" d="M447.774 229.27C447.696 229.525 447.547 229.752 447.373 229.887L444.647 231.99C444.527 232.081 444.426 232.212 444.353 232.357L442.395 231.223C442.467 231.083 442.568 230.953 442.689 230.856L445.414 228.753C445.588 228.622 445.737 228.391 445.815 228.14V228.136L447.774 229.27Z" fill="white"/>
<path opacity="0.1" d="M449.824 224.579C449.577 224.42 449.158 224.734 448.994 225.269L447.773 229.269L445.814 228.135L447.035 224.136C447.194 223.614 447.605 223.301 447.85 223.441C447.903 223.47 449.558 224.435 449.809 224.57C449.814 224.575 449.819 224.575 449.824 224.579Z" fill="black"/>
<path opacity="0.25" d="M446.327 234.788L444.388 233.673C444.383 233.669 444.378 233.659 444.368 233.654L442.396 232.226C442.169 232.062 442.198 231.599 442.396 231.223L444.355 232.357C444.157 232.728 444.128 233.197 444.355 233.36L446.327 234.788Z" fill="black"/>
<path opacity="0.15" d="M446.013 239.216C445.979 239.506 446.061 239.698 446.201 239.771C446.196 239.771 446.191 239.771 446.186 239.767C446.056 239.689 444.383 238.72 444.228 238.633C444.098 238.556 444.021 238.367 444.055 238.083L444.523 234.19C444.547 233.958 444.499 233.77 444.388 233.674L446.327 234.789C446.332 234.793 446.337 234.798 446.342 234.798L446.346 234.803V234.807C446.457 234.904 446.51 235.097 446.481 235.323L446.013 239.216Z" fill="black"/>
<path d="M449.941 224.723L451.162 227.316C451.238 227.479 451.387 227.538 451.559 227.471L454.287 226.425C454.721 226.259 454.894 226.869 454.58 227.458L452.606 231.164C452.482 231.397 452.425 231.663 452.454 231.875L452.92 235.229C452.994 235.762 452.541 236.462 452.153 236.414L449.713 236.112C449.56 236.093 449.375 236.199 449.221 236.396L446.781 239.516C446.393 240.012 445.94 239.835 446.014 239.216L446.48 235.324C446.509 235.078 446.452 234.878 446.328 234.788L444.354 233.362C444.04 233.136 444.213 232.326 444.647 231.991L447.375 229.887C447.547 229.754 447.696 229.524 447.773 229.272L448.993 225.272C449.187 224.635 449.747 224.312 449.941 224.723Z" fill="#0B0757"/>
<path opacity="0.5" d="M449.941 224.723L451.162 227.316C451.238 227.479 451.387 227.538 451.559 227.471L454.287 226.425C454.721 226.259 454.894 226.869 454.58 227.458L452.606 231.164C452.482 231.397 452.425 231.663 452.454 231.875L452.92 235.229C452.994 235.762 452.541 236.462 452.153 236.414L449.713 236.112C449.56 236.093 449.375 236.199 449.221 236.396L446.781 239.516C446.393 240.012 445.94 239.835 446.014 239.216L446.48 235.324C446.509 235.078 446.452 234.878 446.328 234.788L444.354 233.362C444.04 233.136 444.213 232.326 444.647 231.991L447.375 229.887C447.547 229.754 447.696 229.524 447.773 229.272L448.993 225.272C449.187 224.635 449.747 224.312 449.941 224.723Z" fill="white"/>
<path d="M104.033 126.507L109.913 157.063C111.568 164.502 107.226 171.323 99.7866 172.974C92.8781 174.51 85.5293 170.287 83.8774 162.848L75.6936 121.927C75.6346 121.662 75.8981 121.604 75.8379 121.335C75.5119 121.13 75.5119 121.13 75.4541 120.864C73.9225 113.955 78.6726 106.488 85.5834 104.953C102.323 101.234 112.921 84.9382 109.264 68.4611C105.544 51.7229 89.1014 41.714 72.3596 45.4341C61.47 47.8524 53.1995 55.8221 50.1002 65.7143C47.7974 72.9164 40.2994 76.8134 33.0949 74.5105C26.1576 72.1488 22.3196 64.9154 24.6224 57.7122C30.5286 39.1152 46.1166 23.9411 66.5761 19.3956C97.3971 12.5485 128.187 31.9179 135.033 62.7414C140.878 89.0434 127.445 115.17 104.033 126.507ZM117.94 194.653L119.004 199.438C120.658 206.875 116.317 213.697 108.876 215.35C101.968 216.884 94.6179 212.659 92.9648 205.222L91.9048 200.439C90.3094 193.266 95.1208 186.063 102.028 184.527C109.468 182.874 116.347 187.481 117.94 194.653Z" fill="#0B0757"/>
<path d="M96.9216 128.086L102.805 158.643C104.457 166.082 100.12 172.902 92.6793 174.554C85.7709 176.088 78.4184 171.867 76.7653 164.429L68.5815 123.507C68.5237 123.242 68.7872 123.184 68.7283 122.916C68.4034 122.71 68.4034 122.71 68.3457 122.442C66.8105 115.535 71.5641 108.067 78.4726 106.53C95.2132 102.811 105.814 86.5171 102.153 70.0436C98.434 53.3043 81.9918 43.2953 65.2524 47.0106C54.3579 49.4313 46.0899 57.4034 42.9894 67.2932C40.6877 74.4953 33.1873 78.3911 25.9841 76.0895C19.0443 73.7289 15.2099 66.4932 17.5139 59.2887C23.4178 40.6905 39.0093 25.5176 59.4652 20.9733C90.2887 14.1262 121.077 33.4944 127.924 64.3155C133.769 90.6211 120.332 116.75 96.9216 128.086ZM110.832 196.231L111.892 201.015C113.547 208.455 109.207 215.276 101.769 216.926C94.8594 218.46 87.507 214.238 85.8539 206.803L84.7927 202.018C83.1985 194.846 88.0111 187.639 94.9184 186.108C102.359 184.452 109.237 189.06 110.832 196.231Z" fill="#293FCC"/>
<path d="M33.1734 214.503L35.411 226.128C36.0404 228.959 34.3883 231.554 31.5579 232.182C28.9294 232.767 26.1334 231.16 25.5049 228.329L22.3911 212.76C22.3687 212.659 22.4689 212.637 22.446 212.535C22.322 212.457 22.322 212.457 22.3 212.356C21.7173 209.727 23.5245 206.886 26.154 206.302C32.5229 204.887 36.5554 198.687 35.1638 192.417C33.7484 186.049 27.4925 182.241 21.1226 183.656C16.9794 184.576 13.8327 187.609 12.6534 191.372C11.7773 194.113 8.92445 195.595 6.18332 194.719C3.54383 193.82 2.08355 191.068 2.95972 188.328C5.20691 181.252 11.1378 175.479 18.9221 173.749C30.6488 171.144 42.3636 178.514 44.9683 190.241C47.1921 200.248 42.0811 210.189 33.1734 214.503ZM38.4648 240.431L38.8699 242.251C39.4989 245.081 37.8472 247.676 35.0164 248.305C32.3879 248.889 29.5914 247.282 28.9624 244.452L28.5591 242.632C27.9521 239.903 29.7827 237.162 32.4108 236.578C35.2416 235.949 37.8587 237.702 38.4648 240.431Z" fill="#0B0757"/>
<path d="M30.4678 215.104L32.7062 226.73C33.3348 229.56 31.6845 232.155 28.8537 232.784C26.2252 233.367 23.4277 231.761 22.7987 228.931L19.685 213.361C19.663 213.261 19.7633 213.239 19.7409 213.137C19.6173 213.058 19.6173 213.058 19.5953 212.956C19.0112 210.328 20.8198 207.487 23.4483 206.902C29.8177 205.487 33.8511 199.288 32.4581 193.02C31.0432 186.651 24.7873 182.843 18.4184 184.256C14.2733 185.177 11.1275 188.211 9.94779 191.973C9.07208 194.714 6.21834 196.196 3.47768 195.32C0.837264 194.422 -0.621636 191.669 0.254992 188.928C2.50127 181.852 8.43349 176.079 16.2165 174.35C27.9441 171.745 39.6584 179.114 42.2635 190.84C44.4874 200.849 39.375 210.79 30.4678 215.104ZM35.7605 241.031L36.1638 242.851C36.7932 245.682 35.142 248.277 32.3121 248.905C29.6831 249.489 26.8857 247.883 26.2567 245.054L25.853 243.233C25.2464 240.504 27.0775 237.762 29.7056 237.18C32.5364 236.55 35.1535 238.303 35.7605 241.031Z" fill="#293FCC"/>
<path d="M364.335 168.914L365.862 176.849C366.292 178.781 365.164 180.552 363.232 180.981C361.438 181.38 359.53 180.283 359.101 178.351L356.976 167.724C356.96 167.656 357.029 167.641 357.013 167.571C356.928 167.518 356.928 167.518 356.913 167.448C356.516 165.654 357.749 163.715 359.544 163.316C363.891 162.351 366.643 158.119 365.693 153.84C364.727 149.493 360.457 146.894 356.11 147.86C353.282 148.488 351.134 150.558 350.329 153.127C349.731 154.997 347.784 156.009 345.913 155.411C344.112 154.798 343.115 152.919 343.713 151.049C345.247 146.219 349.295 142.278 354.608 141.098C362.612 139.32 370.608 144.35 372.385 152.355C373.903 159.185 370.415 165.97 364.335 168.914ZM367.946 186.611L368.223 187.853C368.652 189.785 367.525 191.556 365.593 191.985C363.799 192.384 361.89 191.287 361.461 189.355L361.185 188.113C360.771 186.251 362.021 184.38 363.814 183.981C365.747 183.552 367.533 184.748 367.946 186.611Z" fill="#0B0757"/>
<path d="M362.489 169.323L364.017 177.259C364.446 179.191 363.319 180.962 361.387 181.391C359.593 181.789 357.684 180.693 357.254 178.761L355.129 168.134C355.114 168.065 355.183 168.05 355.167 167.981C355.083 167.927 355.083 167.927 355.068 167.858C354.669 166.064 355.904 164.125 357.698 163.726C362.045 162.76 364.798 158.528 363.847 154.25C362.882 149.903 358.612 147.304 354.265 148.269C351.435 148.898 349.288 150.968 348.483 153.536C347.885 155.406 345.938 156.418 344.067 155.82C342.265 155.207 341.269 153.328 341.867 151.457C343.401 146.628 347.45 142.687 352.762 141.507C360.766 139.729 368.762 144.759 370.54 152.763C372.058 159.594 368.568 166.38 362.489 169.323ZM366.101 187.02L366.377 188.262C366.806 190.194 365.679 191.966 363.748 192.394C361.953 192.793 360.044 191.696 359.615 189.765L359.339 188.523C358.925 186.66 360.175 184.789 361.969 184.391C363.901 183.961 365.687 185.158 366.101 187.02Z" fill="#293FCC"/>
<path d="M382.195 70.9359L378.872 78.3017C378.11 80.1283 376.168 80.9264 374.342 80.1639C372.646 79.4564 371.718 77.4606 372.48 75.6344L376.865 65.7239C376.892 65.6588 376.957 65.686 376.984 65.6198C376.946 65.5276 376.946 65.5276 376.973 65.4625C377.682 63.7667 379.807 62.8924 381.504 63.6005C385.613 65.3155 390.301 63.4422 391.99 59.3975C393.704 55.288 391.711 50.7035 387.601 48.9884C384.928 47.8726 381.98 48.3269 379.842 49.963C378.276 51.1472 376.101 50.8526 374.917 49.286C373.797 47.7468 374.065 45.6372 375.631 44.4527C379.667 41.3889 385.246 40.5 390.269 42.5961C397.836 45.7538 401.474 54.4717 398.315 62.0386C395.621 68.4961 388.861 72.032 382.195 70.9359ZM374.952 87.4815L374.462 88.6565C373.7 90.4824 371.758 91.2809 369.931 90.5187C368.236 89.8108 367.307 87.8145 368.069 85.9884L368.56 84.8146C369.294 83.0533 371.393 82.2442 373.089 82.9517C374.916 83.7139 375.687 85.7209 374.952 87.4815Z" fill="#0B0757"/>
<path d="M380.45 70.2074L377.127 77.5739C376.365 79.4001 374.424 80.1987 372.598 79.4362C370.902 78.7283 369.973 76.7324 370.735 74.9063L375.12 64.9955C375.147 64.9306 375.212 64.9578 375.239 64.892C375.201 64.7998 375.201 64.7998 375.229 64.7342C375.937 63.0383 378.063 62.1643 379.759 62.8718C383.869 64.5869 388.557 62.7142 390.244 58.6698C391.959 54.5602 389.967 49.9757 385.858 48.26C383.183 47.1439 380.235 47.5991 378.098 49.2345C376.532 50.4189 374.357 50.1237 373.172 48.5575C372.052 47.0182 372.321 44.9086 373.888 43.7241C377.923 40.6596 383.503 39.7716 388.525 41.8674C396.092 45.0255 399.729 53.7429 396.572 61.3095C393.877 67.7677 387.116 71.3036 380.45 70.2074ZM373.208 86.7534L372.717 87.9273C371.955 89.7541 370.014 90.5527 368.188 89.7903C366.492 89.0821 365.563 87.086 366.324 85.2604L366.815 84.086C367.549 82.3251 369.649 81.5154 371.345 82.2237C373.172 82.9854 373.942 84.9926 373.208 86.7534Z" fill="#293FCC"/>
<path opacity="0.3" d="M246.556 279.966H267.844L349.54 232.734L277.822 190.424L226.566 218.574L246.556 279.966Z" fill="#CFC4B8"/>
<path d="M168.471 214.633L172.278 212.421L177.441 215.402L173.633 217.615L168.471 214.633Z" fill="#E4E3EE"/>
<path d="M178.225 212.976L182.033 210.763L178.137 217.127L174.33 219.34L178.225 212.976Z" fill="#B7B6E3"/>
<path d="M187.231 216.854L191.039 214.641L191.035 215.961L187.229 218.173L187.231 216.854Z" fill="#919DD6"/>
<path d="M177.529 211.251L181.336 209.04L191.039 214.641L187.231 216.854L177.529 211.251Z" fill="#E4E3EE"/>
<path d="M187.231 216.854L187.229 218.173L178.225 212.975L174.33 219.34L168.467 215.955L168.47 214.633L173.633 217.614L177.529 211.251L187.231 216.854Z" fill="#919DD6"/>
<path d="M182.611 206.58L186.418 204.368L191.58 207.348L187.773 209.561L182.611 206.58Z" fill="#E4E3EE"/>
<path d="M192.367 204.922L196.174 202.709L192.278 209.074L188.471 211.286L192.367 204.922Z" fill="#B7B6E3"/>
<path d="M201.374 208.799L205.18 206.587L205.176 207.906L201.369 210.119L201.374 208.799Z" fill="#919DD6"/>
<path d="M191.67 203.198L195.478 200.985L205.18 206.588L201.374 208.8L191.67 203.198Z" fill="#E4E3EE"/>
<path d="M201.373 208.8L201.368 210.12L192.367 204.922L188.47 211.285L182.607 207.901L182.612 206.579L187.774 209.561L191.669 203.198L201.373 208.8Z" fill="#919DD6"/>
<path d="M196.154 198.513L199.961 196.3L205.124 199.281L201.317 201.493L196.154 198.513Z" fill="#E4E3EE"/>
<path d="M205.909 196.855L209.716 194.643L205.82 201.007L202.014 203.219L205.909 196.855Z" fill="#B7B6E3"/>
<path d="M214.916 200.733L218.723 198.521L218.719 199.84L214.912 202.053L214.916 200.733Z" fill="#919DD6"/>
<path d="M205.213 195.131L209.02 192.918L218.723 198.521L214.916 200.733L205.213 195.131Z" fill="#E4E3EE"/>
<path d="M214.915 200.733L214.911 202.053L205.909 196.855L202.013 203.219L196.15 199.834L196.154 198.513L201.317 201.493L205.212 195.131L214.915 200.733Z" fill="#919DD6"/>
<path d="M154.492 223.394L158.299 221.182L163.462 224.162L159.655 226.374L154.492 223.394Z" fill="#E4E3EE"/>
<path d="M164.247 221.736L168.054 219.524L164.158 225.888L160.352 228.1L164.247 221.736Z" fill="#B7B6E3"/>
<path d="M173.254 225.614L177.061 223.402L177.057 224.721L173.25 226.934L173.254 225.614Z" fill="#919DD6"/>
<path d="M163.551 220.012L167.358 217.799L177.061 223.402L173.254 225.613L163.551 220.012Z" fill="#E4E3EE"/>
<path d="M173.253 225.614L173.249 226.934L164.246 221.736L160.351 228.1L154.488 224.716L154.492 223.394L159.655 226.374L163.55 220.012L173.253 225.614Z" fill="#919DD6"/>
<path d="M211.209 190.007L215.016 187.794L220.179 190.774L216.372 192.987L211.209 190.007Z" fill="#E4E3EE"/>
<path d="M220.964 188.349L224.771 186.136L220.875 192.5L217.068 194.713L220.964 188.349Z" fill="#B7B6E3"/>
<path d="M229.97 192.226L233.777 190.014L233.774 191.334L229.967 193.546L229.97 192.226Z" fill="#919DD6"/>
<path d="M220.268 186.625L224.074 184.412L233.777 190.014L229.97 192.226L220.268 186.625Z" fill="#E4E3EE"/>
<path d="M229.97 192.226L229.966 193.546L220.963 188.349L217.068 194.713L211.205 191.327L211.209 190.007L216.372 192.987L220.267 186.625L229.97 192.226Z" fill="#919DD6"/>
<path d="M225.676 181.791L229.483 179.579L234.645 182.56L230.839 184.772L225.676 181.791Z" fill="#E4E3EE"/>
<path d="M235.431 180.134L239.237 177.921L235.342 184.286L231.535 186.498L235.431 180.134Z" fill="#B7B6E3"/>
<path d="M244.438 184.011L248.245 181.798L248.241 183.118L244.434 185.331L244.438 184.011Z" fill="#919DD6"/>
<path d="M234.734 178.41L238.542 176.197L248.245 181.799L244.438 184.011L234.734 178.41Z" fill="#E4E3EE"/>
<path d="M244.437 184.012L244.433 185.332L235.43 180.134L231.535 186.498L225.672 183.114L225.676 181.792L230.838 184.772L234.734 178.41L244.437 184.012Z" fill="#919DD6"/>
<path d="M323.444 214.83L319.637 212.618L314.475 215.598L318.282 217.811L323.444 214.83Z" fill="#E4E3EE"/>
<path d="M313.691 213.173L309.883 210.961L313.778 217.325L317.586 219.537L313.691 213.173Z" fill="#B7B6E3"/>
<path d="M304.684 217.05L300.877 214.838L300.882 216.157L304.687 218.37L304.684 217.05Z" fill="#919DD6"/>
<path d="M314.387 211.449L310.58 209.237L300.877 214.839L304.684 217.051L314.387 211.449Z" fill="#E4E3EE"/>
<path d="M304.684 217.05L304.687 218.37L313.691 213.172L317.586 219.536L323.448 216.152L323.445 214.83L318.283 217.811L314.386 211.448L304.684 217.05Z" fill="#919DD6"/>
<path d="M309.305 206.776L305.498 204.564L300.336 207.545L304.143 209.757L309.305 206.776Z" fill="#E4E3EE"/>
<path d="M299.549 205.119L295.742 202.906L299.638 209.271L303.444 211.483L299.549 205.119Z" fill="#B7B6E3"/>
<path d="M290.543 208.997L286.736 206.785L286.74 208.104L290.547 210.317L290.543 208.997Z" fill="#919DD6"/>
<path d="M300.247 203.395L296.439 201.183L286.736 206.785L290.543 208.997L300.247 203.395Z" fill="#E4E3EE"/>
<path d="M290.543 208.997L290.547 210.317L299.549 205.119L303.445 211.483L309.309 208.098L309.304 206.777L304.142 209.757L300.247 203.395L290.543 208.997Z" fill="#919DD6"/>
<path d="M295.761 198.71L291.954 196.498L286.791 199.478L290.598 201.69L295.761 198.71Z" fill="#E4E3EE"/>
<path d="M286.006 197.052L282.199 194.839L286.095 201.204L289.901 203.416L286.006 197.052Z" fill="#B7B6E3"/>
<path d="M277 200.93L273.193 198.718L273.197 200.037L277.004 202.249L277 200.93Z" fill="#919DD6"/>
<path d="M286.703 195.328L282.896 193.115L273.193 198.718L277 200.93L286.703 195.328Z" fill="#E4E3EE"/>
<path d="M277 200.93L277.004 202.249L286.006 197.052L289.902 203.416L295.765 200.031L295.761 198.71L290.598 201.69L286.703 195.328L277 200.93Z" fill="#919DD6"/>
<path d="M337.425 223.59L333.618 221.377L328.455 224.359L332.262 226.572L337.425 223.59Z" fill="#E4E3EE"/>
<path d="M327.67 221.933L323.863 219.721L327.759 226.084L331.565 228.297L327.67 221.933Z" fill="#B7B6E3"/>
<path d="M318.663 225.81L314.855 223.598L314.86 224.918L318.667 227.13L318.663 225.81Z" fill="#919DD6"/>
<path d="M328.366 220.209L324.559 217.997L314.855 223.598L318.663 225.81L328.366 220.209Z" fill="#E4E3EE"/>
<path d="M318.664 225.81L318.668 227.13L327.671 221.932L331.566 228.297L337.429 224.912L337.425 223.59L332.262 226.571L328.367 220.208L318.664 225.81Z" fill="#919DD6"/>
<path d="M280.706 190.204L276.899 187.991L271.736 190.971L275.544 193.184L280.706 190.204Z" fill="#E4E3EE"/>
<path d="M270.951 188.545L267.145 186.333L271.04 192.697L274.847 194.91L270.951 188.545Z" fill="#B7B6E3"/>
<path d="M261.945 192.423L258.139 190.211L258.141 191.531L261.949 193.743L261.945 192.423Z" fill="#919DD6"/>
<path d="M271.648 186.822L267.841 184.609L258.139 190.211L261.945 192.423L271.648 186.822Z" fill="#E4E3EE"/>
<path d="M261.945 192.423L261.949 193.743L270.952 188.545L274.847 194.91L280.71 191.525L280.706 190.204L275.544 193.184L271.648 186.822L261.945 192.423Z" fill="#919DD6"/>
<path d="M266.239 181.988L262.432 179.775L257.27 182.757L261.076 184.969L266.239 181.988Z" fill="#E4E3EE"/>
<path d="M256.483 180.33L252.676 178.118L256.572 184.483L260.379 186.695L256.483 180.33Z" fill="#B7B6E3"/>
<path d="M247.478 184.208L243.67 181.996L243.674 183.316L247.48 185.528L247.478 184.208Z" fill="#919DD6"/>
<path d="M257.18 178.607L253.373 176.394L243.67 181.996L247.478 184.209L257.18 178.607Z" fill="#E4E3EE"/>
<path d="M247.479 184.209L247.481 185.529L256.485 180.33L260.38 186.695L266.243 183.309L266.239 181.988L261.077 184.969L257.18 178.607L247.479 184.209Z" fill="#919DD6"/>
<path d="M328.176 223.434L328.15 232.551L246.561 279.966L246.586 270.848L328.176 223.434Z" fill="#12B0F3"/>
<path d="M246.586 270.848L246.56 279.966L164.438 232.552L164.463 223.435L246.586 270.848Z" fill="#1393F2"/>
<path d="M328.175 223.433L246.585 270.848L164.463 223.434L246.051 176.021L328.175 223.433Z" fill="#05D4F5"/>
<path d="M308.621 221.122L308.607 225.68L246.504 261.77L246.517 257.212L308.621 221.122Z" fill="#D4D5F0"/>
<path d="M246.517 257.212L246.504 261.77L183.994 225.681L184.007 221.122L246.517 257.212Z" fill="#C4C3EC"/>
<path d="M308.622 221.122L246.518 257.212L184.008 221.122L246.112 185.031L308.622 221.122Z" fill="white"/>
<path d="M157.764 246.949L153.957 244.736L157.803 233.904L161.611 236.116L157.764 246.949Z" fill="#C4C3EC"/>
<path d="M161.612 236.116L157.805 233.905L167.508 228.303L171.315 230.515L161.612 236.116Z" fill="#E4E3EE"/>
<path d="M152.6 249.93L148.793 247.718L153.958 244.736L157.764 246.949L152.6 249.93Z" fill="#E4E3EE"/>
<path d="M152.603 251.253L148.797 249.041L148.793 247.719L152.6 249.931L152.603 251.253Z" fill="#B7B6E3"/>
<path d="M171.314 230.514L171.318 231.834L162.314 237.033L158.468 247.867L152.603 251.252L152.6 249.93L157.764 246.949L161.612 236.116L171.314 230.514Z" fill="#919DD6"/>
<path d="M172.078 255.142L168.271 252.929L172.119 242.097L175.925 244.309L172.078 255.142Z" fill="#C4C3EC"/>
<path d="M175.925 244.309L172.119 242.097L181.821 236.494L185.629 238.707L175.925 244.309Z" fill="#E4E3EE"/>
<path d="M166.914 258.123L163.107 255.91L168.272 252.929L172.079 255.142L166.914 258.123Z" fill="#E4E3EE"/>
<path d="M166.919 259.445L163.112 257.232L163.107 255.91L166.914 258.123L166.919 259.445Z" fill="#B7B6E3"/>
<path d="M185.629 238.707L185.632 240.027L176.627 245.225L172.782 256.059L166.919 259.445L166.914 258.123L172.079 255.142L175.925 244.309L185.629 238.707Z" fill="#919DD6"/>
<path d="M186.277 263.419L182.471 261.207L186.318 250.374L190.125 252.586L186.277 263.419Z" fill="#C4C3EC"/>
<path d="M190.125 252.586L186.318 250.374L196.02 244.772L199.828 246.985L190.125 252.586Z" fill="#E4E3EE"/>
<path d="M181.113 266.401L177.307 264.189L182.471 261.207L186.278 263.419L181.113 266.401Z" fill="#E4E3EE"/>
<path d="M181.118 267.722L177.31 265.51L177.307 264.189L181.113 266.401L181.118 267.722Z" fill="#B7B6E3"/>
<path d="M199.828 246.985L199.832 248.304L190.827 253.503L186.982 264.337L181.118 267.722L181.113 266.401L186.278 263.419L190.125 252.586L199.828 246.985Z" fill="#919DD6"/>
<path d="M200.473 271.636L196.666 269.424L200.513 258.591L204.32 260.803L200.473 271.636Z" fill="#C4C3EC"/>
<path d="M204.32 260.804L200.514 258.592L210.217 252.99L214.024 255.202L204.32 260.804Z" fill="#E4E3EE"/>
<path d="M195.31 274.618L191.502 272.406L196.667 269.424L200.473 271.636L195.31 274.618Z" fill="#E4E3EE"/>
<path d="M195.313 275.94L191.506 273.728L191.502 272.406L195.31 274.619L195.313 275.94Z" fill="#B7B6E3"/>
<path d="M214.025 255.202L214.029 256.522L205.024 261.72L201.179 272.554L195.314 275.94L195.311 274.618L200.474 271.636L204.322 260.803L214.025 255.202Z" fill="#919DD6"/>
<path d="M214.848 279.798L211.041 277.585L214.888 266.752L218.695 268.965L214.848 279.798Z" fill="#C4C3EC"/>
<path d="M218.695 268.965L214.889 266.752L224.592 261.15L228.399 263.363L218.695 268.965Z" fill="#E4E3EE"/>
<path d="M209.684 282.78L205.877 280.567L211.042 277.585L214.848 279.798L209.684 282.78Z" fill="#E4E3EE"/>
<path d="M209.687 284.101L205.881 281.889L205.877 280.567L209.684 282.78L209.687 284.101Z" fill="#B7B6E3"/>
<path d="M228.399 263.364L228.402 264.683L219.398 269.882L215.552 280.716L209.687 284.101L209.684 282.781L214.848 279.798L218.696 268.966L228.399 263.364Z" fill="#919DD6"/>
<path d="M228.947 288.03L225.141 285.817L228.987 274.984L232.794 277.197L228.947 288.03Z" fill="#C4C3EC"/>
<path d="M232.795 277.197L228.988 274.984L238.691 269.382L242.499 271.595L232.795 277.197Z" fill="#E4E3EE"/>
<path d="M223.783 291.011L219.977 288.799L225.141 285.817L228.948 288.03L223.783 291.011Z" fill="#E4E3EE"/>
<path d="M223.787 292.333L219.979 290.121L219.977 288.799L223.783 291.011L223.787 292.333Z" fill="#B7B6E3"/>
<path d="M242.498 271.595L242.502 272.914L233.497 278.113L229.652 288.947L223.787 292.333L223.783 291.011L228.948 288.03L232.794 277.197L242.498 271.595Z" fill="#919DD6"/>
<path d="M335.159 247.099L338.966 244.887L335.119 234.055L331.312 236.267L335.159 247.099Z" fill="#C4C3EC"/>
<path d="M331.312 236.267L335.119 234.055L325.416 228.452L321.609 230.665L331.312 236.267Z" fill="#E4E3EE"/>
<path d="M340.322 250.081L344.13 247.869L338.965 244.887L335.158 247.099L340.322 250.081Z" fill="#E4E3EE"/>
<path d="M340.318 251.401L344.126 249.19L344.13 247.869L340.322 250.081L340.318 251.401Z" fill="#B7B6E3"/>
<path d="M321.609 230.665L321.605 231.984L330.609 237.183L334.454 248.017L340.318 251.402L340.322 250.081L335.158 247.099L331.312 236.267L321.609 230.665Z" fill="#919DD6"/>
<path d="M320.843 255.291L324.65 253.078L320.804 242.247L316.996 244.459L320.843 255.291Z" fill="#C4C3EC"/>
<path d="M316.995 244.46L320.803 242.247L311.099 236.645L307.293 238.857L316.995 244.46Z" fill="#E4E3EE"/>
<path d="M326.007 258.273L329.815 256.061L324.651 253.079L320.844 255.291L326.007 258.273Z" fill="#E4E3EE"/>
<path d="M326.004 259.595L329.811 257.382L329.814 256.061L326.007 258.273L326.004 259.595Z" fill="#B7B6E3"/>
<path d="M307.294 238.857L307.289 240.176L316.294 245.376L320.139 256.208L326.004 259.595L326.007 258.273L320.843 255.292L316.996 244.46L307.294 238.857Z" fill="#919DD6"/>
<path d="M306.643 263.57L310.451 261.357L306.604 250.525L302.797 252.737L306.643 263.57Z" fill="#C4C3EC"/>
<path d="M302.797 252.737L306.603 250.525L296.901 244.922L293.094 247.135L302.797 252.737Z" fill="#E4E3EE"/>
<path d="M311.807 266.551L315.615 264.338L310.45 261.356L306.643 263.569L311.807 266.551Z" fill="#E4E3EE"/>
<path d="M311.805 267.873L315.612 265.66L315.616 264.338L311.808 266.551L311.805 267.873Z" fill="#B7B6E3"/>
<path d="M293.094 247.135L293.09 248.455L302.094 253.654L305.94 264.487L311.804 267.873L311.807 266.551L306.643 263.57L302.796 252.737L293.094 247.135Z" fill="#919DD6"/>
<path d="M292.448 271.787L296.255 269.574L292.408 258.741L288.602 260.953L292.448 271.787Z" fill="#C4C3EC"/>
<path d="M288.602 260.953L292.409 258.741L282.705 253.14L278.898 255.352L288.602 260.953Z" fill="#E4E3EE"/>
<path d="M297.614 274.768L301.421 272.556L296.256 269.574L292.449 271.787L297.614 274.768Z" fill="#E4E3EE"/>
<path d="M297.609 276.09L301.417 273.878L301.42 272.556L297.613 274.768L297.609 276.09Z" fill="#B7B6E3"/>
<path d="M278.898 255.352L278.895 256.672L287.899 261.87L291.745 272.704L297.609 276.09L297.613 274.768L292.448 271.787L288.602 260.953L278.898 255.352Z" fill="#919DD6"/>
<path d="M278.071 279.948L281.879 277.736L278.032 266.903L274.225 269.115L278.071 279.948Z" fill="#C4C3EC"/>
<path d="M274.225 269.115L278.033 266.903L268.329 261.3L264.521 263.513L274.225 269.115Z" fill="#E4E3EE"/>
<path d="M283.238 282.93L287.045 280.717L281.88 277.736L278.072 279.948L283.238 282.93Z" fill="#E4E3EE"/>
<path d="M283.232 284.251L287.04 282.039L287.044 280.717L283.237 282.93L283.232 284.251Z" fill="#B7B6E3"/>
<path d="M264.521 263.513L264.518 264.833L273.523 270.032L277.368 280.866L283.232 284.252L283.237 282.93L278.072 279.948L274.225 269.115L264.521 263.513Z" fill="#919DD6"/>
<path d="M263.973 288.18L267.781 285.968L263.935 275.135L260.127 277.347L263.973 288.18Z" fill="#C4C3EC"/>
<path d="M260.126 277.346L263.933 275.134L254.23 269.532L250.422 271.745L260.126 277.346Z" fill="#E4E3EE"/>
<path d="M269.138 291.162L272.946 288.949L267.78 285.968L263.973 288.18L269.138 291.162Z" fill="#E4E3EE"/>
<path d="M269.135 292.483L272.942 290.271L272.946 288.949L269.138 291.162L269.135 292.483Z" fill="#B7B6E3"/>
<path d="M250.423 271.745L250.42 273.065L259.425 278.264L263.269 289.098L269.135 292.484L269.138 291.162L263.973 288.18L260.126 277.347L250.423 271.745Z" fill="#919DD6"/>
<path d="M205.566 221.121L208.618 222.883L246.177 244.57V197.519L205.566 221.121Z" fill="#D4D5F0"/>
<path d="M246.178 197.519V244.57L246.444 244.724L284.007 222.894L287.058 221.121L246.178 197.519Z" fill="#C4C3EC"/>
<path d="M284.006 222.894L246.443 244.723L208.617 222.883L246.177 201.053L284.006 222.894Z" fill="#05D4F5"/>
<path d="M284.008 222.894L246.445 244.723L208.619 222.883L246.179 201.053L284.008 222.894Z" fill="#05D4F5"/>
<path d="M266.618 219.64L266.611 221.919L262.154 224.509L262.161 222.23L266.618 219.64Z" fill="#D4D5F0"/>
<path d="M262.16 222.229L262.153 224.509L242.227 213.003L242.233 210.725L262.16 222.229Z" fill="#C4C3EC"/>
<path d="M266.616 219.64L262.159 222.23L242.232 210.725L246.69 208.135L266.616 219.64Z" fill="#EEEFF2"/>
<path d="M244.441 223.398L244.435 225.678C243.267 225.355 242.148 225.049 241.077 224.76C240.006 224.47 239.016 224.212 238.108 223.982C237.198 223.753 236.398 223.552 235.709 223.376C235.019 223.201 234.473 223.067 234.07 222.972L234.077 220.693C234.479 220.788 235.024 220.922 235.716 221.097C236.405 221.273 237.206 221.474 238.114 221.703C239.023 221.932 240.012 222.191 241.083 222.48C242.154 222.771 243.273 223.076 244.441 223.398Z" fill="#1393F2"/>
<mask id="mask0_217_2287" style="mask-type:luminance" maskUnits="userSpaceOnUse" x="234" y="220" width="11" height="6">
<path d="M244.441 223.398L244.435 225.678C243.267 225.355 242.148 225.049 241.077 224.76C240.006 224.47 239.016 224.212 238.108 223.982C237.198 223.753 236.398 223.552 235.709 223.376C235.019 223.201 234.473 223.067 234.07 222.972L234.077 220.693C234.479 220.788 235.024 220.922 235.716 221.097C236.405 221.273 237.206 221.474 238.114 221.703C239.023 221.932 240.012 222.191 241.083 222.48C242.154 222.771 243.273 223.076 244.441 223.398Z" fill="white"/>
</mask>
<g mask="url(#mask0_217_2287)">
<path d="M244.441 223.398L244.435 225.678C243.267 225.355 242.148 225.049 241.077 224.76C240.006 224.47 239.016 224.212 238.108 223.982C237.198 223.753 236.398 223.552 235.709 223.376C235.019 223.201 234.473 223.067 234.07 222.972L234.077 220.693C234.479 220.788 235.024 220.922 235.716 221.097C236.405 221.273 237.206 221.474 238.114 221.703C239.023 221.932 240.012 222.191 241.083 222.48C242.154 222.771 243.273 223.076 244.441 223.398Z" fill="#C4C3EC"/>
</g>
<path d="M252.002 225.663L251.996 227.942C251.011 227.668 250.032 227.396 249.059 227.124L249.065 224.845C250.038 225.116 251.018 225.388 252.002 225.663Z" fill="#1393F2"/>
<mask id="mask1_217_2287" style="mask-type:luminance" maskUnits="userSpaceOnUse" x="249" y="224" width="4" height="4">
<path d="M252.002 225.663L251.996 227.942C251.011 227.668 250.032 227.396 249.059 227.124L249.065 224.845C250.038 225.116 251.018 225.388 252.002 225.663Z" fill="white"/>
</mask>
<g mask="url(#mask1_217_2287)">
<path d="M252.002 225.663L251.996 227.942C251.011 227.668 250.032 227.396 249.059 227.124L249.065 224.845C250.038 225.116 251.018 225.388 252.002 225.663Z" fill="#C4C3EC"/>
</g>
<path d="M254.843 226.481L254.837 228.76C253.925 228.488 252.978 228.215 251.994 227.941L252.001 225.662C252.985 225.936 253.931 226.209 254.843 226.481Z" fill="#1393F2"/>
<mask id="mask2_217_2287" style="mask-type:luminance" maskUnits="userSpaceOnUse" x="251" y="225" width="4" height="4">
<path d="M254.843 226.481L254.837 228.76C253.925 228.488 252.978 228.215 251.994 227.941L252.001 225.662C252.985 225.936 253.931 226.209 254.843 226.481Z" fill="white"/>
</mask>
<g mask="url(#mask2_217_2287)">
<path d="M254.843 226.481L254.837 228.76C253.925 228.488 252.978 228.215 251.994 227.941L252.001 225.662C252.985 225.936 253.931 226.209 254.843 226.481Z" fill="#C4C3EC"/>
</g>
<path d="M259.618 223.708L259.611 225.988L254.838 228.761L254.844 226.481L259.618 223.708Z" fill="#D4D5F0"/>
<path d="M249.065 224.844L249.06 227.123L241.326 231.618L241.333 229.338L249.065 224.844Z" fill="#D4D5F0"/>
<path d="M239.563 235.363L239.556 237.643C238.153 235.97 236.877 234.413 235.725 232.973C234.573 231.534 233.508 230.163 232.54 228.862C231.568 227.559 230.671 226.31 229.844 225.114C229.019 223.917 228.249 222.727 227.537 221.542L227.544 219.263C228.255 220.448 229.025 221.639 229.851 222.834C230.678 224.031 231.575 225.28 232.546 226.583C233.514 227.884 234.579 229.254 235.731 230.694C236.885 232.133 238.161 233.69 239.563 235.363Z" fill="#1393F2"/>
<mask id="mask3_217_2287" style="mask-type:luminance" maskUnits="userSpaceOnUse" x="227" y="219" width="13" height="19">
<path d="M239.563 235.363L239.556 237.643C238.153 235.97 236.877 234.413 235.725 232.973C234.573 231.534 233.508 230.163 232.54 228.862C231.568 227.559 230.671 226.31 229.844 225.114C229.019 223.917 228.249 222.727 227.537 221.542L227.544 219.263C228.255 220.448 229.025 221.639 229.851 222.834C230.678 224.031 231.575 225.28 232.546 226.583C233.514 227.884 234.579 229.254 235.731 230.694C236.885 232.133 238.161 233.69 239.563 235.363Z" fill="white"/>
</mask>
<g mask="url(#mask3_217_2287)">
<path d="M239.563 235.363L239.556 237.643C238.153 235.97 236.877 234.413 235.725 232.973C234.573 231.534 233.508 230.163 232.54 228.862C231.568 227.559 230.671 226.31 229.844 225.114C229.019 223.917 228.249 222.727 227.537 221.542L227.544 219.263C228.255 220.448 229.025 221.639 229.851 222.834C230.678 224.031 231.575 225.28 232.546 226.583C233.514 227.884 234.579 229.254 235.731 230.694C236.885 232.133 238.161 233.69 239.563 235.363Z" fill="#C4C3EC"/>
</g>
<path d="M244.19 232.673L244.183 234.953L239.557 237.641L239.562 235.363L244.19 232.673Z" fill="#D4D5F0"/>
<path d="M252.003 225.663C251.018 225.388 250.039 225.116 249.066 224.844L241.333 229.338C241.809 229.903 242.288 230.468 242.766 231.037C243.243 231.604 243.722 232.149 244.191 232.674L239.563 235.363C238.161 233.69 236.884 232.133 235.732 230.694C234.58 229.254 233.516 227.883 232.547 226.582C231.576 225.279 230.678 224.03 229.852 222.834C229.026 221.638 228.256 220.447 227.545 219.262L231.77 216.807C233.801 217.225 235.855 217.669 237.932 218.138C240.011 218.607 242.176 219.119 244.431 219.676C246.679 220.232 249.051 220.844 251.542 221.506C254.034 222.168 256.725 222.902 259.617 223.708L254.844 226.482C253.932 226.209 252.986 225.936 252.003 225.663ZM238.78 226.688L244.442 223.398C243.274 223.075 242.155 222.771 241.084 222.48C240.013 222.191 239.024 221.932 238.115 221.704C237.206 221.475 236.406 221.274 235.717 221.098C235.026 220.922 234.481 220.788 234.077 220.694C234.267 220.919 234.517 221.231 234.823 221.63C235.13 222.029 235.49 222.487 235.896 223.006C236.305 223.526 236.75 224.101 237.232 224.728C237.715 225.356 238.23 226.011 238.78 226.688Z" fill="#EEEFF2"/>
<path d="M197.926 170.864L190.095 166.313C189.233 165.812 188.599 164.829 188.354 163.27L196.186 167.821C196.43 169.38 197.064 170.363 197.926 170.864Z" fill="#DAD9E8"/>
<mask id="mask4_217_2287" style="mask-type:luminance" maskUnits="userSpaceOnUse" x="188" y="163" width="10" height="8">
<path d="M197.926 170.864L190.095 166.313C189.233 165.812 188.599 164.829 188.354 163.27L196.186 167.821C196.43 169.38 197.064 170.363 197.926 170.864Z" fill="white"/>
</mask>
<g mask="url(#mask4_217_2287)">
<path d="M197.926 170.864L190.094 166.313C189.238 165.816 188.606 164.841 188.357 163.298L196.189 167.849C196.437 169.391 197.069 170.366 197.926 170.864Z" fill="#DAD9E8"/>
<path d="M196.187 167.849L188.356 163.298C188.354 163.288 188.353 163.279 188.352 163.27L196.184 167.821C196.185 167.829 196.187 167.84 196.187 167.849Z" fill="#DAD9E8"/>
</g>
<path d="M204.663 89.1598L212.495 93.711C210.21 92.3836 207.042 92.5488 203.495 94.5965L195.664 90.0453C199.21 87.9976 202.378 87.8315 204.663 89.1598Z" fill="#DAD9E8"/>
<mask id="mask5_217_2287" style="mask-type:luminance" maskUnits="userSpaceOnUse" x="195" y="88" width="18" height="7">
<path d="M204.663 89.1598L212.495 93.711C210.21 92.3836 207.042 92.5488 203.495 94.5965L195.664 90.0453C199.21 87.9976 202.378 87.8315 204.663 89.1598Z" fill="white"/>
</mask>
<g mask="url(#mask5_217_2287)">
<path d="M203.493 94.5965L195.662 90.0453C199.209 87.9976 202.377 87.8315 204.662 89.1598L212.494 93.711C210.209 92.3827 207.041 92.5488 203.493 94.5965Z" fill="#DAD9E8"/>
</g>
<path d="M196.184 167.821L188.352 163.27L180.826 115.526L188.658 120.078L196.184 167.821Z" fill="#DAD9E8"/>
<path d="M201.107 95.9742L193.275 91.423L195.663 90.0449L203.494 94.5961L201.107 95.9742Z" fill="#EBEBF1"/>
<path d="M188.658 120.077L180.827 115.526C179.546 107.401 185.472 95.9284 193.276 91.4233L201.107 95.9745C193.303 100.481 187.377 111.953 188.658 120.077Z" fill="#EBEBF1"/>
<mask id="mask6_217_2287" style="mask-type:luminance" maskUnits="userSpaceOnUse" x="180" y="91" width="22" height="30">
<path d="M188.658 120.077L180.827 115.526C179.546 107.401 185.472 95.9284 193.276 91.4233L201.107 95.9745C193.303 100.481 187.377 111.953 188.658 120.077Z" fill="white"/>
</mask>
<g mask="url(#mask6_217_2287)">
<path d="M188.658 120.077L180.827 115.526C180.438 113.056 180.714 110.277 181.508 107.476L189.339 112.027C188.545 114.827 188.268 117.607 188.658 120.077Z" fill="#EBEBF1"/>
<path d="M189.337 112.028L181.506 107.477C182.399 104.327 183.945 101.152 185.933 98.3657L193.764 102.917C191.777 105.704 190.23 108.878 189.337 112.028Z" fill="#EBEBF1"/>
<path d="M193.765 102.916L185.934 98.3651C187.453 96.2353 189.229 94.3324 191.167 92.8408L199 97.392C197.061 98.8835 195.284 100.786 193.765 102.916Z" fill="#EBEBF1"/>
<path d="M198.998 97.3914L191.166 92.8402C191.85 92.3135 192.554 91.8384 193.275 91.4233L201.106 95.9745C200.386 96.3905 199.682 96.8656 198.998 97.3914Z" fill="#EBEBF1"/>
</g>
<path d="M203.494 94.5968C211.298 90.0908 217.266 94.6964 216.035 104.271L208.807 160.532C208.235 164.98 205.377 168.689 202.513 170.343C199.648 171.996 196.778 171.594 196.183 167.821L188.657 120.078C187.376 111.953 193.302 100.48 201.106 95.9749L203.494 94.5968Z" fill="#C4C3EC"/>
<path d="M212.159 95.0011L217.614 98.1714C215.298 96.8256 212.092 97.0147 208.552 99.0588L203.098 95.8894C206.637 93.8453 209.843 93.6562 212.159 95.0011Z" fill="#05D4F5"/>
<mask id="mask7_217_2287" style="mask-type:luminance" maskUnits="userSpaceOnUse" x="203" y="94" width="15" height="6">
<path d="M212.159 95.0011L217.614 98.1714C215.298 96.8256 212.092 97.0147 208.552 99.0588L203.098 95.8894C206.637 93.8453 209.843 93.6562 212.159 95.0011Z" fill="white"/>
</mask>
<g mask="url(#mask7_217_2287)">
<path d="M208.554 99.0586L203.1 95.8892C206.639 93.8451 209.845 93.656 212.161 95.0018L217.616 98.1722C215.299 96.8254 212.093 97.0145 208.554 99.0586Z" fill="#05D4F5"/>
</g>
<path d="M209.817 104.387C214.635 101.602 218.564 103.843 218.577 109.383C218.596 114.92 214.693 121.679 209.873 124.459C205.054 127.245 201.122 125.007 201.109 119.469C201.091 113.934 204.998 107.166 209.817 104.387Z" fill="#05D4F5"/>
<path d="M199.568 129.221L194.113 126.052C191.827 124.724 190.41 121.898 190.399 117.884C190.375 109.8 196.062 99.9505 203.097 95.8892L208.552 99.0586C201.516 103.121 195.83 112.969 195.853 121.054C195.865 125.069 197.282 127.893 199.568 129.221Z" fill="#05D4F5"/>
<mask id="mask8_217_2287" style="mask-type:luminance" maskUnits="userSpaceOnUse" x="190" y="95" width="19" height="35">
<path d="M199.568 129.221L194.113 126.052C191.827 124.724 190.41 121.898 190.399 117.884C190.375 109.8 196.062 99.9505 203.097 95.8892L208.552 99.0586C201.516 103.121 195.83 112.969 195.853 121.054C195.865 125.069 197.282 127.893 199.568 129.221Z" fill="white"/>
</mask>
<g mask="url(#mask8_217_2287)">
<path d="M199.567 129.221L194.112 126.052C192.082 124.872 190.737 122.513 190.453 119.187L195.908 122.357C196.192 125.682 197.537 128.042 199.567 129.221Z" fill="#05D4F5"/>
<path d="M195.91 122.357L190.455 119.187C190.419 118.768 190.4 118.334 190.399 117.884C190.379 110.914 194.604 102.631 200.278 97.8774L205.733 101.048C200.058 105.801 195.833 114.084 195.854 121.054C195.855 121.503 195.874 121.938 195.91 122.357Z" fill="#05D4F5"/>
<path d="M205.732 101.047L200.277 97.8769C201.184 97.1168 202.128 96.4481 203.097 95.8882L208.551 99.0576C207.583 99.6175 206.639 100.287 205.732 101.047Z" fill="#05D4F5"/>
</g>
<path d="M209.815 104.387L208.55 99.058C215.586 94.9966 221.306 98.2601 221.329 106.344C221.352 114.428 215.669 124.271 208.634 128.334C201.598 132.395 195.875 129.138 195.852 121.054C195.829 112.97 201.515 103.12 208.55 99.0589L209.815 104.387C204.996 107.166 201.089 113.933 201.108 119.468C201.12 125.006 205.052 127.244 209.871 124.458C214.691 121.678 218.594 114.919 218.575 109.383C218.563 103.843 214.634 101.602 209.815 104.387Z" fill="#05D4F5"/>
<mask id="mask9_217_2287" style="mask-type:luminance" maskUnits="userSpaceOnUse" x="195" y="97" width="27" height="34">
<path d="M209.815 104.387L208.55 99.058C215.586 94.9966 221.306 98.2601 221.329 106.344C221.352 114.428 215.669 124.271 208.634 128.334C201.598 132.395 195.875 129.138 195.852 121.054C195.829 112.97 201.515 103.12 208.55 99.0589L209.815 104.387C204.996 107.166 201.089 113.933 201.108 119.468C201.12 125.006 205.052 127.244 209.871 124.458C214.691 121.678 218.594 114.919 218.575 109.383C218.563 103.843 214.634 101.602 209.815 104.387Z" fill="white"/>
</mask>
<g mask="url(#mask9_217_2287)">
<path d="M209.815 104.387L208.55 99.058C215.586 94.9966 221.306 98.2601 221.329 106.344C221.352 114.428 215.669 124.271 208.634 128.334C201.598 132.395 195.875 129.138 195.852 121.054C195.829 112.97 201.515 103.12 208.55 99.0589L209.815 104.387C204.996 107.166 201.089 113.933 201.108 119.468C201.12 125.006 205.052 127.244 209.871 124.458C214.691 121.678 218.594 114.919 218.575 109.383C218.563 103.843 214.634 101.602 209.815 104.387Z" fill="#12B0F3"/>
</g>
<path d="M194.95 7.09276L192.293 7.90625L206.428 54.0663L209.084 53.2528L194.95 7.09276Z" fill="#171C29"/>
<path d="M224.594 198.594C211.623 190.581 208.705 179.823 207.459 175.229C208.468 179.637 211.916 184.02 217.801 187.562C232.504 196.411 256.848 196.658 272.173 188.112C278.754 184.442 282.601 179.747 283.686 174.885C282.689 178.698 281.184 184.46 275.436 191.119C273.259 193.641 268.464 198.331 260.797 201.406C249.142 206.083 234.931 204.979 224.594 198.594Z" fill="#919DD6"/>
<path d="M272.421 93.4885C286.754 102.115 286.262 115.862 271.323 124.192C256.383 132.522 232.653 132.282 218.319 123.656C203.986 115.03 204.478 101.283 219.417 92.9525C234.356 84.6222 258.087 84.8621 272.421 93.4885Z" fill="#E4E3EE"/>
<path d="M207.43 175.104L195.871 124.599C197.219 130.488 201.7 136.184 209.347 140.786C228.453 152.285 260.084 152.605 279.998 141.501C288.55 136.732 293.551 130.632 294.959 124.313L283.687 174.884C282.603 179.747 278.754 184.441 272.173 188.112C256.847 196.657 232.505 196.411 217.801 187.562C211.916 184.019 208.468 179.636 207.43 175.104Z" fill="#B7B6E3"/>
<path d="M213.272 92.1474C232.791 81.5525 260.429 81.8671 278.988 92.8945C277.333 91.8983 275.018 91.9758 272.421 93.4249C258.088 84.7985 234.357 84.5578 219.416 92.889C204.476 101.219 203.984 114.966 218.319 123.592C232.652 132.22 256.383 132.46 271.322 124.128C286.262 115.798 286.753 102.051 272.42 93.4249C275.017 91.9758 277.332 91.8983 278.988 92.8945C282.874 95.4072 288.747 99.2047 292.833 107.195C296.645 114.65 295.487 121.336 294.992 124.191C293.54 130.677 288.542 136.77 279.997 141.534C260.083 152.638 228.451 152.318 209.345 140.819C201.706 136.221 197.226 130.533 195.873 124.65C195.395 122.082 194.944 119.656 195.401 115.857C195.974 111.093 197.873 107.502 197.955 107.351C199.378 104.695 203.155 97.6394 213.272 92.1474Z" fill="#DAD9E8"/>
<path d="M266.173 31.15C277.168 37.7674 276.79 48.3115 265.331 54.701C253.871 61.0915 235.669 60.907 224.675 54.2896C213.681 47.6722 214.058 37.1281 225.517 30.7386C236.976 24.349 255.179 24.5335 266.173 31.15Z" fill="#EBEBF1"/>
<path d="M210.15 110.048C192.454 99.0965 188.569 84.6045 188.426 74.3749C188.449 82.5899 193.725 90.8022 204.319 97.1779C226.146 110.315 262.283 110.68 285.035 97.9942C296.744 91.4654 302.624 82.7523 302.599 74.041C302.402 79.3892 302.108 82.1629 299.957 88.1521C298.271 92.849 295.26 96.8431 293.642 98.9895C292.885 99.9922 285.867 108.936 272.313 114.215C248.812 123.368 224.159 118.717 210.15 110.048Z" fill="#B7B6E3"/>
<path d="M211.784 29.0882C222.148 23.4467 233.783 20.6675 246.37 20.8289C259.295 20.994 270.896 24.0703 280.852 29.9709C277.126 27.7276 271.922 27.9444 266.174 31.1507C255.179 24.5342 236.977 24.3498 225.517 30.7393C214.058 37.1298 213.68 47.673 224.675 54.2904C235.67 60.9068 253.872 61.0913 265.332 54.7017C276.791 48.3122 277.168 37.7681 266.174 31.1507C271.922 27.9453 277.125 27.7286 280.852 29.9709C286.1 33.359 302.068 43.6669 302.577 65.6443C302.602 74.3556 296.72 83.0687 285.011 89.5975C262.261 102.283 226.123 101.917 204.296 88.7812C193.702 82.4046 188.425 74.1923 188.402 65.9773C188.52 62.7839 188.654 59.1644 190.051 54.7405C191.705 49.5012 193.131 47.2523 195.491 43.5276C197.356 40.5851 203.161 33.7814 211.784 29.0882Z" fill="#E4E3EE"/>
<path d="M256.719 98.2139C238.233 100.386 218.314 97.2168 204.297 88.7804C193.762 82.4397 188.486 74.2847 188.404 66.1158C188.39 60.8101 190.57 55.9121 194.25 51.9937C194.323 59.3195 199.055 66.6351 208.504 72.3218C221.076 79.8883 238.942 82.7312 255.523 80.7831C256.258 86.776 256.703 92.9082 256.719 98.2139Z" fill="#042F8F"/>
<path d="M188.426 74.3751L188.402 65.9765C188.425 74.1916 193.702 82.4038 204.296 88.7804C226.123 101.917 262.26 102.283 285.011 89.5968C296.72 83.0679 302.601 74.3548 302.577 65.6436L302.601 74.0421C302.626 82.7525 296.744 91.4656 285.036 97.9953C262.286 110.681 226.147 110.315 204.32 97.179C193.726 90.8024 188.45 82.5901 188.426 74.3751Z" fill="#DAD9E8"/>
<path d="M197.679 74.6186C196.556 77.7899 194.634 78.0021 193.303 75.102C191.08 70.2593 193.345 64.4085 196.228 65.2432C196.753 65.3954 197.028 65.6971 197.32 66.0171C199.169 68.6433 198.173 73.2221 197.679 74.6186Z" fill="#05D4F5"/>
<path d="M230.038 88.9753C229.194 93.7378 223.211 94.5384 220.19 90.2944C217.034 85.8631 220.492 80.7585 224.909 81.3073C225.071 81.3276 225.286 81.3747 225.447 81.4042C229.339 82.5314 230.475 86.5097 230.038 88.9753Z" fill="#05D4F5"/>
<path d="M283.352 68.4997C283.352 65.6808 281.373 64.5379 278.932 65.9474C276.49 67.3568 274.512 70.7845 274.512 73.6043C274.512 76.4232 276.491 77.5661 278.933 76.1567C281.373 74.7472 283.352 71.3195 283.352 68.4997Z" fill="#1393F2"/>
<path d="M279.507 72.5026C279.084 72.5026 278.667 72.3107 278.395 71.9473C277.935 71.3339 278.059 70.4631 278.672 70.0019L310.896 45.8172C311.509 45.3569 312.38 45.4805 312.84 46.0948C313.3 46.7082 313.177 47.579 312.562 48.0393L280.338 72.2231C280.09 72.4122 279.797 72.5026 279.507 72.5026Z" fill="#171C29"/>
<path d="M319.909 45.194C319.909 41.057 316.556 37.7031 312.418 37.7031C308.28 37.7031 304.926 41.057 304.926 45.194C304.926 49.332 308.28 52.6859 312.418 52.6859C316.556 52.6859 319.909 49.332 319.909 45.194Z" fill="#1393F2"/>
<path d="M200.426 7.49184C200.426 3.35389 197.072 0 192.934 0C188.797 0 185.443 3.35389 185.443 7.49184C185.443 11.6298 188.797 14.9837 192.934 14.9837C197.072 14.9827 200.426 11.6289 200.426 7.49184Z" fill="#1393F2"/>
<path d="M289.982 121.897L295.437 125.067C293.122 123.721 289.914 123.91 286.375 125.955L280.92 122.784C284.459 120.74 287.666 120.551 289.982 121.897Z" fill="#05D4F5"/>
<mask id="mask10_217_2287" style="mask-type:luminance" maskUnits="userSpaceOnUse" x="280" y="121" width="16" height="5">
<path d="M289.982 121.897L295.437 125.067C293.122 123.721 289.914 123.91 286.375 125.955L280.92 122.784C284.459 120.74 287.666 120.551 289.982 121.897Z" fill="white"/>
</mask>
<g mask="url(#mask10_217_2287)">
<path d="M286.375 125.954L280.92 122.783C284.459 120.74 287.666 120.55 289.981 121.896L295.436 125.066C293.121 123.722 289.914 123.911 286.375 125.954Z" fill="#05D4F5"/>
</g>
<path d="M287.638 131.282C292.457 128.497 296.387 130.739 296.399 136.279C296.418 141.815 292.515 148.575 287.696 151.354C282.876 154.14 278.944 151.902 278.932 146.364C278.912 140.828 282.82 134.061 287.638 131.282Z" fill="#05D4F5"/>
<path d="M277.391 156.117L271.936 152.947C269.65 151.618 268.233 148.794 268.221 144.779C268.198 136.695 273.884 126.845 280.92 122.783L286.375 125.953C279.34 130.014 273.653 139.865 273.676 147.949C273.687 151.964 275.105 154.789 277.391 156.117Z" fill="#05D4F5"/>
<mask id="mask11_217_2287" style="mask-type:luminance" maskUnits="userSpaceOnUse" x="268" y="122" width="19" height="35">
<path d="M277.391 156.117L271.936 152.947C269.65 151.618 268.233 148.794 268.221 144.779C268.198 136.695 273.884 126.845 280.92 122.783L286.375 125.953C279.34 130.014 273.653 139.865 273.676 147.949C273.687 151.964 275.105 154.789 277.391 156.117Z" fill="white"/>
</mask>
<g mask="url(#mask11_217_2287)">
<path d="M277.392 156.116L271.937 152.946C269.906 151.766 268.561 149.407 268.277 146.082L273.732 149.252C274.016 152.577 275.361 154.937 277.392 156.116Z" fill="#05D4F5"/>
<path d="M273.731 149.252L268.277 146.081C268.241 145.663 268.222 145.228 268.221 144.778C268.201 137.807 272.426 129.525 278.101 124.771L283.555 127.941C277.881 132.695 273.656 140.978 273.676 147.948C273.677 148.399 273.696 148.833 273.731 149.252Z" fill="#05D4F5"/>
<path d="M283.556 127.943L278.102 124.772C279.007 124.013 279.951 123.344 280.92 122.784L286.376 125.954C285.406 126.514 284.463 127.183 283.556 127.943Z" fill="#05D4F5"/>
</g>
<path d="M287.639 131.283L286.376 125.954C293.411 121.893 299.131 125.156 299.154 133.24C299.177 141.324 293.493 151.167 286.458 155.23C279.422 159.291 273.699 156.033 273.676 147.95C273.653 139.866 279.339 130.016 286.375 125.954L287.639 131.283C282.821 134.062 278.913 140.829 278.933 146.364C278.946 151.902 282.877 154.14 287.697 151.354C292.516 148.574 296.419 141.815 296.4 136.279C296.387 130.739 292.458 128.498 287.639 131.283Z" fill="#05D4F5"/>
<mask id="mask12_217_2287" style="mask-type:luminance" maskUnits="userSpaceOnUse" x="273" y="124" width="27" height="33">
<path d="M287.639 131.283L286.376 125.954C293.411 121.893 299.131 125.156 299.154 133.24C299.177 141.324 293.493 151.167 286.458 155.23C279.422 159.291 273.699 156.033 273.676 147.95C273.653 139.866 279.339 130.016 286.375 125.954L287.639 131.283C282.821 134.062 278.913 140.829 278.933 146.364C278.946 151.902 282.877 154.14 287.697 151.354C292.516 148.574 296.419 141.815 296.4 136.279C296.387 130.739 292.458 128.498 287.639 131.283Z" fill="white"/>
</mask>
<g mask="url(#mask12_217_2287)">
<path d="M287.639 131.283L286.376 125.954C293.411 121.893 299.131 125.156 299.154 133.24C299.177 141.324 293.493 151.167 286.458 155.23C279.422 159.291 273.699 156.033 273.676 147.95C273.653 139.866 279.34 130.016 286.376 125.954L287.639 131.283C282.821 134.062 278.913 140.829 278.933 146.364C278.946 151.902 282.877 154.14 287.697 151.354C292.516 148.574 296.419 141.815 296.4 136.279C296.387 130.739 292.458 128.498 287.639 131.283Z" fill="#12B0F3"/>
</g>
<path d="M290.042 206.054L282.211 201.502C281.35 201.002 280.715 200.018 280.469 198.458L288.3 203.01C288.547 204.569 289.181 205.553 290.042 206.054Z" fill="#DAD9E8"/>
<mask id="mask13_217_2287" style="mask-type:luminance" maskUnits="userSpaceOnUse" x="280" y="198" width="11" height="9">
<path d="M290.042 206.054L282.211 201.502C281.35 201.002 280.715 200.018 280.469 198.458L288.3 203.01C288.547 204.569 289.181 205.553 290.042 206.054Z" fill="white"/>
</mask>
<g mask="url(#mask13_217_2287)">
<path d="M290.043 206.054L282.212 201.503C281.356 201.005 280.723 200.031 280.475 198.487L288.306 203.038C288.555 204.582 289.187 205.556 290.043 206.054Z" fill="#DAD9E8"/>
<path d="M288.307 203.038L280.475 198.487C280.473 198.478 280.473 198.469 280.471 198.458L288.302 203.01C288.304 203.02 288.305 203.029 288.307 203.038Z" fill="#DAD9E8"/>
</g>
<path d="M296.779 124.349L304.611 128.9C302.326 127.573 299.158 127.738 295.611 129.786L287.779 125.235C291.327 123.187 294.494 123.021 296.779 124.349Z" fill="#DAD9E8"/>
<mask id="mask14_217_2287" style="mask-type:luminance" maskUnits="userSpaceOnUse" x="287" y="123" width="18" height="7">
<path d="M296.779 124.349L304.611 128.9C302.326 127.573 299.158 127.738 295.611 129.786L287.779 125.235C291.327 123.187 294.494 123.021 296.779 124.349Z" fill="white"/>
</mask>
<g mask="url(#mask14_217_2287)">
<path d="M295.613 129.786L287.781 125.235C291.329 123.187 294.496 123.021 296.781 124.349L304.613 128.9C302.328 127.573 299.159 127.738 295.613 129.786Z" fill="#DAD9E8"/>
</g>
<path d="M288.301 203.011L280.468 198.459L272.943 150.716L280.775 155.267L288.301 203.011Z" fill="#DAD9E8"/>
<path d="M293.225 131.164L285.393 126.614L287.78 125.235L295.612 129.786L293.225 131.164Z" fill="#EBEBF1"/>
<path d="M280.775 155.267L272.944 150.715C271.664 142.591 277.589 131.118 285.394 126.613L293.225 131.164C285.421 135.67 279.495 147.143 280.775 155.267Z" fill="#EBEBF1"/>
<mask id="mask15_217_2287" style="mask-type:luminance" maskUnits="userSpaceOnUse" x="272" y="126" width="22" height="30">
<path d="M280.775 155.267L272.944 150.715C271.664 142.591 277.589 131.118 285.394 126.613L293.225 131.164C285.421 135.67 279.495 147.143 280.775 155.267Z" fill="white"/>
</mask>
<g mask="url(#mask15_217_2287)">
<path d="M280.775 155.267L272.944 150.716C272.555 148.246 272.832 145.466 273.625 142.667L281.457 147.218C280.663 150.018 280.386 152.797 280.775 155.267Z" fill="#EBEBF1"/>
<path d="M281.455 147.218L273.623 142.667C274.515 139.517 276.062 136.342 278.05 133.555L285.881 138.106C283.895 140.893 282.348 144.068 281.455 147.218Z" fill="#EBEBF1"/>
<path d="M285.882 138.106L278.051 133.555C279.57 131.425 281.347 129.522 283.285 128.031L291.116 132.582C289.178 134.073 287.401 135.976 285.882 138.106Z" fill="#EBEBF1"/>
<path d="M291.116 132.582L283.285 128.031C283.97 127.504 284.673 127.029 285.394 126.614L293.225 131.165C292.505 131.581 291.801 132.056 291.116 132.582Z" fill="#EBEBF1"/>
</g>
<path d="M295.613 129.786C303.418 125.28 309.386 129.886 308.155 139.461L300.927 195.721C300.355 200.169 297.497 203.878 294.633 205.532C291.768 207.186 288.898 206.784 288.302 203.01L280.776 155.267C279.496 147.143 285.421 135.67 293.226 131.164L295.613 129.786Z" fill="#C4C3EC"/>
</svg>
