<svg width="58" height="62" viewBox="0 0 58 62" fill="none" xmlns="http://www.w3.org/2000/svg">
<path d="M14.695 40.2323L4.82574 50.0943C2.09975 52.8185 2.09975 57.234 4.82574 59.9583C7.54973 62.6805 11.969 62.6805 14.695 59.9583L34.4374 40.2323C37.1634 37.508 37.1634 33.0925 34.4374 30.3683L14.695 10.6423C11.969 7.91806 7.54973 7.91806 4.82574 10.6423C2.09975 13.3665 2.09975 17.782 4.82574 20.5063L14.695 30.3683C17.4229 33.0925 17.4229 37.508 14.695 40.2323Z" fill="#4EE2FF"/>
<path d="M4.5307 37.1726L0.776009 40.9219C-0.25867 41.9569 -0.25867 43.6362 0.776009 44.6712C1.81069 45.7062 3.49403 45.7062 4.5307 44.6712L12.0321 37.1726C13.0688 36.1376 13.0688 34.4583 12.0321 33.4233L4.5307 25.9247C3.49403 24.8897 1.81069 24.8897 0.776009 25.9247C-0.25867 26.9596 -0.25867 28.639 0.776009 29.674L4.5307 33.4233C5.56339 34.4583 5.56339 36.1376 4.5307 37.1726Z" fill="#84E9FD"/>
<path d="M31.0561 43.6106L21.2207 33.7823C18.4967 31.0581 18.4967 26.6426 21.2207 23.9183L24.6013 20.5398L34.4368 30.3681C35.8017 31.7282 36.4822 33.5146 36.4822 35.2991C36.4822 37.0855 35.8017 38.868 34.4368 40.2321L31.0561 43.6106Z" fill="#0B0757"/>
<path d="M43.1136 21.7692L52.9848 11.9052C55.7128 9.18292 55.7128 4.76544 52.9848 2.04318C50.2588 -0.681061 45.8396 -0.681061 43.1136 2.04318L23.3711 21.7692C20.6471 24.4914 20.6471 28.9089 23.3711 31.6312L43.1136 51.3571C45.8396 54.0814 50.2588 54.0814 52.9848 51.3571C55.7128 48.6349 55.7128 44.2174 52.9848 41.4951L43.1136 31.6312C40.3896 28.9089 40.3896 24.4914 43.1136 21.7692Z" fill="#293FCC"/>
<path d="M53.2829 24.8264L57.0356 21.077C58.0703 20.0421 58.0703 18.3627 57.0356 17.3277C55.9989 16.2928 54.3176 16.2928 53.2829 17.3277L45.7775 24.8264C44.7408 25.8613 44.7408 27.5407 45.7775 28.5757L53.2829 36.0743C54.3176 37.1092 55.9989 37.1092 57.0356 36.0743C58.0703 35.0393 58.0703 33.3599 57.0356 32.325L53.2829 28.5757C52.2462 27.5407 52.2462 25.8613 53.2829 24.8264Z" fill="#8F9DF9"/>
</svg>
