<svg width="18" height="16" viewBox="0 0 18 16" fill="none" xmlns="http://www.w3.org/2000/svg">
<path d="M0 4.76372L9.04648 4.36157L18 4.76372L9 15.27L0 4.76372Z" fill="#FFB04C"/>
<path d="M18 4.76377H0L2.87276 0.72998H15.1272L18 4.76377Z" fill="#FFDB6C"/>
<path d="M15.127 0.72998V4.76377H17.9997L15.127 0.72998Z" fill="#FFC866"/>
<path d="M15.1112 4.7912L9 15.2699L17.9215 4.85532C17.9523 4.81929 17.9268 4.76367 17.8793 4.76367H15.1591C15.1394 4.76367 15.1211 4.77415 15.1112 4.7912Z" fill="#F7A05E"/>
<path d="M2.87305 0.72998H15.1275L9.00029 15.27L2.87305 0.72998Z" fill="#FFDB6C"/>
<path d="M13.4277 4.76377L15.1275 0.72998H2.87305L4.57289 4.76377H13.4277Z" fill="#FFF2BB"/>
<path d="M4.57422 4.76377L9.00162 0.72998L13.429 4.76377H4.57422Z" fill="#FFEB8A"/>
</svg>
