<svg width="18" height="18" viewBox="0 0 18 18" fill="none" xmlns="http://www.w3.org/2000/svg">
<rect x="0.75" y="0.75" width="16.5" height="16.5" rx="8.25" stroke="#16346C" stroke-width="1.5"/>
<path d="M8.15582 12.5898C7.79894 12.9385 7.20418 12.9385 6.8473 12.5898L3.99227 9.80032C3.63539 9.45162 3.63539 8.87046 3.99227 8.63799C4.34914 8.28929 4.94391 8.28929 5.30078 8.63799L7.56102 10.8463L8.15582 11.4275C8.39373 11.7762 8.39373 12.2411 8.15582 12.5898Z" fill="#16346C"/>
<path d="M13.7406 7.12663L8.14961 12.5898C7.79274 12.9385 7.19794 12.9385 6.96003 12.5898L6.36523 12.0087L7.67375 10.73L12.551 5.84795C12.9079 5.49925 13.5027 5.49925 13.7406 5.84795C14.0975 6.19665 14.0975 6.77793 13.7406 7.12663Z" fill="#16346C"/>
</svg>
