<svg width="470" height="209" viewBox="0 0 470 209" fill="none" xmlns="http://www.w3.org/2000/svg">
<g clip-path="url(#clip0_471_1212)">
<path d="M-261.226 74.2682C-346.682 58.6551 -385.075 67.7626 -393.59 74.2682C-272.837 74.2682 -293.736 87.9312 -217.105 109.395C-140.473 130.859 -84.7408 119.153 -63.8413 113.298C-42.9417 107.444 31.3678 93.7822 135.866 130.863C240.363 167.944 330.928 134.766 375.049 97.6854C410.346 68.0206 451.681 59.3035 467.936 58.6532C437.748 50.8467 372.727 74.2682 347.183 87.9312C321.639 101.594 242.686 134.77 152.121 87.9312C61.556 41.092 -59.197 62.56 -103.318 74.2682C-147.44 85.9764 -154.406 93.7845 -261.226 74.2682Z" fill="#4E9DDB" fill-opacity="0.3"/>
<path d="M-180.057 170.146C-245.034 149.75 -281.389 156.418 -291.445 162.301C-250.603 156.025 -200.169 181.913 -180.057 195.641C-80.2721 254.477 -22.2575 217.214 17.1925 199.564C48.7524 185.443 133.997 187.141 172.672 189.758C308.194 205.447 366.826 150.534 379.204 121.116C335.113 158.379 258.533 193.68 179.633 170.146C100.734 146.612 46.8577 140.581 -8.33395 154.456C-36.181 168.185 -98.8368 195.641 -180.057 170.146Z" fill="#4E9DDB" fill-opacity="0.3"/>
<path d="M263.529 49.038C209.708 52.1765 128.976 20.2692 96.498 0C166.094 103.961 321.526 86.3069 370.243 56.8841C409.217 33.3459 452.984 37.9229 469.998 43.1535C393.442 -29.4228 330.805 45.115 263.529 49.038Z" fill="#4E9DDB" fill-opacity="0.3"/>
</g>
<defs>
<clipPath id="clip0_471_1212">
<path d="M0 0H470V209H40C17.9086 209 0 191.091 0 169V0Z" fill="white"/>
</clipPath>
</defs>
</svg>
