<svg width="483" height="170" viewBox="0 0 483 170" fill="none" xmlns="http://www.w3.org/2000/svg">
<g clip-path="url(#clip0_471_1217)">
<path d="M98.9825 55.4394C35.078 43.7847 6.36728 50.5832 0 55.4394C90.2998 55.4394 74.671 65.6384 131.977 81.6607C189.282 97.683 230.959 88.9449 246.588 84.5744C262.217 80.2039 317.786 70.006 395.93 97.6859C474.074 125.366 541.799 100.6 574.793 72.9197C601.188 50.7758 632.099 44.2686 644.254 43.7832C621.679 37.9559 573.056 55.4394 553.955 65.6384C534.853 75.8375 475.81 100.603 408.086 65.6384C340.361 30.6743 250.061 46.6995 217.067 55.4394C184.073 64.1793 178.863 70.0078 98.9825 55.4394Z" fill="#4E9DDB" fill-opacity="0.3"/>
<path d="M159.681 127.009C111.092 111.784 83.9047 116.762 76.3848 121.154C106.927 116.469 144.642 135.793 159.681 146.041C234.301 189.96 277.685 162.145 307.186 148.969C330.787 138.428 394.533 139.696 423.454 141.649C524.798 153.361 568.644 112.37 577.9 90.4102C544.928 118.226 487.662 144.577 428.66 127.009C369.658 109.442 329.37 104.94 288.097 115.298C267.273 125.545 220.419 146.041 159.681 127.009Z" fill="#4E9DDB" fill-opacity="0.3"/>
<path d="M491.397 36.6055C451.149 38.9483 390.778 15.1304 366.49 0C418.535 77.6037 534.767 64.4257 571.199 42.4624C600.343 24.8918 633.073 28.3084 645.796 32.2129C588.547 -21.9633 541.707 33.6771 491.397 36.6055Z" fill="#4E9DDB" fill-opacity="0.3"/>
</g>
<defs>
<clipPath id="clip0_471_1217">
<path d="M0 0H483V170H0V0Z" fill="white"/>
</clipPath>
</defs>
</svg>
