<svg width="64" height="64" viewBox="0 0 64 64" fill="none" xmlns="http://www.w3.org/2000/svg">
<g filter="url(#filter0_d_413_1625)">
<rect x="2" width="60" height="60" rx="12" fill="#090A0C" shape-rendering="crispEdges"/>
<g clip-path="url(#clip0_413_1625)">
<path d="M27 30.9996H34.586L32.293 33.2926C32.1975 33.3849 32.1213 33.4952 32.0689 33.6172C32.0165 33.7392 31.9889 33.8704 31.9877 34.0032C31.9866 34.136 32.0119 34.2677 32.0622 34.3906C32.1125 34.5135 32.1867 34.6251 32.2806 34.719C32.3745 34.8129 32.4861 34.8871 32.609 34.9374C32.7319 34.9877 32.8636 35.013 32.9964 35.0119C33.1292 35.0107 33.2604 34.9831 33.3824 34.9307C33.5044 34.8783 33.6148 34.8021 33.707 34.7066L37.707 30.7066C37.8001 30.6137 37.874 30.5034 37.9244 30.3819C37.9748 30.2604 38.0008 30.1301 38.0008 29.9986C38.0008 29.8671 37.9748 29.7368 37.9244 29.6153C37.874 29.4938 37.8001 29.3835 37.707 29.2906L33.707 25.2906C33.5192 25.1031 33.2647 24.9979 32.9993 24.998C32.7339 24.9982 32.4795 25.1038 32.292 25.2916C32.1045 25.4794 31.9993 25.7339 31.9994 25.9993C31.9996 26.2647 32.1052 26.5191 32.293 26.7066L34.586 28.9996H27C26.7348 28.9996 26.4804 29.105 26.2929 29.2925C26.1054 29.48 26 29.7344 26 29.9996C26 30.2648 26.1054 30.5192 26.2929 30.7067C26.4804 30.8942 26.7348 30.9996 27 30.9996Z" fill="white"/>
</g>
</g>
<defs>
<filter id="filter0_d_413_1625" x="0" y="0" width="64" height="64" filterUnits="userSpaceOnUse" color-interpolation-filters="sRGB">
<feFlood flood-opacity="0" result="BackgroundImageFix"/>
<feColorMatrix in="SourceAlpha" type="matrix" values="0 0 0 0 0 0 0 0 0 0 0 0 0 0 0 0 0 0 127 0" result="hardAlpha"/>
<feOffset dy="2"/>
<feGaussianBlur stdDeviation="1"/>
<feComposite in2="hardAlpha" operator="out"/>
<feColorMatrix type="matrix" values="0 0 0 0 0.0417941 0 0 0 0 0.123894 0 0 0 0 0.21719 0 0 0 0.37 0"/>
<feBlend mode="normal" in2="BackgroundImageFix" result="effect1_dropShadow_413_1625"/>
<feBlend mode="normal" in="SourceGraphic" in2="effect1_dropShadow_413_1625" result="shape"/>
</filter>
<clipPath id="clip0_413_1625">
<rect width="12" height="12" fill="white" transform="translate(26 24)"/>
</clipPath>
</defs>
</svg>
