<svg width="50" height="50" viewBox="0 0 50 50" fill="none" xmlns="http://www.w3.org/2000/svg">
<circle cx="25" cy="25" r="25" fill="#DBEBF8"/>
<g clip-path="url(#clip0_1460_459)">
<mask id="mask0_1460_459" style="mask-type:luminance" maskUnits="userSpaceOnUse" x="13" y="13" width="24" height="24">
<path d="M37 13H13V37H37V13Z" fill="white"/>
</mask>
<g mask="url(#mask0_1460_459)">
<path d="M26.1756 24.6016H25.4004V25.3755H26.1756V24.6016Z" fill="#3CACE4"/>
<path d="M30.8057 25.4588V24.6133H30.0318V25.3872H29.2578V26.5488C29.2578 27.1904 29.7778 27.7103 30.4194 27.7103C30.6317 27.7103 30.8057 27.8844 30.8057 28.0979V28.4843H30.4194C30.2059 28.4843 30.0318 28.3102 30.0318 28.0979V27.7103H29.2578V28.0979C29.2578 28.6012 29.5822 29.0269 30.0318 29.1879V30.0334H30.8057V29.2582H31.5797V28.0979C31.5797 27.4563 31.0598 26.9364 30.4194 26.9364C30.2059 26.9364 30.0318 26.7622 30.0318 26.5488V26.1624H30.4194C30.6317 26.1624 30.8057 26.3353 30.8057 26.5488V26.9364H31.5797V26.5488C31.5797 26.0455 31.2553 25.6186 30.8057 25.4588Z" fill="#3CACE4"/>
<path d="M15.3228 29.2578H14.5488V30.033H15.3228V29.2578Z" fill="#3CACE4"/>
<path d="M16.8709 29.2578H16.0957V30.033H16.8709V29.2578Z" fill="#3CACE4"/>
<path d="M18.4185 29.2578H17.6445V30.033H18.4185V29.2578Z" fill="#3CACE4"/>
<path d="M15.3228 26.9375H14.5488V27.7115H15.3228V26.9375Z" fill="#3CACE4"/>
<path d="M16.8709 26.9375H16.0957V27.7115H16.8709V26.9375Z" fill="#3CACE4"/>
<path d="M18.4185 26.9375H17.6445V27.7115H18.4185V26.9375Z" fill="#3CACE4"/>
<path d="M15.3228 24.6133H14.5488V25.3872H15.3228V24.6133Z" fill="#3CACE4"/>
<path d="M16.8709 24.6133H16.0957V25.3872H16.8709V24.6133Z" fill="#3CACE4"/>
<path d="M18.4185 24.6133H17.6445V25.3872H18.4185V24.6133Z" fill="#3CACE4"/>
<path d="M36.2129 32.7271L36.0316 33.3651C35.7049 34.5112 34.8892 35.439 33.792 35.9076C33.2995 36.1187 32.776 36.226 32.2394 36.226H26.161V32.553C27.0649 31.9257 28.1573 31.5811 29.258 31.5811H30.4195C30.6318 31.5811 30.8059 31.7552 30.8059 31.9686C30.8059 32.2262 30.6211 32.4445 30.3659 32.4886L29.3331 32.6603C28.8406 32.7426 28.484 33.1624 28.484 33.6621C28.484 34.2226 28.9384 34.6781 29.5001 34.6781H32.0652C33.1016 34.6781 34.0783 34.2214 34.7425 33.4248L35.439 32.5864C35.5618 32.4397 35.743 32.355 35.9339 32.355C36.0937 32.355 36.226 32.4862 36.226 32.6472C36.226 32.6746 36.2213 32.7021 36.2129 32.7271ZM23.8379 36.226V32.5029L25.387 32.6973V36.226H23.8379ZM13.774 31.2448L23.0639 32.4063V36.226H13.774V31.2448ZM19.1929 22.7574V31.1422L13.774 30.4648V23.7735L19.1929 22.7574ZM16.871 15.7906L22.2899 16.8066V19.7916L20.742 19.5006V31.3366L19.9668 31.2388V21.8236L16.871 22.4044V15.7906ZM26.9349 23.5672L26.0381 24.613H25.387V25.3739L25.1568 25.6434C24.8193 26.0345 24.5462 26.4722 24.334 26.9361H23.8379V27.7101H24.049C23.9118 28.1918 23.8379 28.6963 23.8379 29.2043C23.8379 30.1262 24.0656 31.0122 24.495 31.8053L21.516 31.4332V20.4355L26.9349 21.4516V23.5672ZM29.3486 18.4201H29.357C29.4476 18.9508 29.599 19.472 29.8101 19.968H29.1089L28.5377 18.8244C28.7273 18.5704 29.0242 18.4201 29.3486 18.4201ZM32.3503 18.2198C32.3169 18.8375 32.1201 19.4302 31.7754 19.9454L31.76 19.968H30.6604C30.3086 19.2466 30.0964 18.4559 30.0439 17.6545C31.3998 17.7118 32.0939 18.0564 32.3503 18.2198ZM31.5799 20.742V21.516H29.258V20.742H31.5799ZM36.226 29.2043C36.226 30.0701 35.9875 30.9097 35.5403 31.6431C35.2708 31.7218 35.0275 31.8708 34.8451 32.0903L34.1462 32.9286C33.631 33.5488 32.8714 33.9042 32.0652 33.9042H29.5001C29.3665 33.9042 29.258 33.7944 29.258 33.6621C29.258 33.544 29.3426 33.4438 29.4607 33.4248L30.4935 33.2518C31.1231 33.1457 31.5799 32.6066 31.5799 31.9686C31.5799 31.327 31.0599 30.8071 30.4195 30.8071H29.258C27.982 30.8071 26.7179 31.215 25.6756 31.9532L25.486 31.9293C24.9159 31.1303 24.613 30.193 24.613 29.2043C24.613 28.0833 25.0149 26.9981 25.7436 26.1466L29.0493 22.2911H31.7886L35.0943 26.1466C35.823 26.9981 36.226 28.0833 36.226 29.2043ZM36.399 31.6932C36.7913 30.9252 37 30.0761 37 29.2043C37 27.8985 36.5313 26.6332 35.681 25.6434L32.355 21.7604V20.4713L32.4194 20.3747C32.8833 19.6794 33.129 18.8685 33.129 18.0326V17.8728L33.0157 17.7583C32.9251 17.6676 32.0581 16.871 29.6444 16.871H29.258V17.2586C29.258 17.3898 29.2628 17.5198 29.2699 17.6509C28.6212 17.6808 28.044 18.048 27.7506 18.6324L27.6636 18.8065L28.484 20.4463V21.7604L27.7089 22.6644V20.8076L26.161 20.5166V16.871H25.387V20.3723L24.613 20.2268V18.4201H23.8379V20.0814L23.0639 19.9358V16.1626L20.742 15.7262V13H19.9668V15.5819L19.1929 15.4364V13.774H18.4189V15.2909L16.0959 14.8556V22.5487L15.3219 22.6942V20.742H14.5479V22.8397L13 23.1295V37H32.2394C32.8821 37 33.5082 36.8724 34.0974 36.6196C35.4092 36.0567 36.3846 34.9488 36.7758 33.5786L36.9583 32.9406C36.9857 32.8452 37 32.7474 37 32.6472C37 32.2262 36.7532 31.8649 36.399 31.6932Z" fill="#1E4397"/>
<path d="M23.063 26.9375H22.2891V27.7115H23.063V26.9375Z" fill="#3CACE4"/>
<path d="M23.063 29.2578H22.2891V30.033H23.063V29.2578Z" fill="#3CACE4"/>
<path d="M24.613 24.6133H23.8379V25.3872H24.613V24.6133Z" fill="#3CACE4"/>
<path d="M23.063 24.6133H22.2891V25.3872H23.063V24.6133Z" fill="#3CACE4"/>
<path d="M26.1607 22.2891H25.3867V23.063H26.1607V22.2891Z" fill="#3CACE4"/>
<path d="M24.613 22.2891H23.8379V23.063H24.613V22.2891Z" fill="#3CACE4"/>
<path d="M23.063 22.2891H22.2891V23.063H23.063V22.2891Z" fill="#3CACE4"/>
<path d="M17.6445 20.7427H18.4185V19.9688H17.6445V20.7427Z" fill="#3CACE4"/>
<path d="M21.5161 17.6445H20.7422V18.4197H21.5161V17.6445Z" fill="#3CACE4"/>
<path d="M19.9673 17.6445H19.1934V18.4197H19.9673V17.6445Z" fill="#3CACE4"/>
<path d="M17.6445 18.4197H18.4185V17.6445H17.6445V18.4197Z" fill="#3CACE4"/>
<path d="M19.9673 19.9688H19.1934V20.7427H19.9673V19.9688Z" fill="#3CACE4"/>
</g>
</g>
<defs>
<clipPath id="clip0_1460_459">
<rect width="24" height="24" fill="white" transform="translate(13 13)"/>
</clipPath>
</defs>
</svg>
