<svg width="50" height="50" viewBox="0 0 50 50" fill="none" xmlns="http://www.w3.org/2000/svg">
<circle cx="25" cy="25" r="25" fill="#DBEBF8"/>
<path d="M25.0093 13C24.9959 12.9999 24.9826 13.0004 24.9693 13.0016C24.9121 13.0059 24.8566 13.0223 24.8063 13.05C24.7561 13.0776 24.7124 13.1156 24.6782 13.1616L23.4785 14.7615C23.4269 14.8303 23.3988 14.9139 23.3985 14.9999V15.4655C22.531 15.7747 21.7598 16.3059 21.1615 17.0061H18.2734C18.2274 16.998 18.1803 16.998 18.1342 17.0061H18.1095V17.0109C18.0205 17.0316 17.9413 17.082 17.885 17.1539C17.8287 17.2258 17.7987 17.3148 17.7999 17.4061C17.8004 17.6169 17.7453 17.8242 17.6401 18.0068C17.5349 18.1895 17.3834 18.3412 17.2009 18.4467C17.0183 18.5521 16.8112 18.6074 16.6005 18.6072C16.3897 18.6069 16.1827 18.5511 16.0004 18.4453C15.8178 18.34 15.6662 18.1884 15.5609 18.0058C15.4556 17.8233 15.4003 17.6161 15.4006 17.4053C15.4013 17.3518 15.3913 17.2986 15.3712 17.249C15.351 17.1994 15.3211 17.1544 15.2832 17.1166C15.2453 17.0787 15.2002 17.0489 15.1506 17.0289C15.1009 17.0088 15.0478 16.9989 14.9943 16.9998C14.9417 17.0006 14.8899 17.0118 14.8417 17.0326C14.7935 17.0535 14.7499 17.0837 14.7133 17.1214C14.6768 17.1591 14.6481 17.2037 14.6287 17.2526C14.6094 17.3014 14.5999 17.3536 14.6008 17.4061C14.6008 18.0565 14.9287 18.6508 15.4533 19.0228L13.0268 25.9599C13.0013 26.0261 12.9938 26.0979 13.0052 26.1679C13.0035 26.1804 13.0024 26.193 13.002 26.2055C13.002 27.1602 13.3812 28.0759 14.0561 28.7509C14.7311 29.426 15.6465 29.8053 16.601 29.8053C17.5556 29.8053 18.471 29.426 19.146 28.7509C19.8209 28.0759 20.2001 27.1602 20.2001 26.2055C20.1999 26.1956 20.1994 26.1858 20.1985 26.1759C20.2119 26.1035 20.2049 26.0287 20.1785 25.9599L17.7503 19.0212C18.1622 18.7276 18.4454 18.2973 18.5469 17.8053H23.3985V18.9996C23.3985 19.1057 23.4406 19.2074 23.5156 19.2824C23.5906 19.3574 23.6923 19.3996 23.7984 19.3996H23.8016V33.0987C22.5523 33.2994 21.4702 33.817 20.8088 34.6002H18.9996C18.8936 34.6002 18.7918 34.6423 18.7169 34.7173C18.6419 34.7923 18.5997 34.8941 18.5997 35.0001V36.6C18.5997 36.7061 18.6419 36.8078 18.7169 36.8829C18.7918 36.9579 18.8936 37 18.9996 37H31.0013C31.1074 37 31.2091 36.9579 31.2841 36.8829C31.3591 36.8078 31.4012 36.7061 31.4012 36.6V35.0001C31.4012 34.8941 31.3591 34.7923 31.2841 34.7173C31.2091 34.6423 31.1074 34.6002 31.0013 34.6002H29.197C28.5316 33.813 27.4454 33.2946 26.201 33.0939V19.3996C26.3065 19.3987 26.4074 19.3562 26.4817 19.2813C26.556 19.2064 26.5977 19.1051 26.5977 18.9996V17.8061H31.4492C31.5516 18.2981 31.8347 18.7308 32.2474 19.0244L29.8216 25.9599C29.7961 26.0261 29.7887 26.0979 29.8 26.1679C29.7984 26.1804 29.7973 26.193 29.7968 26.2055C29.7968 27.1602 30.176 28.0759 30.851 28.7509C31.5259 29.426 32.4414 29.8053 33.3959 29.8053C34.3504 29.8053 35.2659 29.426 35.9408 28.7509C36.6158 28.0759 36.995 27.1602 36.995 26.2055C36.9948 26.1956 36.9943 26.1858 36.9934 26.1759C37.0067 26.1035 36.9998 26.0287 36.9734 25.9599L34.546 19.0236C34.8062 18.8414 35.0191 18.5996 35.1669 18.3184C35.3146 18.0371 35.393 17.7246 35.3954 17.4069C35.3962 17.3544 35.3867 17.3022 35.3674 17.2534C35.3481 17.2045 35.3193 17.1599 35.2828 17.1222C35.2463 17.0845 35.2026 17.0543 35.1544 17.0334C35.1062 17.0126 35.0544 17.0014 35.0019 17.0006C34.9483 16.9997 34.8951 17.0096 34.8454 17.0297C34.7957 17.0498 34.7506 17.0797 34.7127 17.1176C34.6748 17.1556 34.6449 17.2007 34.6248 17.2504C34.6046 17.3001 34.5947 17.3533 34.5956 17.4069C34.5961 17.6177 34.5409 17.825 34.4358 18.0076C34.3306 18.1903 34.1791 18.342 33.9965 18.4475C33.814 18.5529 33.6069 18.6082 33.3961 18.608C33.1853 18.6077 32.9784 18.5519 32.7961 18.4461C32.6135 18.3408 32.4619 18.1892 32.3565 18.0066C32.2512 17.8241 32.1959 17.6169 32.1962 17.4061C32.1974 17.3152 32.1675 17.2265 32.1115 17.1548C32.0555 17.0831 31.9768 17.0327 31.8883 17.0117V17.0069H31.8619C31.8159 16.9988 31.7688 16.9988 31.7227 17.0069H28.8251C28.2252 16.3182 27.4581 15.7956 26.5977 15.4895V14.9999C26.5975 14.9136 26.5694 14.8297 26.5177 14.7607L25.318 13.1608C25.282 13.1125 25.2355 13.0729 25.182 13.0451C25.1286 13.0172 25.0695 13.0018 25.0093 13ZM24.9981 14.0671L25.7979 15.1343V18.5996H24.1983V15.1343L24.9981 14.0671ZM23.3985 16.3278V17.0061H22.2972C22.6299 16.7262 23.0002 16.4998 23.3985 16.3278ZM26.5977 16.347C26.9888 16.515 27.3511 16.7358 27.6806 17.0061H26.5977V16.347ZM16.6002 17.0045C16.4942 17.0045 16.3925 17.0467 16.3175 17.1217C16.2425 17.1967 16.2003 17.2984 16.2003 17.4045C16.2003 17.5106 16.2425 17.6123 16.3175 17.6873C16.3925 17.7624 16.4942 17.8045 16.6002 17.8045C16.7063 17.8045 16.808 17.7624 16.883 17.6873C16.958 17.6123 17.0001 17.5106 17.0001 17.4045C17.0001 17.2984 16.958 17.1967 16.883 17.1217C16.808 17.0467 16.7063 17.0045 16.6002 17.0045ZM33.3959 17.0061C33.2898 17.0061 33.1881 17.0483 33.1131 17.1233C33.0381 17.1983 32.996 17.3 32.996 17.4061C32.996 17.5122 33.0381 17.6139 33.1131 17.6889C33.1881 17.764 33.2898 17.8061 33.3959 17.8061C33.502 17.8061 33.6037 17.764 33.6787 17.6889C33.7537 17.6139 33.7958 17.5122 33.7958 17.4061C33.7958 17.3 33.7537 17.1983 33.6787 17.1233C33.6037 17.0483 33.502 17.0061 33.3959 17.0061ZM16.186 19.35C16.4611 19.4076 16.7426 19.4084 17.0177 19.35L19.2764 25.8056H13.9273L16.186 19.35ZM32.9816 19.3508C33.2567 19.4092 33.5399 19.41 33.8142 19.3508L36.072 25.8056H30.723L32.9816 19.3508ZM24.6014 19.3996H25.4012V33.0003H24.6014V19.3996ZM13.9081 26.6055H19.2915C19.1644 27.4374 18.7429 28.2014 17.9999 28.6302C17.5744 28.8761 17.0917 29.0055 16.6002 29.0055C16.1088 29.0055 15.6261 28.8761 15.2006 28.6302C14.4576 28.2014 14.0361 27.4382 13.9089 26.6055H13.9081ZM30.7038 26.6055H36.0872C35.96 27.4374 35.5386 28.2014 34.7955 28.6302C34.3701 28.8761 33.8873 29.0055 33.3959 29.0055C32.9045 29.0055 32.4218 28.8761 31.9963 28.6302C31.2533 28.2014 30.8318 27.4382 30.7046 26.6055H30.7038ZM24.9245 33.8002C26.1194 33.7866 27.2359 34.1066 27.9909 34.6002H22.0172C22.7395 34.1306 23.7832 33.813 24.9245 33.8002ZM19.3995 35.4001H30.6014V36.2001H19.3995V35.4001Z" fill="#1E4397"/>
</svg>
