<svg width="50" height="50" viewBox="0 0 50 50" fill="none" xmlns="http://www.w3.org/2000/svg">
<circle cx="25" cy="25" r="25" fill="#DBEBF8"/>
<path d="M14.9243 22.7888C14.852 21.189 14.8889 19.4468 14.9304 17.5285C14.9566 16.3175 14.9843 15.0331 14.9843 13.5312C14.9843 13.2373 15.2165 13 15.5026 13C15.6534 13 15.7903 13.0674 15.8856 13.173C17.5177 14.6932 19.1358 15.35 20.7432 15.2979C22.3753 15.2459 24.0273 14.4651 25.6931 13.1164C25.8869 12.9587 26.1546 12.9679 26.3376 13.1209C27.9743 14.4452 29.597 15.0652 31.2106 15.0423C32.8319 15.0208 34.4669 14.3533 36.1143 13.1056C36.3435 12.9311 36.6666 12.9801 36.8358 13.2159C36.905 13.3108 36.9373 13.421 36.9373 13.5312H36.9388C36.9388 14.7744 36.9557 15.7878 36.9696 16.7676C37.1111 25.8889 37.2095 32.2408 26.2115 36.9591C26.0761 37.0173 25.93 37.0112 25.8039 36.9546V36.9561C22.5768 35.4986 19.5604 33.6998 17.6192 31.2426C17.3869 31.6208 16.9716 31.8642 16.5071 31.8642H14.3028C13.5845 31.8642 13 31.2824 13 30.5675V24.087C13 23.3721 13.5845 22.7888 14.3028 22.7888H14.9243ZM33.3748 17.2055C33.3748 16.9115 33.6132 16.6742 33.9086 16.6742C34.2039 16.6742 34.4423 16.9115 34.4423 17.2055C34.4423 17.2483 34.45 17.354 34.4623 17.5132C34.5838 19.2554 35.0991 26.5886 32.1597 30.001C31.9689 30.2246 31.6321 30.2506 31.409 30.0592C31.186 29.8694 31.1598 29.5341 31.3506 29.3121C34.0055 26.2288 33.5148 19.2432 33.3979 17.5836C33.3841 17.3892 33.3748 17.2591 33.3748 17.2055ZM17.6561 29.8173C17.6638 29.8189 17.6715 29.8204 17.6792 29.8204C18.1775 29.8923 18.8174 29.8954 19.3512 29.8602C19.5019 29.851 19.6557 29.9031 19.768 30.0194C21.377 31.6575 23.6842 31.4508 25.9854 31.2442C26.3069 31.2151 26.6283 31.186 26.8483 31.1676C27.2082 31.0145 27.4697 30.8492 27.5436 30.6593C27.6159 30.4726 27.5143 30.1802 27.1544 29.7331C26.8991 29.4208 27.0636 28.9478 27.4667 28.8727C27.8004 28.81 28.085 28.4655 27.9343 28.167C27.8804 28.0598 27.7728 27.9542 27.5974 27.8608C27.1098 27.6174 27.2344 26.9514 27.7189 26.8565C28.3511 26.734 28.5019 26.1951 27.7804 26.0329C27.5436 25.9793 27.3667 25.7695 27.3651 25.5185C27.3651 25.2261 27.602 24.9872 27.8958 24.9857C28.5634 24.9826 29.0679 24.7836 29.0402 24.3871C29.0325 24.2968 29.0018 24.2064 28.9479 24.1238C28.8064 23.9018 28.5218 23.7395 28.1542 23.7701C27.4251 23.9293 26.6822 24.0595 25.9362 24.1559C25.2024 24.2508 24.4656 24.3121 23.7365 24.335C23.5474 24.3412 23.3628 24.2478 23.2597 24.0748C23.112 23.8222 23.1966 23.4976 23.4504 23.3491C24.8256 22.5454 25.1748 20.9716 25.1609 19.3702C25.1609 19.3687 25.1609 19.3672 25.1609 19.3641C25.1624 18.9416 24.9363 18.7073 24.5918 18.6752C24.4856 18.666 24.3764 18.6782 24.2734 18.7119C24.1119 18.7655 23.9796 18.8757 23.9396 19.0349C23.7981 20.1296 22.9428 21.734 21.8738 22.9679C20.9294 24.0549 19.7911 24.8816 18.7559 24.8969C18.7267 24.8984 18.6944 24.8984 18.6636 24.8954C18.4221 24.8693 18.196 24.8571 17.9853 24.8602C17.7791 24.8617 17.5792 24.8739 17.3869 24.8984C17.3515 24.9061 17.3146 24.9107 17.2762 24.9107C16.9808 24.9107 16.7424 24.6719 16.7424 24.3794V24.087C16.7424 23.9584 16.6363 23.8528 16.5071 23.8528H14.3028C14.1752 23.8528 14.0675 23.9584 14.0675 24.087V30.5675C14.0675 30.6946 14.1752 30.8017 14.3028 30.8017H16.5071C16.6363 30.8017 16.7424 30.6946 16.7424 30.5675V30.295H16.7439C16.7439 30.2628 16.747 30.2322 16.7532 30.2016C16.8039 29.9138 17.0808 29.7209 17.37 29.7729C17.4623 29.7898 17.5576 29.8051 17.6561 29.8173ZM18.7251 30.9426C20.511 33.0155 23.172 34.5893 26.0177 35.8906C36.1636 31.4585 36.0713 25.4235 35.9375 16.7845C35.9267 16.0328 35.9144 15.2627 35.9082 14.534C32.5873 16.6926 29.2556 16.6635 26.0131 14.1987C24.2811 15.5322 22.5337 16.3007 20.7709 16.3573C19.1774 16.4079 17.59 15.8766 16.0133 14.6565C16.0041 15.6301 15.9825 16.6099 15.9625 17.5484C15.921 19.459 15.8841 21.1936 15.9595 22.7888H16.5071C17.1223 22.7888 17.6484 23.219 17.7791 23.8053C17.8438 23.8023 17.9099 23.8008 17.976 23.8008C18.2314 23.7977 18.4898 23.8099 18.7544 23.8375C19.445 23.8207 20.3064 23.1532 21.0678 22.2744C22.0169 21.1813 22.7675 19.7989 22.8813 18.8941C22.8844 18.8681 22.8905 18.8421 22.8967 18.8191C23.0198 18.248 23.4366 17.8684 23.9396 17.703C24.4226 17.5453 24.9856 17.5943 25.427 17.8577C25.89 18.1332 26.2269 18.6293 26.2253 19.3626C26.2376 20.7787 25.9823 22.1351 25.2101 23.1746C26.1361 23.0797 27.056 22.9281 27.9619 22.7276C27.9835 22.723 28.0035 22.7199 28.0235 22.7184V22.7168C28.8449 22.6311 29.5048 23.0215 29.8462 23.5558C30.1493 24.0319 30.2062 24.6213 29.9247 25.1235C29.7724 25.3914 29.5247 25.6302 29.1679 25.7956C29.4909 26.3942 29.2986 27.0907 28.7803 27.5117C29.2709 28.2252 29.0325 29.1315 28.3588 29.6168C28.6603 30.1618 28.6941 30.6272 28.5357 31.0375C28.3327 31.5657 27.8281 31.9178 27.1759 32.1826C27.119 32.2056 27.0621 32.2178 27.0037 32.2209C26.6007 32.2515 26.3407 32.2745 26.0807 32.299C23.6043 32.521 21.1216 32.7445 19.182 30.9319C19.0266 30.9395 18.8743 30.9426 18.7251 30.9426Z" fill="#1E4397"/>
</svg>
