<svg width="50" height="50" viewBox="0 0 50 50" fill="none" xmlns="http://www.w3.org/2000/svg">
<circle cx="25" cy="25" r="25" fill="#DBEBF8"/>
<g clip-path="url(#clip0_1460_422)">
<path d="M27.303 14.9007C27.3448 14.9007 27.3843 14.908 27.4217 14.9202C27.5997 14.9714 27.7315 15.1517 27.7315 15.3661V21.1462L32.2209 16.1678C32.3725 15.9997 32.5681 15.9193 32.7658 15.9193C32.9614 15.9193 33.1592 15.9997 33.3108 16.1678L34.86 17.8858C34.9325 17.9662 34.9501 18.1027 34.893 18.2099C34.7128 18.5267 34.6469 18.9019 34.6842 19.2626C34.7238 19.611 34.8644 19.9546 35.1105 20.2275C35.3522 20.5005 35.6599 20.6564 35.9807 20.7003C36.3015 20.7441 36.6312 20.6686 36.919 20.4834C37.0135 20.4152 37.1432 20.42 37.2267 20.5151L38.7759 22.233C38.9275 22.4012 39 22.618 39 22.8373C39 23.0542 38.9275 23.2735 38.7759 23.4417L27.7315 35.689V36.5394C27.7315 36.7929 27.5447 37 27.3162 37H13.191C12.8636 37 12.5669 36.8514 12.3516 36.6126C12.134 36.3713 12 36.0399 12 35.6768V14.2501C12 14.1745 12.0154 14.1039 12.0461 14.0405C12.1055 13.7993 12.2197 13.5848 12.3736 13.4143C12.6043 13.1584 12.9229 13 13.2723 13H27.303C27.5315 13 27.7183 13.2071 27.7183 13.4606C27.7183 13.714 27.5315 13.9211 27.303 13.9211H13.2723C13.1515 13.9211 13.0416 13.9772 12.9603 14.0649C12.8812 14.155 12.8306 14.2769 12.8306 14.4109C12.8306 14.5449 12.8812 14.6668 12.9603 14.7569C13.0416 14.8471 13.1515 14.9007 13.2723 14.9007H27.303ZM27.7315 21.9065V24.6016C27.7908 24.6138 27.859 24.6308 27.9381 24.6528L28.3204 24.2288L28.672 24.6186L28.5094 24.799L28.9291 24.9086L29.3576 24.4334L29.7114 24.8258L29.5026 25.0573L30.0366 25.1937L30.9354 24.1971C31.0606 24.0582 31.3024 24.0947 31.4694 24.2799C31.6364 24.4651 31.6715 24.7332 31.5441 24.8721L30.6453 25.8687L30.7684 26.456L30.9749 26.2269L31.3287 26.6193L30.9024 27.092L30.9991 27.5574L31.1595 27.3795L31.5133 27.7719L31.1331 28.1934L31.1353 28.2032C31.3177 29.0902 31.1551 28.8124 30.5486 29.4849L29.6697 26.9555L28.7995 27.9205C28.8588 28.3884 28.8852 28.7636 28.5533 29.1316L28.182 28.7295C28.1534 28.5321 28.1402 28.3908 28.1248 28.2885C28.0699 28.2592 28.015 28.2178 27.9666 28.1666C27.9249 28.1203 27.8897 28.0667 27.8655 28.0131C27.8282 28.0082 27.782 28.0034 27.7315 27.996V32.141L28.995 33.5422L36.1719 25.5812L30.2959 19.0627L27.7315 21.9065ZM27.7315 25.703V27.1748C27.8743 27.17 28.0238 27.1992 28.193 27.2358L29.061 26.2732L27.7315 25.703ZM27.7315 32.8769V34.9409L28.6632 33.9077L27.7315 32.8769ZM36.5059 25.2132L30.6277 18.6948L32.5637 16.548C32.6208 16.4846 32.6933 16.4554 32.7724 16.4554C32.845 16.4554 32.9241 16.4871 32.9812 16.548L34.4007 18.1221C34.2381 18.5023 34.1766 18.919 34.2206 19.3308C34.3832 20.8319 35.8203 21.6726 37.0267 21.0366L38.4462 22.6107C38.5034 22.6741 38.5297 22.7545 38.5297 22.8422C38.5297 22.9226 38.5012 23.0104 38.4462 23.0737L38.4397 23.0664L36.5059 25.2132ZM23.4135 25.6177C23.4267 25.6177 23.4399 25.6177 23.4509 25.6202C23.5344 25.4593 23.6091 25.2888 23.6794 25.1109C23.6816 25.1084 23.6816 25.106 23.6838 25.1011C23.7871 24.8306 23.8662 24.548 23.9167 24.2556C23.9563 24.0289 23.9849 23.7999 23.9915 23.5611H22.7587C22.7367 24.2556 22.5499 24.9403 22.2027 25.6129H23.4113V25.6177H23.4135ZM23.1982 26.0539H21.9588C21.5831 26.6607 21.0732 27.2553 20.4382 27.8474C20.5371 27.8328 20.6382 27.8157 20.7348 27.7938C21.0007 27.7353 21.2578 27.6476 21.5039 27.5282C21.7545 27.4088 21.9874 27.2699 22.2071 27.1066C22.4247 26.9458 22.6246 26.763 22.8092 26.5583C22.9521 26.3999 23.0839 26.2342 23.2026 26.0539H23.1982ZM19.3812 27.845C18.7462 27.2553 18.2385 26.6582 17.8606 26.0515H16.6212C16.7399 26.2294 16.8717 26.3975 17.0146 26.5559C17.2014 26.7606 17.3991 26.9433 17.6167 27.1042C17.832 27.265 18.0649 27.4063 18.3198 27.5257C18.322 27.5282 18.3242 27.5282 18.3286 27.5306C18.5726 27.6451 18.8275 27.7329 19.0912 27.7914C19.1878 27.8133 19.2867 27.8303 19.3878 27.845H19.3812ZM16.3619 25.6177H17.6101C17.2629 24.9427 17.0739 24.258 17.0541 23.5659H15.8214C15.8323 23.8048 15.8565 24.0338 15.8961 24.2604C15.9488 24.5553 16.0279 24.8404 16.1356 25.1133C16.2037 25.2888 16.2784 25.4569 16.3619 25.6177ZM15.8214 23.1298H17.0607C17.1069 22.4499 17.3112 21.7652 17.6738 21.078H16.3597C16.2762 21.2388 16.2015 21.4069 16.1334 21.5824C16.1312 21.5848 16.1312 21.5873 16.129 21.5921C16.0257 21.8626 15.9466 22.1453 15.8961 22.4377C15.8565 22.6595 15.8301 22.891 15.8214 23.1298ZM16.619 20.6394H17.9287C18.3023 20.0423 18.7945 19.4429 19.4076 18.841C19.2977 18.8556 19.19 18.8727 19.0846 18.897C18.8187 18.9555 18.5616 19.0433 18.3155 19.1627C18.0649 19.2821 17.832 19.4234 17.6123 19.5842C17.3947 19.7451 17.1948 19.9278 17.0102 20.1325C16.8673 20.2909 16.7355 20.4566 16.6168 20.6369L16.619 20.6394ZM20.4096 18.841C21.0249 19.4429 21.5171 20.0423 21.8885 20.6394H23.1982C23.0795 20.4615 22.9477 20.2933 22.8048 20.1349C22.6181 19.9302 22.4203 19.7475 22.2027 19.5867C21.9874 19.4258 21.7545 19.2845 21.4996 19.1651C21.4974 19.1627 21.4952 19.1627 21.4908 19.1602C21.2468 19.0457 20.9919 18.958 20.7282 18.8995C20.6206 18.8751 20.5129 18.8581 20.4052 18.8434V18.841H20.4096ZM23.4553 21.0755H22.1412C22.5038 21.7652 22.7081 22.4475 22.7543 23.1273H23.9937C23.9827 22.8885 23.9585 22.6595 23.9189 22.4328C23.8662 22.138 23.7871 21.8529 23.6794 21.58C23.6135 21.4045 23.5388 21.2364 23.4553 21.0755ZM19.0076 18.4706C19.2977 18.4048 19.5988 18.3731 19.9086 18.3731C20.2184 18.3731 20.5173 18.4048 20.8096 18.4706C21.0974 18.534 21.3743 18.629 21.6468 18.7581C21.649 18.7581 21.6556 18.7606 21.6578 18.763C21.9259 18.8922 22.183 19.0457 22.4225 19.2236C22.662 19.399 22.8817 19.6037 23.0839 19.8255C23.2883 20.0496 23.4685 20.2933 23.6267 20.5589C23.7871 20.8246 23.9255 21.1072 24.042 21.4069C24.1607 21.7115 24.2464 22.0235 24.3057 22.3475C24.365 22.6692 24.3936 23.003 24.3936 23.3466C24.3936 23.6902 24.365 24.0216 24.3057 24.3457C24.2486 24.6649 24.1629 24.972 24.0464 25.2741C24.0464 25.2766 24.0442 25.2839 24.042 25.2863C23.9255 25.5885 23.7871 25.8687 23.6267 26.1343C23.4685 26.3999 23.2839 26.6436 23.0839 26.8678C22.8817 27.0944 22.662 27.2942 22.4225 27.4697C22.183 27.6476 21.9281 27.8011 21.6578 27.9302C21.3831 28.0618 21.1018 28.1569 20.8096 28.2227C20.5195 28.2885 20.2184 28.3201 19.9086 28.3201C19.5988 28.3201 19.2999 28.2885 19.0076 28.2227C18.7198 28.1593 18.4429 28.0643 18.1704 27.9351C18.1682 27.9351 18.1616 27.9327 18.1594 27.9302C17.8913 27.8011 17.6342 27.6476 17.3947 27.4697C17.1552 27.2942 16.9355 27.0896 16.7333 26.8678C16.5289 26.6436 16.3487 26.3999 16.1905 26.1343C16.0301 25.8687 15.8917 25.586 15.7752 25.2863C15.6565 24.9817 15.5708 24.6698 15.5115 24.3457C15.4522 24.0241 15.4236 23.6902 15.4236 23.3466C15.4236 23.003 15.4522 22.6716 15.5115 22.3475C15.5686 22.0283 15.6543 21.7213 15.7708 21.4191C15.7708 21.4167 15.773 21.4094 15.7752 21.4069C15.8917 21.1048 16.0301 20.8246 16.1905 20.5589C16.3487 20.2933 16.5311 20.0496 16.7333 19.8255C16.9355 19.5988 17.1552 19.399 17.3947 19.2236C17.6342 19.0457 17.8892 18.8922 18.1594 18.763C18.4341 18.6314 18.7176 18.5364 19.0076 18.4706ZM20.1042 19.1237V20.6394H21.4073C21.0645 20.1398 20.6316 19.6354 20.1042 19.1237ZM20.1042 21.0755V23.1273H22.361C22.3104 22.4523 22.0841 21.77 21.6797 21.0755H20.1042ZM20.1042 23.5635V25.6153H21.7479C22.139 24.9354 22.3456 24.2507 22.3697 23.5635H20.1042ZM20.1042 26.0539V27.5867C20.6601 27.0798 21.1194 26.5656 21.4732 26.0539H20.1042ZM19.713 27.5867V26.0539H18.344C18.6956 26.5656 19.1527 27.0798 19.713 27.5867ZM19.713 25.6177V23.5659H17.4475C17.4716 24.2556 17.6804 24.9379 18.0693 25.6177H19.713ZM19.713 23.1298V21.078H18.1353C17.7309 21.7725 17.5046 22.4572 17.4541 23.1298H19.713ZM19.713 20.6394V19.1237C19.1856 19.633 18.7527 20.1374 18.4099 20.6394H19.713ZM16.964 33.8638C16.7355 33.8638 16.5487 33.6567 16.5487 33.4033C16.5487 33.1499 16.7355 32.9427 16.964 32.9427H22.7543C22.9828 32.9427 23.1696 33.1499 23.1696 33.4033C23.1696 33.6567 22.9828 33.8638 22.7543 33.8638H16.964ZM15.2742 31.4514C15.0457 31.4514 14.8589 31.2443 14.8589 30.9909C14.8589 30.7374 15.0457 30.5303 15.2742 30.5303H24.4463C24.6749 30.5303 24.8616 30.7374 24.8616 30.9909C24.8616 31.2443 24.6749 31.4514 24.4463 31.4514H15.2742ZM26.9009 15.8218H13.2723C13.1163 15.8218 12.9669 15.7901 12.8306 15.7341V35.6768C12.8306 35.7865 12.8724 35.8864 12.9361 35.9595C13.002 36.0326 13.0921 36.0765 13.191 36.0765H26.9009V15.8218Z" fill="#1E4397"/>
</g>
<defs>
<clipPath id="clip0_1460_422">
<rect width="27" height="24" fill="white" transform="translate(12 13)"/>
</clipPath>
</defs>
</svg>
