<svg width="50" height="50" viewBox="0 0 50 50" fill="none" xmlns="http://www.w3.org/2000/svg">
<circle cx="25" cy="25" r="25" fill="#DBEBF8"/>
<path fill-rule="evenodd" clip-rule="evenodd" d="M24.2527 23.5555H19.4988C19.2896 23.5555 19.1201 23.3848 19.1201 23.1744C19.1201 22.9634 19.2893 22.7929 19.4988 22.7929H24.2527C24.4618 22.7929 24.6313 22.9634 24.6313 23.1744C24.6313 23.3848 24.4618 23.5555 24.2527 23.5555ZM35.4488 33.9912L29.5042 28.008L30.2926 27.215L36.2372 33.1975L35.4488 33.9912ZM24.3205 26.5655L27.0935 29.3563L31.6319 24.7889L28.8592 21.9981L24.3205 26.5655ZM27.404 30.944L26.7954 31.5562C26.4951 31.8584 26.0069 31.8584 25.7067 31.5562L22.1347 27.9611C21.835 27.6598 21.8356 27.1668 22.1347 26.8656L22.7436 26.253C22.7966 26.1993 22.8853 26.1993 22.9385 26.253L27.404 30.747C27.457 30.8004 27.457 30.8903 27.404 30.944ZM13.336 30.7598H23.8441L21.5989 28.5005C21.0033 27.9007 21.0036 26.9262 21.5989 26.3265L22.2079 25.7136C22.5566 25.3624 23.1253 25.3627 23.4742 25.7136L23.7848 26.0262L26.5659 23.2271V14.3449C26.5659 14.0236 26.3066 13.7623 25.9875 13.7623H15.7954V15.4755C15.7954 16.2174 15.1961 16.8205 14.4594 16.8205H12.7576V30.1777C12.7576 30.4985 13.0169 30.7598 13.336 30.7598ZM15.0381 14.3016V15.4752C15.0381 15.7966 14.7784 16.0579 14.4594 16.0579H13.2933L15.0381 14.3016ZM28.5484 20.4107L29.1573 19.7982C29.4573 19.4957 29.9455 19.4957 30.2457 19.7982L33.8177 23.3927C34.1171 23.6942 34.1174 24.187 33.8177 24.4882L33.2091 25.1014C33.1561 25.1541 33.0668 25.1541 33.0139 25.1014L28.5487 20.6068C28.4954 20.5534 28.4954 20.4638 28.5484 20.4107ZM36.7823 32.6679L30.8283 26.6756L32.1676 25.3276C32.4651 25.627 32.6676 25.9039 33.1116 25.9039C33.3407 25.9039 33.5702 25.8158 33.7448 25.6401L34.3534 25.0273C34.9491 24.4285 34.9488 23.4534 34.3534 22.8539L30.7814 19.2588C30.1861 18.6596 29.2173 18.6596 28.6216 19.2588L28.013 19.8713C27.6634 20.2226 27.6637 20.7949 28.013 21.1462L28.3235 21.4587L27.3238 22.4646V14.3449C27.3238 13.6034 26.7242 13 25.9875 13H15.4168C15.3163 13 15.22 13.0402 15.1489 13.1119L12.1108 16.1692C12.0396 16.2408 12 16.3381 12 16.439V30.1777C12 30.9193 12.5993 31.5221 13.336 31.5221H24.6017L25.1713 32.0956C25.7663 32.6944 26.7357 32.6944 27.3311 32.0956L27.9397 31.4827C28.2887 31.1312 28.2887 30.5592 27.9397 30.2082L27.6292 29.8957L28.9685 28.5474L34.9224 34.5397C35.213 34.8321 35.6849 34.8321 35.9748 34.5397L36.7823 33.7275C37.0726 33.4354 37.0726 32.9603 36.7823 32.6679ZM17.9667 25.806L16.2179 28.051C16.0853 28.2206 15.8402 28.2456 15.677 28.1084L14.5236 27.1391C14.3632 27.004 14.3417 26.7631 14.4758 26.6015C14.6099 26.4399 14.849 26.4189 15.0094 26.5533L15.8626 27.2708L17.3704 25.3355C17.4994 25.1697 17.7376 25.1407 17.9022 25.2709C18.0669 25.4008 18.0956 25.6408 17.9667 25.806ZM17.9667 21.6965L16.2179 23.9412C16.0853 24.1114 15.8411 24.1367 15.677 23.9988L14.5236 23.0296C14.3632 22.8948 14.3417 22.6542 14.4758 22.4926C14.6099 22.331 14.849 22.3097 15.0094 22.4444L15.8626 23.1616L17.3704 21.2266C17.4994 21.0608 17.7376 21.0318 17.9022 21.1614C18.0669 21.2913 18.0956 21.5312 17.9667 21.6965ZM19.1201 18.9417C19.1201 18.731 19.2896 18.5603 19.4988 18.5603H24.2527C24.4618 18.5603 24.6313 18.731 24.6313 18.9417C24.6313 19.1527 24.4618 19.3228 24.2527 19.3228H19.4988C19.2896 19.3228 19.1201 19.1527 19.1201 18.9417ZM17.9667 17.5873L16.2179 19.832C16.0856 20.0018 15.8402 20.0268 15.677 19.8896L14.5236 18.9203C14.3632 18.7856 14.3417 18.545 14.4758 18.3834C14.6099 18.2218 14.849 18.1999 15.0094 18.3349L15.8626 19.0524L17.3704 17.1171C17.4997 16.9516 17.7376 16.9226 17.9022 17.0522C18.0669 17.1824 18.0956 17.4217 17.9667 17.5873ZM27.0895 36.2371H15.3402V35.1511C15.3402 34.862 15.5732 34.6278 15.8599 34.6278H26.5702C26.8565 34.6278 27.0895 34.862 27.0895 35.1511V36.2371ZM18.0805 33.5058C18.0805 33.4229 18.1498 33.353 18.2318 33.353H24.1979C24.2799 33.353 24.3492 33.4229 24.3492 33.5058V33.8656H18.0805V33.5058ZM26.5699 33.8656C27.2742 33.8656 27.8471 34.4418 27.8471 35.1511V36.6186C27.8471 36.8289 27.6776 37 27.4682 37H14.9616C14.7521 37 14.5826 36.8289 14.5826 36.6186V35.1511C14.5826 34.4418 15.1556 33.8656 15.8599 33.8656H17.3229V33.5058C17.3229 33.0012 17.7306 32.5908 18.2318 32.5908H24.1979C24.6991 32.5908 25.1068 33.0012 25.1068 33.5058V33.8656H26.5699Z" fill="#1F4497"/>
</svg>
