<svg width="62" height="60" viewBox="0 0 62 60" fill="none" xmlns="http://www.w3.org/2000/svg">
<path d="M61.3122 8.43309L55.76 0.453994C55.5622 0.169597 55.2362 0 54.8882 0H32.4464C32.0984 0 31.7724 0.169715 31.5746 0.453994L26.0227 8.43309C25.7615 8.80827 25.7734 9.30782 26.0521 9.67033L40.7773 28.8328C40.7606 28.8319 40.7442 28.8303 40.7273 28.8303H35.5364C35.0973 28.8303 34.7034 29.0995 34.5467 29.5069L31.4792 37.476C31.433 37.5961 31.4093 37.7235 31.4093 37.8521V46.6432H27.5146C27.1551 46.6432 26.8201 46.8242 26.6248 47.124L24.3426 50.628H5.21726C3.95734 50.628 2.77273 51.1155 1.88179 52.0005C0.990741 52.8859 0.5 54.0626 0.5 55.314C0.5 57.8979 2.61618 60 5.21726 60H54.8849C55.4702 60 55.9446 59.5287 55.9446 58.9473V47.696V37.8528C55.9446 37.7242 55.9209 37.5969 55.8747 37.4768L52.8072 29.5071C52.6504 29.0996 52.2565 28.8305 51.8172 28.8305H46.6259C46.6025 28.8305 46.5797 28.8325 46.5567 28.8341L61.2827 9.67033C61.5612 9.30782 61.5731 8.80827 61.3122 8.43309ZM31.4092 57.8944H30.1532V55.7892C30.1532 55.2079 29.6789 54.7365 29.0934 54.7365C28.5081 54.7365 28.0338 55.2077 28.0338 55.7892V57.8944H26.3384V55.7892C26.3384 55.2079 25.8641 54.7365 25.2786 54.7365C24.6933 54.7365 24.2189 55.2077 24.2189 55.7892V57.8944H22.5236V55.7892C22.5236 55.2079 22.0493 54.7365 21.4639 54.7365C20.8785 54.7365 20.4042 55.2077 20.4042 55.7892V57.8944H5.21726C3.78483 57.8945 2.61939 56.7371 2.61939 55.314C2.61939 54.6249 2.88972 53.9769 3.38023 53.4894C3.87109 53.0019 4.52338 52.7335 5.21714 52.7335H24.9188C25.2783 52.7335 25.6133 52.5524 25.8086 52.2526L28.0908 48.7486H31.4092V57.8944ZM39.6675 57.8945H33.5285V38.0466L36.2657 30.9357H39.6675V57.8945ZM52.9245 2.10534L49.5554 7.20142L45.7072 2.10534H52.9245ZM47.4936 7.97922H39.6824L43.5881 2.80716L47.4936 7.97922ZM48.2292 10.0846L45.1726 21.303C44.1557 21.1468 43.1127 21.1504 42.0974 21.3131L38.9572 10.0846H48.2292ZM41.4686 2.10511L37.6338 7.18343L34.3778 2.10523L41.4686 2.10511ZM32.4104 2.95581L35.6311 7.97922H28.9149L32.4104 2.95581ZM29.0366 10.0846H36.7571L40.0548 21.8757C39.5634 22.0705 39.0899 22.3048 38.6367 22.5776L29.0366 10.0846ZM46.6259 48.7485C47.2113 48.7486 47.6856 48.2773 47.6856 47.696V30.9357H51.0877L53.825 38.0471V47.6959V57.8945H52.6343V55.7893C52.6343 55.208 52.16 54.7366 51.5746 54.7366C50.9892 54.7366 50.5148 55.2079 50.5148 55.7893V57.8945H48.8195V55.7893C48.8195 55.208 48.3452 54.7366 47.7598 54.7366C47.1743 54.7366 46.7 55.2079 46.7 55.7893V57.8945H45.0047V55.7893C45.0047 55.208 44.5304 54.7366 43.9449 54.7366C43.3594 54.7366 42.8851 55.2079 42.8851 55.7893V57.8945H41.7864V48.7486L46.6259 48.7485ZM41.7869 46.6433V30.1469L42.825 31.4979C42.8638 31.5484 42.908 31.5938 42.9545 31.6359C43.1481 31.8112 43.401 31.9119 43.6672 31.9119C43.9976 31.9119 44.3091 31.7589 44.5096 31.498L45.5662 30.1231V46.6435H41.7869V46.6433ZM43.6674 29.1241L39.9315 24.2625C40.465 23.9633 41.032 23.7297 41.6269 23.5659C42.934 23.2059 44.348 23.2015 45.6577 23.5522C46.2708 23.7169 46.8543 23.9555 47.4028 24.2631L43.6674 29.1241ZM48.6979 22.5777C48.2259 22.2939 47.7319 22.0516 47.2185 21.852L50.4247 10.0846H58.298L48.6979 22.5777ZM51.5768 7.97922L54.9106 2.93629L58.4197 7.97922H51.5768Z" fill="#16346C"/>
</svg>
