<svg width="85" height="62" viewBox="0 0 85 62" fill="none" xmlns="http://www.w3.org/2000/svg">
<path d="M69.9503 14.438H35.2308L21.9639 27.0891L52.1675 59.6213L83.5003 27.3304L69.9511 14.438H69.9503Z" stroke="#16346C" stroke-width="2"/>
<path d="M21.9629 27.2273L83.2035 27.4248" stroke="#16346C" stroke-width="2"/>
<path d="M35.0752 14.6877L43.2664 27.4217" stroke="#16346C" stroke-width="2"/>
<path d="M42.8486 27.4347L52.2813 14.6133" stroke="#16346C" stroke-width="2"/>
<path d="M52.0576 14.6133L61.4903 27.2097" stroke="#16346C" stroke-width="2"/>
<path d="M61.7041 27.5238L70.0862 14.3884" stroke="#16346C" stroke-width="2"/>
<path d="M52.2822 14.8383V27.4347" stroke="#16346C" stroke-width="2"/>
<path d="M52.2383 27.1287V59.7198" stroke="#16346C" stroke-width="2"/>
<path d="M42.9678 27.2273L52.0409 59.2259" stroke="#16346C" stroke-width="2"/>
<path d="M61.705 27.3264L52.4355 59.325" stroke="#16346C" stroke-width="2"/>
<path d="M70.001 14.7516L73.4274 27.2594" stroke="#16346C" stroke-width="2"/>
<path d="M35.169 14.4561L31.4372 27.0602" stroke="#16346C" stroke-width="2"/>
<path d="M31.3311 27.0303L52.1395 59.2264" stroke="#16346C" stroke-width="2"/>
<path d="M73.6375 27.1285L52.1396 59.5221" stroke="#16346C" stroke-width="2"/>
<path d="M0.5 13.2274L4.92454 11.9305C8.56688 10.8629 11.4065 7.98607 12.4404 4.31601L13.6564 0L14.7646 4.19161C15.7695 7.99273 18.7042 10.9729 22.4747 12.0212L26.8127 13.2274L22.8227 14.18C18.8047 15.1393 15.6578 18.2775 14.671 22.3093L13.6564 26.4547L12.4139 21.9507C11.3384 18.0522 8.23436 15.0535 4.31705 14.1286L0.5 13.2274Z" fill="#16346C"/>
</svg>
