<svg width="448" height="345" viewBox="0 0 448 345" fill="none" xmlns="http://www.w3.org/2000/svg">
<path d="M265.866 270.031L234.524 257.951L193.586 191.046V153.877C202.58 132.918 226.895 87.9019 253.442 73.0343L288.178 69.0076L325.084 102.46L315.16 123.522L319.191 193.214L265.866 270.031Z" fill="white"/>
<path d="M253.442 73.0343C263.16 125.484 274.55 238.313 265.866 270.031M253.442 73.0343C226.895 87.9019 202.58 132.918 193.586 153.877V191.046L234.524 257.951L265.866 270.031M253.442 73.0343L288.178 69.0076L325.084 102.46L315.16 123.522L319.191 193.214L265.866 270.031" stroke="#E5E4E2" stroke-width="5"/>
<path d="M399.481 255.237L387.235 250.582L371.239 224.805V210.485C374.753 202.41 384.254 185.066 394.627 179.338L408.199 177.786L422.619 190.675L418.741 198.79L420.317 225.641L399.481 255.237Z" fill="white"/>
<path d="M394.627 179.338C398.424 199.546 402.874 243.016 399.481 255.237M394.627 179.338C384.254 185.066 374.753 202.41 371.239 210.485V224.805L387.235 250.582L399.481 255.237M394.627 179.338L408.199 177.786L422.619 190.675L418.741 198.79L420.317 225.641L399.481 255.237" stroke="#E5E4E2" stroke-width="5"/>
<path d="M236.276 313.18L224.098 318.011L194.881 309.794L185.204 299.232C182.339 290.904 177.625 271.702 181.404 260.477L190.366 250.174L209.711 249.949L212.335 258.55L231.643 277.291L236.276 313.18Z" fill="white"/>
<path d="M181.404 260.477C197.861 272.819 230.52 301.877 236.276 313.18M181.404 260.477C177.625 271.702 182.339 290.904 185.204 299.232L194.881 309.794L224.098 318.011L236.276 313.18M181.404 260.477L190.366 250.174L209.711 249.949L212.335 258.55L231.643 277.291L236.276 313.18" stroke="#E5E4E2" stroke-width="5"/>
<path d="M180.524 269.595L146.346 276.285L132.142 323.003L88.2139 344H447.003V48.9924L375.981 69.9894L346.521 131.143L316.376 146.023" stroke="#16346C" stroke-width="2"/>
<path d="M212.745 258.718L227.549 246.534" stroke="#16346C" stroke-width="2"/>
<path d="M159.754 19.1496L2 177.236L19.5282 193.45L179.16 38.4817C187.424 11.7909 169.666 14.4724 159.754 19.1496Z" stroke="#16346C" stroke-width="2.5"/>
<path d="M102.474 2L60.845 43.7823C96.4231 57.7098 171.273 95.4178 186.047 134.83L197.941 127.659C190.679 62.3038 131.271 16.655 102.474 2Z" fill="white" stroke="#16346C" stroke-width="2.5"/>
<path d="M259 29.5L268.248 26.8038C275.862 24.5843 281.797 18.6032 283.958 10.9731L286.5 2L288.816 10.7144C290.917 18.6171 297.051 24.8128 304.932 26.9924L314 29.5L305.66 31.4806C297.261 33.475 290.683 39.9994 288.621 48.3816L286.5 57L283.903 47.636C281.655 39.531 275.167 33.2966 266.979 31.3737L259 29.5Z" fill="#16346C"/>
<path d="M316.207 53.4002L311.93 52.3958L317.528 50.7639C325.472 48.4479 331.666 42.2071 333.921 34.2456L335.469 28.7775L336.85 33.9713C339.042 42.2172 345.442 48.682 353.666 50.9562L358.982 52.4264L354.429 53.5076C345.665 55.5887 338.802 62.3964 336.65 71.1426L335.442 76.05L333.866 70.3687C331.521 61.9118 324.751 55.4066 316.207 53.4002Z" stroke="#E5E4E2" stroke-width="2"/>
</svg>
