<svg width="480" height="390" viewBox="0 0 480 390" fill="none" xmlns="http://www.w3.org/2000/svg">
<path d="M235.737 126.24H66.8404L2.30225 187.452L149.231 344.859L301.652 188.62L235.741 126.24H235.737Z" stroke="#16346C" stroke-width="3"/>
<path d="M2.29883 188.121L300.21 189.076" stroke="#16346C" stroke-width="3"/>
<path d="M66.0867 127.448L105.934 189.061" stroke="#16346C" stroke-width="3"/>
<path d="M103.905 189.124L149.791 127.088" stroke="#16346C" stroke-width="3"/>
<path d="M148.698 127.088L194.585 188.036" stroke="#16346C" stroke-width="3"/>
<path d="M195.628 189.555L236.403 126" stroke="#16346C" stroke-width="3"/>
<path d="M104.479 188.121L148.616 342.945" stroke="#16346C" stroke-width="3"/>
<path d="M195.628 188.6L150.535 343.424" stroke="#16346C" stroke-width="3"/>
<path d="M437.852 239.294L331.852 210.043L280.746 237.283L345.698 361.518L468.417 289.86L437.854 239.295L437.852 239.294Z" stroke="#E5E4E2" stroke-width="2"/>
<path d="M280.628 237.702L467.432 289.896" stroke="#E5E4E2" stroke-width="2"/>
<path d="M331.169 210.671L345.507 256.241" stroke="#E5E4E2" stroke-width="2"/>
<path d="M344.222 255.929L383.764 224.942" stroke="#E5E4E2" stroke-width="2"/>
<path d="M383.079 224.753L401.322 270.951" stroke="#E5E4E2" stroke-width="2"/>
<path d="M401.713 272.085L438.311 239.259" stroke="#E5E4E2" stroke-width="2"/>
<path d="M344.757 255.399L345.643 360.211" stroke="#E5E4E2" stroke-width="2"/>
<path d="M401.879 271.485L346.765 360.844" stroke="#E5E4E2" stroke-width="2"/>
<path d="M314 42.5L323.248 39.8038C330.862 37.5843 336.797 31.6032 338.958 23.9731L341.5 15L343.816 23.7144C345.917 31.6171 352.051 37.8128 359.932 39.9924L369 42.5L360.66 44.4806C352.261 46.475 345.683 52.9994 343.621 61.3816L341.5 70L338.903 60.636C336.655 52.531 330.167 46.2966 321.979 44.3737L314 42.5Z" fill="#16346C"/>
<path d="M381.207 28.4002L376.93 27.3958L382.528 25.7639C390.472 23.4479 396.666 17.2071 398.921 9.24561L400.469 3.7775L401.85 8.97133C404.042 17.2172 410.442 23.682 418.666 25.9562L423.982 27.4264L419.429 28.5076C410.665 30.5887 403.802 37.3964 401.65 46.1426L400.442 51.05L398.866 45.3687C396.521 36.9118 389.751 30.4066 381.207 28.4002Z" stroke="#E5E4E2" stroke-width="2"/>
</svg>
