<svg width="50" height="38" viewBox="0 0 50 38" fill="none" xmlns="http://www.w3.org/2000/svg">
<path d="M4.53106 24.9331L2.46518 24.4479L5.18005 23.6564C9.08284 22.5187 12.1255 19.4526 13.2334 15.5412L13.9847 12.8888L14.6539 15.4064C15.7307 19.4575 18.8752 22.6336 22.9153 23.7509L25.491 24.4632L23.2902 24.9858C18.9849 26.0082 15.613 29.3528 14.5556 33.6497L13.9711 36.025L13.2068 33.2695C12.0545 29.1147 8.72849 25.9188 4.53106 24.9331Z" stroke="#16346C"/>
<path d="M22.5 13.5L27.0401 12.1764C30.7776 11.0868 33.6914 8.15067 34.7523 4.40497L36 0L37.1371 4.278C38.1684 8.15746 41.1797 11.199 45.0486 12.269L49.5 13.5L45.4057 14.4723C41.2828 15.4514 38.0537 18.6543 37.0411 22.7691L36 27L34.725 22.4031C33.6215 18.4243 30.4364 15.3638 26.4168 14.4198L22.5 13.5Z" fill="#16346C"/>
</svg>
