<svg width="174" height="43" viewBox="0 0 174 43" fill="none" xmlns="http://www.w3.org/2000/svg">
<path d="M23.317 30.7198C25.1385 32.7198 28.5012 33.5598 28.5012 33.5598L21.0152 25.3198C21.0152 25.2798 21.4956 28.6998 23.317 30.7198ZM28.5012 34.1198C28.5012 34.1198 25.0985 34.9598 23.317 36.9598C21.5156 38.9598 21.0152 42.3798 21.0152 42.3798L28.5012 34.1198ZM18.1529 30.7198C19.9744 28.7198 20.4547 25.2998 20.4547 25.2998L12.9688 33.5398C12.9687 33.5598 16.3314 32.7198 18.1529 30.7198ZM20.4547 42.3598C20.4547 42.3598 19.9744 38.9398 18.1529 36.9398C16.3314 34.9398 12.9688 34.0998 12.9688 34.0998L20.4547 42.3598Z" fill="white"/>
<path d="M0.69873 27.1597V40.5197H2.64029V34.3197H7.88449V32.5997H2.64029V28.8797H7.88449V27.1597H0.69873Z" fill="white"/>
<path d="M36.3477 28.7997H35.7672V32.9997H36.4878C37.4686 32.9997 38.1491 32.9197 38.5094 32.7397C38.8697 32.5797 39.1499 32.3197 39.3501 31.9797C39.5503 31.6397 39.6504 31.2797 39.6504 30.8397C39.6504 30.4197 39.5303 30.0197 39.3101 29.6997C39.0899 29.3597 38.7696 29.1197 38.3493 28.9797C37.949 28.8797 37.2684 28.7997 36.3477 28.7997ZM33.8057 40.5197V27.1797H37.1684C38.5495 27.1797 39.6103 27.5197 40.431 28.1797C41.2516 28.8597 41.6319 29.7597 41.6319 30.8997C41.6319 31.6797 41.4318 32.3597 41.0515 32.9197C40.6712 33.4797 40.0907 33.8997 39.3701 34.1797C39.7905 34.4597 40.2108 34.8597 40.6311 35.3197C41.0515 35.7797 41.6119 36.6397 42.3725 37.8397C42.8529 38.5997 43.2132 39.1597 43.4934 39.5597L44.194 40.5197H41.8921L41.3117 39.6597C41.2917 39.6397 41.2516 39.5797 41.1916 39.4997L40.8313 38.9597L40.2508 37.9797L39.6103 36.9397C39.21 36.3797 38.8497 35.9597 38.5094 35.6197C38.1692 35.2797 37.8889 35.0597 37.6087 34.9197C37.3285 34.7797 36.8881 34.6997 36.2676 34.6997H35.7672V40.4997H33.8257V40.5197H33.8057Z" fill="white"/>
<path d="M50.0986 27.1597H57.7247V28.8797H52.0002V32.9397H57.5246V34.6597H52.0002V38.7997H57.8849V40.5197H50.0986V27.1597Z" fill="white"/>
<path d="M73.5173 27.1597H75.4589L69.7543 40.5597H69.3139L63.5293 27.1597H65.4709L69.5141 36.5597L73.5173 27.1597Z" fill="white"/>
<path d="M81.123 27.1597H88.7692V28.8797H83.0646V32.9397H88.569V34.6597H83.0646V38.7997H88.9493V40.5197H81.123V27.1597Z" fill="white"/>
<path d="M98.4371 28.7997H97.8566V32.9997H98.5772C99.558 32.9997 100.239 32.9197 100.599 32.7397C100.959 32.5797 101.239 32.3197 101.439 31.9797C101.64 31.6397 101.74 31.2797 101.74 30.8397C101.74 30.4197 101.62 30.0197 101.399 29.6997C101.179 29.3797 100.859 29.1197 100.439 28.9797C100.038 28.8797 99.3778 28.7997 98.4371 28.7997ZM95.915 40.5197V27.1797H99.2777C100.659 27.1797 101.72 27.5197 102.54 28.1797C103.361 28.8597 103.741 29.7597 103.741 30.8997C103.741 31.6797 103.541 32.3597 103.161 32.9197C102.781 33.4797 102.2 33.8997 101.479 34.1797C101.9 34.4597 102.32 34.8597 102.741 35.3197C103.161 35.7997 103.721 36.6397 104.482 37.8397C104.962 38.5997 105.323 39.1597 105.603 39.5597L106.303 40.5197H104.002L103.421 39.6597C103.401 39.6397 103.361 39.5797 103.301 39.4997L102.941 38.9597L102.36 37.9797L101.72 36.9397C101.319 36.3797 100.959 35.9597 100.619 35.6197C100.279 35.2797 99.9983 35.0597 99.7181 34.9197C99.4379 34.7797 98.9975 34.6997 98.377 34.6997H97.8766V40.4997H95.9351V40.5197H95.915Z" fill="white"/>
<path d="M122.276 27.1597H124.057V40.5197H122.136V30.1397L117.973 35.2997H117.632L113.429 30.1397V40.5197H111.527V27.1597H113.349L117.812 32.6597L122.276 27.1597Z" fill="white"/>
<path d="M137.668 34.8801L135.507 30.0601L133.485 34.8801H137.668ZM134.846 27.1001H136.187L142.212 40.5401H140.25L138.449 36.5801H132.704L131.023 40.5401H129.021L134.846 27.1001Z" fill="white"/>
<path d="M149.678 28.7997H149.097V32.9997H149.818C150.799 32.9997 151.479 32.9197 151.84 32.7397C152.2 32.5797 152.48 32.3197 152.68 31.9797C152.88 31.6397 152.98 31.2597 152.98 30.8397C152.98 30.4197 152.86 30.0197 152.64 29.6997C152.42 29.3597 152.1 29.1197 151.679 28.9797C151.319 28.8797 150.639 28.7997 149.678 28.7997ZM147.196 40.5197V27.1797H150.558C151.94 27.1797 153 27.5197 153.821 28.1797C154.642 28.8597 155.022 29.7597 155.022 30.8997C155.022 31.6797 154.822 32.3597 154.442 32.9197C154.041 33.4797 153.481 33.8997 152.76 34.1797C153.181 34.4597 153.601 34.8597 154.021 35.3197C154.442 35.7997 155.002 36.6397 155.763 37.8397C156.243 38.5997 156.603 39.1597 156.884 39.5597L157.584 40.5197H155.282L154.702 39.6597C154.682 39.6397 154.642 39.5797 154.582 39.4997L154.221 38.9597L153.641 37.9797L153 36.9397C152.6 36.3797 152.24 35.9597 151.9 35.6197C151.559 35.2797 151.279 35.0597 150.999 34.9197C150.719 34.7797 150.278 34.6997 149.658 34.6997H149.117V40.4997H147.176V40.5197H147.196Z" fill="white"/>
<path d="M170.115 27.1597L164.45 33.2797V27.1597H162.509V40.5197H164.45V33.9197L171.316 40.5197H173.958L166.672 33.4997L172.497 27.1597H170.115Z" fill="white"/>
<path d="M38.7892 12.4199C39.0494 12.4399 39.3297 12.4399 39.6499 12.4799C39.9902 12.4799 40.3505 12.4999 40.7708 12.4999C41.2712 12.4999 41.7716 12.4799 42.252 12.4399C42.7524 12.3799 43.2328 12.3199 43.6931 12.1799C44.1335 12.0399 44.5538 11.8799 44.9542 11.6399C45.3545 11.3799 45.7148 11.0799 46.015 10.7199C46.4954 10.1399 46.8357 9.51988 46.9958 8.89988C47.196 8.27988 47.276 7.57988 47.276 6.85988C47.276 5.99988 47.1559 5.19988 46.9357 4.49988C46.7156 3.79988 46.3553 3.17988 45.8148 2.67988C45.3144 2.17988 44.6339 1.77988 43.7932 1.49988C42.9526 1.21988 41.9117 1.07988 40.6507 1.07988C40.2904 1.07988 39.9501 1.07988 39.6499 1.09988C39.3497 1.09988 39.0694 1.11988 38.7892 1.11988V12.4199ZM34.0854 12.4199H36.5474V1.13988H34.0854V0.919883H38.2288H38.8493C39.0494 0.919883 39.2696 0.899883 39.4698 0.899883H40.0903C40.2904 0.899883 40.5106 0.879883 40.7108 0.879883C41.1511 0.879883 41.5514 0.879883 41.8917 0.899883C42.252 0.899883 42.5722 0.919883 42.8725 0.959883C43.1727 0.979883 43.453 1.01988 43.7332 1.07988C44.0134 1.13988 44.3136 1.19988 44.6339 1.23988C45.5346 1.45988 46.3153 1.73988 46.9558 2.13988C47.6363 2.49988 48.1567 2.91988 48.5771 3.39988C48.9974 3.87988 49.2976 4.39988 49.4978 4.97988C49.698 5.53988 49.798 6.15988 49.798 6.77988C49.798 7.49988 49.6779 8.15988 49.4378 8.73988C49.2176 9.29988 48.8773 9.83988 48.457 10.2799C48.0366 10.7199 47.5562 11.0999 46.9958 11.4199C46.4353 11.7199 45.8549 11.9999 45.2344 12.1999C44.8741 12.3199 44.5338 12.4199 44.2336 12.4799C43.9333 12.5399 43.5931 12.5999 43.2528 12.6199C42.9125 12.6399 42.5723 12.6799 42.1519 12.6799C41.7516 12.6799 41.2912 12.6999 40.7708 12.6999C40.5506 12.6999 40.3305 12.6999 40.0702 12.6799C39.81 12.6799 39.5698 12.6799 39.3096 12.6599C39.0494 12.6599 38.8092 12.6399 38.549 12.6399H37.8485H34.0654V12.4399H34.0854V12.4199Z" fill="white"/>
<path d="M52.5005 12.4397H54.6022V2.85967H52.5005V2.65967H63.3091V5.07967H63.109C62.9489 4.71967 62.7687 4.39967 62.5686 4.11967C62.3684 3.83967 62.1482 3.61967 61.888 3.41967C61.6278 3.21967 61.3075 3.07967 60.9272 2.99967C60.5469 2.91967 60.1066 2.85967 59.6062 2.85967H56.4637V7.17967H57.7046C58.125 7.17967 58.4653 7.15967 58.7655 7.09967C59.0457 7.03967 59.3059 6.93967 59.4861 6.79967C59.7063 6.63967 59.8864 6.43967 60.0265 6.17967C60.1666 5.89967 60.3268 5.55967 60.4468 5.13967H60.647V9.47967H60.4468C60.3668 9.19967 60.2467 8.93967 60.1666 8.69967C60.0866 8.45967 59.9464 8.21967 59.7663 8.01967C59.6062 7.81967 59.366 7.67967 59.0858 7.57967C58.8055 7.47967 58.4452 7.37967 57.9849 7.37967H56.4637V12.4197H60.0265C60.7271 12.4197 61.2875 12.2997 61.7479 12.1197C62.2283 11.8997 62.5886 11.6397 62.8688 11.3397C63.149 11.0397 63.3692 10.7197 63.5093 10.3797C63.6494 10.0397 63.7295 9.79967 63.7695 9.55967H63.9697V12.6197H52.4404V12.4597H52.5005V12.4397Z" fill="white"/>
<path d="M75.7589 6.21986H77.8006C78.2209 6.21986 78.5812 6.19986 78.9215 6.09986C79.2618 5.99986 79.542 5.89986 79.7822 5.69986C80.0424 5.49986 80.2225 5.25986 80.3626 4.91986C80.5028 4.57986 80.5628 4.15986 80.5628 3.65986C80.5628 3.09986 80.4427 2.61986 80.2626 2.27986C80.0624 1.91986 79.8222 1.65986 79.4819 1.49986C79.1817 1.33986 78.8014 1.21986 78.4211 1.15986C78.0208 1.09986 77.6405 1.07986 77.2802 1.07986C76.9999 1.07986 76.7397 1.07986 76.4595 1.09986C76.1793 1.09986 75.9591 1.09986 75.7589 1.11986V6.21986ZM75.7589 12.4199C75.9191 12.4199 76.1192 12.4399 76.3394 12.4799C76.5596 12.4799 76.8798 12.4999 77.2602 12.4999C77.9607 12.4999 78.5412 12.4399 79.0616 12.3599C79.562 12.2399 79.9823 12.0799 80.3026 11.8599C80.6429 11.5999 80.863 11.2799 81.0032 10.8799C81.1433 10.4599 81.2233 9.95986 81.2233 9.33986C81.2233 8.47986 80.9631 7.75986 80.4627 7.25986C79.9623 6.75986 79.2017 6.49986 78.2209 6.49986H75.779L75.7589 12.4199ZM71.0752 12.4199H73.5372V1.11986H71.0752V0.899863H74.9783H75.6589C75.9191 0.899863 76.1393 0.879863 76.3594 0.879863C76.5796 0.879863 76.8398 0.879863 77.06 0.879863C77.2802 0.879863 77.5003 0.859863 77.7005 0.859863C78.8014 0.859863 79.6621 0.979863 80.3626 1.15986C81.0632 1.33986 81.6036 1.57986 82.024 1.85986C82.4243 2.13986 82.7045 2.43986 82.8446 2.75986C82.9847 3.07986 83.0648 3.37986 83.0648 3.61986C83.0648 3.97986 82.9447 4.31986 82.7245 4.61986C82.5244 4.91986 82.2241 5.19986 81.8638 5.43986C81.5036 5.65986 81.1032 5.85986 80.6228 5.99986C80.1425 6.13986 79.6421 6.21986 79.1417 6.27986V6.29986C79.6821 6.31986 80.2025 6.41986 80.763 6.55986C81.3234 6.69986 81.8238 6.89986 82.2842 7.13986C82.7245 7.39986 83.1249 7.67986 83.4051 8.03986C83.6853 8.39986 83.8254 8.81986 83.8254 9.29986C83.8254 9.79986 83.6853 10.2599 83.4651 10.6799C83.2049 11.0999 82.8446 11.4399 82.3442 11.7399C81.8438 12.0399 81.2033 12.2799 80.4427 12.4399C79.6821 12.5999 78.7814 12.6999 77.7405 12.6999C77.5404 12.6999 77.3202 12.6999 77.12 12.6799C76.9199 12.6799 76.7197 12.6799 76.4995 12.6599C76.2794 12.6599 76.0592 12.6399 75.799 12.6399H74.9783H71.0752V12.4199Z" fill="white"/>
<path d="M86.9277 12.4397H89.0294V2.85967H86.9277V2.65967H97.7364V5.07967H97.5362C97.3761 4.71967 97.196 4.39967 96.9958 4.11967C96.7956 3.83967 96.5755 3.61967 96.3153 3.41967C96.055 3.21967 95.7348 3.07967 95.3545 2.99967C94.9742 2.91967 94.5338 2.85967 94.0334 2.85967H90.8909V7.17967H92.1319C92.5522 7.17967 92.8925 7.15967 93.1928 7.09967C93.473 7.03967 93.7332 6.93967 93.9133 6.79967C94.1335 6.63967 94.3136 6.43967 94.4538 6.17967C94.5939 5.89967 94.754 5.55967 94.8941 5.13967H95.0943V9.47967H94.8741C94.794 9.19967 94.714 8.93967 94.5939 8.69967C94.5138 8.43967 94.3737 8.21967 94.1936 8.01967C94.0334 7.81967 93.7932 7.67967 93.513 7.57967C93.2328 7.47967 92.8725 7.37967 92.4121 7.37967H90.8909V12.4197H94.4538C95.1543 12.4197 95.7148 12.2997 96.1751 12.1197C96.6555 11.8997 97.0158 11.6397 97.296 11.3397C97.5763 11.0397 97.7964 10.7197 97.9366 10.3797C98.0767 10.0397 98.1567 9.79967 98.1968 9.55967H98.3969V12.6197H86.8877L86.9277 12.4397Z" fill="white"/>
<path d="M101.64 12.4397H103.741V2.85967H101.64V2.65967H112.448V5.07967H112.248C112.088 4.71967 111.908 4.39967 111.708 4.11967C111.508 3.83967 111.287 3.61967 111.027 3.41967C110.767 3.21967 110.447 3.07967 110.066 2.99967C109.706 2.91967 109.246 2.85967 108.745 2.85967H105.603V7.17967H106.844C107.264 7.17967 107.604 7.15967 107.905 7.09967C108.185 7.03967 108.445 6.93967 108.625 6.79967C108.845 6.63967 109.026 6.43967 109.166 6.17967C109.306 5.89967 109.466 5.55967 109.606 5.13967H109.806V9.47967H109.606C109.526 9.19967 109.406 8.93967 109.326 8.69967C109.246 8.45967 109.106 8.21967 108.925 8.01967C108.765 7.81967 108.525 7.67967 108.245 7.57967C107.965 7.47967 107.604 7.41967 107.144 7.41967H105.683V12.4597H109.246C109.946 12.4597 110.507 12.3397 110.967 12.1597C111.448 11.9397 111.808 11.6797 112.088 11.3797C112.368 11.0797 112.588 10.7597 112.729 10.4197C112.869 10.0797 112.949 9.83967 112.989 9.59967H113.189V12.6597H101.66L101.64 12.4397Z" fill="white"/>
<path d="M120.294 7.19965H122.036C122.396 7.19965 122.716 7.17965 122.996 7.07965C123.277 7.01965 123.537 6.91965 123.717 6.73965C123.937 6.57965 124.077 6.33965 124.197 6.05965C124.317 5.77965 124.357 5.41965 124.357 4.99965C124.357 4.51965 124.277 4.13965 124.097 3.85965C123.937 3.55965 123.697 3.31965 123.417 3.17965C123.157 3.03965 122.856 2.91965 122.516 2.87965C122.176 2.81965 121.875 2.81965 121.535 2.81965C121.315 2.81965 121.095 2.81965 120.835 2.81965C120.614 2.81965 120.414 2.81965 120.254 2.83965V7.19965H120.294ZM116.311 12.4796H118.413V2.87965H116.311V2.67965H119.894H120.334C120.474 2.67965 120.635 2.65965 120.775 2.65965C120.915 2.65965 121.075 2.65965 121.215 2.65965C121.355 2.65965 121.515 2.63965 121.655 2.63965C122.376 2.63965 123.056 2.65965 123.617 2.75965C124.177 2.81965 124.718 2.97965 125.218 3.25965C125.659 3.51965 125.979 3.79965 126.139 4.11965C126.339 4.41965 126.419 4.73965 126.419 5.01965C126.419 5.15965 126.399 5.35965 126.299 5.55965C126.239 5.77965 126.079 5.99965 125.859 6.23965C125.639 6.45965 125.298 6.65965 124.858 6.85965C124.418 7.05965 123.817 7.15965 123.096 7.21965V7.23965C123.297 7.25965 123.577 7.29965 123.917 7.35965C124.277 7.41965 124.618 7.49965 124.978 7.61965C125.338 7.73965 125.679 7.89965 125.979 8.11965C126.279 8.31965 126.479 8.55965 126.619 8.87965C126.699 9.07965 126.759 9.27965 126.759 9.51965C126.779 9.73965 126.819 9.99965 126.839 10.2396C126.859 10.4996 126.9 10.7396 126.9 10.9596C126.92 11.1796 126.96 11.3796 127.02 11.5396C127.1 11.7996 127.22 11.9796 127.38 12.1796C127.54 12.3796 127.8 12.4796 128.161 12.4796C128.321 12.4796 128.501 12.4596 128.661 12.4196C128.821 12.3596 129.001 12.2996 129.141 12.1996L129.301 12.3596C129.241 12.3796 129.161 12.4396 129.081 12.4996C129.001 12.5196 128.921 12.5796 128.781 12.6196C128.661 12.6396 128.501 12.6796 128.301 12.6996C128.141 12.7196 127.9 12.7596 127.62 12.7596C127.12 12.7596 126.699 12.6996 126.359 12.6196C126.019 12.5396 125.779 12.3996 125.578 12.2196C125.378 12.0196 125.218 11.7996 125.138 11.5396C125.058 11.2596 124.998 10.9596 124.938 10.6196L124.798 9.35965C124.738 8.87965 124.638 8.51965 124.438 8.25965C124.237 7.99965 123.997 7.81965 123.717 7.67965C123.457 7.55965 123.177 7.47965 122.876 7.47965C122.596 7.45965 122.336 7.45965 122.116 7.45965H120.234V12.4996H122.336V12.6996H116.291V12.4396H116.311V12.4796Z" fill="white"/>
<path d="M130.963 9.63998H131.164C131.304 10.14 131.464 10.56 131.704 10.9C131.924 11.24 132.184 11.54 132.425 11.74C132.685 11.96 132.965 12.14 133.265 12.28C133.545 12.4 133.846 12.48 134.126 12.54C134.426 12.6 134.706 12.62 134.967 12.66C135.247 12.66 135.507 12.68 135.747 12.68C136.428 12.68 136.948 12.6 137.368 12.46C137.789 12.32 138.129 12.12 138.369 11.9C138.63 11.68 138.79 11.42 138.91 11.18C139.03 10.9 139.05 10.82 139.05 10.68C139.05 10.34 138.97 10.06 138.79 9.83998C138.63 9.61998 138.429 9.41998 138.169 9.25998C137.909 9.09998 137.629 8.95998 137.328 8.83998C137.048 8.71998 136.768 8.67998 136.488 8.57998L134.326 8.09998C133.325 7.87998 132.525 7.55998 132.004 7.17998C131.504 6.77998 131.224 6.03998 131.224 5.37998C131.224 4.95998 131.344 4.55998 131.524 4.23998C131.724 3.87998 132.004 3.55998 132.364 3.31998C132.725 3.05998 133.145 2.83998 133.646 2.69998C134.146 2.55998 134.706 2.47998 135.327 2.47998C135.767 2.47998 136.148 2.49998 136.428 2.55998C136.728 2.61998 136.988 2.67998 137.208 2.75998C137.429 2.81998 137.609 2.89998 137.769 2.91998C137.929 2.97998 138.129 2.99998 138.309 2.99998C138.469 2.99998 138.589 2.97998 138.609 2.97998C138.67 2.95998 138.75 2.85998 138.87 2.71998H139.13V5.19998H138.91C138.83 4.85998 138.71 4.55998 138.509 4.23998C138.349 3.93998 138.089 3.65998 137.809 3.39998C137.529 3.13998 137.168 2.97998 136.748 2.83998C136.348 2.69998 135.887 2.61998 135.347 2.61998C135.047 2.61998 134.706 2.63998 134.346 2.69998C133.986 2.75998 133.646 2.85998 133.345 2.99998C133.045 3.13998 132.765 3.33998 132.565 3.57998C132.364 3.83998 132.264 4.13998 132.264 4.49998C132.264 4.79998 132.344 5.05998 132.525 5.25998C132.685 5.45998 132.885 5.65998 133.145 5.79998C133.405 5.93998 133.706 6.05998 134.006 6.15998C134.346 6.23998 134.646 6.31998 134.987 6.41998L137.268 6.95998C137.529 7.01998 137.809 7.09998 138.169 7.17998C138.529 7.25998 138.89 7.39998 139.23 7.59998C139.59 7.79998 139.871 8.01998 140.131 8.31998C140.391 8.61998 140.491 9.01998 140.491 9.49998C140.491 9.93998 140.371 10.36 140.151 10.76C139.931 11.16 139.61 11.48 139.19 11.8C138.77 12.1 138.269 12.34 137.669 12.52C137.088 12.68 136.408 12.78 135.667 12.78C135.407 12.78 135.167 12.78 134.967 12.76C134.766 12.76 134.566 12.76 134.406 12.74C134.246 12.72 134.046 12.68 133.866 12.66C133.706 12.64 133.505 12.6 133.285 12.54C133.025 12.48 132.745 12.42 132.465 12.34C132.184 12.26 131.924 12.22 131.704 12.22C131.504 12.22 131.404 12.24 131.304 12.3C131.244 12.36 131.184 12.44 131.144 12.52H130.863L130.963 9.63998Z" fill="white"/>
</svg>
