<svg width="198" height="414" viewBox="0 0 198 414" fill="none" xmlns="http://www.w3.org/2000/svg">
<g style="mix-blend-mode:multiply">
<path d="M97.6393 413.302L194.863 414L194.941 403.13L195.019 392.261L148.848 391.929L102.632 391.597L102.959 389.736C103.707 385.393 105.608 370.1 106.096 364.557C106.388 361.276 106.676 358.528 106.766 358.484C106.812 358.395 118.589 352.357 132.883 345.006C147.178 337.655 163.316 329.296 168.8 326.452C174.284 323.607 182.51 319.363 187.185 316.956L195.591 312.668L195.761 289.021L195.931 265.374L161.045 265.123L126.159 264.873L121.309 260.49C118.638 258.119 110.718 251.008 103.687 244.746C96.6555 238.484 90.9158 233.251 90.9167 233.118C90.9177 232.985 93.0765 231.714 95.7292 230.269C98.4264 228.869 102.113 226.898 103.956 225.891C105.8 224.884 109.666 222.826 112.499 221.294C115.331 219.761 119.602 217.485 121.94 216.215C124.278 214.989 131.246 211.224 137.45 207.941C154.13 199.009 158.176 196.864 162.402 194.588C164.515 193.449 168.652 191.216 171.619 189.64C174.586 188.064 179.127 185.612 181.734 184.211C184.342 182.81 188.748 180.49 191.535 179.046L196.569 176.42L196.901 130.28C197.283 76.9961 197.241 76.6408 193.343 64.4115C187.825 47.0683 176.647 31.9915 160.742 20.3416C143.724 7.92936 121.427 0.847759 98.632 0.68406C82.4205 0.567638 68.1566 3.65974 54.8984 10.131C31.2137 21.6741 14.3071 43.515 6.98142 72.0356C3.24917 86.6059 3.15292 87.537 2.74151 119.878L2.31114 148.626L99.4007 149.323C162.052 149.773 196.355 150.153 196.039 150.461C195.814 150.681 193.475 152.04 190.912 153.441C183.853 157.295 159.305 170.651 151.347 174.986C147.525 177.088 138.083 182.167 130.44 186.372C122.751 190.532 111.556 196.663 105.486 199.947C99.4167 203.231 89.84 208.442 84.1299 211.551C78.4646 214.66 73.6099 217.155 73.3412 217.153C73.0277 217.15 66.4406 211.424 58.6533 204.447C50.866 197.469 42.5444 190.044 40.1859 187.942C37.7826 185.84 28.6601 177.699 19.8935 169.872C11.1274 162 3.56205 155.29 3.11676 154.932C2.4047 154.306 2.35896 154.439 2.33825 157.322L2.31595 160.428L9.75202 166.427C22.0862 176.365 32.8142 185.449 41.2688 193.052C45.6743 196.988 57.6 207.678 67.7459 216.758C77.8917 225.837 88.2154 235.096 90.6629 237.287C93.1548 239.523 101.031 246.59 108.196 252.986L121.234 264.616L61.4031 264.319L1.57231 263.978L1.49425 274.848L1.41619 285.718L98.1923 286.413C167.74 286.912 194.923 287.24 194.786 287.594C194.694 287.86 190.198 290.401 184.758 293.201C179.319 296.046 170.014 300.86 164.08 303.923C158.146 307.031 150.774 310.882 147.672 312.501C144.57 314.121 134.77 319.242 125.869 323.881C116.968 328.52 108.247 333.071 106.449 333.99L103.257 335.698L102.468 333.34C98.9188 322.445 90.2715 310.492 81.3598 304.172C71.2003 297 57.8325 293.798 44.5201 295.344C22.8257 297.895 9.01313 312.97 3.30791 340.348C1.3598 349.696 1.25844 351.337 0.856918 382.303L0.460172 412.604L97.6393 413.302ZM5.10327 358.508C6.92118 348.583 9.97835 340.707 14.23 334.881C15.3607 333.336 17.9331 330.604 19.9621 328.71C28.708 320.698 42.7975 316.939 58.5062 318.472C71.485 319.719 80.727 323.69 88.7783 331.334C92.9592 335.358 96.2842 340.084 99.4169 346.629L101.932 351.883L101.804 363.417C101.732 373.533 101.273 381.25 100.275 389.229L99.9898 391.578L51.8481 391.232L3.70632 390.887L4.03155 376.78C4.23982 366.488 4.54357 361.61 5.10327 358.508ZM6.63406 95.4595C8.18518 85.266 10.8876 76.8998 15.3375 68.413C19.7426 59.9259 24.1277 54.2339 31.612 47.2775C39.4124 39.9684 49.172 34.2262 60.3971 30.225C85.0921 21.4399 121.011 21.2542 146.12 29.7314C158.406 33.8571 167.77 39.5148 175.819 47.5588C184.667 56.4517 189.575 65.2719 193.106 78.6964L194.328 83.2308L194.167 105.636L194.006 128.04L99.8262 127.497L5.69163 126.91L5.78753 113.556C5.85763 103.795 6.07181 98.9162 6.63406 95.4595Z" fill="rgba(0, 0, 0, 0.1)"/>
</g>
<path d="M59.5222 73.9679L72.5848 70.1597C83.3381 67.0248 91.7215 58.577 94.774 47.8001L98.3638 35.1263L101.636 47.4348C104.602 58.5966 113.266 67.3476 124.398 70.426L137.205 73.9679L125.426 76.7653C113.563 79.5823 104.273 88.7975 101.359 100.637L98.3638 112.809L94.6955 99.5835C91.5205 88.1359 82.3564 79.3303 70.7913 76.6143L59.5222 73.9679Z" fill="#E5E4E2"/>
</svg>
