<svg width="136" height="43" viewBox="0 0 136 43" fill="none" xmlns="http://www.w3.org/2000/svg">
<g clip-path="url(#clip0_222_1153)">
<mask id="mask0_222_1153" style="mask-type:luminance" maskUnits="userSpaceOnUse" x="0" y="-7" width="136" height="60">
<path d="M135.145 -6.14307H0.00195312V52.2141H135.145V-6.14307Z" fill="white"/>
</mask>
<g mask="url(#mask0_222_1153)">
<path d="M110.142 7.50601C109.361 7.4372 108.564 7.4372 107.788 7.50601L107.152 0.368442C108.35 0.262603 109.576 0.262603 110.777 0.368442L110.142 7.50601Z" fill="#CCA15B"/>
</g>
<mask id="mask1_222_1153" style="mask-type:luminance" maskUnits="userSpaceOnUse" x="0" y="-7" width="136" height="60">
<path d="M135.145 -6.14307H0.00195312V52.2141H135.145V-6.14307Z" fill="white"/>
</mask>
<g mask="url(#mask1_222_1153)">
<path d="M110.142 33.8384C109.361 33.9083 108.564 33.9076 107.788 33.8388L107.152 40.9759C108.35 41.0822 109.576 41.0822 110.777 40.9759L110.142 33.8384Z" fill="#CCA15B"/>
</g>
<mask id="mask2_222_1153" style="mask-type:luminance" maskUnits="userSpaceOnUse" x="0" y="-7" width="136" height="60">
<path d="M135.145 -6.14307H0.00195312V52.2141H135.145V-6.14307Z" fill="white"/>
</mask>
<g mask="url(#mask2_222_1153)">
<path d="M96.9558 26.2397C97.2868 26.9488 97.6846 27.6351 98.133 28.2716L92.2488 32.3892C91.5576 31.4079 90.944 30.3499 90.4355 29.2605L96.9558 26.2397Z" fill="#CCA15B"/>
</g>
<mask id="mask3_222_1153" style="mask-type:luminance" maskUnits="userSpaceOnUse" x="0" y="-7" width="136" height="60">
<path d="M135.145 -6.14307H0.00195312V52.2141H135.145V-6.14307Z" fill="white"/>
</mask>
<g mask="url(#mask3_222_1153)">
<path d="M119.84 13.0733C120.289 13.7128 120.688 14.4002 121.016 15.1048L127.537 12.0852C127.03 10.9984 126.417 9.94002 125.724 8.95605L119.84 13.0733Z" fill="#CCA15B"/>
</g>
<mask id="mask4_222_1153" style="mask-type:luminance" maskUnits="userSpaceOnUse" x="0" y="-7" width="136" height="60">
<path d="M135.145 -6.14307H0.00195312V52.2141H135.145V-6.14307Z" fill="white"/>
</mask>
<g mask="url(#mask4_222_1153)">
<path d="M119.84 28.2716C120.289 27.6321 120.688 26.9443 121.016 26.2397L127.537 29.2597C127.03 30.3461 126.417 31.4042 125.724 32.3885L119.84 28.2716Z" fill="#CCA15B"/>
</g>
<mask id="mask5_222_1153" style="mask-type:luminance" maskUnits="userSpaceOnUse" x="0" y="-7" width="136" height="60">
<path d="M135.145 -6.14307H0.00195312V52.2141H135.145V-6.14307Z" fill="white"/>
</mask>
<g mask="url(#mask5_222_1153)">
<path d="M96.9558 15.1055C97.2868 14.3968 97.6846 13.7098 98.133 13.074L92.2488 8.95605C91.5576 9.93703 90.944 10.9954 90.4355 12.0852L96.9558 15.1055Z" fill="#CCA15B"/>
</g>
<mask id="mask6_222_1153" style="mask-type:luminance" maskUnits="userSpaceOnUse" x="0" y="-7" width="136" height="60">
<path d="M135.145 -6.14307H0.00195312V52.2141H135.145V-6.14307Z" fill="white"/>
</mask>
<g mask="url(#mask6_222_1153)">
<path d="M98.7594 38.3254C100.063 39.0742 101.444 39.6983 102.646 40.048L104.868 33.2332C104.104 33.0066 103.212 32.6038 102.357 32.1139C101.506 31.6224 100.71 31.0529 100.13 30.5068L95.3193 35.8324C96.2249 36.6956 97.4576 37.5752 98.7594 38.3254Z" fill="#CCA15B"/>
</g>
<mask id="mask7_222_1153" style="mask-type:luminance" maskUnits="userSpaceOnUse" x="0" y="-7" width="136" height="60">
<path d="M135.145 -6.14307H0.00195312V52.2141H135.145V-6.14307Z" fill="white"/>
</mask>
<g mask="url(#mask7_222_1153)">
<path d="M119.213 3.01973C120.515 3.76995 121.748 4.64919 122.654 5.51273L117.843 10.838C117.264 10.2919 116.467 9.72272 115.615 9.23055C114.761 8.74062 113.869 8.33859 113.104 8.11158L115.327 1.29639C116.529 1.64681 117.91 2.27137 119.213 3.01973Z" fill="#CCA15B"/>
</g>
<mask id="mask8_222_1153" style="mask-type:luminance" maskUnits="userSpaceOnUse" x="0" y="-7" width="136" height="60">
<path d="M135.145 -6.14307H0.00195312V52.2141H135.145V-6.14307Z" fill="white"/>
</mask>
<g mask="url(#mask8_222_1153)">
<path d="M98.7594 3.01973C97.4576 3.76995 96.2249 4.64919 95.3193 5.51273L100.13 10.838C100.71 10.2919 101.506 9.72272 102.357 9.23055C103.212 8.74062 104.104 8.33859 104.868 8.11158L102.646 1.29639C101.444 1.64681 100.063 2.27137 98.7594 3.01973Z" fill="#CCA15B"/>
</g>
<mask id="mask9_222_1153" style="mask-type:luminance" maskUnits="userSpaceOnUse" x="0" y="-7" width="136" height="60">
<path d="M135.145 -6.14307H0.00195312V52.2141H135.145V-6.14307Z" fill="white"/>
</mask>
<g mask="url(#mask9_222_1153)">
<path d="M119.213 38.3254C117.91 39.0742 116.529 39.6983 115.327 40.048L113.104 33.2332C113.869 33.0066 114.761 32.6038 115.615 32.1139C116.467 31.6224 117.264 31.0529 117.843 30.5068L122.654 35.8324C121.748 36.6956 120.515 37.5752 119.213 38.3254Z" fill="#CCA15B"/>
</g>
<mask id="mask10_222_1153" style="mask-type:luminance" maskUnits="userSpaceOnUse" x="0" y="-7" width="136" height="60">
<path d="M135.145 -6.14307H0.00195312V52.2141H135.145V-6.14307Z" fill="white"/>
</mask>
<g mask="url(#mask10_222_1153)">
<path d="M129.44 20.6725C129.44 19.1736 129.291 17.6698 128.994 16.4565L121.961 17.9461C122.146 18.7195 122.243 19.6908 122.244 20.6725C122.243 21.6542 122.146 22.6259 121.961 23.3989L128.994 24.8885C129.291 23.6749 129.44 22.1707 129.44 20.6725Z" fill="#CCA15B"/>
</g>
<mask id="mask11_222_1153" style="mask-type:luminance" maskUnits="userSpaceOnUse" x="0" y="-7" width="136" height="60">
<path d="M135.145 -6.14307H0.00195312V52.2141H135.145V-6.14307Z" fill="white"/>
</mask>
<g mask="url(#mask11_222_1153)">
<path d="M88.5332 20.6725C88.5343 19.1736 88.6818 17.6698 88.979 16.4565L96.0119 17.9461C95.8269 18.7195 95.7308 19.6908 95.729 20.6725C95.7308 21.6542 95.8269 22.6259 96.0119 23.3989L88.979 24.8885C88.6822 23.6749 88.5343 22.1707 88.5332 20.6725Z" fill="#CCA15B"/>
</g>
<mask id="mask12_222_1153" style="mask-type:luminance" maskUnits="userSpaceOnUse" x="0" y="-7" width="136" height="60">
<path d="M135.145 -6.14307H0.00195312V52.2141H135.145V-6.14307Z" fill="white"/>
</mask>
<g mask="url(#mask12_222_1153)">
<path d="M109.574 13.974C109.176 13.9388 108.771 13.9388 108.377 13.974L108.053 10.3429C108.662 10.2887 109.285 10.2887 109.897 10.3429L109.574 13.974Z" fill="#A7A9AC"/>
</g>
<mask id="mask13_222_1153" style="mask-type:luminance" maskUnits="userSpaceOnUse" x="0" y="-7" width="136" height="60">
<path d="M135.145 -6.14307H0.00195312V52.2141H135.145V-6.14307Z" fill="white"/>
</mask>
<g mask="url(#mask13_222_1153)">
<path d="M109.574 27.3716C109.176 27.4064 108.771 27.4064 108.377 27.3716L108.053 31.0026C108.662 31.0569 109.285 31.0572 109.897 31.0026L109.574 27.3716Z" fill="#A7A9AC"/>
</g>
<mask id="mask14_222_1153" style="mask-type:luminance" maskUnits="userSpaceOnUse" x="0" y="-7" width="136" height="60">
<path d="M135.145 -6.14307H0.00195312V52.2141H135.145V-6.14307Z" fill="white"/>
</mask>
<g mask="url(#mask14_222_1153)">
<path d="M102.866 23.5054C103.034 23.8655 103.236 24.2152 103.465 24.5387L100.47 26.6342C100.118 26.1349 99.8057 25.5967 99.5479 25.0417L102.866 23.5054Z" fill="#A7A9AC"/>
</g>
<mask id="mask15_222_1153" style="mask-type:luminance" maskUnits="userSpaceOnUse" x="0" y="-7" width="136" height="60">
<path d="M135.145 -6.14307H0.00195312V52.2141H135.145V-6.14307Z" fill="white"/>
</mask>
<g mask="url(#mask15_222_1153)">
<path d="M114.508 16.8061C114.737 17.1315 114.939 17.4812 115.107 17.8398L118.425 16.3035C118.167 15.7504 117.854 15.2118 117.502 14.7114L114.508 16.8061Z" fill="#A7A9AC"/>
</g>
<mask id="mask16_222_1153" style="mask-type:luminance" maskUnits="userSpaceOnUse" x="0" y="-7" width="136" height="60">
<path d="M135.145 -6.14307H0.00195312V52.2141H135.145V-6.14307Z" fill="white"/>
</mask>
<g mask="url(#mask16_222_1153)">
<path d="M114.508 24.5391C114.737 24.2141 114.939 23.8637 115.107 23.5054L118.425 25.0413C118.167 25.5945 117.854 26.133 117.502 26.6334L114.508 24.5391Z" fill="#A7A9AC"/>
</g>
<mask id="mask17_222_1153" style="mask-type:luminance" maskUnits="userSpaceOnUse" x="0" y="-7" width="136" height="60">
<path d="M135.145 -6.14307H0.00195312V52.2141H135.145V-6.14307Z" fill="white"/>
</mask>
<g mask="url(#mask17_222_1153)">
<path d="M102.866 17.8402C103.034 17.4797 103.236 17.1304 103.465 16.8065L100.47 14.7114C100.118 15.2103 99.8057 15.7492 99.5479 16.3035L102.866 17.8402Z" fill="#A7A9AC"/>
</g>
<mask id="mask18_222_1153" style="mask-type:luminance" maskUnits="userSpaceOnUse" x="0" y="-7" width="136" height="60">
<path d="M135.145 -6.14307H0.00195312V52.2141H135.145V-6.14307Z" fill="white"/>
</mask>
<g mask="url(#mask18_222_1153)">
<path d="M103.783 29.6544C104.446 30.0351 105.148 30.353 105.761 30.5306L106.891 27.0634C106.503 26.9475 106.048 26.7436 105.614 26.4942C105.181 26.2436 104.776 25.9545 104.481 25.6763L102.033 28.3858C102.493 28.8249 103.121 29.2722 103.783 29.6544Z" fill="#A7A9AC"/>
</g>
<mask id="mask19_222_1153" style="mask-type:luminance" maskUnits="userSpaceOnUse" x="0" y="-7" width="136" height="60">
<path d="M135.145 -6.14307H0.00195312V52.2141H135.145V-6.14307Z" fill="white"/>
</mask>
<g mask="url(#mask19_222_1153)">
<path d="M114.19 11.6911C114.852 12.0726 115.48 12.5206 115.94 12.9597L113.493 15.6692C113.197 15.3906 112.793 15.1015 112.359 14.8513C111.925 14.6018 111.471 14.3969 111.082 14.2817L112.212 10.8145C112.824 10.9925 113.527 11.31 114.19 11.6911Z" fill="#A7A9AC"/>
</g>
<mask id="mask20_222_1153" style="mask-type:luminance" maskUnits="userSpaceOnUse" x="0" y="-7" width="136" height="60">
<path d="M135.145 -6.14307H0.00195312V52.2141H135.145V-6.14307Z" fill="white"/>
</mask>
<g mask="url(#mask20_222_1153)">
<path d="M103.784 11.6911C103.121 12.0726 102.494 12.5206 102.033 12.9597L104.481 15.6692C104.776 15.3906 105.181 15.1015 105.614 14.8513C106.048 14.6018 106.503 14.3969 106.891 14.2817L105.761 10.8145C105.148 10.9925 104.446 11.31 103.784 11.6911Z" fill="#A7A9AC"/>
</g>
<mask id="mask21_222_1153" style="mask-type:luminance" maskUnits="userSpaceOnUse" x="0" y="-7" width="136" height="60">
<path d="M135.145 -6.14307H0.00195312V52.2141H135.145V-6.14307Z" fill="white"/>
</mask>
<g mask="url(#mask21_222_1153)">
<path d="M114.189 29.6544C113.526 30.0351 112.823 30.353 112.211 30.5306L111.081 27.0634C111.47 26.9475 111.924 26.7436 112.358 26.4942C112.792 26.2436 113.196 25.9545 113.492 25.6763L115.939 28.3858C115.48 28.8249 114.852 29.2722 114.189 29.6544Z" fill="#A7A9AC"/>
</g>
<mask id="mask22_222_1153" style="mask-type:luminance" maskUnits="userSpaceOnUse" x="0" y="-7" width="136" height="60">
<path d="M135.145 -6.14307H0.00195312V52.2141H135.145V-6.14307Z" fill="white"/>
</mask>
<g mask="url(#mask22_222_1153)">
<path d="M119.393 20.6725C119.392 19.91 119.316 19.1448 119.166 18.5273L115.587 19.2854C115.681 19.6789 115.731 20.1733 115.732 20.6725C115.731 21.1718 115.681 21.6662 115.587 22.0597L119.166 22.8177C119.316 22.2003 119.392 21.4347 119.393 20.6725Z" fill="#A7A9AC"/>
</g>
<mask id="mask23_222_1153" style="mask-type:luminance" maskUnits="userSpaceOnUse" x="0" y="-7" width="136" height="60">
<path d="M135.145 -6.14307H0.00195312V52.2141H135.145V-6.14307Z" fill="white"/>
</mask>
<g mask="url(#mask23_222_1153)">
<path d="M98.5801 20.6725C98.5808 19.91 98.6559 19.1448 98.8075 18.5273L102.385 19.2854C102.291 19.6789 102.242 20.1733 102.241 20.6725C102.242 21.1718 102.291 21.6662 102.385 22.0597L98.8075 22.8177C98.6559 22.2003 98.5805 21.4347 98.5801 20.6725Z" fill="#A7A9AC"/>
</g>
<path d="M52.623 32.3351H53.1931V27.9979H52.623V32.3351ZM61.1983 31.4828L59.1456 28.0092L59.1384 27.9976H58.4213V32.3351H58.9681V28.7175L61.0988 32.3235L61.1056 32.3351H61.7435V27.9976H61.1983V31.4828ZM67.5328 27.9976H66.371V32.3351H67.5208C68.9078 32.3351 69.7356 31.5303 69.7356 30.1816V30.127C69.7356 28.7938 68.9127 27.9976 67.5328 27.9976ZM69.1472 30.1753C69.1472 31.2632 68.5659 31.8624 67.5092 31.8624H66.9421V28.4635H67.5024C68.862 28.4635 69.1472 29.3682 69.1472 30.127V30.1753ZM73.7904 32.3351H74.3608V27.9979H73.7904V32.3351ZM80.3925 28.0133L80.3876 27.9976H79.6678L78.181 32.304L78.1705 32.3351H78.7135L79.1289 31.0987H80.8724L81.289 32.319L81.2942 32.3351H81.8605L80.3925 28.0133ZM79.2892 30.6383L80.0037 28.5253L80.7174 30.6383H79.2892Z" fill="white"/>
<path d="M15.3994 17.2796H19.5675V21.8015C18.4594 22.2481 17.1591 22.4422 15.327 22.4422C11.4149 22.4422 8.68178 20.0505 8.68178 16.6263C8.68178 13.2017 11.4149 10.81 15.327 10.81C17.2656 10.81 19.3664 11.3037 20.6795 12.0685L21.725 12.677V10.4802L21.3489 10.2868C19.8032 9.49022 17.6079 9.0332 15.327 9.0332C9.75279 9.0332 5.70703 12.2263 5.70703 16.6263C5.70703 21.0259 9.75279 24.2194 15.327 24.2194C18.0049 24.2194 20.2937 23.7093 22.1317 22.7025L22.4916 22.505V15.5025H15.3994V17.2796ZM29.8465 18.9783C29.8465 21.2555 29.3279 22.2066 26.1171 22.2066H25.0637V23.9838H26.1171C30.5321 23.9838 32.7706 22.3461 32.7706 19.1159V9.26844H29.8465V18.9783ZM37.3305 23.9838H49.0519V22.2066H40.2549V17.2793H45.9864V15.5025H40.2549V11.0453H49.0519V9.26844H37.3305V23.9838ZM58.2032 9.26844H52.6493V23.9838H55.5733V17.6129H58.2032C62.2884 17.6129 64.7284 16.0567 64.7284 13.4508C64.7284 10.8317 62.2888 9.26844 58.2032 9.26844ZM58.2032 15.8357H55.5733V11.0453H58.2032C61.3761 11.0453 61.8039 12.2611 61.8039 13.4508C61.8043 14.6299 61.3761 15.8357 58.2032 15.8357ZM80.8259 21.2387C79.5372 21.9698 77.564 22.4422 75.7991 22.4422C71.9012 22.4422 69.2819 20.1048 69.2819 16.6263C69.2819 13.1474 71.911 10.81 75.8247 10.81C77.5085 10.81 79.3492 11.2431 80.5151 11.9133L81.5569 12.5124V10.3414L81.1797 10.1481C79.7924 9.43973 77.841 9.0332 75.8243 9.0332C70.3101 9.0332 66.306 12.2263 66.306 16.6263C66.306 21.0259 70.2985 24.2194 75.7988 24.2194C77.9858 24.2194 80.0085 23.787 81.4946 23.0017L81.8638 22.8064V20.65L80.8259 21.2387Z" fill="white"/>
<path d="M6.81954 38.5007C6.8368 38.5437 6.86794 38.583 6.91335 38.6181C6.95876 38.6536 7.02105 38.6862 7.10099 38.715C7.18054 38.7442 7.28299 38.7715 7.40758 38.7973C7.65938 38.853 7.84552 38.9304 7.96485 39.0295C8.08419 39.1282 8.14423 39.2647 8.14423 39.439C8.14423 39.5355 8.12509 39.6238 8.08681 39.7031C8.04854 39.7827 7.99562 39.8508 7.92845 39.9065C7.86128 39.9622 7.78022 40.0052 7.68565 40.0355C7.59109 40.0655 7.48751 40.0804 7.37568 40.0804C7.1948 40.0804 7.02968 40.0512 6.87995 39.9933C6.73022 39.9353 6.58762 39.8452 6.45215 39.7233L6.61051 39.5366C6.72872 39.644 6.84843 39.7236 6.96889 39.7764C7.08935 39.8291 7.2282 39.8553 7.38544 39.8553C7.53817 39.8553 7.66051 39.8197 7.75208 39.7491C7.84364 39.6784 7.88942 39.5849 7.88942 39.4686C7.88942 39.4147 7.88079 39.3672 7.86353 39.325C7.84627 39.2834 7.81625 39.2449 7.77272 39.2105C7.72956 39.1761 7.66989 39.1451 7.59296 39.117C7.51603 39.089 7.41884 39.0624 7.29988 39.0362C7.17041 39.0086 7.05745 38.976 6.96176 38.9394C6.86569 38.9027 6.78614 38.859 6.72384 38.807C6.66117 38.7554 6.61464 38.6955 6.58462 38.6267C6.55422 38.5579 6.53921 38.4764 6.53921 38.3818C6.53921 38.2916 6.55722 38.209 6.594 38.1338C6.63078 38.0586 6.68219 37.9936 6.74899 37.939C6.81578 37.8844 6.89459 37.841 6.98465 37.8099C7.07509 37.7785 7.17416 37.7632 7.28187 37.7632C7.44773 37.7632 7.59259 37.786 7.71642 37.8312C7.84026 37.8769 7.95997 37.9453 8.07631 38.0369L7.9277 38.2329C7.82225 38.1473 7.71642 38.0848 7.60947 38.0463C7.50252 38.0078 7.39144 37.9887 7.27511 37.9887C7.20193 37.9887 7.13551 37.998 7.07659 38.0175C7.0173 38.0369 6.96664 38.0627 6.92461 38.0949C6.88258 38.1271 6.85031 38.1656 6.82779 38.2112C6.80528 38.2561 6.79402 38.3047 6.79402 38.3563C6.79364 38.4094 6.80227 38.4577 6.81954 38.5007Z" fill="white"/>
<path d="M10.24 39.5814C10.1946 39.6887 10.1349 39.7793 10.0606 39.8537C9.98632 39.9277 9.90151 39.9846 9.80544 40.0242C9.70937 40.0639 9.61105 40.0837 9.50973 40.0837C9.43205 40.0837 9.36112 40.0743 9.29658 40.0549C9.23203 40.0354 9.17386 40.0096 9.12208 39.9775C9.07029 39.9453 9.02338 39.9075 8.98135 39.8649C8.93932 39.8219 8.90217 39.777 8.8699 39.7295V40.5631H8.62109V38.3843H8.8699V38.719C8.90442 38.6696 8.9427 38.6225 8.98473 38.5773C9.02676 38.5324 9.07367 38.4931 9.12545 38.4602C9.17724 38.4273 9.23466 38.4 9.29808 38.3794C9.3615 38.3592 9.43205 38.3491 9.50935 38.3491C9.60842 38.3491 9.70562 38.3682 9.80169 38.4067C9.89775 38.4452 9.98294 38.5017 10.0587 38.5758C10.1342 38.6498 10.1942 38.7403 10.2396 38.848C10.285 38.9557 10.3075 39.0773 10.3075 39.2145C10.3075 39.3518 10.2854 39.4741 10.24 39.5814ZM10.0058 38.9516C9.97468 38.8727 9.9319 38.8046 9.87824 38.7485C9.8242 38.6921 9.76191 38.6483 9.69061 38.6184C9.61968 38.5888 9.54425 38.5739 9.46432 38.5739C9.38664 38.5739 9.31196 38.5892 9.23991 38.6203C9.16786 38.6513 9.10331 38.6943 9.04627 38.75C8.98923 38.8054 8.9442 38.8727 8.91043 38.9516C8.87703 39.0309 8.86051 39.118 8.86051 39.2142C8.86051 39.3106 8.87703 39.3985 8.91043 39.4786C8.94382 39.5586 8.98886 39.6267 9.04627 39.682C9.10331 39.7374 9.16786 39.7807 9.23991 39.8118C9.31196 39.8428 9.38702 39.8582 9.46432 39.8582C9.54388 39.8582 9.62006 39.844 9.69211 39.8152C9.76416 39.7864 9.82645 39.7448 9.87937 39.6902C9.93228 39.6356 9.97393 39.5683 10.0055 39.4883C10.0366 39.4083 10.0524 39.3181 10.0524 39.2175C10.0527 39.1192 10.037 39.0309 10.0058 38.9516Z" fill="white"/>
<path d="M12.3375 39.5511C12.2932 39.6573 12.2325 39.7501 12.1551 39.8297C12.0775 39.909 11.9852 39.9719 11.8775 40.0179C11.7697 40.0642 11.6534 40.0874 11.5288 40.0874C11.4039 40.0874 11.2887 40.0642 11.1832 40.0179C11.0778 39.9719 10.9862 39.9098 10.9085 39.8312C10.8308 39.7531 10.7708 39.6614 10.7276 39.5564C10.6845 39.4513 10.6631 39.3394 10.6631 39.2213C10.6631 39.1031 10.6845 38.9913 10.7276 38.885C10.7708 38.7788 10.8308 38.6861 10.9085 38.6068C10.9862 38.5271 11.0781 38.4643 11.1847 38.4183C11.2913 38.3723 11.408 38.3491 11.5352 38.3491C11.6602 38.3491 11.7758 38.3723 11.8823 38.4183C11.9889 38.4643 12.0808 38.5268 12.1585 38.6049C12.2362 38.6835 12.2962 38.7751 12.3394 38.8802C12.3826 38.9853 12.404 39.0967 12.404 39.2149C12.404 39.3331 12.3818 39.4449 12.3375 39.5511ZM12.1019 38.9658C12.0707 38.8865 12.0272 38.8177 11.9713 38.7586C11.9154 38.6999 11.8497 38.6532 11.7743 38.6191C11.6988 38.5847 11.617 38.5675 11.5288 38.5675C11.4384 38.5675 11.3555 38.584 11.28 38.6173C11.2046 38.6506 11.1408 38.6966 11.0879 38.7553C11.035 38.814 10.9937 38.8828 10.9633 38.961C10.9329 39.0391 10.9179 39.1233 10.9179 39.213C10.9179 39.3028 10.9337 39.3877 10.9648 39.467C10.9959 39.5459 11.0391 39.6147 11.0939 39.6723C11.1487 39.7299 11.214 39.7759 11.2894 39.8103C11.3648 39.8447 11.4466 39.8619 11.5348 39.8619C11.6253 39.8619 11.7082 39.8454 11.7836 39.8122C11.8591 39.7789 11.9236 39.7333 11.9776 39.6757C12.0313 39.6181 12.0733 39.55 12.1034 39.4718C12.1338 39.3937 12.1488 39.3095 12.1488 39.2198C12.1488 39.1296 12.133 39.0451 12.1019 38.9658Z" fill="white"/>
<path d="M13.1013 40.0485H12.8525V38.3846H13.1013V38.6741C13.1573 38.584 13.2304 38.5073 13.3209 38.4441C13.4113 38.3805 13.5288 38.3491 13.6729 38.3491C13.7742 38.3491 13.8639 38.3652 13.9427 38.3974C14.0215 38.4295 14.0879 38.4752 14.1431 38.5339C14.1979 38.593 14.2399 38.6633 14.2688 38.7448C14.2981 38.8263 14.3123 38.9165 14.3123 39.0152V40.0485H14.0635V39.0762C14.0635 38.9217 14.0237 38.7994 13.9442 38.7096C13.8646 38.6195 13.7502 38.5746 13.6016 38.5746C13.5306 38.5746 13.4642 38.5866 13.4031 38.6117C13.3415 38.636 13.2882 38.6715 13.2432 38.7179C13.1978 38.7639 13.1629 38.8192 13.1381 38.8835C13.1134 38.9479 13.101 39.0186 13.101 39.0956L13.1013 40.0485Z" fill="white"/>
<path d="M15.9419 39.792C15.9107 39.8533 15.8687 39.9053 15.8158 39.9483C15.7629 39.9909 15.7006 40.0239 15.6285 40.0467C15.5565 40.0691 15.4784 40.0803 15.3944 40.0803C15.2739 40.0803 15.1519 40.0583 15.0292 40.0141C14.9065 39.9704 14.7977 39.9109 14.7031 39.8354L14.8288 39.6585C14.9193 39.7273 15.0135 39.7796 15.1114 39.8159C15.2094 39.8526 15.3077 39.8705 15.4071 39.8705C15.5084 39.8705 15.591 39.847 15.6559 39.7998C15.7205 39.7527 15.7527 39.6884 15.7527 39.6069V39.6001C15.7527 39.5594 15.7415 39.5238 15.7186 39.4939C15.6961 39.464 15.6653 39.4378 15.6267 39.415C15.588 39.3926 15.5433 39.3727 15.4927 39.3555C15.442 39.3383 15.3899 39.3223 15.3362 39.3073C15.2717 39.2879 15.2064 39.2673 15.1407 39.2445C15.075 39.2217 15.0157 39.1936 14.9632 39.1592C14.9106 39.1248 14.8675 39.0818 14.8341 39.0302C14.8007 38.9786 14.7842 38.9142 14.7842 38.8368V38.8305C14.7842 38.7598 14.7981 38.6947 14.8262 38.6356C14.854 38.5769 14.8934 38.5264 14.944 38.4845C14.9947 38.443 15.0548 38.4105 15.1249 38.388C15.1951 38.3652 15.2709 38.354 15.3527 38.354C15.4559 38.354 15.5606 38.3708 15.6661 38.4041C15.7715 38.4374 15.8672 38.4819 15.9535 38.5376L15.8406 38.7243C15.7629 38.6749 15.6818 38.6356 15.597 38.6068C15.5118 38.578 15.4285 38.5634 15.3467 38.5634C15.2476 38.5634 15.1688 38.5866 15.111 38.633C15.0529 38.679 15.024 38.7362 15.024 38.805V38.8118C15.024 38.8503 15.0356 38.8839 15.0596 38.9131C15.0833 38.9423 15.1148 38.9677 15.1549 38.9887C15.1947 39.0104 15.2405 39.0294 15.2923 39.0466C15.3441 39.0638 15.3977 39.081 15.4537 39.0982C15.5182 39.1177 15.5824 39.139 15.6458 39.1626C15.7092 39.1861 15.767 39.2164 15.8184 39.2527C15.8698 39.289 15.9115 39.3331 15.943 39.3847C15.9742 39.4363 15.9899 39.4999 15.9899 39.5747V39.5814C15.9888 39.6611 15.973 39.731 15.9419 39.792Z" fill="white"/>
<path d="M18.0221 39.5511C17.9778 39.6573 17.917 39.7501 17.8397 39.8297C17.762 39.909 17.6697 39.9719 17.562 40.0179C17.4543 40.0642 17.338 40.0874 17.2134 40.0874C17.0884 40.0874 16.9732 40.0642 16.8678 40.0179C16.7623 39.9719 16.6708 39.9098 16.5931 39.8312C16.5154 39.7531 16.4554 39.6614 16.4122 39.5564C16.369 39.4513 16.3477 39.3394 16.3477 39.2213C16.3477 39.1031 16.369 38.9913 16.4122 38.885C16.4554 38.7788 16.5154 38.6861 16.5931 38.6068C16.6708 38.5271 16.7627 38.4643 16.8693 38.4183C16.9759 38.3723 17.0926 38.3491 17.2198 38.3491C17.3447 38.3491 17.4603 38.3723 17.5669 38.4183C17.6735 38.4643 17.7654 38.5268 17.8431 38.6049C17.9208 38.6835 17.9808 38.7751 18.024 38.8802C18.0671 38.9853 18.0885 39.0967 18.0885 39.2149C18.0881 39.3331 18.066 39.4449 18.0221 39.5511ZM17.7861 38.9658C17.7549 38.8865 17.7114 38.8177 17.6555 38.7586C17.5995 38.6999 17.5339 38.6532 17.4584 38.6191C17.383 38.5847 17.3012 38.5675 17.213 38.5675C17.1226 38.5675 17.0397 38.584 16.9642 38.6173C16.8888 38.6506 16.825 38.6966 16.7721 38.7553C16.7192 38.814 16.6779 38.8828 16.6475 38.961C16.6171 39.0391 16.6021 39.1233 16.6021 39.213C16.6021 39.3028 16.6178 39.3877 16.649 39.467C16.6801 39.5459 16.7233 39.6147 16.7781 39.6723C16.8329 39.7299 16.8982 39.7759 16.9736 39.8103C17.049 39.8447 17.1308 39.8619 17.219 39.8619C17.3095 39.8619 17.3924 39.8454 17.4678 39.8122C17.5433 39.7789 17.6078 39.7333 17.6618 39.6757C17.7155 39.6181 17.7575 39.55 17.7876 39.4718C17.818 39.3937 17.833 39.3095 17.833 39.2198C17.833 39.1296 17.8176 39.0451 17.7861 38.9658Z" fill="white"/>
<path d="M18.7859 40.0483H18.5371V38.3845H18.7859V38.8187C18.8163 38.7499 18.8538 38.6866 18.8989 38.6287C18.9443 38.5711 18.9957 38.521 19.0539 38.4795C19.112 38.4376 19.1754 38.4058 19.2445 38.3845C19.3135 38.3628 19.3875 38.3531 19.4674 38.3553V38.6227H19.4483C19.3578 38.6227 19.2723 38.6388 19.1912 38.6709C19.1105 38.7031 19.04 38.7513 18.9799 38.816C18.9195 38.8804 18.8722 38.9604 18.8377 39.0558C18.8032 39.1515 18.7859 39.2615 18.7859 39.3856V40.0483Z" fill="white"/>
<path d="M19.9939 39.5478C20.0285 39.6177 20.0724 39.6764 20.1264 39.7246C20.1801 39.7729 20.2405 39.8095 20.3073 39.8342C20.3741 39.8589 20.4439 39.8713 20.5171 39.8713C20.6334 39.8713 20.7328 39.8499 20.8158 39.8069C20.8987 39.7643 20.9745 39.7071 21.0432 39.6364L21.1985 39.7748C21.1145 39.869 21.0188 39.9449 20.9111 40.0014C20.8034 40.0582 20.6698 40.087 20.5107 40.087C20.3966 40.087 20.2889 40.0657 20.1876 40.0242C20.0862 39.9823 19.9981 39.9232 19.9219 39.8469C19.8461 39.771 19.7857 39.6794 19.741 39.5721C19.6963 39.4647 19.6738 39.3465 19.6738 39.2179C19.6738 39.0978 19.6937 38.9845 19.7335 38.8783C19.7733 38.7725 19.8288 38.6801 19.8997 38.6016C19.9707 38.5234 20.0555 38.4617 20.153 38.4168C20.251 38.3716 20.3583 38.3491 20.4743 38.3491C20.597 38.3491 20.7069 38.3723 20.8038 38.4183C20.9006 38.4643 20.9824 38.5271 21.0492 38.6068C21.116 38.6861 21.1666 38.7796 21.2008 38.8865C21.2353 38.9939 21.2526 39.1091 21.2526 39.231C21.2526 39.2418 21.2526 39.2538 21.2526 39.2665C21.2526 39.2796 21.2515 39.2934 21.2496 39.3084H19.9283C19.938 39.3978 19.9594 39.4778 19.9939 39.5478ZM20.9985 39.1244C20.9918 39.0492 20.9764 38.977 20.9516 38.9086C20.9272 38.8398 20.8927 38.78 20.8492 38.7287C20.8053 38.6771 20.7516 38.6356 20.6886 38.6046C20.6255 38.5735 20.552 38.5578 20.4686 38.5578C20.3958 38.5578 20.3283 38.5724 20.2664 38.6012C20.2041 38.6304 20.1497 38.6704 20.1024 38.7205C20.0551 38.7706 20.0168 38.8304 19.9868 38.8993C19.9568 38.9681 19.9376 39.0429 19.929 39.1248L20.9985 39.1244Z" fill="white"/>
<path d="M23.03 40.0484V39.7133C22.9955 39.763 22.9572 39.8102 22.9152 39.855C22.8732 39.9003 22.8263 39.9399 22.7745 39.974C22.7227 40.008 22.6653 40.0353 22.6019 40.0547C22.5384 40.0742 22.4679 40.0835 22.3906 40.0835C22.2893 40.0835 22.1913 40.0641 22.0968 40.0256C22.0022 39.9871 21.917 39.9306 21.8416 39.8569C21.7661 39.7829 21.7061 39.6923 21.6607 39.5846C21.6153 39.4769 21.5928 39.355 21.5928 39.2178C21.5928 39.0805 21.6153 38.9582 21.6607 38.8509C21.7061 38.7439 21.7661 38.653 21.8416 38.579C21.917 38.5049 22.0022 38.4477 22.0968 38.4084C22.1913 38.3688 22.2893 38.349 22.3906 38.349C22.4683 38.349 22.5392 38.3583 22.6037 38.3778C22.6683 38.3972 22.7265 38.4227 22.7782 38.4548C22.83 38.4874 22.8769 38.5248 22.919 38.5678C22.961 38.6108 22.9981 38.6557 23.0304 38.7028V37.6982H23.2792V40.048L23.03 40.0484ZM22.9899 38.9519C22.9565 38.8729 22.9111 38.8056 22.854 38.7503C22.797 38.6949 22.7325 38.6515 22.6604 38.6205C22.5884 38.5895 22.5133 38.5741 22.436 38.5741C22.3542 38.5741 22.2776 38.5883 22.2067 38.6171C22.1358 38.6459 22.0739 38.6874 22.021 38.742C21.968 38.7966 21.926 38.8636 21.8949 38.9436C21.8637 39.024 21.848 39.1142 21.848 39.2144C21.848 39.3128 21.8637 39.4014 21.8949 39.4803C21.926 39.5596 21.9688 39.6273 22.0225 39.6837C22.0765 39.7402 22.1388 39.784 22.2101 39.8135C22.281 39.8434 22.3564 39.8584 22.4364 39.8584C22.5141 39.8584 22.5887 39.8431 22.6608 39.812C22.7328 39.781 22.7974 39.738 22.8544 39.6823C22.9115 39.6265 22.9565 39.5588 22.9903 39.4788C23.0237 39.3988 23.0402 39.3109 23.0402 39.2144C23.0398 39.1183 23.0233 39.0311 22.9899 38.9519Z" fill="white"/>
<path d="M26.4207 39.5819C26.3753 39.6892 26.3156 39.7797 26.2413 39.8541C26.167 39.9282 26.0822 39.985 25.9861 40.0247C25.89 40.0643 25.7917 40.0841 25.6904 40.0841C25.6127 40.0841 25.5418 40.0748 25.4772 40.0553C25.4127 40.0359 25.3545 40.0101 25.3027 39.9779C25.251 39.9458 25.204 39.908 25.162 39.8654C25.12 39.8224 25.0828 39.7775 25.0506 39.73V40.049H24.8018V37.6992H25.0506V38.7198C25.0851 38.6705 25.1234 38.6233 25.1654 38.5781C25.2074 38.5332 25.2543 38.4939 25.3061 38.461C25.3579 38.4281 25.4153 38.4008 25.4787 38.3803C25.5422 38.3601 25.6127 38.35 25.69 38.35C25.7891 38.35 25.8863 38.369 25.9824 38.4076C26.0784 38.4461 26.1636 38.5025 26.2394 38.5766C26.3148 38.6506 26.3749 38.7412 26.4203 38.8489C26.4657 38.9566 26.4882 39.0781 26.4882 39.2154C26.4882 39.3526 26.4661 39.4745 26.4207 39.5819ZM26.1865 38.9521C26.1553 38.8732 26.1126 38.8051 26.0589 38.749C26.0049 38.6925 25.9426 38.6488 25.8713 38.6189C25.8003 38.5893 25.7249 38.5744 25.645 38.5744C25.5673 38.5744 25.4926 38.5897 25.4206 38.6207C25.3485 38.6518 25.284 38.6948 25.2269 38.7505C25.1699 38.8059 25.1249 38.8732 25.0911 38.9521C25.0577 39.0314 25.0412 39.1185 25.0412 39.2146C25.0412 39.3111 25.0577 39.399 25.0911 39.479C25.1245 39.5591 25.1695 39.6271 25.2269 39.6825C25.284 39.7378 25.3485 39.7812 25.4206 39.8123C25.4926 39.8433 25.5677 39.8586 25.645 39.8586C25.7245 39.8586 25.8007 39.8444 25.8728 39.8156C25.9448 39.7868 26.0071 39.7453 26.06 39.6907C26.1129 39.6361 26.1546 39.5688 26.1861 39.4888C26.2173 39.4087 26.233 39.3186 26.233 39.218C26.2334 39.1196 26.2176 39.0314 26.1865 38.9521Z" fill="white"/>
<path d="M27.6838 40.1031C27.6129 40.2748 27.5337 40.396 27.4463 40.467C27.3589 40.5381 27.253 40.5732 27.1281 40.5732C27.059 40.5732 26.9967 40.5658 26.9408 40.5519C26.8849 40.5381 26.829 40.5171 26.7727 40.4891L26.8568 40.2931C26.8977 40.3144 26.9382 40.3301 26.978 40.3399C27.0177 40.3492 27.0647 40.3541 27.1187 40.3541C27.1941 40.3541 27.2575 40.3316 27.3093 40.2864C27.3611 40.2415 27.4114 40.1596 27.4613 40.0418L26.7021 38.3843H26.9768L27.584 39.7714L28.1203 38.3843H28.3852L27.6838 40.1031Z" fill="white"/>
<path d="M30.8747 39.43H30.8616L30.0379 38.2261V40.0478H29.7891V37.7949H30.0472L30.871 39.0242L31.6947 37.7949H31.9529V40.0478H31.6977V38.2228L30.8747 39.43Z" fill="white"/>
<path d="M32.5576 38.0205V37.7471H32.8417V38.0205H32.5576ZM32.5738 40.0482V38.3843H32.8226V40.0482H32.5738Z" fill="white"/>
<path d="M33.6492 40.0485H33.4004V38.3846H33.6492V38.6741C33.7051 38.584 33.7783 38.5073 33.8687 38.4441C33.9592 38.3805 34.0766 38.3491 34.2207 38.3491C34.322 38.3491 34.4117 38.3652 34.4905 38.3974C34.5693 38.4295 34.6358 38.4752 34.6909 38.5339C34.7457 38.593 34.7878 38.6633 34.8167 38.7448C34.8459 38.8263 34.8602 38.9165 34.8602 39.0152V40.0485H34.6114V39.0762C34.6114 38.9217 34.5716 38.7994 34.492 38.7096C34.4125 38.6195 34.298 38.5746 34.1494 38.5746C34.0785 38.5746 34.0121 38.5866 33.9509 38.6117C33.8894 38.636 33.8361 38.6715 33.791 38.7179C33.7456 38.7639 33.7107 38.8192 33.686 38.8835C33.6612 38.9479 33.6488 39.0186 33.6488 39.0956L33.6492 40.0485Z" fill="white"/>
<path d="M35.3965 38.0205V37.7471H35.6806V38.0205H35.3965ZM35.4126 40.0482V38.3843H35.6614V40.0482H35.4126Z" fill="white"/>
<path d="M37.3393 39.792C37.3082 39.8533 37.2662 39.9053 37.2133 39.9483C37.1603 39.9909 37.098 40.0239 37.026 40.0467C36.9539 40.0691 36.8759 40.0803 36.7918 40.0803C36.6714 40.0803 36.5494 40.0583 36.4267 40.0141C36.304 39.9704 36.1952 39.9109 36.1006 39.8354L36.2263 39.6585C36.3167 39.7273 36.4109 39.7796 36.5089 39.8159C36.6068 39.8526 36.7051 39.8705 36.8046 39.8705C36.9059 39.8705 36.9885 39.847 37.0534 39.7998C37.1179 39.7527 37.1502 39.6884 37.1502 39.6069V39.6001C37.1502 39.5594 37.139 39.5238 37.1161 39.4939C37.0935 39.464 37.0628 39.4378 37.0241 39.415C36.9855 39.3926 36.9408 39.3727 36.8901 39.3555C36.8395 39.3383 36.7873 39.3223 36.7337 39.3073C36.6691 39.2879 36.6038 39.2673 36.5381 39.2445C36.4725 39.2217 36.4132 39.1936 36.3606 39.1592C36.3081 39.1248 36.265 39.0818 36.2316 39.0302C36.1982 38.9786 36.1816 38.9142 36.1816 38.8368V38.8305C36.1816 38.7598 36.1955 38.6947 36.2237 38.6356C36.2514 38.5769 36.2908 38.5264 36.3415 38.4845C36.3922 38.443 36.4522 38.4105 36.5224 38.388C36.5926 38.3652 36.6684 38.354 36.7502 38.354C36.8534 38.354 36.9581 38.3708 37.0635 38.4041C37.169 38.4374 37.2647 38.4819 37.351 38.5376L37.238 38.7243C37.1603 38.6749 37.0793 38.6356 36.9945 38.6068C36.9093 38.578 36.826 38.5634 36.7442 38.5634C36.6451 38.5634 36.5663 38.5866 36.5085 38.633C36.4503 38.679 36.4214 38.7362 36.4214 38.805V38.8118C36.4214 38.8503 36.4331 38.8839 36.4571 38.9131C36.4807 38.9423 36.5123 38.9677 36.5524 38.9887C36.5922 39.0104 36.638 39.0294 36.6898 39.0466C36.7415 39.0638 36.7952 39.081 36.8511 39.0982C36.9157 39.1177 36.9798 39.139 37.0433 39.1626C37.1067 39.1861 37.1645 39.2164 37.2159 39.2527C37.2673 39.289 37.3089 39.3331 37.3405 39.3847C37.3716 39.4363 37.3874 39.4999 37.3874 39.5747V39.5814C37.3859 39.6611 37.3705 39.731 37.3393 39.792Z" fill="white"/>
<path d="M38.1539 39.5749C38.1539 39.6777 38.1798 39.7499 38.2316 39.7907C38.2834 39.8314 38.351 39.8516 38.435 39.8516C38.4778 39.8516 38.5183 39.8475 38.5562 39.8389C38.5938 39.8307 38.6343 39.8154 38.6774 39.794V40.0061C38.6343 40.0297 38.5885 40.0476 38.5401 40.0596C38.4917 40.0712 38.4373 40.0771 38.3769 40.0771C38.3101 40.0771 38.2478 40.0689 38.1896 40.0517C38.1314 40.0345 38.0811 40.0072 38.0395 39.9694C37.9978 39.9317 37.9648 39.8834 37.9412 39.8228C37.9175 39.763 37.9055 39.6908 37.9055 39.6074V38.6029H37.6729V38.3841H37.9055V37.8818H38.1543V38.3841H38.6842V38.6029H38.1543L38.1539 39.5749Z" fill="white"/>
<path d="M39.3719 40.0483H39.123V38.3845H39.3719V38.8187C39.4022 38.7499 39.4398 38.6866 39.4848 38.6287C39.5302 38.5711 39.5816 38.521 39.6398 38.4795C39.698 38.4376 39.7614 38.4058 39.8304 38.3845C39.8995 38.3628 39.9734 38.3531 40.0533 38.3553V38.6227H40.0342C39.9438 38.6227 39.8582 38.6388 39.7771 38.6709C39.6965 38.7031 39.6259 38.7513 39.5659 38.816C39.5054 38.8804 39.4582 38.9604 39.4236 39.0558C39.3891 39.1515 39.3719 39.2615 39.3719 39.3856V40.0483Z" fill="white"/>
<path d="M41.2454 40.1031C41.1744 40.2748 41.0953 40.396 41.0078 40.467C40.9204 40.5381 40.8146 40.5732 40.6896 40.5732C40.6205 40.5732 40.5583 40.5658 40.5023 40.5519C40.4464 40.5381 40.3905 40.5171 40.3342 40.4891L40.4183 40.2931C40.4592 40.3144 40.4997 40.3301 40.5395 40.3399C40.5793 40.3492 40.6262 40.3541 40.6802 40.3541C40.7556 40.3541 40.8191 40.3316 40.8709 40.2864C40.9226 40.2415 40.9729 40.1596 41.0228 40.0418L40.2637 38.3843H40.5384L41.1456 39.7714L41.6818 38.3843H41.9467L41.2454 40.1031Z" fill="white"/>
<path d="M44.8805 39.5511C44.8362 39.6573 44.7754 39.7501 44.6981 39.8297C44.6204 39.909 44.5281 39.9719 44.4204 40.0179C44.3127 40.0642 44.1964 40.0874 44.0718 40.0874C43.9468 40.0874 43.8316 40.0642 43.7262 40.0179C43.6207 39.9719 43.5292 39.9098 43.4515 39.8312C43.3738 39.7531 43.3138 39.6614 43.2706 39.5564C43.2274 39.4513 43.2061 39.3394 43.2061 39.2213C43.2061 39.1031 43.2274 38.9913 43.2706 38.885C43.3138 38.7788 43.3738 38.6861 43.4515 38.6068C43.5292 38.5271 43.6211 38.4643 43.7277 38.4183C43.8343 38.3723 43.951 38.3491 44.0782 38.3491C44.2031 38.3491 44.3187 38.3723 44.4253 38.4183C44.5319 38.4643 44.6238 38.5268 44.7015 38.6049C44.7792 38.6835 44.8392 38.7751 44.8824 38.8802C44.9255 38.9853 44.9469 39.0967 44.9469 39.2149C44.9469 39.3331 44.9248 39.4449 44.8805 39.5511ZM44.6448 38.9658C44.6137 38.8865 44.5702 38.8177 44.5142 38.7586C44.4583 38.6999 44.3927 38.6532 44.3172 38.6191C44.2418 38.5847 44.16 38.5675 44.0718 38.5675C43.9814 38.5675 43.8984 38.584 43.823 38.6173C43.7476 38.6506 43.6838 38.6966 43.6309 38.7553C43.5779 38.814 43.5367 38.8828 43.5063 38.961C43.4759 39.0391 43.4609 39.1233 43.4609 39.213C43.4609 39.3028 43.4766 39.3877 43.5078 39.467C43.5389 39.5459 43.5821 39.6147 43.6369 39.6723C43.6917 39.7299 43.7569 39.7759 43.8324 39.8103C43.9078 39.8447 43.9896 39.8619 44.0778 39.8619C44.1682 39.8619 44.2512 39.8454 44.3266 39.8122C44.402 39.7789 44.4666 39.7333 44.5206 39.6757C44.5743 39.6181 44.6163 39.55 44.6463 39.4718C44.6767 39.3937 44.6917 39.3095 44.6917 39.2198C44.6917 39.1296 44.676 39.0451 44.6448 38.9658Z" fill="white"/>
<path d="M46.2644 38.3905V38.6029H45.7379V40.048H45.4891V38.6029H45.2598V38.3871H45.4891V38.2424C45.4891 38.0599 45.5326 37.9215 45.62 37.8273C45.7071 37.7327 45.8313 37.6855 45.993 37.6855C46.0512 37.6855 46.1011 37.6889 46.1431 37.6953C46.1852 37.7016 46.2268 37.7125 46.2677 37.7274V37.9428C46.2223 37.9301 46.1818 37.9197 46.145 37.9122C46.1082 37.9047 46.0685 37.9013 46.0257 37.9013C45.8317 37.9013 45.7352 38.0191 45.7352 38.2551V38.3901H46.2644V38.3905Z" fill="white"/>
<path d="M49.3475 39.8533C49.2841 39.9015 49.2154 39.9427 49.1426 39.9771C49.0694 40.0115 48.9906 40.0384 48.9069 40.0575C48.8229 40.0769 48.7294 40.0867 48.6259 40.0867C48.4619 40.0867 48.3114 40.0564 48.1737 39.9965C48.0359 39.9367 47.9162 39.8544 47.8149 39.7505C47.7136 39.6465 47.6348 39.5234 47.5777 39.3821C47.5207 39.2403 47.4922 39.0881 47.4922 38.9247C47.4922 38.7639 47.5207 38.6124 47.5777 38.471C47.6348 38.3293 47.714 38.2051 47.8149 38.0993C47.9162 37.9931 48.0367 37.9093 48.1767 37.848C48.3166 37.787 48.4694 37.7563 48.6352 37.7563C48.7384 37.7563 48.8319 37.7649 48.9148 37.7818C48.9978 37.7994 49.0747 37.8233 49.1456 37.8543C49.2165 37.8854 49.2822 37.9231 49.3426 37.9669C49.4027 38.011 49.4608 38.0597 49.5168 38.1135L49.3426 38.3001C49.2458 38.2104 49.1419 38.1363 49.0308 38.078C48.9197 38.0204 48.7869 37.9912 48.6319 37.9912C48.5069 37.9912 48.3913 38.0148 48.2848 38.0619C48.1782 38.1094 48.0855 38.1748 48.0071 38.2582C47.9286 38.3416 47.8671 38.44 47.8228 38.5526C47.7785 38.6655 47.7567 38.7871 47.7567 38.9183C47.7567 39.0492 47.7789 39.1715 47.8228 39.2848C47.8671 39.3989 47.9282 39.4973 48.0071 39.581C48.0859 39.6648 48.1782 39.7306 48.2848 39.7789C48.3913 39.8271 48.5069 39.8511 48.6319 39.8511C48.7869 39.8511 48.9205 39.823 49.0323 39.7658C49.1441 39.7086 49.2541 39.6289 49.3618 39.5257L49.5299 39.6899C49.4717 39.7508 49.4109 39.8051 49.3475 39.8533Z" fill="white"/>
<path d="M51.4752 39.5511C51.4309 39.6573 51.3702 39.7501 51.2928 39.8297C51.2152 39.909 51.1228 39.9719 51.0151 40.0179C50.9074 40.0642 50.7911 40.0874 50.6665 40.0874C50.5416 40.0874 50.4264 40.0642 50.3209 40.0179C50.2155 39.9719 50.1239 39.9098 50.0462 39.8312C49.9685 39.7531 49.9085 39.6614 49.8653 39.5564C49.8222 39.4513 49.8008 39.3394 49.8008 39.2213C49.8008 39.1031 49.8222 38.9913 49.8653 38.885C49.9085 38.7788 49.9685 38.6861 50.0462 38.6068C50.1239 38.5271 50.2158 38.4643 50.3224 38.4183C50.429 38.3723 50.5457 38.3491 50.6729 38.3491C50.7979 38.3491 50.9134 38.3723 51.02 38.4183C51.1266 38.4643 51.2185 38.5268 51.2962 38.6049C51.3739 38.6835 51.4339 38.7751 51.4771 38.8802C51.5203 38.9853 51.5416 39.0967 51.5416 39.2149C51.5416 39.3331 51.5195 39.4449 51.4752 39.5511ZM51.2396 38.9658C51.2084 38.8865 51.1649 38.8177 51.109 38.7586C51.053 38.6999 50.9874 38.6532 50.9119 38.6191C50.8365 38.5847 50.7547 38.5675 50.6665 38.5675C50.5761 38.5675 50.4931 38.584 50.4177 38.6173C50.3423 38.6506 50.2785 38.6966 50.2256 38.7553C50.1727 38.814 50.1314 38.8828 50.101 38.961C50.0706 39.0391 50.0556 39.1233 50.0556 39.213C50.0556 39.3028 50.0713 39.3877 50.1025 39.467C50.1336 39.5459 50.1768 39.6147 50.2316 39.6723C50.2864 39.7299 50.3517 39.7759 50.4271 39.8103C50.5025 39.8447 50.5843 39.8619 50.6725 39.8619C50.763 39.8619 50.8459 39.8454 50.9213 39.8122C50.9968 39.7789 51.0613 39.7333 51.1153 39.6757C51.169 39.6181 51.211 39.55 51.2411 39.4718C51.2715 39.3937 51.2865 39.3095 51.2865 39.2198C51.2865 39.1296 51.2707 39.0451 51.2396 38.9658Z" fill="white"/>
<path d="M53.4168 38.5514C53.4543 38.5107 53.4971 38.4752 53.5444 38.4452C53.5916 38.4153 53.6449 38.3914 53.7042 38.3746C53.7635 38.3573 53.8296 38.3491 53.9027 38.3491C54.0964 38.3491 54.2484 38.4086 54.3579 38.5279C54.4675 38.6472 54.5227 38.8106 54.5227 39.0189V40.0489H54.2739V39.0765C54.2739 38.9157 54.2356 38.7915 54.1591 38.7048C54.0825 38.6184 53.9767 38.5746 53.8408 38.5746C53.7782 38.5746 53.7192 38.5855 53.663 38.6083C53.607 38.6311 53.5583 38.664 53.5158 38.7081C53.4738 38.7523 53.4404 38.8065 53.4157 38.8708C53.3909 38.9355 53.3785 39.0081 53.3785 39.09V40.0489H53.1331V39.0705C53.1331 38.9138 53.0948 38.7919 53.0182 38.7048C52.9417 38.6184 52.837 38.5746 52.7034 38.5746C52.6366 38.5746 52.5754 38.5873 52.5195 38.6132C52.4636 38.639 52.4144 38.6756 52.3724 38.7227C52.3304 38.7699 52.2974 38.8252 52.2737 38.8884C52.2501 38.9516 52.2381 39.0219 52.2381 39.099V40.0485H51.9893V38.3846H52.2381V38.6644C52.2662 38.624 52.2966 38.584 52.33 38.5455C52.3634 38.5066 52.4017 38.4733 52.4448 38.4441C52.488 38.4149 52.5364 38.3918 52.5901 38.3746C52.6441 38.3573 52.7064 38.3491 52.7777 38.3491C52.9132 38.3491 53.0254 38.3805 53.1136 38.4441C53.2017 38.5073 53.2685 38.5862 53.314 38.6805C53.3451 38.6348 53.3789 38.5922 53.4168 38.5514Z" fill="white"/>
<path d="M56.4881 38.5514C56.5256 38.5107 56.5684 38.4752 56.6157 38.4452C56.6629 38.4153 56.7162 38.3914 56.7755 38.3746C56.8348 38.3573 56.9009 38.3491 56.974 38.3491C57.1677 38.3491 57.3197 38.4086 57.4292 38.5279C57.5388 38.6472 57.594 38.8106 57.594 39.0189V40.0489H57.3452V39.0765C57.3452 38.9157 57.3069 38.7915 57.2303 38.7048C57.1538 38.6184 57.048 38.5746 56.9121 38.5746C56.8494 38.5746 56.7905 38.5855 56.7342 38.6083C56.6783 38.6311 56.6295 38.664 56.5871 38.7081C56.5451 38.7523 56.5117 38.8065 56.4869 38.8708C56.4622 38.9355 56.4498 39.0081 56.4498 39.09V40.0489H56.2044V39.0705C56.2044 38.9138 56.1661 38.7919 56.0895 38.7048C56.013 38.6184 55.9083 38.5746 55.7747 38.5746C55.7079 38.5746 55.6467 38.5873 55.5908 38.6132C55.5349 38.639 55.4857 38.6756 55.4437 38.7227C55.4017 38.7699 55.3686 38.8252 55.345 38.8884C55.3214 38.9516 55.3093 39.0219 55.3093 39.099V40.0485H55.0605V38.3846H55.3093V38.6644C55.3375 38.624 55.3679 38.584 55.4013 38.5455C55.4347 38.5066 55.473 38.4733 55.5161 38.4441C55.5593 38.4149 55.6077 38.3918 55.6613 38.3746C55.7154 38.3573 55.7777 38.3491 55.849 38.3491C55.9845 38.3491 56.0967 38.3805 56.1848 38.4441C56.273 38.5073 56.3398 38.5862 56.3852 38.6805C56.4168 38.6348 56.4505 38.5922 56.4881 38.5514Z" fill="white"/>
<path d="M58.3504 39.5478C58.3849 39.6177 58.4288 39.6764 58.4828 39.7246C58.5365 39.7729 58.5969 39.8095 58.6637 39.8342C58.7305 39.8589 58.8003 39.8713 58.8735 39.8713C58.9898 39.8713 59.0893 39.8499 59.1722 39.8069C59.2551 39.7643 59.331 39.7071 59.3996 39.6364L59.555 39.7748C59.4709 39.869 59.3752 39.9449 59.2675 40.0014C59.1598 40.0582 59.0262 40.087 58.8671 40.087C58.753 40.087 58.6453 40.0657 58.544 40.0242C58.4427 39.9823 58.3545 39.9232 58.2783 39.8469C58.2025 39.771 58.1421 39.6794 58.0974 39.5721C58.0528 39.4647 58.0303 39.3465 58.0303 39.2179C58.0303 39.0978 58.0502 38.9845 58.0899 38.8783C58.1297 38.7725 58.1853 38.6801 58.2562 38.6016C58.3271 38.5234 58.4119 38.4617 58.5095 38.4168C58.6074 38.3716 58.7148 38.3491 58.8307 38.3491C58.9534 38.3491 59.0634 38.3723 59.1602 38.4183C59.257 38.4643 59.3388 38.5271 59.4056 38.6068C59.4724 38.6861 59.5231 38.7796 59.5572 38.8865C59.5918 38.9939 59.609 39.1091 59.609 39.231C59.609 39.2418 59.609 39.2538 59.609 39.2665C59.609 39.2796 59.6079 39.2934 59.606 39.3084H58.2847C58.2945 39.3978 58.3162 39.4778 58.3504 39.5478ZM59.355 39.1244C59.3482 39.0492 59.3328 38.977 59.3081 38.9086C59.2837 38.8398 59.2491 38.78 59.2056 38.7287C59.1617 38.6771 59.108 38.6356 59.045 38.6046C58.982 38.5735 58.9084 38.5578 58.8251 38.5578C58.7523 38.5578 58.6847 38.5724 58.6228 38.6012C58.5605 38.6304 58.5061 38.6704 58.4588 38.7205C58.4115 38.7706 58.3733 38.8304 58.3432 38.8993C58.3132 38.9681 58.2941 39.0429 58.2855 39.1248L59.355 39.1244Z" fill="white"/>
<path d="M60.2947 40.0483H60.0459V38.3845H60.2947V38.8187C60.3251 38.7499 60.3626 38.6866 60.4077 38.6287C60.4531 38.5711 60.5045 38.521 60.5626 38.4795C60.6208 38.4376 60.6842 38.4058 60.7533 38.3845C60.8223 38.3628 60.8963 38.3531 60.9762 38.3553V38.6227H60.957C60.8666 38.6227 60.781 38.6388 60.7 38.6709C60.6193 38.7031 60.5488 38.7513 60.4887 38.816C60.4283 38.8804 60.381 38.9604 60.3465 39.0558C60.312 39.1515 60.2947 39.2615 60.2947 39.3856V40.0483Z" fill="white"/>
<path d="M62.4341 39.9953C62.3276 40.0563 62.1958 40.0869 62.0386 40.0869C61.9159 40.0869 61.8022 40.0637 61.6979 40.0174C61.5935 39.9714 61.5031 39.9093 61.4265 39.8308C61.35 39.7526 61.2903 39.661 61.2472 39.5559C61.204 39.4508 61.1826 39.339 61.1826 39.2208C61.1826 39.1026 61.204 38.9908 61.2472 38.8846C61.2903 38.7783 61.35 38.6856 61.4265 38.6063C61.5031 38.5267 61.5932 38.4638 61.6979 38.4178C61.8026 38.3718 61.9159 38.3486 62.0386 38.3486C62.1182 38.3486 62.1902 38.3561 62.2551 38.3711C62.3197 38.386 62.379 38.4074 62.4326 38.4339C62.4867 38.4608 62.5358 38.4922 62.5812 38.5289C62.6266 38.5655 62.6683 38.6041 62.7073 38.6448L62.5426 38.8187C62.4758 38.7499 62.403 38.6912 62.3246 38.6418C62.2461 38.5925 62.1497 38.5678 62.0352 38.5678C61.9512 38.5678 61.8727 38.5842 61.7996 38.6175C61.7264 38.6508 61.663 38.6968 61.6093 38.7555C61.5553 38.8143 61.5136 38.8831 61.4832 38.9612C61.4528 39.0394 61.4378 39.1235 61.4378 39.2133C61.4378 39.3031 61.4536 39.3879 61.4847 39.4672C61.5159 39.5461 61.559 39.6153 61.6138 39.6744C61.6686 39.7335 61.7331 39.7791 61.8078 39.8124C61.8821 39.8457 61.9632 39.8622 62.0514 39.8622C62.1591 39.8622 62.2544 39.8386 62.3373 39.7915C62.4202 39.7444 62.4949 39.6853 62.5617 39.6142L62.7201 39.7623C62.636 39.8566 62.5407 39.9347 62.4341 39.9953Z" fill="white"/>
<path d="M63.2986 39.5478C63.3331 39.6177 63.377 39.6764 63.4311 39.7246C63.4847 39.7729 63.5452 39.8095 63.612 39.8342C63.6788 39.8589 63.7486 39.8713 63.8217 39.8713C63.9381 39.8713 64.0375 39.8499 64.1205 39.8069C64.2034 39.7643 64.2792 39.7071 64.3479 39.6364L64.5032 39.7748C64.4192 39.869 64.3235 39.9449 64.2158 40.0014C64.1081 40.0582 63.9745 40.087 63.8154 40.087C63.7013 40.087 63.5936 40.0657 63.4923 40.0242C63.3909 39.9823 63.3027 39.9232 63.2266 39.8469C63.1508 39.771 63.0903 39.6794 63.0457 39.5721C63.001 39.4647 62.9785 39.3465 62.9785 39.2179C62.9785 39.0978 62.9984 38.9845 63.0382 38.8783C63.078 38.7725 63.1335 38.6801 63.2044 38.6016C63.2754 38.5234 63.3602 38.4617 63.4577 38.4168C63.5557 38.3716 63.663 38.3491 63.779 38.3491C63.9017 38.3491 64.0116 38.3723 64.1084 38.4183C64.2053 38.4643 64.2871 38.5271 64.3539 38.6068C64.4207 38.6861 64.4713 38.7796 64.5055 38.8865C64.54 38.9939 64.5573 39.1091 64.5573 39.231C64.5573 39.2418 64.5573 39.2538 64.5573 39.2665C64.5573 39.2796 64.5561 39.2934 64.5543 39.3084H63.2329C63.2427 39.3978 63.2641 39.4778 63.2986 39.5478ZM64.3032 39.1244C64.2965 39.0492 64.2811 38.977 64.2563 38.9086C64.2319 38.8398 64.1974 38.78 64.1539 38.7287C64.1099 38.6771 64.0563 38.6356 63.9932 38.6046C63.9302 38.5735 63.8566 38.5578 63.7733 38.5578C63.7005 38.5578 63.633 38.5724 63.5711 38.6012C63.5088 38.6304 63.4544 38.6704 63.4071 38.7205C63.3598 38.7706 63.3215 38.8304 63.2915 38.8993C63.2615 38.9681 63.2423 39.0429 63.2337 39.1248L64.3032 39.1244Z" fill="white"/>
<path d="M67.6362 40.093L67.2809 39.7291C67.1773 39.841 67.0655 39.9273 66.9446 39.9883C66.8238 40.0493 66.6894 40.0799 66.5408 40.0799C66.4395 40.0799 66.3453 40.065 66.2583 40.0351C66.1712 40.0051 66.0954 39.9621 66.032 39.906C65.9685 39.8503 65.919 39.7834 65.8834 39.7048C65.8477 39.6267 65.8301 39.5406 65.8301 39.446C65.8301 39.2938 65.8774 39.1637 65.9723 39.0567C66.0669 38.9494 66.2016 38.8615 66.3761 38.7927C66.2984 38.7025 66.2417 38.6191 66.205 38.5432C66.1682 38.4669 66.1502 38.3839 66.1502 38.2938C66.1502 38.2186 66.1648 38.1483 66.1937 38.0832C66.223 38.0174 66.2631 37.9609 66.3149 37.9123C66.3667 37.8641 66.429 37.8263 66.5026 37.7982C66.5757 37.7702 66.6575 37.7563 66.748 37.7563C66.8275 37.7563 66.9007 37.7698 66.9675 37.7964C67.0343 37.8233 67.0917 37.8596 67.1401 37.9059C67.1885 37.9519 67.2268 38.0065 67.2546 38.0686C67.2827 38.1307 67.2966 38.1973 67.2966 38.268C67.2966 38.4161 67.2493 38.5369 67.1544 38.6304C67.0598 38.7235 66.9292 38.799 66.7634 38.857L67.2801 39.3817C67.3296 39.3088 67.3769 39.2302 67.422 39.1465C67.467 39.0627 67.5102 38.9737 67.5511 38.8794L67.7616 38.9759C67.7117 39.0833 67.6603 39.1842 67.6077 39.2789C67.5552 39.3731 67.4978 39.461 67.4355 39.5425L67.8291 39.9449L67.6362 40.093ZM66.5183 38.9505C66.3675 39.0062 66.2579 39.0769 66.1888 39.1625C66.1198 39.2482 66.0856 39.3398 66.0856 39.4359C66.0856 39.4984 66.0969 39.5552 66.1194 39.6068C66.1419 39.6585 66.1742 39.7033 66.2162 39.7419C66.2583 39.7804 66.3082 39.8107 66.3663 39.832C66.4245 39.8533 66.4879 39.8641 66.557 39.8641C66.6647 39.8641 66.7652 39.838 66.8591 39.7852C66.9529 39.7325 67.0403 39.6611 67.1225 39.5713L66.5183 38.9505ZM66.9675 38.054C66.9071 37.9953 66.8305 37.9658 66.7382 37.9658C66.635 37.9658 66.5521 37.9968 66.4894 38.0589C66.4268 38.1214 66.3956 38.1995 66.3956 38.2941C66.3956 38.3285 66.3994 38.3607 66.4069 38.3906C66.4144 38.4209 66.4268 38.452 66.444 38.4841C66.4613 38.5163 66.4845 38.5511 66.5134 38.5885C66.5427 38.6262 66.5784 38.6674 66.6219 38.7123C66.766 38.6629 66.8748 38.6042 66.948 38.5354C67.0212 38.4665 67.0576 38.382 67.0576 38.2811C67.058 38.1887 67.0276 38.1131 66.9675 38.054Z" fill="white"/>
<path d="M69.4993 37.7949V40.0478H69.2441V37.7949H69.4993Z" fill="white"/>
<path d="M70.3689 40.0485H70.1201V38.3846H70.3689V38.6741C70.4245 38.584 70.498 38.5073 70.5885 38.4441C70.6789 38.3805 70.7964 38.3491 70.9405 38.3491C71.0418 38.3491 71.1315 38.3652 71.2099 38.3974C71.2887 38.4295 71.3555 38.4752 71.4103 38.5339C71.4651 38.593 71.5071 38.6633 71.5364 38.7448C71.5653 38.8263 71.5799 38.9165 71.5799 39.0152V40.0485H71.3311V39.0762C71.3311 38.9217 71.2913 38.7994 71.2118 38.7096C71.1318 38.6195 71.0178 38.5746 70.8695 38.5746C70.7986 38.5746 70.7322 38.5866 70.671 38.6117C70.6095 38.636 70.5562 38.6715 70.5108 38.7179C70.4657 38.7639 70.4305 38.8192 70.4061 38.8835C70.3813 38.9479 70.3689 39.0186 70.3689 39.0956V40.0485Z" fill="white"/>
<path d="M73.4496 40.0484V39.7133C73.4151 39.763 73.3772 39.8102 73.3351 39.855C73.2931 39.9003 73.2462 39.9399 73.1944 39.974C73.1426 40.008 73.0852 40.0353 73.0218 40.0547C72.958 40.0742 72.8878 40.0835 72.8101 40.0835C72.7088 40.0835 72.6112 40.0641 72.5163 40.0256C72.4217 39.9871 72.3365 39.9306 72.2611 39.8569C72.1857 39.7829 72.1257 39.6923 72.0806 39.5846C72.0352 39.4773 72.0127 39.355 72.0127 39.2178C72.0127 39.0805 72.0352 38.9582 72.0806 38.8509C72.1257 38.7439 72.1857 38.653 72.2611 38.579C72.3365 38.5049 72.4217 38.4477 72.5163 38.4084C72.6112 38.3688 72.7092 38.349 72.8101 38.349C72.8878 38.349 72.9587 38.3583 73.0233 38.3778C73.0878 38.3972 73.146 38.4227 73.1978 38.4548C73.2496 38.4874 73.2965 38.5248 73.3381 38.5678C73.3802 38.6108 73.4173 38.6557 73.4496 38.7028V37.6982H73.6984V40.048L73.4496 40.0484ZM73.4091 38.9519C73.3757 38.8729 73.3306 38.8056 73.2736 38.7503C73.2166 38.6949 73.152 38.6515 73.0796 38.6205C73.0071 38.5895 72.9325 38.5741 72.8552 38.5741C72.773 38.5741 72.6968 38.5883 72.6259 38.6171C72.555 38.6459 72.493 38.6874 72.4401 38.742C72.3872 38.7966 72.3456 38.8636 72.3144 38.9436C72.2829 39.024 72.2675 39.1142 72.2675 39.2144C72.2675 39.3128 72.2829 39.4014 72.3144 39.4803C72.3456 39.5596 72.388 39.6273 72.442 39.6837C72.496 39.7402 72.5583 39.784 72.6293 39.8135C72.7002 39.8434 72.7756 39.8584 72.8555 39.8584C72.9328 39.8584 73.0075 39.8431 73.08 39.812C73.1524 39.781 73.2166 39.738 73.274 39.6823C73.3314 39.6265 73.376 39.5588 73.4094 39.4788C73.4428 39.3988 73.4597 39.3109 73.4597 39.2144C73.4593 39.1183 73.4425 39.0311 73.4091 38.9519Z" fill="white"/>
<path d="M75.4385 38.3843H75.684V40.0482H75.4385V39.7587C75.383 39.8488 75.3094 39.9255 75.219 39.9887C75.1286 40.0519 75.0111 40.0837 74.867 40.0837C74.7657 40.0837 74.676 40.0676 74.5976 40.0354C74.5187 40.0033 74.4519 39.9576 74.3972 39.8986C74.3424 39.8398 74.3003 39.7692 74.2711 39.688C74.2422 39.6065 74.2275 39.5163 74.2275 39.4176V38.3843H74.4763V39.3563C74.4763 39.5107 74.5161 39.633 74.5957 39.7232C74.6752 39.8133 74.7897 39.8582 74.9379 39.8582C75.0088 39.8582 75.0753 39.8458 75.1364 39.8211C75.198 39.7965 75.2509 39.7609 75.2948 39.7149C75.3391 39.6689 75.374 39.6136 75.3999 39.5493C75.4254 39.4849 75.4385 39.4142 75.4385 39.3368V38.3843Z" fill="white"/>
<path d="M77.3432 39.792C77.3121 39.8533 77.2701 39.9053 77.2172 39.9483C77.1642 39.9909 77.102 40.0239 77.0299 40.0467C76.9579 40.0691 76.8798 40.0803 76.7957 40.0803C76.6753 40.0803 76.5533 40.0583 76.4306 40.0141C76.3079 39.9704 76.1991 39.9109 76.1045 39.8354L76.2306 39.6585C76.3206 39.7273 76.4148 39.7796 76.5132 39.8159C76.6111 39.8526 76.7094 39.8705 76.8085 39.8705C76.9098 39.8705 76.9928 39.847 77.0573 39.7998C77.1218 39.7527 77.1541 39.6884 77.1541 39.6069V39.6001C77.1541 39.5594 77.1429 39.5238 77.1203 39.4939C77.0975 39.464 77.0667 39.4378 77.0284 39.415C76.9894 39.3926 76.9447 39.3727 76.8944 39.3555C76.8441 39.3383 76.7916 39.3223 76.7376 39.3073C76.673 39.2879 76.6077 39.2673 76.5421 39.2445C76.4764 39.2217 76.4171 39.1936 76.3642 39.1592C76.3113 39.1248 76.2685 39.0818 76.2351 39.0302C76.2017 38.9786 76.1848 38.9142 76.1848 38.8368V38.8305C76.1848 38.7598 76.1987 38.6947 76.2268 38.6356C76.2546 38.5769 76.294 38.5264 76.3447 38.4845C76.3953 38.443 76.4554 38.4105 76.5252 38.388C76.5953 38.3652 76.6711 38.354 76.7526 38.354C76.8558 38.354 76.9605 38.3708 77.0659 38.4041C77.1714 38.4374 77.2674 38.4819 77.3538 38.5376L77.2404 38.7243C77.1631 38.6749 77.0817 38.6356 76.9969 38.6068C76.9121 38.578 76.8284 38.5634 76.7466 38.5634C76.6471 38.5634 76.5687 38.5866 76.5105 38.633C76.4527 38.679 76.4235 38.7362 76.4235 38.805V38.8118C76.4235 38.8503 76.4355 38.8839 76.4591 38.9131C76.4828 38.9423 76.5147 38.9677 76.5544 38.9887C76.5942 39.0104 76.6404 39.0294 76.6918 39.0466C76.7432 39.0638 76.7972 39.081 76.8535 39.0982C76.9181 39.1177 76.9822 39.139 77.0457 39.1626C77.1091 39.1861 77.1669 39.2164 77.2187 39.2527C77.2705 39.289 77.3117 39.3331 77.3429 39.3847C77.374 39.4363 77.3898 39.4999 77.3898 39.5747V39.5814C77.3902 39.6611 77.3744 39.731 77.3432 39.792Z" fill="white"/>
<path d="M78.1586 39.5749C78.1586 39.6777 78.1841 39.7499 78.2359 39.7907C78.2877 39.8314 78.3552 39.8516 78.4393 39.8516C78.4825 39.8516 78.523 39.8475 78.5605 39.8389C78.5984 39.8307 78.6386 39.8154 78.6814 39.794V40.0061C78.6386 40.0297 78.5928 40.0476 78.5444 40.0596C78.496 40.0715 78.4416 40.0771 78.3811 40.0771C78.314 40.0771 78.2517 40.0689 78.1935 40.0517C78.1357 40.0345 78.0854 40.0072 78.0438 39.9694C78.0017 39.9317 77.9687 39.8834 77.9451 39.8228C77.9214 39.763 77.9094 39.6908 77.9094 39.6074V38.6029H77.6768V38.3841H77.9094V37.8818H78.1582V38.3841H78.6877V38.6029H78.1582L78.1586 39.5749Z" fill="white"/>
<path d="M79.3767 40.0483H79.1279V38.3845H79.3767V38.8187C79.4068 38.7499 79.4447 38.6866 79.4897 38.6287C79.5347 38.5711 79.5865 38.521 79.6447 38.4795C79.7028 38.4376 79.7663 38.4058 79.8353 38.3845C79.9044 38.3628 79.9787 38.3531 80.0582 38.3553V38.6227H80.0387C79.9486 38.6227 79.8627 38.6388 79.782 38.6709C79.701 38.7031 79.6308 38.7513 79.5704 38.816C79.5103 38.8804 79.4627 38.9604 79.4285 39.0558C79.394 39.1515 79.3767 39.2615 79.3767 39.3856V40.0483Z" fill="white"/>
<path d="M81.2493 40.1031C81.1784 40.2748 81.0992 40.396 81.0117 40.467C80.9243 40.5381 80.8185 40.5732 80.6935 40.5732C80.6245 40.5732 80.5622 40.5658 80.5062 40.5519C80.4503 40.5381 80.394 40.5171 80.3385 40.4891L80.4226 40.2931C80.4631 40.3144 80.5036 40.3301 80.5434 40.3399C80.5832 40.3492 80.6301 40.3541 80.6841 40.3541C80.7592 40.3541 80.823 40.3316 80.8748 40.2864C80.9265 40.2415 80.9768 40.1596 81.0264 40.0418L80.2676 38.3843H80.5419L81.1491 39.7714L81.6853 38.3843H81.9499L81.2493 40.1031Z" fill="white"/>
</g>
<defs>
<clipPath id="clip0_222_1153">
<rect width="135.143" height="43" fill="white" transform="translate(0.660156)"/>
</clipPath>
</defs>
</svg>
