<svg width="50" height="50" viewBox="0 0 50 50" fill="none" xmlns="http://www.w3.org/2000/svg">
<g clip-path="url(#clip0_289_658)">
<path d="M47.5111 41.0245L37.2001 30.7133L41.3706 29.1955C41.7262 29.0661 41.9375 28.7001 41.8717 28.3274L40.7545 21.9918L43.9712 16.4202C44.1603 16.0926 44.087 15.6764 43.7972 15.4332L38.8688 11.298L37.7517 4.96222C37.6859 4.58966 37.3623 4.31808 36.9839 4.31808H30.5503L25.6223 0.182446C25.3323 -0.0608153 24.9098 -0.0608153 24.6199 0.182446L19.6916 4.31779H13.2582C12.8797 4.31779 12.5561 4.58937 12.4904 4.96193L11.3732 11.2976L6.44479 15.4329C6.15495 15.6761 6.08161 16.0923 6.27077 16.4199L9.48756 21.9915L8.37037 28.3271C8.30455 28.6998 8.51588 29.0657 8.87145 29.1952L12.8655 30.6488L2.49001 41.0245C2.27546 41.2391 2.20486 41.559 2.30935 41.844C2.41374 42.129 2.67409 42.3275 2.97663 42.3527L9.37574 42.8861L9.90914 49.2851C9.93433 49.5876 10.1328 49.848 10.4178 49.9524C10.5053 49.9845 10.596 50 10.6859 50C10.8891 50 11.0885 49.9205 11.2374 49.7717L25.0006 36.0084L38.7639 49.7717C38.9128 49.9205 39.1121 50 39.3153 50C39.4053 50 39.496 49.9845 39.5834 49.9524C39.8685 49.848 40.0669 49.5876 40.092 49.2851L40.6255 42.8862L47.0245 42.3528C47.327 42.3276 47.5874 42.1291 47.6918 41.844C47.7963 41.5589 47.7257 41.2392 47.5111 41.0245ZM11.3234 47.4805L10.8749 42.0992C10.8432 41.7198 10.5422 41.4186 10.1627 41.387L4.78132 40.9384L14.4823 31.2375L14.9169 31.3957L18.1336 36.9672C18.2762 37.2142 18.537 37.3572 18.809 37.3572C18.8979 37.3572 18.9879 37.3419 19.0755 37.3101L22.877 35.9265L11.3234 47.4805ZM25.7568 33.682L25.3875 33.5477C25.2154 33.4849 25.0265 33.4849 24.8543 33.5477L24.3074 33.7467L19.157 35.6212L16.1254 30.3705C16.0337 30.2118 15.8892 30.0904 15.7169 30.0276L14.549 29.6024L10.0196 27.954L11.0725 21.9832C11.1044 21.8025 11.0716 21.6166 10.98 21.4578L7.9484 16.207L12.5931 12.3098C12.7335 12.192 12.828 12.0285 12.8596 11.848L13.9124 5.87716H19.9754C20.1588 5.87716 20.3363 5.81261 20.4766 5.69474L25.1211 1.79748L29.7656 5.69474C29.9061 5.81261 30.0835 5.87716 30.2668 5.87716H36.3299L37.3827 11.848C37.4146 12.0285 37.5089 12.1921 37.6492 12.3098L42.2938 16.207L39.2623 21.4578C39.1706 21.6165 39.1379 21.8025 39.1697 21.9831L40.2227 27.9539L35.5168 29.6667L34.5252 30.0276C34.353 30.0904 34.2083 30.2117 34.1167 30.3705L31.0853 35.6212L25.7581 33.6824C25.7576 33.6822 25.7572 33.6822 25.7568 33.682ZM39.8386 41.3871C39.4592 41.4187 39.158 41.7197 39.1264 42.0993L38.6779 47.4806L26.9863 35.7886L31.1665 37.3102C31.2541 37.3421 31.3442 37.3573 31.433 37.3573C31.7051 37.3573 31.9658 37.2143 32.1084 36.9673L35.325 31.3958L35.5832 31.3018L45.2199 40.9385L39.8386 41.3871Z" fill="#555555"/>
<path d="M24.9994 6.69165C18.1497 6.69165 12.5771 12.2642 12.5771 19.1139C12.5771 25.9636 18.1498 31.536 24.9994 31.536C31.8491 31.536 37.4215 25.9635 37.4215 19.1139C37.4215 12.2643 31.849 6.69165 24.9994 6.69165ZM24.9994 29.9768C19.0096 29.9768 14.1364 25.1036 14.1364 19.1138C14.1364 13.124 19.0096 8.25092 24.9994 8.25092C30.9891 8.25092 35.8624 13.1241 35.8624 19.1139C35.8624 25.1037 30.9891 29.9768 24.9994 29.9768Z" fill="#555555"/>
<path d="M33.9729 16.631C33.8685 16.3098 33.5691 16.0923 33.2313 16.0923H27.4773L25.6992 10.6198C25.5948 10.2985 25.2955 10.0811 24.9577 10.0811C24.62 10.0811 24.3206 10.2985 24.2162 10.6198L22.4381 16.0923H16.684C16.3463 16.0923 16.0469 16.3098 15.9425 16.631C15.8381 16.9522 15.9525 17.3042 16.2258 17.5027L20.881 20.8848L19.1029 26.3574C18.9985 26.6786 19.1128 27.0305 19.3862 27.2291C19.5228 27.3284 19.6835 27.378 19.8444 27.378C20.0052 27.378 20.1659 27.3283 20.3026 27.2291L24.9577 23.847L29.6128 27.2291C29.886 27.4276 30.2561 27.4276 30.5292 27.2291C30.8024 27.0306 30.9167 26.6787 30.8125 26.3574L29.0344 20.8848L33.6896 17.5027C33.9629 17.3042 34.0771 16.9522 33.9729 16.631ZM27.6597 19.9564C27.3864 20.1549 27.2721 20.5068 27.3764 20.8281L28.588 24.5572L25.4158 22.2526C25.1426 22.0541 24.7726 22.0541 24.4994 22.2526L21.3272 24.5573L22.5388 20.8281C22.6432 20.5069 22.5288 20.155 22.2555 19.9565L19.0834 17.6517H23.0046C23.3423 17.6517 23.6417 17.4343 23.7461 17.113L24.9577 13.3839L26.1693 17.113C26.2736 17.4343 26.573 17.6517 26.9108 17.6517H30.8319L27.6597 19.9564Z" fill="#555555"/>
</g>
<defs>
<clipPath id="clip0_289_658">
<rect width="50" height="50" fill="white"/>
</clipPath>
</defs>
</svg>
