<svg width="56" height="44" viewBox="0 0 56 44" fill="none" xmlns="http://www.w3.org/2000/svg">
<path d="M45.9811 1.22778C45.4373 0.461646 44.5377 0 43.5887 0H12.2302C11.291 0 10.4013 0.451824 9.83775 1.19832L0.426247 13.8298C-0.206459 14.6843 -0.127371 15.8531 0.614082 16.6094L26.2683 42.9037C26.9999 43.6501 28.2159 43.7385 29.0859 42.9037L54.7401 16.6094C55.4717 15.8531 55.5705 14.6843 54.9576 13.8298L45.9811 1.22778ZM35.6601 16.1969L27.7018 39.7703L20.1785 16.1969H35.6601ZM20.6234 14.2325L27.9094 2.81899L35.2251 14.2325H20.6234ZM29.7087 1.96445H42.9461L36.9452 13.2601L29.7087 1.96445ZM18.9032 13.2601L12.8728 1.96445H26.1102L18.9032 13.2601ZM25.4676 39.2596L2.95707 16.1969H18.1025L25.4676 39.2596ZM37.746 16.1969H52.3971L29.9855 39.181L37.746 16.1969ZM38.6753 14.2325L44.7157 2.85828L52.8222 14.2325H38.6753ZM11.0933 2.81899L17.193 14.2325H2.59129L11.0933 2.81899Z" fill="#555555"/>
</svg>
