<svg width="44" height="50" viewBox="0 0 44 50" fill="none" xmlns="http://www.w3.org/2000/svg">
<path d="M41.3003 14.7239C40.9624 14.4067 40.66 14.1261 40.3884 13.8742C38.1816 11.8271 38.1816 11.8271 37.5122 8.89243C37.4297 8.5312 37.338 8.12896 37.2323 7.67778C36.7183 5.48335 34.8609 3.92476 32.6106 3.79966C32.1479 3.77397 31.7357 3.75337 31.3657 3.73501C28.3595 3.5853 28.3595 3.5853 25.9602 1.76753C25.6293 1.51637 25.2976 1.26621 24.9652 1.01704C23.1608 -0.333643 20.7362 -0.333643 18.9319 1.01704C18.5995 1.26619 18.2679 1.51635 17.937 1.76753C15.5378 3.5853 15.5378 3.5853 12.5315 3.73501C12.1614 3.75337 11.7493 3.77397 11.2866 3.79966C9.03624 3.92485 7.17891 5.48335 6.66475 7.67778C6.55909 8.12896 6.46739 8.5312 6.38497 8.89243C5.71553 11.827 5.71553 11.827 3.50879 13.8741C3.23721 14.1261 2.93477 14.4067 2.59688 14.7238C0.95352 16.2662 0.532427 18.654 1.54913 20.6654C1.75821 21.0789 1.94639 21.446 2.11553 21.7756C3.48897 24.4541 3.48897 24.4541 3.11446 27.4409C3.06836 27.8084 3.01709 28.2177 2.96202 28.6778C2.69454 30.9157 3.90684 33.0155 5.97872 33.9028C6.40459 34.0852 6.78477 34.2455 7.12608 34.3892C8.55538 34.9916 9.24786 35.284 9.80704 35.7715L5.33428 45.3786C5.2741 45.508 5.25053 45.6515 5.26612 45.7934C5.28171 45.9353 5.33587 46.0702 5.42272 46.1835C5.50957 46.2968 5.62579 46.3841 5.75878 46.4361C5.89176 46.488 6.03642 46.5025 6.17706 46.478L10.6342 45.6992L12.9073 49.6112C12.979 49.7347 13.0832 49.8361 13.2086 49.9046C13.3339 49.973 13.4756 50.0057 13.6183 49.9993C13.7609 49.9928 13.8991 49.9473 14.0177 49.8678C14.1363 49.7884 14.2309 49.6779 14.2911 49.5484L18.2289 41.0902C18.5337 40.9972 18.8141 40.9108 19.0725 40.831C21.9485 39.9435 21.9487 39.9435 24.8248 40.831C25.1197 40.922 25.4445 41.0221 25.8006 41.1304L29.7196 49.5484C29.7825 49.6833 29.8825 49.7974 30.008 49.8774C30.1335 49.9574 30.2792 49.9998 30.428 49.9999C30.7054 49.9999 30.9631 49.8524 31.1034 49.6112L33.3766 45.6992L37.8337 46.478C37.9743 46.5025 38.119 46.488 38.252 46.4361C38.385 46.3842 38.5013 46.2969 38.5881 46.1836C38.675 46.0703 38.7291 45.9353 38.7447 45.7934C38.7603 45.6515 38.7367 45.508 38.6765 45.3786L34.1716 35.7026C34.7175 35.2552 35.4104 34.9627 36.7711 34.3893C37.1125 34.2454 37.4927 34.0852 37.9186 33.9028C39.9904 33.0155 41.2027 30.9158 40.9354 28.6778C40.8804 28.2177 40.829 27.8084 40.7828 27.4408C40.4082 24.4541 40.4082 24.4541 41.7817 21.7756C41.9507 21.4459 42.139 21.0789 42.3481 20.6654C43.3647 18.6541 42.9437 16.2663 41.3003 14.7239ZM13.5063 47.5321L11.7114 44.4435C11.6311 44.3055 11.5104 44.1954 11.3656 44.128C11.2208 44.0606 11.0588 44.0391 10.9015 44.0665L7.38252 44.6813L10.9023 37.121C11.0864 37.3961 11.2915 37.7132 11.5326 38.0868C11.7337 38.3981 11.9575 38.7448 12.2111 39.1327C13.1547 40.5754 14.7096 41.3986 16.3542 41.4146L13.5063 47.5321ZM33.1091 44.0664C32.9517 44.0389 32.7897 44.0603 32.6449 44.1278C32.5001 44.1952 32.3794 44.3053 32.2991 44.4434L30.5043 47.532L27.6557 41.413C29.2583 41.3613 30.7639 40.5424 31.686 39.1326C31.9397 38.7447 32.1635 38.3981 32.3644 38.0869C32.6353 37.6672 32.8607 37.3185 33.0618 37.0212L36.628 44.6811L33.1091 44.0664ZM40.9535 19.9606C40.7672 20.3285 40.5798 20.6959 40.3913 21.0627C38.8425 24.0832 38.81 24.2673 39.2324 27.6353C39.2782 28.0002 39.3291 28.4066 39.3838 28.8632C39.5711 30.4307 38.7545 31.8451 37.3033 32.4666C36.8805 32.6476 36.5031 32.8066 36.1642 32.9494C33.0363 34.2675 32.893 34.3877 31.0518 37.2393C30.8522 37.5483 30.6301 37.8924 30.3783 38.2773C29.5143 39.5983 27.9796 40.1569 26.4686 39.7002C26.0282 39.5672 25.6368 39.4464 25.2855 39.338C23.6639 38.8376 22.8062 38.5874 21.9485 38.5874C21.0909 38.5874 20.2333 38.8376 18.6116 39.338C18.2602 39.4464 17.8689 39.5672 17.4285 39.7002C15.9176 40.157 14.3828 39.5984 13.5189 38.2773C13.267 37.8922 13.0448 37.5481 12.8453 37.2391C11.0041 34.3878 10.8607 34.2675 7.73282 32.9494C7.35265 32.7896 6.97296 32.6286 6.59375 32.4666C5.14268 31.8451 4.32598 30.4306 4.51338 28.8632C4.56259 28.4538 4.61305 28.0445 4.66475 27.6354C5.08711 24.2673 5.05459 24.0832 3.50577 21.0627C3.31725 20.6959 3.12985 20.3285 2.94356 19.9606C2.23145 18.5517 2.51504 16.9434 3.66602 15.8631C4.00147 15.5483 4.30176 15.2698 4.57139 15.0197C7.05967 12.7113 7.15323 12.5492 7.90821 9.23999C7.99004 8.8814 8.08116 8.48208 8.18604 8.03423C8.5462 6.49722 9.79727 5.44741 11.3734 5.35981C11.8327 5.33423 12.2419 5.31382 12.6092 5.29556C15.9992 5.12671 16.175 5.06274 18.8806 3.01284C19.1737 2.79077 19.5001 2.54341 19.8683 2.26782C21.132 1.32183 22.7651 1.32183 24.0289 2.26782C24.3972 2.54341 24.7234 2.79067 25.0166 3.01284C27.7222 5.06265 27.898 5.12671 31.288 5.29556C31.6554 5.31382 32.0645 5.33423 32.5237 5.35981C34.0999 5.44741 35.351 6.49722 35.711 8.03423C35.8159 8.48208 35.907 8.8814 35.9889 9.23999C36.7439 12.5492 36.8374 12.7113 39.3258 15.0197C39.5954 15.2699 39.8957 15.5484 40.2312 15.8631C41.382 16.9434 41.6656 18.5518 40.9535 19.9606ZM21.9485 7.72065C14.7867 7.72065 8.96026 13.5472 8.96026 20.7089C8.96026 27.8707 14.7867 33.6972 21.9485 33.6972C29.1104 33.6972 34.9368 27.8707 34.9368 20.7089C34.9368 13.5472 29.1104 7.72065 21.9485 7.72065ZM21.9485 32.1348C15.6483 32.1348 10.5228 27.0092 10.5228 20.709C10.5228 14.4088 15.6483 9.28325 21.9485 9.28325C28.2487 9.28325 33.3743 14.4088 33.3743 20.709C33.3743 27.0092 28.2487 32.1348 21.9485 32.1348ZM25.8125 22.2444H25.8113C24.9861 22.2447 24.2104 22.5663 23.6272 23.15C23.0438 23.7336 22.7228 24.5096 22.7231 25.3348C22.7233 26.1601 23.0449 26.9359 23.6286 27.5192C24.2121 28.1022 24.9876 28.4233 25.8125 28.4233H25.8135C27.517 28.4226 28.9025 27.0363 28.9019 25.3329C28.9016 24.5076 28.58 23.7318 27.9963 23.1485C27.4129 22.5654 26.6375 22.2444 25.8125 22.2444ZM25.8131 26.8608H25.8126C25.6121 26.8613 25.4134 26.8221 25.2281 26.7454C25.0428 26.6687 24.8746 26.556 24.7331 26.4139C24.5908 26.2725 24.478 26.1043 24.4012 25.919C24.3243 25.7336 24.285 25.5349 24.2856 25.3343C24.2854 24.9264 24.444 24.5429 24.7323 24.2544C25.0206 23.966 25.404 23.807 25.8119 23.8069H25.8125C26.2202 23.8069 26.6035 23.9656 26.8919 24.2538C27.0342 24.3952 27.147 24.5634 27.2238 24.7487C27.3007 24.934 27.34 25.1327 27.3395 25.3333C27.3398 26.1752 26.655 26.8605 25.8131 26.8608ZM18.0856 19.1737C19.7891 19.1731 21.1745 17.7867 21.174 16.0832C21.1733 14.3799 19.7876 12.9948 18.0845 12.9948H18.0834C16.38 12.9954 14.9945 14.3818 14.995 16.0853C14.9957 17.7885 16.3814 19.1738 18.0844 19.1737H18.0856ZM16.5576 16.0848C16.5573 15.2428 17.2422 14.5576 18.0841 14.5573H18.0846C18.9263 14.5573 19.6113 15.2419 19.6116 16.0836C19.6119 16.9256 18.9272 17.6109 18.0852 17.6112H18.0846C17.2428 17.6112 16.5579 16.9265 16.5576 16.0848ZM26.9787 15.0985L18.328 27.1463C18.2557 27.2472 18.1603 27.3294 18.0498 27.3861C17.9393 27.4427 17.8169 27.4722 17.6928 27.472C17.5295 27.4721 17.3703 27.4207 17.2378 27.3252C17.0695 27.2044 16.9561 27.0216 16.9226 26.8172C16.889 26.6127 16.938 26.4033 17.0589 26.235L25.7096 14.1872C25.8312 14.0208 26.0136 13.9092 26.2171 13.8766C26.4205 13.8441 26.6286 13.8933 26.796 14.0135C26.9634 14.1337 27.0765 14.3152 27.1108 14.5184C27.145 14.7216 27.0975 14.9301 26.9787 15.0985Z" fill="#555555" stroke="#555555" stroke-width="0.5"/>
</svg>
