<svg width="50" height="47" viewBox="0 0 50 47" fill="none" xmlns="http://www.w3.org/2000/svg">
<path d="M4.43566 19.3932C4.24253 19.3934 4.0537 19.3362 3.89307 19.229C3.73245 19.1218 3.60724 18.9693 3.53331 18.7909C3.45939 18.6125 3.44006 18.4161 3.47778 18.2267C3.5155 18.0373 3.60857 17.8634 3.74521 17.7269L11.031 10.4411C11.1814 10.2907 11.3769 10.1936 11.5876 10.1645C11.7984 10.1354 12.0128 10.176 12.1984 10.2801L21.9666 15.7641L31.7867 5.94402C31.8773 5.85338 31.9849 5.78147 32.1033 5.73242C32.2217 5.68336 32.3487 5.65811 32.4768 5.65811C32.605 5.65811 32.7319 5.68336 32.8503 5.73242C32.9688 5.78147 33.0764 5.85338 33.167 5.94402L36.4088 9.18526L44.2563 1.33774C44.393 1.20095 44.5672 1.10783 44.7568 1.07019C44.9464 1.03255 45.143 1.05208 45.3215 1.12631C45.5 1.20054 45.6525 1.32612 45.7595 1.48713C45.8665 1.64813 45.9233 1.8373 45.9227 2.03063V4.66558C45.9227 4.92441 45.8199 5.17264 45.6369 5.35566C45.4538 5.53867 45.2056 5.64149 44.9468 5.64149C44.688 5.64149 44.4397 5.53867 44.2567 5.35566C44.0737 5.17264 43.9709 4.92441 43.9709 4.66558V4.38684L37.0987 11.2554C37.008 11.346 36.9005 11.4179 36.782 11.467C36.6636 11.5161 36.5367 11.5413 36.4085 11.5413C36.2803 11.5413 36.1534 11.5161 36.035 11.467C35.9166 11.4179 35.809 11.346 35.7184 11.2554L32.4771 8.01417L22.8242 17.6671C22.6737 17.8177 22.4781 17.9149 22.2672 17.944C22.0564 17.973 21.8418 17.9324 21.6562 17.8281L11.8879 12.3441L5.12489 19.109C5.03436 19.1994 4.92688 19.271 4.8086 19.3198C4.69033 19.3686 4.5636 19.3935 4.43566 19.3932Z" fill="#555555"/>
<path d="M44.9489 3.00638H42.5281C42.2692 3.00638 42.021 2.90356 41.838 2.72054C41.655 2.53753 41.5521 2.2893 41.5521 2.03047C41.5521 1.77165 41.655 1.52342 41.838 1.3404C42.021 1.15738 42.2692 1.05457 42.5281 1.05457H44.9489C45.2077 1.05457 45.456 1.15738 45.639 1.3404C45.822 1.52342 45.9248 1.77165 45.9248 2.03047C45.9248 2.2893 45.822 2.53753 45.639 2.72054C45.456 2.90356 45.2077 3.00638 44.9489 3.00638ZM14.3908 41.9243H7.83333C7.5745 41.9243 7.32628 41.8215 7.14326 41.6385C6.96024 41.4555 6.85742 41.2073 6.85742 40.9484V19.2754C6.85742 19.0165 6.96024 18.7683 7.14326 18.5853C7.32628 18.4023 7.5745 18.2995 7.83333 18.2995H14.3908C14.6496 18.2995 14.8979 18.4023 15.0809 18.5853C15.2639 18.7683 15.3667 19.0165 15.3667 19.2754V40.9484C15.3667 41.2073 15.2639 41.4555 15.0809 41.6385C14.8979 41.8215 14.6496 41.9243 14.3908 41.9243ZM8.80924 39.9725H13.4149V20.2513H8.80924V39.9725ZM25.5753 41.9243H19.0154C18.7566 41.9243 18.5083 41.8215 18.3253 41.6385C18.1423 41.4555 18.0395 41.2073 18.0395 40.9484V24.9301C18.0395 24.6713 18.1423 24.4231 18.3253 24.2401C18.5083 24.057 18.7566 23.9542 19.0154 23.9542H25.5753C25.8342 23.9542 26.0824 24.057 26.2654 24.2401C26.4484 24.4231 26.5512 24.6713 26.5512 24.9301V40.9484C26.5512 41.2073 26.4484 41.4555 26.2654 41.6385C26.0824 41.8215 25.8342 41.9243 25.5753 41.9243ZM19.9931 39.9725H24.5994V25.906H19.9913L19.9931 39.9725ZM36.7592 41.9243H30.2011C29.9423 41.9243 29.6941 41.8215 29.5111 41.6385C29.328 41.4555 29.2252 41.2073 29.2252 40.9484V17.9792C29.2252 17.7204 29.328 17.4722 29.5111 17.2892C29.6941 17.1061 29.9423 17.0033 30.2011 17.0033H36.7592C37.018 17.0033 37.2663 17.1061 37.4493 17.2892C37.6323 17.4722 37.7351 17.7204 37.7351 17.9792V40.9484C37.7351 41.2073 37.6323 41.4555 37.4493 41.6385C37.2663 41.8215 37.018 41.9243 36.7592 41.9243ZM31.177 39.9725H35.7833V18.9551H31.177V39.9725ZM47.9431 41.9243H41.385C41.1262 41.9243 40.878 41.8215 40.695 41.6385C40.5119 41.4555 40.4091 41.2073 40.4091 40.9484V10.4824C40.4091 10.2236 40.5119 9.97539 40.695 9.79237C40.878 9.60935 41.1262 9.50653 41.385 9.50653H47.9431C48.202 9.50653 48.4502 9.60935 48.6332 9.79237C48.8162 9.97539 48.919 10.2236 48.919 10.4824V40.9484C48.919 41.2073 48.8162 41.4555 48.6332 41.6385C48.4502 41.8215 48.202 41.9243 47.9431 41.9243ZM42.3609 39.9725H46.9672V11.4583H42.3609V39.9725Z" fill="#555555"/>
<path d="M49.0241 47.0009H0.975907C0.717081 47.0009 0.468855 46.8981 0.285837 46.7151C0.102819 46.5321 0 46.2838 0 46.025V0.975908C0 0.717081 0.102819 0.468855 0.285837 0.285837C0.468855 0.102819 0.717081 0 0.975907 0C1.23473 0 1.48296 0.102819 1.66598 0.285837C1.849 0.468855 1.95181 0.717081 1.95181 0.975908V45.0491H49.0241C49.2829 45.0491 49.5311 45.1519 49.7142 45.3349C49.8972 45.518 50 45.7662 50 46.025C50 46.2838 49.8972 46.5321 49.7142 46.7151C49.5311 46.8981 49.2829 47.0009 49.0241 47.0009Z" fill="#555555"/>
</svg>
