<svg width="27" height="40" viewBox="0 0 27 40" fill="none" xmlns="http://www.w3.org/2000/svg">
<g clip-path="url(#clip0_788_14467)">
<path d="M13.5763 40C13.6206 40 13.6206 40 13.6206 40C15.6173 40 17.4808 39.3005 19.2112 38.0765H19.2555L19.3 38.0327C20.8973 36.8524 22.3171 35.235 23.4707 33.2678C23.5151 33.224 23.5151 33.1803 23.5595 33.1366C24.5355 31.4754 25.2898 29.5519 25.8666 27.4536C26.4879 25.1803 26.7984 22.6448 26.7984 20.0656C26.7984 17.4426 26.4435 14.9508 25.8666 12.6776C25.3342 10.5793 24.5355 8.65574 23.5595 6.99454C23.5595 6.95082 23.5151 6.90711 23.4707 6.86339C22.3171 4.89618 20.8973 3.23497 19.3 2.09836L19.2555 2.05464H19.2112C17.4808 0.699454 15.6173 0 13.6206 0C13.6206 0 13.6206 0 13.5763 0C13.5763 0 13.5763 0 13.5319 0C11.5352 0 9.62735 0.699454 7.9413 1.92349H7.89693L7.85255 1.96721C6.25525 3.14754 4.83541 4.76503 3.6818 6.73224C3.63743 6.77596 3.63743 6.81967 3.59306 6.86339C2.6613 8.52459 1.86263 10.4044 1.3302 12.4591C1.3302 12.5027 1.28583 12.5464 1.28583 12.5902C0.753395 14.8634 0.398438 17.3989 0.398438 20.0219C0.398438 22.6448 0.753395 25.1366 1.3302 27.4536C1.3302 27.4973 1.3302 27.5409 1.37457 27.5847C1.90701 29.6394 2.70566 31.5192 3.63743 33.1803C3.63743 33.224 3.6818 33.2678 3.72617 33.3115C4.87979 35.2787 6.29962 36.9399 7.89693 38.0765L7.9413 38.1202H7.98566C9.67171 39.3005 11.5796 40 13.5763 40ZM8.73995 37.5956L10.6922 34.5355L12.9107 39.082C11.4022 38.9945 10.0267 38.4699 8.73995 37.5956ZM2.26197 27.5847L4.34735 26.4481L3.77054 31.5628C3.14936 30.3388 2.6613 29.0274 2.26197 27.5847ZM3.77054 8.43716L4.34735 13.5519L2.26197 12.4153C2.6613 10.9726 3.14936 9.6612 3.77054 8.43716ZM12.8663 0.874317L10.6478 5.42077L8.69558 2.36065C10.0267 1.53005 11.4022 1.00546 12.8663 0.874317ZM18.4125 2.40437L16.4603 5.46448L14.2862 0.874317C15.7504 1.00546 17.1258 1.53005 18.4125 2.40437ZM24.8906 12.4153L22.8495 13.5519L23.4263 8.43716C24.0031 9.6612 24.4912 10.9726 24.8906 12.4153ZM23.382 31.5628L22.8052 26.4481L24.8906 27.5847C24.4912 29.0274 24.0031 30.3388 23.382 31.5628ZM14.2862 39.1257L16.5047 34.5793L18.4569 37.6394C17.1258 38.4699 15.7504 38.9945 14.2862 39.1257ZM6.38836 21.5956L8.03003 27.3224L5.32348 25.5301L6.38836 21.5956ZM5.32348 14.5137L8.03003 12.7213L6.38836 18.4481L5.32348 14.5137ZM20.7641 18.4481L19.1225 12.6776L21.829 14.5137L20.7641 18.4481ZM21.829 25.4863L19.1225 27.2787L20.7641 21.5519L21.829 25.4863ZM9.13928 28.0656L6.83206 20.0219L9.13928 11.9781L13.5763 8.39344L18.0133 11.9781L20.3204 20.0219L18.0133 28.0656L13.5763 31.6503L9.13928 28.0656ZM14.3749 32.1312L17.4808 29.6394L16.1941 33.0928L14.3749 32.1312ZM21.2079 20.0219L22.4946 15.3005L25.8223 20.0219L22.4946 24.7432L21.2079 20.0219ZM14.3749 7.86885L16.1941 6.90711L17.4808 10.3607L14.3749 7.86885ZM15.8835 6.12022L13.5763 7.30055L11.3134 6.12022L13.6206 1.39891L15.8835 6.12022ZM12.822 7.86885L9.71609 10.3607L11.0028 6.90711L12.822 7.86885ZM5.94466 20.0219L4.65793 24.6995L1.3302 20.0219L4.65793 15.3005L5.94466 20.0219ZM12.822 32.1312L11.0028 33.0928L9.71609 29.6394L12.822 32.1312ZM11.3134 33.8798L13.6206 32.6995L15.9279 33.8798L13.6206 38.6011L11.3134 33.8798ZM18.7231 28.5902L21.9622 26.4044L22.6277 32.5683L17.0371 33.1366L18.7231 28.5902ZM22.9382 25.5301L25.8666 21.3771C25.7779 23.2568 25.5117 25.0492 25.1124 26.7104L22.9382 25.5301ZM22.9382 14.4699L25.1124 13.2896C25.5117 14.9508 25.7779 16.7432 25.8666 18.6229L22.9382 14.4699ZM21.9622 13.5956L18.7231 11.4098L17.0371 6.81967L22.672 7.43169L21.9622 13.5956ZM8.42936 11.4098L5.19038 13.5956L4.52482 7.43169L10.1154 6.86339L8.42936 11.4098ZM4.21424 14.4699L1.28583 18.6229C1.37457 16.7432 1.64079 14.9508 2.04012 13.2896L4.21424 14.4699ZM4.21424 25.5301L2.04012 26.7104C1.64079 25.0492 1.37457 23.2132 1.28583 21.3771L4.21424 25.5301ZM5.19038 26.4481L8.42936 28.6339L10.1154 33.224L4.52482 32.612L5.19038 26.4481ZM19.1225 37.1147L17.1703 34.0546L22.3171 33.53C21.3854 34.9726 20.3204 36.1531 19.1225 37.1147ZM22.3171 6.51366L17.1703 5.98907L19.1225 2.92896C20.3204 3.84699 21.3854 5.07104 22.3171 6.51366ZM8.03003 2.88524L9.9823 5.94536L4.83541 6.51366C5.76717 5.07104 6.87642 3.84699 8.03003 2.88524ZM4.83541 33.4863L9.9823 34.0109L8.03003 37.0711C6.87642 36.1531 5.76717 34.9726 4.83541 33.4863Z" fill="#555555"/>
</g>
<defs>
<clipPath id="clip0_788_14467">
<rect width="26.4" height="40" fill="white" transform="translate(0.398438)"/>
</clipPath>
</defs>
</svg>
