<svg xmlns="http://www.w3.org/2000/svg" width="30" height="45" viewBox="0 0 30 45" fill="currentColor" class="injected-svg" data-src="/Content/WebstoreBackendContent/images/diamonds/kite.svg" xmlns:xlink="http://www.w3.org/1999/xlink">
<g clip-path="url(#clip0_1338_1940-2)">
<mask id="path-1-inside-1_1338_1940-3" fill="white">
<path d="M14.5512 44.7638C14.7402 45.0945 15.2126 45.0945 15.4016 44.7638C15.4016 44.7638 28.3937 19.6772 29.9528 16.6536C30.0473 16.4646 30 16.2756 29.8583 16.1339C28.1575 14.3386 17.3386 3.09452 15.3071 0.968539C15.1182 0.779563 14.8347 0.779563 14.6457 0.968539L0.0945269 16.0866C-0.0472044 16.2284 -0.0944494 16.4646 3.87229e-05 16.6063C1.60634 19.6772 14.5512 44.7638 14.5512 44.7638ZM15.3544 43.3465L15.3544 32.5748L19.1811 25.1575L22.9134 17.9764L29.0552 16.8898L15.3544 43.3465ZM15.3544 2.00791L28.9607 16.1811L22.7717 17.2677L15.3544 9.51972L15.3544 2.00791ZM14.9764 10.1811L22.2048 17.7402L14.9764 31.7244L7.74807 17.7402L14.9764 10.1811ZM14.6457 2.00791L14.6457 9.51972L7.22839 17.2677L3.68508 16.6536L1.08665 16.1811L14.6457 2.00791ZM2.315 17.126L7.1339 17.9764L14.693 32.5276L14.693 43.3465L0.992165 16.937L2.315 17.126Z"></path>
</mask>
<path d="M14.5512 44.7638L12.7739 45.6809L12.7935 45.7189L12.8147 45.7561L14.5512 44.7638ZM15.4016 44.7638L17.1381 45.7561L17.1586 45.7202L17.1776 45.6836L15.4016 44.7638ZM29.9528 16.6536L31.7304 17.5702L31.7361 17.5591L31.7417 17.548L29.9528 16.6536ZM29.8583 16.1339L28.4064 17.5094L28.425 17.529L28.4441 17.5481L29.8583 16.1339ZM15.3071 0.968539L16.7531 -0.413179L16.7374 -0.429609L16.7213 -0.445676L15.3071 0.968539ZM14.6457 0.968539L13.2315 -0.445676L13.218 -0.432165L13.2047 -0.418401L14.6457 0.968539ZM0.0945269 16.0866L1.50874 17.5009L1.52225 17.4873L1.5355 17.4736L0.0945269 16.0866ZM3.87229e-05 16.6063L1.77223 15.6793L1.72303 15.5853L1.66414 15.4969L3.87229e-05 16.6063ZM15.3544 43.3465L13.3544 43.3465L17.1304 44.2662L15.3544 43.3465ZM15.3544 32.5748L13.577 31.6578L13.3544 32.0893L13.3544 32.5748L15.3544 32.5748ZM19.1811 25.1575L17.4065 24.2352L17.4038 24.2405L19.1811 25.1575ZM22.9134 17.9764L22.565 16.007L21.5937 16.1788L21.1388 17.0541L22.9134 17.9764ZM29.0552 16.8898L30.8311 17.8095L32.6925 14.2152L28.7067 14.9204L29.0552 16.8898ZM15.3544 2.00791L16.7971 0.622844L13.3544 -2.96338L13.3544 2.00791L15.3544 2.00791ZM28.9607 16.1811L29.3065 18.151L33.0014 17.5023L30.4034 14.7961L28.9607 16.1811ZM22.7717 17.2677L21.327 18.6508L22.0656 19.4223L23.1175 19.2376L22.7717 17.2677ZM15.3544 9.51972L13.3544 9.51972L13.3544 10.3227L13.9097 10.9028L15.3544 9.51972ZM14.9764 10.1811L16.4219 8.7989L14.9764 7.28728L13.5309 8.7989L14.9764 10.1811ZM22.2048 17.7402L23.9815 18.6585L24.6372 17.39L23.6502 16.3579L22.2048 17.7402ZM14.9764 31.7244L13.1997 32.6428L14.9764 36.08L16.7531 32.6428L14.9764 31.7244ZM7.74807 17.7402L6.30259 16.3579L5.31569 17.39L5.97138 18.6585L7.74807 17.7402ZM14.6457 2.00791L16.6457 2.00791L16.6457 -2.97588L13.2005 0.625349L14.6457 2.00791ZM14.6457 9.51972L16.0904 10.9028L16.6457 10.3227L16.6457 9.51972L14.6457 9.51972ZM7.22839 17.2677L6.88681 19.2384L7.93643 19.4203L8.67309 18.6508L7.22839 17.2677ZM3.68508 16.6536L3.32731 18.6213L3.3354 18.6228L3.3435 18.6242L3.68508 16.6536ZM1.08665 16.1811L-0.358525 14.7986L-2.92763 17.4841L0.728882 18.1489L1.08665 16.1811ZM2.315 17.126L2.66257 15.1564L2.63029 15.1508L2.59784 15.1461L2.315 17.126ZM7.1339 17.9764L8.90871 17.0544L8.45363 16.1784L7.48147 16.0068L7.1339 17.9764ZM14.693 32.5276L16.693 32.5276L16.693 32.0391L16.4678 31.6056L14.693 32.5276ZM14.693 43.3465L12.9176 44.2675L16.693 43.3465L14.693 43.3465ZM0.992165 16.937L1.27501 14.9571L-2.5733 14.4074L-0.783153 17.858L0.992165 16.937ZM12.8147 45.7561C13.7715 47.4304 16.1813 47.4304 17.1381 45.7561L13.6651 43.7715C14.2439 42.7586 15.7089 42.7586 16.2877 43.7715L12.8147 45.7561ZM15.4016 44.7638C17.1776 45.6836 17.1776 45.6835 17.1777 45.6833C17.1778 45.6831 17.178 45.6828 17.1782 45.6824C17.1786 45.6817 17.1792 45.6805 17.1799 45.679C17.1815 45.676 17.1839 45.6714 17.187 45.6654C17.1933 45.6533 17.2026 45.6353 17.2149 45.6115C17.2395 45.5639 17.2761 45.4933 17.3239 45.4011C17.4194 45.2166 17.5597 44.9456 17.7389 44.5997C18.0972 43.9078 18.6108 42.916 19.232 41.7165C20.4744 39.3173 22.1471 36.087 23.8686 32.7621C27.3109 26.1137 30.9499 19.0839 31.7304 17.5702L28.1752 15.737C27.3967 17.2469 23.76 24.2721 20.3165 30.923C18.5951 34.2477 16.9224 37.478 15.68 39.8771C15.0588 41.0766 14.5452 42.0684 14.1869 42.7602C14.0078 43.1062 13.8675 43.3771 13.7719 43.5616C13.7242 43.6538 13.6876 43.7244 13.663 43.772C13.6506 43.7958 13.6413 43.8138 13.6351 43.8259C13.6319 43.8319 13.6296 43.8364 13.628 43.8395C13.6272 43.841 13.6266 43.8421 13.6262 43.8429C13.626 43.8433 13.6259 43.8436 13.6258 43.8438C13.6257 43.844 13.6256 43.8441 15.4016 44.7638ZM31.7417 17.548C32.2734 16.4844 31.936 15.3831 31.2725 14.7197L28.4441 17.5481C28.2804 17.3844 28.1042 17.1244 28.033 16.7682C27.9587 16.3968 28.0235 16.0401 28.1639 15.7591L31.7417 17.548ZM31.3102 14.7584C29.6085 12.9621 18.7679 1.69528 16.7531 -0.413179L13.8611 2.35025C15.9094 4.49377 26.7066 15.7151 28.4064 17.5094L31.3102 14.7584ZM16.7213 -0.445676C15.7513 -1.4157 14.2015 -1.4157 13.2315 -0.445676L16.0599 2.38275C15.7913 2.65137 15.4054 2.8268 14.9764 2.8268C14.5474 2.8268 14.1615 2.65137 13.8929 2.38275L16.7213 -0.445676ZM13.2047 -0.418401L-1.34645 14.6997L1.5355 17.4736L16.0867 2.35548L13.2047 -0.418401ZM-1.31969 14.6724C-1.69207 15.0448 -1.91947 15.5109 -2.00704 15.9779C-2.09137 16.4277 -2.07923 17.093 -1.66406 17.7157L1.66414 15.4969C1.98482 15.9779 1.97334 16.4543 1.92444 16.7151C1.8723 16.9931 1.73939 17.2702 1.50874 17.5009L-1.31969 14.6724ZM-1.77216 17.5333C-0.972179 19.0627 2.662 26.095 6.10096 32.7543C7.81937 36.0819 9.48761 39.3136 10.7263 41.7134C11.3456 42.9132 11.8575 43.9051 12.2146 44.5971C12.3931 44.943 12.5329 45.214 12.6281 45.3985C12.6757 45.4907 12.7122 45.5613 12.7367 45.6089C12.749 45.6327 12.7583 45.6507 12.7645 45.6627C12.7676 45.6688 12.77 45.6733 12.7715 45.6764C12.7723 45.6779 12.7729 45.679 12.7733 45.6798C12.7735 45.6802 12.7736 45.6804 12.7737 45.6806C12.7738 45.6808 12.7739 45.6809 14.5512 44.7638C16.3285 43.8467 16.3285 43.8466 16.3284 43.8464C16.3283 43.8462 16.3282 43.8459 16.328 43.8455C16.3276 43.8448 16.327 43.8436 16.3262 43.8421C16.3246 43.8391 16.3223 43.8345 16.3192 43.8285C16.3129 43.8164 16.3036 43.7984 16.2914 43.7746C16.2668 43.727 16.2304 43.6564 16.1828 43.5642C16.0875 43.3797 15.9477 43.1087 15.7691 42.7627C15.412 42.0707 14.9001 41.0787 14.2807 39.8787C13.042 37.4788 11.3736 34.2469 9.65502 30.919C6.21996 24.2672 2.57856 17.2208 1.77223 15.6793L-1.77216 17.5333ZM17.3544 43.3465L17.3544 32.5748L13.3544 32.5748L13.3544 43.3465L17.3544 43.3465ZM17.1318 33.4918L20.9585 26.0745L17.4038 24.2405L13.577 31.6578L17.1318 33.4918ZM20.9558 26.0798L24.6881 18.8987L21.1388 17.0541L17.4065 24.2352L20.9558 26.0798ZM23.2619 19.9458L29.4036 18.8592L28.7067 14.9204L22.565 16.007L23.2619 19.9458ZM27.2792 15.9701L13.5784 42.4268L17.1304 44.2662L30.8311 17.8095L27.2792 15.9701ZM13.9116 3.39297L27.5179 17.5662L30.4034 14.7961L16.7971 0.622844L13.9116 3.39297ZM28.6148 14.2113L22.4258 15.2979L23.1175 19.2376L29.3065 18.151L28.6148 14.2113ZM24.2164 15.8847L16.7991 8.13667L13.9097 10.9028L21.327 18.6508L24.2164 15.8847ZM17.3544 9.51972L17.3544 2.00791L13.3544 2.00791L13.3544 9.51972L17.3544 9.51972ZM13.5309 11.5634L20.7593 19.1224L23.6502 16.3579L16.4219 8.7989L13.5309 11.5634ZM20.4281 16.8218L13.1997 30.8061L16.7531 32.6428L23.9815 18.6585L20.4281 16.8218ZM16.7531 30.8061L9.52476 16.8218L5.97138 18.6585L13.1997 32.6428L16.7531 30.8061ZM9.19355 19.1224L16.4219 11.5634L13.5309 8.7989L6.30259 16.3579L9.19355 19.1224ZM12.6457 2.00791L12.6457 9.51972L16.6457 9.51972L16.6457 2.00791L12.6457 2.00791ZM13.201 8.13667L5.78368 15.8847L8.67309 18.6508L16.0904 10.9028L13.201 8.13667ZM7.56996 15.2971L4.02665 14.683L3.3435 18.6242L6.88681 19.2384L7.56996 15.2971ZM4.04285 14.6858L1.44442 14.2134L0.728882 18.1489L3.32731 18.6213L4.04285 14.6858ZM2.53183 17.5637L16.0909 3.39046L13.2005 0.625349L-0.358525 14.7986L2.53183 17.5637ZM1.96743 19.0956L6.78633 19.946L7.48147 16.0068L2.66257 15.1564L1.96743 19.0956ZM5.35909 18.8984L12.9181 33.4496L16.4678 31.6056L8.90871 17.0544L5.35909 18.8984ZM12.693 32.5276L12.693 43.3465L16.693 43.3465L16.693 32.5276L12.693 32.5276ZM16.4683 42.4255L2.76748 16.016L-0.783153 17.858L12.9176 44.2675L16.4683 42.4255ZM0.70932 18.9169L2.03216 19.1059L2.59784 15.1461L1.27501 14.9571L0.70932 18.9169Z" mask="url(#path-1-inside-1_1338_1940-3)"></path>
</g>
<defs>
<clipPath id="clip0_1338_1940-2">
<rect width="30" height="44.1732" fill="white" transform="translate(30 45) rotate(-180)"></rect>
</clipPath>
</defs>
</svg>