<svg width="24" height="39" viewBox="0 0 24 39" fill="none" xmlns="http://www.w3.org/2000/svg">
<g clip-path="url(#clip0_788_14338)">
<path fill-rule="evenodd" clip-rule="evenodd" d="M12.224 0.274414C18.4843 3.29156 22.9034 10.6059 22.9034 19.2002C22.9034 27.703 18.4843 35.0172 12.224 38.1258C5.9637 35.0172 1.63672 27.703 1.63672 19.2002C1.63672 10.6059 5.9637 3.29156 12.224 0.274414Z" stroke="#555555" stroke-miterlimit="10"/>
<path d="M15.168 6.67466L16.0886 2.83466" stroke="#555555" stroke-miterlimit="10"/>
<path d="M19.3125 14.0801L21.7982 12.1601" stroke="#555555" stroke-miterlimit="10"/>
<path d="M15.168 31.8171L15.9965 35.5656" stroke="#555555" stroke-miterlimit="10"/>
<path d="M12.2227 0.274414L15.1687 6.67441" stroke="#555555" stroke-miterlimit="10"/>
<path d="M12.2227 8.77729L15.1687 6.67444" stroke="#555555" stroke-miterlimit="10"/>
<path d="M19.6791 7.31411L19.3108 14.0798M15.168 6.67411L18.8505 6.0341" stroke="#555555" stroke-miterlimit="10"/>
<path d="M22.903 19.2916L19.3125 24.503M19.3125 13.9887L22.903 19.2001" stroke="#555555" stroke-miterlimit="10"/>
<path d="M18.7606 32.4574L15.0781 31.726M19.221 24.4116L19.5893 31.1773" stroke="#555555" stroke-miterlimit="10"/>
<path d="M15.0766 31.7258L12.2227 37.943" stroke="#555555" stroke-miterlimit="10"/>
<path d="M12.2227 8.77734L19.3115 14.0802" stroke="#555555" stroke-miterlimit="10"/>
<path d="M15.168 6.67415L19.2188 24.5028" stroke="#555555" stroke-miterlimit="10"/>
<path d="M19.3131 14.0804L15.0781 31.8176" stroke="#555555" stroke-miterlimit="10"/>
<path d="M19.2195 24.5031L12.2227 29.5316" stroke="#555555" stroke-miterlimit="10"/>
<path d="M15.0766 31.8173L12.2227 29.623" stroke="#555555" stroke-miterlimit="10"/>
<path d="M9.27779 6.67472L8.44922 2.83472" stroke="#555555" stroke-miterlimit="10"/>
<path d="M5.13415 14.0802L2.64844 12.1602" stroke="#555555" stroke-miterlimit="10"/>
<path d="M9.27779 31.8171L8.44922 35.5657" stroke="#555555" stroke-miterlimit="10"/>
<path d="M12.2234 0.274445L9.27734 6.67445" stroke="#555555" stroke-miterlimit="10"/>
<path d="M12.2234 8.7773L9.27734 6.67445" stroke="#555555" stroke-miterlimit="10"/>
<path d="M4.76562 7.31442L5.13388 14.0801M9.27674 6.67442L5.59419 6.03442" stroke="#555555" stroke-miterlimit="10"/>
<path d="M1.63672 19.2916L5.22719 24.5031M5.22719 13.9888L1.63672 19.2001" stroke="#555555" stroke-miterlimit="10"/>
<path d="M5.68794 32.4574L9.37049 31.726M5.22763 24.4117L4.85938 31.1773" stroke="#555555" stroke-miterlimit="10"/>
<path d="M9.37109 31.7258L12.225 37.943" stroke="#555555" stroke-miterlimit="10"/>
<path d="M12.2217 8.77734L5.13281 14.0802" stroke="#555555" stroke-miterlimit="10"/>
<path d="M9.27736 6.67445L5.22656 24.503" stroke="#555555" stroke-miterlimit="10"/>
<path d="M5.13281 14.0801L9.36773 31.8172" stroke="#555555" stroke-miterlimit="10"/>
<path d="M5.22656 24.503L12.2234 29.5316" stroke="#555555" stroke-miterlimit="10"/>
<path d="M9.37109 31.8173L12.225 29.623" stroke="#555555" stroke-miterlimit="10"/>
</g>
<defs>
<clipPath id="clip0_788_14338">
<rect width="23.2" height="38.4" fill="white" transform="translate(0.800781)"/>
</clipPath>
</defs>
</svg>
