<svg width="411" height="130" viewBox="0 0 411 130" fill="none" xmlns="http://www.w3.org/2000/svg">
<path d="M-283.776 129.481C-265.561 129.481 -248.437 122.756 -235.512 110.496C-228.477 103.823 -223.296 96.0114 -220.024 87.6828C-216.806 79.5094 -208.517 74.0778 -199.3 74.0778H-198.864C-189.484 74.0778 -180.921 79.2508 -177.377 87.4242C-174.377 94.3043 -169.96 100.667 -164.234 106.151C-152.563 117.221 -137.075 123.273 -120.605 123.273C-104.135 123.273 -88.647 117.169 -76.9764 106.151C-72.3409 101.753 -68.5779 96.7356 -65.6875 91.3557C-60.2885 81.1131 -49.9267 74.1295 -37.8743 74.1295H-33.2933C-22.2225 74.1295 -11.479 79.4577 -6.40717 88.8209C-3.89853 93.4766 -0.571838 97.8737 3.57288 101.805C13.9892 111.686 27.8413 117.117 42.5659 117.117C57.2906 117.117 71.1426 111.686 81.559 101.805C84.2857 99.2187 86.6853 96.3735 88.7031 93.4249C97.3198 80.9062 112.808 74.1812 128.569 74.1812H129.005C144.384 74.1812 158.018 81.8373 167.453 93.3214C168.653 94.7699 169.907 96.1666 171.325 97.4598C180.541 106.151 192.703 110.961 205.737 110.961C218.771 110.961 230.932 106.151 240.149 97.4598C241.567 96.1149 242.821 94.7699 244.021 93.3214C254.601 80.544 271.725 74.1812 288.849 74.1812H295.066C311.863 74.1812 327.188 81.5786 338.968 92.9076C339.022 92.9593 339.077 93.011 339.131 93.0628C347.093 100.615 357.673 104.754 368.908 104.754C380.142 104.754 390.722 100.615 398.684 93.0628C406.646 85.5101 411.009 75.4745 411.009 64.818C411.009 54.1616 406.646 44.1259 398.684 36.5733C390.722 29.0207 380.142 24.8823 368.908 24.8823C357.673 24.8823 347.093 29.0207 339.131 36.5733C339.077 36.625 339.022 36.6768 338.968 36.7285C327.188 48.0574 311.809 55.4549 295.066 55.4549H288.849C271.725 55.4549 254.601 49.092 244.021 36.3147C242.821 34.8662 241.567 33.5212 240.149 32.1762C230.932 23.4855 218.771 18.6746 205.737 18.6746C192.703 18.6746 180.541 23.4855 171.325 32.1762C169.907 33.5212 168.653 34.9179 167.453 36.3147C158.018 47.7988 144.33 55.4549 129.005 55.4549H128.569C112.808 55.4549 97.3198 48.7299 88.7031 36.2112C86.6853 33.2626 84.2857 30.4174 81.559 27.8309C71.1426 17.9504 57.2906 12.5187 42.5659 12.5187C27.8413 12.5187 13.9892 17.9504 3.51837 27.8826C-0.626343 31.8141 -3.8985 36.1595 -6.4617 40.8152C-11.5335 50.1784 -22.277 55.5066 -33.3478 55.5066H-37.9833C-50.0357 55.5066 -60.3975 48.4713 -65.7966 38.2804C-68.6324 32.9005 -72.4499 27.8826 -77.0854 23.4855C-88.7561 12.4153 -104.244 6.31109 -120.714 6.31109C-137.184 6.31109 -152.672 12.4153 -164.343 23.4855C-170.123 28.969 -174.541 35.3835 -177.54 42.3671C-181.031 50.437 -189.538 55.5583 -198.7 55.5583C-208.298 55.5583 -216.86 49.9197 -220.296 41.3842C-223.732 32.8487 -228.695 25.6582 -235.566 19.1402C-248.382 6.72494 -265.506 0 -283.776 0C-305.481 0 -325.659 9.5701 -338.911 26.5376C-356.363 48.8851 -356.363 80.544 -338.911 102.892C-325.659 119.911 -305.481 129.481 -283.721 129.481H-283.776Z" fill="url(#paint0_linear_51_20937)"/>
<defs>
<linearGradient id="paint0_linear_51_20937" x1="420.985" y1="64.7543" x2="-559.052" y2="64.2225" gradientUnits="userSpaceOnUse">
<stop stop-color="#F5F8FB" stop-opacity="0.57"/>
<stop offset="1" stop-color="#F3F7FA"/>
</linearGradient>
</defs>
</svg>
