<svg width="400" height="400" viewBox="0 0 400 400" fill="none" xmlns="http://www.w3.org/2000/svg">
<path d="M399.5 200C399.5 310.181 310.181 399.5 200 399.5C89.8192 399.5 0.5 310.181 0.5 200C0.5 89.8192 89.8192 0.5 200 0.5C310.181 0.5 399.5 89.8192 399.5 200Z" fill="#F5F8FB" stroke="#F5F8FB"/>
<path d="M271.062 92.0952C273.404 92.0952 275.303 90.1963 275.303 87.8538C275.303 85.5114 273.404 83.6125 271.062 83.6125C268.719 83.6125 266.82 85.5114 266.82 87.8538C266.82 90.1963 268.719 92.0952 271.062 92.0952Z" stroke="url(#paint0_radial_51_20946)" stroke-width="2" stroke-miterlimit="10"/>
<path d="M48.4523 181.363C50.7947 181.363 52.6935 179.464 52.6935 177.121C52.6935 174.779 50.7947 172.88 48.4523 172.88C46.1098 172.88 44.2109 174.779 44.2109 177.121C44.2109 179.464 46.1098 181.363 48.4523 181.363Z" stroke="url(#paint1_radial_51_20946)" stroke-width="2" stroke-miterlimit="10"/>
<path d="M366.633 146.451L348.589 156.935L330.43 146.451L348.473 135.967L366.633 146.451Z" fill="white"/>
<path d="M366.633 146.451L366.575 168.348L348.531 178.832L348.589 156.935L366.633 146.451Z" fill="#BDC0C9"/>
<path d="M348.591 156.935L348.533 178.832L330.367 168.348L330.432 146.451L348.591 156.935Z" fill="#D9DEE2"/>
<g opacity="0.5">
<path d="M364.122 261.342C364.257 212.804 296.435 173.266 212.636 173.032C128.837 172.798 60.795 211.957 60.6595 260.494C60.5239 309.032 128.346 348.57 212.145 348.804C295.944 349.038 363.986 309.88 364.122 261.342Z" fill="#D7DAE0"/>
</g>
<path d="M352.005 261.342C352.14 212.804 284.318 173.266 200.519 173.032C116.72 172.798 48.6778 211.956 48.5423 260.494C48.4068 309.032 116.229 348.57 200.028 348.804C283.827 349.038 351.869 309.88 352.005 261.342Z" fill="#BDC0C9"/>
<path d="M352.016 242.536L351.906 255.06C351.842 277.409 337.155 299.726 307.815 316.775C248.759 351.093 152.687 351.093 93.2382 316.775C63.323 299.506 48.3849 276.834 48.4494 254.195L48.5592 241.703C48.4946 264.343 63.407 287.015 93.3479 304.283C152.791 338.608 248.869 338.608 307.925 304.283C337.246 287.202 351.952 264.885 352.016 242.536Z" fill="#D9DEE2"/>
<path d="M352.005 242.516C352.14 193.978 284.318 154.441 200.519 154.207C116.72 153.973 48.6778 193.131 48.5423 241.669C48.4068 290.207 116.229 329.744 200.028 329.978C283.827 330.212 351.869 291.054 352.005 242.516Z" fill="white"/>
<path d="M291.045 304.322L317.681 289.274C318.191 288.988 318.616 288.572 318.914 288.069C319.212 287.566 319.372 286.993 319.378 286.409C319.384 285.824 319.235 285.248 318.947 284.739C318.66 284.23 318.243 283.806 317.739 283.51L287.914 265.854" fill="#D7DAE0"/>
<path d="M216.21 197.218L215.965 202.201" stroke="#FFAB59" stroke-miterlimit="10"/>
<path d="M214.952 197.224L214.707 202.201" stroke="#2DC0BF" stroke-miterlimit="10"/>
<path d="M213.648 197.018L213.402 202.002" stroke="#5257D4" stroke-miterlimit="10"/>
<path d="M240.336 156.36L364.548 84.7874" stroke="#5257D4" stroke-width="11" stroke-miterlimit="10"/>
<path d="M214.801 197.882C214.801 197.882 215.75 169.2 240.333 156.36" stroke="#5257D4" stroke-width="11" stroke-miterlimit="10"/>
<path d="M183.398 341.893C193.576 342.564 203.785 342.643 213.972 342.132V329.647C203.785 330.154 193.576 330.07 183.398 329.396V341.893Z" fill="#F5F5F5"/>
<path d="M284.07 141.009L108.214 39.4759C102.455 36.1513 97.7686 38.8303 97.7493 45.4408L97.3555 184.048C97.3555 190.672 101.991 198.741 107.755 202.066L283.612 303.593C289.376 306.924 294.063 304.238 294.083 297.621L294.476 159.027C294.496 152.416 289.835 144.334 284.07 141.009ZM195.784 228.96C173.099 215.861 154.823 184.21 154.9 158.142C154.978 132.075 173.363 121.597 196.048 134.696C218.733 147.794 237.009 179.439 236.931 205.507C236.854 231.574 218.462 242.052 195.784 228.96Z" fill="#DDDFFC"/>
<path d="M284.073 141.009L108.217 39.4763C102.459 36.1517 97.7719 38.8307 97.7526 45.4413L97.7461 56.6288L294.473 170.247V159.059C294.499 152.417 289.838 144.334 284.073 141.009Z" fill="#2DC0BF"/>
<path d="M290.9 137.039L115.051 35.5125C112.152 33.834 109.518 33.6791 107.62 34.783L100.797 38.7532C102.695 37.6493 105.316 37.8042 108.221 39.4762L284.077 141.009C289.842 144.334 294.503 152.403 294.483 159.027L294.09 297.622C294.09 300.914 292.921 303.231 291.049 304.322L297.872 300.352C299.745 299.268 300.907 296.95 300.92 293.658L301.307 155.063C301.326 148.44 296.672 140.37 290.9 137.039Z" fill="#BDC0FA"/>
<path d="M108.34 54.0826C108.972 53.7154 108.969 52.5328 108.335 51.4413C107.7 50.3497 106.674 49.7625 106.042 50.1298C105.41 50.497 105.413 51.6796 106.048 52.7711C106.682 53.8627 107.709 54.4499 108.34 54.0826Z" fill="#1F96A1"/>
<path d="M119.295 59.6068C119.93 59.2378 119.928 58.049 119.29 56.9516C118.653 55.8541 117.621 55.2636 116.986 55.6326C116.351 56.0016 116.353 57.1904 116.991 58.2878C117.628 59.3853 118.66 59.9758 119.295 59.6068Z" fill="#1F96A1"/>
<path d="M128.483 65.1395C129.118 64.7705 129.115 63.5817 128.478 62.4843C127.84 61.3869 126.808 60.7964 126.173 61.1654C125.538 61.5344 125.54 62.7231 126.178 63.8206C126.816 64.918 127.848 65.5085 128.483 65.1395Z" fill="#1F96A1"/>
<path d="M203.135 225.687C180.45 212.588 162.174 180.943 162.252 154.875C162.284 142.894 166.196 134.218 172.613 129.595C161.942 131.958 154.944 142.093 154.899 158.142C154.821 184.21 173.097 215.861 195.782 228.96C208.047 236.028 219.022 236.216 226.568 230.787C219.919 232.258 211.843 230.715 203.135 225.687Z" fill="#BDC0FA"/>
<path d="M208.23 211.743L212.672 213.996" stroke="#FFAB59" stroke-miterlimit="10"/>
<path d="M207.715 212.892L212.163 215.145" stroke="#2DC0BF" stroke-miterlimit="10"/>
<path d="M207 213.996L211.448 216.255" stroke="#5257D4" stroke-miterlimit="10"/>
<path d="M301.273 166.179V155.063C301.273 148.439 296.638 140.37 290.867 137.039L115.043 35.5122C112.144 33.8337 109.511 33.6788 107.613 34.7827L100.789 38.7529C102.687 37.649 105.308 37.8039 108.213 39.4759L284.069 141.009C289.834 144.334 294.495 152.403 294.476 159.027V170.143L301.273 166.179Z" fill="#1F96A1"/>
<path d="M20.207 285.097L125.697 223.769C125.697 223.769 170.047 192.473 207.896 213.034" stroke="#5257D4" stroke-width="11" stroke-miterlimit="10"/>
<path d="M201.047 200L194.578 197.018" stroke="#5257D4" stroke-miterlimit="10"/>
<path d="M203.21 196.107L200.285 188.141" stroke="#5257D4" stroke-miterlimit="10"/>
<path d="M207.896 197.224L207.715 193.26" stroke="#5257D4" stroke-miterlimit="10"/>
<path d="M151.878 115.619C152.708 116.16 153.398 116.889 153.893 117.748C154.387 118.606 154.672 119.569 154.724 120.558C154.724 122.378 153.433 123.101 151.858 122.191L136.784 113.489C135.955 112.95 135.264 112.222 134.769 111.365C134.274 110.507 133.989 109.545 133.938 108.557C133.938 106.743 135.229 106.007 136.804 106.917L151.878 115.619Z" fill="#BDC0FA"/>
<path d="M163.174 111.101C164.006 111.64 164.698 112.369 165.194 113.227C165.69 114.085 165.975 115.049 166.027 116.039C166.027 117.853 164.736 118.583 163.154 117.672L136.816 102.463C135.986 101.924 135.295 101.196 134.8 100.339C134.306 99.4815 134.021 98.5195 133.969 97.5311C133.969 95.7171 135.26 94.9812 136.835 95.8914L163.174 111.101Z" fill="#BDC0FA"/>
<path d="M128.404 105.839C129.424 108.46 128.133 110.261 126.086 109.067L110.696 100.177C108.65 98.9961 107.384 95.7166 108.411 94.277L116.158 83.3929C116.674 82.6764 117.571 82.6828 118.469 83.1993C119.523 83.8748 120.328 84.8769 120.76 86.0527L128.404 105.839Z" fill="#BDC0FA"/>
<path d="M119.203 99.2738C119.392 99.5941 119.488 99.9607 119.48 100.333C119.48 100.707 119.384 100.939 119.196 101.049C119.009 101.159 118.745 101.107 118.409 100.914C118.082 100.729 117.806 100.465 117.608 100.145C117.42 99.8244 117.322 99.4587 117.324 99.0866C117.324 98.6928 117.421 98.441 117.608 98.3507C117.796 98.2603 118.06 98.3055 118.415 98.5121C118.738 98.6946 119.01 98.9569 119.203 99.2738Z" fill="#5257D4"/>
<path d="M118.399 97.2985C118.182 97.1539 117.999 96.9634 117.862 96.7403C117.726 96.5173 117.641 96.2671 117.612 96.0074L117.412 91.056C117.379 90.3717 117.844 90.0812 118.419 90.4104C118.722 90.6062 118.973 90.8733 119.15 91.1883C119.327 91.5034 119.424 91.8569 119.432 92.218L119.193 96.9112C119.187 97.3631 118.845 97.5438 118.399 97.2985Z" fill="#5257D4"/>
<path d="M244.724 248.527C245.267 248.865 245.712 249.339 246.015 249.902C246.738 251.141 246.732 252.484 246.015 252.891L243.355 254.414L245.996 258.991C246.719 260.237 246.712 261.573 245.996 261.987C245.788 262.08 245.559 262.117 245.332 262.093C245.105 262.069 244.889 261.986 244.704 261.851C244.165 261.511 243.721 261.041 243.413 260.482L240.773 255.905L238.113 257.422C237.905 257.516 237.676 257.553 237.449 257.529C237.223 257.505 237.006 257.422 236.822 257.287C236.283 256.947 235.839 256.476 235.531 255.918C234.815 254.672 234.821 253.336 235.531 252.923L238.184 251.406L235.544 246.829C234.827 245.589 234.834 244.247 235.544 243.833C235.752 243.74 235.981 243.703 236.208 243.727C236.435 243.751 236.651 243.834 236.835 243.969C237.376 244.309 237.821 244.783 238.126 245.344L240.76 249.908L243.42 248.398C243.63 248.306 243.86 248.27 244.089 248.292C244.317 248.315 244.536 248.396 244.724 248.527Z" fill="#7B80E5"/>
<path d="M269.874 271.198C270.706 271.738 271.398 272.466 271.894 273.325C272.39 274.183 272.675 275.147 272.727 276.137C272.727 277.957 271.436 278.68 269.861 277.77L254.787 269.068C253.956 268.53 253.264 267.802 252.768 266.945C252.272 266.087 251.986 265.125 251.934 264.136C251.934 262.322 253.225 261.586 254.806 262.496L269.874 271.198Z" fill="#BDC0FA"/>
<path d="M281.18 266.679C282.01 267.22 282.701 267.949 283.195 268.807C283.69 269.666 283.975 270.629 284.027 271.618C284.027 273.432 282.736 274.161 281.161 273.251L254.822 258.042C253.992 257.505 253.301 256.779 252.805 255.924C252.31 255.07 252.023 254.11 251.969 253.123C251.969 251.309 253.26 250.54 254.841 251.483L281.18 266.679Z" fill="#BDC0FA"/>
<path d="M117.233 146.658C121.339 149.027 124.657 154.779 124.644 159.504L124.586 180.73C124.586 185.449 121.229 187.354 117.123 184.984L84.3485 166.063C80.2428 163.694 76.9246 157.942 76.9375 153.217L77.0021 131.991C77.0021 127.272 80.3525 125.367 84.4583 127.736L117.233 146.658Z" stroke="#BDC0FA" stroke-width="2" stroke-miterlimit="10"/>
<path d="M310.44 199.574C316.07 202.802 320.614 210.704 320.601 217.172L320.518 246.261C320.518 252.717 315.921 255.344 310.292 252.071L265.381 226.139C259.777 222.918 255.207 215.035 255.258 208.58L255.342 179.491C255.342 173.035 259.939 170.415 265.561 173.681L310.44 199.574Z" stroke="#BDC0FA" stroke-width="2" stroke-miterlimit="10"/>
<defs>
<radialGradient id="paint0_radial_51_20946" cx="0" cy="0" r="1" gradientUnits="userSpaceOnUse" gradientTransform="translate(271.062 87.8539) scale(4.88687 4.88686)">
<stop stop-color="#9499FA"/>
<stop offset="1" stop-color="#5257D5"/>
</radialGradient>
<radialGradient id="paint1_radial_51_20946" cx="0" cy="0" r="1" gradientUnits="userSpaceOnUse" gradientTransform="translate(48.4522 177.121) scale(4.88686)">
<stop stop-color="#9499FA"/>
<stop offset="1" stop-color="#5257D5"/>
</radialGradient>
</defs>
</svg>
