<svg width="584" height="212" viewBox="0 0 584 212" fill="none" xmlns="http://www.w3.org/2000/svg">
<g clip-path="url(#clip0_221_1764)">
<path d="M-491.289 136C-472.144 136 -454.144 128.936 -440.559 116.059C-433.164 109.05 -427.719 100.845 -424.279 92.0975C-420.897 83.5126 -412.184 77.8074 -402.497 77.8074H-402.038C-392.179 77.8074 -383.179 83.2409 -379.453 91.8258C-376.3 99.0523 -371.657 105.736 -365.638 111.495C-353.371 123.123 -337.092 129.48 -319.78 129.48C-302.469 129.48 -286.189 123.068 -273.922 111.495C-269.05 106.877 -265.095 101.606 -262.057 95.9553C-256.382 85.197 -245.49 77.8618 -232.822 77.8618H-228.007C-216.37 77.8618 -205.078 83.4583 -199.747 93.2928C-197.11 98.183 -193.613 102.801 -189.257 106.931C-178.308 117.309 -163.748 123.014 -148.271 123.014C-132.794 123.014 -118.234 117.309 -107.286 106.931C-104.419 104.214 -101.897 101.226 -99.7764 98.1286C-90.7194 84.9796 -74.4398 77.9161 -57.8735 77.9161H-57.415C-41.2501 77.9161 -26.9194 85.9577 -17.0026 98.02C-15.7415 99.5414 -14.4231 101.008 -12.9327 102.367C-3.24518 111.495 9.53778 116.548 23.2379 116.548C36.9379 116.548 49.7209 111.495 59.4084 102.367C60.8988 100.954 62.2172 99.5414 63.4783 98.02C74.5989 84.5993 92.5982 77.9161 110.597 77.9161H117.132C134.788 77.9161 150.895 85.686 163.277 97.5853C163.334 97.6396 163.392 97.694 163.449 97.7483C171.818 105.681 182.939 110.028 194.747 110.028C206.555 110.028 217.676 105.681 226.045 97.7483C234.414 89.8154 239 79.2745 239 68.0815C239 56.8885 234.414 46.3476 226.045 38.4147C217.676 30.4818 206.555 26.135 194.747 26.135C182.939 26.135 171.818 30.4818 163.449 38.4147C163.392 38.469 163.334 38.5234 163.277 38.5777C150.895 50.477 134.73 58.2469 117.132 58.2469H110.597C92.5982 58.2469 74.5989 51.5637 63.4783 38.143C62.2172 36.6217 60.8988 35.2089 59.4084 33.7962C49.7209 24.668 36.9379 19.6149 23.2379 19.6149C9.53778 19.6149 -3.24518 24.668 -12.9327 33.7962C-14.4231 35.2089 -15.7415 36.676 -17.0026 38.143C-26.9194 50.2054 -41.3074 58.2469 -57.415 58.2469H-57.8735C-74.4398 58.2469 -90.7194 51.1834 -99.7764 38.0344C-101.897 34.9373 -104.419 31.9489 -107.286 29.2321C-118.234 18.8542 -132.794 13.149 -148.271 13.149C-163.748 13.149 -178.308 18.8542 -189.314 29.2865C-193.671 33.4159 -197.11 37.98 -199.804 42.8702C-205.135 52.7048 -216.428 58.3012 -228.064 58.3012H-232.937C-245.605 58.3012 -256.496 50.9117 -262.171 40.2078C-265.152 34.5569 -269.165 29.2865 -274.037 24.668C-286.304 13.0404 -302.584 6.62885 -319.895 6.62885C-337.206 6.62885 -353.486 13.0404 -365.753 24.668C-371.829 30.4275 -376.472 37.165 -379.625 44.5002C-383.294 52.9764 -392.236 58.3556 -401.866 58.3556C-411.955 58.3556 -420.955 52.4331 -424.566 43.4678C-428.177 34.5026 -433.394 26.9501 -440.616 20.1039C-454.087 7.06352 -472.086 0 -491.289 0C-514.104 0 -535.313 10.0519 -549.243 27.8738C-567.586 51.3464 -567.586 84.5993 -549.243 108.072C-535.313 125.948 -514.104 136 -491.232 136H-491.289Z" fill="url(#paint0_linear_221_1764)"/>
<path d="M-249.379 279C-230.257 279 -212.28 271.936 -198.712 259.059C-191.326 252.05 -185.887 243.845 -182.452 235.097C-179.075 226.513 -170.372 220.807 -160.697 220.807H-160.239C-150.392 220.807 -141.403 226.241 -137.682 234.826C-134.533 242.052 -129.896 248.736 -123.885 254.495C-111.633 266.123 -95.3735 272.48 -78.0836 272.48C-60.7938 272.48 -44.5345 266.068 -32.2828 254.495C-27.4164 249.877 -23.4661 244.606 -20.4318 238.955C-14.7639 228.197 -3.88623 220.862 8.76624 220.862H13.5753C25.1973 220.862 36.4758 226.458 41.8001 236.293C44.4337 241.183 47.926 245.801 52.2771 249.931C63.212 260.309 77.7538 266.014 93.2116 266.014C108.669 266.014 123.211 260.309 134.146 249.931C137.009 247.214 139.528 244.226 141.646 241.129C150.692 227.98 166.951 220.916 183.497 220.916H183.955C200.099 220.916 214.412 228.958 224.317 241.02C225.576 242.541 226.893 244.008 228.381 245.367C238.057 254.495 250.824 259.548 264.507 259.548C278.19 259.548 290.957 254.495 300.632 245.367C302.121 243.954 303.438 242.541 304.697 241.02C315.804 227.599 333.781 220.916 351.758 220.916H358.284C375.917 220.916 392.005 228.686 404.371 240.585C404.428 240.64 404.486 240.694 404.543 240.748C412.902 248.681 424.008 253.028 435.802 253.028C447.596 253.028 458.703 248.681 467.061 240.748C475.42 232.815 480 222.274 480 211.081C480 199.889 475.42 189.348 467.061 181.415C458.703 173.482 447.596 169.135 435.802 169.135C424.008 169.135 412.902 173.482 404.543 181.415C404.486 181.469 404.428 181.523 404.371 181.578C392.005 193.477 375.86 201.247 358.284 201.247H351.758C333.781 201.247 315.804 194.564 304.697 181.143C303.438 179.622 302.121 178.209 300.632 176.796C290.957 167.668 278.19 162.615 264.507 162.615C250.824 162.615 238.057 167.668 228.381 176.796C226.893 178.209 225.576 179.676 224.317 181.143C214.412 193.205 200.042 201.247 183.955 201.247H183.497C166.951 201.247 150.692 194.183 141.646 181.034C139.528 177.937 137.009 174.949 134.146 172.232C123.211 161.854 108.669 156.149 93.2116 156.149C77.7538 156.149 63.2121 161.854 52.2198 172.286C47.8688 176.416 44.4337 180.98 41.7429 185.87C36.4185 195.705 25.1401 201.301 13.5181 201.301H8.65176C-4.00073 201.301 -14.8784 193.912 -20.5463 183.208C-23.5233 177.557 -27.5309 172.286 -32.3973 167.668C-44.649 156.04 -60.9083 149.629 -78.1982 149.629C-95.488 149.629 -111.747 156.04 -123.999 167.668C-130.068 173.427 -134.705 180.165 -137.854 187.5C-141.518 195.976 -150.449 201.356 -160.067 201.356C-170.143 201.356 -179.132 195.433 -182.739 186.468C-186.345 177.503 -191.555 169.95 -198.769 163.104C-212.223 150.064 -230.2 143 -249.379 143C-272.165 143 -293.348 153.052 -307.26 170.874C-325.58 194.346 -325.58 227.599 -307.26 251.072C-293.348 268.948 -272.165 279 -249.322 279H-249.379Z" fill="url(#paint1_linear_221_1764)"/>
</g>
<defs>
<linearGradient id="paint0_linear_221_1764" x1="249.485" y1="68.0146" x2="-780.633" y2="67.4552" gradientUnits="userSpaceOnUse">
<stop stop-color="#F1FAF9"/>
<stop offset="1" stop-color="#3FE0D0" stop-opacity="0.63"/>
</linearGradient>
<linearGradient id="paint1_linear_221_1764" x1="490.472" y1="211.015" x2="-538.361" y2="210.457" gradientUnits="userSpaceOnUse">
<stop stop-color="#F1FAF9"/>
<stop offset="1" stop-color="#3FE0D0" stop-opacity="0.63"/>
</linearGradient>
<clipPath id="clip0_221_1764">
<rect width="626" height="212" fill="white" transform="translate(-42)"/>
</clipPath>
</defs>
</svg>
