<?xml version="1.0" encoding="UTF-8"?>
<svg xmlns="http://www.w3.org/2000/svg" width="1920" height="1497" viewBox="0 0 1920 1497" fill="none">
  <g clip-path="url(#clip0_162_1831)">
    <path d="M737.786 1241.48C719.571 1241.48 702.446 1234.76 689.521 1222.5C682.486 1215.82 677.305 1208.01 674.033 1199.68C670.816 1191.51 662.526 1186.08 653.31 1186.08H652.873C643.493 1186.08 634.931 1191.25 631.386 1199.42C628.387 1206.3 623.97 1212.67 618.243 1218.15C606.573 1229.22 591.084 1235.27 574.615 1235.27C558.145 1235.27 542.657 1229.17 530.986 1218.15C526.351 1213.75 522.588 1208.74 519.697 1203.36C514.298 1193.11 503.936 1186.13 491.884 1186.13H487.303C476.232 1186.13 465.489 1191.46 460.417 1200.82C457.908 1205.48 454.582 1209.87 450.437 1213.81C440.021 1223.69 426.168 1229.12 411.444 1229.12C396.719 1229.12 382.867 1223.69 372.451 1213.81C369.724 1211.22 367.324 1208.37 365.307 1205.42C356.69 1192.91 341.202 1186.18 325.441 1186.18H325.005C309.626 1186.18 295.992 1193.84 286.557 1205.32C285.357 1206.77 284.103 1208.17 282.685 1209.46C273.468 1218.15 261.307 1222.96 248.273 1222.96C235.239 1222.96 223.077 1218.15 213.861 1209.46C212.443 1208.11 211.189 1206.77 209.989 1205.32C199.409 1192.54 182.285 1186.18 165.161 1186.18H158.943C142.146 1186.18 126.822 1193.58 115.042 1204.91C114.988 1204.96 114.933 1205.01 114.879 1205.06C106.916 1212.62 96.3365 1216.75 85.1021 1216.75C73.8677 1216.75 63.2879 1212.62 55.3256 1205.06C47.3634 1197.51 43.0005 1187.47 43.0005 1176.82C43.0005 1166.16 47.3634 1156.13 55.3256 1148.57C63.2879 1141.02 73.8677 1136.88 85.1021 1136.88C96.3365 1136.88 106.916 1141.02 114.879 1148.57C114.933 1148.63 114.988 1148.68 115.042 1148.73C126.822 1160.06 142.201 1167.45 158.943 1167.45H165.161C182.285 1167.45 199.409 1161.09 209.989 1148.31C211.189 1146.87 212.443 1145.52 213.861 1144.18C223.077 1135.49 235.239 1130.67 248.273 1130.67C261.307 1130.67 273.468 1135.49 282.685 1144.18C284.103 1145.52 285.357 1146.92 286.557 1148.31C295.992 1159.8 309.68 1167.45 325.005 1167.45H325.441C341.202 1167.45 356.69 1160.73 365.307 1148.21C367.324 1145.26 369.724 1142.42 372.451 1139.83C382.867 1129.95 396.719 1124.52 411.444 1124.52C426.168 1124.52 440.021 1129.95 450.491 1139.88C454.636 1143.81 457.908 1148.16 460.471 1152.82C465.543 1162.18 476.287 1167.51 487.358 1167.51H491.993C504.045 1167.51 514.407 1160.47 519.806 1150.28C522.642 1144.9 526.46 1139.88 531.095 1135.49C542.766 1124.42 558.254 1118.31 574.724 1118.31C591.194 1118.31 606.682 1124.42 618.352 1135.49C624.133 1140.97 628.551 1147.38 631.55 1154.37C635.04 1162.44 643.548 1167.56 652.71 1167.56C662.308 1167.56 670.87 1161.92 674.306 1153.38C677.742 1144.85 682.705 1137.66 689.576 1131.14C702.392 1118.72 719.516 1112 737.786 1112C759.491 1112 779.669 1121.57 792.921 1138.54C810.373 1160.89 810.373 1192.54 792.921 1214.89C779.669 1231.91 759.491 1241.48 737.731 1241.48H737.786Z" fill="url(#paint0_linear_162_1831)"></path>
    <path d="M719.786 1396.48C701.571 1396.48 684.446 1389.76 671.521 1377.5C664.486 1370.82 659.305 1363.01 656.033 1354.68C652.816 1346.51 644.526 1341.08 635.31 1341.08H634.873C625.493 1341.08 616.931 1346.25 613.386 1354.42C610.387 1361.3 605.97 1367.67 600.243 1373.15C588.573 1384.22 573.084 1390.27 556.615 1390.27C540.145 1390.27 524.657 1384.17 512.986 1373.15C508.351 1368.75 504.588 1363.74 501.697 1358.36C496.298 1348.11 485.936 1341.13 473.884 1341.13H469.303C458.232 1341.13 447.489 1346.46 442.417 1355.82C439.908 1360.48 436.582 1364.87 432.437 1368.81C422.021 1378.69 408.168 1384.12 393.444 1384.12C378.719 1384.12 364.867 1378.69 354.451 1368.81C351.724 1366.22 349.324 1363.37 347.307 1360.42C338.69 1347.91 323.202 1341.18 307.441 1341.18H307.005C291.626 1341.18 277.992 1348.84 268.557 1360.32C267.357 1361.77 266.103 1363.17 264.685 1364.46C255.468 1373.15 243.307 1377.96 230.273 1377.96C217.239 1377.96 205.077 1373.15 195.861 1364.46C194.443 1363.11 193.189 1361.77 191.989 1360.32C181.409 1347.54 164.285 1341.18 147.161 1341.18H140.943C124.146 1341.18 108.822 1348.58 97.0422 1359.91C96.9877 1359.96 96.9331 1360.01 96.8786 1360.06C88.9164 1367.62 78.3365 1371.75 67.1021 1371.75C55.8677 1371.75 45.2879 1367.62 37.3256 1360.06C29.3634 1352.51 25.0005 1342.47 25.0005 1331.82C25.0005 1321.16 29.3634 1311.13 37.3256 1303.57C45.2879 1296.02 55.8677 1291.88 67.1021 1291.88C78.3365 1291.88 88.9164 1296.02 96.8786 1303.57C96.9331 1303.63 96.9877 1303.68 97.0422 1303.73C108.822 1315.06 124.201 1322.45 140.943 1322.45H147.161C164.285 1322.45 181.409 1316.09 191.989 1303.31C193.189 1301.87 194.443 1300.52 195.861 1299.18C205.077 1290.49 217.239 1285.67 230.273 1285.67C243.307 1285.67 255.468 1290.49 264.685 1299.18C266.103 1300.52 267.357 1301.92 268.557 1303.31C277.992 1314.8 291.68 1322.45 307.005 1322.45H307.441C323.202 1322.45 338.69 1315.73 347.307 1303.21C349.324 1300.26 351.724 1297.42 354.451 1294.83C364.867 1284.95 378.719 1279.52 393.444 1279.52C408.168 1279.52 422.021 1284.95 432.491 1294.88C436.636 1298.81 439.908 1303.16 442.471 1307.82C447.543 1317.18 458.287 1322.51 469.358 1322.51H473.993C486.045 1322.51 496.407 1315.47 501.806 1305.28C504.642 1299.9 508.46 1294.88 513.095 1290.49C524.766 1279.42 540.254 1273.31 556.724 1273.31C573.194 1273.31 588.682 1279.42 600.352 1290.49C606.133 1295.97 610.551 1302.38 613.55 1309.37C617.04 1317.44 625.548 1322.56 634.71 1322.56C644.308 1322.56 652.87 1316.92 656.306 1308.38C659.742 1299.85 664.705 1292.66 671.576 1286.14C684.392 1273.72 701.516 1267 719.786 1267C741.491 1267 761.669 1276.57 774.921 1293.54C792.373 1315.89 792.373 1347.54 774.921 1369.89C761.669 1386.91 741.491 1396.48 719.731 1396.48H719.786Z" fill="url(#paint1_linear_162_1831)"></path>
  </g>
  <g clip-path="url(#clip1_162_1831)">
    <path d="M1989.02 173.481C1970.81 173.481 1953.68 166.756 1940.76 154.496C1933.72 147.823 1928.54 140.011 1925.27 131.683C1922.05 123.509 1913.76 118.078 1904.54 118.078H1904.11C1894.73 118.078 1886.17 123.251 1882.62 131.424C1879.62 138.304 1875.2 144.667 1869.48 150.151C1857.81 161.221 1842.32 167.273 1825.85 167.273C1809.38 167.273 1793.89 161.169 1782.22 150.151C1777.58 145.753 1773.82 140.736 1770.93 135.356C1765.53 125.113 1755.17 118.129 1743.12 118.129H1738.54C1727.47 118.129 1716.72 123.458 1711.65 132.821C1709.14 137.477 1705.82 141.874 1701.67 145.805C1691.25 155.686 1677.4 161.117 1662.68 161.117C1647.95 161.117 1634.1 155.686 1623.69 145.805C1620.96 143.219 1618.56 140.373 1616.54 137.425C1607.92 124.906 1592.44 118.181 1576.68 118.181H1576.24C1560.86 118.181 1547.23 125.837 1537.79 137.321C1536.59 138.77 1535.34 140.167 1533.92 141.46C1524.7 150.151 1512.54 154.961 1499.51 154.961C1486.47 154.961 1474.31 150.151 1465.1 141.46C1463.68 140.115 1462.42 138.77 1461.22 137.321C1450.64 124.544 1433.52 118.181 1416.39 118.181H1410.18C1393.38 118.181 1378.06 125.579 1366.28 136.908C1366.22 136.959 1366.17 137.011 1366.11 137.063C1358.15 144.615 1347.57 148.754 1336.34 148.754C1325.1 148.754 1314.52 144.615 1306.56 137.063C1298.6 129.51 1294.23 119.474 1294.23 108.818C1294.23 98.1616 1298.6 88.1259 1306.56 80.5733C1314.52 73.0207 1325.1 68.8823 1336.34 68.8823C1347.57 68.8823 1358.15 73.0207 1366.11 80.5733C1366.17 80.625 1366.22 80.6768 1366.28 80.7285C1378.06 92.0574 1393.44 99.4549 1410.18 99.4549H1416.39C1433.52 99.4549 1450.64 93.092 1461.22 80.3147C1462.42 78.8662 1463.68 77.5212 1465.1 76.1762C1474.31 67.4855 1486.47 62.6746 1499.51 62.6746C1512.54 62.6746 1524.7 67.4855 1533.92 76.1762C1535.34 77.5212 1536.59 78.9179 1537.79 80.3147C1547.23 91.7988 1560.91 99.4549 1576.24 99.4549H1576.68C1592.44 99.4549 1607.92 92.7299 1616.54 80.2112C1618.56 77.2626 1620.96 74.4174 1623.69 71.8309C1634.1 61.9504 1647.95 56.5187 1662.68 56.5187C1677.4 56.5187 1691.25 61.9504 1701.73 71.8826C1705.87 75.8141 1709.14 80.1595 1711.71 84.8152C1716.78 94.1784 1727.52 99.5066 1738.59 99.5066H1743.23C1755.28 99.5066 1765.64 92.4713 1771.04 82.2804C1773.88 76.9005 1777.69 71.8826 1782.33 67.4855C1794 56.4153 1809.49 50.3111 1825.96 50.3111C1842.43 50.3111 1857.92 56.4153 1869.59 67.4855C1875.37 72.969 1879.78 79.3835 1882.78 86.3671C1886.27 94.437 1894.78 99.5583 1903.94 99.5583C1913.54 99.5583 1922.1 93.9197 1925.54 85.3842C1928.98 76.8487 1933.94 69.6582 1940.81 63.1402C1953.63 50.7249 1970.75 44 1989.02 44C2010.73 44 2030.9 53.5701 2044.16 70.5376C2061.61 92.8851 2061.61 124.544 2044.16 146.892C2030.9 163.911 2010.73 173.481 1988.97 173.481H1989.02Z" fill="url(#paint2_linear_162_1831)"></path>
    <path d="M1759.21 309.481C1741 309.481 1723.87 302.756 1710.95 290.496C1703.91 283.823 1698.73 276.011 1695.46 267.683C1692.24 259.509 1683.95 254.078 1674.74 254.078H1674.3C1664.92 254.078 1656.36 259.251 1652.81 267.424C1649.81 274.304 1645.4 280.667 1639.67 286.151C1628 297.221 1612.51 303.273 1596.04 303.273C1579.57 303.273 1564.08 297.169 1552.41 286.151C1547.78 281.753 1544.01 276.736 1541.12 271.356C1535.72 261.113 1525.36 254.129 1513.31 254.129H1508.73C1497.66 254.129 1486.91 259.458 1481.84 268.821C1479.33 273.477 1476.01 277.874 1471.86 281.805C1461.45 291.686 1447.59 297.117 1432.87 297.117C1418.14 297.117 1404.29 291.686 1393.88 281.805C1391.15 279.219 1388.75 276.373 1386.73 273.425C1378.12 260.906 1362.63 254.181 1346.87 254.181H1346.43C1331.05 254.181 1317.42 261.837 1307.98 273.321C1306.78 274.77 1305.53 276.167 1304.11 277.46C1294.89 286.151 1282.73 290.961 1269.7 290.961C1256.66 290.961 1244.5 286.151 1235.29 277.46C1233.87 276.115 1232.61 274.77 1231.41 273.321C1220.83 260.544 1203.71 254.181 1186.59 254.181H1180.37C1163.57 254.181 1148.25 261.579 1136.47 272.908C1136.41 272.959 1136.36 273.011 1136.3 273.063C1128.34 280.615 1117.76 284.754 1106.53 284.754C1095.29 284.754 1084.71 280.615 1076.75 273.063C1068.79 265.51 1064.43 255.474 1064.43 244.818C1064.43 234.162 1068.79 224.126 1076.75 216.573C1084.71 209.021 1095.29 204.882 1106.53 204.882C1117.76 204.882 1128.34 209.021 1136.3 216.573C1136.36 216.625 1136.41 216.677 1136.47 216.728C1148.25 228.057 1163.63 235.455 1180.37 235.455H1186.59C1203.71 235.455 1220.83 229.092 1231.41 216.315C1232.61 214.866 1233.87 213.521 1235.29 212.176C1244.5 203.486 1256.66 198.675 1269.7 198.675C1282.73 198.675 1294.89 203.486 1304.11 212.176C1305.53 213.521 1306.78 214.918 1307.98 216.315C1317.42 227.799 1331.11 235.455 1346.43 235.455H1346.87C1362.63 235.455 1378.12 228.73 1386.73 216.211C1388.75 213.263 1391.15 210.417 1393.88 207.831C1404.29 197.95 1418.14 192.519 1432.87 192.519C1447.59 192.519 1461.45 197.95 1471.92 207.883C1476.06 211.814 1479.33 216.159 1481.9 220.815C1486.97 230.178 1497.71 235.507 1508.78 235.507H1513.42C1525.47 235.507 1535.83 228.471 1541.23 218.28C1544.07 212.9 1547.89 207.883 1552.52 203.486C1564.19 192.415 1579.68 186.311 1596.15 186.311C1612.62 186.311 1628.11 192.415 1639.78 203.486C1645.56 208.969 1649.98 215.384 1652.98 222.367C1656.47 230.437 1664.97 235.558 1674.14 235.558C1683.73 235.558 1692.3 229.92 1695.73 221.384C1699.17 212.849 1704.13 205.658 1711 199.14C1723.82 186.725 1740.94 180 1759.21 180C1780.92 180 1801.09 189.57 1814.35 206.538C1831.8 228.885 1831.8 260.544 1814.35 282.892C1801.09 299.911 1780.92 309.481 1759.16 309.481H1759.21Z" fill="url(#paint3_linear_162_1831)"></path>
  </g>
  <defs>
    <linearGradient id="paint0_linear_162_1831" x1="33.0253" y1="1176.75" x2="1013.06" y2="1176.22" gradientUnits="userSpaceOnUse">
      <stop stop-color="#7177F8" stop-opacity="0.5"></stop>
      <stop offset="1" stop-color="#3FE0D0"></stop>
    </linearGradient>
    <linearGradient id="paint1_linear_162_1831" x1="15.0253" y1="1331.75" x2="995.062" y2="1331.22" gradientUnits="userSpaceOnUse">
      <stop stop-color="#7177F8" stop-opacity="0.5"></stop>
      <stop offset="1" stop-color="#3FE0D0"></stop>
    </linearGradient>
    <linearGradient id="paint2_linear_162_1831" x1="1284.26" y1="108.754" x2="2264.3" y2="108.223" gradientUnits="userSpaceOnUse">
      <stop stop-color="#7177F8" stop-opacity="0.5"></stop>
      <stop offset="1" stop-color="#3FE0D0"></stop>
    </linearGradient>
    <linearGradient id="paint3_linear_162_1831" x1="1054.45" y1="244.754" x2="2034.49" y2="244.223" gradientUnits="userSpaceOnUse">
      <stop stop-color="#7177F8" stop-opacity="0.5"></stop>
      <stop offset="1" stop-color="#3FE0D0"></stop>
    </linearGradient>
    <clipPath id="clip0_162_1831">
      <rect width="806" height="284" fill="white" transform="translate(0 1112)"></rect>
    </clipPath>
    <clipPath id="clip1_162_1831">
      <rect width="856" height="265" fill="white" transform="translate(1064 44)"></rect>
    </clipPath>
  </defs>
</svg>
