<svg width="616" height="265" viewBox="0 0 616 265" fill="none" xmlns="http://www.w3.org/2000/svg">
<g clip-path="url(#clip0_443_1279)">
<path d="M925.018 129.481C906.803 129.481 889.679 122.756 876.754 110.496C869.719 103.823 864.538 96.0114 861.266 87.6828C858.048 79.5094 849.759 74.0778 840.542 74.0778H840.106C830.726 74.0778 822.164 79.2508 818.619 87.4242C815.619 94.3043 811.202 100.667 805.476 106.151C793.805 117.221 778.317 123.273 761.847 123.273C745.377 123.273 729.889 117.169 718.219 106.151C713.583 101.753 709.82 96.7356 706.93 91.3557C701.531 81.1131 691.169 74.1295 679.116 74.1295H674.535C663.465 74.1295 652.721 79.4577 647.649 88.8209C645.141 93.4766 641.814 97.8737 637.669 101.805C627.253 111.686 613.401 117.117 598.676 117.117C583.952 117.117 570.1 111.686 559.683 101.805C556.956 99.2187 554.557 96.3735 552.539 93.4249C543.922 80.9062 528.434 74.1812 512.673 74.1812H512.237C496.858 74.1812 483.224 81.8373 473.789 93.3214C472.59 94.7699 471.335 96.1666 469.917 97.4598C460.701 106.151 448.539 110.961 435.505 110.961C422.471 110.961 410.31 106.151 401.093 97.4598C399.675 96.1149 398.421 94.7699 397.221 93.3214C386.641 80.544 369.517 74.1812 352.393 74.1812H346.176C329.379 74.1812 314.054 81.5786 302.275 92.9076C302.22 92.9593 302.166 93.011 302.111 93.0628C294.149 100.615 283.569 104.754 272.335 104.754C261.1 104.754 250.52 100.615 242.558 93.0628C234.596 85.5101 230.233 75.4745 230.233 64.818C230.233 54.1616 234.596 44.1259 242.558 36.5733C250.52 29.0207 261.1 24.8823 272.335 24.8823C283.569 24.8823 294.149 29.0207 302.111 36.5733C302.166 36.625 302.22 36.6768 302.275 36.7285C314.054 48.0574 329.433 55.4549 346.176 55.4549H352.393C369.517 55.4549 386.641 49.092 397.221 36.3147C398.421 34.8662 399.675 33.5212 401.093 32.1762C410.31 23.4855 422.471 18.6746 435.505 18.6746C448.539 18.6746 460.701 23.4855 469.917 32.1762C471.335 33.5212 472.59 34.9179 473.789 36.3147C483.224 47.7988 496.913 55.4549 512.237 55.4549H512.673C528.434 55.4549 543.922 48.7299 552.539 36.2112C554.557 33.2626 556.956 30.4174 559.683 27.8309C570.1 17.9504 583.952 12.5187 598.676 12.5187C613.401 12.5187 627.253 17.9504 637.724 27.8826C641.869 31.8141 645.141 36.1595 647.704 40.8152C652.776 50.1784 663.519 55.5066 674.59 55.5066H679.226C691.278 55.5066 701.64 48.4713 707.039 38.2804C709.875 32.9005 713.692 27.8826 718.328 23.4855C729.998 12.4153 745.486 6.31109 761.956 6.31109C778.426 6.31109 793.914 12.4153 805.585 23.4855C811.366 28.969 815.783 35.3835 818.782 42.3671C822.273 50.437 830.78 55.5583 839.942 55.5583C849.541 55.5583 858.103 49.9197 861.538 41.3842C864.974 32.8487 869.937 25.6582 876.808 19.1402C889.624 6.72494 906.749 0 925.018 0C946.723 0 966.901 9.5701 980.154 26.5376C997.605 48.8851 997.605 80.544 980.154 102.892C966.901 119.911 946.723 129.481 924.963 129.481H925.018Z" fill="url(#paint0_linear_443_1279)"/>
<path d="M695.213 265.481C676.998 265.481 659.874 258.756 646.949 246.496C639.914 239.823 634.733 232.011 631.461 223.683C628.243 215.509 619.954 210.078 610.737 210.078H610.301C600.921 210.078 592.359 215.251 588.814 223.424C585.815 230.304 581.397 236.667 575.671 242.151C564 253.221 548.512 259.273 532.042 259.273C515.573 259.273 500.085 253.169 488.414 242.151C483.778 237.753 480.015 232.736 477.125 227.356C471.726 217.113 461.364 210.129 449.312 210.129H444.731C433.66 210.129 422.916 215.458 417.845 224.821C415.336 229.477 412.009 233.874 407.865 237.805C397.448 247.686 383.596 253.117 368.872 253.117C354.147 253.117 340.295 247.686 329.879 237.805C327.152 235.219 324.752 232.373 322.734 229.425C314.118 216.906 298.63 210.181 282.869 210.181H282.432C267.053 210.181 253.419 217.837 243.985 229.321C242.785 230.77 241.531 232.167 240.113 233.46C230.896 242.151 218.735 246.961 205.701 246.961C192.667 246.961 180.505 242.151 171.289 233.46C169.871 232.115 168.616 230.77 167.417 229.321C156.837 216.544 139.712 210.181 122.588 210.181H116.371C99.5742 210.181 84.2497 217.579 72.47 228.908C72.4154 228.959 72.3608 229.011 72.3063 229.063C64.3441 236.615 53.7642 240.754 42.5298 240.754C31.2955 240.754 20.7156 236.615 12.7534 229.063C4.79114 221.51 0.428223 211.474 0.428223 200.818C0.428223 190.162 4.79114 180.126 12.7534 172.573C20.7156 165.021 31.2955 160.882 42.5298 160.882C53.7642 160.882 64.3441 165.021 72.3063 172.573C72.3608 172.625 72.4154 172.677 72.47 172.728C84.2497 184.057 99.6287 191.455 116.371 191.455H122.588C139.712 191.455 156.837 185.092 167.417 172.315C168.616 170.866 169.871 169.521 171.289 168.176C180.505 159.486 192.667 154.675 205.701 154.675C218.735 154.675 230.896 159.486 240.113 168.176C241.531 169.521 242.785 170.918 243.985 172.315C253.419 183.799 267.108 191.455 282.432 191.455H282.869C298.63 191.455 314.118 184.73 322.734 172.211C324.752 169.263 327.152 166.417 329.879 163.831C340.295 153.95 354.147 148.519 368.872 148.519C383.596 148.519 397.448 153.95 407.919 163.883C412.064 167.814 415.336 172.159 417.899 176.815C422.971 186.178 433.715 191.507 444.785 191.507H449.421C461.473 191.507 471.835 184.471 477.234 174.28C480.07 168.9 483.887 163.883 488.523 159.486C500.194 148.415 515.682 142.311 532.152 142.311C548.621 142.311 564.109 148.415 575.78 159.486C581.561 164.969 585.978 171.384 588.978 178.367C592.468 186.437 600.976 191.558 610.138 191.558C619.736 191.558 628.298 185.92 631.734 177.384C635.169 168.849 640.132 161.658 647.004 155.14C659.82 142.725 676.944 136 695.213 136C716.919 136 737.097 145.57 750.349 162.538C767.8 184.885 767.8 216.544 750.349 238.892C737.097 255.911 716.919 265.481 695.159 265.481H695.213Z" fill="url(#paint1_linear_443_1279)"/>
</g>
<defs>
<linearGradient id="paint0_linear_443_1279" x1="220.258" y1="64.7543" x2="1200.29" y2="64.2225" gradientUnits="userSpaceOnUse">
<stop stop-color="#F1FAF9"/>
<stop offset="1" stop-color="#3FE0D0" stop-opacity="0.63"/>
</linearGradient>
<linearGradient id="paint1_linear_443_1279" x1="-9.547" y1="200.754" x2="970.49" y2="200.223" gradientUnits="userSpaceOnUse">
<stop stop-color="#F1FAF9"/>
<stop offset="1" stop-color="#3FE0D0" stop-opacity="0.63"/>
</linearGradient>
<clipPath id="clip0_443_1279">
<rect width="616" height="265" fill="white"/>
</clipPath>
</defs>
</svg>
