<svg xmlns="http://www.w3.org/2000/svg" width="33" height="32" viewBox="0 0 33 32" fill="none">
  <path d="M8.5013 8.90909L13.168 12.4545L8.5013 16M15.5013 16H20.168M6.16797 29H27.168C28.0962 29 28.9865 28.6265 29.6428 27.9616C30.2992 27.2967 30.668 26.3949 30.668 25.4545V6.54545C30.668 5.60514 30.2992 4.70334 29.6428 4.03844C28.9865 3.37354 28.0962 3 27.168 3H6.16797C5.23971 3 4.34947 3.37354 3.69309 4.03844C3.03672 4.70334 2.66797 5.60514 2.66797 6.54545V25.4545C2.66797 26.3949 3.03672 27.2967 3.69309 27.9616C4.34947 28.6265 5.23971 29 6.16797 29Z" stroke="#3FE0D0" stroke-width="2" stroke-linecap="round" stroke-linejoin="round"/>
</svg>