<?xml version="1.0" encoding="UTF-8"?>
<svg xmlns="http://www.w3.org/2000/svg" width="558" height="326" viewBox="0 0 558 326" fill="none">
  <rect x="0.5" y="0.5" width="557" height="325" rx="19.5" fill="#F5F8FB"></rect>
  <rect x="0.5" y="0.5" width="557" height="325" rx="19.5" stroke="#F5F8FB"></rect>
  <g clip-path="url(#clip0_489_20828)">
    <path d="M533.22 48H24V278H533.22V48Z" fill="#F5F8FB"></path>
    <path d="M239.14 169.86C248.31 175.15 248.34 183.74 239.24 189.02L180.17 223.35C171.05 228.65 156.25 228.65 147.08 223.35L87.6201 189C78.4601 183.72 78.4101 175.14 87.5301 169.85L146.6 135.54C155.7 130.25 170.52 130.24 179.67 135.54L239.14 169.86Z" fill="#D7DAE0"></path>
    <path d="M226.14 169.86C235.31 175.15 235.34 183.74 226.24 189.02L167.17 223.35C158.05 228.65 143.25 228.65 134.08 223.35L74.6201 189C65.4601 183.72 65.4101 175.14 74.5301 169.85L133.6 135.54C142.7 130.25 157.52 130.24 166.67 135.54L226.14 169.86Z" fill="#BDC0C9"></path>
    <path d="M226.24 172.24L167.17 206.57L166.94 221.3L226 187C230.53 184.37 232.79 180.93 232.8 177.48L233.03 162.75C233 166.17 230.77 169.61 226.24 172.24Z" fill="#D9DEE2"></path>
    <path d="M74.62 172.24C70.01 169.58 67.71 166.09 67.72 162.6L67.49 177.33C67.49 180.82 69.78 184.33 74.39 186.97L133.85 221.3L134.08 206.57L74.62 172.24Z" fill="#D9DEE2"></path>
    <path d="M226.14 153.07C235.31 158.37 235.34 166.95 226.24 172.24L167.17 206.57C158.05 211.86 143.25 211.86 134.08 206.57L74.6201 172.24C65.4601 166.95 65.4101 158.38 74.5301 153.08L133.6 118.75C142.7 113.46 157.52 113.45 166.67 118.75L226.14 153.07Z" fill="white"></path>
    <path d="M201.55 156.18C207.75 159.76 207.77 165.56 201.62 169.13L161.72 192.32C155.56 195.9 145.57 195.9 139.37 192.32L99.2 169.13C93.02 165.56 92.99 159.77 99.14 156.19L139.05 133C145.19 129.43 155.2 129.42 161.39 133L201.55 156.18Z" fill="#F5F8FB"></path>
    <path d="M141.27 179.26H148.7C150.164 179.262 151.603 178.886 152.88 178.17L193 154.27L180.85 147.27L141.27 179.26Z" fill="#D9DEE2"></path>
    <path d="M99.1401 159.19L139.05 136C145.19 132.43 155.2 132.42 161.39 136L201.55 159.19C203.622 160.219 205.214 162.011 205.99 164.19C206.8 161.37 205.33 158.36 201.55 156.19L161.39 133C155.2 129.43 145.19 129.44 139.05 133L99.1401 156.19C95.4201 158.35 93.9701 161.33 94.7701 164.13C95.5368 161.982 97.102 160.213 99.1401 159.19Z" fill="#D9DEE2"></path>
    <path d="M150.13 118.78C155.187 118.68 160.188 119.856 164.67 122.2L224.14 156.53C227.25 158.33 229.04 160.53 229.04 162.69C229.04 164.85 227.29 167 224.23 168.78L165.16 203.11C160.646 205.369 155.668 206.545 150.62 206.545C145.572 206.545 140.594 205.369 136.08 203.11L76.62 168.77C73.51 166.98 71.72 164.77 71.72 162.63C71.72 160.49 73.47 158.32 76.53 156.54L135.61 122.21C140.081 119.855 145.078 118.674 150.13 118.78Z" stroke="#D9DEE2" stroke-miterlimit="10"></path>
    <path d="M167.17 206.57L166.94 221.3C157.82 226.6 143.02 226.6 133.85 221.3L134.08 206.57C143.25 211.86 158.05 211.86 167.17 206.57Z" fill="#F5F5F5"></path>
    <path d="M487.89 169.86C497.06 175.15 497.1 183.74 488 189.02L428.92 223.35C419.81 228.65 405.01 228.65 395.83 223.35L336.37 189C327.21 183.72 327.17 175.14 336.28 169.85L395.35 135.52C404.45 130.23 419.27 130.22 428.43 135.52L487.89 169.86Z" fill="#D7DAE0"></path>
    <path d="M474.89 169.86C484.06 175.15 484.1 183.74 475 189.02L415.92 223.35C406.81 228.65 392.01 228.65 382.83 223.35L323.37 189C314.21 183.72 314.17 175.14 323.28 169.85L382.35 135.52C391.45 130.23 406.27 130.22 415.43 135.52L474.89 169.86Z" fill="#BDC0C9"></path>
    <path d="M475 172.24L415.92 206.57L415.69 221.3L474.77 187C479.29 184.37 481.56 180.93 481.57 177.48L481.8 162.75C481.79 166.17 479.52 169.61 475 172.24Z" fill="#D9DEE2"></path>
    <path d="M323.37 172.24C318.76 169.58 316.46 166.09 316.47 162.6L316.24 177.33C316.24 180.82 318.53 184.33 323.14 186.97L382.6 221.3L382.83 206.57L323.37 172.24Z" fill="#D9DEE2"></path>
    <path d="M474.89 153.07C484.06 158.37 484.1 166.95 475 172.24L415.92 206.57C406.81 211.86 392.01 211.86 382.83 206.57L323.37 172.24C314.21 166.95 314.17 158.38 323.28 153.08L382.35 118.75C391.45 113.46 406.27 113.45 415.43 118.75L474.89 153.07Z" fill="white"></path>
    <path d="M430.24 158.72C434 160.9 434.02 164.42 430.24 166.59L406 180.69C403.895 181.76 401.566 182.317 399.205 182.317C396.843 182.317 394.515 181.76 392.41 180.69L368 166.59C364.24 164.42 364.22 160.9 368 158.73L392.26 144.63C394.363 143.564 396.687 143.008 399.045 143.008C401.403 143.008 403.727 143.564 405.83 144.63L430.24 158.72Z" fill="#D9DEE2"></path>
    <path d="M398.89 118.78C403.947 118.68 408.947 119.856 413.43 122.2L472.89 156.53C476 158.33 477.79 160.53 477.8 162.69C477.81 164.85 476.05 167 472.99 168.78L413.91 203.11C409.396 205.369 404.417 206.545 399.37 206.545C394.322 206.545 389.344 205.369 384.83 203.11L325.37 168.78C322.26 166.99 320.48 164.78 320.47 162.64C320.46 160.5 322.23 158.33 325.29 156.55L384.36 122.22C388.835 119.865 393.834 118.685 398.89 118.79" stroke="#D9DEE2" stroke-miterlimit="10"></path>
    <path d="M415.92 206.57L415.69 221.3C406.58 226.6 391.78 226.6 382.6 221.3L382.83 206.57C392 211.86 406.81 211.86 415.92 206.57Z" fill="#F5F5F5"></path>
    <path opacity="0.5" d="M367.6 48L196.67 278.02" stroke="#BDC0C9" stroke-miterlimit="10"></path>
    <path d="M101.5 176.38C101.592 176.414 101.671 176.475 101.727 176.556C101.783 176.636 101.813 176.732 101.813 176.83C101.813 176.928 101.783 177.024 101.727 177.104C101.671 177.184 101.592 177.246 101.5 177.28C101.258 177.403 100.991 177.467 100.72 177.467C100.449 177.467 100.182 177.403 99.9399 177.28C99.8481 177.246 99.7688 177.184 99.7129 177.104C99.6569 177.024 99.627 176.928 99.627 176.83C99.627 176.732 99.6569 176.636 99.7129 176.556C99.7688 176.475 99.8481 176.414 99.9399 176.38C100.182 176.257 100.449 176.193 100.72 176.193C100.991 176.193 101.258 176.257 101.5 176.38Z" fill="#5257D5"></path>
    <path d="M107.63 179.92C107.722 179.954 107.801 180.015 107.857 180.096C107.913 180.176 107.943 180.272 107.943 180.37C107.943 180.468 107.913 180.564 107.857 180.644C107.801 180.724 107.722 180.786 107.63 180.82C107.388 180.943 107.121 181.007 106.85 181.007C106.579 181.007 106.312 180.943 106.07 180.82C105.978 180.786 105.899 180.724 105.843 180.644C105.787 180.564 105.757 180.468 105.757 180.37C105.757 180.272 105.787 180.176 105.843 180.096C105.899 180.015 105.978 179.954 106.07 179.92C106.311 179.795 106.579 179.73 106.85 179.73C107.121 179.73 107.389 179.795 107.63 179.92Z" fill="#D9DEE2"></path>
    <path d="M113.77 183.46C113.862 183.494 113.941 183.555 113.997 183.636C114.053 183.716 114.083 183.812 114.083 183.91C114.083 184.008 114.053 184.104 113.997 184.184C113.941 184.264 113.862 184.326 113.77 184.36C113.53 184.483 113.264 184.547 112.995 184.547C112.725 184.547 112.46 184.483 112.22 184.36C112.128 184.326 112.049 184.264 111.993 184.184C111.937 184.104 111.907 184.008 111.907 183.91C111.907 183.812 111.937 183.716 111.993 183.636C112.049 183.555 112.128 183.494 112.22 183.46C112.46 183.339 112.726 183.275 112.995 183.275C113.264 183.275 113.53 183.339 113.77 183.46Z" fill="#D9DEE2"></path>
    <path d="M119.9 187C119.992 187.034 120.071 187.095 120.127 187.176C120.183 187.256 120.213 187.352 120.213 187.45C120.213 187.548 120.183 187.644 120.127 187.724C120.071 187.804 119.992 187.866 119.9 187.9C119.658 188.023 119.391 188.087 119.12 188.087C118.849 188.087 118.582 188.023 118.34 187.9C118.248 187.866 118.169 187.804 118.113 187.724C118.057 187.644 118.027 187.548 118.027 187.45C118.027 187.352 118.057 187.256 118.113 187.176C118.169 187.095 118.248 187.034 118.34 187C118.583 186.88 118.85 186.818 119.12 186.818C119.391 186.818 119.658 186.88 119.9 187Z" fill="#D9DEE2"></path>
    <path d="M126 190.55C126.092 190.584 126.171 190.645 126.227 190.726C126.283 190.806 126.313 190.902 126.313 191C126.313 191.098 126.283 191.194 126.227 191.274C126.171 191.354 126.092 191.416 126 191.45C125.759 191.568 125.494 191.63 125.225 191.63C124.956 191.63 124.691 191.568 124.45 191.45C124.02 191.19 124.02 190.79 124.45 190.55C124.69 190.427 124.955 190.363 125.225 190.363C125.494 190.363 125.76 190.427 126 190.55Z" fill="#D9DEE2"></path>
    <path d="M372.2 108.21L381.2 103C382.08 103.57 382.95 104.1 383.79 104.58C398 112.79 405 109 405.41 108.82L396.41 114.03C396.04 114.23 388.98 118.03 374.76 109.79C374 109.31 373.09 108.78 372.2 108.21Z" fill="#7B80E5"></path>
    <path d="M374.84 113.25C380.77 116.45 386.24 118.07 391.12 118.07C392.492 118.08 393.861 117.932 395.2 117.63C400.803 125.682 408.092 132.418 416.56 137.37C416.97 137.61 417.39 137.84 417.81 138.07C418.16 142.76 418.53 155.82 412.49 162.59C409.97 165.4 406.64 166.77 402.31 166.77C400.773 166.759 399.24 166.609 397.73 166.32C376.66 146.06 374.61 123.12 374.84 113.25ZM372.2 108.25C372 109.9 367.56 142 396.29 169.09C398.261 169.527 400.272 169.755 402.29 169.77C424.44 169.77 420.83 137.98 420.63 136.18C419.74 135.73 418.88 135.26 418.04 134.77C409.277 129.681 401.868 122.557 396.44 114C394.774 114.758 392.948 115.101 391.12 115C387.53 115 382.12 113.94 374.79 109.72C373.95 109.24 373.09 108.72 372.2 108.14V108.25Z" fill="white"></path>
    <path d="M395.2 117.63C393.861 117.932 392.493 118.08 391.12 118.07C386.24 118.07 380.77 116.45 374.84 113.25C374.61 123.12 376.66 146.06 397.73 166.32C399.24 166.609 400.773 166.759 402.31 166.77C406.64 166.77 409.97 165.4 412.49 162.59C418.49 155.82 418.16 142.76 417.81 138.07C417.39 137.84 416.97 137.61 416.56 137.37C408.092 132.418 400.803 125.682 395.2 117.63Z" fill="#5257D5"></path>
    <path d="M396.44 114L405.44 108.79C410.854 117.345 418.249 124.47 427 129.56C427.84 130.05 428.7 130.56 429.59 130.97L420.59 136.18C419.7 135.73 418.84 135.26 418 134.77C409.252 129.676 401.857 122.552 396.44 114Z" fill="#5257D5"></path>
    <path d="M420 162.4L411 167.61C423.36 160.43 420.78 137.7 420.61 136.18L429.61 130.97C429.79 132.48 432.37 155.22 420 162.4Z" fill="#3C40B7"></path>
    <path d="M394.29 136.72C393.917 136.044 393.377 135.476 392.72 135.07C392.494 134.907 392.229 134.807 391.951 134.779C391.674 134.751 391.394 134.796 391.14 134.91L387.62 136.91C387.875 136.801 388.154 136.758 388.431 136.786C388.707 136.814 388.972 136.912 389.2 137.07C389.852 137.485 390.392 138.055 390.77 138.73L393 142.62L396.53 140.57L394.29 136.72Z" fill="#D9DEE2"></path>
    <path d="M400.09 139.64C400.749 140.043 401.291 140.612 401.66 141.29C402.54 142.8 402.53 144.42 401.66 144.91L392.98 149.91L387.62 140.62C386.75 139.12 386.76 137.5 387.62 137C387.875 136.891 388.154 136.848 388.431 136.876C388.707 136.904 388.972 137.002 389.2 137.16C389.852 137.575 390.392 138.145 390.77 138.82L393 142.62L398.53 139.48C398.781 139.368 399.058 139.323 399.331 139.351C399.605 139.379 399.867 139.479 400.09 139.64Z" fill="white"></path>
    <path d="M405.19 139.24C404.812 138.568 404.272 138.001 403.62 137.59C403.394 137.427 403.129 137.327 402.851 137.299C402.574 137.271 402.294 137.316 402.04 137.43L398.52 139.43C398.773 139.316 399.051 139.27 399.327 139.298C399.602 139.327 399.866 139.427 400.09 139.59C400.749 139.993 401.291 140.562 401.66 141.24C402.54 142.75 402.53 144.37 401.66 144.86L405.19 142.86C406.05 142.37 406.06 140.75 405.19 139.24Z" fill="#D9DEE2"></path>
    <path d="M446.62 173.45C452.546 173.45 457.35 168.646 457.35 162.72C457.35 156.794 452.546 151.99 446.62 151.99C440.694 151.99 435.89 156.794 435.89 162.72C435.89 168.646 440.694 173.45 446.62 173.45Z" fill="url(#paint0_radial_489_20828)"></path>
    <path d="M101.82 145.49C107.746 145.49 112.55 140.686 112.55 134.76C112.55 128.834 107.746 124.03 101.82 124.03C95.8941 124.03 91.0901 128.834 91.0901 134.76C91.0901 140.686 95.8941 145.49 101.82 145.49Z" fill="url(#paint1_radial_489_20828)"></path>
    <path d="M345.33 128.44C351.256 128.44 356.06 123.636 356.06 117.71C356.06 111.784 351.256 106.98 345.33 106.98C339.404 106.98 334.6 111.784 334.6 117.71C334.6 123.636 339.404 128.44 345.33 128.44Z" fill="url(#paint2_radial_489_20828)"></path>
    <path d="M357.17 173.37C359.158 173.37 360.77 171.758 360.77 169.77C360.77 167.782 359.158 166.17 357.17 166.17C355.182 166.17 353.57 167.782 353.57 169.77C353.57 171.758 355.182 173.37 357.17 173.37Z" fill="url(#paint3_radial_489_20828)"></path>
    <path d="M206.2 163.99C208.188 163.99 209.8 162.378 209.8 160.39C209.8 158.402 208.188 156.79 206.2 156.79C204.212 156.79 202.6 158.402 202.6 160.39C202.6 162.378 204.212 163.99 206.2 163.99Z" fill="url(#paint4_radial_489_20828)"></path>
    <path d="M432.29 111.81C434.278 111.81 435.89 110.198 435.89 108.21C435.89 106.222 434.278 104.61 432.29 104.61C430.302 104.61 428.69 106.222 428.69 108.21C428.69 110.198 430.302 111.81 432.29 111.81Z" fill="url(#paint5_radial_489_20828)"></path>
    <path d="M163.67 107.55C165.74 106.35 167.42 107.31 167.43 109.69L167.53 144.08C167.459 145.375 167.083 146.635 166.433 147.758C165.784 148.88 164.878 149.834 163.79 150.54L129.09 170.54C127.03 171.73 125.34 170.78 125.34 168.41L125.26 143C125.326 141.698 125.7 140.431 126.35 139.301C127 138.171 127.908 137.212 129 136.5L143.36 128.22C145.006 127.146 146.218 125.524 146.78 123.64L148.18 119.1C148.736 117.214 149.949 115.589 151.6 114.52L163.67 107.55Z" fill="#7B80E5"></path>
    <path d="M169 111.58V146.09L131.44 168L131.5 132.49C131.5 131.695 131.709 130.913 132.106 130.224C132.502 129.534 133.073 128.96 133.76 128.56L165.93 109.8C166.242 109.624 166.595 109.533 166.953 109.535C167.312 109.538 167.663 109.634 167.973 109.813C168.283 109.993 168.541 110.251 168.721 110.56C168.901 110.87 168.997 111.222 169 111.58Z" fill="#F5F8FB" stroke="#D9DEE2" stroke-miterlimit="10"></path>
    <path d="M172.57 114.11L172.51 148.62L135 170.53V135C134.999 134.204 135.208 133.423 135.604 132.733C136.001 132.043 136.572 131.47 137.26 131.07L169.44 112.29C169.757 112.101 170.119 112 170.489 111.998C170.858 111.996 171.222 112.093 171.541 112.278C171.86 112.464 172.124 112.732 172.305 113.054C172.486 113.376 172.578 113.741 172.57 114.11Z" fill="#F5F8FB" stroke="#D9DEE2" stroke-miterlimit="10"></path>
    <path d="M176.09 116.63L176 151.14L138.46 173.06L138.52 137.55C138.52 136.755 138.729 135.973 139.126 135.284C139.522 134.594 140.093 134.02 140.78 133.62L173 114.84C173.314 114.662 173.669 114.57 174.03 114.571C174.391 114.573 174.745 114.669 175.058 114.85C175.37 115.031 175.63 115.29 175.811 115.603C175.992 115.915 176.088 116.269 176.09 116.63Z" fill="#F5F8FB" stroke="#D9DEE2" stroke-miterlimit="10"></path>
    <path d="M177.76 115.74C179.83 114.55 181.52 115.51 181.52 117.88L181.62 152.27C181.552 153.565 181.178 154.825 180.53 155.948C179.882 157.07 178.977 158.024 177.89 158.73L143.18 178.73C141.12 179.92 139.44 178.96 139.43 176.59L139.36 151.12C139.429 149.826 139.803 148.566 140.451 147.443C141.099 146.321 142.004 145.367 143.09 144.66L157.44 136.37C159.093 135.302 160.31 133.677 160.87 131.79L162.26 127.25C162.824 125.365 164.039 123.741 165.69 122.67L177.76 115.74Z" fill="#5257D5"></path>
    <path d="M139.43 176.63L139.36 151.16C139.405 149.856 139.784 148.586 140.46 147.47L126.34 139.31C125.671 140.428 125.299 141.698 125.26 143L125.34 168.47C125.293 168.929 125.369 169.393 125.561 169.813C125.753 170.233 126.052 170.594 126.43 170.86L140.52 179.06C140.137 178.79 139.834 178.422 139.642 177.995C139.45 177.567 139.377 177.096 139.43 176.63Z" fill="#3C40B7"></path>
    <path d="M168.26 148.32C169.01 148.38 169.26 149.32 168.84 150.42L168.07 152.42C167.814 153.103 167.344 153.685 166.73 154.08C166.5 154.225 166.232 154.299 165.96 154.29L165.21 154.23C165.087 154.223 164.964 154.254 164.86 154.32C164.704 154.412 164.568 154.534 164.46 154.68C164.224 154.961 164.09 155.313 164.08 155.68V156.68C164.051 157.216 163.897 157.738 163.629 158.203C163.362 158.669 162.989 159.065 162.54 159.36L160.99 160.25C160.13 160.74 159.44 160.35 159.43 159.37V158.37C159.43 158.06 159.27 157.88 159.04 157.86C158.902 157.847 158.764 157.882 158.65 157.96C158.512 158.04 158.39 158.145 158.29 158.27L157.55 159.19C157.34 159.467 157.079 159.702 156.78 159.88C156.24 160.19 155.72 160.17 155.43 159.76L154.66 158.67C154.23 158.07 154.48 156.83 155.22 155.91L155.96 154.99C156.188 154.706 156.314 154.354 156.32 153.99C156.32 153.68 156.19 153.46 155.95 153.44L155.21 153.38C154.47 153.31 154.21 152.38 154.63 151.27L155.4 149.27C155.656 148.584 156.126 147.999 156.74 147.6C156.974 147.454 157.245 147.381 157.52 147.39L158.26 147.46C158.387 147.462 158.512 147.427 158.62 147.36C158.766 147.262 158.895 147.141 159 147C159.235 146.718 159.372 146.367 159.39 146V145C159.419 144.464 159.575 143.943 159.845 143.479C160.114 143.015 160.489 142.621 160.94 142.33L162.49 141.43C163.34 140.94 164.04 141.34 164.04 142.32V143.32C164.032 143.379 164.035 143.439 164.05 143.497C164.065 143.555 164.092 143.609 164.128 143.657C164.164 143.704 164.21 143.744 164.262 143.774C164.314 143.804 164.371 143.823 164.43 143.83C164.57 143.833 164.708 143.798 164.83 143.73C164.963 143.647 165.081 143.542 165.18 143.42L165.92 142.49C166.136 142.221 166.396 141.991 166.69 141.81C167.23 141.5 167.75 141.52 168.04 141.92L168.82 143.02C169.25 143.62 169 144.85 168.26 145.77L167.51 146.7C167.279 146.981 167.155 147.336 167.16 147.7C167.16 148.01 167.29 148.22 167.52 148.24L168.26 148.32ZM161.75 154.4C162.65 153.815 163.398 153.025 163.933 152.095C164.469 151.165 164.776 150.122 164.83 149.05C164.83 147.05 163.44 146.29 161.73 147.28C160.829 147.864 160.079 148.654 159.542 149.584C159.005 150.514 158.696 151.558 158.64 152.63C158.64 154.63 160.04 155.38 161.75 154.4Z" fill="white"></path>
    <path d="M188.23 111.33C189.235 111.33 190.05 110.515 190.05 109.51C190.05 108.505 189.235 107.69 188.23 107.69C187.225 107.69 186.41 108.505 186.41 109.51C186.41 110.515 187.225 111.33 188.23 111.33Z" stroke="url(#paint6_radial_489_20828)" stroke-miterlimit="10"></path>
  </g>
  <defs>
    <radialGradient id="paint0_radial_489_20828" cx="0" cy="0" r="1" gradientUnits="userSpaceOnUse" gradientTransform="translate(441.99 158.66) scale(13.53 13.53)">
      <stop stop-color="#9499FA"></stop>
      <stop offset="1" stop-color="#5257D5"></stop>
    </radialGradient>
    <radialGradient id="paint1_radial_489_20828" cx="0" cy="0" r="1" gradientUnits="userSpaceOnUse" gradientTransform="translate(97.2001 130.71) scale(13.53 13.53)">
      <stop stop-color="#9499FA"></stop>
      <stop offset="1" stop-color="#5257D5"></stop>
    </radialGradient>
    <radialGradient id="paint2_radial_489_20828" cx="0" cy="0" r="1" gradientUnits="userSpaceOnUse" gradientTransform="translate(340.7 113.65) scale(13.53 13.53)">
      <stop stop-color="#6CECD4"></stop>
      <stop offset="1" stop-color="#2DC0BF"></stop>
    </radialGradient>
    <radialGradient id="paint3_radial_489_20828" cx="0" cy="0" r="1" gradientUnits="userSpaceOnUse" gradientTransform="translate(355.62 168.41) scale(4.52999 4.53)">
      <stop stop-color="#6CECD4"></stop>
      <stop offset="1" stop-color="#2DC0BF"></stop>
    </radialGradient>
    <radialGradient id="paint4_radial_489_20828" cx="0" cy="0" r="1" gradientUnits="userSpaceOnUse" gradientTransform="translate(204.65 159.03) scale(4.53)">
      <stop stop-color="#6CECD4"></stop>
      <stop offset="1" stop-color="#2DC0BF"></stop>
    </radialGradient>
    <radialGradient id="paint5_radial_489_20828" cx="0" cy="0" r="1" gradientUnits="userSpaceOnUse" gradientTransform="translate(430.74 106.85) scale(4.53001 4.53)">
      <stop stop-color="#9499FA"></stop>
      <stop offset="1" stop-color="#5257D5"></stop>
    </radialGradient>
    <radialGradient id="paint6_radial_489_20828" cx="0" cy="0" r="1" gradientUnits="userSpaceOnUse" gradientTransform="translate(188.23 109.51) scale(2.32 2.32)">
      <stop stop-color="#9499FA"></stop>
      <stop offset="1" stop-color="#5257D5"></stop>
    </radialGradient>
    <clipPath id="clip0_489_20828">
      <rect width="510" height="230" fill="white" transform="translate(24 48)"></rect>
    </clipPath>
  </defs>
</svg>
