<?xml version="1.0" encoding="UTF-8"?>
<svg xmlns="http://www.w3.org/2000/svg" width="558" height="326" viewBox="0 0 558 326" fill="none">
  <rect x="0.5" y="0.5" width="557" height="325" rx="19.5" fill="#F5F8FB"></rect>
  <rect x="0.5" y="0.5" width="557" height="325" rx="19.5" stroke="#F5F8FB"></rect>
  <g clip-path="url(#clip0_489_20694)">
    <path d="M533.22 47.37H24V277.37H533.22V47.37Z" fill="#F5F8FB"></path>
    <path d="M374.71 189.42C384.77 195.23 384.81 204.65 374.83 210.42L310 248.12C300 253.93 283.76 253.93 273.7 248.12L208.45 210.45C198.45 204.65 198.35 195.24 208.35 189.45L273.17 151.78C283.17 145.97 299.41 145.96 309.46 151.78L374.71 189.42Z" fill="#D7DAE0"></path>
    <path d="M360.44 189.42C370.51 195.23 370.55 204.65 360.56 210.42L295.74 248.09C285.74 253.9 269.5 253.9 259.43 248.09L194.18 210.42C184.13 204.62 184.08 195.21 194.08 189.42L258.91 151.75C268.91 145.94 285.15 145.93 295.2 151.75L360.44 189.42Z" fill="#BDC0C9"></path>
    <path d="M360.44 171C370.51 176.81 370.55 186.23 360.56 192L295.74 229.7C285.74 235.51 269.5 235.51 259.43 229.7L194.18 192C184.13 186.2 184.08 176.79 194.08 171L258.91 133.33C268.91 127.52 285.15 127.51 295.2 133.33L360.44 171Z" fill="white"></path>
    <path d="M277.72 103.09C281.13 105.09 281.14 108.24 277.72 110.21L255.81 123C253.907 123.971 251.801 124.477 249.665 124.477C247.529 124.477 245.423 123.971 243.52 123L221.42 110.25C218.02 108.25 218 105.1 221.42 103.13L243.42 90.37C245.324 89.4014 247.429 88.8965 249.565 88.8965C251.701 88.8965 253.806 89.4014 255.71 90.37L277.72 103.09Z" fill="url(#paint0_linear_489_20694)"></path>
    <path d="M277.72 103.09C281.13 105.09 281.14 108.24 277.72 110.21L255.81 123C253.907 123.971 251.801 124.477 249.665 124.477C247.529 124.477 245.423 123.971 243.52 123L221.42 110.25C218.02 108.25 218 105.1 221.42 103.13L243.42 90.37C245.324 89.4014 247.429 88.8965 249.565 88.8965C251.701 88.8965 253.806 89.4014 255.71 90.37L277.72 103.09Z" stroke="white" stroke-miterlimit="10"></path>
    <path d="M360.56 192L295.74 229.7L295.49 245.87L360.31 208.2C365.31 205.31 367.76 201.54 367.77 197.75L368.02 181.58C368 185.37 365.52 189.14 360.56 192Z" fill="#D9DEE2"></path>
    <path d="M194.18 192C189.13 189.08 186.6 185.25 186.61 181.42L186.36 197.59C186.36 201.42 188.88 205.25 193.93 208.17L259.18 245.84L259.43 229.67L194.18 192Z" fill="#D9DEE2"></path>
    <path d="M249.57 113.35C255.496 113.35 260.3 108.546 260.3 102.62C260.3 96.694 255.496 91.89 249.57 91.89C243.644 91.89 238.84 96.694 238.84 102.62C238.84 108.546 243.644 113.35 249.57 113.35Z" fill="url(#paint1_radial_489_20694)"></path>
    <path d="M277 133.37C283 133.37 288.82 134.74 293 137.13L358.25 174.8C361.67 176.8 363.63 179.23 363.63 181.55C363.63 183.87 361.71 186.28 358.36 188.23L293.53 225.9C289.42 228.3 283.61 229.67 277.61 229.67C271.61 229.67 265.78 228.29 261.61 225.9L196.36 188.23C192.95 186.23 190.99 183.8 190.98 181.48C190.97 179.16 192.91 176.76 196.27 174.8L261.09 137.13C265.2 134.74 271.01 133.37 277.02 133.37" stroke="#D9DEE2" stroke-miterlimit="10"></path>
    <path d="M295.74 229.7L295.49 245.87C285.49 251.68 269.24 251.68 259.18 245.87L259.43 229.7C269.5 235.51 285.74 235.51 295.74 229.7Z" fill="#F5F5F5"></path>
    <path d="M292.43 167.44C298.26 164.1 307.68 164.14 313.43 167.53C319.18 170.92 319.19 176.37 313.35 179.72L277.35 200.36C271.52 203.7 262.1 203.66 256.35 200.27C250.6 196.88 250.61 191.43 256.44 188.09L292.43 167.44Z" fill="#D9DEE2"></path>
    <path d="M306.45 128.91L270.45 149.56C264.63 152.9 255.21 152.86 249.45 149.47C246.57 147.78 245.13 145.58 245.14 143.38L245 193.48C245 195.67 246.43 197.88 249.31 199.56C255.1 202.95 264.51 202.99 270.31 199.66L306.31 179C309.23 177.32 310.7 175.11 310.71 172.9L310.85 122.8C310.84 125 309.37 127.23 306.45 128.91Z" fill="#3C40B7"></path>
    <path d="M285.5 116.64C291.33 113.3 300.75 113.34 306.5 116.72C312.25 120.1 312.25 125.57 306.42 128.91L270.42 149.56C264.6 152.9 255.18 152.86 249.42 149.47C243.66 146.08 243.67 140.63 249.5 137.29L285.5 116.64Z" fill="#7B80E5"></path>
    <path d="M291.89 150.67C289.89 149.52 287.16 149.67 284.13 151.44C278.13 154.92 273.22 163.36 273.24 170.29C273.24 173.73 274.47 176.15 276.42 177.29L281.06 179.99C279.11 178.85 277.89 176.43 277.88 172.99C277.88 166.06 282.74 157.61 288.77 154.13C291.77 152.38 294.55 152.22 296.53 153.37L291.89 150.67Z" fill="#F5F8FB"></path>
    <path d="M288.77 154.13C294.77 150.65 299.7 153.45 299.77 160.38C299.84 167.31 294.92 175.74 288.89 179.22C282.86 182.7 277.95 179.92 277.89 172.99C277.83 166.06 282.74 157.61 288.77 154.13Z" fill="white"></path>
    <path d="M288.86 162.3C290.48 161.36 291.8 162.11 291.81 163.97C291.725 165.542 291.075 167.03 289.98 168.16V171.25C289.959 171.631 289.848 172.001 289.657 172.331C289.466 172.661 289.2 172.942 288.88 173.15C288.27 173.5 287.78 173.22 287.77 172.52V169.43C286.69 169.55 285.93 168.78 285.92 167.37C285.976 166.353 286.272 165.364 286.783 164.483C287.294 163.602 288.005 162.854 288.86 162.3Z" fill="#3C40B7"></path>
    <path d="M271.46 143.488C271.469 139.965 266.548 137.095 260.467 137.078C254.387 137.061 249.45 139.903 249.44 143.427C249.43 146.95 254.351 149.821 260.432 149.838C266.512 149.854 271.45 147.012 271.46 143.488Z" fill="white"></path>
    <path d="M306.317 122.841C306.327 119.317 301.406 116.447 295.325 116.43C289.244 116.413 284.307 119.256 284.297 122.779C284.287 126.303 289.209 129.173 295.289 129.19C301.37 129.207 306.307 126.364 306.317 122.841Z" fill="#3C40B7"></path>
    <path d="M287.51 121.6C291.79 119.11 298.76 119.11 303.08 121.6C304.326 122.237 305.346 123.243 306 124.48C307 122.35 306 119.98 303.13 118.31C298.81 115.82 291.84 115.82 287.56 118.31C284.7 119.97 283.77 122.31 284.74 124.44C285.353 123.234 286.319 122.243 287.51 121.6Z" fill="#5257D4"></path>
    <path d="M291.76 83.14C288.596 81.3038 284.999 80.3451 281.341 80.3627C277.683 80.3802 274.096 81.3735 270.95 83.24C265.677 86.3449 261.303 90.7703 258.261 96.08C255.219 101.39 253.612 107.4 253.6 113.52C253.6 113.52 253.6 141.52 253.72 141.85C253.26 143.13 253.88 144.52 255.6 145.51C257.113 146.279 258.787 146.68 260.485 146.68C262.183 146.68 263.857 146.279 265.37 145.51C267.07 144.51 267.68 143.14 267.21 141.86C267.29 141.53 267.34 113.52 267.34 113.52C267.345 109.796 268.322 106.138 270.174 102.908C272.026 99.6775 274.689 96.9862 277.9 95.1C278.961 94.4757 280.167 94.1422 281.398 94.1332C282.629 94.1241 283.841 94.4397 284.911 95.0482C285.981 95.6567 286.871 96.5365 287.493 97.599C288.114 98.6615 288.444 99.8691 288.45 101.1V113.81C288.45 115.632 289.174 117.379 290.462 118.668C291.751 119.956 293.498 120.68 295.32 120.68C297.142 120.68 298.889 119.956 300.178 118.668C301.466 117.379 302.19 115.632 302.19 113.81V101.14C302.21 97.483 301.254 93.8869 299.421 90.7227C297.588 87.5585 294.943 84.9408 291.76 83.14Z" fill="#DDDFFC"></path>
    <path opacity="0.5" d="M260.47 152C256.609 152.155 252.776 151.275 249.37 149.45C246.49 147.76 245.05 145.56 245.06 143.36L244.92 193.46C244.92 195.65 246.35 197.86 249.23 199.54C252.679 201.387 256.561 202.272 260.47 202.1V152Z" fill="#7B80E5"></path>
    <path d="M232.17 160.33C238.05 163.72 238.07 169.22 232.24 172.61L194.37 194.61C188.53 198.01 179.04 198.01 173.16 194.61L135.04 172.61C129.17 169.22 129.14 163.73 134.98 160.33L172.85 138.33C178.68 134.94 188.18 134.94 194.05 138.33L232.17 160.33Z" fill="url(#paint2_linear_489_20694)"></path>
    <path d="M232.17 160.33C238.05 163.72 238.07 169.22 232.24 172.61L194.37 194.61C188.53 198.01 179.04 198.01 173.16 194.61L135.04 172.61C129.17 169.22 129.14 163.73 134.98 160.33L172.85 138.33C178.68 134.94 188.18 134.94 194.05 138.33L232.17 160.33Z" stroke="white" stroke-miterlimit="10"></path>
    <path d="M195.53 129.53C190.25 126.48 186 119.09 186 113C186 110 187.07 107.87 188.79 106.87L173.32 115.87C171.6 116.87 170.54 118.99 170.53 122C170.53 128.07 174.78 135.46 180.06 138.51C182.72 140.05 185.13 140.19 186.87 139.18L202.33 130.18C200.59 131.21 198.19 131.07 195.53 129.53Z" fill="#1F96A1"></path>
    <path opacity="0.2" d="M195.531 129.53C193.195 128.095 191.204 126.162 189.701 123.87L174.261 132.87C175.754 135.152 177.735 137.075 180.061 138.5C182.721 140.04 185.131 140.18 186.871 139.17L202.331 130.17C200.591 131.21 198.191 131.07 195.531 129.53Z" fill="#F5F8FB"></path>
    <path d="M180.17 101C192.48 108.11 202.43 125.34 202.39 139.49C202.31 166 181.09 170.74 180 171C178.89 169.54 157.75 141.77 157.83 113.71C157.84 99.55 167.85 93.84 180.17 101ZM180.06 138.57C185.34 141.57 189.64 139.17 189.65 133.1C189.66 127.03 185.41 119.64 180.12 116.59C174.83 113.54 170.55 115.99 170.53 122.06C170.51 128.13 174.78 135.52 180.06 138.57Z" fill="#2DC0BF"></path>
    <path d="M195.631 92C189.441 88.42 183.821 88.09 179.771 90.45L164.301 99.45C168.361 97.09 173.971 97.45 180.171 101C192.481 108.11 202.431 125.34 202.391 139.49C202.391 156.11 193.991 164.19 187.491 167.97L202.961 158.97C209.461 155.19 217.811 147.11 217.851 130.49C217.891 116.3 207.941 99.07 195.631 92Z" fill="#1F96A1"></path>
    <g opacity="0.2">
      <path d="M179.77 90.41L164.3 99.41C168.36 97.05 173.97 97.41 180.17 100.96C181.04 101.46 181.89 102.03 182.74 102.63L198.21 93.63C197.36 93.03 196.51 92.46 195.63 91.96C189.44 88.38 183.82 88.05 179.77 90.41Z" fill="#F5F8FB"></path>
    </g>
    <path d="M403.74 136.89C409.62 140.28 409.64 145.78 403.81 149.17L365.94 171.17C360.1 174.57 350.61 174.57 344.73 171.17L306.61 149.17C300.74 145.79 300.71 140.29 306.55 136.89L344.42 114.89C350.25 111.5 359.75 111.49 365.62 114.89L403.74 136.89Z" fill="url(#paint3_linear_489_20694)"></path>
    <path d="M403.74 136.89C409.62 140.28 409.64 145.78 403.81 149.17L365.94 171.17C360.1 174.57 350.61 174.57 344.73 171.17L306.61 149.17C300.74 145.79 300.71 140.29 306.55 136.89L344.42 114.89C350.25 111.5 359.75 111.49 365.62 114.89L403.74 136.89Z" stroke="white" stroke-miterlimit="10"></path>
    <path d="M386.891 121.21L365.441 133.68L326.061 110.94L347.511 98.47L386.891 121.21Z" fill="#3FE0D0"></path>
    <path opacity="0.5" d="M367.529 116.122C367.539 112.599 362.617 109.728 356.537 109.711C350.456 109.694 345.519 112.537 345.509 116.061C345.499 119.584 350.42 122.454 356.501 122.471C362.582 122.488 367.519 119.646 367.529 116.122Z" fill="white"></path>
    <path d="M386.89 121.21L386.82 148.05L365.37 160.51L365.44 133.68L386.89 121.21Z" fill="#1F96A1"></path>
    <path d="M365.44 133.68L365.37 160.51L325.98 137.77L326.06 110.94L365.44 133.68Z" fill="#2DC0BF"></path>
    <path d="M350.501 125.1L350.421 151.93L340.921 146.35L341.001 119.52L350.501 125.1Z" fill="#1F96A1"></path>
    <path d="M350.5 125.1L372.07 112.66L362.57 107.08L341 119.52L350.5 125.1Z" fill="#2DC0BF"></path>
    <path opacity="0.5" d="M340.49 106.65L344.9 109.19" stroke="white" stroke-width="2" stroke-miterlimit="10" stroke-linecap="round"></path>
    <path opacity="0.5" d="M368.06 122.42L372.46 124.96" stroke="white" stroke-width="2" stroke-miterlimit="10" stroke-linecap="round"></path>
    <path d="M339.53 220.7C343.74 223.13 343.75 227.07 339.58 229.5L312.47 245.25C310.119 246.452 307.516 247.079 304.875 247.079C302.234 247.079 299.631 246.452 297.28 245.25L270 229.5C265.8 227.07 265.77 223.14 270 220.71L297.06 205C299.411 203.802 302.012 203.178 304.65 203.178C307.288 203.178 309.889 203.802 312.24 205L339.53 220.7Z" fill="url(#paint4_linear_489_20694)"></path>
    <path d="M339.53 220.7C343.74 223.13 343.75 227.07 339.58 229.5L312.47 245.25C310.119 246.452 307.516 247.079 304.875 247.079C302.234 247.079 299.631 246.452 297.28 245.25L270 229.5C265.8 227.07 265.77 223.14 270 220.71L297.06 205C299.411 203.802 302.012 203.178 304.65 203.178C307.288 203.178 309.889 203.802 312.24 205L339.53 220.7Z" stroke="white" stroke-miterlimit="10"></path>
    <path d="M325.98 90.62C327.968 90.62 329.58 89.0082 329.58 87.02C329.58 85.0318 327.968 83.42 325.98 83.42C323.992 83.42 322.38 85.0318 322.38 87.02C322.38 89.0082 323.992 90.62 325.98 90.62Z" fill="#D9DEE2"></path>
    <path d="M231.75 134.92C232.755 134.92 233.57 134.105 233.57 133.1C233.57 132.095 232.755 131.28 231.75 131.28C230.745 131.28 229.93 132.095 229.93 133.1C229.93 134.105 230.745 134.92 231.75 134.92Z" stroke="url(#paint5_radial_489_20694)" stroke-miterlimit="10"></path>
    <path d="M393.94 185.23C394.945 185.23 395.76 184.415 395.76 183.41C395.76 182.405 394.945 181.59 393.94 181.59C392.935 181.59 392.12 182.405 392.12 183.41C392.12 184.415 392.935 185.23 393.94 185.23Z" stroke="url(#paint6_radial_489_20694)" stroke-miterlimit="10"></path>
    <path d="M288.87 237C288.87 237 290.42 214.06 299.47 218.35C308.16 222.47 303.42 198.63 313.13 189.51C326.13 177.34 323.34 215.2 323.34 215.2L288.87 237Z" fill="#7B80E5"></path>
  </g>
  <defs>
    <linearGradient id="paint0_linear_489_20694" x1="249.57" y1="124.44" x2="249.57" y2="88.86" gradientUnits="userSpaceOnUse">
      <stop stop-color="#7B80E5"></stop>
      <stop offset="0.16" stop-color="#979BEA" stop-opacity="0.91"></stop>
      <stop offset="0.51" stop-color="#CACEF3" stop-opacity="0.74"></stop>
      <stop offset="0.8" stop-color="#EAEDF9" stop-opacity="0.64"></stop>
      <stop offset="1" stop-color="#F5F8FB" stop-opacity="0.6"></stop>
    </linearGradient>
    <radialGradient id="paint1_radial_489_20694" cx="0" cy="0" r="1" gradientUnits="userSpaceOnUse" gradientTransform="translate(244.95 98.56) scale(13.53 13.53)">
      <stop stop-color="#9499FA"></stop>
      <stop offset="1" stop-color="#5257D5"></stop>
    </radialGradient>
    <linearGradient id="paint2_linear_489_20694" x1="130.62" y1="166.47" x2="236.6" y2="166.47" gradientUnits="userSpaceOnUse">
      <stop stop-color="#F5F8FB" stop-opacity="0.6"></stop>
      <stop offset="0.19" stop-color="#E5F6F7" stop-opacity="0.63"></stop>
      <stop offset="0.47" stop-color="#B9F0ED" stop-opacity="0.73"></stop>
      <stop offset="0.8" stop-color="#71E7DC" stop-opacity="0.89"></stop>
      <stop offset="1" stop-color="#3FE0D0"></stop>
    </linearGradient>
    <linearGradient id="paint3_linear_489_20694" x1="302.19" y1="143.03" x2="408.17" y2="143.03" gradientUnits="userSpaceOnUse">
      <stop stop-color="#3FE0D0"></stop>
      <stop offset="0.2" stop-color="#71E7DC" stop-opacity="0.89"></stop>
      <stop offset="0.53" stop-color="#B9F0ED" stop-opacity="0.73"></stop>
      <stop offset="0.81" stop-color="#E5F6F7" stop-opacity="0.63"></stop>
      <stop offset="1" stop-color="#F5F8FB" stop-opacity="0.6"></stop>
    </linearGradient>
    <linearGradient id="paint4_linear_489_20694" x1="304.76" y1="247.08" x2="304.76" y2="203.13" gradientUnits="userSpaceOnUse">
      <stop stop-color="#F5F8FB" stop-opacity="0.6"></stop>
      <stop offset="0.2" stop-color="#EAEDF9" stop-opacity="0.64"></stop>
      <stop offset="0.49" stop-color="#CACEF3" stop-opacity="0.74"></stop>
      <stop offset="0.84" stop-color="#979BEA" stop-opacity="0.91"></stop>
      <stop offset="1" stop-color="#7B80E5"></stop>
    </linearGradient>
    <radialGradient id="paint5_radial_489_20694" cx="0" cy="0" r="1" gradientUnits="userSpaceOnUse" gradientTransform="translate(231.75 133.1) scale(2.32001 2.32)">
      <stop stop-color="#9499FA"></stop>
      <stop offset="1" stop-color="#5257D5"></stop>
    </radialGradient>
    <radialGradient id="paint6_radial_489_20694" cx="0" cy="0" r="1" gradientUnits="userSpaceOnUse" gradientTransform="translate(393.94 183.41) scale(2.32001 2.32)">
      <stop stop-color="#9499FA"></stop>
      <stop offset="1" stop-color="#5257D5"></stop>
    </radialGradient>
    <clipPath id="clip0_489_20694">
      <rect width="510" height="230" fill="white" transform="translate(24 48)"></rect>
    </clipPath>
  </defs>
</svg>
