<?xml version="1.0" encoding="UTF-8"?>
<svg xmlns="http://www.w3.org/2000/svg" width="558" height="326" viewBox="0 0 558 326" fill="none">
  <rect x="0.5" y="0.5" width="557" height="325" rx="19.5" fill="#F5F8FB"></rect>
  <rect x="0.5" y="0.5" width="557" height="325" rx="19.5" stroke="#F5F8FB"></rect>
  <g clip-path="url(#clip0_489_20746)">
    <path d="M533.22 48H24V278H533.22V48Z" fill="#F5F8FB"></path>
    <path d="M185.79 117.56C188.077 117.56 189.93 115.706 189.93 113.42C189.93 111.134 188.077 109.28 185.79 109.28C183.504 109.28 181.65 111.134 181.65 113.42C181.65 115.706 183.504 117.56 185.79 117.56Z" fill="#D9DEE2"></path>
    <path d="M374.61 141.92C375.77 141.92 376.71 140.98 376.71 139.82C376.71 138.66 375.77 137.72 374.61 137.72C373.45 137.72 372.51 138.66 372.51 139.82C372.51 140.98 373.45 141.92 374.61 141.92Z" stroke="url(#paint0_radial_489_20746)" stroke-miterlimit="10"></path>
    <path d="M339.74 124.95L280.14 159.59L220.15 124.95L279.75 90.3101L339.74 124.95Z" fill="#7B80E5"></path>
    <g opacity="0.5">
      <path d="M339.74 113.42L280.14 148.06L220.15 113.42L279.75 78.79L339.74 113.42Z" stroke="#3C40B7" stroke-miterlimit="10" stroke-dasharray="6 6"></path>
    </g>
    <path d="M339.74 227.85L280.14 262.49L220.15 227.85L279.75 193.22L339.74 227.85Z" fill="#D7DAE0"></path>
    <path d="M339.74 124.95L339.54 197.27L279.94 231.9L280.14 159.59L339.74 124.95Z" fill="#3C40B7"></path>
    <path opacity="0.5" d="M412.15 217.32L377.39 237.38C375.507 238.473 373.368 239.049 371.19 239.049C369.012 239.049 366.873 238.473 364.99 237.38L329.72 216.89C328.603 216.239 327.676 215.306 327.032 214.185C326.388 213.064 326.049 211.793 326.05 210.5V205.11" stroke="#3C40B7" stroke-miterlimit="10"></path>
    <path d="M280.14 159.59L279.94 231.9L219.94 197.27L220.15 124.95L280.14 159.59Z" fill="#5257D5"></path>
    <path d="M273.11 163.99L272.95 219.41L226.98 192.87L227.13 137.44L273.11 163.99Z" fill="#3FE0D0"></path>
    <path d="M230.48 190.31L230.63 139.46L227.13 137.44L226.98 192.87L272.95 219.41L272.97 214.83L230.48 190.31Z" fill="#3C40B7"></path>
    <path d="M279.94 134.88V91.96L255.79 120.58L279.94 134.88Z" fill="#3FE0D0"></path>
    <path d="M279.94 134.88V91.96L304.08 120.58L279.94 134.88Z" fill="#2DC0BF"></path>
    <g opacity="0.5">
      <path d="M339.74 94.9801L280.14 129.61L220.15 94.9801L279.75 60.3401L339.74 94.9801Z" stroke="#D5D8E2" stroke-miterlimit="10" stroke-dasharray="6 6"></path>
    </g>
    <path d="M156.59 188.44L137.62 199.46L118.53 188.44L137.5 177.41L156.59 188.44Z" fill="#7B80E5"></path>
    <path d="M156.59 188.44L156.53 211.45L137.56 222.48L137.62 199.46L156.59 188.44Z" fill="#3C40B7"></path>
    <path d="M137.62 199.46L137.56 222.48L118.47 211.45L118.53 188.44L137.62 199.46Z" fill="#5257D5"></path>
    <path d="M196.67 139.82L185.84 146.11L174.95 139.82L185.77 133.53L196.67 139.82Z" fill="white"></path>
    <path d="M196.67 139.82L196.63 152.95L185.81 159.25L185.84 146.11L196.67 139.82Z" fill="#BDC0C9"></path>
    <path d="M185.84 146.11L185.81 159.25L174.91 152.96L174.95 139.82L185.84 146.11Z" fill="#D9DEE2"></path>
    <path d="M385.44 177.24L374.61 183.53L363.72 177.24L374.54 170.94L385.44 177.24Z" fill="white"></path>
    <path d="M385.44 177.24L385.4 190.37L374.58 196.66L374.61 183.53L385.44 177.24Z" fill="#BDC0C9"></path>
    <path d="M374.61 183.53L374.58 196.66L363.68 190.37L363.72 177.24L374.61 183.53Z" fill="#D9DEE2"></path>
    <path d="M440.49 188.44L421.52 199.46L402.42 188.44L421.39 177.41L440.49 188.44Z" fill="#7B80E5"></path>
    <path d="M440.49 188.44L440.42 211.45L421.45 222.48L421.52 199.46L440.49 188.44Z" fill="#3C40B7"></path>
    <path d="M421.52 199.46L421.45 222.48L402.36 211.45L402.42 188.44L421.52 199.46Z" fill="#5257D5"></path>
    <path d="M414.18 205.59L414.11 228.61L395.02 217.59L395.08 194.57L414.18 205.59Z" fill="#2DC0BF"></path>
    <path d="M404.6 212.18L404.53 235.2L385.44 224.17L385.5 201.16L404.6 212.18Z" fill="#5257D5"></path>
    <path d="M137.62 194.53V173.07L125.55 187.38L137.62 194.53Z" fill="#3FE0D0"></path>
    <path d="M137.62 194.53V173.07L149.69 187.38L137.62 194.53Z" fill="#2DC0BF"></path>
    <path d="M421.45 194.53V173.07L409.38 187.38L421.45 194.53Z" fill="#3FE0D0"></path>
    <path d="M421.45 194.53V173.07L433.52 187.38L421.45 194.53Z" fill="#2DC0BF"></path>
    <path opacity="0.5" d="M145.22 216.11L182.14 237.38C184.025 238.473 186.166 239.049 188.345 239.049C190.524 239.049 192.665 238.473 194.55 237.38L229.82 216.89C230.937 216.239 231.864 215.306 232.508 214.185C233.152 213.064 233.491 211.793 233.49 210.5V205.11" stroke="#3C40B7" stroke-miterlimit="10"></path>
    <path d="M163.97 194.53L163.9 217.55L144.94 228.57L145 205.56L163.97 194.53Z" fill="#2DC0BF"></path>
    <path d="M259.57 167.44L233.49 152.39V149.52L259.57 164.58V167.44Z" fill="#5257D5"></path>
    <path d="M261.62 188.12L235.54 173.07V170.2L261.62 185.26V188.12Z" fill="#F5F8FB"></path>
    <path d="M259.57 174.54L233.49 159.48V156.62L259.57 171.67V174.54Z" fill="#F5F8FB"></path>
    <path d="M245.49 172.42L233.49 165.51V162.65L245.49 169.55V172.42Z" fill="#5257D5"></path>
    <path d="M256.04 191L244.04 184.1V181.24L256.04 188.14V191Z" fill="#5257D5"></path>
  </g>
  <defs>
    <radialGradient id="paint0_radial_489_20746" cx="0" cy="0" r="1" gradientUnits="userSpaceOnUse" gradientTransform="translate(374.61 139.82) scale(2.59999 2.6)">
      <stop stop-color="#9499FA"></stop>
      <stop offset="1" stop-color="#5257D5"></stop>
    </radialGradient>
    <clipPath id="clip0_489_20746">
      <rect width="510" height="230" fill="white" transform="translate(24 48)"></rect>
    </clipPath>
  </defs>
</svg>
