<?xml version="1.0" encoding="UTF-8"?>
<svg xmlns="http://www.w3.org/2000/svg" width="113" height="23" viewBox="0 0 113 23" fill="none">
  <g clip-path="url(#clip0_51_227)">
    <path d="M109.923 19.7385V19.2796H110.218C110.377 19.2796 110.596 19.2925 110.596 19.4879C110.596 19.6998 110.486 19.7366 110.294 19.7366L109.923 19.7385ZM109.923 20.0573H110.119L110.574 20.8553H111.076L110.57 20.026C110.832 20.0075 111.046 19.8841 111.046 19.5339C111.046 19.0972 110.744 18.9571 110.237 18.9571H109.501V20.8553H109.925L109.923 20.0573ZM112.062 19.9099C112.062 18.7931 111.195 18.1462 110.227 18.1462C109.254 18.1462 108.386 18.7931 108.386 19.9099C108.386 21.0248 109.254 21.6753 110.229 21.6753C111.194 21.6753 112.062 21.0248 112.062 19.9099ZM111.531 19.9099C111.531 20.7226 110.935 21.2699 110.227 21.2699V21.2644C109.501 21.2699 108.915 20.7226 108.915 19.9099C108.915 19.0972 109.501 18.5535 110.227 18.5535C110.935 18.5535 111.531 19.0972 111.531 19.9099ZM44.7461 1.02227L44.748 21.0506H50.406V1.02227H44.7461ZM0.228516 0.994629V21.0506H5.93817V5.82295H10.361C11.8248 5.82295 12.8683 6.186 13.5762 6.94158C14.4704 7.89434 14.8354 9.4313 14.8354 12.2454V21.0506H20.3681V9.96942C20.3681 2.05981 15.324 0.994629 10.3905 0.994629H0.228516ZM53.8591 1.02227V21.0506H63.0366C67.9277 21.0506 69.5242 20.2379 71.2499 18.4153C72.4703 17.1363 73.2576 14.326 73.2576 11.2594C73.2576 8.44352 72.5902 5.93168 71.4269 4.36708C69.3307 1.56776 66.309 1.02227 61.8014 1.02227H53.8591ZM59.471 5.38251H61.9046C65.4333 5.38251 67.7175 6.96922 67.7175 11.0788C67.7175 15.1921 65.4333 16.777 61.9046 16.777H59.471V5.38251ZM36.5882 1.02227L31.863 16.8968L27.3388 1.02227H21.2291L27.6928 21.0506H35.8489L42.3642 1.02227H36.5882ZM75.8902 21.0506H81.552V1.02227H75.8902V21.0506ZM91.7563 1.02964L83.8546 21.0469H89.4334L90.6833 17.5068H100.036L101.22 21.0469H107.278L99.3151 1.02964H91.7563ZM95.4288 4.68037L98.8579 14.0587H91.8928L95.4288 4.68037Z" fill="#002B31"></path>
  </g>
  <defs>
    <clipPath id="clip0_51_227">
      <rect width="111.833" height="22" fill="white" transform="translate(0.228516 0.334991)"></rect>
    </clipPath>
  </defs>
</svg>
