<svg width="20" height="21" viewBox="0 0 20 21" fill="none" xmlns="http://www.w3.org/2000/svg">
<g clip-path="url(#clip0_733_29)">
<path d="M14.8301 7.15372C14.6144 7.15372 14.4395 6.9788 14.4395 6.7631V4.09204C14.4395 3.87634 14.6144 3.70142 14.8301 3.70142C15.0458 3.70142 15.2207 3.87634 15.2207 4.09204V6.7631C15.2207 6.9788 15.0458 7.15372 14.8301 7.15372Z" fill="#004798"/>
<path d="M14.8281 3.22632C15.0439 3.22632 15.2188 3.05143 15.2188 2.83569C15.2188 2.61996 15.0439 2.44507 14.8281 2.44507C14.6124 2.44507 14.4375 2.61996 14.4375 2.83569C14.4375 3.05143 14.6124 3.22632 14.8281 3.22632Z" fill="#004798"/>
<path d="M18.9315 4.60379C18.9315 2.34094 17.0909 0.5 14.8285 0.5C13.892 0.5 13.0279 0.815391 12.3366 1.34555H2.48996C1.70609 1.34555 1.06836 1.98324 1.06836 2.76715V16.977C1.06836 17.7609 1.70609 18.3987 2.48996 18.3987H3.72945V19.0784C3.72945 19.8622 4.36719 20.5 5.15106 20.5H15.3644C16.1482 20.5 16.786 19.8623 16.786 19.0784V13.6603C16.786 13.4446 16.6111 13.2697 16.3954 13.2697C16.1797 13.2697 16.0047 13.4446 16.0047 13.6603V19.0784C16.0047 19.4314 15.7175 19.7188 15.3644 19.7188H5.15106C4.79797 19.7188 4.5107 19.4315 4.5107 19.0784V18.3987H12.7033C13.4872 18.3987 14.125 17.7609 14.125 16.977V8.64719C14.3536 8.68687 14.5887 8.70758 14.8285 8.70758C15.2372 8.70758 15.632 8.6475 16.0048 8.53574V10.1286C16.0048 10.3443 16.1797 10.5193 16.3954 10.5193C16.6111 10.5193 16.786 10.3443 16.786 10.1286V8.20969C18.063 7.51336 18.9315 6.15812 18.9315 4.60379ZM13.3437 16.9771C13.3437 17.3302 13.0564 17.6175 12.7033 17.6175H2.48996C2.13688 17.6175 1.84961 17.3302 1.84961 16.9771V2.76715C1.84961 2.41406 2.13688 2.1268 2.48996 2.1268H11.5591C11.0688 2.77262 10.7652 3.56754 10.7291 4.43047H4.07715C3.86145 4.43047 3.68652 4.60539 3.68652 4.82109V6.47086C3.68652 6.68656 3.86145 6.86148 4.07715 6.86148H11.1161C11.2049 6.86148 11.2868 6.83184 11.3524 6.78191C11.8191 7.52426 12.5167 8.10734 13.3437 8.42953V16.9771ZM10.7255 5.21172V6.08023H4.46777V5.21172H10.7255ZM14.8285 7.92629C12.9969 7.92629 11.5068 6.43582 11.5068 4.60375C11.5068 2.77172 12.9969 1.28121 14.8285 1.28121C16.6601 1.28121 18.1502 2.77168 18.1502 4.60375C18.1502 6.43582 16.6601 7.92629 14.8285 7.92629Z" fill="#004798"/>
<path d="M16.3956 12.2781C16.2347 12.2781 16.0872 12.1751 16.0304 12.0249C15.9722 11.8708 16.0199 11.6895 16.148 11.5853C16.2763 11.4808 16.461 11.4683 16.6018 11.5557C16.7422 11.6428 16.8141 11.8148 16.7761 11.9761C16.735 12.1506 16.5751 12.2781 16.3956 12.2781Z" fill="#004798"/>
<path d="M11.1171 9.00256H4.07812C3.86242 9.00256 3.6875 8.82768 3.6875 8.61194C3.6875 8.39624 3.86242 8.22131 4.07812 8.22131H11.1171C11.3328 8.22131 11.5077 8.39624 11.5077 8.61194C11.5077 8.82764 11.3329 9.00256 11.1171 9.00256Z" fill="#004798"/>
<path d="M11.1171 10.8547H4.07812C3.86242 10.8547 3.6875 10.6798 3.6875 10.4641C3.6875 10.2483 3.86242 10.0734 4.07812 10.0734H11.1171C11.3328 10.0734 11.5077 10.2483 11.5077 10.4641C11.5077 10.6798 11.3329 10.8547 11.1171 10.8547Z" fill="#004798"/>
<path d="M11.1171 12.7068H4.07812C3.86242 12.7068 3.6875 12.5319 3.6875 12.3162C3.6875 12.1005 3.86242 11.9256 4.07812 11.9256H11.1171C11.3328 11.9256 11.5077 12.1005 11.5077 12.3162C11.5077 12.532 11.3329 12.7068 11.1171 12.7068Z" fill="#004798"/>
<path d="M11.1171 14.5606H4.07812C3.86242 14.5606 3.6875 14.3857 3.6875 14.17C3.6875 13.9542 3.86242 13.7794 4.07812 13.7794H11.1171C11.3328 13.7794 11.5077 13.9542 11.5077 14.17C11.5077 14.3857 11.3329 14.5606 11.1171 14.5606Z" fill="#004798"/>
</g>
<defs>
<clipPath id="clip0_733_29">
<rect width="20" height="20" fill="white" transform="translate(0 0.5)"/>
</clipPath>
</defs>
</svg>
