<svg width="10" height="11" viewBox="0 0 10 11" fill="none" xmlns="http://www.w3.org/2000/svg">
<g clip-path="url(#clip0_733_112)">
<path d="M6.67833 4.70784C6.23839 5.12028 5.63519 5.35714 5 5.35714C4.36481 5.35714 3.76161 5.12028 3.32167 4.70784C2.88282 4.29642 2.64286 3.74557 2.64286 3.17857C2.64286 2.61157 2.88282 2.06072 3.32167 1.6493C3.76161 1.23686 4.36481 1 5 1C5.63519 1 6.23839 1.23686 6.67833 1.6493C7.11718 2.06072 7.35714 2.61157 7.35714 3.17857C7.35714 3.74557 7.11718 4.29642 6.67833 4.70784ZM0.5 10.5928C0.5 8.83758 2.0265 7.36161 3.97991 7.36161H6.02009C7.9735 7.36161 9.5 8.83758 9.5 10.5928C9.5 10.6154 9.49111 10.6419 9.46383 10.6675C9.43601 10.6935 9.39234 10.7143 9.33705 10.7143H0.662946C0.607656 10.7143 0.563995 10.6935 0.536167 10.6675C0.50889 10.6419 0.5 10.6154 0.5 10.5928Z" stroke="#004798"/>
</g>
<defs>
<clipPath id="clip0_733_112">
<rect width="10" height="11" fill="white"/>
</clipPath>
</defs>
</svg>
