<svg width="35" height="26" viewBox="0 0 35 26" fill="none" xmlns="http://www.w3.org/2000/svg">
<path d="M6.82422 7.021H24.2953" stroke="#004798" stroke-width="1.5" stroke-linecap="round" stroke-linejoin="round"/>
<path fill-rule="evenodd" clip-rule="evenodd" d="M8.729 13.0903L10.6702 13.0528C11.6656 13.0336 12.5 13.7887 12.6303 14.7798L12.6479 15.05V17.0141C12.6479 18.1027 11.8009 18.9909 10.7431 19.0113L8.80191 19.0488C7.80655 19.0681 6.97212 18.3129 6.84187 17.3218L6.82422 17.0516V15.0875C6.82422 13.9989 7.67128 13.1108 8.729 13.0903Z" stroke="#004798" stroke-width="1.5" stroke-linecap="round" stroke-linejoin="round"/>
<path fill-rule="evenodd" clip-rule="evenodd" d="M4.88247 1H26.2361C28.3803 1 30.1185 2.78866 30.1185 4.99508V24.9999H4.88247C2.73824 24.9999 1 23.2112 1 21.0048V4.99508C1 2.78866 2.73824 1 4.88247 1Z" stroke="#004798" stroke-width="1.5" stroke-linecap="round" stroke-linejoin="round"/>
<path d="M16.5273 13.0138H24.2923" stroke="#004798" stroke-width="1.5" stroke-linecap="round" stroke-linejoin="round"/>
<path d="M16.5273 19.0063H24.2923" stroke="#004798" stroke-width="1.5" stroke-linecap="round" stroke-linejoin="round"/>
<path d="M29.1484 25C31.8287 25 34.0015 22.7641 34.0015 20.0061V7.02209H30.1191" stroke="#004798" stroke-width="1.5" stroke-linecap="round" stroke-linejoin="round"/>
</svg>