<svg width="210" height="145" viewBox="0 0 210 145" fill="none" xmlns="http://www.w3.org/2000/svg">
<mask id="mask0_473_1361" style="mask-type:alpha" maskUnits="userSpaceOnUse" x="0" y="0" width="210" height="145">
<rect width="210" height="145" fill="white"/>
</mask>
<g mask="url(#mask0_473_1361)">
<path d="M79.5857 90.1416L72.7334 83.5596L94.4323 59.4256L54.4606 30.9036C49.8924 27.6126 45.3242 24.3216 45.3242 15.5456C45.3242 8.96356 52.1765 4.57556 59.0288 4.57556H118.415C125.725 4.57556 129.075 10.4262 129.836 13.3516L138.972 40.7766H164.097C166.381 40.7766 170.95 42.093 170.95 47.3586C170.95 52.6242 167.524 53.9406 164.097 53.9406H130.978L121.842 28.7096H92.1482L120.699 48.4556C128.009 52.8436 123.745 59.0599 120.699 61.6196L79.5857 90.1416Z" fill="#004798"/>
<path d="M87.1381 120.742C87.1381 142.763 69.2974 160.615 47.2898 160.615C25.2821 160.615 7.44141 142.763 7.44141 120.742C7.44141 98.7205 25.2821 80.8685 47.2898 80.8685C69.2974 80.8685 87.1381 98.7205 87.1381 120.742ZM22.3664 120.742C22.3664 134.515 33.525 145.681 47.2898 145.681C61.0546 145.681 72.2131 134.515 72.2131 120.742C72.2131 106.969 61.0546 95.8029 47.2898 95.8029C33.525 95.8029 22.3664 106.969 22.3664 120.742Z" fill="#004798"/>
<path d="M197.333 120.25C197.333 142.271 179.493 160.123 157.485 160.123C135.477 160.123 117.637 142.271 117.637 120.25C117.637 98.2283 135.477 80.3763 157.485 80.3763C179.493 80.3763 197.333 98.2283 197.333 120.25ZM132.562 120.25C132.562 134.023 143.72 145.189 157.485 145.189C171.25 145.189 182.408 134.023 182.408 120.25C182.408 106.476 171.25 95.3108 157.485 95.3108C143.72 95.3108 132.562 106.476 132.562 120.25Z" fill="#004798"/>
<path d="M133.391 61.6702H147.165L171.271 132.556L158.726 135.018L133.391 61.6702Z" fill="#004798"/>
<ellipse cx="16.8389" cy="18.1944" rx="16.8389" ry="18.1944" transform="matrix(0.900945 -0.433934 0.462757 0.886485 126.066 -1.00146)" fill="#004798"/>
</g>
</svg>
