<svg width="1920" height="136" viewBox="0 0 1920 136" fill="none" xmlns="http://www.w3.org/2000/svg">
<g clip-path="url(#clip0_940_50)">
<path fill-rule="evenodd" clip-rule="evenodd" d="M1919.99 8.0703V86.1416C1919.99 101.717 1898.28 111.523 1880.44 104.718C1491.73 -43.5916 1288.48 -3.34982 1048.41 44.1825C812.018 90.9868 539.918 144.86 19.9083 32.7364C8.6855 30.3181 0.353887 22.2928 0 13.202V136H1920V0H1920V8.18507L1919.99 8.0703Z" fill="white"/>
<path opacity="0.8" fill-rule="evenodd" clip-rule="evenodd" d="M1855.81 95.483C1829.22 113.621 1785.21 126.404 1708.75 128.281C1616.12 130.556 1530.91 116.209 1444.64 101.682C1297.42 76.8915 1147.07 51.5756 951.373 107.435C781.391 155.956 671.505 130.305 542.686 98.7609C753.909 102.492 907.503 72.0815 1048.41 44.1827C1283.36 -2.33566 1483.04 -41.8712 1855.81 95.483ZM1907.44 0.000167847L4.57148 0C2.62149 -7.27098 2.94595 -13.7543 3.157 -17.9714C3.21051 -19.0407 3.25673 -19.9643 3.25673 -20.7181V-32.231L1917 -32.2308V-20.718C1912.98 -14.235 1909.97 -7.26259 1907.44 0.000167847Z" fill="url(#paint0_linear_940_50)"/>
<path style="mix-blend-mode:hard-light" fill-rule="evenodd" clip-rule="evenodd" d="M27.349 -0.000240326C15.7274 -7.62922 6.875 -16.0789 0.996094 -25.4815V-32.2312L1919.99 -32.2311V-7.62939e-05L27.349 -0.000240326ZM1919.99 19.7863V21.7673C1920 21.1291 1919.99 20.5261 1919.99 19.9644C1919.99 19.9046 1919.99 19.8452 1919.99 19.7863ZM1678.69 39.6783C1556.44 37.3611 1454.54 65.5017 1358.76 91.9526C1220.14 130.237 1094.33 164.981 938.182 98.7104C916.93 89.6902 897.041 81.933 878.333 75.2945C938.573 65.9294 994.422 54.8716 1048.41 44.1825C1243.17 5.62055 1413.7 -28.143 1678.69 39.6783Z" fill="url(#paint1_linear_940_50)"/>
</g>
<defs>
<linearGradient id="paint0_linear_940_50" x1="1341.01" y1="114.054" x2="1135.92" y2="-162.629" gradientUnits="userSpaceOnUse">
<stop offset="0.344388" stop-color="#004798"/>
<stop offset="1" stop-color="#003E84"/>
</linearGradient>
<linearGradient id="paint1_linear_940_50" x1="978.527" y1="136" x2="978.527" y2="-32.2311" gradientUnits="userSpaceOnUse">
<stop stop-color="#E11735"/>
<stop offset="1" stop-color="#004798"/>
</linearGradient>
<clipPath id="clip0_940_50">
<rect width="1920" height="136" fill="white"/>
</clipPath>
</defs>
</svg>
