<svg width="191" height="177" viewBox="0 0 191 177" fill="none" xmlns="http://www.w3.org/2000/svg">
<path d="M72.5857 106.142L65.7334 99.5596L87.4323 75.4256L47.4606 46.9036C42.8924 43.6126 38.3242 40.3216 38.3242 31.5456C38.3242 24.9636 45.1765 20.5756 52.0288 20.5756H111.415C118.725 20.5756 122.075 26.4262 122.836 29.3516L131.972 56.7766H157.097C159.381 56.7766 163.95 58.093 163.95 63.3586C163.95 68.6242 160.524 69.9406 157.097 69.9406H123.978L114.842 44.7096H85.1482L113.699 64.4556C121.009 68.8436 116.745 75.0599 113.699 77.6196L72.5857 106.142Z" fill="#004798"/>
<path d="M80.1381 136.742C80.1381 158.763 62.2974 176.615 40.2898 176.615C18.2821 176.615 0.441406 158.763 0.441406 136.742C0.441406 114.72 18.2821 96.8685 40.2898 96.8685C62.2974 96.8685 80.1381 114.72 80.1381 136.742ZM15.3664 136.742C15.3664 150.515 26.525 161.681 40.2898 161.681C54.0546 161.681 65.2131 150.515 65.2131 136.742C65.2131 122.969 54.0546 111.803 40.2898 111.803C26.525 111.803 15.3664 122.969 15.3664 136.742Z" fill="#004798"/>
<path d="M190.333 136.25C190.333 158.271 172.493 176.123 150.485 176.123C128.477 176.123 110.637 158.271 110.637 136.25C110.637 114.228 128.477 96.3763 150.485 96.3763C172.493 96.3763 190.333 114.228 190.333 136.25ZM125.562 136.25C125.562 150.023 136.72 161.189 150.485 161.189C164.25 161.189 175.408 150.023 175.408 136.25C175.408 122.476 164.25 111.311 150.485 111.311C136.72 111.311 125.562 122.476 125.562 136.25Z" fill="#004798"/>
<path d="M126.391 77.6702H140.165L164.271 148.556L151.726 151.018L126.391 77.6702Z" fill="#004798"/>
<ellipse cx="16.8389" cy="18.1944" rx="16.8389" ry="18.1944" transform="matrix(0.900945 -0.433934 0.462757 0.886485 119.066 14.9985)" fill="#004798"/>
</svg>
