<svg width="97" height="62" viewBox="0 0 97 62" fill="none" xmlns="http://www.w3.org/2000/svg">
<g clip-path="url(#clip0_432_697)">
<path d="M0 47.4829H97V53.078H0V47.4829Z" fill="#E11735"/>
<path d="M0 56.4049H97V62H0V56.4049Z" fill="#E11735"/>
<path d="M15.0396 0L18.59 10.9192H30.0792L20.7842 17.6677L24.3346 28.5868L15.0396 21.8384L5.74461 28.5868L9.29499 17.6677L0 10.9192H11.4892L15.0396 0Z" fill="#E11735"/>
<path d="M13.5282 18.1462C11.9134 16.86 8.69279 16.08 7.55078 15.8779H11.7879L14.8571 14.6142V12.5583L13.2105 13.7444C12.998 13.9025 12.4987 14.124 12.2013 13.7444C11.9038 13.3648 12.0773 13.0591 12.2013 12.9537C12.2013 12.9537 14.5249 11.2584 14.7508 11.0822C15.1227 10.7923 15.5477 10.8186 15.707 11.214C15.8119 11.4744 16.4465 13.6433 16.8678 15.0945C17.0933 15.8714 17.805 16.4066 18.6144 16.4066H22.5324L20.7919 17.6926L16.2913 17.6719L13.5282 18.1462Z" fill="white"/>
<path d="M18.4263 16.2561C17.9001 16.2561 17.081 15.6513 16.9297 14.7439C17.1142 14.2124 18.0021 13.2246 19.2515 13.7619C20.5011 14.2994 20.292 15.7246 20.1075 16.2561H18.4263Z" fill="white"/>
<path d="M15.8703 21.0195C13.0792 19.0033 10.1966 18.3311 9.1041 18.2472L9.28755 17.6927L7.32031 16.2561C11.0417 16.5585 14.8483 19.6333 15.8703 21.0195Z" fill="white"/>
<path d="M48.4809 0L52.0314 10.9192H63.5206L54.2256 17.6677L57.776 28.5868L48.4809 21.8384L39.186 28.5868L42.7365 17.6677L33.4414 10.9192H44.9307L48.4809 0Z" fill="#E11735"/>
<path d="M45.4744 20.2278L44.8193 19.5994L46.8935 17.2955L43.0725 14.5727C42.6359 14.2585 42.1992 13.9444 42.1992 13.1066C42.1992 12.4782 42.8543 12.0593 43.5093 12.0593H49.1861C49.8848 12.0593 50.205 12.6179 50.2778 12.8971L51.1512 15.5152H53.5529C53.7713 15.5152 54.2079 15.6409 54.2079 16.1436C54.2079 16.6462 53.8804 16.7719 53.5529 16.7719H50.387L49.5136 14.3632H46.6751L49.4045 16.2483C50.1031 16.6672 49.6956 17.2606 49.4045 17.505L45.4744 20.2278Z" fill="white"/>
<path d="M51.2638 19.1804L50.6088 17.5049H51.9189L52.3556 18.8663C53.5564 18.7615 54.4033 19.263 54.8401 19.5073L55.3697 21.1707C54.5837 20.333 53.3745 20.0183 52.7922 20.0183L53.7747 23.1599C53.8838 23.4741 54.1022 24.1443 53.6656 24.3119C53.2289 24.4794 52.9014 23.9978 52.7922 23.6836L51.5914 20.2277C50.3687 20.8142 49.6892 22.0489 49.5437 22.6073L48.4844 21.8512C48.8336 20.427 50.4633 19.4946 51.2638 19.1804Z" fill="white"/>
<path d="M45.2291 24.1951C45.0543 21.5141 42.9159 20.6298 41.8242 20.4902L42.2782 19.0536C44.8983 19.5563 46.1877 22.1009 46.5153 23.2878L45.2291 24.1951Z" fill="white"/>
<path d="M53.6247 11.6715C54.0693 12.5218 53.7802 13.5235 52.9794 13.9088C52.1784 14.294 51.1688 13.9169 50.7243 13.0666C50.2797 12.2162 50.5688 11.2145 51.3696 10.8293C52.1706 10.444 53.1802 10.8211 53.6247 11.6715Z" fill="white"/>
<path d="M81.9263 0L85.4767 10.9192H96.9659L87.6709 17.6677L91.2213 28.5868L81.9263 21.8384L72.6314 28.5868L76.1818 17.6677L66.8867 10.9192H78.376L81.9263 0Z" fill="#E11735"/>
<path d="M78.1624 15.0725L78.9121 12.9613C78.9574 12.8478 79.0618 12.5799 79.1164 12.4165C79.1709 12.253 79.3662 12.2122 79.4572 12.2122H82.8647C83.3009 12.2122 83.41 12.4846 83.5462 12.8251L84.7049 16.1621L86.4086 14.9363C86.6131 14.8001 87.0901 14.623 87.3628 15.0044C87.6353 15.3858 87.2037 15.8444 86.9539 16.026L84.8411 17.5243C84.2414 17.9057 83.9096 17.5016 83.8188 17.2518L83.41 16.1621L81.7743 18.9544L84.8774 21.1707C85.5515 21.6198 85.1489 22.0689 84.8119 22.4447L84.8017 22.456L83.8938 23.2877L81.9265 21.8512L80.3376 20.717L73.5312 25.8113L74.3418 23.3195L79.5253 17.7286L80.8883 13.3699H79.9342L79.3208 15.4812C79.23 15.7762 78.9257 16.3256 78.435 16.1621C77.9442 15.9987 78.0488 15.3676 78.1624 15.0725Z" fill="white"/>
<path d="M86.2729 10.7902C86.7228 11.6508 86.4816 12.6399 85.7342 12.9994C84.9868 13.3589 84.0162 12.9527 83.5663 12.0921C83.1164 11.2315 83.3578 10.2424 84.1052 9.88289C84.8526 9.52338 85.823 9.92962 86.2729 10.7902Z" fill="white"/>
<path d="M90.4727 43.5326V33.2507H92.3291V37.1165H92.3857C92.4671 36.909 92.5847 36.6981 92.7388 36.484C92.8955 36.2664 93.0989 36.0856 93.3488 35.9417C93.6015 35.7944 93.9153 35.7209 94.29 35.7209C94.778 35.7209 95.2284 35.868 95.6409 36.1626C96.0534 36.4539 96.3832 36.8939 96.6301 37.4831C96.8771 38.0687 97.0006 38.8034 97.0006 39.6869C97.0006 40.5472 96.88 41.2734 96.6389 41.8659C96.4005 42.4549 96.0752 42.9017 95.6627 43.2063C95.253 43.5075 94.7941 43.6581 94.2856 43.6581C93.9255 43.6581 93.619 43.5896 93.3662 43.4523C93.1163 43.3151 92.9116 43.1428 92.7518 42.9353C92.592 42.7243 92.47 42.5119 92.3857 42.2976H92.3029V43.5326H90.4727ZM92.2899 39.677C92.2899 40.1355 92.345 40.5354 92.4555 40.8769C92.5658 41.2182 92.7256 41.4843 92.9347 41.675C93.144 41.8625 93.3981 41.9563 93.6974 41.9563C93.9995 41.9563 94.2552 41.8609 94.4643 41.67C94.6735 41.476 94.8319 41.2082 94.9394 40.8667C95.0497 40.5221 95.1049 40.1255 95.1049 39.677C95.1049 39.2318 95.0512 38.8403 94.9437 38.5021C94.8361 38.1642 94.6779 37.8997 94.4687 37.709C94.2596 37.5181 94.0025 37.4227 93.6974 37.4227C93.3952 37.4227 93.1396 37.5148 92.9305 37.6989C92.7242 37.883 92.5658 38.144 92.4555 38.482C92.345 38.8201 92.2899 39.2185 92.2899 39.677Z" fill="#004798"/>
<path d="M87.097 40.2493V35.8213H88.9535V43.5327H87.1712V42.132H87.1014C86.9504 42.5838 86.6991 42.9469 86.3475 43.2214C85.9989 43.4958 85.5734 43.6331 85.0708 43.6331C84.6233 43.6331 84.2297 43.5159 83.8898 43.2817C83.55 43.0473 83.2841 42.7143 83.0924 42.2826C82.9035 41.8509 82.8077 41.3337 82.8047 40.7312V35.8213H84.6612V40.3497C84.664 40.8049 84.7701 41.1646 84.9792 41.4291C85.1884 41.6934 85.4688 41.8258 85.8203 41.8258C86.044 41.8258 86.2531 41.7671 86.4479 41.65C86.6425 41.5295 86.7992 41.3521 86.9185 41.1179C87.0405 40.8835 87.0999 40.5941 87.097 40.2493Z" fill="#004798"/>
<path d="M81.3173 33.2507V43.5326H79.4609V33.2507H81.3173Z" fill="#004798"/>
<path d="M75.2826 43.6833C74.597 43.6833 74.0073 43.516 73.5135 43.1812C73.0224 42.8432 72.6449 42.3746 72.3805 41.7755C72.119 41.1765 71.9883 40.4869 71.9883 39.7071C71.9883 38.9173 72.1204 38.2244 72.3848 37.6286C72.6521 37.0296 73.0312 36.5626 73.5221 36.228C74.0132 35.8899 74.597 35.7209 75.274 35.7209C75.8578 35.7209 76.3692 35.843 76.8079 36.0874C77.2466 36.3317 77.5937 36.6747 77.8493 37.1166C78.105 37.5584 78.2459 38.0771 78.2721 38.6729H76.5202C76.4709 38.2881 76.3401 37.9784 76.1281 37.7441C75.9188 37.5065 75.6443 37.3877 75.3044 37.3877C75.0169 37.3877 74.7656 37.478 74.5505 37.6588C74.3385 37.8362 74.173 38.0955 74.0537 38.437C73.9346 38.7783 73.8752 39.1917 73.8752 39.677C73.8752 40.1689 73.9333 40.5873 74.0495 40.9321C74.1686 41.2769 74.3357 41.5396 74.5505 41.7203C74.7656 41.901 75.0169 41.9914 75.3044 41.9914C75.5166 41.9914 75.7068 41.9412 75.8752 41.8408C76.0467 41.7404 76.1876 41.5948 76.298 41.4041C76.4114 41.2099 76.4854 40.9773 76.5202 40.7062H78.2721C78.243 41.2952 78.1035 41.814 77.8537 42.2626C77.6067 42.7076 77.2655 43.0557 76.8297 43.3067C76.3938 43.5577 75.8783 43.6833 75.2826 43.6833Z" fill="#004798"/>
<path d="M63.6415 39.0745V43.5326H61.7852V35.8212H63.5545V37.1819H63.6329C63.781 36.7334 64.0293 36.3786 64.378 36.1174C64.7266 35.8531 65.1493 35.7209 65.6461 35.7209C66.111 35.7209 66.5162 35.838 66.8618 36.0722C67.2076 36.3066 67.4764 36.6413 67.6681 37.0763C67.8598 37.5082 67.9556 38.0236 67.9556 38.6227V43.5326H66.0993V39.0042C66.1022 38.5323 65.9976 38.1642 65.7855 37.8997C65.5735 37.6321 65.2815 37.4981 64.9096 37.4981C64.6597 37.4981 64.439 37.5601 64.2472 37.6839C64.0584 37.8078 63.9102 37.9885 63.8028 38.2261C63.6982 38.4603 63.6445 38.7432 63.6415 39.0745Z" fill="#004798"/>
<path d="M57.2827 43.6833C56.6058 43.6833 56.0203 43.5177 55.5265 43.1864C55.0355 42.8516 54.6564 42.3864 54.3891 41.7906C54.1219 41.1915 53.9883 40.4971 53.9883 39.7071C53.9883 38.9105 54.1219 38.2144 54.3891 37.6186C54.6564 37.0195 55.0355 36.5543 55.5265 36.2228C56.0203 35.8882 56.6058 35.7209 57.2827 35.7209C57.9595 35.7209 58.5435 35.8882 59.0344 36.2228C59.5283 36.5543 59.9089 37.0195 60.1762 37.6186C60.4434 38.2144 60.577 38.9105 60.577 39.7071C60.577 40.4971 60.4434 41.1915 60.1762 41.7906C59.9089 42.3864 59.5283 42.8516 59.0344 43.1864C58.5435 43.5177 57.9595 43.6833 57.2827 43.6833ZM57.2913 42.0265C57.5992 42.0265 57.8563 41.9261 58.0626 41.7253C58.2688 41.5211 58.4244 41.2433 58.529 40.8919C58.6364 40.5405 58.6901 40.1405 58.6901 39.6921C58.6901 39.2436 58.6364 38.8436 58.529 38.4922C58.4244 38.1408 58.2688 37.863 58.0626 37.6588C57.8563 37.4545 57.5992 37.3525 57.2913 37.3525C56.9805 37.3525 56.719 37.4545 56.507 37.6588C56.2978 37.863 56.1394 38.1408 56.0319 38.4922C55.9274 38.8436 55.875 39.2436 55.875 39.6921C55.875 40.1405 55.9274 40.5405 56.0319 40.8919C56.1394 41.2433 56.2978 41.5211 56.507 41.7253C56.719 41.9261 56.9805 42.0265 57.2913 42.0265Z" fill="#004798"/>
<path d="M52.7704 33.2507V43.5326H50.9141V33.2507H52.7704Z" fill="#004798"/>
<path d="M45.1143 39.0745V43.5326H43.2578V33.2507H45.0619V37.1818H45.1405C45.2915 36.7267 45.5354 36.3701 45.8724 36.1124C46.2094 35.8514 46.6322 35.7209 47.1405 35.7209C47.6054 35.7209 48.0107 35.8379 48.3564 36.0723C48.7049 36.3032 48.9752 36.6362 49.1669 37.0713C49.3616 37.503 49.4575 38.0202 49.4545 38.6227V43.5326H47.5981V39.0042C47.601 38.5289 47.4965 38.1592 47.2844 37.8947C47.0752 37.6304 46.7817 37.498 46.4042 37.498C46.1513 37.498 45.9277 37.56 45.7331 37.6839C45.5413 37.8077 45.3903 37.9884 45.2798 38.226C45.1724 38.4604 45.1172 38.7432 45.1143 39.0745Z" fill="#004798"/>
<path d="M41.9059 35.8212V37.4276H37.875V35.8212H41.9059ZM38.7902 33.9736H40.6465V41.1629C40.6465 41.3604 40.6727 41.5143 40.7249 41.6247C40.7773 41.7319 40.8499 41.8073 40.9428 41.8507C41.0388 41.8942 41.1491 41.916 41.2741 41.916C41.3612 41.916 41.4484 41.9077 41.5356 41.8909C41.6226 41.8708 41.6895 41.8558 41.7359 41.8457L42.028 43.4373C41.9349 43.4707 41.8042 43.5091 41.6358 43.5526C41.4672 43.5995 41.2624 43.6279 41.0214 43.6381C40.5739 43.658 40.1817 43.5895 39.8447 43.4321C39.5107 43.2748 39.2506 43.0305 39.0647 42.6992C38.8787 42.3678 38.7872 41.9494 38.7902 41.444V33.9736Z" fill="#004798"/>
<path d="M33.1366 43.6783C32.7095 43.6783 32.329 43.593 31.9948 43.4223C31.6607 43.2482 31.3963 42.9922 31.2017 42.6541C31.01 42.3128 30.9141 41.8877 30.9141 41.379C30.9141 40.9506 30.9823 40.5907 31.119 40.2996C31.2555 40.0083 31.4414 39.7741 31.6767 39.5967C31.9121 39.4193 32.1793 39.2853 32.4785 39.1951C32.7807 39.1046 33.0972 39.0411 33.4285 39.0042C33.8179 38.9573 34.1316 38.9139 34.3697 38.8737C34.6079 38.8302 34.7809 38.7667 34.8883 38.6829C34.9958 38.5993 35.0495 38.4754 35.0495 38.3115V38.2812C35.0495 37.9634 34.9623 37.7173 34.7882 37.5433C34.6167 37.3692 34.3726 37.2823 34.056 37.2823C33.7219 37.2823 33.456 37.3676 33.2586 37.5383C33.0611 37.7056 32.9303 37.9165 32.8663 38.1709L31.1494 38.0103C31.2365 37.5416 31.408 37.1367 31.6636 36.7952C31.9193 36.4506 32.2491 36.1861 32.6528 36.0021C33.0596 35.8146 33.5302 35.7209 34.0647 35.7209C34.4366 35.7209 34.7924 35.7712 35.1324 35.8714C35.4752 35.9718 35.7787 36.1276 36.0431 36.3384C36.3104 36.5492 36.521 36.8203 36.675 37.1516C36.8289 37.4796 36.906 37.873 36.906 38.3314V43.5326H35.1454V42.4634H35.0931C34.9856 42.7043 34.8419 42.9169 34.6617 43.1009C34.4816 43.2816 34.2652 43.4239 34.0125 43.5277C33.7597 43.6281 33.4677 43.6783 33.1366 43.6783ZM33.6682 42.2022C33.9412 42.2022 34.1824 42.1404 34.3915 42.0165C34.6007 41.8893 34.7649 41.7186 34.884 41.5045C35.003 41.2902 35.0627 41.0475 35.0627 40.7765V39.9581C35.0046 40.0017 34.9247 40.0417 34.823 40.0786C34.7242 40.1121 34.6123 40.1438 34.4875 40.1741C34.3625 40.2008 34.2376 40.2259 34.1126 40.2494C33.9878 40.2693 33.8745 40.2878 33.7728 40.3046C33.5549 40.3413 33.3646 40.4 33.202 40.4803C33.0393 40.5606 32.9128 40.6693 32.8227 40.8066C32.7327 40.9404 32.6878 41.1078 32.6878 41.3087C32.6878 41.5998 32.7792 41.8224 32.9623 41.9763C33.1481 42.1269 33.3834 42.2022 33.6682 42.2022Z" fill="#004798"/>
<path d="M27.8823 43.5325V35.8212H29.7386V43.5325H27.8823ZM28.8147 34.8271C28.5387 34.8271 28.302 34.7217 28.1044 34.5109C27.9098 34.2967 27.8125 34.0406 27.8125 33.7427C27.8125 33.4482 27.9098 33.1955 28.1044 32.9847C28.302 32.7704 28.5387 32.6633 28.8147 32.6633C29.0908 32.6633 29.3261 32.7704 29.5207 32.9847C29.7183 33.1955 29.817 33.4482 29.817 33.7427C29.817 34.0406 29.7183 34.2967 29.5207 34.5109C29.3261 34.7217 29.0908 34.8271 28.8147 34.8271Z" fill="#004798"/>
<path d="M22.8633 43.5327V35.8212H24.663V37.1666H24.7328C24.8547 36.688 25.0596 36.3266 25.3471 36.0822C25.6348 35.8345 25.9659 35.7107 26.3408 35.7107C26.4337 35.7107 26.534 35.7175 26.6414 35.7308C26.7489 35.7443 26.8433 35.7626 26.9247 35.786V37.6838C26.8376 37.6537 26.717 37.6269 26.5631 37.6035C26.409 37.5801 26.2681 37.5683 26.1402 37.5683C25.8673 37.5683 25.6232 37.6369 25.4081 37.7741C25.1961 37.9081 25.0277 38.0954 24.9027 38.3365C24.7807 38.5774 24.7198 38.8552 24.7198 39.1698V43.5327H22.8633Z" fill="#004798"/>
<path d="M21.652 35.8214V37.4278H17.6211V35.8214H21.652ZM18.5363 33.9738H20.3926V41.163C20.3926 41.3605 20.4188 41.5145 20.471 41.6249C20.5234 41.7321 20.596 41.8074 20.6889 41.8508C20.7849 41.8943 20.8952 41.9161 21.0202 41.9161C21.1073 41.9161 21.1945 41.9078 21.2817 41.891C21.3687 41.8709 21.4356 41.8559 21.482 41.8458L21.7741 43.4374C21.681 43.4708 21.5503 43.5092 21.3818 43.5528C21.2133 43.5996 21.0085 43.6281 20.7675 43.6382C20.32 43.6582 19.9278 43.5897 19.5908 43.4322C19.2568 43.275 18.9966 43.0306 18.8108 42.6993C18.6248 42.368 18.5333 41.9495 18.5363 41.4442V33.9738Z" fill="#004798"/>
<path d="M11.0757 43.6833C10.3901 43.6833 9.80032 43.516 9.30643 43.1812C8.81547 42.8432 8.43781 42.3746 8.17344 41.7755C7.91198 41.1765 7.78125 40.4869 7.78125 39.7071C7.78125 38.9173 7.91343 38.2244 8.1778 37.6286C8.44507 37.0296 8.82419 36.5626 9.31515 36.228C9.80613 35.8899 10.3901 35.7209 11.0669 35.7209C11.6509 35.7209 12.1622 35.843 12.6008 36.0874C13.0395 36.3317 13.3867 36.6747 13.6423 37.1166C13.898 37.5584 14.0389 38.0771 14.065 38.6729H12.3132C12.2639 38.2881 12.1331 37.9784 11.9211 37.7441C11.7119 37.5065 11.4373 37.3877 11.0975 37.3877C10.8098 37.3877 10.5586 37.478 10.3436 37.6588C10.1315 37.8362 9.9659 38.0955 9.84679 38.437C9.72768 38.7783 9.66813 39.1917 9.66813 39.677C9.66813 40.1689 9.72623 40.5873 9.84243 40.9321C9.96154 41.2769 10.1286 41.5396 10.3436 41.7203C10.5586 41.901 10.8098 41.9914 11.0975 41.9914C11.3095 41.9914 11.4998 41.9412 11.6683 41.8408C11.8397 41.7404 11.9806 41.5948 12.091 41.4041C12.2043 41.2099 12.2784 40.9773 12.3132 40.7062H14.065C14.036 41.2952 13.8965 41.814 13.6467 42.2626C13.3998 42.7076 13.0584 43.0557 12.6226 43.3067C12.1869 43.5577 11.6712 43.6833 11.0757 43.6833Z" fill="#004798"/>
<path d="M2.71483 43.6581C2.20644 43.6581 1.74598 43.5075 1.33345 43.2063C0.92383 42.9017 0.598457 42.4549 0.357331 41.8659C0.11911 41.2734 0 40.5472 0 39.6869C0 38.8034 0.123468 38.0687 0.370404 37.4831C0.617339 36.8939 0.945618 36.4539 1.35524 36.1626C1.76778 35.868 2.21951 35.7209 2.71049 35.7209C3.08525 35.7209 3.39754 35.7944 3.64738 35.9417C3.90013 36.0856 4.10349 36.2664 4.25747 36.484C4.41435 36.6981 4.53346 36.909 4.61479 37.1165H4.67145V33.2507H6.52347V43.5326H4.69323V42.2976H4.61479C4.52765 42.5119 4.40418 42.7243 4.24439 42.9353C4.08751 43.1428 3.88271 43.3151 3.62996 43.4523C3.38011 43.5896 3.07508 43.6581 2.71483 43.6581ZM3.30313 41.9563C3.60236 41.9563 3.85511 41.8625 4.06136 41.675C4.27054 41.4843 4.43031 41.2182 4.54072 40.8769C4.65402 40.5354 4.71066 40.1355 4.71066 39.677C4.71066 39.2185 4.65547 38.8201 4.54508 38.482C4.43467 38.144 4.2749 37.883 4.06572 37.6989C3.85656 37.5148 3.60236 37.4227 3.30313 37.4227C2.99809 37.4227 2.74098 37.5181 2.53182 37.709C2.32264 37.8997 2.16433 38.1642 2.05682 38.5021C1.94934 38.8403 1.8956 39.2318 1.8956 39.677C1.8956 40.1255 1.94934 40.5221 2.05682 40.8667C2.16723 41.2082 2.32555 41.476 2.53182 41.67C2.74098 41.8609 2.99809 41.9563 3.30313 41.9563Z" fill="#004798"/>
</g>
<defs>
<clipPath id="clip0_432_697">
<rect width="97" height="62" fill="white"/>
</clipPath>
</defs>
</svg>
