<svg width="389" height="386" viewBox="0 0 389 386" fill="none" xmlns="http://www.w3.org/2000/svg">
<rect x="5.03516" y="3.02344" width="287.926" height="352.778" rx="19" fill="#0F3D8B"/>
<mask id="mask0_692_423" style="mask-type:luminance" maskUnits="userSpaceOnUse" x="0" y="0" width="297" height="360">
<path d="M0 0H296.999V359.688H0V0Z" fill="white"/>
</mask>
<g mask="url(#mask0_692_423)">
<path fill-rule="evenodd" clip-rule="evenodd" d="M274.054 358.681H22.0536C9.84392 358.681 -0.101562 350.119 -0.101562 339.595L-0.0968845 19.2164C-0.0968845 8.69232 9.84392 0.125977 22.0536 0.125977H274.054C286.269 0.125977 296.2 8.69232 296.2 19.2164V210.585C296.2 212.463 294.684 213.99 292.799 213.99C290.918 213.99 289.393 212.463 289.393 210.585V114.9V19.2164C289.393 12.4439 282.507 6.93596 274.054 6.93596H22.0536C13.591 6.93596 6.70497 12.4439 6.70497 19.2164V339.595C6.70497 346.358 13.591 351.875 22.0536 351.875H274.054C282.507 351.875 289.393 346.358 289.393 339.595V306.931C289.393 305.053 290.918 303.526 292.799 303.526C294.684 303.526 296.2 305.053 296.2 306.931V339.595C296.2 350.119 286.264 358.685 274.054 358.681Z" fill="#7CE3E2"/>
</g>
<path d="M86.3451 90.1888V90.6888H86.8451H134.21C135.814 90.6888 137.111 91.9908 137.111 93.5938C137.111 107.938 131.527 121.422 121.385 131.562L121.385 131.562C111.252 141.706 97.7806 147.293 83.4442 147.293C69.1033 147.293 55.6361 141.706 45.4942 131.562C35.3617 121.422 29.7773 107.938 29.7773 93.5938C29.7773 79.2588 35.3617 65.7752 45.4942 55.6305C55.6266 45.4906 69.1031 39.9043 83.4395 39.9043C85.0438 39.9043 86.3451 41.2072 86.3451 42.8093V90.1888Z" fill="#7CE3E2" stroke="#0F3D8B"/>
<path d="M132.085 44.9274L132.085 44.9275C142.227 55.0721 147.811 68.5556 147.811 82.8907C147.811 84.497 146.51 85.7957 144.905 85.7957H94.1399C92.5352 85.7957 91.2344 84.497 91.2344 82.8907V32.1062C91.2344 30.5041 92.5357 29.2012 94.1399 29.2012C108.476 29.2012 121.953 34.7875 132.085 44.9274Z" fill="white" stroke="#0F3D8B"/>
<path d="M190.679 160.637H168.613C167.008 160.637 165.707 159.338 165.707 157.732V75.1267C165.707 73.5241 167.009 72.2217 168.608 72.2217H190.679C192.278 72.2217 193.58 73.5241 193.58 75.1267V157.732C193.58 159.334 192.278 160.637 190.679 160.637Z" fill="#7CE3E2" stroke="black"/>
<path d="M227.058 160.636H204.992C203.383 160.636 202.086 159.338 202.086 157.731L202.091 50.5935V50.5935C202.091 48.9811 203.379 47.6885 204.992 47.6885H227.058C228.658 47.6885 229.958 48.9824 229.958 50.5935V157.731C229.958 159.334 228.657 160.636 227.058 160.636Z" fill="#7CE3E2" stroke="black"/>
<path d="M263.425 160.636H241.35C239.751 160.636 238.449 159.338 238.449 157.731V18.7634C238.449 17.1608 239.751 15.8584 241.35 15.8584H263.425C265.029 15.8584 266.326 17.1604 266.326 18.7634L266.331 157.731C266.331 159.333 265.03 160.636 263.425 160.636Z" fill="#7CE3E2" stroke="black"/>
<path d="M181.831 206.483H35.5072C33.903 206.483 32.6019 205.181 32.6016 203.579C32.6059 201.975 33.9041 200.674 35.5072 200.674H181.831C183.43 200.674 184.732 201.976 184.732 203.578V203.58C184.736 205.18 183.432 206.483 181.831 206.483Z" fill="#7CE3E2" stroke="black"/>
<path d="M181.831 241.648H35.5072C33.9021 241.648 32.6019 240.354 32.6016 238.744C32.6059 237.137 33.9019 235.848 35.5072 235.848H181.831C183.433 235.848 184.732 237.138 184.732 238.743V238.744C184.736 240.353 183.432 241.648 181.831 241.648Z" fill="#7CE3E2" stroke="black"/>
<path d="M181.831 276.817H35.5072C33.9026 276.817 32.6019 275.519 32.6016 273.913C32.6059 272.309 33.9041 271.008 35.5072 271.008H181.831C183.43 271.008 184.732 272.31 184.732 273.912V273.914C184.736 275.518 183.432 276.817 181.831 276.817Z" fill="#7CE3E2" stroke="black"/>
<path d="M184.732 309.086V309.088C184.736 310.688 183.432 311.991 181.831 311.991H35.5072C33.903 311.991 32.6019 310.688 32.6016 309.087C32.6059 307.475 33.9032 306.182 35.5072 306.182H181.831C183.431 306.182 184.732 307.475 184.732 309.086Z" fill="#7CE3E2" stroke="black"/>
<path d="M216.438 298.91L216.438 298.91C192.953 275.416 192.953 237.181 216.438 213.687L216.438 213.686C227.81 202.301 242.933 196.04 259.029 196.04C275.11 196.04 290.233 202.301 301.615 213.687C325.1 237.181 325.1 275.416 301.615 298.91L301.615 298.91C289.877 310.657 274.452 316.533 259.029 316.533C243.601 316.533 228.176 310.657 216.438 298.91Z" fill="white" stroke="#0F3D8B"/>
<path fill-rule="evenodd" clip-rule="evenodd" d="M258.73 310.445C245.058 310.445 231.385 305.186 220.982 294.671C200.167 273.642 200.167 239.42 220.982 218.391C231.061 208.2 244.466 202.596 258.73 202.596C272.982 202.596 286.387 208.2 296.474 218.391C317.289 239.42 317.289 273.642 296.474 294.671C286.071 305.186 272.398 310.445 258.73 310.445Z" fill="#7CE3E2"/>
<path d="M319.526 305.735L319.526 305.735L304.51 290.705L304.509 290.705C303.371 289.57 303.371 287.731 304.501 286.596C305.634 285.462 307.478 285.463 308.611 286.597L308.611 286.597L323.632 301.627C323.632 301.627 323.632 301.627 323.632 301.627C324.766 302.762 324.766 304.6 323.632 305.735C323.064 306.304 322.322 306.591 321.586 306.591C320.844 306.591 320.093 306.303 319.526 305.735ZM303.41 321.861L303.41 321.86L288.389 306.831L288.389 306.83C287.256 305.7 287.256 303.858 288.389 302.728L288.39 302.726C289.514 301.593 291.356 301.593 292.48 302.726L292.482 302.728L307.512 317.753L307.512 317.753C308.65 318.888 308.645 320.734 307.513 321.859L307.512 321.861C306.943 322.43 306.201 322.716 305.466 322.716C304.72 322.716 303.978 322.429 303.41 321.861Z" fill="white" stroke="#0F3D8B"/>
<mask id="mask1_692_423" style="mask-type:luminance" maskUnits="userSpaceOnUse" x="298" y="296" width="91" height="90">
<path d="M298.699 296.859H387.516V385.499H298.699V296.859Z" fill="white" stroke="white"/>
</mask>
<g mask="url(#mask1_692_423)">
<path d="M306.016 323.365L306.369 323.012L324.782 304.591L325.136 304.237L325.489 304.591L377.602 356.729C382.877 362.006 382.877 370.585 377.602 375.862C375.065 378.411 371.667 379.811 368.042 379.811C364.421 379.811 361.023 378.41 358.482 375.862L306.016 323.365ZM306.016 323.365L306.369 323.719L358.482 375.861L306.016 323.365ZM354.376 379.97L354.376 379.969L299.854 325.424C299.854 325.424 299.854 325.424 299.854 325.424C298.721 324.289 298.721 322.451 299.854 321.316C299.854 321.316 299.854 321.316 299.854 321.316L323.089 298.071L323.092 298.069C324.158 296.99 326.108 296.987 327.191 298.071L327.191 298.071L381.708 352.621L381.709 352.622C385.356 356.265 387.358 361.116 387.358 366.295C387.358 371.475 385.352 376.331 381.709 379.969L381.708 379.97C378.074 383.617 373.22 385.621 368.042 385.621C362.869 385.621 358.015 383.617 354.376 379.97Z" fill="white" stroke="#0F3D8B"/>
</g>
</svg>
