<svg width="547" height="595" viewBox="0 0 547 595" fill="none" xmlns="http://www.w3.org/2000/svg">
<path d="M548.175 95.3971C567.138 114.895 533.802 223.984 335.984 447.396C299.651 488.43 265.515 543.898 216.357 568.134C187.611 582.306 162.473 593.906 130.43 594.501C125.368 594.595 120.195 594.3 115.015 593.502C100.537 591.269 86.0117 585.104 73.7599 572.51C40.7555 538.583 -8.74745 339.265 -29.3734 243.847L-50 116.622C-50 98.9523 -41.7493 57.251 -8.7467 31.8061C24.2559 6.36122 73.7599 0 94.3865 0C108.138 0 131.517 16.9632 115.015 84.8162C94.3888 169.632 115.015 137.826 115.015 233.245C115.015 291.662 139.176 357.945 159.762 401.681C170.144 423.737 175.871 462.909 199.237 455.958C204.384 454.427 210.623 451.088 218.149 445.285C240.016 428.425 299.316 357.88 352.843 291.634C398.371 235.288 397.139 129.502 465.668 106.02C515.172 89.0565 541.299 91.8699 548.175 95.3971Z" fill="#9C2610"/>
<path d="M335.984 447.396C533.802 223.985 567.138 114.896 548.175 95.3978C541.3 91.8707 515.173 89.0573 465.669 106.021C397.139 129.503 398.371 235.289 352.843 291.635C299.316 357.881 240.017 428.426 218.149 445.286C210.623 451.088 204.384 454.428 199.237 455.959C184.915 500.02 148.02 589.215 115.016 593.502C120.195 594.301 125.369 594.596 130.43 594.502C162.473 593.906 187.612 582.306 216.357 568.134C265.515 543.898 299.651 488.431 335.984 447.396Z" fill="#EC5236"/>
</svg>
