<svg width="444" height="363" viewBox="0 0 444 363" fill="none" xmlns="http://www.w3.org/2000/svg">
<g clip-path="url(#clip0_371_1588)">
<path d="M337.86 0.0542925C294.985 -0.800465 250.722 8.44845 204.144 28.5462C141.03 55.745 86.4793 95.4145 44.2563 152.113C23.8917 179.466 8.34469 209.448 2.30683 243.857C-3.73103 278.267 1.6757 310.791 24.6911 337.968C43.9407 360.696 69.2493 372.29 97.2086 378.251C137.033 386.755 176.521 383.161 215.483 372.838C288.485 353.463 351.956 316.161 404.971 260.295C434.845 228.822 458.491 192.988 469.452 149.505C485.862 84.4122 456.829 30.0146 395.252 9.52235C376.699 3.32479 357.343 0.131575 337.86 0.0542925Z" fill="#EC5236"/>
<path d="M337.86 0.0542925C357.348 0.115161 376.705 3.29371 395.267 9.47863C456.866 29.9709 485.898 84.3685 469.467 149.462C458.507 192.945 434.86 228.779 404.986 260.251C351.971 316.117 288.5 353.42 215.498 372.794C176.557 383.117 137.069 386.711 97.2236 378.208C69.2643 372.246 43.9558 360.674 24.7062 337.924C1.69075 310.748 -3.80012 278.552 2.32189 243.814C8.4439 209.075 23.9278 179.422 44.2714 152.07C86.4733 95.3708 141.045 55.6355 204.159 28.5025C250.674 8.42664 294.943 -0.800465 337.86 0.0542925ZM273.71 225.403C274.697 226.373 275.618 227.413 276.466 228.516C287.89 246.466 298.451 264.941 311.41 281.905C319.467 292.469 327.441 296.129 338.885 289.51C347.106 284.49 355.005 278.919 362.532 272.832C369.054 267.813 364.636 263.648 362.322 259.681C359.124 254.093 357.041 260.164 354.559 261.172C353.114 262.04 351.754 263.053 350.498 264.196C338.78 272.042 333.668 270.991 325.674 259.068C323.887 256.434 322.29 253.664 320.898 250.783C315.239 238.751 310.379 226.28 304.068 214.664C299.86 207.125 301.817 202.456 307.202 197.328C318.857 186.37 329.019 173.745 339.348 161.384C348.289 150.689 354.958 138.24 363.647 127.501C366.599 123.953 368.787 119.788 370.064 115.285C371.342 110.783 371.679 106.047 371.052 101.398C370.779 98.5268 369.853 95.1077 365.982 95.6776C356.978 96.9707 348.899 101.157 340.863 105.277C337.686 106.899 336.045 110.274 338.191 113.365C343.451 120.86 339.832 127.084 335.982 133.09C320.523 156.955 302.911 179.229 283.387 199.607C281.789 201.251 280.295 204.144 277.539 202.632C274.425 200.922 275.94 197.81 276.508 195.29C281.536 173.592 285.302 151.566 291.95 130.284C292.785 127.55 292.986 124.649 292.536 121.818C292.086 118.987 290.999 116.308 289.362 114C288.98 113.078 288.278 112.341 287.397 111.935C286.515 111.528 285.52 111.483 284.608 111.808C279.345 113.131 274.587 116.073 270.951 120.252C267.315 124.43 264.97 129.652 264.222 135.238C263.086 145.1 261.908 154.963 261.151 164.869C259.888 181.329 258.437 197.92 256.585 214.16C253.998 236.954 250.842 259.681 249.622 282.628C249.39 287.012 248.759 291.724 255.744 291.724C261.571 291.724 266.263 291.724 266.263 283.768C266.263 273.599 267.904 263.517 268.367 253.347C268.42 243.763 270.234 234.278 273.71 225.403ZM143.275 109.88C143.275 104.554 143.486 100.872 141.908 97.3214C141.506 95.9938 140.618 94.8844 139.437 94.2324C138.257 93.5805 136.877 93.4383 135.597 93.8366C123.479 96.3132 117.946 103.37 114.559 116.038C110.351 131.687 114.727 146.875 115.821 162.064C116.596 176.064 118.056 190.014 120.197 203.859C124.089 226.587 127.729 249.205 136.754 270.508C139.426 276.82 142.686 283.483 136.102 290.036C133.682 292.425 134.902 296.129 136.733 299C137.613 300.495 138.904 301.681 140.437 302.403C141.971 303.126 143.678 303.353 145.337 303.055C151.312 302.419 171.298 284.491 172.686 278.355C172.965 277.412 172.965 276.404 172.686 275.461C171.045 271.516 172.686 268.36 174.433 264.963C191.515 230.817 206.536 195.75 216.887 158.71C219.264 150.229 219.643 141.177 220.632 132.235C221.326 126.12 218.528 125.112 213.247 126.887C209.217 128.003 205.591 130.329 202.819 133.575C200.047 136.821 198.253 140.844 197.658 145.144C195.975 153.67 196.691 162.677 194.187 170.787C186.087 197.328 174.811 222.51 162.778 247.32C161.653 249.793 160.24 252.112 158.57 254.224C156.466 256.788 154.215 257.402 153.163 252.997C151.375 245.545 148.493 238.247 147.757 230.707C145.506 208.089 140.877 185.712 140.625 162.765C140.625 154.634 139.005 146.262 140.393 138.437C142.203 128.465 141.424 118.23 143.381 109.88H143.275Z" fill="#FEFEFE"/>
<path d="M273.71 225.403C270.261 234.268 268.475 243.736 268.436 253.301C268.036 263.492 266.332 273.552 266.332 283.722C266.332 291.721 261.62 291.677 255.813 291.677C248.829 291.677 249.502 286.943 249.691 282.582C250.911 259.635 254.067 236.907 256.655 214.114C258.506 197.895 259.958 181.239 261.22 164.823C261.977 154.916 263.156 145.098 264.292 135.191C265.009 129.609 267.32 124.379 270.925 120.182C274.53 115.985 279.263 113.013 284.509 111.653C285.421 111.327 286.417 111.373 287.298 111.779C288.179 112.185 288.881 112.923 289.263 113.844C290.9 116.152 291.988 118.831 292.437 121.662C292.887 124.493 292.686 127.394 291.851 130.128C285.203 151.41 281.437 173.436 276.409 195.134C275.82 197.654 274.306 200.766 277.44 202.476C280.196 203.988 281.648 201.095 283.289 199.451C302.812 179.073 320.424 156.8 335.883 132.934C339.733 127.038 343.352 120.814 338.092 113.209C335.989 110.14 337.587 106.765 340.764 105.121C348.801 101.001 356.858 96.7929 365.883 95.5217C369.754 94.9738 370.68 98.3709 370.953 101.242C371.58 105.892 371.243 110.627 369.966 115.129C368.688 119.632 366.5 123.797 363.548 127.345C354.859 138.084 348.19 150.533 339.249 161.228C328.92 173.59 318.759 186.126 307.104 197.172C301.718 202.301 299.846 206.969 303.969 214.508C310.28 226.124 315.245 238.617 320.799 250.627C322.191 253.508 323.788 256.278 325.575 258.912C333.485 270.835 338.681 271.909 350.399 264.04C351.655 262.897 353.015 261.884 354.46 261.016C356.942 260.03 359.025 253.937 362.223 259.526C364.537 263.58 368.955 267.722 362.433 272.676C354.906 278.763 347.007 284.335 338.787 289.354C327.342 295.929 319.369 292.313 311.311 281.749C298.373 264.786 287.791 246.31 276.367 228.36C275.548 227.313 274.656 226.327 273.71 225.403Z" fill="#EC5236"/>
<path d="M141.851 124.246C142.114 119.142 142.357 114.259 143.381 109.88L143.392 109.769C143.496 104.503 143.568 100.848 142.022 97.4314C141.62 96.1039 140.732 94.9944 139.551 94.3425C138.371 93.6905 136.991 93.5484 135.711 93.9467C123.614 96.4233 118.081 103.481 114.673 116.148C111.621 127.53 113.085 138.647 114.537 149.674C115.086 153.85 115.635 158.014 115.935 162.174C116.35 169.668 116.961 177.149 117.768 184.606C117.608 184.194 117.453 183.793 117.302 183.404C119.629 213.943 126.113 273.937 134.898 294.028C135.044 295.732 135.852 297.538 136.847 299.11C137.727 300.605 139.018 301.791 140.552 302.514C142.085 303.236 143.792 303.463 145.451 303.165C151.405 302.573 171.391 284.601 172.8 278.465C173.079 277.522 173.079 276.514 172.8 275.572C171.198 271.741 172.765 268.62 174.427 265.313C174.466 265.233 174.507 265.153 174.547 265.073C191.629 230.927 206.671 195.86 217.001 158.821C218.797 152.357 219.456 145.46 220.106 138.664C220.309 136.543 220.51 134.431 220.746 132.345C221.419 126.23 218.642 125.2 213.361 126.997C209.331 128.113 205.705 130.439 202.933 133.685C200.161 136.931 198.367 140.954 197.772 145.254C197.056 148.885 196.774 152.584 196.493 156.27C196.115 161.237 195.738 166.179 194.301 170.897C186.202 197.438 174.925 222.62 162.892 247.43C161.767 249.903 160.354 252.222 158.684 254.334C156.538 256.898 154.35 257.49 153.277 253.107C152.674 250.598 151.948 248.102 151.221 245.606C149.797 240.709 148.372 235.811 147.871 230.817C147.075 222.788 145.983 214.804 144.892 206.829C142.895 192.231 140.902 177.658 140.739 162.875C140.711 160.175 140.523 157.449 140.335 154.724C139.957 149.244 139.58 143.774 140.507 138.547C141.36 133.739 141.61 128.9 141.851 124.246Z" fill="#EC5236"/>
</g>
<defs>
<clipPath id="clip0_371_1588">
<rect width="444" height="363" fill="white"/>
</clipPath>
</defs>
</svg>
