<svg width="440" height="595" viewBox="0 0 440 595" fill="none" xmlns="http://www.w3.org/2000/svg">
<g clip-path="url(#clip0_380_4555)">
<path d="M598.175 95.3971C617.138 114.895 583.802 223.984 385.984 447.396C349.651 488.43 315.515 543.898 266.357 568.134C237.611 582.306 212.473 593.906 180.43 594.501C175.368 594.595 170.195 594.3 165.015 593.502C150.537 591.269 136.012 585.104 123.76 572.51C90.7555 538.583 41.2525 339.265 20.6266 243.847L0 116.622C0 98.9523 8.25066 57.251 41.2533 31.8061C74.2559 6.36122 123.76 0 144.387 0C158.138 0 181.517 16.9632 165.015 84.8162C144.389 169.632 165.015 137.826 165.015 233.245C165.015 291.662 189.176 357.945 209.762 401.681C220.144 423.737 225.871 462.909 249.237 455.958C254.384 454.427 260.623 451.088 268.149 445.285C290.016 428.425 349.316 357.88 402.843 291.634C448.371 235.288 447.139 129.502 515.668 106.02C565.172 89.0565 591.299 91.8699 598.175 95.3971Z" fill="#9C2610"/>
<path d="M385.984 447.396C583.802 223.985 617.138 114.896 598.175 95.3978C591.3 91.8707 565.173 89.0573 515.669 106.021C447.139 129.503 448.371 235.289 402.843 291.635C349.316 357.881 290.017 428.426 268.149 445.286C260.623 451.088 254.384 454.428 249.237 455.959C234.915 500.02 198.02 589.215 165.016 593.502C170.195 594.301 175.369 594.596 180.43 594.502C212.473 593.906 237.612 582.306 266.357 568.134C315.515 543.898 349.651 488.431 385.984 447.396Z" fill="#EC5236"/>
</g>
<defs>
<clipPath id="clip0_380_4555">
<rect width="440" height="595" fill="white"/>
</clipPath>
</defs>
</svg>
