<svg width="242" height="56" viewBox="0 0 242 56" fill="none" xmlns="http://www.w3.org/2000/svg">
<path d="M45.3008 0.507249C39.552 0.392874 33.6171 1.63047 27.3719 4.31975C18.9095 7.95922 11.5953 13.2674 5.93395 20.8543C3.20343 24.5143 1.11887 28.5262 0.309303 33.1305C-0.500262 37.7349 0.22468 42.087 3.31062 45.7235C5.89163 48.7647 9.28504 50.3161 13.0339 51.1138C18.3736 52.2517 23.6682 51.7707 28.8923 50.3894C38.6804 47.7969 47.1907 42.8055 54.2991 35.3301C58.3046 31.1187 61.4752 26.3237 62.9448 20.5053C65.145 11.7952 61.2523 4.51624 52.9959 1.77417C50.5084 0.944874 47.9131 0.517591 45.3008 0.507249Z" fill="#FEFEFE"/>
<path d="M45.3008 0.507249C47.9137 0.515394 50.5092 0.940716 52.9979 1.76832C61.2572 4.51039 65.1498 11.7893 62.9468 20.4994C61.4772 26.3179 58.3066 31.1128 54.3011 35.3242C47.1927 42.7996 38.6824 47.7911 28.8943 50.3836C23.6731 51.7649 18.3784 52.2458 13.0359 51.1079C9.28706 50.3102 5.89365 48.7618 3.31264 45.7177C0.226699 42.0811 -0.509526 37.773 0.311322 33.1247C1.13217 28.4764 3.20827 24.5084 5.93597 20.8484C11.5945 13.2615 18.9116 7.94457 27.3739 4.3139C33.6107 1.62755 39.5464 0.392874 45.3008 0.507249ZM36.6994 30.6612C36.8318 30.7909 36.9552 30.9301 37.069 31.0777C38.6006 33.4795 40.0167 35.9518 41.7543 38.2217C42.8346 39.6353 43.9037 40.125 45.4382 39.2393C46.5405 38.5676 47.5996 37.8221 48.6088 37.0076C49.4832 36.336 48.8909 35.7788 48.5806 35.2479C48.1518 34.5001 47.8726 35.3125 47.5397 35.4474C47.346 35.5635 47.1637 35.6991 46.9953 35.8521C45.4241 36.902 44.7387 36.7612 43.6668 35.1658C43.4271 34.8134 43.2131 34.4428 43.0264 34.0573C42.2677 32.4472 41.6161 30.7785 40.7698 29.2242C40.2057 28.2153 40.468 27.5907 41.1901 26.9044C42.7528 25.4381 44.1153 23.7489 45.5003 22.0948C46.6991 20.6637 47.5933 18.9979 48.7583 17.5609C49.1541 17.0862 49.4475 16.5288 49.6188 15.9263C49.79 15.3238 49.8352 14.6902 49.7512 14.068C49.7145 13.6839 49.5904 13.2264 49.0714 13.3026C47.8641 13.4756 46.7809 14.0358 45.7034 14.5871C45.2774 14.8041 45.0574 15.2558 45.3451 15.6693C46.0503 16.6723 45.5651 17.5052 45.0489 18.3087C42.9761 21.5022 40.6147 24.4826 37.997 27.2094C37.7826 27.4294 37.5823 27.8165 37.2128 27.6141C36.7953 27.3854 36.9984 26.969 37.0746 26.6317C37.7488 23.7283 38.2537 20.781 39.145 17.9333C39.257 17.5675 39.284 17.1792 39.2236 16.8004C39.1633 16.4217 39.0175 16.0632 38.7981 15.7543C38.7468 15.631 38.6527 15.5323 38.5346 15.478C38.4164 15.4236 38.2829 15.4176 38.1606 15.4611C37.455 15.6381 36.8169 16.0317 36.3295 16.5909C35.842 17.15 35.5276 17.8487 35.4273 18.5961C35.2749 19.9158 35.117 21.2355 35.0154 22.5611C34.8462 24.7636 34.6515 26.9836 34.4033 29.1567C34.0564 32.2067 33.6332 35.2479 33.4696 38.3185C33.4386 38.905 33.354 39.5355 34.2905 39.5355C35.0718 39.5355 35.7009 39.5355 35.7009 38.471C35.7009 37.1102 35.9209 35.7612 35.983 34.4004C35.9901 33.1179 36.2333 31.8487 36.6994 30.6612ZM19.2106 15.203C19.2106 14.4903 19.2388 13.9977 19.0272 13.5226C18.9733 13.3449 18.8543 13.1965 18.696 13.1092C18.5376 13.022 18.3527 13.003 18.181 13.0563C16.5562 13.3877 15.8143 14.332 15.3602 16.0271C14.796 18.121 15.3828 20.1534 15.5295 22.1857C15.6333 24.0591 15.8292 25.9258 16.1162 27.7784C16.638 30.8196 17.126 33.8461 18.3361 36.6967C18.6944 37.5413 19.1316 38.4328 18.2487 39.3097C17.9243 39.6294 18.0879 40.125 18.3333 40.5092C18.4513 40.7092 18.6244 40.8679 18.8301 40.9646C19.0357 41.0613 19.2646 41.0917 19.487 41.0517C20.2881 40.9667 22.9679 38.5678 23.154 37.7466C23.1914 37.6205 23.1914 37.4856 23.154 37.3595C22.934 36.8316 23.154 36.4093 23.3882 35.9547C25.6786 31.3856 27.6927 26.6933 29.0805 21.737C29.3992 20.6021 29.45 19.3909 29.5826 18.1943C29.6757 17.3761 29.3005 17.2412 28.5925 17.4788C28.0521 17.6281 27.5659 17.9393 27.1942 18.3736C26.8226 18.8079 26.582 19.3463 26.5023 19.9217C26.2766 21.0625 26.3725 22.2678 26.0369 23.3529C24.9509 26.9044 23.4389 30.2741 21.8254 33.5939C21.6747 33.9248 21.4852 34.2351 21.2613 34.5177C20.9792 34.8608 20.6774 34.9429 20.5363 34.3535C20.2966 33.3564 19.9101 32.3798 19.8114 31.3709C19.5096 28.3444 18.889 25.3501 18.8552 22.2796C18.8552 21.1915 18.638 20.0713 18.8241 19.0243C19.0667 17.6899 18.9623 16.3203 19.2247 15.203H19.2106Z" fill="#EC5236"/>
<path d="M36.6994 30.6612C36.2369 31.8474 35.9975 33.1142 35.9923 34.3942C35.9387 35.7579 35.7102 37.104 35.7102 38.4648C35.7102 39.5352 35.0783 39.5293 34.2998 39.5293C33.3633 39.5293 33.4536 38.8959 33.479 38.3123C33.6426 35.2417 34.0657 32.2006 34.4126 29.1505C34.6609 26.9804 34.8555 24.7515 35.0247 22.5549C35.1263 21.2293 35.2843 19.9155 35.4366 18.5899C35.5327 17.8429 35.8426 17.1432 36.326 16.5815C36.8093 16.0199 37.4439 15.6223 38.1474 15.4402C38.2696 15.3967 38.4032 15.4027 38.5213 15.4571C38.6395 15.5115 38.7336 15.6102 38.7848 15.7335C39.0042 16.0423 39.1501 16.4008 39.2104 16.7796C39.2707 17.1584 39.2438 17.5466 39.1318 17.9125C38.2404 20.7601 37.7355 23.7075 37.0614 26.6108C36.9824 26.9481 36.7793 27.3645 37.1996 27.5933C37.5691 27.7956 37.7637 27.4085 37.9837 27.1886C40.6015 24.4618 42.9629 21.4813 45.0357 18.2878C45.5519 17.499 46.0371 16.6661 45.3319 15.6484C45.0498 15.2378 45.2642 14.7862 45.6901 14.5663C46.7677 14.0149 47.848 13.4518 49.0581 13.2817C49.5772 13.2084 49.7013 13.663 49.738 14.0472C49.8219 14.6693 49.7768 15.303 49.6055 15.9055C49.4342 16.5079 49.1408 17.0653 48.745 17.54C47.58 18.977 46.6859 20.6428 45.487 22.074C44.102 23.728 42.7396 25.4055 41.1769 26.8836C40.4548 27.5698 40.2037 28.1945 40.7566 29.2033C41.6028 30.7577 42.2685 32.4293 43.0132 34.0364C43.1999 34.422 43.4139 34.7925 43.6535 35.145C44.7141 36.7404 45.4109 36.8841 46.982 35.8312C47.1504 35.6782 47.3328 35.5427 47.5265 35.4265C47.8593 35.2945 48.1386 34.4793 48.5673 35.2271C48.8776 35.7696 49.47 36.3239 48.5955 36.9867C47.5863 37.8013 46.5272 38.5468 45.425 39.2185C43.8905 40.0983 42.8214 39.6144 41.741 38.2008C40.0062 35.9309 38.5874 33.4587 37.0557 31.0568C36.9458 30.9168 36.8262 30.7848 36.6994 30.6612Z" fill="#FEFEFE"/>
<path d="M19.0195 17.1253C19.0549 16.4423 19.0875 15.7889 19.2247 15.203L19.2262 15.1882C19.2401 14.4836 19.2498 13.9945 19.0425 13.5373C18.9886 13.3596 18.8696 13.2112 18.7112 13.1239C18.5529 13.0367 18.368 13.0177 18.1963 13.071C16.5743 13.4024 15.8325 14.3467 15.3755 16.0418C14.9663 17.5648 15.1626 19.0523 15.3572 20.5278C15.4309 21.0866 15.5044 21.6438 15.5447 22.2005C15.6003 23.2033 15.6823 24.2042 15.7905 25.2021C15.769 25.147 15.7482 25.0933 15.7281 25.0413C16.04 29.1277 16.9094 37.1554 18.0873 39.8439C18.1068 40.0719 18.2152 40.3135 18.3486 40.5239C18.4666 40.724 18.6397 40.8826 18.8453 40.9793C19.051 41.076 19.2799 41.1064 19.5023 41.0665C20.3006 40.9873 22.9803 38.5825 23.1693 37.7613C23.2067 37.6352 23.2067 37.5003 23.1693 37.3742C22.9545 36.8616 23.1646 36.4441 23.3873 36.0015C23.3927 35.9908 23.3981 35.9801 23.4034 35.9695C25.6939 31.4003 27.7108 26.708 29.0958 21.7518C29.3365 20.8868 29.425 19.964 29.5121 19.0546C29.5393 18.7708 29.5663 18.4882 29.5979 18.2091C29.6881 17.3908 29.3158 17.253 28.6078 17.4935C28.0674 17.6428 27.5812 17.954 27.2095 18.3883C26.8379 18.8227 26.5973 19.361 26.5176 19.9364C26.4215 20.4223 26.3837 20.9173 26.3461 21.4104C26.2953 22.0751 26.2449 22.7363 26.0522 23.3677C24.9662 26.9192 23.4542 30.2888 21.8407 33.6086C21.69 33.9395 21.5005 34.2498 21.2766 34.5324C20.9889 34.8756 20.6955 34.9547 20.5516 34.3682C20.4707 34.0326 20.3733 33.6986 20.276 33.3646C20.085 32.7093 19.894 32.0539 19.8267 31.3857C19.7201 30.3112 19.5736 29.243 19.4274 28.1758C19.1596 26.2223 18.8923 24.2724 18.8704 22.2943C18.8667 21.933 18.8415 21.5682 18.8163 21.2036C18.7656 20.4704 18.7151 19.7383 18.8394 19.039C18.9538 18.3956 18.9873 17.7481 19.0195 17.1253Z" fill="#FEFEFE"/>
<path d="M22 39.2493C23.9555 37.7493 26.4814 30.2911 27.4999 26.7495L25.0555 29.8745L23.8333 34.8744L22 39.2493Z" fill="#FEFEFE"/>
<path d="M216.426 19.9649C213.481 18.049 210.402 16.842 206.987 17.8143C206.349 17.9963 206.262 18.5232 206.106 19.0405C206.058 19.1488 206.031 19.2698 206.029 19.3932C206.027 19.5166 206.049 19.6387 206.094 19.7495C206.138 19.8602 206.204 19.9563 206.285 20.0296C206.366 20.1029 206.46 20.1514 206.56 20.1708C207.12 20.3432 207.03 20.8078 206.92 21.3251C206.497 23.241 206.094 25.2095 205.683 27.1446C205.275 29.3663 205.03 31.6279 204.95 33.9028C204.868 35.2295 205.644 35.8186 206.431 36.0581C207.218 36.2976 207.108 35.1433 207.402 34.6212C207.421 34.5714 207.433 34.5179 207.438 34.4631C207.665 33.2418 208.06 32.9592 208.934 33.8644C210.178 35.0928 211.544 36.1244 212.999 36.9346C213.324 37.1262 213.673 37.5572 214.096 37.1405C215.016 36.2209 216.113 35.6653 217.449 34.9469C214.476 33.2035 212.055 31.0912 210.05 27.8774C210.536 27.8103 210.747 27.7624 210.963 27.7481C212.823 27.6762 214.687 27.6331 216.548 27.5229C217.002 27.4942 217.523 27.5229 217.829 26.8715C218.643 25.1089 217.903 20.918 216.426 19.9649ZM214.402 25.4394C214.234 25.5099 214.061 25.5581 213.885 25.5831C212.96 25.7077 212.032 25.8226 211.566 25.8753C209.384 25.9232 209.333 25.8513 209.811 23.8205C210.324 21.6365 210.316 21.6604 212.142 22.4267C213.028 22.7829 213.868 23.2961 214.633 23.9499C214.872 24.1606 215.271 24.2803 215.216 24.7402C215.161 25.2 214.731 25.3101 214.402 25.4394Z" fill="#FEFEFE"/>
<path d="M137.372 27.0446C137.372 24.3097 136.721 22.7961 134.881 20.9234C132.522 18.5761 129.63 17.1746 126.597 16.9096C126.029 16.8425 125.422 18.0831 125.676 18.8255C125.83 19.2775 126.061 19.6842 126.354 20.0181C126.992 20.7174 127.082 21.455 126.875 22.4752C126.514 24.2043 126.397 26.01 126.005 27.7199C125.496 29.9423 126.193 32.5096 124.736 34.4542C124.706 34.5515 124.706 34.6587 124.736 34.756C124.901 35.5654 127.353 37.6058 127.979 37.4142C131.551 36.3174 134.465 34.0184 136.549 30.2297C137.125 29.3219 137.417 28.1923 137.372 27.0446ZM133.247 26.5656C132.072 28.8694 130.748 30.9913 128.492 31.8343C128.982 29.267 130.008 26.8913 130.231 24.233C130.264 23.8019 130.316 23.3733 130.388 22.9494C130.402 22.6912 130.489 22.447 130.635 22.2597C131.591 22.0058 132.444 22.5997 133.333 22.868C133.917 23.0452 133.725 23.7397 133.764 24.2522C133.808 25.0678 133.626 25.8774 133.247 26.5512V26.5656Z" fill="#FEFEFE"/>
<path d="M114.216 28.3914C115.042 30.5228 115.724 32.2758 116.401 34.0289C116.535 34.3737 116.648 34.7234 116.793 35.0682C116.936 35.4691 117.167 35.813 117.461 36.0611C117.756 36.3092 118.101 36.4514 118.458 36.4716C119.241 36.5722 119.543 35.7867 119.805 35.1353C121.082 31.9932 121.552 28.5543 122.132 25.168C122.523 22.9887 122.735 20.771 123.033 18.5678L122.641 18.4385C120.291 21.6332 120.82 26.4755 118.517 29.8523C118.394 29.6097 118.283 29.3586 118.184 29.1003C117.322 26.3941 118.262 23.0749 116.28 20.7471C116.672 18.7738 115.266 19.109 114.486 18.7785C113.092 18.1894 112.684 18.4912 112.238 20.2154C111.653 22.4338 111.21 24.7046 110.914 27.0072C110.648 29.0907 110.362 31.1742 110.131 33.2673C110.045 34.0528 111.451 36.4429 111.862 36.2465C112.645 35.8825 112.524 34.8096 112.72 34.0432C113.139 32.2854 113.405 30.4749 114.216 28.3914Z" fill="#FEFEFE"/>
<path d="M171.112 26.4316C170.278 25.7131 170.329 25.0282 170.329 24.1709C170.363 22.7075 170.298 21.2431 170.133 19.7931C169.831 17.8246 169.103 17.0151 167.458 17.2259C166.694 17.3264 165.542 17.2259 165.327 18.1503C165.053 19.3381 164.312 19.7452 163.713 20.3343C163.297 20.7161 162.994 21.2521 162.848 21.8622C162.417 23.6201 161.974 25.3779 161.575 27.1309C161.434 27.7583 161.257 28.2277 160.654 28.3091C159.542 28.4672 159.44 29.3533 160.024 30.225C161.011 31.6619 160.721 33.1323 160.38 34.6698C160.263 35.1919 160.176 35.7235 160.094 36.2552C160.047 36.3791 160.037 36.5188 160.064 36.6513C160.091 36.7837 160.154 36.9008 160.243 36.9832C160.541 37.1892 160.713 36.9257 160.913 36.6815C161.641 35.7906 161.802 34.5836 162.119 33.4628C162.436 32.342 165.644 31.0392 166.369 31.705C166.76 32.0594 166.737 32.6629 166.76 33.2042C166.788 34.095 166.76 34.9907 166.76 35.8864L167.317 36.1354C167.254 34.6985 168.131 34.3633 168.805 33.8077C169.061 33.6414 169.279 33.4013 169.442 33.1084C169.604 32.8154 169.705 32.4783 169.737 32.1265C169.772 31.0776 170.176 30.3543 170.724 29.5736C171.355 28.6827 171.927 27.1453 171.112 26.4316ZM166.236 26.4651C166.142 27.8062 164.982 27.4231 164.32 27.4518C163.658 27.4805 164.03 26.6423 164.148 26.1969C164.414 24.903 164.896 23.69 165.562 22.6334C166.11 23.7926 166.345 25.1331 166.236 26.4651Z" fill="#FEFEFE"/>
<path d="M201.477 32.2367C200.051 32.8737 198.884 33.6736 197.56 33.8077C196.867 33.8795 196.06 34.0328 195.731 32.9743C195.402 31.9158 196.079 31.3937 196.671 30.9147C198.077 29.7631 199.703 29.0751 201.391 28.9175C201.655 28.915 201.91 28.7967 202.109 28.584C202.308 28.3713 202.438 28.0783 202.476 27.7583C202.656 26.9393 202.205 26.7573 201.806 26.4077C200.752 25.4881 199.55 25.5072 198.355 25.5264C197.619 25.5264 197.427 25.2486 197.595 24.3625C197.909 22.7436 198.606 21.8 200.047 21.7856C200.889 21.7638 201.729 21.6758 202.562 21.5222C203.807 21.3115 203.76 19.9943 203.921 18.931C204.101 17.7384 203.365 17.6426 202.675 17.5899C200.407 17.4175 198.159 17.3887 195.982 18.4137C195.711 18.5042 195.46 18.669 195.249 18.8956C195.038 19.1221 194.872 19.4045 194.763 19.7213C193.326 23.756 192.508 28.0796 192.351 32.4762C192.308 33.9897 192.053 35.4027 193.772 36.1786C194.89 36.7652 196.114 36.98 197.321 36.8012C199.542 36.4229 200.337 34.3585 201.477 32.2367Z" fill="#FEFEFE"/>
<path d="M100.861 33.1475C100.469 30.8484 100.802 28.717 100.861 26.576C100.92 24.435 101.785 22.385 101.644 20.1866C101.613 19.6789 101.828 18.946 101.327 18.7497C101.07 18.648 100.794 18.6391 100.533 18.724C100.272 18.809 100.036 18.9842 99.8543 19.2286C99.4684 19.7558 98.9529 20.1155 98.3855 20.2536C98.1272 20.3107 97.892 20.4719 97.7174 20.7115C97.5427 20.9511 97.4387 21.2553 97.4219 21.5756C96.9189 24.6085 96.7046 27.7025 96.7835 30.7957C96.811 31.7507 97.0136 32.686 97.3763 33.5324C97.7389 34.3788 98.2525 35.1148 98.879 35.686C100.837 37.6306 104.03 37.6019 105.201 35.595C107.314 32.0138 108.616 27.8138 108.976 23.4196C109.031 22.7634 109.313 21.7145 108.781 21.5037C108.154 21.2643 107.437 21.8773 106.959 22.5527C106.784 22.8662 106.639 23.2038 106.528 23.5585C105.62 25.7948 104.549 27.9268 103.328 29.9288C102.647 31.0544 102.036 32.338 100.861 33.1475Z" fill="#FEFEFE"/>
<path d="M158.999 24.484C157.973 22.6639 157.041 21.0498 156.148 19.4165C155.564 18.358 154.812 18.2909 153.943 18.7699C150.776 20.438 148.186 23.4083 146.622 27.1662C146.164 28.2631 145.721 29.4174 146.074 30.7441C147.249 35.2081 149.164 36.2427 152.529 34.1735C153.312 33.6946 153.798 33.4455 153.758 34.9494C153.715 36.6067 154.581 37.6221 155.689 38.3693C156.25 38.7477 156.669 38.8482 156.786 37.7897C157.006 35.8739 157.291 33.958 157.57 32.0421C157.718 30.9836 157.542 30.1646 156.688 29.5946C155.834 29.0246 155.122 28.8665 154.268 29.676C153.085 30.7452 151.76 31.5555 150.351 32.0708C150.173 32.1841 149.972 32.2313 149.772 32.2067C149.572 32.182 149.383 32.0865 149.227 31.9319C148.835 31.4769 149.137 31.0075 149.309 30.6004C151.044 26.51 155.165 23.8182 158.999 24.484Z" fill="#FEFEFE"/>
<path d="M82.1007 25.1808C82.4924 24.9796 82.4101 24.4719 82.5355 24.1079C83.2288 22.0723 83.0956 20.2091 81.7521 18.5614C81.6587 18.3825 81.524 18.2415 81.365 18.1563C81.2061 18.071 81.03 18.0453 80.8591 18.0825C78.2858 18.7387 75.7673 19.4763 73.8442 21.9525C71.3688 25.152 71.8858 29.0413 75.0779 30.9667C75.8613 31.4457 76.6682 31.8336 77.6787 32.3797C76.2294 33.7823 74.4351 34.5451 72.5869 34.5446C73.5739 36.3407 74.7607 37.0017 76.3274 36.6233C77.5934 36.3444 78.8236 35.8612 79.9857 35.1864C80.769 34.7074 81.619 34.2285 81.5915 32.873C81.5964 32.2445 81.4356 31.6307 81.1329 31.1226C80.8303 30.6145 80.4019 30.2391 79.9112 30.0519C78.9634 29.5729 78.0155 29.1275 77.1068 28.5671C75.685 27.6906 75.6263 26.8093 76.8679 25.5304C77.844 24.5879 78.929 23.8276 80.0875 23.2745C81.0941 22.7476 81.7208 23.0589 81.8109 24.5006C81.7902 24.6373 81.8075 24.7785 81.86 24.9018C81.9125 25.025 81.9973 25.1232 82.1007 25.1808Z" fill="#FEFEFE"/>
<path d="M222.473 31.5323C222.658 31.973 222.336 32.246 222.207 32.5429C221.457 34.2049 220.604 35.7948 219.657 37.2991C219.485 37.5769 218.894 37.9745 219.489 38.4774C220.186 39.0713 220.789 39.67 221.647 38.5444C223.904 35.557 225.998 32.3905 227.914 29.0656C229.355 26.5846 230.895 24.1658 229.853 20.7699C229.688 20.2334 229.649 19.7305 229.159 19.5725C228.591 19.3905 228.525 20.0131 228.376 20.425C228.227 20.8369 228.102 21.3399 227.957 21.7949C227.232 24.1966 226.058 26.3582 224.53 28.1077C223.578 29.1758 223.104 28.9411 222.834 27.418C222.455 25.1919 222.266 22.9238 222.27 20.6501C222.27 19.7976 220.785 17.7763 220.249 17.9967C219.528 18.3128 219.587 19.3042 219.505 20.061C219.193 22.7575 219.069 25.4814 219.132 28.2035C219.199 30.5935 220.597 31.9634 222.473 31.5323Z" fill="#FEFEFE"/>
<path d="M185.188 37.0831C187.227 36.7735 189.173 35.8575 190.855 34.4153C191.139 34.1895 191.343 33.8418 191.427 33.441C191.512 33.0401 191.47 32.6152 191.31 32.2503C191.004 31.5079 190.526 32.3988 190.1 32.5233C189.673 32.6479 189.277 32.9448 188.846 33.0454C187.471 33.3807 186.974 32.8826 186.888 31.1295C186.852 30.6964 186.852 30.2599 186.888 29.8267C187.292 26.4986 188.083 23.2583 189.238 20.2043C189.551 19.3948 189.696 18.7147 188.819 18.4896C187.71 18.207 185.685 19.7014 185.294 21.0137C184.569 23.4086 184.025 25.8992 183.104 28.1647C182.109 30.617 182.689 32.8969 183.104 35.2295C183.339 36.379 184.017 37.1118 185.188 37.0831Z" fill="#FEFEFE"/>
<path d="M181.626 32.0056C181.058 31.9338 180.663 32.3169 180.228 32.5516C179.362 33.0306 178.371 33.5814 177.596 32.748C176.981 32.087 177.098 30.8944 177.204 29.8742C177.518 26.5597 178.403 23.4513 179.421 20.3907C179.66 19.6722 179.989 18.8867 179.167 18.5418C178.191 18.1347 175.998 19.6866 175.614 20.9367C174.709 23.8775 173.656 26.7657 172.974 29.788C172.75 30.887 172.713 32.0305 172.865 33.1477C173.018 34.2649 173.356 35.332 173.859 36.2828C174.274 37.1114 174.999 37.1976 175.759 37.0539C177.369 36.6864 178.919 36.0021 180.349 35.0279C181.462 34.319 181.72 33.3611 181.626 32.0056Z" fill="#FEFEFE"/>
<path d="M216.426 19.9649C213.481 18.049 210.402 16.842 206.987 17.8143C206.349 17.9963 206.262 18.5232 206.106 19.0405C206.058 19.1488 206.031 19.2698 206.029 19.3932C206.027 19.5166 206.049 19.6387 206.094 19.7495C206.138 19.8602 206.204 19.9563 206.285 20.0296C206.366 20.1029 206.46 20.1514 206.56 20.1708C207.12 20.3432 207.03 20.8078 206.92 21.3251C206.497 23.241 206.094 25.2095 205.683 27.1446C205.275 29.3663 205.03 31.6279 204.95 33.9028C204.868 35.2295 205.644 35.8186 206.431 36.0581C207.218 36.2976 207.108 35.1433 207.402 34.6212C207.421 34.5714 207.433 34.5179 207.438 34.4631C207.665 33.2418 208.06 32.9592 208.934 33.8644C210.178 35.0928 211.544 36.1244 212.999 36.9346C213.324 37.1262 213.673 37.5572 214.096 37.1405C215.016 36.2209 216.113 35.6653 217.449 34.9469C214.476 33.2035 212.055 31.0912 210.05 27.8774C210.536 27.8103 210.747 27.7624 210.963 27.7481C212.823 27.6762 214.687 27.6331 216.548 27.5229C217.002 27.4942 217.523 27.5229 217.829 26.8715C218.643 25.1089 217.903 20.918 216.426 19.9649ZM214.402 25.4394C214.234 25.5099 214.061 25.5581 213.885 25.5831C212.96 25.7077 212.032 25.8226 211.566 25.8753C209.384 25.9232 209.333 25.8513 209.811 23.8205C210.324 21.6365 210.316 21.6604 212.142 22.4267C213.028 22.7829 213.868 23.2961 214.633 23.9499C214.872 24.1606 215.271 24.2803 215.216 24.7402C215.161 25.2 214.731 25.3101 214.402 25.4394Z" fill="#EC5236"/>
<path d="M137.372 27.0446C137.372 24.3097 136.721 22.7961 134.881 20.9234C132.522 18.5761 129.63 17.1746 126.597 16.9096C126.029 16.8425 125.422 18.0831 125.676 18.8255C125.83 19.2775 126.061 19.6842 126.354 20.0181C126.992 20.7174 127.082 21.455 126.875 22.4752C126.514 24.2043 126.397 26.01 126.005 27.7199C125.496 29.9423 126.193 32.5096 124.736 34.4542C124.706 34.5515 124.706 34.6587 124.736 34.756C124.901 35.5654 127.353 37.6058 127.979 37.4142C131.551 36.3174 134.465 34.0184 136.549 30.2297C137.125 29.3219 137.417 28.1923 137.372 27.0446ZM133.247 26.5656C132.072 28.8694 130.748 30.9913 128.492 31.8343V31.8726L128.453 31.9588C128.453 31.9205 128.453 31.8822 128.453 31.8486H128.481C128.97 29.2814 129.996 26.9057 130.22 24.2474C130.252 23.8162 130.304 23.3877 130.376 22.9638C130.39 22.7056 130.477 22.4614 130.623 22.274C131.579 22.0202 132.433 22.6141 133.322 22.8823C133.905 23.0596 133.713 23.7541 133.753 24.2666C133.797 25.0756 133.619 25.8796 133.247 26.5512V26.5656Z" fill="#EC5236"/>
<path d="M114.209 28.3892C113.398 30.4727 113.132 32.288 112.689 34.0266C112.49 34.8026 112.603 35.8659 111.832 36.2299C111.42 36.4263 110.014 34.0362 110.1 33.2507C110.328 31.1576 110.614 29.0741 110.884 26.9906C111.18 24.688 111.623 22.4172 112.208 20.1988C112.658 18.4937 113.062 18.192 114.456 18.7619C115.239 19.0924 116.63 18.7619 116.25 20.7305C118.232 23.0583 117.292 26.3775 118.153 29.0837C118.252 29.342 118.364 29.5931 118.486 29.8357C120.789 26.4589 120.257 21.6166 122.611 18.4219L123.002 18.5512C122.709 20.7497 122.474 22.9673 122.101 25.1514C121.522 28.5377 121.052 31.9767 119.775 35.1187C119.512 35.7653 119.219 36.5556 118.428 36.455C118.071 36.4348 117.725 36.2926 117.431 36.0445C117.137 35.7964 116.905 35.4525 116.763 35.0516C116.634 34.7068 116.52 34.3523 116.371 34.0123C115.717 32.2688 115.036 30.5158 114.209 28.3892Z" fill="#EC5236"/>
<path d="M92.524 19.3365C91.349 19.0683 90.174 18.9725 88.713 18.7617C87.773 18.9198 86.8643 19.8729 86.0143 20.6776C85.5443 21.123 84.6082 22.354 85.3093 23.1155C86.0104 23.8771 85.701 24.3369 85.4112 24.9308C84.6492 26.6457 84.1701 28.527 84.0011 30.4677C83.7818 32.6039 84.8824 34.6395 87.0327 36.0477C88.8462 37.2355 90.2562 37.1206 91.6702 35.5304C94.1394 32.7439 95.6631 28.9252 95.9394 24.8303C96.2175 21.6403 95.0856 19.9256 92.524 19.3365ZM92.8452 28.7578C91.6925 30.5614 90.2297 32.0331 88.5603 33.0685C87.7338 33.605 87.5693 32.9392 87.5301 32.1776C87.8275 29.5771 88.4733 27.0543 89.4415 24.7105C89.4836 24.5887 89.5467 24.4795 89.6265 24.3902C89.7062 24.3009 89.8008 24.2337 89.9037 24.1932C91.1806 24.2651 92.1441 25.1512 92.9627 26.2241C93.5894 27.0191 93.3152 28.0058 92.8491 28.7578H92.8452Z" fill="#EC5236"/>
<path d="M171.112 26.4316C170.278 25.7131 170.329 25.0282 170.329 24.1709C170.363 22.7075 170.298 21.2431 170.133 19.7931C169.831 17.8246 169.103 17.0151 167.458 17.2259C166.694 17.3264 165.542 17.2259 165.327 18.1503C165.053 19.3381 164.312 19.7452 163.713 20.3343C163.297 20.7161 162.994 21.2521 162.848 21.8622C162.417 23.6201 161.974 25.3779 161.575 27.1309C161.434 27.7583 161.257 28.2277 160.654 28.3091C159.542 28.4672 159.44 29.3533 160.024 30.225C161.011 31.6619 160.721 33.1323 160.38 34.6698C160.263 35.1919 160.176 35.7235 160.094 36.2552C160.047 36.3791 160.037 36.5188 160.064 36.6513C160.091 36.7837 160.154 36.9008 160.243 36.9832C160.541 37.1892 160.713 36.9257 160.913 36.6815C161.641 35.7906 161.802 34.5836 162.119 33.4628C162.436 32.342 165.644 31.0392 166.369 31.705C166.76 32.0594 166.737 32.6629 166.76 33.2042C166.788 34.095 166.76 34.9907 166.76 35.8864L167.317 36.1354C167.254 34.6985 168.131 34.3633 168.805 33.8077C169.061 33.6414 169.279 33.4013 169.442 33.1084C169.604 32.8154 169.705 32.4783 169.737 32.1265C169.772 31.0776 170.176 30.3543 170.724 29.5736C171.355 28.6827 171.927 27.1453 171.112 26.4316ZM166.236 26.4651C166.142 27.8062 164.982 27.4231 164.32 27.4518C163.658 27.4805 164.03 26.6423 164.148 26.1969C164.414 24.903 164.896 23.69 165.562 22.6334C166.11 23.7926 166.345 25.1331 166.236 26.4651Z" fill="#EC5236"/>
<path d="M201.477 32.2258C200.337 34.3524 199.542 36.412 197.329 36.7856C196.122 36.9644 194.897 36.7495 193.78 36.1629C192.061 35.387 192.315 33.9788 192.358 32.4605C192.514 28.0574 193.332 23.727 194.771 19.6864C194.88 19.3696 195.046 19.0872 195.257 18.8607C195.468 18.6341 195.718 18.4693 195.989 18.3788C198.167 17.3538 200.415 17.3826 202.683 17.555C203.376 17.6077 204.109 17.7035 203.929 18.8961C203.768 19.9594 203.815 21.2909 202.569 21.4873C201.737 21.6409 200.897 21.7289 200.055 21.7508C198.614 21.7508 197.916 22.7087 197.603 24.3276C197.431 25.2137 197.627 25.5059 198.363 25.4915C199.557 25.4915 200.76 25.4484 201.814 26.3728C202.205 26.7224 202.667 26.9045 202.483 27.7235C202.446 28.0435 202.316 28.3364 202.117 28.5491C201.918 28.7618 201.663 28.8801 201.398 28.8826C199.711 29.0402 198.085 29.7282 196.679 30.8799C196.087 31.3589 195.406 31.8714 195.739 32.9395C196.072 34.0076 196.871 33.8447 197.568 33.7729C198.884 33.6531 200.051 32.8628 201.477 32.2258Z" fill="#EC5236"/>
<path d="M100.862 33.1525C102.037 32.343 102.648 31.0546 103.345 29.929C104.565 27.927 105.636 25.795 106.545 23.5588C106.656 23.204 106.801 22.8664 106.976 22.5529C107.454 21.8776 108.151 21.2645 108.797 21.504C109.334 21.7052 109.048 22.7589 108.993 23.4199C108.633 27.814 107.33 32.014 105.217 35.5952C104.042 37.6068 100.854 37.6308 98.8956 35.6862C98.2691 35.115 97.7555 34.379 97.3929 33.5326C97.0302 32.6862 96.8276 31.751 96.8001 30.796C96.7213 27.7028 96.9355 24.6088 97.4385 21.5759C97.4553 21.2556 97.5593 20.9514 97.734 20.7118C97.9086 20.4722 98.1438 20.311 98.4021 20.2539C98.9663 20.1103 99.4774 19.7474 99.8591 19.2194C100.041 18.9749 100.277 18.7997 100.538 18.7147C100.799 18.6298 101.075 18.6387 101.332 18.7404C101.833 18.9511 101.618 19.6983 101.649 20.1773C101.786 22.3757 100.932 24.397 100.866 26.5667C100.799 28.7364 100.462 30.8582 100.862 33.1525Z" fill="#EC5236"/>
<path d="M159.005 24.4888C155.179 23.8374 151.054 26.5292 149.327 30.586C149.151 30.9979 148.853 31.4625 149.245 31.9175C149.401 32.0721 149.59 32.1676 149.79 32.1923C149.989 32.2169 150.191 32.1697 150.369 32.0564C151.778 31.5411 153.103 30.7308 154.286 29.6616C155.124 28.8521 155.852 29.0102 156.706 29.5802C157.56 30.1502 157.736 30.9692 157.587 32.0277C157.321 33.9436 157.035 35.8594 156.804 37.7753C156.687 38.8147 156.267 38.7332 155.707 38.3549C154.599 37.6077 153.749 36.5923 153.776 34.935C153.816 33.4311 153.318 33.6849 152.547 34.1591C149.182 36.2282 147.271 35.1937 146.092 30.7297C145.743 29.403 146.182 28.2487 146.64 27.1518C148.198 23.3919 150.782 20.4165 153.945 18.7412C154.814 18.2622 155.566 18.3245 156.15 19.3878C157.047 21.045 157.975 22.6591 159.005 24.4888Z" fill="#EC5236"/>
<path d="M82.0972 25.1886C81.9956 25.1239 81.9149 25.0192 81.868 24.8915C81.8211 24.7637 81.8108 24.6204 81.8387 24.4845C81.7486 23.0476 81.1219 22.7267 80.1153 23.2584C78.9568 23.8115 77.8718 24.5718 76.8957 25.5143C75.6541 26.7932 75.7207 27.6745 77.1347 28.551C78.0433 29.1114 78.9951 29.576 79.9391 30.0358C80.4298 30.223 80.8581 30.5984 81.1607 31.1065C81.4634 31.6146 81.6242 32.2284 81.6194 32.8569C81.6468 34.198 80.836 34.6818 80.0135 35.1703C78.8514 35.8452 77.6213 36.3284 76.3552 36.6072C74.7885 36.9904 73.6135 36.3247 72.6147 34.5285C74.463 34.5291 76.2572 33.7662 77.7065 32.3636C76.696 31.8176 75.8852 31.4056 75.1058 30.9506C71.9058 29.0348 71.3966 25.1311 73.872 21.9364C75.7873 19.4602 78.3136 18.7178 80.8869 18.0664C81.0578 18.0292 81.2339 18.0549 81.3929 18.1401C81.5518 18.2254 81.6865 18.3664 81.7799 18.5453C83.1038 20.1978 83.237 22.0562 82.5633 24.0918C82.4066 24.4845 82.4889 24.9875 82.0972 25.1886Z" fill="#EC5236"/>
<path d="M222.473 31.535C220.597 31.9661 219.199 30.5771 219.132 28.1823C219.069 25.4602 219.193 22.7363 219.505 20.0399C219.591 19.2783 219.528 18.2916 220.249 17.9755C220.785 17.7408 222.266 19.7717 222.27 20.629C222.269 22.9112 222.462 25.1873 222.846 27.4207C223.112 28.9486 223.59 29.1833 224.542 28.1104C226.059 26.3568 227.221 24.1956 227.937 21.7977C228.082 21.3187 228.188 20.8685 228.356 20.4278C228.525 19.9872 228.576 19.3933 229.14 19.5753C229.629 19.7333 229.669 20.2362 229.833 20.7727C230.879 24.1638 229.336 26.5873 227.894 29.0684C225.978 32.3932 223.885 35.5597 221.627 38.5471C220.77 39.6774 220.167 39.0739 219.469 38.48C218.878 37.9771 219.469 37.5748 219.638 37.3018C220.585 35.7975 221.437 34.2076 222.188 32.5456C222.336 32.2487 222.658 31.9757 222.473 31.535Z" fill="#EC5236"/>
<path d="M185.188 37.08C184.013 37.1135 183.339 36.3807 183.131 35.2503C182.701 32.9225 182.125 30.6378 183.131 28.1855C184.052 25.9152 184.596 23.4198 185.321 21.0345C185.713 19.7221 187.745 18.2278 188.846 18.5103C189.723 18.7355 189.575 19.4108 189.265 20.225C188.11 23.279 187.319 26.5194 186.915 29.8475C186.879 30.2807 186.879 30.7172 186.915 31.1503C186.986 32.8794 187.483 33.3775 188.873 33.0662C189.304 32.9608 189.7 32.6687 190.127 32.5441C190.554 32.4196 191.032 31.5335 191.337 32.2711C191.497 32.636 191.539 33.0609 191.455 33.4618C191.371 33.8627 191.166 34.2103 190.883 34.4361C189.19 35.8749 187.235 36.7828 185.188 37.08Z" fill="#EC5236"/>
<path d="M181.624 31.9944C181.722 33.3499 181.46 34.3078 180.347 35.0023C178.914 35.9742 177.361 36.6552 175.749 37.0188C174.993 37.1577 174.265 37.0763 173.849 36.2476C173.346 35.2959 173.008 34.2278 172.857 33.1098C172.705 31.9917 172.743 30.8475 172.968 29.7481C173.642 26.7306 174.703 23.8376 175.608 20.8968C176 19.6562 178.181 18.1044 179.161 18.5019C179.987 18.8468 179.654 19.6323 179.415 20.3507C178.397 23.4113 177.512 26.5198 177.198 29.8343C177.1 30.8688 176.983 32.0615 177.59 32.7081C178.373 33.5415 179.356 32.9811 180.222 32.5117C180.661 32.3057 181.056 31.9226 181.624 31.9944Z" fill="#EC5236"/>
<path d="M128.447 31.8352L128.427 31.9215L128.47 31.854L128.447 31.8352Z" fill="#FEFEFE"/>
<path d="M237.925 14.7223C238.129 14.6969 238.32 14.5909 238.469 14.4206C238.698 14.0842 238.823 13.6606 238.823 13.2232C238.823 12.7857 238.698 12.3621 238.469 12.0257C238.352 11.8827 238.212 11.7702 238.058 11.6953C237.903 11.6204 237.738 11.5845 237.573 11.5899H235.289V17.2704H235.916V14.8133H237.33L238.305 17.2704H238.986L237.925 14.7223ZM235.916 14.1907V12.2317H237.435C237.532 12.2301 237.627 12.2526 237.716 12.2979C237.805 12.3432 237.886 12.4104 237.952 12.4951C238.088 12.7019 238.164 12.9574 238.169 13.2223C238.174 13.4871 238.107 13.7467 237.98 13.9608C237.92 14.0355 237.848 14.0945 237.768 14.134C237.689 14.1735 237.603 14.1928 237.518 14.1907H235.916Z" fill="white"/>
<path d="M236.88 9.1853C235.869 9.1853 234.88 9.49208 234.039 10.0668C233.198 10.6416 232.542 11.4585 232.155 12.4143C231.768 13.37 231.667 14.4218 231.864 15.4364C232.061 16.451 232.548 17.3831 233.264 18.1146C233.979 18.8461 234.89 19.3443 235.882 19.5461C236.874 19.7479 237.903 19.6443 238.837 19.2484C239.772 18.8525 240.571 18.1821 241.133 17.3219C241.694 16.4618 241.994 15.4505 241.994 14.416C241.993 13.0291 241.454 11.6993 240.495 10.7186C239.536 9.73792 238.236 9.18647 236.88 9.1853ZM236.88 18.7507C236.042 18.7507 235.222 18.4964 234.525 18.0201C233.828 17.5438 233.285 16.8668 232.964 16.0748C232.643 15.2827 232.56 14.4111 232.723 13.5703C232.887 12.7294 233.29 11.9571 233.883 11.3508C234.476 10.7446 235.231 10.3318 236.053 10.1645C236.875 9.99726 237.728 10.0831 238.502 10.4112C239.276 10.7393 239.938 11.2949 240.404 12.0077C240.87 12.7205 241.118 13.5586 241.118 14.416C241.117 15.5652 240.67 16.6671 239.876 17.4798C239.081 18.2924 238.004 18.7495 236.88 18.7507Z" fill="white"/>
<path d="M172.838 50.8188C172.838 51.0327 172.794 51.2334 172.706 51.4209C172.621 51.6084 172.505 51.7725 172.359 51.9131C172.215 52.0537 172.047 52.165 171.854 52.2471C171.663 52.3262 171.461 52.3657 171.247 52.3657H170.794C170.581 52.3657 170.377 52.3262 170.184 52.2471C169.993 52.165 169.825 52.0537 169.678 51.9131C169.535 51.7725 169.419 51.6084 169.331 51.4209C169.246 51.2334 169.204 51.0327 169.204 50.8188V50.5684L169.771 50.4761V50.8188C169.771 50.9595 169.798 51.0913 169.854 51.2144C169.913 51.3345 169.99 51.4414 170.087 51.5352C170.184 51.626 170.295 51.6978 170.421 51.7505C170.55 51.8032 170.685 51.8296 170.825 51.8296H171.221C171.361 51.8296 171.495 51.8032 171.621 51.7505C171.747 51.6978 171.858 51.626 171.955 51.5352C172.051 51.4414 172.127 51.3345 172.183 51.2144C172.242 51.0913 172.271 50.9595 172.271 50.8188V50.6299C172.271 50.4131 172.229 50.2329 172.144 50.0894C172.059 49.9458 171.946 49.8242 171.805 49.7246C171.665 49.6221 171.505 49.5356 171.326 49.4653C171.15 49.395 170.969 49.3247 170.781 49.2544C170.594 49.1841 170.411 49.1064 170.232 49.0215C170.056 48.9365 169.898 48.8311 169.757 48.7051C169.617 48.5762 169.504 48.4194 169.419 48.2349C169.334 48.0503 169.292 47.8232 169.292 47.5537V47.4351C169.292 47.2212 169.331 47.0205 169.41 46.833C169.492 46.6455 169.604 46.4814 169.744 46.3408C169.885 46.2002 170.049 46.0903 170.236 46.0112C170.427 45.9292 170.629 45.8882 170.843 45.8882H171.247C171.461 45.8882 171.662 45.9292 171.849 46.0112C172.037 46.0903 172.201 46.2002 172.341 46.3408C172.482 46.4814 172.592 46.6455 172.671 46.833C172.753 47.0205 172.794 47.2212 172.794 47.4351V47.5977L172.227 47.6899V47.4351C172.227 47.2944 172.201 47.1641 172.148 47.0439C172.095 46.9209 172.023 46.814 171.933 46.7231C171.842 46.6323 171.735 46.5605 171.612 46.5078C171.492 46.4551 171.361 46.4287 171.221 46.4287H170.869C170.729 46.4287 170.597 46.4551 170.474 46.5078C170.354 46.5605 170.247 46.6323 170.153 46.7231C170.062 46.814 169.99 46.9209 169.938 47.0439C169.885 47.1641 169.858 47.2944 169.858 47.4351V47.5537C169.858 47.7559 169.901 47.9258 169.986 48.0635C170.071 48.2012 170.184 48.3198 170.324 48.4194C170.465 48.5161 170.623 48.6011 170.799 48.6743C170.978 48.7446 171.161 48.8179 171.348 48.894C171.536 48.9673 171.717 49.0493 171.893 49.1401C172.072 49.228 172.231 49.3379 172.372 49.4697C172.513 49.5986 172.625 49.7568 172.71 49.9443C172.795 50.1318 172.838 50.3604 172.838 50.6299V50.8188ZM174.06 52.2778V45.9761H174.626V52.2778H174.06ZM179.32 52.2778L176.692 47.6899L176.639 47.4175V52.2778H176.072V45.9761H176.367L178.995 50.5684L179.052 50.8364V45.9761H179.619V52.2778H179.32ZM184.519 50.8188C184.519 51.0327 184.478 51.2334 184.396 51.4209C184.316 51.6084 184.207 51.7725 184.066 51.9131C183.925 52.0537 183.761 52.165 183.574 52.2471C183.386 52.3262 183.186 52.3657 182.972 52.3657H182.523C182.31 52.3657 182.107 52.3262 181.917 52.2471C181.729 52.165 181.565 52.0537 181.425 51.9131C181.284 51.7725 181.173 51.6084 181.091 51.4209C181.012 51.2334 180.972 51.0327 180.972 50.8188V47.4351C180.972 47.2212 181.012 47.0205 181.091 46.833C181.173 46.6455 181.284 46.4814 181.425 46.3408C181.565 46.2002 181.729 46.0903 181.917 46.0112C182.107 45.9292 182.31 45.8882 182.523 45.8882H182.972C183.186 45.8882 183.386 45.9292 183.574 46.0112C183.761 46.0903 183.925 46.2002 184.066 46.3408C184.207 46.4814 184.316 46.6455 184.396 46.833C184.478 47.0205 184.519 47.2212 184.519 47.4351V47.6899L183.952 47.7778V47.4351C183.952 47.2944 183.925 47.1641 183.873 47.0439C183.82 46.9209 183.748 46.814 183.657 46.7231C183.566 46.6323 183.459 46.5605 183.336 46.5078C183.216 46.4551 183.086 46.4287 182.945 46.4287H182.55C182.409 46.4287 182.277 46.4551 182.154 46.5078C182.034 46.5605 181.927 46.6323 181.833 46.7231C181.743 46.814 181.671 46.9209 181.618 47.0439C181.565 47.1641 181.539 47.2944 181.539 47.4351V50.8188C181.539 50.9595 181.565 51.0913 181.618 51.2144C181.671 51.3345 181.743 51.4414 181.833 51.5352C181.927 51.626 182.034 51.6978 182.154 51.7505C182.277 51.8032 182.409 51.8296 182.55 51.8296H182.945C183.086 51.8296 183.216 51.8032 183.336 51.7505C183.459 51.6978 183.566 51.626 183.657 51.5352C183.748 51.4414 183.82 51.3345 183.873 51.2144C183.925 51.0913 183.952 50.9595 183.952 50.8188V50.4761L184.519 50.5684V50.8188ZM185.784 52.2778V45.9761H189.331V46.5166H186.351V48.8589H188.764V49.3994H186.351V51.7373H189.331V52.2778H185.784ZM192.49 52.2778V51.7373H193.993V46.5166L192.49 47.1494V46.6089L193.993 45.9761H194.56V51.7373H196.063V52.2778H192.49ZM200.365 50.8188C200.365 51.0327 200.324 51.2334 200.242 51.4209C200.163 51.6084 200.053 51.7725 199.913 51.9131C199.772 52.0537 199.608 52.165 199.42 52.2471C199.233 52.3262 199.032 52.3657 198.818 52.3657H198.546C198.332 52.3657 198.131 52.3262 197.944 52.2471C197.756 52.165 197.592 52.0537 197.452 51.9131C197.311 51.7725 197.2 51.6084 197.118 51.4209C197.039 51.2334 196.999 51.0327 196.999 50.8188V50.6562L197.566 50.5684V50.8188C197.566 50.9595 197.592 51.0913 197.645 51.2144C197.698 51.3345 197.77 51.4414 197.86 51.5352C197.951 51.626 198.057 51.6978 198.177 51.7505C198.3 51.8032 198.432 51.8296 198.572 51.8296H198.788C198.928 51.8296 199.059 51.8032 199.179 51.7505C199.302 51.6978 199.409 51.626 199.5 51.5352C199.593 51.4414 199.667 51.3345 199.719 51.2144C199.772 51.0913 199.798 50.9595 199.798 50.8188V49.2544C199.652 49.4126 199.479 49.54 199.28 49.6367C199.081 49.7305 198.867 49.7773 198.638 49.7773H198.546C198.332 49.7773 198.131 49.7378 197.944 49.6587C197.756 49.5767 197.592 49.4653 197.452 49.3247C197.311 49.1841 197.2 49.02 197.118 48.8325C197.039 48.6421 196.999 48.4399 196.999 48.2261V47.4351C196.999 47.2212 197.039 47.0205 197.118 46.833C197.2 46.6455 197.311 46.4814 197.452 46.3408C197.592 46.2002 197.756 46.0903 197.944 46.0112C198.131 45.9292 198.332 45.8882 198.546 45.8882H198.818C199.032 45.8882 199.233 45.9292 199.42 46.0112C199.608 46.0903 199.772 46.2002 199.913 46.3408C200.053 46.4814 200.163 46.6455 200.242 46.833C200.324 47.0205 200.365 47.2212 200.365 47.4351V50.8188ZM199.798 47.4351C199.798 47.2944 199.772 47.1641 199.719 47.0439C199.667 46.9209 199.593 46.814 199.5 46.7231C199.409 46.6323 199.302 46.5605 199.179 46.5078C199.059 46.4551 198.928 46.4287 198.788 46.4287H198.572C198.432 46.4287 198.3 46.4551 198.177 46.5078C198.057 46.5605 197.951 46.6323 197.86 46.7231C197.77 46.814 197.698 46.9209 197.645 47.0439C197.592 47.1641 197.566 47.2944 197.566 47.4351V48.2261C197.566 48.3667 197.592 48.4985 197.645 48.6216C197.698 48.7417 197.77 48.8486 197.86 48.9424C197.951 49.0332 198.057 49.105 198.177 49.1577C198.3 49.2104 198.432 49.2368 198.572 49.2368H198.788C198.928 49.2368 199.059 49.2104 199.179 49.1577C199.302 49.105 199.409 49.0332 199.5 48.9424C199.593 48.8486 199.667 48.7417 199.719 48.6216C199.772 48.4985 199.798 48.3667 199.798 48.2261V47.4351ZM204.997 50.8188C204.997 51.0327 204.956 51.2334 204.874 51.4209C204.795 51.6084 204.685 51.7725 204.544 51.9131C204.404 52.0537 204.24 52.165 204.052 52.2471C203.865 52.3262 203.664 52.3657 203.45 52.3657H203.178C202.964 52.3657 202.763 52.3262 202.576 52.2471C202.388 52.165 202.224 52.0537 202.083 51.9131C201.943 51.7725 201.832 51.6084 201.75 51.4209C201.67 51.2334 201.631 51.0327 201.631 50.8188V50.6562L202.198 50.5684V50.8188C202.198 50.9595 202.224 51.0913 202.277 51.2144C202.33 51.3345 202.401 51.4414 202.492 51.5352C202.583 51.626 202.688 51.6978 202.809 51.7505C202.932 51.8032 203.063 51.8296 203.204 51.8296H203.419C203.56 51.8296 203.69 51.8032 203.811 51.7505C203.934 51.6978 204.041 51.626 204.131 51.5352C204.225 51.4414 204.298 51.3345 204.351 51.2144C204.404 51.0913 204.43 50.9595 204.43 50.8188V49.2544C204.284 49.4126 204.111 49.54 203.912 49.6367C203.712 49.7305 203.499 49.7773 203.27 49.7773H203.178C202.964 49.7773 202.763 49.7378 202.576 49.6587C202.388 49.5767 202.224 49.4653 202.083 49.3247C201.943 49.1841 201.832 49.02 201.75 48.8325C201.67 48.6421 201.631 48.4399 201.631 48.2261V47.4351C201.631 47.2212 201.67 47.0205 201.75 46.833C201.832 46.6455 201.943 46.4814 202.083 46.3408C202.224 46.2002 202.388 46.0903 202.576 46.0112C202.763 45.9292 202.964 45.8882 203.178 45.8882H203.45C203.664 45.8882 203.865 45.9292 204.052 46.0112C204.24 46.0903 204.404 46.2002 204.544 46.3408C204.685 46.4814 204.795 46.6455 204.874 46.833C204.956 47.0205 204.997 47.2212 204.997 47.4351V50.8188ZM204.43 47.4351C204.43 47.2944 204.404 47.1641 204.351 47.0439C204.298 46.9209 204.225 46.814 204.131 46.7231C204.041 46.6323 203.934 46.5605 203.811 46.5078C203.69 46.4551 203.56 46.4287 203.419 46.4287H203.204C203.063 46.4287 202.932 46.4551 202.809 46.5078C202.688 46.5605 202.583 46.6323 202.492 46.7231C202.401 46.814 202.33 46.9209 202.277 47.0439C202.224 47.1641 202.198 47.2944 202.198 47.4351V48.2261C202.198 48.3667 202.224 48.4985 202.277 48.6216C202.33 48.7417 202.401 48.8486 202.492 48.9424C202.583 49.0332 202.688 49.105 202.809 49.1577C202.932 49.2104 203.063 49.2368 203.204 49.2368H203.419C203.56 49.2368 203.69 49.2104 203.811 49.1577C203.934 49.105 204.041 49.0332 204.131 48.9424C204.225 48.8486 204.298 48.7417 204.351 48.6216C204.404 48.4985 204.43 48.3667 204.43 48.2261V47.4351ZM208.908 51.188V52.2778H208.341V51.188H205.81V50.9199L208.609 45.9761H208.908V50.6475H209.449V51.188H208.908ZM208.341 47.5273L206.605 50.6475H208.341V47.5273Z" fill="white"/>
</svg>
