<svg width="137" height="28" viewBox="0 0 137 28" fill="none" xmlns="http://www.w3.org/2000/svg">
<path d="M2.03616 4.07033C2.57856 4.07033 3.08997 3.85847 3.47396 3.47439C3.68403 3.26427 3.83728 3.01798 3.93543 2.75618C4.03186 2.49956 4.27809 2.32904 4.55187 2.32904H4.56565C4.84632 2.32904 5.10116 2.49095 5.2062 2.74757C5.29574 2.96459 5.4266 3.16437 5.5988 3.33489C5.94662 3.6828 6.40809 3.87398 6.89884 3.87398C7.38958 3.87398 7.85106 3.6828 8.19888 3.33489C8.33664 3.1971 8.45028 3.03865 8.53466 2.86986C8.69652 2.5495 9.00474 2.32904 9.3629 2.32904H9.50065C9.83126 2.32904 10.1515 2.49611 10.3013 2.79063C10.3771 2.93703 10.4752 3.07482 10.5975 3.1971C10.9074 3.50712 11.3207 3.67935 11.7598 3.67935C12.1989 3.67935 12.6121 3.50884 12.9221 3.1971C13.0047 3.11443 13.0753 3.02659 13.1356 2.93358C13.3922 2.53917 13.8536 2.32904 14.3237 2.32904H14.3358C14.7938 2.32904 15.2002 2.57017 15.4808 2.93014C15.517 2.97492 15.5549 3.0197 15.5962 3.06104C15.87 3.33489 16.2333 3.48473 16.6208 3.48473C17.0082 3.48473 17.3715 3.33317 17.6453 3.05932C17.6866 3.01798 17.7245 2.97492 17.7607 2.93014C18.0758 2.52884 18.5855 2.32904 19.0969 2.32904H19.2828C19.7839 2.32904 20.2402 2.56156 20.5915 2.91808C20.5932 2.91981 20.5949 2.92153 20.5966 2.92325C20.8343 3.16093 21.1494 3.29011 21.4834 3.29011C21.8192 3.29011 22.1343 3.15921 22.3702 2.92325C22.6078 2.68557 22.737 2.37038 22.737 2.03625C22.737 1.70039 22.6061 1.3852 22.3702 1.14924C22.1326 0.911561 21.8175 0.78239 21.4834 0.78239C21.1477 0.78239 20.8325 0.913283 20.5966 1.14924C20.5949 1.15096 20.5932 1.15269 20.5915 1.15441C20.2402 1.51094 19.7822 1.74345 19.2828 1.74345H19.0969C18.5855 1.74345 18.0758 1.54366 17.7607 1.14236C17.7245 1.09758 17.6866 1.05452 17.6453 1.01146C17.3715 0.737607 17.0082 0.587765 16.6208 0.587765C16.2333 0.587765 15.87 0.739329 15.5962 1.01146C15.5549 1.05279 15.5153 1.09758 15.4808 1.14236C15.1985 1.50233 14.7921 1.74345 14.3358 1.74345H14.3237C13.8536 1.74345 13.3922 1.5316 13.1356 1.13891C13.0753 1.0459 13.003 0.956342 12.9221 0.875392C12.6121 0.565372 12.1989 0.393141 11.7598 0.393141C11.3207 0.393141 10.9074 0.56365 10.5975 0.875392C10.4752 0.997678 10.3754 1.13547 10.3013 1.28187C10.1498 1.57639 9.83126 1.74345 9.50065 1.74345H9.3629C9.00302 1.74345 8.69479 1.52299 8.53294 1.20264C8.44684 1.03213 8.33491 0.875394 8.19716 0.737607C7.84933 0.389696 7.38786 0.198516 6.89712 0.198516C6.40637 0.198516 5.9449 0.389696 5.59707 0.737607C5.42488 0.909841 5.29229 1.11135 5.20276 1.33009C5.09944 1.58327 4.84632 1.74517 4.57081 1.74517H4.56909C4.28326 1.74517 4.02841 1.56777 3.9251 1.30081C3.82695 1.0459 3.67542 0.806499 3.47051 0.601542C3.08653 0.217461 2.57512 0.00561523 2.03272 0.00561523C1.38528 0.00561523 0.786053 0.305301 0.390013 0.839225C-0.130004 1.54194 -0.130004 2.53572 0.390013 3.23844C0.789496 3.76891 1.39044 4.07033 2.03616 4.07033Z" fill="white"/>
<path d="M2.03539 8.93244C2.57779 8.93244 3.0892 8.72059 3.47319 8.33651C3.68326 8.12638 3.83651 7.88009 3.93466 7.61829C4.03108 7.36167 4.27732 7.19116 4.5511 7.19116H4.56488C4.84555 7.19116 5.10039 7.35306 5.20543 7.60968C5.29497 7.8267 5.42583 8.02649 5.59802 8.197C5.94585 8.54491 6.40732 8.73609 6.89807 8.73609C7.38881 8.73609 7.85029 8.54491 8.19811 8.197C8.33587 8.05921 8.44951 7.90076 8.53388 7.73197C8.69574 7.41161 9.00397 7.19116 9.36212 7.19116H9.48955C9.82532 7.19116 10.149 7.35995 10.304 7.65791C10.3798 7.80431 10.4779 7.94037 10.5985 8.05921C10.9084 8.36923 11.3217 8.54147 11.7607 8.54147C12.1998 8.54147 12.6131 8.37095 12.923 8.05921C13.0022 7.97998 13.0728 7.89215 13.1348 7.79914C13.3948 7.40128 13.8615 7.18943 14.335 7.18943H14.3384C14.7965 7.18943 15.2028 7.43056 15.4835 7.79053C15.5197 7.83531 15.5576 7.88009 15.5989 7.92143C15.8727 8.19528 16.236 8.34512 16.6234 8.34512C17.0109 8.34512 17.3742 8.19355 17.648 7.92143C17.6893 7.88009 17.7272 7.83703 17.7633 7.79053C18.0784 7.38922 18.5881 7.18943 19.0995 7.18943H19.2855C19.7866 7.18943 20.2429 7.42195 20.5942 7.77847C20.5959 7.78019 20.5976 7.78192 20.5993 7.78364C20.8369 8.02132 21.1521 8.15049 21.4861 8.15049C21.9114 8.15049 22.304 7.94037 22.5468 7.56835C22.8085 7.16705 22.8085 6.62623 22.5485 6.2232C22.3057 5.85118 21.9131 5.63933 21.4861 5.63933C21.1503 5.63933 20.8352 5.77023 20.5993 6.00619C20.5976 6.00791 20.5959 6.00964 20.5942 6.01136C20.2429 6.36788 19.7849 6.60039 19.2855 6.60039H19.1013C18.5898 6.60039 18.0802 6.4006 17.7651 5.9993C17.7289 5.95452 17.691 5.91146 17.6497 5.8684C17.3759 5.59455 17.0126 5.44471 16.6251 5.44471C16.2377 5.44471 15.8744 5.59627 15.6006 5.8684C15.5593 5.90974 15.5197 5.95452 15.4852 5.9993C15.2028 6.35927 14.7965 6.60039 14.3402 6.60039H14.3384C13.8632 6.60039 13.3966 6.38855 13.1366 5.99069C13.0763 5.89768 13.0057 5.81157 12.9248 5.73062C12.6148 5.4206 12.2016 5.24837 11.7625 5.24837C11.3234 5.24837 10.9101 5.41887 10.6002 5.73062C10.4796 5.85118 10.3815 5.98552 10.3057 6.13192C10.1508 6.42988 9.82704 6.59867 9.49127 6.59867H9.36557C9.00569 6.59867 8.69747 6.37821 8.53733 6.05786C8.45123 5.88735 8.33931 5.73062 8.20155 5.59283C7.85373 5.24492 7.39226 5.05374 6.90151 5.05374C6.41077 5.05374 5.9493 5.24492 5.60147 5.59283C5.42928 5.76507 5.29669 5.96657 5.20715 6.18531C5.10384 6.43849 4.85071 6.60039 4.57521 6.60039H4.57349C4.28765 6.60039 4.03281 6.423 3.92949 6.15603C3.83134 5.90113 3.67981 5.66172 3.47491 5.45677C3.09092 5.07269 2.57951 4.86084 2.03711 4.86084C1.38967 4.86084 0.790447 5.16053 0.394407 5.69445C-0.12561 6.39716 -0.12561 7.39095 0.394407 8.09366C0.788725 8.63275 1.38967 8.93244 2.03539 8.93244Z" fill="white"/>
<path d="M2.03552 13.7962C2.57792 13.7962 3.08933 13.5844 3.47332 13.2003C3.6765 12.9971 3.82975 12.7577 3.92962 12.4976C4.03121 12.2306 4.28606 12.055 4.5719 12.055C4.84568 12.055 5.0988 12.2151 5.20384 12.4683C5.29338 12.6871 5.42596 12.8886 5.59815 13.0608C5.94598 13.4087 6.40745 13.5999 6.8982 13.5999C7.38894 13.5999 7.85042 13.4087 8.19824 13.0608C8.336 12.923 8.44964 12.7646 8.53401 12.5958C8.69588 12.2754 9.0041 12.055 9.36225 12.055H9.48968C9.82545 12.055 10.1492 12.2238 10.3041 12.5217C10.3799 12.6681 10.4781 12.8042 10.5986 12.923C10.9085 13.233 11.3218 13.4053 11.7609 13.4053C12.2 13.4053 12.6132 13.2348 12.9232 12.923C13.0024 12.8438 13.073 12.756 13.135 12.6629C13.395 12.2668 13.8616 12.0532 14.3351 12.0532H14.3386C14.7966 12.0532 15.203 12.2944 15.4837 12.6543C15.5198 12.6991 15.5577 12.7439 15.599 12.7852C15.8728 13.0591 16.2361 13.2089 16.6236 13.2089C17.011 13.2089 17.3743 13.0574 17.6481 12.7852C17.6894 12.7439 17.7273 12.7008 17.7635 12.6543C18.0786 12.253 18.5883 12.0532 19.0997 12.0532H19.2856C19.7867 12.0532 20.243 12.2858 20.5943 12.6406C20.596 12.6423 20.5977 12.644 20.5995 12.6457C20.8371 12.8834 21.1522 13.0126 21.4862 13.0126C21.9115 13.0126 22.3041 12.8025 22.5469 12.4304C22.8087 12.0291 22.8087 11.4883 22.5487 11.0853C22.3059 10.7133 21.9133 10.5014 21.4862 10.5014C21.1505 10.5014 20.8354 10.6323 20.5995 10.8683C20.5977 10.87 20.596 10.8717 20.5943 10.8734C20.243 11.23 19.785 11.4625 19.2856 11.4625H19.1014C18.59 11.4625 18.0803 11.2627 17.7652 10.8614C17.729 10.8166 17.6911 10.7736 17.6498 10.7305C17.376 10.4566 17.0127 10.3068 16.6253 10.3068C16.2379 10.3068 15.8745 10.4584 15.6007 10.7305C15.5594 10.7718 15.5198 10.8166 15.4854 10.8614C15.203 11.2214 14.7966 11.4625 14.3403 11.4625H14.3386C13.8633 11.4625 13.3984 11.2506 13.1367 10.8528C13.0764 10.7598 13.0058 10.6737 12.9266 10.5927C12.6167 10.2827 12.2034 10.1105 11.7643 10.1105C11.3252 10.1105 10.912 10.281 10.602 10.5927C10.4815 10.7133 10.3833 10.8476 10.3076 10.994C10.1526 11.292 9.82889 11.4608 9.49312 11.4608H9.36742C9.00754 11.4608 8.69932 11.2403 8.53746 10.9182C8.45136 10.7477 8.33944 10.591 8.20168 10.4532C7.85386 10.1053 7.39239 9.91411 6.90164 9.91411C6.4109 9.91411 5.94943 10.1053 5.6016 10.4532C5.42941 10.6254 5.29682 10.8269 5.20728 11.0457C5.10397 11.2989 4.85084 11.4608 4.57534 11.4608C4.2895 11.4608 4.03466 11.2851 3.93307 11.0181C3.8332 10.758 3.67994 10.5186 3.47504 10.3154C3.09105 9.93133 2.57964 9.71948 2.03724 9.71948C1.49484 9.71948 0.983431 9.93133 0.599445 10.3154C0.215458 10.6995 0.00366211 11.211 0.00366211 11.7536C0.00366211 12.2961 0.215458 12.8076 0.599445 13.1917C0.981709 13.5844 1.49312 13.7962 2.03552 13.7962Z" fill="white"/>
<path d="M21.4895 15.372C21.1537 15.372 20.8386 15.5029 20.6027 15.7389C20.601 15.7406 20.5993 15.7423 20.5976 15.744C20.2463 16.1005 19.7883 16.3331 19.2889 16.3331H19.1047C18.5933 16.3331 18.0836 16.1333 17.7685 15.732C17.7323 15.6872 17.6944 15.6441 17.6531 15.6011C17.3793 15.3272 17.016 15.1774 16.6286 15.1774C16.2411 15.1774 15.8778 15.3289 15.604 15.6011C15.5627 15.6424 15.5231 15.6872 15.4886 15.732C15.2063 16.0919 14.7999 16.3331 14.3436 16.3331H14.3315C13.8614 16.3331 13.4 16.1212 13.1434 15.7268C13.0831 15.6338 13.0108 15.5442 12.9299 15.4633C12.6199 15.1533 12.2067 14.9828 11.7676 14.9828C11.3285 14.9828 10.9152 15.1533 10.6053 15.465C10.4831 15.5873 10.3832 15.7251 10.3091 15.8715C10.1576 16.166 9.83733 16.3331 9.50845 16.3331H9.37242C9.01254 16.3331 8.70431 16.1126 8.54245 15.7905C8.45636 15.62 8.34443 15.4633 8.20668 15.3255C7.85886 14.9776 7.39738 14.7864 6.90664 14.7864C6.41589 14.7864 5.95442 14.9776 5.6066 15.3255C5.43268 15.4995 5.30182 15.701 5.214 15.9163C5.10896 16.1712 4.85756 16.3331 4.58206 16.3331H4.58034C4.2945 16.3331 4.03965 16.1557 3.93634 15.8887C3.83819 15.6338 3.68666 15.3944 3.48176 15.1894C3.09777 14.8054 2.58636 14.5935 2.04396 14.5935C1.39652 14.5935 0.795574 14.8932 0.399534 15.4288C-0.120483 16.1316 -0.120483 17.1253 0.399534 17.8281C0.795574 18.362 1.39652 18.6617 2.04224 18.6617C2.58464 18.6617 3.09605 18.4498 3.48003 18.0657C3.69011 17.8556 3.84336 17.611 3.94151 17.3492C4.03793 17.0909 4.28417 16.9221 4.55967 16.9221H4.57345C4.85412 16.9221 5.10896 17.0857 5.21572 17.3441C5.30354 17.5576 5.43268 17.7557 5.6066 17.9297C5.95442 18.2776 6.41589 18.4688 6.90664 18.4688C7.39738 18.4688 7.86058 18.2776 8.20668 17.9297C8.34443 17.7919 8.45808 17.6351 8.54245 17.4646C8.70431 17.1443 9.01254 16.9238 9.3707 16.9238H9.50845C9.83905 16.9238 10.1593 17.0909 10.3091 17.3854C10.3849 17.5318 10.4831 17.6696 10.6053 17.7919C10.9152 18.1019 11.3285 18.2741 11.7676 18.2741C12.2067 18.2741 12.6199 18.1036 12.9299 17.7919C13.0125 17.7092 13.0831 17.6214 13.1434 17.5284C13.4 17.1339 13.8614 16.9238 14.3315 16.9238H14.3453C14.8033 16.9238 15.2097 17.165 15.4904 17.5249C15.5265 17.5697 15.5644 17.6145 15.6057 17.6558C15.8795 17.9297 16.2428 18.0795 16.6303 18.0795C17.0177 18.0795 17.381 17.928 17.6548 17.6558C17.6961 17.6145 17.734 17.5714 17.7702 17.5249C18.0853 17.1236 18.595 16.9238 19.1064 16.9238H19.2924C19.7934 16.9238 20.2497 17.1563 20.601 17.5129C20.6027 17.5146 20.6044 17.5163 20.6062 17.518C20.8438 17.7557 21.1589 17.8849 21.493 17.8849C21.8287 17.8849 22.1438 17.754 22.3797 17.518C22.6174 17.2803 22.7465 16.9652 22.7465 16.631C22.7465 16.2952 22.6156 15.98 22.3797 15.744C22.1404 15.5029 21.8253 15.372 21.4895 15.372Z" fill="white"/>
<path d="M16.6266 20.0413C16.2392 20.0413 15.8758 20.1929 15.6021 20.465C15.5607 20.5064 15.5211 20.5512 15.4867 20.5959C15.2043 20.9559 14.7979 21.197 14.3416 21.197H14.3296C13.8595 21.197 13.398 20.9852 13.1414 20.5908C13.0812 20.4978 13.0089 20.4082 12.9279 20.3273C12.618 20.0172 12.2047 19.8467 11.7656 19.8467C11.3265 19.8467 10.9133 20.0172 10.6033 20.3273C10.4811 20.4495 10.3812 20.5873 10.3072 20.7355C10.1556 21.03 9.83709 21.197 9.50648 21.197H9.36873C9.00885 21.197 8.70063 20.9766 8.54049 20.6562C8.4544 20.4857 8.34247 20.329 8.20472 20.1912C7.85689 19.8433 7.39542 19.6521 6.90467 19.6521C6.41393 19.6521 5.95246 19.8433 5.60463 20.1912C5.2568 20.5391 5.06567 21.0007 5.06567 21.4916C5.06567 21.9824 5.2568 22.444 5.60463 22.7919C5.95246 23.1398 6.41393 23.331 6.90467 23.331C7.39542 23.331 7.85689 23.1398 8.20472 22.7919C8.34247 22.6541 8.45612 22.4974 8.54049 22.3269C8.70235 22.0065 9.01057 21.7861 9.36873 21.7861H9.50648C9.83709 21.7861 10.1574 21.9531 10.3072 22.2477C10.3829 22.3941 10.4811 22.5318 10.6033 22.6541C10.9133 22.9641 11.3265 23.1364 11.7656 23.1364C12.2047 23.1364 12.618 22.9659 12.9279 22.6541C13.0106 22.5715 13.0812 22.4836 13.1414 22.3906C13.398 21.9962 13.8595 21.7861 14.3296 21.7861H14.3433C14.8014 21.7861 15.2077 22.0272 15.4884 22.3872C15.5228 22.4319 15.5624 22.475 15.6038 22.5163C15.8776 22.7902 16.2409 22.9418 16.6283 22.9418C17.1053 22.9418 17.5461 22.7127 17.8268 22.3097C18.1643 21.8222 18.1625 21.1523 17.8216 20.6666C17.5375 20.267 17.1001 20.0413 16.6266 20.0413Z" fill="white"/>
<path d="M11.7636 24.7107C11.3245 24.7107 10.9112 24.8812 10.6013 25.1929C9.96071 25.8337 9.96071 26.8774 10.6013 27.5181C10.9112 27.8281 11.3245 27.9986 11.7636 27.9986C12.2026 27.9986 12.6159 27.8281 12.9258 27.5181C13.5664 26.8774 13.5664 25.8337 12.9258 25.1929C12.6159 24.8812 12.2026 24.7107 11.7636 24.7107Z" fill="white"/>
<path d="M34.0089 19.64V27.9985H29.8918V0.000244141H39.5242C48.4162 0.000244141 50.4342 3.91166 50.4342 9.80032C50.4342 15.689 48.4179 19.6417 39.5242 19.6417H34.0089V19.64ZM34.0089 3.70498V15.9353H39.5259C45.1239 15.9353 46.3189 14.3301 46.3189 9.80032C46.3189 5.14657 45.1256 3.70671 39.5259 3.70671H34.0089V3.70498Z" fill="white"/>
<path d="M78.402 0.000244141L69.5927 28.0002H63.0891L54.2798 0.000244141H58.6018L66.0112 24.1715H66.6707L74.08 0.000244141H78.402Z" fill="white"/>
<path d="M87.7704 10.212V28.0002H83.6533V0.000244141H87.7704L98.4325 22.072H99.092L109.754 0.000244141H113.871V28.0002H109.754V10.212H109.095L101.726 25.694H95.798L88.4299 10.212H87.7704Z" fill="white"/>
<path d="M136.499 24.2938V28.0002H120.938V0.000244141H125.056V24.2938H136.499Z" fill="white"/>
</svg>
