<svg width="9" height="346" viewBox="0 0 9 346" fill="none" xmlns="http://www.w3.org/2000/svg">
<g clip-path="url(#clip0_2017_8)">
<path d="M-17.0938 0L55.3444 145.398L-43.6719 346.557L54.8233 547.195L-43.6719 747.312L61.5981 961.5" stroke="#ECECEC" stroke-opacity="0.5"/>
<path d="M-7.71883 0L64.7194 145.398L-34.2969 346.557L64.1982 547.195L-34.2969 747.312L70.973 961.5" stroke="#ECECEC" stroke-opacity="0.5"/>
<path d="M-73.3751 0L-0.936869 145.398L-99.9531 346.557L-1.45801 547.195L-99.9531 747.312L5.31679 961.5" stroke="#ECECEC" stroke-opacity="0.5"/>
<path d="M1.66399 0L74.1022 145.398L-24.9141 346.557L73.5811 547.195L-24.9141 747.312L80.3559 961.5" stroke="#ECECEC" stroke-opacity="0.5"/>
<path d="M-64.0001 0L8.43813 145.398L-90.5781 346.557L7.91699 547.195L-90.5781 747.312L14.6918 961.5" stroke="#ECECEC" stroke-opacity="0.5"/>
<path d="M11.0468 0L83.485 145.398L-15.5312 346.557L82.9639 547.195L-15.5312 747.312L89.7387 961.5" stroke="#ECECEC" stroke-opacity="0.5"/>
<path d="M-54.6173 0L17.8209 145.398L-81.1953 346.557L17.2998 547.195L-81.1953 747.312L24.0746 961.5" stroke="#ECECEC" stroke-opacity="0.5"/>
<path d="M20.4218 0L92.86 145.398L-6.15625 346.557L92.3389 547.195L-6.15625 747.312L99.1137 961.5" stroke="#ECECEC" stroke-opacity="0.5"/>
<path d="M-45.2345 0L27.2038 145.398L-71.8125 346.557L26.6826 547.195L-71.8125 747.312L33.4574 961.5" stroke="#ECECEC" stroke-opacity="0.5"/>
<path d="M29.8124 0L102.251 145.398L3.23438 346.557L101.729 547.195L3.23438 747.312L108.504 961.5" stroke="#ECECEC" stroke-opacity="0.5"/>
<path d="M-35.8595 0L36.5788 145.398L-62.4375 346.557L36.0576 547.195L-62.4375 747.312L42.8324 961.5" stroke="#ECECEC" stroke-opacity="0.5"/>
<path d="M-26.4766 0L45.9616 145.398L-53.0547 346.557L45.4404 547.195L-53.0547 747.312L52.2152 961.5" stroke="#ECECEC" stroke-opacity="0.5"/>
</g>
<defs>
<clipPath id="clip0_2017_8">
<rect width="9" height="346" fill="white"/>
</clipPath>
</defs>
</svg>
