<svg width="794" height="162" viewBox="0 0 794 162" fill="none" xmlns="http://www.w3.org/2000/svg">
<g clip-path="url(#clip0_1423_2897)">
<path d="M160.64 0.595459H0.595703V161.391H160.64V0.595459Z" fill="white" stroke="#15416F" stroke-width="0.87" stroke-miterlimit="10"/>
<path d="M210.326 55.1956L210.188 62.4516H190.837V60.9838C192.167 60.9838 193.026 60.79 193.413 60.4022C193.801 60.0145 193.995 59.3498 193.995 58.4221V44.7686C193.995 44.1316 193.926 43.647 193.801 43.3008C193.677 42.9546 193.372 42.6776 192.915 42.4976C192.444 42.3038 191.751 42.2068 190.837 42.2068V40.739H201.766V42.2068C200.852 42.2068 200.173 42.3038 199.702 42.4838C199.231 42.6638 198.926 42.9269 198.788 43.2731C198.649 43.6193 198.566 44.1178 198.566 44.7686V57.2589C198.566 58.242 198.608 58.9483 198.705 59.3775C198.802 59.8068 199.065 60.1253 199.494 60.3468C199.924 60.5684 200.616 60.6792 201.6 60.6792C202.833 60.6792 203.899 60.5822 204.827 60.4022C205.755 60.2222 206.6 59.7237 207.39 58.9067C208.179 58.0897 208.664 56.8712 208.858 55.1956H210.326Z" fill="white"/>
<path d="M233.196 62.4516H222.959V60.9838C223.832 60.9838 224.455 60.9284 224.857 60.8038C225.259 60.6791 225.453 60.3883 225.453 59.9314C225.453 59.6129 225.383 59.2806 225.259 58.9482L224.234 56.3865H217.183L216.657 57.7989C216.352 58.5882 216.213 59.1559 216.213 59.516C216.213 60.1529 216.463 60.5684 216.961 60.7345C217.46 60.9007 218.042 60.9976 218.693 60.9976V62.4655H211.213V60.9976C211.809 60.9976 212.321 60.8869 212.737 60.6653C213.152 60.4437 213.554 60.0145 213.928 59.3913C214.302 58.7682 214.717 57.882 215.147 56.7465L221.408 40.3374H222.932L229.553 57.2588C230.038 58.4497 230.384 59.2667 230.605 59.6821C230.827 60.0976 231.146 60.4299 231.534 60.6653C231.921 60.9007 232.489 61.0115 233.196 61.0115V62.4793V62.4516ZM223.652 54.8079L220.66 47.2334L217.806 54.8079H223.652Z" fill="white"/>
<path d="M263.046 42.2068C262.27 42.2761 261.702 42.4007 261.342 42.5946C260.982 42.7884 260.705 43.1208 260.497 43.5916C260.29 44.0624 260.013 44.9209 259.666 46.1533L255.151 62.8671H252.92L247.366 47.2473L242.158 62.8671H239.969L234.941 45.6964C234.636 44.6717 234.373 43.9101 234.11 43.4254C233.86 42.9407 233.569 42.6084 233.223 42.4561C232.891 42.3038 232.406 42.2207 231.796 42.2207V40.7529H241.202V42.2207C240.468 42.2207 239.927 42.2761 239.581 42.4007C239.235 42.5115 239.069 42.83 239.069 43.3423C239.069 43.6885 239.193 44.2701 239.443 45.0871L242.615 55.9295L247.712 40.739H249.818L255.206 55.9295L257.935 45.7379C258.129 45.0455 258.226 44.4778 258.226 44.0624C258.226 43.2869 257.976 42.7884 257.492 42.5669C257.007 42.3453 256.383 42.2345 255.622 42.2207V40.7529H263.074V42.2207L263.046 42.2068Z" fill="white"/>
<path d="M296.831 51.5951C296.831 53.5753 296.36 55.417 295.418 57.1479C294.476 58.8788 293.091 60.2497 291.249 61.3021C289.406 62.3406 287.232 62.8668 284.725 62.8668C282.674 62.8668 280.874 62.5345 279.308 61.8698C277.743 61.2052 276.469 60.3189 275.485 59.2111C274.502 58.1034 273.768 56.8848 273.297 55.5555C272.826 54.2261 272.59 52.8968 272.59 51.5674C272.59 49.6288 273.047 47.8148 273.948 46.0839C274.862 44.3668 276.22 42.9821 278.048 41.9297C279.876 40.8773 282.065 40.3511 284.6 40.3511C286.913 40.3511 288.894 40.725 290.515 41.4866C292.135 42.2482 293.41 43.2036 294.31 44.353C295.21 45.5023 295.861 46.7209 296.249 47.981C296.637 49.2411 296.831 50.4458 296.831 51.5951ZM291.637 51.5259C291.637 50.3073 291.526 49.158 291.318 48.064C291.11 46.9701 290.75 45.9869 290.224 45.1146C289.697 44.2283 288.991 43.536 288.077 43.0098C287.162 42.4836 286.04 42.2343 284.711 42.2343C282.868 42.2343 281.442 42.6913 280.403 43.6052C279.364 44.5191 278.671 45.6546 278.297 47.0393C277.923 48.4102 277.743 49.9057 277.743 51.5259C277.743 52.426 277.799 53.3537 277.923 54.323C278.034 55.2924 278.325 56.2894 278.768 57.3141C279.212 58.3388 279.932 59.1973 280.915 59.8897C281.899 60.5959 283.173 60.9421 284.725 60.9421C286.276 60.9421 287.536 60.582 288.492 59.862C289.462 59.1419 290.168 58.2557 290.612 57.2171C291.055 56.1786 291.332 55.1816 291.443 54.2261C291.553 53.2706 291.609 52.3706 291.609 51.5259H291.637Z" fill="white"/>
<path d="M316.763 46.3749H315.254C314.99 45.1702 314.63 44.2839 314.187 43.73C313.744 43.1761 313.245 42.83 312.691 42.7053C312.137 42.5807 311.375 42.5115 310.392 42.5115H306.513V50.1829H308.549C309.505 50.1829 310.156 50.0167 310.502 49.6844C310.849 49.3521 311.043 48.6181 311.112 47.4965H312.58V54.7248H311.07C311.015 53.894 310.918 53.2986 310.779 52.9247C310.641 52.5646 310.392 52.3154 310.045 52.1769C309.699 52.0384 309.173 51.9692 308.48 51.9692H306.513V58.4221C306.513 59.2944 306.693 59.9453 307.04 60.3607C307.386 60.7761 308.217 60.9838 309.519 60.9838H309.962V62.4516H298.812V60.9838C300.141 60.9838 300.986 60.79 301.374 60.4022C301.748 60.0145 301.942 59.3498 301.942 58.4221V44.7686C301.942 44.1455 301.873 43.6608 301.748 43.3146C301.623 42.9684 301.333 42.6915 300.875 42.4976C300.418 42.3038 299.74 42.2068 298.812 42.2068V40.739H316.597L316.763 46.3749Z" fill="white"/>
<path d="M335.934 46.3749H334.424C334.161 45.1702 333.801 44.2839 333.357 43.73C332.914 43.1761 332.416 42.83 331.861 42.7053C331.307 42.5807 330.546 42.5115 329.562 42.5115H325.684V50.1829H327.72C328.676 50.1829 329.327 50.0167 329.673 49.6844C330.019 49.3521 330.213 48.6181 330.282 47.4965H331.751V54.7248H330.241C330.185 53.894 330.088 53.2986 329.95 52.9247C329.811 52.5646 329.562 52.3154 329.216 52.1769C328.869 52.0384 328.343 51.9692 327.65 51.9692H325.684V58.4221C325.684 59.2944 325.864 59.9453 326.21 60.3607C326.556 60.7761 327.387 60.9838 328.689 60.9838H329.133V62.4516H317.982V60.9838C319.312 60.9838 320.157 60.79 320.545 60.4022C320.919 60.0145 321.112 59.3498 321.112 58.4221V44.7686C321.112 44.1455 321.043 43.6608 320.919 43.3146C320.794 42.9684 320.503 42.6915 320.046 42.4976C319.589 42.3038 318.91 42.2068 317.982 42.2068V40.739H335.768L335.934 46.3749Z" fill="white"/>
<path d="M348.028 62.4516H337.001V60.9838C337.916 60.9838 338.608 60.9007 339.079 60.7207C339.55 60.5407 339.855 60.2776 340.007 59.9314C340.146 59.5852 340.229 59.0729 340.229 58.4221V44.7686C340.229 43.827 340.035 43.1623 339.647 42.7884C339.259 42.4007 338.373 42.2068 337.015 42.2068V40.739H348.041V42.2068C347.127 42.2068 346.435 42.3038 345.964 42.4838C345.493 42.6638 345.188 42.9269 345.036 43.2731C344.897 43.6193 344.814 44.1178 344.814 44.7686V58.4221C344.814 59.0452 344.883 59.5299 345.022 59.876C345.16 60.2222 345.451 60.4992 345.908 60.693C346.365 60.8869 347.072 60.9838 348.028 60.9838V62.4516Z" fill="white"/>
<path d="M370.564 62.23H369.054C368.832 61.3161 368.458 60.4853 367.946 59.7652C367.129 60.6099 366.201 61.33 365.162 61.9393C364.109 62.5485 362.696 62.8532 360.909 62.8532C358.956 62.8532 357.142 62.3824 355.465 61.4269C353.789 60.4714 352.46 59.1559 351.462 57.4527C350.465 55.7495 349.966 53.8247 349.966 51.6922C349.966 50.169 350.229 48.7289 350.77 47.3442C351.31 45.9594 352.072 44.7547 353.083 43.7023C354.08 42.6499 355.272 41.8329 356.657 41.2375C358.042 40.642 359.552 40.3374 361.2 40.3374C363.915 40.3374 366.159 41.2236 367.932 42.9961C368.168 42.5391 368.403 41.8745 368.625 40.9882H370.065L370.315 48.9781H368.777C368.5 47.6211 368.001 46.4164 367.267 45.364C366.547 44.3116 365.674 43.4946 364.677 42.9407C363.68 42.373 362.641 42.096 361.546 42.096C360.327 42.096 359.233 42.4284 358.264 43.093C357.294 43.7577 356.532 44.7824 355.978 46.1394C355.424 47.5103 355.147 49.2135 355.147 51.2491C355.147 53.2847 355.382 54.891 355.84 56.2065C356.297 57.5219 356.865 58.519 357.543 59.1975C358.222 59.876 358.901 60.333 359.579 60.5684C360.258 60.8038 360.909 60.9284 361.505 60.9284C362.821 60.9284 363.998 60.5822 365.051 59.876C366.104 59.1698 366.963 58.2836 367.641 57.2035C368.32 56.1372 368.763 55.071 368.985 54.0047H370.522V62.2023L370.564 62.23Z" fill="white"/>
<path d="M392.644 55.3064L392.464 62.4516H373.113V60.9838C374.443 60.9838 375.301 60.79 375.689 60.4022C376.077 60.0145 376.271 59.3498 376.271 58.4221V44.7686C376.271 44.1455 376.216 43.6608 376.091 43.3146C375.966 42.9684 375.675 42.6915 375.232 42.4976C374.775 42.3038 374.082 42.2068 373.127 42.2068V40.739H391.148L391.439 46.3749H389.97C389.638 45.1286 389.264 44.2285 388.821 43.6885C388.391 43.1484 387.907 42.8161 387.366 42.6915C386.826 42.5669 386.023 42.5115 384.942 42.5115H380.87V50.1829H383.086C383.848 50.1829 384.416 50.1137 384.79 49.989C385.164 49.8506 385.427 49.6013 385.579 49.2274C385.732 48.8536 385.829 48.272 385.884 47.4688H387.422V54.6971H385.953C385.912 53.894 385.801 53.3124 385.635 52.9247C385.469 52.5369 385.192 52.2877 384.831 52.1631C384.457 52.0384 383.903 51.9692 383.142 51.9692H380.898V57.0789C380.898 57.9374 380.925 58.5605 380.967 58.9483C381.008 59.3498 381.119 59.6683 381.313 59.9314C381.493 60.1945 381.798 60.3884 382.227 60.4992C382.643 60.6099 383.252 60.6792 384.028 60.6792H385.773C386.508 60.6792 387.214 60.5822 387.879 60.4022C388.544 60.2222 389.195 59.7376 389.846 58.9621C390.483 58.1867 390.94 56.9681 391.189 55.3203H392.699L392.644 55.3064Z" fill="white"/>
<path d="M410.9 56.2202C410.9 56.8987 410.762 57.6049 410.471 58.3526C410.18 59.1004 409.751 59.8205 409.169 60.5128C408.587 61.2052 407.853 61.7591 406.966 62.1884C406.08 62.6176 405.055 62.8392 403.891 62.8392C402.728 62.8392 401.592 62.5899 400.456 62.0914C399.32 61.5929 398.351 60.8452 397.561 59.8482C397.215 60.6375 396.993 61.3714 396.91 62.036H395.442V54.6H396.91C397.173 55.6663 397.547 56.6771 398.018 57.6049C398.489 58.5465 399.154 59.3497 400.013 60.0282C400.872 60.7067 401.924 61.039 403.171 61.039C404.265 61.039 405.138 60.7344 405.789 60.139C406.44 59.5435 406.773 58.7819 406.773 57.8818C406.773 57.3695 406.676 56.9264 406.468 56.5387C406.26 56.1509 405.969 55.8047 405.581 55.5001C405.193 55.1955 404.667 54.8631 404.002 54.5169C403.337 54.1708 402.575 53.8107 401.717 53.423C400.401 52.7999 399.32 52.1767 398.475 51.5536C397.63 50.9305 396.993 50.3073 396.564 49.7258C396.134 49.1442 395.83 48.5764 395.663 48.0364C395.497 47.4963 395.414 46.9563 395.414 46.4162C395.414 45.4469 395.677 44.4915 396.204 43.536C396.73 42.5805 397.492 41.8189 398.503 41.2096C399.514 40.6004 400.678 40.3096 402.008 40.3096C403.019 40.3096 403.988 40.5311 404.903 40.9881C405.817 41.4451 406.62 42.0682 407.285 42.8575C407.479 42.4144 407.659 41.7774 407.811 40.9604H409.321V47.0117H407.811C406.745 43.716 404.889 42.0682 402.229 42.0682C401.273 42.0682 400.498 42.3174 399.916 42.8298C399.334 43.3421 399.043 43.993 399.043 44.7961C399.043 45.4331 399.223 45.9731 399.583 46.4439C399.944 46.9148 400.428 47.3025 401.01 47.6348C401.606 47.9671 402.562 48.438 403.891 49.0611C405.498 49.8227 406.745 50.4735 407.645 51.0274C408.546 51.5813 409.307 52.2875 409.931 53.1322C410.554 53.9769 410.873 55.0016 410.873 56.1925L410.9 56.2202Z" fill="white"/>
<path d="M445.669 51.5951C445.669 53.5753 445.198 55.417 444.256 57.1479C443.314 58.8788 441.929 60.2497 440.086 61.3021C438.244 62.3406 436.069 62.8668 433.562 62.8668C431.512 62.8668 429.711 62.5345 428.146 61.8698C426.581 61.2052 425.306 60.3189 424.323 59.2111C423.339 58.1034 422.605 56.8848 422.12 55.5555C421.65 54.2261 421.414 52.8968 421.414 51.5674C421.414 49.6288 421.871 47.8148 422.772 46.0839C423.672 44.3668 425.043 42.9821 426.872 41.9297C428.7 40.8773 430.889 40.3511 433.424 40.3511C435.737 40.3511 437.718 40.725 439.338 41.4866C440.959 42.2482 442.233 43.2036 443.134 44.353C444.034 45.5023 444.685 46.7209 445.087 47.981C445.489 49.2411 445.669 50.4458 445.669 51.5951ZM440.488 51.5259C440.488 50.3073 440.391 49.158 440.183 48.064C439.975 46.9701 439.601 45.9869 439.089 45.1146C438.563 44.2283 437.842 43.536 436.942 43.0098C436.028 42.4974 434.906 42.2343 433.576 42.2343C431.734 42.2343 430.307 42.6913 429.268 43.6052C428.243 44.5191 427.537 45.6546 427.163 47.0393C426.789 48.4102 426.608 49.9057 426.608 51.5259C426.608 52.426 426.664 53.3537 426.789 54.323C426.913 55.2924 427.19 56.2894 427.634 57.3141C428.077 58.3388 428.797 59.1973 429.781 59.8897C430.764 60.5959 432.038 60.9421 433.59 60.9421C435.141 60.9421 436.402 60.582 437.357 59.862C438.327 59.1419 439.034 58.2557 439.477 57.2171C439.92 56.1786 440.197 55.1816 440.308 54.2261C440.419 53.2706 440.474 52.3706 440.474 51.5259H440.488Z" fill="white"/>
<path d="M465.615 46.3749H464.105C463.842 45.1702 463.482 44.2839 463.039 43.73C462.595 43.1761 462.097 42.83 461.543 42.7053C460.989 42.5807 460.227 42.5115 459.243 42.5115H455.365V50.1829H457.401C458.357 50.1829 459.008 50.0167 459.354 49.6844C459.7 49.3521 459.894 48.6181 459.964 47.4965H461.432V54.7248H459.922C459.867 53.894 459.77 53.2986 459.631 52.9247C459.493 52.5646 459.243 52.3154 458.897 52.1769C458.551 52.0384 458.024 51.9692 457.332 51.9692H455.365V58.4221C455.365 59.2944 455.545 59.9453 455.891 60.3607C456.237 60.7761 457.068 60.9838 458.371 60.9838H458.814V62.4516H447.663V60.9838C448.993 60.9838 449.838 60.79 450.226 60.4022C450.6 60.0145 450.794 59.3498 450.794 58.4221V44.7686C450.794 44.1455 450.724 43.6608 450.6 43.3146C450.475 42.9684 450.184 42.6915 449.727 42.4976C449.27 42.3038 448.591 42.2068 447.663 42.2068V40.739H465.449L465.615 46.3749Z" fill="white"/>
<path d="M229.192 117.356C229.192 120.167 228.472 122.466 227.045 124.252C225.618 126.039 223.804 127.396 221.615 128.323C219.427 129.251 217.28 129.86 215.174 130.151C213.069 130.442 211.06 130.594 209.107 130.594H183.966V127.188C186.113 127.188 187.692 126.966 188.717 126.523C189.742 126.08 190.407 125.457 190.712 124.64C191.017 123.823 191.169 122.701 191.169 121.275V89.6339C191.169 87.4183 190.712 85.8812 189.798 85.0088C188.883 84.1503 186.944 83.721 183.952 83.721V80.2454C187.526 80.1761 190.933 80.093 194.161 80.0238C197.388 79.9546 200.048 79.8992 202.126 79.8576C204.203 79.8161 205.672 79.8022 206.503 79.8022H207.874C210.437 79.8022 213.124 80.0653 215.922 80.5915C218.72 81.1177 221.269 82.3225 223.582 84.1918C225.882 86.0612 227.045 88.7615 227.045 92.2925C227.045 94.9235 226.103 97.1945 224.233 99.0916C222.363 100.989 219.288 102.553 215.022 103.786C217.931 104.298 220.466 105.171 222.626 106.389C224.787 107.608 226.422 109.159 227.53 111.028C228.638 112.897 229.192 115.002 229.192 117.356ZM216.476 92.5833C216.476 90.8524 216.061 89.3431 215.243 88.0553C214.412 86.7675 213.193 85.7566 211.587 85.0227C209.966 84.3026 207.999 83.9288 205.644 83.9288H201.766V101.889H204.799C208.761 101.889 211.711 101.058 213.623 99.3685C215.534 97.693 216.49 95.422 216.49 92.5695L216.476 92.5833ZM217.848 116.719C217.848 113.313 216.961 110.682 215.202 108.785C213.443 106.901 210.949 105.96 207.75 105.96H201.766V119.004C201.766 120.832 201.876 122.244 202.098 123.269C202.32 124.294 202.874 125.083 203.76 125.637C204.647 126.191 206.06 126.468 207.971 126.468C210.534 126.468 212.819 125.692 214.828 124.141C216.836 122.591 217.848 120.112 217.848 116.705V116.719Z" fill="white"/>
<path d="M272.618 94.7711C270.9 94.7711 269.667 94.965 268.919 95.3666C268.171 95.7681 267.714 96.3359 267.548 97.0698C267.382 97.8037 267.299 98.9392 267.299 100.476V114.642C267.299 117.245 267.216 119.212 267.036 120.527C266.855 121.843 266.384 123.172 265.609 124.501C264.168 127.091 262.16 128.877 259.583 129.846C257.007 130.816 254.527 131.3 252.145 131.3C250.386 131.3 248.571 131.065 246.715 130.608C244.859 130.151 243.113 129.389 241.507 128.323C239.9 127.271 238.681 125.872 237.85 124.155C237.393 123.214 237.046 122.258 236.797 121.303C236.548 120.347 236.409 119.447 236.354 118.616C236.312 117.772 236.284 116.678 236.284 115.321L236.229 99.3131C236.229 97.6514 235.897 96.4744 235.246 95.7958C234.595 95.1173 233.071 94.7711 230.661 94.7711V92.1678H250.053V94.7711C248.405 94.7711 247.186 94.9373 246.369 95.2696C245.551 95.602 245.025 96.0728 244.776 96.6821C244.526 97.2913 244.402 98.1637 244.402 99.2992V115.307C244.402 116.955 244.485 118.395 244.637 119.627C244.803 120.86 245.053 121.94 245.385 122.867C246.022 124.404 247.117 125.623 248.654 126.537C250.192 127.451 251.895 127.908 253.738 127.908C255.719 127.908 257.575 127.423 259.278 126.454C260.982 125.485 262.174 124.224 262.838 122.674C263.365 121.469 263.711 120.209 263.877 118.921C264.044 117.633 264.113 116.082 264.113 114.282V100.449C264.113 99.2023 264.071 98.2745 264.002 97.6652C263.933 97.0559 263.725 96.5297 263.379 96.0589C263.032 95.602 262.478 95.2558 261.689 95.0481C260.899 94.8404 259.819 94.7434 258.447 94.7434V92.1401H272.59V94.7434L272.618 94.7711Z" fill="white"/>
<path d="M314.201 111.706C314.201 114.476 313.73 116.996 312.788 119.226C311.846 121.469 310.627 123.324 309.131 124.82C307.635 126.315 306.042 127.437 304.338 128.199C300.751 129.791 296.36 130.58 291.151 130.58H273.601V127.977C275.222 127.977 276.455 127.825 277.286 127.506C278.117 127.188 278.657 126.731 278.92 126.108C279.169 125.485 279.308 124.598 279.308 123.449V99.1885C279.308 97.5268 278.962 96.3498 278.283 95.6713C277.604 94.9927 276.039 94.6466 273.601 94.6466V91.9879L281.857 91.8217C282.134 91.8217 283.297 91.8079 285.32 91.7663C287.342 91.7248 288.519 91.7109 288.838 91.7109C291.996 91.7109 294.67 91.8771 296.872 92.2233C299.075 92.5695 301.097 93.1095 302.925 93.8711C304.601 94.5496 306.153 95.5051 307.58 96.7237C308.992 97.9422 310.198 99.327 311.167 100.892C312.137 102.456 312.885 104.146 313.425 105.974C313.951 107.802 314.215 109.726 314.215 111.734L314.201 111.706ZM305.017 111.54C305.017 107.552 304.255 104.215 302.731 101.515C301.208 98.8285 299.144 96.9591 296.54 95.9205C295.404 95.4636 294.199 95.1728 292.924 95.062C291.65 94.9374 289.822 94.882 287.439 94.882V121.898C287.439 123.449 287.508 124.571 287.661 125.277C287.813 125.983 288.256 126.523 288.99 126.897C289.725 127.271 290.874 127.451 292.426 127.451C297.024 127.451 300.266 125.845 302.164 122.632C304.061 119.419 305.017 115.722 305.017 111.554V111.54Z" fill="white"/>
<path d="M361.172 111.374C361.172 114.864 360.341 118.145 358.679 121.192C357.017 124.238 354.551 126.689 351.296 128.531C348.041 130.373 344.19 131.3 339.743 131.3C336.114 131.3 332.915 130.719 330.158 129.542C327.401 128.365 325.144 126.8 323.398 124.834C321.653 122.867 320.351 120.721 319.52 118.367C318.675 116.027 318.259 113.673 318.259 111.305C318.259 107.885 319.063 104.658 320.67 101.612C322.276 98.5653 324.7 96.1144 327.928 94.2588C331.155 92.4033 335.02 91.4617 339.522 91.4617C343.622 91.4617 347.113 92.1263 349.98 93.4695C352.847 94.8127 355.091 96.5021 356.698 98.5377C358.305 100.573 359.455 102.72 360.147 104.963C360.84 107.206 361.186 109.339 361.186 111.36L361.172 111.374ZM351.988 111.263C351.988 109.117 351.808 107.068 351.434 105.143C351.06 103.218 350.423 101.473 349.495 99.9085C348.567 98.3438 347.307 97.1114 345.7 96.1975C344.093 95.2835 342.112 94.8266 339.743 94.8266C336.488 94.8266 333.953 95.6297 332.125 97.2499C330.297 98.87 329.064 100.892 328.413 103.315C327.762 105.738 327.429 108.397 327.429 111.263C327.429 112.856 327.526 114.504 327.748 116.221C327.956 117.938 328.454 119.696 329.244 121.51C330.033 123.311 331.308 124.834 333.039 126.08C334.771 127.312 337.029 127.936 339.785 127.936C342.542 127.936 344.744 127.299 346.462 126.025C348.165 124.751 349.426 123.186 350.202 121.344C350.991 119.503 351.476 117.744 351.67 116.055C351.864 114.379 351.975 112.773 351.975 111.263H351.988Z" fill="white"/>
<path d="M417.023 94.7712C415.638 94.882 414.64 95.1174 414.003 95.4497C413.366 95.7821 412.867 96.3775 412.507 97.2222C412.133 98.0669 411.648 99.5762 411.053 101.736L403.06 131.3H399.113L389.278 103.675L380.066 131.3H376.188L367.281 100.919C366.755 99.1054 366.27 97.7622 365.827 96.8898C365.383 96.0175 364.857 95.4497 364.261 95.1728C363.666 94.8958 362.821 94.7573 361.727 94.7573V92.1541H378.363V94.7573C377.06 94.7573 376.105 94.8681 375.495 95.062C374.886 95.2697 374.581 95.8236 374.581 96.7375C374.581 97.3468 374.803 98.3715 375.232 99.8255L380.842 119.018L389.86 92.1541H393.572L403.102 119.018L407.922 100.989C408.269 99.7562 408.435 98.7731 408.435 98.0115C408.435 96.6267 408.005 95.7544 407.147 95.3805C406.288 95.0066 405.18 94.7989 403.85 94.7573V92.1541H417.037V94.7573L417.023 94.7712Z" fill="white"/>
<path d="M436.969 130.594H427.522V129.237C428.326 129.237 428.907 129.182 429.268 129.071C429.628 128.96 429.822 128.683 429.822 128.268C429.822 127.977 429.766 127.672 429.642 127.368L428.7 125H422.189L421.704 126.302C421.427 127.035 421.289 127.562 421.289 127.88C421.289 128.476 421.524 128.85 421.982 129.002C422.439 129.154 422.979 129.237 423.588 129.237V130.594H416.676V129.237C417.23 129.237 417.701 129.14 418.075 128.933C418.463 128.725 418.823 128.337 419.183 127.756C419.53 127.174 419.904 126.357 420.319 125.305L426.095 110.169H427.495L433.603 125.789C434.046 126.897 434.365 127.645 434.573 128.033C434.781 128.42 435.071 128.725 435.432 128.933C435.792 129.14 436.304 129.251 436.969 129.251V130.608V130.594ZM428.146 123.532L425.375 116.539L422.743 123.532H428.146Z" fill="white"/>
<path d="M458.26 111.9C457.304 111.9 456.611 111.997 456.21 112.191C455.794 112.385 455.545 112.662 455.434 113.036C455.337 113.41 455.282 114.019 455.282 114.864V130.76H453.924L440.806 115.168V126.218C440.806 127.049 440.862 127.658 440.959 128.046C441.056 128.42 441.333 128.711 441.748 128.919C442.178 129.126 442.857 129.223 443.798 129.223V130.58H436.346V129.223C437.233 129.223 437.884 129.126 438.272 128.919C438.673 128.711 438.923 128.42 439.006 128.046C439.103 127.672 439.144 127.063 439.144 126.218V115.985C439.144 115.154 439.117 114.531 439.075 114.116C439.033 113.7 438.923 113.34 438.756 113.036C438.59 112.731 438.313 112.468 437.939 112.274C437.565 112.08 437.039 111.956 436.36 111.886V110.529H442.205L453.619 124.017V114.864C453.619 114.116 453.564 113.534 453.467 113.146C453.37 112.745 453.107 112.44 452.705 112.219C452.303 111.997 451.652 111.886 450.766 111.886V110.529H458.246V111.886L458.26 111.9Z" fill="white"/>
<path d="M479.148 120.735C479.148 122.189 478.899 123.49 478.414 124.667C477.915 125.831 477.278 126.814 476.502 127.589C475.727 128.365 474.896 128.96 474.009 129.348C472.139 130.179 469.84 130.594 467.125 130.594H457.969V129.237C458.814 129.237 459.451 129.154 459.894 128.988C460.324 128.822 460.614 128.586 460.739 128.254C460.878 127.922 460.933 127.465 460.933 126.869V114.213C460.933 113.34 460.753 112.731 460.407 112.385C460.06 112.039 459.243 111.859 457.969 111.859V110.474L462.277 110.391C462.429 110.391 463.025 110.391 464.077 110.363C465.13 110.349 465.74 110.335 465.906 110.335C467.554 110.335 468.953 110.419 470.103 110.599C471.253 110.779 472.305 111.056 473.261 111.457C474.134 111.817 474.951 112.302 475.685 112.939C476.419 113.576 477.043 114.296 477.555 115.113C478.068 115.93 478.456 116.816 478.733 117.771C479.01 118.727 479.148 119.724 479.148 120.776V120.735ZM474.369 120.652C474.369 118.575 473.968 116.83 473.178 115.431C472.389 114.033 471.308 113.05 469.951 112.509C469.355 112.274 468.732 112.122 468.067 112.053C467.402 111.983 466.446 111.956 465.199 111.956V126.052C465.199 126.855 465.241 127.451 465.324 127.825C465.407 128.199 465.629 128.475 466.017 128.669C466.405 128.863 467 128.96 467.804 128.96C470.2 128.96 471.89 128.129 472.887 126.44C473.885 124.764 474.369 122.84 474.369 120.666V120.652Z" fill="white"/>
<path d="M544.196 83.8595C541.8 83.8595 540.096 84.0949 539.057 84.5796C538.018 85.0642 537.381 85.7704 537.132 86.6982C536.883 87.6398 536.758 89.163 536.758 91.2817V131.024H533.35L500.549 92.0571V119.669C500.549 121.76 500.674 123.283 500.937 124.238C501.2 125.194 501.851 125.914 502.918 126.412C503.971 126.925 505.688 127.174 508.057 127.174V130.58H489.426V127.174C491.643 127.174 493.249 126.925 494.247 126.412C495.244 125.914 495.854 125.18 496.089 124.238C496.325 123.297 496.435 121.774 496.435 119.669V94.0927C496.435 92.0294 496.38 90.4647 496.269 89.44C496.158 88.4153 495.895 87.5014 495.48 86.7259C495.064 85.9505 494.371 85.3273 493.429 84.8427C492.488 84.358 491.172 84.0395 489.496 83.8595V80.4531H504.095L532.644 114.171V91.2817C532.644 89.4123 532.519 87.9722 532.256 86.9752C531.993 85.9781 531.356 85.2027 530.331 84.6626C529.306 84.1226 527.685 83.8457 525.469 83.8457V80.4392H544.182V83.8457L544.196 83.8595Z" fill="white"/>
<path d="M591.196 110.543C591.196 114.185 590.323 117.605 588.591 120.79C586.86 123.975 584.283 126.523 580.89 128.448C577.482 130.373 573.465 131.328 568.839 131.328C565.057 131.328 561.719 130.719 558.838 129.5C555.957 128.282 553.602 126.648 551.787 124.584C549.959 122.535 548.615 120.292 547.729 117.841C546.842 115.39 546.413 112.939 546.413 110.474C546.413 106.901 547.258 103.537 548.934 100.366C550.61 97.1945 553.131 94.6327 556.511 92.6941C559.877 90.7555 563.921 89.7861 568.603 89.7861C572.883 89.7861 576.526 90.4924 579.518 91.8909C582.51 93.2895 584.851 95.062 586.527 97.1806C588.204 99.3131 589.409 101.543 590.115 103.883C590.835 106.223 591.196 108.438 591.196 110.557V110.543ZM581.61 110.419C581.61 108.175 581.416 106.043 581.028 104.035C580.64 102.027 579.962 100.199 579.006 98.5792C578.036 96.9591 576.72 95.6574 575.044 94.7019C573.368 93.7465 571.304 93.2618 568.839 93.2618C565.445 93.2618 562.799 94.1065 560.902 95.7959C559.004 97.4853 557.702 99.5901 557.023 102.124C556.344 104.658 555.998 107.428 555.998 110.419C555.998 112.08 556.109 113.797 556.331 115.598C556.552 117.398 557.065 119.226 557.896 121.109C558.727 122.992 560.043 124.584 561.857 125.872C563.672 127.16 566.013 127.811 568.894 127.811C571.775 127.811 574.075 127.146 575.862 125.817C577.648 124.488 578.95 122.854 579.768 120.943C580.585 119.032 581.098 117.176 581.305 115.431C581.513 113.673 581.61 112.011 581.61 110.433V110.419Z" fill="white"/>
<path d="M630.216 120.001C630.216 122.244 629.648 124.086 628.498 125.512C627.349 126.938 625.908 128.032 624.149 128.766C622.39 129.5 620.672 129.999 618.996 130.234C617.32 130.47 615.699 130.594 614.148 130.594H594.035V127.88C595.753 127.88 597.013 127.7 597.831 127.354C598.648 126.994 599.188 126.495 599.423 125.845C599.673 125.194 599.798 124.294 599.798 123.158V97.8452C599.798 96.0727 599.437 94.8403 598.703 94.148C597.969 93.4556 596.418 93.1094 594.035 93.1094V90.3261C596.889 90.2707 599.617 90.2015 602.194 90.1461C604.784 90.0907 606.903 90.0491 608.566 90.0076C610.228 89.9799 611.405 89.9661 612.07 89.9661H613.165C615.215 89.9661 617.362 90.1738 619.606 90.603C621.85 91.0323 623.886 91.9878 625.728 93.4833C627.57 94.9788 628.498 97.139 628.498 99.9638C628.498 102.069 627.75 103.883 626.254 105.406C624.758 106.929 622.293 108.175 618.885 109.158C621.212 109.574 623.235 110.266 624.966 111.249C626.698 112.233 628 113.465 628.886 114.961C629.773 116.456 630.216 118.145 630.216 120.015V120.001ZM620.035 100.185C620.035 98.8007 619.703 97.596 619.052 96.5574C618.387 95.5188 617.417 94.7157 616.129 94.1341C614.841 93.5525 613.248 93.2617 611.378 93.2617H608.275V107.635H610.699C613.871 107.635 616.226 106.971 617.749 105.627C619.273 104.284 620.035 102.47 620.035 100.185ZM621.129 119.502C621.129 116.788 620.423 114.67 619.01 113.16C617.597 111.651 615.616 110.903 613.054 110.903H608.261V121.344C608.261 122.798 608.344 123.947 608.524 124.764C608.704 125.581 609.147 126.218 609.854 126.662C610.56 127.105 611.682 127.326 613.234 127.326C615.284 127.326 617.112 126.703 618.719 125.457C620.326 124.211 621.129 122.23 621.129 119.516V119.502Z" fill="white"/>
<path d="M668.309 117.19L668.045 130.58H632.308V127.866C634.773 127.866 636.353 127.506 637.073 126.8C637.779 126.094 638.139 124.875 638.139 123.131V97.9284C638.139 96.7652 638.015 95.8651 637.779 95.2282C637.544 94.5912 636.99 94.0927 636.131 93.7326C635.272 93.3726 633.998 93.2064 632.294 93.2064V90.4785H652.476V93.2064C650.8 93.2064 649.526 93.3726 648.681 93.7049C647.836 94.0373 647.254 94.5219 646.991 95.1728C646.728 95.8098 646.589 96.7375 646.589 97.9422V121.012C646.589 122.826 646.672 124.128 646.852 124.917C647.032 125.706 647.517 126.302 648.307 126.703C649.096 127.105 650.384 127.312 652.185 127.312C654.457 127.312 656.438 127.146 658.141 126.8C659.845 126.454 661.424 125.54 662.879 124.044C664.333 122.563 665.234 120.278 665.58 117.204H668.295L668.309 117.19Z" fill="white"/>
<path d="M706.055 117.398L705.723 130.594H669.985V127.88C672.45 127.88 674.03 127.52 674.75 126.814C675.456 126.108 675.817 124.889 675.817 123.144V97.9422C675.817 96.7929 675.706 95.9067 675.484 95.2697C675.262 94.6327 674.722 94.1204 673.891 93.7603C673.06 93.4003 671.758 93.2064 669.999 93.2064V90.4785H703.285L703.811 100.892H701.096C700.487 98.5792 699.78 96.9314 698.977 95.9344C698.173 94.9374 697.287 94.3281 696.289 94.1065C695.292 93.885 693.796 93.7603 691.815 93.7603H684.294V107.926H688.38C689.779 107.926 690.818 107.802 691.511 107.552C692.203 107.303 692.688 106.832 692.965 106.154C693.242 105.461 693.422 104.381 693.519 102.9H696.359V116.235H693.644C693.561 114.753 693.367 113.673 693.048 112.967C692.73 112.274 692.231 111.803 691.552 111.568C690.873 111.333 689.835 111.208 688.435 111.208H684.294V120.638C684.294 122.217 684.335 123.366 684.418 124.1C684.502 124.834 684.709 125.429 685.056 125.914C685.402 126.399 685.956 126.745 686.746 126.966C687.521 127.188 688.629 127.299 690.07 127.299H693.297C694.655 127.299 695.957 127.132 697.19 126.786C698.423 126.44 699.628 125.554 700.819 124.128C701.996 122.701 702.828 120.458 703.299 117.398H706.083H706.055Z" fill="white"/>
<path d="M720.932 130.414C720.932 132.353 720.516 134.125 719.699 135.773C718.881 137.407 717.662 138.764 716.056 139.817C714.449 140.883 712.537 141.561 710.335 141.852V139.138C712.537 138.709 714.31 137.933 715.654 136.812C716.998 135.704 717.662 134.291 717.662 132.602C717.662 132.173 717.579 131.813 717.399 131.536C717.219 131.259 716.97 131.12 716.637 131.12C716.444 131.12 716.111 131.176 715.668 131.273C715.308 131.397 714.837 131.453 714.213 131.453C713.147 131.453 712.163 131.023 711.249 130.165C710.335 129.306 709.892 128.24 709.892 126.952C709.892 125.54 710.363 124.404 711.318 123.546C712.274 122.701 713.396 122.272 714.67 122.272C715.599 122.272 716.54 122.577 717.51 123.186C718.48 123.795 719.283 124.723 719.934 125.955C720.585 127.188 720.904 128.669 720.904 130.4L720.932 130.414Z" fill="white"/>
<path d="M757.099 112.191C757.099 114.254 756.462 115.805 755.201 116.872C753.927 117.938 752.431 118.616 750.713 118.921C748.996 119.226 747.181 119.378 745.283 119.378H743.621V125.928C743.621 126.662 743.704 127.243 743.857 127.645C744.009 128.046 744.355 128.365 744.895 128.573C745.422 128.78 746.239 128.891 747.32 128.891V130.594H734.714V128.891C735.781 128.891 736.584 128.78 737.097 128.559C737.609 128.337 737.942 128.019 738.094 127.617C738.247 127.216 738.33 126.648 738.33 125.942V110.114C738.33 109.394 738.26 108.84 738.108 108.439C737.956 108.037 737.623 107.718 737.111 107.497C736.598 107.275 735.795 107.151 734.728 107.151V105.42L741.89 105.24C742.264 105.24 742.665 105.212 743.095 105.212C743.538 105.212 743.884 105.212 744.134 105.198C744.397 105.198 744.771 105.198 745.283 105.198C745.907 105.198 746.378 105.198 746.682 105.212C748.151 105.267 749.564 105.42 750.921 105.641C752.278 105.863 753.65 106.486 755.035 107.511C756.42 108.535 757.113 110.114 757.113 112.219L757.099 112.191ZM751.406 112.233C751.406 110.239 750.824 108.895 749.661 108.231C748.497 107.566 746.959 107.22 745.062 107.22C744.715 107.22 744.231 107.22 743.621 107.261V117.342H745.325C747.139 117.342 748.608 117.038 749.73 116.415C750.852 115.791 751.406 114.407 751.406 112.247V112.233Z" fill="white"/>
<path d="M757.874 128.309C757.874 129.126 757.583 129.805 757.029 130.359C756.461 130.913 755.783 131.19 754.979 131.19C754.176 131.19 753.511 130.913 752.943 130.359C752.375 129.805 752.098 129.126 752.098 128.309C752.098 127.492 752.375 126.8 752.929 126.246C753.483 125.678 754.176 125.401 754.979 125.401C755.783 125.401 756.475 125.678 757.043 126.246C757.597 126.814 757.888 127.506 757.888 128.323L757.874 128.309Z" fill="white"/>
<path d="M785.024 130.331H783.279C783.016 129.265 782.6 128.323 782.004 127.479C781.063 128.448 779.996 129.293 778.791 129.999C777.586 130.705 775.951 131.051 773.887 131.051C771.629 131.051 769.538 130.497 767.612 129.403C765.687 128.309 764.15 126.772 763 124.806C761.85 122.84 761.282 120.624 761.282 118.159C761.282 116.415 761.587 114.739 762.224 113.147C762.847 111.554 763.734 110.156 764.884 108.951C766.033 107.746 767.419 106.791 769.011 106.098C770.604 105.406 772.35 105.06 774.248 105.06C777.378 105.06 779.968 106.085 782.004 108.134C782.282 107.608 782.545 106.832 782.794 105.821H784.456L784.747 115.044H782.974C782.656 113.479 782.074 112.094 781.243 110.862C780.412 109.643 779.414 108.702 778.251 108.065C777.101 107.414 775.896 107.095 774.635 107.095C773.236 107.095 771.962 107.483 770.84 108.245C769.718 109.02 768.845 110.183 768.208 111.762C767.571 113.341 767.252 115.307 767.252 117.661C767.252 120.015 767.515 121.857 768.042 123.38C768.568 124.903 769.233 126.052 770.009 126.828C770.785 127.603 771.574 128.129 772.364 128.406C773.153 128.683 773.887 128.822 774.58 128.822C776.09 128.822 777.461 128.42 778.68 127.603C779.899 126.786 780.896 125.762 781.672 124.529C782.448 123.297 782.96 122.064 783.223 120.846H784.997V130.304L785.024 130.331Z" fill="white"/>
<path d="M794 128.309C794 129.126 793.709 129.805 793.155 130.359C792.587 130.913 791.908 131.19 791.105 131.19C790.301 131.19 789.637 130.913 789.069 130.359C788.501 129.805 788.224 129.126 788.224 128.309C788.224 127.492 788.501 126.8 789.055 126.246C789.609 125.678 790.301 125.401 791.105 125.401C791.908 125.401 792.601 125.678 793.169 126.246C793.723 126.814 794.014 127.506 794.014 128.323L794 128.309Z" fill="white"/>
<path d="M136.149 143.707C135.983 143.707 135.817 143.707 135.664 143.68L135.401 143.652L135.235 143.444C133.309 140.924 129.833 136.853 121.438 127.298L93.804 95.768C87.4322 88.4012 83.3736 83.79 81.0881 81.6022C81.0327 82.6407 81.0327 84.7455 81.0327 88.055V111.083C81.0327 117.841 81.0327 130.428 83.0827 134.042C83.9692 135.524 85.6869 136.341 88.6512 136.701L91.4215 137.075L91.5462 137.172C92.405 137.836 92.6266 139.055 92.4465 139.955C92.2803 140.813 91.7817 141.437 91.1029 141.644L91.006 141.672H90.8951C86.6288 141.437 81.9746 141.312 77.4589 141.312C72.3476 141.312 69.2171 141.437 65.2139 141.658H65.02L64.8537 141.561C64.2304 141.173 63.8148 140.384 63.7456 139.456C63.6763 138.529 63.9672 137.67 64.5351 137.172L64.646 137.075L67.3886 136.451L67.7349 136.382C69.7573 135.953 71.5165 135.593 72.1675 134.084C73.6496 130.553 73.6496 120.195 73.6496 111.069V82.3084C73.6496 73.7092 73.6496 72.1583 69.965 69.0149C68.8292 68.0733 65.7541 67.1732 63.9672 66.7855L62.0418 66.3978L61.9171 66.3009C61.1969 65.6777 61.0722 64.4453 61.2523 63.5591C61.4323 62.6729 61.931 62.0497 62.6097 61.842L62.7206 61.8143H62.8452C65.948 62.1605 70.0066 62.1882 72.7908 62.1882H76.7247C79.2596 62.1882 82.0577 62.0497 84.8281 61.8282L85.2713 61.7866L85.4375 62.202C87.3906 67.1455 100.162 81.9207 104.331 86.4626L116.147 99.216C117.615 100.822 119.61 103.052 121.715 105.406C125.608 109.754 130.747 115.487 132.561 117.259C132.589 116.857 132.589 116.248 132.589 115.459V92.4308C132.589 85.1886 132.589 73.0722 130.428 69.4857C129.514 67.9625 127.879 67.1732 124.971 66.8132L122.089 66.4393L121.965 66.3424C121.106 65.6777 120.884 64.4592 121.051 63.5591C121.217 62.7005 121.715 62.0774 122.394 61.8697L122.491 61.842H122.588C127.284 62.0913 131.592 62.202 136.135 62.202C141.219 62.202 144.28 62.0774 148.505 61.842H148.699L148.865 61.9389C149.488 62.3267 149.89 63.116 149.973 64.0437C150.042 64.9715 149.752 65.83 149.184 66.3286L149.073 66.4255L145.956 67.0902C143.878 67.5333 142.23 67.8795 141.551 69.4165C139.944 72.9614 139.944 83.3054 139.944 92.4308V120.652C139.944 135.551 140.138 140.135 140.291 141.353L140.318 141.589L140.18 141.783C139.307 142.987 137.784 143.694 136.107 143.694L136.149 143.707Z" fill="#5F94B7"/>
<path d="M148.588 62.4514C149.53 63.0468 149.766 65.0547 148.824 65.8717L146.109 66.4533C143.865 66.9241 141.856 67.2841 141.025 69.1673C139.377 72.823 139.377 83.0978 139.377 92.4309V120.652C139.377 124.197 139.377 138.723 139.737 141.437C138.892 142.6 137.465 143.112 136.149 143.112C135.997 143.112 135.858 143.112 135.72 143.098C133.836 140.62 130.401 136.604 121.896 126.925L94.2614 95.3942C86.6983 86.6565 82.8059 82.2946 80.7974 80.5222C80.4373 80.5222 80.4373 81.8238 80.4373 88.0828V111.111C80.4373 119.959 80.5619 130.83 82.5704 134.361C83.637 136.133 85.6455 136.964 88.596 137.31L91.2001 137.67C92.2667 138.501 92.142 140.744 90.9646 141.09C86.5875 140.855 81.9887 140.73 77.5007 140.73C72.5417 140.73 69.3558 140.855 65.2141 141.09C64.2722 140.495 64.0367 138.487 64.9786 137.67L67.5828 137.089C69.8268 136.618 71.9461 136.258 72.7772 134.374C74.3148 130.719 74.3148 120.444 74.3148 111.125V83.1393C74.3148 73.9308 74.4394 72.0337 70.4224 68.6134C69.1203 67.5472 65.8097 66.6056 64.1614 66.2594L62.3884 65.8994C61.5572 65.1932 61.6819 62.8253 62.8593 62.4791C65.8513 62.7976 69.7437 62.853 72.8742 62.853C74.4394 62.853 75.8108 62.853 76.7942 62.853C79.2737 62.853 82.1133 62.7283 84.9391 62.4929C86.9476 67.5749 99.816 82.4469 103.958 86.9335L115.773 99.6869C120.732 105.115 131.717 117.633 132.894 118.339C133.254 117.993 133.254 117.398 133.254 115.501V92.4724C133.254 83.6101 133.143 72.7538 131.01 69.2089C129.944 67.4364 128.06 66.6056 125.109 66.2594L122.394 65.8994C121.328 65.0685 121.452 62.8253 122.63 62.4791C127.229 62.7145 131.606 62.8391 136.219 62.8391C141.302 62.8391 144.363 62.7145 148.616 62.4791M85.7148 61.1774L84.8283 61.2467C82.0856 61.4821 79.3014 61.5928 76.7804 61.5928C76.3371 61.5928 75.8246 61.5928 75.2567 61.5928C74.5364 61.5928 73.733 61.5928 72.8603 61.5928C70.09 61.5928 66.0452 61.5513 62.9701 61.2328L62.7346 61.2051L62.4992 61.2744C61.6126 61.5375 60.9616 62.3268 60.7261 63.4345C60.4907 64.5285 60.6707 65.9686 61.5849 66.7579L61.8204 66.9656L62.1252 67.021L63.8982 67.381C65.6712 67.7549 68.6217 68.6688 69.6329 69.4997C73.0958 72.4492 73.0958 73.9585 73.0958 82.3223V83.0978V111.083C73.0958 120.153 73.0958 130.442 71.6552 133.876C71.1565 135.039 69.7991 135.371 67.652 135.815L67.3196 135.884L64.7016 136.479L64.4107 136.548L64.1752 136.742C63.4549 137.365 63.0948 138.404 63.1779 139.526C63.261 140.647 63.7874 141.603 64.5631 142.087L64.8817 142.295L65.2695 142.267C69.2727 142.032 72.4032 141.921 77.4868 141.921C81.9887 141.921 86.6152 142.046 90.8815 142.281H91.0893L91.2832 142.226C92.1836 141.963 92.8346 141.146 93.0424 140.08C93.2502 138.999 92.9732 137.532 91.9204 136.715L91.6711 136.521L91.3525 136.479L88.7484 136.119C85.9641 135.787 84.3712 135.053 83.5955 133.737C81.6424 130.289 81.6424 117.799 81.6424 111.097V88.069C81.6424 85.9226 81.6424 84.2194 81.6562 83.0147C84.0664 85.4934 87.9449 89.9106 93.3472 96.1696L120.995 127.7C129.376 137.241 132.853 141.312 134.764 143.804L135.083 144.22L135.609 144.261C135.789 144.275 135.969 144.289 136.149 144.289C138.005 144.289 139.709 143.486 140.707 142.129L140.984 141.741L140.928 141.27C140.803 140.287 140.582 136.299 140.582 120.652V92.4309C140.582 83.3609 140.582 73.0861 142.133 69.6658C142.66 68.4473 143.934 68.1426 146.123 67.6718L146.372 67.6164L149.101 67.0348L149.405 66.9656L149.641 66.7579C150.361 66.1209 150.721 65.1101 150.638 63.9746C150.555 62.853 150.029 61.8975 149.253 61.4128L148.934 61.2051L148.56 61.2328C144.35 61.4682 141.288 61.5928 136.232 61.5928C131.703 61.5928 127.409 61.4821 122.713 61.2328H122.505L122.311 61.2882C121.411 61.5513 120.76 62.3683 120.552 63.4345C120.344 64.5146 120.621 65.9825 121.674 66.7994L121.937 66.9933L122.256 67.0348L124.971 67.3949C127.7 67.7272 129.196 68.4334 129.999 69.7766C132.077 73.2385 132.077 85.7149 132.077 92.417V115.445C132.077 115.57 132.077 115.694 132.077 115.819C129.819 113.451 125.58 108.715 122.256 105.004C120.15 102.65 118.156 100.421 116.687 98.8145L104.872 86.0611C100.093 80.8822 87.9172 66.5917 86.0888 61.9944L85.7564 61.1636L85.7148 61.1774Z" fill="white"/>
<path d="M19.3094 107.843C18.6999 107.538 18.2705 106.846 18.1182 105.932C17.9797 105.046 18.0905 103.744 18.88 102.955L19.0324 102.803L22.1768 102.373C28.0499 101.626 29.1165 101.487 29.1165 87.6537V38.7864C29.1165 25.9222 28.978 24.9391 23.271 24.3298L19.5726 23.9005L19.4202 23.7482C18.7831 23.1112 18.4506 22.0311 18.5753 20.9787C18.6722 20.1064 19.0739 19.4001 19.6696 19.0263L19.7942 18.9432H19.9466C29.0334 18.1262 39.0206 17.7246 50.4483 17.7246C63.2335 17.7246 71.4061 19.1509 76.933 22.3496C83.5265 26.213 86.6016 31.9043 86.6016 40.2542C86.6016 48.1749 80.9362 54.5724 71.0737 57.8127C70.9213 57.8542 70.8243 57.9096 70.7689 57.965C70.8659 58.0204 71.0321 58.1173 71.3507 58.2142C91.699 61.3991 93.2781 77.2543 93.2781 82.0455C93.2781 87.2936 91.8237 94.7297 84.8978 100.296C78.3874 105.711 69.4807 107.912 54.1883 107.912C51.127 107.912 48.1628 107.802 45.2816 107.705C42.5943 107.608 40.0594 107.511 37.6354 107.511C31.6098 107.511 25.3765 107.649 19.628 107.912H19.4618L19.3094 107.843ZM52.0967 63.1162C47.3039 63.1162 47.304 63.587 47.304 65.5533V82.5578C47.304 93.068 48.232 97.0422 58.1222 97.0422C65.4498 97.0422 72.8467 92.3479 72.8467 81.8516C72.8467 70.1229 65.0897 63.1162 52.0967 63.1162ZM52.3183 24.3298C45.8772 24.3298 45.8772 24.4267 45.8772 29.301V53.4646C45.8772 55.4494 47.581 56.4418 50.9885 56.4418C63.3721 56.4418 68.6496 51.5675 68.6496 40.1158C68.6496 28.664 59.8537 24.3298 52.3183 24.3298Z" fill="#15416F"/>
<path d="M50.4481 18.3616C61.6681 18.3616 70.6163 19.4278 76.628 22.9035C82.7782 26.5038 85.978 31.8489 85.978 40.2542C85.978 48.1334 80.2295 54.1431 70.8934 57.2034C70.3532 57.3419 70.09 57.7434 70.09 58.0065C70.09 58.2696 70.3532 58.5327 71.1566 58.8097C81.31 60.4021 92.6546 66.9519 92.6546 82.0317C92.6546 88.1799 90.6461 94.8543 84.5097 99.7839C78.2348 104.991 69.4112 107.262 54.1881 107.262C48.3149 107.262 42.7049 106.86 37.6213 106.86C31.7482 106.86 25.4733 106.998 19.5863 107.262C18.5197 106.735 18.3812 104.326 19.3231 103.398L22.2597 102.997C28.5345 102.193 29.7396 101.792 29.7396 87.6398V38.7864C29.7396 25.9638 29.6011 24.3575 23.3263 23.6928L19.8494 23.2913C18.9075 22.3635 18.9075 20.2171 19.988 19.5525C25.9997 19.0124 35.7513 18.3478 50.4343 18.3478M50.9745 57.0788C63.5242 57.0788 69.2727 52.1353 69.2727 40.1296C69.2727 28.124 60.5876 23.7067 52.3181 23.7067C45.6415 23.7067 45.2398 23.9698 45.2398 29.3148V53.4785C45.2398 56.9541 45.6415 57.0926 50.9745 57.0926M58.122 97.6653C66.2669 97.6653 73.4698 92.3479 73.4698 81.8378C73.4698 69.6798 65.2003 62.4654 52.0965 62.4654C46.902 62.4654 46.6666 63.1716 46.6666 65.5395V82.544C46.6666 93.2896 47.844 97.6653 58.122 97.6653ZM50.4481 17.0876C38.9927 17.0876 28.9916 17.4754 19.891 18.2924L19.5863 18.3201L19.3231 18.4862C18.5612 18.957 18.0626 19.8433 17.9379 20.9095C17.7994 22.1696 18.1872 23.4297 18.9629 24.2052L19.2815 24.5237L19.7248 24.5791L23.2016 24.9806C28.493 25.5345 28.493 26.2961 28.493 38.8141V87.6675C28.493 100.947 27.7727 101.044 22.1211 101.764L19.1707 102.166L18.7552 102.221L18.4504 102.526C17.4946 103.481 17.3423 105.018 17.5085 106.057C17.6886 107.165 18.2426 108.037 19.046 108.425L19.3369 108.577H19.6694C25.4179 108.3 31.6373 108.162 37.6352 108.162C40.0592 108.162 42.5803 108.259 45.2675 108.355C48.1487 108.466 51.1269 108.563 54.202 108.563C69.6606 108.563 78.6781 106.306 85.327 100.795C92.433 95.0759 93.929 87.446 93.929 82.0594C93.929 74.8033 91.4495 68.8767 86.5736 64.4455C83.0553 61.2607 78.2487 58.9481 72.9158 57.8542C82.0579 54.3785 87.2662 48.0364 87.2662 40.2681C87.2662 31.6689 84.0942 25.8115 77.2929 21.8234C71.6552 18.5693 63.3857 17.1153 50.4758 17.1153L50.4481 17.0876ZM50.9745 55.8048C49.243 55.8048 47.276 55.8048 46.7635 55.4863C46.5003 55.334 46.5003 54.0739 46.5003 53.4646V29.301C46.5003 27.0577 46.5835 25.853 47.0544 25.493C47.6777 24.9945 49.6309 24.9668 52.3181 24.9668C59.5626 24.9668 68.0122 28.941 68.0122 40.1158C68.0122 51.2906 63.081 55.8048 50.9883 55.8048H50.9745ZM58.122 96.4052C49.2014 96.4052 47.9271 93.4557 47.9271 82.5579V65.5533C47.9271 63.9193 47.9271 63.7532 52.0965 63.7532C64.6878 63.7532 72.2093 70.5245 72.2093 81.8516C72.2093 92.5972 64.6185 96.4052 58.122 96.4052Z" fill="white"/>
</g>
<defs>
<clipPath id="clip0_1423_2897">
<rect width="794" height="162" fill="white"/>
</clipPath>
</defs>
</svg>
