<svg width="512" height="512" viewBox="0 0 512 512" fill="none" xmlns="http://www.w3.org/2000/svg">
<rect width="512" height="512" fill="white"/>
<path d="M391.014 419C390.582 419 390.15 419 389.753 418.929L389.068 418.857L388.637 418.32C383.628 411.797 374.584 401.262 352.749 376.536L280.866 294.939C264.291 275.875 253.734 263.942 247.789 258.28C247.644 260.967 247.644 266.414 247.644 274.979V334.573C247.644 352.06 247.644 384.634 252.977 393.987C255.283 397.821 259.751 399.936 267.462 400.868L274.669 401.835L274.992 402.086C277.227 403.806 277.803 406.96 277.335 409.289C276.902 411.511 275.605 413.123 273.839 413.661L273.587 413.732H273.299C262.201 413.123 250.095 412.801 238.348 412.801C225.053 412.801 216.91 413.123 206.496 413.697H205.992L205.56 413.446C203.938 412.443 202.858 410.4 202.677 407.999C202.497 405.598 203.254 403.376 204.731 402.086L205.019 401.835L212.153 400.223L213.054 400.043C218.315 398.933 222.891 398.001 224.585 394.095C228.439 384.957 228.439 358.152 228.439 334.537V260.107C228.439 237.853 228.439 233.84 218.855 225.706C215.901 223.268 207.901 220.94 203.254 219.936L198.245 218.933L197.921 218.682C196.047 217.07 195.723 213.88 196.192 211.587C196.66 209.293 197.957 207.68 199.722 207.143L200.011 207.071H200.335C208.406 207.967 218.964 208.039 226.206 208.039H236.439C243.032 208.039 250.311 207.68 257.517 207.107L258.67 207L259.103 208.074C264.183 220.868 297.405 259.104 308.25 270.858L338.984 303.862C342.804 308.019 347.993 313.789 353.47 319.88C363.595 331.132 376.962 345.968 381.682 350.555C381.755 349.516 381.755 347.939 381.755 345.897V286.303C381.755 267.561 381.755 236.205 376.134 226.924C373.755 222.982 369.503 220.94 361.937 220.008L354.442 219.04L354.118 218.789C351.884 217.07 351.308 213.916 351.74 211.587C352.172 209.365 353.47 207.752 355.235 207.214L355.487 207.143H355.739C367.955 207.788 379.16 208.074 390.978 208.074C404.202 208.074 412.165 207.752 423.155 207.143H423.66L424.091 207.394C425.713 208.397 426.758 210.44 426.974 212.84C427.154 215.241 426.397 217.464 424.921 218.754L424.632 219.005L416.525 220.724C411.12 221.871 406.832 222.767 405.067 226.744C400.887 235.918 400.887 262.688 400.887 286.303V359.335C400.887 397.893 401.392 409.755 401.788 412.908L401.86 413.518L401.5 414.019C399.23 417.137 395.266 418.964 390.906 418.964L391.014 419Z" fill="#5F94B7"/>
<path d="M423.641 208.346C426.089 209.894 426.701 215.111 424.252 217.234L417.195 218.746C411.362 219.969 406.14 220.905 403.981 225.798C399.695 235.297 399.695 261.996 399.695 286.247V359.579C399.695 368.79 399.695 406.536 400.631 413.588C398.435 416.611 394.726 417.942 391.305 417.942C390.91 417.942 390.55 417.942 390.189 417.905C385.292 411.465 376.362 401.03 354.253 375.879L282.419 293.948C262.758 271.243 252.64 259.909 247.419 255.303C246.483 255.303 246.483 258.685 246.483 274.949V334.787C246.483 357.78 246.807 386.025 252.028 395.201C254.801 399.807 260.022 401.966 267.691 402.865L274.461 403.801C277.233 405.96 276.91 411.789 273.849 412.688C262.47 412.077 250.516 411.753 238.849 411.753C225.959 411.753 217.677 412.077 206.91 412.688C204.462 411.141 203.85 405.924 206.299 403.801L213.068 402.29C218.901 401.066 224.41 400.131 226.57 395.237C230.567 385.738 230.567 359.039 230.567 334.823V262.103C230.567 238.175 230.892 233.246 220.449 224.358C217.064 221.588 208.458 219.141 204.174 218.242L199.565 217.306C197.404 215.471 197.729 209.318 200.789 208.419C208.566 209.246 218.685 209.39 226.822 209.39C230.892 209.39 234.456 209.39 237.013 209.39C243.458 209.39 250.84 209.066 258.186 208.454C263.406 221.66 296.857 260.304 307.624 271.962L338.339 305.102C351.229 319.207 379.783 351.735 382.843 353.57C383.78 352.671 383.78 351.123 383.78 346.194V286.355C383.78 263.327 383.492 235.117 377.947 225.906C375.174 221.3 370.277 219.141 362.607 218.242L355.55 217.306C352.778 215.147 353.101 209.318 356.162 208.419C368.117 209.03 379.495 209.354 391.486 209.354C404.701 209.354 412.658 209.03 423.712 208.419M260.202 205.037L257.897 205.216C250.768 205.828 243.53 206.116 236.977 206.116C235.825 206.116 234.492 206.116 233.016 206.116C231.144 206.116 229.055 206.116 226.787 206.116C219.585 206.116 209.071 206.008 201.077 205.18L200.465 205.108L199.853 205.288C197.548 205.971 195.856 208.023 195.244 210.901C194.632 213.744 195.1 217.486 197.477 219.537L198.088 220.077L198.881 220.221L203.49 221.156C208.098 222.128 215.768 224.503 218.397 226.662C227.398 234.325 227.398 238.248 227.398 259.981V261.995V334.715C227.398 358.284 227.398 385.018 223.654 393.942C222.357 396.964 218.829 397.827 213.248 398.979L212.384 399.159L205.578 400.706L204.822 400.886L204.21 401.39C202.337 403.01 201.401 405.708 201.617 408.622C201.834 411.537 203.202 414.02 205.218 415.279L206.046 415.819L207.054 415.747C217.461 415.135 225.599 414.847 238.813 414.847C250.516 414.847 262.542 415.171 273.632 415.783H274.173L274.677 415.639C277.018 414.955 278.709 412.832 279.25 410.061C279.79 407.255 279.069 403.441 276.333 401.318L275.685 400.814L274.857 400.706L268.088 399.771C260.85 398.907 256.709 397.001 254.692 393.582C249.616 384.623 249.616 352.167 249.616 334.752V274.913C249.616 269.336 249.616 264.911 249.651 261.78C255.917 268.22 265.999 279.699 280.042 295.963L351.913 377.894C373.698 402.685 382.735 413.264 387.705 419.741L388.533 420.82L389.901 420.929C390.369 420.964 390.837 421 391.305 421C396.13 421 400.56 418.913 403.152 415.387L403.873 414.379L403.728 413.156C403.405 410.602 402.828 400.239 402.828 359.579V286.247C402.828 262.679 402.828 235.981 406.861 227.093C408.23 223.927 411.542 223.135 417.231 221.912L417.88 221.768L424.972 220.256L425.765 220.077L426.377 219.537C428.249 217.882 429.186 215.255 428.969 212.305C428.753 209.39 427.385 206.907 425.369 205.648L424.541 205.108L423.568 205.18C412.622 205.792 404.664 206.116 391.522 206.116C379.747 206.116 368.585 205.828 356.378 205.18H355.838L355.334 205.324C352.993 206.008 351.301 208.13 350.761 210.901C350.221 213.708 350.941 217.522 353.677 219.645L354.361 220.148L355.19 220.256L362.247 221.192C369.341 222.056 373.23 223.891 375.318 227.381C380.719 236.376 380.719 268.796 380.719 286.212V346.05C380.719 346.373 380.719 346.697 380.719 347.021C374.85 340.869 363.832 328.562 355.19 318.919C349.717 312.802 344.532 307.009 340.714 302.835L310 269.696C297.578 256.239 265.927 219.105 261.174 207.159L260.31 205L260.202 205.037Z" fill="white"/>
<path d="M87.2368 326.82C85.6485 326.026 84.5295 324.222 84.1323 321.841C83.7714 319.531 84.0602 316.139 86.1178 314.083L86.5148 313.686L94.709 312.568C110.015 310.619 112.794 310.258 112.794 274.212V146.88C112.794 113.36 112.433 110.799 97.5608 109.211L87.9227 108.092L87.5256 107.696C85.8651 106.036 84.9987 103.221 85.3236 100.479C85.5763 98.2061 86.6231 96.3659 88.1753 95.3917L88.5002 95.1752H88.8973C112.578 93.0464 138.605 92 168.385 92C201.704 92 223.001 95.7164 237.404 104.051C254.587 114.118 262.601 128.947 262.601 150.705C262.601 171.344 247.837 188.013 222.135 196.456C221.738 196.565 221.486 196.709 221.341 196.854C221.594 196.998 222.026 197.25 222.857 197.503C275.885 205.802 280 247.116 280 259.599C280 273.275 276.21 292.65 258.161 307.156C241.195 321.263 217.984 327 178.132 327C170.154 327 162.429 326.712 154.92 326.459C147.917 326.207 141.312 325.954 134.994 325.954C119.292 325.954 103.048 326.315 88.067 327H87.6338L87.2368 326.82ZM172.681 210.276C160.191 210.276 160.191 211.503 160.191 216.627V260.934C160.191 288.32 162.609 298.676 188.383 298.676C207.479 298.676 226.755 286.445 226.755 259.094C226.755 228.533 206.541 210.276 172.681 210.276ZM173.259 109.211C156.473 109.211 156.473 109.464 156.473 122.164V185.127C156.473 190.299 160.913 192.885 169.793 192.885C202.065 192.885 215.818 180.183 215.818 150.344C215.818 120.505 192.895 109.211 173.259 109.211Z" fill="#15416F"/>
<path d="M168.431 94.3001C197.478 94.3001 220.645 97.0621 236.209 106.066C252.132 115.392 260.415 129.238 260.415 151.012C260.415 171.423 245.533 186.991 221.362 194.918C219.963 195.277 219.282 196.317 219.282 196.998C219.282 197.68 219.963 198.362 222.043 199.079C248.33 203.204 277.701 220.172 277.701 259.235C277.701 275.162 272.501 292.452 256.614 305.222C240.369 318.709 217.525 324.592 178.113 324.592C162.907 324.592 148.383 323.552 135.222 323.552C120.017 323.552 103.771 323.91 88.5302 324.592C85.7688 323.229 85.4102 316.988 87.8488 314.584L95.4515 313.544C111.697 311.463 114.817 310.423 114.817 273.763V147.21C114.817 113.993 114.458 109.832 98.2129 108.11L89.2115 107.07C86.773 104.667 86.773 99.1068 89.5702 97.385C105.134 95.9861 130.381 94.2642 168.394 94.2642M169.793 194.595C202.284 194.595 217.166 181.79 217.166 150.689C217.166 119.589 194.681 108.146 173.272 108.146C155.986 108.146 154.946 108.828 154.946 122.674V185.269C154.946 194.273 155.986 194.632 169.793 194.632M188.297 299.734C209.384 299.734 228.032 285.959 228.032 258.733C228.032 227.238 206.623 208.549 172.698 208.549C159.249 208.549 158.64 210.379 158.64 216.512V260.562C158.64 288.398 161.688 299.734 188.297 299.734ZM168.431 91C138.772 91 112.88 92.0043 89.3192 94.1207L88.5302 94.1925L87.8488 94.6229C85.8764 95.8426 84.5854 98.1383 84.2627 100.9C83.904 104.165 84.9082 107.429 86.9164 109.438L87.7412 110.263L88.8888 110.406L97.8901 111.446C111.589 112.881 111.589 114.854 111.589 147.282V273.835C111.589 308.235 109.725 308.486 95.0929 310.351L87.4544 311.391L86.3785 311.535L85.5896 312.324C83.1151 314.799 82.7206 318.781 83.1509 321.471C83.6171 324.341 85.0516 326.601 87.1315 327.605L87.8846 328H88.7454C103.628 327.283 119.73 326.924 135.258 326.924C141.534 326.924 148.06 327.175 155.018 327.426C162.477 327.713 170.187 327.964 178.149 327.964C218.171 327.964 241.517 322.117 258.73 307.84C277.127 293.026 281 273.261 281 259.306C281 240.511 274.581 225.157 261.958 213.679C252.849 205.429 240.405 199.438 226.598 196.604C250.266 187.601 263.75 171.172 263.75 151.048C263.75 128.772 255.538 113.599 237.93 103.268C223.335 94.8382 201.925 91.0717 168.502 91.0717L168.431 91ZM169.793 191.295C165.31 191.295 160.218 191.295 158.891 190.47C158.209 190.076 158.209 186.811 158.209 185.233V122.638C158.209 116.827 158.425 113.706 159.644 112.774C161.258 111.482 166.314 111.411 173.272 111.411C192.027 111.411 213.903 121.706 213.903 150.654C213.903 179.601 201.136 191.295 169.829 191.295H169.793ZM188.297 296.469C165.202 296.469 161.903 288.829 161.903 260.598V216.549C161.903 212.315 161.903 211.885 172.698 211.885C205.296 211.885 224.769 229.426 224.769 258.769C224.769 286.604 205.116 296.469 188.297 296.469Z" fill="white"/>
</svg>
