<svg width="1300" height="212" viewBox="0 0 1300 212" fill="none" xmlns="http://www.w3.org/2000/svg">
<g clip-path="url(#clip0_541_960)">
<path d="M1033 37.0956V2H993.047C978.109 2 966 14.0177 966 28.8423V183.158C966 197.982 978.109 210 993.047 210H1033V176.776H998.085V37.0956H1033Z" fill="#303F46"/>
<path d="M1053 36.0956V1H1092.95C1107.89 1 1120 13.0177 1120 27.8423V182.158C1120 196.982 1107.89 209 1092.95 209H1053V175.776H1087.92V36.0956H1053Z" fill="#303F46"/>
<path d="M898.37 211.566L928.164 192.099L809.379 0.241591L774.716 22.9362L898.37 211.566Z" fill="#303F46"/>
<path d="M774 212H809V2.98873e-06H774V212Z" fill="#303F46"/>
<path d="M898 212H934V2.98873e-06H898V212Z" fill="#303F46"/>
<path d="M203 212H260V176H203V212Z" fill="#303F46"/>
<path d="M277 212H342V176H277V212Z" fill="#303F46"/>
<path d="M193 212H222V2.98873e-06H193V212Z" fill="#303F46"/>
<path d="M32 122H89V89H32V122Z" fill="#303F46"/>
<path d="M0 212H36V2.98873e-06H0V212Z" fill="#303F46"/>
<path d="M51 33H154V-4.96593e-07H51V33Z" fill="#303F46"/>
<path d="M51 211H154V178H51V211Z" fill="#303F46"/>
<path d="M413 122H470V89H413V122Z" fill="#303F46"/>
<path d="M381 212H416V2.98873e-06H381V212Z" fill="#303F46"/>
<path d="M432 33H535V-4.96593e-07H432V33Z" fill="#303F46"/>
<path d="M432 211H535V178H432V211Z" fill="#303F46"/>
<path d="M624 171H713V138H639.926L624 171Z" fill="#303F46"/>
<path d="M619.371 52L648 65.607L595.669 212H560L619.371 52Z" fill="#303F46"/>
<path d="M682.609 32.4707L671.887 0H638.789L629 36.0001L654.173 46.1178L717.571 212H753L682.609 32.4707Z" fill="#303F46"/>
<path d="M1153 212H1188V2.98873e-06H1153V212Z" fill="#303F46"/>
<path d="M1275.84 212L1224.47 120.407H1205V90.1878H1274.9V34.9039H1205V0H1286.55C1293.98 0 1300 6.02279 1300 13.4523V106.954C1300 114.384 1293.98 120.407 1286.55 120.407H1256.84L1300 182.484V212H1275.84Z" fill="#303F46"/>
</g>
<defs>
<clipPath id="clip0_541_960">
<rect width="1300" height="212" fill="white"/>
</clipPath>
</defs>
</svg>
