<svg width="228" height="66" viewBox="0 0 228 66" fill="none" xmlns="http://www.w3.org/2000/svg">
<path d="M180.83 6.51198V0.40625H173.886C171.29 0.40625 169.185 2.49702 169.185 5.07611V31.923C169.185 34.5021 171.29 36.5928 173.886 36.5928H180.83V30.8128H174.762V6.51198H180.83Z" fill="url(#paint0_linear_96_662)"/>
<path d="M184.439 6.26735V0.161621H191.383C193.979 0.161621 196.084 2.25239 196.084 4.83149V31.6784C196.084 34.2575 193.979 36.3482 191.383 36.3482H184.439V30.5681H190.508V6.26735H184.439Z" fill="url(#paint1_linear_96_662)"/>
<path d="M157.295 36.7973L162.511 33.4114L141.713 0.0419823L135.644 3.98922L157.295 36.7973Z" fill="url(#paint2_linear_96_662)"/>
<rect width="6.23272" height="36.7972" transform="matrix(1 0 0 -1 135.48 36.7974)" fill="url(#paint3_linear_96_662)"/>
<rect width="6.23272" height="36.7972" transform="matrix(1 0 0 -1 157.295 36.7974)" fill="url(#paint4_linear_96_662)"/>
<rect width="10.0052" height="6.26855" transform="matrix(1 0 0 -1 35.5087 36.7974)" fill="url(#paint5_linear_96_662)"/>
<rect width="11.3173" height="6.26855" transform="matrix(1 0 0 -1 48.5481 36.7974)" fill="url(#paint6_linear_96_662)"/>
<rect width="5.08459" height="36.7972" transform="matrix(1 0 0 -1 33.8685 36.7974)" fill="url(#paint7_linear_96_662)"/>
<rect width="10.0052" height="5.78009" transform="matrix(1 0 0 -1 5.5766 21.248)" fill="url(#paint8_linear_96_662)"/>
<rect width="6.23272" height="36.7972" transform="matrix(1 0 0 -1 0 36.7974)" fill="url(#paint9_linear_96_662)"/>
<rect width="18.0421" height="5.78009" transform="matrix(1 0 0 -1 8.93903 5.78027)" fill="url(#paint10_linear_96_662)"/>
<rect width="18.0421" height="5.78009" transform="matrix(1 0 0 -1 8.93903 36.7153)" fill="url(#paint11_linear_96_662)"/>
<rect width="10.0052" height="5.78009" transform="matrix(1 0 0 -1 72.2508 21.248)" fill="url(#paint12_linear_96_662)"/>
<rect width="6.23272" height="36.7972" transform="matrix(1 0 0 -1 66.6742 36.7974)" fill="url(#paint13_linear_96_662)"/>
<rect width="18.0421" height="5.78009" transform="matrix(1 0 0 -1 75.6133 5.78027)" fill="url(#paint14_linear_96_662)"/>
<rect width="18.0421" height="5.78009" transform="matrix(1 0 0 -1 75.6133 36.7158)" fill="url(#paint15_linear_96_662)"/>
<path d="M109.237 29.7144H124.819V23.9343H112.025L109.237 29.7144Z" fill="url(#paint16_linear_96_662)"/>
<path d="M108.376 9.03613L113.378 11.397L104.234 36.7968H98.0017L108.376 9.03613Z" fill="url(#paint17_linear_96_662)"/>
<path d="M119.488 5.70457L117.602 0.0810547H111.779L110.057 6.31582L114.486 8.06808L125.639 36.7968H131.872L119.488 5.70457Z" fill="url(#paint18_linear_96_662)"/>
<rect width="6.23272" height="36.7972" transform="matrix(1 0 0 -1 201.824 36.7974)" fill="url(#paint19_linear_96_662)"/>
<path d="M223.392 36.7972L214.412 20.8992H211.009V15.654H223.228V6.05832H211.009V0H225.265C226.563 0 227.615 1.04538 227.615 2.33493V18.5642C227.615 19.8538 226.563 20.8992 225.265 20.8992H220.071L227.615 31.674V36.7972H223.392Z" fill="url(#paint20_linear_96_662)"/>
<path fill-rule="evenodd" clip-rule="evenodd" d="M228 45.039H0V43.8643H228V45.039Z" fill="url(#paint21_linear_96_662)"/>
<path d="M7.6139 61.3989V62.6596H1.4197V61.3989H7.6139ZM1.73302 50.9676V62.6596H0.182465V50.9676H1.73302ZM6.79444 55.9945V57.2553H1.4197V55.9945H6.79444ZM7.53356 50.9676V52.2364H1.4197V50.9676H7.53356Z" fill="white"/>
<path d="M10.3133 53.9709L12.2174 57.1348L14.1455 53.9709H15.8889L13.0449 58.2591L15.9773 62.6596H14.258L12.2495 59.3994L10.241 62.6596H8.51371L11.4381 58.2591L8.60208 53.9709H10.3133Z" fill="white"/>
<path d="M18.9579 55.6412V66.0002H17.4636V53.9709H18.8294L18.9579 55.6412ZM24.8147 58.243V58.4117C24.8147 59.0434 24.7397 59.6296 24.5897 60.1703C24.4398 60.7056 24.2202 61.1714 23.9309 61.5675C23.6471 61.9637 23.2962 62.2715 22.8785 62.491C22.4607 62.7105 21.9814 62.8203 21.4404 62.8203C20.8887 62.8203 20.4013 62.7292 19.9782 62.5472C19.5551 62.3652 19.1962 62.1002 18.9017 61.7522C18.6071 61.4043 18.3714 60.9867 18.1947 60.4995C18.0233 60.0123 17.9054 59.4636 17.8412 58.8533V57.9539C17.9054 57.3115 18.026 56.736 18.2027 56.2274C18.3794 55.7188 18.6124 55.2852 18.9017 54.9265C19.1962 54.5625 19.5524 54.2868 19.9702 54.0994C20.3879 53.9067 20.87 53.8103 21.4163 53.8103C21.9626 53.8103 22.4473 53.9174 22.8704 54.1315C23.2936 54.3403 23.6497 54.6401 23.939 55.0309C24.2282 55.4217 24.4451 55.8902 24.5897 56.4362C24.7397 56.9769 24.8147 57.5792 24.8147 58.243ZM23.3204 58.4117V58.243C23.3204 57.8094 23.2748 57.4025 23.1838 57.0224C23.0927 56.637 22.9508 56.2997 22.758 56.0106C22.5705 55.7162 22.3295 55.486 22.0349 55.32C21.7403 55.1487 21.3895 55.063 20.9825 55.063C20.6075 55.063 20.2808 55.1273 20.0023 55.2558C19.7292 55.3842 19.4962 55.5582 19.3034 55.7777C19.1105 55.9919 18.9525 56.2381 18.8294 56.5165C18.7115 56.7895 18.6231 57.0733 18.5642 57.3677V59.4476C18.6713 59.8223 18.8213 60.1756 19.0141 60.5075C19.2069 60.8341 19.464 61.0991 19.7854 61.3025C20.1068 61.5006 20.5111 61.5997 20.9985 61.5997C21.4002 61.5997 21.7457 61.5167 22.0349 61.3507C22.3295 61.1794 22.5705 60.9465 22.758 60.6521C22.9508 60.3576 23.0927 60.0204 23.1838 59.6403C23.2748 59.2548 23.3204 58.8453 23.3204 58.4117Z" fill="white"/>
<path d="M30.318 62.8203C29.7127 62.8203 29.1637 62.7185 28.671 62.5151C28.1836 62.3063 27.7631 62.0146 27.4097 61.6398C27.0615 61.2651 26.7937 60.8207 26.6063 60.3068C26.4188 59.7929 26.3251 59.2307 26.3251 58.6204V58.2832C26.3251 57.5765 26.4295 56.9475 26.6384 56.3961C26.8473 55.8393 27.1311 55.3682 27.49 54.9827C27.8488 54.5973 28.2559 54.3055 28.7112 54.1074C29.1664 53.9094 29.6377 53.8103 30.1251 53.8103C30.7464 53.8103 31.282 53.9174 31.7319 54.1315C32.1872 54.3457 32.5594 54.6455 32.8487 55.0309C33.1379 55.411 33.3521 55.8607 33.4914 56.38C33.6306 56.8939 33.7003 57.4561 33.7003 58.0663V58.7329H27.2088V57.5203H32.214V57.4079C32.1926 57.0224 32.1122 56.6477 31.973 56.2836C31.8391 55.9196 31.6248 55.6198 31.3302 55.3842C31.0357 55.1487 30.634 55.0309 30.1251 55.0309C29.7877 55.0309 29.4771 55.1032 29.1932 55.2477C28.9093 55.3869 28.6656 55.5957 28.4621 55.8741C28.2586 56.1525 28.1006 56.4924 27.9881 56.8939C27.8756 57.2954 27.8194 57.7585 27.8194 58.2832V58.6204C27.8194 59.0327 27.8756 59.4208 27.9881 59.7848C28.1059 60.1435 28.2746 60.4594 28.4942 60.7324C28.7192 61.0054 28.9897 61.2196 29.3057 61.3748C29.627 61.5301 29.9912 61.6077 30.3983 61.6077C30.9232 61.6077 31.3677 61.5006 31.7319 61.2865C32.0961 61.0723 32.4148 60.7859 32.688 60.4272L33.5878 61.1419C33.4003 61.4257 33.162 61.696 32.8728 61.953C32.5835 62.21 32.2274 62.4187 31.8042 62.5793C31.3865 62.74 30.891 62.8203 30.318 62.8203Z" fill="white"/>
<path d="M36.9219 55.3361V62.6596H35.4356V53.9709H36.8817L36.9219 55.3361ZM39.6374 53.9227L39.6293 55.3039C39.5062 55.2772 39.3883 55.2611 39.2759 55.2558C39.1687 55.2451 39.0455 55.2397 38.9063 55.2397C38.5635 55.2397 38.2609 55.2932 37.9984 55.4003C37.736 55.5074 37.5137 55.6573 37.3316 55.85C37.1495 56.0427 37.0049 56.2729 36.8978 56.5406C36.796 56.8029 36.7291 57.092 36.6969 57.4079L36.2792 57.6488C36.2792 57.1241 36.3301 56.6316 36.4318 56.1712C36.5389 55.7108 36.7023 55.3039 36.9219 54.9506C37.1415 54.5919 37.42 54.3135 37.7574 54.1155C38.1002 53.912 38.5073 53.8103 38.9786 53.8103C39.0857 53.8103 39.2089 53.8237 39.3482 53.8505C39.4874 53.8719 39.5838 53.896 39.6374 53.9227Z" fill="white"/>
<path d="M42.626 53.9709V62.6596H41.1317V53.9709H42.626ZM41.0192 51.6662C41.0192 51.4253 41.0915 51.2219 41.2361 51.0559C41.3861 50.89 41.6057 50.807 41.8949 50.807C42.1788 50.807 42.3957 50.89 42.5457 51.0559C42.701 51.2219 42.7787 51.4253 42.7787 51.6662C42.7787 51.8964 42.701 52.0945 42.5457 52.2605C42.3957 52.4211 42.1788 52.5014 41.8949 52.5014C41.6057 52.5014 41.3861 52.4211 41.2361 52.2605C41.0915 52.0945 41.0192 51.8964 41.0192 51.6662Z" fill="white"/>
<path d="M48.6194 62.8203C48.0142 62.8203 47.4652 62.7185 46.9724 62.5151C46.485 62.3063 46.0646 62.0146 45.7111 61.6398C45.3629 61.2651 45.0951 60.8207 44.9077 60.3068C44.7202 59.7929 44.6265 59.2307 44.6265 58.6204V58.2832C44.6265 57.5765 44.7309 56.9475 44.9398 56.3961C45.1487 55.8393 45.4326 55.3682 45.7914 54.9827C46.1503 54.5973 46.5573 54.3055 47.0126 54.1074C47.4678 53.9094 47.9392 53.8103 48.4266 53.8103C49.0479 53.8103 49.5835 53.9174 50.0334 54.1315C50.4886 54.3457 50.8609 54.6455 51.1501 55.0309C51.4393 55.411 51.6535 55.8607 51.7928 56.38C51.9321 56.8939 52.0017 57.4561 52.0017 58.0663V58.7329H45.5102V57.5203H50.5154V57.4079C50.494 57.0224 50.4136 56.6477 50.2744 56.2836C50.1405 55.9196 49.9262 55.6198 49.6317 55.3842C49.3371 55.1487 48.9354 55.0309 48.4266 55.0309C48.0891 55.0309 47.7785 55.1032 47.4946 55.2477C47.2108 55.3869 46.9671 55.5957 46.7635 55.8741C46.56 56.1525 46.402 56.4924 46.2895 56.8939C46.177 57.2954 46.1208 57.7585 46.1208 58.2832V58.6204C46.1208 59.0327 46.177 59.4208 46.2895 59.7848C46.4074 60.1435 46.5761 60.4594 46.7957 60.7324C47.0206 61.0054 47.2911 61.2196 47.6071 61.3748C47.9285 61.5301 48.2927 61.6077 48.6997 61.6077C49.2246 61.6077 49.6692 61.5006 50.0334 61.2865C50.3976 61.0723 50.7163 60.7859 50.9894 60.4272L51.8892 61.1419C51.7018 61.4257 51.4634 61.696 51.1742 61.953C50.885 62.21 50.5288 62.4187 50.1057 62.5793C49.6879 62.74 49.1925 62.8203 48.6194 62.8203Z" fill="white"/>
<path d="M55.2233 55.8259V62.6596H53.737V53.9709H55.143L55.2233 55.8259ZM54.8698 57.986L54.2512 57.962C54.2566 57.3677 54.3449 56.819 54.5163 56.3158C54.6877 55.8072 54.9287 55.3655 55.2394 54.9908C55.55 54.616 55.9196 54.3269 56.3481 54.1235C56.7819 53.9147 57.2613 53.8103 57.7862 53.8103C58.2146 53.8103 58.6003 53.8692 58.9431 53.987C59.2858 54.0994 59.5777 54.2814 59.8188 54.533C60.0651 54.7847 60.2526 55.1112 60.3811 55.5127C60.5097 55.9089 60.574 56.3934 60.574 56.9662V62.6596H59.0796V56.9501C59.0796 56.4951 59.0127 56.1311 58.8788 55.858C58.7449 55.5797 58.5494 55.3789 58.2923 55.2558C58.0352 55.1273 57.7192 55.063 57.3443 55.063C56.9747 55.063 56.6373 55.1407 56.332 55.2959C56.0321 55.4512 55.7723 55.6653 55.5527 55.9383C55.3385 56.2114 55.1698 56.5245 55.0466 56.8779C54.9287 57.2259 54.8698 57.5952 54.8698 57.986Z" fill="white"/>
<path d="M66.3102 61.5997C66.6637 61.5997 66.9904 61.5274 67.2904 61.3828C67.5903 61.2383 67.8367 61.0402 68.0295 60.7886C68.2223 60.5316 68.3321 60.2399 68.3589 59.9133H69.7729C69.7461 60.4272 69.572 60.9064 69.2507 61.3507C68.9347 61.7897 68.5196 62.1457 68.0054 62.4187C67.4912 62.6864 66.9262 62.8203 66.3102 62.8203C65.6568 62.8203 65.0864 62.7052 64.599 62.475C64.1169 62.2448 63.7152 61.9289 63.3939 61.5274C63.0779 61.1259 62.8395 60.6655 62.6789 60.1462C62.5235 59.6215 62.4459 59.0675 62.4459 58.4839V58.1467C62.4459 57.5631 62.5235 57.0117 62.6789 56.4924C62.8395 55.9678 63.0779 55.5047 63.3939 55.1032C63.7152 54.7017 64.1169 54.3858 64.599 54.1556C65.0864 53.9254 65.6568 53.8103 66.3102 53.8103C66.9904 53.8103 67.5849 53.9495 68.0938 54.2279C68.6026 54.5009 69.0016 54.8757 69.2908 55.3521C69.5854 55.8232 69.7461 56.3586 69.7729 56.9582H68.3589C68.3321 56.5995 68.2303 56.2756 68.0536 55.9865C67.8822 55.6974 67.6465 55.4672 67.3466 55.2959C67.052 55.1193 66.7066 55.0309 66.3102 55.0309C65.855 55.0309 65.472 55.1219 65.1614 55.3039C64.8561 55.4806 64.6124 55.7215 64.4303 56.0267C64.2535 56.3265 64.125 56.6611 64.0446 57.0304C63.9697 57.3945 63.9322 57.7666 63.9322 58.1467V58.4839C63.9322 58.864 63.9697 59.2388 64.0446 59.6082C64.1196 59.9775 64.2455 60.3121 64.4222 60.6119C64.6043 60.9117 64.848 61.1526 65.1533 61.3347C65.464 61.5113 65.8496 61.5997 66.3102 61.5997Z" fill="white"/>
<path d="M75.0512 62.8203C74.446 62.8203 73.897 62.7185 73.4042 62.5151C72.9168 62.3063 72.4964 62.0146 72.1429 61.6398C71.7948 61.2651 71.527 60.8207 71.3395 60.3068C71.152 59.7929 71.0583 59.2307 71.0583 58.6204V58.2832C71.0583 57.5765 71.1628 56.9475 71.3716 56.3961C71.5805 55.8393 71.8644 55.3682 72.2232 54.9827C72.5821 54.5973 72.9891 54.3055 73.4444 54.1074C73.8997 53.9094 74.371 53.8103 74.8584 53.8103C75.4797 53.8103 76.0153 53.9174 76.4652 54.1315C76.9204 54.3457 77.2927 54.6455 77.5819 55.0309C77.8711 55.411 78.0854 55.8607 78.2246 56.38C78.3639 56.8939 78.4335 57.4561 78.4335 58.0663V58.7329H71.942V57.5203H76.9472V57.4079C76.9258 57.0224 76.8455 56.6477 76.7062 56.2836C76.5723 55.9196 76.3581 55.6198 76.0635 55.3842C75.7689 55.1487 75.3672 55.0309 74.8584 55.0309C74.521 55.0309 74.2103 55.1032 73.9264 55.2477C73.6426 55.3869 73.3989 55.5957 73.1954 55.8741C72.9918 56.1525 72.8338 56.4924 72.7213 56.8939C72.6089 57.2954 72.5526 57.7585 72.5526 58.2832V58.6204C72.5526 59.0327 72.6089 59.4208 72.7213 59.7848C72.8392 60.1435 73.0079 60.4594 73.2275 60.7324C73.4524 61.0054 73.7229 61.2196 74.0389 61.3748C74.3603 61.5301 74.7245 61.6077 75.1315 61.6077C75.6564 61.6077 76.101 61.5006 76.4652 61.2865C76.8294 61.0723 77.1481 60.7859 77.4212 60.4272L78.321 61.1419C78.1336 61.4257 77.8952 61.696 77.606 61.953C77.3168 62.21 76.9606 62.4187 76.5375 62.5793C76.1197 62.74 75.6243 62.8203 75.0512 62.8203Z" fill="white"/>
<path d="M91.9065 61.3989V62.6596H85.7123V61.3989H91.9065ZM86.0256 50.9676V62.6596H84.4751V50.9676H86.0256ZM91.087 55.9945V57.2553H85.7123V55.9945H91.087ZM91.8262 50.9676V52.2364H85.7123V50.9676H91.8262Z" fill="white"/>
<path d="M94.6059 53.9709L96.51 57.1348L98.4381 53.9709H100.182L97.3375 58.2591L100.27 62.6596H98.5506L96.5421 59.3994L94.5336 62.6596H92.8063L95.7307 58.2591L92.8947 53.9709H94.6059Z" fill="white"/>
<path d="M105.082 61.5997C105.436 61.5997 105.762 61.5274 106.062 61.3828C106.362 61.2383 106.609 61.0402 106.802 60.7886C106.994 60.5316 107.104 60.2399 107.131 59.9133H108.545C108.518 60.4272 108.344 60.9064 108.023 61.3507C107.707 61.7897 107.292 62.1457 106.777 62.4187C106.263 62.6864 105.698 62.8203 105.082 62.8203C104.429 62.8203 103.858 62.7052 103.371 62.475C102.889 62.2448 102.487 61.9289 102.166 61.5274C101.85 61.1259 101.612 60.6655 101.451 60.1462C101.296 59.6215 101.218 59.0675 101.218 58.4839V58.1467C101.218 57.5631 101.296 57.0117 101.451 56.4924C101.612 55.9678 101.85 55.5047 102.166 55.1032C102.487 54.7017 102.889 54.3858 103.371 54.1556C103.858 53.9254 104.429 53.8103 105.082 53.8103C105.762 53.8103 106.357 53.9495 106.866 54.2279C107.375 54.5009 107.774 54.8757 108.063 55.3521C108.357 55.8232 108.518 56.3586 108.545 56.9582H107.131C107.104 56.5995 107.002 56.2756 106.826 55.9865C106.654 55.6974 106.419 55.4672 106.119 55.2959C105.824 55.1193 105.479 55.0309 105.082 55.0309C104.627 55.0309 104.244 55.1219 103.933 55.3039C103.628 55.4806 103.384 55.7215 103.202 56.0267C103.026 56.3265 102.897 56.6611 102.817 57.0304C102.742 57.3945 102.704 57.7666 102.704 58.1467V58.4839C102.704 58.864 102.742 59.2388 102.817 59.6082C102.892 59.9775 103.018 60.3121 103.194 60.6119C103.376 60.9117 103.62 61.1526 103.925 61.3347C104.236 61.5113 104.622 61.5997 105.082 61.5997Z" fill="white"/>
<path d="M113.823 62.8203C113.218 62.8203 112.669 62.7185 112.176 62.5151C111.689 62.3063 111.268 62.0146 110.915 61.6398C110.567 61.2651 110.299 60.8207 110.112 60.3068C109.924 59.7929 109.83 59.2307 109.83 58.6204V58.2832C109.83 57.5765 109.935 56.9475 110.144 56.3961C110.353 55.8393 110.636 55.3682 110.995 54.9827C111.354 54.5973 111.761 54.3055 112.216 54.1074C112.672 53.9094 113.143 53.8103 113.63 53.8103C114.252 53.8103 114.787 53.9174 115.237 54.1315C115.692 54.3457 116.065 54.6455 116.354 55.0309C116.643 55.411 116.857 55.8607 116.997 56.38C117.136 56.8939 117.206 57.4561 117.206 58.0663V58.7329H110.714V57.5203H115.719V57.4079C115.698 57.0224 115.617 56.6477 115.478 56.2836C115.344 55.9196 115.13 55.6198 114.836 55.3842C114.541 55.1487 114.139 55.0309 113.63 55.0309C113.293 55.0309 112.982 55.1032 112.698 55.2477C112.415 55.3869 112.171 55.5957 111.967 55.8741C111.764 56.1525 111.606 56.4924 111.493 56.8939C111.381 57.2954 111.325 57.7585 111.325 58.2832V58.6204C111.325 59.0327 111.381 59.4208 111.493 59.7848C111.611 60.1435 111.78 60.4594 112 60.7324C112.224 61.0054 112.495 61.2196 112.811 61.3748C113.132 61.5301 113.497 61.6077 113.904 61.6077C114.428 61.6077 114.873 61.5006 115.237 61.2865C115.601 61.0723 115.92 60.7859 116.193 60.4272L117.093 61.1419C116.906 61.4257 116.667 61.696 116.378 61.953C116.089 62.21 115.733 62.4187 115.31 62.5793C114.892 62.74 114.396 62.8203 113.823 62.8203Z" fill="white"/>
<path d="M120.556 50.3252V62.6596H119.061V50.3252H120.556Z" fill="white"/>
<path d="M124.557 50.3252V62.6596H123.062V50.3252H124.557Z" fill="white"/>
<path d="M130.55 62.8203C129.945 62.8203 129.396 62.7185 128.903 62.5151C128.416 62.3063 127.995 62.0146 127.642 61.6398C127.294 61.2651 127.026 60.8207 126.838 60.3068C126.651 59.7929 126.557 59.2307 126.557 58.6204V58.2832C126.557 57.5765 126.662 56.9475 126.87 56.3961C127.079 55.8393 127.363 55.3682 127.722 54.9827C128.081 54.5973 128.488 54.3055 128.943 54.1074C129.398 53.9094 129.87 53.8103 130.357 53.8103C130.978 53.8103 131.514 53.9174 131.964 54.1315C132.419 54.3457 132.791 54.6455 133.081 55.0309C133.37 55.411 133.584 55.8607 133.723 56.38C133.863 56.8939 133.932 57.4561 133.932 58.0663V58.7329H127.441V57.5203H132.446V57.4079C132.425 57.0224 132.344 56.6477 132.205 56.2836C132.071 55.9196 131.857 55.6198 131.562 55.3842C131.268 55.1487 130.866 55.0309 130.357 55.0309C130.02 55.0309 129.709 55.1032 129.425 55.2477C129.141 55.3869 128.898 55.5957 128.694 55.8741C128.491 56.1525 128.333 56.4924 128.22 56.8939C128.108 57.2954 128.051 57.7585 128.051 58.2832V58.6204C128.051 59.0327 128.108 59.4208 128.22 59.7848C128.338 60.1435 128.507 60.4594 128.726 60.7324C128.951 61.0054 129.222 61.2196 129.538 61.3748C129.859 61.5301 130.223 61.6077 130.63 61.6077C131.155 61.6077 131.6 61.5006 131.964 61.2865C132.328 61.0723 132.647 60.7859 132.92 60.4272L133.82 61.1419C133.632 61.4257 133.394 61.696 133.105 61.953C132.816 62.21 132.459 62.4187 132.036 62.5793C131.619 62.74 131.123 62.8203 130.55 62.8203Z" fill="white"/>
<path d="M137.154 55.8259V62.6596H135.668V53.9709H137.074L137.154 55.8259ZM136.8 57.986L136.182 57.962C136.187 57.3677 136.276 56.819 136.447 56.3158C136.618 55.8072 136.859 55.3655 137.17 54.9908C137.481 54.616 137.85 54.3269 138.279 54.1235C138.713 53.9147 139.192 53.8103 139.717 53.8103C140.145 53.8103 140.531 53.8692 140.874 53.987C141.216 54.0994 141.508 54.2814 141.749 54.533C141.996 54.7847 142.183 55.1112 142.312 55.5127C142.44 55.9089 142.505 56.3934 142.505 56.9662V62.6596H141.01V56.9501C141.01 56.4951 140.943 56.1311 140.809 55.858C140.675 55.5797 140.48 55.3789 140.223 55.2558C139.966 55.1273 139.65 55.063 139.275 55.063C138.905 55.063 138.568 55.1407 138.263 55.2959C137.963 55.4512 137.703 55.6653 137.483 55.9383C137.269 56.2114 137.1 56.5245 136.977 56.8779C136.859 57.2259 136.8 57.5952 136.8 57.986Z" fill="white"/>
<path d="M148.241 61.5997C148.594 61.5997 148.921 61.5274 149.221 61.3828C149.521 61.2383 149.767 61.0402 149.96 60.7886C150.153 60.5316 150.263 60.2399 150.29 59.9133H151.703C151.677 60.4272 151.503 60.9064 151.181 61.3507C150.865 61.7897 150.45 62.1457 149.936 62.4187C149.422 62.6864 148.857 62.8203 148.241 62.8203C147.587 62.8203 147.017 62.7052 146.53 62.475C146.048 62.2448 145.646 61.9289 145.324 61.5274C145.008 61.1259 144.77 60.6655 144.609 60.1462C144.454 59.6215 144.376 59.0675 144.376 58.4839V58.1467C144.376 57.5631 144.454 57.0117 144.609 56.4924C144.77 55.9678 145.008 55.5047 145.324 55.1032C145.646 54.7017 146.048 54.3858 146.53 54.1556C147.017 53.9254 147.587 53.8103 148.241 53.8103C148.921 53.8103 149.516 53.9495 150.024 54.2279C150.533 54.5009 150.932 54.8757 151.221 55.3521C151.516 55.8232 151.677 56.3586 151.703 56.9582H150.29C150.263 56.5995 150.161 56.2756 149.984 55.9865C149.813 55.6974 149.577 55.4672 149.277 55.2959C148.983 55.1193 148.637 55.0309 148.241 55.0309C147.786 55.0309 147.403 55.1219 147.092 55.3039C146.787 55.4806 146.543 55.7215 146.361 56.0267C146.184 56.3265 146.056 56.6611 145.975 57.0304C145.9 57.3945 145.863 57.7666 145.863 58.1467V58.4839C145.863 58.864 145.9 59.2388 145.975 59.6082C146.05 59.9775 146.176 60.3121 146.353 60.6119C146.535 60.9117 146.779 61.1526 147.084 61.3347C147.395 61.5113 147.78 61.5997 148.241 61.5997Z" fill="white"/>
<path d="M156.982 62.8203C156.377 62.8203 155.828 62.7185 155.335 62.5151C154.847 62.3063 154.427 62.0146 154.074 61.6398C153.725 61.2651 153.458 60.8207 153.27 60.3068C153.083 59.7929 152.989 59.2307 152.989 58.6204V58.2832C152.989 57.5765 153.093 56.9475 153.302 56.3961C153.511 55.8393 153.795 55.3682 154.154 54.9827C154.513 54.5973 154.92 54.3055 155.375 54.1074C155.83 53.9094 156.302 53.8103 156.789 53.8103C157.41 53.8103 157.946 53.9174 158.396 54.1315C158.851 54.3457 159.223 54.6455 159.513 55.0309C159.802 55.411 160.016 55.8607 160.155 56.38C160.294 56.8939 160.364 57.4561 160.364 58.0663V58.7329H153.873V57.5203H158.878V57.4079C158.856 57.0224 158.776 56.6477 158.637 56.2836C158.503 55.9196 158.289 55.6198 157.994 55.3842C157.7 55.1487 157.298 55.0309 156.789 55.0309C156.452 55.0309 156.141 55.1032 155.857 55.2477C155.573 55.3869 155.329 55.5957 155.126 55.8741C154.922 56.1525 154.764 56.4924 154.652 56.8939C154.539 57.2954 154.483 57.7585 154.483 58.2832V58.6204C154.483 59.0327 154.539 59.4208 154.652 59.7848C154.77 60.1435 154.938 60.4594 155.158 60.7324C155.383 61.0054 155.654 61.2196 155.97 61.3748C156.291 61.5301 156.655 61.6077 157.062 61.6077C157.587 61.6077 158.032 61.5006 158.396 61.2865C158.76 61.0723 159.079 60.7859 159.352 60.4272L160.252 61.1419C160.064 61.4257 159.826 61.696 159.537 61.953C159.247 62.21 158.891 62.4187 158.468 62.5793C158.05 62.74 157.555 62.8203 156.982 62.8203Z" fill="white"/>
<defs>
<linearGradient id="paint0_linear_96_662" x1="180.83" y1="18.4995" x2="169.185" y2="18.4995" gradientUnits="userSpaceOnUse">
<stop stop-color="#EA5F32"/>
<stop offset="1" stop-color="#F68D3B"/>
</linearGradient>
<linearGradient id="paint1_linear_96_662" x1="184.439" y1="18.2549" x2="196.084" y2="18.2549" gradientUnits="userSpaceOnUse">
<stop stop-color="#EA5F32"/>
<stop offset="1" stop-color="#F68D3B"/>
</linearGradient>
<linearGradient id="paint2_linear_96_662" x1="159.647" y1="28.7669" x2="149.563" y2="33.1712" gradientUnits="userSpaceOnUse">
<stop stop-color="#EA5F32"/>
<stop offset="1" stop-color="#F68D3B"/>
</linearGradient>
<linearGradient id="paint3_linear_96_662" x1="6.23272" y1="18.3986" x2="0" y2="18.3986" gradientUnits="userSpaceOnUse">
<stop stop-color="#EA5F32"/>
<stop offset="1" stop-color="#F68D3B"/>
</linearGradient>
<linearGradient id="paint4_linear_96_662" x1="6.23272" y1="18.3986" x2="0" y2="18.3986" gradientUnits="userSpaceOnUse">
<stop stop-color="#EA5F32"/>
<stop offset="1" stop-color="#F68D3B"/>
</linearGradient>
<linearGradient id="paint5_linear_96_662" x1="10.0052" y1="3.13427" x2="0" y2="3.13427" gradientUnits="userSpaceOnUse">
<stop stop-color="#EA5F32"/>
<stop offset="1" stop-color="#F68D3B"/>
</linearGradient>
<linearGradient id="paint6_linear_96_662" x1="11.3173" y1="3.13427" x2="0" y2="3.13427" gradientUnits="userSpaceOnUse">
<stop stop-color="#EA5F32"/>
<stop offset="1" stop-color="#F68D3B"/>
</linearGradient>
<linearGradient id="paint7_linear_96_662" x1="5.08459" y1="18.3986" x2="0" y2="18.3986" gradientUnits="userSpaceOnUse">
<stop stop-color="#EA5F32"/>
<stop offset="1" stop-color="#F68D3B"/>
</linearGradient>
<linearGradient id="paint8_linear_96_662" x1="10.0052" y1="2.89004" x2="0" y2="2.89004" gradientUnits="userSpaceOnUse">
<stop stop-color="#EA5F32"/>
<stop offset="1" stop-color="#F68D3B"/>
</linearGradient>
<linearGradient id="paint9_linear_96_662" x1="6.23272" y1="18.3986" x2="0" y2="18.3986" gradientUnits="userSpaceOnUse">
<stop stop-color="#EA5F32"/>
<stop offset="1" stop-color="#F68D3B"/>
</linearGradient>
<linearGradient id="paint10_linear_96_662" x1="18.0421" y1="2.89004" x2="0" y2="2.89004" gradientUnits="userSpaceOnUse">
<stop stop-color="#EA5F32"/>
<stop offset="1" stop-color="#F68D3B"/>
</linearGradient>
<linearGradient id="paint11_linear_96_662" x1="18.0421" y1="2.89004" x2="0" y2="2.89004" gradientUnits="userSpaceOnUse">
<stop stop-color="#EA5F32"/>
<stop offset="1" stop-color="#F68D3B"/>
</linearGradient>
<linearGradient id="paint12_linear_96_662" x1="10.0052" y1="2.89004" x2="0" y2="2.89004" gradientUnits="userSpaceOnUse">
<stop stop-color="#EA5F32"/>
<stop offset="1" stop-color="#F68D3B"/>
</linearGradient>
<linearGradient id="paint13_linear_96_662" x1="6.23272" y1="18.3986" x2="0" y2="18.3986" gradientUnits="userSpaceOnUse">
<stop stop-color="#EA5F32"/>
<stop offset="1" stop-color="#F68D3B"/>
</linearGradient>
<linearGradient id="paint14_linear_96_662" x1="18.0421" y1="2.89004" x2="0" y2="2.89004" gradientUnits="userSpaceOnUse">
<stop stop-color="#EA5F32"/>
<stop offset="1" stop-color="#F68D3B"/>
</linearGradient>
<linearGradient id="paint15_linear_96_662" x1="18.0421" y1="2.89004" x2="0" y2="2.89004" gradientUnits="userSpaceOnUse">
<stop stop-color="#EA5F32"/>
<stop offset="1" stop-color="#F68D3B"/>
</linearGradient>
<linearGradient id="paint16_linear_96_662" x1="124.819" y1="26.8243" x2="109.237" y2="26.8243" gradientUnits="userSpaceOnUse">
<stop stop-color="#EA5F32"/>
<stop offset="1" stop-color="#F68D3B"/>
</linearGradient>
<linearGradient id="paint17_linear_96_662" x1="113.378" y1="22.9165" x2="98.0017" y2="22.9165" gradientUnits="userSpaceOnUse">
<stop stop-color="#EA5F32"/>
<stop offset="1" stop-color="#F68D3B"/>
</linearGradient>
<linearGradient id="paint18_linear_96_662" x1="135.111" y1="30.4259" x2="106.991" y2="6.57437" gradientUnits="userSpaceOnUse">
<stop stop-color="#EA5F32"/>
<stop offset="1" stop-color="#F68D3B"/>
</linearGradient>
<linearGradient id="paint19_linear_96_662" x1="6.23272" y1="18.3986" x2="0" y2="18.3986" gradientUnits="userSpaceOnUse">
<stop stop-color="#EA5F32"/>
<stop offset="1" stop-color="#F68D3B"/>
</linearGradient>
<linearGradient id="paint20_linear_96_662" x1="226.877" y1="17.687" x2="212.74" y2="14.7943" gradientUnits="userSpaceOnUse">
<stop stop-color="#EA5F32"/>
<stop offset="1" stop-color="#F68D3B"/>
</linearGradient>
<linearGradient id="paint21_linear_96_662" x1="228" y1="44.4516" x2="0" y2="44.4516" gradientUnits="userSpaceOnUse">
<stop stop-color="#EA5F32"/>
<stop offset="1" stop-color="#F68D3B"/>
</linearGradient>
</defs>
</svg>
