<svg width="367" height="110" viewBox="0 0 367 110" fill="none" xmlns="http://www.w3.org/2000/svg">
<path d="M290.412 9.81035V0H279.26C275.09 0 271.71 3.35933 271.71 7.50328V50.6394C271.71 54.7833 275.09 58.1427 279.26 58.1427H290.412V48.8555H280.666V9.81035H290.412Z" fill="url(#paint0_linear_409_894)"/>
<path d="M296.208 9.81035V0H307.361C311.53 0 314.91 3.35933 314.91 7.50328V50.6394C314.91 54.7833 311.53 58.1427 307.361 58.1427H296.208V48.8555H305.954V9.81035H296.208Z" fill="url(#paint1_linear_409_894)"/>
<path d="M252.613 59.1239L260.99 53.6836L227.589 0.0674426L217.842 6.40965L252.613 59.1239Z" fill="url(#paint2_linear_409_894)"/>
<rect width="10.0097" height="59.1237" transform="matrix(1 0 0 -1 217.579 59.1238)" fill="url(#paint3_linear_409_894)"/>
<rect width="10.0097" height="59.1237" transform="matrix(1 0 0 -1 252.615 59.1238)" fill="url(#paint4_linear_409_894)"/>
<rect width="16.0683" height="10.072" transform="matrix(1 0 0 -1 57.0273 59.1238)" fill="url(#paint5_linear_409_894)"/>
<rect width="18.1756" height="10.072" transform="matrix(1 0 0 -1 77.9658 59.1238)" fill="url(#paint6_linear_409_894)"/>
<rect width="8.16583" height="59.1237" transform="matrix(1 0 0 -1 54.3916 59.1238)" fill="url(#paint7_linear_409_894)"/>
<rect width="16.0683" height="9.28713" transform="matrix(1 0 0 -1 8.9541 34.1399)" fill="url(#paint8_linear_409_894)"/>
<rect width="10.0097" height="59.1237" transform="matrix(1 0 0 -1 0 59.1238)" fill="url(#paint9_linear_409_894)"/>
<rect width="28.9755" height="9.28713" transform="matrix(1 0 0 -1 14.3545 9.28687)" fill="url(#paint10_linear_409_894)"/>
<rect width="28.9755" height="9.28713" transform="matrix(1 0 0 -1 14.3545 58.9927)" fill="url(#paint11_linear_409_894)"/>
<rect width="16.0683" height="9.28713" transform="matrix(1 0 0 -1 116.032 34.1401)" fill="url(#paint12_linear_409_894)"/>
<rect width="10.0097" height="59.1237" transform="matrix(1 0 0 -1 107.078 59.1243)" fill="url(#paint13_linear_409_894)"/>
<rect width="28.9755" height="9.28713" transform="matrix(1 0 0 -1 121.433 9.28687)" fill="url(#paint14_linear_409_894)"/>
<rect width="28.9755" height="9.28713" transform="matrix(1 0 0 -1 121.433 58.9927)" fill="url(#paint15_linear_409_894)"/>
<path d="M175.43 47.7429H200.455V38.4558H179.908L175.43 47.7429Z" fill="url(#paint16_linear_409_894)"/>
<path d="M174.05 14.5183L182.084 18.3116L167.398 59.1227H157.389L174.05 14.5183Z" fill="url(#paint17_linear_409_894)"/>
<path d="M191.896 9.16544L188.867 0.129883H179.516L176.75 10.1476L183.862 12.963L201.774 59.1228H211.784L191.896 9.16544Z" fill="url(#paint18_linear_409_894)"/>
<rect width="10.0097" height="59.1237" transform="matrix(1 0 0 -1 324.127 59.1238)" fill="url(#paint19_linear_409_894)"/>
<path d="M358.765 59.1237L344.343 33.5796H338.877V25.1521H358.502V9.73418H338.877V0H361.773C363.858 0 365.548 1.67967 365.548 3.75164V29.828C365.548 31.9 363.858 33.5796 361.773 33.5796H353.431L365.548 50.8921V59.1237H358.765Z" fill="url(#paint20_linear_409_894)"/>
<path fill-rule="evenodd" clip-rule="evenodd" d="M366.167 72.3665H0V70.479H366.167V72.3665Z" fill="url(#paint21_linear_409_894)"/>
<path d="M276.364 103.425C275.297 103.425 274.329 103.245 273.461 102.886C272.602 102.518 271.861 102.004 271.238 101.343C270.624 100.682 270.152 99.8987 269.822 98.9924C269.491 98.0862 269.326 97.095 269.326 96.0188V95.4241C269.326 94.178 269.51 93.0688 269.878 92.0964C270.247 91.1147 270.747 90.2839 271.379 89.6042C272.012 88.9246 272.729 88.4101 273.532 88.0608C274.334 87.7115 275.165 87.5369 276.024 87.5369C277.119 87.5369 278.063 87.7257 278.856 88.1033C279.658 88.4809 280.314 89.0095 280.824 89.6892C281.334 90.3595 281.712 91.1524 281.957 92.0681C282.202 92.9744 282.325 93.9656 282.325 95.0417V96.217H270.884V94.0789H279.706V93.8806C279.668 93.2009 279.526 92.5401 279.281 91.8982C279.045 91.2563 278.667 90.7276 278.148 90.3123C277.629 89.8969 276.921 89.6892 276.024 89.6892C275.429 89.6892 274.882 89.8167 274.381 90.0715C273.881 90.317 273.451 90.6851 273.093 91.176C272.734 91.6669 272.456 92.2664 272.257 92.9744C272.059 93.6824 271.96 94.4989 271.96 95.4241V96.0188C271.96 96.7457 272.059 97.4301 272.257 98.072C272.465 98.7045 272.762 99.2615 273.149 99.7429C273.546 100.224 274.023 100.602 274.58 100.876C275.146 101.149 275.788 101.286 276.505 101.286C277.431 101.286 278.214 101.098 278.856 100.72C279.498 100.342 280.06 99.8373 280.541 99.2048L282.127 100.465C281.797 100.965 281.376 101.442 280.867 101.895C280.357 102.348 279.729 102.717 278.983 103C278.247 103.283 277.374 103.425 276.364 103.425Z" fill="#121C22"/>
<path d="M260.958 101.272C261.581 101.272 262.156 101.145 262.685 100.89C263.214 100.635 263.648 100.286 263.988 99.842C264.328 99.3889 264.521 98.8744 264.568 98.2986H267.061C267.013 99.2048 266.707 100.05 266.14 100.833C265.583 101.607 264.852 102.235 263.945 102.717C263.039 103.189 262.043 103.425 260.958 103.425C259.806 103.425 258.8 103.222 257.941 102.816C257.092 102.41 256.384 101.853 255.817 101.145C255.26 100.437 254.84 99.6249 254.557 98.7092C254.283 97.7841 254.146 96.807 254.146 95.7781V95.1833C254.146 94.1544 254.283 93.182 254.557 92.2664C254.84 91.3412 255.26 90.5247 255.817 89.8167C256.384 89.1086 257.092 88.5517 257.941 88.1458C258.8 87.7398 259.806 87.5369 260.958 87.5369C262.156 87.5369 263.204 87.7823 264.101 88.2732C264.998 88.7546 265.701 89.4154 266.211 90.2556C266.73 91.0863 267.013 92.0304 267.061 93.0876H264.568C264.521 92.4552 264.342 91.884 264.03 91.3743C263.728 90.8645 263.313 90.4586 262.784 90.1565C262.265 89.845 261.656 89.6892 260.958 89.6892C260.155 89.6892 259.48 89.8497 258.933 90.1707C258.395 90.4822 257.965 90.907 257.644 91.4451C257.333 91.9737 257.106 92.5637 256.964 93.2151C256.832 93.857 256.766 94.5131 256.766 95.1833V95.7781C256.766 96.4483 256.832 97.1091 256.964 97.7605C257.097 98.4119 257.318 99.0019 257.63 99.5305C257.951 100.059 258.38 100.484 258.918 100.805C259.466 101.116 260.146 101.272 260.958 101.272Z" fill="#121C22"/>
<path d="M241.417 91.0911V103.141H238.797V87.8201H241.275L241.417 91.0911ZM240.793 94.9001L239.703 94.8577C239.713 93.8098 239.868 92.8422 240.17 91.9548C240.472 91.058 240.897 90.2792 241.445 89.6184C241.992 88.9576 242.644 88.4478 243.399 88.0891C244.164 87.7209 245.008 87.5369 245.934 87.5369C246.689 87.5369 247.368 87.6407 247.973 87.8484C248.577 88.0466 249.091 88.3676 249.516 88.8113C249.95 89.255 250.281 89.8308 250.507 90.5388C250.734 91.2374 250.847 92.0917 250.847 93.1018V103.141H248.213V93.0735C248.213 92.2711 248.095 91.6292 247.859 91.1477C247.623 90.6568 247.279 90.3028 246.826 90.0857C246.373 89.8591 245.816 89.7458 245.155 89.7458C244.503 89.7458 243.909 89.8827 243.371 90.1565C242.842 90.4303 242.384 90.8079 241.997 91.2893C241.619 91.7708 241.322 92.323 241.105 92.946C240.897 93.5597 240.793 94.211 240.793 94.9001Z" fill="#121C22"/>
<path d="M229.777 103.425C228.71 103.425 227.743 103.245 226.874 102.886C226.015 102.518 225.274 102.004 224.651 101.343C224.037 100.682 223.565 99.8987 223.235 98.9924C222.904 98.0862 222.739 97.095 222.739 96.0188V95.4241C222.739 94.178 222.923 93.0688 223.292 92.0964C223.66 91.1147 224.16 90.2839 224.792 89.6042C225.425 88.9246 226.142 88.4101 226.945 88.0608C227.747 87.7115 228.578 87.5369 229.437 87.5369C230.532 87.5369 231.476 87.7257 232.269 88.1033C233.071 88.4809 233.728 89.0095 234.237 89.6892C234.747 90.3595 235.125 91.1524 235.37 92.0681C235.616 92.9744 235.738 93.9656 235.738 95.0417V96.217H224.297V94.0789H233.119V93.8806C233.081 93.2009 232.939 92.5401 232.694 91.8982C232.458 91.2563 232.08 90.7276 231.561 90.3123C231.042 89.8969 230.334 89.6892 229.437 89.6892C228.842 89.6892 228.295 89.8167 227.794 90.0715C227.294 90.317 226.865 90.6851 226.506 91.176C226.147 91.6669 225.869 92.2664 225.67 92.9744C225.472 93.6824 225.373 94.4989 225.373 95.4241V96.0188C225.373 96.7457 225.472 97.4301 225.67 98.072C225.878 98.7045 226.175 99.2615 226.562 99.7429C226.959 100.224 227.436 100.602 227.993 100.876C228.559 101.149 229.201 101.286 229.918 101.286C230.844 101.286 231.627 101.098 232.269 100.72C232.911 100.342 233.473 99.8373 233.954 99.2048L235.54 100.465C235.21 100.965 234.79 101.442 234.28 101.895C233.77 102.348 233.142 102.717 232.396 103C231.66 103.283 230.787 103.425 229.777 103.425Z" fill="#121C22"/>
<path d="M219.213 81.3914V103.141H216.58V81.3914H219.213Z" fill="#121C22"/>
<path d="M212.162 81.3914V103.141H209.528V81.3914H212.162Z" fill="#121C22"/>
<path d="M200.295 103.425C199.229 103.425 198.261 103.245 197.393 102.886C196.534 102.518 195.792 102.004 195.169 101.343C194.556 100.682 194.084 99.8987 193.753 98.9924C193.423 98.0862 193.258 97.095 193.258 96.0188V95.4241C193.258 94.178 193.442 93.0688 193.81 92.0964C194.178 91.1147 194.679 90.2839 195.311 89.6042C195.944 88.9246 196.661 88.4101 197.463 88.0608C198.266 87.7115 199.097 87.5369 199.956 87.5369C201.051 87.5369 201.995 87.7257 202.788 88.1033C203.59 88.4809 204.246 89.0095 204.756 89.6892C205.266 90.3595 205.643 91.1524 205.889 92.0681C206.134 92.9744 206.257 93.9656 206.257 95.0417V96.217H194.815V94.0789H203.637V93.8806C203.599 93.2009 203.458 92.5401 203.212 91.8982C202.976 91.2563 202.599 90.7276 202.08 90.3123C201.56 89.8969 200.852 89.6892 199.956 89.6892C199.361 89.6892 198.813 89.8167 198.313 90.0715C197.813 90.317 197.383 90.6851 197.024 91.176C196.666 91.6669 196.387 92.2664 196.189 92.9744C195.991 93.6824 195.892 94.4989 195.892 95.4241V96.0188C195.892 96.7457 195.991 97.4301 196.189 98.072C196.397 98.7045 196.694 99.2615 197.081 99.7429C197.478 100.224 197.954 100.602 198.511 100.876C199.078 101.149 199.72 101.286 200.437 101.286C201.362 101.286 202.146 101.098 202.788 100.72C203.43 100.342 203.991 99.8373 204.473 99.2048L206.059 100.465C205.728 100.965 205.308 101.442 204.798 101.895C204.289 102.348 203.661 102.717 202.915 103C202.179 103.283 201.306 103.425 200.295 103.425Z" fill="#121C22"/>
<path d="M184.889 101.272C185.512 101.272 186.088 101.145 186.617 100.89C187.145 100.635 187.58 100.286 187.919 99.842C188.259 99.3889 188.453 98.8744 188.5 98.2986H190.992C190.945 99.2048 190.638 100.05 190.072 100.833C189.515 101.607 188.783 102.235 187.877 102.717C186.971 103.189 185.975 103.425 184.889 103.425C183.737 103.425 182.732 103.222 181.873 102.816C181.023 102.41 180.315 101.853 179.749 101.145C179.192 100.437 178.772 99.6249 178.489 98.7092C178.215 97.7841 178.078 96.807 178.078 95.7781V95.1833C178.078 94.1544 178.215 93.182 178.489 92.2664C178.772 91.3412 179.192 90.5247 179.749 89.8167C180.315 89.1086 181.023 88.5517 181.873 88.1458C182.732 87.7398 183.737 87.5369 184.889 87.5369C186.088 87.5369 187.136 87.7823 188.033 88.2732C188.93 88.7546 189.633 89.4154 190.143 90.2556C190.662 91.0863 190.945 92.0304 190.992 93.0876H188.5C188.453 92.4552 188.273 91.884 187.962 91.3743C187.66 90.8645 187.244 90.4586 186.716 90.1565C186.197 89.845 185.588 89.6892 184.889 89.6892C184.087 89.6892 183.412 89.8497 182.864 90.1707C182.326 90.4822 181.897 90.907 181.576 91.4451C181.264 91.9737 181.038 92.5637 180.896 93.2151C180.764 93.857 180.698 94.5131 180.698 95.1833V95.7781C180.698 96.4483 180.764 97.1091 180.896 97.7605C181.028 98.4119 181.25 99.0019 181.562 99.5305C181.882 100.059 182.312 100.484 182.85 100.805C183.398 101.116 184.077 101.272 184.889 101.272Z" fill="#121C22"/>
<path d="M166.424 87.8201L169.78 93.3992L173.179 87.8201H176.251L171.239 95.3816L176.407 103.141H173.377L169.837 97.3923L166.297 103.141H163.252L168.407 95.3816L163.408 87.8201H166.424Z" fill="#121C22"/>
<path d="M161.667 100.918V103.141H150.749V100.918H161.667ZM151.301 82.5242V103.141H148.568V82.5242H151.301ZM160.222 91.3884V93.6116H150.749V91.3884H160.222ZM161.525 82.5242V84.7615H150.749V82.5242H161.525Z" fill="#121C22"/>
<path d="M131.958 103.425C130.892 103.425 129.924 103.245 129.056 102.886C128.197 102.518 127.456 102.004 126.833 101.343C126.219 100.682 125.747 99.8987 125.417 98.9924C125.086 98.0862 124.921 97.095 124.921 96.0188V95.4241C124.921 94.178 125.105 93.0688 125.473 92.0964C125.841 91.1147 126.342 90.2839 126.974 89.6042C127.607 88.9246 128.324 88.4101 129.126 88.0608C129.929 87.7115 130.76 87.5369 131.619 87.5369C132.714 87.5369 133.658 87.7257 134.451 88.1033C135.253 88.4809 135.909 89.0095 136.419 89.6892C136.929 90.3595 137.306 91.1524 137.552 92.0681C137.797 92.9744 137.92 93.9656 137.92 95.0417V96.217H126.479V94.0789H135.3V93.8806C135.263 93.2009 135.121 92.5401 134.875 91.8982C134.639 91.2563 134.262 90.7276 133.743 90.3123C133.223 89.8969 132.515 89.6892 131.619 89.6892C131.024 89.6892 130.476 89.8167 129.976 90.0715C129.476 90.317 129.046 90.6851 128.688 91.176C128.329 91.6669 128.05 92.2664 127.852 92.9744C127.654 93.6824 127.555 94.4989 127.555 95.4241V96.0188C127.555 96.7457 127.654 97.4301 127.852 98.072C128.06 98.7045 128.357 99.2615 128.744 99.7429C129.141 100.224 129.617 100.602 130.174 100.876C130.741 101.149 131.383 101.286 132.1 101.286C133.025 101.286 133.809 101.098 134.451 100.72C135.093 100.342 135.654 99.8373 136.136 99.2048L137.722 100.465C137.391 100.965 136.971 101.442 136.461 101.895C135.952 102.348 135.324 102.717 134.578 103C133.842 103.283 132.969 103.425 131.958 103.425Z" fill="#121C22"/>
<path d="M116.552 101.272C117.175 101.272 117.751 101.145 118.28 100.89C118.808 100.635 119.243 100.286 119.583 99.842C119.922 99.3889 120.116 98.8744 120.163 98.2986H122.655C122.608 99.2048 122.301 100.05 121.735 100.833C121.178 101.607 120.446 102.235 119.54 102.717C118.634 103.189 117.638 103.425 116.552 103.425C115.401 103.425 114.395 103.222 113.536 102.816C112.687 102.41 111.979 101.853 111.412 101.145C110.855 100.437 110.435 99.6249 110.152 98.7092C109.878 97.7841 109.741 96.807 109.741 95.7781V95.1833C109.741 94.1544 109.878 93.182 110.152 92.2664C110.435 91.3412 110.855 90.5247 111.412 89.8167C111.979 89.1086 112.687 88.5517 113.536 88.1458C114.395 87.7398 115.401 87.5369 116.552 87.5369C117.751 87.5369 118.799 87.7823 119.696 88.2732C120.593 88.7546 121.296 89.4154 121.806 90.2556C122.325 91.0863 122.608 92.0304 122.655 93.0876H120.163C120.116 92.4552 119.937 91.884 119.625 91.3743C119.323 90.8645 118.908 90.4586 118.379 90.1565C117.86 89.845 117.251 89.6892 116.552 89.6892C115.75 89.6892 115.075 89.8497 114.527 90.1707C113.989 90.4822 113.56 90.907 113.239 91.4451C112.927 91.9737 112.701 92.5637 112.559 93.2151C112.427 93.857 112.361 94.5131 112.361 95.1833V95.7781C112.361 96.4483 112.427 97.1091 112.559 97.7605C112.691 98.4119 112.913 99.0019 113.225 99.5305C113.546 100.059 113.975 100.484 114.513 100.805C115.061 101.116 115.74 101.272 116.552 101.272Z" fill="#121C22"/>
<path d="M97.0112 91.0911V103.141H94.3916V87.8201H96.8696L97.0112 91.0911ZM96.3882 94.9001L95.2979 94.8577C95.3073 93.8098 95.4631 92.8422 95.7651 91.9548C96.0672 91.058 96.492 90.2792 97.0396 89.6184C97.5871 88.9576 98.2384 88.4478 98.9937 88.0891C99.7583 87.7209 100.603 87.5369 101.528 87.5369C102.284 87.5369 102.963 87.6407 103.567 87.8484C104.172 88.0466 104.686 88.3676 105.111 88.8113C105.545 89.255 105.875 89.8308 106.102 90.5388C106.329 91.2374 106.442 92.0917 106.442 93.1018V103.141H103.808V93.0735C103.808 92.2711 103.69 91.6292 103.454 91.1477C103.218 90.6568 102.874 90.3028 102.42 90.0857C101.967 89.8591 101.41 89.7458 100.75 89.7458C100.098 89.7458 99.5034 89.8827 98.9653 90.1565C98.4367 90.4303 97.9788 90.8079 97.5918 91.2893C97.2142 91.7708 96.9168 92.323 96.6997 92.946C96.492 93.5597 96.3882 94.211 96.3882 94.9001Z" fill="#121C22"/>
<path d="M85.3716 103.425C84.3049 103.425 83.3372 103.245 82.4688 102.886C81.6097 102.518 80.8687 102.004 80.2456 101.343C79.632 100.682 79.16 99.8987 78.8296 98.9924C78.4992 98.0862 78.334 97.095 78.334 96.0188V95.4241C78.334 94.178 78.5181 93.0688 78.8862 92.0964C79.2544 91.1147 79.7547 90.2839 80.3872 89.6042C81.0197 88.9246 81.7371 88.4101 82.5396 88.0608C83.342 87.7115 84.1727 87.5369 85.0317 87.5369C86.1268 87.5369 87.0708 87.7257 87.8638 88.1033C88.6662 88.4809 89.3223 89.0095 89.832 89.6892C90.3418 90.3595 90.7194 91.1524 90.9648 92.0681C91.2103 92.9744 91.333 93.9656 91.333 95.0417V96.217H79.8916V94.0789H88.7134V93.8806C88.6756 93.2009 88.534 92.5401 88.2886 91.8982C88.0526 91.2563 87.675 90.7276 87.1558 90.3123C86.6366 89.8969 85.9285 89.6892 85.0317 89.6892C84.437 89.6892 83.8895 89.8167 83.3892 90.0715C82.8888 90.317 82.4593 90.6851 82.1006 91.176C81.7419 91.6669 81.4634 92.2664 81.2651 92.9744C81.0669 93.6824 80.9678 94.4989 80.9678 95.4241V96.0188C80.9678 96.7457 81.0669 97.4301 81.2651 98.072C81.4728 98.7045 81.7702 99.2615 82.1572 99.7429C82.5537 100.224 83.0304 100.602 83.5874 100.876C84.1538 101.149 84.7957 101.286 85.5132 101.286C86.4383 101.286 87.2218 101.098 87.8638 100.72C88.5057 100.342 89.0674 99.8373 89.5488 99.2048L91.1348 100.465C90.8044 100.965 90.3843 101.442 89.8745 101.895C89.3647 102.348 88.737 102.717 87.9912 103C87.2549 103.283 86.3817 103.425 85.3716 103.425Z" fill="#121C22"/>
<path d="M74.8081 87.8201V103.141H72.1743V87.8201H74.8081ZM71.9761 83.7561C71.9761 83.3313 72.1035 82.9726 72.3584 82.6799C72.6227 82.3873 73.0098 82.241 73.5195 82.241C74.0199 82.241 74.4022 82.3873 74.6665 82.6799C74.9403 82.9726 75.0771 83.3313 75.0771 83.7561C75.0771 84.162 74.9403 84.5113 74.6665 84.804C74.4022 85.0872 74.0199 85.2288 73.5195 85.2288C73.0098 85.2288 72.6227 85.0872 72.3584 84.804C72.1035 84.5113 71.9761 84.162 71.9761 83.7561Z" fill="#121C22"/>
<path d="M64.7544 90.2273V103.141H62.1348V87.8201H64.6836L64.7544 90.2273ZM69.5405 87.7351L69.5264 90.1707C69.3092 90.1235 69.1016 90.0951 68.9033 90.0857C68.7145 90.0668 68.4974 90.0574 68.252 90.0574C67.6478 90.0574 67.1144 90.1518 66.6519 90.3406C66.1893 90.5294 65.7975 90.7937 65.4766 91.1335C65.1556 91.4734 64.9007 91.8793 64.7119 92.3513C64.5326 92.8139 64.4146 93.3236 64.3579 93.8806L63.6216 94.3054C63.6216 93.3803 63.7113 92.5118 63.8906 91.7C64.0794 90.8881 64.3674 90.1707 64.7544 89.5476C65.1414 88.9151 65.6323 88.4242 66.2271 88.075C66.8312 87.7162 67.5487 87.5369 68.3794 87.5369C68.5682 87.5369 68.7853 87.5605 69.0308 87.6077C69.2762 87.6454 69.4461 87.6879 69.5405 87.7351Z" fill="#121C22"/>
<path d="M53.1147 103.425C52.048 103.425 51.0804 103.245 50.2119 102.886C49.3529 102.518 48.6118 102.004 47.9888 101.343C47.3752 100.682 46.9032 99.8987 46.5728 98.9924C46.2424 98.0862 46.0771 97.095 46.0771 96.0188V95.4241C46.0771 94.178 46.2612 93.0688 46.6294 92.0964C46.9976 91.1147 47.4979 90.2839 48.1304 89.6042C48.7629 88.9246 49.4803 88.4101 50.2827 88.0608C51.0851 87.7115 51.9159 87.5369 52.7749 87.5369C53.87 87.5369 54.814 87.7257 55.6069 88.1033C56.4093 88.4809 57.0654 89.0095 57.5752 89.6892C58.085 90.3595 58.4626 91.1524 58.708 92.0681C58.9535 92.9744 59.0762 93.9656 59.0762 95.0417V96.217H47.6348V94.0789H56.4565V93.8806C56.4188 93.2009 56.2772 92.5401 56.0317 91.8982C55.7957 91.2563 55.4181 90.7276 54.8989 90.3123C54.3797 89.8969 53.6717 89.6892 52.7749 89.6892C52.1802 89.6892 51.6326 89.8167 51.1323 90.0715C50.632 90.317 50.2025 90.6851 49.8438 91.176C49.485 91.6669 49.2065 92.2664 49.0083 92.9744C48.8101 93.6824 48.7109 94.4989 48.7109 95.4241V96.0188C48.7109 96.7457 48.8101 97.4301 49.0083 98.072C49.216 98.7045 49.5133 99.2615 49.9004 99.7429C50.2969 100.224 50.7736 100.602 51.3306 100.876C51.897 101.149 52.5389 101.286 53.2563 101.286C54.1815 101.286 54.965 101.098 55.6069 100.72C56.2489 100.342 56.8105 99.8373 57.292 99.2048L58.8779 100.465C58.5475 100.965 58.1274 101.442 57.6177 101.895C57.1079 102.348 56.4801 102.717 55.7344 103C54.998 103.283 54.1248 103.425 53.1147 103.425Z" fill="#121C22"/>
<path d="M33.0923 90.7654V109.032H30.4585V87.8201H32.8657L33.0923 90.7654ZM43.415 95.3533V95.6506C43.415 96.7646 43.2829 97.7983 43.0186 98.7517C42.7542 99.6957 42.3672 100.517 41.8574 101.216C41.3571 101.914 40.7388 102.457 40.0024 102.844C39.2661 103.231 38.4212 103.425 37.4678 103.425C36.4954 103.425 35.6364 103.264 34.8906 102.943C34.1449 102.622 33.5124 102.155 32.9932 101.541C32.474 100.928 32.0586 100.191 31.7471 99.3323C31.445 98.4732 31.2373 97.5056 31.124 96.4294V94.8435C31.2373 93.7107 31.4497 92.6959 31.7612 91.7991C32.0728 90.9023 32.4834 90.1376 32.9932 89.5051C33.5124 88.8632 34.1401 88.377 34.8765 88.0466C35.6128 87.7068 36.4624 87.5369 37.4253 87.5369C38.3882 87.5369 39.2425 87.7257 39.9883 88.1033C40.734 88.4714 41.3618 89.0001 41.8716 89.6892C42.3813 90.3783 42.7637 91.2043 43.0186 92.1672C43.2829 93.1207 43.415 94.1827 43.415 95.3533ZM40.7812 95.6506V95.3533C40.7812 94.5886 40.701 93.8712 40.5405 93.2009C40.38 92.5212 40.1299 91.9265 39.79 91.4167C39.4596 90.8975 39.0348 90.4916 38.5156 90.199C37.9964 89.8969 37.3781 89.7458 36.6606 89.7458C35.9998 89.7458 35.424 89.8591 34.9331 90.0857C34.4517 90.3123 34.041 90.6191 33.7012 91.0061C33.3613 91.3837 33.0828 91.818 32.8657 92.3088C32.658 92.7903 32.5023 93.2906 32.3984 93.8098V97.4773C32.5872 98.1381 32.8516 98.7611 33.1914 99.3464C33.5312 99.9223 33.9844 100.39 34.5508 100.748C35.1172 101.098 35.8299 101.272 36.689 101.272C37.397 101.272 38.0059 101.126 38.5156 100.833C39.0348 100.531 39.4596 100.121 39.79 99.6013C40.1299 99.0821 40.38 98.4874 40.5405 97.8171C40.701 97.1375 40.7812 96.4153 40.7812 95.6506Z" fill="#121C22"/>
<path d="M17.856 87.8201L21.2119 93.3992L24.6104 87.8201H27.6831L22.6704 95.3816L27.8389 103.141H24.8086L21.2686 97.3923L17.7285 103.141H14.6841L19.8384 95.3816L14.8398 87.8201H17.856Z" fill="#121C22"/>
<path d="M13.0981 100.918V103.141H2.18066V100.918H13.0981ZM2.73291 82.5242V103.141H0V82.5242H2.73291ZM11.6538 91.3884V93.6116H2.18066V91.3884H11.6538ZM12.9565 82.5242V84.7615H2.18066V82.5242H12.9565Z" fill="#121C22"/>
<defs>
<linearGradient id="paint0_linear_409_894" x1="290.412" y1="29.0713" x2="271.71" y2="29.0713" gradientUnits="userSpaceOnUse">
<stop stop-color="#EA5F32"/>
<stop offset="1" stop-color="#F68D3B"/>
</linearGradient>
<linearGradient id="paint1_linear_409_894" x1="296.208" y1="29.0713" x2="314.91" y2="29.0713" gradientUnits="userSpaceOnUse">
<stop stop-color="#EA5F32"/>
<stop offset="1" stop-color="#F68D3B"/>
</linearGradient>
<linearGradient id="paint2_linear_409_894" x1="256.391" y1="46.221" x2="240.193" y2="53.2921" gradientUnits="userSpaceOnUse">
<stop stop-color="#EA5F32"/>
<stop offset="1" stop-color="#F68D3B"/>
</linearGradient>
<linearGradient id="paint3_linear_409_894" x1="10.0097" y1="29.5618" x2="0" y2="29.5618" gradientUnits="userSpaceOnUse">
<stop stop-color="#EA5F32"/>
<stop offset="1" stop-color="#F68D3B"/>
</linearGradient>
<linearGradient id="paint4_linear_409_894" x1="10.0097" y1="29.5618" x2="0" y2="29.5618" gradientUnits="userSpaceOnUse">
<stop stop-color="#EA5F32"/>
<stop offset="1" stop-color="#F68D3B"/>
</linearGradient>
<linearGradient id="paint5_linear_409_894" x1="16.0683" y1="5.03598" x2="0" y2="5.03598" gradientUnits="userSpaceOnUse">
<stop stop-color="#EA5F32"/>
<stop offset="1" stop-color="#F68D3B"/>
</linearGradient>
<linearGradient id="paint6_linear_409_894" x1="18.1756" y1="5.03598" x2="0" y2="5.03598" gradientUnits="userSpaceOnUse">
<stop stop-color="#EA5F32"/>
<stop offset="1" stop-color="#F68D3B"/>
</linearGradient>
<linearGradient id="paint7_linear_409_894" x1="8.16583" y1="29.5618" x2="0" y2="29.5618" gradientUnits="userSpaceOnUse">
<stop stop-color="#EA5F32"/>
<stop offset="1" stop-color="#F68D3B"/>
</linearGradient>
<linearGradient id="paint8_linear_409_894" x1="16.0683" y1="4.64356" x2="0" y2="4.64356" gradientUnits="userSpaceOnUse">
<stop stop-color="#EA5F32"/>
<stop offset="1" stop-color="#F68D3B"/>
</linearGradient>
<linearGradient id="paint9_linear_409_894" x1="10.0097" y1="29.5618" x2="0" y2="29.5618" gradientUnits="userSpaceOnUse">
<stop stop-color="#EA5F32"/>
<stop offset="1" stop-color="#F68D3B"/>
</linearGradient>
<linearGradient id="paint10_linear_409_894" x1="28.9755" y1="4.64356" x2="0" y2="4.64356" gradientUnits="userSpaceOnUse">
<stop stop-color="#EA5F32"/>
<stop offset="1" stop-color="#F68D3B"/>
</linearGradient>
<linearGradient id="paint11_linear_409_894" x1="28.9755" y1="4.64356" x2="0" y2="4.64356" gradientUnits="userSpaceOnUse">
<stop stop-color="#EA5F32"/>
<stop offset="1" stop-color="#F68D3B"/>
</linearGradient>
<linearGradient id="paint12_linear_409_894" x1="16.0683" y1="4.64356" x2="0" y2="4.64356" gradientUnits="userSpaceOnUse">
<stop stop-color="#EA5F32"/>
<stop offset="1" stop-color="#F68D3B"/>
</linearGradient>
<linearGradient id="paint13_linear_409_894" x1="10.0097" y1="29.5618" x2="0" y2="29.5618" gradientUnits="userSpaceOnUse">
<stop stop-color="#EA5F32"/>
<stop offset="1" stop-color="#F68D3B"/>
</linearGradient>
<linearGradient id="paint14_linear_409_894" x1="28.9755" y1="4.64356" x2="0" y2="4.64356" gradientUnits="userSpaceOnUse">
<stop stop-color="#EA5F32"/>
<stop offset="1" stop-color="#F68D3B"/>
</linearGradient>
<linearGradient id="paint15_linear_409_894" x1="28.9755" y1="4.64356" x2="0" y2="4.64356" gradientUnits="userSpaceOnUse">
<stop stop-color="#EA5F32"/>
<stop offset="1" stop-color="#F68D3B"/>
</linearGradient>
<linearGradient id="paint16_linear_409_894" x1="200.455" y1="43.0994" x2="175.43" y2="43.0994" gradientUnits="userSpaceOnUse">
<stop stop-color="#EA5F32"/>
<stop offset="1" stop-color="#F68D3B"/>
</linearGradient>
<linearGradient id="paint17_linear_409_894" x1="182.084" y1="36.8205" x2="157.389" y2="36.8205" gradientUnits="userSpaceOnUse">
<stop stop-color="#EA5F32"/>
<stop offset="1" stop-color="#F68D3B"/>
</linearGradient>
<linearGradient id="paint18_linear_409_894" x1="216.986" y1="48.8863" x2="171.808" y2="10.5838" gradientUnits="userSpaceOnUse">
<stop stop-color="#EA5F32"/>
<stop offset="1" stop-color="#F68D3B"/>
</linearGradient>
<linearGradient id="paint19_linear_409_894" x1="10.0097" y1="29.5618" x2="0" y2="29.5618" gradientUnits="userSpaceOnUse">
<stop stop-color="#EA5F32"/>
<stop offset="1" stop-color="#F68D3B"/>
</linearGradient>
<linearGradient id="paint20_linear_409_894" x1="364.363" y1="28.4186" x2="341.658" y2="23.7748" gradientUnits="userSpaceOnUse">
<stop stop-color="#EA5F32"/>
<stop offset="1" stop-color="#F68D3B"/>
</linearGradient>
<linearGradient id="paint21_linear_409_894" x1="366.167" y1="71.4227" x2="0" y2="71.4227" gradientUnits="userSpaceOnUse">
<stop stop-color="#EA5F32"/>
<stop offset="1" stop-color="#F68D3B"/>
</linearGradient>
</defs>
</svg>
