<svg width="512" height="512" viewBox="0 0 512 512" fill="none" xmlns="http://www.w3.org/2000/svg">
<g clip-path="url(#clip0_541_901)">
<path d="M512 0H0V512H512V0Z" fill="black"/>
<path d="M389 222.317V210H375.285C370.157 210 366 214.218 366 219.421V273.579C366 278.782 370.157 283 375.285 283H389V271.34H377.014V222.317H389Z" fill="url(#paint0_linear_541_901)"/>
<path d="M396 222.317V210H410.312C415.662 210 420 214.218 420 219.421V273.579C420 278.782 415.662 283 410.312 283H396V271.34H408.507V222.317H396Z" fill="url(#paint1_linear_541_901)"/>
<path d="M341.906 283.83L352.368 277.036L310.659 210.085L298.487 218.004L341.906 283.83Z" fill="url(#paint2_linear_541_901)"/>
<path d="M298 284H311V210H298V284Z" fill="url(#paint3_linear_541_901)"/>
<path d="M342 284H354V210H342V284Z" fill="url(#paint4_linear_541_901)"/>
<path d="M98 284H118V271H98V284Z" fill="url(#paint5_linear_541_901)"/>
<path d="M124 284H147V271H124V284Z" fill="url(#paint6_linear_541_901)"/>
<path d="M94 284H105V210H94V284Z" fill="url(#paint7_linear_541_901)"/>
<path d="M38 253H58V241H38V253Z" fill="url(#paint8_linear_541_901)"/>
<path d="M26 284H39V210H26V284Z" fill="url(#paint9_linear_541_901)"/>
<path d="M44 222H81V210H44V222Z" fill="url(#paint10_linear_541_901)"/>
<path d="M44 284H81V272H44V284Z" fill="url(#paint11_linear_541_901)"/>
<path d="M171 253H191V241H171V253Z" fill="url(#paint12_linear_541_901)"/>
<path d="M160 284H173V210H160V284Z" fill="url(#paint13_linear_541_901)"/>
<path d="M178 222H214V210H178V222Z" fill="url(#paint14_linear_541_901)"/>
<path d="M178 284H214V272H178V284Z" fill="url(#paint15_linear_541_901)"/>
<path d="M246 270H277V258H251.547L246 270Z" fill="url(#paint16_linear_541_901)"/>
<path d="M243.915 228L254 232.762L235.565 284H223L243.915 228Z" fill="url(#paint17_linear_541_901)"/>
<path d="M266.023 221.334L262.218 210H250.474L247 222.566L255.932 226.098L278.429 284H291L266.023 221.334Z" fill="url(#paint18_linear_541_901)"/>
<path d="M431 284H444V210H431V284Z" fill="url(#paint19_linear_541_901)"/>
<path d="M474.607 284L456.763 252.029H450V241.481H474.281V222.183H450V210H478.329C480.909 210 483 212.102 483 214.696V247.333C483 249.926 480.909 252.029 478.329 252.029H468.007L483 273.697V284H474.607Z" fill="url(#paint20_linear_541_901)"/>
<path fill-rule="evenodd" clip-rule="evenodd" d="M484 300H26V298H484V300Z" fill="url(#paint21_linear_541_901)"/>
</g>
<defs>
<linearGradient id="paint0_linear_541_901" x1="389" y1="246.5" x2="366" y2="246.5" gradientUnits="userSpaceOnUse">
<stop stop-color="#EA5F32"/>
<stop offset="1" stop-color="#F68D3B"/>
</linearGradient>
<linearGradient id="paint1_linear_541_901" x1="396" y1="246.5" x2="420" y2="246.5" gradientUnits="userSpaceOnUse">
<stop stop-color="#EA5F32"/>
<stop offset="1" stop-color="#F68D3B"/>
</linearGradient>
<linearGradient id="paint2_linear_541_901" x1="346.625" y1="267.718" x2="326.398" y2="276.548" gradientUnits="userSpaceOnUse">
<stop stop-color="#EA5F32"/>
<stop offset="1" stop-color="#F68D3B"/>
</linearGradient>
<linearGradient id="paint3_linear_541_901" x1="311" y1="247" x2="298" y2="247" gradientUnits="userSpaceOnUse">
<stop stop-color="#EA5F32"/>
<stop offset="1" stop-color="#F68D3B"/>
</linearGradient>
<linearGradient id="paint4_linear_541_901" x1="354" y1="247" x2="342" y2="247" gradientUnits="userSpaceOnUse">
<stop stop-color="#EA5F32"/>
<stop offset="1" stop-color="#F68D3B"/>
</linearGradient>
<linearGradient id="paint5_linear_541_901" x1="118" y1="277.5" x2="98" y2="277.5" gradientUnits="userSpaceOnUse">
<stop stop-color="#EA5F32"/>
<stop offset="1" stop-color="#F68D3B"/>
</linearGradient>
<linearGradient id="paint6_linear_541_901" x1="147" y1="277.5" x2="124" y2="277.5" gradientUnits="userSpaceOnUse">
<stop stop-color="#EA5F32"/>
<stop offset="1" stop-color="#F68D3B"/>
</linearGradient>
<linearGradient id="paint7_linear_541_901" x1="105" y1="247" x2="94" y2="247" gradientUnits="userSpaceOnUse">
<stop stop-color="#EA5F32"/>
<stop offset="1" stop-color="#F68D3B"/>
</linearGradient>
<linearGradient id="paint8_linear_541_901" x1="58" y1="247" x2="38" y2="247" gradientUnits="userSpaceOnUse">
<stop stop-color="#EA5F32"/>
<stop offset="1" stop-color="#F68D3B"/>
</linearGradient>
<linearGradient id="paint9_linear_541_901" x1="39" y1="247" x2="26" y2="247" gradientUnits="userSpaceOnUse">
<stop stop-color="#EA5F32"/>
<stop offset="1" stop-color="#F68D3B"/>
</linearGradient>
<linearGradient id="paint10_linear_541_901" x1="81" y1="216" x2="44" y2="216" gradientUnits="userSpaceOnUse">
<stop stop-color="#EA5F32"/>
<stop offset="1" stop-color="#F68D3B"/>
</linearGradient>
<linearGradient id="paint11_linear_541_901" x1="81" y1="278" x2="44" y2="278" gradientUnits="userSpaceOnUse">
<stop stop-color="#EA5F32"/>
<stop offset="1" stop-color="#F68D3B"/>
</linearGradient>
<linearGradient id="paint12_linear_541_901" x1="191" y1="247" x2="171" y2="247" gradientUnits="userSpaceOnUse">
<stop stop-color="#EA5F32"/>
<stop offset="1" stop-color="#F68D3B"/>
</linearGradient>
<linearGradient id="paint13_linear_541_901" x1="173" y1="247" x2="160" y2="247" gradientUnits="userSpaceOnUse">
<stop stop-color="#EA5F32"/>
<stop offset="1" stop-color="#F68D3B"/>
</linearGradient>
<linearGradient id="paint14_linear_541_901" x1="214" y1="216" x2="178" y2="216" gradientUnits="userSpaceOnUse">
<stop stop-color="#EA5F32"/>
<stop offset="1" stop-color="#F68D3B"/>
</linearGradient>
<linearGradient id="paint15_linear_541_901" x1="214" y1="278" x2="178" y2="278" gradientUnits="userSpaceOnUse">
<stop stop-color="#EA5F32"/>
<stop offset="1" stop-color="#F68D3B"/>
</linearGradient>
<linearGradient id="paint16_linear_541_901" x1="277" y1="264" x2="246" y2="264" gradientUnits="userSpaceOnUse">
<stop stop-color="#EA5F32"/>
<stop offset="1" stop-color="#F68D3B"/>
</linearGradient>
<linearGradient id="paint17_linear_541_901" x1="254" y1="256" x2="223" y2="256" gradientUnits="userSpaceOnUse">
<stop stop-color="#EA5F32"/>
<stop offset="1" stop-color="#F68D3B"/>
</linearGradient>
<linearGradient id="paint18_linear_541_901" x1="297.533" y1="271.16" x2="240.851" y2="223.045" gradientUnits="userSpaceOnUse">
<stop stop-color="#EA5F32"/>
<stop offset="1" stop-color="#F68D3B"/>
</linearGradient>
<linearGradient id="paint19_linear_541_901" x1="444" y1="247" x2="431" y2="247" gradientUnits="userSpaceOnUse">
<stop stop-color="#EA5F32"/>
<stop offset="1" stop-color="#F68D3B"/>
</linearGradient>
<linearGradient id="paint20_linear_541_901" x1="481.533" y1="245.569" x2="453.414" y2="239.884" gradientUnits="userSpaceOnUse">
<stop stop-color="#EA5F32"/>
<stop offset="1" stop-color="#F68D3B"/>
</linearGradient>
<linearGradient id="paint21_linear_541_901" x1="484" y1="299" x2="26" y2="299" gradientUnits="userSpaceOnUse">
<stop stop-color="#EA5F32"/>
<stop offset="1" stop-color="#F68D3B"/>
</linearGradient>
<clipPath id="clip0_541_901">
<rect width="512" height="512" fill="white"/>
</clipPath>
</defs>
</svg>
