<svg width="100" height="152" viewBox="0 0 100 152" fill="none" xmlns="http://www.w3.org/2000/svg">
<g clip-path="url(#clip0_2068_2)">
<path d="M0.365234 6.97516C16.0543 4.10694 46.1554 14.417 60.0203 25.5799C73.8849 36.7426 43.0543 38.6032 39.0408 25.5799C35.0271 12.5566 56.9189 -0.931832 69.5065 0.463522C82.0944 1.85887 106.175 19.5333 97.966 68.3706C90.7109 111.531 62.7568 133.952 45.7904 142.557" stroke="#1E4397" stroke-width="1.5" stroke-dasharray="5 5"/>
<path d="M45.0992 138.806L43.9036 141.767L33.2109 149.555L45.0992 138.806Z" fill="#1E4397"/>
<path d="M43.9028 141.768L45.0032 144.752L33.3711 149.442L43.9028 141.768Z" fill="#356AE0"/>
<path d="M45.0369 144.772L42.6658 144.418L37.0898 147.975L45.0369 144.772Z" fill="#000E2E"/>
<path d="M42.658 144.417L41.335 147.659L33.2109 149.555L42.658 144.417Z" fill="#1E4397"/>
</g>
<defs>
<clipPath id="clip0_2068_2">
<rect width="100" height="151.648" fill="white"/>
</clipPath>
</defs>
</svg>
