<svg width="172" height="28" viewBox="0 0 172 28" fill="none" xmlns="http://www.w3.org/2000/svg">
<path d="M14 0L17.1432 9.67376H27.3148L19.0858 15.6525L22.229 25.3262L14 19.3475L5.77101 25.3262L8.9142 15.6525L0.685208 9.67376H10.8568L14 0Z" fill="#FECE3C"/>
<path d="M85.5566 0L88.6998 9.67376H98.8714L90.6424 15.6525L93.7856 25.3262L85.5566 19.3475L77.3276 25.3262L80.4708 15.6525L72.2418 9.67376H82.4134L85.5566 0Z" fill="#FECE3C"/>
<path d="M49.7773 0L52.9205 9.67376H63.0921L54.8631 15.6525L58.0063 25.3262L49.7773 19.3475L41.5484 25.3262L44.6915 15.6525L36.4626 9.67376H46.6341L49.7773 0Z" fill="#FECE3C"/>
<path d="M121.334 0L124.477 9.67376H134.649L126.42 15.6525L129.563 25.3262L121.334 19.3475L113.105 25.3262L116.248 15.6525L108.019 9.67376H118.191L121.334 0Z" fill="#FECE3C"/>
<path d="M157.109 0L160.253 9.67376H170.424L162.195 15.6525L165.338 25.3262L157.109 19.3475L148.88 25.3262L152.024 15.6525L143.795 9.67376H153.966L157.109 0Z" fill="#FECE3C"/>
</svg>
