<svg width="29" height="29" viewBox="0 0 29 29" fill="none" xmlns="http://www.w3.org/2000/svg">
<path fill-rule="evenodd" clip-rule="evenodd" d="M18.1277 0.449301C17.8141 0.403679 17.499 0.497775 17.2483 0.700224C16.9907 0.905524 16.8295 1.20207 16.7945 1.53426C16.7204 2.20575 17.1979 2.8131 17.8588 2.88867C22.4171 3.40477 25.9599 7.0075 26.4724 11.6467C26.5411 12.2683 27.055 12.7374 27.6684 12.7374C27.7146 12.7374 27.7595 12.7345 27.8056 12.7288C28.1263 12.6932 28.4121 12.5321 28.6137 12.2755C28.8139 12.0188 28.9049 11.6995 28.8685 11.373C28.23 5.58466 23.8146 1.09229 18.1277 0.449301ZM18.2153 5.417C17.546 5.29154 16.9311 5.72495 16.8037 6.38789C16.6763 7.05084 17.1047 7.69811 17.7559 7.82785C19.7165 8.21564 21.2303 9.75539 21.6139 11.7514V11.7528C21.7231 12.3273 22.2217 12.7451 22.7959 12.7451C22.8729 12.7451 22.9498 12.7379 23.0283 12.7237C23.6795 12.5911 24.1079 11.9453 23.9805 11.2809C23.4078 8.29975 21.1462 5.99726 18.2153 5.417ZM20.4398 19.1139C21.0745 18.7425 21.7916 18.3231 22.696 18.5182C23.5152 18.6936 26.3075 20.9932 27.0722 21.7903C27.5734 22.3121 27.8521 22.8509 27.8956 23.3899C27.9711 25.5042 25.1396 27.9179 24.6242 28.2188C23.9395 28.7191 23.1428 28.9715 22.2479 28.9715C21.3335 28.9715 20.3139 28.7077 19.2021 28.1817C13.1693 25.6268 3.95358 16.461 1.51695 10.3875C0.505894 8.12638 0.498892 6.26158 1.50015 4.86012C1.89925 4.20287 4.17483 1.45556 6.21236 1.54253C6.75429 1.58957 7.28083 1.87187 7.79757 2.38511C8.57896 3.16211 10.7887 6.00353 10.9596 6.83755C11.1486 7.76426 10.7341 8.50134 10.3658 9.14861C10.2873 9.28775 10.1814 9.45288 10.0655 9.63378C9.62541 10.3203 9.03968 11.2341 9.24694 11.8175C10.7327 15.5187 14.165 18.7478 17.8144 20.2648C18.3787 20.4729 19.2789 19.8743 19.9534 19.4259C20.129 19.309 20.2894 19.2023 20.4246 19.1227L20.4398 19.1139Z" fill="#1E4397"/>
</svg>
