<svg xmlns="http://www.w3.org/2000/svg" xmlns:xlink="http://www.w3.org/1999/xlink" fill="none" version="1.1" width="18" height="18" viewBox="0 0 18 18"><defs><clipPath id="master_svg0_127_8849"><rect x="0" y="0" width="18" height="18" rx="0"/></clipPath></defs><g clip-path="url(#master_svg0_127_8849)"><g><path d="M15.1369,4.21681C13.3732,3.82226,12.0592,2.27499,11.8929,0.396844L11.8929,0L8.92845,0L8.92845,12.3031C8.92469,13.4199,8.2409,14.41,7.22833,14.7649C6.21576,15.1197,5.09952,14.7604,4.45302,13.8715L4.4513,13.8706L4.45302,13.8715C3.79592,12.967,3.77502,11.7215,4.40136,10.7934C5.0277,9.86537,6.15688,9.46869,7.19197,9.81312L7.19197,6.66356C4.886,6.3302,2.63238,7.56644,1.583854,9.73995C0.535327,11.9135,0.9237596,14.5436,2.55047,16.285C4.0982199999999995,17.9411,6.45067,18.4525,8.50135,17.5787C10.55216,16.7046,11.8929,14.6195,11.8929,12.304L11.8929,6.01745C13.0909,6.91313,14.5273,7.3934,16,7.39066L16,4.31039C15.71,4.31077,15.4207,4.2794,15.1369,4.21681Z" fill="#3CACE4" fill-opacity="1" style="mix-blend-mode:passthrough"/></g></g></svg>