<svg width="16" height="13" viewBox="0 0 16 13" fill="none" xmlns="http://www.w3.org/2000/svg">
<path d="M14.3554 3.2386C14.3655 3.3807 14.3655 3.5229 14.3655 3.665C14.3655 8 11.066 12.995 5.0356 12.995C3.1777 12.995 1.45179 12.4568 0 11.5229C0.26397 11.5533 0.51775 11.5635 0.79188 11.5635C2.3249 11.5635 3.736 11.0457 4.863 10.1625C3.4213 10.132 2.2132 9.1878 1.79695 7.8884C2 7.9188 2.203 7.9391 2.4163 7.9391C2.7107 7.9391 3.0051 7.8985 3.2792 7.8274C1.77666 7.5228 0.64972 6.2031 0.64972 4.6091V4.5685C1.08625 4.8122 1.59391 4.9645 2.1319 4.9848C1.24869 4.3959 0.67004 3.3909 0.67004 2.2538C0.67004 1.6447 0.83244 1.0863 1.11672 0.599C2.731 2.5888 5.1574 3.8883 7.8782 4.0305C7.8274 3.7868 7.797 3.533 7.797 3.2792C7.797 1.4721 9.2589 0 11.0761 0C12.0203 0 12.8731 0.3959 13.4721 1.0355C14.2132 0.8934 14.9239 0.6193 15.5533 0.2437C15.3096 1.0051 14.7919 1.6447 14.1117 2.0508C14.7716 1.9797 15.4112 1.7969 16 1.5432C15.5534 2.1929 14.995 2.7715 14.3554 3.2386Z" fill="#3CACE4"/>
</svg>