<svg xmlns="http://www.w3.org/2000/svg" xmlns:xlink="http://www.w3.org/1999/xlink" fill="none" version="1.1" width="18" height="18" viewBox="0 0 18 18"><defs><clipPath id="master_svg0_127_8858"><rect x="0" y="0" width="18" height="18" rx="0"/></clipPath></defs><g clip-path="url(#master_svg0_127_8858)"><g><g><g><g><path d="M14.2389,12.709C14.022,13.3228,13.1598,13.8312,12.4722,13.9795C12.0015,14.0794,11.3877,14.1588,9.3195,13.3017C6.9966,12.3391,3.77099,8.9107,3.77099,6.62977C3.77099,5.4682,4.44061,4.11609,5.61151,4.11609C6.17491,4.11609,6.2991,4.12664,6.4845,4.57172C6.7014,5.09555,7.23061,6.38648,7.2936,6.51867C7.55369,7.06148,7.02901,7.3793,6.64831,7.8525C6.5268,7.99453,6.3891,8.14852,6.543,8.41289C6.69599,8.67234,7.2252,9.53508,8.00279,10.227C9.00721,11.122,9.82169,11.4075,10.1133,11.5291C10.3302,11.6191,10.5894,11.598,10.7478,11.4286C10.9485,11.212,11.1978,10.852,11.4516,10.497C11.6307,10.2431,11.8584,10.2115,12.0969,10.3015C12.258,10.3577,14.3055,11.3084,14.3919,11.4602C14.4558,11.5713,14.4558,12.0952,14.2389,12.709ZM9.0018,0L8.9973,0C4.03561,0,0,4.03664,0,9C0,10.968,0.634504,12.7941,1.7136,14.2748L0.592207,17.6189L4.0509,16.5136C5.47381,17.4551,7.17209,18,9.0018,18C13.9635,18,18,13.9634,18,9C18,4.03664,13.9635,0,9.0018,0Z" fill-rule="evenodd" fill="#3CACE4" fill-opacity="1" style="mix-blend-mode:passthrough"/></g></g></g></g></g></svg>