<svg xmlns="http://www.w3.org/2000/svg" width="26" height="26" viewBox="0 0 26 26" fill="none">
  <path d="M23.375 0.5H2.125C1.62772 0.5 1.15081 0.697544 0.799175 1.04917C0.447544 1.40081 0.25 1.87772 0.25 2.375V23.625C0.25 24.1223 0.447544 24.5992 0.799175 24.9508C1.15081 25.3025 1.62772 25.5 2.125 25.5H23.375C23.8723 25.5 24.3492 25.3025 24.7008 24.9508C25.0525 24.5992 25.25 24.1223 25.25 23.625V2.375C25.25 1.87772 25.0525 1.40081 24.7008 1.04917C24.3492 0.697544 23.8723 0.5 23.375 0.5ZM7.75 21.75H4V10.5H7.75V21.75ZM5.875 8.3125C5.44523 8.30022 5.02861 8.16156 4.67719 7.91385C4.32577 7.66613 4.05514 7.32036 3.89912 6.91972C3.74309 6.51908 3.70859 6.08135 3.79992 5.66121C3.89126 5.24108 4.10437 4.85717 4.41264 4.55747C4.72091 4.25776 5.11067 4.05554 5.53321 3.97608C5.95575 3.89662 6.39233 3.94343 6.78842 4.11068C7.1845 4.27792 7.52252 4.55818 7.76024 4.91644C7.99795 5.27469 8.12483 5.69505 8.125 6.125C8.11513 6.71294 7.87292 7.27306 7.45131 7.68296C7.02971 8.09285 6.46298 8.31919 5.875 8.3125ZM21.5 21.75H17.75V15.825C17.75 14.05 17 13.4125 16.025 13.4125C15.7391 13.4315 15.4599 13.5069 15.2032 13.6341C14.9465 13.7614 14.7175 13.9382 14.5294 14.1542C14.3412 14.3702 14.1976 14.6213 14.1067 14.893C14.0159 15.1648 13.9796 15.4517 14 15.7375C13.9938 15.7957 13.9938 15.8543 14 15.9125V21.75H10.25V10.5H13.875V12.125C14.2407 11.5688 14.743 11.1157 15.334 10.8093C15.9249 10.5029 16.5847 10.3533 17.25 10.375C19.1875 10.375 21.45 11.45 21.45 14.95L21.5 21.75Z" fill="#0A66C2"/>
</svg>