<svg xmlns="http://www.w3.org/2000/svg" width="32" height="31" viewBox="0 0 32 31" fill="none"><g filter="url(#filter0_dii_456_255)"><path d="M3.25 9.5C3.25 6.69974 3.25 5.29961 3.79497 4.23005C4.27433 3.28924 5.03924 2.52433 5.98005 2.04497C7.04961 1.5 8.44974 1.5 11.25 1.5H20.25C23.0503 1.5 24.4504 1.5 25.52 2.04497C26.4608 2.52433 27.2257 3.28924 27.705 4.23005C28.25 5.29961 28.25 6.69974 28.25 9.5V18.5C28.25 21.3003 28.25 22.7004 27.705 23.77C27.2257 24.7108 26.4608 25.4757 25.52 25.955C24.4504 26.5 23.0503 26.5 20.25 26.5H11.25C8.44974 26.5 7.04961 26.5 5.98005 25.955C5.03924 25.4757 4.27433 24.7108 3.79497 23.77C3.25 22.7004 3.25 21.3003 3.25 18.5V9.5Z" fill="#F8F8F8"/></g><path d="M6.50977 8.86023C6.50977 7.84526 7.33257 7.02246 8.34754 7.02246C9.61626 7.02246 10.6448 8.05096 10.6448 9.31968V20.9781H7.50977C6.95748 20.9781 6.50977 20.5304 6.50977 19.9781V8.86023Z" fill="#5186EC"/><path d="M6.50977 11.8964C6.50977 10.8814 7.33257 10.0586 8.34754 10.0586C9.61626 10.0586 10.6448 11.0871 10.6448 12.3558V20.9776C8.36107 20.9776 6.50977 19.1263 6.50977 16.8426V11.8964Z" fill="#5186EC"/><path d="M10.6448 13.6864L6.50977 10.5704V8.86024C6.50977 7.84526 7.33257 7.02246 8.34754 7.02246C8.7938 7.02246 9.21033 7.14971 9.56284 7.36989L10.6448 8.18543V13.6864Z" fill="#C84031"/><mask id="mask0_456_255" style="mask-type:alpha" maskUnits="userSpaceOnUse" x="6" y="10" width="5" height="11"><path d="M6.50977 10.0586H10.6448V20.9776H6.50977V10.0586Z" fill="#5186EC"/></mask><g mask="url(#mask0_456_255)"><g filter="url(#filter1_d_456_255)"><path d="M10.6448 13.6864L6.50977 10.5704V8.86024C6.50977 7.84526 7.33257 7.02246 8.34754 7.02246C8.7938 7.02246 9.21033 7.14971 9.56284 7.36989L10.6448 8.18543V13.6864Z" fill="#C84031"/></g></g><path d="M24.9883 8.86023C24.9883 7.84526 24.1655 7.02246 23.1505 7.02246C21.8818 7.02246 20.8533 8.05096 20.8533 9.31968V20.9781H23.9883C24.5406 20.9781 24.9883 20.5304 24.9883 19.9781V8.86023Z" fill="#58A55C"/><path d="M20.8533 13.6864L24.9883 10.5704V8.86024C24.9883 7.84526 24.1655 7.02246 23.1505 7.02246C22.7043 7.02246 22.2877 7.14971 21.9352 7.36989L20.8533 8.18543V13.6864Z" fill="#F2BE42"/><mask id="mask1_456_255" style="mask-type:alpha" maskUnits="userSpaceOnUse" x="20" y="10" width="5" height="11"><path d="M24.9883 10.0586H20.8533V20.9776H24.9883V10.0586Z" fill="#58A55C"/></mask><g mask="url(#mask1_456_255)"><g filter="url(#filter2_d_456_255)"><path d="M20.8533 13.6864L24.9883 10.5704V8.86024C24.9883 7.84526 24.1655 7.02246 23.1505 7.02246C22.7043 7.02246 22.2877 7.14971 21.9352 7.36989L20.8533 8.18543V13.6864Z" fill="#F2BE42"/></g></g><path fill-rule="evenodd" clip-rule="evenodd" d="M10.6445 13.6857V8.18457L15.744 12.0273C18.1797 10.1946 20.8525 8.18513 20.8525 8.18513V13.6772L15.7434 17.5272L15.7228 17.4998L15.7167 17.5079L10.6445 13.6857Z" fill="#D95140"/><defs><filter id="filter0_dii_456_255" x="0.306" y="0.028" width="30.888" height="30.888" filterUnits="userSpaceOnUse" color-interpolation-filters="sRGB"><feFlood flood-opacity="0" result="BackgroundImageFix"/><feColorMatrix in="SourceAlpha" type="matrix" values="0 0 0 0 0 0 0 0 0 0 0 0 0 0 0 0 0 0 127 0" result="hardAlpha"/><feOffset dy="1.472"/><feGaussianBlur stdDeviation="1.472"/><feColorMatrix type="matrix" values="0 0 0 0 0.647059 0 0 0 0 0.647059 0 0 0 0 0.647059 0 0 0 0.25 0"/><feBlend mode="multiply" in2="BackgroundImageFix" result="effect1_dropShadow_456_255"/><feBlend mode="normal" in="SourceGraphic" in2="effect1_dropShadow_456_255" result="shape"/><feColorMatrix in="SourceAlpha" type="matrix" values="0 0 0 0 0 0 0 0 0 0 0 0 0 0 0 0 0 0 127 0" result="hardAlpha"/><feOffset dy="0.736"/><feComposite in2="hardAlpha" operator="arithmetic" k2="-1" k3="1"/><feColorMatrix type="matrix" values="0 0 0 0 1 0 0 0 0 1 0 0 0 0 1 0 0 0 1 0"/><feBlend mode="normal" in2="shape" result="effect2_innerShadow_456_255"/><feColorMatrix in="SourceAlpha" type="matrix" values="0 0 0 0 0 0 0 0 0 0 0 0 0 0 0 0 0 0 127 0" result="hardAlpha"/><feOffset dy="-0.736"/><feComposite in2="hardAlpha" operator="arithmetic" k2="-1" k3="1"/><feColorMatrix type="matrix" values="0 0 0 0 0.960784 0 0 0 0 0.960784 0 0 0 0 0.960784 0 0 0 0.25 0"/><feBlend mode="normal" in2="effect2_innerShadow_456_255" result="effect3_innerShadow_456_255"/></filter><filter id="filter1_d_456_255" x="4.3699" y="5.59589" width="8.41449" height="10.9438" filterUnits="userSpaceOnUse" color-interpolation-filters="sRGB"><feFlood flood-opacity="0" result="BackgroundImageFix"/><feColorMatrix in="SourceAlpha" type="matrix" values="0 0 0 0 0 0 0 0 0 0 0 0 0 0 0 0 0 0 127 0" result="hardAlpha"/><feOffset dy="0.713287"/><feGaussianBlur stdDeviation="1.06993"/><feColorMatrix type="matrix" values="0 0 0 0 0.645833 0 0 0 0 0.645833 0 0 0 0 0.645833 0 0 0 0.4 0"/><feBlend mode="multiply" in2="BackgroundImageFix" result="effect1_dropShadow_456_255"/><feBlend mode="normal" in="SourceGraphic" in2="effect1_dropShadow_456_255" result="shape"/></filter><filter id="filter2_d_456_255" x="18.7137" y="5.59589" width="8.41449" height="10.9438" filterUnits="userSpaceOnUse" color-interpolation-filters="sRGB"><feFlood flood-opacity="0" result="BackgroundImageFix"/><feColorMatrix in="SourceAlpha" type="matrix" values="0 0 0 0 0 0 0 0 0 0 0 0 0 0 0 0 0 0 127 0" result="hardAlpha"/><feOffset dy="0.713287"/><feGaussianBlur stdDeviation="1.06993"/><feColorMatrix type="matrix" values="0 0 0 0 0.645833 0 0 0 0 0.645833 0 0 0 0 0.645833 0 0 0 0.4 0"/><feBlend mode="multiply" in2="BackgroundImageFix" result="effect1_dropShadow_456_255"/><feBlend mode="normal" in="SourceGraphic" in2="effect1_dropShadow_456_255" result="shape"/></filter></defs></svg>