<svg width="152" height="132" viewBox="0 0 152 132" fill="none" xmlns="http://www.w3.org/2000/svg">
<path d="M117.948 131.553L118.518 114.762L105.93 112.856L105.162 131.741" fill="white"/>
<path d="M105.162 132C105.095 131.997 105.033 131.969 104.987 131.92C104.941 131.872 104.917 131.807 104.918 131.741L105.685 112.851C105.686 112.815 105.695 112.779 105.71 112.747C105.726 112.714 105.749 112.686 105.777 112.663C105.804 112.64 105.836 112.624 105.87 112.615C105.904 112.606 105.94 112.605 105.975 112.612L118.568 114.518C118.629 114.528 118.685 114.56 118.724 114.607C118.763 114.655 118.784 114.715 118.782 114.777L118.213 131.548C118.211 131.581 118.203 131.614 118.189 131.644C118.175 131.675 118.156 131.702 118.131 131.725C118.106 131.747 118.078 131.765 118.046 131.776C118.015 131.788 117.982 131.793 117.948 131.792C117.915 131.79 117.882 131.783 117.852 131.769C117.822 131.755 117.794 131.735 117.772 131.71C117.749 131.686 117.731 131.657 117.72 131.626C117.708 131.594 117.703 131.561 117.704 131.527L118.258 114.991L106.168 113.161L105.416 131.761C105.412 131.826 105.384 131.887 105.336 131.931C105.289 131.976 105.227 132 105.162 132Z" fill="#1E293B"/>
<path d="M56.5176 124.301L70.92 107.225L83.7979 110.376L67.388 127.162" fill="white"/>
<path d="M67.3876 127.421C67.3205 127.42 67.2566 127.393 67.2097 127.345C67.186 127.322 67.1672 127.294 67.1544 127.264C67.1416 127.233 67.1349 127.2 67.1349 127.167C67.1349 127.134 67.1416 127.101 67.1544 127.071C67.1672 127.04 67.186 127.012 67.2097 126.989L83.3045 110.518L71.011 107.51L56.7102 124.468C56.6653 124.519 56.6029 124.55 56.5358 124.555C56.4688 124.561 56.4021 124.541 56.3494 124.499C56.2982 124.455 56.2664 124.392 56.2607 124.325C56.255 124.257 56.2759 124.19 56.3189 124.138L70.7519 107.063C70.7821 107.026 70.8221 106.999 70.8671 106.985C70.9121 106.971 70.9603 106.969 71.006 106.981L83.8838 110.127C83.9266 110.139 83.9658 110.162 83.9977 110.193C84.0296 110.224 84.0533 110.262 84.0668 110.305C84.0786 110.348 84.0792 110.394 84.0685 110.437C84.0578 110.481 84.0362 110.521 84.0058 110.554L67.5959 127.325C67.5707 127.355 67.5389 127.38 67.5028 127.397C67.4667 127.413 67.4273 127.422 67.3876 127.421Z" fill="#1E293B"/>
<path d="M112.333 38.3384C112.333 38.3384 92.7567 43.705 92.9447 44.4673C93.1327 45.2296 96.9544 59.3475 96.9544 59.3475L109.151 56.2983L112.333 38.3384Z" fill="#448E4A"/>
<path d="M112.73 38.2213C112.73 38.2213 106.514 39.8882 102.703 42.0837C98.8914 44.2791 99.9382 67.6768 99.9382 67.6768L128.179 73.3686C128.179 73.3686 133.556 58.1734 133.19 51.2364C132.824 44.2994 128.535 34.4606 112.73 38.2213Z" fill="#448E4A"/>
<path d="M98.6676 56.2727C98.6358 56.2799 98.6028 56.2799 98.571 56.2727C98.5076 56.2457 98.4572 56.195 98.4306 56.1314C98.404 56.0678 98.4033 55.9963 98.4287 55.9322C100.273 51.394 103.053 44.4723 103.13 43.9895C103.13 43.9556 103.138 43.9223 103.151 43.8914C103.165 43.8605 103.185 43.8326 103.209 43.8094C103.234 43.7862 103.263 43.7682 103.295 43.7563C103.326 43.7445 103.36 43.7391 103.394 43.7404C103.464 43.7431 103.529 43.7726 103.578 43.8228C103.626 43.8731 103.653 43.9401 103.653 44.0098C103.653 44.4468 100.34 52.6492 98.9115 56.1304C98.889 56.1752 98.8539 56.2124 98.8106 56.2377C98.7673 56.263 98.7176 56.2751 98.6676 56.2727Z" fill="#1E293B"/>
<path d="M114.458 35.3704L112.466 41.357C112.466 41.357 112.415 44.9144 116.363 44.6044C117.53 44.5002 118.658 44.1378 119.667 43.5436C120.676 42.9495 121.541 42.1383 122.198 41.169L123.865 30.4358C123.26 29.9088 122.876 29.1743 122.787 28.3775C122.7 27.7811 122.717 27.1741 122.838 26.5836C123.024 25.7907 123.32 25.0277 123.717 24.317C121.839 24.024 120.117 23.101 118.833 21.6998C118.528 21.3273 118.243 20.9388 117.98 20.536C117.858 20.3479 115.352 21.5219 115.088 21.654C113.797 22.2231 112.696 23.1509 111.917 24.3272C111.4 25.3436 111.073 26.4458 110.951 27.5797C110.655 29.1377 110.505 30.72 110.504 32.3059C110.534 35.3297 114.458 35.3704 114.458 35.3704Z" fill="white"/>
<path d="M115.871 44.8581C114.94 44.9027 114.029 44.5838 113.33 43.9687C112.644 43.2707 112.255 42.3349 112.242 41.3566C112.24 41.3329 112.24 41.3091 112.242 41.2854L114.138 35.5885C113.172 35.497 110.301 35.004 110.275 32.3207C110.278 30.7228 110.429 29.1286 110.728 27.5589C110.859 26.3914 111.204 25.258 111.744 24.2149C112.529 23.0008 113.648 22.0391 114.966 21.4452C117.888 20.0019 118.081 20.2967 118.153 20.4288C118.153 20.4288 118.661 21.2216 118.986 21.5672C120.233 22.9346 121.913 23.8317 123.743 24.1082C123.778 24.1149 123.812 24.13 123.84 24.1521C123.869 24.1743 123.892 24.2029 123.907 24.2356C123.923 24.2684 123.93 24.3043 123.929 24.3404C123.928 24.3766 123.918 24.4119 123.9 24.4436C123.513 25.1351 123.224 25.8775 123.041 26.6492C122.93 27.2151 122.914 27.7958 122.996 28.3669C123.073 29.1036 123.425 29.7842 123.982 30.2727C124.016 30.2964 124.043 30.3297 124.06 30.3685C124.076 30.4072 124.08 30.4498 124.073 30.4912L122.406 41.2244C122.401 41.2549 122.391 41.2842 122.376 41.3108C121.705 42.3182 120.816 43.1613 119.774 43.7772C118.732 44.3931 117.565 44.7661 116.359 44.8682C116.201 44.8581 116.033 44.8581 115.871 44.8581ZM112.689 41.3972C112.713 42.2337 113.049 43.0311 113.63 43.6333C114.002 43.9421 114.435 44.168 114.901 44.296C115.368 44.4239 115.856 44.451 116.333 44.3753C117.454 44.2715 118.539 43.9239 119.512 43.3568C120.485 42.7897 121.321 42.0168 121.964 41.0923L123.606 30.5319C123.017 29.9702 122.643 29.2206 122.548 28.4127C122.456 27.7983 122.47 27.1725 122.589 26.5628C122.753 25.8546 123.009 25.1711 123.351 24.53C121.536 24.1912 119.881 23.2707 118.635 21.9077C118.371 21.6078 117.98 21.0285 117.827 20.8049C116.918 21.1158 116.03 21.4859 115.169 21.9127C113.931 22.4696 112.874 23.3644 112.12 24.4944C111.614 25.4909 111.29 26.5701 111.165 27.6808C110.873 29.2241 110.723 30.7908 110.718 32.3614C110.748 35.1158 114.275 35.187 114.438 35.1921C114.474 35.1922 114.509 35.2011 114.541 35.2179C114.573 35.2347 114.6 35.259 114.621 35.2886C114.642 35.3181 114.657 35.3524 114.663 35.3886C114.669 35.4248 114.667 35.4619 114.656 35.497L112.689 41.3972Z" fill="#1E293B"/>
<path d="M121.76 29.4751C121.953 29.0484 122.275 28.6929 122.68 28.4587C123.072 28.2549 123.497 28.1208 123.935 28.0623C124.171 28.0066 124.416 28.0066 124.652 28.0623C124.815 28.1149 124.965 28.1996 125.094 28.3114C125.424 28.5414 125.66 28.8822 125.76 29.2719C125.801 29.5943 125.765 29.9219 125.653 30.2273C125.558 30.5662 125.418 30.8909 125.236 31.1929C125.049 31.4904 124.805 31.7479 124.517 31.9501C124.23 32.1524 123.905 32.2956 123.562 32.3712C123.218 32.4469 122.864 32.4535 122.518 32.3909C122.172 32.3282 121.842 32.1973 121.547 32.006" fill="white"/>
<path d="M122.995 32.5958C122.441 32.5963 121.9 32.4375 121.434 32.1384C121.39 32.1093 121.358 32.0635 121.346 32.0112C121.335 31.9589 121.345 31.9041 121.373 31.8589C121.387 31.8361 121.406 31.8164 121.428 31.8009C121.449 31.7854 121.474 31.7745 121.5 31.7688C121.526 31.7631 121.553 31.7628 121.58 31.7678C121.606 31.7728 121.631 31.783 121.653 31.7979C121.926 31.9741 122.232 32.0945 122.552 32.152C122.872 32.2096 123.2 32.2032 123.518 32.1333C124.148 31.983 124.695 31.5929 125.043 31.0458C125.215 30.7583 125.349 30.4489 125.439 30.1259C125.538 29.8528 125.573 29.5608 125.541 29.2722C125.448 28.9311 125.24 28.6329 124.951 28.4285C124.839 28.3357 124.712 28.2635 124.575 28.2151C124.369 28.1699 124.156 28.1699 123.95 28.2151C123.535 28.2726 123.133 28.3998 122.761 28.5912C122.389 28.8067 122.097 29.1364 121.927 29.5313C121.917 29.556 121.903 29.5784 121.884 29.5972C121.865 29.616 121.843 29.6308 121.818 29.6407C121.793 29.6507 121.767 29.6556 121.74 29.6551C121.714 29.6547 121.687 29.6489 121.663 29.6381C121.638 29.6287 121.615 29.6142 121.596 29.5955C121.577 29.5768 121.562 29.5543 121.552 29.5294C121.542 29.5046 121.537 29.4779 121.538 29.4511C121.538 29.4243 121.545 29.398 121.556 29.3738C121.762 28.8951 122.119 28.497 122.573 28.2405C122.985 28.027 123.43 27.8844 123.889 27.8187C124.157 27.7577 124.435 27.7577 124.702 27.8187C124.886 27.8818 125.058 27.9764 125.21 28.0982C125.578 28.3607 125.84 28.7466 125.947 29.1858C125.997 29.5386 125.958 29.8982 125.835 30.2327C125.736 30.5894 125.589 30.9312 125.398 31.2491C125.196 31.5693 124.933 31.8465 124.623 32.0645C124.314 32.2826 123.964 32.4372 123.594 32.5196C123.398 32.5668 123.197 32.5924 122.995 32.5958Z" fill="#1E293B"/>
<path d="M113.441 38.5314C114.891 38.6778 116.347 38.3187 117.563 37.515C119.494 36.1683 119.596 34.4658 119.596 34.4658C117.978 35.1663 116.218 35.4762 114.458 35.3704L113.441 38.5314Z" fill="#1E293B"/>
<path d="M114.021 38.7855C113.813 38.7879 113.606 38.776 113.401 38.7499C113.368 38.7455 113.337 38.7341 113.31 38.7165C113.282 38.6988 113.259 38.6753 113.242 38.6477C113.224 38.6201 113.213 38.589 113.209 38.5566C113.205 38.5243 113.208 38.4913 113.218 38.4602L114.234 35.3043C114.25 35.2579 114.28 35.2177 114.32 35.1894C114.361 35.1611 114.409 35.1462 114.458 35.1468C116.179 35.2307 117.896 34.9141 119.474 34.2218C119.508 34.2031 119.546 34.1934 119.585 34.1934C119.624 34.1934 119.663 34.2031 119.697 34.2218C119.73 34.2435 119.756 34.273 119.774 34.3077C119.792 34.3424 119.8 34.3811 119.799 34.42C119.799 34.4963 119.677 36.2699 117.68 37.6674C116.601 38.4011 115.325 38.7909 114.021 38.7855ZM113.731 38.3281C115.038 38.394 116.332 38.0376 117.42 37.3117C118.322 36.7257 118.983 35.8344 119.281 34.8012C117.794 35.3807 116.205 35.6554 114.61 35.6092L113.731 38.3281Z" fill="#1E293B"/>
<path d="M117.106 25.0996C117.106 25.0996 114.565 27.6406 114.921 28.2708C115.277 28.901 116.674 28.779 116.674 28.779" fill="white"/>
<path d="M116.491 29.0234C116.054 29.0234 115.078 28.9573 114.733 28.3881C114.316 27.7071 116.146 25.7505 116.954 24.9425C116.974 24.9211 116.999 24.9042 117.027 24.8926C117.054 24.881 117.084 24.875 117.114 24.875C117.144 24.875 117.173 24.881 117.201 24.8926C117.228 24.9042 117.253 24.9211 117.274 24.9425C117.316 24.9852 117.339 25.0427 117.339 25.1026C117.339 25.1624 117.316 25.2199 117.274 25.2627C115.983 26.5637 114.967 27.8901 115.114 28.1543C115.353 28.5558 116.334 28.5863 116.639 28.5711C116.698 28.5695 116.756 28.5908 116.8 28.6304C116.845 28.6701 116.872 28.7252 116.877 28.7845C116.879 28.8139 116.874 28.8432 116.864 28.8709C116.854 28.8985 116.839 28.9239 116.819 28.9457C116.799 28.9674 116.775 28.985 116.749 28.9974C116.722 29.0099 116.693 29.017 116.664 29.0183L116.491 29.0234Z" fill="#1E293B"/>
<path d="M113.207 30.2682L118.152 30.2021C118.152 30.2021 117.929 33.5563 115.052 33.7596C112.176 33.9628 113.207 30.2682 113.207 30.2682Z" fill="#1E293B"/>
<path d="M118.273 25.1047C118.338 24.9649 118.438 24.8445 118.564 24.7553C118.69 24.6662 118.837 24.6115 118.99 24.5965C119.559 24.505 119.849 25.1708 119.849 25.1708" fill="white"/>
<path d="M119.849 25.3744C119.805 25.3752 119.762 25.3631 119.725 25.3396C119.688 25.3161 119.658 25.2823 119.64 25.2422C119.64 25.2422 119.417 24.734 119.025 24.8001C118.911 24.8113 118.801 24.8518 118.707 24.9177C118.612 24.9835 118.537 25.0725 118.487 25.1762C118.466 25.2324 118.424 25.2783 118.37 25.304C118.316 25.3297 118.254 25.333 118.197 25.3134C118.142 25.2938 118.097 25.2536 118.072 25.2014C118.046 25.1493 118.042 25.0892 118.06 25.0339C118.133 24.8516 118.255 24.6926 118.412 24.5737C118.568 24.4547 118.754 24.3802 118.949 24.358C119.681 24.236 120.037 25.0288 120.052 25.0644C120.064 25.0914 120.07 25.1205 120.07 25.1499C120.071 25.1794 120.066 25.2086 120.055 25.236C120.044 25.2634 120.028 25.2884 120.007 25.3095C119.987 25.3307 119.962 25.3475 119.935 25.3591L119.849 25.3744Z" fill="#1E293B"/>
<path d="M113.695 24.6725C113.76 24.5327 113.86 24.4123 113.986 24.3231C114.112 24.234 114.259 24.1792 114.412 24.1643C114.981 24.0677 115.271 24.7386 115.271 24.7386" fill="white"/>
<path d="M115.271 24.9468C115.226 24.9472 115.183 24.9344 115.146 24.9099C115.109 24.8855 115.08 24.8505 115.062 24.8095C115.062 24.8095 114.839 24.3013 114.447 24.3725C114.333 24.3827 114.223 24.4228 114.128 24.4888C114.034 24.5548 113.958 24.6443 113.909 24.7486C113.888 24.8048 113.846 24.8507 113.792 24.8764C113.738 24.9021 113.676 24.9054 113.619 24.8858C113.564 24.8651 113.519 24.824 113.493 24.771C113.468 24.718 113.464 24.6572 113.482 24.6012C113.556 24.4195 113.678 24.2611 113.835 24.1423C113.991 24.0235 114.176 23.9485 114.371 23.9253C115.103 23.8033 115.459 24.6012 115.474 24.6317C115.486 24.6586 115.493 24.6878 115.494 24.7174C115.495 24.7471 115.49 24.7766 115.479 24.8042C115.468 24.8317 115.452 24.8568 115.431 24.8778C115.41 24.8988 115.385 24.9154 115.357 24.9264C115.33 24.9398 115.301 24.9468 115.271 24.9468Z" fill="#1E293B"/>
<path d="M127.615 73.0078L123.57 126.984L56.3242 113.237L101.026 67.377L127.615 73.0078Z" fill="#1E293B"/>
<path d="M98.668 33.4136L19.6934 46.576L54.4341 11.2661L98.668 33.4136Z" fill="#1E293B"/>
<path d="M19.6931 46.8304C19.6429 46.8307 19.5938 46.8161 19.5519 46.7886C19.51 46.761 19.4772 46.7216 19.4576 46.6754C19.4381 46.6292 19.4326 46.5783 19.4419 46.529C19.4513 46.4797 19.475 46.4343 19.5101 46.3984L54.2509 11.0834C54.2889 11.0457 54.3379 11.021 54.3908 11.0128C54.4438 11.0046 54.4979 11.0133 54.5456 11.0377L98.7593 33.1903C98.8087 33.2123 98.8492 33.2504 98.8741 33.2984C98.899 33.3464 98.9069 33.4014 98.8965 33.4545C98.8916 33.5073 98.8704 33.5572 98.8358 33.5973C98.8011 33.6374 98.7548 33.6656 98.7034 33.6781L19.7337 46.8253L19.6931 46.8304ZM54.4897 11.5764L20.4402 46.1952L97.8547 33.2919L54.4897 11.5764Z" fill="#1E293B"/>
<path d="M105.961 86.3939L31.4633 99.7952L19.7949 47.0438L98.7289 33.8813L105.961 86.3939Z" fill="#1E293B"/>
<path d="M31.4686 100.05C31.4105 100.051 31.3537 100.032 31.3083 99.9955C31.2628 99.9593 31.2314 99.9084 31.2195 99.8515L19.5309 47.0949C19.517 47.0284 19.5297 46.959 19.5665 46.9018C19.5856 46.872 19.611 46.8465 19.6408 46.8272C19.6706 46.808 19.7041 46.7953 19.7393 46.79L98.7038 33.6276C98.7716 33.6172 98.8409 33.6336 98.8969 33.6733C98.9247 33.6937 98.948 33.7196 98.9655 33.7493C98.9829 33.779 98.9942 33.8119 98.9985 33.8461L106.23 86.3587C106.235 86.3911 106.234 86.4241 106.226 86.4559C106.218 86.4878 106.204 86.5178 106.185 86.5442C106.166 86.5707 106.141 86.593 106.113 86.61C106.085 86.627 106.054 86.6383 106.022 86.6433L31.5092 100.045L31.4686 100.05ZM20.1001 47.2474L31.6617 99.5059L105.676 86.1859L98.5157 34.1866L20.1001 47.2474Z" fill="#1E293B"/>
<path d="M37.7187 82.3385C37.7187 82.3385 23.9973 39.9849 17.3906 27.1071L90.9428 7.07373L95.5166 72.6319L37.7187 82.3385Z" fill="#448E4A"/>
<path d="M30.2739 34.5166C30.2174 34.5169 30.1624 34.4979 30.1181 34.4629C30.0737 34.4278 30.0427 34.3786 30.03 34.3235C30.0128 34.2588 30.0219 34.19 30.0552 34.1319C30.0885 34.0739 30.1433 34.0313 30.2078 34.0135L84.2958 19.9922C84.3632 19.9753 84.4346 19.986 84.4941 20.0217C84.5537 20.0574 84.5966 20.1154 84.6135 20.1828C84.6303 20.2502 84.6197 20.3215 84.584 20.3811C84.5482 20.4406 84.4903 20.4836 84.4229 20.5004L30.3349 34.5065L30.2739 34.5166Z" fill="white"/>
<path d="M32.5608 43.3846C32.5033 43.3856 32.4473 43.3663 32.4027 43.33C32.358 43.2937 32.3277 43.2429 32.3169 43.1864C32.3094 43.154 32.3085 43.1204 32.3143 43.0877C32.32 43.0549 32.3322 43.0237 32.3502 42.9957C32.3682 42.9678 32.3916 42.9437 32.4191 42.925C32.4465 42.9062 32.4774 42.8932 32.51 42.8865L84.8803 31.1369C84.9477 31.1227 85.0179 31.1359 85.0756 31.1736C85.1332 31.2112 85.1736 31.2702 85.1877 31.3376C85.2019 31.405 85.1887 31.4753 85.151 31.5329C85.1134 31.5906 85.0544 31.6309 84.987 31.6451L32.637 43.3795L32.5608 43.3846Z" fill="white"/>
<path d="M37.0471 51.6834C36.9883 51.6844 36.931 51.6646 36.8854 51.6274C36.8398 51.5901 36.8089 51.538 36.7981 51.4801C36.7914 51.4474 36.7913 51.4137 36.7976 51.381C36.8039 51.3482 36.8167 51.317 36.8351 51.2892C36.8535 51.2613 36.8772 51.2374 36.9049 51.2187C36.9325 51.2 36.9636 51.187 36.9963 51.1803L87.0797 41.4533C87.1121 41.4467 87.1455 41.4466 87.1779 41.453C87.2103 41.4594 87.2412 41.4722 87.2686 41.4906C87.296 41.5091 87.3195 41.5328 87.3377 41.5604C87.3559 41.588 87.3684 41.619 87.3744 41.6515C87.3818 41.6843 87.3825 41.7182 87.3765 41.7512C87.3704 41.7842 87.3578 41.8157 87.3393 41.8437C87.3208 41.8717 87.2968 41.8957 87.2687 41.9142C87.2407 41.9327 87.2093 41.9453 87.1762 41.9513L37.0929 51.6783L37.0471 51.6834Z" fill="white"/>
<path d="M39.4315 62.2749C39.3641 62.2803 39.2973 62.2587 39.2459 62.2148C39.1944 62.171 39.1625 62.1085 39.1571 62.0411C39.1517 61.9737 39.1733 61.907 39.2171 61.8555C39.261 61.804 39.3234 61.7721 39.3908 61.7667L86.8976 54.0369C86.965 54.0261 87.0339 54.0426 87.0892 54.0826C87.1445 54.1226 87.1816 54.183 87.1924 54.2504C87.2032 54.3178 87.1867 54.3867 87.1467 54.442C87.1067 54.4972 87.0463 54.5343 86.9789 54.5451L39.4721 62.2698L39.4315 62.2749Z" fill="white"/>
<path d="M64.4761 67.4481L19.7949 47.0438L31.4633 99.7952L105.961 86.3939L98.7289 33.8813L64.4761 67.4481Z" fill="white"/>
<path d="M31.467 100.049C31.4089 100.051 31.3522 100.031 31.3067 99.9953C31.2612 99.9591 31.2298 99.9081 31.218 99.8512L19.5293 47.0947C19.5192 47.0484 19.5222 47.0002 19.538 46.9556C19.5538 46.9109 19.5818 46.8715 19.6188 46.8419C19.6558 46.8123 19.7003 46.7937 19.7474 46.788C19.7944 46.7824 19.8421 46.7901 19.8851 46.8101L64.4087 67.1382L98.5497 33.6782C98.5833 33.6445 98.6257 33.6209 98.672 33.6101C98.7183 33.5994 98.7667 33.6018 98.8117 33.6171C98.8567 33.6325 98.8965 33.6602 98.9265 33.697C98.9566 33.7338 98.9757 33.7784 98.9817 33.8255L106.213 86.3381C106.218 86.3705 106.217 86.4035 106.209 86.4354C106.202 86.4672 106.188 86.4972 106.168 86.5237C106.149 86.5501 106.125 86.5725 106.097 86.5895C106.069 86.6065 106.037 86.6177 106.005 86.6227L31.5077 100.044L31.467 100.049ZM20.1493 47.486L31.6601 99.5056L105.675 86.1857L98.5599 34.4151L64.6526 67.6312C64.6154 67.6667 64.5683 67.6901 64.5174 67.6983C64.4666 67.7065 64.4145 67.699 64.368 67.6769L20.1493 47.486Z" fill="#1E293B"/>
<path d="M105.966 86.394L31.4688 99.7953L64.4816 67.4482L105.966 86.394Z" fill="white"/>
<path d="M31.467 100.049C31.4199 100.05 31.3736 100.037 31.3332 100.013C31.2928 99.9889 31.26 99.9539 31.2383 99.9121C31.2137 99.8641 31.2054 99.8094 31.2146 99.7562C31.2237 99.7031 31.2499 99.6543 31.2892 99.6173L64.3223 67.2652C64.3595 67.2296 64.4067 67.2062 64.4575 67.198C64.5083 67.1899 64.5604 67.1973 64.6069 67.2194L106.086 86.1601C106.136 86.1832 106.176 86.2211 106.203 86.2685C106.229 86.316 106.24 86.3705 106.234 86.4244C106.227 86.4776 106.204 86.5274 106.168 86.5667C106.131 86.6059 106.083 86.6326 106.031 86.6429L31.5128 100.049H31.467ZM64.5307 67.753L32.2344 99.3988L105.116 86.2872L64.5307 67.753Z" fill="#1E293B"/>
<path d="M105.966 86.394L31.4688 99.7953L64.4816 67.4482L105.966 86.394Z" fill="white"/>
<path d="M31.467 100.049C31.4199 100.05 31.3736 100.037 31.3332 100.013C31.2928 99.9889 31.26 99.9539 31.2383 99.9121C31.2137 99.8641 31.2054 99.8094 31.2146 99.7562C31.2237 99.7031 31.2499 99.6543 31.2892 99.6173L64.3223 67.2652C64.3595 67.2296 64.4067 67.2062 64.4575 67.198C64.5083 67.1899 64.5604 67.1973 64.6069 67.2194L106.086 86.1601C106.136 86.1832 106.176 86.2211 106.203 86.2685C106.229 86.316 106.24 86.3705 106.234 86.4244C106.227 86.4776 106.204 86.5274 106.168 86.5667C106.131 86.6059 106.083 86.6326 106.031 86.6429L31.5128 100.049H31.467ZM64.5307 67.753L32.2344 99.3988L105.116 86.2872L64.5307 67.753Z" fill="#1E293B"/>
<path d="M100.782 13.7056C100.782 13.7056 99.6995 17.7712 96.2793 17.8728C96.2793 17.8728 99.8875 18.8892 100.645 22.2739C100.981 21.3348 101.536 20.4895 102.264 19.808C102.993 19.1266 103.873 18.6287 104.832 18.3556C103.85 17.9362 102.976 17.3001 102.274 16.4948C101.573 15.6895 101.063 14.736 100.782 13.7056Z" fill="#E2E8F0"/>
<path d="M2.56641 44.5994C2.56641 44.5994 5.29545 48.5024 2.87641 51.5211C2.87641 51.5211 6.37792 49.1427 9.85403 50.957C9.28857 49.9835 8.96362 48.8892 8.90616 47.7648C8.84871 46.6405 9.06042 45.5187 9.5237 44.4927C9.5237 44.4927 6.55071 46.2917 2.56641 44.5994Z" fill="#E2E8F0"/>
<path d="M27.0465 12.7759C27.0465 12.7759 27.6207 19.5756 22.4727 21.5729C22.4727 21.5729 28.5152 21.146 31.5187 25.8926C31.5187 25.8926 31.3052 20.6886 35.7571 17.6546C35.7164 17.6546 30.7462 17.7461 27.0465 12.7759Z" fill="#E2E8F0"/>
<path d="M124.856 46.998C124.856 46.998 85.3638 67.0263 79.3518 68.1749C73.3397 69.3234 66.1893 67.316 66.4739 69.0337C66.7585 70.7514 70.194 71.6052 70.194 71.6052C70.194 71.6052 59.3235 73.3229 59.8927 74.4715C60.4619 75.62 67.6224 74.1818 67.6224 74.1818C67.6224 74.1818 58.7492 76.7584 60.7516 77.9018C62.7539 79.0453 69.0505 76.4738 69.0505 76.4738C69.0505 76.4738 59.6081 81.3373 62.1847 81.6219C64.7613 81.9065 69.3402 79.335 69.3402 79.335C69.3402 79.335 62.1847 83.055 65.0459 83.3396C67.907 83.6242 110.545 68.4594 124.856 59.8759" fill="white"/>
<path d="M65.1311 83.5988H65.0193C64.4857 83.5429 64.1808 83.3599 64.1249 83.055C64.0385 82.5976 64.6737 81.9573 65.558 81.3068C64.4738 81.7276 63.3153 81.923 62.153 81.8811C61.7617 81.8353 61.5381 81.6879 61.4924 81.4287C61.3501 80.6664 63.8504 79.0554 66.1729 77.7392C64.2062 78.3135 61.7821 78.7912 60.6234 78.1305C60.4911 78.0753 60.3796 77.9798 60.3047 77.8575C60.2299 77.7352 60.1956 77.5924 60.2066 77.4495C60.3032 76.6466 62.3665 75.7064 64.3536 74.9847C62.2699 75.2439 60.0389 75.3303 59.6628 74.5883C59.629 74.5232 59.6113 74.4509 59.6113 74.3774C59.6113 74.304 59.629 74.2317 59.6628 74.1665C60.1711 73.1501 66.3457 71.9965 69.1053 71.534C68.0126 71.1224 66.422 70.3144 66.2136 69.0794C66.1925 68.9753 66.1962 68.8676 66.2244 68.7652C66.2527 68.6628 66.3047 68.5685 66.3762 68.4899C66.8844 67.9258 68.4395 68.0173 70.8077 68.1545C73.3081 68.2968 76.398 68.4747 79.2947 67.9309C85.2 66.8027 124.337 46.9726 124.728 46.7744C124.789 46.744 124.859 46.7387 124.924 46.7597C124.988 46.7806 125.042 46.826 125.074 46.8862C125.104 46.9462 125.109 47.0157 125.088 47.0795C125.067 47.1433 125.022 47.1963 124.962 47.2267C123.346 48.0449 85.3677 67.2906 79.3913 68.4289C76.4539 68.9879 73.2928 68.805 70.7518 68.6627C68.8562 68.5509 67.0674 68.4493 66.7269 68.8253C66.7073 68.848 66.6938 68.8753 66.6875 68.9046C66.6813 68.9339 66.6826 68.9643 66.6913 68.993C66.9047 70.2686 69.3085 71.1376 70.2233 71.3663C70.2907 71.3697 70.354 71.3997 70.3993 71.4497C70.4445 71.4998 70.4681 71.5657 70.4647 71.6331C70.4613 71.7005 70.4313 71.7638 70.3813 71.8091C70.3313 71.8544 70.2653 71.8779 70.1979 71.8745C65.5173 72.6114 60.3184 73.7905 60.0847 74.4156C60.3845 74.9746 64.1859 74.6239 67.5349 73.9531C67.5683 73.9451 67.6029 73.9437 67.6368 73.9491C67.6707 73.9545 67.7032 73.9665 67.7325 73.9844C67.7617 74.0023 67.7872 74.0258 67.8073 74.0536C67.8275 74.0814 67.842 74.1128 67.85 74.1462C67.858 74.1796 67.8594 74.2142 67.854 74.2481C67.8486 74.282 67.8366 74.3145 67.8187 74.3437C67.8008 74.373 67.7772 74.3984 67.7495 74.4186C67.7217 74.4388 67.6903 74.4533 67.6569 74.4613C64.3586 75.4167 60.7555 76.8651 60.6742 77.541C60.6742 77.6071 60.7758 77.6782 60.8419 77.7189C62.397 78.6082 67.1995 76.9769 68.9172 76.2705C68.9787 76.2462 69.0472 76.2464 69.1086 76.2709C69.1701 76.2955 69.2197 76.3426 69.2476 76.4026C69.2742 76.4622 69.2769 76.5297 69.2552 76.5912C69.2334 76.6526 69.1888 76.7034 69.1307 76.733C65.7105 78.4964 62.0158 80.7579 61.9548 81.3627C62.0267 81.3825 62.0996 81.3978 62.1734 81.4084C64.0944 81.6219 67.2554 80.1328 68.5818 79.462L69.1815 79.1418C69.2409 79.1113 69.3099 79.1054 69.3736 79.1254C69.4373 79.1453 69.4906 79.1896 69.522 79.2486C69.5382 79.2772 69.5485 79.3088 69.5524 79.3415C69.5563 79.3741 69.5537 79.4073 69.5447 79.4389C69.5357 79.4706 69.5206 79.5002 69.5001 79.5259C69.4796 79.5517 69.4542 79.5732 69.4254 79.5891C69.3848 79.5891 69.151 79.7466 68.7851 79.9346C66.4118 81.2255 64.5111 82.5976 64.5873 82.9838C64.5873 82.9838 64.6788 83.0804 65.0346 83.116H65.1616C66.6862 83.116 77.1094 79.8025 90.5717 74.7205C97.9305 71.9457 115.982 64.9274 124.728 59.6828C124.756 59.6619 124.789 59.6472 124.823 59.6396C124.857 59.6319 124.893 59.6315 124.927 59.6382C124.962 59.645 124.995 59.6589 125.024 59.679C125.052 59.6991 125.077 59.725 125.095 59.755C125.114 59.785 125.125 59.8185 125.13 59.8533C125.135 59.8882 125.132 59.9236 125.123 59.9574C125.113 59.9913 125.096 60.0227 125.074 60.0498C125.052 60.0768 125.024 60.099 124.992 60.1147C111.19 68.3679 69.151 83.5988 65.1311 83.5988Z" fill="#1E293B"/>
<path d="M117.558 63.9263C117.558 63.9263 111.459 49.6204 112.023 49.4272C112.587 49.2341 124.22 41.606 125.191 42.1803C126.161 42.7545 129.765 53.8181 128.621 57.0604C127.478 60.3028 117.558 63.9263 117.558 63.9263Z" fill="#448E4A"/>
<path d="M119.082 63.9976C119.027 63.9975 118.973 63.9803 118.929 63.9484C118.884 63.9165 118.851 63.8716 118.833 63.8197C118.812 63.7537 118.818 63.6821 118.849 63.6203C118.88 63.5585 118.935 63.5115 119 63.4894C119.087 63.4589 127.553 60.6028 130.897 56.3238C130.919 56.2969 130.945 56.2746 130.975 56.258C131.005 56.2414 131.038 56.231 131.072 56.2272C131.106 56.2234 131.14 56.2264 131.173 56.236C131.206 56.2456 131.237 56.2616 131.263 56.2831C131.291 56.3036 131.314 56.3295 131.332 56.3592C131.349 56.389 131.361 56.422 131.365 56.4562C131.369 56.4905 131.366 56.5252 131.357 56.5584C131.347 56.5915 131.331 56.6223 131.309 56.649C127.869 61.05 119.519 63.8706 119.168 63.9874C119.14 63.9958 119.111 63.9992 119.082 63.9976Z" fill="#1E293B"/>
<path d="M125.846 32.9105C125.784 32.9092 125.724 32.8857 125.678 32.8443C125.632 32.8029 125.602 32.7463 125.594 32.6848C125.586 32.6233 125.601 32.561 125.635 32.5092C125.669 32.4574 125.72 32.4195 125.78 32.4023C126.729 32.1193 127.602 31.6266 128.334 30.9607C129.067 30.2948 129.641 29.4727 130.013 28.5552C130.754 26.68 130.93 24.6293 130.521 22.655C130.237 20.7465 129.407 18.9606 128.133 17.512C127.495 16.8108 126.706 16.2635 125.825 15.9114C124.945 15.5592 123.996 15.4115 123.051 15.4792L122.68 15.53C122.402 15.5765 122.122 15.6019 121.841 15.6062C121.498 15.5897 121.158 15.5404 120.825 15.4589L120.606 15.4131C118.815 15.0549 116.962 15.155 115.22 15.7041C113.478 16.2532 111.902 17.2335 110.64 18.554C109.378 19.8746 108.47 21.4925 108 23.2578C107.53 25.0231 107.513 26.8785 107.952 28.6518C108.074 29.16 108.369 29.968 108.994 30.0443C109.028 30.0474 109.062 30.0574 109.092 30.0739C109.122 30.0903 109.149 30.1128 109.17 30.1399C109.192 30.167 109.208 30.1982 109.216 30.2316C109.225 30.2649 109.227 30.2998 109.222 30.3339C109.219 30.3681 109.208 30.4011 109.192 30.4311C109.175 30.4612 109.152 30.4876 109.125 30.5089C109.099 30.5301 109.068 30.5459 109.035 30.5551C109.001 30.5643 108.967 30.5669 108.933 30.5626C108.237 30.4762 107.708 29.8461 107.444 28.7788C106.979 26.9174 106.993 24.9687 107.484 23.1142C107.975 21.2596 108.928 19.5593 110.252 18.1717C111.577 16.784 113.231 15.754 115.061 15.1775C116.891 14.601 118.837 14.4967 120.718 14.8744L120.947 14.9202C121.253 14.9974 121.566 15.0434 121.882 15.0574C122.134 15.0506 122.385 15.0269 122.634 14.9862C122.766 14.9862 122.893 14.9456 123.025 14.9354C124.05 14.853 125.08 15.0087 126.035 15.3904C126.99 15.7722 127.844 16.3696 128.529 17.1359C129.882 18.6561 130.765 20.5363 131.07 22.5483C131.495 24.6247 131.303 26.7802 130.516 28.7484C130.114 29.7387 129.494 30.6258 128.703 31.3438C127.911 32.0617 126.967 32.592 125.942 32.8953L125.846 32.9105Z" fill="#1E293B"/>
<path d="M121.877 15.3317C121.877 15.3317 124.52 13.37 128.814 14.4169C133.108 15.4638 134.729 23.2901 130.72 27.4879C130.72 27.4879 131.345 16.0483 121.877 15.3317Z" fill="#1E293B"/>
<path d="M137.159 39.8682H137.134C135.101 39.743 133.153 39.0081 131.544 37.7592C130.737 37.1228 130.088 36.3089 129.647 35.3807C129.207 34.4525 128.986 33.4352 129.003 32.4078C129.003 32.3731 129.011 32.3389 129.025 32.3072C129.04 32.2756 129.06 32.2473 129.086 32.2239C129.112 32.2006 129.142 32.1828 129.175 32.1716C129.208 32.1604 129.243 32.156 129.277 32.1588C129.312 32.1601 129.346 32.1683 129.377 32.1828C129.408 32.1974 129.436 32.2181 129.46 32.2436C129.483 32.2692 129.501 32.2991 129.512 32.3317C129.523 32.3643 129.528 32.3988 129.526 32.4332C129.512 33.3777 129.715 34.3128 130.121 35.1659C130.526 36.019 131.123 36.7673 131.864 37.3526C133.105 38.3291 134.577 38.9697 136.138 39.2127C135.709 38.7325 135.436 38.1335 135.355 37.4949C135.272 36.5321 135.42 35.5633 135.787 34.6693C136.4 33.1508 137.147 31.6899 138.018 30.3039C139.284 28.144 140.478 26.1061 140.742 23.7379C140.897 22.37 140.714 20.985 140.21 19.7039C139.707 18.4228 138.897 17.2846 137.851 16.3887C136.806 15.4929 135.557 14.8666 134.214 14.5646C132.871 14.2626 131.474 14.2941 130.146 14.6563C130.079 14.6737 130.007 14.6644 129.947 14.6303C129.886 14.5962 129.841 14.54 129.821 14.4734C129.812 14.4403 129.809 14.4058 129.813 14.3717C129.818 14.3377 129.829 14.3048 129.846 14.2751C129.863 14.2453 129.885 14.2192 129.913 14.1983C129.94 14.1773 129.971 14.162 130.004 14.1532C131.416 13.7678 132.901 13.7341 134.329 14.0551C135.757 14.3761 137.084 15.0421 138.195 15.9947C139.307 16.9474 140.167 18.1578 140.703 19.52C141.238 20.8822 141.431 22.3548 141.266 23.809C140.986 26.284 139.706 28.4642 138.471 30.5783C137.628 31.934 136.905 33.3607 136.311 34.8421C135.965 35.6544 135.826 36.5395 135.904 37.4187C135.944 37.8319 136.089 38.2279 136.327 38.5681C136.565 38.9083 136.887 39.1811 137.261 39.36C137.317 39.3834 137.363 39.4252 137.392 39.4786C137.421 39.5321 137.431 39.5937 137.419 39.6534C137.408 39.713 137.376 39.7669 137.33 39.806C137.284 39.8451 137.225 39.8671 137.165 39.8682H137.159Z" fill="#1E293B"/>
<path d="M113.837 51.5516C113.772 51.563 113.705 51.5497 113.65 51.5143C113.594 51.4788 113.554 51.4239 113.536 51.3602C113.519 51.2965 113.527 51.2286 113.557 51.17C113.587 51.1114 113.638 51.0662 113.7 51.0434L124.144 44.6044C124.203 44.5686 124.274 44.5575 124.342 44.5737C124.409 44.5898 124.468 44.6319 124.505 44.6908C124.523 44.7201 124.535 44.7527 124.541 44.7868C124.547 44.8209 124.545 44.8558 124.537 44.8895C124.529 44.9231 124.515 44.9547 124.494 44.9826C124.474 45.0105 124.448 45.0339 124.418 45.0517L113.975 51.4906C113.936 51.5235 113.888 51.5447 113.837 51.5516Z" fill="#1E293B"/>
<path d="M0.233775 70.5432C0.171774 70.5432 0.112312 70.5186 0.0684708 70.4747C0.0246298 70.4309 0 70.3714 0 70.3094C0 70.2474 0.0246298 70.188 0.0684708 70.1441C0.112312 70.1003 0.171774 70.0756 0.233775 70.0756L15.9881 69.2168C16.0195 69.2132 16.0513 69.2163 16.0814 69.2259C16.1116 69.2355 16.1393 69.2514 16.1629 69.2726C16.1864 69.2937 16.2052 69.3196 16.218 69.3485C16.2308 69.3774 16.2373 69.4088 16.2371 69.4404C16.2399 69.5016 16.2185 69.5614 16.1777 69.607C16.1368 69.6526 16.0797 69.6804 16.0185 69.6843L0.264266 70.5432H0.233775Z" fill="#E2E8F0"/>
<path d="M38.0076 118.909C37.9627 118.91 37.9185 118.897 37.8805 118.873C37.8287 118.839 37.7922 118.786 37.779 118.725C37.7657 118.664 37.7766 118.601 37.8094 118.548L45.5391 106.529C45.5548 106.501 45.576 106.477 45.6014 106.457C45.6269 106.438 45.656 106.424 45.6871 106.416C45.7181 106.409 45.7504 106.408 45.7819 106.413C45.8134 106.418 45.8435 106.43 45.8703 106.447C45.8971 106.465 45.9201 106.488 45.9378 106.514C45.9554 106.541 45.9675 106.571 45.9731 106.602C45.9787 106.634 45.9779 106.666 45.9705 106.697C45.9632 106.728 45.9496 106.757 45.9305 106.783L38.2261 118.802C38.203 118.838 38.1704 118.867 38.1318 118.886C38.0933 118.905 38.0503 118.913 38.0076 118.909Z" fill="#E2E8F0"/>
<path d="M8.8172 99.4493C8.77552 99.4489 8.7347 99.4374 8.69895 99.416C8.66321 99.3945 8.63385 99.3639 8.61392 99.3273C8.59879 99.3007 8.58914 99.2713 8.58556 99.241C8.58197 99.2106 8.58452 99.1798 8.59305 99.1504C8.60158 99.121 8.61592 99.0937 8.63522 99.0699C8.65451 99.0462 8.67838 99.0266 8.7054 99.0122L20.4398 92.4259C20.4946 92.3965 20.5587 92.3896 20.6184 92.4066C20.6782 92.4237 20.729 92.4635 20.76 92.5174C20.7754 92.544 20.7854 92.5735 20.7894 92.6041C20.7935 92.6346 20.7914 92.6657 20.7834 92.6954C20.7753 92.7252 20.7615 92.7531 20.7427 92.7774C20.7238 92.8018 20.7003 92.8223 20.6736 92.8375L8.93917 99.4442C8.89968 99.4566 8.85759 99.4584 8.8172 99.4493Z" fill="#E2E8F0"/>
<path d="M95.8171 8.1561C95.7795 8.156 95.7424 8.1468 95.7091 8.12929C95.6757 8.11179 95.6471 8.08649 95.6257 8.05556C95.6042 8.02462 95.5905 7.98896 95.5858 7.9516C95.5811 7.91425 95.5855 7.87631 95.5986 7.84101L98.4598 0.136664C98.4843 0.0829196 98.5283 0.0404625 98.5829 0.0178308C98.6374 -0.00480093 98.6986 -0.00592851 98.7539 0.0146757C98.8093 0.0352798 98.8548 0.076087 98.8813 0.12889C98.9078 0.181692 98.9134 0.242573 98.8968 0.299288L96.0356 8.02397C96.0165 8.06523 95.9855 8.09984 95.9465 8.12338C95.9076 8.14691 95.8625 8.15831 95.8171 8.1561Z" fill="#E2E8F0"/>
<path d="M139.029 54.8039C138.974 54.8046 138.92 54.7854 138.878 54.75C138.836 54.7145 138.809 54.6651 138.8 54.6108C138.795 54.5804 138.796 54.5493 138.803 54.5193C138.81 54.4893 138.823 54.461 138.841 54.436C138.859 54.411 138.881 54.3897 138.907 54.3735C138.934 54.3573 138.963 54.3464 138.993 54.3415L151.297 52.3086C151.358 52.2997 151.42 52.3149 151.47 52.3509C151.521 52.3869 151.555 52.441 151.566 52.5018C151.571 52.5321 151.57 52.5632 151.563 52.5932C151.556 52.6232 151.543 52.6515 151.526 52.6766C151.508 52.7016 151.485 52.7228 151.459 52.7391C151.433 52.7553 151.403 52.7662 151.373 52.7711L139.064 54.7785L139.029 54.8039Z" fill="#E2E8F0"/>
<path d="M138.744 105.746C138.709 105.747 138.674 105.739 138.642 105.723C138.61 105.707 138.582 105.683 138.561 105.655L130.832 95.9278C130.794 95.8783 130.777 95.8161 130.785 95.7544C130.793 95.6927 130.824 95.6364 130.872 95.5975C130.896 95.5781 130.923 95.5636 130.952 95.5549C130.981 95.5462 131.012 95.5435 131.042 95.5468C131.073 95.5501 131.102 95.5594 131.129 95.5742C131.155 95.589 131.179 95.609 131.198 95.633L138.927 105.365C138.947 105.389 138.961 105.417 138.969 105.447C138.978 105.477 138.98 105.508 138.976 105.539C138.972 105.57 138.962 105.599 138.947 105.626C138.932 105.653 138.911 105.677 138.887 105.695C138.846 105.727 138.796 105.745 138.744 105.746Z" fill="#E2E8F0"/>
<path d="M18.448 23.1228C18.3921 23.1234 18.3378 23.1036 18.2956 23.0669L12.7714 18.3203C12.7288 18.2758 12.7051 18.2167 12.7051 18.1551C12.7051 18.0936 12.7288 18.0344 12.7714 17.99C12.791 17.9659 12.8152 17.9462 12.8427 17.9318C12.8701 17.9174 12.9002 17.9088 12.9311 17.9064C12.962 17.9041 12.9931 17.908 13.0224 17.918C13.0517 17.928 13.0787 17.9438 13.1017 17.9645L18.6259 22.7112C18.6499 22.7307 18.6697 22.755 18.684 22.7824C18.6984 22.8099 18.707 22.84 18.7094 22.8709C18.7118 22.9018 18.7079 22.9328 18.6979 22.9621C18.6879 22.9915 18.672 23.0185 18.6513 23.0415C18.6272 23.0713 18.5959 23.0945 18.5603 23.1087C18.5247 23.123 18.486 23.1278 18.448 23.1228Z" fill="#E2E8F0"/>
<path d="M115.708 82.008C115.665 82.0082 115.623 81.9977 115.586 81.9775C115.557 81.9621 115.531 81.9409 115.51 81.9154C115.489 81.8898 115.473 81.8603 115.464 81.8286C115.454 81.7969 115.451 81.7636 115.455 81.7307C115.458 81.6978 115.468 81.666 115.484 81.637L121.018 71.5238C121.045 71.4743 121.088 71.4353 121.139 71.4132C121.191 71.3911 121.249 71.387 121.303 71.4018C121.358 71.4147 121.406 71.4459 121.44 71.4904C121.475 71.5348 121.493 71.5897 121.491 71.6458V80.6105C121.491 80.6779 121.464 80.7425 121.417 80.7901C121.369 80.8378 121.304 80.8646 121.237 80.8646C121.17 80.8646 121.105 80.8378 121.057 80.7901C121.01 80.7425 120.983 80.6779 120.983 80.6105V72.6368L115.901 81.881C115.881 81.9159 115.853 81.9456 115.82 81.9677C115.786 81.9898 115.748 82.0036 115.708 82.008Z" fill="white"/>
</svg>
