<svg width="144" height="159" viewBox="0 0 144 159" fill="none" xmlns="http://www.w3.org/2000/svg">
<mask id="mask0_1390_2674" style="mask-type:luminance" maskUnits="userSpaceOnUse" x="0" y="0" width="144" height="159">
<path d="M143.508 0.589844H0.507812V158.09H143.508V0.589844Z" fill="white"/>
</mask>
<g mask="url(#mask0_1390_2674)">
<path d="M92.8233 65.7592C90.2033 66.1192 87.9933 62.6092 86.7333 60.8192C85.4833 59.0292 84.2333 56.4991 82.2633 55.2191C79.9733 53.7291 76.5033 51.6993 73.8033 53.3693C71.7133 54.6593 71.7233 56.4391 72.5833 58.4391C73.6633 60.9291 75.2633 63.2091 76.7633 65.4691C78.4433 67.9791 80.1833 70.4593 81.6633 73.0893C82.6433 74.8493 83.2133 76.7192 84.0033 78.5692C85.2533 81.4892 86.7033 84.3493 88.3033 87.0993C89.6933 89.4893 91.2233 91.7891 93.2033 93.7191C94.0033 94.4891 94.8033 95.2792 95.5633 96.0792C96.6033 97.1892 97.6333 98.4392 98.1733 99.7392C98.8133 101.299 98.9433 102.829 98.9933 104.479C99.0833 107.269 98.9533 110.069 98.8833 112.869C98.5533 125.339 98.7633 137.799 99.3633 150.249C99.4833 152.669 99.6133 155.099 99.7533 157.519C99.8033 158.259 100.963 158.269 100.913 157.519C100.113 143.699 99.6833 129.849 99.9733 115.999C100.043 112.779 100.173 109.559 100.183 106.349C100.183 104.469 100.163 102.529 99.7033 100.689C98.7833 97.0291 95.6933 94.7193 93.2233 92.0893C91.0333 89.7593 89.4233 86.8392 87.9233 84.0292C86.6433 81.6292 85.3933 79.1593 84.4433 76.5993C83.6733 74.5593 82.8133 72.6892 81.6633 70.8092C80.0533 68.2092 78.2833 65.7091 76.6133 63.1491C75.3433 61.1991 73.7533 59.0492 73.1933 56.7492C72.9333 55.6992 73.4233 54.9493 74.3633 54.3593C75.7833 53.4693 77.6133 54.0691 79.0033 54.7191C80.1433 55.2491 81.4633 55.8892 82.3533 56.7992C83.2333 57.7092 83.8833 58.7492 84.5633 59.7592C86.0933 62.0092 87.6733 64.599 90.0033 66.129C90.9533 66.739 91.9833 67.0391 93.1033 66.8891C93.8433 66.7891 93.5333 65.6692 92.7933 65.7692H92.8133L92.8233 65.7592Z" fill="#F7F1EC"/>
<path d="M93.3098 68.3603C94.8398 63.2403 93.7998 57.4502 92.2998 52.4502C91.4498 49.5802 90.3298 46.7903 88.9798 44.1103C87.6298 41.4303 86.0098 38.7103 84.7798 35.8703C83.8098 33.6303 82.7498 31.1902 82.4298 28.7602C82.3098 27.8702 82.3198 26.8002 82.5298 25.9202C82.7498 24.9902 83.8398 23.9903 84.8598 24.0803C85.6298 24.1403 86.3698 25.1201 86.8398 25.6501C87.6698 26.6201 88.3798 27.6802 89.0898 28.7302C90.6198 30.9802 92.2798 33.1501 93.8098 35.4101C95.5998 38.0701 97.1698 40.8603 98.3898 43.8203C99.6098 46.7803 100.52 50.0102 101.28 53.1902C101.45 53.9202 102.57 53.6101 102.4 52.8801C101 47.0301 99.0098 41.4503 95.7998 36.3403C94.1798 33.7703 92.2798 31.4003 90.5898 28.8703C89.3398 27.0003 88.0398 24.6601 86.1198 23.3801C84.5498 22.3301 82.2398 23.4303 81.5698 25.1003C80.8598 26.8703 81.2198 29.1103 81.7198 30.8703C82.5298 33.7403 83.7298 36.5202 85.0398 39.1902C86.5198 42.2202 88.2898 45.0602 89.5598 48.1902C90.9098 51.5002 91.9298 54.9702 92.4698 58.5002C92.9498 61.6402 93.0798 64.9603 92.1598 68.0403C91.9398 68.7603 93.0698 69.0603 93.2798 68.3503H93.2998L93.3098 68.3603Z" fill="#F7F1EC"/>
<path d="M111.289 53.6185C110.809 51.4385 110.429 49.2284 109.899 47.0584C109.369 44.8884 108.619 42.8883 107.719 40.9083C107.089 39.5283 106.309 38.1684 104.739 37.7984C104.069 37.6384 103.349 37.6284 102.659 37.5884C101.749 37.5384 100.769 37.3284 99.8786 37.5884C98.6086 37.9584 97.6686 39.1384 97.2186 40.3384C96.9586 41.0484 98.0785 41.3482 98.3385 40.6482C98.4385 40.3882 98.7686 39.8083 99.0586 39.4883C99.8086 38.6283 100.619 38.6083 101.689 38.6983C103.199 38.8183 104.909 38.5783 105.889 39.9583C106.599 40.9683 107.049 42.1984 107.489 43.3384C107.929 44.4784 108.299 45.5583 108.599 46.6883C109.239 49.0783 109.639 51.5283 110.169 53.9383C110.329 54.6683 111.459 54.3582 111.289 53.6282H111.269L111.289 53.6185Z" fill="#F7F1EC"/>
<path d="M118.994 53.3802C118.424 50.2402 118.094 46.9302 116.904 43.9402C116.024 41.7502 114.364 39.6603 111.964 39.0503C110.294 38.6203 108.434 39.2103 106.754 39.2703C106.014 39.2903 106.004 40.4602 106.754 40.4302C107.804 40.4002 108.834 40.2502 109.864 40.1402C110.624 40.0502 111.374 40.0204 112.094 40.3104C113.404 40.8304 114.474 41.8103 115.174 43.0103C115.984 44.3803 116.394 45.9503 116.734 47.5003C117.184 49.5503 117.504 51.6102 117.874 53.6702C118.004 54.4102 119.124 54.1004 118.994 53.3604V53.3802Z" fill="#F7F1EC"/>
<path d="M115.045 41.8098C116.175 41.5798 117.385 41.1498 118.535 41.5198C120.465 42.1198 121.545 44.4199 122.295 46.1099C123.955 49.8399 124.715 54.0298 125.445 58.0198C126.225 62.3598 126.835 66.7396 127.205 71.1396C127.635 76.1396 127.775 81.1597 128.225 86.1497C129.105 95.7697 130.995 105.19 133.115 114.61C134.845 122.26 136.745 129.86 138.605 137.48C139.975 143.08 141.005 148.74 141.895 154.44C142.065 155.52 142.225 156.61 142.395 157.69C142.505 158.43 143.625 158.12 143.515 157.38C142.575 151.07 141.545 144.78 140.065 138.58C138.355 131.41 136.505 124.26 134.865 117.07C132.595 107.18 130.455 97.2697 129.485 87.1497C128.985 81.9997 128.815 76.8297 128.405 71.6697C128.055 67.3197 127.485 62.9697 126.735 58.6697C125.985 54.3697 125.235 50.2598 123.655 46.3398C122.395 43.2098 120.385 39.7098 116.525 40.3298C115.925 40.4198 115.335 40.5897 114.745 40.6997C114.015 40.8497 114.325 41.9698 115.055 41.8198L115.045 41.8098Z" fill="#F7F1EC"/>
<path d="M44.9758 5.69958C43.3958 3.47958 41.5558 0.969534 38.6658 0.649534C36.8758 0.449534 35.0158 0.829749 33.2558 1.11975C31.4958 1.40975 29.5958 1.79962 27.7858 2.23962C24.1458 3.13962 20.5758 4.32972 17.1358 5.83972C14.9158 6.81972 12.2058 7.70954 11.2758 10.1595C10.1258 13.1995 11.2758 16.8797 12.3258 19.7697C12.5858 20.4697 13.7058 20.1696 13.4458 19.4596C12.5458 16.9696 11.5658 14.0297 12.1258 11.3497C12.6358 8.92973 14.7458 8.19963 16.7858 7.24963C22.8458 4.44963 29.5258 2.58973 36.1658 1.84973C37.9058 1.65973 39.6058 1.67974 40.9958 2.85974C42.1358 3.83974 43.0758 5.04965 43.9558 6.26965C44.3858 6.86965 45.3958 6.28956 44.9658 5.67956L44.9758 5.69958Z" fill="#F7F1EC"/>
<path d="M45.9793 52.4102C46.1193 52.7702 46.2593 53.1302 46.3893 53.4902C46.2093 53.5602 46.0293 53.6302 45.8493 53.6802C45.6593 53.7602 45.4893 53.8201 45.2993 53.8801C44.7693 54.0701 44.2193 54.2602 43.6893 54.4302C40.8493 55.3402 37.8893 55.9603 34.9193 56.2603C33.5393 56.3903 32.1393 56.4503 30.7593 56.3203C29.6493 56.2103 28.7993 55.9403 28.0493 55.3403C27.7593 55.1103 27.4893 54.8302 27.2293 54.5002C26.7693 53.9302 27.5893 53.1002 28.0593 53.6802C28.0993 53.7302 28.1293 53.7703 28.1693 53.8103C28.7393 54.5103 29.3193 54.9503 30.2493 55.1003C30.9393 55.2103 31.6393 55.2302 32.3293 55.2302C33.8993 55.2302 35.4793 55.0803 37.0293 54.8203C39.6993 54.3903 42.3193 53.6803 44.8893 52.8003C45.0793 52.7403 45.2493 52.6804 45.4393 52.6104C45.6193 52.5604 45.7993 52.4902 45.9793 52.4202V52.4102Z" fill="#F7F1EC"/>
<path d="M59.176 43.3281C59.196 44.2381 59.1159 45.158 58.8459 45.978C58.5159 46.958 57.7559 47.7181 56.9659 48.3381C55.9859 49.1081 54.916 49.7681 53.796 50.3381C53.626 50.4281 53.446 50.5181 53.266 50.5981C53.096 50.6881 52.9159 50.7681 52.7459 50.8581C52.6159 50.4981 52.4759 50.138 52.3359 49.778C52.5159 49.688 52.686 49.618 52.856 49.518C53.036 49.428 53.216 49.348 53.386 49.258C54.486 48.688 55.5359 48.058 56.4659 47.268C57.1259 46.708 57.6559 46.118 57.8459 45.258C58.0559 44.298 58.056 43.248 57.956 42.248C57.936 42.098 57.9259 41.9581 57.9059 41.8081C57.8459 41.3181 58.3259 41.1581 58.6859 41.3081C58.8459 41.3681 58.986 41.498 59.046 41.708C59.066 41.738 59.0659 41.7681 59.0659 41.8081C59.1359 42.2981 59.1859 42.8181 59.1859 43.3381L59.176 43.3281Z" fill="#F7F1EC"/>
<path d="M51.5785 65.9807C52.2185 65.8807 52.9385 65.5208 53.5085 65.3008C53.3085 65.5708 53.1085 65.8408 52.9185 66.1108C52.7285 66.3808 52.5185 66.6507 52.3285 66.9207C51.9585 67.4307 51.5885 67.9307 51.2085 68.4407C49.4985 70.7507 47.5184 72.9706 46.3784 75.6406C45.3884 77.9506 44.8485 80.4406 44.4485 82.9106C43.3685 89.7006 43.4685 96.6908 43.7385 103.551C44.4485 121.601 46.8284 139.561 48.5984 157.531C48.6784 158.281 47.5184 158.271 47.4384 157.531C46.4084 147.061 45.2185 136.611 44.2285 126.141C43.4185 117.661 42.6985 109.151 42.4885 100.631C42.3285 94.0906 42.3684 87.4107 43.6284 80.9707C44.0784 78.6507 44.7184 76.3207 45.7784 74.1907C47.0484 71.6407 49.0185 69.4108 50.7385 67.1208C50.8785 66.9408 51.0085 66.7608 51.1385 66.5908C51.1585 66.5608 51.1785 66.5407 51.1985 66.5007C51.3185 66.3307 51.4485 66.1607 51.5684 65.9907L51.5785 65.9807Z" fill="#F7F1EC"/>
<path d="M63.5544 43.2681C63.5344 43.4181 63.5144 43.5681 63.4944 43.7181C62.7444 49.4681 60.3044 54.7481 57.2544 59.6881C57.1244 59.9081 56.9944 60.1182 56.8444 60.3382C56.7244 60.5582 56.5844 60.7681 56.4344 60.9881C56.2944 60.4981 56.1444 60.0182 55.9844 59.5382C56.1144 59.3282 56.2444 59.118 56.3844 58.898C56.5144 58.678 56.6444 58.4681 56.7844 58.2481C59.4344 53.8281 61.5644 49.0981 62.3044 44.0281C62.3444 43.7681 62.3744 43.5181 62.4044 43.2581C62.4944 42.5181 63.6544 42.5181 63.5644 43.2581L63.5544 43.2681Z" fill="#F7F1EC"/>
<path d="M21.429 38.2281C24.7989 41.5181 26.7689 45.448 27.0189 50.218C27.1389 52.498 26.9689 54.8182 26.6989 57.0782C26.4589 59.0582 26.1889 61.6581 24.8489 63.2481C24.3689 63.8181 25.1889 64.6381 25.6689 64.0681C27.0989 62.3681 27.4789 59.8881 27.7789 57.7581C28.1189 55.2781 28.3189 52.718 28.1889 50.208C28.0589 47.708 27.4889 45.038 26.3189 42.698C25.3089 40.688 23.8589 38.968 22.2689 37.398C21.7389 36.868 20.9089 37.688 21.4489 38.218L21.429 38.2281Z" fill="#F7F1EC"/>
<path d="M21.1072 36.1577C20.7072 34.2377 21.4672 32.4277 22.8872 31.1477C24.1672 29.9877 25.1872 28.7377 25.8772 27.1377C27.0172 24.4677 27.3372 21.1277 26.2872 18.3777C25.9572 17.4977 25.4472 16.5777 24.5972 16.1277C23.7572 15.6677 22.8272 15.8778 21.9972 16.2278C19.1272 17.4178 16.7172 19.9978 14.7072 22.2878C12.0772 25.2778 9.72719 28.6078 8.01719 32.2278C6.64719 35.1478 6.12718 38.1079 6.22718 41.3279C6.34718 44.9979 6.98719 48.6479 7.48719 52.2878C8.09719 56.7778 8.54717 61.2879 8.49717 65.8279C8.44717 69.7279 7.99719 73.6579 7.69719 77.5479C7.33719 82.3279 6.98718 87.1077 6.62718 91.8977C5.70718 104.198 4.76717 116.498 3.71718 128.788C3.24717 134.248 2.75718 139.708 2.18718 145.168C1.80718 148.788 1.45718 152.438 0.817181 156.018C0.727181 156.478 0.647173 156.948 0.527173 157.408C0.347173 158.138 1.4772 158.448 1.6472 157.718C2.3372 154.878 2.5972 151.888 2.9272 148.988C3.4872 144.088 3.94719 139.188 4.38719 134.288C5.46719 122.228 6.40719 110.158 7.32719 98.0879C7.97719 89.4379 8.57718 80.7777 9.28718 72.1377C9.53718 69.1477 9.71719 66.1677 9.63719 63.1577C9.51719 58.9577 8.99719 54.7877 8.41719 50.6277C7.91719 47.1277 7.33718 43.5979 7.37718 40.0479C7.42718 36.4979 8.44718 33.7178 10.0972 30.7678C12.0372 27.2778 14.5072 24.0478 17.3272 21.2178C18.4672 20.0778 19.6872 18.9679 21.0472 18.0979C21.7572 17.6379 22.8572 16.8879 23.7472 17.0879C24.6472 17.2779 25.0972 18.4578 25.3272 19.2178C25.7472 20.5578 25.8172 22.0077 25.6672 23.3977C25.4872 25.1177 24.9372 26.8178 23.9972 28.2678C23.1672 29.5378 21.8972 30.3479 21.0172 31.5579C19.9672 33.0279 19.6072 34.7678 19.9772 36.5278C20.1272 37.2578 21.2472 36.9478 21.0972 36.2178L21.0772 36.1878L21.1072 36.1577Z" fill="#F7F1EC"/>
<path d="M47.9503 3.49974C46.6103 4.49974 45.2503 5.50968 44.0503 6.68968C42.9303 7.79968 41.9803 9.22985 42.0003 10.8598C42.0203 12.6198 43.2303 14.4198 44.7203 15.3098C46.2103 16.1998 47.8303 15.9998 49.3803 15.5698C50.1303 15.3598 50.8703 15.0896 51.5103 14.6496C52.2703 14.1296 52.9703 13.5297 53.7103 12.9997C54.3103 12.5697 53.7303 11.5597 53.1203 11.9897C52.1303 12.6897 51.1903 13.6499 50.0503 14.1199C48.8403 14.6199 47.3003 15.0099 46.0103 14.6199C44.5903 14.1899 43.3403 12.6097 43.1703 11.1597C43.0003 9.69965 43.8403 8.52983 44.7703 7.58983C45.9103 6.43983 47.2203 5.45973 48.5203 4.48973C49.1203 4.04973 48.5403 3.03972 47.9303 3.47972H47.9503V3.49974Z" fill="#F7F1EC"/>
<path d="M50.6067 13.8698C48.0667 15.4998 45.4867 18.0798 45.8367 21.3498C46.0267 23.1198 46.9267 24.9797 48.3867 26.0497C49.5167 26.8797 50.9467 27.0197 52.2867 26.7097C53.6967 26.3897 54.9867 25.6398 56.1567 24.8098C56.7567 24.3798 56.1767 23.3797 55.5667 23.7997C53.9467 24.9497 51.5567 26.3596 49.5467 25.3896C48.1967 24.7296 47.3667 23.1697 47.0667 21.7597C46.7767 20.3497 47.1767 18.9697 47.9767 17.7997C48.7767 16.6297 49.9767 15.6498 51.1967 14.8598C51.8267 14.4598 51.2467 13.4498 50.6067 13.8498V13.8698Z" fill="#F7F1EC"/>
<path d="M60.0503 20.7002C58.8203 21.6202 57.5603 22.4803 56.3003 23.3703C55.0403 24.2503 53.9403 25.3403 52.8203 26.3503C50.9603 28.0203 49.1903 30.3401 50.5703 32.8901C51.7503 35.0701 54.3203 36.2101 56.7203 36.1501C59.7603 36.0801 61.9903 34.2002 64.2703 32.4202C64.8603 31.9602 64.0303 31.1403 63.4503 31.6003C61.6503 33.0103 59.9203 34.5402 57.5903 34.9202C55.2603 35.2902 52.8203 34.4201 51.6503 32.4101C50.2603 30.0101 52.7803 27.9603 54.3903 26.5303C55.2203 25.7903 56.0903 24.9403 56.9503 24.3503C58.2003 23.4803 59.4403 22.6302 60.6603 21.7202C61.2503 21.2802 60.6803 20.2702 60.0703 20.7102H60.0503V20.7002Z" fill="#F7F1EC"/>
<path d="M64.3835 30.9403C62.9735 31.9503 61.5935 32.9705 60.2935 34.1205C58.9135 35.3305 57.6435 36.6603 57.0135 38.4303C56.7035 39.2903 56.7035 40.1504 57.0835 40.9904C57.3635 41.6104 57.8335 42.1503 58.3135 42.6303C59.1235 43.4403 60.0935 43.9905 61.2435 44.0805C63.2335 44.2405 65.1135 43.0005 66.6035 41.8405C67.1935 41.3805 66.3635 40.5604 65.7835 41.0204C64.6135 41.9304 63.1535 42.9003 61.6235 42.9303C60.7335 42.9503 59.9535 42.5703 59.3035 41.9703C58.9735 41.6603 58.6335 41.3003 58.3835 40.9203C57.9035 40.2103 57.8635 39.5304 58.1435 38.7404C58.6735 37.2604 59.8035 36.1105 60.9435 35.1005C62.2335 33.9705 63.5735 32.9503 64.9735 31.9503C65.5735 31.5203 64.9935 30.5103 64.3835 30.9403Z" fill="#F7F1EC"/>
<path d="M66.607 41.8288C67.687 40.7988 68.7169 39.7088 69.6969 38.5888C70.5769 37.5788 71.747 36.3988 71.857 34.9987C72.007 33.0587 71.0569 30.8787 69.1369 30.1987C67.2169 29.5287 65.0069 30.3488 63.4369 31.5888L64.2569 32.4087C65.5569 30.8387 67.0369 29.2388 67.7869 27.3188C68.4569 25.6188 68.057 24.2287 67.147 22.7287C66.407 21.5087 65.5369 20.0587 64.1669 19.4487C62.5669 18.7387 61.0669 19.7088 59.9169 20.7888C59.3669 21.2988 60.187 22.1089 60.737 21.6089C62.247 20.2289 63.277 18.4388 62.987 16.3388C62.767 14.7188 61.8769 13.2788 60.8069 12.0788C60.0069 11.1688 59.037 10.1687 57.797 9.95871C55.967 9.64871 54.2869 10.9688 52.9969 12.0788C52.4969 12.5088 53.167 13.3787 53.707 12.9887C56.267 11.1187 56.9869 8.01866 55.6369 5.15866C55.1269 4.07866 54.327 3.03872 53.267 2.46872C51.307 1.40872 49.6069 2.37874 47.9369 3.48874C47.3169 3.89874 47.8969 4.90875 48.5269 4.49875C49.9169 3.57875 51.3369 2.55864 52.9669 3.63864C53.7169 4.13864 54.2669 4.92875 54.6369 5.74875C55.6769 7.99875 55.1669 10.5087 53.1269 11.9887L53.8369 12.8987C54.8469 12.0287 56.3869 10.7187 57.8469 11.1487C58.7069 11.4087 59.4269 12.2386 59.9969 12.8886C60.8169 13.8186 61.5169 14.9186 61.7869 16.1386C62.1869 17.9886 61.2569 19.5588 59.9169 20.7688L60.737 21.5888C61.737 20.6488 62.9869 19.8388 64.2269 20.8188C65.1769 21.5588 65.8169 22.7388 66.4069 23.7688C68.0769 26.6388 65.1369 29.4888 63.4069 31.5688C62.9169 32.1488 63.6469 32.8486 64.2269 32.3886C65.5469 31.3486 67.697 30.5388 69.267 31.5388C70.517 32.3388 71.1269 34.4888 70.3469 35.7788C69.1769 37.7188 67.3769 39.4287 65.7469 40.9887C65.2069 41.5087 66.0269 42.3288 66.5669 41.8088V41.7888L66.607 41.8288Z" fill="#F7F1EC"/>
<path d="M20.5846 17.7394C20.1846 17.0294 19.8746 16.2895 19.5946 15.5295C19.3346 14.8295 18.7846 13.8295 18.9046 13.0895C18.9846 12.6095 19.6046 12.4494 20.1146 12.2394C21.9346 11.5194 23.8447 10.9794 25.7347 10.4494C29.6447 9.33941 33.5946 8.2994 37.5646 7.4394C38.0646 7.3294 38.5846 7.20935 39.0946 7.13935C40.6146 6.92935 41.4446 8.41952 42.0946 9.56952C42.4546 10.2195 43.4646 9.63944 43.1046 8.97944C42.4346 7.78944 41.5446 6.34946 40.1146 5.99946C39.3746 5.82946 38.6246 6.04939 37.9046 6.17939C36.3546 6.46939 34.8247 6.86946 33.2947 7.24946C28.6747 8.38946 23.8446 9.42948 19.4446 11.2695C18.7146 11.5795 17.8146 11.9495 17.6646 12.8295C17.5146 13.7095 18.1047 14.7795 18.3947 15.5595C18.7447 16.4995 19.1146 17.4395 19.6146 18.3195C19.9746 18.9695 20.9846 18.3894 20.6246 17.7294L20.6046 17.7495L20.5846 17.7394Z" fill="#F7F1EC"/>
<path d="M24.526 28.7913C25.176 31.3213 26.546 33.8813 28.316 35.8013C28.566 36.0713 29.056 36.0112 29.226 35.6812C29.106 35.9112 28.796 35.8912 29.056 35.8812C29.186 35.8812 29.346 35.8013 29.466 35.7713C29.926 35.6513 30.386 35.5312 30.846 35.4112C32.356 35.0112 33.866 34.6112 35.366 34.1912C39.286 33.1012 43.196 31.9312 46.976 30.3912C48.716 29.6812 50.466 28.9314 51.996 27.8414C52.596 27.4114 52.016 26.4114 51.406 26.8314C48.346 28.9914 44.506 30.1513 40.966 31.2913C37.436 32.4313 33.986 33.3713 30.456 34.2913C29.956 34.4213 28.476 34.5413 28.206 35.0713L29.116 34.9512C27.486 33.1812 26.226 30.7812 25.626 28.4512C25.436 27.7312 24.316 28.0313 24.506 28.7613H24.526V28.7913Z" fill="#F7F1EC"/>
<path d="M39.7461 36.7085C38.7161 37.9485 37.6661 39.1785 36.6661 40.4385C36.2461 40.9585 35.8761 41.5585 35.9361 42.2585C35.9961 42.9585 36.4661 43.5285 37.1761 43.6785C37.4961 43.7485 37.8261 43.7586 38.1561 43.7886C38.5561 43.8286 38.9661 43.8885 39.3561 43.9485C40.0961 44.0685 40.8561 44.2085 41.6061 44.2685C42.2261 44.3185 43.4161 44.4985 43.6261 43.6985C43.8161 43.0185 43.4061 42.1686 43.0961 41.5786C42.7161 40.8686 42.3261 40.1785 42.0161 39.4285C41.6861 38.6185 41.4061 37.7885 41.1361 36.9585C40.9061 36.2485 39.7761 36.5585 40.0161 37.2685C40.3861 38.3985 40.7761 39.5186 41.2761 40.5986C41.5061 41.0986 41.7861 41.5786 42.0461 42.0586C42.2961 42.5086 42.5461 43.0086 42.5061 43.5286L42.5861 43.2385L42.5461 43.3186L42.7561 43.1086C42.8961 43.0886 42.8861 43.0886 42.7361 43.1086C42.6761 43.1086 42.6161 43.1086 42.5461 43.1086H42.1161C41.8661 43.1086 41.6161 43.0886 41.3761 43.0586C40.8461 43.0086 40.3261 42.9086 39.8161 42.8286C39.2961 42.7386 38.7361 42.6486 38.1861 42.6086C37.9161 42.5886 37.3461 42.6386 37.1761 42.3586C36.9861 42.0486 37.2461 41.6284 37.4161 41.3784C37.7061 40.9584 38.0661 40.5685 38.3961 40.1785C39.1361 39.2885 39.8661 38.3985 40.6061 37.5085C40.8061 37.2685 40.8461 36.9185 40.6061 36.6885C40.3961 36.4785 39.9861 36.4485 39.7861 36.6885L39.7461 36.7085Z" fill="#F7F1EC"/>
<path d="M47.8893 42.5815C48.9193 41.3415 49.9693 40.1116 50.9693 38.8516C51.3893 38.3316 51.7593 37.7315 51.6993 37.0315C51.6393 36.3315 51.1693 35.7616 50.4593 35.6116C50.1393 35.5416 49.8093 35.5315 49.4793 35.5015C49.0793 35.4615 48.6693 35.4016 48.2793 35.3416C47.5393 35.2216 46.7793 35.0815 46.0293 35.0215C45.4093 34.9715 44.2193 34.7916 44.0093 35.5916C43.8193 36.2716 44.2293 37.1214 44.5393 37.7114C44.9193 38.4214 45.3093 39.1116 45.6193 39.8616C45.9493 40.6716 46.2293 41.5015 46.4993 42.3315C46.7293 43.0315 47.8593 42.7315 47.6193 42.0215C47.2493 40.8915 46.8593 39.7714 46.3593 38.6914C46.1293 38.1914 45.8493 37.7114 45.5893 37.2314C45.3393 36.7814 45.0893 36.2815 45.1293 35.7615L45.0493 36.0515L45.0893 35.9714L44.8793 36.1814C44.7393 36.2014 44.7493 36.2014 44.8993 36.1814C44.9593 36.1814 45.0193 36.1814 45.0893 36.1814H45.5193C45.7693 36.1814 46.0193 36.2014 46.2593 36.2314C46.7893 36.2814 47.3093 36.3814 47.8193 36.4614C48.3393 36.5514 48.8993 36.6414 49.4493 36.6814C49.7193 36.7014 50.2893 36.6514 50.4593 36.9314C50.6493 37.2414 50.3893 37.6614 50.2193 37.9114C49.9293 38.3314 49.5693 38.7216 49.2393 39.1116L47.0293 41.7815C46.8293 42.0215 46.7893 42.3716 47.0293 42.6016C47.2393 42.8116 47.6493 42.8416 47.8493 42.6016L47.8893 42.5815Z" fill="#F7F1EC"/>
<path d="M53.4533 45.6084C53.4333 45.4884 53.4033 45.3683 53.3833 45.2483C52.9833 45.1983 52.4233 45.4083 51.9733 45.5783C51.7933 45.6383 51.6433 45.6982 51.5133 45.7282C51.4833 45.7282 51.4533 45.7483 51.4233 45.7483C51.2333 45.7983 51.0533 45.8582 50.8633 45.8982C50.8433 45.8482 50.8233 45.7882 50.8033 45.7382L44.1133 47.6381C44.1333 47.6881 44.1533 47.7383 44.1733 47.7883C43.9833 47.8383 43.8033 47.8982 43.6133 47.9482C43.4233 47.9982 43.2433 48.0681 43.0533 48.1281C41.6533 48.5781 40.3033 49.1782 39.2233 50.2182C38.6833 50.7382 37.8633 49.9182 38.4033 49.3982C40.5433 47.3382 43.6133 46.7382 46.3733 45.9582C48.0733 45.4782 49.7833 44.9983 51.4833 44.5183C52.1433 44.3283 52.9233 43.9883 53.6133 44.0883C54.3733 44.2083 54.4433 44.6283 54.5633 45.2883C54.7133 46.0283 53.5833 46.3384 53.4433 45.5984L53.4533 45.6084Z" fill="#F7F1EC"/>
<path d="M57.5347 64.2314C57.4447 64.3414 57.3147 64.4014 57.1847 64.4514C55.7747 65.0514 54.3447 65.6016 52.9047 66.1116C52.6847 66.1916 52.4747 66.2615 52.2547 66.3315C51.8947 66.4515 51.5047 66.5715 51.1347 66.5715C50.9247 66.5715 50.7147 66.5414 50.5247 66.4514C49.8847 66.1614 49.6447 65.3814 49.4747 64.6914C48.4947 60.9514 47.2247 57.2914 45.8447 53.6714C45.7047 53.3114 45.5747 52.9516 45.4347 52.5916C44.8347 51.0416 44.2247 49.5014 43.6147 47.9614C43.5947 47.9114 43.5747 47.8515 43.5547 47.8015L44.1147 47.6514C44.1347 47.7014 44.1547 47.7515 44.1747 47.8015C44.7847 49.3315 45.3947 50.8614 45.9847 52.4014C46.1247 52.7614 46.2647 53.1214 46.3947 53.4814C46.9947 55.0814 47.5847 56.6815 48.1347 58.3015C48.7347 60.0615 49.2947 61.8414 49.7947 63.6414C49.9947 64.3814 50.1247 65.8915 51.0947 65.9915C51.2447 66.0115 51.4047 65.9914 51.5747 65.9714C52.2147 65.8714 52.9347 65.5115 53.5047 65.2915C53.5747 65.2615 53.6447 65.2314 53.7147 65.2014C54.5947 64.8714 55.4747 64.5314 56.3447 64.1714C57.1447 63.8414 57.0747 63.8415 56.9247 63.0315C56.8347 62.5515 56.7247 62.0816 56.5947 61.6016C56.5447 61.3916 56.4847 61.1814 56.4247 60.9714C56.2847 60.4814 56.1347 60.0015 55.9747 59.5215C55.6247 58.4615 55.2347 57.4016 54.8347 56.3616C54.1347 54.5216 53.4447 52.6816 52.7347 50.8416C52.6047 50.4816 52.4647 50.1215 52.3247 49.7615C51.8347 48.4715 51.3447 47.2014 50.8647 45.9114C50.8447 45.8614 50.8247 45.8015 50.8047 45.7515L51.3647 45.6016C51.3847 45.6516 51.4047 45.7115 51.4247 45.7615C51.8947 47.0115 52.3747 48.2615 52.8547 49.5115C52.9947 49.8715 53.1247 50.2316 53.2647 50.5916C53.9347 52.3516 54.6047 54.1216 55.2747 55.8716C55.6547 56.8716 56.0347 57.8814 56.3747 58.8914C56.5447 59.3614 56.7047 59.8415 56.8347 60.3215C57.1647 61.4015 57.4347 62.4916 57.6047 63.6116C57.6347 63.8216 57.6547 64.0614 57.5347 64.2214V64.2314Z" fill="#F7F1EC"/>
<path d="M57.667 64.8692C57.067 65.2592 56.267 65.4691 55.597 65.7391C54.787 66.0591 53.957 66.369 53.127 66.649C52.867 66.739 52.597 66.839 52.317 66.919C51.787 67.079 51.237 67.1992 50.727 67.1092C50.357 67.0492 50.007 66.8891 49.697 66.5591C48.797 65.6191 48.647 63.889 48.307 62.689C47.817 61.019 47.277 59.3691 46.707 57.7191C46.257 56.4291 45.787 55.1492 45.297 53.8692C45.167 53.5092 45.027 53.1491 44.887 52.7891C44.287 51.2291 43.677 49.689 43.057 48.139C43.037 48.079 43.007 48.019 42.987 47.949C42.717 47.249 43.837 46.949 44.107 47.639C44.127 47.689 44.147 47.7391 44.167 47.7891C44.777 49.3191 45.387 50.849 45.977 52.389C46.117 52.749 46.257 53.1091 46.387 53.4691C46.987 55.0691 47.577 56.6691 48.127 58.2891C48.727 60.0491 49.287 61.829 49.787 63.629C49.987 64.369 50.117 65.8791 51.087 65.9791C51.237 65.9991 51.397 65.979 51.567 65.959C52.207 65.859 52.927 65.4991 53.497 65.2791C53.567 65.2491 53.637 65.219 53.707 65.189C54.587 64.859 55.467 64.519 56.337 64.159C57.137 63.829 57.067 63.8291 56.917 63.0191C56.827 62.5391 56.717 62.0692 56.587 61.5892C56.537 61.3792 56.477 61.1691 56.417 60.9591C56.277 60.4691 56.127 59.9891 55.967 59.5091C55.617 58.4491 55.227 57.3892 54.827 56.3492C54.127 54.5092 53.437 52.6692 52.727 50.8292C52.597 50.4692 52.457 50.1091 52.317 49.7491C51.827 48.4591 51.337 47.189 50.857 45.899C50.837 45.849 50.817 45.7891 50.797 45.7391C50.527 45.0291 51.657 44.729 51.917 45.429C51.937 45.479 51.957 45.5192 51.967 45.5692C52.427 46.7892 52.907 48.0091 53.367 49.2291C53.507 49.5891 53.637 49.9491 53.777 50.3091C54.597 52.4491 55.407 54.5891 56.207 56.7291C56.397 57.2291 56.577 57.7291 56.757 58.2291C56.917 58.7091 57.087 59.179 57.237 59.659C57.447 60.309 57.637 60.969 57.797 61.639C58.017 62.549 58.677 64.1992 57.657 64.8492L57.667 64.8692Z" fill="#F7F1EC"/>
<path d="M30.5399 13.0478C31.3799 14.9278 31.5399 16.8078 31.0899 18.8078C30.7599 20.2478 30.3599 21.6576 30.4299 23.1576C30.5599 25.9176 32.1299 28.3076 35.0199 28.6376C37.9099 28.9676 41.1299 27.6978 41.6799 24.6078C42.0599 22.4678 41.4399 20.1377 40.5299 18.1977C39.8599 16.7777 38.5899 15.6577 37.3199 14.7777C35.4799 13.5177 33.3499 12.6977 31.1899 12.1977C30.4599 12.0277 30.1499 13.1478 30.8799 13.3178C33.9599 14.0278 37.7099 15.5376 39.3499 18.4276C40.1699 19.8776 40.6399 21.7676 40.6299 23.4176C40.6299 24.4776 40.3499 25.5678 39.5499 26.3178C38.5199 27.2778 36.8399 27.5477 35.4799 27.4977C32.7399 27.3877 31.5199 25.0077 31.5899 22.5177C31.6299 21.0177 32.1699 19.6076 32.3999 18.1376C32.7099 16.1476 32.3599 14.2977 31.5399 12.4577C31.2399 11.7777 30.2399 12.3678 30.5299 13.0478H30.5399Z" fill="#F7F1EC"/>
</g>
</svg>
