<svg width="185" height="159" viewBox="0 0 185 159" fill="none" xmlns="http://www.w3.org/2000/svg">
<mask id="mask0_1390_2603" style="mask-type:luminance" maskUnits="userSpaceOnUse" x="0" y="0" width="185" height="159">
<path d="M184.778 0.652344H0.328125V158.152H184.778V0.652344Z" fill="white"/>
</mask>
<g mask="url(#mask0_1390_2603)">
<path d="M79.2869 27.8439C79.1069 28.2739 78.9068 28.6939 78.6968 29.1039C78.6468 29.0639 78.5969 29.0138 78.5569 28.9738C78.2669 28.7138 77.9669 28.4438 77.6669 28.1938C74.6269 25.5338 71.5669 22.8939 68.4869 20.2739C66.8869 18.9139 65.2969 17.5738 63.6469 16.2538C62.7769 15.5438 61.8869 14.7638 60.9069 14.1938C58.8469 12.9938 55.0468 11.5039 52.9468 13.2739C50.8268 15.0539 53.4469 17.9938 54.6569 19.4438C58.1969 23.6238 62.4869 27.1139 66.5569 30.7739C66.7869 30.9739 67.0169 31.1737 67.2469 31.3837C67.6669 31.7637 67.4569 32.3639 67.0969 32.5539C66.9869 32.6139 66.8669 32.6439 66.7369 32.6039C66.6369 32.5839 66.5468 32.5438 66.4568 32.4538C66.2868 32.3038 66.1168 32.1438 65.9468 31.9938C65.8668 31.9138 65.7868 31.8439 65.6968 31.7739C65.2768 31.3839 64.8369 30.994 64.4069 30.624C64.1069 30.354 63.7969 30.0839 63.5069 29.8239C63.0969 29.4639 62.6969 29.1138 62.3069 28.7538C61.1769 27.7638 60.0468 26.7438 58.9468 25.7238C56.4768 23.4138 53.8669 21.0137 52.0269 18.1437C50.7069 16.0937 50.1269 13.4337 52.5969 11.9037C55.1269 10.3437 58.6469 11.5339 61.0669 12.7739C62.1969 13.3439 63.1869 14.1538 64.1669 14.9438C65.8969 16.3438 67.5969 17.7738 69.2869 19.2138C72.3069 21.7638 75.2869 24.3438 78.2569 26.9438C78.4669 27.1238 78.6869 27.3138 78.8869 27.4938C79.0369 27.6138 79.1669 27.734 79.3069 27.864H79.2869V27.8439Z" fill="#F7F1EC"/>
<path d="M90.6144 39.7759C90.6144 39.7759 90.5744 39.7358 90.5544 39.7158C87.4744 36.7358 84.2044 33.946 80.9944 31.116C80.9144 31.056 80.8344 30.9858 80.7644 30.9158C80.6744 30.8358 80.5744 30.7558 80.4844 30.6758C80.3244 30.5258 80.1544 30.3858 79.9844 30.2258C80.2244 29.8558 80.4544 29.4659 80.6844 29.0859C80.8544 29.2359 81.0243 29.3759 81.1943 29.5359C81.3643 29.6859 81.5243 29.8258 81.7043 29.9858C81.9943 30.2358 82.2544 30.4858 82.5444 30.7258C85.3044 33.1558 88.0944 35.5559 90.7644 38.0759C91.0644 38.3659 91.3644 38.6458 91.6644 38.9458C92.2844 39.5458 91.2244 40.3859 90.6244 39.7959L90.6144 39.7759Z" fill="#F7F1EC"/>
<path d="M146.656 99.2346C147.856 101.085 149.356 102.754 150.806 104.414C153.046 106.974 155.356 109.475 157.696 111.935C163.296 117.865 169.066 123.645 174.986 129.255C177.846 131.965 180.746 134.645 183.746 137.195C184.406 137.745 185.196 136.665 184.536 136.115C178.816 131.265 173.436 126.025 168.136 120.725C162.836 115.435 157.496 109.955 152.496 104.295C150.826 102.405 149.086 100.504 147.706 98.3845C147.236 97.6645 146.196 98.5045 146.666 99.2245L146.656 99.2346Z" fill="#F7F1EC"/>
<path d="M115.146 88.7354C110.116 85.7454 106.006 81.4953 103.916 75.9653C102.566 72.3953 102.136 68.5354 102.316 64.7354C102.376 63.5254 102.606 62.2854 102.526 61.0754C102.446 59.5854 101.786 58.2553 100.806 57.1553C98.5265 54.6053 95.3664 53.0453 93.6264 49.9753C92.3464 47.7353 92.0565 45.2253 91.9265 42.6953C91.8065 40.5053 91.6264 37.3454 93.1464 35.5454C93.7964 34.7754 94.7264 34.5255 95.7064 34.5955C96.5664 34.6455 96.9664 35.1054 97.4764 35.7554C98.7164 37.3254 99.6364 39.1453 100.586 40.8953C101.466 42.5353 102.306 44.1755 103.546 45.5855C105.176 47.4555 107.206 48.9354 109.266 50.2754C113.836 53.2654 118.586 55.9455 121.956 60.3555C126.106 65.7855 128.656 72.3653 131.176 78.6553C132.336 81.5653 133.356 84.6055 134.936 87.3355C136.136 89.3955 137.756 91.0153 139.686 92.4053C140.386 92.9153 141.176 91.8354 140.466 91.3254C138.586 89.9654 137.016 88.3855 135.896 86.3355C134.476 83.7255 133.506 80.8755 132.406 78.1255C130.036 72.2055 127.616 66.1653 123.986 60.8953C120.676 56.0653 116.026 53.0053 111.166 49.9053C108.896 48.4653 106.606 46.9653 104.786 44.9653C103.416 43.4453 102.526 41.6853 101.566 39.8953C100.606 38.1153 99.6364 36.2053 98.3264 34.6453C97.1864 33.2953 95.7064 32.8953 93.9764 33.4253C92.1264 33.9953 91.2364 35.7754 90.8564 37.5454C90.2864 40.1554 90.4864 43.0853 90.8564 45.7153C91.4664 50.0753 93.9664 53.0754 97.2764 55.7554C98.4864 56.7354 99.8564 57.7355 100.636 59.1255C101.346 60.4055 101.216 61.7355 101.106 63.1255C100.776 67.2555 101.046 71.4253 102.326 75.3853C104.346 81.6053 108.806 86.4854 114.376 89.7854C115.106 90.2254 115.916 89.1453 115.166 88.7053L115.146 88.7354Z" fill="#F7F1EC"/>
<path d="M0.704358 1.9742C10.2244 6.9942 19.5044 12.5143 28.8944 17.7743C30.5344 18.6943 32.1744 19.6342 33.8344 20.5042C34.5944 20.9042 35.0744 19.6542 34.3244 19.2542C24.8144 14.2342 15.5244 8.71419 6.13441 3.46419C4.50441 2.54419 2.86435 1.60421 1.19435 0.734212C0.434348 0.334212 -0.0456418 1.5842 0.704358 1.9742Z" fill="#F7F1EC"/>
<path d="M70.183 44.7828C65.153 41.5728 59.8829 38.6827 54.7229 35.6927C48.4929 32.0827 42.2329 28.5128 36.0929 24.7628C35.5729 24.4528 35.053 24.1328 34.553 23.8128C34.343 23.6828 33.5429 23.3429 33.4529 23.1029C33.3029 22.7129 34.6529 20.8729 34.9729 20.3729C35.6129 19.3829 36.3029 18.4227 36.9729 17.4427L36.183 17.6727C40.603 20.0027 45.183 22.0727 49.683 24.2227C55.723 27.0927 61.783 29.9629 67.813 32.8629C69.863 33.8529 71.9329 34.8227 73.9629 35.8927C74.7229 36.2927 75.2029 35.0427 74.4529 34.6427C70.0329 32.3127 65.4529 30.2429 60.9529 28.0929C54.9129 25.2229 48.8529 22.3527 42.8229 19.4527C40.7729 18.4627 38.703 17.4927 36.673 16.4227C36.423 16.2927 36.0429 16.4227 35.8829 16.6527C34.6429 18.4527 33.2229 20.2528 32.3529 22.2728C32.0229 23.0428 31.943 23.6127 32.663 24.1827C33.003 24.4527 33.393 24.6627 33.763 24.8927C36.213 26.4427 38.7329 27.9129 41.2329 29.3729C48.1229 33.4229 55.0529 37.3927 61.9529 41.4327C64.4529 42.8827 66.973 44.3129 69.403 45.8729C70.123 46.3329 70.923 45.2528 70.183 44.7928H70.163L70.183 44.7828Z" fill="#F7F1EC"/>
<path d="M51.6839 28.5849C52.2039 27.5949 52.6638 26.5748 53.0838 25.5348C53.2138 25.2148 53.0438 24.7847 52.7138 24.6647C52.3738 24.5447 51.9838 24.7048 51.8438 25.0348C51.4338 26.0748 50.9637 27.0949 50.4437 28.0849C50.3737 28.2249 50.3937 28.4549 50.4437 28.5949C50.5037 28.7449 50.6539 28.8948 50.8139 28.9548C50.9639 29.0048 51.1638 29.0248 51.3238 28.9548C51.4938 28.8748 51.5939 28.7449 51.6839 28.5849Z" fill="#F7F1EC"/>
<path d="M50.2577 26.1456C50.2577 26.1456 50.2777 26.0557 50.2877 26.0257L50.2477 26.1956C50.3077 25.9656 50.3877 25.7457 50.5077 25.5457L50.4277 25.6956C50.5077 25.5456 50.6077 25.4057 50.7177 25.2757C50.8277 25.1457 50.8577 24.9457 50.8377 24.7857C50.8377 24.6957 50.7977 24.6057 50.7377 24.5357C50.6977 24.4557 50.6378 24.3958 50.5678 24.3358C50.4278 24.2358 50.2476 24.1857 50.0776 24.2157L49.9077 24.2657C49.7977 24.3057 49.6977 24.3857 49.6277 24.4857C49.4477 24.6957 49.3078 24.9456 49.1878 25.1956C49.0678 25.4456 48.9878 25.7257 48.9378 25.9957C48.9178 26.0857 48.9377 26.1757 48.9677 26.2557C48.9877 26.3457 49.0177 26.4257 49.0877 26.4957C49.1877 26.6157 49.3677 26.7257 49.5377 26.7357C49.7177 26.7357 49.9077 26.7058 50.0377 26.5958L50.1577 26.4757C50.2277 26.3757 50.2677 26.2756 50.2777 26.1656V26.1456H50.2577Z" fill="#F7F1EC"/>
<path d="M46.8306 26.3239C47.3806 25.3439 47.8906 24.3439 48.3606 23.3239C48.5006 23.0039 48.3206 22.5738 47.9906 22.4538C47.6306 22.3338 47.2806 22.4939 47.1206 22.8239C46.9106 23.3039 46.6805 23.7738 46.4405 24.2438C46.3205 24.4738 46.2106 24.7038 46.0806 24.9338C46.0506 24.9838 46.0206 25.0439 45.9906 25.1039C45.9706 25.1339 45.9606 25.1538 45.9506 25.1838C45.9106 25.2538 45.9506 25.1837 45.9706 25.1537C45.9106 25.2737 45.8406 25.4038 45.7606 25.5238C45.6706 25.6838 45.6106 25.8238 45.6406 26.0138C45.6706 26.1738 45.7606 26.3638 45.9106 26.4638C46.1906 26.6438 46.6606 26.6439 46.8506 26.3239H46.8306Z" fill="#F7F1EC"/>
<path d="M44.5978 23.9958C44.9778 23.4158 45.3678 22.8358 45.7378 22.2658C45.8378 22.1258 45.8778 21.9558 45.8578 21.7758C45.8278 21.6158 45.7378 21.4259 45.5878 21.3259C45.2978 21.1259 44.8578 21.1557 44.6478 21.4657C44.2678 22.0457 43.8778 22.6257 43.5078 23.1957C43.4078 23.3357 43.3678 23.5057 43.3878 23.6857C43.4178 23.8457 43.5078 24.0357 43.6578 24.1357C43.9478 24.3357 44.3878 24.3058 44.5978 23.9958Z" fill="#F7F1EC"/>
<path d="M41.1112 23.2647C41.6412 22.5047 41.9812 21.6447 42.1312 20.7347C42.1812 20.3847 41.8913 20.0247 41.5413 19.9947C41.1713 19.9647 40.8613 20.2048 40.8013 20.5848C40.7713 20.7348 40.7512 20.8847 40.7112 21.0347L40.7512 20.8648C40.6412 21.3048 40.4712 21.7346 40.2612 22.1346L40.3412 21.9847C40.2412 22.1547 40.1412 22.3247 40.0312 22.4847C39.9312 22.6247 39.8913 22.8047 39.9113 22.9747C39.9313 23.1447 40.0313 23.3246 40.1813 23.4246C40.4713 23.6246 40.9012 23.5847 41.1212 23.2847L41.1112 23.2647Z" fill="#F7F1EC"/>
<path d="M38.6354 21.0243C38.8454 20.7743 39.0054 20.5043 39.1654 20.2243C39.2854 19.9843 39.3854 19.7242 39.4554 19.4542C39.4954 19.3742 39.5054 19.2842 39.4954 19.2042C39.4954 19.1142 39.4954 19.0242 39.4454 18.9442C39.3854 18.7942 39.2354 18.6444 39.0754 18.5844C38.9254 18.5344 38.7255 18.5144 38.5655 18.5844C38.4155 18.6544 38.2554 18.7942 38.2054 18.9542C38.1354 19.2442 38.0154 19.5243 37.8754 19.7943L37.9554 19.6442C37.8354 19.8542 37.7055 20.0443 37.5555 20.2343C37.4455 20.3543 37.4155 20.5743 37.4355 20.7243C37.4655 20.8843 37.5554 21.0742 37.7054 21.1742C37.8454 21.2742 38.0254 21.3243 38.1954 21.2943L38.3654 21.2443C38.4754 21.2043 38.5754 21.1243 38.6454 21.0243H38.6354Z" fill="#F7F1EC"/>
<path d="M67.8438 32.3823C67.4338 33.4223 66.9637 34.4423 66.4437 35.4323C66.3737 35.5723 66.3937 35.8023 66.4437 35.9423C66.5037 36.0923 66.6539 36.2424 66.8139 36.3024C66.9639 36.3524 67.1638 36.3724 67.3238 36.3024C67.4938 36.2224 67.5939 36.0923 67.6839 35.9323C68.2039 34.9423 68.6638 33.9223 69.0838 32.8823C69.2138 32.5623 69.0438 32.1324 68.7138 32.0124C68.3738 31.8924 67.9838 32.0523 67.8438 32.3823Z" fill="#F7F1EC"/>
<path d="M66.2634 33.4737C66.2634 33.4737 66.2834 33.3839 66.2934 33.3539L66.2534 33.5238C66.3134 33.2938 66.3934 33.0739 66.5134 32.8739L66.4335 33.0238C66.5135 32.8738 66.6134 32.7339 66.7234 32.6039C66.8334 32.4739 66.8634 32.2739 66.8534 32.1139C66.8534 32.0239 66.8134 31.9339 66.7534 31.8639C66.7134 31.7839 66.6534 31.7237 66.5834 31.6637C66.4434 31.5637 66.2634 31.5138 66.0934 31.5438L65.9235 31.5939C65.8135 31.6339 65.7134 31.7138 65.6434 31.8138C65.4634 32.0238 65.3234 32.2738 65.2034 32.5238C65.0834 32.7738 65.0034 33.0538 64.9534 33.3238C64.9334 33.4138 64.9534 33.5039 64.9834 33.5839C65.0034 33.6739 65.0334 33.7538 65.1034 33.8238C65.2034 33.9438 65.3835 34.0538 65.5535 34.0638C65.7335 34.0638 65.9235 34.0337 66.0535 33.9237L66.1735 33.8038C66.2435 33.7038 66.2834 33.6038 66.2934 33.4938V33.4737H66.2634Z" fill="#F7F1EC"/>
<path d="M62.8462 33.6557C63.3962 32.6757 63.9062 31.6757 64.3762 30.6557C64.5162 30.3357 64.3362 29.9058 64.0062 29.7858C63.6462 29.6658 63.2962 29.8257 63.1362 30.1557C62.9262 30.6357 62.6962 31.1059 62.4562 31.5759C62.3362 31.8059 62.2262 32.0358 62.0962 32.2658C62.0662 32.3158 62.0362 32.3757 62.0062 32.4357C61.9862 32.4657 61.9762 32.4858 61.9662 32.5158C61.9262 32.5858 61.9662 32.5158 61.9862 32.4858C61.9262 32.6058 61.8562 32.7359 61.7762 32.8559C61.6862 33.0159 61.6262 33.1559 61.6562 33.3459C61.6862 33.5059 61.7763 33.6958 61.9263 33.7958C62.2063 33.9758 62.6762 33.9757 62.8662 33.6557H62.8462Z" fill="#F7F1EC"/>
<path d="M60.6056 31.3241C60.9856 30.7441 61.3756 30.1641 61.7456 29.5941C61.8456 29.4541 61.8856 29.2841 61.8656 29.1041C61.8356 28.9441 61.7456 28.7539 61.5956 28.6539C61.3056 28.4539 60.8656 28.484 60.6556 28.794C60.2756 29.374 59.8856 29.954 59.5156 30.524C59.4156 30.664 59.3756 30.834 59.3956 31.014C59.4256 31.174 59.5156 31.3639 59.6656 31.4639C59.9556 31.6639 60.3956 31.6341 60.6056 31.3241Z" fill="#F7F1EC"/>
<path d="M57.1268 30.5929C57.6568 29.8329 57.9968 28.9728 58.1468 28.0628C58.1968 27.7128 57.9069 27.3528 57.5569 27.3228C57.1869 27.2928 56.8769 27.5327 56.8169 27.9127C56.7869 28.0627 56.7668 28.2129 56.7268 28.3629L56.7668 28.1927C56.6568 28.6327 56.4869 29.0627 56.2769 29.4627L56.3568 29.3128C56.2568 29.4828 56.1569 29.6528 56.0469 29.8128C55.9469 29.9528 55.9069 30.1328 55.9269 30.3028C55.9469 30.4728 56.0468 30.6528 56.1968 30.7528C56.4868 30.9528 56.9168 30.9129 57.1368 30.6129L57.1268 30.5929Z" fill="#F7F1EC"/>
<path d="M54.6433 28.3644C54.8533 28.1144 55.0134 27.8444 55.1734 27.5644C55.2934 27.3244 55.3933 27.0643 55.4633 26.7943C55.5033 26.7143 55.5133 26.6243 55.5033 26.5443C55.5033 26.4543 55.5033 26.3643 55.4533 26.2843C55.3933 26.1343 55.2433 25.9842 55.0833 25.9242C54.9333 25.8742 54.7333 25.8542 54.5733 25.9242C54.4233 25.9942 54.2633 26.1343 54.2133 26.2943C54.1433 26.5843 54.0233 26.8642 53.8833 27.1342L53.9633 26.9843C53.8433 27.1943 53.7134 27.3844 53.5634 27.5744C53.4534 27.6944 53.4233 27.9144 53.4433 28.0644C53.4733 28.2244 53.5633 28.4143 53.7133 28.5143C53.8533 28.6143 54.0333 28.6642 54.2033 28.6342L54.3733 28.5844C54.4833 28.5444 54.5834 28.4644 54.6534 28.3644H54.6433Z" fill="#F7F1EC"/>
<path d="M83.4838 22.5535C83.6438 23.6035 83.3838 24.6633 83.0338 25.6633C82.5538 27.0233 81.9137 28.2834 81.1937 29.5234C80.9637 29.9034 80.7238 30.2933 80.4838 30.6733C79.3838 32.4133 78.1638 34.1035 77.0938 35.8635L77.4838 34.0234C78.3138 32.7634 79.1938 31.5234 80.0038 30.2434C80.2438 29.8734 80.4737 29.4835 80.7037 29.1035C80.8937 28.7735 81.0738 28.4335 81.2538 28.0935C81.9038 26.8435 82.5538 25.4835 82.7938 24.0735C82.8838 23.5335 83.0837 22.4033 82.4637 22.1533C81.9837 21.9633 81.4138 21.8835 80.8538 21.8035C80.7438 23.9235 80.1438 25.9435 79.2838 27.8635C79.1038 28.2935 78.9037 28.7135 78.6937 29.1235C78.6237 29.2535 78.5638 29.3934 78.4838 29.5234C78.4438 29.5834 78.4338 29.6434 78.3938 29.7034L78.5438 28.9934L78.8538 27.5034L80.1038 21.6633L80.2338 21.0234C80.4438 21.0634 80.6437 21.1133 80.8438 21.1433C81.3837 21.2533 81.9137 21.3534 82.4437 21.4634C82.6537 21.5034 82.8638 21.5533 83.0438 21.6733C83.3238 21.8833 83.4138 22.2235 83.4738 22.5635V22.5435L83.4838 22.5535Z" fill="#F7F1EC"/>
<path d="M84.1739 22.6656C84.3439 24.3156 83.7039 25.9757 83.0339 27.4457C82.6339 28.3157 82.1839 29.1457 81.7039 29.9657C81.4739 30.3557 81.2439 30.7358 81.0039 31.1058C79.9239 32.8058 78.754 34.4456 77.684 36.1456C77.664 36.1756 77.6439 36.2057 77.6339 36.2357C77.1939 36.9357 76.1939 36.2358 76.5039 35.5558C76.5239 35.5158 76.534 35.4857 76.554 35.4557C76.854 34.9657 77.1739 34.4857 77.4939 34.0057C78.3239 32.7457 79.2039 31.5057 80.0139 30.2257C80.2539 29.8557 80.4839 29.4658 80.7139 29.0858C80.9039 28.7558 81.0839 28.4158 81.2639 28.0758C81.9139 26.8258 82.564 25.4658 82.804 24.0558C82.894 23.5158 83.0939 22.3856 82.4739 22.1356C81.9939 21.9456 81.4239 21.8658 80.8639 21.7858C80.6239 21.7458 80.404 21.7157 80.184 21.6757C80.164 21.6757 80.1439 21.6756 80.1239 21.6456C79.6539 21.5156 79.5339 20.9758 79.7139 20.6258C79.7139 20.6258 79.7139 20.5958 79.7339 20.5958C79.8439 20.3958 80.0439 20.2758 80.3539 20.3358C81.2239 20.5058 82.2039 20.5956 83.0339 20.8956C83.8039 21.1756 84.1138 21.8856 84.1938 22.6456L84.1739 22.6656Z" fill="#F7F1EC"/>
<path d="M80.2333 39.0642C80.2533 39.5442 80.2033 40.0442 80.1133 40.5342C80.0533 40.9542 79.9733 41.3542 79.8633 41.7642C79.8333 41.8842 79.8034 42.0043 79.7734 42.1243C79.4034 43.5443 78.8233 44.9541 77.9733 46.1641C77.7133 46.5341 77.4333 46.8741 77.1133 47.2041C77.0533 47.2841 76.9734 47.3541 76.9034 47.4141C76.5834 47.7241 76.2533 47.9941 75.8833 48.1741C75.4133 48.4241 74.8833 48.5143 74.2633 48.3343C73.6833 48.1643 73.1034 47.9642 72.5434 47.7742C72.4234 47.7342 72.3034 47.6841 72.1734 47.6541C71.8734 47.5541 71.5734 47.4342 71.3034 47.2842C71.2834 47.2842 71.2733 47.2642 71.2533 47.2542C70.9433 47.0742 70.6433 46.8841 70.3533 46.6641C70.2333 46.5741 70.1233 46.4841 69.9933 46.3841C69.7833 46.2241 69.5733 46.0443 69.3633 45.8743C69.3433 45.8543 69.3234 45.8342 69.3134 45.8142C69.2534 45.7542 69.2034 45.6943 69.1734 45.6243C68.9634 45.1143 69.4733 44.4741 70.0033 44.6941C70.0333 44.6941 70.0434 44.7141 70.0434 44.7241C70.0434 44.7241 70.1134 44.7642 70.1534 44.7842C70.2034 44.8242 70.2634 44.8641 70.3034 44.9041C70.5834 45.1241 70.8433 45.3442 71.1033 45.5342C71.5833 45.9042 72.0833 46.2041 72.7033 46.4041C73.2633 46.5841 73.8334 46.7741 74.4034 46.9541C74.9234 47.1341 75.1833 47.1042 75.6033 46.7542C75.9433 46.4742 76.2433 46.1742 76.5133 45.8242C77.5833 44.5142 78.2333 42.8441 78.6033 41.1941C78.7533 40.4641 79.1333 39.2242 78.7533 38.5242C78.4133 37.8842 77.3533 37.4741 76.7233 37.1341C76.0533 36.7641 75.3534 36.4841 74.6434 36.1841C74.4334 36.0941 74.2534 36.0141 74.0534 35.9241C74.0034 35.9041 73.9534 35.8843 73.9134 35.8743C73.8734 35.8543 73.8234 35.8342 73.7934 35.8142C73.6534 35.7142 73.5734 35.5941 73.5334 35.4441C73.4334 35.0841 73.6533 34.6542 74.0133 34.5742C74.1333 34.5542 74.2634 34.5743 74.3934 34.6143C74.6934 34.7443 74.9934 34.8842 75.2834 35.0042C75.6634 35.1742 76.0534 35.3542 76.4234 35.5342C76.6234 35.6242 76.8133 35.7242 77.0133 35.8242C77.2133 35.9142 77.3933 36.0243 77.6033 36.1143C77.9133 36.2743 78.2234 36.4541 78.5534 36.6541C79.4834 37.1941 80.1534 37.8942 80.1734 39.0242L80.2033 39.0442L80.2333 39.0642Z" fill="#F7F1EC"/>
<path d="M33.4474 23.105C32.5474 22.545 31.4975 22.2349 30.5675 21.7149C30.4875 21.6749 30.4174 21.615 30.3474 21.575C30.1374 21.465 30.4674 21.6849 30.4574 21.6949C30.4774 21.6949 30.5674 21.195 30.5774 21.125C30.6274 20.875 30.6674 20.615 30.6374 20.355C30.5174 19.405 29.5874 19.0849 28.8474 18.6949C28.3774 18.4449 27.8975 18.1849 27.4275 17.9349C27.2075 17.8149 26.9874 17.695 26.7674 17.575C26.6774 17.525 26.5774 17.4549 26.4774 17.4249C26.3274 17.2849 26.2675 17.2648 26.2975 17.3848C26.2975 17.4648 26.3174 17.455 26.3374 17.355C26.3974 16.975 26.6474 16.5349 26.8374 16.1949C27.0274 15.8549 27.3275 15.2349 27.6775 15.0149C27.7975 14.9449 27.7474 14.965 27.9574 15.055C28.1774 15.155 28.4074 15.265 28.6274 15.375C29.1074 15.605 29.5874 15.835 30.0774 16.065C30.5574 16.295 31.0374 16.5249 31.5274 16.7549C31.8974 16.9349 32.3374 17.2349 32.7674 17.1749C33.0274 17.1349 33.2374 16.985 33.4074 16.805C33.4574 16.745 33.5075 16.675 33.5675 16.605C33.3875 16.815 33.4674 16.6448 33.5274 16.6548C33.7174 16.7248 34.0374 16.6949 34.2674 16.7649C34.8474 16.9349 35.4675 17.205 35.9275 17.615C36.5675 18.185 37.3574 17.105 36.7174 16.535C36.2474 16.105 35.5974 15.825 34.9974 15.605C34.3974 15.385 33.5974 15.1649 32.9674 15.4449C32.8474 15.4949 32.6774 15.5849 32.5974 15.7049C32.5974 15.7049 32.4174 15.995 32.5974 15.825H32.7074C32.6074 15.785 32.5075 15.7349 32.4175 15.6949C31.8375 15.4149 31.2675 15.155 30.6875 14.875C30.1475 14.615 29.5975 14.355 29.0575 14.095C28.6075 13.885 28.1174 13.5648 27.5974 13.6348C26.6374 13.7548 25.9774 15.035 25.5874 15.805C25.1974 16.575 24.5474 17.7848 25.5074 18.4148C26.4674 19.0348 27.6375 19.555 28.6875 20.115C28.8175 20.185 29.2574 20.3349 29.3374 20.4849C29.4174 20.6349 29.3074 20.915 29.2774 21.075C29.1774 21.515 29.0475 22.0249 29.3175 22.4349C29.6475 22.8949 30.3474 23.135 30.8474 23.365C31.4574 23.655 32.1874 23.9049 32.7074 24.2349C33.4274 24.6949 34.2374 23.6148 33.4974 23.1548V23.115L33.4474 23.105Z" fill="#F7F1EC"/>
<path d="M62.9462 59.1936C63.3762 59.2936 63.7962 59.3136 64.2762 59.1936C64.2462 59.4236 64.2362 59.6535 64.2362 59.8835V60.7737C64.2662 61.3337 63.6862 61.6236 63.2762 61.4836C63.0662 61.4236 62.9162 61.2536 62.9062 60.9536C62.9062 60.8036 62.9062 60.6436 62.9062 60.4836V59.8936C62.9062 59.6636 62.9262 59.4236 62.9462 59.1836V59.1936Z" fill="#F7F1EC"/>
<path d="M80.8568 21.1249V21.2047C80.8568 21.4047 80.8568 21.5948 80.8568 21.7848C80.7468 23.9048 80.1469 25.9249 79.2869 27.8449C79.1069 28.2749 78.9068 28.6949 78.6968 29.1049C78.6268 29.2349 78.5668 29.3748 78.4868 29.5048C78.4468 29.5648 78.4369 29.6247 78.3969 29.6847C77.4369 31.5047 76.3468 33.2548 75.3368 35.0448C75.1168 35.4248 74.8969 35.8247 74.6869 36.2147C74.6369 36.3347 74.5668 36.4248 74.5068 36.5448C73.8868 37.7248 73.3068 38.9347 72.8768 40.2047C72.4068 41.5447 72.2068 42.9648 71.7468 44.2948C71.5968 44.7548 71.3869 45.1648 71.1469 45.5648C70.9269 45.9548 70.6669 46.3247 70.3969 46.6747C70.0269 47.1447 69.6268 47.6048 69.2168 48.0748C68.4968 48.9048 67.8368 49.7747 67.2368 50.7147C67.1168 50.9247 66.9868 51.1148 66.8668 51.3248C66.7768 51.4548 66.6968 51.6048 66.6168 51.7448C66.5868 51.7948 66.5669 51.8447 66.5369 51.8947C66.2369 51.5747 65.8969 51.2547 65.5469 50.9447C65.6469 50.7647 65.7468 50.5847 65.8668 50.4047C65.9768 50.2047 66.0968 50.0148 66.2268 49.8348C66.6768 49.1348 67.1469 48.4648 67.6769 47.8248C67.9569 47.4748 68.2469 47.1548 68.5369 46.8148C68.6369 46.7048 68.7269 46.6048 68.8169 46.4948C68.8869 46.4248 68.9468 46.3548 69.0068 46.2648C69.1268 46.1348 69.2368 45.9949 69.3468 45.8449C69.3468 45.8449 69.3468 45.8448 69.3468 45.8248C69.3868 45.7848 69.4069 45.7447 69.4369 45.7047C69.6769 45.4047 69.8869 45.0848 70.0669 44.7548C70.2269 44.4648 70.3668 44.1448 70.4868 43.8248C70.9968 42.3948 71.1968 40.8747 71.7268 39.4447C72.1868 38.1847 72.7669 36.9848 73.3969 35.8048C73.4169 35.7648 73.4368 35.7147 73.4668 35.6847C73.4968 35.6247 73.5269 35.5648 73.5669 35.5048C73.7169 35.2148 73.8769 34.9246 74.0469 34.6346C74.0669 34.5946 74.0868 34.5448 74.1068 34.5148C75.2868 32.4448 76.5968 30.3947 77.6268 28.2247C77.8368 27.8147 78.0168 27.3847 78.2068 26.9547C78.9768 25.0947 79.4968 23.1648 79.4968 21.0748C79.4968 20.8748 79.5569 20.7447 79.6669 20.6647C79.6669 20.6647 79.6669 20.6346 79.6869 20.6346C80.0369 20.3446 80.7668 20.5647 80.8268 21.1647L80.8468 21.1346L80.8568 21.1249Z" fill="#F7F1EC"/>
<path d="M72.5675 47.7648C72.5675 47.7648 72.5475 47.7949 72.5375 47.8049C72.4175 47.9349 72.3074 48.0948 72.1974 48.2548C70.9274 49.8648 69.9274 51.6649 69.2474 53.5849C69.0374 54.1549 68.8674 54.7349 68.7074 55.3249C68.7074 55.3649 68.7075 55.3847 68.6775 55.4247C68.5875 55.7947 68.5074 56.1849 68.4474 56.5649C68.3774 56.9749 68.3074 57.4049 68.2374 57.8349C68.1474 58.3649 68.0274 58.8747 67.8374 59.3847C67.6774 59.8047 67.4674 60.1949 67.1974 60.5549C67.1274 60.6449 67.0574 60.7349 66.9774 60.8249C66.0974 61.7549 64.6975 62.2647 63.5075 61.6847C63.4275 61.6447 63.3675 61.5948 63.2975 61.5348C63.0375 61.2648 63.0775 60.8249 63.2975 60.5849C63.4475 60.3949 63.6975 60.3148 63.9975 60.4648C64.0875 60.5048 64.1675 60.5449 64.2575 60.5649H64.2775C64.8575 60.7349 65.3875 60.5049 65.8075 60.1049C65.8875 60.0349 65.9575 59.9549 66.0375 59.8749C66.3275 59.5349 66.5375 59.1448 66.6575 58.7648C66.6575 58.7348 66.6775 58.7248 66.6775 58.7148C66.6775 58.7148 66.6775 58.6947 66.6775 58.6847C66.8275 58.2447 66.9275 57.7949 67.0175 57.3249C67.3875 56.8249 67.6975 56.2648 67.9075 55.7048C68.1975 54.9548 68.1174 54.2549 67.8374 53.6149C67.9274 53.3249 68.0275 53.0448 68.1375 52.7648C68.2275 52.5048 68.3275 52.2648 68.4375 52.0348C69.1575 50.3248 70.1275 48.7148 71.2975 47.2748C71.3375 47.2148 71.3875 47.1549 71.4375 47.0949C71.4375 47.0949 71.4574 47.0649 71.4674 47.0549C71.5074 47.0149 71.5474 46.9747 71.5874 46.9347C72.1374 46.5047 73.0175 47.1949 72.5675 47.8049L72.5475 47.7748L72.5675 47.7648Z" fill="#F7F1EC"/>
<path d="M76.764 46.9051C79.184 48.9751 81.814 50.7653 84.614 52.2953C84.934 52.4653 85.364 52.2252 85.484 51.9252C85.624 51.5552 85.424 51.2253 85.114 51.0553C82.414 49.5953 79.8941 47.8353 77.5641 45.8353C76.9141 45.2753 76.124 46.3652 76.774 46.9152L76.764 46.9051Z" fill="#F7F1EC"/>
<path d="M79.8079 41.7238C82.7379 43.4238 85.7379 45.0037 88.7979 46.4437C89.5779 46.8137 90.0678 45.5637 89.2878 45.1937C86.3278 43.7937 83.4378 42.2737 80.5978 40.6337C80.2878 40.4537 79.8978 40.4638 79.6578 40.7738C79.4578 41.0438 79.4879 41.5238 79.7979 41.7138L79.8079 41.7238Z" fill="#F7F1EC"/>
<path d="M84.2437 51.4148C83.9537 52.0148 83.8036 52.7049 83.7036 53.3649C83.5836 54.0949 83.5636 54.9449 84.0736 55.5449C84.6336 56.1949 85.6537 56.2549 86.2137 55.5849C86.4537 55.2949 86.5837 54.9249 86.7637 54.5949C86.9737 54.2149 87.2038 53.8348 87.4338 53.4748C88.3438 52.0948 89.4137 50.8248 90.3537 49.4548C90.8137 48.7748 91.2437 48.0649 91.5937 47.3149C91.9237 46.6149 92.1737 45.7849 91.8537 45.0449C91.5337 44.3049 90.7837 43.8449 90.0137 44.0549C89.3237 44.2449 88.6437 44.9249 88.4237 45.5949C88.1437 46.4049 89.3937 46.8949 89.6737 46.0849C89.7637 45.8249 90.2137 45.1647 90.5237 45.4047C90.9737 45.7647 90.4137 46.6849 90.2337 47.0349C89.5837 48.3349 88.6737 49.4947 87.7937 50.6547C86.9137 51.8147 86.0537 53.0049 85.3937 54.3149C85.2637 54.5849 85.1237 54.9548 84.9737 54.4648C84.8937 54.2048 84.9537 53.9147 84.9937 53.6547C85.0837 53.0647 85.2137 52.4548 85.4737 51.9148C85.8437 51.1348 84.6037 50.6548 84.2237 51.4248L84.2437 51.4148Z" fill="#F7F1EC"/>
<path d="M69.3744 46.354L68.7944 46.4738L67.9744 46.6337C65.0944 45.8137 62.2644 44.8338 59.3844 43.9638C57.0944 43.2638 54.4744 42.4039 52.0444 42.8239C49.7844 43.2139 48.6044 45.9939 48.3544 48.0239C48.1844 49.3939 48.9744 50.5138 49.8744 51.4638C52.1744 53.9438 55.3944 55.6538 58.3844 57.1538C59.5144 57.7138 60.6644 58.2639 61.8244 58.7739C62.2244 58.9539 62.5943 59.1038 62.9443 59.1838C63.3743 59.2838 63.7944 59.3038 64.2744 59.1838C64.4944 59.1438 64.7444 59.0638 64.9944 58.9438C65.7744 58.6038 66.4544 57.9939 67.0044 57.2639C67.3744 56.7639 67.6844 56.2038 67.8944 55.6438C68.1844 54.8938 68.1044 54.1939 67.8244 53.5539C67.6444 53.1339 67.3744 52.7537 67.0444 52.3837C66.8744 52.2037 66.7144 52.0239 66.5344 51.8439C66.2344 51.5239 65.8944 51.2038 65.5444 50.8938C64.4744 49.9238 63.2645 49.0337 62.0645 48.3837C61.3145 47.9837 61.7845 46.7337 62.5545 47.1337C62.8045 47.2637 63.0544 47.4139 63.2944 47.5639L62.3145 47.7639C63.3945 48.3239 64.7644 49.384 65.8744 50.364C66.2444 50.684 66.5744 50.9939 66.8744 51.2839C67.3244 51.7139 67.6644 52.0739 67.8344 52.2839C67.9444 52.4139 68.0444 52.5738 68.1344 52.7138C68.5744 53.4138 68.8444 54.1938 68.7744 54.9538C68.7544 55.0738 68.7344 55.1939 68.7144 55.3039C68.7144 55.3439 68.7145 55.3638 68.6845 55.4038C68.5845 55.7838 68.4244 56.1438 68.2244 56.4838C67.8144 57.2738 67.3144 58.014 66.6644 58.624C66.6644 58.624 66.6644 58.6238 66.6644 58.6438C66.4944 58.8038 66.3044 58.964 66.1144 59.104C65.9244 59.234 65.7344 59.3638 65.5144 59.4538C65.1344 59.6638 64.6944 59.8037 64.2444 59.8837C63.8144 59.9637 63.3645 59.9838 62.9245 59.9138C62.8445 59.9138 62.7643 59.884 62.6943 59.874C62.6943 59.874 47.4445 53.7638 47.6745 48.4038C47.7545 46.3838 49.1744 42.8339 51.5344 42.2539C55.4144 41.3039 61.7244 44.2538 68.9944 46.2338C69.1244 46.2738 69.2544 46.314 69.3844 46.354L69.3544 46.3837L69.3744 46.354Z" fill="#F7F1EC"/>
<path d="M69.9456 45.9434C70.0356 46.0634 70.0657 46.2335 70.0257 46.3735C69.9657 46.7435 69.5956 47.0934 69.1256 46.9734C68.9156 46.9134 68.7156 46.8535 68.5056 46.7935C68.3356 46.7535 68.1456 46.7033 67.9656 46.6333C65.0856 45.8133 62.2556 44.8334 59.3756 43.9634C57.0856 43.2634 54.4657 42.4035 52.0357 42.8235C49.7757 43.2135 48.5956 45.9934 48.3456 48.0234C48.1756 49.3934 48.9656 50.5134 49.8656 51.4634C52.1656 53.9434 55.3856 55.6533 58.3756 57.1533C59.5056 57.7133 60.6557 58.2634 61.8157 58.7734C62.2157 58.9534 62.5857 59.1034 62.9357 59.1834C63.3657 59.2834 63.7857 59.3034 64.2657 59.1834C64.4857 59.1434 64.7356 59.0634 64.9856 58.9434C65.7756 58.6034 66.4456 57.9934 66.9956 57.2634C67.3656 56.7634 67.6756 56.2033 67.8856 55.6433C68.1756 54.8933 68.0957 54.1935 67.8157 53.5535C67.6357 53.1335 67.3557 52.7533 67.0257 52.3833C66.8557 52.2033 66.6957 52.0235 66.5157 51.8435C66.2157 51.5235 65.8757 51.2033 65.5257 50.8933C64.4557 49.9233 63.2457 49.0333 62.0457 48.3833C61.2957 47.9833 61.7657 46.7333 62.5357 47.1333C62.7857 47.2633 63.0357 47.4135 63.2757 47.5635C64.2657 48.1735 65.1757 48.8933 66.0557 49.6633C66.0957 49.7033 66.1556 49.7535 66.1956 49.7835C66.5356 50.0735 66.8756 50.3633 67.2056 50.6633C67.6456 51.0633 68.0657 51.4934 68.4157 51.9634C68.4557 52.0134 68.4957 52.0635 68.5357 52.1135C68.8457 52.5735 69.0856 53.0535 69.2356 53.5435C69.5156 54.4735 69.4556 55.4533 69.0056 56.4133C68.7856 56.8833 68.5356 57.3535 68.2256 57.7835C67.9356 58.2135 67.6056 58.6234 67.2256 58.9834C66.8856 59.3134 66.5156 59.6135 66.0956 59.8535C66.0556 59.8935 66.0056 59.9134 65.9656 59.9434C65.9056 59.9834 65.8457 60.0035 65.7757 60.0335C65.2757 60.2935 64.7656 60.4334 64.2456 60.4934H64.2256C63.9056 60.5334 63.5857 60.5334 63.2657 60.5134C63.1457 60.5134 63.0057 60.4834 62.8957 60.4734C61.0157 60.2034 59.1757 59.0434 57.5157 58.2034C54.1657 56.4934 50.2457 54.4635 48.0157 51.3135C46.9557 49.7835 46.7957 48.3035 47.2957 46.5335C47.9457 44.2235 49.4156 41.8434 51.9656 41.4534C54.4956 41.0734 57.1457 41.8735 59.5557 42.5835C62.6457 43.5035 65.6857 44.5834 68.8057 45.4634C68.9357 45.5034 69.0756 45.5435 69.2056 45.5735C69.2856 45.6135 69.3557 45.6133 69.4357 45.6433C69.5057 45.6633 69.5556 45.6834 69.6256 45.6934C69.7756 45.7334 69.8956 45.8133 69.9556 45.9033L69.9257 45.9233L69.9456 45.9434Z" fill="#F7F1EC"/>
<path d="M80.2125 72.896C81.2625 72.576 82.3326 73.0562 83.2726 73.5062C84.3326 74.0162 85.3926 74.5562 86.4326 75.0962C88.2826 76.0462 91.1925 77.0863 92.1025 79.1263C92.9325 80.9763 92.0126 83.3462 90.7726 84.7862C89.0326 86.8062 87.1326 85.9961 85.0526 85.1661C83.2226 84.4461 81.2826 84.4961 79.4126 83.9661C77.3426 83.3761 75.7326 81.7162 74.1526 80.3562C72.3226 78.7662 70.4926 77.1762 68.6726 75.5862C67.0526 74.1562 65.0926 72.4762 64.4026 70.3262C63.9426 68.8662 64.5726 67.2161 65.2626 65.9261C66.2426 64.0761 67.7926 62.5262 69.8726 62.0062C70.3726 61.8862 70.7326 61.1362 70.1726 60.8062C68.9426 60.0662 67.7225 59.3362 66.4825 58.5962C65.7525 58.1562 64.9525 59.2261 65.7025 59.6761C66.9325 60.4161 68.1526 61.146 69.3926 61.886L69.6925 60.6861C66.1225 61.5761 63.2626 65.1462 62.9326 68.8262C62.7226 71.1462 64.3326 73.2062 65.8626 74.7662C67.8926 76.8362 70.1826 78.6662 72.3726 80.5662C74.3426 82.2762 76.3625 84.4561 78.9425 85.2161C80.0825 85.5561 81.2626 85.6462 82.4326 85.8362C83.8026 86.0562 84.9425 86.6362 86.2225 87.0862C88.3925 87.8462 90.3726 87.3562 91.8626 85.5762C93.2326 83.9362 94.1325 81.516 93.6025 79.386C92.9125 76.596 89.8126 75.3561 87.5026 74.1561C85.2026 72.9561 82.3726 70.8761 79.6826 71.6861C78.8626 71.9361 79.4025 73.1561 80.2225 72.9061V72.9261L80.2125 72.896Z" fill="#F7F1EC"/>
<path d="M63.528 72.463C62.408 75.833 61.808 79.6131 62.798 83.1031C63.878 86.9031 67.1579 89.163 70.0979 91.503C71.5779 92.683 73.048 94.1131 74.818 94.8631C76.588 95.6131 78.7679 95.6231 80.6979 95.8231C82.9679 96.0631 85.2179 96.343 87.4979 96.533C89.2379 96.683 90.608 96.1431 91.548 94.5931C93.128 91.9931 92.298 88.303 90.168 86.283C89.548 85.693 88.7579 86.7831 89.3779 87.3631C90.5479 88.4731 91.0779 90.2231 90.9979 91.8031C90.9579 92.5931 90.768 93.363 90.318 94.023C89.608 95.093 88.6679 95.2929 87.4479 95.1729C85.0979 94.9629 82.7479 94.6829 80.3979 94.4329C78.2579 94.2129 75.998 94.213 74.158 92.963C72.448 91.803 70.8679 90.4031 69.2479 89.1131C67.6279 87.8331 65.808 86.403 64.778 84.483C62.898 80.983 63.578 76.5429 64.778 72.9329C65.048 72.1229 63.808 71.6229 63.528 72.4429L63.5079 72.463H63.528Z" fill="#F7F1EC"/>
<path d="M71.7414 48.0458C72.8714 48.6158 74.1413 48.9957 75.3413 49.4057C76.9213 49.9257 78.5613 50.4559 80.2213 50.6259C80.7814 50.6859 81.5814 50.7458 82.0214 50.3158C82.2814 50.0658 82.3614 49.6759 82.1214 49.3659C81.9114 49.1059 81.4414 49.0158 81.1714 49.2658C81.0414 49.3858 81.3014 49.2158 81.1314 49.2958C81.0514 49.3358 81.2914 49.2958 81.1514 49.2958C81.0914 49.2958 81.0314 49.3159 80.9713 49.3259C80.9213 49.3259 80.8614 49.3259 80.8114 49.3259C80.8114 49.3259 80.9114 49.3259 80.7614 49.3259C80.6114 49.3259 80.4713 49.3058 80.3313 49.2858C79.6413 49.2158 78.9414 49.0557 78.2914 48.8857C76.7414 48.4857 75.2113 47.9757 73.7113 47.4157C73.2113 47.2257 72.6913 47.0458 72.2213 46.7958C71.9013 46.6358 71.4814 46.8557 71.3514 47.1657C71.2114 47.5357 71.4013 47.8758 71.7213 48.0358L71.7414 48.0458Z" fill="#F7F1EC"/>
<path d="M72.2154 66.4748C75.9654 66.2348 79.7154 68.4449 81.3254 71.8249C81.6954 72.6049 82.9255 72.0648 82.5455 71.2848C80.6555 67.3448 76.3655 64.8547 72.0155 65.1347C71.1555 65.1847 71.3554 66.5148 72.2054 66.4648L72.2154 66.4748Z" fill="#F7F1EC"/>
<path d="M119.395 126.404C126.615 135.834 129.965 147.515 135.715 157.795C136.135 158.535 137.365 158.005 136.935 157.255C131.115 146.875 127.725 135.095 120.425 125.565C119.895 124.875 118.865 125.724 119.385 126.404H119.395Z" fill="#F7F1EC"/>
<path d="M77.7276 95.4147C82.3576 98.7647 87.3376 101.715 92.4776 104.205C94.9276 105.395 97.4077 106.395 100.008 107.165C101.608 107.645 103.238 108.125 104.698 108.945C106.358 109.895 107.728 111.255 109.078 112.595C109.688 113.195 110.728 112.365 110.118 111.755C108.868 110.515 107.618 109.255 106.148 108.285C104.848 107.415 103.398 106.835 101.918 106.355C99.1577 105.475 96.4876 104.615 93.8576 103.385C88.4876 100.875 83.3077 97.7949 78.5077 94.3249C77.8077 93.8149 77.0176 94.8947 77.7176 95.4047L77.7276 95.4147Z" fill="#F7F1EC"/>
<path d="M109.797 114.203C109.867 116.313 110.737 118.323 112.257 119.793C113.117 120.613 114.477 120.983 114.547 122.313C114.607 123.363 114.787 124.223 115.547 125.013C117.017 126.543 119.247 126.483 121.157 125.963C123.667 125.263 126.077 124.143 128.357 122.913C136.387 118.583 145.487 112.233 147.517 102.723C148.427 98.4929 147.387 92.0828 141.857 92.1728C140.997 92.1928 141.197 93.5129 142.047 93.5029C144.277 93.4629 145.797 95.373 146.287 97.373C146.777 99.373 146.507 101.483 145.987 103.393C144.937 107.173 142.607 110.493 139.807 113.193C136.707 116.183 133.047 118.673 129.327 120.833C127.417 121.943 125.437 122.943 123.387 123.773C121.547 124.503 119.037 125.623 117.137 124.533C115.787 123.763 116.097 122.713 115.807 121.443C115.597 120.533 115.007 120.143 114.267 119.663C112.297 118.383 111.207 116.343 111.127 114.013C111.097 113.153 109.767 113.353 109.797 114.203Z" fill="#F7F1EC"/>
<path d="M118.048 123.294C123.978 121.934 129.328 118.224 133.978 114.424C136.148 112.644 138.178 110.684 139.908 108.464C141.408 106.534 143.278 104.044 143.238 101.504C143.218 100.644 141.898 100.844 141.908 101.694C141.938 103.074 141.038 104.414 140.318 105.544C139.658 106.594 138.918 107.594 138.118 108.554C136.468 110.524 134.558 112.264 132.538 113.864C128.208 117.304 123.308 120.724 117.848 121.974C117.008 122.164 117.198 123.494 118.038 123.304L118.048 123.294Z" fill="#F7F1EC"/>
<path d="M79.536 69.2236C83.476 70.1036 87.416 71.0035 91.356 71.8835C92.196 72.0735 92.346 70.7437 91.516 70.5537C87.576 69.6737 83.6359 68.7735 79.6959 67.8935C78.8559 67.7035 78.706 69.0336 79.536 69.2236Z" fill="#F7F1EC"/>
<path d="M76.5649 67.0746C80.5549 66.9546 84.5248 66.5446 88.4548 65.8146C89.3048 65.6546 89.1148 64.3345 88.2648 64.4845C84.3348 65.2145 80.3648 65.6245 76.3748 65.7445C75.5148 65.7745 75.7149 67.0946 76.5649 67.0746Z" fill="#F7F1EC"/>
</g>
</svg>
