<svg width="110" height="159" viewBox="0 0 110 159" fill="none" xmlns="http://www.w3.org/2000/svg">
<mask id="mask0_1390_2648" style="mask-type:luminance" maskUnits="userSpaceOnUse" x="0" y="0" width="110" height="159">
<path d="M109.203 0.589844H0.132812V158.09H109.203V0.589844Z" fill="white"/>
</mask>
<g mask="url(#mask0_1390_2648)">
<path d="M6.15217 48.232C7.32217 64.432 8.74214 80.6921 12.1821 96.5921C15.4121 111.502 20.4821 126.692 30.1921 138.712C32.4421 141.492 34.9321 144.072 37.6721 146.372C40.2321 148.512 42.7722 150.702 45.4022 152.762C48.0322 154.812 50.9722 157.082 54.2722 157.872C57.5722 158.662 61.5521 157.122 64.3021 155.122C67.6421 152.702 70.2121 149.412 72.9221 146.342C74.9721 144.032 76.8621 141.622 78.6221 139.072C82.8321 132.992 86.4122 126.472 89.7122 119.862C93.3322 112.612 96.6021 105.192 99.5421 97.6319C102.132 90.9819 104.502 84.2221 106.332 77.3121C106.702 75.9421 107.032 74.552 107.342 73.162C107.512 72.412 106.352 72.0921 106.182 72.8421C104.782 79.2121 102.752 85.4421 100.542 91.5721C97.8921 98.9221 94.8922 106.132 91.5922 113.212C88.2922 120.282 84.8522 126.962 80.8322 133.472C79.1322 136.232 77.3321 138.932 75.3621 141.512C73.2721 144.252 70.9421 146.822 68.6321 149.372C65.9921 152.302 63.0121 155.242 59.1121 156.362C57.5021 156.822 55.8021 157.052 54.1821 156.582C52.5621 156.112 51.0522 155.242 49.6422 154.332C46.6622 152.402 43.9722 150.082 41.2722 147.792C38.7422 145.652 36.1921 143.592 33.9221 141.162C23.6221 130.222 18.0521 115.612 14.4921 101.252C10.6421 85.7121 8.99215 69.7221 7.76215 53.7921C7.62215 51.9421 7.48217 50.072 7.34217 48.222C7.28217 47.452 6.09216 47.452 6.14216 48.222L6.15217 48.232Z" fill="#F7F1EC"/>
<path d="M34.011 53.9812C35.631 63.7212 39.701 72.5812 44.711 81.0212C49.291 88.7312 54.401 96.2212 57.441 104.721C59.351 110.061 60.3609 115.641 60.4909 121.301C60.5109 122.071 61.701 122.081 61.691 121.301C61.471 111.621 58.5209 102.611 53.9209 94.1611C49.3209 85.7111 44.1909 78.6613 40.3509 70.3413C37.9009 65.0213 36.1309 59.4311 35.1609 53.6611C35.0309 52.9011 33.8809 53.2212 34.0009 53.9812H34.011Z" fill="#F7F1EC"/>
<path d="M50.4711 88.5504C54.2311 77.7004 58.0012 66.8304 63.5912 56.7604C65.1412 53.9704 66.7911 51.2404 68.4811 48.5304C68.8911 47.8704 67.8612 47.2703 67.4412 47.9203C64.5612 52.5503 61.8011 57.2603 59.4211 62.1803C57.0411 67.1003 55.1411 71.9403 53.3011 76.9403C51.9311 80.6903 50.6112 84.4603 49.3112 88.2303C49.0512 88.9603 50.2111 89.2804 50.4711 88.5504Z" fill="#F7F1EC"/>
<path d="M70.2169 45.2608C73.8069 37.0708 82.977 32.3007 91.727 34.1407C95.847 35.0007 99.607 37.1809 102.397 40.3309C105.417 43.7509 106.907 47.9808 107.567 52.4308C108.457 58.3508 107.757 64.4809 106.767 70.3509C106.637 71.1009 107.797 71.4308 107.927 70.6708C109.597 60.7408 110.657 48.7909 103.977 40.3509C98.347 33.2509 88.347 30.561 79.987 34.1209C75.237 36.1409 71.267 39.9007 69.187 44.6407C68.887 45.3407 69.917 45.9508 70.227 45.2508L70.2169 45.2608Z" fill="#F7F1EC"/>
<path d="M93.2269 75.3331C91.8769 69.3031 88.9169 63.8529 86.1269 58.3929C84.9669 56.1129 83.9969 53.393 81.9669 51.723C80.0969 50.173 77.1569 50.053 75.1769 51.503C73.4169 52.793 73.1769 55.1131 73.7869 57.0831C74.2069 58.4531 74.9969 59.713 75.6269 60.993C76.3769 62.513 77.117 64.0431 77.837 65.5931C79.197 68.5031 80.4869 71.4431 81.7969 74.3731C82.4569 75.8631 83.1269 77.3631 83.8069 78.8531C84.4369 80.2531 84.9769 81.833 85.9269 83.053C87.4569 85.023 90.7069 85.0331 92.6069 83.5731C95.0269 81.7031 93.8269 77.7831 93.2369 75.3531C93.0569 74.6031 91.9069 74.9229 92.0769 75.6729C92.5569 77.6629 93.8569 81.4331 91.6069 82.8131C90.7369 83.3531 89.597 83.5231 88.587 83.3431C87.217 83.0831 86.6069 82.0829 86.0469 80.9029C83.7369 76.0429 81.6669 71.0729 79.4169 66.1829C78.2569 63.6529 77.0569 61.1529 75.7969 58.6829C74.9069 56.9429 73.9069 54.4731 75.5369 52.8131C77.3969 50.8931 80.4769 51.643 82.0169 53.483C83.4669 55.213 84.3169 57.513 85.337 59.513C88.007 64.723 90.7769 69.9229 92.0669 75.6929C92.2369 76.4429 93.3969 76.1231 93.2269 75.3731V75.3531V75.3331Z" fill="#F7F1EC"/>
<path d="M83.1007 74.0824C84.2107 73.5024 85.3708 73.0224 86.5308 72.5524C87.9108 71.9924 89.3508 71.4122 90.8308 71.1622C91.5908 71.0322 91.2708 69.8723 90.5108 70.0023C89.0008 70.2623 87.5308 70.8523 86.1108 71.4323C84.8908 71.9323 83.6608 72.4424 82.4908 73.0424C81.8008 73.3924 82.4107 74.4324 83.1007 74.0824Z" fill="#F7F1EC"/>
<path d="M78.8374 64.5211C81.0074 63.0011 83.4473 61.9811 86.0573 61.5211C86.3773 61.4611 86.5573 61.0711 86.4773 60.7811C86.3773 60.4411 86.0573 60.3012 85.7373 60.3612C83.0473 60.8412 80.4673 61.921 78.2373 63.491C77.6173 63.931 78.2173 64.9711 78.8473 64.5311L78.8374 64.5211Z" fill="#F7F1EC"/>
<path d="M85.4719 64.5515C86.2519 64.5515 86.2519 63.3516 85.4719 63.3516C84.6919 63.3516 84.7019 64.5515 85.4719 64.5515Z" fill="#F7F1EC"/>
<path d="M83.2531 65.532C84.0331 65.532 84.0331 64.332 83.2531 64.332C82.4731 64.332 82.4831 65.532 83.2531 65.532Z" fill="#F7F1EC"/>
<path d="M81.21 66.4617C81.99 66.4617 81.99 65.2617 81.21 65.2617C80.43 65.2617 80.43 66.4617 81.21 66.4617Z" fill="#F7F1EC"/>
<path d="M82.3313 68.583C83.1013 68.583 83.1013 67.3828 82.3313 67.3828C81.5613 67.3828 81.5513 68.583 82.3313 68.583Z" fill="#F7F1EC"/>
<path d="M84.5109 67.6726C85.2809 67.6726 85.2809 66.4727 84.5109 66.4727C83.7409 66.4727 83.7309 67.6726 84.5109 67.6726Z" fill="#F7F1EC"/>
<path d="M86.6359 66.782C87.4059 66.782 87.4059 65.582 86.6359 65.582C85.8659 65.582 85.8559 66.782 86.6359 66.782Z" fill="#F7F1EC"/>
<path d="M87.7375 69.2C88.5175 69.2 88.5175 68 87.7375 68C86.9575 68 86.9675 69.2 87.7375 69.2Z" fill="#F7F1EC"/>
<path d="M85.4406 69.9109C86.2106 69.9109 86.2106 68.7109 85.4406 68.7109C84.6706 68.7109 84.6606 69.9109 85.4406 69.9109Z" fill="#F7F1EC"/>
<path d="M83.3234 70.6104C84.0934 70.6104 84.0934 69.4102 83.3234 69.4102C82.5534 69.4102 82.5434 70.6104 83.3234 70.6104Z" fill="#F7F1EC"/>
<path d="M77.2725 63.8617C75.5725 64.4717 73.8624 65.0716 72.1624 65.6816C70.6724 66.2216 68.8025 66.6616 67.7725 67.9716C66.8125 69.1816 66.6825 70.9816 67.0725 72.4316C67.2525 73.0816 67.5424 73.7116 67.9824 74.2116C68.4724 74.7616 69.2025 75.0616 69.9025 75.2616C71.8525 75.8016 73.9124 75.3316 75.8624 75.0116C76.6224 74.8916 76.3024 73.7317 75.5424 73.8517C74.0524 74.0917 72.5024 74.4416 70.9824 74.2516C70.3524 74.1716 69.5825 73.9917 69.0725 73.5917C68.6725 73.2817 68.4324 72.7717 68.2924 72.3017C67.9324 71.1417 67.9525 69.5317 68.8225 68.6017C69.2925 68.0917 69.9625 67.7817 70.5925 67.5417C71.2725 67.2817 71.9625 67.0317 72.6425 66.7817C74.2925 66.1917 75.9424 65.6116 77.6024 65.0116C78.3224 64.7516 78.0125 63.6017 77.2825 63.8517L77.2725 63.8617Z" fill="#F7F1EC"/>
<path d="M91.4028 69.9815C93.5928 69.0515 95.9128 68.2914 98.0028 67.1614C99.6528 66.2714 101.173 64.9516 101.563 63.0416C101.943 61.1316 101.523 58.9215 99.9128 57.7115C98.4828 56.6415 96.5428 56.6514 94.8928 57.1514C93.5628 57.5514 92.2928 58.2015 91.0128 58.7215C89.6128 59.2815 88.2028 59.8316 86.8028 60.3616C86.0928 60.6316 86.3928 61.7915 87.1228 61.5215C89.2128 60.7315 91.2828 59.9116 93.3528 59.0516C94.9128 58.4016 96.5628 57.6815 98.2728 58.2015C100.123 58.7715 100.733 60.8516 100.443 62.6016C100.143 64.3616 98.7328 65.4415 97.2428 66.2115C95.1928 67.2715 92.9528 68.0315 90.8128 68.9415C90.1028 69.2415 90.7128 70.2715 91.4228 69.9815H91.4028Z" fill="#F7F1EC"/>
<path d="M75.8605 75.0128C77.7105 74.7528 79.5405 74.3328 81.3305 73.8028C82.0705 73.5828 81.7505 72.4327 81.0105 72.6427C79.2205 73.1727 77.3905 73.5829 75.5405 73.8529C75.2205 73.9029 75.0405 74.3129 75.1205 74.5929C75.2205 74.9329 75.5405 75.0528 75.8605 75.0128Z" fill="#F7F1EC"/>
<path d="M6.9597 45.3118C6.5397 43.1018 6.52967 40.8516 6.17967 38.6416C5.82967 36.4316 4.60966 34.5417 3.41966 32.7217C2.37966 31.1317 1.35969 29.5218 1.32969 27.5618C1.29969 25.7218 1.98969 23.9318 2.88969 22.3618C3.78969 20.7918 4.89965 19.4117 5.96965 17.9817C7.02965 16.5517 7.90968 14.9717 8.93968 13.4917C10.8797 10.6917 13.9297 9.82165 16.7497 8.20165C18.1297 7.40165 19.2297 6.3916 20.2297 5.1516C21.0697 4.1116 21.9197 2.98173 23.0797 2.28173C25.7697 0.671729 29.3697 3.32166 31.3297 5.21166C33.2897 7.10166 34.6197 9.50161 35.1897 12.1616C35.6897 14.4916 35.4096 17.3316 34.1596 19.3916C33.7596 20.0516 34.7897 20.6517 35.1997 20.0017C37.7997 15.7417 36.6197 9.98164 33.7797 6.19164C31.9697 3.79164 29.0997 1.36166 26.0597 0.71166C23.0097 0.0516602 21.0297 2.28163 19.2797 4.43163C18.1397 5.84163 16.8297 6.84161 15.2297 7.66161C13.7597 8.41161 12.1997 9.03166 10.8297 9.96166C9.45969 10.8917 8.3697 12.1718 7.4597 13.6018C6.3797 15.2918 5.29965 16.9217 4.09965 18.5217C1.91965 21.4117 -0.310354 24.7718 0.219646 28.5718C0.719646 32.0718 3.7797 34.4818 4.7797 37.8218C5.0797 38.8118 5.12969 39.8418 5.19969 40.8718C5.31969 42.4818 5.51968 44.0616 5.81968 45.6416C5.95968 46.4016 7.10966 46.0818 6.97966 45.3218L6.9597 45.3118Z" fill="#F7F1EC"/>
<path d="M35.1888 53.822C35.0188 50.312 35.4487 46.762 37.0387 43.592C38.3987 40.872 40.5487 38.632 42.4087 36.252C43.5287 34.822 44.6088 33.3619 45.7788 31.9719C47.8388 29.5219 50.0087 27.1821 51.9087 24.6021C53.1287 22.9421 54.2988 21.232 55.4488 19.512C56.0288 18.652 56.5887 17.7919 57.1687 16.9419C57.6887 16.1619 58.4088 15.372 58.7788 14.522C59.2988 13.352 58.5188 11.9921 57.7788 11.1121C56.8788 10.0421 55.6588 9.58203 54.2788 9.58203C51.3088 9.58203 48.2087 11.0819 45.9987 12.9919C43.6387 15.0319 42.0187 17.862 39.3687 19.572C33.9087 23.092 30.7987 13.592 29.5987 10.022C29.3587 9.29197 28.1988 9.60204 28.4388 10.342C29.4488 13.362 30.6088 16.532 32.6288 19.062C33.7088 20.412 35.1987 21.592 36.9987 21.592C38.9287 21.592 40.5488 20.302 41.8988 19.062C44.4188 16.732 46.2088 13.8119 49.3288 12.1819C51.8188 10.8919 55.9287 9.59202 57.4787 12.822C57.9587 13.832 57.4988 14.2918 56.9388 15.1418C56.3688 15.9918 55.7987 16.8519 55.2187 17.7119C54.0787 19.4319 52.9287 21.152 51.7287 22.832C48.6987 27.082 45.0988 30.882 41.8888 35.002C39.8788 37.592 37.4888 40.0419 36.0088 42.9919C34.3288 46.3519 33.8287 50.102 33.9987 53.832C34.0387 54.602 35.2388 54.612 35.1988 53.832L35.1888 53.822Z" fill="#F7F1EC"/>
</g>
</svg>
