<svg width="14" height="14" viewBox="0 0 14 14" fill="none" xmlns="http://www.w3.org/2000/svg">
<path d="M13.1171 10.9021C13.1171 11.1193 13.0687 11.3426 12.9659 11.5599C12.8632 11.7771 12.7302 11.9823 12.5549 12.1755C12.2588 12.5013 11.9324 12.7367 11.5637 12.8876C11.2011 13.0385 10.8082 13.1169 10.3851 13.1169C9.76859 13.1169 9.10978 12.9721 8.4147 12.6764C7.71962 12.3806 7.02454 11.9823 6.33551 11.4814C5.64043 10.9745 4.98162 10.4132 4.35303 9.79159C3.73048 9.16395 3.16837 8.50612 2.66671 7.81812C2.17109 7.13012 1.77217 6.44212 1.48205 5.76016C1.19193 5.07216 1.04688 4.41433 1.04688 3.78668C1.04688 3.3763 1.1194 2.98402 1.26446 2.62191C1.40952 2.25377 1.6392 1.91581 1.95954 1.61405C2.34637 1.23384 2.76946 1.04675 3.21673 1.04675C3.38596 1.04675 3.5552 1.08296 3.7063 1.15538C3.86345 1.22781 4.00247 1.33644 4.11126 1.49335L5.5135 3.46682C5.6223 3.6177 5.70087 3.75651 5.75527 3.88928C5.80967 4.01602 5.83989 4.14275 5.83989 4.25742C5.83989 4.40226 5.79758 4.5471 5.71296 4.68591C5.63439 4.82472 5.51955 4.96956 5.37449 5.1144L4.91513 5.59117C4.84865 5.65756 4.81843 5.73602 4.81843 5.83258C4.81843 5.88086 4.82447 5.9231 4.83656 5.97138C4.85469 6.01967 4.87282 6.05588 4.88491 6.09209C4.99371 6.29124 5.18108 6.55075 5.44702 6.86458C5.71901 7.1784 6.00913 7.49826 6.32342 7.81812C6.64981 8.13798 6.9641 8.4337 7.28444 8.70528C7.59874 8.97082 7.85864 9.15188 8.06414 9.26051C8.09436 9.27258 8.13062 9.29068 8.17293 9.30879C8.22129 9.32689 8.26964 9.33293 8.32404 9.33293C8.42679 9.33293 8.50536 9.29672 8.57185 9.23033L9.0312 8.7777C9.18231 8.62682 9.32737 8.51216 9.46638 8.43974C9.6054 8.35524 9.74441 8.313 9.89552 8.313C10.0104 8.313 10.1312 8.33714 10.2642 8.39145C10.3972 8.44577 10.5362 8.52423 10.6873 8.62682L12.6879 10.0451C12.8451 10.1537 12.9539 10.2804 13.0203 10.4313C13.0808 10.5822 13.1171 10.7331 13.1171 10.9021Z" fill="white" stroke="#0092FF" stroke-miterlimit="10"/>
</svg>