<svg width="17" height="14" viewBox="0 0 17 14" fill="none" xmlns="http://www.w3.org/2000/svg">
<path d="M1.2861 1.32294C1.44055 1.1523 1.65391 1.04675 1.88958 1.04675H15.5447C15.7804 1.04675 15.9937 1.1523 16.1482 1.32294M1.2861 1.32294C1.13166 1.49359 1.03613 1.72934 1.03613 1.98974V12.1739C1.03613 12.6948 1.41824 13.1169 1.88958 13.1169H15.5447C16.0161 13.1169 16.3982 12.6948 16.3982 12.1739V1.98974C16.3982 1.72934 16.3027 1.49359 16.1482 1.32294M1.2861 1.32294L7.51021 7.06836C8.17675 7.80492 9.25756 7.80492 9.9241 7.06836L16.1482 1.32294" fill="white"/>
<path d="M1.2861 1.32294C1.44055 1.1523 1.65391 1.04675 1.88958 1.04675H15.5447C15.7804 1.04675 15.9937 1.1523 16.1482 1.32294M1.2861 1.32294C1.13166 1.49359 1.03613 1.72934 1.03613 1.98974V12.1739C1.03613 12.6948 1.41824 13.1169 1.88958 13.1169H15.5447C16.0161 13.1169 16.3982 12.6948 16.3982 12.1739V1.98974C16.3982 1.72934 16.3027 1.49359 16.1482 1.32294M1.2861 1.32294L7.51021 7.06836C8.17675 7.80492 9.25756 7.80492 9.9241 7.06836L16.1482 1.32294" stroke="#0092FF" stroke-linecap="round" stroke-linejoin="round"/>
</svg>