<svg width="15" height="15" viewBox="0 0 15 15" fill="none" xmlns="http://www.w3.org/2000/svg">
<path d="M7.75627 0.0408936C3.8678 0.0408936 0.715332 3.19336 0.715332 7.08183C0.715332 10.9703 3.8678 14.1228 7.75627 14.1228C11.6447 14.1228 14.7972 10.9703 14.7972 7.08183C14.7972 3.19336 11.6447 0.0408936 7.75627 0.0408936ZM5.45176 1.18529C4.76599 1.93116 4.2229 3.00397 3.89079 4.26548H2.08361C2.78303 2.86665 3.98466 1.76053 5.45176 1.18529ZM1.41943 7.08183C1.41943 6.33926 1.55906 5.63164 1.79518 4.96955H3.73402C3.60729 5.63772 3.53171 6.34371 3.53171 7.08183C3.53171 7.81994 3.60729 8.52594 3.73378 9.19411H1.79518C1.55906 8.53201 1.41943 7.82443 1.41943 7.08183ZM2.08361 9.8982H3.89079C4.22312 11.1597 4.76599 12.2325 5.45176 12.9784C3.98466 12.4031 2.78303 11.297 2.08361 9.8982ZM7.40422 13.3853C6.19929 13.1584 5.1523 11.7835 4.61648 9.8982H7.40422V13.3853ZM7.40422 9.19411H4.44868C4.31325 8.52946 4.2358 7.81901 4.2358 7.08183C4.2358 6.34465 4.31325 5.6342 4.44868 4.96955H7.40422V9.19411ZM7.40422 4.26546H4.61648C5.1523 2.38013 6.19929 1.00525 7.40422 0.778322V4.26546ZM13.4289 4.26546H11.6217C11.2894 3.00394 10.7465 1.93114 10.0608 1.18527C11.5279 1.76053 12.7295 2.86665 13.4289 4.26546ZM8.10831 0.778322C9.31325 1.00528 10.3602 2.38013 10.8961 4.26546H8.10831V0.778322ZM8.10831 4.96955H11.0639C11.1993 5.6342 11.2767 6.34465 11.2767 7.08183C11.2767 7.81901 11.1993 8.52946 11.0639 9.19411H8.10831V4.96955ZM8.10831 13.3853V9.8982H10.8961C10.3602 11.7835 9.31325 13.1584 8.10831 13.3853ZM10.0608 12.9784C10.7465 12.2323 11.2894 11.1597 11.6217 9.8982H13.4289C12.7295 11.297 11.5279 12.4031 10.0608 12.9784ZM11.7785 9.19411C11.9052 8.52594 11.9808 7.81994 11.9808 7.08183C11.9808 6.34371 11.9052 5.63772 11.7788 4.96955H13.7176C13.9535 5.63164 14.0931 6.33926 14.0931 7.08183C14.0931 7.82443 13.9535 8.53201 13.7174 9.19411H11.7785Z" fill="#0092FF"/>
</svg>