<svg width="512" height="512" viewBox="0 0 512 512" fill="none" xmlns="http://www.w3.org/2000/svg">
<path d="M449.288 88.0865L301.115 236.308L258.902 194.09L238.616 173.802L216.229 151.413L214.817 150.001C209.837 145.022 203.084 142.224 196.041 142.224C188.999 142.224 182.245 145.022 177.265 150.001L175.723 151.511L134.067 193.171L11.2352 316.015C9.9549 317.299 8.9301 318.814 8.21527 320.48C8.08232 320.118 7.98338 319.744 7.91981 319.364C3.01585 300.228 0.371807 280.583 0.0417615 260.831C-2.48578 120.62 110.039 3.1917 250.236 0.0729839C287.849 -0.826435 325.196 6.59674 359.606 21.8118C394.017 37.0268 424.641 59.6578 449.288 88.0865Z" fill="black"/>
<path d="M483.691 138.775L343.658 278.854L323.339 299.142L311.883 310.6C309.26 313.19 305.722 314.642 302.036 314.642C298.35 314.642 294.812 313.19 292.188 310.6L174.674 193.073L196.043 171.702L218.43 194.091L238.749 214.379L289.136 264.771C290.724 266.365 292.612 267.63 294.691 268.493C296.769 269.356 298.998 269.8 301.248 269.8C303.499 269.8 305.727 269.356 307.806 268.493C309.884 267.63 311.772 266.365 313.361 264.771L321.534 256.596L466.983 110.969C473.143 119.869 478.724 129.157 483.691 138.775Z" fill="black"/>
<path d="M176.633 235.75L32.2017 380.196C26.7455 370.39 21.9425 360.235 17.8242 349.796L31.2169 336.402C30.8685 336.746 30.4955 337.064 30.1009 337.354L154.312 213.164L176.633 235.75Z" fill="black"/>
<path d="M195.84 171.611L174.463 192.99L174.533 193.06L195.91 171.681L195.84 171.611Z" fill="black"/>
<path d="M154.255 213.361L31.0946 336.534C30.7462 336.878 30.3732 337.197 29.9785 337.486L154.189 213.296L154.255 213.361Z" fill="black"/>
<path d="M195.84 171.611L174.463 192.99L174.533 193.06L195.91 171.681L195.84 171.611Z" fill="black"/>
<path d="M511.958 260.929C509.365 396.446 399.565 507.669 264.095 511.871C222.051 513.206 180.326 504.161 142.608 485.535C104.89 466.91 72.3424 439.276 47.8418 405.08L196.967 255.972L281.82 340.834C284.47 343.488 287.616 345.594 291.08 347.031C294.544 348.467 298.258 349.207 302.008 349.207C305.758 349.207 309.471 348.467 312.935 347.031C316.399 345.594 319.546 343.488 322.195 340.834L343.565 319.43L363.851 299.142L496.005 166.974C507.168 197.014 512.58 228.887 511.958 260.929Z" fill="black"/>
<path d="M154.255 213.361L31.0946 336.534C30.7462 336.878 30.3732 337.197 29.9785 337.486L154.189 213.296L154.255 213.361Z" fill="black"/>
<path d="M195.84 171.611L174.463 192.99L174.533 193.06L195.91 171.681L195.84 171.611Z" fill="black"/>
<path d="M7.95473 319.1L11.2373 315.817C9.95697 317.101 8.93217 318.616 8.21734 320.282C8.08439 319.92 7.98545 319.546 7.92188 319.166L7.95473 319.1Z" fill="black"/>
<path d="M154.255 213.361L31.0946 336.534C30.7462 336.878 30.3732 337.197 29.9785 337.486L154.189 213.296L154.255 213.361Z" fill="black"/>
<path d="M195.84 171.611L174.463 192.99L174.533 193.06L195.91 171.681L195.84 171.611Z" fill="black"/>
</svg>
