<svg width="410" height="130" viewBox="0 0 410 130" fill="none" xmlns="http://www.w3.org/2000/svg">
<path d="M694.784 129.481C676.569 129.481 659.444 122.756 646.52 110.496C639.484 103.823 634.304 96.0114 631.031 87.6828C627.814 79.5094 619.524 74.0778 610.308 74.0778H609.872C600.491 74.0778 591.929 79.2508 588.384 87.4242C585.385 94.3043 580.968 100.667 575.241 106.151C563.571 117.221 548.083 123.273 531.613 123.273C515.143 123.273 499.655 117.169 487.984 106.151C483.349 101.753 479.586 96.7356 476.695 91.3557C471.296 81.1131 460.934 74.1295 448.882 74.1295H444.301C433.23 74.1295 422.487 79.4577 417.415 88.8209C414.906 93.4766 411.58 97.8737 407.435 101.805C397.019 111.686 383.167 117.117 368.442 117.117C353.717 117.117 339.865 111.686 329.449 101.805C326.722 99.2187 324.323 96.3735 322.305 93.4249C313.688 80.9062 298.2 74.1812 282.439 74.1812H282.003C266.624 74.1812 252.99 81.8373 243.555 93.3214C242.355 94.7699 241.101 96.1666 239.683 97.4598C230.467 106.151 218.305 110.961 205.271 110.961C192.237 110.961 180.076 106.151 170.859 97.4598C169.441 96.1149 168.187 94.7699 166.987 93.3214C156.407 80.544 139.283 74.1812 122.159 74.1812H115.942C99.1445 74.1812 83.82 81.5786 72.0403 92.9076C71.9857 92.9593 71.9312 93.011 71.8766 93.0628C63.9144 100.615 53.3345 104.754 42.1002 104.754C30.8658 104.754 20.2859 100.615 12.3237 93.0628C4.36145 85.5101 -0.00146484 75.4745 -0.00146484 64.818C-0.00146484 54.1616 4.36145 44.1259 12.3237 36.5733C20.2859 29.0207 30.8658 24.8823 42.1002 24.8823C53.3345 24.8823 63.9144 29.0207 71.8766 36.5733C71.9312 36.625 71.9857 36.6768 72.0403 36.7285C83.82 48.0574 99.199 55.4549 115.942 55.4549H122.159C139.283 55.4549 156.407 49.092 166.987 36.3147C168.187 34.8662 169.441 33.5212 170.859 32.1762C180.076 23.4855 192.237 18.6746 205.271 18.6746C218.305 18.6746 230.467 23.4855 239.683 32.1762C241.101 33.5212 242.355 34.9179 243.555 36.3147C252.99 47.7988 266.678 55.4549 282.003 55.4549H282.439C298.2 55.4549 313.688 48.7299 322.305 36.2112C324.323 33.2626 326.722 30.4174 329.449 27.8309C339.865 17.9504 353.717 12.5187 368.442 12.5187C383.167 12.5187 397.019 17.9504 407.489 27.8826C411.634 31.8141 414.906 36.1595 417.47 40.8152C422.541 50.1784 433.285 55.5066 444.356 55.5066H448.991C461.044 55.5066 471.405 48.4713 476.804 38.2804C479.64 32.9005 483.458 27.8826 488.093 23.4855C499.764 12.4153 515.252 6.31109 531.722 6.31109C548.192 6.31109 563.68 12.4153 575.35 23.4855C581.131 28.969 585.549 35.3835 588.548 42.3671C592.038 50.437 600.546 55.5583 609.708 55.5583C619.306 55.5583 627.868 49.9197 631.304 41.3842C634.74 32.8487 639.703 25.6582 646.574 19.1402C659.39 6.72494 676.514 0 694.784 0C716.489 0 736.667 9.5701 749.919 26.5376C767.371 48.8851 767.371 80.544 749.919 102.892C736.667 119.911 716.489 129.481 694.729 129.481H694.784Z" fill="url(#paint0_linear_51_20938)"/>
<defs>
<linearGradient id="paint0_linear_51_20938" x1="-9.97669" y1="64.7543" x2="970.06" y2="64.2225" gradientUnits="userSpaceOnUse">
<stop stop-color="#F1FAF9"/>
<stop offset="1" stop-color="#3FE0D0" stop-opacity="0.63"/>
</linearGradient>
</defs>
</svg>
