<?xml version="1.0" encoding="UTF-8"?>
<svg xmlns="http://www.w3.org/2000/svg" width="843" height="345" viewBox="0 0 843 345" fill="none">
  <g clip-path="url(#clip0_51_18390)">
    <path d="M267.429 99.9254C271.208 99.9254 274.272 96.863 274.272 93.0854C274.272 89.3077 271.208 86.2454 267.429 86.2454C263.65 86.2454 260.586 89.3077 260.586 93.0854C260.586 96.863 263.65 99.9254 267.429 99.9254Z" fill="#D9DEE2"></path>
    <path d="M579.538 140.172C581.455 140.172 583.009 138.619 583.009 136.702C583.009 134.786 581.455 133.233 579.538 133.233C577.62 133.233 576.066 134.786 576.066 136.702C576.066 138.619 577.62 140.172 579.538 140.172Z" stroke="url(#paint0_radial_51_18390)" stroke-miterlimit="10"></path>
    <path d="M521.9 112.135L423.385 169.366L324.225 112.135L422.74 54.9036L521.9 112.135Z" fill="#7B80E5"></path>
    <g opacity="0.5">
      <path d="M521.9 93.0854L423.385 150.317L324.225 93.0854L422.74 35.8706L521.9 93.0854Z" stroke="#3C40B7" stroke-miterlimit="10" stroke-dasharray="6 6"></path>
    </g>
    <path d="M520.9 284.144L422.385 341.375L323.225 284.144L421.74 226.929L520.9 284.144Z" fill="#002227"></path>
    <path d="M521.901 112.135L521.57 231.62L423.055 288.835L423.385 169.366L521.901 112.135Z" fill="#3C40B7"></path>
    <path opacity="0.5" d="M641.59 264.746L584.134 297.889C581.02 299.695 577.485 300.646 573.885 300.646C570.286 300.646 566.75 299.695 563.637 297.889L505.338 264.036C503.491 262.96 501.959 261.419 500.894 259.567C499.83 257.714 499.27 255.615 499.271 253.478V244.573" stroke="#65E6D9" stroke-miterlimit="10"></path>
    <path d="M423.386 169.366L423.055 288.835L323.879 231.62L324.226 112.135L423.386 169.366Z" fill="#5257D5"></path>
    <path d="M411.766 176.635L411.501 268.199L335.516 224.35L335.764 132.77L411.766 176.635Z" fill="#3FE0D0"></path>
    <path d="M341.301 220.121L341.549 136.108L335.764 132.77L335.516 224.35L411.501 268.199L411.534 260.632L341.301 220.121Z" fill="#3C40B7"></path>
    <path d="M423.053 128.541V57.6296L383.135 104.915L423.053 128.541Z" fill="#3FE0D0"></path>
    <path d="M423.055 128.541V57.6294L462.957 104.915L423.055 128.541Z" fill="#2DC0BF"></path>
    <g opacity="0.5">
      <path d="M521.9 62.6192L423.385 119.834L324.225 62.6192L422.74 5.38794L521.9 62.6192Z" stroke="#D5D8E2" stroke-miterlimit="10" stroke-dasharray="6 6"></path>
    </g>
    <path d="M219.165 217.031L187.809 235.238L156.254 217.031L187.61 198.808L219.165 217.031Z" fill="#7B80E5"></path>
    <path d="M219.163 217.031L219.063 255.048L187.707 273.271L187.806 235.238L219.163 217.031Z" fill="#3C40B7"></path>
    <path d="M187.806 235.238L187.707 273.271L156.152 255.048L156.252 217.031L187.806 235.238Z" fill="#5257D5"></path>
    <path d="M285.414 136.703L267.512 147.095L249.512 136.703L267.397 126.311L285.414 136.703Z" fill="white"></path>
    <path d="M285.412 136.703L285.346 158.396L267.461 168.804L267.511 147.095L285.412 136.703Z" fill="#BDC0C9"></path>
    <path d="M267.512 147.095L267.462 168.804L249.445 158.412L249.511 136.703L267.512 147.095Z" fill="#D9DEE2"></path>
    <path d="M597.439 198.527L579.538 208.919L561.537 198.527L579.422 188.118L597.439 198.527Z" fill="white"></path>
    <path d="M597.439 198.527L597.373 220.22L579.488 230.612L579.538 208.919L597.439 198.527Z" fill="#BDC0C9"></path>
    <path d="M579.537 208.919L579.488 230.612L561.471 220.22L561.537 198.527L579.537 208.919Z" fill="#D9DEE2"></path>
    <path d="M688.433 217.031L657.077 235.238L625.506 217.031L656.862 198.808L688.433 217.031Z" fill="#7B80E5"></path>
    <path d="M688.433 217.031L688.317 255.048L656.961 273.271L657.077 235.238L688.433 217.031Z" fill="#3C40B7"></path>
    <path d="M657.077 235.238L656.961 273.271L625.406 255.048L625.505 217.031L657.077 235.238Z" fill="#5257D5"></path>
    <path d="M644.944 245.366L644.828 283.399L613.273 265.192L613.373 227.159L644.944 245.366Z" fill="#2DC0BF"></path>
    <path d="M629.11 256.254L628.994 294.287L597.439 276.063L597.539 238.047L629.11 256.254Z" fill="#5257D5"></path>
    <path d="M187.806 227.093V191.637L167.855 215.28L187.806 227.093Z" fill="#3FE0D0"></path>
    <path d="M187.807 227.093V191.637L207.758 215.28L187.807 227.093Z" fill="#2DC0BF"></path>
    <path d="M656.963 227.093V191.637L637.012 215.28L656.963 227.093Z" fill="#3FE0D0"></path>
    <path d="M656.961 227.093V191.637L676.912 215.28L656.961 227.093Z" fill="#2DC0BF"></path>
    <path opacity="0.5" d="M200.369 262.747L261.396 297.889C264.512 299.695 268.05 300.646 271.652 300.646C275.254 300.646 278.793 299.695 281.909 297.889L340.208 264.036C342.055 262.96 343.587 261.419 344.652 259.567C345.716 257.714 346.276 255.615 346.274 253.478V244.573" stroke="#65E6D9" stroke-miterlimit="10"></path>
    <path d="M231.362 227.093L231.246 265.126L199.906 283.333L200.005 245.317L231.362 227.093Z" fill="#2DC0BF"></path>
    <path d="M389.382 182.336L346.273 157.471V152.729L389.382 177.611V182.336Z" fill="#5257D5"></path>
    <path d="M392.273 212.066V215.637L350.164 191.349V187.762L392.273 212.066Z" fill="#F5F8FB" stroke="#F5F8FB"></path>
    <path d="M388.882 189.613V193.2L346.773 168.896V165.325L388.882 189.613Z" fill="#F5F8FB" stroke="#F5F8FB"></path>
    <path d="M366.109 190.563L346.273 179.147V174.422L366.109 185.822V190.563Z" fill="#5257D5"></path>
    <path d="M383.548 221.261L363.713 209.861V205.136L383.548 216.536V221.261Z" fill="#5257D5"></path>
  </g>
  <defs>
    <radialGradient id="paint0_radial_51_18390" cx="0" cy="0" r="1" gradientUnits="userSpaceOnUse" gradientTransform="translate(579.538 136.702) scale(4.29763 4.29565)">
      <stop stop-color="#9499FA"></stop>
      <stop offset="1" stop-color="#5257D5"></stop>
    </radialGradient>
    <clipPath id="clip0_51_18390">
      <rect width="843" height="345" fill="white"></rect>
    </clipPath>
  </defs>
</svg>
