<svg xmlns="http://www.w3.org/2000/svg" width="32" height="32" viewBox="0 0 32 32" fill="none">
    <path d="M16.0013 20.106L7.19531 15.0214V7.53937C7.19531 4.2967 9.82398 1.6687 13.0666 1.6687C15.2353 1.6687 17.1293 2.8447 18.146 4.59403" stroke="#65E6D9" stroke-width="2" stroke-miterlimit="10"/>
    <path d="M12.4453 18.0527V7.88403L18.9253 4.14336C21.7333 2.52203 25.324 3.48403 26.9453 6.29203C28.03 8.17003 27.9586 10.3987 26.952 12.1534" stroke="#65E6D9" stroke-width="2" stroke-miterlimit="10"/>
    <path d="M12.4453 13.9473L21.2513 8.86267L27.7313 12.604C30.5393 14.2253 31.5013 17.816 29.88 20.624C28.7953 22.502 26.83 23.5547 24.8066 23.5607" stroke="#65E6D9" stroke-width="2" stroke-miterlimit="10"/>
    <path d="M16.004 11.894L24.81 16.9787V24.4607C24.81 27.7034 22.1814 30.3314 18.9387 30.3314C16.77 30.3314 14.876 29.1554 13.8594 27.406" stroke="#65E6D9" stroke-width="2" stroke-miterlimit="10"/>
    <path d="M19.5573 13.9474V24.1161L13.0773 27.8567C10.2693 29.4781 6.67864 28.5161 5.0573 25.7081C3.97264 23.8301 4.04397 21.6014 5.05064 19.8467" stroke="#65E6D9" stroke-width="2" stroke-miterlimit="10"/>
    <path d="M19.5583 18.0527L10.7523 23.1373L4.27225 19.396C1.46425 17.7747 0.50225 14.184 2.12358 11.376C3.20825 9.498 5.17358 8.44533 7.19692 8.43933" stroke="#65E6D9" stroke-width="2" stroke-miterlimit="10"/>
</svg>