<?xml version="1.0" encoding="UTF-8"?>
<svg xmlns="http://www.w3.org/2000/svg" width="226" height="28" viewBox="0 0 226 28" fill="none">
  <g clip-path="url(#clip0_51_238)">
    <path d="M0.46875 11.5655C0.46875 6.09602 5.10953 1.66386 10.6479 1.66386C13.7036 1.66386 15.8807 2.85205 17.5232 4.3986L15.5752 6.30349C14.4102 5.20959 12.8251 4.36088 10.6479 4.36088C6.61827 4.36088 3.46712 7.56713 3.46712 11.5466C3.46712 15.5262 6.61827 18.7324 10.6479 18.7324C13.2643 18.7324 14.754 17.6951 15.7089 16.7521C16.4919 15.9788 17.0075 14.8661 17.1985 13.3572H10.6479V10.6602H19.8722C19.9677 11.1506 20.025 11.7164 20.025 12.3576C20.025 14.3946 19.4711 16.903 17.6568 18.6758C15.8807 20.4864 13.6272 21.4483 10.6479 21.4483C5.10953 21.4483 0.46875 17.0161 0.46875 11.5655Z" fill="#002B31"></path>
    <path d="M27.4537 8.71767C23.8824 8.71767 20.9795 11.3958 20.9795 15.0924C20.9795 18.7702 23.8824 21.4672 27.4537 21.4672C31.025 21.4672 33.9279 18.7702 33.9279 15.0924C33.9279 11.3958 31.025 8.71767 27.4537 8.71767ZM27.4537 18.9399C25.5057 18.9399 23.806 17.3557 23.806 15.0736C23.806 12.7726 25.4866 11.2072 27.4537 11.2072C29.4017 11.2072 31.1014 12.7726 31.1014 15.0736C31.1014 17.3557 29.4017 18.9399 27.4537 18.9399Z" fill="#002B31"></path>
    <path d="M41.5865 8.71767C38.0152 8.71767 35.1123 11.3958 35.1123 15.0924C35.1123 18.7702 38.0152 21.4672 41.5865 21.4672C45.1578 21.4672 48.0607 18.7702 48.0607 15.0924C48.0607 11.3958 45.1578 8.71767 41.5865 8.71767ZM41.5865 18.9399C39.6385 18.9399 37.9388 17.3557 37.9388 15.0736C37.9388 12.7726 39.6194 11.2072 41.5865 11.2072C43.5536 11.2072 45.2342 12.7726 45.2342 15.0736C45.2342 17.3557 43.5345 18.9399 41.5865 18.9399Z" fill="#002B31"></path>
    <path d="M58.9277 9.09483V10.1321H58.8322C58.202 9.37774 56.9798 8.69877 55.4328 8.69877C52.2053 8.69877 49.2451 11.4901 49.2451 15.0924C49.2451 18.657 52.2053 21.4483 55.4328 21.4483C56.9798 21.4483 58.202 20.7694 58.8322 19.9961H58.9277V20.9202C58.9277 23.3532 57.61 24.6546 55.4901 24.6546C53.7522 24.6546 52.6827 23.4287 52.2435 22.3913L49.7799 23.4098C50.4865 25.1072 52.3772 27.1819 55.5092 27.1819C58.8323 27.1819 61.6396 25.2581 61.6396 20.543V9.09483H58.9277ZM55.6811 18.9399C53.7331 18.9399 52.0907 17.3179 52.0907 15.0924C52.0907 12.848 53.7331 11.2072 55.6811 11.2072C57.61 11.2072 59.1187 12.848 59.1187 15.0924C59.1378 17.3368 57.61 18.9399 55.6811 18.9399Z" fill="#002B31"></path>
    <path d="M66.4134 21.0711H63.5869V2.3428H66.4134V21.0711Z" fill="#002B31"></path>
    <path d="M74.1859 18.9399C72.7344 18.9399 71.7222 18.2798 71.0538 17.0162L79.6861 13.4893L79.3996 12.7726C78.8649 11.3392 77.2224 8.71767 73.8803 8.71767C70.5573 8.71767 67.7881 11.3015 67.7881 15.0924C67.7881 18.657 70.5191 21.4672 74.1859 21.4672C77.146 21.4672 78.8458 19.6755 79.5715 18.6382L77.3752 17.1859C76.6304 18.2421 75.6373 18.9399 74.1859 18.9399ZM73.9758 11.1695C75.1026 11.1695 76.0575 11.7165 76.363 12.5274L70.5955 14.885C70.5191 12.4331 72.5244 11.1695 73.9758 11.1695Z" fill="#002B31"></path>
    <path d="M92.5894 3.51074C93.4171 3.51074 94.0959 3.64971 94.6257 3.92764L94.0048 5.91406C93.6075 5.71787 93.1605 5.61977 92.6639 5.61977C92.101 5.61977 91.6375 5.81596 91.2733 6.20834C90.9256 6.58437 90.7518 7.09119 90.7518 7.72881V9.24928H93.9303V11.3093H90.7518V21.2659H88.4672V11.3093H86.1826V9.24928H88.4672V7.5081C88.4672 6.31461 88.848 5.35001 89.6095 4.6143C90.3876 3.87859 91.3809 3.51074 92.5894 3.51074Z" fill="#002B31"></path>
    <path d="M94.6729 15.2576C94.6729 13.4102 95.2606 11.8815 96.436 10.6717C97.6279 9.46185 99.1261 8.85693 100.931 8.85693C102.735 8.85693 104.225 9.46185 105.4 10.6717C106.592 11.8815 107.188 13.4102 107.188 15.2576C107.188 17.1214 106.592 18.6501 105.4 19.8435C104.225 21.0534 102.735 21.6583 100.931 21.6583C99.1261 21.6583 97.6279 21.0534 96.436 19.8435C95.2606 18.6337 94.6729 17.1051 94.6729 15.2576ZM96.9574 15.2576C96.9574 16.5492 97.3382 17.5955 98.0997 18.3966C98.8613 19.1977 99.8049 19.5983 100.931 19.5983C102.056 19.5983 103 19.1977 103.762 18.3966C104.523 17.5955 104.904 16.5492 104.904 15.2576C104.904 13.9824 104.523 12.9442 103.762 12.1431C102.983 11.3257 102.04 10.9169 100.931 10.9169C99.8214 10.9169 98.8778 11.3257 98.0997 12.1431C97.3382 12.9442 96.9574 13.9824 96.9574 15.2576Z" fill="#002B31"></path>
    <path d="M111.33 21.2658H109.045V9.24921H111.23V11.2111H111.33C111.561 10.5735 112.033 10.034 112.745 9.59254C113.473 9.13477 114.185 8.90588 114.881 8.90588C115.543 8.90588 116.106 9.00398 116.569 9.20017L115.874 11.3828C115.592 11.2683 115.145 11.2111 114.533 11.2111C113.672 11.2111 112.919 11.5544 112.273 12.2411C111.644 12.9278 111.33 13.7289 111.33 14.6444V21.2658Z" fill="#002B31"></path>
    <path d="M134.192 16.5818C134.192 18.1186 133.621 19.353 132.479 20.2849C131.32 21.2004 129.913 21.6582 128.257 21.6582C126.784 21.6582 125.484 21.2331 124.359 20.383C123.233 19.5328 122.455 18.3721 122.024 16.9006L124.21 16.0178C124.359 16.541 124.566 17.0151 124.83 17.4402C125.095 17.8652 125.402 18.2331 125.749 18.5437C126.113 18.838 126.511 19.0751 126.941 19.2549C127.372 19.4184 127.827 19.5001 128.307 19.5001C129.35 19.5001 130.203 19.2386 130.865 18.7154C131.527 18.1759 131.858 17.4647 131.858 16.5818C131.858 15.8461 131.585 15.2167 131.039 14.6935C130.525 14.1867 129.565 13.6962 128.158 13.2221C126.734 12.7153 125.849 12.3719 125.501 12.1921C123.614 11.2438 122.67 9.84599 122.67 7.99854C122.67 6.70696 123.192 5.60339 124.235 4.68784C125.294 3.77229 126.594 3.31451 128.133 3.31451C129.491 3.31451 130.666 3.65785 131.659 4.34451C132.653 5.01483 133.315 5.8568 133.646 6.87045L131.51 7.7533C131.312 7.09933 130.914 6.55981 130.318 6.13474C129.739 5.69331 129.027 5.4726 128.183 5.4726C127.289 5.4726 126.536 5.71784 125.923 6.20831C125.311 6.66608 125.004 7.26283 125.004 7.99854C125.004 8.60345 125.244 9.12662 125.724 9.56805C126.254 10.0095 127.405 10.5327 129.176 11.1376C130.981 11.7425 132.264 12.4864 133.025 13.3692C133.803 14.2357 134.192 15.3066 134.192 16.5818Z" fill="#002B31"></path>
    <path d="M140.732 21.4621C139.739 21.4621 138.911 21.1596 138.249 20.5547C137.603 19.9498 137.272 19.1078 137.256 18.0288V11.3093H135.12V9.24929H137.256V5.57074H139.54V9.24929H142.52V11.3093H139.54V17.2931C139.54 18.0942 139.698 18.6419 140.012 18.9361C140.327 19.2141 140.683 19.353 141.08 19.353C141.262 19.353 141.436 19.3367 141.601 19.304C141.783 19.2549 141.949 19.1977 142.098 19.1323L142.818 21.1433C142.222 21.3558 141.527 21.4621 140.732 21.4621Z" fill="#002B31"></path>
    <path d="M146.115 17.5874C146.115 18.1759 146.363 18.6664 146.86 19.0588C147.373 19.4512 147.969 19.6474 148.648 19.6474C149.608 19.6474 150.461 19.2958 151.206 18.5928C151.967 17.8898 152.348 17.0642 152.348 16.1159C151.636 15.5601 150.643 15.2821 149.368 15.2821C148.441 15.2821 147.663 15.5028 147.034 15.9443C146.421 16.3857 146.115 16.9334 146.115 17.5874ZM149.07 8.85693C150.759 8.85693 152.091 9.30653 153.068 10.2057C154.045 11.0886 154.533 12.3066 154.533 13.8598V21.2659H152.348V19.5983H152.249C151.305 20.9716 150.047 21.6583 148.474 21.6583C147.133 21.6583 146.007 21.2659 145.097 20.4812C144.203 19.6964 143.756 18.7154 143.756 17.5383C143.756 16.2958 144.228 15.3067 145.171 14.5709C146.131 13.8352 147.406 13.4674 148.996 13.4674C150.353 13.4674 151.47 13.7126 152.348 14.2031V13.6881C152.348 12.9033 152.033 12.2412 151.404 11.7017C150.775 11.1458 150.038 10.8679 149.194 10.8679C147.919 10.8679 146.91 11.3992 146.165 12.4619L144.153 11.2112C145.262 9.64169 146.901 8.85693 149.07 8.85693Z" fill="#002B31"></path>
    <path d="M171.363 21.4621C170.37 21.4621 169.542 21.1596 168.88 20.5547C168.234 19.9498 167.903 19.1078 167.887 18.0288V11.3093H165.751V9.24929H167.887V5.57074H170.171V9.24929H173.151V11.3093H170.171V17.2931C170.171 18.0942 170.329 18.6419 170.643 18.9361C170.958 19.2141 171.314 19.353 171.711 19.353C171.893 19.353 172.067 19.3367 172.232 19.304C172.414 19.2549 172.58 19.1977 172.729 19.1323L173.449 21.1433C172.853 21.3558 172.158 21.4621 171.363 21.4621ZM157.109 9.24929H159.295V11.2112H159.394C160.073 9.67436 161.472 8.90596 163.591 8.90596L164.062 8.955V11.3093L163.044 11.2112C161.985 11.2112 161.107 11.5382 160.412 12.1921C159.733 12.8297 159.394 13.6472 159.394 14.6445V21.2659H157.109V9.24929Z" fill="#002B31"></path>
    <path d="M186.023 21.2659H183.838V19.5983H183.739C183.391 20.1868 182.853 20.6773 182.125 21.0697C181.413 21.4621 180.668 21.6582 179.89 21.6582C178.4 21.6582 177.249 21.2413 176.438 20.4075C175.643 19.5574 175.246 18.3557 175.246 16.8026V9.24927H177.531V16.6554C177.58 18.6173 178.582 19.5983 180.535 19.5983C181.446 19.5983 182.207 19.2386 182.82 18.5192C183.433 17.7835 183.739 16.9088 183.739 15.8952V9.24927H186.023V21.2659Z" fill="#002B31"></path>
    <path d="M194.789 19.5983C195.881 19.5983 196.8 19.1896 197.545 18.3721C198.29 17.571 198.662 16.5328 198.662 15.2576C198.662 13.9987 198.29 12.9606 197.545 12.1431C196.8 11.3257 195.881 10.9169 194.789 10.9169C193.679 10.9169 192.752 11.3257 192.007 12.1431C191.279 12.9606 190.915 13.9987 190.915 15.2576C190.915 16.5328 191.279 17.5792 192.007 18.3966C192.752 19.1977 193.679 19.5983 194.789 19.5983ZM195.161 21.6583C194.267 21.6583 193.448 21.4703 192.703 21.0942C191.974 20.7182 191.411 20.2196 191.014 19.5983H190.915L191.014 21.2659V26.563H188.729V9.24931H190.915V10.9169H191.014C191.411 10.2957 191.974 9.79701 192.703 9.42098C193.448 9.04495 194.267 8.85693 195.161 8.85693C196.767 8.85693 198.124 9.4782 199.234 10.7207C200.376 11.9796 200.947 13.4919 200.947 15.2576C200.947 17.0397 200.376 18.552 199.234 19.7945C198.124 21.037 196.767 21.6583 195.161 21.6583Z" fill="#002B31"></path>
    <path d="M212.206 17.9307C212.206 18.977 211.743 19.8599 210.816 20.5793C209.889 21.2986 208.722 21.6583 207.314 21.6583C206.089 21.6583 205.013 21.3477 204.086 20.7264C203.159 20.0888 202.497 19.255 202.1 18.225L204.136 17.3666C204.434 18.086 204.864 18.6501 205.427 19.0588C206.007 19.4512 206.636 19.6474 207.314 19.6474C208.043 19.6474 208.647 19.492 209.127 19.1814C209.624 18.8708 209.872 18.5029 209.872 18.0778C209.872 17.3094 209.276 16.7454 208.084 16.3857L205.998 15.8707C203.631 15.2821 202.447 14.154 202.447 12.4864C202.447 11.391 202.894 10.5164 203.788 9.8624C204.699 9.19209 205.858 8.85693 207.265 8.85693C208.341 8.85693 209.309 9.11034 210.17 9.61717C211.048 10.124 211.66 10.8025 212.008 11.6526L209.971 12.4864C209.74 11.9796 209.359 11.5872 208.829 11.3093C208.316 11.015 207.737 10.8679 207.091 10.8679C206.495 10.8679 205.957 11.015 205.477 11.3093C205.013 11.6036 204.782 11.9633 204.782 12.3883C204.782 13.075 205.435 13.5655 206.743 13.8598L208.581 14.3257C210.998 14.9143 212.206 16.1159 212.206 17.9307Z" fill="#002B31"></path>
  </g>
  <defs>
    <clipPath id="clip0_51_238">
      <rect width="225.281" height="27" fill="white" transform="translate(0.0615234 0.834991)"></rect>
    </clipPath>
  </defs>
</svg>
