<svg width="80" height="80" viewBox="0 0 80 80" fill="none" xmlns="http://www.w3.org/2000/svg">
<path d="M58.5471 65.1428H57.817V57.0971C57.817 53.108 55.672 49.3976 52.2174 47.4107C50.5841 46.4624 49.3123 45.0624 48.5445 43.3541C47.5737 41.2166 47.5737 38.7705 48.5445 36.6407C49.3123 34.9323 50.5841 33.5247 52.2174 32.584C55.6721 30.5972 57.817 26.8866 57.817 22.8977V14.8519H58.5471C61.264 14.8519 63.4767 12.6392 63.4767 9.92225C63.4767 7.21277 61.264 5 58.5471 5H21.457C18.7401 5 16.5273 7.21277 16.5273 9.92225C16.5273 12.6392 18.7401 14.8519 21.457 14.8519H22.1871V22.8977C22.1871 24.862 22.7064 26.7963 23.685 28.4898C24.671 30.1907 26.0935 31.6058 27.7867 32.5842C29.4201 33.525 30.6919 34.9324 31.4596 36.6408C32.4305 38.7708 32.4305 41.2167 31.4596 43.3542C30.6919 45.0626 29.42 46.4625 27.7867 47.4108C26.0932 48.3817 24.6707 49.7967 23.685 51.5052C22.7066 53.1987 22.1871 55.1328 22.1871 57.0973V65.1431H21.457C18.7401 65.1431 16.5273 67.3558 16.5273 70.0727C16.5273 72.7822 18.7401 74.995 21.457 74.995H58.5471C61.264 74.995 63.4767 72.7822 63.4767 70.0653C63.4767 67.3484 61.264 65.1433 58.5471 65.1433V65.1428ZM55.5591 65.1428H52.2174C51.6528 59.897 47.2047 55.8028 41.8084 55.8028H38.1957C32.7992 55.8028 28.3509 59.8971 27.7867 65.1428H24.445L24.4447 57.0971C24.4447 55.5316 24.8587 53.9887 25.6415 52.6339C26.4318 51.2716 27.5607 50.1427 28.9156 49.3675C30.9626 48.1858 32.5508 46.4246 33.5217 44.2872C34.756 41.5626 34.756 38.4318 33.5217 35.7073C32.5509 33.5699 30.9629 31.8087 28.9156 30.627C27.561 29.8518 26.4318 28.7152 25.6415 27.3606C24.8587 26.006 24.4447 24.4631 24.4447 22.8974V14.8517H55.5588V22.8974C55.5588 26.0811 53.8427 29.0392 51.0882 30.627C49.0409 31.8087 47.4455 33.5699 46.482 35.7073C45.2478 38.4319 45.2478 41.5627 46.482 44.2872C47.4528 46.4246 49.0409 48.1858 51.0882 49.3675C53.8427 50.948 55.5588 53.9134 55.5588 57.0971L55.5591 65.1428Z" fill="#007DFC"/>
<path d="M50.2879 22.9002V21.252C50.2879 20.6274 49.7835 20.123 49.159 20.123H30.8399C30.2151 20.123 29.7109 20.6274 29.7109 21.252V22.9002C29.7109 23.5399 29.8764 24.1721 30.1925 24.7141C30.5161 25.2787 30.9902 25.7452 31.5549 26.0687C34.5579 27.8073 36.8985 30.3887 38.3137 33.5348C38.5471 34.0467 38.7502 34.5736 38.9234 35.108C39.0814 35.567 39.5103 35.8831 39.9995 35.8831C40.4888 35.8831 40.9179 35.567 41.0682 35.108C41.2414 34.5736 41.452 34.0543 41.6779 33.5425C43.1004 30.3965 45.4487 27.8075 48.4594 26.0616C49.5884 25.4141 50.2882 24.2024 50.2882 22.9003L50.2879 22.9002Z" fill="#007DFC"/>
</svg>
