<svg width="70" height="70" viewBox="0 0 70 70" fill="none" xmlns="http://www.w3.org/2000/svg">
<path d="M52.5 55H17.5C14.7385 55 12.5 57.2385 12.5 60V65C12.5 67.7615 14.7385 70 17.5 70H52.5C55.2615 70 57.5 67.7615 57.5 65V60C57.5 57.2385 55.2615 55 52.5 55ZM31.25 63.75H18.75C18.0591 63.75 17.5 63.1909 17.5 62.5C17.5 61.8091 18.0591 61.25 18.75 61.25H31.25C31.9409 61.25 32.5 61.8091 32.5 62.5C32.5 63.1909 31.9409 63.75 31.25 63.75ZM42.5 65C41.1193 65 40 63.8807 40 62.5C40 61.1193 41.1193 60 42.5 60C43.8807 60 45 61.1193 45 62.5C45 63.8807 43.8807 65 42.5 65ZM50 65C48.6193 65 47.5 63.8807 47.5 62.5C47.5 61.1193 48.6193 60 50 60C51.3807 60 52.5 61.1193 52.5 62.5C52.5 63.8807 51.3807 65 50 65Z" fill="#007DFC"/>
<path d="M52.5 37.5H17.5C14.7385 37.5 12.5 39.7385 12.5 42.5V47.5C12.5 50.2615 14.7385 52.5 17.5 52.5H52.5C55.2615 52.5 57.5 50.2615 57.5 47.5V42.5C57.5 39.7385 55.2615 37.5 52.5 37.5ZM31.25 46.25H18.75C18.0591 46.25 17.5 45.6909 17.5 45C17.5 44.3091 18.0591 43.75 18.75 43.75H31.25C31.9409 43.75 32.5 44.3091 32.5 45C32.5 45.6909 31.9409 46.25 31.25 46.25ZM42.5 47.5C41.1193 47.5 40 46.3807 40 45C40 43.6193 41.1193 42.5 42.5 42.5C43.8807 42.5 45 43.6193 45 45C45 46.3807 43.8807 47.5 42.5 47.5ZM50 47.5C48.6193 47.5 47.5 46.3807 47.5 45C47.5 43.6193 48.6193 42.5 50 42.5C51.3807 42.5 52.5 43.6193 52.5 45C52.5 46.3807 51.3807 47.5 50 47.5Z" fill="#007DFC"/>
<path d="M55.0007 12.4999C53.9202 12.4999 52.8687 12.6197 51.853 12.8367C49.8095 5.43933 43.0483 0 35.0003 0C26.9523 0 20.1917 5.43907 18.1477 12.8367C17.1321 12.6197 16.0805 12.4999 15 12.4999C6.71533 12.4999 0 19.2153 0 27.4999C0 34.0601 4.2182 39.622 10.0847 41.6593C10.5089 37.9231 13.6519 35.0001 17.5 35.0001H27.5V25.0001H22.3739C21.7948 27.8527 19.2737 30.0001 16.25 30.0001C12.7982 30.0001 10 27.2017 10 23.7501C10 20.2983 12.7982 17.5001 16.25 17.5001C19.2737 17.5001 21.7948 19.6473 22.3739 22.5001H27.5C28.8807 22.5001 30 23.6194 30 25.0001V35.0001H40V25.0001C40 23.6194 41.1193 22.5001 42.5 22.5001H47.6261C48.2052 19.6473 50.7263 17.5001 53.75 17.5001C57.2018 17.5001 60 20.2983 60 23.7501C60 27.2017 57.2018 30.0001 53.75 30.0001C50.7263 30.0001 48.2052 27.8527 47.6261 25.0001H42.5V35.0001H52.5C56.3479 35.0001 59.4907 37.9231 59.9153 41.6593C65.782 39.6223 70 34.0606 70 27.4999C70 19.2153 63.2847 12.4999 55 12.4999H55.0007Z" fill="#007DFC"/>
</svg>
