<?xml version="1.0" standalone="no"?>
<!DOCTYPE svg PUBLIC "-//W3C//DTD SVG 20010904//EN"
 "http://www.w3.org/TR/2001/REC-SVG-20010904/DTD/svg10.dtd">
<svg version="1.0" xmlns="http://www.w3.org/2000/svg"
 width="1024.000000pt" height="1024.000000pt" viewBox="0 0 1024.000000 1024.000000"
 preserveAspectRatio="xMidYMid meet">
<metadata>
Created by potrace 1.14, written by Peter Selinger 2001-2017
</metadata>
<g transform="translate(0.000000,1024.000000) scale(0.100000,-0.100000)"
fill="#000000" stroke="none">
<path d="M4125 9670 c-38 -3 -87 -6 -108 -5 -20 0 -37 -2 -37 -5 0 -4 -10 -6
-22 -7 -32 0 -170 -17 -233 -27 -16 -3 -50 -8 -75 -11 -25 -3 -51 -8 -58 -11
-7 -2 -59 -13 -115 -25 -56 -11 -151 -34 -212 -51 -60 -17 -119 -32 -130 -35
-11 -3 -29 -8 -40 -13 -11 -4 -78 -28 -150 -51 -71 -24 -133 -48 -136 -52 -3
-5 -9 -8 -13 -8 -8 1 -32 -8 -85 -30 -24 -11 -50 -19 -57 -19 -8 0 -14 -4 -14
-10 0 -5 -3 -9 -7 -8 -16 3 -153 -61 -165 -77 -4 -5 -8 -7 -8 -3 0 8 -141 -65
-265 -138 -22 -13 -47 -27 -55 -31 -8 -4 -26 -14 -40 -24 -14 -9 -65 -43 -114
-74 -49 -32 -94 -61 -100 -66 -6 -6 -40 -31 -76 -56 -243 -173 -517 -425 -738
-678 -53 -60 -226 -282 -259 -332 -7 -10 -34 -49 -61 -88 -26 -38 -73 -110
-102 -160 -30 -49 -59 -93 -65 -97 -5 -4 -6 -8 -2 -8 5 0 0 -12 -11 -27 -20
-30 -24 -37 -113 -214 -87 -175 -227 -519 -244 -601 -2 -9 -9 -27 -16 -40 -7
-13 -11 -24 -10 -26 1 -1 -5 -28 -14 -60 -10 -31 -19 -65 -21 -76 -2 -10 -10
-42 -18 -70 -8 -28 -17 -62 -20 -76 -2 -14 -9 -45 -15 -70 -7 -25 -14 -63 -17
-85 -3 -22 -9 -56 -14 -75 -5 -19 -12 -58 -15 -86 -3 -28 -7 -60 -9 -71 -6
-27 -18 -121 -21 -158 -2 -16 -7 -75 -11 -130 -13 -147 -8 -730 6 -730 0 0 3
-20 5 -45 11 -112 14 -139 24 -205 6 -38 13 -80 15 -91 2 -12 7 -37 10 -55 10
-62 17 -94 26 -129 5 -19 11 -47 14 -62 2 -15 7 -32 10 -36 3 -5 8 -24 10 -43
3 -19 19 -81 36 -139 17 -58 33 -109 34 -115 2 -5 5 -17 8 -25 3 -8 18 -51 33
-95 15 -44 30 -89 35 -100 4 -11 16 -40 25 -65 9 -25 23 -61 32 -80 8 -19 19
-44 23 -55 27 -67 174 -361 184 -367 6 -4 8 -8 3 -8 -4 0 4 -18 18 -40 14 -22
25 -44 25 -50 0 -5 5 -10 10 -10 6 0 10 -4 10 -9 0 -25 222 -359 317 -476 157
-194 194 -236 353 -396 134 -135 199 -196 295 -274 27 -22 57 -48 67 -58 10
-9 22 -17 27 -17 5 0 11 -3 13 -8 3 -8 76 -67 114 -92 12 -8 52 -36 89 -63 36
-26 70 -47 75 -47 4 0 10 -4 12 -8 2 -4 35 -27 73 -51 l70 -44 -145 144 c-153
153 -183 184 -270 289 -30 36 -57 67 -60 70 -3 3 -42 55 -88 115 -45 61 -86
115 -90 120 -5 6 -17 24 -28 40 -10 17 -22 35 -27 40 -32 41 -187 299 -224
374 -15 31 -30 58 -33 61 -5 5 -42 80 -45 90 -1 3 -18 41 -39 85 -21 44 -41
89 -46 100 -4 11 -17 41 -29 67 -12 26 -21 50 -21 52 0 2 -6 19 -14 37 -8 19
-14 36 -15 39 0 3 -12 37 -27 75 -49 129 -115 354 -138 473 -3 13 -7 31 -10
40 -5 17 -7 25 -25 122 -6 30 -13 69 -16 85 -14 74 -25 145 -24 152 1 4 0 10
-1 13 -1 3 -3 19 -5 35 -2 17 -6 50 -9 75 -28 209 -28 811 -1 949 2 14 7 50
10 80 2 31 6 65 9 76 2 11 7 40 10 65 3 25 8 56 11 70 3 14 7 36 10 50 3 14 8
39 12 55 3 17 7 40 7 53 1 12 5 22 10 22 5 0 7 3 4 6 -3 3 10 65 29 137 19 73
36 139 38 147 2 8 21 67 41 130 21 63 38 117 39 120 6 20 68 175 86 217 11 24
19 45 19 48 0 3 7 19 15 35 8 16 16 33 16 37 0 5 9 22 20 39 10 17 19 38 19
47 0 8 3 17 8 19 4 2 30 48 57 103 28 55 60 114 72 132 12 18 20 33 18 33 -7
0 147 245 156 248 5 2 9 8 9 13 0 17 233 329 294 395 6 6 36 40 66 75 101 118
323 333 450 438 36 30 67 57 70 60 3 4 23 20 45 36 22 16 56 42 75 58 19 15
40 32 47 37 38 31 295 197 388 252 112 66 346 185 445 227 30 13 69 29 85 36
40 18 277 107 290 109 6 1 15 4 20 8 13 7 78 22 88 20 4 -1 7 3 7 10 0 6 3 9
6 5 3 -3 18 -1 32 4 49 19 347 91 427 104 28 4 85 14 115 20 60 11 98 17 145
20 28 3 60 7 72 9 65 14 219 20 473 21 242 0 492 -10 510 -20 3 -2 30 -6 60
-10 161 -21 190 -26 450 -80 14 -3 59 -15 100 -26 41 -11 82 -22 90 -24 8 -2
40 -11 70 -20 30 -9 61 -17 68 -17 6 -1 12 -6 12 -11 0 -6 3 -8 6 -5 3 4 42
-7 87 -24 45 -16 88 -30 95 -30 6 -1 12 -6 12 -11 0 -6 3 -8 6 -5 14 15 411
-166 584 -265 123 -71 129 -74 97 -43 -15 14 -30 26 -32 26 -2 0 -17 12 -33
28 -16 15 -44 39 -63 54 -31 24 -64 50 -96 78 -7 5 -16 10 -22 10 -5 0 -11 4
-13 8 -4 11 -247 182 -258 182 -5 0 -15 6 -22 13 -18 17 -117 77 -128 77 -5 0
-10 3 -12 8 -3 8 -73 48 -158 90 -30 15 -56 30 -58 35 -2 4 -8 7 -12 7 -5 0
-53 21 -107 47 -54 25 -98 45 -98 43 0 -2 -13 3 -30 12 -16 9 -46 23 -65 31
-86 37 -116 49 -130 52 -8 2 -66 22 -127 44 -62 22 -113 38 -113 35 0 -4 -7
-1 -15 6 -8 6 -24 13 -37 15 -13 2 -75 18 -138 35 -63 17 -122 33 -131 35 -9
2 -60 13 -113 24 -53 12 -113 23 -134 26 -20 2 -50 8 -67 11 -16 4 -43 8 -60
9 -16 2 -48 6 -70 9 -38 6 -72 10 -195 21 -85 8 -556 12 -635 5z"/>
<path d="M4400 8694 c-121 -42 -274 -101 -335 -129 -63 -29 -272 -133 -305
-152 -19 -11 -62 -35 -95 -53 -33 -18 -72 -41 -87 -51 -14 -11 -29 -19 -32
-19 -3 0 -41 -25 -85 -55 -44 -30 -82 -55 -86 -55 -4 0 -12 -6 -20 -12 -7 -7
-25 -22 -41 -33 -41 -29 -266 -205 -289 -226 -89 -81 -122 -112 -205 -194 -52
-51 -124 -126 -160 -166 -36 -40 -72 -80 -80 -89 -8 -9 -37 -43 -63 -75 -26
-33 -54 -67 -60 -75 -7 -8 -42 -55 -77 -105 -36 -49 -68 -91 -72 -93 -5 -2 -8
-8 -8 -13 0 -10 -35 -62 -58 -87 -6 -7 -12 -19 -12 -27 0 -7 -4 -15 -8 -17
-22 -8 -203 -345 -290 -538 -23 -53 -92 -220 -96 -235 -2 -5 -5 -17 -8 -25 -3
-8 -13 -37 -23 -65 -9 -27 -19 -57 -22 -65 -3 -8 -7 -19 -8 -25 -5 -20 -46
-161 -52 -175 -3 -8 -7 -22 -8 -30 -1 -8 -9 -42 -18 -75 -9 -33 -19 -76 -22
-95 -3 -19 -8 -43 -11 -52 -6 -20 -12 -51 -19 -98 -3 -20 -7 -45 -9 -55 -2
-11 -7 -40 -11 -65 -3 -25 -8 -56 -10 -70 -3 -14 -7 -52 -10 -85 -3 -33 -8
-78 -10 -100 -3 -22 -7 -89 -10 -150 -2 -60 -5 -112 -5 -115 -8 -41 12 -498
24 -555 2 -11 7 -49 10 -85 4 -36 10 -78 13 -95 4 -16 7 -37 8 -45 4 -47 74
-365 87 -400 6 -14 11 -34 13 -45 5 -28 38 -138 64 -210 12 -33 24 -68 26 -77
2 -9 9 -26 15 -38 6 -12 13 -29 15 -38 1 -9 29 -78 61 -152 109 -253 242 -496
392 -714 57 -84 202 -277 214 -286 3 -3 21 -23 38 -45 80 -101 302 -329 420
-431 25 -22 50 -43 56 -49 6 -5 29 -25 52 -43 23 -19 50 -41 61 -50 10 -10 29
-24 41 -32 12 -8 32 -23 43 -34 12 -10 42 -32 67 -49 25 -17 47 -33 50 -36 5
-6 107 -74 142 -96 9 -5 42 -26 73 -45 90 -55 164 -97 245 -137 41 -21 77 -41
80 -44 3 -3 21 -13 40 -22 19 -8 64 -28 100 -44 36 -17 108 -47 160 -68 52
-20 104 -41 115 -45 35 -15 139 -52 155 -55 8 -2 31 -9 50 -15 62 -20 278 -78
318 -86 12 -2 32 -6 45 -8 171 -34 267 -51 352 -61 210 -25 236 -26 495 -27
214 -1 335 3 445 16 22 3 65 7 95 10 30 3 66 8 80 11 13 2 42 7 65 10 37 5 51
8 115 20 14 3 36 7 50 10 14 3 36 7 50 10 44 10 65 15 87 19 25 5 210 54 231
61 7 3 16 5 20 6 4 0 13 5 20 11 6 6 12 8 12 4 0 -3 12 -1 28 5 15 6 34 12 42
14 8 2 26 8 40 14 23 10 22 10 -10 6 -301 -37 -346 -40 -635 -39 -241 0 -419
8 -479 20 -12 2 -43 7 -71 10 -27 3 -72 9 -100 14 -27 5 -66 12 -85 14 -42 7
-87 15 -160 32 -14 3 -34 7 -45 9 -11 1 -49 11 -85 20 -36 10 -71 18 -77 18
-7 0 -13 3 -13 6 0 4 -10 7 -23 9 -36 3 -384 119 -452 152 -11 5 -49 21 -85
36 -72 29 -335 159 -390 192 -19 12 -42 25 -50 29 -68 31 -448 287 -480 323
-3 3 -33 28 -67 54 -35 27 -63 54 -63 59 0 6 -3 8 -6 4 -11 -11 -343 312 -455
443 -35 41 -67 77 -71 78 -5 2 -8 10 -8 18 0 8 -4 14 -8 14 -14 0 -242 310
-242 329 0 5 -4 11 -9 13 -7 3 -59 85 -151 239 -25 43 -164 323 -195 394 -7
17 -20 46 -29 67 -9 20 -16 40 -16 45 0 4 -6 20 -14 34 -13 26 -113 316 -120
348 -2 9 -6 23 -9 31 -4 8 -9 26 -11 40 -3 14 -16 69 -31 122 -14 54 -27 110
-29 125 -3 16 -14 80 -25 143 -35 201 -51 337 -57 495 -1 50 -3 90 -4 90 -1 0
-2 15 -3 33 -1 17 3 32 8 32 7 0 7 3 0 8 -12 8 -14 132 -2 132 4 0 4 7 -1 16
-5 8 -6 35 -2 60 4 24 3 44 -2 44 -5 0 -6 5 -2 12 5 7 9 28 9 48 3 69 17 235
20 240 1 3 6 32 9 65 6 54 11 86 31 190 4 17 8 45 10 63 2 18 7 42 10 53 4 10
8 31 11 46 21 121 137 499 196 638 16 39 29 71 29 72 3 20 13 43 20 43 5 0 8
3 7 8 0 4 2 16 6 27 18 47 152 314 192 382 24 41 44 77 44 80 0 2 14 24 30 48
17 24 30 48 30 54 0 6 4 11 9 11 5 0 12 8 15 18 3 9 17 30 31 46 13 16 22 33
19 37 -3 5 -2 9 3 9 4 0 19 17 33 37 41 61 123 168 132 171 4 2 8 8 8 14 0 5
6 15 13 22 6 7 28 32 47 56 141 171 327 362 490 502 85 73 95 81 130 108 18
14 38 30 44 36 6 5 54 40 106 78 52 37 103 74 113 82 9 7 19 14 22 14 3 0 28
16 55 35 27 19 52 35 56 35 3 0 24 13 47 29 23 15 89 54 147 85 89 48 137 79
120 75 -3 0 -61 -21 -130 -45z"/>
<path d="M4506 6623 c-1 -2 -25 -5 -52 -8 -84 -10 -260 -65 -275 -88 -3 -5
-10 -9 -15 -9 -16 -1 -54 -21 -54 -29 0 -4 -8 -10 -19 -14 -32 -10 -131 -117
-172 -186 -41 -69 -65 -144 -74 -230 -3 -28 -7 -55 -11 -60 -3 -5 -2 -9 3 -9
4 0 9 -26 10 -58 2 -56 25 -153 44 -182 5 -8 12 -22 16 -30 37 -85 138 -186
246 -247 52 -29 186 -93 195 -93 4 0 36 -11 72 -24 36 -13 112 -41 170 -61
193 -68 280 -105 280 -117 0 -5 6 -8 13 -8 17 0 85 -67 103 -102 8 -15 12 -28
8 -28 -4 0 -2 -6 3 -12 14 -20 5 -107 -17 -148 -47 -91 -160 -143 -320 -145
-47 0 -94 2 -105 6 -11 4 -29 11 -40 15 -11 4 -26 8 -33 10 -66 13 -221 157
-276 257 l-37 66 -42 -13 c-23 -7 -55 -19 -72 -26 -37 -15 -61 -25 -100 -39
-16 -6 -43 -16 -60 -22 -16 -7 -32 -13 -35 -14 -3 0 -28 -10 -56 -20 l-50 -18
13 -39 c20 -58 71 -156 116 -222 40 -59 181 -206 198 -206 5 0 17 -8 27 -17
39 -37 209 -112 291 -128 11 -2 25 -6 30 -9 9 -6 154 -19 211 -19 52 0 245 18
245 23 0 1 10 3 23 6 12 2 48 13 80 24 31 11 62 22 67 23 27 8 117 60 161 93
70 54 120 110 164 184 38 65 85 195 75 210 -3 5 -1 11 3 14 15 9 6 197 -12
266 -51 188 -175 336 -366 436 -58 30 -153 74 -175 80 -12 3 -173 62 -195 71
-8 3 -20 7 -27 9 -25 5 -210 78 -253 100 -103 52 -141 117 -118 201 5 21 20
49 31 61 21 23 108 73 124 72 5 0 28 3 53 6 95 15 183 3 265 -37 68 -33 107
-68 157 -145 31 -47 35 -50 58 -41 14 5 30 11 35 12 13 3 249 83 303 102 40
15 42 18 37 44 -4 16 -20 57 -37 91 -110 228 -313 373 -578 414 -46 7 -248 13
-254 7z"/>
<path d="M5659 6571 c-1 -9 -2 -107 -3 -219 -1 -172 1 -203 14 -206 8 -2 152
-4 320 -4 l305 1 0 -41 c0 -23 3 -42 7 -42 4 0 5 -6 2 -14 -8 -21 -10 -306 -2
-306 4 0 5 -6 2 -14 -8 -21 -10 -306 -2 -306 4 0 5 -6 2 -14 -8 -21 -10 -306
-2 -306 4 0 5 -6 2 -14 -8 -21 -10 -306 -2 -306 4 0 5 -6 2 -14 -8 -22 -10
-306 -2 -306 4 0 4 -10 0 -22 -4 -13 -5 -41 -2 -63 l5 -40 220 1 c121 1 225 2
230 3 7 1 11 289 10 901 0 793 2 900 15 901 8 0 153 1 323 1 l307 1 0 222 0
221 -875 0 c-788 0 -875 -1 -876 -15z"/>
<path d="M7759 6576 c-1 -6 -2 -510 -3 -1119 -1 -729 2 -1111 9 -1116 8 -6
390 -8 443 -2 9 1 12 89 12 406 l0 405 220 0 220 0 22 -42 c12 -24 22 -45 23
-48 0 -3 6 -14 12 -25 6 -11 86 -168 178 -350 92 -181 173 -335 180 -340 12
-10 504 -15 506 -5 3 9 -86 198 -237 503 -24 48 -43 90 -44 92 -1 13 -56 120
-62 123 -5 2 -8 8 -8 13 0 4 -13 38 -30 74 -32 70 -36 85 -20 85 21 0 25 2 40
15 8 7 31 21 50 30 44 22 133 107 171 161 39 57 92 154 83 154 -3 0 -2 6 3 13
26 32 55 170 57 272 2 53 -15 194 -27 225 -3 8 -11 33 -17 55 -26 89 -80 176
-152 247 -41 40 -128 103 -128 92 0 -3 -6 -1 -13 5 -20 16 -143 61 -185 67
-20 3 -44 8 -52 11 -28 12 -1250 11 -1251 -1z m1181 -437 c125 -41 193 -194
156 -352 -24 -99 -66 -151 -149 -182 -43 -16 -86 -18 -385 -19 l-337 0 -3 282
-2 283 352 -4 c194 -2 360 -5 368 -8z"/>
<path d="M3129 3789 c11 -30 113 -232 121 -239 3 -3 18 -30 34 -60 16 -30 47
-81 68 -113 21 -32 38 -63 38 -68 0 -5 4 -9 9 -9 5 0 14 -13 21 -29 6 -16 19
-37 28 -48 28 -32 62 -82 62 -92 0 -5 4 -11 8 -13 4 -1 37 -41 72 -88 35 -47
69 -90 75 -96 5 -6 30 -35 55 -64 135 -160 284 -309 483 -485 7 -6 32 -26 57
-45 25 -19 47 -37 50 -41 18 -22 431 -309 445 -309 1 0 45 -24 98 -54 123 -70
338 -174 447 -216 47 -18 90 -37 95 -40 6 -4 28 -13 50 -19 22 -7 49 -16 60
-21 17 -7 149 -50 250 -80 50 -15 239 -62 260 -64 11 -2 34 -6 50 -10 72 -16
173 -33 298 -51 136 -19 303 -28 512 -29 226 0 378 8 520 28 17 3 57 8 90 11
33 4 63 9 66 11 4 2 24 6 45 9 45 6 44 5 184 35 93 20 189 44 315 82 22 6 45
12 50 14 6 1 40 13 78 27 37 15 67 24 67 20 0 -3 6 -1 13 4 6 5 35 18 62 28
28 10 68 26 90 35 22 10 81 35 130 55 50 21 93 43 96 48 3 5 8 8 10 7 6 -2
127 56 169 81 19 11 55 31 80 45 25 13 61 34 81 46 20 13 58 36 85 52 161 96
432 306 613 474 25 23 49 42 53 42 5 0 8 3 8 8 0 4 44 52 98 107 53 55 120
127 147 159 28 32 55 64 60 70 6 6 26 31 45 56 19 25 37 47 40 50 3 3 18 23
34 45 l29 40 -29 -25 c-26 -22 -72 -64 -125 -112 -10 -10 -22 -18 -25 -18 -4
0 -14 -8 -23 -18 -9 -10 -34 -31 -56 -47 -22 -17 -42 -33 -45 -36 -3 -3 -43
-34 -90 -67 -47 -34 -89 -65 -95 -70 -29 -24 -135 -92 -144 -92 -5 0 -11 -4
-13 -9 -1 -5 -57 -41 -123 -80 -66 -39 -131 -78 -145 -87 -14 -8 -37 -21 -52
-27 -16 -6 -28 -15 -28 -19 0 -4 -7 -8 -15 -8 -9 0 -34 -12 -58 -27 -23 -14
-44 -26 -47 -26 -3 0 -45 -19 -95 -43 -49 -23 -119 -54 -155 -69 -36 -14 -78
-32 -95 -40 -16 -7 -55 -22 -85 -33 -30 -11 -92 -33 -137 -50 -45 -16 -84 -28
-87 -24 -3 3 -6 0 -6 -7 0 -7 -4 -9 -10 -6 -5 3 -16 3 -22 -2 -7 -4 -15 -8
-18 -8 -3 -1 -32 -9 -65 -19 -33 -10 -68 -20 -77 -22 -10 -2 -26 -6 -35 -9
-41 -11 -180 -45 -201 -49 -12 -3 -30 -7 -40 -10 -9 -3 -33 -8 -52 -11 -19 -2
-57 -9 -85 -15 -47 -10 -62 -12 -152 -25 -21 -3 -49 -8 -63 -10 -50 -8 -142
-17 -294 -30 -32 -2 -61 -7 -63 -9 -3 -3 -16 -1 -29 4 -13 5 -26 6 -28 1 -4
-6 -481 -8 -481 -2 0 1 -40 4 -90 6 -49 2 -108 6 -130 9 -22 3 -62 8 -90 11
-58 7 -85 11 -140 20 -22 3 -53 8 -70 10 -63 9 -159 26 -164 30 -4 2 -26 6
-51 10 -25 4 -47 8 -51 10 -3 2 -20 7 -38 10 -17 3 -57 12 -89 21 -31 8 -64
17 -72 19 -8 2 -40 11 -70 20 -30 8 -62 17 -71 19 -9 3 -39 12 -65 21 -27 9
-53 18 -59 19 -5 1 -23 6 -40 13 -16 6 -64 23 -105 38 -41 14 -84 30 -95 35
-11 5 -60 25 -110 45 -49 21 -100 44 -112 51 -13 8 -23 12 -23 9 0 -3 -35 13
-77 35 -43 22 -83 40 -90 40 -6 0 -13 3 -15 8 -1 4 -34 23 -73 43 -215 110
-625 378 -711 464 -9 8 -18 15 -22 15 -4 0 -23 15 -43 33 -20 17 -58 50 -84
72 -86 72 -178 158 -295 276 -99 100 -148 152 -243 263 -10 12 -28 32 -41 46
-12 14 -59 75 -105 135 -46 61 -86 112 -88 115 -2 2 0 -7 6 -21z"/>
</g>
</svg>
