<svg width="512" height="512" viewBox="0 0 512 512" fill="none" xmlns="http://www.w3.org/2000/svg">
<path d="M157.665 320.606L89.3802 389.39C70.5191 408.391 70.5191 439.187 89.3802 458.188C108.227 477.175 138.804 477.175 157.665 458.188L294.263 320.606C313.124 301.605 313.124 270.809 294.263 251.808L157.665 114.226C138.804 95.2253 108.227 95.2253 89.3802 114.226C70.5191 133.227 70.5191 164.023 89.3802 183.024L157.665 251.808C176.54 270.809 176.54 301.605 157.665 320.606Z" fill="#00CDEE"/>
<path d="M87.3479 299.267L61.3692 325.417C54.2103 332.636 54.2103 344.349 61.3692 351.567C68.5281 358.786 80.1752 358.786 87.3479 351.567L139.25 299.267C146.423 292.049 146.423 280.336 139.25 273.117L87.3479 220.817C80.1752 213.598 68.5281 213.598 61.3692 220.817C54.2103 228.035 54.2103 239.748 61.3692 246.967L87.3479 273.117C94.493 280.336 94.493 292.049 87.3479 299.267Z" fill="#84E9FD"/>
<path d="M270.87 344.169L202.819 275.62C183.972 256.62 183.972 225.823 202.819 206.822L226.209 183.258L294.261 251.807C303.705 261.294 308.413 273.753 308.413 286.199C308.413 298.659 303.705 311.091 294.261 320.605L270.87 344.169Z" fill="#0B0757"/>
<path d="M354.304 191.832L422.603 123.035C441.477 104.048 441.477 73.2373 422.603 54.2505C403.742 35.2498 373.165 35.2498 354.304 54.2505L217.706 191.832C198.858 210.819 198.858 241.63 217.706 260.616L354.304 398.198C373.165 417.199 403.742 417.199 422.603 398.198C441.477 379.212 441.477 348.401 422.603 329.414L354.304 260.616C335.456 241.63 335.456 210.819 354.304 191.832Z" fill="#293FCC"/>
<path d="M424.665 213.156L450.63 187.006C457.789 179.787 457.789 168.075 450.63 160.856C443.457 153.637 431.824 153.637 424.665 160.856L372.735 213.156C365.562 220.375 365.562 232.088 372.735 239.306L424.665 291.606C431.824 298.825 443.457 298.825 450.63 291.606C457.789 284.388 457.789 272.675 450.63 265.456L424.665 239.306C417.492 232.088 417.492 220.375 424.665 213.156Z" fill="#8F9DF9"/>
</svg>
