<svg width="80" height="80" viewBox="0 0 80 80" fill="none" xmlns="http://www.w3.org/2000/svg">
<g clip-path="url(#clip0_1_6608)">
<path d="M39.3841 39.0151C39.3841 40.5105 38.1718 41.7229 36.6763 41.7229C35.181 41.7229 33.9688 40.5104 33.9688 39.0151C33.9688 37.5198 35.181 36.3076 36.6763 36.3076C38.1719 36.3076 39.3841 37.5199 39.3841 39.0151Z" fill="#007DFC"/>
<path d="M31.5054 55.0151C31.5054 56.5105 30.2929 57.7229 28.7976 57.7229C27.3024 57.7229 26.0898 56.5104 26.0898 55.0151C26.0898 53.5198 27.3024 52.3076 28.7976 52.3076C30.2929 52.3076 31.5054 53.5199 31.5054 55.0151Z" fill="#007DFC"/>
<path d="M48.1224 19.323C48.1224 20.8184 46.9098 22.0306 45.4146 22.0306C43.9192 22.0306 42.707 20.8183 42.707 19.323C42.707 17.8274 43.9193 16.6152 45.4146 16.6152C46.9099 16.6152 48.1224 17.8275 48.1224 19.323Z" fill="#007DFC"/>
<path d="M49.97 51.0767C49.97 52.5723 48.7578 53.7845 47.2622 53.7845C45.7669 53.7845 44.5547 52.5722 44.5547 51.0767C44.5547 49.5813 45.767 48.3691 47.2622 48.3691C48.7578 48.3691 49.97 49.5814 49.97 51.0767Z" fill="#007DFC"/>
<path d="M78.1522 32.123C78.8907 32.123 79.3829 31.6308 79.3829 30.8922C79.3829 30.1537 78.8907 29.6615 78.1522 29.6615H70.0289V23.0154H78.1522C78.8907 23.0154 79.3829 22.5232 79.3829 21.7847C79.3829 21.0462 78.8907 20.554 78.1522 20.554H70.0289V17.9693C70.0289 13.6615 66.4596 10.0926 62.0289 10.0926H59.4442V1.84597C59.4442 1.10743 58.952 0.615234 58.2135 0.615234C57.4749 0.615234 56.9827 1.10742 56.9827 1.84597V9.9693H50.3367V1.84597C50.3367 1.10743 49.8445 0.615234 49.1059 0.615234C48.3674 0.615234 47.8752 1.10742 47.8752 1.84597V9.9693H41.2291L41.2289 1.84597C41.2289 1.10743 40.7367 0.615234 39.9981 0.615234C39.2596 0.615234 38.7674 1.10742 38.7674 1.84597V9.9693H32.1213V1.84597C32.1213 1.10743 31.6292 0.615234 30.8906 0.615234C30.1521 0.615234 29.6599 1.10742 29.6599 1.84597V9.9693H23.0138L23.0135 1.84597C23.0135 1.10743 22.5214 0.615234 21.7828 0.615234C21.0443 0.615234 20.5521 1.10742 20.5521 1.84597V9.9693H17.9674C13.6596 9.9693 10.0907 13.5386 10.0907 17.846V20.4306H1.84408C1.10555 20.4306 0.613348 20.9228 0.613348 21.6614C0.613348 22.3999 1.10553 22.8921 1.84408 22.8921H9.96741V24.6153H19.4441L27.5674 18.0921H40.3674C40.9828 15.8768 42.9521 14.1536 45.4135 14.1536C48.2442 14.1536 50.5827 16.4921 50.5827 19.3228C50.5827 22.1536 48.2442 24.4921 45.4135 24.4921C42.952 24.4921 40.9827 22.7689 40.3674 20.5536H28.4287L20.3061 27.0768H9.96741V29.6614H1.84408C1.10555 29.6614 0.613348 30.1536 0.613348 30.8922C0.613348 31.6307 1.10553 32.1229 1.84408 32.1229H9.96741V33.8461H22.0287L25.4748 37.2922H31.8748C32.6133 35.3229 34.4595 33.8461 36.6748 33.8461C39.5055 33.8461 41.8441 36.1846 41.8441 39.0154C41.8441 41.8461 39.5055 44.1846 36.6748 44.1846C34.0901 44.1846 31.998 42.2154 31.6287 39.7539H24.4901L21.044 36.3078H9.96735V38.7693H1.84401C1.10548 38.7693 0.613281 39.2615 0.613281 40C0.613281 40.7386 1.10547 41.2308 1.84401 41.2308H9.96735V47.8768H1.84401C1.10548 47.8768 0.613281 48.369 0.613281 49.1076C0.613281 49.8461 1.10547 50.3383 1.84401 50.3383H9.96735V56.9844L1.84401 56.9846C1.10548 56.9846 0.613281 57.4768 0.613281 58.2154C0.613281 58.9539 1.10547 59.4461 1.84401 59.4461H9.96735V62.0308C9.96735 66.3386 13.5366 69.9074 17.844 69.9074H20.4287V78.0308C20.4287 78.7693 20.9209 79.2615 21.6594 79.2615C22.398 79.2615 22.8901 78.7693 22.8901 78.0308V69.9074H29.5362V78.0308C29.5362 78.7693 30.0284 79.2615 30.7669 79.2615C31.5055 79.2615 31.9977 78.7693 31.9977 78.0308V69.9074H38.6437V78.0308C38.6437 78.7693 39.1359 79.2615 39.8745 79.2615C40.613 79.2615 41.1052 78.7693 41.1052 78.0308V69.9074H47.7513V78.0308C47.7513 78.7693 48.2435 79.2615 48.982 79.2615C49.7206 79.2615 50.2127 78.7693 50.2127 78.0308V69.9074H56.8588V78.0308C56.8588 78.7693 57.351 79.2615 58.0895 79.2615C58.8281 79.2615 59.3203 78.7693 59.3203 78.0308V69.9074H61.9049C66.3357 69.9074 69.9049 66.3382 69.9049 62.0308V59.4461H78.0283C78.7668 59.4461 79.259 58.9539 79.259 58.2154C79.259 57.4768 78.7668 56.9846 78.0283 56.9846H69.9049V56.8615H55.1363L51.8131 60.1847H40.1211L36.3057 56.3693H33.8443C33.2289 58.5847 31.2596 60.3079 28.7982 60.3079C25.9675 60.3079 23.6289 57.9693 23.6289 55.1386C23.6289 52.3079 25.9675 49.9693 28.7982 49.9693C31.2597 49.9693 33.2289 51.6925 33.8443 53.9079H37.4135L41.2289 57.7232H50.8289L54.1521 54.4H70.0287V50.3385H78.1521C78.8906 50.3385 79.3828 49.8463 79.3828 49.1078C79.3828 48.3692 78.8906 47.877 78.1521 47.877H70.0287V45.0463H55.2594L51.6899 48.4922C52.1821 49.2307 52.4284 50.2154 52.4284 51.0769C52.4284 53.9076 50.0899 56.2461 47.2591 56.2461C44.4284 56.2461 42.0899 53.9076 42.0899 51.0769C42.0899 48.2461 44.4284 45.9076 47.2591 45.9076C48.2438 45.9076 49.1052 46.1537 49.9669 46.6461L54.3977 42.5846H70.1517V41.2307H78.275C79.0135 41.2307 79.5057 40.7385 79.5057 40C79.5057 39.2614 79.0136 38.7692 78.275 38.7692H70.1517V32.1232L78.1522 32.123ZM26.3369 62.6456C27.0754 62.6456 27.5676 63.1378 27.5676 63.8764C27.5676 64.6149 27.0754 65.1071 26.3369 65.1071H21.2908C17.8447 65.1071 14.8908 62.2764 14.8908 58.7071L14.8905 43.8151C14.8905 43.0766 15.3827 42.5844 16.1213 42.5844C16.8598 42.5844 17.352 43.0766 17.352 43.8151V58.7071C17.352 60.7993 19.0752 62.6456 21.2905 62.6456H26.3369ZM65.1062 32.4916C65.1062 33.2302 64.614 33.7224 63.8755 33.7224C63.1369 33.7224 62.6447 33.2302 62.6447 32.4916V21.1683C62.6447 19.0761 60.9215 17.2298 58.7062 17.2298H53.6601C52.9216 17.2298 52.4294 16.7376 52.4294 15.999C52.4294 15.2605 52.9216 14.7683 53.6601 14.7683H58.7062C62.1523 14.7683 65.1062 17.599 65.1062 21.1683V32.4916Z" fill="#007DFC"/>
</g>
<defs>
<clipPath id="clip0_1_6608">
<rect width="80" height="80" fill="white"/>
</clipPath>
</defs>
</svg>
