<svg width="80" height="80" viewBox="0 0 80 80" fill="none" xmlns="http://www.w3.org/2000/svg">
<path d="M40.3021 36.4215H10.4758V33.514H40.3021V36.4215ZM40.3021 38.2853H10.4758V41.1928H40.3021V38.2853ZM10.4758 46.0385H40.3021V43.131H10.4758V46.0385ZM71.1856 52.5989H59.7836V55.1337H71.2611L71.2613 52.5989H71.1856ZM71.1856 56.55H59.7836V59.0848H71.2611L71.2613 56.55H71.1856ZM3.00033 55.8045V55.4317V55.3572V49.2442V49.1697V15.5475C3.00033 13.0127 5.03896 11 7.60635 11H61.8978C64.4652 11 66.5038 13.0127 66.5038 15.5475V27.1774H62.7284V15.5475C62.7284 15.1003 62.3508 14.7275 61.8978 14.7275H7.60635C7.15335 14.7275 6.77581 15.1003 6.77581 15.5475V49.1697C6.77581 49.617 7.15336 49.9897 7.60635 49.9897H51.0999V59.7558L41.8122 59.7561C41.8122 60.6505 42.3407 64.7508 48.5326 65.4963H48.306C49.2877 65.4963 50.0428 66.3163 50.0428 67.2111C50.0428 68.1804 49.2877 68.9259 48.306 68.9259H21.1225C20.1407 68.9259 19.3856 68.1804 19.3856 67.2111C19.3856 66.2418 20.1407 65.4963 21.1225 65.4963H20.8959C27.0875 64.7508 27.6162 60.6505 27.6162 59.7561H7.07759C4.88774 59.7561 3.07545 58.0413 3 55.8796L3.00033 55.8045ZM32.5246 55.2827C32.5246 56.55 33.5064 57.5192 34.7899 57.5192C36.0734 57.5192 37.0552 56.55 37.0552 55.2827C37.0552 54.0155 36.0734 53.0462 34.7899 53.0462C33.5064 53.0462 32.5246 54.0155 32.5246 55.2827ZM58.2734 27.1772H59.104L59.1042 18.604H10.476V29.6374L52.8369 29.6372C54.1204 28.0717 56.0839 27.1771 58.2735 27.1771L58.2734 27.1772ZM51.1 34.185V33.514H44.5307V46.0384H51.0245V34.1849L51.1 34.185ZM71.1856 39.7018H59.7836V50.8098H71.2611L71.2613 39.7018H71.1856ZM58.2734 30.0102H72.7713C75.112 30.0102 76.9998 31.874 76.9998 34.185V36.8687L77 37.7635V64.8252C77 67.1362 75.1123 69 72.7715 69H58.2737C55.9329 69 54.0452 67.1362 54.0452 64.8252V34.185C53.9697 31.874 55.9329 30.0103 58.2737 30.0103L58.2734 30.0102ZM68.3917 66.1672C68.3917 65.5707 67.8632 65.0489 67.2591 65.0489H63.1815C62.5773 65.0489 62.0488 65.5707 62.0488 66.1672C62.0488 66.7637 62.5773 67.2854 63.1815 67.2854H67.2591C67.9387 67.2854 68.3917 66.7637 68.3917 66.1672ZM57.3673 35.676C57.2918 35.676 57.2918 35.676 57.3673 35.676V63.2597H73.6774V35.676H57.3673Z" fill="#007DFC"/>
</svg>
