<svg width="16" height="16" viewBox="0 0 16 16" fill="none" xmlns="http://www.w3.org/2000/svg">
<path d="M6.90483 10.0509C6.70483 10.2759 6.70483 10.6259 6.92983 10.8259C7.15483 11.0259 7.50483 11.0259 7.70483 10.8009C7.90483 10.5759 7.90483 10.2259 7.67983 10.0259C7.45483 9.82592 7.10483 9.82592 6.90483 10.0509Z" fill="white"/>
<path d="M8.97826 6.47475C9.17826 6.24975 9.17826 5.89975 8.95326 5.69975C8.72826 5.49975 8.37826 5.49975 8.17826 5.72475C7.97826 5.94975 7.97826 6.29975 8.20326 6.49975C8.40326 6.72475 8.75326 6.69975 8.97826 6.47475Z" fill="white"/>
<path d="M13.1539 1.82515L7.82881 2.40015C7.77881 2.40015 7.72881 2.42515 7.67881 2.47515L2.32881 8.27515C1.95381 8.70015 1.97881 9.35015 2.37881 9.72515L6.90387 13.9001C7.32887 14.2751 7.97887 14.2501 8.35387 13.8501L13.7039 8.05008C13.7289 8.00008 13.7539 7.95008 13.7539 7.90008L13.9039 2.55008C13.9539 2.12508 13.5789 1.77508 13.1539 1.82508V1.82515ZM7.65387 5.27515C8.10387 4.77515 8.87887 4.75015 9.37894 5.20015C9.87901 5.65015 9.90394 6.42515 9.45394 6.92522C9.00394 7.42528 8.22894 7.45022 7.72887 7.00022C7.22881 6.55022 7.20387 5.77522 7.65387 5.27515ZM8.20387 11.2751C7.75387 11.7752 6.97887 11.8001 6.47881 11.3502C5.97874 10.9001 5.95381 10.1251 6.40381 9.62508C6.85381 9.12502 7.62881 9.10008 8.12887 9.55008C8.62894 10.0001 8.65387 10.7751 8.20387 11.2751ZM11.2289 8.87515L4.57894 8.35015C4.50394 8.35015 4.42894 8.30015 4.37894 8.27515C4.30394 8.20015 4.25394 8.10015 4.27894 8.00015C4.30394 7.82515 4.45394 7.67515 4.62894 7.70015L11.2789 8.22515C11.4539 8.25015 11.6039 8.40015 11.5789 8.57515C11.5789 8.75015 11.4039 8.87515 11.2289 8.87515ZM13.0289 3.70022C12.7789 3.97522 12.3789 3.97522 12.1039 3.72522C11.8289 3.47522 11.8289 3.07522 12.0789 2.80022C12.3289 2.52522 12.7289 2.52522 13.0039 2.77522C13.2539 3.02522 13.2789 3.45022 13.0289 3.70022Z" fill="white"/>
</svg>
