<svg width="26" height="32" viewBox="0 0 26 32" fill="none" xmlns="http://www.w3.org/2000/svg">
<path fill-rule="evenodd" clip-rule="evenodd" d="M4.08934 4.29021C6.45244 1.92711 9.65744 0.599609 12.9993 0.599609C16.3412 0.599609 19.5463 1.92711 21.9093 4.29021C24.2724 6.65331 25.6 9.85831 25.6 13.2002C25.6 16.5421 24.2724 19.7471 21.9093 22.1102L12.9993 31.0202L4.08934 22.1102C2.91924 20.9402 1.99104 19.5511 1.35774 18.0223C0.724438 16.4935 0.398438 14.855 0.398438 13.2002C0.398438 11.5454 0.724438 9.90691 1.35774 8.37811C1.99104 6.84931 2.91924 5.46021 4.08934 4.29021ZM12.9993 16.8002C13.9541 16.8002 14.8698 16.4209 15.5449 15.7458C16.2201 15.0707 16.5993 14.155 16.5993 13.2002C16.5993 12.2454 16.2201 11.3298 15.5449 10.6546C14.8698 9.97951 13.9541 9.60021 12.9993 9.60021C12.0446 9.60021 11.1289 9.97951 10.4538 10.6546C9.77864 11.3298 9.39934 12.2454 9.39934 13.2002C9.39934 14.155 9.77864 15.0707 10.4538 15.7458C11.1289 16.4209 12.0446 16.8002 12.9993 16.8002Z" fill="#6100FF"/>
</svg>
