<svg width="48" height="48" viewBox="0 0 48 48" fill="none" xmlns="http://www.w3.org/2000/svg">
<circle cx="24" cy="24" r="20" fill="#9D60FB"/>
<path fill-rule="evenodd" clip-rule="evenodd" d="M18.7747 14.2839C18.7747 15.529 17.8267 16.5366 16.3442 16.5366C14.9194 16.5366 13.9713 15.529 14.0007 14.2839C13.9713 12.9783 14.9193 12 16.3726 12C17.8267 12 18.7463 12.9783 18.7747 14.2839ZM14.1199 32.8191V18.3162H18.6271V32.8181H14.1199V32.8191Z" fill="white"/>
<path fill-rule="evenodd" clip-rule="evenodd" d="M22.2403 22.9441C22.2403 21.1352 22.1807 19.593 22.1211 18.3177H26.0361L26.2442 20.3045H26.3331C26.9263 19.3849 28.4089 17.9922 30.8111 17.9922C33.7762 17.9922 36.0005 19.9497 36.0005 24.2186V32.8205H31.4932V24.7833C31.4932 22.9139 30.8413 21.6394 29.2102 21.6394C27.9642 21.6394 27.2234 22.4995 26.9273 23.3292C26.8081 23.6263 26.7494 24.0407 26.7494 24.4569V32.8205H22.2421V22.9441H22.2403Z" fill="white"/>
</svg>
