<svg width="221" height="34" viewBox="0 0 221 34" fill="none" xmlns="http://www.w3.org/2000/svg">
<path d="M51.0662 2.75977V13.2792C49.5602 11.8483 47.514 10.9669 45.2582 10.9669C40.637 10.9669 36.8906 14.6573 36.8906 19.2092C36.8906 23.7612 40.637 27.4516 45.2582 27.4516C49.6872 27.4516 53.311 24.0602 53.6032 19.7697L53.6256 19.7983V2.75977H51.0662ZM45.2582 24.9304C42.0494 24.9304 39.45 22.3698 39.45 19.2092C39.45 16.0486 42.0494 13.488 45.2582 13.488C48.4668 13.488 51.0662 16.0486 51.0662 19.2092C51.0662 22.3698 48.4668 24.9304 45.2582 24.9304Z" fill="white"/>
<path d="M103.266 10.9668C98.8366 10.9668 95.213 14.3582 94.9208 18.6486L94.8984 18.6201V32.799H97.4578V25.1392C98.9639 26.57 101.01 27.4514 103.266 27.4514C107.887 27.4514 111.633 23.761 111.633 19.2091C111.633 14.6572 107.887 10.9668 103.266 10.9668ZM103.266 24.9304C100.057 24.9304 97.4578 22.3698 97.4578 19.2091C97.4578 16.0485 100.057 13.4878 103.266 13.4878C106.475 13.4878 109.074 16.0485 109.074 19.2091C109.074 22.3698 106.475 24.9304 103.266 24.9304Z" fill="white"/>
<path d="M64.9639 10.9917C60.3563 10.9917 56.6211 14.6711 56.6211 19.2098C56.6211 23.7485 60.3563 27.4279 64.9639 27.4279C67.5165 27.4279 69.8015 26.2983 71.3299 24.5179L69.8081 22.7903C68.7037 24.2387 66.9453 25.1751 64.9639 25.1751C61.8803 25.1751 59.3365 22.9045 58.9573 19.9681H70.2991H71.3991H72.5995C72.6219 19.7176 72.6375 19.4648 72.6375 19.2098C72.6375 14.6711 69.5717 10.9917 64.9639 10.9917ZM59.0867 17.7724C59.7405 15.1722 62.1235 13.2446 64.9661 13.2446C67.8089 13.2446 69.5225 15.1722 70.1741 17.7724H59.0867Z" fill="white"/>
<path d="M83.8039 10.9917C79.1961 10.9917 75.4609 14.6711 75.4609 19.2098C75.4609 23.7485 79.1961 27.4279 83.8039 27.4279C86.3565 27.4279 88.6413 26.2983 90.1699 24.5179L88.6481 22.7903C87.5435 24.2387 85.7853 25.1751 83.8039 25.1751C80.7201 25.1751 78.1765 22.9045 77.7971 19.9681H89.1389H90.2391H91.4395C91.4617 19.7176 91.4775 19.4648 91.4775 19.2098C91.4775 14.6711 88.4115 10.9917 83.8039 10.9917ZM77.9265 17.7724C78.5803 15.1722 80.9633 13.2446 83.8061 13.2446C86.6489 13.2446 88.3625 15.1722 89.0141 17.7724H77.9265Z" fill="white"/>
<path d="M146.752 17.4063V27.2598H145.768V17.4063C145.768 15.8986 145.335 14.6809 144.471 13.7555C143.608 12.8302 142.454 12.3664 141.011 12.3664C139.522 12.3664 138.3 12.8412 137.338 13.7885C136.376 14.7358 135.894 15.9425 135.894 17.4063V27.2598H134.91V3.02734H135.894V14.2391C136.965 12.3642 138.683 11.4279 141.044 11.4279C142.794 11.4279 144.181 11.9774 145.21 13.0764C146.239 14.1753 146.752 15.6172 146.752 17.4063Z" fill="white"/>
<path d="M186.934 27.2598V3.02734H187.918V27.2598H186.934ZM189.886 18.5691L198.217 27.2598H196.905L188.54 18.5361L196.051 11.751H197.461L189.886 18.5691Z" fill="white"/>
<path d="M200.02 23.8949L200.808 23.3123C202.252 25.3367 203.978 26.3499 205.992 26.3499C207.15 26.3499 208.096 26.0753 208.828 25.5257C209.56 24.9763 209.926 24.2069 209.926 23.2157C209.86 22.2903 209.576 21.6001 209.074 21.1475C208.57 20.6947 207.662 20.1781 206.35 19.5956L204.974 18.9824C203.64 18.4 202.666 17.8197 202.056 17.2372C201.444 16.6548 201.136 15.9009 201.136 14.9756C201.136 13.7909 201.606 12.8655 202.546 12.1973C203.486 11.4874 204.612 11.1313 205.924 11.1313C207.87 11.1313 209.522 11.96 210.878 13.6194L210.158 14.2656C208.91 12.8018 207.478 12.0677 205.86 12.0677C204.812 12.0677 203.936 12.3204 203.236 12.826C202.536 13.3315 202.188 14.037 202.188 14.9426C202.21 15.3096 202.28 15.6261 202.402 15.8965C202.522 16.1668 202.624 16.3756 202.714 16.5273C202.8 16.679 203.036 16.8658 203.418 17.0922C203.8 17.3186 204.074 17.4702 204.238 17.545C204.402 17.6197 204.822 17.8197 205.5 18.1428L206.976 18.789C208.332 19.3715 209.336 19.9847 209.992 20.6309C210.648 21.2771 210.976 22.1167 210.976 23.1519C210.976 24.4443 210.484 25.4575 209.5 26.1895C208.538 26.9215 207.346 27.2885 205.924 27.2885C203.474 27.2885 201.506 26.1565 200.02 23.8949Z" fill="white"/>
<path d="M130.428 23.7719C129.1 25.3391 127.106 26.3349 124.872 26.3349C120.878 26.3349 117.64 23.1455 117.64 19.2112C117.64 15.2769 120.878 12.0877 124.872 12.0877C127.092 12.0877 129.078 13.0746 130.406 14.6263L131.124 14.0307C129.625 12.2789 127.382 11.1646 124.874 11.1646C120.36 11.1646 116.703 14.7692 116.703 19.2134C116.703 23.6599 120.363 27.2623 124.874 27.2623C127.402 27.2623 129.663 26.1303 131.16 24.3545L130.428 23.7719Z" fill="white"/>
<path d="M182.397 23.7719C181.069 25.3391 179.074 26.3349 176.841 26.3349C172.847 26.3349 169.609 23.1455 169.609 19.2112C169.609 15.2769 172.847 12.0877 176.841 12.0877C179.061 12.0877 181.047 13.0746 182.375 14.6263L183.093 14.0307C181.594 12.2789 179.351 11.1646 176.843 11.1646C172.329 11.1646 168.672 14.7692 168.672 19.2134C168.672 23.6599 172.331 27.2623 176.843 27.2623C179.371 27.2623 181.632 26.1303 183.129 24.3545L182.397 23.7719Z" fill="white"/>
<path d="M158.343 11.1577C153.829 11.1577 150.172 14.7624 150.172 19.2066C150.172 23.6509 153.831 27.2555 158.343 27.2555C160.882 27.2555 163.151 26.1147 164.651 24.3235L163.932 23.6949C162.609 25.2905 160.597 26.3103 158.343 26.3103C154.36 26.3103 151.131 23.1299 151.131 19.2066H164.662H165.28H165.622C165.622 14.7624 162.855 11.1577 158.343 11.1577ZM151.189 18.3186C151.633 14.8151 154.666 12.1028 158.343 12.1028C162.02 12.1028 164.16 14.8151 164.604 18.3186H151.189Z" fill="white"/>
<path d="M7.4861 15.0384L7.50842 15.0669C7.80296 10.7765 11.4244 7.38512 15.8536 7.38512C15.8558 7.38512 15.858 7.38512 15.858 7.38512C15.8603 7.38512 15.8625 7.38512 15.8625 7.38512C18.1184 7.38512 20.1668 8.26648 21.6706 9.69736V1.08579C19.8744 0.38684 17.9153 0 15.8647 0C7.10232 0 0 6.99608 0 15.6274C0 21.2278 2.99222 26.138 7.4861 28.8964V15.0384Z" fill="#00E6FF"/>
<path d="M24.2353 2.35156V16.2184L24.2129 16.1899C23.9207 20.4802 20.2971 23.8716 15.8678 23.8716C15.8656 23.8716 15.8634 23.8716 15.8634 23.8716C15.8612 23.8716 15.8589 23.8716 15.8589 23.8716C13.603 23.8716 11.5547 22.9904 10.0508 21.5594V30.1688C11.8537 30.87 13.815 31.259 15.8701 31.259C24.6325 31.259 31.7347 24.263 31.7347 15.6316C31.7347 10.0224 28.7359 5.10998 24.2353 2.35156Z" fill="#007AFF"/>
<path d="M20.7127 12.4683C20.6613 12.7343 20.5677 12.9958 20.4225 13.242C19.7286 14.4267 18.1935 14.8311 16.9908 14.1476C15.7881 13.464 15.3775 11.9518 16.0715 10.7671C16.2611 10.444 16.5155 10.1803 16.8056 9.98026C16.5021 9.9319 16.1897 9.90552 15.8706 9.90552C12.662 9.90552 10.0625 12.4661 10.0625 15.6268C10.0625 18.7874 12.6642 21.3481 15.8706 21.3481C19.0771 21.3481 21.6789 18.7874 21.6789 15.6268C21.6789 14.4597 21.3241 13.3739 20.7127 12.4683Z" fill="#9D60FB"/>
<path d="M217.483 27.2872C218.869 27.2872 219.995 26.1792 219.995 24.8124C219.995 23.4456 218.869 22.3374 217.483 22.3374C216.095 22.3374 214.969 23.4456 214.969 24.8124C214.969 26.1792 216.095 27.2872 217.483 27.2872Z" fill="#9D60FB"/>
</svg>
