<svg width="235" height="252" viewBox="0 0 235 252" fill="none" xmlns="http://www.w3.org/2000/svg">
<g opacity="0.2" clip-path="url(#clip0_808_13)">
<path d="M73.2479 128.039L73.4663 128.318C76.3482 86.339 111.782 53.1556 155.12 53.1556C155.142 53.1556 155.163 53.1556 155.163 53.1556C155.185 53.1556 155.207 53.1556 155.207 53.1556C177.28 53.1556 197.322 61.7793 212.036 75.7797V-8.48034C194.462 -15.3192 175.293 -19.1042 155.229 -19.1042C69.4928 -19.1042 0 49.349 0 133.803C0 188.6 29.2774 236.643 73.2479 263.633V128.039Z" fill="white"/>
<path d="M237.101 3.90759V139.588L236.882 139.309C234.023 181.288 198.568 214.471 155.23 214.471C155.208 214.471 155.186 214.471 155.186 214.471C155.164 214.471 155.142 214.471 155.142 214.471C133.07 214.471 113.027 205.849 98.3125 191.847V276.086C115.953 282.947 135.144 286.753 155.252 286.753C240.988 286.753 310.479 218.3 310.479 133.846C310.479 78.9631 281.137 30.8974 237.101 3.90759Z" fill="white"/>
<path d="M202.605 102.9C202.102 105.502 201.186 108.061 199.766 110.47C192.977 122.062 177.956 126.019 166.188 119.33C154.42 112.642 150.403 97.846 157.193 86.2543C159.049 83.0929 161.538 80.5124 164.376 78.5553C161.407 78.0821 158.35 77.824 155.228 77.824C123.833 77.824 98.3984 102.878 98.3984 133.804C98.3984 164.729 123.855 189.784 155.228 189.784C186.602 189.784 212.059 164.729 212.059 133.804C212.059 122.384 208.587 111.76 202.605 102.9Z" fill="white"/>
</g>
<defs>
<clipPath id="clip0_808_13">
<rect width="235" height="252" fill="white"/>
</clipPath>
</defs>
</svg>
