<svg width="274" height="417" viewBox="0 0 274 417" fill="none" xmlns="http://www.w3.org/2000/svg">
<path d="M1 19.1799C43.9881 11.2929 126.465 39.6434 164.455 70.3388C202.444 101.034 117.968 106.15 106.971 70.3388C95.9736 34.5275 155.957 -2.56262 190.447 1.2743C224.938 5.11121 290.919 53.7121 268.426 188.004C248.547 306.687 171.953 368.339 125.465 392" stroke="#CCACFF" stroke-width="1.5" stroke-dasharray="5 5"/>
<path d="M123.573 381.687L120.297 389.83L90.9992 411.243L123.573 381.687Z" fill="#C49EFF"/>
<path d="M120.296 389.83L123.311 398.037L91.4391 410.933L120.296 389.83Z" fill="#9D61FB"/>
<path d="M123.399 398.092L116.902 397.118L101.624 406.899L123.399 398.092Z" fill="#404143"/>
<path d="M116.883 397.115L113.258 406.029L90.998 411.243L116.883 397.115Z" fill="#C49EFF"/>
</svg>
