<svg width="1440" height="32" viewBox="0 0 1440 32" fill="none" xmlns="http://www.w3.org/2000/svg">
<mask id="mask0_1_1430" style="mask-type:alpha" maskUnits="userSpaceOnUse" x="0" y="0" width="1440" height="32">
<rect width="1440" height="32" fill="#007AFF"/>
</mask>
<g mask="url(#mask0_1_1430)">
<rect opacity="0.05" width="1440" height="32" fill="#9D60FB"/>
<path opacity="0.05" fill-rule="evenodd" clip-rule="evenodd" d="M2702.58 -8L2677.26 -2.5L2741.05 39.0692L2766.37 33.5692L2702.58 -8ZM2640.75 -8L2615.42 -2.5L2679.22 39.0692L2704.54 33.5692L2640.75 -8ZM2553.59 -2.5L2578.91 -8L2642.7 33.5692L2617.38 39.0692L2553.59 -2.5ZM2517.08 -8L2491.76 -2.5L2555.55 39.0692L2580.87 33.5692L2517.08 -8ZM2429.93 -2.5L2455.25 -8L2519.04 33.5692L2493.72 39.0692L2429.93 -2.5ZM2393.42 -8L2368.1 -2.5L2431.89 39.0692L2457.21 33.5692L2393.42 -8ZM2306.26 -2.5L2331.58 -8L2395.38 33.5692L2370.06 39.0692L2306.26 -2.5ZM2269.75 -8L2244.43 -2.5L2308.22 39.0692L2333.54 33.5692L2269.75 -8ZM2182.6 -2.5L2207.92 -8L2271.71 33.5692L2246.39 39.0692L2182.6 -2.5ZM2146.09 -8L2120.77 -2.5L2184.56 39.0692L2209.88 33.5692L2146.09 -8ZM2058.94 -2.5L2084.26 -8L2148.05 33.5692L2122.73 39.0692L2058.94 -2.5ZM2022.42 -8L1997.1 -2.5L2060.89 39.0692L2086.22 33.5692L2022.42 -8ZM1935.27 -2.5L1960.59 -8L2024.38 33.5692L1999.06 39.0692L1935.27 -2.5ZM1898.76 -8L1873.44 -2.5L1937.23 39.0692L1962.55 33.5692L1898.76 -8ZM1811.61 -2.5L1836.93 -8L1900.72 33.5692L1875.4 39.0692L1811.61 -2.5ZM1775.1 -8L1749.78 -2.5L1813.57 39.0692L1838.89 33.5692L1775.1 -8ZM1687.94 -2.5L1713.26 -8L1777.05 33.5692L1751.73 39.0692L1687.94 -2.5ZM1651.43 -8L1626.11 -2.5L1689.9 39.0692L1715.22 33.5692L1651.43 -8ZM1564.28 -2.5L1589.6 -8L1653.39 33.5692L1628.07 39.0692L1564.28 -2.5ZM1527.77 -8L1502.45 -2.5L1566.24 39.0692L1591.56 33.5692L1527.77 -8ZM1440.62 -2.5L1465.94 -8L1529.73 33.5692L1504.41 39.0692L1440.62 -2.5ZM1404.1 -8L1378.78 -2.5L1442.57 39.0692L1467.89 33.5692L1404.1 -8ZM1316.95 -2.5L1342.27 -8L1406.06 33.5692L1380.74 39.0692L1316.95 -2.5ZM1280.44 -8L1255.12 -2.5L1318.91 39.0692L1344.23 33.5692L1280.44 -8ZM1193.29 -2.5L1218.61 -8L1282.4 33.5692L1257.08 39.0692L1193.29 -2.5ZM1156.78 -8L1131.45 -2.5L1195.25 39.0692L1220.57 33.5692L1156.78 -8ZM1069.62 -2.5L1094.94 -8L1158.73 33.5692L1133.41 39.0692L1069.62 -2.5ZM1033.11 -8L1007.79 -2.5L1071.58 39.0692L1096.9 33.5692L1033.11 -8ZM945.959 -2.5L971.279 -8L1035.07 33.5692L1009.75 39.0692L945.959 -2.5ZM909.447 -8L884.127 -2.5L947.917 39.0692L973.238 33.5692L909.447 -8ZM822.295 -2.5L847.615 -8L911.406 33.5692L886.085 39.0692L822.295 -2.5ZM785.783 -8L760.463 -2.5L824.253 39.0692L849.573 33.5692L785.783 -8ZM698.63 -2.5L723.951 -8L787.741 33.5692L762.421 39.0692L698.63 -2.5ZM662.119 -8L636.798 -2.5L700.589 39.0692L725.909 33.5692L662.119 -8ZM574.966 -2.5L600.287 -8L664.077 33.5692L638.757 39.0692L574.966 -2.5ZM538.455 -8L513.134 -2.5L576.925 39.0692L602.245 33.5692L538.455 -8ZM451.302 -2.5L476.623 -8L540.413 33.5692L515.093 39.0692L451.302 -2.5ZM414.79 -8L389.47 -2.5L453.261 39.0692L478.581 33.5692L414.79 -8ZM327.638 -2.5L352.958 -8L416.749 33.5692L391.429 39.0692L327.638 -2.5ZM291.126 -8L265.806 -2.5L329.597 39.0692L354.917 33.5692L291.126 -8ZM203.974 -2.5L229.294 -8L293.085 33.5692L267.765 39.0692L203.974 -2.5ZM167.462 -8L142.142 -2.5L205.933 39.0692L231.253 33.5692L167.462 -8ZM80.3096 -2.5L105.63 -8L169.421 33.5692L144.1 39.0692L80.3096 -2.5ZM43.7974 -8L18.4771 -2.5L82.2678 39.0692L107.588 33.5692L43.7974 -8ZM-43.3552 -2.5L-18.0349 -8L45.7559 33.5692L20.4355 39.0692L-43.3552 -2.5ZM-79.8669 -8L-105.187 -2.5L-41.3965 39.0692L-16.0762 33.5692L-79.8669 -8ZM-167.02 -2.5L-141.699 -8L-77.9084 33.5692L-103.229 39.0692L-167.02 -2.5ZM-203.531 -8L-228.852 -2.5L-165.061 39.0692L-139.741 33.5692L-203.531 -8ZM-290.684 -2.5L-265.364 -8L-201.573 33.5692L-226.893 39.0692L-290.684 -2.5ZM-327.196 -8L-352.516 -2.5L-288.726 39.0692L-263.405 33.5692L-327.196 -8ZM-414.349 -2.5L-389.028 -8L-325.238 33.5692L-350.558 39.0692L-414.349 -2.5ZM-450.861 -8L-476.181 -2.5L-412.39 39.0692L-387.07 33.5692L-450.861 -8ZM-538.013 -2.5L-512.693 -8L-448.902 33.5692L-474.222 39.0692L-538.013 -2.5ZM-574.525 -8L-599.845 -2.5L-536.054 39.0692L-510.734 33.5692L-574.525 -8ZM-661.677 -2.5L-636.357 -8L-572.566 33.5692L-597.887 39.0692L-661.677 -2.5ZM-698.189 -8L-723.51 -2.5L-659.719 39.0692L-634.399 33.5692L-698.189 -8ZM-785.342 -2.5L-760.022 -8L-696.231 33.5692L-721.551 39.0692L-785.342 -2.5ZM-821.854 -8L-847.174 -2.5L-783.384 39.0692L-758.063 33.5692L-821.854 -8ZM-909.007 -2.5L-883.686 -8L-819.896 33.5692L-845.216 39.0692L-909.007 -2.5ZM-945.518 -8L-970.839 -2.5L-907.048 39.0692L-881.728 33.5692L-945.518 -8ZM-1032.67 -2.5L-1007.35 -8L-943.56 33.5692L-968.88 39.0692L-1032.67 -2.5ZM-1069.18 -8L-1094.5 -2.5L-1030.71 39.0692L-1005.39 33.5692L-1069.18 -8ZM-1156.34 -2.5L-1131.02 -8L-1067.22 33.5692L-1092.54 39.0692L-1156.34 -2.5ZM-1192.85 -8L-1218.17 -2.5L-1154.38 39.0692L-1129.06 33.5692L-1192.85 -8ZM-1280 -2.5L-1254.68 -8L-1190.89 33.5692L-1216.21 39.0692L-1280 -2.5Z" fill="#9D60FB"/>
</g>
</svg>
