<svg width="28" height="26" viewBox="0 0 28 26" fill="none" xmlns="http://www.w3.org/2000/svg">
<path d="M27.9749 21.2618C27.8746 20.5886 27.5015 20.0692 26.8528 19.7037C26.4159 19.4575 26.0044 19.3598 25.6167 19.4096C25.2281 19.4603 24.8842 19.5869 24.5841 19.7905C24.2839 19.9941 23.9354 20.2791 23.5404 20.6474C23.2713 20.9035 23.0524 21.0944 22.8836 21.2211C22.7148 21.3469 22.5406 21.4355 22.3627 21.488C22.1848 21.5387 22.0097 21.5161 21.8381 21.4192C21.6329 21.3034 21.5143 21.1406 21.4815 20.9315C21.4486 20.7216 21.5033 20.4918 21.6466 20.2429C21.7852 20.0005 21.9659 19.8421 22.1885 19.767C22.411 19.6919 22.6592 19.7154 22.931 19.8349L23.9592 18.0442C23.4948 17.799 23.0323 17.7049 22.5707 17.7628C22.1091 17.8189 21.6812 18.0007 21.2862 18.3075C21.1576 18.407 21.0344 18.5174 20.9177 18.6387L18.9253 17.5148C19.0913 17.0018 19.1798 16.4535 19.1762 15.8861C19.1597 13.3489 17.3215 11.2379 14.9013 10.7683L14.8867 8.50347C15.0719 8.4519 15.2452 8.38494 15.4085 8.30169C15.8482 8.08 16.183 7.78412 16.4138 7.41223C16.6428 7.04034 16.7569 6.62953 16.7532 6.17621C16.7496 5.72288 16.6301 5.31298 16.392 5.01167C16.1548 4.71217 15.8729 4.48324 15.549 4.3267C15.2243 4.17016 14.8028 4.00729 14.2846 3.83718C13.7665 3.67431 13.3851 3.52139 13.1407 3.38023C12.8962 3.23817 12.773 3.0391 12.7712 2.78213C12.7694 2.54868 12.8414 2.36952 12.9847 2.24374C13.1288 2.11888 13.3185 2.05554 13.5548 2.05373C13.8285 2.05192 14.0529 2.1243 14.2299 2.26998C14.406 2.41567 14.5017 2.61745 14.5191 2.87352L16.631 2.85994C16.5881 2.11254 16.2953 1.53163 15.7525 1.11631C15.2069 0.699172 14.4944 0.494676 13.6123 0.500105C12.7447 0.505534 12.0414 0.719078 11.5041 1.14074C10.9667 1.56239 10.7004 2.14421 10.7049 2.88438C10.7077 3.38204 10.8281 3.7847 11.0662 4.09325C11.3034 4.4009 11.5871 4.63344 11.9155 4.78998C12.243 4.94652 12.6663 5.10215 13.1844 5.25779C13.543 5.36094 13.8194 5.45414 14.0146 5.53467C14.2089 5.61701 14.3731 5.72197 14.5072 5.84956C14.6404 5.97714 14.7088 6.13911 14.7097 6.33546C14.7116 6.56891 14.6286 6.7535 14.4616 6.88651C14.2956 7.01952 14.0666 7.08739 13.7783 7.0892C13.4964 7.09101 13.2675 7.015 13.0914 6.86118C12.9153 6.70735 12.8104 6.48385 12.7785 6.18978L10.7013 6.20245C10.7195 6.72273 10.8691 7.16701 11.1483 7.53529C11.4293 7.90356 11.8015 8.18044 12.2667 8.36594C12.4172 8.42656 12.576 8.47723 12.7402 8.51705L12.7548 10.79C10.3646 11.3058 8.57479 13.4295 8.59122 15.9513C8.59486 16.5358 8.69521 17.0968 8.87675 17.6207L6.90718 18.7653C6.76943 18.6323 6.62347 18.5165 6.47112 18.4179C6.05696 18.1509 5.63093 18.0116 5.19213 17.9998C4.75334 17.9881 4.33643 18.0967 3.94234 18.3265C3.52908 18.5663 3.24993 18.864 3.10671 19.2187C2.96257 19.5734 2.90419 19.9281 2.92973 20.2855C2.95436 20.6429 3.02369 21.0854 3.13316 21.6174C3.25084 22.144 3.3074 22.5476 3.30558 22.829C3.30467 23.1095 3.19155 23.3149 2.96804 23.4443C2.76461 23.5619 2.57212 23.5918 2.39149 23.5303C2.20996 23.4696 2.05943 23.3384 1.93993 23.1366C1.80126 22.9023 1.752 22.6725 1.79123 22.4481C1.83045 22.2246 1.95908 22.0409 2.17438 21.8979L1.10612 20.09C0.475749 20.4999 0.114493 21.0428 0.0232675 21.716C-0.0679586 22.3911 0.10902 23.105 0.555115 23.8605C0.993912 24.6025 1.53215 25.0993 2.1689 25.3499C2.80657 25.6014 3.44607 25.539 4.09012 25.1653C4.52345 24.9138 4.81537 24.6088 4.96589 24.2505C5.11642 23.8922 5.17663 23.533 5.15017 23.1728C5.1228 22.8127 5.04617 22.3721 4.92302 21.8491C4.83544 21.4898 4.77797 21.2057 4.75151 20.9976C4.72506 20.7895 4.73418 20.5958 4.77888 20.4176C4.82358 20.2384 4.93123 20.0991 5.10182 20.0005C5.30525 19.8828 5.50686 19.8611 5.70665 19.938C5.90643 20.0149 6.07885 20.176 6.22481 20.4239C6.36712 20.6646 6.41456 20.899 6.36895 21.127C6.32334 21.355 6.1792 21.5559 5.93836 21.7314L6.98837 23.5094C7.43356 23.2335 7.74737 22.8833 7.928 22.458C8.10954 22.0336 8.16519 21.5749 8.09403 21.0826C8.07123 20.9225 8.03656 20.7614 7.99004 20.6013L9.97055 19.4503C10.9458 20.5126 12.3543 21.1777 13.9143 21.1677C15.4906 21.1577 16.9037 20.461 17.8671 19.3671L19.8558 20.4891C19.8084 20.6737 19.781 20.8564 19.7701 21.0374C19.7436 21.526 19.8348 21.9622 20.0446 22.3449C20.2535 22.7277 20.5573 23.0317 20.9533 23.2552C21.3702 23.4904 21.7688 23.5809 22.1501 23.5275C22.5315 23.4723 22.8717 23.3457 23.17 23.1457C23.4693 22.9448 23.8223 22.6652 24.2301 22.3051C24.6306 21.9404 24.9553 21.6898 25.2017 21.5505C25.447 21.4111 25.6833 21.4057 25.9077 21.5324C26.113 21.6482 26.2343 21.7984 26.2717 21.9857C26.3091 22.1721 26.2699 22.3666 26.1531 22.5702C26.0181 22.8064 25.843 22.9629 25.6268 23.0416C25.4115 23.1195 25.1861 23.1014 24.9553 22.9883L23.9108 24.8088C24.5841 25.1445 25.2391 25.1843 25.8731 24.9264C26.5071 24.6676 27.0426 24.1582 27.4787 23.3972C27.9074 22.6489 28.0725 21.9386 27.9722 21.2663L27.9749 21.2618ZM13.9042 19.0847C12.1436 19.0956 10.7022 17.684 10.6912 15.9377C10.6803 14.1913 12.1034 12.7617 13.8641 12.7508C15.6247 12.74 17.0661 14.1515 17.0771 15.8979C17.088 17.6442 15.6649 19.0739 13.9042 19.0847Z" fill="black"/>
<path d="M27.9749 21.2618C27.8746 20.5886 27.5015 20.0692 26.8528 19.7037C26.4159 19.4575 26.0044 19.3598 25.6167 19.4096C25.2281 19.4603 24.8842 19.5869 24.5841 19.7905C24.2839 19.9941 23.9354 20.2791 23.5404 20.6474C23.2713 20.9035 23.0524 21.0944 22.8836 21.2211C22.7148 21.3469 22.5406 21.4355 22.3627 21.488C22.1848 21.5387 22.0097 21.5161 21.8381 21.4192C21.6329 21.3034 21.5143 21.1406 21.4815 20.9315C21.4486 20.7216 21.5033 20.4918 21.6466 20.2429C21.7852 20.0005 21.9659 19.8421 22.1885 19.767C22.411 19.6919 22.6592 19.7154 22.931 19.8349L23.9592 18.0442C23.4948 17.799 23.0323 17.7049 22.5707 17.7628C22.1091 17.8189 21.6812 18.0007 21.2862 18.3075C21.1576 18.407 21.0344 18.5174 20.9177 18.6387L18.9253 17.5148C19.0913 17.0018 19.1798 16.4535 19.1762 15.8861C19.1597 13.3489 17.3215 11.2379 14.9013 10.7683L14.8867 8.50347C15.0719 8.4519 15.2452 8.38494 15.4085 8.30169C15.8482 8.08 16.183 7.78412 16.4138 7.41223C16.6428 7.04034 16.7569 6.62953 16.7532 6.17621C16.7496 5.72288 16.6301 5.31298 16.392 5.01167C16.1548 4.71217 15.8729 4.48324 15.549 4.3267C15.2243 4.17016 14.8028 4.00729 14.2846 3.83718C13.7665 3.67431 13.3851 3.52139 13.1407 3.38023C12.8962 3.23817 12.773 3.0391 12.7712 2.78213C12.7694 2.54868 12.8414 2.36952 12.9847 2.24374C13.1288 2.11888 13.3185 2.05554 13.5548 2.05373C13.8285 2.05192 14.0529 2.1243 14.2299 2.26998C14.406 2.41567 14.5017 2.61745 14.5191 2.87352L16.631 2.85994C16.5881 2.11254 16.2953 1.53163 15.7525 1.11631C15.2069 0.699172 14.4944 0.494676 13.6123 0.500105C12.7447 0.505534 12.0414 0.719078 11.5041 1.14074C10.9667 1.56239 10.7004 2.14421 10.7049 2.88438C10.7077 3.38204 10.8281 3.7847 11.0662 4.09325C11.3034 4.4009 11.5871 4.63344 11.9155 4.78998C12.243 4.94652 12.6663 5.10215 13.1844 5.25779C13.543 5.36094 13.8194 5.45414 14.0146 5.53467C14.2089 5.61701 14.3731 5.72197 14.5072 5.84956C14.6404 5.97714 14.7088 6.13911 14.7097 6.33546C14.7116 6.56891 14.6286 6.7535 14.4616 6.88651C14.2956 7.01952 14.0666 7.08739 13.7783 7.0892C13.4964 7.09101 13.2675 7.015 13.0914 6.86118C12.9153 6.70735 12.8104 6.48385 12.7785 6.18978L10.7013 6.20245C10.7195 6.72273 10.8691 7.16701 11.1483 7.53529C11.4293 7.90356 11.8015 8.18044 12.2667 8.36594C12.4172 8.42656 12.576 8.47723 12.7402 8.51705L12.7548 10.79C10.3646 11.3058 8.57479 13.4295 8.59122 15.9513C8.59486 16.5358 8.69521 17.0968 8.87675 17.6207L6.90718 18.7653C6.76943 18.6323 6.62347 18.5165 6.47112 18.4179C6.05696 18.1509 5.63093 18.0116 5.19213 17.9998C4.75334 17.9881 4.33643 18.0967 3.94234 18.3265C3.52908 18.5663 3.24993 18.864 3.10671 19.2187C2.96257 19.5734 2.90419 19.9281 2.92973 20.2855C2.95436 20.6429 3.02369 21.0854 3.13316 21.6174C3.25084 22.144 3.3074 22.5476 3.30558 22.829C3.30467 23.1095 3.19155 23.3149 2.96804 23.4443C2.76461 23.5619 2.57212 23.5918 2.39149 23.5303C2.20996 23.4696 2.05943 23.3384 1.93993 23.1366C1.80126 22.9023 1.752 22.6725 1.79123 22.4481C1.83045 22.2246 1.95908 22.0409 2.17438 21.8979L1.10612 20.09C0.475749 20.4999 0.114493 21.0428 0.0232675 21.716C-0.0679586 22.3911 0.10902 23.105 0.555115 23.8605C0.993912 24.6025 1.53215 25.0993 2.1689 25.3499C2.80657 25.6014 3.44607 25.539 4.09012 25.1653C4.52345 24.9138 4.81537 24.6088 4.96589 24.2505C5.11642 23.8922 5.17663 23.533 5.15017 23.1728C5.1228 22.8127 5.04617 22.3721 4.92302 21.8491C4.83544 21.4898 4.77797 21.2057 4.75151 20.9976C4.72506 20.7895 4.73418 20.5958 4.77888 20.4176C4.82358 20.2384 4.93123 20.0991 5.10182 20.0005C5.30525 19.8828 5.50686 19.8611 5.70665 19.938C5.90643 20.0149 6.07885 20.176 6.22481 20.4239C6.36712 20.6646 6.41456 20.899 6.36895 21.127C6.32334 21.355 6.1792 21.5559 5.93836 21.7314L6.98837 23.5094C7.43356 23.2335 7.74737 22.8833 7.928 22.458C8.10954 22.0336 8.16519 21.5749 8.09403 21.0826C8.07123 20.9225 8.03656 20.7614 7.99004 20.6013L9.97055 19.4503C10.9458 20.5126 12.3543 21.1777 13.9143 21.1677C15.4906 21.1577 16.9037 20.461 17.8671 19.3671L19.8558 20.4891C19.8084 20.6737 19.781 20.8564 19.7701 21.0374C19.7436 21.526 19.8348 21.9622 20.0446 22.3449C20.2535 22.7277 20.5573 23.0317 20.9533 23.2552C21.3702 23.4904 21.7688 23.5809 22.1501 23.5275C22.5315 23.4723 22.8717 23.3457 23.17 23.1457C23.4693 22.9448 23.8223 22.6652 24.2301 22.3051C24.6306 21.9404 24.9553 21.6898 25.2017 21.5505C25.447 21.4111 25.6833 21.4057 25.9077 21.5324C26.113 21.6482 26.2343 21.7984 26.2717 21.9857C26.3091 22.1721 26.2699 22.3666 26.1531 22.5702C26.0181 22.8064 25.843 22.9629 25.6268 23.0416C25.4115 23.1195 25.1861 23.1014 24.9553 22.9883L23.9108 24.8088C24.5841 25.1445 25.2391 25.1843 25.8731 24.9264C26.5071 24.6676 27.0426 24.1582 27.4787 23.3972C27.9074 22.6489 28.0725 21.9386 27.9722 21.2663L27.9749 21.2618ZM13.9042 19.0847C12.1436 19.0956 10.7022 17.684 10.6912 15.9377C10.6803 14.1913 12.1034 12.7617 13.8641 12.7508C15.6247 12.74 17.0661 14.1515 17.0771 15.8979C17.088 17.6442 15.6649 19.0739 13.9042 19.0847Z" fill="url(#paint0_linear_4314_11302)"/>
<defs>
<linearGradient id="paint0_linear_4314_11302" x1="30.5435" y1="0.0832927" x2="6.11362" y2="30.4248" gradientUnits="userSpaceOnUse">
<stop stop-color="#F240F6"/>
<stop offset="0.290236" stop-color="#B665F7"/>
<stop offset="0.5" stop-color="#6C7FF7"/>
<stop offset="0.692708" stop-color="#489CFE"/>
<stop offset="1" stop-color="#3FC1FD"/>
</linearGradient>
</defs>
</svg>
