<svg width="522" height="212" viewBox="0 0 522 212" fill="none" xmlns="http://www.w3.org/2000/svg">
<g clip-path="url(#clip0_469_1193)">
<path d="M-449.289 136C-430.144 136 -412.144 128.936 -398.559 116.059C-391.164 109.05 -385.719 100.845 -382.279 92.0975C-378.897 83.5126 -370.184 77.8074 -360.497 77.8074H-360.038C-350.179 77.8074 -341.179 83.2409 -337.453 91.8258C-334.3 99.0523 -329.657 105.736 -323.638 111.495C-311.371 123.123 -295.092 129.48 -277.78 129.48C-260.469 129.48 -244.189 123.068 -231.922 111.495C-227.05 106.877 -223.095 101.606 -220.057 95.9553C-214.382 85.197 -203.49 77.8618 -190.822 77.8618H-186.007C-174.37 77.8618 -163.078 83.4583 -157.747 93.2928C-155.11 98.183 -151.613 102.801 -147.257 106.931C-136.308 117.309 -121.748 123.014 -106.271 123.014C-90.7942 123.014 -76.2342 117.309 -65.2856 106.931C-62.4195 104.214 -59.8973 101.226 -57.7764 98.1286C-48.7194 84.9796 -32.4398 77.9161 -15.8735 77.9161H-15.415C0.749961 77.9161 15.0806 85.9577 24.9974 98.02C26.2585 99.5414 27.5769 101.008 29.0673 102.367C38.7548 111.495 51.5378 116.548 65.2378 116.548C78.9379 116.548 91.7209 111.495 101.408 102.367C102.899 100.954 104.217 99.5414 105.478 98.02C116.599 84.5993 134.598 77.9161 152.597 77.9161H159.132C176.788 77.9161 192.895 85.686 205.277 97.5853C205.334 97.6396 205.392 97.694 205.449 97.7483C213.818 105.681 224.939 110.028 236.747 110.028C248.555 110.028 259.676 105.681 268.045 97.7483C276.414 89.8154 281 79.2745 281 68.0815C281 56.8885 276.414 46.3476 268.045 38.4147C259.676 30.4818 248.555 26.135 236.747 26.135C224.939 26.135 213.818 30.4818 205.449 38.4147C205.392 38.469 205.334 38.5234 205.277 38.5777C192.895 50.477 176.73 58.2469 159.132 58.2469H152.597C134.598 58.2469 116.599 51.5637 105.478 38.143C104.217 36.6217 102.899 35.2089 101.408 33.7962C91.7209 24.668 78.9379 19.6149 65.2378 19.6149C51.5378 19.6149 38.7548 24.668 29.0673 33.7962C27.5769 35.2089 26.2585 36.676 24.9974 38.143C15.0806 50.2054 0.692638 58.2469 -15.415 58.2469H-15.8735C-32.4398 58.2469 -48.7194 51.1834 -57.7764 38.0344C-59.8973 34.9373 -62.4195 31.9489 -65.2856 29.2321C-76.2342 18.8542 -90.7942 13.149 -106.271 13.149C-121.748 13.149 -136.308 18.8542 -147.314 29.2865C-151.671 33.4159 -155.11 37.98 -157.804 42.8702C-163.135 52.7048 -174.428 58.3012 -186.064 58.3012H-190.937C-203.605 58.3012 -214.496 50.9117 -220.171 40.2078C-223.152 34.5569 -227.165 29.2865 -232.037 24.668C-244.304 13.0404 -260.584 6.62885 -277.895 6.62885C-295.206 6.62885 -311.486 13.0404 -323.753 24.668C-329.829 30.4275 -334.472 37.165 -337.625 44.5002C-341.294 52.9764 -350.236 58.3556 -359.866 58.3556C-369.955 58.3556 -378.955 52.4331 -382.566 43.4678C-386.177 34.5026 -391.394 26.9501 -398.616 20.1039C-412.087 7.06352 -430.086 0 -449.289 0C-472.104 0 -493.313 10.0519 -507.243 27.8738C-525.586 51.3464 -525.586 84.5993 -507.243 108.072C-493.313 125.948 -472.104 136 -449.232 136H-449.289Z" fill="url(#paint0_linear_469_1193)"/>
<path d="M-207.379 279C-188.257 279 -170.28 271.936 -156.712 259.059C-149.326 252.05 -143.887 243.845 -140.452 235.097C-137.075 226.513 -128.372 220.807 -118.697 220.807H-118.239C-108.392 220.807 -99.4033 226.241 -95.682 234.826C-92.5332 242.052 -87.8959 248.736 -81.8845 254.495C-69.6328 266.123 -53.3735 272.48 -36.0836 272.48C-18.7938 272.48 -2.5345 266.068 9.71723 254.495C14.5836 249.877 18.5339 244.606 21.5682 238.955C27.2361 228.197 38.1138 220.862 50.7662 220.862H55.5753C67.1973 220.862 78.4758 226.458 83.8001 236.293C86.4337 241.183 89.926 245.801 94.2771 249.931C105.212 260.309 119.754 266.014 135.212 266.014C150.669 266.014 165.211 260.309 176.146 249.931C179.009 247.214 181.528 244.226 183.646 241.129C192.692 227.98 208.951 220.916 225.497 220.916H225.955C242.099 220.916 256.412 228.958 266.317 241.02C267.576 242.541 268.893 244.008 270.381 245.367C280.057 254.495 292.824 259.548 306.507 259.548C320.19 259.548 332.957 254.495 342.632 245.367C344.121 243.954 345.438 242.541 346.697 241.02C357.804 227.599 375.781 220.916 393.758 220.916H400.284C417.917 220.916 434.005 228.686 446.371 240.585C446.428 240.64 446.486 240.694 446.543 240.748C454.902 248.681 466.008 253.028 477.802 253.028C489.596 253.028 500.703 248.681 509.061 240.748C517.42 232.815 522 222.274 522 211.082C522 199.889 517.42 189.348 509.061 181.415C500.703 173.482 489.596 169.135 477.802 169.135C466.008 169.135 454.902 173.482 446.543 181.415C446.486 181.469 446.428 181.523 446.371 181.578C434.005 193.477 417.86 201.247 400.284 201.247H393.758C375.781 201.247 357.804 194.564 346.697 181.143C345.438 179.622 344.121 178.209 342.632 176.796C332.957 167.668 320.19 162.615 306.507 162.615C292.824 162.615 280.057 167.668 270.381 176.796C268.893 178.209 267.576 179.676 266.317 181.143C256.412 193.205 242.042 201.247 225.955 201.247H225.497C208.951 201.247 192.692 194.183 183.646 181.034C181.528 177.937 179.009 174.949 176.146 172.232C165.211 161.854 150.669 156.149 135.212 156.149C119.754 156.149 105.212 161.854 94.2198 172.286C89.8688 176.416 86.4337 180.98 83.7429 185.87C78.4185 195.705 67.1401 201.301 55.5181 201.301H50.6518C37.9993 201.301 27.1216 193.912 21.4537 183.208C18.4766 177.557 14.4691 172.286 9.60272 167.668C-2.64901 156.04 -18.9083 149.629 -36.1981 149.629C-53.488 149.629 -69.7473 156.04 -81.999 167.668C-88.0676 173.427 -92.705 180.165 -95.8538 187.5C-99.5178 195.976 -108.449 201.356 -118.067 201.356C-128.143 201.356 -137.132 195.433 -140.739 186.468C-144.345 177.503 -149.555 169.95 -156.769 163.104C-170.223 150.064 -188.2 143 -207.379 143C-230.165 143 -251.348 153.052 -265.26 170.874C-283.58 194.346 -283.58 227.599 -265.26 251.072C-251.348 268.948 -230.165 279 -207.322 279H-207.379Z" fill="url(#paint1_linear_469_1193)"/>
</g>
<defs>
<linearGradient id="paint0_linear_469_1193" x1="291.485" y1="68.0146" x2="-738.633" y2="67.4552" gradientUnits="userSpaceOnUse">
<stop stop-color="white"/>
<stop offset="1" stop-color="#E1E8F0"/>
</linearGradient>
<linearGradient id="paint1_linear_469_1193" x1="532.472" y1="211.015" x2="-496.361" y2="210.457" gradientUnits="userSpaceOnUse">
<stop stop-color="white"/>
<stop offset="1" stop-color="#C7D7E7"/>
</linearGradient>
<clipPath id="clip0_469_1193">
<rect width="522" height="212" fill="white"/>
</clipPath>
</defs>
</svg>
