<svg width="454" height="212" viewBox="0 0 454 212" fill="none" xmlns="http://www.w3.org/2000/svg">
<g clip-path="url(#clip0_543_6730)">
<path d="M921.289 136C902.144 136 884.144 128.936 870.559 116.059C863.164 109.05 857.719 100.845 854.279 92.0975C850.897 83.5126 842.184 77.8074 832.497 77.8074H832.038C822.179 77.8074 813.179 83.2409 809.453 91.8258C806.3 99.0523 801.657 105.736 795.638 111.495C783.371 123.123 767.092 129.48 749.78 129.48C732.469 129.48 716.189 123.068 703.922 111.495C699.05 106.877 695.095 101.606 692.057 95.9553C686.382 85.197 675.49 77.8618 662.822 77.8618H658.007C646.37 77.8618 635.078 83.4583 629.747 93.2928C627.11 98.183 623.613 102.801 619.257 106.931C608.308 117.309 593.748 123.014 578.271 123.014C562.794 123.014 548.234 117.309 537.286 106.931C534.419 104.214 531.897 101.226 529.776 98.1286C520.719 84.9796 504.44 77.9161 487.874 77.9161H487.415C471.25 77.9161 456.919 85.9577 447.003 98.02C445.741 99.5414 444.423 101.008 442.933 102.367C433.245 111.495 420.462 116.548 406.762 116.548C393.062 116.548 380.279 111.495 370.592 102.367C369.101 100.954 367.783 99.5414 366.522 98.02C355.401 84.5993 337.402 77.9161 319.403 77.9161H312.868C295.212 77.9161 279.105 85.686 266.723 97.5853C266.666 97.6396 266.608 97.694 266.551 97.7483C258.182 105.681 247.061 110.028 235.253 110.028C223.445 110.028 212.324 105.681 203.955 97.7483C195.586 89.8154 191 79.2745 191 68.0815C191 56.8885 195.586 46.3476 203.955 38.4147C212.324 30.4818 223.445 26.135 235.253 26.135C247.061 26.135 258.182 30.4818 266.551 38.4147C266.608 38.469 266.666 38.5234 266.723 38.5777C279.105 50.477 295.27 58.2469 312.868 58.2469H319.403C337.402 58.2469 355.401 51.5637 366.522 38.143C367.783 36.6217 369.101 35.2089 370.592 33.7962C380.279 24.668 393.062 19.6149 406.762 19.6149C420.462 19.6149 433.245 24.668 442.933 33.7962C444.423 35.2089 445.741 36.676 447.003 38.143C456.919 50.2054 471.307 58.2469 487.415 58.2469H487.874C504.44 58.2469 520.719 51.1834 529.776 38.0344C531.897 34.9373 534.419 31.9489 537.286 29.2321C548.234 18.8542 562.794 13.149 578.271 13.149C593.748 13.149 608.308 18.8542 619.314 29.2865C623.671 33.4159 627.11 37.98 629.804 42.8702C635.135 52.7048 646.428 58.3012 658.064 58.3012H662.937C675.605 58.3012 686.496 50.9117 692.171 40.2078C695.152 34.5569 699.165 29.2865 704.037 24.668C716.304 13.0404 732.584 6.62885 749.895 6.62885C767.206 6.62885 783.486 13.0404 795.753 24.668C801.829 30.4275 806.472 37.165 809.625 44.5002C813.294 52.9764 822.236 58.3556 831.866 58.3556C841.955 58.3556 850.955 52.4331 854.566 43.4678C858.177 34.5026 863.394 26.9501 870.616 20.1039C884.087 7.06352 902.086 0 921.289 0C944.104 0 965.313 10.0519 979.243 27.8738C997.586 51.3464 997.586 84.5993 979.243 108.072C965.313 125.948 944.104 136 921.232 136H921.289Z" fill="url(#paint0_linear_543_6730)"/>
<path d="M679.379 279C660.257 279 642.28 271.936 628.712 259.059C621.326 252.05 615.887 243.845 612.452 235.097C609.075 226.513 600.372 220.807 590.697 220.807H590.239C580.392 220.807 571.403 226.241 567.682 234.826C564.533 242.052 559.896 248.736 553.885 254.495C541.633 266.123 525.373 272.48 508.084 272.48C490.794 272.48 474.535 266.068 462.283 254.495C457.416 249.877 453.466 244.606 450.432 238.955C444.764 228.197 433.886 220.862 421.234 220.862H416.425C404.803 220.862 393.524 226.458 388.2 236.293C385.566 241.183 382.074 245.801 377.723 249.931C366.788 260.309 352.246 266.014 336.788 266.014C321.331 266.014 306.789 260.309 295.854 249.931C292.991 247.214 290.472 244.226 288.354 241.129C279.308 227.98 263.049 220.916 246.503 220.916H246.045C229.901 220.916 215.588 228.958 205.683 241.02C204.424 242.541 203.107 244.008 201.619 245.367C191.943 254.495 179.176 259.548 165.493 259.548C151.81 259.548 139.043 254.495 129.368 245.367C127.879 243.954 126.562 242.541 125.303 241.02C114.196 227.599 96.2193 220.916 78.2425 220.916H71.7159C54.0825 220.916 37.995 228.686 25.6288 240.585C25.5715 240.64 25.5142 240.694 25.457 240.748C17.0983 248.681 5.99158 253.028 -5.80212 253.028C-17.5958 253.028 -28.7025 248.681 -37.0612 240.748C-45.4198 232.815 -49.9999 222.274 -49.9999 211.081C-49.9999 199.889 -45.4198 189.348 -37.0612 181.415C-28.7025 173.482 -17.5958 169.135 -5.80212 169.135C5.99158 169.135 17.0983 173.482 25.457 181.415C25.5142 181.469 25.5715 181.523 25.6288 181.578C37.995 193.477 54.1398 201.247 71.7159 201.247H78.2425C96.2193 201.247 114.196 194.564 125.303 181.143C126.562 179.622 127.879 178.209 129.368 176.796C139.043 167.668 151.81 162.615 165.493 162.615C179.176 162.615 191.943 167.668 201.619 176.796C203.107 178.209 204.424 179.676 205.683 181.143C215.588 193.205 229.958 201.247 246.045 201.247H246.503C263.049 201.247 279.308 194.183 288.354 181.034C290.472 177.937 292.991 174.949 295.854 172.232C306.789 161.854 321.331 156.149 336.788 156.149C352.246 156.149 366.788 161.854 377.78 172.286C382.131 176.416 385.566 180.98 388.257 185.87C393.581 195.705 404.86 201.301 416.482 201.301H421.348C434.001 201.301 444.878 193.912 450.546 183.208C453.523 177.557 457.531 172.286 462.397 167.668C474.649 156.04 490.908 149.629 508.198 149.629C525.488 149.629 541.747 156.04 553.999 167.668C560.068 173.427 564.705 180.165 567.854 187.5C571.518 195.976 580.449 201.356 590.067 201.356C600.143 201.356 609.132 195.433 612.739 186.468C616.345 177.503 621.555 169.95 628.769 163.104C642.223 150.064 660.2 143 679.379 143C702.165 143 723.348 153.052 737.26 170.874C755.58 194.346 755.58 227.599 737.26 251.072C723.348 268.948 702.165 279 679.322 279H679.379Z" fill="url(#paint1_linear_543_6730)"/>
</g>
<defs>
<linearGradient id="paint0_linear_543_6730" x1="180.515" y1="68.0146" x2="1210.63" y2="67.4552" gradientUnits="userSpaceOnUse">
<stop stop-color="#F1FAF9"/>
<stop offset="1" stop-color="#3FE0D0" stop-opacity="0.63"/>
</linearGradient>
<linearGradient id="paint1_linear_543_6730" x1="-60.4719" y1="211.015" x2="968.361" y2="210.457" gradientUnits="userSpaceOnUse">
<stop stop-color="#F1FAF9"/>
<stop offset="1" stop-color="#3FE0D0" stop-opacity="0.63"/>
</linearGradient>
<clipPath id="clip0_543_6730">
<rect width="454" height="212" fill="white" transform="matrix(-1 0 0 1 454 0)"/>
</clipPath>
</defs>
</svg>
