<svg width="14" height="14" viewBox="0 0 14 14" fill="none" xmlns="http://www.w3.org/2000/svg">
<g clip-path="url(#clip0_774_908)">
<path d="M11.6669 11.6669C10.4292 12.9046 8.75043 13.6 7 13.6C5.24957 13.6 3.57084 12.9046 2.3331 11.6669C1.09536 10.4292 0.4 8.75043 0.4 7C0.4 5.24957 1.09536 3.57084 2.3331 2.3331C3.57084 1.09536 5.24957 0.4 7 0.4C8.75043 0.4 10.4292 1.09536 11.6669 2.3331C12.9046 3.57084 13.6 5.24957 13.6 7C13.6 8.75043 12.9046 10.4292 11.6669 11.6669Z" fill="#E4F4D8" stroke="#448E4A" stroke-width="0.8"/>
<path d="M9.59685 4.34887C9.59062 4.35491 9.58477 4.36134 9.57935 4.36812L6.54047 8.24L4.7091 6.40775C4.5847 6.29183 4.42016 6.22872 4.25014 6.23172C4.08013 6.23472 3.91792 6.30359 3.79768 6.42383C3.67744 6.54407 3.60857 6.70628 3.60557 6.87629C3.60257 7.0463 3.66568 7.21085 3.7816 7.33525L6.09685 9.65137C6.15922 9.71363 6.23349 9.76269 6.31523 9.79562C6.39698 9.82855 6.48452 9.84468 6.57263 9.84305C6.66074 9.84142 6.74762 9.82205 6.82808 9.78611C6.90855 9.75018 6.98095 9.6984 7.04097 9.63387L10.534 5.26762C10.6529 5.14279 10.7179 4.97616 10.715 4.80376C10.7121 4.63136 10.6414 4.46704 10.5183 4.34633C10.3951 4.22562 10.2295 4.15822 10.057 4.15869C9.88461 4.15917 9.71931 4.22749 9.59685 4.34887Z" fill="#448E4A"/>
</g>
<defs>
<clipPath id="clip0_774_908">
<rect width="14" height="14" fill="white"/>
</clipPath>
</defs>
</svg>
