<svg width="15" height="16" viewBox="0 0 15 16" fill="none" xmlns="http://www.w3.org/2000/svg">
<g clip-path="url(#clip0_729_9823)">
<path d="M7.20078 10V11.6M3.20078 6.42309C3.57792 6.40005 4.04285 6.40005 4.64078 6.40005H9.76078C10.3587 6.40005 10.8237 6.40005 11.2008 6.42309M3.20078 6.42309C2.73013 6.45181 2.39621 6.51645 2.11121 6.66165C1.65961 6.89173 1.29246 7.25885 1.06237 7.71045C0.800781 8.22389 0.800781 8.89589 0.800781 10.24V11.3601C0.800781 12.7042 0.800781 13.3762 1.06237 13.8896C1.29246 14.3412 1.65961 14.7084 2.11121 14.9385C2.62459 15.2001 3.29665 15.2001 4.64078 15.2001H9.76078C11.1049 15.2001 11.7769 15.2001 12.2904 14.9385C12.742 14.7084 13.1091 14.3412 13.3392 13.8896C13.6008 13.3762 13.6008 12.7042 13.6008 11.3601V10.24C13.6008 8.89589 13.6008 8.22389 13.3392 7.71045C13.1091 7.25885 12.742 6.89173 12.2904 6.66165C12.0053 6.51645 11.6714 6.45181 11.2008 6.42309M3.20078 6.42309V4.80005C3.20078 2.59091 4.99165 0.800049 7.20078 0.800049C9.4099 0.800049 11.2008 2.59091 11.2008 4.80005V6.42309" stroke="black" stroke-linecap="round" stroke-linejoin="round"/>
</g>
<defs>
<clipPath id="clip0_729_9823">
<rect width="14.4" height="16" fill="white"/>
</clipPath>
</defs>
</svg>
