<svg width="16" height="16" viewBox="0 0 16 16" fill="none" xmlns="http://www.w3.org/2000/svg">
<path d="M13.3128 15.1932C6.40692 15.1932 0.808594 9.59492 0.808594 2.68905C0.808594 2.37748 0.819993 2.06857 0.842387 1.76271C0.868089 1.4117 0.880941 1.2362 0.972923 1.07643C1.04911 0.944115 1.18412 0.818629 1.32165 0.752309C1.4877 0.672241 1.68137 0.672241 2.0687 0.672241H4.34149C4.66721 0.672241 4.83007 0.672241 4.96969 0.725848C5.09301 0.773203 5.20282 0.850116 5.28947 0.949834C5.38756 1.06272 5.44322 1.21578 5.55453 1.52189L6.49526 4.10892C6.62474 4.46507 6.68952 4.64315 6.67855 4.8121C6.66887 4.96108 6.61797 5.10444 6.53165 5.22624C6.43376 5.36437 6.27128 5.46186 5.94631 5.65683L4.84221 6.3193C5.81181 8.45623 7.54481 10.1915 9.68254 11.1596L10.345 10.0556C10.54 9.73053 10.6375 9.56805 10.7756 9.4702C10.8974 9.38388 11.0407 9.33297 11.1897 9.32329C11.3587 9.31232 11.5368 9.3771 11.893 9.50658L14.48 10.4473C14.786 10.5586 14.9391 10.6143 15.052 10.7124C15.1517 10.799 15.2287 10.9088 15.276 11.0322C15.3296 11.1717 15.3296 11.3346 15.3296 11.6604V13.9331C15.3296 14.3205 15.3296 14.5142 15.2495 14.6802C15.1832 14.8177 15.0577 14.9528 14.9254 15.0289C14.7656 15.1209 14.5902 15.1337 14.2392 15.1594C13.9332 15.1819 13.6244 15.1932 13.3128 15.1932Z" stroke="black" stroke-linecap="round" stroke-linejoin="round"/>
</svg>
