<svg width="43" height="42" viewBox="0 0 43 42" fill="none" xmlns="http://www.w3.org/2000/svg">
<path d="M12.8942 17.8043H2.07158C1.20064 17.8043 0.493234 18.5522 0.493234 19.4701V40.1746C0.493234 41.0925 1.20064 41.8391 2.07158 41.8391H12.8942C13.7638 41.8391 14.4725 41.0925 14.4725 40.1746V19.4701C14.4725 18.5522 13.7638 17.8043 12.8942 17.8043ZM10.1282 19.1727L9.84651 20.0172H5.11925L4.83759 19.1727H10.1282ZM13.0902 40.1746C13.0902 40.342 12.985 40.472 12.8942 40.472H2.07158C1.98073 40.472 1.87559 40.342 1.87559 40.1746V19.4701C1.87559 19.3027 1.98073 19.1727 2.07158 19.1727H3.38125L3.96405 20.9157C4.0575 21.1963 4.32229 21.3855 4.61953 21.3855H10.3449C10.6435 21.3855 10.9083 21.1963 11.0017 20.9157L11.5832 19.1727H12.8942C12.985 19.1727 13.0902 19.3027 13.0902 19.4701V40.1746ZM9.082 38.8938C9.082 39.271 8.77178 39.5773 8.39018 39.5773H6.57429C6.19269 39.5773 5.88377 39.271 5.88377 38.8938C5.88377 38.5153 6.19269 38.209 6.57429 38.209H8.39018C8.77178 38.209 9.082 38.5153 9.082 38.8938ZM18.4093 11.5031V9.40356C18.4093 8.39047 17.6176 7.55632 16.6155 7.47651C15.4395 3.96739 12.523 1.64772 9.20531 1.64772C5.88636 1.64772 2.96979 3.96739 1.79511 7.47651C0.791771 7.55632 0 8.39047 0 9.40356V11.5031C0 12.5703 0.87614 13.4379 1.95347 13.4379C3.0308 13.4379 3.90694 12.5703 3.90694 11.5031V9.40356C3.90694 8.77151 3.59931 8.20897 3.12295 7.85497C4.1211 4.93928 6.5081 3.01609 9.20531 3.01609C11.9012 3.01609 14.2895 4.93928 15.2864 7.85497C14.8113 8.20897 14.5024 8.77151 14.5024 9.40356V11.5031C14.5024 12.5703 15.3785 13.4379 16.4559 13.4379C17.5332 13.4379 18.4093 12.5703 18.4093 11.5031ZM2.52588 11.5031C2.52588 11.8159 2.26888 12.0695 1.95347 12.0695C1.63806 12.0695 1.38235 11.8159 1.38235 11.5031V9.40356C1.38235 9.09204 1.63806 8.83716 1.95347 8.83716C2.26888 8.83716 2.52588 9.09204 2.52588 9.40356V11.5031ZM15.8847 11.5031V9.40356C15.8847 9.09204 16.1404 8.83716 16.4559 8.83716C16.7713 8.83716 17.0283 9.09204 17.0283 9.40356V11.5031C17.0283 11.8159 16.7713 12.0695 16.4559 12.0695C16.1404 12.0695 15.8847 11.8159 15.8847 11.5031ZM36.4189 29.2856H21.9178C18.3782 29.2856 15.4979 32.1382 15.4979 35.6434C15.4979 39.1487 18.3782 42 21.9191 42C24.1334 42 26.1791 40.8736 27.3511 39.0328H30.9868C32.1589 40.8736 34.2032 42 36.4189 42C39.9598 42 42.84 39.1487 42.84 35.6434C42.84 32.1382 39.9598 29.2856 36.4189 29.2856ZM36.4189 40.6316C34.5705 40.6316 32.8728 39.6314 31.9888 38.0223C31.8681 37.8022 31.6358 37.6645 31.3827 37.6645H26.9553C26.7022 37.6645 26.4698 37.8022 26.3491 38.0223C25.4652 39.6314 23.7674 40.6316 21.9191 40.6316C19.1401 40.6316 16.8803 38.3943 16.8803 35.6434C16.8803 32.8925 19.1401 30.6539 21.9191 30.6539H36.4189C39.1979 30.6539 41.4576 32.8925 41.4576 35.6434C41.4576 38.3943 39.1979 40.6316 36.4189 40.6316ZM25.7403 35.6344C25.7403 36.1352 25.3302 36.5419 24.824 36.5419C24.319 36.5419 23.9089 36.1352 23.9089 35.6344C23.9089 35.1337 24.319 34.7282 24.824 34.7282C25.3302 34.7282 25.7403 35.1337 25.7403 35.6344ZM22.8342 38.5128C22.8342 39.0135 22.424 39.419 21.9191 39.419C21.4129 39.419 21.0027 39.0122 21.0027 38.5128C21.0027 38.012 21.4129 37.6052 21.9191 37.6052C22.424 37.6052 22.8342 38.012 22.8342 38.5128ZM19.928 35.6344C19.928 36.1352 19.5178 36.5419 19.0129 36.5419C18.5067 36.5419 18.0965 36.1352 18.0965 35.6344C18.0965 35.1337 18.5067 34.7282 19.0129 34.7282C19.5178 34.7282 19.928 35.1337 19.928 35.6344ZM22.8342 32.7573C22.8342 33.2581 22.424 33.6649 21.9191 33.6649C21.4129 33.6649 21.0027 33.2581 21.0027 32.7573C21.0027 32.2566 21.4129 31.8511 21.9191 31.8511C22.424 31.8511 22.8342 32.2566 22.8342 32.7573ZM40.2414 35.6344C40.2414 36.1352 39.8313 36.5419 39.3251 36.5419C38.8201 36.5419 38.41 36.1352 38.41 35.6344C38.41 35.1349 38.8201 34.7282 39.3251 34.7282C39.8313 34.7282 40.2414 35.1337 40.2414 35.6344ZM37.3352 38.5128C37.3352 39.0122 36.9251 39.419 36.4189 39.419C35.9139 39.419 35.5038 39.0122 35.5038 38.5128C35.5038 38.012 35.9139 37.6052 36.4189 37.6052C36.9251 37.6052 37.3352 38.012 37.3352 38.5128ZM34.4291 35.6344C34.4291 36.1352 34.0189 36.5419 33.514 36.5419C33.0078 36.5419 32.5976 36.1352 32.5976 35.6344C32.5976 35.1349 33.0078 34.7282 33.514 34.7282C34.0189 34.7282 34.4291 35.1337 34.4291 35.6344ZM37.3352 32.7573C37.3352 33.2581 36.9251 33.6649 36.4189 33.6649C35.9139 33.6649 35.5038 33.2581 35.5038 32.7573C35.5038 32.2566 35.9139 31.8511 36.4189 31.8511C36.9251 31.8511 37.3352 32.2566 37.3352 32.7573ZM30.8985 34.7797C30.8985 35.1581 30.5896 35.4645 30.208 35.4645H28.1299C27.7483 35.4645 27.4394 35.1581 27.4394 34.7797C27.4394 34.4025 27.7483 34.0961 28.1299 34.0961H30.208C30.5896 34.0961 30.8985 34.4025 30.8985 34.7797ZM31.7812 32.5166C31.7812 32.8938 31.4722 33.2002 31.0906 33.2002H27.2473C26.8657 33.2002 26.5568 32.8938 26.5568 32.5166C26.5568 32.1382 26.8657 31.8318 27.2473 31.8318H31.0906C31.4722 31.8318 31.7812 32.1382 31.7812 32.5166ZM26.2466 10.0536C26.2466 8.12529 27.8314 6.5561 29.7784 6.5561C30.16 6.5561 30.4689 6.86248 30.4689 7.24094C30.4689 7.61811 30.16 7.92448 29.7784 7.92448C28.5933 7.92448 27.6289 8.87964 27.6289 10.0536C27.6289 11.2276 28.5933 12.1828 29.7784 12.1828C30.16 12.1828 30.4689 12.4892 30.4689 12.8663C30.4689 13.2448 30.16 13.5512 29.7784 13.5512C27.8314 13.5499 26.2466 11.982 26.2466 10.0536ZM29.7784 15.2658C32.6807 15.2658 35.043 12.9268 35.043 10.0536C35.043 7.17915 32.6807 4.84145 29.7784 4.84145C26.8761 4.84145 24.5137 7.17915 24.5137 10.0536C24.5137 12.9268 26.8761 15.2658 29.7784 15.2658ZM29.7784 6.20983C31.9188 6.20983 33.6606 7.93349 33.6606 10.0536C33.6606 12.1725 31.9188 13.8974 29.7784 13.8974C27.638 13.8974 25.8961 12.1725 25.8961 10.0536C25.8961 7.93349 27.638 6.20983 29.7784 6.20983ZM20.4627 14.7767L22.3111 16.0421V16.2673C22.3111 17.0513 22.9562 17.6885 23.7479 17.6885H40.2985C41.0903 17.6885 41.7341 17.0513 41.7341 16.2673V3.83995C41.7341 3.15512 41.2422 2.58228 40.5906 2.44711V0.849603C40.5906 0.471143 40.2804 0.164772 39.8988 0.164772H37.5481C37.1665 0.164772 36.8576 0.471143 36.8576 0.849603V2.41751H35.5388L34.7847 0.441536C34.6822 0.176357 34.4252 0 34.1383 0H25.4963C25.2082 0 24.9512 0.176357 24.8499 0.441536L24.0945 2.41751H23.7479C22.9562 2.41751 22.3124 3.056 22.3124 3.83995V4.08324L20.4666 5.32804C20.2771 5.45548 20.1642 5.6666 20.1642 5.89316V14.2141C20.1642 14.4381 20.2758 14.6492 20.4627 14.7767ZM40.3518 16.2673C40.3518 16.2956 40.3258 16.3201 40.2985 16.3201H37.3262V3.78588H40.2985C40.3258 3.78588 40.3518 3.81163 40.3518 3.83995V16.2673ZM38.2386 1.53315H39.2082V2.41751H38.2386V1.53315ZM25.9727 1.36838H33.6606L34.0617 2.41751H25.5716L25.9727 1.36838ZM23.6934 3.83995C23.6934 3.81163 23.7194 3.78588 23.7479 3.78588H35.9451V16.3201H23.7479C23.7194 16.3201 23.6934 16.2956 23.6934 16.2673V3.83995ZM21.5466 6.25488L22.3111 5.73868V14.3789L21.5466 13.855V6.25488ZM39.5301 6.46213V13.6451C39.5301 14.0236 39.2212 14.33 38.8396 14.33C38.458 14.33 38.1478 14.0236 38.1478 13.6451V6.46213C38.1478 6.08367 38.458 5.7773 38.8396 5.7773C39.2212 5.7773 39.5301 6.08367 39.5301 6.46213ZM26.3738 27.1165H38.3152C40.1298 27.1165 41.6056 25.4945 41.6056 23.5031C41.6056 21.5104 40.1298 19.8897 38.3152 19.8897H26.3738C25.9922 19.8897 25.6832 20.1961 25.6832 20.5733V21.0547H22.716C22.3344 21.0547 22.0255 21.3611 22.0255 21.7395V25.2667C22.0255 25.6439 22.3344 25.9502 22.716 25.9502H25.6832V26.4317C25.6832 26.8101 25.9922 27.1165 26.3738 27.1165ZM27.0643 21.2581H38.3152C39.3679 21.2581 40.2246 22.2647 40.2246 23.5031C40.2246 24.7402 39.3679 25.7481 38.3152 25.7481H27.0643V21.2581ZM23.4066 24.5819V22.4231H25.6832V24.5819H23.4066ZM37.1756 22.2313C37.1756 22.6097 36.8654 22.9161 36.4838 22.9161H28.6997C28.3181 22.9161 28.0092 22.6097 28.0092 22.2313C28.0092 21.8541 28.3181 21.5477 28.6997 21.5477H36.4838C36.8654 21.5477 37.1756 21.8541 37.1756 22.2313Z" fill="#EA5F32"/>
</svg>
