<svg width="60" height="50" viewBox="0 0 60 50" fill="none" xmlns="http://www.w3.org/2000/svg">
<path d="M59.6154 28.8462C59.6154 24.7659 57.9945 20.8528 55.1093 17.9676C52.2242 15.0824 48.311 13.4615 44.2308 13.4615H38.4615V5.76923H45.1923C45.4473 5.76923 45.6919 5.66793 45.8722 5.4876C46.0525 5.30728 46.1538 5.06271 46.1538 4.80769V0.961538C46.1538 0.706523 46.0525 0.461952 45.8722 0.281628C45.6919 0.101305 45.4473 0 45.1923 0H25.9615C25.7065 0 25.462 0.101305 25.2816 0.281628C25.1013 0.461952 25 0.706523 25 0.961538V4.80769C25 5.06271 25.1013 5.30728 25.2816 5.4876C25.462 5.66793 25.7065 5.76923 25.9615 5.76923H32.6923V13.4615H25V12.5C25 12.245 24.8987 12.0004 24.7184 11.8201C24.538 11.6398 24.2935 11.5385 24.0385 11.5385H18.2692C18.0142 11.5385 17.7696 11.6398 17.5893 11.8201C17.409 12.0004 17.3077 12.245 17.3077 12.5V19.2308H12.5C12.245 19.2308 12.0004 19.3321 11.8201 19.5124C11.6398 19.6927 11.5385 19.9373 11.5385 20.1923V25H0.961538C0.706523 25 0.461951 25.1013 0.281628 25.2816C0.101305 25.462 0 25.7065 0 25.9615V31.7308C0 31.9858 0.101305 32.2304 0.281628 32.4107C0.461951 32.591 0.706523 32.6923 0.961538 32.6923H11.5385V37.5C11.5385 37.755 11.6398 37.9996 11.8201 38.1799C12.0004 38.3602 12.245 38.4615 12.5 38.4615H17.3077V45.1923C17.3077 45.4473 17.409 45.6919 17.5893 45.8722C17.7696 46.0525 18.0142 46.1538 18.2692 46.1538H24.0385C24.2935 46.1538 24.538 46.0525 24.7184 45.8722C24.8987 45.6919 25 45.4473 25 45.1923V44.2308H26.9231V49.0385C26.9231 49.2935 27.0244 49.538 27.2047 49.7184C27.385 49.8987 27.6296 50 27.8846 50H35.5769C35.8319 50 36.0765 49.8987 36.2568 49.7184C36.4372 49.538 36.5385 49.2935 36.5385 49.0385V44.2308H38.4615V49.0385C38.4615 49.2935 38.5628 49.538 38.7432 49.7184C38.9235 49.8987 39.1681 50 39.4231 50H47.1154C47.3704 50 47.615 49.8987 47.7953 49.7184C47.9756 49.538 48.0769 49.2935 48.0769 49.0385V43.7212C51.3758 42.8694 54.2987 40.9466 56.3869 38.2545C58.4752 35.5624 59.6107 32.2532 59.6154 28.8462ZM10.1827 26.9231L6.33654 30.7692H3.27885L7.125 26.9231H10.1827ZM4.41346 26.9231L1.92308 29.4135V26.9231H4.41346ZM9.04808 30.7692L11.5385 28.2788V30.7692H9.04808ZM13.4615 36.5385V21.1538H17.3077V36.5385H13.4615ZM23.0769 44.2308H19.2308V13.4615H23.0769V44.2308ZM56.375 34.6154H55.7692V23.0769H56.375C57.2423 24.8765 57.6927 26.8485 57.6927 28.8462C57.6927 30.8438 57.2423 32.8158 56.375 34.6154ZM25 34.6154V23.0769H26.9231V34.6154H25ZM28.8462 23.0769H30.7692V34.6154H28.8462V23.0769ZM32.6923 23.0769H34.6154V34.6154H32.6923V23.0769ZM36.5385 23.0769H38.4615V34.6154H36.5385V23.0769ZM40.3846 23.0769H42.3077V34.6154H40.3846V23.0769ZM44.2308 23.0769H46.1538V34.6154H44.2308V23.0769ZM48.0769 23.0769H50V34.6154H48.0769V23.0769ZM51.9231 23.0769H53.8462V34.6154H51.9231V23.0769ZM33.6538 3.84615H26.9231V1.92308H44.2308V3.84615H37.5C37.245 3.84615 37.0004 3.94746 36.8201 4.12778C36.6398 4.30811 36.5385 4.55268 36.5385 4.80769V13.4615H34.6154V4.80769C34.6154 4.55268 34.5141 4.30811 34.3338 4.12778C34.1534 3.94746 33.9089 3.84615 33.6538 3.84615ZM44.2308 15.3846C46.3977 15.3876 48.5319 15.9136 50.452 16.918C52.3721 17.9224 54.0214 19.3755 55.2596 21.1538H25V15.3846H44.2308ZM34.6154 48.0769H28.8462V44.2308H34.6154V48.0769ZM46.1538 48.0769H40.3846V44.2308H44.2308C44.8739 44.2249 45.5161 44.1799 46.1538 44.0962V48.0769ZM44.2308 42.3077H25V36.5385H55.2596C54.0214 38.3168 52.3721 39.7699 50.452 40.7743C48.5319 41.7787 46.3977 42.3047 44.2308 42.3077Z" fill="rgb(238 93 36)"/>
</svg>
