<svg width="24" height="24" viewBox="0 0 24 24" fill="none" xmlns="http://www.w3.org/2000/svg">
<g opacity="0.7">
<path d="M22.5686 7.40325L17.77 9.58328L14.6643 6.74146V4.92477L17.77 2.08295L22.5686 4.26298C23.0751 4.49655 23.6616 4.27595 23.9015 3.79583C24.1415 3.30273 23.9149 2.73177 23.4217 2.49819L18.1965 0.123523C17.69 -0.110052 17.0902 -0.00624074 16.6903 0.38305L14.371 2.45927C14.1311 2.14783 13.7579 1.94021 13.3313 1.94021C12.5982 1.94021 11.9984 2.52415 11.9984 3.23785V4.53548H7.75961C7.1198 2.78367 5.307 1.58985 3.20095 2.03105C1.65474 2.35545 0.335127 3.65309 0.0552091 5.1843C-0.238038 6.89718 0.668362 8.38945 2.02796 9.18101L5.44029 20.1071H1.33483V24H18.6631V20.1071H13.8378L7.21311 8.12993C7.43971 7.8185 7.62632 7.49409 7.75961 7.13075H11.9984V8.42838C11.9984 9.14208 12.5982 9.72602 13.3313 9.72602C13.7579 9.72602 14.1311 9.5184 14.371 9.20697L16.6903 11.2832C17.0902 11.6725 17.69 11.7763 18.1965 11.5427L23.4217 9.16804C23.9282 8.93446 24.1415 8.3635 23.9015 7.8704C23.6616 7.39028 23.0751 7.16968 22.5686 7.40325ZM4.00072 7.13075C3.2676 7.13075 2.66778 6.54681 2.66778 5.83312C2.66778 5.11942 3.2676 4.53548 4.00072 4.53548C4.73383 4.53548 5.33366 5.11942 5.33366 5.83312C5.33366 6.54681 4.73383 7.13075 4.00072 7.13075Z" fill="#121C22"/>
</g>
</svg>
