<svg width="42" height="42" viewBox="0 0 42 42" fill="none" xmlns="http://www.w3.org/2000/svg">
<path fill-rule="evenodd" clip-rule="evenodd" d="M21.0798 25.3683C20.0956 25.3683 19.2927 24.5709 19.2927 23.5898C19.2927 22.6097 20.0956 21.8124 21.0798 21.8124C22.0659 21.8124 22.8678 22.6097 22.8678 23.5898C22.8678 24.5709 22.0659 25.3683 21.0798 25.3683ZM21.0798 20.5396C19.3899 20.5396 18.014 21.9083 18.014 23.5898C18.014 25.2734 19.3899 26.6421 21.0798 26.6421C22.7716 26.6421 24.1466 25.2734 24.1466 23.5898C24.1466 21.9083 22.7716 20.5396 21.0798 20.5396ZM40.3808 22.1687V18.7904L37.882 17.9829C37.6572 17.9113 37.4911 17.7215 37.4486 17.4914C37.2907 16.6224 37.0578 15.7584 36.7591 14.9226C36.6801 14.7036 36.7298 14.4583 36.8867 14.2837L38.6444 12.3407L36.9464 9.41568L34.3717 9.95971C34.1418 10.0092 33.9039 9.92842 33.752 9.74977C33.1759 9.07856 32.5411 8.4457 31.8648 7.8724C31.6856 7.721 31.6056 7.48482 31.6542 7.2557L32.2019 4.69299L29.2606 3.00436L27.3076 4.75355C27.1334 4.911 26.8864 4.95945 26.6656 4.87971C25.8263 4.58297 24.9576 4.35183 24.0838 4.19336C23.853 4.15097 23.6636 3.98645 23.5897 3.76439L22.7787 1.27638H19.3828L18.5698 3.76439C18.4979 3.98645 18.3076 4.15097 18.0767 4.19336C17.203 4.35183 16.3343 4.58297 15.4959 4.87971C15.2742 4.95945 15.0271 4.90999 14.853 4.75355L12.8999 3.00436L9.95965 4.69299L10.5064 7.2557C10.556 7.48482 10.475 7.721 10.2968 7.8724C9.62047 8.4447 8.98564 9.07654 8.40852 9.74977C8.25665 9.92842 8.0177 10.0092 7.78888 9.95971L5.21413 9.41568L3.51619 12.3407L5.27488 14.2837C5.43181 14.4583 5.48041 14.7036 5.40245 14.9236C5.10377 15.7563 4.87191 16.6203 4.71093 17.4914C4.66941 17.7215 4.50337 17.9103 4.27961 17.9829L1.77978 18.7904V22.1687L4.27961 22.9771C4.50337 23.0498 4.66941 23.2376 4.71093 23.4687C4.8709 24.3367 5.10276 25.2017 5.40245 26.0364C5.48041 26.2565 5.43181 26.5018 5.27488 26.6764L3.51619 28.6183L5.21413 31.5444L7.78888 30.9994C8.01871 30.9519 8.25665 31.0317 8.40852 31.2093C8.98462 31.8825 9.61945 32.5134 10.2968 33.0877C10.475 33.2391 10.556 33.4763 10.5064 33.7044L10.0255 35.9603C10.3889 35.9219 10.7565 35.9481 11.1108 36.039C11.5533 34.8974 12.662 34.1071 13.9539 34.1071C15.3714 34.1071 16.5661 35.0751 16.9043 36.3812C17.5857 35.7473 17.9876 35.1225 18.2944 34.1909C11.7528 32.8808 7.02243 27.1397 7.02243 20.48C7.02243 12.7677 13.3282 6.49264 21.0798 6.49264C28.8314 6.49264 35.1381 12.7677 35.1381 20.48C35.1381 27.1386 30.4078 32.8808 23.8671 34.1909C24.1749 35.1286 24.5728 35.7422 25.2553 36.3812C25.5955 35.0751 26.7902 34.1071 28.2067 34.1071C29.4976 34.1071 30.6062 34.8974 31.0487 36.039C31.4051 35.9481 31.7706 35.9229 32.1351 35.9603L31.6542 33.7044C31.6056 33.4763 31.6856 33.2391 31.8648 33.0877C32.5401 32.5154 33.1749 31.8835 33.752 31.2093C33.9049 31.0327 34.1418 30.9519 34.3717 31.0004L36.9464 31.5444L38.6433 28.6183L36.8867 26.6764C36.7298 26.5028 36.6801 26.2575 36.7591 26.0364C37.0578 25.2037 37.2897 24.3398 37.4486 23.4677C37.4911 23.2376 37.6572 23.0498 37.8809 22.9771L40.3808 22.1687ZM23.3498 30.4664C23.37 31.2991 23.4257 32.15 23.5654 32.9545C29.4743 31.7917 33.8594 26.533 33.8594 20.48C33.8594 13.4692 28.1267 7.76541 21.0798 7.76541C14.0339 7.76541 8.30221 13.4692 8.30221 20.48C8.30221 26.533 12.6863 31.7917 18.5961 32.9545C18.7349 32.15 18.7905 31.2991 18.8118 30.4664H16.6086C16.2543 30.4664 15.9687 30.1808 15.9687 29.8295C15.9687 28.6496 15.9293 27.4879 15.8847 26.3554L12.7663 27.6171C12.3521 27.7846 11.8854 27.4828 11.8854 27.0266V23.3122C11.8854 23.1225 11.9704 22.9428 12.1173 22.8217L15.8553 19.7382C16.1399 16.046 17.2354 12.5376 20.6383 9.29456C20.8854 9.05837 21.2752 9.05837 21.5222 9.29456C24.9252 12.5376 26.0207 16.046 26.3052 19.7382L30.0443 22.8217C30.1901 22.9428 30.2752 23.1225 30.2752 23.3122V27.0266C30.2752 27.4788 29.8145 27.7856 29.3943 27.6171L26.2758 26.3554C26.2323 27.4879 26.1928 28.6496 26.1928 29.8295C26.1928 30.1808 25.9053 30.4664 25.5529 30.4664H23.3498ZM17.6849 16.4861C18.2489 14.4462 19.2725 12.5073 21.0798 10.6511C22.8881 12.5073 23.9127 14.4462 24.4756 16.4861H17.6849ZM26.3862 21.4581L28.9954 23.611V26.0819L26.3285 25.0029C26.3741 23.8068 26.4075 22.6239 26.3862 21.4581ZM15.831 25.0029L13.1642 26.0819V23.611L15.7754 21.4581C15.7531 22.6239 15.7875 23.8068 15.831 25.0029ZM17.2445 29.1937H24.9161C24.9576 25.4096 25.4162 21.2391 24.7693 17.7589H17.3913C16.7443 21.236 17.202 25.4107 17.2445 29.1937ZM31.8121 40.7344H10.3495C9.37342 40.7344 8.58064 39.9451 8.58064 38.9752C8.58064 37.6075 10.0801 36.7819 11.2364 37.4531C11.6373 37.6862 12.1486 37.4258 12.1942 36.9656C12.2833 36.0612 13.0396 35.3799 13.9539 35.3799C15.0798 35.3799 15.9171 36.4165 15.6822 37.5106C15.5638 38.0607 16.1733 38.4846 16.6512 38.1818C17.2961 37.773 17.8722 37.2744 18.3673 36.6971C19.7372 35.0973 20.0369 32.7051 20.0906 30.4664H22.069C22.1226 32.7051 22.4233 35.0973 23.7932 36.6971C24.2873 37.2744 24.8655 37.773 25.5094 38.1818C25.9863 38.4836 26.5978 38.0617 26.4783 37.5106C26.2414 36.4155 27.0818 35.3799 28.2067 35.3799C29.1209 35.3799 29.8773 36.0622 29.9664 36.9656C30.0109 37.4248 30.5232 37.6862 30.9242 37.4531C32.0804 36.7819 33.5799 37.6075 33.5799 38.9752C33.5799 39.9451 32.7861 40.7344 31.8121 40.7344ZM41.2181 17.7235L38.6352 16.8878C38.4935 16.2025 38.3113 15.5222 38.0885 14.857L39.9059 12.8484C40.0912 12.6435 40.1226 12.3428 39.9839 12.1046L37.8222 8.37909C37.6835 8.13988 37.4061 8.01674 37.1358 8.07427L34.4739 8.63647C34.0072 8.11565 33.508 7.61805 32.9836 7.15476L33.5485 4.50626C33.6072 4.23576 33.4827 3.96021 33.2428 3.82294L29.4976 1.67103C29.2576 1.53376 28.9559 1.56505 28.7493 1.74875L26.7315 3.55748C26.0632 3.33644 25.3798 3.15475 24.6903 3.01446L23.8509 0.442663C23.7659 0.181245 23.5199 0.00360107 23.2424 0.00360107H18.9181C18.6407 0.00360107 18.3957 0.181245 18.3096 0.442663L17.4703 3.01446C16.7818 3.15475 16.0973 3.33644 15.4291 3.55748L13.4112 1.74875C13.2047 1.56505 12.9019 1.53376 12.663 1.67103L8.91679 3.82294C8.67784 3.96021 8.55432 4.23576 8.61203 4.50626L9.17801 7.15476C8.65354 7.61805 8.15439 8.11464 7.68662 8.63647L5.02581 8.07427C4.75345 8.01674 4.47704 8.13988 4.33833 8.37909L2.17566 12.1046C2.03695 12.3428 2.07036 12.6435 2.25464 12.8484L4.07205 14.857C3.85031 15.5212 3.66705 16.2015 3.52531 16.8878L0.942456 17.7235C0.67921 17.8083 0.5 18.0536 0.5 18.3281V22.6309C0.5 22.9075 0.678197 23.1518 0.942456 23.2365L3.52531 24.0723C3.66705 24.7566 3.8493 25.4379 4.07205 26.1031L2.25464 28.1116C2.07036 28.3155 2.03695 28.6163 2.17566 28.8545L4.33833 32.581C4.47704 32.8202 4.75446 32.9433 5.02581 32.8848L7.68662 32.3226C8.15337 32.8444 8.65354 33.341 9.17801 33.8063L8.61203 36.4538C8.61001 36.4659 8.60798 36.477 8.60697 36.4892C7.21784 37.4571 6.87967 39.3557 7.86887 40.7344H1.76763C1.41427 40.7344 1.12875 41.0201 1.12875 41.3713C1.12875 41.7226 1.41427 42.0072 1.76763 42.0072H40.3929C40.7463 42.0072 41.0328 41.7226 41.0328 41.3713C41.0328 41.0201 40.7463 40.7344 40.3929 40.7344H34.2917C34.6481 40.2378 34.8587 39.6312 34.8587 38.9752C34.8587 37.9476 34.3423 37.0382 33.5546 36.4892L32.9836 33.8063C33.508 33.342 34.0072 32.8454 34.4739 32.3226L37.1358 32.8848C37.4061 32.9433 37.6835 32.8202 37.8222 32.581L39.9839 28.8545C40.1226 28.6163 40.0912 28.3155 39.9059 28.1116L38.0885 26.1031C38.3102 25.4389 38.4935 24.7586 38.6352 24.0723L41.2191 23.2365C41.4824 23.1518 41.6606 22.9075 41.6606 22.6309V18.3281C41.6606 18.0536 41.4824 17.8083 41.2181 17.7235Z" fill="#EE5D24"/>
</svg>
