<svg width="50" height="50" viewBox="0 0 50 50" fill="none" xmlns="http://www.w3.org/2000/svg">
<path d="M50 22.5708V27.4292C50 28.6993 48.9663 29.7329 47.6963 29.7329C46.5398 29.7329 45.4861 30.1202 44.6474 30.852C44.3523 31.1098 43.9049 31.0791 43.6485 30.7853C43.3908 30.4901 43.4201 30.0427 43.7153 29.785C44.8157 28.8235 46.1926 28.316 47.6963 28.316C48.1851 28.316 48.5831 27.918 48.5831 27.4292V22.5708C48.5831 22.082 48.1851 21.684 47.6963 21.684C45.191 21.684 43.0382 20.2431 42.078 17.926C41.1178 15.6076 41.6226 13.0676 43.3934 11.2967C43.7393 10.9509 43.7393 10.3873 43.3934 10.0414L39.9586 6.60657C39.6127 6.26068 39.0491 6.26068 38.7033 6.60657C36.9324 8.3774 34.3924 8.88088 32.074 7.92067C29.7556 6.96181 28.316 4.80903 28.316 2.30369C28.316 1.8149 27.918 1.41693 27.4292 1.41693H22.5708C22.082 1.41693 21.684 1.8149 21.684 2.30369C21.684 4.80903 20.2444 6.96181 17.926 7.92067C15.6076 8.88088 13.0676 8.3774 11.2967 6.60657C10.9509 6.26068 10.3873 6.26068 10.0414 6.60657L6.60657 10.0414C6.26068 10.3873 6.26068 10.9509 6.60657 11.2967C8.3774 13.0676 8.88221 15.6076 7.92201 17.926C6.96181 20.2431 4.80903 21.684 2.30369 21.684C1.8149 21.684 1.41693 22.082 1.41693 22.5708V27.4292C1.41693 27.918 1.8149 28.316 2.30369 28.316C3.80743 28.316 5.18429 28.8235 6.28472 29.785C6.57986 30.0427 6.60924 30.4901 6.35283 30.7853C6.21261 30.9455 6.01629 31.027 5.81864 31.027C5.65304 31.027 5.48745 30.9696 5.35256 30.852C4.51389 30.1202 3.4602 29.7329 2.30369 29.7329C1.03365 29.7329 0 28.6993 0 27.4292V22.5708C0 21.2994 1.03365 20.2658 2.30369 20.2658C4.22543 20.2658 5.87607 19.1613 6.61191 17.3838C7.34909 15.605 6.96314 13.6565 5.60497 12.2983C4.7062 11.3996 4.7062 9.93857 5.60497 9.0398L9.0398 5.60363C9.93857 4.7062 11.3996 4.7062 12.2983 5.60363C13.6565 6.96181 15.605 7.34909 17.3838 6.61191C19.1627 5.87473 20.2671 4.22409 20.2671 2.30369C20.2671 1.03365 21.3007 0 22.5708 0H27.4292C28.6993 0 29.7329 1.03365 29.7329 2.30369C29.7329 4.22409 30.8373 5.87607 32.6162 6.61191C34.395 7.34909 36.3435 6.96314 37.7017 5.60363C38.6004 4.7062 40.0614 4.7062 40.9602 5.60363L44.395 9.0398C45.2938 9.93857 45.2938 11.3996 44.395 12.2983C43.0369 13.6565 42.6509 15.605 43.3881 17.3838C44.1239 19.1613 45.7746 20.2671 47.6963 20.2671C48.9663 20.2658 50 21.2994 50 22.5708ZM25.7091 17.9621V20.7706H31.3181C31.7094 20.7706 32.0259 21.0884 32.0259 21.4797V25.0053C32.0259 25.3966 31.7094 25.7145 31.3181 25.7145C30.9268 25.7145 30.609 25.3966 30.609 25.0053V22.1875H19.391V25.0053C19.391 25.3966 19.0732 25.7145 18.6819 25.7145C18.2906 25.7145 17.9741 25.3966 17.9741 25.0053V21.4797C17.9741 21.0884 18.2906 20.7706 18.6819 20.7706H24.2909V17.9621C22.8673 17.6389 21.8002 16.3622 21.8002 14.8411V14.3069C17.2169 15.6838 13.8568 19.9372 13.8381 24.9573C13.8368 25.3486 13.519 25.6624 13.1277 25.6624C12.7364 25.6611 12.4199 25.3432 12.4212 24.9519C12.4466 18.0422 18.0903 12.4199 25 12.4199C31.9097 12.4199 37.5521 18.0422 37.5788 24.9519C37.5801 25.3432 37.2636 25.6611 36.8723 25.6624C36.8723 25.6624 36.871 25.6624 36.8697 25.6624C36.4797 25.6624 36.1632 25.3472 36.1619 24.9573C36.1432 19.9372 32.7831 15.6838 28.1998 14.3069V14.8411C28.1998 16.3622 27.1327 17.6389 25.7091 17.9621ZM25 16.6253C25.9829 16.6253 26.7829 15.8253 26.7829 14.8411V13.981C26.2019 13.8876 25.6063 13.8368 25 13.8368C24.3937 13.8368 23.7981 13.8876 23.2171 13.981V14.8411C23.2171 15.8253 24.0171 16.6253 25 16.6253ZM50 40.9201C50 44.0238 47.6549 46.5879 44.6448 46.9404V49.2909C44.6448 49.6822 44.3283 50 43.937 50H6.06437C5.67308 50 5.35524 49.6822 5.35524 49.2909V46.9404C2.34509 46.5879 0 44.0238 0 40.9201C0 37.5761 2.72035 34.8558 6.06303 34.8558H7.13408V26.9778C7.13408 26.5865 7.45192 26.27 7.84322 26.27H16.429C16.8202 26.27 17.1381 26.5865 17.1381 26.9778V34.8558H19.9987V26.9778C19.9987 26.5865 20.3152 26.27 20.7065 26.27H29.2935C29.6848 26.27 30.0013 26.5865 30.0013 26.9778V34.8558H32.8619V26.9778C32.8619 26.5865 33.1798 26.27 33.571 26.27H42.1568C42.5481 26.27 42.8659 26.5865 42.8659 26.9778V34.8558H43.937C47.2796 34.8558 50 37.5761 50 40.9201ZM37.3371 29.1373H38.3908V27.687H37.3371V29.1373ZM34.2788 34.8558H41.449V27.687H39.8077V29.8464C39.8077 30.2377 39.4899 30.5542 39.0986 30.5542H36.6293C36.238 30.5542 35.9201 30.2377 35.9201 29.8464V27.687H34.2788V34.8558ZM24.4738 29.1373H25.5262V27.687H24.4738V29.1373ZM21.4156 34.8558H28.5844V27.687H26.9431V29.8464C26.9431 30.2377 26.6266 30.5542 26.2353 30.5542H23.7647C23.3734 30.5542 23.0569 30.2377 23.0569 29.8464V27.687H21.4156V34.8558ZM11.6092 29.1373H12.6629V27.687H11.6092V29.1373ZM8.55101 34.8558H15.7212V27.687H14.0799V29.8464C14.0799 30.2377 13.762 30.5542 13.3707 30.5542H10.9014C10.5101 30.5542 10.1923 30.2377 10.1923 29.8464V27.687H8.55101V34.8558ZM43.2278 48.5831V46.9832H6.77217V48.5831H43.2278ZM48.5831 40.9201C48.5831 38.3574 46.4984 36.2727 43.937 36.2727H6.06303C3.5016 36.2727 1.41693 38.3574 1.41693 40.9201C1.41693 43.4816 3.5016 45.5662 6.06303 45.5662H43.937C46.4984 45.5662 48.5831 43.4816 48.5831 40.9201ZM47.1661 40.9041C47.1661 42.6856 45.7171 44.1346 43.937 44.1346V44.1493H6.06971C6.06704 44.1493 6.06571 44.1493 6.06303 44.1493C4.28285 44.1493 2.83387 42.7003 2.83387 40.9201C2.83387 39.1386 4.28285 37.6896 6.06303 37.6896C6.06704 37.6896 6.06971 37.6896 6.07372 37.6896L43.9343 37.6749H43.9356C45.7171 37.6749 47.1661 39.1239 47.1661 40.9041ZM18.6886 39.1079C17.6883 39.1079 16.8763 39.9199 16.8763 40.9201C16.8763 41.9191 17.6883 42.7324 18.6886 42.7324C19.6875 42.7324 20.5008 41.9191 20.5008 40.9201C20.5008 39.9199 19.6875 39.1079 18.6886 39.1079ZM15.4581 40.9201C15.4581 40.2471 15.6664 39.6207 16.0203 39.1026L8.73397 39.1066C9.08654 39.6234 9.29354 40.2484 9.29354 40.9201C9.29354 41.5919 9.08787 42.2155 8.73531 42.7324H16.0163C15.6651 42.2155 15.4581 41.5919 15.4581 40.9201ZM21.9177 40.9201C21.9177 41.5919 21.7107 42.2155 21.3595 42.7324H28.6405C28.2893 42.2155 28.0823 41.5919 28.0823 40.9201C28.0823 40.2444 28.2919 39.6167 28.6472 39.0986L21.3542 39.1012C21.7094 39.6194 21.9177 40.2457 21.9177 40.9201ZM31.3128 39.1079C30.3125 39.1079 29.5005 39.9199 29.5005 40.9201C29.5005 41.9191 30.3125 42.7324 31.3128 42.7324C32.3117 42.7324 33.1237 41.9191 33.1237 40.9201C33.1237 39.9199 32.3117 39.1079 31.3128 39.1079ZM34.5419 40.9201C34.5419 41.5919 34.3349 42.2155 33.9837 42.7324H41.2754C40.9175 42.2129 40.7065 41.5825 40.7065 40.9041C40.7065 40.2337 40.9121 39.61 41.2634 39.0932L33.9757 39.0959C34.3323 39.6154 34.5419 40.2431 34.5419 40.9201ZM6.06303 42.7324H6.06704C7.06464 42.731 7.8766 41.9191 7.8766 40.9201C7.8766 39.9225 7.06597 39.1106 6.06838 39.1079H6.06437V39.1066C5.0641 39.1066 4.2508 39.9199 4.2508 40.9201C4.2508 41.9191 5.0641 42.7324 6.06303 42.7324ZM45.7492 40.9041C45.7492 39.9052 44.9359 39.0919 43.937 39.0919H43.9356C42.9367 39.0919 42.1234 39.9052 42.1234 40.9041C42.1234 41.9044 42.9367 42.7177 43.937 42.7177C44.9359 42.7177 45.7492 41.9044 45.7492 40.9041ZM43.937 40.1963C43.5457 40.1963 43.2278 40.5142 43.2278 40.9041C43.2278 41.2941 43.5457 41.6133 43.937 41.6133C44.3269 41.6133 44.6448 41.2941 44.6448 40.9041C44.6448 40.5142 44.3269 40.1963 43.937 40.1963ZM17.9794 40.9201C17.9794 41.3101 18.2973 41.6279 18.6886 41.6279C19.0785 41.6279 19.3964 41.3101 19.3964 40.9201C19.3964 40.5302 19.0785 40.211 18.6886 40.211C18.2973 40.211 17.9794 40.5302 17.9794 40.9201ZM6.06437 41.6279C6.45433 41.6279 6.77217 41.3101 6.77217 40.9201C6.77217 40.5302 6.45433 40.211 6.06437 40.211C5.67308 40.211 5.35524 40.5302 5.35524 40.9201C5.35524 41.3101 5.67308 41.6279 6.06437 41.6279ZM30.6036 40.9201C30.6036 41.3101 30.9215 41.6279 31.3128 41.6279C31.7027 41.6279 32.0206 41.3101 32.0206 40.9201C32.0206 40.5302 31.7027 40.211 31.3128 40.211C30.9215 40.211 30.6036 40.5302 30.6036 40.9201Z" fill="rgb(238 93 36)"/>
</svg>
