<svg width="61" height="50" viewBox="0 0 61 50" fill="none" xmlns="http://www.w3.org/2000/svg">
<path d="M56.9609 18.7311H55.112C53.0853 18.7311 51.4379 20.3549 51.3904 22.3697H44.2911C42.0392 19.3 38.8865 17.1074 35.3309 16.0289V8.24207H42.0273C44.2674 8.24207 46.0926 6.41686 46.0926 4.17682C46.0926 1.93679 44.2674 0.111572 42.0273 0.111572H18.6551C16.4151 0.111572 14.5899 1.93679 14.5899 4.17682C14.5899 6.41686 16.4151 8.24207 18.6551 8.24207H25.3515V16.0289C21.7959 17.0955 18.6551 19.3 16.4032 22.3697H9.292C9.24459 20.3549 7.59716 18.7311 5.57046 18.7311H3.72154C1.67114 18.7311 0 20.4023 0 22.4527V42.7315C0 44.7819 1.67114 46.4531 3.72154 46.4531H5.57046C7.59716 46.4531 9.24459 44.8293 9.292 42.8145H16.4151C19.6507 47.259 24.8063 49.8901 30.3412 49.8901C35.888 49.8901 41.0436 47.259 44.2792 42.8145H51.3904C51.4379 44.8293 53.0853 46.4531 55.112 46.4531H56.9609C59.0113 46.4531 60.6824 44.7819 60.6824 42.7315V22.4527C60.6824 20.4023 59.0113 18.7311 56.9609 18.7311ZM6.81492 42.7315C6.81492 43.4189 6.25788 43.976 5.57046 43.976H3.72154C3.03412 43.976 2.47708 43.4189 2.47708 42.7315V22.4527C2.47708 21.7653 3.03412 21.2082 3.72154 21.2082H5.57046C6.25788 21.2082 6.81492 21.7653 6.81492 22.4527V42.7315ZM17.0551 4.18867C17.0551 3.31162 17.7662 2.6005 18.6433 2.6005H42.0273C42.9044 2.6005 43.6155 3.31162 43.6155 4.18867C43.6155 5.06573 42.9044 5.77685 42.0273 5.77685C35.0346 5.77685 27.8049 5.77685 18.6433 5.77685C17.7781 5.77685 17.0551 5.06573 17.0551 4.18867ZM27.8286 8.25392H32.8657V15.4955C32.0361 15.377 31.1946 15.3059 30.3531 15.3059C29.5116 15.3059 28.6582 15.377 27.8404 15.4955L27.8286 8.25392ZM43.6392 40.3374C43.2244 40.3374 42.8451 40.5389 42.6081 40.8826C39.8703 44.9715 35.2835 47.4012 30.3412 47.4012C25.4108 47.4012 20.824 44.9597 18.0862 40.8707C17.861 40.527 17.4699 40.3255 17.0551 40.3255H9.292V24.8586H17.0432C17.4581 24.8586 17.8373 24.6571 18.0744 24.3134C20.8359 20.2245 25.4345 17.783 30.3531 17.783C35.2835 17.783 39.8703 20.2245 42.6436 24.3134C42.8688 24.6571 43.2599 24.8586 43.6748 24.8586H51.4142V40.3374H43.6392ZM58.2054 42.7315C58.2054 43.4189 57.6483 43.976 56.9609 43.976H55.112C54.4246 43.976 53.8675 43.4189 53.8675 42.7315V22.4527C53.8675 21.7653 54.4246 21.2082 55.112 21.2082H56.9609C57.6483 21.2082 58.2054 21.7653 58.2054 22.4527V42.7315Z" fill="#EA5F32"/>
<path d="M30.3413 23.8395C25.5175 23.8395 21.5945 27.7625 21.5945 32.5863C21.5945 37.4101 25.5175 41.3331 30.3413 41.3331C35.1651 41.3331 39.0881 37.4101 39.0881 32.5863C39.0881 27.7625 35.1651 23.8395 30.3413 23.8395ZM30.3413 38.8679C26.8805 38.8679 24.0716 36.0471 24.0716 32.5981C24.0716 29.1373 26.8923 26.3284 30.3413 26.3284C33.7902 26.3284 36.611 29.1492 36.611 32.5981C36.611 36.0471 33.8021 38.8679 30.3413 38.8679Z" fill="#EA5F32"/>
</svg>
