<svg width="59" height="53" viewBox="0 0 59 53" fill="none" xmlns="http://www.w3.org/2000/svg">
<path d="M43.9593 40.0104C43.5576 40.0104 43.2238 39.6922 43.2098 39.2866C43.1944 38.8713 43.5191 38.5231 43.932 38.5091C43.9635 38.5077 47.1383 38.3685 49.8359 36.7365C50.1906 36.5218 50.6518 36.6365 50.8673 36.991C51.0821 37.3455 50.9674 37.8077 50.6126 38.0224C47.5721 39.8614 44.1314 40.0048 43.9866 40.0104C43.9775 40.0104 43.9684 40.0104 43.9593 40.0104Z" fill="#EE5D24"/>
<path d="M11.293 39.1706C11.1013 39.1706 10.9088 39.0972 10.7626 38.9496L8.88091 37.068C8.58771 36.7743 8.58771 36.2988 8.88091 36.0051C9.17481 35.7114 9.65065 35.7114 9.94385 36.0051L11.8255 37.8868C12.1187 38.1805 12.1187 38.6566 11.8255 38.9496C11.6779 39.0972 11.4847 39.1706 11.293 39.1706Z" fill="#EE5D24"/>
<path d="M25.5038 52.1527C24.5521 52.1527 23.6004 51.7905 22.8755 51.0653L21.6404 49.8305C21.3472 49.5368 21.3472 49.0606 21.6404 48.7676C21.9336 48.4739 22.4094 48.4739 22.7033 48.7676L23.9377 50.0025C24.8012 50.8668 26.2063 50.8654 27.0712 50.0025C27.4897 49.585 27.7199 49.0291 27.7199 48.4362C27.7199 48.1481 27.6653 47.8677 27.5576 47.6013C27.4477 47.3272 27.2833 47.0811 27.0712 46.8685C26.7773 46.5748 26.7773 46.0993 27.0712 45.8056C27.3644 45.512 27.8403 45.512 28.1335 45.8056L30.8835 48.5544C31.302 48.9732 31.8583 49.204 32.4489 49.204C33.0402 49.204 33.5965 48.9732 34.015 48.5544C34.4334 48.1362 34.6643 47.5789 34.6643 46.9874C34.6643 46.3951 34.4334 45.8385 34.0164 45.4211C33.7232 45.1274 33.7232 44.6512 34.0164 44.3582C34.3096 44.0645 34.7854 44.0645 35.0793 44.3582C35.7805 45.0595 36.1667 45.9937 36.1667 46.9874C36.1667 47.981 35.7791 48.9145 35.0779 49.6179C34.3753 50.3192 33.4426 50.7066 32.4489 50.7066C31.4559 50.7066 30.5231 50.3192 29.8206 49.6179L29.1831 48.9802C29.0683 49.7689 28.7059 50.4955 28.1321 51.0667C27.4071 51.7919 26.4554 52.1527 25.5038 52.1527Z" fill="#EE5D24"/>
<path d="M37.851 47.716C36.8993 47.716 35.9477 47.3538 35.2227 46.6287L28.4686 39.8733C28.1754 39.5796 28.1754 39.1034 28.4686 38.8104C28.7618 38.5167 29.2377 38.5167 29.5316 38.8104L36.285 45.5658C37.1485 46.4301 38.5536 46.4301 39.4185 45.5658C40.2827 44.7022 40.2827 43.2968 39.4185 42.4318L32.6644 35.6764C32.3712 35.3827 32.3712 34.9073 32.6644 34.6136C32.9576 34.3199 33.4334 34.3199 33.7266 34.6136L40.4807 41.369C41.9306 42.8192 41.9306 45.1784 40.4807 46.6273C39.7544 47.3538 38.8027 47.716 37.851 47.716Z" fill="#EE5D24"/>
<path d="M41.0321 42.5073C40.0804 42.5073 39.1288 42.1451 38.4052 41.4214C38.112 41.1277 38.112 40.6515 38.4052 40.3585C38.6984 40.0649 39.1743 40.0649 39.4675 40.3585C40.3324 41.2214 41.7361 41.2214 42.5996 40.3585C42.9306 40.0257 43.1461 39.6048 43.2189 39.1426C43.2203 39.1377 43.2203 39.1335 43.2217 39.1286C43.2399 39.0258 43.249 38.9118 43.249 38.7908C43.249 38.2 43.018 37.6434 42.5996 37.2231L31.8757 26.4968C31.1025 25.722 29.9682 25.4262 28.9143 25.722C28.3734 25.8744 27.8871 26.173 27.5092 26.5856L24.1658 30.216C24.1595 30.2237 24.1518 30.2307 24.1448 30.2384C23.3785 31.0048 22.359 31.4278 21.275 31.4278C20.1918 31.4278 19.1709 31.0048 18.4046 30.2384C17.1332 28.9665 16.8449 27.0471 17.6888 25.464C18.7629 23.4439 20.6208 20.6714 23.3743 18.9365C23.3848 18.9302 23.3939 18.9246 23.4044 18.9184C25.6695 17.501 28.1502 17.0234 30.7792 17.501C31.1781 17.5597 36.6264 18.3967 40.9069 21.3272L45.293 19.4295C45.6736 19.2652 46.1159 19.44 46.2803 19.8211C46.4448 20.2015 46.2698 20.6434 45.8892 20.8077L41.1168 22.8726C40.8747 22.9782 40.5927 22.9467 40.3792 22.7915C36.2821 19.8288 30.6092 18.9939 30.5518 18.9862C30.542 18.9848 30.5329 18.9834 30.5231 18.9813C28.2601 18.5673 26.1258 18.9799 24.1777 20.2071C24.1686 20.212 24.1595 20.2182 24.1504 20.2238C21.69 21.7846 20.0015 24.3172 19.0155 26.1695C18.4851 27.1673 18.6663 28.3749 19.4669 29.1756C19.949 29.658 20.5921 29.9237 21.275 29.9237C21.9531 29.9237 22.592 29.6615 23.0734 29.1846L26.4043 25.5668C26.9704 24.95 27.6982 24.5039 28.5078 24.276C30.0843 23.8312 31.7813 24.276 32.938 25.4339L43.6618 36.1603C44.3651 36.8644 44.7507 37.7979 44.7507 38.7908C44.7507 38.9964 44.7339 39.1964 44.701 39.3838C44.5771 40.1572 44.2188 40.862 43.6618 41.42C42.9376 42.1451 41.9838 42.5073 41.0321 42.5073Z" fill="#EE5D24"/>
<path d="M13.6946 21.2413C13.3517 21.2413 13.0431 21.0049 12.9633 20.6567C12.8709 20.2526 13.1236 19.8498 13.5294 19.7568C18.236 18.6835 23.5465 18.8128 23.7928 18.8205C24.2001 18.8296 24.5269 19.1624 24.5269 19.5715C24.5269 19.9931 24.1777 20.3358 23.755 20.3232C23.5374 20.3176 18.3977 20.1889 13.8632 21.2231C13.8072 21.2343 13.7512 21.2413 13.6946 21.2413Z" fill="#EE5D24"/>
<path d="M12.9766 42.0486C12.2895 42.0486 11.6023 41.7864 11.0796 41.2634C10.5722 40.7557 10.293 40.0817 10.293 39.3656C10.293 38.6496 10.5722 37.9741 11.0796 37.4686L13.365 35.1821C13.8723 34.6751 14.5448 34.3961 15.262 34.3961C15.9793 34.3961 16.6532 34.6751 17.1591 35.1821C18.2045 36.2281 18.2045 37.9315 17.1591 38.9776C16.8659 39.2705 16.3901 39.2705 16.0969 38.9776C15.803 38.6839 15.803 38.2077 16.0969 37.914C16.5566 37.4539 16.5566 36.7043 16.0969 36.2435C15.8736 36.0205 15.5762 35.8981 15.2606 35.8981C14.945 35.8981 14.649 36.0205 14.4251 36.2435L12.1397 38.53C11.9165 38.7531 11.794 39.0489 11.794 39.3642C11.794 39.6803 11.9165 39.9775 12.1397 40.2005C12.5994 40.6606 13.3496 40.6606 13.8093 40.2005C14.1032 39.9069 14.5791 39.9069 14.8723 40.2005C15.1655 40.4942 15.1655 40.9697 14.8723 41.2634C14.3509 41.7864 13.6638 42.0486 12.9766 42.0486Z" fill="#EE5D24"/>
<path d="M14.896 45.5945C14.2089 45.5945 13.5217 45.3323 12.9983 44.8093C12.4917 44.3023 12.2125 43.629 12.2125 42.9116C12.2125 42.1948 12.4917 41.5201 12.9983 41.0145L16.0975 37.9141C16.6049 37.4071 17.278 37.1281 17.9946 37.1281C18.7119 37.1281 19.3864 37.4071 19.8923 37.9141C20.9378 38.9601 20.9378 40.6635 19.8923 41.7096C19.5984 42.0025 19.1226 42.0025 18.8294 41.7096C18.5362 41.4159 18.5362 40.9397 18.8294 40.6467C19.2899 40.1859 19.2899 39.4363 18.8294 38.9762C18.6062 38.7532 18.3095 38.6301 17.9939 38.6301C17.6783 38.6301 17.3823 38.7532 17.1577 38.9762L14.0584 42.076C13.8359 42.299 13.7135 42.5962 13.7135 42.9116C13.7135 43.2276 13.8359 43.5234 14.0584 43.7478C14.5189 44.2079 15.2683 44.2079 15.7288 43.7478C16.022 43.4542 16.4978 43.4542 16.7917 43.7478C17.0849 44.0415 17.0849 44.517 16.7917 44.8107C16.2697 45.3337 15.5818 45.5945 14.896 45.5945Z" fill="#EE5D24"/>
<path d="M16.7266 49.2278C16.0395 49.2278 15.3523 48.9656 14.8289 48.4425C13.7834 47.3965 13.7834 45.6938 14.8289 44.6477L18.8294 40.6481C19.8749 39.602 21.5781 39.602 22.6235 40.6481C23.1309 41.155 23.4101 41.8284 23.4101 42.5451C23.4101 43.2625 23.1309 43.9366 22.6235 44.4429L18.6244 48.4425C18.1003 48.9656 17.4131 49.2278 16.7266 49.2278ZM20.7265 41.3641C20.4242 41.3641 20.1212 41.4788 19.891 41.7095L15.8904 45.7092C15.43 46.1693 15.43 46.9196 15.8904 47.3797C16.3509 47.8398 17.1003 47.8398 17.5608 47.3797L21.5599 43.38C21.7824 43.157 21.9049 42.8598 21.9049 42.5437C21.9049 42.2284 21.7824 41.9312 21.5599 41.7081C21.3318 41.4788 21.0288 41.3641 20.7265 41.3641Z" fill="#EE5D24"/>
<path d="M20.6208 50.8003C19.9336 50.8003 19.2465 50.5381 18.7237 50.0151C17.6769 48.9683 17.6769 47.265 18.7237 46.2189C19.0169 45.9259 19.4928 45.9259 19.7867 46.2189C20.0799 46.5126 20.0799 46.9888 19.7867 47.2818C19.3262 47.7426 19.3262 48.4921 19.7874 48.9536C20.2478 49.4144 20.998 49.4144 21.4577 48.9536L24.2966 46.1147C24.5192 45.8917 24.6416 45.5945 24.6416 45.2784C24.6416 44.9631 24.5192 44.6673 24.2966 44.4442C24.0734 44.2212 23.776 44.0974 23.4604 44.0974C23.4604 44.0974 23.4604 44.0974 23.459 44.0974C23.1434 44.0974 22.8474 44.2198 22.6263 44.4428C22.3331 44.7365 21.8566 44.7365 21.5634 44.4428C21.2702 44.1491 21.2702 43.6737 21.5634 43.38C22.0693 42.8737 22.7432 42.5947 23.459 42.5947C23.4604 42.5947 23.4604 42.5947 23.4618 42.5947C24.1791 42.5947 24.8515 42.8751 25.3589 43.3814C25.8662 43.8883 26.1454 44.5617 26.1454 45.2784C26.1454 45.9958 25.8662 46.6699 25.3589 47.1762L22.5206 50.0151C21.9951 50.5381 21.308 50.8003 20.6208 50.8003Z" fill="#EE5D24"/>
<path d="M52.8959 39.6733C51.2025 39.6733 49.6483 38.5419 49.1892 36.8295L44.9683 21.0742C44.7038 20.0868 44.8409 19.054 45.3546 18.1646C45.8682 17.2752 46.6946 16.6389 47.6806 16.3752L51.8008 15.2704C52.201 15.1635 52.6132 15.4012 52.7195 15.8019L58.5374 37.519C58.6444 37.9196 58.4072 38.3315 58.0069 38.4385L53.8868 39.5433C53.5572 39.6321 53.2248 39.6733 52.8959 39.6733ZM48.0703 17.8255C47.472 17.9856 46.9689 18.373 46.6554 18.9156C46.3426 19.4582 46.2593 20.0868 46.4196 20.6854L50.6406 36.4407C50.9743 37.6847 52.257 38.4259 53.4998 38.0916L56.8936 37.1812L51.4642 16.9151L48.0703 17.8255Z" fill="#EE5D24"/>
<path d="M6.40654 39.6671C6.07906 39.6671 5.74527 39.6251 5.41428 39.5356L1.29408 38.4308C0.89382 38.3238 0.655201 37.912 0.763665 37.5113L6.58148 15.7935C6.63327 15.6005 6.75852 15.4376 6.93067 15.3376C7.10281 15.2383 7.30854 15.211 7.50027 15.2614L11.6205 16.3662C13.6638 16.9137 14.8814 19.0226 14.3334 21.0665L10.1132 36.8218C9.65414 38.5336 8.09997 39.6671 6.40654 39.6671ZM5.80265 38.084C7.04543 38.4168 8.32809 37.6756 8.66188 36.4331L12.8828 20.6777C13.2166 19.4338 12.4756 18.1514 11.2321 17.8178L7.83686 16.9074L2.40741 37.1736L5.80265 38.084Z" fill="#EE5D24"/>
<path d="M34.2731 19.8429C34.0884 19.8429 33.903 19.7751 33.7581 19.6388C33.4558 19.3542 33.4425 18.878 33.7266 18.5766C36.1954 15.9579 37.555 12.6393 37.555 9.22772C37.555 7.84882 37.3388 6.48879 36.9119 5.17841C34.0751 5.30357 31.3642 4.15611 29.6526 2.18285C27.9403 4.15611 25.235 5.30497 22.3926 5.17841C21.965 6.48879 21.7488 7.84882 21.7488 9.22772C21.7488 12.5764 23.0643 15.851 25.454 18.4451C25.7346 18.75 25.7164 19.2248 25.4113 19.5066C25.1062 19.7884 24.6311 19.7674 24.3498 19.4639C21.704 16.5907 20.2464 12.9547 20.2464 9.22772C20.2464 7.48241 20.5571 5.76647 21.1694 4.12465C21.2897 3.8037 21.6116 3.60511 21.9517 3.64077C22.2386 3.67084 22.5297 3.68622 22.8166 3.68622C25.3708 3.68622 27.7485 2.47723 29.0242 0.530539C29.1621 0.317969 29.3993 0.191406 29.6526 0.191406C29.9052 0.191406 30.1417 0.319368 30.281 0.530539C31.5546 2.47723 33.933 3.68622 36.4886 3.68622C36.7755 3.68622 37.0659 3.67084 37.3528 3.64077C37.6936 3.60511 38.0155 3.8037 38.1351 4.12465C38.7481 5.76507 39.0581 7.48241 39.0581 9.22772C39.0581 13.0225 37.5536 16.7096 34.8224 19.6073C34.672 19.7639 34.4726 19.8429 34.2731 19.8429Z" fill="#EE5D24"/>
<path d="M27.9053 15.5774C27.7059 15.5774 27.5156 15.4977 27.3749 15.3572L24.699 12.6805C24.4058 12.3875 24.4058 11.9113 24.699 11.6176C24.9929 11.3246 25.4688 11.3246 25.762 11.6176L27.9053 13.7622L33.5405 8.1256C33.8337 7.83191 34.3096 7.83191 34.6035 8.1256C34.8967 8.41858 34.8967 8.89476 34.6035 9.18845L28.4372 15.3558C28.2951 15.4977 28.1048 15.5774 27.9053 15.5774Z" fill="#EE5D24"/>
</svg>
