<svg width="53" height="52" viewBox="0 0 53 52" fill="none" xmlns="http://www.w3.org/2000/svg">
<path d="M52.1096 18.2523L45.7904 11.6439C45.5823 11.4259 45.2624 11.3568 44.9833 11.4693C44.7036 11.5811 44.5207 11.8518 44.5207 12.1526V14.7725C41.2879 14.8824 38.2059 15.9408 35.5665 17.8541C33.2263 19.5506 31.4179 21.7886 30.2625 24.3934V7.76148H32.8994C33.2005 7.76148 33.4714 7.57807 33.5833 7.29919C33.6952 7.01968 33.6261 6.70059 33.4086 6.49269L26.8229 0.203981C26.5382 -0.0679937 26.0894 -0.0679937 25.8046 0.203981L19.2189 6.49269C19.0015 6.70059 18.9317 7.01968 19.0442 7.29919C19.1561 7.57807 19.427 7.76148 19.7281 7.76148H22.365V24.3934C21.2097 21.7886 19.4012 19.5506 17.061 17.8541C14.421 15.9402 11.3397 14.8824 8.10686 14.7725V12.152C8.10686 11.8512 7.92394 11.5811 7.64422 11.4686C7.36513 11.3568 7.04518 11.4259 6.83712 11.6439L0.517975 18.2517C0.245799 18.5368 0.245799 18.9847 0.517975 19.2692L6.83712 25.8776C7.04518 26.095 7.36513 26.1647 7.64422 26.0522C7.92394 25.9404 8.10686 25.6697 8.10686 25.3689V22.6786C10.9738 22.8746 13.5435 24.5385 14.8937 27.0855L14.6661 27.3135C14.0124 27.9667 14.0124 29.0295 14.6661 29.6828C15.5109 30.527 15.4908 31.6023 15.1904 32.3271C14.8899 33.052 14.1431 33.8265 12.9488 33.8265C12.0242 33.8265 11.2724 34.5777 11.2724 35.5016V38.3602C11.2724 39.2842 12.0242 40.0354 12.9488 40.0354C14.1431 40.0354 14.8899 40.8099 15.1904 41.5347C15.4908 42.2596 15.5109 43.3349 14.6661 44.1791C14.0124 44.8323 14.0124 45.8951 14.6661 46.5483L16.6889 48.5696C17.3426 49.2229 18.4062 49.2229 19.0599 48.5696C19.9066 47.7242 20.9821 47.7436 21.7075 48.0439C22.4323 48.3435 23.2067 49.0903 23.2067 50.2863C23.2067 51.2096 23.9591 51.9614 24.8831 51.9614H27.7444C28.6684 51.9614 29.4209 51.2096 29.4209 50.2863C29.4209 49.0922 30.1959 48.346 30.9213 48.0458C31.646 47.7455 32.7228 47.7254 33.567 48.5696C33.8838 48.8862 34.3049 49.0608 34.7525 49.0608C35.2007 49.0608 35.6218 48.8862 35.938 48.5696L37.9614 46.5483C38.6151 45.8951 38.6151 44.8323 37.9614 44.1791C37.1166 43.3349 37.1367 42.2596 37.4372 41.5347C37.7376 40.8099 38.4844 40.0354 39.6787 40.0354C40.6033 40.0354 41.3551 39.2842 41.3551 38.3602V35.5016C41.3551 34.5777 40.6033 33.8265 39.6787 33.8265C38.4844 33.8265 37.7376 33.052 37.4372 32.3271C37.1367 31.6023 37.1166 30.527 37.9614 29.6828C38.6151 29.0295 38.6151 27.9667 37.9614 27.3135L37.7332 27.0855C39.0841 24.5379 41.6537 22.8746 44.5207 22.6786V25.3689C44.5207 25.6697 44.7036 25.9404 44.9833 26.0522C45.2624 26.1641 45.5823 26.095 45.7904 25.8776L52.1096 19.2692C52.3817 18.9847 52.3817 18.5368 52.1096 18.2523ZM21.5654 6.28855L26.3138 1.75417L31.0621 6.28855H29.5258C29.1191 6.28855 28.7891 6.61831 28.7891 7.0247V22.2678C28.5019 22.0386 28.1392 21.9004 27.7444 21.9004H24.8831C24.4884 21.9004 24.125 22.0386 23.8384 22.2678V7.0247C23.8384 6.61831 23.5084 6.28855 23.1017 6.28855H21.5654ZM7.35696 21.1881C6.95467 21.1957 6.63283 21.5229 6.63283 21.9243V23.5329L2.06932 18.7604L6.63283 13.9886V15.4999C6.63283 15.6965 6.71203 15.8849 6.85158 16.0237C6.99175 16.1619 7.18284 16.2373 7.37833 16.236C13.5982 16.1707 19.2623 20.1191 21.3932 25.9203C20.693 26.105 19.7903 26.0221 19.0599 25.2922C18.4062 24.639 17.3426 24.639 16.6889 25.2922L15.9767 26.0039C14.1953 22.9858 10.9147 21.1247 7.35696 21.1881ZM39.6787 35.2988C39.7906 35.2988 39.8817 35.3898 39.8817 35.5016V38.3602C39.8817 38.472 39.7906 38.5631 39.6787 38.5631C38.072 38.5631 36.6917 39.4858 36.0757 40.9713C35.4596 42.4568 35.7834 44.0849 36.9192 45.2205C36.9984 45.2996 36.9984 45.4284 36.9192 45.5069L34.8964 47.5288C34.8474 47.5778 34.7915 47.5879 34.7531 47.5879C34.7148 47.5879 34.6588 47.5778 34.6092 47.5288C33.4733 46.3932 31.844 46.0703 30.3574 46.6859C28.8708 47.3008 27.9468 48.6808 27.9468 50.2863C27.9468 50.3981 27.8563 50.4885 27.7444 50.4885H24.8837C24.7719 50.4885 24.6807 50.3981 24.6807 50.2863C24.6807 48.6789 23.7573 47.2983 22.2713 46.6834C21.7735 46.4774 21.2593 46.3762 20.7533 46.3762C19.7488 46.3762 18.7745 46.7732 18.0184 47.5288C17.9392 47.608 17.8103 47.608 17.7311 47.5288L15.7083 45.5069C15.6291 45.4284 15.6291 45.2996 15.7083 45.2205C16.8448 44.0849 17.1679 42.4568 16.5519 40.9713C15.9365 39.4858 14.5555 38.5631 12.9488 38.5631C12.8369 38.5631 12.7458 38.472 12.7458 38.3602V35.5016C12.7458 35.3898 12.8369 35.2988 12.9488 35.2988C14.5555 35.2988 15.9365 34.3761 16.5519 32.8906C17.1679 31.4051 16.8448 29.777 15.7083 28.6413C15.6291 28.5628 15.6291 28.4341 15.7083 28.3549L17.7311 26.3336C17.8103 26.2545 17.9392 26.2545 18.0184 26.3336C19.1542 27.4687 20.7841 27.7915 22.2707 27.1766C23.7573 26.561 24.6807 25.1817 24.6807 23.5756C24.6807 23.4644 24.7719 23.3733 24.8831 23.3733H27.7444C27.8563 23.3733 27.9468 23.4638 27.9468 23.5756C27.9468 25.1817 28.8702 26.561 30.3574 27.1766C31.844 27.7921 33.4733 27.4687 34.6092 26.333C34.6588 26.284 34.7148 26.274 34.7531 26.274C34.7915 26.274 34.8474 26.2847 34.8964 26.3336L36.9192 28.3549C36.9984 28.4341 36.9984 28.5628 36.9192 28.6413C35.7834 29.777 35.4596 31.4051 36.0757 32.8906C36.691 34.3761 38.072 35.2988 39.6787 35.2988ZM45.9941 23.5329V21.9243C45.9941 21.5229 45.6722 21.1957 45.2706 21.1881C45.2109 21.1869 45.1518 21.1862 45.0921 21.1862C41.6022 21.1862 38.402 23.036 36.6508 26.0039L35.9386 25.2922C35.6218 24.9757 35.2007 24.8017 34.7525 24.8017C34.3049 24.8017 33.8838 24.9757 33.567 25.2922C32.8372 26.0221 31.9339 26.105 31.2337 25.9203C33.347 20.1681 38.9363 16.2354 45.0914 16.2354C45.1436 16.2354 45.1964 16.2354 45.2492 16.236C45.4491 16.2373 45.6358 16.1619 45.7753 16.0231C45.9155 15.8849 45.9941 15.6965 45.9941 15.4999V13.9886L50.5576 18.7604L45.9941 23.5329ZM26.3138 29.2092C22.0526 29.2092 18.5866 32.6732 18.5866 36.9312C18.5866 41.1886 22.0526 44.6527 26.3138 44.6527C30.5749 44.6527 34.0409 41.1886 34.0409 36.9312C34.0409 32.6732 30.5743 29.2092 26.3138 29.2092ZM26.3138 43.1804C22.8654 43.1804 20.06 40.3771 20.06 36.9312C20.06 33.4854 22.8654 30.6821 26.3138 30.6821C29.7622 30.6821 32.5675 33.4854 32.5675 36.9312C32.5675 40.3771 29.7622 43.1804 26.3138 43.1804Z" fill="#EE5D24"/>
</svg>
