<svg width="43" height="42" viewBox="0 0 43 42" fill="none" xmlns="http://www.w3.org/2000/svg">
<path d="M4.69836 37.8001H3.29932V39.1992H4.69836V37.8001Z" fill="#EA5F32"/>
<path d="M7.50093 37.8001H6.10059V39.1992H7.50093V37.8001Z" fill="#EA5F32"/>
<path d="M10.2985 37.8001H8.89941V39.1992H10.2985V37.8001Z" fill="#EA5F32"/>
<path d="M27.0996 37.8001H25.6992V39.1992H27.0996V37.8001Z" fill="#EA5F32"/>
<path d="M29.901 37.8001H28.502V39.1992H29.901V37.8001Z" fill="#EA5F32"/>
<path d="M32.6992 37.8001H31.2988V39.1992H32.6992V37.8001Z" fill="#EA5F32"/>
<path d="M38.2998 37.8001H36.8994V39.1992H38.2998V37.8001Z" fill="#EA5F32"/>
<path d="M40.4001 34.9995H35.4996V33.5992H40.4001C40.7857 33.5992 41.0997 33.9144 41.0997 34.3C41.0997 34.6856 40.7857 34.9995 40.4001 34.9995ZM39.7006 40.5996H35.4996V36.3999H39.7006V40.5996ZM35.4996 30.7998H39.7006V32.2001H35.4996V30.7998ZM34.1005 34.9995H24.3007V30.5093L34.1005 24.9978V34.9995ZM34.1005 40.5996H24.3007V36.3999H34.1005V40.5996ZM23.9529 23.1949C23.7393 23.0698 23.4748 23.0698 23.2586 23.1897L21.7736 24.0234L21.9898 17.4997H26.6103L26.9412 27.4168L24.3007 28.9018V23.7993C24.3007 23.5505 24.1691 23.3213 23.9529 23.1949ZM22.9003 30.1002V32.8996H13.1005V30.5093L22.9003 24.9978V30.1002ZM22.9003 40.5996H20.0997V37.8002C20.0997 37.4146 19.7857 37.0994 19.4001 37.0994H16.6007C16.2152 37.0994 15.8999 37.4146 15.8999 37.8002V40.5996H13.1005V34.3H22.9003V40.5996ZM18.7006 40.5996H17.3003V38.4997H18.7006V40.5996ZM12.7527 23.1949C12.5391 23.0698 12.2746 23.0698 12.0584 23.1897L9.85953 24.4259L10.0901 17.4997H14.7106L15.0532 27.8024L13.1005 28.9018V23.7993C13.1005 23.5505 12.969 23.3213 12.7527 23.1949ZM11.7002 30.1002V34.9995H1.90035V30.5093L11.7002 24.9978V30.1002ZM11.7002 40.5996H1.90035V36.3999H11.7002V40.5996ZM10.1852 14.7003H14.6155L14.6337 15.2031L14.6637 16.0994H10.1396L10.1852 14.7003ZM10.279 11.8996H14.5217L14.5686 13.3H10.2321L10.279 11.8996ZM22.0797 14.8332L22.0849 14.7003H26.5152L26.5256 15.0169L26.5647 16.0994H22.0367L22.0797 14.8332ZM22.1787 11.8996H26.4214L26.4683 13.3H22.1318L22.1787 11.8996ZM41.0997 32.3278V30.1002C41.0997 29.7147 40.7857 29.3994 40.4001 29.3994H35.4996V23.7993C35.4996 23.5505 35.3693 23.3213 35.1531 23.1949C34.9394 23.0698 34.6737 23.0698 34.4587 23.1897L28.3142 26.643L27.7996 11.1779C27.7866 10.7976 27.4779 10.4993 27.1001 10.4993H21.5C21.1222 10.4993 20.8135 10.7976 20.8005 11.1779L20.3459 24.8284L16.4275 27.0312L15.8999 11.1779C15.8869 10.7976 15.5782 10.4993 15.2004 10.4993H9.6003C9.22254 10.4993 8.91381 10.7976 8.90078 11.1779L8.7145 16.778L8.43313 25.227L0.858228 29.4893C0.636778 29.6131 0.5 29.8475 0.5 30.1002V41.2991C0.5 41.6847 0.815241 42 1.20082 42H40.4001C40.7857 42 41.0997 41.6847 41.0997 41.2991V36.2709C41.9125 35.9817 42.5 35.2105 42.5 34.3C42.5 33.3894 41.9125 32.6183 41.0997 32.3278Z" fill="#EA5F32"/>
<path d="M22.1993 6.29962C22.1993 5.14026 23.1412 4.19974 24.3005 4.19974H26.4004C26.786 4.19974 27.0999 3.88581 27.0999 3.50022C27.0999 2.34086 28.0404 1.40035 29.1998 1.40035H34.7999V2.8007C34.7999 3.96006 33.8593 4.90057 32.7 4.90057H30.6001C30.2145 4.90057 29.8993 5.21451 29.8993 5.60009C29.8993 6.75945 28.9588 7.69996 27.7994 7.69996H22.1993V6.29962ZM21.4998 9.10031H27.7994C29.4903 9.10031 30.9036 7.89666 31.2293 6.29962H32.7C34.6305 6.29962 36.2002 4.72992 36.2002 2.8007V0.699523C36.2002 0.313939 35.885 0 35.4994 0H29.1998C27.5102 0 26.0969 1.20365 25.7712 2.8007H24.3005C22.37 2.8007 20.8003 4.36909 20.8003 6.29962V8.39949C20.8003 8.78507 21.1142 9.10031 21.4998 9.10031Z" fill="#EA5F32"/>
<path d="M10.2985 7.00044C10.2985 5.84108 11.239 4.90057 12.3983 4.90057C12.7839 4.90057 13.0992 4.58533 13.0992 4.19974V3.50022C13.0992 2.34086 14.0397 1.40035 15.199 1.40035H18.6992V2.09987C18.6992 3.25923 17.7587 4.19974 16.5994 4.19974C16.2138 4.19974 15.8985 4.51499 15.8985 4.90057V5.60009C15.8985 6.75945 14.958 7.69996 13.7987 7.69996H10.2985V7.00044ZM9.59894 9.10031H13.7987C15.7292 9.10031 17.2989 7.53062 17.2989 5.60009V5.52845C18.8959 5.20409 20.0983 3.78941 20.0983 2.09987V0.699523C20.0983 0.313939 19.7843 0 19.3988 0H15.199C13.2685 0 11.6988 1.56969 11.6988 3.50022V3.57056C10.1018 3.89623 8.89941 5.3096 8.89941 7.00044V8.39949C8.89941 8.78507 9.21335 9.10031 9.59894 9.10031Z" fill="#EA5F32"/>
</svg>
