<svg width="50" height="50" viewBox="0 0 50 50" fill="none" xmlns="http://www.w3.org/2000/svg">
<path d="M24.8179 44.673C24.3943 44.673 23.9099 44.673 23.4862 44.6123C21.8521 44.4909 20.2181 43.5828 19.31 42.2511C18.5841 41.2228 18.3412 40.0125 18.7042 38.9223C19.1886 37.1061 20.036 35.3507 21.1869 32.9907C20.5204 32.6264 19.8551 32.2027 19.2493 31.7184C17.5546 32.9907 15.0732 35.1698 13.8616 37.7119C13.5593 38.3165 13.0142 38.7402 12.3489 38.8616C11.6824 38.983 11.0172 38.7402 10.5935 38.257C9.62469 37.1668 8.29292 35.4721 7.32414 33.4143C6.59818 31.9005 6.59818 30.0843 7.26344 28.6311C7.80853 27.4815 8.71661 26.6948 9.86626 26.3925C11.6824 25.9081 13.62 25.726 16.2228 25.5439C16.2228 25.3023 16.2228 25.1202 16.2228 24.8787C16.2228 24.3336 16.2835 23.7885 16.4037 23.2446C14.1651 22.3365 11.198 21.3678 8.5345 21.5499C7.86924 21.6093 7.20274 21.3071 6.77905 20.762C6.35536 20.2181 6.23519 19.5516 6.47677 18.9458C6.90046 17.5546 7.68713 15.5563 9.01889 13.6795C9.98767 12.3477 11.5623 11.3801 13.1356 11.2587C14.4067 11.1373 15.4968 11.561 16.3442 12.4084C17.676 13.7402 18.7649 15.3754 20.2181 17.4939C20.8227 17.0702 21.5499 16.7072 22.2758 16.4644C22.0343 14.346 21.3678 11.0766 19.7944 8.77732C19.4314 8.23223 19.31 7.50503 19.5516 6.90047C19.7944 6.29467 20.3395 5.87098 21.0048 5.69011C22.3972 5.38659 24.5764 5.08431 26.8162 5.26642C28.4503 5.38659 30.0843 6.29467 30.9924 7.62643C31.7196 8.65592 31.9612 9.86627 31.5982 10.9565C31.1138 12.7726 30.2664 14.5281 29.1168 16.8881C29.782 17.2511 30.4485 17.6747 31.0531 18.1591C32.7478 16.8881 35.2305 14.7089 36.4408 12.1668C36.7431 11.561 37.2882 11.1373 37.9535 11.0172C38.62 10.8958 39.2852 11.1373 39.7089 11.6217C40.6777 12.7119 42.0095 14.4067 42.9783 16.4644C43.7042 17.9783 43.7042 19.7944 43.039 21.2464C42.4939 22.3972 41.5858 23.1839 40.4361 23.4862C38.62 23.9706 36.6824 24.1527 34.0796 24.3336C34.0796 24.5764 34.0796 24.7573 34.0796 25.0001C34.0796 25.5439 34.0189 26.089 33.8987 26.6341C35.835 27.4815 38.983 28.511 41.7679 28.3289C42.4332 28.2682 43.0997 28.5717 43.5233 29.1155C43.947 29.6606 44.0684 30.3271 43.8256 30.9317C43.4019 32.3242 42.6153 34.3212 41.2835 36.198C40.3147 37.5298 38.7414 38.4986 37.1668 38.62C35.8958 38.7402 34.8068 38.3165 33.9594 37.4691C32.6277 36.1373 31.5375 34.5033 30.0843 32.3849C29.4797 32.8085 28.7525 33.1715 28.0266 33.4143C28.2681 35.5328 28.9347 38.8009 30.508 41.1014C30.8722 41.6465 30.9924 42.3725 30.7508 42.9783C30.508 43.5828 29.9641 44.0672 29.2976 44.1886C28.148 44.4302 26.5127 44.673 24.8179 44.673ZM19.2493 29.8427C19.4909 29.8427 19.673 29.9034 19.8551 30.0843C20.5811 30.8103 21.5499 31.4161 22.5186 31.7791C22.7602 31.8398 22.9423 32.0219 23.0018 32.2634C23.0625 32.5063 23.0625 32.7478 23.0018 32.93L22.8209 33.2322C21.5499 35.8351 20.7632 37.5298 20.2181 39.346C19.9753 40.1326 20.2788 40.8598 20.5811 41.2835C21.1869 42.1916 22.3365 42.8569 23.4862 42.9176C25.5452 43.0997 27.5422 42.7962 28.8132 42.4939C28.9347 42.4332 28.9954 42.3725 29.0561 42.3118C29.0561 42.2511 29.1168 42.1309 28.9954 41.9488C27.1185 39.2245 26.3925 35.4721 26.1497 32.8085C26.089 32.3849 26.3925 32.0219 26.7555 31.9005C27.785 31.5982 28.7525 31.1138 29.5999 30.4473C29.782 30.3271 30.0248 30.2057 30.2664 30.2664C30.508 30.3271 30.6901 30.4473 30.8115 30.6294L30.9924 30.9317C32.6277 33.2929 33.6559 34.8663 34.9877 36.198C35.5935 36.8038 36.3194 36.8645 36.8645 36.8038C37.9535 36.6824 39.1044 36.0172 39.7696 35.1091C40.9205 33.4143 41.6465 31.5375 42.0702 30.2664C42.1309 30.145 42.0702 30.0236 42.0095 29.9629C41.9488 29.9034 41.8893 29.8427 41.7072 29.8427C38.3772 30.0843 34.8068 28.874 32.3848 27.7838C32.0219 27.6029 31.8398 27.1792 31.9005 26.8162C32.204 26.2711 32.2634 25.6046 32.2634 25.0001C32.2634 24.5764 32.204 24.2122 32.1433 23.729C32.0826 23.4862 32.1433 23.2446 32.3241 23.0625C32.4456 22.8816 32.6871 22.7602 32.9299 22.7602H33.2929C36.1386 22.5781 38.0749 22.3972 39.891 21.9129C40.7384 21.7307 41.1621 21.0655 41.4049 20.5811C41.8893 19.5516 41.8893 18.2805 41.3442 17.1904C40.4361 15.3147 39.2258 13.7402 38.3177 12.7726C38.1963 12.6512 38.1356 12.6512 38.0142 12.6512C37.9535 12.6512 37.8333 12.7119 37.7119 12.8928C36.2587 15.8586 33.4143 18.3412 31.2352 19.9146C30.9317 20.1574 30.4485 20.0967 30.145 19.8539C29.419 19.1279 28.4503 18.5221 27.4815 18.1591C27.2399 18.0984 27.0578 17.9176 26.9971 17.6747C26.9376 17.4332 26.9376 17.1904 26.9971 17.0095L27.1185 16.7072C28.3896 14.1031 29.1762 12.4084 29.7213 10.5922C29.9641 9.80557 29.6606 9.0796 29.3583 8.65592C28.7525 7.74784 27.6029 7.08134 26.4532 7.02187C24.3943 6.83976 22.3972 7.14204 21.1262 7.44556C21.0048 7.50503 20.9441 7.56573 20.8834 7.62643C20.8834 7.68714 20.8227 7.80854 20.9441 7.98942C22.8209 10.7136 23.5469 14.4674 23.7897 17.1309C23.8504 17.5546 23.5469 17.9176 23.1839 18.039C22.1544 18.3412 21.1869 18.8256 20.3395 19.4909C20.1574 19.6123 19.9146 19.7337 19.673 19.673C19.4314 19.6123 19.2493 19.4909 19.1279 19.31L18.947 19.0065C17.3118 16.6465 16.2835 15.0719 14.9517 13.7402C14.3459 13.1356 13.62 13.0749 13.0749 13.1356C11.9859 13.2558 10.835 13.9223 10.1698 14.8303C9.01889 16.5251 8.29292 18.402 7.86924 19.673C7.80853 19.7944 7.86924 19.9146 7.92994 19.9753C7.99065 20.036 8.05011 20.0967 8.23222 20.0967C11.5623 19.8539 15.1326 21.0655 17.5546 22.1544C17.9176 22.3365 18.0997 22.7602 18.039 23.1232C17.7961 23.729 17.7354 24.3943 17.7354 25.0001C17.7354 25.4238 17.7961 25.7867 17.8568 26.2711C17.9176 26.5127 17.8568 26.7555 17.676 26.9364C17.5546 27.1185 17.3118 27.2399 17.0702 27.2399H16.7072C13.8616 27.4208 11.9252 27.6029 10.1091 28.0873C9.26171 28.2682 8.83802 28.9347 8.5952 29.419C8.11081 30.4473 8.17152 31.7184 8.65591 32.8085C9.56399 34.6854 10.7743 36.2587 11.6824 37.2275C11.8038 37.3489 11.8645 37.3489 11.9859 37.3489C12.0454 37.3489 12.1668 37.2882 12.2882 37.1061C13.7414 34.1403 16.5858 31.6589 18.7649 30.0843C18.8863 29.9034 19.0672 29.8427 19.2493 29.8427Z" fill="rgb(238 93 36)"/>
<path d="M25 50C11.198 50 0 38.8008 0 25C0 11.198 11.198 0 25 0C38.802 0 50 11.198 50 25C50 38.8008 38.802 50 25 50ZM25 1.69475C12.106 1.69475 1.69475 12.1667 1.69475 25C1.69475 37.832 12.106 48.3053 25 48.3053C37.894 48.3053 48.3053 37.832 48.3053 25C48.3053 12.1667 37.894 1.69475 25 1.69475Z" fill="rgb(238 93 36)"/>
<path d="M25 29.9034C22.2758 29.9034 20.0967 27.723 20.0967 25C20.0967 22.2758 22.2758 20.0967 25 20.0967C27.7243 20.0967 29.9034 22.2758 29.9034 25C29.9034 27.723 27.7243 29.9034 25 29.9034ZM25 21.7307C23.1839 21.7307 21.7307 23.1839 21.7307 25C21.7307 26.8162 23.1839 28.2681 25 28.2681C26.8162 28.2681 28.2681 26.8162 28.2681 25C28.2681 23.1839 26.8162 21.7307 25 21.7307Z" fill="rgb(238 93 36)"/>
</svg>
