<svg width="51" height="42" viewBox="0 0 51 42" fill="none" xmlns="http://www.w3.org/2000/svg">
<path d="M36.0878 37.1539C35.6426 37.1539 35.2795 36.7914 35.2795 36.3455C35.2795 35.9009 35.6426 35.5385 36.0878 35.5385C36.5331 35.5385 36.8961 35.9009 36.8961 36.3455C36.8961 36.7914 36.5331 37.1539 36.0878 37.1539ZM36.0878 33.9231C34.748 33.9231 33.6616 35.0078 33.6616 36.3455C33.6616 37.6832 34.748 38.7692 36.0878 38.7692C37.4277 38.7692 38.514 37.6832 38.514 36.3455C38.514 35.0078 37.4277 33.9231 36.0878 33.9231Z" fill="#EA5F32"/>
<path d="M12.6337 37.1539C12.1885 37.1539 11.8241 36.7914 11.8241 36.3455C11.8241 35.9009 12.1885 35.5385 12.6337 35.5385C13.079 35.5385 13.442 35.9009 13.442 36.3455C13.442 36.7914 13.079 37.1539 12.6337 37.1539ZM12.6337 33.9231C11.2939 33.9231 10.2075 35.0078 10.2075 36.3455C10.2075 37.6832 11.2939 38.7692 12.6337 38.7692C13.9736 38.7692 15.0599 37.6832 15.0599 36.3455C15.0599 35.0078 13.9736 33.9231 12.6337 33.9231Z" fill="#EA5F32"/>
<path d="M48.22 36.3455H41.7496C41.7496 35.7942 41.6606 35.2512 41.5058 34.7301H49.0282V35.5385C49.0282 35.983 48.6652 36.3455 48.22 36.3455ZM40.0687 37.0143C39.7467 38.9676 38.0713 40.3846 36.0876 40.3846C34.1039 40.3846 32.4284 38.9676 32.1037 36.9965C32.0626 36.7914 32.0434 36.5698 32.0434 36.3455C32.0434 35.6205 32.227 34.9421 32.59 34.3266C33.3079 33.0805 34.6464 32.3077 36.0876 32.3077C37.5288 32.3077 38.8672 33.0805 39.5851 34.3266L39.5878 34.3334C39.9481 34.9421 40.1317 35.6205 40.1317 36.3455C40.1317 36.5698 40.1125 36.7914 40.0687 37.0143ZM18.2931 36.3455C18.2931 35.7942 18.2054 35.2512 18.0506 34.7301H30.6694C30.5145 35.2512 30.4255 35.7942 30.4255 36.3455H18.2931ZM16.6135 37.0143C16.2902 38.9676 14.6161 40.3846 12.6324 40.3846C10.6487 40.3846 8.97323 38.9676 8.64855 36.9965C8.60745 36.7914 8.58827 36.5698 8.58827 36.3455C8.58827 35.6205 8.77184 34.9421 9.13488 34.3266C9.85138 33.0805 11.1912 32.3077 12.6324 32.3077C13.0968 32.3077 13.5489 32.3857 13.9846 32.5443C14.8846 32.8589 15.6463 33.4908 16.1299 34.3266L16.1327 34.3334C16.493 34.9421 16.6765 35.6205 16.6765 36.3455C16.6765 36.5698 16.6574 36.7914 16.6135 37.0143ZM2.92621 36.3455C2.48097 36.3455 2.11793 35.983 2.11793 35.5385V34.7301H7.2142C7.05939 35.2512 6.97034 35.7942 6.97034 36.3455H2.92621ZM2.73989 29.5721L14.0763 26.9062C13.6626 27.865 13.4407 28.9059 13.4407 29.9564V30.7621C13.1749 30.7238 12.9064 30.6923 12.6324 30.6923C10.7775 30.6923 9.04995 31.6169 8.00329 33.1147H2.11793V30.3545C2.11793 29.9851 2.37959 29.6569 2.73989 29.5721ZM4.81539 26.0103L5.94698 24.4223L5.67573 23.9723C5.0017 22.8424 4.49619 21.621 4.1715 20.3407L4.04136 19.8292L2.11793 19.5077V14.4154L4.04136 14.0926L4.1715 13.5824C4.49619 12.3007 5.0017 11.0806 5.67573 9.95082L5.94698 9.49945L4.81539 7.91279L8.42661 4.3086L10.013 5.43842L10.4651 5.16759C11.5953 4.49599 12.8187 3.9899 14.101 3.66573L14.6134 3.53579L14.9353 1.61538H20.0343L20.3563 3.53579L20.8686 3.66573C22.1509 3.9899 23.3743 4.49599 24.5045 5.16759L24.9566 5.43842L26.5458 4.3086L30.1542 7.91279L29.0227 9.49945L29.2953 9.95082C29.9679 11.0806 30.4734 12.3007 30.7981 13.5824L30.9283 14.0926L32.8517 14.4154V18.7841C31.9174 18.6583 30.9666 18.5762 30.0118 18.5762C29.8323 18.5762 29.6638 18.5831 29.4967 18.5858C29.5693 18.0469 29.6172 17.5039 29.6172 16.9609C29.6172 10.2791 24.173 4.84615 17.4848 4.84615C10.7967 4.84615 5.35241 10.2791 5.35241 16.9609C5.35241 20.6211 6.96349 23.9846 9.72808 26.2688L5.96205 27.1551L4.81539 26.0103ZM18.9479 23.9996C19.7466 23.6221 20.6385 23.4224 21.529 23.4224C21.744 23.4224 21.9427 23.5045 22.1043 23.6686C22.255 23.8177 22.3372 24.016 22.3372 24.2308C22.3372 24.6753 21.9742 25.0378 21.529 25.0378H17.393C17.852 24.6179 18.3794 24.2622 18.9479 23.9996ZM33.4682 20.4953C35.9547 20.9398 38.3494 21.8795 40.4879 23.2172C39.0124 23.6467 37.4904 24.0064 35.9451 24.291C33.175 24.7861 30.3693 25.0378 27.6047 25.0378H23.8072C23.8949 24.782 23.9552 24.5139 23.9552 24.2308C23.9552 23.577 23.699 22.9655 23.2483 22.5292C22.9249 22.1982 22.5235 21.978 22.0824 21.8768C22.218 21.8166 22.3468 21.7441 22.4824 21.6907C23.3866 21.3187 24.2908 21.0219 25.1813 20.8044C26.2896 20.5103 27.4431 20.3243 28.6254 20.245C29.0542 20.2108 29.509 20.1916 30.0118 20.1916C31.1776 20.1916 32.3407 20.2928 33.4682 20.4953ZM11.8104 25.7791C8.78143 23.8355 6.97034 20.5678 6.97034 16.9609C6.97034 11.1709 11.6871 6.46154 17.4848 6.46154C23.2825 6.46154 27.9993 11.1709 27.9993 16.9609C27.9993 17.5476 27.9363 18.1344 27.8376 18.7089C27.2691 18.7664 26.7047 18.8443 26.1485 18.9483C26.2964 18.2958 26.3814 17.6338 26.3814 16.9609C26.3814 12.0614 22.392 8.07692 17.4848 8.07692C15.4436 8.07692 13.4434 8.78955 11.8543 10.0835L12.8749 11.335C14.1955 10.2599 15.7915 9.69231 17.4848 9.69231C21.4974 9.69231 24.7648 12.9504 24.7648 16.9609C24.7648 17.7815 24.6182 18.5886 24.3497 19.3627C23.5318 19.5829 22.7016 19.8538 21.8673 20.1957C19.637 21.1163 17.6054 22.4129 15.8107 24.0229C12.5434 23.2624 10.2062 20.3558 10.2062 16.9609C10.2062 15.2702 10.7747 13.6767 11.8515 12.3582L10.598 11.3392C9.30202 12.9258 8.58827 14.9228 8.58827 16.9609C8.58827 20.6745 10.8788 23.9148 14.2024 25.2183L11.8104 25.7791ZM31.4585 33.1147H17.2478C16.6861 32.3132 15.934 31.6758 15.0586 31.2668V29.9564C15.0586 28.7897 15.3997 27.638 16.0381 26.6532H27.6047C30.1474 26.6532 32.7229 26.4357 35.2793 26.0294V30.7552C33.7367 30.9795 32.3503 31.8372 31.4585 33.1147ZM42.962 25.0474L43.869 25.8462H45.7938C46.0075 25.8462 46.2075 25.9282 46.3678 26.0924C46.4692 26.1895 46.5418 26.3126 46.576 26.448L43.784 30.639C43.5114 31.0356 43.3662 31.5034 43.3662 31.9917V33.1147H40.7167C39.8221 31.8344 38.4343 30.9795 36.8958 30.7552V25.7477C38.6973 25.392 40.4605 24.9407 42.1592 24.3949C42.4278 24.6097 42.7004 24.8203 42.962 25.0474ZM49.0282 28.2685V33.1147H44.9841V31.9917C44.9841 31.8344 45.0321 31.6758 45.1238 31.5445L47.8432 27.4615H48.22C48.6652 27.4615 49.0282 27.824 49.0282 28.2685ZM48.22 25.8462H48.0748C47.9542 25.5083 47.7706 25.2019 47.5117 24.953C47.0596 24.4866 46.45 24.2308 45.7938 24.2308H44.4813L44.0265 23.8327C43.6388 23.4922 43.2306 23.1611 42.8168 22.8479C40.3523 21.0027 37.4808 19.7033 34.4696 19.0536V13.0462L32.227 12.6728C31.9133 11.5977 31.4872 10.5622 30.9475 9.58425L32.2681 7.73907L26.7197 2.19807L24.8717 3.51664C23.8921 2.97772 22.8564 2.55234 21.7783 2.23911L21.4057 0H13.564L13.1913 2.23911C12.1146 2.55234 11.0775 2.97772 10.098 3.51664L8.24989 2.19807L2.70153 7.73907L4.02218 9.58425C3.48241 10.5622 3.05635 11.5977 2.74263 12.6728L0.5 13.0462V20.8769L2.74263 21.2489C3.05635 22.3254 3.48241 23.3595 4.02218 24.3375L2.70153 26.184L4.11123 27.5901L2.37 27.9977C1.28636 28.2494 0.5 29.2411 0.5 30.3545V35.5385C0.5 36.8762 1.58638 37.9609 2.92621 37.9609H7.21694C7.91836 40.3367 10.0925 42 12.6324 42C15.1792 42 17.356 40.3313 18.0506 37.9609H30.6721C31.3735 40.3367 33.5476 42 36.0876 42C38.6343 42 40.8112 40.3313 41.5058 37.9609H48.22C49.5598 37.9609 50.6462 36.8762 50.6462 35.5385V28.2685C50.6462 26.9308 49.5598 25.8462 48.22 25.8462Z" fill="#EA5F32"/>
<path d="M28.8096 29.8839H32.0454V28.2685H28.8096V29.8839Z" fill="#EA5F32"/>
<path d="M48.8472 16.1402H50.6802V17.891H48.8472V16.1402Z" fill="black"/>
<path d="M49.0303 16.1538V17.7692H50.6482V16.1538H49.0303Z" fill="#EA5F32"/>
<path d="M47.41 16.1538H40.1313V17.7692H47.41V16.1538Z" fill="#EA5F32"/>
<path d="M47.409 12.9231H45.7925V14.5384H47.409V12.9231Z" fill="#EA5F32"/>
<path d="M44.1745 12.9231H36.8945V14.5384H44.1745V12.9231Z" fill="#EA5F32"/>
<path d="M44.1751 9.69226H42.5571V11.3076H44.1751V9.69226Z" fill="#EA5F32"/>
<path d="M40.9402 9.69226H33.6616V11.3076H40.9402V9.69226Z" fill="#EA5F32"/>
</svg>
