<svg width="33" height="24" viewBox="0 0 33 24" fill="none" xmlns="http://www.w3.org/2000/svg">
<g opacity="0.7">
<path d="M14.6997 10.3638H5.4445C4.8438 10.3638 4.35596 10.8534 4.35596 11.4549V19.0912C4.35596 19.6928 4.8438 20.1815 5.4445 20.1815H14.6997C15.3004 20.1815 15.7891 19.6928 15.7891 19.0912V11.4549C15.7891 10.8534 15.3004 10.3638 14.6997 10.3638ZM6.89502 11.4549L5.4445 16.3933V11.4549H6.89502ZM5.78738 19.0912L8.02957 11.4549H14.6997L14.7014 19.0912H5.78738Z" fill="#121C22"/>
<path d="M27.2221 10.3638H17.9669C17.3662 10.3638 16.8774 10.8534 16.8774 11.4549V19.0912C16.8774 19.6928 17.3662 20.1815 17.9669 20.1815H27.2221C27.8228 20.1815 28.3106 19.6928 28.3106 19.0912V11.4549C28.3106 10.8534 27.8228 10.3638 27.2221 10.3638ZM27.2221 16.3933L25.7715 11.4549H27.2221V16.3933ZM17.9669 11.4549H24.637L26.88 19.0912H17.9669V11.4549Z" fill="#121C22"/>
<path d="M32.5208 7.09983L32.5113 7.08507C32.4948 7.05642 32.4792 7.02865 32.4592 7.0026L28.5469 0.765625C28.2457 0.286458 27.7283 0 27.1641 0H5.50174C4.9375 0 4.42014 0.286458 4.11892 0.765625L0.206597 7.0026C0.1875 7.02865 0.171875 7.05642 0.154514 7.08507L0.145833 7.09983H0.146701C0.0564236 7.25955 0 7.44097 0 7.63628V10.3637C0 10.9653 0.488715 11.4549 1.08854 11.4549H1.63368C1.93403 11.4549 2.17795 11.6988 2.17795 12V18.5451C2.17795 18.8464 1.93403 19.0911 1.63368 19.0911H1.08854C0.488715 19.0911 0 19.5799 0 20.1814V22.9089C0 23.5104 0.488715 24 1.08854 24H31.5781C32.178 24 32.6667 23.5104 32.6667 22.9089V20.1814C32.6667 19.5799 32.178 19.0911 31.5781 19.0911H31.033C30.7326 19.0911 30.4887 18.8464 30.4887 18.5451V12C30.4887 11.6988 30.7326 11.4549 31.033 11.4549H31.5781C32.178 11.4549 32.6667 10.9653 32.6667 10.3637V7.63628C32.6667 7.44097 32.6102 7.25868 32.52 7.10069H32.5217L32.5208 7.09983ZM5.0408 1.34635C5.14149 1.18663 5.31424 1.09115 5.5026 1.09115H27.1649C27.3533 1.09115 27.5252 1.18663 27.6259 1.34635L30.888 6.54601H1.77951L5.0408 1.34635ZM31.033 10.3637C30.1328 10.3637 29.4002 11.0981 29.4002 12V18.5451C29.4002 19.4479 30.1328 20.1814 31.033 20.1814H31.5781V22.9089H1.08854V20.1814H1.63368C2.53385 20.1814 3.26649 19.4479 3.26649 18.5451V12C3.26649 11.0981 2.53385 10.3637 1.63368 10.3637H1.08854V7.6467L1.09462 7.63628H31.5712L31.5773 7.6467V10.3637H31.033Z" fill="#121C22"/>
</g>
</svg>
