<svg width="31" height="24" viewBox="0 0 31 24" fill="none" xmlns="http://www.w3.org/2000/svg">
<g opacity="0.7">
<path opacity="0.7" d="M0.862022 10.3754C0.838641 10.5012 0.850037 10.6258 0.896018 10.7453L0.89616 10.7457C0.942272 10.8646 1.01776 10.9641 1.12068 11.0377L1.12118 11.038C1.22451 11.1113 1.34162 11.1498 1.46817 11.1498H4.20259L1.02771 14.544L1.02771 14.544L1.02701 14.5448C0.944983 14.6337 0.892248 14.7365 0.868789 14.8498H0.85V14.9998V17.0002C0.85 17.0849 0.865726 17.167 0.896058 17.245C0.926505 17.3239 0.969907 17.3943 1.02777 17.4561C1.08561 17.5178 1.15237 17.5651 1.22781 17.5987L1.22841 17.5989C1.30413 17.6322 1.38374 17.6501 1.46817 17.6501H4.20259L1.02777 21.0442C1.02775 21.0442 1.02773 21.0443 1.02771 21.0443C0.940952 21.1369 0.885443 21.2488 0.86204 21.3747L0.862004 21.3749C0.838679 21.5013 0.849988 21.6259 0.896018 21.7455L0.89616 21.7459C0.942482 21.8653 1.01808 21.9635 1.11994 22.0373L1.12118 22.0382C1.22451 22.1114 1.34162 22.15 1.46817 22.15H22.0485C22.2207 22.15 22.3701 22.0831 22.4886 21.9557C22.4886 21.9556 22.4886 21.9556 22.4886 21.9556L29.9722 13.9559L29.9727 13.9554C30.0585 13.8628 30.1141 13.7523 30.1377 13.6257C30.1622 13.4985 30.1496 13.3735 30.1039 13.2547C30.0576 13.1344 29.9819 13.0357 29.8792 12.9623C29.7751 12.8876 29.6583 12.8502 29.5318 12.8502H26.7973L29.9722 9.456L29.9725 9.45565C30.0898 9.32949 30.1499 9.17529 30.1499 9.00018V6.99982V6.84982H30.1319C30.1252 6.81787 30.1161 6.78623 30.1044 6.75493C30.0749 6.67617 30.0317 6.60411 29.9743 6.54188L29.9735 6.54104C29.9163 6.47999 29.8492 6.43103 29.7707 6.39752C29.6951 6.36523 29.6148 6.34822 29.5302 6.34991H26.7973L29.9722 2.95579C29.9722 2.95577 29.9722 2.95575 29.9722 2.95572C30.0588 2.86327 30.1142 2.75169 30.1377 2.62553C30.1622 2.49832 30.1496 2.37335 30.1039 2.2545C30.0576 2.13421 29.9819 2.03551 29.8792 1.96214L29.8787 1.96179C29.7755 1.88862 29.6591 1.85 29.5318 1.85H8.95206C8.77941 1.85 8.62995 1.91684 8.51139 2.04432C8.51136 2.04436 8.51132 2.0444 8.51129 2.04444L1.02777 10.044C1.02775 10.044 1.02773 10.0441 1.02772 10.0441C0.940903 10.1368 0.885405 10.2488 0.862022 10.3754ZM0.862022 10.3754C0.862028 10.3753 0.862034 10.3753 0.86204 10.3753L1.00951 10.4027L0.862004 10.3755C0.86201 10.3754 0.862016 10.3754 0.862022 10.3754ZM22.4883 17.4561L22.4883 17.456L25.5811 14.15H28.0574L21.7898 20.8502H2.94254L5.93634 17.6501H22.0485C22.2212 17.6501 22.3703 17.582 22.4883 17.4561ZM2.94254 9.85L9.2108 3.14982H28.0574L21.7898 9.85H2.94254ZM2.94254 14.3499L5.93634 11.1498H22.0485C22.2207 11.1498 22.3701 11.0829 22.4886 10.9555C22.4886 10.9554 22.4886 10.9554 22.4886 10.9554L25.5811 7.64973H28.0574L21.7898 14.3499H2.94254ZM2.08566 15.6497H21.4304V16.3503H2.08566V15.6497ZM28.9143 8.73345L22.666 15.4129V15.2658L28.9143 8.58705V8.73345Z" fill="#121C22" stroke="#121C22" stroke-width="0.3"/>
</g>
</svg>
