<svg width="50" height="50" viewBox="0 0 50 50" fill="none" xmlns="http://www.w3.org/2000/svg">
<path d="M49.1672 20.8333H46.263C45.6998 17.974 44.6053 15.3355 42.978 12.9164L45.0349 10.8608C45.1129 10.7815 45.1737 10.6916 45.216 10.5898C45.2583 10.4881 45.2795 10.381 45.2795 10.2713C45.2795 10.1602 45.2583 10.0545 45.216 9.95268C45.1737 9.84957 45.1129 9.75968 45.0349 9.68168L40.321 4.9651C40.243 4.88711 40.1531 4.8263 40.0513 4.78532C39.9482 4.74302 39.8424 4.72187 39.7314 4.72187C39.6217 4.72187 39.5146 4.74302 39.4128 4.78532C39.311 4.8263 39.2211 4.88711 39.1431 4.9651L37.0836 7.022C34.6658 5.39605 32.026 4.3015 29.1667 3.73837V0.834126C29.1667 0.723086 29.1455 0.617333 29.1032 0.514224C29.0609 0.412436 29.0014 0.322547 28.9234 0.244554C28.8441 0.166561 28.7542 0.105753 28.6524 0.0634518C28.5507 0.0211506 28.4436 0 28.3339 0H21.6675C21.5564 0 21.4507 0.0211506 21.3476 0.0634518C21.2458 0.105753 21.1559 0.166561 21.0779 0.244554C20.9999 0.322547 20.9391 0.412436 20.8968 0.514224C20.8545 0.617333 20.8333 0.723086 20.8333 0.834126V3.73837C17.974 4.3015 15.3355 5.39605 12.9164 7.022L10.8582 4.9651C10.7802 4.88711 10.689 4.8263 10.5872 4.78532C10.4854 4.74302 10.3797 4.72187 10.2686 4.72187C10.1576 4.72187 10.0518 4.74302 9.95003 4.78532C9.84824 4.8263 9.75703 4.88711 9.67904 4.9651L4.9651 9.67904C4.88711 9.75703 4.8263 9.84824 4.78532 9.95003C4.74302 10.0518 4.72187 10.1576 4.72187 10.2686C4.72187 10.3797 4.74302 10.4854 4.78532 10.5872C4.8263 10.689 4.88711 10.7802 4.9651 10.8582L7.022 12.9164C5.39605 15.3355 4.3015 17.974 3.73837 20.8333H0.834126C0.723086 20.8333 0.617333 20.8545 0.514224 20.8968C0.412436 20.9391 0.322547 20.9999 0.244554 21.0779C0.166561 21.1559 0.105753 21.2458 0.0634518 21.3476C0.0211506 21.4507 0 21.5564 0 21.6675V28.3339C0 28.4436 0.0211506 28.5507 0.0634518 28.6524C0.105753 28.7542 0.166561 28.8441 0.244554 28.9234C0.322547 29.0014 0.412436 29.0609 0.514224 29.1032C0.617333 29.1455 0.723086 29.1667 0.834126 29.1667H3.73837C4.3015 32.026 5.39605 34.6658 7.022 37.0836L4.9651 39.1431C4.88711 39.2211 4.8263 39.311 4.78532 39.4128C4.74302 39.5146 4.72187 39.6217 4.72187 39.7314C4.72187 39.8424 4.74302 39.9482 4.78532 40.0513C4.8263 40.1531 4.88711 40.243 4.9651 40.321L9.67904 45.0349C9.75703 45.1129 9.84824 45.1737 9.95003 45.216C10.0518 45.2583 10.1576 45.2795 10.2686 45.2795C10.3797 45.2795 10.4854 45.2583 10.5872 45.216C10.689 45.1737 10.7802 45.1129 10.8582 45.0349L12.9164 42.978C15.3355 44.6053 17.974 45.6998 20.8333 46.263V49.1672C20.8333 49.2769 20.8545 49.384 20.8968 49.4858C20.9391 49.5876 20.9999 49.6775 21.0779 49.7568C21.1559 49.8348 21.2458 49.8942 21.3476 49.9366C21.4507 49.9789 21.5564 50 21.6675 50H28.3339C28.4436 50 28.5507 49.9789 28.6524 49.9366C28.7542 49.8942 28.8441 49.8348 28.9234 49.7568C29.0014 49.6775 29.0609 49.5876 29.1032 49.4858C29.1455 49.384 29.1667 49.2769 29.1667 49.1672V46.263C32.026 45.6998 34.6658 44.6053 37.0836 42.978L39.1405 45.0349C39.2185 45.1129 39.3084 45.1737 39.4102 45.216C39.5133 45.2583 39.619 45.2795 39.7301 45.2795C39.8398 45.2795 39.9455 45.2583 40.0486 45.216C40.1504 45.1737 40.2403 45.1129 40.3183 45.0349L45.0323 40.321C45.1102 40.243 45.1711 40.1531 45.2134 40.0513C45.2557 39.9482 45.2768 39.8424 45.2768 39.7314C45.2768 39.6217 45.2557 39.5146 45.2134 39.4128C45.1711 39.311 45.1102 39.2211 45.0323 39.1431L42.978 37.0836C44.6053 34.6658 45.6998 32.026 46.263 29.1667H49.1672C49.2769 29.1667 49.384 29.1455 49.4858 29.1032C49.5876 29.0609 49.6775 29.0014 49.7568 28.9234C49.8348 28.8441 49.8942 28.7542 49.9366 28.6524C49.9789 28.5507 50 28.4436 50 28.3339V21.6675C50 21.5564 49.9789 21.4507 49.9366 21.3476C49.8942 21.2458 49.8348 21.1559 49.7568 21.0779C49.6775 20.9999 49.5876 20.9391 49.4858 20.8968C49.384 20.8545 49.2769 20.8333 49.1672 20.8333ZM48.3331 27.4997H45.565C45.4658 27.4997 45.3707 27.5169 45.2768 27.5513C45.1843 27.5857 45.0997 27.6346 45.0243 27.6993C44.949 27.7628 44.8868 27.8381 44.8379 27.9254C44.7903 28.0113 44.7573 28.1038 44.7414 28.2017C44.4929 29.7338 44.0712 31.2183 43.4764 32.6525C42.8815 34.0868 42.1293 35.4339 41.2212 36.6936C41.163 36.7743 41.1207 36.8615 41.093 36.9567C41.0665 37.0519 41.0573 37.1484 41.0639 37.2475C41.0718 37.3467 41.0969 37.4405 41.1379 37.5304C41.1789 37.6203 41.2344 37.7009 41.3045 37.771L43.2649 39.7314L39.7301 43.2675L37.7683 41.3071C37.6983 41.237 37.6176 41.1815 37.5278 41.1405C37.4379 41.0996 37.344 41.0745 37.2449 41.0665C37.147 41.0599 37.0492 41.0692 36.9541 41.0956C36.8589 41.1234 36.7716 41.1657 36.691 41.2238C35.4325 42.132 34.0855 42.8828 32.6512 43.4777C31.217 44.0712 29.7338 44.4929 28.2017 44.7414C28.1038 44.7573 28.0113 44.7903 27.9254 44.8379C27.8381 44.8868 27.7628 44.949 27.6993 45.0243C27.6346 45.0997 27.5857 45.1843 27.5513 45.2768C27.5169 45.3707 27.4997 45.4658 27.4997 45.565V48.3331H22.5003V45.565C22.5003 45.4658 22.4831 45.3707 22.4487 45.2768C22.4143 45.1843 22.3654 45.0997 22.302 45.0243C22.2372 44.949 22.1619 44.8868 22.0759 44.8379C21.9887 44.7903 21.8975 44.7573 21.7997 44.7414C20.2662 44.4929 18.783 44.0712 17.3475 43.4764C15.9132 42.8815 14.5661 42.1293 13.3064 41.2212C13.2271 41.163 13.1385 41.1207 13.0433 41.093C12.9481 41.0665 12.8516 41.0573 12.7525 41.0639C12.6547 41.0718 12.5595 41.0969 12.4696 41.1379C12.3797 41.1789 12.2991 41.2344 12.229 41.3045L10.2686 43.2649L6.7325 39.7301L8.69422 37.7683C8.76296 37.6983 8.81848 37.6176 8.86078 37.5278C8.90176 37.4379 8.92555 37.344 8.93348 37.2449C8.94141 37.147 8.93216 37.0492 8.9044 36.9541C8.87796 36.8589 8.83566 36.7716 8.7775 36.691C7.86934 35.4325 7.11717 34.0855 6.52364 32.6512C5.92878 31.217 5.50709 29.7338 5.25857 28.2017C5.2427 28.1038 5.21098 28.0113 5.16207 27.9254C5.11316 27.8381 5.05103 27.7628 4.97568 27.6993C4.90033 27.6346 4.81573 27.5857 4.72319 27.5513C4.63066 27.5169 4.53416 27.4997 4.43501 27.4997H1.66693V22.5003H4.43501C4.53416 22.5003 4.63066 22.4831 4.72319 22.4487C4.81573 22.4143 4.90033 22.3654 4.97568 22.302C5.05103 22.2372 5.11316 22.1619 5.16207 22.0759C5.21098 21.9887 5.2427 21.8975 5.25857 21.7997C5.50709 20.2662 5.9301 18.783 6.52364 17.3475C7.1185 15.9132 7.87066 14.5661 8.77882 13.3064C8.83698 13.2271 8.8806 13.1385 8.90704 13.0433C8.93348 12.9481 8.94406 12.8516 8.93613 12.7525C8.92819 12.6547 8.9044 12.5595 8.8621 12.4696C8.82112 12.3797 8.7656 12.2991 8.69554 12.229L6.73514 10.2686L10.2713 6.7325L12.2317 8.69422C12.3017 8.76296 12.3823 8.81848 12.4722 8.86078C12.5621 8.90176 12.656 8.92555 12.7551 8.93348C12.8543 8.94141 12.9508 8.93216 13.0459 8.9044C13.1411 8.87796 13.2297 8.83566 13.309 8.7775C14.5688 7.86934 15.9158 7.11717 17.3501 6.52364C18.7844 5.92878 20.2676 5.50709 21.7997 5.25857C21.8975 5.2427 21.9887 5.21098 22.0759 5.16207C22.1619 5.11316 22.2372 5.05103 22.302 4.97568C22.3654 4.90033 22.4143 4.81573 22.4487 4.72319C22.4831 4.63066 22.5003 4.53416 22.5003 4.43501V1.66693H27.4997V4.43501C27.4997 4.53416 27.5169 4.63066 27.5513 4.72319C27.5857 4.81573 27.6346 4.90033 27.6993 4.97568C27.7628 5.05103 27.8381 5.11316 27.9254 5.16207C28.0113 5.21098 28.1038 5.2427 28.2017 5.25857C29.7338 5.50709 31.2183 5.9301 32.6525 6.52364C34.0868 7.1185 35.4339 7.87066 36.6936 8.77882C36.7743 8.83698 36.8615 8.8806 36.9567 8.90704C37.0519 8.93348 37.1484 8.94406 37.2475 8.93613C37.3467 8.92819 37.4405 8.9044 37.5304 8.8621C37.6203 8.82112 37.7009 8.7656 37.771 8.69554L39.7314 6.73514L43.2675 10.2713L41.3071 12.2317C41.237 12.3017 41.1815 12.3823 41.1405 12.4722C41.0996 12.5621 41.0745 12.656 41.0665 12.7551C41.0599 12.8543 41.0692 12.9508 41.0956 13.0459C41.1234 13.1411 41.1657 13.2297 41.2238 13.309C42.132 14.5688 42.8828 15.9158 43.4777 17.3501C44.0712 18.7844 44.4929 20.2676 44.7414 21.7997C44.7573 21.8975 44.7903 21.9887 44.8379 22.0759C44.8868 22.1619 44.949 22.2372 45.0243 22.302C45.0997 22.3654 45.1843 22.4143 45.2768 22.4487C45.3707 22.4831 45.4658 22.5003 45.565 22.5003H48.3331V27.4997Z" fill="rgb(238 93 36)"/>
<path d="M25 7.50049C24.4607 7.50049 23.9213 7.52428 23.3833 7.57452C22.8453 7.62475 22.3099 7.69878 21.7798 7.79792C21.2484 7.89706 20.7236 8.02132 20.2028 8.16938C19.6833 8.31611 19.1717 8.48796 18.6681 8.6836C18.1644 8.87924 17.6713 9.09736 17.1875 9.33795C16.7037 9.57986 16.2331 9.84292 15.7744 10.1271C15.3144 10.4113 14.8702 10.7167 14.4393 11.0432C14.0083 11.3697 13.5932 11.7147 13.194 12.0783C12.7961 12.4431 12.4141 12.8252 12.0506 13.2244C11.687 13.6249 11.3433 14.04 11.0181 14.4723C10.693 14.9032 10.3889 15.3487 10.106 15.8087C9.82182 16.2687 9.56008 16.7407 9.32081 17.2245C9.08023 17.7096 8.86343 18.2027 8.66911 18.7077C8.47479 19.2113 8.30426 19.7229 8.15753 20.2437C8.0108 20.7632 7.88918 21.2894 7.79136 21.8208C7.69354 22.3522 7.61951 22.8862 7.57192 23.4242C7.52301 23.9623 7.49922 24.5016 7.50054 25.0423C7.50186 25.5816 7.5283 26.1209 7.57986 26.659C7.63141 27.197 7.70808 27.731 7.80855 28.2611C7.91033 28.7925 8.03591 29.3173 8.18529 29.8368C8.33467 30.355 8.50784 30.8666 8.7048 31.3703C8.90177 31.8726 9.1212 32.3657 9.36444 32.8482C9.60635 33.3307 9.87073 33.8013 10.1576 34.26C10.4431 34.7187 10.7498 35.1615 11.0776 35.5924C11.4055 36.0221 11.7518 36.4358 12.1167 36.8324C12.4828 37.2303 12.8662 37.611 13.2667 37.9732C13.6686 38.3354 14.085 38.6778 14.5172 39.0017C14.9495 39.3255 15.3963 39.6282 15.8577 39.9098C16.3177 40.1927 16.7909 40.4518 17.2761 40.6911C17.7612 40.929 18.2556 41.1445 18.7606 41.3375C19.2656 41.5292 19.7771 41.6984 20.298 41.8438C20.8188 41.9879 21.3449 42.1095 21.8763 42.2046C22.0389 42.399 22.2465 42.4981 22.5003 42.5008H27.4997C27.7536 42.4981 27.9611 42.399 28.125 42.2046C28.6564 42.1095 29.1825 41.9879 29.7021 41.8438C30.2229 41.6984 30.7358 41.5292 31.2408 41.3375C31.7457 41.1445 32.2401 40.929 32.7253 40.6911C33.2091 40.4518 33.6823 40.1927 34.1437 39.9098C34.6037 39.6282 35.0505 39.3255 35.4828 39.0017C35.9164 38.6778 36.3328 38.3354 36.7333 37.9732C37.1338 37.611 37.5172 37.2303 37.8834 36.8324C38.2495 36.4358 38.5959 36.0221 38.9224 35.5924C39.2502 35.1615 39.5569 34.7187 39.8438 34.26C40.1293 33.8013 40.3937 33.3307 40.6369 32.8482C40.8788 32.3657 41.0983 31.8726 41.2952 31.3703C41.4922 30.8666 41.6667 30.355 41.8161 29.8368C41.9654 29.3173 42.091 28.7925 42.1915 28.2611C42.2919 27.731 42.3686 27.197 42.4202 26.659C42.4717 26.1209 42.4982 25.5816 42.4995 25.0423C42.5008 24.5016 42.477 23.9623 42.4294 23.4242C42.3805 22.8862 42.3078 22.3522 42.21 21.8208C42.1122 21.2894 41.9892 20.7632 41.8425 20.2437C41.6958 19.7229 41.5252 19.2113 41.3309 18.7077C41.1379 18.2027 40.9198 17.7083 40.6805 17.2245C40.4399 16.7407 40.1782 16.2687 39.8953 15.8087C39.6111 15.3487 39.3071 14.9032 38.9819 14.4723C38.6567 14.04 38.313 13.6249 37.9495 13.2244C37.5859 12.8252 37.2052 12.4431 36.806 12.0783C36.4068 11.7147 35.993 11.3697 35.5621 11.0432C35.1311 10.7167 34.6857 10.4113 34.227 10.1271C33.7683 9.84292 33.2963 9.57986 32.8125 9.33795C32.3287 9.09736 31.8356 8.87924 31.332 8.6836C30.8283 8.48796 30.3167 8.31611 29.7972 8.16938C29.2777 8.02132 28.7516 7.89706 28.2215 7.79792C27.6901 7.69878 27.156 7.62475 26.618 7.57452C26.08 7.52428 25.5407 7.50049 25 7.50049ZM27.1944 25.8724C27.0358 25.9359 26.9075 26.0377 26.811 26.1791C26.7145 26.3206 26.6669 26.4765 26.6669 26.6471V40.7439C25.5552 40.8642 24.4448 40.8642 23.3331 40.7439V26.6471C23.3331 26.4765 23.2855 26.3206 23.189 26.1791C23.0925 26.0377 22.9656 25.9359 22.8056 25.8724C22.5413 25.772 22.2861 25.6517 22.0389 25.5129C21.7917 25.3727 21.5578 25.2154 21.3343 25.0409C21.1109 24.8664 20.9021 24.6761 20.7078 24.4699C20.5134 24.2637 20.335 24.0442 20.1737 23.8116C20.0124 23.5789 19.8697 23.3357 19.7441 23.0805C19.6198 22.8267 19.5141 22.5637 19.4295 22.294C19.3435 22.023 19.2788 21.7481 19.2352 21.4691C19.1915 21.1889 19.1691 20.9073 19.1664 20.6231C19.1704 19.8789 19.3171 19.165 19.6053 18.479C19.8948 17.7929 20.3033 17.1888 20.8333 16.6666V18.1855C20.8333 18.4591 20.8598 18.7301 20.914 18.9985C20.9669 19.2668 21.0462 19.5272 21.1506 19.7797C21.255 20.0322 21.3833 20.2728 21.5353 20.5002C21.6873 20.7275 21.8605 20.9377 22.0535 21.132C22.2478 21.325 22.458 21.4982 22.6853 21.6502C22.9127 21.8023 23.1533 21.9305 23.4058 22.0349C23.6583 22.1393 23.9187 22.2187 24.187 22.2715C24.4554 22.3257 24.7264 22.3522 25 22.3522C25.2736 22.3522 25.5446 22.3257 25.813 22.2715C26.0813 22.2187 26.3418 22.1393 26.5942 22.0349C26.848 21.9305 27.0873 21.8023 27.3147 21.6502C27.542 21.4982 27.7536 21.325 27.9466 21.132C28.1396 20.9377 28.3127 20.7275 28.4647 20.5002C28.6168 20.2728 28.745 20.0322 28.8494 19.7797C28.9538 19.5272 29.0332 19.2668 29.0874 18.9985C29.1402 18.7301 29.1667 18.4591 29.1667 18.1855V16.6666C29.6968 17.1888 30.1066 17.7929 30.3947 18.479C30.6842 19.1637 30.8296 19.8789 30.8336 20.6231C30.8323 20.906 30.8098 21.1876 30.7649 21.4678C30.7212 21.7481 30.6565 22.023 30.5719 22.2927C30.4859 22.5637 30.3815 22.8254 30.2559 23.0805C30.1317 23.3344 29.9889 23.5789 29.8263 23.8116C29.665 24.0442 29.4879 24.2637 29.2936 24.4699C29.0979 24.6761 28.8891 24.8664 28.667 25.0409C28.4436 25.2154 28.2083 25.3727 27.9624 25.5129C27.7152 25.6517 27.4588 25.772 27.1944 25.8724ZM28.3339 40.4729V27.1917C28.6353 27.0502 28.9248 26.8877 29.2037 26.7066C29.4826 26.5254 29.7483 26.3258 29.9995 26.1077C30.252 25.8896 30.4873 25.6556 30.7067 25.4045C30.9261 25.1546 31.1271 24.8902 31.3095 24.6126C31.4919 24.3337 31.6558 24.0455 31.7986 23.7441C31.9414 23.4441 32.063 23.1347 32.1635 22.8175C32.2639 22.5002 32.3432 22.1777 32.3988 21.8498C32.4543 21.522 32.4886 21.1915 32.4992 20.8584C32.5098 20.5253 32.4966 20.1935 32.4622 19.863C32.4265 19.5325 32.3683 19.2047 32.289 18.8822C32.2084 18.5583 32.1066 18.2423 31.9823 17.9343C31.8594 17.625 31.7153 17.3263 31.5501 17.0368C31.3848 16.7473 31.2011 16.471 30.9988 16.2066C30.7953 15.9435 30.5758 15.695 30.3379 15.461C30.1013 15.2284 29.8488 15.0116 29.5818 14.8133C29.3147 14.6137 29.0358 14.4352 28.7437 14.274C28.6802 14.2383 28.6128 14.2118 28.5427 14.1933C28.4727 14.1748 28.4 14.1656 28.3273 14.1669C28.2546 14.1669 28.1832 14.1775 28.1131 14.196C28.0431 14.2158 27.977 14.2436 27.9135 14.2806C27.8501 14.3163 27.7932 14.3612 27.7417 14.4128C27.6914 14.4643 27.6465 14.5225 27.6108 14.5846C27.5751 14.6481 27.5473 14.7155 27.5288 14.7855C27.509 14.8556 27.4997 14.927 27.4997 14.9997V18.1855C27.4997 18.3507 27.4839 18.5133 27.4522 18.6733C27.4204 18.8346 27.3728 18.9905 27.3094 19.1426C27.2473 19.2946 27.1706 19.4387 27.0794 19.5748C26.9882 19.711 26.8837 19.8379 26.7674 19.9542C26.6524 20.0692 26.5255 20.1737 26.3893 20.2649C26.2532 20.3561 26.1091 20.4328 25.9571 20.4962C25.8051 20.5583 25.6491 20.6059 25.4878 20.6377C25.3265 20.6694 25.1639 20.6866 25 20.6866C24.8361 20.6866 24.6735 20.6694 24.5122 20.6377C24.351 20.6059 24.195 20.5583 24.0429 20.4962C23.8922 20.4328 23.7482 20.3561 23.6107 20.2649C23.4745 20.1737 23.3489 20.0692 23.2326 19.9542C23.1163 19.8379 23.0132 19.711 22.922 19.5748C22.8308 19.4387 22.7528 19.2946 22.6906 19.1426C22.6272 18.9905 22.5809 18.8346 22.5479 18.6733C22.5161 18.5133 22.5003 18.3507 22.5003 18.1855V14.9997C22.5003 14.927 22.491 14.8556 22.4725 14.7855C22.454 14.7155 22.4262 14.6481 22.3892 14.5846C22.3535 14.5225 22.3099 14.4643 22.2584 14.4128C22.2068 14.3612 22.15 14.3163 22.0865 14.2806C22.0244 14.2436 21.957 14.2158 21.8869 14.196C21.8168 14.1775 21.7455 14.1669 21.6728 14.1669C21.6001 14.1656 21.5287 14.1748 21.4573 14.1933C21.3872 14.2118 21.3198 14.2383 21.2564 14.274C20.9655 14.4352 20.6853 14.6137 20.4183 14.8133C20.1512 15.0116 19.9001 15.2284 19.6621 15.461C19.4255 15.695 19.2047 15.9435 19.0025 16.2066C18.7989 16.471 18.6152 16.7473 18.4499 17.0368C18.286 17.3263 18.1406 17.625 18.0177 17.9343C17.8934 18.2423 17.7916 18.5583 17.7123 18.8822C17.6317 19.2047 17.5735 19.5325 17.5391 19.863C17.5034 20.1935 17.4916 20.5253 17.5021 20.8584C17.5127 21.1915 17.5457 21.522 17.6013 21.8498C17.6581 22.1777 17.7361 22.5002 17.8366 22.8175C17.937 23.1347 18.0587 23.4441 18.2014 23.7441C18.3455 24.0455 18.5081 24.3337 18.6905 24.6126C18.8743 24.8902 19.0752 25.1546 19.2946 25.4045C19.5141 25.6556 19.7494 25.8896 20.0005 26.1077C20.2517 26.3258 20.5174 26.5254 20.7963 26.7066C21.0753 26.8877 21.3661 27.0502 21.6675 27.1917V40.4729C21.3515 40.4055 21.0396 40.3289 20.7289 40.2416C20.4183 40.1544 20.1116 40.0579 19.8075 39.9521C19.5022 39.8464 19.2021 39.7313 18.9047 39.6084C18.6072 39.4842 18.3138 39.3506 18.0243 39.2092C17.7348 39.0664 17.4506 38.9157 17.1703 38.7571C16.8901 38.5972 16.6151 38.4306 16.3455 38.2535C16.0758 38.0776 15.8114 37.8939 15.5536 37.7009C15.2945 37.5092 15.042 37.3096 14.7962 37.1007C14.549 36.8932 14.3097 36.6791 14.0757 36.457C13.8431 36.2336 13.617 36.0049 13.3976 35.7683C13.1782 35.533 12.9666 35.2897 12.7618 35.0412C12.5582 34.7927 12.3612 34.5376 12.1722 34.2758C11.9831 34.0154 11.802 33.7484 11.6302 33.4761C11.457 33.2037 11.2931 32.9275 11.1371 32.6446C10.9825 32.363 10.8344 32.0762 10.6969 31.7853C10.5581 31.4945 10.4299 31.1997 10.3096 30.8997C10.1893 30.6009 10.0783 30.2995 9.97648 29.9928C9.87469 29.6875 9.78216 29.3795 9.7002 29.0675C9.61692 28.7555 9.54289 28.4422 9.47944 28.1263C9.41599 27.8103 9.36179 27.4931 9.31817 27.1745C9.27322 26.8546 9.23885 26.5347 9.21374 26.2135C9.18862 25.8923 9.17408 25.571 9.16879 25.2485C9.16351 24.9259 9.16879 24.6047 9.18333 24.2822C9.19788 23.9609 9.22167 23.6397 9.25604 23.3185C9.29041 22.9986 9.33403 22.68 9.38691 22.3614C9.44111 22.0442 9.50456 21.7282 9.57726 21.4149C9.64997 21.1003 9.73193 20.7897 9.82446 20.4803C9.91567 20.171 10.0175 19.8657 10.1272 19.5629C10.2382 19.2602 10.3585 18.9615 10.4867 18.6667C10.6163 18.3706 10.7538 18.0798 10.9005 17.7929C11.0459 17.506 11.2019 17.2232 11.3658 16.9456C11.5297 16.6693 11.7016 16.397 11.8814 16.1299C12.0625 15.8629 12.2502 15.6012 12.4471 15.346C12.6428 15.0909 12.8477 14.8411 13.0592 14.5978C13.2707 14.3546 13.4888 14.1193 13.7148 13.8893C13.9409 13.6593 14.1736 13.4372 14.4141 13.2217C14.6534 13.0063 14.8993 12.7987 15.1518 12.5978C15.4043 12.3969 15.662 12.2052 15.9264 12.0201C16.1895 11.835 16.4591 11.6592 16.7341 11.4913C17.0091 11.3221 17.288 11.1635 17.5735 11.0115C17.8577 10.8608 18.1472 10.718 18.4394 10.5845C18.7328 10.451 19.0303 10.3267 19.3317 10.2117C19.6317 10.0967 19.9358 9.98965 20.2438 9.89315C20.5505 9.79665 20.8611 9.7094 21.1731 9.63141C21.4864 9.55342 21.801 9.48468 22.1169 9.42651C22.4342 9.36835 22.7528 9.31812 23.0727 9.27978C23.3926 9.24012 23.7125 9.21104 24.035 9.19121C24.3562 9.17139 24.6775 9.16213 25 9.16213C25.3226 9.16213 25.6438 9.17139 25.9663 9.19121C26.2876 9.21104 26.6088 9.24012 26.9287 9.27978C27.2473 9.31812 27.5658 9.36835 27.8831 9.42651C28.2004 9.48468 28.515 9.55342 28.8269 9.63141C29.1402 9.7094 29.4496 9.79665 29.7576 9.89315C30.0643 9.98965 30.3683 10.0967 30.6697 10.2117C30.9698 10.3267 31.2672 10.451 31.5607 10.5845C31.8541 10.718 32.1423 10.8608 32.4278 11.0115C32.712 11.1635 32.991 11.3221 33.2659 11.4913C33.5409 11.6592 33.8106 11.835 34.0749 12.0201C34.3393 12.2052 34.5971 12.3969 34.8496 12.5978C35.1021 12.7987 35.3479 13.0063 35.5872 13.2217C35.8265 13.4372 36.0591 13.6593 36.2852 13.8893C36.5112 14.1193 36.7307 14.3546 36.9422 14.5978C37.1537 14.8411 37.3572 15.0909 37.5542 15.346C37.7499 15.6012 37.9389 15.8629 38.1187 16.1299C38.2998 16.397 38.4716 16.6693 38.6355 16.9456C38.7994 17.2232 38.9541 17.506 39.1008 17.7929C39.2476 18.0798 39.3851 18.3706 39.5133 18.6667C39.6428 18.9615 39.7618 19.2602 39.8728 19.5629C39.9839 19.8657 40.0843 20.171 40.1769 20.4803C40.2681 20.7897 40.3501 21.1003 40.4228 21.4149C40.4968 21.7282 40.5589 22.0442 40.6131 22.3614C40.6673 22.68 40.7109 22.9986 40.744 23.3185C40.7784 23.6397 40.8035 23.9609 40.818 24.2822C40.8326 24.6047 40.8365 24.9259 40.8312 25.2485C40.8259 25.571 40.8114 25.8923 40.7863 26.2135C40.7625 26.5347 40.7268 26.8546 40.6832 27.1745C40.6382 27.4931 40.584 27.8103 40.5206 28.1263C40.4571 28.4422 40.3844 28.7555 40.3011 29.0675C40.2179 29.3795 40.1253 29.6875 40.0235 29.9928C39.9218 30.2995 39.812 30.6009 39.6917 30.8997C39.5714 31.1997 39.4419 31.4945 39.3031 31.7853C39.1656 32.0762 39.0189 32.363 38.8629 32.6446C38.7069 32.9275 38.543 33.2037 38.3711 33.4761C38.198 33.7484 38.0169 34.0154 37.8278 34.2758C37.6388 34.5376 37.4432 34.7927 37.2383 35.0412C37.0334 35.2897 36.8219 35.533 36.6024 35.7683C36.383 36.0049 36.1569 36.2336 35.9243 36.457C35.6903 36.6791 35.451 36.8932 35.2052 37.1007C34.958 37.3096 34.7055 37.5092 34.4477 37.7009C34.1886 37.8939 33.9242 38.0776 33.6546 38.2535C33.3849 38.4306 33.1099 38.5972 32.8297 38.7571C32.5494 38.9157 32.2652 39.0664 31.9757 39.2092C31.6862 39.3506 31.3941 39.4842 31.0967 39.6084C30.7992 39.7313 30.4978 39.8464 30.1938 39.9521C29.8884 40.0579 29.5818 40.1544 29.2711 40.2416C28.9618 40.3289 28.6485 40.4055 28.3339 40.4729Z" fill="rgb(238 93 36)"/>
</svg>
