<svg width="52" height="53" viewBox="0 0 52 53" fill="none" xmlns="http://www.w3.org/2000/svg">
<path d="M51.7566 26.7407C51.9191 26.5782 52 26.3749 52 26.1722C52 25.9689 51.9191 25.7657 51.7566 25.6031L47.4907 21.3372C47.1657 21.0121 46.719 20.8496 46.2717 20.8496C45.8249 20.8496 45.3782 21.0121 45.0532 21.3372C44.769 21.622 44.5657 22.028 44.5657 22.4346C44.5249 23.2063 43.9966 23.8971 43.2249 24.1814C42.8591 24.3031 41.9249 24.5472 41.1124 23.6938C40.2591 22.8405 40.5031 21.947 40.6249 21.5812C40.9091 20.8095 41.5999 20.322 42.3716 20.2404C42.7782 20.1996 43.1841 20.0371 43.469 19.7529C44.1591 19.062 44.1591 17.9653 43.469 17.3152L39.1623 13.0091L34.8971 8.7431C34.8564 8.70232 34.8564 8.62138 34.8971 8.5806C34.9373 8.53981 34.9373 8.53981 34.9373 8.53981C36.3597 8.45887 37.5781 7.52461 38.1064 6.18376C38.6347 4.84291 38.3097 3.33956 37.2531 2.32436C36.2373 1.30852 34.7346 0.983508 33.3938 1.47103C32.053 1.99934 31.1188 3.21784 31.0372 4.63962C31.0372 4.63962 31.0372 4.68041 30.9971 4.68041C30.9563 4.72119 30.8747 4.72119 30.8346 4.68041L26.5688 0.414416C26.2438 0.0894003 25.7562 0.0894003 25.4312 0.414416L21.1654 4.68041C20.4752 5.37122 20.4752 6.46799 21.1654 7.11803C21.4503 7.40226 21.8562 7.60555 22.2621 7.60555C23.0345 7.64633 23.7247 8.17464 24.0095 8.9464C24.1312 9.3122 24.3747 10.2465 23.522 11.059C22.6687 11.9117 21.7746 11.6682 21.4095 11.5465C20.6378 11.2617 20.1502 10.5715 20.0687 9.79909C20.0279 9.39314 19.8654 8.98718 19.5812 8.70232C19.2562 8.37731 18.8094 8.2148 18.3627 8.2148C17.9154 8.2148 17.4686 8.37731 17.1436 8.70232L12.8377 13.0091L8.57182 17.2745C8.57182 17.3152 8.53104 17.3152 8.49026 17.3152C8.4501 17.3152 8.4501 17.3152 8.40932 17.2745L8.36854 17.2343C8.2876 15.8119 7.35274 14.5934 6.01257 14.0651C4.67177 13.5368 3.16847 13.8618 2.15331 14.9184C1.13751 15.9342 0.81251 17.437 1.30002 18.7778C1.8283 20.1187 3.04675 21.0529 4.46849 21.1345C4.46849 21.1345 4.50927 21.1345 4.50927 21.1746C4.55006 21.2154 4.55006 21.297 4.50927 21.3372L0.243439 25.6031C0.0809372 25.7657 0 25.9689 0 26.1722C0 26.3749 0.0809372 26.5782 0.243439 26.7407L4.50927 31.0067C4.83428 31.3317 5.281 31.4942 5.72772 31.4942C6.17508 31.4942 6.6218 31.3317 6.9468 31.0067C7.23102 30.7218 7.43431 30.3159 7.43431 29.9093C7.47509 29.1375 8.00275 28.4467 8.77511 28.1625C9.14027 28.0408 10.0751 27.7967 10.8876 28.65C11.7403 29.5033 11.4969 30.3968 11.3751 30.7626C11.0903 31.5344 10.4001 32.0219 9.62777 32.1035C9.22183 32.1442 8.81526 32.3068 8.53104 32.591C7.84025 33.2818 7.84025 34.3786 8.53104 35.0286L12.7969 39.2946L17.0627 43.56C17.1029 43.6007 17.1029 43.6817 17.0627 43.7225C17.0219 43.7633 17.0219 43.7633 17.0219 43.7633C15.6002 43.8442 14.3811 44.7791 13.8528 46.1193C13.3252 47.4602 13.6502 48.9635 14.7061 49.9793C15.7219 50.9945 17.2252 51.3196 18.5654 50.832C19.9062 50.3044 20.8404 49.0852 20.922 47.6634C20.922 47.6634 20.922 47.6227 20.9628 47.6227C21.0029 47.5819 21.0845 47.5819 21.1253 47.6227L25.3905 51.8886C25.553 52.0512 25.7562 52.1321 25.9595 52.1321C26.1622 52.1321 26.3655 52.0512 26.528 51.8886L30.7938 47.6227C31.4846 46.9318 31.4846 45.8351 30.7938 45.185C30.5096 44.9008 30.103 44.6975 29.6971 44.6975C28.9247 44.6567 28.2346 44.1291 27.9497 43.3573C27.828 42.9915 27.5846 42.0572 28.4372 41.2447C29.2905 40.3914 30.1846 40.6348 30.5497 40.7572C31.3221 41.0414 31.8096 41.7322 31.8905 42.504C31.9313 42.9099 32.0938 43.3165 32.378 43.6007C32.703 43.9258 33.1498 44.0883 33.5971 44.0883C34.0438 44.0883 34.4906 43.9258 34.8156 43.6007L43.3466 35.0694C43.3466 35.0286 43.3874 35.0286 43.4282 35.0286C43.469 35.0286 43.469 35.0286 43.5091 35.0694L43.5499 35.1095C43.6315 36.532 44.5657 37.7505 45.9065 38.2788C47.2467 38.8071 48.75 38.4821 49.7658 37.4254C50.7816 36.4096 51.1066 34.9069 50.619 33.566C50.0908 32.2252 48.8717 31.2909 47.4499 31.2094C47.4499 31.2094 47.4092 31.2094 47.4092 31.1692C47.369 31.1284 47.369 31.0468 47.4092 31.0067L51.7566 26.7407ZM46.3532 32.3068C46.6374 32.591 47.044 32.7943 47.4499 32.7943C48.2217 32.8344 48.9125 33.3627 49.1967 34.1345C49.319 34.5003 49.5625 35.4346 48.7092 36.2471C47.8565 37.1004 46.9624 36.857 46.5967 36.7346C45.8249 36.4504 45.3374 35.7596 45.2565 34.9878C45.2157 34.5819 45.0532 34.1753 44.769 33.8911C44.444 33.566 43.9966 33.4035 43.5499 33.4035C43.1032 33.4035 42.6565 33.566 42.3314 33.8911L38.5939 37.6287L34.8971 33.9318C34.8564 33.8911 34.8564 33.8095 34.8971 33.7693C34.8971 33.7285 34.9373 33.7285 34.9373 33.7285C36.3597 33.647 37.5781 32.7127 38.1064 31.3719C38.6347 30.0316 38.3097 28.5283 37.2531 27.5125C37.0498 27.3092 36.8064 27.1065 36.5222 26.944C36.5222 27.1467 36.4814 27.3092 36.4406 27.5125C36.4406 27.6342 36.3998 27.7565 36.3998 27.8783C36.3597 28.2033 36.2781 28.4875 36.1972 28.7717C36.8873 29.5843 36.6847 30.4376 36.5222 30.7626C36.2373 31.5344 35.5471 32.0219 34.7748 32.1035C34.7346 32.1035 34.6939 32.1035 34.6531 32.1035C34.2064 32.7127 33.7188 33.322 33.1906 33.8095C33.1906 34.2569 33.3531 34.6628 33.6781 35.0286L37.3748 38.7255L33.6781 42.4224C33.6373 42.4632 33.5156 42.4632 33.5156 42.3822C33.4346 40.9598 32.4998 39.7413 31.1596 39.213C29.8188 38.6847 28.3155 39.0097 27.2997 40.0664C26.2845 41.1223 25.9595 42.5849 26.447 43.9258C26.9747 45.2666 28.1938 46.2009 29.6155 46.2818C29.6155 46.2818 29.6563 46.2818 29.6563 46.3226C29.6971 46.3634 29.6971 46.4443 29.6563 46.4851L25.9595 50.182L22.2621 46.4851C21.9371 46.1601 21.4904 45.9976 21.0437 45.9976C20.597 45.9976 20.1502 46.1601 19.8252 46.4851C19.5404 46.7693 19.3377 47.1759 19.3377 47.5819C19.297 48.3543 18.7687 49.0444 17.9969 49.3293C17.6311 49.451 16.6969 49.6945 15.8844 48.8418C15.0311 47.9885 15.2752 47.0944 15.3969 46.7292C15.6811 45.9568 16.3719 45.4693 17.1436 45.3883C17.5502 45.3475 17.9562 45.185 18.2404 44.9008C18.9312 44.21 18.9312 43.1132 18.2404 42.4632L14.5436 38.7663L18.2404 35.0694C18.2812 35.0286 18.3219 35.0286 18.4029 35.0694C18.4437 35.1095 18.4437 35.1095 18.4437 35.1095C18.6062 35.8819 18.7687 36.532 19.2562 37.182C20.1095 38.1972 21.5312 38.7255 22.8312 38.4413C23.4812 38.2788 24.1312 37.9538 24.6187 37.4254C24.822 37.2221 25.0247 36.9787 25.1872 36.6945C24.5372 36.6537 23.9279 36.532 23.3595 36.4096C22.547 37.1004 21.6937 36.8971 21.3687 36.7346C20.597 36.4504 20.1095 35.7596 20.0279 34.9878C20.0279 34.7845 19.8252 34.7444 19.6627 34.622C19.4187 34.4595 19.2154 34.2569 18.9719 34.0536C18.8502 33.9318 18.7279 33.8095 18.6062 33.6878C18.5654 33.647 18.3219 33.3627 18.2812 33.3627C17.8344 33.3627 17.3877 33.566 17.0627 33.8503L13.4061 37.6287L9.70934 33.9318C9.66855 33.8911 9.66855 33.8095 9.70934 33.7693C9.70934 33.7285 9.75012 33.7285 9.75012 33.7285C11.1719 33.647 12.3903 32.7127 12.9186 31.3719C13.4469 30.0316 13.1219 28.5283 12.0653 27.5125C11.3751 26.8216 10.4403 26.4157 9.50605 26.4157C9.05933 26.4157 8.65276 26.4966 8.20604 26.6591C6.86524 27.1874 5.93101 28.4066 5.85007 29.8284C5.85007 29.8284 5.85007 29.8691 5.80929 29.8691C5.76851 29.9093 5.68757 29.9093 5.64679 29.8691L1.95002 26.1722L5.64679 22.4747C6.33758 21.7845 6.33758 20.6871 5.64679 20.0371C5.36257 19.7529 4.956 19.5496 4.55006 19.5496C3.77833 19.5094 3.08754 18.9811 2.80332 18.2093C2.68097 17.8435 2.43753 16.9093 3.29082 16.0967C4.14349 15.2434 5.03756 15.4869 5.40272 15.6092C6.17508 15.8935 6.66258 16.5843 6.74352 17.356C6.7843 17.762 6.9468 18.1686 7.23102 18.4528C7.55603 18.7778 8.00275 18.9403 8.4501 18.9403C8.89683 18.9403 9.34355 18.7778 9.66855 18.4528L13.3653 14.7559L17.0627 18.4528C17.1029 18.4936 17.1029 18.5745 17.0627 18.6153C17.0627 18.6561 17.0219 18.6561 17.0219 18.6561C15.6002 18.737 14.3811 19.6719 13.8528 21.0121C13.3252 22.353 13.6502 23.8563 14.7061 24.8722C14.9094 25.0748 15.1528 25.2781 15.4377 25.4406C15.4778 24.7906 15.6002 24.1814 15.7219 23.6123C15.0311 22.7997 15.2344 21.947 15.3969 21.622C15.6811 20.8496 16.3719 20.3621 17.1436 20.2812C17.1844 20.2812 17.2252 20.2812 17.2654 20.2812C17.7127 19.6719 18.2002 19.062 18.7279 18.5745C18.7279 18.1278 18.5654 17.7218 18.2404 17.356L14.5436 13.5776L18.2404 9.88066C18.2404 9.83988 18.2812 9.83988 18.3219 9.83988C18.3627 9.83988 18.3627 9.83988 18.4029 9.88066L18.4437 9.92144C18.5252 11.3432 19.4595 12.5617 20.8003 13.09C22.1404 13.6183 23.6437 13.2933 24.6595 12.2367C25.6747 11.1807 25.9997 9.71815 25.5122 8.37731C24.9845 7.03709 23.7654 6.10219 22.3437 6.02125C22.3437 6.02125 22.3029 6.02125 22.3029 5.98047C22.2621 5.93969 22.2621 5.85875 22.3029 5.81796L25.9997 2.12106L29.6971 5.81796C30.0221 6.14298 30.4688 6.30549 30.9155 6.30549C31.3623 6.30549 31.8096 6.14298 32.1346 5.81796C32.4188 5.53373 32.6221 5.12715 32.6221 4.72119C32.6623 3.94943 33.1906 3.25862 33.9623 2.97439C34.3281 2.85204 35.2623 2.60859 36.0748 3.46191C36.9281 4.31461 36.6847 5.20871 36.5623 5.57451C36.2781 6.34627 35.5873 6.83379 34.8156 6.91473C34.4096 6.95552 34.0031 7.11803 33.7188 7.40226C33.0281 8.09307 33.0281 9.18985 33.7188 9.83988L37.4156 13.5368L33.7188 17.2343C33.6781 17.2745 33.5563 17.2745 33.5563 17.1935C33.4346 16.5027 33.3123 15.8935 32.8656 15.2842C32.0938 14.3493 30.8747 13.7809 29.6563 13.8618C28.803 13.9026 27.9905 14.2684 27.3405 14.9184C27.1372 15.1217 26.9345 15.3651 26.772 15.6494C27.4221 15.6902 28.0313 15.8119 28.5997 15.9342C29.1688 15.4467 29.8997 15.3244 30.5905 15.6092C31.3623 15.8935 31.8498 16.5843 31.9313 17.356C31.9313 17.3968 31.9313 17.437 31.9313 17.4777C31.9313 17.5995 32.3373 17.762 32.4596 17.8435C32.7438 18.0468 32.9873 18.2903 33.2313 18.5344C33.3531 18.6561 33.5156 18.9403 33.6781 18.9403C34.1248 18.9403 34.5721 18.737 34.8971 18.4528L38.5939 14.7559L42.2907 18.4528C42.3314 18.4936 42.3314 18.5745 42.2907 18.6153C42.2907 18.6561 42.2499 18.6561 42.2499 18.6561C40.8281 18.737 39.6091 19.6719 39.0814 21.0121C38.5531 22.353 38.8781 23.8563 39.9341 24.8722C40.9499 25.8874 42.4532 26.2124 43.794 25.7249C45.1341 25.1972 46.069 23.9781 46.1499 22.5563C46.1499 22.4747 46.2717 22.4747 46.3124 22.5155L50.0092 26.2124L46.3124 29.9093C45.6624 30.5593 45.6624 31.6567 46.3532 32.3068Z" fill="#EE5D24"/>
<path d="M25.9995 17.2439C21.097 17.2439 17.0856 21.2523 17.0856 26.1519C17.0856 31.0508 21.097 35.0592 25.9995 35.0592C30.9027 35.0592 34.9141 31.0508 34.9141 26.1519C34.9141 21.2523 30.9027 17.2439 25.9995 17.2439ZM30.2951 23.8031L25.8781 29.4718C25.7161 29.6744 25.4732 29.7957 25.2298 29.7957C25.0677 29.7957 24.9056 29.7551 24.7436 29.6338L21.8667 27.4876C21.5019 27.2043 21.4212 26.7184 21.7046 26.3539C21.9881 25.9899 22.4744 25.9086 22.8392 26.1919L25.0677 27.8522L28.9984 22.7907C29.2819 22.4267 29.7681 22.3861 30.133 22.6694C30.4978 22.9526 30.5786 23.4792 30.2951 23.8031Z" fill="#EE5D24"/>
</svg>
