<svg width="14" height="17" viewBox="0 0 14 17" fill="none" xmlns="http://www.w3.org/2000/svg">
<path d="M6.80143 0C5.90546 0.000363108 5.01839 0.175645 4.19114 0.515784C3.36388 0.855919 2.61273 1.35422 1.98079 1.98207C1.34885 2.60993 0.848571 3.35498 0.508664 4.17446C0.168759 4.99394 -0.00407815 5.87171 7.30391e-05 6.7574C7.30391e-05 11.4267 4.87251 15.7078 6.3715 16.8411C6.49733 16.9437 6.65543 17 6.81862 17C6.98181 17 7.1399 16.9437 7.26574 16.8411C8.7676 15.6737 13.5999 11.4267 13.5999 6.7574C13.604 5.87195 13.4313 4.99441 13.0916 4.17511C12.7518 3.35582 12.2519 2.6109 11.6202 1.98308C10.9886 1.35526 10.2377 0.856907 9.41082 0.516599C8.5839 0.176293 7.69714 0.000735623 6.80143 0ZM6.80143 9.55101C6.23455 9.55101 5.68042 9.38489 5.20908 9.07352C4.73775 8.7622 4.37039 8.31969 4.15346 7.80198C3.93653 7.28427 3.87977 6.71458 3.99035 6.16498C4.10095 5.61537 4.37392 5.11053 4.77476 4.71429C5.1756 4.31805 5.68629 4.0482 6.24226 3.93888C6.79825 3.82956 7.37453 3.88566 7.89825 4.10011C8.42196 4.31455 8.86959 4.67771 9.18453 5.14363C9.49948 5.60957 9.66753 6.15735 9.66753 6.71773C9.66753 7.46916 9.36563 8.18982 8.82809 8.72117C8.29058 9.25253 7.56157 9.55101 6.80143 9.55101Z" fill="#EE5D24"/>
</svg>
