<svg width="46" height="50" viewBox="0 0 46 50" fill="none" xmlns="http://www.w3.org/2000/svg">
<path d="M32.2985 1L24.7962 16.4347L24.0977 17.8719H25.6956H33.9323L15.5612 43.811L21.7347 25.6324L22.1835 24.3108H20.7878H12.3316L21.462 1H32.2985Z" stroke="rgb(238 93 36)" stroke-width="2"/>
<path d="M20.1287 45.0367C19.2163 44.8772 18.8464 43.8103 19.4071 43.073C19.7113 42.6729 20.2189 42.4877 20.7146 42.5711C30.8084 44.2683 40.578 37.9756 42.7759 28.1958C44.5193 20.4521 40.9994 12.5407 34.1116 8.42217C33.5041 8.05894 33.2546 7.28785 33.5826 6.66066C33.906 6.04216 34.6699 5.79635 35.2731 6.14755C45.1139 11.8775 48.7341 24.1217 43.3134 34.0821C38.8477 42.2934 29.4205 46.6607 20.1287 45.0367Z" fill="rgb(238 93 36)"/>
<path d="M13.7746 4.60279C14.815 4.2025 15.7373 5.25318 15.3063 6.28124C15.1604 6.62938 14.8733 6.899 14.5225 7.03845C4.95142 10.8434 0.180092 21.3502 3.84375 30.7881C5.31179 34.5593 7.99721 37.7598 11.4916 39.9176C12.0345 40.2529 12.2912 40.9182 12.0724 41.5177C11.8068 42.2452 10.96 42.5764 10.2963 42.1773C0.616074 36.3574 -2.86875 24.1829 2.56771 14.3063C5.01214 9.86463 8.99745 6.44079 13.7746 4.60279Z" fill="rgb(238 93 36)"/>
</svg>
