<svg width="42" height="42" viewBox="0 0 42 42" fill="none" xmlns="http://www.w3.org/2000/svg">
<path d="M41.0107 13.5245C40.9182 13.4299 40.8059 13.3819 40.6739 13.3795L35.1868 13.3954V4.68198L36.635 5.60287L37.1494 4.79386L34.9696 3.39838L29.7736 0.0799635C29.6934 0.0283247 29.6071 0.00250492 29.5133 4.60814e-05C29.4183 -0.00118334 29.3307 0.0221771 29.2506 0.071357L24.0533 3.35904L21.7847 4.79386L22.3003 5.61148L23.8288 4.64141V13.42L5.72781 13.4594V7.3672C5.72534 7.22581 5.6723 7.10901 5.56744 7.01434C5.32935 6.80041 5.06535 6.62459 4.77668 6.48688C4.48802 6.34918 4.18455 6.25451 3.8675 6.2041C3.5517 6.15492 3.23465 6.15 2.91638 6.1918C2.5981 6.23361 2.2934 6.31844 1.9998 6.44877C1.70743 6.5791 1.4385 6.74754 1.19547 6.95409C0.951217 7.16188 0.742734 7.39917 0.56756 7.6672C0.393619 7.93523 0.260387 8.22294 0.169099 8.52908C0.0778107 8.83523 0.0321669 9.14752 0.0334004 9.46719V38.2166C0.00996178 38.3678 -0.00114131 38.5202 9.25522e-05 38.6727H0.0334004V39.0981C0.0321669 39.1227 0.0346338 39.1461 0.0408021 39.1707C0.0716427 39.3637 0.118521 39.553 0.182669 39.7375C0.245584 39.9219 0.325769 40.1002 0.420758 40.2711C0.516981 40.442 0.626773 40.603 0.750136 40.7555C0.874732 40.9067 1.01043 41.0456 1.1597 41.1735C1.30897 41.3014 1.46687 41.4145 1.63588 41.5141C1.80488 41.6137 1.98129 41.6973 2.1651 41.7661C2.34891 41.835 2.53766 41.8866 2.73134 41.9223C2.92378 41.9567 3.11869 41.9751 3.31484 41.9764H34.6156C34.6933 41.9751 34.7649 41.9555 34.8327 41.9198H40.6739C40.7368 41.9198 40.7985 41.9075 40.8577 41.8829C40.9169 41.8596 40.9687 41.8239 41.0144 41.7797C41.06 41.7342 41.0946 41.6825 41.1192 41.6235C41.1439 41.5645 41.1563 41.503 41.1563 41.4391V13.8602C41.1575 13.7274 41.1094 13.6143 41.0107 13.5245ZM31.3181 13.3795H27.6974V8.34466H31.3181V13.3795ZM24.7935 4.03157L29.5071 1.05004L34.2221 4.06354V13.3795H32.2828V7.86392C32.2828 7.79999 32.2705 7.73851 32.2458 7.6795C32.2211 7.62048 32.1866 7.56884 32.1422 7.52458C32.0965 7.47909 32.0447 7.44466 31.9855 7.42007C31.9263 7.39548 31.8646 7.38319 31.8005 7.38319H27.2151C27.1509 7.38319 27.0892 7.39548 27.03 7.42007C26.9708 7.44466 26.919 7.47909 26.8734 7.52458C26.8289 7.56884 26.7932 7.62048 26.7685 7.6795C26.7451 7.73851 26.7327 7.79999 26.7327 7.86392V13.3795H24.7935V4.03157ZM0.998094 9.46719C0.999328 9.24957 1.02894 9.03686 1.08938 8.82785C1.14983 8.61883 1.23742 8.42211 1.35214 8.23769C1.46687 8.05204 1.60504 7.88728 1.76664 7.73974C1.92825 7.59343 2.10589 7.47171 2.3008 7.37458C2.49571 7.27745 2.7005 7.2086 2.91515 7.16803C3.1298 7.12745 3.34568 7.11639 3.5628 7.13606C3.77992 7.1545 3.99087 7.20368 4.19441 7.28114C4.39796 7.3586 4.58794 7.46188 4.76311 7.59097V35.6985C4.45594 35.551 4.13273 35.4526 3.79472 35.4035C3.45671 35.3555 3.11993 35.358 2.78191 35.4133C2.44514 35.4686 2.12439 35.5731 1.82092 35.7268C1.51622 35.8817 1.24235 36.0772 0.998094 36.3158V9.46719ZM8.5195 41.0063V37.6633H34.1332V40.9583H32.8786V39.6674H31.9127V40.9583H30.6421V39.0981H29.6762V40.9657H28.2205V39.6674H27.2558V40.9657H25.5657V39.6674H24.601V40.9743H23.3699V39.0981H22.4039V40.9817H20.9483V39.6674H19.9836V40.9817H18.2935V39.6674H17.3288V40.9903H16.0656V39.0981H15.0997V40.9903H13.644V39.6674H12.6793V40.9977H10.9892V39.6674H10.0245V41.0063H8.5195ZM35.0979 40.9497V37.1826C35.0979 37.1186 35.0868 37.0571 35.0622 36.9981C35.0375 36.9391 35.0029 36.8875 34.9573 36.842C34.9117 36.7965 34.8598 36.7621 34.8006 36.7375C34.7414 36.7129 34.6797 36.7006 34.6156 36.7006H8.03715C7.97301 36.7006 7.91132 36.7129 7.85211 36.7375C7.7929 36.7621 7.74108 36.7965 7.69544 36.842C7.65103 36.8875 7.61525 36.9391 7.59058 36.9981C7.56714 37.0571 7.55481 37.1186 7.55481 37.1826V41.0063H3.31484C3.17791 41.0063 3.04098 40.994 2.90528 40.9694C2.77081 40.9448 2.63758 40.9092 2.50928 40.8624C2.37975 40.8157 2.25516 40.7567 2.13673 40.6879C2.0183 40.619 1.90604 40.5403 1.80118 40.4518C1.69509 40.3645 1.59887 40.2674 1.51128 40.1616C1.42246 40.0571 1.34474 39.944 1.27566 39.826C1.20781 39.7067 1.14983 39.5825 1.10295 39.4534C1.05731 39.3256 1.02153 39.1928 0.998094 39.0575V38.2805C0.996861 38.2707 1.00056 38.2633 1.00673 38.2559C1.00796 38.2239 1.0129 38.192 1.02277 38.16C1.024 38.1403 1.02893 38.1219 1.0388 38.1035C1.0388 38.0813 1.04497 38.0604 1.05484 38.0395C1.07828 37.9596 1.10295 37.8797 1.13503 37.7998C1.1671 37.7186 1.14243 37.7752 1.14243 37.7678C1.17944 37.6805 1.22138 37.5969 1.26826 37.5145C1.31514 37.4334 1.36695 37.3547 1.42246 37.2797C1.47921 37.2035 1.53966 37.1321 1.60504 37.0645C1.66919 36.9957 1.73827 36.9317 1.81105 36.8715C1.88384 36.8125 1.95909 36.7559 2.03927 36.7055C2.11823 36.6551 2.20088 36.6084 2.28476 36.5678C2.36988 36.5272 2.45747 36.4903 2.54629 36.4608C2.63511 36.4301 2.7264 36.4043 2.81769 36.3846C2.91021 36.3649 3.00397 36.3502 3.09772 36.3416C3.19148 36.333 3.28523 36.3305 3.37899 36.333C3.47398 36.3354 3.56773 36.344 3.66149 36.3576C3.75401 36.3711 3.84653 36.3908 3.93782 36.4153C4.02787 36.4399 4.11793 36.4707 4.20428 36.5063C4.29187 36.542 4.37699 36.5826 4.45964 36.6281C4.5423 36.6735 4.62125 36.724 4.69773 36.7793C4.77422 36.8346 4.847 36.8936 4.91608 36.9576C4.98763 37.0215 5.07029 37.0608 5.16404 37.0768C5.25903 37.0928 5.35032 37.0817 5.43914 37.0461C5.52673 37.008 5.59705 36.9477 5.65009 36.8678C5.7019 36.7879 5.72781 36.7006 5.72781 36.6047V14.4221L40.1903 14.3422V19.8257C40.0571 19.5786 39.8832 19.3647 39.6673 19.1839L39.2898 18.8556C38.4448 18.1413 37.2383 18.1733 36.603 18.9196L35.7258 19.9462L34.0123 21.9663V15.9208C34.0123 15.8569 34 15.7954 33.9753 15.7376C33.9519 15.6786 33.9161 15.6257 33.8717 15.5815C33.8261 15.536 33.7743 15.5016 33.715 15.477C33.6558 15.4524 33.5941 15.4401 33.53 15.4401H9.36453C9.30038 15.4401 9.2387 15.4524 9.17949 15.477C9.12028 15.5016 9.06846 15.536 9.02282 15.5815C8.97841 15.6257 8.94263 15.6786 8.91796 15.7376C8.89452 15.7954 8.88219 15.8569 8.88219 15.9208V35.0174C8.88219 35.0813 8.89452 35.1428 8.91796 35.2018C8.94263 35.2608 8.97841 35.3125 9.02282 35.358C9.06846 35.4022 9.12028 35.4379 9.17949 35.4613C9.2387 35.4858 9.30038 35.4981 9.36453 35.4981H33.53C33.5941 35.4981 33.6558 35.4858 33.715 35.4613C33.7743 35.4379 33.8261 35.4022 33.8717 35.358C33.9161 35.3125 33.9519 35.2608 33.9753 35.2018C34 35.1428 34.0123 35.0813 34.0123 35.0174V28.9326L39.1689 22.8638L40.046 21.8298C40.1015 21.7708 40.1496 21.7069 40.1903 21.6368V40.9424L35.0979 40.9497ZM19.2348 28.2834V34.5367H9.84688V28.7642H15.6795V32.6359H16.6441V28.2834C16.6441 28.2195 16.6318 28.158 16.6084 28.099C16.5837 28.04 16.5479 27.9884 16.5035 27.9429C16.4579 27.8974 16.4061 27.863 16.3468 27.8384C16.2876 27.815 16.226 27.8027 16.1618 27.8027H9.84688V22.6708H16.4517V21.7093H9.84688V16.4016H15.9694V19.7532H16.934V16.4016H33.0476V23.0962L32.3951 23.8585H25.8396V18.5188H24.8737V23.8585H19.7171V24.8199H31.5747L27.6653 29.4134L27.6493 29.4293L27.6246 29.4613V29.4773C27.6148 29.4896 27.6098 29.5031 27.6086 29.5179H27.5926C27.5827 29.5351 27.5778 29.5535 27.5765 29.5744H27.5691C27.5691 29.5904 27.5605 29.6064 27.5605 29.6224L27.0214 32.9887C27.0115 33.0588 27.0165 33.1277 27.0362 33.1953C27.0559 33.2629 27.088 33.3232 27.1349 33.3773C27.1818 33.4301 27.2373 33.4707 27.3014 33.5002C27.3656 33.5285 27.4334 33.5432 27.505 33.542L27.6579 33.5186L30.8999 32.4441H30.9073L30.948 32.4281H30.9641L31.0122 32.4035C31.0122 32.3937 31.0171 32.3875 31.0282 32.3875L31.0516 32.3641L31.0763 32.3482L31.101 32.3236V32.3076H31.1084L33.039 30.0392V34.5121H20.2007V28.2589L19.2348 28.2834ZM36.144 20.9396L36.7633 21.461L29.3307 30.199L28.7115 29.6703L32.8379 24.8199L34.0123 23.4491L36.144 20.9396ZM29.781 31.8342L28.0996 32.3875L28.3734 30.6478L29.781 31.8342ZM30.6902 31.3461L30.0709 30.8162L37.5035 22.0855L38.1228 22.6068L34.0123 27.4412L33.0476 28.5798L30.6902 31.3461ZM38.7507 21.8691L37.4801 20.8032L36.772 20.2019L37.3345 19.5368C37.6244 19.1999 38.2202 19.2159 38.6619 19.5933L39.048 19.913C39.2676 20.0974 39.4045 20.3298 39.4588 20.6114C39.5032 20.8339 39.4551 21.0343 39.3132 21.2126L38.7507 21.8691Z" fill="#EA5F32"/>
</svg>
