<svg width="52" height="52" viewBox="0 0 52 52" fill="none" xmlns="http://www.w3.org/2000/svg">
<path d="M50.7581 50.9998H4.97504C4.87825 51.0002 4.7849 50.964 4.71361 50.8985C4.64232 50.833 4.59834 50.7431 4.59044 50.6466C4.59044 50.4426 4.15089 45.5448 5.37534 41.7458C7.03932 36.6283 19.2445 32.2171 21.2695 31.495V28.2848C21.2695 28.1807 21.3109 28.0809 21.3845 28.0073C21.4581 27.9337 21.5579 27.8923 21.662 27.8923C21.7661 27.8923 21.8659 27.9337 21.9395 28.0073C22.0131 28.0809 22.0544 28.1807 22.0544 28.2848V31.7933C22.0546 31.8741 22.0287 31.9529 21.9806 32.0179C21.9326 32.0829 21.8649 32.1308 21.7876 32.1543C21.6541 32.2014 7.77712 36.8638 6.12884 41.9813C5.41371 44.6689 5.14849 47.4564 5.34394 50.2306H50.3971C50.5925 47.4564 50.3273 44.6689 49.6122 41.9813C47.9639 36.8873 34.0948 32.2014 33.9142 32.1543C33.8369 32.1308 33.7692 32.0829 33.7211 32.0179C33.6731 31.9529 33.6472 31.8741 33.6474 31.7933V28.2848C33.6474 28.1807 33.6887 28.0809 33.7623 28.0073C33.8359 27.9337 33.9357 27.8923 34.0398 27.8923C34.1439 27.8923 34.2437 27.9337 34.3173 28.0073C34.3909 28.0809 34.4323 28.1807 34.4323 28.2848V31.495C36.4573 32.1936 48.6625 36.6047 50.3186 41.6987C51.543 45.4977 51.1035 50.3955 51.1035 50.5995C51.11 50.6982 51.0774 50.7955 51.0128 50.8704C50.9482 50.9453 50.8567 50.9918 50.7581 50.9998Z" fill="rgb(238 93 36)" stroke="rgb(238 93 36)" stroke-width="0.8"/>
<path d="M37.038 40.9139H36.9988C36.9482 40.909 36.899 40.8941 36.8542 40.8701C36.8094 40.8461 36.7698 40.8134 36.7377 40.774C36.7056 40.7346 36.6816 40.6892 36.6671 40.6404C36.6527 40.5917 36.648 40.5406 36.6534 40.49L37.4383 33.1512C37.4435 33.0996 37.4587 33.0496 37.4832 33.004C37.5077 32.9583 37.5409 32.918 37.581 32.8852C37.6211 32.8524 37.6673 32.8278 37.7169 32.8128C37.7664 32.7979 37.8185 32.7928 37.87 32.798C37.9216 32.8031 37.9716 32.8184 38.0172 32.8429C38.0629 32.8674 38.1032 32.9006 38.136 32.9407C38.1688 32.9808 38.1934 33.0269 38.2084 33.0765C38.2233 33.1261 38.2284 33.1781 38.2232 33.2297L37.4383 40.5685C37.4266 40.6656 37.3791 40.7548 37.3051 40.8187C37.231 40.8826 37.1358 40.9165 37.038 40.9139ZM40.5622 40.9139H40.4916C40.4414 40.9045 40.3936 40.8852 40.3509 40.8571C40.3082 40.8291 40.2716 40.7928 40.2431 40.7504C40.2146 40.708 40.1948 40.6604 40.1849 40.6103C40.175 40.5602 40.1752 40.5086 40.1855 40.4586L41.2608 34.8701C41.2795 34.766 41.3388 34.6737 41.4257 34.6133C41.5125 34.553 41.6198 34.5296 41.7239 34.5483C41.828 34.567 41.9203 34.6264 41.9807 34.7132C42.041 34.8001 42.0644 34.9073 42.0457 35.0114L40.9625 40.6077C40.9454 40.6992 40.895 40.7811 40.8211 40.8376C40.7472 40.8941 40.655 40.9213 40.5622 40.9139ZM18.695 40.9139C18.5999 40.9126 18.5085 40.877 18.4378 40.8134C18.367 40.7499 18.3218 40.6629 18.3104 40.5685L17.5255 33.2297C17.5151 33.1256 17.5464 33.0216 17.6127 32.9407C17.6789 32.8597 17.7746 32.8084 17.8787 32.798C17.9828 32.7876 18.0867 32.8189 18.1677 32.8852C18.2486 32.9514 18.3 33.0471 18.3104 33.1512L19.0953 40.49C19.1007 40.5406 19.096 40.5917 19.0816 40.6404C19.0671 40.6892 19.0431 40.7346 19.011 40.774C18.9789 40.8134 18.9393 40.8461 18.8945 40.8701C18.8496 40.8941 18.8005 40.909 18.7499 40.9139H18.695ZM15.1708 40.9139C15.0812 40.9136 14.9946 40.882 14.9259 40.8247C14.8571 40.7674 14.8105 40.6879 14.794 40.5999L13.7187 35.0271C13.7 34.923 13.7234 34.8158 13.7837 34.7289C13.8441 34.6421 13.9364 34.5827 14.0405 34.564C14.1446 34.5453 14.2519 34.5687 14.3387 34.629C14.4256 34.6894 14.4849 34.7817 14.5036 34.8858L15.5868 40.4743C15.6053 40.5751 15.5837 40.6792 15.5265 40.7643C15.4693 40.8494 15.381 40.9087 15.2807 40.9296L15.1708 40.9139Z" fill="rgb(238 93 36)" stroke="rgb(238 93 36)" stroke-width="0.8"/>
<path d="M43.9689 50.9999C43.9177 51.0009 43.8669 50.9918 43.8193 50.9729C43.7717 50.954 43.7284 50.9259 43.6918 50.8901C43.6553 50.8542 43.6263 50.8115 43.6064 50.7643C43.5866 50.7171 43.5764 50.6665 43.5764 50.6153V43.3393C43.5795 43.0219 43.5197 42.707 43.4004 42.4129C43.2811 42.1188 43.1047 41.8512 42.8813 41.6257C42.658 41.4002 42.3922 41.2211 42.0992 41.099C41.8063 40.9768 41.492 40.9139 41.1746 40.9139H14.5588C13.9218 40.9139 13.3109 41.1669 12.8604 41.6174C12.41 42.0678 12.157 42.6787 12.157 43.3157V50.5917C12.157 50.6958 12.1156 50.7956 12.042 50.8692C11.9684 50.9428 11.8686 50.9842 11.7645 50.9842C11.6604 50.9842 11.5606 50.9428 11.487 50.8692C11.4134 50.7956 11.3721 50.6958 11.3721 50.5917V43.3393C11.372 42.5029 11.7015 41.7003 12.2892 41.1052C12.8769 40.5102 13.6754 40.1707 14.5117 40.1604H41.1746C42.0171 40.1625 42.8244 40.4981 43.4201 41.0938C44.0158 41.6895 44.3514 42.4968 44.3535 43.3393V50.6153C44.3535 50.7173 44.313 50.8151 44.2408 50.8872C44.1687 50.9594 44.0709 50.9999 43.9689 50.9999Z" fill="rgb(238 93 36)" stroke="rgb(238 93 36)" stroke-width="0.8"/>
<path d="M17.0388 45.7646C16.7582 45.7631 16.4843 45.6785 16.2517 45.5214C16.0191 45.3644 15.8382 45.142 15.7319 44.8822C15.6256 44.6225 15.5985 44.3371 15.6542 44.062C15.7099 43.787 15.8459 43.5346 16.0449 43.3367C16.2438 43.1388 16.497 43.0042 16.7724 42.9501C17.0477 42.8959 17.333 42.9245 17.5921 43.0322C17.8512 43.14 18.0727 43.3221 18.2284 43.5555C18.3842 43.789 18.4673 44.0633 18.4673 44.344C18.4673 44.5312 18.4303 44.7166 18.3584 44.8895C18.2865 45.0623 18.1812 45.2193 18.0484 45.3513C17.9157 45.4834 17.7581 45.5878 17.5849 45.6588C17.4116 45.7297 17.226 45.7657 17.0388 45.7646ZM17.0388 43.6925C16.9099 43.6925 16.784 43.7307 16.6769 43.8023C16.5697 43.8739 16.4862 43.9756 16.4369 44.0947C16.3876 44.2137 16.3747 44.3447 16.3998 44.4711C16.425 44.5974 16.487 44.7135 16.5781 44.8046C16.6692 44.8957 16.7853 44.9578 16.9117 44.9829C17.0381 45.0081 17.1691 44.9952 17.2881 44.9459C17.4071 44.8965 17.5089 44.813 17.5805 44.7059C17.6521 44.5988 17.6903 44.4728 17.6903 44.344C17.6903 44.1712 17.6216 44.0055 17.4994 43.8833C17.3773 43.7611 17.2116 43.6925 17.0388 43.6925ZM38.6706 45.7646C38.3899 45.7631 38.116 45.6785 37.8835 45.5214C37.6509 45.3644 37.47 45.142 37.3637 44.8822C37.2573 44.6225 37.2303 44.3371 37.286 44.062C37.3417 43.787 37.4776 43.5346 37.6766 43.3367C37.8756 43.1388 38.1288 43.0042 38.4042 42.9501C38.6795 42.8959 38.9648 42.9245 39.2239 43.0322C39.483 43.14 39.7044 43.3221 39.8602 43.5555C40.016 43.789 40.0991 44.0633 40.0991 44.344C40.0991 44.5312 40.0621 44.7166 39.9902 44.8895C39.9183 45.0623 39.813 45.2193 39.6802 45.3513C39.5475 45.4834 39.3899 45.5878 39.2167 45.6588C39.0434 45.7297 38.8578 45.7657 38.6706 45.7646ZM38.6706 43.6925C38.5417 43.6925 38.4158 43.7307 38.3086 43.8023C38.2015 43.8739 38.118 43.9756 38.0687 44.0947C38.0194 44.2137 38.0065 44.3447 38.0316 44.4711C38.0568 44.5974 38.1188 44.7135 38.2099 44.8046C38.301 44.8957 38.4171 44.9578 38.5435 44.9829C38.6699 45.0081 38.8008 44.9952 38.9199 44.9459C39.0389 44.8965 39.1407 44.813 39.2123 44.7059C39.2838 44.5988 39.3221 44.4728 39.3221 44.344C39.3221 44.1712 39.2534 44.0055 39.1312 43.8833C39.0091 43.7611 38.8434 43.6925 38.6706 43.6925ZM38.0348 15.2163C37.9836 15.2163 37.933 15.2061 37.8858 15.1863C37.8386 15.1665 37.7959 15.1374 37.7601 15.1009C37.7242 15.0643 37.6961 15.021 37.6772 14.9734C37.6583 14.9259 37.6492 14.875 37.6502 14.8238V12.995C37.6509 10.8235 36.9295 8.71348 35.5995 6.99697C34.2695 5.28046 32.4064 4.05498 30.3036 3.51341C30.1995 3.48739 30.11 3.42109 30.0548 3.32909C29.9996 3.23709 29.9832 3.12693 30.0092 3.02285C30.0353 2.91876 30.1016 2.82928 30.1936 2.77408C30.2856 2.71888 30.3957 2.70249 30.4998 2.72851C32.7641 3.31221 34.7707 4.63061 36.2053 6.47713C37.6399 8.32364 38.4214 10.5939 38.4273 12.9322V14.761C38.4364 14.8176 38.4331 14.8754 38.4175 14.9306C38.402 14.9857 38.3745 15.0367 38.3371 15.0801C38.2997 15.1235 38.2533 15.1582 38.2011 15.1817C38.1488 15.2052 38.0921 15.217 38.0348 15.2163ZM17.6981 15.2163C17.6469 15.2163 17.5963 15.2061 17.5491 15.1863C17.5019 15.1665 17.4592 15.1374 17.4233 15.1009C17.3875 15.0643 17.3594 15.021 17.3405 14.9734C17.3216 14.9259 17.3125 14.875 17.3135 14.8238V12.995C17.3154 10.6557 18.0953 8.38342 19.5305 6.5361C20.9658 4.68877 22.9747 3.37135 25.241 2.7913C25.2899 2.77829 25.341 2.77508 25.3912 2.78186C25.4414 2.78864 25.4898 2.80527 25.5335 2.83079C25.5773 2.85632 25.6156 2.89024 25.6462 2.93061C25.6768 2.97098 25.6991 3.01699 25.7119 3.06602C25.7358 3.16588 25.7196 3.27111 25.6667 3.35915C25.6139 3.44719 25.5287 3.51102 25.4294 3.53696C23.3258 4.0773 21.462 5.30246 20.1318 7.01924C18.8016 8.73602 18.0807 10.8467 18.0827 13.0186V14.8474C18.0787 14.9466 18.0364 15.0405 17.9647 15.1092C17.893 15.178 17.7974 15.2164 17.6981 15.2163Z" fill="rgb(238 93 36)" stroke="rgb(238 93 36)" stroke-width="0.8"/>
<path d="M38.9687 18.3323H16.7718C16.512 18.3325 16.2622 18.2321 16.0749 18.0521C15.8875 17.8721 15.7772 17.6265 15.7671 17.3669V15.436C15.7692 15.1709 15.8759 14.9174 16.0641 14.7307C16.2523 14.544 16.5067 14.4392 16.7718 14.4392H38.9687C39.233 14.4392 39.4866 14.5442 39.6735 14.7312C39.8605 14.9181 39.9655 15.1717 39.9655 15.436V17.3669C39.9573 17.6258 39.8487 17.8713 39.6627 18.0515C39.4766 18.2317 39.2277 18.3324 38.9687 18.3323ZM16.7718 15.1927C16.7422 15.1917 16.7128 15.1966 16.6852 15.2071C16.6577 15.2177 16.6325 15.2337 16.6113 15.2542C16.59 15.2748 16.5731 15.2993 16.5616 15.3265C16.5501 15.3537 16.5441 15.383 16.5441 15.4125V17.3669C16.5441 17.4273 16.5681 17.4852 16.6108 17.5278C16.6535 17.5705 16.7114 17.5945 16.7718 17.5945H38.9687C39.029 17.5945 39.0869 17.5705 39.1296 17.5278C39.1723 17.4852 39.1963 17.4273 39.1963 17.3669V15.436C39.1963 15.4065 39.1904 15.3773 39.1788 15.3501C39.1673 15.3229 39.1504 15.2983 39.1292 15.2778C39.1079 15.2573 39.0828 15.2413 39.0552 15.2307C39.0276 15.2201 38.9982 15.2152 38.9687 15.2163L16.7718 15.1927Z" fill="rgb(238 93 36)" stroke="rgb(238 93 36)" stroke-width="0.8"/>
<path d="M29.7386 15.2162C29.6877 15.2143 29.6377 15.2021 29.5917 15.1803C29.5456 15.1584 29.5045 15.1275 29.4707 15.0894C29.437 15.0512 29.4113 15.0066 29.3953 14.9583C29.3793 14.9099 29.3732 14.8588 29.3775 14.8081L29.6208 10.6089C29.6228 10.558 29.635 10.508 29.6568 10.462C29.6786 10.4159 29.7095 10.3748 29.7477 10.341C29.7858 10.3073 29.8304 10.2816 29.8788 10.2656C29.9271 10.2496 29.9782 10.2435 30.029 10.2478C30.0795 10.2508 30.129 10.2638 30.1745 10.2859C30.22 10.3081 30.2607 10.339 30.2942 10.3769C30.3278 10.4148 30.3535 10.459 30.37 10.5069C30.3864 10.5548 30.3932 10.6054 30.39 10.656L30.1467 14.8552C30.1387 14.9565 30.0916 15.0508 30.0155 15.1181C29.9394 15.1854 29.8401 15.2206 29.7386 15.2162ZM26.0024 15.2162C25.9031 15.2163 25.8076 15.178 25.7359 15.1092C25.6642 15.0404 25.6219 14.9466 25.6178 14.8473L25.3667 10.656H26.1516L26.3949 14.8316C26.3992 14.8824 26.3931 14.9335 26.3771 14.9818C26.3611 15.0302 26.3354 15.0748 26.3017 15.1129C26.2679 15.1511 26.2268 15.182 26.1807 15.2038C26.1347 15.2256 26.0847 15.2378 26.0338 15.2398L26.0024 15.2162ZM25.5237 6.98263C25.4254 6.97907 25.332 6.93951 25.261 6.87148C25.1901 6.80345 25.1467 6.7117 25.1391 6.61372L24.8486 1.40983C24.848 1.30274 24.8871 1.19924 24.9585 1.11941C24.9948 1.08111 25.0386 1.05083 25.0873 1.03055C25.136 1.01027 25.1884 1.00044 25.2411 1.00168H30.4999C30.5589 0.996258 30.6184 1.00401 30.674 1.02437C30.7297 1.04473 30.7801 1.07719 30.8217 1.11941C30.8574 1.15844 30.8849 1.20429 30.9024 1.2542C30.9199 1.3041 30.9272 1.35704 30.9238 1.40983L30.5941 6.61372C30.588 6.71644 30.5418 6.81267 30.4655 6.88167C30.3891 6.95066 30.2888 6.98692 30.1859 6.98263C30.1354 6.97963 30.086 6.96668 30.0404 6.94452C29.9949 6.92237 29.9542 6.89145 29.9207 6.85353C29.8871 6.81561 29.8614 6.77144 29.845 6.72355C29.8285 6.67566 29.8217 6.625 29.8249 6.57448L30.0918 1.77088H25.6492L25.9161 6.57448C25.9184 6.67677 25.8815 6.77606 25.8129 6.85197C25.7443 6.92787 25.6492 6.97463 25.5472 6.98263H25.5237Z" fill="rgb(238 93 36)" stroke="rgb(238 93 36)" stroke-width="0.8"/>
<path d="M27.8702 11.8726C27.198 11.8726 26.5409 11.6732 25.982 11.2998C25.4231 10.9263 24.9875 10.3956 24.7303 9.77454C24.473 9.15352 24.4057 8.47017 24.5369 7.8109C24.668 7.15164 24.9917 6.54606 25.467 6.07075C25.9423 5.59545 26.5479 5.27176 27.2071 5.14062C27.8664 5.00949 28.5497 5.07679 29.1708 5.33402C29.7918 5.59126 30.3226 6.02687 30.696 6.58577C31.0695 7.14467 31.2688 7.80176 31.2688 8.47394C31.2688 9.37531 30.9107 10.2398 30.2733 10.8771C29.636 11.5145 28.7715 11.8726 27.8702 11.8726ZM27.8702 5.85237C27.3517 5.85237 26.8448 6.00612 26.4137 6.29419C25.9826 6.58225 25.6466 6.99168 25.4482 7.47071C25.2497 7.94974 25.1978 8.47685 25.299 8.98539C25.4001 9.49392 25.6498 9.96104 26.0164 10.3277C26.3831 10.6943 26.8502 10.944 27.3587 11.0451C27.8673 11.1463 28.3944 11.0944 28.8734 10.896C29.3524 10.6975 29.7619 10.3615 30.0499 9.93041C30.338 9.49929 30.4917 8.99244 30.4917 8.47394C30.4855 7.78202 30.2068 7.12043 29.7161 6.63262C29.2254 6.14481 28.5621 5.87011 27.8702 5.86807V5.85237ZM27.8702 31.9582C22.3759 31.9582 17.9883 25.8124 17.7921 17.9556C17.791 17.905 17.8 17.8548 17.8183 17.8078C17.8367 17.7607 17.8642 17.7177 17.8991 17.6813C17.9341 17.6448 17.976 17.6156 18.0222 17.5954C18.0685 17.5751 18.1183 17.5641 18.1688 17.5631C18.2702 17.563 18.3678 17.6022 18.4409 17.6724C18.5141 17.7427 18.5572 17.8385 18.5613 17.9399C18.7418 25.365 22.8233 31.189 27.8623 31.189C32.9014 31.189 36.9828 25.365 37.1634 17.9399C37.1634 17.8358 37.2047 17.7359 37.2783 17.6623C37.3519 17.5887 37.4517 17.5474 37.5558 17.5474C37.6599 17.5474 37.7597 17.5887 37.8333 17.6623C37.9069 17.7359 37.9483 17.8358 37.9483 17.9399C37.752 25.8124 33.3252 31.9582 27.8702 31.9582Z" fill="rgb(238 93 36)" stroke="rgb(238 93 36)" stroke-width="0.8"/>
<path d="M27.8704 37.2641C27.7813 37.2671 27.6943 37.2362 27.627 37.1778L21.4028 32.0916C21.3237 32.0271 21.2735 31.9338 21.2632 31.8322C21.2529 31.7306 21.2833 31.6291 21.3479 31.55C21.4124 31.4709 21.5057 31.4207 21.6073 31.4104C21.7088 31.4001 21.8103 31.4306 21.8894 31.4951L27.8625 36.385L33.8356 31.4951C33.8747 31.4626 33.9199 31.4382 33.9685 31.4232C34.0172 31.4082 34.0682 31.4029 34.1189 31.4076C34.1696 31.4124 34.2188 31.427 34.2638 31.4508C34.3088 31.4745 34.3486 31.5069 34.3811 31.5461C34.4136 31.5853 34.438 31.6305 34.453 31.6791C34.468 31.7277 34.4733 31.7788 34.4686 31.8294C34.4638 31.8801 34.4491 31.9293 34.4254 31.9743C34.4016 32.0193 34.3692 32.0591 34.3301 32.0916L28.1137 37.1778C28.0464 37.2362 27.9595 37.2671 27.8704 37.2641ZM10.791 34.1324C10.0219 34.1022 9.27876 33.8466 8.65387 33.3974C8.02899 32.9481 7.54998 32.325 7.27646 31.6057C7.00293 30.8863 6.94695 30.1024 7.11549 29.3514C7.28403 28.6005 7.66964 27.9157 8.22436 27.3822L4.47254 16.5113C3.73821 16.4157 3.04437 16.1197 2.46705 15.6559C1.88973 15.1921 1.45121 14.5784 1.19952 13.8819C0.955054 13.1345 0.934788 12.3319 1.14122 11.5731C1.34765 10.8143 1.77175 10.1326 2.36117 9.61204C2.40761 9.56827 2.46421 9.53674 2.52586 9.5203C2.58752 9.50386 2.65231 9.50301 2.71437 9.51785C2.77655 9.53354 2.8337 9.56485 2.8804 9.6088C2.9271 9.65275 2.96181 9.7079 2.98124 9.76902L3.82108 12.2258L5.30454 12.5868L6.23856 11.4016L5.39872 8.93702C5.37969 8.87619 5.37545 8.81169 5.38638 8.74889C5.3973 8.68609 5.42306 8.6268 5.46152 8.57597C5.50124 8.52535 5.55279 8.48527 5.61165 8.45926C5.6705 8.43326 5.73485 8.42212 5.79902 8.42684C6.56904 8.45696 7.31315 8.71312 7.93854 9.16336C8.56394 9.61361 9.04294 10.238 9.31581 10.9587C9.58868 11.6794 9.64334 12.4644 9.47298 13.216C9.30261 13.9675 8.91476 14.6523 8.35779 15.1848L12.0782 26.0479C12.8426 26.1291 13.5663 26.4331 14.1595 26.922C14.7527 27.4109 15.1892 28.0632 15.4149 28.7981C15.6406 29.5329 15.6456 30.3178 15.4291 31.0554C15.2127 31.793 14.7844 32.4508 14.1974 32.9472C14.1484 32.9891 14.0901 33.0187 14.0273 33.0338C13.9645 33.0488 13.8991 33.0487 13.8364 33.0335C13.7742 33.0178 13.717 32.9865 13.6703 32.9425C13.6236 32.8986 13.5889 32.8434 13.5695 32.7823L12.7689 30.3334L11.2933 29.9724L10.3514 31.1576L11.1913 33.6143C11.2142 33.6754 11.2211 33.7413 11.2115 33.8059C11.2019 33.8704 11.176 33.9314 11.1363 33.9832C11.0954 34.0345 11.0425 34.0749 10.9823 34.1009C10.922 34.1269 10.8563 34.1377 10.791 34.1324ZM2.4632 10.6403C2.13364 11.0556 1.91235 11.5462 1.81919 12.0682C1.72604 12.5901 1.76393 13.127 1.92947 13.6307C2.14556 14.2307 2.53142 14.7549 3.04006 15.1395C3.54871 15.5242 4.15821 15.7526 4.79435 15.7971C4.86927 15.8041 4.94067 15.8322 5.00036 15.878C5.06006 15.9238 5.10563 15.9855 5.13186 16.0561L9.00925 27.3744C9.03385 27.4456 9.03653 27.5225 9.01694 27.5953C8.99735 27.668 8.9564 27.7333 8.89937 27.7825C8.4256 28.2057 8.08453 28.757 7.91739 29.3699C7.75024 29.9828 7.76417 30.6309 7.95749 31.2361C8.13757 31.7344 8.43709 32.1811 8.8298 32.5368C9.22252 32.8926 9.69647 33.1467 10.2101 33.2768L9.51159 31.2361C9.49188 31.174 9.48729 31.1082 9.49822 31.044C9.50914 30.9798 9.53525 30.9192 9.57438 30.8672L10.7988 29.2974C10.8437 29.2358 10.9052 29.1884 10.9761 29.1606C11.047 29.1328 11.1244 29.1258 11.1991 29.1404L13.1221 29.6192C13.1849 29.633 13.243 29.6625 13.2911 29.7051C13.3392 29.7477 13.3756 29.8019 13.3968 29.8625L14.0954 31.9032C14.425 31.4879 14.6463 30.9973 14.7394 30.4753C14.8326 29.9534 14.7947 29.4165 14.6291 28.9128C14.4064 28.319 14.0167 27.8023 13.507 27.4249C12.9973 27.0475 12.3893 26.8255 11.7564 26.7857C11.6826 26.7781 11.6124 26.7497 11.5541 26.7039C11.4957 26.658 11.4516 26.5966 11.4267 26.5267L7.54934 15.2084C7.52383 15.1379 7.51991 15.0614 7.53809 14.9887C7.55626 14.916 7.59571 14.8504 7.65138 14.8002C8.12515 14.377 8.46622 13.8257 8.63336 13.2128C8.80051 12.6 8.78658 11.9518 8.59326 11.3467C8.4156 10.8469 8.11686 10.3989 7.72376 10.0428C7.33066 9.68667 6.85545 9.43351 6.3406 9.30593L7.03916 11.3467C7.06174 11.4083 7.06782 11.4748 7.0568 11.5395C7.04579 11.6042 7.01806 11.6649 6.97637 11.7156L5.75193 13.2854C5.70672 13.3436 5.64546 13.3872 5.5757 13.4109C5.50595 13.4346 5.43077 13.4374 5.35948 13.4188L3.43648 12.9479C3.36847 12.9293 3.30687 12.8924 3.25842 12.8412C3.20998 12.7899 3.17654 12.7264 3.16176 12.6575L2.4632 10.6403Z" fill="rgb(238 93 36)" stroke="rgb(238 93 36)" stroke-width="0.8"/>
</svg>
