<svg width="240" height="267" viewBox="0 0 240 267" fill="none" xmlns="http://www.w3.org/2000/svg">
<rect width="240" height="267" fill="#E1E6E9"/>
<path d="M97.9768 219.979V198.626H106.141C107.682 198.626 108.963 198.869 109.983 199.356C111.011 199.835 111.778 200.492 112.284 201.326C112.798 202.16 113.055 203.106 113.055 204.162C113.055 205.031 112.888 205.775 112.555 206.393C112.222 207.005 111.774 207.502 111.212 207.884C110.65 208.267 110.021 208.541 109.327 208.708V208.916C110.084 208.958 110.809 209.191 111.503 209.615C112.205 210.032 112.777 210.623 113.222 211.387C113.666 212.152 113.888 213.076 113.888 214.161C113.888 215.266 113.621 216.26 113.086 217.143C112.552 218.018 111.746 218.71 110.67 219.217C109.594 219.725 108.241 219.979 106.609 219.979H97.9768ZM101.84 216.746H105.995C107.397 216.746 108.407 216.479 109.025 215.944C109.65 215.401 109.962 214.706 109.962 213.858C109.962 213.226 109.806 212.656 109.494 212.149C109.181 211.634 108.737 211.231 108.161 210.939C107.585 210.64 106.897 210.491 106.099 210.491H101.84V216.746ZM101.84 207.707H105.662C106.328 207.707 106.929 207.585 107.463 207.342C107.998 207.092 108.418 206.741 108.723 206.289C109.036 205.83 109.192 205.288 109.192 204.663C109.192 203.835 108.9 203.154 108.317 202.619C107.741 202.084 106.883 201.816 105.745 201.816H101.84V207.707Z" fill="black"/>
<path d="M122.285 198.626V219.979H118.422V198.626H122.285Z" fill="black"/>
<path d="M139.231 204.496C139.134 203.585 138.724 202.876 138.002 202.369C137.287 201.861 136.357 201.608 135.212 201.608C134.406 201.608 133.716 201.729 133.14 201.973C132.563 202.216 132.122 202.546 131.817 202.963C131.512 203.38 131.355 203.856 131.348 204.392C131.348 204.836 131.449 205.222 131.65 205.549C131.859 205.876 132.14 206.154 132.494 206.383C132.848 206.605 133.24 206.793 133.671 206.946C134.101 207.099 134.535 207.227 134.972 207.332L136.972 207.832C137.777 208.02 138.551 208.274 139.294 208.593C140.043 208.913 140.713 209.316 141.303 209.803C141.9 210.289 142.372 210.877 142.72 211.565C143.067 212.253 143.24 213.059 143.24 213.984C143.24 215.235 142.921 216.336 142.282 217.289C141.644 218.234 140.72 218.974 139.512 219.509C138.311 220.038 136.857 220.302 135.149 220.302C133.49 220.302 132.05 220.045 130.828 219.53C129.613 219.016 128.662 218.265 127.975 217.278C127.294 216.291 126.926 215.089 126.871 213.671H130.672C130.727 214.414 130.956 215.033 131.359 215.527C131.762 216.02 132.286 216.388 132.931 216.632C133.584 216.875 134.313 216.997 135.118 216.997C135.958 216.997 136.694 216.872 137.326 216.621C137.964 216.364 138.464 216.01 138.825 215.558C139.186 215.099 139.37 214.564 139.377 213.952C139.37 213.396 139.207 212.937 138.888 212.576C138.568 212.208 138.12 211.902 137.544 211.659C136.975 211.408 136.309 211.186 135.545 210.991L133.119 210.366C131.362 209.914 129.974 209.229 128.953 208.312C127.94 207.387 127.433 206.16 127.433 204.631C127.433 203.373 127.773 202.272 128.454 201.326C129.141 200.381 130.075 199.648 131.255 199.126C132.435 198.598 133.771 198.334 135.264 198.334C136.777 198.334 138.103 198.598 139.242 199.126C140.387 199.648 141.286 200.374 141.939 201.305C142.591 202.23 142.928 203.293 142.949 204.496H139.231Z" fill="black"/>
<path d="M98.1206 158.998L116.166 127.38H82.3311L118.421 84.469L156.767 127.38H120.677L140.978 158.998H184.893C200.713 158.998 208.875 140.067 198.026 128.539L123.017 48.8384C119.351 44.9433 113.126 45.0753 109.628 49.1223L40.4968 129.107C30.382 140.81 38.6848 158.998 54.1419 158.998H98.1206Z" fill="#2F3192"/>
<path d="M50.7509 173.904L30 156.739L47.6569 188.358H193.759L210 156.739L192.856 173.904H50.7509Z" fill="#2F3192"/>
<ellipse cx="117.974" cy="113.38" rx="10.827" ry="10.8406" fill="#E11B22"/>
</svg>
