<svg width="123" height="39" viewBox="0 0 123 39" fill="none" xmlns="http://www.w3.org/2000/svg">
<path d="M41.7674 32.8355H41.2202L42.2164 30.0024H42.8492L43.8468 32.8355H43.2996L42.5438 30.5834H42.5217L41.7674 32.8355ZM41.7853 31.7247H43.2775V32.1369H41.7853V31.7247Z" fill="black"/>
<path d="M44.1806 32.8355V30.0024H44.6931V32.4053H45.9394V32.8355H44.1806Z" fill="black"/>
<path d="M48.1291 30.0024H48.6417V31.8533C48.6417 32.0562 48.5938 32.2347 48.498 32.3887C48.4032 32.5427 48.2696 32.6631 48.0973 32.7498C47.9251 32.8355 47.7238 32.8784 47.4936 32.8784C47.2624 32.8784 47.0606 32.8355 46.8884 32.7498C46.7161 32.6631 46.5826 32.5427 46.4877 32.3887C46.3928 32.2347 46.3454 32.0562 46.3454 31.8533V30.0024H46.858V31.8104C46.858 31.9285 46.8838 32.0336 46.9354 32.1259C46.9879 32.2181 47.0616 32.2905 47.1564 32.3431C47.2513 32.3947 47.3637 32.4205 47.4936 32.4205C47.6234 32.4205 47.7358 32.3947 47.8307 32.3431C47.9265 32.2905 48.0002 32.2181 48.0517 32.1259C48.1033 32.0336 48.1291 31.9285 48.1291 31.8104V30.0024Z" fill="black"/>
<path d="M49.16 30.0024H49.7872L50.6273 32.0553H50.6605L51.5005 30.0024H52.1278V32.8355H51.6359V30.8891H51.6097L50.8276 32.8272H50.4601L49.6781 30.885H49.6518V32.8355H49.16V30.0024Z" fill="black"/>
<path d="M53.1597 30.0024V32.8355H52.6471V30.0024H53.1597Z" fill="black"/>
<path d="M56.0012 30.0024V32.8355H55.5452L54.2119 30.9057H54.1884V32.8355H53.6758V30.0024H54.1345L55.4665 31.9336H55.4913V30.0024H56.0012Z" fill="black"/>
<path d="M57.0334 30.0024V32.8355H56.5208V30.0024H57.0334Z" fill="black"/>
<path d="M59.3333 30.0024H59.8459V31.8533C59.8459 32.0562 59.798 32.2347 59.7022 32.3887C59.6073 32.5427 59.4738 32.6631 59.3015 32.7498C59.1293 32.8355 58.928 32.8784 58.6977 32.8784C58.4665 32.8784 58.2648 32.8355 58.0926 32.7498C57.9203 32.6631 57.7868 32.5427 57.6919 32.3887C57.597 32.2347 57.5496 32.0562 57.5496 31.8533V30.0024H58.0622V31.8104C58.0622 31.9285 58.088 32.0336 58.1395 32.1259C58.192 32.2181 58.2657 32.2905 58.3606 32.3431C58.4555 32.3947 58.5679 32.4205 58.6977 32.4205C58.8276 32.4205 58.94 32.3947 59.0349 32.3431C59.1307 32.2905 59.2043 32.2181 59.2559 32.1259C59.3075 32.0336 59.3333 31.9285 59.3333 31.8104V30.0024Z" fill="black"/>
<path d="M60.3641 30.0024H60.9914L61.8315 32.0553H61.8646L62.7047 30.0024H63.332V32.8355H62.8401V30.8891H62.8138L62.0318 32.8272H61.6643L60.8823 30.885H60.856V32.8355H60.3641V30.0024Z" fill="black"/>
<path d="M64.7774 32.8355V30.0024H66.6178V30.4326H65.29V31.2018H66.5225V31.632H65.29V32.4053H66.6289V32.8355H64.7774Z" fill="black"/>
<path d="M67.5302 30.0024L68.1533 31.0399H68.1754L68.8013 30.0024H69.3857L68.5139 31.4189L69.3996 32.8355H68.8054L68.1754 31.8049H68.1533L67.5233 32.8355H66.9319L67.8258 31.4189L66.943 30.0024H67.5302Z" fill="black"/>
<path d="M69.6249 30.4326V30.0024H71.8825V30.4326H71.0079V32.8355H70.4995V30.4326H69.6249Z" fill="black"/>
<path d="M72.2788 32.8355V30.0024H73.34C73.5573 30.0024 73.7397 30.0402 73.8871 30.1158C74.0354 30.1914 74.1473 30.2975 74.2228 30.434C74.2993 30.5695 74.3375 30.7277 74.3375 30.9085C74.3375 31.0902 74.2988 31.2479 74.2215 31.3816C74.145 31.5144 74.0322 31.6172 73.883 31.6901C73.7337 31.762 73.5504 31.798 73.3331 31.798H72.5773V31.3719H73.264C73.3911 31.3719 73.4952 31.3544 73.5762 31.3193C73.6573 31.2834 73.7172 31.2313 73.7558 31.163C73.7954 31.0939 73.8153 31.009 73.8153 30.9085C73.8153 30.808 73.7954 30.7222 73.7558 30.6512C73.7162 30.5792 73.6559 30.5248 73.5748 30.4879C73.4938 30.4501 73.3892 30.4312 73.2612 30.4312H72.7914V32.8355H72.2788ZM73.7406 31.5518L74.4411 32.8355H73.8691L73.1811 31.5518H73.7406Z" fill="black"/>
<path d="M76.5542 30.0024H77.0668V31.8533C77.0668 32.0562 77.0189 32.2347 76.9231 32.3887C76.8282 32.5427 76.6946 32.6631 76.5224 32.7498C76.3502 32.8355 76.1489 32.8784 75.9186 32.8784C75.6874 32.8784 75.4857 32.8355 75.3134 32.7498C75.1412 32.6631 75.0076 32.5427 74.9128 32.3887C74.8179 32.2347 74.7705 32.0562 74.7705 31.8533V30.0024H75.2831V31.8104C75.2831 31.9285 75.3088 32.0336 75.3604 32.1259C75.4129 32.2181 75.4866 32.2905 75.5815 32.3431C75.6764 32.3947 75.7887 32.4205 75.9186 32.4205C76.0485 32.4205 76.1609 32.3947 76.2557 32.3431C76.3515 32.2905 76.4252 32.2181 76.4768 32.1259C76.5284 32.0336 76.5542 31.9285 76.5542 31.8104V30.0024Z" fill="black"/>
<path d="M79.1228 30.7812C79.1099 30.6604 79.0556 30.5663 78.9598 30.499C78.8649 30.4317 78.7415 30.398 78.5895 30.398C78.4826 30.398 78.391 30.4141 78.3145 30.4464C78.2381 30.4787 78.1796 30.5225 78.1391 30.5778C78.0985 30.6332 78.0778 30.6964 78.0769 30.7674C78.0769 30.8264 78.0903 30.8776 78.117 30.9209C78.1446 30.9643 78.1819 31.0012 78.2289 31.0316C78.2759 31.0611 78.3279 31.086 78.385 31.1063C78.4421 31.1266 78.4997 31.1437 78.5577 31.1575L78.823 31.2239C78.9298 31.2488 79.0325 31.2825 79.1311 31.3249C79.2306 31.3673 79.3195 31.4208 79.3978 31.4854C79.477 31.5499 79.5396 31.6278 79.5857 31.7191C79.6317 31.8104 79.6548 31.9174 79.6548 32.0401C79.6548 32.2061 79.6124 32.3523 79.5276 32.4786C79.4429 32.6041 79.3204 32.7023 79.1601 32.7733C79.0008 32.8434 78.8078 32.8784 78.5812 32.8784C78.3611 32.8784 78.1699 32.8443 78.0078 32.7761C77.8466 32.7078 77.7204 32.6082 77.6292 32.4772C77.539 32.3463 77.4901 32.1867 77.4828 31.9986H77.9871C77.9945 32.0973 78.0249 32.1794 78.0783 32.2448C78.1317 32.3103 78.2012 32.3592 78.2869 32.3915C78.3735 32.4238 78.4702 32.4399 78.5771 32.4399C78.6885 32.4399 78.7861 32.4233 78.87 32.3901C78.9547 32.356 79.021 32.3089 79.0689 32.249C79.1168 32.1881 79.1412 32.1171 79.1422 32.0359C79.1412 31.9622 79.1196 31.9013 79.0772 31.8533C79.0348 31.8045 78.9754 31.7639 78.899 31.7316C78.8235 31.6984 78.735 31.6689 78.6337 31.6431L78.3118 31.5601C78.0787 31.5001 77.8945 31.4093 77.7591 31.2875C77.6246 31.1649 77.5574 31.0021 77.5574 30.7992C77.5574 30.6323 77.6025 30.4861 77.6928 30.3607C77.784 30.2352 77.9079 30.1379 78.0645 30.0688C78.221 29.9987 78.3984 29.9636 78.5964 29.9636C78.7972 29.9636 78.9731 29.9987 79.1242 30.0688C79.2762 30.1379 79.3955 30.2343 79.482 30.3579C79.5686 30.4805 79.6133 30.6217 79.6161 30.7812H79.1228Z" fill="black"/>
<path d="M80.5854 30.0024V32.8355H80.0728V30.0024H80.5854Z" fill="black"/>
<path d="M83.63 31.4189C83.63 31.7242 83.5729 31.9857 83.4587 32.2033C83.3454 32.4201 83.1907 32.5861 82.9945 32.7014C82.7992 32.8166 82.5777 32.8743 82.3299 32.8743C82.0821 32.8743 81.8601 32.8166 81.6639 32.7014C81.4687 32.5851 81.3139 32.4187 81.1997 32.2019C81.0864 31.9843 81.0298 31.7233 81.0298 31.4189C81.0298 31.1137 81.0864 30.8527 81.1997 30.636C81.3139 30.4183 81.4687 30.2518 81.6639 30.1365C81.8601 30.0213 82.0821 29.9636 82.3299 29.9636C82.5777 29.9636 82.7992 30.0213 82.9945 30.1365C83.1907 30.2518 83.3454 30.4183 83.4587 30.636C83.5729 30.8527 83.63 31.1137 83.63 31.4189ZM83.1147 31.4189C83.1147 31.2041 83.0811 31.0228 83.0138 30.8753C82.9475 30.7268 82.8554 30.6147 82.7375 30.5391C82.6196 30.4626 82.4837 30.4243 82.3299 30.4243C82.1761 30.4243 82.0402 30.4626 81.9223 30.5391C81.8044 30.6147 81.7118 30.7268 81.6446 30.8753C81.5783 31.0228 81.5451 31.2041 81.5451 31.4189C81.5451 31.6338 81.5783 31.8155 81.6446 31.964C81.7118 32.1116 81.8044 32.2236 81.9223 32.3002C82.0402 32.3758 82.1761 32.4136 82.3299 32.4136C82.4837 32.4136 82.6196 32.3758 82.7375 32.3002C82.8554 32.2236 82.9475 32.1116 83.0138 31.964C83.0811 31.8155 83.1147 31.6338 83.1147 31.4189Z" fill="black"/>
<path d="M86.4011 30.0024V32.8355H85.9451L84.6118 30.9057H84.5884V32.8355H84.0758V30.0024H84.5345L85.8664 31.9336H85.8913V30.0024H86.4011Z" fill="black"/>
<path d="M87.8469 30.0024H88.4742L89.3142 32.0553H89.3474L90.1874 30.0024H90.8147V32.8355H90.3228V30.8891H90.2966L89.5146 32.8272H89.1471L88.365 30.885H88.3388V32.8355H87.8469V30.0024Z" fill="black"/>
<path d="M91.6974 32.8355H91.1502L92.1464 30.0024H92.7792L93.7768 32.8355H93.2296L92.4739 30.5834H92.4518L91.6974 32.8355ZM91.7153 31.7247H93.2075V32.1369H91.7153V31.7247Z" fill="black"/>
<path d="M96.4359 30.0024V32.8355H95.98L94.6467 30.9057H94.6232V32.8355H94.1106V30.0024H94.5693L95.9012 31.9336H95.9261V30.0024H96.4359Z" fill="black"/>
<path d="M98.7393 30.0024H99.2519V31.8533C99.2519 32.0562 99.204 32.2347 99.1082 32.3887C99.0133 32.5427 98.8797 32.6631 98.7075 32.7498C98.5352 32.8355 98.334 32.8784 98.1037 32.8784C97.8725 32.8784 97.6708 32.8355 97.4985 32.7498C97.3263 32.6631 97.1927 32.5427 97.0979 32.3887C97.003 32.2347 96.9555 32.0562 96.9555 31.8533V30.0024H97.4681V31.8104C97.4681 31.9285 97.4939 32.0336 97.5455 32.1259C97.598 32.2181 97.6717 32.2905 97.7666 32.3431C97.8615 32.3947 97.9738 32.4205 98.1037 32.4205C98.2336 32.4205 98.346 32.3947 98.4408 32.3431C98.5366 32.2905 98.6103 32.2181 98.6619 32.1259C98.7135 32.0336 98.7393 31.9285 98.7393 31.8104V30.0024Z" fill="black"/>
<path d="M99.7701 32.8355V30.0024H101.583V30.4326H100.283V31.2018H101.459V31.632H100.283V32.8355H99.7701Z" fill="black"/>
<path d="M102.021 32.8355H101.474L102.47 30.0024H103.103L104.1 32.8355H103.553L102.797 30.5834H102.775L102.021 32.8355ZM102.039 31.7247H103.531V32.1369H102.039V31.7247Z" fill="black"/>
<path d="M106.723 30.9583H106.206C106.192 30.8734 106.165 30.7983 106.125 30.7328C106.085 30.6664 106.036 30.6101 105.977 30.564C105.918 30.5179 105.851 30.4833 105.775 30.4603C105.701 30.4363 105.62 30.4243 105.534 30.4243C105.38 30.4243 105.243 30.463 105.125 30.5405C105.006 30.617 104.913 30.7296 104.846 30.878C104.778 31.0256 104.745 31.2059 104.745 31.4189C104.745 31.6357 104.778 31.8183 104.846 31.9668C104.914 32.1143 105.007 32.2259 105.125 32.3016C105.243 32.3763 105.379 32.4136 105.532 32.4136C105.617 32.4136 105.696 32.4025 105.77 32.3804C105.845 32.3573 105.911 32.3237 105.97 32.2794C106.03 32.2351 106.08 32.1807 106.121 32.1162C106.162 32.0516 106.191 31.9778 106.206 31.8948L106.723 31.8976C106.704 32.0323 106.662 32.1586 106.598 32.2767C106.534 32.3947 106.451 32.4989 106.347 32.5893C106.244 32.6788 106.124 32.7488 105.985 32.7996C105.847 32.8494 105.694 32.8743 105.525 32.8743C105.277 32.8743 105.055 32.8166 104.859 32.7014C104.664 32.5861 104.51 32.4196 104.398 32.2019C104.286 31.9843 104.229 31.7233 104.229 31.4189C104.229 31.1137 104.286 30.8527 104.399 30.636C104.513 30.4183 104.667 30.2518 104.862 30.1365C105.057 30.0213 105.278 29.9636 105.525 29.9636C105.683 29.9636 105.829 29.9858 105.965 30.03C106.1 30.0743 106.221 30.1393 106.327 30.2251C106.433 30.3099 106.52 30.4141 106.588 30.5377C106.657 30.6604 106.702 30.8006 106.723 30.9583Z" fill="black"/>
<path d="M107.029 30.4326V30.0024H109.287V30.4326H108.412V32.8355H107.904V30.4326H107.029Z" fill="black"/>
<path d="M111.467 30.0024H111.98V31.8533C111.98 32.0562 111.932 32.2347 111.836 32.3887C111.741 32.5427 111.608 32.6631 111.435 32.7498C111.263 32.8355 111.062 32.8784 110.832 32.8784C110.6 32.8784 110.399 32.8355 110.226 32.7498C110.054 32.6631 109.921 32.5427 109.826 32.3887C109.731 32.2347 109.683 32.0562 109.683 31.8533V30.0024H110.196V31.8104C110.196 31.9285 110.222 32.0336 110.273 32.1259C110.326 32.2181 110.4 32.2905 110.494 32.3431C110.589 32.3947 110.702 32.4205 110.832 32.4205C110.961 32.4205 111.074 32.3947 111.169 32.3431C111.264 32.2905 111.338 32.2181 111.39 32.1259C111.441 32.0336 111.467 31.9285 111.467 31.8104V30.0024Z" fill="black"/>
<path d="M112.498 32.8355V30.0024H113.559C113.776 30.0024 113.959 30.0402 114.106 30.1158C114.254 30.1914 114.366 30.2975 114.442 30.434C114.518 30.5695 114.557 30.7277 114.557 30.9085C114.557 31.0902 114.518 31.2479 114.441 31.3816C114.364 31.5144 114.251 31.6172 114.102 31.6901C113.953 31.762 113.77 31.798 113.552 31.798H112.796V31.3719H113.483C113.61 31.3719 113.714 31.3544 113.795 31.3193C113.876 31.2834 113.936 31.2313 113.975 31.163C114.015 31.0939 114.034 31.009 114.034 30.9085C114.034 30.808 114.015 30.7222 113.975 30.6512C113.935 30.5792 113.875 30.5248 113.794 30.4879C113.713 30.4501 113.608 30.4312 113.48 30.4312H113.011V32.8355H112.498ZM113.96 31.5518L114.66 32.8355H114.088L113.4 31.5518H113.96Z" fill="black"/>
<path d="M114.99 32.8355V30.0024H116.83V30.4326H115.502V31.2018H116.735V31.632H115.502V32.4053H116.841V32.8355H114.99Z" fill="black"/>
<path d="M117.314 32.8355V30.0024H118.375C118.592 30.0024 118.775 30.0402 118.922 30.1158C119.071 30.1914 119.182 30.2975 119.258 30.434C119.334 30.5695 119.373 30.7277 119.373 30.9085C119.373 31.0902 119.334 31.2479 119.257 31.3816C119.18 31.5144 119.067 31.6172 118.918 31.6901C118.769 31.762 118.586 31.798 118.368 31.798H117.612V31.3719H118.299C118.426 31.3719 118.53 31.3544 118.611 31.3193C118.692 31.2834 118.752 31.2313 118.791 31.163C118.831 31.0939 118.85 31.009 118.85 30.9085C118.85 30.808 118.831 30.7222 118.791 30.6512C118.751 30.5792 118.691 30.5248 118.61 30.4879C118.529 30.4501 118.424 30.4312 118.296 30.4312H117.827V32.8355H117.314ZM118.776 31.5518L119.476 32.8355H118.904L118.216 31.5518H118.776Z" fill="black"/>
<path d="M121.343 30.7812C121.33 30.6604 121.276 30.5663 121.18 30.499C121.085 30.4317 120.962 30.398 120.81 30.398C120.703 30.398 120.612 30.4141 120.535 30.4464C120.459 30.4787 120.4 30.5225 120.36 30.5778C120.319 30.6332 120.298 30.6964 120.297 30.7674C120.297 30.8264 120.311 30.8776 120.338 30.9209C120.365 30.9643 120.402 31.0012 120.449 31.0316C120.496 31.0611 120.548 31.086 120.606 31.1063C120.663 31.1266 120.72 31.1437 120.778 31.1575L121.044 31.2239C121.15 31.2488 121.253 31.2825 121.352 31.3249C121.451 31.3673 121.54 31.4208 121.618 31.4854C121.698 31.5499 121.76 31.6278 121.806 31.7191C121.852 31.8104 121.875 31.9174 121.875 32.0401C121.875 32.2061 121.833 32.3523 121.748 32.4786C121.663 32.6041 121.541 32.7023 121.381 32.7733C121.221 32.8434 121.028 32.8784 120.802 32.8784C120.582 32.8784 120.39 32.8443 120.228 32.7761C120.067 32.7078 119.941 32.6082 119.85 32.4772C119.76 32.3463 119.711 32.1867 119.703 31.9986H120.208C120.215 32.0973 120.245 32.1794 120.299 32.2448C120.352 32.3103 120.422 32.3592 120.507 32.3915C120.594 32.4238 120.691 32.4399 120.798 32.4399C120.909 32.4399 121.007 32.4233 121.091 32.3901C121.175 32.356 121.242 32.3089 121.289 32.249C121.337 32.1881 121.362 32.1171 121.363 32.0359C121.362 31.9622 121.34 31.9013 121.298 31.8533C121.255 31.8045 121.196 31.7639 121.12 31.7316C121.044 31.6984 120.956 31.6689 120.854 31.6431L120.532 31.5601C120.299 31.5001 120.115 31.4093 119.98 31.2875C119.845 31.1649 119.778 31.0021 119.778 30.7992C119.778 30.6323 119.823 30.4861 119.913 30.3607C120.005 30.2352 120.128 30.1379 120.285 30.0688C120.442 29.9987 120.619 29.9636 120.817 29.9636C121.018 29.9636 121.194 29.9987 121.345 30.0688C121.497 30.1379 121.616 30.2343 121.703 30.3579C121.789 30.4805 121.834 30.6217 121.837 30.7812H121.343Z" fill="black"/>
<path d="M60.5587 38.9572H60.0115L61.0077 36.1241H61.6405L62.6381 38.9572H62.0909L61.3352 36.7051H61.3131L60.5587 38.9572ZM60.5766 37.8464H62.0688V38.2586H60.5766V37.8464Z" fill="black"/>
<path d="M64.503 36.9029C64.4901 36.7821 64.4357 36.688 64.3399 36.6207C64.2451 36.5534 64.1216 36.5197 63.9697 36.5197C63.8628 36.5197 63.7712 36.5358 63.6947 36.5681C63.6183 36.6004 63.5598 36.6442 63.5192 36.6995C63.4787 36.7549 63.458 36.8181 63.4571 36.8891C63.4571 36.9481 63.4704 36.9993 63.4971 37.0426C63.5248 37.086 63.5621 37.1229 63.609 37.1533C63.656 37.1828 63.7081 37.2077 63.7652 37.228C63.8223 37.2483 63.8799 37.2654 63.9379 37.2792L64.2032 37.3456C64.31 37.3705 64.4127 37.4042 64.5113 37.4466C64.6108 37.489 64.6996 37.5425 64.7779 37.607C64.8571 37.6716 64.9198 37.7495 64.9658 37.8408C65.0119 37.9321 65.0349 38.0391 65.0349 38.1618C65.0349 38.3278 64.9925 38.474 64.9078 38.6003C64.8231 38.7258 64.7006 38.824 64.5403 38.895C64.3809 38.9651 64.188 39.0001 63.9614 39.0001C63.7412 39.0001 63.5501 38.966 63.388 38.8978C63.2268 38.8295 63.1006 38.7299 63.0094 38.5989C62.9191 38.468 62.8703 38.3084 62.8629 38.1203H63.3673C63.3746 38.219 63.405 38.3011 63.4584 38.3665C63.5119 38.432 63.5814 38.4809 63.6671 38.5132C63.7537 38.5454 63.8504 38.5616 63.9572 38.5616C64.0687 38.5616 64.1663 38.545 64.2501 38.5118C64.3349 38.4777 64.4012 38.4306 64.4491 38.3707C64.497 38.3098 64.5214 38.2388 64.5223 38.1576C64.5214 38.0839 64.4998 38.023 64.4574 37.975C64.415 37.9262 64.3556 37.8856 64.2792 37.8533C64.2036 37.8201 64.1152 37.7906 64.0139 37.7648L63.6919 37.6818C63.4589 37.6218 63.2747 37.531 63.1393 37.4092C63.0048 37.2866 62.9376 37.1238 62.9376 36.9209C62.9376 36.754 62.9827 36.6078 63.073 36.4824C63.1642 36.3569 63.288 36.2596 63.4446 36.1905C63.6012 36.1204 63.7785 36.0853 63.9766 36.0853C64.1774 36.0853 64.3533 36.1204 64.5044 36.1905C64.6563 36.2596 64.7756 36.356 64.8622 36.4796C64.9488 36.6022 64.9935 36.7434 64.9962 36.9029H64.503Z" fill="black"/>
<path d="M67.0297 36.9029C67.0168 36.7821 66.9625 36.688 66.8667 36.6207C66.7718 36.5534 66.6484 36.5197 66.4964 36.5197C66.3895 36.5197 66.2979 36.5358 66.2214 36.5681C66.145 36.6004 66.0865 36.6442 66.046 36.6995C66.0054 36.7549 65.9847 36.8181 65.9838 36.8891C65.9838 36.9481 65.9971 36.9993 66.0238 37.0426C66.0515 37.086 66.0888 37.1229 66.1358 37.1533C66.1827 37.1828 66.2348 37.2077 66.2919 37.228C66.349 37.2483 66.4066 37.2654 66.4646 37.2792L66.7299 37.3456C66.8367 37.3705 66.9394 37.4042 67.038 37.4466C67.1375 37.489 67.2264 37.5425 67.3046 37.607C67.3839 37.6716 67.4465 37.7495 67.4926 37.8408C67.5386 37.9321 67.5616 38.0391 67.5616 38.1618C67.5616 38.3278 67.5193 38.474 67.4345 38.6003C67.3498 38.7258 67.2273 38.824 67.067 38.895C66.9076 38.9651 66.7147 39.0001 66.4881 39.0001C66.2679 39.0001 66.0768 38.966 65.9147 38.8978C65.7535 38.8295 65.6273 38.7299 65.5361 38.5989C65.4459 38.468 65.397 38.3084 65.3897 38.1203H65.894C65.9013 38.219 65.9317 38.3011 65.9852 38.3665C66.0386 38.432 66.1081 38.4809 66.1938 38.5132C66.2804 38.5454 66.3771 38.5616 66.4839 38.5616C66.5954 38.5616 66.693 38.545 66.7769 38.5118C66.8616 38.4777 66.9279 38.4306 66.9758 38.3707C67.0237 38.3098 67.0481 38.2388 67.049 38.1576C67.0481 38.0839 67.0265 38.023 66.9841 37.975C66.9417 37.9262 66.8823 37.8856 66.8059 37.8533C66.7303 37.8201 66.6419 37.7906 66.5406 37.7648L66.2187 37.6818C65.9856 37.6218 65.8014 37.531 65.666 37.4092C65.5315 37.2866 65.4643 37.1238 65.4643 36.9209C65.4643 36.754 65.5094 36.6078 65.5997 36.4824C65.6909 36.3569 65.8148 36.2596 65.9713 36.1905C66.1279 36.1204 66.3052 36.0853 66.5033 36.0853C66.7041 36.0853 66.88 36.1204 67.0311 36.1905C67.1831 36.2596 67.3023 36.356 67.3889 36.4796C67.4755 36.6022 67.5202 36.7434 67.523 36.9029H67.0297Z" fill="black"/>
<path d="M70.5471 37.5406C70.5471 37.8459 70.49 38.1074 70.3757 38.325C70.2624 38.5418 70.1077 38.7078 69.9115 38.823C69.7162 38.9383 69.4947 38.996 69.2469 38.996C68.9991 38.996 68.7772 38.9383 68.581 38.823C68.3857 38.7068 68.2309 38.5404 68.1167 38.3236C68.0034 38.106 67.9468 37.845 67.9468 37.5406C67.9468 37.2354 68.0034 36.9744 68.1167 36.7576C68.2309 36.54 68.3857 36.3735 68.581 36.2582C68.7772 36.143 68.9991 36.0853 69.2469 36.0853C69.4947 36.0853 69.7162 36.143 69.9115 36.2582C70.1077 36.3735 70.2624 36.54 70.3757 36.7576C70.49 36.9744 70.5471 37.2354 70.5471 37.5406ZM70.0317 37.5406C70.0317 37.3258 69.9981 37.1445 69.9308 36.997C69.8645 36.8485 69.7724 36.7364 69.6545 36.6608C69.5366 36.5843 69.4007 36.546 69.2469 36.546C69.0931 36.546 68.9572 36.5843 68.8393 36.6608C68.7214 36.7364 68.6289 36.8485 68.5616 36.997C68.4953 37.1445 68.4621 37.3258 68.4621 37.5406C68.4621 37.7555 68.4953 37.9372 68.5616 38.0857C68.6289 38.2333 68.7214 38.3453 68.8393 38.4219C68.9572 38.4975 69.0931 38.5353 69.2469 38.5353C69.4007 38.5353 69.5366 38.4975 69.6545 38.4219C69.7724 38.3453 69.8645 38.2333 69.9308 38.0857C69.9981 37.9372 70.0317 37.7555 70.0317 37.5406Z" fill="black"/>
<path d="M73.4537 37.08H72.937C72.9223 36.9951 72.8951 36.92 72.8555 36.8545C72.8159 36.7881 72.7666 36.7318 72.7076 36.6857C72.6487 36.6396 72.5814 36.605 72.5059 36.582C72.4313 36.558 72.3507 36.546 72.2641 36.546C72.1103 36.546 71.974 36.5847 71.8552 36.6622C71.7363 36.7387 71.6433 36.8513 71.5761 36.9997C71.5088 37.1473 71.4752 37.3276 71.4752 37.5406C71.4752 37.7574 71.5088 37.94 71.5761 38.0885C71.6442 38.236 71.7373 38.3476 71.8552 38.4232C71.974 38.498 72.1098 38.5353 72.2627 38.5353C72.3475 38.5353 72.4267 38.5242 72.5004 38.5021C72.575 38.479 72.6418 38.4454 72.7007 38.4011C72.7606 38.3568 72.8108 38.3024 72.8513 38.2379C72.8928 38.1733 72.9213 38.0995 72.937 38.0165L73.4537 38.0193C73.4344 38.1539 73.3925 38.2803 73.328 38.3983C73.2645 38.5164 73.1811 38.6206 73.0779 38.711C72.9748 38.8005 72.8541 38.8705 72.7159 38.9213C72.5778 38.9711 72.4244 38.996 72.2558 38.996C72.0071 38.996 71.7852 38.9383 71.5899 38.823C71.3946 38.7078 71.2408 38.5413 71.1284 38.3236C71.016 38.106 70.9598 37.845 70.9598 37.5406C70.9598 37.2354 71.0165 36.9744 71.1298 36.7576C71.2431 36.54 71.3974 36.3735 71.5926 36.2582C71.7879 36.143 72.009 36.0853 72.2558 36.0853C72.4133 36.0853 72.5598 36.1075 72.6952 36.1517C72.8306 36.196 72.9513 36.261 73.0572 36.3468C73.1631 36.4316 73.2502 36.5358 73.3183 36.6594C73.3874 36.7821 73.4326 36.9223 73.4537 37.08Z" fill="black"/>
<path d="M74.4358 36.1241V38.9572H73.9232V36.1241H74.4358Z" fill="black"/>
<path d="M75.3542 38.9572H74.8071L75.8033 36.1241H76.4361L77.4336 38.9572H76.8865L76.1307 36.7051H76.1086L75.3542 38.9572ZM75.3722 37.8464H76.8644V38.2586H75.3722V37.8464Z" fill="black"/>
<path d="M77.34 36.5543V36.1241H79.5976V36.5543H78.7231V38.9572H78.2146V36.5543H77.34Z" fill="black"/>
<path d="M80.5455 36.1241V38.9572H80.0329V36.1241H80.5455Z" fill="black"/>
<path d="M83.629 37.5406C83.629 37.8459 83.5719 38.1074 83.4577 38.325C83.3444 38.5418 83.1896 38.7078 82.9934 38.823C82.7982 38.9383 82.5766 38.996 82.3288 38.996C82.0811 38.996 81.8591 38.9383 81.6629 38.823C81.4676 38.7068 81.3129 38.5404 81.1987 38.3236C81.0854 38.106 81.0287 37.845 81.0287 37.5406C81.0287 37.2354 81.0854 36.9744 81.1987 36.7576C81.3129 36.54 81.4676 36.3735 81.6629 36.2582C81.8591 36.143 82.0811 36.0853 82.3288 36.0853C82.5766 36.0853 82.7982 36.143 82.9934 36.2582C83.1896 36.3735 83.3444 36.54 83.4577 36.7576C83.5719 36.9744 83.629 37.2354 83.629 37.5406ZM83.1136 37.5406C83.1136 37.3258 83.08 37.1445 83.0128 36.997C82.9464 36.8485 82.8543 36.7364 82.7364 36.6608C82.6185 36.5843 82.4827 36.546 82.3288 36.546C82.175 36.546 82.0392 36.5843 81.9213 36.6608C81.8034 36.7364 81.7108 36.8485 81.6435 36.997C81.5772 37.1445 81.5441 37.3258 81.5441 37.5406C81.5441 37.7555 81.5772 37.9372 81.6435 38.0857C81.7108 38.2333 81.8034 38.3453 81.9213 38.4219C82.0392 38.4975 82.175 38.5353 82.3288 38.5353C82.4827 38.5353 82.6185 38.4975 82.7364 38.4219C82.8543 38.3453 82.9464 38.2333 83.0128 38.0857C83.08 37.9372 83.1136 37.7555 83.1136 37.5406Z" fill="black"/>
<path d="M86.4389 36.1241V38.9572H85.983L84.6497 37.0274H84.6262V38.9572H84.1136V36.1241H84.5723L85.9042 38.0553H85.9291V36.1241H86.4389Z" fill="black"/>
<path d="M90.491 37.5406C90.491 37.8459 90.4339 38.1074 90.3197 38.325C90.2064 38.5418 90.0517 38.7078 89.8555 38.823C89.6602 38.9383 89.4387 38.996 89.1909 38.996C88.9431 38.996 88.7211 38.9383 88.5249 38.823C88.3296 38.7068 88.1749 38.5404 88.0607 38.3236C87.9474 38.106 87.8907 37.845 87.8907 37.5406C87.8907 37.2354 87.9474 36.9744 88.0607 36.7576C88.1749 36.54 88.3296 36.3735 88.5249 36.2582C88.7211 36.143 88.9431 36.0853 89.1909 36.0853C89.4387 36.0853 89.6602 36.143 89.8555 36.2582C90.0517 36.3735 90.2064 36.54 90.3197 36.7576C90.4339 36.9744 90.491 37.2354 90.491 37.5406ZM89.9757 37.5406C89.9757 37.3258 89.942 37.1445 89.8748 36.997C89.8085 36.8485 89.7164 36.7364 89.5985 36.6608C89.4806 36.5843 89.3447 36.546 89.1909 36.546C89.037 36.546 88.9012 36.5843 88.7833 36.6608C88.6654 36.7364 88.5728 36.8485 88.5056 36.997C88.4393 37.1445 88.4061 37.3258 88.4061 37.5406C88.4061 37.7555 88.4393 37.9372 88.5056 38.0857C88.5728 38.2333 88.6654 38.3453 88.7833 38.4219C88.9012 38.4975 89.037 38.5353 89.1909 38.5353C89.3447 38.5353 89.4806 38.4975 89.5985 38.4219C89.7164 38.3453 89.8085 38.2333 89.8748 38.0857C89.942 37.9372 89.9757 37.7555 89.9757 37.5406Z" fill="black"/>
<path d="M90.9756 38.9572V36.1241H92.7884V36.5543H91.4882V37.3235H92.664V37.7537H91.4882V38.9572H90.9756Z" fill="black"/>
<path d="M94.7331 36.1241V38.9572H94.2205V36.1241H94.7331Z" fill="black"/>
<path d="M97.6135 36.1241V38.9572H97.1575L95.8242 37.0274H95.8007V38.9572H95.2882V36.1241H95.7469L97.0788 38.0553H97.1037V36.1241H97.6135Z" fill="black"/>
<path d="M99.1309 38.9572H98.172V36.1241H99.1502C99.4312 36.1241 99.6725 36.1808 99.8742 36.2942C100.077 36.4067 100.233 36.5686 100.341 36.7798C100.45 36.991 100.504 37.2437 100.504 37.5379C100.504 37.833 100.449 38.0866 100.34 38.2987C100.231 38.5109 100.074 38.6736 99.8687 38.7871C99.6642 38.9005 99.4183 38.9572 99.1309 38.9572ZM98.6846 38.5132H99.106C99.3032 38.5132 99.4676 38.4772 99.5993 38.4053C99.731 38.3324 99.83 38.224 99.8963 38.0802C99.9627 37.9354 99.9958 37.7546 99.9958 37.5379C99.9958 37.3211 99.9627 37.1413 99.8963 36.9984C99.83 36.8545 99.7319 36.747 99.6021 36.676C99.4731 36.6041 99.3128 36.5681 99.1212 36.5681H98.6846V38.5132Z" fill="black"/>
<path d="M101.504 36.1241V38.9572H100.991V36.1241H101.504Z" fill="black"/>
<path d="M102.422 38.9572H101.875L102.871 36.1241H103.504L104.502 38.9572H103.955L103.199 36.7051H103.177L102.422 38.9572ZM102.44 37.8464H103.933V38.2586H102.44V37.8464Z" fill="black"/>
<path d="M120.202 10.0305L118.124 10.0305L118.124 18.3828L118.124 26.7352L120.202 26.7352L122.28 26.7352L122.28 18.3828L122.28 10.0305L120.202 10.0305Z" fill="#E7490E"/>
<path d="M115.346 23.3086C114.171 20.3103 112.652 16.4268 110.803 11.6296L110.187 10.0305L107.75 10.0591L105.299 10.1019L104.683 11.5297C103.536 14.171 99.1648 24.2223 98.6202 25.493L98.0898 26.7352L100.283 26.7352L102.476 26.7352L103.121 25.1361L103.751 23.5227L107.463 23.5227L111.176 23.5227L111.735 25.1361L112.308 26.7352L114.501 26.7352C115.705 26.7352 116.694 26.7209 116.679 26.7066C116.679 26.6781 116.077 25.1504 115.346 23.3086ZM107.521 20.7386C105.571 20.7386 105.084 20.6958 105.084 20.5387C105.084 20.4388 105.6 19.0682 106.245 17.5119C106.89 15.9557 107.435 14.585 107.478 14.4994C107.664 14.0139 107.764 14.2138 109.441 18.8826C109.714 19.625 109.943 20.3531 109.943 20.4959C109.957 20.7243 109.757 20.7386 107.521 20.7386Z" fill="#E7490E"/>
<path d="M94.8973 10.0305L93.0484 10.0305L91.6581 11.7866C88.247 16.0556 87.688 16.7409 87.602 16.7409C87.559 16.7267 86.3264 15.2275 84.8788 13.3857L82.2559 10.0305L80.407 10.0305L78.5581 10.0305L78.5581 18.3828L78.5581 26.7352L80.5647 26.7352L82.5712 26.7352L82.5712 21.6809C82.5712 18.7683 82.6286 16.5839 82.7002 16.541C82.7719 16.4839 83.8755 17.7689 85.1654 19.3823C86.441 20.9956 87.559 22.2949 87.645 22.2663C87.731 22.2378 88.8346 20.9385 90.0959 19.3823C91.3715 17.826 92.4751 16.5268 92.5754 16.4839C92.7044 16.4411 92.7474 17.5976 92.7474 21.581L92.7474 26.7352L94.754 26.7352L96.7605 26.7352L96.7605 18.3828L96.7605 10.0305L94.8973 10.0305Z" fill="#E7490E"/>
<path d="M72.1092 23.7369L68.5261 23.7369L68.5261 21.6667L68.5261 19.5964L71.8656 19.5679L75.1908 19.525L75.2338 18.0687L75.2768 16.5982L71.9086 16.5982C69.8447 16.5982 68.5261 16.541 68.4974 16.4554C68.4831 16.384 68.4688 15.5845 68.4974 14.6707L68.5404 13.0288L72.0089 13.0002L75.4774 12.9574L75.5204 11.5011L75.5634 10.0305L69.9594 10.0305L64.3696 10.0305L64.3696 18.3828L64.3696 26.7352L70.031 26.7352L75.6924 26.7352L75.6924 25.236L75.6924 23.7369L72.1092 23.7369Z" fill="#E7490E"/>
<path d="M62.2628 23.6969C62.2198 23.6397 60.5716 23.5969 58.608 23.5969L55.0535 23.5969L55.0535 16.8151L55.0535 10.019L53.0326 10.0619L51.0117 10.1047L51.0261 18.0287C51.0261 22.3833 51.0404 26.124 51.0404 26.3525L51.0404 26.738L56.7018 26.738L62.3632 26.738L62.3632 25.2674C62.3632 24.4536 62.3202 23.7397 62.2628 23.6969Z" fill="#E7490E"/>
<path d="M49.0947 25.3029C48.8224 24.6319 48.1201 22.8329 47.5325 21.3052C46.9448 19.7776 45.7409 16.6222 44.8379 14.3093L43.204 10.0974L40.7675 10.0546C38.8899 10.026 38.3022 10.0689 38.2449 10.1974C38.1016 10.54 36.3243 14.6377 34.8481 18.0214C32.0102 24.532 31.1216 26.5879 31.1216 26.6593C31.1216 26.7021 32.0962 26.7164 33.2858 26.7021L35.45 26.6593L36.052 25.2316C36.3673 24.4463 36.697 23.7181 36.7543 23.6325C36.8403 23.4897 37.7433 23.4469 40.4378 23.4469C43.1323 23.4469 44.0353 23.4897 44.1213 23.6325C44.1786 23.7181 44.4653 24.4463 44.7519 25.2316L45.2679 26.6593L47.4321 26.7021C48.6361 26.7164 49.6107 26.6879 49.5964 26.6307C49.582 26.5594 49.367 25.974 49.0947 25.3029ZM40.5811 20.7056C39.2912 20.7199 38.1876 20.6913 38.1159 20.6199C38.0443 20.5485 38.4169 19.4492 38.9759 18.0785C39.5205 16.7507 40.0795 15.3515 40.2228 14.9803C40.3661 14.6091 40.5525 14.3236 40.6241 14.3521C40.7961 14.4092 43.0177 20.2915 42.9603 20.52C42.9317 20.6057 41.9857 20.677 40.5811 20.7056Z" fill="#E7490E"/>
<path d="M17.717 0.00100136L20.5032 2.77346L26.1237 8.34775L25.0123 9.47903L17.716 2.33555L10.0692 10.072C5.86641 14.3344 2.42245 17.8377 2.42245 17.8815C2.42245 17.9253 5.86641 21.4432 10.0692 25.691L17.7306 33.4275L20.5032 30.654L24.4422 26.7128L25.5679 27.8045L17.7306 35.6342L-7.81626e-07 17.8815L17.717 0.00100136Z" fill="#E7490E"/>
<path d="M32.3864 0.00100136L35.1726 2.77346L37.9453 5.54692L37.9456 7.79123L32.3854 2.33555L24.7386 10.072C20.5358 14.3344 17.0919 17.8377 17.0919 17.8815C17.0919 17.9253 20.5358 21.4432 24.7386 25.691L32.3999 33.4275L35.1726 30.654L37.9453 27.8806L37.9453 30.0993L32.3999 35.6342L14.6694 17.8815L32.3864 0.00100136Z" fill="#151616"/>
</svg>
