<svg width="240" height="267" viewBox="0 0 240 267" fill="none" xmlns="http://www.w3.org/2000/svg">
<rect width="240" height="267" fill="#E1E6E9"/>
<path d="M88.6059 154.363H87.7334L89.322 149.845H90.3311L91.9219 154.363H91.0494L89.8442 150.771H89.8089L88.6059 154.363ZM88.6346 152.591H91.0142V153.249H88.6346V152.591Z" fill="black"/>
<path d="M92.4543 154.363V149.845H93.2717V153.677H95.2591V154.363H92.4543Z" fill="black"/>
<path d="M98.751 149.845H99.5685V152.796C99.5685 153.12 99.4921 153.405 99.3393 153.65C99.188 153.896 98.9751 154.088 98.7004 154.226C98.4257 154.363 98.1047 154.431 97.7375 154.431C97.3688 154.431 97.0471 154.363 96.7724 154.226C96.4978 154.088 96.2848 153.896 96.1335 153.65C95.9822 153.405 95.9065 153.12 95.9065 152.796V149.845H96.724V152.728C96.724 152.916 96.7651 153.084 96.8474 153.231C96.9311 153.378 97.0486 153.494 97.1999 153.577C97.3512 153.66 97.5304 153.701 97.7375 153.701C97.9446 153.701 98.1238 153.66 98.2751 153.577C98.4279 153.494 98.5454 153.378 98.6277 153.231C98.7099 153.084 98.751 152.916 98.751 152.728V149.845Z" fill="black"/>
<path d="M100.395 149.845H101.395L102.735 153.119H102.788L104.127 149.845H105.128V154.363H104.343V151.259H104.301L103.054 154.35H102.468L101.221 151.252H101.179V154.363H100.395V149.845Z" fill="black"/>
<path d="M106.773 149.845V154.363H105.956V149.845H106.773Z" fill="black"/>
<path d="M111.305 149.845V154.363H110.578L108.451 151.285H108.414V154.363H107.596V149.845H108.328L110.452 152.924H110.492V149.845H111.305Z" fill="black"/>
<path d="M112.951 149.845V154.363H112.133V149.845H112.951Z" fill="black"/>
<path d="M116.618 149.845H117.436V152.796C117.436 153.12 117.359 153.405 117.207 153.65C117.055 153.896 116.842 154.088 116.568 154.226C116.293 154.363 115.972 154.431 115.605 154.431C115.236 154.431 114.914 154.363 114.64 154.226C114.365 154.088 114.152 153.896 114.001 153.65C113.85 153.405 113.774 153.12 113.774 152.796V149.845H114.591V152.728C114.591 152.916 114.632 153.084 114.715 153.231C114.798 153.378 114.916 153.494 115.067 153.577C115.219 153.66 115.398 153.701 115.605 153.701C115.812 153.701 115.991 153.66 116.142 153.577C116.295 153.494 116.413 153.378 116.495 153.231C116.577 153.084 116.618 152.916 116.618 152.728V149.845Z" fill="black"/>
<path d="M118.262 149.845H119.263L120.602 153.119H120.655L121.995 149.845H122.995V154.363H122.211V151.259H122.169L120.922 154.35H120.336L119.089 151.252H119.047V154.363H118.262V149.845Z" fill="black"/>
<path d="M125.3 154.363V149.845H128.235V150.531H126.118V151.757H128.083V152.444H126.118V153.677H128.253V154.363H125.3Z" fill="black"/>
<path d="M129.69 149.845L130.684 151.499H130.719L131.717 149.845H132.649L131.259 152.104L132.671 154.363H131.724L130.719 152.719H130.684L129.679 154.363H128.736L130.161 152.104L128.754 149.845H129.69Z" fill="black"/>
<path d="M133.03 150.531V149.845H136.631V150.531H135.236V154.363H134.425V150.531H133.03Z" fill="black"/>
<path d="M137.263 154.363V149.845H138.955C139.301 149.845 139.592 149.905 139.827 150.026C140.064 150.146 140.242 150.315 140.363 150.533C140.485 150.749 140.546 151.001 140.546 151.29C140.546 151.579 140.484 151.831 140.361 152.044C140.239 152.256 140.059 152.42 139.821 152.536C139.583 152.651 139.29 152.708 138.944 152.708H137.739V152.029H138.834C139.036 152.029 139.202 152.001 139.332 151.945C139.461 151.888 139.556 151.804 139.618 151.696C139.681 151.585 139.713 151.45 139.713 151.29C139.713 151.129 139.681 150.993 139.618 150.879C139.555 150.765 139.459 150.678 139.329 150.619C139.2 150.559 139.033 150.529 138.829 150.529H138.08V154.363H137.263ZM139.594 152.316L140.711 154.363H139.799L138.701 152.316H139.594Z" fill="black"/>
<path d="M144.081 149.845H144.898V152.796C144.898 153.12 144.822 153.405 144.669 153.65C144.518 153.896 144.305 154.088 144.03 154.226C143.755 154.363 143.434 154.431 143.067 154.431C142.698 154.431 142.377 154.363 142.102 154.226C141.827 154.088 141.614 153.896 141.463 153.65C141.312 153.405 141.236 153.12 141.236 152.796V149.845H142.053V152.728C142.053 152.916 142.095 153.084 142.177 153.231C142.261 153.378 142.378 153.494 142.529 153.577C142.681 153.66 142.86 153.701 143.067 153.701C143.274 153.701 143.453 153.66 143.605 153.577C143.757 153.494 143.875 153.378 143.957 153.231C144.039 153.084 144.081 152.916 144.081 152.728V149.845Z" fill="black"/>
<path d="M148.177 151.087C148.156 150.894 148.07 150.744 147.917 150.637C147.765 150.529 147.569 150.476 147.326 150.476C147.156 150.476 147.01 150.501 146.888 150.553C146.766 150.604 146.673 150.674 146.608 150.762C146.543 150.851 146.51 150.951 146.509 151.065C146.509 151.159 146.53 151.24 146.573 151.31C146.617 151.379 146.676 151.438 146.751 151.486C146.826 151.533 146.909 151.573 147 151.605C147.091 151.638 147.183 151.665 147.276 151.687L147.699 151.793C147.869 151.832 148.033 151.886 148.19 151.954C148.349 152.021 148.49 152.107 148.615 152.21C148.742 152.313 148.841 152.437 148.915 152.582C148.988 152.728 149.025 152.899 149.025 153.094C149.025 153.359 148.957 153.592 148.822 153.794C148.687 153.994 148.492 154.15 148.236 154.264C147.982 154.375 147.674 154.431 147.313 154.431C146.962 154.431 146.657 154.377 146.399 154.268C146.142 154.159 145.94 154 145.795 153.791C145.651 153.583 145.573 153.328 145.561 153.028H146.366C146.377 153.185 146.426 153.316 146.511 153.421C146.596 153.525 146.707 153.603 146.844 153.655C146.982 153.706 147.136 153.732 147.306 153.732C147.484 153.732 147.64 153.705 147.774 153.652C147.909 153.598 148.014 153.523 148.091 153.427C148.167 153.33 148.206 153.217 148.208 153.088C148.206 152.97 148.172 152.873 148.104 152.796C148.036 152.719 147.942 152.654 147.82 152.602C147.699 152.549 147.558 152.502 147.397 152.461L146.883 152.329C146.512 152.233 146.218 152.088 146.002 151.894C145.788 151.699 145.68 151.439 145.68 151.115C145.68 150.849 145.752 150.616 145.896 150.416C146.042 150.216 146.239 150.061 146.489 149.951C146.739 149.839 147.021 149.783 147.337 149.783C147.658 149.783 147.938 149.839 148.179 149.951C148.421 150.061 148.612 150.215 148.75 150.412C148.888 150.607 148.959 150.832 148.963 151.087H148.177Z" fill="black"/>
<path d="M150.509 149.845V154.363H149.692V149.845H150.509Z" fill="black"/>
<path d="M155.364 152.104C155.364 152.591 155.273 153.008 155.091 153.355C154.911 153.7 154.664 153.965 154.351 154.149C154.04 154.333 153.686 154.425 153.291 154.425C152.896 154.425 152.542 154.333 152.229 154.149C151.918 153.964 151.671 153.698 151.489 153.352C151.308 153.005 151.218 152.589 151.218 152.104C151.218 151.617 151.308 151.201 151.489 150.855C151.671 150.508 151.918 150.243 152.229 150.059C152.542 149.875 152.896 149.783 153.291 149.783C153.686 149.783 154.04 149.875 154.351 150.059C154.664 150.243 154.911 150.508 155.091 150.855C155.273 151.201 155.364 151.617 155.364 152.104ZM154.543 152.104C154.543 151.761 154.489 151.472 154.382 151.237C154.276 151 154.129 150.821 153.941 150.701C153.753 150.579 153.536 150.518 153.291 150.518C153.046 150.518 152.829 150.579 152.641 150.701C152.453 150.821 152.305 151 152.198 151.237C152.092 151.472 152.04 151.761 152.04 152.104C152.04 152.446 152.092 152.736 152.198 152.973C152.305 153.208 152.453 153.387 152.641 153.509C152.829 153.63 153.046 153.69 153.291 153.69C153.536 153.69 153.753 153.63 153.941 153.509C154.129 153.387 154.276 153.208 154.382 152.973C154.489 152.736 154.543 152.446 154.543 152.104Z" fill="black"/>
<path d="M159.783 149.845V154.363H159.056L156.93 151.285H156.893V154.363H156.075V149.845H156.807L158.931 152.924H158.97V149.845H159.783Z" fill="black"/>
<path d="M162.089 149.845H163.089L164.429 153.119H164.482L165.822 149.845H166.822V154.363H166.037V151.259H165.996L164.749 154.35H164.162L162.915 151.252H162.873V154.363H162.089V149.845Z" fill="black"/>
<path d="M168.229 154.363H167.357L168.946 149.845H169.955L171.545 154.363H170.673L169.468 150.771H169.432L168.229 154.363ZM168.258 152.591H170.638V153.249H168.258V152.591Z" fill="black"/>
<path d="M175.786 149.845V154.363H175.059L172.933 151.285H172.895V154.363H172.078V149.845H172.809L174.933 152.924H174.973V149.845H175.786Z" fill="black"/>
<path d="M179.459 149.845H180.277V152.796C180.277 153.12 180.2 153.405 180.047 153.65C179.896 153.896 179.683 154.088 179.409 154.226C179.134 154.363 178.813 154.431 178.446 154.431C178.077 154.431 177.755 154.363 177.481 154.226C177.206 154.088 176.993 153.896 176.842 153.65C176.69 153.405 176.615 153.12 176.615 152.796V149.845H177.432V152.728C177.432 152.916 177.473 153.084 177.555 153.231C177.639 153.378 177.757 153.494 177.908 153.577C178.059 153.66 178.239 153.701 178.446 153.701C178.653 153.701 178.832 153.66 178.983 153.577C179.136 153.494 179.254 153.378 179.336 153.231C179.418 153.084 179.459 152.916 179.459 152.728V149.845Z" fill="black"/>
<path d="M181.103 154.363V149.845H183.994V150.531H181.921V151.757H183.796V152.444H181.921V154.363H181.103Z" fill="black"/>
<path d="M184.693 154.363H183.82L185.409 149.845H186.418L188.009 154.363H187.136L185.931 150.771H185.896L184.693 154.363ZM184.721 152.591H187.101V153.249H184.721V152.591Z" fill="black"/>
<path d="M192.191 151.369H191.367C191.344 151.234 191.3 151.114 191.237 151.01C191.174 150.904 191.095 150.814 191.001 150.74C190.907 150.667 190.8 150.612 190.68 150.575C190.561 150.537 190.432 150.518 190.294 150.518C190.049 150.518 189.831 150.579 189.642 150.703C189.452 150.825 189.304 151.004 189.197 151.241C189.09 151.477 189.036 151.764 189.036 152.104C189.036 152.449 189.09 152.741 189.197 152.977C189.306 153.213 189.454 153.391 189.642 153.511C189.831 153.63 190.048 153.69 190.292 153.69C190.427 153.69 190.553 153.672 190.671 153.637C190.79 153.6 190.896 153.547 190.99 153.476C191.086 153.405 191.166 153.319 191.231 153.216C191.297 153.113 191.342 152.995 191.367 152.863L192.191 152.867C192.16 153.082 192.094 153.283 191.991 153.472C191.889 153.66 191.756 153.826 191.592 153.97C191.427 154.113 191.235 154.225 191.015 154.305C190.794 154.385 190.55 154.425 190.281 154.425C189.884 154.425 189.53 154.333 189.219 154.149C188.908 153.965 188.662 153.7 188.483 153.352C188.304 153.005 188.214 152.589 188.214 152.104C188.214 151.617 188.305 151.201 188.485 150.855C188.666 150.508 188.912 150.243 189.223 150.059C189.535 149.875 189.887 149.783 190.281 149.783C190.532 149.783 190.766 149.818 190.982 149.889C191.198 149.959 191.39 150.063 191.559 150.2C191.728 150.335 191.867 150.501 191.975 150.698C192.085 150.894 192.157 151.118 192.191 151.369Z" fill="black"/>
<path d="M192.679 150.531V149.845H196.28V150.531H194.885V154.363H194.074V150.531H192.679Z" fill="black"/>
<path d="M199.756 149.845H200.574V152.796C200.574 153.12 200.497 153.405 200.345 153.65C200.193 153.896 199.98 154.088 199.706 154.226C199.431 154.363 199.11 154.431 198.743 154.431C198.374 154.431 198.052 154.363 197.778 154.226C197.503 154.088 197.29 153.896 197.139 153.65C196.987 153.405 196.912 153.12 196.912 152.796V149.845H197.729V152.728C197.729 152.916 197.77 153.084 197.853 153.231C197.936 153.378 198.054 153.494 198.205 153.577C198.356 153.66 198.536 153.701 198.743 153.701C198.95 153.701 199.129 153.66 199.28 153.577C199.433 153.494 199.551 153.378 199.633 153.231C199.715 153.084 199.756 152.916 199.756 152.728V149.845Z" fill="black"/>
<path d="M201.4 154.363V149.845H203.092C203.439 149.845 203.73 149.905 203.965 150.026C204.201 150.146 204.38 150.315 204.5 150.533C204.622 150.749 204.683 151.001 204.683 151.29C204.683 151.579 204.621 151.831 204.498 152.044C204.376 152.256 204.196 152.42 203.958 152.536C203.72 152.651 203.428 152.708 203.081 152.708H201.876V152.029H202.971C203.174 152.029 203.34 152.001 203.469 151.945C203.598 151.888 203.694 151.804 203.756 151.696C203.819 151.585 203.85 151.45 203.85 151.29C203.85 151.129 203.819 150.993 203.756 150.879C203.692 150.765 203.596 150.678 203.467 150.619C203.338 150.559 203.171 150.529 202.967 150.529H202.218V154.363H201.4ZM203.731 152.316L204.848 154.363H203.936L202.839 152.316H203.731Z" fill="black"/>
<path d="M205.374 154.363V149.845H208.308V150.531H206.191V151.757H208.156V152.444H206.191V153.677H208.326V154.363H205.374Z" fill="black"/>
<path d="M209.08 154.363V149.845H210.772C211.119 149.845 211.41 149.905 211.645 150.026C211.881 150.146 212.06 150.315 212.18 150.533C212.302 150.749 212.363 151.001 212.363 151.29C212.363 151.579 212.302 151.831 212.178 152.044C212.056 152.256 211.876 152.42 211.638 152.536C211.4 152.651 211.108 152.708 210.761 152.708H209.556V152.029H210.651C210.854 152.029 211.02 152.001 211.149 151.945C211.278 151.888 211.374 151.804 211.436 151.696C211.499 151.585 211.53 151.45 211.53 151.29C211.53 151.129 211.499 150.993 211.436 150.879C211.372 150.765 211.276 150.678 211.147 150.619C211.018 150.559 210.851 150.529 210.647 150.529H209.898V154.363H209.08ZM211.411 152.316L212.529 154.363H211.616L210.519 152.316H211.411Z" fill="black"/>
<path d="M215.506 151.087C215.485 150.894 215.399 150.744 215.246 150.637C215.095 150.529 214.898 150.476 214.655 150.476C214.485 150.476 214.339 150.501 214.217 150.553C214.095 150.604 214.002 150.674 213.937 150.762C213.873 150.851 213.84 150.951 213.838 151.065C213.838 151.159 213.859 151.24 213.902 151.31C213.946 151.379 214.005 151.438 214.08 151.486C214.155 151.533 214.238 151.573 214.329 151.605C214.42 151.638 214.512 151.665 214.605 151.687L215.028 151.793C215.198 151.832 215.362 151.886 215.519 151.954C215.678 152.021 215.82 152.107 215.944 152.21C216.071 152.313 216.171 152.437 216.244 152.582C216.318 152.728 216.354 152.899 216.354 153.094C216.354 153.359 216.287 153.592 216.152 153.794C216.016 153.994 215.821 154.15 215.565 154.264C215.311 154.375 215.004 154.431 214.642 154.431C214.291 154.431 213.986 154.377 213.728 154.268C213.471 154.159 213.27 154 213.124 153.791C212.98 153.583 212.902 153.328 212.891 153.028H213.695C213.707 153.185 213.755 153.316 213.84 153.421C213.925 153.525 214.036 153.603 214.173 153.655C214.311 153.706 214.465 153.732 214.636 153.732C214.813 153.732 214.969 153.705 215.103 153.652C215.238 153.598 215.344 153.523 215.42 153.427C215.496 153.33 215.535 153.217 215.537 153.088C215.535 152.97 215.501 152.873 215.433 152.796C215.366 152.719 215.271 152.654 215.149 152.602C215.029 152.549 214.888 152.502 214.726 152.461L214.213 152.329C213.841 152.233 213.547 152.088 213.331 151.894C213.117 151.699 213.01 151.439 213.01 151.115C213.01 150.849 213.082 150.616 213.226 150.416C213.371 150.216 213.568 150.061 213.818 149.951C214.068 149.839 214.351 149.783 214.666 149.783C214.987 149.783 215.267 149.839 215.508 149.951C215.751 150.061 215.941 150.215 216.079 150.412C216.217 150.607 216.288 150.832 216.293 151.087H215.506Z" fill="black"/>
<path d="M118.572 164.125H117.7L119.289 159.607H120.298L121.889 164.125H121.016L119.811 160.534H119.776L118.572 164.125ZM118.601 162.354H120.981V163.011H118.601V162.354Z" fill="black"/>
<path d="M124.862 160.849C124.842 160.656 124.755 160.506 124.602 160.399C124.451 160.292 124.254 160.238 124.012 160.238C123.842 160.238 123.695 160.264 123.574 160.315C123.452 160.367 123.358 160.437 123.294 160.525C123.229 160.613 123.196 160.714 123.195 160.827C123.195 160.921 123.216 161.003 123.258 161.072C123.303 161.141 123.362 161.2 123.437 161.248C123.512 161.295 123.595 161.335 123.686 161.367C123.777 161.4 123.869 161.427 123.961 161.449L124.384 161.555C124.555 161.595 124.719 161.648 124.876 161.716C125.034 161.784 125.176 161.869 125.301 161.972C125.427 162.075 125.527 162.199 125.601 162.345C125.674 162.49 125.711 162.661 125.711 162.857C125.711 163.121 125.643 163.354 125.508 163.556C125.373 163.756 125.178 163.913 124.922 164.026C124.668 164.138 124.36 164.193 123.999 164.193C123.648 164.193 123.343 164.139 123.084 164.03C122.827 163.921 122.626 163.763 122.481 163.554C122.337 163.345 122.259 163.09 122.247 162.79H123.051C123.063 162.948 123.112 163.079 123.197 163.183C123.282 163.288 123.393 163.365 123.529 163.417C123.668 163.468 123.822 163.494 123.992 163.494C124.17 163.494 124.326 163.468 124.459 163.415C124.594 163.36 124.7 163.285 124.777 163.19C124.853 163.093 124.892 162.979 124.893 162.85C124.892 162.732 124.857 162.635 124.79 162.559C124.722 162.481 124.627 162.416 124.506 162.365C124.385 162.312 124.244 162.265 124.083 162.223L123.569 162.091C123.197 161.995 122.904 161.851 122.688 161.656C122.473 161.461 122.366 161.201 122.366 160.878C122.366 160.612 122.438 160.378 122.582 160.178C122.727 159.978 122.925 159.823 123.175 159.713C123.424 159.601 123.707 159.545 124.023 159.545C124.343 159.545 124.624 159.601 124.865 159.713C125.107 159.823 125.297 159.977 125.435 160.174C125.573 160.37 125.645 160.595 125.649 160.849H124.862Z" fill="black"/>
<path d="M128.892 160.849C128.871 160.656 128.785 160.506 128.632 160.399C128.481 160.292 128.284 160.238 128.041 160.238C127.871 160.238 127.725 160.264 127.603 160.315C127.481 160.367 127.388 160.437 127.323 160.525C127.258 160.613 127.225 160.714 127.224 160.827C127.224 160.921 127.245 161.003 127.288 161.072C127.332 161.141 127.391 161.2 127.466 161.248C127.541 161.295 127.624 161.335 127.715 161.367C127.806 161.4 127.898 161.427 127.991 161.449L128.414 161.555C128.584 161.595 128.748 161.648 128.905 161.716C129.064 161.784 129.205 161.869 129.33 161.972C129.457 162.075 129.557 162.199 129.63 162.345C129.703 162.49 129.74 162.661 129.74 162.857C129.74 163.121 129.673 163.354 129.537 163.556C129.402 163.756 129.207 163.913 128.951 164.026C128.697 164.138 128.389 164.193 128.028 164.193C127.677 164.193 127.372 164.139 127.114 164.03C126.857 163.921 126.655 163.763 126.51 163.554C126.366 163.345 126.288 163.09 126.276 162.79H127.081C127.092 162.948 127.141 163.079 127.226 163.183C127.311 163.288 127.422 163.365 127.559 163.417C127.697 163.468 127.851 163.494 128.022 163.494C128.199 163.494 128.355 163.468 128.489 163.415C128.624 163.36 128.73 163.285 128.806 163.19C128.882 163.093 128.921 162.979 128.923 162.85C128.921 162.732 128.887 162.635 128.819 162.559C128.752 162.481 128.657 162.416 128.535 162.365C128.414 162.312 128.273 162.265 128.112 162.223L127.598 162.091C127.227 161.995 126.933 161.851 126.717 161.656C126.503 161.461 126.395 161.201 126.395 160.878C126.395 160.612 126.467 160.378 126.611 160.178C126.757 159.978 126.954 159.823 127.204 159.713C127.454 159.601 127.737 159.545 128.052 159.545C128.373 159.545 128.653 159.601 128.894 159.713C129.136 159.823 129.327 159.977 129.465 160.174C129.603 160.37 129.674 160.595 129.678 160.849H128.892Z" fill="black"/>
<path d="M134.501 161.866C134.501 162.353 134.41 162.77 134.228 163.117C134.047 163.463 133.8 163.727 133.487 163.911C133.176 164.095 132.823 164.187 132.428 164.187C132.033 164.187 131.679 164.095 131.366 163.911C131.054 163.726 130.807 163.46 130.625 163.115C130.445 162.768 130.354 162.351 130.354 161.866C130.354 161.379 130.445 160.963 130.625 160.617C130.807 160.27 131.054 160.005 131.366 159.821C131.679 159.637 132.033 159.545 132.428 159.545C132.823 159.545 133.176 159.637 133.487 159.821C133.8 160.005 134.047 160.27 134.228 160.617C134.41 160.963 134.501 161.379 134.501 161.866ZM133.679 161.866C133.679 161.523 133.626 161.234 133.518 160.999C133.413 160.762 133.266 160.584 133.078 160.463C132.89 160.341 132.673 160.28 132.428 160.28C132.182 160.28 131.966 160.341 131.778 160.463C131.59 160.584 131.442 160.762 131.335 160.999C131.229 161.234 131.176 161.523 131.176 161.866C131.176 162.209 131.229 162.498 131.335 162.735C131.442 162.971 131.59 163.149 131.778 163.271C131.966 163.392 132.182 163.452 132.428 163.452C132.673 163.452 132.89 163.392 133.078 163.271C133.266 163.149 133.413 162.971 133.518 162.735C133.626 162.498 133.679 162.209 133.679 161.866Z" fill="black"/>
<path d="M139.136 161.131H138.312C138.289 160.996 138.245 160.876 138.182 160.772C138.119 160.666 138.04 160.576 137.946 160.503C137.852 160.429 137.745 160.374 137.625 160.337C137.506 160.299 137.377 160.28 137.239 160.28C136.994 160.28 136.776 160.342 136.587 160.465C136.398 160.587 136.249 160.767 136.142 161.003C136.035 161.239 135.981 161.526 135.981 161.866C135.981 162.212 136.035 162.503 136.142 162.74C136.251 162.975 136.399 163.153 136.587 163.274C136.776 163.393 136.993 163.452 137.237 163.452C137.372 163.452 137.498 163.435 137.616 163.399C137.735 163.363 137.841 163.309 137.935 163.238C138.031 163.168 138.111 163.081 138.176 162.978C138.242 162.875 138.287 162.757 138.312 162.625L139.136 162.629C139.105 162.844 139.039 163.046 138.936 163.234C138.834 163.422 138.701 163.588 138.537 163.732C138.372 163.875 138.18 163.987 137.96 164.068C137.739 164.147 137.495 164.187 137.226 164.187C136.829 164.187 136.475 164.095 136.164 163.911C135.853 163.727 135.607 163.462 135.428 163.115C135.249 162.768 135.159 162.351 135.159 161.866C135.159 161.379 135.25 160.963 135.43 160.617C135.611 160.27 135.857 160.005 136.168 159.821C136.48 159.637 136.832 159.545 137.226 159.545C137.477 159.545 137.711 159.581 137.927 159.651C138.143 159.722 138.335 159.825 138.504 159.962C138.673 160.098 138.812 160.264 138.92 160.461C139.031 160.656 139.102 160.88 139.136 161.131Z" fill="black"/>
<path d="M140.702 159.607V164.125H139.885V159.607H140.702Z" fill="black"/>
<path d="M142.167 164.125H141.294L142.883 159.607H143.892L145.483 164.125H144.61L143.405 160.534H143.37L142.167 164.125ZM142.196 162.354H144.575V163.011H142.196V162.354Z" fill="black"/>
<path d="M145.334 160.293V159.607H148.934V160.293H147.539V164.125H146.728V160.293H145.334Z" fill="black"/>
<path d="M150.445 159.607V164.125H149.628V159.607H150.445Z" fill="black"/>
<path d="M155.363 161.866C155.363 162.353 155.272 162.77 155.09 163.117C154.909 163.463 154.662 163.727 154.349 163.911C154.038 164.095 153.685 164.187 153.289 164.187C152.894 164.187 152.54 164.095 152.227 163.911C151.916 163.726 151.669 163.46 151.487 163.115C151.306 162.768 151.216 162.351 151.216 161.866C151.216 161.379 151.306 160.963 151.487 160.617C151.669 160.27 151.916 160.005 152.227 159.821C152.54 159.637 152.894 159.545 153.289 159.545C153.685 159.545 154.038 159.637 154.349 159.821C154.662 160.005 154.909 160.27 155.09 160.617C155.272 160.963 155.363 161.379 155.363 161.866ZM154.541 161.866C154.541 161.523 154.487 161.234 154.38 160.999C154.274 160.762 154.127 160.584 153.939 160.463C153.751 160.341 153.535 160.28 153.289 160.28C153.044 160.28 152.827 160.341 152.639 160.463C152.451 160.584 152.304 160.762 152.197 160.999C152.091 161.234 152.038 161.523 152.038 161.866C152.038 162.209 152.091 162.498 152.197 162.735C152.304 162.971 152.451 163.149 152.639 163.271C152.827 163.392 153.044 163.452 153.289 163.452C153.535 163.452 153.751 163.392 153.939 163.271C154.127 163.149 154.274 162.971 154.38 162.735C154.487 162.498 154.541 162.209 154.541 161.866Z" fill="black"/>
<path d="M159.844 159.607V164.125H159.117L156.99 161.048H156.953V164.125H156.136V159.607H156.867L158.991 162.687H159.031V159.607H159.844Z" fill="black"/>
<path d="M166.306 161.866C166.306 162.353 166.215 162.77 166.032 163.117C165.852 163.463 165.605 163.727 165.292 163.911C164.981 164.095 164.627 164.187 164.232 164.187C163.837 164.187 163.483 164.095 163.17 163.911C162.859 163.726 162.612 163.46 162.43 163.115C162.249 162.768 162.159 162.351 162.159 161.866C162.159 161.379 162.249 160.963 162.43 160.617C162.612 160.27 162.859 160.005 163.17 159.821C163.483 159.637 163.837 159.545 164.232 159.545C164.627 159.545 164.981 159.637 165.292 159.821C165.605 160.005 165.852 160.27 166.032 160.617C166.215 160.963 166.306 161.379 166.306 161.866ZM165.484 161.866C165.484 161.523 165.43 161.234 165.323 160.999C165.217 160.762 165.07 160.584 164.882 160.463C164.694 160.341 164.478 160.28 164.232 160.28C163.987 160.28 163.77 160.341 163.582 160.463C163.394 160.584 163.247 160.762 163.139 160.999C163.034 161.234 162.981 161.523 162.981 161.866C162.981 162.209 163.034 162.498 163.139 162.735C163.247 162.971 163.394 163.149 163.582 163.271C163.77 163.392 163.987 163.452 164.232 163.452C164.478 163.452 164.694 163.392 164.882 163.271C165.07 163.149 165.217 162.971 165.323 162.735C165.43 162.498 165.484 162.209 165.484 161.866Z" fill="black"/>
<path d="M167.078 164.125V159.607H169.969V160.293H167.896V161.52H169.771V162.206H167.896V164.125H167.078Z" fill="black"/>
<path d="M173.07 159.607V164.125H172.253V159.607H173.07Z" fill="black"/>
<path d="M177.664 159.607V164.125H176.937L174.811 161.048H174.773V164.125H173.956V159.607H174.687L176.811 162.687H176.851V159.607H177.664Z" fill="black"/>
<path d="M180.084 164.125H178.555V159.607H180.115C180.563 159.607 180.947 159.697 181.269 159.878C181.592 160.058 181.841 160.316 182.014 160.653C182.187 160.99 182.274 161.392 182.274 161.862C182.274 162.332 182.186 162.737 182.012 163.075C181.838 163.413 181.588 163.673 181.26 163.854C180.934 164.035 180.542 164.125 180.084 164.125ZM179.372 163.417H180.044C180.358 163.417 180.621 163.36 180.831 163.245C181.041 163.129 181.199 162.956 181.304 162.726C181.41 162.496 181.463 162.207 181.463 161.862C181.463 161.516 181.41 161.229 181.304 161.001C181.199 160.772 181.042 160.6 180.835 160.487C180.629 160.373 180.374 160.315 180.068 160.315H179.372V163.417Z" fill="black"/>
<path d="M183.868 159.607V164.125H183.051V159.607H183.868Z" fill="black"/>
<path d="M185.333 164.125H184.46L186.049 159.607H187.058L188.649 164.125H187.776L186.571 160.534H186.536L185.333 164.125ZM185.361 162.354H187.741V163.011H185.361V162.354Z" fill="black"/>
<path d="M213.686 117.996L210.372 117.996L210.372 131.315L210.372 144.635L213.686 144.635L217 144.635L217 131.315L217 117.996L213.686 117.996Z" fill="#E7490E"/>
<path d="M205.942 139.17C204.068 134.389 201.645 128.196 198.697 120.546L197.714 117.996L193.828 118.041L189.92 118.11L188.937 120.386C187.109 124.599 180.138 140.627 179.269 142.654L178.423 144.635L181.92 144.635L185.417 144.635L186.446 142.085L187.452 139.512L193.371 139.512L199.291 139.512L200.183 142.085L201.097 144.635L204.594 144.635C206.514 144.635 208.091 144.612 208.068 144.589C208.068 144.544 207.108 142.107 205.942 139.17ZM193.463 135.072C190.354 135.072 189.577 135.004 189.577 134.753C189.577 134.594 190.4 132.408 191.429 129.926C192.457 127.445 193.326 125.259 193.394 125.122C193.691 124.348 193.851 124.667 196.526 132.112C196.96 133.296 197.326 134.457 197.326 134.685C197.348 135.049 197.028 135.072 193.463 135.072Z" fill="#E7490E"/>
<path d="M173.333 117.996L170.385 117.996L168.167 120.796C162.728 127.604 161.836 128.697 161.699 128.697C161.631 128.674 159.665 126.283 157.356 123.346L153.174 117.996L150.225 117.996L147.277 117.996L147.277 131.315L147.277 144.635L150.477 144.635L153.677 144.635L153.677 136.575C153.677 131.93 153.768 128.446 153.882 128.378C153.997 128.287 155.757 130.336 157.814 132.909C159.848 135.482 161.631 137.554 161.768 137.508C161.905 137.463 163.665 135.391 165.676 132.909C167.71 130.427 169.47 128.355 169.63 128.287C169.836 128.219 169.905 130.063 169.905 136.415L169.905 144.635L173.104 144.635L176.304 144.635L176.304 131.315L176.304 117.996L173.333 117.996Z" fill="#E7490E"/>
<path d="M136.992 139.853L131.278 139.853L131.278 136.552L131.278 133.251L136.603 133.205L141.906 133.137L141.974 130.814L142.043 128.469L136.672 128.469C133.381 128.469 131.278 128.378 131.232 128.241C131.209 128.128 131.186 126.853 131.232 125.395L131.301 122.777L136.832 122.732L142.363 122.663L142.432 120.341L142.5 117.996L133.563 117.996L124.649 117.996L124.649 131.315L124.649 144.635L133.678 144.635L142.706 144.635L142.706 142.244L142.706 139.853L136.992 139.853Z" fill="#E7490E"/>
<path d="M121.29 139.789C121.221 139.698 118.593 139.63 115.461 139.63L109.793 139.63L109.793 128.815L109.793 117.977L106.57 118.046L103.348 118.114L103.371 130.75C103.371 137.695 103.393 143.66 103.393 144.024L103.393 144.639L112.422 144.639L121.45 144.639L121.45 142.294C121.45 140.996 121.381 139.858 121.29 139.789Z" fill="#E7490E"/>
<path d="M100.291 142.351C99.8569 141.281 98.737 138.412 97.7999 135.976C96.8628 133.539 94.9428 128.508 93.5029 124.819L90.8973 118.102L87.0117 118.034C84.0175 117.989 83.0804 118.057 82.989 118.262C82.7604 118.808 79.9262 125.343 77.572 130.739C73.0465 141.121 71.6294 144.4 71.6294 144.514C71.6294 144.582 73.1836 144.605 75.0807 144.582L78.532 144.514L79.492 142.237C79.9948 140.985 80.5205 139.823 80.6119 139.687C80.7491 139.459 82.189 139.391 86.486 139.391C90.783 139.391 92.2229 139.459 92.3601 139.687C92.4515 139.823 92.9086 140.985 93.3657 142.237L94.1886 144.514L97.6399 144.582C99.5598 144.605 101.114 144.559 101.091 144.468C101.068 144.354 100.725 143.421 100.291 142.351ZM86.7146 135.019C84.6575 135.042 82.8976 134.997 82.7833 134.883C82.669 134.769 83.2633 133.016 84.1547 130.83C85.0232 128.712 85.9146 126.481 86.1431 125.889C86.3717 125.297 86.6688 124.842 86.7831 124.887C87.0574 124.978 90.6001 134.359 90.5087 134.723C90.463 134.86 88.9545 134.974 86.7146 135.019Z" fill="#E7490E"/>
<path d="M50.2533 102.002L54.6966 106.423L63.6596 115.312L61.8873 117.116L50.2517 105.725L38.0574 118.062C31.3552 124.859 25.8631 130.446 25.8631 130.516C25.8631 130.586 31.3552 136.196 38.0574 142.969L50.275 155.307L54.6966 150.884L60.9781 144.599L62.7732 146.34L50.275 158.826L22 130.516L50.2533 102.002Z" fill="#E7490E"/>
<path d="M73.6458 102.002L78.0891 106.423L82.5106 110.846L82.5111 114.425L73.6442 105.725L61.4499 118.062C54.7477 124.859 49.2556 130.446 49.2556 130.516C49.2556 130.586 54.7477 136.196 61.4499 142.969L73.6675 155.307L78.0891 150.884L82.5106 146.461L82.5106 149.999L73.6675 158.826L45.3926 130.516L73.6458 102.002Z" fill="#151616"/>
</svg>
