<svg width="83" height="80" viewBox="0 0 83 80" fill="none" xmlns="http://www.w3.org/2000/svg">
<path d="M31.1992 79.8518V70.0515H34.9462C35.6536 70.0515 36.2414 70.1631 36.7098 70.3864C37.1814 70.6066 37.5334 70.908 37.766 71.2909C38.0018 71.6737 38.1197 72.1076 38.1197 72.5925C38.1197 72.9912 38.0432 73.3326 37.8903 73.6165C37.7374 73.8973 37.5318 74.1254 37.2738 74.3008C37.0157 74.4763 36.7273 74.6023 36.4087 74.6789V74.7746C36.756 74.7937 37.089 74.9006 37.4076 75.0952C37.7294 75.2866 37.9923 75.5578 38.1962 75.9087C38.4001 76.2596 38.5021 76.6839 38.5021 77.1816C38.5021 77.6888 38.3794 78.145 38.134 78.5502C37.8887 78.9521 37.5191 79.2696 37.0252 79.5024C36.5314 79.7353 35.9101 79.8518 35.1613 79.8518H31.1992ZM32.9724 78.3683H34.8793C35.5229 78.3683 35.9865 78.2455 36.2701 77.9999C36.5569 77.751 36.7002 77.432 36.7002 77.0428C36.7002 76.7525 36.6286 76.4909 36.4852 76.258C36.3418 76.0219 36.1379 75.8369 35.8734 75.7029C35.609 75.5657 35.2935 75.4971 34.9271 75.4971H32.9724V78.3683ZM32.9724 74.2195H34.7264C35.0323 74.2195 35.3079 74.1636 35.5532 74.052C35.7985 73.9371 35.9913 73.776 36.1315 73.5687C36.2749 73.3581 36.3466 73.1093 36.3466 72.8222C36.3466 72.4425 36.2127 72.1299 35.9451 71.8842C35.6806 71.6386 35.2871 71.5158 34.7646 71.5158H32.9724V74.2195Z" fill="black"/>
<path d="M42.3561 70.0515V79.8518H40.5829V70.0515H42.3561Z" fill="black"/>
<path d="M50.1339 72.7456C50.0893 72.3277 49.9013 72.0023 49.57 71.7694C49.2418 71.5365 48.8148 71.4201 48.2891 71.4201C47.9195 71.4201 47.6025 71.4759 47.338 71.5876C47.0735 71.6992 46.8712 71.8507 46.731 72.0422C46.5908 72.2336 46.5191 72.4521 46.516 72.6977C46.516 72.9019 46.5622 73.079 46.6546 73.2289C46.7501 73.3788 46.8792 73.5065 47.0417 73.6117C47.2042 73.7138 47.3842 73.8 47.5817 73.8701C47.7793 73.9403 47.9784 73.9993 48.1792 74.0472L49.0968 74.2769C49.4664 74.363 49.8217 74.4795 50.1626 74.6262C50.5067 74.773 50.8142 74.958 51.085 75.1813C51.359 75.4046 51.5757 75.6742 51.735 75.99C51.8943 76.3059 51.974 76.6759 51.974 77.1002C51.974 77.6745 51.8274 78.1801 51.5343 78.6172C51.2411 79.051 50.8174 79.3908 50.263 79.6364C49.7117 79.8789 49.0442 80.0001 48.2604 80.0001C47.4989 80.0001 46.8378 79.8821 46.277 79.646C45.7194 79.4099 45.2829 79.0654 44.9674 78.6124C44.6552 78.1594 44.4863 77.6075 44.4608 76.9567H46.2053C46.2308 77.298 46.3359 77.5819 46.5207 77.8084C46.7055 78.035 46.9461 78.204 47.2424 78.3157C47.5419 78.4273 47.8765 78.4832 48.2461 78.4832C48.6316 78.4832 48.9694 78.4257 49.2593 78.3109C49.5524 78.1929 49.7818 78.0302 49.9475 77.8228C50.1132 77.6122 50.1976 77.3666 50.2008 77.0859C50.1976 76.8306 50.1228 76.6201 49.9762 76.4542C49.8296 76.2851 49.6241 76.1448 49.3597 76.0331C49.0984 75.9183 48.7925 75.8162 48.442 75.7268L47.3284 75.4397C46.5223 75.2324 45.8851 74.9181 45.4167 74.497C44.9515 74.0727 44.7189 73.5096 44.7189 72.8078C44.7189 72.2304 44.875 71.7247 45.1873 71.2909C45.5027 70.857 45.9313 70.5204 46.4729 70.2812C47.0146 70.0387 47.6279 69.9175 48.313 69.9175C49.0076 69.9175 49.6162 70.0387 50.1387 70.2812C50.6644 70.5204 51.077 70.8538 51.3765 71.2813C51.6761 71.7056 51.8306 72.1937 51.8401 72.7456H50.1339Z" fill="black"/>
<path d="M31.2656 51.8632L39.5478 37.3511H24.0187L40.5831 17.6563L58.1828 37.3511H41.6184L50.9359 51.8632H71.0921C78.3528 51.8632 82.0992 43.1744 77.1198 37.8835L42.6925 1.30277C41.01 -0.485011 38.1527 -0.424434 36.5473 1.43306L4.81774 38.1441C0.175342 43.5154 3.98612 51.8632 11.0805 51.8632H31.2656Z" fill="#2F3192"/>
<path d="M9.52416 58.7045L0 50.8266L8.10408 65.3386H75.1614L82.6154 50.8266L74.7467 58.7045H9.52416Z" fill="#2F3192"/>
<ellipse cx="40.3775" cy="30.9255" rx="4.96934" ry="4.97554" fill="#E11B22"/>
</svg>
