<svg width="20" height="20" viewBox="0 0 20 20" fill="none" xmlns="http://www.w3.org/2000/svg">
<g clip-path="url(#clip0_3084_708)">
<path d="M16.6667 7.5H9.16667C8.24619 7.5 7.5 8.24619 7.5 9.16667V16.6667C7.5 17.5871 8.24619 18.3333 9.16667 18.3333H16.6667C17.5871 18.3333 18.3333 17.5871 18.3333 16.6667V9.16667C18.3333 8.24619 17.5871 7.5 16.6667 7.5Z" stroke="#002A73" stroke-width="2" stroke-linecap="round" stroke-linejoin="round"/>
<path d="M4.16406 12.5001H3.33073C2.8887 12.5001 2.46478 12.3245 2.15222 12.0119C1.83966 11.6994 1.66406 11.2754 1.66406 10.8334V3.33341C1.66406 2.89139 1.83966 2.46746 2.15222 2.1549C2.46478 1.84234 2.8887 1.66675 3.33073 1.66675H10.8307C11.2728 1.66675 11.6967 1.84234 12.0092 2.1549C12.3218 2.46746 12.4974 2.89139 12.4974 3.33341V4.16675" stroke="#002A73" stroke-width="2" stroke-linecap="round" stroke-linejoin="round"/>
</g>
<defs>
<clipPath id="clip0_3084_708">
<rect width="20" height="20" fill="white"/>
</clipPath>
</defs>
</svg>
