<svg width="492" height="470" viewBox="0 0 492 470" fill="none" xmlns="http://www.w3.org/2000/svg">
<g clip-path="url(#clip0_2650_428)">
<g opacity="0.5" filter="url(#filter0_f_2650_428)">
<circle cx="352.021" cy="227.378" r="122.138" fill="#E21B1A"/>
</g>
<g opacity="0.5" filter="url(#filter1_f_2650_428)">
<circle cx="151.662" cy="70.2448" r="122.138" fill="#0E48AB"/>
</g>
<circle opacity="0.7" cx="234.003" cy="132" r="95.1117" stroke="white" stroke-width="0.531915" stroke-dasharray="5.32 5.32"/>
<circle opacity="0.5" cx="233.997" cy="132" r="182.941" stroke="white" stroke-width="0.531915" stroke-dasharray="5.32 5.32"/>
<circle opacity="0.4" cx="234" cy="132" r="257.734" stroke="white" stroke-width="0.531915" stroke-dasharray="5.32 5.32"/>
<circle cx="169.847" cy="128.226" r="6.51862" fill="#0E48AB"/>
<circle cx="169.847" cy="104.21" r="6.51862" fill="#0E48AB"/>
<circle cx="280.323" cy="12.9498" r="6.51862" fill="#0E48AB"/>
<circle cx="280.323" cy="47.2579" r="6.51862" fill="#0E48AB"/>
<circle cx="193.175" cy="87.7422" r="6.51862" fill="#0E48AB"/>
<circle cx="215.475" cy="45.5428" r="8.92021" fill="#0E48AB"/>
<circle cx="208.616" cy="123.766" r="8.92021" fill="#0E48AB"/>
<circle cx="223.37" cy="81.5665" r="6.51862" fill="#0E48AB"/>
<circle cx="108.089" cy="34.2208" r="6.51862" fill="#0E48AB"/>
<circle cx="187.003" cy="52.7476" r="6.51862" fill="#0E48AB"/>
<circle cx="206.214" cy="8.83258" r="6.51862" fill="#0E48AB"/>
<circle cx="148.579" cy="81.5664" r="3.77394" fill="#0E48AB"/>
<circle cx="162.985" cy="18.439" r="3.77394" fill="#0E48AB"/>
<circle cx="95.0552" cy="101.465" r="3.77394" fill="#0E48AB"/>
<circle cx="132.797" cy="150.184" r="3.77394" fill="#0E48AB"/>
<circle cx="58.688" cy="154.301" r="3.77394" fill="#0E48AB"/>
<circle cx="71.7219" cy="12.9494" r="2.4016" fill="#0E48AB"/>
<circle cx="187.003" cy="91.8589" r="6.51862" fill="#0E48AB"/>
<path d="M230.329 127.197C231.895 127.197 233.147 127.607 234.084 128.426C235.035 129.246 235.511 130.403 235.511 131.896C235.511 133.272 235.057 134.348 234.15 135.123C233.257 135.885 232.071 136.273 230.592 136.287L230.483 137.934H227.189L227.079 133.85H228.397C229.524 133.85 230.38 133.711 230.966 133.433C231.566 133.155 231.866 132.65 231.866 131.918C231.866 131.405 231.727 131.003 231.449 130.71C231.171 130.417 230.783 130.271 230.285 130.271C229.758 130.271 229.348 130.425 229.055 130.732C228.763 131.025 228.616 131.427 228.616 131.94H225.081C225.052 131.047 225.235 130.242 225.63 129.524C226.04 128.807 226.64 128.243 227.431 127.834C228.236 127.409 229.202 127.197 230.329 127.197ZM228.88 143.643C228.221 143.643 227.679 143.453 227.255 143.072C226.845 142.677 226.64 142.194 226.64 141.623C226.64 141.037 226.845 140.547 227.255 140.152C227.679 139.756 228.221 139.559 228.88 139.559C229.524 139.559 230.051 139.756 230.461 140.152C230.885 140.547 231.097 141.037 231.097 141.623C231.097 142.194 230.885 142.677 230.461 143.072C230.051 143.453 229.524 143.643 228.88 143.643Z" fill="#E21B1A"/>
<path d="M244.471 119.414C246.138 118.877 247.616 118.904 248.907 119.494C250.213 120.079 251.134 121.202 251.669 122.862C252.162 124.392 252.065 125.744 251.377 126.918C250.7 128.07 249.577 128.908 248.009 129.432L248.482 131.3L244.977 132.43L243.397 127.927L244.799 127.475C245.998 127.088 246.86 126.64 247.383 126.13C247.922 125.615 248.06 124.95 247.798 124.136C247.615 123.567 247.322 123.167 246.921 122.937C246.521 122.707 246.055 122.677 245.526 122.848C244.965 123.028 244.584 123.34 244.382 123.782C244.176 124.208 244.164 124.706 244.348 125.275L240.586 126.488C240.234 125.505 240.141 124.547 240.304 123.614C240.483 122.676 240.92 121.843 241.614 121.117C242.319 120.368 243.271 119.801 244.471 119.414ZM248.822 138.198C248.121 138.424 247.476 138.398 246.888 138.12C246.31 137.822 245.919 137.355 245.715 136.72C245.505 136.069 245.547 135.453 245.842 134.873C246.152 134.288 246.657 133.883 247.358 133.657C248.044 133.436 248.676 133.475 249.253 133.774C249.847 134.068 250.248 134.54 250.458 135.191C250.663 135.826 250.61 136.436 250.3 137.021C250 137.585 249.507 137.977 248.822 138.198Z" fill="#E21B1A"/>
<path d="M279.145 115.186C280.712 115.968 281.75 117.021 282.26 118.345C282.785 119.677 282.658 121.123 281.88 122.684C281.163 124.123 280.148 125.021 278.835 125.38C277.545 125.73 276.156 125.544 274.669 124.821L273.701 126.488L270.405 124.845L272.425 120.52L273.743 121.178C274.871 121.74 275.8 122.022 276.531 122.023C277.276 122.032 277.84 121.654 278.221 120.889C278.488 120.353 278.559 119.863 278.434 119.418C278.308 118.973 277.996 118.627 277.498 118.378C276.971 118.115 276.481 118.071 276.027 118.247C275.582 118.407 275.225 118.755 274.958 119.29L271.421 117.526C271.857 116.578 272.46 115.828 273.23 115.275C274.014 114.73 274.908 114.44 275.913 114.406C276.939 114.364 278.017 114.624 279.145 115.186ZM269.121 131.657C268.462 131.328 268.019 130.859 267.793 130.249C267.588 129.632 267.635 129.024 267.933 128.427C268.238 127.815 268.699 127.405 269.315 127.196C269.946 126.995 270.591 127.058 271.25 127.387C271.894 127.709 272.319 128.178 272.523 128.796C272.741 129.421 272.698 130.039 272.393 130.652C272.095 131.248 271.631 131.647 271 131.849C270.392 132.042 269.765 131.978 269.121 131.657Z" fill="#E21B1A"/>
<path d="M307.113 149.154C308.864 149.154 310.264 149.633 311.311 150.591C312.375 151.548 312.907 152.899 312.907 154.644C312.907 156.251 312.4 157.508 311.385 158.414C310.387 159.304 309.061 159.757 307.408 159.774L307.285 161.698H303.602L303.48 156.927H304.953C306.213 156.927 307.17 156.764 307.825 156.439C308.496 156.114 308.832 155.524 308.832 154.669C308.832 154.071 308.676 153.601 308.365 153.258C308.054 152.916 307.621 152.745 307.064 152.745C306.475 152.745 306.017 152.925 305.689 153.284C305.362 153.626 305.198 154.096 305.198 154.695H301.246C301.213 153.652 301.417 152.711 301.859 151.873C302.318 151.035 302.989 150.377 303.872 149.898C304.773 149.402 305.853 149.154 307.113 149.154ZM305.493 168.367C304.756 168.367 304.151 168.145 303.676 167.7C303.218 167.238 302.989 166.674 302.989 166.007C302.989 165.323 303.218 164.75 303.676 164.289C304.151 163.827 304.756 163.596 305.493 163.596C306.213 163.596 306.802 163.827 307.26 164.289C307.735 164.75 307.972 165.323 307.972 166.007C307.972 166.674 307.735 167.238 307.26 167.7C306.802 168.145 306.213 168.367 305.493 168.367Z" fill="#E21B1A"/>
<path d="M269.804 180.5C271.468 179.953 272.947 179.971 274.241 180.554C275.551 181.132 276.478 182.249 277.022 183.906C277.524 185.433 277.434 186.786 276.753 187.964C276.083 189.12 274.965 189.965 273.399 190.497L273.883 192.363L270.385 193.513L268.779 189.018L270.178 188.558C271.375 188.165 272.234 187.712 272.755 187.199C273.291 186.68 273.425 186.015 273.159 185.203C272.972 184.634 272.677 184.236 272.275 184.008C271.873 183.78 271.407 183.753 270.879 183.927C270.319 184.111 269.94 184.425 269.741 184.868C269.536 185.295 269.528 185.793 269.715 186.362L265.96 187.596C265.603 186.615 265.504 185.657 265.662 184.723C265.836 183.784 266.267 182.949 266.958 182.219C267.658 181.466 268.607 180.894 269.804 180.5ZM274.263 199.258C273.563 199.488 272.919 199.466 272.329 199.192C271.749 198.896 271.355 198.432 271.147 197.798C270.934 197.148 270.973 196.533 271.264 195.951C271.571 195.364 272.074 194.956 272.773 194.726C273.458 194.501 274.089 194.536 274.669 194.832C275.264 195.122 275.668 195.592 275.882 196.242C276.09 196.876 276.041 197.486 275.734 198.073C275.438 198.638 274.947 199.034 274.263 199.258Z" fill="#E21B1A"/>
<path d="M332.175 111.113C333.728 110.303 335.19 110.081 336.562 110.446C337.948 110.803 339.044 111.755 339.85 113.302C340.593 114.728 340.724 116.077 340.243 117.349C339.769 118.599 338.803 119.614 337.345 120.393L338.126 122.156L334.86 123.858L332.546 119.684L333.852 119.004C334.969 118.421 335.743 117.834 336.174 117.244C336.619 116.645 336.643 115.967 336.248 115.209C335.971 114.678 335.616 114.333 335.182 114.173C334.748 114.014 334.285 114.063 333.791 114.32C333.269 114.592 332.945 114.963 332.821 115.433C332.689 115.888 332.761 116.38 333.038 116.911L329.533 118.738C329.022 117.828 328.768 116.9 328.773 115.952C328.792 114.998 329.083 114.104 329.645 113.27C330.214 112.415 331.057 111.695 332.175 111.113ZM339.619 128.899C338.966 129.239 338.326 129.322 337.7 129.147C337.08 128.949 336.616 128.555 336.308 127.964C335.992 127.357 335.93 126.743 336.123 126.122C336.33 125.493 336.761 125.008 337.414 124.668C338.052 124.335 338.682 124.267 339.301 124.465C339.936 124.655 340.411 125.053 340.727 125.66C341.035 126.251 341.086 126.861 340.878 127.49C340.678 128.096 340.258 128.566 339.619 128.899Z" fill="#E21B1A"/>
<g filter="url(#filter2_f_2650_428)">
<path d="M456.567 295.766C462.016 294.216 466.792 294.458 470.894 296.492C475.046 298.511 477.89 302.217 479.423 307.61C480.837 312.579 480.363 316.914 478.002 320.615C475.678 324.247 471.951 326.822 466.821 328.338L468.131 334.394L456.671 337.654L452.094 323.012L456.678 321.708C460.6 320.592 463.436 319.243 465.188 317.659C466.99 316.06 467.516 313.939 466.764 311.296C466.238 309.445 465.34 308.129 464.072 307.347C462.803 306.565 461.303 306.42 459.572 306.912C457.738 307.434 456.47 308.395 455.767 309.795C455.049 311.142 454.953 312.741 455.48 314.591L443.179 318.089C442.16 314.893 441.97 311.804 442.608 308.823C443.298 305.826 444.807 303.197 447.136 300.934C449.501 298.604 452.645 296.882 456.567 295.766ZM468.418 356.6C466.126 357.252 464.047 357.1 462.179 356.146C460.346 355.124 459.137 353.582 458.551 351.52C457.949 349.405 458.159 347.431 459.179 345.598C460.25 343.751 461.931 342.501 464.223 341.849C466.464 341.212 468.501 341.404 470.333 342.426C472.216 343.433 473.458 344.994 474.06 347.109C474.646 349.171 474.404 351.126 473.333 352.973C472.298 354.754 470.659 355.963 468.418 356.6Z" fill="#E21B1A"/>
</g>
<g filter="url(#filter3_f_2650_428)">
<path d="M134.392 256.894C137.848 257.921 140.337 259.659 141.859 262.109C143.413 264.569 143.693 267.471 142.7 270.815C141.784 273.897 140.067 276.009 137.548 277.152C135.072 278.272 132.197 278.363 128.925 277.427L127.587 281.043L120.319 278.884L122.794 269.665L125.701 270.529C128.188 271.267 130.171 271.517 131.648 271.278C133.157 271.049 134.155 270.114 134.642 268.475C134.983 267.328 134.944 266.335 134.525 265.497C134.106 264.659 133.348 264.077 132.249 263.75C131.086 263.405 130.08 263.48 129.229 263.977C128.388 264.441 127.798 265.247 127.457 266.394L119.656 264.077C120.185 262.058 121.125 260.374 122.474 259.027C123.856 257.689 125.555 256.82 127.572 256.42C129.631 255.997 131.904 256.155 134.392 256.894ZM120.251 292.779C118.798 292.347 117.729 291.566 117.046 290.435C116.404 289.281 116.273 288.065 116.653 286.786C117.043 285.475 117.821 284.511 118.989 283.894C120.188 283.287 121.515 283.2 122.969 283.632C124.39 284.054 125.421 284.842 126.063 285.996C126.737 287.159 126.879 288.397 126.489 289.708C126.109 290.987 125.32 291.93 124.12 292.537C122.962 293.12 121.673 293.201 120.251 292.779Z" fill="#E21B1A"/>
</g>
<path d="M231.619 144.351C232.752 144.351 233.658 144.659 234.336 145.275C235.024 145.89 235.368 146.759 235.368 147.88C235.368 148.913 235.04 149.721 234.383 150.304C233.737 150.876 232.879 151.167 231.81 151.178L231.73 152.415H229.348L229.268 149.348H230.221C231.037 149.348 231.656 149.243 232.08 149.034C232.514 148.825 232.731 148.446 232.731 147.896C232.731 147.512 232.631 147.209 232.429 146.989C232.228 146.77 231.947 146.66 231.587 146.66C231.206 146.66 230.91 146.775 230.698 147.006C230.486 147.226 230.38 147.528 230.38 147.913H227.823C227.801 147.242 227.934 146.638 228.22 146.099C228.516 145.56 228.95 145.137 229.522 144.829C230.105 144.51 230.804 144.351 231.619 144.351ZM230.571 156.702C230.094 156.702 229.702 156.559 229.395 156.273C229.099 155.977 228.95 155.614 228.95 155.185C228.95 154.745 229.099 154.377 229.395 154.08C229.702 153.783 230.094 153.635 230.571 153.635C231.037 153.635 231.418 153.783 231.714 154.08C232.022 154.377 232.175 154.745 232.175 155.185C232.175 155.614 232.022 155.977 231.714 156.273C231.418 156.559 231.037 156.702 230.571 156.702Z" fill="#E21B1A"/>
<path d="M345.711 151.217C346.844 151.251 347.739 151.587 348.398 152.223C349.067 152.859 349.385 153.737 349.351 154.858C349.319 155.891 348.966 156.689 348.292 157.251C347.629 157.803 346.763 158.068 345.693 158.046L345.576 159.28L343.194 159.207L343.209 156.139L344.161 156.168C344.976 156.193 345.599 156.107 346.029 155.912C346.469 155.716 346.698 155.344 346.714 154.794C346.726 154.41 346.635 154.104 346.44 153.879C346.246 153.653 345.969 153.534 345.609 153.523C345.228 153.512 344.928 153.618 344.709 153.842C344.491 154.055 344.376 154.354 344.364 154.739L341.807 154.661C341.807 153.99 341.958 153.39 342.26 152.86C342.573 152.331 343.02 151.921 343.601 151.631C344.193 151.33 344.896 151.192 345.711 151.217ZM344.286 163.53C343.81 163.515 343.422 163.361 343.124 163.065C342.837 162.76 342.7 162.393 342.713 161.964C342.726 161.524 342.886 161.161 343.191 160.873C343.507 160.586 343.903 160.45 344.38 160.464C344.845 160.478 345.222 160.638 345.509 160.944C345.807 161.25 345.949 161.623 345.936 162.062C345.923 162.491 345.758 162.849 345.442 163.136C345.137 163.413 344.752 163.544 344.286 163.53Z" fill="#E21B1A"/>
<path d="M410.713 154.644C411.846 154.644 412.752 154.951 413.429 155.567C414.118 156.183 414.462 157.051 414.462 158.172C414.462 159.206 414.134 160.014 413.477 160.596C412.831 161.168 411.973 161.459 410.904 161.47L410.824 162.707H408.441L408.362 159.64H409.315C410.13 159.64 410.75 159.536 411.174 159.327C411.608 159.118 411.825 158.739 411.825 158.189C411.825 157.804 411.724 157.502 411.523 157.282C411.322 157.062 411.041 156.952 410.681 156.952C410.3 156.952 410.003 157.068 409.792 157.298C409.58 157.518 409.474 157.821 409.474 158.205H406.916C406.895 157.535 407.027 156.93 407.313 156.392C407.61 155.853 408.044 155.43 408.616 155.122C409.198 154.803 409.897 154.644 410.713 154.644ZM409.664 166.995C409.188 166.995 408.796 166.852 408.489 166.566C408.192 166.269 408.044 165.906 408.044 165.478C408.044 165.038 408.192 164.67 408.489 164.373C408.796 164.076 409.188 163.927 409.664 163.927C410.13 163.927 410.512 164.076 410.808 164.373C411.115 164.67 411.269 165.038 411.269 165.478C411.269 165.906 411.115 166.269 410.808 166.566C410.512 166.852 410.13 166.995 409.664 166.995Z" fill="#E21B1A"/>
<path d="M376.846 246.338C377.898 245.917 378.853 245.866 379.711 246.185C380.579 246.5 381.222 247.178 381.639 248.219C382.024 249.178 382.02 250.05 381.627 250.835C381.24 251.606 380.552 252.196 379.564 252.604L379.95 253.782L377.738 254.668L376.523 251.851L377.408 251.496C378.165 251.193 378.701 250.865 379.017 250.514C379.342 250.158 379.402 249.726 379.198 249.215C379.055 248.858 378.849 248.615 378.58 248.486C378.312 248.357 378.01 248.359 377.676 248.493C377.322 248.635 377.09 248.852 376.979 249.146C376.864 249.428 376.878 249.748 377.022 250.106L374.648 251.057C374.379 250.443 374.276 249.832 374.341 249.226C374.416 248.615 374.662 248.061 375.078 247.563C375.5 247.05 376.089 246.642 376.846 246.338ZM380.469 258.193C380.027 258.37 379.61 258.383 379.218 258.232C378.833 258.067 378.56 257.785 378.4 257.388C378.237 256.979 378.237 256.582 378.402 256.197C378.577 255.807 378.885 255.523 379.328 255.346C379.76 255.172 380.169 255.168 380.555 255.334C380.951 255.495 381.23 255.779 381.394 256.188C381.553 256.586 381.546 256.979 381.371 257.369C381.202 257.745 380.901 258.019 380.469 258.193Z" fill="#E21B1A"/>
<path d="M317.03 211.741C318.013 212.305 318.645 213.022 318.926 213.893C319.217 214.77 319.084 215.695 318.526 216.667C318.012 217.564 317.325 218.101 316.465 218.28C315.62 218.454 314.731 218.28 313.798 217.757L313.114 218.791L311.047 217.605L312.504 214.905L313.331 215.379C314.038 215.785 314.628 216.003 315.099 216.032C315.58 216.067 315.957 215.846 316.23 215.369C316.422 215.036 316.485 214.723 316.42 214.433C316.354 214.142 316.166 213.907 315.853 213.728C315.523 213.538 315.208 213.49 314.909 213.585C314.616 213.671 314.374 213.88 314.183 214.214L311.964 212.941C312.279 212.349 312.695 211.89 313.211 211.565C313.736 211.246 314.324 211.095 314.973 211.112C315.637 211.126 316.322 211.335 317.03 211.741ZM309.975 221.933C309.561 221.696 309.293 221.377 309.168 220.976C309.059 220.571 309.111 220.182 309.324 219.811C309.543 219.429 309.855 219.183 310.26 219.074C310.674 218.969 311.087 219.035 311.501 219.272C311.905 219.504 312.162 219.822 312.271 220.228C312.39 220.638 312.34 221.034 312.121 221.415C311.908 221.787 311.594 222.025 311.18 222.13C310.781 222.23 310.379 222.165 309.975 221.933Z" fill="#E21B1A"/>
<path d="M217.641 186.484C218.725 186.815 219.501 187.374 219.97 188.16C220.448 188.95 220.524 189.881 220.196 190.954C219.895 191.942 219.345 192.619 218.547 192.985C217.762 193.343 216.856 193.371 215.83 193.069L215.393 194.229L213.114 193.533L213.934 190.576L214.845 190.855C215.625 191.093 216.248 191.174 216.714 191.098C217.191 191.025 217.509 190.725 217.67 190.2C217.782 189.832 217.774 189.513 217.646 189.244C217.517 188.975 217.281 188.788 216.937 188.683C216.572 188.572 216.255 188.595 215.985 188.754C215.718 188.903 215.528 189.161 215.416 189.529L212.97 188.782C213.145 188.135 213.449 187.595 213.879 187.163C214.32 186.735 214.859 186.457 215.496 186.329C216.146 186.194 216.861 186.246 217.641 186.484ZM213.032 197.991C212.576 197.852 212.243 197.601 212.033 197.238C211.836 196.867 211.8 196.477 211.925 196.067C212.054 195.646 212.303 195.337 212.673 195.14C213.054 194.946 213.472 194.918 213.928 195.057C214.373 195.193 214.695 195.447 214.892 195.817C215.099 196.191 215.138 196.588 215.01 197.008C214.885 197.418 214.632 197.721 214.251 197.915C213.884 198.102 213.478 198.127 213.032 197.991Z" fill="#E21B1A"/>
<path d="M266.605 153.958C267.326 153.958 267.902 154.163 268.334 154.573C268.772 154.984 268.991 155.563 268.991 156.31C268.991 156.999 268.782 157.538 268.364 157.926C267.953 158.307 267.407 158.501 266.726 158.509L266.676 159.333H265.159L265.109 157.289H265.715C266.234 157.289 266.629 157.219 266.898 157.08C267.174 156.94 267.313 156.688 267.313 156.321C267.313 156.065 267.249 155.863 267.121 155.716C266.992 155.57 266.814 155.497 266.585 155.497C266.342 155.497 266.153 155.574 266.019 155.727C265.884 155.874 265.816 156.076 265.816 156.332H264.189C264.175 155.885 264.26 155.482 264.442 155.123C264.63 154.764 264.907 154.482 265.271 154.276C265.641 154.064 266.086 153.958 266.605 153.958ZM265.938 162.192C265.634 162.192 265.385 162.096 265.19 161.906C265.001 161.708 264.907 161.466 264.907 161.18C264.907 160.887 265.001 160.641 265.19 160.444C265.385 160.246 265.634 160.147 265.938 160.147C266.234 160.147 266.477 160.246 266.666 160.444C266.861 160.641 266.959 160.887 266.959 161.18C266.959 161.466 266.861 161.708 266.666 161.906C266.477 162.096 266.234 162.192 265.938 162.192Z" fill="#E21B1A"/>
<path d="M245.334 261.926C246.014 262.166 246.489 262.552 246.759 263.082C247.036 263.615 247.05 264.234 246.801 264.939C246.571 265.589 246.195 266.027 245.672 266.254C245.157 266.477 244.578 266.478 243.934 266.258L243.611 267.019L242.182 266.514L242.815 264.569L243.387 264.771C243.876 264.944 244.271 265.01 244.571 264.968C244.878 264.929 245.093 264.736 245.215 264.391C245.3 264.149 245.307 263.937 245.235 263.757C245.163 263.576 245.019 263.447 244.803 263.371C244.574 263.29 244.37 263.3 244.192 263.4C244.016 263.493 243.886 263.661 243.8 263.903L242.266 263.361C242.402 262.935 242.615 262.583 242.906 262.305C243.204 262.029 243.558 261.855 243.97 261.783C244.39 261.706 244.845 261.754 245.334 261.926ZM241.964 269.469C241.678 269.368 241.475 269.195 241.354 268.95C241.242 268.701 241.233 268.441 241.328 268.172C241.426 267.895 241.597 267.695 241.84 267.571C242.091 267.45 242.359 267.44 242.645 267.54C242.924 267.639 243.12 267.813 243.232 268.063C243.351 268.314 243.361 268.578 243.263 268.855C243.168 269.124 242.996 269.32 242.745 269.441C242.504 269.558 242.244 269.567 241.964 269.469Z" fill="#E21B1A"/>
<path d="M193.183 282.271C193.904 282.271 194.48 282.477 194.912 282.887C195.35 283.298 195.569 283.877 195.569 284.624C195.569 285.313 195.36 285.852 194.942 286.24C194.531 286.621 193.985 286.815 193.304 286.823L193.254 287.647H191.737L191.687 285.602H192.293C192.812 285.602 193.207 285.533 193.476 285.394C193.753 285.254 193.891 285.002 193.891 284.635C193.891 284.379 193.827 284.177 193.699 284.03C193.571 283.884 193.392 283.811 193.163 283.811C192.92 283.811 192.732 283.888 192.597 284.041C192.462 284.188 192.395 284.39 192.395 284.646H190.767C190.754 284.199 190.838 283.796 191.02 283.437C191.208 283.078 191.485 282.796 191.849 282.59C192.219 282.378 192.664 282.271 193.183 282.271ZM192.516 290.506C192.213 290.506 191.963 290.41 191.768 290.22C191.579 290.022 191.485 289.78 191.485 289.494C191.485 289.201 191.579 288.955 191.768 288.758C191.963 288.56 192.213 288.461 192.516 288.461C192.812 288.461 193.055 288.56 193.244 288.758C193.439 288.955 193.537 289.201 193.537 289.494C193.537 289.78 193.439 290.022 193.244 290.22C193.055 290.41 192.812 290.506 192.516 290.506Z" fill="#E21B1A"/>
<path d="M291.282 360.364C291.905 360 292.506 359.886 293.085 360.022C293.67 360.156 294.152 360.545 294.529 361.19C294.877 361.785 294.969 362.355 294.804 362.902C294.641 363.438 294.268 363.881 293.684 364.231L294.057 364.968L292.748 365.734L291.672 363.994L292.196 363.688C292.644 363.426 292.949 363.167 293.111 362.911C293.28 362.651 293.271 362.363 293.086 362.047C292.957 361.825 292.8 361.684 292.615 361.622C292.431 361.56 292.239 361.587 292.042 361.702C291.832 361.825 291.708 361.987 291.669 362.187C291.627 362.382 291.671 362.59 291.8 362.811L290.395 363.633C290.158 363.254 290.027 362.863 290.003 362.462C289.985 362.056 290.081 361.673 290.291 361.312C290.504 360.942 290.834 360.626 291.282 360.364ZM294.863 367.808C294.601 367.961 294.338 368.005 294.073 367.939C293.81 367.864 293.606 367.703 293.462 367.456C293.314 367.203 293.272 366.943 293.335 366.677C293.403 366.408 293.569 366.196 293.831 366.043C294.087 365.894 294.346 365.856 294.609 365.932C294.877 366.004 295.086 366.167 295.234 366.42C295.378 366.667 295.416 366.925 295.347 367.194C295.28 367.454 295.119 367.659 294.863 367.808Z" fill="#E21B1A"/>
<path d="M349.273 285.832C349.972 286.01 350.48 286.35 350.797 286.854C351.121 287.359 351.191 287.974 351.008 288.699C350.838 289.367 350.503 289.838 350.003 290.111C349.511 290.38 348.934 290.434 348.272 290.274L348.021 291.061L346.551 290.688L347.004 288.694L347.592 288.843C348.095 288.97 348.494 288.999 348.79 288.931C349.092 288.864 349.288 288.653 349.378 288.297C349.441 288.049 349.429 287.838 349.341 287.664C349.252 287.49 349.097 287.376 348.875 287.319C348.64 287.26 348.438 287.288 348.27 287.404C348.103 287.513 347.988 287.692 347.925 287.94L346.348 287.54C346.444 287.104 346.625 286.734 346.89 286.43C347.161 286.129 347.498 285.923 347.901 285.813C348.313 285.699 348.77 285.705 349.273 285.832ZM346.603 293.65C346.309 293.575 346.091 293.422 345.948 293.189C345.814 292.951 345.782 292.693 345.852 292.416C345.924 292.132 346.076 291.917 346.307 291.772C346.545 291.628 346.811 291.593 347.105 291.668C347.393 291.741 347.604 291.896 347.738 292.134C347.879 292.374 347.913 292.636 347.841 292.92C347.771 293.198 347.617 293.408 347.379 293.552C347.149 293.69 346.89 293.723 346.603 293.65Z" fill="#E21B1A"/>
<path d="M412.296 111.156C412.941 110.833 413.548 110.76 414.117 110.934C414.693 111.106 415.147 111.526 415.481 112.195C415.789 112.811 415.842 113.386 415.642 113.921C415.445 114.445 415.043 114.863 414.437 115.173L414.76 115.934L413.404 116.611L412.445 114.804L412.988 114.533C413.452 114.301 413.774 114.063 413.953 113.818C414.138 113.57 414.148 113.282 413.985 112.954C413.87 112.725 413.723 112.573 413.543 112.499C413.363 112.425 413.17 112.439 412.965 112.542C412.748 112.65 412.614 112.803 412.562 113.001C412.507 113.192 412.536 113.403 412.651 113.632L411.195 114.359C410.983 113.965 410.878 113.567 410.881 113.164C410.889 112.759 411.01 112.383 411.244 112.037C411.481 111.681 411.831 111.387 412.296 111.156ZM415.377 118.821C415.105 118.956 414.84 118.982 414.58 118.899C414.323 118.806 414.13 118.632 414.002 118.376C413.871 118.114 413.846 117.852 413.927 117.591C414.013 117.326 414.192 117.127 414.463 116.991C414.729 116.859 414.99 116.839 415.247 116.932C415.51 117.021 415.707 117.197 415.838 117.46C415.966 117.715 415.987 117.975 415.9 118.24C415.817 118.494 415.642 118.688 415.377 118.821Z" fill="#E21B1A"/>
<path d="M467.943 241.849C468.411 241.3 468.941 240.995 469.533 240.933C470.13 240.866 470.712 241.075 471.281 241.56C471.806 242.006 472.08 242.515 472.105 243.085C472.128 243.645 471.922 244.186 471.486 244.709L472.08 245.282L471.097 246.437L469.508 245.149L469.901 244.687C470.238 244.292 470.441 243.947 470.509 243.651C470.583 243.351 470.48 243.082 470.201 242.844C470.006 242.677 469.811 242.595 469.616 242.598C469.422 242.6 469.25 242.689 469.101 242.863C468.944 243.048 468.88 243.241 468.91 243.444C468.934 243.641 469.044 243.823 469.239 243.99L468.183 245.228C467.834 244.949 467.582 244.623 467.427 244.251C467.276 243.875 467.24 243.482 467.32 243.071C467.399 242.652 467.607 242.244 467.943 241.849ZM473.777 247.698C473.58 247.929 473.346 248.057 473.074 248.082C472.801 248.097 472.556 248.012 472.338 247.827C472.115 247.637 471.99 247.406 471.961 247.134C471.938 246.857 472.024 246.603 472.221 246.372C472.413 246.146 472.646 246.026 472.919 246.01C473.196 245.99 473.446 246.075 473.67 246.265C473.887 246.451 474.008 246.682 474.032 246.959C474.054 247.226 473.969 247.473 473.777 247.698Z" fill="#E21B1A"/>
</g>
<defs>
<filter id="filter0_f_2650_428" x="96.9041" y="-27.7395" width="510.231" height="510.234" filterUnits="userSpaceOnUse" color-interpolation-filters="sRGB">
<feFlood flood-opacity="0" result="BackgroundImageFix"/>
<feBlend mode="normal" in="SourceGraphic" in2="BackgroundImageFix" result="shape"/>
<feGaussianBlur stdDeviation="66.4894" result="effect1_foregroundBlur_2650_428"/>
</filter>
<filter id="filter1_f_2650_428" x="-103.455" y="-184.872" width="510.231" height="510.234" filterUnits="userSpaceOnUse" color-interpolation-filters="sRGB">
<feFlood flood-opacity="0" result="BackgroundImageFix"/>
<feBlend mode="normal" in="SourceGraphic" in2="BackgroundImageFix" result="shape"/>
<feGaussianBlur stdDeviation="66.4894" result="effect1_foregroundBlur_2650_428"/>
</filter>
<filter id="filter2_f_2650_428" x="429.476" y="281.995" width="63.5085" height="87.7678" filterUnits="userSpaceOnUse" color-interpolation-filters="sRGB">
<feFlood flood-opacity="0" result="BackgroundImageFix"/>
<feBlend mode="normal" in="SourceGraphic" in2="BackgroundImageFix" result="shape"/>
<feGaussianBlur stdDeviation="6.38298" result="effect1_foregroundBlur_2650_428"/>
</filter>
<filter id="filter3_f_2650_428" x="108.459" y="248.211" width="42.8012" height="52.8124" filterUnits="userSpaceOnUse" color-interpolation-filters="sRGB">
<feFlood flood-opacity="0" result="BackgroundImageFix"/>
<feBlend mode="normal" in="SourceGraphic" in2="BackgroundImageFix" result="shape"/>
<feGaussianBlur stdDeviation="3.98936" result="effect1_foregroundBlur_2650_428"/>
</filter>
<clipPath id="clip0_2650_428">
<rect width="492" height="470" fill="white"/>
</clipPath>
</defs>
</svg>
