<svg width="228" height="107" viewBox="0 0 228 107" fill="none" xmlns="http://www.w3.org/2000/svg">
<path d="M7.25781 59.3911C7.25163 59.1039 7.34296 58.8483 7.53178 58.6243C7.72939 58.3863 7.9595 58.1587 8.22211 57.9418C8.49614 57.7222 8.78422 57.5113 9.08635 57.3093C9.38585 57.0958 9.65549 56.8832 9.89526 56.6715C10.1465 56.4572 10.341 56.2318 10.4789 55.9956C10.6141 55.7478 10.6488 55.4813 10.5829 55.1958C10.4985 54.8304 10.3316 54.5502 10.0821 54.3553C9.84408 54.1577 9.54542 54.0101 9.18617 53.9127C8.83833 53.8126 8.45141 53.7515 8.0254 53.7296C7.5994 53.7077 7.16197 53.6884 6.71313 53.6718C6.27307 53.6411 5.8374 53.6033 5.40612 53.5586C4.97221 53.5024 4.57035 53.4028 4.20055 53.2596C3.84217 53.1138 3.53033 52.9092 3.26504 52.6457C3.01117 52.3796 2.83151 52.0182 2.72607 51.5615C2.63907 51.1847 2.63157 50.8135 2.70356 50.4481C2.78434 50.0687 2.91606 49.7015 3.09872 49.3466C3.29017 48.9777 3.52246 48.6294 3.7956 48.3018C4.08016 47.9715 4.38536 47.6785 4.7112 47.4229C5.04847 47.1646 5.39496 46.9463 5.75068 46.768C6.10376 46.5782 6.44016 46.4464 6.75987 46.3726L6.94828 46.3291C7.05895 46.3397 7.20915 46.3651 7.39888 46.4055C7.58861 46.4459 7.77263 46.4876 7.95094 46.5306C8.12662 46.5622 8.27945 46.5991 8.40946 46.6412C8.53682 46.672 8.60182 46.693 8.60446 46.7045L8.6954 47.0984C8.48373 47.1713 8.21452 47.2816 7.88779 47.4292C7.55841 47.5654 7.21719 47.7283 6.86411 47.9181C6.51102 48.1078 6.15882 48.3275 5.8075 48.5769C5.45355 48.815 5.14615 49.0724 4.8853 49.3491C4.62445 49.6258 4.42861 49.9236 4.29776 50.2425C4.16428 50.5499 4.13708 50.8749 4.21617 51.2174C4.32952 51.7084 4.59043 52.0571 4.99888 52.2635C5.4047 52.4584 5.88561 52.588 6.44162 52.652C6.99763 52.7161 7.59535 52.7525 8.2348 52.7612C8.88303 52.7559 9.48778 52.7967 10.0491 52.8836C10.6077 52.9591 11.0965 53.1228 11.5155 53.3749C11.9319 53.6155 12.2033 54.0099 12.3299 54.558C12.3984 54.8548 12.3796 55.1899 12.2733 55.5632C12.1758 55.9225 12.0156 56.2962 11.7925 56.6845C11.5782 57.0587 11.3213 57.4307 11.0219 57.8005C10.7224 58.1703 10.4036 58.5085 10.0654 58.8151C9.73607 59.1076 9.40451 59.3646 9.07076 59.586C8.73437 59.7959 8.42344 59.9339 8.13798 59.9998C8.04663 60.0209 7.94694 60.0318 7.8389 60.0327C7.73087 60.0336 7.63161 60.0205 7.54114 59.9932C7.45944 59.952 7.3839 59.8852 7.3145 59.793C7.25652 59.6981 7.23762 59.5642 7.25781 59.3911ZM10.9336 50.2259C10.9257 50.1916 10.9248 50.1617 10.9309 50.1363C10.9256 50.1134 10.9248 50.0836 10.9283 50.0467C10.9608 49.979 11.0121 49.889 11.0824 49.7766C11.1527 49.6641 11.1992 49.6053 11.222 49.6L14.6647 48.8052C14.6357 48.6796 14.5724 48.4837 14.4749 48.2176C14.3774 47.9515 14.2733 47.6568 14.1626 47.3336C14.0633 47.0077 13.9785 46.6665 13.9082 46.3099C13.8352 45.9418 13.8058 45.6059 13.8198 45.302C13.8426 44.984 13.9243 44.7126 14.0648 44.4877C14.2141 44.2488 14.46 44.0898 14.8026 44.0107C15.0688 45.1639 15.3623 46.0704 15.6829 46.73C16.0036 47.3896 16.3387 47.8775 16.6884 48.1937C17.0494 48.5072 17.4144 48.6815 17.7833 48.7166C18.1522 48.7517 18.5123 48.7227 18.8637 48.6296C19.2238 48.5224 19.5646 48.3836 19.886 48.2131C20.2075 48.0427 20.4956 47.9101 20.7503 47.8152C21.0164 47.7176 21.24 47.6961 21.4209 47.7505C21.5992 47.7936 21.7253 47.9749 21.7991 48.2947C21.8545 48.5344 21.8369 48.7189 21.7464 48.848C21.6674 48.9745 21.4803 49.1019 21.1852 49.2302C21.0965 49.2627 20.9476 49.3211 20.7386 49.4054C20.5383 49.4757 20.3095 49.5526 20.0522 49.6361C19.7948 49.7195 19.5217 49.8127 19.2327 49.9155C18.9411 50.0068 18.6666 50.0943 18.4093 50.1777C18.1519 50.2612 17.9161 50.3337 17.7018 50.3952C17.4848 50.4453 17.325 50.4822 17.2222 50.5059C17.2354 50.563 17.2521 50.6614 17.2723 50.801C17.2925 50.9407 17.3079 51.0334 17.3184 51.079C17.4344 51.5814 17.6277 52.054 17.8983 52.4966C18.1662 52.9279 18.4456 53.3565 18.7363 53.7825C19.0385 54.2058 19.3236 54.6331 19.5915 55.0644C19.8595 55.4956 20.0514 55.9624 20.1674 56.4648C20.1885 56.5562 20.1995 56.6559 20.2004 56.7639C20.2101 56.8579 20.1956 56.9515 20.157 57.0446C20.1271 57.1236 20.0647 57.1921 19.9699 57.2501C19.8891 57.3169 19.7564 57.3415 19.572 57.3239C19.1117 57.3099 18.7296 57.1396 18.4257 56.8128C18.1332 56.4835 17.8762 56.0738 17.6548 55.5837C17.4308 55.0821 17.2344 54.5442 17.0657 53.9697C16.897 53.3953 16.7147 52.8661 16.5188 52.3821C16.3317 51.8841 16.1173 51.4766 15.8757 51.1595C15.6315 50.8311 15.3232 50.6677 14.9508 50.6695L11.4712 50.679C11.4255 50.6896 11.3464 50.6597 11.234 50.5895C11.1189 50.5078 11.0447 50.4468 11.0113 50.4064C10.9946 50.3862 10.9823 50.3589 10.9744 50.3247C10.9577 50.3045 10.9441 50.2715 10.9336 50.2259ZM30.4696 52.4808C30.1042 52.8779 29.7893 53.2332 29.525 53.5468C29.2694 53.8463 29.0116 54.1103 28.7517 54.3387C28.4917 54.5671 28.1997 54.7608 27.8756 54.9198C27.5629 55.0762 27.161 55.2111 26.6701 55.3244C25.6081 55.5696 24.7557 55.4717 24.1127 55.0308C23.4671 54.5785 23.0151 53.7929 22.7567 52.6739C22.6566 52.24 22.6095 51.7758 22.6156 51.2813C22.6217 50.7868 22.6805 50.2861 22.792 49.7793C22.9123 49.2584 23.0792 48.7568 23.2925 48.2746C23.5033 47.7809 23.7659 47.3294 24.0803 46.9201C24.3947 46.5107 24.7478 46.1646 25.1395 45.8818C25.54 45.5848 25.9858 45.3797 26.4768 45.2664C27.3173 45.1565 28.0099 45.2131 28.5545 45.4361C29.0965 45.6478 29.5467 45.9828 29.9051 46.4413C30.2609 46.8883 30.5569 47.4153 30.7933 48.0222C31.027 48.6177 31.2431 49.2414 31.4417 49.8931C31.6517 50.5422 31.8731 51.1886 32.1059 51.8324C32.3387 52.4762 32.6453 53.0489 33.0257 53.5504C32.9642 53.9615 32.8821 54.2571 32.7794 54.4371C32.6907 54.626 32.5546 54.6875 32.371 54.6216C32.1874 54.5558 31.941 54.3481 31.6318 53.9985C31.334 53.6463 30.9466 53.1404 30.4696 52.4808ZM24.2205 52.372C24.3707 53.0229 24.6014 53.4748 24.9123 53.7277C25.2321 53.9666 25.7059 54.0136 26.3339 53.8686C26.8021 53.7605 27.229 53.5777 27.6145 53.3203C28.0089 53.0489 28.333 52.7335 28.5868 52.3743C28.838 52.0036 29.0132 51.5903 29.1124 51.1344C29.2116 50.6785 29.2032 50.1994 29.0872 49.697C29.0398 49.4915 28.9796 49.2047 28.9066 48.8367C28.831 48.4572 28.7225 48.0914 28.5811 47.7392C28.4396 47.387 28.2587 47.098 28.0382 46.8723C27.8151 46.6352 27.5436 46.5535 27.2239 46.6273C26.6302 46.7644 26.1177 47.0451 25.6864 47.4694C25.2526 47.8822 24.907 48.3649 24.6497 48.9174C24.3924 49.4699 24.2269 50.0554 24.1531 50.6737C24.0768 51.2807 24.0992 51.8468 24.2205 52.372ZM31.8887 46.9034C31.865 46.8006 31.847 46.6965 31.8347 46.5911C31.8197 46.4743 31.8202 46.372 31.836 46.2842C31.8491 46.1849 31.8834 46.0988 31.9387 46.0259C32.0054 45.9504 32.1073 45.8968 32.2443 45.8651C32.3585 45.8388 32.5052 45.9011 32.6844 46.0522C32.8724 46.1892 33.0722 46.3776 33.284 46.6174C33.493 46.8457 33.703 47.1039 33.9138 47.392C34.1361 47.6774 34.3302 47.9453 34.4962 48.1956C34.6711 48.4319 34.8151 48.6392 34.9284 48.8175C35.0418 48.9958 35.1055 49.0893 35.1195 49.0981C35.1757 48.6642 35.2411 48.1921 35.3157 47.6817C35.3903 47.1714 35.5128 46.6861 35.6832 46.2258C35.8623 45.7515 36.1029 45.3351 36.405 44.9767C36.7186 44.6157 37.1437 44.3732 37.6804 44.2493C37.9544 44.1861 38.2219 44.1724 38.4827 44.2084C38.7524 44.2303 38.9983 44.3059 39.2206 44.435C39.4516 44.55 39.6506 44.7085 39.8175 44.9105C39.9844 45.1125 40.1021 45.362 40.1706 45.6589C40.2286 45.9101 40.1667 46.1108 39.9849 46.261C39.8145 46.4086 39.6037 46.5114 39.3525 46.5694L39.1812 46.6089L38.2747 46.0424C38.2519 46.0477 38.2334 46.046 38.2194 46.0372C38.1966 46.0424 38.1737 46.0477 38.1509 46.053C38.1368 46.0442 38.1184 46.0425 38.0955 46.0477C37.6959 46.14 37.4083 46.3267 37.2326 46.6078C37.0657 46.8748 36.9634 47.1871 36.9257 47.5446C36.8853 47.8906 36.8902 48.2503 36.9403 48.6236C36.9992 48.9829 37.0629 49.3109 37.1314 49.6078C37.1842 49.8362 37.261 50.065 37.3621 50.2942C37.4605 50.512 37.5646 50.7285 37.6744 50.9437C37.7816 51.1475 37.8857 51.364 37.9867 51.5932C38.0851 51.8111 38.1633 52.0456 38.2213 52.2968C38.332 52.7764 38.1305 53.0755 37.6166 53.1941C37.3312 53.26 37 53.1801 36.6232 52.9544C36.2437 52.7173 35.8458 52.4002 35.4294 52.0032C35.0245 51.6036 34.6204 51.1557 34.2172 50.6595C33.8113 50.1518 33.4437 49.6534 33.1142 49.1642C32.7848 48.675 32.5072 48.2279 32.2814 47.823C32.0671 47.4155 31.9362 47.1089 31.8887 46.9034ZM39.2304 43.693C39.2225 43.6588 39.2216 43.6289 39.2278 43.6034C39.2225 43.5806 39.2216 43.5507 39.2251 43.5138C39.2576 43.4462 39.309 43.3562 39.3792 43.2437C39.4495 43.1313 39.4961 43.0724 39.5189 43.0672L42.9615 42.2724C42.9325 42.1468 42.8693 41.9509 42.7718 41.6848C42.6742 41.4186 42.5701 41.124 42.4594 40.8007C42.3601 40.4749 42.2753 40.1336 42.205 39.777C42.1321 39.409 42.1026 39.073 42.1167 38.7691C42.1395 38.4512 42.2211 38.1797 42.3617 37.9549C42.5109 37.7159 42.7569 37.5569 43.0994 37.4778C43.3657 38.6311 43.6591 39.5375 43.9798 40.1972C44.3005 40.8568 44.6356 41.3447 44.9852 41.6608C45.3462 41.9744 45.7112 42.1487 46.0801 42.1838C46.449 42.2189 46.8092 42.1899 47.1605 42.0967C47.5206 41.9895 47.8614 41.8507 48.1829 41.6803C48.5043 41.5099 48.7924 41.3772 49.0471 41.2823C49.3133 41.1848 49.5368 41.1633 49.7178 41.2177C49.8961 41.2607 50.0221 41.4421 50.0959 41.7618C50.1513 42.0016 50.1338 42.1861 50.0433 42.3152C49.9643 42.4417 49.7772 42.5691 49.4821 42.6973C49.3934 42.7298 49.2445 42.7883 49.0354 42.8726C48.8352 42.9429 48.6064 43.0198 48.349 43.1032C48.0917 43.1867 47.8185 43.2798 47.5295 43.3826C47.2379 43.474 46.9635 43.5614 46.7061 43.6449C46.4488 43.7284 46.2129 43.8008 45.9986 43.8623C45.7817 43.9124 45.6218 43.9493 45.519 43.9731C45.5322 44.0302 45.5489 44.1285 45.5691 44.2682C45.5893 44.4078 45.6047 44.5005 45.6153 44.5462C45.7313 45.0486 45.9245 45.5211 46.1951 45.9638C46.4631 46.395 46.7424 46.8237 47.0332 47.2496C47.3354 47.673 47.6205 48.1003 47.8884 48.5315C48.1563 48.9628 48.3483 49.4296 48.4643 49.932C48.4854 50.0234 48.4964 50.123 48.4973 50.2311C48.5069 50.3251 48.4924 50.4186 48.4538 50.5117C48.4239 50.5908 48.3616 50.6593 48.2667 50.7173C48.1859 50.784 48.0533 50.8086 47.8688 50.7911C47.4086 50.7771 47.0265 50.6067 46.7225 50.28C46.43 49.9506 46.1731 49.5409 45.9517 49.0508C45.7276 48.5493 45.5313 48.0113 45.3626 47.4369C45.1939 46.8625 45.0116 46.3333 44.8156 45.8493C44.6285 45.3513 44.4142 44.9438 44.1726 44.6267C43.9284 44.2982 43.62 44.1349 43.2476 44.1367L39.768 44.1462C39.7223 44.1567 39.6433 44.1269 39.5308 44.0566C39.4158 43.975 39.3415 43.9139 39.3082 43.8735C39.2915 43.8533 39.2792 43.8261 39.2713 43.7918C39.2546 43.7716 39.241 43.7387 39.2304 43.693ZM61.5222 46.8632C60.9309 45.9173 60.3727 45.0359 59.8473 44.2191C59.3308 43.3882 58.8537 42.5723 58.4162 41.7713C57.9875 40.9562 57.6018 40.1191 57.2592 39.2601C56.9166 38.4011 56.6279 37.4635 56.3933 36.4473C56.3749 36.3674 56.3419 36.2246 56.2945 36.0191C56.2558 35.7995 56.2101 35.5755 56.1574 35.3472C56.1047 35.1188 56.0546 34.9018 56.0071 34.6963C55.9685 34.4767 55.9399 34.327 55.9214 34.247C55.9715 33.9949 56.0997 33.7428 56.3061 33.4907C56.5239 33.236 56.7641 33.0783 57.0267 33.0177C57.2218 33.8626 57.4415 34.7621 57.6858 35.7159C57.9274 36.6584 58.2147 37.5903 58.5477 38.5117C58.8921 39.4304 59.3011 40.3162 59.7746 41.169C60.2569 42.0078 60.8305 42.7473 61.4955 43.3876C61.4436 43.1109 61.3852 42.8057 61.3202 42.4719C61.2551 42.1381 61.2072 41.8004 61.1765 41.4587C61.1571 41.1144 61.1689 40.7749 61.2119 40.4403C61.2549 40.1056 61.3572 39.7934 61.5188 39.5035C61.6918 39.211 61.9395 38.9553 62.2618 38.7366C62.5956 38.5152 63.0378 38.347 63.5886 38.2319C64.0795 38.1185 64.5402 38.1084 64.9706 38.2014C65.4125 38.2919 65.8016 38.4666 66.138 38.7257C66.4833 38.9707 66.7731 39.2887 67.0077 39.6795C67.251 40.0563 67.4268 40.4788 67.5348 40.9469C67.6798 41.5749 67.668 42.2271 67.4994 42.9035C67.3309 43.5798 67.045 44.2171 66.6419 44.8153C66.2502 45.4109 65.7746 45.9296 65.2152 46.3715C64.6531 46.8019 64.0466 47.0923 63.3957 47.2425C63.0646 47.319 62.7317 47.3357 62.397 47.2927C62.0597 47.2382 61.7681 47.0951 61.5222 46.8632ZM64.1381 39.6745C63.9387 39.8528 63.7332 40.0566 63.5216 40.2859C63.3099 40.5152 63.1378 40.8376 63.0052 41.253C62.8814 41.6545 62.8164 42.1806 62.8103 42.8315C62.8042 43.4823 62.9014 44.3198 63.1017 45.344C63.1246 45.3387 63.183 45.3312 63.277 45.3216C63.3824 45.3092 63.4522 45.2991 63.4865 45.2912C63.7947 45.2201 64.1206 45.0426 64.464 44.7589C64.8188 44.4725 65.146 44.1444 65.4455 43.7746C65.7564 43.4021 66.0093 43.013 66.2043 42.6072C66.3966 42.1899 66.4844 41.8149 66.4677 41.482C66.4571 41.2799 66.3657 41.0665 66.1936 40.8417C66.0214 40.6168 65.8119 40.4126 65.565 40.2291C65.327 40.0315 65.0753 39.8791 64.8101 39.7719C64.5562 39.6622 64.3322 39.6297 64.1381 39.6745ZM66.7051 37.1155C66.6814 37.0127 66.6577 36.9099 66.6339 36.8072C66.619 36.6903 66.6181 36.5823 66.6313 36.4831C66.6532 36.3697 66.6932 36.2823 66.7511 36.2208C66.8179 36.1453 66.9255 36.0904 67.0739 36.0561C67.0853 36.0535 67.0968 36.0509 67.1082 36.0482C67.131 36.0429 67.1538 36.0377 67.1767 36.0324C67.2136 36.0359 67.2434 36.035 67.2663 36.0298C67.5518 36.2765 67.8285 36.6156 68.0964 37.0468C68.3617 37.4666 68.6292 37.9221 68.8989 38.413C69.166 38.8926 69.4471 39.3809 69.7423 39.878C70.0348 40.3638 70.3669 40.7862 70.7385 41.1454C71.11 41.5046 71.5247 41.7637 71.9823 41.9227C72.4399 42.0816 72.9617 42.0754 73.5475 41.9041C73.8101 41.8434 73.9485 41.6612 73.9625 41.3572C73.9765 41.0533 73.9321 40.6787 73.8293 40.2334C73.7379 39.7854 73.6132 39.2971 73.455 38.7683C73.3083 38.2369 73.191 37.7288 73.1031 37.244C73.024 36.7451 73.0108 36.2971 73.0634 35.9001C73.1275 35.5004 73.322 35.1969 73.647 34.9896C73.864 35.2522 74.092 35.6927 74.3309 36.311C74.5787 36.9153 74.8216 37.629 75.0597 38.452C75.2952 39.2636 75.525 40.1546 75.7491 41.1252C75.9705 42.0843 76.1691 43.0488 76.3449 44.0184C76.518 44.9767 76.6604 45.906 76.772 46.8063C76.8836 47.7066 76.9588 48.5011 76.9975 49.1897C77.0362 49.8783 77.0192 50.4295 76.9463 50.8432C76.8875 51.2657 76.7658 51.4682 76.5814 51.4506C76.2889 51.2776 76.0319 51.0243 75.8106 50.6905C75.6006 50.3541 75.4157 49.9698 75.2558 49.5377C75.1073 49.1029 74.9808 48.633 74.8762 48.128C74.7742 47.6344 74.6767 47.1337 74.5836 46.626C74.5018 46.1157 74.4227 45.6168 74.3463 45.1293C74.2812 44.6392 74.2026 44.1943 74.1103 43.7947C73.7071 43.9238 73.2702 43.9586 72.7994 43.8989C72.34 43.8366 71.8665 43.6873 71.379 43.4511C70.8889 43.2034 70.4 42.8833 69.9125 42.4907C69.4364 42.0955 68.9857 41.6282 68.5606 41.089C68.1468 40.5471 67.7796 39.9463 67.4589 39.2867C67.1356 38.6157 66.8844 37.8919 66.7051 37.1155ZM82.4445 37.3785C82.3338 36.8989 82.3205 36.3728 82.4048 35.8001C82.5005 35.2248 82.6765 34.685 82.933 34.1808C83.1868 33.6652 83.5091 33.2119 83.8999 32.821C84.3022 32.4275 84.7602 32.1714 85.274 32.0527C85.5367 31.9921 85.8098 31.9772 86.0935 32.0079C86.3773 32.0386 86.6416 32.1159 86.8867 32.2397C87.1432 32.3609 87.3619 32.5269 87.5429 32.7376C87.7353 32.9458 87.8657 33.1983 87.9343 33.4952C87.7287 33.5426 87.5351 33.5633 87.3533 33.5572C87.1828 33.5484 87.0111 33.5339 86.8381 33.5137C86.6624 33.4821 86.4894 33.462 86.319 33.4532C86.16 33.4418 85.9892 33.4572 85.8065 33.4993C85.3383 33.6074 84.9835 33.8156 84.7419 34.124C84.5092 34.4182 84.3481 34.7621 84.2585 35.1556C84.169 35.5491 84.1374 35.9593 84.1638 36.3862C84.1989 36.799 84.2574 37.1824 84.3391 37.5364C84.3523 37.5935 84.3773 37.702 84.4142 37.8618C84.4626 38.0191 84.5078 38.189 84.55 38.3717C84.6009 38.5404 84.6449 38.7046 84.6818 38.8645C84.7301 39.0217 84.7666 39.1275 84.7912 39.182C84.98 39.427 85.1487 39.6106 85.2972 39.7327C85.457 39.8521 85.6147 39.936 85.7702 39.9843C85.923 40.0211 86.082 40.0325 86.2471 40.0185C86.4096 39.993 86.5993 39.9552 86.8163 39.9051C87.1132 39.8366 87.3595 39.7316 87.5554 39.5902C87.7627 39.4461 87.9489 39.2888 88.114 39.1184C88.2791 38.948 88.4302 38.7688 88.5672 38.5808C88.7015 38.3814 88.8456 38.1978 88.9993 38.0301C89.1618 37.8482 89.3422 37.6923 89.5407 37.5623C89.748 37.4182 89.9944 37.3132 90.2798 37.2473C90.409 37.8068 90.4209 38.3272 90.3156 38.8086C90.2216 39.2873 90.0276 39.723 89.7333 40.1156C89.4505 40.5057 89.0834 40.843 88.632 41.1276C88.1893 41.3982 87.6825 41.5994 87.1116 41.7312C86.5749 41.8551 86.0475 41.7844 85.5292 41.5192C85.0224 41.2514 84.5542 40.8904 84.1246 40.4363C83.7038 39.9682 83.345 39.4557 83.048 38.8989C82.7511 38.342 82.5499 37.8352 82.4445 37.3785ZM89.6992 33.5568C89.6754 33.454 89.6574 33.3499 89.6451 33.2445C89.6302 33.1277 89.6306 33.0254 89.6464 32.9376C89.6596 32.8383 89.6938 32.7522 89.7491 32.6793C89.8159 32.6038 89.9178 32.5502 90.0548 32.5185C90.169 32.4922 90.3157 32.5545 90.4949 32.7056C90.6829 32.8426 90.8827 33.031 91.0944 33.2708C91.3035 33.4991 91.5134 33.7573 91.7243 34.0454C91.9465 34.3309 92.1406 34.5987 92.3067 34.8491C92.4815 35.0853 92.6256 35.2926 92.7389 35.4709C92.8522 35.6492 92.9159 35.7427 92.93 35.7515C92.9861 35.3176 93.0515 34.8455 93.1261 34.3351C93.2008 33.8248 93.3232 33.3395 93.4936 32.8792C93.6727 32.4049 93.9134 31.9885 94.2155 31.6301C94.529 31.2691 94.9541 31.0266 95.4908 30.9027C95.7648 30.8395 96.0323 30.8258 96.2932 30.8618C96.5628 30.8837 96.8088 30.9593 97.031 31.0884C97.262 31.2034 97.461 31.3619 97.6279 31.5639C97.7948 31.7659 97.9125 32.0154 97.9811 32.3123C98.0391 32.5635 97.9772 32.7642 97.7954 32.9144C97.625 33.062 97.4142 33.1648 97.163 33.2228L96.9917 33.2623L96.0852 32.6958C96.0623 32.7011 96.0439 32.6994 96.0298 32.6906C96.007 32.6959 95.9842 32.7011 95.9613 32.7064C95.9473 32.6976 95.9288 32.6959 95.906 32.7011C95.5063 32.7934 95.2187 32.9801 95.0431 33.2612C94.8762 33.5282 94.7739 33.8405 94.7362 34.198C94.6958 34.544 94.7007 34.9037 94.7508 35.277C94.8096 35.6363 94.8733 35.9643 94.9419 36.2612C94.9946 36.4896 95.0715 36.7184 95.1725 36.9476C95.2709 37.1654 95.375 37.3819 95.4848 37.5971C95.592 37.8009 95.6961 38.0174 95.7972 38.2467C95.8956 38.4645 95.9737 38.699 96.0317 38.9502C96.1425 39.4298 95.9409 39.7289 95.4271 39.8475C95.1416 39.9134 94.8105 39.8335 94.4336 39.6078C94.0542 39.3707 93.6562 39.0536 93.2399 38.6566C92.8349 38.257 92.4308 37.8091 92.0276 37.3129C91.6217 36.8052 91.2541 36.3068 90.9247 35.8176C90.5952 35.3284 90.3176 34.8813 90.0919 34.4764C89.8775 34.0689 89.7466 33.7623 89.6992 33.5568ZM98.3113 34.1303C98.169 33.5137 98.1008 32.88 98.1069 32.2291C98.113 31.5782 98.2192 30.9704 98.4256 30.4056C98.6434 29.8381 98.9736 29.341 99.4162 28.914C99.8703 28.4845 100.468 28.184 101.211 28.0127C101.633 27.9151 102.023 27.9094 102.379 27.9954C102.733 28.0701 103.048 28.2079 103.323 28.4091C103.598 28.6102 103.826 28.8702 104.008 29.189C104.199 29.4938 104.336 29.8288 104.42 30.1942C104.555 30.7766 104.548 31.3734 104.401 31.9848C104.265 32.5935 104.017 33.1618 103.658 33.6897C103.307 34.2036 102.866 34.6362 102.334 34.9876C101.799 35.3276 101.216 35.5103 100.584 35.5359C100.672 35.8644 100.842 36.1077 101.095 36.2657C101.357 36.4098 101.648 36.4989 101.969 36.5331C102.29 36.5673 102.614 36.5647 102.941 36.5251C103.266 36.4741 103.554 36.4197 103.806 36.3617C104.068 36.301 104.308 36.2215 104.526 36.1231C104.744 36.0247 104.961 35.9206 105.176 35.8108C105.391 35.701 105.608 35.5969 105.825 35.4985C106.055 35.3975 106.301 35.3166 106.563 35.256C106.666 35.2323 106.77 35.2143 106.875 35.2019C106.981 35.1896 107.084 35.1958 107.186 35.2204C107.286 35.2335 107.374 35.2792 107.452 35.3574C107.528 35.4241 107.58 35.5203 107.609 35.6459C107.659 35.8628 107.622 36.064 107.496 36.2493C107.368 36.4233 107.19 36.5906 106.963 36.7514C106.746 36.9095 106.497 37.0514 106.213 37.177C105.927 37.2912 105.645 37.3984 105.367 37.4986C105.098 37.5847 104.844 37.6554 104.604 37.7107C104.378 37.7749 104.209 37.8201 104.094 37.8465C103.364 38.0152 102.681 38.0526 102.046 37.9587C101.408 37.8533 100.842 37.6413 100.347 37.3225C99.85 36.9923 99.4257 36.561 99.0743 36.0288C98.7317 35.4825 98.4774 34.8496 98.3113 34.1303ZM99.8698 32.5978C99.9621 32.9975 100.081 33.2768 100.226 33.4358C100.382 33.5921 100.671 33.6215 101.094 33.5239C101.391 33.4554 101.67 33.3368 101.932 33.1681C102.191 32.988 102.412 32.7746 102.596 32.5277C102.791 32.2783 102.926 32.0064 103.003 31.7122C103.079 31.4179 103.082 31.1166 103.011 30.8083C102.971 30.637 102.913 30.464 102.837 30.2892C102.772 30.1118 102.676 29.9594 102.551 29.8321C102.422 29.6933 102.274 29.5954 102.104 29.5383C101.943 29.4672 101.749 29.458 101.52 29.5107C101.178 29.5898 100.882 29.7422 100.634 29.968C100.394 30.1797 100.206 30.4335 100.07 30.7295C99.9311 31.0141 99.846 31.3225 99.8144 31.6545C99.7802 31.9751 99.7986 32.2895 99.8698 32.5978ZM115.121 32.9375C114.756 33.3345 114.441 33.6899 114.176 34.0035C113.921 34.303 113.663 34.567 113.403 34.7954C113.143 35.0238 112.851 35.2175 112.527 35.3765C112.214 35.5329 111.812 35.6677 111.322 35.7811C110.26 36.0262 109.407 35.9284 108.764 35.4875C108.119 35.0352 107.667 34.2496 107.408 33.1306C107.308 32.6967 107.261 32.2325 107.267 31.7379C107.273 31.2434 107.332 30.7428 107.443 30.2359C107.564 29.7151 107.731 29.2135 107.944 28.7313C108.155 28.2376 108.417 27.7861 108.732 27.3768C109.046 26.9674 109.399 26.6213 109.791 26.3384C110.191 26.0415 110.637 25.8364 111.128 25.723C111.969 25.6132 112.661 25.6697 113.206 25.8928C113.748 26.1044 114.198 26.4395 114.557 26.898C114.912 27.345 115.208 27.872 115.445 28.4789C115.678 29.0744 115.895 29.698 116.093 30.3498C116.303 30.9988 116.525 31.6453 116.757 32.2891C116.99 32.9329 117.297 33.5056 117.677 34.0071C117.616 34.4182 117.534 34.7137 117.431 34.8938C117.342 35.0827 117.206 35.1442 117.022 35.0783C116.839 35.0124 116.592 34.8047 116.283 34.4552C115.985 34.103 115.598 33.5971 115.121 32.9375ZM108.872 32.8287C109.022 33.4796 109.253 33.9315 109.564 34.1844C109.884 34.4233 110.357 34.4702 110.985 34.3252C111.454 34.2172 111.88 34.0344 112.266 33.777C112.66 33.5056 112.984 33.1902 113.238 32.8309C113.489 32.4602 113.665 32.047 113.764 31.5911C113.863 31.1352 113.855 30.6561 113.739 30.1537C113.691 29.9481 113.631 29.6614 113.558 29.2933C113.482 28.9139 113.374 28.5481 113.233 28.1958C113.091 27.8436 112.91 27.5547 112.69 27.329C112.467 27.0918 112.195 27.0102 111.875 27.084C111.282 27.2211 110.769 27.5017 110.338 27.926C109.904 28.3389 109.558 28.8216 109.301 29.3741C109.044 29.9266 108.878 30.512 108.805 31.1304C108.728 31.7374 108.751 32.3035 108.872 32.8287ZM115.831 26.0083C115.823 25.9741 115.822 25.9442 115.829 25.9187C115.823 25.8959 115.822 25.866 115.826 25.8292C115.858 25.7615 115.91 25.6715 115.98 25.559C116.05 25.4466 116.097 25.3878 116.12 25.3825L119.562 24.5877C119.533 24.4621 119.47 24.2662 119.373 24.0001C119.275 23.7339 119.171 23.4393 119.06 23.116C118.961 22.7902 118.876 22.4489 118.806 22.0923C118.733 21.7243 118.703 21.3883 118.717 21.0844C118.74 20.7665 118.822 20.495 118.962 20.2702C119.112 20.0312 119.358 19.8722 119.7 19.7932C119.966 20.9464 120.26 21.8529 120.581 22.5125C120.901 23.1721 121.236 23.66 121.586 23.9762C121.947 24.2897 122.312 24.464 122.681 24.4991C123.05 24.5342 123.41 24.5052 123.761 24.4121C124.121 24.3049 124.462 24.166 124.784 23.9956C125.105 23.8252 125.393 23.6925 125.648 23.5976C125.914 23.5001 126.138 23.4786 126.319 23.533C126.497 23.576 126.623 23.7574 126.697 24.0771C126.752 24.3169 126.735 24.5014 126.644 24.6305C126.565 24.757 126.378 24.8844 126.083 25.0126C125.994 25.0451 125.845 25.1036 125.636 25.1879C125.436 25.2582 125.207 25.3351 124.95 25.4185C124.692 25.502 124.419 25.5951 124.13 25.6979C123.839 25.7893 123.564 25.8767 123.307 25.9602C123.05 26.0437 122.814 26.1162 122.599 26.1777C122.382 26.2277 122.223 26.2647 122.12 26.2884C122.133 26.3455 122.15 26.4438 122.17 26.5835C122.19 26.7232 122.206 26.8158 122.216 26.8615C122.332 27.3639 122.525 27.8364 122.796 28.2791C123.064 28.7104 123.343 29.139 123.634 29.565C123.936 29.9883 124.221 30.4156 124.489 30.8468C124.757 31.2781 124.949 31.7449 125.065 32.2473C125.086 32.3387 125.097 32.4384 125.098 32.5464C125.108 32.6404 125.093 32.7339 125.055 32.827C125.025 32.9061 124.962 32.9746 124.868 33.0326C124.787 33.0994 124.654 33.124 124.47 33.1064C124.009 33.0924 123.627 32.922 123.323 32.5953C123.031 32.266 122.774 31.8562 122.552 31.3661C122.328 30.8646 122.132 30.3266 121.963 29.7522C121.795 29.1778 121.612 28.6486 121.416 28.1646C121.229 27.6666 121.015 27.2591 120.773 26.942C120.529 26.6135 120.221 26.4502 119.848 26.452L116.369 26.4615C116.323 26.4721 116.244 26.4422 116.132 26.3719C116.017 26.2903 115.942 26.2292 115.909 26.1888C115.892 26.1686 115.88 26.1414 115.872 26.1071C115.855 26.0869 115.842 26.054 115.831 26.0083ZM127.749 25.5841C127.733 25.5156 127.708 25.4071 127.674 25.2587C127.648 25.0962 127.616 24.9293 127.576 24.7581C127.548 24.5841 127.516 24.4173 127.479 24.2574C127.453 24.0949 127.433 23.9794 127.417 23.9109C127.5 23.6992 127.626 23.5139 127.794 23.3549C127.973 23.1932 128.157 23.0544 128.347 22.9385C128.523 23.5471 128.772 24.1813 129.093 24.8409C129.413 25.5005 129.747 26.1632 130.093 26.829C130.436 27.4833 130.756 28.1372 131.051 28.7907C131.358 29.4415 131.579 30.0638 131.717 30.6576C131.835 31.1714 131.632 31.489 131.107 31.6102C130.787 31.684 130.488 31.6147 130.211 31.4021C129.933 31.1896 129.68 30.8993 129.45 30.5313C129.23 30.1493 129.023 29.722 128.83 29.2494C128.634 28.7655 128.463 28.2876 128.318 27.816C128.185 27.3417 128.066 26.906 127.962 26.509C127.87 26.1094 127.799 25.8011 127.749 25.5841ZM126.506 19.1059C126.744 19.1472 126.961 19.2534 127.157 19.4247C127.353 19.596 127.459 19.7699 127.476 19.9464C127.501 20.1089 127.402 20.2521 127.178 20.376C126.951 20.4884 126.536 20.5122 125.932 20.4472C125.86 20.1389 125.856 19.8574 125.917 19.6027C125.99 19.3453 126.186 19.1797 126.506 19.1059ZM130.52 25.6298C130.452 25.3329 130.477 25.1046 130.597 24.9447C130.714 24.7734 130.938 24.6495 131.269 24.5731L131.44 24.5335C131.516 24.7083 131.605 24.9103 131.706 25.1396C131.807 25.3688 131.932 25.5985 132.082 25.8286C132.231 26.0587 132.394 26.2678 132.569 26.4557C132.742 26.6323 132.935 26.7622 133.146 26.8457C133.066 26.4434 133.074 26.0385 133.173 25.6309C133.28 25.2093 133.437 24.8241 133.646 24.4754C133.862 24.1126 134.114 23.7959 134.4 23.5254C134.695 23.2407 135.001 23.026 135.316 22.881L135.693 22.794C136.241 22.6675 136.738 22.685 137.184 22.8466C137.628 22.9967 138.021 23.2426 138.365 23.5843C138.717 23.9119 139.02 24.3111 139.273 24.7818C139.526 25.2526 139.747 25.7427 139.937 26.2521C140.135 26.7475 140.297 27.2394 140.422 27.7277C140.555 28.202 140.662 28.6105 140.741 28.953L139.491 29.2417C139.264 28.5724 139.027 27.9356 138.779 27.3313C138.687 27.088 138.58 26.8359 138.46 26.5751C138.337 26.3028 138.214 26.0547 138.09 25.8307C137.963 25.5953 137.836 25.3841 137.709 25.197C137.579 24.9985 137.445 24.8369 137.308 24.7122C137.252 24.6771 137.175 24.6288 137.076 24.5673C136.989 24.5032 136.897 24.4404 136.798 24.3789C136.7 24.3174 136.61 24.266 136.528 24.2248C136.447 24.1835 136.4 24.1642 136.389 24.1668C136.025 24.1545 135.744 24.2916 135.545 24.578C135.344 24.8529 135.19 25.2012 135.083 25.6228C134.976 26.0444 134.915 26.5095 134.9 27.0181C134.897 27.524 134.906 28.0089 134.929 28.4727C134.949 28.925 134.981 29.3207 135.023 29.6597C135.062 29.9874 135.084 30.1868 135.089 30.2579C134.851 30.5293 134.597 30.6541 134.327 30.6322C134.055 30.5988 133.773 30.4715 133.481 30.2501C133.201 30.0262 132.922 29.7298 132.645 29.3609C132.378 28.9894 132.118 28.5924 131.865 28.1699C131.608 27.736 131.363 27.2995 131.129 26.8603C130.907 26.4186 130.704 26.0084 130.52 25.6298ZM147.591 37.366C148.23 37.2184 148.774 36.9667 149.221 36.6109C149.67 36.2665 150.019 35.8493 150.267 35.3591C150.528 34.8778 150.69 34.3534 150.751 33.786C150.827 33.2273 150.8 32.6682 150.671 32.1087C150.605 31.8233 150.501 31.4504 150.358 30.9902C150.228 30.5273 150.07 30.0284 149.887 29.4935C149.703 28.9586 149.488 28.4189 149.242 27.8743C149.008 27.3271 148.752 26.8208 148.477 26.3553C148.198 25.8783 147.895 25.4792 147.569 25.1577C147.251 24.8222 146.919 24.6101 146.574 24.5214C146.33 24.8183 146.087 25.0968 145.847 25.3568C145.603 25.6054 145.342 25.8281 145.063 26.0249C144.783 26.2217 144.487 26.3982 144.175 26.5546C143.86 26.6996 143.513 26.8155 143.137 26.9025C142.646 27.0159 142.213 27.0678 141.838 27.0581C141.474 27.0459 141.147 26.9589 140.857 26.7974C140.579 26.6331 140.342 26.3872 140.146 26.0596C139.95 25.732 139.79 25.2999 139.666 24.7632C139.579 24.3864 139.586 23.9999 139.687 23.6038C139.785 23.1962 139.947 22.804 140.173 22.4271C140.408 22.0363 140.683 21.666 140.999 21.3164C141.327 20.9641 141.668 20.6448 142.023 20.3584C142.389 20.0694 142.754 19.8287 143.119 19.6363C143.495 19.4413 143.837 19.3082 144.145 19.237C144.442 19.1685 144.69 19.1232 144.89 19.1012C145.086 19.0678 145.262 19.0753 145.418 19.1236C145.571 19.1605 145.711 19.2483 145.84 19.3871C145.977 19.5118 146.121 19.6949 146.273 19.9364C146.741 20.7664 147.265 21.6557 147.845 22.6043C148.425 23.5529 148.994 24.5339 149.553 25.5475C150.112 26.5611 150.62 27.5922 151.079 28.6409C151.552 29.6984 151.907 30.741 152.144 31.7687C152.355 32.6821 152.401 33.4832 152.284 34.1718C152.18 34.8693 151.963 35.4666 151.633 35.9638C151.317 36.4697 150.915 36.8931 150.429 37.234C149.954 37.5722 149.454 37.8318 148.931 38.0128C148.41 38.2052 147.894 38.3423 147.384 38.424C146.874 38.5057 146.424 38.5374 146.035 38.519C145.649 38.512 145.344 38.4681 145.121 38.3873C144.909 38.3039 144.838 38.206 144.908 38.0935C144.993 37.9899 145.242 37.8721 145.657 37.7404C146.071 37.6086 146.716 37.4838 147.591 37.366ZM144.015 20.7825C143.212 21.1603 142.586 21.5754 142.137 22.0277C141.697 22.4661 141.39 22.904 141.214 23.3414C141.047 23.7648 140.996 24.1675 141.06 24.5496C141.121 24.9203 141.262 25.2185 141.483 25.4442C141.703 25.6699 141.978 25.817 142.306 25.8855C142.644 25.9399 142.993 25.8652 143.355 25.6614C143.714 25.4462 144.065 25.0886 144.407 24.5888C144.76 24.0864 145.068 23.3898 145.331 22.4991C145.286 22.305 145.238 22.0938 145.185 21.8654C145.144 21.6344 145.079 21.4328 144.991 21.2607C144.901 21.0771 144.778 20.937 144.624 20.8404C144.469 20.7438 144.266 20.7245 144.015 20.7825ZM17.3201 81.1742C16.9548 81.5713 16.6399 81.9266 16.3755 82.2402C16.12 82.5397 15.8622 82.8037 15.6022 83.0321C15.3423 83.2605 15.0502 83.4542 14.7261 83.6132C14.4134 83.7696 14.0116 83.9044 13.5206 84.0178C12.4587 84.263 11.6062 84.1651 10.9633 83.7242C10.3176 83.2719 9.86563 82.4863 9.60728 81.3673C9.50711 80.9334 9.46008 80.4692 9.46618 79.9747C9.47228 79.4801 9.53108 78.9795 9.64259 78.4727C9.76287 77.9518 9.92971 77.4502 10.1431 76.968C10.3539 76.4743 10.6165 76.0228 10.9309 75.6135C11.2453 75.2041 11.5983 74.858 11.9901 74.5752C12.3906 74.2782 12.8363 74.0731 13.3273 73.9597C14.1679 73.8499 14.8605 73.9065 15.4051 74.1295C15.947 74.3411 16.3972 74.6762 16.7557 75.1347C17.1114 75.5817 17.4075 76.1087 17.6438 76.7156C17.8775 77.3111 18.0937 77.9347 18.2922 78.5865C18.5022 79.2356 18.7236 79.882 18.9564 80.5258C19.1893 81.1696 19.4959 81.7423 19.8762 82.2438C19.8148 82.6549 19.7327 82.9505 19.6299 83.1305C19.5413 83.3194 19.4051 83.3809 19.2215 83.315C19.0379 83.2492 18.7915 83.0415 18.4823 82.6919C18.1845 82.3397 17.7971 81.8338 17.3201 81.1742ZM11.071 81.0654C11.2213 81.7163 11.4519 82.1682 11.7629 82.4211C12.0826 82.66 12.5565 82.7069 13.1845 82.562C13.6527 82.4539 14.0795 82.2711 14.4651 82.0137C14.8595 81.7423 15.1835 81.4269 15.4374 81.0677C15.6885 80.697 15.8637 80.2837 15.9629 79.8278C16.0621 79.3719 16.0538 78.8928 15.9378 78.3904C15.8903 78.1848 15.8301 77.8981 15.7572 77.53C15.6816 77.1506 15.5731 76.7848 15.4316 76.4326C15.2902 76.0804 15.1092 75.7914 14.8887 75.5657C14.6656 75.3285 14.3942 75.2469 14.0745 75.3207C13.4807 75.4578 12.9682 75.7385 12.537 76.1627C12.1031 76.5756 11.7575 77.0583 11.5002 77.6108C11.2429 78.1633 11.0774 78.7488 11.0037 79.3671C10.9273 79.9741 10.9498 80.5402 11.071 81.0654ZM34.933 81.1129C34.5904 80.723 34.1942 80.2311 33.7444 79.6374C33.3034 79.0296 32.8458 78.4016 32.3714 77.7535C31.8944 77.0939 31.4042 76.4553 30.9008 75.8379C30.4089 75.2178 29.9323 74.6904 29.4712 74.2557C29.3104 74.1845 29.1075 74.1652 28.8625 74.1978C28.6174 74.2303 28.3649 74.2826 28.1049 74.3546C27.8423 74.4153 27.5783 74.4702 27.3131 74.5194C27.0566 74.5545 26.8194 74.5432 26.6016 74.4852C26.3952 74.4246 26.2212 74.2964 26.0798 74.1005C25.9384 73.9047 25.8488 73.5946 25.8109 73.1704L28.6884 72.5061C28.5978 71.8535 28.5486 71.1973 28.5406 70.5377C28.5327 69.878 28.577 69.2364 28.6735 68.6127C28.7815 67.9865 28.9444 67.3896 29.1622 66.8222C29.3799 66.2547 29.682 65.74 30.0685 65.2779C30.4549 64.8159 30.927 64.4122 31.4847 64.067C32.0539 63.7191 32.7267 63.4555 33.5031 63.2763C33.7771 63.213 34.067 63.2182 34.3727 63.292C34.6757 63.3543 34.9608 63.4689 35.2278 63.6358C35.4948 63.8027 35.7228 64.0086 35.9117 64.2537C36.1119 64.4961 36.2437 64.7543 36.307 65.0283C36.09 65.0784 35.8867 65.0833 35.697 65.0429C35.5046 64.9911 35.3166 64.9322 35.133 64.8664C34.9468 64.7891 34.7518 64.7259 34.548 64.6767C34.3416 64.6161 34.1242 64.6122 33.8959 64.6649C33.2108 64.8231 32.603 65.1077 32.0725 65.5189C31.5534 65.9273 31.1239 66.4114 30.7841 66.9709C30.4556 67.5278 30.2356 68.1378 30.1241 68.801C30.0127 69.4642 30.0347 70.1326 30.1902 70.8063C30.2008 70.852 30.2205 70.9376 30.2495 71.0632C30.2873 71.1748 30.322 71.299 30.3536 71.4361C30.3853 71.5731 30.4156 71.7044 30.4446 71.83C30.485 71.953 30.5105 72.0373 30.521 72.083C30.9751 72.1224 31.4727 72.1158 32.0138 72.0631C32.5549 72.0103 33.0907 71.9347 33.6212 71.8363C34.1605 71.7238 34.673 71.5995 35.1587 71.4633C35.6558 71.3245 36.0946 71.1931 36.4749 71.0692C36.517 71.0956 36.5943 71.1439 36.7068 71.2141C36.8192 71.2844 36.8864 71.341 36.9084 71.3841C36.9163 71.4183 36.9273 71.4398 36.9413 71.4486C36.98 71.5119 36.9993 71.5435 36.9993 71.5435C37.0547 71.7833 36.9726 72.0007 36.753 72.1957C36.5334 72.3907 36.2374 72.5673 35.865 72.7254C35.49 72.8721 35.0653 73.0123 34.591 73.1458C34.1281 73.2768 33.6767 73.405 33.2366 73.5307C32.8053 73.6423 32.4167 73.7561 32.0706 73.872C31.7333 73.974 31.5054 74.0807 31.3869 74.1923C31.6935 74.8431 32.109 75.4447 32.6334 75.9972C33.1693 76.547 33.7108 77.0954 34.2581 77.6426C34.8054 78.1898 35.3083 78.7532 35.7668 79.3329C36.2254 79.9125 36.5337 80.5449 36.6919 81.23C36.6462 81.2406 36.5378 81.2656 36.3665 81.3052C36.2093 81.3535 36.0367 81.3873 35.8487 81.4067C35.6607 81.426 35.4719 81.4155 35.2822 81.3751C35.1065 81.3435 34.9901 81.2561 34.933 81.1129ZM37.3241 71.3061C37.3004 71.2034 37.2823 71.0993 37.27 70.9939C37.2551 70.8771 37.2555 70.7747 37.2713 70.6869C37.2845 70.5876 37.3187 70.5016 37.3741 70.4287C37.4408 70.3531 37.5427 70.2995 37.6797 70.2679C37.7939 70.2415 37.9406 70.3039 38.1198 70.4549C38.3078 70.5919 38.5076 70.7803 38.7193 71.0201C38.9284 71.2485 39.1384 71.5067 39.3492 71.7948C39.5714 72.0802 39.7656 72.3481 39.9316 72.5984C40.1064 72.8347 40.2505 73.0419 40.3638 73.2202C40.4771 73.3985 40.5408 73.4921 40.5549 73.5008C40.6111 73.0669 40.6765 72.5948 40.7511 72.0845C40.8257 71.5741 40.9482 71.0888 41.1185 70.6286C41.2977 70.1542 41.5383 69.7379 41.8404 69.3795C42.154 69.0184 42.5791 68.776 43.1157 68.6521C43.3898 68.5888 43.6572 68.5752 43.9181 68.6112C44.1878 68.6331 44.4337 68.7086 44.6559 68.8377C44.887 68.9527 45.0859 69.1113 45.2528 69.3133C45.4197 69.5153 45.5375 69.7647 45.606 70.0616C45.664 70.3128 45.6021 70.5135 45.4203 70.6637C45.2499 70.8113 45.0391 70.9141 44.7879 70.9721L44.6166 71.0116L43.7101 70.4452C43.6873 70.4505 43.6688 70.4487 43.6548 70.4399C43.6319 70.4452 43.6091 70.4505 43.5863 70.4557C43.5722 70.447 43.5538 70.4452 43.5309 70.4505C43.1313 70.5427 42.8436 70.7294 42.668 71.0105C42.5011 71.2775 42.3988 71.5898 42.3611 71.9473C42.3207 72.2934 42.3256 72.6531 42.3757 73.0264C42.4346 73.3856 42.4983 73.7137 42.5668 74.0105C42.6195 74.2389 42.6964 74.4677 42.7974 74.697C42.8958 74.9148 43 75.1313 43.1098 75.3465C43.2169 75.5502 43.3211 75.7668 43.4221 75.996C43.5205 76.2138 43.5987 76.4483 43.6567 76.6995C43.7674 77.1791 43.5658 77.4782 43.052 77.5968C42.7665 77.6627 42.4354 77.5828 42.0586 77.3571C41.6791 77.12 41.2812 76.803 40.8648 76.406C40.4598 76.0064 40.0557 75.5584 39.6525 75.0622C39.2467 74.5546 38.879 74.0561 38.5496 73.5669C38.2202 73.0777 37.9426 72.6306 37.7168 72.2257C37.5024 71.8182 37.3715 71.5117 37.3241 71.3061ZM45.9362 71.8796C45.7939 71.263 45.7258 70.6293 45.7318 69.9784C45.7379 69.3276 45.8442 68.7197 46.0505 68.1549C46.2683 67.5875 46.5985 67.0903 47.0412 66.6634C47.4952 66.2338 48.0934 65.9334 48.8356 65.762C49.258 65.6645 49.6476 65.6587 50.0042 65.7448C50.3582 65.8194 50.6727 65.9573 50.9476 66.1584C51.2226 66.3595 51.451 66.6195 51.6328 66.9383C51.8234 67.2431 51.9609 67.5782 52.0453 67.9436C52.1797 68.5259 52.1732 69.1227 52.0257 69.7341C51.8896 70.3428 51.642 70.9111 51.2828 71.4391C50.9323 71.9529 50.491 72.3856 49.9588 72.737C49.4239 73.0769 48.8407 73.2597 48.2091 73.2852C48.297 73.6137 48.4674 73.857 48.7204 74.0151C48.9822 74.1591 49.2733 74.2482 49.5939 74.2825C49.9145 74.3167 50.2387 74.314 50.5663 74.2745C50.8913 74.2235 51.1794 74.169 51.4306 74.111C51.6932 74.0504 51.9334 73.9709 52.1512 73.8725C52.3691 73.7741 52.5856 73.67 52.8008 73.5601C53.0159 73.4503 53.2325 73.3462 53.4503 73.2478C53.6795 73.1468 53.9255 73.066 54.1881 73.0053C54.2908 72.9816 54.3949 72.9636 54.5003 72.9513C54.6057 72.939 54.7094 72.9451 54.8113 72.9697C54.9105 72.9829 54.9992 73.0285 55.0774 73.1067C55.153 73.1734 55.2052 73.2696 55.2342 73.3952C55.2843 73.6122 55.2466 73.8133 55.121 73.9987C54.9928 74.1726 54.8149 74.3399 54.5874 74.5007C54.3714 74.6588 54.1215 74.8007 53.8378 74.9263C53.5515 75.0405 53.2695 75.1477 52.992 75.2479C52.7232 75.334 52.4689 75.4047 52.2291 75.4601C52.0034 75.5242 51.8334 75.5695 51.7193 75.5958C50.9885 75.7646 50.3056 75.8019 49.6705 75.708C49.0328 75.6027 48.4667 75.3906 47.9721 75.0718C47.475 74.7416 47.0507 74.3104 46.6993 73.7781C46.3567 73.2318 46.1023 72.599 45.9362 71.8796ZM47.4947 70.3472C47.587 70.7468 47.7056 71.0261 47.8506 71.1851C48.0069 71.3414 48.2963 71.3708 48.7188 71.2733C49.0157 71.2047 49.295 71.0861 49.5567 70.9175C49.8158 70.7374 50.0372 70.5239 50.2207 70.2771C50.4157 70.0276 50.5514 69.7558 50.6278 69.4615C50.7041 69.1672 50.7068 68.866 50.6356 68.5577C50.596 68.3864 50.538 68.2134 50.4616 68.0386C50.3966 67.8611 50.3013 67.7088 50.1757 67.5814C50.0474 67.4426 49.8985 67.3447 49.729 67.2876C49.5682 67.2165 49.3737 67.2073 49.1453 67.26C48.8028 67.3391 48.5072 67.4915 48.2587 67.7173C48.0189 67.929 47.8309 68.1829 47.6948 68.4789C47.5561 68.7635 47.4709 69.0718 47.4393 69.4038C47.4051 69.7244 47.4236 70.0389 47.4947 70.3472ZM54.7919 69.8351C54.6495 69.2185 54.5814 68.5848 54.5875 67.9339C54.5936 67.2831 54.6998 66.6752 54.9062 66.1104C55.124 65.543 55.4542 65.0458 55.8968 64.6189C56.3509 64.1893 56.949 63.8889 57.6912 63.7175C58.1137 63.62 58.5033 63.6142 58.8599 63.7003C59.2139 63.7749 59.5283 63.9128 59.8033 64.1139C60.0782 64.315 60.3066 64.575 60.4885 64.8938C60.6791 65.1986 60.8166 65.5337 60.9009 65.8991C61.0354 66.4814 61.0289 67.0783 60.8813 67.6896C60.7453 68.2983 60.4976 68.8666 60.1384 69.3946C59.788 69.9084 59.3467 70.3411 58.8144 70.6925C58.2795 71.0324 57.6963 71.2152 57.0648 71.2407C57.1526 71.5692 57.3231 71.8125 57.5761 71.9706C57.8378 72.1146 58.129 72.2037 58.4496 72.238C58.7702 72.2722 59.0943 72.2695 59.4219 72.23C59.7469 72.179 60.035 72.1245 60.2862 72.0665C60.5489 72.0059 60.7891 71.9264 61.0069 71.828C61.2247 71.7296 61.4412 71.6255 61.6564 71.5157C61.8716 71.4058 62.0881 71.3017 62.3059 71.2033C62.5352 71.1023 62.7811 71.0215 63.0437 70.9608C63.1465 70.9371 63.2506 70.9191 63.356 70.9068C63.4614 70.8945 63.565 70.9006 63.6669 70.9252C63.7662 70.9384 63.8549 70.984 63.9331 71.0622C64.0086 71.129 64.0609 71.2251 64.0899 71.3507C64.14 71.5677 64.1022 71.7688 63.9766 71.9542C63.8484 72.1281 63.6706 72.2954 63.4431 72.4562C63.227 72.6143 62.9771 72.7562 62.6934 72.8818C62.4071 72.9961 62.1252 73.1032 61.8476 73.2034C61.5788 73.2895 61.3246 73.3602 61.0848 73.4156C60.8591 73.4797 60.6891 73.525 60.5749 73.5514C59.8441 73.7201 59.1612 73.7575 58.5262 73.6635C57.8885 73.5582 57.3223 73.3461 56.8278 73.0273C56.3306 72.6971 55.9063 72.2659 55.5549 71.7336C55.2123 71.1873 54.958 70.5545 54.7919 69.8351ZM56.3504 68.3027C56.4427 68.7023 56.5613 68.9816 56.7062 69.1406C56.8626 69.2969 57.152 69.3263 57.5745 69.2288C57.8714 69.1603 58.1507 69.0417 58.4124 68.873C58.6715 68.6929 58.8928 68.4794 59.0764 68.2326C59.2713 67.9831 59.407 67.7113 59.4834 67.417C59.5598 67.1227 59.5624 66.8215 59.4912 66.5132C59.4517 66.3419 59.3937 66.1689 59.3173 65.9941C59.2523 65.8167 59.1569 65.6643 59.0313 65.5369C58.9031 65.3982 58.7542 65.3002 58.5847 65.2432C58.4239 65.172 58.2293 65.1628 58.001 65.2155C57.6584 65.2946 57.3629 65.447 57.1143 65.6728C56.8745 65.8845 56.6866 66.1384 56.5505 66.4344C56.4117 66.719 56.3266 67.0273 56.295 67.3593C56.2607 67.6799 56.2792 67.9944 56.3504 68.3027ZM78.7959 66.9814C78.4305 67.3785 78.1157 67.7338 77.8513 68.0474C77.5957 68.3469 77.3379 68.6109 77.078 68.8393C76.818 69.0677 76.526 69.2614 76.2019 69.4204C75.8892 69.5768 75.4874 69.7117 74.9964 69.825C73.9345 70.0702 73.082 69.9723 72.439 69.5314C71.7934 69.0791 71.3414 68.2935 71.083 67.1745C70.9829 66.7406 70.9358 66.2764 70.9419 65.7819C70.948 65.2874 71.0068 64.7867 71.1183 64.2799C71.2386 63.759 71.4055 63.2574 71.6189 62.7752C71.8296 62.2815 72.0922 61.83 72.4066 61.4207C72.721 61.0113 73.0741 60.6652 73.4658 60.3824C73.8663 60.0854 74.3121 59.8803 74.8031 59.767C75.6436 59.6571 76.3362 59.7137 76.8808 59.9367C77.4228 60.1484 77.873 60.4834 78.2314 60.9419C78.5872 61.3889 78.8832 61.9159 79.1196 62.5228C79.3533 63.1183 79.5694 63.742 79.768 64.3937C79.978 65.0428 80.1994 65.6892 80.4322 66.333C80.665 66.9768 80.9716 67.5495 81.352 68.051C81.2905 68.4621 81.2084 68.7577 81.1057 68.9377C81.017 69.1266 80.8809 69.1881 80.6973 69.1222C80.5137 69.0564 80.2673 68.8487 79.9581 68.4991C79.6603 68.1469 79.2729 67.641 78.7959 66.9814ZM72.5468 66.8726C72.697 67.5235 72.9277 67.9754 73.2386 68.2283C73.5584 68.4672 74.0322 68.5141 74.6603 68.3692C75.1284 68.2611 75.5553 68.0783 75.9408 67.8209C76.3352 67.5495 76.6593 67.2341 76.9131 66.8749C77.1643 66.5042 77.3395 66.0909 77.4387 65.635C77.5379 65.1791 77.5295 64.7 77.4135 64.1976C77.3661 63.9921 77.3059 63.7053 77.2329 63.3372C77.1574 62.9578 77.0488 62.592 76.9074 62.2398C76.7659 61.8876 76.585 61.5986 76.3645 61.3729C76.1414 61.1357 75.8699 61.0541 75.5502 61.1279C74.9565 61.265 74.444 61.5457 74.0127 61.9699C73.5789 62.3828 73.2333 62.8655 72.976 63.418C72.7187 63.9705 72.5532 64.556 72.4794 65.1743C72.4031 65.7813 72.4255 66.3474 72.5468 66.8726ZM80.343 63.5213C80.2323 63.0417 80.2191 62.5155 80.3033 61.9428C80.399 61.3675 80.5751 60.8277 80.8315 60.3235C81.0853 59.8079 81.4076 59.3547 81.7985 58.9638C82.2007 58.5702 82.6588 58.3141 83.1726 58.1955C83.4352 58.1349 83.7084 58.1199 83.9921 58.1506C84.2758 58.1813 84.5402 58.2586 84.7853 58.3824C85.0418 58.5036 85.2605 58.6696 85.4414 58.8804C85.6338 59.0886 85.7643 59.3411 85.8328 59.638C85.6273 59.6854 85.4336 59.7061 85.2518 59.6999C85.0814 59.6912 84.9097 59.6767 84.7366 59.6565C84.561 59.6249 84.3879 59.6047 84.2175 59.5959C84.0585 59.5845 83.8877 59.5999 83.705 59.6421C83.2368 59.7502 82.882 59.9584 82.6405 60.2667C82.4078 60.561 82.2466 60.9049 82.1571 61.2984C82.0675 61.6919 82.0359 62.1021 82.0623 62.529C82.0975 62.9418 82.1559 63.3252 82.2376 63.6792C82.2508 63.7363 82.2759 63.8447 82.3128 64.0046C82.3611 64.1618 82.4064 64.3318 82.4485 64.5145C82.4995 64.6831 82.5434 64.8474 82.5803 65.0072C82.6287 65.1644 82.6651 65.2703 82.6897 65.3247C82.8786 65.5698 83.0472 65.7533 83.1957 65.8754C83.3556 65.9949 83.5132 66.0787 83.6687 66.127C83.8216 66.1639 83.9805 66.1753 84.1457 66.1612C84.3082 66.1358 84.4979 66.098 84.7148 66.0479C85.0117 65.9793 85.2581 65.8743 85.4539 65.7329C85.6612 65.5888 85.8474 65.4316 86.0125 65.2612C86.1777 65.0908 86.3287 64.9116 86.4657 64.7236C86.6001 64.5242 86.7441 64.3406 86.8978 64.1728C87.0603 63.991 87.2408 63.8351 87.4393 63.705C87.6466 63.561 87.8929 63.456 88.1784 63.3901C88.3076 63.9496 88.3195 64.47 88.2141 64.9514C88.1202 65.4301 87.9261 65.8658 87.6319 66.2584C87.3491 66.6484 86.982 66.9857 86.5305 67.2704C86.0879 67.541 85.5811 67.7421 85.0101 67.874C84.4735 67.9979 83.946 67.9272 83.4278 67.662C82.9209 67.3941 82.4527 67.0332 82.0232 66.5791C81.6024 66.111 81.2435 65.5985 80.9466 65.0416C80.6497 64.4848 80.4485 63.978 80.343 63.5213ZM87.7257 61.8168C87.615 61.3373 87.6018 60.8111 87.686 60.2384C87.7817 59.6631 87.9578 59.1233 88.2142 58.6191C88.468 58.1035 88.7903 57.6502 89.1811 57.2593C89.5834 56.8658 90.0414 56.6097 90.5553 56.4911C90.8179 56.4304 91.0911 56.4155 91.3748 56.4462C91.6585 56.4769 91.9229 56.5542 92.1679 56.678C92.4244 56.7992 92.6432 56.9652 92.8241 57.176C93.0165 57.3841 93.147 57.6367 93.2155 57.9335C93.01 57.981 92.8163 58.0016 92.6345 57.9955C92.4641 57.9867 92.2924 57.9723 92.1193 57.9521C91.9436 57.9205 91.7706 57.9003 91.6002 57.8915C91.4412 57.8801 91.2704 57.8955 91.0877 57.9377C90.6195 58.0458 90.2647 58.254 90.0232 58.5623C89.7904 58.8566 89.6293 59.2005 89.5397 59.594C89.4502 59.9875 89.4186 60.3977 89.445 60.8246C89.4802 61.2374 89.5386 61.6208 89.6203 61.9748C89.6335 62.0318 89.6586 62.1403 89.6955 62.3002C89.7438 62.4574 89.789 62.6274 89.8312 62.8101C89.8822 62.9787 89.9261 63.1429 89.963 63.3028C90.0113 63.46 90.0478 63.5659 90.0724 63.6203C90.2613 63.8654 90.4299 64.0489 90.5784 64.171C90.7383 64.2904 90.8959 64.3743 91.0514 64.4226C91.2042 64.4595 91.3632 64.4709 91.5284 64.4568C91.6908 64.4313 91.8806 64.3935 92.0975 64.3435C92.3944 64.2749 92.6408 64.1699 92.8366 64.0285C93.0439 63.8844 93.2301 63.7272 93.3952 63.5568C93.5603 63.3863 93.7114 63.2071 93.8484 63.0192C93.9828 62.8198 94.1268 62.6362 94.2805 62.4684C94.443 62.2866 94.6235 62.1306 94.822 62.0006C95.0292 61.8565 95.2756 61.7516 95.5611 61.6857C95.6902 62.2452 95.7021 62.7656 95.5968 63.2469C95.5029 63.7256 95.3088 64.1613 95.0146 64.554C94.7318 64.944 94.3646 65.2813 93.9132 65.566C93.4705 65.8365 92.9637 66.0377 92.3928 66.1695C91.8562 66.2934 91.3287 66.2228 90.8104 65.9576C90.3036 65.6897 89.8354 65.3287 89.4058 64.8747C88.9851 64.4065 88.6262 63.8941 88.3293 63.3372C88.0323 62.7804 87.8311 62.2736 87.7257 61.8168ZM95.8384 61.7118C95.675 61.0039 95.689 60.3091 95.8804 59.6275C96.0692 58.9344 96.3818 58.309 96.8183 57.7512C97.2636 57.1794 97.7941 56.6901 98.4098 56.2833C99.0369 55.874 99.6987 55.5889 100.395 55.4281C100.783 55.3384 101.155 55.385 101.51 55.5676C101.876 55.7476 102.204 55.9966 102.494 56.3146C102.781 56.6211 103.023 56.9623 103.218 57.3382C103.424 57.7115 103.561 58.0466 103.63 58.3435C103.778 58.9829 103.767 59.6408 103.599 60.3171C103.427 60.9821 103.15 61.6053 102.767 62.1868C102.382 62.7569 101.914 63.2558 101.363 63.6837C100.812 64.1115 100.229 64.3965 99.6121 64.5389C99.0641 64.6654 98.5805 64.6808 98.1615 64.5851C97.7399 64.478 97.3793 64.2967 97.0798 64.0411C96.7776 63.7741 96.5207 63.4426 96.3089 63.0464C96.106 62.6363 95.9492 62.1914 95.8384 61.7118ZM97.3338 61.547C97.4024 61.8439 97.4858 62.1012 97.5842 62.319C97.6914 62.5228 97.8263 62.6901 97.9888 62.821C98.1627 62.9492 98.3687 63.0339 98.6067 63.0752C98.8421 63.1051 99.1197 63.0831 99.4394 63.0093C99.8619 62.9117 100.258 62.7 100.628 62.3741C100.995 62.0368 101.303 61.6529 101.553 61.2225C101.811 60.778 101.993 60.3151 102.098 59.8337C102.203 59.3524 102.208 58.9062 102.114 58.4951C102.071 58.3124 102.008 58.1166 101.924 57.9075C101.839 57.6985 101.736 57.5118 101.614 57.3476C101.492 57.1834 101.342 57.0556 101.165 56.9642C100.987 56.8729 100.784 56.8536 100.556 56.9063C100.351 56.9538 100.121 57.079 99.8671 57.2819C99.6246 57.4822 99.3743 57.7264 99.1161 58.0145C98.8693 58.3 98.6291 58.614 98.3955 58.9566C98.1733 59.2966 97.974 59.6312 97.7975 59.9606C97.6209 60.29 97.4875 60.5975 97.397 60.8829C97.318 61.1658 97.2969 61.3871 97.3338 61.547ZM103.13 56.3302C103.114 56.2616 103.086 56.1418 103.047 55.9705C103.016 55.7851 102.978 55.5954 102.933 55.4013C102.889 55.2072 102.848 55.0302 102.811 54.8704C102.783 54.6964 102.761 54.5752 102.745 54.5067C102.793 54.3513 102.854 54.1989 102.928 54.0495C103.011 53.8861 103.104 53.7684 103.207 53.6964C103.32 53.6103 103.448 53.5686 103.593 53.5712C103.75 53.5712 103.925 53.6511 104.118 53.8109L104.149 53.948L104.201 54.1706C104.203 54.2303 104.211 54.3726 104.227 54.5975C104.24 54.8109 104.253 55.0485 104.265 55.3103C104.278 55.572 104.286 55.8167 104.291 56.0441C104.304 56.2576 104.317 56.3929 104.33 56.4499C104.38 56.6669 104.466 56.9357 104.588 57.2563C104.708 57.5654 104.849 57.8878 105.01 58.2233C105.183 58.5562 105.373 58.8851 105.581 59.2101C105.799 59.5324 106.033 59.8152 106.282 60.0585C106.528 60.2904 106.78 60.4726 107.039 60.6052C107.31 60.7352 107.594 60.7659 107.891 60.6973C108.256 60.613 108.553 60.4421 108.782 60.1847C109.023 59.9247 109.211 59.6168 109.345 59.2611C109.479 58.9053 109.564 58.5189 109.6 58.1016C109.648 57.6818 109.667 57.2685 109.657 56.8618C109.645 56.4437 109.613 56.048 109.563 55.6747C109.513 55.3014 109.457 54.9778 109.393 54.7037C109.33 54.4297 109.248 54.178 109.147 53.9488C109.055 53.7055 108.952 53.4706 108.84 53.244C108.727 53.0173 108.622 52.7951 108.524 52.5773C108.434 52.3454 108.361 52.1096 108.306 51.8698C108.256 51.6529 108.295 51.4816 108.422 51.356C108.561 51.2277 108.727 51.1412 108.921 51.0964C109.161 51.041 109.372 51.0704 109.555 51.1846C109.735 51.2873 109.89 51.438 110.02 51.6364C110.162 51.8323 110.277 52.0703 110.365 52.3505C110.463 52.6167 110.543 52.8867 110.607 53.1608C110.67 53.4348 110.725 53.6988 110.771 53.9526C110.815 54.195 110.854 54.3905 110.889 54.5389C110.978 54.9271 111.051 55.3733 111.108 55.8775C111.164 56.3817 111.178 56.9135 111.151 57.473C111.133 58.0185 111.073 58.5675 110.972 59.12C110.883 59.6698 110.73 60.1802 110.514 60.651C110.306 61.1077 110.031 61.5022 109.686 61.8342C109.354 62.1636 108.942 62.385 108.451 62.4984C107.937 62.617 107.458 62.6012 107.015 62.4511C106.568 62.2895 106.162 62.0405 105.796 61.7041C105.438 61.3537 105.109 60.9427 104.807 60.471C104.506 59.9994 104.245 59.5185 104.023 59.0284C103.813 58.5357 103.63 58.0548 103.474 57.5857C103.326 57.1027 103.212 56.6841 103.13 56.3302ZM111.513 55.6757C111.444 55.3788 111.47 55.1505 111.589 54.9906C111.706 54.8193 111.93 54.6954 112.261 54.619L112.432 54.5794C112.509 54.7542 112.597 54.9562 112.698 55.1855C112.799 55.4147 112.925 55.6444 113.074 55.8745C113.223 56.1046 113.386 56.3137 113.562 56.5016C113.735 56.6782 113.927 56.8081 114.139 56.8916C114.058 56.4893 114.067 56.0844 114.165 55.6768C114.272 55.2552 114.43 54.87 114.638 54.5213C114.855 54.1585 115.106 53.8418 115.393 53.5712C115.688 53.2866 115.993 53.0718 116.308 52.9269L116.685 52.8399C117.233 52.7134 117.73 52.7309 118.176 52.8925C118.62 53.0426 119.014 53.2885 119.357 53.6302C119.709 53.9578 120.012 54.3569 120.265 54.8277C120.518 55.2985 120.739 55.7886 120.929 56.298C121.128 56.7934 121.289 57.2853 121.414 57.7736C121.548 58.2479 121.654 58.6563 121.733 58.9989L120.483 59.2876C120.256 58.6183 120.019 57.9815 119.771 57.3772C119.679 57.1339 119.573 56.8818 119.452 56.621C119.329 56.3487 119.206 56.1006 119.082 55.8766C118.955 55.6412 118.828 55.43 118.701 55.2429C118.571 55.0444 118.438 54.8828 118.301 54.7581C118.244 54.7229 118.167 54.6746 118.069 54.6132C117.982 54.5491 117.889 54.4863 117.791 54.4248C117.692 54.3633 117.602 54.3119 117.52 54.2707C117.439 54.2294 117.392 54.2101 117.381 54.2127C117.017 54.2004 116.736 54.3375 116.538 54.6238C116.337 54.8988 116.182 55.2471 116.075 55.6687C115.968 56.0903 115.907 56.5554 115.892 57.064C115.889 57.5699 115.899 58.0548 115.921 58.5185C115.942 58.9709 115.973 59.3666 116.015 59.7056C116.055 60.0333 116.077 60.2326 116.081 60.3038C115.843 60.5752 115.589 60.7 115.319 60.678C115.047 60.6447 114.765 60.5174 114.474 60.296C114.193 60.0721 113.914 59.7757 113.637 59.4068C113.371 59.0353 113.111 58.6383 112.857 58.2158C112.6 57.7819 112.355 57.3454 112.121 56.9062C111.899 56.4644 111.696 56.0543 111.513 55.6757ZM119.691 50.7749C119.683 50.7406 119.682 50.7108 119.688 50.6853C119.683 50.6624 119.682 50.6326 119.686 50.5957C119.718 50.5281 119.769 50.438 119.84 50.3256C119.91 50.2131 119.956 50.1543 119.979 50.149L123.422 49.3542C123.393 49.2286 123.33 49.0327 123.232 48.7666C123.135 48.5005 123.031 48.2058 122.92 47.8826C122.821 47.5567 122.736 47.2155 122.665 46.8589C122.593 46.4909 122.563 46.1549 122.577 45.851C122.6 45.533 122.682 45.2616 122.822 45.0367C122.971 44.7978 123.217 44.6388 123.56 44.5597C123.826 45.7129 124.12 46.6194 124.44 47.279C124.761 47.9386 125.096 48.4265 125.446 48.7427C125.807 49.0562 126.172 49.2306 126.541 49.2657C126.909 49.3007 127.27 49.2717 127.621 49.1786C127.981 49.0714 128.322 48.9326 128.643 48.7622C128.965 48.5917 129.253 48.4591 129.508 48.3642C129.774 48.2667 129.997 48.2451 130.178 48.2996C130.356 48.3426 130.483 48.5239 130.556 48.8437C130.612 49.0834 130.594 49.2679 130.504 49.397C130.425 49.5235 130.238 49.6509 129.942 49.7792C129.854 49.8117 129.705 49.8701 129.496 49.9544C129.296 50.0247 129.067 50.1016 128.809 50.1851C128.552 50.2685 128.279 50.3617 127.99 50.4645C127.698 50.5558 127.424 50.6433 127.167 50.7267C126.909 50.8102 126.673 50.8827 126.459 50.9442C126.242 50.9943 126.082 51.0312 125.979 51.0549C125.993 51.112 126.009 51.2104 126.03 51.35C126.05 51.4897 126.065 51.5824 126.076 51.628C126.192 52.1304 126.385 52.603 126.656 53.0457C126.923 53.4769 127.203 53.9055 127.494 54.3315C127.796 54.7548 128.081 55.1821 128.349 55.6134C128.617 56.0446 128.809 56.5114 128.925 57.0139C128.946 57.1052 128.957 57.2049 128.958 57.3129C128.967 57.4069 128.953 57.5005 128.914 57.5936C128.884 57.6726 128.822 57.7411 128.727 57.7991C128.646 57.8659 128.514 57.8905 128.329 57.8729C127.869 57.8589 127.487 57.6886 127.183 57.3618C126.89 57.0325 126.633 56.6228 126.412 56.1327C126.188 55.6311 125.992 55.0932 125.823 54.5187C125.654 53.9443 125.472 53.4151 125.276 52.9312C125.089 52.4331 124.875 52.0256 124.633 51.7085C124.389 51.3801 124.08 51.2167 123.708 51.2185L120.228 51.2281C120.183 51.2386 120.104 51.2087 119.991 51.1385C119.876 51.0568 119.802 50.9958 119.769 50.9554C119.752 50.9352 119.74 50.9079 119.732 50.8737C119.715 50.8535 119.701 50.8205 119.691 50.7749Z" fill="#BCBCBC"/>
<path d="M117.982 62.5684C119.649 68.9017 125.382 81.9684 134.982 83.5684C146.982 85.5684 158.982 69.5684 172.482 76.5684C183.282 82.1684 195.982 86.235 200.982 87.5684" stroke="#BCBCBC" stroke-width="2" stroke-linecap="round" stroke-dasharray="6 6"/>
<g clip-path="url(#clip0_217_3735)">
<path d="M208.364 82.3207L224.611 95.664L203.587 95.6315L209.969 90.4092L208.364 82.3207Z" stroke="#BCBCBC" stroke-width="2" stroke-linecap="round" stroke-linejoin="round"/>
</g>
<defs>
<clipPath id="clip0_217_3735">
<rect width="24" height="24" fill="white" transform="translate(217.033 74.9141) rotate(64.7424)"/>
</clipPath>
</defs>
</svg>
