<svg width="315" height="513" viewBox="0 0 315 513" fill="none" xmlns="http://www.w3.org/2000/svg">
<path opacity="0.6" d="M-77.8564 -5.22728L-77.8559 -5.22679L44.8657 117.795C79.1204 152.137 79.1204 207.863 44.8657 242.205L-77.8559 365.227L-77.8564 365.227C-111.381 398.788 -111.381 453.25 -77.8564 486.811L-77.8559 486.812C-44.3565 520.396 9.95038 520.396 43.4497 486.812L288.893 240.792C322.369 207.231 322.369 152.769 288.893 119.208L43.4498 -126.811L44.1577 -127.518L43.4497 -126.812C9.95041 -160.396 -44.3565 -160.396 -77.8559 -126.812L-77.8564 -126.811C-111.381 -93.2499 -111.381 -38.7884 -77.8564 -5.22728ZM-78.5639 487.518C-112.479 453.566 -112.479 398.472 -78.5639 364.521V487.518Z" fill="url(#paint0_linear_257_1377)" stroke="white" stroke-width="2"/>
<defs>
<linearGradient id="paint0_linear_257_1377" x1="290.353" y1="261.43" x2="-31.1616" y2="348.323" gradientUnits="userSpaceOnUse">
<stop stop-color="#C4D5FF"/>
<stop offset="1" stop-color="#C3D5FF" stop-opacity="0"/>
</linearGradient>
</defs>
</svg>
