<svg width="658" height="767" viewBox="0 0 658 767" fill="none" xmlns="http://www.w3.org/2000/svg">
<path d="M295.67 188.278C317.886 176.084 343.081 201.28 330.888 223.496L270.804 332.965C266.952 339.984 266.592 348.479 269.819 356.014L318.994 470.856C328.03 491.959 307.37 512.62 286.266 503.583L171.425 454.408C163.89 451.182 155.394 451.541 148.375 455.394L38.9063 515.477C16.6907 527.671 -8.50513 502.475 3.68828 480.259L63.7721 370.791C67.6246 363.771 67.9839 355.276 64.7574 347.741L15.5825 232.899C6.54605 211.796 27.2065 191.136 48.3099 200.172L163.152 249.347C170.686 252.573 179.182 252.214 186.201 248.362L295.67 188.278Z" fill="url(#paint0_linear_1113_860)" stroke="white"/>
<path d="M628.491 622.302C645.17 613.438 664.101 632.369 655.237 649.048L637.74 681.969C634.864 687.38 634.704 693.916 637.291 699.689L655.039 739.303C662.276 755.456 646.457 771.276 630.304 764.039L590.69 746.29C584.916 743.703 578.38 743.864 572.969 746.74L540.049 764.236C523.37 773.101 504.438 754.169 513.303 737.49L530.799 704.57C533.675 699.159 533.836 692.623 531.249 686.849L513.5 647.235C506.263 631.082 522.083 615.263 538.236 622.5L577.85 640.248C583.623 642.835 590.159 642.675 595.571 639.799L628.491 622.302Z" fill="url(#paint1_linear_1113_860)" stroke="white"/>
<path d="M589.822 112.289C601.236 106.557 613.508 110.218 621.513 118.224C629.519 126.23 633.181 138.501 627.449 149.915L533.003 337.993C529.264 345.439 529.32 354.443 533.129 362.388L625.859 555.805C636.826 578.679 614.661 600.843 591.787 589.877L398.37 497.147C390.425 493.337 381.421 493.281 373.976 497.02L185.898 591.467C174.484 597.198 162.213 593.537 154.207 585.531C146.201 577.525 142.539 565.254 148.271 553.84L242.717 365.762C246.456 358.316 246.4 349.313 242.591 341.367L149.861 147.95C138.894 125.076 161.059 102.912 183.933 113.878L377.35 206.609C385.295 210.418 394.299 210.474 401.744 206.735L589.822 112.289Z" fill="url(#paint2_linear_1113_860)" stroke="white"/>
<defs>
<linearGradient id="paint0_linear_1113_860" x1="19.681" y1="392.785" x2="252.248" y2="492.692" gradientUnits="userSpaceOnUse">
<stop stop-color="#C4D5FF"/>
<stop offset="1" stop-color="#C3D5FF" stop-opacity="0"/>
</linearGradient>
<linearGradient id="paint1_linear_1113_860" x1="519.213" y1="711.299" x2="621.715" y2="755.332" gradientUnits="userSpaceOnUse">
<stop stop-color="#C4D5FF"/>
<stop offset="1" stop-color="#C3D5FF" stop-opacity="0"/>
</linearGradient>
<linearGradient id="paint2_linear_1113_860" x1="173.556" y1="411.27" x2="511.209" y2="556.319" gradientUnits="userSpaceOnUse">
<stop stop-color="#C4D5FF"/>
<stop offset="1" stop-color="#C3D5FF" stop-opacity="0"/>
</linearGradient>
</defs>
</svg>
