<svg width="459" height="614" viewBox="0 0 459 614" fill="none" xmlns="http://www.w3.org/2000/svg">
  <path d="M430.781 44.8409L430.781 44.8411L296.344 180.054C259.052 217.566 259.052 278.434 296.344 315.946L430.781 451.159L431.136 450.806L430.781 451.159C467.74 488.28 467.74 548.519 430.781 585.64L431.136 585.992L430.781 585.64C393.851 622.787 333.983 622.787 297.053 585.64L28.1783 315.241C-8.7261 278.119 -8.7261 217.881 28.1783 180.759L297.053 -89.6399C333.983 -126.787 393.851 -126.787 430.781 -89.64L430.781 -89.6397C467.74 -52.5187 467.74 7.71978 430.781 44.8409Z" fill="url(#paint0_linear_227_4051)" stroke="white">
    <animateTransform attributeName="transform" type="translate" from="-0.5 -0.5" to="40 40"  dur="5s" fill="freeze"/>
  </path>
  <defs>
    <linearGradient id="paint0_linear_227_4051" x1="27" y1="337.5" x2="379.366" y2="432.416" gradientUnits="userSpaceOnUse">
      <stop stop-color="#C4D5FF"/>
      <stop offset="1" stop-color="#C3D5FF" stop-opacity="0"/>
    </linearGradient>
  </defs>
</svg>
