<svg width="161" height="161" viewBox="0 0 161 161" fill="none" xmlns="http://www.w3.org/2000/svg">
<path d="M158.023 32.2403L138.92 68.1832C135.787 74.0784 135.612 81.1997 138.431 87.4908L157.809 130.742C165.728 148.416 148.416 165.728 130.742 157.809L87.4908 138.431C81.1997 135.612 74.0784 135.787 68.1832 138.92L32.2403 158.023C13.99 167.723 -6.72278 147.01 2.97687 128.76L22.0797 92.8168C25.2129 86.9216 25.3879 79.8003 22.5692 73.5092L3.19118 30.2583C-4.72754 12.5841 12.584 -4.72752 30.2582 3.19119L73.5092 22.5693C79.8003 25.3879 86.9216 25.2129 92.8168 22.0798L128.76 2.97687C147.01 -6.72278 167.723 13.99 158.023 32.2403Z" fill="url(#paint0_linear_1105_1708)" stroke="white"/>
<defs>
<linearGradient id="paint0_linear_1105_1708" x1="9.47059" y1="100.185" x2="121.383" y2="148.261" gradientUnits="userSpaceOnUse">
<stop stop-color="#C4D5FF"/>
<stop offset="1" stop-color="#C3D5FF" stop-opacity="0"/>
</linearGradient>
</defs>
</svg>
