<svg width="383" height="295" viewBox="0 0 383 295" fill="none" xmlns="http://www.w3.org/2000/svg">
<path d="M180.031 48.0927C193.38 40.7675 208.525 55.9103 201.198 69.2556L164.633 135.863C162.259 140.188 162.038 145.421 164.025 150.059L193.952 219.936C199.381 232.614 186.972 245.021 174.291 239.592L104.402 209.671C99.7626 207.685 94.5291 207.905 90.2032 210.279L23.5832 246.837C10.2347 254.163 -4.91002 239.02 2.41614 225.674L38.9816 159.067C41.356 154.742 41.5762 149.509 39.5896 144.871L9.663 74.9944C4.23332 62.3165 16.6423 49.9093 29.3232 55.3382L99.2128 85.2592C103.852 87.2453 109.085 87.0252 113.411 84.6513L180.031 48.0927Z" fill="url(#paint0_linear_1023_7508)" stroke="white"/>
<path d="M358.236 2.17263C365.078 -1.26263 372.443 0.925469 377.259 5.74069C382.075 10.5559 384.264 17.919 380.828 24.7597L323.46 138.98C321.159 143.56 321.197 149.092 323.535 153.968L379.861 271.43C386.442 285.154 373.154 298.44 359.427 291.86L241.942 235.545C237.065 233.207 231.532 233.17 226.951 235.47L112.71 292.827C105.868 296.263 98.5031 294.075 93.687 289.259C88.8708 284.444 86.6824 277.081 90.1182 270.24L147.487 156.02C149.787 151.44 149.75 145.908 147.411 141.032L91.0854 23.5695C84.5045 9.84583 97.7925 -3.44036 111.519 3.13955L229.004 59.455C233.881 61.7927 239.414 61.83 243.995 59.5301L358.236 2.17263Z" fill="url(#paint1_linear_1023_7508)" stroke="white"/>
<defs>
<linearGradient id="paint0_linear_1023_7508" x1="11.9773" y1="172.356" x2="153.504" y2="233.164" gradientUnits="userSpaceOnUse">
<stop stop-color="#C4D5FF"/>
<stop offset="1" stop-color="#C3D5FF" stop-opacity="0"/>
</linearGradient>
<linearGradient id="paint1_linear_1023_7508" x1="105.302" y1="183.569" x2="310.385" y2="271.686" gradientUnits="userSpaceOnUse">
<stop stop-color="#C4D5FF"/>
<stop offset="1" stop-color="#C3D5FF" stop-opacity="0"/>
</linearGradient>
</defs>
</svg>
