<svg width="46" height="46" viewBox="0 0 46 46" fill="none" xmlns="http://www.w3.org/2000/svg">
<path d="M43.7713 32.0434L43.8088 30.5998C43.8264 29.9113 44.0578 29.2439 44.4723 28.6853L45.3352 27.5222C45.989 26.6412 46.173 25.5111 45.8318 24.4771L45.3797 23.1048C45.1646 22.4534 45.1558 21.7533 45.3542 21.097L45.7701 19.7207C46.0859 18.6753 45.8703 17.5461 45.1901 16.6805L44.2887 15.5342C43.8644 14.9946 43.6155 14.345 43.5728 13.6674L43.4824 12.2411C43.4133 11.1452 42.8073 10.1485 41.8531 9.56156L40.6002 8.79025C40.0179 8.43187 39.557 7.91525 39.2742 7.30442L38.6691 5.99802C38.2036 4.99229 37.267 4.26651 36.1546 4.04922L34.7108 3.76703C34.0343 3.63495 33.413 3.31217 32.9238 2.83929L31.8796 1.82951C31.0747 1.05188 29.9336 0.699364 28.8153 0.882385L27.3617 1.1204C26.6824 1.23175 25.9846 1.14655 25.3545 0.875622L23.9982 0.29229C22.9657 -0.151745 21.7764 -0.0868263 20.8013 0.466301L19.5322 1.18667C18.9295 1.52928 18.2353 1.68931 17.5385 1.64693L16.0574 1.55677C14.9388 1.48825 13.8538 1.94265 13.1361 2.77933L12.1912 3.88063C11.7401 4.40671 11.1373 4.78853 10.4604 4.97742L9.03627 5.37502C7.96279 5.67479 7.09921 6.45197 6.71011 7.46986L6.19562 8.81459C5.94868 9.46058 5.50699 10.0187 4.92847 10.4158L3.71534 11.2489C2.80799 11.8728 2.25669 12.8763 2.22869 13.9559L2.19141 15.3994C2.1736 16.0882 1.94214 16.7558 1.52777 17.3143L0.664698 18.4774C0.0113475 19.3583 -0.173051 20.4884 0.168022 21.5225L0.620698 22.8943C0.835607 23.5461 0.844369 24.2456 0.645966 24.9024L0.23006 26.2787C-0.0857429 27.3241 0.129722 28.4535 0.810336 29.3191L1.71119 30.4655C2.13535 31.0048 2.38457 31.6547 2.42737 32.3322L2.51746 33.7584C2.58678 34.8541 3.19283 35.8509 4.14673 36.4382L5.39988 37.2097C5.98192 37.5678 6.44313 38.0845 6.72587 38.6952L7.33072 40.0016C7.79661 41.0074 8.73276 41.7331 9.84504 41.9504L11.2892 42.2326C11.9653 42.3649 12.5869 42.6875 13.0761 43.1603L14.1205 44.1699C14.9251 44.9477 16.0661 45.3005 17.1851 45.1173L18.6378 44.8791C19.3171 44.7679 20.0154 44.8531 20.6455 45.1241L22.0012 45.7075C23.0343 46.1518 24.2236 46.087 25.1987 45.5333L26.4673 44.8127C27.0705 44.4704 27.7641 44.3103 28.461 44.3529L29.9424 44.4431C31.0613 44.511 32.1458 44.057 32.864 43.2204L33.8089 42.1187C34.2596 41.5932 34.8624 41.2113 35.5393 41.0222L36.9637 40.6247C38.0376 40.325 38.9009 39.5474 39.2899 38.5295L39.8041 37.1848C40.0513 36.5392 40.4931 35.981 41.0713 35.5837L42.2847 34.7503C43.1921 34.127 43.7434 33.1234 43.7713 32.0434Z" fill="url(#paint0_linear_1314_785)"/>
<path d="M28.7851 3.88301L28.8336 3.56618C29.2017 3.61935 29.5542 3.73303 29.8823 3.90333C29.9268 3.92624 29.9708 3.95088 30.013 3.97508L29.8445 4.25041C29.8068 4.22837 29.7672 4.20633 29.7272 4.18558C29.4324 4.033 29.1154 3.93099 28.7851 3.88301ZM33.9738 6.60956L34.0387 6.29532L34.2956 6.34546C34.6055 6.40597 34.9042 6.51014 35.183 6.65494L35.2159 6.67266L35.0581 6.95319L35.0278 6.93762C34.7775 6.80752 34.509 6.71373 34.2307 6.65969L33.9738 6.60956ZM31.3054 5.5428L30.4576 4.72285L30.6897 4.49549L31.5375 5.31544L31.3054 5.5428ZM36.3256 8.30306L36.3118 8.2728C36.1602 7.94517 35.9486 7.65254 35.6836 7.40271L35.9134 7.17319C36.2082 7.45112 36.4434 7.77703 36.6119 8.14097L36.6261 8.17165L36.3256 8.30306ZM32.0799 6.10341C32.0501 6.08784 32.0207 6.07186 31.9914 6.05543L32.1554 5.77794C32.4275 5.93052 32.7245 6.03901 33.0326 6.09908L33.23 6.13755L33.1651 6.45135L32.9677 6.41289C32.6578 6.35238 32.3591 6.24821 32.0799 6.10341ZM26.8348 4.0611L26.7801 3.74556L27.8173 3.5757C27.8666 3.56748 27.9173 3.56057 27.9675 3.55452L28.0071 3.87221C27.9618 3.87783 27.9164 3.88388 27.872 3.89123L26.8348 4.0611ZM37.2601 10.0839C37.0924 9.87899 36.9511 9.65379 36.8408 9.4152L36.6643 9.0344L36.9644 8.903L37.1409 9.28337C37.24 9.49819 37.3672 9.70047 37.5175 9.88417L37.2601 10.0839ZM24.7622 3.87826L24.8942 3.58521C25.2427 3.73346 25.6122 3.81342 25.9923 3.82207L25.9843 4.14235C25.5611 4.13241 25.1498 4.04381 24.7622 3.87826ZM38.901 11.2997L38.0621 10.7837C38.002 10.7465 37.9425 10.7076 37.8851 10.6665L38.0794 10.408C38.131 10.4444 38.1843 10.4802 38.2386 10.5131L39.077 11.0292L38.901 11.2997ZM22.9225 3.16983L22.983 2.85516C23.2288 2.89968 23.4698 2.9723 23.6992 3.07085L24.1406 3.26059L24.0073 3.55365L23.5658 3.3639C23.36 3.27486 23.1435 3.21002 22.9225 3.16983ZM40.224 12.6228C40.0595 12.2896 39.8324 11.9948 39.5501 11.7471L39.7706 11.5098C40.0849 11.7851 40.3374 12.1128 40.521 12.4836L40.224 12.6228ZM21.0637 3.43133L20.9139 3.14649C21.2909 2.95933 21.6959 2.84695 22.1178 2.81237L22.1454 3.13136C21.7662 3.16248 21.4021 3.26319 21.0637 3.43133ZM40.5575 14.4819L40.5063 13.6762C40.4997 13.5642 40.4854 13.4518 40.465 13.3425L40.7886 13.2846C40.8118 13.4069 40.8273 13.5322 40.8353 13.6563L40.886 14.462L40.5575 14.4819ZM19.2739 4.38139L19.1623 4.08055C19.329 4.02176 19.4913 3.94828 19.6442 3.8614L20.191 3.55106L20.3573 3.82726L19.81 4.13803C19.6398 4.23442 19.4593 4.31655 19.2739 4.38139ZM41.0923 16.4312C40.8638 16.085 40.7091 15.7038 40.6326 15.2992L40.9563 15.2413C41.0252 15.6048 41.1643 15.9471 41.3697 16.2583L41.0923 16.4312ZM17.2097 4.51494L17.2302 4.19552L17.994 4.2422C18.1295 4.25042 18.2665 4.24955 18.4016 4.23918L18.427 4.5586C18.2767 4.56984 18.1242 4.5707 17.9735 4.56162L17.2097 4.51494ZM42.2753 18.0085C42.2046 17.8818 42.1228 17.7599 42.033 17.6454L41.5924 17.0852L41.8543 16.8907L42.2949 17.4509C42.3949 17.5784 42.4856 17.7141 42.5643 17.8546L42.2753 18.0085ZM15.3056 4.72458L15.1713 4.43239C15.5577 4.26382 15.968 4.17175 16.3913 4.15878L16.4019 4.47864C16.0218 4.49074 15.6533 4.5733 15.3056 4.72458ZM42.5954 19.8079C42.655 19.4426 42.6407 19.0748 42.5536 18.7147L42.8741 18.6413C42.9715 19.0424 42.9866 19.4517 42.9204 19.858L42.5954 19.8079ZM13.8615 5.9599L13.6085 5.75459L14.0074 5.28994C14.1362 5.13952 14.2801 5.00034 14.435 4.87629L14.6444 5.12353C14.5053 5.23505 14.376 5.35996 14.2603 5.49482L13.8615 5.9599ZM42.0686 21.6998C42.089 21.5874 42.1166 21.4746 42.1495 21.3652L42.3922 20.563L42.7079 20.6529L42.4656 21.4555C42.4358 21.5541 42.4113 21.6552 42.3927 21.7559L42.0686 21.6998ZM12.313 7.29638L12.1739 7.00591C12.5187 6.84988 12.8245 6.63333 13.0827 6.36145L13.3244 6.5793C13.0372 6.88143 12.6969 7.12262 12.313 7.29638ZM42.3327 23.6997L42.173 23.2152C42.1006 22.9969 42.0535 22.77 42.0317 22.5413L42.3598 22.5124C42.3789 22.7172 42.422 22.9208 42.4865 23.1175L42.6465 23.602L42.3327 23.6997ZM10.3739 7.88681L10.2583 7.58684C10.3384 7.55745 10.4207 7.53108 10.5033 7.50817L11.4174 7.25315L11.5083 7.56091L10.5942 7.81593C10.5201 7.83667 10.446 7.86045 10.3739 7.88681ZM42.6945 25.549C42.731 25.181 42.6932 24.8149 42.5834 24.4609L42.8986 24.3684C43.0213 24.7621 43.0626 25.1702 43.0222 25.5797L42.6945 25.549ZM8.92262 9.04564L8.64258 8.87706C8.86554 8.52739 9.15233 8.22741 9.49515 7.98579L9.68858 8.24514C9.38053 8.46212 9.12281 8.7314 8.92262 9.04564ZM42.1953 27.4318L41.9285 27.2445L42.1575 26.9353C42.234 26.8326 42.3033 26.7241 42.3647 26.6124C42.4225 26.5073 42.474 26.3974 42.5176 26.2859L42.8252 26.3998C42.7768 26.5239 42.7194 26.6462 42.6554 26.7633C42.5869 26.8873 42.5096 27.0083 42.4247 27.1226L42.1953 27.4318ZM7.86889 10.7167C7.88339 10.6825 7.89717 10.6488 7.91041 10.6142L8.2855 9.63305L8.59431 9.74499L8.21922 10.7257C8.20446 10.7638 8.18894 10.8022 8.17294 10.8394L7.86889 10.7167ZM40.8993 28.9862C40.9634 28.7522 41.0554 28.5254 41.1723 28.3118C41.2408 28.1877 41.3181 28.0668 41.403 27.9524L41.4457 27.8948L41.7129 28.0821L41.6702 28.1398C41.5938 28.2425 41.5244 28.351 41.4631 28.4626C41.3577 28.6543 41.275 28.8582 41.2177 29.0684L40.8993 28.9862ZM6.81014 12.3669L6.61994 12.105L6.86171 11.9395C7.09417 11.7795 7.30086 11.588 7.47602 11.3698L7.73574 11.5669C7.54057 11.8098 7.31059 12.0229 7.05163 12.201L6.81014 12.3669ZM40.7584 30.9965L40.7589 30.978L40.7886 29.8165L41.1181 29.8245L41.0874 31.006L40.7584 30.9965ZM5.30952 13.5854L5.0425 13.3978C5.25243 13.1151 5.50744 12.8692 5.80068 12.6678L5.94632 12.5679L6.13652 12.8294L5.99087 12.9293C5.72737 13.1104 5.49815 13.3312 5.30952 13.5854ZM40.3512 32.909L40.0969 32.7056C40.2187 32.5615 40.3263 32.4051 40.4165 32.2406C40.5037 32.0818 40.5757 31.9144 40.6299 31.7426L40.9447 31.837C40.8842 32.0282 40.8042 32.2148 40.7068 32.3915C40.6068 32.5744 40.4868 32.7486 40.3512 32.909ZM4.42668 15.3329L4.43117 15.1618C4.4402 14.8121 4.50848 14.4689 4.63412 14.1408L4.94265 14.2528C4.82982 14.5471 4.76847 14.8557 4.76047 15.17L4.75598 15.3411L4.42668 15.3329ZM38.7396 34.1529L38.5498 33.8913L39.5265 33.2203L39.7163 33.4819L38.7396 34.1529ZM4.25427 17.2356C4.34283 16.9733 4.39138 16.7005 4.3984 16.4243L4.40592 16.1347L4.73521 16.1429L4.7277 16.4321C4.7197 16.7394 4.66564 17.0433 4.56708 17.3355L4.25427 17.2356ZM37.2738 35.4919L37.3001 35.4228C37.3507 35.291 37.4108 35.1613 37.4788 35.037C37.5957 34.8243 37.738 34.6244 37.9016 34.4429L38.1492 34.6543C38.002 34.8171 37.8745 34.9968 37.7695 35.1878C37.7082 35.2995 37.6539 35.416 37.6086 35.5345L37.5824 35.6033L37.2738 35.4919ZM3.48778 19.0432L3.22082 18.8561L3.84913 18.0089C3.87167 17.9782 3.89368 17.9475 3.91471 17.9164L4.18919 18.0936C4.16567 18.1282 4.1414 18.1628 4.11637 18.1961L3.48778 19.0432ZM36.7626 37.438L36.4945 37.2524C36.5656 37.1548 36.6319 37.0514 36.6897 36.9456C36.751 36.8341 36.8053 36.7174 36.8502 36.5989L36.9862 36.2434L37.2952 36.3551L37.1591 36.7103C37.1085 36.8426 37.0484 36.9723 36.9804 37.0964C36.9155 37.2142 36.8422 37.3292 36.7626 37.438ZM2.48438 20.7493C2.50065 20.3378 2.5977 19.9393 2.77286 19.5645L3.07264 19.6972C2.91526 20.0335 2.82794 20.3918 2.81341 20.7614L2.48438 20.7493ZM35.0665 38.6262L34.9705 38.3199C35.3342 38.2121 35.668 38.0389 35.9623 37.8051L36.1708 38.053C35.8427 38.3133 35.4715 38.5063 35.0665 38.6262ZM2.92677 22.7099L2.637 21.8312C2.6105 21.7512 2.58721 21.6695 2.56742 21.5874L2.888 21.5143C2.90574 21.5882 2.92677 21.6617 2.95056 21.7339L3.24033 22.6122L2.92677 22.7099ZM33.1806 39.2235L33.0228 38.9425C33.2309 38.8323 33.4518 38.7442 33.6794 38.6805L34.18 38.5408L34.2712 38.8486L33.7701 38.9882C33.5656 39.0454 33.3674 39.1247 33.1806 39.2235ZM3.09242 24.5512C3.18049 24.1916 3.19552 23.8238 3.1367 23.4585L3.46226 23.4092C3.52757 23.816 3.51108 24.2249 3.41296 24.6251L3.09242 24.5512ZM31.7856 40.5396L31.5326 40.3345L32.0848 39.6908C32.1599 39.6037 32.2404 39.5196 32.3244 39.4407L32.5529 39.6714C32.4773 39.7422 32.4048 39.8176 32.3377 39.8959L31.7856 40.5396ZM2.57494 26.4699C2.59499 26.2762 2.63375 26.0835 2.69004 25.8967L2.86622 25.3135L3.18227 25.4038L3.00608 25.9869C2.95531 26.1546 2.9205 26.328 2.9025 26.5017L2.57494 26.4699ZM30.158 41.7923L30.0424 41.4924C30.3989 41.3627 30.7212 41.1698 31 40.9187L31.2241 41.1537C30.9133 41.4332 30.5545 41.6481 30.158 41.7923ZM3.04814 28.4497C2.8247 28.1004 2.67528 27.7174 2.6045 27.3116L2.92904 27.2581C2.99284 27.6226 3.12696 27.9666 3.32791 28.2804L3.04814 28.4497ZM28.0938 41.9413L28.1147 41.6218L28.8407 41.6661C28.9878 41.6751 29.1372 41.6731 29.2839 41.6603L29.3133 41.9792C29.1501 41.9933 28.9843 41.9955 28.8202 41.9855L28.0938 41.9413ZM4.23551 30.0292C4.16945 29.9148 4.09436 29.8041 4.01256 29.7L3.5466 29.1073L3.80836 28.9129L4.27401 29.5056C4.36511 29.6214 4.44869 29.7447 4.52253 29.872L4.23551 30.0292ZM26.1852 42.1346L26.0541 41.8408C26.4422 41.677 26.8539 41.5899 27.2776 41.5816L27.2842 41.9016C26.9037 41.9091 26.5338 41.9875 26.1852 42.1346ZM4.6439 31.8575L4.60509 31.2451C4.59406 31.0726 4.56681 30.8999 4.52351 30.7323L4.84307 30.6544C4.89113 30.8412 4.92162 31.0334 4.93389 31.2256L4.97244 31.838L4.6439 31.8575ZM24.4194 43.0876L24.2882 42.7937C24.3945 42.7492 24.499 42.6976 24.599 42.6409L25.3143 42.2349L25.4801 42.5115L24.7653 42.9173C24.6541 42.9806 24.5377 43.0377 24.4194 43.0876ZM5.08327 33.8252C4.8781 33.4651 4.74922 33.0751 4.69991 32.6664L5.02699 32.6292C5.07127 32.9963 5.18713 33.3466 5.37154 33.6702L5.08327 33.8252ZM22.3357 43.2511L22.4166 42.9407C22.7851 43.0314 23.163 43.0511 23.5396 42.9991L23.5858 43.3163C23.1666 43.3739 22.746 43.3521 22.3357 43.2511ZM6.59091 35.2109L6.1848 34.9611C5.9726 34.8304 5.77592 34.6755 5.60049 34.5008L5.83598 34.2772C5.99363 34.4339 6.1703 34.573 6.36098 34.6905L6.7671 34.9404L6.59091 35.2109ZM20.4538 42.4972L20.5663 42.1962C20.6338 42.2203 20.7014 42.2468 20.7672 42.275L21.6728 42.6648L21.5394 42.9574L20.6338 42.5677C20.5752 42.5424 20.5142 42.5185 20.4538 42.4972ZM8.10158 36.3943C7.88214 36.0921 7.60815 35.8384 7.28734 35.6396L7.46424 35.3695C7.82132 35.5907 8.12639 35.8731 8.37059 36.2094L8.10158 36.3943ZM18.547 42.4349L18.4919 42.1191L18.9178 42.0493C19.1823 42.006 19.4526 41.9948 19.7202 42.0159L19.6936 42.3351C19.453 42.3161 19.2103 42.3261 18.972 42.3651L18.547 42.4349ZM8.97166 38.1387C8.94912 38.0958 8.9276 38.0516 8.9071 38.0075L8.47445 37.0731L8.77471 36.9417L9.20737 37.8762C9.22587 37.9158 9.24516 37.9552 9.26544 37.9939L8.97166 38.1387ZM14.1065 40.954L13.9653 40.8177C13.7416 40.6017 13.4839 40.4224 13.2009 40.2866L13.3467 39.9996C13.6613 40.1506 13.9485 40.3502 14.1975 40.5905L14.3387 40.727L14.1065 40.954ZM11.2893 39.8159L11.3541 39.502L12.5267 39.7312L12.4619 40.045L11.2893 39.8159ZM16.4833 42.5468L16.5526 42.2337C16.9141 42.3093 17.2822 42.3173 17.6472 42.2575L17.6787 42.2524L17.7334 42.5682L17.7019 42.5733C17.296 42.6397 16.8856 42.631 16.4833 42.5468ZM10.3359 39.4938C10.0074 39.323 9.71361 39.1006 9.46309 38.8325L9.70685 38.6172C9.93203 38.858 10.1958 39.058 10.4911 39.2111C10.5296 39.2313 10.5696 39.251 10.6097 39.2694L10.4681 39.5585C10.4232 39.5378 10.379 39.5159 10.3359 39.4938ZM15.6368 42.2456C15.3581 42.1008 15.1033 41.9174 14.8786 41.7006L14.6912 41.5194L14.9235 41.2924L15.1109 41.4734C15.3123 41.6685 15.5417 41.8332 15.792 41.9631L15.82 41.9775L15.6679 42.2617L15.6368 42.2456Z" fill="white"/>
<path d="M18.7211 17.7079C18.5968 18.1564 18.3943 18.5633 18.1137 18.9295C17.7195 19.4189 17.1974 19.7538 16.546 19.9349C15.8947 20.116 15.2052 20.1053 14.4769 19.9032C13.7486 19.7008 13.1531 19.3591 12.6909 18.8782C12.2283 18.3973 11.9512 17.8397 11.8591 17.2059C11.8271 16.9269 11.8282 16.6373 11.8619 16.3375L11.8693 16.3106C11.8966 16.2121 11.9658 16.1782 12.0761 16.2089L14.0956 16.7703C14.1786 16.7932 14.2301 16.8559 14.2517 16.9581C14.2459 17.0149 14.2582 17.0957 14.2888 17.2004C14.3618 17.6167 14.5921 17.8784 14.9792 17.986C15.1731 18.04 15.3613 18.0416 15.5442 17.9907C15.7268 17.9404 15.8893 17.8383 16.0312 17.6845C16.1823 17.5337 16.2955 17.3234 16.3703 17.0546C16.4397 16.8037 16.4531 16.5756 16.4111 16.3707C16.391 16.1914 16.3184 16.0338 16.1923 15.8973C16.0663 15.7608 15.9066 15.6657 15.7127 15.6117C15.5007 15.553 15.2889 15.547 15.0772 15.5945C14.8652 15.6421 14.7059 15.7329 14.5994 15.8673C14.5469 15.9491 14.4743 15.9775 14.3822 15.9516L12.3218 15.3792C12.2753 15.3662 12.2403 15.34 12.217 15.2995C12.1933 15.2592 12.1879 15.2166 12.2002 15.1715L13.7347 9.64504C13.7468 9.6008 13.7735 9.56697 13.8149 9.54434C13.8556 9.52226 13.899 9.51719 13.945 9.52997L20.0028 11.2133C20.0484 11.2261 20.0835 11.2531 20.1071 11.2931C20.1305 11.3335 20.1363 11.376 20.1239 11.4207L19.6832 13.0077C19.6707 13.0525 19.644 13.0859 19.6029 13.1081C19.5619 13.1306 19.5184 13.1357 19.4728 13.1228L15.614 12.0505C15.568 12.0377 15.5388 12.0537 15.5263 12.0984L15.0896 13.6719C15.0821 13.6988 15.0861 13.7192 15.1024 13.7334C15.1182 13.7476 15.1379 13.7479 15.1616 13.7352C15.5989 13.625 16.0578 13.6365 16.537 13.7697C17.1917 13.9517 17.7232 14.2733 18.1314 14.7342C18.5397 15.1954 18.7773 15.7344 18.8443 16.3518C18.8816 16.8255 18.8404 17.2777 18.7211 17.7079Z" fill="white"/>
<path d="M23.5835 20.1106C23.8495 19.9581 24.0334 19.6973 24.1354 19.3298L25.1022 15.8474C25.2043 15.4799 25.1806 15.1619 25.0318 14.8935C24.883 14.6255 24.633 14.4424 24.283 14.3452C23.9417 14.2503 23.6405 14.2802 23.3795 14.4345C23.1177 14.589 22.9363 14.8496 22.8342 15.2172L21.8674 18.6995C21.7654 19.0671 21.7838 19.3841 21.9241 19.6494C22.0637 19.9153 22.3087 20.0966 22.6593 20.1941C23.0094 20.2916 23.3177 20.2639 23.5835 20.1106ZM19.8631 20.554C19.4148 19.8066 19.3291 18.9358 19.6051 17.9409L20.516 14.6599C20.7896 13.674 21.3093 12.983 22.0747 12.587C22.8398 12.1915 23.7525 12.1413 24.813 12.4358C25.873 12.7301 26.6333 13.2484 27.0928 13.9889C27.5524 14.7299 27.6469 15.5891 27.3757 16.5656L26.4648 19.8466C26.1888 20.8415 25.6611 21.5427 24.8833 21.949C24.1051 22.3558 23.1855 22.4116 22.1254 22.1169C21.0649 21.8223 20.3109 21.3015 19.8631 20.554Z" fill="white"/>
<path d="M35.6271 24.1431C35.8519 24.0126 36.0007 23.8172 36.0726 23.5569C36.1425 23.3062 36.1115 23.0681 35.9804 22.8436C35.8491 22.6186 35.659 22.4716 35.4099 22.4024C35.1517 22.3306 34.9061 22.3568 34.6735 22.4802C34.4404 22.6036 34.2887 22.7912 34.2194 23.0421C34.147 23.3021 34.1762 23.5468 34.3064 23.7756C34.4359 24.0051 34.6347 24.1568 34.9025 24.2309C35.1603 24.3028 35.4018 24.2737 35.6271 24.1431ZM33.4822 24.8935C33.1863 24.5993 32.9835 24.2557 32.8744 23.8631C32.7644 23.4706 32.7659 23.0728 32.878 22.6693C32.9875 22.2747 33.1901 21.9376 33.4864 21.6578C33.7823 21.3781 34.133 21.1885 34.5385 21.0886C34.9436 20.9887 35.3536 20.9965 35.7681 21.1116C36.1739 21.2243 36.5244 21.4281 36.82 21.7229C37.1155 22.0172 37.3183 22.3608 37.4279 22.7533C37.537 23.1459 37.5372 23.5392 37.4282 23.9337C37.3161 24.3372 37.112 24.6784 36.8158 24.9584C36.5195 25.2383 36.1713 25.4287 35.7708 25.5299C35.3703 25.6307 34.9623 25.6239 34.5474 25.5087C34.1329 25.3934 33.7774 25.1884 33.4822 24.8935ZM28.3553 23.6142C28.3466 23.5729 28.3638 23.5293 28.406 23.4832L36.1512 15.8159C36.217 15.757 36.296 15.7403 36.3884 15.7659L37.6469 16.1153C37.7109 16.1334 37.7477 16.1628 37.7565 16.2041C37.7648 16.2451 37.7474 16.2882 37.7053 16.3347L29.9743 24.0061C29.9081 24.0651 29.8295 24.0816 29.7372 24.0561L28.4648 23.7026C28.4004 23.6846 28.3636 23.6552 28.3553 23.6142ZM31.5971 17.3818C31.8256 17.257 31.9762 17.065 32.0481 16.8046C32.1175 16.5541 32.0873 16.3134 31.9574 16.084C31.8276 15.855 31.6334 15.7047 31.3751 15.6328C31.1173 15.5609 30.8734 15.59 30.6436 15.7193C30.4142 15.8485 30.2647 16.0388 30.1949 16.2899C30.1255 16.5409 30.1555 16.7807 30.2854 17.0101C30.4153 17.2395 30.6096 17.3899 30.8678 17.4617C31.1255 17.5332 31.369 17.5065 31.5971 17.3818ZM29.4435 18.1373C29.148 17.843 28.9452 17.4994 28.8356 17.1069C28.7265 16.7142 28.7276 16.3165 28.8397 15.913C28.9514 15.5096 29.155 15.1704 29.45 14.895C29.7445 14.6198 30.0947 14.4322 30.5002 14.3322C30.9049 14.2325 31.3149 14.2403 31.7298 14.3553C32.1448 14.4707 32.4999 14.6759 32.7958 14.9701C33.0914 15.2649 33.2938 15.6086 33.4032 16.0006C33.5129 16.3936 33.5131 16.7869 33.4032 17.1816C33.2914 17.5845 33.087 17.9262 32.7913 18.2064C32.4949 18.4857 32.1443 18.6758 31.7392 18.7756C31.3341 18.8754 30.9245 18.8675 30.5095 18.7521C30.0946 18.6371 29.7391 18.4321 29.4435 18.1373Z" fill="white"/>
<path d="M15.1552 30.1986C15.4712 30.0152 15.6881 29.7124 15.8056 29.2896L16.5058 26.767C16.621 26.353 16.5903 25.9834 16.4152 25.6591C16.2397 25.3345 15.9513 25.1166 15.5503 25.005C15.1577 24.896 14.8025 24.9352 14.4848 25.1226C14.1675 25.31 13.9513 25.6108 13.8361 26.0252L13.1359 28.5477C13.0184 28.9706 13.048 29.3418 13.2251 29.6621C13.401 29.9823 13.6862 30.1973 14.0788 30.3063C14.4802 30.4178 14.8387 30.3818 15.1552 30.1986ZM11.9223 31.1443C11.4817 30.7379 11.1857 30.2551 11.035 29.6967C10.8839 29.1384 10.8963 28.5423 11.072 27.9086L11.7489 25.4714C11.9203 24.854 12.2138 24.3468 12.63 23.9508C13.046 23.5545 13.5475 23.2959 14.1347 23.1742C14.722 23.0532 15.3538 23.0869 16.0309 23.2748C16.7075 23.4627 17.2684 23.7608 17.7132 24.1689C18.1579 24.577 18.4568 25.058 18.6086 25.6119C18.7606 26.1664 18.751 26.7522 18.58 27.3698L17.9031 29.807C17.7274 30.4408 17.4306 30.9576 17.0134 31.3582C16.5964 31.7584 16.092 32.019 15.5007 32.1387C14.9092 32.2587 14.2754 32.2247 13.5984 32.0369C12.9216 31.8486 12.3627 31.5511 11.9223 31.1443Z" fill="white"/>
<path d="M26.2217 28.0271C26.1841 28.0476 26.1447 28.0519 26.1032 28.0402L22.1801 26.9497C22.1382 26.9381 22.1118 26.9531 22.1005 26.9934L21.6845 28.4923C21.6729 28.5331 21.6881 28.5589 21.7301 28.5708L24.2494 29.2706C24.2913 29.2821 24.3228 29.3065 24.3444 29.3431C24.3655 29.3799 24.3704 29.4184 24.3591 29.4587L23.9635 30.8849C23.9522 30.9252 23.9282 30.9559 23.8909 30.976C23.8536 30.9965 23.8142 31.0008 23.7724 30.9892L21.253 30.2891C21.211 30.2771 21.1845 30.2921 21.1733 30.3328L20.2701 33.5864C20.2588 33.6272 20.2348 33.6575 20.1974 33.6776C20.1602 33.6981 20.1208 33.7023 20.0789 33.6908L18.2996 33.196C18.2578 33.1848 18.2259 33.1606 18.2047 33.1238C18.1833 33.0876 18.1784 33.049 18.1896 33.0083L20.4765 24.7703C20.4877 24.7296 20.5122 24.6991 20.549 24.6787C20.5862 24.6582 20.6256 24.654 20.6675 24.6656L26.5837 26.3094C26.6251 26.3211 26.6567 26.3454 26.6781 26.3817C26.6998 26.4187 26.7047 26.4573 26.6934 26.4976L26.2943 27.9355C26.2826 27.9763 26.2586 28.0066 26.2217 28.0271Z" fill="white"/>
<path d="M33.2021 29.969C33.1649 29.9894 33.1253 29.9937 33.0839 29.9823L29.1603 28.8922C29.1188 28.8804 29.0921 28.8949 29.0811 28.9357L28.6647 30.4345C28.6532 30.4749 28.6686 30.5012 28.7105 30.5125L31.2299 31.2129C31.2713 31.2243 31.3031 31.2484 31.3245 31.2851C31.3459 31.3217 31.3509 31.3604 31.3399 31.4007L30.9441 32.8266C30.9327 32.8673 30.9084 32.8977 30.8712 32.918C30.834 32.9384 30.7948 32.9427 30.7529 32.9311L28.2335 32.231C28.1915 32.2193 28.1654 32.2342 28.1539 32.2747L27.2508 35.5284C27.2395 35.5691 27.2151 35.5995 27.1779 35.6198C27.1407 35.6402 27.1016 35.6445 27.0596 35.6329L25.2802 35.1383C25.2382 35.1265 25.2065 35.1027 25.1851 35.0661C25.1637 35.0295 25.1588 34.991 25.1702 34.9502L27.4571 26.7119C27.4682 26.6716 27.492 26.6411 27.5296 26.6206C27.5668 26.6002 27.606 26.596 27.648 26.6077L33.5643 28.2514C33.6058 28.2632 33.6371 28.2875 33.659 28.324C33.6798 28.3603 33.6854 28.3993 33.6739 28.4398L33.2747 29.8777C33.2633 29.9186 33.2389 29.9487 33.2021 29.969Z" fill="white"/>
<defs>
<linearGradient id="paint0_linear_1314_785" x1="5.45124" y1="41.3116" x2="48.4768" y2="-1.76931" gradientUnits="userSpaceOnUse">
<stop stop-color="#00CDEE"/>
<stop offset="1" stop-color="#293FCC"/>
</linearGradient>
</defs>
</svg>
