<svg width="1620" height="1019" viewBox="0 0 1620 1019" fill="none" xmlns="http://www.w3.org/2000/svg">
<g clip-path="url(#clip0_257_1375)">
<rect width="1620" height="1019" fill="#F2F6FF"/>
<path opacity="0.6" d="M-77.8564 -5.22728L-77.8559 -5.22679L44.8657 117.795C79.1204 152.137 79.1204 207.863 44.8657 242.205L-77.8559 365.227L-77.8564 365.227C-111.381 398.788 -111.381 453.25 -77.8564 486.811L-77.8559 486.812C-44.3565 520.396 9.95038 520.396 43.4497 486.812L288.893 240.792C322.369 207.231 322.369 152.769 288.893 119.208L43.4498 -126.811L44.1577 -127.518L43.4497 -126.812C9.95041 -160.396 -44.3565 -160.396 -77.8559 -126.812L-77.8564 -126.811C-111.381 -93.2499 -111.381 -38.7884 -77.8564 -5.22728ZM-78.5639 487.518C-112.479 453.566 -112.479 398.472 -78.5639 364.521V487.518Z" fill="url(#paint0_linear_257_1375)" stroke="white" stroke-width="2"/>
<path opacity="0.6" d="M1694.04 684.289L1694.04 684.289L1581.86 796.967L1582.57 797.672L1581.86 796.967C1550.52 828.454 1550.52 879.546 1581.86 911.033L1694.04 1023.71L1694.04 1023.71C1724.65 1054.42 1724.65 1104.25 1694.04 1134.95L1694.04 1134.95C1663.45 1165.68 1613.87 1165.68 1583.28 1134.95L1358.93 909.622C1328.36 878.915 1328.36 829.085 1358.93 798.378L1583.28 573.045L1582.57 572.34L1583.28 573.045C1613.87 542.318 1663.45 542.318 1694.04 573.045L1694.04 573.046C1724.65 603.752 1724.65 653.582 1694.04 684.289Z" fill="url(#paint1_linear_257_1375)" stroke="white" stroke-width="2"/>
</g>
<defs>
<linearGradient id="paint0_linear_257_1375" x1="290.353" y1="261.43" x2="-31.1616" y2="348.323" gradientUnits="userSpaceOnUse">
<stop stop-color="#C4D5FF"/>
<stop offset="1" stop-color="#C3D5FF" stop-opacity="0"/>
</linearGradient>
<linearGradient id="paint1_linear_257_1375" x1="1357.53" y1="928.583" x2="1651.5" y2="1007.87" gradientUnits="userSpaceOnUse">
<stop stop-color="#C4D5FF"/>
<stop offset="1" stop-color="#C3D5FF" stop-opacity="0"/>
</linearGradient>
<clipPath id="clip0_257_1375">
<rect width="1620" height="1019" fill="white"/>
</clipPath>
</defs>
</svg>
