<svg width="300 " height="470" viewBox="0 0 300 470" fill="none" xmlns="http://www.w3.org/2000/svg">
<path opacity="0.6" d="M359.041 135.289L359.041 135.289L246.863 247.967L247.572 248.672L246.863 247.967C215.519 279.454 215.519 330.546 246.863 362.033L359.041 474.711L359.041 474.711C389.653 505.418 389.653 555.248 359.041 585.954L359.041 585.955C328.453 616.682 278.868 616.682 248.281 585.955L23.9255 360.622C-6.64182 329.915 -6.64182 280.085 23.9254 249.378L248.28 24.0452L247.572 23.3396L248.281 24.0451C278.868 -6.68169 328.453 -6.68169 359.041 24.0451L359.041 24.0456C389.653 54.7521 389.653 104.582 359.041 135.289Z" fill="url(#paint0_linear_257_1378)" stroke="white" stroke-width="2"/>
    <animateTransform attributeName="transform" type="scale" values="1 1; 0.9 0.9; 1 1" keyTimes="0; 0.6; 1" dur="10s" repeatCount="indefinite"  />

<defs>
<linearGradient id="paint0_linear_257_1378" x1="22.5294" y1="379.583" x2="316.5" y2="458.873" gradientUnits="userSpaceOnUse">
<stop stop-color="#C4D5FF"/>
<stop offset="1" stop-color="#C3D5FF" stop-opacity="0"/>
</linearGradient>
</defs>
</svg>
