<svg width="177" height="40" viewBox="0 0 177 40" fill="none" xmlns="http://www.w3.org/2000/svg">
<mask id="path-1-outside-1_283_1379" maskUnits="userSpaceOnUse" x="46" y="4" width="115" height="32" fill="black">
<rect fill="white" x="46" y="4" width="115" height="32"/>
<path d="M47.4199 28L53.7889 19.486L47.8159 11.5H50.9839L55.2409 17.737L59.4649 11.5H62.6329L56.6599 19.486L63.0619 28H59.8939L55.2409 21.268L50.5549 28H47.4199ZM71.4748 28.264C69.8028 28.264 68.3508 27.89 67.1188 27.142C65.8868 26.372 64.9408 25.338 64.2808 24.04C63.6208 22.742 63.2908 21.312 63.2908 19.75C63.2908 18.166 63.6208 16.736 64.2808 15.46C64.9408 14.162 65.8868 13.139 67.1188 12.391C68.3508 11.621 69.8028 11.236 71.4748 11.236C73.1688 11.236 74.6208 11.621 75.8308 12.391C77.0628 13.139 78.0088 14.162 78.6688 15.46C79.3288 16.736 79.6588 18.166 79.6588 19.75C79.6588 21.312 79.3288 22.742 78.6688 24.04C78.0088 25.338 77.0628 26.372 75.8308 27.142C74.6208 27.89 73.1688 28.264 71.4748 28.264ZM71.4748 26.02C72.7068 26.02 73.7408 25.734 74.5768 25.162C75.4348 24.59 76.0838 23.831 76.5238 22.885C76.9638 21.917 77.1838 20.872 77.1838 19.75C77.1838 18.606 76.9638 17.561 76.5238 16.615C76.0838 15.669 75.4348 14.91 74.5768 14.338C73.7408 13.766 72.7068 13.48 71.4748 13.48C70.2648 13.48 69.2308 13.766 68.3728 14.338C67.5148 14.91 66.8658 15.669 66.4258 16.615C65.9858 17.561 65.7658 18.606 65.7658 19.75C65.7658 20.872 65.9858 21.917 66.4258 22.885C66.8658 23.831 67.5148 24.59 68.3728 25.162C69.2308 25.734 70.2648 26.02 71.4748 26.02ZM89.7717 28.264C88.0997 28.264 86.6477 27.89 85.4157 27.142C84.1837 26.372 83.2377 25.338 82.5777 24.04C81.9177 22.742 81.5877 21.312 81.5877 19.75C81.5877 18.166 81.9177 16.736 82.5777 15.46C83.2377 14.162 84.1837 13.139 85.4157 12.391C86.6477 11.621 88.0997 11.236 89.7717 11.236C91.4657 11.236 92.9177 11.621 94.1277 12.391C95.3597 13.139 96.3057 14.162 96.9657 15.46C97.6257 16.736 97.9557 18.166 97.9557 19.75C97.9557 21.312 97.6257 22.742 96.9657 24.04C96.3057 25.338 95.3597 26.372 94.1277 27.142C92.9177 27.89 91.4657 28.264 89.7717 28.264ZM89.7717 26.02C91.0037 26.02 92.0377 25.734 92.8737 25.162C93.7317 24.59 94.3807 23.831 94.8207 22.885C95.2607 21.917 95.4807 20.872 95.4807 19.75C95.4807 18.606 95.2607 17.561 94.8207 16.615C94.3807 15.669 93.7317 14.91 92.8737 14.338C92.0377 13.766 91.0037 13.48 89.7717 13.48C88.5617 13.48 87.5277 13.766 86.6697 14.338C85.8117 14.91 85.1627 15.669 84.7227 16.615C84.2827 17.561 84.0627 18.606 84.0627 19.75C84.0627 20.872 84.2827 21.917 84.7227 22.885C85.1627 23.831 85.8117 24.59 86.6697 25.162C87.5277 25.734 88.5617 26.02 89.7717 26.02ZM100.908 28V11.5H103.383V14.008C103.757 13.348 104.351 12.721 105.165 12.127C105.979 11.533 107.057 11.236 108.399 11.236C109.499 11.236 110.511 11.533 111.435 12.127C112.381 12.699 113.118 13.513 113.646 14.569C113.866 14.195 114.207 13.744 114.669 13.216C115.153 12.688 115.78 12.226 116.55 11.83C117.32 11.434 118.244 11.236 119.322 11.236C120.378 11.236 121.368 11.511 122.292 12.061C123.216 12.611 123.964 13.403 124.536 14.437C125.13 15.449 125.427 16.648 125.427 18.034V28H122.952V18.1C122.952 16.714 122.556 15.603 121.764 14.767C120.994 13.909 120.026 13.48 118.86 13.48C117.65 13.48 116.605 13.887 115.725 14.701C114.845 15.515 114.405 16.659 114.405 18.133V28H111.93V18.1C111.93 16.714 111.534 15.603 110.742 14.767C109.972 13.909 109.004 13.48 107.838 13.48C106.628 13.48 105.583 13.887 104.703 14.701C103.823 15.515 103.383 16.659 103.383 18.133V28H100.908ZM129.128 8.728V5.494H131.801V8.728H129.128ZM129.227 28V11.5H131.702V28H129.227ZM136.787 28V13.678H133.949V11.5H136.787V10.048C136.787 8.244 137.326 6.891 138.404 5.989C139.504 5.087 141 4.636 142.892 4.636H143.09V6.979H142.76C141.616 6.979 140.747 7.243 140.153 7.771C139.559 8.277 139.262 9.102 139.262 10.246V11.5H143.09V13.678H139.262V28H136.787ZM147.17 34.534L150.173 27.769L143.441 11.5H146.18L151.493 25.03L156.905 11.5H159.611L149.843 34.534H147.17Z"/>
</mask>
<path d="M47.4199 28L53.7889 19.486L47.8159 11.5H50.9839L55.2409 17.737L59.4649 11.5H62.6329L56.6599 19.486L63.0619 28H59.8939L55.2409 21.268L50.5549 28H47.4199ZM71.4748 28.264C69.8028 28.264 68.3508 27.89 67.1188 27.142C65.8868 26.372 64.9408 25.338 64.2808 24.04C63.6208 22.742 63.2908 21.312 63.2908 19.75C63.2908 18.166 63.6208 16.736 64.2808 15.46C64.9408 14.162 65.8868 13.139 67.1188 12.391C68.3508 11.621 69.8028 11.236 71.4748 11.236C73.1688 11.236 74.6208 11.621 75.8308 12.391C77.0628 13.139 78.0088 14.162 78.6688 15.46C79.3288 16.736 79.6588 18.166 79.6588 19.75C79.6588 21.312 79.3288 22.742 78.6688 24.04C78.0088 25.338 77.0628 26.372 75.8308 27.142C74.6208 27.89 73.1688 28.264 71.4748 28.264ZM71.4748 26.02C72.7068 26.02 73.7408 25.734 74.5768 25.162C75.4348 24.59 76.0838 23.831 76.5238 22.885C76.9638 21.917 77.1838 20.872 77.1838 19.75C77.1838 18.606 76.9638 17.561 76.5238 16.615C76.0838 15.669 75.4348 14.91 74.5768 14.338C73.7408 13.766 72.7068 13.48 71.4748 13.48C70.2648 13.48 69.2308 13.766 68.3728 14.338C67.5148 14.91 66.8658 15.669 66.4258 16.615C65.9858 17.561 65.7658 18.606 65.7658 19.75C65.7658 20.872 65.9858 21.917 66.4258 22.885C66.8658 23.831 67.5148 24.59 68.3728 25.162C69.2308 25.734 70.2648 26.02 71.4748 26.02ZM89.7717 28.264C88.0997 28.264 86.6477 27.89 85.4157 27.142C84.1837 26.372 83.2377 25.338 82.5777 24.04C81.9177 22.742 81.5877 21.312 81.5877 19.75C81.5877 18.166 81.9177 16.736 82.5777 15.46C83.2377 14.162 84.1837 13.139 85.4157 12.391C86.6477 11.621 88.0997 11.236 89.7717 11.236C91.4657 11.236 92.9177 11.621 94.1277 12.391C95.3597 13.139 96.3057 14.162 96.9657 15.46C97.6257 16.736 97.9557 18.166 97.9557 19.75C97.9557 21.312 97.6257 22.742 96.9657 24.04C96.3057 25.338 95.3597 26.372 94.1277 27.142C92.9177 27.89 91.4657 28.264 89.7717 28.264ZM89.7717 26.02C91.0037 26.02 92.0377 25.734 92.8737 25.162C93.7317 24.59 94.3807 23.831 94.8207 22.885C95.2607 21.917 95.4807 20.872 95.4807 19.75C95.4807 18.606 95.2607 17.561 94.8207 16.615C94.3807 15.669 93.7317 14.91 92.8737 14.338C92.0377 13.766 91.0037 13.48 89.7717 13.48C88.5617 13.48 87.5277 13.766 86.6697 14.338C85.8117 14.91 85.1627 15.669 84.7227 16.615C84.2827 17.561 84.0627 18.606 84.0627 19.75C84.0627 20.872 84.2827 21.917 84.7227 22.885C85.1627 23.831 85.8117 24.59 86.6697 25.162C87.5277 25.734 88.5617 26.02 89.7717 26.02ZM100.908 28V11.5H103.383V14.008C103.757 13.348 104.351 12.721 105.165 12.127C105.979 11.533 107.057 11.236 108.399 11.236C109.499 11.236 110.511 11.533 111.435 12.127C112.381 12.699 113.118 13.513 113.646 14.569C113.866 14.195 114.207 13.744 114.669 13.216C115.153 12.688 115.78 12.226 116.55 11.83C117.32 11.434 118.244 11.236 119.322 11.236C120.378 11.236 121.368 11.511 122.292 12.061C123.216 12.611 123.964 13.403 124.536 14.437C125.13 15.449 125.427 16.648 125.427 18.034V28H122.952V18.1C122.952 16.714 122.556 15.603 121.764 14.767C120.994 13.909 120.026 13.48 118.86 13.48C117.65 13.48 116.605 13.887 115.725 14.701C114.845 15.515 114.405 16.659 114.405 18.133V28H111.93V18.1C111.93 16.714 111.534 15.603 110.742 14.767C109.972 13.909 109.004 13.48 107.838 13.48C106.628 13.48 105.583 13.887 104.703 14.701C103.823 15.515 103.383 16.659 103.383 18.133V28H100.908ZM129.128 8.728V5.494H131.801V8.728H129.128ZM129.227 28V11.5H131.702V28H129.227ZM136.787 28V13.678H133.949V11.5H136.787V10.048C136.787 8.244 137.326 6.891 138.404 5.989C139.504 5.087 141 4.636 142.892 4.636H143.09V6.979H142.76C141.616 6.979 140.747 7.243 140.153 7.771C139.559 8.277 139.262 9.102 139.262 10.246V11.5H143.09V13.678H139.262V28H136.787ZM147.17 34.534L150.173 27.769L143.441 11.5H146.18L151.493 25.03L156.905 11.5H159.611L149.843 34.534H147.17Z" fill="white"/>
<path d="M47.4199 28L47.0195 27.7005L46.4214 28.5H47.4199V28ZM53.7889 19.486L54.1892 19.7855L54.4133 19.486L54.1893 19.1865L53.7889 19.486ZM47.8159 11.5V11H46.8175L47.4155 11.7995L47.8159 11.5ZM50.9839 11.5L51.3968 11.2181L51.2479 11H50.9839V11.5ZM55.2409 17.737L54.8279 18.0189L55.2425 18.6263L55.6548 18.0174L55.2409 17.737ZM59.4649 11.5V11H59.1996L59.0509 11.2196L59.4649 11.5ZM62.6329 11.5L63.0333 11.7995L63.6312 11H62.6329V11.5ZM56.6599 19.486L56.2595 19.1865L56.0349 19.4868L56.2602 19.7865L56.6599 19.486ZM63.0619 28V28.5H64.0634L63.4615 27.6995L63.0619 28ZM59.8939 28L59.4825 28.2843L59.6316 28.5H59.8939V28ZM55.2409 21.268L55.6522 20.9837L55.2423 20.3907L54.8305 20.9823L55.2409 21.268ZM50.5549 28V28.5H50.816L50.9652 28.2857L50.5549 28ZM47.8202 28.2995L54.1892 19.7855L53.3885 19.1865L47.0195 27.7005L47.8202 28.2995ZM54.1893 19.1865L48.2162 11.2005L47.4155 11.7995L53.3885 19.7855L54.1893 19.1865ZM47.8159 12H50.9839V11H47.8159V12ZM50.5709 11.7819L54.8279 18.0189L55.6538 17.4551L51.3968 11.2181L50.5709 11.7819ZM55.6548 18.0174L59.8788 11.7804L59.0509 11.2196L54.8269 17.4566L55.6548 18.0174ZM59.4649 12H62.6329V11H59.4649V12ZM62.2325 11.2005L56.2595 19.1865L57.0603 19.7855L63.0333 11.7995L62.2325 11.2005ZM56.2602 19.7865L62.6622 28.3005L63.4615 27.6995L57.0595 19.1855L56.2602 19.7865ZM63.0619 27.5H59.8939V28.5H63.0619V27.5ZM60.3052 27.7157L55.6522 20.9837L54.8295 21.5523L59.4825 28.2843L60.3052 27.7157ZM54.8305 20.9823L50.1445 27.7143L50.9652 28.2857L55.6512 21.5536L54.8305 20.9823ZM50.5549 27.5H47.4199V28.5H50.5549V27.5ZM67.1188 27.142L66.8538 27.566L66.8593 27.5694L67.1188 27.142ZM64.2808 15.46L64.7249 15.6897L64.7265 15.6866L64.2808 15.46ZM67.1188 12.391L67.3783 12.8184L67.3838 12.815L67.1188 12.391ZM75.8308 12.391L75.5623 12.8129L75.5713 12.8184L75.8308 12.391ZM78.6688 15.46L78.2231 15.6866L78.2247 15.6897L78.6688 15.46ZM78.6688 24.04L78.2231 23.8134V23.8134L78.6688 24.04ZM75.8308 27.142L76.0937 27.5673L76.0958 27.566L75.8308 27.142ZM74.5768 25.162L74.2994 24.7459L74.2944 24.7493L74.5768 25.162ZM76.5238 22.885L76.9772 23.0959L76.979 23.0919L76.5238 22.885ZM76.5238 16.615L76.9772 16.4041L76.5238 16.615ZM74.5768 14.338L74.2944 14.7507L74.2994 14.754L74.5768 14.338ZM68.3728 14.338L68.0954 13.922L68.0954 13.922L68.3728 14.338ZM66.4258 16.615L65.9724 16.4041L66.4258 16.615ZM66.4258 22.885L65.9706 23.0919L65.9724 23.0959L66.4258 22.885ZM71.4748 27.764C69.8794 27.764 68.5202 27.4079 67.3783 26.7146L66.8593 27.5694C68.1813 28.3721 69.7262 28.764 71.4748 28.764V27.764ZM67.3838 26.718C66.229 25.9963 65.3454 25.0306 64.7265 23.8134L63.8351 24.2666C64.5362 25.6454 65.5446 26.7477 66.8538 27.566L67.3838 26.718ZM64.7265 23.8134C64.1047 22.5906 63.7908 21.2391 63.7908 19.75H62.7908C62.7908 21.3849 63.1368 22.8934 63.8351 24.2666L64.7265 23.8134ZM63.7908 19.75C63.7908 18.2376 64.1053 16.8876 64.7249 15.6897L63.8367 15.2303C63.1363 16.5843 62.7908 18.0944 62.7908 19.75H63.7908ZM64.7265 15.6866C65.3448 14.4707 66.2267 13.5176 67.3783 12.8184L66.8593 11.9636C65.5469 12.7604 64.5368 13.8533 63.8351 15.2334L64.7265 15.6866ZM67.3838 12.815C68.5249 12.1018 69.8821 11.736 71.4748 11.736V10.736C69.7235 10.736 68.1767 11.1402 66.8538 11.967L67.3838 12.815ZM71.4748 11.736C73.0912 11.736 74.4462 12.1025 75.5624 12.8128L76.0992 11.9692C74.7954 11.1395 73.2464 10.736 71.4748 10.736V11.736ZM75.5713 12.8184C76.7229 13.5176 77.6048 14.4707 78.2231 15.6866L79.1145 15.2334C78.4128 13.8533 77.4027 12.7604 76.0903 11.9636L75.5713 12.8184ZM78.2247 15.6897C78.8443 16.8876 79.1588 18.2376 79.1588 19.75H80.1588C80.1588 18.0944 79.8133 16.5843 79.1129 15.2303L78.2247 15.6897ZM79.1588 19.75C79.1588 21.2391 78.8448 22.5906 78.2231 23.8134L79.1145 24.2666C79.8127 22.8934 80.1588 21.3849 80.1588 19.75H79.1588ZM78.2231 23.8134C77.6042 25.0306 76.7206 25.9963 75.5658 26.718L76.0958 27.566C77.405 26.7477 78.4134 25.6454 79.1145 24.2666L78.2231 23.8134ZM75.5679 26.7167C74.4508 27.4072 73.0938 27.764 71.4748 27.764V28.764C73.2438 28.764 74.7908 28.3728 76.0937 27.5673L75.5679 26.7167ZM71.4748 26.52C72.7855 26.52 73.9234 26.2149 74.8591 25.5747L74.2944 24.7493C73.5581 25.2531 72.6281 25.52 71.4748 25.52V26.52ZM74.8541 25.578C75.7895 24.9545 76.4989 24.1241 76.9772 23.0959L76.0704 22.6741C75.6687 23.5379 75.0801 24.2255 74.2994 24.746L74.8541 25.578ZM76.979 23.0919C77.4501 22.0554 77.6838 20.9394 77.6838 19.75H76.6838C76.6838 20.8046 76.4775 21.7786 76.0686 22.6781L76.979 23.0919ZM77.6838 19.75C77.6838 18.5403 77.4507 17.4223 76.9772 16.4041L76.0704 16.8259C76.4768 17.6997 76.6838 18.6717 76.6838 19.75H77.6838ZM76.9772 16.4041C76.4989 15.3759 75.7895 14.5455 74.8541 13.922L74.2994 14.754C75.0801 15.2745 75.6687 15.9621 76.0704 16.8259L76.9772 16.4041ZM74.8591 13.9253C73.9234 13.2851 72.7855 12.98 71.4748 12.98V13.98C72.6281 13.98 73.5581 14.2469 74.2944 14.7507L74.8591 13.9253ZM71.4748 12.98C70.1836 12.98 69.049 13.2863 68.0954 13.922L68.6501 14.754C69.4126 14.2457 70.346 13.98 71.4748 13.98V12.98ZM68.0954 13.922C67.1601 14.5455 66.4507 15.3759 65.9724 16.4041L66.8792 16.8259C67.2809 15.9621 67.8695 15.2745 68.6501 14.754L68.0954 13.922ZM65.9724 16.4041C65.4988 17.4223 65.2658 18.5403 65.2658 19.75H66.2658C66.2658 18.6717 66.4727 17.6997 66.8792 16.8259L65.9724 16.4041ZM65.2658 19.75C65.2658 20.9394 65.4995 22.0554 65.9706 23.0919L66.881 22.6781C66.4721 21.7786 66.2658 20.8046 66.2658 19.75H65.2658ZM65.9724 23.0959C66.4507 24.1241 67.1601 24.9545 68.0954 25.578L68.6501 24.746C67.8695 24.2255 67.2809 23.5379 66.8792 22.6741L65.9724 23.0959ZM68.0954 25.578C69.049 26.2137 70.1836 26.52 71.4748 26.52V25.52C70.346 25.52 69.4126 25.2543 68.6501 24.746L68.0954 25.578ZM85.4157 27.142L85.1507 27.566L85.1563 27.5694L85.4157 27.142ZM82.5777 15.46L83.0219 15.6897L83.0234 15.6866L82.5777 15.46ZM85.4157 12.391L85.6753 12.8184L85.6807 12.815L85.4157 12.391ZM94.1277 12.391L93.8592 12.8129L93.8683 12.8184L94.1277 12.391ZM96.9657 15.46L96.52 15.6866L96.5216 15.6897L96.9657 15.46ZM96.9657 24.04L96.5201 23.8134V23.8134L96.9657 24.04ZM94.1277 27.142L94.3907 27.5673L94.3927 27.566L94.1277 27.142ZM92.8737 25.162L92.5964 24.7459L92.5914 24.7493L92.8737 25.162ZM94.8207 22.885L95.2741 23.0959L95.2759 23.0919L94.8207 22.885ZM94.8207 16.615L95.2741 16.4041L94.8207 16.615ZM92.8737 14.338L92.5914 14.7507L92.5964 14.754L92.8737 14.338ZM86.6697 14.338L86.3924 13.922V13.922L86.6697 14.338ZM84.7227 16.615L84.2694 16.4041L84.7227 16.615ZM84.7227 22.885L84.2675 23.0919L84.2694 23.0959L84.7227 22.885ZM89.7717 27.764C88.1764 27.764 86.8172 27.4079 85.6752 26.7146L85.1563 27.5694C86.4783 28.3721 88.0231 28.764 89.7717 28.764V27.764ZM85.6807 26.718C84.526 25.9963 83.6424 25.0306 83.0234 23.8134L82.1321 24.2666C82.8331 25.6454 83.8415 26.7477 85.1507 27.566L85.6807 26.718ZM83.0234 23.8134C82.4017 22.5906 82.0877 21.2391 82.0877 19.75H81.0877C81.0877 21.3849 81.4338 22.8934 82.1321 24.2666L83.0234 23.8134ZM82.0877 19.75C82.0877 18.2376 82.4022 16.8876 83.0219 15.6897L82.1336 15.2303C81.4333 16.5843 81.0877 18.0944 81.0877 19.75H82.0877ZM83.0234 15.6866C83.6417 14.4707 84.5236 13.5176 85.6752 12.8184L85.1563 11.9636C83.8438 12.7604 82.8338 13.8533 82.1321 15.2334L83.0234 15.6866ZM85.6807 12.815C86.8219 12.1018 88.179 11.736 89.7717 11.736V10.736C88.0205 10.736 86.4736 11.1402 85.1507 11.967L85.6807 12.815ZM89.7717 11.736C91.3881 11.736 92.7431 12.1025 93.8593 12.8128L94.3962 11.9692C93.0924 11.1395 91.5434 10.736 89.7717 10.736V11.736ZM93.8683 12.8184C95.0199 13.5176 95.9018 14.4707 96.5201 15.6866L97.4114 15.2334C96.7097 13.8533 95.6996 12.7604 94.3872 11.9636L93.8683 12.8184ZM96.5216 15.6897C97.1413 16.8876 97.4557 18.2376 97.4557 19.75H98.4557C98.4557 18.0944 98.1102 16.5843 97.4099 15.2303L96.5216 15.6897ZM97.4557 19.75C97.4557 21.2391 97.1418 22.5906 96.5201 23.8134L97.4114 24.2666C98.1097 22.8934 98.4557 21.3849 98.4557 19.75H97.4557ZM96.5201 23.8134C95.9011 25.0306 95.0175 25.9963 93.8627 26.718L94.3927 27.566C95.702 26.7477 96.7104 25.6454 97.4114 24.2666L96.5201 23.8134ZM93.8648 26.7167C92.7478 27.4072 91.3908 27.764 89.7717 27.764V28.764C91.5407 28.764 93.0877 28.3728 94.3907 27.5673L93.8648 26.7167ZM89.7717 26.52C91.0824 26.52 92.2204 26.2149 93.1561 25.5747L92.5914 24.7493C91.8551 25.2531 90.9251 25.52 89.7717 25.52V26.52ZM93.1511 25.578C94.0864 24.9545 94.7959 24.1241 95.2741 23.0959L94.3674 22.6741C93.9656 23.5379 93.3771 24.2255 92.5964 24.746L93.1511 25.578ZM95.2759 23.0919C95.7471 22.0554 95.9807 20.9394 95.9807 19.75H94.9807C94.9807 20.8046 94.7744 21.7786 94.3656 22.6781L95.2759 23.0919ZM95.9807 19.75C95.9807 18.5403 95.7477 17.4223 95.2741 16.4041L94.3674 16.8259C94.7738 17.6997 94.9807 18.6717 94.9807 19.75H95.9807ZM95.2741 16.4041C94.7959 15.3759 94.0864 14.5455 93.1511 13.922L92.5964 14.754C93.3771 15.2745 93.9656 15.9621 94.3674 16.8259L95.2741 16.4041ZM93.1561 13.9253C92.2204 13.2851 91.0824 12.98 89.7717 12.98V13.98C90.9251 13.98 91.8551 14.2469 92.5914 14.7507L93.1561 13.9253ZM89.7717 12.98C88.4805 12.98 87.346 13.2863 86.3924 13.922L86.9471 14.754C87.7095 14.2457 88.643 13.98 89.7717 13.98V12.98ZM86.3924 13.922C85.4571 14.5455 84.7476 15.3759 84.2694 16.4041L85.1761 16.8259C85.5779 15.9621 86.1664 15.2745 86.9471 14.754L86.3924 13.922ZM84.2694 16.4041C83.7958 17.4223 83.5627 18.5403 83.5627 19.75H84.5627C84.5627 18.6717 84.7697 17.6997 85.1761 16.8259L84.2694 16.4041ZM83.5627 19.75C83.5627 20.9394 83.7964 22.0554 84.2676 23.0919L85.1779 22.6781C84.7691 21.7786 84.5627 20.8046 84.5627 19.75H83.5627ZM84.2694 23.0959C84.7476 24.1241 85.4571 24.9545 86.3924 25.578L86.9471 24.746C86.1664 24.2255 85.5779 23.5379 85.1761 22.6741L84.2694 23.0959ZM86.3924 25.578C87.346 26.2137 88.4805 26.52 89.7717 26.52V25.52C88.643 25.52 87.7095 25.2543 86.9471 24.746L86.3924 25.578ZM100.908 28H100.408V28.5H100.908V28ZM100.908 11.5V11H100.408V11.5H100.908ZM103.383 11.5H103.883V11H103.383V11.5ZM103.383 14.008H102.883V15.9045L103.818 14.2545L103.383 14.008ZM105.165 12.127L104.87 11.7231L105.165 12.127ZM111.435 12.127L111.164 12.5477L111.176 12.5549L111.435 12.127ZM113.646 14.569L113.198 14.7926L113.61 15.6157L114.077 14.8225L113.646 14.569ZM114.669 13.216L114.3 12.878L114.292 12.8867L114.669 13.216ZM116.55 11.83L116.778 12.2746L116.55 11.83ZM122.292 12.061L122.547 11.6314L122.292 12.061ZM124.536 14.437L124.098 14.6791L124.104 14.6901L124.536 14.437ZM125.427 28V28.5H125.927V28H125.427ZM122.952 28H122.452V28.5H122.952V28ZM121.764 14.767L121.391 15.1011L121.401 15.1109L121.764 14.767ZM115.725 14.701L115.385 14.3339L115.725 14.701ZM114.405 28V28.5H114.905V28H114.405ZM111.93 28H111.43V28.5H111.93V28ZM110.742 14.767L110.369 15.1011L110.379 15.1109L110.742 14.767ZM103.383 28V28.5H103.883V28H103.383ZM101.408 28V11.5H100.408V28H101.408ZM100.908 12H103.383V11H100.908V12ZM102.883 11.5V14.008H103.883V11.5H102.883ZM103.818 14.2545C104.147 13.6731 104.685 13.0961 105.459 12.5309L104.87 11.7231C104.016 12.3459 103.366 13.0229 102.948 13.7615L103.818 14.2545ZM105.459 12.5309C106.163 12.0171 107.128 11.736 108.399 11.736V10.736C106.986 10.736 105.794 11.0489 104.87 11.7231L105.459 12.5309ZM108.399 11.736C109.403 11.736 110.321 12.0055 111.164 12.5476L111.705 11.7064C110.7 11.0605 109.594 10.736 108.399 10.736V11.736ZM111.176 12.5549C112.036 13.0746 112.71 13.8151 113.198 14.7926L114.093 14.3454C113.526 13.2109 112.726 12.3234 111.693 11.6991L111.176 12.5549ZM114.077 14.8225C114.274 14.4867 114.593 14.0622 115.045 13.5453L114.292 12.8867C113.821 13.4258 113.457 13.9033 113.215 14.3155L114.077 14.8225ZM115.037 13.5539C115.474 13.0775 116.05 12.6491 116.778 12.2746L116.321 11.3854C115.509 11.8029 114.831 12.2985 114.3 12.8781L115.037 13.5539ZM116.778 12.2746C117.462 11.9229 118.304 11.736 119.322 11.736V10.736C118.183 10.736 117.177 10.9451 116.321 11.3854L116.778 12.2746ZM119.322 11.736C120.286 11.736 121.188 11.9858 122.036 12.4906L122.547 11.6314C121.548 11.0362 120.469 10.736 119.322 10.736V11.736ZM122.036 12.4906C122.876 12.9909 123.565 13.7147 124.098 14.679L124.973 14.195C124.363 13.0913 123.555 12.2311 122.547 11.6314L122.036 12.4906ZM124.104 14.6901C124.646 15.6125 124.927 16.7207 124.927 18.034H125.927C125.927 16.5753 125.614 15.2855 124.967 14.1839L124.104 14.6901ZM124.927 18.034V28H125.927V18.034H124.927ZM125.427 27.5H122.952V28.5H125.427V27.5ZM123.452 28V18.1H122.452V28H123.452ZM123.452 18.1C123.452 16.6137 123.024 15.3703 122.127 14.4231L121.401 15.1109C122.087 15.8357 122.452 16.8143 122.452 18.1H123.452ZM122.136 14.433C121.27 13.468 120.166 12.98 118.86 12.98V13.98C119.886 13.98 120.718 14.35 121.392 15.101L122.136 14.433ZM118.86 12.98C117.525 12.98 116.359 13.4336 115.385 14.3339L116.064 15.068C116.851 14.3404 117.774 13.98 118.86 13.98V12.98ZM115.385 14.3339C114.38 15.2637 113.905 16.554 113.905 18.133H114.905C114.905 16.764 115.309 15.7663 116.064 15.068L115.385 14.3339ZM113.905 18.133V28H114.905V18.133H113.905ZM114.405 27.5H111.93V28.5H114.405V27.5ZM112.43 28V18.1H111.43V28H112.43ZM112.43 18.1C112.43 16.6137 112.002 15.3703 111.105 14.4231L110.379 15.1109C111.065 15.8357 111.43 16.8143 111.43 18.1H112.43ZM111.114 14.433C110.248 13.468 109.144 12.98 107.838 12.98V13.98C108.864 13.98 109.696 14.35 110.37 15.101L111.114 14.433ZM107.838 12.98C106.503 12.98 105.337 13.4336 104.363 14.3339L105.042 15.068C105.829 14.3404 106.752 13.98 107.838 13.98V12.98ZM104.363 14.3339C103.358 15.2637 102.883 16.554 102.883 18.133H103.883C103.883 16.764 104.287 15.7663 105.042 15.068L104.363 14.3339ZM102.883 18.133V28H103.883V18.133H102.883ZM103.383 27.5H100.908V28.5H103.383V27.5ZM129.128 8.728H128.628V9.228H129.128V8.728ZM129.128 5.494V4.994H128.628V5.494H129.128ZM131.801 5.494H132.301V4.994H131.801V5.494ZM131.801 8.728V9.228H132.301V8.728H131.801ZM129.227 28H128.727V28.5H129.227V28ZM129.227 11.5V11H128.727V11.5H129.227ZM131.702 11.5H132.202V11H131.702V11.5ZM131.702 28V28.5H132.202V28H131.702ZM129.628 8.728V5.494H128.628V8.728H129.628ZM129.128 5.994H131.801V4.994H129.128V5.994ZM131.301 5.494V8.728H132.301V5.494H131.301ZM131.801 8.228H129.128V9.228H131.801V8.228ZM129.727 28V11.5H128.727V28H129.727ZM129.227 12H131.702V11H129.227V12ZM131.202 11.5V28H132.202V11.5H131.202ZM131.702 27.5H129.227V28.5H131.702V27.5ZM136.787 28H136.287V28.5H136.787V28ZM136.787 13.678H137.287V13.178H136.787V13.678ZM133.949 13.678H133.449V14.178H133.949V13.678ZM133.949 11.5V11H133.449V11.5H133.949ZM136.787 11.5V12H137.287V11.5H136.787ZM138.404 5.989L138.087 5.60234L138.083 5.60553L138.404 5.989ZM143.09 4.636H143.59V4.136H143.09V4.636ZM143.09 6.979V7.479H143.59V6.979H143.09ZM140.153 7.771L140.477 8.1517L140.485 8.1447L140.153 7.771ZM139.262 11.5H138.762V12H139.262V11.5ZM143.09 11.5H143.59V11H143.09V11.5ZM143.09 13.678V14.178H143.59V13.678H143.09ZM139.262 13.678V13.178H138.762V13.678H139.262ZM139.262 28V28.5H139.762V28H139.262ZM137.287 28V13.678H136.287V28H137.287ZM136.787 13.178H133.949V14.178H136.787V13.178ZM134.449 13.678V11.5H133.449V13.678H134.449ZM133.949 12H136.787V11H133.949V12ZM137.287 11.5V10.048H136.287V11.5H137.287ZM137.287 10.048C137.287 8.3468 137.791 7.15383 138.725 6.37247L138.083 5.60553C136.861 6.62817 136.287 8.1412 136.287 10.048H137.287ZM138.721 6.37563C139.706 5.56804 141.077 5.136 142.892 5.136V4.136C140.922 4.136 139.302 4.60596 138.087 5.60236L138.721 6.37563ZM142.892 5.136H143.09V4.136H142.892V5.136ZM142.59 4.636V6.979H143.59V4.636H142.59ZM143.09 6.479H142.76V7.479H143.09V6.479ZM142.76 6.479C141.546 6.479 140.539 6.75847 139.821 7.39729L140.485 8.1447C140.954 7.72752 141.685 7.479 142.76 7.479V6.479ZM139.828 7.39038C139.079 8.02887 138.762 9.02537 138.762 10.246H139.762C139.762 9.17863 140.038 8.52512 140.477 8.15162L139.828 7.39038ZM138.762 10.246V11.5H139.762V10.246H138.762ZM139.262 12H143.09V11H139.262V12ZM142.59 11.5V13.678H143.59V11.5H142.59ZM143.09 13.178H139.262V14.178H143.09V13.178ZM138.762 13.678V28H139.762V13.678H138.762ZM139.262 27.5H136.787V28.5H139.262V27.5ZM147.17 34.534L146.713 34.3311L146.401 35.034H147.17V34.534ZM150.173 27.769L150.63 27.9719L150.717 27.7759L150.635 27.5778L150.173 27.769ZM143.441 11.5V11H142.693L142.979 11.6912L143.441 11.5ZM146.18 11.5L146.645 11.3172L146.521 11H146.18V11.5ZM151.493 25.03L151.027 25.2128L151.489 26.387L151.957 25.2157L151.493 25.03ZM156.905 11.5V11H156.566L156.441 11.3143L156.905 11.5ZM159.611 11.5L160.071 11.6952L160.366 11H159.611V11.5ZM149.843 34.534V35.034H150.174L150.303 34.7292L149.843 34.534ZM147.627 34.7369L150.63 27.9719L149.716 27.5661L146.713 34.3311L147.627 34.7369ZM150.635 27.5778L143.903 11.3088L142.979 11.6912L149.711 27.9602L150.635 27.5778ZM143.441 12H146.18V11H143.441V12ZM145.714 11.6828L151.027 25.2128L151.958 24.8472L146.645 11.3172L145.714 11.6828ZM151.957 25.2157L157.369 11.6857L156.441 11.3143L151.029 24.8443L151.957 25.2157ZM156.905 12H159.611V11H156.905V12ZM159.151 11.3048L149.382 34.3388L150.303 34.7292L160.071 11.6952L159.151 11.3048ZM149.843 34.034H147.17V35.034H149.843V34.034Z" fill="white" mask="url(#path-1-outside-1_283_1379)"/>
<path d="M9.40424 25.9564L3.08779 32.319C1.34313 34.0765 1.34313 36.9253 3.08779 38.6828C4.83119 40.4391 7.65958 40.4391 9.40424 38.6828L22.0397 25.9564C23.7843 24.1988 23.7843 21.3501 22.0397 19.5925L9.40424 6.86604C7.65958 5.10846 4.83119 5.10846 3.08779 6.86604C1.34313 8.62362 1.34313 11.4723 3.08779 13.2299L9.40424 19.5925C11.1502 21.3501 11.1502 24.1988 9.40424 25.9564Z" fill="#00CDEE"/>
<path d="M2.89971 23.9826L0.496656 26.4015C-0.165552 27.0693 -0.165552 28.1527 0.496656 28.8204C1.15886 29.4882 2.23623 29.4882 2.89971 28.8204L7.70072 23.9826C8.3642 23.3149 8.3642 22.2314 7.70072 21.5637L2.89971 16.7259C2.23623 16.0582 1.15886 16.0582 0.496656 16.7259C-0.165552 17.3936 -0.165552 18.4771 0.496656 19.1448L2.89971 21.5637C3.56064 22.2314 3.56064 23.3149 2.89971 23.9826Z" fill="#84E9FD"/>
<path d="M19.8758 28.1359L13.581 21.795C11.8376 20.0375 11.8376 17.1887 13.581 15.4312L15.7446 13.2515L22.0394 19.5923C22.913 20.4698 23.3486 21.6224 23.3486 22.7736C23.3486 23.9261 22.913 25.0761 22.0394 25.9562L19.8758 28.1359Z" fill="#0B0757"/>
<path d="M27.5934 14.0446L33.9111 7.68078C35.657 5.92448 35.657 3.07448 33.9111 1.31818C32.1664 -0.439395 29.338 -0.439395 27.5934 1.31818L14.9579 14.0446C13.2145 15.8009 13.2145 18.6509 14.9579 20.4072L27.5934 33.1337C29.338 34.8913 32.1664 34.8913 33.9111 33.1337C35.657 31.3774 35.657 28.5274 33.9111 26.7711L27.5934 20.4072C25.85 18.6509 25.85 15.8009 27.5934 14.0446Z" fill="#293FCC"/>
<path d="M34.1019 16.0173L36.5037 13.5984C37.1659 12.9307 37.1659 11.8472 36.5037 11.1795C35.8402 10.5118 34.7642 10.5118 34.1019 11.1795L29.2984 16.0173C28.6349 16.6851 28.6349 17.7685 29.2984 18.4362L34.1019 23.2741C34.7642 23.9418 35.8402 23.9418 36.5037 23.2741C37.1659 22.6063 37.1659 21.5229 36.5037 20.8551L34.1019 18.4362C33.4385 17.7685 33.4385 16.6851 34.1019 16.0173Z" fill="#8F9DF9"/>
<mask id="path-8-outside-2_283_1379" maskUnits="userSpaceOnUse" x="163" y="5" width="13" height="13" fill="black">
<rect fill="white" x="163" y="5" width="13" height="13"/>
<path d="M167.979 17.136C167.151 17.136 166.426 16.9433 165.803 16.558C165.191 16.1613 164.715 15.6287 164.375 14.96C164.035 14.2913 163.865 13.5547 163.865 12.75C163.865 11.934 164.035 11.1973 164.375 10.54C164.715 9.87133 165.191 9.34433 165.803 8.959C166.426 8.56233 167.151 8.364 167.979 8.364C168.681 8.364 169.282 8.5 169.781 8.772C170.291 9.044 170.704 9.41233 171.022 9.877V8.5H172.297V17H171.022V15.64C170.704 16.0933 170.291 16.456 169.781 16.728C169.282 17 168.681 17.136 167.979 17.136ZM168.149 15.98C168.783 15.98 169.316 15.8327 169.747 15.538C170.189 15.2433 170.523 14.8523 170.75 14.365C170.976 13.8663 171.09 13.328 171.09 12.75C171.09 12.1607 170.976 11.6223 170.75 11.135C170.523 10.6477 170.189 10.2567 169.747 9.962C169.316 9.66733 168.783 9.52 168.149 9.52C167.525 9.52 166.987 9.66733 166.534 9.962C166.08 10.2567 165.735 10.6477 165.497 11.135C165.259 11.6223 165.14 12.1607 165.14 12.75C165.14 13.328 165.259 13.8663 165.497 14.365C165.735 14.8523 166.08 15.2433 166.534 15.538C166.987 15.8327 167.525 15.98 168.149 15.98ZM174.281 7.072V5.406H175.658V7.072H174.281ZM174.332 17V8.5H175.607V17H174.332Z"/>
</mask>
<path d="M167.979 17.136C167.151 17.136 166.426 16.9433 165.803 16.558C165.191 16.1613 164.715 15.6287 164.375 14.96C164.035 14.2913 163.865 13.5547 163.865 12.75C163.865 11.934 164.035 11.1973 164.375 10.54C164.715 9.87133 165.191 9.34433 165.803 8.959C166.426 8.56233 167.151 8.364 167.979 8.364C168.681 8.364 169.282 8.5 169.781 8.772C170.291 9.044 170.704 9.41233 171.022 9.877V8.5H172.297V17H171.022V15.64C170.704 16.0933 170.291 16.456 169.781 16.728C169.282 17 168.681 17.136 167.979 17.136ZM168.149 15.98C168.783 15.98 169.316 15.8327 169.747 15.538C170.189 15.2433 170.523 14.8523 170.75 14.365C170.976 13.8663 171.09 13.328 171.09 12.75C171.09 12.1607 170.976 11.6223 170.75 11.135C170.523 10.6477 170.189 10.2567 169.747 9.962C169.316 9.66733 168.783 9.52 168.149 9.52C167.525 9.52 166.987 9.66733 166.534 9.962C166.08 10.2567 165.735 10.6477 165.497 11.135C165.259 11.6223 165.14 12.1607 165.14 12.75C165.14 13.328 165.259 13.8663 165.497 14.365C165.735 14.8523 166.08 15.2433 166.534 15.538C166.987 15.8327 167.525 15.98 168.149 15.98ZM174.281 7.072V5.406H175.658V7.072H174.281ZM174.332 17V8.5H175.607V17H174.332Z" fill="#8F9DF9"/>
<path d="M165.803 16.558L165.694 16.7259L165.697 16.7281L165.803 16.558ZM164.375 10.54L164.552 10.6319L164.553 10.6306L164.375 10.54ZM165.803 8.959L165.909 9.12825L165.91 9.12773L165.803 8.959ZM169.781 8.772L169.685 8.94759L169.687 8.94847L169.781 8.772ZM171.022 9.877L170.857 9.98979L171.222 10.5245V9.877H171.022ZM171.022 8.5V8.3H170.822V8.5H171.022ZM172.297 8.5H172.497V8.3H172.297V8.5ZM172.297 17V17.2H172.497V17H172.297ZM171.022 17H170.822V17.2H171.022V17ZM171.022 15.64H171.222V15.0055L170.858 15.5253L171.022 15.64ZM169.781 16.728L169.687 16.5515L169.685 16.5524L169.781 16.728ZM169.747 15.538L169.636 15.3716L169.634 15.3729L169.747 15.538ZM170.75 14.365L170.931 14.4493L170.932 14.4478L170.75 14.365ZM170.75 11.135L170.568 11.2193L170.75 11.135ZM169.747 9.962L169.634 10.1271L169.636 10.1284L169.747 9.962ZM166.534 9.962L166.425 9.79431L166.534 9.962ZM165.497 11.135L165.317 11.0472H165.317L165.497 11.135ZM165.497 14.365L165.316 14.4511L165.317 14.4528L165.497 14.365ZM166.534 15.538L166.643 15.3703H166.643L166.534 15.538ZM167.979 16.936C167.184 16.936 166.496 16.7512 165.908 16.3879L165.697 16.7281C166.356 17.1354 167.119 17.336 167.979 17.336V16.936ZM165.911 16.3902C165.33 16.0132 164.877 15.5076 164.553 14.8694L164.196 15.0506C164.552 15.7498 165.051 16.3094 165.694 16.7258L165.911 16.3902ZM164.553 14.8694C164.228 14.2308 164.065 13.5255 164.065 12.75H163.665C163.665 13.5838 163.841 14.3519 164.196 15.0506L164.553 14.8694ZM164.065 12.75C164.065 11.9626 164.228 11.258 164.552 10.6319L164.197 10.4481C163.841 11.1367 163.665 11.9054 163.665 12.75H164.065ZM164.553 10.6306C164.877 9.99292 165.329 9.4936 165.909 9.12825L165.696 8.78975C165.052 9.19507 164.552 9.74975 164.196 10.4494L164.553 10.6306ZM165.91 9.12773C166.498 8.75387 167.185 8.564 167.979 8.564V8.164C167.118 8.164 166.354 8.3708 165.695 8.79027L165.91 9.12773ZM167.979 8.564C168.656 8.564 169.222 8.69497 169.685 8.94758L169.876 8.59642C169.342 8.30503 168.707 8.164 167.979 8.164V8.564ZM169.687 8.94847C170.169 9.20571 170.558 9.55251 170.857 9.98979L171.187 9.76421C170.851 9.27215 170.412 8.88228 169.875 8.59553L169.687 8.94847ZM171.222 9.877V8.5H170.822V9.877H171.222ZM171.022 8.7H172.297V8.3H171.022V8.7ZM172.097 8.5V17H172.497V8.5H172.097ZM172.297 16.8H171.022V17.2H172.297V16.8ZM171.222 17V15.64H170.822V17H171.222ZM170.858 15.5253C170.559 15.9517 170.17 16.2937 169.687 16.5515L169.875 16.9045C170.411 16.6183 170.849 16.235 171.186 15.7547L170.858 15.5253ZM169.685 16.5524C169.222 16.805 168.656 16.936 167.979 16.936V17.336C168.707 17.336 169.342 17.195 169.876 16.9036L169.685 16.5524ZM168.149 16.18C168.815 16.18 169.389 16.025 169.86 15.7031L169.634 15.3729C169.243 15.6403 168.752 15.78 168.149 15.78V16.18ZM169.858 15.7044C170.331 15.3891 170.689 14.9696 170.931 14.4493L170.568 14.2807C170.357 14.7351 170.047 15.0975 169.636 15.3716L169.858 15.7044ZM170.932 14.4478C171.171 13.9217 171.29 13.3549 171.29 12.75H170.89C170.89 13.3011 170.782 13.811 170.568 14.2822L170.932 14.4478ZM171.29 12.75C171.29 12.1344 171.171 11.5669 170.931 11.0507L170.568 11.2193C170.782 11.6778 170.89 12.187 170.89 12.75H171.29ZM170.931 11.0507C170.689 10.5304 170.331 10.1109 169.858 9.79559L169.636 10.1284C170.047 10.4025 170.357 10.7649 170.568 11.2193L170.931 11.0507ZM169.86 9.79694C169.389 9.47499 168.815 9.32 168.149 9.32V9.72C168.752 9.72 169.243 9.85968 169.634 10.1271L169.86 9.79694ZM168.149 9.32C167.493 9.32 166.915 9.47548 166.425 9.79431L166.643 10.1297C167.059 9.85919 167.558 9.72 168.149 9.72V9.32ZM166.425 9.79431C165.941 10.1088 165.571 10.5275 165.317 11.0472L165.676 11.2228C165.899 10.7679 166.22 10.4045 166.643 10.1297L166.425 9.79431ZM165.317 11.0472C165.064 11.5642 164.94 12.1329 164.94 12.75H165.34C165.34 12.1884 165.453 11.6805 165.676 11.2228L165.317 11.0472ZM164.94 12.75C164.94 13.3564 165.065 13.9243 165.316 14.4511L165.677 14.2789C165.453 13.8083 165.34 13.2996 165.34 12.75H164.94ZM165.317 14.4528C165.571 14.9725 165.941 15.3912 166.425 15.7057L166.643 15.3703C166.22 15.0955 165.899 14.7321 165.676 14.2772L165.317 14.4528ZM166.425 15.7057C166.915 16.0245 167.493 16.18 168.149 16.18V15.78C167.558 15.78 167.059 15.6408 166.643 15.3703L166.425 15.7057ZM174.281 7.072H174.081V7.272H174.281V7.072ZM174.281 5.406V5.206H174.081V5.406H174.281ZM175.658 5.406H175.858V5.206H175.658V5.406ZM175.658 7.072V7.272H175.858V7.072H175.658ZM174.332 17H174.132V17.2H174.332V17ZM174.332 8.5V8.3H174.132V8.5H174.332ZM175.607 8.5H175.807V8.3H175.607V8.5ZM175.607 17V17.2H175.807V17H175.607ZM174.481 7.072V5.406H174.081V7.072H174.481ZM174.281 5.606H175.658V5.206H174.281V5.606ZM175.458 5.406V7.072H175.858V5.406H175.458ZM175.658 6.872H174.281V7.272H175.658V6.872ZM174.532 17V8.5H174.132V17H174.532ZM174.332 8.7H175.607V8.3H174.332V8.7ZM175.407 8.5V17H175.807V8.5H175.407ZM175.607 16.8H174.332V17.2H175.607V16.8Z" fill="#293FCC" mask="url(#path-8-outside-2_283_1379)"/>
</svg>
