<svg width="147" height="40" viewBox="0 0 147 40" fill="none" xmlns="http://www.w3.org/2000/svg">
<path d="M15.048 14.2207L12.2396 19.3374C11.987 19.7977 11.9665 20.3487 12.1733 20.8317L14.4717 26.1994C14.7248 26.7904 14.1588 27.3564 13.5678 27.1033L8.20006 24.8049C7.71715 24.5981 7.16606 24.6186 6.70577 24.8712L1.58916 27.6796C0.968786 28.0201 0.24972 27.301 0.590222 26.6806L3.39856 21.564C3.6512 21.1037 3.67172 20.5526 3.46493 20.0697L1.16648 14.702C0.913421 14.111 1.47941 13.545 2.0704 13.7981L7.43813 16.0965C7.92105 16.3033 8.47213 16.2828 8.93243 16.0301L14.049 13.2218C14.6694 12.8813 15.3885 13.6004 15.048 14.2207Z" fill="url(#paint0_linear_1011_5648)" stroke="white"/>
<path d="M8.37036 1.46394L7.37119 3.34392C7.13591 3.78661 7.12683 4.31292 7.33158 4.76992L8.34514 7.03215C8.58134 7.55933 8.08277 8.05791 7.55559 7.82171L5.29336 6.80815C4.83636 6.60339 4.31005 6.61247 3.86735 6.84776L1.98737 7.84693C1.44554 8.1349 0.809591 7.49895 1.09756 6.95711L2.09673 5.07713C2.33201 4.63444 2.3411 4.10813 2.13634 3.65113L1.12278 1.3889C0.886582 0.861721 1.38516 0.363146 1.91234 0.599343L4.17457 1.61291C4.63157 1.81766 5.15788 1.80858 5.60057 1.5733L7.48055 0.574127C8.02238 0.286156 8.65833 0.922103 8.37036 1.46394Z" fill="#00CDEE" stroke="white"/>
<path d="M30.1243 33.0429L29.1251 34.9228C28.8898 35.3655 28.8807 35.8918 29.0855 36.3488L30.0991 38.6111C30.3352 39.1382 29.8367 39.6368 29.3095 39.4006L27.0473 38.3871C26.5903 38.1823 26.064 38.1914 25.6213 38.4267L23.7413 39.4258C23.1995 39.7138 22.5635 39.0779 22.8515 38.536L23.8506 36.6561C24.0859 36.2134 24.095 35.687 23.8902 35.23L22.8767 32.9678C22.6405 32.4406 23.1391 31.9421 23.6662 32.1783L25.9285 33.1918C26.3855 33.3966 26.9118 33.3875 27.3545 33.1522L29.2345 32.153C29.7763 31.8651 30.4122 32.501 30.1243 33.0429Z" fill="#293FCC" stroke="white"/>
<path d="M28.8356 10.8176L24.4296 19.5917C24.1844 20.08 24.1947 20.6555 24.4316 21.1498L28.7576 30.1729C29.0746 30.8341 28.4652 31.4435 27.804 31.1265L18.7809 26.8005C18.2866 26.5636 17.7111 26.5533 17.2228 26.7985L8.44875 31.2045C8.137 31.3611 7.78116 31.2764 7.52128 31.0165C7.26141 30.7567 7.17675 30.4008 7.3333 30.0891L11.7394 21.315C11.9846 20.8267 11.9743 20.2512 11.7373 19.757L7.41131 10.7338C7.09431 10.0726 7.70371 9.4632 8.36491 9.7802L17.3881 14.1062C17.8823 14.3432 18.4578 14.3535 18.9461 14.1083L27.7202 9.7022C28.0319 9.54565 28.3878 9.6303 28.6476 9.89018C28.9075 10.1501 28.9922 10.5059 28.8356 10.8176Z" fill="#293FCC" stroke="white"/>
<mask id="path-5-outside-1_1011_5648" maskUnits="userSpaceOnUse" x="36.8945" y="11.6804" width="103" height="19" fill="black">
<rect fill="white" x="36.8945" y="11.6804" width="103" height="19"/>
<path d="M37.8945 29.2133L44.1578 20.8167L38.284 12.9408H41.3994L45.5857 19.0918L49.7396 12.9408H52.8551L46.9812 20.8167L53.277 29.2133H50.1615L45.5857 22.5741L40.9775 29.2133H37.8945Z"/>
<path d="M61.5503 29.4737C59.906 29.4737 58.4781 29.1049 57.2666 28.3672C56.055 27.6078 55.1247 26.588 54.4757 25.3079C53.8266 24.0278 53.5021 22.6175 53.5021 21.0771C53.5021 19.5149 53.8266 18.1046 54.4757 16.8462C55.1247 15.5661 56.055 14.5572 57.2666 13.8195C58.4781 13.0601 59.906 12.6804 61.5503 12.6804C63.2162 12.6804 64.6441 13.0601 65.834 13.8195C67.0456 14.5572 67.9759 15.5661 68.6249 16.8462C69.274 18.1046 69.5985 19.5149 69.5985 21.0771C69.5985 22.6175 69.274 24.0278 68.6249 25.3079C67.9759 26.588 67.0456 27.6078 65.834 28.3672C64.6441 29.1049 63.2162 29.4737 61.5503 29.4737ZM61.5503 27.2606C62.7618 27.2606 63.7787 26.9786 64.6008 26.4145C65.4446 25.8503 66.0828 25.1018 66.5155 24.1689C66.9482 23.2142 67.1645 22.1836 67.1645 21.0771C67.1645 19.9488 66.9482 18.9182 66.5155 17.9853C66.0828 17.0523 65.4446 16.3038 64.6008 15.7397C63.7787 15.1755 62.7618 14.8935 61.5503 14.8935C60.3604 14.8935 59.3435 15.1755 58.4998 15.7397C57.656 16.3038 57.0178 17.0523 56.5851 17.9853C56.1524 18.9182 55.936 19.9488 55.936 21.0771C55.936 22.1836 56.1524 23.2142 56.5851 24.1689C57.0178 25.1018 57.656 25.8503 58.4998 26.4145C59.3435 26.9786 60.3604 27.2606 61.5503 27.2606Z"/>
<path d="M79.5436 29.4737C77.8994 29.4737 76.4714 29.1049 75.2599 28.3672C74.0483 27.6078 73.118 26.588 72.469 25.3079C71.8199 24.0278 71.4954 22.6175 71.4954 21.0771C71.4954 19.5149 71.8199 18.1046 72.469 16.8462C73.118 15.5661 74.0483 14.5572 75.2599 13.8195C76.4714 13.0601 77.8994 12.6804 79.5436 12.6804C81.2095 12.6804 82.6374 13.0601 83.8273 13.8195C85.0389 14.5572 85.9692 15.5661 86.6182 16.8462C87.2673 18.1046 87.5918 19.5149 87.5918 21.0771C87.5918 22.6175 87.2673 24.0278 86.6182 25.3079C85.9692 26.588 85.0389 27.6078 83.8273 28.3672C82.6374 29.1049 81.2095 29.4737 79.5436 29.4737ZM79.5436 27.2606C80.7552 27.2606 81.772 26.9786 82.5941 26.4145C83.4379 25.8503 84.0761 25.1018 84.5088 24.1689C84.9415 23.2142 85.1579 22.1836 85.1579 21.0771C85.1579 19.9488 84.9415 18.9182 84.5088 17.9853C84.0761 17.0523 83.4379 16.3038 82.5941 15.7397C81.772 15.1755 80.7552 14.8935 79.5436 14.8935C78.3537 14.8935 77.3368 15.1755 76.4931 15.7397C75.6493 16.3038 75.0111 17.0523 74.5784 17.9853C74.1457 18.9182 73.9293 19.9488 73.9293 21.0771C73.9293 22.1836 74.1457 23.2142 74.5784 24.1689C75.0111 25.1018 75.6493 25.8503 76.4931 26.4145C77.3368 26.9786 78.3537 27.2606 79.5436 27.2606Z"/>
<path d="M90.4948 29.2133V12.9408H92.9287V15.4142C93.2965 14.7633 93.8806 14.145 94.6811 13.5591C95.4816 12.9733 96.5417 12.6804 97.8614 12.6804C98.9432 12.6804 99.9384 12.9733 100.847 13.5591C101.777 14.1233 102.502 14.926 103.021 15.9675C103.238 15.5986 103.573 15.1539 104.027 14.6331C104.503 14.1124 105.12 13.6568 105.877 13.2662C106.634 12.8757 107.543 12.6804 108.603 12.6804C109.642 12.6804 110.615 12.9516 111.524 13.494C112.433 14.0365 113.168 14.8176 113.731 15.8373C114.315 16.8353 114.607 18.0178 114.607 19.3847V29.2133H112.173V19.4498C112.173 18.0829 111.784 16.9872 111.005 16.1627C110.247 15.3166 109.296 14.8935 108.149 14.8935C106.959 14.8935 105.931 15.2949 105.066 16.0977C104.2 16.9004 103.768 18.0287 103.768 19.4824V29.2133H101.334V19.4498C101.334 18.0829 100.944 16.9872 100.166 16.1627C99.4083 15.3166 98.4564 14.8935 97.3098 14.8935C96.1198 14.8935 95.0922 15.2949 94.2268 16.0977C93.3614 16.9004 92.9287 18.0287 92.9287 19.4824V29.2133H90.4948Z"/>
<path d="M118.344 29.2133V12.9408H120.778V29.2133H118.344Z"/>
<path d="M124.675 29.2133V12.9408H127.109V15.4793C127.693 14.6982 128.407 14.0365 129.251 13.494C130.095 12.9516 131.176 12.6804 132.496 12.6804C133.621 12.6804 134.67 12.9516 135.644 13.494C136.639 14.0148 137.44 14.8067 138.045 15.8698C138.673 16.9113 138.986 18.2022 138.986 19.7427V29.2133H136.553V19.8078C136.553 18.3324 136.131 17.15 135.287 16.2604C134.443 15.3491 133.351 14.8935 132.009 14.8935C131.101 14.8935 130.278 15.0996 129.543 15.5118C128.807 15.9241 128.212 16.5099 127.758 17.2693C127.325 18.007 127.109 18.864 127.109 19.8403V29.2133H124.675Z"/>
</mask>
<path d="M37.8945 29.2133L44.1578 20.8167L38.284 12.9408H41.3994L45.5857 19.0918L49.7396 12.9408H52.8551L46.9812 20.8167L53.277 29.2133H50.1615L45.5857 22.5741L40.9775 29.2133H37.8945Z" fill="white"/>
<path d="M61.5503 29.4737C59.906 29.4737 58.4781 29.1049 57.2666 28.3672C56.055 27.6078 55.1247 26.588 54.4757 25.3079C53.8266 24.0278 53.5021 22.6175 53.5021 21.0771C53.5021 19.5149 53.8266 18.1046 54.4757 16.8462C55.1247 15.5661 56.055 14.5572 57.2666 13.8195C58.4781 13.0601 59.906 12.6804 61.5503 12.6804C63.2162 12.6804 64.6441 13.0601 65.834 13.8195C67.0456 14.5572 67.9759 15.5661 68.6249 16.8462C69.274 18.1046 69.5985 19.5149 69.5985 21.0771C69.5985 22.6175 69.274 24.0278 68.6249 25.3079C67.9759 26.588 67.0456 27.6078 65.834 28.3672C64.6441 29.1049 63.2162 29.4737 61.5503 29.4737ZM61.5503 27.2606C62.7618 27.2606 63.7787 26.9786 64.6008 26.4145C65.4446 25.8503 66.0828 25.1018 66.5155 24.1689C66.9482 23.2142 67.1645 22.1836 67.1645 21.0771C67.1645 19.9488 66.9482 18.9182 66.5155 17.9853C66.0828 17.0523 65.4446 16.3038 64.6008 15.7397C63.7787 15.1755 62.7618 14.8935 61.5503 14.8935C60.3604 14.8935 59.3435 15.1755 58.4998 15.7397C57.656 16.3038 57.0178 17.0523 56.5851 17.9853C56.1524 18.9182 55.936 19.9488 55.936 21.0771C55.936 22.1836 56.1524 23.2142 56.5851 24.1689C57.0178 25.1018 57.656 25.8503 58.4998 26.4145C59.3435 26.9786 60.3604 27.2606 61.5503 27.2606Z" fill="white"/>
<path d="M79.5436 29.4737C77.8994 29.4737 76.4714 29.1049 75.2599 28.3672C74.0483 27.6078 73.118 26.588 72.469 25.3079C71.8199 24.0278 71.4954 22.6175 71.4954 21.0771C71.4954 19.5149 71.8199 18.1046 72.469 16.8462C73.118 15.5661 74.0483 14.5572 75.2599 13.8195C76.4714 13.0601 77.8994 12.6804 79.5436 12.6804C81.2095 12.6804 82.6374 13.0601 83.8273 13.8195C85.0389 14.5572 85.9692 15.5661 86.6182 16.8462C87.2673 18.1046 87.5918 19.5149 87.5918 21.0771C87.5918 22.6175 87.2673 24.0278 86.6182 25.3079C85.9692 26.588 85.0389 27.6078 83.8273 28.3672C82.6374 29.1049 81.2095 29.4737 79.5436 29.4737ZM79.5436 27.2606C80.7552 27.2606 81.772 26.9786 82.5941 26.4145C83.4379 25.8503 84.0761 25.1018 84.5088 24.1689C84.9415 23.2142 85.1579 22.1836 85.1579 21.0771C85.1579 19.9488 84.9415 18.9182 84.5088 17.9853C84.0761 17.0523 83.4379 16.3038 82.5941 15.7397C81.772 15.1755 80.7552 14.8935 79.5436 14.8935C78.3537 14.8935 77.3368 15.1755 76.4931 15.7397C75.6493 16.3038 75.0111 17.0523 74.5784 17.9853C74.1457 18.9182 73.9293 19.9488 73.9293 21.0771C73.9293 22.1836 74.1457 23.2142 74.5784 24.1689C75.0111 25.1018 75.6493 25.8503 76.4931 26.4145C77.3368 26.9786 78.3537 27.2606 79.5436 27.2606Z" fill="white"/>
<path d="M90.4948 29.2133V12.9408H92.9287V15.4142C93.2965 14.7633 93.8806 14.145 94.6811 13.5591C95.4816 12.9733 96.5417 12.6804 97.8614 12.6804C98.9432 12.6804 99.9384 12.9733 100.847 13.5591C101.777 14.1233 102.502 14.926 103.021 15.9675C103.238 15.5986 103.573 15.1539 104.027 14.6331C104.503 14.1124 105.12 13.6568 105.877 13.2662C106.634 12.8757 107.543 12.6804 108.603 12.6804C109.642 12.6804 110.615 12.9516 111.524 13.494C112.433 14.0365 113.168 14.8176 113.731 15.8373C114.315 16.8353 114.607 18.0178 114.607 19.3847V29.2133H112.173V19.4498C112.173 18.0829 111.784 16.9872 111.005 16.1627C110.247 15.3166 109.296 14.8935 108.149 14.8935C106.959 14.8935 105.931 15.2949 105.066 16.0977C104.2 16.9004 103.768 18.0287 103.768 19.4824V29.2133H101.334V19.4498C101.334 18.0829 100.944 16.9872 100.166 16.1627C99.4083 15.3166 98.4564 14.8935 97.3098 14.8935C96.1198 14.8935 95.0922 15.2949 94.2268 16.0977C93.3614 16.9004 92.9287 18.0287 92.9287 19.4824V29.2133H90.4948Z" fill="white"/>
<path d="M118.344 29.2133V12.9408H120.778V29.2133H118.344Z" fill="white"/>
<path d="M124.675 29.2133V12.9408H127.109V15.4793C127.693 14.6982 128.407 14.0365 129.251 13.494C130.095 12.9516 131.176 12.6804 132.496 12.6804C133.621 12.6804 134.67 12.9516 135.644 13.494C136.639 14.0148 137.44 14.8067 138.045 15.8698C138.673 16.9113 138.986 18.2022 138.986 19.7427V29.2133H136.553V19.8078C136.553 18.3324 136.131 17.15 135.287 16.2604C134.443 15.3491 133.351 14.8935 132.009 14.8935C131.101 14.8935 130.278 15.0996 129.543 15.5118C128.807 15.9241 128.212 16.5099 127.758 17.2693C127.325 18.007 127.109 18.864 127.109 19.8403V29.2133H124.675Z" fill="white"/>
<path d="M37.8945 29.2133L44.1578 20.8167L38.284 12.9408H41.3994L45.5857 19.0918L49.7396 12.9408H52.8551L46.9812 20.8167L53.277 29.2133H50.1615L45.5857 22.5741L40.9775 29.2133H37.8945Z" stroke="white" mask="url(#path-5-outside-1_1011_5648)"/>
<path d="M61.5503 29.4737C59.906 29.4737 58.4781 29.1049 57.2666 28.3672C56.055 27.6078 55.1247 26.588 54.4757 25.3079C53.8266 24.0278 53.5021 22.6175 53.5021 21.0771C53.5021 19.5149 53.8266 18.1046 54.4757 16.8462C55.1247 15.5661 56.055 14.5572 57.2666 13.8195C58.4781 13.0601 59.906 12.6804 61.5503 12.6804C63.2162 12.6804 64.6441 13.0601 65.834 13.8195C67.0456 14.5572 67.9759 15.5661 68.6249 16.8462C69.274 18.1046 69.5985 19.5149 69.5985 21.0771C69.5985 22.6175 69.274 24.0278 68.6249 25.3079C67.9759 26.588 67.0456 27.6078 65.834 28.3672C64.6441 29.1049 63.2162 29.4737 61.5503 29.4737ZM61.5503 27.2606C62.7618 27.2606 63.7787 26.9786 64.6008 26.4145C65.4446 25.8503 66.0828 25.1018 66.5155 24.1689C66.9482 23.2142 67.1645 22.1836 67.1645 21.0771C67.1645 19.9488 66.9482 18.9182 66.5155 17.9853C66.0828 17.0523 65.4446 16.3038 64.6008 15.7397C63.7787 15.1755 62.7618 14.8935 61.5503 14.8935C60.3604 14.8935 59.3435 15.1755 58.4998 15.7397C57.656 16.3038 57.0178 17.0523 56.5851 17.9853C56.1524 18.9182 55.936 19.9488 55.936 21.0771C55.936 22.1836 56.1524 23.2142 56.5851 24.1689C57.0178 25.1018 57.656 25.8503 58.4998 26.4145C59.3435 26.9786 60.3604 27.2606 61.5503 27.2606Z" stroke="white" mask="url(#path-5-outside-1_1011_5648)"/>
<path d="M79.5436 29.4737C77.8994 29.4737 76.4714 29.1049 75.2599 28.3672C74.0483 27.6078 73.118 26.588 72.469 25.3079C71.8199 24.0278 71.4954 22.6175 71.4954 21.0771C71.4954 19.5149 71.8199 18.1046 72.469 16.8462C73.118 15.5661 74.0483 14.5572 75.2599 13.8195C76.4714 13.0601 77.8994 12.6804 79.5436 12.6804C81.2095 12.6804 82.6374 13.0601 83.8273 13.8195C85.0389 14.5572 85.9692 15.5661 86.6182 16.8462C87.2673 18.1046 87.5918 19.5149 87.5918 21.0771C87.5918 22.6175 87.2673 24.0278 86.6182 25.3079C85.9692 26.588 85.0389 27.6078 83.8273 28.3672C82.6374 29.1049 81.2095 29.4737 79.5436 29.4737ZM79.5436 27.2606C80.7552 27.2606 81.772 26.9786 82.5941 26.4145C83.4379 25.8503 84.0761 25.1018 84.5088 24.1689C84.9415 23.2142 85.1579 22.1836 85.1579 21.0771C85.1579 19.9488 84.9415 18.9182 84.5088 17.9853C84.0761 17.0523 83.4379 16.3038 82.5941 15.7397C81.772 15.1755 80.7552 14.8935 79.5436 14.8935C78.3537 14.8935 77.3368 15.1755 76.4931 15.7397C75.6493 16.3038 75.0111 17.0523 74.5784 17.9853C74.1457 18.9182 73.9293 19.9488 73.9293 21.0771C73.9293 22.1836 74.1457 23.2142 74.5784 24.1689C75.0111 25.1018 75.6493 25.8503 76.4931 26.4145C77.3368 26.9786 78.3537 27.2606 79.5436 27.2606Z" stroke="white" mask="url(#path-5-outside-1_1011_5648)"/>
<path d="M90.4948 29.2133V12.9408H92.9287V15.4142C93.2965 14.7633 93.8806 14.145 94.6811 13.5591C95.4816 12.9733 96.5417 12.6804 97.8614 12.6804C98.9432 12.6804 99.9384 12.9733 100.847 13.5591C101.777 14.1233 102.502 14.926 103.021 15.9675C103.238 15.5986 103.573 15.1539 104.027 14.6331C104.503 14.1124 105.12 13.6568 105.877 13.2662C106.634 12.8757 107.543 12.6804 108.603 12.6804C109.642 12.6804 110.615 12.9516 111.524 13.494C112.433 14.0365 113.168 14.8176 113.731 15.8373C114.315 16.8353 114.607 18.0178 114.607 19.3847V29.2133H112.173V19.4498C112.173 18.0829 111.784 16.9872 111.005 16.1627C110.247 15.3166 109.296 14.8935 108.149 14.8935C106.959 14.8935 105.931 15.2949 105.066 16.0977C104.2 16.9004 103.768 18.0287 103.768 19.4824V29.2133H101.334V19.4498C101.334 18.0829 100.944 16.9872 100.166 16.1627C99.4083 15.3166 98.4564 14.8935 97.3098 14.8935C96.1198 14.8935 95.0922 15.2949 94.2268 16.0977C93.3614 16.9004 92.9287 18.0287 92.9287 19.4824V29.2133H90.4948Z" stroke="white" mask="url(#path-5-outside-1_1011_5648)"/>
<path d="M118.344 29.2133V12.9408H120.778V29.2133H118.344Z" stroke="white" mask="url(#path-5-outside-1_1011_5648)"/>
<path d="M124.675 29.2133V12.9408H127.109V15.4793C127.693 14.6982 128.407 14.0365 129.251 13.494C130.095 12.9516 131.176 12.6804 132.496 12.6804C133.621 12.6804 134.67 12.9516 135.644 13.494C136.639 14.0148 137.44 14.8067 138.045 15.8698C138.673 16.9113 138.986 18.2022 138.986 19.7427V29.2133H136.553V19.8078C136.553 18.3324 136.131 17.15 135.287 16.2604C134.443 15.3491 133.351 14.8935 132.009 14.8935C131.101 14.8935 130.278 15.0996 129.543 15.5118C128.807 15.9241 128.212 16.5099 127.758 17.2693C127.325 18.007 127.109 18.864 127.109 19.8403V29.2133H124.675Z" stroke="white" mask="url(#path-5-outside-1_1011_5648)"/>
<path d="M146.183 9.14172C146.399 9.54895 145.938 10.0106 145.531 9.79421L144.747 9.37789C144.622 9.31125 144.47 9.30744 144.336 9.36755L143.393 9.78987C142.999 9.96654 142.612 9.5799 142.789 9.18558L143.211 8.24298C143.272 8.10882 143.268 7.95716 143.201 7.83177L142.785 7.04844C142.568 6.64121 143.03 6.17952 143.437 6.39595L144.221 6.81227C144.346 6.87891 144.498 6.88273 144.632 6.82262L145.574 6.4003C145.969 6.22363 146.355 6.61027 146.179 7.00459L145.756 7.94718C145.696 8.08135 145.7 8.23301 145.767 8.3584L146.183 9.14172Z" fill="#00CDEE"/>
<path d="M121.372 9.14184C121.589 9.54908 121.127 10.0108 120.72 9.79434L119.937 9.37802C119.811 9.31138 119.66 9.30756 119.525 9.36767L118.583 9.78999C118.189 9.96666 117.802 9.58002 117.979 9.1857L118.401 8.2431C118.461 8.10894 118.457 7.95728 118.391 7.83189L117.974 7.04857C117.758 6.64133 118.219 6.17964 118.627 6.39607L119.41 6.8124C119.535 6.87904 119.687 6.88285 119.821 6.82274L120.764 6.40042C121.158 6.22375 121.545 6.61039 121.368 7.00471L120.946 7.94731C120.886 8.08147 120.89 8.23313 120.956 8.35852L121.372 9.14184Z" fill="#00CDEE"/>
<path d="M142.906 29.123V29.373H143.156H145.59H145.84V29.123V12.9598V12.7098H145.59H143.156H142.906V12.9598V29.123Z" fill="white" stroke="white" stroke-width="0.5"/>
<defs>
<linearGradient id="paint0_linear_1011_5648" x1="13.6441" y1="14.6256" x2="2.23664" y2="26.0331" gradientUnits="userSpaceOnUse">
<stop stop-color="#293FCC"/>
<stop offset="1" stop-color="#00CDEE"/>
</linearGradient>
</defs>
</svg>
