<svg width="127" height="26" viewBox="0 0 127 26" fill="none" xmlns="http://www.w3.org/2000/svg">
<path d="M1.89072 3.7795C2.39438 3.7795 2.86926 3.58278 3.22582 3.22614C3.42089 3.03102 3.56319 2.80232 3.65433 2.55923C3.74387 2.32093 3.97251 2.1626 4.22674 2.1626H4.23953C4.50015 2.1626 4.73679 2.31293 4.83433 2.55123C4.91747 2.75274 5.03899 2.93826 5.19888 3.09659C5.52186 3.41965 5.95037 3.59718 6.40607 3.59718C6.86176 3.59718 7.29027 3.41965 7.61325 3.09659C7.74116 2.96865 7.84669 2.82151 7.92504 2.66478C8.07534 2.36731 8.36154 2.1626 8.69412 2.1626H8.82203C9.12902 2.1626 9.42642 2.31773 9.56553 2.59121C9.63588 2.72716 9.72702 2.8551 9.84054 2.96865C10.1283 3.25653 10.5121 3.41645 10.9198 3.41645C11.3275 3.41645 11.7113 3.25812 11.9991 2.96865C12.0758 2.89188 12.1414 2.81032 12.1973 2.72396C12.4356 2.35771 12.8641 2.1626 13.3006 2.1626H13.3118C13.7371 2.1626 14.1144 2.3865 14.3751 2.72076C14.4087 2.76234 14.4438 2.80392 14.4822 2.8423C14.7364 3.09659 15.0738 3.23574 15.4336 3.23574C15.7933 3.23574 16.1307 3.095 16.3849 2.84071C16.4233 2.80232 16.4585 2.76234 16.492 2.72076C16.7846 2.34812 17.2579 2.1626 17.7328 2.1626H17.9055C18.3708 2.1626 18.7945 2.3785 19.1207 2.70956C19.1223 2.71116 19.1239 2.71276 19.1255 2.71436C19.3461 2.93506 19.6387 3.05501 19.9489 3.05501C20.2607 3.05501 20.5533 2.93347 20.7723 2.71436C20.993 2.49365 21.1129 2.20098 21.1129 1.89072C21.1129 1.57885 20.9914 1.28617 20.7723 1.06707C20.5517 0.846362 20.2591 0.726418 19.9489 0.726418C19.6371 0.726418 19.3445 0.847961 19.1255 1.06707C19.1239 1.06867 19.1223 1.07027 19.1207 1.07187C18.7945 1.40293 18.3692 1.61883 17.9055 1.61883H17.7328C17.2579 1.61883 16.7846 1.43331 16.492 1.06067C16.4585 1.01909 16.4233 0.979107 16.3849 0.939124C16.1307 0.684833 15.7933 0.545695 15.4336 0.545695C15.0738 0.545695 14.7364 0.686433 14.4822 0.939124C14.4438 0.977507 14.4071 1.01909 14.3751 1.06067C14.1129 1.39493 13.7355 1.61883 13.3118 1.61883H13.3006C12.8641 1.61883 12.4356 1.42211 12.1973 1.05747C12.1414 0.971108 12.0742 0.887945 11.9991 0.812777C11.7113 0.524901 11.3275 0.364972 10.9198 0.364972C10.5121 0.364972 10.1283 0.523302 9.84054 0.812777C9.72702 0.926328 9.63428 1.05428 9.56553 1.19022C9.42482 1.4637 9.12902 1.61883 8.82203 1.61883H8.69412C8.35994 1.61883 8.07374 1.41412 7.92344 1.11665C7.84349 0.958318 7.73956 0.812779 7.61165 0.684834C7.28867 0.361773 6.86016 0.184249 6.40447 0.184249C5.94878 0.184249 5.52027 0.361773 5.19728 0.684834C5.03739 0.844765 4.91427 1.03188 4.83113 1.235C4.7352 1.4701 4.50015 1.62043 4.24433 1.62043H4.24273C3.97731 1.62043 3.74067 1.4557 3.64473 1.20781C3.5536 0.971109 3.41289 0.748805 3.22262 0.558487C2.86606 0.201841 2.39118 0.00512695 1.88752 0.00512695C1.28633 0.00512695 0.729906 0.283406 0.362155 0.779193C-0.120718 1.43171 -0.120718 2.35451 0.362155 3.00703C0.733104 3.49962 1.29113 3.7795 1.89072 3.7795Z" fill="#3FE0D0"/>
<path d="M1.88983 8.29407C2.39349 8.29407 2.86837 8.09736 3.22493 7.74071C3.42 7.5456 3.5623 7.31689 3.65344 7.0738C3.74298 6.8355 3.97162 6.67717 4.22585 6.67717H4.23864C4.49926 6.67717 4.7359 6.82751 4.83344 7.0658C4.91658 7.26732 5.0381 7.45284 5.19799 7.61117C5.52097 7.93423 5.94948 8.11175 6.40518 8.11175C6.86087 8.11175 7.28938 7.93423 7.61236 7.61117C7.74027 7.48322 7.8458 7.33609 7.92415 7.17935C8.07445 6.88188 8.36065 6.67717 8.69323 6.67717H8.81155C9.12334 6.67717 9.42393 6.8339 9.56783 7.11058C9.63819 7.24653 9.72933 7.37287 9.84125 7.48322C10.1291 7.7711 10.5128 7.93103 10.9205 7.93103C11.3282 7.93103 11.712 7.7727 11.9998 7.48322C12.0733 7.40965 12.1389 7.32809 12.1965 7.24173C12.4379 6.87229 12.8712 6.67557 13.3109 6.67557H13.3141C13.7394 6.67557 14.1168 6.89947 14.3774 7.23373C14.411 7.27531 14.4461 7.3169 14.4845 7.35528C14.7387 7.60957 15.0761 7.74871 15.4359 7.74871C15.7956 7.74871 16.133 7.60797 16.3872 7.35528C16.4256 7.3169 16.4608 7.27691 16.4943 7.23373C16.787 6.86109 17.2602 6.67557 17.7351 6.67557H17.9078C18.3731 6.67557 18.7968 6.89148 19.123 7.22253C19.1246 7.22413 19.1262 7.22574 19.1278 7.22734C19.3484 7.44804 19.641 7.56798 19.9512 7.56798C20.3461 7.56798 20.7107 7.37287 20.9361 7.02742C21.1792 6.65478 21.1792 6.15259 20.9377 5.77836C20.7123 5.4329 20.3477 5.23619 19.9512 5.23619C19.6394 5.23619 19.3468 5.35774 19.1278 5.57685C19.1262 5.57845 19.1246 5.58004 19.123 5.58164C18.7968 5.9127 18.3715 6.12861 17.9078 6.12861H17.7367C17.2618 6.12861 16.7885 5.94309 16.4959 5.57045C16.4624 5.52887 16.4272 5.48888 16.3888 5.4489C16.1346 5.19461 15.7972 5.05547 15.4375 5.05547C15.0777 5.05547 14.7403 5.19621 14.4861 5.4489C14.4477 5.48728 14.411 5.52887 14.379 5.57045C14.1168 5.9047 13.7394 6.12861 13.3157 6.12861H13.3141C12.8728 6.12861 12.4395 5.93189 12.1981 5.56245C12.1421 5.47609 12.0765 5.39612 12.0014 5.32096C11.7136 5.03308 11.3298 4.87315 10.9221 4.87315C10.5144 4.87315 10.1307 5.03148 9.84285 5.32096C9.73092 5.43291 9.63978 5.55765 9.56943 5.69359C9.42553 5.97027 9.12493 6.12701 8.81314 6.12701H8.69642C8.36225 6.12701 8.07605 5.9223 7.92735 5.62482C7.8474 5.46649 7.74347 5.32096 7.61555 5.19301C7.29257 4.86995 6.86407 4.69243 6.40837 4.69243C5.95268 4.69243 5.52417 4.86995 5.20119 5.19301C5.0413 5.35294 4.91818 5.54006 4.83504 5.74317C4.7391 5.97827 4.50406 6.12861 4.24823 6.12861H4.24664C3.98122 6.12861 3.74457 5.96388 3.64864 5.71599C3.5575 5.47929 3.4168 5.25698 3.22653 5.06667C2.86997 4.71002 2.39509 4.51331 1.89143 4.51331C1.29024 4.51331 0.733812 4.79159 0.366061 5.28737C-0.116812 5.93989 -0.116812 6.86269 0.366061 7.51521C0.732213 8.01579 1.29024 8.29407 1.88983 8.29407Z" fill="#3FE0D0"/>
<path d="M1.88965 12.8106C2.39331 12.8106 2.86819 12.6138 3.22475 12.2572C3.41342 12.0685 3.55573 11.8462 3.64846 11.6047C3.7428 11.3568 3.97944 11.1937 4.24486 11.1937C4.49909 11.1937 4.73413 11.3424 4.83166 11.5775C4.91481 11.7806 5.03792 11.9677 5.19782 12.1277C5.5208 12.4507 5.94931 12.6282 6.405 12.6282C6.86069 12.6282 7.2892 12.4507 7.61218 12.1277C7.7401 11.9997 7.84562 11.8526 7.92397 11.6958C8.07427 11.3984 8.36048 11.1937 8.69305 11.1937H8.81137C9.12316 11.1937 9.42376 11.3504 9.56766 11.6271C9.63801 11.763 9.72915 11.8894 9.84107 11.9997C10.1289 12.2876 10.5126 12.4475 10.9203 12.4475C11.3281 12.4475 11.7118 12.2892 11.9996 11.9997C12.0732 11.9261 12.1387 11.8446 12.1963 11.7582C12.4377 11.3904 12.871 11.1921 13.3107 11.1921H13.3139C13.7392 11.1921 14.1166 11.416 14.3772 11.7502C14.4108 11.7918 14.446 11.8334 14.4843 11.8718C14.7386 12.1261 15.0759 12.2652 15.4357 12.2652C15.7954 12.2652 16.1328 12.1245 16.387 11.8718C16.4254 11.8334 16.4606 11.7934 16.4942 11.7502C16.7868 11.3776 17.2601 11.1921 17.7349 11.1921H17.9076C18.3729 11.1921 18.7966 11.408 19.1228 11.7374C19.1244 11.739 19.126 11.7406 19.1276 11.7422C19.3482 11.9629 19.6408 12.0829 19.951 12.0829C20.346 12.0829 20.7105 11.8878 20.936 11.5423C21.179 11.1697 21.179 10.6675 20.9376 10.2932C20.7121 9.94779 20.3476 9.75108 19.951 9.75108C19.6392 9.75108 19.3466 9.87263 19.1276 10.0917C19.126 10.0933 19.1244 10.0949 19.1228 10.0965C18.7966 10.4276 18.3713 10.6435 17.9076 10.6435H17.7365C17.2617 10.6435 16.7884 10.458 16.4958 10.0853C16.4622 10.0438 16.427 10.0038 16.3886 9.96379C16.1344 9.7095 15.797 9.57035 15.4373 9.57035C15.0775 9.57035 14.7402 9.7111 14.4859 9.96379C14.4476 10.0022 14.4108 10.0438 14.3788 10.0853C14.1166 10.4196 13.7392 10.6435 13.3155 10.6435H13.3139C12.8726 10.6435 12.4409 10.4468 12.1979 10.0773C12.1419 9.99098 12.0764 9.91101 12.0028 9.83585C11.715 9.54797 11.3313 9.38804 10.9235 9.38804C10.5158 9.38804 10.1321 9.54637 9.84427 9.83585C9.73235 9.9478 9.64121 10.0725 9.57086 10.2085C9.42696 10.4852 9.12636 10.6419 8.81457 10.6419H8.69785C8.36367 10.6419 8.07747 10.4372 7.92717 10.1381C7.84722 9.97979 7.74329 9.83425 7.61538 9.7063C7.2924 9.38324 6.86389 9.20572 6.4082 9.20572C5.95251 9.20572 5.524 9.38324 5.20101 9.7063C5.04112 9.86623 4.918 10.0534 4.83486 10.2565C4.73893 10.4916 4.50388 10.6419 4.24806 10.6419C3.98264 10.6419 3.746 10.4788 3.65166 10.2309C3.55892 9.98937 3.41662 9.76708 3.22635 9.57836C2.86979 9.22171 2.39491 9.02499 1.89125 9.02499C1.38759 9.02499 0.912715 9.22171 0.556156 9.57836C0.199598 9.93501 0.00292969 10.41 0.00292969 10.9138C0.00292969 11.4176 0.199598 11.8926 0.556156 12.2492C0.911116 12.6138 1.38599 12.8106 1.88965 12.8106Z" fill="#3FE0D0"/>
<path d="M19.9545 14.2739C19.6427 14.2739 19.3501 14.3955 19.131 14.6146C19.1294 14.6162 19.1278 14.6178 19.1262 14.6194C18.8001 14.9505 18.3748 15.1664 17.9111 15.1664H17.74C17.2651 15.1664 16.7918 14.9808 16.4992 14.6082C16.4657 14.5666 16.4305 14.5266 16.3921 14.4867C16.1379 14.2324 15.8005 14.0932 15.4407 14.0932C15.081 14.0932 14.7436 14.234 14.4894 14.4867C14.451 14.525 14.4142 14.5666 14.3823 14.6082C14.12 14.9425 13.7427 15.1664 13.319 15.1664H13.3078C12.8713 15.1664 12.4428 14.9696 12.2045 14.6034C12.1486 14.517 12.0814 14.4339 12.0063 14.3587C11.7185 14.0708 11.3347 13.9125 10.927 13.9125C10.5193 13.9125 10.1355 14.0708 9.84773 14.3603C9.73421 14.4739 9.64147 14.6018 9.57272 14.7377C9.43201 15.0112 9.13461 15.1664 8.82922 15.1664H8.70291C8.36873 15.1664 8.08252 14.9616 7.93223 14.6626C7.85228 14.5042 7.74835 14.3587 7.62044 14.2308C7.29746 13.9077 6.86895 13.7302 6.41325 13.7302C5.95756 13.7302 5.52905 13.9077 5.20607 14.2308C5.04458 14.3923 4.92306 14.5794 4.84152 14.7793C4.74398 15.016 4.51054 15.1664 4.25471 15.1664H4.25312C3.9877 15.1664 3.75106 15.0016 3.65512 14.7537C3.56398 14.517 3.42328 14.2947 3.23301 14.1044C2.87645 13.7478 2.40157 13.5511 1.89791 13.5511C1.29672 13.5511 0.738695 13.8293 0.370944 14.3267C-0.111929 14.9792 -0.111929 15.902 0.370944 16.5546C0.738695 17.0504 1.29672 17.3286 1.89631 17.3286C2.39997 17.3286 2.87485 17.1319 3.23141 16.7753C3.42648 16.5802 3.56878 16.353 3.65992 16.11C3.74946 15.8701 3.9781 15.7133 4.23393 15.7133H4.24672C4.50735 15.7133 4.74398 15.8653 4.84312 16.1052C4.92466 16.3035 5.04458 16.4874 5.20607 16.6489C5.52905 16.972 5.95756 17.1495 6.41325 17.1495C6.86895 17.1495 7.29906 16.972 7.62044 16.6489C7.74835 16.521 7.85388 16.3754 7.93223 16.2171C8.08252 15.9196 8.36873 15.7149 8.70131 15.7149H8.82922C9.13621 15.7149 9.43361 15.8701 9.57272 16.1435C9.64307 16.2795 9.73421 16.4074 9.84773 16.521C10.1355 16.8089 10.5193 16.9688 10.927 16.9688C11.3347 16.9688 11.7185 16.8105 12.0063 16.521C12.083 16.4442 12.1486 16.3626 12.2045 16.2763C12.4428 15.91 12.8713 15.7149 13.3078 15.7149H13.3206C13.7459 15.7149 14.1232 15.9388 14.3839 16.2731C14.4174 16.3147 14.4526 16.3563 14.491 16.3946C14.7452 16.6489 15.0826 16.7881 15.4423 16.7881C15.8021 16.7881 16.1395 16.6473 16.3937 16.3946C16.4321 16.3563 16.4673 16.3163 16.5008 16.2731C16.7934 15.9004 17.2667 15.7149 17.7416 15.7149H17.9143C18.3796 15.7149 18.8033 15.9308 19.1295 16.2619C19.1311 16.2635 19.1326 16.2651 19.1342 16.2667C19.3549 16.4874 19.6475 16.6073 19.9577 16.6073C20.2695 16.6073 20.5621 16.4858 20.7811 16.2667C21.0018 16.046 21.1217 15.7533 21.1217 15.443C21.1217 15.1312 21.0002 14.8385 20.7811 14.6194C20.5589 14.3955 20.2663 14.2739 19.9545 14.2739Z" fill="#3FE0D0"/>
<path d="M15.4392 18.6097C15.0795 18.6097 14.7421 18.7504 14.4879 19.0031C14.4495 19.0415 14.4127 19.0831 14.3808 19.1247C14.1185 19.4589 13.7412 19.6828 13.3175 19.6828H13.3063C12.8698 19.6828 12.4413 19.4861 12.203 19.1199C12.1471 19.0335 12.0799 18.9504 12.0048 18.8752C11.717 18.5873 11.3332 18.429 10.9255 18.429C10.5178 18.429 10.134 18.5873 9.84622 18.8752C9.7327 18.9887 9.63996 19.1167 9.57121 19.2542C9.4305 19.5277 9.1347 19.6828 8.82771 19.6828H8.6998C8.36562 19.6828 8.07942 19.4781 7.93072 19.1807C7.85077 19.0223 7.74684 18.8768 7.61893 18.7488C7.29595 18.4258 6.86744 18.2483 6.41174 18.2483C5.95605 18.2483 5.52754 18.4258 5.20456 18.7488C4.88158 19.0719 4.7041 19.5005 4.7041 19.9563C4.7041 20.4121 4.88158 20.8407 5.20456 21.1638C5.52754 21.4869 5.95605 21.6644 6.41174 21.6644C6.86744 21.6644 7.29595 21.4869 7.61893 21.1638C7.74684 21.0359 7.85237 20.8903 7.93072 20.732C8.08102 20.4345 8.36722 20.2298 8.6998 20.2298H8.82771C9.1347 20.2298 9.4321 20.3849 9.57121 20.6584C9.64156 20.7944 9.7327 20.9223 9.84622 21.0359C10.134 21.3237 10.5178 21.4837 10.9255 21.4837C11.3332 21.4837 11.717 21.3253 12.0048 21.0359C12.0815 20.9591 12.1471 20.8775 12.203 20.7912C12.4413 20.4249 12.8698 20.2298 13.3063 20.2298H13.3191C13.7444 20.2298 14.1217 20.4537 14.3824 20.788C14.4143 20.8295 14.4511 20.8695 14.4895 20.9079C14.7437 21.1622 15.0811 21.3029 15.4408 21.3029C15.8837 21.3029 16.2931 21.0902 16.5537 20.716C16.8671 20.2634 16.8655 19.6413 16.5489 19.1903C16.2851 18.8192 15.8789 18.6097 15.4392 18.6097Z" fill="#3FE0D0"/>
<path d="M10.9228 22.9454C10.5151 22.9454 10.1314 23.1037 9.84356 23.3932C9.24876 23.9881 9.24876 24.9573 9.84356 25.5522C10.1314 25.8401 10.5151 25.9985 10.9228 25.9985C11.3306 25.9985 11.7143 25.8401 12.0021 25.5522C12.5969 24.9573 12.5969 23.9881 12.0021 23.3932C11.7143 23.1037 11.3306 22.9454 10.9228 22.9454Z" fill="#3FE0D0"/>
<path d="M31.5798 18.2369V25.9984H27.7568V-3.05176e-05H36.7012C44.958 -3.05176e-05 46.8319 3.632 46.8319 9.10004C46.8319 14.5681 44.9596 18.2385 36.7012 18.2385H31.5798V18.2369ZM31.5798 3.44008V14.7968H36.7028C41.9009 14.7968 43.0105 13.3062 43.0105 9.10004C43.0105 4.7787 41.9025 3.44168 36.7028 3.44168H31.5798V3.44008Z" fill="#3FE0D0"/>
<path d="M72.8016 -3.05176e-05L64.6215 26H58.5824L50.4023 -3.05176e-05H54.4156L61.2958 22.4447H61.9082L68.7883 -3.05176e-05H72.8016Z" fill="#3FE0D0"/>
<path d="M81.5008 9.48228V26H77.6777V-3.05176e-05H81.5008L91.4012 20.4951H92.0136L101.914 -3.05176e-05H105.737V26H101.914V9.48228H101.302L94.46 23.8585H88.9549L82.1131 9.48228H81.5008Z" fill="#3FE0D0"/>
<path d="M126.749 22.5582V26H112.3V-3.05176e-05H116.123V22.5582H126.749Z" fill="#3FE0D0"/>
</svg>
