<?xml version="1.0" encoding="UTF-8"?>
<svg xmlns="http://www.w3.org/2000/svg" width="95" height="95" viewBox="0 0 95 95" fill="none">
  <g clip-path="url(#clip0_2068_46)">
    <path d="M86.9418 1.85188C85.6258 1.04624 84.0915 0.826726 82.6295 1.19221L39.942 12.7619C39.7236 12.4689 39.5041 12.2494 39.1386 12.0287C38.4812 11.6632 37.7503 11.5161 37.0193 11.6632L35.4839 12.0287L34.9724 9.61294C34.8264 8.88085 34.3874 8.29473 33.73 7.8557C33.2174 7.56264 32.6336 7.41667 32.0486 7.48909L31.39 5.80539C33.8024 4.85379 34.9724 3.75509 34.6069 2.14381C34.5334 1.70478 34.2414 1.11866 33.5105 0.679629C32.8519 0.240601 30.8786 -1.00407 19.9153 1.63123C8.00049 4.41363 6.83163 6.757 7.26953 8.58779C7.41549 9.17391 7.78097 9.68649 8.29242 9.97955C8.87741 10.345 9.60837 10.4921 10.6324 10.4921C11.4358 10.4921 12.4598 10.4186 13.6286 10.1991L13.7746 11.8828C12.5322 12.3218 11.7288 13.7136 12.0208 15.1042L15.456 30.0424C15.602 30.7745 16.041 31.3595 16.6984 31.7997C17.1375 32.0927 17.6489 32.2387 18.1604 32.2387C18.2339 32.2387 18.3063 32.2387 18.4534 32.2387L19.0373 33.7764C15.456 35.3877 15.0906 36.7784 15.3825 37.9506C15.5296 38.5356 15.8951 39.0482 16.4065 39.3412C16.9915 39.7078 17.7225 39.8538 18.7454 39.8538C21.0118 39.8538 24.593 39.0482 29.8557 37.8035L30.2947 37.73C38.7732 35.7532 43.3784 34.6556 42.7199 31.5802C42.6475 31.14 42.3544 30.555 41.6235 30.1149C41.1856 29.8229 40.2351 29.2368 36.7998 29.5299L36.6538 27.9921C37.8962 27.552 38.6996 26.1613 38.4077 24.7696L37.8227 22.3538L39.4306 21.9872C40.527 21.6941 41.3315 20.8161 41.551 19.7909L85.3339 12.9815H85.4074C86.8682 12.6884 88.1842 11.8092 88.9887 10.4921C89.8656 9.17391 90.1575 7.41667 89.792 5.80539C89.3541 4.04815 88.3301 2.65639 86.9418 1.85188ZM20.6463 4.48718C25.6159 3.31606 28.6857 2.94945 30.4407 2.94945C30.5867 2.94945 30.7326 2.94945 30.8786 2.94945C28.9788 3.75509 24.9585 4.70669 21.6692 5.51233L21.0842 5.58588C17.7225 6.39152 13.3367 7.41667 11.0703 7.56264C12.4598 6.83055 15.3825 5.73184 20.6463 4.48718ZM21.8152 8.44182L22.2542 8.36827C24.739 7.78215 26.8583 7.26957 28.6133 6.757L29.1983 8.22118L16.772 11.1507L16.626 9.61294C18.0879 9.31988 19.8418 8.88085 21.8152 8.44182ZM15.0181 14.5192L32.1945 10.4921L33.4369 15.9098L34.6793 21.4022L35.4839 25.0626L18.3063 29.0897L15.0181 14.5192ZM38.4077 32.2387C38.5537 32.2387 38.6996 32.2387 38.8456 32.2387C36.9458 33.0444 32.9255 33.996 29.6362 34.8016L29.1247 34.8751C25.7619 35.6797 21.3773 36.7048 19.1108 36.8519C20.4992 36.1198 23.3506 35.0211 28.6133 33.7764C33.6565 32.6053 36.7263 32.2387 38.4077 32.2387ZM27.9548 30.9205C25.3964 31.5066 23.3506 32.0927 21.7427 32.6777L21.3037 31.5066L33.73 28.5771L33.8024 29.7494C32.2681 29.9689 30.3671 30.3344 27.9548 30.9205ZM37.1653 19.3519L36.1413 14.9582L37.6032 14.5916L37.6767 14.8847L38.3341 17.8866L38.6272 19.0588L37.1653 19.3519ZM86.4303 8.73375C86.0648 9.31988 85.4074 9.75891 84.7489 9.906L41.112 16.7155L40.8925 15.7639L40.8201 15.6168L83.4329 4.04815C84.0915 3.82864 84.8224 3.9746 85.4798 4.34121C86.2108 4.78024 86.6498 5.51233 86.8682 6.31797C87.0153 7.12361 86.8682 8.00166 86.4303 8.73375Z" fill="#FEB22E"></path>
    <path d="M47.9134 29.4562L44.9895 32.3846C44.4045 32.9707 44.4045 33.8499 44.9895 34.4349C45.2815 34.7279 45.6469 34.875 46.0124 34.875C46.3779 34.875 46.7434 34.7279 47.0353 34.4349L49.9591 31.5065C50.5441 30.9204 50.5441 30.0423 49.9591 29.4562C49.3753 28.8701 48.4972 28.8701 47.9134 29.4562Z" fill="#FEB22E"></path>
    <path d="M46.0117 38.5355C46.0117 39.3411 46.6691 39.9996 47.4736 39.9996H51.8594C52.6639 39.9996 53.3213 39.3411 53.3213 38.5355C53.3213 37.7298 52.6639 37.0713 51.8594 37.0713H47.4736C46.6691 37.0713 46.0117 37.7298 46.0117 38.5355Z" fill="#FEB22E"></path>
    <path d="M11.655 34.875C12.0205 34.875 12.386 34.7279 12.6779 34.4349C13.2629 33.8499 13.2629 32.9707 12.6779 32.3846L9.75406 29.4562C9.17019 28.8701 8.29214 28.8701 7.70828 29.4562C7.12328 30.0423 7.12328 30.9204 7.70828 31.5065L10.6321 34.4349C10.924 34.7279 11.2895 34.875 11.655 34.875Z" fill="#FEB22E"></path>
    <path d="M4.34375 38.5355C4.34375 39.3411 5.00229 39.9996 5.80567 39.9996H10.1914C10.9959 39.9996 11.6533 39.3411 11.6533 38.5355C11.6533 37.7298 10.9959 37.0713 10.1914 37.0713H5.80567C5.00229 37.0713 4.34375 37.7298 4.34375 38.5355Z" fill="#FEB22E"></path>
    <mask id="mask0_2068_46" style="mask-type:luminance" maskUnits="userSpaceOnUse" x="0" y="68" width="96" height="28">
      <path d="M0 68.5337H95.0358V95.2701H0V68.5337Z" fill="white"></path>
    </mask>
    <g mask="url(#mask0_2068_46)">
      <path d="M93.3377 95.2597H14.4427C6.53913 95.2597 0.109375 89.2993 0.109375 81.9748C0.109375 74.6492 6.53913 68.6899 14.4427 68.6899H93.3377C93.9481 68.6899 94.5075 69.0117 94.778 69.5185C95.0497 70.0264 94.9864 70.6331 94.6167 71.0835C88.5914 78.4114 88.5914 85.5371 94.6167 92.865C94.9864 93.3154 95.0497 93.9221 94.778 94.43C94.5075 94.9379 93.9493 95.2597 93.3377 95.2597ZM14.4427 71.6707C8.31311 71.6707 3.32611 76.2936 3.32611 81.9748C3.32611 87.656 8.31311 92.2778 14.4427 92.2778H90.2785C85.7245 85.4302 85.7245 78.5194 90.2785 71.6707H14.4427Z" fill="#15416F"></path>
    </g>
    <path d="M88.4924 83.4653H19.0738C18.1856 83.4653 17.4648 82.7977 17.4648 81.9749C17.4648 81.151 18.1856 80.4834 19.0738 80.4834H88.4924C89.3806 80.4834 90.1001 81.151 90.1001 81.9749C90.1001 82.7977 89.3806 83.4653 88.4924 83.4653Z" fill="#15416F"></path>
    <mask id="mask1_2068_46" style="mask-type:luminance" maskUnits="userSpaceOnUse" x="17" y="68" width="4" height="28">
      <path d="M17.3828 68.5337H20.8762V95.2701H17.3828V68.5337Z" fill="white"></path>
    </mask>
    <g mask="url(#mask1_2068_46)">
      <path d="M19.066 95.2597C18.1778 95.2597 17.457 94.5921 17.457 93.7682V70.1803C17.457 69.3576 18.1778 68.6899 19.066 68.6899C19.9543 68.6899 20.6738 69.3576 20.6738 70.1803V93.7682C20.6738 94.5921 19.9543 95.2597 19.066 95.2597Z" fill="#15416F"></path>
    </g>
    <mask id="mask2_2068_46" style="mask-type:luminance" maskUnits="userSpaceOnUse" x="0" y="45" width="96" height="27">
      <path d="M0 45H95.0358V71.7697H0V45Z" fill="white"></path>
    </mask>
    <g mask="url(#mask2_2068_46)">
      <path d="M80.6084 71.6707H1.71334C1.10299 71.6707 0.543507 71.3501 0.273068 70.8421C0.00138782 70.3342 0.0634155 69.7275 0.434339 69.2771C6.45968 61.9492 6.45968 54.8235 0.434339 47.4957C0.0634155 47.0452 0.00138782 46.4385 0.273068 45.9306C0.543507 45.4227 1.10299 45.1021 1.71334 45.1021H80.6084C88.5119 45.1021 94.9417 51.0613 94.9417 58.3858C94.9417 65.7114 88.5119 71.6707 80.6084 71.6707ZM4.77253 68.6899H80.6084C86.7379 68.6899 91.7249 64.067 91.7249 58.3858C91.7249 52.7057 86.7379 48.0828 80.6084 48.0828H4.77253C9.32658 54.9316 9.32658 61.8423 4.77253 68.6899Z" fill="#15416F"></path>
    </g>
    <path d="M75.9872 59.877H6.56869C5.68045 59.877 4.96094 59.2093 4.96094 58.3866C4.96094 57.5627 5.68045 56.895 6.56869 56.895H75.9872C76.8754 56.895 77.5962 57.5627 77.5962 58.3866C77.5962 59.2093 76.8754 59.877 75.9872 59.877Z" fill="#15416F"></path>
    <path d="M75.9867 71.6707C75.0984 71.6707 74.3789 71.003 74.3789 70.1803V46.5924C74.3789 45.7697 75.0984 45.1021 75.9867 45.1021C76.8749 45.1021 77.5956 45.7697 77.5956 46.5924V70.1803C77.5956 71.003 76.8749 71.6707 75.9867 71.6707Z" fill="#15416F"></path>
  </g>
  <defs>
    <clipPath id="clip0_2068_46">
      <rect width="95" height="95" fill="white"></rect>
    </clipPath>
  </defs>
</svg>
