<?xml version="1.0" encoding="UTF-8"?>
<svg xmlns="http://www.w3.org/2000/svg" width="95" height="95" viewBox="0 0 95 95" fill="none">
  <path d="M45.9158 27.1802V29.0699C44.117 29.509 42.6993 30.9281 42.2602 32.727H30.2012C29.6932 32.727 29.2439 33.0502 29.0804 33.5304L23.2272 50.9214C23.0256 51.5203 22.9611 52.0942 23.022 52.7224C23.3841 56.3699 26.5376 59.2273 30.2012 59.2273C33.8649 59.2273 37.0184 56.3699 37.3812 52.7224C37.4442 52.0942 37.379 51.5203 37.176 50.9199L31.8461 35.0895H42.2602C42.6993 36.8883 44.117 38.3068 45.9158 38.7466V57.5956H45.7523C42.9434 57.5956 40.5325 59.6151 39.9395 62.2789C38.3363 62.5926 37.121 64.0088 37.121 65.7036V68.0111C37.121 68.6635 37.651 69.1935 38.3026 69.1935H55.8937C56.5461 69.1935 57.0761 68.6635 57.0761 68.0111V65.7036C57.0761 64.0088 55.8608 62.5941 54.2569 62.2789C53.6646 59.6172 51.2537 57.5956 48.4447 57.5956H48.2791V38.748C50.0779 38.309 51.4956 36.8905 51.9347 35.091H62.3488L57.0189 50.9214C56.8181 51.5225 56.7529 52.0942 56.8137 52.7246C57.1765 56.3721 60.33 59.2287 63.9937 59.2287C67.6573 59.2287 70.8101 56.3721 71.1729 52.7246C71.236 52.0942 71.1707 51.5225 70.9677 50.9236L65.1123 33.5326C64.9503 33.0517 64.4995 32.7284 63.9915 32.7284H51.9332C51.4941 30.9296 50.0757 29.5112 48.2776 29.0714V27.1816C48.2776 26.53 47.7476 26 47.0953 26C46.4436 26 45.9158 26.5256 45.9158 27.1802ZM30.2012 37.6111L34.6001 50.6751H25.8016L30.2012 37.6111ZM30.2012 56.8625C27.9267 56.8625 25.9453 55.2228 25.4622 53.042H34.9388C34.4579 55.2228 32.4765 56.8625 30.2012 56.8625ZM54.7099 66.8287H39.4828V65.7036C39.4828 65.0827 39.9871 64.5784 40.6072 64.5784H53.5833C54.2041 64.5784 54.7084 65.0827 54.7084 65.7036V66.8287H54.7099ZM51.7654 62.2122H42.4295C42.9691 60.8978 44.2672 59.9596 45.7523 59.9596H48.4447C49.9299 59.9596 51.228 60.8978 51.7654 62.2122ZM63.9937 56.8625C61.7184 56.8625 59.737 55.2228 59.2547 53.042H68.7305C68.2496 55.2228 66.2682 56.8625 63.9937 56.8625ZM68.3918 50.6773H59.5933L63.9915 37.6133L68.3918 50.6773ZM49.7129 33.9093C49.7129 35.3512 48.5393 36.5255 47.0974 36.5255C45.6556 36.5255 44.482 35.3512 44.482 33.9093C44.482 32.4645 45.6556 31.2924 47.0974 31.2924C48.5393 31.2902 49.7129 32.4645 49.7129 33.9093Z" fill="#FFA811"></path>
  <path d="M86.5085 16.537H84.9794C72.4478 16.537 57.1919 9.74482 48.7055 0.384664C48.482 0.140205 48.1681 0 47.8399 0C47.5117 0 47.1978 0.140205 46.9754 0.384664C38.4902 9.74242 23.2344 16.537 10.7004 16.537H9.17124C8.52438 16.537 8 17.0666 8 17.7185V47.6564C8 58.5732 12.226 68.0963 20.9193 76.7722C28.4984 84.3349 38.5033 90.1611 47.2893 94.8622C47.4618 94.9545 47.6484 95 47.8387 95C48.0278 95 48.2144 94.9545 48.3869 94.8622C57.1729 90.1611 67.1778 84.3349 74.7569 76.7722C83.4502 68.0963 87.6774 58.5732 87.6774 47.6564V17.7185C87.681 17.0642 87.1554 16.537 86.5085 16.537ZM85.3373 47.6564C85.3373 69.2143 67.3883 81.9622 47.8399 92.4799C28.2915 81.9622 10.3425 69.2143 10.3425 47.6564V18.9013H10.7004C23.4151 18.9013 38.8065 12.2278 47.8399 2.90355C56.8745 12.2278 72.2646 18.9013 84.9794 18.9013H85.3373V47.6564ZM81.1934 21.8324C69.8996 20.815 57.4131 15.4621 48.6021 7.86224C48.1621 7.48357 47.5177 7.48357 47.0789 7.86224C38.269 15.4621 25.7802 20.815 14.4864 21.8324C13.8835 21.8875 13.4186 22.398 13.4186 23.0115V47.6564C13.4186 56.9291 17.0572 65.122 24.5424 72.7087C31.1941 79.4493 39.7708 84.5518 47.281 88.6536C47.4558 88.7483 47.6473 88.795 47.8399 88.795C48.0337 88.795 48.2228 88.7483 48.3988 88.6536C55.9089 84.5518 64.4869 79.4493 71.1374 72.7087C78.6238 65.1244 82.2612 56.9291 82.2612 47.6564V23.0091C82.26 22.398 81.7962 21.8851 81.1934 21.8324ZM79.9163 47.6564C79.9163 65.9896 64.5737 77.0706 47.8399 86.269C31.1061 77.0706 15.7646 65.9896 15.7646 47.6564V24.0792C26.9051 22.8282 39.0134 17.6286 47.8399 10.3044C56.6676 17.6298 68.7747 22.8282 79.9163 24.0792V47.6564Z" fill="#15416F"></path>
</svg>
