<?xml version="1.0" encoding="UTF-8"?>
<svg xmlns="http://www.w3.org/2000/svg" width="95" height="95" viewBox="0 0 95 95" fill="none">
  <g clip-path="url(#clip0_2058_401)">
    <path d="M71.4714 27.8813V8.50609C71.4714 7.7583 70.9786 7.09577 70.2652 6.87441L48.1703 0.0762649C47.848 -0.0254216 47.4906 -0.0254216 47.1675 0.0762649L25.0733 6.87441C24.36 7.09577 23.8672 7.7583 23.8672 8.50609V27.8813C23.8672 40.8487 31.4812 49.4999 47.1675 54.3269C47.338 54.3777 47.4906 54.3949 47.6611 54.3949C47.8308 54.3949 48.0006 54.3777 48.1539 54.3269C63.8238 49.4999 71.455 40.8487 71.455 27.8813H71.4714ZM47.6775 50.9102C33.7754 46.5087 27.2831 39.1834 27.2831 27.8813V9.76388L47.6775 3.49216L68.0727 9.76388V27.8813C68.0727 39.1834 61.5804 46.5087 47.6775 50.9102Z" fill="#15416F"></path>
    <path d="M58.3757 17.4969L42.5869 33.2857L36.9949 27.6945C36.3324 27.032 35.2616 27.032 34.599 27.6945C33.9357 28.357 33.9357 29.4279 34.599 30.0912L41.3972 36.8893C41.7374 37.2288 42.1622 37.3821 42.6041 37.3821C43.0461 37.3821 43.4708 37.2124 43.8103 36.8893L60.806 19.8936C61.4694 19.2303 61.4694 18.1594 60.806 17.4969C60.1435 16.8344 59.0727 16.8344 58.4101 17.4969H58.3757Z" fill="#15416F"></path>
    <path d="M87.2461 20C82.9817 20 79.5087 23.4424 79.5087 27.6682V51.3051C76.4828 50.0949 72.8721 50.6745 70.4309 53.0431L56.5903 66.3867C53.6673 69.1992 52 73.1012 52 77.0894V93.2957C52 94.2329 52.7731 95 53.7187 95C54.6643 95 55.4382 94.2329 55.4382 93.2957V77.0894C55.4382 73.9702 56.6932 71.0392 58.9975 68.8235L72.8381 55.48C74.7633 53.6227 77.8929 53.6227 79.8181 55.48C81.5036 57.1161 81.7267 59.6557 80.3166 61.5129L69.7433 75.538C69.1759 76.2878 69.3302 77.3616 70.0867 77.9239C70.8432 78.4863 71.9265 78.3333 72.4939 77.5835L83.068 63.5584C85.286 60.6102 85.1823 56.7247 82.9651 53.8957V27.6855C82.9651 25.3341 84.8904 23.4251 87.2627 23.4251C89.6358 23.4251 91.561 25.3341 91.561 27.6855V63.6941C91.561 68.2274 90.1857 72.5733 87.5895 76.3051L76.3966 92.3239C75.864 93.091 76.0531 94.1647 76.827 94.6933C77.119 94.8973 77.4632 95 77.8066 95C78.3566 95 78.8899 94.7443 79.2167 94.2667L90.4097 78.2478C93.4182 73.9537 95 68.9263 95 63.6941V27.6855C95 23.4596 91.527 20.0173 87.2627 20.0173L87.2461 20Z" fill="#FFA811"></path>
    <path d="M24.552 53.0515C22.1101 50.6816 18.4994 50.1191 15.4736 51.3123V27.6708C15.4736 23.4431 12.0006 20 7.73718 20C3.47295 20 0 23.4431 0 27.6708V63.6877C0 68.9203 1.58178 73.9489 4.59103 78.2448L15.783 94.2673C16.1098 94.7443 16.6605 95 17.193 95C17.5372 95 17.864 94.898 18.1734 94.6933C18.9465 94.1653 19.153 93.0913 18.6031 92.3241L7.41038 76.3016C4.81418 72.5854 3.43892 68.2221 3.43892 63.6877V27.6708C3.43892 25.3181 5.36412 23.4094 7.73718 23.4094C10.1095 23.4094 12.0354 25.3181 12.0354 27.6708V53.8862C9.81747 56.7159 9.6972 60.6023 11.9318 63.5512L22.5057 77.5795C23.0731 78.3295 24.1563 78.5005 24.9128 77.9208C25.6693 77.3583 25.8244 76.2843 25.257 75.5343L14.6831 61.506C13.273 59.6476 13.4795 57.1081 15.1816 55.4717C17.1076 53.614 20.2363 53.614 22.1623 55.4717L36.0019 68.8183C38.2887 71.0172 39.5611 73.9661 39.5611 77.0853V93.2953C39.5611 94.2328 40.335 95 41.2805 95C42.2261 95 43 94.2328 43 93.2953V77.0853C43 73.0969 41.332 69.1933 38.409 66.3809L24.5686 53.0343L24.552 53.0515Z" fill="#FFA811"></path>
  </g>
  <defs>
    <clipPath id="clip0_2058_401">
      <rect width="95" height="95" fill="white"></rect>
    </clipPath>
  </defs>
</svg>
