<?xml version="1.0" encoding="UTF-8"?>
<svg xmlns="http://www.w3.org/2000/svg" width="95" height="95" viewBox="0 0 95 95" fill="none">
  <g clip-path="url(#clip0_2057_130)">
    <path d="M35.9471 79.8266L44.751 72.144C45.6034 71.3712 45.6976 70.0642 44.9652 69.1492L43.5944 67.5136C43.2287 67.0565 42.7011 66.8478 42.1442 66.753C41.5991 66.7095 41.0466 66.8821 40.5886 67.248L39.8171 67.8965C39.5277 67.7981 39.1647 67.6078 38.8716 67.2418C38.8099 67.2013 38.799 67.1506 38.7365 67.1102C39.5889 66.3375 39.6721 64.979 38.9397 64.0641L35.6751 60.1012C35.3086 59.6442 34.7707 59.3839 34.1631 59.3C33.6172 59.2567 33.0647 59.4293 32.6179 59.8466L32.5672 59.8575C32.4938 59.7664 32.4313 59.726 32.3579 59.635C32.0648 59.269 31.8746 58.881 31.8599 58.5621L32.6205 57.8628C33.4737 57.0899 33.5679 55.7829 32.8347 54.8681L31.4647 53.2324C31.098 52.7746 30.5713 52.5665 30.0144 52.4717C29.4693 52.4282 28.9166 52.6 28.4589 52.9667L19.7798 60.7293C18.9274 61.502 18.8324 62.8092 19.5656 63.724L20.9356 65.3598C21.3023 65.8175 21.8297 66.0255 22.3859 66.1204C22.6019 66.1278 22.818 66.1352 22.9715 66.1022C23.3301 66.0251 23.6158 65.8561 23.89 65.6365L24.7026 64.9253C24.9408 65.0356 25.2521 65.2361 25.5344 65.5514C25.6805 65.7344 25.8275 65.9173 25.8715 66.1223L25.7795 66.1951C25.2822 66.6241 25.0447 67.2647 25.074 67.9018C24.0636 68.4403 22.8233 69.404 21.8326 71.2788C21.0751 71.4954 19.7172 72.1624 18.2938 74.0234C18.0012 74.4075 17.7999 74.7191 17.5883 74.979C16.6807 76.2464 16.4683 76.5065 9.96219 81.6575C6.16031 84.673 6.06925 84.7464 5.34843 85.3841C4.94194 85.7389 4.26151 86.3141 2.58538 87.7466C1.539 88.6149 0.837177 89.838 0.749584 90.9292C0.698702 91.6903 0.893363 92.3457 1.32235 92.8431C1.9703 93.6155 3.04302 93.8677 4.17088 93.6253C4.93942 93.4602 5.81823 93.0568 6.5383 92.4194C8.30625 90.9133 8.93524 90.3492 9.34173 89.9943C10.0736 89.4081 10.2565 89.2612 13.6955 86.0561C19.7843 80.4583 20.0695 80.2902 21.4787 79.6114C21.7638 79.4433 22.1121 79.3146 22.5912 79.051C24.6515 77.911 25.4673 76.7172 25.848 75.992C27.5864 75.3501 28.6438 74.5333 29.3831 73.731C29.6939 73.9325 29.9833 74.0309 30.3133 74.0676C30.5292 74.0743 30.6938 74.0927 30.8988 74.0486C31.2573 73.9716 31.594 73.7924 31.8687 73.5719L32.0517 73.4257C32.0628 73.4772 32.1142 73.4661 32.1251 73.5168C32.4073 73.8321 32.5351 74.1797 32.6525 74.4758L31.7892 75.1979C30.9367 75.9707 30.8418 77.2779 31.5749 78.1926L32.945 79.8284C33.3115 80.2854 33.8391 80.4941 34.3952 80.589C34.6111 80.5956 34.8272 80.603 34.9807 80.57C35.387 80.2144 35.6722 80.0463 35.9471 79.8266ZM22.5199 64.0008L21.1499 62.365L21.1388 62.3136L29.9429 54.6317L31.3238 56.3182L22.5199 64.0008ZM31.1585 61.2864L27.5248 64.5871C27.4404 64.4446 27.2942 64.2615 27.2097 64.119C26.99 63.8441 26.719 63.5811 26.4589 63.3687L30.2977 60.0239C30.4768 60.3605 30.6459 60.6463 30.9272 60.961C30.9491 61.0631 31.0227 61.1549 31.1585 61.2864ZM21.6892 77.1002C21.2616 77.3528 20.9647 77.4704 20.6797 77.6392C19.0359 78.4745 18.5164 78.8006 12.4394 84.4497C8.98856 87.6035 8.85711 87.7393 8.17667 88.3145C7.71892 88.6812 7.08992 89.2453 5.3218 90.7506C4.32687 91.6078 3.26888 91.6745 3.04916 91.3997C2.97578 91.3086 2.94277 91.1551 2.9721 91.0411C2.98611 90.6092 3.32643 89.9465 4.04725 89.3088C5.77406 87.8654 6.40381 87.3011 6.84992 86.8839C7.57074 86.2463 7.66257 86.1727 11.4242 83.2204C17.9707 78.007 18.366 77.5999 19.4337 76.0837C19.5947 75.8346 19.796 75.5231 20.0996 75.1903C20.9777 74.0361 21.7824 73.5419 22.2217 73.3399L23.8848 75.3415C23.4903 75.7484 22.8825 76.4148 21.6892 77.1002ZM25.334 73.8509L23.8171 72.0323C24.5996 70.6842 25.4742 70.0143 26.0966 69.666L28.002 72.0438C27.5368 72.6265 26.725 73.3375 25.334 73.8509ZM30.5274 71.8232L27.2525 67.8087C27.19 67.7684 27.2195 67.6552 27.2709 67.6441L34.1313 61.3985L37.395 65.3607C37.4575 65.4011 37.4282 65.515 37.3775 65.5259L30.5274 71.8232ZM38.2145 69.4209L34.3758 72.7656C34.2075 72.4797 34.0386 72.1947 33.8189 71.9198C33.8079 71.8684 33.7455 71.8287 33.683 71.7884L37.3168 68.4877C37.3278 68.5391 37.3902 68.5787 37.4012 68.6302C37.5804 68.9668 37.8919 69.1681 38.2145 69.4209ZM33.207 76.5551L42.0101 68.8726L43.3912 70.5598L34.5881 78.2423L33.207 76.5551Z" fill="#FFA811"></path>
    <path d="M48.8682 89H36.131C34.9589 89 34 89.9004 34 91V94C34 94.5498 34.4791 95 35.0651 95H49.9341C50.5202 95 51 94.5498 51 94V91C51 89.9004 50.0403 89 48.8682 89ZM49.5 93.5H35.5V90.5H49.5V93.5Z" fill="#FFA811"></path>
    <path d="M46.6206 84H38.3789C37.6205 84 37 84.6002 37 85.3333V87.3333C37 87.6999 37.31 88 37.6892 88H47.3103C47.6895 88 48 87.6999 48 87.3333V85.3333C48 84.6002 47.379 84 46.6206 84ZM46.6206 86.6667H38.3789V85.3333H46.6206V86.6667Z" fill="#FFA811"></path>
    <path d="M38.9796 20C37.5659 20 36.2106 20.5678 35.2601 21.5576C34.3998 22.4535 33.9547 23.6044 34.0036 24.8005C34.159 28.543 34.7844 35.2273 35.2419 40.1073L35.5565 43.5008C35.7128 45.2282 37.1832 46.5307 38.9806 46.5307C40.778 46.5307 42.2474 45.2282 42.4038 43.5017L42.7184 40.1083C43.1759 35.2282 43.8012 28.544 43.9566 24.8014C44.0065 23.6073 43.5605 22.4563 42.7021 21.5605C41.7477 20.5678 40.3925 20 38.9796 20ZM39.8764 39.8417L39.5618 43.2466C39.5388 43.4883 39.2837 43.6801 38.9796 43.6801C38.6746 43.6801 38.4176 43.4883 38.3965 43.2447L38.0809 39.8417C37.6273 34.9913 37.0048 28.3502 36.8523 24.6815C36.8302 24.154 37.093 23.7646 37.3175 23.5315C37.7318 23.0999 38.338 22.8506 38.9777 22.8506C39.6194 22.8506 40.2246 23.0999 40.6389 23.5315C40.8634 23.7646 41.1252 24.154 41.1032 24.6806C40.9535 28.3502 40.3311 34.9913 39.8764 39.8417Z" fill="#15416F"></path>
    <path d="M38.9789 48.4141C36.8851 48.4141 35.1836 50.1165 35.1836 52.2074C35.1836 54.2984 36.8851 55.9999 38.9789 55.9999C41.0727 55.9999 42.7742 54.2984 42.7742 52.2074C42.7742 50.1165 41.0727 48.4141 38.9789 48.4141ZM38.9789 53.1484C38.459 53.1484 38.0361 52.7263 38.0361 52.2074C38.0361 51.6876 38.459 51.2646 38.9789 51.2646C39.4987 51.2646 39.9217 51.6876 39.9217 52.2074C39.9217 52.7273 39.4987 53.1484 38.9789 53.1484Z" fill="#15416F"></path>
    <path fill-rule="evenodd" clip-rule="evenodd" d="M37.153 1.44464C38.3283 -0.493781 41.1463 -0.47851 42.3004 1.47259L62.4503 35.5355L59.0076 37.572L39.7078 4.94625L4.78042 62.5538H15.2289C16.3335 62.5538 17.2289 63.4492 17.2289 64.5538V64.5538C17.2289 65.6583 16.3335 66.5538 15.2289 66.5538H3.00468C0.666618 66.5538 -0.772831 63.9977 0.439354 61.9984L37.153 1.44464L38.8633 2.48155L38.8692 2.48517M38.8633 2.48155L37.153 1.44464ZM55.7289 66.5538H44.2289C43.1244 66.5538 42.2289 65.6583 42.2289 64.5538V64.5538C42.2289 63.4492 43.1244 62.5538 44.2289 62.5538H55.7289V66.5538Z" fill="#15416F"></path>
    <path d="M78.6181 45.5992L68.6033 57.5125L64.7928 54.1287C64.101 53.5147 63.0411 53.5745 62.4226 54.2686C61.8075 54.9605 61.8718 56.0215 62.5637 56.6355L67.6642 61.1649C67.9724 61.4392 68.3696 61.5882 68.7794 61.5882C68.82 61.5882 68.8618 61.5859 68.9024 61.5836C69.3527 61.5498 69.7726 61.3365 70.0649 60.9888L81.1892 47.7539C81.7852 47.0439 81.6938 45.9875 80.985 45.3915C80.2728 44.7967 79.2152 44.8904 78.6181 45.5992Z" fill="#15416F"></path>
    <path d="M92.3641 37.5999C85.6379 36.986 78.2014 33.7565 72.9539 29.1713C72.6919 28.9429 72.3081 28.9429 72.0468 29.1713C66.8 33.7565 59.3621 36.986 52.6359 37.5999C52.2769 37.6331 52 37.9411 52 38.3113V53.1801C52 58.7745 54.167 63.7175 58.6249 68.2947C62.5864 72.3615 67.6944 75.4399 72.1672 77.9147C72.2713 77.9718 72.3853 78 72.5 78C72.6154 78 72.728 77.9718 72.8328 77.9147C77.3056 75.4399 82.4143 72.3615 86.3751 68.2947C90.8337 63.719 93 58.7745 93 53.1801V38.3098C92.9993 37.9411 92.7231 37.6317 92.3641 37.5999ZM91.6035 53.1801C91.6035 64.241 82.466 70.9264 72.5 76.476C62.534 70.9264 53.3972 64.241 53.3972 53.1801V38.9554C60.032 38.2006 67.2433 35.0636 72.5 30.6448C77.7574 35.0644 84.968 38.2006 91.6035 38.9554V53.1801Z" fill="#15416F" stroke="#15416F" stroke-width="2"></path>
  </g>
  <defs>
    <clipPath id="clip0_2057_130">
      <rect width="95" height="95" fill="white"></rect>
    </clipPath>
  </defs>
</svg>
