<?xml version="1.0" encoding="UTF-8"?>
<svg xmlns="http://www.w3.org/2000/svg" width="95" height="95" viewBox="0 0 95 95" fill="none">
  <g clip-path="url(#clip0_2059_694)">
    <path d="M74.3085 67.5964C73.4278 67.5964 72.5881 67.4579 71.7884 67.1818C70.9897 66.9074 70.2937 66.5215 69.7022 66.025C69.1107 65.5293 68.6761 64.9579 68.4008 64.3107C68.264 64.0206 68.2675 63.7514 68.4113 63.5032C68.5559 63.2558 68.8006 63.0981 69.1456 63.0284C69.393 62.9736 69.6369 63.011 69.8773 63.1426C70.1186 63.2732 70.3015 63.4692 70.4252 63.7314C70.5907 64.0755 70.8616 64.3926 71.2414 64.6826C71.6195 64.971 72.0776 65.2053 72.6151 65.3839C73.1526 65.5642 73.7161 65.6539 74.3085 65.6539C74.9696 65.6539 75.5794 65.5502 76.136 65.342C76.6935 65.1365 77.1447 64.8377 77.4897 64.444C77.8329 64.0511 78.0054 63.5659 78.0054 62.9875C78.0054 62.2567 77.7196 61.6025 77.1482 61.0241C76.5776 60.4448 75.6378 60.0868 74.3285 59.9483C72.6212 59.7837 71.2789 59.2802 70.3015 58.4405C69.3241 57.5999 68.8346 56.5589 68.8346 55.3194C68.8346 54.41 69.0898 53.6391 69.5994 53.0049C70.1081 52.3708 70.7998 51.8882 71.6752 51.558C72.5489 51.227 73.5236 51.0615 74.5977 51.0615C75.4374 51.0615 76.1709 51.1791 76.7972 51.4134C77.4235 51.6478 77.9714 51.9709 78.4392 52.3856C78.9078 52.7976 79.3137 53.2871 79.6578 53.8516C79.8512 54.1556 79.9304 54.4404 79.8956 54.7096C79.8616 54.9779 79.7266 55.1887 79.4932 55.3403C79.231 55.5058 78.9487 55.5389 78.6456 55.4439C78.3433 55.3472 78.1151 55.1678 77.9644 54.9065C77.744 54.5067 77.4757 54.1687 77.1587 53.8934C76.8416 53.6181 76.4696 53.4004 76.0437 53.2418C75.616 53.0842 75.1142 53.0049 74.5358 53.0049C73.5167 52.991 72.663 53.18 71.974 53.5729C71.2858 53.9648 70.9417 54.5685 70.9417 55.3821C70.9417 55.7941 71.048 56.1913 71.2623 56.5694C71.4757 56.9492 71.8686 57.2767 72.4383 57.5511C73.0106 57.8272 73.8329 58.0197 74.9078 58.1295C76.5463 58.2959 77.8233 58.795 78.7388 59.6286C79.6543 60.4631 80.1125 61.5615 80.1125 62.9248C80.1125 63.7105 79.9505 64.3926 79.6273 64.971C79.3033 65.5502 78.8695 66.0363 78.3259 66.4283C77.7815 66.8211 77.163 67.1138 76.4679 67.3072C75.771 67.4997 75.0515 67.5964 74.3085 67.5964Z" fill="#FFA811" stroke="#FFA811" stroke-width="0.7"></path>
    <path d="M74.714 51.8469C74.2959 51.8469 73.957 51.5072 73.957 51.0891V48.0603C73.957 47.6422 74.2959 47.3042 74.714 47.3042C75.1321 47.3042 75.4701 47.6422 75.4701 48.0603V51.0891C75.4701 51.5072 75.1321 51.8469 74.714 51.8469Z" fill="#FFA811" stroke="#FFA811" stroke-width="0.7"></path>
    <path d="M74.714 70.7736C74.2959 70.7736 73.957 70.4348 73.957 70.0167V66.9888C73.957 66.5698 74.2959 66.231 74.714 66.231C75.1321 66.231 75.4701 66.5698 75.4701 66.9888V70.0167C75.4701 70.4348 75.1321 70.7736 74.714 70.7736Z" fill="#FFA811" stroke="#FFA811" stroke-width="0.7"></path>
    <path d="M74.3348 41.2479C64.5308 41.2479 56.5543 49.2287 56.5543 59.0388C56.5543 68.849 64.5308 76.8298 74.3348 76.8298C84.138 76.8298 92.1145 68.849 92.1145 59.0388C92.1145 49.2287 84.138 41.2479 74.3348 41.2479ZM74.3348 79.1016C63.2791 79.1016 54.2852 70.1016 54.2852 59.0388C54.2852 47.9761 63.2791 38.9761 74.3348 38.9761C85.3897 38.9761 94.3845 47.9761 94.3845 59.0388C94.3845 70.1016 85.3897 79.1016 74.3348 79.1016Z" fill="#FFA811" stroke="#FFA811" stroke-width="0.7"></path>
    <path d="M62.8702 87.4287C62.1289 87.4287 61.4164 87.7475 60.9138 88.2998C60.4042 88.8599 60.1629 89.5829 60.2343 90.3355C60.3615 91.6779 61.608 92.7293 63.0741 92.7293H89.3511C90.0907 92.7293 90.8041 92.4104 91.3076 91.8573C91.8163 91.2972 92.0576 90.5751 91.987 89.8233C91.8598 88.4801 90.6116 87.4287 89.1464 87.4287H62.8702ZM89.3511 95.0002H63.0741C60.4504 95.0002 58.2099 93.0446 57.9747 90.5489C57.8449 89.1718 58.304 87.7955 59.2343 86.7719C60.1664 85.7467 61.4913 85.1587 62.8702 85.1587H89.1464C91.7701 85.1587 94.0105 87.1134 94.2457 89.609C94.3764 90.9854 93.9173 92.3617 92.9861 93.3852C92.0541 94.4113 90.7283 95.0002 89.3511 95.0002Z" fill="#FFA811" stroke="#FFA811" stroke-width="0.7"></path>
    <path d="M58.1094 79.1014C57.369 79.1014 56.6555 79.4184 56.1529 79.9716C55.6433 80.5308 55.402 81.2538 55.4726 82.0073C55.5998 83.3488 56.848 84.4002 58.3132 84.4002H84.5903C85.3298 84.4002 86.0432 84.0822 86.5476 83.5282C87.0563 82.969 87.2967 82.2468 87.2262 81.4942C87.099 80.1519 85.8516 79.1014 84.3856 79.1014H58.1094ZM84.5903 86.6719H58.3132C55.6886 86.6719 53.4482 84.7155 53.213 82.2198C53.0832 80.8435 53.5423 79.4664 54.4735 78.4428C55.4055 77.4176 56.7313 76.8296 58.1094 76.8296H84.3856C87.0093 76.8296 89.2497 78.7852 89.4857 81.2817C89.6164 82.6571 89.1565 84.0334 88.2262 85.057C87.2932 86.0831 85.9674 86.6719 84.5903 86.6719Z" fill="#FFA811" stroke="#FFA811" stroke-width="0.7"></path>
    <path d="M30.65 80.8741H27.9852C27.2487 80.8741 26.6523 80.2767 26.6523 79.5412C26.6523 78.8047 27.2487 78.2073 27.9852 78.2073H30.65C32.3655 78.2073 33.7597 76.811 33.7597 75.0955C33.7597 73.3801 32.3655 71.9838 30.65 71.9838H27.9852C27.2487 71.9838 26.6523 71.3864 26.6523 70.6509C26.6523 69.9133 27.2487 69.3159 27.9852 69.3159H30.65C33.8344 69.3159 36.4255 71.9091 36.4255 75.0955C36.4255 78.282 33.8344 80.8741 30.65 80.8741Z" fill="#15416F"></path>
    <path d="M9.32923 80.8736H6.43635C2.88777 80.8736 0 77.9837 0 74.4331V50.6016C0 45.2332 4.36387 40.8653 9.7292 40.8653H19.6303L21.714 35.3946C21.9748 34.7061 22.7482 34.3614 23.4325 34.6233C24.121 34.8862 24.4657 35.6554 24.2028 36.3449L21.7928 42.6749C21.5964 43.1914 21.1002 43.5341 20.5478 43.5341H9.7292C5.83384 43.5341 2.66476 46.7042 2.66476 50.6016V74.4331C2.66476 76.5128 4.35671 78.2067 6.43635 78.2067H9.32923C10.0647 78.2067 10.6611 78.8041 10.6611 79.5407C10.6611 80.2762 10.0647 80.8736 9.32923 80.8736Z" fill="#15416F"></path>
    <path d="M38.9632 28.6568C38.4721 28.6568 38.0742 28.2588 38.0742 27.7678C38.0742 27.2758 38.4721 26.8789 38.9632 26.8789C40.2459 26.8789 41.2883 25.9245 41.2883 24.7532C41.2883 23.5799 40.2459 22.6265 38.9632 22.6265C38.4721 22.6265 38.0742 22.2286 38.0742 21.7376C38.0742 21.2455 38.4721 20.8486 38.9632 20.8486C41.2259 20.8486 43.0662 22.5999 43.0662 24.7532C43.0662 26.9065 41.2259 28.6568 38.9632 28.6568Z" fill="#15416F" stroke="#15416F"></path>
    <path d="M16.8296 28.6568C14.5668 28.6568 12.7266 26.9065 12.7266 24.7532C12.7266 22.5999 14.5668 20.8486 16.8296 20.8486C17.3206 20.8486 17.7185 21.2455 17.7185 21.7376C17.7185 22.2286 17.3206 22.6265 16.8296 22.6265C15.5478 22.6265 14.5034 23.5799 14.5034 24.7532C14.5034 25.9245 15.5478 26.8789 16.8296 26.8789C17.3206 26.8789 17.7185 27.2758 17.7185 27.7678C17.7185 28.2588 17.3206 28.6568 16.8296 28.6568Z" fill="#15416F" stroke="#15416F"></path>
    <path d="M36.1014 43.6563C35.5725 43.6563 35.0723 43.3392 34.8636 42.8185L32.7206 37.4583C32.4474 36.774 32.7799 35.9975 33.4622 35.7234C34.1486 35.4513 34.9229 35.7838 35.195 36.4661L37.3381 41.8273C37.6112 42.5106 37.2788 43.287 36.5965 43.5612C36.4338 43.6256 36.265 43.6563 36.1014 43.6563Z" fill="#15416F"></path>
    <path d="M28.5568 49.5207C24.0773 49.5207 20.4336 45.966 20.4336 41.596C20.4336 41.1039 20.8305 40.707 21.3215 40.707C21.8135 40.707 22.2104 41.1039 22.2104 41.596C22.2104 44.985 25.0573 47.7428 28.5568 47.7428C32.0552 47.7428 34.9021 44.985 34.9021 41.596C34.9021 41.1039 35.3 40.707 35.791 40.707C36.282 40.707 36.6789 41.1039 36.6789 41.596C36.6789 45.966 33.0352 49.5207 28.5568 49.5207Z" fill="#15416F" stroke="#15416F"></path>
    <path d="M27.9993 38.3882C25.5003 38.3882 23.082 37.5658 21.1037 36.0007C18.4184 33.877 16.8789 30.6977 16.8789 27.278V22.641C16.8789 21.9045 17.4763 21.3071 18.2118 21.3071C18.9473 21.3071 19.5447 21.9045 19.5447 22.641V27.278C19.5447 29.8773 20.716 32.2935 22.7557 33.9077C24.7975 35.524 27.4623 36.0968 30.0708 35.4759C33.7523 34.6023 36.4263 31.0936 36.4263 27.1348V22.641C36.4263 21.9045 37.0237 21.3071 37.7592 21.3071C38.4947 21.3071 39.0921 21.9045 39.0921 22.641V27.1348C39.0921 32.315 35.5558 36.9142 30.6856 38.0721C29.7905 38.2839 28.8893 38.3882 27.9993 38.3882Z" fill="#15416F"></path>
    <path d="M37.7599 95H11.993C11.2576 95 10.6602 94.4014 10.6602 93.6635V80.3355C10.6602 79.5986 11.2576 79 11.993 79C12.7296 79 13.3259 79.5986 13.3259 80.3355V92.3279H37.7599C38.4954 92.3279 39.0928 92.9265 39.0928 93.6635C39.0928 94.4014 38.4954 95 37.7599 95Z" fill="#15416F"></path>
    <path d="M52.6696 47.9333C52.2666 47.9333 51.8697 47.7512 51.6078 47.4065C49.7379 44.9453 46.8961 43.5336 43.812 43.5336H35.9813C35.2448 43.5336 34.6484 42.9362 34.6484 42.1997C34.6484 41.4621 35.2448 40.8647 35.9813 40.8647H43.812C47.737 40.8647 51.3521 42.661 53.7294 45.7933C54.1744 46.3794 54.0608 47.2162 53.4747 47.6612C53.2343 47.8443 52.9509 47.9333 52.6696 47.9333Z" fill="#15416F"></path>
    <path d="M27.5426 80.8742H9.86104C9.61144 80.8742 9.37105 80.7688 9.20329 80.5816C9.0345 80.3965 8.95164 80.1469 8.97722 79.8963L12.7099 42.5568C12.758 42.0679 13.1897 41.717 13.6828 41.761C14.1697 41.8091 14.5257 42.2448 14.4776 42.7338L10.8441 79.0963H26.6547V69.8223L20.1928 42.8525C20.0782 42.3747 20.3728 41.895 20.8495 41.7804C21.3344 41.6679 21.807 41.9605 21.9215 42.4371L28.407 69.5093C28.4233 69.5778 28.4315 69.6464 28.4315 69.717V79.9842C28.4315 80.4763 28.0346 80.8742 27.5426 80.8742Z" fill="#15416F" stroke="#15416F"></path>
    <path d="M32.0727 71.8273C31.9858 71.8273 31.8968 71.814 31.8088 71.7874C31.3403 71.6422 31.0784 71.144 31.2237 70.6745L39.62 43.6023C39.7652 43.1338 40.2563 42.873 40.733 43.0182C41.2015 43.1635 41.4633 43.6606 41.3171 44.1312L32.9207 71.2013C32.8031 71.5828 32.4522 71.8273 32.0727 71.8273Z" fill="#15416F" stroke="#15416F"></path>
    <path d="M19.0115 17.7511C18.633 17.7511 18.2852 17.9055 18.0285 18.1838C17.7738 18.462 17.651 18.8262 17.6838 19.2057C17.7431 19.8747 18.408 20.4189 19.1691 20.4189H37.671C38.0475 20.4189 38.3963 20.2644 38.653 19.9852C38.9078 19.7069 39.0305 19.3438 38.9978 18.9622C38.9395 18.2942 38.2735 17.7511 37.5125 17.7511H19.0115ZM37.671 22.1968H19.1691C17.4812 22.1968 16.0522 20.9498 15.9141 19.3602C15.8384 18.4907 16.132 17.6232 16.7191 16.9818C17.3063 16.3415 18.1431 15.9722 19.0115 15.9722H37.5125C39.2003 15.9722 40.6304 17.2191 40.7685 18.8088C40.8432 19.6803 40.5486 20.5468 39.9614 21.1881C39.3742 21.8295 38.5385 22.1968 37.671 22.1968Z" fill="#15416F" stroke="#15416F"></path>
    <path d="M38.2032 16.8617C37.7121 16.8617 37.3142 16.4638 37.3142 15.9718V13.9719C37.3142 9.79526 34.5042 6.09937 30.4799 4.98334C30.1567 4.89434 29.9122 4.63042 29.8457 4.30103C29.6688 3.41824 28.8862 2.7789 27.986 2.7789C27.0848 2.7789 26.3022 3.41824 26.1253 4.30206C26.0588 4.63042 25.8153 4.89434 25.4921 4.98334C21.4668 6.10039 18.6568 9.79628 18.6568 13.9719V15.9718C18.6568 16.4638 18.2589 16.8617 17.7678 16.8617C17.2768 16.8617 16.8789 16.4638 16.8789 15.9718V13.9719C16.8789 9.16922 20.0019 4.89843 24.5336 3.41619C25.0553 1.98816 26.4291 1 27.986 1C29.5419 1 30.9157 1.98816 31.4374 3.41619C35.9691 4.89843 39.0921 9.16819 39.0921 13.9719V15.9718C39.0921 16.4638 38.6942 16.8617 38.2032 16.8617Z" fill="#15416F" stroke="#15416F"></path>
  </g>
  <defs>
    <clipPath id="clip0_2059_694">
      <rect width="95" height="95" fill="white"></rect>
    </clipPath>
  </defs>
</svg>
