<?xml version="1.0" encoding="UTF-8"?>
<svg xmlns="http://www.w3.org/2000/svg" width="95" height="95" viewBox="0 0 95 95" fill="none">
  <g clip-path="url(#clip0_2056_313)">
    <path d="M26.2383 63.0859C25.4216 63.0859 24.7539 63.7548 24.7539 64.5703C24.7539 65.3869 25.4216 66.0547 26.2383 66.0547H42.5664C43.383 66.0547 44.0508 65.3869 44.0508 64.5703C44.0508 63.7548 43.383 63.0859 42.5664 63.0859H26.2383Z" fill="#15416F"></path>
    <path d="M26.2383 39.3354H42.5664C43.383 39.3354 44.0508 38.6677 44.0508 37.8511C44.0508 37.0356 43.383 36.3667 42.5664 36.3667H26.2383C25.4216 36.3667 24.7539 37.0356 24.7539 37.8511C24.7539 38.6677 25.4216 39.3354 26.2383 39.3354Z" fill="#15416F"></path>
    <path d="M24.7539 30.4292C24.7539 31.2458 25.4216 31.9136 26.2383 31.9136H49.9883V28.9448H26.2383C25.4216 28.9448 24.7539 29.6137 24.7539 30.4292Z" fill="#15416F"></path>
    <path d="M65.7148 94.5556C64.9727 93.8134 64.4527 92.9223 63.9338 92.0312H4.15648C3.48874 92.0312 2.96875 91.5124 2.96875 90.8447V19.3713C2.96875 18.7036 3.48874 18.1836 4.08203 18.1836L16.3281 17.8125C18.5547 17.7392 20.3357 15.957 20.3357 13.7305L20.5591 4.15648C20.5591 3.48874 21.0779 2.96875 21.7456 2.96875H71.8357C72.5034 2.96875 73.0234 3.48874 73.0234 4.15648V19.2969H75.9922V4.15648C75.9922 1.85547 74.1367 0 71.8357 0H21.7456C20.7068 0 19.668 0.445542 18.9258 1.11328L1.48438 16.1059C0.593292 16.8481 0 18.0358 0 19.2969V90.7702C0 93.0712 1.85547 94.9267 4.15648 94.9267H66.1604C66.0115 94.8523 65.8637 94.7034 65.7148 94.5556ZM16.2537 14.8438L7.27298 15.1415L17.5903 6.23529L17.4414 13.6572C17.367 14.3249 16.8481 14.7704 16.2537 14.8438Z" fill="#15416F"></path>
    <path d="M90.56 22C88.34 22 86.5642 23.6392 86.1942 25.7245H84.64V24.9796C84.64 23.3415 83.3085 22 81.68 22H71.32C69.6915 22 68.36 23.3415 68.36 24.9796V25.7245H66.8058C66.4358 23.6392 64.66 22 62.44 22C59.9985 22 58 24.0117 58 26.4694V41.3673C58 43.8262 59.9985 45.8367 62.44 45.8367C64.66 45.8367 66.4358 44.1986 66.8058 42.1122H68.36V42.8571C68.36 44.4964 69.6185 45.7632 71.2458 45.8367L68.8042 86.7326C68.6558 88.8925 69.3958 90.9778 70.8758 92.5423C72.3558 94.1068 74.3542 95 76.5 95C78.6458 95 80.6442 94.1068 82.1242 92.5423C83.6042 90.9778 84.3442 88.8925 84.1958 86.7326L81.7542 45.8367C83.3085 45.7632 84.64 44.4964 84.64 42.8571V42.1122H86.1942C86.5642 44.1986 88.34 45.8367 90.56 45.8367C93.0015 45.8367 95 43.8262 95 41.3673V26.4694C95 24.0117 93.0015 22 90.56 22ZM71.32 24.9796H81.68V42.8571H71.32V24.9796ZM63.92 41.3673C63.92 42.187 63.2542 42.8571 62.44 42.8571C61.6258 42.8571 60.96 42.187 60.96 41.3673V26.4694C60.96 25.6509 61.6258 24.9796 62.44 24.9796C63.2542 24.9796 63.92 25.6509 63.92 26.4694V41.3673ZM66.88 39.1327V28.7041H68.36V39.1327H66.88ZM79.9785 90.5306C79.09 91.4997 77.8315 92.0204 76.5 92.0204C75.1685 92.0204 73.91 91.4997 73.0215 90.5306C72.1342 89.5627 71.69 88.2959 71.7642 86.9556L74.2058 45.8367H78.7942L81.2358 86.9556C81.31 88.2223 80.8658 89.5627 79.9785 90.5306ZM84.64 28.7041H86.12V39.1327H84.64V28.7041ZM92.04 41.3673C92.04 42.187 91.3742 42.8571 90.56 42.8571C89.7458 42.8571 89.08 42.187 89.08 41.3673V26.4694C89.08 25.6509 89.7458 24.9796 90.56 24.9796C91.3742 24.9796 92.04 25.6509 92.04 26.4694V41.3673Z" fill="#FFA811"></path>
    <path d="M21.2652 29.316C20.6719 28.7972 19.7075 28.8716 19.1875 29.4649L15.1055 34.1403L13.9922 32.8792C13.4722 32.2848 12.5078 32.2115 11.9145 32.7303C11.3201 33.2503 11.2456 34.2147 11.7656 34.8091L13.9922 37.3323L14.0666 37.4068L14.1411 37.4801C14.1411 37.4801 14.2144 37.4801 14.2144 37.5545L14.2888 37.629C14.3633 37.629 14.3633 37.7034 14.4377 37.7034C14.4377 37.7034 14.5122 37.7034 14.5122 37.7779C14.5855 37.7779 14.6599 37.8512 14.7344 37.8512H14.8088C14.8833 37.8512 15.031 37.8512 15.1055 37.8512C15.1799 37.8512 15.3277 37.8512 15.4021 37.8512H15.4766C15.551 37.8512 15.6255 37.8512 15.6988 37.7779C15.6988 37.7779 15.7732 37.7779 15.7732 37.7034C15.8476 37.7034 15.8476 37.629 15.9221 37.629L15.9965 37.5545C15.9965 37.5545 16.0698 37.5545 16.0698 37.4801L16.1443 37.4068C16.1443 37.4068 16.2187 37.4068 16.2187 37.3323L21.4141 31.3948C21.934 30.8004 21.8596 29.836 21.2652 29.316Z" fill="#FFA811"></path>
    <path d="M19.1875 56.1842L15.1055 60.8595L13.9922 59.5985C13.4722 59.004 12.5078 58.9307 11.9145 59.4496C11.3201 59.9696 11.2456 60.9339 11.7656 61.5284L13.9922 64.0516L14.0666 64.126L14.1411 64.1993C14.1411 64.1993 14.2144 64.1993 14.2144 64.2738L14.2888 64.3482C14.3633 64.3482 14.3633 64.4227 14.4377 64.4227C14.4377 64.4227 14.5122 64.4227 14.5122 64.4971C14.5855 64.4971 14.6599 64.5704 14.7344 64.5704H14.8088C14.8833 64.5704 15.031 64.5704 15.1055 64.5704C15.1799 64.5704 15.3277 64.5704 15.4021 64.5704H15.4766C15.551 64.5704 15.6255 64.5704 15.6988 64.4971C15.6988 64.4971 15.7732 64.4971 15.7732 64.4227C15.8476 64.4227 15.8476 64.3482 15.9221 64.3482L15.9965 64.2738C15.9965 64.2738 16.0698 64.2738 16.0698 64.1993L16.1443 64.126C16.1443 64.126 16.2187 64.126 16.2187 64.0516L21.4141 58.1141C21.934 57.5197 21.8596 56.5553 21.2652 56.0353C20.6719 55.5164 19.7075 55.5909 19.1875 56.1842Z" fill="#FFA811"></path>
    <path d="M62.6799 55.6641H26.2383C25.4216 55.6641 24.7539 56.3329 24.7539 57.1484C24.7539 57.9651 25.4216 58.6328 26.2383 58.6328H62.531L62.6799 55.6641Z" fill="#15416F"></path>
  </g>
  <defs>
    <clipPath id="clip0_2056_313">
      <rect width="95" height="95" fill="white"></rect>
    </clipPath>
  </defs>
</svg>
