<?xml version="1.0" encoding="UTF-8"?>
<svg xmlns="http://www.w3.org/2000/svg" width="95" height="95" viewBox="0 0 95 95" fill="none">
  <g clip-path="url(#clip0_2050_32)">
    <path d="M48.3052 95.0002C47.4742 94.9974 46.6599 94.7765 45.9449 94.3607L40.1796 90.9696C40.0153 90.8728 39.8704 90.7446 39.7558 90.5919C39.6413 90.4392 39.5571 90.266 39.5101 90.082C39.4632 89.8979 39.4522 89.707 39.4798 89.5188C39.5074 89.3307 39.5722 89.1493 39.6702 88.9871C39.7696 88.8234 39.8994 88.6803 40.0526 88.5671C40.2072 88.4539 40.3825 88.3708 40.5688 88.3244C40.7551 88.278 40.9484 88.2671 41.1388 88.2944C41.3293 88.3217 41.5115 88.3858 41.6771 88.4826L47.4301 91.8668C47.6951 92.0222 47.9974 92.1054 48.3052 92.1068C48.566 92.1095 48.8241 92.0522 49.0602 91.9404C49.2962 91.83 49.5032 91.6664 49.6647 91.4632C49.8262 91.26 49.9394 91.0228 49.9932 90.7705C50.0484 90.5183 50.0443 90.2565 49.9808 90.0056C49.927 89.7834 49.8262 89.5747 49.6868 89.3934C49.5474 89.2121 49.3721 89.0607 49.1692 88.9489L46.468 87.4245C46.301 87.3304 46.1533 87.205 46.0346 87.0536C45.9173 86.9036 45.829 86.7318 45.7779 86.5491C45.7268 86.365 45.713 86.1728 45.7379 85.9846C45.7613 85.7951 45.8235 85.6124 45.9187 85.4474C46.0153 85.2824 46.1423 85.1365 46.2955 85.0206C46.4473 84.9047 46.6212 84.8188 46.8076 84.7684C46.9939 84.7193 47.1872 84.7056 47.379 84.7302C47.5695 84.7547 47.7544 84.8161 47.9215 84.9115L50.6116 86.4318C51.1596 86.7373 51.6385 87.1518 52.0181 87.6467C52.399 88.1431 52.6723 88.7103 52.8228 89.3143C52.9925 89.992 53.0036 90.6969 52.8559 91.3787C52.7082 92.0604 52.4046 92.6999 51.9684 93.248C51.5322 93.7962 50.976 94.2393 50.3411 94.542C49.7061 94.8461 49.0105 95.0029 48.3052 95.0002Z" fill="#15416F"></path>
    <path d="M36.9853 94.62C36.0867 94.62 35.2116 94.3309 34.4939 93.7978C33.6119 93.1433 33.0253 92.1725 32.8624 91.094C32.6995 90.0168 32.9728 88.9178 33.6229 88.0383L36.8541 83.6942C37.4891 82.8393 38.4332 82.2584 39.4891 82.0716C40.545 81.8862 41.634 82.1084 42.5284 82.6947C43.0005 83.0029 43.4035 83.4037 43.7141 83.8701C44.026 84.3378 44.2372 84.8627 44.3365 85.4136C44.4359 85.9644 44.4221 86.5289 44.2938 87.0743C44.1654 87.6197 43.9266 88.1324 43.5926 88.5837L40.3641 92.932C40.0398 93.3724 39.6285 93.7446 39.155 94.0269C38.683 94.3091 38.1585 94.4945 37.6119 94.5736C37.4049 94.6036 37.1951 94.62 36.9853 94.62ZM40.2234 84.9022C40.026 84.9022 39.8327 84.9472 39.6575 85.0359C39.4822 85.1231 39.329 85.2499 39.213 85.4067L35.9818 89.7523C35.7858 90.0168 35.7044 90.3481 35.7554 90.6726C35.8051 90.9971 35.9846 91.2889 36.2523 91.4826C36.5201 91.6775 36.8555 91.7593 37.184 91.7089C37.5125 91.6598 37.8065 91.4839 38.0039 91.2194L41.2323 86.8725C41.3317 86.7375 41.4035 86.5835 41.4421 86.4198C41.4808 86.2562 41.4849 86.0871 41.4546 85.9222C41.4256 85.7572 41.3621 85.6004 41.2682 85.4599C41.1757 85.3208 41.0543 85.2009 40.9135 85.1081C40.7092 84.9731 40.469 84.9022 40.2234 84.9022Z" fill="#15416F"></path>
    <path d="M61.8588 87.5678C60.9492 87.5678 60.0561 87.3265 59.2749 86.8669L47.856 80.1585C47.689 80.063 47.5427 79.9349 47.4253 79.7821C47.3094 79.6294 47.2238 79.4563 47.1755 79.2722C47.1272 79.0868 47.1162 78.8945 47.1438 78.705C47.1714 78.5154 47.2362 78.3341 47.3342 78.1705C47.4336 78.0055 47.5634 77.8623 47.7193 77.7478C47.8739 77.6346 48.0506 77.5514 48.2369 77.5051C48.4246 77.4587 48.6206 77.4505 48.8111 77.4792C49.0016 77.5064 49.1852 77.5733 49.3508 77.6714L60.7683 84.3785C61.2556 84.6635 61.8353 84.7467 62.3846 84.6117C62.9326 84.4767 63.406 84.1345 63.7014 83.6586C63.9968 83.1814 64.0906 82.6101 63.9623 82.0647C63.8339 81.5206 63.4957 81.0475 63.0182 80.7489L58.1665 77.7137C57.8394 77.5078 57.6103 77.1819 57.5261 76.8097C57.4419 76.4361 57.5109 76.0448 57.718 75.7216C57.925 75.3985 58.2535 75.1694 58.6303 75.0848C59.0071 75.0003 59.4033 75.0658 59.7318 75.2689L64.5834 78.3041C65.5137 78.8863 66.2287 79.7508 66.6179 80.7693C67.0085 81.7879 67.0527 82.9032 66.7449 83.949C66.4385 84.9935 65.7953 85.9125 64.9133 86.5642C64.0327 87.2174 62.9602 87.5692 61.8588 87.5678Z" fill="#15416F"></path>
    <path d="M55.1128 91.562C54.2584 91.5607 53.4192 91.3411 52.678 90.9212L45.2715 86.7379C44.9361 86.547 44.6918 86.2321 44.5896 85.8625C44.4889 85.493 44.5399 85.099 44.7318 84.7663C44.9236 84.4336 45.2411 84.1909 45.6152 84.0886C45.9878 83.9877 46.3867 84.0368 46.7249 84.225L54.13 88.4082C54.5538 88.6482 55.0506 88.7246 55.5268 88.6237C56.0044 88.5241 56.4268 88.2528 56.7139 87.8642C56.8767 87.6433 56.9913 87.3924 57.0493 87.1252C57.1086 86.8579 57.11 86.5825 57.0548 86.3152C56.9996 86.0466 56.8878 85.7944 56.7277 85.5721C56.5676 85.3499 56.3619 85.1631 56.1245 85.024L51.1459 82.1047C50.8119 81.9084 50.5703 81.5893 50.4737 81.2184C50.3785 80.8462 50.435 80.4521 50.6338 80.1222C50.8312 79.7922 51.1542 79.5536 51.5296 79.4581C51.9064 79.3641 52.3053 79.42 52.6379 79.6163L57.6179 82.5342C58.5427 83.0769 59.2618 83.9059 59.6649 84.8917C60.0679 85.8775 60.1314 86.967 59.8471 87.9924C59.5627 89.0177 58.9458 89.9231 58.09 90.5667C57.2342 91.2116 56.188 91.5607 55.1128 91.562Z" fill="#15416F"></path>
    <path d="M20.4694 77.2966C20.2472 77.2966 20.0277 77.2462 19.8276 77.1494C19.6274 77.0539 19.4522 76.9135 19.3155 76.739L14.8766 71.1213C14.6778 70.9018 14.5495 70.6277 14.5122 70.3346C14.4735 70.0428 14.5274 69.7455 14.6654 69.4837L25.3832 49.121C25.4742 48.9479 25.5999 48.7938 25.7531 48.6697C25.9063 48.5456 26.0829 48.4543 26.272 48.3997C26.4611 48.3452 26.6613 48.3288 26.8573 48.352C27.0533 48.3752 27.2424 48.4379 27.4135 48.5361L31.662 50.9618C33.3583 51.9244 35.3307 52.298 37.2672 52.024L40.112 51.169C40.25 51.1268 40.3935 51.1063 40.5371 51.1063H40.5592C40.9222 51.1063 41.2714 51.2399 41.5405 51.4799C41.8097 51.7199 41.9781 52.0512 42.0153 52.4071C42.0512 52.7643 41.9532 53.1216 41.7379 53.4107C41.5226 53.6984 41.2065 53.8988 40.8518 53.9711L38.0167 54.8232C37.9518 54.8423 37.8856 54.8573 37.8193 54.8682C35.1927 55.2705 32.5053 54.7769 30.2017 53.4693L27.2741 51.7976L17.6978 69.991L21.6219 74.9596C21.7917 75.1723 21.8952 75.4286 21.9242 75.6986C21.9532 75.9672 21.9049 76.2399 21.7848 76.484C21.6647 76.7267 21.477 76.9326 21.2451 77.0758C21.0119 77.2203 20.7441 77.2953 20.4694 77.2966Z" fill="#15416F"></path>
    <path d="M68.4639 83.0984C67.3501 83.1024 66.2583 82.7875 65.3211 82.1916L49.1761 72.0744C49.0119 71.9735 48.8697 71.8412 48.7579 71.6858C48.6461 71.5303 48.5661 71.3544 48.5233 71.1676C48.4791 70.9808 48.475 70.7886 48.5067 70.6004C48.5398 70.4122 48.6102 70.2323 48.7137 70.0714C48.8173 69.9091 48.9525 69.77 49.1099 69.6609C49.2686 69.5505 49.4467 69.4741 49.6358 69.4332C49.8249 69.391 50.0195 69.3882 50.2099 69.4223C50.4004 69.4564 50.5812 69.5273 50.7441 69.6309L66.8987 79.755C67.3652 80.0536 67.9091 80.2104 68.4639 80.205C68.9291 80.205 69.386 80.0959 69.8 79.8886C70.2141 79.68 70.573 79.3787 70.8463 79.0078C71.2659 78.4515 71.4688 77.7629 71.4163 77.0716C71.3639 76.379 71.0602 75.7286 70.5619 75.2404C70.5564 75.2363 70.5523 75.2309 70.5468 75.2254C70.4363 75.115 70.3163 75.0141 70.1865 74.9241L57.143 65.8227C54.9208 64.2601 52.33 63.2893 49.6178 63.0043C46.907 62.7179 44.1672 63.1284 41.662 64.1933L40.221 64.8C38.9636 65.3277 37.5557 65.3863 36.2582 64.9636C34.9608 64.541 33.8635 63.6656 33.172 62.5011C32.4805 61.3367 32.2417 59.9623 32.4998 58.637C32.7593 57.3116 33.4977 56.124 34.5771 55.2977L39.1803 51.7717C41.2645 50.1764 43.7117 49.1046 46.3079 48.652C48.9042 48.1979 51.5736 48.3765 54.0843 49.1701L56.9097 50.0632C59.5226 50.8895 62.3494 50.7531 64.8697 49.6814L66.9581 48.7938C67.2976 48.6492 67.6799 48.637 68.0278 48.7597C68.3756 48.8824 68.6641 49.1306 68.8352 49.4551L79.1858 69.136C79.3487 69.4469 79.3929 69.8041 79.3101 70.1436C79.2259 70.4845 79.0216 70.7818 78.7331 70.9849L73.651 74.5382C74.1299 75.4245 74.3687 76.4171 74.3439 77.4221C74.319 78.427 74.0305 79.4073 73.5088 80.2691C72.9871 81.1308 72.2472 81.8453 71.3639 82.3402C70.4791 82.8366 69.4812 83.097 68.4639 83.0984ZM47.9505 60.0209C51.8511 60.025 55.6523 61.2263 58.8311 63.4583L71.6427 72.3975L76.0002 69.3514L66.8656 51.983L66.0278 52.3389C62.8587 53.6874 59.3031 53.8578 56.0181 52.8188L53.1927 51.9271C51.1347 51.2754 48.9456 51.1295 46.8173 51.5003C44.6875 51.8726 42.682 52.7507 40.9732 54.0596L36.37 57.5843C36.076 57.8093 35.8331 58.0915 35.6551 58.4133C35.477 58.7351 35.3693 59.091 35.3362 59.4564C35.3031 59.8218 35.3486 60.19 35.466 60.5377C35.5847 60.8854 35.7751 61.2044 36.0236 61.4771C36.4004 61.8862 36.8959 62.1698 37.4425 62.2884C37.9891 62.4071 38.5591 62.3539 39.074 62.1371L40.515 61.5303C42.8656 60.5363 45.3942 60.0236 47.9505 60.0209Z" fill="#15416F"></path>
    <path d="M27.187 87.9081C26.1228 87.9081 25.0904 87.5604 24.2484 86.9182C23.2477 86.1519 22.588 85.0311 22.4085 83.7916C22.2291 82.5522 22.5452 81.2937 23.2878 80.2806L27.8261 74.1611C28.5673 73.1521 29.6798 72.4704 30.9234 72.2618C32.167 72.0532 33.4437 72.3327 34.4803 73.0431L34.4886 73.0485C35.0241 73.4112 35.481 73.8775 35.8316 74.4202C36.1808 74.9615 36.4182 75.5669 36.5259 76.1996C36.6349 76.8336 36.6128 77.4827 36.4638 78.1071C36.3133 78.733 36.0373 79.322 35.6522 79.8402L31.1056 85.9528C30.726 86.4682 30.2443 86.9018 29.6908 87.2304C29.1359 87.5576 28.5217 87.7717 27.8827 87.859C27.6521 87.8917 27.4189 87.9081 27.187 87.9081ZM31.735 75.0924C31.4341 75.0924 31.1359 75.1633 30.8668 75.2983C30.5976 75.4347 30.3644 75.631 30.1877 75.8724L25.648 81.9904C25.354 82.3927 25.2284 82.8917 25.3002 83.3826C25.3706 83.8734 25.6328 84.3179 26.029 84.622C26.2319 84.7761 26.4637 84.8879 26.7108 84.952C26.9593 85.0161 27.216 85.0311 27.47 84.9956C27.7225 84.9588 27.9655 84.8743 28.1849 84.7447C28.4044 84.6152 28.5962 84.4434 28.7467 84.2389L33.2933 78.1262C33.4465 77.9203 33.5555 77.6872 33.6149 77.439C33.6742 77.1922 33.6825 76.9345 33.6397 76.6836C33.5969 76.4328 33.5031 76.1928 33.3637 75.9773C33.2257 75.7633 33.0448 75.5778 32.8323 75.4347L32.8295 75.4319L32.8212 75.4265C32.5024 75.2097 32.1228 75.0924 31.735 75.0924Z" fill="#15416F"></path>
    <path d="M22.3676 83.2271C21.5063 83.2244 20.6644 82.9871 19.9315 82.5413C19.1985 82.0954 18.6064 81.4573 18.2172 80.6978C17.8293 79.9397 17.6609 79.0889 17.7299 78.2421C17.8003 77.394 18.1068 76.5814 18.6147 75.8955L21.2151 72.3818C21.9246 71.4164 22.9874 70.7619 24.1772 70.5574C25.3683 70.3515 26.5912 70.6133 27.5906 71.2855L26.7734 72.4867L27.5933 71.2882C28.1137 71.6359 28.5567 72.0831 28.8977 72.604C29.2386 73.1249 29.4691 73.7071 29.5768 74.3179C29.683 74.9288 29.6651 75.5546 29.5215 76.1587C29.378 76.7627 29.113 77.3313 28.7417 77.8317L26.1385 81.3414C25.7769 81.8322 25.32 82.2468 24.7955 82.5604C24.271 82.8753 23.6885 83.0826 23.0812 83.1726C22.8452 83.2094 22.6064 83.2271 22.3676 83.2271ZM24.9763 73.3853C24.703 73.3853 24.4339 73.4494 24.191 73.5721C23.948 73.6948 23.7382 73.8721 23.5767 74.0902L20.9763 77.604C20.7044 77.9708 20.5912 78.4303 20.6616 78.8789C20.732 79.3288 20.9805 79.7324 21.3518 80.0011C21.723 80.271 22.1868 80.3828 22.6423 80.3133C23.0964 80.2438 23.505 79.9983 23.7769 79.6315L26.3814 76.1205C26.5195 75.9351 26.6188 75.7224 26.6713 75.4987C26.7251 75.2738 26.732 75.0406 26.692 74.8129C26.652 74.5865 26.5664 74.3698 26.4394 74.1748C26.3138 73.9812 26.1482 73.8148 25.9549 73.6853L25.9508 73.6839C25.6637 73.4903 25.3242 73.3867 24.9763 73.3853Z" fill="#15416F"></path>
    <path d="M32.2026 91.7294C31.2212 91.7294 30.2661 91.4144 29.4807 90.8308C28.5173 90.1163 27.8768 89.0555 27.6988 87.8788C27.5207 86.7007 27.8189 85.5008 28.5297 84.5396L32.2205 79.5764C32.9148 78.6424 33.9445 78.0084 35.0984 77.8052C36.2523 77.602 37.4407 77.8461 38.4179 78.4856C38.9341 78.8224 39.3744 79.2601 39.714 79.77C40.0549 80.2813 40.2854 80.854 40.3945 81.4567C40.5035 82.058 40.4869 82.6743 40.3475 83.2701C40.2067 83.8646 39.9459 84.4264 39.5801 84.9186L35.8934 89.8845C35.5387 90.3672 35.0901 90.7735 34.5739 91.0817C34.0577 91.3899 33.4835 91.593 32.8872 91.6789C32.6608 91.7116 32.4317 91.7294 32.2026 91.7294ZM35.9003 80.629C35.6436 80.629 35.3896 80.689 35.1605 80.8036C34.93 80.9181 34.7312 81.0858 34.5794 81.2903L30.8886 86.2535C30.636 86.5998 30.5325 87.0321 30.6001 87.4534C30.6677 87.8761 30.901 88.2551 31.2488 88.5074C31.598 88.761 32.0328 88.8674 32.4607 88.8046C32.8886 88.7419 33.2751 88.5156 33.5345 88.1733L37.2199 83.2074C37.3524 83.0302 37.4448 82.8297 37.4959 82.6157C37.5456 82.4016 37.5511 82.1807 37.5125 81.9653C37.4738 81.7485 37.391 81.5426 37.2682 81.3599C37.1467 81.1758 36.988 81.0203 36.803 80.899C36.5352 80.7231 36.2219 80.629 35.9003 80.629Z" fill="#15416F"></path>
    <path d="M80.9055 74.0439C80.5218 74.0425 80.1408 73.988 79.7723 73.8817C79.2519 73.7344 78.7688 73.4821 78.3506 73.1426C77.9324 72.8031 77.5887 72.3832 77.3416 71.9073L65.4231 49.2471C64.9455 48.3431 64.8392 47.2891 65.1291 46.3101C65.4203 45.3297 66.0828 44.4993 66.9786 43.9908L76.7122 38.5953C77.263 38.2899 77.8689 38.0977 78.4955 38.0281C79.1208 37.9599 79.7557 38.0159 80.3589 38.1945C80.9634 38.3731 81.5252 38.669 82.0111 39.0658C82.4969 39.4625 82.8972 39.952 83.1884 40.5043L94.461 61.9209C95.0311 62.9913 95.1539 64.2375 94.8047 65.3965C94.4555 66.5555 93.6619 67.5331 92.5936 68.1208L82.882 73.519C82.2816 73.8626 81.5997 74.0439 80.9055 74.0439ZM68.0207 47.9122L79.9379 70.5738C80.0055 70.7006 80.098 70.8138 80.2098 70.9051C80.323 70.9965 80.4527 71.0646 80.5922 71.1042C80.7329 71.1451 80.8792 71.156 81.0228 71.1396C81.1677 71.1219 81.3071 71.0769 81.4327 71.0046L91.1595 65.5983C91.5625 65.3761 91.862 65.0066 91.9945 64.5689C92.1256 64.1312 92.0801 63.6608 91.8648 63.2558L80.5908 41.8391C80.4817 41.6305 80.3299 41.4464 80.1463 41.2965C79.9628 41.1465 79.7516 41.0347 79.5224 40.9665C79.2947 40.8997 79.0545 40.8779 78.8185 40.9038C78.5811 40.9297 78.352 41.0033 78.1449 41.1178L68.4251 46.5064C68.1877 46.6455 68.0138 46.8678 67.9379 47.1296C67.8634 47.3914 67.8923 47.6722 68.0207 47.9122Z" fill="#15416F"></path>
    <path d="M13.3187 74.1951C12.6851 74.1951 12.0612 74.0315 11.5133 73.7179C11.5064 73.7138 11.4995 73.7097 11.4926 73.7056L2.27792 68.2311C1.25376 67.6202 0.501517 66.6453 0.177155 65.5068C-0.148587 64.3683 -0.0216031 63.1493 0.529122 62.0994L11.799 40.6895C12.0957 40.1264 12.5043 39.6287 13.0026 39.2292C13.4995 38.8283 14.075 38.5324 14.692 38.3606C15.3104 38.1875 15.9563 38.1411 16.5926 38.2257C17.2289 38.3088 17.8404 38.5202 18.3911 38.8461L27.4194 44.1924C28.2186 44.6505 28.8094 45.3964 29.0661 46.2745C29.3228 47.1512 29.229 48.0934 28.8011 48.902L16.5043 72.2821C16.202 72.8589 15.7452 73.3429 15.1834 73.6797C14.6216 74.0165 13.9757 74.1951 13.3187 74.1951ZM12.9874 71.2185C13.0661 71.2622 13.1516 71.2894 13.2414 71.299C13.3297 71.3085 13.4194 71.3004 13.505 71.2758C13.5919 71.2499 13.6706 71.2076 13.7396 71.1517C13.8086 71.0958 13.8666 71.0263 13.9066 70.9472L26.2034 47.5684C26.2821 47.4171 26.3 47.2412 26.2517 47.0789C26.2034 46.9153 26.093 46.7762 25.9439 46.6917C25.937 46.6876 25.9301 46.6835 25.9232 46.6794L16.8866 41.3276C16.6782 41.2049 16.4477 41.1245 16.2075 41.0931C15.9674 41.0618 15.7231 41.0795 15.4884 41.1449C15.2552 41.209 15.0385 41.3208 14.8507 41.4722C14.663 41.6235 14.5071 41.8117 14.3953 42.0244L3.1254 63.4343C2.91698 63.831 2.87005 64.2919 2.99289 64.7214C3.11574 65.1523 3.40007 65.5204 3.78655 65.7509L12.9874 71.2185Z" fill="#15416F"></path>
    <path d="M32.5154 11.2336C31.7494 11.2336 30.9996 11.0057 30.3631 10.5796C29.7252 10.1534 29.229 9.54791 28.9363 8.83991C28.6423 8.13191 28.5655 7.35244 28.7151 6.59994C28.8648 5.84744 29.2343 5.15697 29.7765 4.61485C30.3172 4.07272 31.0077 3.70322 31.7602 3.55353C32.5114 3.40383 33.2908 3.4807 33.9988 3.77469C34.7068 4.06868 35.311 4.56495 35.7371 5.20282C36.1633 5.8407 36.3898 6.58915 36.3898 7.35649C36.3898 8.3841 35.9812 9.3699 35.2544 10.0968C34.5275 10.8237 33.543 11.2323 32.5154 11.2336ZM32.5154 6.34102C32.3145 6.34102 32.1189 6.40035 31.9517 6.51228C31.7845 6.62421 31.655 6.782 31.5782 6.9681C31.5013 7.15285 31.4811 7.35784 31.5202 7.55473C31.5593 7.75162 31.6564 7.93233 31.798 8.07393C31.9396 8.21687 32.1203 8.31262 32.3172 8.35173C32.5141 8.39084 32.719 8.37196 32.9038 8.29509C33.0899 8.21822 33.2477 8.08741 33.3596 7.92019C33.4702 7.75297 33.5309 7.55742 33.5309 7.35649C33.5295 7.08677 33.423 6.8292 33.2328 6.63905C33.0427 6.4489 32.7851 6.34102 32.5154 6.34102Z" fill="#FFA811"></path>
    <path d="M32.5153 32.7429C30.189 32.7632 27.9383 31.9216 26.1946 30.3802C24.4549 28.8186 23.4961 26.7283 23.4961 24.4964V23.547C23.4961 23.1667 23.6471 22.8026 23.9155 22.5343C24.1839 22.2659 24.548 22.1162 24.9269 22.1162H40.1051C40.484 22.1162 40.8481 22.2659 41.1165 22.5343C41.3848 22.8026 41.5345 23.1667 41.5345 23.547V24.4964C41.5345 29.0438 37.4888 32.7429 32.5153 32.7429ZM26.3807 24.9779C26.525 26.2469 27.1399 27.4147 28.1042 28.2508C29.3233 29.3203 30.8943 29.9015 32.5153 29.8813C35.7263 29.8813 38.3708 27.7222 38.65 24.9779H26.3807Z" fill="#FFA811"></path>
    <path d="M27.2346 24.9786C27.0026 24.9786 26.7734 24.922 26.5684 24.8127C26.3634 24.7048 26.1868 24.5484 26.0559 24.3569C25.9251 24.1654 25.8415 23.9456 25.8146 23.715C25.7876 23.4844 25.8159 23.2511 25.8995 23.034L31.1792 9.28935C31.2466 9.11269 31.3464 8.95086 31.4758 8.81331C31.6053 8.67575 31.7604 8.56517 31.933 8.4883C32.1043 8.41008 32.2904 8.36828 32.4792 8.36288C32.668 8.35749 32.8554 8.38985 33.0307 8.45728C33.2074 8.52606 33.3679 8.6272 33.5054 8.75801C33.6416 8.88748 33.7509 9.04391 33.8277 9.21653C33.9033 9.38914 33.9437 9.57525 33.9478 9.76405C33.9518 9.95285 33.9181 10.1403 33.8493 10.3156L28.5697 24.0602C28.4658 24.3313 28.2824 24.5632 28.0437 24.7264C27.8064 24.8909 27.5232 24.9786 27.2346 24.9786Z" fill="#FFA811"></path>
    <path d="M37.7891 24.9786C37.5005 24.9786 37.2173 24.8909 36.9786 24.7264C36.7412 24.5632 36.5578 24.3313 36.454 24.0602L31.173 10.3156C31.1042 10.1403 31.0705 9.95285 31.0745 9.76405C31.0786 9.57525 31.1204 9.38914 31.1959 9.21653C31.2714 9.04391 31.382 8.88748 31.5182 8.75801C31.6544 8.6272 31.8163 8.52606 31.9916 8.45728C32.1682 8.38985 32.3557 8.35749 32.5445 8.36288C32.7333 8.36828 32.918 8.41008 33.0907 8.4883C33.2633 8.56517 33.4184 8.67575 33.5465 8.81331C33.6759 8.95086 33.7771 9.11269 33.8432 9.28935L39.1228 23.034C39.2064 23.2511 39.2361 23.4844 39.2091 23.715C39.1808 23.9456 39.0985 24.1654 38.9677 24.3569C38.8356 24.5484 38.6602 24.7048 38.4553 24.8127C38.2489 24.922 38.021 24.9786 37.7891 24.9786Z" fill="#FFA811"></path>
    <path d="M62.2967 11.2336C61.5307 11.2336 60.7822 11.0057 60.1443 10.5796C59.5078 10.1534 59.0102 9.54791 58.7176 8.83991C58.4236 8.13191 58.3467 7.35244 58.4964 6.59994C58.6461 5.84744 59.0156 5.15697 59.5577 4.61485C60.0998 4.07272 60.7903 3.70322 61.5415 3.55353C62.2926 3.40383 63.0721 3.4807 63.7801 3.77469C64.4881 4.06868 65.0936 4.56495 65.5184 5.20282C65.9445 5.8407 66.1724 6.58915 66.1724 7.35649C66.1711 8.3841 65.7625 9.3699 65.0356 10.0968C64.3101 10.8237 63.3243 11.2323 62.2967 11.2336ZM62.2967 6.34102C62.0971 6.34102 61.9002 6.40035 61.733 6.51228C61.5671 6.62421 61.4363 6.782 61.3594 6.9681C61.2825 7.15285 61.2623 7.35784 61.3014 7.55473C61.3419 7.75162 61.4376 7.93233 61.5792 8.07393C61.7222 8.21687 61.9029 8.31262 62.0998 8.35173C62.2967 8.39084 62.5003 8.37196 62.685 8.29509C62.8712 8.21822 63.0289 8.08741 63.1409 7.92019C63.2528 7.75297 63.3121 7.55742 63.3121 7.35649C63.3121 7.08677 63.2042 6.8292 63.0141 6.63905C62.824 6.4489 62.5664 6.34102 62.2967 6.34102Z" fill="#FFA811"></path>
    <path d="M62.3005 32.7429C59.9728 32.7632 57.7221 31.9216 55.9784 30.3802C54.2387 28.8186 53.2812 26.7283 53.2812 24.4964V23.547C53.2812 23.1667 53.4309 22.8026 53.6993 22.5343C53.9677 22.2659 54.3318 22.1162 54.7107 22.1162H69.8889C70.2678 22.1162 70.6319 22.2659 70.9003 22.5343C71.1687 22.8026 71.3197 23.1667 71.3197 23.547V24.4964C71.3197 29.0438 67.2726 32.7429 62.3005 32.7429ZM56.1658 24.9779C56.3088 26.2469 56.9237 27.4147 57.888 28.2508C59.1071 29.3203 60.6781 29.9015 62.3005 29.8813C65.5101 29.8813 68.1546 27.7222 68.4351 24.9779H56.1658Z" fill="#FFA811"></path>
    <path d="M57.0196 24.9786C56.7876 24.9786 56.5584 24.922 56.3534 24.8127C56.1484 24.7048 55.9731 24.5484 55.8409 24.3569C55.7101 24.1654 55.6265 23.9456 55.5995 23.715C55.5726 23.4844 55.6022 23.2511 55.6845 23.034L60.9655 9.28935C61.0316 9.11269 61.1327 8.95086 61.2622 8.81331C61.3903 8.67575 61.5454 8.56517 61.718 8.4883C61.8906 8.41008 62.0754 8.36828 62.2642 8.36288C62.453 8.35749 62.6404 8.38985 62.8171 8.45728C62.9924 8.52606 63.1542 8.6272 63.2904 8.75801C63.4266 8.88748 63.5359 9.04391 63.6127 9.21653C63.6882 9.38914 63.73 9.57525 63.7327 9.76405C63.7368 9.95285 63.7031 10.1403 63.6343 10.3156L58.3547 24.0602C58.2508 24.3313 58.0674 24.5632 57.8287 24.7264C57.5914 24.8909 57.3082 24.9786 57.0196 24.9786Z" fill="#FFA811"></path>
    <path d="M67.5729 24.9786C67.2843 24.9786 67.0011 24.8909 66.7637 24.7264C66.525 24.5632 66.3416 24.3313 66.2378 24.0602L60.9581 10.3156C60.8894 10.1403 60.8557 9.95285 60.8597 9.76405C60.8624 9.57525 60.9042 9.38914 60.9797 9.21653C61.0566 9.04391 61.1658 8.88748 61.302 8.75801C61.4382 8.6272 61.6001 8.52606 61.7754 8.45728C61.952 8.38985 62.1395 8.35749 62.3283 8.36288C62.5171 8.36828 62.7018 8.41008 62.8745 8.4883C63.0471 8.56517 63.2022 8.67575 63.3316 8.81331C63.4597 8.95086 63.5609 9.11269 63.627 9.28935L68.908 23.034C68.9902 23.2511 69.0199 23.4844 68.9929 23.715C68.9659 23.9456 68.8823 24.1654 68.7515 24.3569C68.6194 24.5484 68.444 24.7048 68.2391 24.8127C68.0341 24.922 67.8048 24.9786 67.5729 24.9786Z" fill="#FFA811"></path>
    <path d="M59.8514 8.78793H34.9568C34.5779 8.78793 34.2151 8.63689 33.9467 8.36853C33.6784 8.10016 33.5273 7.73605 33.5273 7.3571C33.5273 6.97815 33.6784 6.61404 33.9467 6.34567C34.2151 6.07731 34.5779 5.92627 34.9568 5.92627H59.8514C60.2303 5.92627 60.5945 6.07731 60.8628 6.34567C61.1312 6.61404 61.2809 6.97815 61.2809 7.3571C61.2809 7.73605 61.1312 8.10016 60.8628 8.36853C60.5945 8.63689 60.2303 8.78793 59.8514 8.78793Z" fill="#FFA811"></path>
    <path d="M45.7148 0H49.1672V40.5541H45.7148V0Z" fill="#FFA811"></path>
    <path d="M47.41 40.3517C47.031 40.3517 46.6669 40.2006 46.3985 39.9323C46.1302 39.6639 45.9805 39.2998 45.9805 38.9208V1.4738C45.9805 1.09485 46.1302 0.730739 46.3985 0.462373C46.6669 0.194008 47.031 0.0429688 47.41 0.0429688C47.7889 0.0429688 48.153 0.194008 48.4214 0.462373C48.6897 0.730739 48.8394 1.09485 48.8394 1.4738V38.9208C48.8394 39.2998 48.6897 39.6639 48.4214 39.9323C48.153 40.2006 47.7889 40.3517 47.41 40.3517Z" fill="#FFA811"></path>
    <path d="M63.5169 44.3792H31.2889C30.9099 44.3792 30.5458 44.2295 30.2774 43.9612C30.0091 43.6928 29.8594 43.3287 29.8594 42.9484V38.9216C29.8594 38.5413 30.0091 38.1771 30.2774 37.9088C30.5458 37.6404 30.9099 37.4907 31.2889 37.4907H63.5169C63.8959 37.4907 64.26 37.6404 64.5284 37.9088C64.7967 38.1771 64.9464 38.5413 64.9464 38.9216V42.9484C64.9464 43.3287 64.7967 43.6928 64.5284 43.9612C64.26 44.2295 63.8959 44.3792 63.5169 44.3792ZM32.7183 41.5175H62.0875V40.3524H32.7183V41.5175Z" fill="#FFA811"></path>
  </g>
  <defs>
    <clipPath id="clip0_2050_32">
      <rect width="95" height="95" fill="white"></rect>
    </clipPath>
  </defs>
</svg>
