<?xml version="1.0" encoding="UTF-8"?>
<svg xmlns="http://www.w3.org/2000/svg" width="95" height="95" viewBox="0 0 95 95" fill="none">
  <g clip-path="url(#clip0_2056_92)">
    <path d="M82.1416 61.5552C81.5728 62.0522 81.2174 62.692 81.1463 63.4734L81.0041 65.25L74.9624 63.0475C74.892 63.0475 74.8209 62.9764 74.8209 62.9764C73.2568 62.6209 72.4037 62.9053 71.6934 63.2601C71.6223 63.2601 71.5512 63.3312 71.4801 63.4023L55.5591 73.4922C53.2847 74.7001 51.2237 77.5425 51.7917 80.3138C52.1472 82.0194 53.1425 83.3695 54.5637 84.222C55.3458 84.6485 56.1989 84.8611 56.9803 84.8611C57.6201 84.8611 58.26 84.7196 58.8287 84.5063C58.8998 84.5063 58.9709 84.4352 59.042 84.3641L68.9214 78.3956C69.5613 77.9691 69.7746 77.1166 69.4191 76.4768C68.9925 75.8376 68.1394 75.6243 67.4995 75.9791L57.6912 81.8772C57.1224 82.0905 56.4122 82.0194 55.8434 81.735C55.1325 81.3795 54.6348 80.6693 54.4926 79.8162C54.2089 78.5371 55.3458 76.7612 56.8388 76.0502C56.9099 76.0502 56.9099 75.9791 56.9803 75.9791L72.7592 65.8181C73.0435 65.6766 73.3279 65.6055 73.9678 65.747L80.6486 68.1635L79.654 79.5325C78.5875 79.6747 77.6633 80.2427 76.9531 80.6693L76.7398 80.8115C76.7398 80.8115 76.6687 80.8115 76.6687 80.8826L61.6007 91.6116C61.5296 91.6827 61.4585 91.6827 61.4585 91.7538C61.032 92.1093 58.6865 92.4648 56.6255 91.3984C56.6255 91.3984 56.5544 91.3984 56.5544 91.3273L34.0939 81.1663C33.0282 80.5271 32.5306 79.0348 33.0993 77.8269C33.3837 77.187 33.8096 76.7612 34.4494 76.5479C34.9471 76.4057 35.5158 76.4057 35.9424 76.6901C36.0135 76.6901 36.0846 76.7612 36.0846 76.7612L49.3752 81.9483C49.233 81.5217 49.0915 81.1663 49.0204 80.7404C48.8782 80.1005 48.8782 79.3903 48.8782 78.7504L37.1503 74.132C36.0135 73.4922 34.6627 73.4211 33.4548 73.8477C32.104 74.2742 31.0383 75.2689 30.4695 76.619C29.332 79.1059 30.3273 82.3031 32.7438 83.5821C32.7438 83.5821 32.8149 83.6532 32.886 83.6532L55.3458 93.8142C56.6966 94.5251 58.26 94.8095 59.6101 94.8095C61.1742 94.8095 62.5954 94.383 63.3774 93.7438L78.3743 83.0851L78.5875 82.9429C78.8719 82.7297 79.2274 82.5164 79.5118 82.3742L79.2985 84.9322C79.1563 86.4956 80.3642 87.8457 81.9994 88.059L94.8077 88.9114C94.8788 88.9114 94.8788 88.9114 94.9499 88.9114C95.6609 88.9114 96.3 88.3434 96.3711 87.6324C96.4422 86.8511 95.8742 86.1401 95.0921 86.0697L82.3549 85.2166C82.2838 85.2166 82.2127 85.1455 82.2127 85.2166L84.0605 63.6156C84.0605 63.6156 84.1316 63.5445 84.2738 63.5445L94.8688 64.3976C95.6508 64.468 96.3618 63.8999 96.4329 63.1186C96.504 62.3365 95.9352 61.6263 95.1532 61.5552L84.4159 60.8442C83.5628 60.7732 82.7097 60.9864 82.1416 61.5552Z" fill="#FFA811"></path>
    <path d="M18.3687 48.0088C19.052 49.0721 20.1921 50.7435 21.2554 52.4141C22.3195 54.0094 23.4595 55.6808 24.0668 56.6681C24.2948 57.0482 24.5989 57.2762 25.0549 57.3522C25.1309 57.3522 25.2829 57.3522 25.3589 57.3522C25.6629 57.3522 25.967 57.2762 26.195 57.1242C27.1823 56.4401 28.8544 55.3768 30.4498 54.3895C32.1211 53.3261 33.7932 52.2628 34.8573 51.5788C35.3886 51.1988 35.9206 50.8955 36.4527 50.5915C37.82 49.7554 39.2641 48.8441 40.4794 47.7048C42.4556 45.8814 43.1389 43.2987 42.3796 40.716C41.4675 37.7533 38.8841 35.3227 35.7686 34.7906C33.4132 34.4113 31.2098 35.0946 29.4617 36.158C28.2464 34.2593 26.423 32.892 24.2948 32.36C21.2554 31.6006 17.8367 32.664 15.8605 35.0186C14.1132 37.07 13.6571 39.6527 14.7212 42.1594C15.4052 43.6787 16.3166 45.1221 17.2286 46.4134C17.6846 46.9447 17.9887 47.4767 18.3687 48.0088ZM18.2167 36.994C19.204 35.7787 20.8001 35.1706 22.3195 35.1706C22.7755 35.1706 23.1555 35.2467 23.6115 35.3227C25.5869 35.8547 27.0303 37.6013 27.5623 39.0447C27.7143 39.5767 28.1704 39.9567 28.7024 40.0327C29.2344 40.108 29.7657 39.9567 30.1457 39.5767C31.2098 38.4374 33.2612 37.4493 35.3126 37.8293C37.2887 38.2094 38.9601 39.7287 39.5681 41.6273C39.7961 42.4634 40.0241 44.1348 38.504 45.5021C37.5167 46.4134 36.2246 47.1727 34.9326 48.0088C34.3253 48.3881 33.7932 48.6921 33.2612 49.0721C32.2731 49.7554 30.6018 50.8195 28.9304 51.8068C27.8663 52.4901 26.8023 53.1741 25.8909 53.7814C25.2829 52.8701 24.5229 51.8068 23.8396 50.7435C22.7755 49.1481 21.6354 47.4767 20.9521 46.4894C20.5721 45.9574 20.1921 45.3501 19.812 44.8181C18.976 43.5267 18.1407 42.3874 17.6086 41.0961C16.7726 39.0447 17.6846 37.6773 18.2167 36.994Z" fill="#15416F"></path>
    <path d="M10.9978 27.9541L7.88238 28.7902L1.95548 56.213C1.80422 57.0484 2.33551 57.8077 3.09556 58.0357L44.6591 66.9998C44.7351 66.9998 44.8871 66.9998 44.9631 66.9998C45.2671 66.9998 45.5712 66.9238 45.7992 66.7718C46.1024 66.5438 46.4065 66.2397 46.4825 65.7845L52.4094 38.4376L49.8259 36.4622C49.7499 36.6142 49.6739 36.7662 49.5979 36.9942L43.823 63.7331L5.22295 55.377L10.9978 28.6381C11.0738 28.4101 10.9978 28.1821 10.9978 27.9541Z" fill="#15416F"></path>
    <path d="M1.50259 27.3469C1.6546 27.3469 1.80661 27.3469 1.88187 27.2709L32.8077 18.8388L41.166 25.5995C39.5706 26.2836 37.6705 26.5868 35.6191 26.4356C35.6191 25.4475 35.3151 24.5362 34.7838 23.7009C34.0238 22.4848 32.8837 21.6495 31.5164 21.4215C28.6289 20.8142 25.8175 22.6368 25.1334 25.5235C24.8294 26.9669 25.0574 28.4102 25.8175 29.6255C26.5775 30.8409 27.7169 31.6769 29.0849 31.9049C29.1609 31.9049 29.313 31.9049 29.389 31.9049C30.0723 31.9049 30.6803 31.4489 30.9083 30.6889C31.0603 29.8536 30.6043 29.0943 29.7682 28.8662C29.1609 28.7142 28.7049 28.4102 28.4009 27.8782C28.0969 27.3469 27.9449 26.7388 28.0969 26.1315C28.4009 24.8402 29.6162 24.0802 30.8323 24.3082C31.4404 24.4602 31.8964 24.7642 32.1997 25.2955C32.2757 25.4475 32.3517 25.5235 32.4277 25.6755C32.0484 25.5235 31.6684 25.3715 31.3643 25.2195C30.6043 24.8402 29.6922 25.2195 29.3882 25.9795C29.0089 26.7388 29.3882 27.6509 30.1483 27.9542C32.5037 29.0182 34.7078 29.4735 36.8352 29.4735C39.4946 29.4735 41.8501 28.7902 43.8254 27.6509L58.4147 39.501C58.7187 39.729 59.0227 39.805 59.4027 39.805C59.858 39.805 60.314 39.577 60.6181 39.273C61.1501 38.5897 61.0741 37.6776 60.39 37.1463L46.4849 25.9795C46.9409 25.5995 47.3209 25.2195 47.7009 24.8402C48.8403 23.6249 49.7523 22.3335 50.3604 20.8902C51.2724 21.1175 52.1837 21.2695 53.1718 21.2695C55.6792 21.2695 57.9586 20.4342 59.858 18.9148L64.1896 20.8142C64.5696 20.9662 65.0256 20.9662 65.4049 20.8142L67.381 19.9781L68.3683 22.0295C68.5203 22.4088 68.9004 22.6368 69.2804 22.7888C69.6604 22.9408 70.1164 22.8648 70.4205 22.7128L71.7878 22.0295L72.4719 23.3969C72.8519 24.0802 73.6112 24.3842 74.3712 24.1562L76.2706 23.4729L77.4867 25.2195C77.7907 25.6755 78.2467 25.9035 78.7028 25.9035C78.93 25.9035 79.1581 25.8275 79.3861 25.7515L84.0216 23.3209C84.3257 23.1688 84.5529 22.9408 84.7049 22.6368L85.541 20.9662C85.769 20.5102 85.769 19.9781 85.465 19.5228L83.8696 16.7882C83.7176 16.4841 83.4136 16.2561 83.1096 16.1801L63.7335 8.88736C62.7455 3.79801 58.3387 0 53.1718 0C50.1324 0 47.3969 1.29134 45.4975 3.34198C45.4215 2.8867 45.1175 2.43067 44.6615 2.27866C37.1392 -1.06332 30.6803 1.74737 27.1088 5.54538C24.4494 8.35608 23.158 11.8501 23.2341 15.2688L26.2735 14.4327C26.4255 12.0781 27.4128 9.64741 29.313 7.67203C32.1237 4.55806 37.3673 2.27866 43.3694 5.01335C43.5974 5.08935 43.8254 5.16536 44.1295 5.16536C43.1414 6.76072 42.6101 8.6601 42.6101 10.6347C42.6101 14.4327 44.5855 17.7755 47.6249 19.6741C47.0929 20.7382 46.4089 21.8015 45.4975 22.7888C45.0415 23.2449 44.5855 23.7009 44.0535 24.0802L34.1758 16.0281L34.0998 15.9521C34.0238 15.9521 34.0238 15.8761 33.9478 15.8761C33.8718 15.8761 33.8718 15.8001 33.7958 15.8001C33.7198 15.8001 33.7198 15.8001 33.6438 15.7241C33.5677 15.7241 33.5677 15.7241 33.4917 15.7241C33.4157 15.7241 33.4157 15.7241 33.3397 15.7241C33.2637 15.7241 33.2637 15.7241 33.1877 15.7241C33.1117 15.7241 33.1117 15.7241 33.0357 15.7241C32.9597 15.7241 32.9597 15.7241 32.8837 15.7241H32.8077L1.12257 24.3842C0.286511 24.6122 -0.169519 25.4475 0.0584957 26.2836C0.210506 26.8909 0.818545 27.3469 1.50259 27.3469ZM45.6496 10.6347C45.6496 6.4567 49.0683 3.03871 53.2478 3.03871C57.1986 3.03871 60.4661 6.07667 60.8461 10.0274C60.9221 10.7107 61.3781 11.2428 61.9862 11.3948L81.5902 18.7628L82.5015 20.2821L82.2735 20.7382L79.2341 22.3335L78.0947 20.7382C77.7147 20.2061 76.9547 19.9781 76.3466 20.2061L74.5993 20.8142L73.8392 19.2948C73.6872 18.9148 73.3079 18.6868 72.9279 18.5348C72.5479 18.3828 72.0918 18.4588 71.7878 18.6108L70.4205 19.2948L69.4324 17.3954C69.0524 16.7122 68.2163 16.3321 67.457 16.6361L64.7976 17.7755L60.162 15.7241C60.086 15.7241 60.086 15.6481 60.01 15.6481C59.934 15.6481 59.934 15.6481 59.858 15.6481C59.782 15.6481 59.782 15.6481 59.706 15.6481C59.63 15.6481 59.63 15.6481 59.5547 15.6481H59.4787C59.4027 15.6481 59.3267 15.6481 59.3267 15.6481C59.2507 15.6481 59.2507 15.6481 59.1747 15.6481C59.0987 15.6481 59.0987 15.6481 59.0227 15.7241C59.0227 15.7241 58.9467 15.7241 58.9467 15.8001C58.8707 15.8001 58.8707 15.8761 58.7947 15.8761L58.7187 15.9521C58.6427 16.0281 58.6427 16.0281 58.5667 16.1041C57.1226 17.4715 55.2232 18.2315 53.1718 18.2315C52.5638 18.2315 51.8797 18.1555 51.2724 18.0035C51.8037 15.2688 51.4997 12.4581 50.2084 9.95143C49.8283 9.19138 48.9163 8.88736 48.157 9.34339C47.3969 9.72342 47.0929 10.6347 47.5489 11.3948C48.385 12.9894 48.6883 14.8128 48.461 16.6361C46.7129 15.1928 45.6496 13.0654 45.6496 10.6347Z" fill="#15416F"></path>
  </g>
  <defs>
    <clipPath id="clip0_2056_92">
      <rect width="95" height="95" fill="white"></rect>
    </clipPath>
  </defs>
</svg>
