<?xml version="1.0" encoding="UTF-8"?>
<!DOCTYPE svg PUBLIC "-//W3C//DTD SVG 1.1//EN" "http://www.w3.org/Graphics/SVG/1.1/DTD/svg11.dtd">
<svg xmlns="http://www.w3.org/2000/svg" version="1.1" width="227px" height="222px" style="shape-rendering:geometricPrecision; text-rendering:geometricPrecision; image-rendering:optimizeQuality; fill-rule:evenodd; clip-rule:evenodd" xmlns:xlink="http://www.w3.org/1999/xlink">
<g><path style="opacity:1" fill="#77a7c9" d="M 112.5,4.5 C 111.761,4.36899 111.094,4.53566 110.5,5C 121.867,18.2554 132.867,31.7554 143.5,45.5C 121.5,45.5 99.5,45.5 77.5,45.5C 87.8333,31.5 98.1667,17.5 108.5,3.5C 109.962,2.52909 111.295,2.86242 112.5,4.5 Z"/></g>
<g><path style="opacity:1" fill="#72c1d8" d="M 108.5,3.5 C 98.1667,17.5 87.8333,31.5 77.5,45.5C 76.8333,45.5 76.5,45.8333 76.5,46.5C 76.1667,46.5 75.8333,46.5 75.5,46.5C 57.992,46.83 40.6586,46.4967 23.5,45.5C 51.7411,31.2125 80.0745,17.2125 108.5,3.5 Z"/></g>
<g><path style="opacity:1" fill="#6db8d3" d="M 112.5,4.5 C 141.257,17.6411 169.923,30.9744 198.5,44.5C 180.341,45.4968 162.008,45.8302 143.5,45.5C 132.867,31.7554 121.867,18.2554 110.5,5C 111.094,4.53566 111.761,4.36899 112.5,4.5 Z"/></g>
<g><path style="opacity:1" fill="#a3dbe7" d="M 198.5,44.5 C 199.5,44.8333 200.167,45.5 200.5,46.5C 196.419,63.9063 192.086,81.2396 187.5,98.5C 173.553,81.5439 159.553,64.5439 145.5,47.5C 122.51,46.5003 99.5097,46.1669 76.5,46.5C 76.5,45.8333 76.8333,45.5 77.5,45.5C 99.5,45.5 121.5,45.5 143.5,45.5C 162.008,45.8302 180.341,45.4968 198.5,44.5 Z"/></g>
<g><path style="opacity:1" fill="#8bd2e1" d="M 23.5,45.5 C 40.6586,46.4967 57.992,46.83 75.5,46.5C 62.8793,64.0832 49.546,81.0832 35.5,97.5C 34.8826,97.3893 34.3826,97.056 34,96.5C 30.2729,79.9222 26.1062,63.5889 21.5,47.5C 21.8333,46.5 22.5,45.8333 23.5,45.5 Z"/></g>
<g><path style="opacity:1" fill="#fdfdfd" d="M 75.5,46.5 C 75.8333,46.5 76.1667,46.5 76.5,46.5C 99.5097,46.1669 122.51,46.5003 145.5,47.5C 159.553,64.5439 173.553,81.5439 187.5,98.5C 187.5,99.1667 187.5,99.8333 187.5,100.5C 182.45,121.75 177.783,143.083 173.5,164.5C 172.833,164.5 172.5,164.833 172.5,165.5C 152.311,175.226 131.977,184.559 111.5,193.5C 91.2879,183.56 70.9546,173.894 50.5,164.5C 50.5,163.833 50.1667,163.5 49.5,163.5C 44.9499,142.304 39.9499,121.304 34.5,100.5C 35.1098,99.609 35.4431,98.609 35.5,97.5C 49.546,81.0832 62.8793,64.0832 75.5,46.5 Z"/></g>
<g><path style="opacity:1" fill="#57c4db" d="M 200.5,46.5 C 207.882,77.411 214.882,108.411 221.5,139.5C 210.487,127.315 199.987,114.648 190,101.5C 189.329,100.748 188.496,100.414 187.5,100.5C 187.5,99.8333 187.5,99.1667 187.5,98.5C 192.086,81.2396 196.419,63.9063 200.5,46.5 Z"/></g>
<g><path style="opacity:1" fill="#77c4da" d="M 21.5,47.5 C 26.1062,63.5889 30.2729,79.9222 34,96.5C 34.3826,97.056 34.8826,97.3893 35.5,97.5C 35.4431,98.609 35.1098,99.609 34.5,100.5C 23.8703,113.068 13.7037,126.068 4,139.5C 3.60123,139.272 3.43456,138.938 3.5,138.5C 9.24391,108.114 15.2439,77.7805 21.5,47.5 Z"/></g>
<g><path style="opacity:1" fill="#393938" d="M 120.5,89.5 C 131.742,87.7514 137.076,92.4181 136.5,103.5C 134.167,103.5 131.833,103.5 129.5,103.5C 129.862,96.996 127.362,95.3293 122,98.5C 121.159,102.12 121.826,105.454 124,108.5C 128.749,112.578 132.749,117.245 136,122.5C 138.599,137.903 132.432,143.403 117.5,139C 114.036,135.177 112.703,130.677 113.5,125.5C 115.833,125.5 118.167,125.5 120.5,125.5C 119.63,131.352 121.963,133.852 127.5,133C 130.021,129.518 129.855,126.018 127,122.5C 121.104,117.949 116.771,112.282 114,105.5C 112.607,98.6306 114.774,93.2973 120.5,89.5 Z"/></g>
<g><path style="opacity:1" fill="#383837" d="M 147.5,89.5 C 158.742,87.7514 164.076,92.4181 163.5,103.5C 161.167,103.5 158.833,103.5 156.5,103.5C 156.862,96.996 154.362,95.3293 149,98.5C 148.159,102.12 148.826,105.454 151,108.5C 155.749,112.578 159.749,117.245 163,122.5C 165.599,137.903 159.432,143.403 144.5,139C 141.259,135.106 139.925,130.606 140.5,125.5C 142.833,125.5 145.167,125.5 147.5,125.5C 146.63,131.352 148.963,133.852 154.5,133C 157.163,129.439 156.997,125.939 154,122.5C 150.667,119.167 147.333,115.833 144,112.5C 138.345,103.571 139.511,95.9048 147.5,89.5 Z"/></g>
<g><path style="opacity:1" fill="#393938" d="M 56.5,90.5 C 59.1667,90.5 61.8333,90.5 64.5,90.5C 64.5,97.5 64.5,104.5 64.5,111.5C 67.5,111.5 70.5,111.5 73.5,111.5C 73.5,104.5 73.5,97.5 73.5,90.5C 76.1667,90.5 78.8333,90.5 81.5,90.5C 81.5,107.167 81.5,123.833 81.5,140.5C 78.8333,140.5 76.1667,140.5 73.5,140.5C 73.5,133.167 73.5,125.833 73.5,118.5C 70.5,118.5 67.5,118.5 64.5,118.5C 64.5,125.833 64.5,133.167 64.5,140.5C 61.8333,140.5 59.1667,140.5 56.5,140.5C 56.5,123.833 56.5,107.167 56.5,90.5 Z"/></g>
<g><path style="opacity:1" fill="#393938" d="M 87.5,90.5 C 107.502,86.6702 115.002,94.6702 110,114.5C 109.027,118.406 106.527,120.573 102.5,121C 100.19,121.497 97.8568,121.663 95.5,121.5C 95.5,127.833 95.5,134.167 95.5,140.5C 92.8333,140.5 90.1667,140.5 87.5,140.5C 87.5,123.833 87.5,107.167 87.5,90.5 Z"/></g>
<g><path style="opacity:1" fill="#f4f4f4" d="M 95.5,97.5 C 101.827,96.4936 104.494,99.1603 103.5,105.5C 104.687,112.189 102.02,115.189 95.5,114.5C 95.5,108.833 95.5,103.167 95.5,97.5 Z"/></g>
<g><path style="opacity:1" fill="#3ec5e0" d="M 187.5,100.5 C 188.496,100.414 189.329,100.748 190,101.5C 199.987,114.648 210.487,127.315 221.5,139.5C 222.853,141.128 222.519,142.462 220.5,143.5C 204.941,150.78 189.274,157.78 173.5,164.5C 177.783,143.083 182.45,121.75 187.5,100.5 Z"/></g>
<g><path style="opacity:1" fill="#92b8d8" d="M 34.5,100.5 C 39.9499,121.304 44.9499,142.304 49.5,163.5C 34.2993,156.055 19.2993,149.055 4.5,142.5C 2.48052,141.462 2.14719,140.128 3.5,138.5C 3.43456,138.938 3.60123,139.272 4,139.5C 13.7037,126.068 23.8703,113.068 34.5,100.5 Z"/></g>
<g><path style="opacity:1" fill="#6fa3cb" d="M 49.5,163.5 C 50.1667,163.5 50.5,163.833 50.5,164.5C 54.3416,180.867 58.3416,197.2 62.5,213.5C 62.1373,214.183 61.8039,214.85 61.5,215.5C 42.1489,191.477 23.1489,167.144 4.5,142.5C 19.2993,149.055 34.2993,156.055 49.5,163.5 Z"/></g>
<g><path style="opacity:1" fill="#a7dde5" d="M 220.5,143.5 C 201.206,168.128 181.539,192.462 161.5,216.5C 165.295,199.527 168.961,182.527 172.5,165.5C 172.5,164.833 172.833,164.5 173.5,164.5C 189.274,157.78 204.941,150.78 220.5,143.5 Z"/></g>
<g><path style="opacity:1" fill="#cce7ea" d="M 172.5,165.5 C 168.961,182.527 165.295,199.527 161.5,216.5C 161.389,217.117 161.056,217.617 160.5,218C 140.662,218.829 120.996,218.662 101.5,217.5C 120.503,217.667 139.503,217.5 158.5,217C 142.741,209.121 127.075,201.287 111.5,193.5C 131.977,184.559 152.311,175.226 172.5,165.5 Z"/></g>
<g><path style="opacity:1" fill="#3f91b9" d="M 50.5,164.5 C 70.9546,173.894 91.2879,183.56 111.5,193.5C 127.075,201.287 142.741,209.121 158.5,217C 139.503,217.5 120.503,217.667 101.5,217.5C 88.4957,217.667 75.4957,217.5 62.5,217C 61.944,216.617 61.6107,216.117 61.5,215.5C 61.8039,214.85 62.1373,214.183 62.5,213.5C 58.3416,197.2 54.3416,180.867 50.5,164.5 Z"/></g>
</svg>
