<svg width="512" height="512" viewBox="0 0 512 512" fill="none" xmlns="http://www.w3.org/2000/svg">
<rect width="512" height="512" fill="#7177F8"/>
<path d="M129.622 121.174C136.987 121.174 143.93 118.299 149.144 113.085C151.996 110.233 154.077 106.89 155.409 103.336C156.742 99.7826 160.062 97.5382 163.779 97.5382H163.966C167.777 97.5382 171.237 99.7359 172.663 103.219C173.879 106.165 175.655 108.877 177.993 111.192C182.716 115.914 188.981 118.509 195.644 118.509C202.307 118.509 208.573 115.914 213.296 111.192C215.166 109.321 216.709 107.17 217.855 104.879C220.052 100.531 224.237 97.5382 229.1 97.5382H230.97C235.459 97.5382 239.807 99.806 241.841 103.804C242.87 105.791 244.203 107.661 245.863 109.321C250.071 113.529 255.682 115.867 261.643 115.867C267.605 115.867 273.216 113.553 277.424 109.321C278.546 108.199 279.505 107.007 280.323 105.744C283.807 100.39 290.072 97.5382 296.455 97.5382H296.618C302.837 97.5382 308.355 100.811 312.165 105.698C312.656 106.305 313.171 106.913 313.732 107.474C317.449 111.192 322.382 113.226 327.642 113.226C332.902 113.226 337.835 111.168 341.553 107.451C342.114 106.89 342.628 106.305 343.119 105.698C347.397 100.25 354.318 97.5382 361.261 97.5382H363.786C370.589 97.5382 376.785 100.694 381.554 105.534C381.577 105.557 381.601 105.581 381.624 105.604C384.851 108.83 389.129 110.584 393.664 110.584C398.2 110.584 402.502 108.807 405.705 105.604C408.931 102.378 410.684 98.0993 410.684 93.5638C410.684 89.0283 408.907 84.7266 405.705 81.5236C402.478 78.2973 398.2 76.5439 393.664 76.5439C389.129 76.5439 384.827 78.3207 381.624 81.5236C381.601 81.547 381.577 81.5704 381.554 81.5938C376.785 86.4332 370.566 89.5894 363.786 89.5894H361.261C354.318 89.5894 347.397 86.8774 343.119 81.4301C342.628 80.8223 342.114 80.2378 341.553 79.6533C337.835 75.9361 332.902 73.9021 327.642 73.9021C322.382 73.9021 317.449 75.9595 313.732 79.6533C313.171 80.2144 312.633 80.8223 312.165 81.4301C308.331 86.3163 302.814 89.5894 296.618 89.5894H296.455C290.072 89.5894 283.807 86.7138 280.323 81.3834C279.505 80.1209 278.523 78.9052 277.424 77.8064C273.216 73.5982 267.605 71.2603 261.643 71.2603C255.682 71.2603 250.071 73.5748 245.863 77.8064C244.203 79.4663 242.847 81.3366 241.841 83.3238C239.784 87.3216 235.459 89.5894 230.97 89.5894H229.1C224.214 89.5894 220.029 86.5969 217.831 82.2484C216.662 79.9339 215.143 77.8064 213.272 75.9361C208.55 71.2135 202.284 68.6185 195.621 68.6185C188.958 68.6185 182.693 71.2135 177.97 75.9361C175.632 78.274 173.832 81.0093 172.616 83.9784C171.213 87.4151 167.777 89.6128 164.036 89.6128C160.155 89.6128 156.695 87.2047 155.292 83.581C153.89 79.9573 151.902 76.8712 149.12 74.0891C143.907 68.8756 136.963 66 129.599 66C120.808 66 112.673 70.068 107.295 77.3154C100.235 86.8541 100.235 100.344 107.295 109.882C112.673 117.153 120.832 121.221 129.622 121.221V121.174Z" fill="#3FE0D0"/>
<path d="M129.623 187.193C136.988 187.193 143.931 184.318 149.145 179.104C151.997 176.252 154.078 172.909 155.41 169.355C156.72 165.872 160.063 163.557 163.78 163.557H163.967C167.778 163.557 171.238 165.755 172.664 169.238C173.88 172.184 175.657 174.896 177.994 177.211C182.717 181.933 188.983 184.528 195.646 184.528C202.309 184.528 208.574 181.933 213.297 177.211C215.167 175.34 216.71 173.189 217.856 170.898C220.053 166.55 224.238 163.557 229.101 163.557H230.831C235.39 163.557 239.785 165.848 241.889 169.893C242.918 171.88 244.25 173.727 245.887 175.34C250.095 179.549 255.706 181.886 261.668 181.886C267.629 181.886 273.24 179.572 277.449 175.34C278.524 174.265 279.483 173.073 280.324 171.81C283.854 166.41 290.19 163.534 296.619 163.534H296.666C302.885 163.534 308.402 166.807 312.213 171.693C312.704 172.301 313.218 172.909 313.78 173.47C317.497 177.187 322.43 179.221 327.69 179.221C332.95 179.221 337.883 177.164 341.601 173.47C342.162 172.909 342.676 172.324 343.167 171.693C347.445 166.246 354.365 163.534 361.309 163.534H363.834C370.637 163.534 376.833 166.69 381.602 171.53C381.602 171.53 381.649 171.576 381.672 171.6C384.898 174.826 389.177 176.579 393.712 176.579C399.487 176.579 404.817 173.727 408.114 168.677C411.667 163.23 411.667 155.889 408.114 150.418C404.817 145.368 399.487 142.493 393.689 142.493C389.13 142.493 384.852 144.27 381.649 147.473C381.649 147.473 381.602 147.519 381.579 147.543C376.809 152.382 370.59 155.538 363.811 155.538H361.309C354.365 155.538 347.445 152.826 343.167 147.379C342.676 146.771 342.162 146.187 341.601 145.602C337.883 141.885 332.95 139.851 327.69 139.851C322.43 139.851 317.497 141.908 313.78 145.602C313.218 146.163 312.681 146.771 312.213 147.379C308.379 152.265 302.862 155.538 296.666 155.538H296.643C290.19 155.538 283.854 152.663 280.324 147.262C279.506 146 278.547 144.831 277.449 143.732C273.24 139.524 267.629 137.186 261.668 137.186C255.706 137.186 250.095 139.5 245.887 143.732C244.25 145.368 242.918 147.192 241.889 149.179C239.785 153.224 235.39 155.515 230.831 155.515H229.124C224.238 155.515 220.053 152.522 217.879 148.174C216.71 145.859 215.19 143.732 213.32 141.862C208.598 137.139 202.332 134.544 195.669 134.544C189.006 134.544 182.74 137.139 178.018 141.862C175.68 144.2 173.88 146.935 172.664 149.904C171.261 153.341 167.825 155.538 164.084 155.538C160.203 155.538 156.743 153.13 155.34 149.507C153.937 145.883 151.95 142.797 149.168 140.015C143.955 134.801 137.011 131.926 129.647 131.926C120.856 131.926 112.72 135.993 107.343 143.241C100.283 152.78 100.283 166.269 107.343 175.808C112.72 183.079 120.88 187.147 129.67 187.147L129.623 187.193Z" fill="#3FE0D0"/>
<path d="M129.622 253.239C136.987 253.239 143.93 250.364 149.144 245.15C151.902 242.392 153.983 239.142 155.339 235.612C156.695 232.081 160.179 229.603 164.06 229.603C167.777 229.603 171.214 231.778 172.64 235.214C173.855 238.183 175.655 240.919 177.993 243.257C182.716 247.979 188.982 250.574 195.645 250.574C202.308 250.574 208.573 247.979 213.296 243.257C215.166 241.386 216.709 239.235 217.855 236.944C220.052 232.596 224.237 229.603 229.1 229.603H230.83C235.389 229.603 239.784 231.894 241.888 235.939C242.917 237.926 244.249 239.773 245.886 241.386C250.094 245.594 255.705 247.932 261.667 247.932C267.628 247.932 273.239 245.618 277.448 241.386C278.523 240.311 279.482 239.118 280.323 237.856C283.853 232.455 290.189 229.58 296.618 229.58H296.665C302.884 229.58 308.401 232.853 312.212 237.739C312.703 238.347 313.217 238.955 313.779 239.516C317.496 243.233 322.429 245.267 327.689 245.267C332.949 245.267 337.882 243.21 341.599 239.516C342.161 238.955 342.675 238.37 343.166 237.739C347.444 232.292 354.364 229.58 361.308 229.58H363.833C370.636 229.58 376.832 232.736 381.601 237.552C381.624 237.576 381.648 237.599 381.671 237.622C384.897 240.849 389.176 242.602 393.711 242.602C399.486 242.602 404.816 239.75 408.113 234.7C411.666 229.253 411.666 221.912 408.113 216.441C404.816 211.391 399.486 208.515 393.688 208.515C389.129 208.515 384.851 210.292 381.648 213.495C381.648 213.495 381.601 213.542 381.578 213.565C376.808 218.405 370.589 221.561 363.81 221.561H361.308C354.364 221.561 347.444 218.849 343.166 213.402C342.675 212.794 342.161 212.209 341.599 211.625C337.882 207.908 332.949 205.874 327.689 205.874C322.429 205.874 317.496 207.931 313.779 211.625C313.217 212.186 312.68 212.794 312.212 213.402C308.378 218.288 302.861 221.561 296.665 221.561H296.642C290.189 221.561 283.877 218.685 280.323 213.285C279.505 212.022 278.546 210.853 277.471 209.755C273.263 205.546 267.652 203.208 261.69 203.208C255.729 203.208 250.118 205.523 245.909 209.755C244.273 211.391 242.94 213.215 241.912 215.202C239.807 219.246 235.412 221.538 230.853 221.538H229.147C224.26 221.538 220.076 218.545 217.878 214.173C216.709 211.859 215.189 209.731 213.319 207.861C208.596 203.138 202.331 200.543 195.668 200.543C189.005 200.543 182.739 203.138 178.017 207.861C175.679 210.199 173.879 212.934 172.663 215.903C171.26 219.34 167.824 221.538 164.083 221.538C160.202 221.538 156.742 219.153 155.363 215.529C154.007 211.999 151.926 208.749 149.144 205.991C143.93 200.777 136.987 197.901 129.622 197.901C122.258 197.901 115.314 200.777 110.101 205.991C104.887 211.204 102.012 218.148 102.012 225.512C102.012 232.876 104.887 239.82 110.101 245.033C115.314 250.247 122.258 253.123 129.622 253.123V253.239Z" fill="#3FE0D0"/>
<path d="M393.713 274.609C389.154 274.609 384.876 276.386 381.673 279.589C381.673 279.589 381.626 279.635 381.603 279.659C376.834 284.498 370.615 287.654 363.835 287.654H361.333C354.39 287.654 347.47 284.942 343.191 279.495C342.7 278.887 342.186 278.303 341.625 277.718C337.908 274.001 332.975 271.967 327.714 271.967C322.454 271.967 317.521 274.024 313.804 277.718C313.243 278.279 312.705 278.887 312.238 279.495C308.403 284.381 302.886 287.654 296.691 287.654H296.527C290.144 287.654 283.879 284.779 280.395 279.425C279.577 278.162 278.595 276.947 277.496 275.848C273.288 271.64 267.677 269.325 261.716 269.325C255.754 269.325 250.143 271.64 245.935 275.871C244.275 277.531 242.919 279.401 241.914 281.389C239.856 285.387 235.531 287.654 231.042 287.654H229.195C224.309 287.654 220.124 284.662 217.927 280.29C216.758 277.975 215.238 275.848 213.368 273.978C208.645 269.255 202.38 266.66 195.717 266.66C189.054 266.66 182.788 269.255 178.066 273.978C175.704 276.339 173.928 279.074 172.735 281.997C171.309 285.457 167.896 287.654 164.155 287.654C160.274 287.654 156.814 285.246 155.411 281.622C154.009 277.999 152.022 274.913 149.239 272.131C144.026 266.917 137.082 264.042 129.718 264.042C120.927 264.042 112.768 268.109 107.391 275.38C100.331 284.919 100.331 298.409 107.391 307.947C112.768 315.195 120.927 319.263 129.695 319.263C137.059 319.263 144.003 316.387 149.216 311.173C152.068 308.321 154.149 305.001 155.482 301.448C156.814 297.894 160.134 295.65 163.875 295.65H164.062C167.872 295.65 171.333 297.871 172.782 301.378C173.974 304.277 175.728 306.965 178.089 309.327C182.812 314.049 189.077 316.644 195.74 316.644C202.403 316.644 208.692 314.049 213.391 309.327C215.262 307.456 216.805 305.329 217.95 303.014C220.148 298.666 224.333 295.673 229.195 295.673H231.066C235.555 295.673 239.903 297.941 241.937 301.939C242.966 303.926 244.298 305.796 245.958 307.456C250.166 311.664 255.777 314.002 261.739 314.002C267.701 314.002 273.312 311.688 277.52 307.456C278.642 306.334 279.601 305.142 280.419 303.879C283.902 298.525 290.168 295.673 296.55 295.673H296.737C302.956 295.673 308.474 298.946 312.284 303.832C312.775 304.44 313.29 305.048 313.851 305.609C317.568 309.327 322.501 311.361 327.761 311.361C333.022 311.361 337.954 309.303 341.672 305.609C342.233 305.048 342.747 304.464 343.238 303.832C347.516 298.385 354.437 295.673 361.38 295.673H363.905C370.708 295.673 376.904 298.829 381.673 303.669C381.673 303.669 381.72 303.716 381.743 303.739C384.97 306.965 389.248 308.719 393.784 308.719C398.319 308.719 402.621 306.942 405.824 303.739C409.05 300.513 410.803 296.234 410.803 291.699C410.803 287.163 409.027 282.862 405.824 279.659C402.597 276.432 398.319 274.679 393.784 274.679L393.713 274.609Z" fill="#3FE0D0"/>
<path d="M327.689 337.988C322.429 337.988 317.496 340.046 313.779 343.739C313.218 344.301 312.68 344.908 312.212 345.516C308.378 350.402 302.861 353.676 296.665 353.676H296.502C290.119 353.676 283.853 350.8 280.37 345.446C279.552 344.184 278.57 342.968 277.471 341.869C273.263 337.661 267.652 335.346 261.69 335.346C255.729 335.346 250.118 337.661 245.909 341.869C244.25 343.529 242.894 345.399 241.888 347.41C239.831 351.408 235.506 353.676 231.017 353.676H229.147C224.26 353.676 220.076 350.683 217.901 346.335C216.732 344.02 215.213 341.893 213.343 340.022C208.62 335.3 202.354 332.705 195.691 332.705C189.028 332.705 182.763 335.3 178.04 340.022C173.318 344.745 170.723 351.01 170.723 357.673C170.723 364.336 173.318 370.602 178.04 375.324C182.763 380.047 189.028 382.642 195.691 382.642C202.354 382.642 208.62 380.047 213.343 375.324C215.213 373.454 216.756 371.327 217.901 369.012C220.099 364.664 224.284 361.671 229.147 361.671H231.017C235.506 361.671 239.854 363.939 241.888 367.937C242.917 369.924 244.25 371.794 245.909 373.454C250.118 377.662 255.729 380 261.69 380C267.652 380 273.263 377.686 277.471 373.454C278.593 372.332 279.552 371.14 280.37 369.877C283.853 364.523 290.119 361.671 296.502 361.671H296.689C302.907 361.671 308.425 364.944 312.236 369.83C312.703 370.438 313.241 371.023 313.802 371.584C317.519 375.301 322.452 377.358 327.712 377.358C334.188 377.358 340.173 374.249 343.984 368.778C348.567 362.162 348.543 353.068 343.914 346.475C340.08 341.051 334.142 337.988 327.712 337.988H327.689Z" fill="#3FE0D0"/>
<path d="M261.668 401.37C255.706 401.37 250.095 403.684 245.887 407.916C237.19 416.613 237.19 430.78 245.887 439.477C250.095 443.686 255.706 446 261.668 446C267.629 446 273.24 443.686 277.449 439.477C286.146 430.78 286.146 416.613 277.449 407.916C273.24 403.708 267.629 401.37 261.668 401.37Z" fill="#3FE0D0"/>
</svg>
