<svg width="191" height="106" viewBox="0 0 191 106" fill="none" xmlns="http://www.w3.org/2000/svg">
<path fill-rule="evenodd" clip-rule="evenodd" d="M33.9968 25.3185L69.2209 68.7128L81.4941 53.9513L81.6168 54.0127L87.6 57.7568L87.7534 57.8489L69.2209 69.3572L0 26.3005L25.9885 0.0306909L52.1918 17.0938L33.9968 25.3185ZM95.731 52.8772L88.3364 45.6653L104.752 25.9016L99.505 23.5385L99.7505 23.4771L129.605 16.9097L129.666 16.879L138.902 26.1471L95.731 52.8772ZM99.2595 9.08395L112.852 0L121.934 9.08395H99.2595Z" fill="#00A0E3"/>
<path fill-rule="evenodd" clip-rule="evenodd" d="M86.1574 26.4847L164.951 9.11475H78.1185L51.9766 35.4766L121.504 78.9323L191.001 35.2004L130.065 35.2925L121.504 44.0389L130.157 52.6625L164.982 43.9468L121.443 77.9503L77.5969 35.1391L86.1574 26.4847Z" fill="#393185"/>
<path fill-rule="evenodd" clip-rule="evenodd" d="M138.414 66.9942L131.02 59.7823L137.31 65.9201L138.291 66.8714L138.414 66.9942Z" fill="#393185"/>
<path d="M135.775 80.7736H138.782C139.027 80.7736 139.242 80.8656 139.426 81.0497C139.61 81.2339 139.702 81.4487 139.702 81.6942C139.702 81.9602 139.6 82.1853 139.396 82.3694C139.211 82.5331 139.007 82.6149 138.782 82.6149H135.898C135.632 82.6149 135.397 82.7479 135.192 83.0139L132.645 86.2976C132.42 86.5431 132.308 86.9011 132.308 87.3717V92.374C132.308 92.64 132.4 92.865 132.584 93.0492C132.748 93.2333 132.962 93.3254 133.228 93.3254H136.91C137.156 93.3254 137.37 93.2333 137.555 93.0492C137.739 92.865 137.82 92.6502 137.8 92.4047V90.4406H135.928C135.683 90.4406 135.468 90.3485 135.284 90.1644C135.12 90.0007 135.039 89.7961 135.039 89.5506C135.039 89.2846 135.12 89.0698 135.284 88.9062C135.468 88.722 135.683 88.6299 135.928 88.6299H139.641V92.4047C139.641 93.1617 139.365 93.8062 138.813 94.3381C138.301 94.8701 137.667 95.136 136.91 95.136H133.228C132.471 95.136 131.827 94.8701 131.295 94.3381C130.743 93.8062 130.467 93.1617 130.467 92.4047V87.4024C130.467 86.5022 130.712 85.7349 131.203 85.1007L133.873 81.7249C134.077 81.4589 134.353 81.2339 134.701 81.0497C135.049 80.8656 135.407 80.7736 135.775 80.7736ZM152.098 82.6149H145.686V87.0341H148.447C148.693 87.0341 148.907 87.1262 149.091 87.3103C149.255 87.4945 149.337 87.7093 149.337 87.9548C149.337 88.2003 149.255 88.4151 149.091 88.5993C148.907 88.7834 148.693 88.8755 148.447 88.8755H145.686V93.3254H152.098C152.344 93.3254 152.559 93.4072 152.743 93.5709C152.927 93.755 153.019 93.9698 153.019 94.2154C153.019 94.4609 152.927 94.6757 152.743 94.8598C152.559 95.044 152.344 95.136 152.098 95.136H143.875V80.7736H152.098C152.344 80.7736 152.559 80.8656 152.743 81.0497C152.927 81.2339 153.019 81.4589 153.019 81.7249C153.019 81.9704 152.927 82.175 152.743 82.3387C152.559 82.5228 152.344 82.6149 152.098 82.6149ZM160.843 86.4203V85.96L158.971 83.2901V94.2154C158.971 94.4609 158.889 94.6757 158.726 94.8598C158.542 95.044 158.327 95.136 158.081 95.136C157.816 95.136 157.601 95.044 157.437 94.8598C157.253 94.6757 157.161 94.4609 157.161 94.2154V80.7736H159.493L161.733 84.0266L164.034 80.7736H166.335V94.2154C166.335 94.4609 166.243 94.6757 166.059 94.8598C165.875 95.044 165.66 95.136 165.415 95.136C165.169 95.136 164.955 95.044 164.77 94.8598C164.586 94.6757 164.494 94.4609 164.494 94.2154V83.3207L162.653 85.8986V86.4203C162.674 86.6658 162.592 86.8807 162.408 87.0648C162.224 87.2489 162.009 87.341 161.763 87.341C161.518 87.341 161.303 87.2489 161.119 87.0648C160.935 86.8807 160.843 86.6658 160.843 86.4203ZM172.595 80.7736H177.32C177.892 80.7736 178.435 81.0191 178.946 81.5101C179.457 82.0011 179.713 82.5944 179.713 83.2901C179.713 83.5356 179.621 83.7504 179.437 83.9345C179.253 84.1187 179.048 84.2107 178.823 84.2107C178.516 84.2107 178.312 84.1391 178.21 83.9959C178.087 83.8527 177.974 83.597 177.872 83.2287C177.77 82.84 177.535 82.6456 177.166 82.6456H172.656C172.451 82.6456 172.349 82.7172 172.349 82.8604C172.349 82.9422 172.39 83.0343 172.472 83.1366L179.222 91.7602C179.549 92.1694 179.713 92.6093 179.713 93.0799C179.713 93.6323 179.519 94.1131 179.13 94.5222C178.741 94.9314 178.302 95.136 177.811 95.136H172.932C172.278 95.136 171.705 94.8905 171.214 94.3995C170.743 93.888 170.508 93.3458 170.508 92.773C170.508 92.0978 170.825 91.7602 171.459 91.7602C171.705 91.7602 171.909 91.8421 172.073 92.0057C172.257 92.1899 172.349 92.3945 172.349 92.6195C172.349 92.8241 172.41 92.9878 172.533 93.1106C172.676 93.2538 172.85 93.3254 173.055 93.3254H177.565C177.77 93.3254 177.872 93.2435 177.872 93.0799C177.872 93.0185 177.831 92.9264 177.749 92.8037L170.999 84.2107C170.672 83.8015 170.508 83.3514 170.508 82.8604C170.508 82.308 170.713 81.8272 171.122 81.418C171.531 80.9884 172.022 80.7736 172.595 80.7736Z" fill="#393185"/>
<path d="M130.219 92.8344V85.5918C130.341 85.2235 130.526 84.8757 130.771 84.5483L133.44 81.1419C133.625 80.8964 133.901 80.6815 134.269 80.4974C134.617 80.3132 134.975 80.2212 135.343 80.2212H138.35C138.595 80.2212 138.81 80.3132 138.994 80.4974C139.178 80.6611 139.27 80.8759 139.27 81.1419C139.27 81.4078 139.168 81.6227 138.963 81.7863C138.779 81.9705 138.575 82.0625 138.35 82.0625H135.466C135.2 82.0625 134.954 82.1955 134.729 82.4615L132.182 85.7145C131.978 85.9805 131.876 86.3488 131.876 86.8193V91.8216C131.876 92.0876 131.968 92.3127 132.152 92.4968C132.315 92.6605 132.53 92.7423 132.796 92.7423H136.478C136.724 92.7423 136.938 92.6605 137.122 92.4968C137.286 92.3127 137.368 92.0978 137.368 91.8523V89.8882H135.496C135.23 89.8882 135.016 89.7962 134.852 89.612C134.688 89.4484 134.606 89.2335 134.606 88.9676C134.606 88.7221 134.688 88.5072 134.852 88.3231C135.016 88.1594 135.23 88.0776 135.496 88.0776H139.178V91.8523C139.178 92.5889 138.912 93.2231 138.38 93.7551C137.849 94.287 137.214 94.553 136.478 94.553H132.796C132.039 94.553 131.385 94.287 130.832 93.7551C130.546 93.4891 130.341 93.1822 130.219 92.8344ZM151.635 82.0625H145.253V86.4817H148.015C148.26 86.4817 148.465 86.5738 148.629 86.758C148.813 86.9421 148.905 87.1467 148.905 87.3717C148.905 87.6377 148.823 87.8628 148.659 88.0469C148.475 88.231 148.26 88.3231 148.015 88.3231H145.253V92.7423H151.666C151.912 92.7423 152.126 92.8344 152.311 93.0185C152.495 93.2026 152.587 93.4175 152.587 93.663C152.587 93.9085 152.495 94.1233 152.311 94.3075C152.126 94.4711 151.901 94.553 151.635 94.553H143.443V80.2212H151.635C151.901 80.2212 152.126 80.3132 152.311 80.4974C152.495 80.6815 152.587 80.8964 152.587 81.1419C152.587 81.3874 152.495 81.6022 152.311 81.7863C152.126 81.9705 151.901 82.0625 151.635 82.0625ZM160.411 85.868V85.4076L158.539 82.7377V93.663C158.539 93.9085 158.447 94.1233 158.263 94.3075C158.099 94.4711 157.895 94.553 157.649 94.553C157.383 94.553 157.169 94.4711 157.005 94.3075C156.821 94.1233 156.729 93.9085 156.729 93.663V80.2212H159.03L161.301 83.4742L163.602 80.2212H165.903V93.663C165.903 93.9085 165.811 94.1233 165.627 94.3075C165.443 94.4711 165.228 94.553 164.983 94.553C164.737 94.553 164.522 94.4711 164.338 94.3075C164.154 94.1233 164.062 93.9085 164.062 93.663V82.7684L162.221 85.3462V85.868C162.221 86.1135 162.139 86.3283 161.976 86.5124C161.792 86.6761 161.577 86.758 161.331 86.758C161.086 86.758 160.871 86.6761 160.687 86.5124C160.503 86.3283 160.411 86.1135 160.411 85.868ZM172.132 80.2212H176.857C177.45 80.2212 178.002 80.4667 178.514 80.9577C179.025 81.4487 179.281 82.0421 179.281 82.7377C179.281 82.9832 179.189 83.198 179.005 83.3822C178.821 83.5663 178.616 83.6583 178.391 83.6583C178.084 83.6583 177.869 83.5868 177.747 83.4435C177.644 83.3003 177.542 83.0343 177.44 82.6456C177.338 82.2773 177.102 82.0932 176.734 82.0932H172.224C172.019 82.0932 171.917 82.1546 171.917 82.2773C171.917 82.3592 171.958 82.4615 172.04 82.5842L178.79 91.1772C179.117 91.6068 179.281 92.0569 179.281 92.5275C179.281 93.0594 179.087 93.53 178.698 93.9392C178.309 94.3484 177.869 94.553 177.379 94.553H172.5C171.845 94.553 171.273 94.3075 170.782 93.8164C170.311 93.3254 170.076 92.7832 170.076 92.1899C170.076 91.5148 170.393 91.1772 171.027 91.1772C171.273 91.1772 171.477 91.2692 171.641 91.4534C171.825 91.6375 171.917 91.8421 171.917 92.0672C171.917 92.2717 171.978 92.4354 172.101 92.5582C172.244 92.6809 172.418 92.7423 172.623 92.7423H177.133C177.338 92.7423 177.44 92.6707 177.44 92.5275C177.44 92.4457 177.389 92.3536 177.286 92.2513L170.567 83.6583C170.24 83.2492 170.076 82.7991 170.076 82.308C170.076 81.7556 170.281 81.2646 170.69 80.835C171.078 80.4258 171.559 80.2212 172.132 80.2212Z" fill="#393185"/>
<path fill-rule="evenodd" clip-rule="evenodd" d="M130.834 93.7551C131.386 94.287 132.041 94.553 132.798 94.553H136.48C137.216 94.553 137.85 94.287 138.382 93.7551C138.914 93.2231 139.18 92.5889 139.18 91.8523V88.0776H135.498C135.232 88.0776 135.017 88.1594 134.854 88.3231C134.69 88.5072 134.608 88.7221 134.608 88.9676C134.608 89.2335 134.69 89.4484 134.854 89.612C135.017 89.7962 135.232 89.8882 135.498 89.8882H137.369V91.8523C137.369 92.0978 137.288 92.3127 137.124 92.4968C136.94 92.6605 136.725 92.7423 136.48 92.7423H132.798C132.532 92.7423 132.317 92.6605 132.153 92.4968C131.969 92.3127 131.877 92.0876 131.877 91.8216V86.8193C131.877 86.3488 131.98 85.9805 132.184 85.7145L134.731 82.4615C134.956 82.1955 135.201 82.0625 135.467 82.0625H138.351C138.576 82.0625 138.781 81.9705 138.965 81.7863C139.17 81.6227 139.272 81.4078 139.272 81.1419C139.272 80.8759 139.18 80.6611 138.996 80.4974C138.812 80.3132 138.597 80.2212 138.351 80.2212H135.344C134.976 80.2212 134.618 80.3132 134.271 80.4974C133.902 80.6815 133.626 80.8964 133.442 81.1419L130.773 84.5483C130.527 84.8757 130.343 85.2235 130.22 85.5918V92.8344C130.343 93.1822 130.548 93.4891 130.834 93.7551ZM152.312 81.7863C152.496 81.6022 152.588 81.3874 152.588 81.1419C152.588 80.8964 152.496 80.6815 152.312 80.4974C152.128 80.3132 151.903 80.2212 151.637 80.2212H143.445V94.553H151.637C151.903 94.553 152.128 94.4711 152.312 94.3075C152.496 94.1233 152.588 93.9085 152.588 93.663C152.588 93.4175 152.496 93.2026 152.312 93.0185C152.128 92.8344 151.913 92.7423 151.668 92.7423H145.255V88.3231H148.017C148.262 88.3231 148.477 88.231 148.661 88.0469C148.825 87.8628 148.906 87.6377 148.906 87.3717C148.906 87.1467 148.814 86.9421 148.63 86.758C148.467 86.5738 148.262 86.4817 148.017 86.4817H145.255V82.0625H151.637C151.903 82.0625 152.128 81.9705 152.312 81.7863ZM160.689 86.5124C160.873 86.6761 161.087 86.758 161.333 86.758C161.578 86.758 161.793 86.6761 161.977 86.5124C162.141 86.3283 162.223 86.1135 162.223 85.868V85.3462L164.064 82.7684V93.663C164.064 93.9085 164.156 94.1233 164.34 94.3075C164.524 94.4711 164.739 94.553 164.984 94.553C165.23 94.553 165.444 94.4711 165.629 94.3075C165.813 94.1233 165.905 93.9085 165.905 93.663V80.2212H163.603L161.302 83.4742L159.032 80.2212H156.73V93.663C156.73 93.9085 156.823 94.1233 157.007 94.3075C157.17 94.4711 157.385 94.553 157.651 94.553C157.896 94.553 158.101 94.4711 158.265 94.3075C158.449 94.1233 158.541 93.9085 158.541 93.663V82.7377L160.412 85.4076V85.868C160.412 86.1135 160.504 86.3283 160.689 86.5124ZM170.691 80.835C170.282 81.2646 170.078 81.7556 170.078 82.308C170.078 82.7991 170.241 83.2492 170.569 83.6584L177.288 92.2513C177.39 92.3536 177.442 92.4457 177.442 92.5275C177.442 92.6707 177.339 92.7423 177.135 92.7423H172.624C172.42 92.7423 172.246 92.6809 172.103 92.5582C171.98 92.4354 171.919 92.2718 171.919 92.0672C171.919 91.8421 171.827 91.6375 171.642 91.4534C171.479 91.2692 171.274 91.1772 171.029 91.1772C170.395 91.1772 170.078 91.5148 170.078 92.1899C170.078 92.7832 170.313 93.3254 170.783 93.8164C171.274 94.3075 171.847 94.553 172.502 94.553H177.38C177.871 94.553 178.311 94.3484 178.7 93.9392C179.088 93.53 179.283 93.0594 179.283 92.5275C179.283 92.0569 179.119 91.6068 178.792 91.1772L172.041 82.5842C171.959 82.4615 171.919 82.3592 171.919 82.2773C171.919 82.1546 172.021 82.0932 172.225 82.0932H176.736C177.104 82.0932 177.339 82.2773 177.442 82.6456C177.544 83.0343 177.646 83.3003 177.748 83.4435C177.871 83.5868 178.086 83.6584 178.393 83.6584C178.618 83.6584 178.822 83.5663 179.006 83.3822C179.19 83.198 179.283 82.9832 179.283 82.7377C179.283 82.0421 179.027 81.4487 178.515 80.9577C178.004 80.4667 177.452 80.2212 176.859 80.2212H172.133C171.561 80.2212 171.08 80.4258 170.691 80.835ZM21.3264 80.8043C21.1627 80.6201 20.9479 80.5281 20.682 80.5281C20.4366 80.5281 20.232 80.6201 20.0684 80.8043C19.8843 80.9884 19.7922 81.2032 19.7922 81.4488V84.4256L17.0308 91.4534L14.2693 84.4256V81.4488C14.2693 81.2032 14.1875 80.9884 14.0238 80.8043C13.8397 80.6201 13.6249 80.5281 13.3795 80.5281C13.1136 80.5281 12.8988 80.6201 12.7351 80.8043C12.551 80.9884 12.459 81.2032 12.459 81.4488V84.7938L16.1103 94.1847C16.2944 94.6348 16.6012 94.8599 17.0308 94.8599C17.4399 94.8599 17.7365 94.6348 17.9206 94.1847L21.6025 84.7938V81.4488C21.6025 81.2032 21.5105 80.9884 21.3264 80.8043ZM34.6428 82.0932C34.8269 81.9091 34.9189 81.6943 34.9189 81.4488C34.9189 81.2032 34.8269 80.9884 34.6428 80.8043C34.4587 80.6201 34.2439 80.5281 33.9985 80.5281H25.7754V94.8599H33.9985C34.2439 94.8599 34.4587 94.778 34.6428 94.6143C34.8269 94.4302 34.9189 94.2154 34.9189 93.9699C34.9189 93.7244 34.8269 93.5095 34.6428 93.3254C34.4792 93.1413 34.2746 93.0492 34.0291 93.0492H27.5857V88.63H30.3472C30.5926 88.63 30.8074 88.5379 30.9915 88.3538C31.1756 88.1697 31.2677 87.9446 31.2677 87.6786C31.2677 87.4536 31.1756 87.249 30.9915 87.0648C30.8074 86.8807 30.5926 86.7886 30.3472 86.7886H27.5857V82.3694H33.9985C34.2439 82.3694 34.4587 82.2774 34.6428 82.0932ZM39.3373 94.6143C39.5214 94.778 39.7362 94.8599 39.9816 94.8599C40.2271 94.8599 40.4419 94.778 40.626 94.6143C40.8101 94.4302 40.9021 94.2154 40.9021 93.9699V89.6427L46.6705 94.6143C46.8751 94.778 47.0899 94.8599 47.3149 94.8599C47.5808 94.8599 47.8058 94.7678 47.9899 94.5837C48.1535 94.3791 48.2354 94.1642 48.2354 93.9392C48.2354 93.6937 48.1535 93.4993 47.9899 93.3561L41.3931 87.6479L47.9592 82.0625C48.1638 81.8989 48.2558 81.6943 48.2354 81.4488C48.2354 81.2032 48.1535 80.9884 47.9899 80.8043C47.8263 80.6201 47.6217 80.5281 47.3762 80.5281C47.1308 80.5281 46.9058 80.6099 46.7012 80.7736L40.9021 85.7145V81.4488C40.9021 81.1828 40.8101 80.9679 40.626 80.8043C40.4419 80.6201 40.2271 80.5281 39.9816 80.5281C39.7362 80.5281 39.5214 80.6201 39.3373 80.8043C39.1737 80.9884 39.0918 81.2032 39.0918 81.4488V93.9699C39.0918 94.2154 39.1737 94.4302 39.3373 94.6143ZM52.4389 93.9392C52.4389 94.2052 52.531 94.4302 52.7151 94.6143C52.8787 94.778 53.0935 94.8599 53.3594 94.8599C53.5435 94.8599 53.7174 94.8087 53.881 94.7064C54.0447 94.6041 54.1367 94.5018 54.1572 94.3995L54.9549 91.7603H59.1278L59.8335 94.2154C59.9563 94.645 60.2631 94.8599 60.754 94.8599C60.9586 94.8599 61.1529 94.778 61.337 94.6143C61.5007 94.4302 61.5825 94.2154 61.5825 93.9699C61.5825 93.888 61.5723 93.796 61.5518 93.6937L57.9005 81.1112C57.7982 80.7224 57.5221 80.5281 57.0721 80.5281C56.6221 80.5281 56.3255 80.7531 56.1823 81.2032L52.5003 93.6016C52.4594 93.7244 52.4389 93.8369 52.4389 93.9392ZM58.5755 89.9189H55.5072L57.0721 84.7325L58.5755 89.9189ZM66.0929 94.6143C66.2565 94.778 66.4713 94.8599 66.7372 94.8599C66.9827 94.8599 67.1975 94.778 67.3816 94.6143C67.5657 94.4302 67.6577 94.2154 67.6577 93.9699V87.0341H68.9464L73.2113 94.3995C73.3954 94.7064 73.6614 94.8599 74.0091 94.8599C74.2546 94.8599 74.4693 94.778 74.6534 94.6143C74.8375 94.4302 74.9296 94.2154 74.9296 93.9699C74.9296 93.7857 74.8784 93.6016 74.7762 93.4175L71.0635 87.0341H72.2295C72.9659 87.0341 73.6 86.7682 74.1318 86.2362C74.6637 85.7043 74.9296 85.0598 74.9296 84.3028V83.2594C74.9296 82.5229 74.6637 81.8784 74.1318 81.326C73.6 80.794 72.9659 80.5281 72.2295 80.5281H65.8167V93.9699C65.8167 94.2154 65.9088 94.4302 66.0929 94.6143ZM67.6577 82.3694H72.2295C72.4749 82.3694 72.6897 82.4513 72.8738 82.6149C73.0375 82.7991 73.1193 83.0139 73.1193 83.2594V84.3335C73.1193 84.579 73.0375 84.7939 72.8738 84.978C72.6897 85.1417 72.4749 85.2235 72.2295 85.2235H67.6577V82.3694ZM79.4093 80.8043C79.2252 80.9884 79.1332 81.2135 79.1332 81.4794C79.1332 81.7249 79.2252 81.9398 79.4093 82.1239C79.573 82.2876 79.7877 82.3694 80.0536 82.3694H82.8151V93.0799H80.0536C79.7877 93.0799 79.573 93.1617 79.4093 93.3254C79.2252 93.5095 79.1332 93.7244 79.1332 93.9699C79.1332 94.2359 79.2252 94.4507 79.4093 94.6143C79.573 94.7985 79.7877 94.8906 80.0536 94.8906H87.3869C87.6324 94.8906 87.8471 94.7985 88.0312 94.6143C88.1949 94.4507 88.2767 94.2359 88.2767 93.9699C88.2767 93.7244 88.1949 93.5095 88.0312 93.3254C87.8471 93.1617 87.6324 93.0799 87.3869 93.0799H84.6254V82.3694H87.3869C87.6324 82.3694 87.8369 82.2774 88.0006 82.0932C88.1847 81.9091 88.2767 81.6943 88.2767 81.4488C88.2767 81.2032 88.1847 80.9884 88.0006 80.8043C87.8165 80.6406 87.6119 80.5588 87.3869 80.5588H80.0536C79.7877 80.5588 79.573 80.6406 79.4093 80.8043ZM101.654 83.3822V81.4794C101.654 81.193 101.562 80.9679 101.378 80.8043C101.194 80.6406 100.979 80.5588 100.734 80.5588C100.489 80.5588 100.284 80.6406 100.12 80.8043C99.9362 80.9884 99.8442 81.2032 99.8442 81.4488V82.707L97.052 86.2362L94.3212 82.7377V81.4794C94.3212 81.2339 94.2292 81.0191 94.0451 80.835C93.861 80.6508 93.6462 80.5588 93.4008 80.5588C93.1348 80.5588 92.9201 80.6406 92.7564 80.8043C92.5723 80.9884 92.4803 81.2135 92.4803 81.4794V83.3822L96.1622 88.0162V93.9699C96.1622 94.2359 96.244 94.4507 96.4077 94.6143C96.5918 94.7985 96.8168 94.8906 97.0827 94.8906C97.3282 94.8906 97.543 94.7985 97.7271 94.6143C97.8907 94.4507 97.9725 94.2359 97.9725 93.9699V88.0162L101.654 83.3822ZM105.827 93.9392C105.827 94.2052 105.909 94.4302 106.073 94.6143C106.257 94.7985 106.482 94.8906 106.748 94.8906C106.932 94.8906 107.106 94.8394 107.269 94.7371C107.433 94.6144 107.525 94.5018 107.546 94.3995L108.313 91.7603H112.486L113.222 94.2154C113.345 94.6655 113.641 94.8906 114.112 94.8906C114.337 94.8906 114.531 94.7985 114.695 94.6143C114.879 94.4302 114.971 94.2154 114.971 93.9699C114.971 93.888 114.95 93.796 114.91 93.6937L111.289 81.1112C111.166 80.7224 110.89 80.5281 110.461 80.5281C109.99 80.5281 109.683 80.7634 109.54 81.2339L105.889 93.6323C105.848 93.7346 105.827 93.8369 105.827 93.9392ZM111.964 89.9189H108.865L110.43 84.7325L111.964 89.9189Z" fill="#00A0E3"/>
<path d="M21.1709 80.8964V84.2415L17.4889 93.6323C17.3048 94.0824 17.0082 94.3075 16.5991 94.3075C16.1695 94.3075 15.8627 94.0824 15.6786 93.6323L12.0273 84.2415V80.8964C12.0273 80.6508 12.1092 80.436 12.2728 80.2519C12.4569 80.0678 12.6819 79.9757 12.9478 79.9757C13.1933 79.9757 13.4081 80.0678 13.5922 80.2519C13.7558 80.4156 13.8376 80.6304 13.8376 80.8964V83.8425L16.5991 90.901L19.3606 83.8732V80.8964C19.3606 80.6508 19.4424 80.436 19.606 80.2519C19.7901 80.0678 20.0049 79.9757 20.2504 79.9757C20.5163 79.9757 20.7311 80.0678 20.8947 80.2519C21.0788 80.436 21.1709 80.6508 21.1709 80.8964ZM33.5668 81.817H27.1541V86.2363H29.9155C30.161 86.2363 30.3758 86.3181 30.5599 86.4818C30.744 86.6659 30.836 86.8807 30.836 87.1263C30.836 87.3922 30.744 87.6173 30.5599 87.8014C30.3758 87.9651 30.161 88.0469 29.9155 88.0469H27.1541V92.4968H33.5975C33.8225 92.4968 34.0271 92.5889 34.2112 92.773C34.3953 92.9367 34.4873 93.1515 34.4873 93.4175C34.4873 93.663 34.3953 93.8778 34.2112 94.062C34.0271 94.2256 33.8123 94.3075 33.5668 94.3075H25.3438V79.9757H33.5668C33.8123 79.9757 34.0271 80.0678 34.2112 80.2519C34.3953 80.436 34.4873 80.6508 34.4873 80.8964C34.4873 81.1419 34.3953 81.3567 34.2112 81.5408C34.0271 81.725 33.8123 81.817 33.5668 81.817ZM38.6295 93.4175V80.8964C38.6295 80.6508 38.7216 80.436 38.9057 80.2519C39.0898 80.0678 39.3045 79.9757 39.55 79.9757C39.7955 79.9757 40.0102 80.0678 40.1943 80.2519C40.358 80.4156 40.4398 80.6202 40.4398 80.8657V85.1621L46.2696 80.2212C46.4537 80.0575 46.6787 79.9757 46.9446 79.9757C47.1901 79.9757 47.3946 80.0678 47.5583 80.2519C47.7219 80.436 47.8037 80.6508 47.8037 80.8964C47.8242 81.1419 47.7321 81.3465 47.5276 81.5101L40.9614 87.0956L47.5583 92.773C47.7219 92.9367 47.8037 93.1413 47.8037 93.3868C47.8037 93.6119 47.7219 93.8267 47.5583 94.0313C47.3742 94.2154 47.1492 94.3075 46.8832 94.3075C46.6378 94.3075 46.423 94.2256 46.2389 94.062L40.4398 89.0597V93.4175C40.4398 93.663 40.358 93.8778 40.1943 94.062C40.0102 94.2256 39.7955 94.3075 39.55 94.3075C39.3045 94.3075 39.0898 94.2256 38.9057 94.062C38.7216 93.8778 38.6295 93.663 38.6295 93.4175ZM52.0687 93.0492L55.7506 80.6509C55.8938 80.2007 56.1904 79.9757 56.6404 79.9757C57.07 79.9757 57.3461 80.1701 57.4689 80.5588L61.1202 93.1413C61.1406 93.2231 61.1508 93.3152 61.1508 93.4175C61.1508 93.663 61.069 93.8778 60.9054 94.062C60.7213 94.2256 60.5167 94.3075 60.2917 94.3075C59.8212 94.3075 59.5246 94.0927 59.4019 93.663L58.6655 91.2079H54.5233L53.7255 93.8165C53.7051 93.9392 53.613 94.0517 53.4494 94.154C53.2858 94.2563 53.1119 94.3075 52.9278 94.3075C52.6619 94.3075 52.4471 94.2154 52.2834 94.0313C52.0993 93.8676 52.0073 93.6528 52.0073 93.3868C52.0073 93.2845 52.0278 93.172 52.0687 93.0492ZM56.6097 84.1801L55.0756 89.3665H58.1439L56.6097 84.1801ZM65.3851 93.4175V79.9757H71.7978C72.5342 79.9757 73.1683 80.2417 73.7002 80.7736C74.232 81.326 74.4979 81.9705 74.4979 82.707V83.7505C74.4979 84.5075 74.232 85.1519 73.7002 85.6839C73.1683 86.2158 72.5342 86.4818 71.7978 86.4818H70.6319L74.3138 92.8651C74.4366 93.0492 74.4979 93.2334 74.4979 93.4175C74.4979 93.663 74.4059 93.8778 74.2218 94.062C74.0377 94.2256 73.8229 94.3075 73.5775 94.3075C73.2297 94.3075 72.9536 94.154 72.749 93.8471L68.5148 86.4818H67.2261V93.4175C67.2261 93.663 67.134 93.8778 66.9499 94.062C66.7658 94.2256 66.5408 94.3075 66.2749 94.3075C66.0294 94.3075 65.8146 94.2256 65.6305 94.062C65.4669 93.8778 65.3851 93.663 65.3851 93.4175ZM67.2261 84.6711H71.7978C72.0433 84.6711 72.2581 84.5893 72.4422 84.4256C72.6058 84.2415 72.6876 84.0267 72.6876 83.7811V82.707C72.6876 82.4615 72.6058 82.2467 72.4422 82.0626C72.2581 81.8989 72.0433 81.817 71.7978 81.817H67.2261V84.6711ZM79.5913 79.945H86.9246C87.17 79.945 87.3848 80.0371 87.5689 80.2212C87.753 80.4054 87.845 80.6202 87.845 80.8657C87.845 81.1112 87.753 81.326 87.5689 81.5101C87.3848 81.6943 87.17 81.7864 86.9246 81.7864H84.1631V92.4968H86.9246C87.1905 92.4968 87.4053 92.5787 87.5689 92.7423C87.753 92.9265 87.845 93.1413 87.845 93.3868C87.845 93.6323 87.753 93.8472 87.5689 94.0313C87.3848 94.2154 87.17 94.3075 86.9246 94.3075H79.5913C79.3458 94.3075 79.1413 94.2154 78.9777 94.0313C78.7936 93.8472 78.7015 93.6323 78.7015 93.3868C78.7015 93.1413 78.7833 92.9265 78.947 92.7423C79.1311 92.5787 79.3458 92.4968 79.5913 92.4968H82.3528V81.7864H79.5913C79.3458 81.7864 79.1311 81.6943 78.947 81.5101C78.7833 81.3465 78.7015 81.1419 78.7015 80.8964C78.7015 80.6304 78.7936 80.4054 78.9777 80.2212C79.1413 80.0371 79.3458 79.945 79.5913 79.945ZM97.5409 87.4024V93.3868C97.5409 93.6323 97.4488 93.8472 97.2647 94.0313C97.0806 94.2154 96.8761 94.3075 96.6511 94.3075C96.3852 94.3075 96.1601 94.2154 95.976 94.0313C95.7919 93.8472 95.6999 93.6323 95.6999 93.3868V87.4331L92.0486 82.7991V80.8964C92.0486 80.6304 92.1304 80.4054 92.2941 80.2212C92.4782 80.0371 92.693 79.945 92.9384 79.945C93.2043 79.945 93.4294 80.0473 93.6134 80.2519C93.7975 80.436 93.8896 80.6508 93.8896 80.8964V82.1546L96.6204 85.6532L99.4125 82.1239V80.8657C99.4125 80.6202 99.4944 80.4054 99.658 80.2212C99.8421 80.0575 100.057 79.9655 100.302 79.945C100.548 79.945 100.763 80.0371 100.947 80.2212C101.131 80.3849 101.223 80.6099 101.223 80.8964V82.7991L97.5409 87.4024ZM105.396 93.0185L109.078 80.6202C109.221 80.1701 109.517 79.945 109.967 79.945C110.418 79.945 110.694 80.1291 110.796 80.4974L114.447 93.1106C114.488 93.1925 114.509 93.2743 114.509 93.3561C114.509 93.6221 114.417 93.8369 114.232 94.0006C114.069 94.1847 113.874 94.2768 113.649 94.2768C113.179 94.2768 112.872 94.0517 112.729 93.6016L112.023 91.1465H107.85L107.053 93.7858C107.032 93.9085 106.95 94.0211 106.807 94.1234C106.644 94.2256 106.459 94.2768 106.255 94.2768C106.009 94.2768 105.795 94.1847 105.61 94.0006C105.447 93.8165 105.355 93.6016 105.334 93.3561C105.334 93.2334 105.355 93.1208 105.396 93.0185ZM109.967 84.1187L108.403 89.3358H111.471L109.967 84.1187Z" fill="#00A0E3"/>
<path d="M21.1709 80.8964V84.2415L17.4889 93.6323C17.3048 94.0824 17.0082 94.3075 16.5991 94.3075C16.1695 94.3075 15.8627 94.0824 15.6786 93.6323L12.0273 84.2415V80.8964C12.0273 80.6508 12.1092 80.436 12.2728 80.2519C12.4569 80.0678 12.6819 79.9757 12.9478 79.9757C13.1933 79.9757 13.4081 80.0678 13.5922 80.2519C13.7558 80.4156 13.8376 80.6304 13.8376 80.8964V83.8425L16.5991 90.901L19.3606 83.8732V80.8964C19.3606 80.6508 19.4424 80.436 19.606 80.2519C19.7901 80.0678 20.0049 79.9757 20.2504 79.9757C20.5163 79.9757 20.7311 80.0678 20.8947 80.2519C21.0788 80.436 21.1709 80.6508 21.1709 80.8964ZM33.5668 81.817H27.1541V86.2363H29.9155C30.161 86.2363 30.3758 86.3181 30.5599 86.4818C30.744 86.6659 30.836 86.8807 30.836 87.1263C30.836 87.3922 30.744 87.6173 30.5599 87.8014C30.3758 87.9651 30.161 88.0469 29.9155 88.0469H27.1541V92.4968H33.5975C33.8225 92.4968 34.0271 92.5889 34.2112 92.773C34.3953 92.9367 34.4873 93.1515 34.4873 93.4175C34.4873 93.663 34.3953 93.8778 34.2112 94.062C34.0271 94.2256 33.8123 94.3075 33.5668 94.3075H25.3438V79.9757H33.5668C33.8123 79.9757 34.0271 80.0678 34.2112 80.2519C34.3953 80.436 34.4873 80.6508 34.4873 80.8964C34.4873 81.1419 34.3953 81.3567 34.2112 81.5408C34.0271 81.725 33.8123 81.817 33.5668 81.817ZM38.6295 93.4175V80.8964C38.6295 80.6508 38.7216 80.436 38.9057 80.2519C39.0898 80.0678 39.3045 79.9757 39.55 79.9757C39.7955 79.9757 40.0102 80.0678 40.1943 80.2519C40.358 80.4156 40.4398 80.6202 40.4398 80.8657V85.1621L46.2696 80.2212C46.4537 80.0575 46.6787 79.9757 46.9446 79.9757C47.1901 79.9757 47.3946 80.0678 47.5583 80.2519C47.7219 80.436 47.8037 80.6508 47.8037 80.8964C47.8242 81.1419 47.7321 81.3465 47.5276 81.5101L40.9614 87.0956L47.5583 92.773C47.7219 92.9367 47.8037 93.1413 47.8037 93.3868C47.8037 93.6119 47.7219 93.8267 47.5583 94.0313C47.3742 94.2154 47.1492 94.3075 46.8832 94.3075C46.6378 94.3075 46.423 94.2256 46.2389 94.062L40.4398 89.0597V93.4175C40.4398 93.663 40.358 93.8778 40.1943 94.062C40.0102 94.2256 39.7955 94.3075 39.55 94.3075C39.3045 94.3075 39.0898 94.2256 38.9057 94.062C38.7216 93.8778 38.6295 93.663 38.6295 93.4175ZM52.0687 93.0492L55.7506 80.6509C55.8938 80.2007 56.1904 79.9757 56.6404 79.9757C57.07 79.9757 57.3461 80.1701 57.4689 80.5588L61.1202 93.1413C61.1406 93.2231 61.1508 93.3152 61.1508 93.4175C61.1508 93.663 61.069 93.8778 60.9054 94.062C60.7213 94.2256 60.5167 94.3075 60.2917 94.3075C59.8212 94.3075 59.5246 94.0927 59.4019 93.663L58.6655 91.2079H54.5233L53.7255 93.8165C53.7051 93.9392 53.613 94.0517 53.4494 94.154C53.2858 94.2563 53.1119 94.3075 52.9278 94.3075C52.6619 94.3075 52.4471 94.2154 52.2834 94.0313C52.0993 93.8676 52.0073 93.6528 52.0073 93.3868C52.0073 93.2845 52.0278 93.172 52.0687 93.0492ZM56.6097 84.1801L55.0756 89.3665H58.1439L56.6097 84.1801ZM65.3851 93.4175V79.9757H71.7978C72.5342 79.9757 73.1683 80.2417 73.7002 80.7736C74.232 81.326 74.4979 81.9705 74.4979 82.707V83.7505C74.4979 84.5075 74.232 85.1519 73.7002 85.6839C73.1683 86.2158 72.5342 86.4818 71.7978 86.4818H70.6319L74.3138 92.8651C74.4366 93.0492 74.4979 93.2334 74.4979 93.4175C74.4979 93.663 74.4059 93.8778 74.2218 94.062C74.0377 94.2256 73.8229 94.3075 73.5775 94.3075C73.2297 94.3075 72.9536 94.154 72.749 93.8471L68.5148 86.4818H67.2261V93.4175C67.2261 93.663 67.134 93.8778 66.9499 94.062C66.7658 94.2256 66.5408 94.3075 66.2749 94.3075C66.0294 94.3075 65.8146 94.2256 65.6305 94.062C65.4669 93.8778 65.3851 93.663 65.3851 93.4175ZM67.2261 84.6711H71.7978C72.0433 84.6711 72.2581 84.5893 72.4422 84.4256C72.6058 84.2415 72.6876 84.0267 72.6876 83.7811V82.707C72.6876 82.4615 72.6058 82.2467 72.4422 82.0626C72.2581 81.8989 72.0433 81.817 71.7978 81.817H67.2261V84.6711ZM79.5913 79.945H86.9246C87.17 79.945 87.3848 80.0371 87.5689 80.2212C87.753 80.4054 87.845 80.6202 87.845 80.8657C87.845 81.1112 87.753 81.326 87.5689 81.5101C87.3848 81.6943 87.17 81.7864 86.9246 81.7864H84.1631V92.4968H86.9246C87.1905 92.4968 87.4053 92.5787 87.5689 92.7423C87.753 92.9265 87.845 93.1413 87.845 93.3868C87.845 93.6323 87.753 93.8472 87.5689 94.0313C87.3848 94.2154 87.17 94.3075 86.9246 94.3075H79.5913C79.3458 94.3075 79.1413 94.2154 78.9777 94.0313C78.7936 93.8472 78.7015 93.6323 78.7015 93.3868C78.7015 93.1413 78.7833 92.9265 78.947 92.7423C79.1311 92.5787 79.3458 92.4968 79.5913 92.4968H82.3528V81.7864H79.5913C79.3458 81.7864 79.1311 81.6943 78.947 81.5101C78.7833 81.3465 78.7015 81.1419 78.7015 80.8964C78.7015 80.6304 78.7936 80.4054 78.9777 80.2212C79.1413 80.0371 79.3458 79.945 79.5913 79.945ZM97.5409 87.4024V93.3868C97.5409 93.6323 97.4488 93.8472 97.2647 94.0313C97.0806 94.2154 96.8761 94.3075 96.6511 94.3075C96.3852 94.3075 96.1601 94.2154 95.976 94.0313C95.7919 93.8472 95.6999 93.6323 95.6999 93.3868V87.4331L92.0486 82.7991V80.8964C92.0486 80.6304 92.1304 80.4054 92.2941 80.2212C92.4782 80.0371 92.693 79.945 92.9384 79.945C93.2043 79.945 93.4294 80.0473 93.6134 80.2519C93.7975 80.436 93.8896 80.6508 93.8896 80.8964V82.1546L96.6204 85.6532L99.4125 82.1239V80.8657C99.4125 80.6202 99.4944 80.4054 99.658 80.2212C99.8421 80.0575 100.057 79.9655 100.302 79.945C100.548 79.945 100.763 80.0371 100.947 80.2212C101.131 80.3849 101.223 80.6099 101.223 80.8964V82.7991L97.5409 87.4024ZM105.396 93.0185L109.078 80.6202C109.221 80.1701 109.517 79.945 109.967 79.945C110.418 79.945 110.694 80.1291 110.796 80.4974L114.447 93.1106C114.488 93.1925 114.509 93.2743 114.509 93.3561C114.509 93.6221 114.417 93.8369 114.232 94.0006C114.069 94.1847 113.874 94.2768 113.649 94.2768C113.179 94.2768 112.872 94.0517 112.729 93.6016L112.023 91.1465H107.85L107.053 93.7858C107.032 93.9085 106.95 94.0211 106.807 94.1234C106.644 94.2256 106.459 94.2768 106.255 94.2768C106.009 94.2768 105.795 94.1847 105.61 94.0006C105.447 93.8165 105.355 93.6016 105.334 93.3561C105.334 93.2334 105.355 93.1208 105.396 93.0185ZM109.967 84.1187L108.403 89.3358H111.471L109.967 84.1187Z" fill="#393185"/>
<path d="M25.1641 104.343V99.095H26.1766C26.9335 99.095 27.4653 99.1257 27.7721 99.1871C28.0789 99.2689 28.3449 99.4019 28.5699 99.586C28.8767 99.8111 29.1017 100.108 29.2449 100.476C29.4086 100.824 29.4904 101.243 29.4904 101.734C29.4904 102.184 29.4086 102.594 29.2449 102.962C29.1017 103.33 28.8767 103.627 28.5699 103.852C28.3449 104.036 28.0789 104.169 27.7721 104.251C27.4857 104.312 27.0357 104.343 26.4221 104.343H26.1766H25.1641ZM25.8084 103.76H26.2073C26.8619 103.76 27.3119 103.729 27.5573 103.668C27.8028 103.606 28.0074 103.514 28.171 103.391C28.396 103.207 28.5596 102.972 28.6619 102.686C28.7847 102.399 28.846 102.072 28.846 101.704C28.846 101.335 28.7847 101.018 28.6619 100.752C28.5596 100.466 28.396 100.231 28.171 100.046C28.0074 99.9032 27.7926 99.8009 27.5267 99.7395C27.2812 99.6986 26.8414 99.6781 26.2073 99.6781H25.8084V103.76ZM30.3495 99.4633C30.3495 99.3405 30.3904 99.2382 30.4722 99.1564C30.554 99.0745 30.6563 99.0336 30.7791 99.0336C30.8813 99.0336 30.9734 99.0745 31.0552 99.1564C31.137 99.2382 31.1779 99.3405 31.1779 99.4633C31.1779 99.586 31.137 99.6781 31.0552 99.7395C30.9734 99.8213 30.8813 99.8622 30.7791 99.8622C30.6563 99.8622 30.554 99.8213 30.4722 99.7395C30.3904 99.6781 30.3495 99.586 30.3495 99.4633ZM30.4722 104.343V101.028H31.0552V104.343H30.4722ZM35.2895 101.028V104.343H34.7372V103.729C34.6144 103.975 34.4508 104.159 34.2462 104.281C34.0417 104.404 33.8064 104.466 33.5405 104.466C33.0701 104.466 32.6916 104.302 32.4053 103.975C32.1189 103.668 31.9757 103.238 31.9757 102.686C31.9757 102.154 32.1189 101.724 32.4053 101.397C32.6712 101.09 33.0394 100.936 33.5098 100.936C33.7962 100.936 34.0417 100.998 34.2462 101.12C34.4508 101.243 34.6144 101.427 34.7372 101.673V101.028H35.2895ZM34.7372 102.716C34.7372 102.348 34.6349 102.051 34.4303 101.826C34.2258 101.601 33.9599 101.489 33.6326 101.489C33.3053 101.489 33.0394 101.591 32.8348 101.796C32.6507 102 32.5587 102.297 32.5587 102.686C32.5587 103.074 32.6507 103.381 32.8348 103.606C33.0394 103.811 33.3155 103.913 33.6633 103.913C33.9905 103.913 34.2565 103.811 34.461 103.606C34.6451 103.402 34.7372 103.105 34.7372 102.716ZM40.9965 104.343V102.409C40.9965 102.062 40.9249 101.806 40.7817 101.642C40.6385 101.479 40.434 101.397 40.168 101.397C40.0249 101.397 39.8817 101.427 39.7385 101.489C39.6158 101.55 39.5135 101.642 39.4317 101.765C39.3703 101.847 39.3192 101.949 39.2782 102.072C39.2578 102.174 39.2476 102.358 39.2476 102.624V104.343H38.6953V102.409C38.6953 102.062 38.6237 101.806 38.4805 101.642C38.3578 101.479 38.1532 101.397 37.8668 101.397C37.7236 101.397 37.5907 101.427 37.4679 101.489C37.3248 101.55 37.2123 101.642 37.1304 101.765C37.0691 101.847 37.0179 101.939 36.977 102.041C36.9566 102.164 36.9463 102.358 36.9463 102.624V104.343H36.394V101.028H36.9463V101.55C37.0895 101.346 37.2532 101.192 37.4373 101.09C37.6214 100.988 37.8464 100.936 38.1123 100.936C38.3782 100.936 38.6032 100.988 38.7873 101.09C38.9714 101.213 39.1146 101.376 39.2169 101.581C39.3396 101.356 39.5033 101.192 39.7078 101.09C39.8919 100.988 40.1169 100.936 40.3828 100.936C40.751 100.936 41.0374 101.039 41.242 101.243C41.4465 101.448 41.5488 101.734 41.5488 102.103V104.343H40.9965ZM42.3772 102.686C42.3772 102.461 42.4284 102.236 42.5306 102.01C42.6125 101.806 42.7352 101.612 42.8988 101.427C43.0829 101.264 43.2773 101.141 43.4818 101.059C43.7068 100.977 43.9421 100.936 44.1875 100.936C44.433 100.936 44.658 100.977 44.8626 101.059C45.0876 101.141 45.2819 101.274 45.4455 101.458C45.6092 101.622 45.7421 101.806 45.8444 102.01C45.9262 102.236 45.9671 102.461 45.9671 102.686C45.9671 102.931 45.9262 103.166 45.8444 103.391C45.7421 103.596 45.6092 103.78 45.4455 103.944C45.2819 104.108 45.0876 104.241 44.8626 104.343C44.6375 104.425 44.4125 104.466 44.1875 104.466C43.9421 104.466 43.7068 104.425 43.4818 104.343C43.2773 104.261 43.0829 104.128 42.8988 103.944C42.7352 103.78 42.6125 103.596 42.5306 103.391C42.4284 103.166 42.3772 102.931 42.3772 102.686ZM42.9909 102.686C42.9909 103.033 43.1034 103.33 43.3284 103.576C43.5739 103.821 43.8602 103.944 44.1875 103.944C44.5148 103.944 44.791 103.821 45.016 103.576C45.241 103.33 45.3535 103.033 45.3535 102.686C45.3535 102.338 45.241 102.051 45.016 101.826C44.791 101.581 44.5148 101.458 44.1875 101.458C43.8602 101.458 43.5739 101.581 43.3284 101.826C43.1034 102.051 42.9909 102.338 42.9909 102.686ZM46.8569 104.343V101.028H47.4092V101.55C47.5524 101.346 47.7161 101.192 47.9002 101.09C48.1047 100.988 48.34 100.936 48.6059 100.936C48.9945 100.936 49.2911 101.039 49.4957 101.243C49.7207 101.448 49.8332 101.734 49.8332 102.103V104.343H49.2502V102.409C49.2502 102.062 49.1889 101.806 49.0661 101.642C48.9229 101.479 48.6979 101.397 48.3911 101.397C48.2275 101.397 48.074 101.427 47.9309 101.489C47.8081 101.55 47.6956 101.642 47.5933 101.765C47.532 101.847 47.4808 101.949 47.4399 102.072C47.4195 102.174 47.4092 102.358 47.4092 102.624V104.343H46.8569ZM54.0061 98.7574V104.343H53.4845V103.729C53.3413 103.975 53.1674 104.159 52.9629 104.281C52.7583 104.404 52.5333 104.466 52.2878 104.466C51.8174 104.466 51.4389 104.302 51.1526 103.975C50.8457 103.668 50.6923 103.238 50.6923 102.686C50.6923 102.154 50.8355 101.724 51.1219 101.397C51.4083 101.09 51.7867 100.936 52.2572 100.936C52.5231 100.936 52.7583 100.998 52.9629 101.12C53.1674 101.243 53.3311 101.427 53.4538 101.673V98.7574H54.0061ZM53.4538 102.716C53.4538 102.348 53.3515 102.051 53.147 101.826C52.9629 101.601 52.6969 101.489 52.3492 101.489C52.0219 101.489 51.7662 101.591 51.5821 101.796C51.398 102 51.306 102.276 51.306 102.624C51.306 103.033 51.398 103.351 51.5821 103.576C51.7662 103.821 52.0219 103.944 52.3492 103.944C52.6969 103.944 52.9731 103.831 53.1776 103.606C53.3617 103.381 53.4538 103.085 53.4538 102.716ZM59.8359 104.527L58.2097 100.752L57.5346 104.343H56.921L57.9949 98.8495L59.8359 103.207L61.6768 98.8495L62.7507 104.343H62.1371L61.4621 100.752L59.8359 104.527ZM66.5554 101.028V104.312H66.0338V103.729C65.8906 103.975 65.7168 104.159 65.5122 104.281C65.3077 104.404 65.0827 104.466 64.8372 104.466C64.3667 104.466 63.9781 104.302 63.6712 103.975C63.3849 103.647 63.2417 103.218 63.2417 102.686C63.2417 102.154 63.3849 101.724 63.6712 101.397C63.9576 101.069 64.336 100.906 64.8065 100.906C65.0724 100.906 65.3077 100.967 65.5122 101.09C65.7168 101.213 65.8804 101.397 66.0031 101.642V101.028H66.5554ZM66.0031 102.716C66.0031 102.348 65.9009 102.051 65.6963 101.826C65.5122 101.601 65.2565 101.489 64.9292 101.489C64.5815 101.489 64.3156 101.591 64.1315 101.796C63.9474 102 63.8553 102.287 63.8553 102.655C63.8553 103.064 63.9474 103.371 64.1315 103.576C64.3156 103.801 64.5815 103.913 64.9292 103.913C65.277 103.913 65.5429 103.811 65.727 103.606C65.9111 103.381 66.0031 103.085 66.0031 102.716ZM67.6907 104.312V101.028H68.243V101.55C68.3862 101.325 68.5498 101.161 68.7339 101.059C68.9385 100.957 69.1737 100.906 69.4396 100.906C69.8283 100.906 70.1351 101.008 70.3601 101.213C70.5647 101.438 70.667 101.724 70.667 102.072V104.312H70.1147V102.379C70.1147 102.051 70.0431 101.806 69.8999 101.642C69.7567 101.479 69.5419 101.397 69.2555 101.397C69.0714 101.397 68.918 101.427 68.7953 101.489C68.6521 101.55 68.5294 101.642 68.4271 101.765C68.3657 101.847 68.3248 101.939 68.3044 102.041C68.2635 102.164 68.243 102.358 68.243 102.624V104.312H67.6907ZM72.3238 101.028V102.655C72.3238 103.126 72.3954 103.453 72.5386 103.637C72.6818 103.842 72.917 103.944 73.2443 103.944C73.5716 103.944 73.8068 103.842 73.95 103.637C74.0932 103.453 74.1648 103.126 74.1648 102.655V101.028H74.7478V102.962C74.7478 103.453 74.6148 103.831 74.3489 104.097C74.1035 104.343 73.7353 104.466 73.2443 104.466C72.7534 104.466 72.375 104.343 72.1091 104.097C71.8636 103.831 71.7409 103.453 71.7409 102.962V101.028H72.3238ZM75.9751 104.312V101.489H75.3308V101.028H75.9751V100.077C75.9751 99.5246 76.0365 99.1564 76.1592 98.9723C76.3024 98.7881 76.5581 98.696 76.9263 98.696C77.0081 98.696 77.0899 98.696 77.1718 98.696C77.2536 98.7165 77.3252 98.737 77.3865 98.7574V99.3405C77.3252 99.2996 77.2536 99.2689 77.1718 99.2485C77.1104 99.228 77.0388 99.2178 76.957 99.2178C76.7933 99.2178 76.6808 99.2689 76.6194 99.3712C76.5581 99.4735 76.5274 99.7395 76.5274 100.169V101.028H77.3865V101.489H76.5274V104.312H75.9751ZM81.0378 101.028V104.312H80.4855V103.729C80.3628 103.975 80.1889 104.159 79.9639 104.281C79.7594 104.404 79.5343 104.466 79.2889 104.466C78.8184 104.466 78.44 104.302 78.1536 103.975C77.8672 103.647 77.724 103.218 77.724 102.686C77.724 102.154 77.857 101.724 78.1229 101.397C78.4093 101.069 78.7877 100.906 79.2582 100.906C79.5446 100.906 79.7798 100.967 79.9639 101.09C80.1685 101.213 80.3321 101.397 80.4548 101.642V101.028H81.0378ZM80.5162 102.716C80.5162 102.348 80.4139 102.051 80.2094 101.826C80.0048 101.601 79.7389 101.489 79.4116 101.489C79.0639 101.489 78.7979 101.591 78.6138 101.796C78.4297 102 78.3377 102.287 78.3377 102.655C78.3377 103.064 78.4297 103.371 78.6138 103.576C78.8184 103.801 79.0946 103.913 79.4423 103.913C79.7696 103.913 80.0253 103.811 80.2094 103.606C80.4139 103.381 80.5162 103.085 80.5162 102.716ZM84.6891 103.545V104.189C84.5459 104.292 84.3823 104.363 84.1982 104.404C84.0141 104.445 83.8095 104.466 83.5845 104.466C83.0936 104.466 82.6845 104.302 82.3572 103.975C82.0503 103.668 81.8969 103.248 81.8969 102.716C81.8969 102.184 82.0606 101.755 82.3879 101.427C82.7152 101.08 83.1243 100.906 83.6152 100.906C83.7993 100.906 83.9834 100.926 84.1675 100.967C84.3311 101.008 84.4948 101.069 84.6584 101.151V101.734C84.5152 101.652 84.3618 101.591 84.1982 101.55C84.055 101.489 83.9016 101.458 83.7379 101.458C83.3697 101.458 83.0731 101.571 82.8481 101.796C82.6231 102.041 82.5106 102.348 82.5106 102.716C82.5106 103.064 82.6231 103.351 82.8481 103.576C83.0731 103.801 83.3493 103.913 83.6765 103.913C83.8606 103.913 84.0345 103.882 84.1982 103.821C84.3618 103.76 84.5255 103.668 84.6891 103.545ZM85.5789 101.489H84.9652V101.028H85.5789V99.7088H86.1619V101.028H86.7448V101.489H86.1619V104.312H85.5789V101.489ZM87.9108 101.028V102.655C87.9108 103.126 87.9824 103.453 88.1256 103.637C88.2688 103.842 88.504 103.944 88.8313 103.944C89.179 103.944 89.4143 103.852 89.537 103.668C89.6802 103.463 89.7518 103.126 89.7518 102.655V101.028H90.3348V102.962C90.3348 103.453 90.2018 103.831 89.9359 104.097C89.6904 104.343 89.3222 104.466 88.8313 104.466C88.3404 104.466 87.9722 104.343 87.7267 104.097C87.4608 103.831 87.3278 103.453 87.3278 102.962V101.028H87.9108ZM91.4087 104.343V101.028H91.9303V101.734C92.0735 101.448 92.2269 101.243 92.3905 101.12C92.5746 100.998 92.7894 100.936 93.0349 100.936C93.0962 100.936 93.1576 100.936 93.219 100.936C93.2803 100.957 93.3417 100.977 93.4031 100.998L93.219 101.489C93.1576 101.468 93.0962 101.458 93.0349 101.458C92.9735 101.438 92.9223 101.427 92.8814 101.427C92.5746 101.427 92.3496 101.54 92.2064 101.765C92.0632 101.97 91.9916 102.287 91.9916 102.716V104.343H91.4087ZM96.9009 102.778H94.2929V102.808C94.2929 103.177 94.3951 103.463 94.5997 103.668C94.8043 103.893 95.0702 104.005 95.3975 104.005C95.6225 104.005 95.8168 103.944 95.9804 103.821C96.1645 103.698 96.3282 103.524 96.4714 103.299L96.9009 103.576C96.7373 103.862 96.5225 104.087 96.2566 104.251C96.0111 104.394 95.7145 104.466 95.3668 104.466C94.8554 104.466 94.4463 104.302 94.1395 103.975C93.8326 103.647 93.6792 103.218 93.6792 102.686C93.6792 102.154 93.8326 101.724 94.1395 101.397C94.4463 101.069 94.8452 100.906 95.3361 100.906C95.827 100.906 96.2054 101.069 96.4714 101.397C96.7577 101.704 96.9009 102.123 96.9009 102.655V102.778ZM96.3179 102.317C96.2975 102.031 96.1952 101.806 96.0111 101.642C95.8475 101.499 95.6122 101.427 95.3054 101.427C95.0395 101.427 94.8145 101.509 94.6304 101.673C94.4463 101.837 94.3338 102.051 94.2929 102.317H96.3179ZM97.7907 104.343V101.059H98.2817V101.734C98.4453 101.448 98.6089 101.243 98.7726 101.12C98.9362 100.998 99.1408 100.936 99.3862 100.936C99.4681 100.936 99.5397 100.947 99.601 100.967C99.6624 100.967 99.7238 100.977 99.7851 100.998L99.601 101.519C99.5192 101.499 99.4578 101.479 99.4169 101.458C99.3556 101.458 99.2942 101.458 99.2328 101.458C98.9465 101.458 98.7214 101.56 98.5578 101.765C98.4146 101.99 98.343 102.317 98.343 102.747V104.343H97.7907ZM99.4783 105.386L100.184 103.422L100.798 103.637L99.9079 105.54L99.4783 105.386ZM104.019 104.343V99.095H104.664V104.343H104.019ZM110.432 104.343V102.409C110.432 102.082 110.361 101.837 110.217 101.673C110.095 101.509 109.89 101.427 109.604 101.427C109.46 101.427 109.328 101.458 109.205 101.519C109.062 101.581 108.949 101.663 108.867 101.765C108.806 101.867 108.755 101.97 108.714 102.072C108.693 102.195 108.683 102.389 108.683 102.655V104.343H108.131V102.409C108.131 102.082 108.07 101.837 107.947 101.673C107.804 101.509 107.599 101.427 107.333 101.427C107.17 101.427 107.026 101.458 106.904 101.519C106.76 101.581 106.648 101.663 106.566 101.765C106.505 101.867 106.464 101.97 106.443 102.072C106.402 102.174 106.382 102.369 106.382 102.655V104.343H105.86V101.059H106.413V101.581C106.535 101.356 106.699 101.192 106.904 101.09C107.088 100.988 107.302 100.936 107.548 100.936C107.814 100.936 108.039 100.998 108.223 101.12C108.407 101.223 108.55 101.386 108.653 101.612C108.796 101.386 108.959 101.223 109.143 101.12C109.348 100.998 109.573 100.936 109.818 100.936C110.187 100.936 110.473 101.039 110.678 101.243C110.882 101.448 110.984 101.734 110.984 102.103V104.343H110.432ZM112.089 105.969V101.059H112.641V101.673C112.764 101.448 112.928 101.264 113.132 101.12C113.357 100.998 113.592 100.936 113.838 100.936C114.308 100.936 114.687 101.1 114.973 101.427C115.26 101.755 115.403 102.184 115.403 102.716C115.403 103.269 115.27 103.698 115.004 104.005C114.718 104.333 114.339 104.496 113.869 104.496C113.603 104.496 113.367 104.435 113.163 104.312C112.958 104.189 112.795 104.005 112.672 103.76V105.969H112.089ZM112.611 102.716C112.611 103.085 112.713 103.381 112.917 103.606C113.122 103.831 113.398 103.944 113.746 103.944C114.073 103.944 114.329 103.842 114.513 103.637C114.697 103.432 114.789 103.146 114.789 102.778C114.789 102.369 114.697 102.051 114.513 101.826C114.329 101.601 114.063 101.489 113.715 101.489C113.388 101.489 113.122 101.601 112.917 101.826C112.713 102.031 112.611 102.328 112.611 102.716ZM116.016 102.716C116.016 102.471 116.068 102.246 116.17 102.041C116.252 101.816 116.374 101.622 116.538 101.458C116.722 101.294 116.916 101.161 117.121 101.059C117.346 100.977 117.581 100.936 117.827 100.936C118.052 100.936 118.277 100.977 118.502 101.059C118.706 101.161 118.901 101.294 119.085 101.458C119.248 101.622 119.381 101.816 119.484 102.041C119.565 102.246 119.606 102.471 119.606 102.716C119.606 102.962 119.565 103.187 119.484 103.391C119.381 103.596 119.248 103.78 119.085 103.944C118.901 104.128 118.706 104.261 118.502 104.343C118.277 104.445 118.052 104.496 117.827 104.496C117.581 104.496 117.346 104.445 117.121 104.343C116.916 104.261 116.722 104.138 116.538 103.975C116.374 103.79 116.252 103.596 116.17 103.391C116.068 103.187 116.016 102.962 116.016 102.716ZM116.63 102.716C116.63 103.064 116.743 103.361 116.968 103.606C117.193 103.852 117.479 103.975 117.827 103.975C118.154 103.975 118.43 103.852 118.655 103.606C118.88 103.361 118.993 103.064 118.993 102.716C118.993 102.369 118.88 102.072 118.655 101.826C118.43 101.581 118.154 101.458 117.827 101.458C117.479 101.458 117.193 101.581 116.968 101.826C116.743 102.072 116.63 102.369 116.63 102.716ZM120.496 104.343V101.059H120.987V101.734C121.13 101.448 121.294 101.243 121.478 101.12C121.642 100.998 121.846 100.936 122.092 100.936C122.153 100.936 122.214 100.947 122.276 100.967C122.337 100.967 122.398 100.977 122.46 100.998L122.276 101.519C122.214 101.499 122.153 101.489 122.092 101.489C122.051 101.468 122 101.458 121.938 101.458C121.631 101.458 121.406 101.56 121.263 101.765C121.12 101.99 121.048 102.317 121.048 102.747V104.343H120.496ZM123.166 101.519H122.552V101.059H123.166V99.7395H123.718V101.059H124.332V101.519H123.718V104.343H123.166V101.519ZM127.921 102.808H125.313V102.839C125.313 103.187 125.416 103.473 125.62 103.698C125.804 103.923 126.06 104.036 126.387 104.036C126.612 104.036 126.817 103.975 127.001 103.852C127.165 103.729 127.318 103.545 127.461 103.299L127.891 103.606C127.727 103.893 127.512 104.118 127.246 104.281C127.001 104.425 126.704 104.496 126.357 104.496C125.866 104.496 125.467 104.333 125.16 104.005C124.853 103.678 124.7 103.238 124.7 102.686C124.7 102.174 124.853 101.755 125.16 101.427C125.467 101.1 125.855 100.936 126.326 100.936C126.817 100.936 127.206 101.09 127.492 101.397C127.778 101.724 127.921 102.154 127.921 102.686V102.808ZM127.308 102.348C127.287 102.062 127.195 101.837 127.032 101.673C126.848 101.53 126.602 101.458 126.295 101.458C126.029 101.458 125.804 101.54 125.62 101.704C125.436 101.867 125.334 102.082 125.313 102.348H127.308ZM128.75 104.374V101.09H129.271V101.765C129.415 101.479 129.568 101.274 129.732 101.151C129.916 101.028 130.131 100.967 130.376 100.967C130.437 100.967 130.499 100.967 130.56 100.967C130.622 100.988 130.683 101.008 130.744 101.028L130.56 101.55C130.499 101.53 130.437 101.509 130.376 101.489C130.315 101.489 130.264 101.489 130.223 101.489C129.916 101.489 129.691 101.591 129.548 101.796C129.404 102.021 129.333 102.348 129.333 102.778V104.374H128.75ZM136.881 104.374L136.39 103.76C136.144 103.985 135.889 104.159 135.623 104.281C135.357 104.404 135.081 104.466 134.794 104.466C134.324 104.466 133.946 104.322 133.659 104.036C133.373 103.77 133.23 103.412 133.23 102.962C133.23 102.655 133.332 102.369 133.536 102.103C133.721 101.837 134.017 101.591 134.426 101.366L134.211 101.12C134.109 100.977 134.027 100.834 133.966 100.691C133.905 100.548 133.874 100.394 133.874 100.23C133.874 99.9031 133.986 99.6372 134.211 99.4326C134.436 99.228 134.723 99.1257 135.071 99.1257C135.439 99.1257 135.735 99.228 135.96 99.4326C136.165 99.6372 136.267 99.9031 136.267 100.23C136.267 100.496 136.196 100.732 136.052 100.936C135.909 101.141 135.664 101.346 135.316 101.55L136.482 102.931C136.564 102.829 136.656 102.716 136.758 102.594C136.86 102.45 136.973 102.297 137.096 102.133L137.464 102.532C137.362 102.696 137.259 102.849 137.157 102.993C137.055 103.115 136.942 103.238 136.82 103.361L137.648 104.374H136.881ZM134.979 101.151L135.193 100.998C135.357 100.895 135.48 100.783 135.562 100.66C135.643 100.537 135.684 100.404 135.684 100.261C135.684 100.077 135.633 99.9338 135.531 99.8315C135.408 99.7088 135.255 99.6474 135.071 99.6474C134.886 99.6474 134.743 99.7088 134.641 99.8315C134.518 99.9338 134.457 100.077 134.457 100.261C134.457 100.343 134.477 100.435 134.518 100.537C134.539 100.619 134.58 100.691 134.641 100.752L134.979 101.151ZM136.052 103.33L134.764 101.796L134.61 101.918C134.324 102.103 134.13 102.276 134.027 102.44C133.905 102.604 133.843 102.778 133.843 102.962C133.843 103.248 133.935 103.484 134.119 103.668C134.304 103.852 134.539 103.944 134.825 103.944C135.009 103.944 135.204 103.893 135.408 103.79C135.613 103.709 135.827 103.555 136.052 103.33ZM140.655 104.374V99.1257H143.416V99.6781H141.269V101.213H143.416V101.796H141.269V103.79H143.416V104.374H140.655ZM143.877 104.374L145.135 102.686L143.907 101.09H144.613L145.472 102.256L146.331 101.09H147.006L145.779 102.686L147.068 104.374H146.362L145.472 103.115L144.582 104.374H143.877ZM147.62 106V101.09H148.172V101.704C148.295 101.479 148.459 101.294 148.663 101.151C148.868 101.028 149.103 100.967 149.369 100.967C149.839 100.967 150.218 101.131 150.504 101.458C150.791 101.785 150.934 102.215 150.934 102.747C150.934 103.299 150.791 103.729 150.504 104.036C150.238 104.363 149.87 104.527 149.4 104.527C149.113 104.527 148.878 104.466 148.694 104.343C148.489 104.22 148.315 104.036 148.172 103.79V106H147.62ZM148.172 102.747C148.172 103.115 148.274 103.412 148.479 103.637C148.684 103.862 148.96 103.975 149.307 103.975C149.635 103.975 149.89 103.872 150.075 103.668C150.259 103.463 150.351 103.177 150.351 102.808C150.351 102.399 150.259 102.082 150.075 101.857C149.89 101.632 149.625 101.519 149.277 101.519C148.929 101.519 148.663 101.632 148.479 101.857C148.274 102.062 148.172 102.358 148.172 102.747ZM151.578 102.747C151.578 102.501 151.619 102.276 151.701 102.072C151.803 101.847 151.936 101.652 152.1 101.489C152.263 101.325 152.458 101.192 152.683 101.09C152.887 101.008 153.112 100.967 153.358 100.967C153.603 100.967 153.838 101.008 154.063 101.09C154.268 101.192 154.462 101.325 154.646 101.489C154.81 101.652 154.933 101.847 155.015 102.072C155.117 102.276 155.168 102.501 155.168 102.747C155.168 102.993 155.117 103.218 155.015 103.422C154.933 103.627 154.81 103.811 154.646 103.975C154.462 104.159 154.268 104.292 154.063 104.374C153.838 104.476 153.603 104.527 153.358 104.527C153.133 104.527 152.908 104.476 152.683 104.374C152.458 104.292 152.263 104.169 152.1 104.005C151.936 103.821 151.803 103.627 151.701 103.422C151.619 103.218 151.578 102.993 151.578 102.747ZM152.192 102.747C152.192 103.095 152.304 103.391 152.529 103.637C152.754 103.883 153.03 104.005 153.358 104.005C153.705 104.005 153.992 103.883 154.217 103.637C154.442 103.391 154.554 103.095 154.554 102.747C154.554 102.399 154.442 102.103 154.217 101.857C153.992 101.612 153.705 101.489 153.358 101.489C153.03 101.489 152.754 101.612 152.529 101.857C152.284 102.103 152.171 102.399 152.192 102.747ZM156.027 104.374V101.09H156.549V101.765C156.692 101.479 156.856 101.274 157.04 101.151C157.203 101.028 157.408 100.967 157.653 100.967C157.715 100.967 157.776 100.977 157.837 100.998C157.899 100.998 157.96 101.008 158.021 101.028L157.837 101.55C157.776 101.53 157.715 101.519 157.653 101.519C157.592 101.499 157.541 101.489 157.5 101.489C157.193 101.489 156.968 101.591 156.825 101.796C156.682 102.021 156.61 102.348 156.61 102.778V104.374H156.027ZM158.696 101.55H158.083V101.09H158.696V99.7702H159.249V101.09H159.862V101.55H159.249V104.374H158.696V101.55ZM163.452 102.839H160.844V102.87C160.844 103.218 160.936 103.504 161.12 103.729C161.325 103.954 161.591 104.067 161.918 104.067C162.143 104.067 162.348 104.005 162.532 103.883C162.696 103.76 162.849 103.576 162.992 103.33L163.422 103.637C163.258 103.923 163.043 104.148 162.777 104.312C162.532 104.455 162.235 104.527 161.888 104.527C161.397 104.527 160.998 104.363 160.691 104.036C160.364 103.709 160.2 103.269 160.2 102.716C160.2 102.205 160.353 101.785 160.66 101.458C160.967 101.131 161.366 100.967 161.857 100.967C162.348 100.967 162.736 101.12 163.023 101.427C163.309 101.755 163.452 102.184 163.452 102.716V102.839ZM162.839 102.379C162.818 102.092 162.716 101.867 162.532 101.704C162.368 101.56 162.133 101.489 161.826 101.489C161.56 101.489 161.335 101.571 161.151 101.734C160.967 101.898 160.865 102.113 160.844 102.379H162.839ZM164.281 104.404V101.12H164.802V101.796C164.946 101.509 165.099 101.305 165.263 101.182C165.447 101.059 165.662 100.998 165.907 100.998C165.968 100.998 166.03 100.998 166.091 100.998C166.152 101.018 166.214 101.039 166.275 101.059L166.091 101.581C166.03 101.56 165.968 101.54 165.907 101.519C165.846 101.519 165.794 101.519 165.754 101.519C165.447 101.519 165.222 101.622 165.079 101.826C164.915 102.051 164.833 102.379 164.833 102.808V104.404H164.281Z" fill="#008DD2"/>
</svg>
