<svg width="127" height="70" viewBox="0 0 127 70" fill="none" xmlns="http://www.w3.org/2000/svg">
<path fill-rule="evenodd" clip-rule="evenodd" d="M22.4551 16.7197L45.7209 45.3764L53.8274 35.6283L53.9085 35.6688L57.8605 38.1413L57.9618 38.2021L45.7209 45.802L0 17.3683L17.1656 0.0202676L34.4731 11.2884L22.4551 16.7197ZM63.231 34.9189L58.3468 30.1563L69.1893 17.1048L65.7238 15.5443L65.8859 15.5038L85.6051 11.1668L85.6456 11.1465L91.7458 17.2669L63.231 34.9189ZM65.5617 5.99884L74.5397 0L80.5385 5.99884H65.5617Z" fill="#00A0E3"/>
<path fill-rule="evenodd" clip-rule="evenodd" d="M56.9068 17.4899L108.951 6.01911H51.597L34.3301 23.4279L80.2537 52.1251L126.157 23.2455L85.908 23.3063L80.2537 29.0822L85.9688 34.7771L108.971 29.0214L80.2131 51.4766L51.2525 23.205L56.9068 17.4899Z" fill="#393185"/>
<path fill-rule="evenodd" clip-rule="evenodd" d="M91.4233 44.2414L86.5391 39.4789L90.6937 43.5321L91.3422 44.1604L91.4233 44.2414Z" fill="#393185"/>
<path d="M89.6799 53.3411H91.666C91.8281 53.3411 91.97 53.4018 92.0916 53.5234C92.2132 53.645 92.274 53.7869 92.274 53.949C92.274 54.1247 92.2065 54.2733 92.0713 54.3949C91.9497 54.503 91.8146 54.557 91.666 54.557H89.761C89.5853 54.557 89.43 54.6449 89.2949 54.8205L87.6127 56.989C87.4641 57.1511 87.3898 57.3876 87.3898 57.6983V61.0017C87.3898 61.1774 87.4506 61.326 87.5722 61.4476C87.6803 61.5692 87.8222 61.63 87.9978 61.63H90.4298C90.5919 61.63 90.7338 61.5692 90.8554 61.4476C90.977 61.326 91.031 61.1841 91.0175 61.022V59.725H89.7812C89.6191 59.725 89.4772 59.6642 89.3556 59.5426C89.2476 59.4345 89.1935 59.2994 89.1935 59.1372C89.1935 58.9616 89.2476 58.8197 89.3556 58.7116C89.4772 58.59 89.6191 58.5292 89.7812 58.5292H92.2335V61.022C92.2335 61.5219 92.0511 61.9475 91.6863 62.2988C91.3485 62.6501 90.9297 62.8257 90.4298 62.8257H87.9978C87.4979 62.8257 87.0723 62.6501 86.721 62.2988C86.3562 61.9475 86.1738 61.5219 86.1738 61.022V57.7186C86.1738 57.1241 86.336 56.6174 86.6602 56.1986L88.4234 53.9693C88.5585 53.7937 88.7409 53.645 88.9706 53.5234C89.2003 53.4018 89.4367 53.3411 89.6799 53.3411ZM100.462 54.557H96.2259V57.4754H98.0499C98.2121 57.4754 98.3539 57.5362 98.4755 57.6578C98.5836 57.7794 98.6376 57.9212 98.6376 58.0834C98.6376 58.2455 98.5836 58.3874 98.4755 58.509C98.3539 58.6306 98.2121 58.6914 98.0499 58.6914H96.2259V61.63H100.462C100.624 61.63 100.766 61.684 100.887 61.7921C101.009 61.9137 101.07 62.0556 101.07 62.2177C101.07 62.3798 101.009 62.5217 100.887 62.6433C100.766 62.7649 100.624 62.8257 100.462 62.8257H95.0302V53.3411H100.462C100.624 53.3411 100.766 53.4018 100.887 53.5234C101.009 53.645 101.07 53.7937 101.07 53.9693C101.07 54.1314 101.009 54.2665 100.887 54.3746C100.766 54.4962 100.624 54.557 100.462 54.557ZM106.238 57.0701V56.7661L105.001 55.0029V62.2177C105.001 62.3798 104.947 62.5217 104.839 62.6433C104.718 62.7649 104.576 62.8257 104.414 62.8257C104.238 62.8257 104.096 62.7649 103.988 62.6433C103.866 62.5217 103.806 62.3798 103.806 62.2177V53.3411H105.346L106.825 55.4893L108.345 53.3411H109.865V62.2177C109.865 62.3798 109.804 62.5217 109.683 62.6433C109.561 62.7649 109.419 62.8257 109.257 62.8257C109.095 62.8257 108.953 62.7649 108.832 62.6433C108.71 62.5217 108.649 62.3798 108.649 62.2177V55.0232L107.433 56.7255V57.0701C107.447 57.2322 107.393 57.3741 107.271 57.4957C107.15 57.6173 107.008 57.678 106.846 57.678C106.683 57.678 106.542 57.6173 106.42 57.4957C106.298 57.3741 106.238 57.2322 106.238 57.0701ZM114 53.3411H117.121C117.499 53.3411 117.857 53.5032 118.195 53.8274C118.532 54.1517 118.701 54.5435 118.701 55.0029C118.701 55.165 118.641 55.3069 118.519 55.4285C118.397 55.5501 118.262 55.6109 118.114 55.6109C117.911 55.6109 117.776 55.5636 117.708 55.469C117.627 55.3744 117.553 55.2056 117.485 54.9624C117.418 54.7057 117.262 54.5773 117.019 54.5773H114.04C113.905 54.5773 113.837 54.6246 113.837 54.7192C113.837 54.7732 113.864 54.834 113.918 54.9016L118.377 60.5964C118.593 60.8666 118.701 61.1571 118.701 61.4679C118.701 61.8327 118.573 62.1502 118.316 62.4204C118.06 62.6906 117.769 62.8257 117.445 62.8257H114.222C113.79 62.8257 113.412 62.6636 113.088 62.3393C112.777 62.0015 112.621 61.6435 112.621 61.2652C112.621 60.8193 112.831 60.5964 113.25 60.5964C113.412 60.5964 113.547 60.6505 113.655 60.7585C113.777 60.8801 113.837 61.0152 113.837 61.1639C113.837 61.299 113.878 61.4071 113.959 61.4881C114.054 61.5827 114.168 61.63 114.304 61.63H117.283C117.418 61.63 117.485 61.5759 117.485 61.4679C117.485 61.4273 117.458 61.3665 117.404 61.2855L112.946 55.6109C112.73 55.3407 112.621 55.0434 112.621 54.7192C112.621 54.3544 112.757 54.0369 113.027 53.7666C113.297 53.4829 113.621 53.3411 114 53.3411Z" fill="#393185"/>
<path d="M86.0098 61.3057V56.5229C86.0908 56.2797 86.2124 56.05 86.3746 55.8338L88.1377 53.5843C88.2593 53.4221 88.4417 53.2803 88.6849 53.1587C88.9146 53.0371 89.1511 52.9763 89.3942 52.9763H91.3804C91.5425 52.9763 91.6844 53.0371 91.806 53.1587C91.9275 53.2667 91.9883 53.4086 91.9883 53.5843C91.9883 53.7599 91.9208 53.9018 91.7857 54.0098C91.6641 54.1314 91.529 54.1922 91.3804 54.1922H89.4753C89.2997 54.1922 89.1375 54.2801 88.9889 54.4557L87.3068 56.6039C87.1717 56.7796 87.1042 57.0228 87.1042 57.3335V60.6369C87.1042 60.8126 87.1649 60.9612 87.2865 61.0828C87.3946 61.1909 87.5365 61.2449 87.7121 61.2449H90.1441C90.3062 61.2449 90.4481 61.1909 90.5697 61.0828C90.6778 60.9612 90.7318 60.8193 90.7318 60.6572V59.3602H89.4956C89.3199 59.3602 89.1781 59.2994 89.07 59.1778C88.9619 59.0697 88.9079 58.9278 88.9079 58.7522C88.9079 58.59 88.9619 58.4482 89.07 58.3266C89.1781 58.2185 89.3199 58.1644 89.4956 58.1644H91.9275V60.6572C91.9275 61.1436 91.7519 61.5624 91.4006 61.9137C91.0493 62.265 90.6305 62.4406 90.1441 62.4406H87.7121C87.2122 62.4406 86.7799 62.265 86.4151 61.9137C86.2259 61.7381 86.0908 61.5354 86.0098 61.3057ZM100.156 54.1922H95.9403V57.1106H97.7643C97.9264 57.1106 98.0615 57.1714 98.1696 57.293C98.2912 57.4146 98.352 57.5497 98.352 57.6983C98.352 57.874 98.2979 58.0226 98.1899 58.1442C98.0683 58.2658 97.9264 58.3266 97.7643 58.3266H95.9403V61.2449H100.176C100.338 61.2449 100.48 61.3057 100.602 61.4273C100.723 61.5489 100.784 61.6908 100.784 61.8529C100.784 62.0151 100.723 62.1569 100.602 62.2785C100.48 62.3866 100.331 62.4406 100.156 62.4406H94.7446V52.9763H100.156C100.331 52.9763 100.48 53.0371 100.602 53.1587C100.723 53.2803 100.784 53.4221 100.784 53.5843C100.784 53.7464 100.723 53.8882 100.602 54.0098C100.48 54.1314 100.331 54.1922 100.156 54.1922ZM105.952 56.7053V56.4013L104.716 54.6381V61.8529C104.716 62.0151 104.655 62.1569 104.533 62.2785C104.425 62.3866 104.29 62.4406 104.128 62.4406C103.952 62.4406 103.81 62.3866 103.702 62.2785C103.581 62.1569 103.52 62.0151 103.52 61.8529V52.9763H105.04L106.54 55.1245L108.06 52.9763H109.58V61.8529C109.58 62.0151 109.519 62.1569 109.397 62.2785C109.276 62.3866 109.134 62.4406 108.972 62.4406C108.809 62.4406 108.668 62.3866 108.546 62.2785C108.424 62.1569 108.364 62.0151 108.364 61.8529V54.6584L107.148 56.3607V56.7053C107.148 56.8674 107.094 57.0093 106.985 57.1309C106.864 57.239 106.722 57.293 106.56 57.293C106.398 57.293 106.256 57.239 106.134 57.1309C106.013 57.0093 105.952 56.8674 105.952 56.7053ZM113.694 52.9763H116.815C117.206 52.9763 117.571 53.1384 117.909 53.4627C118.247 53.7869 118.416 54.1787 118.416 54.6381C118.416 54.8002 118.355 54.9421 118.233 55.0637C118.112 55.1853 117.977 55.2461 117.828 55.2461C117.625 55.2461 117.483 55.1988 117.402 55.1042C117.335 55.0097 117.267 54.834 117.2 54.5773C117.132 54.3341 116.977 54.2125 116.734 54.2125H113.754C113.619 54.2125 113.552 54.253 113.552 54.3341C113.552 54.3881 113.579 54.4557 113.633 54.5368L118.091 60.2113C118.308 60.4951 118.416 60.7923 118.416 61.1031C118.416 61.4544 118.287 61.7651 118.031 62.0353C117.774 62.3055 117.483 62.4406 117.159 62.4406H113.937C113.504 62.4406 113.126 62.2785 112.802 61.9543C112.491 61.63 112.336 61.272 112.336 60.8801C112.336 60.4343 112.545 60.2113 112.964 60.2113C113.126 60.2113 113.261 60.2721 113.369 60.3937C113.491 60.5153 113.552 60.6505 113.552 60.7991C113.552 60.9342 113.592 61.0423 113.673 61.1233C113.768 61.2044 113.883 61.2449 114.018 61.2449H116.997C117.132 61.2449 117.2 61.1976 117.2 61.1031C117.2 61.049 117.166 60.9882 117.098 60.9207L112.66 55.2461C112.444 54.9759 112.336 54.6786 112.336 54.3544C112.336 53.9896 112.471 53.6653 112.741 53.3816C112.998 53.1114 113.315 52.9763 113.694 52.9763Z" fill="#393185"/>
<path fill-rule="evenodd" clip-rule="evenodd" d="M86.4161 61.9137C86.7809 62.265 87.2133 62.4406 87.7132 62.4406H90.1451C90.6315 62.4406 91.0504 62.265 91.4017 61.9137C91.7529 61.5624 91.9286 61.1436 91.9286 60.6572V58.1644H89.4966C89.321 58.1644 89.1791 58.2185 89.071 58.3266C88.9629 58.4482 88.9089 58.59 88.9089 58.7522C88.9089 58.9278 88.9629 59.0697 89.071 59.1778C89.1791 59.2994 89.321 59.3602 89.4966 59.3602H90.7329V60.6572C90.7329 60.8193 90.6788 60.9612 90.5707 61.0828C90.4491 61.1909 90.3073 61.2449 90.1451 61.2449H87.7132C87.5375 61.2449 87.3957 61.1909 87.2876 61.0828C87.166 60.9612 87.1052 60.8126 87.1052 60.6369V57.3335C87.1052 57.0228 87.1727 56.7796 87.3078 56.6039L88.99 54.4557C89.1386 54.2801 89.3007 54.1922 89.4763 54.1922H91.3814C91.53 54.1922 91.6651 54.1314 91.7867 54.0098C91.9218 53.9018 91.9894 53.7599 91.9894 53.5843C91.9894 53.4086 91.9286 53.2667 91.807 53.1587C91.6854 53.0371 91.5435 52.9763 91.3814 52.9763H89.3953C89.1521 52.9763 88.9156 53.0371 88.686 53.1587C88.4428 53.2803 88.2604 53.4221 88.1388 53.5843L86.3756 55.8338C86.2135 56.05 86.0919 56.2797 86.0108 56.5229V61.3057C86.0919 61.5354 86.227 61.7381 86.4161 61.9137ZM100.603 54.0098C100.724 53.8882 100.785 53.7464 100.785 53.5843C100.785 53.4221 100.724 53.2803 100.603 53.1587C100.481 53.0371 100.332 52.9763 100.157 52.9763H94.7456V62.4406H100.157C100.332 62.4406 100.481 62.3866 100.603 62.2785C100.724 62.1569 100.785 62.0151 100.785 61.8529C100.785 61.6908 100.724 61.5489 100.603 61.4273C100.481 61.3057 100.339 61.2449 100.177 61.2449H95.9413V58.3266H97.7653C97.9274 58.3266 98.0693 58.2658 98.1909 58.1442C98.299 58.0226 98.353 57.874 98.353 57.6983C98.353 57.5497 98.2922 57.4146 98.1706 57.293C98.0625 57.1714 97.9274 57.1106 97.7653 57.1106H95.9413V54.1922H100.157C100.332 54.1922 100.481 54.1314 100.603 54.0098ZM106.135 57.1309C106.257 57.239 106.399 57.293 106.561 57.293C106.723 57.293 106.865 57.239 106.986 57.1309C107.095 57.0093 107.149 56.8674 107.149 56.7053V56.3607L108.365 54.6584V61.8529C108.365 62.0151 108.425 62.1569 108.547 62.2785C108.669 62.3866 108.81 62.4406 108.973 62.4406C109.135 62.4406 109.277 62.3866 109.398 62.2785C109.52 62.1569 109.581 62.0151 109.581 61.8529V52.9763H108.061L106.541 55.1245L105.041 52.9763H103.521V61.8529C103.521 62.0151 103.582 62.1569 103.703 62.2785C103.811 62.3866 103.953 62.4406 104.129 62.4406C104.291 62.4406 104.426 62.3866 104.534 62.2785C104.656 62.1569 104.717 62.0151 104.717 61.8529V54.6381L105.953 56.4013V56.7053C105.953 56.8674 106.014 57.0093 106.135 57.1309ZM112.742 53.3816C112.472 53.6653 112.337 53.9896 112.337 54.3544C112.337 54.6786 112.445 54.9759 112.661 55.2461L117.099 60.9207C117.167 60.9882 117.201 61.049 117.201 61.1031C117.201 61.1976 117.133 61.2449 116.998 61.2449H114.019C113.884 61.2449 113.769 61.2044 113.674 61.1233C113.593 61.0423 113.553 60.9342 113.553 60.7991C113.553 60.6505 113.492 60.5153 113.37 60.3937C113.262 60.2721 113.127 60.2113 112.965 60.2113C112.546 60.2113 112.337 60.4343 112.337 60.8801C112.337 61.272 112.492 61.63 112.803 61.9543C113.127 62.2785 113.505 62.4406 113.938 62.4406H117.16C117.484 62.4406 117.775 62.3055 118.032 62.0353C118.288 61.7651 118.417 61.4544 118.417 61.1031C118.417 60.7923 118.309 60.4951 118.092 60.2113L113.634 54.5368C113.58 54.4557 113.553 54.3881 113.553 54.3341C113.553 54.253 113.62 54.2125 113.755 54.2125H116.735C116.978 54.2125 117.133 54.3341 117.201 54.5773C117.268 54.834 117.336 55.0097 117.403 55.1042C117.484 55.1988 117.626 55.2461 117.829 55.2461C117.978 55.2461 118.113 55.1853 118.234 55.0637C118.356 54.9421 118.417 54.8002 118.417 54.6381C118.417 54.1787 118.248 53.7869 117.91 53.4627C117.572 53.1384 117.207 52.9763 116.816 52.9763H113.695C113.316 52.9763 112.999 53.1114 112.742 53.3816ZM14.0855 53.3613C13.9774 53.2397 13.8355 53.1789 13.6599 53.1789C13.4978 53.1789 13.3627 53.2397 13.2546 53.3613C13.133 53.4829 13.0722 53.6248 13.0722 53.7869V55.7527L11.2482 60.3937L9.42423 55.7527V53.7869C9.42423 53.6248 9.37019 53.4829 9.2621 53.3613C9.1405 53.2397 8.99864 53.1789 8.83651 53.1789C8.66086 53.1789 8.519 53.2397 8.41091 53.3613C8.28931 53.4829 8.22852 53.6248 8.22852 53.7869V55.9959L10.6402 62.1975C10.7618 62.4947 10.9645 62.6433 11.2482 62.6433C11.5184 62.6433 11.7143 62.4947 11.8359 62.1975L14.2679 55.9959V53.7869C14.2679 53.6248 14.2071 53.4829 14.0855 53.3613ZM22.8811 54.2125C23.0027 54.0909 23.0635 53.9491 23.0635 53.7869C23.0635 53.6248 23.0027 53.4829 22.8811 53.3613C22.7595 53.2397 22.6176 53.1789 22.4555 53.1789H17.0241V62.6433H22.4555C22.6176 62.6433 22.7595 62.5893 22.8811 62.4812C23.0027 62.3596 23.0635 62.2177 23.0635 62.0556C23.0635 61.8935 23.0027 61.7516 22.8811 61.63C22.773 61.5084 22.6379 61.4476 22.4758 61.4476H18.2198V58.5292H20.0438C20.2059 58.5292 20.3478 58.4684 20.4694 58.3468C20.591 58.2253 20.6518 58.0766 20.6518 57.901C20.6518 57.7524 20.591 57.6173 20.4694 57.4957C20.3478 57.3741 20.2059 57.3133 20.0438 57.3133H18.2198V54.3949H22.4555C22.6176 54.3949 22.7595 54.3341 22.8811 54.2125ZM25.9818 62.4812C26.1034 62.5893 26.2453 62.6433 26.4074 62.6433C26.5696 62.6433 26.7114 62.5893 26.833 62.4812C26.9546 62.3596 27.0154 62.2177 27.0154 62.0556V59.198L30.8255 62.4812C30.9606 62.5893 31.1025 62.6433 31.2511 62.6433C31.4267 62.6433 31.5754 62.5825 31.697 62.4609C31.805 62.3258 31.8591 62.1839 31.8591 62.0353C31.8591 61.8732 31.805 61.7448 31.697 61.6503L27.3397 57.8807L31.6767 54.1922C31.8118 54.0842 31.8726 53.9491 31.8591 53.7869C31.8591 53.6248 31.805 53.4829 31.697 53.3613C31.5889 53.2397 31.4538 53.1789 31.2916 53.1789C31.1295 53.1789 30.9809 53.233 30.8458 53.3411L27.0154 56.6039V53.7869C27.0154 53.6113 26.9546 53.4694 26.833 53.3613C26.7114 53.2397 26.5696 53.1789 26.4074 53.1789C26.2453 53.1789 26.1034 53.2397 25.9818 53.3613C25.8738 53.4829 25.8197 53.6248 25.8197 53.7869V62.0556C25.8197 62.2177 25.8738 62.3596 25.9818 62.4812ZM34.6356 62.0353C34.6356 62.211 34.6964 62.3596 34.818 62.4812C34.9261 62.5893 35.0679 62.6433 35.2436 62.6433C35.3652 62.6433 35.48 62.6095 35.5881 62.542C35.6962 62.4744 35.757 62.4069 35.7705 62.3393L36.2974 60.5964H39.0536L39.5198 62.2177C39.6008 62.5014 39.8035 62.6433 40.1278 62.6433C40.2629 62.6433 40.3912 62.5893 40.5128 62.4812C40.6209 62.3596 40.675 62.2177 40.675 62.0556C40.675 62.0015 40.6682 61.9407 40.6547 61.8732L38.243 53.564C38.1754 53.3073 37.993 53.1789 37.6958 53.1789C37.3986 53.1789 37.2027 53.3275 37.1081 53.6248L34.6761 61.8124C34.6491 61.8935 34.6356 61.9678 34.6356 62.0353ZM38.6889 59.3804H36.6622L37.6958 55.9554L38.6889 59.3804ZM43.6541 62.4812C43.7622 62.5893 43.9041 62.6433 44.0797 62.6433C44.2418 62.6433 44.3837 62.5893 44.5053 62.4812C44.6269 62.3596 44.6877 62.2177 44.6877 62.0556V57.4754H45.5389L48.3559 62.3393C48.4775 62.542 48.6531 62.6433 48.8828 62.6433C49.045 62.6433 49.1868 62.5893 49.3084 62.4812C49.43 62.3596 49.4908 62.2177 49.4908 62.0556C49.4908 61.934 49.457 61.8124 49.3895 61.6908L46.9373 57.4754H47.7074C48.1938 57.4754 48.6126 57.2997 48.9639 56.9485C49.3152 56.5972 49.4908 56.1716 49.4908 55.6717V54.9826C49.4908 54.4962 49.3152 54.0706 48.9639 53.7058C48.6126 53.3546 48.1938 53.1789 47.7074 53.1789H43.4717V62.0556C43.4717 62.2177 43.5325 62.3596 43.6541 62.4812ZM44.6877 54.3949H47.7074C47.8695 54.3949 48.0114 54.449 48.133 54.557C48.2411 54.6786 48.2951 54.8205 48.2951 54.9826V55.6919C48.2951 55.8541 48.2411 55.996 48.133 56.1176C48.0114 56.2256 47.8695 56.2797 47.7074 56.2797H44.6877V54.3949ZM52.4497 53.3613C52.3281 53.4829 52.2673 53.6315 52.2673 53.8072C52.2673 53.9693 52.3281 54.1112 52.4497 54.2328C52.5578 54.3409 52.6997 54.3949 52.8753 54.3949H54.6993V61.4679H52.8753C52.6997 61.4679 52.5578 61.5219 52.4497 61.63C52.3281 61.7516 52.2673 61.8935 52.2673 62.0556C52.2673 62.2312 52.3281 62.3731 52.4497 62.4812C52.5578 62.6028 52.6997 62.6636 52.8753 62.6636H57.719C57.8811 62.6636 58.023 62.6028 58.1446 62.4812C58.2526 62.3731 58.3067 62.2312 58.3067 62.0556C58.3067 61.8935 58.2526 61.7516 58.1446 61.63C58.023 61.5219 57.8811 61.4679 57.719 61.4679H55.895V54.3949H57.719C57.8811 54.3949 58.0162 54.3341 58.1243 54.2125C58.2459 54.0909 58.3067 53.9491 58.3067 53.7869C58.3067 53.6248 58.2459 53.4829 58.1243 53.3613C58.0027 53.2532 57.8676 53.1992 57.719 53.1992H52.8753C52.6997 53.1992 52.5578 53.2532 52.4497 53.3613ZM67.1428 55.0637V53.8072C67.1428 53.618 67.082 53.4694 66.9604 53.3613C66.8388 53.2532 66.697 53.1992 66.5348 53.1992C66.3727 53.1992 66.2376 53.2532 66.1295 53.3613C66.0079 53.4829 65.9471 53.6248 65.9471 53.7869V54.6178L64.1029 56.9485L62.2992 54.6381V53.8072C62.2992 53.645 62.2384 53.5032 62.1168 53.3816C61.9952 53.26 61.8533 53.1992 61.6912 53.1992C61.5155 53.1992 61.3737 53.2532 61.2656 53.3613C61.144 53.4829 61.0832 53.6315 61.0832 53.8072V55.0637L63.5151 58.1239V62.0556C63.5151 62.2312 63.5692 62.3731 63.6773 62.4812C63.7989 62.6028 63.9475 62.6636 64.1231 62.6636C64.2853 62.6636 64.4271 62.6028 64.5487 62.4812C64.6568 62.3731 64.7109 62.2312 64.7109 62.0556V58.1239L67.1428 55.0637ZM69.899 62.0353C69.899 62.211 69.9531 62.3596 70.0612 62.4812C70.1828 62.6028 70.3314 62.6636 70.507 62.6636C70.6286 62.6636 70.7435 62.6298 70.8516 62.5623C70.9597 62.4812 71.0205 62.4069 71.034 62.3393L71.5406 60.5964H74.2968L74.7832 62.2177C74.8643 62.515 75.0602 62.6636 75.371 62.6636C75.5196 62.6636 75.6479 62.6028 75.756 62.4812C75.8776 62.3596 75.9384 62.2177 75.9384 62.0556C75.9384 62.0015 75.9249 61.9407 75.8979 61.8732L73.5065 53.564C73.4254 53.3073 73.243 53.1789 72.9593 53.1789C72.6485 53.1789 72.4459 53.3343 72.3513 53.6451L69.9396 61.8327C69.9126 61.9002 69.899 61.9678 69.899 62.0353ZM73.9523 59.3804H71.9054L72.939 55.9554L73.9523 59.3804Z" fill="#00A0E3"/>
<path d="M13.9827 53.4221V55.6312L11.5508 61.8327C11.4292 62.1299 11.2333 62.2785 10.963 62.2785C10.6793 62.2785 10.4767 62.1299 10.3551 61.8327L7.94336 55.6312V53.4221C7.94336 53.26 7.9974 53.1181 8.10549 52.9965C8.22709 52.8749 8.37571 52.8141 8.55135 52.8141C8.71348 52.8141 8.85535 52.8749 8.97694 52.9965C9.08503 53.1046 9.13907 53.2465 9.13907 53.4221V55.3677L10.963 60.029L12.787 55.388V53.4221C12.787 53.26 12.8411 53.1181 12.9491 52.9965C13.0707 52.8749 13.2126 52.8141 13.3747 52.8141C13.5504 52.8141 13.6922 52.8749 13.8003 52.9965C13.9219 53.1181 13.9827 53.26 13.9827 53.4221ZM22.1703 54.0301H17.9347V56.9485H19.7586C19.9208 56.9485 20.0626 57.0025 20.1842 57.1106C20.3058 57.2322 20.3666 57.3741 20.3666 57.5362C20.3666 57.7118 20.3058 57.8604 20.1842 57.982C20.0626 58.0901 19.9208 58.1442 19.7586 58.1442H17.9347V61.0828H22.1906C22.3392 61.0828 22.4743 61.1436 22.5959 61.2652C22.7175 61.3733 22.7783 61.5152 22.7783 61.6908C22.7783 61.8529 22.7175 61.9948 22.5959 62.1164C22.4743 62.2245 22.3325 62.2785 22.1703 62.2785H16.739V52.8141H22.1703C22.3325 52.8141 22.4743 52.8749 22.5959 52.9965C22.7175 53.1181 22.7783 53.26 22.7783 53.4221C22.7783 53.5842 22.7175 53.7261 22.5959 53.8477C22.4743 53.9693 22.3325 54.0301 22.1703 54.0301ZM25.5143 61.6908V53.4221C25.5143 53.26 25.5751 53.1181 25.6967 52.9965C25.8183 52.8749 25.9601 52.8141 26.1223 52.8141C26.2844 52.8141 26.4263 52.8749 26.5479 52.9965C26.656 53.1046 26.71 53.2397 26.71 53.4019V56.2391L30.5606 52.9763C30.6822 52.8682 30.8308 52.8141 31.0065 52.8141C31.1686 52.8141 31.3037 52.8749 31.4118 52.9965C31.5199 53.1181 31.5739 53.26 31.5739 53.4221C31.5874 53.5842 31.5266 53.7194 31.3915 53.8274L27.0545 57.5159L31.4118 61.2652C31.5199 61.3733 31.5739 61.5084 31.5739 61.6705C31.5739 61.8191 31.5199 61.961 31.4118 62.0961C31.2902 62.2177 31.1416 62.2785 30.9659 62.2785C30.8038 62.2785 30.6619 62.2245 30.5403 62.1164L26.71 58.813V61.6908C26.71 61.8529 26.656 61.9948 26.5479 62.1164C26.4263 62.2245 26.2844 62.2785 26.1223 62.2785C25.9601 62.2785 25.8183 62.2245 25.6967 62.1164C25.5751 61.9948 25.5143 61.8529 25.5143 61.6908ZM34.391 61.4476L36.8229 53.26C36.9175 52.9627 37.1134 52.8141 37.4106 52.8141C37.6944 52.8141 37.8768 52.9425 37.9578 53.1992L40.3695 61.5084C40.383 61.5624 40.3898 61.6232 40.3898 61.6908C40.3898 61.8529 40.3358 61.9948 40.2277 62.1164C40.1061 62.2245 39.971 62.2785 39.8223 62.2785C39.5116 62.2785 39.3157 62.1367 39.2346 61.8529L38.7482 60.2316H36.0123L35.4853 61.9543C35.4718 62.0353 35.411 62.1096 35.3029 62.1772C35.1949 62.2447 35.08 62.2785 34.9584 62.2785C34.7828 62.2785 34.6409 62.2177 34.5328 62.0961C34.4112 61.988 34.3504 61.8462 34.3504 61.6705C34.3504 61.603 34.3639 61.5287 34.391 61.4476ZM37.3904 55.5906L36.3771 59.0156H38.4037L37.3904 55.5906ZM43.1866 61.6908V52.8141H47.4222C47.9086 52.8141 48.3275 52.9898 48.6787 53.3411C49.03 53.7058 49.2057 54.1314 49.2057 54.6178V55.3069C49.2057 55.8068 49.03 56.2324 48.6787 56.5837C48.3275 56.935 47.9086 57.1106 47.4222 57.1106H46.6521L49.0841 61.326C49.1651 61.4476 49.2057 61.5692 49.2057 61.6908C49.2057 61.8529 49.1449 61.9948 49.0233 62.1164C48.9017 62.2245 48.7598 62.2785 48.5977 62.2785C48.368 62.2785 48.1856 62.1772 48.0505 61.9745L45.2537 57.1106H44.4025V61.6908C44.4025 61.8529 44.3417 61.9948 44.2201 62.1164C44.0985 62.2245 43.9499 62.2785 43.7743 62.2785C43.6121 62.2785 43.4703 62.2245 43.3487 62.1164C43.2406 61.9948 43.1866 61.8529 43.1866 61.6908ZM44.4025 55.9149H47.4222C47.5844 55.9149 47.7262 55.8608 47.8478 55.7527C47.9559 55.6311 48.0099 55.4893 48.0099 55.3272V54.6178C48.0099 54.4557 47.9559 54.3138 47.8478 54.1922C47.7262 54.0842 47.5844 54.0301 47.4222 54.0301H44.4025V55.9149ZM52.5699 52.7939H57.4135C57.5757 52.7939 57.7175 52.8547 57.8391 52.9763C57.9607 53.0979 58.0215 53.2397 58.0215 53.4019C58.0215 53.564 57.9607 53.7058 57.8391 53.8274C57.7175 53.949 57.5757 54.0098 57.4135 54.0098H55.5896V61.0828H57.4135C57.5892 61.0828 57.731 61.1368 57.8391 61.2449C57.9607 61.3665 58.0215 61.5084 58.0215 61.6705C58.0215 61.8327 57.9607 61.9745 57.8391 62.0961C57.7175 62.2177 57.5757 62.2785 57.4135 62.2785H52.5699C52.4077 62.2785 52.2726 62.2177 52.1645 62.0961C52.0429 61.9745 51.9822 61.8327 51.9822 61.6705C51.9822 61.5084 52.0362 61.3665 52.1443 61.2449C52.2659 61.1368 52.4077 61.0828 52.5699 61.0828H54.3938V54.0098H52.5699C52.4077 54.0098 52.2659 53.949 52.1443 53.8274C52.0362 53.7194 51.9822 53.5842 51.9822 53.4221C51.9822 53.2465 52.0429 53.0979 52.1645 52.9763C52.2726 52.8547 52.4077 52.7939 52.5699 52.7939ZM64.4257 57.7186V61.6705C64.4257 61.8327 64.3649 61.9745 64.2433 62.0961C64.1217 62.2177 63.9866 62.2785 63.838 62.2785C63.6623 62.2785 63.5137 62.2177 63.3921 62.0961C63.2705 61.9745 63.2097 61.8327 63.2097 61.6705V57.7389L60.798 54.6786V53.4221C60.798 53.2465 60.8521 53.0979 60.9602 52.9763C61.0817 52.8547 61.2236 52.7939 61.3857 52.7939C61.5614 52.7939 61.71 52.8614 61.8316 52.9965C61.9532 53.1181 62.014 53.26 62.014 53.4221V54.253L63.8177 56.5634L65.6619 54.2328V53.4019C65.6619 53.2397 65.716 53.0979 65.8241 52.9763C65.9457 52.8682 66.0875 52.8074 66.2497 52.7939C66.4118 52.7939 66.5537 52.8547 66.6753 52.9763C66.7969 53.0844 66.8577 53.233 66.8577 53.4221V54.6786L64.4257 57.7186ZM69.6139 61.4273L72.0459 53.2397C72.1404 52.9425 72.3363 52.7939 72.6336 52.7939C72.9308 52.7939 73.1132 52.9155 73.1808 53.1587L75.5925 61.4881C75.6195 61.5422 75.633 61.5962 75.633 61.6503C75.633 61.8259 75.5722 61.9678 75.4506 62.0758C75.3425 62.1974 75.2141 62.2583 75.0655 62.2583C74.7548 62.2583 74.5521 62.1096 74.4575 61.8124L73.9914 60.1911H71.2352L70.7083 61.934C70.6948 62.015 70.6407 62.0894 70.5461 62.1569C70.438 62.2245 70.3165 62.2583 70.1813 62.2583C70.0192 62.2583 69.8773 62.1974 69.7557 62.0758C69.6477 61.9543 69.5869 61.8124 69.5734 61.6503C69.5734 61.5692 69.5869 61.4949 69.6139 61.4273ZM72.6336 55.5501L71.6 58.9954H73.6266L72.6336 55.5501Z" fill="#00A0E3"/>
<path d="M13.9827 53.4221V55.6312L11.5508 61.8327C11.4292 62.1299 11.2333 62.2785 10.963 62.2785C10.6793 62.2785 10.4767 62.1299 10.3551 61.8327L7.94336 55.6312V53.4221C7.94336 53.26 7.9974 53.1181 8.10549 52.9965C8.22709 52.8749 8.37571 52.8141 8.55135 52.8141C8.71348 52.8141 8.85535 52.8749 8.97694 52.9965C9.08503 53.1046 9.13907 53.2465 9.13907 53.4221V55.3677L10.963 60.029L12.787 55.388V53.4221C12.787 53.26 12.8411 53.1181 12.9491 52.9965C13.0707 52.8749 13.2126 52.8141 13.3747 52.8141C13.5504 52.8141 13.6922 52.8749 13.8003 52.9965C13.9219 53.1181 13.9827 53.26 13.9827 53.4221ZM22.1703 54.0301H17.9347V56.9485H19.7586C19.9208 56.9485 20.0626 57.0025 20.1842 57.1106C20.3058 57.2322 20.3666 57.3741 20.3666 57.5362C20.3666 57.7118 20.3058 57.8604 20.1842 57.982C20.0626 58.0901 19.9208 58.1442 19.7586 58.1442H17.9347V61.0828H22.1906C22.3392 61.0828 22.4743 61.1436 22.5959 61.2652C22.7175 61.3733 22.7783 61.5152 22.7783 61.6908C22.7783 61.8529 22.7175 61.9948 22.5959 62.1164C22.4743 62.2245 22.3325 62.2785 22.1703 62.2785H16.739V52.8141H22.1703C22.3325 52.8141 22.4743 52.8749 22.5959 52.9965C22.7175 53.1181 22.7783 53.26 22.7783 53.4221C22.7783 53.5842 22.7175 53.7261 22.5959 53.8477C22.4743 53.9693 22.3325 54.0301 22.1703 54.0301ZM25.5143 61.6908V53.4221C25.5143 53.26 25.5751 53.1181 25.6967 52.9965C25.8183 52.8749 25.9601 52.8141 26.1223 52.8141C26.2844 52.8141 26.4263 52.8749 26.5479 52.9965C26.656 53.1046 26.71 53.2397 26.71 53.4019V56.2391L30.5606 52.9763C30.6822 52.8682 30.8308 52.8141 31.0065 52.8141C31.1686 52.8141 31.3037 52.8749 31.4118 52.9965C31.5199 53.1181 31.5739 53.26 31.5739 53.4221C31.5874 53.5842 31.5266 53.7194 31.3915 53.8274L27.0545 57.5159L31.4118 61.2652C31.5199 61.3733 31.5739 61.5084 31.5739 61.6705C31.5739 61.8191 31.5199 61.961 31.4118 62.0961C31.2902 62.2177 31.1416 62.2785 30.9659 62.2785C30.8038 62.2785 30.6619 62.2245 30.5403 62.1164L26.71 58.813V61.6908C26.71 61.8529 26.656 61.9948 26.5479 62.1164C26.4263 62.2245 26.2844 62.2785 26.1223 62.2785C25.9601 62.2785 25.8183 62.2245 25.6967 62.1164C25.5751 61.9948 25.5143 61.8529 25.5143 61.6908ZM34.391 61.4476L36.8229 53.26C36.9175 52.9627 37.1134 52.8141 37.4106 52.8141C37.6944 52.8141 37.8768 52.9425 37.9578 53.1992L40.3695 61.5084C40.383 61.5624 40.3898 61.6232 40.3898 61.6908C40.3898 61.8529 40.3358 61.9948 40.2277 62.1164C40.1061 62.2245 39.971 62.2785 39.8223 62.2785C39.5116 62.2785 39.3157 62.1367 39.2346 61.8529L38.7482 60.2316H36.0123L35.4853 61.9543C35.4718 62.0353 35.411 62.1096 35.3029 62.1772C35.1949 62.2447 35.08 62.2785 34.9584 62.2785C34.7828 62.2785 34.6409 62.2177 34.5328 62.0961C34.4112 61.988 34.3504 61.8462 34.3504 61.6705C34.3504 61.603 34.3639 61.5287 34.391 61.4476ZM37.3904 55.5906L36.3771 59.0156H38.4037L37.3904 55.5906ZM43.1866 61.6908V52.8141H47.4222C47.9086 52.8141 48.3275 52.9898 48.6787 53.3411C49.03 53.7058 49.2057 54.1314 49.2057 54.6178V55.3069C49.2057 55.8068 49.03 56.2324 48.6787 56.5837C48.3275 56.935 47.9086 57.1106 47.4222 57.1106H46.6521L49.0841 61.326C49.1651 61.4476 49.2057 61.5692 49.2057 61.6908C49.2057 61.8529 49.1449 61.9948 49.0233 62.1164C48.9017 62.2245 48.7598 62.2785 48.5977 62.2785C48.368 62.2785 48.1856 62.1772 48.0505 61.9745L45.2537 57.1106H44.4025V61.6908C44.4025 61.8529 44.3417 61.9948 44.2201 62.1164C44.0985 62.2245 43.9499 62.2785 43.7743 62.2785C43.6121 62.2785 43.4703 62.2245 43.3487 62.1164C43.2406 61.9948 43.1866 61.8529 43.1866 61.6908ZM44.4025 55.9149H47.4222C47.5844 55.9149 47.7262 55.8608 47.8478 55.7527C47.9559 55.6311 48.0099 55.4893 48.0099 55.3272V54.6178C48.0099 54.4557 47.9559 54.3138 47.8478 54.1922C47.7262 54.0842 47.5844 54.0301 47.4222 54.0301H44.4025V55.9149ZM52.5699 52.7939H57.4135C57.5757 52.7939 57.7175 52.8547 57.8391 52.9763C57.9607 53.0979 58.0215 53.2397 58.0215 53.4019C58.0215 53.564 57.9607 53.7058 57.8391 53.8274C57.7175 53.949 57.5757 54.0098 57.4135 54.0098H55.5896V61.0828H57.4135C57.5892 61.0828 57.731 61.1368 57.8391 61.2449C57.9607 61.3665 58.0215 61.5084 58.0215 61.6705C58.0215 61.8327 57.9607 61.9745 57.8391 62.0961C57.7175 62.2177 57.5757 62.2785 57.4135 62.2785H52.5699C52.4077 62.2785 52.2726 62.2177 52.1645 62.0961C52.0429 61.9745 51.9822 61.8327 51.9822 61.6705C51.9822 61.5084 52.0362 61.3665 52.1443 61.2449C52.2659 61.1368 52.4077 61.0828 52.5699 61.0828H54.3938V54.0098H52.5699C52.4077 54.0098 52.2659 53.949 52.1443 53.8274C52.0362 53.7194 51.9822 53.5842 51.9822 53.4221C51.9822 53.2465 52.0429 53.0979 52.1645 52.9763C52.2726 52.8547 52.4077 52.7939 52.5699 52.7939ZM64.4257 57.7186V61.6705C64.4257 61.8327 64.3649 61.9745 64.2433 62.0961C64.1217 62.2177 63.9866 62.2785 63.838 62.2785C63.6623 62.2785 63.5137 62.2177 63.3921 62.0961C63.2705 61.9745 63.2097 61.8327 63.2097 61.6705V57.7389L60.798 54.6786V53.4221C60.798 53.2465 60.8521 53.0979 60.9602 52.9763C61.0817 52.8547 61.2236 52.7939 61.3857 52.7939C61.5614 52.7939 61.71 52.8614 61.8316 52.9965C61.9532 53.1181 62.014 53.26 62.014 53.4221V54.253L63.8177 56.5634L65.6619 54.2328V53.4019C65.6619 53.2397 65.716 53.0979 65.8241 52.9763C65.9457 52.8682 66.0875 52.8074 66.2497 52.7939C66.4118 52.7939 66.5537 52.8547 66.6753 52.9763C66.7969 53.0844 66.8577 53.233 66.8577 53.4221V54.6786L64.4257 57.7186ZM69.6139 61.4273L72.0459 53.2397C72.1404 52.9425 72.3363 52.7939 72.6336 52.7939C72.9308 52.7939 73.1132 52.9155 73.1808 53.1587L75.5925 61.4881C75.6195 61.5422 75.633 61.5962 75.633 61.6503C75.633 61.8259 75.5722 61.9678 75.4506 62.0758C75.3425 62.1974 75.2141 62.2583 75.0655 62.2583C74.7548 62.2583 74.5521 62.1096 74.4575 61.8124L73.9914 60.1911H71.2352L70.7083 61.934C70.6948 62.015 70.6407 62.0894 70.5461 62.1569C70.438 62.2245 70.3165 62.2583 70.1813 62.2583C70.0192 62.2583 69.8773 62.1974 69.7557 62.0758C69.6477 61.9543 69.5869 61.8124 69.5734 61.6503C69.5734 61.5692 69.5869 61.4949 69.6139 61.4273ZM72.6336 55.5501L71.6 58.9954H73.6266L72.6336 55.5501Z" fill="#393185"/>
<path d="M16.6211 68.9056V65.4401H17.2899C17.7898 65.4401 18.1411 65.4603 18.3437 65.5009C18.5464 65.5549 18.722 65.6427 18.8707 65.7643C19.0733 65.913 19.2219 66.1089 19.3165 66.3521C19.4246 66.5817 19.4787 66.8587 19.4787 67.183C19.4787 67.4802 19.4246 67.7504 19.3165 67.9936C19.2219 68.2368 19.0733 68.4327 18.8707 68.5814C18.722 68.703 18.5464 68.7908 18.3437 68.8448C18.1546 68.8854 17.8573 68.9056 17.452 68.9056H17.2899H16.6211ZM17.0467 68.5206H17.3101C17.7425 68.5206 18.0397 68.5003 18.2019 68.4598C18.364 68.4192 18.4991 68.3584 18.6072 68.2774C18.7558 68.1558 18.8639 68.0004 18.9315 67.8112C19.0125 67.6221 19.0531 67.4059 19.0531 67.1627C19.0531 66.9195 19.0125 66.7101 18.9315 66.5345C18.8639 66.3453 18.7558 66.1899 18.6072 66.0683C18.4991 65.9738 18.3572 65.9062 18.1816 65.8657C18.0195 65.8386 17.729 65.8251 17.3101 65.8251H17.0467V68.5206ZM20.0461 65.6833C20.0461 65.6022 20.0731 65.5346 20.1272 65.4806C20.1812 65.4266 20.2488 65.3995 20.3298 65.3995C20.3974 65.3995 20.4582 65.4266 20.5122 65.4806C20.5663 65.5346 20.5933 65.6022 20.5933 65.6833C20.5933 65.7643 20.5663 65.8251 20.5122 65.8657C20.4582 65.9197 20.3974 65.9467 20.3298 65.9467C20.2488 65.9467 20.1812 65.9197 20.1272 65.8657C20.0731 65.8251 20.0461 65.7643 20.0461 65.6833ZM20.1272 68.9056V66.7169H20.5122V68.9056H20.1272ZM23.309 66.7169V68.9056H22.9442V68.5003C22.8631 68.6624 22.755 68.784 22.6199 68.8651C22.4848 68.9461 22.3295 68.9867 22.1538 68.9867C21.8431 68.9867 21.5931 68.8786 21.404 68.6624C21.2148 68.4598 21.1202 68.176 21.1202 67.8112C21.1202 67.4599 21.2148 67.1762 21.404 66.9601C21.5796 66.7574 21.8228 66.6561 22.1335 66.6561C22.3227 66.6561 22.4848 66.6966 22.6199 66.7777C22.755 66.8587 22.8631 66.9803 22.9442 67.1424V66.7169H23.309ZM22.9442 67.8315C22.9442 67.5883 22.8766 67.3924 22.7415 67.2438C22.6064 67.0952 22.4308 67.0209 22.2146 67.0209C21.9984 67.0209 21.8228 67.0884 21.6877 67.2235C21.5661 67.3586 21.5053 67.5545 21.5053 67.8112C21.5053 68.0679 21.5661 68.2706 21.6877 68.4192C21.8228 68.5543 22.0052 68.6219 22.2349 68.6219C22.4511 68.6219 22.6267 68.5543 22.7618 68.4192C22.8834 68.2841 22.9442 68.0882 22.9442 67.8315ZM27.0785 68.9056V67.6288C27.0785 67.3992 27.0312 67.2303 26.9367 67.1222C26.8421 67.0141 26.707 66.9601 26.5313 66.9601C26.4368 66.9601 26.3422 66.9803 26.2476 67.0209C26.1665 67.0614 26.099 67.1222 26.0449 67.2032C26.0044 67.2573 25.9706 67.3248 25.9436 67.4059C25.9301 67.4735 25.9233 67.5951 25.9233 67.7707V68.9056H25.5586V67.6288C25.5586 67.3992 25.5113 67.2303 25.4167 67.1222C25.3356 67.0141 25.2005 66.9601 25.0114 66.9601C24.9168 66.9601 24.829 66.9803 24.7479 67.0209C24.6533 67.0614 24.579 67.1222 24.525 67.2032C24.4844 67.2573 24.4507 67.3181 24.4236 67.3856C24.4101 67.4667 24.4034 67.5951 24.4034 67.7707V68.9056H24.0386V66.7169H24.4034V67.0614C24.4979 66.9263 24.606 66.8249 24.7276 66.7574C24.8492 66.6898 24.9979 66.6561 25.1735 66.6561C25.3491 66.6561 25.4978 66.6898 25.6194 66.7574C25.741 66.8385 25.8355 66.9465 25.9031 67.0816C25.9842 66.933 26.0922 66.8249 26.2273 66.7574C26.3489 66.6898 26.4976 66.6561 26.6732 66.6561C26.9164 66.6561 27.1056 66.7236 27.2407 66.8587C27.3758 66.9938 27.4433 67.183 27.4433 67.4262V68.9056H27.0785ZM27.9905 67.8112C27.9905 67.6626 28.0243 67.514 28.0919 67.3654C28.1459 67.2303 28.227 67.1019 28.3351 66.9803C28.4566 66.8722 28.585 66.7912 28.7201 66.7371C28.8687 66.6831 29.0241 66.6561 29.1862 66.6561C29.3484 66.6561 29.497 66.6831 29.6321 66.7371C29.7807 66.7912 29.9091 66.879 30.0172 67.0006C30.1252 67.1087 30.2131 67.2303 30.2806 67.3654C30.3347 67.514 30.3617 67.6626 30.3617 67.8112C30.3617 67.9734 30.3347 68.1287 30.2806 68.2774C30.2131 68.4125 30.1252 68.5341 30.0172 68.6422C29.9091 68.7502 29.7807 68.8381 29.6321 68.9056C29.4835 68.9597 29.3349 68.9867 29.1862 68.9867C29.0241 68.9867 28.8687 68.9597 28.7201 68.9056C28.585 68.8516 28.4566 68.7638 28.3351 68.6422C28.227 68.5341 28.1459 68.4125 28.0919 68.2774C28.0243 68.1287 27.9905 67.9734 27.9905 67.8112ZM28.3958 67.8112C28.3958 68.0409 28.4702 68.2368 28.6188 68.399C28.7809 68.5611 28.9701 68.6422 29.1862 68.6422C29.4024 68.6422 29.5848 68.5611 29.7334 68.399C29.882 68.2368 29.9564 68.0409 29.9564 67.8112C29.9564 67.5815 29.882 67.3924 29.7334 67.2438C29.5848 67.0816 29.4024 67.0006 29.1862 67.0006C28.9701 67.0006 28.7809 67.0816 28.6188 67.2438C28.4702 67.3924 28.3958 67.5815 28.3958 67.8112ZM30.9494 68.9056V66.7169H31.3142V67.0614C31.4088 66.9263 31.5169 66.8249 31.6385 66.7574C31.7736 66.6898 31.9289 66.6561 32.1046 66.6561C32.3613 66.6561 32.5572 66.7236 32.6923 66.8587C32.8409 66.9938 32.9152 67.183 32.9152 67.4262V68.9056H32.5302V67.6288C32.5302 67.3992 32.4896 67.2303 32.4086 67.1222C32.314 67.0141 32.1654 66.9601 31.9627 66.9601C31.8546 66.9601 31.7533 66.9803 31.6587 67.0209C31.5777 67.0614 31.5034 67.1222 31.4358 67.2032C31.3953 67.2573 31.3615 67.3248 31.3345 67.4059C31.321 67.4735 31.3142 67.5951 31.3142 67.7707V68.9056H30.9494ZM35.6715 65.2171V68.9056H35.3269V68.5003C35.2324 68.6624 35.1175 68.784 34.9824 68.8651C34.8473 68.9461 34.6987 68.9867 34.5366 68.9867C34.2258 68.9867 33.9759 68.8786 33.7867 68.6624C33.584 68.4598 33.4827 68.176 33.4827 67.8112C33.4827 67.4599 33.5773 67.1762 33.7664 66.9601C33.9556 66.7574 34.2055 66.6561 34.5163 66.6561C34.6919 66.6561 34.8473 66.6966 34.9824 66.7777C35.1175 66.8587 35.2256 66.9803 35.3067 67.1424V65.2171H35.6715ZM35.3067 67.8315C35.3067 67.5883 35.2391 67.3924 35.104 67.2438C34.9824 67.0952 34.8068 67.0209 34.5771 67.0209C34.3609 67.0209 34.192 67.0884 34.0704 67.2235C33.9488 67.3586 33.888 67.541 33.888 67.7707C33.888 68.0409 33.9488 68.2503 34.0704 68.399C34.192 68.5611 34.3609 68.6422 34.5771 68.6422C34.8068 68.6422 34.9892 68.5678 35.1243 68.4192C35.2459 68.2706 35.3067 68.0747 35.3067 67.8315ZM39.5221 69.0272L38.448 66.5345L38.0021 68.9056H37.5968L38.3061 65.2779L39.5221 68.1558L40.7381 65.2779L41.4474 68.9056H41.0421L40.5962 66.5345L39.5221 69.0272ZM43.9604 66.7169V68.8854H43.6159V68.5003C43.5213 68.6624 43.4065 68.784 43.2714 68.8651C43.1362 68.9461 42.9876 68.9867 42.8255 68.9867C42.5147 68.9867 42.258 68.8786 42.0554 68.6624C41.8662 68.4462 41.7716 68.1625 41.7716 67.8112C41.7716 67.4599 41.8662 67.1762 42.0554 66.9601C42.2445 66.7439 42.4945 66.6358 42.8052 66.6358C42.9809 66.6358 43.1362 66.6763 43.2714 66.7574C43.4065 66.8385 43.5145 66.9601 43.5956 67.1222V66.7169H43.9604ZM43.5956 67.8315C43.5956 67.5883 43.5281 67.3924 43.393 67.2438C43.2714 67.0952 43.1025 67.0209 42.8863 67.0209C42.6566 67.0209 42.481 67.0884 42.3594 67.2235C42.2378 67.3586 42.177 67.5478 42.177 67.791C42.177 68.0612 42.2378 68.2639 42.3594 68.399C42.481 68.5476 42.6566 68.6219 42.8863 68.6219C43.116 68.6219 43.2916 68.5543 43.4132 68.4192C43.5348 68.2706 43.5956 68.0747 43.5956 67.8315ZM44.7103 68.8854V66.7169H45.0751V67.0614C45.1696 66.9128 45.2777 66.8047 45.3993 66.7371C45.5344 66.6696 45.6898 66.6358 45.8654 66.6358C46.1222 66.6358 46.3248 66.7033 46.4734 66.8384C46.6085 66.9871 46.6761 67.1762 46.6761 67.4059V68.8854H46.3113V67.6086C46.3113 67.3924 46.264 67.2303 46.1694 67.1222C46.0749 67.0141 45.933 66.9601 45.7438 66.9601C45.6223 66.9601 45.5209 66.9803 45.4399 67.0209C45.3453 67.0614 45.2642 67.1222 45.1967 67.2032C45.1561 67.2573 45.1291 67.3181 45.1156 67.3856C45.0886 67.4667 45.0751 67.5951 45.0751 67.7707V68.8854H44.7103ZM47.7705 66.7169V67.791C47.7705 68.1017 47.8178 68.3179 47.9123 68.4395C48.0069 68.5746 48.1623 68.6422 48.3785 68.6422C48.5947 68.6422 48.75 68.5746 48.8446 68.4395C48.9392 68.3179 48.9865 68.1017 48.9865 67.791V66.7169H49.3715V67.9936C49.3715 68.3179 49.2837 68.5678 49.1081 68.7435C48.9459 68.9056 48.7027 68.9867 48.3785 68.9867C48.0542 68.9867 47.8043 68.9056 47.6286 68.7435C47.4665 68.5678 47.3854 68.3179 47.3854 67.9936V66.7169H47.7705ZM50.1822 68.8854V67.0209H49.7566V66.7169H50.1822V66.0886C50.1822 65.7238 50.2227 65.4806 50.3038 65.359C50.3983 65.2374 50.5672 65.1766 50.8104 65.1766C50.8645 65.1766 50.9185 65.1766 50.9726 65.1766C51.0266 65.1901 51.0739 65.2036 51.1144 65.2171V65.6022C51.0739 65.5752 51.0266 65.5549 50.9726 65.5414C50.932 65.5279 50.8848 65.5211 50.8307 65.5211C50.7226 65.5211 50.6483 65.5549 50.6078 65.6225C50.5672 65.69 50.547 65.8657 50.547 66.1494V66.7169H51.1144V67.0209H50.547V68.8854H50.1822ZM53.5261 66.7169V68.8854H53.1613V68.5003C53.0803 68.6624 52.9654 68.784 52.8168 68.8651C52.6817 68.9461 52.5331 68.9867 52.3709 68.9867C52.0602 68.9867 51.8102 68.8786 51.6211 68.6624C51.4319 68.4462 51.3374 68.1625 51.3374 67.8112C51.3374 67.4599 51.4252 67.1762 51.6008 66.9601C51.79 66.7439 52.0399 66.6358 52.3507 66.6358C52.5398 66.6358 52.6952 66.6763 52.8168 66.7574C52.9519 66.8385 53.06 66.9601 53.1411 67.1222V66.7169H53.5261ZM53.1816 67.8315C53.1816 67.5883 53.114 67.3924 52.9789 67.2438C52.8438 67.0952 52.6682 67.0209 52.452 67.0209C52.2223 67.0209 52.0467 67.0884 51.9251 67.2235C51.8035 67.3586 51.7427 67.5478 51.7427 67.791C51.7427 68.0612 51.8035 68.2639 51.9251 68.399C52.0602 68.5476 52.2426 68.6219 52.4723 68.6219C52.6884 68.6219 52.8573 68.5543 52.9789 68.4192C53.114 68.2706 53.1816 68.0747 53.1816 67.8315ZM55.9378 68.3787V68.8043C55.8433 68.8718 55.7352 68.9191 55.6136 68.9462C55.492 68.9732 55.3569 68.9867 55.2082 68.9867C54.884 68.9867 54.6138 68.8786 54.3976 68.6624C54.1949 68.4598 54.0936 68.1828 54.0936 67.8315C54.0936 67.4802 54.2017 67.1965 54.4179 66.9803C54.634 66.7506 54.9042 66.6358 55.2285 66.6358C55.3501 66.6358 55.4717 66.6493 55.5933 66.6763C55.7014 66.7033 55.8095 66.7439 55.9176 66.7979V67.183C55.823 67.1289 55.7216 67.0884 55.6136 67.0614C55.519 67.0209 55.4177 67.0006 55.3096 67.0006C55.0664 67.0006 54.8705 67.0749 54.7218 67.2235C54.5732 67.3856 54.4989 67.5883 54.4989 67.8315C54.4989 68.0612 54.5732 68.2503 54.7218 68.399C54.8705 68.5476 55.0529 68.6219 55.269 68.6219C55.3906 68.6219 55.5055 68.6016 55.6136 68.5611C55.7216 68.5206 55.8297 68.4598 55.9378 68.3787ZM56.5255 67.0209H56.1202V66.7169H56.5255V65.8454H56.9106V66.7169H57.2957V67.0209H56.9106V68.8854H56.5255V67.0209ZM58.0658 66.7169V67.791C58.0658 68.1017 58.1131 68.3179 58.2077 68.4395C58.3022 68.5746 58.4576 68.6422 58.6738 68.6422C58.9035 68.6422 59.0588 68.5814 59.1399 68.4598C59.2345 68.3246 59.2818 68.1017 59.2818 67.791V66.7169H59.6668V67.9936C59.6668 68.3179 59.579 68.5678 59.4034 68.7435C59.2412 68.9056 58.9981 68.9867 58.6738 68.9867C58.3495 68.9867 58.1063 68.9056 57.9442 68.7435C57.7686 68.5678 57.6807 68.3179 57.6807 67.9936V66.7169H58.0658ZM60.3762 68.9056V66.7169H60.7207V67.183C60.8153 66.9938 60.9166 66.8587 61.0247 66.7777C61.1463 66.6966 61.2881 66.6561 61.4503 66.6561C61.4908 66.6561 61.5313 66.6561 61.5719 66.6561C61.6124 66.6696 61.6529 66.6831 61.6935 66.6966L61.5719 67.0209C61.5313 67.0073 61.4908 67.0006 61.4503 67.0006C61.4097 66.9871 61.376 66.9803 61.3489 66.9803C61.1463 66.9803 60.9977 67.0546 60.9031 67.2032C60.8085 67.3383 60.7612 67.5478 60.7612 67.8315V68.9056H60.3762ZM64.0038 67.872H62.2812V67.8923C62.2812 68.1355 62.3488 68.3246 62.4839 68.4598C62.619 68.6084 62.7946 68.6827 63.0108 68.6827C63.1594 68.6827 63.2878 68.6422 63.3958 68.5611C63.5174 68.48 63.6255 68.3652 63.7201 68.2166L64.0038 68.399C63.8957 68.5881 63.7539 68.7367 63.5782 68.8448C63.4161 68.9394 63.2202 68.9867 62.9905 68.9867C62.6527 68.9867 62.3825 68.8786 62.1799 68.6624C61.9772 68.4462 61.8759 68.1625 61.8759 67.8112C61.8759 67.4599 61.9772 67.1762 62.1799 66.9601C62.3825 66.7439 62.646 66.6358 62.9702 66.6358C63.2945 66.6358 63.5445 66.7439 63.7201 66.9601C63.9093 67.1627 64.0038 67.4397 64.0038 67.791V67.872ZM63.6188 67.568C63.6053 67.3789 63.5377 67.2303 63.4161 67.1222C63.308 67.0276 63.1526 66.9803 62.95 66.9803C62.7743 66.9803 62.6257 67.0344 62.5041 67.1424C62.3825 67.2505 62.3082 67.3924 62.2812 67.568H63.6188ZM64.5916 68.9056V66.7371H64.9158V67.183C65.0239 66.9938 65.132 66.8587 65.2401 66.7777C65.3482 66.6966 65.4833 66.6561 65.6454 66.6561C65.6995 66.6561 65.7467 66.6628 65.7873 66.6763C65.8278 66.6763 65.8683 66.6831 65.9089 66.6966L65.7873 67.0411C65.7332 67.0276 65.6927 67.0141 65.6657 67.0006C65.6251 67.0006 65.5846 67.0006 65.5441 67.0006C65.3549 67.0006 65.2063 67.0681 65.0982 67.2032C65.0036 67.3519 64.9564 67.568 64.9564 67.8518V68.9056H64.5916ZM65.7062 69.5947L66.1723 68.2976L66.5777 68.4395L65.9899 69.696L65.7062 69.5947ZM68.7056 68.9056V65.4401H69.1312V68.9056H68.7056ZM72.9413 68.9056V67.6288C72.9413 67.4127 72.894 67.2505 72.7994 67.1424C72.7184 67.0344 72.5833 66.9803 72.3941 66.9803C72.2995 66.9803 72.2117 67.0006 72.1306 67.0411C72.0361 67.0816 71.9618 67.1357 71.9077 67.2032C71.8672 67.2708 71.8334 67.3383 71.8064 67.4059C71.7929 67.487 71.7861 67.6153 71.7861 67.791V68.9056H71.4213V67.6288C71.4213 67.4127 71.3808 67.2505 71.2997 67.1424C71.2051 67.0344 71.07 66.9803 70.8944 66.9803C70.7863 66.9803 70.6917 67.0006 70.6107 67.0411C70.5161 67.0816 70.4418 67.1357 70.3877 67.2032C70.3472 67.2708 70.3202 67.3383 70.3067 67.4059C70.2796 67.4735 70.2661 67.6018 70.2661 67.791V68.9056H69.9216V66.7371H70.2864V67.0816C70.3675 66.933 70.4756 66.8249 70.6107 66.7574C70.7323 66.6898 70.8741 66.6561 71.0363 66.6561C71.2119 66.6561 71.3605 66.6966 71.4821 66.7777C71.6037 66.8452 71.6983 66.9533 71.7659 67.1019C71.8604 66.9533 71.9685 66.8452 72.0901 66.7777C72.2252 66.6966 72.3738 66.6561 72.536 66.6561C72.7792 66.6561 72.9683 66.7236 73.1034 66.8587C73.2385 66.9938 73.3061 67.183 73.3061 67.4262V68.9056H72.9413ZM74.0357 69.9797V66.7371H74.4005V67.1424C74.4815 66.9938 74.5896 66.8722 74.7247 66.7777C74.8734 66.6966 75.0287 66.6561 75.1909 66.6561C75.5016 66.6561 75.7516 66.7641 75.9407 66.9803C76.1299 67.1965 76.2244 67.4802 76.2244 67.8315C76.2244 68.1963 76.1366 68.48 75.961 68.6827C75.7718 68.8989 75.5219 69.007 75.2111 69.007C75.0355 69.007 74.8801 68.9664 74.745 68.8854C74.6099 68.8043 74.5018 68.6827 74.4207 68.5206V69.9797H74.0357ZM74.3802 67.8315C74.3802 68.0747 74.4478 68.2706 74.5829 68.4192C74.718 68.5678 74.9004 68.6422 75.1301 68.6422C75.3462 68.6422 75.5151 68.5746 75.6367 68.4395C75.7583 68.3044 75.8191 68.1152 75.8191 67.872C75.8191 67.6018 75.7583 67.3924 75.6367 67.2438C75.5151 67.0952 75.3395 67.0209 75.1098 67.0209C74.8936 67.0209 74.718 67.0952 74.5829 67.2438C74.4478 67.3789 74.3802 67.5748 74.3802 67.8315ZM76.6298 67.8315C76.6298 67.6694 76.6636 67.5208 76.7311 67.3856C76.7851 67.237 76.8662 67.1087 76.9743 67.0006C77.0959 66.8925 77.2242 66.8047 77.3594 66.7371C77.508 66.6831 77.6634 66.6561 77.8255 66.6561C77.9741 66.6561 78.1227 66.6831 78.2713 66.7371C78.4065 66.8047 78.5348 66.8925 78.6564 67.0006C78.7645 67.1087 78.8523 67.237 78.9199 67.3856C78.9739 67.5208 79.0009 67.6694 79.0009 67.8315C79.0009 67.9936 78.9739 68.1423 78.9199 68.2774C78.8523 68.4125 78.7645 68.5341 78.6564 68.6422C78.5348 68.7638 78.4065 68.8516 78.2713 68.9056C78.1227 68.9732 77.9741 69.007 77.8255 69.007C77.6634 69.007 77.508 68.9732 77.3594 68.9056C77.2242 68.8516 77.0959 68.7705 76.9743 68.6624C76.8662 68.5408 76.7851 68.4125 76.7311 68.2774C76.6636 68.1423 76.6298 67.9936 76.6298 67.8315ZM77.0351 67.8315C77.0351 68.0612 77.1094 68.2571 77.258 68.4192C77.4066 68.5814 77.5958 68.6624 77.8255 68.6624C78.0417 68.6624 78.2241 68.5814 78.3727 68.4192C78.5213 68.2571 78.5956 68.0612 78.5956 67.8315C78.5956 67.6018 78.5213 67.4059 78.3727 67.2438C78.2241 67.0816 78.0417 67.0006 77.8255 67.0006C77.5958 67.0006 77.4066 67.0816 77.258 67.2438C77.1094 67.4059 77.0351 67.6018 77.0351 67.8315ZM79.5887 68.9056V66.7371H79.9129V67.183C80.0075 66.9938 80.1156 66.8587 80.2372 66.7777C80.3453 66.6966 80.4804 66.6561 80.6425 66.6561C80.683 66.6561 80.7236 66.6628 80.7641 66.6763C80.8046 66.6763 80.8452 66.6831 80.8857 66.6966L80.7641 67.0411C80.7236 67.0276 80.683 67.0209 80.6425 67.0209C80.6155 67.0073 80.5817 67.0006 80.5412 67.0006C80.3385 67.0006 80.1899 67.0681 80.0953 67.2032C80.0007 67.3519 79.9535 67.568 79.9535 67.8518V68.9056H79.5887ZM81.3518 67.0411H80.9465V66.7371H81.3518V65.8657H81.7166V66.7371H82.1219V67.0411H81.7166V68.9056H81.3518V67.0411ZM84.4931 67.8923H82.7705V67.9126C82.7705 68.1422 82.838 68.3314 82.9731 68.48C83.0947 68.6287 83.2636 68.703 83.4798 68.703C83.6284 68.703 83.7635 68.6624 83.8851 68.5814C83.9932 68.5003 84.0945 68.3787 84.1891 68.2166L84.4729 68.4192C84.3648 68.6084 84.2229 68.757 84.0473 68.8651C83.8851 68.9597 83.6892 69.007 83.4595 69.007C83.1353 69.007 82.8718 68.8989 82.6691 68.6827C82.4665 68.4665 82.3652 68.176 82.3652 67.8112C82.3652 67.4735 82.4665 67.1965 82.6691 66.9803C82.8718 66.7641 83.1285 66.6561 83.4393 66.6561C83.7635 66.6561 84.0202 66.7574 84.2094 66.9601C84.3986 67.1762 84.4931 67.4599 84.4931 67.8112V67.8923ZM84.0878 67.5883C84.0743 67.3992 84.0135 67.2505 83.9054 67.1424C83.7838 67.0479 83.6217 67.0006 83.419 67.0006C83.2434 67.0006 83.0947 67.0546 82.9731 67.1627C82.8515 67.2708 82.784 67.4127 82.7705 67.5883H84.0878ZM85.0403 68.9259V66.7574H85.3848V67.2032C85.4794 67.0141 85.5807 66.879 85.6888 66.7979C85.8104 66.7168 85.9523 66.6763 86.1144 66.6763C86.155 66.6763 86.1955 66.6763 86.236 66.6763C86.2766 66.6898 86.3171 66.7033 86.3576 66.7169L86.236 67.0614C86.1955 67.0479 86.155 67.0344 86.1144 67.0209C86.0739 67.0209 86.0401 67.0209 86.0131 67.0209C85.8104 67.0209 85.6618 67.0884 85.5672 67.2235C85.4727 67.3721 85.4254 67.5883 85.4254 67.872V68.9259H85.0403ZM90.4109 68.9259L90.0866 68.5206C89.9245 68.6692 89.7556 68.784 89.58 68.8651C89.4043 68.9461 89.2219 68.9867 89.0328 68.9867C88.722 68.9867 88.4721 68.8921 88.2829 68.703C88.0938 68.5273 87.9992 68.2909 87.9992 67.9936C87.9992 67.791 88.0667 67.6018 88.2019 67.4262C88.3235 67.2505 88.5194 67.0884 88.7896 66.9398L88.6477 66.7777C88.5802 66.6831 88.5261 66.5885 88.4856 66.4939C88.4451 66.3993 88.4248 66.298 88.4248 66.1899C88.4248 65.9737 88.4991 65.7981 88.6477 65.663C88.7963 65.5279 88.9855 65.4603 89.2152 65.4603C89.4584 65.4603 89.6543 65.5279 89.8029 65.663C89.938 65.7981 90.0056 65.9737 90.0056 66.1899C90.0056 66.3656 89.9583 66.521 89.8637 66.6561C89.7691 66.7912 89.607 66.9263 89.3773 67.0614L90.1474 67.9734C90.2015 67.9058 90.2623 67.8315 90.3298 67.7504C90.3974 67.6559 90.4717 67.5545 90.5528 67.4464L90.796 67.7099C90.7284 67.818 90.6609 67.9193 90.5933 68.0139C90.5257 68.095 90.4514 68.176 90.3704 68.2571L90.9176 68.9259H90.4109ZM89.1544 66.7979L89.2962 66.6966C89.4043 66.629 89.4854 66.5547 89.5394 66.4737C89.5935 66.3926 89.6205 66.3048 89.6205 66.2102C89.6205 66.0886 89.5867 65.994 89.5192 65.9265C89.4381 65.8454 89.3368 65.8049 89.2152 65.8049C89.0936 65.8049 88.999 65.8454 88.9315 65.9265C88.8504 65.994 88.8098 66.0886 88.8098 66.2102C88.8098 66.2642 88.8234 66.325 88.8504 66.3926C88.8639 66.4466 88.8909 66.4939 88.9315 66.5345L89.1544 66.7979ZM89.8637 68.2368L89.0125 67.2235L88.9112 67.3046C88.722 67.4262 88.5937 67.541 88.5261 67.6491C88.4451 67.7572 88.4045 67.872 88.4045 67.9936C88.4045 68.1828 88.4653 68.3382 88.5869 68.4598C88.7085 68.5814 88.8639 68.6422 89.053 68.6422C89.1746 68.6422 89.303 68.6084 89.4381 68.5408C89.5732 68.4868 89.7151 68.3855 89.8637 68.2368ZM92.9037 68.9259V65.4603H94.7276V65.8251H93.309V66.8384H94.7276V67.2235H93.309V68.5408H94.7276V68.9259H92.9037ZM95.0316 68.9259L95.8625 67.8112L95.0519 66.7574H95.518L96.0855 67.5275L96.6529 66.7574H97.0988L96.2881 67.8112L97.1393 68.9259H96.6732L96.0855 68.095L95.4977 68.9259H95.0316ZM97.5041 70V66.7574H97.8689V67.1627C97.95 67.0141 98.0581 66.8925 98.1932 66.7979C98.3283 66.7168 98.4837 66.6763 98.6593 66.6763C98.9701 66.6763 99.22 66.7844 99.4092 67.0006C99.5983 67.2168 99.6929 67.5005 99.6929 67.8518C99.6929 68.2166 99.5983 68.5003 99.4092 68.703C99.2335 68.9191 98.9903 69.0272 98.6796 69.0272C98.4904 69.0272 98.335 68.9867 98.2134 68.9056C98.0783 68.8246 97.9635 68.703 97.8689 68.5408V70H97.5041ZM97.8689 67.8518C97.8689 68.095 97.9365 68.2909 98.0716 68.4395C98.2067 68.5881 98.3891 68.6624 98.6188 68.6624C98.8349 68.6624 99.0038 68.5949 99.1254 68.4598C99.247 68.3246 99.3078 68.1355 99.3078 67.8923C99.3078 67.6221 99.247 67.4127 99.1254 67.264C99.0038 67.1154 98.8282 67.0411 98.5985 67.0411C98.3688 67.0411 98.1932 67.1154 98.0716 67.264C97.9365 67.3992 97.8689 67.5951 97.8689 67.8518ZM100.118 67.8518C100.118 67.6896 100.146 67.541 100.2 67.4059C100.267 67.2573 100.355 67.1289 100.463 67.0209C100.571 66.9128 100.699 66.8249 100.848 66.7574C100.983 66.7033 101.132 66.6763 101.294 66.6763C101.456 66.6763 101.611 66.7033 101.76 66.7574C101.895 66.8249 102.024 66.9128 102.145 67.0209C102.253 67.1289 102.334 67.2573 102.388 67.4059C102.456 67.541 102.49 67.6896 102.49 67.8518C102.49 68.0139 102.456 68.1625 102.388 68.2976C102.334 68.4327 102.253 68.5543 102.145 68.6624C102.024 68.784 101.895 68.8718 101.76 68.9259C101.611 68.9934 101.456 69.0272 101.294 69.0272C101.145 69.0272 100.997 68.9934 100.848 68.9259C100.699 68.8718 100.571 68.7908 100.463 68.6827C100.355 68.5611 100.267 68.4327 100.2 68.2976C100.146 68.1625 100.118 68.0139 100.118 67.8518ZM100.524 67.8518C100.524 68.0815 100.598 68.2774 100.747 68.4395C100.895 68.6016 101.078 68.6827 101.294 68.6827C101.524 68.6827 101.713 68.6016 101.861 68.4395C102.01 68.2774 102.084 68.0815 102.084 67.8518C102.084 67.6221 102.01 67.4262 101.861 67.264C101.713 67.1019 101.524 67.0209 101.294 67.0209C101.078 67.0209 100.895 67.1019 100.747 67.264C100.585 67.4262 100.51 67.6221 100.524 67.8518ZM103.057 68.9259V66.7574H103.402V67.2032C103.496 67.0141 103.604 66.879 103.726 66.7979C103.834 66.7168 103.969 66.6763 104.131 66.6763C104.172 66.6763 104.212 66.6831 104.253 66.6966C104.293 66.6966 104.334 66.7033 104.374 66.7169L104.253 67.0614C104.212 67.0479 104.172 67.0411 104.131 67.0411C104.091 67.0276 104.057 67.0209 104.03 67.0209C103.827 67.0209 103.679 67.0884 103.584 67.2235C103.489 67.3721 103.442 67.5883 103.442 67.872V68.9259H103.057ZM104.82 67.0614H104.415V66.7574H104.82V65.8859H105.185V66.7574H105.59V67.0614H105.185V68.9259H104.82V67.0614ZM107.962 67.9126H106.239V67.9328C106.239 68.1625 106.3 68.3517 106.421 68.5003C106.556 68.6489 106.732 68.7232 106.948 68.7232C107.097 68.7232 107.232 68.6827 107.354 68.6016C107.462 68.5206 107.563 68.399 107.658 68.2368L107.941 68.4395C107.833 68.6286 107.691 68.7773 107.516 68.8854C107.354 68.9799 107.158 69.0272 106.928 69.0272C106.604 69.0272 106.34 68.9191 106.138 68.703C105.921 68.4868 105.813 68.1963 105.813 67.8315C105.813 67.4937 105.915 67.2168 106.117 67.0006C106.32 66.7844 106.583 66.6763 106.908 66.6763C107.232 66.6763 107.489 66.7777 107.678 66.9803C107.867 67.1965 107.962 67.4802 107.962 67.8315V67.9126ZM107.556 67.6086C107.543 67.4194 107.475 67.2708 107.354 67.1627C107.245 67.0681 107.09 67.0209 106.887 67.0209C106.712 67.0209 106.563 67.0749 106.442 67.183C106.32 67.2911 106.252 67.4329 106.239 67.6086H107.556ZM108.509 68.9462V66.7777H108.853V67.2235C108.948 67.0344 109.049 66.8993 109.157 66.8182C109.279 66.7371 109.421 66.6966 109.583 66.6966C109.623 66.6966 109.664 66.6966 109.704 66.6966C109.745 66.7101 109.786 66.7236 109.826 66.7371L109.704 67.0816C109.664 67.0681 109.623 67.0546 109.583 67.0411C109.542 67.0411 109.509 67.0411 109.482 67.0411C109.279 67.0411 109.13 67.1087 109.036 67.2438C108.928 67.3924 108.874 67.6086 108.874 67.8923V68.9462H108.509Z" fill="#008DD2"/>
</svg>
