<svg width="319" height="177" viewBox="0 0 319 177" fill="none" xmlns="http://www.w3.org/2000/svg">
<path fill-rule="evenodd" clip-rule="evenodd" d="M56.7086 42.277L115.464 114.737L135.937 90.0885L136.142 90.191L146.122 96.4429L146.378 96.5966L115.464 115.813L0 43.9169L43.3503 0.051248L87.0589 28.5434L56.7086 42.277ZM159.685 88.295L147.35 76.2524L174.732 43.2507L165.98 39.3048L166.39 39.2023L216.189 28.2359L216.291 28.1847L231.697 43.6607L159.685 88.295ZM165.571 15.1685L188.244 0L203.393 15.1685H165.571Z" fill="#00A0E3"/>
<path fill-rule="evenodd" clip-rule="evenodd" d="M143.711 44.2243L275.144 15.2197H130.302L86.6953 59.2391L202.672 131.802L318.597 58.7779L216.951 58.9316L202.672 73.5364L217.105 87.9362L275.195 73.3827L202.569 130.162L129.431 58.6754L143.711 44.2243Z" fill="#393185"/>
<path fill-rule="evenodd" clip-rule="evenodd" d="M230.881 111.867L218.547 99.8242L229.039 110.073L230.677 111.662L230.881 111.867Z" fill="#393185"/>
<path d="M226.479 134.876H231.495C231.905 134.876 232.263 135.03 232.57 135.337C232.877 135.645 233.031 136.003 233.031 136.413C233.031 136.857 232.86 137.233 232.519 137.541C232.212 137.814 231.87 137.951 231.495 137.951H226.684C226.24 137.951 225.848 138.173 225.507 138.617L221.259 144.1C220.884 144.51 220.696 145.108 220.696 145.894V154.247C220.696 154.691 220.849 155.066 221.157 155.374C221.429 155.681 221.788 155.835 222.231 155.835H228.373C228.782 155.835 229.141 155.681 229.448 155.374C229.755 155.066 229.891 154.708 229.857 154.298V151.018H226.735C226.326 151.018 225.968 150.864 225.66 150.557C225.387 150.284 225.251 149.942 225.251 149.532C225.251 149.088 225.387 148.729 225.66 148.456C225.968 148.148 226.326 147.995 226.735 147.995H232.928V154.298C232.928 155.562 232.468 156.638 231.546 157.526C230.693 158.414 229.635 158.859 228.373 158.859H222.231C220.969 158.859 219.894 158.414 219.007 157.526C218.086 156.638 217.625 155.562 217.625 154.298V145.945C217.625 144.442 218.034 143.161 218.853 142.101L223.306 136.465C223.647 136.02 224.108 135.645 224.688 135.337C225.268 135.03 225.865 134.876 226.479 134.876ZM253.708 137.951H243.011V145.33H247.617C248.027 145.33 248.385 145.484 248.692 145.791C248.965 146.099 249.101 146.457 249.101 146.867C249.101 147.277 248.965 147.636 248.692 147.943C248.385 148.251 248.027 148.405 247.617 148.405H243.011V155.835H253.708C254.117 155.835 254.475 155.972 254.782 156.245C255.09 156.553 255.243 156.911 255.243 157.321C255.243 157.731 255.09 158.09 254.782 158.397C254.475 158.705 254.117 158.859 253.708 158.859H239.991V134.876H253.708C254.117 134.876 254.475 135.03 254.782 135.337C255.09 135.645 255.243 136.02 255.243 136.465C255.243 136.875 255.09 137.216 254.782 137.489C254.475 137.797 254.117 137.951 253.708 137.951ZM268.294 144.305V143.536L265.172 139.078V157.321C265.172 157.731 265.036 158.09 264.763 158.397C264.456 158.705 264.097 158.859 263.688 158.859C263.244 158.859 262.886 158.705 262.613 158.397C262.306 158.09 262.152 157.731 262.152 157.321V134.876H266.042L269.778 140.308L273.617 134.876H277.456V157.321C277.456 157.731 277.302 158.09 276.995 158.397C276.688 158.705 276.33 158.859 275.92 158.859C275.511 158.859 275.153 158.705 274.845 158.397C274.538 158.09 274.385 157.731 274.385 157.321V139.129L271.314 143.434V144.305C271.348 144.715 271.212 145.074 270.904 145.381C270.597 145.689 270.239 145.842 269.83 145.842C269.42 145.842 269.062 145.689 268.755 145.381C268.448 145.074 268.294 144.715 268.294 144.305ZM287.897 134.876H295.778C296.734 134.876 297.638 135.286 298.491 136.106C299.344 136.926 299.771 137.917 299.771 139.078C299.771 139.488 299.617 139.847 299.31 140.154C299.003 140.462 298.662 140.615 298.286 140.615C297.775 140.615 297.433 140.496 297.263 140.257C297.058 140.018 296.87 139.591 296.7 138.976C296.529 138.326 296.137 138.002 295.523 138.002H287.999C287.658 138.002 287.487 138.121 287.487 138.361C287.487 138.497 287.555 138.651 287.692 138.822L298.952 153.222C299.498 153.905 299.771 154.639 299.771 155.425C299.771 156.348 299.446 157.15 298.798 157.834C298.15 158.517 297.416 158.859 296.597 158.859H288.46C287.368 158.859 286.412 158.449 285.593 157.629C284.809 156.775 284.416 155.869 284.416 154.913C284.416 153.785 284.945 153.222 286.003 153.222C286.412 153.222 286.754 153.358 287.026 153.632C287.334 153.939 287.487 154.281 287.487 154.656C287.487 154.998 287.589 155.271 287.794 155.476C288.033 155.716 288.323 155.835 288.664 155.835H296.188C296.529 155.835 296.7 155.698 296.7 155.425C296.7 155.323 296.631 155.169 296.495 154.964L285.235 140.615C284.689 139.932 284.416 139.181 284.416 138.361C284.416 137.438 284.757 136.635 285.44 135.952C286.122 135.235 286.941 134.876 287.897 134.876Z" fill="#393185"/>
<path d="M217.215 155.015V142.921C217.42 142.306 217.727 141.725 218.136 141.179L222.589 135.49C222.896 135.081 223.357 134.722 223.971 134.414C224.551 134.107 225.148 133.953 225.762 133.953H230.778C231.187 133.953 231.546 134.107 231.853 134.414C232.16 134.688 232.313 135.046 232.313 135.49C232.313 135.935 232.143 136.293 231.801 136.567C231.494 136.874 231.153 137.028 230.778 137.028H225.967C225.523 137.028 225.114 137.25 224.738 137.694L220.49 143.126C220.149 143.57 219.979 144.185 219.979 144.971V153.324C219.979 153.768 220.132 154.144 220.439 154.451C220.712 154.724 221.07 154.861 221.514 154.861H227.656C228.065 154.861 228.423 154.724 228.731 154.451C229.004 154.144 229.14 153.785 229.14 153.375V150.095H226.018C225.574 150.095 225.216 149.942 224.943 149.634C224.67 149.361 224.534 149.002 224.534 148.558C224.534 148.148 224.67 147.789 224.943 147.482C225.216 147.208 225.574 147.072 226.018 147.072H232.16V153.375C232.16 154.605 231.716 155.664 230.829 156.552C229.942 157.44 228.884 157.884 227.656 157.884H221.514C220.252 157.884 219.16 157.44 218.238 156.552C217.761 156.108 217.42 155.596 217.215 155.015ZM252.939 137.028H242.294V144.407H246.9C247.309 144.407 247.65 144.561 247.923 144.868C248.231 145.176 248.384 145.517 248.384 145.893C248.384 146.337 248.248 146.713 247.975 147.021C247.668 147.328 247.309 147.482 246.9 147.482H242.294V154.861H252.99C253.4 154.861 253.758 155.015 254.065 155.322C254.372 155.63 254.526 155.988 254.526 156.398C254.526 156.808 254.372 157.167 254.065 157.475C253.758 157.748 253.383 157.884 252.939 157.884H239.274V133.953H252.939C253.383 133.953 253.758 134.107 254.065 134.414C254.372 134.722 254.526 135.081 254.526 135.49C254.526 135.9 254.372 136.259 254.065 136.567C253.758 136.874 253.383 137.028 252.939 137.028ZM267.577 143.382V142.613L264.455 138.155V156.398C264.455 156.808 264.301 157.167 263.994 157.475C263.721 157.748 263.38 157.884 262.971 157.884C262.527 157.884 262.169 157.748 261.896 157.475C261.589 157.167 261.435 156.808 261.435 156.398V133.953H265.274L269.061 139.385L272.9 133.953H276.738V156.398C276.738 156.808 276.585 157.167 276.278 157.475C275.971 157.748 275.612 157.884 275.203 157.884C274.794 157.884 274.435 157.748 274.128 157.475C273.821 157.167 273.668 156.808 273.668 156.398V138.206L270.597 142.511V143.382C270.597 143.792 270.46 144.151 270.187 144.458C269.88 144.732 269.522 144.868 269.112 144.868C268.703 144.868 268.345 144.732 268.038 144.458C267.731 144.151 267.577 143.792 267.577 143.382ZM287.128 133.953H295.01C296 133.953 296.921 134.363 297.774 135.183C298.627 136.003 299.053 136.994 299.053 138.155C299.053 138.565 298.9 138.924 298.593 139.231C298.286 139.539 297.944 139.693 297.569 139.693C297.057 139.693 296.699 139.573 296.494 139.334C296.324 139.095 296.153 138.651 295.982 138.001C295.812 137.387 295.419 137.079 294.805 137.079H287.282C286.94 137.079 286.77 137.182 286.77 137.387C286.77 137.523 286.838 137.694 286.975 137.899L298.234 152.248C298.78 152.965 299.053 153.717 299.053 154.502C299.053 155.391 298.729 156.176 298.081 156.86C297.433 157.543 296.699 157.884 295.88 157.884H287.742C286.65 157.884 285.695 157.475 284.876 156.655C284.091 155.835 283.699 154.929 283.699 153.939C283.699 152.811 284.228 152.248 285.286 152.248C285.695 152.248 286.036 152.401 286.309 152.709C286.616 153.016 286.77 153.358 286.77 153.734C286.77 154.075 286.872 154.349 287.077 154.554C287.316 154.759 287.606 154.861 287.947 154.861H295.471C295.812 154.861 295.982 154.741 295.982 154.502C295.982 154.366 295.897 154.212 295.727 154.041L284.518 139.693C283.972 139.009 283.699 138.258 283.699 137.438C283.699 136.515 284.04 135.695 284.723 134.978C285.371 134.295 286.173 133.953 287.128 133.953Z" fill="#393185"/>
<path fill-rule="evenodd" clip-rule="evenodd" d="M218.242 156.552C219.163 157.44 220.255 157.884 221.517 157.884H227.659C228.887 157.884 229.945 157.44 230.832 156.552C231.719 155.664 232.163 154.605 232.163 153.375V147.072H226.021C225.578 147.072 225.219 147.208 224.946 147.482C224.673 147.789 224.537 148.148 224.537 148.558C224.537 149.002 224.673 149.361 224.946 149.634C225.219 149.942 225.578 150.095 226.021 150.095H229.143V153.375C229.143 153.785 229.007 154.144 228.734 154.451C228.427 154.724 228.068 154.861 227.659 154.861H221.517C221.074 154.861 220.715 154.724 220.442 154.451C220.135 154.144 219.982 153.768 219.982 153.324V144.971C219.982 144.185 220.152 143.57 220.494 143.126L224.742 137.694C225.117 137.25 225.526 137.028 225.97 137.028H230.781C231.156 137.028 231.497 136.874 231.805 136.567C232.146 136.293 232.316 135.935 232.316 135.49C232.316 135.046 232.163 134.688 231.856 134.414C231.549 134.107 231.19 133.953 230.781 133.953H225.765C225.151 133.953 224.554 134.107 223.974 134.414C223.36 134.722 222.899 135.081 222.592 135.49L218.139 141.179C217.73 141.725 217.423 142.306 217.218 142.921V155.015C217.423 155.596 217.764 156.108 218.242 156.552ZM254.068 136.567C254.375 136.259 254.529 135.9 254.529 135.49C254.529 135.081 254.375 134.722 254.068 134.414C253.761 134.107 253.386 133.953 252.942 133.953H239.277V157.884H252.942C253.386 157.884 253.761 157.748 254.068 157.475C254.375 157.167 254.529 156.808 254.529 156.398C254.529 155.988 254.375 155.63 254.068 155.322C253.761 155.015 253.403 154.861 252.994 154.861H242.297V147.482H246.903C247.312 147.482 247.671 147.328 247.978 147.021C248.251 146.713 248.387 146.337 248.387 145.893C248.387 145.517 248.234 145.176 247.927 144.868C247.654 144.561 247.312 144.407 246.903 144.407H242.297V137.028H252.942C253.386 137.028 253.761 136.874 254.068 136.567ZM268.041 144.458C268.348 144.732 268.706 144.868 269.116 144.868C269.525 144.868 269.883 144.732 270.19 144.458C270.463 144.151 270.6 143.792 270.6 143.382V142.511L273.671 138.206V156.398C273.671 156.808 273.824 157.167 274.131 157.475C274.438 157.748 274.797 157.884 275.206 157.884C275.616 157.884 275.974 157.748 276.281 157.475C276.588 157.167 276.742 156.808 276.742 156.398V133.953H272.903L269.064 139.385L265.277 133.953H261.438V156.398C261.438 156.808 261.592 157.167 261.899 157.475C262.172 157.748 262.53 157.884 262.974 157.884C263.383 157.884 263.724 157.748 263.997 157.475C264.305 157.167 264.458 156.808 264.458 156.398V138.155L267.58 142.613V143.382C267.58 143.792 267.734 144.151 268.041 144.458ZM284.726 134.978C284.043 135.695 283.702 136.515 283.702 137.438C283.702 138.258 283.975 139.009 284.521 139.693L295.73 154.041C295.9 154.212 295.986 154.366 295.986 154.502C295.986 154.741 295.815 154.861 295.474 154.861H287.95C287.609 154.861 287.319 154.759 287.08 154.554C286.875 154.349 286.773 154.075 286.773 153.734C286.773 153.358 286.619 153.016 286.312 152.709C286.039 152.401 285.698 152.248 285.289 152.248C284.231 152.248 283.702 152.811 283.702 153.939C283.702 154.929 284.095 155.835 284.879 156.655C285.698 157.475 286.654 157.884 287.745 157.884H295.883C296.702 157.884 297.436 157.543 298.084 156.86C298.732 156.176 299.056 155.391 299.056 154.502C299.056 153.717 298.783 152.965 298.238 152.248L286.978 137.899C286.841 137.694 286.773 137.523 286.773 137.387C286.773 137.182 286.944 137.079 287.285 137.079H294.808C295.423 137.079 295.815 137.387 295.986 138.001C296.156 138.651 296.327 139.095 296.497 139.334C296.702 139.573 297.06 139.693 297.572 139.693C297.948 139.693 298.289 139.539 298.596 139.231C298.903 138.924 299.056 138.565 299.056 138.155C299.056 136.994 298.63 136.003 297.777 135.183C296.924 134.363 296.003 133.953 295.013 133.953H287.131C286.176 133.953 285.374 134.295 284.726 134.978ZM35.5765 134.927C35.3035 134.619 34.9452 134.466 34.5017 134.466C34.0922 134.466 33.751 134.619 33.478 134.927C33.171 135.234 33.0174 135.593 33.0174 136.003V140.974L28.4111 152.709L23.8048 140.974V136.003C23.8048 135.593 23.6684 135.234 23.3954 134.927C23.0883 134.619 22.73 134.466 22.3206 134.466C21.877 134.466 21.5187 134.619 21.2458 134.927C20.9387 135.234 20.7852 135.593 20.7852 136.003V141.589L26.8757 157.27C27.1828 158.021 27.6946 158.397 28.4111 158.397C29.0935 158.397 29.5883 158.021 29.8954 157.27L36.0371 141.589V136.003C36.0371 135.593 35.8836 135.234 35.5765 134.927ZM57.789 137.079C58.0961 136.772 58.2497 136.413 58.2497 136.003C58.2497 135.593 58.0961 135.234 57.789 134.927C57.482 134.619 57.1237 134.466 56.7142 134.466H42.9977V158.397H56.7142C57.1237 158.397 57.482 158.26 57.789 157.987C58.0961 157.679 58.2497 157.321 58.2497 156.911C58.2497 156.501 58.0961 156.142 57.789 155.835C57.5161 155.527 57.1749 155.373 56.7654 155.373H46.0174V147.994H50.6237C51.0331 147.994 51.3914 147.84 51.6985 147.533C52.0056 147.226 52.1591 146.85 52.1591 146.406C52.1591 146.03 52.0056 145.688 51.6985 145.381C51.3914 145.073 51.0331 144.92 50.6237 144.92H46.0174V137.54H56.7142C57.1237 137.54 57.482 137.387 57.789 137.079ZM65.6197 157.987C65.9268 158.26 66.2851 158.397 66.6946 158.397C67.104 158.397 67.4623 158.26 67.7693 157.987C68.0764 157.679 68.23 157.321 68.23 156.911V149.685L77.852 157.987C78.1932 158.26 78.5515 158.397 78.9268 158.397C79.3704 158.397 79.7457 158.243 80.0528 157.936C80.3258 157.594 80.4622 157.235 80.4622 156.86C80.4622 156.45 80.3258 156.125 80.0528 155.886L69.0489 146.354L80.0016 137.028C80.3428 136.755 80.4964 136.413 80.4622 136.003C80.4622 135.593 80.3258 135.234 80.0528 134.927C79.7798 134.619 79.4386 134.466 79.0292 134.466C78.6197 134.466 78.2444 134.602 77.9032 134.876L68.23 143.126V136.003C68.23 135.559 68.0764 135.2 67.7693 134.927C67.4623 134.619 67.104 134.466 66.6946 134.466C66.2851 134.466 65.9268 134.619 65.6197 134.927C65.3468 135.234 65.2103 135.593 65.2103 136.003V156.911C65.2103 157.321 65.3468 157.679 65.6197 157.987ZM87.474 156.86C87.474 157.304 87.6276 157.679 87.9347 157.987C88.2076 158.26 88.5659 158.397 89.0095 158.397C89.3166 158.397 89.6066 158.312 89.8796 158.141C90.1525 157.97 90.3061 157.799 90.3402 157.628L91.6709 153.221H98.6315L99.8087 157.321C100.013 158.038 100.525 158.397 101.344 158.397C101.685 158.397 102.009 158.26 102.317 157.987C102.59 157.679 102.726 157.321 102.726 156.911C102.726 156.774 102.709 156.62 102.675 156.45L96.5843 135.439C96.4137 134.79 95.953 134.466 95.2024 134.466C94.4517 134.466 93.957 134.841 93.7181 135.593L87.5764 156.296C87.5082 156.501 87.474 156.689 87.474 156.86ZM97.7103 150.147H92.5921L95.2024 141.486L97.7103 150.147ZM110.25 157.987C110.523 158.26 110.881 158.397 111.324 158.397C111.734 158.397 112.092 158.26 112.399 157.987C112.706 157.679 112.86 157.321 112.86 156.911V145.329H115.009L122.124 157.628C122.431 158.141 122.874 158.397 123.454 158.397C123.864 158.397 124.222 158.26 124.529 157.987C124.836 157.679 124.99 157.321 124.99 156.911C124.99 156.603 124.904 156.296 124.734 155.988L118.541 145.329H120.486C121.714 145.329 122.772 144.885 123.659 143.997C124.546 143.109 124.99 142.033 124.99 140.769V139.026C124.99 137.796 124.546 136.72 123.659 135.798C122.772 134.91 121.714 134.466 120.486 134.466H109.789V156.911C109.789 157.321 109.943 157.679 110.25 157.987ZM112.86 137.54H120.486C120.895 137.54 121.254 137.677 121.561 137.95C121.834 138.258 121.97 138.616 121.97 139.026V140.82C121.97 141.23 121.834 141.589 121.561 141.896C121.254 142.169 120.895 142.306 120.486 142.306H112.86V137.54ZM132.462 134.927C132.155 135.234 132.002 135.61 132.002 136.054C132.002 136.464 132.155 136.823 132.462 137.13C132.735 137.404 133.093 137.54 133.537 137.54H138.143V155.425H133.537C133.093 155.425 132.735 155.561 132.462 155.835C132.155 156.142 132.002 156.501 132.002 156.911C132.002 157.355 132.155 157.714 132.462 157.987C132.735 158.294 133.093 158.448 133.537 158.448H145.769C146.179 158.448 146.537 158.294 146.844 157.987C147.117 157.714 147.253 157.355 147.253 156.911C147.253 156.501 147.117 156.142 146.844 155.835C146.537 155.561 146.179 155.425 145.769 155.425H141.163V137.54H145.769C146.179 137.54 146.52 137.387 146.793 137.079C147.1 136.772 147.253 136.413 147.253 136.003C147.253 135.593 147.1 135.234 146.793 134.927C146.486 134.653 146.145 134.517 145.769 134.517H133.537C133.093 134.517 132.735 134.653 132.462 134.927ZM169.568 139.231V136.054C169.568 135.576 169.415 135.2 169.108 134.927C168.801 134.653 168.442 134.517 168.033 134.517C167.624 134.517 167.282 134.653 167.009 134.927C166.702 135.234 166.549 135.593 166.549 136.003V138.104L161.891 143.997L157.336 138.155V136.054C157.336 135.644 157.183 135.285 156.876 134.978C156.568 134.671 156.21 134.517 155.801 134.517C155.357 134.517 154.999 134.653 154.726 134.927C154.419 135.234 154.265 135.61 154.265 136.054V139.231L160.407 146.969V156.911C160.407 157.355 160.543 157.714 160.816 157.987C161.124 158.294 161.499 158.448 161.942 158.448C162.352 158.448 162.71 158.294 163.017 157.987C163.29 157.714 163.427 157.355 163.427 156.911V146.969L169.568 139.231ZM176.529 156.86C176.529 157.304 176.666 157.679 176.938 157.987C177.246 158.294 177.621 158.448 178.064 158.448C178.372 158.448 178.662 158.363 178.935 158.192C179.208 157.987 179.361 157.799 179.395 157.628L180.675 153.221H187.635L188.864 157.321C189.068 158.072 189.563 158.448 190.348 158.448C190.723 158.448 191.047 158.294 191.32 157.987C191.627 157.679 191.781 157.321 191.781 156.911C191.781 156.774 191.747 156.62 191.679 156.45L185.639 135.439C185.435 134.79 184.974 134.466 184.257 134.466C183.473 134.466 182.961 134.858 182.722 135.644L176.631 156.347C176.563 156.518 176.529 156.689 176.529 156.86ZM186.765 150.147H181.596L184.206 141.486L186.765 150.147Z" fill="#00A0E3"/>
<path d="M35.3183 135.082V140.667L29.1766 156.348C28.8695 157.1 28.3748 157.476 27.6924 157.476C26.9758 157.476 26.464 157.1 26.1569 156.348L20.0664 140.667V135.082C20.0664 134.672 20.2029 134.313 20.4758 134.006C20.7829 133.698 21.1583 133.544 21.6018 133.544C22.0113 133.544 22.3696 133.698 22.6766 134.006C22.9496 134.279 23.0861 134.638 23.0861 135.082V140.001L27.6924 151.788L32.2987 140.053V135.082C32.2987 134.672 32.4351 134.313 32.7081 134.006C33.0152 133.698 33.3735 133.544 33.7829 133.544C34.2265 133.544 34.5848 133.698 34.8577 134.006C35.1648 134.313 35.3183 134.672 35.3183 135.082ZM55.9955 136.619H45.2987V143.998H49.9049C50.3144 143.998 50.6727 144.135 50.9797 144.408C51.2868 144.716 51.4404 145.075 51.4404 145.484C51.4404 145.929 51.2868 146.304 50.9797 146.612C50.6727 146.885 50.3144 147.022 49.9049 147.022H45.2987V154.452H56.0467C56.422 154.452 56.7632 154.606 57.0703 154.914C57.3774 155.187 57.5309 155.546 57.5309 155.99C57.5309 156.4 57.3774 156.758 57.0703 157.066C56.7632 157.339 56.4049 157.476 55.9955 157.476H42.279V133.544H55.9955C56.4049 133.544 56.7632 133.698 57.0703 134.006C57.3774 134.313 57.5309 134.672 57.5309 135.082C57.5309 135.492 57.3774 135.85 57.0703 136.158C56.7632 136.465 56.4049 136.619 55.9955 136.619ZM64.4404 155.99V135.082C64.4404 134.672 64.5939 134.313 64.901 134.006C65.2081 133.698 65.5663 133.544 65.9758 133.544C66.3852 133.544 66.7435 133.698 67.0506 134.006C67.3236 134.279 67.46 134.621 67.46 135.031V142.205L77.1844 133.954C77.4915 133.681 77.8669 133.544 78.3104 133.544C78.7199 133.544 79.0611 133.698 79.334 134.006C79.607 134.313 79.7435 134.672 79.7435 135.082C79.7776 135.492 79.6241 135.833 79.2829 136.107L68.3301 145.433L79.334 154.914C79.607 155.187 79.7435 155.528 79.7435 155.938C79.7435 156.314 79.607 156.673 79.334 157.015C79.027 157.322 78.6516 157.476 78.2081 157.476C77.7986 157.476 77.4403 157.339 77.1333 157.066L67.46 148.713V155.99C67.46 156.4 67.3236 156.758 67.0506 157.066C66.7435 157.339 66.3852 157.476 65.9758 157.476C65.5663 157.476 65.2081 157.339 64.901 157.066C64.5939 156.758 64.4404 156.4 64.4404 155.99ZM86.8577 155.375L92.9994 134.672C93.2382 133.92 93.733 133.544 94.4836 133.544C95.2002 133.544 95.6608 133.869 95.8655 134.518L101.956 155.528C101.99 155.665 102.007 155.819 102.007 155.99C102.007 156.4 101.871 156.758 101.598 157.066C101.291 157.339 100.95 157.476 100.574 157.476C99.7894 157.476 99.2946 157.117 99.0899 156.4L97.8616 152.3H90.9521L89.6214 156.656C89.5873 156.861 89.4338 157.049 89.1608 157.22C88.8878 157.39 88.5978 157.476 88.2907 157.476C87.8472 157.476 87.4889 157.322 87.2159 157.015C86.9088 156.741 86.7553 156.383 86.7553 155.938C86.7553 155.768 86.7894 155.58 86.8577 155.375ZM94.4324 140.565L91.8734 149.225H96.9915L94.4324 140.565ZM109.07 155.99V133.544H119.767C120.995 133.544 122.053 133.989 122.94 134.877C123.827 135.799 124.271 136.875 124.271 138.105V139.848C124.271 141.112 123.827 142.188 122.94 143.076C122.053 143.964 120.995 144.408 119.767 144.408H117.822L123.964 155.067C124.169 155.375 124.271 155.682 124.271 155.99C124.271 156.4 124.117 156.758 123.81 157.066C123.503 157.339 123.145 157.476 122.736 157.476C122.156 157.476 121.695 157.22 121.354 156.707L114.291 144.408H112.141V155.99C112.141 156.4 111.988 156.758 111.68 157.066C111.373 157.339 110.998 157.476 110.554 157.476C110.145 157.476 109.787 157.339 109.48 157.066C109.207 156.758 109.07 156.4 109.07 155.99ZM112.141 141.385H119.767C120.177 141.385 120.535 141.248 120.842 140.975C121.115 140.667 121.251 140.309 121.251 139.899V138.105C121.251 137.695 121.115 137.337 120.842 137.029C120.535 136.756 120.177 136.619 119.767 136.619H112.141V141.385ZM132.767 133.493H144.999C145.409 133.493 145.767 133.647 146.074 133.954C146.381 134.262 146.535 134.621 146.535 135.031C146.535 135.44 146.381 135.799 146.074 136.107C145.767 136.414 145.409 136.568 144.999 136.568H140.393V154.452H144.999C145.443 154.452 145.801 154.589 146.074 154.862C146.381 155.17 146.535 155.528 146.535 155.938C146.535 156.348 146.381 156.707 146.074 157.015C145.767 157.322 145.409 157.476 144.999 157.476H132.767C132.358 157.476 132.016 157.322 131.743 157.015C131.436 156.707 131.283 156.348 131.283 155.938C131.283 155.528 131.419 155.17 131.692 154.862C131.999 154.589 132.358 154.452 132.767 154.452H137.373V136.568H132.767C132.358 136.568 131.999 136.414 131.692 136.107C131.419 135.833 131.283 135.492 131.283 135.082C131.283 134.638 131.436 134.262 131.743 133.954C132.016 133.647 132.358 133.493 132.767 133.493ZM162.708 145.946V155.938C162.708 156.348 162.554 156.707 162.247 157.015C161.94 157.322 161.599 157.476 161.224 157.476C160.78 157.476 160.405 157.322 160.098 157.015C159.791 156.707 159.637 156.348 159.637 155.938V145.997L153.547 138.259V135.082C153.547 134.638 153.683 134.262 153.956 133.954C154.263 133.647 154.621 133.493 155.031 133.493C155.474 133.493 155.85 133.664 156.157 134.006C156.464 134.313 156.617 134.672 156.617 135.082V137.183L161.173 143.025L165.83 137.132V135.031C165.83 134.621 165.966 134.262 166.239 133.954C166.547 133.681 166.905 133.527 167.314 133.493C167.724 133.493 168.082 133.647 168.389 133.954C168.696 134.228 168.85 134.603 168.85 135.082V138.259L162.708 145.946ZM175.81 155.323L181.952 134.621C182.191 133.869 182.686 133.493 183.436 133.493C184.187 133.493 184.648 133.801 184.818 134.416L190.909 155.477C190.977 155.614 191.011 155.751 191.011 155.887C191.011 156.331 190.858 156.69 190.55 156.963C190.277 157.271 189.953 157.425 189.578 157.425C188.793 157.425 188.281 157.049 188.043 156.297L186.865 152.198H179.905L178.574 156.605C178.54 156.81 178.403 156.997 178.165 157.168C177.892 157.339 177.585 157.425 177.243 157.425C176.834 157.425 176.476 157.271 176.169 156.963C175.896 156.656 175.742 156.297 175.708 155.887C175.708 155.682 175.742 155.494 175.81 155.323ZM183.436 140.462L180.826 149.174H185.944L183.436 140.462Z" fill="#00A0E3"/>
<path d="M35.3183 135.082V140.667L29.1766 156.348C28.8695 157.1 28.3748 157.476 27.6924 157.476C26.9758 157.476 26.464 157.1 26.1569 156.348L20.0664 140.667V135.082C20.0664 134.672 20.2029 134.313 20.4758 134.006C20.7829 133.698 21.1583 133.544 21.6018 133.544C22.0113 133.544 22.3696 133.698 22.6766 134.006C22.9496 134.279 23.0861 134.638 23.0861 135.082V140.001L27.6924 151.788L32.2987 140.053V135.082C32.2987 134.672 32.4351 134.313 32.7081 134.006C33.0152 133.698 33.3735 133.544 33.7829 133.544C34.2265 133.544 34.5848 133.698 34.8577 134.006C35.1648 134.313 35.3183 134.672 35.3183 135.082ZM55.9955 136.619H45.2987V143.998H49.9049C50.3144 143.998 50.6727 144.135 50.9797 144.408C51.2868 144.716 51.4404 145.075 51.4404 145.484C51.4404 145.929 51.2868 146.304 50.9797 146.612C50.6727 146.885 50.3144 147.022 49.9049 147.022H45.2987V154.452H56.0467C56.422 154.452 56.7632 154.606 57.0703 154.914C57.3774 155.187 57.5309 155.546 57.5309 155.99C57.5309 156.4 57.3774 156.758 57.0703 157.066C56.7632 157.339 56.4049 157.476 55.9955 157.476H42.279V133.544H55.9955C56.4049 133.544 56.7632 133.698 57.0703 134.006C57.3774 134.313 57.5309 134.672 57.5309 135.082C57.5309 135.492 57.3774 135.85 57.0703 136.158C56.7632 136.465 56.4049 136.619 55.9955 136.619ZM64.4404 155.99V135.082C64.4404 134.672 64.5939 134.313 64.901 134.006C65.2081 133.698 65.5663 133.544 65.9758 133.544C66.3852 133.544 66.7435 133.698 67.0506 134.006C67.3236 134.279 67.46 134.621 67.46 135.031V142.205L77.1844 133.954C77.4915 133.681 77.8669 133.544 78.3104 133.544C78.7199 133.544 79.0611 133.698 79.334 134.006C79.607 134.313 79.7435 134.672 79.7435 135.082C79.7776 135.492 79.6241 135.833 79.2829 136.107L68.3301 145.433L79.334 154.914C79.607 155.187 79.7435 155.528 79.7435 155.938C79.7435 156.314 79.607 156.673 79.334 157.015C79.027 157.322 78.6516 157.476 78.2081 157.476C77.7986 157.476 77.4403 157.339 77.1333 157.066L67.46 148.713V155.99C67.46 156.4 67.3236 156.758 67.0506 157.066C66.7435 157.339 66.3852 157.476 65.9758 157.476C65.5663 157.476 65.2081 157.339 64.901 157.066C64.5939 156.758 64.4404 156.4 64.4404 155.99ZM86.8577 155.375L92.9994 134.672C93.2382 133.92 93.733 133.544 94.4836 133.544C95.2002 133.544 95.6608 133.869 95.8655 134.518L101.956 155.528C101.99 155.665 102.007 155.819 102.007 155.99C102.007 156.4 101.871 156.758 101.598 157.066C101.291 157.339 100.95 157.476 100.574 157.476C99.7894 157.476 99.2946 157.117 99.0899 156.4L97.8616 152.3H90.9521L89.6214 156.656C89.5873 156.861 89.4338 157.049 89.1608 157.22C88.8878 157.39 88.5978 157.476 88.2907 157.476C87.8472 157.476 87.4889 157.322 87.2159 157.015C86.9088 156.741 86.7553 156.383 86.7553 155.938C86.7553 155.768 86.7894 155.58 86.8577 155.375ZM94.4324 140.565L91.8734 149.225H96.9915L94.4324 140.565ZM109.07 155.99V133.544H119.767C120.995 133.544 122.053 133.989 122.94 134.877C123.827 135.799 124.271 136.875 124.271 138.105V139.848C124.271 141.112 123.827 142.188 122.94 143.076C122.053 143.964 120.995 144.408 119.767 144.408H117.822L123.964 155.067C124.169 155.375 124.271 155.682 124.271 155.99C124.271 156.4 124.117 156.758 123.81 157.066C123.503 157.339 123.145 157.476 122.736 157.476C122.156 157.476 121.695 157.22 121.354 156.707L114.291 144.408H112.141V155.99C112.141 156.4 111.988 156.758 111.68 157.066C111.373 157.339 110.998 157.476 110.554 157.476C110.145 157.476 109.787 157.339 109.48 157.066C109.207 156.758 109.07 156.4 109.07 155.99ZM112.141 141.385H119.767C120.177 141.385 120.535 141.248 120.842 140.975C121.115 140.667 121.251 140.309 121.251 139.899V138.105C121.251 137.695 121.115 137.337 120.842 137.029C120.535 136.756 120.177 136.619 119.767 136.619H112.141V141.385ZM132.767 133.493H144.999C145.409 133.493 145.767 133.647 146.074 133.954C146.381 134.262 146.535 134.621 146.535 135.031C146.535 135.44 146.381 135.799 146.074 136.107C145.767 136.414 145.409 136.568 144.999 136.568H140.393V154.452H144.999C145.443 154.452 145.801 154.589 146.074 154.862C146.381 155.17 146.535 155.528 146.535 155.938C146.535 156.348 146.381 156.707 146.074 157.015C145.767 157.322 145.409 157.476 144.999 157.476H132.767C132.358 157.476 132.016 157.322 131.743 157.015C131.436 156.707 131.283 156.348 131.283 155.938C131.283 155.528 131.419 155.17 131.692 154.862C131.999 154.589 132.358 154.452 132.767 154.452H137.373V136.568H132.767C132.358 136.568 131.999 136.414 131.692 136.107C131.419 135.833 131.283 135.492 131.283 135.082C131.283 134.638 131.436 134.262 131.743 133.954C132.016 133.647 132.358 133.493 132.767 133.493ZM162.708 145.946V155.938C162.708 156.348 162.554 156.707 162.247 157.015C161.94 157.322 161.599 157.476 161.224 157.476C160.78 157.476 160.405 157.322 160.098 157.015C159.791 156.707 159.637 156.348 159.637 155.938V145.997L153.547 138.259V135.082C153.547 134.638 153.683 134.262 153.956 133.954C154.263 133.647 154.621 133.493 155.031 133.493C155.474 133.493 155.85 133.664 156.157 134.006C156.464 134.313 156.617 134.672 156.617 135.082V137.183L161.173 143.025L165.83 137.132V135.031C165.83 134.621 165.966 134.262 166.239 133.954C166.547 133.681 166.905 133.527 167.314 133.493C167.724 133.493 168.082 133.647 168.389 133.954C168.696 134.228 168.85 134.603 168.85 135.082V138.259L162.708 145.946ZM175.81 155.323L181.952 134.621C182.191 133.869 182.686 133.493 183.436 133.493C184.187 133.493 184.648 133.801 184.818 134.416L190.909 155.477C190.977 155.614 191.011 155.751 191.011 155.887C191.011 156.331 190.858 156.69 190.55 156.963C190.277 157.271 189.953 157.425 189.578 157.425C188.793 157.425 188.281 157.049 188.043 156.297L186.865 152.198H179.905L178.574 156.605C178.54 156.81 178.403 156.997 178.165 157.168C177.892 157.339 177.585 157.425 177.243 157.425C176.834 157.425 176.476 157.271 176.169 156.963C175.896 156.656 175.742 156.297 175.708 155.887C175.708 155.682 175.742 155.494 175.81 155.323ZM183.436 140.462L180.826 149.174H185.944L183.436 140.462Z" fill="#393185"/>
<path d="M41.9805 174.233V165.47H43.6695C44.9319 165.47 45.819 165.521 46.3309 165.624C46.8427 165.76 47.2862 165.982 47.6616 166.29C48.1734 166.666 48.5487 167.161 48.7876 167.776C49.0605 168.357 49.197 169.057 49.197 169.877C49.197 170.629 49.0605 171.312 48.7876 171.927C48.5487 172.542 48.1734 173.037 47.6616 173.413C47.2862 173.72 46.8427 173.942 46.3309 174.079C45.8532 174.182 45.1025 174.233 44.0789 174.233H43.6695H41.9805ZM43.0553 173.259H43.7206C44.8125 173.259 45.5631 173.208 45.9726 173.105C46.382 173.003 46.7233 172.849 46.9962 172.644C47.3715 172.337 47.6445 171.944 47.8151 171.466C48.0198 170.987 48.1222 170.441 48.1222 169.826C48.1222 169.211 48.0198 168.681 47.8151 168.237C47.6445 167.759 47.3715 167.366 46.9962 167.058C46.7233 166.819 46.365 166.649 45.9214 166.546C45.512 166.478 44.7784 166.444 43.7206 166.444H43.0553V173.259ZM50.6301 166.085C50.6301 165.88 50.6983 165.709 50.8348 165.572C50.9713 165.436 51.1419 165.367 51.3466 165.367C51.5172 165.367 51.6707 165.436 51.8072 165.572C51.9437 165.709 52.012 165.88 52.012 166.085C52.012 166.29 51.9437 166.444 51.8072 166.546C51.6707 166.683 51.5172 166.751 51.3466 166.751C51.1419 166.751 50.9713 166.683 50.8348 166.546C50.6983 166.444 50.6301 166.29 50.6301 166.085ZM50.8348 174.233V168.698H51.8072V174.233H50.8348ZM58.8702 168.698V174.233H57.949V173.208C57.7442 173.618 57.4713 173.925 57.1301 174.13C56.7888 174.335 56.3965 174.438 55.9529 174.438C55.1681 174.438 54.5369 174.164 54.0592 173.618C53.5815 173.105 53.3427 172.388 53.3427 171.466C53.3427 170.577 53.5815 169.86 54.0592 169.313C54.5028 168.801 55.1169 168.545 55.9017 168.545C56.3794 168.545 56.7888 168.647 57.1301 168.852C57.4713 169.057 57.7442 169.365 57.949 169.774V168.698H58.8702ZM57.949 171.517C57.949 170.902 57.7784 170.406 57.4371 170.031C57.0959 169.655 56.6524 169.467 56.1064 169.467C55.5605 169.467 55.1169 169.638 54.7757 169.979C54.4686 170.321 54.3151 170.816 54.3151 171.466C54.3151 172.115 54.4686 172.627 54.7757 173.003C55.1169 173.345 55.5776 173.515 56.1576 173.515C56.7035 173.515 57.1471 173.345 57.4883 173.003C57.7954 172.661 57.949 172.166 57.949 171.517ZM68.3899 174.233V171.004C68.3899 170.424 68.2705 169.997 68.0316 169.723C67.7928 169.45 67.4516 169.313 67.008 169.313C66.7691 169.313 66.5303 169.365 66.2915 169.467C66.0867 169.57 65.9161 169.723 65.7796 169.928C65.6773 170.065 65.592 170.236 65.5237 170.441C65.4896 170.611 65.4726 170.919 65.4726 171.363V174.233H64.5513V171.004C64.5513 170.424 64.4319 169.997 64.193 169.723C63.9883 169.45 63.6471 169.313 63.1694 169.313C62.9306 169.313 62.7088 169.365 62.5041 169.467C62.2652 169.57 62.0776 169.723 61.9411 169.928C61.8387 170.065 61.7534 170.219 61.6852 170.389C61.651 170.594 61.634 170.919 61.634 171.363V174.233H60.7127V168.698H61.634V169.57C61.8728 169.228 62.1458 168.972 62.4529 168.801C62.76 168.63 63.1353 168.545 63.5789 168.545C64.0224 168.545 64.3978 168.63 64.7048 168.801C65.0119 169.006 65.2508 169.279 65.4214 169.621C65.6261 169.245 65.8991 168.972 66.2403 168.801C66.5474 168.63 66.9227 168.545 67.3663 168.545C67.9804 168.545 68.4581 168.715 68.7993 169.057C69.1405 169.399 69.3111 169.877 69.3111 170.492V174.233H68.3899ZM70.693 171.466C70.693 171.09 70.7783 170.714 70.9489 170.338C71.0854 169.997 71.2901 169.672 71.5631 169.365C71.8702 169.091 72.1943 168.886 72.5355 168.75C72.9109 168.613 73.3033 168.545 73.7127 168.545C74.1222 168.545 74.4975 168.613 74.8387 168.75C75.214 168.886 75.5382 169.108 75.8111 169.416C76.0841 169.689 76.3059 169.997 76.4765 170.338C76.613 170.714 76.6812 171.09 76.6812 171.466C76.6812 171.876 76.613 172.268 76.4765 172.644C76.3059 172.986 76.0841 173.293 75.8111 173.567C75.5382 173.84 75.214 174.062 74.8387 174.233C74.4634 174.369 74.088 174.438 73.7127 174.438C73.3033 174.438 72.9109 174.369 72.5355 174.233C72.1943 174.096 71.8702 173.874 71.5631 173.567C71.2901 173.293 71.0854 172.986 70.9489 172.644C70.7783 172.268 70.693 171.876 70.693 171.466ZM71.7166 171.466C71.7166 172.046 71.9043 172.542 72.2796 172.952C72.6891 173.362 73.1668 173.567 73.7127 173.567C74.2586 173.567 74.7193 173.362 75.0946 172.952C75.4699 172.542 75.6576 172.046 75.6576 171.466C75.6576 170.885 75.4699 170.406 75.0946 170.031C74.7193 169.621 74.2586 169.416 73.7127 169.416C73.1668 169.416 72.6891 169.621 72.2796 170.031C71.9043 170.406 71.7166 170.885 71.7166 171.466ZM78.1655 174.233V168.698H79.0867V169.57C79.3256 169.228 79.5985 168.972 79.9056 168.801C80.2468 168.63 80.6392 168.545 81.0828 168.545C81.7311 168.545 82.2258 168.715 82.567 169.057C82.9424 169.399 83.13 169.877 83.13 170.492V174.233H82.1576V171.004C82.1576 170.424 82.0552 169.997 81.8505 169.723C81.6116 169.45 81.2363 169.313 80.7245 169.313C80.4515 169.313 80.1956 169.365 79.9568 169.467C79.7521 169.57 79.5644 169.723 79.3938 169.928C79.2914 170.065 79.2061 170.236 79.1379 170.441C79.1038 170.611 79.0867 170.919 79.0867 171.363V174.233H78.1655ZM90.0906 164.906V174.233H89.2206V173.208C88.9817 173.618 88.6917 173.925 88.3505 174.13C88.0093 174.335 87.6339 174.438 87.2245 174.438C86.4397 174.438 85.8085 174.164 85.3308 173.618C84.819 173.105 84.5631 172.388 84.5631 171.466C84.5631 170.577 84.8019 169.86 85.2796 169.313C85.7573 168.801 86.3885 168.545 87.1733 168.545C87.6169 168.545 88.0093 168.647 88.3505 168.852C88.6917 169.057 88.9647 169.365 89.1694 169.774V164.906H90.0906ZM89.1694 171.517C89.1694 170.902 88.9988 170.406 88.6576 170.031C88.3505 169.655 87.9069 169.467 87.3269 169.467C86.7809 169.467 86.3544 169.638 86.0473 169.979C85.7402 170.321 85.5867 170.782 85.5867 171.363C85.5867 172.046 85.7402 172.576 86.0473 172.952C86.3544 173.362 86.7809 173.567 87.3269 173.567C87.9069 173.567 88.3675 173.379 88.7088 173.003C89.0158 172.627 89.1694 172.132 89.1694 171.517ZM99.815 174.54L97.1024 168.237L95.9764 174.233H94.9528L96.7442 165.06L99.815 172.337L102.886 165.06L104.677 174.233H103.654L102.528 168.237L99.815 174.54ZM111.024 168.698V174.182H110.154V173.208C109.915 173.618 109.625 173.925 109.284 174.13C108.942 174.335 108.567 174.438 108.158 174.438C107.373 174.438 106.724 174.164 106.213 173.618C105.735 173.071 105.496 172.354 105.496 171.466C105.496 170.577 105.735 169.86 106.213 169.313C106.69 168.767 107.322 168.493 108.106 168.493C108.55 168.493 108.942 168.596 109.284 168.801C109.625 169.006 109.898 169.313 110.102 169.723V168.698H111.024ZM110.102 171.517C110.102 170.902 109.932 170.406 109.591 170.031C109.284 169.655 108.857 169.467 108.311 169.467C107.731 169.467 107.287 169.638 106.98 169.979C106.673 170.321 106.52 170.799 106.52 171.414C106.52 172.098 106.673 172.61 106.98 172.952C107.287 173.327 107.731 173.515 108.311 173.515C108.891 173.515 109.335 173.345 109.642 173.003C109.949 172.627 110.102 172.132 110.102 171.517ZM112.917 174.182V168.698H113.839V169.57C114.077 169.194 114.35 168.92 114.658 168.75C114.999 168.579 115.391 168.493 115.835 168.493C116.483 168.493 116.995 168.664 117.37 169.006C117.711 169.382 117.882 169.86 117.882 170.441V174.182H116.961V170.953C116.961 170.406 116.841 169.997 116.602 169.723C116.364 169.45 116.005 169.313 115.528 169.313C115.221 169.313 114.965 169.365 114.76 169.467C114.521 169.57 114.316 169.723 114.146 169.928C114.043 170.065 113.975 170.219 113.941 170.389C113.873 170.594 113.839 170.919 113.839 171.363V174.182H112.917ZM120.646 168.698V171.414C120.646 172.2 120.765 172.747 121.004 173.054C121.243 173.396 121.635 173.567 122.181 173.567C122.727 173.567 123.119 173.396 123.358 173.054C123.597 172.747 123.717 172.2 123.717 171.414V168.698H124.689V171.927C124.689 172.747 124.467 173.379 124.024 173.823C123.614 174.233 123 174.438 122.181 174.438C121.362 174.438 120.731 174.233 120.287 173.823C119.878 173.379 119.673 172.747 119.673 171.927V168.698H120.646ZM126.736 174.182V169.467H125.661V168.698H126.736V167.11C126.736 166.187 126.839 165.572 127.043 165.265C127.282 164.957 127.709 164.804 128.323 164.804C128.459 164.804 128.596 164.804 128.732 164.804C128.869 164.838 128.988 164.872 129.091 164.906V165.88C128.988 165.812 128.869 165.76 128.732 165.726C128.63 165.692 128.511 165.675 128.374 165.675C128.101 165.675 127.913 165.76 127.811 165.931C127.709 166.102 127.658 166.546 127.658 167.263V168.698H129.091V169.467H127.658V174.182H126.736ZM135.181 168.698V174.182H134.26V173.208C134.055 173.618 133.765 173.925 133.39 174.13C133.049 174.335 132.673 174.438 132.264 174.438C131.479 174.438 130.848 174.164 130.37 173.618C129.892 173.071 129.654 172.354 129.654 171.466C129.654 170.577 129.875 169.86 130.319 169.313C130.797 168.767 131.428 168.493 132.213 168.493C132.69 168.493 133.083 168.596 133.39 168.801C133.731 169.006 134.004 169.313 134.209 169.723V168.698H135.181ZM134.311 171.517C134.311 170.902 134.14 170.406 133.799 170.031C133.458 169.655 133.014 169.467 132.469 169.467C131.888 169.467 131.445 169.638 131.138 169.979C130.831 170.321 130.677 170.799 130.677 171.414C130.677 172.098 130.831 172.61 131.138 172.952C131.479 173.327 131.94 173.515 132.52 173.515C133.066 173.515 133.492 173.345 133.799 173.003C134.14 172.627 134.311 172.132 134.311 171.517ZM141.272 172.9V173.977C141.033 174.147 140.76 174.267 140.453 174.335C140.146 174.404 139.804 174.438 139.429 174.438C138.61 174.438 137.928 174.164 137.382 173.618C136.87 173.105 136.614 172.405 136.614 171.517C136.614 170.629 136.887 169.911 137.433 169.365C137.979 168.784 138.661 168.493 139.48 168.493C139.787 168.493 140.095 168.528 140.402 168.596C140.675 168.664 140.948 168.767 141.22 168.903V169.877C140.982 169.74 140.726 169.638 140.453 169.57C140.214 169.467 139.958 169.416 139.685 169.416C139.071 169.416 138.576 169.604 138.201 169.979C137.825 170.389 137.638 170.902 137.638 171.517C137.638 172.098 137.825 172.576 138.201 172.952C138.576 173.327 139.037 173.515 139.583 173.515C139.89 173.515 140.18 173.464 140.453 173.362C140.726 173.259 140.999 173.105 141.272 172.9ZM142.756 169.467H141.732V168.698H142.756V166.495H143.728V168.698H144.701V169.467H143.728V174.182H142.756V169.467ZM146.646 168.698V171.414C146.646 172.2 146.765 172.747 147.004 173.054C147.243 173.396 147.635 173.567 148.181 173.567C148.761 173.567 149.154 173.413 149.358 173.105C149.597 172.764 149.717 172.2 149.717 171.414V168.698H150.689V171.927C150.689 172.747 150.467 173.379 150.024 173.823C149.614 174.233 149 174.438 148.181 174.438C147.362 174.438 146.748 174.233 146.339 173.823C145.895 173.379 145.673 172.747 145.673 171.927V168.698H146.646ZM152.48 174.233V168.698H153.35V169.877C153.589 169.399 153.845 169.057 154.118 168.852C154.425 168.647 154.783 168.545 155.193 168.545C155.295 168.545 155.398 168.545 155.5 168.545C155.602 168.579 155.705 168.613 155.807 168.647L155.5 169.467C155.398 169.433 155.295 169.416 155.193 169.416C155.091 169.382 155.005 169.365 154.937 169.365C154.425 169.365 154.05 169.552 153.811 169.928C153.572 170.27 153.453 170.799 153.453 171.517V174.233H152.48ZM161.642 171.619H157.291V171.671C157.291 172.285 157.462 172.764 157.803 173.105C158.144 173.481 158.588 173.669 159.134 173.669C159.509 173.669 159.833 173.567 160.106 173.362C160.413 173.157 160.686 172.866 160.925 172.49L161.642 172.952C161.369 173.43 161.01 173.806 160.567 174.079C160.157 174.318 159.663 174.438 159.083 174.438C158.23 174.438 157.547 174.164 157.035 173.618C156.524 173.071 156.268 172.354 156.268 171.466C156.268 170.577 156.524 169.86 157.035 169.313C157.547 168.767 158.213 168.493 159.031 168.493C159.85 168.493 160.482 168.767 160.925 169.313C161.403 169.826 161.642 170.526 161.642 171.414V171.619ZM160.669 170.851C160.635 170.372 160.465 169.997 160.157 169.723C159.884 169.484 159.492 169.365 158.98 169.365C158.537 169.365 158.161 169.501 157.854 169.774C157.547 170.048 157.36 170.407 157.291 170.851H160.669ZM163.126 174.233V168.75H163.945V169.877C164.218 169.399 164.491 169.057 164.764 168.852C165.037 168.647 165.378 168.545 165.787 168.545C165.924 168.545 166.043 168.562 166.146 168.596C166.248 168.596 166.35 168.613 166.453 168.647L166.146 169.518C166.009 169.484 165.907 169.45 165.839 169.416C165.736 169.416 165.634 169.416 165.531 169.416C165.054 169.416 164.678 169.587 164.405 169.928C164.167 170.304 164.047 170.851 164.047 171.568V174.233H163.126ZM165.941 175.975L167.118 172.695L168.142 173.054L166.657 176.231L165.941 175.975ZM173.516 174.233V165.47H174.59V174.233H173.516ZM184.213 174.233V171.004C184.213 170.458 184.093 170.048 183.854 169.774C183.65 169.501 183.308 169.365 182.831 169.365C182.592 169.365 182.37 169.416 182.165 169.518C181.926 169.621 181.739 169.757 181.602 169.928C181.5 170.099 181.415 170.27 181.346 170.441C181.312 170.646 181.295 170.97 181.295 171.414V174.233H180.374V171.004C180.374 170.458 180.272 170.048 180.067 169.774C179.828 169.501 179.487 169.365 179.043 169.365C178.77 169.365 178.531 169.416 178.327 169.518C178.088 169.621 177.9 169.757 177.764 169.928C177.661 170.099 177.593 170.27 177.559 170.441C177.491 170.611 177.457 170.936 177.457 171.414V174.233H176.587V168.75H177.508V169.621C177.713 169.245 177.986 168.972 178.327 168.801C178.634 168.63 178.992 168.545 179.402 168.545C179.845 168.545 180.22 168.647 180.527 168.852C180.835 169.023 181.073 169.296 181.244 169.672C181.483 169.296 181.756 169.023 182.063 168.852C182.404 168.647 182.779 168.545 183.189 168.545C183.803 168.545 184.281 168.715 184.622 169.057C184.963 169.399 185.134 169.877 185.134 170.492V174.233H184.213ZM186.976 176.949V168.75H187.898V169.774C188.102 169.399 188.375 169.091 188.716 168.852C189.092 168.647 189.484 168.545 189.894 168.545C190.678 168.545 191.31 168.818 191.787 169.365C192.265 169.911 192.504 170.629 192.504 171.517C192.504 172.439 192.282 173.157 191.839 173.669C191.361 174.216 190.73 174.489 189.945 174.489C189.501 174.489 189.109 174.387 188.768 174.182C188.426 173.977 188.153 173.669 187.949 173.259V176.949H186.976ZM187.846 171.517C187.846 172.132 188.017 172.627 188.358 173.003C188.699 173.379 189.16 173.567 189.74 173.567C190.286 173.567 190.713 173.396 191.02 173.054C191.327 172.713 191.48 172.234 191.48 171.619C191.48 170.936 191.327 170.406 191.02 170.031C190.713 169.655 190.269 169.467 189.689 169.467C189.143 169.467 188.699 169.655 188.358 170.031C188.017 170.372 187.846 170.868 187.846 171.517ZM193.527 171.517C193.527 171.107 193.613 170.731 193.783 170.389C193.92 170.014 194.125 169.689 194.398 169.416C194.705 169.142 195.029 168.92 195.37 168.75C195.745 168.613 196.138 168.545 196.547 168.545C196.923 168.545 197.298 168.613 197.673 168.75C198.014 168.92 198.339 169.142 198.646 169.416C198.919 169.689 199.14 170.014 199.311 170.389C199.447 170.731 199.516 171.107 199.516 171.517C199.516 171.927 199.447 172.303 199.311 172.644C199.14 172.986 198.919 173.293 198.646 173.567C198.339 173.874 198.014 174.096 197.673 174.233C197.298 174.404 196.923 174.489 196.547 174.489C196.138 174.489 195.745 174.404 195.37 174.233C195.029 174.096 194.705 173.891 194.398 173.618C194.125 173.31 193.92 172.986 193.783 172.644C193.613 172.303 193.527 171.927 193.527 171.517ZM194.551 171.517C194.551 172.098 194.739 172.593 195.114 173.003C195.489 173.413 195.967 173.618 196.547 173.618C197.093 173.618 197.554 173.413 197.929 173.003C198.304 172.593 198.492 172.098 198.492 171.517C198.492 170.936 198.304 170.441 197.929 170.031C197.554 169.621 197.093 169.416 196.547 169.416C195.967 169.416 195.489 169.621 195.114 170.031C194.739 170.441 194.551 170.936 194.551 171.517ZM201 174.233V168.75H201.819V169.877C202.058 169.399 202.331 169.057 202.638 168.852C202.911 168.647 203.252 168.545 203.661 168.545C203.764 168.545 203.866 168.562 203.968 168.596C204.071 168.596 204.173 168.613 204.275 168.647L203.968 169.518C203.866 169.484 203.764 169.467 203.661 169.467C203.593 169.433 203.508 169.416 203.405 169.416C202.894 169.416 202.518 169.587 202.279 169.928C202.041 170.304 201.921 170.851 201.921 171.568V174.233H201ZM205.453 169.518H204.429V168.75H205.453V166.546H206.374V168.75H207.398V169.518H206.374V174.233H205.453V169.518ZM213.386 171.671H209.035V171.722C209.035 172.303 209.206 172.781 209.547 173.157C209.854 173.532 210.281 173.72 210.827 173.72C211.202 173.72 211.543 173.618 211.85 173.413C212.123 173.208 212.379 172.9 212.618 172.49L213.335 173.003C213.062 173.481 212.703 173.857 212.26 174.13C211.85 174.369 211.356 174.489 210.775 174.489C209.957 174.489 209.291 174.216 208.779 173.669C208.268 173.122 208.012 172.388 208.012 171.466C208.012 170.611 208.268 169.911 208.779 169.365C209.291 168.818 209.94 168.545 210.724 168.545C211.543 168.545 212.192 168.801 212.669 169.313C213.147 169.86 213.386 170.577 213.386 171.466V171.671ZM212.362 170.902C212.328 170.424 212.174 170.048 211.901 169.774C211.594 169.535 211.185 169.416 210.673 169.416C210.23 169.416 209.854 169.552 209.547 169.826C209.24 170.099 209.069 170.458 209.035 170.902H212.362ZM214.768 174.284V168.801H215.638V169.928C215.877 169.45 216.132 169.108 216.405 168.903C216.712 168.698 217.071 168.596 217.48 168.596C217.583 168.596 217.685 168.596 217.787 168.596C217.89 168.63 217.992 168.664 218.094 168.698L217.787 169.57C217.685 169.535 217.583 169.501 217.48 169.467C217.378 169.467 217.293 169.467 217.224 169.467C216.712 169.467 216.337 169.638 216.098 169.979C215.859 170.355 215.74 170.902 215.74 171.619V174.284H214.768ZM228.331 174.284L227.512 173.259C227.102 173.635 226.676 173.925 226.232 174.13C225.789 174.335 225.328 174.438 224.85 174.438C224.066 174.438 223.434 174.199 222.957 173.72C222.479 173.276 222.24 172.678 222.24 171.927C222.24 171.414 222.411 170.936 222.752 170.492C223.059 170.048 223.554 169.638 224.236 169.262L223.878 168.852C223.707 168.613 223.571 168.374 223.468 168.135C223.366 167.895 223.315 167.639 223.315 167.366C223.315 166.819 223.503 166.375 223.878 166.034C224.253 165.692 224.731 165.521 225.311 165.521C225.925 165.521 226.42 165.692 226.795 166.034C227.136 166.375 227.307 166.819 227.307 167.366C227.307 167.81 227.188 168.203 226.949 168.545C226.71 168.886 226.3 169.228 225.72 169.57L227.665 171.876C227.802 171.705 227.955 171.517 228.126 171.312C228.296 171.073 228.484 170.816 228.689 170.543L229.303 171.209C229.132 171.483 228.962 171.739 228.791 171.978C228.621 172.183 228.433 172.388 228.228 172.593L229.61 174.284H228.331ZM225.157 168.903L225.516 168.647C225.789 168.476 225.993 168.288 226.13 168.083C226.266 167.878 226.335 167.656 226.335 167.417C226.335 167.11 226.249 166.871 226.079 166.7C225.874 166.495 225.618 166.392 225.311 166.392C225.004 166.392 224.765 166.495 224.594 166.7C224.39 166.871 224.287 167.11 224.287 167.417C224.287 167.554 224.321 167.708 224.39 167.878C224.424 168.015 224.492 168.135 224.594 168.237L225.157 168.903ZM226.949 172.542L224.799 169.979L224.543 170.184C224.065 170.492 223.741 170.782 223.571 171.056C223.366 171.329 223.264 171.619 223.264 171.927C223.264 172.405 223.417 172.798 223.724 173.105C224.031 173.413 224.424 173.567 224.901 173.567C225.209 173.567 225.533 173.481 225.874 173.31C226.215 173.174 226.573 172.918 226.949 172.542ZM234.626 174.284V165.521H239.232V166.444H235.649V169.006H239.232V169.979H235.649V173.31H239.232V174.284H234.626ZM240 174.284L242.098 171.466L240.051 168.801H241.228L242.661 170.748L244.094 168.801H245.22L243.173 171.466L245.323 174.284H244.146L242.661 172.183L241.177 174.284H240ZM246.244 177V168.801H247.165V169.826C247.37 169.45 247.643 169.142 247.984 168.903C248.325 168.698 248.718 168.596 249.161 168.596C249.946 168.596 250.577 168.869 251.055 169.416C251.533 169.962 251.771 170.68 251.771 171.568C251.771 172.49 251.533 173.208 251.055 173.72C250.611 174.267 249.997 174.54 249.212 174.54C248.735 174.54 248.342 174.438 248.035 174.233C247.694 174.028 247.404 173.72 247.165 173.31V177H246.244ZM247.165 171.568C247.165 172.183 247.336 172.678 247.677 173.054C248.018 173.43 248.479 173.618 249.059 173.618C249.605 173.618 250.031 173.447 250.338 173.105C250.646 172.764 250.799 172.285 250.799 171.671C250.799 170.987 250.646 170.458 250.338 170.082C250.031 169.706 249.588 169.518 249.008 169.518C248.428 169.518 247.984 169.706 247.677 170.082C247.336 170.424 247.165 170.919 247.165 171.568ZM252.846 171.568C252.846 171.158 252.915 170.782 253.051 170.441C253.222 170.065 253.443 169.74 253.716 169.467C253.989 169.194 254.313 168.972 254.689 168.801C255.03 168.664 255.405 168.596 255.815 168.596C256.224 168.596 256.617 168.664 256.992 168.801C257.333 168.972 257.657 169.194 257.964 169.467C258.237 169.74 258.442 170.065 258.579 170.441C258.749 170.782 258.834 171.158 258.834 171.568C258.834 171.978 258.749 172.354 258.579 172.695C258.442 173.037 258.237 173.345 257.964 173.618C257.657 173.925 257.333 174.147 256.992 174.284C256.617 174.455 256.224 174.54 255.815 174.54C255.439 174.54 255.064 174.455 254.689 174.284C254.313 174.147 253.989 173.942 253.716 173.669C253.443 173.362 253.222 173.037 253.051 172.695C252.915 172.354 252.846 171.978 252.846 171.568ZM253.87 171.568C253.87 172.149 254.058 172.644 254.433 173.054C254.808 173.464 255.269 173.669 255.815 173.669C256.395 173.669 256.873 173.464 257.248 173.054C257.623 172.644 257.811 172.149 257.811 171.568C257.811 170.987 257.623 170.492 257.248 170.082C256.873 169.672 256.395 169.467 255.815 169.467C255.269 169.467 254.808 169.672 254.433 170.082C254.023 170.492 253.836 170.987 253.87 171.568ZM260.268 174.284V168.801H261.138V169.928C261.376 169.45 261.649 169.108 261.957 168.903C262.229 168.698 262.571 168.596 262.98 168.596C263.083 168.596 263.185 168.613 263.287 168.647C263.39 168.647 263.492 168.664 263.594 168.698L263.287 169.57C263.185 169.535 263.083 169.518 262.98 169.518C262.878 169.484 262.792 169.467 262.724 169.467C262.212 169.467 261.837 169.638 261.598 169.979C261.359 170.355 261.24 170.902 261.24 171.619V174.284H260.268ZM264.72 169.57H263.697V168.801H264.72V166.597H265.642V168.801H266.665V169.57H265.642V174.284H264.72V169.57ZM272.653 171.722H268.303V171.773C268.303 172.354 268.456 172.832 268.764 173.208C269.105 173.584 269.548 173.772 270.094 173.772C270.47 173.772 270.811 173.669 271.118 173.464C271.391 173.259 271.647 172.952 271.886 172.542L272.602 173.054C272.329 173.532 271.971 173.908 271.527 174.182C271.118 174.421 270.623 174.54 270.043 174.54C269.224 174.54 268.559 174.267 268.047 173.72C267.501 173.174 267.228 172.439 267.228 171.517C267.228 170.663 267.484 169.962 267.996 169.416C268.508 168.869 269.173 168.596 269.992 168.596C270.811 168.596 271.459 168.852 271.937 169.365C272.415 169.911 272.653 170.629 272.653 171.517V171.722ZM271.63 170.953C271.596 170.475 271.425 170.099 271.118 169.826C270.845 169.587 270.453 169.467 269.941 169.467C269.497 169.467 269.122 169.604 268.815 169.877C268.508 170.15 268.337 170.509 268.303 170.953H271.63ZM274.035 174.335V168.852H274.905V169.979C275.144 169.501 275.4 169.16 275.673 168.955C275.98 168.75 276.338 168.647 276.748 168.647C276.85 168.647 276.953 168.647 277.055 168.647C277.157 168.681 277.26 168.715 277.362 168.75L277.055 169.621C276.953 169.587 276.85 169.552 276.748 169.518C276.645 169.518 276.56 169.518 276.492 169.518C275.98 169.518 275.605 169.689 275.366 170.031C275.093 170.406 274.956 170.953 274.956 171.671V174.335H274.035Z" fill="#008DD2"/>
</svg>
