<svg width="422" height="174" viewBox="0 0 422 174" fill="none" xmlns="http://www.w3.org/2000/svg">
<path fill-rule="evenodd" clip-rule="evenodd" d="M74.9578 55.8124L152.622 151.472L179.682 118.931L179.953 119.067L193.145 127.32L193.483 127.523L152.622 152.892L0 57.9773L57.3008 0.0676556L115.075 37.6819L74.9578 55.8124ZM211.072 116.563L194.768 100.665L230.962 57.0978L219.394 51.8887L219.935 51.7533L285.76 37.2759L285.895 37.2083L306.258 57.639L211.072 116.563ZM218.852 20.0248L248.822 0L268.847 20.0248H218.852Z" fill="#00A0E3"/>
<path fill-rule="evenodd" clip-rule="evenodd" d="M189.965 58.384L363.694 20.0933H172.241L114.602 78.2058L267.9 174L421.13 77.597L286.774 77.7999L267.9 97.0806L286.977 116.091L363.762 96.8776L267.764 171.835L171.091 77.4617L189.965 58.384Z" fill="#393185"/>
</svg>
