<svg width="512" height="512" viewBox="0 0 512 512" fill="none" xmlns="http://www.w3.org/2000/svg">
<g clip-path="url(#clip0_1486_2)">
<rect x="92" y="92" width="420" height="420" fill="black"/>
<rect width="450" height="450" fill="#DF603A"/>
<path d="M55.7002 393V52.8H129.62C154.82 52.8 174.7 56.72 189.26 64.56C204.1 72.12 214.6 83.6 220.76 99C227.2 114.4 230.42 133.58 230.42 156.54V281.7C230.42 305.78 227.2 326.08 220.76 342.6C214.6 359.12 204.38 371.72 190.1 380.4C176.1 388.8 157.2 393 133.4 393H55.7002ZM103.16 358.98H130.04C147.4 358.98 159.72 355.62 167 348.9C174.28 342.18 178.62 332.38 180.02 319.5C181.7 306.62 182.54 291.08 182.54 272.88V162.42C182.54 144.78 181.42 130.5 179.18 119.58C176.94 108.66 172.04 100.68 164.48 95.64C156.92 90.6 145.02 88.08 128.78 88.08H103.16V358.98ZM277.185 393V52.8H409.065V88.08H324.645V200.64H393.105V234.24H324.645V358.98H409.905V393H277.185Z" fill="white"/>
</g>
<defs>
<clipPath id="clip0_1486_2">
<rect width="512" height="512" fill="white"/>
</clipPath>
</defs>
</svg>
