<svg width="100" height="100" viewBox="0 0 100 100" fill="none" xmlns="http://www.w3.org/2000/svg">
<g clip-path="url(#clip0_1295_981)">
<path d="M48.4114 0.246803C47.9814 0.383614 47.3169 0.65724 46.9456 0.852684C44.9325 1.90808 25.8767 12.9898 25.5053 13.322C24.6063 14.1429 25.2513 15.8042 26.463 15.8042C26.678 15.8042 29.2383 14.4165 32.1504 12.7357C35.0821 11.0549 39.6751 8.41638 42.3526 6.85282C45.0498 5.30881 47.5319 3.86253 47.8837 3.64754L48.5091 3.25665V9.62813V15.9996L47.3951 16.5664C46.7697 16.8791 44.913 17.8759 43.2712 18.7945C40.75 20.2017 40.2027 20.4362 39.8509 20.2798C39.5969 20.1626 39.0105 19.3222 38.4828 18.3254C37.4274 16.3514 36.7825 15.8042 35.5316 15.8042C34.3003 15.8042 33.6358 16.371 32.5804 18.3059L31.6423 20.0453L29.9028 20.9834C27.9875 22.0388 27.4011 22.7033 27.4011 23.9151C27.4011 24.8337 27.8898 25.6741 28.7302 26.2018C29.1015 26.4168 29.3165 26.6709 29.2188 26.7686C29.1406 26.8468 27.3621 27.9413 25.2708 29.1921C22.3978 30.9316 21.401 31.4397 21.1274 31.3029C19.7788 30.6775 10.6516 25.2637 10.7493 25.1464C10.8275 25.0878 13.3487 23.6024 16.3585 21.8629C19.3684 20.143 21.9873 18.5404 22.1828 18.3059C22.3587 18.0909 22.515 17.7 22.515 17.4264C22.515 16.8205 21.6942 15.9996 21.1078 15.9996C20.6192 15.9996 9.28346 22.4493 8.05217 23.4265C7.66128 23.7392 7.03585 24.5405 6.66451 25.2246L6 26.4559V49.9287V73.4016L6.68405 74.7306C7.0554 75.4733 7.68082 76.3137 8.05217 76.6069C8.87303 77.2518 46.0074 98.7116 47.4733 99.3957C48.8805 100.041 50.3072 100.177 51.6949 99.767C52.9848 99.3957 68.894 90.3075 69.578 89.5648C70.1057 88.959 70.1253 88.314 69.6367 87.7081C68.894 86.7895 68.5226 86.9459 59.8058 91.9883C55.3106 94.5878 51.5972 96.7181 51.5385 96.7181C51.4799 96.7181 51.4603 93.9232 51.4799 90.5225L51.5385 84.3269L54.5679 82.5875C56.2292 81.6298 62.4639 78.0336 68.4054 74.5938C77.8062 69.1409 79.2721 68.3591 79.6434 68.535C81.0311 69.18 89.7479 74.3788 89.7283 74.5352C89.7283 74.6329 86.0931 76.8219 81.676 79.3626C77.2394 81.923 73.4283 84.1901 73.1937 84.4247C72.2947 85.2651 72.9201 86.7504 74.1514 86.7504C74.6009 86.7504 77.0635 85.4214 83.1419 81.923C87.7543 79.2649 91.8196 76.8414 92.1909 76.5482C92.5623 76.2355 93.1486 75.3951 93.5004 74.672L94.1454 73.3625V49.9092V26.4559L93.4809 25.2246C93.1095 24.5405 92.5232 23.7392 92.1714 23.4656C91.8196 23.1724 89.0247 21.4916 85.9563 19.7131C82.8878 17.9541 80.3665 16.4296 80.3665 16.3514C80.3665 16.2928 80.5229 16.1755 80.7183 16.1169C81.4806 15.8628 81.1842 14.8856 81.2624 13.9084C81.3992 12.5598 80.8519 11.8562 79.7802 10.7226C78.158 9.82357 78.0994 9.76494 77.2394 8.22093C76.7508 7.36098 76.184 6.46193 75.9886 6.24694C75.1482 5.32835 73.2719 5.3479 72.412 6.26649C72.1774 6.52056 71.6302 7.40006 71.1611 8.24047C70.6921 9.13951 70.1644 9.86266 69.8907 9.97993C69.4998 10.1558 68.464 9.62813 61.1348 5.38699C56.5614 2.72894 52.3594 0.44225 51.7926 0.26635C50.6004 -0.0854499 49.4864 -0.085452 48.4114 0.246803ZM59.1608 7.6346L66.6659 11.9735L66.3532 12.5402C65.9428 13.3611 66.1187 14.7097 66.705 15.3351C66.9591 15.6087 67.8972 16.2341 68.7572 16.7032C70.223 17.5045 70.3989 17.6609 70.9852 18.7945C71.8452 20.4362 72.4511 21.218 73.1351 21.5698C74.4641 22.2538 75.7541 21.6675 76.7899 19.9085C77.1417 19.3222 77.4935 18.7163 77.5717 18.5795C77.689 18.4036 79.3307 19.2831 83.4937 21.687C86.6599 23.5047 89.3179 25.0682 89.3961 25.1464C89.4743 25.2246 87.5784 26.3972 85.194 27.7849C82.8096 29.153 80.4056 30.5407 79.8779 30.8534L78.8812 31.4202L65.2196 23.5438L51.5385 15.6674L51.4799 9.49132C51.4603 6.09059 51.4799 3.29573 51.5385 3.29573C51.5972 3.29573 55.037 5.25018 59.1608 7.6346ZM75.1482 10.4685C75.8322 11.6607 76.2036 12.0907 76.8681 12.4621C77.3372 12.7162 78.0212 13.107 78.373 13.322L79.018 13.7129L77.6694 14.4556C76.184 15.2765 75.7541 15.7064 74.8159 17.4264L74.1905 18.5404L73.4869 17.2114C72.627 15.6478 72.2752 15.2765 70.6334 14.3774L69.4021 13.7129L70.0471 13.322C70.3989 13.107 71.0829 12.7162 71.552 12.4621C72.2165 12.0907 72.5879 11.6607 73.2719 10.4685C73.7605 9.64767 74.171 8.96362 74.2101 8.96362C74.2491 8.96362 74.6596 9.64767 75.1482 10.4685ZM36.4502 20.7294C37.1929 22.0388 37.3884 22.2343 38.6978 22.9574C39.4796 23.4069 40.1246 23.8369 40.1246 23.9151C40.1246 23.9933 39.4796 24.4233 38.6978 24.8728C37.4079 25.5959 37.2125 25.8109 36.4698 27.1008C36.0398 27.8631 35.6294 28.5667 35.5512 28.6253C35.4925 28.6839 35.1994 28.2735 34.9258 27.6872C34.0853 26.0259 33.5772 25.4982 32.0723 24.6969L30.6455 23.9542L31.3882 23.5438C33.4013 22.4297 33.9094 21.9607 34.7108 20.5535C35.1407 19.7717 35.5316 19.1658 35.5707 19.2049C35.6098 19.2635 36.0202 19.9476 36.4502 20.7294ZM63.5974 25.9868C69.9689 29.6612 75.3436 32.7687 75.5391 32.9055C75.8518 33.1205 75.2068 33.531 70.4771 36.2672L65.0828 39.3943L58.5159 35.6027C54.9002 33.5114 51.8317 31.7133 51.6949 31.5961C51.4994 31.4397 51.4408 29.9934 51.4408 25.2441C51.4408 19.9085 51.4799 19.1072 51.734 19.1854C51.8903 19.2635 57.2259 22.3125 63.5974 25.9868ZM48.3723 31.6547C48.2746 31.7329 45.2648 33.5114 41.6686 35.6027L35.1212 39.3943L34.144 38.847C26.1698 34.2736 24.4695 33.2769 24.4695 33.1987C24.4695 32.9837 31.8964 28.6839 32.0723 28.8012C32.1895 28.8598 32.5609 29.4462 32.9127 30.1107C33.6358 31.4788 34.3785 32.026 35.5316 32.026C36.7238 32.026 37.447 31.4006 38.5024 29.4853C39.4014 27.8631 39.4601 27.8044 41.0822 26.9054C43.1344 25.7718 42.6817 25.0878 42.5644 23.8174C42.5253 23.3288 43.4276 22.762 43.3494 22.547C43.2321 22.2147 43.5644 21.9802 45.812 20.7489L48.4114 19.3417L48.47 25.42C48.4896 28.7817 48.4505 31.5765 48.3723 31.6547ZM14.3064 30.7752L19.5834 33.8241V49.616V65.4079L14.2087 68.6523L8.83394 71.8771V49.8115C8.83394 37.6548 8.87303 27.7263 8.93166 27.7263C8.97075 27.7263 11.3943 29.0944 14.3064 30.7752ZM91.3114 49.7919V71.8576L87.2657 69.5123C85.0181 68.2223 82.6142 66.8347 81.891 66.4047L80.562 65.6229V49.7333V33.8241L85.7999 30.7947C88.6729 29.1335 91.0769 27.7458 91.1746 27.7458C91.2528 27.7263 91.3114 37.6548 91.3114 49.7919ZM56.9132 38.0653L63.6561 41.9546V50.0069V58.0397L60.0403 60.1309C58.0468 61.284 54.9979 63.043 53.2584 64.0594L50.0727 65.877L43.2321 61.929L36.3916 57.981V50.0069V42.0328L43.193 38.1044C46.926 35.9545 50.0141 34.1759 50.0727 34.1759C50.1313 34.1759 53.1998 35.9349 56.9132 38.0653ZM28.7302 39.1011L33.4599 41.8373L33.4208 49.7724L33.3622 57.7074L28.007 60.7954C25.0558 62.4958 22.6128 63.8835 22.5737 63.8835C22.5541 63.8835 22.515 57.4924 22.515 49.6942V35.5049L23.2577 35.9349C23.6486 36.1695 26.1112 37.5962 28.7302 39.1011ZM77.5912 56.7497L77.5326 63.903L72.5488 61.03C69.8126 59.4469 67.3695 58.0397 67.135 57.8833L66.6855 57.6292V49.7333V41.8569L72.1188 38.7102L77.5326 35.5831L77.5912 42.58C77.6108 46.4303 77.6108 52.8018 77.5912 56.7497ZM41.5709 64.3525C45.2257 66.4829 48.2746 68.281 48.3723 68.3591C48.4505 68.4373 48.4896 71.2908 48.47 74.6915L48.4114 80.8676L44.6002 78.659C40.535 76.3137 34.5153 72.8348 27.9484 69.0432C25.7203 67.7728 23.8832 66.6783 23.8832 66.6197C23.8832 66.561 24.3913 66.2288 25.0167 65.8965C25.6226 65.5643 28.0266 64.1766 30.3328 62.8281C32.6391 61.4795 34.6326 60.4045 34.7303 60.4436C34.8476 60.4827 37.916 62.2417 41.5709 64.3525ZM70.9852 63.4926C73.8778 65.1538 76.2622 66.561 76.2622 66.6197C76.2622 66.7369 51.7731 80.8871 51.5776 80.8871C51.4994 80.8871 51.4408 78.1118 51.4408 74.7306V68.5741L51.9685 68.2419C53.1998 67.421 65.4346 60.4045 65.5519 60.4241C65.63 60.4436 68.0731 61.8313 70.9852 63.4926ZM29.3947 73.2257C33.8313 75.786 39.9487 79.3431 42.9976 81.0826L48.5091 84.2683V90.5225V96.7572L48.0792 96.4836C47.8251 96.3272 45.2061 94.8027 42.2549 93.1024C39.3037 91.402 32.7563 87.6104 27.6943 84.6983C22.6519 81.7666 16.6322 78.3072 14.3455 76.9782C12.0588 75.6687 10.2411 74.5352 10.2998 74.457C10.7493 74.0075 20.717 68.3982 20.9906 68.4569C21.1665 68.4959 24.9386 70.6458 29.3947 73.2257Z" fill="#00A0E3"/>
<path d="M49.0954 40.9959C48.5677 41.2891 48.1573 41.8168 47.3755 43.224C46.8087 44.2403 46.2029 45.1393 46.0074 45.198C44.9911 45.5889 42.8608 46.9961 42.5871 47.4651C42.3917 47.7583 42.2549 48.4033 42.2549 48.8919C42.2549 50.0841 42.8217 50.729 44.8543 51.8431C46.4178 52.6835 46.4765 52.7617 47.2778 54.247C48.4505 56.4556 49.3886 57.1787 50.7372 56.9442C51.6948 56.7487 52.2225 56.2406 53.2779 54.4034C54.2552 52.7226 54.3138 52.6639 56.0337 51.6867C57.3627 50.9245 57.8709 50.5336 58.125 50.0059C58.9654 48.3446 58.3399 47.211 55.936 45.8625C54.3138 44.983 54.2552 44.9244 53.2975 43.2435C52.7698 42.3054 52.0857 41.3673 51.8121 41.1718C51.0694 40.6246 49.9163 40.5464 49.0954 40.9959ZM53.4148 47.8169C54.2161 48.2664 54.8806 48.716 54.9197 48.7941C54.9392 48.8919 54.3333 49.3023 53.5711 49.7127C52.1053 50.5336 51.8121 50.8463 50.9717 52.5076C50.6785 53.0744 50.3658 53.4848 50.2486 53.4262C50.1508 53.348 49.799 52.7812 49.4863 52.1753C48.8414 50.8854 48.0987 50.1818 46.6133 49.4587C46.0465 49.1655 45.5774 48.8919 45.5774 48.8332C45.5774 48.7746 46.1247 48.4423 46.8087 48.071C48.4505 47.1915 48.6264 46.9961 49.5254 45.3543L50.3267 43.9276L51.1476 45.452C51.9098 46.8788 52.0662 47.0351 53.4148 47.8169Z" fill="#393185"/>
<path d="M72.7459 5.30476C72.2255 5.61085 71.8208 6.16181 71.0498 7.63103C70.4909 8.69214 69.8934 9.63081 69.7006 9.69203C68.6984 10.1001 66.5975 11.5694 66.3277 12.0591C66.1349 12.3652 66 13.0386 66 13.5487C66 14.7935 66.5589 15.4669 68.5635 16.63C70.1054 17.5075 70.1632 17.5891 70.9534 19.14C72.1099 21.4458 73.035 22.2009 74.365 21.956C75.3094 21.7519 75.8298 21.2214 76.8706 19.3032C77.8343 17.5483 77.8921 17.4871 79.5882 16.4668C80.8989 15.671 81.4 15.2628 81.6506 14.7119C82.4794 12.9774 81.8626 11.7938 79.4919 10.3858C77.8921 9.46757 77.8343 9.40635 76.8899 7.65144C76.3695 6.67196 75.6949 5.69247 75.425 5.48841C74.6926 4.91705 73.5554 4.83542 72.7459 5.30476ZM77.0055 12.4264C77.7958 12.8958 78.4511 13.3651 78.4896 13.4467C78.5089 13.5487 77.9114 13.9773 77.1597 14.4058C75.7141 15.2628 75.425 15.5893 74.5963 17.3238C74.3071 17.9156 73.9988 18.3441 73.8831 18.2829C73.7867 18.2013 73.4398 17.6095 73.1314 16.9769C72.4954 15.6302 71.763 14.8955 70.2981 14.1405C69.7392 13.8344 69.2766 13.5487 69.2766 13.4875C69.2766 13.4263 69.8163 13.0794 70.4909 12.6917C72.1099 11.7734 72.2834 11.5694 73.17 9.85528L73.9602 8.36565L74.7697 9.95731C75.5214 11.4469 75.6756 11.6102 77.0055 12.4264Z" fill="#393185"/>
<path d="M34.2459 15.8048C33.7255 16.1108 33.3208 16.6618 32.5498 18.131C31.9909 19.1921 31.3934 20.1308 31.2006 20.192C30.1984 20.6001 28.0975 22.0694 27.8277 22.5591C27.6349 22.8652 27.5 23.5386 27.5 24.0487C27.5 25.2935 28.0589 25.9669 30.0635 27.13C31.6054 28.0075 31.6632 28.0891 32.4534 29.64C33.6099 31.9458 34.535 32.7009 35.865 32.456C36.8094 32.2519 37.3298 31.7214 38.3706 29.8032C39.3343 28.0483 39.3921 27.9871 41.0882 26.9668C42.3989 26.171 42.9 25.7628 43.1506 25.2119C43.9794 23.4774 43.3626 22.2938 40.9919 20.8858C39.3921 19.9676 39.3343 19.9063 38.3899 18.1514C37.8695 17.172 37.1949 16.1925 36.925 15.9884C36.1926 15.417 35.0554 15.3354 34.2459 15.8048ZM38.5055 22.9264C39.2958 23.3958 39.9511 23.8651 39.9896 23.9467C40.0089 24.0487 39.4114 24.4773 38.6597 24.9058C37.2141 25.7628 36.925 26.0893 36.0963 27.8238C35.8071 28.4156 35.4988 28.8441 35.3831 28.7829C35.2867 28.7013 34.9398 28.1095 34.6314 27.4769C33.9954 26.1302 33.263 25.3955 31.7981 24.6405C31.2392 24.3344 30.7766 24.0487 30.7766 23.9875C30.7766 23.9263 31.3163 23.5794 31.9909 23.1917C33.6099 22.2734 33.7834 22.0694 34.67 20.3553L35.4602 18.8656L36.2697 20.4573C37.0214 21.9469 37.1756 22.1102 38.5055 22.9264Z" fill="#393185"/>
</g>
<defs>
<clipPath id="clip0_1295_981">
<rect width="100" height="100" fill="white"/>
</clipPath>
</defs>
</svg>
