<svg width="38" height="28" viewBox="0 0 38 28" fill="none" xmlns="http://www.w3.org/2000/svg">
<path d="M28.7932 1.02832H9.04581L1.5 8.23983L18.6789 26.7841L36.5 8.37739L28.7936 1.02832H28.7932Z" stroke="#00A0E3"/>
<path d="M1.5 8.3186L36.3317 8.43119" stroke="#00A0E3"/>
<path d="M8.96094 1.17065L13.6199 8.42938" stroke="#00A0E3"/>
<path d="M13.3809 8.43673L18.7459 1.12817" stroke="#00A0E3"/>
<path d="M18.6191 1.12817L23.9842 8.30851" stroke="#00A0E3"/>
<path d="M24.1055 8.48753L28.8729 1" stroke="#00A0E3"/>
<path d="M18.7461 1.25684V8.43717" stroke="#00A0E3"/>
<path d="M18.7168 8.26245V26.8403" stroke="#00A0E3"/>
<path d="M13.4453 8.3186L18.6058 26.5587" stroke="#00A0E3"/>
<path d="M24.1042 8.375L18.832 26.6151" stroke="#00A0E3"/>
<path d="M28.8242 1.20679L30.7731 8.33659" stroke="#00A0E3"/>
<path d="M9.01243 1.03876L6.88989 8.22349" stroke="#00A0E3"/>
<path d="M6.83203 8.20605L18.6672 26.5587" stroke="#00A0E3"/>
<path d="M30.8914 8.26245L18.6641 26.7277" stroke="#00A0E3"/>
</svg>
