<svg width="48" height="40" viewBox="0 0 48 40" fill="none" xmlns="http://www.w3.org/2000/svg">
<path d="M23.8953 5.85879C24.3299 5.85879 24.6192 5.56944 24.6192 5.13541V0.723379C24.6192 0.289352 24.3299 0 23.8953 0C23.4612 0 23.1719 0.289352 23.1719 0.723379V5.20775C23.1719 5.56944 23.4612 5.85879 23.8953 5.85879Z" fill="#393185"/>
<path d="M23.8953 34.0688C23.4612 34.0688 23.1719 34.3582 23.1719 34.7922V39.2766C23.1719 39.7106 23.4612 40 23.8953 40C24.3299 40 24.6192 39.7106 24.6192 39.2766V34.7922C24.6192 34.3582 24.3299 34.0688 23.8953 34.0688Z" fill="#393185"/>
<path d="M37.9303 10.0545L41.983 6.8716C42.2724 6.65459 42.3447 6.14822 42.1277 5.85887C41.9107 5.56952 41.4043 5.49718 41.1149 5.71419L37.0623 8.89706C36.7724 9.11408 36.7 9.62044 36.9176 9.90979C37.1346 10.2715 37.5687 10.2715 37.9303 10.0545Z" fill="#393185"/>
<path d="M9.85867 29.8732L5.80601 32.9837C5.51666 33.2007 5.44432 33.7071 5.66134 33.9965C5.87835 34.2858 6.38472 34.3581 6.67407 34.1411L10.7267 30.9583C11.0161 30.7413 11.089 30.2349 10.8714 29.9455C10.6544 29.6562 10.2204 29.6562 9.85867 29.8732Z" fill="#393185"/>
<path d="M37.9327 29.8734C37.6434 29.6564 37.137 29.6564 36.92 30.0181C36.7024 30.3075 36.7024 30.8138 37.0647 31.0309L41.1174 34.2137C41.4067 34.4307 41.9131 34.4307 42.1301 34.069C42.3471 33.7797 42.3471 33.2733 41.9854 33.0563L37.9327 29.8734Z" fill="#393185"/>
<path d="M9.85716 10.0544C10.1465 10.2714 10.6529 10.2714 10.8699 9.90974C11.0875 9.62039 11.0875 9.11403 10.7252 8.89701L6.67255 5.71414C6.3832 5.49713 5.87684 5.49713 5.65982 5.85882C5.44281 6.22051 5.44281 6.65454 5.8045 6.87155L9.85716 10.0544Z" fill="#393185"/>
<path d="M31.0593 6.94397C31.4216 7.16098 31.8556 7.0163 32.0726 6.65461L34.3162 2.53193C34.5332 2.17024 34.3886 1.73621 34.0269 1.5192C33.6646 1.30219 33.2306 1.44686 33.0136 1.80855L30.7699 5.93123C30.5529 6.29292 30.6976 6.72695 31.0593 6.94397Z" fill="#393185"/>
<path d="M16.7294 32.9837C16.3677 32.7667 15.9337 32.9113 15.7167 33.273L13.4731 37.3957C13.256 37.7574 13.4007 38.1914 13.7624 38.4084C14.1247 38.6255 14.5587 38.4808 14.7757 38.1191L17.0194 33.9964C17.2364 33.6347 17.0917 33.2007 16.7294 32.9837Z" fill="#393185"/>
<path d="M47.1228 26.7632L41.8398 25.0271C41.4781 24.8825 41.0435 25.0995 40.8988 25.4612C40.7542 25.8228 40.9712 26.2569 41.3334 26.4015L46.6158 28.1371C46.9781 28.2818 47.4121 28.0647 47.5568 27.7036C47.7015 27.3419 47.4845 26.9079 47.1228 26.7632Z" fill="#393185"/>
<path d="M0.662938 13.1644L5.94592 14.9005C6.30761 15.0452 6.74164 14.8282 6.88689 14.4665C7.03157 14.1048 6.81456 13.6708 6.45229 13.5261L1.16988 11.7906C0.807614 11.6459 0.373587 11.8629 0.228911 12.224C0.0842348 12.5857 0.301249 13.0197 0.662938 13.1644Z" fill="#393185"/>
<path d="M41.0485 14.611C41.1937 14.9727 41.5554 15.1897 41.9894 15.1174L47.3448 13.4536C47.7065 13.3089 47.9235 12.9472 47.8511 12.5132C47.7065 12.1515 47.3448 11.9351 46.9107 12.0074L41.5554 13.6706C41.1214 13.8153 40.9038 14.2493 41.0485 14.611Z" fill="#393185"/>
<path d="M6.7436 25.3165C6.59893 24.9548 6.23724 24.7378 5.80321 24.8101L0.520226 26.4739C0.158536 26.6186 -0.0584779 26.9803 0.0138601 27.4143C0.158536 27.776 0.520226 27.9924 0.954253 27.9207L6.30958 26.2569C6.67126 26.1122 6.88886 25.6782 6.7436 25.3165Z" fill="#393185"/>
<path d="M31.7113 33.3455C31.4943 32.9838 31.0596 32.8392 30.698 33.0562C30.3363 33.2732 30.1916 33.7072 30.4086 34.0689L32.5799 38.1916C32.7969 38.5533 33.2309 38.698 33.5926 38.481C33.9549 38.2639 34.0996 37.8299 33.882 37.4682L31.7113 33.3455Z" fill="#393185"/>
<path d="M16.0818 6.58223C16.2988 6.94392 16.7329 7.08859 17.0951 6.87158C17.4568 6.65456 17.6015 6.22054 17.3845 5.85885L15.2132 1.73616C14.9962 1.37447 14.5622 1.2298 14.2005 1.44681C13.8382 1.66383 13.6935 2.09785 13.9105 2.45954L16.0818 6.58223Z" fill="#393185"/>
<path d="M23.8939 10.2712C13.5455 10.2712 5.2955 19.0959 4.93381 19.4576C4.64446 19.7469 4.64446 20.1804 4.93381 20.4697C5.2955 20.8314 13.5455 29.6561 23.8939 29.6561C34.2428 29.6561 42.4922 20.8314 42.8545 20.4697C43.1439 20.1804 43.1439 19.7469 42.8545 19.4576C42.4922 19.0959 34.2428 10.2712 23.8939 10.2712ZM23.8939 28.2093C19.3348 28.2093 15.6445 24.5207 15.6445 19.9639C15.6445 15.4067 19.3348 11.718 23.8939 11.718C28.4535 11.718 32.1439 15.4067 32.1439 19.9639C32.1439 24.5207 28.4535 28.2093 23.8939 28.2093ZM17.1641 13.0195C15.3545 14.7556 14.1971 17.2151 14.1971 19.9639C14.1971 22.7122 15.3545 25.1717 17.1641 26.9078C11.8811 24.9547 7.82849 21.2654 6.52582 19.9639C7.82849 18.6619 11.8811 14.9726 17.1641 13.0195ZM30.6242 26.9078C32.4332 25.1717 33.5912 22.7122 33.5912 19.9639C33.5912 17.2151 32.4332 14.7556 30.6242 13.0195C35.9072 14.9726 39.9598 18.6619 41.2625 19.9639C39.9598 21.2654 35.9072 24.9547 30.6242 26.9078Z" fill="#393185"/>
<path d="M23.892 14.4666C20.8526 14.4666 18.3926 16.926 18.3926 19.9642C18.3926 23.0019 20.8526 25.4613 23.892 25.4613C26.9319 25.4613 29.392 23.0019 29.392 19.9642C29.392 16.926 26.9319 14.4666 23.892 14.4666ZM23.892 24.0146C21.6489 24.0146 19.8399 22.2061 19.8399 19.9642C19.8399 17.7218 21.6489 15.9133 23.892 15.9133C26.1356 15.9133 27.9447 17.7218 27.9447 19.9642C27.9447 22.2061 26.1356 24.0146 23.892 24.0146Z" fill="#393185"/>
</svg>
