<svg width="40" height="40" viewBox="0 0 40 40" fill="none" xmlns="http://www.w3.org/2000/svg">
<path d="M39.9642 4.86728C39.8773 4.5896 39.6436 4.3834 39.3572 4.33173L36.2313 3.76865L35.6678 0.642772C35.6161 0.356406 35.4099 0.122677 35.1327 0.0357531C34.855 -0.0511709 34.5523 0.0231975 34.3465 0.228435L30.4746 4.1009C27.2502 1.94325 23.5042 0.805513 19.597 0.805513C14.3627 0.805513 9.44139 2.84388 5.73988 6.54539C2.03837 10.2469 0 15.1682 0 20.4025C0 25.6373 2.03837 30.5586 5.73988 34.2601C9.44139 37.9612 14.3622 40 19.597 40C24.8318 40 29.7531 37.9612 33.4541 34.2601C37.1556 30.5586 39.194 25.6373 39.194 20.4025C39.194 16.4958 38.0563 12.7498 35.8986 9.52543L39.7711 5.65297C39.9768 5.44773 40.0512 5.14495 39.9642 4.86728ZM19.0445 20.9554C19.1971 21.108 19.3971 21.1839 19.597 21.1839C19.7969 21.1839 19.9968 21.1076 20.1495 20.9554L24.3889 16.716C25.1765 17.7373 25.6469 19.0161 25.6469 20.4025C25.6469 23.7389 22.9329 26.4529 19.597 26.4529C16.2611 26.4529 13.5471 23.7389 13.5471 20.4025C13.5471 17.0666 16.2611 14.3526 19.597 14.3526C20.9839 14.3526 22.2627 14.823 23.284 15.6111L19.0445 19.8505C18.7394 20.1553 18.7394 20.6502 19.0445 20.9554ZM24.3967 14.4984C23.086 13.4312 21.4152 12.7904 19.597 12.7904C15.3995 12.7904 11.9849 16.2051 11.9849 20.4025C11.9849 24.6005 15.3995 28.0151 19.597 28.0151C23.7945 28.0151 27.2096 24.6005 27.2096 20.4025C27.2096 18.5848 26.5688 16.914 25.5015 15.6033L28.6593 12.4451C30.5282 14.5709 31.6635 17.3568 31.6635 20.4025C31.6635 27.0561 26.2505 32.469 19.597 32.469C12.9435 32.469 7.53099 27.0561 7.53099 20.4025C7.53099 13.7495 12.9439 8.33651 19.597 8.33651C22.6432 8.33651 25.4286 9.47183 27.5544 11.3402L24.3967 14.4984ZM37.6318 20.4025C37.6318 30.3471 29.5411 38.4373 19.597 38.4373C9.6529 38.4373 1.5627 30.3471 1.5627 20.4025C1.5627 10.4584 9.6529 2.36821 19.597 2.36821C23.0884 2.36821 26.4394 3.3548 29.346 5.22946L29.036 5.53949C28.8554 5.7201 28.7742 5.97845 28.8196 6.23053L29.4068 9.48825L28.6608 10.2343C26.2505 8.08346 23.074 6.77381 19.597 6.77381C12.0819 6.77381 5.96829 12.8879 5.96829 20.403C5.96829 27.9176 12.0819 34.0317 19.597 34.0317C27.1121 34.0317 33.2262 27.9176 33.2262 20.403C33.2262 16.926 31.9165 13.7495 29.7657 11.3392L30.5117 10.5931L33.7695 11.1804C33.8158 11.1886 33.8622 11.1929 33.9081 11.1929C34.1133 11.1929 34.3127 11.1118 34.4605 10.964L34.7705 10.654C36.6447 13.5611 37.6318 16.912 37.6318 20.4025ZM33.6444 9.56986L30.9208 9.07922L30.4297 6.35561L34.3953 2.38994L34.7899 4.57946C34.8478 4.9006 35.0989 5.15219 35.4201 5.21014L37.6096 5.60468L33.6444 9.56986Z" fill="#393185"/>
</svg>
