<svg width="30" height="30" viewBox="0 0 30 30" fill="none" xmlns="http://www.w3.org/2000/svg">
<path d="M29.9076 4.21655L27.177 0.226997C27.0798 0.0847984 26.9195 0 26.7483 0H15.7113C15.5402 0 15.3799 0.0848576 15.2826 0.226997L12.5521 4.21655C12.4237 4.40413 12.4296 4.65391 12.5666 4.83517L19.8085 14.4164C19.8003 14.416 19.7922 14.4151 19.7839 14.4151H17.231C17.0151 14.4151 16.8213 14.5498 16.7443 14.7534L15.2357 18.738C15.2129 18.798 15.2013 18.8618 15.2013 18.926V23.3216H13.2858C13.1091 23.3216 12.9443 23.4121 12.8483 23.562L11.7258 25.314H2.31996C1.70033 25.314 1.11774 25.5578 0.679571 26.0003C0.241348 26.443 0 27.0313 0 27.657C0 28.9489 1.04074 30 2.31996 30H26.7467C27.0345 30 27.2679 29.7644 27.2679 29.4736V23.848V18.9264C27.2679 18.8621 27.2562 18.7984 27.2335 18.7384L25.7248 14.7536C25.6477 14.5498 25.454 14.4153 25.238 14.4153H22.6849C22.6733 14.4153 22.6621 14.4163 22.6508 14.417L29.8931 4.83517C30.0301 4.65391 30.0359 4.40413 29.9076 4.21655ZM15.2012 28.9472H14.5835V27.8946C14.5835 27.6039 14.3503 27.3682 14.0623 27.3682C13.7745 27.3682 13.5412 27.6039 13.5412 27.8946V28.9472H12.7074V27.8946C12.7074 27.6039 12.4741 27.3682 12.1862 27.3682C11.8983 27.3682 11.665 27.6039 11.665 27.8946V28.9472H10.8313V27.8946C10.8313 27.6039 10.598 27.3682 10.3101 27.3682C10.0222 27.3682 9.78897 27.6039 9.78897 27.8946V28.9472H2.31996C1.61549 28.9473 1.04233 28.3685 1.04233 27.657C1.04233 27.3124 1.17527 26.9884 1.4165 26.7447C1.65791 26.501 1.97871 26.3667 2.3199 26.3667H12.0093C12.186 26.3667 12.3508 26.2762 12.4468 26.1263L13.5693 24.3743H15.2012V28.9472ZM19.2627 28.9473H16.2435V19.0233L17.5897 15.4679H19.2627V28.9473ZM25.7826 1.05267L24.1256 3.60071L22.2331 1.05267H25.7826ZM23.1116 3.98961H19.27L21.1909 1.40358L23.1116 3.98961ZM23.4734 5.04228L21.9702 10.6515C21.47 10.5734 20.9571 10.5752 20.4577 10.6566L18.9134 5.04228H23.4734ZM20.1485 1.05255L18.2625 3.59171L16.6612 1.05261L20.1485 1.05255ZM15.6936 1.47791L17.2776 3.98961H13.9746L15.6936 1.47791ZM14.0344 5.04228H17.8314L19.4532 10.9379C19.2115 11.0353 18.9786 11.1524 18.7558 11.2888L14.0344 5.04228ZM22.6849 24.3742C22.9728 24.3743 23.206 24.1387 23.206 23.848V15.4679H24.8792L26.2254 19.0235V23.8479V28.9473H25.6398V27.8947C25.6398 27.604 25.4066 27.3683 25.1186 27.3683C24.8308 27.3683 24.5974 27.6039 24.5974 27.8947V28.9473H23.7637V27.8947C23.7637 27.604 23.5304 27.3683 23.2425 27.3683C22.9546 27.3683 22.7213 27.6039 22.7213 27.8947V28.9473H21.8875V27.8947C21.8875 27.604 21.6543 27.3683 21.3663 27.3683C21.0784 27.3683 20.8452 27.6039 20.8452 27.8947V28.9473H20.3048V24.3743L22.6849 24.3742ZM20.305 23.3216V15.0735L20.8156 15.749C20.8347 15.7742 20.8564 15.7969 20.8793 15.818C20.9745 15.9056 21.0989 15.9559 21.2298 15.9559C21.3922 15.9559 21.5455 15.8794 21.6441 15.749L22.1637 15.0616V23.3218H20.305V23.3216ZM21.2299 14.5621L19.3926 12.1313C19.6549 11.9817 19.9338 11.8649 20.2263 11.783C20.8692 11.6029 21.5646 11.6008 22.2087 11.7761C22.5102 11.8585 22.7972 11.9778 23.067 12.1316L21.2299 14.5621ZM23.7039 11.2888C23.4717 11.1469 23.2288 11.0258 22.9763 10.926L24.5531 5.04228H28.4253L23.7039 11.2888ZM25.1197 3.98961L26.7593 1.46814L28.4851 3.98961H25.1197Z" fill="#00A0E3"/>
</svg>
