<svg width="100" height="100" viewBox="0 0 100 100" fill="none" xmlns="http://www.w3.org/2000/svg">
<path d="M72.7365 54.9818C66.9488 54.9818 62.2246 50.2576 62.2246 44.4694C62.2246 38.6823 66.9488 33.957 72.7365 33.957C78.5252 33.957 83.2494 38.6823 83.2494 44.4694C83.2494 50.2576 78.5252 54.9818 72.7365 54.9818ZM72.7365 36.3197C68.2479 36.3197 64.5862 39.9809 64.5862 44.4694C64.5862 48.9579 68.2479 52.6192 72.7365 52.6192C77.2261 52.6192 80.8878 48.9579 80.8878 44.4694C80.8878 39.9809 77.2261 36.3197 72.7365 36.3197Z" fill="#393185"/>
<path d="M91.8436 69.6271L83.8966 55.8035C84.7268 55.5726 85.557 55.2267 86.1506 54.4209C86.8625 53.3843 86.8625 52.1167 86.7431 50.9651C86.7431 50.2733 86.6248 49.6974 86.7431 49.2366C86.8625 48.8917 87.3367 48.3149 87.6927 47.854C88.4035 46.9334 89.353 46.0116 89.353 44.6291C89.353 43.2465 88.5228 42.3248 87.6927 41.4031C87.3367 40.9422 86.8625 40.4824 86.7431 40.0216C86.6248 39.5607 86.6248 38.9839 86.7431 38.2931C86.8625 37.1415 86.8625 35.8739 86.1506 34.8372C85.3204 33.8006 84.1343 33.4546 82.9481 33.2247C82.3556 33.1098 81.6437 32.8788 81.2878 32.6489C80.9318 32.418 80.5759 31.8422 80.2199 31.2664C79.6274 30.3447 78.9155 29.193 77.6111 28.8471C76.425 28.5012 75.2388 28.9621 74.1721 29.308C73.5785 29.5379 72.8666 29.7689 72.3923 29.7689C71.9181 29.7689 71.3256 29.5379 70.6137 29.308C69.5459 28.8471 68.3597 28.3863 67.1736 28.8471C65.8692 29.193 65.1573 30.3447 64.5648 31.2664C64.2088 31.8422 63.8529 32.303 63.4969 32.6489C63.1421 32.8788 62.4302 33.1098 61.8366 33.2247C60.6504 33.4546 59.4654 33.8006 58.6352 34.8372C57.9233 35.8739 57.9233 37.1415 58.0416 38.2931C58.0416 38.9839 58.1599 39.5607 58.0416 40.0216C57.9233 40.3664 57.4491 40.9422 57.0931 41.4031C56.3812 42.3248 55.4328 43.2465 55.4328 44.6291C55.4328 45.8956 56.2629 46.9334 57.0931 47.854C57.4491 48.3149 57.9233 48.7757 58.0416 49.2366C58.1599 49.6974 58.1599 50.2733 58.0416 50.9651C57.9233 52.1167 57.9233 53.3843 58.6352 54.4209C59.346 55.3427 60.4138 55.6875 61.4806 55.9185L53.653 69.6271C53.4164 69.9719 53.4164 70.4328 53.653 70.7787C53.8907 71.1246 54.2466 71.3545 54.7209 71.3545L59.8202 71.0086L62.1925 75.3862C62.4302 75.7321 62.7861 75.962 63.2603 75.962C63.7346 75.962 64.0905 75.7321 64.3271 75.3862L72.8666 60.7569L81.1695 75.2712C81.4061 75.6172 81.762 75.8471 82.2362 75.8471C82.7105 75.8471 83.0664 75.6172 83.3041 75.2712L85.6763 70.8936L90.7757 71.2395C91.25 71.2395 91.6059 71.0086 91.8436 70.6637C92.0801 70.4328 92.0801 69.9719 91.8436 69.6271ZM60.5321 51.08C60.5321 50.2733 60.6504 49.3526 60.4138 48.5458C60.1762 47.7391 59.5837 47.0483 58.9901 46.4725C58.5158 45.8956 57.9233 45.2049 57.9233 44.744C57.9233 44.2832 58.5158 43.5924 58.9901 43.0166C59.5837 42.3248 60.1762 41.749 60.4138 40.9422C60.6504 40.1365 60.6504 39.2148 60.5321 38.4081C60.5321 37.6023 60.4138 36.7956 60.6504 36.4497C60.8881 36.1048 61.7183 35.8739 62.4302 35.7589C63.2603 35.528 64.2088 35.2981 64.9207 34.8372C65.6326 34.3764 66.1068 33.5706 66.5811 32.8788C67.0553 32.1881 67.4113 31.4963 67.8855 31.3813C68.0038 31.3813 68.0038 31.3813 68.1231 31.3813C68.5974 31.3813 69.1899 31.6123 69.7835 31.8422C70.6137 32.1881 71.4439 32.5329 72.3923 32.5329C73.3408 32.5329 74.1721 32.1881 75.0023 31.8422C75.7131 31.6123 76.425 31.2664 76.8992 31.3813C77.3734 31.4963 77.7294 32.1881 78.2036 32.8788C78.6789 33.5706 79.1532 34.3764 79.864 34.8372C80.5759 35.2981 81.5254 35.528 82.3556 35.7589C83.1858 35.9888 83.8966 36.1048 84.1343 36.4497C84.3708 36.7956 84.3708 37.6023 84.2526 38.4081C84.2526 39.2148 84.1343 40.1365 84.3708 40.9422C84.6085 41.749 85.2021 42.4398 85.7946 43.0166C86.2689 43.5924 86.8625 44.2832 86.8625 44.744C86.8625 45.2049 86.2689 45.8956 85.7946 46.4725C85.2021 47.1633 84.6085 47.7391 84.3708 48.5458C84.1343 49.3526 84.1343 50.2733 84.2526 51.08C84.2526 51.8868 84.3708 52.6925 84.1343 53.0384C83.8966 53.3843 83.0664 53.6142 82.3556 53.7291C81.5254 53.9601 80.5759 54.19 79.864 54.6509C79.1532 55.1117 78.6789 55.9185 78.2036 56.6092C77.7294 57.301 77.3734 57.9918 76.8992 58.1067C76.5433 58.2217 75.7131 57.8768 75.0023 57.6459C74.4087 57.416 73.6968 57.185 73.1042 57.0701C72.8666 57.0701 72.63 56.9551 72.3923 56.9551C71.4439 56.9551 70.6137 57.301 69.7835 57.6459C69.0716 57.8768 68.3597 58.2217 67.8855 58.1067C67.4113 57.9918 67.0553 57.301 66.5811 56.6092C66.1068 55.9185 65.6326 55.1117 64.9207 54.6509C64.2088 54.19 63.2603 53.9601 62.4302 53.7291C61.6 53.4992 60.8881 53.3843 60.6504 53.0384C60.4138 52.6925 60.5321 51.8868 60.5321 51.08ZM63.4969 72.3912L61.7183 69.2812C61.4806 68.9353 61.0064 68.7054 60.6504 68.7054L56.9738 68.8203L63.8529 56.7242C64.0905 56.9551 64.4465 57.416 64.683 57.8768C65.2767 58.7985 65.9885 59.9502 67.293 60.2961C67.6489 60.411 67.8855 60.411 68.2414 60.411C69.0716 60.411 70.0201 60.0651 70.732 59.7203L63.4969 72.3912ZM85.0827 68.5894C84.6085 68.5894 84.1343 68.8203 84.016 69.1662L82.2362 72.2762L75.3571 60.1801C76.069 60.411 76.8992 60.526 77.7294 60.2961C79.0338 59.9502 79.7457 58.7985 80.3393 57.8768C80.6942 57.301 81.0501 56.8402 81.4061 56.4943C81.5254 56.3793 81.6437 56.3793 81.762 56.3793L88.8788 68.8203L85.0827 68.5894Z" fill="#00A0E3"/>
<path d="M93.9234 90H6.07766C3.24389 90 1 87.7528 1 84.9133V20.0867C1 17.2482 3.24389 15 6.07766 15H93.9234C96.7572 15 99 17.2482 99 20.0867V84.9133C99 87.6348 96.6383 90 93.9234 90ZM6.07766 17.3663C4.54248 17.3663 3.36165 18.5489 3.36165 20.0867V84.9133C3.36165 86.4511 4.54248 87.6348 6.07766 87.6348H93.9234C95.4575 87.6348 96.6383 86.4511 96.6383 84.9133V20.0867C96.6383 18.5489 95.4575 17.3663 93.9234 17.3663H6.07766Z" fill="#393185"/>
<path d="M9.57827 85.75H90.4217C93.0888 85.75 95.25 83.6001 95.25 80.9409V24.0602C95.25 21.401 93.0889 19.25 90.4217 19.25H9.57827C6.91113 19.25 4.75 21.401 4.75 24.0602V80.9409C4.75 83.6001 6.91121 85.75 9.57827 85.75ZM6.45492 24.0602C6.45492 22.3986 7.90754 20.9496 9.57827 20.9496H90.4217C92.0914 20.9496 93.5451 22.3986 93.5451 24.0602V80.9409C93.5451 82.6013 92.0915 84.0504 90.4217 84.0504H9.57827C7.90748 84.0504 6.45492 82.6014 6.45492 80.9409V24.0602Z" fill="#00A0E3" stroke="#00A0E3" stroke-width="0.5"/>
<path d="M45.9004 42.7408H13.6488C13.0513 42.7408 12.6533 42.5274 12.6533 42.2076C12.6533 41.8872 13.0513 41.6738 13.6488 41.6738H45.8012C46.3978 41.6738 46.7967 41.8872 46.7967 42.2076C46.7967 42.5274 46.3978 42.7408 45.9004 42.7408Z" fill="#00A0E3"/>
<path d="M45.6844 61.9478H13.7656C13.098 61.9478 12.6533 61.7344 12.6533 61.4141C12.6533 61.0943 13.098 60.8809 13.7656 60.8809H45.6844C46.352 60.8809 46.7967 61.0943 46.7967 61.4141C46.7967 61.7344 46.352 61.9478 45.6844 61.9478Z" fill="#00A0E3"/>
<path d="M17.8021 31.2587C17.7403 31.0648 17.6572 30.8912 17.5528 30.7377C17.4506 30.5822 17.328 30.4501 17.1853 30.3414C17.0425 30.2306 16.8795 30.1465 16.6963 30.089C16.5152 30.0314 16.316 30.0027 16.0986 30.0027C15.73 30.0027 15.3976 30.0975 15.1015 30.2871C14.8053 30.4767 14.5709 30.7548 14.3983 31.1213C14.2279 31.4856 14.1427 31.932 14.1427 32.4604C14.1427 32.9909 14.229 33.4395 14.4015 33.8059C14.5741 34.1724 14.8106 34.4505 15.1111 34.6401C15.4115 34.8297 15.7535 34.9245 16.137 34.9245C16.4928 34.9245 16.8028 34.8521 17.067 34.7072C17.3334 34.5623 17.539 34.3578 17.6839 34.0936C17.8309 33.8272 17.9044 33.514 17.9044 33.1539L18.1601 33.2019H16.2872V32.3869H18.86V33.1316C18.86 33.6813 18.7428 34.1586 18.5084 34.5634C18.2762 34.9661 17.9545 35.2772 17.5432 35.4966C17.1341 35.7161 16.6654 35.8258 16.137 35.8258C15.5447 35.8258 15.0248 35.6895 14.5773 35.4167C14.132 35.144 13.7847 34.7573 13.5354 34.2566C13.2861 33.7537 13.1615 33.1571 13.1615 32.4668C13.1615 31.9448 13.2339 31.476 13.3788 31.0605C13.5237 30.6451 13.7272 30.2924 13.9893 30.0027C14.2535 29.7108 14.5635 29.4881 14.9193 29.3347C15.2773 29.1792 15.6682 29.1014 16.0922 29.1014C16.4459 29.1014 16.7751 29.1536 17.0798 29.258C17.3866 29.3624 17.6594 29.5105 17.898 29.7022C18.1388 29.894 18.338 30.122 18.4957 30.3862C18.6533 30.6483 18.7599 30.9391 18.8153 31.2587H17.8021ZM21.1012 29.1909V35.7363H20.1136V29.1909H21.1012ZM23.0923 35.7363H22.044L24.3995 29.1909H25.5405L27.896 35.7363H26.8477L24.9972 30.3798H24.946L23.0923 35.7363ZM23.2681 33.1731H26.6687V34.0041H23.2681V33.1731Z" fill="#393185"/>
<path d="M14.36 48.3979V54.9434H13.3724V48.3979H14.36ZM20.2279 50.4657C20.1661 50.2718 20.083 50.0982 19.9786 49.9448C19.8763 49.7892 19.7538 49.6571 19.6111 49.5485C19.4683 49.4377 19.3053 49.3535 19.1221 49.296C18.941 49.2385 18.7417 49.2097 18.5244 49.2097C18.1558 49.2097 17.8234 49.3045 17.5273 49.4941C17.2311 49.6838 16.9967 49.9618 16.8241 50.3283C16.6537 50.6926 16.5684 51.139 16.5684 51.6674C16.5684 52.198 16.6547 52.6465 16.8273 53.013C16.9999 53.3794 17.2364 53.6575 17.5368 53.8471C17.8373 54.0368 18.1792 54.1316 18.5628 54.1316C18.9186 54.1316 19.2286 54.0591 19.4928 53.9142C19.7591 53.7694 19.9648 53.5648 20.1096 53.3006C20.2567 53.0343 20.3302 52.7211 20.3302 52.361L20.5858 52.4089H18.713V51.5939H21.2858V52.3386C21.2858 52.8883 21.1686 53.3656 20.9342 53.7704C20.702 54.1731 20.3802 54.4842 19.969 54.7037C19.5599 54.9231 19.0912 55.0328 18.5628 55.0328C17.9704 55.0328 17.4506 54.8965 17.0031 54.6238C16.5578 54.351 16.2105 53.9643 15.9612 53.4636C15.7119 52.9608 15.5873 52.3642 15.5873 51.6738C15.5873 51.1518 15.6597 50.6831 15.8046 50.2676C15.9495 49.8521 16.153 49.4995 16.415 49.2097C16.6792 48.9178 16.9893 48.6951 17.3451 48.5417C17.703 48.3862 18.094 48.3084 18.518 48.3084C18.8717 48.3084 19.2009 48.3606 19.5056 48.465C19.8124 48.5694 20.0851 48.7175 20.3238 48.9093C20.5645 49.101 20.7638 49.329 20.9214 49.5932C21.0791 49.8553 21.1856 50.1461 21.241 50.4657H20.2279ZM23.527 48.3979V54.9434H22.5394V48.3979H23.527Z" fill="#393185"/>
<path d="M13.3724 74.1484V67.603H14.36V70.4474H17.6231V67.603H18.6139V74.1484H17.6231V71.2944H14.36V74.1484H13.3724ZM20.0521 74.1484V67.603H22.3852C22.8923 67.603 23.3131 67.6903 23.6476 67.8651C23.9843 68.0398 24.2357 68.2816 24.4019 68.5906C24.5681 68.8974 24.6512 69.2521 24.6512 69.6548C24.6512 70.0554 24.567 70.408 24.3987 70.7127C24.2325 71.0153 23.9811 71.2507 23.6444 71.419C23.3099 71.5874 22.8891 71.6715 22.382 71.6715H20.6146V70.8214H22.2925C22.6121 70.8214 22.8721 70.7756 23.0724 70.6839C23.2748 70.5923 23.4229 70.4592 23.5166 70.2844C23.6104 70.1097 23.6572 69.8999 23.6572 69.6548C23.6572 69.4077 23.6093 69.1935 23.5134 69.0124C23.4197 68.8313 23.2716 68.6928 23.0692 68.5969C22.8689 68.4989 22.6057 68.4499 22.2797 68.4499H21.0397V74.1484H20.0521ZM23.2833 71.1953L24.9005 74.1484H23.7755L22.1903 71.1953H23.2833ZM27.9719 74.1484H25.8529V67.603H28.039C28.6803 67.603 29.2311 67.734 29.6913 67.9961C30.1515 68.256 30.5042 68.63 30.7492 69.1179C30.9964 69.6037 31.1199 70.1864 31.1199 70.8661C31.1199 71.5479 30.9953 72.1339 30.746 72.6239C30.4988 73.114 30.1409 73.4911 29.6721 73.7553C29.2034 74.0174 28.6366 74.1484 27.9719 74.1484ZM26.8405 73.2855H27.9175C28.4161 73.2855 28.8305 73.1918 29.1608 73.0043C29.491 72.8146 29.7382 72.5408 29.9023 72.1829C30.0663 71.8228 30.1483 71.3839 30.1483 70.8661C30.1483 70.3526 30.0663 69.9169 29.9023 69.5589C29.7403 69.201 29.4985 68.9293 29.1768 68.744C28.855 68.5586 28.4555 68.4659 27.9782 68.4659H26.8405V73.2855Z" fill="#393185"/>
</svg>
