<svg width="100" height="100" viewBox="0 0 100 100" fill="none" xmlns="http://www.w3.org/2000/svg">
<g clip-path="url(#clip0_1295_950)">
<path d="M46.875 2.30469C36.8164 7.07031 10.5859 19.8047 10.293 20.0781C10.0781 20.2539 9.80469 20.625 9.66797 20.8984C9.375 21.4844 0 62.3828 0 63.0859C0 63.3594 0.0585938 63.7891 0.136719 64.043C0.273438 64.5508 9.96094 76.8555 11.0352 77.8711C11.4062 78.2227 12.1289 78.6328 12.7148 78.7891C13.9258 79.1602 14.0625 79.3164 14.0625 80.4688C14.0625 80.957 14.2188 81.6602 14.4141 82.0312C14.6094 82.4023 17.5391 86.1914 20.9375 90.4492C26.3281 97.207 27.207 98.2227 27.9102 98.4961C28.6133 98.7891 29.6289 98.8281 35.4492 98.8281C41.9336 98.8281 42.207 98.8086 42.5781 98.4375C43.0469 97.9688 43.1055 96.9336 42.6953 96.3672C42.4219 96.0156 42.0508 95.9961 35.7031 95.8984L29.0039 95.8008L23.0078 88.3008C17.5977 81.5625 16.9922 80.7422 16.9922 80.0977C16.9922 78.1055 16.0352 76.7578 14.2188 76.2109L13.0664 75.8398L10.0195 72.0508C8.35938 69.9609 6.07422 67.0898 4.94141 65.6836L2.91016 63.0859L7.51953 42.832C10.0586 31.6797 12.2461 22.4414 12.3828 22.3242C12.5586 22.1289 31.1914 13.0859 48.9844 4.55078L50.0195 4.04297L57.0898 7.46094L64.1602 10.8789L65.0195 12.168C66.2695 14.0039 66.9531 14.3359 69.1406 14.1992L70.8398 14.082L79.1211 18.0859C83.6719 20.2734 87.5 22.1875 87.6172 22.3242C87.7539 22.4414 89.9219 31.6797 92.4805 42.832L97.0898 63.0859L95.4492 65.1953C93.8086 67.2852 93.7891 67.2852 92.4414 67.7344C90.4883 68.3594 89.4531 69.5508 89.4531 71.1523C89.4531 71.9922 89.3164 72.1289 88.2227 72.5391C86.7969 73.0859 85.9375 74.5117 85.9375 76.4062C85.9375 77.0508 85.2539 77.9883 78.4766 86.4648L70.9961 95.8008L58.8477 95.8984C47.6562 95.9961 46.6602 96.0156 46.2891 96.3281C45.7422 96.7969 45.7617 97.9102 46.3281 98.4375C46.7383 98.8281 46.9336 98.8281 59.0625 98.8281C70.5664 98.8281 71.4453 98.7891 72.168 98.457C72.832 98.1641 74.2188 96.5234 80.5469 88.5742C84.7461 83.3398 88.3203 78.7305 88.5156 78.3398C88.7109 77.9492 88.8672 77.2266 88.8672 76.6406C88.8672 75.5859 89.0234 75.332 89.8438 75.0977C90.5078 74.9023 91.543 74.1016 91.8359 73.5742C91.9531 73.3398 92.168 72.6172 92.2852 71.9922L92.5 70.8398L93.8477 70.3711C95.4492 69.8438 95.625 69.6875 97.8711 66.875C99.6484 64.6484 100 64.0234 100 63.125C100 62.3828 90.6445 21.4844 90.332 20.8984C90.1953 20.625 89.9023 20.2539 89.707 20.0586C89.4922 19.8828 85.3711 17.8125 80.5469 15.4688L71.7773 11.2305L69.8828 11.2695L67.9688 11.3281L67.1875 10.0781C66.7578 9.39453 66.1914 8.69141 65.957 8.53516C65.7031 8.37891 62.2656 6.67969 58.2812 4.76562C53.0273 2.24609 50.8398 1.28906 50.1953 1.23047C49.4531 1.17188 48.9648 1.32812 46.875 2.30469Z" fill="#393185"/>
<path d="M41.5428 12.6758C37.1483 14.8047 33.3983 16.6797 33.1835 16.8555C32.6171 17.3438 32.6756 18.418 33.3202 18.9258C33.6131 19.1602 34.0038 19.3359 34.1991 19.3359C34.3749 19.3359 37.6366 17.8516 41.4256 16.0156C45.2147 14.1992 48.3397 12.7344 48.3788 12.7539C48.4178 12.793 48.4178 20.4883 48.3983 29.8438L48.3397 46.875L34.2772 36.7188C26.5428 31.1328 20.1952 26.4844 20.1561 26.4062C20.1366 26.3281 22.246 25.2539 24.8436 24.0234C27.4413 22.793 29.7655 21.6211 30.0194 21.4258C30.9764 20.6641 30.371 18.9453 29.1405 18.9453C28.3983 18.9453 16.2303 24.7852 15.9178 25.293C15.7616 25.5078 13.7889 33.8281 11.5233 43.7891C8.12486 58.7109 7.44127 61.9727 7.61705 62.3047C7.94908 62.9102 30.2147 90.8398 30.7811 91.3477L31.2694 91.7969H49.9999H68.7303L69.2186 91.3672C69.785 90.8398 92.0507 62.9102 92.3827 62.3047C92.5585 61.9727 92.3241 60.625 91.0155 54.9219C90.1366 51.0938 89.3749 47.793 89.3358 47.5977C89.2772 47.4023 88.9452 47.1094 88.5936 46.9336C88.0272 46.6797 87.871 46.6602 87.3827 46.8945C86.328 47.4023 86.3475 47.7148 87.7538 53.8281C88.4569 56.9336 89.0038 59.4922 88.9842 59.5312C88.9452 59.5703 56.4061 50.2539 53.4569 49.3555C53.3788 49.3359 59.746 44.668 67.5975 39.0039C75.4491 33.3398 81.9139 28.7305 81.953 28.7695C82.0116 28.8086 82.7733 32.0898 83.6913 36.0547C85.4491 43.7891 85.5077 43.9453 86.6991 43.9453C87.3632 43.9453 88.0858 43.2227 88.0858 42.5781C88.0858 41.9531 84.3944 25.8008 84.1405 25.3125C84.0233 25.1172 82.6561 24.3359 81.0936 23.5742C79.5116 22.832 71.953 19.1992 64.2967 15.5078C56.621 11.8164 50.1561 8.78906 49.9413 8.80859C49.7069 8.80859 45.9178 10.5664 41.5428 12.6758ZM65.8983 19.5312C73.5936 23.2422 79.8827 26.3281 79.8827 26.3867C79.8827 26.4844 52.5585 46.3086 51.8358 46.7383C51.6014 46.875 51.5624 44.1406 51.5624 29.7852C51.5624 20.1758 51.6405 12.6953 51.7381 12.7344C51.8163 12.7539 58.203 15.8203 65.8983 19.5312ZM32.4999 39.0625C44.6483 47.832 46.621 49.3359 46.2499 49.4531C44.1991 50.0977 11.0741 59.5703 11.035 59.5312C10.996 59.4922 12.3241 53.5352 13.9842 46.2891C18.1249 28.1055 17.9881 28.6914 18.1639 28.75C18.242 28.7891 24.6874 33.418 32.4999 39.0625ZM39.3358 69.9023C34.9608 79.5898 31.3671 87.4805 31.328 87.4609C31.3085 87.4219 26.8358 81.8164 21.4061 75C14.9413 66.9141 11.6014 62.5781 11.7772 62.4805C11.8944 62.4219 15.4491 61.3867 19.6288 60.1758C23.828 58.9844 31.7381 56.6992 37.2069 55.1172C42.6952 53.5156 47.1874 52.2461 47.2264 52.2656C47.2655 52.2852 43.7108 60.2344 39.3358 69.9023ZM70.8006 57.4219C80.1561 60.1172 87.9491 62.3828 88.1444 62.4609C88.4178 62.5781 86.8163 64.6875 78.5936 75C73.1639 81.8164 68.6913 87.4219 68.6717 87.4609C68.6131 87.5 53.1249 53.3203 52.8124 52.5C52.7147 52.207 52.7733 52.1875 53.2421 52.3438C53.5546 52.4414 61.4647 54.7266 70.8006 57.4219ZM58.0467 71.2305L65.9569 88.7695L57.9881 88.8281C53.5936 88.8477 46.4061 88.8477 42.0116 88.8281L34.0428 88.7695L41.953 71.2305C46.328 61.6016 49.9413 53.7109 49.9999 53.7109C50.0585 53.7109 53.6717 61.6016 58.0467 71.2305Z" fill="#00A0E3"/>
</g>
<defs>
<clipPath id="clip0_1295_950">
<rect width="100" height="100" fill="white"/>
</clipPath>
</defs>
</svg>
