<svg width="45" height="42" viewBox="0 0 45 42" fill="none" xmlns="http://www.w3.org/2000/svg">
<path fill-rule="evenodd" clip-rule="evenodd" d="M27.6936 33.6344C27.3008 33.6344 26.8561 33.5819 26.3846 33.477L18.8465 31.438C18.1663 31.2812 18.4542 30.2617 19.1082 30.4448L26.6206 32.4575C30.5205 33.4251 30.049 29.1635 27.1178 28.4839L18.0614 26.0001C16.177 25.4511 14.397 24.9544 12.7481 26.0001L7.59157 29.1898C6.98948 29.5558 6.43985 28.6669 7.04193 28.3009L12.1984 25.1112C14.3707 23.7519 16.5431 24.484 18.6635 25.085C20.679 25.6603 25.5732 27.0459 27.3533 27.4644C31.1488 28.3533 31.7241 33.6344 27.6936 33.6344Z" fill="#393185"/>
<path fill-rule="evenodd" clip-rule="evenodd" d="M11.3611 40.8236C10.7852 40.8236 8.45557 40.7449 6.96348 39.4899C6.44007 39.0457 7.12083 38.2349 7.64423 38.6797C9.00521 39.8298 11.4654 39.7779 11.4917 39.7779H22.1707L42.5083 28.0389C43.5813 27.4379 43.9479 26.0785 43.3196 25.0066C42.7175 23.9609 41.3566 23.5948 40.2835 24.1958L29.8399 30.209C29.2641 30.575 28.7407 29.6599 29.3165 29.3201L39.7601 23.2812C42.2728 21.8432 45.3089 24.1696 44.55 26.9674C44.3408 27.8039 43.7911 28.5098 43.0317 28.954L22.5898 40.7449C22.2232 40.9542 12.8007 40.7711 11.4917 40.8236C11.4917 40.8236 11.4398 40.8236 11.3611 40.8236Z" fill="#393185"/>
<path fill-rule="evenodd" clip-rule="evenodd" d="M6.6486 42.0001H1.17794C0.523409 42.0001 0 41.451 0 40.8238V26.7846C0 26.1307 0.523409 25.6078 1.17794 25.6078H6.6486C7.30259 25.6078 7.826 26.1307 7.826 26.7846V40.8238C7.826 41.451 7.30259 42.0001 6.6486 42.0001ZM1.17794 26.6535C1.09927 26.6535 1.04682 26.706 1.04682 26.7846V40.8238C1.04682 40.8757 1.09927 40.9544 1.17794 40.9544H6.6486C6.72673 40.9544 6.77918 40.8757 6.77918 40.8238V26.7846C6.77918 26.706 6.72673 26.6535 6.6486 26.6535H1.17794Z" fill="#393185"/>
<path fill-rule="evenodd" clip-rule="evenodd" d="M3.92848 39.9611C1.59936 39.9611 1.59936 36.4316 3.92848 36.4316C6.23191 36.4316 6.23191 39.9611 3.92848 39.9611ZM3.92848 37.4774C2.98656 37.4774 2.98656 38.9154 3.92848 38.9154C4.84472 38.9154 4.84472 37.4774 3.92848 37.4774Z" fill="#393185"/>
<path fill-rule="evenodd" clip-rule="evenodd" d="M35.0754 12.6405C27.982 12.6405 20.8887 12.6405 13.7954 12.6405C13.3506 12.6405 13.1152 12.1438 13.3769 11.804L17.4073 6.36611C17.5122 6.23554 17.669 6.15686 17.8264 6.15686H31.411C31.594 6.15686 31.7508 6.23554 31.8557 6.36611L35.4677 11.7778C35.7818 12.1963 35.4414 12.6405 35.0754 12.6405ZM14.8165 11.5947H34.0805L31.1493 7.20259H18.0881L14.8165 11.5947Z" fill="#393185"/>
<path fill-rule="evenodd" clip-rule="evenodd" d="M24.4218 23.2814C24.2912 23.2814 24.16 23.2289 24.0557 23.124L13.4029 12.4838C13.0887 12.1702 13.3242 11.5948 13.7951 11.5948H35.0489C35.5199 11.5948 35.7554 12.1702 35.4412 12.4838L24.7884 23.124C24.6835 23.2289 24.5529 23.2814 24.4218 23.2814ZM15.0518 12.6406L24.4218 22.0264L33.7923 12.6406H15.0518Z" fill="#393185"/>
<path fill-rule="evenodd" clip-rule="evenodd" d="M28.7133 12.6405C25.8602 12.6405 23.0071 12.6405 20.1284 12.6405C19.788 12.6405 19.5263 12.3006 19.6306 11.9608L21.2539 6.52292C21.332 6.28744 21.5418 6.15686 21.7773 6.15686H27.2474C27.4834 6.15686 27.6927 6.31366 27.7451 6.52292L29.2367 12.1176C29.2367 12.405 29.0012 12.6405 28.7133 12.6405ZM20.8348 11.5947H28.0331L26.8289 7.20259H22.1439L20.8348 11.5947Z" fill="#393185"/>
<path fill-rule="evenodd" clip-rule="evenodd" d="M24.4192 23.2814C24.21 23.2814 24.0269 23.1503 23.922 22.9672L19.6555 12.327C19.525 11.9609 19.7604 11.5948 20.127 11.5948H28.7119C29.0785 11.5948 29.3402 11.9609 29.1829 12.327L24.9169 22.9672C24.8383 23.1503 24.629 23.2814 24.4192 23.2814ZM20.9122 12.6406L24.4192 21.3724L27.9268 12.6406H20.9122Z" fill="#393185"/>
<path fill-rule="evenodd" clip-rule="evenodd" d="M24.4199 3.64692C24.132 3.64692 23.8965 3.41199 23.8965 3.12406V0.50975C23.8965 -0.169917 24.9438 -0.169917 24.9438 0.50975V3.12406C24.9438 3.41199 24.7078 3.64692 24.4199 3.64692Z" fill="#393185"/>
<path fill-rule="evenodd" clip-rule="evenodd" d="M30.3892 5.08488C29.9707 5.08488 29.7352 4.6407 29.9182 4.30086L31.253 2.02584C31.5934 1.42485 32.4834 1.94771 32.143 2.54925L30.8345 4.82373C30.7296 4.98053 30.5728 5.08488 30.3892 5.08488Z" fill="#393185"/>
<path fill-rule="evenodd" clip-rule="evenodd" d="M18.4549 5.08488C18.2976 5.08488 18.1146 4.98053 18.0096 4.82373L16.7011 2.54925C16.3607 1.94771 17.2508 1.42485 17.6174 2.02584L18.9259 4.30086C19.1089 4.6407 18.8734 5.08488 18.4549 5.08488Z" fill="#393185"/>
</svg>
