<svg width="100" height="100" viewBox="0 0 100 100" fill="none" xmlns="http://www.w3.org/2000/svg">
<g clip-path="url(#clip0_1295_956)">
<path d="M35.7549 11.0349C35.5204 11.1132 32.6874 12.8544 29.4441 14.8891L23.5631 18.6064L15.3375 27.2148L7.1119 35.8232L3.55595 42.1035L0 48.3837L0.722913 55.0748C1.13322 58.7333 1.58259 62.0202 1.71936 62.3724C1.89521 62.8419 2.1492 63.0375 2.71581 63.1941C3.12611 63.3115 12.9343 64.0549 24.5009 64.8375C36.0871 65.6201 45.6022 66.3048 45.6412 66.3635C45.6803 66.4027 45.1919 70.9221 44.5666 76.4197C43.9414 81.8978 43.4334 86.8476 43.4139 87.3954C43.4139 88.1976 43.5116 88.4715 43.9023 88.8432C44.4494 89.3519 44.8792 89.3715 49.4512 89.0389C52.9485 88.7845 69.3606 87.6693 83.6626 86.6911C97.9255 85.7129 97.4565 85.7716 98.0427 85.2433C98.5116 84.852 98.5702 84.5586 99.3127 77.9849C99.7425 74.2089 100.036 70.9612 99.9965 70.746C99.9379 70.5308 98.3358 67.6157 96.421 64.2506L92.9432 58.166L85.3038 50.1641C81.0835 45.7816 77.3127 41.8491 76.9024 41.4578C76.2576 40.8122 71.373 37.6427 65.8047 34.2385C64.0071 33.1233 64.6128 33.182 58.1652 33.6516C55.5862 33.8472 53.4174 33.945 53.3588 33.8863C53.3002 33.8276 52.7336 29.23 52.1279 23.6932C51.5027 18.1564 50.9361 13.3631 50.8579 13.0501C50.5649 11.8566 50.389 11.8175 42.984 11.3284C39.0569 11.0545 36.0089 10.9371 35.7549 11.0349ZM42.0462 14.6152C44.4689 14.7913 46.4618 14.9478 46.4814 14.9674C46.5791 15.0652 39.6039 27.8018 39.4476 27.8018C39.2718 27.8018 32.2576 24.104 32.0036 23.8888C31.8082 23.6932 37.1226 14.3022 37.4352 14.3022C37.5524 14.3022 39.6235 14.4392 42.0462 14.6152ZM29.7958 20.5629L28.135 23.478L20.2416 31.7538C12.3872 39.9514 12.3091 40.0296 9.94494 41.5556C6.13499 43.9817 6.2913 44.0599 8.18651 40.7144L9.84725 37.7993L17.7407 29.5234L25.6537 21.2476L28.5062 19.4281C30.0888 18.4499 31.3979 17.6282 31.4174 17.6282C31.437 17.6282 30.714 18.939 29.7958 20.5629ZM49.0995 26.6866C49.7833 32.7516 49.9006 34.3363 49.7052 34.6102C49.2167 35.295 49.119 35.8232 48.6697 39.9709C48.4157 42.3187 48.1617 44.236 48.103 44.236C48.0444 44.236 46.6572 41.0861 45.0355 37.2514L42.0657 30.2669L45.1137 24.6323C46.794 21.5215 48.1812 19.0173 48.2203 19.0368C48.2398 19.076 48.6306 22.5193 49.0995 26.6866ZM33.5276 28.5061C35.4618 29.543 37.1421 30.4625 37.2398 30.5408C37.3375 30.6386 33.4494 34.845 28.6039 39.9122L19.7922 49.1076L18.6785 47.2098C18.0728 46.1729 17.0764 44.4903 16.4902 43.4925L15.4352 41.6535L16.0995 40.9491C19.3233 37.5058 29.7958 26.6279 29.8739 26.6279C29.9325 26.6279 31.5737 27.4692 33.5276 28.5061ZM43.6093 42.3774L47.3606 51.1814L46.9308 55.4856C46.6768 57.8529 46.4228 59.8681 46.3446 59.9659C46.2274 60.0833 23.778 51.8466 22.7229 51.2792C22.5471 51.1814 24.9894 48.5011 31.0071 42.2013C35.7158 37.2906 39.643 33.3385 39.7212 33.4168C39.7993 33.495 41.5578 37.5253 43.6093 42.3774ZM65.492 41.2426C66.9379 43.786 68.1492 45.9577 68.1883 46.0751C68.2469 46.349 60.5489 50.438 60.4707 50.1836C60.4317 50.0858 58.8686 47.1902 57.0125 43.7469C54.1599 38.5036 53.6519 37.4667 53.9254 37.3493C54.1013 37.2906 56.1528 37.0949 58.4583 36.9384C60.7638 36.7819 62.6981 36.6449 62.7567 36.6449C62.8153 36.6254 64.0462 38.6992 65.492 41.2426ZM71.9983 42.0839C74.3233 43.5121 74.3233 43.5317 82.2558 51.827L90.2079 60.1224L91.8295 62.9593C92.7283 64.5245 93.4317 65.8157 93.3926 65.8548C93.3535 65.894 92.1031 65.1701 90.5986 64.231L87.9024 62.5289L79.9699 54.2531L72.0373 45.9772L70.4938 43.2969C68.5986 39.9709 68.5791 39.9318 69.2043 40.3426C69.4778 40.4992 70.7283 41.2817 71.9983 42.0839ZM55.0977 47.2098L58.048 52.6488L53.183 64.094C50.5062 70.3743 48.2398 75.6763 48.1226 75.8719C47.9467 76.1654 47.9272 76.1067 48.0054 75.6371C48.1421 74.8741 51.8153 42.0056 51.8153 41.673C51.8153 41.2035 52.1279 41.7317 55.0977 47.2098ZM14.9467 47.425C16.0995 49.401 17.0373 51.1032 17.0373 51.201C17.0373 51.2988 14.2238 53.0596 10.8046 55.1335L4.5524 58.8703L4.45471 58.166C4.20071 56.4639 3.53641 50.0467 3.59503 49.7728C3.65364 49.4989 12.2309 43.8838 12.6412 43.8643C12.7584 43.8447 13.794 45.4686 14.9467 47.425ZM78.3873 57.4225C81.7674 60.9441 84.5613 63.918 84.6004 63.9962C84.659 64.1332 80.8491 70.7656 80.4583 71.196C80.2825 71.3916 78.3482 69.4547 71.5489 62.3332C66.762 57.3247 62.8348 53.177 62.8153 53.0987C62.7762 53.0009 64.4565 52.0423 66.5276 50.9466L70.2789 48.9511L71.2558 49.9684C71.8029 50.5358 75.0071 53.8813 78.3873 57.4225ZM31.73 58.2638C38.2558 60.7094 43.5702 62.7245 43.5506 62.7636C43.5311 62.7832 36.7318 62.3137 28.4672 61.7463C20.183 61.1593 12.3872 60.6311 11.1368 60.5528C9.86679 60.4746 8.83127 60.3572 8.83127 60.2985C8.8508 60.142 19.421 53.8226 19.675 53.8226C19.7922 53.8226 25.2043 55.8182 31.73 58.2638ZM71.5098 67.1265C75.8473 71.646 77.5276 73.5242 77.3517 73.6611C77.0587 73.8568 48.2203 84.6955 48.1421 84.6368C48.1226 84.6173 50.7993 78.2783 54.0817 70.5308C57.3642 62.8028 60.1386 56.2486 60.2363 55.9943C60.4317 55.4856 59.2007 54.2531 71.5098 67.1265ZM91.9858 69.0243C95.5223 71.2547 96.5578 72.0177 96.5578 72.3112C96.5578 72.9568 95.6004 81.0565 95.5027 81.1543C95.4636 81.213 83.7016 74.2285 82.9592 73.7002C82.9006 73.6611 87.2771 66.1679 87.3358 66.1483C87.3748 66.1483 89.4654 67.4396 91.9858 69.0243ZM86.0072 79.4327L91.4974 82.7391L90.1688 82.8565C88.1368 83.0521 57.7158 85.126 57.1297 85.126C56.7389 85.1064 79.6963 76.2436 80.3802 76.1458C80.4388 76.1262 82.9787 77.6132 86.0072 79.4327Z" fill="#00A0E3"/>
<path d="M66.6992 15.9074L66.7579 17.5312L68.36 17.5899L69.9621 17.6486L70.0207 19.2529L70.0793 20.8572L71.701 20.9159L73.3032 20.9746V19.2921V17.6291H71.6424H69.9817V15.9661V14.3031H68.3209H66.6406L66.6992 15.9074Z" fill="#393185"/>
<path d="M63.378 19.2316L63.4366 20.8555L65.0387 20.9142L66.6408 20.9729L66.6994 22.5771L66.7581 24.1814L68.3797 24.2401L69.9819 24.2988V22.6163V20.9533H68.3211H66.6604V19.2903V17.6273H64.9996H63.3193L63.378 19.2316Z" fill="#393185"/>
<path d="M71.7471 29.2687V30.9316H73.4078H75.0686V29.2687V27.6057H73.4078H71.7471V29.2687Z" fill="#393185"/>
<path d="M91.6748 39.2472V40.9102H93.3356H94.9963V39.2472V37.5842H93.3356H91.6748V39.2472Z" fill="#393185"/>
<path d="M18.4014 69.3761V71.0391H20.0621H21.7229V69.3761V67.7131H20.0621H18.4014V69.3761Z" fill="#393185"/>
<path d="M13.3215 76.0288V77.6918H11.6607H10V79.3548V81.0178H11.6607H13.3215V82.6808V84.3438H14.9822H16.643V82.6808V81.0178H18.3037H19.9645V79.3548V77.6918H18.3037H16.643V76.0288V74.3658H14.9822H13.3215V76.0288ZM16.643 79.3548V81.0178H14.9822H13.3215V79.3548V77.6918H14.9822H16.643V79.3548Z" fill="#393185"/>
</g>
<defs>
<clipPath id="clip0_1295_956">
<rect width="100" height="100" fill="white"/>
</clipPath>
</defs>
</svg>
