<svg width="100" height="100" viewBox="0 0 100 100" fill="none" xmlns="http://www.w3.org/2000/svg">
<path d="M14.1008 14.1252C4.8561 23.3693 2 26.3756 2 26.8265C2 28.2545 4.60557 41.7325 4.93126 42.0581C5.1818 42.3337 10.3178 42.8848 24.949 44.2878C35.7471 45.3149 44.8666 46.0915 45.2173 45.9913C45.5681 45.9161 45.8938 45.6656 45.994 45.4652C46.1693 44.9642 42.4614 6.03337 42.1608 5.33191C42.0355 5.03129 41.7098 4.73067 41.4593 4.65551C40.8329 4.48015 26.9784 2 26.5524 2C26.3771 2 20.7651 7.46133 14.1008 14.1252ZM33.2167 5.78285C35.5717 6.20873 37.6762 6.60956 37.8516 6.65967C38.1021 6.73482 36.8745 8.13774 34.2439 10.7682C32.0392 12.9728 30.2353 14.7264 30.1852 14.6763C30.1351 14.6513 29.7593 12.7473 29.3584 10.4926C28.9576 8.23794 28.5567 6.08347 28.4565 5.68264C28.3563 5.25676 28.4315 5.00624 28.6068 5.00624C28.7822 5.00624 30.8366 5.35696 33.2167 5.78285ZM26.828 11.2191C27.279 13.7494 27.6047 15.8537 27.5796 15.9039C27.5295 15.954 25.4 15.6032 22.8445 15.1272C20.2891 14.6763 18.1094 14.2755 17.9591 14.2755C17.8338 14.2755 19.5124 12.4717 21.7171 10.2672C23.9218 8.06258 25.7758 6.35904 25.876 6.45925C25.9512 6.55946 26.3771 8.68888 26.828 11.2191ZM40.1314 9.44044C40.1314 9.69096 40.7578 16.3047 41.5094 24.171C42.261 32.0123 42.8372 38.4757 42.7871 38.5007C42.712 38.601 31.488 18.885 31.2124 18.1585C31.0871 17.8329 32.0893 16.6805 35.3963 13.3736C37.8015 10.9686 39.8308 9.01456 39.931 9.01456C40.0563 9.01456 40.1314 9.21497 40.1314 9.44044ZM21.4666 17.5322C23.7966 17.9581 25.9011 18.3589 26.0764 18.4341C26.327 18.5093 25.1244 19.8871 22.4687 22.5426C20.264 24.7472 18.4602 26.5008 18.4351 26.4758C18.385 26.4507 18.0342 24.4967 17.6083 22.1668C17.1824 19.812 16.7565 17.6575 16.7064 17.3318C16.6062 16.9811 16.6814 16.7807 16.8818 16.7807C17.0572 16.7807 19.1116 17.1314 21.4666 17.5322ZM15.0529 22.8182C15.5038 25.4236 15.8546 27.6282 15.8045 27.6783C15.7544 27.7284 14.627 27.553 13.3242 27.3025C12.0214 27.052 9.84175 26.6512 8.46381 26.4257L6.00856 25.9748L9.96702 22.0165C12.1467 19.812 14.0006 18.0333 14.0758 18.0333C14.151 18.0333 14.5769 20.1877 15.0529 22.8182ZM35.1959 30.6094C38.4779 36.3713 41.1336 41.1312 41.1336 41.1813C41.1336 41.2815 20.1137 29.4069 19.8381 29.1564C19.788 29.0812 21.8173 26.9518 24.3477 24.4215C26.8781 21.8662 29.0327 19.8871 29.133 19.9873C29.2081 20.0875 31.9389 24.8725 35.1959 30.6094ZM9.94196 29.3568C12.4223 29.7827 14.5017 30.1835 14.5769 30.2336C14.627 30.2837 12.8732 32.1125 10.6936 34.3171C8.51391 36.5216 6.68501 38.2753 6.65995 38.2502C6.6349 38.2252 6.2591 36.221 5.80813 33.816C5.38222 31.411 4.98137 29.2315 4.90621 28.981C4.73083 28.4048 4.70578 28.4048 9.94196 29.3568ZM28.1058 36.8724C33.7428 40.079 38.2023 42.7345 38.0019 42.7846C37.6512 42.8598 11.2447 40.4297 9.59121 40.1792L8.7394 40.0289L13.224 35.5446C15.6792 33.0895 17.7336 31.0603 17.7837 31.0603C17.8338 31.0603 22.4687 33.6908 28.1058 36.8724Z" fill="#393185"/>
<path d="M69.6184 8.07032C66.1987 8.69297 63.1788 9.29338 62.9123 9.38233C62.6236 9.47128 62.3571 9.76037 62.2905 10.0272C62.0463 11.0279 58.8708 45.14 59.0041 45.4514C59.0707 45.6293 59.2928 45.8739 59.4926 45.9851C59.7369 46.0962 66.1321 45.5848 77.4126 44.5174C92.024 43.1164 94.9995 42.7829 95.3104 42.4716C95.5769 42.2047 96.021 40.2256 96.887 35.5335C97.531 31.931 98.0417 28.8178 97.9973 28.6177C97.8641 28.1062 76.7909 7.13635 76.2801 7.00293C76.0359 6.95846 73.0381 7.42544 69.6184 8.07032ZM74.5259 10.1162C74.4593 10.472 74.104 12.4289 73.7265 14.5192C73.349 16.5872 73.0159 18.3218 72.9715 18.344C72.9493 18.3662 71.2838 16.7429 69.2853 14.7415C67.2646 12.7179 65.7768 11.0724 65.9545 11.0724C66.1321 11.0724 68.0862 10.7166 70.2846 10.3163C72.4829 9.89379 74.3704 9.53799 74.4593 9.53799C74.5703 9.51575 74.5925 9.7826 74.5259 10.1162ZM83.7634 17.7658C83.5414 17.9437 75.5029 19.3669 75.3697 19.2335C75.2587 19.1445 76.5022 11.5838 76.7464 10.8722C76.8131 10.6499 78.0566 11.7395 80.3882 14.0744C82.3423 16.0313 83.8523 17.6769 83.7634 17.7658ZM72.1721 21.1237C72.1721 21.2126 69.8183 25.4155 66.9537 30.4634C61.913 39.2916 61.7132 39.6029 61.8464 38.4244C62.1795 35.2222 64.178 13.8743 64.178 13.4518C64.178 13.096 65.1773 13.9632 68.175 16.9653C70.3734 19.1668 72.1721 21.0347 72.1721 21.1237ZM84.9848 20.4565C84.9181 20.7456 84.5406 22.7248 84.1631 24.8595C83.7634 26.9943 83.4304 28.7733 83.4082 28.7956C83.3859 28.8178 81.7427 27.2167 79.7442 25.2153L76.1247 21.5907L78.7672 21.1014C80.2105 20.8346 82.098 20.4788 82.9418 20.3231C85.1402 19.9006 85.118 19.9006 84.9848 20.4565ZM94.0003 28.2396C93.3563 28.5065 85.8952 29.7962 85.7842 29.6628C85.6731 29.5516 86.9389 22.0132 87.1831 21.3238C87.2497 21.1014 88.4711 22.1688 90.8471 24.5482C93.7338 27.4168 94.3112 28.1062 94.0003 28.2396ZM81.987 31.1083C81.8538 31.2639 65.0884 40.826 63.7783 41.5153L63.2676 41.7822L63.6451 41.0484C64.0892 40.2033 72.9049 24.6594 73.571 23.5698L74.0151 22.8137L78.0788 26.8831C80.3216 29.1291 82.0758 31.0415 81.987 31.1083ZM95.377 30.9081C95.3326 31.1972 94.9551 33.1096 94.5776 35.1999C94.2001 37.268 93.867 39.0248 93.8004 39.0692C93.7338 39.1359 92.0906 37.5793 90.1587 35.6447C88.2046 33.6878 86.6946 32.0645 86.8278 32.02C87.1165 31.9088 94.8663 30.4634 95.2216 30.4411C95.3992 30.4189 95.4659 30.5968 95.377 30.9081ZM88.0491 36.8677C91.38 40.2256 91.9574 40.8705 91.491 40.8705C91.1802 40.8705 85.2512 41.4264 78.2786 42.0935C71.3282 42.7606 65.6214 43.2721 65.5992 43.2499C65.5103 43.1609 83.5858 32.8872 83.8301 32.8872C83.9633 32.865 85.8508 34.6662 88.0491 36.8677Z" fill="#00A0E3"/>
<path d="M22.457 51.3354C21.8688 51.8648 13.143 64.5711 13.045 65.0417C12.9666 65.5123 11.7901 64.0612 28.6729 84.5129C36.4575 93.9249 40.6929 98.9055 40.987 98.9643C41.2419 99.0427 41.5753 98.9839 41.7125 98.8662C42.5361 98.1799 69.184 65.6299 69.2428 65.2574C69.282 64.924 68.0075 62.924 64.7721 58.2375C62.2818 54.6296 60.0661 51.5314 59.8504 51.3354C59.4582 51.0216 58.2817 51.002 41.1439 51.002C24.0061 51.002 22.8296 51.0216 22.457 51.3354ZM38.7909 53.6884C38.2811 54.4923 32.7907 62.3945 32.4181 62.9043C32.1044 63.3161 32.026 63.2181 28.6729 58.3944C26.7905 55.6884 25.2414 53.3943 25.2022 53.3158C25.163 53.2374 28.2808 53.159 32.124 53.159H39.1242L38.7909 53.6884ZM57.1248 53.2766C57.1248 53.3354 55.5757 55.6296 53.6737 58.3748L50.2226 63.3357L46.85 58.4924C44.9872 55.8061 43.3989 53.5119 43.3204 53.3943C43.2224 53.2178 44.8107 53.159 50.1442 53.159C53.9874 53.159 57.1248 53.2178 57.1248 53.2766ZM26.7121 59.1199C28.5749 61.7867 30.0455 64.022 30.0063 64.0612C29.9671 64.1005 26.7905 64.1201 22.9669 64.1005L16.0255 64.0416L19.5354 58.9827C21.4766 56.1983 23.1237 53.9825 23.2022 54.0805C23.2806 54.159 24.8493 56.4336 26.7121 59.1199ZM44.6538 58.9238C46.5558 61.669 48.1049 63.9632 48.1049 64.022C48.1049 64.0809 44.9675 64.1397 41.1243 64.1397C37.281 64.1397 34.1829 64.0612 34.2221 63.9828C34.3005 63.7867 41.1047 53.9433 41.1635 53.9433C41.1831 53.9433 42.7518 56.1787 44.6538 58.9238ZM62.9681 59.2376L66.3015 64.0416L62.7916 64.1005C60.8504 64.1201 57.6934 64.1201 55.7522 64.1005L52.2227 64.0416L55.713 59.0023C58.3797 55.1394 59.2425 54.0413 59.419 54.1982C59.5562 54.3355 61.1445 56.5904 62.9681 59.2376ZM31.3789 66.4143C31.5554 66.8849 38.8693 93.4543 38.8105 93.4935C38.7713 93.5524 16.4373 66.4927 16.3784 66.277C16.3392 66.179 19.1824 66.1005 23.7708 66.1005C30.3985 66.1005 31.2612 66.1397 31.3789 66.4143ZM48.8108 66.4339C48.752 66.63 47.0656 72.7478 45.0656 80.0225C40.987 94.8661 41.2223 94.0033 41.1439 93.9053C41.0262 93.7877 33.5946 66.6692 33.5946 66.3947C33.5946 66.1397 34.6927 66.1005 41.2615 66.1005C48.4578 66.1005 48.9088 66.1201 48.8108 66.4339ZM65.9486 66.2574C65.9486 66.3947 44.3989 92.6111 43.6734 93.3563C43.4185 93.6112 43.4185 93.572 43.5753 93.0621C43.693 92.7288 45.3597 86.6502 47.3206 79.5323C49.2618 72.4144 50.9089 66.4731 50.9481 66.3358C51.0069 66.1594 52.6933 66.1005 58.4974 66.1005C62.5955 66.1005 65.9486 66.1594 65.9486 66.2574Z" fill="#00A0E3"/>
</svg>
