<svg width="20" height="20" viewBox="0 0 20 20" fill="none" xmlns="http://www.w3.org/2000/svg">
<path d="M0 10C0 4.49219 4.45312 0 10 0C15.5078 0 20 4.49219 20 10C20 15.5469 15.5078 20 10 20C4.45312 20 0 15.5469 0 10ZM14.4922 8.28125C14.9219 7.85156 14.9219 7.1875 14.4922 6.75781C14.0625 6.32812 13.3984 6.32812 12.9688 6.75781L8.75 10.9766L6.99219 9.25781C6.5625 8.82812 5.89844 8.82812 5.46875 9.25781C5.03906 9.6875 5.03906 10.3516 5.46875 10.7812L7.96875 13.2812C8.39844 13.7109 9.0625 13.7109 9.49219 13.2812L14.4922 8.28125Z" fill="#393185"/>
</svg>
