<svg width="140" height="103" viewBox="0 0 140 103" fill="none" xmlns="http://www.w3.org/2000/svg">
<path d="M108.334 1.10901L31.038 1.10901L1.50195 29.0172L68.744 100.783L138.5 29.5496L108.335 1.10901H108.334Z" stroke="black" stroke-width="2"/>
<path d="M1.5 29.3219L137.839 29.758" stroke="black" stroke-width="2"/>
<path d="M30.6953 1.66089L48.9314 29.7518" stroke="black" stroke-width="2"/>
<path d="M47.9961 29.78L68.996 1.49622" stroke="black" stroke-width="2"/>
<path d="M68.5059 1.49609L89.5058 29.2837" stroke="black" stroke-width="2"/>
<path d="M89.9707 29.9764L108.632 1" stroke="black" stroke-width="2"/>
<path d="M69.002 1.99292V29.7805" stroke="black" stroke-width="2"/>
<path d="M68.9004 29.1044V101" stroke="black" stroke-width="2"/>
<path d="M48.2598 29.3218L68.4591 99.9102" stroke="black" stroke-width="2"/>
<path d="M89.9725 29.5409L69.3359 100.129" stroke="black" stroke-width="2"/>
<path d="M108.445 1.80103L116.074 29.393" stroke="black" stroke-width="2"/>
<path d="M30.9 1.14905L22.5918 28.9536" stroke="black" stroke-width="2"/>
<path d="M22.3555 28.887L68.6812 99.9111" stroke="black" stroke-width="2"/>
<path d="M116.546 29.1041L68.6855 100.564" stroke="black" stroke-width="2"/>
</svg>
