<svg width="100" height="100" viewBox="0 0 100 100" fill="none" xmlns="http://www.w3.org/2000/svg">
<path d="M46.9767 6.02943C46.7618 6.06868 45.3155 6.26493 43.752 6.44156C41.3482 6.73593 40.8596 6.85368 40.4883 7.22655C39.902 7.8153 39.9215 8.58068 40.5274 9.16943C41.0941 9.75818 40.8401 9.75818 44.7683 9.24793C49.5956 8.61993 52.019 8.7573 63.4715 10.3273C68.6701 11.0338 72.9697 11.6422 72.9892 11.6814C73.0283 11.7207 67.8688 12.8001 61.5367 14.0953L50.006 16.4503L38.4557 14.0953C30.1888 12.4076 27.0618 11.7011 27.4527 11.6029C27.7654 11.5244 29.6025 11.2693 31.5373 11.0142C34.6057 10.6217 35.1138 10.5039 35.5047 10.1114C36.1105 9.50305 36.0323 8.56106 35.3092 8.03118L34.7816 7.63868L26.0456 8.81618C17.9155 9.91518 17.2901 10.0329 16.8796 10.4647C16.2738 11.0927 0.443512 31.5027 0.189446 32.0129C-0.201426 32.7194 -0.0450771 33.1315 1.20571 34.8978C3.00372 37.449 29.8142 73.4421 30.3419 73.9916C31.2604 74.9336 32.7848 74.3449 32.7848 73.03C32.7848 72.6179 30.4624 69.0649 19.6353 54.6798C11.857 44.3178 5.52484 35.8398 5.54438 35.8005C5.62256 35.722 27.9999 42.8263 28.1367 42.9833C28.3126 43.1795 45.511 88.8076 45.4328 88.8861C45.4132 88.9253 43.5957 86.5703 41.4264 83.6659C39.2375 80.7614 38.3418 79.3279 38.1659 79.269C37.1301 78.8569 36.1529 79.4456 36.1529 80.4465C36.1529 81.0549 35.7392 80.938 39.5111 85.962C44.5533 92.6933 45.296 93.5568 46.7227 94.3418C47.6217 94.8325 48.0125 94.9306 49.6151 94.9895C51.6867 95.068 53.0157 94.7147 54.3642 93.6942C54.7746 93.3998 61.2435 84.9807 69.5496 73.9319C85.0476 53.2864 83.5785 55.0125 82.5623 54.0705C81.9955 53.5406 81.2529 53.521 80.7252 54.0313C80.4907 54.2471 75.2954 61.4111 67.9665 71.1844C60.6181 80.938 54.5987 88.9057 54.5792 88.8861C54.501 88.8076 71.6993 43.1795 71.8752 42.9833C71.973 42.8655 94.2331 35.7613 94.4871 35.7613C94.5458 35.7613 92.5132 38.5088 89.9726 41.8646C86.1029 47.026 86.3798 47.0858 86.3798 47.6353C86.3798 48.4399 86.9661 49.0875 87.6502 49.0875C87.9433 49.0875 88.4124 48.8324 88.8032 48.4399C89.8 47.4783 99.8225 33.6614 99.9593 33.0923C100.038 32.8175 99.9984 32.3858 99.8811 32.1307C99.6857 31.6989 84.7153 12.3291 83.3473 10.7591L82.7024 10.0133L68.4551 8.0508C56.0449 6.36306 53.7584 6.10793 50.7877 6.02943C48.9115 5.99018 47.1917 5.99018 46.9767 6.02943ZM33.9803 16.1559C41.0159 17.5885 46.8595 18.8249 46.9572 18.9034C47.0354 18.9819 43.2244 23.5153 38.4557 28.971C31.7914 36.6051 29.7589 38.8228 29.6611 38.548C27.8827 33.8576 20.2998 13.5066 20.2998 13.4281C20.2998 13.3888 20.4952 13.3888 20.7493 13.4477C20.9838 13.5066 26.9446 14.7233 33.9803 16.1559ZM79.7122 13.4477C79.7122 13.5066 71.7971 34.7211 70.3508 38.548C70.2531 38.8228 68.2401 36.6248 61.6344 29.0495C56.9049 23.633 53.0352 19.1193 53.0352 19.0015C53.0352 18.9034 58.9374 17.6082 66.1294 16.1167C79.1259 13.4477 79.7122 13.3299 79.7122 13.4477ZM22.1564 26.8319C24.6971 33.6025 26.7101 39.1956 26.671 39.2349C26.6123 39.2938 21.4724 37.7238 15.2184 35.7416C7.01015 33.1512 3.90272 32.0718 3.96135 31.8952C4.09816 31.5615 17.4464 14.37 17.505 14.4485C17.5441 14.4878 19.6353 20.0613 22.1564 26.8319ZM89.3667 23.1424C92.9823 27.8132 95.992 31.7578 96.0506 31.8952C96.1092 32.0718 93.08 33.1119 84.7935 35.7416C78.5396 37.7238 73.3996 39.2938 73.341 39.2349C73.3019 39.1956 75.3344 33.5829 77.8751 26.7534C80.4158 19.9239 82.5656 14.4093 82.6437 14.5074C82.7219 14.5859 85.7512 18.4913 89.3667 23.1424ZM58.8006 30.2074C63.5301 35.6435 67.3998 40.118 67.3998 40.1769C67.3998 40.2358 59.5628 40.275 49.9864 40.275C40.4101 40.275 32.6122 40.1965 32.6513 40.118C32.7881 39.7648 49.9083 20.2575 50.0451 20.3164C50.1232 20.336 54.0515 24.7909 58.8006 30.2074ZM68.5724 43.2973C68.5724 43.4739 50.221 91.928 50.1232 92.0261C50.0646 92.1046 49.9474 92.1046 49.8887 92.0261C49.791 91.928 31.4396 43.4739 31.4396 43.2973C31.4396 43.258 39.8042 43.2188 50.006 43.2188C60.2273 43.2188 68.5724 43.258 68.5724 43.2973Z" fill="#00A0E3"/>
<path d="M83.8405 43.2928C83.3128 43.586 82.9024 44.1137 82.1206 45.5209C81.5539 46.5372 80.948 47.4362 80.7525 47.4948C79.7362 47.8857 77.6059 49.2929 77.3323 49.762C77.1368 50.0552 77 50.7001 77 51.1887C77 52.381 77.5668 53.0259 79.5994 54.14C81.163 54.9804 81.2216 55.0585 82.0229 56.5439C83.1956 58.7524 84.1337 59.4756 85.4823 59.241C86.44 59.0456 86.9677 58.5374 88.0231 56.7003C89.0003 55.0195 89.0589 54.9608 90.7788 53.9836C92.1078 53.2214 92.616 52.8305 92.8701 52.3028C93.7105 50.6415 93.0851 49.5079 90.6811 48.1594C89.0589 47.2799 89.0003 47.2212 88.0426 45.5404C87.5149 44.6023 86.8308 43.6641 86.5572 43.4687C85.8145 42.9215 84.6614 42.8433 83.8405 43.2928ZM88.1599 50.1138C88.9612 50.5633 89.6257 51.0128 89.6648 51.091C89.6843 51.1887 89.0785 51.5992 88.3162 52.0096C86.8504 52.8305 86.5572 53.1432 85.7168 54.8045C85.4236 55.3713 85.1109 55.7817 84.9937 55.7231C84.8959 55.6449 84.5441 55.0781 84.2314 54.4722C83.5865 53.1823 82.8438 52.4787 81.3584 51.7555C80.7916 51.4624 80.3226 51.1887 80.3226 51.1301C80.3226 51.0715 80.8698 50.7392 81.5539 50.3679C83.1956 49.4884 83.3715 49.2929 84.2705 47.6512L85.0718 46.2245L85.8927 47.7489C86.6549 49.1757 86.8113 49.332 88.1599 50.1138Z" fill="#393185"/>
<path d="M32.8405 69.2928C32.3128 69.586 31.9024 70.1137 31.1206 71.5209C30.5539 72.5372 29.948 73.4362 29.7525 73.4948C28.7362 73.8857 26.6059 75.2929 26.3323 75.762C26.1368 76.0552 26 76.7001 26 77.1887C26 78.381 26.5668 79.0259 28.5994 80.14C30.163 80.9804 30.2216 81.0585 31.0229 82.5439C32.1956 84.7524 33.1337 85.4756 34.4823 85.241C35.44 85.0456 35.9677 84.5374 37.0231 82.7003C38.0003 81.0195 38.0589 80.9608 39.7788 79.9836C41.1078 79.2214 41.616 78.8305 41.8701 78.3028C42.7105 76.6415 42.0851 75.5079 39.6811 74.1594C38.0589 73.2799 38.0003 73.2212 37.0426 71.5404C36.5149 70.6023 35.8308 69.6641 35.5572 69.4687C34.8145 68.9215 33.6614 68.8433 32.8405 69.2928ZM37.1599 76.1138C37.9612 76.5633 38.6257 77.0128 38.6648 77.091C38.6843 77.1887 38.0785 77.5992 37.3162 78.0096C35.8504 78.8305 35.5572 79.1432 34.7168 80.8045C34.4236 81.3713 34.1109 81.7817 33.9937 81.7231C33.8959 81.6449 33.5441 81.0781 33.2314 80.4722C32.5865 79.1823 31.8438 78.4787 30.3584 77.7555C29.7916 77.4624 29.3226 77.1887 29.3226 77.1301C29.3226 77.0715 29.8698 76.7392 30.5539 76.3679C32.1956 75.4884 32.3715 75.2929 33.2705 73.6512L34.0718 72.2245L34.8927 73.7489C35.6549 75.1757 35.8113 75.332 37.1599 76.1138Z" fill="#393185"/>
</svg>
