<svg width="1192" height="108" viewBox="0 0 1192 108" fill="none" xmlns="http://www.w3.org/2000/svg">
<path d="M879.665 5.88892H901.04C902.785 5.88892 904.311 6.54317 905.62 7.85184C906.929 9.1605 907.583 10.6874 907.583 12.4322C907.583 14.3225 906.856 15.9221 905.402 17.2307C904.093 18.394 902.639 18.9756 901.04 18.9756H880.537C878.647 18.9756 876.975 19.9207 875.521 21.811L857.418 45.1489C855.818 46.8938 855.018 49.4384 855.018 52.7828V88.3349C855.018 90.2252 855.673 91.8247 856.981 93.1333C858.145 94.442 859.671 95.0963 861.562 95.0963H887.735C889.48 95.0963 891.007 94.442 892.315 93.1333C893.624 91.8247 894.206 90.2978 894.06 88.5529V74.5939H880.756C879.011 74.5939 877.484 73.9395 876.175 72.6309C875.012 71.4676 874.43 70.0135 874.43 68.2686C874.43 66.3783 875.012 64.8516 876.175 63.6884C877.484 62.3797 879.011 61.7253 880.756 61.7253H907.147V88.5529C907.147 93.933 905.184 98.5135 901.258 102.294C897.623 106.075 893.115 107.965 887.735 107.965H861.562C856.182 107.965 851.601 106.075 847.821 102.294C843.895 98.5135 841.932 93.933 841.932 88.5529V53.0009C841.932 46.6029 843.677 41.1502 847.166 36.6425L866.142 12.6503C867.596 10.76 869.559 9.1605 872.031 7.85184C874.503 6.54317 877.048 5.88892 879.665 5.88892ZM995.7 18.9756H950.115V50.3835H969.745C971.49 50.3835 973.017 51.0379 974.325 52.3465C975.488 53.6552 976.07 55.1819 976.07 56.9268C976.07 58.6717 975.488 60.1986 974.325 61.5072C973.017 62.8159 971.49 63.4702 969.745 63.4702H950.115V95.0963H995.7C997.445 95.0963 998.972 95.678 1000.28 96.8413C1001.59 98.1499 1002.24 99.6767 1002.24 101.422C1002.24 103.166 1001.59 104.693 1000.28 106.002C998.972 107.31 997.445 107.965 995.7 107.965H937.246V5.88892H995.7C997.445 5.88892 998.972 6.54317 1000.28 7.85184C1001.59 9.1605 1002.24 10.76 1002.24 12.6503C1002.24 14.3952 1001.59 15.8493 1000.28 17.0125C998.972 18.3212 997.445 18.9756 995.7 18.9756ZM1057.86 46.0213V42.7496L1044.56 23.7741V101.422C1044.56 103.166 1043.98 104.693 1042.81 106.002C1041.5 107.31 1039.98 107.965 1038.23 107.965C1036.34 107.965 1034.81 107.31 1033.65 106.002C1032.34 104.693 1031.69 103.166 1031.69 101.422V5.88892H1048.26L1064.19 29.0086L1080.55 5.88892H1096.9V101.422C1096.9 103.166 1096.25 104.693 1094.94 106.002C1093.63 107.31 1092.11 107.965 1090.36 107.965C1088.62 107.965 1087.09 107.31 1085.78 106.002C1084.47 104.693 1083.82 103.166 1083.82 101.422V23.9921L1070.73 42.3135V46.0213C1070.88 47.7662 1070.29 49.293 1068.99 50.6017C1067.68 51.9104 1066.15 52.5646 1064.41 52.5646C1062.66 52.5646 1061.13 51.9104 1059.82 50.6017C1058.52 49.293 1057.86 47.7662 1057.86 46.0213ZM1141.4 5.88892H1174.99C1179.06 5.88892 1182.91 7.63372 1186.55 11.1235C1190.18 14.6133 1192 18.8302 1192 23.7741C1192 25.5189 1191.35 27.0457 1190.04 28.3543C1188.73 29.663 1187.27 30.3174 1185.68 30.3174C1183.49 30.3174 1182.04 29.8084 1181.31 28.7906C1180.44 27.7727 1179.64 25.9551 1178.91 23.3378C1178.19 20.5751 1176.51 19.1936 1173.9 19.1936H1141.83C1140.38 19.1936 1139.65 19.7026 1139.65 20.7204C1139.65 21.3021 1139.94 21.9565 1140.53 22.6835L1188.51 83.9727C1190.84 86.8808 1192 90.007 1192 93.3514C1192 97.2774 1190.62 100.695 1187.86 103.603C1185.09 106.511 1181.97 107.965 1178.48 107.965H1143.8C1139.14 107.965 1135.07 106.22 1131.58 102.73C1128.24 99.095 1126.57 95.2417 1126.57 91.1703C1126.57 86.3719 1128.82 83.9727 1133.33 83.9727C1135.07 83.9727 1136.53 84.5543 1137.69 85.7175C1139 87.0262 1139.65 88.4803 1139.65 90.0797C1139.65 91.5338 1140.09 92.6972 1140.96 93.5696C1141.98 94.5874 1143.22 95.0963 1144.67 95.0963H1176.73C1178.19 95.0963 1178.91 94.5147 1178.91 93.3514C1178.91 92.9152 1178.62 92.2609 1178.04 91.3885L1130.06 30.3174C1127.73 27.4092 1126.57 24.2102 1126.57 20.7204C1126.57 16.7944 1128.02 13.3773 1130.93 10.4692C1133.84 7.41564 1137.33 5.88892 1141.4 5.88892Z" fill="#393185"/>
<path d="M840.166 91.6064V40.1322C841.038 37.5149 842.347 35.0429 844.092 32.7164L863.068 8.5061C864.376 6.76121 866.339 5.23436 868.957 3.92569C871.429 2.61702 873.973 1.96277 876.591 1.96277H897.966C899.71 1.96277 901.237 2.61702 902.546 3.92569C903.855 5.08895 904.509 6.61581 904.509 8.5061C904.509 10.3964 903.782 11.9231 902.328 13.0864C901.019 14.395 899.565 15.0494 897.966 15.0494H877.463C875.573 15.0494 873.828 15.9946 872.228 17.8849L854.125 41.0046C852.671 42.8949 851.944 45.5123 851.944 48.8567V84.4087C851.944 86.299 852.598 87.8985 853.907 89.2072C855.07 90.3705 856.597 90.9521 858.487 90.9521H884.661C886.406 90.9521 887.932 90.3705 889.241 89.2072C890.404 87.8985 890.986 86.3717 890.986 84.6268V70.6678H877.681C875.791 70.6678 874.264 70.0134 873.101 68.7047C871.938 67.5415 871.356 66.0147 871.356 64.1244C871.356 62.3795 871.938 60.8527 873.101 59.544C874.264 58.3808 875.791 57.7992 877.681 57.7992H903.855V84.6268C903.855 89.8615 901.964 94.3691 898.184 98.1497C894.403 101.93 889.895 103.821 884.661 103.821H858.487C853.107 103.821 848.454 101.93 844.528 98.1497C842.493 96.2594 841.038 94.0783 840.166 91.6064ZM992.408 15.0494H947.041V46.4574H966.671C968.415 46.4574 969.87 47.1117 971.033 48.4204C972.341 49.7291 972.996 51.1831 972.996 52.7826C972.996 54.6729 972.414 56.2724 971.251 57.5811C969.942 58.8898 968.415 59.544 966.671 59.544H947.041V90.9521H992.626C994.371 90.9521 995.897 91.6063 997.206 92.915C998.515 94.2237 999.169 95.7505 999.169 97.4954C999.169 99.2403 998.515 100.767 997.206 102.076C995.897 103.239 994.298 103.821 992.408 103.821H934.172V1.96277H992.408C994.298 1.96277 995.897 2.61702 997.206 3.92569C998.515 5.23436 999.169 6.76121 999.169 8.5061C999.169 10.251 998.515 11.7777 997.206 13.0864C995.897 14.395 994.298 15.0494 992.408 15.0494ZM1054.79 42.0951V38.8235L1041.48 19.8478V97.4954C1041.48 99.2403 1040.83 100.767 1039.52 102.076C1038.36 103.239 1036.9 103.821 1035.16 103.821C1033.27 103.821 1031.74 103.239 1030.58 102.076C1029.27 100.767 1028.61 99.2403 1028.61 97.4954V1.96277H1044.97L1061.11 25.0825L1077.47 1.96277H1093.83V97.4954C1093.83 99.2403 1093.18 100.767 1091.87 102.076C1090.56 103.239 1089.03 103.821 1087.29 103.821C1085.54 103.821 1084.01 103.239 1082.71 102.076C1081.4 100.767 1080.74 99.2403 1080.74 97.4954V20.066L1067.66 38.3872V42.0951C1067.66 43.84 1067.07 45.3669 1065.91 46.6755C1064.6 47.8388 1063.08 48.4204 1061.33 48.4204C1059.59 48.4204 1058.06 47.8388 1056.75 46.6755C1055.44 45.3669 1054.79 43.84 1054.79 42.0951ZM1138.11 1.96277H1171.7C1175.91 1.96277 1179.84 3.70758 1183.47 7.19736C1187.11 10.6871 1188.93 14.9039 1188.93 19.8478C1188.93 21.5927 1188.27 23.1195 1186.96 24.4282C1185.65 25.7369 1184.2 26.3911 1182.6 26.3911C1180.42 26.3911 1178.89 25.8823 1178.02 24.8644C1177.29 23.8466 1176.57 21.9562 1175.84 19.1935C1175.11 16.5761 1173.44 15.2675 1170.82 15.2675H1138.76C1137.31 15.2675 1136.58 15.7037 1136.58 16.5761C1136.58 17.1577 1136.87 17.8848 1137.45 18.7572L1185.44 79.8283C1187.76 82.8819 1188.93 86.0809 1188.93 89.4253C1188.93 93.2059 1187.54 96.5502 1184.78 99.4583C1182.02 102.366 1178.89 103.821 1175.4 103.821H1140.72C1136.07 103.821 1132 102.076 1128.51 98.586C1125.16 95.0962 1123.49 91.2429 1123.49 87.0261C1123.49 82.2277 1125.75 79.8283 1130.25 79.8283C1132 79.8283 1133.45 80.4827 1134.62 81.7914C1135.92 83.1001 1136.58 84.5541 1136.58 86.1536C1136.58 87.6077 1137.02 88.7709 1137.89 89.6433C1138.91 90.5158 1140.14 90.9521 1141.6 90.9521H1173.66C1175.11 90.9521 1175.84 90.4431 1175.84 89.4253C1175.84 88.8436 1175.48 88.1893 1174.75 87.4622L1126.98 26.3911C1124.66 23.483 1123.49 20.2841 1123.49 16.7943C1123.49 12.8683 1124.95 9.37855 1127.85 6.32499C1130.62 3.41684 1134.03 1.96277 1138.11 1.96277Z" fill="#393185"/>
<path fill-rule="evenodd" clip-rule="evenodd" d="M844.542 98.1497C848.468 101.93 853.121 103.821 858.501 103.821H884.674C889.909 103.821 894.416 101.93 898.197 98.1497C901.978 94.3691 903.868 89.8615 903.868 84.6268V57.7992H877.694C875.804 57.7992 874.277 58.3808 873.114 59.544C871.951 60.8527 871.369 62.3796 871.369 64.1244C871.369 66.0147 871.951 67.5415 873.114 68.7047C874.277 70.0134 875.804 70.6678 877.694 70.6678H890.999V84.6268C890.999 86.3717 890.418 87.8986 889.254 89.2072C887.946 90.3705 886.419 90.9521 884.674 90.9521H858.501C856.61 90.9521 855.084 90.3705 853.92 89.2072C852.612 87.8986 851.957 86.299 851.957 84.4088V48.8567C851.957 45.5123 852.684 42.8949 854.138 41.0046L872.242 17.8849C873.841 15.9946 875.586 15.0494 877.476 15.0494H897.979C899.578 15.0494 901.032 14.3951 902.341 13.0864C903.795 11.9231 904.522 10.3964 904.522 8.5061C904.522 6.61581 903.868 5.08895 902.559 3.92569C901.251 2.61702 899.724 1.96277 897.979 1.96277H876.604C873.987 1.96277 871.442 2.61702 868.97 3.92569C866.353 5.23436 864.39 6.76121 863.081 8.5061L844.105 32.7164C842.36 35.0429 841.052 37.5149 840.179 40.1322V91.6064C841.052 94.0783 842.506 96.2594 844.542 98.1497ZM997.219 13.0864C998.528 11.7777 999.182 10.251 999.182 8.5061C999.182 6.76121 998.528 5.23436 997.219 3.92569C995.911 2.61702 994.311 1.96277 992.421 1.96277H934.185V103.821H992.421C994.311 103.821 995.911 103.239 997.219 102.076C998.528 100.767 999.182 99.2403 999.182 97.4954C999.182 95.7505 998.528 94.2237 997.219 92.915C995.911 91.6063 994.384 90.9521 992.639 90.9521H947.054V59.544H966.684C968.429 59.544 969.956 58.8898 971.264 57.5811C972.428 56.2724 973.009 54.6729 973.009 52.7826C973.009 51.1832 972.355 49.7291 971.046 48.4204C969.883 47.1117 968.429 46.4574 966.684 46.4574H947.054V15.0494H992.421C994.311 15.0494 995.911 14.3951 997.219 13.0864ZM1056.76 46.6756C1058.07 47.8388 1059.6 48.4204 1061.34 48.4204C1063.09 48.4204 1064.62 47.8388 1065.92 46.6756C1067.09 45.3669 1067.67 43.84 1067.67 42.0951V38.3872L1080.76 20.066V97.4954C1080.76 99.2403 1081.41 100.767 1082.72 102.076C1084.03 103.239 1085.55 103.821 1087.3 103.821C1089.04 103.821 1090.57 103.239 1091.88 102.076C1093.19 100.767 1093.84 99.2403 1093.84 97.4954V1.96277H1077.48L1061.13 25.0825L1044.99 1.96277H1028.63V97.4954C1028.63 99.2403 1029.28 100.767 1030.59 102.076C1031.75 103.239 1033.28 103.821 1035.17 103.821C1036.92 103.821 1038.37 103.239 1039.53 102.076C1040.84 100.767 1041.5 99.2403 1041.5 97.4954V19.8478L1054.8 38.8235V42.0951C1054.8 43.84 1055.46 45.3669 1056.76 46.6756ZM1127.87 6.32499C1124.96 9.37855 1123.51 12.8683 1123.51 16.7943C1123.51 20.2841 1124.67 23.483 1127 26.3911L1174.76 87.4622C1175.49 88.1893 1175.85 88.8437 1175.85 89.4253C1175.85 90.4431 1175.13 90.9521 1173.67 90.9521H1141.61C1140.16 90.9521 1138.92 90.5158 1137.9 89.6433C1137.03 88.7709 1136.59 87.6077 1136.59 86.1536C1136.59 84.5541 1135.94 83.1001 1134.63 81.7914C1133.47 80.4827 1132.01 79.8283 1130.27 79.8283C1125.76 79.8283 1123.51 82.2277 1123.51 87.0261C1123.51 91.2429 1125.18 95.0962 1128.52 98.586C1132.01 102.076 1136.08 103.821 1140.74 103.821H1175.42C1178.91 103.821 1182.03 102.366 1184.8 99.4583C1187.56 96.5502 1188.94 93.2059 1188.94 89.4253C1188.94 86.0809 1187.78 82.8819 1185.45 79.8283L1137.46 18.7572C1136.88 17.8848 1136.59 17.1577 1136.59 16.5761C1136.59 15.7037 1137.32 15.2675 1138.77 15.2675H1170.84C1173.45 15.2675 1175.13 16.5761 1175.85 19.1935C1176.58 21.9562 1177.31 23.8466 1178.03 24.8644C1178.91 25.8823 1180.43 26.3911 1182.61 26.3911C1184.21 26.3911 1185.67 25.7369 1186.98 24.4282C1188.28 23.1195 1188.94 21.5927 1188.94 19.8478C1188.94 14.9039 1187.12 10.6871 1183.49 7.19736C1179.85 3.70758 1175.93 1.96277 1171.71 1.96277H1138.12C1134.05 1.96277 1130.63 3.41684 1127.87 6.32499ZM66.1025 6.1068C64.9392 4.79813 63.4124 4.14388 61.5221 4.14388C59.7773 4.14388 58.3232 4.79813 57.1599 6.1068C55.8513 7.41547 55.1969 8.94232 55.1969 10.6872V31.8439L35.5669 81.7914L15.9369 31.8439V10.6872C15.9369 8.94232 15.3553 7.41547 14.192 6.1068C12.8834 4.79813 11.3566 4.14388 9.6117 4.14388C7.7214 4.14388 6.19461 4.79813 5.03135 6.1068C3.72268 7.41547 3.06836 8.94232 3.06836 10.6872V34.4612L29.0236 101.203C30.3323 104.402 32.5134 106.002 35.5669 106.002C38.4751 106.002 40.5835 104.402 41.8921 101.203L68.0655 34.4612V10.6872C68.0655 8.94232 67.4112 7.41547 66.1025 6.1068ZM160.763 15.2675C162.071 13.9588 162.726 12.4321 162.726 10.6872C162.726 8.94232 162.071 7.41547 160.763 6.1068C159.454 4.79813 157.927 4.14388 156.182 4.14388H97.7286V106.002H156.182C157.927 106.002 159.454 105.42 160.763 104.257C162.071 102.948 162.726 101.421 162.726 99.6765C162.726 97.9316 162.071 96.4048 160.763 95.0961C159.6 93.7875 158.145 93.1332 156.401 93.1332H110.597V61.7251H130.227C131.972 61.7251 133.499 61.0709 134.808 59.7622C136.116 58.4536 136.771 56.854 136.771 54.9637C136.771 53.3643 136.116 51.9102 134.808 50.6015C133.499 49.2929 131.972 48.6385 130.227 48.6385H110.597V17.2305H156.182C157.927 17.2305 159.454 16.5762 160.763 15.2675ZM194.134 104.257C195.443 105.42 196.969 106.002 198.714 106.002C200.459 106.002 201.986 105.42 203.294 104.257C204.603 102.948 205.258 101.421 205.258 99.6765V68.9228L246.262 104.257C247.716 105.42 249.243 106.002 250.843 106.002C252.733 106.002 254.332 105.347 255.641 104.039C256.804 102.585 257.386 101.058 257.386 99.4583C257.386 97.7134 256.804 96.3322 255.641 95.3143L208.747 54.7456L255.423 15.0494C256.877 13.8862 257.531 12.4321 257.386 10.6872C257.386 8.94232 256.804 7.41547 255.641 6.1068C254.478 4.79813 253.024 4.14388 251.279 4.14388C249.534 4.14388 247.935 4.72548 246.481 5.88874L205.258 41.0046V10.6872C205.258 8.79692 204.603 7.27006 203.294 6.1068C201.986 4.79813 200.459 4.14388 198.714 4.14388C196.969 4.14388 195.443 4.79813 194.134 6.1068C192.971 7.41547 192.389 8.94232 192.389 10.6872V99.6765C192.389 101.421 192.971 102.948 194.134 104.257ZM287.267 99.4583C287.267 101.349 287.922 102.948 289.23 104.257C290.394 105.42 291.92 106.002 293.811 106.002C295.119 106.002 296.355 105.638 297.519 104.911C298.682 104.184 299.336 103.457 299.482 102.73L305.152 83.9725H334.816L339.832 101.421C340.705 104.475 342.886 106.002 346.375 106.002C347.83 106.002 349.211 105.42 350.52 104.257C351.683 102.948 352.264 101.421 352.264 99.6765C352.264 99.0949 352.192 98.4405 352.046 97.7135L326.091 8.28791C325.364 5.52517 323.401 4.14388 320.202 4.14388C317.003 4.14388 314.895 5.74325 313.877 8.94222L287.704 97.0592C287.413 97.9316 287.267 98.7313 287.267 99.4583ZM330.89 70.8858H309.078L320.202 34.025L330.89 70.8858ZM384.327 104.257C385.49 105.42 387.017 106.002 388.907 106.002C390.652 106.002 392.179 105.42 393.487 104.257C394.796 102.948 395.451 101.421 395.451 99.6765V50.3833H404.611L434.929 102.73C436.237 104.911 438.128 106.002 440.6 106.002C442.344 106.002 443.871 105.42 445.18 104.257C446.489 102.948 447.143 101.421 447.143 99.6765C447.143 98.3679 446.779 97.0592 446.052 95.7506L419.661 50.3833H427.949C433.184 50.3833 437.691 48.4931 441.472 44.7125C445.253 40.9319 447.143 36.3516 447.143 30.9715V23.5557C447.143 18.321 445.253 13.7407 441.472 9.81472C437.691 6.03412 433.184 4.14388 427.949 4.14388H382.364V99.6765C382.364 101.421 383.018 102.948 384.327 104.257ZM395.451 17.2305H427.949C429.694 17.2305 431.221 17.8122 432.529 18.9754C433.693 20.2841 434.274 21.8108 434.274 23.5557V31.1896C434.274 32.9345 433.693 34.4613 432.529 35.77C431.221 36.9333 429.694 37.5149 427.949 37.5149H395.451V17.2305ZM478.987 6.1068C477.678 7.41547 477.024 9.01498 477.024 10.9053C477.024 12.6502 477.678 14.1769 478.987 15.4856C480.15 16.6488 481.677 17.2305 483.567 17.2305H503.197V93.3513H483.567C481.677 93.3513 480.15 93.9329 478.987 95.0961C477.678 96.4048 477.024 97.9316 477.024 99.6765C477.024 101.567 477.678 103.094 478.987 104.257C480.15 105.565 481.677 106.22 483.567 106.22H535.696C537.441 106.22 538.968 105.565 540.276 104.257C541.44 103.094 542.021 101.567 542.021 99.6765C542.021 97.9316 541.44 96.4048 540.276 95.0961C538.968 93.9329 537.441 93.3513 535.696 93.3513H516.066V17.2305H535.696C537.441 17.2305 538.895 16.5762 540.058 15.2675C541.367 13.9588 542.021 12.4321 542.021 10.6872C542.021 8.94232 541.367 7.41547 540.058 6.1068C538.75 4.94354 537.296 4.36194 535.696 4.36194H483.567C481.677 4.36194 480.15 4.94354 478.987 6.1068ZM637.118 24.4282V10.9053C637.118 8.86957 636.463 7.27006 635.155 6.1068C633.846 4.94354 632.319 4.36194 630.574 4.36194C628.83 4.36194 627.375 4.94354 626.212 6.1068C624.904 7.41547 624.249 8.94232 624.249 10.6872V19.6297L604.401 44.7125L584.989 19.8478V10.9053C584.989 9.16038 584.335 7.63366 583.026 6.32499C581.718 5.01632 580.191 4.36194 578.446 4.36194C576.556 4.36194 575.029 4.94354 573.866 6.1068C572.557 7.41547 571.902 9.01498 571.902 10.9053V24.4282L598.076 57.3629V99.6765C598.076 101.567 598.657 103.094 599.821 104.257C601.129 105.565 602.729 106.22 604.619 106.22C606.364 106.22 607.891 105.565 609.2 104.257C610.363 103.094 610.944 101.567 610.944 99.6765V57.3629L637.118 24.4282ZM666.781 99.4583C666.781 101.349 667.362 102.948 668.526 104.257C669.834 105.565 671.434 106.22 673.324 106.22C674.633 106.22 675.869 105.856 677.032 105.129C678.195 104.257 678.85 103.457 678.995 102.73L684.448 83.9725H714.111L719.346 101.421C720.218 104.62 722.327 106.22 725.671 106.22C727.27 106.22 728.652 105.565 729.815 104.257C731.124 102.948 731.778 101.421 731.778 99.6765C731.778 99.0949 731.633 98.4405 731.342 97.7135L705.605 8.28791C704.732 5.52517 702.769 4.14388 699.716 4.14388C696.371 4.14388 694.19 5.81604 693.172 9.16041L667.217 97.2772C666.926 98.0043 666.781 98.7313 666.781 99.4583ZM710.403 70.8858H688.374L699.498 34.025L710.403 70.8858Z" fill="#00A0E3"/>
<path d="M64.9971 6.76139V30.5356L38.8238 97.2775C37.5151 100.476 35.4067 102.076 32.4986 102.076C29.445 102.076 27.2639 100.476 25.9552 97.2775L0 30.5356V6.76139C0 5.0165 0.581603 3.48978 1.74486 2.18111C3.05353 0.872444 4.65304 0.218058 6.54334 0.218058C8.28823 0.218058 9.81502 0.872444 11.1237 2.18111C12.287 3.34437 12.8686 4.87109 12.8686 6.76139V27.7001L32.4986 77.8657L52.1286 27.9182V6.76139C52.1286 5.0165 52.7102 3.48978 53.8735 2.18111C55.1821 0.872444 56.7089 0.218058 58.4538 0.218058C60.3441 0.218058 61.8709 0.872444 63.0342 2.18111C64.3428 3.48978 64.9971 5.0165 64.9971 6.76139ZM153.114 13.3047H107.529V44.7128H127.159C128.904 44.7128 130.431 45.2944 131.739 46.4576C133.048 47.7663 133.702 49.2932 133.702 51.038C133.702 52.9283 133.048 54.5277 131.739 55.8364C130.431 56.9996 128.904 57.5814 127.159 57.5814H107.529V89.2075H153.332C154.932 89.2075 156.386 89.8617 157.694 91.1704C159.003 92.3337 159.657 93.8605 159.657 95.7508C159.657 97.4957 159.003 99.0224 157.694 100.331C156.386 101.494 154.859 102.076 153.114 102.076H94.6603V0.218058H153.114C154.859 0.218058 156.386 0.872444 157.694 2.18111C159.003 3.48978 159.657 5.0165 159.657 6.76139C159.657 8.50628 159.003 10.0331 157.694 11.3418C156.386 12.6505 154.859 13.3047 153.114 13.3047ZM189.102 95.7508V6.76139C189.102 5.0165 189.757 3.48978 191.066 2.18111C192.374 0.872444 193.901 0.218058 195.646 0.218058C197.391 0.218058 198.917 0.872444 200.226 2.18111C201.389 3.34437 201.971 4.79844 201.971 6.54333V37.0789L243.412 1.96305C244.721 0.799794 246.32 0.218058 248.211 0.218058C249.956 0.218058 251.41 0.872444 252.573 2.18111C253.736 3.48978 254.318 5.0165 254.318 6.76139C254.463 8.50628 253.809 9.96035 252.355 11.1236L205.679 50.8199L252.573 91.1704C253.736 92.3337 254.318 93.7877 254.318 95.5326C254.318 97.1321 253.736 98.659 252.573 100.113C251.264 101.422 249.665 102.076 247.774 102.076C246.03 102.076 244.503 101.494 243.194 100.331L201.971 64.779V95.7508C201.971 97.4957 201.389 99.0224 200.226 100.331C198.917 101.494 197.391 102.076 195.646 102.076C193.901 102.076 192.374 101.494 191.066 100.331C189.757 99.0224 189.102 97.4957 189.102 95.7508ZM284.635 93.1335L310.809 5.01653C311.826 1.81757 313.935 0.218058 317.134 0.218058C320.187 0.218058 322.15 1.59948 323.023 4.36222L348.978 93.7878C349.123 94.3694 349.196 95.0238 349.196 95.7508C349.196 97.4957 348.615 99.0224 347.451 100.331C346.143 101.494 344.689 102.076 343.089 102.076C339.745 102.076 337.636 100.549 336.764 97.4957L331.529 80.0468H302.084L296.413 98.5862C296.268 99.4587 295.614 100.258 294.45 100.985C293.287 101.712 292.051 102.076 290.742 102.076C288.852 102.076 287.325 101.422 286.162 100.113C284.853 98.9498 284.199 97.4229 284.199 95.5326C284.199 94.8056 284.344 94.0059 284.635 93.1335ZM316.916 30.0993L306.01 66.9601H327.821L316.916 30.0993ZM379.296 95.7508V0.218058H424.881C430.115 0.218058 434.623 2.10843 438.404 5.88903C442.184 9.81503 444.075 14.3953 444.075 19.63V27.0458C444.075 32.4259 442.184 37.0062 438.404 40.7868C434.623 44.5674 430.115 46.4576 424.881 46.4576H416.593L442.766 91.8247C443.638 93.1334 444.075 94.4422 444.075 95.7508C444.075 97.4957 443.42 99.0224 442.112 100.331C440.803 101.494 439.276 102.076 437.531 102.076C435.059 102.076 433.096 100.985 431.642 98.8043L401.543 46.4576H392.382V95.7508C392.382 97.4957 391.728 99.0224 390.419 100.331C389.111 101.494 387.511 102.076 385.621 102.076C383.876 102.076 382.349 101.494 381.04 100.331C379.877 99.0224 379.296 97.4957 379.296 95.7508ZM392.382 33.5892H424.881C426.626 33.5892 428.152 33.0074 429.461 31.8442C430.624 30.5355 431.206 29.0088 431.206 27.2639V19.63C431.206 17.8851 430.624 16.3584 429.461 15.0497C428.152 13.8865 426.626 13.3047 424.881 13.3047H392.382V33.5892ZM480.281 0H532.41C534.155 0 535.681 0.654386 536.99 1.96305C538.299 3.27172 538.953 4.79844 538.953 6.54333C538.953 8.28822 538.299 9.81495 536.99 11.1236C535.681 12.4323 534.155 13.0867 532.41 13.0867H512.78V89.2075H532.41C534.3 89.2075 535.827 89.7891 536.99 90.9523C538.299 92.261 538.953 93.7877 538.953 95.5326C538.953 97.2775 538.299 98.8044 536.99 100.113C535.681 101.422 534.155 102.076 532.41 102.076H480.281C478.536 102.076 477.082 101.422 475.919 100.113C474.61 98.8044 473.956 97.2775 473.956 95.5326C473.956 93.7877 474.538 92.261 475.701 90.9523C477.009 89.7891 478.536 89.2075 480.281 89.2075H499.911V13.0867H480.281C478.536 13.0867 477.009 12.4323 475.701 11.1236C474.538 9.96035 473.956 8.50628 473.956 6.76139C473.956 4.87109 474.61 3.27172 475.919 1.96305C477.082 0.654386 478.536 0 480.281 0ZM607.876 53.001V95.5326C607.876 97.2775 607.222 98.8044 605.913 100.113C604.605 101.422 603.151 102.076 601.551 102.076C599.661 102.076 598.061 101.422 596.753 100.113C595.444 98.8044 594.789 97.2775 594.789 95.5326V53.2192L568.834 20.2843V6.76139C568.834 4.87109 569.416 3.27172 570.579 1.96305C571.888 0.654386 573.415 0 575.159 0C577.05 0 578.649 0.727037 579.958 2.18111C581.267 3.48978 581.921 5.0165 581.921 6.76139V15.704L601.333 40.5686L621.181 15.4858V6.54333C621.181 4.79844 621.763 3.27172 622.926 1.96305C624.235 0.799794 625.761 0.145407 627.506 0C629.251 0 630.778 0.654386 632.087 1.96305C633.395 3.12631 634.049 4.72569 634.049 6.76139V20.2843L607.876 53.001ZM663.713 92.9153L689.886 4.79847C690.904 1.59951 693.012 0 696.211 0C699.41 0 701.373 1.30864 702.1 3.92597L728.056 93.5697C728.346 94.1513 728.492 94.7329 728.492 95.3146C728.492 97.2049 727.837 98.7316 726.529 99.8949C725.365 101.204 723.984 101.858 722.385 101.858C719.04 101.858 716.859 100.258 715.841 97.0594L710.825 79.6105H681.162L675.491 98.368C675.345 99.2405 674.764 100.04 673.746 100.767C672.583 101.494 671.274 101.858 669.82 101.858C668.075 101.858 666.548 101.204 665.239 99.8949C664.076 98.5862 663.422 97.0595 663.276 95.3146C663.276 94.4421 663.422 93.6423 663.713 92.9153ZM696.211 29.6631L685.088 66.7419H706.899L696.211 29.6631Z" fill="#00A0E3"/>
<path d="M64.9971 6.76139V30.5356L38.8238 97.2775C37.5151 100.476 35.4067 102.076 32.4986 102.076C29.445 102.076 27.2639 100.476 25.9552 97.2775L0 30.5356V6.76139C0 5.0165 0.581603 3.48978 1.74486 2.18111C3.05353 0.872444 4.65304 0.218058 6.54334 0.218058C8.28823 0.218058 9.81502 0.872444 11.1237 2.18111C12.287 3.34437 12.8686 4.87109 12.8686 6.76139V27.7001L32.4986 77.8657L52.1286 27.9182V6.76139C52.1286 5.0165 52.7102 3.48978 53.8735 2.18111C55.1821 0.872444 56.7089 0.218058 58.4538 0.218058C60.3441 0.218058 61.8709 0.872444 63.0342 2.18111C64.3428 3.48978 64.9971 5.0165 64.9971 6.76139ZM153.114 13.3047H107.529V44.7128H127.159C128.904 44.7128 130.431 45.2944 131.739 46.4576C133.048 47.7663 133.702 49.2932 133.702 51.038C133.702 52.9283 133.048 54.5277 131.739 55.8364C130.431 56.9996 128.904 57.5814 127.159 57.5814H107.529V89.2075H153.332C154.932 89.2075 156.386 89.8617 157.694 91.1704C159.003 92.3337 159.657 93.8605 159.657 95.7508C159.657 97.4957 159.003 99.0224 157.694 100.331C156.386 101.494 154.859 102.076 153.114 102.076H94.6603V0.218058H153.114C154.859 0.218058 156.386 0.872444 157.694 2.18111C159.003 3.48978 159.657 5.0165 159.657 6.76139C159.657 8.50628 159.003 10.0331 157.694 11.3418C156.386 12.6505 154.859 13.3047 153.114 13.3047ZM189.102 95.7508V6.76139C189.102 5.0165 189.757 3.48978 191.066 2.18111C192.374 0.872444 193.901 0.218058 195.646 0.218058C197.391 0.218058 198.917 0.872444 200.226 2.18111C201.389 3.34437 201.971 4.79844 201.971 6.54333V37.0789L243.412 1.96305C244.721 0.799794 246.32 0.218058 248.211 0.218058C249.956 0.218058 251.41 0.872444 252.573 2.18111C253.736 3.48978 254.318 5.0165 254.318 6.76139C254.463 8.50628 253.809 9.96035 252.355 11.1236L205.679 50.8199L252.573 91.1704C253.736 92.3337 254.318 93.7877 254.318 95.5326C254.318 97.1321 253.736 98.659 252.573 100.113C251.264 101.422 249.665 102.076 247.774 102.076C246.03 102.076 244.503 101.494 243.194 100.331L201.971 64.779V95.7508C201.971 97.4957 201.389 99.0224 200.226 100.331C198.917 101.494 197.391 102.076 195.646 102.076C193.901 102.076 192.374 101.494 191.066 100.331C189.757 99.0224 189.102 97.4957 189.102 95.7508ZM284.635 93.1335L310.809 5.01653C311.826 1.81757 313.935 0.218058 317.134 0.218058C320.187 0.218058 322.15 1.59948 323.023 4.36222L348.978 93.7878C349.123 94.3694 349.196 95.0238 349.196 95.7508C349.196 97.4957 348.615 99.0224 347.451 100.331C346.143 101.494 344.689 102.076 343.089 102.076C339.745 102.076 337.636 100.549 336.764 97.4957L331.529 80.0468H302.084L296.413 98.5862C296.268 99.4587 295.614 100.258 294.45 100.985C293.287 101.712 292.051 102.076 290.742 102.076C288.852 102.076 287.325 101.422 286.162 100.113C284.853 98.9498 284.199 97.4229 284.199 95.5326C284.199 94.8056 284.344 94.0059 284.635 93.1335ZM316.916 30.0993L306.01 66.9601H327.821L316.916 30.0993ZM379.296 95.7508V0.218058H424.881C430.115 0.218058 434.623 2.10843 438.404 5.88903C442.184 9.81503 444.075 14.3953 444.075 19.63V27.0458C444.075 32.4259 442.184 37.0062 438.404 40.7868C434.623 44.5674 430.115 46.4576 424.881 46.4576H416.593L442.766 91.8247C443.638 93.1334 444.075 94.4422 444.075 95.7508C444.075 97.4957 443.42 99.0224 442.112 100.331C440.803 101.494 439.276 102.076 437.531 102.076C435.059 102.076 433.096 100.985 431.642 98.8043L401.543 46.4576H392.382V95.7508C392.382 97.4957 391.728 99.0224 390.419 100.331C389.111 101.494 387.511 102.076 385.621 102.076C383.876 102.076 382.349 101.494 381.04 100.331C379.877 99.0224 379.296 97.4957 379.296 95.7508ZM392.382 33.5892H424.881C426.626 33.5892 428.152 33.0074 429.461 31.8442C430.624 30.5355 431.206 29.0088 431.206 27.2639V19.63C431.206 17.8851 430.624 16.3584 429.461 15.0497C428.152 13.8865 426.626 13.3047 424.881 13.3047H392.382V33.5892ZM480.281 0H532.41C534.155 0 535.681 0.654386 536.99 1.96305C538.299 3.27172 538.953 4.79844 538.953 6.54333C538.953 8.28822 538.299 9.81495 536.99 11.1236C535.681 12.4323 534.155 13.0867 532.41 13.0867H512.78V89.2075H532.41C534.3 89.2075 535.827 89.7891 536.99 90.9523C538.299 92.261 538.953 93.7877 538.953 95.5326C538.953 97.2775 538.299 98.8044 536.99 100.113C535.681 101.422 534.155 102.076 532.41 102.076H480.281C478.536 102.076 477.082 101.422 475.919 100.113C474.61 98.8044 473.956 97.2775 473.956 95.5326C473.956 93.7877 474.538 92.261 475.701 90.9523C477.009 89.7891 478.536 89.2075 480.281 89.2075H499.911V13.0867H480.281C478.536 13.0867 477.009 12.4323 475.701 11.1236C474.538 9.96035 473.956 8.50628 473.956 6.76139C473.956 4.87109 474.61 3.27172 475.919 1.96305C477.082 0.654386 478.536 0 480.281 0ZM607.876 53.001V95.5326C607.876 97.2775 607.222 98.8044 605.913 100.113C604.605 101.422 603.151 102.076 601.551 102.076C599.661 102.076 598.061 101.422 596.753 100.113C595.444 98.8044 594.789 97.2775 594.789 95.5326V53.2192L568.834 20.2843V6.76139C568.834 4.87109 569.416 3.27172 570.579 1.96305C571.888 0.654386 573.415 0 575.159 0C577.05 0 578.649 0.727037 579.958 2.18111C581.267 3.48978 581.921 5.0165 581.921 6.76139V15.704L601.333 40.5686L621.181 15.4858V6.54333C621.181 4.79844 621.763 3.27172 622.926 1.96305C624.235 0.799794 625.761 0.145407 627.506 0C629.251 0 630.778 0.654386 632.087 1.96305C633.395 3.12631 634.049 4.72569 634.049 6.76139V20.2843L607.876 53.001ZM663.713 92.9153L689.886 4.79847C690.904 1.59951 693.012 0 696.211 0C699.41 0 701.373 1.30864 702.1 3.92597L728.056 93.5697C728.346 94.1513 728.492 94.7329 728.492 95.3146C728.492 97.2049 727.837 98.7316 726.529 99.8949C725.365 101.204 723.984 101.858 722.385 101.858C719.04 101.858 716.859 100.258 715.841 97.0594L710.825 79.6105H681.162L675.491 98.368C675.345 99.2405 674.764 100.04 673.746 100.767C672.583 101.494 671.274 101.858 669.82 101.858C668.075 101.858 666.548 101.204 665.239 99.8949C664.076 98.5862 663.422 97.0595 663.276 95.3146C663.276 94.4421 663.422 93.6423 663.713 92.9153ZM696.211 29.6631L685.088 66.7419H706.899L696.211 29.6631Z" fill="#393185"/>
</svg>
