<svg width="127" height="30" viewBox="0 0 127 30" fill="none" xmlns="http://www.w3.org/2000/svg">
<path d="M17.3752 21.5754C18.6975 23.0205 21.1385 23.6274 21.1385 23.6274L15.7043 17.6736C15.7043 17.6447 16.053 20.1158 17.3752 21.5754ZM21.1385 24.032C21.1385 24.032 18.6684 24.639 17.3752 26.0841C16.0675 27.5292 15.7043 30.0003 15.7043 30.0003L21.1385 24.032ZM13.6265 21.5754C14.9487 20.1303 15.2975 17.6592 15.2975 17.6592L9.86328 23.613C9.86328 23.6274 12.3043 23.0205 13.6265 21.5754ZM15.2975 29.9858C15.2975 29.9858 14.9487 27.5147 13.6265 26.0696C12.3043 24.6245 9.86328 24.0176 9.86328 24.0176L15.2975 29.9858Z" fill="#191919"/>
<path d="M0.957031 19.0029V28.6562H2.36643V24.1764H6.17325V22.9336H2.36643V20.2457H6.17325V19.0029H0.957031Z" fill="#191919"/>
<path d="M26.8316 20.1871H26.4103V23.2218H26.9333C27.6453 23.2218 28.1393 23.164 28.4009 23.034C28.6624 22.9184 28.8658 22.7305 29.0111 22.4848C29.1564 22.2392 29.2291 21.979 29.2291 21.6611C29.2291 21.3577 29.1419 21.0686 28.982 20.8374C28.8222 20.5918 28.5897 20.4183 28.2846 20.3172C27.994 20.2449 27.5 20.1871 26.8316 20.1871ZM24.9863 28.6554V19.0166H27.4274C28.4299 19.0166 29.2 19.2623 29.7957 19.7391C30.3914 20.2305 30.6675 20.8808 30.6675 21.7045C30.6675 22.2681 30.5222 22.7594 30.2462 23.164C29.9701 23.5686 29.5487 23.8721 29.0256 24.0744C29.3308 24.2767 29.6359 24.5658 29.941 24.8981C30.2462 25.2305 30.653 25.8519 31.2051 26.719C31.5538 27.2681 31.8154 27.6727 32.0188 27.9617L32.5273 28.6554H30.8564L30.435 28.034C30.4205 28.0195 30.3914 27.9762 30.3479 27.9184L30.0863 27.5282L29.665 26.8201L29.2 26.0687C28.9094 25.664 28.6479 25.3606 28.4009 25.1149C28.1538 24.8692 27.9504 24.7103 27.747 24.6091C27.5436 24.508 27.2239 24.4502 26.7735 24.4502H26.4103V28.6409H25.0009V28.6554H24.9863Z" fill="#191919"/>
<path d="M36.8164 19.0029H42.3523V20.2457H38.1967V23.1793H42.207V24.422H38.1967V27.4134H42.4685V28.6562H36.8164V19.0029Z" fill="#191919"/>
<path d="M53.8168 19.0029H55.2262L51.0852 28.6851H50.7655L46.5664 19.0029H47.9758L50.9108 25.7949L53.8168 19.0029Z" fill="#191919"/>
<path d="M59.3398 19.0029H64.8903V20.2457H60.7492V23.1793H64.745V24.422H60.7492V27.4134H65.021V28.6562H59.3398V19.0029Z" fill="#191919"/>
<path d="M71.905 20.1881H71.4836V23.2228H72.0067C72.7187 23.2228 73.2127 23.165 73.4742 23.0349C73.7358 22.9193 73.9392 22.7315 74.0845 22.4858C74.2298 22.2401 74.3024 21.98 74.3024 21.6621C74.3024 21.3586 74.2152 21.0696 74.0554 20.8384C73.8956 20.6072 73.6631 20.4193 73.358 20.3182C73.0674 20.2459 72.5879 20.1881 71.905 20.1881ZM70.0742 28.6564V19.0176H72.5152C73.5178 19.0176 74.2879 19.2632 74.8836 19.7401C75.4793 20.2315 75.7554 20.8818 75.7554 21.7055C75.7554 22.269 75.6101 22.7604 75.334 23.165C75.058 23.5696 74.6366 23.8731 74.1135 24.0754C74.4187 24.2777 74.7238 24.5667 75.0289 24.8991C75.334 25.2459 75.7409 25.8529 76.293 26.7199C76.6417 27.2691 76.9033 27.6737 77.1067 27.9627L77.6152 28.6564H75.9443L75.5229 28.035C75.5084 28.0205 75.4793 27.9772 75.4357 27.9194L75.1742 27.5292L74.7528 26.8211L74.2879 26.0696C73.9973 25.665 73.7358 25.3615 73.4887 25.1159C73.2417 24.8702 73.0383 24.7113 72.8349 24.6101C72.6315 24.5089 72.3118 24.4511 71.8614 24.4511H71.4981V28.6419H70.0887V28.6564H70.0742Z" fill="#191919"/>
<path d="M89.2108 19.0029H90.5039V28.6562H89.109V21.1561L86.0868 24.8845H85.8398L82.7885 21.1561V28.6562H81.4082V19.0029H82.7304L85.9706 22.9769L89.2108 19.0029Z" fill="#191919"/>
<path d="M100.384 24.5814L98.8151 21.0987L97.3476 24.5814H100.384ZM98.3356 18.96H99.3091L103.683 28.671H102.259L100.951 25.8097H96.7809L95.5604 28.671H94.1074L98.3356 18.96Z" fill="#191919"/>
<path d="M109.103 20.1871H108.682V23.2218H109.205C109.917 23.2218 110.411 23.164 110.673 23.034C110.934 22.9184 111.138 22.7305 111.283 22.4848C111.428 22.2392 111.501 21.9646 111.501 21.6611C111.501 21.3577 111.414 21.0686 111.254 20.8374C111.094 20.5918 110.861 20.4183 110.556 20.3172C110.295 20.2449 109.801 20.1871 109.103 20.1871ZM107.302 28.6554V19.0166H109.743C110.745 19.0166 111.515 19.2623 112.111 19.7391C112.707 20.2305 112.983 20.8808 112.983 21.7045C112.983 22.2681 112.838 22.7594 112.561 23.164C112.271 23.5686 111.864 23.8721 111.341 24.0744C111.646 24.2767 111.951 24.5658 112.256 24.8981C112.561 25.245 112.968 25.8519 113.52 26.719C113.869 27.2681 114.131 27.6727 114.334 27.9617L114.843 28.6554H113.172L112.75 28.034C112.736 28.0195 112.707 27.9762 112.663 27.9184L112.402 27.5282L111.98 26.8201L111.515 26.0687C111.225 25.664 110.963 25.3606 110.716 25.1149C110.469 24.8692 110.266 24.7103 110.062 24.6091C109.859 24.508 109.539 24.4502 109.089 24.4502H108.697V28.6409H107.287V28.6554H107.302Z" fill="#191919"/>
<path d="M123.935 19.0029L119.823 23.4249V19.0029H118.414V28.6562H119.823V23.8873L124.807 28.6562H126.725L121.436 23.5839L125.664 19.0029H123.935Z" fill="#191919"/>
<path d="M28.6048 8.35284C28.7937 8.36729 28.9971 8.36729 29.2296 8.39619C29.4766 8.39619 29.7382 8.41064 30.0433 8.41064C30.4065 8.41064 30.7698 8.39619 31.1185 8.36729C31.4818 8.32394 31.8305 8.28058 32.1647 8.17943C32.4843 8.07827 32.7894 7.96266 33.08 7.78925C33.3706 7.60139 33.6322 7.38463 33.8501 7.12451C34.1988 6.70543 34.4459 6.25745 34.5621 5.80947C34.7074 5.3615 34.7655 4.85571 34.7655 4.33548C34.7655 3.71409 34.6783 3.13605 34.5185 2.63027C34.3587 2.12449 34.0971 1.67651 33.7048 1.31523C33.3416 0.953959 32.8476 0.664941 32.2373 0.462628C31.6271 0.260314 30.8715 0.159158 29.9561 0.159158C29.6946 0.159158 29.4476 0.159158 29.2296 0.173609C29.0117 0.173609 28.8083 0.18806 28.6048 0.18806V8.35284ZM25.1903 8.35284H26.9775V0.202511H25.1903V0.0435503H28.198H28.6484C28.7937 0.0435503 28.9536 0.0290994 29.0989 0.0290994H29.5493C29.6946 0.0290994 29.8544 0.0146484 29.9997 0.0146484C30.3194 0.0146484 30.61 0.0146484 30.857 0.0290994C31.1185 0.0290994 31.351 0.0435503 31.5689 0.0724522C31.7869 0.0869031 31.9903 0.115805 32.1937 0.159158C32.3971 0.202511 32.6151 0.245863 32.8476 0.274765C33.5014 0.433726 34.0681 0.636039 34.533 0.925057C35.0271 1.18517 35.4048 1.48864 35.71 1.83547C36.0151 2.18229 36.233 2.55801 36.3783 2.97709C36.5236 3.38172 36.5963 3.8297 36.5963 4.27768C36.5963 4.79791 36.5091 5.27479 36.3347 5.69387C36.1749 6.09849 35.9279 6.48867 35.6228 6.80659C35.3176 7.12451 34.9689 7.39908 34.5621 7.63029C34.1553 7.84706 33.7339 8.04937 33.2835 8.19388C33.0219 8.28058 32.7749 8.35284 32.557 8.39619C32.339 8.43954 32.092 8.4829 31.845 8.49735C31.598 8.5118 31.351 8.5407 31.0459 8.5407C30.7553 8.5407 30.4211 8.55515 30.0433 8.55515C29.8835 8.55515 29.7236 8.55515 29.5347 8.5407C29.3459 8.5407 29.1715 8.5407 28.9826 8.52625C28.7937 8.52625 28.6194 8.5118 28.4305 8.5118H27.9219H25.1758V8.36729H25.1903V8.35284Z" fill="#191919"/>
<path d="M38.5592 8.36729H40.0849V1.44529H38.5592V1.30078H46.4054V3.04934H46.2601C46.1438 2.78923 46.0131 2.55801 45.8678 2.3557C45.7225 2.15339 45.5626 1.99443 45.3737 1.84992C45.1848 1.70541 44.9524 1.60425 44.6763 1.54645C44.4002 1.48864 44.0806 1.44529 43.7173 1.44529H41.4361V4.56669H42.337C42.6421 4.56669 42.8891 4.55224 43.1071 4.50889C43.3105 4.46554 43.4994 4.39328 43.6301 4.29213C43.79 4.17652 43.9207 4.03201 44.0225 3.84415C44.1242 3.64183 44.2404 3.39617 44.3276 3.0927H44.4729V6.22855H44.3276C44.2695 6.02624 44.1823 5.83838 44.1242 5.66497C44.066 5.49155 43.9643 5.31814 43.8336 5.17363C43.7173 5.02912 43.543 4.92797 43.3396 4.85571C43.1361 4.78346 42.8746 4.7112 42.5404 4.7112H41.4361V8.35284H44.0225C44.531 8.35284 44.9378 8.26613 45.272 8.13608C45.6207 7.97712 45.8823 7.78925 46.0857 7.57249C46.2891 7.35572 46.4489 7.12451 46.5507 6.87884C46.6524 6.63318 46.7105 6.45977 46.7395 6.28636H46.8848V8.49735H38.5156V8.38174H38.5592V8.36729Z" fill="#191919"/>
<path d="M55.4449 3.87285H56.927C57.2321 3.87285 57.4936 3.8584 57.7406 3.78615C57.9876 3.71389 58.1911 3.64164 58.3654 3.49713C58.5543 3.35262 58.6851 3.17921 58.7868 2.93354C58.8885 2.68788 58.9321 2.38441 58.9321 2.02313C58.9321 1.61851 58.8449 1.27168 58.7141 1.02602C58.5688 0.7659 58.3945 0.578038 58.1475 0.46243C57.9295 0.346823 57.6535 0.260117 57.3774 0.216764C57.0868 0.173411 56.8107 0.15896 56.5492 0.15896C56.3458 0.15896 56.1569 0.15896 55.9535 0.173411C55.75 0.173411 55.5902 0.173411 55.4449 0.187862V3.87285ZM55.4449 8.35264C55.5612 8.35264 55.7065 8.3671 55.8663 8.396C56.0261 8.396 56.2586 8.41045 56.5347 8.41045C57.0432 8.41045 57.4646 8.3671 57.8423 8.30929C58.2056 8.22259 58.5107 8.10698 58.7432 7.94802C58.9902 7.76016 59.15 7.52894 59.2517 7.23992C59.3535 6.93645 59.4116 6.57518 59.4116 6.1272C59.4116 5.50581 59.2227 4.98558 58.8594 4.6243C58.4962 4.26303 57.9441 4.07517 57.2321 4.07517H55.4594L55.4449 8.35264ZM52.0449 8.35264H53.8321V0.187862H52.0449V0.0289019H54.8783H55.3723C55.5612 0.0289019 55.721 0.0144509 55.8808 0.0144509C56.0406 0.0144509 56.2295 0.0144509 56.3894 0.0144509C56.5492 0.0144509 56.709 0 56.8543 0C57.6535 0 58.2782 0.0867057 58.7868 0.216764C59.2953 0.346823 59.6876 0.520234 59.9928 0.722547C60.2834 0.92486 60.4868 1.14162 60.5885 1.37284C60.6902 1.60405 60.7483 1.82082 60.7483 1.99423C60.7483 2.25435 60.6611 2.50001 60.5013 2.71678C60.356 2.93354 60.1381 3.13585 59.8765 3.30927C59.615 3.46823 59.3244 3.61274 58.9757 3.71389C58.627 3.81505 58.2637 3.87285 57.9005 3.91621V3.93066C58.2928 3.94511 58.6706 4.01736 59.0774 4.11852C59.4842 4.21968 59.8475 4.36419 60.1817 4.5376C60.5013 4.72546 60.7919 4.92777 60.9953 5.18789C61.1988 5.44801 61.3005 5.75148 61.3005 6.0983C61.3005 6.45957 61.1988 6.79194 61.0389 7.09541C60.85 7.39888 60.5885 7.64455 60.2252 7.86131C59.862 8.07808 59.397 8.25149 58.8449 8.3671C58.2928 8.4827 57.6389 8.55496 56.8834 8.55496C56.7381 8.55496 56.5782 8.55496 56.4329 8.54051C56.2876 8.54051 56.1424 8.54051 55.9825 8.52606C55.8227 8.52606 55.6629 8.51161 55.474 8.51161H54.8783H52.0449V8.35264Z" fill="#191919"/>
<path d="M63.5505 8.36729H65.0762V1.44529H63.5505V1.30078H71.3967V3.04934H71.2514C71.1351 2.78923 71.0044 2.55801 70.8591 2.3557C70.7138 2.15339 70.554 1.99443 70.3651 1.84992C70.1762 1.70541 69.9437 1.60425 69.6676 1.54645C69.3916 1.48864 69.0719 1.44529 68.7087 1.44529H66.4275V4.56669H67.3283C67.6334 4.56669 67.8805 4.55224 68.0984 4.50889C68.3018 4.46554 68.4907 4.39328 68.6215 4.29213C68.7813 4.17652 68.9121 4.03201 69.0138 3.84415C69.1155 3.64183 69.2317 3.39617 69.3334 3.0927H69.4787V6.22855H69.3189C69.2608 6.02624 69.2027 5.83838 69.1155 5.66497C69.0574 5.4771 68.9557 5.31814 68.8249 5.17363C68.7087 5.02912 68.5343 4.92797 68.3309 4.85571C68.1275 4.78346 67.8659 4.7112 67.5317 4.7112H66.4275V8.35284H69.0138C69.5223 8.35284 69.9292 8.26613 70.2634 8.13608C70.6121 7.97712 70.8736 7.78925 71.077 7.57249C71.2805 7.35572 71.4403 7.12451 71.542 6.87884C71.6437 6.63318 71.7018 6.45977 71.7309 6.28636H71.8762V8.49735H63.5215L63.5505 8.36729Z" fill="#191919"/>
<path d="M74.2305 8.36729H75.7561V1.44529H74.2305V1.30078H82.0766V3.04935H81.9313C81.8151 2.78923 81.6843 2.55801 81.539 2.3557C81.3937 2.15339 81.2339 1.99443 81.045 1.84992C80.8561 1.70541 80.6236 1.60425 80.3476 1.54645C80.086 1.48864 79.7518 1.44529 79.3886 1.44529H77.1074V4.5667H78.0082C78.3134 4.5667 78.5604 4.55224 78.7783 4.50889C78.9817 4.46554 79.1706 4.39328 79.3014 4.29213C79.4612 4.17652 79.592 4.03201 79.6937 3.84415C79.7954 3.64183 79.9117 3.39617 80.0134 3.0927H80.1587V6.22855H80.0134C79.9552 6.02624 79.8681 5.83838 79.81 5.66497C79.7518 5.49156 79.6501 5.31814 79.5194 5.17363C79.4031 5.02912 79.2288 4.92797 79.0253 4.85571C78.8219 4.78346 78.5604 4.74011 78.2262 4.74011H77.1655V8.38174H79.7518C80.2604 8.38174 80.6672 8.29504 81.0014 8.16498C81.3501 8.00602 81.6117 7.81816 81.8151 7.60139C82.0185 7.38463 82.1783 7.15341 82.28 6.90775C82.3817 6.66208 82.4399 6.48867 82.4689 6.31526H82.6142V8.52625H74.245L74.2305 8.36729Z" fill="#191919"/>
<path d="M87.7693 4.58095H89.0334C89.2949 4.58095 89.5274 4.5665 89.7308 4.49424C89.9342 4.45089 90.1231 4.37863 90.2539 4.24858C90.4137 4.13297 90.5154 3.95956 90.6026 3.75724C90.6898 3.55493 90.7188 3.29481 90.7188 2.99134C90.7188 2.64452 90.6607 2.36995 90.5299 2.16764C90.4137 1.95088 90.2393 1.77746 90.0359 1.67631C89.847 1.57515 89.6291 1.48845 89.3821 1.45954C89.1351 1.41619 88.9171 1.41619 88.6701 1.41619C88.5103 1.41619 88.3505 1.41619 88.1616 1.41619C88.0017 1.41619 87.8564 1.41619 87.7402 1.43064V4.58095H87.7693ZM84.8778 8.396H86.4034V1.45954H84.8778V1.31503H87.4787H87.7983C87.9 1.31503 88.0163 1.30058 88.118 1.30058C88.2197 1.30058 88.3359 1.30058 88.4376 1.30058C88.5393 1.30058 88.6556 1.28613 88.7573 1.28613C89.2804 1.28613 89.7744 1.30058 90.1812 1.37284C90.5881 1.41619 90.9804 1.5318 91.3436 1.73411C91.6633 1.92197 91.8958 2.12429 92.012 2.3555C92.1573 2.57227 92.2154 2.80348 92.2154 3.0058C92.2154 3.10695 92.2009 3.25146 92.1282 3.39597C92.0846 3.55493 91.9684 3.71389 91.8086 3.8873C91.6487 4.04626 91.4017 4.19077 91.0821 4.33528C90.7624 4.47979 90.3265 4.55205 89.8034 4.5954V4.60985C89.9487 4.6243 90.1522 4.6532 90.3992 4.69655C90.6607 4.73991 90.9077 4.79771 91.1693 4.88442C91.4308 4.97112 91.6778 5.08673 91.8958 5.24569C92.1137 5.3902 92.259 5.56361 92.3607 5.79483C92.4188 5.93934 92.4624 6.08385 92.4624 6.25726C92.4769 6.41622 92.506 6.60408 92.5205 6.77749C92.5351 6.96535 92.5641 7.13876 92.5641 7.29772C92.5787 7.45668 92.6077 7.60119 92.6513 7.7168C92.7094 7.90466 92.7966 8.03472 92.9128 8.17923C93.0291 8.32374 93.218 8.396 93.4795 8.396C93.5957 8.396 93.7265 8.38155 93.8428 8.35264C93.959 8.30929 94.0898 8.26594 94.1915 8.19368L94.3077 8.30929C94.2641 8.32374 94.206 8.36709 94.1479 8.41045C94.0898 8.4249 94.0316 8.46825 93.9299 8.49715C93.8428 8.5116 93.7265 8.54051 93.5812 8.55496C93.465 8.56941 93.2906 8.59831 93.0872 8.59831C92.7239 8.59831 92.4188 8.55496 92.1718 8.49715C91.9248 8.43935 91.7505 8.33819 91.6052 8.20813C91.4599 8.06362 91.3436 7.90466 91.2855 7.7168C91.2274 7.51449 91.1838 7.29772 91.1402 7.05206L91.0385 6.14165C90.9949 5.79483 90.9222 5.53471 90.7769 5.34685C90.6316 5.15899 90.4573 5.02893 90.2539 4.92777C90.065 4.84106 89.8616 4.78326 89.6436 4.78326C89.4402 4.76881 89.2513 4.76881 89.0915 4.76881H87.7257V8.41045H89.2513V8.55496H84.8633V8.36709H84.8778V8.396Z" fill="#191919"/>
<path d="M95.5141 6.34336H95.6594C95.7611 6.70464 95.8773 7.00811 96.0517 7.25377C96.2115 7.49944 96.4004 7.7162 96.5747 7.86071C96.7636 8.01967 96.967 8.14973 97.185 8.25089C97.3884 8.33759 97.6064 8.3954 97.8098 8.43875C98.0277 8.4821 98.2311 8.49655 98.42 8.52546C98.6235 8.52546 98.8123 8.53991 98.9867 8.53991C99.4807 8.53991 99.8585 8.4821 100.164 8.38095C100.469 8.27979 100.716 8.13528 100.89 7.97632C101.079 7.81736 101.195 7.6295 101.282 7.45608C101.37 7.25377 101.384 7.19597 101.384 7.09481C101.384 6.84914 101.326 6.64683 101.195 6.48787C101.079 6.32891 100.934 6.1844 100.745 6.06879C100.556 5.95319 100.353 5.85203 100.135 5.76532C99.9311 5.67862 99.7277 5.64972 99.5243 5.57746L97.9551 5.23064C97.2286 5.07168 96.6474 4.84046 96.2696 4.5659C95.9064 4.27688 95.7029 3.74219 95.7029 3.26531C95.7029 2.96184 95.7901 2.67282 95.9209 2.44161C96.0662 2.18149 96.2696 1.95027 96.5311 1.77686C96.7927 1.589 97.0978 1.43004 97.4611 1.32888C97.8243 1.22773 98.2311 1.16992 98.6816 1.16992C99.0012 1.16992 99.2773 1.18437 99.4807 1.22773C99.6987 1.27108 99.8876 1.31443 100.047 1.37224C100.207 1.41559 100.338 1.47339 100.454 1.48784C100.57 1.5312 100.716 1.54565 100.847 1.54565C100.963 1.54565 101.05 1.5312 101.064 1.5312C101.108 1.51674 101.166 1.44449 101.253 1.34333H101.442V3.13525H101.282C101.224 2.88958 101.137 2.67282 100.992 2.44161C100.876 2.22484 100.687 2.02253 100.483 1.83467C100.28 1.6468 100.018 1.5312 99.7132 1.43004C99.4226 1.32888 99.0884 1.27108 98.6961 1.27108C98.4782 1.27108 98.2312 1.28553 97.9696 1.32888C97.7081 1.37224 97.4611 1.44449 97.2431 1.54565C97.0252 1.6468 96.8217 1.79131 96.6764 1.96472C96.5311 2.15259 96.4585 2.36935 96.4585 2.62947C96.4585 2.84623 96.5166 3.03409 96.6474 3.1786C96.7636 3.32311 96.9089 3.46762 97.0978 3.56878C97.2867 3.66994 97.5047 3.75664 97.7226 3.8289C97.9696 3.8867 98.1876 3.9445 98.4346 4.01676L100.091 4.40693C100.28 4.45029 100.483 4.50809 100.745 4.5659C101.006 4.6237 101.268 4.72486 101.515 4.86936C101.776 5.01387 101.98 5.17283 102.169 5.3896C102.358 5.60636 102.43 5.89538 102.43 6.24221C102.43 6.56013 102.343 6.8636 102.183 7.15262C102.023 7.44163 101.791 7.67285 101.486 7.90406C101.181 8.12083 100.817 8.29424 100.382 8.4243C99.9602 8.53991 99.4662 8.61216 98.9286 8.61216C98.7397 8.61216 98.5653 8.61216 98.42 8.59771C98.2747 8.59771 98.1294 8.59771 98.0132 8.58326C97.897 8.56881 97.7517 8.53991 97.6209 8.52546C97.5047 8.511 97.3594 8.4821 97.1995 8.43875C97.0106 8.3954 96.8072 8.35204 96.6038 8.29424C96.4004 8.23644 96.2115 8.20753 96.0517 8.20753C95.9064 8.20753 95.8337 8.22198 95.7611 8.26534C95.7175 8.30869 95.6739 8.36649 95.6448 8.4243H95.4414L95.5141 6.34336Z" fill="#191919"/>
</svg>
