<svg width="30" height="30" viewBox="0 0 30 30" fill="none" xmlns="http://www.w3.org/2000/svg">
<path d="M27.4487 17.1485V26.3722H22.1012V17.766C22.1012 15.6035 21.3275 14.1285 19.3925 14.1285C17.915 14.1285 17.035 15.1235 16.6488 16.0847C16.5075 16.4285 16.4713 16.9072 16.4713 17.3885V26.3722H11.1212C11.1212 26.3722 11.1937 11.7972 11.1212 10.286H16.4713V12.566L16.4363 12.6185H16.4713V12.566C17.1813 11.4722 18.45 9.90848 21.2912 9.90848C24.81 9.90848 27.4487 12.2085 27.4487 17.1485ZM5.52625 2.53223C3.6975 2.53223 2.5 3.73223 2.5 5.31098C2.5 6.85473 3.6625 8.09098 5.45625 8.09098H5.49125C7.3575 8.09098 8.51625 6.85473 8.51625 5.31098C8.48375 3.73223 7.3575 2.53223 5.52625 2.53223ZM2.8175 26.3722H8.165V10.286H2.8175V26.3722Z" fill="#6E6E6E"/>
</svg>
