<svg width="19" height="22" viewBox="0 0 19 22" fill="none" xmlns="http://www.w3.org/2000/svg">
<g clip-path="url(#clip0_6131_230)">
<path fill-rule="evenodd" clip-rule="evenodd" d="M0.5135 14C0.797099 14 1.027 14.2621 1.027 14.5854V19.1382C1.027 19.5867 1.18331 20.0169 1.46148 20.3339L1.46151 20.334C1.73972 20.6511 2.11705 20.8293 2.5105 20.8293H16.4895C16.8829 20.8293 17.2602 20.6511 17.5385 20.334L17.5385 20.3339C17.8167 20.0169 17.973 19.5867 17.973 19.1382V14.5854C17.973 14.2621 18.2029 14 18.4865 14C18.7701 14 19 14.2621 19 14.5854V19.1382C19 19.8972 18.7355 20.6252 18.2646 21.1618C17.7938 21.6985 17.1553 22 16.4895 22H2.5105C1.84467 22 1.20612 21.6985 0.735299 21.1618C0.264478 20.6251 0 19.8971 0 19.1382V14.5854C0 14.2621 0.229902 14 0.5135 14Z" fill="#15416F"/>
<path fill-rule="evenodd" clip-rule="evenodd" d="M3.67112 8.12327C3.89928 7.89511 4.2692 7.89511 4.49736 8.12327L9.76456 13.3904L15.0317 8.12327C15.2599 7.89511 15.6298 7.89511 15.858 8.12327C16.0861 8.35143 16.0861 8.72135 15.858 8.94951L10.1777 14.6298C9.94952 14.8579 9.5796 14.8579 9.35144 14.6298L3.67112 8.94951C3.44296 8.72135 3.44296 8.35143 3.67112 8.12327Z" fill="#15416F"/>
<path fill-rule="evenodd" clip-rule="evenodd" d="M9.76393 0C10.0866 0 10.3482 0.261574 10.3482 0.584242V14.2169C10.3482 14.5396 10.0866 14.8011 9.76393 14.8011C9.44126 14.8011 9.17969 14.5396 9.17969 14.2169V0.584242C9.17969 0.261574 9.44126 0 9.76393 0Z" fill="#15416F"/>
</g>
<defs>
<clipPath id="clip0_6131_230">
<rect width="19" height="22" fill="white"/>
</clipPath>
</defs>
</svg>
