<svg width="226" height="66" viewBox="0 0 226 66" fill="none" xmlns="http://www.w3.org/2000/svg">
<g clip-path="url(#clip0_6125_55253)">
<path fill-rule="evenodd" clip-rule="evenodd" d="M64.5066 38.0687C65.0465 38.3597 65.2482 39.0333 64.9572 39.5732C63.6619 41.9761 61.4556 43.331 59.5486 44.5019C59.2563 44.6815 58.9709 44.8568 58.6968 45.0308C56.5658 46.3846 54.8746 47.7554 54.3188 50.5075C54.1974 51.1086 53.6117 51.4975 53.0104 51.3761C52.4093 51.2547 52.0204 50.6689 52.1418 50.0677C52.8843 46.3911 55.2474 44.5909 57.5061 43.1562C57.8233 42.9547 58.1347 42.7615 58.439 42.5728C60.3692 41.3758 62.0113 40.3576 63.0022 38.5192C63.2932 37.9795 63.9667 37.7777 64.5066 38.0687Z" fill="#27274E"/>
<path fill-rule="evenodd" clip-rule="evenodd" d="M79.2258 23.0215C83.2447 30.394 83.2947 39.8978 76.7994 47.3215C76.3955 47.783 75.694 47.8299 75.2323 47.426C74.7708 47.0221 74.724 46.3205 75.1279 45.859C80.9196 39.2394 80.9192 30.7682 77.2757 24.0846C73.6263 17.3898 66.382 12.6076 57.8018 13.3792C57.191 13.4341 56.6512 12.9835 56.5963 12.3727C56.5413 11.7618 56.992 11.2221 57.6029 11.1672C67.1831 10.3056 75.213 15.6603 79.2258 23.0215Z" fill="#27274E"/>
<path fill-rule="evenodd" clip-rule="evenodd" d="M47.8276 18.6127C53.5386 14.8054 62.4234 14.3117 68.3206 18.6416C68.8149 19.0046 68.9214 19.6995 68.5584 20.1939C68.1954 20.6883 67.5004 20.7948 67.0062 20.4318C61.9694 16.7336 54.1116 17.0926 49.0596 20.4607C48.5493 20.8009 47.8598 20.663 47.5196 20.1527C47.1794 19.6423 47.3173 18.9529 47.8276 18.6127Z" fill="#27274E"/>
<path fill-rule="evenodd" clip-rule="evenodd" d="M69.8632 21.4258C70.265 20.9626 70.9663 20.9127 71.4297 21.3146C79.6173 28.4159 79.2736 42.4884 69.1923 47.942C68.6529 48.2338 67.979 48.033 67.6872 47.4936C67.3954 46.9542 67.5961 46.2804 68.1355 45.9886C76.6519 41.3816 77.1664 29.2301 69.9744 22.9924C69.5112 22.5905 69.4613 21.8892 69.8632 21.4258Z" fill="#27274E"/>
<path fill-rule="evenodd" clip-rule="evenodd" d="M56.3877 21.6319C56.4583 22.2412 56.0218 22.7924 55.4126 22.863C53.2202 23.1175 51.45 23.6018 49.8349 24.4074C48.2169 25.2143 46.7026 26.3694 45.0525 28.0281C44.62 28.4629 43.9169 28.4647 43.4821 28.0323C43.0473 27.5997 43.0455 26.8965 43.478 26.4618C45.2448 24.6856 46.9509 23.3639 48.8437 22.4199C50.7393 21.4745 52.7704 20.9338 55.1565 20.6569C55.7657 20.5863 56.317 21.0228 56.3877 21.6319Z" fill="#27274E"/>
<path fill-rule="evenodd" clip-rule="evenodd" d="M65.2025 22.0989C67.1595 23.2296 68.9958 24.9779 69.7255 27.1115C69.924 27.6918 69.6144 28.3231 69.0341 28.5215C68.4538 28.72 67.8225 28.4105 67.624 27.8301C67.13 26.3855 65.7813 24.9983 64.0914 24.0219C62.3905 23.0391 60.6065 22.6231 59.4244 22.8292C58.8203 22.9345 58.245 22.5302 58.1398 21.9261C58.0343 21.3218 58.4386 20.7466 59.0429 20.6413C60.932 20.3119 63.2566 20.9744 65.2025 22.0989Z" fill="#27274E"/>
<path fill-rule="evenodd" clip-rule="evenodd" d="M69.873 29.5757C70.4527 29.3756 71.0849 29.6833 71.285 30.263C72.4247 33.5633 72.3694 36.5284 71.4259 38.9969C70.4847 41.4595 68.6916 43.3418 66.5053 44.5343C65.9669 44.828 65.2923 44.6297 64.9985 44.0913C64.705 43.5529 64.9033 42.8782 65.4417 42.5847C67.2128 41.6185 68.6177 40.1237 69.3514 38.2039C70.083 36.2899 70.18 33.8675 69.1858 30.9878C68.9856 30.4081 69.2933 29.776 69.873 29.5757Z" fill="#27274E"/>
<path fill-rule="evenodd" clip-rule="evenodd" d="M63.1681 26.1234C66.1884 28.2324 68.0224 31.9989 66.6549 36.2337C66.4665 36.8174 65.8406 37.1377 65.257 36.9493C64.6734 36.7608 64.353 36.1348 64.5415 35.5512C65.564 32.3842 64.2433 29.5829 61.8965 27.9444C59.5287 26.291 56.2121 25.9003 53.4017 27.5887C52.876 27.9044 52.1938 27.7343 51.878 27.2086C51.5621 26.6828 51.7323 26.0006 52.258 25.6848C55.9063 23.4931 60.1689 24.0293 63.1681 26.1234Z" fill="#27274E"/>
<path fill-rule="evenodd" clip-rule="evenodd" d="M58.4716 29.379C62.5573 30.7761 63.6823 35.8997 60.3502 38.7483C59.884 39.1467 59.183 39.0918 58.7845 38.6257C58.386 38.1595 58.4408 37.4585 58.907 37.06C60.8709 35.3811 60.2876 32.3471 57.7531 31.4805C56.474 31.0432 54.533 31.1118 51.9684 32.5122C49.4005 33.9145 46.2778 36.6204 42.748 41.3058C42.3789 41.7956 41.6827 41.8936 41.1928 41.5246C40.703 41.1555 40.605 40.4592 40.9741 39.9695C44.6197 35.1304 47.9675 32.1664 50.904 30.563C53.8436 28.9577 56.4406 28.6845 58.4716 29.379Z" fill="#27274E"/>
<path fill-rule="evenodd" clip-rule="evenodd" d="M49.6068 27.9054C49.925 28.4297 49.7581 29.1126 49.2338 29.4309C44.9639 32.0234 42.8411 34.8785 41.3259 36.9165C41.2155 37.065 41.1083 37.2091 41.0038 37.3485C40.6358 37.8391 39.9398 37.9385 39.4491 37.5706C38.9585 37.2026 38.8591 36.5065 39.227 36.0159C39.3315 35.8766 39.4396 35.731 39.552 35.5798C41.0923 33.5064 43.4342 30.3539 48.0812 27.5325C48.6055 27.2142 49.2885 27.3812 49.6068 27.9054Z" fill="#27274E"/>
<path fill-rule="evenodd" clip-rule="evenodd" d="M55.4922 36.0143L55.4838 36.0183C55.4759 36.022 55.4628 36.0282 55.4444 36.0369C55.408 36.0543 55.3512 36.0819 55.2761 36.1196C55.126 36.1953 54.9026 36.3115 54.6217 36.4689C54.0594 36.7841 53.2691 37.2628 52.373 37.9091C50.5743 39.2066 48.3861 41.1534 46.7447 43.7753C46.4193 44.295 45.7341 44.4526 45.2142 44.1272C44.6944 43.8017 44.5368 43.1165 44.8622 42.5967C46.7043 39.6543 49.1298 37.5101 51.0737 36.1079C52.0491 35.4044 52.9124 34.8809 53.5358 34.5315C53.8479 34.3567 54.1006 34.2249 54.278 34.1356C54.3668 34.0909 54.4368 34.057 54.4861 34.0333C54.5108 34.0215 54.5304 34.0123 54.5444 34.0057L54.5615 33.9979L54.5669 33.9953L54.5695 33.9941C54.5695 33.9941 54.5702 33.9938 55.0306 35.0043L54.5695 33.9941C55.1276 33.7397 55.7869 33.9858 56.0412 34.5439C56.2953 35.1015 56.0495 35.7596 55.4922 36.0143Z" fill="#27274E"/>
<path fill-rule="evenodd" clip-rule="evenodd" d="M56.9681 39.6653C57.2189 40.2249 56.9687 40.882 56.4089 41.1329C54.1879 42.1284 52.2083 44.2509 51.2778 45.8023C50.9623 46.3282 50.2802 46.4988 49.7543 46.1834C49.2283 45.8679 49.0577 45.1858 49.3732 44.6599C50.4757 42.8218 52.7671 40.3315 55.5005 39.1062C56.0601 38.8553 56.7172 39.1057 56.9681 39.6653Z" fill="#27274E"/>
<path fill-rule="evenodd" clip-rule="evenodd" d="M76.6768 45.7391C77.1495 46.1298 77.2159 46.8298 76.825 47.3025C73.794 50.9685 69.1217 52.7752 64.463 52.5024C63.8507 52.4665 63.3835 51.9412 63.4194 51.3289C63.4553 50.7166 63.9806 50.2494 64.5929 50.2853C68.6138 50.5207 72.5755 48.9568 75.1134 45.8873C75.5043 45.4146 76.2042 45.3482 76.6768 45.7391Z" fill="#27274E"/>
<path fill-rule="evenodd" clip-rule="evenodd" d="M68.5032 51.7177C68.5043 51.7172 68.5053 51.7166 68.5064 51.7161H68.5047L68.5032 51.7177ZM68.5032 51.7177C68.321 51.8048 68.3897 52.0817 68.5917 52.0767L87.1965 51.6342C87.9738 51.6153 88.6554 51.0208 88.6829 50.2435C88.7118 49.4063 88.037 48.7299 87.2136 48.7469C87.123 48.7487 87.0341 48.723 86.9642 48.6684C85.5547 47.5699 81.1708 41.3085 81.5894 37.1826C81.4412 37.0873 81.3317 37.003 81.2268 36.9223C81.0199 36.7631 80.8305 36.6173 80.3952 36.4258C80.6737 49.0579 68.5013 51.7196 68.5013 51.7196L68.5032 51.7177ZM81.7585 45.2328L79.6691 43.7173C79.4352 43.796 79.2455 43.9326 79.1396 44.1257C78.8714 44.616 79.3565 45.3061 79.9408 45.6103C80.6088 45.9571 81.4597 45.9946 81.7585 45.2328Z" fill="#27274E"/>
<path fill-rule="evenodd" clip-rule="evenodd" d="M63.9128 45.1597C64.2152 45.6932 64.028 46.3709 63.4945 46.6733C62.2839 47.3597 61.5907 47.933 61.096 48.581C60.5938 49.2391 60.2343 50.0538 59.8181 51.3444C59.6298 51.928 59.0039 52.2486 58.4203 52.0603C57.8365 51.872 57.516 51.2462 57.7043 50.6625C58.1422 49.3051 58.5943 48.1983 59.3306 47.2335C60.0746 46.2587 61.047 45.508 62.3992 44.7414C62.9327 44.4388 63.6103 44.6262 63.9128 45.1597Z" fill="#27274E"/>
<path d="M102.224 46.4961C97.4477 46.4961 93.984 44.0138 92.6051 39.8555L92.6085 39.8572C92.3739 39.1857 92.7438 38.7502 93.4495 38.7502H95.7365C96.3086 38.7502 96.6118 39.0201 96.8464 39.5223C97.8212 41.7347 99.8734 42.7751 102.227 42.7751C104.916 42.7751 106.766 41.4682 106.766 39.6897C106.766 37.3714 104.346 36.6891 101.61 35.9179C98.0506 34.9146 93.9567 33.7607 93.9567 28.6602C93.9567 24.6351 97.386 21.9512 102.263 21.9512C106.871 21.9512 109.829 24.601 110.873 28.257C111.075 28.8942 110.67 29.3299 110.031 29.3299H107.811C107.239 29.3299 106.902 29.06 106.667 28.5577C105.927 26.8151 104.447 25.6738 102.261 25.6738C99.8408 25.6738 98.1586 26.8134 98.1586 28.6585C98.1586 31.0418 100.673 31.7647 103.483 32.5723C107.04 33.5948 111.069 34.7531 111.069 39.5873C111.069 43.8805 106.999 46.4961 102.224 46.4961Z" fill="#27274E"/>
<path fill-rule="evenodd" clip-rule="evenodd" d="M118.267 51.7156H116.518L116.516 51.7138C115.877 51.7138 115.541 51.3449 115.541 50.7418V29.6958C115.541 29.0927 115.877 28.7237 116.516 28.7237H117.391C117.963 28.7237 118.333 28.9919 118.501 29.5625V29.5967C118.669 30.3689 119.173 30.5022 119.846 29.9999C121.259 28.9612 123.041 28.3906 125.059 28.3906C130.002 28.3906 133.87 32.3165 133.87 37.3803C133.87 42.444 130.069 46.5032 124.992 46.5032C123.21 46.5032 121.696 46.1017 120.452 45.3295C119.745 44.8922 119.241 45.0938 119.241 45.9326V50.7436C119.241 51.3466 118.905 51.7156 118.267 51.7156ZM119.611 35.4993V39.3569C119.611 39.8268 119.644 40.1958 119.947 40.6314C120.887 42.1075 122.535 43.0471 124.587 43.0471C127.446 43.0471 129.699 40.4639 129.699 37.3786C129.699 34.2932 127.345 31.8774 124.587 31.8774C122.57 31.8774 120.922 32.7829 119.947 34.259C119.678 34.6604 119.611 35.0295 119.611 35.4993Z" fill="#27274E"/>
<path fill-rule="evenodd" clip-rule="evenodd" d="M137.199 37.3461C137.199 42.6798 141.1 46.5032 146.246 46.5032C150.146 46.5032 153.005 44.3575 153.98 41.5728C154.214 40.9355 153.778 40.4998 153.104 40.4998H151.222C150.684 40.4998 150.381 40.7681 150.078 41.2379C149.473 42.3791 148.161 43.1154 146.244 43.1154C143.957 43.1154 142.174 41.8409 141.468 39.6935C141.266 38.9897 141.67 38.5197 142.41 38.5197L153.442 38.554C154.081 38.554 154.518 38.1508 154.518 37.5477C154.651 32.1815 150.751 28.3906 146.211 28.3906C141.065 28.3906 137.199 32.1132 137.199 37.3461ZM141.807 34.4948C142.683 32.7504 144.329 31.7442 146.179 31.7442C148.029 31.7442 149.541 32.8171 150.215 34.5289C150.484 35.2328 150.081 35.7025 149.341 35.7025L142.614 35.6684C141.874 35.6684 141.437 35.1662 141.807 34.4948Z" fill="#27274E"/>
<path d="M162.147 46.1667H160.028L160.025 46.1649C159.386 46.1649 159.05 45.7959 159.05 45.1929V29.6975C159.05 29.0945 159.386 28.7254 160.025 28.7254H160.899C161.471 28.7254 161.841 28.9937 162.009 29.53L162.11 29.8324C162.312 30.5363 162.85 30.7038 163.489 30.2681C165.272 29.062 166.987 28.3906 168.635 28.3906C168.972 28.3906 169.274 28.4231 169.577 28.4572C170.183 28.558 170.418 28.9953 170.351 29.5984L170.116 31.6451C170.05 32.2823 169.645 32.5164 169.006 32.4498C168.602 32.3831 168.199 32.349 167.795 32.349C166.517 32.349 165.239 32.952 163.794 33.9924C163.29 34.3273 163.122 34.7305 163.122 35.267V45.1946C163.122 45.7977 162.752 46.1667 162.147 46.1667Z" fill="#27274E"/>
<path fill-rule="evenodd" clip-rule="evenodd" d="M172.172 41.571C172.172 44.3216 174.459 46.5015 177.822 46.5015C180.143 46.5015 182.127 45.7294 183.809 44.6564C184.447 44.2533 184.953 44.3882 185.222 45.0596L185.39 45.4286C185.592 45.9651 185.996 46.1667 186.534 46.1667H187.174C187.778 46.1667 188.148 45.7977 188.148 45.1946V36.1382C188.148 31.3085 185.323 28.3906 180.48 28.3906C176.58 28.3906 173.553 30.403 172.88 33.825C172.746 34.4623 173.116 34.8654 173.788 34.8654H175.57C176.21 34.8654 176.479 34.5307 176.646 34.0607C177.152 32.7197 178.43 31.8467 180.313 31.8467C182.6 31.8467 184.147 33.1553 184.147 35.4686C184.147 36.1058 183.776 36.4406 183.104 36.4406L179.639 36.4065C175.065 36.3723 172.174 38.4189 172.174 41.571H172.172ZM176.243 41.202C176.243 39.8934 177.319 39.1895 179.706 39.1895H183.104C183.775 39.1895 184.147 39.5585 184.147 40.1958V40.4298C184.147 40.9321 183.978 41.3011 183.507 41.6377C182.094 42.5089 180.514 43.1803 178.899 43.1803C177.387 43.1803 176.243 42.5089 176.243 41.202Z" fill="#27274E"/>
</g>
<defs>
<clipPath id="clip0_6125_55253">
<rect width="149.439" height="54.3415" fill="white" transform="translate(39.0015 5.64453)"/>
</clipPath>
</defs>
</svg>
