<svg width="226" height="66" viewBox="0 0 226 66" fill="none" xmlns="http://www.w3.org/2000/svg">
<g clip-path="url(#clip0_6125_55280)">
<path d="M40.3937 52.7314C41.6231 52.6928 43.1135 52.6361 44.6053 52.602C47.2262 52.5412 49.8477 52.4951 52.4691 52.4419C53.6494 52.4178 54.8276 52.3917 56.0108 52.3656C57.4253 52.3372 58.8399 52.3106 60.2546 52.2858C60.5527 52.2803 60.8929 52.329 61.051 52.0078C61.2246 51.6566 60.9571 51.3976 60.768 51.1367C60.7435 51.1065 60.717 51.078 60.6887 51.0514C59.016 49.274 57.3433 47.4971 55.6706 45.7207C54.1918 44.1541 52.7045 42.5955 51.2256 41.0278C50.7002 40.4713 50.1864 39.9043 49.6735 39.3362C49.2959 38.8698 48.8139 38.4988 48.2663 38.2531C47.7188 38.0075 47.1212 37.8941 46.5217 37.9221C46.0169 37.9492 45.5121 37.9799 45.0063 37.9924C43.7477 38.024 42.4892 38.0461 41.2307 38.0717L37.4546 38.149C36.1961 38.1751 34.937 38.2067 33.6785 38.2262C31.5885 38.2589 29.498 38.2809 27.4059 38.3151C26.9659 38.3221 26.5248 38.3512 26.0862 38.3893C25.604 38.4315 25.4489 38.7105 25.6687 39.135C25.7532 39.2952 25.8574 39.4442 25.9788 39.5786C26.3165 39.955 26.6658 40.3213 27.0125 40.6901C28.6762 42.4578 30.3397 44.2258 32.003 45.9942C33.0814 47.1363 34.1708 48.2679 35.2492 49.41C35.774 49.9665 36.2934 50.5295 36.8002 51.1026C37.2193 51.6484 37.7663 52.0826 38.3931 52.3667C39.0199 52.6508 39.707 52.7761 40.3937 52.7314Z" fill="#27274E"/>
<path d="M88.6183 51.6317C88.3674 51.3447 88.1912 51.1239 87.998 50.9167C86.8365 49.6752 85.6728 48.4354 84.507 47.1973C82.5911 45.1676 80.6715 43.1414 78.7482 41.1184C78.4129 40.7619 78.0056 40.4808 77.5533 40.2938C77.1009 40.1068 76.614 40.0183 76.1248 40.034C75.6325 40.039 75.1408 40.0887 74.648 40.1013C73.3895 40.1329 72.1299 40.156 70.8714 40.182L67.0577 40.2603L63.3192 40.3371L59.5813 40.4149C58.3223 40.4415 57.0627 40.4565 55.8047 40.5047C55.5709 40.5137 55.1995 40.6051 55.1468 40.7556C55.0736 40.9563 55.2311 41.2519 55.3129 41.4988C55.3596 41.5918 55.4249 41.6743 55.5046 41.7412C56.6946 43.0101 57.8852 44.2779 59.0765 45.5448C60.5561 47.1118 62.038 48.6768 63.522 50.2397C64.0388 50.7862 64.5296 51.3588 65.061 51.8907C65.2185 52.0342 65.4221 52.1166 65.6351 52.123C66.7511 52.12 67.8671 52.0814 68.9831 52.0578C70.2681 52.0303 71.5532 52.0039 72.8385 51.9785L76.5759 51.9002C77.848 51.8741 79.1196 51.8435 80.3897 51.8239C82.5846 51.7908 84.7789 51.7687 86.9738 51.7316C87.4912 51.7221 88.003 51.6704 88.6183 51.6317Z" fill="#27274E"/>
<path d="M115.514 51.0085C114.926 50.3817 114.406 49.8247 113.882 49.2707C113.285 48.639 112.68 48.0132 112.085 47.3804C110.529 45.7275 108.992 44.053 107.408 42.4261C107.118 42.1247 106.768 41.8875 106.38 41.7299C105.993 41.5723 105.576 41.4978 105.158 41.5113C102.771 41.5592 100.383 41.6093 97.9959 41.6619C96.7373 41.6885 95.4783 41.7166 94.2203 41.7396C92.5978 41.7694 90.9753 41.7968 89.3528 41.8219C87.7697 41.8484 86.1864 41.8756 84.6027 41.9037C84.4861 41.9034 84.37 41.9195 84.2579 41.9514C84.1761 41.9633 84.0988 41.9966 84.0339 42.0479C83.969 42.0991 83.9187 42.1666 83.8882 42.2435C83.8577 42.3204 83.848 42.4039 83.86 42.4858C83.8721 42.5676 83.9055 42.6448 83.9568 42.7096C84.0888 42.9175 84.2428 43.1107 84.416 43.2857C85.4121 44.344 86.4182 45.3933 87.4138 46.4526C88.8978 48.0316 90.3778 49.6145 91.8538 51.2012C91.9457 51.3089 92.0618 51.3933 92.1927 51.4474C92.3235 51.5014 92.4653 51.5237 92.6065 51.5123C93.5142 51.4747 94.422 51.4541 95.3298 51.433C96.5883 51.4034 97.8473 51.3793 99.1053 51.3537L102.919 51.2754C104.191 51.2494 105.462 51.2182 106.733 51.1987C108.966 51.165 111.199 51.1445 113.432 51.1063C114.093 51.0963 114.75 51.0461 115.514 51.0085Z" fill="#27274E"/>
<path d="M142.458 50.5362C142.417 50.4666 142.371 50.3996 142.322 50.3355C141.278 49.2141 140.234 48.0934 139.189 46.9734C138.052 45.7616 136.924 44.5402 135.762 43.3529C135.461 43.018 135.092 42.7503 134.681 42.567C134.269 42.3838 133.823 42.2891 133.373 42.2891C132.192 42.3061 131.011 42.3392 129.829 42.3638C128.532 42.3913 127.234 42.4177 125.936 42.4431L122.12 42.5204C120.874 42.546 119.627 42.5756 118.382 42.5967C116.564 42.6273 114.746 42.6499 112.929 42.685C112.722 42.6827 112.516 42.7167 112.321 42.7853C112.26 42.8005 112.203 42.8303 112.156 42.872C112.109 42.9137 112.072 42.9662 112.05 43.025C112.027 43.0838 112.019 43.1472 112.026 43.2098C112.034 43.2724 112.056 43.3323 112.091 43.3845C112.16 43.5237 112.247 43.6531 112.351 43.7694C113.937 45.4665 115.526 47.1616 117.118 48.8547C117.685 49.4609 118.252 50.068 118.805 50.6868C118.896 50.8035 119.014 50.8967 119.148 50.9585C119.283 51.0202 119.43 51.0487 119.578 51.0416C121.667 50.9798 123.756 50.9337 125.845 50.885C127.079 50.8565 128.312 50.8306 129.544 50.8072C131.102 50.7778 132.66 50.7507 134.218 50.7259C136.231 50.6948 138.244 50.6757 140.257 50.6351C140.969 50.6245 141.68 50.5714 142.458 50.5362Z" fill="#27274E"/>
<path d="M169.446 49.9591C169.01 49.5075 168.639 49.1311 168.277 48.7452C166.838 47.2122 165.42 45.6601 163.958 44.1482C163.633 43.7908 163.234 43.5087 162.789 43.3216C162.344 43.1345 161.863 43.0468 161.38 43.0648C160.265 43.1044 159.149 43.12 158.033 43.1436C156.735 43.1713 155.437 43.1974 154.139 43.2219C152.907 43.2474 151.674 43.2786 150.441 43.2981C148.377 43.3307 146.312 43.3528 144.247 43.3854C143.143 43.4035 142.039 43.4191 140.94 43.4733C140.817 43.4748 140.696 43.5031 140.585 43.5561C140.475 43.6091 140.377 43.6857 140.299 43.7804C140.278 43.9029 140.283 44.0282 140.312 44.1489C140.341 44.2697 140.394 44.3833 140.468 44.4829C140.657 44.7305 140.87 44.9595 141.102 45.1669C142.703 46.868 144.3 48.5731 145.912 50.2632C146.061 50.3995 146.255 50.477 146.456 50.481C147.092 50.485 147.727 50.4353 148.363 50.4193C149.648 50.3876 150.933 50.3651 152.218 50.3385L156.032 50.2602C157.278 50.2346 158.523 50.204 159.769 50.1844C161.833 50.1518 163.898 50.1297 165.963 50.0956C167 50.079 168.038 50.0454 169.074 50.0193C169.199 50.0061 169.323 49.986 169.446 49.9591Z" fill="#27274E"/>
<path d="M196.583 49.2114C196.541 49.1418 196.495 49.0747 196.445 49.0107C195.137 47.622 193.828 46.2337 192.519 44.8457C192.012 44.2945 191.325 43.9415 190.582 43.8496C190.016 43.8086 189.447 43.8067 188.88 43.8441C187.673 43.8652 186.466 43.8943 185.26 43.9199L181.328 44.0002C180.108 44.0253 178.889 44.0564 177.669 44.0759C175.734 44.1075 173.8 44.1261 171.866 44.1607C170.789 44.1788 169.713 44.2109 168.636 44.239C168.558 44.2388 168.481 44.2468 168.404 44.2631C168.329 44.2708 168.257 44.2969 168.194 44.3392C168.131 44.3816 168.079 44.4388 168.044 44.5058C168.008 44.5728 167.99 44.6476 167.99 44.7234C167.991 44.7993 168.01 44.8738 168.046 44.9405C168.108 45.0974 168.197 45.2419 168.31 45.3671C169.45 46.5935 170.61 47.8003 171.732 49.0418C171.934 49.2932 172.196 49.4895 172.494 49.6124C172.791 49.7352 173.115 49.7806 173.436 49.7443C176.026 49.6058 178.624 49.6073 181.22 49.5541C182.424 49.5296 183.633 49.4999 184.84 49.4779C186.501 49.4478 188.163 49.4203 189.824 49.3956C191.731 49.366 193.64 49.3414 195.549 49.3063C195.87 49.3012 196.191 49.2495 196.583 49.2114Z" fill="#27274E"/>
<path fill-rule="evenodd" clip-rule="evenodd" d="M35.6399 32.3027H26.634C26.1091 32.3027 26.099 32.2987 26.1823 31.7894C26.3364 30.855 26.51 29.9242 26.6621 28.9893C26.7122 28.6657 26.9095 28.62 27.189 28.621C29.567 28.6275 31.9451 28.6245 34.3231 28.6245C37.8187 28.6245 41.3148 28.6315 44.8109 28.6145C45.277 28.6035 45.7399 28.5332 46.1883 28.4052C46.514 28.3275 46.8085 28.1531 47.0333 27.9049C47.2581 27.6568 47.4026 27.3465 47.4478 27.0147C47.5437 26.5049 47.5984 25.9865 47.7158 25.4817C47.9978 24.2543 47.5076 23.8232 46.2069 23.6566C45.8959 23.6319 45.5836 23.6269 45.272 23.6416C41.3865 23.6416 37.5011 23.6672 33.6156 23.6235C32.6057 23.5968 31.6012 23.4656 30.6183 23.2321C30.1303 23.1646 29.6708 22.9625 29.2911 22.6486C28.9114 22.3347 28.6266 21.9213 28.4686 21.4547C28.3203 20.9191 28.2743 20.3604 28.3331 19.8078C28.4088 18.9969 28.6176 18.1995 28.7501 17.3931C28.8481 16.6865 29.1425 16.0215 29.5998 15.474C30.0571 14.9264 30.659 14.5183 31.3369 14.296C32.2705 13.9309 33.263 13.7393 34.2654 13.7304C40.3844 13.7007 46.5028 13.6769 52.6204 13.6592C53.0942 13.6592 53.1443 13.7249 53.062 14.1821C52.8939 15.1144 52.7198 16.0453 52.5647 16.9796C52.5226 17.2345 52.4087 17.3474 52.1543 17.3309C52.0248 17.3234 51.8943 17.3309 51.7644 17.3309C46.0465 17.3309 40.3287 17.3322 34.6112 17.3349C34.248 17.3387 33.8857 17.3697 33.5273 17.4277C33.343 17.439 33.169 17.5162 33.037 17.6452C32.9049 17.7742 32.8237 17.9463 32.8082 18.1303C32.7645 18.4514 32.6918 18.7686 32.6335 19.0872C32.6027 19.1741 32.5927 19.2671 32.6044 19.3586C32.6162 19.4501 32.6493 19.5375 32.7012 19.6138C32.7531 19.6901 32.8222 19.7531 32.9029 19.7977C32.9837 19.8423 33.0738 19.8673 33.166 19.8705C33.5115 19.9279 33.861 19.9581 34.2112 19.9608C38.4475 19.9679 42.6842 19.9418 46.9199 19.9874C47.8267 20.0142 48.7261 20.1596 49.5951 20.42C51.5375 20.968 52.2376 22.3665 52.0539 24.2187C51.9169 25.4307 51.7045 26.633 51.4181 27.8186C51.2267 28.8309 50.7335 29.7616 50.0034 30.4884C49.2734 31.2153 48.3405 31.7043 47.3274 31.8913C46.3182 32.1296 45.2866 32.2608 44.2498 32.2827C41.384 32.3364 38.5117 32.3027 35.6399 32.3027Z" fill="#27274E"/>
<path fill-rule="evenodd" clip-rule="evenodd" d="M136.048 21.3636C135.911 22.1469 135.788 22.8469 135.664 23.5469C135.606 23.7734 135.565 24.0036 135.541 24.2359C135.53 24.6519 135.32 24.7417 134.939 24.7412C128.973 24.7319 123.007 24.7302 117.042 24.7362C116.348 24.7362 116.349 24.6414 116.225 25.3921C116.052 26.4394 115.854 27.4831 115.656 28.5841C115.876 28.5976 116.05 28.6177 116.224 28.6177C122.189 28.6194 128.155 28.6194 134.121 28.6177C134.799 28.6177 134.799 28.6207 134.673 29.3016C134.514 30.1698 134.345 31.0359 134.21 31.9075C134.164 32.2086 134.036 32.3175 133.753 32.2959C133.662 32.2889 133.571 32.2959 133.48 32.2959H111.688C111.61 32.2916 111.532 32.2916 111.454 32.2959C111.109 32.3351 111.039 32.192 111.099 31.8629C111.645 28.8765 112.183 25.8884 112.713 22.8986C113.241 19.9485 113.773 16.9979 114.285 14.0458C114.341 13.7196 114.486 13.6443 114.776 13.6473C115.66 13.6559 116.543 13.6498 117.427 13.6498H136.688C136.83 13.6295 136.973 13.6348 137.113 13.6654C137.221 13.7096 137.376 13.8661 137.364 13.9464C137.201 14.9835 137.019 16.0184 136.817 17.0511C136.796 17.1575 136.624 17.2669 136.499 17.3115C136.359 17.3387 136.215 17.3432 136.073 17.3246H118.255C117.678 17.3246 117.678 17.3246 117.574 17.9026C117.388 18.9369 117.21 19.9731 117.011 21.0048C116.961 21.2728 117.039 21.3711 117.298 21.3606C117.428 21.3556 117.558 21.3606 117.688 21.3606H136.048V21.3636Z" fill="#27274E"/>
<path fill-rule="evenodd" clip-rule="evenodd" d="M97.9562 25.7576L105.835 32.1682L105.791 32.2771C105.644 32.2846 105.497 32.2976 105.35 32.2976C103.622 32.2976 101.893 32.2821 100.166 32.3097C99.9614 32.3192 99.7568 32.2872 99.5648 32.2154C99.3728 32.1437 99.1974 32.0337 99.0491 31.8922C97.7692 30.735 96.4844 29.5837 95.1947 28.4383C94.2463 27.5917 93.3019 26.7396 92.3344 25.9147C92.1431 25.7661 91.9092 25.6827 91.667 25.6768C90.4722 25.6537 89.2764 25.6768 88.0811 25.6598C87.7359 25.6552 87.6109 25.7867 87.5542 26.1194C87.2261 28.0373 86.8743 29.9512 86.5381 31.8676C86.4854 32.1687 86.3705 32.3142 86.0313 32.3062C85.1089 32.2836 84.1861 32.2931 83.2638 32.3012C82.9597 32.3037 82.8523 32.2148 82.9125 31.8842C83.8332 26.8049 84.7471 21.7243 85.6544 16.6423C85.8009 15.8254 85.9485 15.0079 86.0734 14.1875C86.1316 13.8056 86.2817 13.644 86.7017 13.6445C92.0805 13.6581 97.4594 13.6445 102.838 13.6656C103.629 13.6754 104.417 13.7679 105.189 13.9416C107.146 14.3691 108.147 15.6553 107.968 17.6469C107.845 18.951 107.618 20.2431 107.288 21.5108C106.663 23.9546 104.934 25.2006 102.511 25.5007C101.357 25.6437 100.182 25.6196 99.0165 25.6643C98.6803 25.6773 98.3431 25.6643 98.0063 25.6643L97.9562 25.7576ZM95.8988 17.3273C93.7942 17.3273 91.6896 17.3348 89.5861 17.3198C89.2413 17.3198 89.1018 17.4377 89.0466 17.7654C88.8173 19.1333 88.5689 20.4987 88.3305 21.8656C88.2422 22.3724 88.2457 22.3764 88.745 22.3764C92.9147 22.3764 97.0845 22.3739 101.255 22.3689C101.669 22.3632 102.082 22.3036 102.481 22.1918C102.815 22.1182 103.117 21.9439 103.348 21.6926C103.579 21.4413 103.727 21.125 103.773 20.7867C103.882 20.1611 103.996 19.5361 104.114 18.9115C104.16 18.7579 104.172 18.5964 104.15 18.4377C104.128 18.2791 104.072 18.1269 103.987 17.9915C103.901 17.8561 103.788 17.7404 103.654 17.6524C103.52 17.5643 103.369 17.5058 103.211 17.4808C102.846 17.3901 102.473 17.3408 102.097 17.3338C100.032 17.3213 97.9667 17.3283 95.9008 17.3288L95.8988 17.3273Z" fill="#27274E"/>
<path fill-rule="evenodd" clip-rule="evenodd" d="M75.2354 34.2795C75.0678 34.298 74.9444 34.3231 74.8214 34.3231C73.9378 34.3266 73.0541 34.3171 72.1709 34.3296C72.1137 34.3392 72.0552 34.3374 71.9988 34.3243C71.9423 34.3112 71.889 34.2872 71.8418 34.2535C71.7946 34.2198 71.7546 34.1771 71.7239 34.1279C71.6932 34.0788 71.6726 34.024 71.6631 33.9668C71.5592 33.5784 71.4092 33.2016 71.3178 32.8127C71.2265 32.4238 71.0308 32.2868 70.6118 32.2888C67.207 32.3074 63.8023 32.3139 60.3981 32.2888C59.3018 32.326 58.2136 32.0901 57.2312 31.6023C56.7861 31.3702 56.407 31.0292 56.1292 30.6111C55.8514 30.1931 55.684 29.7115 55.6424 29.2112C55.4919 28.1012 55.7769 27.0449 55.9631 25.9766C56.3952 23.4972 56.8428 21.0208 57.2909 18.5443C57.4658 17.4339 57.9416 16.3925 58.6668 15.5335C59.3115 14.7897 60.1804 14.2754 61.1427 14.0682C62.0998 13.8364 63.078 13.7033 64.0622 13.6708C67.5312 13.6236 71.0017 13.6322 74.4707 13.6633C75.6827 13.6054 76.8907 13.8425 77.9908 14.3543C78.4695 14.5941 78.8733 14.9605 79.1585 15.4136C79.4437 15.8667 79.5994 16.3892 79.6087 16.9245C79.6309 17.9244 79.5276 18.9231 79.3011 19.8972C78.8545 22.3741 78.4209 24.853 77.9683 27.329C77.8033 28.373 77.389 29.362 76.7604 30.2118C76.2656 30.8353 75.6203 31.3226 74.8852 31.6279C74.5841 31.7619 74.5304 31.9049 74.6252 32.1874C74.7863 32.6677 74.9318 33.1529 75.0769 33.6376C75.1351 33.8328 75.1752 34.0331 75.2354 34.2795ZM73.4355 28.2774C73.7001 28.1387 73.9243 27.9338 74.0863 27.6828C74.2482 27.4317 74.3425 27.143 74.3598 26.8447C74.6702 25.1088 74.9777 23.372 75.2821 21.6345C75.4567 20.6258 75.6464 19.6182 75.7663 18.6021C75.7903 18.4821 75.7897 18.3584 75.7644 18.2387C75.7391 18.119 75.6898 18.0056 75.6194 17.9055C75.549 17.8054 75.4591 17.7207 75.3549 17.6564C75.2508 17.5922 75.1347 17.5497 75.0136 17.5317C74.6042 17.4097 74.1802 17.3437 73.7531 17.3355C70.3234 17.3204 66.8944 17.3204 63.4661 17.3355C63.0768 17.3402 62.6894 17.3907 62.3119 17.486C61.9444 17.5561 61.6092 17.7425 61.3556 18.0176C61.1021 18.2927 60.9437 18.642 60.9039 19.014C60.8411 19.411 60.7684 19.8064 60.6981 20.2023C60.2967 22.4604 59.9113 24.7256 59.4838 26.9807C59.4303 27.1584 59.4184 27.346 59.449 27.5291C59.4795 27.7122 59.5517 27.8858 59.6599 28.0365C59.7681 28.1873 59.9095 28.3112 60.0731 28.3987C60.2368 28.4863 60.4183 28.535 60.6038 28.5413C60.8075 28.5794 61.0135 28.6037 61.2205 28.6141C64.0005 28.6191 66.7807 28.6191 69.561 28.6141C69.7123 28.605 69.863 28.5883 70.0126 28.5639C69.7432 27.6913 69.4918 26.8763 69.2399 26.0614C69.1079 25.6344 69.1395 25.5817 69.5806 25.5792C70.3835 25.5751 71.1914 25.5792 71.9968 25.5792C72.6055 25.5792 72.6105 25.5792 72.7967 26.1768C73.0094 26.8573 73.2116 27.5377 73.4355 28.2774Z" fill="#27274E"/>
<path fill-rule="evenodd" clip-rule="evenodd" d="M152.499 26.3668C150.121 26.3668 147.743 26.3724 145.365 26.3608C144.999 26.3608 144.85 26.4612 144.787 26.8481C144.505 28.5502 144.178 30.2443 143.883 31.9439C143.838 32.2018 143.727 32.3002 143.475 32.2982C142.526 32.2925 141.578 32.2925 140.63 32.2982C140.321 32.2982 140.251 32.1597 140.301 31.8822C140.827 28.9587 141.344 26.0331 141.875 23.1106C142.123 21.7457 142.319 20.3642 142.673 19.0264C143.439 16.13 145.366 14.4219 148.305 13.8879C149.109 13.7445 149.924 13.669 150.741 13.6621C153.326 13.634 155.913 13.6461 158.498 13.6541C159.706 13.6125 160.913 13.7669 162.072 14.1113C162.947 14.3678 163.711 14.9079 164.245 15.6465C164.78 16.3852 165.053 17.2804 165.022 18.1914C164.983 19.4625 164.819 20.7268 164.534 21.966C163.956 25.2779 163.346 28.5798 162.766 31.8892C162.712 32.2038 162.587 32.3042 162.288 32.3007C161.378 32.2897 160.468 32.2876 159.559 32.3007C159.192 32.3062 159.122 32.1617 159.185 31.8225C159.494 30.152 159.776 28.4759 160.091 26.8044C160.159 26.4431 160.064 26.3568 159.714 26.3583C157.307 26.3724 154.903 26.3668 152.499 26.3668ZM153.152 22.9265C155.541 22.9265 157.93 22.9199 160.32 22.934C160.666 22.934 160.807 22.8151 160.858 22.4874C161.017 21.4762 161.197 20.4681 161.364 19.458C161.442 19.1124 161.396 18.7507 161.236 18.4349C161.076 18.1191 160.811 17.8689 160.486 17.7273C160.11 17.5547 159.707 17.4491 159.295 17.4151C158.261 17.3514 157.221 17.3283 156.184 17.3323C153.77 17.3419 151.356 17.3484 148.943 17.4121C147.309 17.4553 146.41 18.2401 146.057 19.8368C145.87 20.6839 145.737 21.543 145.592 22.4001C145.503 22.9225 145.514 22.9255 146.06 22.926L153.152 22.9265Z" fill="#27274E"/>
<path fill-rule="evenodd" clip-rule="evenodd" d="M172.98 19.9644C172.833 20.7573 172.702 21.4412 172.578 22.1267C172.099 24.809 171.621 27.4915 171.144 30.1741C171.024 30.8511 170.893 31.526 170.781 32.2044C170.781 32.2529 170.769 32.3006 170.749 32.3444C170.728 32.3882 170.698 32.427 170.661 32.4583C170.624 32.4896 170.581 32.5126 170.534 32.5257C170.488 32.5389 170.439 32.5419 170.391 32.5346C169.494 32.5301 168.597 32.5276 167.701 32.5346C167.397 32.5376 167.33 32.4282 167.385 32.1332C167.811 29.8249 168.222 27.5116 168.636 25.2002C169.213 21.9689 169.79 18.7373 170.366 15.5054C170.556 14.4425 171.081 13.868 172.084 13.6989C172.385 13.6317 172.699 13.657 172.986 13.7712C173.272 13.8854 173.518 14.0833 173.69 14.3392C175.251 16.6073 176.796 18.8855 178.349 21.1592C179.213 22.4248 180.074 23.6928 180.947 24.9523C181.259 25.404 181.274 25.3944 181.649 25.0176C183.499 23.1726 185.348 21.3276 187.198 19.4827C188.922 17.7715 190.651 16.0664 192.387 14.3673C192.635 14.0971 192.949 13.8958 193.298 13.7831C193.647 13.6703 194.02 13.65 194.379 13.724C194.546 13.7553 194.705 13.8198 194.846 13.9136C194.987 14.0075 195.109 14.1287 195.202 14.2703C195.296 14.4118 195.36 14.5707 195.391 14.7375C195.422 14.9043 195.419 15.0757 195.383 15.2414C194.948 17.6946 194.511 20.1474 194.073 22.5999C193.508 25.7678 192.937 28.9342 192.383 32.1036C192.327 32.4242 192.204 32.5457 191.882 32.5396C191.05 32.5236 190.218 32.5366 189.386 32.5336C188.929 32.5336 188.9 32.4875 188.981 32.0318C189.676 28.1361 190.369 24.2401 191.061 20.3438C191.074 20.2725 191.072 20.1992 191.084 20.0226C190.906 20.1832 190.792 20.277 190.688 20.3809C187.754 23.3108 184.822 26.2415 181.891 29.173C181.596 29.507 181.195 29.7293 180.756 29.8023C180.448 29.8546 180.13 29.8108 179.847 29.6768C179.564 29.5428 179.33 29.3251 179.174 29.0531C177.192 26.114 175.187 23.1895 173.19 20.2605C173.145 20.1947 173.1 20.133 172.98 19.9644Z" fill="#27274E"/>
</g>
<defs>
<clipPath id="clip0_6125_55280">
<rect width="171.016" height="39.1032" fill="white" transform="translate(25.5679 13.6367)"/>
</clipPath>
</defs>
</svg>
