<svg width="226" height="66" viewBox="0 0 226 66" fill="none" xmlns="http://www.w3.org/2000/svg">
<g clip-path="url(#clip0_6125_55230)">
<path d="M54.4493 9.57031C54.4705 9.76486 54.5098 9.95983 54.5098 10.1544C54.5132 16.7101 54.5128 23.2659 54.5128 29.8221C54.5128 29.8361 54.5128 29.8504 54.5128 29.8644C54.5089 30.4273 54.5089 30.429 53.9477 30.4294C52.8067 30.4303 51.6652 30.4303 50.5241 30.4281C49.9976 30.4273 49.9883 30.4184 49.9883 29.8771C49.987 24.8548 49.9883 19.8322 49.9862 14.8099C49.9862 14.0542 50.0699 14.0601 49.2194 14.0601C44.2602 14.0609 39.301 14.0601 34.3417 14.0601C33.8765 14.0601 33.6436 13.8296 33.6431 13.3686C33.6443 12.1024 33.6477 10.8366 33.6503 9.57031C40.5829 9.57031 47.5163 9.57031 54.4493 9.57031Z" fill="#27274E"/>
<path d="M8.9585 34.9826C9.0951 34.8621 9.23847 34.7479 9.36747 34.6193C10.6434 33.3484 11.9173 32.075 13.1924 30.8028C13.2969 30.6988 13.4081 30.6011 13.5908 30.4307C13.5908 30.7153 13.5963 30.8917 13.5895 31.0676C13.5718 31.5446 13.5312 32.0217 13.5307 32.4988C13.5261 37.4199 13.5236 42.3411 13.5362 47.2623C13.5375 47.6881 13.4246 47.9981 13.115 48.2993C11.8746 49.5063 10.6612 50.7404 9.4309 51.958C9.29599 52.0912 9.11709 52.1805 8.9585 52.29C8.9585 46.5209 8.9585 40.7513 8.9585 34.9822V34.9826Z" fill="#27274E"/>
<path d="M11.8062 54.8685C11.8967 54.767 11.9825 54.6605 12.0785 54.5645C18.7912 47.8598 25.5051 41.156 32.217 34.4501C32.4026 34.2645 32.5866 34.135 32.8733 34.1367C34.7186 34.1473 36.5642 34.1414 38.4094 34.1431C38.5046 34.1431 38.5993 34.1608 38.7676 34.1773C38.6602 34.3118 38.5951 34.4104 38.5135 34.4928C38.0081 35.0025 37.4989 35.5087 36.9909 36.0162C32.3193 40.6811 27.6477 45.346 22.9765 50.0117C22.853 50.1347 22.7392 50.268 22.6419 50.446C23.2738 50.5268 23.887 50.5069 24.4986 50.5103C25.1325 50.5141 25.7665 50.5111 26.4005 50.5111C27.0344 50.5111 27.6401 50.5111 28.2601 50.5111C28.8801 50.5111 29.4997 50.5111 30.1197 50.5111C30.7397 50.5111 31.3593 50.5111 31.9793 50.5111C32.6132 50.5111 33.2472 50.5111 33.8812 50.5111C34.5012 50.5111 35.1208 50.5111 35.7408 50.5111H43.2211C43.8394 50.5111 44.4577 50.5111 45.1775 50.5111C45.0379 50.6414 44.972 50.7184 44.892 50.775C42.091 52.7611 39.0011 54.0612 35.6147 54.6482C34.1967 54.8939 32.7659 54.9912 31.3263 54.9899C25.0293 54.9844 18.7324 54.9865 12.4355 54.9861C12.2422 54.9861 12.0489 54.9861 11.8556 54.9861L11.807 54.869L11.8062 54.8685Z" fill="#27274E"/>
<path d="M29.8917 9.68457C29.9065 9.89053 29.9247 10.0263 29.9251 10.1621C29.9272 11.3437 29.9281 12.5254 29.9255 13.7066C29.9247 14.1591 29.9217 14.1667 29.4679 14.2268C27.3529 14.5068 25.344 15.1289 23.4501 16.108C22.9506 16.3664 22.4765 16.673 21.9872 16.9517C21.81 17.0528 21.7216 17.1911 21.7305 17.397C21.7373 17.5514 21.7305 17.7066 21.7305 17.861C21.7305 24.9221 21.7267 31.9837 21.7389 39.0449C21.7398 39.5029 21.6112 39.8315 21.2805 40.1525C20.068 41.3283 18.8834 42.5328 17.6873 43.7258C17.5812 43.8316 17.4678 43.9297 17.3042 44.0807C17.28 43.9001 17.2534 43.796 17.2534 43.6916C17.2538 39.6548 17.2589 35.6175 17.2589 31.5807C17.2589 28.3174 17.2542 25.0541 17.25 21.7908C17.25 21.6982 17.2306 21.6056 17.2149 21.4668C17.1375 21.5269 17.0918 21.5527 17.0584 21.5895C16.7104 21.9752 16.3809 22.3795 16.0147 22.747C13.8988 24.8714 11.774 26.9869 9.65174 29.1049C9.54601 29.2106 9.43308 29.3092 9.2876 29.3844C10.0112 23.9312 12.3936 19.326 16.4317 15.6119C20.2194 12.1278 24.7079 10.1667 29.8917 9.68457Z" fill="#27274E"/>
<path d="M83.1054 40.6536C80.2266 40.6024 77.8561 39.5273 76.1614 37.1471C75.2767 35.9045 74.8102 34.5038 74.7023 32.9813C74.5365 30.6408 75.1735 28.5537 76.7087 26.7715C78.0988 25.1576 79.8823 24.2508 81.994 23.9801C84.0756 23.7133 86.0418 24.0584 87.8236 25.1834C90.0012 26.5579 91.2463 28.5587 91.5851 31.1031C91.8985 33.4571 91.3546 35.6076 89.8862 37.4858C88.4851 39.2774 86.6216 40.2882 84.367 40.5838C84.1995 40.6058 84.0333 40.6426 83.8654 40.6502C83.6125 40.6616 83.3588 40.6531 83.1054 40.6531V40.6536ZM83.163 37.9481C83.4582 37.9325 83.7589 37.9477 84.0477 37.8965C86.093 37.5349 87.4891 36.3723 88.2233 34.4382C88.6047 33.433 88.6673 32.3887 88.5151 31.323C88.1315 28.6404 85.8092 26.2859 82.5704 26.6289C80.666 26.8307 79.286 27.8021 78.4021 29.4748C77.7089 30.7859 77.5981 32.1942 77.8992 33.622C78.4431 36.2002 80.6165 37.9836 83.163 37.9481Z" fill="#27274E"/>
<path d="M120.038 31.3717C120.47 31.2415 126.57 31.2487 126.966 31.381C126.974 31.5037 126.991 31.6407 126.991 31.7777C126.993 33.7617 126.987 35.7456 126.999 37.7292C127 38.0311 126.888 38.2236 126.659 38.402C125.113 39.604 123.385 40.3585 121.43 40.5885C120.041 40.7522 118.675 40.6727 117.341 40.2418C114.891 39.4509 113.171 37.8586 112.31 35.4373C111.346 32.7234 111.565 30.0793 113.14 27.6331C114.505 25.5134 116.487 24.3004 118.995 23.979C120.699 23.7603 122.365 23.9253 123.969 24.5728C124.759 24.8921 125.465 25.3527 126.128 25.8822C126.194 25.9346 126.254 25.9947 126.312 26.0556C126.33 26.0742 126.333 26.1063 126.364 26.1871C125.79 26.8718 125.198 27.5781 124.58 28.3144C124.413 28.1913 124.277 28.097 124.148 27.9951C123.316 27.3396 122.396 26.8938 121.344 26.6933C118.019 26.0594 115.657 28.1131 115.011 30.8046C114.658 32.2747 114.793 33.7215 115.459 35.0838C116.259 36.7171 117.584 37.6644 119.392 37.9275C120.925 38.1512 122.355 37.8471 123.702 37.0965C124.006 36.9269 124.147 36.7184 124.133 36.3576C124.107 35.683 124.128 35.0072 124.125 34.3318C124.123 33.8357 124.118 33.8302 123.635 33.8294C122.62 33.8277 121.606 33.8289 120.592 33.8289C120.426 33.8289 120.261 33.8289 120.039 33.8289C120.003 32.9721 120.006 32.1668 120.038 31.3713L120.038 31.3717Z" fill="#27274E"/>
<path d="M141.173 40.3799C141.156 40.1583 141.129 39.9663 141.128 39.7738C141.125 37.9028 141.127 36.0314 141.126 34.1603C141.126 33.5801 141.124 33.5792 140.546 33.5792C138.39 33.5792 136.235 33.5792 134.079 33.5792H133.527V40.3016C133.149 40.4289 131.093 40.4429 130.673 40.3405C130.579 40.0212 130.56 24.6889 130.653 24.2474C130.976 24.1378 133.037 24.1247 133.489 24.2398C133.562 24.9516 133.513 25.6794 133.521 26.4047C133.53 27.1503 133.523 27.896 133.523 28.6416C133.523 29.3872 133.523 30.0981 133.523 30.8103C133.923 30.9283 140.719 30.9266 141.1 30.8125C141.109 30.6462 141.125 30.4669 141.125 30.2876C141.127 28.4584 141.125 26.6297 141.128 24.8006C141.128 24.6086 141.155 24.4161 141.169 24.222C141.276 24.1979 141.343 24.1696 141.41 24.1696C142.184 24.1653 142.959 24.1603 143.734 24.167C144.034 24.1696 144.064 24.2127 144.082 24.5164C144.087 24.6145 144.084 24.7134 144.084 24.8116C144.084 29.7919 144.084 34.7723 144.084 39.7527C144.084 40.4518 144.091 40.4036 143.443 40.4044C142.851 40.4052 142.26 40.4061 141.668 40.4036C141.516 40.4027 141.363 40.3896 141.173 40.3799H141.173Z" fill="#27274E"/>
<path d="M97.65 24.1705C97.6619 24.4162 97.6779 24.5951 97.6779 24.774C97.6796 27.5877 97.6767 30.4018 97.6809 33.2156C97.6818 33.8922 97.7372 34.5647 97.9271 35.219C98.4037 36.8633 99.612 37.8534 101.438 37.91C101.94 37.9257 102.457 37.894 102.945 37.7849C104.254 37.4913 105.083 36.6506 105.48 35.3822C105.675 34.7605 105.744 34.1181 105.744 33.4672C105.743 30.5689 105.744 27.6706 105.744 24.7723C105.744 24.3657 105.941 24.1619 106.337 24.1607C106.97 24.1599 107.604 24.1569 108.239 24.1624C108.644 24.1658 108.667 24.1878 108.667 24.598C108.666 27.7357 108.671 30.873 108.652 34.0102C108.646 35.0168 108.427 35.9946 108.034 36.9234C107.301 38.6523 106.011 39.7764 104.216 40.3017C102.615 40.7703 100.992 40.7919 99.3794 40.363C97.0406 39.7413 95.6153 38.2082 95.0245 35.8842C94.8439 35.1737 94.753 34.4484 94.7534 33.7129C94.7543 30.7021 94.7534 27.6913 94.7534 24.6805C94.7534 24.582 94.7564 24.4834 94.7615 24.3853C94.7686 24.2529 94.841 24.1722 94.9738 24.1717C95.8446 24.1692 96.7154 24.1705 97.6505 24.1705H97.65Z" fill="#27274E"/>
<path d="M39.9904 17.7744C41.8644 17.7744 43.7388 17.7744 45.6128 17.7744C45.7257 17.7744 45.8386 17.7706 45.9507 17.7778C46.2472 17.796 46.2933 17.8392 46.3144 18.1242C46.3229 18.2363 46.3187 18.3492 46.3187 18.4617C46.3187 22.2329 46.3187 26.0037 46.3187 29.775C46.3187 30.212 46.1045 30.4308 45.6762 30.4313C44.5771 30.4318 43.4779 30.433 42.3787 30.4305C41.8555 30.4292 41.8407 30.4148 41.8403 29.8777C41.8386 27.5842 41.8382 25.2907 41.8403 22.9967C41.8412 22.1923 41.8467 22.2465 41.0659 22.246C38.7974 22.246 36.5284 22.246 34.2598 22.2456C33.6461 22.2456 33.6449 22.2439 33.644 21.6434C33.6427 20.5459 33.6427 19.4484 33.644 18.3509C33.6449 17.7766 33.6466 17.7749 34.2399 17.7744C36.1562 17.7736 38.0729 17.7744 39.9892 17.7744H39.9904Z" fill="#27274E"/>
<path d="M203.086 40.3244V24.2545C203.417 24.1425 214.526 24.1133 215.04 24.2139C215.15 24.5121 215.173 26.2681 215.062 26.812C214.322 26.8352 213.567 26.8196 212.812 26.8225C212.066 26.8251 211.319 26.823 210.573 26.823H208.291C207.547 26.823 206.803 26.823 206.075 26.823C205.963 27.1617 205.939 30.6179 206.04 31.1364C206.925 31.1897 207.822 31.1533 208.718 31.1596C209.605 31.1664 210.493 31.1609 211.38 31.1609H214.128C214.162 32.0677 214.162 32.9152 214.128 33.8118H206.015C206.002 34.0195 205.983 34.1814 205.983 34.3434C205.981 36.1717 205.982 38.0005 205.98 39.8288C205.98 39.9941 205.967 40.1595 205.96 40.3122C205.593 40.4281 203.526 40.4369 203.087 40.324L203.086 40.3244Z" fill="#27274E"/>
<path d="M200.371 40.401C200.036 40.401 199.799 40.401 199.562 40.401C198.942 40.401 198.322 40.3871 197.703 40.407C197.403 40.4167 197.249 40.3097 197.135 40.0314C196.493 38.4704 195.839 36.9144 195.178 35.3615C194.136 32.9157 193.086 30.4737 192.038 28.0301C191.995 27.9285 191.941 27.8313 191.85 27.6465C191.749 27.8698 191.674 28.0262 191.606 28.1857C189.971 32.0301 188.339 35.8757 186.701 39.7184C186.36 40.5169 186.525 40.3896 185.667 40.3998C185.103 40.4061 184.54 40.4023 183.976 40.3998C183.824 40.3994 183.672 40.3871 183.453 40.3774C183.529 40.1646 183.579 39.9955 183.649 39.8347C185.029 36.6768 186.41 33.5196 187.792 30.3625C188.643 28.4166 189.505 26.475 190.338 24.5215C190.491 24.1637 190.682 24.0351 191.064 24.0571C191.625 24.0892 192.193 24.096 192.753 24.055C193.154 24.0258 193.32 24.1958 193.467 24.5363C194.554 27.0544 195.659 29.5648 196.759 32.0779C197.898 34.681 199.037 37.2841 200.174 39.888C200.234 40.0255 200.282 40.168 200.371 40.4006V40.401Z" fill="#27274E"/>
<path d="M52.0788 42.365C51.9583 42.6179 51.8821 42.7972 51.7904 42.9672C51.1255 44.195 50.3482 45.3487 49.4875 46.4479C49.2993 46.6881 49.0912 46.8032 48.7745 46.8027C43.1407 46.7951 37.5069 46.7972 31.8731 46.7964C31.7767 46.7964 31.6803 46.7833 31.5322 46.7727C31.6071 46.6653 31.6485 46.582 31.7111 46.5194C33.0239 45.2049 34.3417 43.8951 35.6511 42.5773C35.8351 42.392 36.033 42.3223 36.2897 42.3223C41.4025 42.3269 46.5152 42.3256 51.628 42.3269C51.7506 42.3269 51.8728 42.3468 52.0796 42.3646L52.0788 42.365Z" fill="#27274E"/>
<path d="M73.2806 24.2178C73.4084 24.5963 73.4058 26.469 73.2595 26.8886H68.2702C68.2576 27.114 68.2394 27.2912 68.2394 27.4688C68.2377 31.5471 68.2381 35.6254 68.2381 39.7036C68.2381 40.4531 68.2736 40.3977 67.558 40.3989C66.9241 40.4002 66.2905 40.4032 65.6566 40.3968C65.3047 40.3934 65.2763 40.3592 65.2624 40.0073C65.2573 39.8809 65.2607 39.7544 65.2607 39.6275C65.2607 35.6055 65.2607 31.5835 65.2607 27.5615C65.2607 27.3661 65.2607 27.1711 65.2607 26.9262C65.0607 26.9127 64.8991 26.8924 64.7367 26.892C63.4129 26.8894 62.0892 26.8907 60.765 26.8903C60.6385 26.8903 60.5117 26.8865 60.3852 26.8818C60.2528 26.8767 60.1687 26.8091 60.1683 26.6746C60.1653 25.8626 60.167 25.0506 60.167 24.2555C60.5315 24.1362 72.8425 24.1159 73.2806 24.2182V24.2178Z" fill="#27274E"/>
<path d="M180.347 30.9397V33.4993C180.131 33.5153 179.939 33.5411 179.747 33.5416C177.521 33.5445 175.294 33.5432 173.068 33.5432C172.97 33.5432 172.871 33.542 172.772 33.5437C172.32 33.5513 172.297 33.5695 172.295 34.0262C172.292 35.1098 172.293 36.1929 172.295 37.2764C172.295 37.4134 172.315 37.5509 172.329 37.7264C172.534 37.7391 172.712 37.759 172.89 37.7594C175.567 37.7615 178.244 37.7607 180.921 37.7611C181.334 37.7611 181.54 37.9714 181.541 38.3921C181.541 38.9406 181.546 39.4896 181.538 40.0381C181.533 40.3655 181.5 40.3896 181.168 40.4035C181.083 40.4073 180.999 40.4048 180.914 40.4048C177.265 40.4048 173.615 40.4048 169.966 40.4048C169.547 40.4048 169.337 40.1977 169.337 39.7835C169.336 37.04 169.337 34.2961 169.337 31.5525C169.337 31.4963 169.336 31.44 169.337 31.3838C169.344 30.9211 169.349 30.911 169.813 30.911C173.181 30.9097 176.549 30.9101 179.916 30.911C180.04 30.911 180.165 30.9266 180.346 30.9389L180.347 30.9397Z" fill="#27274E"/>
<path d="M157.965 24.1841C157.98 24.429 158.004 24.6481 158.004 24.8672C158.006 28.9463 158.006 33.0258 158.007 37.1049C158.007 37.2974 158.028 37.4898 158.042 37.7385H166.431C166.457 37.8865 166.487 37.98 166.488 38.0739C166.492 38.7209 166.495 39.368 166.489 40.0151C166.485 40.3674 166.456 40.3889 166.095 40.3999C165.94 40.4046 165.785 40.4012 165.63 40.4012C162.292 40.4012 158.953 40.4012 155.614 40.4012C155.051 40.4012 155.048 40.3991 155.048 39.8446C155.048 34.8089 155.048 29.7731 155.048 24.7373C155.048 24.1617 155.051 24.1609 155.638 24.16C156.244 24.1592 156.85 24.1583 157.456 24.1609C157.608 24.1613 157.761 24.1748 157.966 24.185L157.965 24.1841Z" fill="#27274E"/>
<path d="M25.4764 35.9003C25.4649 35.6702 25.4522 35.534 25.4522 35.3979C25.4514 30.1794 25.4556 24.9609 25.4434 19.742C25.4425 19.3554 25.5757 19.1685 25.9255 19.0205C27.0467 18.5455 28.1991 18.1894 29.3998 17.989C29.5466 17.9644 29.6976 17.964 29.8879 17.9492C29.9044 18.1425 29.9285 18.2918 29.9285 18.4415C29.9306 22.6615 29.9293 26.8814 29.9323 31.1009C29.9323 31.3505 29.8866 31.559 29.6971 31.7472C28.3768 33.0544 27.0649 34.3701 25.7491 35.6821C25.6912 35.7396 25.621 35.7853 25.4764 35.8999V35.9003Z" fill="#27274E"/>
<path d="M39.7031 38.5859C39.8308 38.4392 39.8985 38.352 39.9755 38.2747C41.2971 36.9479 42.6188 35.6212 43.9468 34.3008C44.0271 34.2209 44.1574 34.1803 44.272 34.1499C44.3642 34.1253 44.4678 34.1427 44.5668 34.1427C47.6245 34.1427 50.6823 34.1422 53.74 34.1427C54.3917 34.1427 54.4264 34.1668 54.3528 34.8045C54.2205 35.9519 54.0124 37.0862 53.699 38.1989C53.5844 38.6054 53.5717 38.6134 53.1416 38.6134C48.7876 38.6151 44.4331 38.6147 40.0791 38.6134C39.9827 38.6134 39.8863 38.5999 39.7035 38.5863L39.7031 38.5859Z" fill="#27274E"/>
<path d="M181.322 24.1592C181.476 24.5834 181.476 26.3829 181.33 26.7822C181.192 26.7889 181.04 26.8033 180.888 26.8033C177.212 26.8046 173.535 26.8042 169.859 26.8042C169.774 26.8042 169.69 26.8012 169.606 26.7995C169.433 26.7961 169.345 26.7052 169.345 26.536C169.343 25.8327 169.343 25.1294 169.345 24.4265C169.345 24.2569 169.434 24.1672 169.606 24.1643C169.705 24.1626 169.803 24.1596 169.902 24.1596C173.55 24.1596 177.198 24.1596 180.846 24.1596H181.322V24.1592Z" fill="#27274E"/>
<path d="M35.8668 30.4313C35.2612 30.4313 34.6556 30.4364 34.05 30.4296C33.6778 30.4254 33.6351 30.3856 33.6334 30.0156C33.6279 28.806 33.6275 27.5964 33.6321 26.3869C33.6338 25.9948 33.6685 25.9631 34.0791 25.9618C35.2764 25.958 36.4737 25.958 37.6706 25.9618C38.0741 25.9631 38.105 25.9936 38.1067 26.3953C38.1109 27.5909 38.1109 28.7861 38.1067 29.9817C38.1054 30.4026 38.0754 30.4288 37.6419 30.4317C37.0502 30.436 36.4589 30.433 35.8673 30.433V30.4313H35.8668Z" fill="#27274E"/>
</g>
<defs>
<clipPath id="clip0_6125_55230">
<rect width="206.178" height="45.4192" fill="white" transform="translate(8.95312 9.57227)"/>
</clipPath>
</defs>
</svg>
