<svg width="213" height="40" viewBox="0 0 213 40" fill="none" xmlns="http://www.w3.org/2000/svg">
<path d="M40.3567 32.0595C38.3803 32.023 32.9451 33.9001 30.4746 34.8432C30.1421 35.619 29.6808 35.7997 27.6716 36.0754C25.6762 36.3492 19.5949 35.7103 19.0723 35.4365C18.6542 35.2174 18.8981 35.041 19.0723 34.9801C27.0064 36.5317 30.0946 35.2083 29.952 34.5238C29.8095 33.8393 29.2394 33.7024 28.0041 33.4286C26.7689 33.1547 21.9229 33.4742 18.1696 31.1924C15.167 29.367 11.2807 30.0364 9.71287 30.5992L1.01858 33.1547C0.828543 34.7611 2.14298 38.3876 2.82395 40C4.91438 38.9656 10.5205 37.2436 16.2217 38.6309C23.3482 40.3651 25.5811 39.4524 26.7689 38.9048C27.9566 38.3571 27.3865 38.5853 32.5651 36.5774C37.7436 34.5694 42.8272 32.1051 40.3567 32.0595Z" fill="#86AE4B"/>
<path d="M27.7746 5.93005C26.3227 5.55822 25.8361 7.13226 25.7549 8.12053C25.7483 8.2004 25.6619 8.24391 25.6033 8.19259C24.9686 7.63701 23.3389 5.94709 20.8325 2.65728C17.4323 -1.80558 15.071 0.525024 14.2209 1.31842C13.3709 2.11182 3.92587 11.2855 1.32848 15.0045C-1.2689 18.7236 0.620108 19.6657 1.32848 19.5666C2.03686 19.4674 2.98136 18.674 5.62597 15.0045C7.74166 12.069 10.8837 8.88876 12.1903 7.6656C16.4594 4.09531 19.4157 6.17798 20.3602 7.6656L24.4688 12.0789L32.4498 20.8558C33.2999 21.7154 35 23.3352 35 22.9385C35 22.5418 34.3388 21.2856 34.0083 20.7071C32.5726 18.3269 30.797 13.4343 30.0886 11.2855C29.6636 10.0458 29.5219 8.90529 29.5691 8.31024C29.6163 7.71519 29.7108 6.42592 27.7746 5.93005Z" fill="#86AE4B"/>
<path d="M30 30V28.1303C30.3563 27.9745 31.2483 27.556 31.9655 27.1287C32.6828 26.7013 32.954 27.4403 33 27.8632L30 30Z" fill="#86AE4B"/>
<path d="M30 32V30.3303C31.6185 29.5565 35.1514 27.8539 36.3353 27.2338C37.5191 26.6136 37.9383 27.3729 38 27.8301L30 32Z" fill="#86AE4B"/>
<path d="M30.9699 33.9918C30.9701 33.9926 30.9703 33.9935 30.9706 33.9944C30.9489 34.0022 30.9461 34.0023 30.9699 33.9918C30.8917 33.7108 30.5898 33.0805 30 32.7849V32.4673C32.9272 31.0204 38.9571 28.1053 39.6597 28.0206C40.5378 27.9148 40.9538 28.2324 41 28.6029C41 29.0264 40.4916 30.1593 36.0546 31.938C32.2429 33.466 31.1145 33.9273 30.9699 33.9918Z" fill="#86AE4B"/>
<path fill-rule="evenodd" clip-rule="evenodd" d="M15.7581 28.6213C13.1242 23.596 8.16868 23.228 6.02016 23.6722C9.12702 22.0066 12.8367 23.4818 13.7641 24.2432C14.6915 25.0046 17.4738 26.7654 19.4677 22.768C21.0629 19.5701 24.4913 18.6755 26.006 18.6279C19.1431 21.8258 19.2204 27.9233 20.1169 30.5724C20.828 30.9213 22.6673 31.6193 24.3367 31.6193C26.006 31.6193 27.3817 31.8731 28 32V19.0156C28 18.25 27.7004 17.5166 27.1686 16.9798L19.3533 9.09262C17.9387 7.66501 15.68 7.63232 14.2267 9.01843L5.88815 16.9718C5.32177 17.512 5 18.2697 5 19.0632V30.2393C10.7871 27.7266 14.5833 28.1137 15.7581 28.6213ZM14.0503 12.5215C13.6086 14.334 16.1854 16.2624 17.529 17C20.3451 15.2086 21.836 13.1537 20.5108 11.6258C19.4506 10.4034 18.0812 11.2921 17.529 11.8892C17.1425 10.9408 14.6025 10.2559 14.0503 12.5215ZM16.5 24C17.8807 24 19 22.8807 19 21.5C19 20.1193 17.8807 19 16.5 19C15.1193 19 14 20.1193 14 21.5C14 22.8807 15.1193 24 16.5 24Z" fill="#86AE4B"/>
<path d="M52.7305 29.4785C51.9375 29.4785 51.2949 29.4831 50.8027 29.4922C50.3197 29.5104 49.9368 29.5286 49.6543 29.5469C49.3262 29.5742 49.0846 29.597 48.9297 29.6152C49.0026 29.1048 49.0664 28.5625 49.1211 27.9883C49.1758 27.4049 49.2259 26.8125 49.2715 26.2109C49.3171 25.6094 49.3535 25.0124 49.3809 24.4199C49.4082 23.8275 49.431 23.2624 49.4492 22.7246C49.4857 21.4577 49.5085 20.1908 49.5176 18.9238C49.5085 17.6569 49.4857 16.431 49.4492 15.2461C49.431 14.7448 49.4082 14.2253 49.3809 13.6875C49.3535 13.1406 49.3216 12.6074 49.2852 12.0879C49.2487 11.5684 49.2031 11.0716 49.1484 10.5977C49.1029 10.1237 49.0482 9.69531 48.9844 9.3125H49.873C50.3652 9.3125 50.7891 9.30794 51.1445 9.29883C51.5 9.2806 51.7962 9.26237 52.0332 9.24414C52.3066 9.22591 52.5391 9.20312 52.7305 9.17578C52.6849 10.0872 52.6439 11.0033 52.6074 11.9238C52.5801 12.8444 52.5573 13.724 52.5391 14.5625C52.5208 15.3919 52.5072 16.153 52.498 16.8457C52.4889 17.5384 52.4844 18.1172 52.4844 18.582C52.776 18.6003 53.0586 18.6094 53.332 18.6094C53.6055 18.6094 53.8743 18.6094 54.1387 18.6094C54.7129 18.6094 55.2188 18.6003 55.6562 18.582C56.1029 18.5547 56.472 18.5273 56.7637 18.5C56.7637 18.4453 56.7591 18.2493 56.75 17.9121C56.75 17.5658 56.7454 17.1328 56.7363 16.6133C56.7272 16.0938 56.709 15.5104 56.6816 14.8633C56.6634 14.2161 56.6361 13.5599 56.5996 12.8945C56.5632 12.2292 56.5176 11.5866 56.4629 10.9668C56.4082 10.3379 56.3398 9.78646 56.2578 9.3125H57.1328C57.5977 9.3125 57.9987 9.30794 58.3359 9.29883C58.6823 9.2806 58.9694 9.26237 59.1973 9.24414C59.4616 9.22591 59.6849 9.20312 59.8672 9.17578C59.8398 9.76823 59.8125 10.3698 59.7852 10.9805C59.7669 11.582 59.7487 12.179 59.7305 12.7715C59.7214 13.3548 59.7122 13.9245 59.7031 14.4805C59.694 15.0273 59.6849 15.5469 59.6758 16.0391C59.6576 17.1875 59.6484 18.2949 59.6484 19.3613C59.6484 20.4186 59.6576 21.4941 59.6758 22.5879C59.6849 23.0527 59.694 23.5449 59.7031 24.0645C59.7122 24.5749 59.7214 25.099 59.7305 25.6367C59.7487 26.1654 59.7669 26.694 59.7852 27.2227C59.8125 27.7513 59.8398 28.2617 59.8672 28.7539C59.1016 28.7539 58.4818 28.763 58.0078 28.7812C57.5339 28.7904 57.1647 28.804 56.9004 28.8223C56.5905 28.8496 56.3581 28.8724 56.2031 28.8906C56.2852 28.3346 56.3535 27.7422 56.4082 27.1133C56.4629 26.4844 56.5085 25.8464 56.5449 25.1992C56.5905 24.5521 56.6224 23.9141 56.6406 23.2852C56.668 22.6562 56.6908 22.0684 56.709 21.5215C56.2715 21.4759 55.8522 21.4486 55.4512 21.4395C55.0501 21.4212 54.6673 21.4121 54.3027 21.4121C53.9199 21.4121 53.5736 21.4167 53.2637 21.4258C52.9629 21.4349 52.7031 21.4486 52.4844 21.4668C52.4844 21.959 52.4889 22.5286 52.498 23.1758C52.5072 23.8229 52.5208 24.502 52.5391 25.2129C52.5664 25.9147 52.5938 26.6348 52.6211 27.373C52.6484 28.1022 52.6849 28.804 52.7305 29.4785ZM74.4277 19.1973C74.4277 20.6556 74.291 22.0228 74.0176 23.2988C73.7441 24.5749 73.3385 25.6914 72.8008 26.6484C72.263 27.5964 71.5931 28.3483 70.791 28.9043C69.998 29.4512 69.082 29.7246 68.043 29.7246C66.9857 29.7246 66.056 29.4512 65.2539 28.9043C64.4609 28.3483 63.7956 27.5964 63.2578 26.6484C62.7292 25.6914 62.3281 24.5749 62.0547 23.2988C61.7904 22.0228 61.6582 20.6556 61.6582 19.1973C61.6582 17.748 61.7858 16.3854 62.041 15.1094C62.3053 13.8333 62.7018 12.7214 63.2305 11.7734C63.7591 10.8255 64.4245 10.0781 65.2266 9.53125C66.0286 8.97526 66.9674 8.69727 68.043 8.69727C69.1549 8.69727 70.112 8.97526 70.9141 9.53125C71.7253 10.0781 72.3906 10.8255 72.9102 11.7734C73.4297 12.7214 73.8125 13.8333 74.0586 15.1094C74.3047 16.3854 74.4277 17.748 74.4277 19.1973ZM70.8457 19.1973C70.8457 18.0671 70.8001 17.0052 70.709 16.0117C70.6178 15.0091 70.4629 14.1387 70.2441 13.4004C70.0345 12.653 69.7474 12.0651 69.3828 11.6367C69.0273 11.2083 68.5807 10.9941 68.043 10.9941C67.5234 10.9941 67.0859 11.2083 66.7305 11.6367C66.375 12.0651 66.0879 12.653 65.8691 13.4004C65.6504 14.1387 65.4909 15.0091 65.3906 16.0117C65.2904 17.0052 65.2402 18.0671 65.2402 19.1973C65.2402 20.3366 65.2904 21.4076 65.3906 22.4102C65.4909 23.4036 65.6504 24.2741 65.8691 25.0215C66.097 25.7598 66.3887 26.3477 66.7441 26.7852C67.0996 27.2135 67.5326 27.4277 68.043 27.4277C68.5443 27.4277 68.9727 27.2135 69.3281 26.7852C69.6836 26.3477 69.9753 25.7598 70.2031 25.0215C70.431 24.2741 70.5951 23.4036 70.6953 22.4102C70.7956 21.4076 70.8457 20.3366 70.8457 19.1973ZM86.8555 24.2969C86.7643 25.3268 86.5273 26.1836 86.1445 26.8672C85.7708 27.5417 85.3105 28.084 84.7637 28.4941C84.2168 28.8952 83.6107 29.1777 82.9453 29.3418C82.2891 29.5059 81.6328 29.5879 80.9766 29.5879C80.293 29.5879 79.6322 29.4922 78.9941 29.3008C78.3652 29.1185 77.8092 28.8405 77.3262 28.4668C76.8431 28.0931 76.4557 27.6237 76.1641 27.0586C75.8815 26.4935 75.7402 25.8327 75.7402 25.0762C75.7402 24.4928 75.8268 24.0052 76 23.6133C76.1823 23.2214 76.4056 22.9069 76.6699 22.6699C76.9342 22.4329 77.2168 22.2689 77.5176 22.1777C77.8184 22.0775 78.0964 22.0273 78.3516 22.0273C78.6159 22.0273 78.8893 22.0684 79.1719 22.1504C79.4544 22.2324 79.7142 22.3691 79.9512 22.5605C80.1882 22.752 80.3796 23.0117 80.5254 23.3398C80.6803 23.6589 80.7578 24.0599 80.7578 24.543C80.7578 24.5521 80.7487 24.6387 80.7305 24.8027C80.7214 24.9577 80.6712 25.14 80.5801 25.3496C80.4889 25.5501 80.3477 25.7507 80.1562 25.9512C79.974 26.1426 79.7051 26.2793 79.3496 26.3613C79.6048 26.6803 79.901 26.9219 80.2383 27.0859C80.5846 27.2409 80.8763 27.3184 81.1133 27.3184C81.3503 27.3184 81.6191 27.2773 81.9199 27.1953C82.2298 27.1133 82.5169 26.9766 82.7812 26.7852C83.0547 26.5846 83.2826 26.3249 83.4648 26.0059C83.6562 25.6777 83.752 25.2676 83.752 24.7754C83.752 24.2012 83.6517 23.6908 83.4512 23.2441C83.2598 22.7975 83.0091 22.4056 82.6992 22.0684C82.3984 21.722 82.0566 21.4212 81.6738 21.166C81.3001 20.9017 80.9355 20.6647 80.5801 20.4551C80.3431 20.3184 80.0605 20.1589 79.7324 19.9766C79.4043 19.7852 79.0625 19.5618 78.707 19.3066C78.3516 19.0423 78.0007 18.7461 77.6543 18.418C77.3079 18.0807 76.9935 17.7025 76.7109 17.2832C76.4375 16.8548 76.2142 16.3809 76.041 15.8613C75.877 15.3418 75.7949 14.7676 75.7949 14.1387C75.7949 13.1999 75.959 12.3796 76.2871 11.6777C76.6152 10.9668 77.0391 10.3743 77.5586 9.90039C78.0872 9.42643 78.6842 9.07096 79.3496 8.83398C80.015 8.59701 80.6895 8.47852 81.373 8.47852C82.0566 8.47852 82.7083 8.57422 83.3281 8.76562C83.9479 8.94792 84.4902 9.2168 84.9551 9.57227C85.429 9.91862 85.8027 10.3379 86.0762 10.8301C86.3587 11.3132 86.5 11.8555 86.5 12.457C86.5 13.0677 86.3997 13.5508 86.1992 13.9062C85.9987 14.2617 85.7572 14.5306 85.4746 14.7129C85.2012 14.8952 84.9186 15.0137 84.627 15.0684C84.3444 15.1139 84.1165 15.1367 83.9434 15.1367C83.7246 15.1367 83.4967 15.0957 83.2598 15.0137C83.0228 14.9316 82.804 14.8086 82.6035 14.6445C82.4121 14.4805 82.2526 14.2799 82.125 14.043C81.9974 13.806 81.9336 13.528 81.9336 13.209C81.9427 13.0085 81.9655 12.8079 82.002 12.6074C82.0384 12.4342 82.0931 12.2474 82.166 12.0469C82.2389 11.8464 82.3483 11.6549 82.4941 11.4727C82.3483 11.3451 82.207 11.2448 82.0703 11.1719C81.9336 11.099 81.806 11.0443 81.6875 11.0078C81.5508 10.9714 81.4186 10.9486 81.291 10.9395C81.0358 10.9395 80.776 10.985 80.5117 11.0762C80.2565 11.1673 80.0195 11.304 79.8008 11.4863C79.5911 11.6686 79.418 11.901 79.2812 12.1836C79.1445 12.457 79.0762 12.7806 79.0762 13.1543C79.0762 13.5918 79.1445 13.9883 79.2812 14.3438C79.418 14.6901 79.6322 15.0273 79.9238 15.3555C80.2155 15.6836 80.5846 16.0163 81.0312 16.3535C81.487 16.6908 82.0293 17.0599 82.6582 17.4609C83.3965 17.9258 84.0299 18.3906 84.5586 18.8555C85.0964 19.3203 85.5339 19.7988 85.8711 20.291C86.2174 20.7832 86.4727 21.3027 86.6367 21.8496C86.8008 22.3874 86.8828 22.9707 86.8828 23.5996C86.8828 23.709 86.8828 23.8229 86.8828 23.9414C86.8828 24.0508 86.8737 24.1693 86.8555 24.2969ZM94.6758 29.2188H94.293C93.7279 29.2188 93.1901 29.2461 92.6797 29.3008C92.1784 29.3646 91.6406 29.4512 91.0664 29.5605C91.1849 27.5553 91.276 25.6732 91.3398 23.9141C91.4036 22.1458 91.4355 20.4323 91.4355 18.7734C91.4355 16.6497 91.3809 14.5534 91.2715 12.4844L87.8262 12.7305C87.8171 12.4206 87.8079 12.138 87.7988 11.8828C87.7897 11.6185 87.776 11.3678 87.7578 11.1309C87.7396 10.8848 87.7168 10.6387 87.6895 10.3926C87.6621 10.1374 87.6302 9.85482 87.5938 9.54492H89.248C89.9772 9.54492 90.6882 9.54036 91.3809 9.53125C92.0827 9.52214 92.7799 9.50846 93.4727 9.49023C94.1745 9.47201 94.8809 9.44922 95.5918 9.42188C96.3118 9.39453 97.0547 9.35807 97.8203 9.3125C97.7747 9.77734 97.7428 10.1738 97.7246 10.502C97.7155 10.821 97.7109 11.1536 97.7109 11.5V12.2246L94.3477 12.3066C94.3203 13.1816 94.3021 14.043 94.293 14.8906C94.293 15.7292 94.293 16.5768 94.293 17.4336C94.293 19.4206 94.3249 21.3893 94.3887 23.3398C94.4525 25.2904 94.5482 27.25 94.6758 29.2188ZM120.051 29.3418L116.291 29.6152C116.373 28.4121 116.437 27.3092 116.482 26.3066C116.537 25.304 116.574 24.4336 116.592 23.6953C116.619 22.8385 116.633 22.0592 116.633 21.3574C116.633 21.0293 116.628 20.6602 116.619 20.25C116.61 19.9036 116.596 19.4889 116.578 19.0059C116.569 18.5228 116.551 17.9896 116.523 17.4062C116.286 18.5091 116.077 19.4616 115.895 20.2637C115.721 21.0566 115.58 21.7129 115.471 22.2324C115.334 22.8431 115.225 23.3535 115.143 23.7637C115.015 24.3197 114.901 24.8757 114.801 25.4316C114.71 25.9056 114.623 26.4115 114.541 26.9492C114.459 27.487 114.4 27.9746 114.363 28.4121L110.863 28.3848C110.672 27.1999 110.476 26.0651 110.275 24.9805C110.084 23.8867 109.883 22.834 109.674 21.8223C109.473 20.8014 109.264 19.8125 109.045 18.8555C108.835 17.8893 108.612 16.9323 108.375 15.9844C108.329 16.8958 108.298 17.7207 108.279 18.459C108.261 19.1973 108.252 19.8353 108.252 20.373C108.252 21.9225 108.293 23.39 108.375 24.7754C108.457 26.1608 108.566 27.5326 108.703 28.8906L104.67 29C104.734 28.3438 104.788 27.6374 104.834 26.8809C104.88 26.1152 104.916 25.3451 104.943 24.5703C104.98 23.7865 105.007 23.0208 105.025 22.2734C105.044 21.5169 105.057 20.8105 105.066 20.1543C105.076 19.498 105.08 18.9147 105.08 18.4043C105.089 17.8939 105.094 17.4974 105.094 17.2148C105.094 16.7044 105.089 16.1211 105.08 15.4648C105.08 14.8086 105.071 14.1387 105.053 13.4551C105.044 12.7624 105.03 12.0879 105.012 11.4316C104.993 10.7663 104.966 10.1738 104.93 9.6543C105.367 9.67253 105.782 9.6862 106.174 9.69531C106.566 9.70443 106.935 9.70898 107.281 9.70898C108.165 9.70898 108.854 9.69531 109.346 9.66797C109.637 9.65885 109.893 9.64518 110.111 9.62695C110.239 10.7845 110.376 11.9147 110.521 13.0176C110.676 14.1113 110.845 15.1868 111.027 16.2441C111.21 17.3014 111.406 18.3496 111.615 19.3887C111.834 20.4186 112.066 21.4486 112.312 22.4785C112.641 21.321 112.955 20.1862 113.256 19.0742C113.557 17.9622 113.83 16.8639 114.076 15.7793C114.322 14.6947 114.536 13.6191 114.719 12.5527C114.901 11.4863 115.042 10.4245 115.143 9.36719C115.48 9.38542 115.794 9.39909 116.086 9.4082C116.378 9.41732 116.651 9.42188 116.906 9.42188C117.426 9.42188 117.863 9.41276 118.219 9.39453C118.583 9.3763 118.884 9.35352 119.121 9.32617C119.395 9.29883 119.618 9.26693 119.791 9.23047C119.718 10.1875 119.659 11.1354 119.613 12.0742C119.568 13.013 119.531 13.9062 119.504 14.7539C119.486 15.6016 119.472 16.3809 119.463 17.0918C119.463 17.7936 119.463 18.3861 119.463 18.8691C119.463 19.0697 119.463 19.3796 119.463 19.7988C119.472 20.2181 119.486 20.7148 119.504 21.2891C119.522 21.8542 119.545 22.474 119.572 23.1484C119.6 23.8229 119.632 24.5156 119.668 25.2266C119.714 25.9375 119.768 26.6439 119.832 27.3457C119.896 28.0475 119.969 28.7129 120.051 29.3418ZM132.82 9.51758C132.419 10.5749 132.041 11.6322 131.686 12.6895C131.33 13.7467 130.988 14.8086 130.66 15.875C130.341 16.9414 130.027 18.0124 129.717 19.0879C129.407 20.1634 129.097 21.2389 128.787 22.3145C128.851 23.5358 128.919 24.748 128.992 25.9512C129.065 27.1452 129.165 28.3483 129.293 29.5605L125.123 29.7246C125.242 28.3027 125.328 26.8945 125.383 25.5C125.447 24.1055 125.492 22.6973 125.52 21.2754C124.809 19.2428 124.061 17.2467 123.277 15.2871C122.493 13.3184 121.664 11.3542 120.789 9.39453C121.464 9.3763 122.179 9.34896 122.936 9.3125C123.692 9.26693 124.394 9.19401 125.041 9.09375C125.205 9.93229 125.36 10.7708 125.506 11.6094C125.661 12.4479 125.816 13.291 125.971 14.1387C126.135 14.9772 126.308 15.8112 126.49 16.6406C126.673 17.4701 126.882 18.2858 127.119 19.0879C127.511 17.4473 127.862 15.7975 128.172 14.1387C128.482 12.4798 128.755 10.8438 128.992 9.23047C130.25 9.39453 131.526 9.49023 132.82 9.51758Z" fill="white"/>
<path d="M143.867 29.4785C143.074 29.4785 142.432 29.4831 141.939 29.4922C141.456 29.5104 141.074 29.5286 140.791 29.5469C140.463 29.5742 140.221 29.597 140.066 29.6152C140.139 29.1048 140.203 28.5625 140.258 27.9883C140.312 27.4049 140.363 26.8125 140.408 26.2109C140.454 25.6094 140.49 25.0124 140.518 24.4199C140.545 23.8275 140.568 23.2624 140.586 22.7246C140.622 21.4577 140.645 20.1908 140.654 18.9238C140.645 17.6569 140.622 16.431 140.586 15.2461C140.568 14.7448 140.545 14.2253 140.518 13.6875C140.49 13.1406 140.458 12.6074 140.422 12.0879C140.385 11.5684 140.34 11.0716 140.285 10.5977C140.24 10.1237 140.185 9.69531 140.121 9.3125H141.01C141.502 9.3125 141.926 9.30794 142.281 9.29883C142.637 9.2806 142.933 9.26237 143.17 9.24414C143.443 9.22591 143.676 9.20312 143.867 9.17578C143.822 10.0872 143.781 11.0033 143.744 11.9238C143.717 12.8444 143.694 13.724 143.676 14.5625C143.658 15.3919 143.644 16.153 143.635 16.8457C143.626 17.5384 143.621 18.1172 143.621 18.582C143.913 18.6003 144.195 18.6094 144.469 18.6094C144.742 18.6094 145.011 18.6094 145.275 18.6094C145.85 18.6094 146.355 18.6003 146.793 18.582C147.24 18.5547 147.609 18.5273 147.9 18.5C147.9 18.4453 147.896 18.2493 147.887 17.9121C147.887 17.5658 147.882 17.1328 147.873 16.6133C147.864 16.0938 147.846 15.5104 147.818 14.8633C147.8 14.2161 147.773 13.5599 147.736 12.8945C147.7 12.2292 147.654 11.5866 147.6 10.9668C147.545 10.3379 147.477 9.78646 147.395 9.3125H148.27C148.734 9.3125 149.135 9.30794 149.473 9.29883C149.819 9.2806 150.106 9.26237 150.334 9.24414C150.598 9.22591 150.822 9.20312 151.004 9.17578C150.977 9.76823 150.949 10.3698 150.922 10.9805C150.904 11.582 150.885 12.179 150.867 12.7715C150.858 13.3548 150.849 13.9245 150.84 14.4805C150.831 15.0273 150.822 15.5469 150.812 16.0391C150.794 17.1875 150.785 18.2949 150.785 19.3613C150.785 20.4186 150.794 21.4941 150.812 22.5879C150.822 23.0527 150.831 23.5449 150.84 24.0645C150.849 24.5749 150.858 25.099 150.867 25.6367C150.885 26.1654 150.904 26.694 150.922 27.2227C150.949 27.7513 150.977 28.2617 151.004 28.7539C150.238 28.7539 149.618 28.763 149.145 28.7812C148.671 28.7904 148.301 28.804 148.037 28.8223C147.727 28.8496 147.495 28.8724 147.34 28.8906C147.422 28.3346 147.49 27.7422 147.545 27.1133C147.6 26.4844 147.645 25.8464 147.682 25.1992C147.727 24.5521 147.759 23.9141 147.777 23.2852C147.805 22.6562 147.827 22.0684 147.846 21.5215C147.408 21.4759 146.989 21.4486 146.588 21.4395C146.187 21.4212 145.804 21.4121 145.439 21.4121C145.057 21.4121 144.71 21.4167 144.4 21.4258C144.1 21.4349 143.84 21.4486 143.621 21.4668C143.621 21.959 143.626 22.5286 143.635 23.1758C143.644 23.8229 143.658 24.502 143.676 25.2129C143.703 25.9147 143.73 26.6348 143.758 27.373C143.785 28.1022 143.822 28.804 143.867 29.4785ZM162.844 29.3145C162.105 29.2962 161.417 29.2826 160.779 29.2734C160.15 29.2734 159.553 29.2734 158.988 29.2734C157.885 29.2734 156.96 29.2826 156.213 29.3008C155.475 29.3281 154.873 29.3509 154.408 29.3691C153.861 29.3965 153.428 29.4238 153.109 29.4512C153.173 28.8405 153.228 28.2253 153.273 27.6055C153.328 26.9857 153.374 26.375 153.41 25.7734C153.447 25.1719 153.479 24.5931 153.506 24.0371C153.533 23.4811 153.556 22.957 153.574 22.4648C153.611 21.3164 153.633 20.2181 153.643 19.1699C153.633 18.0762 153.611 16.9551 153.574 15.8066C153.556 15.3145 153.533 14.7995 153.506 14.2617C153.479 13.7148 153.447 13.1589 153.41 12.5938C153.374 12.0286 153.328 11.4635 153.273 10.8984C153.228 10.3242 153.173 9.76823 153.109 9.23047C154.249 9.27604 155.265 9.3125 156.158 9.33984C157.061 9.35807 157.863 9.36719 158.564 9.36719C159.257 9.36719 159.854 9.36263 160.355 9.35352C160.857 9.33529 161.267 9.31706 161.586 9.29883C161.96 9.2806 162.27 9.25781 162.516 9.23047C162.516 9.22135 162.516 9.30339 162.516 9.47656C162.516 9.64974 162.52 9.8776 162.529 10.1602C162.538 10.4427 162.552 10.7617 162.57 11.1172C162.598 11.4727 162.634 11.8327 162.68 12.1973C161.622 12.097 160.697 12.0332 159.904 12.0059C159.111 11.9694 158.432 11.9512 157.867 11.9512C157.63 11.9512 157.421 11.9512 157.238 11.9512C157.065 11.9512 156.901 11.9603 156.746 11.9785C156.728 12.9902 156.714 13.9427 156.705 14.8359C156.696 15.7201 156.691 16.5586 156.691 17.3516C157.329 17.3333 157.899 17.3105 158.4 17.2832C158.902 17.2467 159.33 17.2057 159.686 17.1602C160.096 17.1146 160.46 17.0645 160.779 17.0098C160.77 17.0736 160.766 17.1465 160.766 17.2285C160.757 17.3014 160.752 17.388 160.752 17.4883C160.752 17.5885 160.752 17.7025 160.752 17.8301C160.752 18.1217 160.761 18.4727 160.779 18.8828C160.798 19.2839 160.834 19.7168 160.889 20.1816C159.904 20.054 159.057 19.9766 158.346 19.9492C157.635 19.9128 157.083 19.8945 156.691 19.8945C156.691 20.8424 156.696 21.6901 156.705 22.4375C156.714 23.1758 156.723 23.8275 156.732 24.3926C156.751 24.9577 156.764 25.4408 156.773 25.8418C156.792 26.2428 156.81 26.5755 156.828 26.8398C157.758 26.8216 158.587 26.776 159.316 26.7031C160.046 26.6302 160.661 26.5573 161.162 26.4844C161.663 26.4023 162.046 26.3294 162.311 26.2656C162.575 26.2018 162.707 26.1608 162.707 26.1426C162.698 26.1882 162.693 26.2383 162.693 26.293C162.684 26.3385 162.68 26.3978 162.68 26.4707C162.68 26.5436 162.68 26.6302 162.68 26.7305C162.68 26.9857 162.689 27.3275 162.707 27.7559C162.725 28.1842 162.771 28.7038 162.844 29.3145ZM164.539 27.373C164.539 26.6712 164.521 25.9694 164.484 25.2676C164.457 24.5658 164.425 23.8639 164.389 23.1621C164.352 22.4512 164.316 21.7402 164.279 21.0293C164.252 20.3092 164.238 19.5801 164.238 18.8418C164.238 18.0671 164.261 17.2832 164.307 16.4902C164.361 15.6882 164.462 14.918 164.607 14.1797C164.753 13.4323 164.954 12.735 165.209 12.0879C165.464 11.4316 165.797 10.862 166.207 10.3789C166.617 9.89583 167.118 9.51302 167.711 9.23047C168.303 8.94792 169.001 8.80664 169.803 8.80664C170.568 8.80664 171.234 8.92969 171.799 9.17578C172.364 9.41276 172.842 9.74089 173.234 10.1602C173.635 10.5794 173.959 11.0716 174.205 11.6367C174.46 12.2018 174.656 12.8125 174.793 13.4688C174.939 14.125 175.039 14.8086 175.094 15.5195C175.148 16.2305 175.176 16.9368 175.176 17.6387C175.176 17.821 175.171 17.9805 175.162 18.1172C175.162 18.2539 175.158 18.4043 175.148 18.5684C175.148 18.7233 175.139 18.9102 175.121 19.1289C175.112 19.3477 175.098 19.6348 175.08 19.9902C175.062 20.3366 175.039 20.765 175.012 21.2754C174.993 21.7858 174.971 22.4147 174.943 23.1621C174.916 23.9095 174.884 24.7936 174.848 25.8145C174.811 26.8262 174.775 28.0111 174.738 29.3691L170.65 29.2188C170.805 28.1797 170.942 27.1406 171.061 26.1016C171.188 25.0534 171.293 24.0781 171.375 23.1758C170.673 23.1211 170.021 23.0938 169.42 23.0938C169.11 23.0938 168.818 23.0983 168.545 23.1074C168.271 23.1165 168.03 23.1302 167.82 23.1484C167.848 23.6224 167.88 24.1237 167.916 24.6523C167.952 25.181 167.993 25.7142 168.039 26.252C168.085 26.7897 168.135 27.3229 168.189 27.8516C168.244 28.3711 168.308 28.8678 168.381 29.3418L164.512 29.4512C164.53 29.1139 164.539 28.7721 164.539 28.4258C164.539 28.0703 164.539 27.7194 164.539 27.373ZM167.656 20.2637C167.93 20.2819 168.199 20.291 168.463 20.291C168.727 20.291 168.987 20.291 169.242 20.291C170.217 20.291 171.001 20.2637 171.594 20.209C171.648 19.5618 171.703 18.9102 171.758 18.2539C171.822 17.5977 171.854 16.8958 171.854 16.1484C171.854 14.5716 171.689 13.373 171.361 12.5527C171.042 11.7233 170.568 11.3086 169.939 11.3086C169.593 11.3086 169.274 11.4316 168.982 11.6777C168.691 11.9238 168.436 12.3066 168.217 12.8262C168.007 13.3366 167.839 13.9837 167.711 14.7676C167.592 15.5514 167.533 16.4766 167.533 17.543C167.533 17.9167 167.542 18.3177 167.561 18.7461C167.588 19.1654 167.62 19.6712 167.656 20.2637ZM187.781 9.36719C187.307 11.0807 186.897 12.7852 186.551 14.4805C186.204 16.1758 185.908 17.8665 185.662 19.5527C185.416 21.2389 185.206 22.9206 185.033 24.5977C184.86 26.2747 184.705 27.9473 184.568 29.6152L179.414 29.2734C179.204 27.5964 178.995 25.9284 178.785 24.2695C178.576 22.6016 178.343 20.9427 178.088 19.293C177.842 17.6341 177.568 15.9889 177.268 14.3574C176.967 12.7168 176.625 11.0807 176.242 9.44922C176.424 9.44922 176.607 9.45833 176.789 9.47656C176.971 9.48568 177.145 9.49023 177.309 9.49023C177.819 9.49023 178.307 9.47656 178.771 9.44922C179.236 9.42188 179.738 9.39453 180.275 9.36719C180.339 10.6797 180.426 12.0423 180.535 13.4551C180.645 14.8587 180.772 16.2806 180.918 17.7207C181.064 19.1517 181.228 20.5827 181.41 22.0137C181.592 23.4447 181.793 24.8301 182.012 26.1699C182.24 24.8301 182.449 23.4447 182.641 22.0137C182.841 20.5827 183.014 19.1471 183.16 17.707C183.306 16.2669 183.424 14.8405 183.516 13.4277C183.616 12.015 183.684 10.6523 183.721 9.33984C184.104 9.38542 184.473 9.41732 184.828 9.43555C185.184 9.44466 185.535 9.44922 185.881 9.44922C186.473 9.44922 187.107 9.42188 187.781 9.36719ZM198.527 29.3145C197.789 29.2962 197.101 29.2826 196.463 29.2734C195.834 29.2734 195.237 29.2734 194.672 29.2734C193.569 29.2734 192.644 29.2826 191.896 29.3008C191.158 29.3281 190.557 29.3509 190.092 29.3691C189.545 29.3965 189.112 29.4238 188.793 29.4512C188.857 28.8405 188.911 28.2253 188.957 27.6055C189.012 26.9857 189.057 26.375 189.094 25.7734C189.13 25.1719 189.162 24.5931 189.189 24.0371C189.217 23.4811 189.24 22.957 189.258 22.4648C189.294 21.3164 189.317 20.2181 189.326 19.1699C189.317 18.0762 189.294 16.9551 189.258 15.8066C189.24 15.3145 189.217 14.7995 189.189 14.2617C189.162 13.7148 189.13 13.1589 189.094 12.5938C189.057 12.0286 189.012 11.4635 188.957 10.8984C188.911 10.3242 188.857 9.76823 188.793 9.23047C189.932 9.27604 190.949 9.3125 191.842 9.33984C192.744 9.35807 193.546 9.36719 194.248 9.36719C194.941 9.36719 195.538 9.36263 196.039 9.35352C196.54 9.33529 196.951 9.31706 197.27 9.29883C197.643 9.2806 197.953 9.25781 198.199 9.23047C198.199 9.22135 198.199 9.30339 198.199 9.47656C198.199 9.64974 198.204 9.8776 198.213 10.1602C198.222 10.4427 198.236 10.7617 198.254 11.1172C198.281 11.4727 198.318 11.8327 198.363 12.1973C197.306 12.097 196.381 12.0332 195.588 12.0059C194.795 11.9694 194.116 11.9512 193.551 11.9512C193.314 11.9512 193.104 11.9512 192.922 11.9512C192.749 11.9512 192.585 11.9603 192.43 11.9785C192.411 12.9902 192.398 13.9427 192.389 14.8359C192.38 15.7201 192.375 16.5586 192.375 17.3516C193.013 17.3333 193.583 17.3105 194.084 17.2832C194.585 17.2467 195.014 17.2057 195.369 17.1602C195.779 17.1146 196.144 17.0645 196.463 17.0098C196.454 17.0736 196.449 17.1465 196.449 17.2285C196.44 17.3014 196.436 17.388 196.436 17.4883C196.436 17.5885 196.436 17.7025 196.436 17.8301C196.436 18.1217 196.445 18.4727 196.463 18.8828C196.481 19.2839 196.518 19.7168 196.572 20.1816C195.588 20.054 194.74 19.9766 194.029 19.9492C193.318 19.9128 192.767 19.8945 192.375 19.8945C192.375 20.8424 192.38 21.6901 192.389 22.4375C192.398 23.1758 192.407 23.8275 192.416 24.3926C192.434 24.9577 192.448 25.4408 192.457 25.8418C192.475 26.2428 192.493 26.5755 192.512 26.8398C193.441 26.8216 194.271 26.776 195 26.7031C195.729 26.6302 196.344 26.5573 196.846 26.4844C197.347 26.4023 197.73 26.3294 197.994 26.2656C198.258 26.2018 198.391 26.1608 198.391 26.1426C198.382 26.1882 198.377 26.2383 198.377 26.293C198.368 26.3385 198.363 26.3978 198.363 26.4707C198.363 26.5436 198.363 26.6302 198.363 26.7305C198.363 26.9857 198.372 27.3275 198.391 27.7559C198.409 28.1842 198.454 28.7038 198.527 29.3145ZM211.926 8.92969C211.88 9.66797 211.839 10.4382 211.803 11.2402C211.775 12.0332 211.748 12.8307 211.721 13.6328C211.702 14.4349 211.684 15.2233 211.666 15.998C211.657 16.7728 211.648 17.502 211.639 18.1855C211.63 18.8691 211.625 19.4935 211.625 20.0586C211.625 20.6237 211.625 21.1022 211.625 21.4941C211.625 22.0046 211.625 22.5697 211.625 23.1895C211.625 23.8092 211.63 24.4473 211.639 25.1035C211.648 25.7598 211.657 26.4206 211.666 27.0859C211.684 27.7422 211.707 28.362 211.734 28.9453C211.342 28.9271 210.982 28.918 210.654 28.918C210.335 28.918 210.044 28.918 209.779 28.918C209.305 28.918 208.913 28.9225 208.604 28.9316C208.294 28.9408 208.048 28.9544 207.865 28.9727C207.646 28.9909 207.478 29.0091 207.359 29.0273C207.332 28.8359 207.273 28.5397 207.182 28.1387C207.1 27.7285 206.99 27.2454 206.854 26.6895C206.726 26.1335 206.576 25.5182 206.402 24.8438C206.229 24.1693 206.042 23.4674 205.842 22.7383C205.65 22.0091 205.45 21.2708 205.24 20.5234C205.031 19.7669 204.821 19.0332 204.611 18.3223C204.411 17.6022 204.21 16.9232 204.01 16.2852C203.818 15.638 203.641 15.0592 203.477 14.5488C203.404 15.7155 203.349 16.7956 203.312 17.7891C203.276 18.7734 203.249 19.6348 203.23 20.373C203.203 21.2298 203.189 22.0137 203.189 22.7246C203.189 23.3353 203.203 23.9824 203.23 24.666C203.249 25.2493 203.281 25.9147 203.326 26.6621C203.381 27.4095 203.458 28.1706 203.559 28.9453C202.857 28.918 202.278 28.9043 201.822 28.9043C201.376 28.8952 201.02 28.8906 200.756 28.8906H200.086C200.132 27.2591 200.168 25.8737 200.195 24.7344C200.223 23.5951 200.241 22.6426 200.25 21.877C200.268 21.1022 200.277 20.4824 200.277 20.0176C200.286 19.5527 200.291 19.179 200.291 18.8965C200.291 18.6048 200.286 18.3724 200.277 18.1992C200.277 18.026 200.277 17.8483 200.277 17.666C200.277 17.2103 200.273 16.668 200.264 16.0391C200.264 15.4102 200.255 14.7357 200.236 14.0156C200.218 13.2865 200.191 12.5299 200.154 11.7461C200.118 10.9622 200.068 10.1875 200.004 9.42188C200.934 9.42188 201.699 9.41276 202.301 9.39453C202.902 9.3763 203.381 9.35807 203.736 9.33984C204.156 9.3125 204.479 9.28516 204.707 9.25781C204.753 9.54948 204.844 10.0052 204.98 10.625C205.126 11.2448 205.295 11.9648 205.486 12.7852C205.687 13.5964 205.91 14.4759 206.156 15.4238C206.402 16.3717 206.653 17.3288 206.908 18.2949C207.173 19.252 207.437 20.1862 207.701 21.0977C207.965 22 208.216 22.8158 208.453 23.5449C208.499 22.7702 208.531 21.9818 208.549 21.1797C208.576 20.3685 208.594 19.612 208.604 18.9102C208.622 18.2083 208.631 17.5977 208.631 17.0781C208.631 16.5495 208.631 16.1849 208.631 15.9844C208.622 15.1549 208.604 14.3255 208.576 13.4961C208.567 13.1406 208.553 12.7715 208.535 12.3887C208.517 12.0059 208.494 11.623 208.467 11.2402C208.449 10.8483 208.421 10.4655 208.385 10.0918C208.357 9.7181 208.326 9.36719 208.289 9.03906L211.926 8.92969Z" fill="#86AE4B"/>
</svg>
