<svg width="24" height="24" viewBox="0 0 24 24" fill="none" xmlns="http://www.w3.org/2000/svg">
<path d="M12 22C17.5228 22 22 17.5228 22 12C22 6.47715 17.5228 2 12 2C6.47715 2 2 6.47715 2 12C2 17.5228 6.47715 22 12 22Z" stroke="#002A73" stroke-width="2" stroke-linecap="round" stroke-linejoin="round"/>
<path d="M9.09375 9.00002C9.32885 8.33169 9.7929 7.76813 10.4037 7.40915C11.0145 7.05018 11.7326 6.91896 12.4309 7.03873C13.1292 7.15851 13.7626 7.52154 14.2188 8.06355C14.6751 8.60555 14.9248 9.29154 14.9237 10C14.9237 12 11.9237 13 11.9237 13" stroke="#002A73" stroke-width="2" stroke-linecap="round" stroke-linejoin="round"/>
<path d="M12 17H12.01" stroke="#002A73" stroke-width="2" stroke-linecap="round" stroke-linejoin="round"/>
</svg>
