<svg width="259" height="110" viewBox="0 0 259 110" fill="none" xmlns="http://www.w3.org/2000/svg">
<path d="M9.44734 74.6508C9.30763 74.0457 9.08183 73.4062 8.76995 72.7326C8.45807 72.0589 8.13082 71.3707 7.78819 70.6681C7.44557 69.9654 7.10997 69.2672 6.7814 68.5733C6.45019 67.868 6.20375 67.1913 6.04207 66.543L2.22261 67.4248C2.20153 67.3335 2.17121 67.2022 2.13167 67.0309C2.09213 66.8596 2.06971 66.6844 2.06442 66.5052C2.0565 66.3146 2.07098 66.1429 2.10785 65.99C2.14209 65.8258 2.22377 65.7107 2.35288 65.6448L11.7731 63.47C11.846 63.838 11.8364 64.1349 11.7442 64.3607C11.652 64.5864 11.5035 64.777 11.2989 64.9325C11.1057 65.0854 10.876 65.2106 10.6099 65.3081C10.3411 65.3942 10.0736 65.486 9.8075 65.5835C9.54136 65.681 9.28358 65.7887 9.03413 65.9064C8.78206 66.0127 8.57609 66.1625 8.41625 66.3557C8.26783 66.5463 8.17255 66.7848 8.13041 67.0712C8.09706 67.3435 8.15331 67.6913 8.29916 68.1146C8.35451 68.3544 8.44545 68.6702 8.57197 69.0619C8.69586 69.4422 8.85049 69.8515 9.03586 70.2898C9.22124 70.7281 9.43077 71.1668 9.66445 71.606C9.8955 72.0337 10.1472 72.4206 10.4195 72.7667C10.7006 73.0987 10.9887 73.3569 11.2839 73.5413C11.5878 73.7117 11.9053 73.7586 12.2365 73.6822C12.4701 73.6523 12.7626 73.5908 13.1139 73.4976C13.4741 73.3905 13.8355 73.289 14.1982 73.1932C14.561 73.0974 14.9049 73.024 15.2299 72.9731C15.5663 72.9195 15.8219 72.9326 15.9967 73.0125C16.1715 73.0924 16.2453 73.2558 16.2181 73.5026C16.1882 73.738 16.0055 74.0929 15.6701 74.5672C15.0025 75.01 14.3038 75.3698 13.574 75.6465C12.8529 75.9092 12.1168 76.1333 11.3658 76.3187C10.6122 76.4926 9.85597 76.6552 9.09708 76.8064C8.33556 76.9461 7.5837 77.1016 6.8415 77.273C6.3004 76.8567 5.95824 76.5207 5.81505 76.2652C5.67185 76.0096 5.6569 75.8146 5.7702 75.6802C5.89228 75.5317 6.10746 75.4219 6.41576 75.3507C6.73284 75.2655 7.07803 75.1978 7.45132 75.1477C7.82198 75.0862 8.19265 75.0247 8.56331 74.9632C8.93133 74.8902 9.22601 74.7861 9.44734 74.6508ZM16.0128 69.5631C15.9443 69.2662 15.9697 69.0378 16.0892 68.8779C16.206 68.7066 16.43 68.5828 16.7611 68.5063L16.9324 68.4668C17.0088 68.6416 17.0975 68.8436 17.1986 69.0728C17.2996 69.3021 17.4248 69.5317 17.5741 69.7619C17.7235 69.992 17.886 70.201 18.0617 70.389C18.2347 70.5655 18.4271 70.6955 18.6388 70.7789C18.558 70.3766 18.5667 69.9717 18.665 69.5641C18.7722 69.1425 18.9298 68.7573 19.1379 68.4086C19.3548 68.0458 19.6065 67.7291 19.8928 67.4586C20.1879 67.174 20.4931 66.9592 20.8084 66.8142L21.1852 66.7272C21.7333 66.6007 22.2304 66.6182 22.6767 66.7798C23.1203 66.93 23.5138 67.1759 23.8573 67.5175C24.2095 67.8451 24.5121 68.2443 24.7651 68.7151C25.0182 69.1858 25.2396 69.6759 25.4293 70.1854C25.6279 70.6807 25.7895 71.1726 25.9143 71.661C26.0479 72.1353 26.1542 72.5437 26.2333 72.8862L24.983 73.1749C24.7563 72.5056 24.5191 71.8688 24.2713 71.2645C24.1791 71.0212 24.0728 70.7692 23.9524 70.5083C23.8294 70.236 23.706 69.9879 23.5821 69.7639C23.4556 69.5285 23.3286 69.3173 23.2013 69.1302C23.0713 68.9317 22.9377 68.7701 22.8007 68.6454C22.7445 68.6103 22.6672 68.562 22.5688 68.5005C22.4818 68.4364 22.3892 68.3736 22.2908 68.3121C22.1924 68.2506 22.1024 68.1993 22.0207 68.158C21.939 68.1167 21.8924 68.0974 21.881 68.1C21.5174 68.0878 21.2363 68.2248 21.0378 68.5112C20.8367 68.7861 20.6826 69.1344 20.5755 69.556C20.4683 69.9777 20.4073 70.4428 20.3925 70.9513C20.389 71.4573 20.3987 71.9421 20.4216 72.4059C20.4418 72.8582 20.473 73.2539 20.5152 73.593C20.5548 73.9206 20.5768 74.12 20.5812 74.1911C20.3432 74.4626 20.0893 74.5873 19.8197 74.5654C19.5474 74.532 19.2654 74.4047 18.9738 74.1834C18.6936 73.9594 18.4146 73.663 18.1371 73.2941C17.8709 72.9226 17.6108 72.5256 17.357 72.1031C17.1004 71.6693 16.8553 71.2327 16.6217 70.7936C16.3994 70.3518 16.1964 69.9416 16.0128 69.5631ZM29.6713 71.6776C29.825 71.5098 30.005 71.2999 30.2114 71.0477C30.4266 70.7816 30.6391 70.504 30.849 70.215C31.0589 69.926 31.2491 69.6295 31.4194 69.3256C31.5898 69.0217 31.7114 68.741 31.7843 68.4837C31.866 68.2123 31.8831 67.9738 31.8356 67.7682C31.7882 67.5627 31.6459 67.4152 31.4087 67.3256C31.0433 67.4099 30.6476 67.5193 30.2216 67.6538C29.793 67.7768 29.3618 67.8884 28.9279 67.9885C28.4913 68.0773 28.0596 68.1349 27.6327 68.1613C27.2173 68.185 26.8286 68.1425 26.4667 68.0336C26.1048 67.9247 25.7886 67.7271 25.518 67.4408C25.2562 67.1404 25.0647 66.7276 24.9435 66.2023C24.8011 65.5857 24.7874 65.0056 24.9025 64.4619C25.0263 63.9041 25.2388 63.392 25.54 62.9256C25.8386 62.4477 26.1947 62.0107 26.6084 61.6145C27.0308 61.2043 27.4638 60.8397 27.9074 60.5208C28.2227 60.5322 28.5297 60.6117 28.8284 60.7592C29.127 60.9068 29.3967 61.0851 29.6374 61.2941C29.6154 61.5637 29.5004 61.7948 29.2923 61.9871C29.0955 62.1769 28.8549 62.3587 28.5703 62.5327C28.2971 62.704 28.0082 62.8849 27.7034 63.0756C27.3986 63.2662 27.1316 63.4902 26.9024 63.7476C26.682 63.9909 26.516 64.2878 26.4045 64.6383C26.2903 64.9773 26.2899 65.3924 26.4033 65.8834C26.4876 66.2487 26.6409 66.496 26.8632 66.6251C27.0854 66.7542 27.3529 66.8187 27.6656 66.8187C27.9756 66.8072 28.3177 66.7523 28.6919 66.6539C29.0634 66.5441 29.4394 66.4272 29.8197 66.3033C30.2114 66.1768 30.5957 66.0701 30.9725 65.9831C31.3467 65.8847 31.694 65.8526 32.0146 65.8868C32.3326 65.9096 32.6023 66.0097 32.8236 66.1871C33.0564 66.3619 33.2216 66.6605 33.3191 67.083C33.3613 67.2657 33.3525 67.5143 33.2928 67.8287C33.2446 68.1405 33.1559 68.4857 33.0268 68.8643C32.9065 69.2289 32.7462 69.6026 32.546 69.9856C32.3572 70.3659 32.1447 70.7217 31.9084 71.0529C31.681 71.37 31.4385 71.6484 31.1812 71.8882C30.9327 72.114 30.6828 72.2559 30.4316 72.3139C30.1918 72.3692 30.0122 72.3205 29.8927 72.1677C29.7846 72.0122 29.7108 71.8489 29.6713 71.6776ZM31.9334 62.8747C31.9255 62.8405 31.9246 62.8106 31.9307 62.7852C31.9254 62.7623 31.9246 62.7325 31.9281 62.6956C31.9606 62.6279 32.0119 62.5379 32.0822 62.4255C32.1525 62.313 32.199 62.2542 32.2218 62.2489L35.6645 61.4541C35.6355 61.3285 35.5722 61.1326 35.4747 60.8665C35.3772 60.6004 35.2731 60.3057 35.1624 59.9825C35.0631 59.6566 34.9783 59.3154 34.908 58.9588C34.8351 58.5907 34.8056 58.2548 34.8196 57.9508C34.8424 57.6329 34.9241 57.3615 35.0646 57.1366C35.2139 56.8977 35.4598 56.7386 35.8024 56.6596C36.0686 57.8128 36.3621 58.7193 36.6828 59.3789C37.0034 60.0385 37.3386 60.5264 37.6882 60.8426C38.0492 61.1561 38.4142 61.3304 38.7831 61.3655C39.152 61.4006 39.5121 61.3716 39.8635 61.2785C40.2236 61.1713 40.5644 61.0325 40.8858 60.862C41.2073 60.6916 41.4954 60.5589 41.7501 60.4641C42.0162 60.3665 42.2398 60.345 42.4207 60.3994C42.599 60.4425 42.7251 60.6238 42.7989 60.9435C42.8543 61.1833 42.8367 61.3678 42.7463 61.4969C42.6672 61.6234 42.4801 61.7508 42.185 61.879C42.0963 61.9116 41.9474 61.97 41.7384 62.0543C41.5381 62.1246 41.3093 62.2015 41.052 62.285C40.7946 62.3684 40.5215 62.4616 40.2325 62.5643C39.9409 62.6557 39.6664 62.7431 39.4091 62.8266C39.1517 62.9101 38.9159 62.9826 38.7016 63.0441C38.4846 63.0942 38.3248 63.1311 38.222 63.1548C38.2352 63.2119 38.2519 63.3103 38.2721 63.4499C38.2923 63.5896 38.3077 63.6822 38.3182 63.7279C38.4342 64.2303 38.6275 64.7029 38.8981 65.1455C39.166 65.5768 39.4454 66.0054 39.7361 66.4314C40.0383 66.8547 40.3234 67.282 40.5914 67.7132C40.8593 68.1445 41.0513 68.6113 41.1672 69.1137C41.1883 69.2051 41.1993 69.3048 41.2002 69.4128C41.2099 69.5068 41.1954 69.6003 41.1568 69.6934C41.1269 69.7725 41.0645 69.841 40.9697 69.899C40.8889 69.9658 40.7563 69.9904 40.5718 69.9728C40.1115 69.9588 39.7294 69.7884 39.4255 69.4617C39.133 69.1324 38.876 68.7226 38.6546 68.2325C38.4306 67.731 38.2342 67.193 38.0655 66.6186C37.8968 66.0442 37.7145 65.515 37.5186 65.031C37.3315 64.533 37.1171 64.1255 36.8755 63.8084C36.6313 63.4799 36.323 63.3166 35.9506 63.3184L32.471 63.3279C32.4253 63.3385 32.3462 63.3086 32.2338 63.2384C32.1187 63.1567 32.0445 63.0956 32.0111 63.0552C31.9944 63.035 31.9821 63.0078 31.9742 62.9736C31.9575 62.9534 31.9439 62.9204 31.9334 62.8747ZM51.4694 65.1297C51.104 65.5267 50.7892 65.8821 50.5248 66.1957C50.2692 66.4952 50.0114 66.7592 49.7515 66.9876C49.4915 67.216 49.1995 67.4097 48.8754 67.5687C48.5627 67.7251 48.1609 67.8599 47.6699 67.9733C46.608 68.2185 45.7555 68.1206 45.1125 67.6797C44.4669 67.2274 44.0149 66.4418 43.7565 65.3228C43.6564 64.8889 43.6093 64.4247 43.6154 63.9302C43.6215 63.4356 43.6803 62.935 43.7918 62.4281C43.9121 61.9073 44.079 61.4057 44.2924 60.9235C44.5031 60.4298 44.7657 59.9783 45.0801 59.569C45.3945 59.1596 45.7476 58.8135 46.1393 58.5307C46.5398 58.2337 46.9856 58.0286 47.4766 57.9152C48.3171 57.8054 49.0097 57.862 49.5543 58.085C50.0963 58.2966 50.5465 58.6317 50.9049 59.0902C51.2607 59.5372 51.5567 60.0642 51.7931 60.6711C52.0268 61.2666 52.2429 61.8902 52.4415 62.542C52.6515 63.191 52.8729 63.8375 53.1057 64.4813C53.3385 65.1251 53.6451 65.6978 54.0255 66.1993C53.964 66.6104 53.8819 66.9059 53.7792 67.086C53.6905 67.2749 53.5544 67.3364 53.3708 67.2705C53.1872 67.2047 52.9408 66.9969 52.6316 66.6474C52.3338 66.2952 51.9464 65.7893 51.4694 65.1297ZM45.2203 65.0209C45.3705 65.6718 45.6012 66.1237 45.9121 66.3766C46.2319 66.6155 46.7057 66.6624 47.3338 66.5174C47.8019 66.4094 48.2288 66.2266 48.6143 65.9692C49.0087 65.6978 49.3328 65.3824 49.5866 65.0231C49.8378 64.6525 50.013 64.2392 50.1122 63.7833C50.2114 63.3274 50.203 62.8483 50.087 62.3459C50.0396 62.1403 49.9794 61.8536 49.9064 61.4855C49.8309 61.1061 49.7223 60.7403 49.5809 60.3881C49.4394 60.0359 49.2585 59.7469 49.038 59.5212C48.8149 59.284 48.5434 59.2024 48.2237 59.2762C47.63 59.4133 47.1175 59.6939 46.6862 60.1182C46.2524 60.5311 45.9068 61.0138 45.6495 61.5663C45.3922 62.1188 45.2267 62.7043 45.1529 63.3226C45.0766 63.9296 45.099 64.4957 45.2203 65.0209ZM52.7223 56.9567C52.6458 56.6256 52.5492 56.3112 52.4323 56.0134C52.3128 55.7042 52.2368 55.4271 52.2043 55.1821C52.1691 54.9256 52.2087 54.706 52.3228 54.5233C52.4484 54.3379 52.7167 54.1978 53.1278 54.1029C53.314 54.3365 53.5262 54.7085 53.7643 55.2188C54.0138 55.7265 54.276 56.3154 54.551 56.9856C54.826 57.6557 55.1098 58.39 55.4023 59.1884C55.6923 59.9754 55.9721 60.7707 56.2418 61.5744C56.523 62.3754 56.7844 63.169 57.026 63.9551C57.2764 64.7271 57.4939 65.4346 57.6784 66.0776C57.3596 66.4158 57.0609 66.5028 56.7825 66.3385C56.504 66.1743 56.2313 65.8524 55.9642 65.3729C55.6945 64.8819 55.434 64.2745 55.1827 63.5508C54.9288 62.8156 54.6696 62.0576 54.4052 61.2768C54.1495 60.4819 53.8806 59.7081 53.5986 58.9554C53.314 58.1912 53.0218 57.525 52.7223 56.9567ZM56.0286 56.1934C55.9521 55.8623 55.8555 55.5478 55.7386 55.2501C55.6191 54.9409 55.5431 54.6638 55.5106 54.4187C55.4755 54.1623 55.515 53.9427 55.6291 53.76C55.7547 53.5746 56.023 53.4345 56.4341 53.3396C56.6203 53.5732 56.8325 53.9452 57.0706 54.4555C57.3201 54.9632 57.5823 55.5521 57.8573 56.2222C58.1323 56.8924 58.4161 57.6267 58.7087 58.4251C58.9986 59.2121 59.2784 60.0074 59.5482 60.8111C59.8293 61.6121 60.0907 62.4057 60.3323 63.1918C60.5827 63.9638 60.8002 64.6713 60.9847 65.3143C60.6659 65.6525 60.3672 65.7394 60.0888 65.5752C59.8103 65.411 59.5376 65.0891 59.2705 64.6095C59.0008 64.1186 58.7403 63.5112 58.489 62.7875C58.2351 62.0523 57.9759 61.2943 57.7115 60.5135C57.4558 59.7186 57.187 58.9448 56.9049 58.192C56.6203 57.4279 56.3282 56.7617 56.0286 56.1934ZM65.9865 55.013C65.9785 54.9787 65.9777 54.9489 65.9838 54.9234C65.9785 54.9005 65.9777 54.8707 65.9812 54.8338C66.0137 54.7662 66.065 54.6761 66.1353 54.5637C66.2056 54.4512 66.2521 54.3924 66.2749 54.3871L69.7176 53.5923C69.6886 53.4667 69.6253 53.2708 69.5278 53.0047C69.4303 52.7386 69.3262 52.4439 69.2155 52.1207C69.1162 51.7948 69.0314 51.4536 68.9611 51.097C68.8881 50.7289 68.8587 50.393 68.8727 50.0891C68.8955 49.7711 68.9772 49.4997 69.1177 49.2748C69.267 49.0359 69.5129 48.8769 69.8555 48.7978C70.1217 49.951 70.4152 50.8575 70.7358 51.5171C71.0565 52.1767 71.3916 52.6646 71.7413 52.9808C72.1023 53.2943 72.4673 53.4686 72.8362 53.5037C73.2051 53.5388 73.5652 53.5098 73.9166 53.4167C74.2767 53.3095 74.6175 53.1707 74.9389 53.0003C75.2604 52.8298 75.5485 52.6972 75.8032 52.6023C76.0693 52.5048 76.2929 52.4832 76.4738 52.5377C76.6521 52.5807 76.7782 52.762 76.852 53.0818C76.9074 53.3215 76.8898 53.506 76.7993 53.6351C76.7203 53.7616 76.5332 53.889 76.2381 54.0173C76.1494 54.0498 76.0005 54.1082 75.7915 54.1925C75.5912 54.2628 75.3624 54.3397 75.1051 54.4232C74.8477 54.5066 74.5746 54.5998 74.2856 54.7026C73.994 54.7939 73.7195 54.8814 73.4622 54.9648C73.2048 55.0483 72.969 55.1208 72.7547 55.1823C72.5377 55.2324 72.3778 55.2693 72.2751 55.293C72.2883 55.3501 72.305 55.4485 72.3252 55.5881C72.3454 55.7278 72.3608 55.8205 72.3713 55.8661C72.4873 56.3685 72.6806 56.8411 72.9512 57.2837C73.2191 57.715 73.4985 58.1436 73.7892 58.5696C74.0914 58.9929 74.3765 59.4202 74.6444 59.8515C74.9124 60.2827 75.1043 60.7495 75.2203 61.252C75.2414 61.3433 75.2524 61.443 75.2533 61.551C75.263 61.645 75.2485 61.7386 75.2098 61.8317C75.18 61.9107 75.1176 61.9792 75.0228 62.0372C74.942 62.104 74.8093 62.1286 74.6249 62.111C74.1646 62.097 73.7825 61.9267 73.4786 61.5999C73.1861 61.2706 72.9291 60.8609 72.7077 60.3708C72.4837 59.8692 72.2873 59.3313 72.1186 58.7568C71.9499 58.1824 71.7676 57.6532 71.5717 57.1693C71.3846 56.6712 71.1702 56.2637 70.9286 55.9466C70.6844 55.6182 70.3761 55.4548 70.0037 55.4566L66.5241 55.4662C66.4784 55.4767 66.3993 55.4468 66.2869 55.3766C66.1718 55.2949 66.0976 55.2339 66.0642 55.1935C66.0475 55.1733 66.0352 55.146 66.0273 55.1118C66.0106 55.0916 65.997 55.0586 65.9865 55.013ZM76.5941 49.9301C76.5651 49.8045 76.541 49.6477 76.5216 49.4597C76.5111 49.2577 76.5203 49.0631 76.5492 48.8761C76.5896 48.6863 76.6537 48.5212 76.7416 48.3806C76.8268 48.2287 76.9607 48.1316 77.1434 48.0894C77.1548 48.0868 77.1847 48.0859 77.233 48.0868C77.2813 48.0877 77.3112 48.0868 77.3226 48.0841C77.6801 48.7473 77.9564 49.4231 78.1515 50.1118C78.3466 50.8004 78.492 51.4824 78.5878 52.1578C78.681 52.8219 78.7416 53.4754 78.7698 54.1183C78.7953 54.7499 78.8274 55.3318 78.8661 55.864C78.9163 56.3937 78.9773 56.8667 79.0494 57.283C79.1329 57.6967 79.2761 58.0305 79.479 58.2843C79.414 58.1069 79.3468 57.8939 79.2774 57.6453C79.2167 57.3827 79.1776 57.1091 79.16 56.8245C79.1539 56.5373 79.1762 56.2435 79.2271 55.9431C79.2895 55.64 79.4098 55.3537 79.5881 55.084C79.7664 54.8143 80.018 54.5758 80.343 54.3685C80.6793 54.1585 81.1159 53.9916 81.6525 53.8677C82.212 53.7385 82.714 53.7249 83.1585 53.8267C83.6144 53.9259 84.0131 54.1165 84.3549 54.3984C84.6939 54.6689 84.979 55.0181 85.21 55.4458C85.4499 55.8595 85.6291 56.3232 85.7477 56.8371C85.8031 57.0768 85.8606 57.3522 85.9204 57.6631C85.9889 57.96 86.0136 58.249 85.9943 58.5301C85.9837 58.7971 85.9025 59.0444 85.7506 59.2719C85.6074 59.4853 85.3532 59.6342 84.9878 59.7186C84.9456 59.5359 84.9003 59.2878 84.852 58.9742C84.801 58.6492 84.7347 58.3097 84.653 57.9558C84.5826 57.5991 84.4882 57.2421 84.3696 56.8846C84.2624 56.5245 84.113 56.2162 83.9215 55.9598C83.7274 55.6919 83.495 55.4929 83.2245 55.363C82.9627 55.219 82.6377 55.1918 82.2495 55.2814C82.1125 55.313 81.9439 55.364 81.7436 55.4343C81.5521 55.4905 81.3642 55.588 81.1797 55.7268C80.9953 55.8656 80.8284 56.0545 80.6791 56.2934C80.5272 56.5209 80.4323 56.8134 80.3946 57.1709C80.3542 57.517 80.3806 57.9439 80.4738 58.4515C80.5757 58.9452 80.7782 59.5358 81.0813 60.2236C81.0488 60.4476 80.9738 60.5912 80.8561 60.6544C80.7498 60.715 80.6053 60.7664 80.4226 60.8086C80.0572 60.893 79.7256 60.8372 79.4279 60.6414C79.1389 60.4315 78.8815 60.1241 78.6557 59.7192C78.4299 59.3143 78.2283 58.8316 78.0508 58.2713C77.8847 57.7083 77.7362 57.1171 77.6053 56.4979C77.4717 55.8673 77.354 55.2269 77.252 54.577C77.1589 53.9129 77.0692 53.2902 76.9831 52.7087C76.9057 52.1132 76.8358 51.5761 76.7734 51.0974C76.7198 50.6046 76.66 50.2155 76.5941 49.9301ZM85.2251 54.6485C85.0828 54.0319 85.0147 53.3982 85.0207 52.7473C85.0268 52.0965 85.1331 51.4886 85.3394 50.9238C85.5572 50.3564 85.8874 49.8592 86.3301 49.4323C86.7841 49.0027 87.3823 48.7023 88.1245 48.5309C88.5469 48.4334 88.9365 48.4276 89.2931 48.5137C89.6471 48.5883 89.9616 48.7262 90.2365 48.9273C90.5115 49.1284 90.7399 49.3884 90.9217 49.7072C91.1123 50.012 91.2498 50.3471 91.3342 50.7125C91.4686 51.2948 91.4621 51.8917 91.3146 52.503C91.1785 53.1117 90.9309 53.68 90.5717 54.208C90.2212 54.7218 89.7799 55.1545 89.2477 55.5059C88.7128 55.8458 88.1296 56.0286 87.498 56.0541C87.5859 56.3826 87.7563 56.6259 88.0093 56.784C88.2711 56.928 88.5622 57.0171 88.8828 57.0514C89.2035 57.0856 89.5276 57.0829 89.8552 57.0434C90.1802 56.9924 90.4683 56.9379 90.7195 56.8799C90.9821 56.8193 91.2223 56.7398 91.4401 56.6414C91.658 56.543 91.8745 56.4389 92.0897 56.3291C92.3049 56.2192 92.5214 56.1151 92.7392 56.0167C92.9684 55.9157 93.2144 55.8349 93.477 55.7742C93.5797 55.7505 93.6838 55.7325 93.7892 55.7202C93.8946 55.7079 93.9983 55.714 94.1002 55.7386C94.1994 55.7518 94.2881 55.7974 94.3663 55.8756C94.4419 55.9424 94.4941 56.0385 94.5231 56.1641C94.5732 56.3811 94.5355 56.5822 94.4099 56.7676C94.2817 56.9415 94.1038 57.1088 93.8763 57.2696C93.6603 57.4277 93.4104 57.5696 93.1267 57.6952C92.8404 57.8095 92.5584 57.9166 92.2809 58.0168C92.0121 58.1029 91.7578 58.1736 91.518 58.229C91.2923 58.2931 91.1223 58.3384 91.0082 58.3648C90.2774 58.5335 89.5945 58.5709 88.9594 58.4769C88.3217 58.3716 87.7556 58.1595 87.261 57.8407C86.7639 57.5105 86.3396 57.0793 85.9882 56.547C85.6456 56.0007 85.3912 55.3679 85.2251 54.6485ZM86.7836 53.1161C86.8759 53.5157 86.9945 53.795 87.1395 53.954C87.2958 54.1103 87.5852 54.1397 88.0077 54.0422C88.3046 53.9737 88.5839 53.8551 88.8456 53.6864C89.1047 53.5063 89.3261 53.2928 89.5096 53.046C89.7046 52.7965 89.8403 52.5247 89.9167 52.2304C89.9931 51.9361 89.9957 51.6349 89.9245 51.3266C89.8849 51.1553 89.827 50.9823 89.7505 50.8075C89.6855 50.6301 89.5902 50.4777 89.4646 50.3503C89.3363 50.2116 89.1874 50.1136 89.0179 50.0566C88.8572 49.9854 88.6626 49.9762 88.4342 50.0289C88.0917 50.108 87.7961 50.2604 87.5476 50.4862C87.3078 50.6979 87.1199 50.9518 86.9837 51.2478C86.845 51.5324 86.7598 51.8407 86.7282 52.1727C86.694 52.4933 86.7125 52.8078 86.7836 53.1161ZM99.7276 44.0842C99.6169 43.6046 99.663 43.179 99.8659 42.8075C100.08 42.4333 100.373 42.1131 100.745 41.8469C101.125 41.5667 101.548 41.3426 102.015 41.1748C102.478 40.9956 102.904 40.8612 103.293 40.7715C104.035 40.6002 104.691 40.605 105.262 40.7858C105.842 40.9527 106.341 41.2403 106.76 41.6487C107.191 42.0545 107.547 42.5555 107.829 43.1519C108.111 43.7483 108.327 44.3719 108.477 45.0227C108.578 45.4566 108.651 45.981 108.696 46.5959C108.739 47.1993 108.742 47.8361 108.704 48.5063C108.664 49.1651 108.578 49.8344 108.446 50.5142C108.323 51.18 108.142 51.7993 107.901 52.372C107.658 52.9333 107.348 53.4138 106.971 53.8135C106.606 54.2105 106.16 54.4697 105.635 54.591C105.532 54.6147 105.375 54.5067 105.163 54.2669C104.961 54.0131 104.714 53.6732 104.423 53.2472C104.144 52.8186 103.837 52.3241 103.503 51.7637C103.178 51.1893 102.849 50.5978 102.516 49.9891C102.181 49.369 101.856 48.7463 101.544 48.1209C101.231 47.4956 100.941 46.9189 100.675 46.3911C100.42 45.8606 100.21 45.392 100.044 44.9853C99.8779 44.5787 99.7725 44.2783 99.7276 44.0842ZM101.375 44.7322C101.459 45.0976 101.578 45.5091 101.732 45.9667C101.897 46.4217 102.089 46.8885 102.308 47.3672C102.538 47.8433 102.792 48.3197 103.071 48.7967C103.358 49.2595 103.661 49.6886 103.981 50.0838C104.301 50.479 104.64 50.8277 104.998 51.1298C105.354 51.4205 105.727 51.6291 106.117 51.7556C106.379 51.1179 106.602 50.5491 106.788 50.0493C106.973 49.5495 107.107 49.0616 107.189 48.5855C107.272 48.1094 107.296 47.6166 107.263 47.1072C107.241 46.5951 107.155 46.0137 107.005 45.3628C106.896 44.8946 106.762 44.4445 106.603 44.0124C106.443 43.5802 106.226 43.2153 105.953 42.9176C105.688 42.6058 105.361 42.3866 104.971 42.2602C104.579 42.1223 104.103 42.118 103.543 42.2472C103.086 42.3526 102.658 42.5296 102.259 42.7782C101.868 43.0128 101.499 43.2904 101.152 43.611C101.16 43.6453 101.17 43.7151 101.182 43.8205C101.206 43.9233 101.232 44.0375 101.261 44.1631C101.288 44.2773 101.308 44.3928 101.323 44.5096C101.347 44.6123 101.364 44.6866 101.375 44.7322ZM117.331 49.9243C116.966 50.3214 116.651 50.6767 116.387 50.9903C116.131 51.2898 115.873 51.5538 115.613 51.7822C115.353 52.0106 115.061 52.2043 114.737 52.3633C114.424 52.5197 114.023 52.6545 113.532 52.7679C112.47 53.0131 111.617 52.9152 110.974 52.4743C110.329 52.022 109.877 51.2364 109.618 50.1174C109.518 49.6835 109.471 49.2193 109.477 48.7248C109.483 48.2302 109.542 47.7296 109.654 47.2228C109.774 46.7019 109.941 46.2003 110.154 45.7181C110.365 45.2244 110.627 44.7729 110.942 44.3636C111.256 43.9542 111.609 43.6081 112.001 43.3253C112.402 43.0283 112.847 42.8232 113.338 42.7098C114.179 42.6 114.872 42.6566 115.416 42.8796C115.958 43.0912 116.408 43.4263 116.767 43.8848C117.122 44.3318 117.419 44.8588 117.655 45.4657C117.889 46.0612 118.105 46.6848 118.303 47.3366C118.513 47.9857 118.735 48.6321 118.967 49.2759C119.2 49.9197 119.507 50.4924 119.887 50.9939C119.826 51.405 119.744 51.7006 119.641 51.8806C119.552 52.0695 119.416 52.131 119.233 52.0651C119.049 51.9993 118.803 51.7916 118.493 51.442C118.196 51.0898 117.808 50.5839 117.331 49.9243ZM111.082 49.8155C111.232 50.4664 111.463 50.9183 111.774 51.1712C112.094 51.4101 112.568 51.457 113.196 51.3121C113.664 51.204 114.091 51.0212 114.476 50.7638C114.87 50.4924 115.195 50.177 115.448 49.8178C115.7 49.4471 115.875 49.0338 115.974 48.5779C116.073 48.122 116.065 47.6429 115.949 47.1405C115.901 46.9349 115.841 46.6482 115.768 46.2801C115.693 45.9007 115.584 45.5349 115.443 45.1827C115.301 44.8305 115.12 44.5415 114.9 44.3158C114.677 44.0786 114.405 43.997 114.086 44.0708C113.492 44.2079 112.979 44.4886 112.548 44.9128C112.114 45.3257 111.769 45.8084 111.511 46.3609C111.254 46.9134 111.088 47.4989 111.015 48.1172C110.938 48.7242 110.961 49.2903 111.082 49.8155ZM118.041 42.9952C118.033 42.9609 118.033 42.931 118.039 42.9056C118.033 42.8827 118.033 42.8529 118.036 42.816C118.069 42.7483 118.12 42.6583 118.19 42.5459C118.26 42.4334 118.307 42.3746 118.33 42.3693L121.772 41.5745C121.743 41.4489 121.68 41.253 121.583 40.9869C121.485 40.7208 121.381 40.4261 121.27 40.1029C121.171 39.777 121.086 39.4358 121.016 39.0792C120.943 38.7111 120.914 38.3752 120.928 38.0713C120.95 37.7533 121.032 37.4819 121.173 37.257C121.322 37.0181 121.568 36.8591 121.91 36.78C122.177 37.9332 122.47 38.8397 122.791 39.4993C123.111 40.1589 123.447 40.6468 123.796 40.963C124.157 41.2765 124.522 41.4508 124.891 41.4859C125.26 41.521 125.62 41.492 125.971 41.3989C126.332 41.2917 126.672 41.1529 126.994 40.9824C127.315 40.812 127.603 40.6793 127.858 40.5845C128.124 40.4869 128.348 40.4654 128.529 40.5198C128.707 40.5629 128.833 40.7442 128.907 41.0639C128.962 41.3037 128.945 41.4882 128.854 41.6173C128.775 41.7438 128.588 41.8712 128.293 41.9995C128.204 42.032 128.055 42.0904 127.846 42.1747C127.646 42.245 127.417 42.3219 127.16 42.4054C126.903 42.4888 126.629 42.582 126.34 42.6848C126.049 42.7761 125.774 42.8636 125.517 42.947C125.26 43.0305 125.024 43.103 124.81 43.1645C124.593 43.2146 124.433 43.2515 124.33 43.2752C124.343 43.3323 124.36 43.4307 124.38 43.5703C124.4 43.71 124.416 43.8026 124.426 43.8483C124.542 44.3507 124.735 44.8233 125.006 45.2659C125.274 45.6972 125.553 46.1258 125.844 46.5518C126.146 46.9751 126.431 47.4024 126.699 47.8337C126.967 48.2649 127.159 48.7317 127.275 49.2341C127.296 49.3255 127.307 49.4252 127.308 49.5332C127.318 49.6272 127.303 49.7207 127.265 49.8139C127.235 49.8929 127.173 49.9614 127.078 50.0194C126.997 50.0862 126.864 50.1108 126.68 50.0932C126.22 50.0792 125.837 49.9089 125.533 49.5821C125.241 49.2528 124.984 48.843 124.763 48.3529C124.539 47.8514 124.342 47.3134 124.174 46.739C124.005 46.1646 123.822 45.6354 123.627 45.1514C123.439 44.6534 123.225 44.2459 122.984 43.9288C122.739 43.6003 122.431 43.437 122.059 43.4388L118.579 43.4483C118.533 43.4589 118.454 43.429 118.342 43.3588C118.227 43.2771 118.152 43.2161 118.119 43.1756C118.102 43.1554 118.09 43.1282 118.082 43.094C118.066 43.0738 118.052 43.0408 118.041 42.9952ZM137.577 45.2501C137.212 45.6472 136.897 46.0025 136.633 46.3161C136.377 46.6156 136.119 46.8796 135.859 47.108C135.599 47.3364 135.307 47.5301 134.983 47.6891C134.671 47.8455 134.269 47.9803 133.778 48.0937C132.716 48.3389 131.863 48.241 131.22 47.8001C130.575 47.3478 130.123 46.5622 129.865 45.4432C129.764 45.0093 129.717 44.5451 129.723 44.0506C129.729 43.556 129.788 43.0554 129.9 42.5486C130.02 42.0277 130.187 41.5261 130.4 41.0439C130.611 40.5502 130.874 40.0987 131.188 39.6894C131.503 39.28 131.856 38.9339 132.247 38.6511C132.648 38.3541 133.094 38.149 133.585 38.0356C134.425 37.9258 135.118 37.9824 135.662 38.2054C136.204 38.417 136.654 38.7521 137.013 39.2106C137.369 39.6576 137.665 40.1846 137.901 40.7915C138.135 41.387 138.351 42.0106 138.549 42.6624C138.759 43.3115 138.981 43.9579 139.214 44.6017C139.446 45.2455 139.753 45.8182 140.133 46.3197C140.072 46.7308 139.99 47.0264 139.887 47.2064C139.798 47.3953 139.662 47.4568 139.479 47.3909C139.295 47.3251 139.049 47.1174 138.74 46.7678C138.442 46.4156 138.054 45.9097 137.577 45.2501ZM131.328 45.1413C131.479 45.7922 131.709 46.2441 132.02 46.497C132.34 46.7359 132.814 46.7828 133.442 46.6379C133.91 46.5298 134.337 46.347 134.722 46.0896C135.117 45.8182 135.441 45.5028 135.695 45.1436C135.946 44.7729 136.121 44.3596 136.22 43.9037C136.319 43.4478 136.311 42.9687 136.195 42.4663C136.148 42.2607 136.087 41.974 136.014 41.6059C135.939 41.2265 135.83 40.8607 135.689 40.5085C135.547 40.1563 135.366 39.8673 135.146 39.6416C134.923 39.4044 134.651 39.3228 134.332 39.3966C133.738 39.5337 133.225 39.8144 132.794 40.2386C132.36 40.6515 132.015 41.1342 131.757 41.6867C131.5 42.2392 131.335 42.8247 131.261 43.443C131.185 44.05 131.207 44.6161 131.328 45.1413ZM137.825 36.317C137.812 36.2599 137.795 36.1616 137.775 36.0219C137.741 35.8735 137.706 35.725 137.672 35.5766C137.635 35.4167 137.607 35.267 137.586 35.1273C137.555 34.9903 137.534 34.8989 137.523 34.8533C137.737 34.4791 137.929 34.2423 138.099 34.1431C138.28 34.0412 138.442 34.0398 138.585 34.1391C138.725 34.2269 138.849 34.3968 138.955 34.6489C139.073 34.8984 139.181 35.186 139.281 35.5119C139.38 35.8377 139.472 36.1834 139.556 36.5487C139.641 36.9141 139.725 37.2554 139.811 37.5724C139.893 37.8781 139.979 38.1469 140.069 38.3788C140.158 38.6106 140.258 38.756 140.368 38.8148L146.243 37.4585C146.483 37.4032 146.637 37.2894 146.705 37.1173C146.774 36.9451 146.786 36.7378 146.742 36.4954C146.709 36.2503 146.64 35.9776 146.535 35.6772C146.43 35.3768 146.323 35.0707 146.215 34.7589C146.116 34.433 146.03 34.116 145.959 33.8077C145.897 33.4853 145.884 33.1937 145.92 32.9328C145.967 32.6693 146.076 32.4396 146.248 32.2437C146.419 32.0478 146.704 31.9038 147.104 31.8115C147.302 31.9942 147.449 32.2129 147.544 32.4676C147.636 32.7109 147.703 32.9722 147.743 33.2515C147.795 33.5282 147.83 33.8088 147.847 34.0934C147.874 34.3639 147.916 34.6248 147.974 34.876C148.129 35.5497 148.325 36.2141 148.56 36.8694C148.807 37.522 149.054 38.1746 149.301 38.8272C149.559 39.4771 149.806 40.1297 150.041 40.785C150.286 41.4261 150.483 42.0722 150.633 42.723C150.82 43.4257 150.891 43.9443 150.848 44.279C150.803 44.6022 150.69 44.7665 150.511 44.7718C150.334 44.7885 150.101 44.662 149.81 44.3924C149.531 44.1201 149.238 43.7368 148.931 43.2423C148.636 42.7451 148.348 42.1501 148.068 41.4571C147.796 40.75 147.575 39.9714 147.402 39.1212L141.219 40.5486C141.481 41.318 141.755 42.0365 142.042 42.704C142.339 43.3689 142.585 43.9618 142.777 44.4826C142.978 44.9894 143.104 45.4053 143.155 45.7303C143.215 46.0413 143.138 46.2275 142.923 46.289C142.592 46.3654 142.287 46.3215 142.009 46.1573C141.728 45.9817 141.457 45.7195 141.196 45.3708C140.947 45.0195 140.711 44.5988 140.49 44.1087C140.266 43.6072 140.053 43.0788 139.853 42.5237C139.65 41.9572 139.456 41.3766 139.271 40.782C139.097 40.1848 138.928 39.6103 138.765 39.0587C138.601 38.5071 138.441 37.9968 138.285 37.5278C138.126 37.0474 137.972 36.6438 137.825 36.317ZM150.229 39.6412C150.087 39.0246 150.019 38.3908 150.025 37.74C150.031 37.0891 150.137 36.4813 150.343 35.9165C150.561 35.349 150.891 34.8519 151.334 34.4249C151.788 33.9954 152.386 33.6949 153.128 33.5236C153.551 33.426 153.941 33.4203 154.297 33.5063C154.651 33.581 154.966 33.7188 155.241 33.9199C155.515 34.1211 155.744 34.381 155.926 34.6999C156.116 35.0046 156.254 35.3397 156.338 35.7051C156.473 36.2874 156.466 36.8843 156.319 37.4956C156.183 38.1044 155.935 38.6727 155.576 39.2006C155.225 39.7145 154.784 40.1471 154.252 40.4985C153.717 40.8385 153.134 41.0212 152.502 41.0468C152.59 41.3753 152.76 41.6185 153.013 41.7766C153.275 41.9207 153.566 42.0098 153.887 42.044C154.207 42.0782 154.532 42.0756 154.859 42.036C155.184 41.985 155.472 41.9305 155.724 41.8726C155.986 41.8119 156.226 41.7324 156.444 41.634C156.662 41.5356 156.879 41.4315 157.094 41.3217C157.309 41.2119 157.525 41.1078 157.743 41.0094C157.972 40.9083 158.218 40.8275 158.481 40.7669C158.584 40.7432 158.688 40.7251 158.793 40.7128C158.899 40.7005 159.002 40.7067 159.104 40.7312C159.203 40.7444 159.292 40.7901 159.37 40.8682C159.446 40.935 159.498 41.0312 159.527 41.1568C159.577 41.3737 159.539 41.5749 159.414 41.7602C159.286 41.9341 159.108 42.1015 158.88 42.2622C158.664 42.4204 158.414 42.5622 158.131 42.6879C157.844 42.8021 157.562 42.9093 157.285 43.0094C157.016 43.0955 156.762 43.1663 156.522 43.2216C156.296 43.2858 156.126 43.331 156.012 43.3574C155.281 43.5261 154.598 43.5635 153.963 43.4696C153.326 43.3642 152.76 43.1522 152.265 42.8334C151.768 42.5031 151.344 42.0719 150.992 41.5397C150.65 40.9934 150.395 40.3605 150.229 39.6412ZM151.788 38.1087C151.88 38.5084 151.999 38.7877 152.143 38.9466C152.3 39.103 152.589 39.1324 153.012 39.0348C153.309 38.9663 153.588 38.8477 153.85 38.679C154.109 38.4989 154.33 38.2855 154.514 38.0386C154.709 37.7892 154.844 37.5173 154.921 37.223C154.997 36.9288 155 36.6275 154.929 36.3192C154.889 36.1479 154.831 35.9749 154.755 35.8001C154.69 35.6227 154.594 35.4703 154.469 35.343C154.34 35.2042 154.191 35.1063 154.022 35.0492C153.861 34.9781 153.667 34.9689 153.438 35.0216C153.096 35.1007 152.8 35.2531 152.552 35.4788C152.312 35.6906 152.124 35.9444 151.988 36.2404C151.849 36.525 151.764 36.8333 151.732 37.1654C151.698 37.486 151.716 37.8004 151.788 38.1087ZM158.523 35.1646C158.5 35.0618 158.482 34.9577 158.469 34.8523C158.454 34.7355 158.455 34.6332 158.471 34.5453C158.484 34.4461 158.518 34.36 158.573 34.2871C158.64 34.2115 158.742 34.1579 158.879 34.1263C158.993 34.0999 159.14 34.1623 159.319 34.3134C159.507 34.4504 159.707 34.6387 159.919 34.8785C160.128 35.1069 160.338 35.3651 160.548 35.6532C160.771 35.9386 160.965 36.2065 161.131 36.4568C161.306 36.6931 161.45 36.9004 161.563 37.0786C161.676 37.2569 161.74 37.3505 161.754 37.3593C161.81 36.9254 161.876 36.4532 161.95 35.9429C162.025 35.4326 162.147 34.9473 162.318 34.487C162.497 34.0127 162.738 33.5963 163.04 33.2379C163.353 32.8769 163.778 32.6344 164.315 32.5105C164.589 32.4472 164.856 32.4336 165.117 32.4696C165.387 32.4915 165.633 32.567 165.855 32.6961C166.086 32.8112 166.285 32.9697 166.452 33.1717C166.619 33.3737 166.737 33.6231 166.805 33.92C166.863 34.1712 166.801 34.3719 166.62 34.5222C166.449 34.6697 166.238 34.7725 165.987 34.8305L165.816 34.8701L164.909 34.3036C164.887 34.3089 164.868 34.3071 164.854 34.2983C164.831 34.3036 164.808 34.3089 164.785 34.3142C164.771 34.3054 164.753 34.3036 164.73 34.3089C164.331 34.4012 164.043 34.5878 163.867 34.8689C163.7 35.136 163.598 35.4482 163.56 35.8057C163.52 36.1518 163.525 36.5115 163.575 36.8848C163.634 37.244 163.698 37.5721 163.766 37.869C163.819 38.0973 163.896 38.3261 163.997 38.5554C164.095 38.7732 164.199 38.9897 164.309 39.2049C164.416 39.4087 164.52 39.6252 164.621 39.8544C164.72 40.0722 164.798 40.3067 164.856 40.558C164.967 41.0375 164.765 41.3366 164.251 41.4553C163.966 41.5212 163.635 41.4413 163.258 41.2156C162.878 40.9784 162.48 40.6614 162.064 40.2644C161.659 39.8648 161.255 39.4169 160.852 38.9206C160.446 38.413 160.078 37.9145 159.749 37.4253C159.419 36.9361 159.142 36.4891 158.916 36.0842C158.702 35.6766 158.571 35.3701 158.523 35.1646ZM167.432 37.0226C167.269 36.3147 167.283 35.6199 167.474 34.9383C167.663 34.2452 167.975 33.6198 168.412 33.062C168.857 32.4901 169.388 32.0009 170.003 31.5941C170.63 31.1847 171.292 30.8997 171.989 30.7388C172.377 30.6492 172.749 30.6957 173.103 30.8784C173.47 31.0584 173.798 31.3074 174.088 31.6254C174.375 31.9319 174.616 32.2731 174.811 32.649C175.018 33.0223 175.155 33.3574 175.224 33.6542C175.371 34.2937 175.361 34.9516 175.192 35.6279C175.021 36.2929 174.744 36.9161 174.361 37.4976C173.975 38.0677 173.507 38.5666 172.957 38.9944C172.406 39.4222 171.822 39.7073 171.206 39.8497C170.658 39.9762 170.174 39.9916 169.755 39.8959C169.334 39.7888 168.973 39.6075 168.673 39.3519C168.371 39.0849 168.114 38.7533 167.903 38.3572C167.7 37.947 167.543 37.5022 167.432 37.0226ZM168.927 36.8578C168.996 37.1546 169.079 37.412 169.178 37.6298C169.285 37.8336 169.42 38.0009 169.582 38.1318C169.756 38.26 169.962 38.3447 170.2 38.386C170.436 38.4158 170.713 38.3939 171.033 38.32C171.455 38.2225 171.852 38.0108 172.221 37.6849C172.588 37.3476 172.897 36.9637 173.146 36.5333C173.404 36.0888 173.586 35.6259 173.691 35.1445C173.797 34.6632 173.802 34.217 173.707 33.8059C173.665 33.6232 173.602 33.4273 173.517 33.2183C173.433 33.0093 173.33 32.8226 173.208 32.6584C173.086 32.4941 172.936 32.3664 172.758 32.275C172.581 32.1837 172.378 32.1644 172.15 32.2171C171.944 32.2646 171.714 32.3897 171.461 32.5927C171.218 32.793 170.968 33.0372 170.71 33.3253C170.463 33.6108 170.223 33.9248 169.989 34.2674C169.767 34.6073 169.568 34.942 169.391 35.2714C169.215 35.6008 169.081 35.9083 168.991 36.1937C168.912 36.4766 168.891 36.6979 168.927 36.8578ZM175.238 33.8675C175.095 33.2509 175.027 32.6172 175.033 31.9663C175.039 31.3155 175.145 30.7076 175.352 30.1428C175.57 29.5754 175.9 29.0782 176.342 28.6513C176.797 28.2217 177.395 27.9213 178.137 27.7499C178.559 27.6524 178.949 27.6467 179.306 27.7327C179.659 27.8073 179.974 27.9452 180.249 28.1463C180.524 28.3474 180.752 28.6074 180.934 28.9262C181.125 29.231 181.262 29.5661 181.347 29.9315C181.481 30.5138 181.474 31.1107 181.327 31.722C181.191 32.3307 180.943 32.899 180.584 33.427C180.234 33.9408 179.792 34.3735 179.26 34.7249C178.725 35.0648 178.142 35.2476 177.51 35.2731C177.598 35.6016 177.769 35.8449 178.022 36.003C178.283 36.147 178.575 36.2361 178.895 36.2704C179.216 36.3046 179.54 36.3019 179.868 36.2624C180.193 36.2114 180.481 36.1569 180.732 36.0989C180.994 36.0383 181.235 35.9588 181.453 35.8604C181.67 35.762 181.887 35.6579 182.102 35.5481C182.317 35.4382 182.534 35.3341 182.752 35.2357C182.981 35.1347 183.227 35.0539 183.489 34.9932C183.592 34.9695 183.696 34.9515 183.802 34.9392C183.907 34.9269 184.011 34.933 184.113 34.9576C184.212 34.9708 184.301 35.0164 184.379 35.0946C184.454 35.1614 184.507 35.2575 184.536 35.3831C184.586 35.6001 184.548 35.8012 184.422 35.9866C184.294 36.1605 184.116 36.3279 183.889 36.4886C183.673 36.6467 183.423 36.7886 183.139 36.9142C182.853 37.0285 182.571 37.1356 182.293 37.2358C182.024 37.3219 181.77 37.3926 181.53 37.448C181.305 37.5121 181.135 37.5574 181.021 37.5838C180.29 37.7525 179.607 37.7899 178.972 37.6959C178.334 37.5906 177.768 37.3785 177.273 37.0597C176.776 36.7295 176.352 36.2983 176.001 35.766C175.658 35.2197 175.404 34.5869 175.238 33.8675ZM176.796 32.3351C176.888 32.7347 177.007 33.014 177.152 33.173C177.308 33.3293 177.598 33.3587 178.02 33.2612C178.317 33.1927 178.596 33.0741 178.858 32.9054C179.117 32.7253 179.338 32.5118 179.522 32.265C179.717 32.0155 179.853 31.7437 179.929 31.4494C180.005 31.1552 180.008 30.8539 179.937 30.5456C179.897 30.3743 179.839 30.2013 179.763 30.0265C179.698 29.8491 179.603 29.6967 179.477 29.5693C179.349 29.4306 179.2 29.3326 179.03 29.2756C178.87 29.2044 178.675 29.1952 178.447 29.2479C178.104 29.327 177.809 29.4795 177.56 29.7052C177.32 29.9169 177.132 30.1708 176.996 30.4668C176.857 30.7514 176.772 31.0597 176.741 31.3917C176.706 31.7123 176.725 32.0268 176.796 32.3351ZM188.303 35.0546C188.457 34.8868 188.637 34.6768 188.843 34.4247C189.058 34.1586 189.271 33.881 189.481 33.592C189.691 33.303 189.881 33.0065 190.051 32.7026C190.222 32.3987 190.343 32.118 190.416 31.8607C190.498 31.5892 190.515 31.3508 190.467 31.1452C190.42 30.9397 190.278 30.7921 190.04 30.7026C189.675 30.7869 189.279 30.8963 188.853 31.0308C188.425 31.1538 187.993 31.2654 187.56 31.3655C187.123 31.4543 186.691 31.5119 186.264 31.5382C185.849 31.562 185.46 31.5194 185.098 31.4106C184.737 31.3017 184.42 31.1041 184.15 30.8178C183.888 30.5174 183.696 30.1046 183.575 29.5793C183.433 28.9627 183.419 28.3826 183.534 27.8389C183.658 27.2811 183.87 26.769 184.172 26.3026C184.47 25.8247 184.826 25.3877 185.24 24.9915C185.663 24.5813 186.096 24.2167 186.539 23.8978C186.854 23.9092 187.161 23.9887 187.46 24.1362C187.759 24.2838 188.028 24.462 188.269 24.6711C188.247 24.9407 188.132 25.1717 187.924 25.3641C187.727 25.5539 187.487 25.7357 187.202 25.9096C186.929 26.0809 186.64 26.2619 186.335 26.4526C186.03 26.6432 185.763 26.8672 185.534 27.1246C185.314 27.3679 185.148 27.6648 185.036 28.0153C184.922 28.3543 184.922 28.7694 185.035 29.2603C185.119 29.6257 185.273 29.873 185.495 30.0021C185.717 30.1312 185.985 30.1957 186.297 30.1957C186.607 30.1842 186.949 30.1293 187.324 30.0309C187.695 29.9211 188.071 29.8042 188.451 29.6803C188.843 29.5538 189.227 29.447 189.604 29.36C189.978 29.2616 190.326 29.2295 190.646 29.2638C190.964 29.2866 191.234 29.3867 191.455 29.5641C191.688 29.7389 191.853 30.0375 191.951 30.46C191.993 30.6427 191.984 30.8912 191.925 31.2057C191.876 31.5175 191.788 31.8627 191.659 32.2413C191.538 32.6058 191.378 32.9796 191.178 33.3626C190.989 33.7429 190.776 34.0987 190.54 34.4298C190.313 34.7469 190.07 35.0254 189.813 35.2652C189.564 35.491 189.314 35.6329 189.063 35.6909C188.824 35.7462 188.644 35.6975 188.524 35.5447C188.416 35.3892 188.343 35.2258 188.303 35.0546ZM197.193 21.9795C197.14 21.7511 197.18 21.5856 197.312 21.4828C197.456 21.3774 197.62 21.3036 197.803 21.2614C197.837 21.2535 197.901 21.2447 197.995 21.235C198.1 21.2227 198.164 21.2139 198.187 21.2086C198.303 21.5547 198.436 21.975 198.587 22.4695C198.734 22.9526 198.898 23.48 199.078 24.0518C199.256 24.6122 199.45 25.1928 199.661 25.7935C199.872 26.3943 200.108 26.9771 200.371 27.5418C200.631 28.0952 200.914 28.6191 201.221 29.1136C201.525 29.5966 201.853 30.002 202.205 30.3296C202.286 30.4192 202.356 30.4872 202.415 30.5338C202.482 30.5663 202.543 30.5944 202.597 30.6181C202.659 30.6277 202.726 30.6304 202.797 30.626C202.865 30.6101 202.951 30.5904 203.054 30.5666C203.522 30.4586 203.949 30.2758 204.334 30.0184C204.731 29.7584 205.119 29.4826 205.496 29.1909C205.874 28.8993 206.261 28.6234 206.658 28.3634C207.055 28.1034 207.494 27.918 207.973 27.8073C208.076 27.7835 208.207 27.7532 208.367 27.7163C208.524 27.668 208.674 27.6394 208.816 27.6306C208.959 27.6218 209.092 27.6513 209.216 27.7189C209.339 27.7865 209.422 27.9117 209.465 28.0943C209.504 28.2656 209.394 28.4896 209.133 28.7663C208.869 29.0316 208.521 29.3224 208.089 29.6386C207.655 29.9435 207.174 30.2588 206.648 30.5848C206.133 30.908 205.63 31.2045 205.14 31.4742C204.66 31.7413 204.231 31.9666 203.852 32.1503C203.471 32.3224 203.218 32.423 203.092 32.452C202.681 32.5469 202.284 32.4943 201.901 32.294C201.527 32.0798 201.166 31.7662 200.818 31.3534C200.479 30.9266 200.16 30.429 199.86 29.8607C199.558 29.2811 199.279 28.6719 199.023 28.0334C198.768 27.3949 198.536 26.7568 198.329 26.1191C198.121 25.4814 197.942 24.8855 197.79 24.3312C197.638 23.777 197.507 23.29 197.398 22.8701C197.301 22.4477 197.232 22.1508 197.193 21.9795ZM209.3 24.2536C209.284 24.1851 209.259 24.0766 209.225 23.9282C209.2 23.7657 209.167 23.5988 209.128 23.4275C209.1 23.2536 209.067 23.0867 209.03 22.9269C209.005 22.7644 208.984 22.6489 208.968 22.5803C209.052 22.3687 209.177 22.1833 209.345 22.0243C209.524 21.8627 209.709 21.7239 209.898 21.6079C210.075 22.2166 210.323 22.8508 210.644 23.5104C210.965 24.17 211.298 24.8327 211.644 25.4984C211.988 26.1528 212.307 26.8067 212.602 27.4602C212.909 28.111 213.131 28.7333 213.268 29.327C213.387 29.8409 213.183 30.1584 212.658 30.2797C212.338 30.3535 212.04 30.2841 211.762 30.0716C211.484 29.8591 211.231 29.5688 211.002 29.2008C210.781 28.8187 210.574 28.3914 210.381 27.9189C210.185 27.4349 210.015 26.9571 209.87 26.4854C209.736 26.0111 209.618 25.5755 209.514 25.1785C209.422 24.7788 209.35 24.4705 209.3 24.2536ZM208.057 17.7754C208.295 17.8166 208.512 17.9229 208.708 18.0942C208.904 18.2654 209.01 18.4393 209.027 18.6159C209.053 18.7784 208.953 18.9216 208.729 19.0454C208.503 19.1579 208.087 19.1816 207.483 19.1167C207.412 18.8084 207.407 18.5269 207.468 18.2721C207.541 18.0148 207.738 17.8492 208.057 17.7754ZM215.821 28.7377C215.229 27.7918 214.671 26.9104 214.146 26.0936C213.629 25.2627 213.152 24.4467 212.715 23.6457C212.286 22.8306 211.9 21.9936 211.558 21.1346C211.215 20.2756 210.926 19.338 210.692 18.3218C210.673 18.2418 210.64 18.0991 210.593 17.8936C210.554 17.674 210.509 17.45 210.456 17.2216C210.403 16.9933 210.353 16.7763 210.306 16.5708C210.267 16.3512 210.238 16.2014 210.22 16.1215C210.27 15.8694 210.398 15.6173 210.605 15.3652C210.822 15.1105 211.063 14.9528 211.325 14.8921C211.52 15.7371 211.74 16.6365 211.984 17.5904C212.226 18.5329 212.513 19.4648 212.846 20.3861C213.191 21.3049 213.599 22.1906 214.073 23.0435C214.555 23.8823 215.129 24.6218 215.794 25.2621C215.742 24.9854 215.684 24.6801 215.619 24.3464C215.554 24.0126 215.506 23.6749 215.475 23.3332C215.456 22.9889 215.467 22.6494 215.51 22.3147C215.553 21.9801 215.656 21.6678 215.817 21.378C215.99 21.0854 216.238 20.8298 216.56 20.6111C216.894 20.3897 217.336 20.2215 217.887 20.1063C218.378 19.993 218.839 19.9828 219.269 20.0759C219.711 20.1663 220.1 20.3411 220.436 20.6002C220.782 20.8452 221.072 21.1631 221.306 21.554C221.549 21.9308 221.725 22.3533 221.833 22.8214C221.978 23.4494 221.966 24.1016 221.798 24.778C221.629 25.4543 221.343 26.0916 220.94 26.6898C220.549 27.2853 220.073 27.8041 219.514 28.2459C218.951 28.6764 218.345 28.9667 217.694 29.117C217.363 29.1934 217.03 29.2102 216.695 29.1671C216.358 29.1127 216.067 28.9696 215.821 28.7377ZM218.437 21.549C218.237 21.7273 218.032 21.9311 217.82 22.1604C217.608 22.3897 217.436 22.712 217.304 23.1275C217.18 23.5289 217.115 24.0551 217.109 24.7059C217.103 25.3568 217.2 26.1943 217.4 27.2184C217.423 27.2132 217.481 27.2057 217.575 27.196C217.681 27.1837 217.751 27.1736 217.785 27.1657C218.093 27.0945 218.419 26.9171 218.762 26.6333C219.117 26.3469 219.444 26.0189 219.744 25.649C220.055 25.2766 220.308 24.8874 220.503 24.4816C220.695 24.0644 220.783 23.6893 220.766 23.3564C220.756 23.1544 220.664 22.941 220.492 22.7161C220.32 22.4913 220.11 22.2871 219.863 22.1035C219.625 21.9059 219.374 21.7536 219.108 21.6464C218.855 21.5366 218.631 21.5042 218.437 21.549ZM221.678 20.5841C221.655 20.4813 221.637 20.3772 221.624 20.2718C221.609 20.155 221.61 20.0527 221.626 19.9649C221.639 19.8656 221.673 19.7795 221.728 19.7066C221.795 19.6311 221.897 19.5775 222.034 19.5458C222.148 19.5195 222.295 19.5818 222.474 19.7329C222.662 19.8699 222.862 20.0583 223.074 20.2981C223.283 20.5264 223.493 20.7846 223.703 21.0727C223.926 21.3581 224.12 21.626 224.286 21.8763C224.461 22.1126 224.605 22.3199 224.718 22.4982C224.831 22.6765 224.895 22.77 224.909 22.7788C224.965 22.3449 225.031 21.8728 225.105 21.3624C225.18 20.8521 225.302 20.3668 225.473 19.9065C225.652 19.4322 225.892 19.0158 226.195 18.6574C226.508 18.2964 226.933 18.0539 227.47 17.93C227.744 17.8668 228.011 17.8531 228.272 17.8891C228.542 17.911 228.788 17.9866 229.01 18.1157C229.241 18.2307 229.44 18.3892 229.607 18.5912C229.774 18.7932 229.892 19.0427 229.96 19.3396C230.018 19.5908 229.956 19.7915 229.774 19.9417C229.604 20.0893 229.393 20.1921 229.142 20.25L228.971 20.2896L228.064 19.7231C228.041 19.7284 228.023 19.7267 228.009 19.7179C227.986 19.7231 227.963 19.7284 227.94 19.7337C227.926 19.7249 227.908 19.7232 227.885 19.7284C227.485 19.8207 227.198 20.0074 227.022 20.2885C226.855 20.5555 226.753 20.8678 226.715 21.2253C226.675 21.5713 226.68 21.931 226.73 22.3043C226.789 22.6636 226.852 22.9916 226.921 23.2885C226.974 23.5169 227.051 23.7457 227.152 23.9749C227.25 24.1927 227.354 24.4092 227.464 24.6244C227.571 24.8282 227.675 25.0447 227.776 25.2739C227.875 25.4918 227.953 25.7263 228.011 25.9775C228.122 26.4571 227.92 26.7562 227.406 26.8748C227.121 26.9407 226.79 26.8608 226.413 26.6351C226.033 26.398 225.635 26.0809 225.219 25.6839C224.814 25.2843 224.41 24.8364 224.007 24.3402C223.601 23.8325 223.233 23.3341 222.904 22.8449C222.574 22.3557 222.297 21.9086 222.071 21.5037C221.857 21.0962 221.726 20.7896 221.678 20.5841ZM238.244 22.0093C237.879 22.4063 237.564 22.7616 237.3 23.0752C237.044 23.3748 236.787 23.6388 236.527 23.8672C236.267 24.0955 235.975 24.2893 235.65 24.4483C235.338 24.6046 234.936 24.7395 234.445 24.8529C233.383 25.098 232.531 25.0002 231.888 24.5593C231.242 24.107 230.79 23.3214 230.532 22.2023C230.431 21.7685 230.384 21.3042 230.391 20.8097C230.397 20.3152 230.455 19.8145 230.567 19.3077C230.687 18.7868 230.854 18.2853 231.067 17.803C231.278 17.3094 231.541 16.8579 231.855 16.4485C232.17 16.0392 232.523 15.6931 232.914 15.4102C233.315 15.1133 233.761 14.9082 234.252 14.7948C235.092 14.6849 235.785 14.7415 236.329 14.9646C236.871 15.1762 237.322 15.5113 237.68 15.9697C238.036 16.4168 238.332 16.9438 238.568 17.5507C238.802 18.1462 239.018 18.7698 239.217 19.4215C239.427 20.0706 239.648 20.7171 239.881 21.3609C240.114 22.0047 240.42 22.5774 240.801 23.0789C240.739 23.4899 240.657 23.7855 240.554 23.9656C240.466 24.1544 240.329 24.2159 240.146 24.1501C239.962 24.0842 239.716 23.8765 239.407 23.527C239.109 23.1748 238.721 22.6689 238.244 22.0093ZM231.995 21.9005C232.146 22.5513 232.376 23.0032 232.687 23.2562C233.007 23.4951 233.481 23.542 234.109 23.397C234.577 23.2889 235.004 23.1062 235.389 22.8488C235.784 22.5774 236.108 22.262 236.362 21.9027C236.613 21.532 236.788 21.1187 236.887 20.6629C236.986 20.207 236.978 19.7279 236.862 19.2254C236.815 19.0199 236.754 18.7331 236.682 18.3651C236.606 17.9857 236.497 17.6198 236.356 17.2676C236.215 16.9154 236.034 16.6265 235.813 16.4007C235.59 16.1636 235.319 16.0819 234.999 16.1558C234.405 16.2928 233.893 16.5735 233.461 16.9978C233.027 17.4107 232.682 17.8934 232.425 18.4459C232.167 18.9984 232.002 19.5838 231.928 20.2022C231.852 20.8092 231.874 21.3752 231.995 21.9005ZM239.664 16.4318C239.64 16.3291 239.622 16.225 239.61 16.1196C239.595 16.0028 239.595 15.9004 239.611 15.8126C239.624 15.7134 239.658 15.6273 239.714 15.5544C239.78 15.4788 239.882 15.4252 240.019 15.3936C240.133 15.3672 240.28 15.4296 240.459 15.5806C240.647 15.7176 240.847 15.906 241.059 16.1458C241.268 16.3742 241.478 16.6324 241.689 16.9205C241.911 17.2059 242.105 17.4738 242.271 17.7241C242.446 17.9604 242.59 18.1676 242.703 18.3459C242.817 18.5242 242.88 18.6178 242.894 18.6266C242.951 18.1926 243.016 17.7205 243.091 17.2102C243.165 16.6999 243.288 16.2145 243.458 15.7543C243.637 15.2799 243.878 14.8636 244.18 14.5052C244.493 14.1441 244.919 13.9017 245.455 13.7778C245.729 13.7145 245.997 13.7009 246.258 13.7369C246.527 13.7588 246.773 13.8343 246.995 13.9634C247.226 14.0785 247.425 14.237 247.592 14.439C247.759 14.641 247.877 14.8904 247.946 15.1873C248.004 15.4385 247.942 15.6392 247.76 15.7894C247.589 15.937 247.379 16.0398 247.127 16.0978L246.956 16.1373L246.05 15.5709C246.027 15.5762 246.008 15.5744 245.994 15.5656C245.971 15.5709 245.949 15.5762 245.926 15.5814C245.912 15.5727 245.893 15.5709 245.87 15.5762C245.471 15.6684 245.183 15.8551 245.008 16.1362C244.841 16.4032 244.738 16.7155 244.701 17.073C244.66 17.4191 244.665 17.7788 244.715 18.1521C244.774 18.5113 244.838 18.8394 244.906 19.1363C244.959 19.3646 245.036 19.5934 245.137 19.8227C245.235 20.0405 245.339 20.257 245.449 20.4722C245.556 20.676 245.661 20.8925 245.762 21.1217C245.86 21.3395 245.938 21.574 245.996 21.8252C246.107 22.3048 245.905 22.6039 245.392 22.7225C245.106 22.7884 244.775 22.7085 244.398 22.4828C244.019 22.2457 243.621 21.9287 243.204 21.5317C242.799 21.1321 242.395 20.6842 241.992 20.1879C241.586 19.6803 241.219 19.1818 240.889 18.6926C240.56 18.2034 240.282 17.7563 240.056 17.3514C239.842 16.9439 239.711 16.6374 239.664 16.4318ZM247.04 12.979C247.016 12.8763 246.992 12.7735 246.968 12.6708C246.953 12.5539 246.953 12.4459 246.966 12.3466C246.988 12.2333 247.028 12.1459 247.086 12.0844C247.152 12.0089 247.26 11.954 247.408 11.9197C247.42 11.9171 247.431 11.9144 247.443 11.9118C247.465 11.9065 247.488 11.9013 247.511 11.896C247.548 11.8995 247.578 11.8986 247.601 11.8933C247.886 12.1401 248.163 12.4792 248.431 12.9104C248.696 13.3302 248.964 13.7856 249.233 14.2766C249.5 14.7562 249.782 15.2445 250.077 15.7416C250.369 16.2273 250.701 16.6498 251.073 17.009C251.444 17.3682 251.859 17.6273 252.317 17.7862C252.774 17.9452 253.296 17.939 253.882 17.7676C254.145 17.707 254.283 17.5247 254.297 17.2208C254.311 16.9169 254.267 16.5423 254.164 16.097C254.072 15.649 253.948 15.1607 253.789 14.6319C253.643 14.1005 253.525 13.5924 253.438 13.1076C253.358 12.6087 253.345 12.1607 253.398 11.7637C253.462 11.364 253.656 11.0605 253.981 10.8532C254.198 11.1158 254.426 11.5563 254.665 12.1746C254.913 12.7789 255.156 13.4926 255.394 14.3156C255.63 15.1271 255.859 16.0182 256.083 16.9888C256.305 17.9479 256.504 18.9123 256.679 19.882C256.852 20.8403 256.995 21.7696 257.106 22.6699C257.218 23.5702 257.293 24.3647 257.332 25.0533C257.371 25.7419 257.354 26.2931 257.281 26.7068C257.222 27.1293 257.1 27.3318 256.916 27.3142C256.623 27.1412 256.366 26.8878 256.145 26.5541C255.935 26.2177 255.75 25.8334 255.59 25.4013C255.442 24.9665 255.315 24.4966 255.211 23.9916C255.109 23.4979 255.011 22.9973 254.918 22.4896C254.836 21.9793 254.757 21.4804 254.681 20.9929C254.616 20.5028 254.537 20.0579 254.445 19.6583C254.042 19.7874 253.605 19.8222 253.134 19.7625C252.674 19.7001 252.201 19.5509 251.713 19.3146C251.223 19.067 250.734 18.7469 250.247 18.3543C249.771 17.9591 249.32 17.4918 248.895 16.9526C248.481 16.4107 248.114 15.8099 247.793 15.1503C247.47 14.4792 247.219 13.7555 247.04 12.979Z" fill="#BCBCBC"/>
<path d="M133.041 65.3145C134.708 71.6478 140.441 84.7145 150.041 86.3145C162.041 88.3145 174.041 72.3145 187.541 79.3145C198.341 84.9145 211.041 88.9811 216.041 90.3145" stroke="#BCBCBC" stroke-width="2" stroke-linecap="round" stroke-dasharray="6 6"/>
<g clip-path="url(#clip0_92_222)">
<path d="M223.423 85.0668L239.67 98.4101L218.646 98.3776L225.028 93.1553L223.423 85.0668Z" stroke="#BCBCBC" stroke-width="2" stroke-linecap="round" stroke-linejoin="round"/>
</g>
<defs>
<clipPath id="clip0_92_222">
<rect width="24" height="24" fill="white" transform="translate(232.092 77.6602) rotate(64.7424)"/>
</clipPath>
</defs>
</svg>
