<svg width="184" height="28" viewBox="0 0 184 28" fill="none" xmlns="http://www.w3.org/2000/svg">
<g clip-path="url(#clip0_2403_15)">
<path d="M18.6985 27.9781C20.7498 27.9781 22.4127 26.3097 22.4127 24.2515C22.4127 22.1934 20.7498 20.5249 18.6985 20.5249C16.6473 20.5249 14.9844 22.1934 14.9844 24.2515C14.9844 26.3097 16.6473 27.9781 18.6985 27.9781Z" fill="#E21B1A"/>
<path d="M27.5181 17.2023C29.1203 17.2023 30.4191 15.9035 30.4191 14.3013C30.4191 12.6992 29.1203 11.4004 27.5181 11.4004C25.916 11.4004 24.6172 12.6992 24.6172 14.3013C24.6172 15.9035 25.916 17.2023 27.5181 17.2023Z" fill="#E21B1A"/>
<path d="M17.9084 15.9752C19.2708 15.9752 20.3753 14.8707 20.3753 13.5082C20.3753 12.1458 19.2708 11.0413 17.9084 11.0413C16.5459 11.0413 15.4414 12.1458 15.4414 13.5082C15.4414 14.8707 16.5459 15.9752 17.9084 15.9752Z" fill="#002A73"/>
<path d="M2.48649 20.3335C3.84896 20.3335 4.95345 19.229 4.95345 17.8665C4.95345 16.504 3.84896 15.3995 2.48649 15.3995C1.12403 15.3995 0.0195312 16.504 0.0195312 17.8665C0.0195312 19.229 1.12403 20.3335 2.48649 20.3335Z" fill="#E21B1A"/>
<path d="M23.1887 7.4229C25.0167 7.4229 26.4986 5.94103 26.4986 4.11306C26.4986 2.28509 25.0167 0.803223 23.1887 0.803223C21.3608 0.803223 19.8789 2.28509 19.8789 4.11306C19.8789 5.94103 21.3608 7.4229 23.1887 7.4229Z" fill="#002A73"/>
<path d="M15.4204 7.99864C15.7497 7.99864 16.0166 7.73172 16.0166 7.40246C16.0166 7.07319 15.7497 6.80627 15.4204 6.80627C15.0911 6.80627 14.8242 7.07319 14.8242 7.40246C14.8242 7.73172 15.0911 7.99864 15.4204 7.99864Z" fill="#E21B1A"/>
<path d="M2.46728 10.3833C2.79654 10.3833 3.06346 10.1164 3.06346 9.7871C3.06346 9.45784 2.79654 9.19092 2.46728 9.19092C2.13801 9.19092 1.87109 9.45784 1.87109 9.7871C1.87109 10.1164 2.13801 10.3833 2.46728 10.3833Z" fill="#002A73"/>
<path d="M7.52587 23.4995C7.85513 23.4995 8.12205 23.2326 8.12205 22.9033C8.12205 22.574 7.85513 22.3071 7.52587 22.3071C7.19661 22.3071 6.92969 22.574 6.92969 22.9033C6.92969 23.2326 7.19661 23.4995 7.52587 23.4995Z" fill="#E21B1A"/>
<path d="M29.729 8.61534C30.0583 8.61534 30.3252 8.34842 30.3252 8.01916C30.3252 7.68989 30.0583 7.42297 29.729 7.42297C29.3997 7.42297 29.1328 7.68989 29.1328 8.01916C29.1328 8.34842 29.3997 8.61534 29.729 8.61534Z" fill="#E21B1A"/>
<path d="M14.6157 1.99566C15.1607 1.99566 15.6025 1.55386 15.6025 1.00888C15.6025 0.463893 15.1607 0.0220947 14.6157 0.0220947C14.0707 0.0220947 13.6289 0.463893 13.6289 1.00888C13.6289 1.55386 14.0707 1.99566 14.6157 1.99566Z" fill="#002A73"/>
<path d="M33.7166 7.423C34.3411 7.423 34.8473 6.91677 34.8473 6.29231C34.8473 5.66785 34.3411 5.16162 33.7166 5.16162C33.0922 5.16162 32.5859 5.66785 32.5859 6.29231C32.5859 6.91677 33.0922 7.423 33.7166 7.423Z" fill="#E21B1A"/>
<path d="M29.1932 22.5949C29.8177 22.5949 30.3239 22.0886 30.3239 21.4642C30.3239 20.8397 29.8177 20.3335 29.1932 20.3335C28.5687 20.3335 28.0625 20.8397 28.0625 21.4642C28.0625 22.0886 28.5687 22.5949 29.1932 22.5949Z" fill="#002A73"/>
<path d="M33.3466 11.4523C33.7667 11.4523 34.1072 11.1118 34.1072 10.6917C34.1072 10.2716 33.7667 9.93103 33.3466 9.93103C32.9265 9.93103 32.5859 10.2716 32.5859 10.6917C32.5859 11.1118 32.9265 11.4523 33.3466 11.4523Z" fill="#002A73"/>
<path d="M10.5277 19.5523C11.2657 19.5523 11.8639 18.954 11.8639 18.216C11.8639 17.478 11.2657 16.8798 10.5277 16.8798C9.78967 16.8798 9.19141 17.478 9.19141 18.216C9.19141 18.954 9.78967 19.5523 10.5277 19.5523Z" fill="#002A73"/>
<path d="M7.52377 5.4494C8.26177 5.4494 8.86004 4.85113 8.86004 4.11313C8.86004 3.37512 8.26177 2.77686 7.52377 2.77686C6.78577 2.77686 6.1875 3.37512 6.1875 4.11313C6.1875 4.85113 6.78577 5.4494 7.52377 5.4494Z" fill="#E21B1A"/>
<path d="M9.70547 13.1792C10.8976 13.1792 11.8641 12.2128 11.8641 11.0207C11.8641 9.82849 10.8976 8.86206 9.70547 8.86206C8.51331 8.86206 7.54688 9.82849 7.54688 11.0207C7.54688 12.2128 8.51331 13.1792 9.70547 13.1792Z" fill="#E21B1A"/>
<path d="M46.0156 23.8472V5.89587H51.871C53.8145 5.89587 55.5011 6.28142 56.9311 7.05247C58.3607 7.82356 59.4692 8.88378 60.2562 10.2331C61.0435 11.5825 61.437 13.1246 61.437 14.8597C61.437 16.5944 61.0435 18.1445 60.2562 19.5099C59.4692 20.8593 58.3607 21.9197 56.9311 22.6907C55.5011 23.4616 53.8145 23.8472 51.871 23.8472H46.0156ZM49.7506 20.5941H51.9672C53.1398 20.5941 54.1521 20.3614 55.0032 19.8956C55.8547 19.4137 56.5134 18.7468 56.9792 17.8957C57.4611 17.0282 57.702 16.0163 57.702 14.8597C57.702 13.6867 57.4611 12.6748 56.9792 11.8234C56.5134 10.9721 55.8547 10.3134 55.0032 9.84758C54.1521 9.38173 53.1398 9.14881 51.9672 9.14881H49.7506V20.5941ZM67.6357 24.1363C66.6879 24.1363 65.8689 23.9838 65.1782 23.6787C64.4874 23.3732 63.957 22.9398 63.5878 22.3773C63.2182 21.7993 63.0335 21.1163 63.0335 20.3294C63.0335 19.5905 63.2021 18.9396 63.5393 18.3776C63.8768 17.7991 64.3908 17.3172 65.0815 16.9319C65.7883 16.5463 66.6637 16.2733 67.708 16.1125L71.732 15.4621V18.1124L68.3585 18.7147C67.8445 18.8114 67.451 18.9799 67.178 19.2209C66.9046 19.4458 66.7681 19.7751 66.7681 20.2089C66.7681 20.6102 66.9211 20.9235 67.2261 21.1484C67.5312 21.3733 67.9087 21.486 68.3585 21.486C68.953 21.486 69.4752 21.3573 69.925 21.1003C70.3748 20.8433 70.7202 20.4979 70.9611 20.0642C71.2181 19.6144 71.3464 19.1247 71.3464 18.5943V15.1726C71.3464 14.6747 71.1457 14.2569 70.744 13.9198C70.3584 13.5826 69.8284 13.4136 69.1537 13.4136C68.511 13.4136 67.9407 13.5904 67.4428 13.944C66.9609 14.2972 66.6078 14.7631 66.3829 15.3416L63.4912 13.9679C63.7481 13.229 64.1581 12.5945 64.7201 12.0644C65.2822 11.5343 65.9569 11.1247 66.7443 10.8355C67.5312 10.5464 68.3905 10.4018 69.3222 10.4018C70.4307 10.4018 71.4109 10.6026 72.262 11.0042C73.1135 11.4058 73.7722 11.968 74.2381 12.6909C74.7199 13.3976 74.9609 14.2249 74.9609 15.1726V23.8472H71.5873V21.7269L72.4068 21.5822C72.0211 22.1607 71.5955 22.6425 71.1297 23.0278C70.6639 23.3974 70.1417 23.6704 69.5636 23.8472C68.9851 24.0401 68.3424 24.1363 67.6357 24.1363ZM83.7137 23.992C82.1233 23.992 80.8861 23.566 80.0025 22.7149C79.1354 21.8474 78.7016 20.6427 78.7016 19.1004V13.8236H76.4846V10.6909H76.6051C77.2798 10.6909 77.7938 10.5223 78.1474 10.1849C78.5166 9.84758 78.7016 9.34156 78.7016 8.66689V7.70305H82.3157V10.6909H85.4002V13.8236H82.3157V18.8595C82.3157 19.3093 82.3963 19.6867 82.5567 19.9918C82.7174 20.2813 82.9666 20.4979 83.3037 20.6427C83.6413 20.787 84.059 20.8593 84.557 20.8593C84.6692 20.8593 84.7979 20.8515 84.9422 20.8351C85.0869 20.8191 85.2395 20.803 85.4002 20.787V23.8472C85.1593 23.8793 84.8863 23.9114 84.5808 23.9435C84.2757 23.9759 83.9867 23.992 83.7137 23.992ZM91.5903 24.1363C90.6425 24.1363 89.8235 23.9838 89.1328 23.6787C88.442 23.3732 87.9116 22.9398 87.5424 22.3773C87.1727 21.7993 86.9881 21.1163 86.9881 20.3294C86.9881 19.5905 87.1567 18.9396 87.4939 18.3776C87.8314 17.7991 88.3454 17.3172 89.0361 16.9319C89.7429 16.5463 90.6183 16.2733 91.6626 16.1125L95.6866 15.4621V18.1124L92.3131 18.7147C91.7991 18.8114 91.4056 18.9799 91.1326 19.2209C90.8596 19.4458 90.7227 19.7751 90.7227 20.2089C90.7227 20.6102 90.8757 20.9235 91.1807 21.1484C91.4858 21.3733 91.8633 21.486 92.3131 21.486C92.9076 21.486 93.4298 21.3573 93.8796 21.1003C94.3294 20.8433 94.6748 20.4979 94.9157 20.0642C95.1727 19.6144 95.301 19.1247 95.301 18.5943V15.1726C95.301 14.6747 95.1003 14.2569 94.6986 13.9198C94.313 13.5826 93.783 13.4136 93.1083 13.4136C92.4656 13.4136 91.8957 13.5904 91.3974 13.944C90.9155 14.2972 90.5624 14.7631 90.3374 15.3416L87.4458 13.9679C87.7027 13.229 88.1127 12.5945 88.6747 12.0644C89.2372 11.5343 89.9115 11.1247 90.6989 10.8355C91.4858 10.5464 92.3451 10.4018 93.2772 10.4018C94.3853 10.4018 95.3655 10.6026 96.2166 11.0042C97.0681 11.4058 97.7268 11.968 98.1927 12.6909C98.6745 13.3976 98.9155 14.2249 98.9155 15.1726V23.8472H95.5419V21.7269L96.3614 21.5822C95.9757 22.1607 95.5501 22.6425 95.0843 23.0278C94.6185 23.3974 94.0963 23.6704 93.5182 23.8472C92.9397 24.0401 92.297 24.1363 91.5903 24.1363Z" fill="#002A73"/>
<path d="M101.832 23.8472V5.89587H105.567V13.6546H112.554V5.89587H116.289V23.8472H112.554V16.9077H105.567V23.8472H101.832ZM125.552 24.1363C124.155 24.1363 122.942 23.8312 121.914 23.2206C120.886 22.5944 120.09 21.759 119.528 20.7146C118.966 19.6707 118.685 18.5141 118.685 17.2448C118.685 15.9279 118.974 14.7553 119.553 13.727C120.147 12.6989 120.942 11.8877 121.938 11.2933C122.934 10.699 124.059 10.4018 125.311 10.4018C126.355 10.4018 127.279 10.5705 128.082 10.9078C128.886 11.2291 129.56 11.6869 130.106 12.2813C130.669 12.8754 131.094 13.5662 131.383 14.3536C131.673 15.1245 131.817 15.9678 131.817 16.8834C131.817 17.1404 131.801 17.3978 131.769 17.6548C131.753 17.8957 131.713 18.1046 131.649 18.281H121.793V15.6306H129.601L127.89 16.8834C128.05 16.1927 128.042 15.5825 127.865 15.0521C127.689 14.5061 127.375 14.0806 126.926 13.7751C126.492 13.4539 125.954 13.2932 125.311 13.2932C124.685 13.2932 124.147 13.4457 123.697 13.7512C123.247 14.0563 122.91 14.5061 122.685 15.1006C122.46 15.6948 122.372 16.4176 122.42 17.2691C122.355 18.008 122.444 18.6588 122.685 19.2209C122.926 19.7829 123.295 20.2249 123.793 20.546C124.291 20.8515 124.894 21.0041 125.6 21.0041C126.243 21.0041 126.789 20.8754 127.239 20.6184C127.705 20.3614 128.066 20.0078 128.323 19.558L131.215 20.9317C130.958 21.5744 130.548 22.1364 129.986 22.6183C129.44 23.1002 128.789 23.4776 128.034 23.751C127.279 24.008 126.452 24.1363 125.552 24.1363ZM133.946 23.8472V10.6909H137.319V13.8474L137.078 13.3898C137.367 12.2813 137.841 11.5343 138.5 11.1488C139.174 10.7472 139.97 10.5464 140.885 10.5464H141.656V13.6788H140.524C139.64 13.6788 138.925 13.9519 138.379 14.4979C137.833 15.0283 137.56 15.7832 137.56 16.763V23.8472H133.946ZM149.77 24.1363C148.469 24.1363 147.28 23.839 146.204 23.2449C145.144 22.6504 144.293 21.8391 143.65 20.8112C143.023 19.7669 142.71 18.5865 142.71 17.2691C142.71 15.9357 143.023 14.7553 143.65 13.727C144.293 12.6989 145.144 11.8877 146.204 11.2933C147.28 10.699 148.469 10.4018 149.77 10.4018C151.071 10.4018 152.252 10.699 153.312 11.2933C154.373 11.8877 155.216 12.6989 155.842 13.727C156.485 14.7553 156.806 15.9357 156.806 17.2691C156.806 18.5865 156.485 19.7669 155.842 20.8112C155.216 21.8391 154.373 22.6504 153.312 23.2449C152.252 23.839 151.071 24.1363 149.77 24.1363ZM149.77 20.8836C150.429 20.8836 150.999 20.7307 151.481 20.4256C151.979 20.1205 152.364 19.6949 152.637 19.1485C152.927 18.6025 153.071 17.9759 153.071 17.2691C153.071 16.5623 152.927 15.9439 152.637 15.4135C152.364 14.8675 151.979 14.442 151.481 14.1365C150.999 13.8154 150.429 13.6546 149.77 13.6546C149.112 13.6546 148.533 13.8154 148.035 14.1365C147.537 14.442 147.144 14.8675 146.854 15.4135C146.581 15.9439 146.445 16.5623 146.445 17.2691C146.445 17.9759 146.581 18.6025 146.854 19.1485C147.144 19.6949 147.537 20.1205 148.035 20.4256C148.533 20.7307 149.112 20.8836 149.77 20.8836ZM165.273 24.1363C163.875 24.1363 162.662 23.8312 161.634 23.2206C160.606 22.5944 159.811 21.759 159.249 20.7146C158.686 19.6707 158.405 18.5141 158.405 17.2448C158.405 15.9279 158.695 14.7553 159.273 13.727C159.867 12.6989 160.662 11.8877 161.658 11.2933C162.654 10.699 163.779 10.4018 165.032 10.4018C166.076 10.4018 167 10.5705 167.803 10.9078C168.606 11.2291 169.281 11.6869 169.827 12.2813C170.389 12.8754 170.815 13.5662 171.104 14.3536C171.393 15.1245 171.538 15.9678 171.538 16.8834C171.538 17.1404 171.522 17.3978 171.49 17.6548C171.474 17.8957 171.433 18.1046 171.369 18.281H161.514V15.6306H169.321L167.61 16.8834C167.771 16.1927 167.763 15.5825 167.586 15.0521C167.409 14.5061 167.096 14.0806 166.646 13.7751C166.212 13.4539 165.674 13.2932 165.032 13.2932C164.405 13.2932 163.867 13.4457 163.417 13.7512C162.967 14.0563 162.63 14.5061 162.405 15.1006C162.18 15.6948 162.092 16.4176 162.14 17.2691C162.076 18.008 162.164 18.6588 162.405 19.2209C162.646 19.7829 163.016 20.2249 163.514 20.546C164.012 20.8515 164.614 21.0041 165.321 21.0041C165.964 21.0041 166.51 20.8754 166.959 20.6184C167.425 20.3614 167.787 20.0078 168.044 19.558L170.935 20.9317C170.678 21.5744 170.268 22.1364 169.706 22.6183C169.16 23.1002 168.509 23.4776 167.755 23.751C167 24.008 166.172 24.1363 165.273 24.1363ZM178.823 24.1363C177.377 24.1363 176.115 23.7991 175.039 23.1244C173.979 22.4337 173.256 21.5098 172.871 20.3532L175.521 19.1004C175.859 19.8072 176.317 20.3614 176.895 20.7631C177.473 21.1644 178.116 21.3655 178.823 21.3655C179.337 21.3655 179.73 21.2611 180.003 21.0522C180.276 20.8433 180.413 20.5543 180.413 20.1846C180.413 19.9918 180.364 19.8314 180.268 19.7028C180.172 19.558 180.027 19.4297 179.834 19.3171C179.642 19.2048 179.401 19.1082 179.112 19.028L176.871 18.4014C175.794 18.0964 174.967 17.6063 174.389 16.9319C173.811 16.2412 173.521 15.43 173.521 14.4979C173.521 13.6788 173.73 12.9638 174.148 12.3536C174.565 11.7431 175.152 11.2692 175.907 10.9319C176.662 10.5785 177.529 10.4018 178.509 10.4018C179.794 10.4018 180.919 10.707 181.882 11.3174C182.863 11.9118 183.553 12.7551 183.955 13.8474L181.28 15.1006C181.087 14.5542 180.734 14.1204 180.22 13.7993C179.722 13.4618 179.152 13.2932 178.509 13.2932C178.043 13.2932 177.674 13.3898 177.401 13.5826C177.144 13.7751 177.015 14.0403 177.015 14.3774C177.015 14.5542 177.064 14.715 177.16 14.8597C177.256 15.004 177.409 15.1327 177.617 15.245C177.842 15.3576 178.116 15.462 178.437 15.5583L180.533 16.1849C181.625 16.506 182.461 16.9961 183.039 17.6548C183.618 18.297 183.907 19.0922 183.907 20.0403C183.907 20.8593 183.69 21.5744 183.256 22.1845C182.838 22.7951 182.252 23.277 181.497 23.6306C180.742 23.9677 179.85 24.1363 178.823 24.1363Z" fill="#E21B1A"/>
</g>
<defs>
<clipPath id="clip0_2403_15">
<rect width="183.994" height="28" fill="white"/>
</clipPath>
</defs>
</svg>
