<svg width="512" height="512" viewBox="0 0 512 512" fill="none" xmlns="http://www.w3.org/2000/svg">
<path d="M274.611 461.018C304.769 461.018 329.217 436.487 329.217 406.228C329.217 375.968 304.769 351.438 274.611 351.438C244.452 351.438 220.004 375.968 220.004 406.228C220.004 436.487 244.452 461.018 274.611 461.018Z" fill="#E21B1A"/>
<path d="M404.264 302.589C427.819 302.589 446.914 283.494 446.914 259.938C446.914 236.383 427.819 217.288 404.264 217.288C380.709 217.288 361.613 236.383 361.613 259.938C361.613 283.494 380.709 302.589 404.264 302.589Z" fill="#E21B1A"/>
<path d="M262.958 284.549C282.989 284.549 299.228 268.31 299.228 248.278C299.228 228.247 282.989 212.008 262.958 212.008C242.926 212.008 226.688 228.247 226.688 248.278C226.688 268.31 242.926 284.549 262.958 284.549Z" fill="#002A73"/>
<path d="M36.2701 348.625C56.3015 348.625 72.5402 332.386 72.5402 312.355C72.5402 292.323 56.3015 276.084 36.2701 276.084C16.2387 276.084 0 292.323 0 312.355C0 332.386 16.2387 348.625 36.2701 348.625Z" fill="#E21B1A"/>
<path d="M340.627 158.811C367.503 158.811 389.29 137.024 389.29 110.148C389.29 83.2726 367.503 61.4857 340.627 61.4857C313.752 61.4857 291.965 83.2726 291.965 110.148C291.965 137.024 313.752 158.811 340.627 158.811Z" fill="#002A73"/>
<path d="M226.406 167.273C231.247 167.273 235.171 163.349 235.171 158.508C235.171 153.667 231.247 149.743 226.406 149.743C221.565 149.743 217.641 153.667 217.641 158.508C217.641 163.349 221.565 167.273 226.406 167.273Z" fill="#E21B1A"/>
<path d="M35.9528 202.334C40.7937 202.334 44.7181 198.409 44.7181 193.568C44.7181 188.727 40.7937 184.803 35.9528 184.803C31.1118 184.803 27.1875 188.727 27.1875 193.568C27.1875 198.409 31.1118 202.334 35.9528 202.334Z" fill="#002A73"/>
<path d="M110.324 395.172C115.165 395.172 119.089 391.247 119.089 386.406C119.089 381.565 115.165 377.641 110.324 377.641C105.483 377.641 101.559 381.565 101.559 386.406C101.559 391.247 105.483 395.172 110.324 395.172Z" fill="#E21B1A"/>
<path d="M436.761 176.341C441.602 176.341 445.527 172.416 445.527 167.575C445.527 162.734 441.602 158.81 436.761 158.81C431.92 158.81 427.996 162.734 427.996 167.575C427.996 172.416 431.92 176.341 436.761 176.341Z" fill="#E21B1A"/>
<path d="M214.614 79.0161C222.626 79.0161 229.122 72.5206 229.122 64.508C229.122 56.4955 222.626 50 214.614 50C206.601 50 200.105 56.4955 200.105 64.508C200.105 72.5206 206.601 79.0161 214.614 79.0161Z" fill="#002A73"/>
<path d="M495.378 158.81C504.559 158.81 512.002 151.367 512.002 142.186C512.002 133.005 504.559 125.562 495.378 125.562C486.197 125.562 478.754 133.005 478.754 142.186C478.754 151.367 486.197 158.81 495.378 158.81Z" fill="#E21B1A"/>
<path d="M428.893 381.873C438.074 381.873 445.517 374.43 445.517 365.249C445.517 356.068 438.074 348.625 428.893 348.625C419.712 348.625 412.27 356.068 412.27 365.249C412.27 374.43 419.712 381.873 428.893 381.873Z" fill="#002A73"/>
<path d="M489.937 218.051C496.114 218.051 501.12 213.044 501.12 206.867C501.12 200.691 496.114 195.684 489.937 195.684C483.761 195.684 478.754 200.691 478.754 206.867C478.754 213.044 483.761 218.051 489.937 218.051Z" fill="#002A73"/>
<path d="M154.474 337.139C165.325 337.139 174.121 328.343 174.121 317.493C174.121 306.643 165.325 297.847 154.474 297.847C143.624 297.847 134.828 306.643 134.828 317.493C134.828 328.343 143.624 337.139 154.474 337.139Z" fill="#002A73"/>
<path d="M110.353 129.794C121.204 129.794 130 120.998 130 110.148C130 99.2977 121.204 90.5017 110.353 90.5017C99.503 90.5017 90.707 99.2977 90.707 110.148C90.707 120.998 99.503 129.794 110.353 129.794Z" fill="#E21B1A"/>
<path d="M142.393 243.44C159.92 243.44 174.129 229.232 174.129 211.704C174.129 194.177 159.92 179.968 142.393 179.968C124.865 179.968 110.656 194.177 110.656 211.704C110.656 229.232 124.865 243.44 142.393 243.44Z" fill="#E21B1A"/>
</svg>
