<svg width="127" height="26" viewBox="0 0 127 26" fill="none" xmlns="http://www.w3.org/2000/svg">
<path d="M1.89072 3.7795C2.39438 3.7795 2.86926 3.58278 3.22582 3.22614C3.42089 3.03102 3.56319 2.80232 3.65433 2.55923C3.74387 2.32093 3.97251 2.1626 4.22674 2.1626H4.23953C4.50015 2.1626 4.73679 2.31293 4.83433 2.55123C4.91747 2.75274 5.03899 2.93826 5.19888 3.09659C5.52186 3.41965 5.95037 3.59718 6.40607 3.59718C6.86176 3.59718 7.29027 3.41965 7.61325 3.09659C7.74116 2.96865 7.84669 2.82151 7.92504 2.66478C8.07534 2.36731 8.36154 2.1626 8.69412 2.1626H8.82203C9.12902 2.1626 9.42642 2.31773 9.56553 2.59121C9.63588 2.72716 9.72702 2.8551 9.84054 2.96865C10.1283 3.25653 10.5121 3.41645 10.9198 3.41645C11.3275 3.41645 11.7113 3.25812 11.9991 2.96865C12.0758 2.89188 12.1414 2.81032 12.1973 2.72396C12.4356 2.35771 12.8641 2.1626 13.3006 2.1626H13.3118C13.7371 2.1626 14.1144 2.3865 14.3751 2.72076C14.4087 2.76234 14.4438 2.80392 14.4822 2.8423C14.7364 3.09659 15.0738 3.23574 15.4336 3.23574C15.7933 3.23574 16.1307 3.095 16.3849 2.84071C16.4233 2.80232 16.4585 2.76234 16.492 2.72076C16.7846 2.34812 17.2579 2.1626 17.7328 2.1626H17.9055C18.3708 2.1626 18.7945 2.3785 19.1207 2.70956C19.1223 2.71116 19.1239 2.71276 19.1255 2.71436C19.3461 2.93506 19.6387 3.05501 19.9489 3.05501C20.2607 3.05501 20.5533 2.93347 20.7723 2.71436C20.993 2.49365 21.1129 2.20098 21.1129 1.89072C21.1129 1.57885 20.9914 1.28617 20.7723 1.06707C20.5517 0.846362 20.2591 0.726418 19.9489 0.726418C19.6371 0.726418 19.3445 0.847961 19.1255 1.06707C19.1239 1.06867 19.1223 1.07027 19.1207 1.07187C18.7945 1.40293 18.3692 1.61883 17.9055 1.61883H17.7328C17.2579 1.61883 16.7846 1.43331 16.492 1.06067C16.4585 1.01909 16.4233 0.979107 16.3849 0.939124C16.1307 0.684833 15.7933 0.545695 15.4336 0.545695C15.0738 0.545695 14.7364 0.686433 14.4822 0.939124C14.4438 0.977507 14.4071 1.01909 14.3751 1.06067C14.1129 1.39493 13.7355 1.61883 13.3118 1.61883H13.3006C12.8641 1.61883 12.4356 1.42211 12.1973 1.05747C12.1414 0.971108 12.0742 0.887945 11.9991 0.812777C11.7113 0.524901 11.3275 0.364972 10.9198 0.364972C10.5121 0.364972 10.1283 0.523302 9.84054 0.812777C9.72702 0.926328 9.63428 1.05428 9.56553 1.19022C9.42482 1.4637 9.12902 1.61883 8.82203 1.61883H8.69412C8.35994 1.61883 8.07374 1.41412 7.92344 1.11665C7.84349 0.958318 7.73956 0.812779 7.61165 0.684834C7.28867 0.361773 6.86016 0.184249 6.40447 0.184249C5.94878 0.184249 5.52027 0.361773 5.19728 0.684834C5.03739 0.844765 4.91427 1.03188 4.83113 1.235C4.7352 1.4701 4.50015 1.62043 4.24433 1.62043H4.24273C3.97731 1.62043 3.74067 1.4557 3.64473 1.20781C3.5536 0.971109 3.41289 0.748805 3.22262 0.558487C2.86606 0.201841 2.39118 0.00512695 1.88752 0.00512695C1.28633 0.00512695 0.729906 0.283406 0.362155 0.779193C-0.120718 1.43171 -0.120718 2.35451 0.362155 3.00703C0.733104 3.49962 1.29113 3.7795 1.89072 3.7795Z" fill="#3FE0D0"/>
<path d="M1.88983 8.29407C2.39349 8.29407 2.86837 8.09736 3.22493 7.74071C3.42 7.5456 3.5623 7.31689 3.65344 7.0738C3.74298 6.8355 3.97162 6.67717 4.22585 6.67717H4.23864C4.49926 6.67717 4.7359 6.82751 4.83344 7.0658C4.91658 7.26732 5.0381 7.45284 5.19799 7.61117C5.52097 7.93423 5.94948 8.11175 6.40518 8.11175C6.86087 8.11175 7.28938 7.93423 7.61236 7.61117C7.74027 7.48322 7.8458 7.33609 7.92415 7.17935C8.07445 6.88188 8.36065 6.67717 8.69323 6.67717H8.81155C9.12334 6.67717 9.42393 6.8339 9.56783 7.11058C9.63819 7.24653 9.72933 7.37287 9.84125 7.48322C10.1291 7.7711 10.5128 7.93103 10.9205 7.93103C11.3282 7.93103 11.712 7.7727 11.9998 7.48322C12.0733 7.40965 12.1389 7.32809 12.1965 7.24173C12.4379 6.87229 12.8712 6.67557 13.3109 6.67557H13.3141C13.7394 6.67557 14.1168 6.89947 14.3774 7.23373C14.411 7.27531 14.4461 7.3169 14.4845 7.35528C14.7387 7.60957 15.0761 7.74871 15.4359 7.74871C15.7956 7.74871 16.133 7.60797 16.3872 7.35528C16.4256 7.3169 16.4608 7.27691 16.4943 7.23373C16.787 6.86109 17.2602 6.67557 17.7351 6.67557H17.9078C18.3731 6.67557 18.7968 6.89148 19.123 7.22253C19.1246 7.22413 19.1262 7.22574 19.1278 7.22734C19.3484 7.44804 19.641 7.56798 19.9512 7.56798C20.3461 7.56798 20.7107 7.37287 20.9361 7.02742C21.1792 6.65478 21.1792 6.15259 20.9377 5.77836C20.7123 5.4329 20.3477 5.23619 19.9512 5.23619C19.6394 5.23619 19.3468 5.35774 19.1278 5.57685C19.1262 5.57845 19.1246 5.58004 19.123 5.58164C18.7968 5.9127 18.3715 6.12861 17.9078 6.12861H17.7367C17.2618 6.12861 16.7885 5.94309 16.4959 5.57045C16.4624 5.52887 16.4272 5.48888 16.3888 5.4489C16.1346 5.19461 15.7972 5.05547 15.4375 5.05547C15.0777 5.05547 14.7403 5.19621 14.4861 5.4489C14.4477 5.48728 14.411 5.52887 14.379 5.57045C14.1168 5.9047 13.7394 6.12861 13.3157 6.12861H13.3141C12.8728 6.12861 12.4395 5.93189 12.1981 5.56245C12.1421 5.47609 12.0765 5.39612 12.0014 5.32096C11.7136 5.03308 11.3298 4.87315 10.9221 4.87315C10.5144 4.87315 10.1307 5.03148 9.84285 5.32096C9.73092 5.43291 9.63978 5.55765 9.56943 5.69359C9.42553 5.97027 9.12493 6.12701 8.81314 6.12701H8.69642C8.36225 6.12701 8.07605 5.9223 7.92735 5.62482C7.8474 5.46649 7.74347 5.32096 7.61555 5.19301C7.29257 4.86995 6.86407 4.69243 6.40837 4.69243C5.95268 4.69243 5.52417 4.86995 5.20119 5.19301C5.0413 5.35294 4.91818 5.54006 4.83504 5.74317C4.7391 5.97827 4.50406 6.12861 4.24823 6.12861H4.24664C3.98122 6.12861 3.74457 5.96388 3.64864 5.71599C3.5575 5.47929 3.4168 5.25698 3.22653 5.06667C2.86997 4.71002 2.39509 4.51331 1.89143 4.51331C1.29024 4.51331 0.733812 4.79159 0.366061 5.28737C-0.116812 5.93989 -0.116812 6.86269 0.366061 7.51521C0.732213 8.01579 1.29024 8.29407 1.88983 8.29407Z" fill="#3FE0D0"/>
<path d="M1.89014 12.8105C2.3938 12.8105 2.86868 12.6138 3.22524 12.2572C3.41391 12.0685 3.55621 11.8461 3.64895 11.6047C3.74329 11.3568 3.97993 11.1936 4.24535 11.1936C4.49958 11.1936 4.73462 11.3424 4.83215 11.5775C4.9153 11.7806 5.03841 11.9677 5.1983 12.1276C5.52129 12.4507 5.9498 12.6282 6.40549 12.6282C6.86118 12.6282 7.28969 12.4507 7.61267 12.1276C7.74058 11.9997 7.84611 11.8525 7.92446 11.6958C8.07476 11.3983 8.36096 11.1936 8.69354 11.1936H8.81186C9.12365 11.1936 9.42424 11.3504 9.56815 11.627C9.6385 11.763 9.72964 11.8893 9.84156 11.9997C10.1294 12.2876 10.5131 12.4475 10.9208 12.4475C11.3286 12.4475 11.7123 12.2892 12.0001 11.9997C12.0737 11.9261 12.1392 11.8445 12.1968 11.7582C12.4382 11.3903 12.8715 11.192 13.3112 11.192H13.3144C13.7397 11.192 14.1171 11.4159 14.3777 11.7502C14.4113 11.7918 14.4464 11.8334 14.4848 11.8717C14.739 12.126 15.0764 12.2652 15.4362 12.2652C15.7959 12.2652 16.1333 12.1244 16.3875 11.8717C16.4259 11.8334 16.4611 11.7934 16.4947 11.7502C16.7873 11.3775 17.2605 11.192 17.7354 11.192H17.9081C18.3734 11.192 18.7971 11.4079 19.1233 11.7374C19.1249 11.739 19.1265 11.7406 19.1281 11.7422C19.3487 11.9629 19.6413 12.0828 19.9515 12.0828C20.3465 12.0828 20.711 11.8877 20.9365 11.5423C21.1795 11.1696 21.1795 10.6675 20.9381 10.2932C20.7126 9.94776 20.3481 9.75105 19.9515 9.75105C19.6397 9.75105 19.3471 9.8726 19.1281 10.0917C19.1265 10.0933 19.1249 10.0949 19.1233 10.0965C18.7971 10.4276 18.3718 10.6435 17.9081 10.6435H17.737C17.2621 10.6435 16.7889 10.4579 16.4963 10.0853C16.4627 10.0437 16.4275 10.0037 16.3891 9.96376C16.1349 9.70947 15.7975 9.57032 15.4378 9.57032C15.078 9.57032 14.7406 9.71107 14.4864 9.96376C14.448 10.0021 14.4113 10.0437 14.3793 10.0853C14.1171 10.4196 13.7397 10.6435 13.316 10.6435H13.3144C12.8731 10.6435 12.4414 10.4468 12.1984 10.0773C12.1424 9.99095 12.0768 9.91098 12.0033 9.83581C11.7155 9.54794 11.3318 9.38801 10.924 9.38801C10.5163 9.38801 10.1326 9.54634 9.84476 9.83581C9.73284 9.94777 9.6417 10.0725 9.57135 10.2085C9.42744 10.4851 9.12685 10.6419 8.81506 10.6419H8.69834C8.36416 10.6419 8.07796 10.4372 7.92766 10.1381C7.84771 9.97976 7.74378 9.83422 7.61587 9.70627C7.29289 9.38321 6.86438 9.20569 6.40869 9.20569C5.95299 9.20569 5.52448 9.38321 5.2015 9.70627C5.04161 9.8662 4.91849 10.0533 4.83535 10.2564C4.73941 10.4915 4.50437 10.6419 4.24855 10.6419C3.98313 10.6419 3.74649 10.4787 3.65215 10.2308C3.55941 9.98934 3.41711 9.76705 3.22684 9.57833C2.87028 9.22168 2.3954 9.02496 1.89174 9.02496C1.38808 9.02496 0.913203 9.22168 0.556645 9.57833C0.200086 9.93497 0.00341797 10.41 0.00341797 10.9137C0.00341797 11.4175 0.200086 11.8925 0.556645 12.2492C0.911605 12.6138 1.38648 12.8105 1.89014 12.8105Z" fill="#3FE0D0"/>
<path d="M19.9545 14.274C19.6427 14.274 19.3501 14.3955 19.131 14.6146C19.1294 14.6162 19.1278 14.6178 19.1262 14.6194C18.8001 14.9505 18.3748 15.1664 17.9111 15.1664H17.74C17.2651 15.1664 16.7918 14.9809 16.4992 14.6082C16.4657 14.5666 16.4305 14.5267 16.3921 14.4867C16.1379 14.2324 15.8005 14.0933 15.4407 14.0933C15.081 14.0933 14.7436 14.234 14.4894 14.4867C14.451 14.5251 14.4142 14.5666 14.3823 14.6082C14.12 14.9425 13.7427 15.1664 13.319 15.1664H13.3078C12.8713 15.1664 12.4428 14.9697 12.2045 14.6034C12.1486 14.5171 12.0814 14.4339 12.0063 14.3587C11.7185 14.0709 11.3347 13.9125 10.927 13.9125C10.5193 13.9125 10.1355 14.0709 9.84773 14.3603C9.73421 14.4739 9.64147 14.6018 9.57272 14.7378C9.43201 15.0113 9.13461 15.1664 8.82922 15.1664H8.70291C8.36873 15.1664 8.08252 14.9617 7.93223 14.6626C7.85228 14.5043 7.74835 14.3587 7.62044 14.2308C7.29746 13.9077 6.86895 13.7302 6.41325 13.7302C5.95756 13.7302 5.52905 13.9077 5.20607 14.2308C5.04458 14.3923 4.92306 14.5794 4.84152 14.7794C4.74398 15.0161 4.51054 15.1664 4.25471 15.1664H4.25312C3.9877 15.1664 3.75106 15.0017 3.65512 14.7538C3.56398 14.5171 3.42328 14.2948 3.23301 14.1045C2.87645 13.7478 2.40157 13.5511 1.89791 13.5511C1.29672 13.5511 0.738695 13.8294 0.370944 14.3268C-0.111929 14.9793 -0.111929 15.9021 0.370944 16.5546C0.738695 17.0504 1.29672 17.3287 1.89631 17.3287C2.39997 17.3287 2.87485 17.1319 3.23141 16.7753C3.42648 16.5802 3.56878 16.3531 3.65992 16.11C3.74946 15.8701 3.9781 15.7134 4.23393 15.7134H4.24672C4.50735 15.7134 4.74398 15.8653 4.84312 16.1052C4.92466 16.3035 5.04458 16.4874 5.20607 16.649C5.52905 16.972 5.95756 17.1495 6.41325 17.1495C6.86895 17.1495 7.29906 16.972 7.62044 16.649C7.74835 16.521 7.85388 16.3755 7.93223 16.2171C8.08252 15.9197 8.36873 15.715 8.70131 15.715H8.82922C9.13621 15.715 9.43361 15.8701 9.57272 16.1436C9.64307 16.2795 9.73421 16.4075 9.84773 16.521C10.1355 16.8089 10.5193 16.9688 10.927 16.9688C11.3347 16.9688 11.7185 16.8105 12.0063 16.521C12.083 16.4442 12.1486 16.3627 12.2045 16.2763C12.4428 15.9101 12.8713 15.715 13.3078 15.715H13.3206C13.7459 15.715 14.1232 15.9389 14.3839 16.2731C14.4174 16.3147 14.4526 16.3563 14.491 16.3947C14.7452 16.649 15.0826 16.7881 15.4423 16.7881C15.8021 16.7881 16.1395 16.6474 16.3937 16.3947C16.4321 16.3563 16.4673 16.3163 16.5008 16.2731C16.7934 15.9005 17.2667 15.715 17.7416 15.715H17.9143C18.3796 15.715 18.8033 15.9309 19.1295 16.2619C19.1311 16.2635 19.1326 16.2651 19.1342 16.2667C19.3549 16.4874 19.6475 16.6074 19.9577 16.6074C20.2695 16.6074 20.5621 16.4858 20.7811 16.2667C21.0018 16.046 21.1217 15.7533 21.1217 15.4431C21.1217 15.1312 21.0002 14.8385 20.7811 14.6194C20.5589 14.3955 20.2663 14.274 19.9545 14.274Z" fill="#3FE0D0"/>
<path d="M15.4387 18.6097C15.079 18.6097 14.7416 18.7504 14.4874 19.0031C14.449 19.0415 14.4122 19.0831 14.3803 19.1247C14.118 19.4589 13.7407 19.6828 13.317 19.6828H13.3058C12.8693 19.6828 12.4408 19.4861 12.2025 19.1199C12.1466 19.0335 12.0794 18.9503 12.0043 18.8752C11.7165 18.5873 11.3327 18.429 10.925 18.429C10.5173 18.429 10.1335 18.5873 9.84573 18.8752C9.73221 18.9887 9.63947 19.1167 9.57072 19.2542C9.43001 19.5277 9.13421 19.6828 8.82722 19.6828H8.69931C8.36513 19.6828 8.07893 19.4781 7.93023 19.1806C7.85028 19.0223 7.74635 18.8768 7.61844 18.7488C7.29546 18.4258 6.86695 18.2482 6.41126 18.2482C5.95556 18.2482 5.52705 18.4258 5.20407 18.7488C4.88109 19.0719 4.70361 19.5005 4.70361 19.9563C4.70361 20.4121 4.88109 20.8407 5.20407 21.1638C5.52705 21.4868 5.95556 21.6644 6.41126 21.6644C6.86695 21.6644 7.29546 21.4868 7.61844 21.1638C7.74635 21.0358 7.85188 20.8903 7.93023 20.732C8.08053 20.4345 8.36673 20.2298 8.69931 20.2298H8.82722C9.13421 20.2298 9.43161 20.3849 9.57072 20.6584C9.64107 20.7943 9.73221 20.9223 9.84573 21.0358C10.1335 21.3237 10.5173 21.4836 10.925 21.4836C11.3327 21.4836 11.7165 21.3253 12.0043 21.0358C12.081 20.9591 12.1466 20.8775 12.2025 20.7911C12.4408 20.4249 12.8693 20.2298 13.3058 20.2298H13.3186C13.7439 20.2298 14.1212 20.4537 14.3819 20.7879C14.4138 20.8295 14.4506 20.8695 14.489 20.9079C14.7432 21.1622 15.0806 21.3029 15.4403 21.3029C15.8832 21.3029 16.2926 21.0902 16.5532 20.716C16.8666 20.2634 16.865 19.6412 16.5484 19.1902C16.2846 18.8192 15.8785 18.6097 15.4387 18.6097Z" fill="#3FE0D0"/>
<path d="M10.9233 22.9454C10.5156 22.9454 10.1319 23.1037 9.84405 23.3932C9.24925 23.9881 9.24925 24.9573 9.84405 25.5522C10.1319 25.8401 10.5156 25.9985 10.9233 25.9985C11.331 25.9985 11.7148 25.8401 12.0026 25.5522C12.5974 24.9573 12.5974 23.9881 12.0026 23.3932C11.7148 23.1037 11.331 22.9454 10.9233 22.9454Z" fill="#3FE0D0"/>
<path d="M31.5798 18.2369V25.9984H27.7568V0H36.7012C44.958 0 46.8319 3.63203 46.8319 9.10007C46.8319 14.5681 44.9596 18.2385 36.7012 18.2385H31.5798V18.2369ZM31.5798 3.44011V14.7968H36.7028C41.9009 14.7968 43.0105 13.3063 43.0105 9.10007C43.0105 4.77873 41.9025 3.44171 36.7028 3.44171H31.5798V3.44011Z" fill="#3FE0D0"/>
<path d="M72.8021 0L64.622 26H58.5829L50.4028 0H54.4161L61.2963 22.4447H61.9086L68.7888 0H72.8021Z" fill="#3FE0D0"/>
<path d="M81.5012 9.48231V26H77.6782V0H81.5012L91.4017 20.4952H92.0141L101.915 0H105.738V26H101.915V9.48231H101.302L94.4605 23.8585H88.9554L82.1136 9.48231H81.5012Z" fill="#3FE0D0"/>
<path d="M126.75 22.5583V26H112.3V0H116.123V22.5583H126.75Z" fill="#3FE0D0"/>
</svg>
