<svg width="782" height="23" viewBox="0 0 782 23" fill="none" xmlns="http://www.w3.org/2000/svg">
<mask id="mask0_426_578" style="mask-type:luminance" maskUnits="userSpaceOnUse" x="477" y="0" width="305" height="23">
<path d="M477.203 0H781.844V22.6406H477.203V0Z" fill="white"/>
</mask>
<g mask="url(#mask0_426_578)">
<path d="M476.969 22.3906C493.021 22.3906 501.292 18.349 509.078 14.4688C516.536 10.7552 523.51 7.35938 537.943 7.35938C552.375 7.35938 559.349 10.9167 566.807 14.4688C574.755 18.349 582.865 22.3906 598.917 22.3906C614.974 22.3906 623.24 18.349 631.026 14.4688C638.484 10.7552 645.458 7.35938 659.891 7.35938C674.323 7.35938 681.297 10.9167 688.76 14.4688C696.703 18.349 704.813 22.3906 720.87 22.3906C736.922 22.3906 745.193 18.349 752.979 14.4688C760.438 10.7552 767.411 7.35938 781.844 7.35938V0.25C765.786 0.25 757.516 4.28646 749.734 8.16667C742.276 11.8854 735.302 15.2813 720.87 15.2813C706.432 15.2813 699.464 11.724 692 8.16667C684.057 4.28646 675.948 0.25 659.891 0.25C643.839 0.25 635.568 4.28646 627.781 8.16667C620.323 11.8854 613.349 15.2813 598.917 15.2813C584.484 15.2813 577.51 11.724 570.052 8.16667C562.104 4.28646 553.995 0.25 537.943 0.25C521.885 0.25 513.615 4.28646 505.833 8.16667C498.375 11.8854 491.401 15.2813 476.969 15.2813V22.3906Z" fill="white"/>
</g>
<mask id="mask1_426_578" style="mask-type:luminance" maskUnits="userSpaceOnUse" x="176" y="0" width="306" height="23">
<path d="M176.615 0H481.495V22.6406H176.615V0Z" fill="white"/>
</mask>
<g mask="url(#mask1_426_578)">
<path d="M481.495 22.3906C465.438 22.3906 457.167 18.349 449.386 14.4688C441.923 10.7552 434.949 7.35938 420.516 7.35938C406.084 7.35938 399.11 10.9167 391.652 14.4688C383.704 18.349 375.6 22.3906 359.542 22.3906C343.49 22.3906 335.219 18.349 327.433 14.4688C319.975 10.7552 313.001 7.35938 298.568 7.35938C284.136 7.35938 277.162 10.9167 269.704 14.4688C261.756 18.349 253.646 22.3906 237.594 22.3906C221.537 22.3906 213.266 18.349 205.485 14.4688C198.021 10.7552 191.053 7.35938 176.615 7.35938V0.25C192.673 0.25 200.943 4.28646 208.725 8.16667C216.188 11.8854 223.157 15.2813 237.594 15.2813C252.027 15.2813 259.001 11.724 266.459 8.16667C274.407 4.28646 282.511 0.25 298.568 0.25C314.62 0.25 322.891 4.28646 330.678 8.16667C338.136 11.8854 345.11 15.2813 359.542 15.2813C373.975 15.2813 380.949 11.724 388.407 8.16667C396.355 4.28646 404.464 0.25 420.516 0.25C436.574 0.25 444.844 4.28646 452.626 8.16667C460.089 11.8854 467.058 15.2813 481.495 15.2813V22.3906Z" fill="white"/>
</g>
<mask id="mask2_426_578" style="mask-type:luminance" maskUnits="userSpaceOnUse" x="0" y="0" width="305" height="23">
<path d="M0 0H304.641V22.6406H0V0Z" fill="white"/>
</mask>
<g mask="url(#mask2_426_578)">
<path d="M-0.234375 22.3906C15.8177 22.3906 24.0885 18.349 31.875 14.4688C39.3333 10.7552 46.3073 7.35938 60.7396 7.35938C75.1719 7.35938 82.1458 10.9167 89.6042 14.4688C97.5521 18.349 105.661 22.3906 121.714 22.3906C137.771 22.3906 146.036 18.349 153.823 14.4688C161.281 10.7552 168.255 7.35938 182.688 7.35938C197.12 7.35938 204.094 10.9167 211.557 14.4688C219.5 18.349 227.609 22.3906 243.667 22.3906C259.719 22.3906 267.99 18.349 275.776 14.4688C283.234 10.7552 290.208 7.35938 304.641 7.35938V0.25C288.583 0.25 280.313 4.28646 272.531 8.16667C265.073 11.8854 258.099 15.2813 243.667 15.2813C229.229 15.2813 222.26 11.724 214.797 8.16667C206.854 4.28646 198.745 0.25 182.688 0.25C166.635 0.25 158.365 4.28646 150.578 8.16667C143.12 11.8854 136.146 15.2813 121.714 15.2813C107.281 15.2813 100.307 11.724 92.849 8.16667C84.901 4.28646 76.7917 0.25 60.7396 0.25C44.6823 0.25 36.4115 4.28646 28.6302 8.16667C21.1719 11.8854 14.1979 15.2813 -0.234375 15.2813V22.3906Z" fill="white"/>
</g>
</svg>
