<svg width="24" height="24" viewBox="0 0 24 24" fill="none" xmlns="http://www.w3.org/2000/svg">
<path d="M15.3307 8.66797H8.66406V15.3346H15.3307V8.66797Z" stroke="#1960EF" stroke-width="1.5" stroke-linecap="round" stroke-linejoin="round"/>
<path d="M6.16406 20.332C7.53906 20.332 8.66406 19.207 8.66406 17.832V15.332H6.16406C4.78906 15.332 3.66406 16.457 3.66406 17.832C3.66406 19.207 4.78906 20.332 6.16406 20.332Z" stroke="#1960EF" stroke-width="1.5" stroke-linecap="round" stroke-linejoin="round"/>
<path d="M6.16406 8.66797H8.66406V6.16797C8.66406 4.79297 7.53906 3.66797 6.16406 3.66797C4.78906 3.66797 3.66406 4.79297 3.66406 6.16797C3.66406 7.54297 4.78906 8.66797 6.16406 8.66797Z" stroke="#1960EF" stroke-width="1.5" stroke-linecap="round" stroke-linejoin="round"/>
<path d="M15.3359 8.66797H17.8359C19.2109 8.66797 20.3359 7.54297 20.3359 6.16797C20.3359 4.79297 19.2109 3.66797 17.8359 3.66797C16.4609 3.66797 15.3359 4.79297 15.3359 6.16797V8.66797Z" stroke="#1960EF" stroke-width="1.5" stroke-linecap="round" stroke-linejoin="round"/>
<path d="M17.8359 20.332C19.2109 20.332 20.3359 19.207 20.3359 17.832C20.3359 16.457 19.2109 15.332 17.8359 15.332H15.3359V17.832C15.3359 19.207 16.4609 20.332 17.8359 20.332Z" stroke="#1960EF" stroke-width="1.5" stroke-linecap="round" stroke-linejoin="round"/>
</svg>
