<svg width="18" height="16" viewBox="0 0 18 16" fill="none" xmlns="http://www.w3.org/2000/svg">
<path d="M5.5 0.75H4.75V2.25H5.5V0.75ZM5.5 2.25H17.5V0.75H5.5V2.25Z" fill="#1960EF"/>
<path d="M0.5 1.5H2.5" stroke="#1960EF" stroke-width="1.5"/>
<path d="M0.5 5.83203H2.5" stroke="#1960EF" stroke-width="1.5"/>
<path d="M5.5 5.08203H4.75V6.58203H5.5V5.08203ZM5.5 6.58203H17.5V5.08203H5.5V6.58203Z" fill="#1960EF"/>
<path d="M0.5 10.168H2.5" stroke="#1960EF" stroke-width="1.5"/>
<path d="M5.5 9.41797H4.75V10.918H5.5V9.41797ZM5.5 10.918H17.5V9.41797H5.5V10.918Z" fill="#1960EF"/>
<path d="M5.5 13.75H4.75V15.25H5.5V13.75ZM5.5 15.25H17.5V13.75H5.5V15.25Z" fill="#1960EF"/>
<path d="M0.5 14.5H2.5" stroke="#1960EF" stroke-width="1.5"/>
</svg>
