<svg width="20" height="21" viewBox="0 0 20 21" fill="none" xmlns="http://www.w3.org/2000/svg"><path fill-rule="evenodd" clip-rule="evenodd" d="M16.4608 3.9157C16.5329 3.8333 16.588 3.73751 16.6231 3.6338C16.6581 3.53009 16.6724 3.42049 16.6651 3.31127C16.6578 3.20204 16.629 3.09533 16.5804 2.99722C16.5319 2.8991 16.4645 2.81152 16.3821 2.73945C16.2997 2.66739 16.2039 2.61226 16.1002 2.57722C15.9965 2.54218 15.8869 2.52791 15.7776 2.53522C15.6684 2.54253 15.5617 2.57129 15.4636 2.61984C15.3655 2.66839 15.2779 2.7358 15.2058 2.8182L10.9475 7.68487L7.33333 2.86654C7.25571 2.76304 7.15506 2.67904 7.03934 2.62118C6.92363 2.56332 6.79604 2.5332 6.66667 2.5332H3.33333C3.17857 2.5332 3.02687 2.5763 2.89522 2.65766C2.76358 2.73902 2.65719 2.85544 2.58798 2.99386C2.51877 3.13228 2.48947 3.28724 2.50337 3.44137C2.51727 3.59551 2.57381 3.74273 2.66667 3.86654L8.03083 11.0182L3.53917 16.1515C3.4671 16.2339 3.41198 16.3297 3.37693 16.4334C3.34189 16.5372 3.32762 16.6467 3.33493 16.756C3.34225 16.8652 3.371 16.9719 3.41955 17.07C3.46811 17.1681 3.53551 17.2557 3.61792 17.3278C3.70032 17.3998 3.79611 17.455 3.89982 17.49C4.00353 17.5251 4.11313 17.5393 4.22235 17.532C4.33158 17.5247 4.43829 17.496 4.5364 17.4474C4.63452 17.3988 4.7221 17.3314 4.79417 17.249L9.0525 12.3815L12.6667 17.1999C12.7443 17.3034 12.8449 17.3874 12.9607 17.4452C13.0764 17.5031 13.204 17.5332 13.3333 17.5332H16.6667C16.8214 17.5332 16.9731 17.4901 17.1048 17.4087C17.2364 17.3274 17.3428 17.211 17.412 17.0725C17.4812 16.9341 17.5105 16.7792 17.4966 16.625C17.4827 16.4709 17.4262 16.3237 17.3333 16.1999L11.9692 9.0482L16.4608 3.9157ZM13.75 15.8665L5 4.19987H6.25L15 15.8665H13.75Z" fill="#F9FAFC"></path></svg>