<svg width="24" height="24" viewBox="0 0 24 24" fill="none" xmlns="http://www.w3.org/2000/svg">
<path d="M20.5024 12C20.5024 13.6811 20.0039 15.3245 19.0699 16.7223C18.1359 18.1202 16.8084 19.2096 15.2553 19.853C13.7021 20.4963 11.9931 20.6646 10.3443 20.3367C8.69545 20.0087 7.18092 19.1992 5.99219 18.0104" stroke="#1960EF" stroke-width="1.5" stroke-linejoin="round"/>
<path d="M18.0102 5.98959C16.8215 4.80085 15.307 3.9913 13.6581 3.66333C12.0093 3.33535 10.3003 3.50368 8.74712 4.14703C7.19397 4.79037 5.86647 5.87984 4.93249 7.27766C3.99851 8.67547 3.5 10.3189 3.5 12" stroke="#1960EF" stroke-width="1.5" stroke-linejoin="round"/>
<ellipse cx="11.9974" cy="12.0013" rx="2.8333" ry="2.83333" stroke="#1960EF" stroke-width="1.5" stroke-linecap="round" stroke-linejoin="round"/>
<path d="M19.0781 9.875C20.2517 9.875 21.2031 8.9236 21.2031 7.75C21.2031 6.57639 20.2517 5.625 19.0781 5.625C17.9045 5.625 16.9531 6.57639 16.9531 7.75C16.9531 8.9236 17.9045 9.875 19.0781 9.875Z" stroke="#1960EF" stroke-width="1.5" stroke-linecap="round" stroke-linejoin="round"/>
<path d="M4.91404 18.375C6.08763 18.375 7.03901 17.4236 7.03901 16.25C7.03901 15.0764 6.08763 14.125 4.91404 14.125C3.74045 14.125 2.78906 15.0764 2.78906 16.25C2.78906 17.4236 3.74045 18.375 4.91404 18.375Z" stroke="#1960EF" stroke-width="1.5" stroke-linecap="round" stroke-linejoin="round"/>
</svg>
