<svg width="24" height="24" viewBox="0 0 24 24" fill="none" xmlns="http://www.w3.org/2000/svg">
<g clip-path="url(#clip0_3177_12860)">
<path d="M0.28711 10.4561L9.79981 15.6465L19.3125 10.4561" stroke="#1960ef" stroke-width="1.5" stroke-linecap="square"></path>
<path d="M0.28711 14.6084L9.79981 19.7988L19.3125 14.6084" stroke="#1960ef" stroke-width="1.5" stroke-linecap="square"></path>
<path d="M9.79686 3.45703L10.1323 2.78621L9.79686 2.61851L9.46145 2.78621L9.79686 3.45703ZM17.7968 7.45703L18.1322 8.12785L19.4739 7.45703L18.1322 6.78621L17.7968 7.45703ZM1.79688 7.45703L1.46146 6.78621L0.119827 7.45703L1.46146 8.12785L1.79688 7.45703ZM9.79686 11.457L9.46144 12.1279L9.79686 12.2956L10.1323 12.1279L9.79686 11.457ZM9.46145 4.12785L17.4614 8.12785L18.1322 6.78621L10.1323 2.78621L9.46145 4.12785ZM2.13229 8.12785L10.1323 4.12785L9.46145 2.78621L1.46146 6.78621L2.13229 8.12785ZM10.1323 10.7862L2.13229 6.78621L1.46146 8.12785L9.46144 12.1279L10.1323 10.7862ZM17.4614 6.78621L9.46144 10.7862L10.1323 12.1279L18.1322 8.12785L17.4614 6.78621Z" fill="#1960ef"></path>
</g>
<defs>
<clipPath id="clip0_3177_12860">
<rect width="24" height="24" fill="#1960ef"></rect>
</clipPath>
</defs>
</svg>