<svg width="24" height="25" viewBox="0 0 24 25" fill="none" xmlns="http://www.w3.org/2000/svg"><path d="M3 7.0332C3 6.50277 3.21071 5.99406 3.58579 5.61899C3.96086 5.24392 4.46957 5.0332 5 5.0332H19C19.5304 5.0332 20.0391 5.24392 20.4142 5.61899C20.7893 5.99406 21 6.50277 21 7.0332V17.0332C21 17.5636 20.7893 18.0723 20.4142 18.4474C20.0391 18.8225 19.5304 19.0332 19 19.0332H5C4.46957 19.0332 3.96086 18.8225 3.58579 18.4474C3.21071 18.0723 3 17.5636 3 17.0332V7.0332Z" stroke="#F9FAFC" stroke-width="1.5" stroke-linecap="round" stroke-linejoin="round"></path><path d="M3 7.0332L12 13.0332L21 7.0332" stroke="#F9FAFC" stroke-width="1.5" stroke-linecap="round" stroke-linejoin="round"></path></svg>