<svg width="24" height="25" viewBox="0 0 24 25" fill="none" xmlns="http://www.w3.org/2000/svg"><path d="M6.84877 20.3286H3.06641V7.7207H6.84877V20.3286ZM20.7174 20.3286H16.9351V13.5934C16.9351 11.8384 16.3097 10.9647 15.0704 10.9647C14.0882 10.9647 13.4654 11.4539 13.1527 12.4335V20.3286H9.37034C9.37034 20.3286 9.42077 8.98149 9.37034 7.7207H12.3559L12.5866 10.2423H12.6648C13.4402 8.98149 14.6795 8.12668 16.3791 8.12668C17.6714 8.12668 18.7166 8.486 19.5146 9.38872C20.3178 10.2927 20.7174 11.5056 20.7174 13.2089V20.3286Z" fill="#F9FAFC"></path><path d="M4.95422 6.46009C6.03351 6.46009 6.90844 5.61338 6.90844 4.56891C6.90844 3.52444 6.03351 2.67773 4.95422 2.67773C3.87493 2.67773 3 3.52444 3 4.56891C3 5.61338 3.87493 6.46009 4.95422 6.46009Z" fill="#F9FAFC"></path></svg>