<svg width="18" height="18" viewBox="0 0 18 18" fill="none" xmlns="http://www.w3.org/2000/svg">
<path fill-rule="evenodd" clip-rule="evenodd" d="M5.69951 17.4275C6.2712 17.5329 6.47197 17.1709 6.47197 16.8733C6.47197 16.7733 6.47031 16.5143 6.46815 16.1787C6.46419 15.5611 6.45857 14.684 6.45857 14.0607C6.45857 14.0607 3.33223 14.7479 2.67568 12.6958C2.67568 12.6958 2.16657 11.3627 1.4341 11.0191C1.4341 11.0191 0.411347 10.3 1.50557 10.3137C1.50557 10.3137 2.61766 10.4053 3.22949 11.4955C4.20762 13.2637 5.84674 12.7552 6.48536 12.4529C6.58811 11.72 6.87841 11.2116 7.19999 10.9092C4.70336 10.6253 2.18443 10.2542 2.18443 5.84765C2.18443 4.58791 2.52388 3.95577 3.23845 3.1496C3.12231 2.85184 2.74271 1.62426 3.3546 0.0393402C4.288 -0.258411 6.43626 1.27613 6.43626 1.27613C7.32953 1.01961 8.28973 0.886755 9.24102 0.886755C10.1924 0.886755 11.1526 1.01961 12.0459 1.27613C12.0459 1.27613 14.194 -0.262955 15.1275 0.0393402C15.7394 1.6288 15.3597 2.85184 15.2437 3.1496C15.9582 3.96037 16.3959 4.59251 16.3959 5.84765C16.3959 10.2679 13.7653 10.6206 11.2687 10.9092C11.6796 11.2711 12.0279 11.9582 12.0279 13.0346C12.0279 14.0684 12.0219 15.2666 12.018 16.0581C12.0161 16.4485 12.0146 16.74 12.0146 16.864C12.0146 17.1514 12.2058 17.4983 12.7287 17.4278C11.6219 17.7989 10.4371 18 9.20531 18C6.99024 17.9999 5.91816 17.723 5.69951 17.4275ZM5.30628 13.2958C5.43581 13.2958 5.53856 13.2225 5.53856 13.1308C5.53856 13.0255 5.42242 12.9522 5.28845 12.966C5.15891 12.966 5.05622 13.0392 5.05622 13.1308C5.05622 13.2362 5.15891 13.3095 5.30628 13.2958ZM4.34159 13.1492C4.20762 13.1217 4.11827 13.0164 4.14955 12.9247C4.18083 12.8332 4.31037 12.7873 4.42646 12.8194C4.56048 12.8606 4.64529 12.966 4.6185 13.0576C4.5917 13.1492 4.45773 13.195 4.34159 13.1492ZM5.91816 13.0714C5.90476 12.966 5.99411 12.8789 6.12365 12.8469C6.25313 12.8332 6.37371 12.8926 6.38716 12.9796C6.40055 13.0714 6.3112 13.1583 6.18166 13.1904C6.0477 13.2225 5.93155 13.1629 5.91816 13.0714ZM2.50152 11.3307C2.42562 11.2436 2.41222 11.1383 2.47024 11.0924C2.52831 11.033 2.63106 11.0649 2.70252 11.1383C2.77842 11.2253 2.79182 11.3307 2.73375 11.3765C2.67568 11.4361 2.57298 11.404 2.50152 11.3307ZM2.09063 10.9001C2.00131 10.8543 1.95665 10.781 1.98791 10.7215C2.01918 10.6756 2.09063 10.6619 2.17996 10.6894C2.26928 10.7352 2.31394 10.8085 2.28268 10.868C2.25142 10.9322 2.1621 10.9459 2.09063 10.9001ZM3.49305 12.6362C3.3903 12.5491 3.36351 12.4117 3.43498 12.3521C3.49305 12.2788 3.62702 12.2925 3.72528 12.398C3.81457 12.485 3.84137 12.6224 3.7833 12.682C3.72528 12.7552 3.59574 12.7415 3.49305 12.6362ZM2.92584 11.949C2.85437 11.8437 2.85437 11.7246 2.92584 11.6787C2.99726 11.6193 3.1134 11.665 3.17595 11.7705C3.24737 11.8757 3.24737 11.9949 3.17595 12.0544C3.11788 12.1002 2.99726 12.0544 2.92584 11.949Z" fill="#002A73"/>
</svg>