<svg width="969" height="489" viewBox="0 0 969 489" fill="none" xmlns="http://www.w3.org/2000/svg">
<rect x="14" y="380" width="48" height="48" rx="9" fill="#002A73" fill-opacity="0.1"/>
<rect x="14" y="380" width="48" height="48" rx="9" stroke="#002A73" stroke-width="2"/>
<path d="M36.7412 410.5L34.8152 407.71L33.1952 410.5H29.8652L33.1772 405.37L29.7752 400.456H33.2312L35.1572 403.228L36.7772 400.456H40.1072L36.7412 405.514L40.1972 410.5H36.7412ZM40.0332 400.222V397.36H45.0192V410.5H41.8152V400.222H40.0332Z" fill="#002A73"/>
<rect x="14" y="440" width="48" height="48" rx="9" fill="#002A73" fill-opacity="0.1"/>
<rect x="14" y="440" width="48" height="48" rx="9" stroke="#002A73" stroke-width="2"/>
<path d="M34.0342 470.5L32.1082 467.71L30.4882 470.5H27.1582L30.4702 465.37L27.0682 460.456H30.5242L32.4502 463.228L34.0702 460.456H37.4002L34.0342 465.514L37.4902 470.5H34.0342ZM37.7222 468.16V465.676L43.4102 457.54H46.8482V465.496H48.3242V468.16H46.8482V470.5H43.7702V468.16H37.7222ZM43.9862 460.924L40.9622 465.496H43.9862V460.924Z" fill="#002A73"/>
<rect x="74" y="380" width="48" height="48" rx="9" fill="#002A73" fill-opacity="0.1"/>
<rect x="74" y="380" width="48" height="48" rx="9" stroke="#002A73" stroke-width="2"/>
<path d="M94.9834 410.5L93.0574 407.71L91.4374 410.5H88.1074L91.4194 405.37L88.0174 400.456H91.4734L93.3994 403.228L95.0194 400.456H98.3494L94.9834 405.514L98.4394 410.5H94.9834ZM98.4914 408.034C98.8994 407.71 99.0854 407.56 99.0494 407.584C100.225 406.612 101.149 405.814 101.821 405.19C102.505 404.566 103.081 403.912 103.549 403.228C104.017 402.544 104.251 401.878 104.251 401.23C104.251 400.738 104.137 400.354 103.909 400.078C103.681 399.802 103.339 399.664 102.883 399.664C102.427 399.664 102.067 399.838 101.803 400.186C101.551 400.522 101.425 401.002 101.425 401.626H98.4554C98.4794 400.606 98.6954 399.754 99.1034 399.07C99.5234 398.386 100.069 397.882 100.741 397.558C101.425 397.234 102.181 397.072 103.009 397.072C104.437 397.072 105.511 397.438 106.231 398.17C106.963 398.902 107.329 399.856 107.329 401.032C107.329 402.316 106.891 403.51 106.015 404.614C105.139 405.706 104.023 406.774 102.667 407.818H107.527V410.32H98.4914V408.034Z" fill="#002A73"/>
<rect x="74" y="440" width="48" height="48" rx="9" fill="#002A73" fill-opacity="0.1"/>
<rect x="74" y="440" width="48" height="48" rx="9" stroke="#002A73" stroke-width="2"/>
<path d="M94.2715 470.5L92.3455 467.71L90.7255 470.5H87.3955L90.7075 465.37L87.3055 460.456H90.7615L92.6875 463.228L94.3075 460.456H97.6375L94.2715 465.514L97.7275 470.5H94.2715ZM107.139 460.042H101.523V462.526C101.763 462.262 102.099 462.046 102.531 461.878C102.963 461.71 103.431 461.626 103.935 461.626C104.835 461.626 105.579 461.83 106.167 462.238C106.767 462.646 107.205 463.174 107.481 463.822C107.757 464.47 107.895 465.172 107.895 465.928C107.895 467.332 107.499 468.448 106.707 469.276C105.915 470.092 104.799 470.5 103.359 470.5C102.399 470.5 101.565 470.338 100.857 470.014C100.149 469.678 99.6035 469.216 99.2195 468.628C98.8355 468.04 98.6255 467.362 98.5895 466.594H101.595C101.667 466.966 101.841 467.278 102.117 467.53C102.393 467.77 102.771 467.89 103.251 467.89C103.815 467.89 104.235 467.71 104.511 467.35C104.787 466.99 104.925 466.51 104.925 465.91C104.925 465.322 104.781 464.872 104.493 464.56C104.205 464.248 103.785 464.092 103.233 464.092C102.825 464.092 102.489 464.194 102.225 464.398C101.961 464.59 101.787 464.848 101.703 465.172H98.7335V457.342H107.139V460.042Z" fill="#002A73"/>
<rect x="134" y="380" width="48" height="48" rx="9" fill="#002A73" fill-opacity="0.1"/>
<rect x="134" y="380" width="48" height="48" rx="9" stroke="#002A73" stroke-width="2"/>
<path d="M154.676 410.5L152.75 407.71L151.13 410.5H147.8L151.112 405.37L147.71 400.456H151.166L153.092 403.228L154.712 400.456H158.042L154.676 405.514L158.132 410.5H154.676ZM158.4 401.068C158.448 399.784 158.868 398.794 159.66 398.098C160.452 397.402 161.526 397.054 162.882 397.054C163.782 397.054 164.55 397.21 165.186 397.522C165.834 397.834 166.32 398.26 166.644 398.8C166.98 399.34 167.148 399.946 167.148 400.618C167.148 401.41 166.95 402.058 166.554 402.562C166.158 403.054 165.696 403.39 165.168 403.57V403.642C165.852 403.87 166.392 404.248 166.788 404.776C167.184 405.304 167.382 405.982 167.382 406.81C167.382 407.554 167.208 408.214 166.86 408.79C166.524 409.354 166.026 409.798 165.366 410.122C164.718 410.446 163.944 410.608 163.044 410.608C161.604 410.608 160.452 410.254 159.588 409.546C158.736 408.838 158.286 407.77 158.238 406.342H161.226C161.238 406.87 161.388 407.29 161.676 407.602C161.964 407.902 162.384 408.052 162.936 408.052C163.404 408.052 163.764 407.92 164.016 407.656C164.28 407.38 164.412 407.02 164.412 406.576C164.412 406 164.226 405.586 163.854 405.334C163.494 405.07 162.912 404.938 162.108 404.938H161.532V402.436H162.108C162.72 402.436 163.212 402.334 163.584 402.13C163.968 401.914 164.16 401.536 164.16 400.996C164.16 400.564 164.04 400.228 163.8 399.988C163.56 399.748 163.23 399.628 162.81 399.628C162.354 399.628 162.012 399.766 161.784 400.042C161.568 400.318 161.442 400.66 161.406 401.068H158.4Z" fill="#002A73"/>
<rect x="134" y="440" width="48" height="48" rx="9" fill="#002A73" fill-opacity="0.1"/>
<rect x="134" y="440" width="48" height="48" rx="9" stroke="#002A73" stroke-width="2"/>
<path d="M154.395 470.5L152.469 467.71L150.849 470.5H147.519L150.831 465.37L147.429 460.456H150.885L152.811 463.228L154.431 460.456H157.761L154.395 465.514L157.851 470.5H154.395ZM164.509 460.906C164.413 460.462 164.245 460.132 164.005 459.916C163.765 459.688 163.423 459.574 162.979 459.574C162.295 459.574 161.803 459.874 161.503 460.474C161.203 461.062 161.047 461.998 161.035 463.282C161.299 462.862 161.677 462.532 162.169 462.292C162.673 462.052 163.225 461.932 163.825 461.932C165.001 461.932 165.943 462.304 166.651 463.048C167.371 463.792 167.731 464.83 167.731 466.162C167.731 467.038 167.551 467.806 167.191 468.466C166.843 469.126 166.327 469.642 165.643 470.014C164.971 470.386 164.173 470.572 163.249 470.572C161.401 470.572 160.117 469.996 159.397 468.844C158.677 467.68 158.317 466.012 158.317 463.84C158.317 461.56 158.695 459.868 159.451 458.764C160.219 457.648 161.443 457.09 163.123 457.09C164.023 457.09 164.779 457.27 165.391 457.63C166.015 457.978 166.483 458.44 166.795 459.016C167.119 459.592 167.311 460.222 167.371 460.906H164.509ZM163.087 464.362C162.571 464.362 162.139 464.518 161.791 464.83C161.455 465.13 161.287 465.562 161.287 466.126C161.287 466.702 161.443 467.152 161.755 467.476C162.079 467.8 162.535 467.962 163.123 467.962C163.651 467.962 164.065 467.806 164.365 467.494C164.677 467.17 164.833 466.732 164.833 466.18C164.833 465.616 164.683 465.172 164.383 464.848C164.083 464.524 163.651 464.362 163.087 464.362Z" fill="#002A73"/>
<path d="M1 380.5V376C1 364.954 9.9543 356 21 356H78.3848C85.9528 356 92.8726 351.728 96.2642 344.963L97.7494 342H98.2506" stroke="#002A73" stroke-width="2" stroke-linecap="round"/>
<path d="M195 380.5V376C195 364.954 186.046 356 175 356H117.615C110.047 356 103.127 351.728 99.7358 344.963L98.2506 342H97.7494" stroke="#002A73" stroke-width="2" stroke-linecap="round"/>
<rect x="272" y="380" width="48" height="48" rx="9" fill="#002A73" fill-opacity="0.1"/>
<rect x="272" y="380" width="48" height="48" rx="9" stroke="#002A73" stroke-width="2"/>
<path d="M293.309 410.5L291.383 407.71L289.763 410.5H286.433L289.745 405.37L286.343 400.456H289.799L291.725 403.228L293.345 400.456H296.675L293.309 405.514L296.765 410.5H293.309ZM305.313 399.664L300.795 410.5H297.645L302.217 400.006H296.619V397.378H305.313V399.664Z" fill="#002A73"/>
<rect x="272" y="440" width="48" height="48" rx="9" fill="#002A73" fill-opacity="0.1"/>
<rect x="272" y="440" width="48" height="48" rx="9" stroke="#002A73" stroke-width="2"/>
<path d="M289.23 470.5L287.304 467.71L285.684 470.5H282.354L285.666 465.37L282.264 460.456H285.72L287.646 463.228L289.266 460.456H292.596L289.23 465.514L292.686 470.5H289.23ZM292.522 460.222V457.36H297.508V470.5H294.304V460.222H292.522ZM298.894 463.75C298.894 461.686 299.29 460.06 300.082 458.872C300.886 457.684 302.176 457.09 303.952 457.09C305.728 457.09 307.012 457.684 307.804 458.872C308.608 460.06 309.01 461.686 309.01 463.75C309.01 465.838 308.608 467.476 307.804 468.664C307.012 469.852 305.728 470.446 303.952 470.446C302.176 470.446 300.886 469.852 300.082 468.664C299.29 467.476 298.894 465.838 298.894 463.75ZM305.986 463.75C305.986 462.538 305.854 461.608 305.59 460.96C305.326 460.3 304.78 459.97 303.952 459.97C303.124 459.97 302.578 460.3 302.314 460.96C302.05 461.608 301.918 462.538 301.918 463.75C301.918 464.566 301.966 465.244 302.062 465.784C302.158 466.312 302.35 466.744 302.638 467.08C302.938 467.404 303.376 467.566 303.952 467.566C304.528 467.566 304.96 467.404 305.248 467.08C305.548 466.744 305.746 466.312 305.842 465.784C305.938 465.244 305.986 464.566 305.986 463.75Z" fill="#002A73"/>
<rect x="332" y="380" width="48" height="48" rx="9" fill="#002A73" fill-opacity="0.1"/>
<rect x="332" y="380" width="48" height="48" rx="9" stroke="#002A73" stroke-width="2"/>
<path d="M352.289 410.5L350.363 407.71L348.743 410.5H345.413L348.725 405.37L345.323 400.456H348.779L350.705 403.228L352.325 400.456H355.655L352.289 405.514L355.745 410.5H352.289ZM358.065 403.444C356.937 402.844 356.373 401.902 356.373 400.618C356.373 399.97 356.541 399.382 356.877 398.854C357.213 398.314 357.723 397.888 358.407 397.576C359.091 397.252 359.931 397.09 360.927 397.09C361.923 397.09 362.757 397.252 363.429 397.576C364.113 397.888 364.623 398.314 364.959 398.854C365.295 399.382 365.463 399.97 365.463 400.618C365.463 401.266 365.307 401.83 364.995 402.31C364.695 402.79 364.287 403.168 363.771 403.444C364.419 403.756 364.917 404.188 365.265 404.74C365.613 405.28 365.787 405.916 365.787 406.648C365.787 407.5 365.571 408.238 365.139 408.862C364.707 409.474 364.119 409.942 363.375 410.266C362.643 410.59 361.827 410.752 360.927 410.752C360.027 410.752 359.205 410.59 358.461 410.266C357.729 409.942 357.147 409.474 356.715 408.862C356.283 408.238 356.067 407.5 356.067 406.648C356.067 405.904 356.241 405.262 356.589 404.722C356.937 404.17 357.429 403.744 358.065 403.444ZM362.475 401.086C362.475 400.594 362.331 400.216 362.043 399.952C361.767 399.676 361.395 399.538 360.927 399.538C360.459 399.538 360.081 399.676 359.793 399.952C359.517 400.228 359.379 400.612 359.379 401.104C359.379 401.572 359.523 401.944 359.811 402.22C360.099 402.484 360.471 402.616 360.927 402.616C361.383 402.616 361.755 402.478 362.043 402.202C362.331 401.926 362.475 401.554 362.475 401.086ZM360.927 404.776C360.363 404.776 359.907 404.932 359.559 405.244C359.211 405.544 359.037 405.964 359.037 406.504C359.037 407.008 359.205 407.422 359.541 407.746C359.889 408.07 360.351 408.232 360.927 408.232C361.503 408.232 361.953 408.07 362.277 407.746C362.613 407.422 362.781 407.008 362.781 406.504C362.781 405.976 362.607 405.556 362.259 405.244C361.923 404.932 361.479 404.776 360.927 404.776Z" fill="#002A73"/>
<rect x="332" y="440" width="48" height="48" rx="9" fill="#002A73" fill-opacity="0.1"/>
<rect x="332" y="440" width="48" height="48" rx="9" stroke="#002A73" stroke-width="2"/>
<path d="M351.717 470.5L349.791 467.71L348.171 470.5H344.841L348.153 465.37L344.751 460.456H348.207L350.133 463.228L351.753 460.456H355.083L351.717 465.514L355.173 470.5H351.717ZM355.009 460.222V457.36H359.995V470.5H356.791V460.222H355.009ZM361.057 460.222V457.36H366.043V470.5H362.839V460.222H361.057Z" fill="#002A73"/>
<rect x="392" y="380" width="48" height="48" rx="9" fill="#002A73" fill-opacity="0.1"/>
<rect x="392" y="380" width="48" height="48" rx="9" stroke="#002A73" stroke-width="2"/>
<path d="M412.588 410.5L410.662 407.71L409.042 410.5H405.712L409.024 405.37L405.622 400.456H409.078L411.004 403.228L412.624 400.456H415.954L412.588 405.514L416.044 410.5H412.588ZM419.516 406.648C419.696 407.596 420.248 408.07 421.172 408.07C421.808 408.07 422.258 407.788 422.522 407.224C422.786 406.66 422.918 405.742 422.918 404.47C422.654 404.842 422.294 405.13 421.838 405.334C421.382 405.538 420.872 405.64 420.308 405.64C419.54 405.64 418.856 405.484 418.256 405.172C417.656 404.848 417.182 404.374 416.834 403.75C416.498 403.114 416.33 402.346 416.33 401.446C416.33 400.558 416.51 399.784 416.87 399.124C417.242 398.464 417.764 397.954 418.436 397.594C419.12 397.234 419.924 397.054 420.848 397.054C422.624 397.054 423.866 397.606 424.574 398.71C425.282 399.814 425.636 401.44 425.636 403.588C425.636 405.148 425.492 406.438 425.204 407.458C424.928 408.466 424.454 409.234 423.782 409.762C423.122 410.29 422.216 410.554 421.064 410.554C420.152 410.554 419.372 410.374 418.724 410.014C418.088 409.654 417.596 409.18 417.248 408.592C416.912 408.004 416.72 407.356 416.672 406.648H419.516ZM421.01 403.21C421.514 403.21 421.916 403.06 422.216 402.76C422.516 402.448 422.666 402.028 422.666 401.5C422.666 400.924 422.51 400.48 422.198 400.168C421.886 399.856 421.466 399.7 420.938 399.7C420.41 399.7 419.99 399.862 419.678 400.186C419.378 400.498 419.228 400.93 419.228 401.482C419.228 401.998 419.378 402.418 419.678 402.742C419.99 403.054 420.434 403.21 421.01 403.21Z" fill="#002A73"/>
<rect x="392" y="440" width="48" height="48" rx="9" fill="#002A73" fill-opacity="0.1"/>
<rect x="392" y="440" width="48" height="48" rx="9" stroke="#002A73" stroke-width="2"/>
<path d="M409.96 470.5L408.034 467.71L406.414 470.5H403.084L406.396 465.37L402.994 460.456H406.45L408.376 463.228L409.996 460.456H413.326L409.96 465.514L413.416 470.5H409.96ZM413.252 460.222V457.36H418.238V470.5H415.034V460.222H413.252ZM419.515 468.034C419.923 467.71 420.109 467.56 420.073 467.584C421.249 466.612 422.173 465.814 422.845 465.19C423.529 464.566 424.105 463.912 424.573 463.228C425.041 462.544 425.275 461.878 425.275 461.23C425.275 460.738 425.161 460.354 424.933 460.078C424.705 459.802 424.363 459.664 423.907 459.664C423.451 459.664 423.091 459.838 422.827 460.186C422.575 460.522 422.449 461.002 422.449 461.626H419.479C419.503 460.606 419.719 459.754 420.127 459.07C420.547 458.386 421.093 457.882 421.765 457.558C422.449 457.234 423.205 457.072 424.033 457.072C425.461 457.072 426.535 457.438 427.255 458.17C427.987 458.902 428.353 459.856 428.353 461.032C428.353 462.316 427.915 463.51 427.039 464.614C426.163 465.706 425.047 466.774 423.691 467.818H428.551V470.32H419.515V468.034Z" fill="#002A73"/>
<path d="M259 380.5V376C259 364.954 267.954 356 279 356H336.385C343.953 356 350.873 351.728 354.264 344.963L355.749 342H356.251" stroke="#002A73" stroke-width="2" stroke-linecap="round"/>
<path d="M453 380.5V376C453 364.954 444.046 356 433 356H375.615C368.047 356 361.127 351.728 357.736 344.963L356.251 342H355.749" stroke="#002A73" stroke-width="2" stroke-linecap="round"/>
<rect x="531" y="380" width="48" height="48" rx="9" fill="#002A73" fill-opacity="0.1"/>
<rect x="531" y="380" width="48" height="48" rx="9" stroke="#002A73" stroke-width="2"/>
<path d="M548.652 410.5L546.726 407.71L545.106 410.5H541.776L545.088 405.37L541.686 400.456H545.142L547.068 403.228L548.688 400.456H552.018L548.652 405.514L552.108 410.5H548.652ZM551.944 400.222V397.36H556.93V410.5H553.726V400.222H551.944ZM558.424 401.068C558.472 399.784 558.892 398.794 559.684 398.098C560.476 397.402 561.55 397.054 562.906 397.054C563.806 397.054 564.574 397.21 565.21 397.522C565.858 397.834 566.344 398.26 566.668 398.8C567.004 399.34 567.172 399.946 567.172 400.618C567.172 401.41 566.974 402.058 566.578 402.562C566.182 403.054 565.72 403.39 565.192 403.57V403.642C565.876 403.87 566.416 404.248 566.812 404.776C567.208 405.304 567.406 405.982 567.406 406.81C567.406 407.554 567.232 408.214 566.884 408.79C566.548 409.354 566.05 409.798 565.39 410.122C564.742 410.446 563.968 410.608 563.068 410.608C561.628 410.608 560.476 410.254 559.612 409.546C558.76 408.838 558.31 407.77 558.262 406.342H561.25C561.262 406.87 561.412 407.29 561.7 407.602C561.988 407.902 562.408 408.052 562.96 408.052C563.428 408.052 563.788 407.92 564.04 407.656C564.304 407.38 564.436 407.02 564.436 406.576C564.436 406 564.25 405.586 563.878 405.334C563.518 405.07 562.936 404.938 562.132 404.938H561.556V402.436H562.132C562.744 402.436 563.236 402.334 563.608 402.13C563.992 401.914 564.184 401.536 564.184 400.996C564.184 400.564 564.064 400.228 563.824 399.988C563.584 399.748 563.254 399.628 562.834 399.628C562.378 399.628 562.036 399.766 561.808 400.042C561.592 400.318 561.466 400.66 561.43 401.068H558.424Z" fill="#002A73"/>
<rect x="531" y="440" width="48" height="48" rx="9" fill="#002A73" fill-opacity="0.1"/>
<rect x="531" y="440" width="48" height="48" rx="9" stroke="#002A73" stroke-width="2"/>
<path d="M548.371 470.5L546.445 467.71L544.825 470.5H541.495L544.807 465.37L541.405 460.456H544.861L546.787 463.228L548.407 460.456H551.737L548.371 465.514L551.827 470.5H548.371ZM551.663 460.222V457.36H556.649V470.5H553.445V460.222H551.663ZM564.532 460.906C564.436 460.462 564.268 460.132 564.028 459.916C563.788 459.688 563.446 459.574 563.002 459.574C562.318 459.574 561.826 459.874 561.526 460.474C561.226 461.062 561.07 461.998 561.058 463.282C561.322 462.862 561.7 462.532 562.192 462.292C562.696 462.052 563.248 461.932 563.848 461.932C565.024 461.932 565.966 462.304 566.674 463.048C567.394 463.792 567.754 464.83 567.754 466.162C567.754 467.038 567.574 467.806 567.214 468.466C566.866 469.126 566.35 469.642 565.666 470.014C564.994 470.386 564.196 470.572 563.272 470.572C561.424 470.572 560.14 469.996 559.42 468.844C558.7 467.68 558.34 466.012 558.34 463.84C558.34 461.56 558.718 459.868 559.474 458.764C560.242 457.648 561.466 457.09 563.146 457.09C564.046 457.09 564.802 457.27 565.414 457.63C566.038 457.978 566.506 458.44 566.818 459.016C567.142 459.592 567.334 460.222 567.394 460.906H564.532ZM563.11 464.362C562.594 464.362 562.162 464.518 561.814 464.83C561.478 465.13 561.31 465.562 561.31 466.126C561.31 466.702 561.466 467.152 561.778 467.476C562.102 467.8 562.558 467.962 563.146 467.962C563.674 467.962 564.088 467.806 564.388 467.494C564.7 467.17 564.856 466.732 564.856 466.18C564.856 465.616 564.706 465.172 564.406 464.848C564.106 464.524 563.674 464.362 563.11 464.362Z" fill="#002A73"/>
<rect x="591" y="380" width="48" height="48" rx="9" fill="#002A73" fill-opacity="0.1"/>
<rect x="591" y="380" width="48" height="48" rx="9" stroke="#002A73" stroke-width="2"/>
<path d="M608.01 410.5L606.084 407.71L604.464 410.5H601.134L604.446 405.37L601.044 400.456H604.5L606.426 403.228L608.046 400.456H611.376L608.01 405.514L611.466 410.5H608.01ZM611.302 400.222V397.36H616.288V410.5H613.084V400.222H611.302ZM617.746 408.16V405.676L623.434 397.54H626.872V405.496H628.348V408.16H626.872V410.5H623.794V408.16H617.746ZM624.01 400.924L620.986 405.496H624.01V400.924Z" fill="#002A73"/>
<rect x="591" y="440" width="48" height="48" rx="9" fill="#002A73" fill-opacity="0.1"/>
<rect x="591" y="440" width="48" height="48" rx="9" stroke="#002A73" stroke-width="2"/>
<path d="M609.285 470.5L607.359 467.71L605.739 470.5H602.409L605.721 465.37L602.319 460.456H605.775L607.701 463.228L609.321 460.456H612.651L609.285 465.514L612.741 470.5H609.285ZM612.577 460.222V457.36H617.563V470.5H614.359V460.222H612.577ZM627.336 459.664L622.818 470.5H619.668L624.24 460.006H618.642V457.378H627.336V459.664Z" fill="#002A73"/>
<rect x="651" y="380" width="48" height="48" rx="9" fill="#002A73" fill-opacity="0.1"/>
<rect x="651" y="380" width="48" height="48" rx="9" stroke="#002A73" stroke-width="2"/>
<path d="M668.248 410.5L666.322 407.71L664.702 410.5H661.372L664.684 405.37L661.282 400.456H664.738L666.664 403.228L668.284 400.456H671.614L668.248 405.514L671.704 410.5H668.248ZM671.54 400.222V397.36H676.526V410.5H673.322V400.222H671.54ZM687.163 400.042H681.547V402.526C681.787 402.262 682.123 402.046 682.555 401.878C682.987 401.71 683.455 401.626 683.959 401.626C684.859 401.626 685.603 401.83 686.191 402.238C686.791 402.646 687.229 403.174 687.505 403.822C687.781 404.47 687.919 405.172 687.919 405.928C687.919 407.332 687.523 408.448 686.731 409.276C685.939 410.092 684.823 410.5 683.383 410.5C682.423 410.5 681.589 410.338 680.881 410.014C680.173 409.678 679.627 409.216 679.243 408.628C678.859 408.04 678.649 407.362 678.613 406.594H681.619C681.691 406.966 681.865 407.278 682.141 407.53C682.417 407.77 682.795 407.89 683.275 407.89C683.839 407.89 684.259 407.71 684.535 407.35C684.811 406.99 684.949 406.51 684.949 405.91C684.949 405.322 684.805 404.872 684.517 404.56C684.229 404.248 683.809 404.092 683.257 404.092C682.849 404.092 682.513 404.194 682.249 404.398C681.985 404.59 681.811 404.848 681.727 405.172H678.757V397.342H687.163V400.042Z" fill="#002A73"/>
<rect x="651" y="440" width="48" height="48" rx="9" fill="#002A73" fill-opacity="0.1"/>
<rect x="651" y="440" width="48" height="48" rx="9" stroke="#002A73" stroke-width="2"/>
<path d="M668.265 470.5L666.339 467.71L664.719 470.5H661.389L664.701 465.37L661.299 460.456H664.755L666.681 463.228L668.301 460.456H671.631L668.265 465.514L671.721 470.5H668.265ZM671.557 460.222V457.36H676.543V470.5H673.339V460.222H671.557ZM680.089 463.444C678.961 462.844 678.397 461.902 678.397 460.618C678.397 459.97 678.565 459.382 678.901 458.854C679.237 458.314 679.747 457.888 680.431 457.576C681.115 457.252 681.955 457.09 682.951 457.09C683.947 457.09 684.781 457.252 685.453 457.576C686.137 457.888 686.647 458.314 686.983 458.854C687.319 459.382 687.487 459.97 687.487 460.618C687.487 461.266 687.331 461.83 687.019 462.31C686.719 462.79 686.311 463.168 685.795 463.444C686.443 463.756 686.941 464.188 687.289 464.74C687.637 465.28 687.811 465.916 687.811 466.648C687.811 467.5 687.595 468.238 687.163 468.862C686.731 469.474 686.143 469.942 685.399 470.266C684.667 470.59 683.851 470.752 682.951 470.752C682.051 470.752 681.229 470.59 680.485 470.266C679.753 469.942 679.171 469.474 678.739 468.862C678.307 468.238 678.091 467.5 678.091 466.648C678.091 465.904 678.265 465.262 678.613 464.722C678.961 464.17 679.453 463.744 680.089 463.444ZM684.499 461.086C684.499 460.594 684.355 460.216 684.067 459.952C683.791 459.676 683.419 459.538 682.951 459.538C682.483 459.538 682.105 459.676 681.817 459.952C681.541 460.228 681.403 460.612 681.403 461.104C681.403 461.572 681.547 461.944 681.835 462.22C682.123 462.484 682.495 462.616 682.951 462.616C683.407 462.616 683.779 462.478 684.067 462.202C684.355 461.926 684.499 461.554 684.499 461.086ZM682.951 464.776C682.387 464.776 681.931 464.932 681.583 465.244C681.235 465.544 681.061 465.964 681.061 466.504C681.061 467.008 681.229 467.422 681.565 467.746C681.913 468.07 682.375 468.232 682.951 468.232C683.527 468.232 683.977 468.07 684.301 467.746C684.637 467.422 684.805 467.008 684.805 466.504C684.805 465.976 684.631 465.556 684.283 465.244C683.947 464.932 683.503 464.776 682.951 464.776Z" fill="#002A73"/>
<path d="M518 380.5V376C518 364.954 526.954 356 538 356H595.385C602.953 356 609.873 351.728 613.264 344.963L614.749 342H615.251" stroke="#002A73" stroke-width="2" stroke-linecap="round"/>
<path d="M712 380.5V376C712 364.954 703.046 356 692 356H634.615C627.047 356 620.127 351.728 616.736 344.963L615.251 342H614.749" stroke="#002A73" stroke-width="2" stroke-linecap="round"/>
<rect x="787" y="380" width="48" height="48" rx="9" fill="#002A73" fill-opacity="0.1"/>
<rect x="787" y="380" width="48" height="48" rx="9" stroke="#002A73" stroke-width="2"/>
<path d="M804.564 410.5L802.638 407.71L801.018 410.5H797.688L801 405.37L797.598 400.456H801.054L802.98 403.228L804.6 400.456H807.93L804.564 405.514L808.02 410.5H804.564ZM807.856 400.222V397.36H812.842V410.5H809.638V400.222H807.856ZM817.54 406.648C817.72 407.596 818.272 408.07 819.196 408.07C819.832 408.07 820.282 407.788 820.546 407.224C820.81 406.66 820.942 405.742 820.942 404.47C820.678 404.842 820.318 405.13 819.862 405.334C819.406 405.538 818.896 405.64 818.332 405.64C817.564 405.64 816.88 405.484 816.28 405.172C815.68 404.848 815.206 404.374 814.858 403.75C814.522 403.114 814.354 402.346 814.354 401.446C814.354 400.558 814.534 399.784 814.894 399.124C815.266 398.464 815.788 397.954 816.46 397.594C817.144 397.234 817.948 397.054 818.872 397.054C820.648 397.054 821.89 397.606 822.598 398.71C823.306 399.814 823.66 401.44 823.66 403.588C823.66 405.148 823.516 406.438 823.228 407.458C822.952 408.466 822.478 409.234 821.806 409.762C821.146 410.29 820.24 410.554 819.088 410.554C818.176 410.554 817.396 410.374 816.748 410.014C816.112 409.654 815.62 409.18 815.272 408.592C814.936 408.004 814.744 407.356 814.696 406.648H817.54ZM819.034 403.21C819.538 403.21 819.94 403.06 820.24 402.76C820.54 402.448 820.69 402.028 820.69 401.5C820.69 400.924 820.534 400.48 820.222 400.168C819.91 399.856 819.49 399.7 818.962 399.7C818.434 399.7 818.014 399.862 817.702 400.186C817.402 400.498 817.252 400.93 817.252 401.482C817.252 401.998 817.402 402.418 817.702 402.742C818.014 403.054 818.458 403.21 819.034 403.21Z" fill="#002A73"/>
<rect x="787" y="440" width="48" height="48" rx="9" fill="#E21B1A" fill-opacity="0.1"/>
<rect x="787" y="440" width="48" height="48" rx="9" stroke="#E21B1A" stroke-width="2"/>
<path d="M803.202 470.5L801.276 467.71L799.656 470.5H796.326L799.638 465.37L796.236 460.456H799.692L801.618 463.228L803.238 460.456H806.568L803.202 465.514L806.658 470.5H803.202ZM806.71 468.034C807.118 467.71 807.304 467.56 807.268 467.584C808.444 466.612 809.368 465.814 810.04 465.19C810.724 464.566 811.3 463.912 811.768 463.228C812.236 462.544 812.47 461.878 812.47 461.23C812.47 460.738 812.356 460.354 812.128 460.078C811.9 459.802 811.558 459.664 811.102 459.664C810.646 459.664 810.286 459.838 810.022 460.186C809.77 460.522 809.644 461.002 809.644 461.626H806.674C806.698 460.606 806.914 459.754 807.322 459.07C807.742 458.386 808.288 457.882 808.96 457.558C809.644 457.234 810.4 457.072 811.228 457.072C812.656 457.072 813.73 457.438 814.45 458.17C815.182 458.902 815.548 459.856 815.548 461.032C815.548 462.316 815.11 463.51 814.234 464.614C813.358 465.706 812.242 466.774 810.886 467.818H815.746V470.32H806.71V468.034ZM816.273 468.034C816.681 467.71 816.867 467.56 816.831 467.584C818.007 466.612 818.931 465.814 819.603 465.19C820.287 464.566 820.863 463.912 821.331 463.228C821.799 462.544 822.033 461.878 822.033 461.23C822.033 460.738 821.919 460.354 821.691 460.078C821.463 459.802 821.121 459.664 820.665 459.664C820.209 459.664 819.849 459.838 819.585 460.186C819.333 460.522 819.207 461.002 819.207 461.626H816.237C816.261 460.606 816.477 459.754 816.885 459.07C817.305 458.386 817.851 457.882 818.523 457.558C819.207 457.234 819.963 457.072 820.791 457.072C822.219 457.072 823.293 457.438 824.013 458.17C824.745 458.902 825.111 459.856 825.111 461.032C825.111 462.316 824.673 463.51 823.797 464.614C822.921 465.706 821.805 466.774 820.449 467.818H825.309V470.32H816.273V468.034Z" fill="#E21B1A"/>
<rect x="847" y="380" width="48" height="48" rx="9" fill="#002A73" fill-opacity="0.1"/>
<rect x="847" y="380" width="48" height="48" rx="9" stroke="#002A73" stroke-width="2"/>
<path d="M862.472 410.5L860.546 407.71L858.926 410.5H855.596L858.908 405.37L855.506 400.456H858.962L860.888 403.228L862.508 400.456H865.838L862.472 405.514L865.928 410.5H862.472ZM865.98 408.034C866.388 407.71 866.574 407.56 866.538 407.584C867.714 406.612 868.638 405.814 869.31 405.19C869.994 404.566 870.57 403.912 871.038 403.228C871.506 402.544 871.74 401.878 871.74 401.23C871.74 400.738 871.626 400.354 871.398 400.078C871.17 399.802 870.828 399.664 870.372 399.664C869.916 399.664 869.556 399.838 869.292 400.186C869.04 400.522 868.914 401.002 868.914 401.626H865.944C865.968 400.606 866.184 399.754 866.592 399.07C867.012 398.386 867.558 397.882 868.23 397.558C868.914 397.234 869.67 397.072 870.498 397.072C871.926 397.072 873 397.438 873.72 398.17C874.452 398.902 874.818 399.856 874.818 401.032C874.818 402.316 874.38 403.51 873.504 404.614C872.628 405.706 871.512 406.774 870.156 407.818H875.016V410.32H865.98V408.034ZM875.652 403.75C875.652 401.686 876.048 400.06 876.84 398.872C877.644 397.684 878.934 397.09 880.71 397.09C882.486 397.09 883.77 397.684 884.562 398.872C885.366 400.06 885.768 401.686 885.768 403.75C885.768 405.838 885.366 407.476 884.562 408.664C883.77 409.852 882.486 410.446 880.71 410.446C878.934 410.446 877.644 409.852 876.84 408.664C876.048 407.476 875.652 405.838 875.652 403.75ZM882.744 403.75C882.744 402.538 882.612 401.608 882.348 400.96C882.084 400.3 881.538 399.97 880.71 399.97C879.882 399.97 879.336 400.3 879.072 400.96C878.808 401.608 878.676 402.538 878.676 403.75C878.676 404.566 878.724 405.244 878.82 405.784C878.916 406.312 879.108 406.744 879.396 407.08C879.696 407.404 880.134 407.566 880.71 407.566C881.286 407.566 881.718 407.404 882.006 407.08C882.306 406.744 882.504 406.312 882.6 405.784C882.696 405.244 882.744 404.566 882.744 403.75Z" fill="#002A73"/>
<rect x="847" y="440" width="48" height="48" rx="9" fill="#E21B1A" fill-opacity="0.1"/>
<rect x="847" y="440" width="48" height="48" rx="9" stroke="#E21B1A" stroke-width="2"/>
<path d="M862.894 470.5L860.968 467.71L859.348 470.5H856.018L859.33 465.37L855.928 460.456H859.384L861.31 463.228L862.93 460.456H866.26L862.894 465.514L866.35 470.5H862.894ZM866.402 468.034C866.81 467.71 866.996 467.56 866.96 467.584C868.136 466.612 869.06 465.814 869.732 465.19C870.416 464.566 870.992 463.912 871.46 463.228C871.928 462.544 872.162 461.878 872.162 461.23C872.162 460.738 872.048 460.354 871.82 460.078C871.592 459.802 871.25 459.664 870.794 459.664C870.338 459.664 869.978 459.838 869.714 460.186C869.462 460.522 869.336 461.002 869.336 461.626H866.366C866.39 460.606 866.606 459.754 867.014 459.07C867.434 458.386 867.98 457.882 868.652 457.558C869.336 457.234 870.092 457.072 870.92 457.072C872.348 457.072 873.422 457.438 874.142 458.17C874.874 458.902 875.24 459.856 875.24 461.032C875.24 462.316 874.802 463.51 873.926 464.614C873.05 465.706 871.934 466.774 870.578 467.818H875.438V470.32H866.402V468.034ZM876.181 461.068C876.229 459.784 876.649 458.794 877.441 458.098C878.233 457.402 879.307 457.054 880.663 457.054C881.563 457.054 882.331 457.21 882.967 457.522C883.615 457.834 884.101 458.26 884.425 458.8C884.761 459.34 884.929 459.946 884.929 460.618C884.929 461.41 884.731 462.058 884.335 462.562C883.939 463.054 883.477 463.39 882.949 463.57V463.642C883.633 463.87 884.173 464.248 884.569 464.776C884.965 465.304 885.163 465.982 885.163 466.81C885.163 467.554 884.989 468.214 884.641 468.79C884.305 469.354 883.807 469.798 883.147 470.122C882.499 470.446 881.725 470.608 880.825 470.608C879.385 470.608 878.233 470.254 877.369 469.546C876.517 468.838 876.067 467.77 876.019 466.342H879.007C879.019 466.87 879.169 467.29 879.457 467.602C879.745 467.902 880.165 468.052 880.717 468.052C881.185 468.052 881.545 467.92 881.797 467.656C882.061 467.38 882.193 467.02 882.193 466.576C882.193 466 882.007 465.586 881.635 465.334C881.275 465.07 880.693 464.938 879.889 464.938H879.313V462.436H879.889C880.501 462.436 880.993 462.334 881.365 462.13C881.749 461.914 881.941 461.536 881.941 460.996C881.941 460.564 881.821 460.228 881.581 459.988C881.341 459.748 881.011 459.628 880.591 459.628C880.135 459.628 879.793 459.766 879.565 460.042C879.349 460.318 879.223 460.66 879.187 461.068H876.181Z" fill="#E21B1A"/>
<rect x="907" y="380" width="48" height="48" rx="9" fill="#002A73" fill-opacity="0.1"/>
<rect x="907" y="380" width="48" height="48" rx="9" stroke="#002A73" stroke-width="2"/>
<path d="M924.96 410.5L923.034 407.71L921.414 410.5H918.084L921.396 405.37L917.994 400.456H921.45L923.376 403.228L924.996 400.456H928.326L924.96 405.514L928.416 410.5H924.96ZM928.468 408.034C928.876 407.71 929.062 407.56 929.026 407.584C930.202 406.612 931.126 405.814 931.798 405.19C932.482 404.566 933.058 403.912 933.526 403.228C933.994 402.544 934.228 401.878 934.228 401.23C934.228 400.738 934.114 400.354 933.886 400.078C933.658 399.802 933.316 399.664 932.86 399.664C932.404 399.664 932.044 399.838 931.78 400.186C931.528 400.522 931.402 401.002 931.402 401.626H928.432C928.456 400.606 928.672 399.754 929.08 399.07C929.5 398.386 930.046 397.882 930.718 397.558C931.402 397.234 932.158 397.072 932.986 397.072C934.414 397.072 935.488 397.438 936.208 398.17C936.94 398.902 937.306 399.856 937.306 401.032C937.306 402.316 936.868 403.51 935.992 404.614C935.116 405.706 934 406.774 932.644 407.818H937.504V410.32H928.468V408.034ZM937.815 400.222V397.36H942.801V410.5H939.597V400.222H937.815Z" fill="#002A73"/>
<rect x="907" y="440" width="48" height="48" rx="9" fill="#E21B1A" fill-opacity="0.1"/>
<rect x="907" y="440" width="48" height="48" rx="9" stroke="#E21B1A" stroke-width="2"/>
<path d="M922.253 470.5L920.327 467.71L918.707 470.5H915.377L918.689 465.37L915.287 460.456H918.743L920.669 463.228L922.289 460.456H925.619L922.253 465.514L925.709 470.5H922.253ZM925.761 468.034C926.169 467.71 926.355 467.56 926.319 467.584C927.495 466.612 928.419 465.814 929.091 465.19C929.775 464.566 930.351 463.912 930.819 463.228C931.287 462.544 931.521 461.878 931.521 461.23C931.521 460.738 931.407 460.354 931.179 460.078C930.951 459.802 930.609 459.664 930.153 459.664C929.697 459.664 929.337 459.838 929.073 460.186C928.821 460.522 928.695 461.002 928.695 461.626H925.725C925.749 460.606 925.965 459.754 926.373 459.07C926.793 458.386 927.339 457.882 928.011 457.558C928.695 457.234 929.451 457.072 930.279 457.072C931.707 457.072 932.781 457.438 933.501 458.17C934.233 458.902 934.599 459.856 934.599 461.032C934.599 462.316 934.161 463.51 933.285 464.614C932.409 465.706 931.293 466.774 929.937 467.818H934.797V470.32H925.761V468.034ZM935.504 468.16V465.676L941.192 457.54H944.63V465.496H946.106V468.16H944.63V470.5H941.552V468.16H935.504ZM941.768 460.924L938.744 465.496H941.768V460.924Z" fill="#E21B1A"/>
<path d="M774 380.5V376C774 364.954 782.954 356 794 356H851.385C858.953 356 865.873 351.728 869.264 344.963L870.749 342H871.251" stroke="#002A73" stroke-width="2" stroke-linecap="round"/>
<path d="M968 380.5V376C968 364.954 959.046 356 948 356H890.615C883.047 356 876.127 351.728 872.736 344.963L871.251 342H870.749" stroke="#002A73" stroke-width="2" stroke-linecap="round"/>
<rect x="53" y="230" width="91" height="91" rx="9" fill="white" fill-opacity="0.1"/>
<rect x="53" y="230" width="91" height="91" rx="9" stroke="#EBEBEB" stroke-width="2"/>
<path d="M86.3914 275.124C86.3914 273.492 86.7674 272.028 87.5194 270.732C88.2874 269.436 89.3194 268.428 90.6154 267.708C91.9274 266.972 93.3594 266.604 94.9114 266.604C96.6874 266.604 98.2634 267.044 99.6394 267.924C101.031 268.788 102.039 270.02 102.663 271.62H99.3754C98.9434 270.74 98.3434 270.084 97.5754 269.652C96.8074 269.22 95.9194 269.004 94.9114 269.004C93.8074 269.004 92.8234 269.252 91.9594 269.748C91.0954 270.244 90.4154 270.956 89.9194 271.884C89.4394 272.812 89.1994 273.892 89.1994 275.124C89.1994 276.356 89.4394 277.436 89.9194 278.364C90.4154 279.292 91.0954 280.012 91.9594 280.524C92.8234 281.02 93.8074 281.268 94.9114 281.268C95.9194 281.268 96.8074 281.052 97.5754 280.62C98.3434 280.188 98.9434 279.532 99.3754 278.652H102.663C102.039 280.252 101.031 281.484 99.6394 282.348C98.2634 283.212 96.6874 283.644 94.9114 283.644C93.3434 283.644 91.9114 283.284 90.6154 282.564C89.3194 281.828 88.2874 280.812 87.5194 279.516C86.7674 278.22 86.3914 276.756 86.3914 275.124ZM104.186 268.5V266.004H109.178V283.5H106.418V268.5H104.186Z" fill="#24292D"/>
<rect x="181" y="109" width="91" height="91" rx="9" fill="white" fill-opacity="0.1"/>
<rect x="181" y="109" width="91" height="91" rx="9" stroke="#EBEBEB" stroke-width="2"/>
<path d="M211.462 154.124C211.462 152.492 211.838 151.028 212.59 149.732C213.358 148.436 214.39 147.428 215.686 146.708C216.998 145.972 218.43 145.604 219.982 145.604C221.758 145.604 223.334 146.044 224.71 146.924C226.102 147.788 227.11 149.02 227.734 150.62H224.446C224.014 149.74 223.414 149.084 222.646 148.652C221.878 148.22 220.99 148.004 219.982 148.004C218.878 148.004 217.894 148.252 217.03 148.748C216.166 149.244 215.486 149.956 214.99 150.884C214.51 151.812 214.27 152.892 214.27 154.124C214.27 155.356 214.51 156.436 214.99 157.364C215.486 158.292 216.166 159.012 217.03 159.524C217.894 160.02 218.878 160.268 219.982 160.268C220.99 160.268 221.878 160.052 222.646 159.62C223.414 159.188 224.014 158.532 224.446 157.652H227.734C227.11 159.252 226.102 160.484 224.71 161.348C223.334 162.212 221.758 162.644 219.982 162.644C218.414 162.644 216.982 162.284 215.686 161.564C214.39 160.828 213.358 159.812 212.59 158.516C211.838 157.22 211.462 155.756 211.462 154.124ZM229.568 149.324C229.664 147.836 230.232 146.676 231.272 145.844C232.328 145.012 233.672 144.596 235.304 144.596C236.424 144.596 237.392 144.796 238.208 145.196C239.024 145.596 239.64 146.14 240.056 146.828C240.472 147.516 240.68 148.292 240.68 149.156C240.68 150.148 240.416 150.996 239.888 151.7C239.36 152.404 238.728 152.876 237.992 153.116V153.212C238.936 153.5 239.672 154.028 240.2 154.796C240.728 155.548 240.992 156.516 240.992 157.7C240.992 158.644 240.776 159.484 240.344 160.22C239.912 160.956 239.272 161.54 238.424 161.972C237.576 162.388 236.56 162.596 235.376 162.596C233.648 162.596 232.224 162.156 231.104 161.276C230 160.38 229.408 159.1 229.328 157.436H231.968C232.032 158.284 232.36 158.98 232.952 159.524C233.544 160.052 234.344 160.316 235.352 160.316C236.328 160.316 237.08 160.052 237.608 159.524C238.136 158.98 238.4 158.284 238.4 157.436C238.4 156.316 238.04 155.524 237.32 155.06C236.616 154.58 235.528 154.34 234.056 154.34H233.432V152.084H234.08C235.376 152.068 236.36 151.852 237.032 151.436C237.72 151.02 238.064 150.364 238.064 149.468C238.064 148.7 237.816 148.092 237.32 147.644C236.824 147.18 236.12 146.948 235.208 146.948C234.312 146.948 233.616 147.18 233.12 147.644C232.624 148.092 232.328 148.652 232.232 149.324H229.568Z" fill="#24292D"/>
<path d="M707 110H780C784.418 110 788 113.582 788 118V191C788 195.418 784.418 199 780 199H707C702.582 199 699 195.418 699 191V118C699 113.582 702.582 110 707 110Z" fill="white" fill-opacity="0.1"/>
<path d="M707 110H780C784.418 110 788 113.582 788 118V191C788 195.418 784.418 199 780 199H707C702.582 199 699 195.418 699 191V118C699 113.582 702.582 110 707 110Z" stroke="#E21B1A" stroke-width="4"/>
<path d="M727.888 154.124C727.888 152.492 728.264 151.028 729.016 149.732C729.784 148.436 730.816 147.428 732.112 146.708C733.424 145.972 734.856 145.604 736.408 145.604C738.184 145.604 739.76 146.044 741.136 146.924C742.528 147.788 743.536 149.02 744.16 150.62H740.872C740.44 149.74 739.84 149.084 739.072 148.652C738.304 148.22 737.416 148.004 736.408 148.004C735.304 148.004 734.32 148.252 733.456 148.748C732.592 149.244 731.912 149.956 731.416 150.884C730.936 151.812 730.696 152.892 730.696 154.124C730.696 155.356 730.936 156.436 731.416 157.364C731.912 158.292 732.592 159.012 733.456 159.524C734.32 160.02 735.304 160.268 736.408 160.268C737.416 160.268 738.304 160.052 739.072 159.62C739.84 159.188 740.44 158.532 740.872 157.652H744.16C743.536 159.252 742.528 160.484 741.136 161.348C739.76 162.212 738.184 162.644 736.408 162.644C734.84 162.644 733.408 162.284 732.112 161.564C730.816 160.828 729.784 159.812 729.016 158.516C728.264 157.22 727.888 155.756 727.888 154.124ZM755.45 149.06C755.274 148.324 754.954 147.772 754.49 147.404C754.026 147.036 753.378 146.852 752.546 146.852C751.282 146.852 750.338 147.34 749.714 148.316C749.09 149.276 748.762 150.876 748.73 153.116C749.146 152.412 749.754 151.868 750.554 151.484C751.354 151.1 752.218 150.908 753.146 150.908C754.202 150.908 755.13 151.14 755.93 151.604C756.746 152.052 757.378 152.708 757.826 153.572C758.29 154.436 758.522 155.468 758.522 156.668C758.522 157.788 758.298 158.788 757.85 159.668C757.418 160.548 756.77 161.244 755.906 161.756C755.042 162.252 754.002 162.5 752.786 162.5C751.138 162.5 749.842 162.14 748.898 161.42C747.97 160.684 747.314 159.652 746.93 158.324C746.562 156.996 746.378 155.34 746.378 153.356C746.378 147.5 748.442 144.572 752.57 144.572C754.17 144.572 755.426 145.004 756.338 145.868C757.266 146.732 757.81 147.796 757.97 149.06H755.45ZM752.546 153.212C751.57 153.212 750.738 153.508 750.05 154.1C749.378 154.676 749.042 155.516 749.042 156.62C749.042 157.724 749.354 158.604 749.978 159.26C750.618 159.9 751.506 160.22 752.642 160.22C753.65 160.22 754.442 159.908 755.018 159.284C755.61 158.66 755.906 157.828 755.906 156.788C755.906 155.7 755.618 154.836 755.042 154.196C754.482 153.54 753.65 153.212 752.546 153.212Z" fill="#24292D"/>
<path d="M448 2H521C525.418 2 529 5.58172 529 10V83C529 87.4183 525.418 91 521 91H448C443.582 91 440 87.4183 440 83V10C440 5.58172 443.582 2 448 2Z" fill="white" fill-opacity="0.1"/>
<path d="M448 2H521C525.418 2 529 5.58172 529 10V83C529 87.4183 525.418 91 521 91H448C443.582 91 440 87.4183 440 83V10C440 5.58172 443.582 2 448 2Z" stroke="#E21B1A" stroke-width="4"/>
<path d="M469.872 46.124C469.872 44.492 470.248 43.028 471 41.732C471.768 40.436 472.8 39.428 474.096 38.708C475.408 37.972 476.84 37.604 478.392 37.604C480.168 37.604 481.744 38.044 483.12 38.924C484.512 39.788 485.52 41.02 486.144 42.62H482.856C482.424 41.74 481.824 41.084 481.056 40.652C480.288 40.22 479.4 40.004 478.392 40.004C477.288 40.004 476.304 40.252 475.44 40.748C474.576 41.244 473.896 41.956 473.4 42.884C472.92 43.812 472.68 44.892 472.68 46.124C472.68 47.356 472.92 48.436 473.4 49.364C473.896 50.292 474.576 51.012 475.44 51.524C476.304 52.02 477.288 52.268 478.392 52.268C479.4 52.268 480.288 52.052 481.056 51.62C481.824 51.188 482.424 50.532 482.856 49.652H486.144C485.52 51.252 484.512 52.484 483.12 53.348C481.744 54.212 480.168 54.644 478.392 54.644C476.824 54.644 475.392 54.284 474.096 53.564C472.8 52.828 471.768 51.812 471 50.516C470.248 49.22 469.872 47.756 469.872 46.124ZM499.114 39.116L492.442 54.5H489.682L496.426 39.404H487.546V37.076H499.114V39.116Z" fill="#24292D"/>
<rect x="311" y="230" width="91" height="91" rx="9" fill="white" fill-opacity="0.1"/>
<rect x="311" y="230" width="91" height="91" rx="9" stroke="#EBEBEB" stroke-width="2"/>
<path d="M341.661 275.124C341.661 273.492 342.037 272.028 342.789 270.732C343.557 269.436 344.589 268.428 345.885 267.708C347.197 266.972 348.629 266.604 350.181 266.604C351.957 266.604 353.533 267.044 354.909 267.924C356.301 268.788 357.309 270.02 357.933 271.62H354.645C354.213 270.74 353.613 270.084 352.845 269.652C352.077 269.22 351.189 269.004 350.181 269.004C349.077 269.004 348.093 269.252 347.229 269.748C346.365 270.244 345.685 270.956 345.189 271.884C344.709 272.812 344.469 273.892 344.469 275.124C344.469 276.356 344.709 277.436 345.189 278.364C345.685 279.292 346.365 280.012 347.229 280.524C348.093 281.02 349.077 281.268 350.181 281.268C351.189 281.268 352.077 281.052 352.845 280.62C353.613 280.188 354.213 279.532 354.645 278.652H357.933C357.309 280.252 356.301 281.484 354.909 282.348C353.533 283.212 351.957 283.644 350.181 283.644C348.613 283.644 347.181 283.284 345.885 282.564C344.589 281.828 343.557 280.812 342.789 279.516C342.037 278.22 341.661 276.756 341.661 275.124ZM361.327 279.78C362.863 278.452 364.071 277.364 364.951 276.516C365.847 275.652 366.591 274.756 367.183 273.828C367.775 272.9 368.071 271.972 368.071 271.044C368.071 270.084 367.839 269.332 367.375 268.788C366.927 268.244 366.215 267.972 365.239 267.972C364.295 267.972 363.559 268.276 363.031 268.884C362.519 269.476 362.247 270.276 362.215 271.284H359.575C359.623 269.46 360.167 268.068 361.207 267.108C362.263 266.132 363.599 265.644 365.215 265.644C366.959 265.644 368.319 266.124 369.295 267.084C370.287 268.044 370.783 269.324 370.783 270.924C370.783 272.076 370.487 273.188 369.895 274.26C369.319 275.316 368.623 276.268 367.807 277.116C367.007 277.948 365.983 278.916 364.735 280.02L363.655 280.98H371.263V283.26H359.599V281.268L361.327 279.78Z" fill="#24292D"/>
<rect x="568" y="230" width="91" height="91" rx="9" fill="white" fill-opacity="0.1"/>
<rect x="568" y="230" width="91" height="91" rx="9" stroke="#EBEBEB" stroke-width="2"/>
<path d="M597.817 275.124C597.817 273.492 598.193 272.028 598.945 270.732C599.713 269.436 600.745 268.428 602.041 267.708C603.353 266.972 604.785 266.604 606.337 266.604C608.113 266.604 609.689 267.044 611.065 267.924C612.457 268.788 613.465 270.02 614.089 271.62H610.801C610.369 270.74 609.769 270.084 609.001 269.652C608.233 269.22 607.345 269.004 606.337 269.004C605.233 269.004 604.249 269.252 603.385 269.748C602.521 270.244 601.841 270.956 601.345 271.884C600.865 272.812 600.625 273.892 600.625 275.124C600.625 276.356 600.865 277.436 601.345 278.364C601.841 279.292 602.521 280.012 603.385 280.524C604.249 281.02 605.233 281.268 606.337 281.268C607.345 281.268 608.233 281.052 609.001 280.62C609.769 280.188 610.369 279.532 610.801 278.652H614.089C613.465 280.252 612.457 281.484 611.065 282.348C609.689 283.212 608.113 283.644 606.337 283.644C604.769 283.644 603.337 283.284 602.041 282.564C600.745 281.828 599.713 280.812 598.945 279.516C598.193 278.22 597.817 276.756 597.817 275.124ZM615.636 279.852V277.788L623.7 266.22H627.012V277.476H629.244V279.852H627.012V283.5H624.324V279.852H615.636ZM624.444 269.004L618.78 277.476H624.444V269.004Z" fill="#24292D"/>
<rect x="827" y="231" width="89" height="89" rx="8" fill="white" fill-opacity="0.1"/>
<rect x="827" y="231" width="89" height="89" rx="8" stroke="#E21B1A" stroke-width="4"/>
<path d="M855.923 275.124C855.923 273.492 856.299 272.028 857.051 270.732C857.819 269.436 858.851 268.428 860.147 267.708C861.459 266.972 862.891 266.604 864.443 266.604C866.219 266.604 867.795 267.044 869.171 267.924C870.563 268.788 871.571 270.02 872.195 271.62H868.907C868.475 270.74 867.875 270.084 867.107 269.652C866.339 269.22 865.451 269.004 864.443 269.004C863.339 269.004 862.355 269.252 861.491 269.748C860.627 270.244 859.947 270.956 859.451 271.884C858.971 272.812 858.731 273.892 858.731 275.124C858.731 276.356 858.971 277.436 859.451 278.364C859.947 279.292 860.627 280.012 861.491 280.524C862.355 281.02 863.339 281.268 864.443 281.268C865.451 281.268 866.339 281.052 867.107 280.62C867.875 280.188 868.475 279.532 868.907 278.652H872.195C871.571 280.252 870.563 281.484 869.171 282.348C867.795 283.212 866.219 283.644 864.443 283.644C862.875 283.644 861.443 283.284 860.147 282.564C858.851 281.828 857.819 280.812 857.051 279.516C856.299 278.22 855.923 276.756 855.923 275.124ZM885.357 268.356H877.317V273.132C877.653 272.684 878.149 272.308 878.805 272.004C879.477 271.7 880.189 271.548 880.941 271.548C882.285 271.548 883.373 271.836 884.205 272.412C885.053 272.988 885.653 273.716 886.005 274.596C886.373 275.476 886.557 276.404 886.557 277.38C886.557 278.564 886.325 279.62 885.861 280.548C885.413 281.46 884.733 282.18 883.821 282.708C882.925 283.236 881.821 283.5 880.509 283.5C878.765 283.5 877.365 283.068 876.309 282.204C875.253 281.34 874.621 280.196 874.413 278.772H877.077C877.253 279.524 877.645 280.124 878.253 280.572C878.861 281.004 879.621 281.22 880.533 281.22C881.669 281.22 882.517 280.876 883.077 280.188C883.653 279.5 883.941 278.588 883.941 277.452C883.941 276.3 883.653 275.42 883.077 274.812C882.501 274.188 881.653 273.876 880.533 273.876C879.749 273.876 879.085 274.076 878.541 274.476C878.013 274.86 877.629 275.388 877.389 276.06H874.797V265.956H885.357V268.356Z" fill="#24292D"/>
<path d="M225 45V44H224V45H225ZM437 45L427 39.2265V50.7735L437 45ZM225 108H226V45H225H224V108H225ZM225 45V46H428V45V44H225V45Z" fill="#002A73"/>
<path d="M745 45V43H747V45H745ZM533 45L553 33.453V56.547L533 45ZM745 108H743V45H745H747V108H745ZM745 45V47H551V45V43H745V45Z" fill="#E21B1A"/>
<path d="M871.25 155.5H873.25V153.5H871.25V155.5ZM792.25 155.5L812.25 167.047V143.953L792.25 155.5ZM871.25 228.5H873.25V155.5H871.25H869.25V228.5H871.25ZM871.25 155.5V153.5H810.25V155.5V157.5H871.25V155.5Z" fill="#E21B1A"/>
<path d="M98.25 155.5H97.25V154.5H98.25V155.5ZM177.25 155.5L167.25 161.274V149.726L177.25 155.5ZM98.25 228.5H97.25V155.5H98.25H99.25V228.5H98.25ZM98.25 155.5V154.5H168.25V155.5V156.5H98.25V155.5Z" fill="#002A73"/>
<path d="M355.25 155.5H356.25V154.5H355.25V155.5ZM276.25 155.5L286.25 161.274V149.726L276.25 155.5ZM355.25 228.5H356.25V155.5H355.25H354.25V228.5H355.25ZM355.25 155.5V154.5H285.25V155.5V156.5H355.25V155.5Z" fill="#002A73"/>
<path d="M615.25 155.5H614.25V154.5H615.25V155.5ZM694.25 155.5L684.25 161.274V149.726L694.25 155.5ZM615.25 228.5H614.25V155.5H615.25H616.25V228.5H615.25ZM615.25 155.5V154.5H685.25V155.5V156.5H615.25V155.5Z" fill="#002A73"/>
</svg>
