<svg width="100" height="60" viewBox="0 0 100 60" fill="none" xmlns="http://www.w3.org/2000/svg">
<g clip-path="url(#clip0_3639_4170)">
<path d="M28.4216 21.8908C28.4216 23.1105 28.5531 24.0995 28.7834 24.8248C29.0466 25.5501 29.3755 26.3413 29.836 27.1984C30.0005 27.4622 30.0663 27.7259 30.0663 27.9567C30.0663 28.2864 29.8689 28.616 29.4413 28.9457L27.3689 30.3303C27.0729 30.5281 26.7768 30.627 26.5137 30.627C26.1847 30.627 25.8558 30.4622 25.5268 30.1655C25.0663 29.671 24.6716 29.1435 24.3426 28.616C24.0137 28.0556 23.6847 27.4292 23.3229 26.671C20.7571 29.7039 17.5334 31.2204 13.6518 31.2204C10.8887 31.2204 8.68472 30.4292 7.07288 28.8468C5.46104 27.2644 4.63867 25.1545 4.63867 22.5171C4.63867 19.7149 5.62551 17.4402 7.63209 15.7259C9.63867 14.0116 12.3031 13.1545 15.6913 13.1545C16.8097 13.1545 17.961 13.2534 19.1781 13.4182C20.3952 13.5831 21.6453 13.8468 22.961 14.1435V11.7369C22.961 9.23141 22.4347 7.48416 21.415 6.46218C20.3624 5.4402 18.586 4.9457 16.0531 4.9457C14.9018 4.9457 13.7176 5.07757 12.5005 5.37427C11.2834 5.67097 10.0992 6.03361 8.94788 6.49515C8.42157 6.72592 8.02683 6.85779 7.79657 6.92372C7.5663 6.98966 7.40183 7.02262 7.27025 7.02262C6.80972 7.02262 6.57946 6.69295 6.57946 6.00064V4.38526C6.57946 3.85779 6.64525 3.46218 6.80972 3.23141C6.9742 3.00064 7.27025 2.76987 7.73078 2.53911C8.88209 1.9457 10.2637 1.45119 11.8755 1.05559C13.4874 0.627017 15.1979 0.429215 17.0071 0.429215C20.9216 0.429215 23.7834 1.31932 25.6255 3.09954C27.4347 4.87976 28.3558 7.58306 28.3558 11.2094V21.8908H28.4216ZM15.0663 26.9017C16.1518 26.9017 17.2703 26.7039 18.4545 26.3083C19.6387 25.9127 20.6913 25.1875 21.5795 24.1984C22.1058 23.5721 22.5005 22.8798 22.6979 22.0886C22.8953 21.2973 23.0268 20.3413 23.0268 19.2204V17.8358C22.0729 17.605 21.0531 17.4072 20.0005 17.2754C18.9479 17.1435 17.9281 17.0776 16.9084 17.0776C14.7045 17.0776 13.0926 17.5061 12.0071 18.3962C10.9216 19.2864 10.3953 20.5391 10.3953 22.1875C10.3953 23.7369 10.79 24.8908 11.6124 25.682C12.4018 26.5061 13.5531 26.9017 15.0663 26.9017ZM41.4808 30.4622C40.8887 30.4622 40.4939 30.3633 40.2308 30.1325C39.9676 29.9347 39.7374 29.4732 39.54 28.8468L31.8097 3.36328C31.6124 2.70394 31.5137 2.27537 31.5137 2.0446C31.5137 1.51713 31.7768 1.22042 32.3031 1.22042H35.5268C36.1518 1.22042 36.5795 1.31933 36.8097 1.55009C37.0729 1.7479 37.2703 2.20944 37.4676 2.83581L42.9939 24.66L48.1255 2.83581C48.29 2.17647 48.4874 1.7479 48.7505 1.55009C49.0137 1.35229 49.4742 1.22042 50.0663 1.22042H52.6979C53.3229 1.22042 53.7505 1.31933 54.0137 1.55009C54.2768 1.7479 54.5071 2.20944 54.6387 2.83581L59.836 24.9237L65.5268 2.83581C65.7242 2.17647 65.9545 1.7479 66.1847 1.55009C66.4479 1.35229 66.8755 1.22042 67.4676 1.22042H70.5268C71.0531 1.22042 71.3492 1.48416 71.3492 2.0446C71.3492 2.20944 71.3163 2.37427 71.2834 2.57207C71.2505 2.76987 71.1847 3.03361 71.0531 3.39625L63.1255 28.8798C62.9281 29.5391 62.6979 29.9677 62.4347 30.1655C62.1716 30.3633 61.7439 30.4952 61.1847 30.4952H58.3558C57.7308 30.4952 57.3031 30.3962 57.04 30.1655C56.7768 29.9347 56.5466 29.5061 56.415 28.8468L51.3163 7.58306L46.2505 28.8138C46.086 29.4732 45.8887 29.9017 45.6255 30.1325C45.3624 30.3633 44.9018 30.4622 44.3097 30.4622H41.4808ZM83.7505 31.3523C82.04 31.3523 80.3295 31.1545 78.6847 30.7589C77.04 30.3633 75.7571 29.9347 74.9018 29.4402C74.3755 29.1435 74.0137 28.8138 73.8821 28.5171C73.7505 28.2204 73.6847 27.8908 73.6847 27.5941V25.9127C73.6847 25.2204 73.9479 24.8908 74.4413 24.8908C74.6387 24.8908 74.836 24.9237 75.0334 24.9897C75.2308 25.0556 75.5268 25.1875 75.8558 25.3193C76.9742 25.8138 78.1913 26.2094 79.4742 26.4732C80.79 26.7369 82.0729 26.8688 83.3887 26.8688C85.461 26.8688 87.0729 26.5061 88.1913 25.7809C89.3097 25.0556 89.9018 24.0006 89.9018 22.649C89.9018 21.7259 89.6058 20.9677 89.0137 20.3413C88.4216 19.7149 87.3031 19.1545 85.6913 18.627L80.9216 17.1435C78.5202 16.3853 76.7439 15.2644 75.6584 13.7809C74.5729 12.3303 74.0137 10.7149 74.0137 9.00064C74.0137 7.61603 74.3097 6.39625 74.9018 5.3413C75.4939 4.28636 76.2834 3.36328 77.2702 2.63801C78.2571 1.87976 79.3755 1.31933 80.6913 0.923721C82.0071 0.528116 83.3887 0.363281 84.836 0.363281C85.5597 0.363281 86.3163 0.396248 87.04 0.495149C87.7966 0.59405 88.4874 0.725919 89.1781 0.857787C89.836 1.02262 90.461 1.18746 91.0531 1.38526C91.6452 1.58306 92.1058 1.78086 92.4347 1.97867C92.8952 2.2424 93.2242 2.50614 93.4216 2.80284C93.6189 3.06658 93.7176 3.42922 93.7176 3.89075V5.4402C93.7176 6.13251 93.4545 6.49515 92.961 6.49515C92.6979 6.49515 92.2702 6.36328 91.711 6.09955C89.836 5.2424 87.7308 4.81383 85.3952 4.81383C83.5202 4.81383 82.04 5.11053 81.0202 5.73691C80.0005 6.36328 79.4742 7.31932 79.4742 8.67097C79.4742 9.59405 79.8031 10.3853 80.461 11.0116C81.1189 11.638 82.336 12.2644 84.0795 12.8248L88.7505 14.3083C91.1189 15.0666 92.8295 16.1215 93.8492 17.4732C94.8689 18.8248 95.3624 20.3743 95.3624 22.0886C95.3624 23.5061 95.0663 24.7919 94.5071 25.9127C93.915 27.0336 93.1255 28.0226 92.1058 28.8138C91.086 29.638 89.8689 30.2314 88.4545 30.66C86.9742 31.1215 85.4281 31.3523 83.7505 31.3523Z" fill="#252F3E"/>
<path fill-rule="evenodd" clip-rule="evenodd" d="M89.9673 47.3731C79.1449 55.3841 63.4212 59.6368 49.9015 59.6368C30.9541 59.6368 13.8817 52.6148 0.986992 40.9445C-0.0327452 40.0214 0.888307 38.7687 2.10541 39.494C16.0528 47.6038 33.2567 52.5159 51.0528 52.5159C63.0594 52.5159 76.2502 50.0104 88.3883 44.8676C90.1975 44.0434 91.7436 46.0544 89.9673 47.3731Z" fill="#FF9900"/>
<path fill-rule="evenodd" clip-rule="evenodd" d="M94.4731 42.2311C93.0915 40.4508 85.3283 41.3739 81.8086 41.8025C80.7559 41.9343 80.5915 41.0113 81.5454 40.319C87.7296 35.9673 97.8941 37.2201 99.0783 38.6706C100.263 40.1541 98.7494 50.3409 92.9599 55.2201C92.0717 55.9783 91.2165 55.5827 91.6112 54.5937C92.927 51.33 95.8546 43.9783 94.4731 42.2311Z" fill="#FF9900"/>
</g>
<defs>
<clipPath id="clip0_3639_4170">
<rect width="100" height="60" fill="white"/>
</clipPath>
</defs>
</svg>
