<svg width="233" height="60" viewBox="0 0 233 60" fill="none" xmlns="http://www.w3.org/2000/svg">
<path d="M47.1669 44.9165L35.5529 38.2096C33.9213 37.2705 31.8348 37.829 30.8905 39.46C30.5246 40.1026 30.3812 40.8093 30.4505 41.4963V54.6036C30.4505 56.4768 31.9733 57.9991 33.8521 57.9991C35.7259 57.9991 37.2488 56.4768 37.2488 54.6036V47.0664L43.7553 50.8227C45.3869 51.7667 47.4783 51.2032 48.4177 49.5722C49.3621 47.9412 48.8034 45.8555 47.1669 44.9165Z" fill="#29B5E8"/>
<path d="M18.2813 30.5456C18.3011 29.3347 17.6633 28.2078 16.6151 27.5999L5.00117 20.8979C4.49686 20.6063 3.91839 20.4531 3.33991 20.4531C2.14836 20.4531 1.04085 21.0907 0.447545 22.1187C-0.472079 23.7102 0.0767298 25.7514 1.66877 26.6707L8.36324 30.5307L1.66877 34.3957C0.897469 34.8405 0.343717 35.5572 0.116284 36.4172C-0.116095 37.2771 0.00256626 38.1767 0.447545 38.9477C1.04085 39.9757 2.14836 40.6133 3.33497 40.6133C3.91839 40.6133 4.49686 40.4601 5.00117 40.1685L16.6151 33.4665C17.6534 32.8636 18.2912 31.7466 18.2813 30.5456Z" fill="#29B5E8"/>
<path d="M7.63668 16.1469L19.2507 22.8488C20.6054 23.6346 22.2765 23.3776 23.3445 22.3348C24.0218 21.712 24.4421 20.8224 24.4421 19.8339V6.40039C24.4421 4.52227 22.9193 3 21.0454 3C19.1666 3 17.6438 4.52227 17.6438 6.40039V14.0463L11.0482 10.2407C9.4166 9.29665 7.33014 9.85515 6.3858 11.4861C5.44145 13.1171 6.00509 15.2029 7.63668 16.1469Z" fill="#29B5E8"/>
<path d="M33.7528 31.0892C33.7528 31.3462 33.6045 31.7021 33.4215 31.8899L28.8184 36.4913C28.6355 36.6741 28.2746 36.8224 28.0175 36.8224H26.8457C26.5886 36.8224 26.2277 36.6741 26.0447 36.4913L21.4367 31.8899C21.2538 31.7021 21.1055 31.3462 21.1055 31.0892V29.9178C21.1055 29.6559 21.2538 29.3 21.4367 29.1172L26.0447 24.5108C26.2277 24.328 26.5886 24.1797 26.8457 24.1797H28.0175C28.2746 24.1797 28.6355 24.328 28.8184 24.5108L33.4215 29.1172C33.6045 29.3 33.7528 29.6559 33.7528 29.9178V31.0892ZM29.6441 30.5258V30.4763C29.6441 30.2885 29.5354 30.0266 29.4019 29.8882L28.0422 28.534C27.9087 28.3956 27.6467 28.2868 27.4538 28.2868H27.4044C27.2165 28.2868 26.9545 28.3956 26.816 28.534L25.4613 29.8882C25.3278 30.0216 25.2191 30.2836 25.2191 30.4763V30.5258C25.2191 30.7185 25.3278 30.9805 25.4613 31.1139L26.816 32.4731C26.9545 32.6065 27.2165 32.7153 27.4044 32.7153H27.4538C27.6467 32.7153 27.9087 32.6065 28.0422 32.4731L29.4019 31.1139C29.5354 30.9805 29.6441 30.7185 29.6441 30.5258Z" fill="#29B5E8"/>
<path d="M35.5515 22.8488L47.1655 16.1469C48.7971 15.2078 49.3607 13.1171 48.4164 11.4861C47.472 9.85515 45.3856 9.29665 43.754 10.2407L37.2474 13.9969V6.40039C37.2474 4.52227 35.7246 3 33.8507 3C31.9719 3 30.4491 4.52227 30.4491 6.40039V19.567C30.3848 20.2491 30.5183 20.9608 30.8891 21.6033C31.8335 23.2343 33.9199 23.7928 35.5515 22.8488Z" fill="#29B5E8"/>
<path d="M21.5794 37.8141C20.8081 37.6658 19.9824 37.7894 19.2507 38.2095L7.63668 44.9163C6.00509 45.8554 5.44145 47.9411 6.3858 49.5721C7.33014 51.208 9.4166 51.7665 11.0482 50.8225L17.6438 47.0169V54.6035C17.6438 56.4767 19.1666 57.9989 21.0454 57.9989C22.9193 57.9989 24.4421 56.4767 24.4421 54.6035V41.17C24.4421 39.4747 23.2011 38.0711 21.5794 37.8141Z" fill="#29B5E8"/>
<path d="M54.422 22.0805C53.4826 20.4446 51.3912 19.8861 49.7596 20.8301L38.1457 27.532C37.0332 28.1745 36.4201 29.3508 36.4399 30.5469C36.43 31.738 37.0431 32.8995 38.1457 33.5321L49.7596 40.239C51.3912 41.178 53.4777 40.6195 54.422 38.9885C55.3664 37.3575 54.8027 35.2718 53.1711 34.3278L46.5953 30.5321L53.1711 26.7363C54.8077 25.7972 55.3664 23.7115 54.422 22.0805Z" fill="#29B5E8"/>
<path d="M232.889 29.7427V29.7477V29.8712C232.889 30.5039 232.359 30.9734 231.707 30.9734H215.391C215.421 31.3589 215.47 31.7345 215.549 32.1052C216.306 35.639 219.331 38.2684 222.926 38.2981C222.936 38.2981 223.119 38.2981 223.401 38.2981C223.445 38.2981 223.49 38.2981 223.534 38.2981H223.875C223.949 38.2981 224.024 38.2981 224.103 38.2931C224.172 38.2931 224.241 38.2882 224.31 38.2832C224.315 38.2832 224.32 38.2832 224.325 38.2783C225.517 38.1844 226.718 37.705 227.791 36.934C227.791 36.934 227.791 36.934 227.796 36.934C227.85 36.8944 227.91 36.8499 227.964 36.8055C227.974 36.8005 227.984 36.7906 227.999 36.7807C228.043 36.7461 228.093 36.7066 228.142 36.6671C228.162 36.6522 228.177 36.6374 228.196 36.6226C228.236 36.5929 228.276 36.5583 228.315 36.5237C228.34 36.504 228.369 36.4793 228.394 36.4595C228.424 36.4298 228.454 36.4002 228.488 36.3755C228.518 36.3458 228.552 36.3162 228.582 36.2865C228.607 36.2667 228.632 36.242 228.656 36.2173C228.696 36.1827 228.73 36.1481 228.77 36.1135C228.79 36.0937 228.81 36.069 228.829 36.0493C228.869 36.0097 228.908 35.9702 228.948 35.9306C228.968 35.9109 228.983 35.896 229.002 35.8763C229.042 35.8318 229.081 35.7873 229.121 35.7428C229.141 35.728 229.156 35.7082 229.17 35.6885C229.215 35.644 229.255 35.5995 229.294 35.555C229.309 35.5353 229.329 35.5155 229.344 35.4957C229.383 35.4463 229.418 35.4018 229.457 35.3573C229.477 35.3326 229.497 35.3079 229.517 35.2832C229.551 35.2387 229.586 35.1992 229.615 35.1596C229.645 35.1201 229.67 35.0855 229.695 35.0509C229.719 35.0163 229.744 34.9866 229.769 34.952C229.808 34.8977 229.848 34.8433 229.882 34.7889C229.897 34.7692 229.907 34.7543 229.917 34.7395C230.016 34.5962 230.11 34.4479 230.204 34.2947C230.204 34.2947 230.204 34.2898 230.209 34.2848C230.229 34.2502 230.253 34.2206 230.278 34.186C230.288 34.1711 230.298 34.1563 230.313 34.1464C230.327 34.1217 230.347 34.1069 230.362 34.0871C230.377 34.0723 230.392 34.0575 230.407 34.0426C230.426 34.0278 230.441 34.013 230.461 33.9982C230.476 33.9833 230.491 33.9685 230.51 33.9586C230.535 33.9388 230.565 33.9191 230.594 33.9043C230.614 33.8894 230.639 33.8746 230.659 33.8647C230.683 33.8548 230.703 33.8449 230.723 33.8351C230.743 33.8252 230.763 33.8202 230.777 33.8103C230.807 33.8005 230.832 33.7955 230.861 33.7856C230.876 33.7807 230.886 33.7757 230.901 33.7708C230.995 33.751 231.094 33.7362 231.188 33.7362C231.292 33.7362 231.4 33.751 231.499 33.7807C231.504 33.7807 231.504 33.7807 231.509 33.7807C231.549 33.7955 231.593 33.8054 231.633 33.8252C231.643 33.8301 231.652 33.8301 231.662 33.8351C231.707 33.8548 231.746 33.8746 231.786 33.8993L231.806 33.9092C232.35 34.3046 232.518 34.9965 232.186 35.5649L232.181 35.5698C232.142 35.6341 232.102 35.6984 232.063 35.7577C232.053 35.7725 232.043 35.7873 232.033 35.8021C230.876 37.5616 229.304 38.9653 227.549 39.8055C227.509 39.8203 227.475 39.8401 227.435 39.8599C227.43 39.8599 227.42 39.8648 227.415 39.8648C226.604 40.2404 225.734 40.5024 224.805 40.6111C224.785 40.6111 224.765 40.6161 224.745 40.6161C224.666 40.626 224.587 40.6358 224.508 40.6408C224.464 40.6408 224.419 40.6457 224.37 40.6507C224.315 40.6507 224.256 40.6556 224.202 40.6605C224.093 40.6605 223.984 40.6655 223.875 40.6655C223.86 40.6655 223.45 40.6655 223.173 40.6655C223.015 40.6655 222.926 40.6655 222.916 40.6655C217.428 40.626 213.008 36.0493 213.008 30.4446C213.008 24.7459 217.458 20.1445 222.99 20.1445C223.153 20.1445 223.317 20.1495 223.48 20.1544C225.408 20.2533 227.188 20.9106 228.666 21.9881C228.671 21.993 228.676 21.9979 228.681 21.9979C228.765 22.0573 228.844 22.1215 228.923 22.1808C228.963 22.2154 229.007 22.25 229.052 22.2846C229.091 22.3143 229.131 22.3489 229.17 22.3785C231.252 24.1133 232.656 26.718 232.889 29.7328V29.7427ZM215.549 28.6455H230.318C229.586 25.087 226.525 22.512 222.99 22.512C219.391 22.512 216.355 25.0375 215.549 28.6455Z" fill="#29B5E8"/>
<path d="M191.176 20.4905C191.359 20.6734 191.483 20.9205 191.512 21.2072C191.512 21.2467 191.517 21.2862 191.517 21.3258V39.4793C191.517 40.1268 190.973 40.6655 190.331 40.6655C189.688 40.6655 189.149 40.1268 189.149 39.4793V37.0674C188.699 37.6111 188.205 38.1053 187.666 38.5353C187.651 38.5501 187.636 38.56 187.621 38.5748C187.572 38.6144 187.517 38.6539 187.468 38.6885C185.836 39.9439 183.854 40.6655 181.782 40.6655C178.445 40.6655 175.508 38.8912 173.758 36.2025C173.743 36.1827 173.723 36.158 173.708 36.1382C173.659 36.0542 173.609 35.9702 173.555 35.8812C173.52 35.8269 173.491 35.7725 173.456 35.7181C173.421 35.6638 173.392 35.6044 173.362 35.5451C173.313 35.4611 173.263 35.3722 173.219 35.2881C173.204 35.2585 173.194 35.2288 173.179 35.1992C172.531 33.9141 172.131 32.466 172.062 30.9289C172.052 30.7559 172.047 30.5829 172.047 30.405C172.047 30.2271 172.052 30.0541 172.062 29.8811C172.131 28.344 172.531 26.8959 173.179 25.6059C173.194 25.5812 173.204 25.5515 173.219 25.5219C173.263 25.4379 173.313 25.3489 173.362 25.2649C173.392 25.2056 173.421 25.1463 173.456 25.0919C173.486 25.0375 173.52 24.9832 173.555 24.9288C173.604 24.8448 173.659 24.7558 173.708 24.6718C173.723 24.652 173.743 24.6273 173.758 24.6075C175.508 21.9189 178.445 20.1445 181.782 20.1445C184.037 20.1445 186.168 20.9699 187.863 22.4082C188.328 22.7986 188.758 23.2286 189.149 23.7031V21.3258C189.149 21.2862 189.149 21.2467 189.154 21.2072C189.184 20.9205 189.307 20.6734 189.49 20.4905C189.49 20.4905 189.49 20.4905 189.49 20.4856C189.51 20.4658 189.535 20.451 189.554 20.4312C189.559 20.4262 189.569 20.4164 189.574 20.4114C189.589 20.3966 189.609 20.3867 189.624 20.3768C189.638 20.3669 189.653 20.3521 189.668 20.3422C189.678 20.3373 189.688 20.3323 189.698 20.3225C189.722 20.3126 189.742 20.2977 189.767 20.2829C189.772 20.2829 189.777 20.278 189.782 20.278C189.811 20.2631 189.841 20.2483 189.871 20.2335C189.871 20.2335 189.871 20.2335 189.876 20.2335C189.945 20.2038 190.019 20.1841 190.093 20.1692C190.098 20.1692 190.108 20.1643 190.113 20.1643C190.143 20.1594 190.177 20.1544 190.212 20.1495C190.251 20.1495 190.291 20.1445 190.331 20.1445C190.375 20.1445 190.415 20.1495 190.454 20.1495C190.489 20.1544 190.518 20.1594 190.553 20.1643C190.558 20.1643 190.563 20.1692 190.573 20.1692C190.647 20.1841 190.721 20.2038 190.79 20.2335H190.795C190.825 20.2483 190.855 20.2631 190.879 20.278C190.889 20.278 190.894 20.2829 190.899 20.2829C190.919 20.2977 190.944 20.3126 190.963 20.3225C190.973 20.3323 190.988 20.3373 190.998 20.3422C191.013 20.3521 191.028 20.3669 191.043 20.3768C191.057 20.3867 191.072 20.3966 191.087 20.4114C191.097 20.4164 191.102 20.4262 191.112 20.4312C191.132 20.451 191.156 20.4658 191.171 20.4856C191.176 20.4905 191.176 20.4905 191.176 20.4905ZM181.782 38.2981C185.841 38.2981 189.149 34.7593 189.149 30.405C189.149 26.031 185.841 22.4724 181.782 22.4724C177.753 22.4724 174.415 26.026 174.415 30.405C174.415 30.5434 174.42 30.6768 174.425 30.8103C174.425 30.8696 174.435 30.924 174.435 30.9783C174.44 31.0574 174.445 31.1365 174.455 31.2106C174.46 31.2749 174.47 31.3342 174.474 31.3935C174.484 31.4627 174.489 31.5368 174.499 31.606C174.509 31.6604 174.519 31.7098 174.524 31.7592C174.539 31.8383 174.549 31.9174 174.563 31.9965C174.573 32.036 174.583 32.0706 174.588 32.1052C174.608 32.1991 174.628 32.2881 174.648 32.382C174.652 32.4018 174.657 32.4215 174.667 32.4413C175.508 35.8219 178.395 38.2981 181.782 38.2981Z" fill="#29B5E8"/>
<path d="M161.457 11.5859H161.136C161.096 11.5859 161.052 11.5859 161.012 11.5909C160.968 11.5859 160.928 11.5859 160.883 11.5859C160.77 11.5859 160.656 11.5859 160.542 11.5909C160.523 11.5909 160.498 11.5958 160.478 11.5958C160.389 11.5958 160.3 11.6008 160.211 11.6107C160.196 11.6107 160.176 11.6107 160.162 11.6107C160.068 11.6205 159.979 11.6255 159.89 11.6354C159.88 11.6403 159.87 11.6403 159.86 11.6403C159.761 11.6551 159.667 11.665 159.578 11.6798C159.573 11.6798 159.568 11.6798 159.568 11.6798C158.97 11.7738 158.431 11.9418 157.952 12.179C157.952 12.184 157.947 12.184 157.942 12.184C157.872 12.2235 157.798 12.2631 157.729 12.3026C157.714 12.3075 157.704 12.3174 157.69 12.3273C157.63 12.3619 157.571 12.3965 157.512 12.436C157.487 12.4509 157.467 12.4706 157.447 12.4855C157.398 12.5151 157.353 12.5497 157.304 12.5843C157.269 12.614 157.235 12.6436 157.2 12.6683C157.17 12.693 157.141 12.7178 157.111 12.7425C157.057 12.7919 157.007 12.8364 156.958 12.8858C156.948 12.8957 156.938 12.9056 156.928 12.9155C156.869 12.9797 156.809 13.039 156.75 13.1033C156.74 13.1181 156.73 13.1329 156.72 13.1428C156.671 13.1972 156.622 13.2515 156.577 13.3059C156.562 13.3306 156.542 13.3553 156.528 13.38C156.488 13.4295 156.453 13.4739 156.419 13.5234C156.409 13.5431 156.399 13.558 156.384 13.5728C156.345 13.6321 156.305 13.6914 156.271 13.7507C156.266 13.7606 156.261 13.7655 156.256 13.7754C155.934 14.3043 155.707 14.927 155.564 15.6783C155.564 15.6882 155.564 15.703 155.559 15.7129C155.539 15.8068 155.524 15.9056 155.509 16.0045C155.504 16.0341 155.499 16.0638 155.499 16.0934C155.484 16.1775 155.475 16.2615 155.465 16.3504C155.46 16.3999 155.455 16.4493 155.45 16.5037C155.44 16.5728 155.43 16.6371 155.425 16.7112C155.42 16.7854 155.415 16.8595 155.41 16.9386C155.405 16.988 155.405 17.0374 155.4 17.0918C155.395 17.1956 155.39 17.3043 155.386 17.4131C155.386 17.4427 155.381 17.4625 155.381 17.4872C155.376 17.6256 155.376 17.7689 155.376 17.9073V19.8596H152.913C152.76 19.8546 152.607 19.8843 152.468 19.9337C152.023 20.0968 151.707 20.5169 151.707 21.0062C151.707 21.4658 151.934 21.8563 152.29 22.0837C152.468 22.1973 152.676 22.2665 152.904 22.2764H152.913V22.2814H155.376V39.5205C155.371 39.5452 155.376 39.565 155.376 39.5897C155.376 39.6046 155.376 39.6194 155.376 39.6342C155.39 39.911 155.504 40.1631 155.687 40.3558L155.692 40.3608C155.717 40.3855 155.746 40.4102 155.771 40.4349C155.776 40.4398 155.781 40.4398 155.786 40.4448C155.806 40.4645 155.831 40.4794 155.85 40.4942C155.86 40.5041 155.875 40.514 155.885 40.5189C155.895 40.5288 155.905 40.5337 155.92 40.5387C156.112 40.6622 156.34 40.7314 156.582 40.7314C156.622 40.7314 156.661 40.7265 156.696 40.7215C156.928 40.7018 157.141 40.6029 157.314 40.4596L157.319 40.4547C157.343 40.4349 157.363 40.4151 157.383 40.3904C157.388 40.3855 157.398 40.3805 157.403 40.3756C157.423 40.3558 157.437 40.336 157.452 40.3212C157.64 40.0939 157.744 39.8121 157.729 39.5205V22.2814H160.379V22.2764H160.389C161.091 22.2418 161.605 21.6932 161.586 21.0111C161.586 21.0062 161.586 21.0062 161.586 21.0013C161.591 20.9765 161.586 20.9518 161.586 20.9271C161.586 20.9172 161.586 20.9074 161.586 20.9024C161.566 20.6405 161.452 20.4032 161.274 20.2204C161.274 20.2204 161.274 20.2204 161.274 20.2154C161.269 20.2154 161.269 20.2154 161.269 20.2154C161.244 20.1907 161.225 20.1709 161.2 20.1512C161.19 20.1413 161.18 20.1363 161.175 20.1265C161.155 20.1116 161.141 20.1017 161.121 20.0869C161.106 20.077 161.086 20.0622 161.071 20.0523C161.061 20.0474 161.047 20.0375 161.037 20.0325C161.012 20.0177 160.987 20.0029 160.963 19.993C160.958 19.9881 160.948 19.9831 160.943 19.9831C160.913 19.9683 160.884 19.9535 160.854 19.9436C160.849 19.9386 160.844 19.9386 160.834 19.9337C160.804 19.9238 160.775 19.9139 160.745 19.904C160.735 19.904 160.725 19.8991 160.715 19.8991C160.686 19.8942 160.661 19.8843 160.631 19.8793C160.617 19.8793 160.602 19.8793 160.587 19.8744C160.567 19.8694 160.542 19.8694 160.518 19.8645C160.498 19.8645 160.478 19.8645 160.463 19.8645C160.448 19.8645 160.434 19.8596 160.419 19.8596C160.404 19.8596 160.384 19.8596 160.379 19.8596H157.729V17.9122C157.729 17.8974 157.729 17.8826 157.729 17.8727C157.734 17.7739 157.734 17.675 157.739 17.5811C157.739 17.5564 157.739 17.5267 157.744 17.502C157.744 17.418 157.749 17.334 157.754 17.2549C157.754 17.2401 157.759 17.2203 157.759 17.2055C157.764 17.1116 157.774 17.0177 157.783 16.9287C157.877 15.9649 158.085 15.357 158.303 14.9863C158.308 14.9764 158.308 14.9715 158.313 14.9616C158.327 14.9369 158.347 14.9122 158.362 14.8875C158.372 14.8677 158.387 14.8479 158.402 14.8282C158.406 14.8183 158.416 14.7985 158.426 14.7886C158.451 14.754 158.476 14.7244 158.505 14.6947C158.817 14.3438 159.301 14.1313 160.003 14.0473C160.013 14.0473 160.018 14.0423 160.033 14.0423C160.073 14.0374 160.117 14.0324 160.157 14.0324C160.176 14.0275 160.201 14.0275 160.221 14.0226C160.261 14.0226 160.295 14.0176 160.335 14.0176C160.364 14.0176 160.389 14.0127 160.424 14.0127C160.458 14.0077 160.493 14.0077 160.528 14.0077C160.562 14.0077 160.597 14.0028 160.631 14.0028C160.666 14.0028 160.701 14.0028 160.735 14.0028C160.785 14.0028 160.834 14.0028 160.883 14.0028H160.888C160.928 14.0028 160.963 13.9978 161.002 13.9929C161.047 13.9978 161.091 14.0028 161.136 14.0028H161.457C162.12 14.0028 162.663 13.4591 162.663 12.7919C162.663 12.1247 162.12 11.5859 161.457 11.5859Z" fill="#29B5E8"/>
<path d="M167.833 11.6184C167.833 11.6184 167.828 11.6134 167.823 11.6134C167.799 11.6036 167.779 11.5937 167.749 11.5887C167.739 11.5838 167.724 11.5788 167.71 11.5739C167.69 11.569 167.67 11.564 167.65 11.5591C167.631 11.5541 167.611 11.5442 167.596 11.5442C167.571 11.5393 167.551 11.5344 167.527 11.5344C167.507 11.5294 167.492 11.5294 167.472 11.5245C167.433 11.5195 167.388 11.5195 167.349 11.5195C166.706 11.5195 166.162 12.0583 166.162 12.7008V39.4788C166.162 40.1263 166.706 40.665 167.349 40.665C167.388 40.665 167.433 40.665 167.472 40.6601C167.477 40.6601 167.487 40.6551 167.492 40.6551C167.527 40.6502 167.561 40.6453 167.596 40.6403C167.601 40.6403 167.611 40.6354 167.621 40.6354C167.65 40.6255 167.68 40.6205 167.71 40.6107C167.715 40.6107 167.72 40.6107 167.724 40.6057C168.179 40.4624 168.516 40.0769 168.565 39.6024C168.57 39.5629 168.575 39.5233 168.575 39.4788V12.7008C168.575 12.6612 168.57 12.6217 168.565 12.5822C168.521 12.1472 168.234 11.7864 167.833 11.6184Z" fill="#29B5E8"/>
<path d="M77.0517 34.3639C77.0419 34.2947 77.0419 34.2305 77.032 34.1662C77.027 34.1168 77.0221 34.0723 77.0171 34.0278C77.0072 33.9734 77.0023 33.924 76.9924 33.8697C76.9825 33.8202 76.9726 33.7708 76.9627 33.7164C76.9578 33.6769 76.9479 33.6324 76.938 33.5929C76.9232 33.5336 76.9133 33.4792 76.8985 33.4199C76.8886 33.3902 76.8787 33.3556 76.8688 33.326C76.854 33.2617 76.8342 33.2024 76.8095 33.1431C76.8045 33.1184 76.7946 33.0937 76.7897 33.0739C76.765 33.0047 76.7403 32.9405 76.7106 32.8713C76.7056 32.8614 76.7007 32.8466 76.6958 32.8317C76.6611 32.7626 76.6315 32.6884 76.5969 32.6192C76.5919 32.6143 76.5919 32.6093 76.587 32.6044C76.3052 32.036 75.9047 31.5615 75.4152 31.1612C75.4152 31.1563 75.4152 31.1563 75.4103 31.1563C75.341 31.1019 75.2718 31.0426 75.1977 30.9882C75.1977 30.9882 75.1927 30.9833 75.1878 30.9783C75.1828 30.9783 75.1779 30.9734 75.1729 30.9684C75.1284 30.9388 75.0839 30.9042 75.0444 30.8745C74.4362 30.4446 73.7638 30.1035 72.7849 29.7279C72.77 29.723 72.7552 29.718 72.7404 29.7131C72.7255 29.7032 72.7058 29.6982 72.6909 29.6884C72.1372 29.4808 71.5637 29.2831 70.9753 29.0903C70.9753 29.0903 70.9753 29.0903 70.9703 29.0903C70.9703 29.0903 70.9654 29.0903 70.9654 29.0854C70.9555 29.0854 70.9456 29.0804 70.9308 29.0755C70.8764 29.0557 70.8171 29.036 70.738 29.0112C70.6984 29.0014 70.6688 28.9915 70.6391 28.9816C70.4413 28.9124 70.2386 28.8481 70.0359 28.779C69.8925 28.7295 69.7392 28.6801 69.5563 28.6208C69.5069 28.606 69.3882 28.5664 69.2893 28.5368C69.2844 28.5368 69.2844 28.5318 69.2794 28.5318C69.2201 28.5121 69.1608 28.4923 69.0965 28.4725C68.6021 28.3144 68.1966 28.176 67.8506 28.0475C67.2869 27.8399 66.7727 27.6175 66.3524 27.3506C66.3426 27.3456 66.3327 27.3407 66.3277 27.3358C65.7542 26.97 65.3587 26.5203 65.2647 25.9321L65.2598 25.9272C65.2548 25.8876 65.2499 25.8432 65.2499 25.8036C65.2449 25.7937 65.2449 25.7888 65.2449 25.7838C65.24 25.7344 65.24 25.6899 65.24 25.6405C65.24 25.5713 65.2449 25.5021 65.2499 25.4379C65.2499 25.4181 65.2499 25.4033 65.2548 25.3884C65.2598 25.3341 65.2647 25.2847 65.2697 25.2352C65.2746 25.2204 65.2746 25.2056 65.2796 25.1908C65.2894 25.1364 65.2993 25.087 65.3092 25.0326C65.3142 25.0277 65.3142 25.0178 65.3191 25.0079C65.3339 24.9486 65.3488 24.8942 65.3685 24.8398C65.3685 24.8349 65.3685 24.8349 65.3685 24.8349C65.6256 24.0688 66.2338 23.5004 66.9507 23.1001C67.0001 23.0754 67.0496 23.0507 67.0941 23.026C67.1435 23.0013 67.188 22.9765 67.2325 22.9568C67.3067 22.9222 67.3809 22.8876 67.455 22.8579C67.4995 22.8382 67.5391 22.8184 67.5836 22.8036C67.6627 22.7739 67.7418 22.7442 67.8209 22.7146C67.8604 22.6998 67.9049 22.6849 67.9494 22.6701C68.0285 22.6454 68.1027 22.6207 68.1818 22.6009C68.2313 22.5861 68.2758 22.5713 68.3252 22.5614C68.3994 22.5416 68.4735 22.5268 68.5427 22.507C68.5922 22.4971 68.6416 22.4872 68.6911 22.4774C68.7702 22.4625 68.8443 22.4477 68.9136 22.4378C68.9581 22.4329 68.9976 22.4279 69.0421 22.418C69.1262 22.4082 69.2152 22.3983 69.3041 22.3933C69.3239 22.3884 69.3437 22.3884 69.3684 22.3834C69.4772 22.3785 69.586 22.3736 69.6898 22.3736C69.8134 22.3736 69.937 22.3785 70.0557 22.3834C70.0754 22.3834 70.0952 22.3834 70.1101 22.3834C70.9852 22.4378 71.6922 22.6503 72.2756 22.9321C72.3201 22.9518 72.3646 22.9765 72.4091 22.9963C72.4338 23.0111 72.4586 23.026 72.4833 23.0359C72.5377 23.0655 72.5921 23.0952 72.6514 23.1298C72.6613 23.1347 72.6712 23.1396 72.681 23.1446C72.7404 23.1792 72.7997 23.2187 72.859 23.2533C72.864 23.2583 72.8689 23.2583 72.8689 23.2583C72.9332 23.2978 72.9975 23.3423 73.0618 23.3818C73.0618 23.3868 73.0667 23.3868 73.0667 23.3917C73.131 23.4312 73.1903 23.4708 73.2496 23.5153C73.2744 23.535 73.2941 23.5499 73.3189 23.5647C73.4573 23.6685 73.6748 23.8365 73.8726 23.9996C73.8973 24.0145 73.9171 24.0293 73.9319 24.0441C74.0803 24.1677 74.2187 24.2764 74.3522 24.3752C74.3769 24.395 74.3967 24.4098 74.4115 24.4197C74.4165 24.4247 74.4214 24.4296 74.4264 24.4296C74.4412 24.4395 74.456 24.4494 74.4709 24.4593C74.5055 24.484 74.545 24.5087 74.5796 24.5334C74.5945 24.5433 74.6093 24.5482 74.6241 24.5581C74.6587 24.5779 74.6933 24.5977 74.728 24.6174C74.7428 24.6224 74.7527 24.6273 74.7675 24.6323C74.8071 24.652 74.8417 24.6669 74.8812 24.6817C74.8911 24.6866 74.8961 24.6866 74.906 24.6916C74.9504 24.7064 74.9949 24.7212 75.0394 24.7262C75.0394 24.7262 75.0394 24.7262 75.0444 24.7311C75.1433 24.7459 75.2372 24.7509 75.3361 24.7262C75.346 24.7262 75.3559 24.7212 75.3658 24.7212C75.3905 24.7163 75.4202 24.7064 75.4449 24.7014C75.4548 24.6965 75.4597 24.6916 75.4696 24.6866C75.4795 24.6866 75.4894 24.6817 75.4993 24.6767C75.5388 24.657 75.5784 24.6372 75.6179 24.6125C75.6278 24.6125 75.6327 24.6075 75.6377 24.6026C75.6822 24.5729 75.7217 24.5433 75.7613 24.5087C75.7662 24.5038 75.7662 24.5038 75.7662 24.5038C75.8009 24.4741 75.8305 24.4395 75.8602 24.4049C75.88 24.3802 75.8997 24.3505 75.9146 24.3209C75.9195 24.3159 75.9245 24.311 75.9245 24.3061C76.1321 23.9601 76.0135 23.5054 75.6476 23.0111C75.6426 23.0013 75.6377 22.9914 75.6278 22.9815C75.613 22.9617 75.6031 22.9469 75.5882 22.9271C74.7477 21.8398 72.8343 20.6487 71.0593 20.2681C71.0495 20.2681 71.0396 20.2681 71.0297 20.2631C70.9555 20.2483 70.8764 20.2335 70.8022 20.2187C70.7825 20.2187 70.7578 20.2137 70.738 20.2088C70.6737 20.1989 70.6094 20.189 70.5451 20.1841C70.5204 20.1791 70.4957 20.1742 70.471 20.1742C70.4117 20.1692 70.3474 20.1643 70.288 20.1594C70.2633 20.1544 70.2386 20.1544 70.2188 20.1495C70.1348 20.1495 70.0557 20.1445 69.9766 20.1445C69.848 20.1445 69.7195 20.1445 69.5959 20.1495C69.5266 20.1495 69.4574 20.1544 69.3833 20.1594C69.3338 20.1643 69.2745 20.1643 69.225 20.1643C69.1262 20.1742 69.0322 20.1791 68.9383 20.189C68.9136 20.189 68.8839 20.189 68.8592 20.194C68.7504 20.2038 68.6416 20.2137 68.5378 20.2286C68.523 20.2286 68.5131 20.2286 68.5032 20.2286C68.3895 20.2434 68.2807 20.2582 68.1719 20.278C68.167 20.278 68.1571 20.278 68.1521 20.278C68.0434 20.2928 67.9346 20.3126 67.8308 20.3323C67.8258 20.3323 67.8209 20.3373 67.811 20.3373C67.5885 20.3768 67.371 20.4263 67.1633 20.4806C67.1584 20.4806 67.1584 20.4856 67.1584 20.4856C67.0545 20.5103 66.9507 20.5399 66.8469 20.5696C66.748 20.5992 66.6541 20.6338 66.5651 20.6635C66.5552 20.6635 66.5502 20.6684 66.5403 20.6684C66.4513 20.703 66.3623 20.7327 66.2733 20.7673C66.2635 20.7722 66.2536 20.7772 66.2486 20.7772C66.1596 20.8118 66.0805 20.8464 65.9965 20.8859C65.9866 20.8908 65.9717 20.8908 65.9619 20.9007C65.8877 20.9304 65.8086 20.9699 65.7394 21.0045C65.7196 21.0144 65.7048 21.0193 65.6899 21.0292C65.6158 21.0638 65.5465 21.0984 65.4773 21.138C65.4576 21.1478 65.4427 21.1577 65.4229 21.1676C65.3587 21.2022 65.2944 21.2418 65.2301 21.2813C65.2103 21.2912 65.1906 21.3011 65.1708 21.3159C65.0867 21.3653 65.0076 21.4197 64.9285 21.4691C64.8346 21.5383 64.7406 21.6025 64.6566 21.6717C64.6467 21.6717 64.6417 21.6767 64.6417 21.6816C64.2215 21.993 63.8606 22.3241 63.5639 22.7097C63.554 22.7245 63.5392 22.7393 63.5293 22.7541C63.4947 22.8085 63.4551 22.8579 63.4205 22.9073C63.3958 22.9469 63.3711 22.9864 63.3464 23.026C63.3266 23.0556 63.3068 23.0853 63.292 23.1149C63.2524 23.1792 63.2178 23.2434 63.1832 23.3126C63.1783 23.3225 63.1733 23.3275 63.1684 23.3373C62.9014 23.8662 62.7481 24.4741 62.6888 25.2105C62.6888 25.2204 62.6888 25.2303 62.6838 25.2402C62.6789 25.3687 62.669 25.4972 62.6641 25.6356C62.6641 25.7394 62.6641 25.8432 62.669 25.9469C62.669 25.9618 62.669 25.9766 62.669 25.9914C62.7234 27.405 63.3661 28.4676 64.528 29.293C64.5379 29.2979 64.5478 29.3078 64.5577 29.3127C64.6071 29.3473 64.6566 29.3819 64.706 29.4165C64.7406 29.4412 64.7802 29.461 64.8148 29.4857C64.8247 29.4956 64.8395 29.5005 64.8494 29.5055C65.9965 30.232 67.4006 30.6472 68.5724 30.9783C69.1459 31.1464 69.6601 31.2897 69.8134 31.3342C69.848 31.3441 69.8826 31.354 69.9123 31.3688C70.6144 31.6011 71.1533 31.7889 71.5983 31.9668C71.6329 31.9767 71.6625 31.9915 71.6971 32.0014C71.707 32.0064 71.7219 32.0113 71.7367 32.0212C71.9889 32.125 72.2361 32.2337 72.4734 32.3523C72.6712 32.4512 72.8541 32.555 73.037 32.6637C73.5067 32.9553 73.8677 33.2716 74.1099 33.6176C74.1198 33.6275 74.1248 33.6374 74.1297 33.6472C74.1544 33.6769 74.1742 33.7066 74.189 33.7411C74.2039 33.7609 74.2138 33.7757 74.2236 33.7955C74.2385 33.8202 74.2533 33.8449 74.2632 33.8697C74.278 33.8944 74.2879 33.924 74.3028 33.9487C74.3126 33.9685 74.3225 33.9883 74.3324 34.008C74.3423 34.0377 74.3571 34.0674 74.367 34.1019C74.372 34.1168 74.3819 34.1365 74.3868 34.1563C74.3967 34.1909 74.4066 34.2255 74.4165 34.2601C74.4214 34.2749 74.4264 34.2898 74.4313 34.3095C74.4412 34.3441 74.4511 34.3837 74.456 34.4183C74.461 34.4331 74.4659 34.4529 74.4659 34.4677C74.4709 34.5072 74.4758 34.5468 74.4807 34.5863C74.4857 34.6011 74.4857 34.616 74.4857 34.6308C74.4906 34.6901 74.4956 34.7445 74.4956 34.8038C74.4956 34.8927 74.4906 34.9768 74.4857 35.0608C74.4857 35.0855 74.4807 35.1102 74.4807 35.1349C74.4758 35.1992 74.4659 35.2634 74.4511 35.3277C74.4511 35.3474 74.4461 35.3672 74.4412 35.387C74.4115 35.56 74.3621 35.7231 74.2978 35.8862C74.2929 35.8911 74.2929 35.896 74.2929 35.901C74.2583 35.9751 74.2236 36.0542 74.1841 36.1234C74.1791 36.1333 74.1791 36.1382 74.1742 36.1432C74.0902 36.3013 73.9913 36.4545 73.8677 36.5979C73.8083 36.672 73.7441 36.7412 73.6798 36.8104C73.6748 36.8104 73.6748 36.8104 73.6748 36.8153C73.5413 36.9488 73.393 37.0723 73.2397 37.186C73.2348 37.191 73.2299 37.191 73.2299 37.1959C73.1557 37.2453 73.0815 37.2997 73.0074 37.3442C72.9975 37.3541 72.9876 37.359 72.9777 37.364C72.8492 37.443 72.7107 37.5221 72.5723 37.5913C72.5228 37.616 72.4734 37.6407 72.419 37.6654C72.3646 37.6901 72.3053 37.7198 72.246 37.7445C72.1965 37.7643 72.152 37.7841 72.1026 37.8038C71.9691 37.8533 71.8405 37.9027 71.707 37.9472C71.6873 37.9521 71.6675 37.957 71.6477 37.9669C71.5686 37.9916 71.4895 38.0114 71.4104 38.0361C71.3906 38.0411 71.3659 38.0509 71.3461 38.0559C71.0841 38.1251 70.827 38.1795 70.5847 38.219C70.5798 38.219 70.5748 38.219 70.5699 38.219C70.4463 38.2388 70.3276 38.2536 70.2139 38.2684C70.1694 38.2734 70.1298 38.2783 70.0853 38.2783C70.0458 38.2832 70.0062 38.2832 69.9617 38.2882C69.8678 38.2931 69.7689 38.2981 69.6799 38.2981C69.497 38.2981 69.319 38.2931 69.1459 38.2832C69.0767 38.2832 69.0075 38.2783 68.9383 38.2734C68.8443 38.2635 68.7455 38.2585 68.6565 38.2486C68.5724 38.2437 68.4834 38.2338 68.4043 38.2239C68.3301 38.214 68.2609 38.2042 68.1917 38.1943C68.0384 38.1696 67.8951 38.1498 67.7517 38.1201C67.6874 38.1053 67.6182 38.0954 67.5539 38.0806C67.4797 38.0608 67.4056 38.046 67.3314 38.0262C67.2474 38.0065 67.1682 37.9867 67.0891 37.962C67.0348 37.9472 66.9754 37.9323 66.926 37.9175C66.7925 37.878 66.659 37.8335 66.5304 37.7841C66.5008 37.7742 66.4711 37.7643 66.4415 37.7544C66.1547 37.6457 65.8729 37.527 65.596 37.3887C65.5861 37.3837 65.5713 37.3738 65.5564 37.3689C65.3784 37.2799 65.0768 37.1119 64.7901 36.9488C64.7654 36.934 64.7357 36.9191 64.711 36.9043C64.5083 36.7857 64.3352 36.6868 64.1721 36.6078C64.1572 36.5979 64.1473 36.5929 64.1374 36.588C64.1276 36.583 64.1177 36.5781 64.1127 36.5781C64.0682 36.5583 64.0336 36.5386 63.9941 36.5237C63.9792 36.5188 63.9693 36.5139 63.9594 36.5089C63.8556 36.4694 63.7617 36.4397 63.6677 36.4298C63.6381 36.4249 63.6084 36.4249 63.5787 36.4249C63.5689 36.4199 63.559 36.4199 63.5491 36.4199C63.3612 36.4199 63.198 36.4842 63.0448 36.6275C63.0102 36.6572 62.9805 36.6868 62.9508 36.7214C62.9459 36.7313 62.936 36.7412 62.9261 36.7511C62.9063 36.7758 62.8915 36.7956 62.8767 36.8153C62.8668 36.8302 62.8569 36.845 62.8519 36.8549C62.8371 36.8747 62.8223 36.8944 62.8124 36.9142C62.8025 36.929 62.7976 36.9438 62.7926 36.9587C62.7827 36.9784 62.7728 36.9982 62.763 37.018C62.758 37.0328 62.7531 37.0427 62.7481 37.0575C62.7382 37.0822 62.7333 37.102 62.7283 37.1218C62.7234 37.1366 62.7184 37.1465 62.7184 37.1613C62.7135 37.186 62.7086 37.2107 62.7036 37.2354C62.7036 37.2453 62.6987 37.2552 62.6987 37.2651C62.6937 37.2997 62.6937 37.3294 62.6937 37.359C62.6937 37.3639 62.6937 37.3689 62.6937 37.3738C62.6937 37.4134 62.6987 37.448 62.7086 37.4875C62.7086 37.4925 62.7086 37.5023 62.7086 37.5073C62.7185 37.5369 62.7234 37.5715 62.7333 37.6012C62.7382 37.616 62.7432 37.6308 62.7481 37.6457C62.758 37.6704 62.7629 37.7 62.7778 37.7247C62.7827 37.7396 62.7877 37.7495 62.7926 37.7593C62.8569 37.9076 62.9607 38.0608 63.0942 38.2091C63.2376 38.3673 63.4205 38.5254 63.6331 38.6885C63.6381 38.6885 63.6381 38.6885 63.6381 38.6935C63.6974 38.733 63.7567 38.7775 63.821 38.822C63.8358 38.8319 63.8457 38.8417 63.8606 38.8467C64.0336 38.9653 64.2166 39.079 64.4242 39.1976C64.4737 39.2272 64.5231 39.2569 64.5725 39.2816C64.622 39.3113 64.6714 39.336 64.7209 39.3607C64.7802 39.3953 64.8494 39.4299 64.9137 39.4645C64.9582 39.4843 64.9977 39.509 65.0422 39.5287C65.1411 39.5782 65.2449 39.6276 65.3488 39.677C65.3636 39.6869 65.3735 39.6918 65.3883 39.6968C65.502 39.7511 65.6158 39.8006 65.7295 39.845C65.7789 39.8648 65.8234 39.8846 65.8729 39.9044C65.8828 39.9093 65.8926 39.9142 65.9025 39.9142C66.9606 40.3294 68.2659 40.6062 69.4179 40.6556C69.5019 40.6605 69.5909 40.6655 69.675 40.6655H69.6799C69.7195 40.6655 69.7541 40.6655 69.7936 40.6605C69.8826 40.6605 69.9716 40.6605 70.0606 40.6605C70.0705 40.6605 70.0804 40.6605 70.0903 40.6556C71.9641 40.5963 73.5018 40.1119 74.812 39.1531C74.812 39.1482 74.812 39.1482 74.812 39.1482C76.2656 38.0509 77.0666 36.504 77.0666 34.7988C77.0666 34.6901 77.0616 34.5814 77.0567 34.4776C77.0567 34.438 77.0517 34.3985 77.0517 34.3639Z" fill="#29B5E8"/>
<path d="M89.1406 20.1836C89.1356 20.1836 89.1307 20.1836 89.1258 20.1836C86.8218 20.1836 84.6463 21.1227 83.074 22.7833V21.3698C83.074 20.7174 82.5697 20.1836 81.9319 20.1836C81.8874 20.1836 81.8479 20.1885 81.8083 20.1885C81.5265 20.2182 81.2793 20.3418 81.0963 20.5246C81.0914 20.5246 81.0914 20.5246 81.0865 20.5296C81.0716 20.5493 81.0518 20.5691 81.037 20.5889C81.0271 20.5938 81.0172 20.6037 81.0123 20.6136C80.9975 20.6284 80.9876 20.6432 80.9777 20.6581C80.9678 20.6729 80.9579 20.6877 80.9431 20.7025C80.9381 20.7124 80.9332 20.7223 80.9282 20.7322C80.9134 20.7569 80.8986 20.7816 80.8837 20.8014C80.8837 20.8063 80.8837 20.8113 80.8788 20.8162C80.864 20.8459 80.8491 20.8755 80.8343 20.9052C80.8096 20.9793 80.7849 21.0535 80.77 21.1276C80.77 21.1325 80.77 21.1375 80.7651 21.1375C80.7601 21.177 80.7552 21.2116 80.7502 21.2462C80.7502 21.2858 80.7453 21.3253 80.7453 21.3698V39.726L80.7305 39.805L80.7898 39.8545C80.7898 39.8792 80.7947 39.9138 80.8096 39.9484C80.8096 39.9533 80.8145 39.9632 80.8145 39.9681C80.8244 39.9928 80.8392 40.0225 80.864 40.0472C81.0172 40.3388 81.2991 40.5612 81.6303 40.6601L81.655 40.665H81.9319C81.9764 40.665 82.0209 40.665 82.0654 40.6601C82.0951 40.6551 82.1247 40.6452 82.1544 40.6403C82.1692 40.6403 82.1791 40.6403 82.194 40.6354C82.2335 40.6255 82.2731 40.6156 82.3126 40.6008C82.3126 40.6008 82.3126 40.6008 82.3176 40.6008C82.5252 40.5266 82.7032 40.3981 82.8219 40.2251C82.8268 40.2202 82.8318 40.2153 82.8367 40.2103C82.9158 40.1263 82.9603 40.0373 83.0048 39.9138C83.0098 39.8989 83.0147 39.8891 83.0147 39.8792C83.0196 39.8742 83.0196 39.8742 83.0196 39.8693C83.0394 39.81 83.0543 39.7507 83.0691 39.6914L83.074 39.6716V28.561C83.1531 25.2496 85.8626 22.556 89.1159 22.551C89.1208 22.551 89.1208 22.551 89.1258 22.551C92.4384 22.551 95.133 25.2446 95.133 28.5561V39.4788C95.133 39.5233 95.1379 39.5629 95.1429 39.6024C95.1676 39.8891 95.2912 40.1362 95.4741 40.319C95.4741 40.319 95.4791 40.319 95.4791 40.324C95.4989 40.3438 95.5186 40.3586 95.5384 40.3784C95.5483 40.3882 95.5532 40.3932 95.5631 40.3981C95.578 40.4129 95.5928 40.4228 95.6076 40.4327C95.6225 40.4475 95.6373 40.4574 95.6521 40.4673C95.667 40.4723 95.6768 40.4772 95.6867 40.4871C95.7065 40.5019 95.7312 40.5118 95.751 40.5266C95.756 40.5266 95.7609 40.5316 95.7708 40.5316C95.7955 40.5464 95.8252 40.5612 95.8548 40.576H95.8598C95.929 40.6057 96.0032 40.6255 96.0773 40.6403C96.0872 40.6403 96.0922 40.6452 96.0971 40.6452C96.1317 40.6502 96.1614 40.6551 96.196 40.6601C96.2355 40.665 96.2751 40.665 96.3196 40.665C96.3591 40.665 96.3987 40.665 96.4383 40.6601C96.4729 40.6551 96.5075 40.6502 96.5371 40.6452C96.5421 40.6452 96.552 40.6403 96.5569 40.6403C96.636 40.6255 96.7052 40.6057 96.7794 40.576C96.8091 40.5612 96.8387 40.5464 96.8684 40.5316C96.8733 40.5316 96.8783 40.5266 96.8832 40.5266C96.908 40.5118 96.9277 40.5019 96.9525 40.4871C96.9623 40.4772 96.9722 40.4723 96.9821 40.4673C96.997 40.4574 97.0118 40.4475 97.0266 40.4327C97.0415 40.4228 97.0612 40.4129 97.0761 40.3981C97.081 40.3932 97.0909 40.3882 97.0958 40.3784C97.1156 40.3586 97.1403 40.3438 97.1601 40.324C97.1601 40.319 97.1601 40.319 97.1601 40.319C97.348 40.1362 97.4716 39.8891 97.4963 39.6024C97.5013 39.5629 97.5013 39.5233 97.5013 39.4788V28.5561C97.5013 23.9448 93.7535 20.1935 89.1406 20.1836Z" fill="#29B5E8"/>
<path d="M110.471 20.1445C115.841 20.1445 120.207 24.7459 120.207 30.405C120.207 36.0641 115.841 40.6655 110.471 40.6655C110.303 40.6655 110.14 40.6605 109.977 40.6507C109.952 40.6507 109.933 40.6507 109.908 40.6457C109.764 40.6408 109.621 40.626 109.483 40.6111C109.478 40.6111 109.473 40.6111 109.468 40.6111C107.347 40.3788 105.364 39.4101 103.787 37.8236C103.723 37.7593 103.653 37.6951 103.594 37.6259C103.589 37.6259 103.589 37.621 103.584 37.621C103.55 37.5864 103.52 37.5468 103.485 37.5073C103.411 37.4282 103.337 37.3442 103.263 37.2602C103.203 37.1959 103.149 37.1218 103.09 37.0526C103.05 36.9982 103.006 36.9438 102.961 36.8895C102.872 36.7807 102.788 36.6671 102.709 36.5534C102.699 36.5386 102.689 36.5237 102.679 36.5089C101.715 35.1596 101.087 33.6028 100.85 31.952C100.825 31.7988 100.81 31.6456 100.796 31.4923C100.791 31.4775 100.791 31.4578 100.786 31.438C100.771 31.2946 100.761 31.1563 100.756 31.0129C100.751 30.9833 100.751 30.9536 100.751 30.919C100.741 30.751 100.736 30.578 100.736 30.405C100.736 30.232 100.741 30.059 100.751 29.891C100.751 29.8564 100.751 29.8267 100.756 29.7971C100.761 29.6538 100.771 29.5104 100.786 29.372C100.791 29.3523 100.791 29.3325 100.796 29.3177C100.81 29.1645 100.825 29.0112 100.85 28.858C101.087 27.2073 101.715 25.6504 102.679 24.3011C102.684 24.2863 102.694 24.2715 102.704 24.2616C102.788 24.143 102.872 24.0293 102.961 23.9156C103.001 23.8662 103.045 23.8168 103.085 23.7624C103.144 23.6883 103.203 23.6191 103.263 23.5449C103.332 23.4658 103.401 23.3917 103.475 23.3126C103.51 23.2731 103.55 23.2286 103.584 23.1891C103.589 23.1891 103.589 23.1841 103.594 23.1841C103.648 23.1199 103.713 23.0606 103.772 23.0013C105.349 21.4098 107.337 20.4312 109.468 20.1989C109.473 20.1989 109.478 20.1989 109.483 20.1989C109.621 20.1841 109.764 20.1742 109.908 20.1643C109.933 20.1643 109.952 20.1594 109.977 20.1594C110.14 20.1495 110.303 20.1445 110.471 20.1445ZM117.799 29.5994C117.799 29.5945 117.799 29.5945 117.799 29.5895C117.626 27.8102 116.894 26.2039 115.801 24.9634C115.752 24.909 115.707 24.8547 115.658 24.8003C115.628 24.7706 115.599 24.741 115.569 24.7113C115.51 24.652 115.455 24.5927 115.396 24.5334C115.342 24.479 115.282 24.4296 115.228 24.3802C115.193 24.3505 115.164 24.3159 115.129 24.2863C115.04 24.2072 114.951 24.1331 114.862 24.0589C114.862 24.0589 114.857 24.0589 114.857 24.054C113.824 23.2187 112.583 22.6701 111.248 22.5169C111.233 22.5169 111.223 22.512 111.213 22.512C111.109 22.4971 111.01 22.4922 110.907 22.4872C110.882 22.4823 110.862 22.4823 110.842 22.4823C110.719 22.4724 110.595 22.4724 110.471 22.4724C110.348 22.4724 110.224 22.4724 110.101 22.4823C110.081 22.4823 110.061 22.4823 110.036 22.4872C109.933 22.4922 109.834 22.4971 109.73 22.512C109.72 22.512 109.71 22.5169 109.695 22.5169C108.36 22.6701 107.119 23.2187 106.086 24.054C106.086 24.0589 106.081 24.0589 106.081 24.0589C105.992 24.1331 105.903 24.2072 105.814 24.2863C105.779 24.3159 105.75 24.3456 105.715 24.3752C105.661 24.4296 105.601 24.479 105.547 24.5334C105.493 24.5878 105.438 24.6471 105.379 24.7064C105.349 24.736 105.32 24.7657 105.285 24.8003C105.241 24.8497 105.196 24.9041 105.147 24.9585C104.054 26.199 103.317 27.8102 103.144 29.5895C103.144 29.5945 103.144 29.5945 103.144 29.5994C103.134 29.7131 103.124 29.8267 103.119 29.9454C103.119 29.9651 103.114 29.9849 103.114 30.0047C103.11 30.1381 103.105 30.2716 103.105 30.405C103.105 34.7494 106.447 38.2981 110.471 38.2981C114.496 38.2981 117.838 34.7494 117.838 30.405C117.838 30.2716 117.833 30.1381 117.828 30.0047C117.828 29.9849 117.824 29.9651 117.824 29.9454C117.819 29.8267 117.809 29.7131 117.799 29.5994Z" fill="#29B5E8"/>
<path d="M148.818 20.654C148.808 20.6441 148.803 20.6342 148.793 20.6243C148.675 20.4761 148.516 20.3574 148.338 20.2833C148.338 20.2833 148.338 20.2833 148.333 20.2833C148.314 20.2685 148.289 20.2635 148.269 20.2536C148.259 20.2536 148.249 20.2487 148.235 20.2438C148.076 20.1894 147.903 20.1795 147.735 20.2042H147.73C147.389 20.2586 147.063 20.4662 146.88 20.7726C146.88 20.7726 146.88 20.7726 146.875 20.7726C146.85 20.822 146.821 20.8715 146.801 20.9209L146.796 20.9258V20.9308L141.13 36.4352L136.68 25.8485C136.635 25.7496 136.576 25.6607 136.507 25.5766C136.265 25.2949 135.894 25.117 135.513 25.117C135.454 25.117 135.399 25.117 135.34 25.1318C135.335 25.1318 135.33 25.1318 135.32 25.1318C134.925 25.201 134.554 25.4778 134.386 25.8485C134.386 25.8534 134.386 25.8534 134.386 25.8534L129.936 36.4401L127.78 30.5833L124.23 20.9308C124.211 20.8764 124.191 20.8319 124.166 20.7825C124.161 20.7775 124.161 20.7775 124.156 20.7726C124.047 20.57 123.874 20.4118 123.667 20.313C123.667 20.313 123.662 20.313 123.662 20.308C123.558 20.2635 123.449 20.2289 123.335 20.2092C123.326 20.2092 123.321 20.2092 123.311 20.2042C123.256 20.1993 123.197 20.1943 123.143 20.1943H123.138C123.123 20.1943 123.113 20.1943 123.103 20.1943C123.078 20.1943 123.054 20.1943 123.029 20.1993C123.014 20.1993 122.994 20.2042 122.98 20.2042C122.955 20.2092 122.935 20.2092 122.915 20.2141C122.9 20.2191 122.886 20.2191 122.871 20.224C122.846 20.2289 122.821 20.2339 122.797 20.2438C122.787 20.2487 122.777 20.2487 122.767 20.2536C122.742 20.2635 122.717 20.2685 122.693 20.2833C122.693 20.2833 122.693 20.2833 122.688 20.2833C122.485 20.3723 122.322 20.5255 122.203 20.7034C122.198 20.7133 122.193 20.7182 122.188 20.7281C122.183 20.738 122.179 20.7479 122.174 20.7578C122.085 20.9061 122.03 21.079 122.01 21.252C121.991 21.4349 122.015 21.6276 122.09 21.8056L126.198 32.842L128.833 39.9196C128.833 39.9196 128.833 39.9196 128.833 39.9245C128.942 40.1914 129.1 40.3743 129.318 40.4731C129.323 40.4781 129.333 40.483 129.338 40.4879C129.343 40.4929 129.348 40.4978 129.358 40.5028C129.358 40.5077 129.362 40.5077 129.367 40.5127C129.377 40.5176 129.382 40.5225 129.392 40.5324C129.397 40.5324 129.397 40.5324 129.402 40.5324C129.442 40.5571 129.491 40.5769 129.555 40.5819C129.56 40.5819 129.565 40.5868 129.57 40.5868C129.59 40.5917 129.61 40.6016 129.629 40.6066C129.639 40.6066 129.649 40.6115 129.659 40.6115C129.783 40.6511 129.862 40.6659 129.961 40.6659C130.015 40.6659 130.065 40.6609 130.119 40.6511C130.159 40.6461 130.203 40.6362 130.243 40.6214C130.252 40.6165 130.262 40.6165 130.272 40.6115C130.312 40.6016 130.351 40.5868 130.391 40.567C130.406 40.5621 130.421 40.5571 130.435 40.5473C130.46 40.5324 130.49 40.5176 130.519 40.5028C130.539 40.4879 130.564 40.4731 130.589 40.4583C130.603 40.4484 130.618 40.4336 130.633 40.4237C130.668 40.399 130.697 40.3743 130.732 40.3446C130.737 40.3397 130.742 40.3347 130.747 40.3249C130.781 40.2903 130.816 40.2557 130.851 40.2161C130.851 40.2112 130.856 40.2062 130.861 40.2013C130.89 40.1617 130.92 40.1173 130.945 40.0728C130.969 40.0234 130.994 39.969 131.014 39.9146L131.019 39.8998L131.034 39.88L131.048 39.8454L135.513 29.1896L140.017 39.885C140.052 39.9937 140.106 40.0926 140.18 40.1865C140.19 40.2013 140.2 40.2112 140.21 40.226C140.235 40.2557 140.26 40.2853 140.289 40.315C140.304 40.3248 140.319 40.3397 140.334 40.3496C140.358 40.3743 140.388 40.399 140.418 40.4237C140.433 40.4336 140.442 40.4435 140.457 40.4484C140.492 40.4731 140.527 40.4978 140.561 40.5176C140.571 40.5225 140.581 40.5275 140.591 40.5324C140.63 40.5522 140.665 40.572 140.709 40.5868C140.719 40.5917 140.729 40.5967 140.744 40.5967C140.779 40.6115 140.813 40.6263 140.853 40.6362C140.902 40.6461 140.952 40.656 140.996 40.6659H141.145C141.204 40.6659 141.258 40.6609 141.313 40.6511C141.328 40.6511 141.337 40.651 141.352 40.6461C141.402 40.6362 141.446 40.6263 141.491 40.6115C141.505 40.6066 141.515 40.6016 141.525 40.5967C141.575 40.5819 141.624 40.5571 141.669 40.5324C141.674 40.5324 141.679 40.5275 141.683 40.5275C141.738 40.4929 141.792 40.4583 141.837 40.4237C142.035 40.2754 142.178 40.0827 142.277 39.8454V39.8405L145.06 32.3478L148.976 21.8056C149.129 21.4349 149.07 21.0296 148.858 20.7133C148.848 20.6935 148.833 20.6738 148.818 20.654Z" fill="#29B5E8"/>
<path d="M211.695 20.9843C211.695 20.9645 211.69 20.9398 211.685 20.92C211.685 20.9052 211.68 20.8904 211.675 20.8755C211.67 20.8508 211.666 20.8261 211.661 20.8064C211.656 20.7915 211.651 20.7767 211.646 20.7668C211.641 20.7372 211.631 20.7124 211.616 20.6877C211.616 20.6778 211.611 20.6729 211.606 20.663C211.591 20.6284 211.577 20.5988 211.557 20.5691C211.557 20.5642 211.557 20.5642 211.557 20.5642C211.497 20.4604 211.423 20.3714 211.339 20.2923C211.334 20.2874 211.334 20.2874 211.334 20.2874C211.329 20.2825 211.329 20.2825 211.329 20.2825C210.909 19.8623 210.316 19.808 209.851 20.1342C209.836 20.1441 209.826 20.154 209.811 20.1589C209.792 20.1737 209.772 20.1885 209.752 20.2034C209.722 20.233 209.693 20.2577 209.663 20.2874C209.663 20.2874 209.658 20.2874 209.658 20.2923L198.074 31.5808V12.7008C198.074 12.6612 198.074 12.6217 198.069 12.5822C198.024 12.1472 197.733 11.7864 197.337 11.6184C197.332 11.6184 197.332 11.6134 197.327 11.6134C197.303 11.6036 197.278 11.5937 197.253 11.5887C197.243 11.5838 197.228 11.5788 197.214 11.5739C197.194 11.569 197.174 11.564 197.149 11.5591C197.134 11.5541 197.115 11.5492 197.095 11.5442C197.075 11.5393 197.05 11.5344 197.031 11.5344C197.011 11.5294 196.996 11.5294 196.976 11.5245C196.932 11.5195 196.892 11.5195 196.853 11.5195C196.205 11.5195 195.666 12.0583 195.666 12.7008V39.4788C195.666 40.1263 196.205 40.665 196.853 40.665C196.892 40.665 196.937 40.665 196.976 40.6601C196.981 40.6601 196.986 40.6551 196.996 40.6551C197.031 40.6502 197.065 40.6502 197.095 40.6403C197.105 40.6403 197.115 40.6354 197.125 40.6354C197.154 40.6255 197.184 40.6205 197.214 40.6107C197.218 40.6107 197.223 40.6057 197.228 40.6057C197.683 40.4624 198.019 40.0719 198.069 39.6024C198.074 39.5629 198.074 39.5233 198.074 39.4788V34.9615L201.975 31.0668L209.554 40.2103C209.604 40.2894 209.658 40.3586 209.727 40.413C209.742 40.4278 209.752 40.4377 209.767 40.4476C209.787 40.4624 209.806 40.4772 209.826 40.4871C209.851 40.5069 209.876 40.5168 209.9 40.5316C209.91 40.5365 209.925 40.5464 209.935 40.5513C209.97 40.5662 209.999 40.5761 210.034 40.5909C210.044 40.5958 210.054 40.5958 210.059 40.6008C210.098 40.6107 210.133 40.6205 210.172 40.6304C210.177 40.6304 210.187 40.6354 210.197 40.6354C210.237 40.6453 210.271 40.6502 210.316 40.6551C210.326 40.6551 210.336 40.6551 210.345 40.6601C210.395 40.6601 210.444 40.665 210.499 40.665C210.578 40.665 210.652 40.6601 210.721 40.6502C210.726 40.6502 210.726 40.6502 210.726 40.6502C210.865 40.6304 210.993 40.5859 211.112 40.5266C211.117 40.5266 211.117 40.5217 211.117 40.5217C211.171 40.492 211.225 40.4574 211.28 40.4179L211.295 40.4031C211.745 39.9533 211.814 39.3405 211.488 38.8314C211.458 38.7869 211.428 38.7424 211.394 38.6979L203.695 29.3518L211.339 21.9678C211.542 21.7602 211.666 21.5082 211.695 21.2363C211.695 21.2314 211.695 21.2265 211.7 21.2215C211.7 21.1968 211.7 21.1671 211.7 21.1424C211.7 21.1276 211.705 21.1128 211.705 21.1029C211.705 21.093 211.705 21.0881 211.705 21.0831C211.705 21.0634 211.7 21.0485 211.7 21.0288C211.7 21.0139 211.695 20.9991 211.695 20.9843Z" fill="#29B5E8"/>
</svg>
