<svg width="296" height="60" viewBox="0 0 296 60" fill="none" xmlns="http://www.w3.org/2000/svg">
<g clip-path="url(#clip0_3639_4156)">
<path d="M42.9802 41.3214V33.3929L42.1227 32.8571L21.5437 44.1071L2.03647 33.3929V28.7857L21.5437 39.3929L43.0873 27.7143V19.8929L42.2299 19.3571L21.5437 30.7143L2.78674 20.4286L21.5437 10.1429L36.6564 18.3929L37.8354 17.75V16.8929L21.5437 8L0 19.6786V20.8571L21.5437 32.6429L41.0509 21.9286V26.6429L21.5437 37.3571L0.85746 26L0 26.5357V34.4643L21.5437 46.1429L41.0509 35.5357V40.1429L21.5437 50.8571L0.85746 39.6071L0 40.1429V41.3214L21.5437 53L42.9802 41.3214Z" fill="#FF3621"/>
<path fill-rule="evenodd" clip-rule="evenodd" d="M83.9246 10.3594V46.4665H78.1367V43.7879C78.1367 43.5737 78.0295 43.3594 77.8152 43.3594C77.6008 43.2522 77.3864 43.3594 77.2792 43.4665C75.2428 45.7165 72.2417 47.1094 68.919 47.1094C65.4892 47.1094 62.2737 45.7165 59.9157 43.3594C57.5577 40.8951 56.2715 37.5737 56.2715 33.9308C56.2715 26.5379 61.845 20.7522 68.919 20.7522C72.2417 20.7522 75.35 22.0379 77.2792 24.1808C77.3864 24.2879 77.6008 24.3951 77.8152 24.2879C78.0295 24.1808 78.1367 24.0737 78.1367 23.8594V10.3594H83.9246ZM62.0593 33.9308C62.0593 38.5379 65.5964 42.0737 70.2052 42.0737C74.814 42.0737 78.3511 38.5379 78.3511 33.9308C78.3511 29.3237 74.814 25.7879 70.2052 25.7879C65.7035 25.7879 62.0593 29.3237 62.0593 33.9308Z" fill="#1B3139"/>
<path fill-rule="evenodd" clip-rule="evenodd" d="M114.577 21.2857V46.4643H108.896V43.7857C108.896 43.5714 108.789 43.3571 108.575 43.3571C108.361 43.25 108.146 43.3571 108.039 43.4643C106.003 45.8214 103.001 47.1071 99.6788 47.1071C92.6047 47.1071 87.0312 41.3214 87.0312 33.9286C87.0312 26.5357 92.6047 20.75 99.6788 20.75C103.109 20.75 106.11 21.9286 108.039 24.1786C108.146 24.2857 108.361 24.3929 108.575 24.2857C108.789 24.1786 108.896 24.0714 108.896 23.8571V21.2857H114.577ZM92.8191 33.9286C92.8191 38.5357 96.3561 42.0714 100.965 42.0714C105.574 42.0714 109.111 38.5357 109.111 33.9286C109.111 29.3214 105.574 25.7857 100.965 25.7857C96.4633 25.7857 92.8191 29.3214 92.8191 33.9286Z" fill="#1B3139"/>
<path fill-rule="evenodd" clip-rule="evenodd" d="M163.347 21.2857V46.4643H157.666V43.7857C157.666 43.5714 157.559 43.3571 157.344 43.3571C157.13 43.25 156.916 43.3571 156.809 43.4643C154.772 45.8214 151.771 47.1071 148.448 47.1071C141.374 47.1071 135.801 41.3214 135.801 33.9286C135.801 26.5357 141.374 20.75 148.448 20.75C151.878 20.75 154.879 21.9286 156.809 24.1786C156.916 24.2857 157.13 24.3929 157.344 24.2857C157.559 24.1786 157.666 24.0714 157.666 23.8571V21.2857H163.347ZM141.589 33.9286C141.589 38.5357 145.126 42.0714 149.735 42.0714C154.343 42.0714 157.88 38.5357 157.88 33.9286C157.88 29.3214 154.343 25.7857 149.735 25.7857C145.126 25.7857 141.589 29.3214 141.589 33.9286Z" fill="#1B3139"/>
<path fill-rule="evenodd" clip-rule="evenodd" d="M174.066 43.4665C173.959 43.4665 173.959 43.4665 173.852 43.4665C173.637 43.5737 173.53 43.6808 173.53 43.8951V46.4665H167.742V10.3594H173.53V23.9665C173.53 24.1808 173.637 24.3951 173.852 24.3951C174.066 24.5022 174.28 24.3951 174.387 24.2879C176.424 22.0379 179.425 20.6451 182.748 20.6451C186.178 20.6451 189.393 22.0379 191.751 24.3951C194.109 26.8594 195.395 30.1808 195.395 33.8237C195.395 41.2165 189.822 47.0022 182.748 47.0022C179.425 47.0022 176.317 45.7165 174.387 43.5737C174.28 43.5737 174.173 43.4665 174.066 43.4665ZM181.462 25.7879C176.853 25.7879 173.316 29.3237 173.316 33.9308C173.316 38.5379 176.853 42.0737 181.462 42.0737C186.07 42.0737 189.607 38.5379 189.607 33.9308C189.607 29.3237 185.963 25.7879 181.462 25.7879Z" fill="#1B3139"/>
<path d="M212.007 26.4286C212.543 26.4286 213.079 26.4286 213.401 26.5357V20.8571C213.186 20.8571 212.865 20.75 212.436 20.75C209.435 20.75 206.648 22.25 205.255 24.6071C205.148 24.8214 204.933 24.9286 204.719 24.8214C204.505 24.7143 204.397 24.6071 204.397 24.3929V21.2857H198.717V46.4643H204.505V35.4286C204.29 29.8571 207.291 26.4286 212.007 26.4286Z" fill="#1B3139"/>
<path d="M222.723 21.2852H216.936V46.4637H222.723V21.2852Z" fill="#1B3139"/>
<path d="M219.832 10.3594C217.903 10.3594 216.295 11.8594 216.295 13.7879C216.295 15.7165 217.903 17.2165 219.832 17.2165C221.761 17.2165 223.369 15.7165 223.369 13.7879C223.369 11.9665 221.761 10.3594 219.832 10.3594Z" fill="#1B3139"/>
<path d="M239.876 20.75C231.944 20.75 226.156 26.3214 226.156 33.9286C226.156 37.6786 227.55 41 230.015 43.3571C232.48 45.7143 236.017 47.1071 239.876 47.1071C243.091 47.1071 245.663 46.4643 250.379 43.1429L247.164 39.8214C244.806 41.3214 242.662 42.0714 240.519 42.0714C235.695 42.0714 232.051 38.5357 232.051 33.9286C232.051 29.3214 235.695 25.7857 240.519 25.7857C242.77 25.7857 244.913 26.5357 247.057 28.0357L250.701 24.7143C246.307 21.0714 242.448 20.75 239.876 20.75Z" fill="#1B3139"/>
<path d="M260.349 35.4308C260.457 35.3237 260.564 35.3237 260.671 35.3237C260.778 35.3237 260.885 35.4308 260.993 35.5379L270.21 46.5737H277.284L265.387 32.6451C265.173 32.4308 265.28 32.2165 265.387 32.0022L276.32 21.3951H269.353L259.921 30.5022C259.814 30.6094 259.599 30.7165 259.385 30.6094C259.17 30.5022 259.063 30.3951 259.063 30.1808V10.3594H253.275V46.4665H259.063V36.7165C259.063 36.6094 259.17 36.5022 259.17 36.3951L260.349 35.4308Z" fill="#1B3139"/>
<path d="M286.818 47.1071C291.534 47.1071 296.357 44.3214 296.357 39.0714C296.357 35.6429 294.106 33.2857 289.497 31.7857L286.389 30.8214C284.245 30.1786 283.281 29.2143 283.281 27.8214C283.281 26.3214 284.674 25.25 286.71 25.25C288.64 25.25 290.355 26.4286 291.426 28.5714L296.035 26.2143C294.32 22.7857 290.783 20.75 286.71 20.75C281.566 20.75 277.814 23.9643 277.814 28.3571C277.814 31.8929 279.958 34.25 284.352 35.5357L287.568 36.5C289.819 37.1429 290.783 38 290.783 39.5C290.783 41.6429 288.747 42.3929 287.032 42.3929C284.674 42.3929 282.637 40.8929 281.566 38.5357L276.85 40.8929C278.35 44.75 282.209 47.1071 286.818 47.1071Z" fill="#1B3139"/>
<path d="M130.548 46.8917C132.37 46.8917 133.978 46.7846 134.942 46.5703V41.7489C134.192 41.856 132.906 41.9632 132.048 41.9632C129.69 41.9632 127.975 41.5346 127.975 36.7132V26.4275C127.975 26.2132 128.19 25.9989 128.511 25.9989H134.085V21.4989H128.511C128.19 21.4989 127.975 21.2846 127.975 21.0703V13.5703H122.295V20.856C122.295 21.0703 122.08 21.2846 121.759 21.2846H117.793V25.7846H121.759C122.08 25.7846 122.295 25.9989 122.295 26.2132V37.8917C122.187 46.8917 128.297 46.8917 130.548 46.8917Z" fill="#1B3139"/>
</g>
<defs>
<clipPath id="clip0_3639_4156">
<rect width="296" height="60" fill="white"/>
</clipPath>
</defs>
</svg>
