<svg width="12" height="12" viewBox="0 0 12 12" fill="none" xmlns="http://www.w3.org/2000/svg">
<path id="Vector" d="M4.93745 0.0732269C3.134 0.400667 1.51386 1.59632 0.67159 3.2236C-0.730545 5.93739 0.12659 9.31102 2.64845 10.9829C3.70377 11.6775 4.75909 12 5.99772 12C10.5064 12 13.3899 7.22731 11.3139 3.20376C10.4766 1.58144 8.84163 0.390745 7.01836 0.0682659C6.47831 -0.0259972 5.46759 -0.0210361 4.93745 0.0732269ZM5.74009 2.45461L5.72522 3.1343L5.30409 3.12438C4.85818 3.11446 4.01095 3.03011 3.97627 2.99539C3.9614 2.98546 4.0159 2.8019 4.09022 2.58857C4.44695 1.58144 4.98699 0.827332 5.52209 0.584232L5.72522 0.49493L5.74009 1.13493C5.74504 1.48717 5.74504 2.08252 5.74009 2.45461ZM6.82513 0.81741C7.07286 1.02082 7.40977 1.48221 7.62281 1.90392C7.79127 2.24128 8.05386 2.96066 8.01917 2.99539C7.98449 3.03011 7.13727 3.11446 6.69136 3.12438L6.27022 3.1343L6.25536 1.80965L6.24545 0.489969L6.42877 0.564387C6.52786 0.604077 6.70622 0.718185 6.82513 0.81741ZM4.61045 0.658651C4.61045 0.673534 4.58072 0.713224 4.54604 0.747952C4.23886 1.06547 3.7979 1.90392 3.57495 2.5836C3.51054 2.77213 3.44118 2.92097 3.41641 2.92097C3.14886 2.92097 1.83095 2.52903 1.80123 2.43973C1.77645 2.37027 2.50477 1.68562 2.85654 1.44748C3.243 1.18454 3.78304 0.911674 4.19922 0.762836C4.55595 0.638806 4.61045 0.623922 4.61045 0.658651ZM7.7764 0.762836C8.2124 0.906712 8.74254 1.17462 9.1389 1.44748C9.49067 1.68562 10.219 2.37027 10.1942 2.43973C10.1645 2.52903 8.84658 2.92097 8.57904 2.92097C8.55426 2.92097 8.4849 2.77213 8.42049 2.5836C8.19754 1.90392 7.75658 1.06547 7.4494 0.747952C7.31563 0.609038 7.33049 0.609038 7.7764 0.762836ZM2.78718 3.29306C3.05968 3.35259 3.28759 3.41709 3.30245 3.43197C3.31236 3.4419 3.28263 3.71972 3.22813 4.0422C3.17363 4.36468 3.11418 4.87073 3.09436 5.16344L3.05968 5.69925H1.78141H0.498181V5.55538C0.498181 5.30235 0.641862 4.5929 0.760771 4.23569C0.884635 3.87352 1.12245 3.3774 1.32063 3.05988L1.43954 2.87632L1.87059 3.02515C2.10841 3.10949 2.51963 3.22856 2.78718 3.29306ZM10.8631 3.40221C10.9869 3.64034 11.1504 4.00251 11.2198 4.20096C11.3486 4.56809 11.4973 5.28747 11.4973 5.55538V5.69925H10.214H8.93576L8.90108 5.16344C8.88126 4.87073 8.82181 4.36468 8.76731 4.0422C8.71281 3.71972 8.67813 3.4419 8.69299 3.43197C8.7029 3.42205 8.9754 3.34763 9.29745 3.26329C9.62444 3.18391 10.0307 3.06484 10.2091 3.00035C10.3974 2.93089 10.5509 2.90112 10.5807 2.92593C10.6104 2.94577 10.7392 3.16407 10.8631 3.40221ZM5.12077 3.60065L5.74999 3.63042V4.66732V5.69925H4.65009H3.55513L3.58981 5.16344C3.61954 4.63259 3.66909 4.28034 3.77313 3.76934L3.82763 3.50143L4.15463 3.53616C4.33795 3.55104 4.76899 3.58081 5.12077 3.60065ZM8.20249 3.62546C8.28672 3.99755 8.38086 4.68716 8.40563 5.15352L8.44031 5.69925H7.34536H6.24545V4.65739V3.61554L6.65668 3.61058C6.87963 3.60562 7.22149 3.58577 7.40977 3.56593C8.08854 3.49647 8.17276 3.50639 8.20249 3.62546ZM3.09436 6.76591C3.11418 7.07847 3.17363 7.60932 3.22813 7.93676C3.28263 8.26916 3.31731 8.55195 3.30245 8.56187C3.29254 8.5718 3.05472 8.63629 2.77232 8.70079C2.48991 8.76032 2.07372 8.88435 1.85077 8.96373L1.43954 9.11257L1.34541 8.98358C1.19182 8.76032 0.889589 8.12529 0.760771 7.75816C0.631953 7.37118 0.498181 6.68653 0.498181 6.38886V6.19537H1.78141H3.05968L3.09436 6.76591ZM5.74999 7.27692V8.35846L5.34372 8.36839C5.11581 8.37831 4.68972 8.40312 4.3974 8.43288C4.10013 8.46265 3.84745 8.47257 3.83259 8.45769C3.76818 8.39815 3.61954 7.3811 3.58981 6.80064L3.55513 6.19537H4.65009H5.74999V7.27692ZM8.40563 6.80064C8.3759 7.38607 8.22726 8.39815 8.16286 8.45769C8.14799 8.47257 7.90522 8.46265 7.62281 8.43288C7.3404 8.40312 6.91927 8.37831 6.68145 8.36839L6.24545 8.35846V7.27692V6.19537H7.34536H8.44031L8.40563 6.80064ZM11.4973 6.38886C11.4973 6.68653 11.3635 7.37118 11.2347 7.75816C11.1059 8.12529 10.8036 8.76032 10.65 8.98358L10.5559 9.11257L10.1447 8.96373C9.92172 8.88435 9.50554 8.76032 9.22313 8.70079C8.94072 8.63629 8.7029 8.5718 8.69299 8.56187C8.67813 8.55195 8.71281 8.26916 8.76731 7.93676C8.82181 7.60932 8.88126 7.07847 8.90108 6.76591L8.93576 6.19537H10.214H11.4973V6.38886ZM5.74999 10.1643V11.5039L5.56668 11.4295C5.15545 11.2558 4.75413 10.8143 4.41722 10.1643C4.23886 9.82202 3.96636 9.12745 3.96636 9.02327C3.96636 8.99846 4.04068 8.96373 4.12986 8.94885C4.2884 8.91908 5.20499 8.84466 5.56668 8.82978L5.74999 8.82482V10.1643ZM7.59804 8.92404C7.81108 8.94389 7.99936 8.97862 8.01422 8.9935C8.05881 9.03815 7.79127 9.74761 7.57822 10.1643C7.24131 10.8143 6.83999 11.2558 6.42877 11.4295L6.24545 11.5039V10.1643V8.81986L6.73099 8.84963C6.99358 8.86947 7.38499 8.89924 7.59804 8.92404ZM3.57495 9.40528C3.74836 9.94109 4.09022 10.6357 4.36272 11.0078C4.4965 11.2012 4.60054 11.355 4.59063 11.355C4.57577 11.355 4.40236 11.2955 4.20418 11.226C3.43127 10.9482 2.78222 10.5464 2.18272 9.98078C1.96472 9.77737 1.78636 9.57892 1.78636 9.54916C1.78636 9.45986 3.00518 9.09273 3.35695 9.07784C3.44613 9.07288 3.48081 9.12745 3.57495 9.40528ZM8.93081 9.12745C9.42626 9.22668 10.2091 9.48466 10.2091 9.54916C10.2091 9.57892 10.0307 9.77737 9.81272 9.98078C9.21322 10.5464 8.56417 10.9482 7.79127 11.226C7.59308 11.2955 7.41967 11.355 7.40481 11.355C7.3949 11.355 7.48904 11.2161 7.61786 11.0425C7.87054 10.7002 8.25204 9.92621 8.42049 9.40528C8.54436 9.04311 8.5394 9.04807 8.93081 9.12745Z" fill="black"/>
</svg>
