<svg width="15" height="17" viewBox="0 0 15 17" fill="none" xmlns="http://www.w3.org/2000/svg">
<path id="Vector" d="M1.73077 7.36667V6.8H1.15385V7.36667H1.73077ZM6.34615 7.36667V6.8H5.76923V7.36667H6.34615ZM6.34615 11.9H5.76923V12.4667H6.34615V11.9ZM14.4231 3.96667H15V3.73194L14.8311 3.56598L14.4231 3.96667ZM10.9615 0.566667L11.3695 0.165973L11.2005 0H10.9615V0.566667ZM1.73077 7.93333H2.88462V6.8H1.73077V7.93333ZM2.30769 12.4667V9.63333H1.15385V12.4667H2.30769ZM2.30769 9.63333V7.36667H1.15385V9.63333H2.30769ZM2.88462 9.06667H1.73077V10.2H2.88462V9.06667ZM3.46154 8.5C3.46154 8.81296 3.20324 9.06667 2.88462 9.06667V10.2C3.8405 10.2 4.61538 9.43889 4.61538 8.5H3.46154ZM2.88462 7.93333C3.20324 7.93333 3.46154 8.18704 3.46154 8.5H4.61538C4.61538 7.56111 3.8405 6.8 2.88462 6.8V7.93333ZM5.76923 7.36667V11.9H6.92308V7.36667H5.76923ZM6.34615 12.4667H7.5V11.3333H6.34615V12.4667ZM9.23077 10.7667V8.5H8.07692V10.7667H9.23077ZM7.5 6.8H6.34615V7.93333H7.5V6.8ZM9.23077 8.5C9.23077 7.56111 8.45588 6.8 7.5 6.8V7.93333C7.81862 7.93333 8.07692 8.18704 8.07692 8.5H9.23077ZM7.5 12.4667C8.45588 12.4667 9.23077 11.7055 9.23077 10.7667H8.07692C8.07692 11.0796 7.81862 11.3333 7.5 11.3333V12.4667ZM10.3846 6.8V12.4667H11.5385V6.8H10.3846ZM10.9615 7.93333H13.8462V6.8H10.9615V7.93333ZM10.9615 10.2H12.6923V9.06667H10.9615V10.2ZM1.15385 5.66667V1.7H0V5.66667H1.15385ZM13.8462 3.96667V5.66667H15V3.96667H13.8462ZM1.73077 1.13333H10.9615V0H1.73077V1.13333ZM10.5535 0.96736L14.0151 4.36736L14.8311 3.56598L11.3695 0.165973L10.5535 0.96736ZM1.15385 1.7C1.15385 1.38704 1.41215 1.13333 1.73077 1.13333V0C0.774888 0 0 0.761116 0 1.7H1.15385ZM0 13.6V15.3H1.15385V13.6H0ZM1.73077 17H13.2692V15.8667H1.73077V17ZM15 15.3V13.6H13.8462V15.3H15ZM13.2692 17C14.2251 17 15 16.2389 15 15.3H13.8462C13.8462 15.6129 13.5878 15.8667 13.2692 15.8667V17ZM0 15.3C0 16.2389 0.774888 17 1.73077 17V15.8667C1.41215 15.8667 1.15385 15.6129 1.15385 15.3H0Z" fill="black"/>
</svg>
