<svg width="13" height="13" viewBox="0 0 13 13" fill="none" xmlns="http://www.w3.org/2000/svg">
<g clip-path="url(#clip0_3_5330)">
<path d="M2.16719 5.63333V5.2H1.73385V5.63333H2.16719ZM5.63385 5.63333V5.2H5.20052V5.63333H5.63385ZM5.63385 9.1H5.20052V9.53333H5.63385V9.1ZM11.7005 3.03333H12.1339V2.85384L12.007 2.72692L11.7005 3.03333ZM9.10052 0.433333L9.40697 0.126921L9.28001 0H9.10052V0.433333ZM2.16719 6.06667H3.03385V5.2H2.16719V6.06667ZM2.60052 9.53333V7.36667H1.73385V9.53333H2.60052ZM2.60052 7.36667V5.63333H1.73385V7.36667H2.60052ZM3.03385 6.93333H2.16719V7.8H3.03385V6.93333ZM3.46719 6.5C3.46719 6.73932 3.27318 6.93333 3.03385 6.93333V7.8C3.75183 7.8 4.33385 7.21797 4.33385 6.5H3.46719ZM3.03385 6.06667C3.27318 6.06667 3.46719 6.26068 3.46719 6.5H4.33385C4.33385 5.78203 3.75183 5.2 3.03385 5.2V6.06667ZM5.20052 5.63333V9.1H6.06719V5.63333H5.20052ZM5.63385 9.53333H6.50052V8.66667H5.63385V9.53333ZM7.80052 8.23333V6.5H6.93385V8.23333H7.80052ZM6.50052 5.2H5.63385V6.06667H6.50052V5.2ZM7.80052 6.5C7.80052 5.78203 7.21849 5.2 6.50052 5.2V6.06667C6.73984 6.06667 6.93385 6.26068 6.93385 6.5H7.80052ZM6.50052 9.53333C7.21849 9.53333 7.80052 8.95128 7.80052 8.23333H6.93385C6.93385 8.47265 6.73984 8.66667 6.50052 8.66667V9.53333ZM8.66719 5.2V9.53333H9.53385V5.2H8.66719ZM9.10052 6.06667H11.2672V5.2H9.10052V6.06667ZM9.10052 7.8H10.4005V6.93333H9.10052V7.8ZM1.73385 4.33333V1.3H0.867188V4.33333H1.73385ZM11.2672 3.03333V4.33333H12.1339V3.03333H11.2672ZM2.16719 0.866667H9.10052V0H2.16719V0.866667ZM8.79407 0.739746L11.3941 3.33974L12.007 2.72692L9.40697 0.126921L8.79407 0.739746ZM1.73385 1.3C1.73385 1.06068 1.92787 0.866667 2.16719 0.866667V0C1.44921 0 0.867188 0.58203 0.867188 1.3H1.73385ZM0.867188 10.4V11.7H1.73385V10.4H0.867188ZM2.16719 13H10.8339V12.1333H2.16719V13ZM12.1339 11.7V10.4H11.2672V11.7H12.1339ZM10.8339 13C11.5518 13 12.1339 12.4179 12.1339 11.7H11.2672C11.2672 11.9393 11.0731 12.1333 10.8339 12.1333V13ZM0.867188 11.7C0.867188 12.4179 1.44921 13 2.16719 13V12.1333C1.92787 12.1333 1.73385 11.9393 1.73385 11.7H0.867188Z" fill="#FF0000"/>
</g>
<defs>
<clipPath id="clip0_3_5330">
<rect width="13" height="13" fill="white"/>
</clipPath>
</defs>
</svg>
