<svg width="784" height="240" viewBox="0 0 784 240" fill="none" xmlns="http://www.w3.org/2000/svg">
<mask id="mask0_98_910" style="mask-type:luminance" maskUnits="userSpaceOnUse" x="0" y="0" width="784" height="241">
<path d="M784 0.000488281H0V240H784V0.000488281Z" fill="white"/>
</mask>
<g mask="url(#mask0_98_910)">
<path d="M718.855 -151.623C707.849 -145.238 700.005 -134.962 696.752 -122.756C696.728 -122.666 696.704 -122.578 696.681 -122.488C691.935 -104.143 681.335 -87.8245 664.967 -78.3283L658.928 -74.8246C642.165 -65.0993 621.666 -61.9442 603.719 -69.0825C601.683 -69.8601 599.624 -70.5483 597.452 -71.1713C583.28 -74.9253 568.526 -72.9191 555.827 -65.5515C543.127 -58.1838 534.096 -46.3151 530.287 -32.2045C529.717 -30.0661 529.269 -27.848 528.991 -25.7278C526.567 -8.57934 517.825 7.0386 502.868 15.7161L502.473 15.9453C487.064 24.8848 467.916 26.7287 452.019 18.7024C448.278 16.8053 444.208 15.2499 440.018 14.1403C423.974 9.8904 407.191 12.1703 392.798 20.5203C378.406 28.8703 368.097 42.3083 363.855 58.4028C362.169 64.729 361.511 71.1365 361.863 77.3348C362.488 89.8531 355.161 101.411 344.381 107.665L339.922 110.252C328.126 117.096 313.838 115.743 302.418 108.283C296.359 104.341 289.715 101.341 282.584 99.4523C264.579 94.683 245.823 97.2033 229.737 106.536C213.652 115.868 202.155 130.899 197.358 148.898C194.96 157.897 194.495 166.979 195.704 175.694C197.1 186.032 191.933 196.11 182.902 201.349L182.846 201.382C173.477 206.818 161.756 205.859 153.301 199.089C145.245 192.615 135.734 187.663 125.126 184.853C105.249 179.588 84.4643 182.382 66.6853 192.697C45.4634 205.009 31.4545 226.243 28.6413 251.301C24.9357 284.183 43.801 316.7 74.186 329.804C97.3031 339.743 122.69 338.12 143.856 325.841C161.635 315.526 174.376 298.869 179.672 279C182.569 268.129 182.949 257.213 181.196 246.78C179.453 236.493 184.32 226.288 193.35 221.048L193.802 220.786C203.002 215.449 214.461 215.956 222.865 222.38C229.798 227.698 237.791 231.722 246.793 234.107C264.799 238.876 283.554 236.356 299.64 227.024C315.726 217.691 327.28 202.627 332.02 184.662C333.919 177.534 334.669 170.244 334.198 163.06C333.422 149.5 339.34 136.425 351.08 129.614L355.595 126.995C366.432 120.708 380.102 120.084 390.603 126.871C395.865 130.221 401.698 132.863 408.027 134.539C424.072 138.789 440.887 136.565 455.279 128.215C469.672 119.865 479.981 106.427 484.223 90.3328C485.362 86.056 486.009 81.8392 486.219 77.6499C487.141 59.8655 498.279 44.2147 513.687 35.2752L514.139 35.0132C529.152 26.303 547.05 26.4648 563.083 32.9056C565.118 33.6832 567.21 34.4281 569.349 34.9947C583.522 38.7487 598.276 36.7422 610.975 29.3745C623.674 22.0068 632.706 10.1385 636.515 -3.9722C637.084 -6.11061 637.509 -8.23996 637.811 -10.4492C640.522 -29.5724 653.436 -45.8021 670.199 -55.5275L676.295 -59.064C692.719 -68.5928 712.09 -69.6625 730.372 -64.677C730.461 -64.6534 730.55 -64.63 730.639 -64.6063C742.94 -61.3481 755.721 -63.1138 766.671 -69.4664C777.677 -75.8517 785.52 -86.1271 788.774 -98.3339C792.051 -110.63 790.301 -123.398 783.958 -134.331C777.582 -145.321 767.309 -153.145 755.097 -156.38C742.675 -159.718 729.861 -158.008 718.855 -151.623Z" fill="url(#paint0_linear_98_910)"/>
</g>
<defs>
<linearGradient id="paint0_linear_98_910" x1="499" y1="6.00039" x2="18.8342" y2="334.258" gradientUnits="userSpaceOnUse">
<stop stop-color="#7177F8" stop-opacity="0.5"/>
<stop offset="1" stop-color="#3FE0D0"/>
</linearGradient>
</defs>
</svg>
