<svg width="1300" height="179" viewBox="0 0 1300 179" fill="none" xmlns="http://www.w3.org/2000/svg">
<path d="M136.6 215.309H100.63V119.487C100.63 98.5411 92.4681 83.1256 71.0191 83.1256C49.5701 83.1256 35.9694 97.9087 35.9694 122.264V215.309H0V55.3979H33.2392V76.6642C39.8827 64.0323 54.9948 51.6985 80.072 51.6985C102.733 51.6985 118.458 61.5685 127.218 76.955C139.3 61.5466 156.231 51.6985 180.41 51.6985C218.182 51.6985 237.522 78.5031 237.522 114.865V215.309H201.552V119.487C201.552 98.8536 193.697 83.1256 171.941 83.1256C150.186 83.1256 136.592 97.6181 136.592 123.478V215.303L136.6 215.309Z" fill="#181C21"/>
<path d="M253.24 55.396H312.177V215.301H276.207V88.0586H256.341L253.24 55.4033V55.396Z" fill="#181C21"/>
<path d="M344.495 0H380.465V168.176C380.465 176.81 385.897 180.488 393.752 180.488C397.665 180.488 400.089 180.175 400.089 180.175V214.989C400.089 214.989 394.963 215.912 389.197 215.912C357.762 215.912 344.475 199.58 344.475 167.529L344.495 0Z" fill="#181C21"/>
<path d="M445.119 145.994C447.841 171.251 463.858 187.582 488.936 187.582C505.567 187.582 519.758 178.947 525.497 164.775H561.752C552.385 196.514 524.571 219.009 488.017 219.009C440.563 219.009 409.748 182.96 409.748 135.209C409.748 87.4573 441.184 51.6985 487.71 51.6985C534.236 51.6985 564.767 87.748 564.767 134.576C564.767 140.427 564.46 145.973 564.46 145.973H445.097L445.119 145.994ZM445.71 118.877H529.111C526.096 96.695 510.984 81.5993 487.71 81.5993C464.436 81.5993 449.338 97.0075 445.71 118.877Z" fill="#181C21"/>
<path d="M574.432 164.163H609.189C610.095 178.023 620.979 188.816 643.021 188.816C661.76 188.816 672.039 181.729 672.039 170.646C672.039 136.755 581.995 166.946 581.995 101.941C581.995 75.1362 605.561 51.7185 644.246 51.7185C689.276 51.7185 704.395 83.1456 705.892 104.717H671.441C670.229 93.3209 661.768 81.612 643.348 81.612C624.929 81.612 616.445 89.011 616.445 100.72C616.445 131.834 706.49 104.419 706.49 169.134C706.49 196.251 684.734 219.043 640.91 219.043C597.085 219.043 576.235 193.475 574.432 164.199V164.163Z" fill="#181C21"/>
<path d="M806.344 214.385C806.344 214.385 792.016 216.224 779.927 216.224C747.892 216.224 733.992 199.267 733.992 169.076V84.65H715.886V55.3815H733.992V13.8082H769.961V55.396H806.95L802.609 84.6645H769.961V165.39C769.961 178.023 775.108 183.459 787.49 183.459C793.541 183.459 806.344 182.638 806.344 182.638V214.378V214.385Z" fill="#181C21"/>
<path d="M811.469 135.52C811.469 90.5226 842.905 51.7185 892.753 51.7185C942.601 51.7185 974.344 90.5445 974.344 135.52C974.344 180.494 942.907 219.029 892.753 219.029C842.598 219.029 811.469 180.516 811.469 135.52ZM892.76 186.657C919.049 186.657 938.388 166.314 938.388 135.512C938.388 104.71 919.049 84.0542 892.76 84.0542C866.471 84.0542 847.439 104.397 847.439 135.512C847.439 166.626 866.777 186.657 892.76 186.657Z" fill="#181C21"/>
<path d="M1022.57 76.6642C1029.22 64.0323 1045.23 51.6985 1070.92 51.6985C1109.01 51.6985 1129.24 77.58 1129.24 114.865V215.309H1093.28V119.487C1093.28 97.6181 1083.6 83.1256 1062.15 83.1256C1039.49 83.1256 1025.28 97.6181 1025.28 122.562V215.309H989.312V55.3979H1022.55V76.6642H1022.57Z" fill="#181C21"/>
<path d="M1180.35 145.994C1183.08 171.251 1199.09 187.582 1224.17 187.582C1240.8 187.582 1254.99 178.947 1260.73 164.775H1296.99C1287.61 196.514 1259.81 219.009 1223.25 219.009C1175.8 219.009 1144.99 182.96 1144.99 135.209C1144.99 87.4573 1176.41 51.6985 1222.94 51.6985C1269.47 51.6985 1300 87.748 1300 134.576C1300 140.427 1299.7 145.973 1299.7 145.973H1180.34L1180.36 145.994H1180.35ZM1180.95 118.877H1264.36C1261.35 96.695 1246.23 81.5993 1222.95 81.5993C1199.68 81.5993 1184.59 97.0075 1180.95 118.877Z" fill="#181C21"/>
<path d="M312.153 0H276.185V34.109H312.153V0Z" fill="#181C21"/>
</svg>