<svg width="363" height="48" viewBox="0 0 363 48" fill="none" xmlns="http://www.w3.org/2000/svg">
<g clip-path="url(#clip0_1_57)">
<path d="M18.9536 8.99551V47.1968H4.83782V19.1837L0 18.0468V4.54004L18.9536 8.99551Z" fill="white"/>
<path d="M38.1656 5.67676V47.1967H24.0498V8.99536L38.1656 5.67676Z" fill="white"/>
<path d="M57.3809 1.16016V47.1964H43.2651V4.47876L57.3809 1.16016Z" fill="white"/>
<path d="M113.371 47.1984H105.654V26.638C105.654 22.1436 103.902 18.8359 99.3 18.8359C94.6977 18.8359 91.7794 22.0079 91.7794 27.2338V47.1984H84.0615V12.8864H91.1936V17.4495C92.6191 14.7391 95.8616 12.0927 101.242 12.0927C106.105 12.0927 109.479 14.2104 111.359 17.5119C113.951 14.2058 117.584 12.0927 122.772 12.0927C130.877 12.0927 135.026 17.8441 135.026 25.6462V47.1984H127.308V26.638C127.308 22.2106 125.623 18.8359 120.955 18.8359C116.287 18.8359 113.37 21.9455 113.37 27.4942V47.1968L113.371 47.1984Z" fill="white"/>
<path d="M138.399 12.8867H151.045V47.1971H143.327V19.8951H139.064L138.399 12.8883V12.8867Z" fill="white"/>
<path d="M157.979 1H165.697V37.0851C165.697 38.9378 166.863 39.7269 168.548 39.7269C169.388 39.7269 169.908 39.6598 169.908 39.6598V47.1298C169.908 47.1298 168.808 47.3279 167.571 47.3279C160.826 47.3279 157.975 43.8237 157.975 36.9463L157.979 1Z" fill="white"/>
<path d="M179.57 32.3255C180.154 37.7447 183.591 41.2489 188.972 41.2489C192.54 41.2489 195.585 39.3963 196.817 36.3552H204.596C202.586 43.1656 196.618 47.9922 188.774 47.9922C178.592 47.9922 171.98 40.2571 171.98 30.0112C171.98 19.7654 178.726 12.0927 188.709 12.0927C198.692 12.0927 205.243 19.8277 205.243 29.8756C205.243 31.1309 205.177 32.3208 205.177 32.3208H179.565L179.57 32.3255ZM179.697 26.507H197.592C196.945 21.7475 193.702 18.5084 188.709 18.5084C183.715 18.5084 180.475 21.8145 179.697 26.507Z" fill="white"/>
<path d="M207.316 36.2246H214.774C214.969 39.1985 217.304 41.5144 222.033 41.5144C226.054 41.5144 228.26 39.9939 228.26 37.6156C228.26 30.3437 208.939 36.8219 208.939 22.8738C208.939 17.1223 213.996 12.0977 222.296 12.0977C231.958 12.0977 235.202 18.8409 235.524 23.4695H228.131C227.871 21.0242 226.056 18.5119 222.104 18.5119C218.151 18.5119 216.331 20.0994 216.331 22.6118C216.331 29.2879 235.652 23.4055 235.652 37.2913C235.652 43.1097 230.984 48.0003 221.581 48.0003C212.177 48.0003 207.703 42.514 207.316 36.2324V36.2246Z" fill="white"/>
<path d="M257.077 47.0003C257.077 47.0003 254.003 47.3949 251.409 47.3949C244.535 47.3949 241.553 43.7566 241.553 37.2785V19.1634H237.668V12.8833H241.553V3.96301H249.271V12.8864H257.207L256.276 19.1665H249.271V36.4878C249.271 39.1982 250.375 40.3647 253.032 40.3647C254.33 40.3647 257.077 40.1885 257.077 40.1885V46.9988V47.0003Z" fill="white"/>
<path d="M258.177 30.0786C258.177 20.4238 264.922 12.0977 275.618 12.0977C286.314 12.0977 293.125 20.4285 293.125 30.0786C293.125 39.7288 286.38 47.9972 275.618 47.9972C264.856 47.9972 258.177 39.7334 258.177 30.0786ZM275.619 41.0512C281.26 41.0512 285.41 36.6862 285.41 30.077C285.41 23.4679 281.26 19.0358 275.619 19.0358C269.979 19.0358 265.895 23.4009 265.895 30.077C265.895 36.7532 270.044 41.0512 275.619 41.0512Z" fill="white"/>
<path d="M303.473 17.4495C304.899 14.7391 308.336 12.0927 313.848 12.0927C322.019 12.0927 326.362 17.646 326.362 25.6462V47.1984H318.644V26.638C318.644 21.9455 316.567 18.8359 311.965 18.8359C307.103 18.8359 304.055 21.9455 304.055 27.2977V47.1984H296.337V12.8864H303.469V17.4495H303.473Z" fill="white"/>
<path d="M337.326 32.3255C337.912 37.7447 341.347 41.2489 346.729 41.2489C350.298 41.2489 353.343 39.3963 354.574 36.3552H362.353C360.342 43.1656 354.375 47.9922 346.532 47.9922C336.35 47.9922 329.738 40.2571 329.738 30.0112C329.738 19.7654 336.483 12.0927 346.466 12.0927C356.449 12.0927 363 19.8277 363 29.8756C363 31.1309 362.934 32.3208 362.934 32.3208H337.323L337.327 32.3255H337.326ZM337.457 26.507H355.353C354.706 21.7475 351.463 18.5084 346.469 18.5084C341.475 18.5084 338.237 21.8145 337.457 26.507Z" fill="white"/>
<path d="M151.04 1H143.322V8.3187H151.04V1Z" fill="white"/>
</g>
<defs>
<clipPath id="clip0_1_57">
<rect width="363" height="48" fill="white"/>
</clipPath>
</defs>
</svg>
