<svg width="99" height="30" viewBox="0 0 99 30" fill="none" xmlns="http://www.w3.org/2000/svg">
<mask id="mask0_391_3" style="mask-type:luminance" maskUnits="userSpaceOnUse" x="0" y="-5" width="99" height="42">
<path d="M98.7076 -4.28583H0.246094V36.4284H98.7076V-4.28583Z" fill="white"/>
</mask>
<g mask="url(#mask0_391_3)">
<path d="M80.4903 5.23668C79.9215 5.18867 79.3411 5.18867 78.7758 5.23668L78.3125 0.25698C79.1848 0.183139 80.0778 0.183139 80.9528 0.25698L80.4903 5.23668Z" fill="#CCA15B"/>
</g>
<mask id="mask1_391_3" style="mask-type:luminance" maskUnits="userSpaceOnUse" x="0" y="-5" width="99" height="42">
<path d="M98.7076 -4.28583H0.246094V36.4284H98.7076V-4.28583Z" fill="white"/>
</mask>
<g mask="url(#mask1_391_3)">
<path d="M80.4903 23.6083C79.9215 23.6571 79.3411 23.6565 78.7758 23.6085L78.3125 28.588C79.1848 28.6621 80.0778 28.6621 80.9528 28.588L80.4903 23.6083Z" fill="#CCA15B"/>
</g>
<mask id="mask2_391_3" style="mask-type:luminance" maskUnits="userSpaceOnUse" x="0" y="-5" width="99" height="42">
<path d="M98.7076 -4.28583H0.246094V36.4284H98.7076V-4.28583Z" fill="white"/>
</mask>
<g mask="url(#mask2_391_3)">
<path d="M70.8833 18.3069C71.1245 18.8016 71.4143 19.2804 71.741 19.7245L67.4539 22.5972C66.9503 21.9126 66.5033 21.1744 66.1328 20.4144L70.8833 18.3069Z" fill="#CCA15B"/>
</g>
<mask id="mask3_391_3" style="mask-type:luminance" maskUnits="userSpaceOnUse" x="0" y="-5" width="99" height="42">
<path d="M98.7076 -4.28583H0.246094V36.4284H98.7076V-4.28583Z" fill="white"/>
</mask>
<g mask="url(#mask3_391_3)">
<path d="M87.5566 9.12096C87.8842 9.56714 88.1745 10.0467 88.4138 10.5383L93.1646 8.43161C92.7949 7.67337 92.3487 6.93496 91.844 6.24847L87.5566 9.12096Z" fill="#CCA15B"/>
</g>
<mask id="mask4_391_3" style="mask-type:luminance" maskUnits="userSpaceOnUse" x="0" y="-5" width="99" height="42">
<path d="M98.7076 -4.28583H0.246094V36.4284H98.7076V-4.28583Z" fill="white"/>
</mask>
<g mask="url(#mask4_391_3)">
<path d="M87.5566 19.7244C87.8842 19.2782 88.1745 18.7983 88.4138 18.3068L93.1646 20.4137C92.7949 21.1717 92.3487 21.9098 91.844 22.5966L87.5566 19.7244Z" fill="#CCA15B"/>
</g>
<mask id="mask5_391_3" style="mask-type:luminance" maskUnits="userSpaceOnUse" x="0" y="-5" width="99" height="42">
<path d="M98.7076 -4.28583H0.246094V36.4284H98.7076V-4.28583Z" fill="white"/>
</mask>
<g mask="url(#mask5_391_3)">
<path d="M70.8833 10.5387C71.1245 10.0442 71.4143 9.56493 71.741 9.12137L67.4539 6.24835C66.9503 6.93275 66.5033 7.67116 66.1328 8.43149L70.8833 10.5387Z" fill="#CCA15B"/>
</g>
<mask id="mask6_391_3" style="mask-type:luminance" maskUnits="userSpaceOnUse" x="0" y="-5" width="99" height="42">
<path d="M98.7076 -4.28583H0.246094V36.4284H98.7076V-4.28583Z" fill="white"/>
</mask>
<g mask="url(#mask6_391_3)">
<path d="M72.1978 26.7387C73.1479 27.2611 74.1535 27.6966 75.0295 27.9405L76.6486 23.186C76.0919 23.0279 75.4415 22.7469 74.8192 22.4051C74.1986 22.0622 73.6187 21.6648 73.1965 21.2839L69.6914 24.9994C70.3511 25.6016 71.2493 26.2153 72.1978 26.7387Z" fill="#CCA15B"/>
</g>
<mask id="mask7_391_3" style="mask-type:luminance" maskUnits="userSpaceOnUse" x="0" y="-5" width="99" height="42">
<path d="M98.7076 -4.28583H0.246094V36.4284H98.7076V-4.28583Z" fill="white"/>
</mask>
<g mask="url(#mask7_391_3)">
<path d="M87.1007 2.10675C88.0494 2.63016 88.9476 3.24358 89.6076 3.84605L86.1025 7.56132C85.6806 7.18037 85.1004 6.78325 84.4792 6.43988C83.8575 6.09807 83.2071 5.81758 82.6504 5.6592L84.2695 0.904419C85.1455 1.1489 86.1517 1.58464 87.1007 2.10675Z" fill="#CCA15B"/>
</g>
<mask id="mask8_391_3" style="mask-type:luminance" maskUnits="userSpaceOnUse" x="0" y="-5" width="99" height="42">
<path d="M98.7076 -4.28583H0.246094V36.4284H98.7076V-4.28583Z" fill="white"/>
</mask>
<g mask="url(#mask8_391_3)">
<path d="M72.1978 2.10675C71.2493 2.63016 70.3511 3.24358 69.6914 3.84605L73.1965 7.56132C73.6187 7.18037 74.1986 6.78325 74.8192 6.43988C75.4415 6.09807 76.0919 5.81758 76.6486 5.6592L75.0295 0.904419C74.1535 1.1489 73.1479 1.58464 72.1978 2.10675Z" fill="#CCA15B"/>
</g>
<mask id="mask9_391_3" style="mask-type:luminance" maskUnits="userSpaceOnUse" x="0" y="-5" width="99" height="42">
<path d="M98.7076 -4.28583H0.246094V36.4284H98.7076V-4.28583Z" fill="white"/>
</mask>
<g mask="url(#mask9_391_3)">
<path d="M87.1007 26.7386C86.1517 27.261 85.1455 27.6964 84.2695 27.9404L82.6504 23.1859C83.2071 23.0278 83.8575 22.7467 84.4792 22.4049C85.1001 22.0621 85.6806 21.6647 86.1025 21.2838L89.6076 24.9993C88.9476 25.6015 88.0494 26.2152 87.1007 26.7386Z" fill="#CCA15B"/>
</g>
<mask id="mask10_391_3" style="mask-type:luminance" maskUnits="userSpaceOnUse" x="0" y="-5" width="99" height="42">
<path d="M98.7076 -4.28583H0.246094V36.4284H98.7076V-4.28583Z" fill="white"/>
</mask>
<g mask="url(#mask10_391_3)">
<path d="M94.5506 14.4228C94.5503 13.377 94.4424 12.3279 94.2255 11.4814L89.1016 12.5207C89.2361 13.0603 89.3069 13.7379 89.3077 14.4228C89.3069 15.1077 89.2361 15.7856 89.1016 16.3249L94.2255 17.3642C94.4421 16.5175 94.5503 15.4681 94.5506 14.4228Z" fill="#CCA15B"/>
</g>
<mask id="mask11_391_3" style="mask-type:luminance" maskUnits="userSpaceOnUse" x="0" y="-5" width="99" height="42">
<path d="M98.7076 -4.28583H0.246094V36.4284H98.7076V-4.28583Z" fill="white"/>
</mask>
<g mask="url(#mask11_391_3)">
<path d="M64.7461 14.4228C64.7469 13.377 64.8544 12.3279 65.0709 11.4814L70.1949 12.5207C70.0601 13.0603 69.9901 13.7379 69.9887 14.4228C69.9901 15.1077 70.0601 15.7856 70.1949 16.3249L65.0709 17.3642C64.8546 16.5175 64.7469 15.4681 64.7461 14.4228Z" fill="#CCA15B"/>
</g>
<mask id="mask12_391_3" style="mask-type:luminance" maskUnits="userSpaceOnUse" x="0" y="-5" width="99" height="42">
<path d="M98.7076 -4.28583H0.246094V36.4284H98.7076V-4.28583Z" fill="white"/>
</mask>
<g mask="url(#mask12_391_3)">
<path d="M80.0775 9.74911C79.7873 9.72458 79.4922 9.72458 79.2048 9.74911L78.9688 7.21581C79.4129 7.17798 79.8672 7.17798 80.3127 7.21581L80.0775 9.74911Z" fill="#A7A9AC"/>
</g>
<mask id="mask13_391_3" style="mask-type:luminance" maskUnits="userSpaceOnUse" x="0" y="-5" width="99" height="42">
<path d="M98.7076 -4.28583H0.246094V36.4284H98.7076V-4.28583Z" fill="white"/>
</mask>
<g mask="url(#mask13_391_3)">
<path d="M80.0775 19.0966C79.7873 19.1208 79.4922 19.1208 79.2048 19.0966L78.9688 21.6299C79.4129 21.6677 79.8672 21.6679 80.3127 21.6299L80.0775 19.0966Z" fill="#A7A9AC"/>
</g>
<mask id="mask14_391_3" style="mask-type:luminance" maskUnits="userSpaceOnUse" x="0" y="-5" width="99" height="42">
<path d="M98.7076 -4.28583H0.246094V36.4284H98.7076V-4.28583Z" fill="white"/>
</mask>
<g mask="url(#mask14_391_3)">
<path d="M75.1882 16.3989C75.3107 16.6502 75.4583 16.8942 75.6245 17.1199L73.4434 18.5818C73.1867 18.2335 72.9593 17.858 72.7715 17.4708L75.1882 16.3989Z" fill="#A7A9AC"/>
</g>
<mask id="mask15_391_3" style="mask-type:luminance" maskUnits="userSpaceOnUse" x="0" y="-5" width="99" height="42">
<path d="M98.7076 -4.28583H0.246094V36.4284H98.7076V-4.28583Z" fill="white"/>
</mask>
<g mask="url(#mask15_391_3)">
<path d="M83.6738 11.725C83.8408 11.952 83.9882 12.196 84.1101 12.4462L86.5271 11.3744C86.339 10.9885 86.1113 10.6127 85.8546 10.2636L83.6738 11.725Z" fill="#A7A9AC"/>
</g>
<mask id="mask16_391_3" style="mask-type:luminance" maskUnits="userSpaceOnUse" x="0" y="-5" width="99" height="42">
<path d="M98.7076 -4.28583H0.246094V36.4284H98.7076V-4.28583Z" fill="white"/>
</mask>
<g mask="url(#mask16_391_3)">
<path d="M83.6738 17.1201C83.8408 16.8934 83.9882 16.6489 84.1101 16.3989L86.5271 17.4705C86.339 17.8564 86.1113 18.2322 85.8546 18.5813L83.6738 17.1201Z" fill="#A7A9AC"/>
</g>
<mask id="mask17_391_3" style="mask-type:luminance" maskUnits="userSpaceOnUse" x="0" y="-5" width="99" height="42">
<path d="M98.7076 -4.28583H0.246094V36.4284H98.7076V-4.28583Z" fill="white"/>
</mask>
<g mask="url(#mask17_391_3)">
<path d="M75.1882 12.4465C75.3107 12.195 75.4583 11.9513 75.6245 11.7253L73.4434 10.2636C73.1867 10.6117 72.9593 10.9877 72.7715 11.3744L75.1882 12.4465Z" fill="#A7A9AC"/>
</g>
<mask id="mask18_391_3" style="mask-type:luminance" maskUnits="userSpaceOnUse" x="0" y="-5" width="99" height="42">
<path d="M98.7076 -4.28583H0.246094V36.4284H98.7076V-4.28583Z" fill="white"/>
</mask>
<g mask="url(#mask18_391_3)">
<path d="M75.8589 20.689C76.3416 20.9546 76.8531 21.1764 77.2995 21.3003L78.1228 18.8813C77.8399 18.8004 77.5086 18.6582 77.1923 18.4842C76.8769 18.3094 76.5819 18.1077 76.3668 17.9136L74.584 19.804C74.9191 20.1103 75.3762 20.4223 75.8589 20.689Z" fill="#A7A9AC"/>
</g>
<mask id="mask19_391_3" style="mask-type:luminance" maskUnits="userSpaceOnUse" x="0" y="-5" width="99" height="42">
<path d="M98.7076 -4.28583H0.246094V36.4284H98.7076V-4.28583Z" fill="white"/>
</mask>
<g mask="url(#mask19_391_3)">
<path d="M83.4394 8.15671C83.9221 8.42285 84.3792 8.73543 84.7143 9.04175L82.9318 10.9321C82.7167 10.7377 82.422 10.5361 82.106 10.3615C81.79 10.1875 81.459 10.0445 81.1758 9.96411L81.9991 7.5451C82.4447 7.6693 82.9567 7.89083 83.4394 8.15671Z" fill="#A7A9AC"/>
</g>
<mask id="mask20_391_3" style="mask-type:luminance" maskUnits="userSpaceOnUse" x="0" y="-5" width="99" height="42">
<path d="M98.7076 -4.28583H0.246094V36.4284H98.7076V-4.28583Z" fill="white"/>
</mask>
<g mask="url(#mask20_391_3)">
<path d="M75.8592 8.15671C75.3764 8.42285 74.9194 8.73543 74.584 9.04175L76.3668 10.9321C76.5816 10.7377 76.8766 10.5361 77.1923 10.3615C77.5086 10.1875 77.8399 10.0445 78.1228 9.96411L77.2995 7.5451C76.8531 7.6693 76.3416 7.89083 75.8592 8.15671Z" fill="#A7A9AC"/>
</g>
<mask id="mask21_391_3" style="mask-type:luminance" maskUnits="userSpaceOnUse" x="0" y="-5" width="99" height="42">
<path d="M98.7076 -4.28583H0.246094V36.4284H98.7076V-4.28583Z" fill="white"/>
</mask>
<g mask="url(#mask21_391_3)">
<path d="M83.44 20.6891C82.9569 20.9547 82.445 21.1765 81.9991 21.3005L81.1758 18.8815C81.459 18.8006 81.79 18.6584 82.106 18.4843C82.422 18.3095 82.7167 18.1078 82.9318 17.9137L84.7143 19.8041C84.3797 20.1104 83.9227 20.4225 83.44 20.6891Z" fill="#A7A9AC"/>
</g>
<mask id="mask22_391_3" style="mask-type:luminance" maskUnits="userSpaceOnUse" x="0" y="-5" width="99" height="42">
<path d="M98.7076 -4.28583H0.246094V36.4284H98.7076V-4.28583Z" fill="white"/>
</mask>
<g mask="url(#mask22_391_3)">
<path d="M87.2311 14.4227C87.2305 13.8907 87.1756 13.3569 87.066 12.9261L84.459 13.455C84.5279 13.7295 84.564 14.0744 84.5645 14.4227C84.564 14.7711 84.5279 15.116 84.459 15.3905L87.066 15.9194C87.1756 15.4886 87.2305 14.9545 87.2311 14.4227Z" fill="#A7A9AC"/>
</g>
<mask id="mask23_391_3" style="mask-type:luminance" maskUnits="userSpaceOnUse" x="0" y="-5" width="99" height="42">
<path d="M98.7076 -4.28583H0.246094V36.4284H98.7076V-4.28583Z" fill="white"/>
</mask>
<g mask="url(#mask23_391_3)">
<path d="M72.0684 14.4228C72.0689 13.8908 72.1236 13.3569 72.234 12.9261L74.8402 13.455C74.7718 13.7295 74.7355 14.0745 74.7352 14.4228C74.7355 14.7711 74.7718 15.1161 74.8402 15.3906L72.234 15.9194C72.1236 15.4887 72.0686 14.9546 72.0684 14.4228Z" fill="#A7A9AC"/>
</g>
<path d="M38.584 22.5593H38.9993V19.5333H38.584V22.5593ZM44.8317 21.9646L43.3361 19.5412L43.3309 19.5331H42.8084V22.5593H43.2068V20.0354L44.7592 22.5512L44.7641 22.5593H45.2289V19.5331H44.8317V21.9646ZM49.4468 19.5331H48.6004V22.5593H49.4381C50.4486 22.5593 51.0518 21.9977 51.0518 21.0569V21.0188C51.0518 20.0886 50.4522 19.5331 49.4468 19.5331ZM50.623 21.0524C50.623 21.8115 50.1995 22.2294 49.4296 22.2294H49.0165V19.8582H49.4247C50.4153 19.8582 50.623 20.4894 50.623 21.0188V21.0524ZM54.0059 22.5593H54.4215V19.5333H54.0059V22.5593ZM58.816 19.544L58.8125 19.5331H58.2881L57.2048 22.5376L57.1972 22.5593H57.5928L57.8955 21.6966H59.1657L59.4692 22.548L59.4731 22.5593H59.8856L58.816 19.544ZM58.0122 21.3755L58.5328 19.9012L59.0528 21.3755H58.0122Z" fill="black"/>
<path d="M11.464 12.0557H14.5007V15.2105C13.6934 15.522 12.746 15.6575 11.4112 15.6575C8.56091 15.6575 6.56967 13.9889 6.56967 11.5999C6.56967 9.2106 8.56091 7.54201 11.4112 7.54201C12.8236 7.54201 14.3542 7.88642 15.3109 8.42001L16.0726 8.84453V7.31188L15.7986 7.17698C14.6724 6.62121 13.073 6.30237 11.4112 6.30237C7.34998 6.30237 4.40234 8.53012 4.40234 11.5999C4.40234 14.6694 7.34998 16.8974 11.4112 16.8974C13.3623 16.8974 15.0298 16.5415 16.369 15.8391L16.6312 15.7013V10.8158H11.464V12.0557ZM21.9897 13.2408C21.9897 14.8296 21.6119 15.4931 19.2726 15.4931H18.5051V16.733H19.2726C22.4892 16.733 24.1201 15.5904 24.1201 13.3368V6.46649H21.9897V13.2408ZM27.4423 16.733H35.9823V15.4931H29.573V12.0554H33.7488V10.8158H29.573V7.70613H35.9823V6.46649H27.4423V16.733ZM42.6497 6.46649H38.6032V16.733H40.7336V12.2882H42.6497C45.626 12.2882 47.4037 11.2025 47.4037 9.38438C47.4037 7.55714 45.6263 6.46649 42.6497 6.46649ZM42.6497 11.0483H40.7336V7.70613H42.6497C44.9614 7.70613 45.2731 8.55438 45.2731 9.38438C45.2733 10.2071 44.9614 11.0483 42.6497 11.0483ZM59.1319 14.8178C58.193 15.3279 56.7555 15.6575 55.4696 15.6575C52.6297 15.6575 50.7213 14.0267 50.7213 11.5999C50.7213 9.17277 52.6368 7.54201 55.4882 7.54201C56.715 7.54201 58.0561 7.84416 58.9056 8.31173L59.6645 8.72972V7.21507L59.3898 7.08018C58.379 6.58599 56.9572 6.30237 55.4879 6.30237C51.4704 6.30237 48.5532 8.53012 48.5532 11.5999C48.5532 14.6694 51.462 16.8974 55.4693 16.8974C57.0628 16.8974 58.5364 16.5957 59.6192 16.0478L59.8882 15.9116V14.4071L59.1319 14.8178Z" fill="black"/>
</svg>
