<svg width="13" height="14" viewBox="0 0 13 14" fill="none" xmlns="http://www.w3.org/2000/svg">
<g clip-path="url(#clip0_217_3177)">
<path d="M0.650391 5.0499H12.3504M3.25039 1.1499V2.4499M9.75039 1.1499V2.4499M2.60039 7.6499H3.90039M2.60039 10.2499H3.90039M5.85039 7.6499H7.15039M5.85039 10.2499H7.15039M9.10039 7.6499H10.4004M9.10039 10.2499H10.4004M2.73039 12.8499H10.2704C10.9985 12.8499 11.3625 12.8499 11.6406 12.7082C11.8852 12.5836 12.0841 12.3847 12.2087 12.1401C12.3504 11.862 12.3504 11.498 12.3504 10.7699V4.5299C12.3504 3.80183 12.3504 3.4378 12.2087 3.15972C12.0841 2.9151 11.8852 2.71623 11.6406 2.5916C11.3625 2.4499 10.9985 2.4499 10.2704 2.4499H2.73039C2.00233 2.4499 1.63829 2.4499 1.3602 2.5916C1.11559 2.71623 0.916715 2.9151 0.792084 3.15972C0.650391 3.4378 0.650391 3.80183 0.650391 4.5299V10.7699C0.650391 11.498 0.650391 11.862 0.792084 12.1401C0.916715 12.3847 1.11559 12.5836 1.3602 12.7082C1.63829 12.8499 2.00232 12.8499 2.73039 12.8499Z" stroke="white" stroke-linecap="round" stroke-linejoin="round"/>
</g>
<defs>
<clipPath id="clip0_217_3177">
<rect width="13" height="13" fill="white" transform="translate(0 0.5)"/>
</clipPath>
</defs>
</svg>
