<svg width="30" height="30" viewBox="0 0 30 30" fill="none" xmlns="http://www.w3.org/2000/svg">
<path d="M27.777 0H11.1941C10.0122 0 9.05078 0.9615 9.05078 2.1433V7.17378H11.0073V2.1433C11.0073 2.04033 11.0911 1.95652 11.1941 1.95652H27.777C27.88 1.95652 27.9638 2.04033 27.9638 2.1433V18.7263C27.9638 18.8293 27.88 18.9131 27.777 18.9131H22.9034V20.8696H27.777C28.9588 20.8696 29.9203 19.9081 29.9203 18.7263V2.1433C29.9203 0.9615 28.9588 0 27.777 0Z" fill="white"/>
<path d="M18.8044 9.12988H2.22149C1.03963 9.12988 0.078125 10.0914 0.078125 11.2733V27.8562C0.0781902 29.0381 1.03963 29.9996 2.22149 29.9996H18.8045C19.9863 29.9996 20.9478 29.0381 20.9478 27.8563V11.2733C20.9479 10.0914 19.9863 9.12988 18.8044 9.12988ZM18.8045 28.0431H2.22149C2.11845 28.0431 2.03465 27.9593 2.03465 27.8563V11.2733C2.03465 11.1702 2.11845 11.0864 2.22149 11.0864H18.8045C18.9075 11.0864 18.9913 11.1702 18.9913 11.2733V27.8563H18.9914C18.9914 27.9593 18.9075 28.0431 18.8045 28.0431Z" fill="white"/>
</svg>
