<svg width="219" height="101" viewBox="0 0 219 101" fill="none" xmlns="http://www.w3.org/2000/svg">
<path d="M4.44621 54.3136C4.35658 53.9254 4.31043 53.4911 4.30775 53.0106C4.31649 52.5275 4.36519 52.0352 4.45386 51.5336C4.53989 51.0207 4.66984 50.5156 4.84371 50.0184C5.01494 49.5099 5.23361 49.0504 5.49971 48.6402C5.76318 48.2186 6.07233 47.8646 6.42716 47.5782C6.77935 47.2804 7.1781 47.0801 7.62342 46.9773C7.98881 46.8929 8.34323 46.8652 8.68667 46.8942C9.02747 46.9117 9.33446 46.9912 9.60765 47.1326C9.88083 47.274 10.1145 47.4786 10.3086 47.7465C10.5116 48.0003 10.6592 48.3271 10.7514 48.7267C10.5002 48.7847 10.2802 48.7693 10.0913 48.6806C9.91125 48.5779 9.73425 48.4624 9.56033 48.3342C9.39782 48.2033 9.22214 48.0935 9.03328 48.0048C8.85585 47.9135 8.64723 47.8955 8.40745 47.9509C8.05348 48.0326 7.73201 48.203 7.44306 48.4622C7.16552 48.7187 6.91961 49.034 6.70533 49.4082C6.50246 49.7798 6.33737 50.1847 6.21005 50.6231C6.09415 51.0587 6.0024 51.4948 5.93481 51.9314C5.876 52.3539 5.84441 52.7641 5.84006 53.162C5.84712 53.5572 5.88229 53.8919 5.94556 54.1659C6.08264 54.7597 6.29744 55.2994 6.58998 55.7851C6.8913 56.2568 7.25235 56.6485 7.67311 56.9603C8.09124 57.2606 8.57084 57.4626 9.11192 57.5662C9.65299 57.6698 10.2375 57.6491 10.8655 57.5041C11.2652 57.4118 11.6288 57.2678 11.9564 57.0719C12.2928 56.8619 12.6108 56.6502 12.9103 56.4367C13.2185 56.2092 13.5238 55.9944 13.8259 55.7924C14.128 55.5903 14.4447 55.4511 14.7758 55.3746C14.8215 55.3641 14.8856 55.3553 14.9682 55.3482C15.0595 55.3271 15.1421 55.3201 15.2158 55.3271C15.3011 55.3315 15.3788 55.3557 15.4491 55.3996C15.5167 55.4321 15.5624 55.4997 15.5861 55.6025C15.681 56.0135 15.6015 56.3987 15.3477 56.758C15.1053 57.1146 14.7883 57.4344 14.3966 57.7172C14.0022 57.9887 13.5802 58.2184 13.1305 58.4064C12.6808 58.5944 12.3075 58.7227 12.0106 58.7912C11.1428 58.9916 10.3005 59.0417 9.48359 58.9417C8.66407 58.8302 7.91525 58.5821 7.23712 58.1975C6.55899 57.8128 5.97703 57.2977 5.49124 56.6522C5.00281 55.9952 4.65447 55.2157 4.44621 54.3136ZM15.3113 54.3309C15.1479 53.623 15.1619 52.9282 15.3533 52.2466C15.5421 51.5535 15.8547 50.9281 16.2912 50.3703C16.7365 49.7984 17.2669 49.3092 17.8826 48.9024C18.5097 48.493 19.1715 48.208 19.8681 48.0471C20.2563 47.9575 20.6278 48.004 20.9827 48.1867C21.349 48.3667 21.6771 48.6157 21.967 48.9337C22.2542 49.2402 22.4954 49.5814 22.6904 49.9573C22.8969 50.3306 23.0344 50.6657 23.1029 50.9626C23.2505 51.602 23.24 52.2599 23.0715 52.9362C22.9002 53.6012 22.6232 54.2244 22.2403 54.8059C21.8547 55.376 21.3866 55.8749 20.8359 56.3027C20.2852 56.7306 19.7016 57.0156 19.085 57.158C18.5369 57.2845 18.0534 57.2999 17.6344 57.2042C17.2128 57.0971 16.8522 56.9158 16.5526 56.6602C16.2505 56.3932 15.9935 56.0616 15.7818 55.6655C15.5789 55.2554 15.422 54.8105 15.3113 54.3309ZM16.8067 54.1661C16.8752 54.463 16.9587 54.7203 17.0571 54.9381C17.1643 55.1419 17.2991 55.3092 17.4616 55.4401C17.6356 55.5683 17.8415 55.653 18.0796 55.6943C18.315 55.7241 18.5925 55.7022 18.9123 55.6283C19.3347 55.5308 19.7309 55.3191 20.1006 54.9932C20.4677 54.6559 20.776 54.272 21.0254 53.8416C21.2836 53.3971 21.4654 52.9342 21.5707 52.4528C21.6761 51.9715 21.6813 51.5253 21.5864 51.1142C21.5442 50.9315 21.481 50.7356 21.3966 50.5266C21.3123 50.3176 21.2091 50.1309 21.087 49.9667C20.9649 49.8024 20.8151 49.6747 20.6377 49.5833C20.4602 49.492 20.2573 49.4727 20.0289 49.5254C19.8234 49.5729 19.5937 49.698 19.3399 49.901C19.0975 50.1013 18.8472 50.3455 18.589 50.6336C18.3422 50.9191 18.102 51.2331 17.8684 51.5757C17.6462 51.9156 17.4468 52.2503 17.2703 52.5797C17.0938 52.9091 16.9603 53.2166 16.8699 53.502C16.7908 53.7849 16.7698 54.0062 16.8067 54.1661ZM22.7569 49.6172C22.5012 48.5096 22.5683 47.6282 22.9583 46.9729C23.3482 46.3176 24.0741 45.8674 25.136 45.6222C25.5699 45.5221 26.0245 45.4592 26.4997 45.4337C26.9863 45.4055 27.4474 45.4494 27.8831 45.5653C28.3161 45.6698 28.6934 45.8713 29.0149 46.17C29.3478 46.4659 29.5789 46.8937 29.7081 47.4532C29.8504 48.0698 29.8478 48.6837 29.7003 49.2951C29.5616 49.8924 29.3421 50.4783 29.0417 51.0527C28.7502 51.6132 28.4063 52.1556 28.0102 52.68C27.6229 53.1904 27.2602 53.677 26.9221 54.1399C26.9098 54.1909 26.9094 54.2932 26.9208 54.4469C26.941 54.5866 26.9564 54.6792 26.967 54.7249C27.0539 55.1017 27.2494 55.4535 27.5534 55.7802C27.8714 56.1157 28.2065 56.4473 28.5587 56.7749C28.9136 57.1139 29.2483 57.4696 29.5628 57.842C29.8773 58.2144 30.0872 58.6289 30.1927 59.0857C30.256 59.3597 30.2358 59.5327 30.1321 59.6048C30.0311 59.6882 29.7979 59.7721 29.4325 59.8565C29.1831 59.8179 28.9046 59.6536 28.5972 59.3638C28.3038 59.0828 27.9862 58.7231 27.6445 58.2848C27.3142 57.8439 26.9694 57.3402 26.6101 56.7737C26.2648 56.216 25.9227 55.6455 25.5836 55.0623C25.2533 54.4651 24.9313 53.8779 24.6176 53.3009C24.3128 52.7098 24.0369 52.1661 23.7901 51.6698C23.5432 51.1736 23.3249 50.7489 23.1351 50.3959C22.9542 50.0287 22.8281 49.7692 22.7569 49.6172ZM24.2484 49.4353C24.2879 49.6065 24.3573 49.8551 24.4566 50.181C24.5533 50.4954 24.6728 50.8046 24.8151 51.1085C24.9688 51.4097 25.1476 51.6631 25.3514 51.8686C25.5525 52.0627 25.7844 52.1295 26.0471 52.0688C26.401 51.9871 26.7273 51.7855 27.0259 51.464C27.336 51.1399 27.5858 50.7635 27.7755 50.3348C27.9766 49.9035 28.1153 49.4626 28.1917 49.012C28.2769 48.5473 28.2799 48.1437 28.2008 47.8011C28.1349 47.5157 28.015 47.3088 27.8411 47.1806C27.6645 47.041 27.4572 46.9505 27.2192 46.9093C26.9899 46.854 26.7528 46.8426 26.5077 46.8751C26.26 46.8962 26.0277 46.9318 25.8107 46.9819C25.1599 47.1321 24.6983 47.4251 24.4261 47.8608C24.1626 48.2824 24.1034 48.8073 24.2484 49.4353ZM29.2632 45.4451C29.2395 45.3424 29.2158 45.2396 29.1921 45.1368C29.1771 45.02 29.1762 44.912 29.1894 44.8127C29.2113 44.6994 29.2513 44.612 29.3093 44.5505C29.376 44.475 29.4836 44.4201 29.632 44.3858C29.6435 44.3832 29.6549 44.3805 29.6663 44.3779C29.6891 44.3726 29.712 44.3673 29.7348 44.3621C29.7717 44.3656 29.8016 44.3647 29.8244 44.3594C30.1099 44.6062 30.3866 44.9452 30.6545 45.3765C30.9198 45.7963 31.1873 46.2517 31.457 46.7427C31.7241 47.2223 32.0052 47.7106 32.3004 48.2077C32.5929 48.6934 32.925 49.1159 33.2966 49.4751C33.6682 49.8343 34.0828 50.0934 34.5404 50.2523C34.9981 50.4113 35.5198 50.4051 36.1056 50.2337C36.3683 50.1731 36.5066 49.9908 36.5206 49.6869C36.5346 49.383 36.4903 49.0084 36.3874 48.5631C36.296 48.1151 36.1713 47.6268 36.0131 47.098C35.8664 46.5666 35.7491 46.0585 35.6612 45.5737C35.5821 45.0748 35.5689 44.6268 35.6215 44.2298C35.6856 43.8301 35.8802 43.5266 36.2051 43.3193C36.4221 43.5819 36.6501 44.0224 36.8891 44.6407C37.1368 45.245 37.3797 45.9586 37.6179 46.7816C37.8533 47.5932 38.0831 48.4843 38.3072 49.4549C38.5286 50.414 38.7272 51.3784 38.903 52.3481C39.0761 53.3064 39.2185 54.2357 39.3301 55.136C39.4418 56.0363 39.5169 56.8308 39.5556 57.5194C39.5944 58.208 39.5773 58.7592 39.5044 59.1729C39.4456 59.5954 39.324 59.7979 39.1395 59.7803C38.847 59.6073 38.5901 59.3539 38.3687 59.0202C38.1587 58.6838 37.9738 58.2995 37.8139 57.8674C37.6654 57.4326 37.5389 56.9627 37.4343 56.4577C37.3324 55.964 37.2348 55.4634 37.1417 54.9557C37.0599 54.4454 36.9808 53.9465 36.9044 53.459C36.8393 52.9689 36.7607 52.524 36.6684 52.1243C36.2653 52.2535 35.8283 52.2882 35.3575 52.2286C34.8981 52.1662 34.4246 52.017 33.9371 51.7807C33.447 51.5331 32.9581 51.213 32.4706 50.8204C31.9945 50.4252 31.5439 49.9579 31.1187 49.4186C30.7049 48.8767 30.3377 48.276 30.0171 47.6164C29.6938 46.9453 29.4425 46.2216 29.2632 45.4451ZM44.1656 42.2392C44.1577 42.2049 44.1568 42.175 44.163 42.1496C44.1577 42.1267 44.1568 42.0969 44.1603 42.06C44.1928 41.9923 44.2442 41.9023 44.3145 41.7899C44.3847 41.6774 44.4313 41.6186 44.4541 41.6133L47.8968 40.8185C47.8678 40.6929 47.8045 40.497 47.707 40.2309C47.6095 39.9648 47.5053 39.6701 47.3946 39.3469C47.2954 39.021 47.2106 38.6798 47.1403 38.3232C47.0673 37.9551 47.0379 37.6192 47.0519 37.3153C47.0747 36.9973 47.1564 36.7259 47.2969 36.501C47.4462 36.2621 47.6921 36.1031 48.0347 36.024C48.3009 37.1772 48.5944 38.0837 48.915 38.7433C49.2357 39.4029 49.5708 39.8908 49.9204 40.207C50.2815 40.5205 50.6464 40.6948 51.0154 40.7299C51.3843 40.765 51.7444 40.736 52.0957 40.6429C52.4559 40.5357 52.7966 40.3969 53.1181 40.2265C53.4396 40.056 53.7277 39.9234 53.9824 39.8285C54.2485 39.731 54.472 39.7094 54.653 39.7639C54.8313 39.8069 54.9574 39.9882 55.0312 40.308C55.0865 40.5477 55.069 40.7322 54.9785 40.8613C54.8995 40.9878 54.7124 41.1152 54.4173 41.2435C54.3286 41.276 54.1797 41.3344 53.9707 41.4187C53.7704 41.489 53.5416 41.5659 53.2842 41.6494C53.0269 41.7328 52.7537 41.826 52.4648 41.9288C52.1732 42.0201 51.8987 42.1076 51.6413 42.191C51.384 42.2745 51.1481 42.347 50.9338 42.4085C50.7169 42.4586 50.557 42.4955 50.4543 42.5192C50.4674 42.5763 50.4841 42.6747 50.5044 42.8143C50.5246 42.954 50.54 43.0467 50.5505 43.0923C50.6665 43.5947 50.8598 44.0673 51.1303 44.5099C51.3983 44.9412 51.6776 45.3698 51.9684 45.7958C52.2706 46.2191 52.5557 46.6464 52.8236 47.0777C53.0916 47.5089 53.2835 47.9757 53.3995 48.4782C53.4206 48.5695 53.4316 48.6692 53.4325 48.7772C53.4422 48.8712 53.4277 48.9648 53.389 49.0579C53.3592 49.1369 53.2968 49.2054 53.202 49.2634C53.1212 49.3302 52.9885 49.3548 52.8041 49.3372C52.3438 49.3232 51.9617 49.1529 51.6578 48.8261C51.3652 48.4968 51.1083 48.0871 50.8869 47.597C50.6629 47.0954 50.4665 46.5575 50.2978 45.983C50.1291 45.4086 49.9468 44.8794 49.7509 44.3955C49.5637 43.8974 49.3494 43.4899 49.1078 43.1728C48.8636 42.8444 48.5553 42.681 48.1828 42.6828L44.7032 42.6924C44.6576 42.7029 44.5785 42.673 44.4661 42.6028C44.351 42.5211 44.2768 42.4601 44.2434 42.4197C44.2267 42.3995 44.2144 42.3722 44.2065 42.338C44.1898 42.3178 44.1762 42.2848 44.1656 42.2392ZM54.7733 37.1563C54.7443 37.0307 54.7202 36.8739 54.7008 36.6859C54.6903 36.4839 54.6995 36.2893 54.7284 36.1023C54.7688 35.9125 54.8329 35.7474 54.9207 35.6068C55.0059 35.4549 55.1399 35.3578 55.3226 35.3156C55.334 35.313 55.3638 35.3121 55.4122 35.313C55.4605 35.3139 55.4903 35.313 55.5017 35.3103C55.8593 35.9735 56.1356 36.6493 56.3307 37.338C56.5257 38.0266 56.6712 38.7086 56.767 39.384C56.8601 40.0481 56.9208 40.7016 56.949 41.3445C56.9745 41.9761 57.0066 42.558 57.0453 43.0902C57.0954 43.6199 57.1565 44.0929 57.2286 44.5092C57.3121 44.9229 57.4553 45.2567 57.6582 45.5105C57.5932 45.3331 57.526 45.1201 57.4566 44.8715C57.3959 44.6089 57.3568 44.3353 57.3392 44.0507C57.333 43.7635 57.3554 43.4697 57.4063 43.1693C57.4687 42.8662 57.589 42.5799 57.7673 42.3102C57.9455 42.0405 58.1972 41.802 58.5221 41.5947C58.8585 41.3847 59.2951 41.2178 59.8317 41.0939C60.3912 40.9647 60.8932 40.9511 61.3377 41.0529C61.7935 41.1521 62.1923 41.3427 62.534 41.6246C62.8731 41.8951 63.1582 42.2443 63.3892 42.672C63.629 43.0857 63.8083 43.5494 63.9269 44.0633C63.9823 44.303 64.0398 44.5784 64.0996 44.8893C64.1681 45.1862 64.1927 45.4752 64.1734 45.7563C64.1629 46.0233 64.0817 46.2706 63.9298 46.4981C63.7866 46.7115 63.5323 46.8604 63.1669 46.9448C63.1248 46.7621 63.0795 46.514 63.0312 46.2004C62.9802 45.8754 62.9139 45.5359 62.8321 45.182C62.7618 44.8253 62.6674 44.4683 62.5488 44.1108C62.4416 43.7507 62.2922 43.4424 62.1007 43.186C61.9066 42.9181 61.6742 42.7191 61.4037 42.5892C61.1419 42.4451 60.8169 42.4179 60.4287 42.5076C60.2917 42.5392 60.123 42.5902 59.9228 42.6605C59.7313 42.7167 59.5433 42.8142 59.3589 42.953C59.1745 43.0918 59.0076 43.2807 58.8583 43.5196C58.7064 43.7471 58.6115 44.0396 58.5738 44.3971C58.5334 44.7432 58.5598 45.1701 58.653 45.6777C58.7549 46.1714 58.9574 46.762 59.2605 47.4498C59.228 47.6738 59.1529 47.8174 59.0352 47.8806C58.929 47.9412 58.7845 47.9926 58.6018 48.0348C58.2364 48.1192 57.9048 48.0634 57.607 47.8676C57.318 47.6577 57.0606 47.3503 56.8349 46.9454C56.6091 46.5405 56.4075 46.0578 56.23 45.4975C56.0639 44.9345 55.9154 44.3433 55.7845 43.7241C55.6509 43.0935 55.5332 42.4531 55.4312 41.8032C55.338 41.1391 55.2484 40.5164 55.1623 39.9349C55.0849 39.3394 55.015 38.8023 54.9526 38.3236C54.899 37.8308 54.8392 37.4417 54.7733 37.1563ZM63.7401 40.0473C63.7243 39.9788 63.6993 39.8703 63.665 39.7218C63.6395 39.5594 63.607 39.3925 63.5674 39.2212C63.5393 39.0473 63.5068 38.8804 63.4699 38.7205C63.4444 38.558 63.4238 38.4425 63.4079 38.374C63.4914 38.1623 63.6169 37.977 63.7847 37.818C63.9639 37.6564 64.1483 37.5176 64.338 37.4016C64.5146 38.0103 64.7633 38.6444 65.0839 39.3041C65.4046 39.9637 65.738 40.6264 66.0841 41.2921C66.4276 41.9465 66.747 42.6004 67.0422 43.2538C67.3488 43.9047 67.5706 44.527 67.7077 45.1207C67.8263 45.6346 67.623 45.9521 67.0978 46.0734C66.778 46.1472 66.4794 46.0778 66.2018 45.8653C65.9242 45.6527 65.6708 45.3625 65.4415 44.9945C65.221 44.6124 65.0141 44.1851 64.8208 43.7126C64.6249 43.2286 64.4545 42.7508 64.3095 42.2791C64.1759 41.8048 64.0573 41.3692 63.9536 40.9722C63.8614 40.5725 63.7902 40.2642 63.7401 40.0473ZM62.4971 33.5691C62.7351 33.6103 62.9521 33.7166 63.148 33.8878C63.3439 34.0591 63.4501 34.233 63.4669 34.4096C63.4923 34.5721 63.3931 34.7152 63.1691 34.8391C62.9425 34.9516 62.5271 34.9753 61.9227 34.9104C61.8516 34.6021 61.8467 34.3206 61.9082 34.0658C61.9811 33.8085 62.1774 33.6429 62.4971 33.5691ZM70.9547 44.335C71.1084 44.1672 71.2885 43.9573 71.4948 43.7052C71.71 43.439 71.9226 43.1614 72.1325 42.8724C72.3424 42.5834 72.5325 42.287 72.7029 41.983C72.8732 41.6791 72.9949 41.3985 73.0677 41.1411C73.1494 40.8697 73.1665 40.6312 73.1191 40.4257C73.0716 40.2201 72.9293 40.0726 72.6921 39.983C72.3267 40.0674 71.9311 40.1768 71.5051 40.3112C71.0764 40.4342 70.6452 40.5458 70.2113 40.646C69.7747 40.7347 69.343 40.7923 68.9162 40.8187C68.5007 40.8425 68.112 40.7999 67.7501 40.691C67.3882 40.5821 67.072 40.3845 66.8014 40.0982C66.5397 39.7978 66.3481 39.385 66.2269 38.8598C66.0845 38.2432 66.0709 37.663 66.1859 37.1193C66.3097 36.5615 66.5222 36.0494 66.8234 35.583C67.122 35.1052 67.4781 34.6681 67.8918 34.272C68.3143 33.8617 68.7473 33.4972 69.1908 33.1783C69.5061 33.1897 69.8131 33.2691 70.1118 33.4167C70.4104 33.5642 70.6801 33.7425 70.9208 33.9515C70.8989 34.2212 70.7838 34.4522 70.5757 34.6446C70.3789 34.8343 70.1383 35.0162 69.8537 35.1901C69.5806 35.3614 69.2916 35.5424 68.9868 35.733C68.682 35.9236 68.415 36.1476 68.1858 36.405C67.9654 36.6483 67.7994 36.9452 67.6879 37.2957C67.5737 37.6348 67.5733 38.0498 67.6867 38.5408C67.771 38.9062 67.9243 39.1534 68.1466 39.2825C68.3688 39.4116 68.6363 39.4762 68.949 39.4761C69.259 39.4647 69.6011 39.4098 69.9753 39.3113C70.3468 39.2015 70.7228 39.0847 71.1031 38.9608C71.4948 38.8342 71.8791 38.7275 72.2559 38.6405C72.6301 38.5421 72.9775 38.51 73.2981 38.5442C73.616 38.567 73.8857 38.6671 74.1071 38.8445C74.3398 39.0193 74.505 39.3179 74.6025 39.7404C74.6447 39.9231 74.636 40.1717 74.5763 40.4862C74.528 40.798 74.4393 41.1432 74.3102 41.5218C74.1899 41.8863 74.0296 42.26 73.8294 42.643C73.6406 43.0234 73.4281 43.3791 73.1918 43.7103C72.9644 44.0274 72.722 44.3059 72.4646 44.5457C72.2161 44.7714 71.9662 44.9133 71.715 44.9713C71.4752 45.0267 71.2956 44.9779 71.1761 44.8251C71.0681 44.6697 70.9943 44.5063 70.9547 44.335ZM81.248 37.3402C81.1373 36.8607 81.1241 36.3345 81.2083 35.7618C81.304 35.1865 81.4801 34.6467 81.7365 34.1425C81.9903 33.6269 82.3126 33.1737 82.7035 32.7828C83.1057 32.3892 83.5638 32.1331 84.0776 32.0145C84.3402 31.9539 84.6134 31.9389 84.8971 31.9696C85.1808 32.0003 85.4452 32.0776 85.6903 32.2014C85.9468 32.3226 86.1655 32.4886 86.3465 32.6994C86.5388 32.9076 86.6693 33.1601 86.7378 33.457C86.5323 33.5044 86.3386 33.5251 86.1568 33.5189C85.9864 33.5102 85.8147 33.4957 85.6416 33.4755C85.466 33.4439 85.2929 33.4237 85.1225 33.4149C84.9635 33.4035 84.7927 33.4189 84.61 33.4611C84.1419 33.5692 83.787 33.7774 83.5455 34.0857C83.3128 34.38 83.1516 34.7239 83.0621 35.1174C82.9725 35.5109 82.9409 35.9211 82.9673 36.348C83.0025 36.7608 83.0609 37.1442 83.1427 37.4982C83.1558 37.5553 83.1809 37.6637 83.2178 37.8236C83.2661 37.9808 83.3114 38.1508 83.3535 38.3335C83.4045 38.5021 83.4484 38.6664 83.4853 38.8262C83.5337 38.9834 83.5701 39.0893 83.5947 39.1437C83.7836 39.3888 83.9523 39.5723 84.1007 39.6944C84.2606 39.8139 84.4183 39.8977 84.5737 39.946C84.7266 39.9829 84.8855 39.9943 85.0507 39.9802C85.2132 39.9547 85.4029 39.917 85.6198 39.8669C85.9167 39.7983 86.1631 39.6933 86.359 39.5519C86.5662 39.4078 86.7524 39.2506 86.9175 39.0802C87.0827 38.9098 87.2337 38.7306 87.3707 38.5426C87.5051 38.3432 87.6491 38.1596 87.8028 37.9918C87.9653 37.81 88.1458 37.6541 88.3443 37.524C88.5516 37.38 88.7979 37.275 89.0834 37.2091C89.2126 37.7686 89.2245 38.289 89.1191 38.7704C89.0252 39.2491 88.8311 39.6847 88.5369 40.0774C88.2541 40.4674 87.887 40.8047 87.4355 41.0894C86.9929 41.3599 86.4861 41.5611 85.9151 41.6929C85.3785 41.8168 84.851 41.7462 84.3328 41.481C83.8259 41.2131 83.3577 40.8522 82.9282 40.3981C82.5074 39.93 82.1485 39.4175 81.8516 38.8606C81.5547 38.3038 81.3535 37.797 81.248 37.3402ZM89.3608 37.2352C89.1973 36.5273 89.2113 35.8325 89.4027 35.1509C89.5915 34.4579 89.9041 33.8324 90.3406 33.2746C90.7859 32.7028 91.3164 32.2135 91.9321 31.8068C92.5592 31.3974 93.221 31.1123 93.9175 30.9515C94.3058 30.8619 94.6773 30.9084 95.0322 31.091C95.3985 31.2711 95.7266 31.52 96.0165 31.838C96.3037 32.1445 96.5448 32.4857 96.7399 32.8616C96.9463 33.2349 97.0838 33.57 97.1524 33.8669C97.3 34.5063 97.2895 35.1642 97.1209 35.8406C96.9497 36.5055 96.6726 37.1287 96.2897 37.7102C95.9042 38.2803 95.4361 38.7793 94.8854 39.2071C94.3347 39.6349 93.751 39.92 93.1345 40.0623C92.5864 40.1889 92.1028 40.2043 91.6839 40.1086C91.2622 40.0014 90.9016 39.8201 90.6021 39.5645C90.2999 39.2975 90.043 38.966 89.8313 38.5699C89.6283 38.1597 89.4715 37.7148 89.3608 37.2352ZM90.8562 37.0704C90.9247 37.3673 91.0082 37.6246 91.1066 37.8425C91.2137 38.0462 91.3486 38.2135 91.5111 38.3444C91.685 38.4726 91.891 38.5574 92.129 38.5986C92.3644 38.6285 92.642 38.6065 92.9617 38.5327C93.3842 38.4351 93.7803 38.2234 94.1501 37.8975C94.5172 37.5602 94.8255 37.1763 95.0749 36.7459C95.3331 36.3014 95.5148 35.8385 95.6202 35.3572C95.7256 34.8758 95.7308 34.4296 95.6359 34.0185C95.5937 33.8359 95.5305 33.64 95.4461 33.4309C95.3618 33.2219 95.2585 33.0353 95.1364 32.871C95.0143 32.7068 94.8646 32.579 94.6871 32.4877C94.5097 32.3963 94.3068 32.377 94.0784 32.4297C93.8729 32.4772 93.6432 32.6024 93.3894 32.8053C93.147 33.0056 92.8967 33.2498 92.6384 33.5379C92.3917 33.8234 92.1515 34.1375 91.9178 34.48C91.6957 34.82 91.4963 35.1547 91.3198 35.4841C91.1433 35.8135 91.0098 36.1209 90.9193 36.4064C90.8403 36.6892 90.8192 36.9106 90.8562 37.0704ZM97.4221 36.9076C97.2692 36.2453 97.299 35.619 97.5115 35.0288C97.724 34.4385 98.0323 33.8983 98.4363 33.4081C98.8376 32.9065 99.2935 32.4585 99.8038 32.0641C100.311 31.6582 100.791 31.313 101.242 31.0284C101.691 30.7323 102.069 30.4947 102.377 30.3155C102.682 30.1248 102.826 29.9953 102.81 29.9268C102.718 29.5271 102.605 29.1442 102.473 28.7779C102.349 28.3976 102.219 28.0186 102.084 27.6409C101.949 27.2632 101.815 26.8913 101.682 26.525C101.558 26.1447 101.453 25.7661 101.366 25.3893L101.109 24.276C101.537 23.9967 101.872 23.9373 102.114 24.098C102.367 24.2561 102.483 24.6022 102.462 25.1362C102.566 25.3769 102.719 25.7563 102.923 26.2745C103.127 26.7928 103.352 27.3782 103.599 28.0308C103.857 28.6807 104.124 29.3649 104.398 30.0834C104.683 30.7992 104.951 31.4892 105.2 32.1532C105.459 32.8031 105.684 33.3885 105.876 33.9094C106.066 34.4188 106.209 34.8009 106.303 35.0556C106.328 35.1101 106.366 35.2216 106.417 35.3902C106.465 35.5475 106.512 35.7231 106.556 35.9172C106.61 36.0973 106.655 36.2673 106.692 36.4271C106.741 36.5843 106.773 36.6972 106.788 36.7657C106.355 36.8659 106.054 36.9173 105.886 36.92C105.73 36.92 105.617 36.8739 105.547 36.7816C105.489 36.6868 105.438 36.5423 105.393 36.3482C105.348 36.1541 105.229 35.8989 105.036 35.5827C104.69 36.0114 104.354 36.3777 104.027 36.6817C103.7 36.9856 103.364 37.2496 103.019 37.4736C102.671 37.6862 102.308 37.8601 101.931 37.9954C101.567 38.1395 101.168 38.2617 100.735 38.3618C100.369 38.4462 100.009 38.4994 99.6528 38.5213C99.3059 38.5293 98.9827 38.4836 98.6831 38.3844C98.3836 38.2852 98.1223 38.117 97.8991 37.8799C97.676 37.6427 97.517 37.3186 97.4221 36.9076ZM98.8292 36.2039C98.8713 36.3866 98.9456 36.5258 99.0519 36.6215C99.1582 36.7172 99.2833 36.7906 99.4274 36.8415C99.5714 36.8924 99.7159 36.9192 99.8609 36.9218C100.015 36.9104 100.16 36.8889 100.297 36.8572C100.697 36.765 101.108 36.5919 101.53 36.338C101.961 36.0701 102.339 35.7543 102.664 35.3906C102.998 35.0129 103.246 34.6009 103.407 34.1547C103.58 33.7058 103.614 33.253 103.509 32.7963C103.427 32.4423 103.308 32.2113 103.15 32.1033C102.993 31.9953 102.737 31.9821 102.383 32.0638C102.018 32.1482 101.61 32.3327 101.158 32.6173C100.718 32.8993 100.303 33.2358 99.9119 33.6267C99.5325 34.0149 99.2335 34.4388 99.0148 34.8982C98.7935 35.3462 98.7316 35.7814 98.8292 36.2039ZM106.022 32.0357C105.88 31.4191 105.811 30.7854 105.817 30.1345C105.824 29.4836 105.93 28.8758 106.136 28.311C106.354 27.7436 106.684 27.2464 107.127 26.8195C107.581 26.3899 108.179 26.0894 108.921 25.9181C109.344 25.8206 109.733 25.8148 110.09 25.9008C110.444 25.9755 110.758 26.1133 111.033 26.3145C111.308 26.5156 111.537 26.7756 111.718 27.0944C111.909 27.3992 112.047 27.7342 112.131 28.0996C112.265 28.682 112.259 29.2788 112.111 29.8902C111.975 30.4989 111.728 31.0672 111.368 31.5951C111.018 32.109 110.577 32.5416 110.044 32.893C109.51 33.233 108.926 33.4157 108.295 33.4413C108.383 33.7698 108.553 34.0131 108.806 34.1711C109.068 34.3152 109.359 34.4043 109.68 34.4385C110 34.4727 110.324 34.4701 110.652 34.4305C110.977 34.3796 111.265 34.3251 111.516 34.2671C111.779 34.2064 112.019 34.1269 112.237 34.0285C112.455 33.9301 112.671 33.826 112.886 33.7162C113.102 33.6064 113.318 33.5023 113.536 33.4039C113.765 33.3029 114.011 33.222 114.274 33.1614C114.376 33.1377 114.481 33.1197 114.586 33.1074C114.691 33.095 114.795 33.1012 114.897 33.1258C114.996 33.1389 115.085 33.1846 115.163 33.2628C115.239 33.3295 115.291 33.4257 115.32 33.5513C115.37 33.7682 115.332 33.9694 115.207 34.1547C115.078 34.3287 114.901 34.496 114.673 34.6568C114.457 34.8149 114.207 34.9568 113.923 35.0824C113.637 35.1966 113.355 35.3038 113.078 35.404C112.809 35.4901 112.555 35.5608 112.315 35.6162C112.089 35.6803 111.919 35.7255 111.805 35.7519C111.074 35.9206 110.391 35.958 109.756 35.8641C109.118 35.7587 108.552 35.5467 108.058 35.2279C107.561 34.8977 107.136 34.4664 106.785 33.9342C106.442 33.3879 106.188 32.755 106.022 32.0357ZM107.58 30.5032C107.673 30.9029 107.791 31.1822 107.936 31.3412C108.093 31.4975 108.382 31.5269 108.804 31.4294C109.101 31.3608 109.381 31.2422 109.642 31.0735C109.901 30.8935 110.123 30.68 110.306 30.4332C110.501 30.1837 110.637 29.9118 110.713 29.6176C110.79 29.3233 110.792 29.022 110.721 28.7137C110.682 28.5425 110.624 28.3694 110.547 28.1946C110.482 28.0172 110.387 27.8648 110.261 27.7375C110.133 27.5987 109.984 27.5008 109.815 27.4437C109.654 27.3726 109.459 27.3634 109.231 27.4161C108.888 27.4952 108.593 27.6476 108.344 27.8734C108.105 28.0851 107.917 28.3389 107.78 28.635C107.642 28.9196 107.557 29.2279 107.525 29.5599C107.491 29.8805 107.509 30.1949 107.58 30.5032ZM126.282 31.5618C126.435 31.394 126.615 31.1841 126.822 30.932C127.037 30.6658 127.249 30.3882 127.459 30.0992C127.669 29.8102 127.859 29.5137 128.03 29.2098C128.2 28.9059 128.322 28.6252 128.395 28.3679C128.476 28.0965 128.493 27.858 128.446 27.6524C128.399 27.4469 128.256 27.2994 128.019 27.2098C127.654 27.2942 127.258 27.4035 126.832 27.538C126.403 27.661 125.972 27.7726 125.538 27.8728C125.102 27.9615 124.67 28.0191 124.243 28.0455C123.828 28.0692 123.439 28.0267 123.077 27.9178C122.715 27.8089 122.399 27.6113 122.128 27.325C121.867 27.0246 121.675 26.6118 121.554 26.0865C121.411 25.47 121.398 24.8898 121.513 24.3461C121.637 23.7883 121.849 23.2762 122.15 22.8098C122.449 22.3319 122.805 21.8949 123.219 21.4987C123.641 21.0885 124.074 20.7239 124.518 20.4051C124.833 20.4164 125.14 20.4959 125.439 20.6434C125.737 20.791 126.007 20.9693 126.248 21.1783C126.226 21.4479 126.111 21.679 125.903 21.8713C125.706 22.0611 125.465 22.2429 125.181 22.4169C124.907 22.5882 124.619 22.7691 124.314 22.9598C124.009 23.1504 123.742 23.3744 123.513 23.6318C123.292 23.8751 123.126 24.172 123.015 24.5225C122.901 24.8616 122.9 25.2766 123.014 25.7676C123.098 26.133 123.251 26.3802 123.474 26.5093C123.696 26.6384 123.963 26.7029 124.276 26.7029C124.586 26.6915 124.928 26.6365 125.302 26.5381C125.674 26.4283 126.05 26.3114 126.43 26.1875C126.822 26.061 127.206 25.9543 127.583 25.8673C127.957 25.7689 128.304 25.7368 128.625 25.771C128.943 25.7938 129.213 25.8939 129.434 26.0713C129.667 26.2461 129.832 26.5447 129.929 26.9672C129.972 27.1499 129.963 27.3985 129.903 27.7129C129.855 28.0247 129.766 28.3699 129.637 28.7485C129.517 29.1131 129.357 29.4868 129.156 29.8698C128.968 30.2501 128.755 30.6059 128.519 30.9371C128.291 31.2542 128.049 31.5326 127.792 31.7724C127.543 31.9982 127.293 32.1401 127.042 32.1981C126.802 32.2534 126.623 32.2047 126.503 32.0519C126.395 31.8964 126.321 31.7331 126.282 31.5618ZM129.581 25.5323C129.512 25.2354 129.538 25.007 129.657 24.8471C129.774 24.6759 129.998 24.552 130.329 24.4755L130.5 24.436C130.577 24.6108 130.666 24.8128 130.767 25.042C130.868 25.2713 130.993 25.501 131.142 25.7311C131.292 25.9612 131.454 26.1702 131.63 26.3582C131.803 26.5347 131.995 26.6647 132.207 26.7481C132.126 26.3458 132.135 25.9409 132.233 25.5333C132.34 25.1117 132.498 24.7265 132.706 24.3778C132.923 24.015 133.175 23.6984 133.461 23.4278C133.756 23.1432 134.061 22.9284 134.376 22.7834L134.753 22.6964C135.301 22.5699 135.798 22.5874 136.245 22.749C136.688 22.8992 137.082 23.1451 137.425 23.4867C137.778 23.8143 138.08 24.2135 138.333 24.6843C138.586 25.155 138.808 25.6452 138.997 26.1546C139.196 26.65 139.358 27.1418 139.482 27.6302C139.616 28.1045 139.722 28.5129 139.801 28.8555L138.551 29.1441C138.324 28.4748 138.087 27.838 137.839 27.2338C137.747 26.9905 137.641 26.7384 137.52 26.4775C137.397 26.2052 137.274 25.9571 137.15 25.7331C137.024 25.4978 136.897 25.2865 136.769 25.0994C136.639 24.9009 136.506 24.7393 136.369 24.6146C136.313 24.5795 136.235 24.5312 136.137 24.4697C136.05 24.4056 135.957 24.3428 135.859 24.2813C135.76 24.2199 135.67 24.1685 135.589 24.1272C135.507 24.0859 135.46 24.0666 135.449 24.0693C135.085 24.057 134.804 24.194 134.606 24.4804C134.405 24.7553 134.251 25.1036 134.144 25.5253C134.036 25.9469 133.975 26.412 133.96 26.9205C133.957 27.4265 133.967 27.9113 133.99 28.3751C134.01 28.8275 134.041 29.2231 134.083 29.5622C134.123 29.8898 134.145 30.0892 134.149 30.1603C133.911 30.4318 133.657 30.5565 133.388 30.5346C133.115 30.5012 132.833 30.3739 132.542 30.1526C132.262 29.9286 131.983 29.6322 131.705 29.2633C131.439 28.8918 131.179 28.4948 130.925 28.0724C130.668 27.6385 130.423 27.2019 130.19 26.7628C129.967 26.321 129.764 25.9108 129.581 25.5323ZM139.365 22.5878C139.349 22.5193 139.324 22.4108 139.29 22.2624C139.265 22.0999 139.232 21.933 139.193 21.7617C139.165 21.5878 139.132 21.4209 139.095 21.2611C139.07 21.0986 139.049 20.9831 139.033 20.9146C139.117 20.7029 139.242 20.5175 139.41 20.3585C139.589 20.1969 139.774 20.0581 139.963 19.9421C140.14 20.5508 140.388 21.185 140.709 21.8446C141.03 22.5042 141.363 23.1669 141.709 23.8327C142.053 24.487 142.372 25.1409 142.667 25.7944C142.974 26.4452 143.196 27.0675 143.333 27.6613C143.452 28.1751 143.248 28.4926 142.723 28.6139C142.403 28.6877 142.105 28.6184 141.827 28.4058C141.549 28.1933 141.296 27.903 141.067 27.535C140.846 27.1529 140.639 26.7256 140.446 26.2531C140.25 25.7691 140.08 25.2913 139.935 24.8197C139.801 24.3454 139.683 23.9097 139.579 23.5127C139.487 23.1131 139.415 22.8048 139.365 22.5878ZM138.122 16.1096C138.36 16.1509 138.577 16.2571 138.773 16.4284C138.969 16.5997 139.075 16.7736 139.092 16.9501C139.118 17.1126 139.018 17.2558 138.794 17.3796C138.568 17.4921 138.152 17.5159 137.548 17.4509C137.477 17.1426 137.472 16.8611 137.533 16.6064C137.606 16.349 137.803 16.1834 138.122 16.1096ZM142.01 22.0854C141.755 20.9778 141.822 20.0964 142.212 19.4411C142.602 18.7858 143.327 18.3356 144.389 18.0904C144.823 17.9903 145.278 17.9274 145.753 17.9019C146.24 17.8737 146.701 17.9176 147.136 18.0335C147.569 18.138 147.947 18.3396 148.268 18.6382C148.601 18.9341 148.832 19.3619 148.961 19.9214C149.104 20.538 149.101 21.1519 148.954 21.7633C148.815 22.3606 148.595 22.9465 148.295 23.521C148.003 24.0814 147.66 24.6238 147.264 25.1482C146.876 25.6586 146.514 26.1452 146.175 26.6081C146.163 26.6591 146.163 26.7614 146.174 26.9151C146.194 27.0548 146.21 27.1474 146.22 27.1931C146.307 27.5699 146.503 27.9217 146.807 28.2484C147.125 28.5839 147.46 28.9155 147.812 29.2431C148.167 29.5821 148.502 29.9378 148.816 30.3102C149.131 30.6826 149.341 31.0971 149.446 31.5539C149.509 31.8279 149.489 32.0009 149.385 32.073C149.284 32.1564 149.051 32.2403 148.686 32.3247C148.436 32.2861 148.158 32.1218 147.85 31.832C147.557 31.551 147.24 31.1913 146.898 30.753C146.567 30.3121 146.223 29.8084 145.863 29.2419C145.518 28.6842 145.176 28.1137 144.837 27.5305C144.507 26.9333 144.185 26.3461 143.871 25.7691C143.566 25.178 143.29 24.6343 143.043 24.1381C142.797 23.6418 142.578 23.2171 142.388 22.8641C142.207 22.4969 142.081 22.2374 142.01 22.0854ZM143.502 21.9035C143.541 22.0747 143.611 22.3233 143.71 22.6492C143.807 22.9636 143.926 23.2728 144.068 23.5767C144.222 23.8779 144.401 24.1313 144.605 24.3369C144.806 24.531 145.038 24.5977 145.3 24.5371C145.654 24.4553 145.981 24.2537 146.279 23.9322C146.589 23.6081 146.839 23.2317 147.029 22.803C147.23 22.3717 147.369 21.9308 147.445 21.4802C147.53 21.0155 147.533 20.6119 147.454 20.2694C147.388 19.9839 147.268 19.7771 147.094 19.6488C146.918 19.5092 146.711 19.4187 146.472 19.3775C146.243 19.3222 146.006 19.3108 145.761 19.3433C145.513 19.3644 145.281 19.4 145.064 19.4501C144.413 19.6003 143.952 19.8933 143.679 20.329C143.416 20.7506 143.357 21.2755 143.502 21.9035ZM149.393 20.381C149.137 19.2734 149.204 18.392 149.594 17.7367C149.984 17.0814 150.71 16.6312 151.772 16.386C152.206 16.2858 152.66 16.223 153.136 16.1975C153.622 16.1693 154.083 16.2132 154.519 16.3291C154.952 16.4336 155.329 16.6351 155.651 16.9337C155.984 17.2297 156.215 17.6575 156.344 18.217C156.486 18.8335 156.484 19.4475 156.336 20.0589C156.198 20.6562 155.978 21.2421 155.678 21.8165C155.386 22.3769 155.042 22.9194 154.646 23.4438C154.259 23.9541 153.896 24.4408 153.558 24.9037C153.546 24.9547 153.545 25.057 153.557 25.2107C153.577 25.3504 153.592 25.443 153.603 25.4887C153.69 25.8655 153.885 26.2173 154.189 26.544C154.507 26.8795 154.842 27.211 155.195 27.5386C155.55 27.8776 155.884 28.2333 156.199 28.6057C156.513 28.9781 156.723 29.3927 156.829 29.8494C156.892 30.1235 156.872 30.2965 156.768 30.3686C156.667 30.452 156.434 30.5359 156.069 30.6203C155.819 30.5816 155.541 30.4174 155.233 30.1276C154.94 29.8465 154.622 29.4869 154.28 29.0486C153.95 28.6077 153.605 28.104 153.246 27.5375C152.901 26.9798 152.559 26.4093 152.22 25.8261C151.889 25.2289 151.567 24.6417 151.254 24.0647C150.949 23.4736 150.673 22.9299 150.426 22.4336C150.179 21.9374 149.961 21.5127 149.771 21.1596C149.59 20.7925 149.464 20.533 149.393 20.381ZM150.884 20.199C150.924 20.3703 150.993 20.6189 151.093 20.9447C151.189 21.2592 151.309 21.5684 151.451 21.8723C151.605 22.1735 151.784 22.4269 151.987 22.6324C152.189 22.8265 152.42 22.8933 152.683 22.8326C153.037 22.7509 153.363 22.5493 153.662 22.2278C153.972 21.9036 154.222 21.5272 154.411 21.0986C154.613 20.6673 154.751 20.2263 154.828 19.7757C154.913 19.3111 154.916 18.9075 154.837 18.5649C154.771 18.2795 154.651 18.0726 154.477 17.9444C154.3 17.8048 154.093 17.7143 153.855 17.673C153.626 17.6177 153.389 17.6063 153.144 17.6389C152.896 17.66 152.664 17.6956 152.447 17.7456C151.796 17.8959 151.334 18.1889 151.062 18.6246C150.799 19.0462 150.739 19.571 150.884 20.199ZM157.135 20.2352C156.993 19.6186 156.925 18.9849 156.931 18.334C156.937 17.6831 157.043 17.0753 157.25 16.5105C157.468 15.9431 157.798 15.4459 158.24 15.019C158.694 14.5894 159.293 14.2889 160.035 14.1176C160.457 14.0201 160.847 14.0143 161.203 14.1004C161.557 14.175 161.872 14.3129 162.147 14.514C162.422 14.7151 162.65 14.9751 162.832 15.2939C163.023 15.5987 163.16 15.9337 163.244 16.2991C163.379 16.8815 163.372 17.4783 163.225 18.0897C163.089 18.6984 162.841 19.2667 162.482 19.7946C162.132 20.3085 161.69 20.7411 161.158 21.0925C160.623 21.4325 160.04 21.6153 159.408 21.6408C159.496 21.9693 159.667 22.2126 159.92 22.3707C160.181 22.5147 160.473 22.6038 160.793 22.638C161.114 22.6723 161.438 22.6696 161.765 22.63C162.09 22.5791 162.379 22.5246 162.63 22.4666C162.892 22.4059 163.133 22.3264 163.35 22.228C163.568 22.1296 163.785 22.0255 164 21.9157C164.215 21.8059 164.432 21.7018 164.649 21.6034C164.879 21.5024 165.125 21.4215 165.387 21.3609C165.49 21.3372 165.594 21.3192 165.7 21.3069C165.805 21.2945 165.909 21.3007 166.01 21.3253C166.11 21.3384 166.198 21.3841 166.277 21.4623C166.352 21.529 166.404 21.6252 166.433 21.7508C166.484 21.9677 166.446 22.1689 166.32 22.3542C166.192 22.5282 166.014 22.6955 165.787 22.8563C165.571 23.0144 165.321 23.1563 165.037 23.2819C164.751 23.3961 164.469 23.5033 164.191 23.6035C163.922 23.6896 163.668 23.7603 163.428 23.8157C163.203 23.8798 163.033 23.9251 162.918 23.9514C162.188 24.1201 161.505 24.1575 160.87 24.0636C160.232 23.9583 159.666 23.7462 159.171 23.4274C158.674 23.0972 158.25 22.6659 157.898 22.1337C157.556 21.5874 157.302 20.9545 157.135 20.2352ZM158.694 18.7027C158.786 19.1024 158.905 19.3817 159.05 19.5407C159.206 19.697 159.496 19.7264 159.918 19.6289C160.215 19.5603 160.494 19.4417 160.756 19.273C161.015 19.093 161.236 18.8795 161.42 18.6327C161.615 18.3832 161.751 18.1113 161.827 17.8171C161.903 17.5228 161.906 17.2215 161.835 16.9132C161.795 16.742 161.737 16.5689 161.661 16.3941C161.596 16.2167 161.5 16.0643 161.375 15.937C161.247 15.7982 161.098 15.7003 160.928 15.6432C160.767 15.5721 160.573 15.5629 160.345 15.6156C160.002 15.6947 159.706 15.8471 159.458 16.0729C159.218 16.2846 159.03 16.5384 158.894 16.8345C158.755 17.1191 158.67 17.4274 158.639 17.7594C158.604 18.08 158.623 18.3944 158.694 18.7027ZM164.721 14.4069C164.713 14.3726 164.712 14.3427 164.718 14.3173C164.713 14.2944 164.712 14.2646 164.715 14.2277C164.748 14.16 164.799 14.07 164.869 13.9576C164.94 13.8451 164.986 13.7863 165.009 13.781L168.452 12.9862C168.423 12.8606 168.36 12.6647 168.262 12.3986C168.164 12.1325 168.06 11.8378 167.95 11.5146C167.85 11.1887 167.766 10.8475 167.695 10.4909C167.622 10.1228 167.593 9.78686 167.607 9.48295C167.63 9.16498 167.711 8.89356 167.852 8.66869C168.001 8.42976 168.247 8.27076 168.59 8.19167C168.856 9.34493 169.149 10.2514 169.47 10.911C169.791 11.5706 170.126 12.0585 170.475 12.3747C170.836 12.6882 171.201 12.8625 171.57 12.8976C171.939 12.9327 172.299 12.9037 172.651 12.8106C173.011 12.7034 173.352 12.5646 173.673 12.3941C173.995 12.2237 174.283 12.091 174.537 11.9962C174.804 11.8986 175.027 11.8771 175.208 11.9315C175.386 11.9746 175.512 12.1559 175.586 12.4756C175.642 12.7154 175.624 12.8999 175.534 13.029C175.454 13.1555 175.267 13.2829 174.972 13.4111C174.884 13.4437 174.735 13.5021 174.526 13.5864C174.325 13.6567 174.097 13.7336 173.839 13.8171C173.582 13.9005 173.309 13.9937 173.02 14.0965C172.728 14.1878 172.454 14.2753 172.196 14.3587C171.939 14.4422 171.703 14.5147 171.489 14.5762C171.272 14.6263 171.112 14.6632 171.009 14.6869C171.022 14.744 171.039 14.8424 171.059 14.982C171.08 15.1217 171.095 15.2143 171.105 15.26C171.221 15.7624 171.415 16.235 171.685 16.6776C171.953 17.1089 172.233 17.5375 172.523 17.9635C172.826 18.3868 173.111 18.8141 173.379 19.2453C173.647 19.6766 173.839 20.1434 173.955 20.6458C173.976 20.7372 173.987 20.8369 173.987 20.9449C173.997 21.0389 173.983 21.1324 173.944 21.2256C173.914 21.3046 173.852 21.3731 173.757 21.4311C173.676 21.4979 173.544 21.5225 173.359 21.5049C172.899 21.4909 172.517 21.3205 172.213 20.9938C171.92 20.6645 171.663 20.2547 171.442 19.7646C171.218 19.2631 171.022 18.7251 170.853 18.1507C170.684 17.5763 170.502 17.0471 170.306 16.5631C170.119 16.0651 169.904 15.6576 169.663 15.3405C169.419 15.012 169.11 14.8487 168.738 14.8505L165.258 14.86C165.213 14.8706 165.134 14.8407 165.021 14.7705C164.906 14.6888 164.832 14.6277 164.798 14.5873C164.782 14.5671 164.769 14.5399 164.761 14.5057C164.745 14.4855 164.731 14.4525 164.721 14.4069Z" fill="#BCBCBC"/>
<path d="M109 56.0003C110.667 62.3336 116.4 75.4003 126 77.0003C138 79.0003 150 63.0003 163.5 70.0003C174.3 75.6003 187 79.667 192 81.0003" stroke="#BCBCBC" stroke-width="2" stroke-linecap="round" stroke-dasharray="6 6"/>
<g clip-path="url(#clip0_3075_707)">
<path d="M199.376 75.7533L215.623 89.0967L194.599 89.0642L200.981 83.8419L199.376 75.7533Z" stroke="#BCBCBC" stroke-width="2" stroke-linecap="round" stroke-linejoin="round"/>
</g>
<defs>
<clipPath id="clip0_3075_707">
<rect width="24" height="24" fill="white" transform="translate(208.047 68.3465) rotate(64.7424)"/>
</clipPath>
</defs>
</svg>
