<svg width="1920" height="850" viewBox="0 0 1920 850" fill="none" xmlns="http://www.w3.org/2000/svg">
<g clip-path="url(#clip0_2650_317)">
<g opacity="0.5" filter="url(#filter0_f_2650_317)">
<circle cx="1542" cy="439" r="178" fill="#E21B1A"/>
</g>
<g opacity="0.5" filter="url(#filter1_f_2650_317)">
<circle cx="1250" cy="210" r="178" fill="#0E48AB"/>
</g>
<circle opacity="0.7" cx="1370" cy="300" r="138.5" stroke="white" stroke-dasharray="10 10"/>
<circle opacity="0.5" cx="1370" cy="300" r="266.5" stroke="white" stroke-dasharray="10 10"/>
<circle opacity="0.4" cx="1370" cy="300" r="375.5" stroke="white" stroke-dasharray="10 10"/>
<circle cx="1276.5" cy="294.5" r="9.5" fill="#0E48AB"/>
<circle cx="1249.5" cy="74.5" r="9.5" fill="#0E48AB"/>
<circle cx="1276.5" cy="259.5" r="9.5" fill="#0E48AB"/>
<circle cx="1437.5" cy="126.5" r="9.5" fill="#0E48AB"/>
<circle cx="1437.5" cy="176.5" r="9.5" fill="#0E48AB"/>
<circle cx="1310.5" cy="235.5" r="9.5" fill="#0E48AB"/>
<circle cx="1343" cy="174" r="13" fill="#0E48AB"/>
<circle cx="1333" cy="288" r="13" fill="#0E48AB"/>
<circle cx="1354.5" cy="226.5" r="9.5" fill="#0E48AB"/>
<circle cx="1186.5" cy="157.5" r="9.5" fill="#0E48AB"/>
<circle cx="1301.5" cy="184.5" r="9.5" fill="#0E48AB"/>
<circle cx="1329.5" cy="120.5" r="9.5" fill="#0E48AB"/>
<circle cx="1245.5" cy="226.5" r="5.5" fill="#0E48AB"/>
<circle cx="1427.5" cy="49.5" r="5.5" fill="#0E48AB"/>
<circle cx="1401.5" cy="83.5" r="5.5" fill="#0E48AB"/>
<circle cx="1266.5" cy="134.5" r="5.5" fill="#0E48AB"/>
<circle cx="1192.5" cy="100.5" r="5.5" fill="#0E48AB"/>
<circle cx="1167.5" cy="255.5" r="5.5" fill="#0E48AB"/>
<circle cx="1222.5" cy="326.5" r="5.5" fill="#0E48AB"/>
<circle cx="1335.5" cy="49.5" r="5.5" fill="#0E48AB"/>
<circle cx="1114.5" cy="332.5" r="5.5" fill="#0E48AB"/>
<circle cx="1133.5" cy="126.5" r="3.5" fill="#0E48AB"/>
<circle cx="1140.5" cy="28.5" r="3.5" fill="#0E48AB"/>
<circle cx="1301.5" cy="241.5" r="9.5" fill="#0E48AB"/>
<g filter="url(#filter2_f_2650_317)">
<circle cx="1555.5" cy="3.5" r="29.5" fill="#0E48AB"/>
</g>
<path d="M1364.65 293C1366.94 293 1368.76 293.597 1370.12 294.792C1371.51 295.987 1372.2 297.672 1372.2 299.848C1372.2 301.853 1371.54 303.421 1370.22 304.552C1368.92 305.661 1367.19 306.227 1365.04 306.248L1364.88 308.648H1360.08L1359.92 302.696H1361.84C1363.48 302.696 1364.73 302.493 1365.58 302.088C1366.46 301.683 1366.89 300.947 1366.89 299.88C1366.89 299.133 1366.69 298.547 1366.28 298.12C1365.88 297.693 1365.31 297.48 1364.59 297.48C1363.82 297.48 1363.22 297.704 1362.8 298.152C1362.37 298.579 1362.16 299.165 1362.16 299.912H1357C1356.96 298.611 1357.23 297.437 1357.8 296.392C1358.4 295.347 1359.28 294.525 1360.43 293.928C1361.6 293.309 1363.01 293 1364.65 293ZM1362.54 316.968C1361.58 316.968 1360.79 316.691 1360.17 316.136C1359.58 315.56 1359.28 314.856 1359.28 314.024C1359.28 313.171 1359.58 312.456 1360.17 311.88C1360.79 311.304 1361.58 311.016 1362.54 311.016C1363.48 311.016 1364.25 311.304 1364.84 311.88C1365.46 312.456 1365.77 313.171 1365.77 314.024C1365.77 314.856 1365.46 315.56 1364.84 316.136C1364.25 316.691 1363.48 316.968 1362.54 316.968Z" fill="#E21B1A"/>
<path d="M1385.26 281.658C1387.69 280.875 1389.85 280.913 1391.73 281.773C1393.63 282.626 1394.97 284.262 1395.75 286.682C1396.47 288.912 1396.33 290.882 1395.33 292.593C1394.34 294.272 1392.7 295.494 1390.42 296.256L1391.11 298.98L1386 300.626L1383.7 294.063L1385.74 293.404C1387.49 292.841 1388.74 292.188 1389.51 291.444C1390.29 290.694 1390.49 289.725 1390.11 288.539C1389.84 287.709 1389.42 287.126 1388.83 286.791C1388.25 286.455 1387.57 286.412 1386.8 286.661C1385.98 286.924 1385.43 287.378 1385.13 288.023C1384.83 288.643 1384.81 289.369 1385.08 290.199L1379.6 291.966C1379.09 290.534 1378.95 289.138 1379.19 287.778C1379.45 286.411 1380.09 285.197 1381.1 284.138C1382.13 283.048 1383.51 282.221 1385.26 281.658ZM1391.6 309.032C1390.58 309.361 1389.64 309.324 1388.78 308.919C1387.94 308.484 1387.37 307.803 1387.07 306.878C1386.77 305.929 1386.83 305.032 1387.26 304.187C1387.71 303.334 1388.45 302.743 1389.47 302.414C1390.47 302.092 1391.39 302.149 1392.23 302.585C1393.1 303.013 1393.68 303.701 1393.99 304.65C1394.28 305.575 1394.21 306.464 1393.76 307.317C1393.32 308.138 1392.6 308.71 1391.6 309.032Z" fill="#E21B1A"/>
<path d="M1435.8 275.496C1438.08 276.635 1439.6 278.17 1440.34 280.1C1441.1 282.041 1440.92 284.149 1439.78 286.424C1438.74 288.52 1437.26 289.83 1435.35 290.352C1433.47 290.862 1431.44 290.591 1429.28 289.538L1427.86 291.967L1423.06 289.572L1426 283.27L1427.93 284.228C1429.57 285.048 1430.92 285.459 1431.99 285.461C1433.07 285.473 1433.9 284.922 1434.45 283.807C1434.84 283.026 1434.94 282.312 1434.76 281.663C1434.58 281.015 1434.12 280.51 1433.4 280.148C1432.63 279.765 1431.92 279.701 1431.25 279.957C1430.61 280.19 1430.09 280.697 1429.7 281.477L1424.54 278.907C1425.18 277.525 1426.06 276.431 1427.18 275.626C1428.32 274.831 1429.62 274.409 1431.09 274.359C1432.58 274.298 1434.15 274.677 1435.8 275.496ZM1421.19 299.5C1420.23 299.021 1419.58 298.337 1419.25 297.449C1418.96 296.548 1419.02 295.663 1419.46 294.794C1419.9 293.901 1420.57 293.303 1421.47 292.999C1422.39 292.706 1423.33 292.798 1424.29 293.277C1425.23 293.746 1425.85 294.43 1426.15 295.33C1426.47 296.241 1426.4 297.143 1425.96 298.035C1425.52 298.905 1424.85 299.486 1423.93 299.78C1423.04 300.062 1422.13 299.968 1421.19 299.5Z" fill="#E21B1A"/>
<path d="M1476.56 325C1479.11 325 1481.15 325.698 1482.67 327.093C1484.22 328.489 1485 330.458 1485 333C1485 335.343 1484.26 337.174 1482.78 338.495C1481.33 339.791 1479.39 340.452 1476.99 340.477L1476.81 343.28H1471.44L1471.26 336.327H1473.41C1475.24 336.327 1476.64 336.09 1477.59 335.617C1478.57 335.143 1479.06 334.283 1479.06 333.037C1479.06 332.165 1478.83 331.48 1478.38 330.981C1477.93 330.483 1477.3 330.234 1476.48 330.234C1475.63 330.234 1474.96 330.495 1474.48 331.019C1474 331.517 1473.77 332.202 1473.77 333.075H1468C1467.96 331.555 1468.26 330.184 1468.9 328.963C1469.57 327.741 1470.55 326.782 1471.83 326.084C1473.15 325.361 1474.72 325 1476.56 325ZM1474.19 353C1473.12 353 1472.24 352.676 1471.55 352.028C1470.88 351.355 1470.55 350.533 1470.55 349.561C1470.55 348.564 1470.88 347.729 1471.55 347.056C1472.24 346.383 1473.12 346.047 1474.19 346.047C1475.24 346.047 1476.1 346.383 1476.77 347.056C1477.46 347.729 1477.81 348.564 1477.81 349.561C1477.81 350.533 1477.46 351.355 1476.77 352.028C1476.1 352.676 1475.24 353 1474.19 353Z" fill="#E21B1A"/>
<path d="M1422.18 370.682C1424.61 369.885 1426.76 369.912 1428.65 370.761C1430.56 371.603 1431.91 373.231 1432.7 375.646C1433.43 377.872 1433.3 379.843 1432.31 381.559C1431.33 383.245 1429.7 384.475 1427.42 385.251L1428.13 387.971L1423.03 389.646L1420.69 383.096L1422.73 382.426C1424.47 381.853 1425.72 381.192 1426.48 380.444C1427.26 379.689 1427.46 378.72 1427.07 377.536C1426.8 376.707 1426.37 376.127 1425.78 375.795C1425.2 375.463 1424.52 375.423 1423.75 375.677C1422.93 375.945 1422.38 376.402 1422.09 377.048C1421.79 377.67 1421.78 378.396 1422.05 379.225L1416.58 381.023C1416.06 379.594 1415.92 378.198 1416.15 376.837C1416.4 375.469 1417.03 374.252 1418.03 373.187C1419.06 372.09 1420.44 371.256 1422.18 370.682ZM1428.68 398.02C1427.66 398.355 1426.72 398.323 1425.86 397.923C1425.02 397.492 1424.44 396.815 1424.14 395.892C1423.83 394.945 1423.89 394.048 1424.31 393.2C1424.76 392.345 1425.49 391.749 1426.51 391.414C1427.51 391.087 1428.43 391.138 1429.27 391.569C1430.14 391.992 1430.73 392.677 1431.04 393.624C1431.34 394.548 1431.27 395.437 1430.83 396.292C1430.39 397.116 1429.68 397.692 1428.68 398.02Z" fill="#E21B1A"/>
<path d="M1513.08 269.56C1515.34 268.38 1517.47 268.056 1519.47 268.588C1521.49 269.109 1523.09 270.496 1524.26 272.75C1525.35 274.828 1525.54 276.794 1524.84 278.649C1524.15 280.47 1522.74 281.949 1520.61 283.085L1521.75 285.654L1516.99 288.135L1513.62 282.052L1515.52 281.059C1517.15 280.21 1518.28 279.355 1518.91 278.494C1519.56 277.622 1519.59 276.634 1519.02 275.529C1518.61 274.755 1518.09 274.252 1517.46 274.02C1516.83 273.787 1516.15 273.859 1515.44 274.233C1514.67 274.63 1514.2 275.171 1514.02 275.856C1513.83 276.518 1513.93 277.236 1514.34 278.01L1509.23 280.673C1508.48 279.347 1508.11 277.993 1508.12 276.613C1508.15 275.221 1508.57 273.918 1509.39 272.704C1510.22 271.457 1511.45 270.409 1513.08 269.56ZM1523.93 295.48C1522.98 295.976 1522.04 296.097 1521.13 295.842C1520.23 295.554 1519.55 294.979 1519.1 294.117C1518.64 293.233 1518.55 292.339 1518.83 291.433C1519.14 290.517 1519.76 289.81 1520.71 289.314C1521.65 288.829 1522.56 288.73 1523.47 289.018C1524.39 289.295 1525.08 289.876 1525.54 290.76C1525.99 291.622 1526.07 292.511 1525.76 293.427C1525.47 294.311 1524.86 294.995 1523.93 295.48Z" fill="#E21B1A"/>
<g filter="url(#filter3_f_2650_317)">
<path d="M1694.36 538.667C1702.3 536.408 1709.26 536.76 1715.24 539.724C1721.29 542.666 1725.44 548.067 1727.67 555.927C1729.73 563.169 1729.04 569.487 1725.6 574.88C1722.21 580.174 1716.78 583.926 1709.3 586.135L1711.21 594.962L1694.51 599.712L1687.84 578.373L1694.52 576.473C1700.24 574.847 1704.37 572.88 1706.92 570.572C1709.55 568.242 1710.32 565.151 1709.22 561.299C1708.45 558.602 1707.15 556.684 1705.3 555.544C1703.45 554.404 1701.26 554.193 1698.74 554.911C1696.07 555.671 1694.22 557.071 1693.19 559.111C1692.15 561.074 1692.01 563.404 1692.78 566.101L1674.85 571.199C1673.36 566.542 1673.09 562.04 1674.02 557.694C1675.02 553.328 1677.22 549.496 1680.62 546.198C1684.06 542.803 1688.64 540.292 1694.36 538.667ZM1711.63 627.323C1708.29 628.273 1705.26 628.053 1702.54 626.662C1699.87 625.172 1698.11 622.925 1697.25 619.92C1696.37 616.838 1696.68 613.962 1698.17 611.29C1699.73 608.597 1702.18 606.776 1705.52 605.826C1708.78 604.897 1711.75 605.177 1714.42 606.667C1717.17 608.135 1718.98 610.41 1719.85 613.492C1720.71 616.497 1720.36 619.346 1718.79 622.038C1717.29 624.633 1714.9 626.394 1711.63 627.323Z" fill="#E21B1A"/>
</g>
<g filter="url(#filter4_f_2650_317)">
<path d="M1224.83 482.016C1229.87 483.513 1233.5 486.046 1235.71 489.617C1237.98 493.202 1238.39 497.431 1236.94 502.304C1235.61 506.796 1233.1 509.874 1229.43 511.539C1225.82 513.171 1221.63 513.304 1216.86 511.94L1214.91 517.21L1204.32 514.064L1207.93 500.628L1212.17 501.887C1215.79 502.963 1218.68 503.328 1220.83 502.979C1223.03 502.645 1224.49 501.283 1225.2 498.894C1225.69 497.222 1225.64 495.775 1225.03 494.553C1224.42 493.332 1223.31 492.484 1221.71 492.008C1220.01 491.505 1218.55 491.615 1217.31 492.339C1216.08 493.015 1215.22 494.189 1214.72 495.861L1203.36 492.484C1204.13 489.541 1205.5 487.088 1207.46 485.124C1209.48 483.175 1211.95 481.909 1214.89 481.326C1217.89 480.709 1221.21 480.94 1224.83 482.016ZM1204.22 534.313C1202.11 533.684 1200.55 532.545 1199.55 530.898C1198.62 529.216 1198.43 527.443 1198.98 525.58C1199.55 523.669 1200.68 522.264 1202.38 521.365C1204.13 520.481 1206.07 520.353 1208.18 520.983C1210.26 521.598 1211.76 522.746 1212.69 524.428C1213.68 526.124 1213.88 527.927 1213.31 529.838C1212.76 531.702 1211.61 533.076 1209.86 533.96C1208.17 534.811 1206.3 534.929 1204.22 534.313Z" fill="#E21B1A"/>
</g>
<path d="M1366.54 318C1368.19 318 1369.51 318.449 1370.5 319.346C1371.5 320.243 1372 321.509 1372 323.143C1372 324.649 1371.52 325.826 1370.56 326.676C1369.62 327.509 1368.37 327.933 1366.81 327.949L1366.7 329.752H1363.23L1363.11 325.282H1364.5C1365.69 325.282 1366.59 325.13 1367.21 324.825C1367.84 324.521 1368.16 323.968 1368.16 323.167C1368.16 322.606 1368.01 322.166 1367.72 321.845C1367.42 321.525 1367.01 321.364 1366.49 321.364C1365.93 321.364 1365.5 321.533 1365.19 321.869C1364.88 322.19 1364.73 322.63 1364.73 323.191H1361C1360.97 322.214 1361.17 321.332 1361.58 320.547C1362.01 319.762 1362.65 319.146 1363.48 318.697C1364.33 318.232 1365.35 318 1366.54 318ZM1365.01 336C1364.31 336 1363.74 335.792 1363.3 335.375C1362.86 334.943 1362.65 334.414 1362.65 333.789C1362.65 333.148 1362.86 332.611 1363.3 332.179C1363.74 331.746 1364.31 331.53 1365.01 331.53C1365.69 331.53 1366.24 331.746 1366.68 332.179C1367.12 332.611 1367.35 333.148 1367.35 333.789C1367.35 334.414 1367.12 334.943 1366.68 335.375C1366.24 335.792 1365.69 336 1365.01 336Z" fill="#E21B1A"/>
<path d="M1532.81 328.005C1534.46 328.055 1535.76 328.544 1536.72 329.471C1537.7 330.398 1538.16 331.679 1538.11 333.312C1538.07 334.818 1537.55 335.98 1536.57 336.8C1535.6 337.603 1534.34 337.99 1532.78 337.958L1532.61 339.756L1529.14 339.65L1529.16 335.179L1530.55 335.221C1531.74 335.257 1532.64 335.133 1533.27 334.847C1533.91 334.562 1534.24 334.02 1534.27 333.219C1534.29 332.658 1534.15 332.214 1533.87 331.884C1533.59 331.555 1533.18 331.383 1532.66 331.366C1532.1 331.35 1531.67 331.504 1531.35 331.831C1531.03 332.142 1530.86 332.578 1530.84 333.138L1527.12 333.025C1527.12 332.047 1527.34 331.172 1527.78 330.4C1528.23 329.628 1528.88 329.031 1529.73 328.608C1530.59 328.17 1531.62 327.969 1532.81 328.005ZM1530.73 345.95C1530.04 345.929 1529.47 345.703 1529.04 345.273C1528.62 344.828 1528.42 344.292 1528.44 343.668C1528.46 343.027 1528.69 342.497 1529.13 342.078C1529.6 341.66 1530.17 341.461 1530.87 341.482C1531.55 341.503 1532.09 341.736 1532.51 342.182C1532.95 342.628 1533.15 343.171 1533.13 343.811C1533.12 344.436 1532.88 344.958 1532.42 345.376C1531.97 345.779 1531.41 345.971 1530.73 345.95Z" fill="#E21B1A"/>
<path d="M1627.54 333C1629.19 333 1630.51 333.449 1631.5 334.346C1632.5 335.243 1633 336.509 1633 338.143C1633 339.649 1632.52 340.826 1631.56 341.676C1630.62 342.509 1629.37 342.933 1627.81 342.949L1627.7 344.752H1624.23L1624.11 340.282H1625.5C1626.69 340.282 1627.59 340.13 1628.21 339.825C1628.84 339.521 1629.16 338.968 1629.16 338.167C1629.16 337.606 1629.01 337.166 1628.72 336.845C1628.42 336.525 1628.01 336.364 1627.49 336.364C1626.93 336.364 1626.5 336.533 1626.19 336.869C1625.88 337.19 1625.73 337.63 1625.73 338.191H1622C1621.97 337.214 1622.17 336.332 1622.58 335.547C1623.01 334.762 1623.65 334.146 1624.48 333.697C1625.33 333.232 1626.35 333 1627.54 333ZM1626.01 351C1625.31 351 1624.74 350.792 1624.3 350.375C1623.86 349.943 1623.65 349.414 1623.65 348.789C1623.65 348.148 1623.86 347.611 1624.3 347.179C1624.74 346.746 1625.31 346.53 1626.01 346.53C1626.69 346.53 1627.24 346.746 1627.68 347.179C1628.12 347.611 1628.35 348.148 1628.35 348.789C1628.35 349.414 1628.12 349.943 1627.68 350.375C1627.24 350.792 1626.69 351 1626.01 351Z" fill="#E21B1A"/>
<path d="M1578.19 466.632C1579.72 466.018 1581.11 465.943 1582.36 466.408C1583.63 466.868 1584.56 467.856 1585.17 469.373C1585.73 470.771 1585.73 472.042 1585.15 473.186C1584.59 474.31 1583.59 475.169 1582.15 475.764L1582.71 477.48L1579.49 478.772L1577.71 474.666L1579 474.149C1580.11 473.707 1580.89 473.23 1581.35 472.718C1581.82 472.2 1581.91 471.569 1581.61 470.825C1581.4 470.305 1581.1 469.95 1580.71 469.762C1580.32 469.574 1579.88 469.577 1579.39 469.772C1578.88 469.979 1578.54 470.296 1578.38 470.723C1578.21 471.136 1578.23 471.602 1578.44 472.122L1574.98 473.509C1574.59 472.614 1574.44 471.724 1574.53 470.84C1574.64 469.951 1575 469.143 1575.61 468.416C1576.22 467.669 1577.08 467.075 1578.19 466.632ZM1583.47 483.908C1582.82 484.167 1582.21 484.186 1581.64 483.966C1581.08 483.725 1580.68 483.315 1580.45 482.735C1580.21 482.14 1580.21 481.561 1580.45 480.999C1580.71 480.431 1581.16 480.018 1581.8 479.759C1582.43 479.507 1583.03 479.501 1583.59 479.741C1584.17 479.976 1584.57 480.391 1584.81 480.986C1585.05 481.566 1585.03 482.14 1584.78 482.708C1584.53 483.256 1584.1 483.656 1583.47 483.908Z" fill="#E21B1A"/>
<path d="M1491.01 416.211C1492.44 417.033 1493.36 418.079 1493.77 419.348C1494.19 420.626 1494 421.973 1493.19 423.391C1492.44 424.697 1491.44 425.481 1490.18 425.741C1488.95 425.995 1487.66 425.741 1486.3 424.98L1485.3 426.486L1482.29 424.758L1484.41 420.823L1485.62 421.514C1486.65 422.105 1487.5 422.422 1488.19 422.466C1488.89 422.516 1489.44 422.194 1489.84 421.499C1490.12 421.013 1490.21 420.558 1490.12 420.134C1490.02 419.71 1489.75 419.368 1489.29 419.107C1488.81 418.83 1488.35 418.761 1487.92 418.899C1487.49 419.024 1487.14 419.329 1486.86 419.815L1483.62 417.961C1484.08 417.098 1484.69 416.429 1485.44 415.956C1486.21 415.49 1487.06 415.27 1488.01 415.295C1488.98 415.315 1489.97 415.62 1491.01 416.211ZM1480.72 431.065C1480.12 430.719 1479.73 430.254 1479.55 429.67C1479.39 429.08 1479.46 428.514 1479.78 427.972C1480.09 427.416 1480.55 427.058 1481.14 426.898C1481.74 426.745 1482.35 426.842 1482.95 427.187C1483.54 427.525 1483.91 427.989 1484.07 428.579C1484.24 429.177 1484.17 429.754 1483.85 430.31C1483.54 430.852 1483.08 431.199 1482.48 431.352C1481.9 431.498 1481.31 431.403 1480.72 431.065Z" fill="#E21B1A"/>
<path d="M1346.16 379.403C1347.74 379.885 1348.87 380.699 1349.56 381.846C1350.25 382.997 1350.36 384.354 1349.89 385.917C1349.45 387.357 1348.65 388.344 1347.48 388.876C1346.34 389.398 1345.02 389.439 1343.52 388.999L1342.89 390.69L1339.56 389.676L1340.76 385.367L1342.09 385.772C1343.22 386.119 1344.13 386.237 1344.81 386.126C1345.51 386.02 1345.97 385.584 1346.2 384.817C1346.37 384.281 1346.36 383.817 1346.17 383.425C1345.98 383.033 1345.64 382.76 1345.14 382.607C1344.6 382.445 1344.14 382.479 1343.75 382.711C1343.36 382.927 1343.08 383.304 1342.92 383.84L1339.35 382.752C1339.61 381.808 1340.05 381.022 1340.68 380.392C1341.32 379.768 1342.11 379.363 1343.04 379.177C1343.98 378.98 1345.03 379.056 1346.16 379.403ZM1339.45 396.172C1338.78 395.969 1338.3 395.603 1337.99 395.074C1337.7 394.534 1337.65 393.966 1337.83 393.368C1338.02 392.755 1338.38 392.305 1338.92 392.017C1339.48 391.734 1340.09 391.694 1340.75 391.897C1341.4 392.095 1341.87 392.464 1342.16 393.004C1342.46 393.549 1342.51 394.127 1342.33 394.74C1342.14 395.338 1341.78 395.778 1341.22 396.061C1340.69 396.333 1340.09 396.37 1339.45 396.172Z" fill="#E21B1A"/>
<path d="M1417.52 332C1418.57 332 1419.41 332.299 1420.04 332.897C1420.68 333.495 1421 334.339 1421 335.429C1421 336.433 1420.7 337.218 1420.09 337.784C1419.49 338.339 1418.69 338.622 1417.7 338.633L1417.63 339.834H1415.42L1415.34 336.854H1416.23C1416.98 336.854 1417.56 336.753 1417.95 336.55C1418.35 336.347 1418.55 335.979 1418.55 335.445C1418.55 335.071 1418.46 334.777 1418.27 334.563C1418.09 334.35 1417.83 334.243 1417.49 334.243C1417.14 334.243 1416.87 334.355 1416.67 334.579C1416.47 334.793 1416.37 335.087 1416.37 335.461H1414C1413.98 334.809 1414.11 334.222 1414.37 333.698C1414.65 333.175 1415.05 332.764 1415.58 332.465C1416.12 332.155 1416.77 332 1417.52 332ZM1416.55 344C1416.11 344 1415.75 343.861 1415.46 343.583C1415.19 343.295 1415.05 342.943 1415.05 342.526C1415.05 342.099 1415.19 341.741 1415.46 341.453C1415.75 341.164 1416.11 341.02 1416.55 341.02C1416.98 341.02 1417.34 341.164 1417.61 341.453C1417.9 341.741 1418.04 342.099 1418.04 342.526C1418.04 342.943 1417.9 343.295 1417.61 343.583C1417.34 343.861 1416.98 344 1416.55 344Z" fill="#E21B1A"/>
<path d="M1386.52 489.35C1387.51 489.699 1388.2 490.261 1388.59 491.034C1389 491.811 1389.02 492.713 1388.65 493.74C1388.32 494.687 1387.77 495.326 1387.01 495.657C1386.26 495.981 1385.42 495.983 1384.48 495.663L1384.01 496.772L1381.92 496.036L1382.85 493.201L1383.68 493.496C1384.39 493.747 1384.97 493.843 1385.41 493.782C1385.85 493.725 1386.17 493.445 1386.34 492.941C1386.47 492.589 1386.48 492.28 1386.37 492.017C1386.27 491.753 1386.06 491.566 1385.74 491.455C1385.41 491.337 1385.11 491.351 1384.85 491.497C1384.6 491.633 1384.41 491.878 1384.28 492.23L1382.05 491.441C1382.24 490.82 1382.55 490.307 1382.98 489.901C1383.41 489.499 1383.93 489.246 1384.53 489.14C1385.14 489.028 1385.8 489.098 1386.52 489.35ZM1381.61 500.341C1381.19 500.194 1380.89 499.942 1380.72 499.586C1380.55 499.222 1380.54 498.844 1380.68 498.451C1380.82 498.048 1381.07 497.757 1381.43 497.576C1381.79 497.399 1382.18 497.384 1382.6 497.531C1383.01 497.675 1383.29 497.929 1383.45 498.292C1383.63 498.659 1383.64 499.044 1383.5 499.447C1383.36 499.84 1383.11 500.125 1382.74 500.302C1382.39 500.472 1382.01 500.485 1381.61 500.341Z" fill="#E21B1A"/>
<path d="M1310.52 519C1311.57 519 1312.41 519.299 1313.04 519.897C1313.68 520.495 1314 521.339 1314 522.429C1314 523.433 1313.7 524.218 1313.09 524.784C1312.49 525.339 1311.69 525.622 1310.7 525.633L1310.63 526.834H1308.42L1308.34 523.854H1309.23C1309.98 523.854 1310.56 523.753 1310.95 523.55C1311.35 523.347 1311.55 522.979 1311.55 522.445C1311.55 522.071 1311.46 521.777 1311.27 521.563C1311.09 521.35 1310.83 521.243 1310.49 521.243C1310.14 521.243 1309.87 521.355 1309.67 521.579C1309.47 521.793 1309.37 522.087 1309.37 522.461H1307C1306.98 521.809 1307.11 521.222 1307.37 520.698C1307.65 520.175 1308.05 519.764 1308.58 519.465C1309.12 519.155 1309.77 519 1310.52 519ZM1309.55 531C1309.11 531 1308.75 530.861 1308.46 530.583C1308.19 530.295 1308.05 529.943 1308.05 529.526C1308.05 529.099 1308.19 528.741 1308.46 528.453C1308.75 528.164 1309.11 528.02 1309.55 528.02C1309.98 528.02 1310.34 528.164 1310.61 528.453C1310.9 528.741 1311.04 529.099 1311.04 529.526C1311.04 529.943 1310.9 530.295 1310.61 530.583C1310.34 530.861 1309.98 531 1309.55 531Z" fill="#E21B1A"/>
<path d="M1453.49 632.809C1454.39 632.278 1455.27 632.113 1456.11 632.312C1456.97 632.506 1457.67 633.073 1458.22 634.013C1458.73 634.88 1458.86 635.711 1458.62 636.508C1458.38 637.289 1457.84 637.935 1456.99 638.445L1457.53 639.52L1455.62 640.635L1454.05 638.1L1454.82 637.654C1455.47 637.272 1455.92 636.895 1456.15 636.521C1456.4 636.143 1456.39 635.723 1456.12 635.262C1455.93 634.939 1455.7 634.733 1455.43 634.642C1455.16 634.552 1454.88 634.591 1454.59 634.76C1454.29 634.939 1454.11 635.174 1454.05 635.467C1453.99 635.75 1454.05 636.054 1454.24 636.376L1452.19 637.574C1451.85 637.021 1451.66 636.452 1451.62 635.866C1451.6 635.276 1451.74 634.718 1452.04 634.192C1452.35 633.652 1452.83 633.191 1453.49 632.809ZM1458.7 643.659C1458.32 643.882 1457.94 643.945 1457.55 643.849C1457.17 643.739 1456.87 643.504 1456.66 643.145C1456.45 642.776 1456.39 642.398 1456.48 642.01C1456.58 641.617 1456.82 641.309 1457.2 641.086C1457.57 640.868 1457.95 640.814 1458.33 640.924C1458.73 641.029 1459.03 641.266 1459.25 641.635C1459.46 641.995 1459.51 642.371 1459.41 642.764C1459.31 643.142 1459.08 643.44 1458.7 643.659Z" fill="#E21B1A"/>
<path d="M1537.99 524.189C1539.01 524.448 1539.75 524.944 1540.21 525.678C1540.69 526.415 1540.79 527.311 1540.52 528.367C1540.27 529.34 1539.79 530.027 1539.06 530.426C1538.34 530.817 1537.5 530.896 1536.53 530.662L1536.17 531.809L1534.03 531.266L1534.69 528.359L1535.54 528.577C1536.28 528.762 1536.86 528.805 1537.29 528.705C1537.73 528.607 1538.02 528.3 1538.15 527.782C1538.24 527.419 1538.22 527.112 1538.09 526.859C1537.96 526.606 1537.74 526.438 1537.41 526.356C1537.07 526.27 1536.78 526.311 1536.53 526.48C1536.29 526.639 1536.12 526.899 1536.03 527.262L1533.73 526.679C1533.87 526.042 1534.13 525.503 1534.52 525.061C1534.91 524.621 1535.41 524.322 1535.99 524.162C1536.59 523.994 1537.26 524.004 1537.99 524.189ZM1534.1 535.583C1533.67 535.474 1533.36 535.25 1533.15 534.911C1532.95 534.564 1532.91 534.188 1533.01 533.785C1533.11 533.37 1533.33 533.057 1533.67 532.845C1534.02 532.636 1534.41 532.585 1534.83 532.694C1535.25 532.8 1535.56 533.027 1535.76 533.374C1535.96 533.723 1536.01 534.105 1535.91 534.519C1535.8 534.923 1535.58 535.23 1535.23 535.439C1534.9 535.641 1534.52 535.689 1534.1 535.583Z" fill="#E21B1A"/>
<path d="M1629.84 269.621C1630.78 269.152 1631.66 269.044 1632.49 269.299C1633.33 269.549 1634 270.161 1634.48 271.136C1634.93 272.034 1635.01 272.872 1634.72 273.651C1634.43 274.415 1633.84 275.024 1632.96 275.477L1633.43 276.585L1631.45 277.572L1630.06 274.938L1630.85 274.544C1631.52 274.206 1631.99 273.858 1632.25 273.501C1632.52 273.14 1632.54 272.72 1632.3 272.242C1632.13 271.908 1631.92 271.687 1631.66 271.579C1631.39 271.471 1631.11 271.492 1630.82 271.641C1630.5 271.799 1630.3 272.022 1630.23 272.311C1630.15 272.59 1630.19 272.896 1630.36 273.231L1628.24 274.29C1627.93 273.716 1627.77 273.136 1627.78 272.549C1627.79 271.958 1627.97 271.41 1628.31 270.905C1628.65 270.387 1629.16 269.959 1629.84 269.621ZM1634.33 280.792C1633.93 280.989 1633.55 281.027 1633.17 280.906C1632.79 280.771 1632.51 280.517 1632.33 280.144C1632.14 279.762 1632.1 279.381 1632.22 279C1632.34 278.614 1632.6 278.323 1633 278.126C1633.39 277.933 1633.77 277.904 1634.14 278.039C1634.52 278.17 1634.81 278.426 1635 278.808C1635.19 279.181 1635.22 279.56 1635.09 279.945C1634.97 280.317 1634.72 280.599 1634.33 280.792Z" fill="#E21B1A"/>
<path d="M1710.95 460.09C1711.63 459.29 1712.4 458.845 1713.27 458.755C1714.14 458.657 1714.99 458.961 1715.81 459.668C1716.58 460.319 1716.98 461.06 1717.01 461.891C1717.05 462.707 1716.75 463.496 1716.11 464.258L1716.98 465.094L1715.55 466.776L1713.23 464.899L1713.8 464.226C1714.29 463.65 1714.59 463.147 1714.69 462.717C1714.8 462.278 1714.65 461.886 1714.24 461.54C1713.96 461.297 1713.67 461.178 1713.39 461.181C1713.1 461.185 1712.85 461.313 1712.64 461.568C1712.41 461.837 1712.31 462.119 1712.36 462.414C1712.39 462.702 1712.55 462.967 1712.84 463.21L1711.3 465.015C1710.79 464.607 1710.42 464.133 1710.2 463.591C1709.98 463.042 1709.93 462.469 1710.04 461.872C1710.16 461.26 1710.46 460.666 1710.95 460.09ZM1719.45 468.614C1719.16 468.951 1718.82 469.137 1718.43 469.174C1718.03 469.196 1717.67 469.072 1717.35 468.802C1717.03 468.525 1716.85 468.188 1716.81 467.792C1716.77 467.388 1716.9 467.018 1717.18 466.681C1717.46 466.352 1717.8 466.177 1718.2 466.155C1718.61 466.125 1718.97 466.249 1719.29 466.526C1719.61 466.796 1719.79 467.133 1719.82 467.537C1719.86 467.926 1719.73 468.286 1719.45 468.614Z" fill="#E21B1A"/>
</g>
<defs>
<filter id="filter0_f_2650_317" x="1114" y="11" width="856" height="856" filterUnits="userSpaceOnUse" color-interpolation-filters="sRGB">
<feFlood flood-opacity="0" result="BackgroundImageFix"/>
<feBlend mode="normal" in="SourceGraphic" in2="BackgroundImageFix" result="shape"/>
<feGaussianBlur stdDeviation="125" result="effect1_foregroundBlur_2650_317"/>
</filter>
<filter id="filter1_f_2650_317" x="822" y="-218" width="856" height="856" filterUnits="userSpaceOnUse" color-interpolation-filters="sRGB">
<feFlood flood-opacity="0" result="BackgroundImageFix"/>
<feBlend mode="normal" in="SourceGraphic" in2="BackgroundImageFix" result="shape"/>
<feGaussianBlur stdDeviation="125" result="effect1_foregroundBlur_2650_317"/>
</filter>
<filter id="filter2_f_2650_317" x="1472" y="-80" width="167" height="167" filterUnits="userSpaceOnUse" color-interpolation-filters="sRGB">
<feFlood flood-opacity="0" result="BackgroundImageFix"/>
<feBlend mode="normal" in="SourceGraphic" in2="BackgroundImageFix" result="shape"/>
<feGaussianBlur stdDeviation="27" result="effect1_foregroundBlur_2650_317"/>
</filter>
<filter id="filter3_f_2650_317" x="1649.48" y="513.201" width="103.352" height="138.7" filterUnits="userSpaceOnUse" color-interpolation-filters="sRGB">
<feFlood flood-opacity="0" result="BackgroundImageFix"/>
<feBlend mode="normal" in="SourceGraphic" in2="BackgroundImageFix" result="shape"/>
<feGaussianBlur stdDeviation="12" result="effect1_foregroundBlur_2650_317"/>
</filter>
<filter id="filter4_f_2650_317" x="1183.67" y="465.989" width="69.1172" height="83.7114" filterUnits="userSpaceOnUse" color-interpolation-filters="sRGB">
<feFlood flood-opacity="0" result="BackgroundImageFix"/>
<feBlend mode="normal" in="SourceGraphic" in2="BackgroundImageFix" result="shape"/>
<feGaussianBlur stdDeviation="7.5" result="effect1_foregroundBlur_2650_317"/>
</filter>
<clipPath id="clip0_2650_317">
<rect width="1920" height="850" fill="white"/>
</clipPath>
</defs>
</svg>
