<svg width="48" height="48" viewBox="0 0 48 48" fill="none" xmlns="http://www.w3.org/2000/svg">
<path d="M24 44C35.0457 44 44 35.0457 44 24C44 12.9543 35.0457 4 24 4C12.9543 4 4 12.9543 4 24C4 35.0457 12.9543 44 24 44Z" fill="#002A73"/>
<path d="M17.379 35.2078C17.379 35.3733 17.1935 35.5058 16.9596 35.5058C16.6935 35.5306 16.5081 35.3982 16.5081 35.2078C16.5081 35.0425 16.6935 34.9102 16.9274 34.9102C17.1693 34.8853 17.379 35.0177 17.379 35.2078ZM14.871 34.8357C14.8145 35.0012 14.9758 35.1914 15.2177 35.241C15.4274 35.3238 15.6693 35.241 15.7177 35.0757C15.7661 34.9102 15.613 34.72 15.371 34.6456C15.1613 34.5876 14.9274 34.6704 14.871 34.8357ZM18.4355 34.6952C18.2016 34.7529 18.0403 34.9102 18.0645 35.1005C18.0887 35.2658 18.2984 35.3733 18.5403 35.3154C18.7742 35.2574 18.9355 35.1005 18.9113 34.9349C18.887 34.7778 18.6693 34.6704 18.4355 34.6952ZM23.7419 3C12.5565 3 4 11.7095 4 23.1816C4 32.3543 9.62902 40.2036 17.6693 42.9663C18.7016 43.1566 19.0645 42.503 19.0645 41.9656C19.0645 41.4526 19.0403 38.6239 19.0403 36.887C19.0403 36.887 13.3951 38.1277 12.2096 34.4223C12.2096 34.4223 11.2903 32.0153 9.96773 31.3948C9.96773 31.3948 8.12098 30.0963 10.0968 30.1211C10.0968 30.1211 12.1049 30.2865 13.2096 32.255C14.9758 35.4478 17.9355 34.5297 19.0887 33.9838C19.2742 32.6603 19.7984 31.7424 20.379 31.1963C15.871 30.6837 11.3226 30.0135 11.3226 22.0568C11.3226 19.7822 11.9355 18.6407 13.2258 17.185C13.0161 16.6474 12.3307 14.4308 13.4355 11.5689C15.121 11.0313 19 13.8022 19 13.8022C20.613 13.339 22.3468 13.0991 24.0645 13.0991C25.7823 13.0991 27.5162 13.339 29.1291 13.8022C29.1291 13.8022 33.008 11.0231 34.6935 11.5689C35.7985 14.439 35.1129 16.6474 34.9033 17.185C36.1935 18.649 36.9838 19.7905 36.9838 22.0568C36.9838 30.0384 32.2338 30.6753 27.7258 31.1963C28.4678 31.8498 29.0967 33.0905 29.0967 35.0342C29.0967 37.8217 29.0727 41.2707 29.0727 41.9488C29.0727 42.4866 29.4435 43.1399 30.4678 42.9499C38.5322 40.2036 44 32.3543 44 23.1816C44 11.7095 34.9273 3 23.7419 3ZM11.8387 31.5272C11.7339 31.61 11.7581 31.8001 11.8951 31.9573C12.0242 32.0898 12.2096 32.1477 12.3145 32.0401C12.4193 31.9573 12.3951 31.7672 12.2581 31.61C12.129 31.4775 11.9435 31.4198 11.8387 31.5272ZM10.9677 30.8573C10.9113 30.9649 10.9919 31.0971 11.1532 31.1799C11.2823 31.2627 11.4436 31.2379 11.5 31.1219C11.5564 31.0146 11.4758 30.8822 11.3145 30.7994C11.1532 30.7498 11.0242 30.7746 10.9677 30.8573ZM13.5807 33.8018C13.4516 33.9093 13.5 34.1574 13.6855 34.3147C13.871 34.5048 14.1049 34.5297 14.2096 34.3974C14.3145 34.2899 14.2661 34.0418 14.1049 33.8846C13.9274 33.6942 13.6855 33.6694 13.5807 33.8018ZM12.6613 32.5859C12.5323 32.6686 12.5323 32.8838 12.6613 33.074C12.7903 33.2641 13.0081 33.3469 13.113 33.2641C13.2419 33.1567 13.2419 32.9416 13.113 32.7515C13 32.5611 12.7903 32.4786 12.6613 32.5859Z" fill="white"/>
</svg>