<svg width="228" height="107" viewBox="0 0 228 107" fill="none" xmlns="http://www.w3.org/2000/svg">
<path d="M7.25781 59.3911C7.25163 59.1039 7.34296 58.8483 7.53178 58.6243C7.72939 58.3863 7.9595 58.1587 8.22211 57.9418C8.49614 57.7222 8.78422 57.5113 9.08635 57.3093C9.38585 57.0958 9.65549 56.8832 9.89526 56.6715C10.1465 56.4572 10.341 56.2318 10.4789 55.9956C10.6141 55.7478 10.6488 55.4813 10.5829 55.1958C10.4985 54.8304 10.3316 54.5502 10.0821 54.3553C9.84408 54.1577 9.54542 54.0101 9.18617 53.9127C8.83833 53.8126 8.45141 53.7515 8.0254 53.7296C7.5994 53.7077 7.16197 53.6884 6.71313 53.6718C6.27307 53.6411 5.8374 53.6033 5.40612 53.5586C4.97221 53.5024 4.57035 53.4028 4.20055 53.2596C3.84217 53.1138 3.53033 52.9092 3.26504 52.6457C3.01117 52.3796 2.83151 52.0182 2.72607 51.5615C2.63907 51.1847 2.63157 50.8135 2.70356 50.4481C2.78434 50.0687 2.91606 49.7015 3.09872 49.3466C3.29017 48.9777 3.52246 48.6294 3.7956 48.3018C4.08016 47.9715 4.38536 47.6785 4.7112 47.4229C5.04847 47.1646 5.39496 46.9463 5.75068 46.768C6.10376 46.5782 6.44016 46.4464 6.75987 46.3726L6.94828 46.3291C7.05895 46.3397 7.20915 46.3651 7.39888 46.4055C7.58861 46.4459 7.77263 46.4876 7.95094 46.5306C8.12662 46.5622 8.27945 46.5991 8.40946 46.6412C8.53682 46.672 8.60182 46.693 8.60446 46.7045L8.6954 47.0984C8.48373 47.1713 8.21452 47.2816 7.88779 47.4292C7.55841 47.5654 7.21719 47.7283 6.86411 47.9181C6.51102 48.1078 6.15882 48.3275 5.8075 48.5769C5.45355 48.815 5.14615 49.0724 4.8853 49.3491C4.62445 49.6258 4.42861 49.9236 4.29776 50.2425C4.16428 50.5499 4.13708 50.8749 4.21617 51.2174C4.32952 51.7084 4.59043 52.0571 4.99888 52.2635C5.4047 52.4584 5.88561 52.588 6.44162 52.652C6.99763 52.7161 7.59535 52.7525 8.2348 52.7612C8.88303 52.7559 9.48778 52.7967 10.0491 52.8836C10.6077 52.9591 11.0965 53.1228 11.5155 53.3749C11.9319 53.6155 12.2033 54.0099 12.3299 54.558C12.3984 54.8548 12.3796 55.1899 12.2733 55.5632C12.1758 55.9225 12.0156 56.2962 11.7925 56.6845C11.5782 57.0587 11.3213 57.4307 11.0219 57.8005C10.7224 58.1703 10.4036 58.5085 10.0654 58.8151C9.73607 59.1076 9.40451 59.3646 9.07076 59.586C8.73437 59.7959 8.42344 59.9339 8.13798 59.9998C8.04663 60.0209 7.94694 60.0318 7.8389 60.0327C7.73087 60.0336 7.63161 60.0205 7.54114 59.9932C7.45944 59.952 7.3839 59.8852 7.3145 59.793C7.25652 59.6981 7.23762 59.5642 7.25781 59.3911ZM10.9336 50.2259C10.9257 50.1916 10.9248 50.1617 10.9309 50.1363C10.9256 50.1134 10.9248 50.0836 10.9283 50.0467C10.9608 49.979 11.0121 49.889 11.0824 49.7766C11.1527 49.6641 11.1992 49.6053 11.222 49.6L14.6647 48.8052C14.6357 48.6796 14.5724 48.4837 14.4749 48.2176C14.3774 47.9515 14.2733 47.6568 14.1626 47.3336C14.0633 47.0077 13.9785 46.6665 13.9082 46.3099C13.8352 45.9418 13.8058 45.6059 13.8198 45.302C13.8426 44.984 13.9243 44.7126 14.0648 44.4877C14.2141 44.2488 14.46 44.0898 14.8026 44.0107C15.0688 45.1639 15.3623 46.0704 15.6829 46.73C16.0036 47.3896 16.3387 47.8775 16.6884 48.1937C17.0494 48.5072 17.4144 48.6815 17.7833 48.7166C18.1522 48.7517 18.5123 48.7227 18.8637 48.6296C19.2238 48.5224 19.5646 48.3836 19.886 48.2131C20.2075 48.0427 20.4956 47.9101 20.7503 47.8152C21.0164 47.7176 21.24 47.6961 21.4209 47.7505C21.5992 47.7936 21.7253 47.9749 21.7991 48.2947C21.8545 48.5344 21.8369 48.7189 21.7464 48.848C21.6674 48.9745 21.4803 49.1019 21.1852 49.2302C21.0965 49.2627 20.9476 49.3211 20.7386 49.4054C20.5383 49.4757 20.3095 49.5526 20.0522 49.6361C19.7948 49.7195 19.5217 49.8127 19.2327 49.9155C18.9411 50.0068 18.6666 50.0943 18.4093 50.1777C18.1519 50.2612 17.9161 50.3337 17.7018 50.3952C17.4848 50.4453 17.325 50.4822 17.2222 50.5059C17.2354 50.563 17.2521 50.6614 17.2723 50.801C17.2925 50.9407 17.3079 51.0334 17.3184 51.079C17.4344 51.5814 17.6277 52.054 17.8983 52.4966C18.1662 52.9279 18.4456 53.3565 18.7363 53.7825C19.0385 54.2058 19.3236 54.6331 19.5915 55.0644C19.8595 55.4956 20.0514 55.9624 20.1674 56.4648C20.1885 56.5562 20.1995 56.6559 20.2004 56.7639C20.2101 56.8579 20.1956 56.9515 20.157 57.0446C20.1271 57.1236 20.0647 57.1921 19.9699 57.2501C19.8891 57.3169 19.7564 57.3415 19.572 57.3239C19.1117 57.3099 18.7296 57.1396 18.4257 56.8128C18.1332 56.4835 17.8762 56.0738 17.6548 55.5837C17.4308 55.0821 17.2344 54.5442 17.0657 53.9697C16.897 53.3953 16.7147 52.8661 16.5188 52.3821C16.3317 51.8841 16.1173 51.4766 15.8757 51.1595C15.6315 50.8311 15.3232 50.6677 14.9508 50.6695L11.4712 50.679C11.4255 50.6896 11.3464 50.6597 11.234 50.5895C11.1189 50.5078 11.0447 50.4468 11.0113 50.4064C10.9946 50.3862 10.9823 50.3589 10.9744 50.3247C10.9577 50.3045 10.9441 50.2715 10.9336 50.2259ZM30.4696 52.4808C30.1042 52.8779 29.7893 53.2332 29.525 53.5468C29.2694 53.8463 29.0116 54.1103 28.7517 54.3387C28.4917 54.5671 28.1997 54.7608 27.8756 54.9198C27.5629 55.0762 27.161 55.2111 26.6701 55.3244C25.6081 55.5696 24.7557 55.4717 24.1127 55.0308C23.4671 54.5785 23.0151 53.7929 22.7567 52.6739C22.6566 52.24 22.6095 51.7758 22.6156 51.2813C22.6217 50.7868 22.6805 50.2861 22.792 49.7793C22.9123 49.2584 23.0792 48.7568 23.2925 48.2746C23.5033 47.7809 23.7659 47.3294 24.0803 46.9201C24.3947 46.5107 24.7478 46.1646 25.1395 45.8818C25.54 45.5848 25.9858 45.3797 26.4768 45.2664C27.3173 45.1565 28.0099 45.2131 28.5545 45.4361C29.0965 45.6478 29.5467 45.9828 29.9051 46.4413C30.2609 46.8883 30.5569 47.4153 30.7933 48.0222C31.027 48.6177 31.2431 49.2414 31.4417 49.8931C31.6517 50.5422 31.8731 51.1886 32.1059 51.8324C32.3387 52.4762 32.6453 53.0489 33.0257 53.5504C32.9642 53.9615 32.8821 54.2571 32.7794 54.4371C32.6907 54.626 32.5546 54.6875 32.371 54.6216C32.1874 54.5558 31.941 54.3481 31.6318 53.9985C31.334 53.6463 30.9466 53.1404 30.4696 52.4808ZM24.2205 52.372C24.3707 53.0229 24.6014 53.4748 24.9123 53.7277C25.2321 53.9666 25.7059 54.0136 26.3339 53.8686C26.8021 53.7605 27.229 53.5777 27.6145 53.3203C28.0089 53.0489 28.333 52.7335 28.5868 52.3743C28.838 52.0036 29.0132 51.5903 29.1124 51.1344C29.2116 50.6785 29.2032 50.1994 29.0872 49.697C29.0398 49.4915 28.9796 49.2047 28.9066 48.8367C28.831 48.4572 28.7225 48.0914 28.5811 47.7392C28.4396 47.387 28.2587 47.098 28.0382 46.8723C27.8151 46.6352 27.5436 46.5535 27.2239 46.6273C26.6302 46.7644 26.1177 47.0451 25.6864 47.4694C25.2526 47.8822 24.907 48.3649 24.6497 48.9174C24.3924 49.4699 24.2269 50.0554 24.1531 50.6737C24.0768 51.2807 24.0992 51.8468 24.2205 52.372ZM31.8887 46.9034C31.865 46.8006 31.847 46.6965 31.8347 46.5911C31.8197 46.4743 31.8202 46.372 31.836 46.2842C31.8491 46.1849 31.8834 46.0988 31.9387 46.0259C32.0054 45.9504 32.1073 45.8968 32.2443 45.8651C32.3585 45.8388 32.5052 45.9011 32.6844 46.0522C32.8724 46.1892 33.0722 46.3776 33.284 46.6174C33.493 46.8457 33.703 47.1039 33.9138 47.392C34.1361 47.6774 34.3302 47.9453 34.4962 48.1956C34.6711 48.4319 34.8151 48.6392 34.9284 48.8175C35.0418 48.9958 35.1055 49.0893 35.1195 49.0981C35.1757 48.6642 35.2411 48.1921 35.3157 47.6817C35.3903 47.1714 35.5128 46.6861 35.6832 46.2258C35.8623 45.7515 36.1029 45.3351 36.405 44.9767C36.7186 44.6157 37.1437 44.3732 37.6804 44.2493C37.9544 44.1861 38.2219 44.1724 38.4827 44.2084C38.7524 44.2303 38.9983 44.3059 39.2206 44.435C39.4516 44.55 39.6506 44.7085 39.8175 44.9105C39.9844 45.1125 40.1021 45.362 40.1706 45.6589C40.2286 45.9101 40.1667 46.1108 39.9849 46.261C39.8145 46.4086 39.6037 46.5114 39.3525 46.5694L39.1812 46.6089L38.2747 46.0424C38.2519 46.0477 38.2334 46.046 38.2194 46.0372C38.1966 46.0424 38.1737 46.0477 38.1509 46.053C38.1368 46.0442 38.1184 46.0425 38.0955 46.0477C37.6959 46.14 37.4083 46.3267 37.2326 46.6078C37.0657 46.8748 36.9634 47.1871 36.9257 47.5446C36.8853 47.8906 36.8902 48.2503 36.9403 48.6236C36.9992 48.9829 37.0629 49.3109 37.1314 49.6078C37.1842 49.8362 37.261 50.065 37.3621 50.2942C37.4605 50.512 37.5646 50.7285 37.6744 50.9437C37.7816 51.1475 37.8857 51.364 37.9867 51.5932C38.0851 51.8111 38.1633 52.0456 38.2213 52.2968C38.332 52.7764 38.1305 53.0755 37.6166 53.1941C37.3312 53.26 37 53.1801 36.6232 52.9544C36.2437 52.7173 35.8458 52.4002 35.4294 52.0032C35.0245 51.6036 34.6204 51.1557 34.2172 50.6595C33.8113 50.1518 33.4437 49.6534 33.1142 49.1642C32.7848 48.675 32.5072 48.2279 32.2814 47.823C32.0671 47.4155 31.9362 47.1089 31.8887 46.9034ZM39.2304 43.693C39.2225 43.6588 39.2216 43.6289 39.2278 43.6034C39.2225 43.5806 39.2216 43.5507 39.2251 43.5138C39.2576 43.4462 39.309 43.3562 39.3792 43.2437C39.4495 43.1313 39.4961 43.0724 39.5189 43.0672L42.9615 42.2724C42.9325 42.1468 42.8693 41.9509 42.7718 41.6848C42.6742 41.4186 42.5701 41.124 42.4594 40.8007C42.3601 40.4749 42.2753 40.1336 42.205 39.777C42.1321 39.409 42.1026 39.073 42.1167 38.7691C42.1395 38.4512 42.2211 38.1797 42.3617 37.9549C42.5109 37.7159 42.7569 37.5569 43.0994 37.4778C43.3657 38.6311 43.6591 39.5375 43.9798 40.1972C44.3005 40.8568 44.6356 41.3447 44.9852 41.6608C45.3462 41.9744 45.7112 42.1487 46.0801 42.1838C46.449 42.2189 46.8092 42.1899 47.1605 42.0967C47.5206 41.9895 47.8614 41.8507 48.1829 41.6803C48.5043 41.5099 48.7924 41.3772 49.0471 41.2823C49.3133 41.1848 49.5368 41.1633 49.7178 41.2177C49.8961 41.2607 50.0221 41.4421 50.0959 41.7618C50.1513 42.0016 50.1338 42.1861 50.0433 42.3152C49.9643 42.4417 49.7772 42.5691 49.4821 42.6973C49.3934 42.7298 49.2445 42.7883 49.0354 42.8726C48.8352 42.9429 48.6064 43.0198 48.349 43.1032C48.0917 43.1867 47.8185 43.2798 47.5295 43.3826C47.2379 43.474 46.9635 43.5614 46.7061 43.6449C46.4488 43.7284 46.2129 43.8008 45.9986 43.8623C45.7817 43.9124 45.6218 43.9493 45.519 43.9731C45.5322 44.0302 45.5489 44.1285 45.5691 44.2682C45.5893 44.4078 45.6047 44.5005 45.6153 44.5462C45.7313 45.0486 45.9245 45.5211 46.1951 45.9638C46.4631 46.395 46.7424 46.8237 47.0332 47.2496C47.3354 47.673 47.6205 48.1003 47.8884 48.5315C48.1563 48.9628 48.3483 49.4296 48.4643 49.932C48.4854 50.0234 48.4964 50.123 48.4973 50.2311C48.5069 50.3251 48.4924 50.4186 48.4538 50.5117C48.4239 50.5908 48.3616 50.6593 48.2667 50.7173C48.1859 50.784 48.0533 50.8086 47.8688 50.7911C47.4086 50.7771 47.0265 50.6067 46.7225 50.28C46.43 49.9506 46.1731 49.5409 45.9517 49.0508C45.7276 48.5493 45.5313 48.0113 45.3626 47.4369C45.1939 46.8625 45.0116 46.3333 44.8156 45.8493C44.6285 45.3513 44.4142 44.9438 44.1726 44.6267C43.9284 44.2982 43.62 44.1349 43.2476 44.1367L39.768 44.1462C39.7223 44.1567 39.6433 44.1269 39.5308 44.0566C39.4158 43.975 39.3415 43.9139 39.3082 43.8735C39.2915 43.8533 39.2792 43.8261 39.2713 43.7918C39.2546 43.7716 39.241 43.7387 39.2304 43.693ZM61.5222 46.8632C60.9309 45.9173 60.3727 45.0359 59.8473 44.2191C59.3308 43.3882 58.8537 42.5723 58.4162 41.7713C57.9875 40.9562 57.6018 40.1191 57.2592 39.2601C56.9166 38.4011 56.6279 37.4635 56.3933 36.4473C56.3749 36.3674 56.3419 36.2246 56.2945 36.0191C56.2558 35.7995 56.2101 35.5755 56.1574 35.3472C56.1047 35.1188 56.0546 34.9018 56.0071 34.6963C55.9685 34.4767 55.9399 34.327 55.9214 34.247C55.9715 33.9949 56.0997 33.7428 56.3061 33.4907C56.5239 33.236 56.7641 33.0783 57.0267 33.0177C57.2218 33.8626 57.4415 34.7621 57.6858 35.7159C57.9274 36.6584 58.2147 37.5903 58.5477 38.5117C58.8921 39.4304 59.3011 40.3162 59.7746 41.169C60.2569 42.0078 60.8305 42.7473 61.4955 43.3876C61.4436 43.1109 61.3852 42.8057 61.3202 42.4719C61.2551 42.1381 61.2072 41.8004 61.1765 41.4587C61.1571 41.1144 61.1689 40.7749 61.2119 40.4403C61.2549 40.1056 61.3572 39.7934 61.5188 39.5035C61.6918 39.211 61.9395 38.9553 62.2618 38.7366C62.5956 38.5152 63.0378 38.347 63.5886 38.2319C64.0795 38.1185 64.5402 38.1084 64.9706 38.2014C65.4125 38.2919 65.8016 38.4666 66.138 38.7257C66.4833 38.9707 66.7731 39.2887 67.0077 39.6795C67.251 40.0563 67.4268 40.4788 67.5348 40.9469C67.6798 41.5749 67.668 42.2271 67.4994 42.9035C67.3309 43.5798 67.045 44.2171 66.6419 44.8153C66.2502 45.4109 65.7746 45.9296 65.2152 46.3715C64.6531 46.8019 64.0466 47.0923 63.3957 47.2425C63.0646 47.319 62.7317 47.3357 62.397 47.2927C62.0597 47.2382 61.7681 47.0951 61.5222 46.8632ZM64.1381 39.6745C63.9387 39.8528 63.7332 40.0566 63.5216 40.2859C63.3099 40.5152 63.1378 40.8376 63.0052 41.253C62.8814 41.6545 62.8164 42.1806 62.8103 42.8315C62.8042 43.4823 62.9014 44.3198 63.1017 45.344C63.1246 45.3387 63.183 45.3312 63.277 45.3216C63.3824 45.3092 63.4522 45.2991 63.4865 45.2912C63.7947 45.2201 64.1206 45.0426 64.464 44.7589C64.8188 44.4725 65.146 44.1444 65.4455 43.7746C65.7564 43.4021 66.0093 43.013 66.2043 42.6072C66.3966 42.1899 66.4844 41.8149 66.4677 41.482C66.4571 41.2799 66.3657 41.0665 66.1936 40.8417C66.0214 40.6168 65.8119 40.4126 65.565 40.2291C65.327 40.0315 65.0753 39.8791 64.8101 39.7719C64.5562 39.6622 64.3322 39.6297 64.1381 39.6745ZM66.7051 37.1155C66.6814 37.0127 66.6577 36.9099 66.6339 36.8072C66.619 36.6903 66.6181 36.5823 66.6313 36.4831C66.6532 36.3697 66.6932 36.2823 66.7511 36.2208C66.8179 36.1453 66.9255 36.0904 67.0739 36.0561C67.0853 36.0535 67.0968 36.0509 67.1082 36.0482C67.131 36.0429 67.1538 36.0377 67.1767 36.0324C67.2136 36.0359 67.2434 36.035 67.2663 36.0298C67.5518 36.2765 67.8285 36.6156 68.0964 37.0468C68.3617 37.4666 68.6292 37.9221 68.8989 38.413C69.166 38.8926 69.4471 39.3809 69.7423 39.878C70.0348 40.3638 70.3669 40.7862 70.7385 41.1454C71.11 41.5046 71.5247 41.7637 71.9823 41.9227C72.4399 42.0816 72.9617 42.0754 73.5475 41.9041C73.8101 41.8434 73.9485 41.6612 73.9625 41.3572C73.9765 41.0533 73.9321 40.6787 73.8293 40.2334C73.7379 39.7854 73.6132 39.2971 73.455 38.7683C73.3083 38.2369 73.191 37.7288 73.1031 37.244C73.024 36.7451 73.0108 36.2971 73.0634 35.9001C73.1275 35.5004 73.322 35.1969 73.647 34.9896C73.864 35.2522 74.092 35.6927 74.3309 36.311C74.5787 36.9153 74.8216 37.629 75.0597 38.452C75.2952 39.2636 75.525 40.1546 75.7491 41.1252C75.9705 42.0843 76.1691 43.0488 76.3449 44.0184C76.518 44.9767 76.6604 45.906 76.772 46.8063C76.8836 47.7066 76.9588 48.5011 76.9975 49.1897C77.0362 49.8783 77.0192 50.4295 76.9463 50.8432C76.8875 51.2657 76.7658 51.4682 76.5814 51.4506C76.2889 51.2776 76.0319 51.0243 75.8106 50.6905C75.6006 50.3541 75.4157 49.9698 75.2558 49.5377C75.1073 49.1029 74.9808 48.633 74.8762 48.128C74.7742 47.6344 74.6767 47.1337 74.5836 46.626C74.5018 46.1157 74.4227 45.6168 74.3463 45.1293C74.2812 44.6392 74.2026 44.1943 74.1103 43.7947C73.7071 43.9238 73.2702 43.9586 72.7994 43.8989C72.34 43.8366 71.8665 43.6873 71.379 43.4511C70.8889 43.2034 70.4 42.8833 69.9125 42.4907C69.4364 42.0955 68.9857 41.6282 68.5606 41.089C68.1468 40.5471 67.7796 39.9463 67.4589 39.2867C67.1356 38.6157 66.8844 37.8919 66.7051 37.1155ZM90.4998 50.5465C91.1392 50.3989 91.6825 50.1472 92.1295 49.7914C92.5792 49.447 92.9279 49.0298 93.1755 48.5396C93.4372 48.0583 93.5988 47.5339 93.6602 46.9665C93.7357 46.4078 93.7089 45.8488 93.5797 45.2892C93.5138 45.0038 93.4097 44.6309 93.2674 44.1707C93.1364 43.7078 92.9792 43.2089 92.7955 42.674C92.6119 42.1391 92.3971 41.5994 92.1511 41.0548C91.9165 40.5076 91.6613 40.0013 91.3855 39.5358C91.107 39.0589 90.8044 38.6597 90.4776 38.3382C90.1596 38.0027 89.828 37.7906 89.4828 37.7019C89.2386 37.9989 88.9962 38.2773 88.7556 38.5373C88.5123 38.7859 88.251 39.0086 87.9717 39.2054C87.6924 39.4022 87.3964 39.5788 87.0837 39.7351C86.7684 39.8801 86.4224 39.9961 86.0456 40.0831C85.5546 40.1964 85.1215 40.2483 84.7465 40.2386C84.3828 40.2264 84.0561 40.1395 83.7662 39.9779C83.4877 39.8136 83.2506 39.5677 83.0547 39.2401C82.8588 38.9125 82.6989 38.4804 82.575 37.9437C82.488 37.5669 82.495 37.1804 82.5959 36.7843C82.6943 36.3767 82.8563 35.9845 83.082 35.6077C83.3165 35.2168 83.5918 34.8465 83.908 34.4969C84.2356 34.1446 84.5768 33.8253 84.9316 33.539C85.2979 33.2499 85.6632 33.0092 86.0277 32.8168C86.4037 32.6218 86.7458 32.4887 87.0541 32.4175C87.3509 32.349 87.5991 32.3037 87.7985 32.2818C87.9952 32.2484 88.1713 32.2558 88.3268 32.3041C88.4796 32.341 88.6202 32.4288 88.7484 32.5676C88.8855 32.6923 89.03 32.8754 89.182 33.1169C89.6502 33.9469 90.1742 34.8362 90.754 35.7848C91.3338 36.7334 91.9031 37.7145 92.4618 38.728C93.0206 39.7416 93.5292 40.7727 93.9878 41.8215C94.4605 42.879 94.8154 43.9215 95.0527 44.9492C95.2636 45.8627 95.3102 46.6637 95.1926 47.3524C95.089 48.0498 94.8721 48.6471 94.5419 49.1443C94.2257 49.6502 93.8243 50.0736 93.3378 50.4145C92.8626 50.7527 92.3633 51.0123 91.8398 51.1933C91.319 51.3857 90.8034 51.5228 90.2931 51.6045C89.7827 51.6862 89.333 51.7179 88.9439 51.6995C88.5574 51.6925 88.2526 51.6486 88.0295 51.5678C87.8178 51.4844 87.7471 51.3865 87.8174 51.274C87.9017 51.1704 88.1511 51.0527 88.5657 50.9209C88.9803 50.7891 89.625 50.6643 90.4998 50.5465ZM86.9238 33.963C86.121 34.3408 85.4952 34.7559 85.0464 35.2083C84.6064 35.6466 84.2986 36.0845 84.1229 36.5219C83.9561 36.9453 83.9047 37.3481 83.9689 37.7301C84.0304 38.1008 84.1714 38.399 84.3919 38.6247C84.6124 38.8504 84.8869 38.9975 85.2154 39.066C85.5527 39.1204 85.9023 39.0457 86.2641 38.8419C86.6234 38.6267 86.9738 38.2692 87.3154 37.7693C87.6685 37.2669 87.9767 36.5703 88.2402 35.6796C88.1953 35.4855 88.1466 35.2743 88.0938 35.0459C88.0525 34.8149 87.988 34.6133 87.9001 34.4412C87.8096 34.2576 87.6871 34.1175 87.5325 34.0209C87.3779 33.9243 87.175 33.905 86.9238 33.963ZM92.0933 35.5658C91.951 34.9492 91.8828 34.3155 91.8889 33.6646C91.895 33.0138 92.0012 32.4059 92.2076 31.8411C92.4254 31.2737 92.7556 30.7765 93.1982 30.3496C93.6523 29.92 94.2504 29.6196 94.9926 29.4482C95.4151 29.3507 95.8047 29.3449 96.1613 29.431C96.5153 29.5056 96.8297 29.6435 97.1047 29.8446C97.3796 30.0457 97.608 30.3057 97.7899 30.6245C97.9805 30.9293 98.118 31.2644 98.2024 31.6298C98.3368 32.2121 98.3303 32.8089 98.1828 33.4203C98.0467 34.029 97.799 34.5973 97.4398 35.1253C97.0894 35.6391 96.6481 36.0718 96.1158 36.4232C95.5809 36.7631 94.9977 36.9459 94.3662 36.9714C94.4541 37.2999 94.6245 37.5432 94.8775 37.7013C95.1392 37.8453 95.4304 37.9344 95.751 37.9687C96.0716 38.0029 96.3957 38.0002 96.7234 37.9607C97.0483 37.9097 97.3364 37.8552 97.5876 37.7972C97.8503 37.7366 98.0905 37.6571 98.3083 37.5587C98.5261 37.4603 98.7426 37.3562 98.9578 37.2463C99.173 37.1365 99.3895 37.0324 99.6073 36.934C99.8366 36.833 100.083 36.7522 100.345 36.6915C100.448 36.6678 100.552 36.6498 100.657 36.6375C100.763 36.6252 100.866 36.6313 100.968 36.6559C101.068 36.6691 101.156 36.7147 101.234 36.7929C101.31 36.8596 101.362 36.9558 101.391 37.0814C101.441 37.2984 101.404 37.4995 101.278 37.6849C101.15 37.8588 100.972 38.0261 100.744 38.1869C100.528 38.345 100.279 38.4869 99.9949 38.6125C99.7085 38.7267 99.4266 38.8339 99.149 38.9341C98.8803 39.0202 98.626 39.0909 98.3862 39.1463C98.1605 39.2104 97.9905 39.2557 97.8763 39.282C97.1455 39.4508 96.4626 39.4881 95.8276 39.3942C95.1899 39.2889 94.6237 39.0768 94.1292 38.758C93.632 38.4278 93.2077 37.9966 92.8563 37.4643C92.5137 36.918 92.2594 36.2852 92.0933 35.5658ZM93.6518 34.0334C93.7441 34.433 93.8627 34.7123 94.0076 34.8713C94.164 35.0276 94.4534 35.057 94.8759 34.9595C95.1728 34.8909 95.4521 34.7723 95.7138 34.6037C95.9729 34.4236 96.1942 34.2101 96.3778 33.9633C96.5728 33.7138 96.7084 33.4419 96.7848 33.1477C96.8612 32.8534 96.8638 32.5522 96.7926 32.2439C96.7531 32.0726 96.6951 31.8996 96.6187 31.7248C96.5537 31.5473 96.4584 31.395 96.3327 31.2676C96.2045 31.1288 96.0556 31.0309 95.8861 30.9738C95.7253 30.9027 95.5308 30.8935 95.3024 30.9462C94.9598 31.0253 94.6643 31.1777 94.4157 31.4035C94.176 31.6152 93.988 31.8691 93.8519 32.1651C93.7131 32.4497 93.628 32.758 93.5964 33.09C93.5622 33.4106 93.5806 33.7251 93.6518 34.0334ZM100.716 32.5108C100.647 32.2139 100.673 31.9855 100.792 31.8257C100.909 31.6544 101.133 31.5305 101.464 31.4541L101.635 31.4145C101.712 31.5893 101.8 31.7913 101.901 32.0206C102.002 32.2498 102.128 32.4795 102.277 32.7096C102.426 32.9397 102.589 33.1487 102.765 33.3367C102.938 33.5132 103.13 33.6432 103.342 33.7266C103.261 33.3244 103.27 32.9194 103.368 32.5119C103.475 32.0902 103.633 31.7051 103.841 31.3563C104.058 30.9936 104.309 30.6769 104.596 30.4063C104.891 30.1217 105.196 29.9069 105.511 29.762L105.888 29.675C106.436 29.5484 106.933 29.566 107.379 29.7275C107.823 29.8777 108.217 30.1236 108.56 30.4652C108.912 30.7928 109.215 31.192 109.468 31.6628C109.721 32.1336 109.942 32.6237 110.132 33.1331C110.331 33.6285 110.492 34.1203 110.617 34.6087C110.751 35.083 110.857 35.4914 110.936 35.834L109.686 36.1226C109.459 35.4534 109.222 34.8166 108.974 34.2123C108.882 33.969 108.776 33.7169 108.655 33.456C108.532 33.1838 108.409 32.9356 108.285 32.7117C108.158 32.4763 108.031 32.265 107.904 32.078C107.774 31.8795 107.641 31.7179 107.504 31.5932C107.447 31.558 107.37 31.5097 107.272 31.4482C107.185 31.3841 107.092 31.3213 106.994 31.2599C106.895 31.1984 106.805 31.147 106.723 31.1057C106.642 31.0645 106.595 31.0451 106.584 31.0478C106.22 31.0355 105.939 31.1726 105.741 31.4589C105.54 31.7339 105.385 32.0822 105.278 32.5038C105.171 32.9254 105.11 33.3905 105.095 33.8991C105.092 34.405 105.102 34.8899 105.124 35.3536C105.145 35.806 105.176 36.2017 105.218 36.5407C105.258 36.8683 105.28 37.0677 105.284 37.1389C105.046 37.4103 104.792 37.5351 104.522 37.5131C104.25 37.4798 103.968 37.3524 103.677 37.1311C103.396 36.9072 103.117 36.6107 102.84 36.2419C102.574 35.8703 102.314 35.4733 102.06 35.0509C101.803 34.617 101.558 34.1805 101.324 33.7413C101.102 33.2995 100.899 32.8894 100.716 32.5108ZM110.164 31.3938C110.022 30.7772 109.954 30.1435 109.96 29.4926C109.966 28.8417 110.072 28.2339 110.279 27.6691C110.496 27.1017 110.827 26.6045 111.269 26.1776C111.723 25.748 112.321 25.4476 113.064 25.2762C113.486 25.1787 113.876 25.1729 114.232 25.259C114.586 25.3336 114.901 25.4715 115.176 25.6726C115.451 25.8737 115.679 26.1337 115.861 26.4525C116.051 26.7573 116.189 27.0924 116.273 27.4577C116.408 28.0401 116.401 28.6369 116.254 29.2483C116.118 29.857 115.87 30.4253 115.511 30.9532C115.16 31.4671 114.719 31.8997 114.187 32.2511C113.652 32.5911 113.069 32.7739 112.437 32.7994C112.525 33.1279 112.695 33.3712 112.948 33.5293C113.21 33.6733 113.501 33.7624 113.822 33.7966C114.143 33.8309 114.467 33.8282 114.794 33.7886C115.119 33.7377 115.407 33.6832 115.659 33.6252C115.921 33.5646 116.161 33.485 116.379 33.3866C116.597 33.2882 116.814 33.1841 117.029 33.0743C117.244 32.9645 117.461 32.8604 117.678 32.762C117.908 32.661 118.154 32.5801 118.416 32.5195C118.519 32.4958 118.623 32.4778 118.728 32.4655C118.834 32.4532 118.937 32.4593 119.039 32.4839C119.139 32.497 119.227 32.5427 119.305 32.6209C119.381 32.6876 119.433 32.7838 119.462 32.9094C119.512 33.1264 119.475 33.3275 119.349 33.5128C119.221 33.6868 119.043 33.8541 118.815 34.0149C118.599 34.173 118.35 34.3149 118.066 34.4405C117.78 34.5547 117.498 34.6619 117.22 34.7621C116.951 34.8482 116.697 34.9189 116.457 34.9743C116.231 35.0384 116.061 35.0837 115.947 35.11C115.217 35.2787 114.534 35.3161 113.899 35.2222C113.261 35.1169 112.695 34.9048 112.2 34.586C111.703 34.2558 111.279 33.8245 110.927 33.2923C110.585 32.746 110.33 32.1132 110.164 31.3938ZM111.723 29.8614C111.815 30.261 111.934 30.5403 112.079 30.6993C112.235 30.8556 112.524 30.885 112.947 30.7875C113.244 30.7189 113.523 30.6003 113.785 30.4317C114.044 30.2516 114.265 30.0381 114.449 29.7913C114.644 29.5418 114.779 29.2699 114.856 28.9757C114.932 28.6814 114.935 28.3801 114.864 28.0718C114.824 27.9006 114.766 27.7275 114.69 27.5528C114.625 27.3753 114.529 27.2229 114.404 27.0956C114.275 26.9568 114.127 26.8589 113.957 26.8018C113.796 26.7307 113.602 26.7215 113.373 26.7742C113.031 26.8533 112.735 27.0057 112.487 27.2315C112.247 27.4432 112.059 27.6971 111.923 27.9931C111.784 28.2777 111.699 28.586 111.667 28.918C111.633 29.2386 111.652 29.5531 111.723 29.8614ZM118.458 26.9172C118.435 26.8144 118.417 26.7103 118.404 26.6049C118.389 26.4881 118.39 26.3858 118.406 26.298C118.419 26.1987 118.453 26.1126 118.508 26.0397C118.575 25.9642 118.677 25.9106 118.814 25.8789C118.928 25.8526 119.075 25.9149 119.254 26.066C119.442 26.203 119.642 26.3914 119.854 26.6312C120.063 26.8595 120.273 27.1177 120.484 27.4058C120.706 27.6913 120.9 27.9591 121.066 28.2094C121.241 28.4457 121.385 28.653 121.498 28.8313C121.612 29.0096 121.675 29.1031 121.689 29.1119C121.745 28.678 121.811 28.2059 121.885 27.6955C121.96 27.1852 122.083 26.6999 122.253 26.2396C122.432 25.7653 122.673 25.3489 122.975 24.9905C123.288 24.6295 123.713 24.387 124.25 24.2631C124.524 24.1999 124.792 24.1862 125.052 24.2222C125.322 24.2441 125.568 24.3197 125.79 24.4488C126.021 24.5638 126.22 24.7223 126.387 24.9243C126.554 25.1263 126.672 25.3758 126.74 25.6727C126.798 25.9239 126.736 26.1246 126.555 26.2748C126.384 26.4224 126.173 26.5252 125.922 26.5832L125.751 26.6227L124.844 26.0562C124.822 26.0615 124.803 26.0598 124.789 26.051C124.766 26.0562 124.743 26.0615 124.721 26.0668C124.707 26.058 124.688 26.0563 124.665 26.0615C124.266 26.1538 123.978 26.3405 123.802 26.6216C123.635 26.8886 123.533 27.2009 123.495 27.5584C123.455 27.9044 123.46 28.2641 123.51 28.6374C123.569 28.9967 123.633 29.3247 123.701 29.6216C123.754 29.85 123.831 30.0788 123.932 30.308C124.03 30.5258 124.134 30.7423 124.244 30.9575C124.351 31.1613 124.455 31.3778 124.556 31.607C124.655 31.8249 124.733 32.0594 124.791 32.3106C124.902 32.7902 124.7 33.0893 124.186 33.2079C123.901 33.2738 123.57 33.1939 123.193 32.9682C122.813 32.7311 122.416 32.414 121.999 32.017C121.594 31.6174 121.19 31.1695 120.787 30.6733C120.381 30.1656 120.013 29.6672 119.684 29.178C119.355 28.6888 119.077 28.2417 118.851 27.8368C118.637 27.4293 118.506 27.1227 118.458 26.9172ZM135.025 28.3424C134.659 28.7394 134.344 29.0947 134.08 29.4083C133.825 29.7079 133.567 29.9719 133.307 30.2003C133.047 30.4287 132.755 30.6224 132.431 30.7814C132.118 30.9377 131.716 31.0726 131.225 31.186C130.163 31.4311 129.311 31.3333 128.668 30.8924C128.022 30.4401 127.57 29.6545 127.312 28.5355C127.212 28.1016 127.165 27.6373 127.171 27.1428C127.177 26.6483 127.236 26.1476 127.347 25.6408C127.467 25.1199 127.634 24.6184 127.848 24.1361C128.058 23.6425 128.321 23.191 128.635 22.7816C128.95 22.3723 129.303 22.0262 129.695 21.7433C130.095 21.4464 130.541 21.2413 131.032 21.1279C131.872 21.018 132.565 21.0746 133.11 21.2977C133.652 21.5093 134.102 21.8444 134.46 22.3028C134.816 22.7499 135.112 23.2769 135.348 23.8838C135.582 24.4793 135.798 25.1029 135.997 25.7546C136.207 26.4037 136.428 27.0502 136.661 27.694C136.894 28.3378 137.2 28.9105 137.581 29.412C137.519 29.823 137.437 30.1186 137.334 30.2987C137.246 30.4875 137.11 30.549 136.926 30.4832C136.742 30.4173 136.496 30.2096 136.187 29.8601C135.889 29.5079 135.502 29.002 135.025 28.3424ZM128.776 28.2336C128.926 28.8844 129.156 29.3363 129.467 29.5893C129.787 29.8282 130.261 29.8751 130.889 29.7301C131.357 29.622 131.784 29.4393 132.17 29.1819C132.564 28.9105 132.888 28.5951 133.142 28.2358C133.393 27.8651 133.568 27.4518 133.667 26.996C133.767 26.5401 133.758 26.061 133.642 25.5585C133.595 25.353 133.535 25.0662 133.462 24.6982C133.386 24.3188 133.278 23.9529 133.136 23.6007C132.995 23.2485 132.814 22.9596 132.593 22.7338C132.37 22.4967 132.099 22.415 131.779 22.4889C131.185 22.6259 130.673 22.9066 130.242 23.3309C129.808 23.7438 129.462 24.2265 129.205 24.779C128.947 25.3315 128.782 25.9169 128.708 26.5353C128.632 27.1423 128.654 27.7084 128.776 28.2336ZM135.735 21.4132C135.727 21.379 135.726 21.3491 135.732 21.3236C135.727 21.3008 135.726 21.2709 135.73 21.234C135.762 21.1664 135.813 21.0764 135.884 20.9639C135.954 20.8515 136 20.7926 136.023 20.7874L139.466 19.9926C139.437 19.867 139.374 19.6711 139.276 19.405C139.179 19.1388 139.075 18.8441 138.964 18.5209C138.865 18.1951 138.78 17.8538 138.709 17.4972C138.637 17.1292 138.607 16.7932 138.621 16.4893C138.644 16.1713 138.726 15.8999 138.866 15.6751C139.015 15.4361 139.261 15.2771 139.604 15.198C139.87 16.3513 140.164 17.2577 140.484 17.9173C140.805 18.577 141.14 19.0649 141.49 19.381C141.851 19.6946 142.216 19.8689 142.585 19.904C142.953 19.9391 143.314 19.9101 143.665 19.8169C144.025 19.7097 144.366 19.5709 144.687 19.4005C145.009 19.2301 145.297 19.0974 145.552 19.0025C145.818 18.905 146.041 18.8835 146.222 18.9379C146.4 18.9809 146.527 19.1623 146.6 19.482C146.656 19.7218 146.638 19.9063 146.548 20.0354C146.469 20.1619 146.282 20.2892 145.986 20.4175C145.898 20.45 145.749 20.5084 145.54 20.5928C145.34 20.6631 145.111 20.74 144.853 20.8234C144.596 20.9069 144.323 21 144.034 21.1028C143.742 21.1942 143.468 21.2816 143.211 21.3651C142.953 21.4486 142.717 21.521 142.503 21.5825C142.286 21.6326 142.126 21.6695 142.023 21.6933C142.037 21.7504 142.053 21.8487 142.074 21.9884C142.094 22.128 142.109 22.2207 142.12 22.2664C142.236 22.7688 142.429 23.2413 142.7 23.684C142.967 24.1152 143.247 24.5439 143.538 24.9698C143.84 25.3932 144.125 25.8205 144.393 26.2517C144.661 26.683 144.853 27.1498 144.969 27.6522C144.99 27.7436 145.001 27.8432 145.002 27.9513C145.011 28.0453 144.997 28.1388 144.958 28.2319C144.928 28.311 144.866 28.3795 144.771 28.4375C144.69 28.5042 144.558 28.5288 144.373 28.5113C143.913 28.4973 143.531 28.3269 143.227 28.0002C142.934 27.6708 142.677 27.2611 142.456 26.771C142.232 26.2695 142.036 25.7315 141.867 25.1571C141.698 24.5827 141.516 24.0535 141.32 23.5695C141.133 23.0715 140.919 22.664 140.677 22.3469C140.433 22.0184 140.124 21.8551 139.752 21.8569L136.272 21.8664C136.227 21.8769 136.148 21.8471 136.035 21.7768C135.92 21.6952 135.846 21.6341 135.813 21.5937C135.796 21.5735 135.784 21.5463 135.776 21.512C135.759 21.4918 135.745 21.4589 135.735 21.4132ZM147.653 20.989C147.637 20.9205 147.612 20.812 147.577 20.6636C147.552 20.5011 147.519 20.3342 147.48 20.1629C147.452 19.989 147.419 19.8221 147.382 19.6623C147.357 19.4998 147.336 19.3843 147.32 19.3158C147.404 19.1041 147.529 18.9187 147.697 18.7597C147.876 18.5981 148.061 18.4593 148.251 18.3433C148.427 18.952 148.676 19.5862 148.996 20.2458C149.317 20.9054 149.65 21.5681 149.997 22.2339C150.34 22.8882 150.659 23.5421 150.955 24.1956C151.261 24.8464 151.483 25.4687 151.62 26.0625C151.739 26.5763 151.535 26.8938 151.01 27.0151C150.691 27.0889 150.392 27.0196 150.114 26.807C149.837 26.5945 149.583 26.3042 149.354 25.9362C149.133 25.5541 148.927 25.1268 148.733 24.6543C148.537 24.1703 148.367 23.6925 148.222 23.2209C148.088 22.7466 147.97 22.3109 147.866 21.9139C147.774 21.5143 147.703 21.206 147.653 20.989ZM146.41 14.5108C146.648 14.5521 146.865 14.6583 147.06 14.8296C147.256 15.0008 147.363 15.1748 147.379 15.3513C147.405 15.5138 147.306 15.657 147.082 15.7808C146.855 15.8933 146.44 15.9171 145.835 15.8521C145.764 15.5438 145.759 15.2623 145.821 15.0076C145.894 14.7502 146.09 14.5846 146.41 14.5108ZM150.424 21.0347C150.356 20.7378 150.381 20.5095 150.5 20.3496C150.617 20.1783 150.841 20.0544 151.172 19.978L151.344 19.9384C151.42 20.1132 151.509 20.3152 151.61 20.5445C151.711 20.7737 151.836 21.0034 151.985 21.2335C152.135 21.4636 152.297 21.6727 152.473 21.8606C152.646 22.0371 152.838 22.1671 153.05 22.2505C152.969 21.8483 152.978 21.4433 153.076 21.0358C153.183 20.6142 153.341 20.229 153.549 19.8803C153.766 19.5175 154.018 19.2008 154.304 18.9302C154.599 18.6456 154.904 18.4308 155.22 18.2859L155.596 18.1989C156.145 18.0723 156.642 18.0899 157.088 18.2514C157.531 18.4016 157.925 18.6475 158.268 18.9892C158.621 19.3167 158.923 19.7159 159.176 20.1867C159.429 20.6575 159.651 21.1476 159.841 21.657C160.039 22.1524 160.201 22.6443 160.326 23.1326C160.459 23.6069 160.565 24.0153 160.644 24.3579L159.394 24.6465C159.168 23.9773 158.93 23.3405 158.683 22.7362C158.59 22.4929 158.484 22.2408 158.364 21.98C158.241 21.7077 158.117 21.4595 157.993 21.2356C157.867 21.0002 157.74 20.789 157.612 20.6019C157.482 20.4034 157.349 20.2418 157.212 20.1171C157.156 20.0819 157.078 20.0336 156.98 19.9722C156.893 19.908 156.8 19.8453 156.702 19.7838C156.604 19.7223 156.514 19.6709 156.432 19.6297C156.35 19.5884 156.304 19.5691 156.292 19.5717C155.929 19.5594 155.648 19.6965 155.449 19.9828C155.248 20.2578 155.094 20.6061 154.987 21.0277C154.88 21.4493 154.819 21.9144 154.804 22.423C154.8 22.9289 154.81 23.4138 154.833 23.8775C154.853 24.3299 154.884 24.7256 154.926 25.0646C154.966 25.3923 154.988 25.5916 154.992 25.6628C154.754 25.9342 154.501 26.059 154.231 26.037C153.959 26.0037 153.677 25.8763 153.385 25.655C153.105 25.4311 152.826 25.1347 152.548 24.7658C152.282 24.3943 152.022 23.9973 151.768 23.5748C151.512 23.1409 151.267 22.7044 151.033 22.2652C150.811 21.8234 150.608 21.4133 150.424 21.0347ZM167.495 32.7709C168.134 32.6233 168.677 32.3716 169.124 32.0158C169.574 31.6714 169.923 31.2542 170.17 30.764C170.432 30.2827 170.594 29.7583 170.655 29.1908C170.73 28.6322 170.704 28.0731 170.574 27.5136C170.509 27.2282 170.404 26.8553 170.262 26.3951C170.131 25.9322 169.974 25.4333 169.79 24.8984C169.607 24.3635 169.392 23.8237 169.146 23.2792C168.911 22.732 168.656 22.2256 168.38 21.7601C168.102 21.2832 167.799 20.884 167.472 20.5626C167.154 20.2271 166.823 20.015 166.477 19.9263C166.233 20.2232 165.991 20.5017 165.75 20.7617C165.507 21.0103 165.246 21.233 164.966 21.4298C164.687 21.6265 164.391 21.8031 164.078 21.9595C163.763 22.1045 163.417 22.2204 163.04 22.3074C162.549 22.4208 162.116 22.4726 161.741 22.463C161.378 22.4508 161.051 22.3638 160.761 22.2022C160.482 22.038 160.245 21.7921 160.049 21.4645C159.853 21.1369 159.694 20.7047 159.57 20.1681C159.483 19.7913 159.49 19.4048 159.591 19.0086C159.689 18.6011 159.851 18.2089 160.077 17.832C160.311 17.4411 160.587 17.0709 160.903 16.7213C161.23 16.369 161.572 16.0497 161.926 15.7633C162.293 15.4743 162.658 15.2336 163.022 15.0412C163.398 14.8462 163.74 14.7131 164.049 14.6419C164.346 14.5734 164.594 14.5281 164.793 14.5061C164.99 14.4727 165.166 14.4802 165.322 14.5285C165.474 14.5654 165.615 14.6532 165.743 14.7919C165.88 14.9167 166.025 15.0998 166.177 15.3413C166.645 16.1713 167.169 17.0606 167.749 18.0092C168.329 18.9577 168.898 19.9388 169.457 20.9524C170.015 21.966 170.524 22.9971 170.983 24.0458C171.455 25.1033 171.81 26.1459 172.047 27.1736C172.258 28.087 172.305 28.8881 172.187 29.5767C172.084 30.2742 171.867 30.8715 171.537 31.3686C171.22 31.8746 170.819 32.298 170.332 32.6389C169.857 32.9771 169.358 33.2367 168.835 33.4177C168.314 33.6101 167.798 33.7471 167.288 33.8289C166.777 33.9106 166.328 33.9423 165.939 33.9239C165.552 33.9169 165.247 33.873 165.024 33.7922C164.813 33.7088 164.742 33.6108 164.812 33.4984C164.896 33.3948 165.146 33.277 165.56 33.1452C165.975 33.0134 166.62 32.8887 167.495 32.7709ZM163.918 16.1874C163.116 16.5652 162.49 16.9802 162.041 17.4326C161.601 17.871 161.293 18.3089 161.118 18.7463C160.951 19.1697 160.899 19.5724 160.964 19.9545C161.025 20.3252 161.166 20.6233 161.387 20.8491C161.607 21.0748 161.882 21.2219 162.21 21.2904C162.547 21.3448 162.897 21.2701 163.259 21.0663C163.618 20.8511 163.969 20.4935 164.31 19.9937C164.663 19.4913 164.971 18.7947 165.235 17.904C165.19 17.7099 165.141 17.4987 165.089 17.2703C165.047 17.0393 164.983 16.8377 164.895 16.6656C164.804 16.482 164.682 16.3419 164.527 16.2453C164.373 16.1487 164.17 16.1294 163.918 16.1874ZM17.3201 81.1742C16.9548 81.5713 16.6399 81.9266 16.3755 82.2402C16.12 82.5397 15.8622 82.8037 15.6022 83.0321C15.3423 83.2605 15.0502 83.4542 14.7261 83.6132C14.4134 83.7696 14.0116 83.9044 13.5206 84.0178C12.4587 84.263 11.6062 84.1651 10.9633 83.7242C10.3176 83.2719 9.86563 82.4863 9.60728 81.3673C9.50711 80.9334 9.46008 80.4692 9.46618 79.9747C9.47228 79.4801 9.53108 78.9795 9.64259 78.4727C9.76287 77.9518 9.92971 77.4502 10.1431 76.968C10.3539 76.4743 10.6165 76.0228 10.9309 75.6135C11.2453 75.2041 11.5983 74.858 11.9901 74.5752C12.3906 74.2782 12.8363 74.0731 13.3273 73.9597C14.1679 73.8499 14.8605 73.9065 15.4051 74.1295C15.947 74.3411 16.3972 74.6762 16.7557 75.1347C17.1114 75.5817 17.4075 76.1087 17.6438 76.7156C17.8775 77.3111 18.0937 77.9347 18.2922 78.5865C18.5022 79.2356 18.7236 79.882 18.9564 80.5258C19.1893 81.1696 19.4959 81.7423 19.8762 82.2438C19.8148 82.6549 19.7327 82.9505 19.6299 83.1305C19.5413 83.3194 19.4051 83.3809 19.2215 83.315C19.0379 83.2492 18.7915 83.0415 18.4823 82.6919C18.1845 82.3397 17.7971 81.8338 17.3201 81.1742ZM11.071 81.0654C11.2213 81.7163 11.4519 82.1682 11.7629 82.4211C12.0826 82.66 12.5565 82.7069 13.1845 82.562C13.6527 82.4539 14.0795 82.2711 14.4651 82.0137C14.8595 81.7423 15.1835 81.4269 15.4374 81.0677C15.6885 80.697 15.8637 80.2837 15.9629 79.8278C16.0621 79.3719 16.0538 78.8928 15.9378 78.3904C15.8903 78.1848 15.8301 77.8981 15.7572 77.53C15.6816 77.1506 15.5731 76.7848 15.4316 76.4326C15.2902 76.0804 15.1092 75.7914 14.8887 75.5657C14.6656 75.3285 14.3942 75.2469 14.0745 75.3207C13.4807 75.4578 12.9682 75.7385 12.537 76.1627C12.1031 76.5756 11.7575 77.0583 11.5002 77.6108C11.2429 78.1633 11.0774 78.7488 11.0037 79.3671C10.9273 79.9741 10.9498 80.5402 11.071 81.0654ZM30.838 80.0198C30.6922 80.2218 30.481 80.1924 30.2042 79.9316C29.939 79.6681 29.6324 79.2518 29.2845 78.6826C28.934 78.1021 28.5558 77.4016 28.1499 76.5813C27.7554 75.7583 27.3548 74.8826 26.9481 73.9542C26.5413 73.0258 26.1376 72.0847 25.737 71.1308C25.3451 70.1629 24.9849 69.2539 24.6563 68.4036C24.6194 68.2438 24.5768 68.0852 24.5285 67.928C24.4889 67.7567 24.4705 67.5986 24.4731 67.4537C24.4845 67.2947 24.5284 67.1463 24.6048 67.0084C24.6926 66.8678 24.8441 66.7426 25.0593 66.6328C25.0795 66.6161 25.1278 66.617 25.2043 66.6354C25.2895 66.6398 25.3773 66.6556 25.4678 66.6829C25.5556 66.6987 25.6333 66.7228 25.701 66.7553C25.78 66.7852 25.8349 66.8146 25.8657 66.8436C26.2102 69.0131 26.9355 71.0345 28.0415 72.908C28.0679 72.8658 28.1328 72.7305 28.2365 72.5022C28.3375 72.2624 28.4718 71.9848 28.6396 71.6694C28.8047 71.3427 28.9943 70.9922 29.2086 70.618C29.4343 70.2411 29.6767 69.8845 29.9358 69.5481C30.1949 69.2116 30.4645 68.9209 30.7447 68.6758C31.0222 68.4193 31.3094 68.2568 31.6063 68.1882C31.7776 68.1487 31.9524 68.1504 32.1307 68.1934C32.3204 68.2338 32.4417 68.3682 32.4944 68.5966C32.4996 68.6194 32.5018 68.655 32.501 68.7033C32.4975 68.7402 32.4983 68.7701 32.5036 68.7929C32.3578 68.9949 32.1348 69.305 31.8344 69.7231C31.5455 70.1386 31.2429 70.5993 30.9267 71.1053C30.6106 71.6113 30.3155 72.1304 30.0415 72.6627C29.7675 73.195 29.5796 73.6834 29.4777 74.1279C29.4593 74.2043 29.4624 74.2697 29.487 74.3242C29.5089 74.3672 29.5335 74.4217 29.5608 74.4876C29.6969 74.5042 29.9126 74.5266 30.2077 74.5547C30.5028 74.5828 30.8305 74.6214 31.1906 74.6705C31.5481 74.7083 31.931 74.7522 32.3395 74.8022C32.7453 74.8408 33.1283 74.8847 33.4884 74.9338C33.8485 74.983 34.1718 75.0286 34.4581 75.0708C34.7532 75.0988 34.9746 75.1199 35.1222 75.1339C35.2978 75.1655 35.4397 75.1809 35.5477 75.18C35.6558 75.1791 35.7436 75.1949 35.8112 75.2274C35.8762 75.2485 35.9281 75.2907 35.9667 75.3539C36.0054 75.4171 36.0405 75.5173 36.0721 75.6543C36.1486 75.9854 36.1188 76.2208 35.9826 76.3605C35.8465 76.5002 35.63 76.6043 35.3331 76.6728C34.4407 76.8187 33.5364 76.835 32.6203 76.7218C31.7015 76.5972 30.7568 76.4124 29.7862 76.1674C29.8021 76.3923 29.8715 76.6408 29.9945 76.9131C30.1289 77.1827 30.2747 77.4497 30.432 77.7141C30.5892 77.9785 30.7394 78.2385 30.8826 78.4941C31.0373 78.747 31.1453 78.9806 31.2068 79.195C31.2797 79.4066 31.2964 79.5832 31.2569 79.7246C31.2174 79.866 31.0778 79.9644 30.838 80.0198ZM35.7104 74.2404C35.568 73.6238 35.4999 72.9901 35.506 72.3393C35.5121 71.6884 35.6183 71.0806 35.8247 70.5158C36.0424 69.9483 36.3727 69.4511 36.8153 69.0242C37.2694 68.5947 37.8675 68.2942 38.6097 68.1228C39.0322 68.0253 39.4217 68.0196 39.7784 68.1056C40.1323 68.1802 40.4468 68.3181 40.7217 68.5192C40.9967 68.7203 41.2251 68.9803 41.4069 69.2991C41.5976 69.6039 41.7351 69.939 41.8194 70.3044C41.9539 70.8867 41.9473 71.4836 41.7998 72.0949C41.6637 72.7036 41.4161 73.272 41.0569 73.7999C40.7065 74.3138 40.2651 74.7464 39.7329 75.0978C39.198 75.4378 38.6148 75.6205 37.9833 75.646C38.0711 75.9745 38.2416 76.2178 38.4945 76.3759C38.7563 76.5199 39.0475 76.6091 39.3681 76.6433C39.6887 76.6775 40.0128 76.6748 40.3404 76.6353C40.6654 76.5843 40.9535 76.5298 41.2047 76.4718C41.4673 76.4112 41.7076 76.3317 41.9254 76.2333C42.1432 76.1349 42.3597 76.0308 42.5749 75.921C42.7901 75.8112 43.0066 75.7071 43.2244 75.6087C43.4537 75.5076 43.6996 75.4268 43.9622 75.3662C44.065 75.3424 44.1691 75.3244 44.2745 75.3121C44.3799 75.2998 44.4835 75.3059 44.5854 75.3305C44.6847 75.3437 44.7734 75.3894 44.8516 75.4675C44.9271 75.5343 44.9794 75.6304 45.0084 75.7561C45.0585 75.973 45.0207 76.1741 44.8951 76.3595C44.7669 76.5334 44.589 76.7008 44.3616 76.8615C44.1455 77.0196 43.8956 77.1615 43.6119 77.2872C43.3256 77.4014 43.0437 77.5086 42.7661 77.6087C42.4973 77.6948 42.2431 77.7656 42.0033 77.8209C41.7775 77.8851 41.6076 77.9303 41.4934 77.9567C40.7626 78.1254 40.0797 78.1628 39.4446 78.0688C38.8069 77.9635 38.2408 77.7514 37.7463 77.4326C37.2491 77.1024 36.8248 76.6712 36.4734 76.1389C36.1308 75.5926 35.8765 74.9598 35.7104 74.2404ZM37.2689 72.708C37.3611 73.1076 37.4798 73.387 37.6247 73.5459C37.7811 73.7023 38.0705 73.7316 38.493 73.6341C38.7898 73.5656 39.0691 73.447 39.3309 73.2783C39.59 73.0982 39.8113 72.8847 39.9949 72.6379C40.1898 72.3884 40.3255 72.1166 40.4019 71.8223C40.4783 71.5281 40.4809 71.2268 40.4097 70.9185C40.3702 70.7472 40.3122 70.5742 40.2358 70.3994C40.1707 70.222 40.0754 70.0696 39.9498 69.9422C39.8216 69.8035 39.6727 69.7055 39.5031 69.6485C39.3424 69.5773 39.1478 69.5681 38.9195 69.6209C38.5769 69.6999 38.2814 69.8524 38.0328 70.0781C37.793 70.2898 37.6051 70.5437 37.469 70.8397C37.3302 71.1243 37.245 71.4326 37.2135 71.7646C37.1792 72.0853 37.1977 72.3997 37.2689 72.708ZM43.3298 68.1697C43.3061 68.0669 43.2824 67.9641 43.2586 67.8614C43.2437 67.7446 43.2428 67.6365 43.256 67.5373C43.2779 67.424 43.3179 67.3366 43.3758 67.2751C43.4426 67.1995 43.5502 67.1446 43.6986 67.1103C43.71 67.1077 43.7215 67.1051 43.7329 67.1024C43.7557 67.0972 43.7785 67.0919 43.8014 67.0866C43.8383 67.0901 43.8681 67.0892 43.891 67.084C44.1765 67.3308 44.4532 67.6698 44.7211 68.101C44.9864 68.5209 45.2539 68.9763 45.5236 69.4672C45.7907 69.9468 46.0718 70.4351 46.367 70.9323C46.6595 71.418 46.9916 71.8404 47.3632 72.1996C47.7347 72.5589 48.1493 72.8179 48.607 72.9769C49.0646 73.1358 49.5864 73.1296 50.1722 72.9583C50.4348 72.8976 50.5732 72.7154 50.5872 72.4115C50.6012 72.1075 50.5568 71.7329 50.454 71.2876C50.3626 70.8397 50.2379 70.3513 50.0797 69.8226C49.933 69.2912 49.8157 68.783 49.7278 68.2982C49.6487 67.7993 49.6355 67.3513 49.6881 66.9543C49.7522 66.5547 49.9467 66.2512 50.2717 66.0438C50.4887 66.3064 50.7167 66.7469 50.9556 67.3653C51.2034 67.9696 51.4463 68.6832 51.6844 69.5062C51.9199 70.3178 52.1497 71.2088 52.3737 72.1794C52.5952 73.1386 52.7938 74.103 52.9695 75.0727C53.1427 76.0309 53.2851 76.9602 53.3967 77.8605C53.5083 78.7608 53.5835 79.5553 53.6222 80.2439C53.6609 80.9326 53.6439 81.4837 53.571 81.8974C53.5122 82.3199 53.3905 82.5224 53.2061 82.5049C52.9136 82.3319 52.6566 82.0785 52.4353 81.7447C52.2253 81.4083 52.0404 81.0241 51.8805 80.5919C51.732 80.1571 51.6055 79.6872 51.5009 79.1822C51.3989 78.6886 51.3014 78.1879 51.2082 77.6802C51.1265 77.1699 51.0474 76.671 50.9709 76.1835C50.9059 75.6934 50.8273 75.2485 50.735 74.8489C50.3318 74.978 49.8949 75.0128 49.424 74.9531C48.9647 74.8908 48.4912 74.7415 48.0037 74.5053C47.5136 74.2576 47.0247 73.9375 46.5372 73.5449C46.0611 73.1497 45.6104 72.6825 45.1853 72.1432C44.7715 71.6013 44.4043 71.0005 44.0836 70.3409C43.7603 69.6699 43.5091 68.9461 43.3298 68.1697ZM58.5284 62.2614C58.4994 62.1358 58.4752 61.979 58.4559 61.7911C58.4453 61.589 58.4545 61.3945 58.4835 61.2074C58.5239 61.0177 58.588 60.8525 58.6758 60.712C58.761 60.56 58.8949 60.4629 59.0776 60.4208C59.0891 60.4181 59.1189 60.4173 59.1672 60.4181C59.2155 60.419 59.2454 60.4181 59.2568 60.4155C59.6144 61.0786 59.8907 61.7545 60.0857 62.4431C60.2808 63.1317 60.4262 63.8137 60.522 64.4892C60.6152 65.1532 60.6759 65.8067 60.704 66.4497C60.7296 67.0812 60.7617 67.6631 60.8004 68.1954C60.8505 68.725 60.9116 69.198 60.9837 69.6144C61.0671 70.0281 61.2103 70.3618 61.4133 70.6156C61.3483 70.4382 61.281 70.2252 61.2116 69.9767C61.151 69.714 61.1119 69.4404 61.0943 69.1558C61.0881 68.8686 61.1105 68.5748 61.1614 68.2744C61.2237 67.9714 61.344 67.685 61.5223 67.4153C61.7006 67.1457 61.9522 66.9072 62.2772 66.6998C62.6136 66.4899 63.0501 66.323 63.5868 66.1991C64.1463 66.0699 64.6483 66.0562 65.0927 66.1581C65.5486 66.2573 65.9474 66.4479 66.2891 66.7298C66.6282 67.0003 66.9132 67.3494 67.1443 67.7771C67.3841 68.1908 67.5633 68.6546 67.682 69.1684C67.7373 69.4082 67.7949 69.6835 67.8546 69.9945C67.9232 70.2914 67.9478 70.5803 67.9285 70.8614C67.918 71.1284 67.8368 71.3757 67.6848 71.6032C67.5417 71.8167 67.2874 71.9656 66.922 72.0499C66.8798 71.8672 66.8346 71.6191 66.7862 71.3055C66.7353 70.9805 66.6689 70.6411 66.5872 70.2871C66.5169 69.9305 66.4224 69.5734 66.3038 69.216C66.1966 68.8558 66.0473 68.5476 65.8558 68.2911C65.6616 68.0232 65.4293 67.8243 65.1588 67.6943C64.897 67.5503 64.572 67.5231 64.1838 67.6127C64.0467 67.6444 63.8781 67.6953 63.6778 67.7656C63.4864 67.8218 63.2984 67.9193 63.114 68.0581C62.9295 68.1969 62.7627 68.3858 62.6134 68.6247C62.4614 68.8522 62.3666 69.1447 62.3289 69.5022C62.2885 69.8483 62.3149 70.2752 62.408 70.7829C62.51 71.2765 62.7125 71.8672 63.0156 72.5549C62.9831 72.7789 62.908 72.9225 62.7903 72.9858C62.684 73.0464 62.5396 73.0978 62.3569 73.14C61.9915 73.2243 61.6599 73.1686 61.3621 72.9727C61.0731 72.7628 60.8157 72.4554 60.5899 72.0505C60.3642 71.6456 60.1625 71.163 59.9851 70.6026C59.819 70.0396 59.6705 69.4485 59.5396 68.8292C59.406 68.1986 59.2882 67.5583 59.1863 66.9083C59.0931 66.2443 59.0035 65.6215 58.9173 65.0401C58.84 64.4445 58.7701 63.9074 58.7077 63.4287C58.6541 62.936 58.5943 62.5469 58.5284 62.2614ZM67.1594 66.9799C67.017 66.3633 66.9489 65.7295 66.955 65.0787C66.9611 64.4278 67.0673 63.82 67.2737 63.2552C67.4914 62.6877 67.8217 62.1906 68.2643 61.7636C68.7184 61.3341 69.3165 61.0336 70.0587 60.8623C70.4812 60.7647 70.8707 60.759 71.2274 60.845C71.5814 60.9197 71.8958 61.0575 72.1708 61.2587C72.4457 61.4598 72.6741 61.7197 72.856 62.0386C73.0466 62.3433 73.1841 62.6784 73.2684 63.0438C73.4029 63.6261 73.3963 64.223 73.2488 64.8343C73.1128 65.4431 72.8651 66.0114 72.5059 66.5393C72.1555 67.0532 71.7142 67.4858 71.1819 67.8372C70.647 68.1772 70.0638 68.3599 69.4323 68.3855C69.5201 68.714 69.6906 68.9572 69.9435 69.1153C70.2053 69.2594 70.4965 69.3485 70.8171 69.3827C71.1377 69.4169 71.4618 69.4143 71.7894 69.3747C72.1144 69.3237 72.4025 69.2692 72.6537 69.2113C72.9163 69.1506 73.1566 69.0711 73.3744 68.9727C73.5922 68.8743 73.8087 68.7702 74.0239 68.6604C74.2391 68.5506 74.4556 68.4465 74.6734 68.3481C74.9027 68.247 75.1486 68.1662 75.4112 68.1056C75.514 68.0819 75.6181 68.0638 75.7235 68.0515C75.8289 68.0392 75.9325 68.0454 76.0344 68.07C76.1337 68.0831 76.2224 68.1288 76.3006 68.2069C76.3761 68.2737 76.4284 68.3699 76.4574 68.4955C76.5075 68.7124 76.4697 68.9136 76.3441 69.0989C76.2159 69.2728 76.0381 69.4402 75.8106 69.6009C75.5945 69.7591 75.3446 69.901 75.0609 70.0266C74.7746 70.1408 74.4927 70.248 74.2151 70.3481C73.9463 70.4342 73.6921 70.505 73.4523 70.5603C73.2265 70.6245 73.0566 70.6697 72.9424 70.6961C72.2116 70.8648 71.5287 70.9022 70.8936 70.8083C70.2559 70.7029 69.6898 70.4909 69.1953 70.1721C68.6981 69.8418 68.2738 69.4106 67.9224 68.8784C67.5798 68.3321 67.3255 67.6992 67.1594 66.9799ZM68.7179 65.4474C68.8102 65.8471 68.9288 66.1264 69.0737 66.2853C69.2301 66.4417 69.5195 66.4711 69.942 66.3735C70.2388 66.305 70.5182 66.1864 70.7799 66.0177C71.039 65.8376 71.2603 65.6242 71.4439 65.3773C71.6388 65.1279 71.7745 64.856 71.8509 64.5617C71.9273 64.2675 71.9299 63.9662 71.8587 63.6579C71.8192 63.4866 71.7612 63.3136 71.6848 63.1388C71.6198 62.9614 71.5244 62.809 71.3988 62.6817C71.2706 62.5429 71.1217 62.445 70.9521 62.3879C70.7914 62.3168 70.5968 62.3076 70.3685 62.3603C70.0259 62.4394 69.7304 62.5918 69.4818 62.8175C69.242 63.0293 69.0541 63.2831 68.918 63.5791C68.7792 63.8637 68.6941 64.1721 68.6625 64.5041C68.6282 64.8247 68.6467 65.1391 68.7179 65.4474ZM75.4535 62.5033C75.4298 62.4005 75.4118 62.2964 75.3995 62.191C75.3846 62.0742 75.385 61.9719 75.4008 61.884C75.414 61.7848 75.4482 61.6987 75.5035 61.6258C75.5703 61.5502 75.6722 61.4966 75.8092 61.465C75.9234 61.4386 76.0701 61.501 76.2493 61.6521C76.4372 61.7891 76.6371 61.9774 76.8488 62.2172C77.0579 62.4456 77.2678 62.7038 77.4786 62.9919C77.7009 63.2773 77.895 63.5452 78.0611 63.7955C78.2359 64.0318 78.38 64.2391 78.4933 64.4174C78.6066 64.5956 78.6703 64.6892 78.6843 64.698C78.7405 64.2641 78.8059 63.7919 78.8805 63.2816C78.9551 62.7713 79.0776 62.286 79.248 61.8257C79.4271 61.3514 79.6678 60.935 79.9699 60.5766C80.2834 60.2156 80.7085 59.9731 81.2452 59.8492C81.5192 59.7859 81.7867 59.7723 82.0476 59.8083C82.3172 59.8302 82.5632 59.9057 82.7854 60.0348C83.0164 60.1499 83.2154 60.3084 83.3823 60.5104C83.5492 60.7124 83.6669 60.9618 83.7355 61.2587C83.7935 61.5099 83.7315 61.7106 83.5497 61.8609C83.3794 62.0084 83.1686 62.1112 82.9174 62.1692L82.7461 62.2088L81.8396 61.6423C81.8167 61.6476 81.7983 61.6458 81.7842 61.637C81.7614 61.6423 81.7385 61.6476 81.7157 61.6529C81.7017 61.6441 81.6832 61.6423 81.6604 61.6476C81.2607 61.7399 80.9731 61.9265 80.7974 62.2076C80.6306 62.4747 80.5283 62.7869 80.4905 63.1444C80.4502 63.4905 80.455 63.8502 80.5051 64.2235C80.564 64.5827 80.6277 64.9108 80.6963 65.2077C80.749 65.436 80.8259 65.6648 80.9269 65.8941C81.0253 66.1119 81.1294 66.3284 81.2392 66.5436C81.3464 66.7474 81.4505 66.9639 81.5515 67.1931C81.6499 67.4109 81.7281 67.6455 81.7861 67.8967C81.8968 68.3762 81.6953 68.6753 81.1815 68.794C80.896 68.8599 80.5649 68.78 80.188 68.5543C79.8085 68.3171 79.4106 68.0001 78.9942 67.6031C78.5893 67.2035 78.1852 66.7556 77.782 66.2593C77.3761 65.7517 77.0085 65.2532 76.6791 64.764C76.3496 64.2748 76.072 63.8278 75.8463 63.4229C75.6319 63.0153 75.501 62.7088 75.4535 62.5033ZM84.0657 63.0767C83.9233 62.4601 83.8552 61.8264 83.8613 61.1756C83.8674 60.5247 83.9736 59.9169 84.18 59.3521C84.3978 58.7846 84.728 58.2874 85.1706 57.8605C85.6247 57.4309 86.2228 57.1305 86.965 56.9591C87.3875 56.8616 87.7771 56.8559 88.1337 56.9419C88.4877 57.0165 88.8021 57.1544 89.0771 57.3555C89.352 57.5566 89.5804 57.8166 89.7623 58.1354C89.9529 58.4402 90.0904 58.7753 90.1747 59.1407C90.3092 59.723 90.3027 60.3199 90.1551 60.9312C90.0191 61.5399 89.7714 62.1082 89.4122 62.6362C89.0618 63.15 88.6205 63.5827 88.0882 63.9341C87.5533 64.274 86.9701 64.4568 86.3386 64.4823C86.4264 64.8108 86.5969 65.0541 86.8499 65.2122C87.1116 65.3562 87.4028 65.4454 87.7234 65.4796C88.044 65.5138 88.3681 65.5111 88.6957 65.4716C89.0207 65.4206 89.3088 65.3661 89.56 65.3081C89.8227 65.2475 90.0629 65.168 90.2807 65.0696C90.4985 64.9712 90.715 64.8671 90.9302 64.7573C91.1454 64.6475 91.3619 64.5433 91.5797 64.4449C91.809 64.3439 92.0549 64.2631 92.3175 64.2025C92.4203 64.1787 92.5244 64.1607 92.6298 64.1484C92.7352 64.1361 92.8388 64.1422 92.9407 64.1668C93.04 64.18 93.1287 64.2257 93.2069 64.3038C93.2824 64.3706 93.3347 64.4667 93.3637 64.5923C93.4138 64.8093 93.376 65.0104 93.2504 65.1958C93.1222 65.3697 92.9444 65.5371 92.7169 65.6978C92.5008 65.8559 92.2509 65.9978 91.9672 66.1235C91.6809 66.2377 91.399 66.3449 91.1214 66.445C90.8527 66.5311 90.5984 66.6018 90.3586 66.6572C90.1329 66.7213 89.9629 66.7666 89.8487 66.793C89.1179 66.9617 88.435 66.9991 87.8 66.9051C87.1623 66.7998 86.5961 66.5877 86.1016 66.2689C85.6044 65.9387 85.1801 65.5075 84.8287 64.9752C84.4861 64.4289 84.2318 63.7961 84.0657 63.0767ZM85.6242 61.5443C85.7165 61.9439 85.8351 62.2232 85.98 62.3822C86.1364 62.5385 86.4258 62.5679 86.8483 62.4704C87.1452 62.4019 87.4245 62.2833 87.6862 62.1146C87.9453 61.9345 88.1666 61.721 88.3502 61.4742C88.5451 61.2247 88.6808 60.9529 88.7572 60.6586C88.8336 60.3644 88.8362 60.0631 88.765 59.7548C88.7255 59.5835 88.6675 59.4105 88.5911 59.2357C88.5261 59.0583 88.4307 58.9059 88.3051 58.7785C88.1769 58.6398 88.028 58.5418 87.8585 58.4848C87.6977 58.4136 87.5031 58.4044 87.2748 58.4572C86.9322 58.5362 86.6367 58.6887 86.3881 58.9144C86.1484 59.1261 85.9604 59.38 85.8243 59.676C85.6855 59.9606 85.6004 60.2689 85.5688 60.6009C85.5345 60.9215 85.553 61.236 85.6242 61.5443Z" fill="#BCBCBC"/>
<path d="M117.984 62.5679C119.651 68.9013 125.384 81.9679 134.984 83.5679C146.984 85.5679 158.984 69.5679 172.484 76.5679C183.284 82.1679 195.984 86.2346 200.984 87.5679" stroke="#BCBCBC" stroke-width="2" stroke-linecap="round" stroke-dasharray="6 6"/>
<g clip-path="url(#clip0_2858_1118)">
<path d="M208.36 82.3207L224.607 95.6641L203.583 95.6316L209.965 90.4093L208.36 82.3207Z" stroke="#BCBCBC" stroke-width="2" stroke-linecap="round" stroke-linejoin="round"/>
</g>
<defs>
<clipPath id="clip0_2858_1118">
<rect width="24" height="24" fill="white" transform="translate(217.031 74.914) rotate(64.7424)"/>
</clipPath>
</defs>
</svg>
