<svg width="201" height="93" viewBox="0 0 201 93" fill="none" xmlns="http://www.w3.org/2000/svg">
<path d="M97 67.0001C110.637 72.1577 139.659 81.0165 146.644 75.1902C155.375 67.9074 127.174 42.287 146.743 38.933C162.398 36.2498 175.639 30.5287 180.303 28.0036" stroke="#BCBCBC" stroke-width="2" stroke-linecap="round" stroke-dasharray="6 6"/>
<path d="M178.89 19.0585L198.067 10.4409L188.688 29.2568L186.848 21.2183L178.89 19.0585Z" stroke="#BCBCBC" stroke-width="2" stroke-linecap="round" stroke-linejoin="round"/>
<path d="M1.90505 33.6712C1.85233 33.4428 1.89228 33.2772 2.0249 33.1745C2.16894 33.0691 2.33231 32.9953 2.51501 32.9531C2.54926 32.9452 2.61338 32.9364 2.70736 32.9267C2.81277 32.9144 2.87688 32.9056 2.89972 32.9003C3.0157 33.2464 3.14881 33.6667 3.29905 34.1612C3.44666 34.6443 3.61053 35.1717 3.79064 35.7435C3.96812 36.3039 4.1623 36.8844 4.37316 37.4852C4.58402 38.086 4.82079 38.6688 5.08347 39.2335C5.34352 39.7869 5.62684 40.3108 5.93343 40.8053C6.23739 41.2883 6.56549 41.6937 6.91775 42.0213C6.99856 42.1108 7.0684 42.1789 7.12725 42.2255C7.19489 42.258 7.2555 42.2861 7.30908 42.3098C7.37145 42.3194 7.4382 42.3221 7.50935 42.3177C7.57786 42.3018 7.6635 42.2821 7.76626 42.2583C8.23442 42.1503 8.66128 41.9675 9.04686 41.7101C9.44385 41.4501 9.83118 41.1743 10.2088 40.8826C10.5865 40.591 10.9738 40.3151 11.3708 40.0551C11.7678 39.7951 12.2061 39.6097 12.6857 39.499C12.7884 39.4752 12.9198 39.4449 13.0796 39.408C13.2368 39.3597 13.3866 39.3311 13.5289 39.3223C13.6712 39.3135 13.8043 39.3429 13.9281 39.4106C14.052 39.4782 14.135 39.6033 14.1772 39.786C14.2167 39.9573 14.1061 40.1813 13.8452 40.458C13.5817 40.7233 13.2339 41.0141 12.8018 41.3303C12.367 41.6352 11.8866 41.9505 11.3605 42.2764C10.8458 42.5997 10.343 42.8962 9.85201 43.1659C9.37245 43.433 8.94339 43.6583 8.56484 43.8419C8.18365 44.0141 7.93025 44.1147 7.80465 44.1437C7.39359 44.2386 6.99656 44.186 6.61358 43.9857C6.23938 43.7715 5.87835 43.4579 5.53048 43.0451C5.19139 42.6183 4.87206 42.1207 4.57249 41.5524C4.27028 40.9728 3.99134 40.3636 3.73568 39.7251C3.48002 39.0866 3.24851 38.4485 3.04116 37.8108C2.83381 37.1731 2.65413 36.5772 2.50212 36.0229C2.35011 35.4687 2.21963 34.9817 2.11067 34.5618C2.01314 34.1393 1.9446 33.8425 1.90505 33.6712ZM14.0128 35.9453C13.997 35.8768 13.9719 35.7683 13.9377 35.6199C13.9122 35.4574 13.8797 35.2905 13.8401 35.1192C13.812 34.9453 13.7795 34.7784 13.7426 34.6185C13.7171 34.4561 13.6964 34.3406 13.6806 34.272C13.764 34.0603 13.8896 33.875 14.0574 33.716C14.2365 33.5544 14.421 33.4156 14.6107 33.2996C14.7873 33.9083 15.0359 34.5424 15.3566 35.2021C15.6773 35.8617 16.0107 36.5244 16.3568 37.1901C16.7003 37.8445 17.0197 38.4984 17.3148 39.1519C17.6214 39.8027 17.8433 40.425 17.9804 41.0187C18.099 41.5326 17.8957 41.8501 17.3704 41.9714C17.0507 42.0452 16.7521 41.9758 16.4745 41.7633C16.1969 41.5508 15.9435 41.2605 15.7142 40.8925C15.4937 40.5104 15.2868 40.0831 15.0935 39.6106C14.8976 39.1266 14.7272 38.6488 14.5822 38.1771C14.4486 37.7028 14.33 37.2672 14.2263 36.8702C14.1341 36.4705 14.0629 36.1622 14.0128 35.9453ZM12.7697 29.4671C13.0078 29.5083 13.2248 29.6146 13.4206 29.7859C13.6165 29.9571 13.7228 30.131 13.7395 30.3076C13.765 30.4701 13.6658 30.6132 13.4418 30.7371C13.2152 30.8496 12.7997 30.8733 12.1954 30.8084C12.1243 30.5001 12.1194 30.2186 12.1809 29.9638C12.2537 29.7065 12.45 29.5409 12.7697 29.4671ZM16.5841 36.6867C16.4733 36.2071 16.4601 35.6809 16.5444 35.1082C16.6401 34.5329 16.8161 33.9931 17.0726 33.4889C17.3264 32.9733 17.6487 32.5201 18.0395 32.1292C18.4418 31.7356 18.8998 31.4795 19.4136 31.3609C19.6763 31.3003 19.9494 31.2853 20.2331 31.316C20.5168 31.3467 20.7812 31.424 21.0263 31.5478C21.2828 31.669 21.5015 31.835 21.6825 32.0458C21.8749 32.254 22.0053 32.5065 22.0739 32.8034C21.8683 32.8508 21.6747 32.8715 21.4928 32.8653C21.3224 32.8566 21.1507 32.8421 20.9777 32.8219C20.802 32.7903 20.629 32.7701 20.4586 32.7613C20.2996 32.7499 20.1287 32.7653 19.946 32.8075C19.4779 32.9156 19.1231 33.1238 18.8815 33.4321C18.6488 33.7264 18.4877 34.0703 18.3981 34.4638C18.3085 34.8573 18.277 35.2675 18.3034 35.6944C18.3385 36.1072 18.397 36.4906 18.4787 36.8446C18.4919 36.9017 18.5169 37.0101 18.5538 37.17C18.6021 37.3272 18.6474 37.4972 18.6896 37.6799C18.7405 37.8485 18.7845 38.0128 18.8214 38.1726C18.8697 38.3298 18.9062 38.4357 18.9308 38.4901C19.1196 38.7352 19.2883 38.9187 19.4367 39.0408C19.5966 39.1603 19.7543 39.2441 19.9098 39.2924C20.0626 39.3293 20.2216 39.3407 20.3867 39.3266C20.5492 39.3012 20.7389 39.2634 20.9559 39.2133C21.2528 39.1447 21.4991 39.0398 21.695 38.8983C21.9023 38.7542 22.0885 38.597 22.2536 38.4266C22.4187 38.2562 22.5698 38.077 22.7068 37.889C22.8411 37.6896 22.9852 37.506 23.1389 37.3382C23.3013 37.1564 23.4818 37.0005 23.6803 36.8704C23.8876 36.7264 24.134 36.6214 24.4194 36.5555C24.5486 37.115 24.5605 37.6354 24.4552 38.1168C24.3612 38.5955 24.1671 39.0312 23.8729 39.4238C23.5901 39.8138 23.223 40.1511 22.7716 40.4358C22.3289 40.7064 21.8221 40.9075 21.2512 41.0394C20.7145 41.1633 20.1871 41.0926 19.6688 40.8274C19.162 40.5595 18.6938 40.1986 18.2642 39.7445C17.8434 39.2764 17.4846 38.7639 17.1876 38.207C16.8907 37.6502 16.6895 37.1434 16.5841 36.6867ZM24.4002 35.2971C24.2579 34.6805 24.1898 34.0468 24.1958 33.3959C24.2019 32.745 24.3082 32.1372 24.5145 31.5724C24.7323 31.005 25.0625 30.5078 25.5052 30.0808C25.9592 29.6513 26.5574 29.3508 27.2996 29.1795C27.722 29.0819 28.1116 29.0762 28.4682 29.1622C28.8222 29.2369 29.1367 29.3747 29.4116 29.5759C29.6866 29.777 29.915 30.037 30.0968 30.3558C30.2874 30.6606 30.4249 30.9956 30.5093 31.361C30.6437 31.9434 30.6372 32.5402 30.4897 33.1516C30.3536 33.7603 30.106 34.3286 29.7468 34.8565C29.3963 35.3704 28.955 35.803 28.4228 36.1544C27.8879 36.4944 27.3047 36.6771 26.6731 36.7027C26.761 37.0312 26.9314 37.2745 27.1844 37.4325C27.4462 37.5766 27.7373 37.6657 28.0579 37.6999C28.3786 37.7341 28.7027 37.7315 29.0303 37.6919C29.3553 37.6409 29.6434 37.5865 29.8946 37.5285C30.1572 37.4678 30.3974 37.3883 30.6152 37.2899C30.8331 37.1915 31.0496 37.0874 31.2648 36.9776C31.4799 36.8678 31.6965 36.7637 31.9143 36.6653C32.1435 36.5643 32.3895 36.4834 32.6521 36.4228C32.7548 36.3991 32.8589 36.3811 32.9643 36.3687C33.0697 36.3564 33.1734 36.3626 33.2753 36.3872C33.3745 36.4003 33.4632 36.446 33.5414 36.5242C33.617 36.5909 33.6692 36.6871 33.6982 36.8127C33.7483 37.0296 33.7106 37.2308 33.585 37.4161C33.4568 37.5901 33.2789 37.7574 33.0514 37.9182C32.8354 38.0763 32.5855 38.2182 32.3018 38.3438C32.0155 38.458 31.7335 38.5652 31.456 38.6654C31.1872 38.7515 30.9329 38.8222 30.6931 38.8775C30.4674 38.9417 30.2974 38.9869 30.1833 39.0133C29.4525 39.182 28.7696 39.2194 28.1345 39.1255C27.4968 39.0201 26.9307 38.8081 26.4361 38.4893C25.939 38.1591 25.5147 37.7278 25.1633 37.1956C24.8207 36.6493 24.5663 36.0164 24.4002 35.2971ZM25.9587 33.7646C26.051 34.1643 26.1696 34.4436 26.3146 34.6026C26.4709 34.7589 26.7603 34.7883 27.1828 34.6907C27.4797 34.6222 27.759 34.5036 28.0207 34.3349C28.2798 34.1548 28.5012 33.9414 28.6847 33.6946C28.8797 33.4451 29.0154 33.1732 29.0918 32.879C29.1681 32.5847 29.1708 32.2834 29.0996 31.9751C29.06 31.8039 29.002 31.6308 28.9256 31.456C28.8606 31.2786 28.7653 31.1262 28.6397 30.9989C28.5114 30.8601 28.3625 30.7622 28.193 30.7051C28.0322 30.634 27.8377 30.6248 27.6093 30.6775C27.2668 30.7566 26.9712 30.909 26.7227 31.1348C26.4829 31.3465 26.2949 31.6003 26.1588 31.8964C26.0201 32.181 25.9349 32.4893 25.9033 32.8213C25.8691 33.1419 25.8876 33.4563 25.9587 33.7646ZM33.0226 32.2421C32.9541 31.9452 32.9795 31.7168 33.0989 31.5569C33.2158 31.3856 33.4397 31.2618 33.7709 31.1853L33.9421 31.1458C34.0186 31.3206 34.1073 31.5226 34.2083 31.7518C34.3094 31.9811 34.4346 32.2107 34.5839 32.4409C34.7332 32.671 34.8958 32.88 35.0714 33.068C35.2445 33.2445 35.4369 33.3745 35.6486 33.4579C35.5677 33.0556 35.5765 32.6507 35.6748 32.2431C35.7819 31.8215 35.9395 31.4363 36.1477 31.0876C36.3646 30.7248 36.6162 30.4082 36.9025 30.1376C37.1976 29.853 37.5029 29.6382 37.8182 29.4932L38.195 29.4062C38.7431 29.2797 39.2402 29.2972 39.6864 29.4588C40.13 29.609 40.5235 29.8549 40.867 30.1965C41.2193 30.5241 41.5219 30.9233 41.7749 31.3941C42.0279 31.8648 42.2493 32.3549 42.4391 32.8644C42.6376 33.3597 42.7993 33.8516 42.9241 34.34C43.0576 34.8143 43.1639 35.2227 43.243 35.5652L41.9927 35.8539C41.766 35.1846 41.5288 34.5478 41.2811 33.9435C41.1888 33.7002 41.0825 33.4482 40.9622 33.1873C40.8392 32.915 40.7157 32.6669 40.5919 32.4429C40.4654 32.2075 40.3384 31.9963 40.211 31.8092C40.081 31.6107 39.9475 31.4491 39.8105 31.3244C39.7542 31.2893 39.6769 31.241 39.5786 31.1795C39.4916 31.1154 39.3989 31.0526 39.3005 30.9911C39.2022 30.9297 39.1121 30.8783 39.0304 30.837C38.9487 30.7957 38.9022 30.7764 38.8908 30.779C38.5271 30.7668 38.2461 30.9038 38.0476 31.1902C37.8465 31.4651 37.6923 31.8134 37.5852 32.235C37.4781 32.6567 37.4171 33.1218 37.4022 33.6303C37.3987 34.1363 37.4085 34.6211 37.4313 35.0849C37.4516 35.5372 37.4828 35.9329 37.525 36.272C37.5646 36.5996 37.5865 36.799 37.5909 36.8701C37.3529 37.1416 37.0991 37.2663 36.8294 37.2444C36.5571 37.211 36.2752 37.0837 35.9835 36.8624C35.7033 36.6384 35.4244 36.342 35.1468 35.9731C34.8806 35.6016 34.6206 35.2046 34.3667 34.7821C34.1102 34.3483 33.8651 33.9117 33.6314 33.4726C33.4091 33.0308 33.2062 32.6206 33.0226 32.2421ZM46.6811 34.3566C46.8348 34.1888 47.0148 33.9789 47.2212 33.7267C47.4364 33.4606 47.6489 33.183 47.8588 32.894C48.0687 32.605 48.2588 32.3085 48.4292 32.0046C48.5996 31.7007 48.7212 31.42 48.7941 31.1627C48.8757 30.8913 48.8929 30.6528 48.8454 30.4472C48.798 30.2417 48.6556 30.0942 48.4185 30.0046C48.0531 30.089 47.6574 30.1983 47.2314 30.3328C46.8028 30.4558 46.3715 30.5674 45.9376 30.6676C45.5011 30.7563 45.0694 30.8139 44.6425 30.8403C44.227 30.864 43.8384 30.8215 43.4765 30.7126C43.1146 30.6037 42.7983 30.4061 42.5278 30.1198C42.266 29.8194 42.0745 29.4066 41.9532 28.8813C41.8109 28.2648 41.7972 27.6846 41.9122 27.1409C42.036 26.5831 42.2485 26.071 42.5498 25.6046C42.8484 25.1267 43.2045 24.6897 43.6182 24.2935C44.0406 23.8833 44.4736 23.5187 44.9171 23.1999C45.2325 23.2112 45.5395 23.2907 45.8381 23.4382C46.1368 23.5858 46.4065 23.7641 46.6471 23.9731C46.6252 24.2427 46.5102 24.4738 46.302 24.6661C46.1053 24.8559 45.8646 25.0377 45.5801 25.2117C45.3069 25.383 45.0179 25.5639 44.7132 25.7546C44.4084 25.9452 44.1414 26.1692 43.9122 26.4266C43.6917 26.6699 43.5257 26.9668 43.4142 27.3173C43.3001 27.6563 43.2997 28.0714 43.413 28.5624C43.4974 28.9278 43.6507 29.175 43.8729 29.3041C44.0952 29.4332 44.3626 29.4977 44.6753 29.4977C44.9854 29.4862 45.3275 29.4313 45.7017 29.3329C46.0732 29.2231 46.4491 29.1062 46.8294 28.9823C47.2212 28.8558 47.6054 28.7491 47.9823 28.6621C48.3564 28.5637 48.7038 28.5316 49.0244 28.5658C49.3424 28.5886 49.612 28.6887 49.8334 28.8661C50.0662 29.0409 50.2313 29.3395 50.3289 29.762C50.3711 29.9447 50.3623 30.1933 50.3026 30.5077C50.2543 30.8195 50.1656 31.1647 50.0366 31.5433C49.9163 31.9079 49.756 32.2816 49.5558 32.6646C49.367 33.0449 49.1544 33.4007 48.9182 33.7319C48.6907 34.049 48.4483 34.3274 48.191 34.5672C47.9424 34.793 47.6925 34.9349 47.4413 34.9929C47.2016 35.0482 47.0219 34.9995 46.9025 34.8467C46.7944 34.6912 46.7206 34.5279 46.6811 34.3566ZM50.2136 29.3376C50.0712 28.721 50.0031 28.0873 50.0092 27.4364C50.0153 26.7855 50.1215 26.1777 50.3279 25.6129C50.5456 25.0455 50.8759 24.5483 51.3185 24.1214C51.7726 23.6918 52.3707 23.3914 53.1129 23.22C53.5354 23.1225 53.9249 23.1167 54.2816 23.2028C54.6355 23.2774 54.95 23.4153 55.225 23.6164C55.4999 23.8175 55.7283 24.0775 55.9101 24.3963C56.1008 24.7011 56.2383 25.0362 56.3226 25.4015C56.4571 25.9839 56.4505 26.5807 56.303 27.1921C56.1669 27.8008 55.9193 28.3691 55.5601 28.897C55.2097 29.4109 54.7684 29.8435 54.2361 30.1949C53.7012 30.5349 53.118 30.7177 52.4865 30.7432C52.5743 31.0717 52.7448 31.315 52.9977 31.4731C53.2595 31.6171 53.5507 31.7062 53.8713 31.7404C54.1919 31.7747 54.516 31.772 54.8436 31.7324C55.1686 31.6815 55.4567 31.627 55.7079 31.569C55.9705 31.5084 56.2108 31.4288 56.4286 31.3304C56.6464 31.232 56.8629 31.1279 57.0781 31.0181C57.2933 30.9083 57.5098 30.8042 57.7276 30.7058C57.9569 30.6048 58.2028 30.5239 58.4654 30.4633C58.5682 30.4396 58.6723 30.4216 58.7777 30.4093C58.8831 30.397 58.9867 30.4031 59.0886 30.4277C59.1879 30.4408 59.2766 30.4865 59.3548 30.5647C59.4303 30.6314 59.4826 30.7276 59.5116 30.8532C59.5617 31.0702 59.5239 31.2713 59.3983 31.4566C59.2701 31.6306 59.0923 31.7979 58.8648 31.9587C58.6487 32.1168 58.3988 32.2587 58.1151 32.3843C57.8288 32.4985 57.5469 32.6057 57.2693 32.7059C57.0005 32.792 56.7463 32.8627 56.5065 32.9181C56.2807 32.9822 56.1108 33.0275 55.9966 33.0538C55.2658 33.2225 54.5829 33.2599 53.9478 33.166C53.3101 33.0607 52.744 32.8486 52.2495 32.5298C51.7523 32.1996 51.328 31.7683 50.9766 31.2361C50.634 30.6898 50.3797 30.057 50.2136 29.3376ZM51.7721 27.8052C51.8644 28.2048 51.983 28.4841 52.1279 28.6431C52.2843 28.7994 52.5737 28.8288 52.9962 28.7313C53.293 28.6627 53.5724 28.5441 53.8341 28.3755C54.0932 28.1954 54.3145 27.9819 54.4981 27.7351C54.693 27.4856 54.8287 27.2137 54.9051 26.9195C54.9815 26.6252 54.9841 26.3239 54.9129 26.0156C54.8734 25.8444 54.8154 25.6713 54.739 25.4966C54.6739 25.3191 54.5786 25.1667 54.453 25.0394C54.3248 24.9006 54.1759 24.8027 54.0063 24.7456C53.8456 24.6745 53.651 24.6653 53.4227 24.718C53.0801 24.7971 52.7846 24.9495 52.536 25.1753C52.2962 25.387 52.1083 25.6409 51.9722 25.9369C51.8334 26.2215 51.7483 26.5298 51.7167 26.8618C51.6824 27.1824 51.7009 27.4969 51.7721 27.8052ZM64.6265 18.5414C64.5764 18.3244 64.5166 18.0916 64.4472 17.8431C64.3778 17.5945 64.3409 17.3565 64.3365 17.129C64.3435 16.8989 64.394 16.7008 64.4879 16.5348C64.5907 16.3547 64.7905 16.2304 65.0874 16.1618C65.3729 16.4086 65.5956 16.7481 65.7555 17.1802C65.9242 17.5983 66.0766 18.0502 66.2128 18.5359C66.3463 19.0102 66.4799 19.4845 66.6134 19.9588C66.7584 20.4305 66.953 20.8306 67.1972 21.1591C67.2192 21.2021 67.2864 21.2587 67.3988 21.329C67.52 21.3852 67.6004 21.4208 67.6399 21.4357C67.914 21.0597 68.1511 20.6803 68.3513 20.2973C68.563 19.9117 68.7715 19.5388 68.977 19.1786C69.1799 18.8071 69.3867 18.4526 69.5975 18.1153C69.8083 17.778 70.0498 17.4697 70.3221 17.1903C70.6057 16.9084 70.9342 16.6641 71.3075 16.4577C71.6896 16.2372 72.1375 16.0676 72.6513 15.949C72.7146 16.223 72.6808 16.5195 72.55 16.8384C72.4191 17.1572 72.2382 17.4936 72.0072 17.8476C71.7736 18.1902 71.5141 18.5508 71.2287 18.9294C70.9406 19.2966 70.6666 19.6725 70.4066 20.0573C70.144 20.4306 69.917 20.8017 69.7256 21.1707C69.5315 21.5282 69.413 21.8743 69.3699 22.2089C69.5746 22.2098 69.9207 22.2502 70.4082 22.33C70.9045 22.3959 71.4684 22.4942 72.0999 22.625C72.7403 22.7418 73.403 22.8774 74.0881 23.0319C74.7733 23.1865 75.407 23.3529 75.9894 23.5311C76.5691 23.6979 77.0491 23.8758 77.4295 24.0646C77.8186 24.2393 78.0316 24.4066 78.0685 24.5665C78.0764 24.6008 78.0936 24.675 78.1199 24.7892C78.1437 24.8919 78.1573 25.003 78.1608 25.1225C78.1758 25.2393 78.1652 25.35 78.1292 25.4545C78.0906 25.5476 78.0085 25.6087 77.8829 25.6377C77.4007 25.737 76.9299 25.7555 76.4705 25.6931C76.0085 25.6194 75.5499 25.5088 75.0949 25.3613C74.6373 25.2023 74.1783 25.0377 73.7181 24.8673C73.2666 24.6829 72.8076 24.5182 72.3412 24.3734C71.8721 24.2171 71.3978 24.1161 70.9182 24.0705C70.4474 24.0108 69.9525 24.0288 69.4334 24.1246C69.3254 24.4382 69.3131 24.7237 69.3966 24.981C69.4774 25.227 69.6109 25.4667 69.7972 25.7004C69.9922 25.9199 70.2127 26.1456 70.4586 26.3775C70.7019 26.598 70.9264 26.8408 71.1319 27.106C71.3349 27.3599 71.4961 27.6414 71.6156 27.9505C71.7351 28.2597 71.7614 28.6084 71.6947 28.9967C71.6798 29.0362 71.6433 29.0867 71.5854 29.1482C71.5362 29.1956 71.4769 29.2514 71.4075 29.3155C71.3496 29.377 71.2832 29.4284 71.2086 29.4697C71.1339 29.511 71.0852 29.5343 71.0623 29.5395C70.9139 29.5738 70.7154 29.4693 70.4668 29.226C70.2296 28.9801 69.9516 28.6354 69.6327 28.1918C69.3252 27.7457 68.9905 27.2336 68.6286 26.6557C68.2754 26.0637 67.9183 25.4546 67.5573 24.8284C67.205 24.1881 66.8641 23.5451 66.5347 22.8996C66.214 22.24 65.9166 21.6291 65.6425 21.067C65.3772 20.4908 65.1519 19.9836 64.9665 19.5453C64.7925 19.1044 64.6792 18.7697 64.6265 18.5414ZM77.6541 23.0025C77.5117 22.3859 77.4436 21.7521 77.4497 21.1013C77.4557 20.4504 77.562 19.8426 77.7683 19.2778C77.9861 18.7103 78.3163 18.2132 78.759 17.7862C79.213 17.3567 79.8112 17.0562 80.5534 16.8849C80.9759 16.7873 81.3654 16.7816 81.722 16.8676C82.076 16.9423 82.3905 17.0801 82.6654 17.2813C82.9404 17.4824 83.1688 17.7423 83.3506 18.0612C83.5412 18.3659 83.6787 18.701 83.7631 19.0664C83.8975 19.6488 83.891 20.2456 83.7435 20.8569C83.6074 21.4657 83.3598 22.034 83.0006 22.5619C82.6502 23.0758 82.2088 23.5084 81.6766 23.8598C81.1417 24.1998 80.5585 24.3825 79.9269 24.4081C80.0148 24.7366 80.1852 24.9799 80.4382 25.1379C80.7 25.282 80.9912 25.3711 81.3118 25.4053C81.6324 25.4395 81.9565 25.4369 82.2841 25.3973C82.6091 25.3463 82.8972 25.2919 83.1484 25.2339C83.411 25.1732 83.6512 25.0937 83.8691 24.9953C84.0869 24.8969 84.3034 24.7928 84.5186 24.683C84.7338 24.5732 84.9503 24.4691 85.1681 24.3707C85.3973 24.2696 85.6433 24.1888 85.9059 24.1282C86.0087 24.1045 86.1127 24.0864 86.2181 24.0741C86.3235 24.0618 86.4272 24.068 86.5291 24.0926C86.6283 24.1057 86.7171 24.1514 86.7952 24.2296C86.8708 24.2963 86.923 24.3925 86.952 24.5181C87.0021 24.735 86.9644 24.9362 86.8388 25.1215C86.7106 25.2954 86.5327 25.4628 86.3052 25.6236C86.0892 25.7817 85.8393 25.9236 85.5556 26.0492C85.2693 26.1634 84.9873 26.2706 84.7098 26.3707C84.441 26.4568 84.1867 26.5276 83.9469 26.5829C83.7212 26.6471 83.5513 26.6923 83.4371 26.7187C82.7063 26.8874 82.0234 26.9248 81.3883 26.8309C80.7506 26.7255 80.1845 26.5135 79.6899 26.1947C79.1928 25.8644 78.7685 25.4332 78.4171 24.901C78.0745 24.3547 77.8201 23.7218 77.6541 23.0025ZM79.2126 21.47C79.3048 21.8697 79.4234 22.149 79.5684 22.3079C79.7247 22.4643 80.0142 22.4937 80.4366 22.3961C80.7335 22.3276 81.0128 22.209 81.2746 22.0403C81.5336 21.8602 81.755 21.6468 81.9385 21.3999C82.1335 21.1505 82.2692 20.8786 82.3456 20.5843C82.422 20.2901 82.4246 19.9888 82.3534 19.6805C82.3138 19.5092 82.2559 19.3362 82.1794 19.1614C82.1144 18.984 82.0191 18.8316 81.8935 18.7043C81.7652 18.5655 81.6163 18.4676 81.4468 18.4105C81.2861 18.3394 81.0915 18.3302 80.8631 18.3829C80.5206 18.462 80.225 18.6144 79.9765 18.8402C79.7367 19.0519 79.5488 19.3057 79.4126 19.6017C79.2739 19.8863 79.1887 20.1947 79.1571 20.5267C79.1229 20.8473 79.1414 21.1617 79.2126 21.47ZM85.2735 16.9317C85.2498 16.8289 85.226 16.7262 85.2023 16.6234C85.1874 16.5066 85.1865 16.3985 85.1996 16.2993C85.2216 16.186 85.2615 16.0986 85.3195 16.0371C85.3863 15.9615 85.4939 15.9066 85.6423 15.8724C85.6537 15.8697 85.6651 15.8671 85.6766 15.8645C85.6994 15.8592 85.7222 15.8539 85.7451 15.8486C85.782 15.8522 85.8118 15.8513 85.8347 15.846C86.1201 16.0928 86.3969 16.4318 86.6648 16.8631C86.9301 17.2829 87.1976 17.7383 87.4673 18.2293C87.7344 18.7088 88.0155 19.1972 88.3107 19.6943C88.6032 20.18 88.9353 20.6025 89.3068 20.9617C89.6784 21.3209 90.093 21.58 90.5507 21.7389C91.0083 21.8978 91.5301 21.8916 92.1159 21.7203C92.3785 21.6597 92.5168 21.4774 92.5309 21.1735C92.5449 20.8696 92.5005 20.495 92.3977 20.0496C92.3063 19.6017 92.1815 19.1133 92.0234 18.5846C91.8766 18.0532 91.7593 17.5451 91.6715 17.0602C91.5924 16.5613 91.5791 16.1134 91.6318 15.7163C91.6959 15.3167 91.8904 15.0132 92.2154 14.8059C92.4324 15.0685 92.6603 15.5089 92.8993 16.1273C93.1471 16.7316 93.39 17.4452 93.6281 18.2682C93.8636 19.0798 94.0934 19.9709 94.3174 20.9414C94.5389 21.9006 94.7375 22.865 94.9132 23.8347C95.0864 24.793 95.2287 25.7222 95.3404 26.6226C95.452 27.5229 95.5272 28.3173 95.5659 29.006C95.6046 29.6946 95.5875 30.2458 95.5147 30.6595C95.4559 31.082 95.3342 31.2844 95.1498 31.2669C94.8573 31.0939 94.6003 30.8405 94.3789 30.5067C94.169 30.1703 93.984 29.7861 93.8241 29.3539C93.6757 28.9192 93.5491 28.4493 93.4446 27.9442C93.3426 27.4506 93.2451 26.9499 93.1519 26.4423C93.0702 25.9319 92.9911 25.433 92.9146 24.9456C92.8496 24.4554 92.7709 24.0106 92.6787 23.6109C92.2755 23.7401 91.8385 23.7748 91.3677 23.7151C90.9083 23.6528 90.4349 23.5035 89.9474 23.2673C89.4572 23.0196 88.9684 22.6995 88.4809 22.3069C88.0048 21.9117 87.5541 21.4445 87.1289 20.9052C86.7152 20.3633 86.348 19.7625 86.0273 19.1029C85.704 18.4319 85.4527 17.7082 85.2735 16.9317ZM9.10905 63.3123C9.01942 62.9241 8.97327 62.4897 8.97059 62.0093C8.97933 61.5262 9.02803 61.0338 9.1167 60.5323C9.20273 60.0193 9.33268 59.5143 9.50655 59.0171C9.67778 58.5085 9.89645 58.0491 10.1625 57.6389C10.426 57.2173 10.7352 56.8632 11.09 56.5769C11.4422 56.2791 11.8409 56.0788 12.2863 55.976C12.6516 55.8916 13.0061 55.8639 13.3495 55.8929C13.6903 55.9104 13.9973 55.9898 14.2705 56.1312C14.5437 56.2726 14.7773 56.4773 14.9715 56.7451C15.1744 56.999 15.322 57.3257 15.4143 57.7254C15.1631 57.7833 14.943 57.768 14.7542 57.6793C14.5741 57.5765 14.3971 57.4611 14.2232 57.3328C14.0607 57.202 13.885 57.0922 13.6961 57.0035C13.5187 56.9122 13.3101 56.8942 13.0703 56.9495C12.7163 57.0313 12.3949 57.2017 12.1059 57.4608C11.8284 57.7173 11.5825 58.0327 11.3682 58.4069C11.1653 58.7785 11.0002 59.1834 10.8729 59.6217C10.757 60.0574 10.6652 60.4935 10.5976 60.9301C10.5388 61.3525 10.5073 61.7627 10.5029 62.1606C10.51 62.5559 10.5451 62.8906 10.6084 63.1646C10.7455 63.7583 10.9603 64.2981 11.2528 64.7838C11.5541 65.2554 11.9152 65.6471 12.3359 65.9589C12.7541 66.2593 13.2337 66.4613 13.7748 66.5649C14.3158 66.6685 14.9004 66.6478 15.5284 66.5028C15.928 66.4105 16.2917 66.2664 16.6193 66.0705C16.9557 65.8606 17.2736 65.6488 17.5731 65.4354C17.8814 65.2078 18.1866 64.9931 18.4887 64.791C18.7909 64.589 19.1075 64.4497 19.4386 64.3733C19.4843 64.3627 19.5484 64.3539 19.631 64.3469C19.7223 64.3258 19.8049 64.3188 19.8787 64.3258C19.9639 64.3302 20.0416 64.3543 20.1119 64.3982C20.1795 64.4307 20.2252 64.4984 20.2489 64.6011C20.3438 65.0122 20.2644 65.3973 20.0106 65.7566C19.7682 66.1133 19.4511 66.433 19.0594 66.7159C18.665 66.9873 18.243 67.2171 17.7933 67.4051C17.3436 67.5931 16.9703 67.7214 16.6734 67.7899C15.8057 67.9902 14.9633 68.0404 14.1464 67.9403C13.3269 67.8289 12.5781 67.5808 11.9 67.1961C11.2218 66.8115 10.6399 66.2964 10.1541 65.6508C9.66565 64.9939 9.31731 64.2144 9.10905 63.3123ZM19.9741 63.3296C19.8107 62.6216 19.8247 61.9268 20.0161 61.2452C20.2049 60.5522 20.5175 59.9268 20.954 59.369C21.3993 58.7971 21.9298 58.3078 22.5455 57.9011C23.1726 57.4917 23.8344 57.2066 24.5309 57.0458C24.9191 56.9562 25.2907 57.0027 25.6456 57.1854C26.0119 57.3654 26.3399 57.6144 26.6298 57.9323C26.9171 58.2388 27.1582 58.58 27.3533 58.956C27.5597 59.3292 27.6972 59.6643 27.7657 59.9612C27.9134 60.6006 27.9029 61.2585 27.7343 61.9349C27.5631 62.5998 27.286 63.223 26.9031 63.8045C26.5176 64.3746 26.0494 64.8736 25.4988 65.3014C24.9481 65.7292 24.3644 66.0143 23.7478 66.1566C23.1997 66.2832 22.7162 66.2986 22.2972 66.2029C21.8756 66.0958 21.515 65.9144 21.2155 65.6589C20.9133 65.3919 20.6563 65.0603 20.4446 64.6642C20.2417 64.254 20.0849 63.8091 19.9741 63.3296ZM21.4695 63.1647C21.5381 63.4616 21.6215 63.719 21.7199 63.9368C21.8271 64.1406 21.962 64.3079 22.1245 64.4387C22.2984 64.567 22.5044 64.6517 22.7424 64.693C22.9778 64.7228 23.2554 64.7008 23.5751 64.627C23.9976 64.5295 24.3937 64.3177 24.7634 63.9918C25.1306 63.6545 25.4388 63.2706 25.6883 62.8402C25.9464 62.3957 26.1282 61.9328 26.2336 61.4515C26.3389 60.9701 26.3442 60.5239 26.2493 60.1129C26.2071 59.9302 26.1438 59.7343 26.0595 59.5253C25.9751 59.3162 25.8719 59.1296 25.7498 58.9653C25.6277 58.8011 25.4779 58.6733 25.3005 58.582C25.1231 58.4906 24.9202 58.4713 24.6918 58.5241C24.4863 58.5715 24.2566 58.6967 24.0028 58.8996C23.7603 59.0999 23.51 59.3441 23.2518 59.6322C23.005 59.9177 22.7648 60.2318 22.5312 60.5744C22.309 60.9143 22.1097 61.249 21.9332 61.5784C21.7566 61.9078 21.6232 62.2152 21.5327 62.5007C21.4537 62.7835 21.4326 63.0049 21.4695 63.1647ZM27.5463 59.164C27.4778 58.8671 27.5032 58.6387 27.6227 58.4788C27.7395 58.3075 27.9634 58.1837 28.2946 58.1072L28.4659 58.0677C28.5423 58.2425 28.631 58.4445 28.7321 58.6737C28.8331 58.903 28.9583 59.1326 29.1076 59.3628C29.257 59.5929 29.4195 59.8019 29.5952 59.9899C29.7682 60.1664 29.9606 60.2964 30.1723 60.3798C30.0914 59.9775 30.1002 59.5726 30.1985 59.165C30.3056 58.7434 30.4633 58.3582 30.6714 58.0095C30.8883 57.6467 31.1399 57.3301 31.4263 57.0595C31.7214 56.7749 32.0266 56.5601 32.3419 56.4151L32.7187 56.3281C33.2668 56.2016 33.7639 56.2191 34.2102 56.3807C34.6537 56.5309 35.0473 56.7768 35.3907 57.1184C35.743 57.446 36.0456 57.8452 36.2986 58.316C36.5516 58.7867 36.773 59.2768 36.9628 59.7863C37.1614 60.2816 37.323 60.7735 37.4478 61.2619C37.5814 61.7362 37.6877 62.1446 37.7668 62.4871L36.5164 62.7758C36.2898 62.1065 36.0525 61.4697 35.8048 60.8654C35.7125 60.6221 35.6062 60.3701 35.4859 60.1092C35.3629 59.8369 35.2395 59.5888 35.1156 59.3648C34.9891 59.1294 34.8621 58.9182 34.7348 58.7311C34.6047 58.5326 34.4712 58.371 34.3342 58.2463C34.278 58.2112 34.2007 58.1629 34.1023 58.1014C34.0153 58.0373 33.9226 57.9745 33.8243 57.913C33.7259 57.8516 33.6358 57.8002 33.5541 57.7589C33.4725 57.7176 33.4259 57.6983 33.4145 57.7009C33.0508 57.6887 32.7698 57.8257 32.5713 58.1121C32.3702 58.387 32.2161 58.7353 32.1089 59.1569C32.0018 59.5786 31.9408 60.0437 31.9259 60.5522C31.9225 61.0582 31.9322 61.543 31.9551 62.0068C31.9753 62.4591 32.0065 62.8548 32.0487 63.1939C32.0883 63.5215 32.1103 63.7209 32.1146 63.792C31.8766 64.0635 31.6228 64.1882 31.3531 64.1663C31.0809 64.1329 30.7989 64.0056 30.5073 63.7843C30.227 63.5603 29.9481 63.2639 29.6705 62.895C29.4044 62.5235 29.1443 62.1265 28.8904 61.704C28.6339 61.2702 28.3888 60.8336 28.1551 60.3945C27.9329 59.9527 27.7299 59.5425 27.5463 59.164ZM45.4329 62.7919C45.0903 62.402 44.6941 61.9101 44.2443 61.3164C43.8033 60.7086 43.3457 60.0806 42.8713 59.4325C42.3943 58.7729 41.9041 58.1343 41.4007 57.5169C40.9088 56.8968 40.4322 56.3694 39.9711 55.9347C39.8103 55.8635 39.6074 55.8442 39.3624 55.8768C39.1173 55.9093 38.8648 55.9616 38.6048 56.0336C38.3422 56.0942 38.0782 56.1492 37.813 56.1984C37.5565 56.2335 37.3193 56.2221 37.1015 56.1642C36.8951 56.1036 36.7211 55.9754 36.5797 55.7795C36.4383 55.5837 36.3487 55.2736 36.3108 54.8494L39.1883 54.1851C39.0978 53.5324 39.0485 52.8763 39.0405 52.2167C39.0326 51.557 39.0769 50.9154 39.1734 50.2917C39.2814 49.6655 39.4443 49.0686 39.6621 48.5012C39.8798 47.9337 40.1819 47.419 40.5684 46.9569C40.9548 46.4949 41.4269 46.0912 41.9846 45.746C42.5538 45.3981 43.2266 45.1345 44.003 44.9553C44.2771 44.892 44.5669 44.8972 44.8726 44.971C45.1756 45.0333 45.4607 45.1479 45.7277 45.3148C45.9947 45.4817 46.2227 45.6876 46.4116 45.9327C46.6118 46.1751 46.7436 46.4333 46.8069 46.7073C46.5899 46.7574 46.3866 46.7623 46.1969 46.7219C46.0045 46.6701 45.8165 46.6112 45.633 46.5454C45.4467 46.4681 45.2517 46.4049 45.0479 46.3557C44.8415 46.2951 44.6241 46.2912 44.3958 46.3439C43.7107 46.5021 43.1029 46.7867 42.5724 47.1978C42.0533 47.6063 41.6238 48.0903 41.284 48.6499C40.9555 49.2068 40.7355 49.8168 40.6241 50.48C40.5126 51.1432 40.5346 51.8116 40.6901 52.4853C40.7007 52.531 40.7204 52.6166 40.7494 52.7422C40.7872 52.8538 40.8219 52.978 40.8535 53.1151C40.8852 53.2521 40.9155 53.3834 40.9445 53.509C40.9849 53.632 41.0104 53.7163 41.0209 53.762C41.4751 53.8014 41.9726 53.7948 42.5137 53.7421C43.0548 53.6893 43.5906 53.6137 44.1211 53.5153C44.6604 53.4028 45.1729 53.2785 45.6586 53.1423C46.1557 53.0035 46.5945 52.8721 46.9748 52.7482C47.017 52.7746 47.0943 52.8229 47.2067 52.8931C47.3191 52.9634 47.3863 53.02 47.4083 53.0631C47.4162 53.0973 47.4272 53.1188 47.4412 53.1276C47.4799 53.1909 47.4992 53.2225 47.4992 53.2225C47.5546 53.4623 47.4725 53.6797 47.2529 53.8747C47.0333 54.0697 46.7373 54.2463 46.3649 54.4044C45.9899 54.5511 45.5652 54.6913 45.0909 54.8248C44.628 54.9557 44.1766 55.084 43.7365 55.2097C43.3053 55.3213 42.9166 55.435 42.5705 55.551C42.2332 55.6529 42.0053 55.7597 41.8868 55.8713C42.1934 56.5221 42.6089 57.1237 43.1333 57.6762C43.6692 58.226 44.2107 58.7744 44.758 59.3216C45.3053 59.8688 45.8082 60.4322 46.2667 61.0119C46.7253 61.5915 47.0336 62.2239 47.1918 62.909C47.1461 62.9196 47.0377 62.9446 46.8664 62.9842C46.7092 63.0325 46.5366 63.0663 46.3486 63.0857C46.1606 63.105 45.9718 63.0945 45.7821 63.0541C45.6064 63.0225 45.49 62.9351 45.4329 62.7919ZM48.7213 53.5898C48.7055 53.5213 48.6804 53.4128 48.6462 53.2644C48.6207 53.1019 48.5882 52.935 48.5486 52.7637C48.5205 52.5898 48.488 52.4229 48.4511 52.2631C48.4256 52.1006 48.4049 51.9851 48.3891 51.9166C48.4725 51.7049 48.5981 51.5195 48.7659 51.3605C48.945 51.1989 49.1295 51.0601 49.3192 50.9441C49.4958 51.5528 49.7444 52.187 50.0651 52.8466C50.3858 53.5062 50.7192 54.1689 51.0653 54.8346C51.4088 55.489 51.7281 56.1429 52.0233 56.7964C52.3299 57.4472 52.5518 58.0695 52.6889 58.6633C52.8075 59.1771 52.6042 59.4946 52.0789 59.6159C51.7592 59.6897 51.4606 59.6203 51.183 59.4078C50.9054 59.1953 50.652 58.905 50.4227 58.537C50.2022 58.1549 49.9953 57.7276 49.802 57.2551C49.6061 56.7711 49.4356 56.2933 49.2907 55.8216C49.1571 55.3473 49.0385 54.9117 48.9348 54.5147C48.8425 54.115 48.7714 53.8067 48.7213 53.5898ZM47.4782 47.1116C47.7163 47.1528 47.9332 47.2591 48.1291 47.4304C48.325 47.6016 48.4313 47.7755 48.448 47.9521C48.4735 48.1146 48.3743 48.2578 48.1503 48.3816C47.9237 48.4941 47.5082 48.5178 46.9039 48.4529C46.8327 48.1446 46.8279 47.8631 46.8893 47.6084C46.9622 47.351 47.1585 47.1854 47.4782 47.1116ZM59.3479 67.4992C59.9873 67.3516 60.5306 67.0999 60.9776 66.7441C61.4273 66.3997 61.776 65.9825 62.0236 65.4923C62.2853 65.011 62.4469 64.4866 62.5083 63.9191C62.5838 63.3605 62.557 62.8014 62.4278 62.2419C62.3619 61.9565 62.2578 61.5836 62.1154 61.1234C61.9845 60.6605 61.8272 60.1616 61.6436 59.6267C61.46 59.0918 61.2452 58.5521 60.9992 58.0075C60.7646 57.4603 60.5094 56.954 60.2336 56.4885C59.9551 56.0115 59.6524 55.6123 59.3257 55.2909C59.0077 54.9554 58.6761 54.7433 58.3309 54.6546C58.0867 54.9515 57.8443 55.23 57.6037 55.49C57.3604 55.7386 57.0991 55.9613 56.8198 56.1581C56.5405 56.3548 56.2445 56.5314 55.9318 56.6878C55.6165 56.8328 55.2704 56.9487 54.8936 57.0357C54.4026 57.1491 53.9696 57.2009 53.5946 57.1913C53.2309 57.1791 52.9042 57.0921 52.6143 56.9305C52.3358 56.7663 52.0987 56.5204 51.9028 56.1928C51.7068 55.8652 51.5469 55.433 51.423 54.8964C51.3361 54.5196 51.343 54.1331 51.444 53.7369C51.5424 53.3294 51.7044 52.9372 51.9301 52.5603C52.1646 52.1694 52.4399 51.7992 52.7561 51.4496C53.0837 51.0973 53.4249 50.778 53.7797 50.4916C54.146 50.2026 54.5113 49.9619 54.8758 49.7695C55.2517 49.5745 55.5939 49.4414 55.9021 49.3702C56.199 49.3017 56.4472 49.2564 56.6465 49.2344C56.8433 49.201 57.0194 49.2085 57.1749 49.2568C57.3277 49.2937 57.4683 49.3815 57.5965 49.5203C57.7336 49.645 57.8781 49.8281 58.03 50.0696C58.4983 50.8996 59.0223 51.7889 59.6021 52.7375C60.1819 53.6861 60.7512 54.6671 61.3099 55.6807C61.8686 56.6943 62.3773 57.7254 62.8359 58.7741C63.3086 59.8316 63.6635 60.8742 63.9008 61.9019C64.1117 62.8153 64.1583 63.6164 64.0407 64.305C63.9371 65.0025 63.7202 65.5998 63.39 66.0969C63.0738 66.6029 62.6724 67.0263 62.1859 67.3672C61.7107 67.7054 61.2114 67.965 60.6879 68.146C60.167 68.3384 59.6515 68.4755 59.1411 68.5572C58.6308 68.6389 58.1811 68.6706 57.792 68.6522C57.4055 68.6452 57.1007 68.6013 56.8776 68.5205C56.6659 68.4371 56.5952 68.3392 56.6655 68.2267C56.7498 68.1231 56.9992 68.0053 57.4138 67.8735C57.8284 67.7418 58.4731 67.617 59.3479 67.4992ZM55.7719 50.9157C54.9691 51.2935 54.3433 51.7085 53.8945 52.1609C53.4545 52.5993 53.1466 53.0372 52.971 53.4746C52.8042 53.898 52.7528 54.3007 52.817 54.6828C52.8785 55.0535 53.0195 55.3517 53.24 55.5774C53.4605 55.8031 53.735 55.9502 54.0635 56.0187C54.4008 56.0731 54.7504 55.9984 55.1122 55.7946C55.4715 55.5794 55.8219 55.2218 56.1635 54.722C56.5166 54.2196 56.8248 53.523 57.0882 52.6323C57.0434 52.4382 56.9947 52.227 56.9419 51.9986C56.9006 51.7676 56.8361 51.566 56.7482 51.3939C56.6577 51.2103 56.5352 51.0702 56.3806 50.9736C56.226 50.877 56.0231 50.8577 55.7719 50.9157ZM60.4273 50.2919C60.4115 50.2234 60.3838 50.1035 60.3443 49.9322C60.3135 49.7469 60.2758 49.5572 60.2309 49.3631C60.1861 49.1689 60.1453 48.992 60.1084 48.8321C60.0802 48.6582 60.0583 48.537 60.0424 48.4685C60.0907 48.313 60.1518 48.1606 60.2255 48.0113C60.3081 47.8479 60.4012 47.7302 60.5048 47.6581C60.6172 47.5721 60.7459 47.5303 60.8909 47.5329C61.0472 47.5329 61.222 47.6128 61.4153 47.7727L61.4469 47.9097L61.4983 48.1324C61.5001 48.1921 61.5089 48.3344 61.5247 48.5592C61.5379 48.7727 61.5506 49.0103 61.563 49.272C61.5753 49.5338 61.5836 49.7784 61.5881 50.0059C61.6013 50.2193 61.6144 50.3546 61.6276 50.4117C61.6777 50.6286 61.7638 50.8974 61.8859 51.218C62.0054 51.5272 62.146 51.8495 62.3076 52.185C62.4807 52.5179 62.6709 52.8468 62.8782 53.1718C63.097 53.4941 63.3306 53.777 63.5792 54.0202C63.8252 54.2521 64.0777 54.4343 64.3369 54.5669C64.6074 54.6969 64.8911 54.7276 65.188 54.6591C65.5534 54.5747 65.8507 54.4039 66.0799 54.1465C66.3206 53.8865 66.5081 53.5786 66.6424 53.2228C66.7768 52.8671 66.862 52.4806 66.8979 52.0634C66.9453 51.6435 66.9642 51.2303 66.9545 50.8236C66.9421 50.4055 66.9109 50.0098 66.8608 49.6365C66.8107 49.2632 66.754 48.9395 66.6908 48.6655C66.6275 48.3914 66.5453 48.1398 66.4443 47.9106C66.3521 47.6673 66.2497 47.4323 66.1373 47.2057C66.0248 46.9791 65.9194 46.7569 65.821 46.5391C65.7314 46.3072 65.6589 46.0713 65.6035 45.8316C65.5534 45.6146 65.5921 45.4433 65.7194 45.3177C65.8582 45.1895 66.0246 45.1029 66.2187 45.0581C66.4585 45.0027 66.6698 45.0322 66.8525 45.1463C67.0326 45.2491 67.1876 45.3997 67.3176 45.5982C67.459 45.7941 67.5741 46.0321 67.6629 46.3123C67.7604 46.5784 67.8408 46.8485 67.9041 47.1225C67.9673 47.3966 68.0222 47.6605 68.0688 47.9144C68.1128 48.1568 68.1519 48.3522 68.1861 48.5006C68.2758 48.8889 68.3487 49.3351 68.405 49.8392C68.4612 50.3434 68.4758 50.8753 68.4486 51.4348C68.4302 51.9802 68.3705 52.5292 68.2696 53.0817C68.18 53.6316 68.0272 54.1419 67.8112 54.6127C67.604 55.0695 67.3282 55.4639 66.9839 55.796C66.6511 56.1254 66.2391 56.3468 65.7481 56.4601C65.2343 56.5787 64.7556 56.563 64.312 56.4128C63.8658 56.2512 63.4595 56.0023 63.0932 55.6659C62.7357 55.3155 62.4063 54.9044 62.105 54.4328C61.8036 53.9611 61.5423 53.4802 61.3209 52.9901C61.1109 52.4974 60.9277 52.0165 60.7713 51.5475C60.6237 51.0644 60.5091 50.6459 60.4273 50.2919ZM68.4819 48.2159C68.4582 48.1131 68.4402 48.009 68.4279 47.9036C68.4129 47.7868 68.4134 47.6845 68.4292 47.5966C68.4423 47.4974 68.4766 47.4113 68.5319 47.3384C68.5987 47.2628 68.7005 47.2093 68.8376 47.1776C68.9517 47.1513 69.0984 47.2136 69.2776 47.3647C69.4656 47.5017 69.6655 47.6901 69.8772 47.9298C70.0862 48.1582 70.2962 48.4164 70.507 48.7045C70.7293 48.9899 70.9234 49.2578 71.0895 49.5081C71.2643 49.7444 71.4083 49.9517 71.5217 50.13C71.635 50.3083 71.6987 50.4018 71.7127 50.4106C71.7689 49.9767 71.8343 49.5045 71.9089 48.9942C71.9835 48.4839 72.106 47.9986 72.2764 47.5383C72.4555 47.064 72.6961 46.6476 72.9983 46.2892C73.3118 45.9282 73.7369 45.6857 74.2736 45.5618C74.5476 45.4985 74.8151 45.4849 75.0759 45.5209C75.3456 45.5428 75.5915 45.6183 75.8138 45.7474C76.0448 45.8625 76.2438 46.021 76.4107 46.223C76.5776 46.425 76.6953 46.6745 76.7638 46.9713C76.8218 47.2225 76.7599 47.4233 76.5781 47.5735C76.4077 47.721 76.1969 47.8238 75.9457 47.8818L75.7745 47.9214L74.8679 47.3549C74.8451 47.3602 74.8267 47.3584 74.8126 47.3497C74.7898 47.3549 74.7669 47.3602 74.7441 47.3655C74.73 47.3567 74.7116 47.3549 74.6888 47.3602C74.2891 47.4525 74.0015 47.6391 73.8258 47.9202C73.659 48.1873 73.5567 48.4995 73.5189 48.857C73.4786 49.2031 73.4834 49.5628 73.5335 49.9361C73.5924 50.2953 73.6561 50.6234 73.7247 50.9203C73.7774 51.1486 73.8543 51.3775 73.9553 51.6067C74.0537 51.8245 74.1578 52.041 74.2676 52.2562C74.3748 52.46 74.4789 52.6765 74.5799 52.9057C74.6783 53.1235 74.7565 53.3581 74.8145 53.6093C74.9252 54.0888 74.7237 54.3879 74.2098 54.5066C73.9244 54.5725 73.5932 54.4926 73.2164 54.2669C72.8369 54.0297 72.439 53.7127 72.0226 53.3157C71.6177 52.9161 71.2136 52.4682 70.8104 51.9719C70.4045 51.4643 70.0369 50.9659 69.7074 50.4766C69.378 49.9874 69.1004 49.5404 68.8746 49.1355C68.6603 48.7279 68.5294 48.4214 68.4819 48.2159ZM85.0481 49.641C84.6828 50.0381 84.3679 50.3934 84.1036 50.707C83.848 51.0066 83.5902 51.2705 83.3302 51.4989C83.0703 51.7273 82.7782 51.921 82.4541 52.0801C82.1414 52.2364 81.7396 52.3713 81.2486 52.4846C80.1867 52.7298 79.3343 52.632 78.6913 52.1911C78.0456 51.7388 77.5936 50.9531 77.3353 49.8341C77.2351 49.4002 77.1881 48.936 77.1942 48.4415C77.2003 47.947 77.2591 47.4463 77.3706 46.9395C77.4909 46.4186 77.6577 45.9171 77.8711 45.4348C78.0819 44.9412 78.3445 44.4897 78.6589 44.0803C78.9733 43.671 79.3264 43.3249 79.7181 43.042C80.1186 42.7451 80.5643 42.5399 81.0553 42.4266C81.8959 42.3167 82.5885 42.3733 83.1331 42.5964C83.6751 42.808 84.1252 43.143 84.4837 43.6015C84.8394 44.0486 85.1355 44.5756 85.3718 45.1825C85.6055 45.778 85.8217 46.4016 86.0202 47.0533C86.2302 47.7024 86.4516 48.3489 86.6844 48.9927C86.9173 49.6365 87.2239 50.2091 87.6042 50.7106C87.5428 51.1217 87.4607 51.4173 87.358 51.5974C87.2693 51.7862 87.1331 51.8477 86.9495 51.7819C86.766 51.716 86.5196 51.5083 86.2103 51.1587C85.9125 50.8065 85.5251 50.3006 85.0481 49.641ZM78.799 49.5323C78.9493 50.1831 79.1799 50.635 79.4909 50.888C79.8106 51.1268 80.2845 51.1738 80.9125 51.0288C81.3807 50.9207 81.8075 50.738 82.1931 50.4806C82.5875 50.2091 82.9115 49.8938 83.1654 49.5345C83.4165 49.1638 83.5917 48.7505 83.6909 48.2947C83.7901 47.8388 83.7818 47.3596 83.6658 46.8572C83.6183 46.6517 83.5581 46.3649 83.4852 45.9969C83.4096 45.6174 83.3011 45.2516 83.1597 44.8994C83.0182 44.5472 82.8372 44.2582 82.6167 44.0325C82.3936 43.7954 82.1222 43.7137 81.8025 43.7875C81.2087 43.9246 80.6962 44.2053 80.265 44.6296C79.8311 45.0425 79.4855 45.5251 79.2282 46.0777C78.9709 46.6302 78.8054 47.2156 78.7317 47.834C78.6553 48.4409 78.6778 49.007 78.799 49.5323ZM85.7583 42.7119C85.7504 42.6776 85.7495 42.6478 85.7557 42.6223C85.7504 42.5995 85.7495 42.5696 85.753 42.5327C85.7855 42.4651 85.8369 42.375 85.9072 42.2626C85.9774 42.1502 86.024 42.0913 86.0468 42.086L89.4894 41.2912C89.4604 41.1656 89.3972 40.9698 89.2997 40.7036C89.2021 40.4375 89.098 40.1428 88.9873 39.8196C88.888 39.4937 88.8032 39.1525 88.7329 38.7959C88.66 38.4279 88.6305 38.0919 88.6446 37.788C88.6674 37.47 88.749 37.1986 88.8896 36.9737C89.0389 36.7348 89.2848 36.5758 89.6273 36.4967C89.8936 37.65 90.187 38.5564 90.5077 39.216C90.8284 39.8756 91.1635 40.3635 91.5131 40.6797C91.8742 40.9933 92.2391 41.1676 92.608 41.2027C92.977 41.2378 93.3371 41.2088 93.6884 41.1156C94.0485 41.0084 94.3893 40.8696 94.7108 40.6992C95.0322 40.5287 95.3203 40.3961 95.575 40.3012C95.8412 40.2037 96.0647 40.1821 96.2457 40.2366C96.424 40.2796 96.55 40.461 96.6239 40.7807C96.6792 41.0205 96.6617 41.2049 96.5712 41.3341C96.4922 41.4605 96.3051 41.5879 96.01 41.7162C95.9213 41.7487 95.7724 41.8071 95.5633 41.8915C95.3631 41.9618 95.1343 42.0386 94.8769 42.1221C94.6196 42.2056 94.3464 42.2987 94.0574 42.4015C93.7658 42.4929 93.4914 42.5803 93.234 42.6638C92.9767 42.7472 92.7408 42.8197 92.5265 42.8812C92.3096 42.9313 92.1497 42.9682 92.0469 42.9919C92.0601 43.049 92.0768 43.1474 92.097 43.2871C92.1172 43.4267 92.1326 43.5194 92.1432 43.5651C92.2592 44.0675 92.4524 44.54 92.723 44.9827C92.991 45.4139 93.2703 45.8425 93.5611 46.2685C93.8633 46.6919 94.1484 47.1191 94.4163 47.5504C94.6842 47.9816 94.8762 48.4485 94.9922 48.9509C95.0133 49.0422 95.0243 49.1419 95.0252 49.25C95.0348 49.3439 95.0203 49.4375 94.9817 49.5306C94.9518 49.6097 94.8895 49.6782 94.7946 49.7362C94.7138 49.8029 94.5812 49.8275 94.3967 49.81C93.9365 49.796 93.5544 49.6256 93.2504 49.2989C92.9579 48.9695 92.701 48.5598 92.4796 48.0697C92.2555 47.5682 92.0592 47.0302 91.8905 46.4558C91.7218 45.8813 91.5395 45.3521 91.3436 44.8682C91.1564 44.3702 90.9421 43.9626 90.7005 43.6456C90.4563 43.3171 90.1479 43.1537 89.7755 43.1555L86.2959 43.1651C86.2502 43.1756 86.1712 43.1458 86.0587 43.0755C85.9437 42.9938 85.8694 42.9328 85.8361 42.8924C85.8194 42.8722 85.8071 42.845 85.7992 42.8107C85.7825 42.7905 85.7689 42.7576 85.7583 42.7119ZM97.6761 42.2877C97.6603 42.2192 97.6352 42.1107 97.6009 41.9623C97.5755 41.7998 97.5429 41.6329 97.5034 41.4616C97.4753 41.2877 97.4428 41.1208 97.4059 40.961C97.3804 40.7985 97.3597 40.683 97.3439 40.6145C97.4273 40.4028 97.5529 40.2174 97.7207 40.0584C97.8998 39.8968 98.0843 39.758 98.274 39.642C98.4506 40.2507 98.6992 40.8849 99.0199 41.5445C99.3406 42.2041 99.674 42.8668 100.02 43.5325C100.364 44.1869 100.683 44.8408 100.978 45.4943C101.285 46.1451 101.507 46.7674 101.644 47.3612C101.762 47.875 101.559 48.1925 101.034 48.3138C100.714 48.3876 100.415 48.3182 100.138 48.1057C99.8602 47.8932 99.6068 47.6029 99.3775 47.2349C99.157 46.8528 98.9501 46.4255 98.7568 45.953C98.5609 45.469 98.3904 44.9912 98.2455 44.5195C98.1119 44.0452 97.9933 43.6096 97.8896 43.2126C97.7973 42.8129 97.7262 42.5046 97.6761 42.2877ZM96.433 35.8095C96.6711 35.8507 96.888 35.957 97.0839 36.1283C97.2798 36.2995 97.3861 36.4734 97.4028 36.65C97.4283 36.8125 97.3291 36.9557 97.1051 37.0795C96.8785 37.192 96.463 37.2157 95.8587 37.1508C95.7875 36.8425 95.7827 36.561 95.8441 36.3062C95.917 36.0489 96.1133 35.8833 96.433 35.8095ZM100.977 44.6285C100.814 43.9205 100.828 43.2258 101.019 42.5441C101.208 41.8511 101.521 41.2257 101.957 40.6679C102.403 40.096 102.933 39.6067 103.549 39.2C104.176 38.7906 104.838 38.5055 105.534 38.3447C105.922 38.2551 106.294 38.3016 106.649 38.4843C107.015 38.6643 107.343 38.9133 107.633 39.2312C107.92 39.5378 108.161 39.879 108.357 40.2549C108.563 40.6282 108.7 40.9633 108.769 41.2601C108.917 41.8996 108.906 42.5575 108.738 43.2338C108.566 43.8987 108.289 44.522 107.906 45.1035C107.521 45.6736 107.053 46.1725 106.502 46.6003C105.951 47.0281 105.368 47.3132 104.751 47.4556C104.203 47.5821 103.719 47.5975 103.3 47.5018C102.879 47.3947 102.518 47.2133 102.219 46.9578C101.917 46.6908 101.66 46.3592 101.448 45.9631C101.245 45.5529 101.088 45.1081 100.977 44.6285ZM102.473 44.4637C102.541 44.7605 102.625 45.0179 102.723 45.2357C102.83 45.4395 102.965 45.6068 103.128 45.7376C103.302 45.8659 103.508 45.9506 103.746 45.9919C103.981 46.0217 104.259 45.9997 104.578 45.9259C105.001 45.8284 105.397 45.6167 105.767 45.2908C106.134 44.9534 106.442 44.5696 106.692 44.1391C106.95 43.6947 107.131 43.2318 107.237 42.7504C107.342 42.2691 107.347 41.8229 107.253 41.4118C107.21 41.2291 107.147 41.0332 107.063 40.8242C106.978 40.6151 106.875 40.4285 106.753 40.2643C106.631 40.1 106.481 39.9722 106.304 39.8809C106.126 39.7896 105.923 39.7703 105.695 39.823C105.49 39.8704 105.26 39.9956 105.006 40.1985C104.764 40.3988 104.513 40.643 104.255 40.9312C104.008 41.2167 103.768 41.5307 103.534 41.8733C103.312 42.2132 103.113 42.5479 102.936 42.8773C102.76 43.2067 102.626 43.5141 102.536 43.7996C102.457 44.0824 102.436 44.3038 102.473 44.4637ZM108.55 40.4629C108.481 40.166 108.506 39.9376 108.626 39.7778C108.743 39.6065 108.967 39.4826 109.298 39.4061L109.469 39.3666C109.546 39.5414 109.634 39.7434 109.735 39.9726C109.836 40.2019 109.962 40.4316 110.111 40.6617C110.26 40.8918 110.423 41.1008 110.598 41.2888C110.771 41.4653 110.964 41.5953 111.176 41.6787C111.095 41.2764 111.103 40.8715 111.202 40.464C111.309 40.0423 111.467 39.6572 111.675 39.3084C111.892 38.9456 112.143 38.629 112.43 38.3584C112.725 38.0738 113.03 37.859 113.345 37.7141L113.722 37.6271C114.27 37.5005 114.767 37.518 115.213 37.6796C115.657 37.8298 116.051 38.0757 116.394 38.4173C116.746 38.7449 117.049 39.1441 117.302 39.6149C117.555 40.0857 117.776 40.5758 117.966 41.0852C118.165 41.5806 118.326 42.0724 118.451 42.5608C118.585 43.0351 118.691 43.4435 118.77 43.7861L117.52 44.0747C117.293 43.4054 117.056 42.7687 116.808 42.1644C116.716 41.9211 116.61 41.669 116.489 41.4081C116.366 41.1358 116.243 40.8877 116.119 40.6638C115.992 40.4284 115.865 40.2171 115.738 40.0301C115.608 39.8316 115.474 39.67 115.337 39.5452C115.281 39.5101 115.204 39.4618 115.106 39.4003C115.019 39.3362 114.926 39.2734 114.828 39.212C114.729 39.1505 114.639 39.0991 114.557 39.0578C114.476 39.0166 114.429 38.9972 114.418 38.9999C114.054 38.9876 113.773 39.1247 113.575 39.411C113.373 39.686 113.219 40.0342 113.112 40.4559C113.005 40.8775 112.944 41.3426 112.929 41.8512C112.926 42.3571 112.935 42.8419 112.958 43.3057C112.979 43.7581 113.01 44.1538 113.052 44.4928C113.092 44.8204 113.114 45.0198 113.118 45.091C112.88 45.3624 112.626 45.4871 112.356 45.4652C112.084 45.4319 111.802 45.3045 111.511 45.0832C111.23 44.8593 110.951 44.5628 110.674 44.1939C110.408 43.8224 110.148 43.4254 109.894 43.003C109.637 42.5691 109.392 42.1326 109.158 41.6934C108.936 41.2516 108.733 40.8414 108.55 40.4629Z" fill="#BCBCBC"/>
</svg>
