<svg width="141" height="28" viewBox="0 0 141 28" fill="none" xmlns="http://www.w3.org/2000/svg">
<g clip-path="url(#clip0_1_6641)">
<path fill-rule="evenodd" clip-rule="evenodd" d="M17.8384 8.17971C16.6905 7.41055 15.3409 7 13.9604 7V0C16.7215 0 19.4206 0.821086 21.7164 2.35943C24.0122 3.89776 25.8015 6.08427 26.8581 8.64241C27.9147 11.2006 28.1912 14.0155 27.6525 16.7313C27.1139 19.447 25.7843 21.9416 23.8319 23.8995C21.8795 25.8574 19.392 27.1908 16.6839 27.731C13.9759 28.2712 11.1689 27.9939 8.61796 26.9343C6.06705 25.8747 3.88673 24.0803 2.35275 21.778C0.818763 19.4757 0 16.7689 0 14H6.9802C6.9802 15.3845 7.38959 16.7378 8.15657 17.889C8.92355 19.0401 10.0137 19.9373 11.2892 20.4672C12.5646 20.997 13.9681 21.1356 15.3222 20.8655C16.6762 20.5954 17.9199 19.9287 18.8962 18.9498C19.8723 17.9708 20.5371 16.7235 20.8064 15.3656C21.0758 14.0078 20.9376 12.6003 20.4093 11.3212C19.8809 10.0421 18.9863 8.94887 17.8384 8.17971Z" fill="#007DFC"/>
<path fill-rule="evenodd" clip-rule="evenodd" d="M6.98019 3.69945e-06C6.98019 0.919257 6.79965 1.82951 6.44886 2.67879C6.09807 3.52807 5.58392 4.29974 4.93574 4.94975C4.28758 5.59976 3.51809 6.11538 2.67121 6.46716C1.82433 6.81894 0.91665 7 3.05111e-07 7L0 14C1.8333 14 3.64866 13.6379 5.34242 12.9343C7.03618 12.2308 8.57517 11.1995 9.87146 9.89947C11.1678 8.5995 12.1961 7.05614 12.8977 5.35757C13.5993 3.65901 13.9604 1.8385 13.9604 0L6.98019 3.69945e-06Z" fill="#007DFC"/>
<path d="M87.6837 10.1172H84.2969V20.9058H87.6837V10.1172Z" fill="#007DFC"/>
<path d="M84.6736 8.09701C85.0275 8.45219 85.4701 8.62978 86.0012 8.62978C86.5324 8.62978 86.968 8.45219 87.3072 8.09701C87.6472 7.72706 87.8168 7.28305 87.8168 6.76509C87.8168 6.23233 87.6472 5.78833 87.3072 5.43317C86.968 5.07797 86.5324 4.90039 86.0012 4.90039C85.4701 4.90039 85.0275 5.07797 84.6736 5.43317C84.3337 5.78833 84.1641 6.23233 84.1641 6.76509C84.1641 7.28305 84.3337 7.72706 84.6736 8.09701Z" fill="#007DFC"/>
<path d="M35.707 20.9058V5.2334H39.1824V17.8424H46.111V20.9058H35.707Z" fill="#007DFC"/>
<path fill-rule="evenodd" clip-rule="evenodd" d="M52.3725 21.1491C51.2657 21.1491 50.2623 20.9049 49.362 20.4165C48.4766 19.9134 47.7756 19.2326 47.2591 18.3742C46.7426 17.5159 46.4844 16.5539 46.4844 15.4884C46.4844 14.4228 46.7426 13.4683 47.2591 12.6248C47.7756 11.7812 48.4766 11.1152 49.362 10.6269C50.2475 10.1237 51.251 9.87207 52.3725 9.87207C53.4941 9.87207 54.4976 10.1163 55.383 10.6046C56.2684 11.093 56.9695 11.7664 57.4859 12.6248C58.0025 13.4683 58.2607 14.4228 58.2607 15.4884C58.2607 16.5539 58.0025 17.5159 57.4859 18.3742C56.9695 19.2326 56.2684 19.9134 55.383 20.4165C54.4976 20.9049 53.4941 21.1491 52.3725 21.1491ZM52.3725 18.0635C52.8595 18.0635 53.2875 17.9599 53.6565 17.7527C54.0254 17.5307 54.3058 17.2273 54.4976 16.8425C54.7042 16.443 54.8075 15.9915 54.8075 15.4884C54.8075 14.9852 54.7042 14.5486 54.4976 14.1787C54.291 13.7939 54.0032 13.4979 53.6343 13.2907C53.2801 13.0687 52.8595 12.9577 52.3725 12.9577C51.9003 12.9577 51.4798 13.0687 51.1108 13.2907C50.7419 13.4979 50.4541 13.7939 50.2475 14.1787C50.0409 14.5635 49.9376 15.0074 49.9376 15.5106C49.9376 15.999 50.0409 16.443 50.2475 16.8425C50.4541 17.2273 50.7419 17.5307 51.1108 17.7527C51.4798 17.9599 51.9003 18.0635 52.3725 18.0635Z" fill="#007DFC"/>
<path fill-rule="evenodd" clip-rule="evenodd" d="M60.9401 25.123C61.8403 25.5373 62.8807 25.7445 64.0613 25.7445C65.2124 25.7445 66.2381 25.5151 67.1382 25.0563C68.0385 24.5975 68.7467 23.9612 69.2633 23.1473C69.7797 22.3333 70.0383 21.3714 70.0383 20.2614V10.1166H66.7176V10.8414C66.4706 10.633 66.1902 10.458 65.8765 10.3164C65.3009 10.0352 64.6442 9.89453 63.9064 9.89453C62.9176 9.89453 62.0395 10.1313 61.2722 10.6049C60.5047 11.0637 59.8997 11.7 59.457 12.514C59.0142 13.3132 58.793 14.2159 58.793 15.2223C58.793 16.2139 59.0142 17.1166 59.457 17.9305C59.8997 18.7445 60.5047 19.3883 61.2722 19.8618C62.0395 20.3354 62.9176 20.5722 63.9064 20.5722C64.6295 20.5722 65.2862 20.4316 65.8765 20.1504C66.1624 20.0142 66.4207 19.8537 66.6512 19.6688V20.3502C66.6512 21.105 66.4077 21.6895 65.9207 22.1039C65.4485 22.5183 64.7918 22.7255 63.9506 22.7255C63.2718 22.7255 62.6889 22.6071 62.2019 22.3703C61.7297 22.1335 61.3017 21.7857 60.918 21.3269L58.8372 23.4136C59.3537 24.1536 60.0547 24.7234 60.9401 25.123ZM65.7658 17.2424C65.4263 17.4496 65.0206 17.5532 64.5483 17.5532C64.0761 17.5532 63.6628 17.4496 63.3087 17.2424C62.9692 17.0352 62.7036 16.754 62.5118 16.3988C62.3199 16.0288 62.224 15.6366 62.224 15.2223C62.224 14.7783 62.3199 14.3787 62.5118 14.0236C62.7036 13.6684 62.9766 13.3872 63.3308 13.18C63.685 12.9728 64.0908 12.8692 64.5483 12.8692C65.0206 12.8692 65.4263 12.9728 65.7658 13.18C66.1199 13.3872 66.3855 13.6684 66.5627 14.0236C66.7545 14.3787 66.8504 14.7783 66.8504 15.2223C66.8504 15.6662 66.7545 16.0658 66.5627 16.421C66.3855 16.7614 66.1199 17.0352 65.7658 17.2424Z" fill="#007DFC"/>
<path fill-rule="evenodd" clip-rule="evenodd" d="M77.1658 21.1491C76.0588 21.1491 75.055 20.9049 74.1553 20.4165C73.2695 19.9134 72.5687 19.2326 72.0521 18.3742C71.5356 17.5159 71.2773 16.5539 71.2773 15.4884C71.2773 14.4228 71.5356 13.4683 72.0521 12.6248C72.5687 11.7812 73.2695 11.1152 74.1553 10.6269C75.0404 10.1237 76.0441 9.87207 77.1658 9.87207C78.2869 9.87207 79.2906 10.1163 80.1757 10.6046C81.0615 11.093 81.7623 11.7664 82.2788 12.6248C82.7954 13.4683 83.0536 14.4228 83.0536 15.4884C83.0536 16.5539 82.7954 17.5159 82.2788 18.3742C81.7623 19.2326 81.0615 19.9134 80.1757 20.4165C79.2906 20.9049 78.2869 21.1491 77.1658 21.1491ZM77.1658 18.0635C77.6524 18.0635 78.0802 17.9599 78.4495 17.7527C78.8181 17.5307 79.0987 17.2273 79.2906 16.8425C79.4972 16.443 79.6005 15.9915 79.6005 15.4884C79.6005 14.9852 79.4972 14.5486 79.2906 14.1787C79.084 13.7939 78.7964 13.4979 78.4272 13.2907C78.0733 13.0687 77.6524 12.9577 77.1658 12.9577C76.6933 12.9577 76.2724 13.0687 75.9038 13.2907C75.5346 13.4979 75.247 13.7939 75.0404 14.1787C74.8338 14.5635 74.7304 15.0074 74.7304 15.5106C74.7304 15.999 74.8338 16.443 75.0404 16.8425C75.247 17.2273 75.5346 17.5307 75.9038 17.7527C76.2724 17.9599 76.6933 18.0635 77.1658 18.0635Z" fill="#007DFC"/>
<path fill-rule="evenodd" clip-rule="evenodd" d="M95.8266 21.1272C95.1042 21.1272 94.4397 20.9866 93.8345 20.7054C93.5162 20.5574 93.2286 20.3807 92.9717 20.1754V25.4559H89.6289V10.1166H93.0157V10.8612C93.2614 10.6596 93.5343 10.4854 93.8345 10.3385C94.4397 10.0425 95.1042 9.89453 95.8266 9.89453C96.845 9.89453 97.7455 10.1388 98.5273 10.6272C99.3244 11.1155 99.9442 11.7815 100.387 12.625C100.845 13.4686 101.073 14.4305 101.073 15.5108C101.073 16.5912 100.845 17.5532 100.387 18.3967C99.9442 19.2403 99.3244 19.9062 98.5273 20.3946C97.7455 20.883 96.845 21.1272 95.8266 21.1272ZM95.2075 18.0637C95.694 18.0637 96.1149 17.9527 96.4688 17.7308C96.8381 17.5088 97.1256 17.2053 97.3323 16.8206C97.5389 16.4358 97.6422 15.9992 97.6422 15.5108C97.6422 15.0077 97.5389 14.5637 97.3323 14.179C97.1256 13.7942 96.8381 13.4982 96.4688 13.291C96.1149 13.069 95.7017 12.958 95.2291 12.958C94.7573 12.958 94.3364 13.069 93.9678 13.291C93.6132 13.4982 93.3333 13.7942 93.1267 14.179C92.9201 14.5637 92.8168 15.0077 92.8168 15.5108C92.8168 15.9992 92.9124 16.4358 93.1043 16.8206C93.311 17.2053 93.5985 17.5088 93.9678 17.7308C94.3364 17.9527 94.7496 18.0637 95.2075 18.0637Z" fill="#007DFC"/>
<path d="M104.384 20.9273C105.004 21.0901 105.631 21.1714 106.266 21.1714C107.609 21.1714 108.671 20.8607 109.453 20.2391C110.25 19.6176 110.648 18.7814 110.648 17.7306C110.648 17.0499 110.524 16.5023 110.272 16.088C110.022 15.6588 109.697 15.3184 109.299 15.0668C108.9 14.8152 108.479 14.6154 108.036 14.4674C107.594 14.3194 107.173 14.1936 106.775 14.09C106.377 13.9864 106.052 13.868 105.801 13.7348C105.55 13.6016 105.425 13.424 105.425 13.2021C105.425 12.9949 105.521 12.8395 105.712 12.7359C105.904 12.6175 106.192 12.5583 106.576 12.5583C106.974 12.5583 107.38 12.6397 107.793 12.8025C108.221 12.9653 108.605 13.2465 108.944 13.6461L110.87 11.6926C110.383 11.071 109.749 10.6048 108.966 10.2941C108.199 9.96848 107.358 9.80566 106.443 9.80566C105.572 9.80566 104.812 9.95364 104.163 10.2496C103.513 10.5456 103.011 10.9526 102.658 11.4705C102.304 11.9737 102.126 12.5731 102.126 13.2687C102.126 13.9198 102.252 14.46 102.503 14.8892C102.753 15.3035 103.078 15.6292 103.476 15.8659C103.875 16.1027 104.296 16.2877 104.738 16.4209C105.181 16.5541 105.602 16.6799 106 16.7983C106.398 16.9019 106.724 17.0277 106.974 17.1757C107.24 17.3089 107.373 17.5087 107.373 17.775C107.373 17.9822 107.262 18.145 107.04 18.2634C106.834 18.3818 106.532 18.441 106.133 18.441C105.557 18.441 105.026 18.3374 104.539 18.1302C104.052 17.9082 103.631 17.6049 103.277 17.2201L101.352 19.1736C101.721 19.5731 102.163 19.9284 102.68 20.2391C103.211 20.5351 103.779 20.7644 104.384 20.9273Z" fill="#007DFC"/>
<path d="M116.828 21.15C115.84 21.15 114.961 20.9502 114.194 20.5506C113.441 20.1362 112.851 19.5738 112.423 18.8635C111.995 18.1383 111.781 17.3096 111.781 16.3772V10.1172H115.168V16.3328C115.168 16.7028 115.227 17.021 115.345 17.2874C115.478 17.5538 115.67 17.761 115.921 17.909C116.172 18.0569 116.474 18.1309 116.828 18.1309C117.33 18.1309 117.728 17.9755 118.024 17.6647C118.319 17.3392 118.466 16.8952 118.466 16.3328V10.1172H121.853V16.355C121.853 17.3022 121.639 18.1383 121.211 18.8635C120.783 19.5738 120.193 20.1362 119.44 20.5506C118.687 20.9502 117.817 21.15 116.828 21.15Z" fill="#007DFC"/>
<path d="M126.922 10.1166H123.535V20.9052H126.922V14.6007C126.922 14.2308 126.996 13.92 127.143 13.6684C127.306 13.4168 127.52 13.2244 127.785 13.0912C128.051 12.9432 128.354 12.8692 128.693 12.8692C129.18 12.8692 129.586 13.0246 129.91 13.3354C130.25 13.6313 130.42 14.0532 130.42 14.6007V20.9052H133.807V14.6007C133.807 14.2308 133.881 13.92 134.028 13.6684C134.19 13.4168 134.404 13.2244 134.67 13.0912C134.935 12.9432 135.238 12.8692 135.577 12.8692C136.065 12.8692 136.47 13.0246 136.795 13.3354C137.134 13.6313 137.304 14.0532 137.304 14.6007V20.9052H140.691V14.2233C140.691 13.3206 140.499 12.551 140.115 11.9147C139.746 11.2635 139.237 10.7677 138.588 10.4274C137.953 10.0721 137.223 9.89453 136.396 9.89453C135.555 9.89453 134.795 10.0795 134.116 10.4496C133.675 10.6853 133.29 10.9895 132.96 11.3622C132.652 10.9723 132.278 10.6533 131.836 10.4051C131.246 10.0648 130.575 9.89453 129.822 9.89453C129.025 9.89453 128.31 10.0648 127.675 10.4051C127.399 10.5467 127.148 10.7163 126.922 10.9139V10.1166Z" fill="#007DFC"/>
</g>
<defs>
<clipPath id="clip0_1_6641">
<rect width="141" height="28" fill="white"/>
</clipPath>
</defs>
</svg>
