<svg width="142" height="29" viewBox="0 0 142 29" fill="none" xmlns="http://www.w3.org/2000/svg">
<g clip-path="url(#clip0_1_6641)">
<path fill-rule="evenodd" clip-rule="evenodd" d="M17.8384 8.17971C16.6905 7.41055 15.3409 7 13.9604 7V0C16.7215 0 19.4206 0.821086 21.7164 2.35943C24.0122 3.89776 25.8015 6.08427 26.8581 8.64241C27.9147 11.2006 28.1912 14.0155 27.6525 16.7313C27.1139 19.447 25.7843 21.9416 23.8319 23.8995C21.8795 25.8574 19.392 27.1908 16.6839 27.731C13.9759 28.2712 11.1689 27.9939 8.61796 26.9343C6.06705 25.8747 3.88673 24.0803 2.35275 21.778C0.818763 19.4757 0 16.7689 0 14H6.9802C6.9802 15.3845 7.38959 16.7378 8.15657 17.889C8.92355 19.0401 10.0137 19.9373 11.2892 20.4672C12.5646 20.997 13.9681 21.1356 15.3222 20.8655C16.6762 20.5954 17.9199 19.9287 18.8962 18.9498C19.8723 17.9708 20.5371 16.7235 20.8064 15.3656C21.0758 14.0078 20.9376 12.6003 20.4093 11.3212C19.8809 10.0421 18.9863 8.94887 17.8384 8.17971Z" fill="#007DFC"/>
<path fill-rule="evenodd" clip-rule="evenodd" d="M6.98019 3.69945e-06C6.98019 0.919257 6.79965 1.82951 6.44886 2.67879C6.09807 3.52807 5.58392 4.29974 4.93574 4.94975C4.28758 5.59976 3.51809 6.11538 2.67121 6.46716C1.82433 6.81894 0.91665 7 3.05111e-07 7L0 14C1.8333 14 3.64866 13.6379 5.34242 12.9343C7.03618 12.2308 8.57517 11.1995 9.87146 9.89947C11.1678 8.5995 12.1961 7.05614 12.8977 5.35757C13.5993 3.65901 13.9604 1.8385 13.9604 0L6.98019 3.69945e-06Z" fill="#007DFC"/>
<path d="M50.1648 11.8693H45.9034C45.8466 11.4318 45.7301 11.0369 45.554 10.6847C45.3778 10.3324 45.1449 10.0312 44.8551 9.78125C44.5653 9.53125 44.2216 9.34091 43.8239 9.21023C43.4318 9.07386 42.9972 9.00568 42.5199 9.00568C41.6733 9.00568 40.9432 9.21307 40.3295 9.62784C39.7216 10.0426 39.2528 10.642 38.9233 11.4261C38.5994 12.2102 38.4375 13.1591 38.4375 14.2727C38.4375 15.4318 38.6023 16.4034 38.9318 17.1875C39.267 17.9659 39.7358 18.554 40.3381 18.9517C40.946 19.3437 41.6648 19.5398 42.4943 19.5398C42.9602 19.5398 43.3835 19.4801 43.7642 19.3608C44.1506 19.2415 44.4886 19.0682 44.7784 18.8409C45.0739 18.608 45.3153 18.3267 45.5028 17.9972C45.696 17.6619 45.8295 17.2841 45.9034 16.8636L50.1648 16.8892C50.0909 17.6619 49.8665 18.4233 49.4915 19.1733C49.1222 19.9233 48.6136 20.608 47.9659 21.2273C47.3182 21.8409 46.5284 22.3295 45.5966 22.6932C44.6705 23.0568 43.608 23.2386 42.4091 23.2386C40.8295 23.2386 39.4148 22.892 38.1648 22.1989C36.9205 21.5 35.9375 20.483 35.2159 19.1477C34.4943 17.8125 34.1335 16.1875 34.1335 14.2727C34.1335 12.3523 34.5 10.7244 35.233 9.3892C35.9659 8.05398 36.9574 7.03977 38.2074 6.34659C39.4574 5.65341 40.858 5.30682 42.4091 5.30682C43.4659 5.30682 44.4432 5.45455 45.3409 5.75C46.2386 6.03977 47.0284 6.46591 47.7102 7.02841C48.392 7.58523 48.946 8.26989 49.3722 9.08239C49.7983 9.89489 50.0625 10.8239 50.1648 11.8693ZM58.6896 23.2472C57.3146 23.2472 56.1328 22.9659 55.1442 22.4034C54.1612 21.8352 53.4027 21.0455 52.8686 20.0341C52.3402 19.017 52.076 17.8381 52.076 16.4972C52.076 15.1506 52.3402 13.9716 52.8686 12.9602C53.4027 11.9432 54.1612 11.1534 55.1442 10.5909C56.1328 10.0227 57.3146 9.73864 58.6896 9.73864C60.0646 9.73864 61.2436 10.0227 62.2266 10.5909C63.2152 11.1534 63.9737 11.9432 64.5021 12.9602C65.0362 13.9716 65.3033 15.1506 65.3033 16.4972C65.3033 17.8381 65.0362 19.017 64.5021 20.0341C63.9737 21.0455 63.2152 21.8352 62.2266 22.4034C61.2436 22.9659 60.0646 23.2472 58.6896 23.2472ZM58.7152 20.1023C59.2152 20.1023 59.6385 19.9489 59.9851 19.642C60.3317 19.3352 60.5959 18.9091 60.7777 18.3636C60.9652 17.8182 61.0589 17.1875 61.0589 16.4716C61.0589 15.7443 60.9652 15.108 60.7777 14.5625C60.5959 14.017 60.3317 13.5909 59.9851 13.2841C59.6385 12.9773 59.2152 12.8239 58.7152 12.8239C58.1982 12.8239 57.7607 12.9773 57.4027 13.2841C57.0504 13.5909 56.7805 14.017 56.593 14.5625C56.4112 15.108 56.3203 15.7443 56.3203 16.4716C56.3203 17.1875 56.4112 17.8182 56.593 18.3636C56.7805 18.9091 57.0504 19.3352 57.4027 19.642C57.7607 19.9489 58.1982 20.1023 58.7152 20.1023ZM67.4382 23V9.90909H71.4865V12.2955H71.6229C71.8615 11.4318 72.2507 10.7898 72.7905 10.3693C73.3303 9.94318 73.9581 9.73011 74.674 9.73011C74.8672 9.73011 75.0661 9.74432 75.2706 9.77273C75.4751 9.79545 75.6655 9.83239 75.8416 9.88352V13.5057C75.6428 13.4375 75.3814 13.3835 75.0575 13.3438C74.7393 13.304 74.4553 13.2841 74.2053 13.2841C73.7109 13.2841 73.2649 13.3949 72.8672 13.6165C72.4751 13.8324 72.1655 14.1364 71.9382 14.5284C71.7166 14.9148 71.6058 15.3693 71.6058 15.892V23H67.4382ZM82.9794 23.2472C81.6101 23.2472 80.4283 22.9773 79.4339 22.4375C78.4453 21.892 77.6839 21.1165 77.1499 20.1108C76.6214 19.0994 76.3572 17.8977 76.3572 16.5057C76.3572 15.1534 76.6243 13.9716 77.1584 12.9602C77.6925 11.9432 78.4453 11.1534 79.4169 10.5909C80.3885 10.0227 81.5334 9.73864 82.8516 9.73864C83.7834 9.73864 84.6357 9.88352 85.4084 10.1733C86.1811 10.4631 86.8487 10.892 87.4112 11.4602C87.9737 12.0284 88.4112 12.7301 88.7237 13.5653C89.0362 14.3949 89.1925 15.3466 89.1925 16.4205V17.4602H77.8146V15.0398H85.3146C85.3089 14.5966 85.2038 14.2017 84.9993 13.8551C84.7947 13.5085 84.5135 13.2386 84.1555 13.0455C83.8033 12.8466 83.397 12.7472 82.9368 12.7472C82.4709 12.7472 82.0533 12.8523 81.6839 13.0625C81.3146 13.267 81.022 13.5483 80.8061 13.9062C80.5902 14.2585 80.4766 14.6591 80.4652 15.108V17.571C80.4652 18.1051 80.5703 18.5739 80.7805 18.9773C80.9908 19.375 81.2891 19.6847 81.6754 19.9062C82.0618 20.1278 82.522 20.2386 83.0561 20.2386C83.4254 20.2386 83.7607 20.1875 84.0618 20.0852C84.3629 19.983 84.6214 19.8324 84.8374 19.6335C85.0533 19.4347 85.2152 19.1903 85.3232 18.9006L89.1499 19.0114C88.9908 19.8693 88.6413 20.6165 88.1016 21.2528C87.5675 21.8835 86.8658 22.375 85.9964 22.7273C85.1271 23.0739 84.1214 23.2472 82.9794 23.2472ZM102.75 13.9062L98.9233 14.0085C98.8835 13.7358 98.7756 13.4943 98.5994 13.2841C98.4233 13.0682 98.1932 12.9006 97.9091 12.7812C97.6307 12.6562 97.3068 12.5938 96.9375 12.5938C96.4545 12.5938 96.0426 12.6903 95.7017 12.8835C95.3665 13.0767 95.2017 13.3381 95.2074 13.6676C95.2017 13.9233 95.304 14.1449 95.5142 14.3324C95.7301 14.5199 96.1136 14.6705 96.6648 14.7841L99.1875 15.2614C100.494 15.5114 101.466 15.9261 102.102 16.5057C102.744 17.0852 103.068 17.8523 103.074 18.8068C103.068 19.7045 102.801 20.4858 102.273 21.1506C101.75 21.8153 101.034 22.3324 100.125 22.7017C99.2159 23.0653 98.1761 23.2472 97.0057 23.2472C95.1364 23.2472 93.6619 22.8636 92.5824 22.0966C91.5085 21.3239 90.8949 20.2898 90.7415 18.9943L94.858 18.892C94.9489 19.3693 95.1847 19.733 95.5653 19.983C95.946 20.233 96.4318 20.358 97.0227 20.358C97.5568 20.358 97.9915 20.2585 98.3267 20.0597C98.6619 19.8608 98.8324 19.5966 98.8381 19.267C98.8324 18.9716 98.7017 18.7358 98.446 18.5597C98.1903 18.3778 97.7898 18.2358 97.2443 18.1335L94.9602 17.6989C93.6477 17.4602 92.6705 17.0199 92.0284 16.3778C91.3864 15.7301 91.0682 14.9062 91.0739 13.9062C91.0682 13.0312 91.3011 12.2841 91.7727 11.6648C92.2443 11.0398 92.9148 10.5625 93.7841 10.233C94.6534 9.90341 95.679 9.73864 96.8608 9.73864C98.6335 9.73864 100.031 10.1108 101.054 10.8551C102.077 11.5937 102.642 12.6108 102.75 13.9062ZM111.245 23.2472C109.876 23.2472 108.694 22.9773 107.7 22.4375C106.711 21.892 105.95 21.1165 105.415 20.1108C104.887 19.0994 104.623 17.8977 104.623 16.5057C104.623 15.1534 104.89 13.9716 105.424 12.9602C105.958 11.9432 106.711 11.1534 107.683 10.5909C108.654 10.0227 109.799 9.73864 111.117 9.73864C112.049 9.73864 112.901 9.88352 113.674 10.1733C114.447 10.4631 115.114 10.892 115.677 11.4602C116.239 12.0284 116.677 12.7301 116.989 13.5653C117.302 14.3949 117.458 15.3466 117.458 16.4205V17.4602H106.08V15.0398H113.58C113.575 14.5966 113.469 14.2017 113.265 13.8551C113.06 13.5085 112.779 13.2386 112.421 13.0455C112.069 12.8466 111.663 12.7472 111.202 12.7472C110.737 12.7472 110.319 12.8523 109.95 13.0625C109.58 13.267 109.288 13.5483 109.072 13.9062C108.856 14.2585 108.742 14.6591 108.731 15.108V17.571C108.731 18.1051 108.836 18.5739 109.046 18.9773C109.256 19.375 109.555 19.6847 109.941 19.9062C110.327 20.1278 110.788 20.2386 111.322 20.2386C111.691 20.2386 112.026 20.1875 112.327 20.0852C112.629 19.983 112.887 19.8324 113.103 19.6335C113.319 19.4347 113.481 19.1903 113.589 18.9006L117.415 19.0114C117.256 19.8693 116.907 20.6165 116.367 21.2528C115.833 21.8835 115.131 22.375 114.262 22.7273C113.393 23.0739 112.387 23.2472 111.245 23.2472ZM126.976 9.90909V12.9773H118.717V9.90909H126.976ZM120.447 6.77273H124.615V18.8835C124.615 19.1392 124.655 19.3466 124.734 19.5057C124.82 19.6591 124.942 19.7699 125.101 19.8381C125.26 19.9006 125.45 19.9318 125.672 19.9318C125.831 19.9318 125.999 19.9176 126.175 19.8892C126.357 19.8551 126.493 19.8267 126.584 19.804L127.214 22.8125C127.016 22.8693 126.734 22.9403 126.371 23.0256C126.013 23.1108 125.584 23.1648 125.084 23.1875C124.107 23.233 123.268 23.1193 122.57 22.8466C121.876 22.5682 121.345 22.1364 120.976 21.5511C120.612 20.9659 120.436 20.2301 120.447 19.3438V6.77273ZM140.367 13.9062L136.54 14.0085C136.501 13.7358 136.393 13.4943 136.217 13.2841C136.04 13.0682 135.81 12.9006 135.526 12.7812C135.248 12.6562 134.924 12.5938 134.555 12.5938C134.072 12.5938 133.66 12.6903 133.319 12.8835C132.984 13.0767 132.819 13.3381 132.825 13.6676C132.819 13.9233 132.921 14.1449 133.131 14.3324C133.347 14.5199 133.731 14.6705 134.282 14.7841L136.805 15.2614C138.112 15.5114 139.083 15.9261 139.719 16.5057C140.362 17.0852 140.685 17.8523 140.691 18.8068C140.685 19.7045 140.418 20.4858 139.89 21.1506C139.367 21.8153 138.651 22.3324 137.742 22.7017C136.833 23.0653 135.793 23.2472 134.623 23.2472C132.754 23.2472 131.279 22.8636 130.2 22.0966C129.126 21.3239 128.512 20.2898 128.359 18.9943L132.475 18.892C132.566 19.3693 132.802 19.733 133.183 19.983C133.563 20.233 134.049 20.358 134.64 20.358C135.174 20.358 135.609 20.2585 135.944 20.0597C136.279 19.8608 136.45 19.5966 136.455 19.267C136.45 18.9716 136.319 18.7358 136.063 18.5597C135.808 18.3778 135.407 18.2358 134.862 18.1335L132.577 17.6989C131.265 17.4602 130.288 17.0199 129.646 16.3778C129.004 15.7301 128.685 14.9062 128.691 13.9062C128.685 13.0312 128.918 12.2841 129.39 11.6648C129.862 11.0398 130.532 10.5625 131.401 10.233C132.271 9.90341 133.296 9.73864 134.478 9.73864C136.251 9.73864 137.648 10.1108 138.671 10.8551C139.694 11.5937 140.259 12.6108 140.367 13.9062Z" fill="#007DFC"/>
</g>
<defs>
<clipPath id="clip0_1_6641">
<rect width="142" height="29" fill="white"/>
</clipPath>
</defs>
</svg>
