<svg width="40" height="40" viewBox="0 0 40 40" fill="none" xmlns="http://www.w3.org/2000/svg">
<path d="M2.29289 19.2929C1.90237 19.6834 1.90237 20.3166 2.29289 20.7071L8.65685 27.0711C9.04738 27.4616 9.68054 27.4616 10.0711 27.0711C10.4616 26.6805 10.4616 26.0474 10.0711 25.6569L4.41421 20L10.0711 14.3431C10.4616 13.9526 10.4616 13.3195 10.0711 12.9289C9.68054 12.5384 9.04738 12.5384 8.65685 12.9289L2.29289 19.2929ZM37 21C37.5523 21 38 20.5523 38 20C38 19.4477 37.5523 19 37 19V21ZM3 21H37V19H3V21Z" fill="#002A73"/>
</svg>
