<svg width="40" height="40" viewBox="0 0 40 40" fill="none" xmlns="http://www.w3.org/2000/svg">
<path d="M37.7071 20.7071C38.0976 20.3166 38.0976 19.6834 37.7071 19.2929L31.3431 12.9289C30.9526 12.5384 30.3195 12.5384 29.9289 12.9289C29.5384 13.3195 29.5384 13.9526 29.9289 14.3431L35.5858 20L29.9289 25.6569C29.5384 26.0474 29.5384 26.6805 29.9289 27.0711C30.3195 27.4616 30.9526 27.4616 31.3431 27.0711L37.7071 20.7071ZM3 19C2.44772 19 2 19.4477 2 20C2 20.5523 2.44772 21 3 21L3 19ZM37 19L3 19L3 21L37 21L37 19Z" fill="#002A73"/>
</svg>
