<svg width="363" height="226" viewBox="0 0 363 226" fill="none" xmlns="http://www.w3.org/2000/svg">
<g clip-path="url(#clip0_2552_579)">
<path d="M363 79.3311L42.9586 125.293L1.86991e-06 168.552L363 79.3311Z" fill="#407BFF"/>
<path opacity="0.6" d="M363 79.3311L42.9586 125.293L1.86991e-06 168.552L363 79.3311Z" fill="white"/>
<path d="M363 79.3311L42.9586 125.293L57.8116 187.841L363 79.3311Z" fill="#407BFF"/>
<path opacity="0.2" d="M363 79.3311L42.9586 125.293L57.8116 187.841L363 79.3311Z" fill="black"/>
<path d="M64.3841 6.92062L45.7968 93.8157C44.786 98.5226 47.8184 103.187 52.5354 104.196L218.305 139.498C223.022 140.506 227.697 137.48 228.708 132.773L247.295 45.8784C247.814 43.4129 247.239 40.9614 245.891 39.0422C244.656 37.2912 242.789 35.9884 240.542 35.4981L74.7868 0.196511C72.5406 -0.27978 70.2944 0.154485 68.4554 1.24715C66.4478 2.45189 64.9036 4.46912 64.3841 6.92062V6.92062Z" fill="#407BFF"/>
<path opacity="0.4" d="M64.3841 6.92062L45.7968 93.8157C44.786 98.5226 47.8184 103.187 52.5354 104.196L218.305 139.498C223.022 140.506 227.697 137.48 228.708 132.773L247.295 45.8784C247.814 43.4129 247.239 40.9614 245.891 39.0422C244.656 37.2912 242.789 35.9884 240.542 35.4981L74.7868 0.196511C72.5406 -0.27978 70.2944 0.154485 68.4554 1.24715C66.4478 2.45189 64.9036 4.46912 64.3841 6.92062V6.92062Z" fill="black"/>
<path d="M68.4564 1.24715L123.853 69.0906C134.439 82.0485 152.619 85.9289 167.584 78.4063L245.906 39.0282C244.671 37.2772 242.804 35.9744 240.557 35.4841L74.7879 0.196511C72.5417 -0.27978 70.2955 0.154485 68.4564 1.24715Z" fill="#407BFF"/>
<path d="M363 79.3311L99.0294 141.921L57.8116 187.841L363 79.3311Z" fill="#407BFF"/>
<path opacity="0.6" d="M363 79.3311L99.0294 141.921L57.8116 187.841L363 79.3311Z" fill="white"/>
<path d="M266.704 139.66L267.414 140.869L238.039 158.039L237.329 156.83L266.704 139.66Z" fill="#407BFF"/>
<path d="M224.369 164.426L225.078 165.635L214.515 171.809L213.806 170.6L224.369 164.426Z" fill="#407BFF"/>
<path d="M363 79.3311L99.0294 141.921L150.341 203.643L363 79.3311Z" fill="#407BFF"/>
<path d="M9.92921 226C10.2661 226 10.6171 225.93 10.9681 225.804L53.9688 208.811C55.4148 208.237 56.1167 206.612 55.5411 205.169C54.9655 203.726 53.3511 203.026 51.891 203.6L8.89033 220.592C7.44434 221.167 6.74241 222.792 7.318 224.235C7.7532 225.341 8.8061 226 9.92921 226V226Z" fill="#407BFF"/>
<path opacity="0.3" d="M9.92921 226C10.2661 226 10.6171 225.93 10.9681 225.804L53.9688 208.811C55.4148 208.237 56.1167 206.612 55.5411 205.169C54.9655 203.726 53.3511 203.026 51.891 203.6L8.89033 220.592C7.44434 221.167 6.74241 222.792 7.318 224.235C7.7532 225.341 8.8061 226 9.92921 226V226Z" fill="black"/>
<path d="M12.4533 201.387C12.7903 201.387 13.1412 201.317 13.4922 201.191L36.586 192.071C38.032 191.497 38.7339 189.872 38.1583 188.429C37.5827 186.986 35.9682 186.285 34.5082 186.86L11.4145 195.979C9.96848 196.554 9.26655 198.179 9.84214 199.622C10.2773 200.728 11.3302 201.387 12.4533 201.387V201.387Z" fill="#407BFF"/>
<path opacity="0.5" d="M12.4533 201.387C12.7903 201.387 13.1412 201.317 13.4922 201.191L36.586 192.071C38.032 191.497 38.7339 189.872 38.1583 188.429C37.5827 186.986 35.9682 186.285 34.5082 186.86L11.4145 195.979C9.96848 196.554 9.26655 198.179 9.84214 199.622C10.2773 200.728 11.3302 201.387 12.4533 201.387V201.387Z" fill="white"/>
<path d="M60.7462 225.566C61.0831 225.566 61.4341 225.496 61.785 225.37L103.719 208.798C105.165 208.223 105.867 206.598 105.291 205.155C104.716 203.712 103.087 203.012 101.641 203.586L59.7073 220.159C58.2613 220.733 57.5594 222.358 58.135 223.801C58.5702 224.907 59.6231 225.566 60.7462 225.566V225.566Z" fill="#407BFF"/>
<path opacity="0.3" d="M60.7462 225.566C61.0831 225.566 61.4341 225.496 61.785 225.37L103.719 208.798C105.165 208.223 105.867 206.598 105.291 205.155C104.716 203.712 103.087 203.012 101.641 203.586L59.7073 220.159C58.2613 220.733 57.5594 222.358 58.135 223.801C58.5702 224.907 59.6231 225.566 60.7462 225.566V225.566Z" fill="black"/>
</g>
<defs>
<clipPath id="clip0_2552_579">
<rect width="363" height="226" fill="white" transform="matrix(-1 0 0 1 363 0)"/>
</clipPath>
</defs>
</svg>
