<svg width="512" height="512" viewBox="0 0 512 512" fill="none" xmlns="http://www.w3.org/2000/svg">
<path fill-rule="evenodd" clip-rule="evenodd" d="M472.216 11.3361C480.286 -2.29081 500.075 8.55073 496.727 20.5064L458.823 104.282C453.243 90.098 440.966 79.5136 425.941 76.1711L472.216 11.3361Z" fill="#002A73"/>
<path fill-rule="evenodd" clip-rule="evenodd" d="M406.657 236.181L405.541 235.367L377.381 294.374L459.07 370.907C466.024 379.263 465.466 392.89 456.28 403.732L385.151 474.738C375.793 484.079 360.082 475.595 362.571 462.653C367.508 437.156 378.841 429.829 405.541 392.59L343.383 359.766L208.079 501.006C194.944 514.718 172.493 501.263 178.074 483.179C186.23 456.74 202.928 454.94 232.161 404.332C276.461 326.984 290.713 242.651 314.408 197.314C328.359 170.617 367.379 134.707 397.771 160.847L417.002 179.488V180.302L413.954 189.215C411.465 192.815 420.093 194.786 418.676 198.942C416.745 203.099 415.328 206.442 413.954 210.641C409.791 217.583 407 228.167 406.7 236.224L406.657 236.181Z" fill="#002A73"/>
<path fill-rule="evenodd" clip-rule="evenodd" d="M152.174 475.466C280.095 389.505 261.723 171.903 359.552 139.635C235.538 96.1835 190.636 345.496 0 292.103C46.8328 357.195 165.868 416.202 152.174 475.466V475.466Z" fill="#E21B1A"/>
<path fill-rule="evenodd" clip-rule="evenodd" d="M409.491 172.459C434.56 172.459 454.907 152.148 454.907 127.122C454.907 102.097 434.56 82.0419 409.491 82.0419C384.422 82.0419 364.332 102.354 364.332 127.122C364.332 151.891 384.679 172.459 409.491 172.459Z" fill="#002A73"/>
<path fill-rule="evenodd" clip-rule="evenodd" d="M416.974 179.401L394.395 233.395V266.219C394.652 276.804 395.511 297.93 410.835 297.373C433.672 294.587 475.483 289.316 498.362 286.788C519.826 280.103 512.872 260.349 498.62 259.234C479.947 257.306 442.601 259.791 423.627 257.863C423.627 242.565 431.698 193.028 416.931 179.401H416.974Z" fill="#002A73"/>
</svg>
