<?xml version="1.0" encoding="UTF-8"?>
<svg xmlns="http://www.w3.org/2000/svg" width="60" height="51" viewBox="0 0 60 51" fill="none">
  <path d="M57.6711 24.68C60.7311 26.4463 60.7424 29.3075 57.7086 31.055L38.0174 42.5C34.9799 44.2663 30.0486 44.2663 26.9886 42.5L7.16987 31.07C4.11737 29.3075 4.10238 26.45 7.13988 24.695L26.8311 13.25C29.8611 11.4875 34.7999 11.4838 37.8524 13.25L57.6711 24.68Z" fill="#D8E5E1"></path>
  <path d="M53.3405 24.68C56.3968 26.4463 56.408 29.3075 53.3743 31.055L33.6868 42.5C30.6493 44.2663 25.7143 44.2663 22.658 42.5L2.83926 31.07C-0.213245 29.3075 -0.231995 26.45 2.80926 24.695L22.5005 13.25C25.5343 11.4875 30.473 11.4838 33.5255 13.25L53.3405 24.68Z" fill="#BDC0FA"></path>
  <path d="M53.3717 25.4752L33.6842 36.9165L33.6055 41.829L53.2967 30.384C54.7967 29.5102 55.5467 28.3627 55.5467 27.2115L55.6255 22.3027C55.6367 23.4502 54.8792 24.5977 53.3717 25.4752Z" fill="#DDDFFC"></path>
  <path d="M2.83844 25.475C1.30094 24.5862 0.535938 23.4237 0.539688 22.2612L0.460938 27.1737C0.460938 28.3362 1.21094 29.4987 2.75969 30.3837L22.5784 41.8287L22.6572 36.9162L2.83844 25.475Z" fill="#DDDFFC"></path>
  <path d="M53.3405 19.085C56.3968 20.8513 56.408 23.7125 53.3743 25.46L33.6868 36.9013C30.6493 38.6675 25.7143 38.6675 22.658 36.9013L2.83926 25.475C-0.213245 23.7125 -0.231995 20.855 2.80926 19.1L22.5005 7.6475C25.5343 5.885 30.473 5.88125 33.5255 7.6475L53.3405 19.085Z" fill="white"></path>
  <path d="M28.0086 7.65519C29.6939 7.61492 31.362 8.00195 32.8573 8.78019L52.6761 20.2214C53.7148 20.8214 54.3111 21.5677 54.3111 22.2727C54.3111 22.9777 53.7298 23.7089 52.7098 24.3014L32.9998 35.7502C31.5099 36.5342 29.8456 36.9277 28.1623 36.8939C26.4794 36.9249 24.8157 36.5316 23.3248 35.7502L3.50234 24.3202C2.46734 23.7202 1.87109 22.9739 1.87109 22.2727C1.87109 21.5714 2.45609 20.8364 3.47609 20.2402L23.1673 8.79894C24.6597 8.01977 26.3256 7.63265 28.0086 7.67394" stroke="#BDC0FA" stroke-miterlimit="10"></path>
  <path d="M33.6856 36.916L33.6069 41.8285C30.5694 43.591 25.6381 43.591 22.5781 41.8285L22.6569 36.916C25.7131 38.6823 30.6481 38.6823 33.6856 36.916Z" fill="#F5F5F5"></path>
  <path d="M41.3703 29.9262L39.9566 23.4424L36.6791 25.3474L31.3353 22.2612L36.6453 19.1749L39.9416 21.0799L41.2878 14.5962L30.0978 15.3949L33.3978 17.2999L28.0878 20.3862L22.7441 17.2999L26.0178 15.3949L14.8203 14.5962L16.2378 21.0799L19.5116 19.1787L24.8553 22.2612L19.5453 25.3474L16.2491 23.4462L14.9103 29.9262L26.0928 29.1274L22.7966 27.2224L28.1066 24.1399L33.4503 27.2224L30.1766 29.1274L41.3703 29.9262Z" fill="#DDDFFC"></path>
  <path d="M33.3934 8.86252L33.3822 13.1188L30.0859 11.2175L30.0972 6.95752L33.3934 8.86252Z" fill="#7B80E5"></path>
  <path d="M26.0155 6.95752L26.0042 11.2175L22.7305 13.1188L22.7417 8.86252L26.0155 6.95752Z" fill="#5257D4"></path>
  <path d="M39.9403 12.6423L39.9291 16.8986L36.6328 14.9973L36.6441 10.7373L39.9403 12.6423Z" fill="#7B80E5"></path>
  <path d="M41.2872 6.15869L41.2722 10.4187L39.9297 16.8987L39.9409 12.6424L41.2872 6.15869Z" fill="#5257D4"></path>
  <path d="M16.2373 12.6424L16.2261 16.8987L14.8086 10.4187L14.8198 6.15869L16.2373 12.6424Z" fill="#7B80E5"></path>
  <path d="M19.5116 10.7412L19.5003 14.9975L16.2266 16.8987L16.2378 12.6425L19.5116 10.7412Z" fill="#5257D4"></path>
  <path d="M31.3369 13.8237L31.3256 18.08L28.0781 16.205L28.0894 11.9487L31.3369 13.8237Z" fill="#DDDFFC"></path>
  <path d="M36.6455 10.7373L36.6342 14.9973L31.3242 18.0798L31.3355 13.8236L36.6455 10.7373Z" fill="#5257D4"></path>
  <path d="M24.855 13.8237L24.8438 18.0837L19.5 14.9975L19.5112 10.7412L24.855 13.8237Z" fill="#7B80E5"></path>
  <path d="M28.1062 15.7025L28.095 19.9587L24.8438 18.0837L24.855 13.8237L28.1062 15.7025Z" fill="#DDDFFC"></path>
  <path d="M33.4487 18.7851L33.4375 23.0451L28.0938 19.9589L28.105 15.7026L33.4487 18.7851Z" fill="#7B80E5"></path>
  <path d="M28.1064 15.7026L28.0952 19.9589L22.7852 23.0451L22.7964 18.7851L28.1064 15.7026Z" fill="#5257D4"></path>
  <path d="M41.3691 21.4885L41.3578 25.7448L30.1641 24.946L30.1753 20.686L41.3691 21.4885Z" fill="#5257D4"></path>
  <path d="M41.3703 21.4887L39.9566 15.0049L36.6791 16.9099L31.3353 13.8237L36.6453 10.7374L39.9416 12.6424L41.2878 6.15869L30.0978 6.95744L33.3978 8.86244L28.0878 11.9449L22.7441 8.86244L26.0178 6.95744L14.8203 6.15869L16.2378 12.6424L19.5116 10.7412L24.8553 13.8237L19.5453 16.9099L16.2491 15.0049L14.9103 21.4887L26.0928 20.6899L22.7966 18.7849L28.1066 15.7024L33.4503 18.7849L30.1766 20.6862L41.3703 21.4887Z" fill="#989DF2"></path>
  <path d="M26.0922 20.6899L26.0809 24.9462L14.8984 25.7449L14.9097 21.4887L26.0922 20.6899Z" fill="#5257D4"></path>
</svg>
