<?xml version="1.0" encoding="UTF-8"?>
<svg xmlns="http://www.w3.org/2000/svg" width="60" height="51" viewBox="0 0 60 51" fill="none">
  <g clip-path="url(#clip0_716_9180)">
    <path d="M57.3024 27.8682C60.599 29.7733 60.6112 32.8596 57.3388 34.7446L36.1028 47.0897C32.8264 48.9949 27.5033 48.9949 24.2067 47.0897L2.83318 34.7608C-0.459403 32.8596 -0.479628 29.7774 2.79678 27.8843L24.0327 15.5392C27.3051 13.6381 32.6323 13.634 35.9249 15.5392L57.3024 27.8682Z" fill="#BDC0FA"></path>
    <path d="M57.3365 28.7257L36.1006 41.0669L36.0156 46.3657L57.2556 34.0206C58.8736 33.0781 59.6826 31.8403 59.6826 30.5985L59.7675 25.3037C59.7797 26.5415 58.9626 27.7792 57.3365 28.7257Z" fill="#DDDFFC"></path>
    <path d="M2.83012 28.7258C1.17169 27.7671 0.346524 26.5132 0.346524 25.2593L0.265625 30.5582C0.265625 31.8121 1.07461 33.066 2.74518 34.0206L24.1227 46.3658L24.2076 41.0669L2.83012 28.7258Z" fill="#DDDFFC"></path>
    <path d="M57.3024 21.8333C60.599 23.7385 60.6112 26.8247 57.3388 28.7097L36.1028 41.0508C32.8264 42.956 27.5033 42.956 24.2067 41.0508L2.83318 28.7259C-0.459403 26.8247 -0.479628 23.7425 2.79678 21.8495L24.0327 9.49621C27.3051 7.59508 32.6323 7.59104 35.9249 9.49621L57.3024 21.8333Z" fill="white"></path>
    <path d="M29.9744 9.50405C31.7922 9.46061 33.5915 9.87808 35.2045 10.7175L56.582 23.0587C57.7025 23.7058 58.3456 24.5108 58.3456 25.2712C58.3456 26.0317 57.7186 26.8205 56.6184 27.4596L35.3784 39.8088C33.7711 40.6539 31.976 41.0783 30.1604 41.0425C28.3312 41.0808 26.5221 40.6549 24.902 39.8047L3.54471 27.4798C2.4283 26.8326 1.78516 26.0276 1.78516 25.2712C1.78516 24.5148 2.41617 23.722 3.51639 23.0789L24.7564 10.7378C26.3647 9.8973 28.1603 9.47971 29.9744 9.52427" stroke="#BDC0FA" stroke-miterlimit="10"></path>
    <path d="M36.1022 41.0669L36.0173 46.3658C32.7409 48.2669 27.4218 48.2669 24.1211 46.3658L24.206 41.0669C27.5067 42.9721 32.8258 42.9721 36.1022 41.0669Z" fill="#F5F5F5"></path>
    <path d="M49.9523 25.7974C51.4448 26.6589 51.4529 28.0544 49.9523 28.916L38.0237 35.8612C37.1895 36.287 36.2663 36.5089 35.3298 36.5089C34.3932 36.5089 33.47 36.287 32.6358 35.8612L11.0116 23.3825C9.519 22.521 9.51495 21.1255 11.0116 20.2639L22.9523 13.3147C23.786 12.8899 24.7084 12.6685 25.6442 12.6685C26.5799 12.6685 27.5023 12.8899 28.3361 13.3147L49.9523 25.7974Z" fill="#DDDFFC"></path>
    <path d="M9.88672 12.522V16.8096C9.88672 17.3759 10.2629 17.9462 11.0112 18.379L32.6274 30.8577V26.5741L11.0112 14.0914C10.2629 13.6586 9.88672 13.1125 9.88672 12.522Z" fill="#1F96A1"></path>
    <path d="M49.9682 19.6249L38.0234 26.5701V30.8577L49.956 23.9125C50.6962 23.4838 51.0643 22.9215 51.0643 22.3633V18.0757C51.0765 18.6379 50.7084 19.18 49.9682 19.6249Z" fill="#1F96A1"></path>
    <path d="M49.9523 16.5059C51.4448 17.3674 51.4529 18.7629 49.9523 19.6245L38.0237 26.5697C37.1893 26.9945 36.2662 27.2159 35.3298 27.2159C34.3934 27.2159 33.4703 26.9945 32.6358 26.5697L11.0116 14.091C9.519 13.2295 9.51495 11.834 11.0116 10.9724L22.9523 4.02317C23.786 3.59839 24.7084 3.37695 25.6442 3.37695C26.5799 3.37695 27.5023 3.59839 28.3361 4.02317L49.9523 16.5059Z" fill="#2DC0BF"></path>
    <path d="M35.319 26.8127C34.4517 26.8315 33.594 26.6282 32.8274 26.2222L11.2112 13.7435C10.6206 13.3997 10.293 12.9669 10.293 12.53C10.293 12.0932 10.6125 11.6604 11.199 11.3165L23.1518 4.37542C23.9243 3.98698 24.7769 3.78467 25.6415 3.78467C26.5061 3.78467 27.3587 3.98698 28.1312 4.37542L49.7514 16.8541C50.346 17.1979 50.6736 17.6307 50.6736 18.0676C50.6736 18.5044 50.3541 18.9332 49.7676 19.281L37.8148 26.2303C37.0466 26.6352 36.1871 26.8358 35.319 26.8127Z" fill="#2DC0BF"></path>
    <path d="M25.6413 4.18899C26.4377 4.17159 27.2254 4.3567 27.9307 4.72697L49.5469 17.2056C49.9959 17.4645 50.2669 17.7881 50.2669 18.0712C50.2669 18.3544 50.0121 18.6658 49.5631 18.9247L37.6183 25.8699C36.9132 26.2405 36.1253 26.4256 35.3289 26.4079C34.5331 26.4244 33.7459 26.2408 33.0395 25.8739L11.4152 13.3912C10.9662 13.1324 10.6992 12.8088 10.6952 12.5256C10.6912 12.2425 10.9541 11.931 11.4031 11.6721L23.3559 4.72292C24.0605 4.35506 24.8466 4.17138 25.6413 4.18899ZM25.6413 3.38C24.7044 3.36128 23.7784 3.58269 22.9514 4.02315L10.9986 10.9724C9.51408 11.8339 9.51812 13.2294 10.9986 14.091L32.6148 26.5737C33.4438 27.0128 34.3707 27.2341 35.3087 27.2169C36.2474 27.2367 37.1753 27.0137 38.0026 26.5697L49.9676 19.6245C51.4521 18.7629 51.444 17.3674 49.9676 16.5058L28.3352 4.02315C27.5064 3.58353 26.5793 3.3622 25.6413 3.38Z" fill="#4DD6D3"></path>
    <path d="M38.0207 26.5698V30.8575C37.1865 31.2832 36.2633 31.5052 35.3267 31.5052C34.3902 31.5052 33.467 31.2832 32.6328 30.8575V26.5739C33.4676 26.9981 34.3909 27.2188 35.3272 27.2181C36.2636 27.2174 37.1865 26.9953 38.0207 26.5698Z" fill="#2DC0BF"></path>
    <path d="M20.5742 15.7659L30.901 9.76318" stroke="#1F96A1" stroke-width="2" stroke-miterlimit="10" stroke-linecap="round"></path>
    <path d="M24.9141 18.4558L35.2448 12.4531" stroke="#1F96A1" stroke-width="2" stroke-miterlimit="10" stroke-linecap="round"></path>
    <path d="M29.2578 20.8342L39.5846 14.8315" stroke="#1F96A1" stroke-width="2" stroke-miterlimit="10" stroke-linecap="round"></path>
    <path d="M26.6836 9.88037L30.2027 11.9109" stroke="#F1FAF9" stroke-width="2" stroke-miterlimit="10" stroke-linecap="round"></path>
    <path d="M25.6719 15.418L29.195 17.4526" stroke="#F1FAF9" stroke-width="2" stroke-miterlimit="10" stroke-linecap="round"></path>
    <path d="M35.6328 15.2925L39.156 17.3271" stroke="#F1FAF9" stroke-width="2" stroke-miterlimit="10" stroke-linecap="round"></path>
  </g>
  <defs>
    <clipPath id="clip0_716_9180">
      <rect width="60" height="45.8427" fill="white" transform="translate(0 3)"></rect>
    </clipPath>
  </defs>
</svg>
