<?xml version="1.0" encoding="UTF-8"?>
<svg xmlns="http://www.w3.org/2000/svg" width="60" height="51" viewBox="0 0 60 51" fill="none">
  <g clip-path="url(#clip0_716_9179)">
    <path d="M57.4524 26.18C60.5124 27.9463 60.5199 30.8075 57.4899 32.555L37.7986 44C34.7611 45.7663 29.8261 45.7663 26.7699 44L6.95113 32.57C3.89863 30.8075 3.88362 27.95 6.92112 26.195L26.6236 14.75C29.6536 12.9875 34.5924 12.9838 37.6449 14.75L57.4524 26.18Z" fill="#D8E5E1"></path>
    <path d="M53.1224 26.18C56.1786 27.9463 56.1899 30.8075 53.1561 32.555L33.4686 44C30.4311 45.7663 25.4961 45.7663 22.4399 44L2.62489 32.57C-0.427614 30.8075 -0.446364 27.95 2.59114 26.195L22.2786 14.75C25.3124 12.9875 30.2511 12.9838 33.3036 14.75L53.1224 26.18Z" fill="#BDC0FA"></path>
    <path d="M53.1569 26.9752L33.4694 38.4165L33.3906 43.329L53.0819 31.884C54.5819 31.0102 55.3319 29.8627 55.3319 28.7115L55.4106 23.8027C55.4219 24.9502 54.6644 26.0977 53.1569 26.9752Z" fill="#DDDFFC"></path>
    <path d="M2.62359 26.975C1.08609 26.0862 0.321094 24.9237 0.321094 23.7612L0.246094 28.6737C0.246094 29.8362 0.996094 30.9987 2.54484 31.8837L22.3636 43.3287L22.4423 38.4162L2.62359 26.975Z" fill="#DDDFFC"></path>
    <path d="M53.1224 20.585C56.1786 22.3513 56.1899 25.2125 53.1561 26.96L33.4686 38.4013C30.4311 40.1675 25.4961 40.1675 22.4399 38.4013L2.62489 26.975C-0.427614 25.2125 -0.446364 22.355 2.59114 20.6L22.2786 9.1475C25.3124 7.385 30.2511 7.38125 33.3036 9.1475L53.1224 20.585Z" fill="white"></path>
    <path d="M27.7861 9.15519C29.4714 9.11492 31.1395 9.50195 32.6348 10.2802L52.4536 21.7214C53.4923 22.3214 54.0886 23.0677 54.0886 23.7727C54.0886 24.4777 53.5073 25.2089 52.4873 25.8014L32.7961 37.2502C31.306 38.0337 29.6418 38.4272 27.9586 38.3939C26.2627 38.4294 24.5856 38.0347 23.0836 37.2464L3.28359 25.8202C2.24859 25.2202 1.65234 24.4739 1.65234 23.7727C1.65234 23.0714 2.23734 22.3364 3.25734 21.7402L22.9486 10.2989C24.4396 9.51977 26.1043 9.13263 27.7861 9.17394" stroke="#BDC0FA" stroke-miterlimit="10"></path>
    <path d="M33.4669 38.416L33.3881 43.3285C30.3506 45.091 25.4194 45.091 22.3594 43.3285L22.4381 38.416C25.4981 40.1823 30.4294 40.1823 33.4669 38.416Z" fill="#F5F5F5"></path>
    <path d="M38.2715 16.9998C38.2003 17.2361 36.8803 21.7173 44.4553 26.3111C43.8965 26.6861 33.2578 33.4698 16.2178 29.8173C9.84275 19.9548 21.5578 13.7711 22.1728 13.4448C27.0933 16.1325 32.6767 17.3655 38.2715 16.9998Z" fill="#DDDFFC"></path>
    <path d="M38.1292 14.1199V10.1486C38.1252 9.79799 38.1693 9.44847 38.2604 9.10986V13.0849C38.1691 13.4222 38.125 13.7705 38.1292 14.1199Z" fill="#F1FAF9"></path>
    <path d="M14.3165 20.1088V16.1338C14.3165 17.885 14.8452 19.8238 16.1915 21.9275V25.9025C14.8452 23.795 14.309 21.875 14.3165 20.1088Z" fill="#5257D5"></path>
    <path d="M38.2715 9.12498C38.2003 9.36123 36.8803 13.8462 44.4553 18.4362C43.8965 18.8112 33.2578 25.595 16.2178 21.9425C9.84275 12.08 21.5578 5.89623 22.1728 5.57373C27.094 8.25916 32.6771 9.49075 38.2715 9.12498Z" fill="#5257D5"></path>
    <path d="M22.1893 6.84127C26.5881 9.10667 31.4614 10.2967 36.4093 10.3138C36.6306 10.3138 36.8331 10.3138 37.0206 10.3138C37.0433 11.0599 37.1837 11.7978 37.4368 12.5C38.1868 14.5963 39.8068 16.55 42.2893 18.3313C39.6643 19.6325 34.0393 21.8713 26.0968 21.8713C23.0127 21.8613 19.9373 21.5422 16.9168 20.9188C15.5518 18.635 15.1393 16.4188 15.6943 14.2775C16.7143 10.3813 20.6968 7.71127 22.1893 6.83377M22.1893 5.55127C21.5743 5.87377 9.86682 12.0575 16.2343 21.92C19.4746 22.6263 22.7805 22.9883 26.0968 23C37.2943 23 44.0181 18.7025 44.4718 18.4175C36.8968 13.8275 38.2168 9.34252 38.2881 9.10627C38.1756 9.10627 37.5043 9.18502 36.4131 9.18502C31.4361 9.17077 26.5403 7.92361 22.1631 5.55502L22.1893 5.55127Z" fill="#989DF2"></path>
    <path d="M44.4562 18.4214V22.3964C43.8975 22.7714 33.2587 29.5551 16.2188 25.9026V21.9276C33.2587 25.5801 43.8975 18.7814 44.4562 18.4214Z" fill="#3C40B7"></path>
    <path d="M22.9564 14.8626L22.9527 16.6963L22.9414 14.3938L22.9452 12.5601L22.9564 14.8626Z" fill="white"></path>
    <path d="M32.8758 16.5797C32.9669 16.6196 33.0458 16.683 33.1044 16.7634C33.1631 16.8437 33.1993 16.9382 33.2095 17.0372C33.2095 17.4122 32.7108 17.6897 32.0845 17.6897H25.2145C24.9373 17.6968 24.6631 17.6309 24.4195 17.4984C24.3279 17.4577 24.2485 17.3937 24.1893 17.3128C24.13 17.2319 24.0931 17.1368 24.082 17.0372V14.7384C24.082 14.3634 24.577 14.0859 25.207 14.0859C25.4854 14.0791 25.7607 14.1451 26.0058 14.2772C26.0952 14.3212 26.1715 14.3881 26.2268 14.4711C26.2821 14.554 26.3145 14.6502 26.3208 14.7497V16.3997H32.0695C32.3495 16.3874 32.6276 16.4495 32.8758 16.5797Z" fill="#3C40B7"></path>
    <path d="M31.7508 14.4011C31.8424 14.4413 31.9217 14.5053 31.9803 14.5864C32.039 14.6674 32.075 14.7627 32.0845 14.8623C32.0845 15.2373 31.5858 15.5111 30.9595 15.5111H24.0895C23.8127 15.5147 23.5394 15.449 23.2945 15.3198C23.2033 15.2785 23.1243 15.2144 23.0652 15.1335C23.006 15.0527 22.9688 14.958 22.957 14.8586V12.5561C22.957 12.1811 23.452 11.9036 24.082 11.9036C24.3602 11.8987 24.635 11.9645 24.8808 12.0948C24.9715 12.1359 25.0498 12.2002 25.1077 12.2812C25.1656 12.3621 25.2012 12.457 25.2108 12.5561V14.2061H30.9595C31.2355 14.2029 31.5078 14.27 31.7508 14.4011Z" fill="white"></path>
    <path d="M30.9633 15.4997H24.0895C23.8127 15.5033 23.5394 15.4376 23.2945 15.3084C23.2033 15.2671 23.1243 15.203 23.0652 15.1221C23.006 15.0413 22.9688 14.9466 22.957 14.8472V16.6809C22.9681 16.7801 23.0046 16.8747 23.0631 16.9555C23.1216 17.0364 23.2 17.1007 23.2908 17.1422C23.5358 17.2709 23.809 17.3366 24.0858 17.3334H30.9633C31.582 17.3334 32.0883 17.0447 32.0883 16.6847V14.8622C32.0845 15.2222 31.5858 15.4997 30.9633 15.4997Z" fill="#D9DEE2"></path>
  </g>
  <defs>
    <clipPath id="clip0_716_9179">
      <rect width="60" height="40.625" fill="white" transform="translate(0 5)"></rect>
    </clipPath>
  </defs>
</svg>
