<?xml version="1.0" encoding="UTF-8"?>
<svg xmlns="http://www.w3.org/2000/svg" width="60" height="51" viewBox="0 0 60 51" fill="none">
  <path d="M57.4524 24.68C60.5124 26.4463 60.5199 29.3075 57.4899 31.055L37.7986 42.5C34.7611 44.2663 29.8261 44.2663 26.7699 42.5L6.95113 31.07C3.89863 29.3075 3.88362 26.45 6.92112 24.695L26.6236 13.25C29.6536 11.4875 34.5924 11.4838 37.6449 13.25L57.4524 24.68Z" fill="#D8E5E1"></path>
  <path d="M53.1224 24.68C56.1786 26.4463 56.1899 29.3075 53.1561 31.055L33.4686 42.5C30.4311 44.2663 25.4961 44.2663 22.4399 42.5L2.62489 31.07C-0.427614 29.3075 -0.446364 26.45 2.59114 24.695L22.2786 13.25C25.3124 11.4875 30.2511 11.4838 33.3036 13.25L53.1224 24.68Z" fill="#BDC0FA"></path>
  <path d="M53.1569 25.4752L33.4694 36.9165L33.3906 41.829L53.0819 30.384C54.5819 29.5102 55.3319 28.3627 55.3319 27.2115L55.4106 22.3027C55.4219 23.4502 54.6644 24.5977 53.1569 25.4752Z" fill="#DDDFFC"></path>
  <path d="M2.62359 25.475C1.08609 24.5862 0.321094 23.4237 0.321094 22.2612L0.246094 27.1737C0.246094 28.3362 0.996094 29.4987 2.54484 30.3837L22.3636 41.8287L22.4423 36.9162L2.62359 25.475Z" fill="#DDDFFC"></path>
  <path d="M53.1224 19.085C56.1786 20.8513 56.1899 23.7125 53.1561 25.46L33.4686 36.9013C30.4311 38.6675 25.4961 38.6675 22.4399 36.9013L2.62489 25.475C-0.427614 23.7125 -0.446364 20.855 2.59114 19.1L22.2786 7.6475C25.3124 5.885 30.2511 5.88125 33.3036 7.6475L53.1224 19.085Z" fill="white"></path>
  <path d="M27.7861 7.65519C29.4714 7.61492 31.1395 8.00195 32.6348 8.78019L52.4536 20.2214C53.4923 20.8214 54.0886 21.5677 54.0886 22.2727C54.0886 22.9777 53.5073 23.7089 52.4873 24.3014L32.7961 35.7502C31.306 36.5337 29.6418 36.9272 27.9586 36.8939C26.2627 36.9294 24.5856 36.5347 23.0836 35.7464L3.28359 24.3202C2.24859 23.7202 1.65234 22.9739 1.65234 22.2727C1.65234 21.5714 2.23734 20.8364 3.25734 20.2402L22.9486 8.79894C24.4396 8.01977 26.1043 7.63263 27.7861 7.67394" stroke="#BDC0FA" stroke-miterlimit="10"></path>
  <path d="M33.4669 36.916L33.3881 41.8285C30.3506 43.591 25.4194 43.591 22.3594 41.8285L22.4381 36.916C25.4981 38.6823 30.4294 38.6823 33.4669 36.916Z" fill="#F5F5F5"></path>
  <path d="M41.5216 20.3977C43.1941 21.3652 43.2016 22.9289 41.5441 23.8927L30.7741 30.1514C29.1128 31.1152 26.4166 31.1152 24.7441 30.1514L13.9028 23.8927C12.2341 22.9289 12.2266 21.3652 13.9028 20.4014L24.6541 14.1427C26.3153 13.1789 29.0153 13.1752 30.6841 14.1427L41.5216 20.3977Z" fill="#DDDFFC"></path>
  <path d="M41.5216 13.2727C43.1941 14.2402 43.2016 15.8039 41.5441 16.7677L30.7741 23.0264C29.1128 23.9902 26.4166 23.9902 24.7441 23.0264L13.9028 16.7677C12.2341 15.8039 12.2266 14.2402 13.9028 13.2764L24.6541 7.01768C26.3153 6.05393 29.0153 6.05018 30.6841 7.01768L41.5216 13.2727Z" fill="#2DC0BF"></path>
  <g opacity="0.4">
    <path d="M39.7086 13.5013C41.1636 14.3413 41.1673 15.6988 39.7086 16.5388L30.3336 21.9763C29.5206 22.3905 28.6211 22.6065 27.7086 22.6065C26.7961 22.6065 25.8966 22.3905 25.0836 21.9763L15.7123 16.5388C14.2611 15.6988 14.2536 14.3413 15.7123 13.5051L25.0873 8.06757C25.9001 7.65247 26.7997 7.43604 27.7123 7.43604C28.625 7.43604 29.5246 7.65247 30.3373 8.06757L39.7086 13.5013Z" stroke="white" stroke-miterlimit="10"></path>
  </g>
  <path d="M41.5456 16.7675L30.7756 23.0262L30.7344 25.7113L41.5006 19.4525C42.3256 18.9725 42.7381 18.3275 42.7419 17.7163L42.7831 15.0312C42.7831 15.6612 42.3781 16.2875 41.5456 16.7675Z" fill="#1F96A1"></path>
  <path d="M24.7478 23.0263L13.8991 16.7675C13.0591 16.2838 12.6391 15.6425 12.6428 15.0088L12.6016 17.6975C12.6016 18.3313 13.0178 18.9688 13.8578 19.4525L24.6953 25.7113L24.7478 23.0263Z" fill="#1F96A1"></path>
  <path d="M24.7481 23.0264L24.7031 25.7114C26.3756 26.6751 29.0756 26.6751 30.7369 25.7114L30.7781 23.0264C29.1094 23.9901 26.4131 23.9901 24.7481 23.0264Z" fill="#1F96A1"></path>
  <path d="M32.5434 15.3388L28.0547 12.6388L29.4647 11.8213L33.9534 14.5213L32.5434 15.3388Z" fill="#F1FAF9"></path>
  <path d="M28.0484 10.955C28.1647 10.981 28.2761 11.0253 28.3784 11.0862C28.4656 11.1343 28.5402 11.2024 28.5959 11.285C28.6398 11.3513 28.6596 11.4307 28.6522 11.51C28.6379 11.593 28.6016 11.6707 28.5472 11.735C28.4698 11.8209 28.3786 11.8932 28.2772 11.9487C28.1597 12.0167 28.0336 12.0684 27.9022 12.1025C27.7797 12.1352 27.6539 12.1541 27.5272 12.1587C27.4011 12.1636 27.2749 12.1509 27.1522 12.1212C27.0354 12.0969 26.9238 12.0525 26.8222 11.99C26.7342 11.9429 26.6594 11.8746 26.6047 11.7912C26.5608 11.7262 26.5409 11.648 26.5484 11.57C26.5627 11.4869 26.599 11.4093 26.6534 11.345C26.7293 11.259 26.8194 11.1867 26.9197 11.1312C27.0375 11.0639 27.1635 11.0122 27.2947 10.9775C27.539 10.908 27.7967 10.9002 28.0447 10.955H28.0484Z" fill="#F1FAF9"></path>
  <path d="M23.8059 13.25L32.0972 15.5863L30.5184 16.4938L29.0372 16.0212L27.0272 17.18L27.8034 18.0613L26.2509 18.98L22.4297 14.0563L23.8059 13.25ZM26.2509 16.3137L27.5559 15.5637L24.8072 14.6825L26.2509 16.3137Z" fill="#F1FAF9"></path>
  <path d="M16.0117 22.8577L17.913 21.7777V20.6152" stroke="#127075" stroke-width="2" stroke-miterlimit="10" stroke-linecap="round"></path>
  <path d="M17.9141 23.9411L19.8116 22.8611V21.6948" stroke="#127075" stroke-width="2" stroke-miterlimit="10" stroke-linecap="round"></path>
  <path d="M39.417 22.8165L37.5195 21.7777V20.6152" stroke="#127075" stroke-width="2" stroke-miterlimit="10" stroke-linecap="round"></path>
  <path d="M37.5184 23.8998L35.6172 22.8611V21.6948" stroke="#127075" stroke-width="2" stroke-miterlimit="10" stroke-linecap="round"></path>
</svg>
