<?xml version="1.0" encoding="UTF-8"?>
<svg xmlns="http://www.w3.org/2000/svg" width="201" height="92" viewBox="0 0 201 92" fill="none">
  <g clip-path="url(#clip0_251_253)">
    <path d="M2.29828 80.0378C3.97122 79.1442 5.84871 78.7046 7.74398 78.763C8.78516 78.7678 9.8213 78.9081 10.8264 79.1803C11.7988 79.4525 12.8377 79.3511 13.7393 78.896C14.4813 78.4695 14.724 77.8183 14.3255 77.2451C13.9926 76.7945 13.8085 76.251 13.7988 75.6905C13.7988 74.59 14.5408 73.5719 15.8553 72.8107C17.3674 72.0013 19.065 71.6029 20.7788 71.6551C21.4972 71.6635 22.2133 71.7387 22.9177 71.8798C24.1506 72.1673 25.4449 72.0199 26.5818 71.4625L26.9482 71.2515C27.8321 70.7425 28.2398 69.9767 27.8642 69.2705C27.6741 68.9314 27.5732 68.5495 27.5711 68.1607C27.5711 67.1794 28.2306 66.2668 29.4031 65.5835C30.753 64.8596 32.2694 64.5038 33.8 64.5517C34.2274 64.556 34.6541 64.5867 35.0778 64.6434C36.731 64.8695 38.4133 64.5644 39.8823 63.7722C41.1372 63.0476 41.5861 62.0296 41.3846 61.0207C41.3548 60.8914 41.3409 60.759 41.3433 60.6263C41.3433 59.7688 41.925 58.9617 42.9647 58.361C44.1546 57.7188 45.4928 57.4024 46.844 57.4438C47.073 57.4438 47.302 57.4438 47.5035 57.4759C49.3041 57.6253 51.1088 57.241 52.6927 56.3707L53.1828 56.0818C54.5248 55.3114 55.1293 54.2246 55.1248 53.1103C55.1248 52.3444 55.6286 51.6474 56.5308 51.1292C57.5704 50.5782 58.7353 50.308 59.9109 50.345C61.0823 50.331 62.2368 50.6251 63.259 51.198C64.1475 51.7299 64.633 52.4407 64.633 53.1882C64.633 53.9357 64.1337 54.6327 63.2315 55.1555C62.1996 55.705 61.0424 55.9753 59.8743 55.9397C57.9552 55.9122 56.1049 56.2469 54.7675 57.0219L54.2637 57.3108C52.8897 58.1041 52.0561 59.2139 52.2805 60.3466C52.3091 60.4746 52.3244 60.6052 52.3263 60.7364C52.3263 61.5985 51.7447 62.4056 50.705 63.0063C49.5143 63.6465 48.1766 63.9627 46.8257 63.9235C46.6058 63.9235 46.3677 63.9235 46.1661 63.8914C44.4532 63.7538 42.7219 63.9923 41.4945 64.7031C40.1892 65.4551 39.5159 66.5098 39.8777 67.5371C39.9676 67.7791 40.0126 68.0355 40.0105 68.2937C40.0105 69.2751 39.351 70.1876 38.1785 70.8663C36.8269 71.5902 35.3091 71.946 33.7771 71.8981C33.1479 71.8941 32.5206 71.8296 31.9038 71.7055C30.7518 71.4764 29.5561 71.653 28.5192 72.2054L28.1482 72.4209C27.1818 72.9758 26.9482 73.7966 27.365 74.5716C27.5897 74.9571 27.7083 75.3955 27.7085 75.8419C27.7085 76.9333 26.9757 77.9605 25.6566 78.7217C24.1424 79.5295 22.4434 79.9263 20.7285 79.8728C19.8482 79.8678 18.9717 79.7569 18.1178 79.5426C17.1647 79.2939 16.1534 79.4065 15.2782 79.859C14.4996 80.3176 14.2797 80.9504 14.7103 81.5236C15.1394 82.0514 15.3768 82.7095 15.3835 83.39C15.3835 84.6007 14.5683 85.7334 13.0935 86.5772C11.0587 87.6412 8.74977 88.0633 6.47072 87.7878C3.20055 87.4622 0.557853 85.8709 0.0586259 83.9357C-0.234498 82.4545 0.580753 81.0421 2.29828 80.0378Z" fill="url(#paint0_linear_251_253)"></path>
    <path d="M115.44 28.9755L115.421 36.5878L102.222 44.269L102.245 36.652L115.44 28.9755Z" fill="#1F96A1"></path>
    <path d="M101.603 36.2807C101.149 36.056 100.75 35.7342 100.433 35.338C100.116 34.9418 99.8907 34.4809 99.7715 33.9878C99.6112 33.0706 98.9012 32.1535 97.66 31.4152C94.8067 29.8331 90.3915 29.801 87.5839 31.2776C86.0084 32.1168 85.216 33.2541 85.2114 34.3913V42.0037C85.2114 40.8664 86.0038 39.7108 87.5839 38.8946C90.3732 37.4133 94.7883 37.45 97.66 39.0321C98.9058 39.7475 99.6111 40.6601 99.776 41.6001C99.8922 42.0974 100.117 42.5629 100.433 42.9632C100.75 43.3636 101.151 43.6889 101.608 43.916L102.249 44.2874L102.272 36.6705L101.603 36.2807Z" fill="#1F96A1"></path>
    <path d="M64.3078 36.7621L64.2849 44.379L50.8103 36.5878L50.8332 28.9755L64.3078 36.7621Z" fill="#BEF1EE"></path>
    <path d="M69.7673 39.9171L69.4329 40.1143C68.2787 40.7838 67.6467 41.6872 67.5185 42.6319C67.3902 43.5995 66.6986 44.5396 65.4254 45.2779C65.4254 45.3008 65.4254 45.4292 65.4254 45.2779C62.6544 46.8921 58.1843 46.9287 55.3126 45.3925L55.1065 45.2779L54.8637 45.1311C53.6042 44.3286 52.9722 43.2968 52.9722 42.265V49.882C52.9722 50.9092 53.5996 51.941 54.8592 52.7435L55.1019 52.8902L55.308 53.0049C58.1797 54.5457 62.6361 54.509 65.4254 52.8948C66.694 52.1565 67.3902 51.2118 67.5185 50.2443C67.6467 49.2767 68.2742 48.4099 69.4283 47.7267L69.7627 47.5341L69.7673 39.9171Z" fill="#BEF1EE"></path>
    <path d="M96.8216 39.807L96.7986 47.424L83.2188 55.3206L83.2417 47.7083L96.8216 39.807Z" fill="#1F96A1"></path>
    <path d="M115.426 28.9708L102.231 36.652L101.59 36.2805C101.136 36.0558 100.736 35.7341 100.42 35.3379C100.103 34.9417 99.8772 34.4808 99.758 33.9876C99.5977 33.0705 98.8878 32.1533 97.6466 31.415C94.7932 29.8329 90.378 29.8008 87.5705 31.2775C84.4835 32.9146 84.4102 35.7027 87.3506 37.3995C88.8201 38.1908 90.4592 38.614 92.1276 38.633C93.7117 38.6367 95.2716 39.022 96.6756 39.7565L96.7993 39.8253L83.224 47.7266L69.7494 39.9308L69.4151 40.128C68.2609 40.7975 67.6289 41.7009 67.5006 42.6456C67.3724 43.5902 66.6808 44.5532 65.4075 45.2915C62.6366 46.9057 58.1664 46.9424 55.2947 45.4062L55.0886 45.2915L54.8459 45.1448C52.3727 43.5719 52.3177 41.1139 54.7314 39.5181C54.8321 39.4493 54.9421 39.3805 55.052 39.3163C56.4906 38.5345 58.0962 38.1114 59.7328 38.0827C61.2557 38.0448 62.7469 37.6389 64.0793 36.8996L64.29 36.7758L50.8154 28.98L77.2836 13.5764C80.4485 11.7421 85.5965 11.7421 88.7796 13.5764L115.426 28.9708Z" fill="#3FE0D0"></path>
    <path d="M83.2418 47.7083L83.2189 55.3207L69.7444 47.5341L69.7673 39.9171L83.2418 47.7083Z" fill="#BEF1EE"></path>
    <path d="M113.356 53.2617L113.333 60.8787C113.333 61.9517 112.623 63.0294 111.212 63.8502C109.81 64.6096 108.249 65.0274 106.655 65.0701C105.142 65.0976 103.656 65.4809 102.318 66.189L102.341 58.5766C103.679 57.8685 105.164 57.4853 106.678 57.4577C108.28 57.4166 109.849 56.997 111.258 56.2333C112.646 55.4124 113.351 54.3394 113.356 53.2617Z" fill="#1F96A1"></path>
    <path d="M79.3625 58.3061L79.1564 58.1777C78.9503 58.0539 78.8679 58.008 78.7809 57.9622C77.3977 57.2769 75.8811 56.9043 74.3382 56.8707C72.8112 56.8314 71.3159 56.4256 69.978 55.6876L69.9551 63.3C71.2937 64.037 72.7883 64.4441 74.3153 64.4877C75.8586 64.5183 77.3758 64.891 78.758 65.5791C78.8866 65.643 79.012 65.7134 79.1335 65.7901L79.3396 65.9185C80.5442 66.7118 81.1442 67.7207 81.1396 68.7249L81.1625 61.108C81.1671 60.1037 80.5671 59.0994 79.3625 58.3061Z" fill="#BEF1EE"></path>
    <path d="M111.203 50.2534C114.061 51.9043 114.075 54.5824 111.235 56.2149C109.826 56.9787 108.257 57.3982 106.655 57.4393C105.142 57.4669 103.656 57.8502 102.318 58.5582L102.066 58.7004L115.54 66.4962L89.0677 81.8998C85.9029 83.7341 80.764 83.7341 77.5809 81.8998L50.9341 66.4962L64.3216 58.7004L64.656 58.8976C65.8193 59.5671 66.488 60.4659 66.5979 61.4152C66.7078 62.3644 67.4406 63.3228 68.7185 64.0657C71.5719 65.712 76.1702 65.712 79.0145 64.0657L79.2847 63.9007C81.735 62.3277 81.7625 59.8698 79.3397 58.2739L79.1335 58.1455C78.9274 58.0217 78.845 57.9758 78.758 57.93C77.3748 57.2448 75.8582 56.8722 74.3153 56.8386C72.7883 56.7992 71.293 56.3935 69.9551 55.6554L69.7444 55.5316L83.132 47.7358L96.6065 55.5316L96.7347 55.4583C97.8981 54.7796 98.6629 53.8899 98.7637 52.9361C98.8736 51.8584 99.6797 50.8037 101.214 50.0241C103.962 48.6255 108.199 48.6484 110.919 50.0746L111.203 50.2534Z" fill="#3FE0D0"></path>
    <path d="M115.563 66.5099L115.54 74.1223L89.0676 89.5258L89.0905 81.9089L115.563 66.5099Z" fill="#1F96A1"></path>
    <path d="M77.6036 81.9135L77.5807 89.5258L50.9385 74.1223L50.9568 66.5099L77.6036 81.9135Z" fill="#2DC0BF"></path>
    <path d="M89.0903 81.9136L89.0674 89.5259C85.9071 91.3602 80.7637 91.3602 77.5806 89.5259V81.9136C80.7866 83.7525 85.9254 83.7525 89.0903 81.9136Z" fill="#3FE0D1"></path>
    <path d="M75.8039 13.6544C70.688 16.6122 66.5156 23.601 66.1858 29.5854L85.4816 18.4282C85.1198 12.8473 80.9199 10.7104 75.8039 13.6544Z" fill="#9499FA"></path>
    <path d="M73.01 12.0265C75.6985 10.4719 78.1305 10.3297 79.8801 11.3524L82.6739 12.9757C80.9198 11.9531 78.4832 12.0998 75.8038 13.6544C70.6879 16.6122 66.5155 23.6009 66.1857 29.5854L63.3918 27.9574C63.7216 21.973 67.8941 14.9843 73.01 12.0265Z" fill="#7177F8"></path>
    <path d="M72.9777 0.580464C74.1502 -0.0982287 75.2128 -0.162429 75.9822 0.286976L78.7761 1.91034C78.0066 1.45176 76.944 1.52972 75.7715 2.20841C73.4449 3.55204 71.5625 6.8171 71.567 9.49977C71.567 10.8296 72.025 11.7651 72.7991 12.21L70.0052 10.582C69.2495 10.1234 68.7778 9.20628 68.7732 7.87182C68.7686 5.2075 70.651 1.92868 72.9777 0.580464Z" fill="#E5AF9C"></path>
    <path d="M75.7716 2.2084C73.445 3.55203 71.5626 6.81709 71.5671 9.49976C71.5717 12.1824 73.4724 13.2601 75.7991 11.9119C78.1258 10.5637 80.0128 7.30318 80.0082 4.62051C80.0036 1.93784 78.1029 0.860182 75.7716 2.2084Z" fill="#FFC8A8"></path>
    <path d="M122.154 42.2649V35.7944C122.154 36.8858 122.873 37.9773 124.312 38.8073C125.784 39.607 127.428 40.0366 129.102 40.0592C130.686 40.065 132.246 40.4502 133.65 41.1827V47.6532C132.245 46.9223 130.686 46.5387 129.102 46.5343C127.435 46.5142 125.798 46.091 124.33 45.3007C122.873 44.4478 122.154 43.3564 122.154 42.2649Z" fill="#D9DEE2"></path>
    <path d="M133.774 41.2285L133.755 47.7036L133.632 47.6302L133.65 41.1597L133.774 41.2285Z" fill="white"></path>
    <path d="M148.242 51.606L147.986 51.4639C145.265 50.0331 141.028 50.0102 138.285 51.4134C136.755 52.193 135.94 53.2477 135.83 54.3208C135.729 55.2792 134.964 56.1551 133.801 56.843L133.673 56.9209V63.3915L133.801 63.3181C134.964 62.6394 135.729 61.7498 135.83 60.7959C135.94 59.7183 136.746 58.6681 138.285 57.8839C141.033 56.4853 145.265 56.5082 147.986 57.9344L148.242 58.0766C149.685 58.9112 150.404 60.0026 150.399 61.094V54.6189C150.404 53.5321 149.685 52.4406 148.242 51.606Z" fill="#D9DEE2"></path>
    <path d="M133.673 56.921L133.655 63.3915L120.18 55.6003L120.198 49.1298L133.673 56.921Z" fill="#D9DEE2"></path>
    <path d="M179.043 45.8005C182.249 47.6348 182.249 50.6201 179.08 52.4636L152.607 67.8672L139.133 60.0714L139.384 59.9246C140.724 59.2197 142.209 58.8381 143.722 58.8103C145.323 58.7669 146.892 58.3475 148.302 57.5859C151.141 55.935 151.128 53.2569 148.265 51.6244L148.009 51.4822C145.288 50.0515 141.052 50.0285 138.308 51.4318C136.778 52.2114 135.963 53.2661 135.853 54.3392C135.752 55.2976 134.988 56.1735 133.824 56.8613L133.696 56.9393L120.221 49.1435L133.797 41.2422L133.673 41.1734C132.268 40.441 130.709 40.0557 129.125 40.0499C127.459 40.0314 125.821 39.6098 124.353 38.8209C121.408 37.1196 121.481 34.3315 124.572 32.6944C127.362 31.2177 131.777 31.2544 134.52 32.7723C135.894 33.5565 136.581 34.469 136.742 35.4045C136.859 35.9012 137.084 36.366 137.401 36.7661C137.717 37.1663 138.118 37.492 138.574 37.7203L139.21 38.0872L152.41 30.4106L179.043 45.8005Z" fill="white"></path>
    <path d="M152.607 67.8673L152.589 74.3378L139.114 66.5466L139.133 60.076L152.607 67.8673Z" fill="#D9DEE2"></path>
    <path d="M179.089 52.4636L152.616 67.8672V74.3377L179.089 58.9341C180.66 58.017 181.448 56.8247 181.448 55.6278V49.1527C181.439 50.3542 180.651 51.5465 179.089 52.4636Z" fill="#CDD1D3"></path>
    <path d="M24.4109 51.065C22.8079 50.1479 22.0063 48.9235 22.0063 47.7083V55.3252C22.0063 56.5358 22.8033 57.7557 24.4063 58.682L51.0485 74.081V66.4686L24.4109 51.065Z" fill="#7177F8"></path>
    <path d="M83.251 47.722L69.8635 55.5178L70.0742 55.6371C71.4109 56.3747 72.9042 56.7819 74.4298 56.8248C75.9739 56.8563 77.4921 57.2273 78.8771 57.9116L79.1244 58.0492C79.3213 58.1684 79.39 58.2097 79.4542 58.2555C81.8816 59.8514 81.8541 62.3094 79.3992 63.8823L79.1336 64.0474C76.2893 65.6845 71.6864 65.6799 68.8376 64.0474C67.5597 63.3091 66.8544 62.3644 66.717 61.3968C66.5796 60.4292 65.9338 59.5625 64.7751 58.8792L64.4361 58.6866L51.0532 66.4824L24.4109 51.0651C21.2049 49.2308 21.2049 46.2408 24.3697 44.402L50.8471 28.9846L64.3262 36.7804L64.1155 36.9042C62.7829 37.643 61.2918 38.0488 59.769 38.0874C58.131 38.116 56.5239 38.5391 55.0836 39.3209C54.9737 39.3851 54.8684 39.4539 54.763 39.5227C52.3539 41.1185 52.4089 43.5765 54.8775 45.1494L55.1249 45.2962L55.3264 45.4108C58.1981 46.9471 62.6545 46.9104 65.4437 45.2962C66.7124 44.5579 67.4086 43.6132 67.5368 42.6502C67.6651 41.6872 68.2925 40.8159 69.4467 40.1326L69.7811 39.9354L83.251 47.722Z" fill="#9499FA"></path>
    <path d="M159.504 34.8638C164.62 37.8216 168.793 44.8103 169.122 50.7947L149.827 39.6421C150.188 34.0567 154.388 31.9059 159.504 34.8638Z" fill="#9499FA"></path>
    <path d="M162.298 33.2403C159.61 31.6858 157.178 31.5436 155.428 32.5662L152.634 34.1896C154.388 33.167 156.825 33.3137 159.504 34.8637C164.62 37.8215 168.793 44.8102 169.123 50.7946L171.916 49.1713C171.587 43.1869 167.414 36.1982 162.298 33.2403Z" fill="#7177F8"></path>
    <path d="M162.331 21.7941C161.158 21.1154 160.096 21.0512 159.326 21.4961L156.532 23.124C157.302 22.6654 158.364 22.7388 159.537 23.4175C161.863 24.7657 163.746 28.0308 163.741 30.7134C163.741 32.0433 163.283 32.9788 162.509 33.419L165.303 31.7957C166.063 31.3371 166.531 30.4199 166.535 29.0855C166.544 26.4028 164.657 23.1378 162.331 21.7941Z" fill="#E5AF9C"></path>
    <path d="M159.537 23.4176C161.863 24.7658 163.746 28.0308 163.741 30.7135C163.737 33.3962 161.836 34.4738 159.509 33.1256C157.182 31.7774 155.295 28.5123 155.3 25.8343C155.305 23.1562 157.205 22.0693 159.537 23.4176Z" fill="#FFC8A8"></path>
    <path d="M94.312 61.7914C89.1961 64.7492 85.0236 71.7379 84.6938 77.7223L103.976 66.5697C103.628 60.9843 99.4279 58.8335 94.312 61.7914Z" fill="white"></path>
    <path d="M91.5178 60.1633C94.2063 58.6087 96.6383 58.4666 98.3879 59.4892L101.182 61.1172C99.423 60.0945 96.991 60.2367 94.3116 61.7913C89.1957 64.7491 85.0233 71.7378 84.6935 77.7222L81.8997 76.0943C82.2294 70.1098 86.4019 63.1211 91.5178 60.1633Z" fill="#D9DEE2"></path>
    <path d="M91.4858 48.7172C92.6583 48.0385 93.7209 47.9789 94.4903 48.4237L97.2842 50.0471C96.5147 49.5885 95.4521 49.6664 94.2796 50.3451C91.9529 51.6888 90.0705 54.9309 90.0751 57.6365C90.0751 58.9664 90.5331 59.9065 91.3072 60.3467L88.5133 58.7187C87.753 58.2602 87.2859 57.343 87.2813 56.0131C87.2721 53.3305 89.1545 50.0654 91.4858 48.7172Z" fill="#E5AF9C"></path>
    <path d="M94.2797 50.3452C91.953 51.6888 90.0706 54.9309 90.0752 57.6365C90.0798 60.3421 91.9805 61.3969 94.3072 60.0532C96.6339 58.7096 98.5209 55.44 98.5117 52.7619C98.5025 50.0838 96.611 48.997 94.2797 50.3452Z" fill="#FFC8A8"></path>
    <path d="M44.7739 31.7269C39.658 34.6847 35.4855 41.6734 35.1558 47.6579L54.447 36.5053C54.0852 30.9198 49.8898 28.7691 44.7739 31.7269Z" fill="white"></path>
    <path d="M41.9756 30.099C44.6641 28.5444 47.1007 28.4023 48.8457 29.4249L51.6395 31.0528C49.8808 30.0302 47.4442 30.1724 44.7694 31.7269C39.6535 34.6847 35.481 41.6735 35.1513 47.6579L32.3574 46.0208C32.6918 40.0593 36.8596 33.0568 41.9756 30.099Z" fill="#D9DEE2"></path>
    <path d="M41.9434 18.653C43.1204 17.9743 44.183 17.9147 44.9479 18.3595L47.7417 19.9829C46.9769 19.5243 45.9097 19.6022 44.7418 20.2809C42.4105 21.6246 40.5281 24.8667 40.5373 27.5723C40.5373 28.9022 40.9953 29.8652 41.7647 30.2825L38.9709 28.6545C38.2152 28.196 37.7434 27.2788 37.7434 25.9489C37.7343 23.2663 39.6167 20.0012 41.9434 18.653Z" fill="#E5AF9C"></path>
    <path d="M44.7416 20.2808C42.4104 21.6245 40.528 24.8666 40.5371 27.5722C40.5463 30.2778 42.4379 31.3325 44.7691 29.9889C47.1004 28.6453 48.9828 25.3756 48.9736 22.6975C48.9645 20.0195 47.0729 18.9326 44.7416 20.2808Z" fill="#FFC8A8"></path>
    <path d="M145.073 84.2478C146.747 83.3561 148.624 82.9167 150.519 82.9729C151.56 82.98 152.596 83.1202 153.601 83.3903C154.573 83.6625 155.612 83.5611 156.514 83.1059C157.256 82.6795 157.499 82.0283 157.1 81.4551C156.766 81.0052 156.584 80.4609 156.578 79.9005C156.578 78.8045 157.315 77.7819 158.635 77.0206C160.145 76.2108 161.841 75.8123 163.554 75.865C164.272 75.8726 164.988 75.9494 165.692 76.0943C166.926 76.3784 168.219 76.2312 169.356 75.677L169.723 75.4661C170.607 74.9524 171.014 74.1866 170.639 73.4804C170.444 73.1432 170.343 72.7601 170.346 72.3707C170.346 71.3893 171.001 70.4767 172.178 69.7935C173.528 69.0716 175.044 68.7159 176.575 68.7617C177.002 68.766 177.429 68.7966 177.852 68.8534C179.507 69.0833 181.192 68.7781 182.662 67.9821C183.912 67.2575 184.361 66.2395 184.159 65.2306C184.131 65.0965 184.121 64.9593 184.127 64.8225C184.127 63.965 184.709 63.1579 185.749 62.5571C186.939 61.917 188.277 61.6007 189.628 61.64C189.857 61.64 190.086 61.64 190.287 61.6721C192.088 61.8243 193.894 61.4397 195.477 60.5669L195.971 60.2826C197.309 59.5076 197.913 58.4208 197.909 57.3064C197.909 56.5452 198.412 55.8482 199.315 55.3254C200.355 54.7764 201.519 54.5063 202.695 54.5412C203.866 54.5272 205.021 54.8213 206.043 55.3942C206.931 55.9261 207.417 56.6369 207.417 57.3844C207.417 58.1319 206.918 58.8289 206.015 59.3517C204.984 59.9038 203.827 60.1742 202.658 60.1358C200.739 60.1083 198.893 60.4431 197.551 61.2181L197.048 61.507C195.674 62.3003 194.84 63.4101 195.064 64.5473C195.093 64.6738 195.108 64.8029 195.11 64.9326C195.11 65.7947 194.529 66.6018 193.489 67.2025C192.3 67.8441 190.964 68.1605 189.614 68.1197C189.39 68.1197 189.156 68.1197 188.95 68.0876C187.237 67.95 185.506 68.1884 184.278 68.8992C182.973 69.6513 182.3 70.706 182.666 71.7378C182.752 71.9792 182.795 72.2337 182.794 72.4899C182.794 73.4712 182.135 74.3838 180.962 75.0671C179.61 75.788 178.092 76.1421 176.561 76.0943C175.932 76.09 175.305 76.0255 174.688 75.9017C173.536 75.6748 172.341 75.8513 171.303 76.4015L170.932 76.6171C169.97 77.172 169.732 77.9928 170.153 78.7724C170.375 79.1572 170.492 79.5937 170.492 80.0381C170.492 81.1295 169.76 82.1567 168.44 82.9179C166.931 83.7339 165.232 84.1358 163.517 84.0827C162.638 84.0779 161.763 83.967 160.911 83.7525C159.956 83.5039 158.943 83.6166 158.067 84.0689C157.288 84.5275 157.073 85.1604 157.499 85.7336C157.928 86.2614 158.165 86.9194 158.172 87.6C158.172 88.8106 157.361 89.9433 155.882 90.7871C153.847 91.8512 151.538 92.2733 149.259 91.9977C145.994 91.6767 143.346 90.0809 142.847 88.1503C142.522 86.6645 143.337 85.2521 145.073 84.2478Z" fill="url(#paint1_linear_251_253)"></path>
  </g>
  <defs>
    <linearGradient id="paint0_linear_251_253" x1="0.0448857" y1="69.0916" x2="64.6742" y2="69.0916" gradientUnits="userSpaceOnUse">
      <stop stop-color="#3FE0D0"></stop>
      <stop offset="0.19" stop-color="#6EE6DB" stop-opacity="0.74"></stop>
      <stop offset="0.4" stop-color="#9EECE6" stop-opacity="0.48"></stop>
      <stop offset="0.59" stop-color="#C3F1EF" stop-opacity="0.27"></stop>
      <stop offset="0.76" stop-color="#DEF5F6" stop-opacity="0.12"></stop>
      <stop offset="0.9" stop-color="#EFF7FA" stop-opacity="0.03"></stop>
      <stop offset="1" stop-color="#F5F8FB" stop-opacity="0"></stop>
    </linearGradient>
    <linearGradient id="paint1_linear_251_253" x1="142.801" y1="73.3016" x2="207.431" y2="73.3016" gradientUnits="userSpaceOnUse">
      <stop stop-color="#9499FA"></stop>
      <stop offset="0.03" stop-color="#989DFA" stop-opacity="0.95"></stop>
      <stop offset="0.24" stop-color="#B4B9FA" stop-opacity="0.67"></stop>
      <stop offset="0.44" stop-color="#CBCFFB" stop-opacity="0.43"></stop>
      <stop offset="0.62" stop-color="#DDE1FB" stop-opacity="0.24"></stop>
      <stop offset="0.78" stop-color="#EAEDFB" stop-opacity="0.11"></stop>
      <stop offset="0.91" stop-color="#F2F5FB" stop-opacity="0.03"></stop>
      <stop offset="1" stop-color="#F5F8FB" stop-opacity="0"></stop>
    </linearGradient>
    <clipPath id="clip0_251_253">
      <rect width="201" height="92" fill="white"></rect>
    </clipPath>
  </defs>
</svg>
