<?xml version="1.0" encoding="UTF-8"?>
<svg xmlns="http://www.w3.org/2000/svg" width="128" height="165" viewBox="0 0 128 165" fill="none">
  <path d="M67.2873 3.50334C53.1907 11.6379 41.7972 31.3744 41.8414 47.5931C41.8856 63.8117 53.3612 70.3295 67.4578 62.1886C81.5544 54.0477 92.9605 34.3049 92.9163 18.1052C92.8721 1.90547 81.4028 -4.64388 67.2873 3.50334Z" fill="white"></path>
  <mask id="mask0_694_1104" style="mask-type:luminance" maskUnits="userSpaceOnUse" x="41" y="0" width="52" height="66">
    <path d="M67.2873 3.50334C53.1907 11.6379 41.7972 31.3744 41.8414 47.5931C41.8856 63.8117 53.3612 70.3295 67.4578 62.1886C81.5544 54.0477 92.9605 34.3049 92.9163 18.1052C92.8721 1.90547 81.4028 -4.64388 67.2873 3.50334Z" fill="white"></path>
  </mask>
  <g mask="url(#mask0_694_1104)">
    <path d="M49.5844 72.3126L49.4959 49.8351C49.4872 47.5777 50.0971 45.361 51.2595 43.4259C52.422 41.4907 54.0924 39.911 56.0895 38.8585L71.3166 30.806C72.9585 29.9401 74.8413 29.6433 76.6699 29.9622C78.4986 30.2811 80.1698 31.1976 81.4217 32.5681C83.896 35.2801 85.2678 38.8188 85.2679 42.49V55.2603L49.5844 72.3126Z" fill="#9499FA"></path>
    <path d="M78.6555 15.2569C78.6555 15.2569 82.3502 32.6503 74.1082 34.2039V42.1427C74.1082 42.1427 64.7547 40.0964 63.1505 34.0081L61.5464 26.9283C61.5464 26.9283 56.5507 17.2211 66.6936 14.3664C76.8366 11.5117 78.6555 15.2569 78.6555 15.2569Z" fill="#FFC8A8"></path>
    <path d="M65.3103 16.0274L72.2576 16.741C73.9653 16.9178 75.6898 16.6548 77.2672 15.9772C78.8446 15.2996 80.2225 14.2298 81.27 12.8695C81.27 12.8695 75.0175 11.4296 71.367 8.6633C68.4555 6.45913 59.8599 8.33489 60.7441 12.7053C60.7441 12.7053 56.5947 13.5895 57.2578 17.96C57.921 22.3304 61.5714 26.9282 61.5714 26.9282C61.5714 26.9282 60.4093 21.781 62.4051 21.3389C64.4008 20.8968 64.5082 24.2125 64.5082 24.2125L66.1629 24.3262L65.3103 16.0274Z" fill="#364B55"></path>
    <path d="M69.4724 32.2271C70.0354 32.8977 70.7485 33.4262 71.5539 33.7697C72.3594 34.1131 73.2344 34.2619 74.1081 34.2039V36.7301C73.0344 36.3995 72.0545 35.8189 71.2486 35.0362C70.4428 34.2534 69.8341 33.2907 69.4724 32.2271Z" fill="#E5AF9C"></path>
  </g>
  <path d="M25.446 70.7906C11.3494 78.9252 -0.0440815 98.6617 0.000128225 114.88C0.0443379 131.099 11.5136 137.617 25.6102 129.476C39.7068 121.335 51.1192 101.592 51.0687 85.3924C51.0181 69.1927 39.5552 62.6244 25.446 70.7906Z" fill="white"></path>
  <mask id="mask1_694_1104" style="mask-type:luminance" maskUnits="userSpaceOnUse" x="0" y="67" width="52" height="66">
    <path d="M25.446 70.7906C11.3494 78.9252 -0.0440815 98.6617 0.000128225 114.88C0.0443379 131.099 11.5136 137.617 25.6102 129.476C39.7068 121.335 51.1192 101.592 51.0687 85.3924C51.0181 69.1927 39.5552 62.6244 25.446 70.7906Z" fill="white"></path>
  </mask>
  <g mask="url(#mask1_694_1104)">
    <path d="M15.524 110.384C15.524 110.384 11.8293 115.499 11.1535 124.19C10.8039 128.715 10.8356 133.261 11.2483 137.781L42.8772 120.729C42.8772 120.729 41.614 104.308 32.2479 104.415L15.524 110.384Z" fill="#6CECD4"></path>
    <path d="M36.6878 87.3945C36.6878 87.3945 38.5825 97.7901 35.8984 102.066C35.8984 102.066 34.0037 103.108 32.2479 102.558V110.497C32.2479 110.497 25.1428 109.866 22.5849 106.285L21.8965 98.4848C21.8965 98.4848 16.0292 94.8912 19.7555 91.4428C23.4817 87.9945 24.7259 93.4449 24.7259 93.4449C24.7259 93.4449 31.9068 88.5187 35.2478 82.9482C35.2478 82.9482 36.8457 85.9924 36.6878 87.3945Z" fill="#FFC8A8"></path>
    <path d="M23.5891 95.1185C23.5891 95.1185 34.8689 89.7376 35.1279 83.9272C36.0402 84.863 36.5927 86.091 36.6878 87.3945C36.6878 87.3945 39.2141 80.9778 33.2205 80.1946C33.2205 80.1946 22.6355 76.0326 16.7998 83.9272C10.9641 91.8218 15.4987 110.384 15.4987 110.384C15.4987 110.384 25.3007 112.461 26.7785 120.703L26.0838 109.43C26.0838 109.43 22.0923 104.655 22.8691 98.409C22.8691 98.409 17.564 96.5143 19.6608 92.687C21.5113 89.3902 23.5891 95.1185 23.5891 95.1185Z" fill="#1F96A1"></path>
    <path d="M32.2479 102.558C32.2479 102.558 29.5827 102.236 28.1301 100.74C28.4954 101.701 29.0473 102.582 29.754 103.33C30.4607 104.077 31.3082 104.678 32.2479 105.097V102.558Z" fill="#E5AF9C"></path>
  </g>
  <path d="M102.358 37.9427C88.2617 46.0836 76.8683 65.8138 76.9314 82.0324C76.9946 98.2511 88.4449 104.769 102.541 96.628C116.638 88.4871 128.044 68.7443 128 52.5446C127.956 36.3449 116.474 29.7829 102.358 37.9427Z" fill="white"></path>
  <mask id="mask2_694_1104" style="mask-type:luminance" maskUnits="userSpaceOnUse" x="76" y="34" width="52" height="67">
    <path d="M102.358 37.9427C88.2617 46.0836 76.8683 65.8138 76.9314 82.0324C76.9946 98.2511 88.4449 104.769 102.541 96.628C116.638 88.4871 128.044 68.7443 128 52.5446C127.956 36.3449 116.474 29.7829 102.358 37.9427Z" fill="white"></path>
  </mask>
  <g mask="url(#mask2_694_1104)">
    <path d="M93.7816 73.8536L91.2238 76.0325C89.5703 77.4431 88.2425 79.1957 87.332 81.1693C86.4215 83.1428 85.9501 85.2905 85.9502 87.4639V106.455L121.318 87.9186C121.318 87.9186 121.994 66.0348 104.417 68.8264C100.477 69.4915 96.7967 71.2311 93.7816 73.8536Z" fill="#1F96A1"></path>
    <path d="M112.331 51.8436C112.331 51.8436 116.72 70.3864 108.889 71.4664V78.3441C108.889 78.3441 99.5415 76.3673 97.0594 71.0432L97.4762 65.3591C97.4762 65.3591 93.7879 61.835 95.5815 60.4897C97.3752 59.1445 99.1057 61.9171 99.1057 61.9171C99.7901 59.8068 99.9611 57.5637 99.6046 55.374C99.6046 55.374 111.39 54.4962 112.331 51.8436Z" fill="#FFC8A8"></path>
    <path d="M99.8258 55.7845C99.8258 55.7845 105.87 57.3824 109.981 54.5214C109.981 54.5214 113.335 54.4393 113.676 51.0793C114.017 47.7194 109.887 47.4731 109.887 47.4731C109.887 47.4731 105.775 45.0415 103.003 46.8036C103.003 46.8036 97.3185 44.871 95.5375 49.5699C95.5375 49.5699 89.8534 51.332 91.5081 59.1381C93.1628 66.9443 97.1922 67.279 97.1922 67.279L97.4448 65.3464C97.4448 65.3464 94.1733 61.9865 95.6827 60.9823C97.1922 59.9781 98.708 62.8265 98.708 62.8265C98.708 62.8265 100.931 60.7297 99.8258 55.7845Z" fill="#364B55"></path>
    <path d="M108.889 71.4664C108.889 71.4664 106.04 71.3843 104.518 69.2749C104.518 69.2749 105.15 73.3485 108.889 73.8348V71.4664Z" fill="#E5AF9C"></path>
  </g>
  <path d="M61.1863 102.464C47.0834 110.605 35.6899 130.341 35.7404 146.553C35.7909 162.766 47.2539 169.29 61.3505 161.149C75.447 153.008 86.8595 133.265 86.809 117.072C86.7584 100.878 75.2955 94.3164 61.1863 102.464Z" fill="white"></path>
  <mask id="mask3_694_1104" style="mask-type:luminance" maskUnits="userSpaceOnUse" x="35" y="98" width="52" height="67">
    <path d="M61.1863 102.464C47.0834 110.605 35.6899 130.341 35.7404 146.553C35.7909 162.766 47.2539 169.29 61.3505 161.149C75.447 153.008 86.8595 133.265 86.809 117.072C86.7584 100.878 75.2955 94.3164 61.1863 102.464Z" fill="white"></path>
  </mask>
  <g mask="url(#mask3_694_1104)">
    <path d="M56.4622 138.772L51.0244 143.825C49.4106 145.317 48.1231 147.127 47.2427 149.142C46.3623 151.156 45.9081 153.33 45.9087 155.528V168.791L76.3629 154.972C76.3629 154.972 76.085 131.086 56.4622 138.772Z" fill="#364B55"></path>
    <path d="M69.6114 119.106C69.6114 119.106 70.6913 125.832 75.5607 130.745L74.8218 131.314C72.752 132.903 70.345 133.997 67.7861 134.509L69.6114 119.106Z" fill="#9499FA"></path>
    <path d="M69.2703 116.371C69.2703 116.371 69.2703 116.466 69.3335 116.642C69.9019 119.169 73.8681 137.819 65.5062 136.145V145.783C65.5062 145.783 56.62 144.223 56.2474 137.326L55.7927 131.099C55.7927 131.099 49.4265 127.575 52.7296 124.493C56.0327 121.411 58.6663 126.735 58.6663 126.735" fill="#FFC8A8"></path>
    <path d="M69.2703 116.371C69.2703 116.371 64.4009 126.223 57.6052 127.246C57.6052 127.246 55.3126 122.914 52.9569 125.206C50.6012 127.499 55.7926 131.099 55.7926 131.099L56.2474 137.326C56.2474 137.326 49.3317 138.457 46.616 132.229C46.616 132.229 47.5254 112.651 57.9463 110.592C68.3671 108.533 69.2703 116.371 69.2703 116.371Z" fill="#9499FA"></path>
    <path d="M62.5569 134.693C63.4494 135.342 64.4471 135.834 65.5063 136.145V138.772C65.5063 138.772 63.0369 137.244 62.5569 134.693Z" fill="#E5AF9C"></path>
  </g>
  <path d="M26.9555 48.0037C23.8735 49.7847 21.3851 54.0983 21.3978 57.6477C21.4104 61.1971 23.924 62.6181 26.9934 60.8055C30.0628 58.9929 32.5702 54.7109 32.5639 51.1678C32.5575 47.6247 30.0439 46.2037 26.9555 48.0037Z" fill="#9499FA"></path>
  <path d="M65.7652 71.359C60.9274 74.1505 57.018 80.9209 57.0369 86.485C57.0559 92.0491 60.9842 94.2849 65.822 91.4934C70.6598 88.7018 74.5692 81.9251 74.5566 76.3357C74.544 70.7464 70.6156 68.5611 65.7652 71.359Z" fill="white"></path>
  <path d="M104.089 108.312C102.723 109.198 101.587 110.395 100.772 111.804C99.9576 113.213 99.4883 114.796 99.4026 116.421C99.4026 119.402 101.525 120.602 104.114 119.105C105.479 118.219 106.615 117.022 107.429 115.613C108.244 114.203 108.714 112.621 108.8 110.996C108.819 108.015 106.71 106.834 104.089 108.312Z" fill="#6CECD4"></path>
  <path d="M26.9806 141.873C27.6015 141.873 28.1048 141.37 28.1048 140.749C28.1048 140.128 27.6015 139.625 26.9806 139.625C26.3598 139.625 25.8564 140.128 25.8564 140.749C25.8564 141.37 26.3598 141.873 26.9806 141.873Z" fill="#D9DEE2"></path>
  <path d="M37.0352 61.6013C37.7502 61.6013 38.3299 61.0216 38.3299 60.3066C38.3299 59.5915 37.7502 59.0118 37.0352 59.0118C36.3201 59.0118 35.7405 59.5915 35.7405 60.3066C35.7405 61.0216 36.3201 61.6013 37.0352 61.6013Z" fill="#D9DEE2"></path>
  <path d="M114.636 101.276C115.271 101.276 115.785 100.762 115.785 100.127C115.785 99.492 115.271 98.9774 114.636 98.9774C114.001 98.9774 113.487 99.492 113.487 100.127C113.487 100.762 114.001 101.276 114.636 101.276Z" stroke="url(#paint0_radial_694_1104)" stroke-miterlimit="10"></path>
  <defs>
    <radialGradient id="paint0_radial_694_1104" cx="0" cy="0" r="1" gradientUnits="userSpaceOnUse" gradientTransform="translate(114.636 100.127) scale(1.46523 1.46524)">
      <stop stop-color="#9499FA"></stop>
      <stop offset="1" stop-color="#5257D5"></stop>
    </radialGradient>
  </defs>
</svg>
