<?xml version="1.0" encoding="UTF-8"?>
<svg xmlns="http://www.w3.org/2000/svg" width="136" height="78" viewBox="0 0 136 78" fill="none">
  <g clip-path="url(#clip0_251_251)">
    <path opacity="0.5" d="M0 68C0 58.6977 1.9086 49.4943 5.60776 40.9591C9.30692 32.424 14.7179 24.7385 21.5061 18.3782C28.2943 12.0179 36.3153 7.11804 45.0729 3.98165C53.8306 0.845256 63.1386 -0.460933 72.4212 0.143879L71.9946 6.69151C63.6077 6.14506 55.1978 7.32521 47.2852 10.159C39.3727 12.9927 32.1256 17.4198 25.9925 23.1664C19.8593 28.913 14.9704 35.8568 11.6282 43.5684C8.28596 51.28 6.56152 59.5953 6.56152 68H0Z" fill="url(#paint0_linear_251_251)"></path>
    <g clip-path="url(#clip1_251_251)">
      <path d="M37.1587 67.9738C37.1587 49.8983 51.8483 35.2444 69.9679 35.2444C88.0875 35.2444 102.78 49.8983 102.78 67.9738H125.039C125.039 37.6281 100.385 13.041 69.9707 13.041C39.5568 13.041 14.9041 37.6352 14.9041 67.9738H37.1587Z" fill="url(#paint1_linear_251_251)"></path>
      <path d="M108.924 29.144L93.1892 44.8501C96.2346 47.8852 98.6494 51.4902 100.295 55.4583C101.941 59.4263 102.785 63.6795 102.78 67.9738H125.039C125.048 60.7617 123.629 53.6189 120.864 46.9554C118.098 40.2918 114.041 34.2389 108.924 29.144Z" fill="#CCD6E1"></path>
      <path d="M67.4717 65.5533L108.845 29.1299L72.4696 70.5234C71.8513 71.2267 70.9784 71.6562 70.0427 71.7173C69.107 71.7785 68.1852 71.4664 67.4803 70.8496C66.7753 70.2328 66.3448 69.3619 66.2835 68.4285C66.2221 67.4951 66.535 66.5756 67.1533 65.8723C67.2533 65.76 67.3596 65.6535 67.4717 65.5533Z" fill="#002B31"></path>
    </g>
  </g>
  <defs>
    <linearGradient id="paint0_linear_251_251" x1="68" y1="-2.29936e-06" x2="-9.15385" y2="68" gradientUnits="userSpaceOnUse">
      <stop stop-color="#7177F8"></stop>
      <stop offset="1" stop-color="#7177F8" stop-opacity="0"></stop>
    </linearGradient>
    <linearGradient id="paint1_linear_251_251" x1="95.9452" y1="31.2054" x2="20.9589" y2="65.6712" gradientUnits="userSpaceOnUse">
      <stop stop-color="#555CF9"></stop>
      <stop offset="1" stop-color="#CCCEFF"></stop>
    </linearGradient>
    <clipPath id="clip0_251_251">
      <rect width="136" height="78" fill="white"></rect>
    </clipPath>
    <clipPath id="clip1_251_251">
      <rect width="110.135" height="58.6849" fill="white" transform="translate(14.9041 13.041)"></rect>
    </clipPath>
  </defs>
</svg>
