<?xml version="1.0" encoding="UTF-8"?>
<svg xmlns="http://www.w3.org/2000/svg" width="373" height="236" viewBox="0 0 373 236" fill="none">
  <g clip-path="url(#clip0_251_142)">
    <path d="M350.705 17.057C350.595 16.7169 350.427 16.3987 350.207 16.1168C349.543 15.1909 348.635 14.4682 347.584 14.0297C346.979 13.8655 346.43 13.5407 345.995 13.0895C345.525 12.469 345.581 11.4442 344.876 11.0964C344.635 11.0095 344.387 10.9465 344.133 10.9083C343.781 10.7798 343.458 10.5799 343.187 10.321C342.915 10.0622 342.699 9.75001 342.554 9.40406C341.614 7.64595 341.482 5.6434 340.824 3.76307C340.166 1.88274 338.718 0.00240808 336.744 0.00240808C336.554 -0.00946988 336.364 0.022707 336.189 0.0964232C335.503 0.444284 335.559 1.85453 334.788 1.77932C334.628 1.77932 334.487 1.6759 334.327 1.6477C333.622 1.51607 333.331 2.49385 332.955 3.10495C332.907 3.20184 332.84 3.28779 332.757 3.35738C332.675 3.42696 332.579 3.47867 332.475 3.50922C331.535 3.73486 331.404 1.56308 330.473 1.80752C330.134 1.89214 329.984 2.28701 329.89 2.62547C329.072 5.05212 328.618 7.58692 328.545 10.1468C328.545 11.9613 329.006 13.7476 329.138 15.5621C329.246 16.7352 329.134 17.918 328.809 19.0502C328.508 19.9903 327.869 20.7331 327.869 21.7578C327.869 22.7826 328.592 22.8578 327.605 23.7792C327.408 23.9577 327.19 24.1123 326.957 24.2399C328.912 29.7868 330.874 35.3369 332.842 40.8902C332.925 41.2493 333.111 41.5763 333.378 41.8304C333.658 42.0197 333.981 42.1361 334.318 42.1688L335.258 42.3569C335.258 42.2628 335.305 42.1688 335.324 42.0842C335.332 41.1415 335.392 40.1999 335.503 39.2637C335.813 38.1731 336.828 37.3834 337.045 36.2458C337.054 35.6444 337.126 35.0457 337.261 34.4595C337.554 33.9512 337.98 33.5321 338.492 33.2467C339.545 32.5517 340.441 31.6457 341.125 30.586C341.462 30.0537 341.686 29.4573 341.782 28.8343C341.877 28.2113 341.842 27.5753 341.68 26.9663C341.528 26.6409 341.472 26.2787 341.52 25.9228C341.567 25.8023 341.644 25.6957 341.743 25.6124C341.843 25.5291 341.961 25.4718 342.088 25.4457C342.215 25.4196 342.346 25.4254 342.47 25.4628C342.594 25.5001 342.707 25.5677 342.798 25.6595C343.015 25.9322 343.033 26.3364 343.315 26.5339C343.597 26.7313 344.256 26.4775 344.397 26.0732C344.523 25.6379 344.602 25.1903 344.632 24.7382C344.716 24.2963 345.017 23.798 345.468 23.798C345.421 24.1741 345.976 24.3809 346.305 24.1929C346.609 23.9482 346.837 23.6221 346.963 23.2527C347.838 21.598 349.718 20.6296 350.498 18.9279C350.779 18.3464 350.852 17.6859 350.705 17.057Z" fill="#D9E3ED" stroke="white" stroke-width="0.5" stroke-linecap="round" stroke-linejoin="round"></path>
    <path d="M335.249 42.2723L334.308 42.0842C333.972 42.0515 333.649 41.9351 333.368 41.7458C333.101 41.4917 332.915 41.1647 332.832 40.8056C330.871 35.2586 328.909 29.7085 326.947 24.1553C326.502 24.3706 326.117 24.6938 325.828 25.0954C325.217 26.092 325.49 26.9758 324.973 27.6809C325.174 28.419 325.451 29.1343 325.8 29.8151C325.985 30.0513 326.155 30.2994 326.308 30.5578C326.815 31.6014 326.016 32.7766 325.527 33.8296C324.978 35.1603 324.66 36.5753 324.587 38.0133L324.22 41.774C324.164 42.0405 324.164 42.3159 324.22 42.5825C324.361 43.015 324.766 43.2876 325.076 43.6261C326.42 45.1304 325.65 47.6782 326.167 49.5491L331.168 47.6688C331.701 47.4919 332.202 47.2317 332.654 46.8979C333.001 46.5415 333.316 46.1545 333.594 45.7415C334.066 45.1688 334.628 44.6767 335.258 44.2842C334.722 43.7483 335.07 42.9304 335.249 42.2723Z" fill="#D9E3ED" stroke="white" stroke-width="0.5" stroke-linecap="round" stroke-linejoin="round"></path>
    <path d="M324.305 42.5449C324.249 42.2784 324.249 42.003 324.305 41.7364L324.672 37.9757C324.744 36.5377 325.062 35.1228 325.612 33.792C326.101 32.739 326.9 31.5638 326.392 30.5202C326.239 30.2618 326.07 30.0137 325.885 29.7775C325.536 29.0967 325.258 28.3815 325.057 27.6433C324.781 27.9829 324.421 28.2452 324.014 28.4048C321.545 29.5398 318.993 30.4827 316.379 31.2253C315.947 31.3444 315.514 31.4761 315.082 31.6202C315.029 32.4621 315.115 33.3069 315.336 34.1211C315.656 35.2398 316.332 36.2176 316.737 37.2988C317.273 38.7279 317.348 40.3073 318.034 41.6612C318.416 42.3082 318.83 42.9358 319.275 43.5415C320.567 45.8065 321.383 48.3115 321.673 50.903C322.593 50.807 323.493 50.5724 324.343 50.2073L326.223 49.4928C325.706 47.6124 326.477 45.074 325.132 43.5697C324.85 43.2501 324.493 42.9774 324.305 42.5449Z" fill="#D9E3ED" stroke="white" stroke-width="0.5" stroke-linecap="round" stroke-linejoin="round"></path>
    <path d="M344.058 49.4081C343.785 48.8252 343.513 48.2517 343.231 47.6782C343.165 47.5466 343.09 47.3961 342.949 47.3491C342.867 47.3285 342.782 47.3253 342.7 47.3399C342.617 47.3545 342.538 47.3865 342.469 47.4338C342.008 47.6688 341.529 47.9696 341.407 48.4867C341.256 49.5021 342.93 50.1226 342.732 51.1286C342.652 51.4112 342.476 51.6571 342.234 51.8243C341.659 52.2248 340.955 52.3966 340.259 52.3063C339.564 52.2159 338.927 51.8698 338.473 51.3354C337.637 50.2636 337.702 48.6654 336.809 47.6312C336.433 47.1893 335.869 46.7662 335.944 46.1927C336.02 45.6192 336.649 45.2526 336.405 44.7731C336.161 44.2936 335.785 44.4534 335.465 44.2654L335.38 44.209C334.75 44.6014 334.188 45.0936 333.716 45.6662C333.438 46.0792 333.124 46.4663 332.776 46.8226C332.325 47.1565 331.823 47.4167 331.291 47.5936L324.418 50.226C323.543 50.5922 322.617 50.8205 321.673 50.903C321.879 52.2474 322.011 53.5918 322.096 54.8799C322.171 55.914 322.218 56.9576 322.331 58.0012C322.804 57.6534 323.323 57.3719 323.873 57.1645C325.01 56.7226 326.214 56.5063 327.361 56.0927C329.636 55.2747 331.629 53.6953 334.008 53.2722C334.336 53.1969 334.676 53.1969 335.004 53.2722C335.554 53.5253 336.02 53.9296 336.349 54.438C336.765 54.899 337.25 55.2924 337.787 55.6038C338.436 55.6038 339.075 55.6038 339.367 55.0491C339.468 54.7763 339.549 54.4967 339.611 54.2123C339.714 53.9397 340.025 53.6859 340.288 53.8269C340.551 53.9679 340.532 54.2311 340.73 54.3628C340.927 54.4944 341.388 54.297 341.67 54.0525C342.272 53.4414 342.883 52.8397 343.494 52.238C343.989 51.8352 344.322 51.268 344.434 50.6397C344.415 50.2039 344.286 49.78 344.058 49.4081Z" fill="#D9E3ED" stroke="white" stroke-width="0.5" stroke-linecap="round" stroke-linejoin="round"></path>
    <path d="M333.227 55.4439C333.047 54.8278 332.912 54.1993 332.823 53.5636C330.943 54.2123 329.269 55.3875 327.398 56.0644C326.251 56.4781 325.048 56.6943 323.91 57.1362C323.361 57.3436 322.842 57.6251 322.368 57.973C322.425 58.4995 322.491 59.0354 322.594 59.5524C323.074 61.9499 325.038 63.7926 324.85 66.1336C326.378 64.3687 328.186 62.8664 330.2 61.6866C331.375 60.9909 333.274 60.5302 334.553 59.5995C334.362 59.2063 334.204 58.7973 334.083 58.3772C333.773 57.4089 333.491 56.4311 333.227 55.4439Z" fill="#D9E3ED" stroke="white" stroke-width="0.5" stroke-linecap="round" stroke-linejoin="round"></path>
    <path d="M336.386 54.4473C336.058 53.939 335.591 53.5346 335.042 53.2815C334.714 53.2063 334.373 53.2063 334.045 53.2815C333.631 53.3636 333.222 53.4736 332.823 53.6106C332.912 54.2463 333.047 54.8748 333.227 55.4909C333.49 56.4311 333.772 57.4559 334.083 58.4242C334.204 58.8443 334.361 59.2532 334.553 59.6465C334.923 59.4097 335.234 59.0921 335.464 58.7176C335.694 58.343 335.835 57.9213 335.878 57.4841C335.845 56.9861 335.949 56.4884 336.179 56.0456C336.398 55.857 336.655 55.718 336.932 55.6385C337.21 55.559 337.502 55.5407 337.787 55.5849C337.265 55.2789 336.793 54.8953 336.386 54.4473Z" fill="#D9E3ED" stroke="white" stroke-width="0.5" stroke-linecap="round" stroke-linejoin="round"></path>
    <path d="M324.851 66.1337C325.039 63.8397 323.074 61.997 322.594 59.5525C322.342 57.9969 322.188 56.4268 322.133 54.8517C321.87 51.0911 321.297 46.8039 319.21 43.5697C318.765 42.964 318.351 42.3365 317.969 41.6894C317.282 40.3356 317.207 38.7561 316.671 37.327C316.267 36.2458 315.59 35.2681 315.27 34.1493C315.049 33.3352 314.964 32.4903 315.016 31.6484C313.258 32.2031 311.538 32.8895 309.742 33.416C308.888 33.6185 308.059 33.9149 307.269 34.2997C306.098 35.1277 305.086 36.1595 304.28 37.3458C303.613 38.0442 303.038 38.8246 302.569 39.6681C302.042 40.768 301.986 42.0185 301.516 43.1373C301.046 44.2561 300.049 44.7825 299.579 45.7979C299.468 45.9999 299.428 46.2338 299.468 46.4611C299.507 46.6883 299.622 46.8955 299.795 47.0483C300.312 47.4056 301.121 46.9919 301.591 47.4056C302.258 47.9885 301.271 49.0979 301.591 49.9347C301.755 50.2428 301.964 50.5248 302.211 50.7714C303.857 53.0184 299.786 53.9492 298.451 54.8893C296.975 55.9235 295.452 57.2491 293.534 57.2021C292.988 57.2021 292.443 57.0611 291.898 57.0799C291.248 57.1351 290.612 57.3004 290.017 57.5688L287.564 58.509C287.046 58.7064 286.464 58.9696 286.285 59.4961C285.965 60.4363 287.075 61.1508 287.611 61.9782C287.908 62.5855 288.017 63.2675 287.925 63.9373C287.833 64.6071 287.543 65.2342 287.093 65.7388C286.167 66.7537 285.164 67.6966 284.094 68.5593C282.976 69.6405 282.082 70.9662 281.039 72.1038C283.032 71.9721 284.724 71.0602 286.783 70.6089C289.594 69.9598 292.357 69.1243 295.057 68.1081C300.34 66.2277 305.54 63.9337 311.039 62.8243C311.32 62.7543 311.614 62.7543 311.895 62.8243C312.431 62.9936 312.675 63.5953 312.939 64.0935C313.788 65.4772 315.133 66.4856 316.699 66.914C318.23 67.3465 319.81 67.5804 321.4 67.6098L323.553 67.7414C323.675 67.5534 323.816 67.3653 323.948 67.1867C324.258 66.82 324.55 66.4722 324.851 66.1337Z" fill="#D9E3ED" stroke="white" stroke-width="0.5" stroke-linecap="round" stroke-linejoin="round"></path>
    <path d="M320.272 87.043C320.272 87.4567 320.488 88.0772 320.874 87.9174C320.985 87.858 321.071 87.7615 321.118 87.6447C322.998 84.2507 322.274 79.926 323.835 76.3627C324.203 75.7296 324.413 75.0167 324.446 74.285C324.38 73.5516 323.609 72.8465 322.961 73.1662C322.763 73.2696 322.547 73.4482 322.35 73.3542C322.293 73.3139 322.245 73.2621 322.209 73.2022C322.174 73.1423 322.151 73.0756 322.143 73.0063C321.71 71.126 322.51 69.3115 323.591 67.7414L321.438 67.6098C319.847 67.5804 318.268 67.3466 316.737 66.9141L315.27 69.9602C315.124 70.204 315.049 70.4843 315.054 70.7687C315.12 71.314 315.759 71.6619 315.806 72.1978C315.853 72.7337 315.383 73.138 315.364 73.5986C315.364 74.3038 316.182 74.661 316.784 75.0371C317.241 75.3368 317.616 75.7456 317.875 76.2265C318.134 76.7075 318.27 77.2454 318.269 77.7918C318.269 79.6721 316.539 81.2986 316.577 83.2071C316.612 83.9798 316.867 84.7265 317.31 85.3601C317.414 85.2611 317.545 85.1956 317.686 85.1721C318.277 85.0823 318.879 85.2282 319.362 85.5782C319.846 85.9282 320.173 86.4543 320.272 87.043Z" fill="#D9E3ED" stroke="white" stroke-width="0.5" stroke-linecap="round" stroke-linejoin="round"></path>
    <path d="M284.066 93.2668L313.757 83.4327C314.697 83.1131 315.637 82.7934 316.577 82.4361C316.897 80.8473 318.166 79.4276 318.194 77.7353C318.195 77.1889 318.059 76.651 317.8 76.1701C317.541 75.6891 317.166 75.2804 316.709 74.9806C316.107 74.6046 315.27 74.2473 315.289 73.5422C315.289 73.0439 315.769 72.602 315.731 72.1413C315.693 71.6806 315.045 71.2576 314.979 70.7123C314.973 70.4278 315.048 70.1476 315.195 69.9037L316.662 66.8576C315.122 66.4148 313.806 65.4076 312.976 64.0371C312.713 63.5388 312.469 62.9371 311.933 62.7679C311.652 62.6978 311.358 62.6978 311.077 62.7679C305.549 63.8773 300.35 66.1337 295.094 68.0516C292.395 69.0679 289.631 69.9034 286.821 70.5524C284.762 71.0037 283.06 71.9157 281.076 72.0473C280.589 72.5794 280.043 73.0555 279.45 73.467L282.383 86.0276C282.919 88.5096 283.483 90.8694 284.066 93.2668Z" fill="#D9E3ED" stroke="white" stroke-width="0.5" stroke-linecap="round" stroke-linejoin="round"></path>
    <path d="M320.798 92.7498C320.798 92.4207 320.798 92.0822 320.798 91.7532C320.798 90.8694 321.24 90.2959 320.469 89.8729C319.634 89.4498 318.862 88.9118 318.175 88.2746C317.836 87.9536 317.567 87.5655 317.386 87.135C317.204 86.7044 317.115 86.2408 317.122 85.7737C317.121 85.6253 317.167 85.4804 317.254 85.3601C316.81 84.7264 316.556 83.9797 316.521 83.2071C316.517 82.9512 316.542 82.6957 316.596 82.4456C315.656 82.8028 314.716 83.1225 313.775 83.3857C315.283 86.7611 316.449 90.2792 317.254 93.8874C318.47 93.6247 319.657 93.2437 320.798 92.7498Z" fill="#D9E3ED" stroke="white" stroke-width="0.5" stroke-linecap="round" stroke-linejoin="round"></path>
    <path d="M291.39 94.6207C291.86 94.5173 292.152 94.066 292.443 93.6806C292.951 93.013 293.91 92.6934 294.54 92.0635C294.748 91.787 295.018 91.5625 295.328 91.4075C295.638 91.2526 295.979 91.1714 296.326 91.1703C296.824 91.2643 297.266 91.6968 297.783 91.4994C298.3 91.3019 298.3 90.7284 298.479 90.2866C298.616 90.0233 298.813 89.7962 299.054 89.6238C299.296 89.4514 299.575 89.3386 299.868 89.2946C300.162 89.2506 300.461 89.2766 300.743 89.3706C301.024 89.4646 301.279 89.6238 301.487 89.8353C301.694 90.0797 301.835 90.39 302.117 90.5404C302.559 90.7755 303.114 90.5404 303.593 90.625C304.533 90.8601 304.618 92.2609 305.408 92.8344C306.198 93.4079 307.204 93.0788 307.768 93.7182C307.939 93.9829 308.03 94.2914 308.03 94.6066C308.03 94.9219 307.939 95.2304 307.768 95.4951C307.42 96.0201 307.106 96.5665 306.827 97.131C306.741 97.3516 306.741 97.5967 306.827 97.8173C306.938 97.9788 307.096 98.1019 307.28 98.1693C307.463 98.2367 307.664 98.2451 307.852 98.1934C308.227 98.0698 308.611 97.9724 308.999 97.9019C309.498 97.9019 309.939 98.0993 310.475 98.0617C311.06 97.8969 311.618 97.6466 312.13 97.319C312.591 97.1271 313.098 97.078 313.587 97.178C313.785 96.9053 314.039 96.6609 314.01 96.3412C313.954 95.6079 312.741 95.7019 312.327 95.1096C312.064 94.7241 312.224 94.1694 312.186 93.737C312.121 92.8814 311.397 92.2515 311.002 91.49C310.062 89.7319 311.068 87.6353 312.027 85.9054C312.13 85.7268 312.252 85.5293 312.459 85.5105C312.666 85.4917 312.92 85.9242 312.901 86.2439C312.707 87.2269 312.453 88.1971 312.139 89.149C311.942 90.0891 312.243 91.3772 313.192 91.6874C313.615 91.8284 314.208 91.8472 314.302 92.2797C314.315 92.5119 314.263 92.7432 314.151 92.9472C314.099 93.1492 314.09 93.3602 314.127 93.5656C314.164 93.771 314.246 93.9658 314.366 94.1367C314.485 94.3076 314.641 94.4503 314.822 94.555C315.002 94.6597 315.203 94.7238 315.411 94.743C315.639 94.7096 315.87 94.7096 316.098 94.743C317.038 95.119 315.891 97.0088 316.765 97.5634C317.376 97.9771 318.345 97.2156 318.88 97.7233C319.416 98.231 318.88 98.9079 318.523 99.4532C318.154 100.051 317.964 100.742 317.974 101.445C317.984 102.148 318.194 102.833 318.58 103.421C320.058 100.035 320.817 96.3786 320.808 92.684C319.662 93.1919 318.468 93.5856 317.245 93.8592C316.439 90.2511 315.274 86.7329 313.766 83.3575L291.089 90.8789C291.089 92.8438 291.174 94.6677 291.39 94.6207Z" fill="#D9E3ED" stroke="white" stroke-width="0.5" stroke-linecap="round" stroke-linejoin="round"></path>
    <path d="M253.858 83.0567C256.489 81.9564 259.182 81.0146 261.925 80.2362C261.925 79.249 263.157 78.0174 263.42 77.2464C263.622 76.1305 263.622 74.9872 263.42 73.8713C263.364 72.7337 263.74 71.3892 264.811 71.0508C265.085 70.994 265.351 70.9024 265.601 70.7781C265.785 70.6083 265.925 70.3963 266.008 70.1604C266.092 69.9246 266.117 69.6719 266.081 69.4243C266.081 67.3747 265.14 65.4474 264.247 63.5764C263.824 62.6363 263.392 61.6961 262.969 60.8218C262.823 60.4347 262.603 60.0801 262.32 59.7782C262.129 59.5937 261.899 59.456 261.646 59.3761C261.393 59.2961 261.125 59.2761 260.863 59.3175C260.57 59.3793 260.292 59.4983 260.045 59.6677C259.798 59.8371 259.587 60.0536 259.424 60.3047C259.098 60.8017 258.824 61.331 258.606 61.8841C258.287 62.6175 258.108 63.0123 257.788 63.7645C257.708 63.9145 257.598 64.0459 257.463 64.1501C257.329 64.2543 257.174 64.3288 257.009 64.3687C256.844 64.4087 256.672 64.4132 256.505 64.382C256.338 64.3508 256.179 64.2845 256.04 64.1875C255.901 64.0787 255.785 63.9431 255.7 63.7888C255.615 63.6345 255.561 63.4646 255.543 63.2892C255.524 63.1138 255.541 62.9365 255.593 62.7678C255.644 62.5991 255.729 62.4425 255.842 62.3072C256.228 61.8465 256.895 61.6491 257.177 61.1226C257.459 60.5961 257.271 60.0414 257.328 59.4961C257.452 58.933 257.651 58.3891 257.92 57.879C258.262 56.9904 258.355 56.0254 258.189 55.0877C258.024 54.1501 257.605 53.2754 256.98 52.5577C256.793 52.3937 256.648 52.1874 256.557 51.956C256.435 51.5329 256.717 51.1004 256.895 50.6962C257.074 50.2919 257.046 49.6714 256.613 49.5492C256.181 49.427 255.955 49.709 255.673 49.5492C255.391 49.3893 255.372 49.2577 255.212 49.1167C255.083 49.0035 254.933 48.9172 254.77 48.8629C253.931 48.5302 253.04 48.3488 252.138 48.327C251.661 48.3452 251.184 48.3009 250.718 48.1953C250.113 47.8828 249.529 47.531 248.97 47.1424C247.973 46.6535 246.647 47.4244 246.149 48.2988C246.041 48.4572 245.968 48.6366 245.935 48.8253C245.902 49.014 245.909 49.2077 245.956 49.3934C246.003 49.5791 246.089 49.7528 246.208 49.9028C246.327 50.0528 246.477 50.1758 246.647 50.2637C246.826 50.3201 247.042 50.3295 247.155 50.4893C247.268 50.6492 247.089 51.0628 246.817 51.1569C246.544 51.2509 246.234 51.2133 245.961 51.3167C245.303 51.5611 245.162 52.4261 245.265 53.1218C245.475 53.7895 245.495 54.5026 245.322 55.1808C245.272 55.2989 245.199 55.4057 245.107 55.4946C245.015 55.5836 244.906 55.6527 244.786 55.6979C244.549 55.7239 244.311 55.6643 244.114 55.5297C243.918 55.3952 243.776 55.1947 243.714 54.9645C243.607 54.504 243.538 54.0355 243.507 53.5637C243.503 53.4849 243.48 53.4081 243.441 53.3396C243.402 53.271 243.347 53.2126 243.282 53.1688C242.943 53.009 242.746 53.5355 242.624 53.8927C242.313 54.8329 241.129 55.2842 240.743 56.2055C240.561 56.7077 240.49 57.2434 240.536 57.7756C240.536 59.5901 240.273 61.4047 240.254 63.2286C240.157 65.0534 240.54 66.8718 241.364 68.5029C241.879 69.2524 242.356 70.0275 242.793 70.8251C243.292 72.2813 243.418 73.8393 243.159 75.3567C243.084 77.2444 242.768 79.1147 242.219 80.9225C241.867 81.9245 241.331 82.8522 240.64 83.6584C245.096 83.4336 249.512 82.7018 253.802 81.4772C253.756 82.004 253.775 82.5345 253.858 83.0567Z" fill="#D9E3ED" stroke="white" stroke-width="0.5" stroke-linecap="round" stroke-linejoin="round"></path>
    <path d="M290.337 174.6C290.032 174.511 289.713 174.482 289.397 174.516C289.095 174.63 288.837 174.835 288.658 175.103C288.479 175.371 288.389 175.689 288.4 176.011C288.4 176.659 288.532 177.299 288.485 177.938C288.49 178.094 288.452 178.248 288.376 178.384C288.3 178.52 288.188 178.632 288.052 178.709C287.592 178.897 287.197 178.342 286.792 178.041C286.469 177.858 286.112 177.74 285.742 177.695C285.373 177.649 284.998 177.678 284.639 177.778L273.141 179.386C271.767 179.689 270.341 179.666 268.976 179.32C267.858 178.944 266.889 178.126 265.723 177.966C265.021 177.913 264.315 177.983 263.636 178.173L253.294 180.448C252.161 180.671 251.048 180.985 249.966 181.388C249.026 181.755 247.973 182.592 248.265 183.57C248.406 184.04 248.829 184.369 249.073 184.792C249.609 185.732 249.299 186.832 249.317 187.885C249.74 187.784 250.139 187.601 250.49 187.347C250.842 187.092 251.14 186.77 251.367 186.4C251.5 186.098 251.695 185.829 251.941 185.61C252.149 185.482 252.384 185.405 252.627 185.384C255.915 184.851 259.283 185.109 262.452 186.136C262.735 186.2 262.997 186.336 263.213 186.531C263.486 186.832 263.542 187.302 263.862 187.556C264.388 187.97 265.31 187.556 265.742 188.054C266.175 188.553 266.005 189.154 266.485 189.295C266.602 189.31 266.72 189.301 266.833 189.268C266.946 189.236 267.052 189.181 267.143 189.107L271.731 186.945C271.925 186.875 272.097 186.755 272.229 186.597C272.511 186.193 272.229 185.61 272.361 185.149C272.596 184.472 273.546 184.491 274.241 184.641C275.811 184.97 277.579 185.45 278.322 186.87C278.518 187.414 278.744 187.948 278.998 188.468C279.638 189.474 280.963 189.737 282.045 190.245C283.134 190.764 284.057 191.577 284.709 192.591C285.362 193.606 285.719 194.783 285.739 195.989C285.739 197.653 285.025 199.308 285.194 201C285.26 201.705 285.401 202.608 286.285 202.589C286.868 202.589 287.018 201.846 287.488 201.809C288.184 201.752 288.673 202.674 288.607 203.266C288.517 203.64 288.395 204.005 288.24 204.357C287.714 206.002 288.964 207.638 290.121 208.916C290.3 209.167 290.564 209.344 290.863 209.415C291.343 209.415 291.747 208.954 292.217 209.039C292.922 209.17 292.781 210.317 293.327 210.787C293.721 211.135 294.445 211.06 294.699 211.53C294.953 212 294.596 212.47 294.699 212.903C294.916 213.598 295.987 213.551 296.457 214.106C296.927 214.661 296.692 215.244 296.89 215.789C297.081 216.209 297.376 216.575 297.745 216.851L301.092 219.869C301.511 220.288 301.978 220.654 302.484 220.96C302.924 221.077 303.355 221.228 303.772 221.411C304.176 222.041 303.114 222.145 302.879 222.728C302.728 223.113 303.123 223.545 303.537 223.583C303.961 223.584 304.375 223.452 304.721 223.207L306.038 222.464C306.521 222.296 306.939 221.978 307.231 221.558C307.523 221.137 307.675 220.635 307.664 220.123C308.144 216.062 306.865 212.32 308.275 208.475C308.858 206.876 307.25 205.381 306.724 203.774C306.574 203.294 306.508 202.787 306.376 202.298C306.112 201.47 305.742 200.68 305.276 199.947L303.292 196.516C302.845 195.656 302.285 194.859 301.628 194.146C301.251 193.831 300.916 193.467 300.632 193.065C300.495 192.861 300.429 192.617 300.442 192.371C300.456 192.125 300.549 191.891 300.707 191.702L301.647 192.689C301.707 192.762 301.79 192.811 301.882 192.83C302.155 192.83 302.089 192.388 301.882 192.172C300.002 189.671 298.291 187.02 296.598 184.378C295.628 183.037 294.902 181.535 294.455 179.941C294.351 179.414 294.239 176.406 293.092 177.045C292.443 177.412 292.81 179.132 292.857 179.696C292.857 180.1 293.289 182.413 292.123 181.802C291.945 181.708 291.851 180.815 291.822 180.646C291.577 179.515 291.686 178.337 292.133 177.271C292.544 176.613 292.861 175.901 293.073 175.155C293.092 174.955 293.092 174.754 293.073 174.553C292.174 174.757 291.242 174.773 290.337 174.6Z" fill="#D9E3ED" stroke="white" stroke-width="0.5" stroke-linecap="round" stroke-linejoin="round"></path>
    <path d="M239.098 121.34C239.775 121.152 239.925 120.184 240.555 119.892C241.495 119.469 242.577 120.748 243.46 120.268C244.118 119.921 244.137 118.821 244.833 118.557C245.529 118.294 246.713 119.328 247.287 118.736C247.86 118.144 246.958 116.677 247.747 116.291C248.302 116.019 248.847 116.762 249.459 116.78C249.672 116.752 249.878 116.679 250.062 116.568C250.246 116.456 250.406 116.308 250.53 116.132C251.704 115.059 252.571 113.693 253.041 112.174C253.21 111.365 253.191 110.415 253.812 109.87C254.432 109.325 255.325 109.456 256.115 109.353C256.905 109.25 257.835 108.592 257.563 107.839C257.463 107.641 257.35 107.449 257.224 107.266C257.112 106.969 257.094 106.644 257.173 106.336C257.252 106.028 257.424 105.752 257.666 105.545C257.687 105.522 257.713 105.502 257.741 105.489C256.444 98.0053 255.153 90.5247 253.868 83.0473C253.737 82.531 253.671 82.0004 253.671 81.4678C249.38 82.6924 244.964 83.4242 240.508 83.649C239.973 84.2829 239.314 84.8011 238.571 85.172C238.3 85.3186 237.996 85.3961 237.688 85.3977C237.582 85.3965 237.477 85.3774 237.377 85.3412C237.866 91.819 238.59 98.2685 239.596 104.68C239.699 105.15 239.719 105.634 239.653 106.11C239.521 106.786 239.06 107.388 239.098 108.074C239.222 108.67 239.455 109.237 239.784 109.748C240.003 110.445 240.079 111.179 240.007 111.905C239.936 112.632 239.72 113.337 239.371 113.979C238.658 115.259 238.184 116.657 237.97 118.106C237.97 118.952 238.13 119.789 238.148 120.635C238.162 120.804 238.162 120.974 238.148 121.143C238.43 121.322 238.768 121.392 239.098 121.34Z" fill="#D9E3ED" stroke="white" stroke-width="0.5" stroke-linecap="round" stroke-linejoin="round"></path>
    <path d="M277.485 114.834C277.099 114.571 276.667 114.336 276.3 114.082C275.238 113.215 274.408 112.097 273.884 110.829C273.395 109.889 272.944 108.686 273.442 107.755C272.585 107.55 271.805 107.103 271.195 106.467C270.659 105.893 269.992 105.094 269.258 105.395C268.779 105.592 268.591 106.175 268.149 106.439C267.209 106.993 265.883 105.903 265.093 106.617C264.943 106.749 264.83 106.946 264.642 107.031C264.134 107.256 263.749 106.551 263.279 106.25C262.574 105.799 261.662 106.307 260.834 106.25C259.772 106.25 258.738 105.31 257.76 105.733C257.76 105.658 257.76 105.574 257.76 105.489C257.731 105.502 257.706 105.521 257.685 105.545C257.443 105.752 257.27 106.028 257.191 106.336C257.112 106.644 257.13 106.969 257.243 107.266C257.368 107.449 257.481 107.641 257.581 107.839C257.854 108.592 256.933 109.259 256.134 109.353C255.334 109.447 254.432 109.353 253.83 109.87C253.228 110.387 253.228 111.365 253.059 112.174C252.589 113.693 251.723 115.059 250.549 116.132C250.424 116.308 250.265 116.456 250.081 116.568C249.896 116.679 249.691 116.752 249.477 116.78C248.866 116.78 248.321 116.019 247.766 116.291C246.976 116.677 247.935 118.125 247.305 118.736C246.676 119.347 245.651 118.256 244.852 118.557C244.052 118.858 244.137 119.921 243.479 120.268C242.595 120.748 241.495 119.469 240.574 119.892C239.944 120.184 239.794 121.152 239.117 121.34C238.791 121.393 238.457 121.326 238.176 121.152C238.158 121.834 237.875 122.481 237.387 122.957C237.305 123.008 237.234 123.075 237.18 123.155C236.964 123.55 237.584 123.86 237.81 124.236C238.12 124.772 237.612 125.42 237.095 125.75C236.578 126.079 235.92 126.379 235.798 126.981C235.723 127.32 235.798 127.705 235.657 127.987C235.375 128.438 234.717 128.297 234.256 127.987C233.795 127.677 233.438 127.235 232.912 127.207C232.641 127.219 232.382 127.317 232.171 127.486C231.96 127.655 231.808 127.886 231.736 128.147C231.591 128.657 231.552 129.191 231.623 129.717C231.718 131.061 231.812 132.406 231.915 133.75C233.08 133.515 234.262 133.38 235.45 133.346C237.696 133.024 239.902 132.466 242.031 131.682C250.493 129.087 259.387 128.401 268.074 126.708L269.39 126.426C269.915 125.291 270.697 124.293 271.675 123.512C272.513 123 273.247 122.333 273.837 121.547C274.147 121.011 274.26 120.372 274.58 119.836C275.275 118.689 276.911 118.106 277.09 116.771C277.184 116.113 276.921 115.295 277.438 114.891C277.485 114.834 277.485 114.834 277.485 114.834Z" fill="#D9E3ED" stroke="white" stroke-width="0.5" stroke-linecap="round" stroke-linejoin="round"></path>
    <path d="M279.431 73.5234L279.158 73.7021C278.232 74.1226 277.342 74.6195 276.498 75.1875C275.463 76.0619 274.965 77.4721 273.865 78.2619C272.946 78.7824 271.954 79.1627 270.922 79.3901C269.381 79.926 268.412 82.126 266.795 82.3328C266.642 82.3608 266.484 82.3285 266.354 82.2426C266.225 82.1567 266.133 82.0239 266.099 81.8721C266.099 81.7217 266.099 81.5713 266.099 81.4396C266.058 81.3827 266.005 81.3361 265.943 81.3034C265.881 81.2708 265.812 81.253 265.742 81.2516C265.161 81.214 264.577 81.2424 264.003 81.3362C263.416 81.4292 262.816 81.2911 262.329 80.9507C262.214 80.8593 262.121 80.7437 262.056 80.612C261.991 80.4804 261.956 80.336 261.953 80.1892C259.215 80.9733 256.525 81.915 253.896 83.0097C255.206 90.6062 256.488 98.1808 257.741 105.734C258.681 105.329 259.753 106.222 260.816 106.251C261.643 106.251 262.555 105.771 263.26 106.251C263.73 106.551 264.116 107.257 264.623 107.031C264.811 106.946 264.924 106.749 265.075 106.617C265.864 105.903 267.228 106.993 268.13 106.439C268.572 106.175 268.76 105.592 269.239 105.395C269.973 105.094 270.64 105.893 271.176 106.467C271.786 107.103 272.566 107.55 273.423 107.755C273.423 107.755 273.423 107.755 273.423 107.698C273.799 107.116 274.514 106.824 274.909 106.251C275.304 105.677 275.106 99.5002 276.469 102.546C277.41 101.982 277.494 100.666 277.41 99.613C277.325 98.56 277.306 97.272 278.115 96.5481C278.2 96.4613 278.313 96.4079 278.434 96.3977C278.829 96.3977 278.886 97.1122 279.29 97.1592C280.189 96.3006 280.755 95.1516 280.888 93.9156C281.302 91.6404 281.189 89.2994 281.462 87.0054C281.556 86.21 281.717 85.4239 281.941 84.655L279.431 73.5234Z" fill="#D9E3ED" stroke="white" stroke-width="0.5" stroke-linecap="round" stroke-linejoin="round"></path>
    <path d="M302.117 90.5403C301.835 90.3899 301.694 90.0797 301.487 89.8352C301.279 89.6237 301.024 89.4645 300.743 89.3705C300.461 89.2765 300.161 89.2505 299.868 89.2945C299.575 89.3385 299.296 89.4513 299.054 89.6238C298.813 89.7962 298.616 90.0233 298.479 90.2865C298.3 90.7284 298.234 91.3207 297.783 91.4993C297.332 91.6779 296.843 91.2643 296.326 91.1703C295.979 91.1713 295.638 91.2525 295.328 91.4075C295.018 91.5624 294.748 91.7869 294.539 92.0634C293.91 92.6933 292.951 93.0036 292.443 93.6805C292.151 94.066 291.86 94.5172 291.39 94.6207C291.174 94.6677 291.089 92.8437 291.051 90.9446L284.066 93.2668C283.511 90.8694 282.947 88.4814 282.392 86.084L282.054 84.6267C281.829 85.3956 281.669 86.1817 281.575 86.9771C281.302 89.2711 281.415 91.6121 281.001 93.8873C280.868 95.1233 280.302 96.2723 279.403 97.1309C278.999 97.1309 278.942 96.3694 278.547 96.3694C278.426 96.3796 278.313 96.433 278.228 96.5198C277.419 97.2437 277.466 98.4941 277.522 99.5847C277.579 100.675 277.522 101.954 276.582 102.518C275.219 99.4719 275.398 105.686 275.022 106.222C274.646 106.758 273.912 107.087 273.536 107.67C272.944 108.61 273.442 109.823 273.95 110.801C274.473 112.069 275.304 113.186 276.366 114.054C276.733 114.308 277.165 114.543 277.551 114.806C277.722 114.718 277.915 114.679 278.108 114.694C278.3 114.709 278.485 114.777 278.641 114.891C278.972 115.159 279.261 115.476 279.497 115.831C279.897 116.348 280.361 116.813 280.879 117.213C281.33 117.57 281.998 117.862 282.411 117.476C282.825 117.091 282.571 116.179 283.032 115.756C283.323 115.483 283.784 115.539 284.188 115.483C285.551 115.314 286.445 113.838 287.798 113.603C288.428 113.499 289.209 113.603 289.585 113.123C289.728 112.889 289.794 112.616 289.773 112.343C289.773 111.149 289.133 110.002 289.246 108.817C289.381 108.038 289.668 107.294 290.092 106.627L292.245 102.612C292.556 102.048 292.941 101.427 293.58 101.315C293.851 101.304 294.121 101.278 294.389 101.239C295.329 100.939 295.028 99.3591 295.705 98.5976C295.956 98.3713 296.23 98.1728 296.523 98.0053C298.103 96.9241 298.056 94.6395 298.714 92.8531C298.93 92.2796 299.409 91.6497 300.011 91.7908C300.613 91.9318 300.951 92.7309 301.497 92.5711C301.835 92.4865 301.986 92.0916 302.08 91.7532L302.418 90.5874C302.316 90.59 302.214 90.5741 302.117 90.5403Z" fill="#D9E3ED" stroke="white" stroke-width="0.5" stroke-linecap="round" stroke-linejoin="round"></path>
    <path d="M318.777 108.253C318.545 108.031 318.258 107.875 317.945 107.804C317.632 107.733 317.305 107.748 317 107.849C316.389 108.058 315.759 108.209 315.12 108.3C314.806 108.342 314.487 108.27 314.222 108.098C313.956 107.925 313.761 107.664 313.672 107.36C313.652 107.234 313.675 107.104 313.738 106.993C314.076 106.457 314.932 107.228 315.533 106.993C315.629 106.941 315.713 106.869 315.78 106.783C315.847 106.697 315.896 106.598 315.923 106.492C315.951 106.386 315.956 106.276 315.939 106.168C315.922 106.061 315.883 105.957 315.825 105.865C315.575 105.497 315.235 105.199 314.838 105C314.452 104.737 314.048 104.192 314.386 103.872C314.509 103.759 314.687 103.731 314.819 103.627C315.214 103.327 314.932 102.687 314.48 102.433C314.029 102.18 313.54 102.245 313.051 102.057C312.562 101.869 312.243 101.239 312.591 100.882C313.098 100.356 314.038 101.305 314.697 100.967C315.355 100.628 314.932 99.6787 314.396 99.2274C313.86 98.7762 313.164 98.2215 313.371 97.5539C313.416 97.4217 313.483 97.2978 313.568 97.1873C313.079 97.0873 312.572 97.1364 312.111 97.3283C311.599 97.656 311.042 97.9062 310.456 98.071C309.958 98.071 309.516 97.8736 308.98 97.9112C308.592 97.9817 308.209 98.0791 307.833 98.2027C307.645 98.2544 307.445 98.246 307.261 98.1786C307.077 98.1112 306.919 97.9881 306.809 97.8266C306.722 97.606 306.722 97.3609 306.809 97.1403C307.087 96.5758 307.401 96.0294 307.749 95.5044C307.92 95.2397 308.011 94.9312 308.011 94.6159C308.011 94.3007 307.92 93.9922 307.749 93.7275C307.185 93.0882 306.085 93.342 305.389 92.8437C304.693 92.3454 304.524 90.8694 303.574 90.6343C303.183 90.6108 302.791 90.6108 302.399 90.6343L302.061 91.8001C301.967 92.1386 301.816 92.5335 301.478 92.6181C300.914 92.7591 300.538 91.9694 299.992 91.8377C299.447 91.7061 298.911 92.3266 298.695 92.9001C298.037 94.6864 298.084 96.971 296.504 98.0522C296.211 98.2197 295.937 98.4183 295.686 98.6445C295.01 99.4061 295.348 100.986 294.37 101.286C294.102 101.325 293.832 101.351 293.562 101.362C292.922 101.474 292.537 102.095 292.227 102.659L290.027 106.636C289.602 107.303 289.315 108.048 289.181 108.827C289.068 110.011 289.679 111.158 289.707 112.352C289.728 112.626 289.662 112.899 289.519 113.132C289.143 113.65 288.363 113.509 287.733 113.612C286.379 113.828 285.486 115.304 284.122 115.492C283.718 115.549 283.257 115.492 282.966 115.765C282.505 116.188 282.806 117.062 282.346 117.485C281.885 117.909 281.264 117.579 280.813 117.222C280.295 116.822 279.831 116.358 279.431 115.84C279.195 115.485 278.907 115.168 278.575 114.9C278.402 114.779 278.195 114.714 277.983 114.714C277.771 114.714 277.565 114.779 277.391 114.9C276.874 115.314 277.137 116.132 277.043 116.78C276.864 118.115 275.228 118.661 274.533 119.845C274.213 120.381 274.1 121.02 273.79 121.556C273.2 122.343 272.467 123.009 271.628 123.521C270.65 124.302 269.868 125.3 269.343 126.436C278.538 124.555 287.479 121.538 296.392 118.557L319.708 110.735C319.708 110.632 319.783 110.519 319.811 110.415C320.084 109.4 319.792 108.45 318.777 108.253Z" fill="#D9E3ED" stroke="white" stroke-width="0.5" stroke-linecap="round" stroke-linejoin="round"></path>
    <path d="M300.669 135.8C298.949 134.738 298.639 134.399 296.862 135.396C295.46 136.1 293.961 136.592 292.415 136.853C292.109 136.954 291.78 136.954 291.474 136.853C291.108 136.674 290.948 136.242 290.694 135.913C289.951 134.973 288.513 135.067 287.328 135.255L282.392 136.063C280.972 136.21 279.587 136.604 278.303 137.229C277.522 137.671 276.836 138.282 276.046 138.705C275.491 138.986 274.908 139.209 274.307 139.373C274.14 139.783 274.023 140.213 273.959 140.651C273.879 141.077 273.902 141.515 274.024 141.93C274.147 142.345 274.366 142.725 274.664 143.039C275.294 143.622 276.225 143.754 276.921 144.252C278.378 145.314 278.199 146.819 280.014 147.608C281.339 148.173 283.126 148.332 284.216 149.338C285.053 150.1 285.251 151.501 286.2 152.159C286.65 152.378 287.128 152.536 287.62 152.629C288.056 152.794 288.438 153.078 288.722 153.449C289.006 153.819 289.181 154.261 289.227 154.725C289.172 155.354 289.207 155.987 289.331 156.606C289.651 157.367 290.544 157.668 291.211 158.195C291.77 158.741 292.234 159.376 292.584 160.075C292.927 160.794 293.486 161.389 294.182 161.777H294.229C294.254 161.583 294.254 161.387 294.229 161.194C294.181 160.936 294.201 160.671 294.286 160.423C294.361 160.235 294.53 160.084 294.605 159.896C294.737 159.549 294.539 159.172 294.436 158.815C294.333 158.458 294.38 157.96 294.737 157.875C295.094 157.79 295.357 158.072 295.677 157.969C295.997 157.866 295.987 157.292 296.185 156.954C296.514 156.399 297.388 156.587 297.933 156.239C298.328 155.985 298.479 155.506 298.761 155.139C299.306 154.415 300.321 154.133 300.763 153.343C300.888 153.088 300.986 152.82 301.055 152.544C301.187 152.146 301.377 151.769 301.619 151.426C302.296 150.485 303.499 149.818 303.603 148.68C303.596 148.4 303.618 148.119 303.668 147.843C303.78 147.584 303.936 147.345 304.129 147.138C305.624 145.258 305.633 142.372 307.655 141.093C307.711 140.99 307.786 140.896 307.852 140.792C305.549 139 303.152 137.334 300.669 135.8Z" fill="#D9E3ED" stroke="white" stroke-width="0.5" stroke-linecap="round" stroke-linejoin="round"></path>
    <path d="M240.875 150.307C240.913 149.469 240.801 148.632 240.546 147.834C240.323 147.329 240.046 146.85 239.718 146.405C238.354 146.841 236.954 147.156 235.535 147.345L225.616 148.972C224.789 151.087 223.858 153.165 222.795 155.186C221.726 156.975 220.916 158.905 220.389 160.921C219.655 164.682 221.15 168.395 221.573 172.109C222.034 176.218 220.078 179.8 219.307 183.767C219.124 184.354 219.168 184.988 219.43 185.544C219.72 185.873 220.112 186.094 220.543 186.175C220.974 186.255 221.419 186.188 221.808 185.986C222.626 185.666 223.322 185.046 224.159 184.811C225.672 184.322 227.336 184.971 228.859 184.632C229.565 184.472 230.213 184.124 230.928 184.012C231.278 183.927 231.646 183.959 231.976 184.101C232.307 184.243 232.582 184.489 232.761 184.801C233.015 185.412 232.686 186.108 232.761 186.766C232.836 187.612 233.523 188.252 233.974 188.976C234.265 189.443 234.457 189.964 234.538 190.508C235.209 190.511 235.872 190.37 236.484 190.095C237.085 189.72 237.66 189.306 238.205 188.853C238.803 188.432 239.539 188.253 240.264 188.355C241.117 188.548 242.011 188.417 242.774 187.989C242.546 187.059 242.37 186.117 242.247 185.168C240.583 173.679 241.006 161.955 240.875 150.307Z" fill="#D9E3ED" stroke="white" stroke-width="0.5" stroke-linecap="round" stroke-linejoin="round"></path>
    <path d="M265.404 170.511C265.15 169.289 264.821 167.86 265.639 166.91C265.959 166.543 266.457 166.186 266.353 165.707C266.279 165.482 266.134 165.287 265.94 165.152C265.131 164.457 264.442 163.635 263.9 162.717C263.441 161.821 263.091 160.875 262.856 159.896C261.333 154.425 259.807 148.959 258.277 143.5C255.73 144.111 253.172 144.722 250.615 145.305C248.906 145.814 247.113 145.977 245.341 145.784C244.393 145.485 243.401 145.346 242.407 145.371C241.778 145.528 241.171 145.765 240.602 146.076C240.311 146.208 240.019 146.32 239.719 146.424C240.046 146.868 240.323 147.348 240.546 147.853C240.802 148.651 240.913 149.488 240.875 150.325C241.007 161.974 240.583 173.698 242.285 185.224C242.408 186.174 242.584 187.115 242.812 188.045C243.489 187.688 244.1 187.18 244.889 186.747C246.281 185.986 246.77 187.847 248.227 187.988C248.58 188.021 248.937 187.993 249.28 187.904C249.28 186.851 249.571 185.713 249.036 184.811C248.791 184.388 248.368 184.059 248.227 183.589C247.936 182.648 248.979 181.774 249.929 181.407C251.011 181.004 252.124 180.69 253.257 180.467L263.599 178.192C264.237 178.025 264.896 177.956 265.554 177.985C265.968 175.506 265.917 172.971 265.404 170.511Z" fill="#D9E3ED" stroke="white" stroke-width="0.5" stroke-linecap="round" stroke-linejoin="round"></path>
    <path d="M292.528 160.094C292.178 159.395 291.714 158.759 291.155 158.213C290.525 157.687 289.632 157.386 289.275 156.625C289.151 156.006 289.116 155.373 289.171 154.744C289.125 154.28 288.949 153.838 288.666 153.467C288.382 153.097 288 152.813 287.564 152.648C287.072 152.555 286.594 152.397 286.144 152.178C285.204 151.538 284.997 150.137 284.16 149.357C283.07 148.351 281.283 148.191 279.958 147.627C278.143 146.837 278.322 145.333 276.864 144.271C276.169 143.773 275.238 143.641 274.608 143.058C274.311 142.747 274.092 142.37 273.968 141.959C273.843 141.547 273.818 141.112 273.894 140.689C273.957 140.25 274.074 139.821 274.241 139.41L273.621 139.579C268.494 140.952 263.354 142.262 258.202 143.509C259.725 148.975 261.251 154.44 262.781 159.906C263.016 160.884 263.366 161.831 263.824 162.726C264.366 163.644 265.056 164.467 265.865 165.161C266.059 165.296 266.204 165.491 266.278 165.716C266.382 166.195 265.883 166.553 265.564 166.919C264.746 167.86 265.075 169.298 265.329 170.52C265.842 172.974 265.896 175.502 265.488 177.976H265.62C266.786 178.136 267.754 178.916 268.873 179.33C270.237 179.676 271.664 179.698 273.038 179.395L284.611 177.825C284.97 177.725 285.345 177.697 285.714 177.742C286.084 177.787 286.441 177.905 286.764 178.089C287.169 178.389 287.564 178.944 288.024 178.756C288.16 178.679 288.272 178.567 288.348 178.431C288.424 178.295 288.462 178.141 288.457 177.985C288.504 177.346 288.334 176.707 288.372 176.058C288.361 175.736 288.451 175.418 288.63 175.15C288.809 174.882 289.067 174.677 289.369 174.563C289.685 174.529 290.004 174.558 290.309 174.648C291.223 174.84 292.168 174.84 293.082 174.648C293.082 174.375 293.026 174.102 292.988 173.83C292.652 171.535 292.61 169.206 292.866 166.901C292.927 165.76 293.132 164.633 293.477 163.544C293.762 163.015 293.998 162.461 294.182 161.89H294.135C293.421 161.479 292.857 160.849 292.528 160.094Z" fill="#D9E3ED" stroke="white" stroke-width="0.5" stroke-linecap="round" stroke-linejoin="round"></path>
    <path d="M269.522 136.383C270.302 135.687 270.65 134.643 271.346 133.873C272.192 132.932 273.499 132.443 274.166 131.362C274.712 130.422 274.871 129.143 275.877 128.871C276.253 128.767 276.648 128.871 277.034 128.796C277.974 128.636 278.566 127.592 279.431 127.113C279.817 126.896 280.277 126.793 280.653 126.558C280.983 126.319 281.252 126.006 281.436 125.643C281.621 125.28 281.717 124.878 281.716 124.471C281.729 124.07 281.691 123.668 281.603 123.277C277.137 124.602 272.624 125.778 268.055 126.68C259.368 128.373 250.465 129.059 242.013 131.654C239.883 132.438 237.677 132.996 235.431 133.318C233.476 133.496 231.163 133.365 229.931 134.907C229.419 135.693 229.097 136.588 228.991 137.52C228.21 141.432 227.083 145.268 225.625 148.981L235.544 147.354C237.283 147.149 238.988 146.712 240.612 146.057C241.181 145.746 241.787 145.509 242.417 145.352C243.411 145.327 244.402 145.467 245.35 145.766C247.123 145.958 248.916 145.795 250.624 145.286C255.589 144.152 260.543 142.955 265.488 141.695C265.377 140.478 265.711 139.262 266.429 138.272C267.265 137.398 268.619 137.191 269.522 136.383Z" fill="#D9E3ED" stroke="white" stroke-width="0.5" stroke-linecap="round" stroke-linejoin="round"></path>
    <path d="M323.092 116.461C323.036 116.009 322.744 115.455 322.312 115.577C322.077 115.643 321.945 115.887 321.832 116.113C321.532 116.715 320.986 117.335 320.319 117.269C319.858 117.269 319.482 116.884 319.04 116.743C317.611 116.31 317.639 117.805 316.718 117.974C315.797 118.144 315.439 116.583 315.543 115.906C315.834 113.932 316.662 116.931 317.564 115.323C317.921 114.693 318.448 115.248 318.862 115.013C319.275 114.778 319.256 114.073 319.698 113.847C319.877 113.744 320.121 113.781 320.309 113.687C320.761 113.471 320.657 112.747 320.366 112.39C320.074 112.033 319.651 111.609 319.651 111.121C319.657 110.977 319.682 110.835 319.726 110.698L296.41 118.52C291.493 120.165 286.567 121.81 281.593 123.277C281.682 123.668 281.72 124.07 281.706 124.471C281.707 124.878 281.612 125.28 281.427 125.643C281.242 126.006 280.974 126.319 280.644 126.558C280.268 126.793 279.807 126.897 279.422 127.113C278.557 127.592 278.002 128.636 277.024 128.796C276.639 128.862 276.244 128.796 275.868 128.871C274.862 129.144 274.702 130.469 274.157 131.362C273.499 132.444 272.192 132.932 271.336 133.873C270.64 134.644 270.293 135.687 269.512 136.383C268.732 137.079 267.256 137.389 266.419 138.263C265.702 139.253 265.368 140.468 265.479 141.685C268.215 140.99 270.96 140.275 273.696 139.542C274.512 139.354 275.304 139.073 276.056 138.705C276.846 138.282 277.532 137.671 278.312 137.229C279.597 136.604 280.981 136.21 282.402 136.063L287.338 135.255C288.522 135.067 289.961 134.963 290.704 135.913C290.957 136.232 291.117 136.665 291.484 136.853C291.789 136.954 292.119 136.954 292.424 136.853C293.971 136.592 295.47 136.1 296.871 135.396C298.648 134.399 298.958 134.738 300.679 135.8C303.162 137.343 305.559 139.019 307.862 140.82C308.285 140.135 308.882 139.574 309.591 139.194C310.127 138.921 310.701 138.752 311.246 138.479C311.805 138.244 312.261 137.817 312.534 137.276C312.657 136.901 312.733 136.513 312.76 136.12C313.051 134.239 314.349 132.406 315.411 130.911C315.778 130.349 316.267 129.878 316.842 129.531C317.416 129.184 318.062 128.971 318.73 128.909C319.017 128.937 319.307 128.937 319.595 128.909C319.738 128.889 319.874 128.834 319.99 128.746C320.105 128.659 320.196 128.543 320.253 128.41C320.295 128.232 320.314 128.048 320.309 127.865C320.309 127.498 320.554 127.169 320.61 126.803C320.667 126.436 320.779 126.361 320.441 126.21C320.12 126.133 319.784 126.145 319.469 126.244C319.155 126.343 318.873 126.527 318.655 126.774C318.226 127.29 317.618 127.626 316.953 127.714C316.295 127.714 315.797 126.68 316.37 126.37C316.557 126.293 316.76 126.257 316.962 126.267C317.261 126.269 317.555 126.2 317.822 126.066C318.088 125.932 318.319 125.737 318.495 125.496C318.573 125.37 318.622 125.229 318.64 125.082C318.658 124.936 318.644 124.787 318.598 124.646C318.552 124.506 318.477 124.377 318.376 124.269C318.275 124.16 318.152 124.075 318.015 124.02C317.662 123.992 317.307 124.021 316.962 124.104C316.605 124.104 316.163 123.869 316.238 123.521C316.379 122.807 317.997 123.456 318.044 122.722C318.038 122.596 318.009 122.472 317.959 122.356C317.931 122.154 317.96 121.949 318.042 121.763C318.125 121.577 318.257 121.417 318.426 121.303C318.594 121.189 318.791 121.124 318.994 121.115C319.197 121.107 319.399 121.155 319.576 121.256C319.82 121.444 319.971 121.735 320.244 121.885C320.817 122.196 321.503 121.697 321.889 121.171C322.893 119.82 323.325 118.128 323.092 116.461Z" fill="#D9E3ED" stroke="white" stroke-width="0.5" stroke-linecap="round" stroke-linejoin="round"></path>
    <path d="M214.757 46.9825C215.073 47.2943 215.489 47.4841 215.932 47.5184C217.324 47.7723 218.753 47.7158 220.135 48.0449C221.329 48.327 222.438 48.9005 223.613 49.2671C225.033 49.7055 226.528 49.8432 228.004 49.6714C227.968 49.983 228.054 50.2963 228.243 50.5465C228.432 50.7968 228.71 50.9648 229.019 51.0158C229.236 51.0135 229.452 51.0452 229.659 51.1098C230.129 51.3167 230.119 51.9654 230.147 52.4825C230.181 53.0311 230.33 53.5663 230.587 54.0526C230.843 54.5389 231.199 54.9651 231.633 55.303C231.595 55.0474 231.595 54.7876 231.633 54.532C231.793 53.7517 232.517 53.2346 233.034 52.6517C233.383 52.2227 233.637 51.724 233.778 51.1889C233.919 50.6538 233.944 50.0947 233.852 49.5492C233.852 49.1355 233.767 48.3834 234.369 48.609C234.97 48.8346 235.234 50.7808 235.967 49.1919C236.099 48.9193 236.907 48.5902 237.161 48.8534C237.415 49.1167 237.001 49.9534 236.982 50.3201C237.622 50.4235 238.158 49.8312 238.44 49.2483C238.623 48.6379 238.945 48.078 239.38 47.6124C239.888 47.2364 240.602 47.2176 241.138 46.8791C241.674 46.5406 242.078 45.6663 242.689 45.1962C243.808 44.3218 245.435 44.9236 246.704 45.5817C247.089 45.7791 247.691 45.9201 247.87 45.5159C247.973 45.262 247.804 44.9706 247.87 44.6885C247.935 43.9834 248.998 44.0492 249.656 44.3313C250.314 44.6133 251.386 44.6415 251.423 43.927C250.483 42.5825 249.12 41.1065 247.559 41.5108C247.07 41.6518 245.867 42.7236 245.387 42.5637C245.296 42.5192 245.219 42.4495 245.166 42.363C245.113 42.2764 245.085 42.1765 245.087 42.0749C245.092 41.871 245.064 41.6676 245.002 41.4731C244.814 41.0595 244.212 40.9749 244.062 40.533C243.911 40.0911 244.541 39.0663 243.949 38.8595C243.769 38.8177 243.58 38.8481 243.423 38.9441L239.229 40.7774C238.659 41.0055 238.129 41.3228 237.659 41.7176C237.264 42.0843 236.973 42.5731 236.559 42.921C236.313 43.2163 235.965 43.4089 235.585 43.461C235.204 43.5132 234.817 43.4212 234.5 43.203C233.787 43.4763 233.012 43.5515 232.259 43.4207C231.506 43.29 230.803 42.9582 230.223 42.4603C229.795 41.9939 229.337 41.5572 228.85 41.1535C228.528 40.9203 228.154 40.7707 227.76 40.7182C227.366 40.6657 226.965 40.7119 226.594 40.8526C226.105 41.0877 225.653 41.7928 225.042 41.3415C224.431 40.8902 224.723 39.8561 225.042 39.386C225.622 38.7498 226.286 38.1962 227.017 37.7407C227.38 37.5101 227.673 37.1833 227.862 36.7967C228.051 36.4101 228.129 35.9786 228.088 35.5501C226.349 35.3621 224.713 36.4057 223.463 37.6185C222.314 38.9347 221.056 40.1519 219.702 41.2569C219.425 41.4034 219.189 41.6166 219.016 41.8774C218.875 42.1501 218.875 42.4885 218.668 42.7142C218.461 42.9398 218 42.9586 217.653 43.0244C216.148 43.3159 215.622 44.7731 214.381 45.4312C214.381 45.6099 214.381 45.7979 214.381 45.9765C214.41 46.3404 214.54 46.6889 214.757 46.9825Z" fill="#D9E3ED" stroke="white" stroke-width="0.5" stroke-linecap="round" stroke-linejoin="round"></path>
    <path d="M233.946 78.6191C234.087 77.741 234.087 76.8459 233.946 75.9678C233.79 75.5886 233.601 75.2236 233.382 74.8772C232.908 74.0231 232.626 73.0767 232.553 72.103C232.48 71.1293 232.618 70.1514 232.959 69.2362C233.27 68.6595 233.426 68.0113 233.41 67.3559C233.353 67.0268 233.194 66.7354 233.147 66.4157C232.987 65.3815 234.012 64.5354 234.087 63.4542C234.063 63.06 234.016 62.6676 233.946 62.279C233.969 61.3964 234.178 60.5285 234.557 59.7311C234.801 59.0542 236.042 55.1807 234.688 55.1995C234.087 55.1995 233.645 55.7824 233.391 56.3277C232.686 57.8132 232.535 59.5619 231.577 60.8969C231.247 61.3482 230.636 61.7525 230.185 61.3858C230.098 61.2912 230.032 61.1798 229.99 61.0586C229.948 60.9373 229.931 60.8087 229.941 60.6807C229.941 58.9884 231.727 57.7192 231.746 55.9799C231.746 55.7344 231.727 55.4892 231.689 55.2466C231.256 54.9087 230.899 54.4825 230.643 53.9962C230.387 53.5099 230.237 52.9747 230.204 52.4261C230.204 51.909 230.204 51.2603 229.715 51.0534C229.508 50.9888 229.292 50.957 229.076 50.9594C228.766 50.9083 228.488 50.7403 228.299 50.4901C228.11 50.2398 228.025 49.9265 228.06 49.615C226.585 49.7868 225.089 49.6491 223.67 49.2107C222.495 48.844 221.385 48.2705 220.191 47.9885C218.818 47.6594 217.371 47.7158 215.989 47.462C215.546 47.4277 215.13 47.2379 214.813 46.9261C214.608 46.6193 214.494 46.2608 214.484 45.8919C214.484 45.7133 214.484 45.5252 214.484 45.3466C214.302 45.4425 214.11 45.5182 213.911 45.5723C213.215 45.7603 211.25 46.1269 210.883 45.3372C210.601 44.7167 211.673 43.9364 211.194 43.1842C210.893 42.7141 210.16 43.0244 209.699 43.3535C208.465 44.1952 207.103 44.8303 205.666 45.2338C205.227 45.4043 204.741 45.4043 204.302 45.2338L203.663 45.7227C203.033 46.0989 202.574 46.706 202.384 47.415C202.381 47.8759 202.458 48.3338 202.61 48.7688C202.995 50.4423 202.196 51.7585 201.237 53.0372C200.532 53.9773 198.925 55.397 199.583 56.7132C200.006 57.5594 201.247 57.8696 201.463 58.791C201.698 59.9192 200.213 60.6713 200.053 61.8277C199.893 62.9841 201.322 63.9243 202.572 64.1687C203.823 64.4132 205.299 64.5636 205.938 65.6636C206.183 66.0867 206.258 66.6037 206.483 67.0174C207.48 68.8978 210.771 68.4747 211.73 70.3926C211.964 70.9904 212.067 71.6318 212.03 72.2729C212.089 74.5822 212.405 76.8778 212.971 79.1174C213.243 80.2267 213.864 81.5524 215.011 81.5712C215.377 81.5712 215.782 81.4396 216.111 81.5712C216.275 81.6711 216.401 81.8234 216.468 82.0037C222.194 80.4618 228.286 80.4618 234.124 79.2678C234.05 79.0558 233.991 78.8391 233.946 78.6191Z" fill="#D9E3ED" stroke="white" stroke-width="0.5" stroke-linecap="round" stroke-linejoin="round"></path>
    <path d="M239.803 109.757C239.474 109.246 239.241 108.679 239.117 108.084C239.117 107.398 239.54 106.796 239.671 106.119C239.737 105.643 239.718 105.159 239.615 104.69C238.609 98.2779 237.885 91.8284 237.396 85.3507C237.237 85.3084 237.084 85.2418 236.945 85.1532C235.929 84.3894 235.192 83.3124 234.848 82.0883C234.455 81.221 234.171 80.3084 234.002 79.3712C228.164 80.5652 222.072 80.5652 216.346 82.1071C216.431 82.2857 216.478 82.4832 216.543 82.6618C217.032 84.0626 218.499 84.89 219.223 86.1874C219.458 86.6638 219.594 87.1833 219.622 87.7141C219.649 88.2448 219.568 88.7756 219.383 89.2739C219.198 89.7722 218.914 90.2274 218.547 90.6117C218.18 90.996 217.738 91.3013 217.248 91.5088C216.092 91.9318 214.353 92.2609 214.513 93.4831C214.576 93.7588 214.678 94.0245 214.813 94.2728C216.036 97.0181 213.187 99.8386 212.792 102.819C212.687 103.637 212.769 104.469 213.033 105.251C213.297 106.033 213.735 106.745 214.315 107.332C215.077 108.093 216.064 108.61 216.872 109.325C217.597 109.967 218.178 110.754 218.578 111.635C218.978 112.516 219.188 113.472 219.195 114.439C220.135 113.856 221.451 113.302 222.213 114.092C223.153 115.032 222.109 116.545 222.137 117.852C222.203 120.475 226.189 121.077 227.318 123.493C227.995 124.932 227.524 126.85 228.624 127.997C229.377 128.767 230.599 128.89 231.577 129.332C231.544 128.941 231.589 128.548 231.708 128.175C231.78 127.914 231.932 127.683 232.143 127.514C232.354 127.345 232.613 127.247 232.883 127.235C233.41 127.235 233.824 127.705 234.228 128.015C234.632 128.326 235.347 128.457 235.629 128.015C235.807 127.733 235.695 127.348 235.77 127.009C235.892 126.408 236.541 126.069 237.067 125.778C237.594 125.486 238.092 124.838 237.782 124.264C237.556 123.888 236.936 123.578 237.152 123.183C237.206 123.103 237.277 123.036 237.359 122.985C237.652 122.681 237.876 122.317 238.016 121.918C238.155 121.518 238.207 121.094 238.167 120.673C238.167 119.827 237.951 118.99 237.989 118.144C238.203 116.695 238.677 115.296 239.389 114.016C239.742 113.371 239.961 112.661 240.032 111.929C240.103 111.197 240.025 110.458 239.803 109.757Z" fill="#D9E3ED" stroke="white" stroke-width="0.5" stroke-linecap="round" stroke-linejoin="round"></path>
    <path d="M211.908 72.3293C211.945 71.6882 211.842 71.0468 211.608 70.449C210.667 68.5687 207.358 68.9635 206.361 67.0738C206.136 66.6413 206.061 66.1337 205.816 65.72C205.177 64.62 203.701 64.4696 202.45 64.2251C201.2 63.9807 199.743 63.1439 199.931 61.8841C200.119 60.6243 201.576 60.0038 201.341 58.8474C201.153 57.9072 199.912 57.6157 199.461 56.7696C198.803 55.4534 200.401 54.0337 201.115 53.0936C202.055 51.8149 202.873 50.4987 202.488 48.8252C202.336 48.3902 202.259 47.9323 202.262 47.4714C202.452 46.7624 202.911 46.1553 203.541 45.7791L204.18 45.2902C204.073 45.225 203.982 45.1346 203.917 45.0269L209.21 38.2013C209.681 37.5273 210.248 36.9255 210.893 36.415C211.759 35.9047 212.661 35.4585 213.591 35.08C214.484 34.6193 215.519 33.8766 215.66 32.88C215.18 31.78 213.629 31.7518 212.454 32.0245C211.279 32.2971 209.887 32.645 209.013 31.827C208.778 31.6202 208.599 31.3287 208.298 31.2347C207.725 31.0467 207.236 31.6578 206.869 32.1749C206.502 32.692 205.76 33.115 205.365 32.6262C205.13 32.3441 205.205 31.8458 204.895 31.686C204.585 31.5262 204.265 31.686 203.955 31.686C203.259 31.7424 202.714 31.1125 202.074 30.7458C201.435 30.3792 200.382 30.5954 200.476 31.2911L199.348 28.4706C199.273 28.2732 199.16 28.0382 198.944 28.0005C198.862 27.9963 198.781 28.0092 198.705 28.0383C198.629 28.0675 198.559 28.1122 198.502 28.1698C197.561 28.8749 196.687 30.1723 195.681 29.6552C195.239 29.4296 194.882 28.8749 194.403 29.0065C193.923 29.1381 193.895 29.5518 193.575 29.7211C192.879 30.0971 192.278 29.0911 191.582 28.7809C190.828 28.5643 190.024 28.6074 189.297 28.9031C187.135 29.3544 186.477 26.6279 186.204 24.992C186.129 24.5595 186.035 24.0519 185.631 23.8544C185.404 23.7838 185.16 23.7972 184.942 23.8921C184.725 23.9871 184.548 24.1573 184.446 24.3715C184.249 24.8032 184.076 25.2458 183.929 25.6971C182.763 28.2544 178.034 27.5775 175.806 27.5775C174.706 27.5775 173.597 27.5775 172.487 27.5775C172.786 28.0221 173.035 28.4981 173.23 28.9971C173.578 30.0407 173.042 30.7552 173.051 31.7424C173.051 32.3629 173.446 32.6262 173.597 33.1809C173.832 34.0458 173.39 34.8167 173.456 35.6817C173.641 36.5891 174.009 37.4494 174.537 38.2107C175.66 40.2621 176.178 42.5896 176.032 44.9235C175.932 45.728 175.906 46.54 175.957 47.3491C176.122 48.152 176.368 48.9363 176.69 49.6902C177.412 51.6774 177.688 53.7989 177.498 55.9047C177.404 56.9576 177.216 58.114 177.79 59.0072C178.053 59.4115 178.448 59.7217 178.73 60.1354C179.022 60.7174 179.158 61.3653 179.125 62.0157C179.294 66.4846 179.46 70.9504 179.623 75.4131C179.623 75.9302 179.623 76.4567 179.623 76.9832C190.426 76.3532 201.247 75.6575 211.965 74.2473C211.965 73.561 211.927 72.9498 211.908 72.3293Z" fill="#D9E3ED" stroke="white" stroke-width="0.5" stroke-linecap="round" stroke-linejoin="round"></path>
    <path d="M197.966 102.245C200.211 101.813 202.487 101.559 204.772 101.484C205.755 101.534 206.74 101.464 207.706 101.277C208.505 100.897 209.391 100.738 210.272 100.816C211.269 101.014 212.021 101.851 212.858 102.424C213.441 99.6036 215.979 96.8959 214.813 94.2728C214.678 94.0245 214.576 93.7588 214.512 93.4831C214.353 92.2609 216.092 91.9318 217.248 91.5087C217.738 91.3013 218.179 90.996 218.547 90.6117C218.914 90.2274 219.198 89.7721 219.383 89.2739C219.568 88.7756 219.649 88.2448 219.622 87.7141C219.594 87.1833 219.458 86.6638 219.223 86.1874C218.499 84.89 217.032 84.0626 216.543 82.6618C216.412 82.2951 216.327 81.8626 215.989 81.7216C215.65 81.5806 215.255 81.7216 214.889 81.7216C213.742 81.7216 213.121 80.3772 212.848 79.2678C212.434 77.6294 212.154 75.9597 212.012 74.2755C201.284 75.6858 190.472 76.3815 179.67 77.0114C179.726 78.4013 179.597 79.7926 179.284 81.1481C179.122 81.6586 179.015 82.1849 178.965 82.7182C178.976 83.1863 179.049 83.651 179.181 84.1002C179.491 85.7356 180.032 87.3185 180.789 88.8011C181.033 89.2429 181.315 89.6472 181.55 90.0891C181.981 91.0643 182.348 92.066 182.65 93.0882C182.998 94.1882 183.355 95.2882 183.703 96.3788C184.012 97.2787 184.269 98.1952 184.474 99.1241C184.681 100.262 184.625 101.437 184.86 102.565C184.86 102.763 184.944 102.969 185.001 103.176C186.758 103.092 188.508 102.888 190.237 102.565C192.87 101.935 195.333 102.744 197.966 102.245Z" fill="#3FE0D1"></path>
    <path d="M224.497 139.053C224.445 139.263 224.445 139.482 224.497 139.692C224.723 140.332 225.663 140.19 226.311 139.974C227.042 139.742 227.795 139.587 228.558 139.514C228.709 138.846 228.859 138.188 228.991 137.52C229.097 136.588 229.419 135.693 229.931 134.907C230.44 134.309 231.13 133.893 231.896 133.722C231.793 132.378 231.699 131.033 231.605 129.689C231.605 129.548 231.605 129.416 231.605 129.275C230.664 128.833 229.405 128.711 228.652 127.94C227.552 126.793 228.023 124.875 227.346 123.437C226.217 121.068 222.231 120.466 222.165 117.796C222.165 116.498 223.152 114.975 222.241 114.035C221.479 113.245 220.153 113.8 219.223 114.383C219.216 113.415 219.006 112.46 218.606 111.578C218.206 110.697 217.625 109.91 216.9 109.268C216.092 108.554 215.105 108.037 214.343 107.275C213.763 106.688 213.325 105.977 213.061 105.195C212.797 104.413 212.715 103.581 212.82 102.763C212.833 102.63 212.855 102.498 212.886 102.368C212.049 101.794 211.297 100.957 210.3 100.76C209.419 100.682 208.533 100.841 207.734 101.221C206.768 101.408 205.783 101.477 204.8 101.427C202.515 101.502 200.239 101.757 197.994 102.189C195.361 102.687 192.879 101.879 190.266 102.368C188.536 102.691 186.786 102.895 185.029 102.979C185.185 103.739 185.573 104.431 186.138 104.962C186.453 105.212 186.726 105.51 186.947 105.846C188.047 107.398 190.651 108.037 190.801 109.964C190.867 110.839 190.35 111.685 190.425 112.559C190.557 114.129 192.155 114.496 192.917 115.652C194.017 117.316 193.857 119.732 193.857 121.632C193.678 127.498 194.534 133.318 195.324 139.138C205.214 137.436 215.208 136.458 225.202 135.49C224.939 136.712 224.713 137.887 224.497 139.053Z" fill="#D9E3ED" stroke="white" stroke-width="0.5" stroke-linecap="round" stroke-linejoin="round"></path>
    <path d="M220.417 160.902C220.944 158.887 221.754 156.956 222.824 155.167C225.387 150.208 227.326 144.95 228.596 139.514C227.833 139.587 227.08 139.742 226.349 139.974C225.701 140.191 224.76 140.332 224.535 139.692C224.483 139.482 224.483 139.263 224.535 139.053C224.751 137.887 224.977 136.712 225.193 135.546C215.199 136.486 205.205 137.492 195.314 139.194C195.813 142.823 196.255 146.452 196.471 150.1C196.696 154.726 196.706 159.577 197.204 164.202C197.512 164.473 197.875 164.674 198.267 164.792C198.66 164.911 199.073 164.944 199.479 164.889C199.978 164.813 200.589 164.644 200.908 165.03C201.057 165.244 201.13 165.502 201.115 165.763C201.19 167.286 201.237 168.819 201.247 170.342C207.715 169.064 214.255 168.179 220.831 167.69C220.245 165.477 220.105 163.17 220.417 160.902Z" fill="#3FE0D1"></path>
    <path d="M239.051 199.27C238.941 198.868 238.721 198.504 238.416 198.22C238.11 197.936 237.731 197.743 237.321 197.663C236.962 197.635 236.604 197.588 236.249 197.522C235.937 197.433 235.662 197.247 235.463 196.99C235.265 196.733 235.155 196.419 235.148 196.095C235.142 195.77 235.24 195.452 235.428 195.188C235.616 194.924 235.884 194.727 236.193 194.626C236.484 194.561 236.77 194.477 237.049 194.372C237.195 194.265 237.314 194.126 237.399 193.965C237.483 193.805 237.53 193.627 237.535 193.446C237.54 193.265 237.505 193.084 237.43 192.919C237.356 192.754 237.244 192.608 237.105 192.492C236.801 192.277 236.438 192.161 236.066 192.161C235.694 192.161 235.331 192.277 235.027 192.492C234.734 192.736 234.419 192.953 234.087 193.141C233.921 193.235 233.727 193.269 233.538 193.236C233.349 193.204 233.178 193.107 233.053 192.962C232.761 192.501 233.184 191.73 232.733 191.411C232.282 191.091 231.906 191.542 231.577 191.843C231.195 192.229 230.706 192.492 230.173 192.598C229.64 192.704 229.087 192.647 228.587 192.435C228.351 192.314 228.146 192.138 227.99 191.923C227.834 191.708 227.73 191.46 227.687 191.198C227.644 190.935 227.663 190.667 227.743 190.413C227.822 190.159 227.96 189.928 228.145 189.737C228.991 189.07 230.195 189.577 231.21 189.944C232.201 190.294 233.243 190.479 234.294 190.489H234.567C234.485 189.945 234.293 189.424 234.002 188.957C233.551 188.233 232.865 187.594 232.79 186.747C232.733 186.089 233.062 185.394 232.79 184.783C232.611 184.47 232.335 184.225 232.005 184.082C231.674 183.94 231.306 183.908 230.956 183.993C230.242 184.106 229.593 184.453 228.888 184.613C227.337 184.952 225.673 184.303 224.187 184.792C223.35 185.055 222.655 185.647 221.837 185.967C221.448 186.169 221.002 186.236 220.571 186.156C220.14 186.076 219.748 185.854 219.458 185.525C219.196 184.969 219.153 184.335 219.336 183.748C220.107 179.781 222.062 176.227 221.602 172.09C221.432 170.605 221.094 169.119 220.793 167.634C214.217 168.128 207.678 169.02 201.209 170.304C201.209 172.071 201.209 173.848 201.134 175.616C201.018 176.995 201.062 178.383 201.266 179.753C201.704 181.609 202.534 183.349 203.701 184.858C204.538 186.052 205.497 187.377 205.233 188.806C205.055 189.803 204.293 190.63 204.162 191.627C204.145 192.326 204.237 193.024 204.434 193.695C204.754 195.472 204.387 197.371 204.34 199.186C205.527 198.78 206.791 198.652 208.035 198.81C208.9 198.941 209.727 199.242 210.583 199.421C211.767 199.665 215.143 200.295 216.055 199.27C216.967 198.246 216.008 196.817 218.255 197.541C218.395 197.564 218.538 197.564 218.678 197.541C219.665 197.484 221.545 199.628 222.166 198.481C222.243 198.243 222.243 197.988 222.167 197.75C222.091 197.512 221.943 197.304 221.743 197.155C221.346 196.861 221.024 196.478 220.802 196.036C220.742 195.845 220.713 195.645 220.718 195.444C220.696 195.309 220.719 195.17 220.784 195.049C220.864 194.953 220.979 194.892 221.104 194.88C221.229 194.868 221.353 194.905 221.451 194.983C222.312 195.611 222.917 196.53 223.153 197.569C223.332 198.688 223.106 199.853 223.322 200.963C223.538 202.072 224.488 203.219 225.597 203.012C226.234 202.785 226.815 202.422 227.299 201.95C227.844 201.564 228.69 201.358 229.179 201.856C229.33 202.025 229.433 202.279 229.649 202.345C229.831 202.371 230.016 202.327 230.167 202.223C230.981 201.798 231.598 201.073 231.887 200.201C232.015 199.768 232.002 199.305 231.85 198.879C231.698 198.453 231.415 198.086 231.041 197.832C230.561 197.55 229.856 197.381 229.819 196.826C229.781 196.271 230.759 195.999 231.229 196.365C231.699 196.732 231.953 197.371 232.367 197.841C233.504 199.167 235.873 198.998 236.766 200.493C237.086 201.01 237.349 201.79 237.951 201.705C238.114 201.678 238.264 201.603 238.384 201.489C238.688 201.216 238.911 200.865 239.028 200.473C239.146 200.082 239.154 199.666 239.051 199.27Z" fill="#D9E3ED" stroke="white" stroke-width="0.5" stroke-linecap="round" stroke-linejoin="round"></path>
    <path d="M197.167 164.174C196.668 159.577 196.659 154.772 196.433 150.072C196.161 144.863 195.314 139.73 194.656 134.512L168.031 135.715C162.277 135.979 156.561 135.715 150.807 135.809C148.41 135.809 145.542 136.383 143.22 135.584V135.687C141.161 135.687 139.046 135.819 136.987 135.687C136.733 135.687 136.573 137.624 136.469 140.275C143.317 140.792 150.189 140.905 157.05 140.614L157.275 157.395C157.275 157.602 157.275 157.847 157.482 157.931C157.61 157.974 157.749 157.974 157.877 157.931C159.475 157.555 160.312 158.872 161.638 158.975C162.08 158.975 162.305 158.618 162.851 158.796C163.396 158.975 163.932 159.849 164.374 160.319C164.842 160.796 165.427 161.142 166.069 161.325C166.712 161.508 167.391 161.521 168.04 161.363C168.896 161.147 169.78 160.639 170.579 160.996C171.378 161.354 171.519 162.077 171.942 162.679C172.562 163.619 172.957 163.347 173.822 163.074C174.142 162.971 174.527 162.595 174.903 162.689C175.28 162.783 175.468 163.431 175.909 163.629C176.351 163.826 176.85 163.525 177.367 163.366C178.589 162.952 179.877 163.638 181.024 164.221C182.171 164.804 183.609 165.302 184.681 164.578C185.226 164.221 185.621 163.572 186.261 163.469C186.574 163.489 186.888 163.489 187.201 163.469C187.708 163.337 187.991 162.783 188.47 162.529C189.307 162.153 190.219 162.961 191.14 162.924C191.583 162.832 192.033 162.772 192.485 162.745C193.218 162.83 193.66 163.582 194.252 164.014C194.678 164.288 195.164 164.454 195.668 164.5C196.172 164.546 196.679 164.469 197.148 164.277L197.298 164.212C197.259 164.187 197.213 164.174 197.167 164.174Z" fill="#D9E3ED" stroke="white" stroke-width="0.5" stroke-linecap="round" stroke-linejoin="round"></path>
    <path d="M177.573 54.8423C177.615 53.0649 177.325 51.2954 176.718 49.6244C176.396 48.8705 176.15 48.0862 175.984 47.2834C175.934 46.4742 175.959 45.6622 176.06 44.8577C176.206 42.5238 175.687 40.1963 174.565 38.1449C174.037 37.3836 173.669 36.5233 173.484 35.6159C173.418 34.7509 173.86 33.98 173.625 33.1151C173.474 32.5604 173.089 32.2971 173.079 31.6766C173.079 30.7364 173.606 29.9749 173.258 28.9313C173.063 28.4323 172.814 27.9563 172.515 27.5117C170.494 27.5117 168.463 27.4459 166.432 27.4553L143.342 27.5587C140.38 27.5587 137.419 27.5587 134.448 27.5587L133.292 55.2089C148.052 55.8169 162.813 55.6947 177.573 54.8423Z" fill="#D9E3ED" stroke="white" stroke-width="0.5" stroke-linecap="round" stroke-linejoin="round"></path>
    <path d="M179.623 75.3473C179.454 70.8846 179.288 66.4189 179.125 61.9499C179.158 61.2995 179.022 60.6516 178.73 60.0696C178.476 59.6559 178.081 59.3457 177.79 58.9414C177.216 58.0012 177.404 56.8918 177.498 55.8389C177.498 55.5098 177.545 55.1807 177.545 54.8423C162.803 55.6884 148.043 55.8075 133.263 55.1995C132.9 63.8867 132.536 72.5675 132.173 81.2421L164.721 81.825C165.419 81.8018 166.117 81.8842 166.79 82.0695C168.031 82.4831 169.037 83.6019 170.344 83.6113C170.907 83.5638 171.465 83.4599 172.008 83.3011C174.574 82.784 176.972 84.4481 179.529 85.3036C179.407 84.8712 179.303 84.4387 179.2 84.0062C179.068 83.557 178.995 83.0923 178.984 82.6242C179.034 82.0909 179.141 81.5646 179.303 81.0541C179.687 79.1776 179.795 77.255 179.623 75.3473Z" fill="#D9E3ED" stroke="white" stroke-width="0.5" stroke-linecap="round" stroke-linejoin="round"></path>
    <path d="M186.919 105.903C186.698 105.567 186.425 105.268 186.11 105.019C185.414 104.319 184.974 103.405 184.86 102.424C184.625 101.296 184.681 100.121 184.474 98.983C184.269 98.0541 184.012 97.1376 183.703 96.2377C183.356 95.1471 182.998 94.0471 182.65 92.9471C182.348 91.9249 181.981 90.9232 181.55 89.948C181.315 89.5061 181.033 89.1019 180.789 88.66C180.221 87.6002 179.792 86.4723 179.51 85.3036C177 84.448 174.603 82.7839 171.989 83.301C171.446 83.4598 170.888 83.5638 170.325 83.6113C169.018 83.6113 168.012 82.4831 166.771 82.0694C166.098 81.8842 165.4 81.8018 164.703 81.825L132.154 81.2421L131.393 99.3685C135.783 99.2932 140.08 99.5565 144.461 99.8103C144.461 102.687 144.348 105.564 144.273 108.441C145.132 108.527 145.996 108.552 146.858 108.516L170.015 108.103C176.135 107.99 182.237 107.52 188.367 107.256C187.814 106.887 187.324 106.43 186.919 105.903Z" fill="#D9E3ED" stroke="white" stroke-width="0.5" stroke-linecap="round" stroke-linejoin="round"></path>
    <path d="M193.81 121.688C193.866 119.808 193.989 117.373 192.87 115.709C192.108 114.552 190.51 114.185 190.378 112.615C190.303 111.741 190.82 110.895 190.754 110.021C190.651 108.751 189.485 108.037 188.395 107.256C182.265 107.52 176.173 107.99 170.043 108.103L146.886 108.516C146.024 108.552 145.16 108.527 144.301 108.441C144.038 117.504 143.605 126.558 143.182 135.612C145.504 136.411 148.372 135.884 150.769 135.837C156.523 135.734 162.239 136.007 167.993 135.743L194.656 134.578C194.03 130.311 193.747 126 193.81 121.688Z" fill="#D9E3ED" stroke="white" stroke-width="0.5" stroke-linecap="round" stroke-linejoin="round"></path>
    <path d="M205.233 188.816C205.496 187.387 204.537 186.061 203.701 184.867C202.534 183.359 201.703 181.618 201.266 179.762C201.062 178.393 201.018 177.005 201.134 175.625C201.266 172.328 201.247 169.032 201.078 165.735C201.092 165.474 201.019 165.216 200.871 165.001C200.551 164.616 199.931 164.785 199.442 164.86C199.052 164.913 198.656 164.885 198.278 164.778C197.899 164.671 197.547 164.488 197.242 164.24L197.091 164.306C196.623 164.498 196.115 164.574 195.611 164.528C195.107 164.482 194.622 164.316 194.196 164.042C193.603 163.61 193.161 162.858 192.428 162.773C191.976 162.8 191.527 162.86 191.084 162.952C190.144 162.952 189.203 162.181 188.414 162.557C187.934 162.764 187.652 163.318 187.144 163.497C186.831 163.517 186.517 163.517 186.204 163.497C185.556 163.601 185.17 164.249 184.625 164.606C183.553 165.33 182.115 164.832 180.968 164.249C179.821 163.666 178.533 162.98 177.31 163.394C176.831 163.554 176.314 163.883 175.853 163.657C175.392 163.431 175.317 162.801 174.847 162.717C174.377 162.632 174.086 162.999 173.766 163.102C172.92 163.375 172.525 163.619 171.886 162.707C171.472 162.106 171.199 161.325 170.522 161.024C169.845 160.724 168.839 161.175 167.984 161.391C167.335 161.549 166.656 161.536 166.013 161.353C165.37 161.17 164.786 160.824 164.317 160.348C163.875 159.877 163.443 159.031 162.794 158.824C162.145 158.618 162.023 159.031 161.581 159.003C160.246 158.909 159.41 157.583 157.821 157.96C157.692 158.002 157.554 158.002 157.426 157.96C157.247 157.875 157.219 157.63 157.219 157.424L156.993 140.642C150.133 140.933 143.261 140.82 136.413 140.303C136.197 145.822 136.234 154.472 136.234 155.346C136.169 163.732 136.328 172.043 135.708 180.382C134.429 180.479 133.144 180.445 131.872 180.279L119.923 179.612L113.943 179.273C112.348 179.029 110.731 178.954 109.12 179.047C109.327 179.894 109.994 180.223 110.465 180.928C110.541 181.049 110.61 181.174 110.671 181.304C110.857 181.324 111.037 181.383 111.199 181.477C111.361 181.571 111.501 181.698 111.612 181.849C112.11 182.451 111.931 183.541 112.843 183.823C113.135 183.908 113.445 183.823 113.736 183.927C114.733 184.162 114.846 185.488 115.118 186.475C115.278 187.036 115.553 187.558 115.925 188.008C116.298 188.458 116.759 188.826 117.281 189.088C118.306 189.596 119.688 189.822 120.054 190.903C120.139 191.265 120.195 191.632 120.223 192.003C120.487 193.376 121.935 194.231 122.395 195.557C122.589 196.461 122.656 197.388 122.593 198.311C122.715 200.361 124.191 200.192 125.291 201.395C125.996 202.176 125.639 203.614 126.466 204.272C126.841 204.515 127.271 204.657 127.717 204.686C129.531 205.016 131.208 205.873 132.54 207.149C132.869 207.459 133.245 207.835 133.696 207.76C134.147 207.685 134.439 207.13 134.73 206.726C135.022 206.322 135.755 206.058 135.971 206.519C136.968 205.682 136.338 203.793 137.363 203.012C137.936 202.561 138.801 202.693 139.403 202.288C139.835 202.006 140.07 201.499 140.503 201.235C141.016 200.992 141.595 200.929 142.148 201.057L144.734 201.367C145.549 201.372 146.337 201.662 146.962 202.185C147.354 202.796 147.67 203.452 147.902 204.14C148.663 205.475 150.346 206.021 151.371 207.13C152.631 208.55 152.687 210.703 153.797 212.245C154.314 212.969 155.038 213.523 155.592 214.219C156.73 215.657 157.125 217.716 158.648 218.751C159.289 219.063 159.886 219.459 160.425 219.926C161.196 220.866 160.904 222.201 160.998 223.386C161.108 224.609 161.667 225.748 162.569 226.582C163.039 227.005 163.631 227.41 163.706 228.039C163.7 228.377 163.665 228.714 163.603 229.045C163.546 230.164 164.543 230.992 165.568 231.518C167.472 232.439 169.462 233.17 171.509 233.699L176.483 235.147C177.564 235.467 179.303 236.191 179.67 235.147C179.695 234.976 179.664 234.802 179.581 234.651C179.497 234.5 179.367 234.38 179.209 234.31C178.884 234.182 178.57 234.028 178.269 233.85C177.696 233.38 177.921 231.612 177.677 230.916C177.201 229.45 176.715 227.989 176.22 226.535C176.114 226.3 176.075 226.039 176.107 225.783C176.21 225.313 176.718 225.078 177.047 224.702C177.147 224.556 177.215 224.391 177.248 224.217C177.281 224.043 177.277 223.865 177.238 223.692C177.198 223.52 177.123 223.358 177.017 223.216C176.912 223.074 176.778 222.956 176.624 222.869C176.192 222.633 175.486 222.474 175.58 221.994C175.637 221.722 175.938 221.599 176.192 221.496C176.783 221.327 177.3 220.962 177.658 220.462C177.82 220.205 177.873 219.894 177.806 219.598C177.739 219.302 177.557 219.045 177.301 218.882C177.144 218.831 176.995 218.758 176.859 218.666C176.474 218.309 177.094 217.726 177.63 217.669C178.166 217.613 178.852 217.669 179.078 217.19C179.124 217.019 179.127 216.839 179.086 216.666C179.045 216.494 178.961 216.335 178.843 216.203C178.602 215.938 178.436 215.613 178.363 215.263C178.363 214.915 178.702 214.52 179.021 214.689C179.341 214.858 179.303 215.234 179.557 215.394C179.811 215.554 180.178 215.347 180.432 215.15L181.767 214.05C181.948 213.934 182.086 213.762 182.162 213.561C182.256 213.194 181.945 212.865 181.776 212.527C181.607 212.188 181.776 211.587 182.162 211.737C182.321 211.793 182.397 211.972 182.509 212.104C182.989 212.668 183.882 212.16 184.39 211.643C184.531 211.511 184.691 211.323 184.625 211.135C184.559 210.947 184.446 210.928 184.343 210.834C183.976 210.458 184.258 209.772 184.738 209.556C185.269 209.405 185.832 209.405 186.364 209.556C187.494 209.767 188.657 209.722 189.768 209.424C190.321 209.274 190.84 209.014 191.292 208.661C191.744 208.307 192.121 207.867 192.4 207.365C192.66 206.576 192.997 205.814 193.406 205.09C193.754 204.639 194.28 204.319 194.534 203.793C194.901 203.04 194.534 202.11 194.769 201.292C195.066 200.52 195.599 199.862 196.292 199.411C196.369 199.338 196.468 199.292 196.574 199.28C196.809 199.28 196.847 199.637 196.772 199.853C196.697 200.07 196.574 200.342 196.725 200.53C196.875 200.718 197.411 200.53 197.665 200.812C197.919 201.094 197.439 201.752 197.815 202.072C198.191 202.392 198.953 201.959 199.282 201.762C200.862 200.762 202.545 199.936 204.302 199.299C204.349 197.484 204.716 195.538 204.396 193.808C204.199 193.137 204.107 192.439 204.124 191.74C204.284 190.64 205.092 189.812 205.233 188.816Z" fill="#D9E3ED" stroke="white" stroke-width="0.5" stroke-linecap="round" stroke-linejoin="round"></path>
    <path d="M65.9476 28.4236C66.155 29.5597 66.5288 30.659 67.057 31.686C68.3168 34.5065 69.6236 37.327 71.8518 39.4235C72.1672 39.6555 72.3956 39.9865 72.5005 40.3637C72.5019 40.7781 72.3664 41.1813 72.1151 41.5107C71.4975 42.6622 71.3236 44.0002 71.6262 45.2714C71.768 45.6426 71.8102 46.0446 71.7484 46.4372C71.6174 46.7298 71.436 46.9971 71.2125 47.2269C70.5826 48.0261 71.0339 48.4303 70.8741 49.3235C70.7629 49.6237 70.718 49.9444 70.7424 50.2636C70.9399 51.0628 73.8356 49.756 74.5031 51.2978C74.7569 51.8713 74.6065 52.5671 74.851 53.1782C75.1612 53.9115 76.0356 54.3816 76.0638 55.1713C76.092 55.961 75.3116 56.5533 75.4809 57.2679C75.6501 57.9824 76.3552 58.114 76.8065 58.5465C77.2609 59.0785 77.5486 59.7324 77.6338 60.4268C77.7091 61.1369 78.0242 61.8002 78.527 62.3072C79.0441 62.7208 79.7774 62.3072 80.4073 62.3824C80.7928 62.4388 80.962 62.7302 81.3475 62.749C81.733 62.7678 82.2877 62.4012 82.8424 62.467C83.8389 62.5704 84.6193 63.9148 85.55 63.52C86.227 63.2285 86.2646 62.2132 86.8663 61.7901C87.8064 61.1038 89.0098 62.3918 89.6868 62.8995C89.5834 61.7736 89.5834 60.6407 89.6868 59.5149C89.6833 59.3487 89.7363 59.1863 89.8372 59.0542C89.9305 58.9817 90.0391 58.9313 90.1547 58.9069C90.2704 58.8824 90.39 58.8846 90.5047 58.9132C104.607 60.3704 118.804 61.8371 132.869 63.8866L134.392 27.5399C130.922 27.5399 127.453 27.3894 123.993 27.145C115.963 26.4305 107.974 25.3103 100.057 23.7886C89.2261 21.9083 78.433 19.9057 67.7151 17.5553C67.2388 19.843 66.753 22.1276 66.2578 24.4091C65.925 25.7196 65.82 27.0775 65.9476 28.4236Z" fill="#3FE0D1"></path>
    <path d="M19.9829 29.8997C20.2656 30.0027 20.5224 30.1664 20.735 30.3792C21.6404 31.0184 22.3265 31.9213 22.7 32.9647C22.8692 33.6698 22.7 34.4219 22.8598 35.1365C23.0196 35.851 23.5273 36.6125 24.2513 36.5561C24.6461 36.5561 25.0034 36.2741 25.3889 36.2741C26.141 36.2741 26.6017 37.139 27.3256 37.3177C28.0495 37.4963 28.8487 36.8758 29.6102 37.0356C30.3717 37.1954 30.9264 38.286 31.782 38.2954C32.2709 38.2954 32.7222 37.9476 33.1828 37.8441C34.3204 37.6091 35.223 38.7843 36.3324 39.1698C37.4418 39.5552 39.0213 38.9065 40.1495 39.5552C40.6947 39.8655 41.0896 40.4484 41.7195 40.4954C42.2283 40.4578 42.7241 40.317 43.1768 40.0817C44.0738 39.8974 45.0051 39.9791 45.8563 40.3168L51.1682 41.8775C53.0123 42.468 54.8979 42.9205 56.8092 43.2313C58.0274 34.1441 59.7696 25.1348 62.0271 16.2485C51.1622 13.7765 40.4486 10.6813 29.9393 6.97852C29.0743 8.35116 31.4529 9.94944 30.9828 11.5007C30.8136 12.0648 30.2871 12.4409 30.1743 13.052C29.9393 14.2366 31.5752 15.2144 31.3025 16.399C31.1333 17.1605 30.2777 17.5272 29.8641 18.1759C29.2529 19.116 29.9393 20.1878 29.582 21.0998C29.2247 22.0118 28.1435 22.5665 27.4196 23.0271C27.2132 23.1822 26.976 23.2912 26.7239 23.3468C25.8777 23.4784 25.2478 22.4818 25.3136 21.6263C25.3196 21.4325 25.3853 21.2454 25.5017 21.0904C25.7649 20.8083 26.2256 20.893 26.6111 20.8836C27.3914 20.8836 28.5854 20.169 28.4914 19.2571C28.3786 18.552 27.2598 18.4109 27.2692 17.6588C27.2786 16.9067 28.2094 16.8503 28.5854 16.3238C28.717 16.0954 28.7724 15.831 28.7437 15.569C28.7149 15.307 28.6035 15.0609 28.4256 14.8665C28.0682 14.4788 27.6279 14.1767 27.1376 13.9827L19.8795 10.4759C19.5139 10.2529 19.0949 10.1327 18.6667 10.1281C17.4539 10.2409 17.1906 11.8862 17.2752 13.099C17.4257 15.299 17.5667 17.499 17.7171 19.6802C17.7168 19.9756 17.781 20.2676 17.9051 20.5357C18.1026 20.8836 18.5257 21.128 18.5539 21.4759C18.5821 21.8237 17.9804 22.2844 17.8017 22.7639C17.4257 23.7605 19.0615 24.9263 18.3658 25.7348C18.112 26.0263 17.6701 26.0733 17.4257 26.3553C17.1812 26.6374 17.3128 27.4271 17.6513 27.8596C18.0625 28.2276 18.3567 28.7081 18.4974 29.2416H18.394C18.6221 29.4915 18.9101 29.6791 19.2308 29.7869C19.494 29.8621 19.7479 29.8433 19.9829 29.8997Z" fill="#D9E3ED" stroke="white" stroke-width="0.5" stroke-linecap="round" stroke-linejoin="round"></path>
    <path d="M53.3403 61.7431C53.5467 60.9294 53.4941 60.0716 53.1898 59.2893C53.0394 58.9696 52.8044 58.697 52.6539 58.3491C52.0522 57.0799 52.9266 55.6038 53.9044 54.5884C54.8821 53.5731 56.0761 52.5953 56.2736 51.2038C56.2813 50.6872 56.3476 50.1731 56.471 49.6714C56.7625 48.9098 57.6086 48.5056 58.0505 47.791C58.8496 46.5876 58.1915 44.9706 57.2795 43.833C57.1009 43.6073 56.9035 43.3911 56.706 43.1654C54.8367 42.8584 52.9922 42.4153 51.1873 41.8398L45.8753 40.2791C45.0241 39.9415 44.0929 39.8598 43.1959 40.0441C42.7432 40.2794 42.2474 40.4201 41.7386 40.4578C41.1181 40.3825 40.7138 39.7996 40.1685 39.5176C39.0403 38.8689 37.5831 39.5176 36.3515 39.1321C35.1199 38.7467 34.3395 37.5714 33.2019 37.8065C32.713 37.9099 32.2618 38.2672 31.8011 38.2578C30.9455 38.2578 30.466 37.186 29.6293 36.9979C28.7925 36.8099 28.0968 37.4586 27.3447 37.28C26.5926 37.1014 26.1601 36.227 25.4079 36.2364C25.0225 36.2364 24.6652 36.4997 24.2703 36.5185C23.5464 36.5749 23.0105 35.8133 22.8789 35.0988C22.7473 34.3843 22.8789 33.6322 22.7191 32.927C22.3406 31.8811 21.6476 30.9779 20.7353 30.3416C20.5227 30.1287 20.2659 29.965 19.9832 29.8621C19.7482 29.8057 19.4943 29.8621 19.2593 29.7681C18.9386 29.6603 18.6506 29.4726 18.4225 29.2228C18.0865 29.1127 17.7245 29.1106 17.3872 29.2169C17.05 29.3231 16.7544 29.5323 16.5422 29.8151C16.1084 30.4358 15.8193 31.1457 15.696 31.8928C14.2916 37.4675 12.1778 42.839 9.40633 47.8757C8.39096 49.756 7.27216 51.5329 6.43541 53.5167C5.99353 54.5602 6.25678 55.2089 5.8055 56.2619C5.18486 57.6994 4.89259 59.2571 4.94995 60.8217C5.02988 61.4806 5.02988 62.1467 4.94995 62.8055C4.82071 63.3123 4.65416 63.8088 4.45166 64.2909C19.3029 69.7818 34.4322 74.4891 49.777 78.3934C49.9651 72.7524 52.4471 67.3841 53.3403 61.7431Z" fill="#D9E3ED" stroke="white" stroke-width="0.5" stroke-linecap="round" stroke-linejoin="round"></path>
    <path d="M53.3682 162.2C53.3812 161.642 53.2654 161.088 53.0298 160.583C52.7382 159.768 52.558 158.917 52.4939 158.054C52.454 157.806 52.4935 157.553 52.6067 157.33C52.7788 157.127 52.9898 156.961 53.2272 156.841C54.1674 156.145 54.1674 154.65 54.9665 153.738C55.5504 153.219 56.198 152.777 56.8938 152.422C57.5426 151.98 58.0973 151.172 57.787 150.448C57.5614 149.931 56.9879 149.677 56.5648 149.301C55.4272 148.285 55.5494 146.819 55.7186 145.305C51.1785 139.23 46.988 132.902 43.1674 126.351C40.2811 121.528 37.0282 116.95 33.7658 112.324C31.0487 108.432 28.341 104.586 25.6992 100.638C25.5545 100.452 25.4518 100.237 25.3983 100.008C25.3655 99.8275 25.3655 99.6428 25.3983 99.4625C26.1504 94.7052 26.9778 90.0608 28.0778 85.4258C29.0368 81.3643 29.9769 77.2902 30.8983 73.2037C21.9667 70.5148 13.1198 67.547 4.35741 64.3003C4.21186 64.6742 4.14776 65.0748 4.16938 65.4755C4.22579 66.1994 4.68647 66.8481 4.68647 67.5721C4.68647 68.6533 3.66169 69.4524 3.30443 70.4772C2.94717 71.502 3.30443 72.9404 2.78734 74.0122C2.27025 75.084 0.907006 75.5635 0.295899 76.6165C0.0617092 77.1714 -0.0357597 77.7744 0.0116871 78.3749C0.0591339 78.9753 0.250109 79.5556 0.568547 80.0669C1.21095 81.0842 1.72564 82.1767 2.10101 83.3198C2.26084 84.19 2.26084 85.0821 2.10101 85.9523C1.62153 89.3557 0.643765 93.107 2.46769 96.0121C3.05059 96.9522 4.43263 97.8924 3.96254 98.8326C3.57278 99.7418 3.48668 100.752 3.71703 101.714C3.94738 102.677 4.48189 103.539 5.24117 104.173C5.88988 103.787 7.1215 102.217 7.1215 104.003L7.06509 106.354C7.07006 106.398 7.06594 106.442 7.053 106.484C7.04006 106.526 7.01857 106.565 6.98988 106.598C6.92152 106.646 6.8375 106.666 6.75484 106.655C5.81467 106.655 5.57023 106.73 5.48561 107.727C5.40422 108.699 5.52969 109.678 5.85379 110.598C6.17788 111.518 6.69324 112.36 7.36595 113.067C8.12748 113.866 9.18046 114.759 8.89841 115.831C8.66931 116.333 8.38217 116.806 8.04287 117.241C7.84032 117.753 7.7628 118.306 7.81676 118.853C7.87072 119.401 8.05459 119.928 8.35312 120.391C8.95429 121.309 9.44946 122.294 9.82917 123.324C9.91777 124.092 10.0751 124.85 10.2993 125.59C10.5573 126.057 10.8732 126.49 11.2394 126.878C12.2836 128.179 13.0369 129.689 13.4488 131.306C13.6312 131.941 13.7074 132.602 13.6745 133.261C13.5804 134.465 12.9411 135.64 13.1386 136.843C13.4488 138.724 15.5172 139.664 17.3599 140.002C18.2078 140.09 19.0312 140.339 19.7855 140.736C20.3831 141.177 20.8826 141.737 21.2522 142.381C22.2582 143.904 23.2735 145.615 25.0128 146.254C25.8496 146.565 26.9496 146.715 27.2316 147.571C27.3915 148.05 27.2316 148.605 27.4103 149.066C27.7111 149.733 28.5855 149.837 29.2906 150.072C31.1709 150.72 32.1111 152.892 32.8162 154.772C33.4068 156.029 33.6379 157.425 33.4837 158.806C33.3521 159.454 33.2111 160.385 33.8504 160.545L34.4427 159.859C34.5427 160.796 34.7188 161.723 34.9692 162.632C40.2529 163.121 45.5367 163.77 50.7828 164.569C50.6982 164.569 50.6794 164.569 50.6982 164.701C50.8717 164.534 51.0642 164.389 51.2717 164.268C52.0896 163.77 53.2178 163.234 53.3682 162.2Z" fill="#D9E3ED" stroke="white" stroke-width="0.5" stroke-linecap="round" stroke-linejoin="round"></path>
    <path d="M89.452 68.1737C89.7069 66.3831 89.7511 64.5687 89.5836 62.7678C88.8596 62.2131 87.7878 61.1695 86.9041 61.8276C86.3024 62.2507 86.2648 63.2661 85.5879 63.5575C84.6477 63.9524 83.8768 62.6174 82.8802 62.5045C82.3537 62.4387 81.893 62.8148 81.3853 62.7866C80.8776 62.7584 80.8024 62.4763 80.4452 62.4199C79.8341 62.3447 79.1007 62.7584 78.5648 62.3447C78.062 61.8377 77.7469 61.1745 77.6717 60.4644C77.5865 59.77 77.2987 59.116 76.8443 58.584C76.3931 58.1516 75.6691 57.9165 75.5187 57.3054C75.3683 56.6943 76.1204 55.9422 76.1016 55.2089C76.0828 54.4755 75.1614 53.949 74.8888 53.2157C74.6443 52.6328 74.7948 51.9371 74.5409 51.3354C73.8452 49.7935 70.9495 51.1003 70.7803 50.3012C70.7558 49.982 70.8007 49.6613 70.9119 49.361C71.0717 48.4209 70.6204 48.0636 71.2504 47.2645C71.4739 47.0346 71.6553 46.7673 71.7863 46.4747C71.8329 46.06 71.7646 45.6404 71.5888 45.2619C71.2862 43.9908 71.4601 42.6528 72.0777 41.5012C72.3291 41.1718 72.4646 40.7686 72.4632 40.3542C72.3583 39.9771 72.1298 39.646 71.8145 39.4141C69.5863 37.3175 68.2794 34.4594 67.0196 31.6765C66.5053 30.6504 66.1442 29.5544 65.9478 28.4235C65.8459 27.0763 65.9763 25.7215 66.3333 24.4184C66.8222 22.137 67.3079 19.8524 67.7906 17.5646C65.9102 17.151 64.0079 16.7216 62.0837 16.2766C59.8263 25.1629 58.0841 34.1721 56.8658 43.2594H56.7248C56.9222 43.485 57.1197 43.7012 57.2983 43.9269C58.2385 45.0457 58.8684 46.6816 58.0692 47.885C57.6274 48.5713 56.7812 48.9756 56.4898 49.7653C56.3663 50.267 56.3001 50.7811 56.2923 51.2978C56.0949 52.6892 54.9009 53.6764 53.9231 54.6824C52.9453 55.6883 52.0428 57.1644 52.6727 58.443C52.8231 58.7627 53.0582 59.0353 53.2086 59.3832C53.5129 60.1655 53.5654 61.0234 53.359 61.837C52.4847 67.337 50.0872 72.5737 49.7864 78.1207C50.3786 78.3443 50.9888 78.5173 51.6103 78.6378L86.9511 86.1591V86.2155C87.5528 83.8087 87.8161 81.3361 88.1827 78.8728C88.6904 75.2814 89.0665 71.7276 89.452 68.1737Z" fill="#D9E3ED" stroke="white" stroke-width="0.5" stroke-linecap="round" stroke-linejoin="round"></path>
    <path d="M90.5612 58.9226C90.4465 58.894 90.3269 58.8918 90.2112 58.9163C90.0956 58.9407 89.987 58.9911 89.8937 59.0636C89.7928 59.1957 89.7398 59.3581 89.7433 59.5243C89.6399 60.6501 89.6399 61.783 89.7433 62.9089L89.5647 62.7679C89.7321 64.5688 89.688 66.3831 89.433 68.1738C89.0664 71.7276 88.6903 75.2815 88.1544 78.8165C87.7877 81.2797 87.5245 83.7523 86.9228 86.1592L86.1331 94.7053C100.148 96.9583 114.269 98.4959 128.44 99.3121C129.434 99.3968 130.434 99.3684 131.421 99.2275C131.91 87.444 132.402 75.6669 132.897 63.896C118.86 61.8465 104.711 60.3798 90.5612 58.9226Z" fill="#D9E3ED" stroke="white" stroke-width="0.5" stroke-linecap="round" stroke-linejoin="round"></path>
    <path d="M55.2485 136.665C55.1357 135.875 55.0229 134.926 55.6246 134.409C56.7528 133.468 58.4451 135.217 59.8647 134.756C60.8613 134.437 61.1621 133.205 61.3032 132.171C62.4126 124.067 63.0049 115.859 64.4151 107.83C65.2487 103.06 66.0823 98.2905 66.9159 93.5207C67.7184 89.7753 68.2463 85.9764 68.4954 82.1541L51.5725 78.5439C50.951 78.4234 50.3408 78.2504 49.7485 78.0268V78.4593C43.4808 76.8484 37.213 75.1029 30.9452 73.2225C30.0239 77.2903 29.0837 81.3644 28.1247 85.4447C27.0247 90.1455 26.2444 94.7241 25.4453 99.4813C25.4125 99.6616 25.4125 99.8464 25.4453 100.027C25.4988 100.256 25.6014 100.471 25.7461 100.657C28.388 104.605 31.0957 108.451 33.8127 112.343C37.0375 116.95 40.2905 121.547 43.2144 126.37C46.8041 132.506 50.7078 138.453 54.91 144.186C55.5085 141.725 55.6234 139.17 55.2485 136.665Z" fill="#D9E3ED" stroke="white" stroke-width="0.5" stroke-linecap="round" stroke-linejoin="round"></path>
    <path d="M95.6287 132.068C94.0179 149.191 92.545 166.324 91.21 183.466C93.1467 183.72 95.0928 183.946 97.0578 184.115C97.5019 184.121 97.939 184.227 98.3364 184.425C98.5105 182.906 98.5765 181.376 98.5339 179.847L109.731 181.191C110.117 181.191 110.427 181.191 110.671 181.276C110.61 181.146 110.541 181.021 110.465 180.9C109.994 180.242 109.327 179.913 109.12 179.019C110.731 178.926 112.348 179.001 113.943 179.245L119.923 179.583L131.872 180.251C133.144 180.417 134.429 180.451 135.708 180.354C136.328 172.015 136.169 163.704 136.234 155.318C136.234 154.058 136.159 137.69 136.808 135.838C135.664 135.515 134.48 135.357 133.292 135.367C120.703 134.954 108.142 133.722 95.6287 132.068Z" fill="#D9E3ED" stroke="white" stroke-width="0.5" stroke-linecap="round" stroke-linejoin="round"></path>
    <path d="M131.44 99.3685V99.2274C130.453 99.3684 129.453 99.3968 128.459 99.3121C118.669 98.748 108.904 97.8391 99.1638 96.5856C97.9103 108.4 96.7288 120.228 95.6194 132.067C108.133 133.722 120.694 134.954 133.311 135.414C134.499 135.404 135.683 135.562 136.827 135.884C136.827 135.772 136.911 135.706 136.949 135.706C139.008 135.847 141.123 135.706 143.182 135.706C143.746 123.747 144.32 111.779 144.499 99.8009C140.127 99.5565 135.83 99.2933 131.44 99.3685Z" fill="#3FE0D1"></path>
    <path d="M61.9802 126.755C61.764 128.561 61.5478 130.366 61.3033 132.171C61.1623 133.205 60.8614 134.437 59.8649 134.756C58.464 135.217 56.7529 133.44 55.6247 134.408C55.023 134.926 55.1358 135.875 55.2487 136.665C55.6082 139.173 55.4773 141.728 54.8632 144.186C55.1453 144.562 55.4273 144.948 55.7187 145.324C55.5495 146.837 55.4273 148.304 56.5649 149.319C56.988 149.696 57.5615 149.949 57.7871 150.466C58.0974 151.19 57.5427 151.999 56.8939 152.441C56.1981 152.796 55.5505 153.238 54.9666 153.757C54.1863 154.697 54.2051 156.164 53.2273 156.86C52.9899 156.98 52.7789 157.146 52.6068 157.348C52.4936 157.572 52.4541 157.825 52.494 158.072C52.5581 158.936 52.7383 159.786 53.0299 160.601C53.2655 161.107 53.3813 161.661 53.3683 162.219C53.2179 163.253 52.0897 163.789 51.1965 164.325C50.9891 164.446 50.7966 164.591 50.623 164.757C50.9876 165.484 51.4634 166.151 52.0333 166.731C54.7034 168.555 57.5897 170.135 60.3256 171.921C64.9606 174.948 69.511 178.239 74.287 181.031C76.534 182.347 79.1006 182.075 81.6297 182.319C84.8357 182.63 88.0228 183.081 91.21 183.485C92.545 166.336 94.018 149.204 95.6288 132.086C84.375 130.573 73.1588 128.72 61.9802 126.755Z" fill="#3FE0D1"></path>
    <path d="M99.173 96.5856C94.8232 96.0215 90.4765 95.3947 86.133 94.7053C86.3962 91.8346 86.6626 88.9671 86.9321 86.1028L68.4955 82.1541C68.2371 85.977 67.6997 89.776 66.8878 93.5207C66.0479 98.2967 65.2143 103.066 64.3869 107.83C63.2869 114.082 62.6852 120.428 61.9519 126.755C73.1305 128.72 84.3466 130.573 95.6004 132.067C96.7411 120.234 97.932 108.407 99.173 96.5856Z" fill="#D9E3ED" stroke="white" stroke-width="0.5" stroke-linecap="round" stroke-linejoin="round"></path>
    <path d="M381.542 177.769L322.754 211.934L322.519 226.601L381.316 192.435C385.82 189.812 388.076 186.39 388.086 182.959L388.311 168.292C388.302 171.724 386.046 175.155 381.542 177.769Z" fill="#D9E3ED"></path>
    <path d="M230.637 177.769C226.049 175.118 223.764 171.648 223.773 168.179L223.538 182.846C223.538 186.315 225.823 189.784 230.411 192.435L289.585 226.601L289.82 211.934L230.637 177.769Z" fill="#D9E3ED"></path>
    <path d="M381.439 158.693C390.568 163.967 390.596 172.504 381.542 177.769L322.754 211.934C313.681 217.209 298.949 217.209 289.848 211.934L230.665 177.769C221.545 172.504 221.498 163.977 230.571 158.702L289.369 124.537C298.422 119.272 313.173 119.262 322.274 124.537L381.439 158.693Z" fill="white"></path>
    <path d="M315.712 191.147L376.437 155.807L322.255 124.527L315.712 191.147Z" fill="#D9E3ED"></path>
    <path d="M322.754 211.935L322.519 226.601C313.446 231.875 298.714 231.875 289.613 226.601L289.848 211.935C298.949 217.209 313.681 217.209 322.754 211.935Z" fill="#F5F5F5"></path>
    <path d="M269.023 164.813C293.628 152.92 284.649 132.218 287.093 99.6036C289.538 66.9893 311.839 74.4072 311.839 74.4072L358.527 100.732C358.527 100.732 336.226 93.2763 333.782 125.891C331.338 158.505 340.316 179.198 315.712 191.091L269.023 164.813Z" fill="#3FE0D1"></path>
    <path d="M296.589 95.8335L324.38 111.515" stroke="white" stroke-width="2" stroke-miterlimit="10" stroke-linecap="round"></path>
    <path d="M295.762 104.051L309.657 111.892" stroke="white" stroke-width="2" stroke-miterlimit="10" stroke-linecap="round"></path>
    <path d="M296.175 130.544L323.967 146.226" stroke="white" stroke-width="2" stroke-miterlimit="10" stroke-linecap="round"></path>
    <path d="M295.348 138.761L309.253 146.602" stroke="white" stroke-width="2" stroke-miterlimit="10" stroke-linecap="round"></path>
    <path d="M278.998 151.689V163.356C278.998 171.366 273.311 174.638 266.334 170.577C259.358 166.515 253.727 156.794 253.746 148.774V137.107L278.998 151.689Z" fill="#EFEFEF"></path>
    <path d="M278.999 151.689V163.356C278.999 167.342 277.588 170.144 275.323 171.46L286.887 164.719C289.162 163.403 290.563 160.602 290.572 156.615L290.647 144.92L278.999 151.689Z" fill="#D9E3ED"></path>
    <path d="M253.746 137.107L265.338 130.366L290.6 144.948L278.998 151.689L253.746 137.107Z" fill="white"></path>
    <path d="M265.93 150.354C266.756 150.894 267.442 151.622 267.932 152.478C268.422 153.335 268.703 154.295 268.751 155.28C268.751 156.606 268.064 157.339 267.087 157.292L267.773 162.933L265.893 161.842L264.012 160.752L264.727 155.882C263.727 154.808 263.138 153.417 263.063 151.952C263.072 150.175 264.323 149.451 265.93 150.354Z" fill="#002B31"></path>
    <path d="M264.163 127.385C262.865 128.138 262.066 129.736 262.057 132.011V138.733L267.858 135.358V128.636C267.858 126.37 268.666 124.762 269.964 124.01L264.163 127.385Z" fill="#D9E3ED"></path>
    <path d="M269.315 124.527C274.9 127.752 279.441 135.612 279.422 142.033V148.755L276.498 147.073V140.35C276.365 137.853 275.644 135.422 274.394 133.256C273.144 131.09 271.401 129.249 269.306 127.884C265.319 125.58 262.066 127.432 262.057 132.011V138.733L259.142 137.05V130.328C259.161 123.897 263.721 121.293 269.315 124.527Z" fill="#EFEFEF"></path>
    <path d="M275.116 121.152C272.295 119.535 269.747 119.385 267.905 120.456L262.104 123.822C263.984 122.75 266.494 122.882 269.315 124.527C274.899 127.752 279.44 135.612 279.422 142.033V148.755L285.222 145.39V138.658C285.241 132.237 280.7 124.386 275.116 121.152Z" fill="#D9E3ED"></path>
  </g>
  <defs>
    <clipPath id="clip0_251_142">
      <rect width="373" height="236" fill="white"></rect>
    </clipPath>
  </defs>
</svg>
