<?xml version="1.0" encoding="UTF-8"?>
<svg xmlns="http://www.w3.org/2000/svg" width="382" height="124" viewBox="0 0 382 124" fill="none">
  <path d="M192.779 40.6234C197.158 40.6234 201.27 41.602 204.361 43.3858L247.096 68.0608C250.094 69.795 251.741 72.0556 251.747 74.4401C251.754 76.8246 250.125 79.0481 247.17 80.7699L204.708 105.445C201.611 107.235 197.523 108.22 193.138 108.22C188.753 108.22 184.64 107.235 181.544 105.445L138.808 80.7699C135.811 79.0419 134.163 76.7751 134.157 74.403C134.151 72.0309 135.786 69.7888 138.74 68.067L181.209 43.3919C184.306 41.6082 188.388 40.6234 192.779 40.6234ZM192.779 40.0041C188.443 40.0041 184.17 40.9579 180.893 42.8593L138.431 67.5096C131.878 71.3186 131.915 77.4812 138.499 81.2778L181.234 105.959C184.529 107.86 188.84 108.814 193.138 108.814C197.436 108.814 201.741 107.86 205.017 105.959L247.48 81.2778C254.02 77.4812 253.996 71.3062 247.406 67.5034L204.67 42.8283C201.382 40.9269 197.077 39.9793 192.779 39.9793V40.0041Z" fill="#D5D8E2"></path>
  <path d="M188.505 34.7828L176.886 41.5399L176.762 85.1734L188.412 78.4224C188.717 78.2851 188.981 78.0695 189.175 77.7976C189.37 77.5256 189.489 77.207 189.521 76.874L189.645 33.2344C189.614 33.5718 189.492 33.8945 189.291 34.1674C189.09 34.4403 188.818 34.6531 188.505 34.7828Z" fill="#1F96A1"></path>
  <path d="M159.792 34.7828C159.483 34.6434 159.218 34.424 159.023 34.1474C158.828 33.8707 158.711 33.5469 158.683 33.2096L158.559 76.8492C158.59 77.1882 158.71 77.5128 158.909 77.7894C159.107 78.066 159.375 78.2846 159.687 78.4224L171.38 85.1734L171.504 41.5399L159.792 34.7828Z" fill="#2DC0BF"></path>
  <path d="M188.487 31.6613C189.986 32.5222 189.992 33.922 188.487 34.7581L176.886 41.54C176.049 41.9644 175.124 42.1856 174.186 42.1856C173.248 42.1856 172.322 41.9644 171.486 41.54L159.792 34.7829C158.293 33.922 158.287 32.5222 159.792 31.6861L171.411 24.9351C172.246 24.5079 173.171 24.2851 174.109 24.2851C175.046 24.2851 175.971 24.5079 176.806 24.9351L188.487 31.6613Z" fill="#3FE0D0"></path>
  <path d="M176.886 41.54L176.762 85.1734C175.926 85.6007 175.001 85.8235 174.062 85.8235C173.123 85.8235 172.198 85.6007 171.362 85.1734L171.485 41.54C172.322 41.9644 173.248 42.1855 174.186 42.1855C175.124 42.1855 176.049 41.9644 176.886 41.54Z" fill="#1F96A1"></path>
  <path d="M229.29 44.1537L217.671 50.9047L217.547 83.8357L229.166 77.0847C229.472 76.9467 229.737 76.7303 229.933 76.4573C230.128 76.1843 230.249 75.8645 230.281 75.5301L230.405 42.5991C230.372 42.9335 230.252 43.2533 230.056 43.5263C229.861 43.7992 229.596 44.0157 229.29 44.1537Z" fill="#5257D5"></path>
  <path d="M200.589 44.1537C200.277 44.0161 200.007 43.7978 199.808 43.5212C199.609 43.2447 199.487 42.9199 199.455 42.5805L199.332 75.5115C199.363 75.8509 199.485 76.1757 199.684 76.4523C199.884 76.7288 200.153 76.9472 200.465 77.0847L212.158 83.8356L212.282 50.9046L200.589 44.1537Z" fill="#7177F8"></path>
  <path d="M229.29 41.0259C230.782 41.893 230.789 43.2866 229.29 44.1537L217.671 50.9046C216.836 51.3319 215.911 51.5547 214.973 51.5547C214.036 51.5547 213.111 51.3319 212.276 50.9046L200.583 44.1537C199.084 43.2866 199.078 41.893 200.583 41.0259L212.202 34.275C213.037 33.8477 213.961 33.6249 214.899 33.6249C215.837 33.6249 216.761 33.8477 217.596 34.275L229.29 41.0259Z" fill="#9499FA"></path>
  <path d="M217.677 50.9046L217.553 83.8356C216.718 84.2629 215.794 84.4857 214.856 84.4857C213.918 84.4857 212.993 84.2629 212.158 83.8356L212.282 50.9046C213.117 51.3319 214.042 51.5547 214.98 51.5547C215.917 51.5547 216.842 51.3319 217.677 50.9046Z" fill="#5257D5"></path>
  <path d="M211.081 66.2709L199.455 73.0218L199.332 95.2504L210.957 88.4933C211.262 88.356 211.525 88.1404 211.72 87.8685C211.914 87.5965 212.034 87.2779 212.065 86.9449L212.189 64.7163C212.159 65.0504 212.04 65.3703 211.845 65.6434C211.65 65.9165 211.387 66.1331 211.081 66.2709Z" fill="#D9DEE2"></path>
  <path d="M182.367 66.2708C182.055 66.134 181.786 65.9158 181.588 65.6389C181.389 65.3621 181.269 65.0369 181.24 64.6976L181.116 86.92C181.145 87.2593 181.266 87.5845 181.464 87.8613C181.662 88.1382 181.932 88.3564 182.243 88.4932L193.937 95.2503L194.061 73.0217L182.367 66.2708Z" fill="#EFEFEF"></path>
  <path d="M211.062 63.174C212.555 64.0411 212.567 65.4347 211.062 66.2708L199.437 73.0218C198.602 73.449 197.677 73.6718 196.74 73.6718C195.802 73.6718 194.877 73.449 194.042 73.0218L182.367 66.2708C180.869 65.4037 180.862 64.0102 182.367 63.174L193.986 56.4169C194.821 55.9896 195.746 55.7668 196.684 55.7668C197.622 55.7668 198.546 55.9896 199.381 56.4169L211.062 63.174Z" fill="white"></path>
  <path d="M199.455 73.0464L199.332 95.275C198.496 95.6994 197.572 95.9205 196.634 95.9205C195.697 95.9205 194.773 95.6994 193.937 95.275L194.061 73.0464C194.896 73.4737 195.82 73.6965 196.758 73.6965C197.696 73.6965 198.621 73.4737 199.455 73.0464Z" fill="#D9DEE2"></path>
  <path d="M192.779 0.619354C197.158 0.619354 201.27 1.60413 204.361 3.38786L247.096 28.0629C250.094 29.7909 251.741 32.0577 251.747 34.4361C251.754 36.8144 250.125 39.0502 247.17 40.7659L204.714 65.4657C201.617 67.2556 197.529 68.2404 193.144 68.2404C188.759 68.2404 184.647 67.2556 181.55 65.4657L138.815 40.7906C135.817 39.0626 134.169 36.802 134.163 34.4237C134.157 32.0454 135.792 29.8095 138.746 28.0939L181.215 3.41264C184.312 1.6289 188.394 0.644128 192.785 0.644128M192.785 0.0247747C188.45 0.0247747 184.176 0.978578 180.9 2.87999L138.431 27.555C131.878 31.3641 131.915 37.5266 138.499 41.3295L181.234 66.0045C184.529 67.9059 188.84 68.8597 193.138 68.8597C197.436 68.8597 201.741 67.9059 205.017 66.0045L247.48 41.3295C254.02 37.5266 253.996 31.3579 247.406 27.5488L204.67 2.8738C201.382 0.972385 197.083 0 192.779 0L192.785 0.0247747Z" fill="#D5D8E2"></path>
  <path d="M133.618 35.3651V74.4215" stroke="#D5D8E2" stroke-miterlimit="10"></path>
  <path d="M251.971 35.3651V74.4215" stroke="#D5D8E2" stroke-miterlimit="10"></path>
  <path d="M322.41 40.6234C326.795 40.6234 330.907 41.602 333.992 43.3858L376.727 68.0608C379.725 69.795 381.378 72.0556 381.378 74.4401C381.378 76.8246 379.756 79.0481 376.801 80.7699L334.338 105.445C331.242 107.235 327.154 108.22 322.775 108.22C318.396 108.22 314.271 107.235 311.175 105.445L268.439 80.7699C265.448 79.0419 263.794 76.7751 263.794 74.403C263.794 72.0309 265.417 69.7888 268.377 68.067L310.84 43.3919C313.937 41.6082 318.025 40.6234 322.41 40.6234ZM322.41 40.0041C318.074 40.0041 313.801 40.9579 310.531 42.8593L268.068 67.5096C261.515 71.3186 261.546 77.4812 268.13 81.2778L310.865 105.959C314.166 107.86 318.471 108.814 322.775 108.814C327.08 108.814 331.372 107.86 334.648 105.959L377.111 81.2778C383.651 77.4812 383.633 71.3062 377.037 67.5034L334.301 42.8283C331.013 40.9269 326.708 39.9793 322.41 39.9793V40.0041Z" fill="#D5D8E2"></path>
  <path d="M322.589 63.9667L322.564 72.2846L321.431 52.7997L321.455 44.4818L322.589 63.9667Z" fill="#2DC0BF"></path>
  <path d="M346.763 49.9198C355.235 54.8065 358.388 61.6194 356.22 67.9306L322.589 63.9667L321.456 44.4819L321.722 44.1102C330.752 43.974 339.851 45.925 346.763 49.9198Z" fill="#9499FA"></path>
  <path d="M356.214 67.9307L356.195 76.2548L322.564 72.2847L322.589 63.9668L356.214 67.9307Z" fill="#2DC0BF"></path>
  <path d="M321.444 37.2604V37.6259L322.577 57.1107L288.333 56.033C288.748 51.3136 292.049 46.6684 298.243 43.0638C304.678 39.3415 313.014 37.4091 321.444 37.2604Z" fill="#3FE0D0"></path>
  <path d="M322.596 57.1105L322.571 67.0945L288.321 66.0168L288.352 56.0328L322.596 57.1105Z" fill="#2DC0BF"></path>
  <path d="M356.257 67.9617C354.987 71.6778 351.891 75.1771 346.967 78.0447C333.62 85.799 311.905 85.799 298.465 78.0447C291.268 73.8889 287.936 68.3519 288.388 62.9139L322.639 63.9978L356.257 67.9617Z" fill="white"></path>
  <path d="M322.41 0.619359C326.795 0.619359 330.907 1.60413 333.992 3.38787L376.727 28.0629C379.725 29.7909 381.378 32.0577 381.378 34.4361C381.378 36.8144 379.756 39.0502 376.801 40.7659L334.345 65.4657C331.248 67.2556 327.16 68.2404 322.781 68.2404C318.403 68.2404 314.278 67.2556 311.181 65.4657L268.445 40.7906C265.454 39.0626 263.8 36.802 263.8 34.4237C263.8 32.0454 265.423 29.8095 268.384 28.0939L310.846 3.41264C313.943 1.6289 318.031 0.644134 322.416 0.644134M322.416 0.0247803C318.08 0.0247803 313.807 0.978584 310.537 2.88L268.068 27.555C261.515 31.3641 261.546 37.5266 268.13 41.3295L310.865 66.0045C314.166 67.9059 318.471 68.8597 322.775 68.8597C327.08 68.8597 331.372 67.9059 334.648 66.0045L377.111 41.3295C383.651 37.5266 383.633 31.3579 377.037 27.5489L334.301 2.87381C331.013 0.97239 326.708 0.0247803 322.41 0.0247803H322.416Z" fill="#D5D8E2"></path>
  <path d="M263.255 35.3651V74.4215" stroke="#D5D8E2" stroke-miterlimit="10"></path>
  <path d="M60.2373 40.6234C64.6162 40.6234 68.7349 41.602 71.8193 43.3858L114.555 68.0608C117.552 69.795 119.206 72.0556 119.206 74.4401C119.206 76.8246 117.583 79.0481 114.629 80.7699L72.1661 105.445C69.0693 107.235 64.9816 108.22 60.6028 108.22C56.224 108.22 52.0991 107.235 49.0023 105.445L6.26689 80.7699C3.27541 79.0419 1.62174 76.7751 1.62174 74.403C1.62174 72.0309 3.24444 69.7888 6.20495 68.067L48.6678 43.3919C51.7646 41.6082 55.8523 40.6234 60.2373 40.6234ZM60.2373 40.0041C55.9328 40.0041 51.6283 40.9579 48.3582 42.8593L5.89528 67.5096C-0.657485 71.3186 -0.626514 77.4812 5.95721 81.2778L48.6926 105.959C51.9876 107.86 56.2983 108.814 60.6028 108.814C64.9073 108.814 69.1994 107.86 72.4758 105.959L114.939 81.2778C121.479 77.4812 121.46 71.3062 114.864 67.5034L72.1289 42.8283C68.8402 40.9269 64.5357 39.9793 60.2373 39.9793V40.0041Z" fill="#D5D8E2"></path>
  <path d="M96.3268 69.4976L65.099 51.4682C63.8585 50.8373 62.4866 50.5084 61.0949 50.5084C59.7032 50.5084 58.3312 50.8373 57.0908 51.4682L24.4818 70.6682C22.2769 71.9503 22.2893 74.0313 24.4818 75.3072L55.7096 93.3365C56.95 93.9675 58.322 94.2964 59.7137 94.2964C61.1054 94.2964 62.4774 93.9675 63.7178 93.3365L96.3268 74.1366C98.5565 72.8545 98.5441 70.7797 96.3268 69.4976Z" fill="#3FE0D0"></path>
  <path d="M96.3268 56.6337L65.099 38.6043C63.8585 37.9733 62.4866 37.6445 61.0949 37.6445C59.7032 37.6445 58.3312 37.9733 57.0907 38.6043L24.4818 57.8043C22.2769 59.0801 22.2893 61.1611 24.4818 62.437L55.7344 80.5159C56.9748 81.1469 58.3468 81.4758 59.7385 81.4758C61.1302 81.4758 62.5022 81.1469 63.7426 80.5159L96.3516 61.316C98.5564 59.9906 98.5441 57.9157 96.3268 56.6337Z" fill="#9499FA"></path>
  <path d="M96.3268 39.2794L65.099 21.25C63.8585 20.619 62.4866 20.2902 61.0949 20.2902C59.7032 20.2902 58.3312 20.619 57.0907 21.25L24.4818 40.4499C22.2769 41.732 22.2893 43.8068 24.4818 45.0889L55.7344 63.174C56.9748 63.805 58.3468 64.1338 59.7385 64.1338C61.1302 64.1338 62.5022 63.805 63.7426 63.174L96.3516 43.9741C98.5564 42.6363 98.5441 40.5614 96.3268 39.2794Z" fill="white"></path>
  <path d="M60.2373 0.619354C64.6162 0.619354 68.7349 1.60413 71.8193 3.38786L114.555 28.0629C117.552 29.7909 119.206 32.0577 119.206 34.4361C119.206 36.8144 117.583 39.0502 114.629 40.7659L72.1723 65.4657C69.0755 67.2556 64.9878 68.2404 60.609 68.2404C56.2301 68.2404 52.1053 67.2556 49.0085 65.4657L6.27308 40.7906C3.2816 39.0626 1.62793 36.802 1.62793 34.4237C1.62793 32.0454 3.25064 29.8095 6.21115 28.0939L48.674 3.41264C51.7708 1.6289 55.8585 0.644128 60.2435 0.644128M60.2435 0.0247747C55.939 0.0247747 51.6345 0.978578 48.3644 2.87999L5.89528 27.555C-0.657485 31.3641 -0.626514 37.5266 5.95721 41.3295L48.6926 66.0045C51.9876 67.9059 56.2983 68.8597 60.6028 68.8597C64.9073 68.8597 69.1994 67.9059 72.4758 66.0045L114.939 41.3295C121.479 37.5266 121.46 31.3579 114.864 27.5488L72.1289 2.8738C68.8402 0.972385 64.5419 0 60.2373 0L60.2435 0.0247747Z" fill="#D5D8E2"></path>
  <path d="M1.08276 35.3651V74.4215" stroke="#D5D8E2" stroke-miterlimit="10"></path>
  <path d="M119.429 35.3651V74.4215" stroke="#D5D8E2" stroke-miterlimit="10"></path>
  <path d="M356.22 67.9307V68.0174C354.938 71.6902 351.885 75.1895 346.93 78.0448C340.222 81.9405 331.403 83.8791 322.583 83.8605V92.1846C331.396 92.1846 340.204 90.2584 346.905 86.3627C351.86 83.5013 354.957 79.9771 356.195 76.2796V76.1805C356.61 74.9557 356.819 73.6708 356.815 72.3777V64.0598C356.829 65.3739 356.629 66.6816 356.22 67.9307Z" fill="#D9DEE2"></path>
  <path d="M298.441 78.0386C291.678 74.1305 288.308 69.0084 288.321 63.8926V72.2105C288.321 77.3264 291.678 82.4546 298.441 86.3565C305.204 90.2585 313.881 92.1599 322.596 92.1785V83.8605C313.863 83.8419 305.13 81.9034 298.441 78.0386Z" fill="#EFEFEF"></path>
  <path d="M68.06 22.9594C67.4407 27.363 71.4975 34.7271 61.7488 35.3465C49.4609 36.1578 59.2714 55.2091 54.6634 54.8747C50.0554 54.5402 49.5166 59.5322 49.5166 59.5322" stroke="#DEDFE2" stroke-miterlimit="10"></path>
  <path d="M40.6905 42.1159C40.8135 42.1661 40.9189 42.2519 40.993 42.3622C41.0671 42.4725 41.1067 42.6024 41.1067 42.7353C41.1067 42.8682 41.0671 42.9981 40.993 43.1084C40.9189 43.2187 40.8135 43.3044 40.6905 43.3546L35.9772 46.0984C35.6382 46.2694 35.2637 46.3584 34.884 46.3584C34.5043 46.3584 34.1299 46.2694 33.7909 46.0984L29.0466 43.3546C28.9236 43.3044 28.8182 43.2187 28.7441 43.1084C28.67 42.9981 28.6304 42.8682 28.6304 42.7353C28.6304 42.6024 28.67 42.4725 28.7441 42.3622C28.8182 42.2519 28.9236 42.1661 29.0466 42.1159L33.7599 39.3722C34.0989 39.2012 34.4734 39.1122 34.8531 39.1122C35.2328 39.1122 35.6072 39.2012 35.9462 39.3722L40.6905 42.1159Z" fill="#9499FA"></path>
  <path d="M50.216 47.7893C50.339 47.8395 50.4444 47.9252 50.5185 48.0355C50.5926 48.1459 50.6322 48.2758 50.6322 48.4087C50.6322 48.5416 50.5926 48.6715 50.5185 48.7818C50.4444 48.8921 50.339 48.9778 50.216 49.028L45.5027 51.7656C45.1626 51.9366 44.7871 52.0257 44.4064 52.0257C44.0257 52.0257 43.6503 51.9366 43.3102 51.7656L38.5659 49.028C38.4429 48.9778 38.3375 48.8921 38.2634 48.7818C38.1893 48.6715 38.1497 48.5416 38.1497 48.4087C38.1497 48.2758 38.1893 48.1459 38.2634 48.0355C38.3375 47.9252 38.4429 47.8395 38.5659 47.7893L43.2792 45.0518C43.6189 44.8793 43.9945 44.7894 44.3755 44.7894C44.7564 44.7894 45.132 44.8793 45.4717 45.0518L50.216 47.7893Z" fill="#3FE0D0"></path>
  <path d="M225.022 94.3151L249.437 108.387C252.035 109.878 254.979 110.663 257.975 110.663C260.971 110.663 263.914 109.878 266.513 108.387L290.897 94.4452" stroke="#D5D8E2" stroke-miterlimit="10"></path>
  <path d="M92.6604 94.3151L117.082 108.387C119.68 109.878 122.623 110.663 125.619 110.663C128.615 110.663 131.559 109.878 134.157 108.387L159.922 93.6648" stroke="#D5D8E2" stroke-miterlimit="10"></path>
  <path d="M124.799 123.208C132.734 123.208 139.168 116.775 139.168 108.839C139.168 100.903 132.734 94.4701 124.799 94.4701C116.863 94.4701 110.43 100.903 110.43 108.839C110.43 116.775 116.863 123.208 124.799 123.208Z" fill="white"></path>
  <path d="M259.093 123.208C267.029 123.208 273.462 116.775 273.462 108.839C273.462 100.903 267.029 94.4701 259.093 94.4701C251.157 94.4701 244.724 100.903 244.724 108.839C244.724 116.775 251.157 123.208 259.093 123.208Z" fill="white"></path>
  <path fill-rule="evenodd" clip-rule="evenodd" d="M128.18 107.526V104.621C128.18 103.724 127.824 102.864 127.19 102.23C126.556 101.596 125.696 101.24 124.799 101.24C123.902 101.24 123.042 101.596 122.408 102.23C121.773 102.864 121.417 103.724 121.417 104.621V107.526H121.343C121.014 107.526 120.699 107.657 120.467 107.889C120.235 108.121 120.104 108.436 120.104 108.765V114.104C120.104 114.432 120.235 114.747 120.467 114.979C120.699 115.212 121.014 115.342 121.343 115.342H128.261C128.589 115.342 128.904 115.212 129.137 114.979C129.369 114.747 129.5 114.432 129.5 114.104V108.765C129.5 108.436 129.369 108.121 129.137 107.889C128.904 107.657 128.589 107.526 128.261 107.526H128.18ZM126.942 107.526V104.621C126.942 104.058 126.718 103.518 126.319 103.119C125.921 102.721 125.381 102.497 124.817 102.497C124.254 102.497 123.714 102.721 123.315 103.119C122.917 103.518 122.693 104.058 122.693 104.621V107.526H126.942ZM125.245 111.366C125.355 111.295 125.445 111.198 125.508 111.084C125.571 110.969 125.604 110.84 125.604 110.71C125.605 110.573 125.571 110.438 125.504 110.318C125.437 110.198 125.34 110.098 125.223 110.028C125.105 109.957 124.971 109.918 124.834 109.915C124.697 109.912 124.562 109.945 124.442 110.011C124.321 110.076 124.22 110.172 124.148 110.288C124.076 110.405 124.036 110.538 124.031 110.675C124.027 110.812 124.058 110.948 124.122 111.069C124.186 111.19 124.28 111.293 124.396 111.366L124.049 112.685C124.035 112.723 124.03 112.763 124.036 112.803C124.042 112.843 124.059 112.88 124.084 112.912C124.109 112.943 124.142 112.967 124.179 112.982C124.217 112.996 124.257 113.001 124.297 112.995H125.344C125.383 113.001 125.424 112.996 125.461 112.982C125.499 112.967 125.532 112.943 125.557 112.912C125.582 112.88 125.598 112.843 125.604 112.803C125.611 112.763 125.606 112.723 125.591 112.685L125.245 111.366Z" fill="#04353B"></path>
  <path fill-rule="evenodd" clip-rule="evenodd" d="M262.475 107.526V104.621C262.475 103.724 262.119 102.864 261.484 102.23C260.85 101.596 259.99 101.24 259.093 101.24C258.196 101.24 257.336 101.596 256.702 102.23C256.068 102.864 255.711 103.724 255.711 104.621V107.526H255.637C255.309 107.526 254.994 107.657 254.761 107.889C254.529 108.121 254.398 108.436 254.398 108.765V114.104C254.398 114.432 254.529 114.747 254.761 114.979C254.994 115.212 255.309 115.342 255.637 115.342H262.549C262.878 115.342 263.193 115.212 263.425 114.979C263.657 114.747 263.788 114.432 263.788 114.104V108.765C263.788 108.436 263.657 108.121 263.425 107.889C263.193 107.657 262.878 107.526 262.549 107.526H262.475ZM261.236 107.526V104.621C261.236 104.058 261.012 103.518 260.614 103.119C260.215 102.721 259.675 102.497 259.112 102.497C258.548 102.497 258.008 102.721 257.61 103.119C257.211 103.518 256.987 104.058 256.987 104.621V107.526H261.236ZM259.539 111.366C259.649 111.295 259.74 111.198 259.803 111.084C259.865 110.969 259.898 110.84 259.898 110.71C259.9 110.573 259.865 110.438 259.798 110.318C259.731 110.198 259.635 110.098 259.517 110.028C259.4 109.957 259.266 109.918 259.129 109.915C258.992 109.912 258.856 109.945 258.736 110.011C258.616 110.076 258.515 110.172 258.443 110.288C258.371 110.405 258.33 110.538 258.326 110.675C258.321 110.812 258.352 110.948 258.416 111.069C258.48 111.19 258.575 111.293 258.691 111.366L258.344 112.685C258.329 112.723 258.325 112.763 258.331 112.803C258.337 112.843 258.353 112.88 258.378 112.912C258.403 112.943 258.436 112.967 258.474 112.982C258.511 112.996 258.552 113.001 258.591 112.995H259.638C259.678 113.001 259.718 112.996 259.756 112.982C259.793 112.967 259.826 112.943 259.851 112.912C259.876 112.88 259.893 112.843 259.899 112.803C259.905 112.763 259.901 112.723 259.886 112.685L259.539 111.366Z" fill="#04353B"></path>
</svg>
