<?xml version="1.0" encoding="UTF-8"?>
<svg xmlns="http://www.w3.org/2000/svg" width="320" height="190" viewBox="0 0 320 190" fill="none">
  <g clip-path="url(#clip0_251_254)">
    <path d="M49.4678 167.811L287.74 29.3167" stroke="#D9DEE2" stroke-miterlimit="10"></path>
    <path d="M238.513 89.715C246.979 94.6033 247.007 102.524 238.617 107.406L184.1 139.09C175.689 143.979 162.024 143.979 153.564 139.09L98.6882 107.406C90.2356 102.524 90.1941 94.6103 98.6052 89.7219L153.121 58.0099C161.519 53.1284 175.191 53.1215 183.643 58.0099L238.513 89.715Z" fill="#7177F8"></path>
    <path d="M231.202 91.1136L182.459 119.447L182.266 131.612L231.008 103.279C234.74 101.105 236.616 98.2661 236.623 95.4203L236.809 83.2617C236.803 86.1075 234.933 88.9463 231.202 91.1136Z" fill="#D9DEE2"></path>
    <path d="M106.089 91.1136C102.288 88.9187 100.391 86.0383 100.398 83.1648L100.211 95.3234C100.211 98.2038 102.101 101.084 105.902 103.279L154.99 131.612L155.184 119.447L106.089 91.1136Z" fill="#D9DEE2"></path>
    <path d="M231.14 75.3199C238.706 79.6889 238.755 86.7722 231.23 91.1343L182.487 119.467C174.962 123.843 162.751 123.843 155.184 119.467L106.116 91.1343C98.5635 86.7722 98.5012 79.6959 106.04 75.3268L154.79 46.9937C162.294 42.6315 174.519 42.6246 182.079 46.9937L231.14 75.3199Z" fill="white"></path>
    <path d="M182.46 119.447L182.266 131.612C174.748 135.981 162.536 135.981 154.963 131.612L155.156 119.447C162.723 123.823 174.935 123.823 182.46 119.447Z" fill="#F5F5F5"></path>
    <path d="M307.497 40.4229L275.854 58.82L275.729 66.7134L307.373 48.3163C309.796 46.9314 311.007 45.0689 311.014 43.2202L311.139 35.3268C311.132 37.1755 309.92 39.0173 307.497 40.4229Z" fill="#D9DEE2"></path>
    <path d="M226.294 40.4228C223.83 39.038 222.597 37.127 222.597 35.2644L222.48 43.1578C222.48 45.0273 223.705 46.8968 226.17 48.3231L258.014 66.7133L258.139 58.8199L226.294 40.4228Z" fill="#D9DEE2"></path>
    <path d="M307.442 30.1545C312.35 32.9934 312.371 37.5909 307.497 40.4229L275.854 58.82C270.966 61.6589 263.04 61.6589 258.125 58.82L226.294 40.4229C221.393 37.5909 221.365 33.0003 226.246 30.1615L257.889 11.7643C262.735 8.9324 270.703 8.9324 275.604 11.7643L307.442 30.1545Z" fill="white"></path>
    <path d="M275.854 58.8199L275.729 66.7133C270.849 69.5522 262.915 69.5522 258 66.7133L258.125 58.8199C263.04 61.6588 270.966 61.6588 275.854 58.8199Z" fill="#F5F5F5"></path>
    <path d="M112.603 153.797L80.9591 172.194L80.8345 180.087L112.478 161.69C114.901 160.305 116.112 158.443 116.119 156.594L116.223 148.715C116.223 150.549 115.026 152.391 112.603 153.797Z" fill="#D9DEE2"></path>
    <path d="M31.3789 153.797C28.9144 152.37 27.6821 150.501 27.6891 148.638L27.5645 156.532C27.5645 158.401 28.7898 160.271 31.2612 161.69L63.1055 180.087L63.2232 172.194L31.3789 153.797Z" fill="#D9DEE2"></path>
    <path d="M112.547 143.528C117.456 146.367 117.476 150.965 112.603 153.797L80.9592 172.194C76.0787 175.033 68.1453 175.033 63.2302 172.194L31.3858 153.797C26.4845 150.965 26.4569 146.374 31.3373 143.535L62.974 125.173C67.8199 122.341 75.7879 122.341 80.6961 125.173L112.547 143.528Z" fill="white"></path>
    <path d="M102.253 144.83C105.916 146.949 105.929 150.369 102.295 152.495L78.6748 166.226C75.0334 168.344 69.1145 168.344 65.4455 166.226L41.673 152.495C38.0178 150.383 37.9971 146.956 41.673 144.837L65.2932 131.107C68.9276 129.03 74.8534 128.988 78.5155 131.107L102.253 144.83Z" fill="#3FE0D0"></path>
    <path d="M80.9592 172.194L80.8346 180.087C75.9888 182.926 68.0207 182.926 63.1125 180.087L63.2302 172.194C68.1453 175.026 76.0718 175.026 80.9592 172.194Z" fill="#F5F5F5"></path>
    <path d="M143.595 91.0859C144.872 90.4046 146.303 90.0636 147.749 90.0957C148.545 90.0878 149.339 90.1856 150.11 90.3865C150.852 90.578 151.639 90.4944 152.325 90.1511C152.893 89.8188 153.066 89.3341 152.768 88.9117C152.509 88.5754 152.364 88.1657 152.353 87.7416C152.394 87.2747 152.56 86.8275 152.833 86.4464C153.105 86.0653 153.475 85.7642 153.903 85.5743C155.05 84.9532 156.338 84.6428 157.642 84.6742C158.19 84.6714 158.737 84.7225 159.275 84.8266C160.221 85.0364 161.21 84.9167 162.079 84.4873L162.335 84.3419C163.027 83.9472 163.325 83.3656 163.027 82.8255C162.885 82.5767 162.808 82.2953 162.806 82.0085C162.84 81.5895 162.987 81.1875 163.231 80.8451C163.474 80.5026 163.806 80.2323 164.191 80.0628C165.222 79.5109 166.378 79.2343 167.548 79.2596C167.865 79.2604 168.182 79.2789 168.496 79.315C169.771 79.4762 171.063 79.234 172.193 78.6226C172.585 78.4526 172.907 78.1544 173.107 77.7769C173.307 77.3994 173.373 76.9652 173.294 76.5454C173.283 76.4465 173.283 76.3466 173.294 76.2477C173.327 75.8801 173.457 75.5278 173.671 75.2272C173.885 74.9266 174.176 74.6885 174.512 74.5375C175.419 74.0571 176.435 73.8186 177.461 73.8451C177.634 73.8451 177.794 73.8451 177.96 73.8451C179.332 73.9397 180.702 73.6368 181.906 72.9726L182.286 72.7511C182.713 72.55 183.075 72.2345 183.333 71.8396C183.591 71.4448 183.734 70.9861 183.747 70.5146C183.773 70.1948 183.884 69.8878 184.069 69.6259C184.254 69.364 184.506 69.1567 184.799 69.0259C185.831 68.4887 187.006 68.2901 188.157 68.4582C189.507 68.6243 190.614 69.2683 190.926 70.0507C191.237 70.8331 190.815 71.484 189.957 71.9894C189.173 72.4117 188.292 72.6217 187.402 72.5987C186.054 72.5514 184.717 72.8443 183.512 73.4504L183.138 73.672C182.093 74.2743 181.476 75.1191 181.65 75.9638C181.672 76.0592 181.683 76.1567 181.684 76.2546C181.651 76.6222 181.521 76.9745 181.307 77.2751C181.093 77.5757 180.802 77.8138 180.466 77.9649C179.559 78.4461 178.543 78.6846 177.517 78.6573H177.011C175.786 78.5232 174.549 78.7443 173.446 79.2943C172.477 79.8551 171.965 80.6791 172.249 81.4407C172.317 81.6174 172.352 81.8052 172.352 81.9946C172.318 82.4136 172.172 82.8156 171.928 83.158C171.684 83.5005 171.352 83.7708 170.968 83.9403C169.938 84.4898 168.784 84.7641 167.617 84.7365C167.139 84.7444 166.661 84.7026 166.191 84.6119C165.302 84.4525 164.386 84.5963 163.588 85.0204L163.332 85.1728C163.179 85.2303 163.04 85.3205 162.925 85.4371C162.81 85.5538 162.722 85.694 162.666 85.8482C162.611 86.0024 162.59 86.1667 162.604 86.3299C162.619 86.493 162.669 86.6511 162.751 86.793C162.918 87.0791 163.008 87.4034 163.014 87.7346C162.973 88.2017 162.809 88.6496 162.538 89.0318C162.266 89.4141 161.898 89.7168 161.47 89.9088C160.317 90.526 159.025 90.836 157.718 90.8089C157.044 90.8069 156.373 90.7279 155.717 90.5735C154.996 90.3992 154.237 90.4902 153.578 90.8297C152.997 91.169 152.844 91.6883 153.183 92.1106C153.495 92.5065 153.672 92.9917 153.689 93.4954C153.689 94.4025 153.08 95.2611 151.979 95.8981C150.698 96.5681 149.27 96.9062 147.825 96.8813C146.378 96.9113 144.948 96.5679 143.672 95.8842C142.564 95.2403 141.948 94.3886 141.941 93.4816C141.934 92.5745 142.529 91.7229 143.595 91.0859Z" fill="#7177F8"></path>
    <path d="M133.661 85.339C134.936 84.6523 136.368 84.3088 137.815 84.342C138.609 84.3422 139.399 84.4398 140.169 84.6328C140.911 84.8301 141.7 84.7463 142.384 84.3974C142.945 84.0719 143.132 83.5872 142.82 83.1649C142.563 82.8289 142.422 82.4181 142.419 81.9947C142.457 81.5279 142.62 81.08 142.89 80.6976C143.16 80.3152 143.528 80.0123 143.956 79.8206C145.109 79.2057 146.401 78.8981 147.708 78.9274C148.254 78.9249 148.798 78.9759 149.334 79.0797C150.269 79.2792 151.244 79.1598 152.104 78.7404L152.36 78.5881C153.052 78.1934 153.357 77.6118 153.052 77.0787C152.911 76.8269 152.837 76.5432 152.837 76.2547C152.87 75.8363 153.017 75.4348 153.261 75.0933C153.505 74.7518 153.837 74.483 154.222 74.316C155.25 73.7625 156.405 73.4858 157.572 73.5128C157.894 73.5099 158.216 73.5284 158.535 73.5682C159.807 73.7255 161.096 73.4836 162.224 72.8758C162.615 72.7039 162.937 72.4056 163.138 72.0289C163.339 71.6522 163.407 71.2189 163.332 70.7986C163.322 70.7019 163.322 70.6044 163.332 70.5078C163.364 70.1409 163.493 69.7891 163.706 69.4886C163.919 69.1881 164.208 68.9496 164.544 68.7975C165.452 68.3133 166.471 68.0746 167.5 68.1051C167.673 68.1051 167.832 68.1051 167.998 68.1051C169.369 68.2039 170.74 67.9033 171.944 67.2396L172.297 67.0111C172.722 66.8085 173.082 66.4924 173.339 66.0977C173.595 65.7031 173.738 65.2452 173.751 64.7747C173.777 64.4541 173.888 64.1463 174.073 63.8833C174.258 63.6203 174.51 63.4116 174.803 63.2791C175.836 62.7442 177.01 62.548 178.161 62.7182C179.51 62.8844 180.618 63.5214 180.93 64.3038C181.241 65.0862 180.826 65.744 179.96 66.2426C179.178 66.664 178.301 66.8762 177.413 66.8588C176.064 66.8032 174.724 67.0965 173.522 67.7105L173.142 67.9251C172.103 68.5344 171.473 69.3653 171.653 70.2169C171.675 70.3124 171.687 70.4099 171.688 70.5078C171.655 70.8754 171.525 71.2276 171.311 71.5282C171.096 71.8288 170.806 72.0669 170.469 72.218C169.562 72.6984 168.547 72.9368 167.52 72.9104C167.354 72.9104 167.181 72.9104 167.015 72.9104C165.792 72.7751 164.555 72.9988 163.457 73.5543C162.488 74.1152 161.968 74.9391 162.252 75.6938C162.318 75.8737 162.353 76.0633 162.356 76.2547C162.32 76.6722 162.172 77.0724 161.929 77.4135C161.685 77.7545 161.355 78.0239 160.971 78.1934C159.947 78.7445 158.798 79.0212 157.635 78.9966C157.157 78.9988 156.679 78.9571 156.209 78.872C155.316 78.7061 154.394 78.8477 153.592 79.2736L153.336 79.4259C153.183 79.4841 153.045 79.5749 152.93 79.6918C152.816 79.8088 152.729 79.9491 152.674 80.1032C152.62 80.2573 152.599 80.4214 152.614 80.5842C152.629 80.747 152.679 80.9046 152.761 81.0461C152.93 81.3343 153.023 81.6607 153.031 81.9947C152.987 82.4607 152.82 82.9067 152.548 83.2873C152.275 83.668 151.907 83.9697 151.48 84.1619C150.331 84.7801 149.04 85.0902 147.735 85.0621C147.062 85.0615 146.391 84.9848 145.735 84.8336C145.008 84.6528 144.239 84.7439 143.575 85.0898C142.993 85.429 142.841 85.9276 143.159 86.343C143.491 86.7304 143.681 87.2185 143.699 87.7278C143.699 88.6279 143.09 89.4865 141.989 90.1235C140.436 90.932 138.677 91.262 136.936 91.0721C134.444 90.8575 132.415 89.6873 132.035 88.2333C131.737 87.167 132.339 86.1007 133.661 85.339Z" fill="#7177F8"></path>
    <path d="M173.799 97.0821C174.95 96.466 176.24 96.1561 177.545 96.182C178.095 96.1827 178.644 96.2337 179.185 96.3343C180.12 96.5383 181.096 96.4187 181.954 95.9951L182.231 95.8358C182.923 95.4481 183.207 94.8665 182.923 94.3402C182.78 94.0865 182.701 93.801 182.695 93.5093C182.733 93.0924 182.882 92.6932 183.125 92.3525C183.368 92.0118 183.698 91.742 184.08 91.5706C185.109 91.0187 186.263 90.742 187.43 90.7674C187.754 90.7634 188.078 90.7842 188.399 90.8297C189.662 90.9863 190.943 90.7442 192.061 90.1373C192.455 89.9686 192.78 89.6712 192.982 89.2938C193.185 88.9164 193.253 88.4814 193.176 88.0601C193.169 87.9633 193.169 87.8661 193.176 87.7693C193.209 87.4017 193.339 87.0495 193.553 86.7489C193.767 86.4483 194.058 86.2102 194.394 86.0591C195.532 85.4569 196.826 85.2154 198.105 85.3667C199.794 85.5398 201.158 86.3291 201.476 87.3054C201.725 88.1086 201.296 88.8979 200.32 89.4657C199.414 89.9476 198.397 90.1861 197.371 90.1581C197.205 90.1686 197.039 90.1686 196.873 90.1581C195.65 90.0303 194.415 90.2537 193.314 90.802C192.331 91.3767 191.826 92.1868 192.11 92.9416C192.176 93.1214 192.211 93.311 192.214 93.5024C192.177 93.9208 192.03 94.3218 191.786 94.6639C191.543 95.006 191.212 95.2767 190.829 95.4481C189.799 95.9953 188.645 96.2694 187.479 96.2443C186.998 96.2456 186.519 96.2039 186.046 96.1197C185.17 95.9552 184.264 96.0944 183.477 96.5144L183.2 96.6736C183.048 96.7321 182.91 96.8228 182.795 96.9396C182.681 97.0564 182.593 97.1965 182.538 97.3503C182.483 97.5041 182.461 97.6681 182.475 97.8309C182.489 97.9937 182.538 98.1516 182.619 98.2938C182.787 98.5823 182.88 98.9086 182.889 99.2424C182.848 99.7093 182.683 100.157 182.412 100.539C182.141 100.921 181.772 101.224 181.345 101.417C180.194 102.033 178.905 102.343 177.6 102.317C176.291 102.339 174.998 102.03 173.841 101.417C173.411 101.224 173.039 100.921 172.764 100.537C172.489 100.154 172.321 99.705 172.276 99.2355C172.318 98.7743 172.481 98.3323 172.749 97.9542C173.016 97.576 173.378 97.2752 173.799 97.0821Z" fill="#7177F8"></path>
    <path d="M194.027 97.3245C195.057 96.7734 196.211 96.4968 197.378 96.5213C199.995 96.5213 202.127 97.7537 202.127 99.2909C202.092 99.7089 201.945 100.11 201.702 100.451C201.458 100.792 201.126 101.061 200.742 101.23C199.713 101.78 198.559 102.057 197.392 102.033C194.775 102.033 192.643 100.8 192.643 99.2632C192.676 98.8448 192.822 98.4433 193.066 98.1018C193.31 97.7602 193.642 97.4915 194.027 97.3245Z" fill="#7177F8"></path>
    <path d="M153.606 96.8398C154.88 96.1525 156.312 95.8089 157.759 95.8427C158.556 95.8375 159.35 95.9376 160.12 96.1405C160.863 96.3317 161.651 96.2456 162.335 95.8981C162.896 95.5796 163.076 95.088 162.771 94.6587C162.514 94.3248 162.371 93.917 162.363 93.4955C162.402 93.0288 162.565 92.5811 162.837 92.1997C163.109 91.8183 163.478 91.5172 163.907 91.3283C165.056 90.7095 166.347 90.3994 167.652 90.4281C168.198 90.4257 168.743 90.4767 169.279 90.5805C170.227 90.7902 171.218 90.6706 172.089 90.2412L172.359 90.0819C173.052 89.6942 173.335 89.1195 173.052 88.5864C172.902 88.3381 172.825 88.0524 172.83 87.7624C172.862 87.3428 173.008 86.9398 173.252 86.597C173.496 86.2541 173.829 85.9844 174.215 85.8167C175.221 85.2777 176.347 85.0014 177.489 85.0136C177.815 85.0143 178.141 85.0328 178.465 85.0689C179.728 85.2274 181.009 84.9852 182.127 84.3765C182.519 84.205 182.842 83.9073 183.045 83.531C183.249 83.1546 183.32 82.7211 183.249 82.2993C183.23 82.2034 183.218 82.1062 183.214 82.0085C183.248 81.6421 183.379 81.2913 183.593 80.992C183.807 80.6928 184.097 80.4557 184.433 80.3052C185.342 79.8243 186.36 79.5858 187.389 79.6128H187.887C189.261 79.7142 190.634 79.4134 191.84 78.7473L192.214 78.5327C192.638 78.3282 192.999 78.0107 193.255 77.615C193.512 77.2193 193.654 76.7606 193.667 76.2893C193.694 75.9689 193.805 75.6614 193.99 75.3985C194.175 75.1356 194.427 74.9268 194.72 74.7937C195.514 74.3801 196.399 74.1707 197.295 74.1844C198.188 74.1636 199.071 74.376 199.856 74.8006C200.166 74.9057 200.435 75.1052 200.625 75.3709C200.815 75.6367 200.918 75.9554 200.918 76.2824C200.918 76.6093 200.815 76.928 200.625 77.1938C200.435 77.4595 200.166 77.659 199.856 77.7641C199.073 78.1832 198.197 78.3953 197.309 78.3803C195.963 78.3219 194.625 78.6129 193.425 79.2251L193.065 79.4743C192.027 80.0836 191.397 80.9215 191.57 81.7662C191.592 81.8616 191.603 81.9591 191.604 82.057C191.572 82.4246 191.441 82.7769 191.227 83.0775C191.013 83.378 190.723 83.6161 190.386 83.7672C189.479 84.2482 188.463 84.4867 187.437 84.4596H186.932C185.711 84.3277 184.477 84.5513 183.38 85.1036C182.397 85.6713 181.878 86.4884 182.162 87.2362C182.236 87.4137 182.274 87.6045 182.273 87.797C182.236 88.2151 182.088 88.6158 181.844 88.9578C181.601 89.2998 181.271 89.5707 180.888 89.7427C179.859 90.2937 178.705 90.5703 177.538 90.5459C177.055 90.5417 176.573 90.4977 176.098 90.4143C175.221 90.2485 174.314 90.3904 173.529 90.8159L173.252 90.9751C173.1 91.0336 172.962 91.1243 172.847 91.2411C172.733 91.3579 172.645 91.498 172.59 91.6518C172.535 91.8057 172.513 91.9696 172.527 92.1324C172.541 92.2953 172.59 92.4532 172.671 92.5954C172.844 92.8788 172.935 93.2048 172.934 93.537C172.897 94.0052 172.734 94.4546 172.462 94.8375C172.191 95.2203 171.82 95.5223 171.39 95.7112C170.242 96.3269 168.954 96.6347 167.652 96.6044C166.98 96.6126 166.31 96.5359 165.658 96.3759C164.926 96.1963 164.153 96.2899 163.484 96.639C162.896 96.9783 162.737 97.463 163.069 97.8922C163.398 98.2806 163.586 98.7686 163.602 99.277C163.602 100.184 163 101.036 161.899 101.68C160.347 102.494 158.588 102.826 156.846 102.635C154.353 102.414 152.318 101.25 151.944 99.7963C151.64 98.6677 152.256 97.6014 153.606 96.8398Z" fill="#7177F8"></path>
    <path d="M123.727 79.599C125.002 78.9126 126.434 78.5713 127.881 78.6089C128.674 78.606 129.465 78.7014 130.235 78.8928C130.978 79.0927 131.77 79.0113 132.457 78.6643C133.018 78.3388 133.198 77.8472 132.893 77.4249C132.632 77.0931 132.488 76.6839 132.485 76.2616C132.523 75.7948 132.686 75.3469 132.956 74.9645C133.226 74.5821 133.594 74.2792 134.021 74.0875C135.173 73.4679 136.466 73.1577 137.774 73.1874C138.322 73.188 138.869 73.239 139.407 73.3397C140.342 73.5392 141.317 73.4198 142.176 73.0004L142.453 72.8342C143.146 72.4465 143.436 71.8718 143.146 71.3456C142.999 71.0928 142.921 70.8066 142.917 70.5147C142.952 70.0967 143.099 69.6959 143.342 69.3546C143.586 69.0133 143.918 68.7443 144.302 68.576C145.332 68.0208 146.489 67.7439 147.659 67.7728C147.983 67.7687 148.307 67.7895 148.628 67.8351C149.887 67.985 151.161 67.7433 152.277 67.1427C152.67 66.9733 152.996 66.6763 153.2 66.2995C153.405 65.9228 153.477 65.4881 153.405 65.0655C153.391 64.969 153.391 64.8711 153.405 64.7747C153.438 64.407 153.568 64.0548 153.782 63.7542C153.996 63.4536 154.287 63.2155 154.623 63.0644C155.531 62.5841 156.546 62.3456 157.572 62.372C157.746 62.372 157.905 62.372 158.071 62.372C159.442 62.4724 160.813 62.1717 162.017 61.5065L162.398 61.285C162.824 61.0824 163.186 60.7654 163.442 60.3693C163.699 59.9731 163.841 59.5135 163.851 59.0416C163.88 58.7209 163.993 58.4135 164.179 58.1508C164.365 57.8881 164.618 57.6794 164.911 57.546C165.695 57.1261 166.575 56.9162 167.465 56.9367C168.357 56.9203 169.239 57.1324 170.026 57.5529C170.318 57.6861 170.57 57.8926 170.758 58.1523C170.946 58.412 171.064 58.716 171.099 59.0346C171.066 59.3523 170.951 59.6559 170.766 59.9156C170.58 60.1754 170.33 60.3824 170.04 60.5164C169.256 60.9386 168.376 61.1487 167.486 61.1257C166.138 61.0768 164.799 61.3698 163.595 61.9774L163.221 62.1989C162.176 62.8013 161.553 63.6391 161.726 64.4908C161.74 64.5849 161.74 64.6806 161.726 64.7747C161.694 65.1416 161.565 65.4933 161.352 65.7938C161.139 66.0943 160.85 66.3328 160.515 66.4849C159.609 66.9692 158.592 67.2079 157.566 67.1773C157.392 67.1773 157.226 67.1773 157.06 67.1773C155.837 67.0456 154.602 67.2691 153.502 67.8212C152.519 68.389 152.014 69.206 152.297 69.9538C152.359 70.1351 152.396 70.3237 152.408 70.5147C152.37 70.9324 152.221 71.3325 151.978 71.6742C151.735 72.016 151.406 72.2872 151.024 72.4603C149.996 73.01 148.845 73.2865 147.68 73.2635C147.197 73.2556 146.716 73.2116 146.24 73.132C145.365 72.9667 144.461 73.1085 143.679 73.5336L143.395 73.6928C143.243 73.7514 143.106 73.842 142.992 73.9583C142.879 74.0745 142.791 74.2139 142.736 74.3668C142.681 74.5198 142.659 74.6828 142.673 74.8448C142.686 75.0069 142.734 75.1642 142.813 75.3061C142.984 75.5934 143.078 75.9204 143.083 76.2547C143.041 76.7212 142.876 77.1681 142.604 77.55C142.333 77.9319 141.966 78.2351 141.54 78.4288C140.385 79.0412 139.094 79.3509 137.787 79.329C137.116 79.3299 136.447 79.2509 135.794 79.0935C135.066 78.9156 134.298 79.0091 133.634 79.3567C133.052 79.6959 132.886 80.1806 133.218 80.603C133.544 80.9936 133.734 81.4798 133.758 81.9878C133.758 82.8948 133.142 83.7465 132.042 84.3904C130.492 85.2051 128.735 85.5378 126.995 85.3459C124.503 85.1313 122.468 83.9611 122.094 82.514C121.796 81.4269 122.405 80.3606 123.727 79.599Z" fill="#7177F8"></path>
    <path d="M112.478 133.821C114.038 133.821 115.303 132.556 115.303 130.996C115.303 129.436 114.038 128.171 112.478 128.171C110.918 128.171 109.654 129.436 109.654 130.996C109.654 132.556 110.918 133.821 112.478 133.821Z" fill="#7177F8"></path>
    <path d="M225.463 68.0012C227.023 68.0012 228.288 66.7364 228.288 65.1762C228.288 63.616 227.023 62.3512 225.463 62.3512C223.903 62.3512 222.639 63.616 222.639 65.1762C222.639 66.7364 223.903 68.0012 225.463 68.0012Z" fill="#3FE0D0"></path>
    <path d="M297.148 31.4908C300.81 33.6095 300.824 37.03 297.189 39.1557L273.569 52.886C269.928 54.9979 264.009 54.9979 260.34 52.886L236.567 39.1557C232.905 37.0785 232.891 33.6165 236.567 31.4977L260.187 17.7674C263.822 15.6555 269.748 15.6486 273.41 17.7674L297.148 31.4908Z" fill="#3FE0D0"></path>
    <path d="M120.342 127.797C121.03 127.797 121.588 127.239 121.588 126.551C121.588 125.862 121.03 125.304 120.342 125.304C119.654 125.304 119.096 125.862 119.096 126.551C119.096 127.239 119.654 127.797 120.342 127.797Z" fill="#7177F8"></path>
    <path d="M231.881 62.8429C232.569 62.8429 233.127 62.2849 233.127 61.5965C233.127 60.9082 232.569 60.3502 231.881 60.3502C231.192 60.3502 230.635 60.9082 230.635 61.5965C230.635 62.2849 231.192 62.8429 231.881 62.8429Z" fill="#3FE0D0"></path>
    <path d="M288.467 33.7758L271.665 43.5387L271.603 47.7346L288.404 37.9302C289.692 37.1824 290.336 36.2061 290.336 35.2229L290.405 31.0685C290.398 32.0378 289.754 33.0211 288.467 33.7758Z" fill="#D9DEE2"></path>
    <path d="M245.345 33.7757C244.03 33.021 243.379 32.0239 243.379 31.0061L243.317 35.1605C243.317 36.1576 243.968 37.1477 245.276 37.9301L262.188 47.6999L262.257 43.504L245.345 33.7757Z" fill="#D9DEE2"></path>
    <path d="M288.439 28.3127C291.049 29.8222 291.056 32.2663 288.439 33.7688L271.638 43.5317C270.181 44.2757 268.569 44.6636 266.934 44.6636C265.298 44.6636 263.686 44.2757 262.23 43.5317L245.345 33.7758C242.736 32.2733 242.722 29.8291 245.345 28.3266L262.119 18.5429C263.577 17.8022 265.188 17.4161 266.823 17.4161C268.458 17.4161 270.07 17.8022 271.527 18.5429L288.439 28.3127Z" fill="white"></path>
    <path d="M282.056 29.1229C283.898 30.1823 283.905 31.8925 282.056 32.9588L270.253 39.8343C269.228 40.3599 268.092 40.634 266.941 40.634C265.789 40.634 264.653 40.3599 263.628 39.8343L251.721 32.9588C249.886 31.8994 249.88 30.1892 251.721 29.1229L263.552 22.2473C264.578 21.725 265.713 21.4528 266.864 21.4528C268.016 21.4528 269.151 21.725 270.177 22.2473L282.056 29.1229Z" fill="#7177F8"></path>
    <path d="M271.665 43.5317L271.603 47.7277C270.145 48.4696 268.532 48.8562 266.896 48.8562C265.26 48.8562 263.647 48.4696 262.188 47.7277L262.257 43.5317C263.714 44.2757 265.326 44.6636 266.961 44.6636C268.597 44.6636 270.209 44.2757 271.665 43.5317Z" fill="#F5F5F5"></path>
    <path d="M246.301 42.0292L248.689 40.6444C248.902 40.5163 249.079 40.3344 249.2 40.117C249.322 39.8995 249.384 39.6541 249.381 39.405V38.3318" stroke="#7177F8" stroke-miterlimit="10" stroke-linecap="round"></path>
    <path d="M248.855 43.3794L251.236 41.9946C251.45 41.8648 251.626 41.6816 251.748 41.4631C251.869 41.2446 251.931 40.9982 251.929 40.7482V39.7443" stroke="#7177F8" stroke-miterlimit="10" stroke-linecap="round"></path>
    <path d="M250.89 44.9511L253.272 43.5663C253.484 43.4355 253.66 43.2521 253.781 43.0338C253.902 42.8155 253.965 42.5697 253.964 42.32V41.2537" stroke="#7177F8" stroke-miterlimit="10" stroke-linecap="round"></path>
    <path d="M253.438 46.3013L255.826 44.9165C256.04 44.7867 256.216 44.6035 256.337 44.385C256.459 44.1665 256.521 43.9201 256.519 43.6702V42.6731" stroke="#7177F8" stroke-miterlimit="10" stroke-linecap="round"></path>
    <path d="M286.964 42.0292L284.576 40.6444C284.363 40.5163 284.186 40.3344 284.065 40.117C283.943 39.8995 283.881 39.6541 283.884 39.405V38.3318" stroke="#7177F8" stroke-miterlimit="10" stroke-linecap="round"></path>
    <path d="M284.445 43.3794L282.063 41.9946C281.85 41.8643 281.674 41.681 281.553 41.4626C281.432 41.2442 281.369 40.9981 281.371 40.7482V39.7443" stroke="#7177F8" stroke-miterlimit="10" stroke-linecap="round"></path>
    <path d="M282.368 44.9511L279.986 43.5663C279.774 43.4355 279.598 43.2521 279.477 43.0338C279.356 42.8155 279.293 42.5697 279.294 42.32V41.2537" stroke="#7177F8" stroke-miterlimit="10" stroke-linecap="round"></path>
    <path d="M279.827 46.3013L277.439 44.9165C277.225 44.7867 277.049 44.6035 276.928 44.385C276.806 44.1665 276.744 43.9201 276.747 43.6702V42.6731" stroke="#7177F8" stroke-miterlimit="10" stroke-linecap="round"></path>
    <path d="M273.078 31.4632L267.802 28.292L269.222 27.468L274.497 30.6461L273.078 31.4632Z" fill="white"></path>
    <path d="M267.595 26.457C267.716 26.4896 267.833 26.5385 267.941 26.6024C268.035 26.6512 268.116 26.7226 268.176 26.8102C268.227 26.878 268.254 26.9608 268.252 27.0456C268.241 27.1323 268.205 27.2139 268.149 27.281C268.072 27.3701 267.981 27.445 267.879 27.5026C267.756 27.5693 267.626 27.6205 267.491 27.6549C267.361 27.6937 267.225 27.7123 267.089 27.7103C266.958 27.7151 266.827 27.6987 266.702 27.6618C266.576 27.6351 266.457 27.5859 266.349 27.5164C266.262 27.4783 266.188 27.4177 266.133 27.341C266.078 27.2642 266.045 27.1742 266.037 27.0802C266.037 26.9209 266.176 26.7617 266.418 26.6232C266.537 26.5532 266.665 26.4996 266.799 26.464C266.93 26.4308 267.065 26.4145 267.2 26.4155C267.333 26.4118 267.466 26.4258 267.595 26.457Z" fill="white"></path>
    <path d="M262.652 29.116L272.427 31.8371L270.862 32.7442L268.896 32.1487L266.321 33.6374L267.29 34.8075L265.753 35.7076L261.316 29.8984L262.652 29.116ZM265.532 32.6957L267.318 31.6986L263.76 30.6185L265.532 32.6957Z" fill="white"></path>
    <path d="M232.864 133.253C235.391 131.901 238.23 131.237 241.095 131.328C242.668 131.337 244.234 131.546 245.754 131.951C247.223 132.365 248.793 132.214 250.157 131.529C251.278 130.878 251.645 129.902 251.043 129.036C250.538 128.355 250.262 127.531 250.253 126.682C250.253 125.027 251.368 123.49 253.362 122.334C255.645 121.114 258.209 120.515 260.797 120.596C261.883 120.605 262.965 120.719 264.03 120.935C265.893 121.37 267.849 121.147 269.568 120.305L270.122 119.987C271.458 119.218 272.081 118.062 271.506 116.996C271.213 116.484 271.06 115.903 271.063 115.313C271.063 113.838 272.053 112.453 273.832 111.429C275.87 110.336 278.159 109.796 280.471 109.864C281.117 109.87 281.762 109.916 282.402 110.002C284.903 110.348 287.448 109.89 289.671 108.694C291.561 107.6 292.24 106.056 291.935 104.539C291.89 104.346 291.869 104.149 291.873 103.951C291.873 102.649 292.752 101.43 294.323 100.489C296.123 99.5221 298.145 99.0446 300.187 99.1039C300.533 99.1039 300.879 99.1039 301.184 99.1524C303.906 99.3771 306.634 98.7943 309.027 97.4767L309.775 97.0475C311.796 95.8773 312.71 94.2432 312.703 92.5538C312.703 91.4044 313.465 90.3519 314.828 89.5695C316.408 88.7721 318.155 88.3647 319.925 88.3816C321.694 88.3985 323.434 88.839 324.998 89.6664C326.348 90.4766 327.074 91.5429 327.074 92.6784C327.074 93.8139 326.32 94.8595 324.963 95.6419C323.402 96.4739 321.65 96.8844 319.882 96.8328C316.988 96.7843 314.191 97.2898 312.163 98.46L311.402 98.9031C309.325 100.101 308.065 101.777 308.404 103.487C308.447 103.68 308.47 103.877 308.473 104.075C308.473 105.37 307.594 106.589 306.023 107.496C304.225 108.462 302.206 108.939 300.166 108.881C299.827 108.881 299.474 108.881 299.162 108.832C296.573 108.617 293.956 108.984 292.101 110.058C290.135 111.193 289.11 112.786 289.664 114.337C289.795 114.703 289.86 115.09 289.858 115.479C289.858 116.954 288.861 118.339 287.089 119.364C285.045 120.454 282.752 120.991 280.436 120.921C279.486 120.908 278.538 120.811 277.605 120.631C275.864 120.281 274.055 120.548 272.489 121.385L271.984 121.711C270.53 122.556 270.17 123.788 270.807 124.965C271.144 125.546 271.32 126.205 271.319 126.876C271.319 128.531 270.212 130.082 268.218 131.231C265.931 132.45 263.366 133.049 260.776 132.969C259.445 132.962 258.12 132.795 256.83 132.471C255.388 132.089 253.854 132.259 252.531 132.949C251.354 133.641 251.029 134.596 251.673 135.462C252.324 136.275 252.676 137.287 252.669 138.328C252.669 140.156 251.444 141.867 249.208 143.141C246.591 144.65 242.978 145.329 239.198 144.962C234.262 144.477 230.261 142.074 229.506 139.152C229.008 136.902 230.24 134.77 232.864 133.253Z" fill="url(#paint0_linear_251_254)"></path>
    <path d="M13.0752 101.929C15.6029 100.577 18.4413 99.9133 21.3062 100.004C22.8817 100.013 24.4496 100.222 25.9721 100.627C27.4411 101.04 29.0111 100.889 30.375 100.205C31.4895 99.5609 31.8564 98.5777 31.2611 97.7122C30.7544 97.0309 30.4757 96.207 30.465 95.358C30.465 93.7032 31.5795 92.166 33.5733 91.0166C35.8555 89.7924 38.4197 89.1906 41.0082 89.2718C42.0965 89.281 43.1814 89.3946 44.248 89.6111C46.1115 90.0452 48.0678 89.8227 49.7862 88.981L50.3331 88.6625C51.6692 87.8939 52.2922 86.7376 51.7176 85.6713C51.4271 85.1581 51.2745 84.5785 51.2746 83.9888C51.2746 82.5139 52.2645 81.1291 54.0436 80.1044C56.084 79.0105 58.3755 78.4709 60.6894 78.5396C61.3332 78.546 61.9759 78.5923 62.6139 78.678C65.1143 79.0249 67.6602 78.5666 69.8827 77.3694C71.7796 76.2754 72.458 74.7313 72.1534 73.215C72.108 73.0222 72.0871 72.8245 72.0911 72.6264C72.0911 71.3247 72.9703 70.1061 74.5348 69.1644C76.3349 68.1988 78.3564 67.7213 80.3983 67.7796C80.7444 67.7796 81.0906 67.7796 81.4021 67.8281C84.1222 68.0523 86.8479 67.4695 89.2386 66.1525L89.9862 65.7232C92.0146 64.553 92.9214 62.9536 92.9145 61.2364C92.9145 60.0801 93.6829 59.0277 95.0398 58.2452C96.6121 57.4157 98.3717 57.0055 100.149 57.0543C101.921 57.0358 103.668 57.4797 105.216 58.3422C106.559 59.1523 107.293 60.2186 107.293 61.3541C107.293 62.4897 106.531 63.5352 105.175 64.3176C103.614 65.1527 101.862 65.5633 100.093 65.5085C97.1997 65.467 94.4029 65.9655 92.3746 67.1357L91.6131 67.5788C89.5362 68.7767 88.2832 70.4523 88.6225 72.1625C88.6623 72.3564 88.6855 72.5533 88.6917 72.7511C88.6917 74.0459 87.8125 75.2645 86.2411 76.1715C84.4424 77.1412 82.4198 77.6189 80.3775 77.5563C80.0383 77.5563 79.6853 77.5563 79.3737 77.5079C76.7847 77.2932 74.1679 77.6602 72.3126 78.7334C70.3466 79.869 69.3289 81.4615 69.8758 83.0125C70.0128 83.3774 70.0785 83.7652 70.0697 84.1549C70.0697 85.6298 69.0797 87.0146 67.3006 88.0393C65.2582 89.1338 62.9637 89.6712 60.6479 89.5972C59.6974 89.5839 58.7499 89.4866 57.8165 89.3064C56.0753 88.957 54.2668 89.2237 52.7006 90.0611L52.1468 90.3796C50.6861 91.2244 50.3331 92.4568 50.963 93.6339C51.3029 94.2131 51.4799 94.8734 51.4753 95.545C51.4753 97.1998 50.3677 98.7508 48.374 99.9002C46.088 101.12 43.522 101.72 40.9321 101.638C39.6015 101.631 38.2767 101.463 36.9861 101.14C35.5434 100.761 34.0116 100.931 32.6871 101.617C31.5103 102.31 31.1849 103.265 31.8357 104.131C32.4843 104.928 32.8431 105.921 32.8533 106.949C32.8533 108.777 31.6211 110.487 29.3919 111.761C26.7752 113.27 23.1269 113.949 19.3748 113.582C14.4389 113.097 10.4376 110.695 9.68306 107.773C9.23308 105.578 10.4653 103.445 13.0752 101.929Z" fill="url(#paint1_linear_251_254)"></path>
    <path d="M82.5581 127.7L74.3201 132.492V143.812L82.5235 139.021C82.7841 138.904 83.0092 138.72 83.1757 138.488C83.3423 138.255 83.4445 137.983 83.4719 137.699L83.5065 126.378C83.4791 126.662 83.3769 126.934 83.2103 127.167C83.0438 127.399 82.8187 127.583 82.5581 127.7Z" fill="#D9DEE2"></path>
    <path d="M61.4164 127.7C61.1515 127.581 60.9229 127.395 60.7538 127.159C60.5848 126.923 60.4814 126.646 60.4541 126.357V137.678C60.48 137.967 60.5828 138.244 60.7521 138.481C60.9213 138.717 61.1507 138.903 61.4164 139.021L69.7236 143.812V132.492L61.4164 127.7Z" fill="white"></path>
    <path d="M82.5443 125.028C83.8181 125.768 83.825 126.966 82.5443 127.7L74.3063 132.492C73.5918 132.854 72.802 133.042 72.0011 133.042C71.2001 133.042 70.4104 132.854 69.6958 132.492L61.3886 127.7C60.1148 126.966 60.1079 125.768 61.3886 125.028L69.6197 120.243C70.3337 119.879 71.1236 119.69 71.9249 119.69C72.7262 119.69 73.5161 119.879 74.2302 120.243L82.5443 125.028Z" fill="#3FE0D0"></path>
    <path d="M74.3201 132.492V143.812C73.6043 144.174 72.8134 144.363 72.0114 144.363C71.2093 144.363 70.4184 144.174 69.7026 143.812V132.492C70.4181 132.855 71.2091 133.044 72.0114 133.044C72.8136 133.044 73.6046 132.855 74.3201 132.492Z" fill="#F5F5F5"></path>
    <path d="M101.028 139.021L92.79 143.805V155.126L100.993 150.328C101.256 150.211 101.482 150.027 101.649 149.793C101.816 149.559 101.917 149.285 101.942 148.998V137.678C101.921 137.962 101.826 138.236 101.665 138.472C101.505 138.708 101.285 138.897 101.028 139.021Z" fill="#D9DEE2"></path>
    <path d="M79.8929 139.021C79.6276 138.903 79.3986 138.716 79.2295 138.48C79.0604 138.244 78.9572 137.967 78.9307 137.678V148.998C78.9572 149.288 79.0604 149.565 79.2295 149.801C79.3986 150.037 79.6276 150.224 79.8929 150.342L88.2001 155.126L88.2348 143.805L79.8929 139.021Z" fill="white"></path>
    <path d="M100.993 136.334C102.274 137.075 102.274 138.266 100.993 139.007L92.7554 143.792C92.0418 144.157 91.2517 144.347 90.4501 144.347C89.6485 144.347 88.8584 144.157 88.1449 143.792L79.8376 139.007C78.5569 138.266 78.55 137.075 79.8376 136.334L88.0687 131.55C88.7835 131.185 89.5747 130.994 90.3774 130.994C91.1801 130.994 91.9713 131.185 92.6861 131.55L100.993 136.334Z" fill="#7177F8"></path>
    <path d="M92.79 143.792V155.112C92.0752 155.478 91.284 155.668 90.4813 155.668C89.6786 155.668 88.8874 155.478 88.1726 155.112L88.2072 143.792C88.9172 144.152 89.7023 144.34 90.4986 144.34C91.295 144.34 92.08 144.152 92.79 143.792Z" fill="#F5F5F5"></path>
    <path d="M65.8331 139.623L57.6021 144.408V155.729L65.84 150.944C66.1012 150.827 66.3262 150.641 66.4918 150.408C66.6573 150.174 66.7574 149.9 66.7815 149.615V138.294C66.7546 138.579 66.6527 138.853 66.4862 139.086C66.3196 139.32 66.0943 139.505 65.8331 139.623Z" fill="#D9DEE2"></path>
    <path d="M44.6983 139.623C44.433 139.505 44.204 139.318 44.0349 139.082C43.8658 138.846 43.7626 138.569 43.736 138.28L43.7014 149.601C43.728 149.89 43.8311 150.167 44.0003 150.403C44.1694 150.639 44.3984 150.826 44.6637 150.944L52.9709 155.729V144.408L44.6983 139.623Z" fill="white"></path>
    <path d="M65.8193 136.944C67.1 137.678 67.1 138.876 65.8193 139.616L57.5882 144.401C56.8734 144.766 56.0822 144.957 55.2795 144.957C54.4768 144.957 53.6856 144.766 52.9708 144.401L44.6636 139.616C43.3829 138.876 43.3759 137.685 44.6636 136.944L52.9016 132.159C53.6156 131.796 54.4055 131.606 55.2068 131.606C56.0081 131.606 56.798 131.796 57.5121 132.159L65.8193 136.944Z" fill="#7177F8"></path>
    <path d="M57.602 144.408V155.729C56.8884 156.094 56.0983 156.284 55.2967 156.284C54.4951 156.284 53.705 156.094 52.9915 155.729V144.408C53.7054 144.772 54.4953 144.962 55.2967 144.962C56.0981 144.962 56.8881 144.772 57.602 144.408Z" fill="#F5F5F5"></path>
    <path d="M82.5581 149.165L74.3201 153.949V165.27L82.5235 160.485C82.7851 160.368 83.0107 160.183 83.1774 159.949C83.344 159.715 83.4456 159.442 83.4719 159.156L83.5065 147.835C83.4803 148.121 83.3786 148.395 83.212 148.628C83.0454 148.862 82.8197 149.047 82.5581 149.165Z" fill="#D9DEE2"></path>
    <path d="M61.4164 149.165C61.1519 149.045 60.9237 148.858 60.7547 148.622C60.5858 148.387 60.4821 148.11 60.4541 147.821V159.142C60.48 159.432 60.5828 159.709 60.7521 159.945C60.9213 160.181 61.1507 160.368 61.4164 160.486L69.7236 165.27V153.949L61.4164 149.165Z" fill="white"></path>
    <path d="M82.5443 146.492C83.8181 147.233 83.825 148.431 82.5443 149.165L74.3063 153.949C73.5928 154.314 72.8026 154.505 72.0011 154.505C71.1995 154.505 70.4094 154.314 69.6958 153.949L61.3886 149.165C60.1148 148.431 60.1079 147.233 61.3886 146.492L69.6197 141.708C70.3332 141.342 71.1233 141.152 71.9249 141.152C72.7265 141.152 73.5166 141.342 74.2302 141.708L82.5443 146.492Z" fill="#3FE0D0"></path>
    <path d="M74.3201 153.949V165.27C73.6053 165.635 72.814 165.826 72.0114 165.826C71.2087 165.826 70.4174 165.635 69.7026 165.27V153.949C70.4171 154.316 71.2085 154.507 72.0114 154.507C72.8142 154.507 73.6056 154.316 74.3201 153.949Z" fill="#F5F5F5"></path>
  </g>
  <defs>
    <linearGradient id="paint0_linear_251_254" x1="229.43" y1="116.726" x2="327.116" y2="116.726" gradientUnits="userSpaceOnUse">
      <stop stop-color="#3FE0D0"></stop>
      <stop offset="0.19" stop-color="#6EE6DB" stop-opacity="0.74"></stop>
      <stop offset="0.4" stop-color="#9EECE6" stop-opacity="0.48"></stop>
      <stop offset="0.59" stop-color="#C3F1EF" stop-opacity="0.27"></stop>
      <stop offset="0.76" stop-color="#DEF5F6" stop-opacity="0.12"></stop>
      <stop offset="0.9" stop-color="#EFF7FA" stop-opacity="0.03"></stop>
      <stop offset="1" stop-color="#F5F8FB" stop-opacity="0"></stop>
    </linearGradient>
    <linearGradient id="paint1_linear_251_254" x1="9.66229" y1="85.4013" x2="107.348" y2="85.4013" gradientUnits="userSpaceOnUse">
      <stop stop-color="#3FE0D0"></stop>
      <stop offset="0.19" stop-color="#6EE6DB" stop-opacity="0.74"></stop>
      <stop offset="0.4" stop-color="#9EECE6" stop-opacity="0.48"></stop>
      <stop offset="0.59" stop-color="#C3F1EF" stop-opacity="0.27"></stop>
      <stop offset="0.76" stop-color="#DEF5F6" stop-opacity="0.12"></stop>
      <stop offset="0.9" stop-color="#EFF7FA" stop-opacity="0.03"></stop>
      <stop offset="1" stop-color="#F5F8FB" stop-opacity="0"></stop>
    </linearGradient>
    <clipPath id="clip0_251_254">
      <rect width="320" height="190" fill="white"></rect>
    </clipPath>
  </defs>
</svg>
