<?xml version="1.0" encoding="UTF-8"?>
<svg xmlns="http://www.w3.org/2000/svg" width="20" height="20" viewBox="0 0 20 20" fill="none">
  <g clip-path="url(#clip0_146_733)">
    <path d="M18.5207 0H1.47588C0.662083 0 0.000732422 0.645617 0.000732422 1.44205V18.5568C0.000732422 19.3533 0.662083 20 1.47588 20H18.5207C19.3361 20 20.0002 19.3533 20.0002 18.5568V1.44205C20.0002 0.645617 19.3361 0 18.5207 0Z" fill="#007BB5"></path>
    <path d="M2.96373 7.49783H5.93301V17.0421H2.96373V7.49783ZM4.44919 2.75336C5.39808 2.75336 6.16846 3.52403 6.16846 4.47347C6.16846 5.42317 5.39808 6.19383 4.44919 6.19383C3.4965 6.19383 2.72827 5.42318 2.72827 4.47347C2.72827 3.52403 3.4965 2.75336 4.44919 2.75336Z" fill="white"></path>
    <path d="M7.79395 7.49784H10.6374V8.80261H10.6781C11.0736 8.05228 12.0414 7.261 13.4846 7.261C16.4881 7.261 17.0431 9.23722 17.0431 11.8077V17.0421H14.0771V12.4007C14.0771 11.2939 14.0581 9.87006 12.5357 9.87006C10.9922 9.87006 10.7567 11.0764 10.7567 12.3215V17.0421H7.79395V7.49784Z" fill="white"></path>
  </g>
  <defs>
    <clipPath id="clip0_146_733">
      <rect width="20" height="20" fill="white"></rect>
    </clipPath>
  </defs>
</svg>
