<?xml version="1.0" encoding="utf-8"?>
<!-- Generator: Adobe Illustrator 27.7.0, SVG Export Plug-In . SVG Version: 6.00 Build 0)  -->
<svg version="1.1" id="Layer_1" xmlns="http://www.w3.org/2000/svg" xmlns:xlink="http://www.w3.org/1999/xlink" x="0px" y="0px"
	 viewBox="0 0 570.35 133.66" style="enable-background:new 0 0 570.35 133.66;" xml:space="preserve">
<style type="text/css">
	.st0{fill:#DF603A;}
	.st1{fill:#FFFFFF;}
</style>
<path class="st0" d="M0.03,114.95c-0.01-0.4-0.03-0.8-0.03-1.2c0-37.44,0-74.87,0-112.31c0-1.65-0.2-1.43,1.35-1.43
	c105.37,0,210.73,0,316.1,0c0.36,0,0.72,0.01,1.08,0.01c0.3,0.44,0.14,0.93,0.14,1.39c0.01,37.42,0.01,74.84,0,112.27
	c0,0.43,0.08,0.88-0.08,1.31c-0.42,0.2-0.87,0.1-1.3,0.1c-105.33,0-210.66,0.01-315.99,0C0.89,115.09,0.43,115.22,0.03,114.95z"/>
<path d="M570.2,133.62c-0.44,0.01-0.88,0.04-1.32,0.04c-79.47,0-158.95,0-238.42,0c-0.44,0-0.88-0.02-1.32-0.04
	c-0.24-0.37-0.12-0.78-0.12-1.17c-0.01-37.52-0.01-75.04-0.01-112.57c0-1.31,0-1.32,1.27-1.32c79.59,0,159.19,0,238.78,0
	c1.27,0,1.27,0,1.27,1.32c0,37.52,0,75.04-0.01,112.57C570.32,132.84,570.44,133.26,570.2,133.62z"/>
<path class="st1" d="M258.99,93.78c-0.89-4.13-1.88-8.23-2.76-12.36c-1.71-7.99-3.36-15.98-5.06-23.97
	c-1.51-7.11-3.04-14.21-4.56-21.31c-1.34-6.26-2.73-12.51-4-18.78c-0.52-2.57-1.28-5.09-1.55-7.71c-0.33-0.34-0.75-0.17-1.13-0.17
	c-3.14-0.02-6.28-0.02-9.43,0c-0.7,0-1.42-0.16-2.11,0.14c-0.16,0.51-0.37,1.02-0.48,1.54c-1.33,6.34-2.64,12.68-3.98,19.02
	c-0.89,4.23-1.84,8.46-2.74,12.69c-0.86,4-1.69,8.01-2.54,12.02c-0.84,3.97-1.67,7.95-2.51,11.92c-0.91,4.31-1.83,8.62-2.74,12.93
	c-0.84,3.97-1.67,7.94-2.52,11.91c-0.78,3.62-1.58,7.24-2.38,10.86c0.36,0.26,0.77,0.13,1.15,0.14c3.37,0.01,6.74,0.01,10.1,0
	c0.38,0,0.79,0.14,1.14-0.15c0.29-1.73,0.54-3.47,0.87-5.19c0.66-3.48,1.37-6.94,2.05-10.42c0.49-2.52,0.97-5.03,1.46-7.55
	c0.22-0.25,0.52-0.16,0.79-0.16c5.78,0,11.56,0,17.34,0c0.27,0,0.56-0.08,0.79,0.15c0.09,0.42,0.18,0.83,0.26,1.25
	c0.53,2.95,1.05,5.89,1.58,8.84c0.43,2.41,0.84,4.83,1.3,7.24c0.37,1.97,0.78,3.94,1.17,5.9c3.21,0.2,6.43,0.05,9.64,0.07
	c0.86,0.01,1.74,0.17,2.58-0.13C260.15,99.59,259.61,96.68,258.99,93.78z M242.32,69.44c0.03,0.35-0.21,0.38-0.46,0.38
	c-4.89,0-9.79,0.02-14.68-0.02c-0.07,0-0.14-0.07-0.21-0.11c0.39-1.91,0.8-3.81,1.15-5.73c0.44-2.42,0.81-4.86,1.25-7.28
	c0.52-2.88,1.09-5.75,1.63-8.62c0.63-3.3,1.27-6.6,1.87-9.9c0.52-2.89,1-5.78,1.48-8.68c0.05-0.33,0.14-0.59,0.4-0.77
	c0.54,2.88,1.08,5.75,1.61,8.63c0.7,3.76,1.38,7.52,2.08,11.28c0.58,3.1,1.18,6.2,1.76,9.31c0.62,3.38,1.23,6.76,1.84,10.14
	C242.13,68.53,242.43,68.94,242.32,69.44z"/>
<path class="st1" d="M308.7,9.61c0,3.17,0,6.35,0,9.52c-5.01,0.02-10.03,0.03-15.04,0.05c-0.5,0.41-0.26,0.97-0.26,1.45
	c-0.01,26.77-0.01,53.53-0.01,80.3c0,0.52-0.01,1.04-0.02,1.55c-4.22,0-8.45,0-12.67,0c-0.01-0.52-0.02-1.04-0.02-1.56
	c0-26.77,0-53.53-0.01-80.3c0-0.48,0.24-1.05-0.26-1.45c-5.17-0.02-10.35-0.03-15.52-0.05c0-3.17,0-6.35,0-9.52
	c8.46-0.01,16.93-0.03,25.39-0.03C296.41,9.59,302.56,9.61,308.7,9.61z"/>
<path class="st1" d="M111.29,93.45c0,3.01,0,6.03,0,9.04c-9.26,0.01-18.53,0.02-27.79,0.03c-2.79,0-5.59-0.02-8.38-0.03
	c-0.01-0.32-0.03-0.64-0.03-0.96c0-30.32,0-60.64,0-90.96c0-0.32,0.02-0.64,0.03-0.96c11.98,0,23.96,0.01,35.94,0.01
	c0,3.17,0,6.34,0,9.5c-7.19,0.01-14.37,0.05-21.56,0.01c-1.11-0.01-1.49,0.21-1.49,1.41c0.05,9.41,0.05,18.82,0,28.22
	c-0.01,1.08,0.3,1.32,1.34,1.31c5.79-0.04,11.58-0.01,17.36,0c0,3.01,0,6.03,0,9.04c-5.83,0.01-11.67,0.03-17.5,0.01
	c-0.83,0-1.2,0.12-1.2,1.09c0.04,10.81,0.02,21.63,0.02,32.44c0,0.16,0.02,0.32,0.04,0.48c0.37,0.48,0.89,0.25,1.33,0.25
	C96.71,93.44,104,93.44,111.29,93.45z"/>
<path class="st1" d="M157.82,18.91c-7.1,0.01-14.19,0.01-21.29,0.02c-0.48,0-0.96,0.02-1.43,0.02c-0.25,0.27-0.15,0.61-0.15,0.91
	c-0.01,9.68-0.01,19.35,0,29.03c0,0.31-0.09,0.64,0.13,0.92l-0.02,0.02c0.42,0.2,0.86,0.1,1.3,0.1c5.07,0.01,10.13,0.02,15.2-0.01
	c0.85-0.01,1.19,0.16,1.16,1.1c-0.07,2.31-0.07,4.62,0,6.93c0.03,0.94-0.31,1.11-1.16,1.1c-5.07-0.04-10.13-0.02-15.2-0.01
	c-0.43,0-0.88-0.1-1.3,0.1l0.02,0.02c-0.26,0.41-0.13,0.86-0.13,1.28c-0.01,13.6-0.01,27.2-0.01,40.81c0,1.37,0,1.37-1.33,1.37
	c-3.52,0-7.03,0-10.55-0.01c-0.39,0-0.8,0.13-1.16-0.14c-0.01-0.32-0.03-0.64-0.03-0.96c0-30.36,0-60.72,0-91.08
	c0-0.28,0.01-0.56,0.02-0.84c0.27-0.25,0.61-0.15,0.92-0.15c11.37-0.01,22.74-0.01,34.11,0c0.31,0,0.64-0.08,0.93,0.12l0,0
	C158.03,12.7,158.08,15.8,157.82,18.91z"/>
<path class="st1" d="M179.96,19.42c0,10.13,0,20.26,0,30.39c0.4,0.27,0.85,0.13,1.28,0.13c5.37,0.01,10.74,0,16.11,0.01
	c0.43,0,0.88-0.12,1.29,0.12l0,0c0.28,2.2,0.07,4.42,0.11,6.63c0.01,0.82,0.15,1.66-0.11,2.47l0,0c-0.41,0.23-0.86,0.12-1.29,0.12
	c-5.37,0.01-10.74,0-16.11,0.01c-0.42,0-0.88-0.13-1.28,0.13c-0.01,4.9-0.03,9.81-0.03,14.71c0,6.34,0.01,12.68,0.02,19.02
	c0.39,0.3,0.85,0.15,1.27,0.15c6.89,0.01,13.78,0.01,20.67,0.01c0.43,0,0.88-0.07,1.3,0.07c0.18,3.06,0.17,6.12,0,9.17
	c-0.39,0.15-0.79,0.08-1.19,0.08c-11.27,0-22.54,0-33.81,0c-1.35,0-1.35,0-1.35-1.35c0-30.17,0-60.34,0-90.51
	c0-0.4-0.06-0.8,0.07-1.19c0.33-0.2,0.7-0.11,1.06-0.11c11.3,0,22.61,0,33.91,0c0.35,0,0.72-0.09,1.05,0.12l0,0
	c0.27,2.09,0.09,4.18,0.11,6.27c0.01,1.1,0.16,2.21-0.11,3.3l0,0c-0.41,0.23-0.86,0.12-1.29,0.12c-6.81,0.01-13.62,0-20.42,0.01
	C180.81,19.29,180.36,19.16,179.96,19.42z"/>
<path class="st1" d="M62.25,75.13c0.01-13.33,0.01-26.67,0-40c-0.03-0.46,0.08-0.92-0.09-1.37c-0.3-2.92-0.64-5.82-1.43-8.67
	c-1.81-6.57-5.83-11.08-12.24-13.45c-3.96-1.46-8.11-1.74-12.26-2.09c-0.19-0.08-0.39-0.08-0.59-0.08c-6.81,0-13.62,0-20.44,0
	c-0.27,0-0.56-0.08-0.8,0.15c-0.01,0.28-0.02,0.56-0.02,0.84c0,30.36,0,60.72,0,91.08c0,0.32,0.02,0.64,0.03,0.96
	c0.4,0.27,0.85,0.13,1.28,0.14c7.35,0.01,14.69,0.01,22.04,0.01c0.45-0.03,0.92,0.08,1.36-0.08c1.78-0.01,3.51-0.34,5.24-0.74
	c6.75-1.56,11.92-5.12,14.83-11.58c1.98-4.39,2.63-9.07,2.96-13.82C62.35,76.01,62.25,75.56,62.25,75.13z M49.15,73.54
	c-0.2,0.96-0.04,1.92-0.09,2.88c-0.04,0.48,0.08,0.98-0.08,1.45c-0.26,3.28-0.47,6.57-1.92,9.62c-1.35,2.84-3.73,4.36-6.64,5.21
	c-1.44,0.42-2.93,0.51-4.4,0.7c-2.34-0.21-4.68-0.03-7.01-0.1c-0.47-0.01-0.95,0.1-1.41-0.09l-0.01-0.01
	c-0.17-0.34-0.09-0.71-0.09-1.06c0-23.95,0-47.9,0-71.85c0-0.28-0.02-0.56,0.04-0.83c1.87-0.35,3.75-0.07,5.63-0.15
	c0.59-0.02,1.18,0,1.77,0c0.6,0.04,1.21-0.09,1.81,0.08c1.95,0.2,3.91,0.37,5.75,1.13c3.75,1.57,5.37,4.66,5.97,8.44
	c0.24,1.51,0.35,3.05,0.52,4.57c0.17,0.46,0.05,0.94,0.09,1.41c0.04,0.73-0.09,1.47,0.08,2.2c0.02,3.07,0.04,6.15,0.04,9.22
	C49.17,55.42,49.16,64.48,49.15,73.54z"/>
<path class="st1" d="M526.99,91.51c0.02,3.57,0.41,7.08,1.73,10.42c0.99,2.51,2.59,4.4,5.5,4.7c0.64,0.14,1.29,0.14,1.93,0
	c2.67-0.66,3.42-1.9,4.03-4.33c0.13-0.54,0.33-1.11,0.32-1.7c0.15-0.56,0.13-1.12,0.01-1.69c-0.39-3.21-1.01-6.36-2.93-9.05
	c-1.48-2.07-3.04-4.05-5.01-5.73c-1.68-1.43-3.3-2.94-4.97-4.4c-2.13-1.86-4.33-3.65-6.44-5.53c-5.52-4.91-10.08-10.46-11.62-17.94
	c-0.53-2.6-0.59-5.24-0.46-7.88c0.15-0.48,0.13-0.96,0.01-1.45c0.24-3.7,1.12-7.24,2.94-10.47c2.27-4.01,5.57-6.99,9.81-8.85
	c2.62-1.15,5.36-1.92,8.22-2.24c1.07-0.12,2.14-0.29,3.21-0.44c1.52,0.25,3.07-0.09,4.59,0.18c5.75,0.27,10.93,1.95,14.95,6.26
	c2.67,2.86,4.26,6.34,5.16,10.11c0.72,3.03,1.23,6.11,1.22,9.25c0.14,0.4,0.18,0.79-0.03,1.19c-1.57,0.48-3.21,0.5-4.82,0.74
	c-2.54,0.37-5.11,0.54-7.65,0.93c-1.42,0.22-2.87,0.31-4.29,0.53c-0.97,0.15-1.41-0.17-1.23-1.19c0.04-0.23-0.02-0.47-0.04-0.71
	c-0.17-0.4,0.05-0.85-0.17-1.24c-0.02-2.31-0.29-4.59-0.99-6.79c-0.66-2.11-2.06-3.42-4.3-3.75c-0.49-0.15-0.98-0.15-1.47,0
	c-3.37,0.72-4.62,3.82-4.8,6.59c-0.32,5.08,1.69,9.15,5.21,12.66c3.03,3.02,6.33,5.72,9.52,8.55c2.67,2.37,5.41,4.67,7.82,7.31
	c4.31,4.72,7.35,10.12,8.63,16.42c0.3,1.48,0.36,3.02,0.53,4.53c0.15,1.37,0.15,2.74,0,4.12c-0.44,5-2.03,9.54-5.24,13.49
	c-3.78,4.64-8.79,7.09-14.52,8.26c-1.22,0.25-2.51,0.2-3.76,0.29c-0.89,0.16-1.78,0.12-2.66,0.02c-3.61-0.01-7.13-0.5-10.56-1.71
	c-4.76-1.68-8.44-4.63-10.96-8.99c-2.17-3.76-3.3-7.84-3.93-12.12c-0.31-2.14-0.33-4.29-0.67-6.42c-0.09-0.56-0.07-0.92,0.79-1.03
	c3.79-0.46,7.55-1.07,11.33-1.64c1.95-0.29,3.9-0.61,5.85-0.91C527.09,90.38,526.75,90.98,526.99,91.51z"/>
<path class="st1" d="M341.62,121.18c-0.01-0.28-0.02-0.56-0.02-0.84c0-31,0-62,0-93.01c0-0.32,0.02-0.64,0.03-0.96
	c0.28-0.23,0.61-0.13,0.92-0.13c13.68,0,27.36,0,41.03,0c0.24,0,0.48-0.02,0.71,0.07c0.22,0.37,0.11,0.78,0.11,1.17
	c0.01,3.95,0.01,7.89,0,11.84c0,0.39,0.09,0.8-0.1,1.18l-0.02-0.02c-0.41,0.24-0.86,0.12-1.29,0.12c-6.33,0.01-12.67,0-19,0.01
	c-0.43,0-0.88-0.13-1.28,0.13l-0.02-0.02c-0.19,0.33-0.11,0.7-0.11,1.05c-0.01,7.08-0.01,14.15,0.01,21.23
	c0,0.36-0.22,0.81,0.25,1.08c4.97,0.02,9.93,0,14.9,0.01c0.43,0,0.87-0.08,1.3,0.08c0.22,1.1,0.1,2.21,0.09,3.32
	c-0.02,3.69,0.1,7.38-0.06,11.08c-0.41,0.23-0.86,0.12-1.29,0.12c-4.59,0.01-9.18,0-13.77,0.01c-0.43,0-0.88-0.13-1.28,0.13
	l-0.02-0.02c-0.19,0.33-0.11,0.7-0.11,1.05c0,8.67-0.01,17.34,0.01,26.01c0,0.36-0.22,0.81,0.25,1.08c6.8,0.02,13.6,0,20.41,0.02
	c0.43,0,0.88-0.11,1.29,0.11l0,0c0.26,1.46,0.12,2.92,0.1,4.38c-0.03,3.25,0.16,6.5-0.1,9.75l0,0c-0.37,0.21-0.78,0.11-1.17,0.11
	c-13.53,0.01-27.06,0.01-40.59,0C342.4,121.31,341.98,121.45,341.62,121.18z"/>
<path class="st1" d="M467.27,41.94c-4.7-0.02-9.4-0.03-14.1-0.05c-0.18-0.2-0.14-0.45-0.14-0.68c0-4.77,0-9.53,0-14.3
	c0-0.2,0-0.4,0.1-0.58c0.3-0.15,0.63-0.09,0.94-0.09c15.88,0,31.77,0,47.65,0c0.28,0,0.56-0.03,0.83,0.06
	c0.25,0.49,0.11,1.02,0.12,1.53c0.01,4.26,0.01,8.51,0,12.77c0,0.43,0.12,0.88-0.12,1.28c-4.62,0.02-9.25,0.04-13.87,0.06
	c-0.3,0.44-0.15,0.93-0.15,1.39c-0.01,25.48-0.01,50.96-0.01,76.44c0,0.47,0.13,0.96-0.12,1.41l0.02,0.02
	c-0.11,0.04-0.21,0.1-0.34,0.1c-6.78,0.01-13.55,0.01-20.33-0.01c-0.08,0-0.15-0.05-0.23-0.07c-0.19-0.46-0.09-0.95-0.09-1.42
	c-0.01-25.49,0-50.99-0.01-76.48C467.42,42.87,467.58,42.37,467.27,41.94z"/>
<path class="st1" d="M448.83,119.59c-0.36-2.29-0.9-4.55-1.26-6.85c-0.43-2.79-1.1-5.53-1.62-8.31c-0.68-3.69-1.29-7.4-1.97-11.09
	c-0.76-4.11-1.58-8.2-2.35-12.3c-0.67-3.58-1.3-7.16-1.97-10.73c-0.61-3.27-1.26-6.53-1.87-9.8c-0.59-3.19-1.14-6.4-1.74-9.59
	c-0.6-3.19-1.24-6.37-1.86-9.56c-0.56-2.89-1.12-5.77-1.64-8.67c-0.37-2.02-0.69-4.05-1.04-6.07c-0.24-0.56-0.74-0.37-1.15-0.37
	c-7.36-0.01-14.73-0.01-22.09,0c-0.31,0-0.64-0.09-0.92,0.13c-0.19,1.07-0.36,2.14-0.57,3.2c-0.53,2.65-1.12,5.29-1.61,7.95
	c-0.61,3.23-1.12,6.49-1.72,9.72c-0.68,3.65-1.41,7.29-2.13,10.93c-0.47,2.39-0.96,4.77-1.43,7.16c-0.42,2.17-0.82,4.34-1.21,6.51
	c-0.59,3.24-1.15,6.48-1.75,9.72c-0.6,3.19-1.23,6.38-1.85,9.56c-0.55,2.81-1.11,5.61-1.65,8.42c-0.5,2.58-0.98,5.17-1.47,7.76
	c-0.54,2.89-1.11,5.78-1.59,8.68c-0.29,1.75-0.91,3.46-0.83,5.27c0.08,0.02,0.15,0.06,0.23,0.06c6.25,0.02,12.51,0.01,18.76,0.01
	c0.35,0,0.74,0.06,0.9-0.39c0.27-1.96,0.52-3.92,0.83-5.87c0.43-2.67,0.9-5.33,1.37-8c0.34-1.9,0.46-3.83,0.98-5.7
	c0.19-0.21,0.44-0.15,0.67-0.15c4.17,0,8.34,0,12.52,0c0.23,0,0.48-0.05,0.67,0.15c0.33,2.1,0.64,4.2,0.99,6.3
	c0.35,2.14,0.73,4.28,1,6.43c0.3,2.37,0.78,4.72,1.17,7.08c0.1,0.06,0.18,0.14,0.32,0.14c6.17,0.02,12.34,0,18.52,0
	c0.26,0,0.6,0.09,0.6-0.36C449.01,120.5,448.9,120.05,448.83,119.59z M415.16,88.64c-0.54,0-0.75-0.19-0.63-0.68
	c0.48-1.97,0.62-4,0.88-5.99c0.27-2.05,0.57-4.1,0.81-6.15c0.31-2.66,0.79-5.31,1.16-7.96c0.28-1.97,0.48-3.95,0.75-5.92
	c0.28-2.08,0.58-4.16,0.9-6.24c0.13-0.84-0.11-1.77,0.63-2.7c1.63,11.99,3.23,23.77,4.84,35.62
	C421.39,88.63,418.28,88.62,415.16,88.64z"/>
</svg>
