<svg width="529" height="454" viewBox="0 0 529 454" fill="none" xmlns="http://www.w3.org/2000/svg">
<g style="mix-blend-mode:overlay" opacity="0.3">
<path fill-rule="evenodd" clip-rule="evenodd" d="M282.699 55.0271C381.223 63.6996 460.204 140.458 472.299 237.961H527.492C514.982 110.128 411.54 8.96344 282.699 0V55.0271ZM237.961 0.624028C112.604 12.8918 12.8918 112.604 0.624021 237.961H55.8174C67.6057 142.931 142.931 67.6058 237.961 55.8174V0.624028ZM473.089 282.699H528.116C518.551 420.193 403.983 528.763 264.058 528.763C124.133 528.763 9.56545 420.193 0 282.699H55.0271C63.1388 374.852 130.816 449.908 219.319 469.126V333.894C203.392 320.905 193.222 301.126 193.222 278.971C193.222 239.849 224.936 208.135 264.058 208.135C303.18 208.135 334.895 239.849 334.895 278.971C334.895 301.126 324.724 320.905 308.797 333.894V469.126C397.3 449.908 464.977 374.852 473.089 282.699Z" fill="url(#paint0_linear_984_2348)"/>
</g>
<defs>
<linearGradient id="paint0_linear_984_2348" x1="264.058" y1="6.38808e-08" x2="255.107" y2="709.326" gradientUnits="userSpaceOnUse">
<stop stop-color="#D9D9D9"/>
<stop offset="1" stop-color="white" stop-opacity="0.7"/>
</linearGradient>
</defs>
</svg>
