<?xml version="1.0" encoding="UTF-8"?>
<svg xmlns="http://www.w3.org/2000/svg" width="164" height="19" viewBox="0 0 164 19" fill="none">
  <path d="M7.4966 11.9659C5.82718 11.9659 4.60097 11.0056 4.60097 9.60214C4.60097 8.18387 5.84195 7.19404 7.4966 7.19404H12.4605L14.4254 4.62343H7.4966C4.06912 4.62343 1.54283 6.57355 1.54283 9.46918C1.54283 12.3353 4.06912 14.507 7.4966 14.507H12.4605L14.4254 11.9659H7.4966ZM25.7989 4.62343L23.5533 7.35655C22.8442 8.21342 22.5044 8.64186 22.3124 8.92255C22.1055 8.62708 21.2782 7.72589 20.968 7.37132L18.6042 4.62343H14.6744L20.702 11.2272V14.507H23.775V11.242L29.6401 4.62343H25.7989ZM40.5057 9.42486C41.1853 9.17371 41.8501 8.52367 41.8501 7.35655C41.8501 5.53939 40.3285 4.62343 37.9647 4.62343H31.42L29.3517 7.19404H38.0976C38.5261 7.19404 38.9545 7.34178 38.9545 7.82931C38.9545 8.33161 38.5409 8.49412 38.0976 8.49412H29.3517V14.507H38.0385C41.1558 14.507 42.057 13.266 42.057 11.6261C42.057 10.4442 41.3626 9.67601 40.5057 9.42486ZM38.0533 10.6067C38.7181 10.6067 38.9988 10.8431 38.9988 11.2716C38.9988 11.7295 38.7181 11.9659 38.0533 11.9659H32.4246V10.6067H38.0533ZM46.6644 11.9659V10.6215H52.7364L54.4944 8.37593H46.6644V7.19404H53.0614L55.041 4.62343H43.5915V14.507H53.1057L55.0706 11.9659H46.6644Z" fill="#FAFEFF"></path>
  <path d="M68.2531 12.5864C67.5735 11.8921 67.2042 11.5375 66.8644 11.2863C68.4895 10.9613 69.4497 9.69078 69.4497 8.15433C69.4497 5.33256 66.6132 4.62343 64.3676 4.62343H58.015L56.0205 7.19404H64.6188C65.6677 7.19404 66.303 7.57815 66.303 8.34638C66.303 9.02597 65.5643 9.45441 64.6188 9.45441H56.0205V14.507H59.0787V11.8921H63.7767L65.9779 14.507H70.0702L68.2531 12.5864Z" fill="#FAFEFF"></path>
  <path d="M99.1625 9.42486C99.8421 9.17371 100.507 8.52367 100.507 7.35655C100.507 5.53939 98.9852 4.62343 96.6214 4.62343H90.0767L88.0084 7.19404H96.7544C97.1828 7.19404 97.6113 7.34178 97.6113 7.82931C97.6113 8.33161 97.1976 8.49412 96.7544 8.49412H88.0084V14.507H96.6953C99.8125 14.507 100.714 13.266 100.714 11.6261C100.714 10.4442 100.019 9.67601 99.1625 9.42486ZM96.7101 10.6067C97.3749 10.6067 97.6556 10.8431 97.6556 11.2716C97.6556 11.7295 97.3749 11.9659 96.7101 11.9659H91.0813V10.6067H96.7101ZM109.162 4.46092C104.346 4.46092 101.938 6.02692 101.938 9.55782C101.938 13.0887 104.346 14.6695 109.162 14.6695C113.964 14.6695 116.387 13.0887 116.387 9.55782C116.387 6.02692 113.964 4.46092 109.162 4.46092ZM109.162 12.0989C106.089 12.0989 104.981 11.6852 104.981 9.55782C104.981 7.43042 106.089 7.03153 109.162 7.03153C112.235 7.03153 113.343 7.43042 113.343 9.55782C113.343 11.6852 112.235 12.0989 109.162 12.0989ZM118.98 4.62343L117 7.19404H121.639V14.507H124.697V7.19404H128.228L130.208 4.62343H118.98ZM134.234 4.62343H131.176V14.507H134.234V4.62343ZM141.782 11.9659C140.112 11.9659 138.886 11.0056 138.886 9.60214C138.886 8.18387 140.127 7.19404 141.782 7.19404H146.746L148.71 4.62343H141.782C138.354 4.62343 135.828 6.57355 135.828 9.46918C135.828 12.3353 138.354 14.507 141.782 14.507H146.746L148.71 11.9659H141.782ZM153.554 8.56799C152.845 8.56799 152.505 8.37593 152.505 7.87363C152.505 7.37132 152.845 7.19404 153.554 7.19404H160.409L162.374 4.62343H153.79C150.791 4.62343 149.55 5.83487 149.55 7.69634C149.55 9.39531 150.718 10.5329 153.259 10.5329H158.636C159.36 10.5329 159.685 10.7397 159.685 11.242C159.685 11.7591 159.36 11.9659 158.636 11.9659H151.161L149.196 14.507H158.4C161.414 14.507 162.64 13.2956 162.64 11.2716C162.64 9.46918 161.34 8.56799 158.932 8.56799H153.554Z" fill="#FAFEFF"></path>
  <path d="M77.7441 1.67319V4.51356C75.7123 4.91644 74.1183 6.53595 73.7533 8.58107H70.9194C71.3269 4.98434 74.1604 2.1231 77.7441 1.67319Z" fill="#41C8FB"></path>
  <path d="M77.7441 1.67319V4.51356C75.7123 4.91644 74.1183 6.53595 73.7533 8.58107H70.9194C71.3269 4.98434 74.1604 2.1231 77.7441 1.67319Z" fill="url(#paint0_linear_21_3)"></path>
  <path d="M83.714 8.58107C83.3489 6.53595 81.755 4.91644 79.7232 4.51356V1.67319C83.3069 2.1231 86.1404 4.98434 86.5479 8.58107H83.714Z" fill="#41C8FB"></path>
  <path d="M83.714 8.58107C83.3489 6.53595 81.755 4.91644 79.7232 4.51356V1.67319C83.3069 2.1231 86.1404 4.98434 86.5479 8.58107H83.714Z" fill="url(#paint1_linear_21_3)"></path>
  <path d="M86.5242 10.5602H83.6766C83.2497 12.5156 81.692 14.0483 79.7232 14.4387V11.5131C80.4777 11.1459 80.9977 10.3717 80.9977 9.47615C80.9977 8.22573 79.9841 7.21207 78.7336 7.21207C77.4832 7.21207 76.4696 8.22573 76.4696 9.47615C76.4696 10.3717 76.9895 11.1459 77.7441 11.5131V14.4387C75.7753 14.0483 74.2176 12.5156 73.7907 10.5602H70.9431C71.4713 14.3907 74.7579 17.3408 78.7336 17.3408C82.7094 17.3408 85.996 14.3907 86.5242 10.5602Z" fill="#41C8FB"></path>
  <path d="M86.5242 10.5602H83.6766C83.2497 12.5156 81.692 14.0483 79.7232 14.4387V11.5131C80.4777 11.1459 80.9977 10.3717 80.9977 9.47615C80.9977 8.22573 79.9841 7.21207 78.7336 7.21207C77.4832 7.21207 76.4696 8.22573 76.4696 9.47615C76.4696 10.3717 76.9895 11.1459 77.7441 11.5131V14.4387C75.7753 14.0483 74.2176 12.5156 73.7907 10.5602H70.9431C71.4713 14.3907 74.7579 17.3408 78.7336 17.3408C82.7094 17.3408 85.996 14.3907 86.5242 10.5602Z" fill="url(#paint2_linear_21_3)"></path>
  <defs>
    <linearGradient id="paint0_linear_21_3" x1="75.1549" y1="0.415804" x2="86.0855" y2="12.7025" gradientUnits="userSpaceOnUse">
      <stop stop-color="#41CEFB"></stop>
      <stop offset="1" stop-color="#41A1FB"></stop>
    </linearGradient>
    <linearGradient id="paint1_linear_21_3" x1="75.1549" y1="0.415804" x2="86.0855" y2="12.7025" gradientUnits="userSpaceOnUse">
      <stop stop-color="#41CEFB"></stop>
      <stop offset="1" stop-color="#41A1FB"></stop>
    </linearGradient>
    <linearGradient id="paint2_linear_21_3" x1="75.1549" y1="0.415804" x2="86.0855" y2="12.7025" gradientUnits="userSpaceOnUse">
      <stop stop-color="#41CEFB"></stop>
      <stop offset="1" stop-color="#41A1FB"></stop>
    </linearGradient>
  </defs>
</svg>
