<svg width="48" height="48" viewBox="0 0 48 48" fill="none" xmlns="http://www.w3.org/2000/svg">
<path d="M16.048 35.4026C16.048 35.564 15.8532 35.6931 15.6076 35.6931C15.3282 35.7173 15.1335 35.5882 15.1335 35.4026C15.1335 35.2414 15.3282 35.1124 15.5738 35.1124C15.8278 35.0882 16.048 35.2172 16.048 35.4026ZM13.4145 35.0398C13.3552 35.2012 13.5246 35.3866 13.7786 35.435C13.9988 35.5157 14.2528 35.435 14.3036 35.2738C14.3544 35.1124 14.1936 34.927 13.9395 34.8544C13.7194 34.7979 13.4738 34.8786 13.4145 35.0398ZM17.1573 34.9028C16.9117 34.9591 16.7423 35.1124 16.7677 35.298C16.7931 35.4591 17.0133 35.564 17.2673 35.5075C17.5129 35.451 17.6823 35.298 17.6569 35.1365C17.6314 34.9833 17.4028 34.8786 17.1573 34.9028ZM22.729 4C10.9843 4 2 12.4918 2 23.6771C2 32.6204 7.91047 40.2735 16.3528 42.9671C17.4367 43.1527 17.8177 42.5154 17.8177 41.9914C17.8177 41.4913 17.7923 38.7333 17.7923 37.0398C17.7923 37.0398 11.8649 38.2495 10.6201 34.6367C10.6201 34.6367 9.65485 32.2899 8.26612 31.6849C8.26612 31.6849 6.32703 30.4189 8.40162 30.4431C8.40162 30.4431 10.5101 30.6043 11.6701 32.5236C13.5246 35.6366 16.6323 34.7414 17.8431 34.2092C18.0379 32.9188 18.5883 32.0238 19.198 31.4914C14.4645 30.9916 9.68871 30.3382 9.68871 22.5804C9.68871 20.3626 10.3323 19.2497 11.6871 17.8304C11.4669 17.3062 10.7472 15.145 11.9073 12.3547C13.677 11.8305 17.75 14.5321 17.75 14.5321C19.4436 14.0805 21.2641 13.8466 23.0677 13.8466C24.8714 13.8466 26.692 14.0805 28.3856 14.5321C28.3856 14.5321 32.4584 11.8225 34.2282 12.3547C35.3884 15.153 34.6685 17.3062 34.4485 17.8304C35.8032 19.2578 36.633 20.3707 36.633 22.5804C36.633 30.3624 31.6455 30.9834 26.9121 31.4914C27.6912 32.1285 28.3515 33.3382 28.3515 35.2333C28.3515 37.9511 28.3263 41.3139 28.3263 41.9751C28.3263 42.4994 28.7157 43.1364 29.7912 42.9511C38.2588 40.2735 44 32.6204 44 23.6771C44 12.4918 34.4737 4 22.729 4ZM10.2306 31.814C10.1206 31.8947 10.146 32.0801 10.2899 32.2334C10.4254 32.3625 10.6201 32.419 10.7302 32.3141C10.8403 32.2334 10.8149 32.048 10.671 31.8947C10.5355 31.7656 10.3407 31.7093 10.2306 31.814ZM9.31612 31.1609C9.25685 31.2658 9.34153 31.3947 9.51088 31.4754C9.64638 31.5561 9.81573 31.5319 9.875 31.4188C9.93427 31.3142 9.84959 31.1851 9.68024 31.1044C9.51088 31.056 9.37541 31.0802 9.31612 31.1609ZM12.0597 34.0317C11.9242 34.1366 11.975 34.3785 12.1698 34.5318C12.3645 34.7172 12.6101 34.7414 12.7201 34.6125C12.8302 34.5076 12.7794 34.2657 12.6101 34.1125C12.4238 33.9268 12.1698 33.9027 12.0597 34.0317ZM11.0944 32.8462C10.9589 32.9269 10.9589 33.1367 11.0944 33.3221C11.2298 33.5075 11.4585 33.5882 11.5686 33.5075C11.704 33.4028 11.704 33.193 11.5686 33.0077C11.45 32.8221 11.2298 32.7416 11.0944 32.8462Z" fill="#9D60FB"/>
</svg>
