<svg width="24" height="23" viewBox="0 0 24 23" fill="none" xmlns="http://www.w3.org/2000/svg">
<path d="M8.02742 18.4382C8.02742 18.532 7.91613 18.6071 7.77581 18.6071C7.61613 18.6212 7.50484 18.5461 7.50484 18.4382C7.50484 18.3444 7.61613 18.2693 7.75645 18.2693C7.90161 18.2553 8.02742 18.3303 8.02742 18.4382ZM6.52258 18.2271C6.48871 18.3209 6.58548 18.4288 6.73065 18.457C6.85645 18.5039 7.00161 18.457 7.03064 18.3632C7.05968 18.2693 6.96774 18.1615 6.82258 18.1192C6.69677 18.0864 6.55645 18.1333 6.52258 18.2271ZM8.66129 18.1474C8.52097 18.1802 8.42419 18.2693 8.43871 18.3772C8.45323 18.4711 8.57903 18.532 8.72419 18.4992C8.86452 18.4664 8.96129 18.3772 8.94677 18.2834C8.93226 18.1943 8.80161 18.1333 8.66129 18.1474ZM11.8452 0.171631C5.13387 0.171631 0 5.11121 0 11.6176C0 16.8198 3.37742 21.2716 8.20161 22.8383C8.82097 22.9462 9.03871 22.5756 9.03871 22.2707C9.03871 21.9799 9.02419 20.3756 9.02419 19.3905C9.02419 19.3905 5.6371 20.0941 4.92581 17.9926C4.92581 17.9926 4.37419 16.6275 3.58065 16.2757C3.58065 16.2757 2.47258 15.5392 3.65806 15.5533C3.65806 15.5533 4.8629 15.6471 5.52581 16.7635C6.58548 18.5743 8.36129 18.0536 9.05323 17.744C9.16452 16.9934 9.47903 16.4727 9.82742 16.1631C7.12258 15.8723 4.39355 15.4923 4.39355 10.9796C4.39355 9.68958 4.76129 9.04223 5.53548 8.21662C5.40968 7.91171 4.99839 6.65453 5.66129 5.03146C6.67258 4.72655 9 6.29802 9 6.29802C9.96774 6.03533 11.0081 5.89929 12.0387 5.89929C13.0694 5.89929 14.1097 6.03533 15.0774 6.29802C15.0774 6.29802 17.4048 4.72186 18.4161 5.03146C19.079 6.65922 18.6677 7.91171 18.5419 8.21662C19.3161 9.04692 19.7903 9.69427 19.7903 10.9796C19.7903 15.5064 16.9403 15.8676 14.2355 16.1631C14.6806 16.5337 15.0581 17.2373 15.0581 18.3397C15.0581 19.9206 15.0435 21.8767 15.0435 22.2613C15.0435 22.5663 15.2661 22.9368 15.8806 22.829C20.7194 21.2716 24 16.8198 24 11.6176C24 5.11121 18.5565 0.171631 11.8452 0.171631ZM4.70323 16.3507C4.64032 16.3977 4.65484 16.5055 4.7371 16.5947C4.81452 16.6697 4.92581 16.7026 4.98871 16.6416C5.05161 16.5947 5.0371 16.4868 4.95484 16.3977C4.87742 16.3226 4.76613 16.2898 4.70323 16.3507ZM4.18064 15.9708C4.14677 16.0318 4.19516 16.1068 4.29194 16.1537C4.36935 16.2006 4.46613 16.1866 4.5 16.1209C4.53387 16.0599 4.48548 15.9848 4.38871 15.9379C4.29194 15.9098 4.21452 15.9239 4.18064 15.9708ZM5.74839 17.6408C5.67097 17.7017 5.7 17.8425 5.81129 17.9316C5.92258 18.0395 6.0629 18.0536 6.12581 17.9785C6.18871 17.9175 6.15968 17.7768 6.0629 17.6877C5.95645 17.5798 5.81129 17.5657 5.74839 17.6408ZM5.19677 16.9512C5.11935 16.9981 5.11935 17.1201 5.19677 17.228C5.27419 17.3358 5.40484 17.3828 5.46774 17.3358C5.54516 17.2749 5.54516 17.1529 5.46774 17.045C5.4 16.9371 5.27419 16.8902 5.19677 16.9512Z" fill="white"/>
</svg>
