<svg width="29" height="29" viewBox="0 0 29 29" fill="none" xmlns="http://www.w3.org/2000/svg">
<path fill-rule="evenodd" clip-rule="evenodd" d="M7.2 0C6.7226 0 6.2647 0.189601 5.9272 0.527201C5.5896 0.864801 5.4 1.3226 5.4 1.8V3.6H3.6C2.6452 3.6 1.7295 3.9793 1.0544 4.6544C0.3792 5.3295 0 6.2452 0 7.2V25.2C0 26.1548 0.3792 27.0704 1.0544 27.7456C1.7295 28.4207 2.6452 28.8 3.6 28.8H25.2C26.1547 28.8 27.0704 28.4207 27.7455 27.7456C28.4207 27.0704 28.8 26.1548 28.8 25.2V7.2C28.8 6.2452 28.4207 5.3295 27.7455 4.6544C27.0704 3.9793 26.1547 3.6 25.2 3.6H23.4V1.8C23.4 1.3226 23.2103 0.864801 22.8728 0.527201C22.5352 0.189601 22.0774 0 21.6 0C21.1226 0 20.6647 0.189601 20.3272 0.527201C19.9896 0.864801 19.8 1.3226 19.8 1.8V3.6H9V1.8C9 1.3226 8.8103 0.864801 8.4728 0.527201C8.1352 0.189601 7.6774 0 7.2 0ZM7.2 9C6.7226 9 6.2647 9.1896 5.9272 9.5272C5.5896 9.8648 5.4 10.3226 5.4 10.8C5.4 11.2774 5.5896 11.7352 5.9272 12.0728C6.2647 12.4104 6.7226 12.6 7.2 12.6H21.6C22.0774 12.6 22.5352 12.4104 22.8728 12.0728C23.2103 11.7352 23.4 11.2774 23.4 10.8C23.4 10.3226 23.2103 9.8648 22.8728 9.5272C22.5352 9.1896 22.0774 9 21.6 9H7.2Z" fill="#6100FF"/>
</svg>
