<svg width="16" height="16" viewBox="0 0 16 16" fill="none" xmlns="http://www.w3.org/2000/svg">
<g clip-path="url(#clip0_2848_834)">
<path d="M7.99687 0.800781C6.08727 0.800781 4.25594 1.55938 2.90567 2.90958C1.55541 4.25985 0.796875 6.09118 0.796875 8.00078C0.796875 9.91038 1.55548 11.7417 2.90567 13.092C4.25594 14.4422 6.08727 15.2008 7.99687 15.2008C9.90647 15.2008 11.7378 14.4422 13.0881 13.092C14.4383 11.7417 15.1969 9.91038 15.1969 8.00078C15.1969 6.73693 14.8642 5.49531 14.2322 4.40078C13.6003 3.30625 12.6914 2.39731 11.5969 1.76545C10.5024 1.13351 9.26077 0.800808 7.9969 0.800808L7.99687 0.800781ZM7.96979 12.6381C7.18058 13.0196 5.96006 12.6915 6.17313 11.8967L7.32422 7.60066C7.72693 6.09786 6.61953 6.59066 6.12354 6.80837C6.42687 6.35227 6.84687 5.98577 7.33985 5.74701C8.12906 5.3655 9.34958 5.69367 9.13651 6.48846L7.98537 10.7846C7.58271 12.2874 8.69006 11.7946 9.18605 11.5769C8.88271 12.0329 8.46271 12.3994 7.96979 12.6382V12.6381ZM9.03625 4.87265H9.03619C8.81499 4.87265 8.60286 4.78478 8.44646 4.62838C8.29006 4.47198 8.20219 4.25983 8.20219 4.03865C8.20219 3.81745 8.29006 3.60531 8.44646 3.44886C8.60286 3.29246 8.81501 3.20459 9.03619 3.20459C9.25739 3.20459 9.46958 3.29246 9.62598 3.44891C9.78238 3.60531 9.87025 3.81746 9.87025 4.03865C9.87025 4.25985 9.78238 4.47198 9.62598 4.62838C9.46958 4.78478 9.25743 4.87265 9.03619 4.87265H9.03625Z" fill="#9D60FB"/>
</g>
<defs>
<clipPath id="clip0_2848_834">
<rect width="16" height="16" fill="white"/>
</clipPath>
</defs>
</svg>
