<svg width="38" height="38" viewBox="0 0 38 38" fill="none" xmlns="http://www.w3.org/2000/svg">
<path d="M8.73059 17.5384L8.75662 17.5717C9.10013 12.568 13.3236 8.61283 18.4891 8.61283C18.4917 8.61283 18.4943 8.61283 18.4943 8.61283C18.4969 8.61283 18.4995 8.61283 18.4995 8.61283C21.1304 8.61283 23.5193 9.6407 25.2731 11.3095V1.26629C23.1784 0.451148 20.8936 0 18.5021 0C8.28301 0 0 8.15911 0 18.2253C0 24.7567 3.48965 30.4832 8.73059 33.7001V17.5384Z" fill="white"/>
<path d="M28.2608 2.74268V18.9148L28.2347 18.8815C27.8939 23.885 23.6679 27.8402 18.5023 27.8402C18.4997 27.8402 18.4971 27.8402 18.4971 27.8402C18.4945 27.8402 18.4919 27.8402 18.4919 27.8402C15.861 27.8402 13.4721 26.8125 11.7182 25.1436V35.1843C13.8208 36.002 16.1082 36.4557 18.5049 36.4557C28.724 36.4557 37.0069 28.2967 37.0069 18.2304C37.0069 11.6887 33.5096 5.95966 28.2608 2.74268Z" fill="white"/>
<path d="M24.1492 14.5421C24.0892 14.8523 23.9801 15.1573 23.8107 15.4444C23.0015 16.826 21.2112 17.2977 19.8086 16.5005C18.4059 15.7033 17.9271 13.9397 18.7364 12.5581C18.9576 12.1812 19.2543 11.8737 19.5926 11.6404C19.2387 11.584 18.8743 11.5532 18.5022 11.5532C14.7602 11.5532 11.7285 14.5395 11.7285 18.2256C11.7285 21.9117 14.7627 24.898 18.5022 24.898C22.2417 24.898 25.276 21.9117 25.276 18.2256C25.276 16.8645 24.8622 15.5982 24.1492 14.5421Z" fill="white"/>
</svg>
