<svg width="135" height="135" viewBox="0 0 135 135" fill="none" xmlns="http://www.w3.org/2000/svg">
<circle cx="4.28906" cy="4.29004" r="4" fill="#EFF0F2"/>
<circle cx="4.28906" cy="18.2891" r="4" fill="#EFF0F2"/>
<circle cx="4.29688" cy="32.29" r="4" fill="#EFF0F2"/>
<circle cx="4.28906" cy="46.2891" r="4" fill="#EFF0F2"/>
<circle cx="4.29688" cy="60.291" r="4" fill="#EFF0F2"/>
<circle cx="4.28906" cy="74.29" r="4" fill="#EFF0F2"/>
<circle cx="4.28906" cy="88.2891" r="4" fill="#EFF0F2"/>
<circle cx="4.29688" cy="102.29" r="4" fill="#EFF0F2"/>
<circle cx="4.28906" cy="116.289" r="4" fill="#EFF0F2"/>
<circle cx="4.29688" cy="130.291" r="4" fill="#EFF0F2"/>
<circle cx="18.2891" cy="4.28906" r="4" fill="#EFF0F2"/>
<circle cx="18.2969" cy="18.29" r="4" fill="#EFF0F2"/>
<circle cx="18.2891" cy="32.2891" r="4" fill="#EFF0F2"/>
<circle cx="18.2969" cy="46.291" r="4" fill="#EFF0F2"/>
<circle cx="18.2891" cy="60.29" r="4" fill="#EFF0F2"/>
<circle cx="18.2891" cy="74.2891" r="4" fill="#EFF0F2"/>
<circle cx="18.2969" cy="88.29" r="4" fill="#EFF0F2"/>
<circle cx="18.2891" cy="102.289" r="4" fill="#EFF0F2"/>
<circle cx="18.2969" cy="116.291" r="4" fill="#EFF0F2"/>
<circle cx="18.2891" cy="130.29" r="4" fill="#EFF0F2"/>
<circle cx="32.2969" cy="4.29004" r="4" fill="#EFF0F2"/>
<circle cx="32.2891" cy="18.2891" r="4" fill="#EFF0F2"/>
<circle cx="32.2969" cy="32.291" r="4" fill="#EFF0F2"/>
<circle cx="32.2891" cy="46.29" r="4" fill="#EFF0F2"/>
<circle cx="32.2891" cy="60.2891" r="4" fill="#EFF0F2"/>
<circle cx="32.2969" cy="74.29" r="4" fill="#EFF0F2"/>
<circle cx="32.2891" cy="88.2891" r="4" fill="#EFF0F2"/>
<circle cx="32.2891" cy="102.289" r="4" fill="#EFF0F2"/>
<circle cx="32.2891" cy="116.29" r="4" fill="#EFF0F2"/>
<circle cx="32.2891" cy="130.289" r="4" fill="#EFF0F2"/>
<circle cx="46.2891" cy="4.28906" r="4" fill="#EFF0F2"/>
<circle cx="46.2969" cy="18.291" r="4" fill="#EFF0F2"/>
<circle cx="46.2891" cy="32.29" r="4" fill="#EFF0F2"/>
<circle cx="46.2891" cy="46.2891" r="4" fill="#EFF0F2"/>
<circle cx="46.2969" cy="60.29" r="4" fill="#EFF0F2"/>
<circle cx="46.2891" cy="74.2891" r="4" fill="#EFF0F2"/>
<circle cx="46.2891" cy="88.2891" r="4" fill="#EFF0F2"/>
<circle cx="46.2891" cy="102.29" r="4" fill="#EFF0F2"/>
<circle cx="46.2891" cy="116.289" r="4" fill="#EFF0F2"/>
<circle cx="46.2969" cy="130.29" r="4" fill="#EFF0F2"/>
<circle cx="60.2969" cy="4.29102" r="4" fill="#EFF0F2"/>
<circle cx="60.2891" cy="18.29" r="4" fill="#EFF0F2"/>
<circle cx="60.2891" cy="32.2891" r="4" fill="#EFF0F2"/>
<circle cx="60.2969" cy="46.29" r="4" fill="#EFF0F2"/>
<circle cx="60.2891" cy="60.29" r="4" fill="#EFF0F2"/>
<circle cx="60.2891" cy="74.2891" r="4" fill="#EFF0F2"/>
<circle cx="60.2891" cy="88.29" r="4" fill="#EFF0F2"/>
<circle cx="60.2891" cy="102.289" r="4" fill="#EFF0F2"/>
<circle cx="60.2969" cy="116.29" r="4" fill="#EFF0F2"/>
<circle cx="60.2891" cy="130.29" r="4" fill="#EFF0F2"/>
<circle cx="74.2891" cy="4.29004" r="4" fill="#EFF0F2"/>
<circle cx="74.2891" cy="18.2891" r="4" fill="#EFF0F2"/>
<circle cx="74.2969" cy="32.29" r="4" fill="#EFF0F2"/>
<circle cx="74.2891" cy="46.2891" r="4" fill="#EFF0F2"/>
<circle cx="74.2891" cy="60.2891" r="4" fill="#EFF0F2"/>
<circle cx="74.2891" cy="74.29" r="4" fill="#EFF0F2"/>
<circle cx="74.2891" cy="88.2891" r="4" fill="#EFF0F2"/>
<circle cx="74.2969" cy="102.29" r="4" fill="#EFF0F2"/>
<circle cx="74.2891" cy="116.29" r="4" fill="#EFF0F2"/>
<circle cx="74.2891" cy="130.289" r="4" fill="#EFF0F2"/>
<circle cx="88.2891" cy="4.28906" r="4" fill="#EFF0F2"/>
<circle cx="88.2969" cy="18.29" r="4" fill="#EFF0F2"/>
<circle cx="88.2891" cy="32.2891" r="4" fill="#EFF0F2"/>
<circle cx="88.2891" cy="46.2891" r="4" fill="#EFF0F2"/>
<circle cx="88.2891" cy="60.29" r="4" fill="#EFF0F2"/>
<circle cx="88.2891" cy="74.2891" r="4" fill="#EFF0F2"/>
<circle cx="88.2969" cy="88.29" r="4" fill="#EFF0F2"/>
<circle cx="88.2891" cy="102.29" r="4" fill="#EFF0F2"/>
<circle cx="88.2891" cy="116.289" r="4" fill="#EFF0F2"/>
<circle cx="88.2969" cy="130.29" r="4" fill="#EFF0F2"/>
<circle cx="102.297" cy="4.29004" r="4" fill="#EFF0F2"/>
<circle cx="102.289" cy="18.29" r="4" fill="#EFF0F2"/>
<circle cx="102.289" cy="32.2891" r="4" fill="#EFF0F2"/>
<circle cx="102.297" cy="46.29" r="4" fill="#EFF0F2"/>
<circle cx="102.289" cy="60.2891" r="4" fill="#EFF0F2"/>
<circle cx="102.297" cy="74.29" r="4" fill="#EFF0F2"/>
<circle cx="102.289" cy="88.29" r="4" fill="#EFF0F2"/>
<circle cx="102.289" cy="102.289" r="4" fill="#EFF0F2"/>
<circle cx="102.297" cy="116.29" r="4" fill="#EFF0F2"/>
<circle cx="102.289" cy="130.289" r="4" fill="#EFF0F2"/>
<circle cx="116.289" cy="4.29004" r="4" fill="#EFF0F2"/>
<circle cx="116.289" cy="18.2891" r="4" fill="#EFF0F2"/>
<circle cx="116.297" cy="32.29" r="4" fill="#EFF0F2"/>
<circle cx="116.289" cy="46.2891" r="4" fill="#EFF0F2"/>
<circle cx="116.297" cy="60.291" r="4" fill="#EFF0F2"/>
<circle cx="116.289" cy="74.29" r="4" fill="#EFF0F2"/>
<circle cx="116.289" cy="88.2891" r="4" fill="#EFF0F2"/>
<circle cx="116.297" cy="102.29" r="4" fill="#EFF0F2"/>
<circle cx="116.289" cy="116.289" r="4" fill="#EFF0F2"/>
<circle cx="116.297" cy="130.291" r="4" fill="#EFF0F2"/>
<circle cx="130.289" cy="4.28906" r="4" fill="#EFF0F2"/>
<circle cx="130.297" cy="18.29" r="4" fill="#EFF0F2"/>
<circle cx="130.289" cy="32.2891" r="4" fill="#EFF0F2"/>
<circle cx="130.297" cy="46.291" r="4" fill="#EFF0F2"/>
<circle cx="130.289" cy="60.29" r="4" fill="#EFF0F2"/>
<circle cx="130.289" cy="74.2891" r="4" fill="#EFF0F2"/>
<circle cx="130.297" cy="88.29" r="4" fill="#EFF0F2"/>
<circle cx="130.289" cy="102.289" r="4" fill="#EFF0F2"/>
<circle cx="130.297" cy="116.291" r="4" fill="#EFF0F2"/>
<circle cx="130.289" cy="130.29" r="4" fill="#EFF0F2"/>
</svg>
