<svg width="898" height="202" viewBox="0 0 898 202" fill="none" xmlns="http://www.w3.org/2000/svg">
<path opacity="0.1" d="M27.6 144.4L27.2208 145.325L27.6 144.4ZM8 129.6L7.19405 130.192L7.20196 130.203L8 129.6ZM0.400001 106V105H-0.629405L-0.599579 106.029L0.400001 106ZM36.8 106L37.7948 105.898L37.7027 105H36.8V106ZM42.2 118L41.5257 118.738L41.5347 118.747L41.5438 118.755L42.2 118ZM66.2 118.6L66.8115 119.391L66.8225 119.383L66.8332 119.374L66.2 118.6ZM67 100.2L66.2929 100.907L66.303 100.917L66.3134 100.927L67 100.2ZM58.4 94.6L57.9973 95.5153L58.0038 95.5182L58.0104 95.521L58.4 94.6ZM44 89.6L43.7049 90.5555L43.7145 90.5584L44 89.6ZM21.8 81.2L21.3612 82.0986L21.8 81.2ZM7 68.8L7.79766 68.1969L7 68.8ZM15 16.8L15.6124 17.5906L15.6193 17.5852L15 16.8ZM89.4 16.8L88.7807 17.5852L88.7876 17.5905L89.4 16.8ZM104.6 47.6V48.6H105.652L105.599 47.5496L104.6 47.6ZM67.6 47.6L66.6017 47.6587L66.6571 48.6H67.6V47.6ZM62.6 37L61.9438 37.7546L61.9534 37.7629L61.9631 37.771L62.6 37ZM40.8 36.4L41.4441 37.1649L41.4556 37.1552L41.4668 37.1452L40.8 36.4ZM43.4 56.4L43.9105 55.5401L43.4 56.4ZM63.4 64.6L63.7204 63.6526L63.7078 63.6485L63.4 64.6ZM85.4 73.4L84.9528 74.2945L84.9612 74.2986L85.4 73.4ZM100.2 85.6L99.4096 86.2126L100.2 85.6ZM100.2 128L99.3549 127.465L99.351 127.472L99.3472 127.478L100.2 128ZM82.6 143.6L82.1528 142.706L82.6 143.6ZM55.2 148.4C45.0419 148.4 35.9738 146.751 27.9792 143.475L27.2208 145.325C35.4929 148.716 44.8248 150.4 55.2 150.4V148.4ZM27.9792 143.475C19.9992 140.204 13.6153 135.377 8.79804 128.997L7.20196 130.203C12.2514 136.89 18.9341 141.929 27.2208 145.325L27.9792 143.475ZM8.80588 129.008C4.14195 122.66 1.66119 114.996 1.39958 105.971L-0.599579 106.029C-0.327853 115.404 2.25805 123.474 7.19412 130.192L8.80588 129.008ZM0.400001 107H36.8V105H0.400001V107ZM35.8052 106.102C36.3569 111.481 38.2343 115.733 41.5257 118.738L42.8743 117.262C40.0323 114.667 38.3098 110.919 37.7948 105.898L35.8052 106.102ZM41.5438 118.755C44.8294 121.612 49.0794 123 54.2 123V121C49.4539 121 45.7039 119.722 42.8562 117.245L41.5438 118.755ZM54.2 123C59.4078 123 63.6487 121.835 66.8115 119.391L65.5886 117.809C62.8847 119.898 59.1256 121 54.2 121V123ZM66.8332 119.374C70.0216 116.765 71.6 113.202 71.6 108.8H69.6C69.6 112.664 68.245 115.635 65.5668 117.826L66.8332 119.374ZM71.6 108.8C71.6 105.074 70.2976 101.939 67.6866 99.473L66.3134 100.927C68.5024 102.994 69.6 105.593 69.6 108.8H71.6ZM67.7071 99.4929C65.335 97.1208 62.3546 95.1873 58.7896 93.679L58.0104 95.521C61.3788 96.9461 64.1317 98.7459 66.2929 100.907L67.7071 99.4929ZM58.8027 93.6847C55.4126 92.193 50.5661 90.5124 44.2855 88.6416L43.7145 90.5584C49.9673 92.4209 54.7208 94.0737 57.9973 95.5153L58.8027 93.6847ZM44.2951 88.6445C35.2564 85.8532 27.9093 83.0707 22.2388 80.3014L21.3612 82.0986C27.1573 84.9293 34.6103 87.7468 43.7049 90.5555L44.2951 88.6445ZM22.2388 80.3014C16.657 77.5754 11.8434 73.5478 7.79766 68.1969L6.20234 69.4031C10.4232 74.9856 15.4763 79.2246 21.3612 82.0986L22.2388 80.3014ZM7.79766 68.1969C3.82878 62.9477 1.8 56.0446 1.8 47.4H-0.199999C-0.199999 56.3554 1.90455 63.7189 6.20234 69.4031L7.79766 68.1969ZM1.8 47.4C1.8 34.6102 6.41477 24.7155 15.6124 17.5905L14.3876 16.0094C4.65189 23.5512 -0.199999 34.0565 -0.199999 47.4H1.8ZM15.6193 17.5852C24.8678 10.2906 36.965 6.6 52 6.6V4.6C36.635 4.6 24.0655 8.37609 14.3807 16.0148L15.6193 17.5852ZM52 6.6C67.3063 6.6 79.5351 10.2929 88.7807 17.5852L90.0193 16.0148C80.3316 8.37381 67.627 4.6 52 4.6V6.6ZM88.7876 17.5905C97.9981 24.7255 102.948 34.7077 103.601 47.6504L105.599 47.5496C104.919 34.0923 99.7352 23.5412 90.0124 16.0094L88.7876 17.5905ZM104.6 46.6H67.6V48.6H104.6V46.6ZM68.5983 47.5413C68.3178 42.7738 66.5489 38.9651 63.2369 36.229L61.9631 37.771C64.7844 40.1016 66.3488 43.3595 66.6017 47.6587L68.5983 47.5413ZM63.2562 36.2454C59.9756 33.3927 55.7951 32 50.8 32V34C55.4049 34 59.0911 35.274 61.9438 37.7546L63.2562 36.2454ZM50.8 32C46.4763 32 42.8875 33.1903 40.1332 35.6548L41.4668 37.1452C43.7791 35.0763 46.857 34 50.8 34V32ZM40.1559 35.6351C37.3424 38.0043 36 41.4512 36 45.8H38C38 41.8821 39.1909 39.0624 41.4441 37.1649L40.1559 35.6351ZM36 45.8C36 50.7248 38.354 54.5669 42.8895 57.2598L43.9105 55.5401C39.9127 53.1664 38 49.9419 38 45.8H36ZM42.8895 57.2598C47.2543 59.8515 54.0068 62.6121 63.0922 65.5514L63.7078 63.6485C54.6598 60.7213 48.079 58.0152 43.9105 55.5401L42.8895 57.2598ZM63.0796 65.5473C72.123 68.6061 79.4092 71.5226 84.9528 74.2944L85.8472 72.5056C80.1908 69.6774 72.8104 66.7273 63.7204 63.6527L63.0796 65.5473ZM84.9612 74.2986C90.5491 77.0275 95.3645 80.9931 99.4096 86.2126L100.99 84.9874C96.7689 79.5402 91.7176 75.3725 85.8388 72.5014L84.9612 74.2986ZM99.4096 86.2126C103.377 91.3313 105.4 97.9664 105.4 106.2H107.4C107.4 97.6336 105.29 90.5353 100.99 84.9874L99.4096 86.2126ZM105.4 106.2C105.4 114.018 103.383 121.098 99.3549 127.465L101.045 128.535C105.283 121.836 107.4 114.382 107.4 106.2H105.4ZM99.3472 127.478C95.457 133.832 89.7409 138.912 82.1528 142.706L83.0472 144.494C90.9258 140.555 96.943 135.235 101.053 128.522L99.3472 127.478ZM82.1528 142.706C74.5854 146.489 65.6115 148.4 55.2 148.4V150.4C65.8552 150.4 75.148 148.444 83.0472 144.494L82.1528 142.706ZM155.647 52.2H154.647V55.613L156.489 52.7397L155.647 52.2ZM169.447 39.6L168.968 38.7221L169.447 39.6ZM215.047 41.8L214.517 42.648L215.047 41.8ZM232.647 61.8L231.75 62.2417L231.755 62.2527L232.647 61.8ZM232.647 122.4L231.752 121.953L231.75 121.958L232.647 122.4ZM215.047 142.6L215.577 143.448L215.588 143.441L215.047 142.6ZM169.447 144.8L168.968 145.678L168.976 145.682L169.447 144.8ZM155.647 132.4L156.482 131.85L154.647 129.061V132.4H155.647ZM155.647 201.2V202.2H156.647V201.2H155.647ZM121.447 201.2H120.447V202.2H121.447V201.2ZM121.447 36.4V35.4H120.447V36.4H121.447ZM155.647 36.4H156.647V35.4H155.647V36.4ZM197.247 72L196.52 72.6872L196.53 72.6973L196.54 72.7071L197.247 72ZM162.447 72L161.73 71.3026L161.72 71.3128L162.447 72ZM162.447 112.4L161.72 113.087L161.73 113.097L162.447 112.4ZM197.247 112.4L197.964 113.097L197.973 113.088L197.247 112.4ZM156.489 52.7397C159.724 47.6926 164.194 43.6042 169.926 40.4779L168.968 38.7221C162.966 41.9958 158.236 46.3074 154.805 51.6603L156.489 52.7397ZM169.926 40.4779C175.621 37.3711 182.318 35.8 190.047 35.8V33.8C182.043 33.8 175.006 35.4289 168.968 38.7221L169.926 40.4779ZM190.047 35.8C199.068 35.8 207.216 38.0852 214.517 42.648L215.577 40.952C207.944 36.1814 199.425 33.8 190.047 33.8V35.8ZM214.517 42.648C221.811 47.2066 227.557 53.7252 231.75 62.2417L233.544 61.3583C229.203 52.5415 223.216 45.7268 215.577 40.952L214.517 42.648ZM231.755 62.2527C236.072 70.756 238.247 80.6625 238.247 92H240.247C240.247 80.4042 238.021 70.1774 233.539 61.3473L231.755 62.2527ZM238.247 92C238.247 103.337 236.072 113.313 231.752 121.953L233.541 122.847C238.021 113.887 240.247 103.596 240.247 92H238.247ZM231.75 121.958C227.556 130.477 221.807 137.066 214.506 141.759L215.588 143.441C223.221 138.534 229.204 131.657 233.544 122.842L231.75 121.958ZM214.517 141.752C207.216 146.315 199.068 148.6 190.047 148.6V150.6C199.425 150.6 207.944 148.219 215.577 143.448L214.517 141.752ZM190.047 148.6C182.455 148.6 175.754 147.03 169.917 143.918L168.976 145.682C175.14 148.97 182.172 150.6 190.047 150.6V148.6ZM169.926 143.922C164.188 140.792 159.717 136.766 156.482 131.85L154.811 132.95C158.244 138.167 162.972 142.408 168.968 145.678L169.926 143.922ZM154.647 132.4V201.2H156.647V132.4H154.647ZM155.647 200.2H121.447V202.2H155.647V200.2ZM122.447 201.2V36.4H120.447V201.2H122.447ZM121.447 37.4H155.647V35.4H121.447V37.4ZM154.647 36.4V52.2H156.647V36.4H154.647ZM205.447 92C205.447 83.2733 202.987 76.3258 197.954 71.2929L196.54 72.7071C201.107 77.2742 203.447 83.66 203.447 92H205.447ZM197.973 71.3128C193.113 66.1751 187.049 63.6 179.847 63.6V65.6C186.512 65.6 192.047 67.9582 196.52 72.6872L197.973 71.3128ZM179.847 63.6C172.773 63.6 166.716 66.1785 161.73 71.3026L163.164 72.6974C167.778 67.9548 173.321 65.6 179.847 65.6V63.6ZM161.72 71.3128C156.836 76.4763 154.447 83.4796 154.447 92.2H156.447C156.447 83.8537 158.724 77.3904 163.173 72.6872L161.72 71.3128ZM154.447 92.2C154.447 100.92 156.836 107.924 161.72 113.087L163.173 111.713C158.724 107.01 156.447 100.546 156.447 92.2H154.447ZM161.73 113.097C166.716 118.222 172.773 120.8 179.847 120.8V118.8C173.321 118.8 167.778 116.445 163.164 111.703L161.73 113.097ZM179.847 120.8C186.921 120.8 192.978 118.222 197.964 113.097L196.53 111.703C191.916 116.445 186.373 118.8 179.847 118.8V120.8ZM197.973 113.088C202.986 107.796 205.447 100.729 205.447 92H203.447C203.447 100.338 201.108 106.871 196.521 111.712L197.973 113.088ZM355.789 100.4V101.4H356.68L356.782 100.515L355.789 100.4ZM278.389 100.4V99.4H277.309L277.392 100.477L278.389 100.4ZM284.989 116.4L284.294 117.119L284.307 117.132L284.32 117.143L284.989 116.4ZM317.389 111V110H316.75L316.482 110.58L317.389 111ZM353.789 111L354.758 111.247L355.076 110H353.789V111ZM343.589 130.8L342.824 130.156L342.815 130.167L343.589 130.8ZM325.389 144.6L325.803 145.51L325.389 144.6ZM271.589 142.6L271.109 143.477L271.589 142.6ZM251.589 122.6L252.464 122.115L251.589 122.6ZM251.389 61.8L250.514 61.3155L250.509 61.3259L251.389 61.8ZM271.389 41.8L271.869 42.6774L271.389 41.8ZM329.589 41.6L329.114 42.48L329.589 41.6ZM349.189 61L348.315 61.4857L348.321 61.4961L349.189 61ZM321.389 81.4V82.4H322.389V81.4H321.389ZM315.389 67.4L316.044 66.6443L315.389 67.4ZM285.789 67.2L285.149 66.4318L285.142 66.4371L285.136 66.4426L285.789 67.2ZM278.589 81.4L277.6 81.2496L277.425 82.4H278.589V81.4ZM355.389 90.4C355.389 93.5584 355.192 96.8534 354.796 100.285L356.782 100.515C357.186 97.0133 357.389 93.6416 357.389 90.4H355.389ZM355.789 99.4H278.389V101.4H355.789V99.4ZM277.392 100.477C277.938 107.581 280.205 113.171 284.294 117.119L285.684 115.681C282.04 112.162 279.906 107.086 279.386 100.323L277.392 100.477ZM284.32 117.143C288.516 120.92 293.626 122.8 299.589 122.8V120.8C294.085 120.8 289.462 119.08 285.658 115.657L284.32 117.143ZM299.589 122.8C303.997 122.8 307.802 121.869 310.958 119.955C314.118 118.038 316.559 115.174 318.297 111.42L316.482 110.58C314.886 114.026 312.694 116.562 309.92 118.245C307.142 119.931 303.715 120.8 299.589 120.8V122.8ZM317.389 112H353.789V110H317.389V112ZM352.82 110.753C350.991 117.939 347.661 124.403 342.824 130.156L344.354 131.444C349.383 125.463 352.854 118.728 354.758 111.247L352.82 110.753ZM342.815 130.167C338.118 135.907 332.178 140.416 324.975 143.69L325.803 145.51C333.267 142.118 339.46 137.426 344.363 131.433L342.815 130.167ZM324.975 143.69C317.787 146.957 309.731 148.6 300.789 148.6V150.6C309.981 150.6 318.324 148.91 325.803 145.51L324.975 143.69ZM300.789 148.6C290.002 148.6 280.438 146.299 272.069 141.723L271.109 143.477C279.807 148.234 289.709 150.6 300.789 150.6V148.6ZM272.069 141.723C263.705 137.149 257.174 130.62 252.464 122.115L250.714 123.085C255.604 131.914 262.406 138.718 271.109 143.477L272.069 141.723ZM252.464 122.115C247.759 113.621 245.389 103.66 245.389 92.2H243.389C243.389 103.94 245.819 114.246 250.714 123.085L252.464 122.115ZM245.389 92.2C245.389 80.7359 247.694 70.7711 252.27 62.2741L250.509 61.3259C245.751 70.1622 243.389 80.4641 243.389 92.2H245.389ZM252.264 62.2845C256.974 53.7803 263.505 47.2514 271.869 42.6774L270.909 40.9226C262.206 45.682 255.404 52.4864 250.514 61.3155L252.264 62.2845ZM271.869 42.6774C280.236 38.1017 289.867 35.8 300.789 35.8V33.8C289.578 33.8 279.609 36.165 270.909 40.9226L271.869 42.6774ZM300.789 35.8C311.445 35.8 320.878 38.0353 329.114 42.48L330.064 40.72C321.5 36.098 311.733 33.8 300.789 33.8V35.8ZM329.114 42.48C337.345 46.9221 343.74 53.2513 348.315 61.4856L350.063 60.5143C345.305 51.9487 338.633 45.3446 330.064 40.72L329.114 42.48ZM348.321 61.4961C353.022 69.7226 355.389 79.3463 355.389 90.4H357.389C357.389 79.0537 354.956 69.0773 350.057 60.5039L348.321 61.4961ZM322.389 81.4C322.389 75.2786 320.288 70.3229 316.044 66.6443L314.734 68.1557C318.49 71.4105 320.389 75.7881 320.389 81.4H322.389ZM316.044 66.6443C311.838 62.999 306.595 61.2 300.389 61.2V63.2C306.183 63.2 310.94 64.8677 314.734 68.1557L316.044 66.6443ZM300.389 61.2C294.447 61.2 289.347 62.9332 285.149 66.4318L286.429 67.9682C290.231 64.8001 294.864 63.2 300.389 63.2V61.2ZM285.136 66.4426C281.052 69.9634 278.562 74.9332 277.6 81.2496L279.578 81.5504C280.483 75.6001 282.793 71.1032 286.442 67.9574L285.136 66.4426ZM278.589 82.4H321.389V80.4H278.589V82.4ZM368.031 61.8L367.14 61.3473L367.134 61.3583L368.031 61.8ZM385.831 41.8L386.361 42.648L385.831 41.8ZM431.431 39.6L430.952 40.4779L430.961 40.4823L431.431 39.6ZM445.231 52.2L444.38 52.7241L446.231 55.733V52.2H445.231ZM445.231 36.4V35.4H444.231V36.4H445.231ZM479.431 36.4H480.431V35.4H479.431V36.4ZM479.431 148V149H480.431V148H479.431ZM445.231 148H444.231V149H445.231V148ZM445.231 132.2H446.231V128.787L444.389 131.66L445.231 132.2ZM431.231 144.8L430.761 143.918L430.752 143.922L431.231 144.8ZM385.831 142.6L385.29 143.441L385.301 143.448L385.831 142.6ZM368.031 122.4L367.131 122.836L367.135 122.845L367.14 122.853L368.031 122.4ZM438.031 72L437.305 72.6873L437.315 72.6974L438.031 72ZM403.431 72L402.715 71.3026L402.714 71.3029L403.431 72ZM403.431 112.4L402.696 113.077L402.705 113.088L402.715 113.097L403.431 112.4ZM438.031 112.4L437.314 111.703L437.305 111.713L438.031 112.4ZM362.631 92C362.631 80.6581 364.741 70.7475 368.928 62.2417L367.134 61.3583C362.788 70.1858 360.631 80.4086 360.631 92H362.631ZM368.923 62.2527C373.249 53.7309 379.065 47.2084 386.361 42.648L385.301 40.952C377.665 45.7249 371.613 52.5358 367.14 61.3473L368.923 62.2527ZM386.361 42.648C393.662 38.0852 401.81 35.8 410.831 35.8V33.8C401.453 33.8 392.934 36.1814 385.301 40.952L386.361 42.648ZM410.831 35.8C418.56 35.8 425.257 37.3711 430.952 40.4779L431.91 38.7221C425.872 35.4289 418.836 33.8 410.831 33.8V35.8ZM430.961 40.4823C436.822 43.6086 441.283 47.6919 444.38 52.7241L446.083 51.6759C442.78 46.3081 438.04 41.9914 431.902 38.7176L430.961 40.4823ZM446.231 52.2V36.4H444.231V52.2H446.231ZM445.231 37.4H479.431V35.4H445.231V37.4ZM478.431 36.4V148H480.431V36.4H478.431ZM479.431 147H445.231V149H479.431V147ZM446.231 148V132.2H444.231V148H446.231ZM444.389 131.66C441.158 136.702 436.625 140.79 430.761 143.918L431.702 145.682C437.837 142.41 442.638 138.098 446.073 132.74L444.389 131.66ZM430.752 143.922C425.057 147.029 418.36 148.6 410.631 148.6V150.6C418.636 150.6 425.673 148.971 431.71 145.678L430.752 143.922ZM410.631 148.6C401.746 148.6 393.664 146.316 386.361 141.752L385.301 143.448C392.932 148.217 401.383 150.6 410.631 150.6V148.6ZM386.372 141.759C379.069 137.064 373.25 130.471 368.923 121.947L367.14 122.853C371.612 131.662 377.66 138.536 385.29 143.441L386.372 141.759ZM368.931 121.964C364.741 113.321 362.631 103.341 362.631 92H360.631C360.631 103.592 362.788 113.879 367.131 122.836L368.931 121.964ZM446.231 92.2C446.231 83.472 443.771 76.4651 438.748 71.3026L437.315 72.6974C441.892 77.4016 444.231 83.8613 444.231 92.2H446.231ZM438.758 71.3128C433.902 66.1795 427.906 63.6 420.831 63.6V65.6C427.357 65.6 432.827 67.9538 437.305 72.6872L438.758 71.3128ZM420.831 63.6C413.758 63.6 407.7 66.1785 402.715 71.3026L404.148 72.6974C408.762 67.9548 414.305 65.6 420.831 65.6V63.6ZM402.714 71.3029C397.82 76.3371 395.431 83.281 395.431 92H397.431C397.431 83.6523 399.709 77.2629 404.148 72.6971L402.714 71.3029ZM395.431 92C395.431 100.722 397.821 107.785 402.696 113.077L404.167 111.723C399.708 106.882 397.431 100.345 397.431 92H395.431ZM402.715 113.097C407.7 118.222 413.758 120.8 420.831 120.8V118.8C414.305 118.8 408.762 116.445 404.148 111.703L402.715 113.097ZM420.831 120.8C427.906 120.8 433.902 118.221 438.758 113.087L437.305 111.713C432.827 116.446 427.357 118.8 420.831 118.8V120.8ZM438.748 113.097C443.771 107.935 446.231 100.928 446.231 92.2H444.231C444.231 100.539 441.892 106.998 437.315 111.703L438.748 113.097ZM566.373 148L565.564 148.588L565.864 149H566.373V148ZM532.373 101.2L533.182 100.612L531.373 98.1221V101.2H532.373ZM532.373 148V149H533.373V148H532.373ZM498.173 148H497.173V149H498.173V148ZM498.173 0V-1H497.173V0H498.173ZM532.373 0H533.373V-1H532.373V0ZM532.373 81.8H531.373V84.8177L533.176 82.3972L532.373 81.8ZM566.173 36.4V35.4H565.671L565.371 35.8028L566.173 36.4ZM608.373 36.4L609.143 37.038L610.501 35.4H608.373V36.4ZM561.973 92.4L561.203 91.762L560.671 92.405L561.208 93.044L561.973 92.4ZM608.773 148V149H610.922L609.539 147.356L608.773 148ZM567.182 147.412L533.182 100.612L531.564 101.788L565.564 148.588L567.182 147.412ZM531.373 101.2V148H533.373V101.2H531.373ZM532.373 147H498.173V149H532.373V147ZM499.173 148V0H497.173V148H499.173ZM498.173 1H532.373V-1H498.173V1ZM531.373 0V81.8H533.373V0H531.373ZM533.176 82.3972L566.976 36.9972L565.371 35.8028L531.571 81.2028L533.176 82.3972ZM566.173 37.4H608.373V35.4H566.173V37.4ZM607.603 35.762L561.203 91.762L562.743 93.038L609.143 37.038L607.603 35.762ZM561.208 93.044L608.008 148.644L609.539 147.356L562.738 91.756L561.208 93.044ZM608.773 147H566.373V149H608.773V147ZM720.406 100.4V101.4H721.297L721.4 100.515L720.406 100.4ZM643.006 100.4V99.4H641.926L642.009 100.477L643.006 100.4ZM649.606 116.4L648.912 117.119L648.924 117.132L648.937 117.143L649.606 116.4ZM682.006 111V110H681.367L681.099 110.58L682.006 111ZM718.406 111L719.375 111.247L719.693 110H718.406V111ZM708.206 130.8L707.441 130.156L707.432 130.167L708.206 130.8ZM690.006 144.6L690.42 145.51L690.006 144.6ZM636.206 142.6L635.726 143.477L636.206 142.6ZM616.206 122.6L617.081 122.115L616.206 122.6ZM616.006 61.8L615.131 61.3155L615.126 61.3259L616.006 61.8ZM636.006 41.8L636.486 42.6774L636.006 41.8ZM694.206 41.6L693.731 42.48L694.206 41.6ZM713.806 61L712.932 61.4857L712.938 61.4961L713.806 61ZM686.006 81.4V82.4H687.006V81.4H686.006ZM680.006 67.4L680.661 66.6443L680.006 67.4ZM650.406 67.2L649.766 66.4318L649.76 66.4371L649.753 66.4426L650.406 67.2ZM643.206 81.4L642.218 81.2496L642.043 82.4H643.206V81.4ZM720.006 90.4C720.006 93.5584 719.809 96.8534 719.413 100.285L721.4 100.515C721.804 97.0133 722.006 93.6416 722.006 90.4H720.006ZM720.406 99.4H643.006V101.4H720.406V99.4ZM642.009 100.477C642.556 107.581 644.822 113.171 648.912 117.119L650.301 115.681C646.657 112.162 644.523 107.086 644.003 100.323L642.009 100.477ZM648.937 117.143C653.134 120.92 658.244 122.8 664.206 122.8V120.8C658.702 120.8 654.079 119.08 650.275 115.657L648.937 117.143ZM664.206 122.8C668.614 122.8 672.42 121.869 675.575 119.955C678.735 118.038 681.176 115.174 682.914 111.42L681.099 110.58C679.503 114.026 677.311 116.562 674.538 118.245C671.76 119.931 668.332 120.8 664.206 120.8V122.8ZM682.006 112H718.406V110H682.006V112ZM717.437 110.753C715.608 117.939 712.279 124.403 707.441 130.156L708.972 131.444C714.001 125.463 717.471 118.728 719.375 111.247L717.437 110.753ZM707.432 130.167C702.736 135.907 696.795 140.416 689.592 143.69L690.42 145.51C697.884 142.118 704.077 137.426 708.98 131.433L707.432 130.167ZM689.592 143.69C682.404 146.957 674.348 148.6 665.406 148.6V150.6C674.598 150.6 682.941 148.91 690.42 145.51L689.592 143.69ZM665.406 148.6C654.619 148.6 645.055 146.299 636.686 141.723L635.726 143.477C644.424 148.234 654.326 150.6 665.406 150.6V148.6ZM636.686 141.723C628.322 137.149 621.791 130.62 617.081 122.115L615.331 123.085C620.221 131.914 627.024 138.718 635.726 143.477L636.686 141.723ZM617.081 122.115C612.376 113.621 610.006 103.66 610.006 92.2H608.006C608.006 103.94 610.436 114.246 615.331 123.085L617.081 122.115ZM610.006 92.2C610.006 80.7359 612.311 70.7711 616.887 62.2741L615.126 61.3259C610.368 70.1622 608.006 80.4641 608.006 92.2H610.006ZM616.881 62.2845C621.591 53.7803 628.122 47.2514 636.486 42.6774L635.526 40.9226C626.824 45.682 620.021 52.4864 615.131 61.3155L616.881 62.2845ZM636.486 42.6774C644.853 38.1017 654.484 35.8 665.406 35.8V33.8C654.195 33.8 644.226 36.165 635.526 40.9226L636.486 42.6774ZM665.406 35.8C676.062 35.8 685.495 38.0353 693.731 42.48L694.681 40.72C686.117 36.098 676.35 33.8 665.406 33.8V35.8ZM693.731 42.48C701.962 46.9221 708.357 53.2513 712.932 61.4856L714.68 60.5143C709.922 51.9487 703.25 45.3446 694.681 40.72L693.731 42.48ZM712.938 61.4961C717.639 69.7226 720.006 79.3463 720.006 90.4H722.006C722.006 79.0537 719.574 69.0773 714.674 60.5039L712.938 61.4961ZM687.006 81.4C687.006 75.2786 684.906 70.3229 680.661 66.6443L679.351 68.1557C683.107 71.4105 685.006 75.7881 685.006 81.4H687.006ZM680.661 66.6443C676.455 62.999 671.213 61.2 665.006 61.2V63.2C670.8 63.2 675.557 64.8677 679.351 68.1557L680.661 66.6443ZM665.006 61.2C659.064 61.2 653.964 62.9332 649.766 66.4318L651.046 67.9682C654.848 64.8001 659.482 63.2 665.006 63.2V61.2ZM649.753 66.4426C645.669 69.9634 643.179 74.9332 642.218 81.2496L644.195 81.5504C645.1 75.6001 647.41 71.1032 651.059 67.9574L649.753 66.4426ZM643.206 82.4H686.006V80.4H643.206V82.4ZM767.248 55H766.248V58.3639L768.086 55.5463L767.248 55ZM782.248 40.6L782.749 41.4659L782.756 41.4617L782.763 41.4575L782.248 40.6ZM802.248 35.2H803.248V34.2H802.248V35.2ZM802.248 71.4V72.4H803.248V71.4H802.248ZM773.648 77L774.293 77.7643L774.3 77.7585L774.307 77.7526L773.648 77ZM767.248 148V149H768.248V148H767.248ZM733.048 148H732.048V149H733.048V148ZM733.048 36.4V35.4H732.048V36.4H733.048ZM767.248 36.4H768.248V35.4H767.248V36.4ZM768.086 55.5463C772.005 49.5368 776.892 44.8495 782.749 41.4659L781.748 39.7341C775.604 43.2838 770.492 48.1965 766.411 54.4537L768.086 55.5463ZM782.763 41.4575C788.6 37.9553 795.087 36.2 802.248 36.2V34.2C794.743 34.2 787.897 36.0447 781.734 39.7425L782.763 41.4575ZM801.248 35.2V71.4H803.248V35.2H801.248ZM802.248 70.4H792.848V72.4H802.248V70.4ZM792.848 70.4C784.191 70.4 777.512 72.2909 772.99 76.2474L774.307 77.7526C778.318 74.2425 784.439 72.4 792.848 72.4V70.4ZM773.004 76.2357C768.4 80.1198 766.248 86.8917 766.248 96.2H768.248C768.248 87.1083 770.363 81.0802 774.293 77.7643L773.004 76.2357ZM766.248 96.2V148H768.248V96.2H766.248ZM767.248 147H733.048V149H767.248V147ZM734.048 148V36.4H732.048V148H734.048ZM733.048 37.4H767.248V35.4H733.048V37.4ZM766.248 36.4V55H768.248V36.4H766.248ZM831.995 144.6L832.397 143.684L831.995 144.6ZM813.995 131L813.195 131.6L813.202 131.609L813.995 131ZM806.595 111.4V110.4H805.518L805.598 111.474L806.595 111.4ZM840.395 111.4L841.39 111.297L841.297 110.4H840.395V111.4ZM845.795 120.8L846.395 120L845.795 120.8ZM867.395 122L867.972 122.817L867.981 122.811L867.395 122ZM865.995 108.4L865.563 109.302L865.577 109.309L865.593 109.315L865.995 108.4ZM849.795 103.2L850.038 102.23L850.03 102.228L850.023 102.226L849.795 103.2ZM829.795 97.4L829.424 98.3285L829.434 98.3325L829.444 98.3363L829.795 97.4ZM815.995 87.6L815.234 88.2489L815.239 88.2546L815.244 88.2601L815.995 87.6ZM815.395 52L814.566 51.4405L814.563 51.4453L815.395 52ZM830.995 39.4L830.591 38.4854L830.584 38.4884L830.995 39.4ZM888.595 45.2L887.94 45.9557L887.947 45.961L888.595 45.2ZM902.595 72.8V73.8H903.705L903.59 72.6959L902.595 72.8ZM870.995 72.8L870.005 72.9366L870.124 73.8H870.995V72.8ZM865.795 63.6L865.166 64.3772L865.175 64.3844L865.184 64.3913L865.795 63.6ZM845.395 62.6L845.962 63.424L845.979 63.4124L845.995 63.4L845.395 62.6ZM847.195 76L846.763 76.9015L846.769 76.9048L846.776 76.908L847.195 76ZM863.195 80.8L863.445 79.8317L863.429 79.8275L863.412 79.8238L863.195 80.8ZM883.395 87.2L883.016 88.1252L883.026 88.1294L883.036 88.1333L883.395 87.2ZM896.995 97.2L896.225 97.838L896.235 97.85L896.245 97.8616L896.995 97.2ZM903.195 115.6H904.195V115.591L904.195 115.583L903.195 115.6ZM897.595 133.2L896.783 132.617L896.78 132.621L897.595 133.2ZM881.795 145.2L881.406 144.279L881.399 144.282L881.795 145.2ZM857.995 148.6C848.377 148.6 839.85 146.953 832.397 143.684L831.594 145.516C839.34 148.913 848.147 150.6 857.995 150.6V148.6ZM832.397 143.684C824.928 140.408 819.072 135.972 814.789 130.391L813.202 131.609C817.719 137.495 823.862 142.125 831.594 145.516L832.397 143.684ZM814.795 130.4C810.508 124.684 808.112 118.332 807.593 111.326L805.598 111.474C806.146 118.868 808.683 125.583 813.195 131.6L814.795 130.4ZM806.595 112.4H840.395V110.4H806.595V112.4ZM839.401 111.503C839.83 115.656 841.78 119.038 845.195 121.6L846.395 120C843.411 117.762 841.76 114.878 841.39 111.297L839.401 111.503ZM845.195 121.6C848.596 124.151 852.75 125.4 857.595 125.4V123.4C853.108 123.4 849.395 122.249 846.395 120L845.195 121.6ZM857.595 125.4C861.965 125.4 865.468 124.584 867.972 122.817L866.819 121.183C864.789 122.616 861.759 123.4 857.595 123.4V125.4ZM867.981 122.811C870.608 120.913 871.995 118.427 871.995 115.4H869.995C869.995 117.707 868.983 119.62 866.81 121.189L867.981 122.811ZM871.995 115.4C871.995 113.617 871.527 112.024 870.559 110.669C869.597 109.321 868.185 108.271 866.398 107.485L865.593 109.315C867.138 109.996 868.227 110.845 868.932 111.831C869.63 112.809 869.995 113.983 869.995 115.4H871.995ZM866.428 107.498C862.998 105.852 857.516 104.099 850.038 102.23L849.553 104.17C857.008 106.034 862.326 107.748 865.563 109.302L866.428 107.498ZM850.023 102.226C842.048 100.365 835.426 98.4435 830.146 96.4637L829.444 98.3363C834.831 100.357 841.543 102.301 849.568 104.174L850.023 102.226ZM830.167 96.4715C824.982 94.3977 820.512 91.2242 816.746 86.9399L815.244 88.2601C819.212 92.7757 823.942 96.1356 829.424 98.3285L830.167 96.4715ZM816.756 86.951C813.082 82.644 811.195 76.8293 811.195 69.4H809.195C809.195 77.1707 811.175 83.4893 815.234 88.2489L816.756 86.951ZM811.195 69.4C811.195 63.1924 812.873 57.5863 816.227 52.5547L814.563 51.4453C810.984 56.8137 809.195 62.8076 809.195 69.4H811.195ZM816.224 52.5595C819.705 47.4032 824.748 43.3143 831.406 40.3116L830.584 38.4884C823.642 41.619 818.286 45.9301 814.566 51.4405L816.224 52.5595ZM831.4 40.3145C838.178 37.3164 846.234 35.8 855.595 35.8V33.8C846.023 33.8 837.679 35.3503 830.591 38.4855L831.4 40.3145ZM855.595 35.8C869.433 35.8 880.174 39.2248 887.94 45.9557L889.25 44.4443C881.017 37.3085 869.757 33.8 855.595 33.8V35.8ZM887.947 45.961C895.868 52.714 900.425 61.6706 901.601 72.9041L903.59 72.6959C902.365 60.996 897.589 51.5526 889.244 44.439L887.947 45.961ZM902.595 71.8H870.995V73.8H902.595V71.8ZM871.986 72.6634C871.419 68.5525 869.559 65.2447 866.407 62.8087L865.184 64.3913C867.898 66.4886 869.505 69.3142 870.005 72.9366L871.986 72.6634ZM866.424 62.8228C863.4 60.3741 859.423 59.2 854.595 59.2V61.2C859.101 61.2 862.591 62.2926 865.166 64.3772L866.424 62.8228ZM854.595 59.2C850.482 59.2 847.169 60.0197 844.795 61.8L845.995 63.4C847.888 61.9803 850.709 61.2 854.595 61.2V59.2ZM844.829 61.776C842.414 63.4358 841.195 65.8159 841.195 68.8H843.195C843.195 66.4508 844.109 64.6976 845.962 63.424L844.829 61.776ZM841.195 68.8C841.195 70.5836 841.663 72.187 842.624 73.5704C843.579 74.9455 844.981 76.0462 846.763 76.9015L847.628 75.0985C846.077 74.3538 844.978 73.4545 844.267 72.4296C843.561 71.413 843.195 70.2164 843.195 68.8H841.195ZM846.776 76.908C850.343 78.5539 855.76 80.1722 862.978 81.7762L863.412 79.8238C856.23 78.2278 850.981 76.646 847.614 75.092L846.776 76.908ZM862.945 81.7683C871.188 83.8954 877.874 86.0156 883.016 88.1252L883.775 86.2748C878.517 84.1178 871.736 81.9713 863.445 79.8317L862.945 81.7683ZM883.036 88.1333C888.062 90.0665 892.458 93.2915 896.225 97.838L897.765 96.562C893.799 91.7752 889.128 88.3335 883.754 86.2666L883.036 88.1333ZM896.245 97.8616C900.048 102.172 902.065 108.054 902.195 115.617L904.195 115.583C904.059 107.68 901.942 101.295 897.745 96.5384L896.245 97.8616ZM902.195 115.6C902.195 121.929 900.392 127.59 896.783 132.617L898.408 133.783C902.266 128.41 904.195 122.338 904.195 115.6H902.195ZM896.78 132.621C893.308 137.507 888.204 141.403 881.406 144.279L882.185 146.121C889.253 143.131 894.682 139.026 898.411 133.779L896.78 132.621ZM881.399 144.282C874.749 147.151 866.956 148.6 857.995 148.6V150.6C867.168 150.6 875.242 149.116 882.191 146.118L881.399 144.282Z" fill="white"/>
</svg>
