<svg width="16" height="18" viewBox="0 0 16 18" fill="none" xmlns="http://www.w3.org/2000/svg"><path d="M14.827 6.16468C14.7231 6.24487 12.889 7.27309 12.889 9.55939C12.889 12.2039 15.2229 13.1394 15.2927 13.1626C15.282 13.2196 14.922 14.4439 14.0622 15.6913C13.2956 16.789 12.4949 17.8849 11.277 17.8849C10.059 17.8849 9.74552 17.181 8.33947 17.181C6.96923 17.181 6.48204 17.9081 5.36794 17.9081C4.25384 17.9081 3.47648 16.8923 2.58269 15.6449C1.54741 14.1801 0.710938 11.9045 0.710938 9.74472C0.710938 6.28051 2.97496 4.44327 5.20315 4.44327C6.38711 4.44327 7.37403 5.21666 8.11736 5.21666C8.82487 5.21666 9.92822 4.39694 11.2752 4.39694C11.7856 4.39694 13.6198 4.44327 14.827 6.16468ZM10.6357 2.93035C11.1928 2.27279 11.5868 1.36041 11.5868 0.448026C11.5868 0.321504 11.5761 0.1932 11.5528 0.0898438C10.6465 0.123702 9.5682 0.690378 8.91801 1.4406C8.40753 2.01797 7.93108 2.93035 7.93108 3.85521C7.93108 3.99421 7.95437 4.1332 7.96511 4.17775C8.02243 4.18844 8.11557 4.20092 8.20871 4.20092C9.0219 4.20092 10.0446 3.65919 10.6357 2.93035Z" fill="white"/></svg>