<svg width="14" height="9" viewBox="0 0 14 9" fill="none" xmlns="http://www.w3.org/2000/svg">
<path d="M13.7114 1.78828C13.7115 1.94336 13.682 2.09695 13.6246 2.24022C13.5671 2.38349 13.4828 2.51362 13.3766 2.62313L7.66343 8.52731C7.55741 8.63707 7.43148 8.72414 7.29287 8.78355C7.15425 8.84296 7.00566 8.87354 6.85559 8.87354C6.70553 8.87354 6.55693 8.84296 6.41831 8.78355C6.2797 8.72414 6.15378 8.63707 6.04775 8.52731L0.334617 2.62313C0.228531 2.51349 0.144378 2.38334 0.0869641 2.2401C0.0295504 2.09685 0 1.94332 0 1.78828C0 1.63323 0.0295504 1.4797 0.0869641 1.33646C0.144378 1.19321 0.228531 1.06306 0.334617 0.953426C0.440704 0.843792 0.566647 0.756824 0.705256 0.697491C0.843865 0.638157 0.992425 0.607619 1.14245 0.607619C1.29248 0.607619 1.44104 0.638157 1.57965 0.697491C1.71826 0.756824 1.84421 0.843792 1.95029 0.953426L6.85559 6.02276L11.7609 0.953426C11.9205 0.787755 12.1241 0.674818 12.3459 0.628949C12.5677 0.58308 12.7977 0.606346 13.0067 0.695797C13.2157 0.785248 13.3942 0.93685 13.5197 1.13136C13.6451 1.32587 13.7119 1.55451 13.7114 1.78828Z" fill="white"/>
</svg>
