<svg width="14" height="9" viewBox="0 0 14 9" fill="none" xmlns="http://www.w3.org/2000/svg">
<path d="M13.7114 1.91474C13.7115 2.06983 13.682 2.22342 13.6246 2.36669C13.5671 2.50996 13.4828 2.64008 13.3766 2.74959L7.66343 8.65378C7.55741 8.76353 7.43148 8.8506 7.29287 8.91001C7.15425 8.96942 7.00566 9 6.85559 9C6.70553 9 6.55693 8.96942 6.41831 8.91001C6.2797 8.8506 6.15378 8.76353 6.04775 8.65378L0.334617 2.74959C0.228531 2.63996 0.144378 2.5098 0.0869641 2.36656C0.0295504 2.22332 0 2.06979 0 1.91474C0 1.7597 0.0295504 1.60617 0.0869641 1.46292C0.144378 1.31968 0.228531 1.18953 0.334617 1.07989C0.440704 0.970257 0.566647 0.883289 0.705256 0.823956C0.843865 0.764622 0.992425 0.734084 1.14245 0.734084C1.29248 0.734084 1.44104 0.764622 1.57965 0.823956C1.71826 0.883289 1.84421 0.970257 1.95029 1.07989L6.85559 6.14922L11.7609 1.07989C11.9205 0.91422 12.1241 0.801283 12.3459 0.755414C12.5677 0.709545 12.7977 0.732811 13.0067 0.822262C13.2157 0.911713 13.3942 1.06331 13.5197 1.25782C13.6451 1.45233 13.7119 1.68098 13.7114 1.91474Z" fill="black"/>
</svg>
