<svg width="37" height="48" viewBox="0 0 37 48" fill="none" xmlns="http://www.w3.org/2000/svg">
<path d="M3.26371 7.82893L9.18004 10.4301C8.00698 12.1642 7.39494 14.1533 7.39494 16.2444C7.39494 21.9567 12.0362 26.649 17.7995 26.649C23.5628 26.649 28.2041 22.0077 28.2041 16.2444C28.2041 14.2043 27.5921 12.1642 26.47 10.4811L31.6723 8.03294V17.9275L30.0912 21.2937C29.9892 21.5487 29.9892 21.8037 30.1422 22.0077C30.2952 22.2117 30.5502 22.3647 30.8052 22.3647H33.8144C34.0694 22.3647 34.3244 22.2627 34.4264 22.0077C34.5794 21.8037 34.5794 21.5487 34.4774 21.2937L33.1004 17.9275V7.36991C33.1004 6.96188 33.0494 6.65587 32.3353 6.34985C32.1823 6.29885 18.1565 0.0765042 18.1565 0.0765042C17.9525 -0.0255014 17.7485 -0.0255014 17.5445 0.0765042L3.26371 6.40085C3.0087 6.50286 2.80469 6.80888 2.80469 7.11489C2.80469 7.42091 2.9577 7.67592 3.26371 7.82893ZM26.623 16.2444C26.623 21.1407 22.6448 25.1189 17.7485 25.1189C12.8522 25.1189 8.87402 21.1407 8.87402 16.2444C8.87402 14.3573 9.48606 12.5722 10.5571 11.0421L17.4935 14.1533C17.5955 14.2043 17.6975 14.2043 17.7995 14.2043C17.9015 14.2043 18.0035 14.2043 18.1055 14.1533L24.9399 11.0931C26.062 12.6232 26.623 14.4083 26.623 16.2444ZM31.9783 20.8347L32.3353 20.0696L32.6413 20.8347H31.9783ZM17.8505 1.60659L30.2442 7.11489L17.8505 12.6232L5.45683 7.11489L17.8505 1.60659Z" fill="#880000"/>
<path d="M18.055 28.4851C8.10945 28.4851 0 36.5946 0 46.5401C0 46.9481 0.35702 47.3051 0.765042 47.3051H35.345C35.753 47.3051 36.11 46.9481 36.11 46.5401C36.11 36.5946 28.0006 28.4851 18.055 28.4851ZM1.58109 45.7751C1.98911 37.0026 9.23151 30.0152 18.106 30.0152C26.9805 30.0152 34.1719 37.0536 34.5799 45.7751H1.58109Z" fill="#880000"/>
</svg>
