<svg width="67" height="67" viewBox="0 0 67 67" fill="none" xmlns="http://www.w3.org/2000/svg">
<g clip-path="url(#clip0_1109_96)">
<path d="M36.15 24.2706L32.6676 23.9147C31.8413 23.8303 31.1241 23.3154 30.7928 22.5632C30.7896 22.556 30.7861 22.5481 30.7825 22.5395C30.4514 21.7806 30.5655 20.8956 31.1194 20.2459L33.3153 17.6704C33.3537 17.6253 33.3638 17.5818 33.3617 17.5453C33.3596 17.5085 33.3441 17.4628 33.2967 17.418L29.1863 13.5388C29.0781 13.4368 28.8809 13.4222 28.752 13.5201L26.0218 15.5932C25.3572 16.0979 24.4844 16.1899 23.7384 15.9012L23.7357 15.9001L23.7259 15.8964L23.7219 15.8949C22.9676 15.6027 22.3775 14.9298 22.2792 14.0726L21.9019 10.7846C21.8938 10.7144 21.808 10.5813 21.6096 10.5813H15.7965C15.5981 10.5813 15.5122 10.7143 15.5042 10.7845L15.1269 14.0726C15.0286 14.9297 14.4383 15.6027 13.684 15.8949L13.6801 15.8964L13.6749 15.8984L13.6706 15.9001C12.9237 16.1903 12.0496 16.0984 11.3843 15.5932L8.65383 13.5201C8.52508 13.4223 8.32773 13.4368 8.21976 13.5387L4.10924 17.418C4.06187 17.4628 4.04636 17.5085 4.04426 17.5453C4.04217 17.5818 4.05224 17.6252 4.09066 17.6703L6.28651 20.2459C6.84165 20.8971 6.95518 21.7847 6.62109 22.545L6.62049 22.5463L6.61957 22.5484L6.61724 22.5538L6.61502 22.5589C6.28456 23.3132 5.56654 23.8301 4.7384 23.9147L1.25585 24.2706C1.06269 24.2903 1 24.4246 1 24.4893V29.9754C1 30.04 1.06261 30.1743 1.25577 30.194L4.7382 30.5499C5.56618 30.6344 6.28461 31.1512 6.61499 31.9059L6.61713 31.9107L6.61925 31.9156L6.621 31.9195C6.95508 32.6797 6.84158 33.5674 6.28642 34.2187L4.09056 36.7943C4.05213 36.8394 4.04204 36.8829 4.04413 36.9194C4.04623 36.9561 4.06174 37.0019 4.10911 37.0466L8.21953 40.9258C8.3277 41.0279 8.52504 41.0424 8.65375 40.9446L11.3839 38.8716C12.0485 38.3666 12.9215 38.2746 13.6676 38.5635L13.6703 38.5646L13.6802 38.5684L13.6839 38.5698C14.4382 38.862 15.0284 39.5349 15.1267 40.3921L15.5039 43.6801C15.512 43.7503 15.5978 43.8833 15.7963 43.8833H21.6093C21.8077 43.8833 21.8936 43.7504 21.9016 43.6802L22.2789 40.3921C22.3772 39.5352 22.9672 38.862 23.7217 38.5698L23.7254 38.5683L23.7305 38.5664L23.7315 38.566L23.7351 38.5646C24.4819 38.2744 25.3561 38.3661 26.0216 38.8715L28.7518 40.9446C28.8805 41.0424 29.0779 41.0279 29.186 40.9258L33.2964 37.0466C33.3438 37.0019 33.3593 36.9562 33.3614 36.9194C33.3635 36.8829 33.3534 36.8393 33.3149 36.7942L31.1192 34.2188C30.5639 33.5675 30.4506 32.6798 30.7846 31.9197L30.7883 31.911L30.7905 31.9061M36.15 24.2706C36.3433 24.2903 36.4056 24.4246 36.4056 24.4889M36.15 24.2706L36.4056 24.4889M36.4056 24.4889V29.9754C36.4056 30.0397 36.343 30.1742 36.1497 30.194M36.4056 24.4889L36.1497 30.194M36.1497 30.194L32.6674 30.5499M32.6674 30.5499C31.8396 30.6344 31.1217 31.1509 30.791 31.9048L32.769 31.5447L32.6674 30.5499ZM11.872 27.2323C11.872 30.8776 14.9856 33.7353 18.7029 33.7353C22.4202 33.7353 25.5339 30.8776 25.5339 27.2323C25.5339 23.5871 22.4202 20.7293 18.7029 20.7293C14.9856 20.7293 11.872 23.5871 11.872 27.2323Z" stroke="white" stroke-width="2"/>
<mask id="mask0_1109_96" style="mask-type:luminance" maskUnits="userSpaceOnUse" x="35" y="0" width="32" height="30">
<path d="M66.4076 17.7746L64.0169 15.9929C63.6361 15.7091 63.4246 15.274 63.4244 14.8159C63.4244 14.8111 63.4244 14.8063 63.4244 14.8014C63.4236 14.3423 63.6352 13.9061 64.0169 13.6217L66.4076 11.8398C66.9551 11.4318 67.1488 10.7302 66.8818 10.122L65.8317 7.72929C65.5647 7.12093 64.902 6.75414 64.2093 6.83095L61.1838 7.16638C60.7007 7.21998 60.2242 7.05276 59.881 6.72758C59.8774 6.72412 59.8738 6.72067 59.8701 6.71733C59.527 6.39327 59.3506 5.94447 59.4073 5.48962L59.7627 2.63444C59.8441 1.98064 59.4553 1.35524 58.8108 1.1033L56.2755 0.112339C55.6311 -0.1396 54.8877 0.0431795 54.4553 0.559777L52.5673 2.81586C52.2664 3.17537 51.8054 3.37482 51.3202 3.37507C51.3149 3.37507 51.3098 3.37507 51.3047 3.37507C50.8185 3.37581 50.3563 3.17611 50.0548 2.81586L48.1667 0.559654C47.7344 0.0429325 46.9908 -0.139847 46.3463 0.112092L43.8111 1.10317C43.1666 1.35511 42.7778 1.98051 42.8592 2.63444L43.2146 5.48975C43.2714 5.94558 43.0942 6.39525 42.7497 6.71931C42.746 6.72277 42.7424 6.72623 42.7387 6.72968C42.3953 7.0535 41.9199 7.21997 41.4378 7.1665L38.4125 6.83108C37.7196 6.75426 37.057 7.12117 36.7901 7.72941L35.74 10.1221C35.473 10.7303 35.6667 11.432 36.2142 11.8401L38.6047 13.6218C38.9857 13.9057 39.197 14.3407 39.1972 14.7988C39.1972 14.8037 39.1972 14.8085 39.1972 14.8133C39.1982 15.2724 38.9864 15.7086 38.6047 15.993L36.2141 17.7749C35.6665 18.1829 35.4729 18.8845 35.74 19.4927L36.79 21.8854C37.0569 22.4936 37.7196 22.8606 38.4124 22.7837L41.438 22.4483C41.921 22.3947 42.3974 22.5619 42.7408 22.8871C42.7444 22.8906 42.748 22.894 42.7516 22.8974C43.0948 23.2214 43.2712 23.6701 43.2145 24.1251L42.8591 26.9804C42.7777 27.6343 43.1665 28.2596 43.811 28.5115L46.3462 29.5026C46.9907 29.7545 47.7341 29.5718 48.1666 29.055L50.0545 26.7989C50.3553 26.4394 50.8162 26.24 51.3016 26.2397C51.3067 26.2397 51.3118 26.2397 51.317 26.2397C51.8033 26.2389 52.2656 26.4387 52.567 26.7989L54.455 29.0552C54.8874 29.5719 55.6308 29.7547 56.2754 29.5027L58.8107 28.5116C59.4552 28.2597 59.8439 27.6343 59.7625 26.9805L59.4071 24.1252C59.3503 23.6694 59.5275 23.2196 59.8721 22.8956C59.8757 22.8922 59.8794 22.8887 59.8831 22.8854C60.2264 22.5617 60.7019 22.3951 61.1839 22.4486L64.2094 22.784C64.9023 22.8608 65.5648 22.4939 65.8318 21.8857L66.8819 19.493C67.1486 18.8844 66.9551 18.1826 66.4076 17.7746ZM52.8609 19.07C50.429 20.0207 47.6409 18.9308 46.6336 16.6356C45.6262 14.3403 46.7812 11.7092 49.2131 10.7585C51.645 9.80778 54.433 10.8977 55.4404 13.1929C56.4476 15.488 55.2928 18.1194 52.8609 19.07Z" fill="white"/>
</mask>
<g mask="url(#mask0_1109_96)">
<path d="M63.4235 14.8159H61.4235V14.8171L63.4235 14.8159ZM63.4235 14.8014H65.4235V14.7979L63.4235 14.8014ZM59.8801 6.7276L58.4812 8.15695L58.4928 8.16833L58.5046 8.17952L59.8801 6.7276ZM59.8692 6.71735L58.4959 8.17135L58.5094 8.18407L58.5231 8.19652L59.8692 6.71735ZM51.3038 3.37509V1.37509H51.3008L51.3038 3.37509ZM42.7488 6.71933L41.3785 5.26246L41.3761 5.2648L42.7488 6.71933ZM39.1963 14.7988H41.1963V14.7976L39.1963 14.7988ZM39.1963 14.8133H37.1963L37.1964 14.8173L39.1963 14.8133ZM42.7399 22.8871L41.3647 24.3393L41.3672 24.3416L42.7399 22.8871ZM42.7507 22.8974L44.124 21.4434L44.1106 21.4306L44.0969 21.4182L42.7507 22.8974ZM51.3007 26.2397V24.2397H51.2997L51.3007 26.2397ZM51.3161 26.2397V28.2397H51.3197L51.3161 26.2397ZM59.8712 22.8956L61.2411 24.3528L61.2439 24.3502L59.8712 22.8956ZM59.8822 22.8854L61.2283 24.3645L61.2411 24.3528L61.2541 24.3407L59.8822 22.8854ZM66.881 19.493L68.7124 20.2968L68.7129 20.2957L66.881 19.493ZM67.6018 16.171L65.2112 14.3893L62.8209 17.5965L65.2115 19.3782L67.6018 16.171ZM65.2112 14.3893C65.3432 14.4877 65.4234 14.65 65.4235 14.8148L61.4235 14.8171C61.4241 15.898 61.9272 16.9305 62.8209 17.5965L65.2112 14.3893ZM65.4235 14.8159C65.4235 14.8158 65.4235 14.8148 65.4235 14.8148C65.4235 14.8147 65.4235 14.8137 65.4235 14.8137C65.4235 14.8136 65.4235 14.8126 65.4235 14.8126V14.8116V14.8105V14.8095V14.8084V14.8074C65.4235 14.8073 65.4235 14.8063 65.4235 14.8063C65.4235 14.8062 65.4235 14.8053 65.4235 14.8053V14.8042C65.4235 14.8041 65.4235 14.8032 65.4235 14.8032V14.8014H61.4235C61.4235 14.8014 61.4235 14.8024 61.4235 14.8025V14.8035C61.4235 14.8035 61.4235 14.8045 61.4235 14.8046C61.4235 14.8046 61.4235 14.8055 61.4235 14.8056V14.8067V14.8077C61.4235 14.8078 61.4235 14.8088 61.4235 14.8088V14.8098C61.4235 14.8099 61.4235 14.8109 61.4235 14.8109V14.8119V14.813C61.4235 14.813 61.4235 14.8139 61.4235 14.814C61.4235 14.814 61.4235 14.8158 61.4235 14.8159H65.4235ZM65.4235 14.7979C65.4238 14.964 65.343 15.1271 65.211 15.2254L62.821 12.0179C61.9256 12.6851 61.4216 13.7214 61.4235 14.8056L65.4235 14.7979ZM65.211 15.2254L67.6019 13.4434L65.2115 10.2362L62.821 12.0179L65.211 15.2254ZM67.6019 13.4434C68.8659 12.5013 69.3684 10.8131 68.7123 9.3182L65.0495 10.9257C64.9273 10.6473 65.0425 10.3622 65.2115 10.2362L67.6019 13.4434ZM68.7123 9.3182L67.6621 6.92552L63.9993 8.53296L65.0495 10.9257L68.7123 9.3182ZM67.6621 6.92552C67.0203 5.463 65.4908 4.67651 63.988 4.84315L64.4288 8.81879C64.3115 8.8318 64.1072 8.77875 63.9993 8.53296L67.6621 6.92552ZM63.988 4.84315L60.9625 5.17858L61.4033 9.15422L64.4288 8.81879L63.988 4.84315ZM60.9625 5.17858C61.0769 5.16589 61.1808 5.2049 61.2556 5.27569L58.5046 8.17952C59.2658 8.90065 60.3227 9.27411 61.4033 9.15422L60.9625 5.17858ZM61.279 5.29826C61.2579 5.27758 61.2366 5.25752 61.2153 5.23818L58.5231 8.19652C58.5092 8.18385 58.4952 8.17071 58.4812 8.15695L61.279 5.29826ZM61.2425 5.26335C61.3198 5.33634 61.4201 5.50356 61.391 5.73688L57.4217 5.24241C57.2793 6.38542 57.7324 7.45024 58.4959 8.17135L61.2425 5.26335ZM61.391 5.73688L61.7465 2.88152L57.7771 2.38738L57.4217 5.24241L61.391 5.73688ZM61.7465 2.88152C61.9487 1.25674 60.974 -0.198095 59.5381 -0.75941L58.0817 2.96605C57.9348 2.90861 57.7376 2.70455 57.7771 2.38738L61.7465 2.88152ZM59.5381 -0.75941L57.0027 -1.7504L55.5465 1.97509L58.0817 2.96605L59.5381 -0.75941ZM57.0027 -1.7504C55.5877 -2.30356 53.9245 -1.9232 52.9207 -0.723826L55.9881 1.84342C55.9148 1.93099 55.8296 1.97353 55.7624 1.99005C55.6953 2.00656 55.6205 2.00401 55.5465 1.97509L57.0027 -1.7504ZM52.9207 -0.723826L51.0326 1.53232L54.1001 4.09944L55.9881 1.84342L52.9207 -0.723826ZM51.0326 1.53232C51.1471 1.39541 51.2696 1.37511 51.3183 1.37509L51.3193 5.37509C52.3384 5.37457 53.3838 4.95537 54.1001 4.09944L51.0326 1.53232ZM51.3193 1.37509C51.3192 1.37509 51.3183 1.37509 51.3183 1.37509C51.3182 1.37509 51.3172 1.37509 51.3172 1.37509C51.3171 1.37509 51.3161 1.37509 51.3161 1.37509H51.315C51.315 1.37509 51.314 1.37509 51.3139 1.37509C51.3138 1.37509 51.3128 1.37509 51.3128 1.37509H51.3118C51.3117 1.37509 51.3107 1.37509 51.3107 1.37509H51.3096C51.3095 1.37509 51.3085 1.37509 51.3085 1.37509C51.3085 1.37509 51.3075 1.37509 51.3074 1.37509C51.3074 1.37509 51.3064 1.37509 51.3063 1.37509C51.3062 1.37509 51.3053 1.37509 51.3053 1.37509C51.3053 1.37509 51.3039 1.37509 51.3038 1.37509V5.37509C51.3039 5.37509 51.3049 5.37509 51.3049 5.37509C51.3049 5.37509 51.3059 5.37509 51.306 5.37509H51.3071H51.3082C51.3083 5.37509 51.3093 5.37509 51.3093 5.37509C51.3093 5.37509 51.3103 5.37509 51.3104 5.37509C51.3104 5.37509 51.3113 5.37509 51.3114 5.37509H51.3125C51.3125 5.37509 51.3135 5.37509 51.3136 5.37509C51.3137 5.37509 51.3147 5.37509 51.3147 5.37509H51.3158C51.3158 5.37509 51.3168 5.37509 51.3169 5.37509H51.3179H51.3193V1.37509ZM51.3008 1.37509C51.3506 1.37502 51.4733 1.39565 51.5876 1.53227L48.5201 4.0994C49.2375 4.95651 50.2847 5.37664 51.3071 5.37509L51.3008 1.37509ZM51.5876 1.53227L49.6996 -0.723844L46.632 1.84312L48.5201 4.0994L51.5876 1.53227ZM49.6996 -0.723844C48.6957 -1.92357 47.0323 -2.30376 45.6173 -1.75062L47.0736 1.97484C46.9996 2.00378 46.9248 2.00631 46.8577 1.98981C46.7905 1.97329 46.7053 1.93075 46.632 1.84312L49.6996 -0.723844ZM45.6173 -1.75062L43.082 -0.759533L44.5384 2.96592L47.0736 1.97484L45.6173 -1.75062ZM43.082 -0.759533C41.646 -0.198174 40.6714 1.25674 40.8736 2.8815L44.843 2.38743C44.8824 2.70433 44.6854 2.90844 44.5384 2.96592L43.082 -0.759533ZM40.8736 2.8815L41.229 5.73681L45.1984 5.24273L44.843 2.38743L40.8736 2.8815ZM41.229 5.73681C41.1999 5.50319 41.3005 5.33573 41.3785 5.26246L44.119 8.1762C44.886 7.4548 45.3411 6.38802 45.1984 5.24273L41.229 5.73681ZM41.3761 5.2648C41.3741 5.26664 41.3722 5.26847 41.3704 5.27018C41.3685 5.27192 41.3668 5.27356 41.3651 5.27518L44.11 8.18475C44.112 8.18291 44.1144 8.18057 44.1162 8.17885C44.1181 8.17711 44.1198 8.17547 44.1215 8.17385L41.3761 5.2648ZM41.3651 5.27518C41.4389 5.20564 41.5428 5.166 41.6574 5.17871L41.2164 9.15433C42.2952 9.27399 43.3495 8.90191 44.11 8.18475L41.3651 5.27518ZM41.6574 5.17871L38.632 4.84328L38.1912 8.81892L41.2164 9.15433L41.6574 5.17871ZM38.632 4.84328C37.1287 4.67663 35.5995 5.46361 34.9578 6.92564L38.6206 8.53322C38.5128 8.77879 38.3086 8.83194 38.1912 8.81892L38.632 4.84328ZM34.9578 6.92564L33.9077 9.31832L37.5704 10.9259L38.6206 8.53322L34.9578 6.92564ZM33.9077 9.31832C33.2516 10.8132 33.754 12.5016 35.0182 13.4437L37.4085 10.2365C37.5776 10.3626 37.6926 10.6475 37.5704 10.9259L33.9077 9.31832ZM35.0182 13.4437L37.4086 15.2254L39.799 12.0182L37.4085 10.2365L35.0182 13.4437ZM37.4086 15.2254C37.2767 15.1271 37.1964 14.9646 37.1963 14.7999L41.1963 14.7976C41.1957 13.7168 40.6928 12.6844 39.799 12.0182L37.4086 15.2254ZM37.1963 14.7988C37.1963 14.7989 37.1963 14.7999 37.1963 14.7999V14.8009C37.1963 14.8009 37.1963 14.8019 37.1963 14.802C37.1963 14.802 37.1963 14.8029 37.1963 14.803C37.1963 14.8031 37.1963 14.8041 37.1963 14.8041C37.1963 14.8042 37.1963 14.8051 37.1963 14.8051C37.1963 14.8051 37.1963 14.8061 37.1963 14.8062C37.1963 14.8063 37.1963 14.8072 37.1963 14.8072C37.1963 14.8073 37.1963 14.8083 37.1963 14.8083V14.8093C37.1963 14.8094 37.1963 14.8104 37.1963 14.8104C37.1963 14.8104 37.1963 14.8113 37.1963 14.8114C37.1963 14.8115 37.1963 14.8133 37.1963 14.8133H41.1963C41.1963 14.8133 41.1963 14.8124 41.1963 14.8123C41.1963 14.8123 41.1963 14.8113 41.1963 14.8112C41.1963 14.8111 41.1963 14.8102 41.1963 14.8102C41.1963 14.8101 41.1963 14.8091 41.1963 14.8091V14.8081C41.1963 14.808 41.1963 14.807 41.1963 14.807V14.806C41.1963 14.8059 41.1963 14.8049 41.1963 14.8049C41.1963 14.8048 41.1963 14.8039 41.1963 14.8039C41.1963 14.8039 41.1963 14.8029 41.1963 14.8028C41.1963 14.8028 41.1963 14.8019 41.1963 14.8018C41.1963 14.8017 41.1963 14.8007 41.1963 14.8007C41.1963 14.8007 41.1963 14.7989 41.1963 14.7988H37.1963ZM37.1964 14.8173C37.196 14.6504 37.2772 14.4874 37.4088 14.3892L39.7988 17.5968C40.6939 16.9298 41.1985 15.8953 41.1963 14.8102L37.1964 14.8173ZM37.4088 14.3892L35.0179 16.1713L37.4083 19.3785L39.7988 17.5968L37.4088 14.3892ZM35.0179 16.1713C33.7539 17.1133 33.2513 18.8017 33.9078 20.2968L37.5705 18.689C37.6928 18.9677 37.5773 19.2525 37.4083 19.3785L35.0179 16.1713ZM33.9078 20.2968L34.9577 22.6891L38.6205 21.0817L37.5705 18.689L33.9078 20.2968ZM34.9577 22.6891C35.5994 24.1512 37.1288 24.9382 38.6319 24.7716L38.1911 20.7959C38.3087 20.7829 38.5127 20.8361 38.6205 21.0817L34.9577 22.6891ZM38.6319 24.7716L41.6574 24.4361L41.2167 20.4605L38.1911 20.7959L38.6319 24.7716ZM41.6574 24.4361C41.5427 24.4488 41.439 24.4097 41.3647 24.3393L44.1151 21.4349C43.354 20.7142 42.2974 20.3406 41.2167 20.4605L41.6574 24.4361ZM41.3672 24.3416C41.3655 24.3401 41.3643 24.3389 41.3634 24.3381C41.3626 24.3373 41.3621 24.3368 41.362 24.3368C41.3608 24.3356 41.3645 24.3391 41.3664 24.341C41.3716 24.3459 41.3862 24.3597 41.4046 24.3765L44.0969 21.4182C44.1047 21.4253 44.1106 21.4307 44.1151 21.4349C44.1195 21.439 44.1229 21.4423 44.124 21.4434C44.1246 21.4439 44.1251 21.4445 44.1249 21.4443C44.1253 21.4447 44.1247 21.4441 44.1249 21.4443C44.1247 21.4441 44.1237 21.4431 44.1232 21.4426C44.1215 21.441 44.1175 21.4372 44.1126 21.4326L41.3672 24.3416ZM41.3775 24.3514C41.3002 24.2784 41.1999 24.1111 41.2289 23.8779L45.1983 24.3722C45.3406 23.2291 44.8875 22.1644 44.124 21.4434L41.3775 24.3514ZM41.2289 23.8779L40.8735 26.7333L44.8429 27.2274L45.1983 24.3722L41.2289 23.8779ZM40.8735 26.7333C40.6712 28.3583 41.646 29.813 43.0819 30.3742L44.5382 26.6488C44.6851 26.7062 44.8823 26.9103 44.8429 27.2274L40.8735 26.7333ZM43.0819 30.3742L45.6171 31.3653L47.0735 27.6399L44.5382 26.6488L43.0819 30.3742ZM45.6171 31.3653C47.0323 31.9185 48.6955 31.5381 49.6994 30.3387L46.632 27.7714C46.7052 27.684 46.7903 27.6414 46.8575 27.6249C46.9246 27.6084 46.9995 27.6109 47.0735 27.6399L45.6171 31.3653ZM49.6994 30.3387L51.5874 28.0825L48.5198 25.5154L46.632 27.7714L49.6994 30.3387ZM51.5874 28.0825C51.4729 28.2193 51.3503 28.2397 51.3017 28.2397L51.2997 24.2397C50.2804 24.2403 49.236 24.6595 48.5198 25.5154L51.5874 28.0825ZM51.3017 28.2397C51.3017 28.2397 51.3027 28.2397 51.3028 28.2397H51.3039C51.304 28.2397 51.3049 28.2397 51.3049 28.2397C51.3049 28.2397 51.3059 28.2397 51.306 28.2397H51.3071C51.3071 28.2397 51.3081 28.2397 51.3082 28.2397H51.3093C51.3093 28.2397 51.3103 28.2397 51.3104 28.2397C51.3105 28.2397 51.3114 28.2397 51.3114 28.2397H51.3125H51.3136H51.3147H51.3161V24.2397C51.316 24.2397 51.315 24.2397 51.315 24.2397C51.3149 24.2397 51.3139 24.2397 51.3139 24.2397H51.3128H51.3118C51.3118 24.2397 51.3108 24.2397 51.3107 24.2397C51.3106 24.2397 51.3096 24.2397 51.3096 24.2397C51.3096 24.2397 51.3086 24.2397 51.3085 24.2397C51.3084 24.2397 51.3074 24.2397 51.3074 24.2397C51.3074 24.2397 51.3064 24.2397 51.3063 24.2397C51.3062 24.2397 51.3053 24.2397 51.3053 24.2397C51.3052 24.2397 51.3042 24.2397 51.3042 24.2397C51.3042 24.2397 51.3032 24.2397 51.3031 24.2397H51.302H51.3007L51.3017 28.2397ZM51.3197 28.2397C51.2694 28.2398 51.1466 28.2191 51.0321 28.0822L54.1001 25.5157C53.3829 24.6583 52.3346 24.2379 51.3118 24.2397L51.3197 28.2397ZM51.0321 28.0822L52.9203 30.3387L55.988 27.7717L54.1001 25.5157L51.0321 28.0822ZM52.9203 30.3387C53.9241 31.5384 55.5875 31.9185 57.0026 31.3655L55.5465 27.6399C55.6203 27.6111 55.6951 27.6085 55.7622 27.625C55.8295 27.6416 55.9147 27.6841 55.988 27.7717L52.9203 30.3387ZM57.0026 31.3655L59.538 30.3744L58.0816 26.6489L55.5465 27.6399L57.0026 31.3655ZM59.538 30.3744C60.9739 29.8131 61.9486 28.3582 61.7463 26.7334L57.777 27.2275C57.7375 26.9103 57.9347 26.7064 58.0816 26.6489L59.538 30.3744ZM61.7463 26.7334L61.3909 23.8781L57.4216 24.3722L57.777 27.2275L61.7463 26.7334ZM61.3909 23.8781C61.42 24.1115 61.3195 24.2791 61.2411 24.3528L58.5012 21.4385C57.7338 22.16 57.2789 23.2271 57.4216 24.3722L61.3909 23.8781ZM61.2439 24.3502C61.2445 24.3496 61.2447 24.3494 61.245 24.3491C61.2451 24.349 61.2452 24.3489 61.245 24.3491C61.2447 24.3494 61.2445 24.3496 61.2439 24.3502C61.2416 24.3524 61.2355 24.358 61.2283 24.3645L58.536 21.4062C58.5165 21.424 58.4991 21.4405 58.4985 21.4411L61.2439 24.3502ZM61.2541 24.3407C61.1807 24.4099 61.0775 24.4491 60.9625 24.4364L61.4035 20.4608C60.3244 20.3411 59.2704 20.7135 58.5103 21.4301L61.2541 24.3407ZM60.9625 24.4364L63.9881 24.7718L64.4289 20.7962L61.4035 20.4608L60.9625 24.4364ZM63.9881 24.7718C65.4914 24.9385 67.0206 24.1515 67.6623 22.6894L63.9995 21.0819C64.1073 20.8363 64.3114 20.7831 64.4289 20.7962L63.9881 24.7718ZM67.6623 22.6894L68.7124 20.2968L65.0497 18.6892L63.9995 21.0819L67.6623 22.6894ZM68.7129 20.2957C69.3676 18.8016 68.8665 17.1135 67.6018 16.171L65.2115 19.3782C65.0419 19.2518 64.9279 18.9671 65.0492 18.6903L68.7129 20.2957ZM52.1319 17.2072C50.6309 17.794 49.0114 17.079 48.4641 15.8318L44.8013 17.4393C46.2686 20.7826 50.2254 22.2473 53.5882 20.9327L52.1319 17.2072ZM48.4641 15.8318C47.9462 14.6518 48.4899 13.1882 49.9404 12.6212L48.484 8.89578C45.0707 10.2301 43.3045 14.0289 44.8013 17.4393L48.4641 15.8318ZM49.9404 12.6212C51.4414 12.0344 53.0607 12.7495 53.6081 13.9967L57.2709 12.3892C55.8036 9.04597 51.8467 7.58117 48.484 8.89578L49.9404 12.6212ZM53.6081 13.9967C54.126 15.1768 53.5822 16.6404 52.1319 17.2072L53.5882 20.9327C57.0017 19.5985 58.7675 15.7994 57.2709 12.3892L53.6081 13.9967Z" fill="white"/>
</g>
<mask id="mask1_1109_96" style="mask-type:luminance" maskUnits="userSpaceOnUse" x="33" y="37" width="32" height="30">
<path d="M64.2865 55.1599L61.8958 53.3781C61.515 53.0943 61.3035 52.6592 61.3033 52.2012C61.3033 52.1964 61.3033 52.1915 61.3033 52.1866C61.3025 51.7276 61.5141 51.2914 61.8958 51.0069L64.2865 49.2251C64.834 48.8171 65.0277 48.1155 64.7607 47.5072L63.7106 45.1145C63.4436 44.5062 62.7809 44.1394 62.0882 44.2162L59.0627 44.5516C58.5796 44.6052 58.1031 44.438 57.7599 44.1128C57.7563 44.1094 57.7527 44.1059 57.749 44.1026C57.4059 43.7785 57.2295 43.3297 57.2862 42.8749L57.6416 40.0197C57.723 39.3659 57.3342 38.7405 56.6897 38.4886L54.1544 37.4976C53.51 37.2457 52.7666 37.4284 52.3342 37.945L50.4462 40.2011C50.1453 40.5606 49.6843 40.7601 49.1991 40.7603C49.1938 40.7603 49.1887 40.7603 49.1836 40.7603C48.6974 40.7611 48.2352 40.5614 47.9337 40.2011L46.0456 37.9449C45.6133 37.4282 44.8697 37.2454 44.2253 37.4973L41.69 38.4884C41.0455 38.7404 40.6567 39.3658 40.7381 40.0197L41.0935 42.875C41.1503 43.3308 40.9731 43.7805 40.6286 44.1046C40.6249 44.108 40.6213 44.1115 40.6176 44.1149C40.2742 44.4388 39.7988 44.6052 39.3167 44.5518L36.2914 44.2163C35.5985 44.1395 34.936 44.5064 34.669 45.1147L33.6189 47.5073C33.3519 48.1156 33.5456 48.8173 34.0931 49.2253L36.4836 51.0071C36.8646 51.291 37.0759 51.726 37.0762 52.184C37.0762 52.189 37.0762 52.1938 37.0762 52.1986C37.0771 52.6576 36.8653 53.0938 36.4836 53.3783L34.093 55.1601C33.5454 55.5681 33.3518 56.2697 33.6189 56.878L34.6689 59.2707C34.9358 59.8789 35.5985 60.2458 36.2913 60.169L39.3169 59.8336C39.7999 59.78 40.2763 59.9472 40.6197 60.2724C40.6234 60.2758 40.6269 60.2793 40.6306 60.2826C40.9737 60.6067 41.1501 61.0553 41.0934 61.5103L40.738 64.3656C40.6566 65.0196 41.0454 65.6448 41.6899 65.8968L44.2251 66.8879C44.8696 67.1398 45.613 66.957 46.0455 66.4403L47.9334 64.1842C48.2343 63.8247 48.6951 63.6252 49.1805 63.625C49.1856 63.625 49.1907 63.625 49.1959 63.625C49.6822 63.6241 50.1445 63.824 50.4459 64.1842L52.3339 66.4404C52.7663 66.9571 53.5097 67.1399 54.1543 66.888L56.6896 65.8969C57.3341 65.645 57.7228 65.0196 57.6415 64.3657L57.286 61.5104C57.2292 61.0546 57.4064 60.6048 57.751 60.2809C57.7546 60.2774 57.7583 60.274 57.762 60.2706C58.1053 59.9469 58.5808 59.7803 59.0628 59.8338L62.0883 60.1692C62.7812 60.2461 63.4437 59.8791 63.7107 59.2709L64.7608 56.8782C65.0275 56.2696 64.834 55.5679 64.2865 55.1599ZM50.7398 56.4552C48.3079 57.4059 45.5198 56.3161 44.5125 54.0208C43.5051 51.7256 44.6601 49.0944 47.092 48.1437C49.5239 47.193 52.312 48.2829 53.3193 50.5782C54.3265 52.8733 53.1717 55.5047 50.7398 56.4552Z" fill="white"/>
</mask>
<g mask="url(#mask1_1109_96)">
<path d="M61.3024 52.2012H59.3024V52.2023L61.3024 52.2012ZM61.3024 52.1866H63.3024V52.1832L61.3024 52.1866ZM57.759 44.1128L56.3601 45.5422L56.3717 45.5536L56.3835 45.5648L57.759 44.1128ZM57.7481 44.1026L56.3748 45.5566L56.3883 45.5693L56.402 45.5818L57.7481 44.1026ZM49.1827 40.7603V38.7603H49.1797L49.1827 40.7603ZM40.6277 44.1046L39.2575 42.6477L39.255 42.65L40.6277 44.1046ZM37.0753 52.184H39.0753V52.1829L37.0753 52.184ZM37.0753 52.1986H35.0753V52.2026L37.0753 52.1986ZM40.6188 60.2724L39.2436 61.7245L39.2461 61.7269L40.6188 60.2724ZM40.6297 60.2826L42.0029 58.8286L41.9895 58.8159L41.9758 58.8034L40.6297 60.2826ZM49.195 63.625V65.625H49.1986L49.195 63.625ZM57.7501 60.2809L59.12 61.738L59.1228 61.7354L57.7501 60.2809ZM57.7611 60.2706L59.1072 61.7498L59.12 61.738L59.133 61.7259L57.7611 60.2706ZM64.7599 56.8782L66.5913 57.682L66.5918 57.6809L64.7599 56.8782ZM65.4807 53.5562L63.0901 51.7745L60.6998 54.9818L63.0904 56.7635L65.4807 53.5562ZM63.0901 51.7745C63.2221 51.8729 63.3023 52.0352 63.3024 52.2L59.3024 52.2023C59.303 53.2832 59.8061 54.3158 60.6998 54.9818L63.0901 51.7745ZM63.3024 52.2012V52.2C63.3024 52.1999 63.3024 52.1989 63.3024 52.1989C63.3024 52.1988 63.3024 52.1978 63.3024 52.1978C63.3024 52.1978 63.3024 52.1968 63.3024 52.1967C63.3024 52.1967 63.3024 52.1957 63.3024 52.1956V52.1945C63.3024 52.1944 63.3024 52.1934 63.3024 52.1934C63.3024 52.1934 63.3024 52.1924 63.3024 52.1923V52.1912C63.3024 52.1912 63.3024 52.1902 63.3024 52.1901C63.3024 52.1901 63.3024 52.1892 63.3024 52.1891C63.3024 52.189 63.3024 52.188 63.3024 52.188C63.3024 52.1879 63.3024 52.1866 63.3024 52.1866H59.3024C59.3024 52.1867 59.3024 52.1877 59.3024 52.1877C59.3024 52.1877 59.3024 52.1886 59.3024 52.1887C59.3024 52.1888 59.3024 52.1898 59.3024 52.1898V52.1909C59.3024 52.191 59.3024 52.192 59.3024 52.192V52.1931V52.1942V52.1952V52.1963C59.3024 52.1964 59.3024 52.1974 59.3024 52.1974C59.3024 52.1975 59.3024 52.1985 59.3024 52.1985C59.3024 52.1986 59.3024 52.1996 59.3024 52.1996V52.2012H63.3024ZM63.3024 52.1832C63.3027 52.3493 63.2219 52.5123 63.0899 52.6107L60.6999 49.4032C59.8045 50.0704 59.3005 51.1067 59.3024 52.1909L63.3024 52.1832ZM63.0899 52.6107L65.4808 50.8287L63.0904 47.6215L60.6999 49.4032L63.0899 52.6107ZM65.4808 50.8287C66.7448 49.8867 67.2473 48.1984 66.5912 46.7034L62.9284 48.311C62.8062 48.0325 62.9214 47.7474 63.0904 47.6215L65.4808 50.8287ZM66.5912 46.7034L65.541 44.3108L61.8782 45.9182L62.9284 48.311L66.5912 46.7034ZM65.541 44.3108C64.8992 42.8483 63.3697 42.0617 61.8669 42.2284L62.3077 46.204C62.1904 46.217 61.9861 46.164 61.8782 45.9182L65.541 44.3108ZM61.8669 42.2284L58.8414 42.5638L59.2822 46.5395L62.3077 46.204L61.8669 42.2284ZM58.8414 42.5638C58.9558 42.5511 59.0597 42.5901 59.1345 42.6609L56.3835 45.5648C57.1447 46.2859 58.2016 46.6594 59.2822 46.5395L58.8414 42.5638ZM59.1579 42.6835C59.1368 42.6628 59.1155 42.6428 59.0942 42.6234L56.402 45.5818C56.3881 45.5691 56.3741 45.5559 56.3601 45.5422L59.1579 42.6835ZM59.1214 42.6486C59.1987 42.7216 59.299 42.8888 59.2699 43.1221L55.3006 42.6276C55.1582 43.7707 55.6113 44.8355 56.3748 45.5566L59.1214 42.6486ZM59.2699 43.1221L59.6254 40.2668L55.656 39.7726L55.3006 42.6276L59.2699 43.1221ZM59.6254 40.2668C59.8276 38.642 58.8529 37.1871 57.417 36.6258L55.9606 40.3513C55.8137 40.2938 55.6165 40.0898 55.656 39.7726L59.6254 40.2668ZM57.417 36.6258L54.8816 35.6348L53.4254 39.3603L55.9606 40.3513L57.417 36.6258ZM54.8816 35.6348C53.4666 35.0816 51.8034 35.462 50.7996 36.6614L53.867 39.2287C53.7937 39.3162 53.7085 39.3588 53.6413 39.3753C53.5742 39.3918 53.4994 39.3892 53.4254 39.3603L54.8816 35.6348ZM50.7996 36.6614L48.9115 38.9176L51.979 41.4847L53.867 39.2287L50.7996 36.6614ZM48.9115 38.9176C49.026 38.7807 49.1485 38.7603 49.1972 38.7603L49.1982 42.7603C50.2173 42.7598 51.2627 42.3407 51.979 41.4847L48.9115 38.9176ZM49.1972 38.7603H49.1961H49.195C49.195 38.7603 49.194 38.7603 49.1939 38.7603C49.1938 38.7603 49.1928 38.7603 49.1928 38.7603H49.1917C49.1917 38.7603 49.1907 38.7603 49.1906 38.7603C49.1905 38.7603 49.1896 38.7603 49.1896 38.7603C49.1896 38.7603 49.1886 38.7603 49.1885 38.7603H49.1874C49.1873 38.7603 49.1863 38.7603 49.1863 38.7603C49.1863 38.7603 49.1853 38.7603 49.1852 38.7603C49.1852 38.7603 49.1842 38.7603 49.1841 38.7603C49.184 38.7603 49.1827 38.7603 49.1827 38.7603V42.7603C49.1827 42.7603 49.1837 42.7603 49.1838 42.7603H49.1849H49.186C49.1861 42.7603 49.1871 42.7603 49.1871 42.7603C49.1871 42.7603 49.1881 42.7603 49.1882 42.7603C49.1883 42.7603 49.1892 42.7603 49.1892 42.7603C49.1892 42.7603 49.1902 42.7603 49.1903 42.7603C49.1904 42.7603 49.1914 42.7603 49.1914 42.7603C49.1914 42.7603 49.1924 42.7603 49.1925 42.7603C49.1926 42.7603 49.1936 42.7603 49.1936 42.7603H49.1947C49.1948 42.7603 49.1957 42.7603 49.1957 42.7603C49.1958 42.7603 49.1968 42.7603 49.1968 42.7603C49.1969 42.7603 49.1982 42.7603 49.1982 42.7603L49.1972 38.7603ZM49.1797 38.7603C49.2295 38.7602 49.3522 38.7809 49.4665 38.9175L46.399 41.4846C47.1164 42.3417 48.1636 42.7619 49.186 42.7603L49.1797 38.7603ZM49.4665 38.9175L47.5785 36.6614L44.5109 39.2284L46.399 41.4846L49.4665 38.9175ZM47.5785 36.6614C46.5747 35.4616 44.9112 35.0815 43.4962 35.6346L44.9525 39.3601C44.8785 39.389 44.8037 39.3915 44.7366 39.375C44.6694 39.3585 44.5842 39.316 44.5109 39.2284L47.5785 36.6614ZM43.4962 35.6346L40.9609 36.6257L42.4173 40.3512L44.9525 39.3601L43.4962 35.6346ZM40.9609 36.6257C39.5249 37.1871 38.5503 38.642 38.7525 40.2667L42.7219 39.7727C42.7613 40.0896 42.5643 40.2937 42.4173 40.3512L40.9609 36.6257ZM38.7525 40.2667L39.1079 43.122L43.0773 42.628L42.7219 39.7727L38.7525 40.2667ZM39.1079 43.122C39.0788 42.8884 39.1796 42.721 39.2575 42.6477L41.9979 45.5614C42.7649 44.84 43.22 43.7733 43.0773 42.628L39.1079 43.122ZM39.255 42.65C39.253 42.6519 39.2511 42.6537 39.2493 42.6554C39.2474 42.6572 39.2457 42.6588 39.244 42.6604L41.9889 45.57C41.9909 45.5681 41.9933 45.5658 41.9951 45.5641C41.997 45.5623 41.9987 45.5607 42.0004 45.5591L39.255 42.65ZM39.244 42.6604C39.3178 42.5909 39.4217 42.5512 39.5363 42.5639L39.0953 46.5396C40.1741 46.6592 41.2284 46.2871 41.9889 45.57L39.244 42.6604ZM39.5363 42.5639L36.5109 42.2285L36.0701 46.2042L39.0953 46.5396L39.5363 42.5639ZM36.5109 42.2285C35.0076 42.0619 33.4784 42.8488 32.8367 44.3109L36.4995 45.9185C36.3917 46.1641 36.1876 46.2172 36.0701 46.2042L36.5109 42.2285ZM32.8367 44.3109L31.7866 46.7036L35.4493 48.3111L36.4995 45.9185L32.8367 44.3109ZM31.7866 46.7036C31.1305 48.1984 31.633 49.8869 32.8971 50.829L35.2874 47.6217C35.4565 47.7477 35.5715 48.0327 35.4493 48.3111L31.7866 46.7036ZM32.8971 50.829L35.2875 52.6107L37.6779 49.4035L35.2874 47.6217L32.8971 50.829ZM35.2875 52.6107C35.1556 52.5124 35.0753 52.3499 35.0753 52.1852L39.0753 52.1829C39.0746 51.102 38.5717 50.0696 37.6779 49.4035L35.2875 52.6107ZM35.0753 52.184C35.0753 52.184 35.0753 52.1851 35.0753 52.1852V52.1863C35.0753 52.1864 35.0753 52.1873 35.0753 52.1873C35.0753 52.1873 35.0753 52.1883 35.0753 52.1884C35.0753 52.1885 35.0753 52.1895 35.0753 52.1895C35.0753 52.1895 35.0753 52.1905 35.0753 52.1906V52.1917V52.1928C35.0753 52.1928 35.0753 52.1937 35.0753 52.1938V52.1949V52.196V52.1971C35.0753 52.1972 35.0753 52.1986 35.0753 52.1986H39.0753C39.0753 52.1986 39.0753 52.1976 39.0753 52.1975C39.0753 52.1975 39.0753 52.1965 39.0753 52.1964V52.1953V52.1942V52.1931C39.0753 52.193 39.0753 52.192 39.0753 52.192C39.0753 52.192 39.0753 52.191 39.0753 52.1909V52.1898C39.0753 52.1897 39.0753 52.1887 39.0753 52.1887C39.0753 52.1886 39.0753 52.1877 39.0753 52.1877V52.1866C39.0753 52.1866 39.0753 52.1856 39.0753 52.1855C39.0753 52.1855 39.0753 52.1841 39.0753 52.184H35.0753ZM35.0753 52.2026C35.0749 52.0357 35.1561 51.8726 35.2878 51.7745L37.6777 54.982C38.5728 54.315 39.0774 53.2803 39.0753 52.1953L35.0753 52.2026ZM35.2878 51.7745L32.8969 53.5565L35.2872 56.7637L37.6777 54.982L35.2878 51.7745ZM32.8969 53.5565C31.6329 54.4985 31.1302 56.187 31.7867 57.6821L35.4494 56.0743C35.5718 56.3529 35.4562 56.6378 35.2872 56.7637L32.8969 53.5565ZM31.7867 57.6821L32.8366 60.0744L36.4994 58.467L35.4494 56.0743L31.7867 57.6821ZM32.8366 60.0744C33.4783 61.5365 35.0077 62.3235 36.5108 62.1568L36.07 58.1812C36.1876 58.1681 36.3916 58.2214 36.4994 58.467L32.8366 60.0744ZM36.5108 62.1568L39.5363 61.8214L39.0956 57.8457L36.07 58.1812L36.5108 62.1568ZM39.5363 61.8214C39.4216 61.8341 39.3179 61.7949 39.2436 61.7245L41.994 58.8202C41.2329 58.0994 40.1763 57.7257 39.0956 57.8457L39.5363 61.8214ZM39.2461 61.7269C39.2445 61.7254 39.2432 61.7241 39.2423 61.7233C39.2415 61.7226 39.241 61.722 39.2409 61.722C39.2397 61.7208 39.2434 61.7244 39.2453 61.7262C39.2505 61.7312 39.2651 61.745 39.2835 61.7618L41.9758 58.8034C41.9836 58.8105 41.9895 58.816 41.994 58.8202C41.9984 58.8243 42.0018 58.8276 42.0029 58.8286C42.0035 58.8292 42.004 58.8297 42.0038 58.8295C42.0042 58.8298 42.0037 58.8294 42.0038 58.8295C42.0036 58.8292 42.0026 58.8283 42.0021 58.8279C42.0004 58.8262 41.9964 58.8224 41.9915 58.8178L39.2461 61.7269ZM39.2564 61.7366C39.1791 61.6637 39.0788 61.4963 39.1078 61.2631L43.0772 61.7575C43.2195 60.6143 42.7664 59.5497 42.0029 58.8286L39.2564 61.7366ZM39.1078 61.2631L38.7524 64.1186L42.7218 64.6127L43.0772 61.7575L39.1078 61.2631ZM38.7524 64.1186C38.5501 65.7435 39.525 67.1982 40.9608 67.7595L42.4171 64.034C42.564 64.0915 42.7612 64.2956 42.7218 64.6127L38.7524 64.1186ZM40.9608 67.7595L43.496 68.7506L44.9524 65.0251L42.4171 64.034L40.9608 67.7595ZM43.496 68.7506C44.9112 69.3038 46.5745 68.9233 47.5783 67.724L44.5109 65.1566C44.5841 65.0692 44.6692 65.0267 44.7364 65.0102C44.8035 64.9936 44.8784 64.9962 44.9524 65.0251L43.496 68.7506ZM47.5783 67.724L49.4663 65.4677L46.3987 62.9007L44.5109 65.1566L47.5783 67.724ZM49.4663 65.4677C49.3518 65.6046 49.2292 65.625 49.1806 65.625L49.1796 61.625C48.1603 61.6255 47.1149 62.0448 46.3987 62.9007L49.4663 65.4677ZM49.1806 65.625H49.1817C49.1818 65.625 49.1827 65.625 49.1827 65.625C49.1827 65.625 49.1837 65.625 49.1838 65.625H49.1849C49.185 65.625 49.186 65.625 49.186 65.625C49.186 65.625 49.187 65.625 49.1871 65.625C49.1872 65.625 49.1882 65.625 49.1882 65.625H49.1892C49.1892 65.625 49.1902 65.625 49.1903 65.625C49.1904 65.625 49.1914 65.625 49.1914 65.625H49.1925H49.1936H49.195V61.625H49.1939H49.1928H49.1917C49.1917 61.625 49.1907 61.625 49.1906 61.625C49.1906 61.625 49.1897 61.625 49.1896 61.625H49.1885C49.1885 61.625 49.1875 61.625 49.1874 61.625H49.1863C49.1862 61.625 49.1852 61.625 49.1852 61.625C49.1852 61.625 49.1842 61.625 49.1841 61.625C49.184 61.625 49.1831 61.625 49.1831 61.625C49.183 61.625 49.182 61.625 49.182 61.625C49.182 61.625 49.181 61.625 49.1809 61.625C49.1809 61.625 49.1797 61.625 49.1796 61.625L49.1806 65.625ZM49.1986 65.625C49.1483 65.6251 49.0255 65.6043 48.911 65.4675L51.979 62.9009C51.2618 62.0436 50.2134 61.6232 49.1906 61.625L49.1986 65.625ZM48.911 65.4675L50.7992 67.7239L53.8669 65.157L51.979 62.9009L48.911 65.4675ZM50.7992 67.7239C51.803 68.9236 53.4664 69.3038 54.8815 68.7508L53.4254 65.0252C53.4992 64.9963 53.574 64.9938 53.6411 65.0103C53.7084 65.0268 53.7936 65.0694 53.8669 65.157L50.7992 67.7239ZM54.8815 68.7508L57.4169 67.7596L55.9605 64.0342L53.4254 65.0252L54.8815 68.7508ZM57.4169 67.7596C58.8528 67.1983 59.8275 65.7434 59.6252 64.1187L55.6559 64.6128C55.6164 64.2957 55.8136 64.0916 55.9605 64.0342L57.4169 67.7596ZM59.6252 64.1187L59.2698 61.2634L55.3005 61.7575L55.6559 64.6128L59.6252 64.1187ZM59.2698 61.2634C59.2989 61.4968 59.1984 61.6644 59.12 61.738L56.3801 58.8238C55.6127 59.5453 55.1578 60.6124 55.3005 61.7575L59.2698 61.2634ZM59.1228 61.7354C59.1205 61.7375 59.1144 61.7432 59.1072 61.7498L56.4149 58.7915C56.3954 58.8093 56.378 58.8257 56.3774 58.8264L59.1228 61.7354ZM59.133 61.7259C59.0596 61.7951 58.9564 61.8344 58.8414 61.8216L59.2824 57.846C58.2033 57.7263 57.1493 58.0988 56.3892 58.8153L59.133 61.7259ZM58.8414 61.8216L61.867 62.1571L62.3078 58.1814L59.2824 57.846L58.8414 61.8216ZM61.867 62.1571C63.3703 62.3237 64.8995 61.5367 65.5412 60.0747L61.8784 58.4671C61.9862 58.2216 62.1903 58.1684 62.3078 58.1814L61.867 62.1571ZM65.5412 60.0747L66.5913 57.682L62.9286 56.0744L61.8784 58.4671L65.5412 60.0747ZM66.5918 57.6809C67.2465 56.1869 66.7454 54.4987 65.4807 53.5562L63.0904 56.7635C62.9208 56.6371 62.8068 56.3524 62.9281 56.0755L66.5918 57.6809ZM50.0108 54.5925C48.5098 55.1793 46.8903 54.4642 46.343 53.217L42.6802 54.8246C44.1475 58.1679 48.1044 59.6326 51.4671 58.318L50.0108 54.5925ZM46.343 53.217C45.8251 52.0371 46.3688 50.5735 47.8193 50.0065L46.3629 46.281C42.9496 47.6154 41.1834 51.4141 42.6802 54.8246L46.343 53.217ZM47.8193 50.0065C49.3203 49.4197 50.9397 50.1347 51.487 51.3819L55.1498 49.7744C53.6825 46.4311 49.7256 44.9664 46.3629 46.281L47.8193 50.0065ZM51.487 51.3819C52.0049 52.5619 51.4611 54.0256 50.0108 54.5925L51.4671 58.318C54.8806 56.9837 56.6464 53.1846 55.1498 49.7744L51.487 51.3819Z" fill="white"/>
</g>
</g>
<defs>
<clipPath id="clip0_1109_96">
<rect width="67" height="67" fill="white"/>
</clipPath>
</defs>
</svg>
