<svg width="67" height="68" viewBox="0 0 67 68" fill="none" xmlns="http://www.w3.org/2000/svg">
<path d="M20.5946 24.7456L19.0303 25.3247C8.5222 29.2152 1.00003 39.8107 1 52.1129L20.5946 24.7456ZM20.5946 24.7456L19.3466 23.6388M20.5946 24.7456L19.3466 23.6388M19.3466 23.6388C16.6578 21.254 14.9586 17.7878 14.9586 13.9557C14.9586 6.84568 20.8032 1 27.9171 1C35.0311 1 40.8757 6.84568 40.8757 13.9557C40.8757 16.2064 40.2894 18.3286 39.262 20.1808C35.1467 21.5646 31.9881 25.0978 31.1551 29.4336M19.3466 23.6388L31.1551 29.4336M31.1551 29.4336C30.0991 29.2618 29.0182 29.1706 27.9171 29.1706C17.3106 29.1706 8.46885 37.3486 6.75373 48.2363L6.57169 49.3919H7.74155H23.2578C22.2635 51.0847 21.4637 52.9111 20.881 54.8343H3.72354C3.72351 54.8343 3.72348 54.8343 3.72345 54.8343C3.00097 54.8342 2.30823 54.5473 1.79755 54.0369C1.28688 53.5265 1.00007 52.8345 1 52.113L31.1551 29.4336ZM35.4288 13.9557C35.4288 9.76086 32.1087 6.44231 27.9171 6.44231C23.7256 6.44231 20.4052 9.76081 20.4052 13.9557C20.4052 18.1506 23.7255 21.4696 27.9171 21.4696C32.1088 21.4696 35.4288 18.1505 35.4288 13.9557Z" stroke="white" stroke-width="2"/>
<path d="M39.1899 42.202L37.6257 42.7811C29.3002 45.8634 23.3321 54.2632 23.332 64.0241L39.1899 42.202ZM39.1899 42.202L37.942 41.0952M39.1899 42.202L37.942 41.0952M37.942 41.0952C35.8313 39.2232 34.4989 36.5037 34.4989 33.4984C34.4989 27.9208 39.085 23.3337 44.6657 23.3337C50.2464 23.3337 54.8326 27.9208 54.8326 33.4984C54.8326 36.5038 53.5003 39.2232 51.3896 41.0952L50.1417 42.2019M37.942 41.0952L50.1417 42.2019M50.1417 42.2019L51.706 42.7811M50.1417 42.2019L51.706 42.7811M51.706 42.7811C60.0313 45.8635 65.9994 54.2632 65.9994 64.0241C65.9994 64.5482 65.791 65.051 65.42 65.4218C65.0489 65.7927 64.5456 66.0011 64.0206 66.0012C64.0206 66.0012 64.0205 66.0012 64.0205 66.0012H44.6657H25.3108C25.3108 66.0012 25.3108 66.0012 25.3107 66.0012C24.7858 66.0011 24.2825 65.7926 23.9114 65.4218C23.5404 65.051 23.3321 64.5483 23.332 64.0242L51.706 42.7811ZM60.8062 62.0472H61.9761L61.794 60.8916C60.4082 52.0946 53.2596 45.4701 44.6657 45.4701C36.0719 45.4701 28.9232 52.0946 27.5375 60.8916L27.3554 62.0472H28.5253H44.6657H60.8062ZM50.875 33.4984C50.875 30.0321 48.1295 27.2877 44.6657 27.2877C41.202 27.2877 38.4563 30.032 38.4563 33.4984C38.4563 36.9647 41.2019 39.7095 44.6657 39.7095C48.1296 39.7095 50.875 36.9647 50.875 33.4984Z" stroke="white" stroke-width="2"/>
</svg>
