<svg width="68" height="71" viewBox="0 0 68 71" fill="none" xmlns="http://www.w3.org/2000/svg">
<path d="M65.991 56.7055C65.991 57.9115 65.7347 59.151 65.1899 60.357C64.6452 61.563 63.9402 62.702 63.011 63.774C61.4408 65.583 59.7105 66.8895 57.7558 67.727C55.8332 68.5645 53.7504 69 51.5073 69C48.2389 69 44.7461 68.196 41.0611 66.5545C37.3761 64.913 33.6911 62.702 30.0381 59.9215C26.3531 57.1075 22.8604 53.992 19.5278 50.5415C16.2273 47.0575 13.2473 43.406 10.5877 39.587C7.96011 35.768 5.84523 31.949 4.30714 28.1635C2.76905 24.3445 2 20.693 2 17.209C2 14.931 2.38452 12.7535 3.15357 10.7435C3.92261 8.7 5.14027 6.824 6.83858 5.149C8.88937 3.0385 11.1324 2 13.5036 2C14.4009 2 15.2981 2.201 16.0992 2.603C16.9323 3.005 17.6693 3.608 18.2461 4.479L25.6802 15.4335C26.257 16.271 26.6736 17.0415 26.9619 17.7785C27.2503 18.482 27.4106 19.1855 27.4106 19.822C27.4106 20.626 27.1863 21.43 26.7376 22.2005C26.3211 22.971 25.7122 23.775 24.9432 24.579L22.5079 27.2255C22.1554 27.594 21.9952 28.0295 21.9952 28.5655C21.9952 28.8335 22.0272 29.068 22.0913 29.336C22.1875 29.604 22.2836 29.805 22.3477 30.006C22.9245 31.1115 23.9178 32.552 25.3277 34.294C26.7697 36.036 28.3078 37.8115 29.974 39.587C31.7044 41.3625 33.3707 43.004 35.069 44.5115C36.7352 45.9855 38.1131 46.9905 39.2026 47.5935C39.3628 47.6605 39.5551 47.761 39.7794 47.8615C40.0357 47.962 40.2921 47.9955 40.5805 47.9955C41.1252 47.9955 41.5418 47.7945 41.8943 47.426L44.3296 44.9135C45.1307 44.076 45.8997 43.4395 46.6367 43.0375C47.3737 42.5685 48.1107 42.334 48.9118 42.334C49.5206 42.334 50.1615 42.468 50.8665 42.7695C51.5714 43.071 52.3084 43.5065 53.1095 44.076L63.7159 51.9485C64.5491 52.5515 65.1259 53.255 65.4783 54.0925C65.7988 54.93 65.991 55.7675 65.991 56.7055Z" stroke="white" stroke-width="3" stroke-miterlimit="10"/>
<path d="M54.8715 25.4499C54.8715 23.4399 53.3655 20.3579 51.1224 17.8454C49.0716 15.5339 46.3479 13.7249 43.6562 13.7249" stroke="white" stroke-width="3" stroke-linecap="round" stroke-linejoin="round"/>
<path d="M66.0868 25.45C66.0868 12.4855 56.0571 2 43.6562 2" stroke="white" stroke-width="3" stroke-linecap="round" stroke-linejoin="round"/>
</svg>
