<svg width="49" height="50" viewBox="0 0 49 50" fill="none" xmlns="http://www.w3.org/2000/svg">
<path d="M0.265459 0.265457C-0.0884864 0.619404 -0.0884864 49.3806 0.265459 49.7345C0.619405 50.0885 46.0493 50.0885 46.4033 49.7345C46.5907 49.5472 46.6531 47.8815 46.6531 43.4884V37.4922H47.2361C48.173 37.4922 48.3188 37.1799 48.3188 34.9938C48.3188 32.8076 48.173 32.4953 47.2361 32.4953H46.6531V27.082V21.6687H47.2361C47.5484 21.6687 47.9232 21.5646 48.0689 21.4189C48.402 21.0858 48.402 17.2548 48.0689 16.9217C47.9024 16.7551 46.8613 16.6719 44.7377 16.6719H41.6563V13.5905C41.6563 11.4668 41.573 10.4258 41.4064 10.2592C41.219 10.0718 39.8241 10.0094 36.4095 10.0094H31.6625V7.76078C31.6625 6.28253 31.5792 5.4289 31.4127 5.26234C31.2253 5.07495 29.8303 5.01249 26.4158 5.01249H21.6688V2.7639C21.6688 1.28566 21.5855 0.432022 21.4189 0.265457C21.065 -0.0884857 0.619405 -0.0884857 0.265459 0.265457ZM20.0031 25V48.3188H10.8422H1.68124V25V1.68124H10.8422H20.0031V25ZM29.9969 27.4984V48.3188H25.8328H21.6688V47.4859V46.6531H24.7502C26.8738 46.6531 27.9148 46.5699 28.0814 46.4033C28.4354 46.0493 28.4354 35.5975 28.0814 35.2436C27.9148 35.077 26.8738 34.9938 24.7502 34.9938H21.6688V34.1609V33.3281H24.7502C26.8738 33.3281 27.9148 33.2448 28.0814 33.0783C28.4354 32.7243 28.4354 22.2725 28.0814 21.9186C27.9148 21.752 26.8738 21.6687 24.7502 21.6687H21.6688V20.8359V20.0031H24.7502C26.8738 20.0031 27.9148 19.9198 28.0814 19.7533C28.4354 19.3993 28.4354 8.94753 28.0814 8.59359C27.9148 8.42702 26.8738 8.34374 24.7502 8.34374H21.6688V7.51093V6.67812H25.8328H29.9969V27.4984ZM26.6656 12.0914V14.1734H24.1672H21.6688V12.0914V10.0094H24.1672H26.6656V12.0914ZM39.9906 14.1734V16.6719H35.8266H31.6625V14.1734V11.675H35.8266H39.9906V14.1734ZM23.3344 17.0883V18.3375H22.5016H21.6688V17.0883V15.8391H22.5016H23.3344V17.0883ZM26.6656 17.0883V18.3375H25.8328H25V17.0883V15.8391H25.8328H26.6656V17.0883ZM46.6531 19.1703V20.0031H39.1578H31.6625V19.1703V18.3375H39.1578H46.6531V19.1703ZM44.9875 27.082V32.4953H44.1547H43.3219V28.1647C43.3219 25.0833 43.2594 23.7716 43.072 23.5842C42.7181 23.2303 33.9319 23.2303 33.578 23.5842C33.3906 23.7716 33.3281 25.0833 33.3281 28.1647V32.4953H32.4953H31.6625V27.082V21.6687H38.325H44.9875V27.082ZM26.6656 25.4164V27.4984H24.1672H21.6688V25.4164V23.3344H24.1672H26.6656V25.4164ZM37.4922 28.7477V32.4953H36.243H34.9938V28.7477V25H36.243H37.4922V28.7477ZM41.6563 28.7477V32.4953H40.407H39.1578V28.7477V25H40.407H41.6563V28.7477ZM23.3344 30.4133V31.6625H22.5016H21.6688V30.4133V29.1641H22.5016H23.3344V30.4133ZM26.6656 30.4133V31.6625H25.8328H25V30.4133V29.1641H25.8328H26.6656V30.4133ZM46.6531 34.9938V35.8266H39.1578H31.6625V34.9938V34.1609H39.1578H46.6531V34.9938ZM26.6656 38.7414V40.8234H24.1672H21.6688V38.7414V36.6594H24.1672H26.6656V38.7414ZM44.9875 42.9055V48.3188H44.1547H43.3219V43.9881C43.3219 40.9067 43.2594 39.595 43.072 39.4077C42.7181 39.0537 33.9319 39.0537 33.578 39.4077C33.3906 39.595 33.3281 40.9067 33.3281 43.9881V48.3188H32.4953H31.6625V42.9055V37.4922H38.325H44.9875V42.9055ZM37.4922 44.5711V48.3188H36.243H34.9938V44.5711V40.8234H36.243H37.4922V44.5711ZM41.6563 44.5711V48.3188H40.407H39.1578V44.5711V40.8234H40.407H41.6563V44.5711ZM23.3344 43.7383V44.9875H22.5016H21.6688V43.7383V42.4891H22.5016H23.3344V43.7383ZM26.6656 43.7383V44.9875H25.8328H25V43.7383V42.4891H25.8328H26.6656V43.7383Z" fill="black"/>
<path d="M3.59749 3.59672C3.24354 3.95067 3.24354 16.0681 3.59749 16.422C3.95144 16.776 17.7345 16.776 18.0884 16.422C18.4424 16.0681 18.4424 3.95067 18.0884 3.59672C17.7345 3.24278 3.95144 3.24278 3.59749 3.59672ZM10.0101 7.92735V10.8422H7.51171H5.01327V7.92735V5.01251H7.51171H10.0101V7.92735ZM16.6727 7.92735V10.8422H14.1742H11.6758V7.92735V5.01251H14.1742H16.6727V7.92735ZM6.6789 13.757V15.0063H5.84609H5.01327V13.757V12.5078H5.84609H6.6789V13.757ZM10.0101 13.757V15.0063H9.17734H8.34452V13.757V12.5078H9.17734H10.0101V13.757ZM13.3414 13.757V15.0063H12.5086H11.6758V13.757V12.5078H12.5086H13.3414V13.757ZM16.6727 13.757V15.0063H15.8398H15.007V13.757V12.5078H15.8398H16.6727V13.757Z" fill="black"/>
<path d="M3.59749 18.5874C3.24354 18.9414 3.24354 31.0588 3.59749 31.4128C3.95144 31.7667 17.7345 31.7667 18.0884 31.4128C18.4424 31.0588 18.4424 18.9414 18.0884 18.5874C17.7345 18.2335 3.95144 18.2335 3.59749 18.5874ZM10.0101 22.9181V25.8329H7.51171H5.01327V22.9181V20.0032H7.51171H10.0101V22.9181ZM16.6727 22.9181V25.8329H14.1742H11.6758V22.9181V20.0032H14.1742H16.6727V22.9181ZM6.6789 28.7478V29.997H5.84609H5.01327V28.7478V27.4985H5.84609H6.6789V28.7478ZM10.0101 28.7478V29.997H9.17734H8.34452V28.7478V27.4985H9.17734H10.0101V28.7478ZM13.3414 28.7478V29.997H12.5086H11.6758V28.7478V27.4985H12.5086H13.3414V28.7478ZM16.6727 28.7478V29.997H15.8398H15.007V28.7478V27.4985H15.8398H16.6727V28.7478Z" fill="black"/>
<path d="M3.59749 33.5779C3.24354 33.9319 3.24354 46.0493 3.59749 46.4032C3.95144 46.7572 17.7345 46.7572 18.0884 46.4032C18.4424 46.0493 18.4424 33.9319 18.0884 33.5779C17.7345 33.224 3.95144 33.224 3.59749 33.5779ZM10.0101 37.9086V40.8234H7.51171H5.01327V37.9086V34.9937H7.51171H10.0101V37.9086ZM16.6727 37.9086V40.8234H14.1742H11.6758V37.9086V34.9937H14.1742H16.6727V37.9086ZM6.6789 43.7382V44.9875H5.84609H5.01327V43.7382V42.489H5.84609H6.6789V43.7382ZM10.0101 43.7382V44.9875H9.17734H8.34452V43.7382V42.489H9.17734H10.0101V43.7382ZM13.3414 43.7382V44.9875H12.5086H11.6758V43.7382V42.489H12.5086H13.3414V43.7382ZM16.6727 43.7382V44.9875H15.8398H15.007V43.7382V42.489H15.8398H16.6727V43.7382Z" fill="black"/>
<path d="M33.3281 14.1735V15.0063H34.1609H34.9938V14.1735V13.3407H34.1609H33.3281V14.1735Z" fill="black"/>
<path d="M36.6562 14.1735V15.0063H37.4891H38.3219V14.1735V13.3407H37.4891H36.6562V14.1735Z" fill="black"/>
</svg>
