<svg width="56" height="62" viewBox="0 0 56 62" fill="none" xmlns="http://www.w3.org/2000/svg">
<path d="M41.8846 16.7528C41.8849 16.7521 41.8851 16.7517 41.8852 16.7516C41.8987 16.7124 41.9094 16.6797 41.9179 16.6521C41.9136 16.6472 41.9089 16.6421 41.904 16.6368C41.8163 16.5414 41.6845 16.416 41.4749 16.2261L41.4695 16.2211L41.4641 16.2161C41.0309 15.8118 40.6805 15.425 40.4213 14.8595C40.1815 14.3364 40.0466 13.7147 39.9032 12.9066L39.9028 12.9041C39.4678 10.4148 38.181 8.00828 36.3622 6.23794L36.3587 6.23446C34.9077 4.80807 32.5682 3.42339 31.1011 3.05661L31.0885 3.05346L31.076 3.04998C30.3351 2.84417 29.693 2.3264 29.4105 1.54532C29.3293 1.33803 29.2821 1.25655 29.2568 1.22221C29.2561 1.22116 29.2555 1.22034 29.2551 1.21971C29.2549 1.21964 29.2547 1.21955 29.2544 1.21943C29.2227 1.20554 29.1261 1.17341 28.8856 1.15076C28.6481 1.12841 28.3305 1.11993 27.8825 1.11993C27.4868 1.11993 27.099 1.14411 26.7976 1.17889C26.6983 1.19035 26.6137 1.20235 26.5448 1.21391C26.4799 1.3156 26.4207 1.43354 26.3858 1.53131L26.3811 1.54443L26.3761 1.55742C26.0194 2.47444 25.211 2.88863 24.3115 3.15038C21.1788 4.09153 18.3326 6.51914 16.8532 9.57373C16.2714 10.7883 15.7663 12.2332 15.6298 13.1186C15.5248 13.8145 15.4114 14.3843 15.1937 14.8612C14.9523 15.3904 14.6168 15.7365 14.2171 16.0562L14.2171 16.0562L14.2111 16.061C13.8267 16.3637 13.8091 16.5503 13.8086 16.5936C13.8079 16.6576 13.8416 16.8686 14.2063 17.2154C14.9518 17.9246 16.5882 18.7198 19.1257 19.3381L19.1257 19.338L19.1334 19.34C20.5772 19.704 23.3711 19.9525 26.3423 20.0311C29.2998 20.1092 32.2912 20.0155 34.1041 19.7405L34.1041 19.7404L34.1127 19.7392C35.5651 19.5317 37.3382 19.1735 38.0219 18.9613L38.0286 18.9592L38.0354 18.9572C38.9672 18.6824 39.933 18.2358 40.6916 17.761C41.0705 17.5238 41.377 17.2924 41.5948 17.0884C41.8157 16.8815 41.8779 16.7653 41.8846 16.7528ZM26.3855 1.24685C26.3813 1.24813 26.3822 1.24804 26.3873 1.24629C26.3865 1.24653 26.3859 1.24672 26.3855 1.24685Z" stroke="black" stroke-width="2"/>
<path d="M15.6923 25.2067L15.6923 25.2074C15.8109 27.2479 16.4384 28.8862 17.8074 30.5915L17.8153 30.6014L17.823 30.6115C18.3036 31.2422 19.1509 32.7296 19.7352 33.9247L19.7392 33.9329L19.743 33.9411C20.9518 36.5315 22.459 38.1493 24.4966 39.1567C25.2291 39.5165 25.6373 39.6807 26.0541 39.7716C26.4801 39.8645 26.9684 39.8928 27.8828 39.8928C28.732 39.8928 29.2428 39.8595 29.6753 39.7741C30.0945 39.6913 30.4841 39.5507 31.078 39.2788C32.9914 38.3665 34.8767 36.4291 35.9428 34.1272L35.9435 34.1258C36.4855 32.9604 37.324 31.4693 37.8063 30.7601L37.8139 30.7489L37.8218 30.7378C38.6766 29.5514 39.1989 28.6537 39.5289 27.7969C39.8547 26.9508 40.0116 26.0963 40.0732 24.9746L40.0732 24.974C40.1262 24.0204 40.125 23.5362 40.0844 23.2425C40.0558 23.0356 40.0177 22.9684 39.9262 22.8517L39.8229 22.7267L37.1431 23.3056C37.1426 23.3057 37.1422 23.3058 37.1417 23.3059C34.0478 23.9843 33.1755 24.0367 27.7517 24.0367C22.5031 24.0367 21.4352 23.9863 18.8797 23.4093C18.3795 23.2972 17.8945 23.1873 17.4572 23.0883C16.7469 22.9274 16.1627 22.7951 15.8439 22.7279C15.8387 22.7394 15.8333 22.7514 15.8278 22.764C15.7799 22.8903 15.7203 23.1551 15.688 23.5922C15.656 24.0254 15.6548 24.5696 15.6923 25.2067Z" stroke="black" stroke-width="2"/>
<path d="M22.5302 53.3742C21.7698 55.1834 21.7174 55.5242 21.7174 58.5658V60.8152L20.7174 60.7527M22.5302 53.3742L0.269074 57.8316C1.39655 59.2475 10.495 61.1092 18.7807 61.6336L20.7174 61.7546V60.7527M22.5302 53.3742C22.9759 52.3254 23.2644 51.3028 23.2119 51.1192M22.5302 53.3742L21.6125 49.9655M20.7174 60.7527L18.8438 60.6356C18.8437 60.6356 18.8436 60.6356 18.8435 60.6356C14.7461 60.3762 10.4463 59.7857 7.04151 59.0873C5.33714 58.7377 3.87796 58.3653 2.78935 58.001C2.24382 57.8184 1.81226 57.6448 1.49749 57.4865C1.34071 57.4077 1.22571 57.3391 1.14572 57.283C1.10525 57.2547 1.07968 57.2336 1.06511 57.2208C1.05643 57.1944 1.03784 57.1303 1.02272 57.0112C0.994991 56.7929 0.990677 56.4849 1.0208 56.0883C1.08077 55.2986 1.26732 54.2788 1.55515 53.1657C2.13404 50.9269 3.07712 48.4824 4.04728 46.966C4.98195 45.515 5.88781 44.5119 7.37158 43.5077C8.8964 42.4756 11.0447 41.4329 14.5054 39.9516C14.6166 39.9043 14.7269 39.8575 14.836 39.8111C15.7574 39.4194 16.5978 39.0622 17.2393 38.7939C17.5186 38.6771 17.7568 38.5786 17.9456 38.5022M20.7174 60.7527V58.5658C20.7174 57.067 20.728 56.1372 20.8506 55.3533C20.9792 54.5316 21.2257 53.8971 21.6083 52.9867L21.6099 52.983C21.8187 52.4915 21.9892 52.0095 22.099 51.6384C22.1156 51.5823 22.1304 51.5301 22.1435 51.4819M22.1435 51.4819C22.1293 51.4714 22.1146 51.4605 22.0993 51.4494C21.8479 51.2666 21.5039 51.0465 21.1316 50.8423L21.1209 50.8365L21.1103 50.8303C20.6894 50.5859 20.2929 50.34 19.9871 50.1384C19.8351 50.0382 19.6982 49.9442 19.5889 49.8637C19.5349 49.8239 19.4793 49.7814 19.4287 49.7389L19.4268 49.7373C19.3949 49.7106 19.297 49.6287 19.213 49.5167L19.1337 49.4109L19.0846 49.2881C18.9988 49.0737 19.0082 48.8744 19.0098 48.8411C19.0098 48.8396 19.0099 48.8384 19.0099 48.8376C19.0124 48.7674 19.0203 48.7021 19.0272 48.6534C19.0415 48.5527 19.0642 48.4375 19.0899 48.3205C19.1421 48.082 19.2216 47.7681 19.3201 47.4056C19.518 46.6776 19.8042 45.7132 20.1353 44.68L20.1348 44.6815L21.0881 44.9836M22.1435 51.4819C22.2474 51.559 22.3229 51.6209 22.3705 51.6641C22.392 51.6837 22.4009 51.6932 22.4009 51.6932C22.4009 51.6932 22.4003 51.6925 22.399 51.6911C22.3958 51.6873 22.3837 51.6732 22.3675 51.6497C22.3529 51.6286 22.3222 51.5818 22.2928 51.5131L23.2119 51.1192M22.1435 51.4819C22.1742 51.3693 22.1955 51.2786 22.2083 51.2121C22.2177 51.1635 22.2193 51.1443 22.219 51.1475L22.219 51.1475C22.2189 51.1499 22.2173 51.1691 22.2185 51.2002C22.2194 51.2255 22.2232 51.2988 22.2504 51.3939L23.2119 51.1192M21.0881 44.9836L20.1358 44.6784L21.1297 41.542M21.0881 44.9836L22.268 41.2603M21.0881 44.9836C20.4326 47.0288 19.9606 48.7856 20.013 48.9167C20.0917 49.0216 20.7996 49.4936 21.6125 49.9655M21.1297 41.542L19.5792 40.0119M21.1297 41.542L21.5656 41.9721L22.268 41.2603M21.1297 41.542L21.3147 40.9583L22.268 41.2603M19.5792 40.0119C19.0325 39.4913 18.5269 39.0179 18.1479 38.68C18.0736 38.6137 18.0061 38.5544 17.9456 38.5022M19.5792 40.0119C19.5813 40.0139 19.5834 40.0159 19.5856 40.018L20.2752 39.2938M19.5792 40.0119L19.5728 40.0056L20.2752 39.2938M17.9456 38.5022C17.9998 38.4803 18.05 38.4601 18.0959 38.4419C18.1999 38.4006 18.274 38.3723 18.3209 38.3555C18.3227 38.3549 18.3243 38.3543 18.3259 38.3538L18.3415 38.3499C18.3366 38.3511 18.3318 38.3523 18.327 38.3534C18.333 38.3512 18.3377 38.3496 18.3411 38.3484C18.3462 38.3467 18.3485 38.346 18.3485 38.346C18.3485 38.346 18.3479 38.3461 18.3467 38.3465C18.346 38.3467 18.3441 38.3473 18.341 38.3481C18.334 38.3501 18.321 38.3537 18.3038 38.3575L18.3027 38.3578C18.2948 38.3596 18.2545 38.369 18.1957 38.3748C18.1613 38.3781 18.1289 38.3793 18.0989 38.3792C18.0216 38.3788 17.9604 38.3692 17.9227 38.362C17.8423 38.3466 17.7824 38.3242 17.7517 38.3116C17.6927 38.2876 17.6558 38.2646 17.6521 38.2623L17.6519 38.2622C17.6434 38.257 17.66 38.267 17.7117 38.3075C17.7714 38.3543 17.8496 38.4193 17.9456 38.5022ZM20.2752 39.2938L22.268 41.2603M20.2752 39.2938C19.174 38.245 18.2038 37.3535 18.0989 37.3797C17.9996 37.3797 16.3959 38.0614 14.4451 38.8907C14.3356 38.9372 14.2249 38.9842 14.1134 39.0316L22.268 41.2603M22.268 41.2603L21.6125 49.9655M23.2119 51.1192C23.1333 50.9357 22.4253 50.4113 21.6125 49.9655" stroke="black" stroke-width="2"/>
<path d="M35.0379 58.5651V60.7378H35.3227C38.768 60.7378 46.627 59.6761 50.433 58.6732L50.433 58.6731L50.4403 58.6713C52.2378 58.2121 53.3666 57.8733 54.0623 57.5832C54.4933 57.4034 54.6606 57.2801 54.7166 57.2321C54.719 57.206 54.7216 57.1694 54.7234 57.1207C54.7282 56.9856 54.725 56.8058 54.712 56.5839C54.686 56.1412 54.6237 55.5815 54.5331 54.9726C54.3509 53.7482 54.0663 52.4059 53.7753 51.5079C52.249 46.8807 49.8693 44.0399 46.0454 42.1279C45.0276 41.619 42.8315 40.6465 40.845 39.8041C39.8557 39.3845 38.9302 39.0022 38.2423 38.7308C38.0141 38.6408 37.8161 38.5646 37.6529 38.504C37.5964 38.5585 37.5348 38.6181 37.4686 38.6825C37.1126 39.0289 36.6318 39.5031 36.1109 40.024C36.1101 40.0248 36.1093 40.0256 36.1085 40.0265L34.6449 41.5103L35.6218 44.6851C35.9521 45.7291 36.2381 46.6997 36.433 47.4287C36.5299 47.7913 36.6078 48.1074 36.6571 48.3477C36.6811 48.4645 36.703 48.5861 36.7147 48.6953C36.7203 48.7471 36.7269 48.8261 36.7237 48.9141C36.7221 48.9579 36.7173 49.0288 36.6993 49.1122C36.6864 49.172 36.6534 49.3046 36.5621 49.4491C36.4742 49.5895 36.3718 49.6823 36.3469 49.7049C36.3455 49.7062 36.3443 49.7073 36.3434 49.7081C36.2868 49.7601 36.2259 49.8091 36.1713 49.851C36.0599 49.9365 35.9205 50.034 35.7692 50.1348C35.4636 50.3386 35.0654 50.5855 34.6449 50.8296L34.6343 50.8358L34.6236 50.8416C34.2509 51.046 33.9094 51.2648 33.6619 51.4476C33.6372 51.4659 33.614 51.4833 33.5924 51.4999C33.6073 51.5558 33.6249 51.6183 33.6456 51.6873C33.7578 52.0624 33.9349 52.553 34.1479 53.0669C34.5308 53.9781 34.7761 54.6172 34.9044 55.4299C35.0272 56.2077 35.0379 57.1178 35.0379 58.5651Z" stroke="black" stroke-width="2"/>
<path d="M26.8734 46.3099L26.8734 46.3099L26.8754 46.3154L27.426 47.8099L27.5081 48.0325L27.4813 48.2683L26.7475 54.7417C26.7474 54.7422 26.7474 54.7427 26.7473 54.7432C26.5514 56.5196 26.3887 58.1803 26.2881 59.4226C26.2377 60.0454 26.2037 60.5541 26.1885 60.9164C26.188 60.9276 26.1876 60.9387 26.1872 60.9495C26.5523 60.9847 27.1483 61 28.1396 61C28.8268 61 29.325 60.9999 29.694 60.9909C29.7001 60.9907 29.7061 60.9906 29.712 60.9904C29.7039 60.9313 29.6958 60.8705 29.6876 60.8087C29.6352 60.4141 29.5691 59.8844 29.4935 59.2586C29.3423 58.0061 29.1519 56.3579 28.9551 54.613L28.955 54.6123L28.2471 48.2932L28.2198 48.05L28.3079 47.8218L28.8815 46.3356C29.0696 45.8206 29.1581 45.494 29.1887 45.2844C29.197 45.2275 29.1997 45.1879 29.2003 45.1623C29.1659 45.1187 29.0903 45.025 28.9542 44.8764C28.771 44.6765 28.5383 44.4411 28.3015 44.2152C28.1556 44.076 28.0131 43.9452 27.8845 43.832C27.7619 43.9316 27.6262 44.0443 27.4851 44.1641C27.1302 44.4805 26.9028 44.6981 26.7519 44.8743C26.6064 45.0442 26.5783 45.1237 26.5705 45.1522C26.549 45.2307 26.536 45.4102 26.8734 46.3099ZM30.3131 60.9473C30.3131 60.9473 30.3124 60.9475 30.3111 60.9478L30.3131 60.9473Z" stroke="black" stroke-width="2"/>
</svg>
