<svg width="53" height="57" viewBox="0 0 53 57" fill="none" xmlns="http://www.w3.org/2000/svg">
<path d="M13.0214 5.43102L13.0194 5.43168L2.4745 8.95588L2.65353 9.05504C3.09183 9.29295 3.66494 9.60091 4.28042 9.93163C5.28338 10.4706 6.39883 11.0699 7.22665 11.5251L9.62585 12.7914L9.73226 12.8475L9.74925 12.5179L11.168 13.3473L13.3358 14.6146L15.5036 15.8486L15.9836 16.1218L16.0079 16.6736L16.1082 18.946L16.1082 18.9466L16.1657 20.2303H27.0761H37.9193L37.8763 18.3788L37.8094 15.5041L37.7953 14.8984L38.3257 14.6055L45.0446 10.895L45.0464 10.894C46.8792 9.88681 48.5307 8.95394 49.7206 8.26615C49.3226 8.14858 48.8773 8.01755 48.3919 7.87518C46.3013 7.26199 43.4739 6.44029 40.5037 5.58181C34.6979 3.90376 28.3592 2.08888 25.9107 1.41576C25.8861 1.42048 25.8569 1.42637 25.8228 1.43363C25.6365 1.47332 25.3655 1.54063 25.0111 1.63637C24.3058 1.82686 23.3185 2.11661 22.1171 2.48513C19.717 3.2214 16.4918 4.26308 13.0214 5.43102Z" stroke="black" stroke-width="2"/>
<path d="M10.3107 32.6772C10.2763 31.7764 10.189 30.5673 10.052 29.0057C9.8884 30.9433 9.62311 32.8066 9.27326 34.534L9.27327 34.534L9.27229 34.5387C9.25104 34.6411 9.25804 34.6988 9.2631 34.7225C9.26782 34.7446 9.27405 34.7536 9.2785 34.7591C9.28948 34.7728 9.34556 34.8258 9.48491 34.8436C9.76905 34.8797 10.117 34.7369 10.268 34.3442L10.268 34.3442L10.2693 34.3408C10.2689 34.3418 10.2691 34.341 10.2698 34.3381C10.2744 34.3184 10.3017 34.2017 10.3165 33.9169C10.3321 33.6182 10.3311 33.2111 10.3107 32.6772Z" stroke="black" stroke-width="2"/>
<path d="M15.482 24.2113L15.4804 24.2192L15.4786 24.2271C13.7692 31.8416 18.7161 38.6338 26.342 39.1895L26.342 39.1895L26.3504 39.1902C31.6089 39.6182 36.7781 36.0573 38.4516 30.7969C38.7241 29.9042 38.8653 28.4713 38.8451 27.0053C38.8248 25.5393 38.6455 24.2252 38.381 23.52L38.2549 23.2364H26.9044H15.6843L15.482 24.2113Z" stroke="black" stroke-width="2"/>
<path d="M10.1526 43.1713C10.1312 43.1727 10.1159 43.174 10.1057 43.175C9.86401 43.2338 9.37992 43.5334 8.81991 44.1848C8.28284 44.8096 7.80163 45.6144 7.52862 46.414C7.17985 47.5242 7.00999 48.9947 7.00999 52.3202H7.01002L7.00996 52.3276L6.98396 55.8377L26.9721 55.9332L26.9737 55.9332L46.9278 55.9968V52.3202C46.9278 47.023 46.3421 45.2409 44.8609 43.8145L44.8595 43.8132L44.1465 43.124L27.6021 43.0914L27.6005 43.0914C22.9391 43.0747 18.6217 43.0747 15.4208 43.0914C13.8198 43.0997 12.5011 43.1123 11.5593 43.1289C11.0877 43.1372 10.7155 43.1464 10.4515 43.1565C10.3188 43.1615 10.2201 43.1666 10.1526 43.1713Z" stroke="black" stroke-width="2"/>
</svg>
