<svg width="38" height="43" viewBox="0 0 38 43" fill="none" xmlns="http://www.w3.org/2000/svg">
<path d="M1.97916 0.408371C1.2279 0.727657 0.439077 1.66673 0.194918 2.54946C0.0822296 2.98143 0.00710377 6.32453 0.00710377 11.2828C0.00710377 19.9035 0.0258852 20.1101 0.983739 21.1243L1.39693 21.5563L0.908613 22.0822C0.645673 22.3639 0.34517 22.871 0.2137 23.2278C-0.068022 24.073 -0.068022 39.5677 0.194918 40.5631C0.457859 41.4646 1.2279 42.3849 2.01672 42.7042C2.91823 43.0986 34.6589 43.0986 35.5604 42.7042C36.3492 42.3849 37.1192 41.4646 37.3822 40.5631C37.6263 39.624 37.6263 24.3359 37.3822 23.3969C37.2695 23.0025 36.969 22.439 36.6873 22.1197L36.199 21.5375L36.5934 21.1243C37.5512 20.1101 37.57 19.8847 37.57 11.2828C37.57 6.32453 37.4949 2.98143 37.3822 2.54946C37.1192 1.64795 36.3492 0.727657 35.5604 0.408371C34.6777 0.0327415 2.82432 0.0327415 1.97916 0.408371ZM35.5416 2.0048L36.1614 2.54946L36.2177 10.7006C36.2553 16.0533 36.2177 19.0583 36.0675 19.5091C35.9736 19.9035 35.6543 20.3543 35.3538 20.5421C34.8655 20.8801 34.0954 20.8989 19.1454 20.9553C1.77256 21.0116 2.2421 21.0304 1.64109 19.866C1.34059 19.2649 1.32181 18.5325 1.35937 10.8884L1.41571 2.54946L2.0355 2.0048L2.63651 1.46013H18.7886H34.9406L35.5416 2.0048ZM34.9406 22.3639C35.3913 22.5141 35.7106 22.7959 35.936 23.2466C36.2365 23.8476 36.2553 24.5801 36.2177 32.2241L36.1614 40.5631L35.5416 41.1078L34.9406 41.6524H18.7886H2.63651L2.0355 41.1078L1.41571 40.5631L1.35937 32.2241C1.32181 24.5801 1.34059 23.8476 1.64109 23.2466C1.86647 22.7959 2.18575 22.5141 2.63651 22.3639C3.57558 22.0446 34.0015 22.0446 34.9406 22.3639Z" fill="#152532"/>
<path d="M4.58873 3.526C4.36335 3.60112 4.00651 3.92041 3.78113 4.20213C3.44306 4.6341 3.38672 4.95339 3.38672 6.51225C3.38672 9.68631 3.48063 9.72388 10.3546 9.72388C16.0454 9.72388 16.4398 9.64875 16.9845 8.50308C17.3601 7.71426 17.3789 5.44171 17.0221 4.55898C16.5337 3.39453 16.2332 3.33818 10.2983 3.35697C7.36839 3.35697 4.79533 3.43209 4.58873 3.526ZM15.7449 4.87826C16.1018 5.23511 16.0454 7.75182 15.6698 8.10867C15.4256 8.37161 14.6556 8.40918 10.2607 8.40918C6.542 8.40918 5.09583 8.35283 4.9268 8.1838C4.79533 8.05233 4.70142 7.39498 4.70142 6.53103C4.70142 5.66708 4.79533 5.00973 4.9268 4.87826C5.24608 4.55898 15.4256 4.55898 15.7449 4.87826Z" fill="#152532"/>
<path d="M24.703 3.60122C21.5853 4.35248 19.2752 6.8692 18.7869 10.062C18.3925 12.5412 19.3503 15.2269 21.2285 16.9173C24.7406 20.0538 30.2811 19.3964 32.8542 15.5274C33.9247 13.931 34.244 12.6914 34.1501 10.6818C34.0562 8.59709 33.3425 7.01945 31.8776 5.6484C29.8116 3.67635 27.2949 2.96266 24.703 3.60122ZM29.2294 5.31034C30.4502 5.91134 31.6146 7.05701 32.272 8.31537C32.7227 9.14175 32.7791 9.46104 32.7791 11.1326C32.7791 12.7102 32.7039 13.1422 32.3471 13.8747C31.7085 15.1894 30.7694 16.166 29.4547 16.8797C28.3466 17.4807 28.1588 17.5183 26.4873 17.5183C25.0035 17.5183 24.5528 17.4432 23.8203 17.0863C22.4305 16.3914 21.3036 15.2833 20.6275 13.9122C18.8808 10.3438 20.8716 6.00525 24.7782 4.89714C26.0553 4.5403 28.0274 4.72811 29.2294 5.31034Z" fill="#152532"/>
<path d="M27.3165 10.3062L25.1754 12.4285L24.3678 11.6397C23.4851 10.7757 22.8277 10.6255 22.6399 11.2453C22.5272 11.5646 22.7526 11.8838 23.6917 12.8417C24.349 13.499 25.0064 14.0437 25.1754 14.0437C25.3257 14.0437 26.6028 12.898 27.9926 11.5082C30.1525 9.34834 30.4906 8.91637 30.3215 8.63464C29.8896 7.95851 29.4951 8.16511 27.3165 10.3062Z" fill="#152532"/>
<path d="M3.93138 13.2735C3.4055 13.7994 3.38672 13.8933 3.38672 15.6212C3.38672 16.5979 3.48063 17.6308 3.6121 17.8938C4.06285 18.8704 4.4197 18.9268 10.2232 18.9268C13.247 18.9268 15.7825 18.8516 16.0454 18.7389C16.3084 18.645 16.7028 18.2882 16.9094 17.9501C17.2474 17.4242 17.3038 17.0862 17.2474 15.5837C17.1911 13.8558 17.1723 13.8182 16.5713 13.2735L15.9703 12.7289H10.2232H4.47604L3.93138 13.2735ZM15.7449 14.269C16.0642 14.5882 16.0454 17.1237 15.7073 17.4055C15.5383 17.5557 13.9043 17.6121 10.1293 17.5745L4.79533 17.5181L4.73898 16.0344C4.70142 15.208 4.7202 14.438 4.77655 14.2877C4.90802 13.9497 15.4068 13.9309 15.7449 14.269Z" fill="#152532"/>
<path d="M7.78401 24.5425C4.51603 26.0263 5.6617 30.947 9.26774 30.947C12.8174 30.947 13.8692 26.0075 10.6388 24.5425C9.66215 24.0918 8.76064 24.0918 7.78401 24.5425ZM10.7703 26.2517C11.9723 27.5851 11.052 29.6135 9.24896 29.6323C7.53985 29.6323 6.52565 27.6603 7.53985 26.3643C8.06573 25.6882 8.57283 25.4816 9.49312 25.5943C10.0378 25.6507 10.3946 25.8197 10.7703 26.2517Z" fill="#152532"/>
<path d="M18.9598 27.6789C18.7907 27.8855 18.7719 28.0545 18.9222 28.2799C19.0912 28.5616 19.8237 28.5992 26.2282 28.6556C30.1347 28.6743 33.5342 28.6556 33.7783 28.5992C34.1164 28.5053 34.2103 28.3926 34.1539 27.9794L34.0976 27.4723L26.6601 27.416C20.0303 27.3784 19.1851 27.416 18.9598 27.6789Z" fill="#152532"/>
<path d="M18.9598 31.0598C18.7907 31.2664 18.7719 31.4354 18.9222 31.6608C19.0912 31.9425 19.8237 31.9801 26.2282 32.0364C30.1347 32.0552 33.5342 32.0364 33.7783 31.9801C34.1164 31.8862 34.2103 31.7735 34.1539 31.3603L34.0976 30.8532L26.6601 30.7968C20.0303 30.7593 19.1851 30.7968 18.9598 31.0598Z" fill="#152532"/>
<path d="M5.45268 32.656C4.85167 32.9002 3.98773 33.7078 3.64966 34.3651C3.46184 34.722 3.38672 35.5671 3.38672 37.2011C3.38672 39.1732 3.44306 39.5676 3.68722 39.6615C4.17554 39.8493 14.5429 39.793 14.8434 39.5864C15.2566 39.3234 15.2378 35.2103 14.8058 34.4215C14.4114 33.689 13.5663 32.9002 12.9089 32.656C12.2328 32.3931 6.09125 32.4118 5.45268 32.656ZM12.6648 33.9895C13.5099 34.3651 13.7916 35.0225 13.8668 36.8067L13.9419 38.4595H9.32166H4.70142V36.7504C4.70142 35.06 4.70142 35.0412 5.33999 34.4027L5.97856 33.7641H9.09628C11.0308 33.7641 12.383 33.8392 12.6648 33.9895Z" fill="#152532"/>
<path d="M18.9598 34.4403C18.7907 34.6469 18.7719 34.8159 18.9222 35.0413C19.0912 35.323 19.8237 35.3606 26.6038 35.3606H34.0976L34.1539 34.9098C34.1915 34.6657 34.1164 34.384 33.9661 34.3088C33.8347 34.2149 30.454 34.1398 26.4723 34.1398C20.0679 34.1398 19.1851 34.1774 18.9598 34.4403Z" fill="#152532"/>
<path d="M18.9598 37.8209C18.7907 38.0275 18.7719 38.1965 18.9222 38.4219C19.0912 38.7036 19.8237 38.7412 26.6038 38.7412H34.0976L34.1539 38.2905C34.1915 38.0463 34.1164 37.7646 33.9661 37.6894C33.8347 37.5955 30.454 37.5204 26.4723 37.5204C20.0679 37.5204 19.1851 37.558 18.9598 37.8209Z" fill="#152532"/>
</svg>
