<svg width="20" height="20" viewBox="0 0 20 20" fill="none" xmlns="http://www.w3.org/2000/svg">
<g clip-path="url(#clip0_853_7874)">
<path d="M19.1906 10.1871C19.1906 9.36773 19.1253 8.7698 18.9839 8.14972H9.79102V11.848H15.187C15.0783 12.7671 14.4908 14.1512 13.1853 15.0813L13.167 15.2051L16.0736 17.497L16.275 17.5174C18.1244 15.779 19.1906 13.2211 19.1906 10.1871Z" fill="#4285F4"/>
<path d="M9.7918 19.9313C12.4354 19.9313 14.6547 19.0454 16.2758 17.5174L13.1861 15.0813C12.3593 15.6682 11.2496 16.0779 9.7918 16.0779C7.20257 16.0779 5.005 14.3395 4.22162 11.9366L4.1068 11.9466L1.08445 14.3273L1.04492 14.4391C2.65502 17.6945 5.9623 19.9313 9.7918 19.9313Z" fill="#34A853"/>
<path d="M4.22108 11.9366C4.01438 11.3166 3.89475 10.6521 3.89475 9.96565C3.89475 9.27909 4.01438 8.61473 4.2102 7.99466L4.20473 7.8626L1.1445 5.44366L1.04438 5.49214C0.380775 6.84305 0 8.36008 0 9.96565C0 11.5712 0.380775 13.0882 1.04438 14.4391L4.22108 11.9366Z" fill="#FBBC05"/>
<path d="M9.7918 3.85336C11.6303 3.85336 12.8705 4.66168 13.5777 5.33718L16.341 2.59107C14.6439 0.985496 12.4354 0 9.7918 0C5.9623 0 2.65502 2.23672 1.04492 5.49214L4.21075 7.99466C5.005 5.59183 7.20257 3.85336 9.7918 3.85336Z" fill="#EB4335"/>
</g>
<defs>
<clipPath id="clip0_853_7874">
<rect width="19.2" height="20" fill="white"/>
</clipPath>
</defs>
</svg>
