<svg width="18" height="18" viewBox="0 0 18 18" fill="none" xmlns="http://www.w3.org/2000/svg">
<g clip-path="url(#clip0_691_3990)">
<path d="M12.8061 0.000488281H5.19397C3.81642 0.000488281 2.49533 0.547698 1.52127 1.52176C0.54722 2.49581 0 3.81691 0 5.19446V12.8065C0 14.184 0.54722 15.5052 1.52127 16.4792C2.49533 17.4533 3.81642 18.0005 5.19397 18.0005H12.8061C14.1835 18.0005 15.5047 17.4533 16.4788 16.4792C17.4528 15.5052 18 14.184 18 12.8065V5.19844C18 3.82091 17.4528 2.4998 16.4788 1.52576C15.5047 0.551699 14.1835 0.00448823 12.8061 0.00448823V0.000488281ZM16.3459 12.9484C16.3446 13.8631 15.9802 14.7399 15.3327 15.3861C14.6852 16.0323 13.8077 16.3949 12.8929 16.3944H5.10202C4.18714 16.3941 3.30978 16.0305 2.66284 15.3836C2.0159 14.7366 1.65234 13.8593 1.65208 12.9444V5.15351C1.65208 4.23848 2.01555 3.36097 2.66254 2.71397C3.30955 2.06698 4.18706 1.7035 5.10202 1.7035H12.8929C13.3461 1.70337 13.7948 1.79251 14.2135 1.96583C14.6322 2.13915 15.0127 2.39325 15.3331 2.71362C15.6535 3.034 15.9078 3.41436 16.0812 3.833C16.2547 4.25163 16.3439 4.70036 16.3439 5.15351L16.3459 12.9484Z" fill="#99AAAD"/>
<path d="M8.99765 4.37646C8.07365 4.37667 7.17035 4.65084 6.40209 5.16444C5.63379 5.67796 5.03506 6.40779 4.68159 7.2616C4.32806 8.1154 4.23567 9.0549 4.41607 9.9612C4.59646 10.8675 5.04159 11.7 5.69506 12.3533C6.34861 13.0067 7.18115 13.4516 8.08745 13.6319C8.99385 13.8121 9.93335 13.7195 10.7871 13.3658C11.6408 13.0121 12.3706 12.4132 12.8839 11.6448C13.3973 10.8764 13.6713 9.9731 13.6713 9.049C13.6713 8.4353 13.5505 7.82761 13.3156 7.2607C13.0807 6.6937 12.7364 6.1786 12.3024 5.74465C11.8684 5.31077 11.3532 4.96659 10.7862 4.73184C10.2192 4.4971 9.61145 4.37634 8.99765 4.37646ZM8.99765 12.0775C8.39885 12.0773 7.81335 11.8995 7.31545 11.5666C6.81759 11.2337 6.42954 10.7606 6.20049 10.2073C5.97144 9.6539 5.91159 9.045 6.02859 8.4576C6.14551 7.8702 6.43404 7.33071 6.85764 6.90722C7.28125 6.48377 7.82075 6.19546 8.40825 6.07869C8.99565 5.96191 9.60455 6.02192 10.1579 6.2512C10.7113 6.4804 11.1842 6.86859 11.5169 7.3666C11.8496 7.8646 12.0272 8.4501 12.0272 9.049C12.0272 9.4468 11.9488 9.84071 11.7966 10.2082C11.6443 10.5757 11.4212 10.9096 11.1399 11.1908C10.8586 11.4721 10.5246 11.6951 10.157 11.8472C9.78935 11.9994 9.39545 12.0776 8.99765 12.0775Z" fill="#99AAAD"/>
<path d="M13.828 3.10938C13.6126 3.10918 13.402 3.17286 13.2229 3.29238C13.0437 3.41189 12.904 3.58185 12.8215 3.78078C12.7389 3.9797 12.7172 4.19864 12.7591 4.4099C12.801 4.62118 12.9046 4.81521 13.0568 4.96761C13.2091 5.11993 13.403 5.22373 13.6142 5.26588C13.8255 5.30796 14.0444 5.28643 14.2434 5.20408C14.4424 5.12166 14.6125 4.98216 14.7322 4.80306C14.8519 4.62403 14.9158 4.41348 14.9158 4.19811C14.9158 3.90953 14.8012 3.63276 14.5972 3.42861C14.3932 3.22446 14.1166 3.10965 13.828 3.10938Z" fill="#99AAAD"/>
</g>
<defs>
<clipPath id="clip0_691_3990">
<rect width="18" height="18.0005" fill="white"/>
</clipPath>
</defs>
</svg>
