<svg width="18" height="18" viewBox="0 0 18 18" fill="none" xmlns="http://www.w3.org/2000/svg">
<g clip-path="url(#clip0_691_4002)">
<path d="M16.7019 0H1.29817C0.581175 0 0 0.581166 0 1.29815V16.7015C0 17.4186 0.581175 17.9998 1.29817 17.9998H16.7019C17.4188 17.9998 18 17.4186 18 16.7015V1.29815C18 0.581166 17.4188 0 16.7019 0ZM6.38468 13.6053H4.1928V7.01094H6.38468V13.6053ZM5.28885 6.11052H5.27453C4.539 6.11052 4.06329 5.60422 4.06329 4.97137C4.06329 4.32429 4.55355 3.83197 5.3034 3.83197C6.05318 3.83197 6.51465 4.32429 6.5289 4.97137C6.5289 5.60422 6.05317 6.11052 5.28885 6.11052ZM14.2883 13.6053H12.0966V10.0774C12.0966 9.19093 11.7793 8.58625 10.9862 8.58625C10.3807 8.58625 10.02 8.99406 9.86164 9.3878C9.80359 9.52865 9.78953 9.72563 9.78953 9.92273V13.6053H7.59769C7.59769 13.6053 7.62649 7.62968 7.59769 7.01094H9.78953V7.94467C10.0808 7.49536 10.6019 6.85614 11.7649 6.85614C13.2069 6.85614 14.2883 7.79865 14.2883 9.82407V13.6053Z" fill="#99AAAD"/>
</g>
<defs>
<clipPath id="clip0_691_4002">
<rect width="18" height="18" fill="white"/>
</clipPath>
</defs>
</svg>
