<svg width="17" height="18" viewBox="0 0 17 18" fill="none" xmlns="http://www.w3.org/2000/svg">
<g clip-path="url(#clip0_691_4012)">
<path d="M0.993164 14.2528L1.04923 14.4135C1.04246 14.3953 1.0212 14.3427 0.993164 14.2528ZM3.28684 10.5851C3.3893 9.7149 3.73534 9.2292 4.38584 8.7291C5.31862 8.0541 6.48134 8.4357 6.48134 8.4357V6.16669C6.76402 6.15979 7.0467 6.17741 7.3261 6.21926V9.1384C7.3261 9.1384 6.16627 8.7559 5.23064 9.432C4.58009 9.932 4.23409 10.4178 4.13164 11.2878C4.13164 11.7602 4.21282 12.3788 4.60814 12.9133C4.51147 12.8607 4.41484 12.8014 4.30755 12.7345C3.44247 12.1302 3.28298 11.2247 3.28684 10.5851ZM12.1348 1.97207C11.6327 1.41657 11.2964 0.733998 11.1634 0.000488281H11.9696C11.9696 0.000488281 11.8101 1.34961 12.9787 2.6777L12.9961 2.69492C12.6793 2.49156 12.3897 2.24968 12.1339 1.97494L12.1348 1.97207ZM16.0186 4.02779V6.88474C16.0186 6.88474 14.9901 6.84266 14.2275 6.64384C13.615 6.48919 13.0274 6.25031 12.4819 5.93434C12.4819 5.93434 12.0082 5.62646 11.9725 5.60546V11.5135C11.9529 12.1396 11.8338 12.7588 11.6197 13.3483C11.1114 14.6472 10.1129 15.7 8.835 16.2846C8.1375 16.6008 7.3791 16.764 6.61184 16.7628C5.54992 16.7598 4.51147 16.4526 3.62225 15.8783C3.31528 15.6688 3.02887 15.4313 2.76683 15.1689L2.7736 15.1755C3.66257 15.7539 4.70309 16.0626 5.76704 16.0638C6.53429 16.065 7.2927 15.9019 7.9902 15.5857C8.6749 15.2667 9.287 14.8132 9.789 14.2528C10.2061 13.7768 10.5382 13.2339 10.771 12.6474C10.9854 12.0579 11.1048 11.4388 11.1248 10.8126V4.90841C11.1634 4.92941 11.6332 5.23729 11.6332 5.23729C12.1791 5.55266 12.7666 5.79139 13.3789 5.94679C14.1424 6.14569 15.1708 6.18776 15.1708 6.18776V3.94747C15.4475 4.01776 15.7335 4.04486 16.0186 4.02779Z" fill="#99AAAD"/>
<path d="M15.1347 3.89866V6.11336C15.1347 6.11336 14.0915 6.07271 13.3169 5.87516C12.6956 5.72209 12.0996 5.48599 11.5462 5.17376C11.5462 5.17376 11.0657 4.86941 11.0304 4.84864V10.6893C11.0101 11.3083 10.889 11.9204 10.6716 12.5031C10.4354 13.0829 10.0985 13.6196 9.6754 14.0902C9.165 14.6446 8.5429 15.093 7.8468 15.4079C7.1392 15.7205 6.36996 15.8817 5.59169 15.8805C4.51439 15.8776 3.46109 15.5739 2.55905 15.0062L2.55219 14.9995C2.40131 14.8525 2.25893 14.6976 2.12568 14.5354C1.78646 14.1028 1.5137 13.6253 1.3158 13.1176C1.20109 12.7887 0.963808 11.9937 0.996168 11.2271C1.05401 9.8763 1.5266 9.0436 1.65211 8.8356C1.98429 8.2689 2.4155 7.7617 2.92673 7.3365C3.37787 6.96964 3.88913 6.67766 4.43962 6.47254C5.03504 6.23194 5.67269 6.10361 6.31821 6.09446V8.3356C6.31821 8.3356 5.14161 7.9575 4.19253 8.6258C3.53267 9.1202 3.18166 9.6003 3.07772 10.4615C3.07772 11.0938 3.23558 11.9889 4.11704 12.5863C4.22097 12.6525 4.32098 12.7111 4.42196 12.7631C4.57671 12.9646 4.76414 13.1408 4.97691 13.2849C5.84174 13.8341 6.56136 13.8719 7.4869 13.5165C8.1027 13.2773 8.5655 12.7423 8.7802 12.144C8.9165 11.7659 8.9136 11.3982 8.9136 11.0097V0.000488281H11.0638C11.1973 0.726228 11.539 1.40143 12.0501 1.94957C12.3109 2.21986 12.6046 2.45883 12.9247 2.66134C13.2706 3.01929 13.6767 3.31841 14.1258 3.54608C14.4458 3.70157 14.7838 3.81992 15.1327 3.89866H15.1347Z" fill="#99AAAD"/>
<path d="M0.663086 15.3192L0.722506 15.4908C0.715336 15.4714 0.692796 15.4152 0.663086 15.3192ZM3.09381 11.4007C3.20239 10.4711 3.5691 9.9523 4.25847 9.418C5.24694 8.6968 6.47919 9.1044 6.47919 9.1044V6.6804C6.77866 6.67305 7.07822 6.69187 7.37442 6.73657V9.8552C7.37442 9.8552 6.14529 9.4466 5.15371 10.1688C4.46436 10.703 4.09764 11.2219 3.98907 12.1515C3.98907 12.6562 4.07511 13.3171 4.49406 13.888C4.39163 13.8319 4.28919 13.7686 4.17549 13.697C3.25872 13.0514 3.08971 12.0841 3.09381 11.4007ZM12.4705 2.1991C11.9383 1.60564 11.5819 0.876423 11.441 0.0927734H12.2953C12.2953 0.0927734 12.1263 1.5341 13.3647 2.95296L13.3831 2.97135C13.0474 2.7541 12.7405 2.49568 12.4694 2.20216L12.4705 2.1991ZM16.5862 4.39531V7.4475C16.5862 7.4475 15.4963 7.4026 14.6881 7.1901C14.0389 7.0249 13.4163 6.7698 12.8382 6.43215C12.8382 6.43215 12.3362 6.10327 12.2983 6.08077V12.3926C12.2776 13.0615 12.1514 13.7231 11.9245 14.3528C11.3858 15.7405 10.3277 16.8652 8.97342 17.4898C8.23422 17.8276 7.43052 18.0019 6.61749 18.0006C5.49204 17.9975 4.39163 17.6693 3.44925 17.0558C3.12393 16.832 2.82043 16.5781 2.54273 16.2978L2.5499 16.3049C3.49198 16.9228 4.59466 17.2527 5.72221 17.2539C6.53529 17.2552 7.33902 17.0809 8.07822 16.7432C8.80382 16.4023 9.45242 15.9178 9.98442 15.3192C10.4265 14.8105 10.7784 14.2306 11.0251 13.6041C11.2522 12.9743 11.3788 12.3128 11.4 11.6438V5.3361C11.441 5.3586 11.9388 5.68747 11.9388 5.68747C12.5173 6.02437 13.1398 6.27945 13.7887 6.44542C14.5979 6.6579 15.6878 6.7029 15.6878 6.7029V4.30951C15.981 4.3846 16.2841 4.41355 16.5862 4.39531Z" fill="#99AAAD"/>
<path d="M15.688 4.30542V6.69877C15.688 6.69877 14.5981 6.65482 13.7888 6.44137C13.1398 6.27592 12.5171 6.02085 11.939 5.68342C11.939 5.68342 11.4371 5.35447 11.4002 5.33205V11.6438C11.3789 12.3128 11.2524 12.9742 11.0252 13.6041C10.7786 14.2306 10.4266 14.8105 9.98446 15.3192C9.45136 15.9183 8.80126 16.4028 8.07416 16.7431C7.33496 17.0809 6.53127 17.2552 5.71819 17.2539C4.59274 17.2507 3.49234 16.9226 2.54997 16.309L2.5428 16.3018C2.38518 16.1429 2.23643 15.9754 2.09722 15.8003C1.74283 15.3328 1.45787 14.8167 1.25113 14.2681C1.13128 13.9126 0.883399 13.0535 0.917199 12.2251C0.977639 10.7653 1.47136 9.8654 1.60247 9.6406C1.9495 9.0282 2.4 8.4802 2.93409 8.0206C3.4054 7.6242 3.93952 7.3087 4.51459 7.087C5.13664 6.82695 5.80287 6.6882 6.47719 6.67837V9.1003C6.47719 9.1003 5.24802 8.6917 4.25649 9.4139C3.56712 9.9481 3.20041 10.4671 3.09184 11.3977C3.09184 12.081 3.25675 13.0484 4.17762 13.6939C4.2862 13.7655 4.39067 13.8288 4.49618 13.885C4.65784 14.1028 4.85359 14.2931 5.07597 14.4488C5.97942 15.0424 6.73122 15.0832 7.69816 14.6991C8.34146 14.4406 8.82496 13.8625 9.04936 13.2159C9.19166 12.8073 9.18856 12.4099 9.18856 11.9901V0.0927734H11.435C11.5745 0.877073 11.9315 1.60673 12.4655 2.1991C12.7379 2.49118 13.0447 2.74945 13.3791 2.96828C13.7405 3.35512 14.1647 3.67836 14.6339 3.9244C14.9683 4.09243 15.3214 4.22033 15.6859 4.30542H15.688Z" fill="#99AAAD"/>
</g>
<defs>
<clipPath id="clip0_691_4012">
<rect width="17" height="18.0006" fill="white"/>
</clipPath>
</defs>
</svg>
