<svg width="512" height="512" viewBox="0 0 512 512" fill="none" xmlns="http://www.w3.org/2000/svg">
<path d="M364.946 50.0584C318.634 49.137 270.822 59.1072 220.51 80.7722C152.337 110.092 93.4122 152.855 47.8043 213.975C25.807 243.461 9.01368 275.781 2.49177 312.874C-4.03014 349.967 1.81004 385.028 26.6706 414.324C47.4634 438.824 74.8009 451.322 105.002 457.748C148.019 466.915 190.673 463.04 232.758 451.913C311.612 431.027 380.172 390.816 437.437 330.593C469.706 296.666 495.248 258.038 507.088 211.164C524.813 140.995 493.453 82.3551 426.939 60.2648C406.899 53.5839 385.991 50.1417 364.946 50.0584Z" fill="#FEFEFE"/>
<path d="M364.946 50.0584C385.996 50.124 406.905 53.5504 426.955 60.2177C493.492 82.308 524.852 140.948 507.104 211.117C495.264 257.991 469.722 296.619 437.454 330.546C380.188 390.769 311.628 430.98 232.775 451.865C190.712 462.993 148.058 466.868 105.018 457.701C74.8172 451.275 47.4797 438.8 26.6868 414.277C1.8263 384.98 -4.10477 350.274 2.50803 312.827C9.12084 275.379 25.846 243.414 47.8205 213.928C93.4057 152.808 152.353 109.974 220.526 80.725C270.77 59.0836 318.589 49.137 364.946 50.0584ZM295.653 292.981C296.719 294.026 297.714 295.147 298.63 296.336C310.969 315.685 322.377 335.602 336.375 353.889C345.079 365.276 353.691 369.222 366.053 362.087C374.933 356.675 383.465 350.67 391.596 344.107C398.64 338.697 393.868 334.208 391.368 329.932C387.914 323.907 385.665 330.452 382.983 331.538C381.423 332.474 379.954 333.566 378.597 334.799C365.94 343.257 360.418 342.123 351.782 329.27C349.852 326.431 348.128 323.446 346.624 320.34C340.511 307.369 335.262 293.926 328.444 281.404C323.9 273.277 326.013 268.244 331.83 262.716C344.42 250.903 355.396 237.294 366.553 223.969C376.211 212.44 383.415 199.02 392.8 187.444C395.989 183.619 398.352 179.129 399.732 174.275C401.112 169.422 401.476 164.317 400.799 159.305C400.504 156.21 399.504 152.524 395.322 153.139C385.596 154.533 376.87 159.045 368.189 163.487C364.758 165.235 362.986 168.874 365.303 172.205C370.985 180.285 367.076 186.995 362.917 193.468C346.218 219.195 327.195 243.206 306.106 265.173C304.379 266.945 302.766 270.064 299.789 268.433C296.426 266.591 298.062 263.236 298.675 260.519C304.107 237.129 308.174 213.385 315.355 190.444C316.257 187.497 316.474 184.369 315.988 181.317C315.502 178.266 314.328 175.378 312.56 172.89C312.147 171.896 311.389 171.101 310.437 170.663C309.485 170.226 308.409 170.177 307.424 170.527C301.74 171.953 296.6 175.125 292.673 179.629C288.745 184.134 286.213 189.762 285.404 195.784C284.177 206.415 282.905 217.047 282.087 227.726C280.723 245.469 279.155 263.354 277.155 280.861C274.36 305.432 270.952 329.932 269.634 354.668C269.384 359.393 268.702 364.473 276.246 364.473C282.541 364.473 287.609 364.473 287.609 355.897C287.609 344.934 289.381 334.066 289.881 323.104C289.939 312.772 291.898 302.547 295.653 292.981ZM154.762 168.448C154.762 162.707 154.989 158.738 153.285 154.911C152.85 153.48 151.891 152.284 150.616 151.581C149.341 150.878 147.85 150.725 146.467 151.154C133.378 153.824 127.401 161.431 123.743 175.087C119.198 191.956 123.925 208.329 125.106 224.702C125.943 239.794 127.521 254.832 129.833 269.756C134.037 294.257 137.968 318.639 147.717 341.603C150.603 348.407 154.125 355.59 147.013 362.654C144.399 365.229 145.717 369.222 147.694 372.317C148.645 373.928 150.039 375.206 151.696 375.985C153.353 376.765 155.197 377.009 156.989 376.688C163.442 376.002 185.031 356.676 186.53 350.061C186.832 349.045 186.832 347.958 186.53 346.943C184.758 342.69 186.53 339.288 188.417 335.626C206.869 298.816 223.094 261.015 234.274 221.087C236.842 211.944 237.251 202.186 238.319 192.547C239.069 185.955 236.047 184.868 230.343 186.782C225.99 187.985 222.072 190.492 219.079 193.991C216.085 197.49 214.146 201.827 213.504 206.462C211.686 215.653 212.459 225.363 209.755 234.105C201.006 262.716 188.826 289.862 175.827 316.607C174.613 319.272 173.086 321.772 171.282 324.049C169.01 326.813 166.578 327.475 165.442 322.726C163.511 314.693 160.397 306.826 159.602 298.698C157.171 274.316 152.171 250.194 151.898 225.458C151.898 216.693 150.149 207.667 151.648 199.233C153.603 188.483 152.762 177.45 154.875 168.448H154.762Z" fill="#EC5236"/>
<path d="M295.653 292.981C291.927 302.537 289.998 312.743 289.956 323.054C289.524 334.04 287.684 344.884 287.684 355.847C287.684 364.47 282.594 364.423 276.322 364.423C268.777 364.423 269.504 359.32 269.709 354.618C271.027 329.882 274.435 305.382 277.231 280.811C279.23 263.328 280.798 245.372 282.162 227.676C282.98 216.997 284.252 206.413 285.48 195.734C286.254 189.716 288.75 184.079 292.644 179.554C296.539 175.029 301.651 171.826 307.318 170.359C308.303 170.009 309.378 170.057 310.33 170.495C311.282 170.933 312.04 171.728 312.453 172.722C314.221 175.21 315.396 178.098 315.882 181.149C316.368 184.201 316.151 187.329 315.249 190.276C308.068 213.217 304 236.961 298.569 260.351C297.933 263.068 296.296 266.423 299.682 268.265C302.659 269.896 304.227 266.777 306 265.005C327.088 243.038 346.112 219.027 362.811 193.3C366.969 186.945 370.878 180.235 365.197 172.037C362.924 168.729 364.651 165.091 368.083 163.319C376.763 158.877 385.467 154.341 395.216 152.971C399.397 152.38 400.397 156.042 400.692 159.137C401.369 164.149 401.005 169.254 399.625 174.107C398.246 178.961 395.882 183.451 392.693 187.276C383.308 198.852 376.104 212.272 366.447 223.801C355.289 237.126 344.313 250.64 331.724 262.548C325.906 268.076 323.884 273.109 328.338 281.236C335.155 293.758 340.518 307.225 346.517 320.172C348.021 323.278 349.745 326.263 351.676 329.102C360.22 341.955 365.833 343.112 378.491 334.631C379.847 333.398 381.316 332.306 382.876 331.37C385.558 330.307 387.808 323.739 391.262 329.764C393.761 334.135 398.533 338.6 391.489 343.939C383.359 350.502 374.827 356.507 365.947 361.919C353.585 369.007 344.972 365.108 336.269 353.721C322.293 335.434 310.863 315.517 298.523 296.168C297.638 295.039 296.675 293.977 295.653 292.981Z" fill="#FEFEFE"/>
<path d="M153.222 183.934C153.507 178.432 153.77 173.169 154.875 168.448L154.887 168.329C155 162.653 155.078 158.713 153.408 155.029C152.973 153.598 152.015 152.402 150.739 151.699C149.464 150.997 147.974 150.843 146.59 151.273C133.524 153.942 127.547 161.55 123.866 175.206C120.57 187.475 122.151 199.458 123.719 211.345C124.313 215.847 124.905 220.336 125.23 224.82C125.677 232.899 126.338 240.963 127.209 249.002C127.036 248.558 126.869 248.125 126.706 247.706C129.219 280.627 136.224 345.299 145.713 366.957C145.87 368.794 146.743 370.741 147.818 372.436C148.769 374.047 150.163 375.325 151.819 376.104C153.476 376.883 155.32 377.128 157.112 376.806C163.543 376.168 185.131 356.795 186.654 350.18C186.955 349.164 186.955 348.077 186.654 347.061C184.923 342.932 186.616 339.568 188.41 336.002C188.453 335.916 188.497 335.83 188.54 335.744C206.992 298.935 223.24 261.134 234.398 221.206C236.337 214.238 237.049 206.803 237.751 199.478C237.97 197.19 238.188 194.914 238.443 192.665C239.17 186.074 236.17 184.963 230.466 186.901C226.113 188.104 222.196 190.611 219.202 194.11C216.208 197.609 214.27 201.946 213.628 206.581C212.853 210.496 212.549 214.483 212.246 218.456C211.837 223.81 211.43 229.138 209.878 234.224C201.129 262.835 188.949 289.981 175.95 316.725C174.736 319.391 173.209 321.891 171.406 324.168C169.088 326.932 166.724 327.57 165.565 322.845C164.913 320.141 164.129 317.45 163.345 314.759C161.806 309.48 160.267 304.2 159.725 298.817C158.866 290.161 157.687 281.555 156.508 272.958C154.351 257.221 152.198 241.512 152.022 225.576C151.991 222.666 151.788 219.727 151.585 216.79C151.177 210.883 150.77 204.985 151.772 199.352C152.693 194.168 152.963 188.952 153.222 183.934Z" fill="#FEFEFE"/>
<path d="M177.233 362.167C192.987 350.083 213.336 289.999 221.541 261.468L201.849 286.643L192.003 326.922L177.233 362.167Z" fill="#FEFEFE"/>
</svg>
