<svg width="31" height="41" viewBox="0 0 31 41" fill="none" xmlns="http://www.w3.org/2000/svg">
<path d="M11.0525 0.500286C10.3472 0.753752 9.80719 1.20558 8.92517 2.297C7.90028 3.5533 7.52559 3.81779 5.88317 4.47941C3.62361 5.38308 3.21586 5.96756 2.98443 8.59037C2.83015 10.4422 2.74199 10.6846 1.78323 12.1944C0.493858 14.2446 0.526918 15.0821 1.98159 17.3747C2.74199 18.5764 2.89627 19.0943 3.02852 20.7914C3.22688 23.2714 3.66769 23.8665 5.90521 24.7595C7.64682 25.4428 7.84518 25.5861 9.49822 27.526C9.81781 27.9007 10.3137 28.3195 10.6553 28.5068C11.4488 28.9366 12.4521 28.9476 13.9508 28.5289C15.2622 28.1542 16.0671 28.1542 17.4557 28.4958C19.032 28.8815 19.3075 28.9146 19.9577 28.7823C20.8066 28.606 21.4238 28.1432 22.4266 26.9199C23.3968 25.7293 23.9147 25.3436 25.2262 24.8257C26.5931 24.2857 27.1216 23.9771 27.5518 23.4812C28.0918 22.853 28.2682 22.2245 28.3894 20.5604C28.4996 18.9184 28.6318 18.4882 29.3371 17.3972C30.2077 16.0527 30.4832 15.3801 30.4832 14.5646C30.4832 13.7491 30.2738 13.2201 29.4473 11.9413C28.6208 10.663 28.4996 10.3099 28.3784 8.74507C28.158 5.93449 27.7502 5.35042 25.4135 4.42431C23.8486 3.80718 23.3633 3.45453 22.2833 2.15373C21.5119 1.21701 21.2474 0.974564 20.6634 0.68763C19.7817 0.24682 19.1646 0.24682 17.434 0.676611C15.7916 1.08436 15.4279 1.08436 13.7859 0.676611C12.3529 0.312943 11.6917 0.279881 11.0525 0.500286ZM18.4699 4.31411C22.107 5.37206 24.8074 8.03936 25.9319 11.6658C26.2074 12.5585 26.2294 12.7899 26.2294 14.5646C26.2404 16.2511 26.2074 16.6037 25.987 17.3641C24.8849 21.1886 21.9307 24.0322 18.0732 25.0024C16.9051 25.2889 14.4141 25.2669 13.1353 24.9473C11.2725 24.4844 9.53128 23.4922 8.16436 22.1147C4.52768 18.4772 3.9983 12.7679 6.91907 8.51323C8.26354 6.56224 10.6553 4.89818 12.9259 4.32513C14.2043 3.99452 14.2043 3.99452 15.99 4.0386C17.2908 4.06064 17.8197 4.11575 18.4699 4.31411Z" fill="#1F4497"/>
<path d="M13.9536 6.0213C9.35736 6.95843 6.26026 11.4331 7.05372 15.9852C7.40636 17.9693 8.24431 19.5452 9.69899 20.9231C11.5949 22.7309 14.1299 23.6015 16.6315 23.2929C19.7066 22.9072 22.1425 21.1986 23.4869 18.4762C24.2143 17.0211 24.3686 16.3269 24.3686 14.5636C24.3686 12.5575 23.9939 11.3122 22.9359 9.7139C21.0184 6.82619 17.3593 5.32703 13.9536 6.0213Z" fill="#3CACE4"/>
<path d="M7.18119 29.8511C5.11999 35.6266 4.27143 38.0955 4.33756 38.1286C4.38164 38.1396 5.40652 37.9743 6.61915 37.7649L8.82361 37.3792L10.3118 38.8673L11.7999 40.3555L13.5525 35.3845C14.5113 32.6621 15.2721 30.4026 15.239 30.3695C15.206 30.3364 14.5227 30.2372 13.7178 30.1491C12.9244 30.0719 11.9652 29.9397 11.6015 29.8736C10.9734 29.7634 9.27585 28.992 8.31709 28.3854C8.08566 28.2422 7.87628 28.121 7.84322 28.121C7.82077 28.121 7.52322 28.9034 7.18119 29.8511Z" fill="#1F4497"/>
<path d="M22.2226 28.8486C20.5145 29.8074 20.0075 29.9396 17.1749 30.2045C16.6129 30.2486 16.128 30.3147 16.106 30.3478C16.0619 30.3809 19.0488 38.9889 19.5337 40.2452C19.5777 40.3664 20.0185 39.9697 21.0438 38.9003L22.4985 37.3795L24.7581 37.7652C25.9927 37.9746 27.0287 38.1289 27.0507 38.1069C27.0948 38.0518 23.6667 28.3086 23.5679 28.2095C23.5234 28.1764 22.9173 28.4629 22.2226 28.8486Z" fill="#1F4497"/>
</svg>
