<svg width="45" height="41" viewBox="0 0 45 41" fill="none" xmlns="http://www.w3.org/2000/svg">
<path d="M35.1347 21.8717C29.9643 21.8717 25.8821 25.9539 25.8821 31.1243C25.8821 36.2948 29.9643 40.377 35.1347 40.377C40.3052 40.377 44.3829 36.2903 44.3829 31.1199C44.3829 25.9494 40.3008 21.8717 35.1347 21.8717ZM40.5762 32.7545H37.0403V36.5657H33.7755V32.7545H29.9643V29.4897H33.7755V25.9539H37.0403V29.4897H40.5762V32.7545ZM34.8593 18.3359C36.7649 18.3359 38.6706 18.8822 40.3008 19.4241V2.82448C40.0298 1.46524 38.9415 0.376953 37.5778 0.376953H6.02202V5.54741H2.21081C1.66444 5.54741 0.851562 6.08933 0.851562 6.90666V9.62959C0.851562 10.4469 1.66889 10.9888 2.21081 10.9888H6.02202V13.7118H2.21081C1.66444 13.4408 0.851562 13.9827 0.851562 14.8001V17.523C0.851562 18.3403 1.66889 18.8822 2.21081 18.8822H6.02202V21.6007H2.21081C1.66444 21.3298 0.851562 21.8717 0.851562 22.689V25.4119C0.851562 26.2293 1.66889 26.7712 2.21081 26.7712H6.02202V29.4941H2.21081C1.66444 29.2231 0.851562 29.7651 0.851562 30.3114V33.0344C0.851562 33.8517 1.66889 34.3936 2.21081 34.3936H6.02202V39.5641H25.3402C23.1636 37.3875 22.0753 34.3936 22.0753 31.1288C22.0753 24.0482 27.7877 18.3359 34.8593 18.3359ZM13.911 37.1077H8.74051V34.3847H10.0998C10.9171 34.3847 11.188 33.8384 11.188 33.0255V30.3025C11.188 29.4852 10.6417 28.9433 10.0998 28.9433H8.74051V26.2204H10.0998C10.9171 26.2204 11.188 25.674 11.188 24.8611V22.1382C11.188 21.3209 10.6417 20.779 10.0998 20.779H8.74051V18.056H10.0998C10.9171 18.056 11.188 17.5141 11.188 16.6968V13.9738C11.188 13.1565 10.6417 12.6146 10.0998 12.6146H8.74051V9.89167H10.0998C10.9171 9.89167 11.188 9.34975 11.188 8.53242V5.80949C11.188 4.99217 10.6417 4.45025 10.0998 4.45025H8.74051V3.091H13.911V37.1077Z" fill="#1F4497"/>
</svg>
