<svg width="41" height="40" viewBox="0 0 41 40" fill="none" xmlns="http://www.w3.org/2000/svg">
<path d="M11.4534 19.6947C14.061 13.6716 20.0562 9.45778 27.038 9.45778C30.4334 9.45778 33.5945 10.4548 36.2474 12.1717C36.2517 12.0697 36.2544 11.9686 36.2544 11.8658C36.2544 7.68597 32.8659 4.30097 28.6887 4.30097C27.1792 4.30097 25.7743 4.74806 24.5942 5.51064C23.28 2.27903 20.1129 0 16.4106 0C12.304 0 8.86149 2.80456 7.86708 6.59918C7.66837 6.58175 7.46531 6.56868 7.25876 6.56868C3.63235 6.56868 0.695312 9.50832 0.695312 13.1347C0.695312 16.7594 3.63235 19.6973 7.25876 19.6973C7.85401 19.6982 9.42014 19.6964 11.4534 19.6947Z" fill="#1F4497"/>
<path d="M4.25537 29.1575C3.50412 29.1575 2.90625 29.7667 2.90625 30.5179V34.1487C2.90625 34.8999 3.50412 35.51 4.25537 35.51C5.00575 35.51 5.60362 34.9008 5.60362 34.1487V30.5179C5.60362 29.7667 5.00575 29.1575 4.25537 29.1575Z" fill="#3CACE4"/>
<path d="M4.25537 20.0837C3.50412 20.0837 2.90625 20.6929 2.90625 21.4451V25.0741C2.90625 25.8262 3.50412 26.4354 4.25537 26.4354C5.00575 26.4354 5.60362 25.8262 5.60362 25.0741V21.4451C5.60362 20.6921 5.00575 20.0837 4.25537 20.0837Z" fill="#1F4497"/>
<path d="M11.9716 34.1589H8.34168C7.59043 34.1589 6.97949 34.7568 6.97949 35.5072C6.97949 36.2584 7.58956 36.8554 8.34168 36.8554H11.9716C12.722 36.8554 13.3329 36.2584 13.3329 35.5072C13.3329 34.7568 12.722 34.1589 11.9716 34.1589Z" fill="#1F4497"/>
<path d="M27.0379 12.8687C19.5576 12.8687 13.4727 18.9536 13.4727 26.4339C13.4727 33.9142 19.5585 40.0001 27.0379 40.0001C34.5191 40.0001 40.6023 33.9142 40.6023 26.4339C40.6023 18.9536 34.5191 12.8687 27.0379 12.8687ZM16.2798 27.8231H19.9272C20.091 31.0591 20.844 33.963 22.0014 36.0608C18.9345 34.445 16.7295 31.3955 16.2798 27.8231ZM19.9263 25.0578H16.279C16.7287 21.4837 18.9328 18.4342 21.9996 16.8184C20.8431 18.9162 20.0901 21.8218 19.9263 25.0578ZM25.6949 36.4007C24.2124 35.1169 22.8982 31.8687 22.6559 27.8231H25.6949V36.4007ZM25.6949 25.0578H22.6559C22.8982 20.9451 24.2124 17.7518 25.6949 16.4698V25.0578ZM28.3914 36.4007V27.8231H31.4208C31.1777 31.8679 29.8756 35.1169 28.3914 36.4007ZM28.3914 25.0578V16.4698C29.8756 17.7518 31.1759 20.9451 31.4208 25.0578H28.3914ZM37.7943 25.0578H34.1469C33.9831 21.8218 33.2301 18.9153 32.0718 16.8175C35.1405 18.4333 37.3463 21.4845 37.7943 25.0578ZM32.0736 36.0616C33.2318 33.9648 33.9848 31.0591 34.1487 27.8231H37.7969C37.3446 31.3955 35.1405 34.4458 32.0736 36.0616Z" fill="#3CACE4"/>
</svg>
