<svg width="63" height="41" viewBox="0 0 63 41" fill="none" xmlns="http://www.w3.org/2000/svg">
<path d="M35.7491 11.6161C34.7462 5.19542 28.9184 0.269531 21.8859 0.269531C14.1407 0.269531 7.86512 6.2361 7.86512 13.6029C7.86512 17.3745 9.5176 20.7867 12.1666 23.215C5.44317 26.419 0.851562 32.8586 0.851562 40.2695H36.9285C36.7961 39.9731 36.7078 39.6514 36.6825 39.3172L36.2852 34.694C32.072 32.4171 29.2149 28.0336 29.2149 23.0005C29.2149 18.1882 31.8323 13.9687 35.7491 11.6161Z" fill="#1F4497"/>
<path d="M46.9323 31.7358L46.1628 37.4627C45.9547 39.0142 44.504 40.2694 42.9714 40.2694H42.8389C41.2874 40.2694 39.8682 39.0079 39.6853 37.4627L38.9916 31.7736C35.5289 30.2978 33.1133 26.9234 33.1133 23.0067C33.1133 17.7213 37.5094 13.4387 42.9272 13.4387C48.3451 13.4387 52.7412 17.7213 52.7412 23.0067C52.7349 26.8919 50.3507 30.241 46.9323 31.7358Z" fill="#3CACE4"/>
<path d="M44.2774 9.08695C45.0721 9.11218 45.747 8.50669 45.7722 7.73091C45.7975 6.95513 45.1794 6.29918 44.3783 6.27395C43.5773 6.24873 42.9088 6.85421 42.8836 7.62999C42.8583 8.40577 43.4827 9.06172 44.2774 9.08695ZM53.4859 13.3064C54.6842 13.3443 55.6871 12.436 55.7249 11.2692C55.7691 10.1024 54.8293 9.12479 53.6373 9.08695C52.4389 9.0491 51.4361 9.95733 51.3982 11.1242C51.3541 12.2847 52.2938 13.2686 53.4859 13.3064ZM59.6732 22.8933C61.2689 22.9501 62.606 21.594 62.6628 20.0425C62.7196 18.4909 61.4707 17.1853 59.875 17.1286C58.2793 17.0718 56.9422 18.2891 56.8854 19.847C56.8287 21.3985 58.0775 22.8429 59.6732 22.8933ZM58.4938 34.5363C60.4805 34.6057 62.1519 33.0857 62.2213 31.1494C62.2907 29.2131 60.7328 27.5858 58.7461 27.5165C56.7593 27.4471 55.0879 28.9671 55.0185 30.9034C54.9491 32.8397 56.507 34.467 58.4938 34.5363Z" fill="#1F4497"/>
</svg>
