<svg width="216" height="521" viewBox="0 0 216 521" fill="none" xmlns="http://www.w3.org/2000/svg">
<path fill-rule="evenodd" clip-rule="evenodd" d="M273.334 0.910468C272.741 1.04755 272.166 1.25619 271.622 1.53185C270.552 1.81185 269.443 1.91676 268.34 1.84254C264.178 1.84254 264.439 3.10921 269.624 8.22366C271.951 10.4384 274.098 12.836 276.046 15.3935L276.878 16.3733C277.33 16.8752 277.14 16.8991 274.357 16.684C264.582 15.967 261.181 15.8236 251.716 15.8236C229.925 15.6364 208.211 18.4262 187.169 24.1167L183.768 25.001C183.03 25.1683 182.055 25.4551 181.58 25.6224C181.104 25.7897 179.606 26.2677 178.202 26.6739C173.089 28.2035 160.912 32.4815 158.082 33.8437L154.372 35.3972C136.582 42.6865 107.924 59.6072 96.7457 69.4298L94.6766 71.1506C89.92 74.9506 88.2789 76.3845 87.5417 77.0059L84.4975 79.8977C77.3759 86.2894 70.6187 93.0796 64.2582 100.236C62.9501 101.718 61.6658 103.176 61.3804 103.462C61.095 103.749 60.2626 104.777 59.5253 105.685C57.0281 108.816 54.5547 111.827 53.8412 112.664C46.7063 120.718 34.3154 140.722 26.8237 155.826C22.3525 164.621 22.6617 164.071 20.2834 169.544C19.3559 171.791 18.3808 174.085 18.143 174.635C17.9051 175.184 16.9776 177.646 16.0976 180.084C15.2177 182.521 14.3853 184.864 14.2188 185.174C13.7907 186.274 12.007 191.747 11.1983 194.519C10.794 195.905 10.3421 197.435 10.1757 197.913C9.65244 199.347 7.79737 206.588 6.58444 211.846C-2.39663 251.787 -1.68697 293.312 8.65356 332.92C8.96274 334.043 9.34326 335.549 9.53352 336.314C9.70854 337.057 9.92289 337.791 10.1757 338.512C10.3421 338.99 10.794 340.52 11.1983 341.906C11.6026 343.292 12.0545 344.774 12.1972 345.132C12.3399 345.491 12.8156 346.877 13.2199 348.192C13.6242 349.506 14.0761 350.868 14.2188 351.251C14.3615 351.633 15.075 353.641 15.7647 355.505C16.93 358.779 17.5246 360.285 18.3094 362.125C18.4521 362.483 19.237 364.324 19.998 366.188C22.2098 371.493 22.519 372.163 26.5146 380.288C28.5837 384.495 30.9144 389.036 31.723 390.398C32.5317 391.76 33.1738 392.931 33.1738 393.027C33.1738 393.122 40.6892 405.454 41.6881 406.602C41.8546 406.793 42.3302 407.557 42.7821 408.298C43.079 408.837 43.4212 409.348 43.8048 409.828C43.8048 409.828 44.9702 411.453 46.1831 413.222C48.1809 416.161 54.4833 424.717 54.9828 425.171C54.9828 425.171 55.7914 426.103 56.5049 427.035C58.5027 429.425 59.1448 430.31 59.7156 430.907C60.2864 431.505 60.8334 432.222 61.5707 433.13C62.3079 434.038 63.3782 435.281 63.949 435.854C64.5198 436.428 65.5186 437.527 66.1846 438.244L67.4213 439.606L66.1132 441.112C64.0203 443.502 64.8527 444.506 67.1835 442.451C68.4677 441.303 68.8483 441.184 68.8483 441.925C68.8483 442.211 68.2775 442.713 67.5878 443.024C64.9003 444.339 66.6602 444.793 71.3217 444.028C71.4882 444.028 71.7022 444.147 71.7736 444.339C71.8449 444.53 71.1552 444.817 69.8709 444.96C65.59 445.438 64.2819 446.561 64.2819 449.74C64.2819 453.874 65.9467 454.854 69.5142 452.799C70.6558 452.13 70.7033 452.345 69.752 453.874C69.3239 454.591 68.7531 455.547 68.5153 455.978L68.0872 456.79L70.3228 456.647C71.0595 456.486 71.8217 456.486 72.5584 456.647C72.5584 457.005 70.9649 457.961 70.3704 457.961C68.7531 457.961 70.1563 459.873 72.5584 460.949C75.1659 462.104 77.9852 462.698 80.8349 462.693C92.9642 463.625 94.6528 464.103 97.2213 467.138C97.652 467.508 98.1047 467.852 98.577 468.166C99.6496 468.885 100.667 469.684 101.621 470.556C102.039 470.945 102.503 471.282 103.001 471.56C103.333 471.718 103.638 471.927 103.904 472.181C104.285 472.492 104.927 472.994 105.355 473.281C105.783 473.567 106.425 474.021 106.83 474.332C115.808 480.591 125.13 486.336 134.751 491.54C135.444 491.86 136.119 492.219 136.772 492.615C137.058 492.926 145.715 497.084 149.449 498.71L151.827 499.761L154.205 500.789L157.083 502.008C158.456 502.638 159.862 503.197 161.293 503.681C162.22 503.991 163.457 504.469 164.004 504.684C164.551 504.899 166.002 505.449 167.215 505.879C168.428 506.309 169.712 506.74 170.092 506.907C170.473 507.074 171.829 507.528 173.137 507.935C174.445 508.341 175.8 508.795 176.181 508.962C177.56 509.56 193.209 513.742 196.967 514.531L201.866 515.559C210.734 517.379 219.699 518.68 228.717 519.454L236.685 520.147C241.441 520.577 261.419 520.577 266.532 520.147L274.69 519.454C288.67 518.255 302.523 515.856 316.096 512.284L320.472 511.065L327.75 508.843L328.939 508.532C329.412 508.42 329.868 508.243 330.294 508.006C330.773 507.762 331.287 507.593 331.817 507.504C332.397 507.389 332.953 507.17 333.458 506.859C333.719 506.644 333.957 506.548 333.981 506.644C335.723 506.216 337.425 505.641 339.07 504.923L342.971 503.418C344.731 502.772 346.467 502.079 346.847 501.912L349.226 500.86C355.623 498.136 357.193 497.419 364.613 493.691C368.905 491.655 373.088 489.398 377.147 486.927C378.304 486.174 379.521 485.518 380.786 484.967C381 484.967 381.166 484.848 381.166 484.705C381.166 484.561 381.737 484.131 382.427 483.772C384.148 482.823 385.815 481.777 387.421 480.642C387.611 480.474 388.372 479.996 389.11 479.542C389.641 479.237 390.15 478.894 390.632 478.515C391.114 478.135 391.622 477.792 392.154 477.487C392.891 477.033 393.652 476.531 393.843 476.388C394.033 476.244 398.433 473.089 399.551 472.325C399.906 472.082 400.248 471.818 400.573 471.536C401.179 471.028 401.814 470.557 402.476 470.126C403.407 469.472 404.304 468.77 405.163 468.023C405.585 467.615 406.057 467.261 406.566 466.971C406.996 466.746 407.389 466.456 407.732 466.111L409.397 464.677L411.775 462.717C412.702 461.976 413.606 461.211 413.82 461.02C414.034 460.829 414.938 460.04 415.842 459.276L418.22 457.125C423.119 452.894 435.296 440.634 439.625 435.615C442.146 432.652 443.097 431.552 443.501 431.098L445.214 429.043C446.998 426.796 447.806 425.793 448.329 425.267C448.853 424.741 449.304 424.072 449.994 423.188C450.438 422.558 450.915 421.951 451.421 421.371C451.858 420.83 452.263 420.263 452.634 419.674C453.181 418.838 453.799 417.978 453.99 417.739L454.679 416.902C454.87 416.663 455.773 415.396 456.677 414.082C457.281 413.16 457.948 412.281 458.675 411.453C458.889 411.31 458.937 411.19 458.675 411.19C458.413 411.19 458.675 410.975 458.841 410.688C459.745 409.708 460.149 409.183 460.149 409.015C460.858 407.745 461.695 406.552 462.647 405.454C462.885 405.287 462.885 405.215 462.647 405.191C462.409 405.168 462.48 405.072 462.647 404.929C463.416 404.01 464.093 403.017 464.668 401.965C465.208 400.964 465.846 400.02 466.571 399.145C466.601 399.118 466.626 399.085 466.642 399.048C466.659 399.011 466.668 398.971 466.668 398.93C466.668 398.889 466.659 398.849 466.642 398.812C466.626 398.775 466.601 398.742 466.571 398.715C466.571 398.547 466.571 398.404 466.737 398.404C466.781 398.407 466.825 398.402 466.867 398.388C466.908 398.374 466.947 398.352 466.98 398.323C467.013 398.294 467.04 398.259 467.06 398.22C467.079 398.18 467.091 398.137 467.094 398.093C467.685 396.807 468.361 395.562 469.116 394.365C469.876 393.159 470.56 391.906 471.161 390.613C471.157 390.529 471.177 390.446 471.22 390.374C471.262 390.302 471.324 390.244 471.399 390.207C471.847 389.656 472.215 389.044 472.493 388.39C472.8 387.751 473.141 387.128 473.516 386.526C473.92 386.12 480.65 371.876 482.291 368.004C483.052 366.14 483.909 364.156 484.17 363.583C484.432 363.009 485.026 361.408 485.526 360.022C485.841 359.034 486.239 358.074 486.715 357.154C487.001 356.557 487.224 355.933 487.381 355.29C487.649 354.304 487.983 353.338 488.38 352.398C489.022 350.964 491.9 342.002 493.136 337.604C494.23 333.732 495.895 327.327 496.014 326.587C496.014 326.204 496.419 324.603 496.799 323.002C497.18 321.4 497.56 319.584 497.679 318.939C497.798 318.293 497.964 317.361 498.06 316.907C498.155 316.453 498.393 315.21 498.559 314.183C498.726 313.155 498.963 311.936 499.058 311.458C499.154 310.98 499.391 309.522 499.582 308.184C499.772 306.846 500.01 305.388 500.081 304.958C500.628 302.161 501.746 291.789 502.198 285.312C502.507 280.867 502.507 256.155 502.198 251.351C502.055 249.392 501.793 246.094 501.579 244.038C501.365 241.983 501.128 239.784 501.056 239.115C500.985 238.446 500.795 236.725 500.581 235.219C500.366 233.714 500.129 231.969 500.034 231.324C499.867 229.986 499.082 225.397 498.535 222.314C498.321 221.191 498.107 219.924 498.036 219.589C497.822 218.347 497.156 215.311 496.49 212.42C496.276 211.487 496.038 210.388 495.967 210.03C495.895 209.671 495.42 207.807 494.944 205.967C494.468 204.126 494.016 202.382 493.969 202.095C493.136 198.63 489.664 187.612 487.904 182.976C487.507 182.014 487.212 181.012 487.024 179.988C487.024 179.63 486.882 179.319 486.691 179.319C486.595 179.307 486.506 179.258 486.444 179.183C486.382 179.107 486.351 179.01 486.358 178.913C486.193 178.096 485.954 177.296 485.645 176.523C484.884 174.611 484.598 173.87 483.267 170.906C482.22 168.516 481.816 167.537 481.744 167.345C481.673 167.154 481.507 166.724 481.293 166.15C481.078 165.577 480.65 164.597 479.556 162.255L478.962 161.06C478.748 160.677 477.559 158.311 476.322 155.802C473.944 151.237 472.564 148.369 471.113 145.788L469.782 143.064C469.5 142.483 469.14 141.944 468.711 141.462C468.497 141.295 468.497 141.2 468.711 141.2C468.925 141.2 468.925 141.08 468.711 140.937C467.483 139.44 466.489 137.763 465.762 135.966C465.881 135.966 465.762 135.75 465.762 135.75C465.762 135.75 465.073 135.105 464.621 134.317C464.169 133.528 463.408 132.285 462.885 131.544C462.487 131.054 462.167 130.506 461.933 129.919C461.88 129.652 461.757 129.405 461.577 129.202C460.221 127.577 459.888 127.123 459.888 126.812C459.893 126.706 459.871 126.6 459.826 126.504C459.78 126.408 459.712 126.325 459.626 126.262C458.169 124.639 456.848 122.896 455.678 121.052C455.393 120.646 455.012 120.12 454.822 119.905C454.632 119.69 454.037 118.83 453.49 117.993C453.019 117.284 452.502 116.605 451.944 115.962C451.456 115.427 451.003 114.86 450.589 114.265C449.704 112.972 448.752 111.727 447.735 110.537C445.356 107.717 444.025 105.996 443.573 105.542C443.121 105.088 443.192 105.088 443.264 105.088C442.926 104.563 442.527 104.082 442.074 103.654C441.337 102.865 440.267 101.622 439.696 100.905C439.125 100.188 437.841 98.7782 436.89 97.7744C435.938 96.7707 435.201 95.9342 435.225 95.9342C435.249 95.9342 423.547 84.1996 423.333 83.9845C423.29 83.9728 423.251 83.951 423.217 83.921C423.184 83.891 423.158 83.8535 423.142 83.8117C423.126 83.7698 423.12 83.7247 423.124 83.68C423.128 83.6353 423.143 83.5923 423.167 83.5543C423.167 83.387 423.167 83.2436 423.024 83.2436C422.413 82.9123 421.859 82.4847 421.383 81.977C420.646 81.26 418.791 79.5871 417.221 78.2248L413.939 75.6437C413.749 75.4525 412.536 74.4487 411.228 73.3971C409.92 72.3456 408.54 71.2223 408.112 70.8877C404.711 67.972 397.386 62.6185 390.608 58.1016C388.563 56.7393 386.755 55.4965 386.565 55.3531C386.375 55.2097 375.934 48.8525 373.199 47.323C368.442 44.6701 356.218 38.6475 351.081 36.4488L344.659 33.7003C344.089 33.4614 341.663 32.5532 339.237 31.6689C336.811 30.7846 334.48 29.9481 334.171 29.7809C333.077 29.3268 327.631 27.5582 324.872 26.7456L321.495 25.6941C318.546 24.6425 306.226 21.679 299.02 20.3167L295.476 19.6236L292.67 19.0979C291.933 18.9784 291.481 18.7394 291.623 18.5482C291.766 18.357 290.196 16.1582 289.745 16.1582C289.254 16.445 288.806 16.7989 288.413 17.2098C285.773 19.5997 283.537 18.357 279.993 12.4299C278.855 10.191 277.229 8.23862 275.237 6.71801C274.815 6.48259 274.493 6.09999 274.333 5.64254C274.119 4.82996 274.19 4.80606 275.427 5.45134L276.378 5.95323L277.449 3.70669C277.923 2.87447 278.23 1.95697 278.352 1.00607C278.162 0.504182 275.07 0.408584 273.239 0.862671M271.551 18.8589C273.049 19.0501 275.284 19.3129 276.545 19.4085L278.923 19.6236L280.065 22.0136C282.364 26.9846 282.419 29.7729 280.231 30.3783C279.232 30.6651 278.899 30.928 278.899 31.4299C281.351 36.1275 284.293 40.5499 287.675 44.6223C288.484 45.4827 291.1 49.0198 293.098 51.9355C294.196 53.6777 295.437 55.3245 296.808 56.8588C297.498 57.5997 300.685 61.6387 301.018 62.2839C301.351 62.9292 301.16 62.6902 300.661 62.499C294.161 60.9329 287.579 59.736 280.945 58.9141C265.971 56.8824 250.831 56.3859 235.757 57.4324C226.244 58.1228 216.783 59.4159 207.432 61.3041L203.032 62.3317L198.822 63.3355C194.066 64.6022 186.051 67.0399 185.123 67.4223C184.766 67.5896 183.244 68.1393 181.746 68.6173C178.512 69.7166 174.897 71.0072 173.969 71.4852C173.612 71.6764 172.471 72.1305 171.472 72.5368C170.473 72.943 168.856 73.5883 167.904 74.0185L163.338 76.1217C159.771 77.7229 151.09 82.1921 149.401 83.2915C148.94 83.6076 148.445 83.872 147.927 84.0801C146.619 84.0801 121.765 101.096 120.077 103.2C120.077 103.2 119.149 104.012 118.222 104.753C117.294 105.494 116.343 106.259 116.153 106.45L113.774 108.481C110.183 111.54 108.471 113.261 102.81 118.854C99.1913 122.337 95.754 126.007 92.5123 129.847L90.467 132.237C90.2767 132.428 89.5157 133.361 88.7784 134.293C88.0411 135.225 87.3276 136.085 87.2325 136.181C85.2823 137.782 68.3488 162.781 68.3488 164.071C68.1343 164.621 67.8549 165.142 67.5164 165.625C66.4938 167.226 61.8085 176.475 60.3815 179.558L58.4313 183.86C57.9081 185.007 57.1708 186.776 56.7903 187.755C56.4098 188.735 55.9579 189.882 55.9579 190.36C55.5298 191.293 54.198 194.925 53.1277 198.175C52.6283 199.657 52.0813 201.187 51.9148 201.569C51.7483 201.952 50.1073 207.305 49.1084 210.914L48.0619 214.642C47.7765 215.67 47.2295 217.892 46.849 219.565C46.4685 221.238 46.0166 223.246 45.8263 223.987C45.4696 225.54 45.0415 227.811 44.2804 232.136C38.8735 264.06 40.7274 296.8 49.703 327.901C50.8921 331.94 54.626 343.101 54.9352 343.531C55.3357 344.361 55.6852 345.215 55.9817 346.088C56.4098 347.283 56.8616 348.478 56.9806 348.622C57.3028 349.291 57.5886 349.977 57.8367 350.677C60.9797 358.028 64.5045 365.207 68.3964 372.186C68.7769 372.88 69.3001 373.788 69.538 374.242C69.7323 374.581 69.9467 374.908 70.1801 375.222C70.1801 375.222 70.5844 375.843 70.8936 376.417C71.4882 377.54 75.6502 384.351 76.1496 384.901C76.6491 385.451 77.0296 386.168 77.7669 387.291C78.5041 388.414 79.1938 389.394 79.289 389.49C79.3841 389.585 80.0738 390.541 80.8111 391.664C82.904 394.747 83.8077 395.584 84.9969 395.584C86.186 395.584 86.3763 395.393 83.9742 392.142C81.0965 388.247 74.461 378.4 74.461 377.97C74.4643 377.923 74.4582 377.876 74.4432 377.831C74.4282 377.786 74.4046 377.745 74.3736 377.709C74.3427 377.674 74.3051 377.645 74.2629 377.624C74.2208 377.603 74.175 377.591 74.1281 377.588C74.0823 377.588 74.0369 377.578 73.9949 377.56C73.9529 377.542 73.9151 377.515 73.8838 377.481C73.8526 377.448 73.8286 377.408 73.8133 377.365C73.798 377.321 73.7918 377.275 73.7951 377.229C73.4811 376.454 73.0823 375.717 72.606 375.031C72.166 374.372 71.7688 373.685 71.4168 372.975C71.2712 372.578 71.0624 372.206 70.7985 371.876C69.6331 370.179 63.9965 359.257 62.189 355.146L60.7145 352.015C60.2388 350.916 59.454 349.1 58.9783 347.929C58.5027 346.758 57.9794 345.539 57.7892 345.132C57.3849 344.296 55.1017 337.771 53.6034 333.183C48.8353 318.751 45.7156 303.822 44.3042 288.682L43.6859 281.178C42.6409 261.591 44.1763 241.951 48.2522 222.768C48.5614 221.477 48.9419 219.78 49.1084 219.016C51.0055 211.359 53.2916 203.805 55.9579 196.383C56.1957 195.833 56.8141 194.208 57.3135 192.822C57.813 191.436 58.4313 189.835 58.6691 189.261C58.907 188.687 59.7869 186.704 60.548 184.84C63.6139 177.797 67.0759 170.934 70.9174 164.286C71.2327 163.857 71.4961 163.392 71.7022 162.9C71.7022 162.566 77.8144 152.767 80.05 149.54C83.9267 143.9 91.9415 133.504 95.0095 130.301L98.7672 126.382C103.662 121.033 108.83 115.944 114.25 111.134L116.937 108.744C118.031 107.764 121.313 105.064 123.406 103.462L126.094 101.359C128.258 99.543 138.461 92.5405 142.314 90.2223C142.845 89.9255 143.354 89.5901 143.836 89.2185C144.153 88.9744 144.496 88.7661 144.859 88.5971C145.704 88.213 146.502 87.7318 147.237 87.1631C147.66 86.8663 148.105 86.6026 148.569 86.3745L151.97 84.5342C154.8 82.9569 164.813 77.938 167.001 77.0059L169.379 75.9544L171.757 74.9506C172.685 74.5682 173.707 74.0902 174.135 73.899C174.444 73.7296 174.784 73.6239 175.134 73.5883C175.602 73.5074 176.053 73.3457 176.466 73.1103C177.456 72.6514 178.473 72.2524 179.51 71.9154C180.676 71.5091 181.889 71.055 182.317 70.8877C183.268 70.4575 188.548 68.7129 191.616 67.8286C193.019 67.4223 194.541 66.9443 194.993 66.777C195.445 66.6097 196.539 66.299 197.371 66.1078L200.915 65.2235C234.067 56.904 268.738 56.8384 301.921 65.0324C302.468 65.1498 302.991 65.3599 303.467 65.6537C303.967 66.2512 307.891 72.5128 307.891 72.8235C308.137 73.4069 308.448 73.9602 308.818 74.4726C309.318 75.2374 310.031 76.4562 310.388 77.1493C311.363 79.0852 316.048 78.6072 315.478 76.6474C314.617 74.6622 313.453 72.8239 312.029 71.1984C310.65 69.621 310.816 69.1669 312.338 70.3619C317.095 73.899 319.711 74.0424 317.333 70.577C316.286 69.0952 316.286 69.0952 318.022 70.9116L319.759 72.7518L318.974 73.5644C318.638 73.8875 318.382 74.2845 318.226 74.7241C318.069 75.1637 318.016 75.6339 318.072 76.0975C318.127 76.5612 318.289 77.0055 318.545 77.3954C318.8 77.7853 319.143 78.1102 319.545 78.3443C323.136 79.611 322.755 79.0852 322.755 82.8374C322.795 84.1317 322.723 85.4271 322.541 86.7091C322.208 87.5694 321.637 87.3304 321.875 86.4223C322.113 85.5141 321.875 85.3229 320.948 84.3908C320.183 83.5286 319.483 82.6099 318.855 81.6424C317.88 80.1128 317.571 79.9455 316.001 80.0889C313.623 80.304 313.86 83.4109 316.477 85.7053C319.093 87.9996 323.421 97.4638 323.421 100.188C323.717 101.578 324.346 102.874 325.252 103.964C325.799 104.323 326.751 103.964 328.844 102.53C329.668 101.949 330.544 101.445 331.46 101.025C331.888 100.881 332.221 100.642 332.221 100.451C332.221 99.7103 333.244 100.236 333.434 101.073C333.564 101.592 333.832 102.066 334.208 102.445C334.585 102.824 335.057 103.093 335.574 103.223C336.16 103.334 336.723 103.544 337.239 103.845L338.381 104.466L337.192 104.657C336.31 104.831 335.472 105.178 334.725 105.678C333.978 106.178 333.337 106.823 332.839 107.573L332.34 108.625L331.246 106.235C330.128 103.845 328.867 103.104 327.25 104.132C326.87 104.371 328.606 110.489 330.841 116.918C331.317 118.256 331.555 118.304 326.798 115.962C321.272 113.162 315.577 110.711 309.746 108.625C308.057 108.027 306.393 107.406 306.012 107.239C305.632 107.071 298.069 104.729 296.047 104.203C291.053 102.865 289.507 102.483 285.059 101.598C259.045 96.4327 232.196 97.365 206.599 104.323C203.032 105.327 197.966 106.88 197.3 107.143C196.634 107.406 195.849 107.693 194.922 108.003C188.97 110.094 183.163 112.577 177.536 115.436C146.476 130.684 118.079 157.618 103.548 185.939L102.049 188.735C100.836 191.125 100.836 191.125 101.693 190.695C103.262 190.098 103.785 189.691 104.285 188.759C107.718 182.328 111.546 176.118 115.748 170.165C115.915 169.974 117.128 168.373 118.436 166.581C120.648 163.617 124.215 159.244 127.164 155.898C132.614 150.02 138.37 144.435 144.407 139.168C144.879 138.793 145.331 138.394 145.762 137.973C145.905 137.806 155.276 130.803 156.417 129.943C157.559 129.083 160.769 127.027 163.338 125.402L166.882 123.156C167.369 122.855 167.877 122.591 168.404 122.367C168.772 122.233 169.111 122.031 169.403 121.769C169.712 121.363 180.224 115.986 183.435 114.6L185.813 113.572C195.725 109.299 206.023 105.994 216.564 103.701C227.1 101.468 237.832 100.3 248.6 100.212C264.986 99.8406 281.334 101.951 297.093 106.474C300.732 107.501 308.557 110.059 309.77 110.632L312.315 111.636C313.337 112.018 314.455 112.473 314.836 112.664L319.592 114.743C324.872 116.918 331.603 120.742 331.888 121.674C332.054 122.223 332.316 122.988 332.459 123.371C332.601 123.753 333.077 125.187 333.481 126.597C333.886 128.007 334.457 129.704 334.718 130.421C335.053 131.083 335.195 131.827 335.128 132.567C335.061 133.307 334.787 134.013 334.338 134.603C332.649 137.806 333.862 142.012 336.097 140.674L337.049 140.1L336.216 140.817L334.932 141.893C334.076 142.61 334.409 144.689 335.36 144.45L337.049 144.044C337.525 143.924 337.905 144.044 337.905 144.044C337.905 144.044 335.788 145.071 333.767 145.262C331.745 145.454 331.388 145.74 331.032 150.592C330.955 152.813 330.717 155.026 330.318 157.212C329.343 161.61 326.465 159.913 354.553 171.552C368.157 177.12 385.138 184.123 392.297 187.086C407.423 193.324 405.449 192.798 406.566 191.006C410.491 184.792 419.932 181.446 428.97 183.095C430.468 183.382 431.824 183.597 432.014 183.621C433.037 183.621 433.251 184.194 432.847 185.581C432.442 186.967 433.536 191.603 434.297 191.34C436.018 189.135 437.463 186.728 438.602 184.171C438.602 184.171 438.222 184.003 437.77 184.003C436.129 184.003 435.796 182.569 436.438 177.981C436.723 175.782 437.032 173.942 437.08 173.87C437.128 173.798 441.646 182.832 441.646 183.143C441.646 183.454 443.097 186.56 444.025 188.592C444.643 189.882 448.02 199.131 449.186 202.692C450.351 206.253 450.779 207.664 452.135 212.539C453.324 216.817 453.443 217.319 454.156 220.521C454.537 222.194 454.989 224.178 455.179 224.943C457.203 234.741 458.562 244.666 459.246 254.65C459.698 260.338 459.507 279.983 458.937 286.412C457.833 298.352 455.797 310.187 452.848 321.807C451.588 326.587 450.47 330.171 450.28 330.793C450.089 331.414 449.661 332.561 449.257 333.852C448.853 335.142 448.401 336.529 448.258 336.911C448.115 337.293 447.402 339.301 446.688 341.165C446.254 342.488 445.754 343.788 445.19 345.061C444.872 345.72 444.594 346.399 444.358 347.092C444.025 348.048 443.383 349.649 442.931 350.677C442.479 351.705 441.456 353.903 440.719 355.6C439.006 359.4 435.035 367.192 433.584 369.725C433.139 370.401 432.749 371.112 432.419 371.852C428.391 378.801 424.017 385.541 419.314 392.047C416.936 395.273 416.936 395.488 418.196 395.488C420.931 395.488 432.466 377.994 440.172 362.029C441.694 358.898 443.073 356.078 443.24 355.792C443.811 354.668 447.354 346.232 448.353 343.507C464.563 300.674 466.516 253.714 453.918 209.671L453.038 206.612C451.635 201.832 447.235 189.62 445.261 185.103C443.287 180.586 442.479 178.913 440.315 174.467C437.722 169.162 437.437 167.68 439.197 168.636C440.957 169.592 444.786 166.246 448.71 160.223C451.088 156.758 451.088 156.734 450.398 156.017C449.582 154.014 449.514 151.781 450.208 149.732C450.407 149.43 450.512 149.077 450.512 148.716C450.512 148.355 450.407 148.001 450.208 147.7C449.733 146.768 449.756 146.649 450.541 145.74C451.326 144.832 451.35 144.545 451.136 143.709C450.708 141.821 450.874 141.319 453.847 135.177L456.796 129.13L456.154 128.27C455.559 127.457 453.776 126.788 450.636 126.047C450.079 125.873 449.605 125.499 449.304 124.996C448.163 122.845 441.194 122.247 437.722 124.016C435.274 125.341 432.95 126.884 430.778 128.628C430.719 128.712 430.64 128.78 430.549 128.826C430.458 128.872 430.356 128.894 430.254 128.891C429.387 129.563 428.632 130.37 428.019 131.281C426.996 132.644 426.092 133.815 425.973 133.91C425.854 134.006 424.974 135.129 423.999 136.3C422.843 137.993 421.175 139.267 419.243 139.933C418.603 139.435 418.056 138.829 417.626 138.14C412.441 131.385 406.799 124.997 400.74 119.021C393.436 111.394 385.477 104.428 376.957 98.2046L371.035 93.8071L369.679 92.899C368.981 92.4081 368.321 91.8649 367.705 91.2738C367.307 90.818 366.787 90.4863 366.207 90.3179C363.761 89.3722 361.622 87.7681 360.023 85.6814C359.513 84.4007 358.606 83.3189 357.437 82.5959C356.268 81.8728 354.898 81.5469 353.53 81.6663C351.152 81.6663 350.795 81.4273 346.205 79.0852C343.494 77.699 339.808 75.9065 338 75.0701C336.837 74.624 335.728 74.0467 334.694 73.3493C334.565 73.0133 334.362 72.711 334.1 72.465C333.767 72.1066 332.459 70.4336 331.198 68.7607C328.083 64.5783 328.011 64.5066 327.512 64.5066C326.061 64.5066 325.134 62.499 325.134 59.5833C325.134 57.1934 325.134 56.6437 324.468 56.1896C323.802 55.7355 324.349 55.9506 325.015 56.333C325.745 56.7445 326.557 56.9893 327.393 57.05H328.487L328.249 54.7795C328.113 53.5467 327.858 52.3301 327.488 51.1469C327.14 50.0065 326.886 48.8395 326.727 47.6576C326.556 46.2249 326.042 44.8553 325.229 43.6664C324.778 43.0014 324.373 42.3067 324.016 41.5871C324.016 41.5871 323.136 40.1054 322.089 38.4802C319.996 35.2777 319.592 33.318 320.615 31.3104C321.162 30.3066 320.948 29.9481 320.068 30.4022C319.364 30.7384 318.641 31.0337 317.904 31.2865C316.981 31.5686 316.156 32.1071 315.525 32.84C314.645 34.0349 313.789 34.1305 312.909 33.1507C312.402 32.6452 311.805 32.2399 311.149 31.9557C309.675 31.3343 310.031 30.7846 311.934 30.7846C312.766 30.7846 313.432 30.6412 313.432 30.45C313.272 30.068 313.038 29.7215 312.744 29.4303C312.45 29.1391 312.102 28.909 311.72 28.7532C310.052 27.9564 308.5 26.9353 307.106 25.718C306.372 25.1076 305.575 24.5788 304.728 24.1406C303.372 23.4236 303.277 23.3041 304.133 23.4475C305.869 23.7343 311.458 25.0727 315.644 26.196C316.738 26.5066 318.26 26.889 319.021 27.0802C319.782 27.2714 320.758 27.5582 321.209 27.7255C321.661 27.8928 323.873 28.5859 326.109 29.2551C328.344 29.9243 330.461 30.6412 330.865 30.7846C331.27 30.928 332.53 31.406 333.743 31.8123C334.956 32.2186 336.121 32.6966 336.526 32.8639C336.836 33.0299 337.175 33.1354 337.525 33.1746C338.142 33.3287 338.741 33.5532 339.308 33.8437C339.872 34.1414 340.472 34.3663 341.092 34.5129C341.451 34.571 341.797 34.6924 342.115 34.8714C342.424 35.0387 344.065 35.7557 345.73 36.401L349.464 37.9305C357.517 41.421 365.377 45.3462 373.009 49.689C373.472 50.0085 373.966 50.2807 374.483 50.5016C374.745 50.5016 388.468 58.938 388.753 59.3204C389.038 59.7028 389.847 60.1091 390.965 60.85L393.343 62.4751C393.533 62.6185 394.746 63.5028 396.054 64.411C397.362 65.3192 398.575 66.2034 398.742 66.3707L400.787 67.9003C402.761 69.382 402.523 69.1908 405.544 71.5569C408.564 73.9229 410.491 75.5242 414.653 79.1569C420.242 83.9367 431.776 95.3845 436.676 100.881L439.863 104.466C440.148 104.753 440.98 105.781 441.718 106.689C444.096 109.485 444.405 110.011 444.928 110.584C445.409 111.135 445.861 111.709 446.284 112.305C446.649 112.845 447.054 113.357 447.497 113.835C450.208 116.225 465.953 140.124 469.615 147.461C469.906 148.114 470.256 148.738 470.662 149.325C471.161 149.732 479.604 167.393 480.793 170.548C481.15 171.48 481.602 172.555 481.768 172.938C482.493 174.311 483.059 175.762 483.457 177.264C483.474 177.546 483.582 177.814 483.766 178.028C484.242 178.578 489.093 192.726 490.449 197.554C491.805 202.382 493.041 207.114 493.422 208.763C495.015 215.55 495.443 217.606 496.49 223.365C497.631 229.579 498.868 238.302 499.32 244.875C499.534 247.265 499.843 250.802 500.01 252.881C500.462 257.661 500.462 278.214 500.01 283.066C499.843 285.121 499.534 288.73 499.32 291.072C498.13 304.546 495.823 317.896 492.423 330.984C492.114 332.083 491.733 333.613 491.543 334.378C491.376 335.124 491.161 335.858 490.901 336.576C490.734 337.054 490.283 338.584 489.878 339.97C488.808 343.651 486.192 351.585 485.811 352.278C485.64 352.598 485.527 352.946 485.478 353.306C485.398 353.776 485.237 354.229 485.003 354.644C484.699 355.261 484.468 355.91 484.313 356.58C484.242 357.036 484.054 357.464 483.766 357.823C483.663 357.921 483.583 358.04 483.53 358.172C483.476 358.304 483.451 358.446 483.457 358.588C483.321 359.26 483.097 359.911 482.791 360.524C482.525 361.03 482.302 361.557 482.125 362.101C481.829 362.916 481.487 363.714 481.102 364.491C480.718 365.268 480.376 366.066 480.08 366.881C480.08 367.574 471.494 385.116 469.354 388.749C468.569 390.111 467.903 391.282 467.903 391.378C467.903 391.473 461.196 402.586 459.46 405.144L457.985 407.342C455.607 410.951 452.777 414.966 450.184 418.384C447.592 421.801 447.188 422.351 446.451 423.164L444.762 425.267C442.74 427.776 442.122 428.565 441.551 429.162L439.886 431.051C435.867 435.83 433.869 437.934 427.353 444.458C420.836 450.983 418.529 453.181 414.011 457.053L412.132 458.726C411.513 459.3 410.681 459.993 408.255 461.928C407.328 462.669 406.495 463.386 406.4 463.482C405.71 464.318 395.674 471.655 389.752 475.718C385.186 478.801 374.911 485.278 374.531 485.278C374.15 485.278 373.27 485.947 371.915 486.736C369.846 487.979 355.267 495.292 353.245 496.296C352.864 496.439 351.58 497.013 350.367 497.562C341.645 501.292 332.739 504.571 323.683 507.385C321.59 508.03 320.591 508.317 315.739 509.775C311.863 510.826 311.316 510.97 308.295 511.663L303.895 512.667C294.272 514.69 284.547 516.182 274.761 517.136C266.174 518.02 257.538 518.331 248.909 518.068C242.488 518.068 236.185 517.805 234.877 517.686L228.622 517.136C215.224 515.925 201.948 513.607 188.928 510.205L185.528 509.321C184.79 509.13 183.815 508.843 183.339 508.676C182.864 508.508 181.365 508.054 179.962 507.648C175.015 506.19 164.052 502.414 162.22 501.53L159.675 500.526L157.154 499.498L154.277 498.279C141.471 492.681 129.115 486.097 117.318 478.586C109.66 473.496 99.0764 465.92 98.1727 464.892C98.1727 464.772 97.2689 464.103 96.3889 463.386C94.5814 461.928 94.6052 461.235 96.5316 460.255C98.4581 459.276 103.548 462.024 104.975 465.035C106.116 467.425 106.949 468.19 109.113 468.453C111.679 468.663 114.262 468.534 116.795 468.071C117.507 467.893 118.25 467.884 118.967 468.043C119.683 468.203 120.353 468.527 120.924 468.99C121.495 469.452 121.952 470.042 122.259 470.712C122.566 471.381 122.714 472.113 122.693 472.85C122.693 477.176 125.737 478.754 131.397 477.463C138.318 475.886 141.434 475.981 141.434 477.822C141.434 480.833 159.319 480.02 162.839 476.866C163.588 476.29 164.473 475.919 165.407 475.79C167.618 475.261 169.682 474.24 171.448 472.803C171.855 472.456 172.323 472.189 172.827 472.014C173.755 472.014 174.373 470.676 174.135 469.146C173.898 467.616 173.945 467.616 175.277 466.756L176.633 465.848L179.011 466.708C183.768 468.477 191.687 471.01 197.371 472.588L200.416 473.424C201.058 473.591 202.271 473.902 203.103 474.069L207.004 474.906C234.582 480.914 263.078 481.321 290.815 476.101C294.121 475.527 304.395 473.137 307.463 472.205L311.03 471.177C315.787 469.791 328.535 465.37 330.96 464.247L333.339 463.195L335.717 462.191L338.095 461.14C345.68 457.657 353.072 453.763 360.237 449.477C367.669 444.874 374.853 439.88 381.761 434.516C381.999 434.325 382.736 433.703 383.449 433.154C385.09 431.839 391.393 426.462 393.367 424.669C396.007 422.279 406.995 411.142 408.517 409.278L409.991 407.51H408.493C407.09 407.51 406.876 407.51 405.282 409.469C402.904 412.29 396.364 418.766 392.701 422.112L388.967 425.506C382.022 431.639 374.673 437.292 366.968 442.427C361.807 445.892 355.29 449.955 354.91 449.955C354.201 450.301 353.51 450.684 352.841 451.102C350.248 452.679 342.495 456.671 338.785 458.272L333.886 460.471C332.863 460.949 331.27 461.594 330.342 461.928C329.645 462.167 328.962 462.447 328.297 462.765C328.13 462.884 326.37 463.577 324.42 464.271C322.47 464.964 320.567 465.681 320.187 465.848C319.806 466.015 318.451 466.445 317.142 466.852C315.834 467.258 314.479 467.712 314.122 467.879C312.41 468.572 303.396 470.986 297.046 472.444C267.261 478.881 236.455 478.881 206.671 472.444C202.437 471.44 200.178 470.891 198.37 470.389L194.993 469.505C194.161 469.289 193.186 468.979 192.805 468.835C192.425 468.692 190.998 468.214 189.594 467.808C187.337 467.202 185.121 466.452 182.959 465.561C182.506 465.346 182.026 465.193 181.532 465.107C180.937 465.107 179.463 464.318 179.463 464.032C179.463 463.745 179.606 463.745 179.82 463.745C181.203 463.026 182.497 462.143 183.672 461.116L184.933 460.255C185.86 459.357 186.603 458.285 187.121 457.101C189.166 452.966 191.378 451.771 199.227 450.433C204.744 449.477 206.171 446.633 202.604 443.693C200.368 441.877 200.392 441.996 202.199 439.654C202.984 438.603 204.578 436.5 205.481 434.874C206.956 432.628 207.479 432.102 208.002 432.222L210.714 432.867C217.99 434.723 225.39 436.049 232.856 436.834L239.515 437.527C247.619 437.957 255.741 437.957 263.845 437.527L270.694 436.834C282.462 435.638 294.06 433.129 305.275 429.354C307.796 428.517 310.031 427.705 310.507 427.561L313.218 426.486C314.036 426.195 314.831 425.843 315.597 425.434C315.81 425.273 316.067 425.181 316.334 425.171C318.379 425.171 337.025 415.181 345.111 409.78L348.251 407.677H346.752C344.776 407.86 342.918 408.701 341.472 410.067C341.235 410.33 334.338 414.464 331.959 415.827C326.105 419.039 320.061 421.889 313.86 424.359L308.961 426.342C308.129 426.725 302.706 428.541 300.851 429.067L297.807 429.951C295.262 430.716 291.219 431.791 289.697 432.102C284.37 433.273 282.943 433.56 280.184 434.014C270.771 435.746 261.212 436.546 251.644 436.404C237.425 436.626 223.243 434.873 209.501 431.194L207.765 430.764L207.622 428.684C207.507 427.643 207.629 426.589 207.979 425.601C209.222 423.429 210.587 421.331 212.069 419.316C213.904 417.593 215.404 415.543 216.493 413.269C216.562 412.476 216.788 411.704 217.159 410.999C217.544 410.256 217.779 409.444 217.849 408.609V407.677H93.2496L93.9869 408.466C94.962 409.517 94.9144 409.924 93.9869 409.23C92.3934 408.179 91.4183 408.657 89.2303 411.62C88.1034 412.998 86.9046 414.314 85.639 415.564C83.0705 418.145 83.0229 418.193 82.7851 420.344C82.4283 423.522 82.1667 424.024 81.6435 422.734C80.93 421.061 80.0976 421.347 79.5506 423.451C79.1463 424.956 78.9085 425.291 78.0285 425.578C76.3637 426.103 76.0069 426.581 73.8189 431.003C71.6309 435.424 71.4406 436.81 72.7724 437.503C73.4859 437.862 73.367 437.91 71.4644 438.149L69.3477 438.388L67.6115 436.5C64.5198 433.13 62.0701 430.357 61.2615 429.33C60.8334 428.78 60.2626 428.087 59.9772 427.776C59.1924 426.94 58.2173 425.721 57.0995 424.239C56.5525 423.498 56.0055 422.805 55.9103 422.71C55.5547 422.273 55.2213 421.818 54.9114 421.347C54.5984 420.873 54.2569 420.418 53.8888 419.985C53.6509 419.794 51.5105 417.046 50.8683 415.922C50.5975 415.523 50.3037 415.14 49.9884 414.775C49.6792 414.44 48.1095 412.17 46.7063 409.995C46.4685 409.661 45.8739 408.824 45.3745 408.179C44.9901 407.737 44.6771 407.237 44.4469 406.697C44.2261 406.214 43.929 405.77 43.567 405.383C43.0675 404.809 42.8059 404.355 42.9724 404.355C43.1389 404.355 43.0913 404.355 42.9724 404.092C41.1845 401.659 39.5939 399.085 38.2158 396.397C38.2217 396.299 38.203 396.202 38.1614 396.115C38.1198 396.027 38.0567 395.951 37.978 395.895C37.1679 394.974 36.5022 393.934 36.004 392.812C35.751 392.138 35.4069 391.503 34.9813 390.924C34.3154 389.896 33.9111 389.059 34.0538 389.059C34.1965 389.059 34.0538 388.94 33.9111 388.797C33.7684 388.653 27.347 376.56 25.8724 373.095C25.373 371.9 24.4692 369.892 23.8984 368.697C23.3277 367.502 22.8282 366.307 22.8044 366.307C22.7806 366.307 22.5904 365.71 22.3763 365.184C22.2 364.793 22.0645 364.384 21.972 363.965C21.7606 363.308 21.4982 362.669 21.1872 362.053C20.7899 361.23 20.4405 360.384 20.1407 359.52C19.9134 358.83 19.6515 358.152 19.3559 357.488C19.1188 356.992 18.9122 356.481 18.7375 355.959C18.7375 355.768 18.1905 354.31 17.596 352.732C16.1214 348.765 13.862 341.882 13.862 341.309C13.8279 340.934 13.723 340.569 13.5528 340.233C12.7864 338.158 12.1587 336.035 11.674 333.876C11.674 333.493 11.3173 332.394 11.0556 331.486L10.5086 329.526C10.5086 329.526 10.5086 329.168 10.3421 328.953C10.1757 328.738 9.89027 326.993 9.48596 325.129C9.08165 323.265 8.60599 321.257 8.46329 320.707C8.3206 320.158 7.96385 318.604 7.6071 316.453C7.6071 316.166 7.34549 315.043 7.13144 313.92C6.632 311.267 6.58444 310.98 6.10878 307.969C5.89473 306.559 5.6569 305.125 5.60933 304.743C5.60933 303.978 4.72936 298.075 4.58667 296.76C3.52607 287.399 3.07324 277.979 3.23104 268.559C3.07772 259.148 3.52257 249.736 4.56288 240.382C4.56288 239.736 4.89585 237.824 5.10989 236.128C5.53799 232.83 5.53799 232.782 6.085 229.508C6.27526 228.289 6.51309 226.855 6.58444 226.281C6.7747 224.991 7.39306 221.501 7.63089 220.354C7.63089 219.876 7.96385 218.801 8.13033 217.964C8.29681 217.128 8.67734 215.574 8.93895 214.403C9.20056 213.232 9.65244 211.225 9.9854 209.814L10.6275 206.923C10.6275 206.731 10.8416 206.134 10.9605 205.56C11.0794 204.987 11.341 204.174 11.5075 203.696C11.674 203.218 12.0307 202.023 12.3161 200.996C13.6718 196.072 14.2901 193.969 14.5279 193.348C14.7658 192.726 15.1701 191.508 15.5744 190.121C15.8406 189.137 16.1907 188.178 16.6208 187.254C16.8031 187.004 16.9029 186.703 16.9062 186.393C16.9855 185.881 17.1546 185.388 17.4057 184.935C17.7387 184.254 17.9787 183.53 18.1192 182.784C18.1758 182.293 18.3558 181.824 18.6424 181.422C18.7366 181.344 18.8114 181.245 18.861 181.133C18.9105 181.021 18.9334 180.899 18.9278 180.777C18.9963 180.29 19.1324 179.815 19.3321 179.367C19.5462 178.841 19.7602 178.315 19.784 178.22C19.8078 178.124 20.0218 177.622 20.2359 177.096C20.3936 176.739 20.5286 176.372 20.6402 175.997C20.8201 175.45 21.0346 174.915 21.2823 174.396C21.6391 173.607 22.3288 172.006 22.8044 170.835C23.2801 169.664 24.1363 167.704 24.6833 166.509C25.2303 165.314 25.7297 164.119 25.7773 164.119C25.9438 163.521 32.4841 150.664 32.9122 150.233C33.3403 149.803 33.1976 149.779 33.1024 149.779C33.4377 148.847 33.8935 147.963 34.4581 147.15C36.5985 143.494 37.8828 141.247 38.3347 140.339C38.5488 139.933 38.8579 139.574 39.0244 139.574C39.1909 139.574 39.2385 139.431 39.0244 139.24C38.8104 139.049 39.0244 138.905 39.1671 138.905C39.3098 138.905 39.5239 138.666 39.5239 138.403C39.5239 138.14 39.6903 137.878 39.8806 137.878C40.0709 137.878 40.166 137.878 40.0709 137.591C39.9757 137.304 40.1898 136.993 40.5703 136.587C40.8438 136.331 41.0623 136.022 41.2124 135.679C41.2124 135.32 49.6316 122.821 50.6067 121.722C51.1824 121.031 51.7146 120.304 52.2002 119.547C52.771 118.71 53.4845 117.73 53.8174 117.348C54.1504 116.966 55.173 115.675 56.1957 114.456C58.0984 112.066 58.1697 111.899 60.0723 109.533C60.8096 108.601 61.642 107.597 61.9274 107.31C62.2128 107.023 64.1392 104.92 67.1835 101.264C68.6104 99.5669 83.451 84.5342 85.092 83.1958C89.8486 79.0852 90.8475 78.2248 91.3232 77.7707C91.7988 77.3166 92.6074 76.6474 93.535 75.9066C94.4625 75.1657 95.2949 74.4726 95.3901 74.3531C95.4852 74.2336 100.741 70.1468 101.978 69.2147L105.189 66.8248C106.782 65.6298 109.208 63.9091 110.564 62.977L118.578 57.6475C120.219 56.5481 121.789 55.5682 122.075 55.4487C122.332 55.3667 122.567 55.2279 122.764 55.0424C124.247 53.9645 125.842 53.0511 127.521 52.3179C127.568 52.3212 127.615 52.3151 127.659 52.3C127.704 52.2849 127.745 52.2612 127.78 52.2301C127.816 52.199 127.845 52.1612 127.865 52.1188C127.886 52.0765 127.898 52.0304 127.901 51.9833C127.904 51.9362 127.917 51.8902 127.937 51.8478C127.958 51.8055 127.987 51.7677 128.022 51.7366C128.058 51.7055 128.099 51.6817 128.143 51.6667C128.188 51.6516 128.235 51.6455 128.282 51.6487C129.262 51.2554 130.202 50.7672 131.088 50.1909C134.228 48.2789 152.707 39.0777 153.397 39.0777C154.206 38.7936 155 38.4665 155.775 38.0978C156.964 37.572 158.677 36.8551 159.604 36.4966C160.532 36.1381 161.673 35.684 162.149 35.445C162.585 35.2126 163.061 35.0666 163.552 35.0148C163.696 35.0223 163.84 34.996 163.972 34.9379C164.104 34.8798 164.221 34.7916 164.313 34.6802C164.692 34.398 165.132 34.2096 165.597 34.1305C166.145 34.0198 166.679 33.8516 167.191 33.6286C167.476 33.4852 168.713 33.0312 169.902 32.6249C171.091 32.2186 172.423 31.7645 172.78 31.5972C173.137 31.4299 175.158 30.7607 177.536 30.0676C179.915 29.3746 181.984 28.6815 182.436 28.5381C182.888 28.3947 183.886 28.084 184.648 27.8928L188.025 27.0085C203.948 22.7683 220.245 20.1028 236.685 19.0501C242.155 18.6677 268.792 18.9067 272.169 19.3608M286.653 21.7029C287.009 22.7306 286.462 24.0928 285.654 24.0928C284.845 24.0928 285.059 22.7067 285.392 21.7029C285.725 20.6991 286.201 20.4362 286.653 21.7029ZM292.646 21.5117L294.406 21.7268L293.407 22.7067C293.06 23.0804 292.669 23.4095 292.242 23.6865C291.447 23.4305 290.734 22.9689 290.173 22.3482C289.316 21.2488 289.578 21.1532 292.551 21.5117M322.303 54.9707C323.302 55.5443 323.445 55.7594 322.969 55.8311C321.852 56.0701 320.734 55.5921 320.734 54.8751C320.734 54.1582 320.734 54.0387 322.303 54.8751M352.484 65.0324C352.339 65.6637 352.116 66.274 351.818 66.8487C350.914 68.7607 350.962 69.0713 352.627 71.294C355.457 75.094 358.929 77.3883 358.929 75.4525C358.804 73.8673 358.435 72.3113 357.835 70.8399C357.749 70.7395 357.693 70.6171 357.672 70.4863C357.651 70.3556 357.666 70.2215 357.716 70.099C357.93 69.7644 357.502 68.689 356.836 67.8764C354.648 65.1758 352.508 63.7657 352.484 65.0324ZM342.971 80.1367C354.458 85.8248 355.053 86.2789 355.433 89.9116C355.53 91.0112 355.729 92.0994 356.028 93.1619C356.361 94.1178 356.313 94.3329 355.504 95.1455C354.696 95.9581 354.41 96.8663 354.957 97.8461C356.405 100.842 357.537 103.982 358.335 107.215C358.137 108.1 357.659 108.897 356.973 109.487C356.287 110.077 355.43 110.429 354.529 110.489C353.079 110.489 352.46 109.366 352.151 106.068C351.604 101.288 350.129 99.2801 346.824 99.2801C345.732 99.3254 344.663 98.9588 343.827 98.2524C343.331 97.8496 342.76 97.5511 342.147 97.3745C341.534 97.198 340.892 97.1471 340.26 97.2247C339.23 97.3153 338.195 97.1254 337.263 96.6751C336.247 96.2354 335.158 95.9922 334.052 95.9581C333.182 95.9605 332.318 95.7983 331.507 95.4801C331.507 95.3128 332.387 95.2889 333.767 95.4801C336.145 95.7191 336.145 95.6952 336.026 94.9782C335.907 94.2612 336.026 94.2612 336.954 94.2612C338.618 94.2612 339.07 93.9745 339.499 92.66C339.927 91.3455 339.713 90.9153 337.691 92.3254C335.669 93.7355 335.313 93.7833 335.313 93.138C335.177 92.5192 334.953 91.9235 334.647 91.3694C333.719 89.4097 333.791 88.9795 335.598 87.7845L337.192 86.6134H335.336C332.958 86.4701 332.625 86.1355 332.625 84.2235C332.625 82.8374 332.768 82.4789 333.553 81.8336C334.338 81.1883 334.456 81.0688 334.1 80.1128C333.743 79.1569 333.743 79.0374 334.861 78.5594C335.479 78.2965 336.002 77.8424 336.002 77.5556C336.002 76.8864 336.002 76.9342 342.947 80.304M342.947 93.1141C340.283 94.0222 340.283 93.9983 343.803 95.6952L347.347 97.416C348.465 98.0373 348.655 97.7983 348.441 96.1254C347.87 91.943 347.275 91.6084 342.947 93.1141ZM369.655 95.9342C371.541 97.1396 373.359 98.4481 375.102 99.8537C375.75 100.407 376.433 100.918 377.147 101.383C377.908 101.909 378.598 102.411 378.693 102.507L381.214 104.538C383.307 106.187 384.686 107.31 385.97 108.434C386.161 108.625 387.326 109.629 388.515 110.656C398.13 119.104 406.958 128.416 414.89 138.475C416.46 140.411 416.46 140.411 415.176 140.865C412.013 141.869 408.469 141.343 408.469 139.885C408.469 139.431 407.018 138.786 402.904 137.495C400.859 136.802 398.885 136.109 398.504 135.942L394.794 134.388C393.105 133.695 391.607 133.002 391.417 132.883C391.226 132.763 389.776 131.95 388.206 131.114L382.95 128.222C380.572 126.979 378.526 126.525 379.192 127.41C379.858 128.294 380.001 129.011 378.693 128.437C373.794 126.334 373.342 125.761 372.676 120.861C372.224 117.467 369.679 102.435 368.942 98.8021C368.323 95.6713 368.109 95.3845 366.159 95.3606C364.78 95.3606 364.685 95.3606 365.351 94.9782C366.016 94.5958 366.112 94.4763 366.112 94.309C366.112 93.7116 366.92 94.0939 369.584 95.9581M373.889 121.506C373.988 121.952 374.156 122.38 374.388 122.773C374.649 123.232 374.826 123.734 374.911 124.255C374.882 124.692 374.973 125.129 375.174 125.518C375.376 125.907 375.679 126.233 376.053 126.46C376.426 126.687 376.854 126.807 377.29 126.805C377.727 126.804 378.154 126.683 378.526 126.454L379.406 125.832L378.098 124.637L375.53 122.247C374.222 121.052 373.912 120.885 373.912 121.411M95.4852 203.218C95.3736 203.26 95.2751 203.33 95.1998 203.423C95.1245 203.515 95.0752 203.626 95.0571 203.744C94.9617 204.237 94.7933 204.712 94.5576 205.154C92.1794 210.531 91.3232 213.614 92.5361 213.471C93.3209 213.471 93.5825 212.897 95.1047 208.954C97.483 202.764 97.483 202.406 95.4852 203.218ZM148.188 203.792C147.89 204.075 147.641 204.406 147.451 204.772C147.068 205.597 146.631 206.395 146.143 207.162C144.835 209.313 142.718 213.208 142.718 213.423C142.718 214.212 144.454 213.423 145.096 212.276C145.453 211.583 146.095 210.388 146.523 209.647C146.952 208.906 147.689 207.592 148.141 206.755C148.593 205.919 149.258 204.843 149.615 204.365C150.614 202.931 149.615 202.501 148.283 203.84M87.7082 225.899C87.7082 226.186 87.4703 226.687 87.3514 226.998C87.2325 227.309 86.9471 228.671 86.6617 229.986C86.3763 231.3 86.0433 232.925 85.9007 233.642C85.6153 234.861 85.639 234.909 86.5904 234.909C87.5417 234.909 87.5892 234.718 87.7319 233.977C87.8746 233.236 88.3027 231.587 88.7546 229.651C89.2065 227.715 89.587 226.042 89.587 225.827C89.587 225.206 87.8984 225.301 87.7082 225.827M137.224 225.947C137.228 226.279 137.128 226.605 136.939 226.879C135.763 229.791 134.801 232.787 134.061 235.841C133.218 238.371 132.691 240.996 132.491 243.656C132.491 244.612 132.349 245.353 132.111 245.448C131.374 245.687 130.256 255.223 129.947 264.018C129.643 272.968 130.289 281.925 131.873 290.738C132.682 294.705 133.681 299.15 133.918 299.915C134.156 300.68 134.537 301.922 134.941 303.309C136.121 307.428 137.543 311.474 139.198 315.426L141.339 320.205C142.076 321.831 143.337 324.34 144.145 325.822L146.333 329.693C146.55 330.171 146.848 330.608 147.213 330.984C147.293 331.03 147.358 331.096 147.404 331.176C147.45 331.256 147.475 331.346 147.475 331.438C147.475 331.725 152.398 339.325 153.325 340.448L154.063 341.332C154.253 341.548 154.8 342.265 155.252 342.934C156.077 344.12 156.975 345.253 157.939 346.327L160.318 349.052C163.219 352.446 164.765 353.832 165.074 353.473C165.383 353.115 165.074 352.159 162.553 349.339C161.316 347.953 159.889 346.304 159.366 345.658C158.843 345.013 158.296 344.392 158.201 344.296C154.399 339.454 150.904 334.378 147.736 329.096C147.528 328.559 147.248 328.052 146.904 327.59C144.77 323.875 142.856 320.037 141.172 316.095C140.673 314.876 140.031 313.394 139.745 312.773C139.246 311.649 137.129 305.603 136.154 302.353C131.577 286.478 130.226 269.841 132.182 253.431C133.142 245.102 135.033 236.909 137.819 229.006C138.437 227.165 138.96 225.588 138.96 225.54C138.96 225.492 138.556 225.54 138.104 225.54C137.652 225.54 137.248 225.731 137.248 226.162M413.368 226.831C413.606 227.787 414.367 231.157 414.914 233.547C415.044 234.075 415.147 234.609 415.223 235.148C415.223 235.291 415.699 235.411 416.27 235.411C416.841 235.411 417.269 235.291 417.126 234.813C416.983 234.335 415.652 228.432 415.342 226.831C415.2 226.066 414.986 225.899 414.153 225.899C413.321 225.899 413.154 225.899 413.368 226.831ZM417.197 241.385C417.197 243.991 417.197 246.954 417.316 247.982C419.21 264.424 418.802 281.053 416.103 297.382C415.295 302.161 414.914 304.073 414.581 305.364C414.415 306.033 413.939 307.945 413.559 309.618C413.178 311.291 412.702 313.06 412.536 313.514C412.369 313.968 411.918 315.521 411.513 316.907C410.491 320.516 408.873 325.368 408.231 326.778C407.6 328.693 407.366 330.719 407.542 332.729C407.779 333.948 412.298 321.855 414.082 315.043C415.747 308.853 416.008 307.73 417.435 300.704C420.61 283.168 421.187 265.257 419.148 247.552C418.553 242.772 417.626 236.94 417.435 236.749C417.271 238.265 417.192 239.789 417.197 241.314M84.7828 239.402C84.545 240.812 84.2121 242.796 84.0218 243.823C80.9776 260.84 81.9765 286.077 86.4001 306.655C88.2789 315.163 94.1771 333.278 94.843 332.585C95.509 331.892 94.4625 325.75 93.1069 323.288C92.8609 322.746 92.6774 322.176 92.5599 321.592C92.438 321.019 92.2629 320.459 92.0367 319.919C92.0367 319.632 91.561 318.556 91.2518 317.529C90.9426 316.501 90.4908 314.9 90.2054 313.968C89.92 313.036 89.5394 311.578 89.3254 310.741C88.2314 306.224 87.946 304.91 87.4941 302.592C87.2087 301.182 86.852 299.341 86.6855 298.505C86.0433 295.398 85.1158 288.204 84.5926 282.54C84.3785 280.389 84.2121 274.056 84.2121 268.44C84.0851 261.804 84.4189 255.168 85.2109 248.579C85.3398 246.263 85.3398 243.941 85.2109 241.624L85.0445 236.845L84.6164 239.378M304.442 376.775C303.681 377.181 301.184 378.329 298.853 379.308L293.954 381.388C292.384 382.081 284.703 384.495 281.516 385.283L276.759 386.454C276.117 386.622 274.024 387.028 272.121 387.363C269.148 387.888 268.649 388.056 268.649 388.629C268.649 389.203 269.577 389.322 274.404 388.366C278.066 387.743 281.681 386.873 285.226 385.761C290.83 384.089 296.327 382.069 301.684 379.715C302.017 379.524 303.039 379.022 304.062 378.591C305.917 377.731 306.25 377.42 306.274 376.536C306.297 375.652 306.107 375.819 304.419 376.775M373.532 383.037C371.582 385.188 367.967 388.773 365.541 391.019C361.07 395.154 360.618 395.799 362.853 395.512C364.304 395.225 376.695 383.156 377.123 381.651C377.837 378.807 377.242 379.046 373.579 383.037M78.6706 443.191C77.4337 443.806 76.0435 444.039 74.6751 443.861C74.3897 443.598 75.127 443.406 78.6706 442.905C78.8609 442.905 78.8609 442.905 78.6706 443.191ZM107.044 480.522C105.046 481.741 104.237 483.94 105.403 485.087C106.049 485.925 106.399 486.955 106.399 488.015C106.399 489.074 106.049 490.104 105.403 490.942C105.062 491.486 104.842 492.097 104.761 492.735C104.761 493.284 104.38 493.643 103.286 494.121C101.55 494.862 100.717 495.913 100.717 497.347C100.717 498.303 100.099 499.211 98.5294 500.526C98.3026 500.773 98.134 501.069 98.0361 501.391C97.9381 501.712 97.9134 502.052 97.9636 502.385C98.0138 502.717 98.1377 503.034 98.3262 503.312C98.5147 503.591 98.763 503.822 99.0526 503.991C100.004 504.398 100.266 504.35 102.168 503.298C104.396 501.913 106.794 500.828 109.303 500.072C111.722 499.469 114.104 498.727 116.438 497.849C116.895 497.617 117.384 497.456 117.889 497.371C120.457 496.822 121.742 495.698 122.17 493.595L122.384 492.567L118.911 491.086C114.369 489.174 114.155 489.03 117.556 489.03C120.101 489.03 120.338 489.03 120.338 488.361C120.338 487.692 120.338 487.692 120.077 487.692C118.249 486.485 116.641 484.974 115.32 483.223C114.941 482.486 114.421 481.833 113.79 481.298C113.159 480.764 112.43 480.36 111.644 480.109C110.857 479.859 110.03 479.766 109.208 479.837C108.386 479.908 107.586 480.14 106.853 480.522" fill="white" fill-opacity="0.15"/>
</svg>
