<svg width="55" height="41" viewBox="0 0 55 41" fill="none" xmlns="http://www.w3.org/2000/svg">
<path d="M48.4065 17.6538L28.4561 25.2615L8.50637 17.7638L7.36989 28.1734C7.31682 28.6013 7.46662 29.0297 7.77451 29.3315C8.08295 29.6327 8.51355 29.7731 8.94029 29.7118C10.0325 29.5526 11.1497 29.4719 12.2596 29.4719C18.8895 29.4719 24.8217 32.2805 27.0212 36.4605C27.26 36.9148 27.7309 37.1989 28.2439 37.1989H28.6673C29.1803 37.1989 29.6512 36.9148 29.89 36.461C32.09 32.281 38.0217 29.4724 44.6504 29.4724C45.7631 29.4724 46.8803 29.5531 47.9709 29.7123C48.0378 29.7228 48.1776 29.7261 48.1815 29.7267C48.9448 29.7267 49.6198 29.1524 49.5634 28.3448C49.5556 28.226 48.4065 17.6538 48.4065 17.6538Z" fill="#3CACE4"/>
<path d="M53.6061 9.81824L28.9379 0.534031C28.624 0.41574 28.2785 0.41574 27.964 0.534031L3.23281 9.84256C2.69442 10.0454 2.33789 10.5606 2.33789 11.136V27.9428H5.43834V13.2122L27.9645 21.6899C28.2785 21.8082 28.6234 21.8082 28.9385 21.6899L53.6066 12.4052C54.145 12.2023 54.5016 11.6871 54.5016 11.1117C54.5016 10.5363 54.1439 10.0211 53.6061 9.81824Z" fill="#1F4497"/>
<path d="M0.859138 38.9184C0.818233 39.3081 0.944263 39.6967 1.20627 39.988C1.46828 40.2788 1.8414 40.4446 2.23331 40.4446H5.53993C5.93129 40.4446 6.30496 40.2782 6.56697 39.9875C6.82898 39.6967 6.95556 39.3081 6.9141 38.9179L6.01144 30.3484H1.76069L0.859138 38.9184Z" fill="#1F4497"/>
</svg>
