<svg width="600" height="854" viewBox="0 0 600 854" fill="none" xmlns="http://www.w3.org/2000/svg">
<g clip-path="url(#clip0_145_2)">
<path d="M128.134 -1.36237C128.226 -1.05377 129.472 -1.15623 130.892 -1.57911C133.917 -2.48005 133.702 -2.75188 130.406 -2.30794C129.055 -2.10698 128.024 -1.7327 128.134 -1.36237Z" fill="black"/>
<path d="M184.227 3.97058C187.466 7.1721 188.741 8.06899 189.729 7.77481C191.457 7.25999 191.406 5.05775 189.703 2.27247C188.209 -0.0374294 186.014 -0.862075 182.478 -0.548136L180.004 -0.281498L184.227 3.97058Z" fill="black"/>
<path d="M170.563 6.83107C169.932 7.42203 169.264 8.56191 169.034 9.36953C168.66 10.8246 168.857 11.0347 171.933 12.336C177.987 14.8336 188.481 20.5103 192.442 23.4295C202.674 30.9316 206.663 38.6808 203.645 45.0223C202.877 46.7295 202.877 46.7295 204.963 48.9974C211.347 55.7642 219.733 61.1285 225.425 62.1881L228.2 62.7055L233.172 53.9003C235.835 49.0755 238.138 45.2986 238.174 45.4221C238.229 45.6072 236.583 51.1372 234.417 57.6284L230.568 69.5262L240.866 74.9929C251.04 80.4963 261.642 87.8881 275.759 99.4072C282.768 105.114 286.263 106.694 287.347 104.691C288.604 102.368 286.796 99.6814 277.1 89.4662C271.818 83.9167 267.651 79.1774 267.781 78.9371C268.127 78.2962 273.381 82.8464 278.527 88.1674C283.612 93.5068 288.154 96.1186 292.509 96.2998C294.28 96.3772 295.668 96.2997 295.631 96.1763C295.594 96.0528 293.519 94.0502 290.945 91.7259C285.877 87.1206 285.336 86.2066 286.562 84.2289C287.274 83.0089 287.662 82.9603 291.11 83.4789L294.885 83.9674L293.681 81.5038L292.458 78.9785L295.163 80.3902C297.468 81.5852 298.301 81.6731 300.221 80.8996C302.098 80.2062 302.647 80.2442 303.108 81.1149C303.821 82.3808 302.967 83.5758 300.93 84.1826C299.325 84.6606 296.787 88.7763 297.21 90.1959C297.376 90.7513 298.776 90.9391 301.083 90.7893C303.064 90.6698 304.773 90.7656 304.846 91.0125C304.92 91.2594 304.02 93.8793 302.885 96.8379C301.75 99.7966 300.887 102.54 300.997 102.91C301.089 103.219 303.046 105.727 305.341 108.47L309.502 113.413L304.017 110.343C298.675 107.298 293.538 106.073 291.296 107.345C289.968 108.077 293.711 112.069 302.112 118.839C307.415 123.106 310.493 126.221 316.02 133.041C319.921 137.793 324.297 143.007 325.756 144.521C330.958 150.028 338.096 153.008 342.744 151.691L344.535 151.158L340.757 158.331L343.345 162.734C350.248 174.856 354.745 178.22 361.344 176.456C363.381 175.85 363.381 175.85 362.058 177.05C355.056 183.1 353.937 184.307 353.359 186.428C353.054 187.661 352.903 189.184 353.087 189.801C353.601 191.53 357.096 193.109 359.195 192.484C360.924 191.969 361.022 192.074 362.878 195.822C363.99 197.977 364.745 199.835 364.615 200.076C364.547 200.298 362.206 201.465 359.495 202.743L354.574 204.948L356.223 213.192C359.88 231.791 359.568 245.861 355.264 253.526C352.955 257.507 351.027 259.156 338.752 266.911C332.884 270.675 326.687 275.141 325.024 276.779C313.489 288.143 319.102 303.606 335.208 304.655C337.873 304.802 342.926 304.843 346.455 304.732C354.84 304.452 356.924 304.907 364.955 308.629C373.849 312.767 376.544 313.241 387.188 312.423C392.581 312.026 397.713 312.11 399.921 312.528C404.781 313.499 414.314 318.656 417.226 321.888C424.526 329.927 427.435 340.82 425.626 353.252C424.525 360.837 422.273 366.816 415.106 381.113C405.263 400.642 404.592 403.127 408.778 404.77C411.071 405.699 414.026 405.693 419.192 404.759C422.512 404.173 422.814 404.285 424.143 406.039C426.173 408.794 427.678 408.884 431.65 406.424C436.678 403.448 438.382 403.075 441.186 404.592C443.429 405.805 445.2 408.368 447.399 413.493C448.025 414.919 448.228 414.925 451.692 413.692C456.884 411.944 461.523 409.017 466.647 404.332C478.631 393.573 486.032 379.61 497.353 346.537C500.524 337.328 504.616 327.374 508.947 318.222C518.805 297.613 519.891 294.266 520.084 284.532C520.314 274.25 520.589 272.69 523.998 264.955C525.56 261.399 526.955 257.96 527.098 257.312C527.384 256.017 526.447 256.028 517.874 257.708L513.177 258.636L512.084 253.385C508.997 239.185 514.42 227.155 527.533 219.284C534.476 215.066 550.044 210.698 554.558 211.638C555.49 211.831 556.264 213.079 557.768 216.998C558.879 219.826 560.009 222.042 560.22 221.846C560.43 221.649 562.072 218.136 563.875 214.037L567.136 206.481L564.635 204.403C562.233 202.431 562.043 202.017 560.328 195.809C559.324 192.21 558.321 187.94 558.207 186.428L557.892 183.566L575.535 166.081L572.685 156.514C570.357 148.472 569.807 145.948 569.675 141.217C569.494 132.938 570.785 123.281 573.046 115.754C574.121 112.141 574.942 108.805 574.832 108.435C574.409 107.016 564.518 104.72 557.64 104.417C555.666 104.333 551.599 104.671 548.711 105.128C539.084 106.651 529.664 112.481 523.842 120.464C522.543 122.195 520.189 126.928 518.632 130.953C517.094 135.039 514.956 139.372 513.874 140.702C507.887 148.13 494.75 152.311 480.415 151.34C478.138 151.144 471.724 150.367 466.105 149.554C446.289 146.654 441.934 146.473 432.714 148.009C428.184 148.821 423.373 148.238 420.47 146.616C419.25 145.905 418.394 145.286 418.579 145.231C418.764 145.176 422.095 145.528 425.931 145.998L433.055 146.9L431.417 145.237C430.531 144.292 426.952 141.527 423.465 139.072C414.298 132.664 413.031 130.891 407.328 116.933C405.873 113.402 403.809 109.178 402.782 107.536C400.605 104.287 396.029 100.207 394.856 100.556C394.424 100.685 394.629 100.019 395.248 99.1628L396.442 97.5305L393.638 96.0138C390.914 94.5404 386.355 94.3527 382.466 95.5111C381.355 95.842 380.794 95.5387 380.008 94.0259C377.967 90.3332 374.702 87.9459 370.81 87.2907C366.592 86.6657 359.594 87.5404 359.943 88.7131C360.274 89.8241 363.728 93.2974 365.983 94.776C370.253 97.6033 371.378 99.3512 372.392 104.559C373.777 112.143 374.274 113.137 378.394 116.815C383.105 121.124 384.366 123.1 384.47 126.16C384.508 128.769 383.444 130.161 380.666 130.989C378.321 131.687 376.029 130.085 373.773 126.121C369.857 119.291 368.131 118.461 359.825 119.457C353.852 120.161 349.269 119.442 342.852 116.852C329.217 111.237 323.468 101.862 327.917 92.2044L329.144 89.5543L326.615 86.4775C319.87 78.2727 312.008 73.0883 306.141 73.0215C305.265 73.0136 304.626 71.9946 303.54 69.0255C301.761 64.1798 299.759 62.4241 295.731 62.2127C294.164 62.1419 292.851 61.7939 292.864 61.3868C292.896 61.0414 294.459 59.9711 296.404 59.0558C298.287 58.1588 299.924 57.3354 300.029 57.2369C300.072 57.1568 299.236 55.9276 298.097 54.5869L296.017 52.1155L298.099 50.7562C299.241 50.0799 300.693 49.3117 301.31 49.1278C302.607 48.7417 302.299 48.1613 298.164 43.0766C292.028 35.5639 284.831 31.2567 278.47 31.337C275.312 31.337 274.244 31.5879 271.545 33.131L268.37 34.8829L264.833 32.7109C262.917 31.4673 261.223 30.2921 261.131 29.9835C261.058 29.7366 262.237 29.1837 263.78 28.724C266.867 27.8047 266.929 27.7863 264.977 25.747C260.501 21.0996 250.659 19.1931 234.802 19.8842C227.454 20.2586 227.33 20.2954 228.102 22.8876L228.746 25.0479L225.042 26.151C223.005 26.7578 221.283 27.0691 221.191 26.7605C221.117 26.5136 221.935 25.1951 222.998 23.8031C224.044 22.3493 224.861 21.0308 224.806 20.8457C224.512 19.8582 220.526 17.0808 219.545 17.1715C218.051 17.3475 215.897 20.9457 214.493 25.9333C213.163 30.4954 212.501 31.4317 211.931 29.5184C211.766 28.9629 209.501 26.5467 206.988 24.204C192.166 10.543 175.248 2.47899 170.563 6.83107ZM393.263 101.299C393.3 101.423 392.57 102.581 391.654 103.795C390.565 105.328 389.898 105.796 389.732 105.24C389.604 104.808 390.272 103.669 391.218 102.782C393.171 100.991 393.171 100.991 393.263 101.299Z" fill="black"/>
<path d="M302.374 59.6965L303.35 62.2953L306.8 61.4692L310.232 60.5814L306.337 58.785C304.211 57.7384 302.176 57.0004 301.911 57.0123C301.602 57.1042 301.828 58.3137 302.374 59.6965Z" fill="black"/>
<path d="M355.391 61.2422C353.698 62.5528 352.525 66.0604 353.094 67.9738C353.866 70.566 358.924 74.2337 364.743 76.3977C367.622 77.4889 370.286 78.3083 370.718 78.1796C371.706 77.8854 370.756 74.4724 368.341 69.7489C365.816 64.655 363.385 61.6833 360.852 60.6236C358.46 59.5888 357.294 59.7346 355.391 61.2422Z" fill="black"/>
<path d="M338.804 75.0523C341.255 77.4134 343.963 77.4803 346.867 75.2714C347.683 74.6253 347.017 74.4204 343.556 74.3089C338.528 74.1265 337.874 74.1869 338.804 75.0523Z" fill="black"/>
<path d="M331.671 90.8175C330.866 92.4012 330.864 93.0736 331.597 93.7289C332.687 94.6809 337.334 94.036 337.022 92.9868C336.746 92.061 333.496 88.5942 333.063 88.7229C332.816 88.7964 332.216 89.7144 331.671 90.8175Z" fill="black"/>
<path d="M388.323 85.1655C387.137 85.9219 386.272 86.8517 386.4 87.2837C386.805 88.6415 391.299 90.1923 393.213 89.6224C394.201 89.3282 394.966 88.9657 394.93 88.8423C394.783 88.3485 390.757 83.6342 390.591 83.7511C390.485 83.8496 389.466 84.4891 388.323 85.1655Z" fill="black"/>
<path d="M351.197 108.991C348.758 110.053 346.708 111.067 346.603 111.165C346.491 111.467 356.771 116.872 357.585 116.899C357.869 116.949 358.142 116.061 358.236 115.025C358.269 114.007 358.453 111.466 358.661 109.455L359.002 105.86L357.291 106.436C356.384 106.774 353.636 107.928 351.197 108.991Z" fill="black"/>
<path d="M444.637 139.754C444.599 140.303 444.887 141.494 445.304 142.445C445.832 143.766 446.393 144.069 447.788 143.788C448.812 143.618 449.912 143.021 450.277 142.442C451.069 141.266 450.45 138.964 449.169 138.27C447.807 137.534 444.757 138.576 444.637 139.754Z" fill="black"/>
<path d="M273.72 391.777C274.261 392.691 274.919 393.772 275.269 394.272C275.693 395.02 275.211 395.432 272.711 396.513C264.961 399.829 254.36 413.2 252.973 421.408C252.318 425.299 252.336 425.361 255.238 433.299C259.398 444.558 260.04 447.391 259.451 451.732C257.811 463.375 250.115 477.024 242.313 481.968C236.154 485.885 234.324 487.64 232.577 491.251C230.502 495.565 229.763 500.758 230.104 509.123C231.02 528.673 228.379 541.017 219.596 558.013C214.183 568.495 210.447 573.102 202 579.716C190 589.069 188.009 591.409 175.383 611.297C163.147 630.464 160.587 633.376 147.1 642.702C137.302 649.518 135.07 651.728 127.554 661.694C118.869 673.15 117.973 673.753 105.941 677.807C93.7666 681.837 93.8717 681.738 86.7573 694.407C82.1505 702.633 81.9521 703.095 83.0408 704.719C84.0861 706.424 83.7327 707.268 81.5721 707.912C78.7325 708.758 74.4031 714.079 69.5862 722.502C66.7751 727.505 62.3628 734.128 59.7962 737.244C55.3367 742.806 53.0694 747.378 53.4461 750.223C53.58 751.124 52.566 752.232 49.7302 754.219C45.3064 757.418 43.742 759.161 40.7825 764.343C35.7304 773.105 37.2493 781.589 44.1182 783.441C45.4316 783.789 47.9914 784.034 49.7251 783.988C54.297 783.769 53.6835 785.094 48.4364 786.657C43.5596 788.109 43.578 788.171 46.8284 791.638L48.1706 792.985L36.2397 792.641C24.4139 792.199 24.3522 792.217 24.2628 793.722C24.1747 794.555 23.9747 798.848 23.7064 803.363C23.4814 807.797 23.2696 811.825 23.2748 812.294C23.1684 813.065 26.6201 811.566 37.7858 805.956C40.7686 804.463 40.4874 806.226 37.2049 809.421C32.5131 813.977 32.2711 817.678 36.7314 817.76C38.0146 817.781 39.2479 818.086 39.5 818.481C39.7338 818.815 39.8257 819.123 39.7022 819.16C36.3188 820.437 14.0586 830.091 13.9285 830.331C13.7118 830.731 18.8369 843.652 19.3359 843.974C19.4778 843.999 21.3061 842.916 23.3078 841.514C25.3096 840.111 27.1379 839.029 27.3782 839.159C27.6002 839.228 27.646 840.961 27.4817 842.891L27.2463 846.388L31.1971 845.212C33.3577 844.568 35.1846 844.158 35.2214 844.282C35.2582 844.405 35.1569 845.645 35.0307 847.026C34.6351 850.437 36.2662 852.303 40.0776 852.915C42.4089 853.296 45.0134 852.789 57.2413 849.617C72.963 845.539 73.0248 845.521 79.2612 839.833C85.7696 833.93 89.9712 833.821 97.3323 839.356C103.739 844.167 105.231 844.664 109.552 843.377C111.465 842.807 114.3 841.492 115.82 840.502C119.983 837.783 123.884 836.89 131.935 836.844C138.74 836.901 139.246 837.019 139.527 838.413C139.752 839.623 139.115 840.417 136.483 842.411C133.807 844.484 133.214 845.199 133.458 846.47C133.696 847.945 134.078 848.1 138.057 847.922C143.487 847.649 153.753 844.659 161.287 841.071C168.821 837.483 168.697 837.52 170.766 839.726C175.727 845.102 181.727 843.584 201.542 832.038C214.877 824.236 224.426 815.68 233.205 803.859C239.793 794.841 243.707 787.897 245.706 781.523C248.284 773.027 249.675 771.605 259.963 766.659C266.484 763.508 268.721 761.766 269.806 759.091C270.606 757.039 270.626 753.27 269.905 752.88C269.665 752.75 267.818 753.77 265.736 755.129C263.673 756.55 261.863 757.694 261.74 757.731C261.369 757.841 262.598 748.202 264.092 738.551C266.623 722.679 270.132 711.218 275.594 701.125L278.437 695.776L276.178 686.84C271.454 667.819 271.447 656.062 276.301 647.762C278.846 643.443 280.49 641.744 288.9 635.006C292.25 632.261 299.691 625.879 305.358 620.764C315.118 612.011 319.907 608.233 325.218 605.307C327.25 604.231 327.51 603.75 327.391 601.77C327.35 600.505 327.842 598.545 328.467 597.485C330.336 594.509 333.501 594.306 346.354 596.391C352.497 597.383 357.999 598.029 358.554 597.864C359.418 597.606 359.401 596.872 358.298 593.169C356.644 587.614 357.73 587.425 361.088 592.607C364.095 597.289 365.138 597.18 367.265 591.91C370.08 584.889 368.206 581.08 361.288 579.512C358.192 578.821 350.006 578.639 343.897 579.114L342.058 579.259L339.944 572.161C337.426 563.705 337.466 559.326 340.03 554.396C341.962 550.729 343.922 548.734 351.51 542.846C361.755 534.822 364.021 530.922 366.524 516.535C368.939 502.982 370.323 499.277 381.52 478.202C387.187 467.443 392.83 456.153 394.045 453.238C396.439 447.284 399.846 437.063 399.644 436.384C399.571 436.137 397.431 435.498 394.903 434.907L390.29 433.862L385.425 426.777L380.541 419.631L382.677 415.971C383.822 413.95 387.079 408.41 389.883 403.611C396.161 392.871 395.842 392.025 387.65 397.691C384.647 399.795 381.811 401.782 381.373 402.114C380.934 402.446 381.646 401.226 382.927 399.433C384.269 397.623 386.193 394.832 387.307 393.156L389.257 390.224L386.95 389.701C381.24 388.58 372.143 393.238 364.983 401.015C360.148 406.218 359.986 406.804 362.87 408.364C364.152 409.057 366.538 409.623 368.149 409.614L371.042 409.626L367.205 412.314C365.16 413.796 363.307 415.02 363.122 415.076C362.875 415.149 362.384 413.951 361.924 412.408L361.079 409.569L352.261 407.492L343.486 405.335L342.027 406.979C341.285 407.872 338.526 411.247 335.996 414.487C333.466 417.726 329.892 421.747 328.106 423.422C322.895 428.266 320.137 428.483 316.561 424.374C314.536 422.088 314.063 420.952 311.025 410.299C307.178 396.931 307.929 397.648 300.612 400.835C295.153 403.267 292.809 403.294 289.105 401.239C285.802 399.4 283.793 395.362 284.663 392.415C285.669 389.025 287.918 387.549 293.911 386.234C296.886 385.617 299.614 385.073 299.941 385.043C300.33 384.994 300.535 384.328 300.419 383.489L300.2 382.076L272.853 390.221L273.72 391.777Z" fill="black"/>
<path d="M356.487 380.161C355.344 380.838 353.818 382.032 353.162 382.764C351.827 384.372 350.526 389.933 350.809 393.141L351.002 395.369L353.201 394.176C358.796 391.3 362.046 385.964 361.985 379.666C361.939 377.933 361.84 377.828 360.316 378.349C359.408 378.687 357.691 379.467 356.487 380.161Z" fill="black"/>
<path d="M349.434 399.128C344.823 403.055 347.78 405.534 354.632 403.493C356.792 402.85 357.651 402.124 358.982 400.047L360.659 397.33L357.23 396.873C353.012 396.248 352.579 396.377 349.434 399.128Z" fill="black"/>
<path d="M26.6502 781.655C26.7789 782.087 27.09 783.809 27.346 785.345L27.8212 788.295L31.4055 788.369C33.4412 788.435 35.4152 788.519 35.7607 788.551C36.2295 788.545 35.77 787.002 34.407 783.78L32.3191 779.026L29.356 779.909C27.2571 780.534 26.4664 781.038 26.6502 781.655Z" fill="black"/>
<path d="M17.4337 817.729C15.7642 819.57 15.156 821.364 15.2174 824.504L15.1949 826.459L31.7389 821.532L30.6502 819.908C28.2273 816.06 24.4738 814.288 20.8934 815.355C19.9057 815.649 18.3427 816.719 17.4337 817.729Z" fill="black"/>
</g>
<defs>
<clipPath id="clip0_145_2">
<rect width="600" height="854" fill="white"/>
</clipPath>
</defs>
</svg>
