<svg width="36" height="41" viewBox="0 0 36 41" fill="none" xmlns="http://www.w3.org/2000/svg">
<path d="M32.3169 29.2819V29.0206H32.272C32.272 25.8655 29.7128 23.3064 26.5577 23.3064C23.4026 23.3064 20.8434 25.8655 20.8434 29.0206V34.7349C20.8434 36.3145 19.5658 37.5921 17.9863 37.5921C16.4067 37.5921 15.1291 36.3145 15.1291 34.7349V25.9676C17.0312 25.4043 19.1903 23.7513 21.6801 20.9594C23.7781 18.6043 25.3414 16.286 25.4924 16.0655C26.1128 15.1717 26.5618 13.7472 26.5618 12.6615V3.30636C26.5618 1.73085 25.2801 0.449219 23.7046 0.449219H20.8475V3.30636H23.7046V12.6574C23.7046 13.0819 23.4965 13.8002 23.2597 14.2451C23.0801 14.3962 19.272 17.5921 13.6883 17.5921C10.7536 17.5921 8.32095 16.69 6.79442 15.9309C5.19442 15.139 4.21891 14.3309 4.12095 14.2451C3.89646 13.8043 3.70871 13.1349 3.70871 12.7227V3.30636H6.56585V0.449219H3.70871C2.1332 0.449219 0.851562 1.73085 0.851562 3.30636V12.7268C0.851562 13.8206 1.30462 15.2492 1.92911 16.1349C2.09238 16.3757 3.65156 18.6696 5.73728 20.9962C8.22707 23.7717 10.3822 25.4125 12.2801 25.9717V34.7349C12.2801 37.89 14.8393 40.4492 17.9944 40.4492C21.1495 40.4492 23.7087 37.89 23.7087 34.7349V29.0206C23.7087 27.4411 24.9863 26.1635 26.5658 26.1635C28.1454 26.1635 29.423 27.4411 29.423 29.0206V29.2655C27.7577 29.8533 26.5658 31.4411 26.5658 33.3064C26.5658 35.6737 28.4842 37.5921 30.8516 37.5921C33.2189 37.5921 35.1373 35.6737 35.1373 33.3064C35.1291 31.4574 33.9577 29.8819 32.3169 29.2819ZM13.4312 23.3064C12.6842 23.1921 11.0761 22.5431 8.3536 19.6329C9.90054 20.1145 11.6965 20.4492 13.6842 20.4492C15.6761 20.4492 17.4761 20.1104 19.0271 19.6288C16.3128 22.5431 14.7128 23.1921 13.9658 23.3064H13.4312ZM30.8434 34.7349C30.0556 34.7349 29.4148 34.0941 29.4148 33.3064C29.4148 32.5186 30.0556 31.8778 30.8434 31.8778C31.6312 31.8778 32.272 32.5186 32.272 33.3064C32.272 34.0941 31.6312 34.7349 30.8434 34.7349Z" fill="#1F4497"/>
</svg>
