<svg width="41" height="41" viewBox="0 0 41 41" fill="none" xmlns="http://www.w3.org/2000/svg">
<path d="M18.4041 21.1361V10.7488H12.5117V27.6008H14.0146V40.9686H20.0203V21.1361H18.4041Z" fill="#1F4497"/>
<path d="M21.6396 21.1361H20.0234V40.9686H26.0291V27.6008H27.532V10.7488H21.6396V21.1361Z" fill="#1F4497"/>
<path d="M21.6415 10.7488H18.4092V21.1361H21.6415V10.7488Z" fill="#3CACE4"/>
<path d="M20.0225 9.93757V0.96875C17.5497 0.96875 15.5381 2.98047 15.5381 5.45312C15.5381 7.92577 17.5497 9.93757 20.0225 9.93757Z" fill="#1F4497"/>
<path d="M29.6299 10.7488V40.9686H38.5188V27.6008H40.0217V10.7488H29.6299Z" fill="#3CACE4"/>
<path d="M34.1143 9.93757V0.96875C31.6415 0.96875 29.6299 2.98047 29.6299 5.45312C29.6299 7.92577 31.6416 9.93757 34.1143 9.93757Z" fill="#1F4497"/>
<path d="M0.0234375 27.6008H1.52631V40.9686H10.4152V10.7488H0.0234375V27.6008Z" fill="#3CACE4"/>
<path d="M1.44727 5.45312C1.44727 7.92585 3.45899 9.93757 5.93164 9.93757V0.96875C3.45899 0.96875 1.44727 2.98047 1.44727 5.45312Z" fill="#1F4497"/>
<path d="M24.5078 5.45312C24.5078 2.98047 22.4962 0.96875 20.0234 0.96875V9.93757C22.4962 9.93757 24.5078 7.92585 24.5078 5.45312Z" fill="#1F4497"/>
<path d="M38.5996 5.45312C38.5996 2.98039 36.5879 0.96875 34.1152 0.96875V9.93757C36.5879 9.93757 38.5996 7.92585 38.5996 5.45312Z" fill="#1F4497"/>
<path d="M5.93164 0.96875V9.93757C8.40437 9.93757 10.416 7.92585 10.416 5.45312C10.416 2.98039 8.40429 0.96875 5.93164 0.96875Z" fill="#1F4497"/>
</svg>
