<svg width="898" height="319" viewBox="0 0 898 319" fill="none" xmlns="http://www.w3.org/2000/svg">
<style>
.stroke_1{-webkit-animation:stroke_1 50s infinite linear;animation:stroke_1 50s infinite linear}@-webkit-keyframes stroke_1{100%{stroke-dashoffset:1000}}.logo{-webkit-animation:rotate_Z 5s infinite linear;animation:rotate_Z 5s infinite linear;-webkit-transform-origin:center;-ms-transform-origin:center;transform-origin:center;transform-box:fill-box}@-webkit-keyframes rotate_Z{0%{-webkit-transform:rotateZ(0deg);transform:rotateZ(0deg)}25%{-webkit-transform:rotateZ(-5deg);transform:rotateZ(-5deg)}50%{-webkit-transform:rotateZ(0deg);transform:rotateZ(0deg)}75%{-webkit-transform:rotateZ(5deg);transform:rotateZ(5deg)}100%{-webkit-transform:rotateZ(0deg);transform:rotateZ(0deg)}}
</style>
<g clip-path="url(#clip0_235_1222)">
<path d="M103.706 245.484L123.604 152.621L80.8439 136.113L93.0816 240.887C93.1336 241.373 93.4207 241.893 93.9251 242.143L101.158 246.567C102.151 247.184 103.425 246.643 103.706 245.484Z" fill="#0070A6"/>
<path d="M100.991 246.483L101.159 246.567C102.151 247.185 103.425 246.643 103.707 245.484L123.605 152.621L80.8447 136.113L82.228 148.111C105.591 152.027 115.847 186.774 100.991 246.483Z" fill="#155A88"/>
<path d="M195.036 54.5987L135.138 128.342L95.4952 105.377L184.879 49.2277C185.331 48.9912 185.885 48.8886 186.339 49.0717L194.322 51.9825C195.414 52.3145 195.822 53.6896 195.036 54.5987Z" fill="#0070A6"/>
<path d="M194.154 51.8987L194.322 51.9821C195.465 52.3812 195.755 53.7399 195.087 54.6654L135.189 128.409L95.546 105.444L105.798 98.9634C123.493 114.733 157.003 100.889 194.154 51.8987Z" fill="#155A88"/>
<path d="M199.692 181.087C146.951 161.809 72.4311 135.42 56.3875 126.711C40.3439 118.003 30.5149 100.393 33.8823 93.4322C37.1991 86.4043 62.7626 85.7138 74.6354 92.1031C86.5081 98.4923 194.292 162.656 205.459 168.947C216.728 175.372 215.439 186.338 199.692 181.087Z" fill="white"/>
<path d="M118.214 126.823C167.104 153.953 201.979 171.998 209.987 182.043C215.151 180.246 213.399 173.471 205.511 169.015C194.293 162.657 86.5766 98.4425 74.6874 92.1708C62.8147 85.7816 37.3018 86.539 33.9344 93.4999C33.7513 93.9538 33.5681 94.4076 33.5026 94.8778C48.1451 91.2866 85.6714 108.803 118.214 126.823Z" fill="#EDEDED"/>
<path d="M187.534 214.147L200.579 179.892L181.268 172.705L182.942 211.409C182.976 211.594 183.061 211.845 183.229 211.929L186.411 214.469C186.797 214.703 187.351 214.601 187.534 214.147Z" fill="#056798"/>
<path d="M223.473 139.041L204.98 170.679L187.336 160.129L218.582 137.161C218.716 137.06 218.967 136.975 219.135 137.058L223.067 138.086C223.487 138.084 223.707 138.654 223.473 139.041Z" fill="#056798"/>
<path d="M58.1956 90.9476C54.2505 90.877 50.6268 91.5103 47.811 92.7955L53.0905 95.3293C54.5119 93.7298 56.1521 92.2806 58.1956 90.9476Z" fill="#8CD3F6"/>
<path d="M51.7705 97.0627L45.5327 94.0957C44.0756 95.091 42.8879 96.3036 42.087 97.75L49.3336 101.217C49.95 99.805 50.7509 98.3587 51.7705 97.0627Z" fill="#8CD3F6"/>
<path d="M46.5445 115.21C46.5445 115.21 46.3351 112.843 46.8774 109.384L41.7155 106.866C42.5469 109.499 44.0837 112.23 46.5445 115.21Z" fill="#8CD3F6"/>
<path d="M47.2892 107.284C47.5871 106.007 47.9683 104.562 48.5177 103.201L41.271 99.7334C40.8392 101.111 40.8107 102.605 41.0514 104.317L47.2892 107.284Z" fill="#8CD3F6"/>
<path d="M90.2869 139.285L92.1538 135.351L87.1614 133.337L85.2276 137.321C86.8749 137.971 88.5221 138.62 90.2869 139.285Z" fill="#8CD3F6"/>
<path d="M96.725 141.681L98.5085 137.915L93.5161 135.9L91.6493 139.834C93.3129 140.366 95.0108 141.082 96.725 141.681Z" fill="#8CD3F6"/>
<path d="M148.373 160.627L149.474 158.323L144.481 156.309L143.298 158.78C145.012 159.379 146.777 160.044 148.373 160.627Z" fill="#8CD3F6"/>
<path d="M141.936 158.231L143.119 155.759L138.127 153.745L136.86 156.385C138.558 157.101 140.272 157.699 141.936 158.231Z" fill="#8CD3F6"/>
<path d="M122.541 151.212L124.058 148.068L118.999 146.104L117.466 149.366C119.113 150.015 120.827 150.614 122.541 151.212Z" fill="#8CD3F6"/>
<path d="M135.483 155.953L136.817 153.263L131.824 151.248L130.407 154.107C132.054 154.756 133.769 155.354 135.483 155.953Z" fill="#8CD3F6"/>
<path d="M116.037 148.868L117.637 145.555L112.645 143.541L111.028 146.971C112.675 147.62 114.323 148.269 116.037 148.868Z" fill="#8CD3F6"/>
<path d="M109.599 146.472L111.283 142.991L106.291 140.977L104.591 144.575C106.238 145.224 107.885 145.873 109.599 146.472Z" fill="#8CD3F6"/>
<path d="M103.162 144.076L104.929 140.428L99.9366 138.413L98.1532 142.179C99.7335 142.879 101.448 143.478 103.162 144.076Z" fill="#8CD3F6"/>
<path d="M128.979 153.608L130.346 150.682L125.353 148.668L123.903 151.762C125.617 152.36 127.332 152.959 128.979 153.608Z" fill="#8CD3F6"/>
<path d="M154.877 162.971L155.878 160.954L150.885 158.939L149.852 161.192C151.633 161.74 153.281 162.389 154.877 162.971Z" fill="#8CD3F6"/>
<path d="M71.1432 131.762L73.0934 127.66L68.1011 125.645L66.1672 129.63C67.63 130.314 69.2608 131.08 71.1432 131.762Z" fill="#8CD3F6"/>
<path d="M60.6364 127.181C61.6958 127.748 63.108 128.365 64.8058 129.081L66.7396 125.096L62.4868 123.364C62.4198 123.415 61.4031 125.55 60.6364 127.181Z" fill="#8CD3F6"/>
<path d="M77.4973 134.326L79.4475 130.223L74.4551 128.209L72.5049 132.311C74.0346 132.944 75.6819 133.593 77.4973 134.326Z" fill="#8CD3F6"/>
<path d="M161.33 165.25L162.181 163.451L157.188 161.436L156.255 163.403C158.137 164.085 159.851 164.684 161.33 165.25Z" fill="#8CD3F6"/>
<path d="M167.331 167.344L168.031 165.764L163.543 164L162.693 165.799C165.668 166.813 167.331 167.344 167.331 167.344Z" fill="#8CD3F6"/>
<path d="M83.867 136.772L85.8008 132.787L80.8085 130.773L78.8583 134.875C80.4549 135.457 82.1022 136.107 83.867 136.772Z" fill="#8CD3F6"/>
<path d="M103.973 110.753L102.107 114.687L97.3807 112.051L99.3145 108.066C100.761 108.867 102.308 109.802 103.973 110.753Z" fill="#8CD3F6"/>
<path d="M109.843 114.208L108.06 117.974L103.334 115.338L105.201 111.403C106.748 112.338 108.296 113.273 109.843 114.208Z" fill="#8CD3F6"/>
<path d="M156.992 142.653L155.892 144.957L151.166 142.32L152.349 139.849C154.014 140.8 155.562 141.735 156.992 142.653Z" fill="#8CD3F6"/>
<path d="M151.138 139.081L149.954 141.552L145.228 138.916L146.495 136.276C148.043 137.211 149.59 138.146 151.138 139.081Z" fill="#8CD3F6"/>
<path d="M133.46 128.347L131.943 131.491L127.217 128.854L128.75 125.593C130.365 126.477 131.912 127.412 133.46 128.347Z" fill="#8CD3F6"/>
<path d="M145.233 135.441L143.9 138.132L139.174 135.495L140.591 132.637C142.189 133.639 143.736 134.573 145.233 135.441Z" fill="#8CD3F6"/>
<path d="M127.605 124.774L126.005 128.086L121.279 125.45L122.896 122.02C124.51 122.904 126.058 123.839 127.605 124.774Z" fill="#8CD3F6"/>
<path d="M121.685 121.252L120.001 124.732L115.275 122.096L116.975 118.498C118.59 119.382 120.137 120.317 121.685 121.252Z" fill="#8CD3F6"/>
<path d="M115.764 117.73L113.997 121.379L109.271 118.742L111.055 114.976C112.669 115.86 114.217 116.795 115.764 117.73Z" fill="#8CD3F6"/>
<path d="M139.379 131.868L138.013 134.794L133.287 132.158L134.737 129.064C136.284 129.999 137.832 130.934 139.379 131.868Z" fill="#8CD3F6"/>
<path d="M162.845 146.226L161.845 148.244L157.119 145.607L158.152 143.354C159.868 144.373 161.466 145.374 162.845 146.226Z" fill="#8CD3F6"/>
<path d="M86.1115 100.473L84.1613 104.575L79.4354 101.939L81.3692 97.9539C82.765 98.6878 84.3289 99.5051 86.1115 100.473Z" fill="#8CD3F6"/>
<path d="M75.9384 95.2192C77.0648 95.7358 78.41 96.4028 80.0245 97.287L78.0907 101.272L74.0879 99.036C74.1549 98.9854 75.1211 96.7831 75.9384 95.2192Z" fill="#8CD3F6"/>
<path d="M92.049 103.877L90.0988 107.979L85.3729 105.343L87.3231 101.241C88.8364 101.991 90.3839 102.926 92.049 103.877Z" fill="#8CD3F6"/>
<path d="M168.75 149.866L167.9 151.665L163.174 149.028L164.107 147.061C165.823 148.079 167.37 149.014 168.75 149.866Z" fill="#8CD3F6"/>
<path d="M174.166 153.137L173.349 154.701L169.128 152.315L169.978 150.516C172.619 152.203 174.166 153.137 174.166 153.137Z" fill="#8CD3F6"/>
<path d="M97.9857 107.281L96.0519 111.266L91.326 108.63L93.2762 104.528C94.8237 105.462 96.4382 106.347 97.9857 107.281Z" fill="#8CD3F6"/>
<path d="M184.845 213.233L186.411 214.469C186.798 214.703 187.351 214.601 187.467 214.197L200.512 179.943L181.268 172.705L181.417 177.22C193.259 179.531 195.75 196.476 184.845 213.233Z" fill="#155A88"/>
<path d="M221.051 137.505L223.016 138.019C223.42 138.135 223.707 138.654 223.473 139.041L204.98 170.679L187.336 160.129L191.003 157.465C200.177 165.156 214.803 156.528 221.051 137.505Z" fill="#155A88"/>
</g>
<g class="stroke_1">
    <path d="M210 179C415 276.5 709.685 16.2936 897.5 317.999" stroke="white" stroke-dasharray="10 10"/>
</g>
<defs>
<clipPath id="clip0_235_1222">
<rect width="189.518" height="195.225" fill="white" transform="translate(114.377 269.5) rotate(-127.063)"/>
</clipPath>
</defs>
</svg>
