<svg width="44" height="41" viewBox="0 0 44 41" fill="none" xmlns="http://www.w3.org/2000/svg">
<path d="M41.2467 28.0321C41.4923 28.0321 41.6914 27.833 41.6914 27.5875V25.5381C41.6914 25.3393 41.5594 25.1647 41.3682 25.1104L30.0237 21.8897C29.9842 21.8785 29.9433 21.8728 29.9023 21.8728H24.845C24.5995 21.8728 24.4004 22.0719 24.4004 22.3175V27.5875C24.4004 27.833 24.5995 28.0321 24.845 28.0321H41.2467Z" fill="#3CACE4"/>
<path d="M16.3721 3.70342C16.6177 3.70342 16.8168 3.50435 16.8168 3.25877V1.4134C16.8168 1.16782 16.6177 0.96875 16.3721 0.96875H8.5013C8.25571 0.96875 8.05664 1.16782 8.05664 1.4134V3.25877C8.05664 3.50435 8.25571 3.70342 8.5013 3.70342H16.3721Z" fill="#3CACE4"/>
<path d="M43.0994 40.5233V39.3597C43.0994 39.1141 42.9003 38.915 42.6548 38.915H41.6948V29.4212C41.6948 29.1756 41.4957 28.9765 41.2501 28.9765H23.8C23.5544 28.9765 23.3553 28.7775 23.3553 28.5319V10.5056C23.3553 10.26 23.1562 10.0609 22.9107 10.0609H20.5305C20.2849 10.0609 20.0859 9.86187 20.0859 9.61629V4.99544C20.0859 4.74985 19.8867 4.55078 19.6412 4.55078H5.23353C4.98795 4.55078 4.78887 4.74985 4.78887 4.99544V9.61633C4.78887 9.86192 4.5898 10.061 4.34422 10.061H2.10227C1.85669 10.061 1.65761 10.2601 1.65761 10.5056V28.9766V36.1593V38.9151H0.608718C0.363135 38.9151 0.164062 39.1142 0.164062 39.3597V40.5233C0.164062 40.7689 0.363135 40.968 0.608718 40.968H42.6548C42.9003 40.9679 43.0994 40.7689 43.0994 40.5233ZM19.6958 31.0367C19.6958 31.2823 19.4967 31.4814 19.2511 31.4814H5.62358C5.378 31.4814 5.17893 31.2823 5.17893 31.0367V29.6138C5.17893 29.3683 5.378 29.1692 5.62358 29.1692H19.2511C19.4967 29.1692 19.6958 29.3683 19.6958 29.6138V31.0367ZM19.6958 27.524C19.6958 27.7696 19.4967 27.9686 19.2511 27.9686H5.62358C5.378 27.9686 5.17893 27.7696 5.17893 27.524V26.1011C5.17893 25.8555 5.378 25.6564 5.62358 25.6564H19.2511C19.4967 25.6564 19.6958 25.8555 19.6958 26.1011V27.524ZM19.6958 24.0112C19.6958 24.2568 19.4967 24.4559 19.2511 24.4559H5.62358C5.378 24.4559 5.17893 24.2568 5.17893 24.0112V22.5883C5.17893 22.3427 5.378 22.1436 5.62358 22.1436H19.2511C19.4967 22.1436 19.6958 22.3427 19.6958 22.5883V24.0112ZM19.6958 20.4984C19.6958 20.744 19.4967 20.9431 19.2511 20.9431H5.62358C5.378 20.9431 5.17893 20.744 5.17893 20.4984V19.0755C5.17893 18.8299 5.378 18.6309 5.62358 18.6309H19.2511C19.4967 18.6309 19.6958 18.8299 19.6958 19.0755V20.4984ZM19.6958 16.9856C19.6958 17.2312 19.4967 17.4303 19.2511 17.4303H5.62358C5.378 17.4303 5.17893 17.2312 5.17893 16.9856V15.5628C5.17893 15.3172 5.378 15.1181 5.62358 15.1181H19.2511C19.4967 15.1181 19.6958 15.3172 19.6958 15.5628V16.9856ZM36.6161 38.915H28.7213V34.9668C28.7213 34.7213 28.9204 34.5222 29.166 34.5222H36.1715C36.417 34.5222 36.6161 34.7213 36.6161 34.9668V38.915Z" fill="#1F4497"/>
</svg>
