<svg width="61" height="61" viewBox="0 0 61 61" fill="none" xmlns="http://www.w3.org/2000/svg">
<path d="M59.4142 28.6047H38.4618C38.0829 28.6048 37.7195 28.7553 37.4516 29.0232C37.1837 29.2911 37.0332 29.6544 37.0332 30.0333V58.6047C37.0332 58.9836 37.1837 59.347 37.4516 59.6149C37.7195 59.8828 38.0829 60.0333 38.4618 60.0333H59.4142C59.793 60.0333 60.1564 59.8828 60.4243 59.6149C60.6922 59.347 60.8427 58.9836 60.8427 58.6047V30.0333C60.8427 29.6544 60.6922 29.2911 60.4243 29.0232C60.1564 28.7553 59.793 28.6048 59.4142 28.6047ZM46.557 52.8905C46.557 53.2693 46.4065 53.6327 46.1386 53.9006C45.8707 54.1685 45.5073 54.319 45.1284 54.319C44.7496 54.319 44.3862 54.1685 44.1183 53.9006C43.8504 53.6327 43.6999 53.2693 43.6999 52.8905V35.7476C43.6999 35.3687 43.8504 35.0053 44.1183 34.7374C44.3862 34.4695 44.7496 34.319 45.1284 34.319C45.5073 34.319 45.8707 34.4695 46.1386 34.7374C46.4065 35.0053 46.557 35.3687 46.557 35.7476V52.8905ZM54.1761 52.8905C54.1761 53.2693 54.0256 53.6327 53.7576 53.9006C53.4897 54.1685 53.1264 54.319 52.7475 54.319C52.3686 54.319 52.0052 54.1685 51.7373 53.9006C51.4694 53.6327 51.3189 53.2693 51.3189 52.8905V35.7476C51.3189 35.3687 51.4694 35.0053 51.7373 34.7374C52.0052 34.4695 52.3686 34.319 52.7475 34.319C53.1264 34.319 53.4897 34.4695 53.7576 34.7374C54.0256 35.0053 54.1761 35.3687 54.1761 35.7476V52.8905Z" fill="#3CACE4"/>
<path d="M47.9866 13.3665H45.0059L42.1561 8.37956C41.864 7.86981 41.4427 7.44611 40.9346 7.1512C40.4265 6.85629 39.8497 6.70061 39.2622 6.69987H32.2723V1.46177C32.2723 1.08289 32.1218 0.719531 31.8539 0.451622C31.586 0.183713 31.2226 0.0332031 30.8438 0.0332031C30.4649 0.0332031 30.1015 0.183713 29.8336 0.451622C29.5657 0.719531 29.4152 1.08289 29.4152 1.46177V6.69987H22.4253C21.8378 6.70061 21.261 6.85629 20.7529 7.1512C20.2448 7.44611 19.8235 7.86981 19.5314 8.37956L16.6816 13.3665H13.7009C13.322 13.3666 12.9587 13.5171 12.6908 13.785C12.4229 14.0529 12.2723 14.4162 12.2723 14.7951V20.9856H8.93899C6.79276 20.9881 4.73514 21.8417 3.21752 23.3594C1.69991 24.877 0.846225 26.9346 0.84375 29.0808V58.6046C0.843768 58.9835 0.994283 59.3469 1.26219 59.6148C1.53009 59.8827 1.89345 60.0332 2.27232 60.0332H32.7485C33.1274 60.0332 33.4908 59.8827 33.7587 59.6148C34.0266 59.3469 34.1771 58.9835 34.1771 58.6046C34.1771 58.2257 34.0266 57.8624 33.7587 57.5945C33.4908 57.3266 33.1274 57.1761 32.7485 57.1761H21.7961V53.3665H32.7485C33.1274 53.3665 33.4908 53.216 33.7587 52.9481C34.0266 52.6802 34.1771 52.3168 34.1771 51.938C34.1771 51.5591 34.0266 51.1957 33.7587 50.9278C33.4908 50.6599 33.1274 50.5094 32.7485 50.5094H20.3676C19.9887 50.5094 19.6253 50.6599 19.3574 50.9278C19.0895 51.1957 18.939 51.5591 18.939 51.938V57.1761H15.1295V16.2237H46.558V24.3189C46.558 24.6978 46.7085 25.0612 46.9765 25.3291C47.2444 25.597 47.6077 25.7475 47.9866 25.7475C48.3655 25.7475 48.7289 25.597 48.9968 25.3291C49.2647 25.0612 49.4152 24.6978 49.4152 24.3189V14.7951C49.4152 14.4162 49.2646 14.0529 48.9967 13.785C48.7288 13.5171 48.3655 13.3666 47.9866 13.3665ZM3.70089 29.0808C3.70254 27.6921 4.25494 26.3607 5.23692 25.3787C6.21889 24.3968 7.55026 23.8444 8.93899 23.8427H12.2723V57.1761H3.70089V29.0808ZM19.9723 13.3665L22.0119 9.79701C22.0537 9.72423 22.1139 9.66373 22.1865 9.6216C22.259 9.57947 22.3414 9.55719 22.4254 9.55701H39.2622C39.3461 9.55719 39.4285 9.57947 39.5011 9.6216C39.5736 9.66373 39.6338 9.72423 39.6756 9.79701L41.7152 13.3665H19.9723Z" fill="#1E4397"/>
<path d="M42.272 20.0325H19.4149C19.036 20.0325 18.6727 20.183 18.4047 20.4509C18.1368 20.7188 17.9863 21.0822 17.9863 21.461C17.9863 21.8399 18.1368 22.2033 18.4047 22.4712C18.6727 22.7391 19.036 22.8896 19.4149 22.8896H42.272C42.6509 22.8896 43.0143 22.7391 43.2822 22.4712C43.5501 22.2033 43.7006 21.8399 43.7006 21.461C43.7006 21.0822 43.5501 20.7188 43.2822 20.4509C43.0143 20.183 42.6509 20.0325 42.272 20.0325Z" fill="#1E4397"/>
<path d="M32.7482 27.6519H19.4149C19.036 27.6519 18.6727 27.8024 18.4047 28.0703C18.1368 28.3382 17.9863 28.7015 17.9863 29.0804C17.9863 29.4593 18.1368 29.8227 18.4047 30.0906C18.6727 30.3585 19.036 30.509 19.4149 30.509H32.7482C33.1271 30.509 33.4905 30.3585 33.7584 30.0906C34.0263 29.8227 34.1768 29.4593 34.1768 29.0804C34.1768 28.7015 34.0263 28.3382 33.7584 28.0703C33.4905 27.8024 33.1271 27.6519 32.7482 27.6519Z" fill="#1E4397"/>
<path d="M32.7482 35.2722H19.4149C19.036 35.2722 18.6727 35.4227 18.4047 35.6906C18.1368 35.9585 17.9863 36.3219 17.9863 36.7008C17.9863 37.0797 18.1368 37.443 18.4047 37.7109C18.6727 37.9789 19.036 38.1294 19.4149 38.1294H32.7482C33.1271 38.1294 33.4905 37.9789 33.7584 37.7109C34.0263 37.443 34.1768 37.0797 34.1768 36.7008C34.1768 36.3219 34.0263 35.9585 33.7584 35.6906C33.4905 35.4227 33.1271 35.2722 32.7482 35.2722Z" fill="#1E4397"/>
<path d="M32.7482 42.8906H19.4149C19.036 42.8906 18.6727 43.0411 18.4047 43.309C18.1368 43.577 17.9863 43.9403 17.9863 44.3192C17.9863 44.6981 18.1368 45.0614 18.4047 45.3293C18.6727 45.5973 19.036 45.7478 19.4149 45.7478H32.7482C33.1271 45.7478 33.4905 45.5973 33.7584 45.3293C34.0263 45.0614 34.1768 44.6981 34.1768 44.3192C34.1768 43.9403 34.0263 43.577 33.7584 43.309C33.4905 43.0411 33.1271 42.8906 32.7482 42.8906Z" fill="#1E4397"/>
</svg>
