<svg width="42" height="37" viewBox="0 0 42 37" fill="none" xmlns="http://www.w3.org/2000/svg">
<path d="M36.9046 20.1902C34.0948 20.1902 31.7218 17.9222 31.7218 15.2216C31.7218 18.0314 29.4538 20.1902 26.539 20.1902C23.7292 20.1902 21.3562 17.9222 21.3562 15.2216C21.3562 18.0314 19.0882 20.1902 16.1734 20.1902C13.3636 20.1902 10.9906 17.9222 10.9906 15.2216C10.9906 18.0314 8.7226 20.1902 5.8078 20.1902C2.998 20.1902 0.625 17.9222 0.625 15.2216L4.1908 6.04036H38.1016L41.7724 15.2216C41.9782 18.0314 39.7102 20.1902 36.9046 20.1902ZM36.1486 3.34396H6.7738C5.8036 3.34396 5.0476 2.58796 5.0476 1.72276C5.0476 0.857562 5.8036 0.101562 6.7738 0.101562H36.0394C37.0096 0.101562 37.7656 0.857562 37.7656 1.72276C37.8748 2.69716 37.1188 3.34396 36.1486 3.34396ZM7.4206 23.3234V33.9074H35.4976V23.3234C35.4976 23.3234 35.9302 23.3234 36.0394 23.3234H38.4166V34.445C38.4166 35.4152 37.228 36.6038 36.1486 36.6038H6.6646C5.5852 36.6038 4.3966 35.4152 4.3966 34.445V23.3234H7.4206Z" fill="#1F4497"/>
</svg>
