<svg width="49" height="61" viewBox="0 0 49 61" fill="none" xmlns="http://www.w3.org/2000/svg">
<path d="M48.0512 14.7471C47.8772 14.337 47.6162 13.9517 47.2931 13.641L34.6295 1.46207C34.3188 1.16381 33.9584 0.927686 33.5607 0.766128C33.1631 0.604571 32.7405 0.517578 32.3055 0.517578H7.99735C3.89627 0.517578 0.578125 3.83572 0.578125 7.9368V53.0984C0.578125 57.1994 3.89627 60.5176 7.99735 60.5176H40.9054C45.0065 60.5176 48.3246 57.1994 48.3246 53.0984V16.0644C48.3246 15.617 48.2252 15.1696 48.0512 14.7471ZM44.82 53.1108C44.82 55.2732 43.0553 57.0255 40.9054 57.0255H7.99735C5.83496 57.0255 4.08268 55.2607 4.08268 53.1108V7.94923C4.08268 5.78684 5.83496 4.03456 7.99735 4.03456H31.1995V9.71393C31.1995 13.8026 34.5301 17.1332 38.6187 17.1332H44.82V53.1108Z" fill="#1E4397"/>
<path d="M8.12109 30.5304C8.12109 31.4873 8.90403 32.2826 9.87337 32.2826H39.339C40.2959 32.2826 41.0913 31.4997 41.0913 30.5304C41.0913 29.5734 40.3083 28.7781 39.339 28.7781H9.87337C8.90403 28.7781 8.12109 29.5734 8.12109 30.5304Z" fill="#1E4397"/>
<path d="M39.3266 35.7742H9.87337C8.91645 35.7742 8.12109 36.5571 8.12109 37.5264C8.12109 38.4834 8.90403 39.2787 9.87337 39.2787H39.339C40.2959 39.2787 41.0913 38.4958 41.0913 37.5264C41.0788 36.5571 40.2959 35.7742 39.3266 35.7742Z" fill="#1E4397"/>
<path d="M39.3266 42.7712H9.87337C8.91645 42.7712 8.12109 43.5542 8.12109 44.5235C8.12109 45.4804 8.90403 46.2758 9.87337 46.2758H39.339C40.2959 46.2758 41.0913 45.4929 41.0913 44.5235C41.0788 43.5542 40.2959 42.7712 39.3266 42.7712Z" fill="#1E4397"/>
<path d="M26.1521 49.7561H9.72298C8.76606 49.7561 7.9707 50.539 7.9707 51.5084C7.9707 52.4777 8.75364 53.2607 9.72298 53.2607H26.1646C27.1215 53.2607 27.9168 52.4777 27.9168 51.5084C27.9168 50.539 27.1215 49.7561 26.1521 49.7561Z" fill="#1E4397"/>
<path d="M15.8496 25.535H23.5422C23.5049 22.3412 23.6292 20.6262 21.5538 19.8681C19.6648 19.1473 18.5464 18.4141 18.5464 18.4141L17.0923 22.9998L16.8935 23.6212L16.2473 21.7819C17.7386 19.6941 16.1354 19.5947 15.8496 19.5947C15.5762 19.5947 13.9606 19.6941 15.4519 21.7819L14.8057 23.6212L14.6068 22.9998L13.1404 18.4141C13.1404 18.4141 12.0095 19.1473 10.1329 19.8681C8.05754 20.6262 8.18181 22.3287 8.14453 25.535H15.4519H15.8496Z" fill="#3CACE4"/>
<path d="M12.5709 15.5051C12.7324 16.5863 13.5651 17.9533 14.9321 18.438C15.4913 18.6368 16.1127 18.6368 16.6719 18.438C18.0141 17.9533 18.8716 16.5863 19.0456 15.5051C19.232 15.4927 19.4681 15.2317 19.7167 14.3245C20.0646 13.0818 19.6918 12.8953 19.3811 12.9326C19.4433 12.7586 19.493 12.5971 19.5178 12.4231C20.0522 9.2168 18.4739 9.10495 18.4739 9.10495C18.4739 9.10495 18.2129 8.59542 17.517 8.2226C17.0572 7.94919 16.4109 7.73793 15.5659 7.81249C15.2925 7.82492 15.0315 7.87463 14.7829 7.96162C14.4723 8.06104 14.1864 8.2226 13.9254 8.39658C13.6023 8.59542 13.3041 8.84397 13.0431 9.12981C12.6206 9.55234 12.2477 10.1116 12.0862 10.8075C11.9495 11.3295 11.9868 11.8639 12.0986 12.4355C12.1235 12.6095 12.1732 12.7711 12.2353 12.9451C11.9246 12.9202 11.5518 13.0942 11.8998 14.3369C12.1607 15.2317 12.3969 15.4927 12.5709 15.5051Z" fill="#3CACE4"/>
</svg>
