<svg width="63" height="61" viewBox="0 0 63 61" fill="none" xmlns="http://www.w3.org/2000/svg">
<path d="M23.7031 12.0767C22.9117 12.0767 21.0683 15.171 20.791 20.9291H26.6152C26.3379 15.171 24.4946 12.0767 23.7031 12.0767Z" fill="#3CACE4"/>
<path d="M17.8361 20.9277C17.9099 18.2203 18.4442 15.5453 19.4162 13.0173C17.8466 13.7364 16.4821 14.837 15.447 16.2188C14.4119 17.6005 13.7392 19.2193 13.4902 20.9277H17.8361Z" fill="#3CACE4"/>
<path d="M29.5625 20.9277H33.9084C33.6594 19.2193 32.9867 17.6005 31.9516 16.2188C30.9165 14.837 29.552 13.7364 27.9824 13.0173C28.9544 15.5453 29.4887 18.2203 29.5625 20.9277Z" fill="#3CACE4"/>
<path d="M20.791 23.8792C21.0683 29.6373 22.9117 32.7316 23.7031 32.7316C24.4946 32.7316 26.3379 29.6373 26.6152 23.8792H20.791Z" fill="#3CACE4"/>
<path d="M17.8361 23.8792H13.4902C13.7392 25.5875 14.4119 27.2064 15.447 28.5881C16.4821 29.9699 17.8466 31.0705 19.4162 31.7896C18.4442 29.2616 17.9099 26.5865 17.8361 23.8792Z" fill="#3CACE4"/>
<path d="M23.7002 6.17407C20.4903 6.17407 17.3525 7.12592 14.6836 8.90924C12.0147 10.6926 9.93448 13.2273 8.70611 16.1928C7.47774 19.1584 7.15634 22.4216 7.78256 25.5698C8.40878 28.718 9.95449 31.6098 12.2242 33.8796C14.494 36.1493 17.3858 37.695 20.534 38.3212C23.6822 38.9475 26.9454 38.6261 29.911 37.3977C32.8765 36.1693 35.4112 34.0891 37.1946 31.4202C38.9779 28.7513 39.9297 25.6135 39.9297 22.4036C39.9248 18.1008 38.2133 13.9756 35.1708 10.933C32.1282 7.8905 28.003 6.17902 23.7002 6.17407ZM23.7002 35.6823C21.0739 35.6823 18.5066 34.9035 16.323 33.4444C14.1393 31.9853 12.4373 29.9115 11.4323 27.4851C10.4273 25.0588 10.1643 22.3889 10.6767 19.813C11.189 17.2372 12.4537 14.8712 14.3108 13.0141C16.1678 11.1571 18.5339 9.8924 21.1097 9.38004C23.6855 8.86768 26.3554 9.13064 28.7818 10.1357C31.2081 11.1407 33.282 12.8427 34.741 15.0263C36.2001 17.21 36.9789 19.7773 36.9789 22.4036C36.975 25.9241 35.5747 29.2993 33.0853 31.7887C30.5959 34.2781 27.2207 35.6783 23.7002 35.6823Z" fill="#3CACE4"/>
<path d="M29.5625 23.8792C29.4887 26.5865 28.9544 29.2616 27.9824 31.7896C29.552 31.0705 30.9165 29.9699 31.9516 28.5881C32.9867 27.2064 33.6594 25.5875 33.9084 23.8792H29.5625Z" fill="#3CACE4"/>
<path d="M59.1027 0.271484H4.02075C3.10805 0.272588 2.23304 0.635646 1.58766 1.28102C0.942287 1.9264 0.579229 2.80141 0.578125 3.71411V47.9764C0.579229 48.8891 0.942287 49.7641 1.58766 50.4095C2.23304 51.0549 3.10805 51.4179 4.02075 51.419H21.2339V57.3207H16.8076C16.4163 57.3207 16.0411 57.4761 15.7644 57.7528C15.4877 58.0295 15.3322 58.4048 15.3322 58.7961C15.3322 59.1874 15.4877 59.5627 15.7644 59.8393C16.0411 60.116 16.4163 60.2715 16.8076 60.2715H46.3158C46.7071 60.2715 47.0824 60.116 47.3591 59.8393C47.6358 59.5627 47.7912 59.1874 47.7912 58.7961C47.7912 58.4048 47.6358 58.0295 47.3591 57.7528C47.0824 57.4761 46.7071 57.3207 46.3158 57.3207H41.8896V51.419H59.1027C60.0154 51.4179 60.8904 51.0549 61.5358 50.4095C62.1812 49.7641 62.5442 48.8891 62.5453 47.9764V3.71411C62.5442 2.80141 62.1812 1.9264 61.5358 1.28102C60.8904 0.635646 60.0154 0.272588 59.1027 0.271484ZM38.9388 57.3207H24.1847V51.419H38.9388V57.3207ZM59.5945 47.9764C59.5943 48.1068 59.5424 48.2317 59.4502 48.3239C59.358 48.416 59.2331 48.4679 59.1027 48.4682H4.02075C3.89039 48.4679 3.76545 48.416 3.67328 48.3239C3.5811 48.2317 3.5292 48.1068 3.52894 47.9764V44.5338H59.5945V47.9764ZM59.5945 41.583H3.52894V3.71411C3.52911 3.58372 3.58098 3.45873 3.67318 3.36654C3.76537 3.27434 3.89037 3.22247 4.02075 3.2223H59.1027C59.2331 3.22247 59.3581 3.27434 59.4503 3.36654C59.5425 3.45873 59.5943 3.58372 59.5945 3.71411V41.583Z" fill="#1E4397"/>
<path d="M54.1853 20.926H45.3328C44.9415 20.926 44.5663 21.0815 44.2896 21.3582C44.0129 21.6349 43.8574 22.0101 43.8574 22.4014C43.8574 22.7927 44.0129 23.168 44.2896 23.4447C44.5663 23.7214 44.9415 23.8768 45.3328 23.8768H54.1853C54.5766 23.8768 54.9519 23.7214 55.2286 23.4447C55.5053 23.168 55.6607 22.7927 55.6607 22.4014C55.6607 22.0101 55.5053 21.6349 55.2286 21.3582C54.9519 21.0815 54.5766 20.926 54.1853 20.926Z" fill="#1E4397"/>
<path d="M54.1853 10.5986H45.3328C44.9415 10.5986 44.5663 10.7541 44.2896 11.0308C44.0129 11.3075 43.8574 11.6827 43.8574 12.074C43.8574 12.4653 44.0129 12.8406 44.2896 13.1173C44.5663 13.394 44.9415 13.5495 45.3328 13.5495H54.1853C54.5766 13.5495 54.9519 13.394 55.2286 13.1173C55.5053 12.8406 55.6607 12.4653 55.6607 12.074C55.6607 11.6827 55.5053 11.3075 55.2286 11.0308C54.9519 10.7541 54.5766 10.5986 54.1853 10.5986Z" fill="#1E4397"/>
<path d="M54.1853 31.2559H45.3328C44.9415 31.2559 44.5663 31.4113 44.2896 31.688C44.0129 31.9647 43.8574 32.34 43.8574 32.7313C43.8574 33.1226 44.0129 33.4978 44.2896 33.7745C44.5663 34.0512 44.9415 34.2067 45.3328 34.2067H54.1853C54.5766 34.2067 54.9519 34.0512 55.2286 33.7745C55.5053 33.4978 55.6607 33.1226 55.6607 32.7313C55.6607 32.34 55.5053 31.9647 55.2286 31.688C54.9519 31.4113 54.5766 31.2559 54.1853 31.2559Z" fill="#1E4397"/>
</svg>
