<svg xmlns="http://www.w3.org/2000/svg" xmlns:xlink="http://www.w3.org/1999/xlink" fill="none" version="1.1" width="525" height="268" viewBox="0 0 525 268"><defs><mask id="master_svg0_82_5822" style="mask-type:alpha" maskUnits="userSpaceOnUse"><g><rect x="0" y="0" width="525" height="268" rx="0" fill="#FFFFFF" fill-opacity="1"/></g></mask></defs><g style="opacity:0.20000000298023224;" mask="url(#master_svg0_82_5822)"><g transform="matrix(1,0,0,-1,0,732)"><path d="M119.003,692.3399999999999C16.1734,666.076,2.0595,599.405,78.6776,506.471C153.28,419.5973,330.711,356.96753,475.882,367.0691C744.046,387.2722,740.013,575.162,471.85,653.954C356.923,688.299,175.458,708.502,119.003,692.3399999999999ZM350.874,544.857C429.508,544.857,502.094,530.715,532.338,512.532L582.744,482.227L522.256,494.349C489.996,502.43,393.215,514.552,310.548,522.633C225.865,532.735,137.149,548.8969999999999,112.9542,563.04C46.4174,599.405,60.5312,603.446,145.214,573.141C185.54,558.999,278.288,546.877,350.874,544.857Z" fill="#FFFFFF" fill-opacity="1" style="mix-blend-mode:passthrough"/></g></g></svg>