<svg width="16" height="16" viewBox="0 0 16 16" fill="none" xmlns="http://www.w3.org/2000/svg">
<path fill-rule="evenodd" clip-rule="evenodd" d="M7.56839 3.33333C6.64791 3.33333 5.90172 4.07953 5.90172 5C5.90172 5.92047 6.64791 6.66667 7.56839 6.66667C8.48886 6.66667 9.23505 5.92047 9.23505 5C9.23505 4.07953 8.48886 3.33333 7.56839 3.33333ZM4.56839 5C4.56839 3.34315 5.91153 2 7.56839 2C9.22524 2 10.5684 3.34315 10.5684 5C10.5684 6.65685 9.22524 8 7.56839 8C5.91153 8 4.56839 6.65685 4.56839 5ZM3.3543 13.3333H11.7825C11.3097 11.3987 9.7297 10 7.56839 10C5.40708 10 3.82708 11.3987 3.3543 13.3333ZM2.03231 13.131C2.60356 10.5891 4.70226 8.66667 7.56839 8.66667C10.4345 8.66667 12.5332 10.5891 13.1045 13.131C13.2976 13.9906 12.5929 14.6667 11.8361 14.6667H3.30067C2.5439 14.6667 1.83913 13.9906 2.03231 13.131Z" fill="#696963"/>
</svg>
