<svg width="16" height="16" viewBox="0 0 16 16" fill="none" xmlns="http://www.w3.org/2000/svg">
<path fill-rule="evenodd" clip-rule="evenodd" d="M3.13441 5.62838C3.26405 3.03564 5.40402 1 8 1C10.596 1 12.7359 3.03564 12.8656 5.62839L12.9922 8.16032L13.8727 9.92131C13.9564 10.0888 14 10.2734 14 10.4607C14 11.1267 13.4601 11.6667 12.794 11.6667H11.2667C10.9578 13.1882 9.61264 14.3333 8 14.3333C6.38736 14.3333 5.04219 13.1882 4.73335 11.6667H3.20601C2.53995 11.6667 2 11.1267 2 10.4607C2 10.2734 2.04359 10.0888 2.12732 9.92131L3.00782 8.16032L3.13441 5.62838ZM6.1138 11.6667C6.38836 12.4435 7.12919 13 8 13C8.87081 13 9.61164 12.4435 9.8862 11.6667H6.1138ZM8 2.33333C6.11452 2.33333 4.56024 3.81184 4.46608 5.69497L4.33949 8.2269C4.33027 8.41119 4.28291 8.59156 4.20039 8.7566L3.41202 10.3333H12.588L11.7996 8.7566C11.7171 8.59156 11.6697 8.41119 11.6605 8.2269L11.5339 5.69497C11.4398 3.81184 9.88548 2.33333 8 2.33333Z" fill="#696963"/>
</svg>
