<svg width="16" height="16" viewBox="0 0 16 16" fill="none" xmlns="http://www.w3.org/2000/svg">
<path fill-rule="evenodd" clip-rule="evenodd" d="M11.6667 2C12.0349 2 12.3333 2.29848 12.3333 2.66667V4.33333H14C14.3682 4.33333 14.6667 4.63181 14.6667 5C14.6667 5.36819 14.3682 5.66667 14 5.66667H12.3333V7.33333C12.3333 7.70152 12.0349 8 11.6667 8C11.2985 8 11 7.70152 11 7.33333V5.66667H9.33333C8.96514 5.66667 8.66667 5.36819 8.66667 5C8.66667 4.63181 8.96514 4.33333 9.33333 4.33333H11V2.66667C11 2.29848 11.2985 2 11.6667 2ZM2.33333 3.33333C2.33333 2.78105 2.78105 2.33333 3.33333 2.33333H6.66667C7.21895 2.33333 7.66667 2.78105 7.66667 3.33333V6.66667C7.66667 7.21895 7.21895 7.66667 6.66667 7.66667H3.33333C2.78105 7.66667 2.33333 7.21895 2.33333 6.66667V3.33333ZM3.66667 3.66667V6.33333H6.33333V3.66667H3.66667ZM2 11.6667C2 10.0098 3.34315 8.66667 5 8.66667C6.65685 8.66667 8 10.0098 8 11.6667C8 13.3235 6.65685 14.6667 5 14.6667C3.34315 14.6667 2 13.3235 2 11.6667ZM5 10C4.07953 10 3.33333 10.7462 3.33333 11.6667C3.33333 12.5871 4.07953 13.3333 5 13.3333C5.92047 13.3333 6.66667 12.5871 6.66667 11.6667C6.66667 10.7462 5.92047 10 5 10ZM9 10C9 9.44771 9.44772 9 10 9H13.3333C13.8856 9 14.3333 9.44772 14.3333 10V13.3333C14.3333 13.8856 13.8856 14.3333 13.3333 14.3333H10C9.44771 14.3333 9 13.8856 9 13.3333V10ZM10.3333 10.3333V13H13V10.3333H10.3333Z" fill="#696963"/>
</svg>
