<svg width="16" height="16" viewBox="0 0 16 16" fill="none" xmlns="http://www.w3.org/2000/svg">
<path fill-rule="evenodd" clip-rule="evenodd" d="M3.6152 2.50041C3.86823 2.18412 4.25131 2 4.65635 2H4.68219C5.08723 2 5.47032 2.18412 5.72335 2.50041L6.71043 3.73426C6.89956 3.97068 7.0026 4.26442 7.0026 4.56719V7.33333H7.66667V3.33333C7.66667 2.59695 8.26362 2 9 2H11.6667C12.403 2 13 2.59695 13 3.33333V7.33333H13.6667C14.0349 7.33333 14.3333 7.63181 14.3333 8V13.3333C14.3333 14.0697 13.7364 14.6667 13 14.6667H2.33333C1.59695 14.6667 1 14.0697 1 13.3333V8C1 7.63181 1.29848 7.33333 1.66667 7.33333H2.33594V4.56719C2.33594 4.26443 2.43898 3.97068 2.62811 3.73426L3.6152 2.50041ZM2.33333 8.66667V13.3333H13V8.66667H2.33333ZM5.66927 7.33333H3.66927V4.56719L4.65635 3.33333H4.68219L5.66927 4.56719L5.66927 7.33333ZM9 7.33333H11.6667V3.33333H9V4.66667H9.66927C10.0375 4.66667 10.3359 4.96514 10.3359 5.33333C10.3359 5.70152 10.0375 6 9.66927 6H9V7.33333Z" fill="#696963"/>
</svg>
