<svg width="16" height="16" viewBox="0 0 16 16" fill="none" xmlns="http://www.w3.org/2000/svg">
<path fill-rule="evenodd" clip-rule="evenodd" d="M9.43998 3C9.43998 2.44772 9.8877 2 10.44 2H13.3266C13.8789 2 14.3266 2.44772 14.3266 3V12.6667H15C15.3682 12.6667 15.6667 12.9651 15.6667 13.3333C15.6667 13.7015 15.3682 14 15 14H1.66667C1.29848 14 1 13.7015 1 13.3333C1 12.9651 1.29848 12.6667 1.66667 12.6667H2.33333V10.3333C2.33333 9.78105 2.78105 9.33333 3.33333 9.33333H5.88667L5.88668 6.66667C5.88668 6.11438 6.33439 5.66667 6.88668 5.66667H9.43999L9.43998 3ZM10.7733 12.6667H12.9933V3.33333H10.7733L10.7733 12.6667ZM9.43999 7L9.44001 12.6667H7.22L7.22001 7H9.43999ZM5.88667 12.6667L5.88667 10.6667H3.66667V12.6667H5.88667Z" fill="#696963"/>
</svg>
