<svg width="24" height="24" viewBox="0 0 24 24" fill="none" xmlns="http://www.w3.org/2000/svg">
<path d="M6.91876 4.69562C7.20192 4.69562 7.43127 4.92909 7.43127 5.21735V8.86966C7.43127 9.15792 7.20192 9.3914 6.91876 9.3914C6.6356 9.3914 6.40625 9.15792 6.40625 8.86966V5.21735C6.40625 4.92909 6.6356 4.69562 6.91876 4.69562Z" fill="#293FCC"/>
<path d="M17.6813 5.21754C17.6813 4.92928 17.4519 4.6958 17.1688 4.6958C16.8856 4.6958 16.6562 4.92928 16.6562 5.21754V8.86984C16.6562 9.1581 16.8856 9.39158 17.1688 9.39158C17.4519 9.39158 17.6813 9.1581 17.6813 8.86984V5.21754Z" fill="#293FCC"/>
<path d="M12.0438 5.21753C11.7606 5.21753 11.5312 5.45101 11.5312 5.73926V8.34794C11.5312 8.63619 11.7606 8.86967 12.0438 8.86967C12.3269 8.86967 12.5563 8.63619 12.5563 8.34794V5.73926C12.5563 5.45101 12.3269 5.21753 12.0438 5.21753Z" fill="#293FCC"/>
<path d="M3.84375 6.26069C3.84375 5.97243 4.0731 5.73895 4.35626 5.73895C4.63942 5.73895 4.86877 5.97243 4.86877 6.26069V7.82589C4.86877 8.11415 4.63942 8.34763 4.35626 8.34763C4.0731 8.34763 3.84375 8.11415 3.84375 7.82589V6.26069Z" fill="#293FCC"/>
<path d="M14.6063 5.73914C14.3231 5.73914 14.0938 5.97261 14.0938 6.26087V7.82607C14.0938 8.11433 14.3231 8.34781 14.6063 8.34781C14.8894 8.34781 15.1188 8.11433 15.1188 7.82607V6.26087C15.1188 5.97261 14.8894 5.73914 14.6063 5.73914Z" fill="#293FCC"/>
<path d="M9.99377 5.99988C9.99377 5.71163 9.76442 5.47815 9.48126 5.47815C9.1981 5.47815 8.96875 5.71163 8.96875 5.99988V8.08682C8.96875 8.37508 9.1981 8.60856 9.48126 8.60856C9.76442 8.60856 9.99377 8.37508 9.99377 8.08682V5.99988Z" fill="#293FCC"/>
<path d="M19.7313 5.73914C19.4481 5.73914 19.2188 5.97261 19.2188 6.26087V7.82607C19.2188 8.11433 19.4481 8.34781 19.7313 8.34781C20.0144 8.34781 20.2438 8.11433 20.2438 7.82607V6.26087C20.2438 5.97261 20.0144 5.73914 19.7313 5.73914Z" fill="#293FCC"/>
<path fill-rule="evenodd" clip-rule="evenodd" d="M8.96903 13.7727C8.32069 13.9774 7.63267 14.087 6.91899 14.087C3.09836 14.087 0 10.9331 0 7.0435C0 3.15388 3.09813 0 6.91899 0C8.89471 0 10.6783 0.843891 11.9391 2.19649C11.9686 2.2291 12.0314 2.2291 12.0609 2.19649C13.3217 0.843891 15.1052 0 17.081 0C20.9016 0 24 3.15388 24 7.0435C24 10.9331 20.9019 14.087 17.081 14.087C16.3994 14.087 15.7408 13.9866 15.1194 13.8V17.7392C15.1194 19.29 14.0111 20.5774 12.5568 20.8266V22.9565H14.2225C14.5056 22.9565 14.735 23.19 14.735 23.4783C14.735 23.7665 14.5056 24 14.2225 24H9.73794C9.45478 24 9.22543 23.7665 9.22543 23.4783C9.22543 23.19 9.45478 22.9565 9.73794 22.9565H11.5318V20.8266C10.0775 20.5774 8.96919 19.29 8.96919 17.7392L8.96903 13.7727ZM1.02502 7.0437C1.02502 3.73068 3.66447 1.04367 6.91899 1.04367C8.60258 1.04367 10.1209 1.76104 11.1959 2.9141C11.6289 3.37974 12.3708 3.37974 12.8051 2.9141C13.8788 1.76107 15.3972 1.04367 17.0807 1.04367C20.3365 1.04367 22.9747 3.73061 22.9747 7.0437C22.9747 10.3568 20.3365 13.0437 17.0807 13.0437C16.3696 13.0437 15.6892 12.9159 15.0576 12.6811C14.7744 11.2516 13.5329 10.1742 12.044 10.1742C10.568 10.1742 9.33538 11.2333 9.03683 12.6446C8.37954 12.9029 7.66586 13.0437 6.91889 13.0437C3.66443 13.0437 1.02502 10.3568 1.02502 7.0437ZM9.99406 17.2176V17.7393C9.99406 18.8924 10.9115 19.8263 12.0441 19.8263C13.1767 19.8263 14.0941 18.8924 14.0941 17.7393V17.2176H9.99406ZM14.0941 16.1741V13.3046C14.0941 12.1516 13.1767 11.2176 12.0441 11.2176C10.9115 11.2176 9.99406 12.1516 9.99406 13.3046V16.1741H14.0941Z" fill="#293FCC"/>
</svg>
