<svg width="24" height="26" viewBox="0 0 24 26" fill="none" xmlns="http://www.w3.org/2000/svg">
<path fill-rule="evenodd" clip-rule="evenodd" d="M23.2014 13.8803C23.2157 13.8927 23.2286 13.9064 23.2398 13.9216L23.2418 13.9243L23.2434 13.9265L23.2442 13.9279C23.2473 13.9323 23.25 13.9364 23.2528 13.9411L23.2544 13.9439L23.2561 13.9469L23.2577 13.9499L23.2593 13.9529L23.261 13.956L23.2624 13.9587L23.2637 13.962L23.2651 13.965C23.2662 13.9678 23.269 13.9741 23.269 13.9741L23.2703 13.9774L23.2709 13.9791L23.2714 13.9804L23.2725 13.9837L23.2734 13.9865L23.2747 13.9903L23.2766 13.9967L23.2775 14.0002L23.2783 14.003L23.2791 14.0068L23.2797 14.0101L23.2805 14.0137L23.2808 14.0154L23.281 14.017L23.2819 14.0206L23.2821 14.0228L23.283 14.0272L23.2838 14.0338V14.0352L23.2846 14.0409L23.2849 14.0448L23.2852 14.0473L23.2854 14.053V14.0555L23.2857 14.0602V14.0662V14.0734V16.7099V21.1631V23.3491C23.2857 23.488 23.1731 23.6005 23.0344 23.6005H21.6642H19.9451H16.0929H14.4928C14.3541 23.6005 14.2415 23.488 14.2415 23.3491V11.6918C14.2415 11.5527 14.3541 11.4402 14.4928 11.4402H20.676C20.7523 11.4402 20.8207 11.4743 20.8669 11.5279L23.2014 13.8803ZM22.7859 14.3223H20.6617C20.523 14.3223 20.4104 14.2095 20.4104 14.0706C20.4104 14.0627 20.4107 14.0544 20.4115 14.0467L20.4241 11.9435H14.7441V23.0949H16.0929H19.9479H21.6669H22.7859V21.1606V16.7072V14.3223ZM20.9136 13.819H22.4343L20.9229 12.2961L20.9136 13.819ZM16.5315 15.761H20.9981C21.1368 15.761 21.2497 15.6485 21.2497 15.5094C21.2497 15.3705 21.1371 15.2577 20.9981 15.2577H16.5315C16.3928 15.2577 16.2802 15.3705 16.2802 15.5094C16.2802 15.6485 16.3928 15.761 16.5315 15.761ZM16.5315 17.4852H20.9981C21.1368 17.4852 21.2497 17.3728 21.2497 17.2336C21.2497 17.0947 21.1371 16.9819 20.9981 16.9819H16.5315C16.3928 16.9819 16.2802 17.0947 16.2802 17.2336C16.2802 17.3728 16.3928 17.4852 16.5315 17.4852ZM16.5315 19.2097H20.9981C21.1368 19.2097 21.2497 19.097 21.2497 18.9581C21.2497 18.8192 21.1371 18.7064 20.9981 18.7064H16.5315C16.3928 18.7064 16.2802 18.8192 16.2802 18.9581C16.2802 19.097 16.3928 19.2097 16.5315 19.2097ZM16.5315 20.934H20.9981C21.1368 20.934 21.2497 20.8212 21.2497 20.6823C21.2497 20.5431 21.1371 20.4306 20.9981 20.4306H16.5315C16.3928 20.4306 16.2802 20.5431 16.2802 20.6823C16.2802 20.8212 16.3928 20.934 16.5315 20.934ZM8.22963 8.84052V9.233C8.22963 10.1591 7.85116 11.0009 7.24144 11.6115C6.63171 12.2221 5.79101 12.6011 4.86626 12.6011C3.94151 12.6011 3.1008 12.2221 2.49108 11.6115C1.88135 11.0009 1.50261 10.1588 1.50261 9.233V8.84052C1.50261 8.70162 1.39 8.58886 1.25131 8.58886C1.11261 8.58886 1 8.70162 1 8.84052V9.233C1 10.2979 1.43477 11.2658 2.13541 11.9674C2.78029 12.6135 3.65093 13.0338 4.61468 13.0962V16.3084H1.99149C1.85279 16.3084 1.74018 16.4211 1.74018 16.56C1.74018 16.6992 1.85279 16.8117 1.99149 16.8117H4.86379H4.86598H4.86818H7.74048C7.87918 16.8117 7.99179 16.6992 7.99179 16.56C7.99179 16.4211 7.87918 16.3084 7.74048 16.3084H5.11729V13.0962C6.08131 13.0335 6.95168 12.6132 7.59656 11.9674C8.2972 11.2658 8.73197 10.2979 8.73197 9.233V8.84052C8.73197 8.70162 8.61936 8.58886 8.48066 8.58886C8.34224 8.58886 8.22963 8.70162 8.22963 8.84052ZM4.86598 1C5.66604 1 6.39304 1.32757 6.9201 1.85537C7.44688 2.38289 7.77399 3.11119 7.77399 3.91238V9.23327C7.77399 10.0342 7.44688 10.7625 6.9201 11.2903C6.39332 11.8178 5.66604 12.1454 4.86598 12.1454C4.06593 12.1454 3.33893 11.8178 2.81215 11.2903C2.28509 10.7628 1.95826 10.0345 1.95826 9.23327V3.91211C1.95826 3.11092 2.28509 2.38289 2.81215 1.85509C3.3392 1.32757 4.0662 1 4.86598 1ZM4.86598 1.50332C5.52734 1.50332 6.12855 1.77423 6.5647 2.21099C7.00085 2.64775 7.27138 3.24981 7.27138 3.91211V9.233C7.27138 9.89501 7.00085 10.4973 6.5647 10.9341C6.12883 11.3709 5.52734 11.6418 4.86598 11.6418C4.2049 11.6418 3.60341 11.3709 3.16727 10.9341C2.73112 10.4976 2.46059 9.89529 2.46059 9.233V3.91211C2.46059 3.24981 2.73112 2.64775 3.16727 2.21099C3.60341 1.77423 4.2049 1.50332 4.86598 1.50332Z" fill="#293FCC" stroke="#293FCC" stroke-width="0.2"/>
<path fill-rule="evenodd" clip-rule="evenodd" d="M18.3059 9.38062C18.0362 7.85095 17.337 6.78549 16.493 6.06685C15.3876 5.12561 14.5763 4.89598 13.6663 4.87819L13.6357 4.88914C13.5466 4.92105 13.4817 4.99911 13.4659 5.09345L13.3483 5.79554L10.0658 3.63091L13.96 2.23672L13.7747 3.31464C13.7568 3.41917 13.8301 3.51794 13.9346 3.52993C16.6326 3.83933 17.3425 5.32227 17.9275 6.76253C18.2753 7.61873 18.3619 8.54427 18.3059 9.38062ZM14.2094 3.18131C16.9221 3.5447 17.6961 5.08532 18.3149 6.60888C18.9112 8.07673 18.7832 9.71915 18.4675 10.8499C18.4386 10.9532 18.3415 11.0197 18.2352 11.0127C18.1107 11.0046 18.0144 10.8985 18.0135 10.7725C17.9966 8.57934 17.1927 7.19555 16.2 6.35029C15.2456 5.53769 14.6355 5.31906 13.8183 5.26221L13.7029 6.06171C13.6754 6.25298 13.4611 6.34981 13.3002 6.2437L9.65441 3.83951C9.47152 3.7189 9.50282 3.43981 9.70746 3.36655L14.0446 1.81378C14.2344 1.74581 14.4277 1.91106 14.3932 2.11187L14.2094 3.18131Z" fill="#293FCC"/>
<path fill-rule="evenodd" clip-rule="evenodd" d="M12.286 24.0536C10.7569 24.3142 9.51963 24.0136 8.55976 23.4597C7.30256 22.7341 6.81354 22.0465 6.49047 21.1944V21.1661C6.49047 21.0689 6.5425 20.9793 6.62626 20.9325L7.24598 20.5856L4.10554 18.2191L4.10554 22.3605L5.05937 21.8215C5.15084 21.7698 5.26623 21.8061 5.31302 21.9013C6.51219 24.3412 8.14561 24.5114 9.69684 24.5782C10.619 24.6179 11.5184 24.3879 12.286 24.0536ZM5.0777 22.2777C6.33263 24.7134 8.04184 24.9245 9.68278 24.9952C11.2629 25.0632 12.7635 24.3904 13.7205 23.7124C13.8084 23.6501 13.8383 23.5332 13.7952 23.4335C13.7463 23.3205 13.6195 23.2661 13.5047 23.3063C11.4327 24.0325 9.85816 23.7404 8.72765 23.088C7.64227 22.4616 7.23129 21.9599 6.90272 21.2084L7.6085 20.8343C7.78023 20.7433 7.79901 20.5008 7.64341 20.3835L4.1546 17.7545C3.98157 17.6241 3.73633 17.7497 3.73633 17.9687L3.73633 22.5825C3.73633 22.7859 3.9511 22.9144 4.12586 22.8156L5.0777 22.2777Z" fill="#293FCC"/>
<path fill-rule="evenodd" clip-rule="evenodd" d="M18.3059 9.38062C18.0362 7.85095 17.337 6.78549 16.493 6.06685C15.3876 5.12561 14.5763 4.89598 13.6663 4.87819L13.6357 4.88914C13.5466 4.92105 13.4817 4.99911 13.4659 5.09345L13.3483 5.79554L10.0658 3.63091L13.96 2.23672L13.7747 3.31464C13.7568 3.41917 13.8301 3.51794 13.9346 3.52993C16.6326 3.83933 17.3425 5.32227 17.9275 6.76253C18.2753 7.61873 18.3619 8.54427 18.3059 9.38062ZM14.2094 3.18131C16.9221 3.5447 17.6961 5.08532 18.3149 6.60888C18.9112 8.07673 18.7832 9.71915 18.4675 10.8499C18.4386 10.9532 18.3415 11.0197 18.2352 11.0127C18.1107 11.0046 18.0144 10.8985 18.0135 10.7725C17.9966 8.57934 17.1927 7.19555 16.2 6.35029C15.2456 5.53769 14.6355 5.31906 13.8183 5.26221L13.7029 6.06171C13.6754 6.25298 13.4611 6.34981 13.3002 6.2437L9.65441 3.83951C9.47152 3.7189 9.50282 3.43981 9.70746 3.36655L14.0446 1.81378C14.2344 1.74581 14.4277 1.91106 14.3932 2.11187L14.2094 3.18131Z" stroke="#293FCC" stroke-width="0.2"/>
<path fill-rule="evenodd" clip-rule="evenodd" d="M12.286 24.0536C10.7569 24.3142 9.51963 24.0136 8.55976 23.4597C7.30256 22.7341 6.81354 22.0465 6.49047 21.1944V21.1661C6.49047 21.0689 6.5425 20.9793 6.62626 20.9325L7.24598 20.5856L4.10554 18.2191L4.10554 22.3605L5.05937 21.8215C5.15084 21.7698 5.26623 21.8061 5.31302 21.9013C6.51219 24.3412 8.14561 24.5114 9.69684 24.5782C10.619 24.6179 11.5184 24.3879 12.286 24.0536ZM5.0777 22.2777C6.33263 24.7134 8.04184 24.9245 9.68278 24.9952C11.2629 25.0632 12.7635 24.3904 13.7205 23.7124C13.8084 23.6501 13.8383 23.5332 13.7952 23.4335C13.7463 23.3205 13.6195 23.2661 13.5047 23.3063C11.4327 24.0325 9.85816 23.7404 8.72765 23.088C7.64227 22.4616 7.23129 21.9599 6.90272 21.2084L7.6085 20.8343C7.78023 20.7433 7.79901 20.5008 7.64341 20.3835L4.1546 17.7545C3.98157 17.6241 3.73633 17.7497 3.73633 17.9687L3.73633 22.5825C3.73633 22.7859 3.9511 22.9144 4.12586 22.8156L5.0777 22.2777Z" stroke="#293FCC" stroke-width="0.2"/>
</svg>
