<svg width="24" height="24" viewBox="0 0 24 24" fill="none" xmlns="http://www.w3.org/2000/svg">
<path d="M22.3119 0H1.68814C0.752542 0 0 0.748735 0 1.6796V22.3204C0 23.2513 0.752542 24 1.68814 24H22.3119C23.2475 24 24 23.2513 24 22.3204V1.6796C24 0.748735 23.2475 0 22.3119 0ZM0.813559 22.3204V1.6796C0.813559 1.19393 1.2 0.809443 1.68814 0.809443H16.1288V23.1906H1.68814C1.2 23.1906 0.813559 22.8061 0.813559 22.3204ZM23.1864 22.3204C23.1864 22.8061 22.8 23.1906 22.3119 23.1906H16.9424V0.809443H22.3119C22.8 0.809443 23.1864 1.19393 23.1864 1.6796V22.3204Z" fill="#293FCC"/>
<path d="M6.06078 5.82796C6.06078 5.22087 5.5523 4.71497 4.94213 4.71497H4.12857V3.19727H3.31502V4.71497H2.50146C1.89129 4.71497 1.38281 5.22087 1.38281 5.82796V6.21244C1.38281 6.81953 1.89129 7.32543 2.50146 7.32543H3.31502V20.8027H4.12857V7.32543H4.94213C5.5523 7.32543 6.06078 6.81953 6.06078 6.21244V5.82796ZM5.24722 6.21244C5.24722 6.37433 5.10485 6.51598 4.94213 6.51598H2.50146C2.33874 6.51598 2.19637 6.37433 2.19637 6.21244V5.82796C2.19637 5.66607 2.33874 5.52442 2.50146 5.52442H4.94213C5.10485 5.52442 5.24722 5.66607 5.24722 5.82796V6.21244Z" fill="#293FCC"/>
<path d="M9.39721 16.0674H8.58365V3.19727H7.77009V16.0877H6.95653C6.34637 16.0877 5.83789 16.5936 5.83789 17.2006V17.5851C5.83789 18.1922 6.34637 18.6981 6.95653 18.6981H7.77009V20.8027H8.58365V18.6981H9.39721C10.0074 18.6981 10.5159 18.1922 10.5159 17.5851V17.2006C10.5159 16.5733 10.0074 16.0674 9.39721 16.0674ZM9.7023 17.5851C9.7023 17.747 9.55992 17.8887 9.39721 17.8887H6.95653C6.79382 17.8887 6.65145 17.747 6.65145 17.5851V17.2006C6.65145 17.0387 6.79382 16.8971 6.95653 16.8971H9.39721C9.55992 16.8971 9.7023 17.0387 9.7023 17.2006V17.5851Z" fill="#293FCC"/>
<path d="M14.5007 10.806H13.6872V3.19727H12.8736V10.8263H12.0601C11.4499 10.8263 10.9414 11.3322 10.9414 11.9393V12.3237C10.9414 12.9308 11.4499 13.4367 12.0601 13.4367H12.8736V20.8027H13.6872V13.4367H14.5007C15.1109 13.4367 15.6194 12.9308 15.6194 12.3237V11.9393C15.6194 11.3119 15.1109 10.806 14.5007 10.806ZM14.8058 12.3237C14.8058 12.4856 14.6634 12.6273 14.5007 12.6273H12.0601C11.8973 12.6273 11.755 12.4856 11.755 12.3237V11.9393C11.755 11.7774 11.8973 11.6357 12.0601 11.6357H14.5007C14.6634 11.6357 14.8058 11.7774 14.8058 11.9393V12.3237Z" fill="#293FCC"/>
<path d="M19.9315 6.35413C18.6908 6.35413 17.6738 7.36593 17.6738 8.60033C17.6738 9.83473 18.6908 10.8465 19.9315 10.8465C21.1721 10.8465 22.1891 9.83473 22.1891 8.60033C22.1891 7.36593 21.1721 6.35413 19.9315 6.35413ZM19.9315 10.0169C19.1382 10.0169 18.4874 9.3693 18.4874 8.5801C18.4874 7.79089 19.1382 7.14333 19.9315 7.14333C20.7247 7.14333 21.3755 7.79089 21.3755 8.5801C21.3755 9.3693 20.7247 10.0169 19.9315 10.0169Z" fill="#293FCC"/>
<path d="M20.3383 7.66949H19.5248V8.11469H19.0977V8.92413H19.5248V9.36933H20.3383V8.92413H20.7858V8.11469H20.3383V7.66949Z" fill="#293FCC"/>
<path d="M19.9326 12C18.6919 12 17.6953 12.9916 17.6953 14.226C17.6953 15.4604 18.7123 16.4722 19.9529 16.4722C21.1936 16.4722 22.2106 15.4604 22.2106 14.226C22.1902 12.9916 21.1733 12 19.9326 12ZM19.9326 15.6627C19.1394 15.6627 18.4885 15.0152 18.4885 14.226C18.4885 13.4368 19.1394 12.8094 19.9326 12.8094C20.7258 12.8094 21.3767 13.457 21.3767 14.2462C21.3767 15.0354 20.7258 15.6627 19.9326 15.6627Z" fill="#293FCC"/>
<path d="M20.3383 13.3153H19.5248V13.7605H19.0977V14.5699H19.5248V15.0151H20.3383V14.5699H20.7858V13.7605H20.3383V13.3153Z" fill="#293FCC"/>
<path d="M19.9315 17.6256C18.6908 17.6256 17.6738 18.6374 17.6738 19.8718C17.6738 21.1062 18.6908 22.118 19.9315 22.118C21.1721 22.118 22.1891 21.1062 22.1891 19.8718C22.1891 18.6374 21.1721 17.6256 19.9315 17.6256ZM19.9315 21.3086C19.1382 21.3086 18.4874 20.661 18.4874 19.8718C18.4874 19.0826 19.1382 18.4351 19.9315 18.4351C20.7247 18.4351 21.3755 19.0826 21.3755 19.8718C21.3755 20.661 20.7247 21.3086 19.9315 21.3086Z" fill="#293FCC"/>
<path d="M20.3383 18.9612H19.5248V19.4064H19.0977V20.2158H19.5248V20.661H20.3383V20.2158H20.7858V19.4064H20.3383V18.9612Z" fill="#293FCC"/>
<path d="M21.7839 1.82129H18.8145V2.63073H21.7839V1.82129Z" fill="#293FCC"/>
<path d="M21.7839 3.70319H18.8145V4.51263H21.7839V3.70319Z" fill="#293FCC"/>
</svg>
