<svg width="24" height="24" viewBox="0 0 24 24" fill="none" xmlns="http://www.w3.org/2000/svg">
<path d="M17.0849 14.7807C16.6418 14.5159 16.1615 14.3379 15.6605 14.2552L14.5466 14.069V13.3779C14.8075 13.2083 15.0518 13.0138 15.2795 12.7903C16.0828 12 16.5631 10.9779 16.6584 9.86897C17.0352 9.86069 17.3872 9.71172 17.6687 9.43862C17.9462 9.15724 18.0994 8.78483 18.0994 8.39586C18.0994 7.86207 17.8137 7.39862 17.3913 7.13793V6.62069C17.3913 3.65379 14.9772 1.24138 12.0083 1.24138C9.03934 1.24138 6.62526 3.65379 6.62526 6.62069V7.13793C6.2029 7.39862 5.91718 7.86207 5.91718 8.39586C5.91718 8.78483 6.07039 9.15724 6.35197 9.4469C6.6294 9.71586 6.98965 9.86483 7.3706 9.8731C7.53623 11.3172 8.33126 12.5752 9.46584 13.3448V14.0731L8.35611 14.2593C7.85507 14.3421 7.37474 14.52 6.92754 14.7848C6.32712 15.149 5.83023 15.6579 5.49482 16.2579C5.15114 16.8621 4.96894 17.5531 4.96894 18.2483V21.5172C4.96894 22.2 5.52795 22.7586 6.21118 22.7586H17.8054C18.4886 22.7586 19.0476 22.2 19.0476 21.5172V18.2483C19.0476 16.8372 18.2981 15.509 17.0849 14.7807ZM17.0849 8.85103C16.9731 8.95862 16.8323 9.02483 16.6832 9.03724V7.74621C17.0145 7.77931 17.2712 8.05241 17.2712 8.39586C17.2712 8.56966 17.2008 8.73103 17.0849 8.85517V8.85103ZM12.0083 2.06483C14.5217 2.06483 16.5631 4.10483 16.5631 6.61655V6.91035H16.2692C16.2692 6.91035 16.265 6.91035 16.2609 6.91035H15.7433C14.501 6.91035 13.2836 6.56276 12.2277 5.90897C12.0952 5.82621 11.9255 5.82621 11.793 5.90897C10.7371 6.56276 9.51967 6.91035 8.27743 6.91035H7.75983C7.75983 6.91035 7.75569 6.91035 7.75155 6.91035H7.45756V6.61655C7.45756 4.10483 9.49896 2.06483 12.0124 2.06483H12.0083ZM6.74534 8.39172C6.74534 8.05241 7.00621 7.77517 7.33333 7.74207V9.0331C7.18426 9.02069 7.04348 8.95862 6.93582 8.85517C6.81159 8.7269 6.74534 8.56138 6.74534 8.39172ZM8.16149 9.31448V7.74207H8.27329C9.58592 7.74207 10.8737 7.39862 12.0083 6.74483C13.1429 7.39862 14.4306 7.74207 15.7433 7.74207H15.8551V9.45517C15.8551 10.4938 15.4451 11.4703 14.7039 12.1986C13.9627 12.9269 12.9731 13.3159 11.9379 13.2993C9.85921 13.2621 8.16563 11.4745 8.16563 9.31862L8.16149 9.31448ZM11.9213 14.1228C11.9503 14.1228 11.9793 14.1228 12.0083 14.1228C12.6046 14.1228 13.1843 14.011 13.7226 13.7959V14.7393C13.7226 15.0621 13.5611 15.3641 13.2961 15.5462C12.53 16.0552 11.4865 16.0552 10.7246 15.5462C10.4555 15.3641 10.294 15.0621 10.294 14.7393V13.7752C10.7992 13.9821 11.3458 14.1062 11.9213 14.1186V14.1228ZM18.2195 21.5131C18.2195 21.7407 18.0331 21.9269 17.8054 21.9269H6.21118C5.98344 21.9269 5.7971 21.7407 5.7971 21.5131V18.2441C5.7971 17.6897 5.94203 17.1434 6.21532 16.6593C6.48447 16.1793 6.87785 15.7738 7.35404 15.4883C7.706 15.2772 8.08696 15.1366 8.48861 15.0703L9.47412 14.9048C9.52381 15.4428 9.80538 15.931 10.2609 16.2372C10.7785 16.5848 11.383 16.7669 12.0041 16.7669C12.6253 16.7669 13.2298 16.5848 13.7516 16.2372C14.2029 15.931 14.4886 15.4428 14.5383 14.9048L15.5238 15.0703C15.9213 15.1366 16.3064 15.2772 16.6584 15.4883C17.619 16.0676 18.2195 17.1228 18.2195 18.2441V21.5131ZM3.72671 0.413793C3.72671 0.641379 3.54037 0.827586 3.31263 0.827586H0.828157V3.31034C0.828157 3.53793 0.641822 3.72414 0.414079 3.72414C0.186335 3.72414 0 3.53793 0 3.31034V0.413793C0 0.186207 0.186335 0 0.414079 0H3.31263C3.54037 0 3.72671 0.186207 3.72671 0.413793ZM24 0.413793V3.31034C24 3.53793 23.8137 3.72414 23.5859 3.72414C23.3582 3.72414 23.1718 3.53793 23.1718 3.31034V0.827586H20.6874C20.4596 0.827586 20.2733 0.641379 20.2733 0.413793C20.2733 0.186207 20.4596 0 20.6874 0H23.5859C23.8137 0 24 0.186207 24 0.413793ZM3.72671 23.5862C3.72671 23.8138 3.54037 24 3.31263 24H0.414079C0.186335 24 0 23.8138 0 23.5862V20.6897C0 20.4621 0.186335 20.2759 0.414079 20.2759C0.641822 20.2759 0.828157 20.4621 0.828157 20.6897V23.1724H3.31263C3.54037 23.1724 3.72671 23.3586 3.72671 23.5862ZM24 20.6897V23.5862C24 23.8138 23.8137 24 23.5859 24H20.6874C20.4596 24 20.2733 23.8138 20.2733 23.5862C20.2733 23.3586 20.4596 23.1724 20.6874 23.1724H23.1718V20.6897C23.1718 20.4621 23.3582 20.2759 23.5859 20.2759C23.8137 20.2759 24 20.4621 24 20.6897Z" fill="#293FCC"/>
</svg>
