<svg width="172" height="50" viewBox="0 0 172 50" fill="none" xmlns="http://www.w3.org/2000/svg">
<rect x="0.75" y="0.5" width="170.375" height="49" rx="4.5" fill="black"/>
<rect x="0.75" y="0.5" width="170.375" height="49" rx="4.5" stroke="white"/>
<g clip-path="url(#clip0_217_3343)">
<path fill-rule="evenodd" clip-rule="evenodd" d="M37.2668 15.47C38.2946 14.287 38.9874 12.6394 38.7978 11C37.3167 11.056 35.5248 11.9396 34.4628 13.1212C33.5092 14.1698 32.6767 15.8453 32.9005 17.4524C34.5527 17.5742 36.239 16.6544 37.2668 15.47ZM40.9717 25.875C41.013 30.1127 44.8776 31.5224 44.9204 31.5406C44.889 31.64 44.3031 33.5493 42.8847 35.5232C41.6574 37.2284 40.3844 38.9267 38.3787 38.9631C36.4087 38.9981 35.7743 37.8516 33.5206 37.8516C31.2683 37.8516 30.5641 38.9266 28.6995 38.998C26.7637 39.0666 25.2883 37.1531 24.0524 35.4535C21.5235 31.9774 19.592 25.6301 22.1864 21.3462C23.475 19.2196 25.7772 17.8709 28.2776 17.8373C30.1778 17.8023 31.9725 19.0541 33.1343 19.0541C34.2961 19.0541 36.4771 17.5491 38.7693 17.7703C39.7287 17.8081 42.4229 18.1384 44.152 20.5478C44.0123 20.6304 40.9375 22.3331 40.9717 25.875Z" fill="white"/>
</g>
<path d="M58.565 14.03C59.325 14.03 59.9817 14.1733 60.535 14.46C61.095 14.74 61.5217 15.1433 61.815 15.67C62.115 16.1967 62.265 16.8167 62.265 17.53C62.265 18.2433 62.115 18.8633 61.815 19.39C61.5217 19.91 61.095 20.31 60.535 20.59C59.9817 20.8633 59.325 21 58.565 21H56.395V14.03H58.565ZM58.565 20.25C59.465 20.25 60.1517 20.0133 60.625 19.54C61.0983 19.06 61.335 18.39 61.335 17.53C61.335 16.6633 61.095 15.9867 60.615 15.5C60.1417 15.0133 59.4583 14.77 58.565 14.77H57.305V20.25H58.565ZM66.6253 21.07C65.9786 21.07 65.3886 20.92 64.8553 20.62C64.322 20.3133 63.8986 19.89 63.5853 19.35C63.2786 18.8033 63.1253 18.19 63.1253 17.51C63.1253 16.83 63.2786 16.22 63.5853 15.68C63.8986 15.1333 64.322 14.71 64.8553 14.41C65.3886 14.1033 65.9786 13.95 66.6253 13.95C67.2786 13.95 67.872 14.1033 68.4053 14.41C68.9386 14.71 69.3586 15.13 69.6653 15.67C69.972 16.21 70.1253 16.8233 70.1253 17.51C70.1253 18.1967 69.972 18.81 69.6653 19.35C69.3586 19.89 68.9386 20.3133 68.4053 20.62C67.872 20.92 67.2786 21.07 66.6253 21.07ZM66.6253 20.28C67.112 20.28 67.5486 20.1667 67.9353 19.94C68.3286 19.7133 68.6353 19.39 68.8553 18.97C69.082 18.55 69.1953 18.0633 69.1953 17.51C69.1953 16.95 69.082 16.4633 68.8553 16.05C68.6353 15.63 68.332 15.3067 67.9453 15.08C67.5586 14.8533 67.1186 14.74 66.6253 14.74C66.132 14.74 65.692 14.8533 65.3053 15.08C64.9186 15.3067 64.612 15.63 64.3853 16.05C64.1653 16.4633 64.0553 16.95 64.0553 17.51C64.0553 18.0633 64.1653 18.55 64.3853 18.97C64.612 19.39 64.9186 19.7133 65.3053 19.94C65.6986 20.1667 66.1386 20.28 66.6253 20.28ZM80.0866 14.03L78.0666 21H77.0466L75.4266 15.39L73.7466 21L72.7366 21.01L70.7866 14.03H71.7566L73.2766 19.94L74.9566 14.03H75.9766L77.5766 19.92L79.1066 14.03H80.0866ZM86.5625 21H85.6525L81.9925 15.45V21H81.0825V14.02H81.9925L85.6525 19.56V14.02H86.5625V21ZM89.0238 20.26H91.4638V21H88.1138V14.03H89.0238V20.26ZM95.5902 21.07C94.9435 21.07 94.3535 20.92 93.8202 20.62C93.2868 20.3133 92.8635 19.89 92.5502 19.35C92.2435 18.8033 92.0902 18.19 92.0902 17.51C92.0902 16.83 92.2435 16.22 92.5502 15.68C92.8635 15.1333 93.2868 14.71 93.8202 14.41C94.3535 14.1033 94.9435 13.95 95.5902 13.95C96.2435 13.95 96.8368 14.1033 97.3702 14.41C97.9035 14.71 98.3235 15.13 98.6302 15.67C98.9368 16.21 99.0902 16.8233 99.0902 17.51C99.0902 18.1967 98.9368 18.81 98.6302 19.35C98.3235 19.89 97.9035 20.3133 97.3702 20.62C96.8368 20.92 96.2435 21.07 95.5902 21.07ZM95.5902 20.28C96.0768 20.28 96.5135 20.1667 96.9002 19.94C97.2935 19.7133 97.6002 19.39 97.8202 18.97C98.0468 18.55 98.1602 18.0633 98.1602 17.51C98.1602 16.95 98.0468 16.4633 97.8202 16.05C97.6002 15.63 97.2968 15.3067 96.9102 15.08C96.5235 14.8533 96.0835 14.74 95.5902 14.74C95.0968 14.74 94.6568 14.8533 94.2702 15.08C93.8835 15.3067 93.5768 15.63 93.3502 16.05C93.1302 16.4633 93.0202 16.95 93.0202 17.51C93.0202 18.0633 93.1302 18.55 93.3502 18.97C93.5768 19.39 93.8835 19.7133 94.2702 19.94C94.6635 20.1667 95.1035 20.28 95.5902 20.28ZM104.411 19.45H101.371L100.811 21H99.8515L102.371 14.07H103.421L105.931 21H104.971L104.411 19.45ZM104.151 18.71L102.891 15.19L101.631 18.71H104.151ZM109.2 14.03C109.96 14.03 110.616 14.1733 111.17 14.46C111.73 14.74 112.156 15.1433 112.45 15.67C112.75 16.1967 112.9 16.8167 112.9 17.53C112.9 18.2433 112.75 18.8633 112.45 19.39C112.156 19.91 111.73 20.31 111.17 20.59C110.616 20.8633 109.96 21 109.2 21H107.03V14.03H109.2ZM109.2 20.25C110.1 20.25 110.786 20.0133 111.26 19.54C111.733 19.06 111.97 18.39 111.97 17.53C111.97 16.6633 111.73 15.9867 111.25 15.5C110.776 15.0133 110.093 14.77 109.2 14.77H107.94V20.25H109.2ZM119.926 21.07C119.279 21.07 118.689 20.92 118.156 20.62C117.623 20.3133 117.199 19.89 116.886 19.35C116.579 18.8033 116.426 18.19 116.426 17.51C116.426 16.83 116.579 16.22 116.886 15.68C117.199 15.1333 117.623 14.71 118.156 14.41C118.689 14.1033 119.279 13.95 119.926 13.95C120.579 13.95 121.173 14.1033 121.706 14.41C122.239 14.71 122.659 15.13 122.966 15.67C123.273 16.21 123.426 16.8233 123.426 17.51C123.426 18.1967 123.273 18.81 122.966 19.35C122.659 19.89 122.239 20.3133 121.706 20.62C121.173 20.92 120.579 21.07 119.926 21.07ZM119.926 20.28C120.413 20.28 120.849 20.1667 121.236 19.94C121.629 19.7133 121.936 19.39 122.156 18.97C122.383 18.55 122.496 18.0633 122.496 17.51C122.496 16.95 122.383 16.4633 122.156 16.05C121.936 15.63 121.633 15.3067 121.246 15.08C120.859 14.8533 120.419 14.74 119.926 14.74C119.433 14.74 118.993 14.8533 118.606 15.08C118.219 15.3067 117.913 15.63 117.686 16.05C117.466 16.4633 117.356 16.95 117.356 17.51C117.356 18.0633 117.466 18.55 117.686 18.97C117.913 19.39 118.219 19.7133 118.606 19.94C118.999 20.1667 119.439 20.28 119.926 20.28ZM130.107 21H129.197L125.537 15.45V21H124.627V14.02H125.537L129.197 19.56V14.02H130.107V21ZM138.615 14.03V14.77H136.715V21H135.805V14.77H133.895V14.03H138.615ZM145.105 14.03V21H144.195V17.84H140.645V21H139.735V14.03H140.645V17.09H144.195V14.03H145.105ZM147.569 14.77V17.1H150.109V17.85H147.569V20.25H150.409V21H146.659V14.02H150.409V14.77H147.569Z" fill="white"/>
<path d="M61.589 33.404H58.253L57.701 35H55.937L58.949 26.612H60.905L63.917 35H62.141L61.589 33.404ZM61.133 32.06L59.921 28.556L58.709 32.06H61.133ZM66.7228 29.312C66.9388 29.008 67.2348 28.756 67.6108 28.556C67.9948 28.348 68.4308 28.244 68.9188 28.244C69.4868 28.244 69.9988 28.384 70.4548 28.664C70.9188 28.944 71.2828 29.344 71.5468 29.864C71.8188 30.376 71.9548 30.972 71.9548 31.652C71.9548 32.332 71.8188 32.936 71.5468 33.464C71.2828 33.984 70.9188 34.388 70.4548 34.676C69.9988 34.964 69.4868 35.108 68.9188 35.108C68.4308 35.108 67.9988 35.008 67.6228 34.808C67.2548 34.608 66.9548 34.356 66.7228 34.052V38.168H65.0428V28.352H66.7228V29.312ZM70.2388 31.652C70.2388 31.252 70.1548 30.908 69.9868 30.62C69.8268 30.324 69.6108 30.1 69.3388 29.948C69.0748 29.796 68.7868 29.72 68.4748 29.72C68.1708 29.72 67.8828 29.8 67.6108 29.96C67.3468 30.112 67.1308 30.336 66.9628 30.632C66.8028 30.928 66.7228 31.276 66.7228 31.676C66.7228 32.076 66.8028 32.424 66.9628 32.72C67.1308 33.016 67.3468 33.244 67.6108 33.404C67.8828 33.556 68.1708 33.632 68.4748 33.632C68.7868 33.632 69.0748 33.552 69.3388 33.392C69.6108 33.232 69.8268 33.004 69.9868 32.708C70.1548 32.412 70.2388 32.06 70.2388 31.652ZM74.8557 29.312C75.0717 29.008 75.3677 28.756 75.7437 28.556C76.1277 28.348 76.5637 28.244 77.0517 28.244C77.6197 28.244 78.1317 28.384 78.5877 28.664C79.0517 28.944 79.4157 29.344 79.6797 29.864C79.9517 30.376 80.0877 30.972 80.0877 31.652C80.0877 32.332 79.9517 32.936 79.6797 33.464C79.4157 33.984 79.0517 34.388 78.5877 34.676C78.1317 34.964 77.6197 35.108 77.0517 35.108C76.5637 35.108 76.1317 35.008 75.7557 34.808C75.3877 34.608 75.0877 34.356 74.8557 34.052V38.168H73.1757V28.352H74.8557V29.312ZM78.3717 31.652C78.3717 31.252 78.2877 30.908 78.1197 30.62C77.9597 30.324 77.7437 30.1 77.4717 29.948C77.2077 29.796 76.9197 29.72 76.6077 29.72C76.3037 29.72 76.0157 29.8 75.7437 29.96C75.4797 30.112 75.2637 30.336 75.0957 30.632C74.9357 30.928 74.8557 31.276 74.8557 31.676C74.8557 32.076 74.9357 32.424 75.0957 32.72C75.2637 33.016 75.4797 33.244 75.7437 33.404C76.0157 33.556 76.3037 33.632 76.6077 33.632C76.9197 33.632 77.2077 33.552 77.4717 33.392C77.7437 33.232 77.9597 33.004 78.1197 32.708C78.2877 32.412 78.3717 32.06 78.3717 31.652ZM87.0598 35.084C86.4758 35.084 85.9478 34.984 85.4758 34.784C85.0118 34.584 84.6438 34.296 84.3718 33.92C84.0998 33.544 83.9598 33.1 83.9518 32.588H85.7518C85.7758 32.932 85.8958 33.204 86.1118 33.404C86.3358 33.604 86.6398 33.704 87.0238 33.704C87.4158 33.704 87.7238 33.612 87.9478 33.428C88.1718 33.236 88.2838 32.988 88.2838 32.684C88.2838 32.436 88.2078 32.232 88.0558 32.072C87.9038 31.912 87.7118 31.788 87.4798 31.7C87.2558 31.604 86.9438 31.5 86.5438 31.388C85.9998 31.228 85.5558 31.072 85.2118 30.92C84.8758 30.76 84.5838 30.524 84.3358 30.212C84.0958 29.892 83.9758 29.468 83.9758 28.94C83.9758 28.444 84.0998 28.012 84.3478 27.644C84.5958 27.276 84.9438 26.996 85.3918 26.804C85.8398 26.604 86.3518 26.504 86.9278 26.504C87.7918 26.504 88.4918 26.716 89.0278 27.14C89.5718 27.556 89.8718 28.14 89.9278 28.892H88.0798C88.0638 28.604 87.9398 28.368 87.7078 28.184C87.4838 27.992 87.1838 27.896 86.8078 27.896C86.4798 27.896 86.2158 27.98 86.0158 28.148C85.8238 28.316 85.7278 28.56 85.7278 28.88C85.7278 29.104 85.7998 29.292 85.9438 29.444C86.0958 29.588 86.2798 29.708 86.4958 29.804C86.7198 29.892 87.0318 29.996 87.4318 30.116C87.9758 30.276 88.4198 30.436 88.7638 30.596C89.1078 30.756 89.4038 30.996 89.6518 31.316C89.8998 31.636 90.0238 32.056 90.0238 32.576C90.0238 33.024 89.9078 33.44 89.6758 33.824C89.4438 34.208 89.1038 34.516 88.6558 34.748C88.2078 34.972 87.6758 35.084 87.0598 35.084ZM93.4363 29.732V32.948C93.4363 33.172 93.4883 33.336 93.5923 33.44C93.7043 33.536 93.8883 33.584 94.1443 33.584H94.9243V35H93.8683C92.4523 35 91.7443 34.312 91.7443 32.936V29.732H90.9523V28.352H91.7443V26.708H93.4363V28.352H94.9243V29.732H93.4363ZM99.0847 35.108C98.4447 35.108 97.8687 34.968 97.3567 34.688C96.8447 34.4 96.4407 33.996 96.1447 33.476C95.8567 32.956 95.7127 32.356 95.7127 31.676C95.7127 30.996 95.8607 30.396 96.1567 29.876C96.4607 29.356 96.8727 28.956 97.3927 28.676C97.9127 28.388 98.4927 28.244 99.1327 28.244C99.7727 28.244 100.353 28.388 100.873 28.676C101.393 28.956 101.801 29.356 102.097 29.876C102.401 30.396 102.553 30.996 102.553 31.676C102.553 32.356 102.397 32.956 102.085 33.476C101.781 33.996 101.365 34.4 100.837 34.688C100.317 34.968 99.7327 35.108 99.0847 35.108ZM99.0847 33.644C99.3887 33.644 99.6727 33.572 99.9367 33.428C100.209 33.276 100.425 33.052 100.585 32.756C100.745 32.46 100.825 32.1 100.825 31.676C100.825 31.044 100.657 30.56 100.321 30.224C99.9927 29.88 99.5887 29.708 99.1087 29.708C98.6287 29.708 98.2247 29.88 97.8967 30.224C97.5767 30.56 97.4167 31.044 97.4167 31.676C97.4167 32.308 97.5727 32.796 97.8847 33.14C98.2047 33.476 98.6047 33.644 99.0847 33.644ZM105.465 29.384C105.681 29.032 105.961 28.756 106.305 28.556C106.657 28.356 107.057 28.256 107.505 28.256V30.02H107.061C106.533 30.02 106.133 30.144 105.861 30.392C105.597 30.64 105.465 31.072 105.465 31.688V35H103.785V28.352H105.465V29.384ZM114.817 31.532C114.817 31.772 114.801 31.988 114.769 32.18H109.909C109.949 32.66 110.117 33.036 110.413 33.308C110.709 33.58 111.073 33.716 111.505 33.716C112.129 33.716 112.573 33.448 112.837 32.912H114.649C114.457 33.552 114.089 34.08 113.545 34.496C113.001 34.904 112.333 35.108 111.541 35.108C110.901 35.108 110.325 34.968 109.813 34.688C109.309 34.4 108.913 33.996 108.625 33.476C108.345 32.956 108.205 32.356 108.205 31.676C108.205 30.988 108.345 30.384 108.625 29.864C108.905 29.344 109.297 28.944 109.801 28.664C110.305 28.384 110.885 28.244 111.541 28.244C112.173 28.244 112.737 28.38 113.233 28.652C113.737 28.924 114.125 29.312 114.397 29.816C114.677 30.312 114.817 30.884 114.817 31.532ZM113.077 31.052C113.069 30.62 112.913 30.276 112.609 30.02C112.305 29.756 111.933 29.624 111.493 29.624C111.077 29.624 110.725 29.752 110.437 30.008C110.157 30.256 109.985 30.604 109.921 31.052H113.077Z" fill="white"/>
<defs>
<clipPath id="clip0_217_3343">
<rect width="25.375" height="28" fill="white" transform="translate(20.25 11)"/>
</clipPath>
</defs>
</svg>
