<svg width="63" height="63" viewBox="0 0 63 63" fill="none" xmlns="http://www.w3.org/2000/svg">
<path d="M45.4721 0.446651C44.9013 1.09192 44.9509 1.88611 45.5962 2.33284C46.0181 2.63065 46.7875 2.72993 48.5247 2.72993H50.8825L47.2838 6.27893L43.6852 9.82794L39.3916 9.57975L35.0733 9.35639L30.8293 13.6003L26.5606 17.869L22.3912 16.4792C20.0831 15.7347 17.9487 15.139 17.6261 15.1887C17.3034 15.2383 15.6406 16.6033 13.68 18.4399C10.95 21.021 10.3047 21.7655 10.3047 22.3115C10.3047 22.6838 10.4288 23.1057 10.6025 23.2794C11.0244 23.7013 12.1661 23.6517 12.5383 23.205C12.7121 23.0064 14.0522 21.7159 15.5165 20.3509L18.1721 17.8939L22.2422 19.234C24.4759 19.9786 26.5854 20.599 26.9329 20.599C27.4044 20.599 28.5709 19.5815 31.8965 16.2807L36.2397 11.9623L38.8456 12.1857C40.2851 12.2849 42.2209 12.3842 43.1888 12.3842L44.9261 12.409L48.8722 8.48775L52.7935 4.59129L52.6446 6.84975C52.4957 9.33157 52.7935 10.1754 53.811 10.1754C55.0271 10.1754 55.1016 9.97685 55.2505 5.41029C55.3497 2.05984 55.3249 0.992653 55.0519 0.545925C54.7293 0.0247421 54.6052 -7.62939e-05 50.2868 -7.62939e-05C46.3159 -7.62939e-05 45.8195 0.0495605 45.4721 0.446651Z" fill="black"/>
<path d="M6.13622 27.722C5.73913 28.0695 4.92013 30.5761 2.73612 38.3442C1.02367 44.3998 -0.0931521 48.743 0.00612079 49.0657C0.15503 49.6613 0.502485 49.7854 7.32749 51.7212C11.621 52.9621 11.6955 52.9373 12.2663 51.0015C12.44 50.4555 12.6138 49.8847 12.6634 49.7109C12.713 49.562 14.4007 51.0759 16.4358 53.0862C20.3322 56.9827 25.9163 61.7478 27.5295 62.5916C28.2741 62.9639 28.8201 63.0631 29.7632 62.9639C30.8055 62.8646 31.1282 62.7157 31.9472 61.847L32.8903 60.8295L33.7837 61.4251C35.7692 62.7653 38.3751 62.1449 39.5415 60.0849C39.889 59.4645 40.2364 59.1419 40.435 59.2163C41.0306 59.4397 42.7927 58.8192 43.6614 58.0747C44.1825 57.6031 44.6045 56.9082 44.803 56.2381C45.0512 55.3199 45.2249 55.0965 45.8205 54.9724C46.7388 54.7738 47.9301 53.7811 48.4513 52.7636C48.9228 51.8205 49.1958 51.6219 50.0148 51.6219C50.4864 51.6219 50.7097 51.7957 50.9331 52.3665C51.1316 52.9373 51.3798 53.111 51.8514 53.111C52.6704 53.111 62.2006 50.4307 62.5977 50.0832C62.7714 49.9343 62.9203 49.5868 62.9203 49.289C62.9203 48.4948 57.3114 28.814 56.9639 28.3921C56.4676 27.8213 55.6237 27.9702 50.5112 29.4345C46.6395 30.5265 45.5724 30.9235 45.2249 31.3951C44.4555 32.4375 43.5373 32.4126 41.0058 31.2958C35.1983 28.7644 31.4508 28.3176 27.7281 29.7323C25.9412 30.4272 25.3207 30.5265 23.2608 30.5513C21.9454 30.5513 20.1833 30.6505 19.3643 30.7498C18.1482 30.8987 17.776 30.8739 17.2548 30.5016C16.9073 30.2535 14.5744 29.4841 12.043 28.7892C9.5115 28.0943 7.27786 27.4738 7.05449 27.3994C6.83113 27.3497 6.40922 27.4986 6.13622 27.722ZM14.7233 32.3878C14.773 32.4375 10.0327 49.4131 9.90859 49.5868C9.83413 49.7109 3.28213 47.8744 3.05876 47.6758C2.93467 47.5518 7.00486 32.5864 7.69977 30.6009C7.7494 30.4272 8.86622 30.6505 11.224 31.3206C13.1101 31.8666 14.6737 32.3382 14.7233 32.3878ZM57.5844 39.5851C58.9246 44.3006 59.9669 48.197 59.9173 48.2467C59.545 48.5445 53.1419 50.1328 52.993 49.9591C52.8193 49.7606 47.9797 32.9338 48.1038 32.8842C48.3024 32.7601 54.4325 31.0476 54.7551 31.0476C55.0529 31.0228 55.6734 32.8594 57.5844 39.5851ZM36.886 32.5864C38.3006 33.0579 40.2861 33.8521 41.2788 34.3236C43.0905 35.1923 43.0905 35.2171 44.3563 34.8448C45.0264 34.6215 45.6468 34.4974 45.6965 34.5718C45.9446 34.82 49.7666 48.7182 49.6426 48.9168C49.3695 49.3387 48.4761 49.1401 47.9797 48.5197C47.5082 47.8992 35.0991 37.6989 33.8582 36.8799C33.2377 36.4828 33.1136 36.4828 31.2523 37.004C28.7456 37.6741 28.7952 37.6493 26.785 39.6596C24.8243 41.5954 24.1542 41.8932 23.4097 41.1487C22.9878 40.7267 22.9133 40.4289 23.0374 39.3369C23.2608 37.0536 24.7747 34.6711 26.8842 33.2068C29.6639 31.2958 32.4932 31.1221 36.886 32.5864ZM22.7148 33.3805C22.7148 33.4302 22.4418 33.8769 22.0943 34.3733C20.4315 36.8303 19.8607 40.4786 20.8782 42.191C21.9206 44.0027 23.8812 44.6232 25.8419 43.8042C26.3382 43.6057 27.5295 42.6626 28.5222 41.6947C30.0362 40.2304 30.4829 39.9326 31.6245 39.6844C32.6917 39.461 32.9895 39.4858 33.337 39.7836C33.5603 39.9822 36.5137 42.3896 39.889 45.1196C43.2395 47.8744 46.0687 50.3562 46.168 50.6292C46.4162 51.4234 45.6716 52.3665 44.8278 52.3665C44.2818 52.3665 43.3387 51.7212 40.8321 49.6365C39.0204 48.1226 37.3824 46.9065 37.159 46.9065C36.5634 46.9065 35.8684 47.651 35.8684 48.2963C35.8684 48.743 36.6626 49.562 39.0948 51.6468C42.5197 54.5505 42.8424 55.0965 41.8993 56.1389C41.3036 56.8089 40.435 56.6849 39.4174 55.7418C36.8364 53.4337 33.4611 50.8774 32.9647 50.8774C32.3194 50.8774 31.6493 51.4978 31.6493 52.0935C31.6493 52.6643 31.9968 53.0366 33.7589 54.476C36.1911 56.4615 37.3575 57.6528 37.3575 58.1739C37.3575 58.7944 36.6626 59.5638 36.0918 59.5638C35.6699 59.5638 33.337 57.7024 30.4829 55.0469C29.0931 53.7811 28.5967 53.6074 27.877 54.2775C27.0332 55.022 27.3062 55.8659 28.9193 57.4542C30.5077 59.0426 30.7063 59.5638 29.8873 60.1594C29.1923 60.6309 28.8945 60.5069 26.6857 58.7199C21.3746 54.4512 15.8898 49.1898 14.4007 46.9561L13.7058 45.9137L15.3934 40.007C16.3117 36.7806 17.1555 34.0258 17.2796 33.8769C17.6519 33.5046 22.7148 33.0083 22.7148 33.3805Z" fill="black"/>
</svg>
