<svg width="68" height="59" viewBox="0 0 68 59" fill="none" xmlns="http://www.w3.org/2000/svg">
<path d="M40.1007 32.1228C40.1007 35.4902 37.3709 38.22 34.0035 38.22C30.6361 38.22 27.9062 35.4902 27.9062 32.1228C27.9062 28.7554 30.6361 26.0256 34.0035 26.0256C37.3709 26.0256 40.1007 28.7554 40.1007 32.1228Z" stroke="black" stroke-width="2"/>
<path d="M21.8984 56.1586V48.7919C21.8984 43.7824 25.9747 39.7048 30.9848 39.7048H37.0068C42.0183 39.7048 46.0932 43.7824 46.0897 48.7912V55.1582L46.069 55.1576L45.8138 55.1504L45.5864 55.2665L45.1184 55.5053C45.1175 55.5057 45.1166 55.5061 45.1155 55.5067C45.1101 55.5094 45.1015 55.5137 45.0897 55.5194M21.8984 56.1586L21.917 56.273M21.8984 56.1586L21.9556 56.1493L22.2145 55.3183L22.7211 55.4761L22.7219 55.4764C22.7809 55.4948 22.8397 55.5131 22.8984 55.5312M21.8984 56.1586H21.9527L21.917 56.273M21.917 56.273L22.4236 56.4309C27.205 57.9252 31.3598 58.4242 34.7798 58.4242C41.4573 58.4242 45.3274 56.5191 45.5666 56.3992L46.0381 56.1586H45.446L45.5666 56.3991L45.4439 56.1586H45.0897V55.5194M21.917 56.273L22.5025 56.1778L22.5027 56.1778L22.6205 56.1586H22.8984V56.1134L22.9041 56.1125L22.8984 56.0778V55.5312M45.0897 55.5194V48.7912V48.7905C45.0928 44.3345 41.466 40.7048 37.0068 40.7048H30.9848C26.5271 40.7048 22.8984 44.3346 22.8984 48.7919V55.5312M45.0897 55.5194C44.7101 55.7048 41.0314 57.4242 34.7798 57.4242C31.5005 57.4242 27.5065 56.952 22.8984 55.5312" stroke="black" stroke-width="2"/>
<path d="M29.953 11.4491C29.953 17.22 25.2747 21.8983 19.5038 21.8983C13.7329 21.8983 9.05469 17.22 9.05469 11.4491C9.05469 5.67824 13.7329 1 19.5038 1C25.2747 1 29.953 5.67824 29.953 11.4491Z" stroke="black" stroke-width="2"/>
<path d="M58.9275 11.4478C58.9275 17.2183 54.2502 21.8983 48.4797 21.8983C42.7078 21.8983 38.0312 17.2177 38.0312 11.4478C38.0312 5.67816 42.7075 1 48.4797 1C54.2485 1 58.9275 5.67958 58.9275 11.4478Z" stroke="black" stroke-width="2"/>
<path d="M27.5958 25.0697C25.6759 26.8126 24.4637 29.3259 24.4637 32.1234C24.4637 34.4052 25.2716 36.4987 26.6106 38.139C22.4233 39.8649 19.4625 43.9803 19.4625 48.7902V52.8536C14.3036 52.7343 8.15698 51.8953 1.14606 49.7043L1.14463 49.7038L1 49.6589V38.3357C1 30.807 7.12792 24.6767 14.6575 24.6774H14.6576H24.3726C25.483 24.6774 26.5615 24.8146 27.5958 25.0697Z" stroke="black" stroke-width="2"/>
<path d="M45.1595 40.6404L45.1594 40.6403C44.0648 39.5452 42.7855 38.7027 41.3951 38.1334C42.7319 36.4938 43.5394 34.4017 43.5394 32.1223C43.5394 29.3237 42.3272 26.8109 40.4061 25.0684C41.4398 24.8134 42.5172 24.6763 43.6271 24.6763H53.3407C60.8702 24.6763 66.9983 30.8064 67.001 38.3352C67.001 38.3354 67.001 38.3355 67.001 38.3356V49.6582L66.8557 49.7034L66.8543 49.7039C59.8446 51.8942 53.6975 52.7338 48.5386 52.8531V48.7914C48.5386 48.7913 48.5386 48.7912 48.5386 48.7912C48.5393 45.7171 47.3367 42.8192 45.1595 40.6404Z" stroke="black" stroke-width="2"/>
</svg>
