<svg width="35" height="36" viewBox="0 0 35 36" fill="none" xmlns="http://www.w3.org/2000/svg">
<path fill-rule="evenodd" clip-rule="evenodd" d="M21.6227 0.0147619C21.2324 -0.0427986 20.8402 0.0759198 20.5282 0.331345C20.2076 0.590366 20.0071 0.964509 19.9635 1.38362C19.8713 2.23083 20.4656 2.99711 21.2881 3.09246C26.961 3.74361 31.3703 8.28907 32.0082 14.1423C32.0936 14.9265 32.7332 15.5183 33.4966 15.5183C33.5542 15.5183 33.61 15.5147 33.6674 15.5075C34.0666 15.4626 34.4222 15.2593 34.6731 14.9355C34.9223 14.6117 35.0355 14.2088 34.9902 13.7969C34.1955 6.49392 28.7004 0.826004 21.6227 0.0147619ZM21.7317 6.28238C20.8987 6.12409 20.1334 6.67091 19.9749 7.50734C19.8163 8.34376 20.3495 9.1604 21.16 9.32409C23.6 9.81335 25.484 11.756 25.9614 14.2743V14.2761C26.0974 15.001 26.718 15.528 27.4325 15.528C27.5284 15.528 27.6241 15.519 27.7218 15.501C28.5322 15.3338 29.0654 14.5189 28.9069 13.6807C28.1941 9.91948 25.3794 7.01448 21.7317 6.28238ZM24.5002 23.5634C25.2901 23.0948 26.1826 22.5657 27.3082 22.8119C28.3278 23.0331 31.8029 25.9345 32.7546 26.9402C33.3785 27.5985 33.7253 28.2783 33.7794 28.9584C33.8734 31.626 30.3494 34.6712 29.708 35.0508C28.8558 35.6821 27.8642 36.0005 26.7505 36.0005C25.6125 36.0005 24.3436 35.6677 22.9598 35.004C15.4517 31.7806 3.98218 20.2163 0.949657 12.5536C-0.308665 9.70074 -0.31738 7.34796 0.928743 5.57979C1.42545 4.75054 4.25754 1.28433 6.79336 1.39406C7.46783 1.45341 8.12314 1.80958 8.76624 2.45713C9.73874 3.43744 12.4889 7.0224 12.7016 8.07466C12.9368 9.24387 12.421 10.1738 11.9626 10.9905C11.8648 11.166 11.7331 11.3743 11.5888 11.6026C11.0411 12.4688 10.3121 13.6217 10.5701 14.3578C12.4192 19.0274 16.6909 23.1015 21.2328 25.0154C21.935 25.2781 23.0554 24.5228 23.8949 23.957C24.1134 23.8096 24.3131 23.675 24.4813 23.5745L24.5002 23.5634Z" fill="#FED200"/>
</svg>
