<svg width="67" height="67" viewBox="0 0 67 67" fill="none" xmlns="http://www.w3.org/2000/svg">
<g clip-path="url(#clip0_1108_91)">
<path d="M31.2725 34.0896C31.3094 34.0698 31.3572 34.039 31.4191 33.9908C31.5139 33.9171 31.5882 33.8486 31.688 33.7566C31.7458 33.7034 31.8122 33.6423 31.896 33.5677C32.2808 33.2252 32.9542 32.6808 33.9625 32.8292C34.6987 32.9368 35.4499 33.1715 36.1298 33.4048C36.3629 33.4848 36.5843 33.5632 36.797 33.6386C37.2375 33.7948 37.641 33.9378 38.0358 34.0542L38.0369 34.0545C39.2308 34.408 39.8729 35.095 40.3441 35.5991C40.3817 35.6393 40.4182 35.6784 40.4538 35.716C40.8968 36.1841 41.2376 36.4979 42.0225 36.6188L42.0258 36.6193C42.7352 36.731 43.3407 37.0035 43.7639 37.4932C44.1856 37.9813 44.3147 38.5566 44.3297 39.0514C44.3445 39.5364 44.2526 40.0154 44.1596 40.4027C44.1455 40.4612 44.131 40.5192 44.1165 40.576C44.2251 40.5898 44.3476 40.6036 44.4846 40.6177C44.6352 40.6331 44.7998 40.6485 44.9748 40.6649C45.7001 40.7328 46.6041 40.8174 47.4268 40.993C48.396 41.1999 49.6125 41.5978 50.256 42.5766C50.9819 43.6808 50.7145 45.0371 49.8364 46.4726C49.4337 47.1747 49.3677 48.03 49.2791 49.1775C49.2759 49.2178 49.2728 49.2583 49.2696 49.2993C49.1842 50.4009 49.0626 51.8169 48.1571 52.9643L48.1493 52.9743C47.5122 53.7608 46.9564 54.1964 46.5478 54.5167C46.4455 54.5968 46.3525 54.6698 46.2697 54.7392C45.9121 55.039 45.5674 55.3907 45.1182 56.4315C44.9988 56.7323 44.506 57.7752 43.9837 58.6324C43.7199 59.0653 43.3784 59.571 43.0149 59.8877C42.9954 59.9047 42.9725 59.9242 42.9463 59.9453C42.9253 60.306 42.8288 60.6637 42.6392 60.9947C42.278 61.6252 41.6608 62.0173 40.9205 62.1556C40.8999 62.3774 40.8273 62.6448 40.6287 62.9004L40.4069 63.1859L40.0538 63.2636C38.72 63.5571 37.3525 63.7654 35.9559 63.8755L35.1313 63.9405L34.9128 63.1427C34.4472 61.4424 34.0888 59.6179 33.8494 58.0816C33.614 56.5708 33.4817 55.2626 33.495 54.6185C33.5156 53.5708 33.4685 52.9844 33.3857 52.6252C33.3163 52.3242 33.2306 52.2133 33.1163 52.1015C33.0546 52.0411 32.9555 51.964 32.8262 51.8635C32.3601 51.5011 31.5021 50.8339 30.5891 49.5442L30.5874 49.5418C29.0481 47.3535 27.5286 44.7289 27.6179 41.6443L28.653 41.6714C28.7199 41.5811 28.8751 41.2523 29.064 40.7948C28.9582 40.7431 28.833 40.7071 28.6856 40.6982C28.2882 40.6742 28.0323 40.8917 27.9954 40.923L27.9928 40.9252C27.9196 40.9866 27.8747 41.0434 27.8613 41.0606C27.8363 41.0927 27.8228 41.1151 27.8228 41.1151C27.8228 41.1151 27.8315 41.1003 27.8501 41.0638C27.911 40.9445 28.0095 40.7276 28.1312 40.4337C28.3721 39.8522 28.6729 39.0447 28.9056 38.2722C29.0002 37.9583 29.0764 37.6724 29.1336 37.4224C28.6075 37.6129 28.0873 37.6594 27.5705 37.5446C26.8267 37.3794 26.2651 36.9116 25.8525 36.5247C25.6731 36.3564 25.5226 36.206 25.3828 36.0662C25.1475 35.831 24.9425 35.6261 24.6805 35.4169C24.3156 35.1257 23.9662 34.944 23.5587 34.8907L23.5572 34.8904C23.0306 34.8207 22.6265 34.6196 22.3088 34.346C22.0711 34.1414 21.885 33.8896 21.7846 33.7537C21.7687 33.7322 21.755 33.7137 21.7435 33.6986C21.6828 33.6188 21.6494 33.5831 21.6348 33.5688C21.6069 33.565 21.5428 33.5621 21.4247 33.5807C20.8463 33.6713 20.3056 33.5387 19.8557 33.3472C19.4066 33.1559 18.9891 32.8814 18.626 32.6103C18.2847 32.3555 17.9568 32.0769 17.6748 31.8373C17.6557 31.8211 17.6369 31.8051 17.6183 31.7893C17.3064 31.5245 17.0707 31.328 16.8786 31.1985L16.8655 31.1897L16.8527 31.1804C16.6508 31.0347 16.5252 30.848 16.459 30.7404C16.3815 30.6143 16.3147 30.4769 16.2575 30.3461C16.1426 30.0836 16.0296 29.7626 15.9207 29.4264C15.8767 29.2906 15.8317 29.1469 15.7859 28.9975C15.7019 29.0529 15.6043 29.0997 15.4912 29.1325L15.4444 29.1461L15.3965 29.1551C14.7321 29.2796 14.2623 28.8505 14.077 28.6557C13.843 28.4097 13.6417 28.0918 13.472 27.7813C13.1255 27.147 12.7888 26.3125 12.4997 25.498C12.2073 24.6745 11.9494 23.8306 11.7658 23.1562C11.6742 22.8195 11.5988 22.5171 11.5466 22.2757C11.5207 22.1558 11.4984 22.0417 11.4829 21.9413C11.4722 21.8723 11.4514 21.7332 11.4575 21.5891C11.463 21.4086 11.4655 21.224 11.4681 21.0377C11.4758 20.4774 11.4838 19.902 11.5722 19.378C11.705 18.5912 12.0125 17.8612 12.6547 17.0526C12.8009 16.8643 13.0641 16.595 13.307 16.3464C13.32 16.3332 13.3329 16.32 13.3457 16.3069L13.3528 16.2995C13.6359 16.0098 13.9524 15.6859 14.2464 15.3587C14.5485 15.0226 14.7938 14.7192 14.9446 14.4784C14.9785 14.4243 15.003 14.3805 15.0204 14.3466C14.8523 13.755 14.7806 13.1338 14.7226 12.6319C14.7092 12.5152 14.6964 12.405 14.6834 12.303C14.5966 11.6235 14.4962 11.2739 14.3367 11.0691L13.7297 10.2898L14.5015 9.67328C15.1331 9.16885 15.7856 8.68548 16.4614 8.22891C17.8578 7.28522 19.3381 6.45878 20.8826 5.75507L21.0659 5.67156L21.2672 5.66551C21.437 5.66041 21.5783 5.6539 21.708 5.63972L21.7195 5.63852C22.133 5.59813 22.5221 5.52136 22.9623 5.43454C23.18 5.39158 23.4102 5.34617 23.662 5.30148C24.3671 5.17633 25.177 5.07403 26.02 5.20139C26.6766 5.29802 27.38 5.46478 28.0402 5.62132C28.3226 5.68825 28.597 5.75332 28.8565 5.81023C29.7774 6.01218 30.6156 6.14096 31.4057 6.07926L31.4134 6.07866C31.7697 6.0536 32.3307 5.94818 33.0781 5.79909C33.1499 5.78478 33.2229 5.77017 33.297 5.75533C33.9641 5.62182 34.7251 5.46952 35.4811 5.35337C36.3165 5.22501 37.1964 5.1323 37.9876 5.16542C38.7423 5.19701 39.6116 5.3484 40.246 5.8897L40.2483 5.8917C40.399 6.02106 40.5594 6.22843 40.6153 6.51895C40.6703 6.80389 40.601 7.04625 40.5241 7.20696C40.3916 7.484 40.1713 7.65839 40.0679 7.73604C39.8353 7.91077 39.5178 8.07666 39.2019 8.22575C39.3529 8.20923 39.5115 8.21382 39.6745 8.24615C39.9764 8.30598 40.2329 8.44872 40.4431 8.62511C40.8309 8.95061 41.1194 9.43939 41.3575 9.98968C41.4921 9.97506 41.6921 9.91663 42.058 9.80357C42.2412 9.74699 42.4726 9.67674 42.7053 9.63234C42.9336 9.58878 43.2415 9.55351 43.5669 9.62049C43.9253 9.69425 44.2697 9.88575 44.5249 10.2263C44.7601 10.54 44.8683 10.9118 44.9161 11.2724L44.9168 11.2779C44.9683 11.6829 45.1053 12.0373 45.2676 12.3898C45.2928 12.4447 45.3265 12.5156 45.3621 12.5908C45.4177 12.7078 45.4781 12.8351 45.5193 12.9281C45.5953 13.0996 45.6937 13.3401 45.7345 13.6021C45.7793 13.8895 45.7635 14.2644 45.5356 14.6238C45.3225 14.9598 45.0066 15.1494 44.7333 15.264C44.2183 15.4801 43.4652 15.5859 42.4964 15.6573C42.0761 15.6916 41.7896 15.7422 41.5976 15.795C41.5187 15.8167 41.4624 15.837 41.4236 15.8533C41.4236 15.8578 41.4236 15.8624 41.4236 15.8673C41.4236 15.8835 41.4247 15.9086 41.4261 15.941C41.4351 16.1487 41.4574 16.6603 41.2952 17.1122C41.0657 17.752 40.5536 18.2227 39.7881 18.5605C39.2163 18.8123 38.6855 19.023 38.1888 19.22C36.5147 19.8843 35.2299 20.3942 34.0817 21.8043C33.8139 22.1351 33.587 22.4106 33.392 22.6473C32.8527 23.3018 32.5576 23.66 32.3187 24.0724C32.0206 24.5868 31.8151 25.1923 31.4399 26.7029L31.4394 26.705C31.3593 27.0247 31.2004 27.3922 30.8724 27.6585C30.5104 27.9525 30.0829 28.0107 29.718 27.9408C29.1033 27.8231 28.6279 27.3508 28.3438 26.9888C28.0247 26.5821 27.7472 26.06 27.6155 25.5204C27.5918 25.4236 27.5712 25.3181 27.5566 25.2067M27.5566 25.2067C27.415 25.1739 27.2717 25.1385 27.1367 25.1051C27.067 25.0879 26.9996 25.0712 26.9358 25.0558C26.6823 24.9943 26.4726 24.9481 26.3075 24.9219C26.1182 25.1795 25.8836 25.3782 25.615 25.5232C25.2418 25.7249 24.8491 25.7958 24.5645 25.8374C24.4392 25.8556 24.3275 25.8706 24.2268 25.8841C23.7875 25.943 23.5581 25.9738 23.3262 26.1281L23.324 26.1295C22.8937 26.414 22.3509 27.1323 22.077 27.9645C21.8233 28.7356 21.8979 29.2643 22.1063 29.5552C22.1591 29.5489 22.2438 29.5327 22.3707 29.4939C22.7594 29.375 23.2401 29.133 23.7879 28.8408C23.8507 28.8073 23.9153 28.7726 23.9811 28.7372C24.4301 28.4959 24.9393 28.2224 25.355 28.0734C25.5737 27.9951 25.9453 27.8807 26.3355 27.9458C26.561 27.9834 26.8211 28.0859 27.037 28.3083C27.2485 28.5261 27.3436 28.7827 27.3812 29.0001C27.4736 29.5277 27.3117 29.9719 27.1322 30.2894C26.9827 30.5537 26.7838 30.7922 26.6383 30.9628C26.6994 30.9496 26.7612 30.9368 26.8194 30.9258C26.9726 30.8969 27.1821 30.8636 27.3978 30.8691C27.6009 30.8743 27.9638 30.9165 28.28 31.1877C28.6313 31.489 28.7254 31.8947 28.7253 32.2075M27.5566 25.2067L28.7253 32.2088V32.2075M28.7253 32.2075C28.7254 32.2383 28.7253 32.2707 28.7253 32.3046C28.7246 32.6936 28.7237 33.2697 28.8691 33.7092C28.925 33.8783 28.977 33.943 28.9943 33.9615M28.7253 32.2075L29.2698 33.9095C29.1111 33.9633 29.0285 33.9655 28.9943 33.9615M28.9943 33.9615C28.992 33.9612 28.988 33.9606 28.988 33.9606M28.9943 33.9615C28.9982 33.9657 29.0003 33.9676 29.0003 33.9676L28.9981 33.9662C28.9943 33.9639 28.9909 33.962 28.988 33.9606M28.988 33.9606C28.98 33.9567 28.975 33.9565 28.975 33.9565C28.975 33.9565 28.9787 33.9591 28.988 33.9606ZM57.2647 14.3103L58.4907 16.0635C58.5116 16.0933 58.5371 16.1293 58.5652 16.1688C58.6293 16.2589 58.7066 16.3675 58.7715 16.4648C59.3156 17.2677 59.8159 18.0995 60.2779 18.9504L60.6767 19.685L60.6805 19.6843L60.7113 19.7487L60.8425 19.9903L60.8289 19.995L61.0109 20.3759C62.9099 24.3511 63.9746 28.7977 63.9757 33.4992C63.9757 33.5414 63.9745 33.5811 63.9738 33.6058L63.9737 33.6093C63.9732 33.626 63.9729 33.6372 63.9727 33.6458C63.9726 33.6519 63.9725 33.6567 63.9725 33.6612V35.3684L62.5329 34.5612C62.4111 34.5874 62.2468 34.6252 62.0428 34.6721C61.9651 34.69 61.8816 34.7092 61.7925 34.7296C61.4157 34.8158 60.963 34.9175 60.4981 35.0104C60.0354 35.103 59.5472 35.1896 59.1005 35.2435C58.6766 35.2947 58.2056 35.3278 57.8151 35.2718C57.5153 35.2288 57.2323 35.1002 57.0155 34.9843C56.7807 34.8587 56.5352 34.6992 56.2934 34.5257C55.8089 34.1778 55.283 33.7326 54.8001 33.278C54.3177 32.8239 53.8557 32.3395 53.506 31.9065C53.3325 31.6918 53.1705 31.4701 53.0466 31.2575C52.9499 31.0917 52.7721 30.7636 52.7721 30.385C52.7721 29.9882 52.8101 29.0923 52.8838 28.2421C52.9208 27.8159 52.9684 27.3816 53.0283 27.0164C53.0581 26.8348 53.0935 26.6539 53.1367 26.4921C53.1724 26.3585 53.2393 26.133 53.3713 25.9344L53.3723 25.9328C53.5133 25.7217 53.8873 25.2365 54.2875 24.7172C54.3678 24.6129 54.4492 24.5073 54.53 24.4023C55.0416 23.737 55.5592 23.0562 55.8259 22.6573C56.1241 22.2093 56.5178 21.6549 56.9478 21.1842C57.1632 20.9484 57.4053 20.7141 57.666 20.5209C57.7226 20.4789 57.7829 20.4369 57.8467 20.3959M57.2647 14.3103L56.7059 16.3753C56.6234 16.6803 56.4803 17.2244 56.3718 17.7206C56.3182 17.9657 56.2681 18.221 56.2399 18.4378C56.2261 18.5436 56.2136 18.6681 56.2139 18.7905C56.2141 18.8513 56.2172 18.9358 56.233 19.0297C56.2459 19.1058 56.2813 19.2822 56.4019 19.4639C56.5605 19.703 56.8018 19.8694 56.9263 19.9509C57.0933 20.0602 57.2902 20.1665 57.4964 20.2581C57.5979 20.3032 57.7164 20.3514 57.8467 20.3959M57.2647 14.3103L57.8467 20.3959M2.63371 46.5406L2.64538 46.5357M35.2272 12.6918L35.229 12.6911M51.6713 6.55164C46.4873 3.0477 40.2249 0.998985 33.4996 1C29.0159 1 24.7367 1.91016 20.849 3.55438C15.0141 6.02303 10.0543 10.1414 6.55029 15.3288C3.04652 20.5118 0.997972 26.7745 1 33.4997C0.998988 37.9843 1.90918 42.2623 3.55456 46.1511C6.02197 51.9849 10.1412 56.9446 15.3279 60.4486C20.5118 63.9524 26.7742 66.001 33.4995 66C37.9832 66 42.2623 65.0898 46.1499 63.4455C51.9848 60.977 56.9436 56.8586 60.4486 51.671C63.9524 46.4883 66 40.226 66 33.4995C66 29.0159 65.0899 24.7379 63.4455 20.8491C60.977 15.0152 56.8579 10.0555 51.6713 6.55164ZM42.7369 58.7033C42.7339 58.7073 42.731 58.7113 42.728 58.7153L42.7401 58.7106C42.7401 58.7106 42.7384 58.7066 42.7369 58.7033ZM22.034 29.5576C22.034 29.5576 22.0377 29.5575 22.0439 29.5588C22.0369 29.5585 22.034 29.5576 22.034 29.5576ZM38.8809 6.1253C38.8809 6.1253 38.8771 6.12918 38.8669 6.1368C38.8754 6.12909 38.8809 6.1253 38.8809 6.1253ZM21.6522 33.5726C21.6522 33.5726 21.6495 33.5722 21.6451 33.5705C21.6503 33.5715 21.6522 33.5726 21.6522 33.5726ZM32.8155 11.0529L32.8175 11.0509C32.8126 11.0567 32.8113 11.0573 32.8155 11.0529ZM34.303 10.2483C34.9534 9.95909 35.716 9.65367 36.4861 9.34875C36.577 9.31276 36.6681 9.27673 36.7592 9.24072C37.2704 9.03859 37.7801 8.83705 38.2419 8.64557C38.0511 8.79705 37.8916 8.96773 37.7625 9.12083C37.5017 9.43 37.2574 9.80026 37.0357 10.1572C36.8929 10.3873 36.7588 10.6115 36.6296 10.8275C36.4593 11.1121 36.2976 11.3824 36.1358 11.6329C36.124 11.5277 36.1001 11.4173 36.0591 11.3046C35.7618 10.486 34.914 10.2983 34.323 10.2498C34.3166 10.2493 34.3099 10.2488 34.303 10.2483Z" stroke="white" stroke-width="2"/>
</g>
<defs>
<clipPath id="clip0_1108_91">
<rect width="67" height="67" fill="white"/>
</clipPath>
</defs>
</svg>
