<svg width="19" height="21" viewBox="0 0 19 21" fill="none" xmlns="http://www.w3.org/2000/svg">
<path d="M14.7667 20.63L11.8387 17.462C11.1187 17.67 10.3267 17.774 9.46269 17.774C7.91069 17.774 6.47869 17.414 5.16669 16.694C3.87069 15.958 2.83869 14.942 2.07069 13.646C1.31869 12.334 0.942688 10.862 0.942688 9.22996C0.942688 7.59796 1.31869 6.13396 2.07069 4.83796C2.83869 3.54196 3.87069 2.53396 5.16669 1.81396C6.47869 1.07796 7.91069 0.709956 9.46269 0.709956C11.0307 0.709956 12.4627 1.07796 13.7587 1.81396C15.0707 2.53396 16.1027 3.54196 16.8547 4.83796C17.6067 6.13396 17.9827 7.59796 17.9827 9.22996C17.9827 10.766 17.6467 12.158 16.9747 13.406C16.3187 14.638 15.4067 15.63 14.2387 16.382L18.2467 20.63H14.7667ZM3.75069 9.22996C3.75069 10.462 3.99069 11.55 4.47069 12.494C4.96669 13.422 5.64669 14.142 6.51069 14.654C7.37469 15.15 8.35869 15.398 9.46269 15.398C10.5667 15.398 11.5507 15.15 12.4147 14.654C13.2787 14.142 13.9507 13.422 14.4307 12.494C14.9267 11.55 15.1747 10.462 15.1747 9.22996C15.1747 7.99796 14.9267 6.91796 14.4307 5.98996C13.9507 5.06196 13.2787 4.34996 12.4147 3.85396C11.5507 3.35796 10.5667 3.10996 9.46269 3.10996C8.35869 3.10996 7.37469 3.35796 6.51069 3.85396C5.64669 4.34996 4.96669 5.06196 4.47069 5.98996C3.99069 6.91796 3.75069 7.99796 3.75069 9.22996Z" fill="black"/>
</svg>
