<svg width="47" height="42" viewBox="0 0 47 42" fill="none" xmlns="http://www.w3.org/2000/svg">
<path d="M17.5991 0.469016C15.1612 1.0754 13.1688 2.84505 12.5005 5.03545C12.2282 5.92646 12.1787 7.36198 12.3891 8.20349C12.5129 8.72325 12.5005 8.78513 11.758 10.2578C11.1021 11.5695 11.0155 11.8294 11.1268 12.0769C11.3991 12.6586 11.7332 12.6833 13.1564 12.1759C14.6166 11.6562 14.3444 11.6314 15.8542 12.4729C16.8194 13.0051 18.2549 13.3516 19.5048 13.3516C20.7919 13.3516 21.5962 13.1783 22.71 12.6709L23.5763 12.2873L24.3188 12.6214C25.3707 13.1041 26.5463 13.3516 27.8086 13.3516C29.405 13.3516 30.4692 13.0298 32.3255 11.9779L32.7834 11.718L34.2065 12.1883L35.6297 12.6586L35.9514 12.3615C36.1247 12.2007 36.2608 11.9779 36.2608 11.8542C36.2608 11.7304 35.9267 11.0003 35.5059 10.2083C34.8005 8.85938 34.7634 8.76038 34.8872 8.31487C35.1099 7.53523 35.048 5.91409 34.7758 5.03545C33.5259 1.00115 28.2664 -0.991254 24.2569 1.03827L23.601 1.3724L22.6605 0.926897C22.1407 0.679394 21.423 0.43189 21.0517 0.357639C20.0741 0.172012 18.6262 0.221513 17.5991 0.469016ZM20.8166 1.60753C21.1755 1.68178 21.6829 1.85503 21.9304 1.97879L22.4006 2.21391L21.8685 2.8698C19.9132 5.27058 19.938 8.55 21.9304 10.8147C22.1902 11.1117 22.4006 11.3715 22.4006 11.4087C22.4006 11.4458 22.0789 11.6067 21.6952 11.7552C21.1136 11.9903 20.73 12.0398 19.6162 12.0398C18.0074 12.0522 17.2897 11.8665 16.0398 11.1117C15.0374 10.5053 14.4681 10.4063 13.6638 10.6785C13.342 10.7899 13.0326 10.8765 12.9707 10.8765C12.9212 10.8765 13.0697 10.4805 13.3173 9.98552C13.7504 9.13163 13.7628 9.05738 13.6638 8.33962C13.6019 7.93124 13.5648 7.13923 13.5648 6.59472C13.5648 5.70371 13.6143 5.48096 13.9731 4.75082C14.4434 3.79794 15.3963 2.79555 16.312 2.30054C17.6114 1.59516 19.4306 1.31053 20.8166 1.60753ZM29.3802 1.71891C30.6301 2.02829 31.4469 2.48617 32.276 3.3153C33.0804 4.10731 33.6496 5.24583 33.7486 6.23584C33.7858 6.61947 33.7486 7.39911 33.662 7.96837L33.5011 8.9955L33.9466 9.93602C34.1942 10.4558 34.3798 10.8765 34.3674 10.8765C34.355 10.8765 34.0704 10.7899 33.7363 10.6909C32.8081 10.4063 32.5359 10.4558 31.2612 11.124C28.9966 12.312 27.0042 12.4358 24.9375 11.4953C22.8709 10.5672 21.5096 8.46337 21.6952 6.49572C21.819 5.1592 22.2026 4.36719 23.1926 3.37718C24.8757 1.70653 27.0537 1.1249 29.3802 1.71891Z" fill="#152532"/>
<path d="M16.5773 6.19859C16.2555 6.5451 16.2555 7.0896 16.5773 7.41136C16.9856 7.81974 17.5054 7.78261 17.9138 7.33711C18.2479 6.95348 18.2603 6.66885 17.9261 6.24809C17.592 5.82734 16.9485 5.80259 16.5773 6.19859Z" fill="#152532"/>
<path d="M23.5243 6.24814C23.1902 6.6689 23.2025 6.95352 23.5491 7.33715C24.1183 7.98066 25.1207 7.64653 25.1207 6.8174C25.1207 6.00064 24.0193 5.61701 23.5243 6.24814Z" fill="#152532"/>
<path d="M27.3738 6.12442C27.1758 6.26054 27.1016 6.43379 27.1016 6.7803C27.1016 7.36193 27.3986 7.65894 27.9926 7.65894C28.5247 7.65894 28.8341 7.34956 28.8341 6.81742C28.8341 6.06254 28.0173 5.66653 27.3738 6.12442Z" fill="#152532"/>
<path d="M31.0639 6.17397C30.9278 6.31009 30.8164 6.58235 30.8164 6.79272C30.8164 7.64661 31.8064 7.99312 32.4004 7.33723C32.7346 6.9536 32.7469 6.66897 32.4128 6.24822C32.091 5.83984 31.4352 5.80271 31.0639 6.17397Z" fill="#152532"/>
<path d="M8.72216 13.772C6.94014 14.3413 5.59125 15.6902 5.04674 17.4722C4.84874 18.1405 4.81161 18.5488 4.84874 19.4151C4.89824 20.368 4.96011 20.6279 5.36849 21.4446C6.74214 24.229 9.92255 25.3552 12.7193 24.031C14.1425 23.3628 15.38 21.754 15.7265 20.1452C16.2834 17.5341 14.588 14.6383 12.0387 13.8463C11.1106 13.5617 9.5018 13.5245 8.72216 13.772ZM12.0263 15.1704C13.3133 15.7521 14.3652 17.1876 14.5385 18.6107C14.6499 19.4646 14.3405 20.6526 13.796 21.4818C12.8926 22.8307 11.1353 23.5732 9.5513 23.2514C6.50701 22.6327 5.09624 19.2419 6.80401 16.6678C7.26189 15.9748 7.8559 15.5046 8.77166 15.1209C9.6503 14.7497 11.1229 14.7744 12.0263 15.1704Z" fill="#152532"/>
<path d="M35.3654 13.8465C34.4126 14.1806 33.967 14.4653 33.1874 15.2325C30.0194 18.3634 31.8385 23.759 36.3183 24.5263C37.9395 24.7985 39.8329 24.1674 41.0456 22.9299C43.6568 20.2445 42.8772 15.8018 39.4987 14.1188C38.6325 13.698 38.4716 13.6609 37.3207 13.6238C36.3183 13.599 35.9347 13.6485 35.3654 13.8465ZM39.078 15.3315C40.4888 16.0864 41.2065 17.2249 41.3055 18.8584C41.3674 20.1455 41.0704 20.9994 40.2165 21.9275C38.5954 23.7095 35.9099 23.7838 34.165 22.1007C33.868 21.8161 33.472 21.2469 33.274 20.8385C32.6182 19.4772 32.8409 17.5591 33.7938 16.4082C34.6848 15.3192 35.8481 14.8118 37.3083 14.8736C38.1499 14.9108 38.4097 14.9726 39.078 15.3315Z" fill="#152532"/>
<path d="M6.43545 25.8999C5.34644 26.1722 3.99754 26.9147 3.10653 27.7438C2.06702 28.7091 1.42351 29.6991 1.00275 30.9737L0.668625 31.9761L0.65625 36.3074C0.65625 41.1709 0.65625 41.1461 1.54726 41.7154L2.01752 42H10.0242C17.9444 42 18.031 42 18.3775 41.7401C18.5631 41.604 18.8477 41.2946 19.0086 41.0719C19.2809 40.6635 19.2809 40.614 19.2809 36.4436C19.2809 33.0775 19.2437 32.0627 19.0952 31.4811C18.4022 28.771 16.2366 26.6053 13.5264 25.9123C12.5735 25.6772 7.43784 25.6648 6.43545 25.8999ZM13.2047 27.1498C15.4693 27.6819 17.3256 29.5382 17.8577 31.8029C18.0805 32.7681 18.13 40.0571 17.9196 40.4655C17.7959 40.6882 17.5731 40.7006 10.0242 40.7006C4.14605 40.7006 2.21552 40.6635 2.10414 40.5521C1.85664 40.3046 1.89377 32.5577 2.14127 31.6049C2.41352 30.5653 2.89615 29.7362 3.76242 28.8576C4.57918 28.0284 5.86619 27.2983 6.91808 27.1003C7.89572 26.9023 12.3137 26.9394 13.2047 27.1498Z" fill="#152532"/>
<path d="M33.4355 25.8999C32.3464 26.1722 30.9975 26.9147 30.1065 27.7438C29.067 28.7091 28.4235 29.6991 28.0028 30.9737L27.6686 31.9761L27.6562 36.3074C27.6562 41.1709 27.6562 41.1461 28.5473 41.7154L29.0175 42H37.0242C44.9444 42 45.031 42 45.3775 41.7401C45.5631 41.604 45.8477 41.2946 46.0086 41.0719C46.2809 40.6635 46.2809 40.614 46.2809 36.4436C46.2809 33.0775 46.2437 32.0627 46.0952 31.4811C45.4022 28.771 43.2366 26.6053 40.5264 25.9123C39.5735 25.6772 34.4378 25.6648 33.4355 25.8999ZM40.2047 27.1498C42.4693 27.6819 44.3256 29.5382 44.8577 31.8029C45.0805 32.7681 45.13 40.0571 44.9196 40.4655C44.7959 40.6882 44.5731 40.7006 37.0242 40.7006C31.146 40.7006 29.2155 40.6635 29.1041 40.5521C28.8566 40.3046 28.8938 32.5577 29.1413 31.6049C29.4135 30.5653 29.8962 29.7362 30.7624 28.8576C31.5792 28.0284 32.8662 27.2983 33.9181 27.1003C34.8957 26.9023 39.3137 26.9394 40.2047 27.1498Z" fill="#152532"/>
</svg>
