<svg width="51" height="58" viewBox="0 0 51 58" fill="none" xmlns="http://www.w3.org/2000/svg">
<path d="M36.6694 9.41534L36.6694 9.41532L36.6737 9.42486C37.1623 10.5082 38.2836 11.5627 40.1794 12.4863C41.3033 13.0097 42.1701 13.1556 42.7775 13.0729C43.3285 12.9979 43.7185 12.7328 43.9876 12.2239C44.2576 11.6919 44.6741 10.4106 45.0334 9.0313C45.209 8.35709 45.3631 7.68952 45.4726 7.12073C45.5862 6.53017 45.6385 6.11162 45.6385 5.90312C45.6385 4.55323 44.8534 3.0706 43.7401 2.30658L43.7375 2.30479C42.5298 1.47038 40.5755 1.29509 39.3044 1.87282C38.1603 2.42128 37.1849 3.6403 36.6577 5.13407C36.1301 6.62893 36.1151 8.21986 36.6694 9.41534Z" stroke="black" stroke-width="2"/>
<path d="M26.8718 23.7672L26.8698 23.7704C24.915 26.8519 23.7083 28.8037 22.9907 30.0761C22.6312 30.7135 22.4096 31.154 22.2797 31.4655C22.1552 31.7639 22.1443 31.8768 22.1433 31.8867C22.1432 31.8876 22.1432 31.8876 22.1432 31.887C22.1432 32.464 21.9595 33.0079 21.6455 33.6167C21.3359 34.2169 20.8562 34.961 20.1781 35.9509L20.1782 35.951L20.1715 35.9605L18.3814 38.5101L17.8254 39.3018L17.0157 38.7724L16.3255 38.3211C15.8597 38.0383 14.5127 37.1019 13.3218 36.2551L13.3213 36.2547C11.4959 34.9548 10.5482 34.3545 9.90365 34.1297C9.62236 34.0316 9.44879 34.0253 9.30859 34.0457C9.15367 34.0684 8.96127 34.1351 8.65079 34.2999C8.64228 34.3071 8.63038 34.3176 8.6149 34.3319C8.55397 34.3881 8.46797 34.4753 8.35582 34.5979C8.13275 34.8418 7.84451 35.1839 7.5071 35.6042C6.83437 36.4422 5.99892 37.5502 5.15698 38.7121C4.31568 39.8731 3.47451 41.0787 2.79031 42.11C2.09496 43.1581 1.60142 43.9676 1.41223 44.3721C0.472565 46.4782 1.14355 48.9455 3.45289 50.6358L3.4529 50.6358L3.45857 50.64C3.9114 50.9764 4.3764 51.3312 4.63681 51.9029C4.87071 52.4163 4.89389 53.0204 4.91812 53.6517C4.91851 53.662 4.91891 53.6723 4.9193 53.6826L4.91933 53.6826L4.91957 53.6902C4.98423 55.7809 6.54538 57.1291 8.44063 56.9049L8.44062 56.9049L8.4539 56.9035C9.55822 56.7878 10.3697 56.2073 10.8231 55.4031C11.2807 54.5916 11.4062 53.4884 10.9819 52.3007L10.6313 51.3569L10.4481 50.8637L10.7509 50.4334L16.7984 41.8366C18.4561 39.4725 20.0199 37.2899 21.2015 35.6792C21.7917 34.8747 22.2898 34.2084 22.6579 33.7322C22.8411 33.4951 22.9978 33.2978 23.1201 33.1517C23.1805 33.0797 23.2404 33.0106 23.2956 32.9521C23.3229 32.9232 23.3572 32.8882 23.3954 32.8533L23.3955 32.8532C23.4105 32.8396 23.4455 32.8077 23.4955 32.7708C23.5036 32.7624 23.5142 32.7511 23.5275 32.7365C23.5896 32.6685 23.6792 32.564 23.7972 32.4204C24.0312 32.1353 24.3485 31.7307 24.7288 31.2327C25.487 30.2396 26.4768 28.8998 27.5161 27.4556C28.5491 25.9877 29.5021 24.6671 30.2058 23.7175C30.5571 23.2434 30.8505 22.856 31.0624 22.5874C31.1664 22.4555 31.2603 22.3401 31.3356 22.2547C31.3693 22.2165 31.4205 22.1598 31.4777 22.1075C31.4989 22.0881 31.5673 22.0256 31.6644 21.9683C31.7068 21.9433 31.8259 21.8757 31.9947 21.8441C32.1592 21.8133 32.5034 21.8001 32.8085 22.0478C33.0015 22.2022 33.0847 22.3871 33.1132 22.4574C33.1589 22.57 33.1742 22.6662 33.1803 22.7111C33.1932 22.8061 33.191 22.8872 33.1896 22.924C33.1863 23.0095 33.1756 23.0983 33.1656 23.1702C33.1443 23.3232 33.1087 23.5219 33.0652 23.7432C32.9771 24.1905 32.8452 24.7868 32.6942 25.4184C32.0286 28.2576 31.6375 30.0385 31.4476 31.2336C31.2558 32.4406 31.2948 32.9153 31.3799 33.2092L31.3799 33.2092L31.3824 33.2181C31.3782 33.203 31.3795 33.2059 31.3918 33.2332C31.4086 33.2707 31.4463 33.3545 31.519 33.5012C31.6258 33.7169 31.7773 34.0082 31.9695 34.3683C32.3533 35.087 32.8874 36.0562 33.5244 37.1938C34.7977 39.4678 36.4734 42.3985 38.1603 45.31C39.8472 48.2215 41.543 51.1095 42.8566 53.2985C43.5139 54.3937 44.0726 55.3092 44.4856 55.9635C44.6927 56.2918 44.8585 56.5468 44.9793 56.7235C45.0034 56.7586 45.0247 56.7893 45.0433 56.8157C45.0519 56.8179 45.0612 56.8202 45.0711 56.8226C45.2117 56.8565 45.4138 56.89 45.6721 56.9185C46.1851 56.975 46.8368 57.003 47.4883 56.9997C48.0509 56.9969 48.5882 56.9709 49.0145 56.9258C49.0013 56.9077 48.9876 56.8893 48.9734 56.8707C48.6624 56.4633 48.2417 56.1147 47.9023 55.9704L47.8936 55.9668L47.885 55.9629L46.8544 55.5018L46.4908 55.3392L46.3386 54.9711L42.1888 44.9356L38.039 34.9L37.9264 34.6278L37.9794 34.338L39.2541 27.3679C39.6459 25.2194 39.9417 23.4169 40.1256 22.0997C40.2177 21.4397 40.2803 20.9118 40.3133 20.5275C40.3299 20.3345 40.338 20.1894 40.3397 20.0878C40.3404 20.0468 40.3399 20.0202 40.3394 20.0053C39.6777 17.3206 37.5084 15.5567 34.5129 15.3639C33.6688 15.3225 33.289 15.3265 33.0332 15.3751C32.8465 15.4105 32.7011 15.4723 32.362 15.7179L32.3601 15.7192C32.361 15.7186 32.3615 15.7183 32.3615 15.7183C32.3619 15.7188 32.3227 15.7515 32.2356 15.8475C32.1419 15.9508 32.0206 16.0959 31.8701 16.288C31.5694 16.6716 31.1785 17.2088 30.699 17.9014C29.7412 19.2845 28.4548 21.2507 26.8718 23.7672ZM23.4757 32.791C23.4764 32.7903 23.4775 32.7893 23.4789 32.7878C23.4691 32.7965 23.4675 32.7987 23.4757 32.791ZM45.1354 56.9383C45.1353 56.938 45.1317 56.9335 45.125 56.9261C45.1321 56.935 45.1355 56.9387 45.1354 56.9383ZM49.281 57.4196C49.2817 57.4271 49.2826 57.4311 49.2828 57.4312C49.2831 57.4313 49.2828 57.4276 49.281 57.4196ZM10.5638 51.9084C11.3736 52.925 11.3823 54.1822 10.8493 55.157C10.3203 56.1243 9.26764 56.8095 7.98851 56.8095C5.50552 56.8095 4.18357 54.0168 5.56813 52.0368C6.16501 51.1795 7.05693 50.6696 8.02561 50.6431C8.994 50.6167 9.91453 51.0766 10.5638 51.9084Z" stroke="black" stroke-width="2"/>
<path d="M42.9893 27.0691C43.0636 27.1274 43.1452 27.1934 43.2347 27.2679C44.0836 27.9749 45.3942 29.2366 47.3628 31.2323C48.1398 32.0228 48.7248 32.64 49.1537 33.1395C49.5905 33.6484 49.8199 33.9842 49.9295 34.2135C49.9809 34.3209 49.994 34.3809 49.9974 34.4046L42.9893 27.0691ZM42.9893 27.0691C42.9316 27.2847 42.8721 27.5245 42.8146 27.7728C42.7212 28.1757 42.6361 28.5879 42.5751 28.9385C42.5462 29.1042 42.5251 29.2429 42.5106 29.3535C42.6616 29.5217 42.8885 29.7558 43.1824 30.0448C43.7835 30.6361 44.6242 31.417 45.5641 32.2495C46.4768 33.0541 47.1913 33.6639 47.7689 34.1133C48.3552 34.5695 48.7522 34.8217 49.0336 34.9478C49.168 35.0081 49.2532 35.0289 49.3012 35.0357C49.3435 35.0417 49.3608 35.0376 49.3683 35.0357C49.393 35.0293 49.4937 34.9941 49.7279 34.7599C49.9617 34.5261 49.9951 34.4308 49.9986 34.4185L42.9893 27.0691ZM43.2306 26.3013C43.2306 26.3012 43.2295 26.3033 43.2273 26.3081C43.2296 26.3038 43.2306 26.3014 43.2306 26.3013ZM42.4135 26.6805C42.4082 26.6783 42.4057 26.6775 42.4058 26.6777C42.4058 26.6778 42.4085 26.6789 42.4135 26.6805Z" stroke="black" stroke-width="2"/>
<path d="M24.9671 56.3553L24.9688 56.3576C25.3265 56.8115 25.4428 56.8916 25.4985 56.9194C25.543 56.9417 25.6422 56.98 26.1633 56.98C26.2749 56.98 26.3843 56.9749 26.4868 56.9664C26.444 56.7442 26.3843 56.4864 26.3126 56.2164L25.8826 54.7652L25.7348 54.2662L26.0586 53.8589L27.7402 51.7433L27.7402 51.7432L27.7469 51.7349C29.1262 50.0373 30.4414 48.1307 31.4074 46.513C31.8909 45.7033 32.278 44.9808 32.5406 44.4033C32.6722 44.1141 32.7661 43.875 32.8254 43.6886C32.8541 43.5987 32.8707 43.5331 32.8803 43.4887C32.8754 43.4766 32.8699 43.4632 32.8636 43.4484C32.809 43.3199 32.722 43.1405 32.6038 42.9186C32.369 42.4775 32.0388 41.9198 31.6721 41.3567L31.6695 41.3528C31.3088 40.793 31.0157 40.38 30.7769 40.0913C29.8567 43.4986 27.6218 47.6831 24.7435 51.4953C24.2927 52.1186 23.8801 52.7218 23.5834 53.1894C23.4488 53.4016 23.3446 53.5755 23.2731 53.7054C23.2805 53.725 23.2892 53.7469 23.2993 53.7713C23.371 53.9444 23.4857 54.1728 23.6449 54.4476C23.9622 54.9951 24.4217 55.6671 24.9671 56.3553ZM32.9095 43.5676C32.9095 43.5675 32.9094 43.5674 32.9094 43.5673L32.9122 43.5775C32.9124 43.5776 32.9116 43.5744 32.9095 43.5676ZM23.1908 53.8672C23.1819 53.8889 23.1854 53.885 23.1932 53.8616C23.1922 53.8638 23.1914 53.8657 23.1908 53.8672Z" stroke="black" stroke-width="2"/>
</svg>
