<svg width="58" height="58" viewBox="0 0 58 58" fill="none" xmlns="http://www.w3.org/2000/svg">
<path d="M2.30029 43.9878L2.383 43.9051C6.33534 40.7259 10.8729 38.2501 15.8053 36.6443L16.8345 37.6624C19.9554 40.7496 24.2266 42.6875 28.9755 42.6875C33.7304 42.6875 38.0063 40.7438 41.1288 37.651L42.1578 36.6318C47.104 38.2372 51.6541 40.7179 55.6171 43.9052L55.6997 43.9878C56.5042 44.7923 57 45.9004 57 47.125V54.375C57 55.8264 55.8264 57 54.375 57H3.625C2.17357 57 1 55.8264 1 54.375V47.125C1 45.9004 1.49577 44.7923 2.30029 43.9878ZM42.5 18.8301V19.1186C42.2536 19.0024 41.9782 18.9375 41.6875 18.9375H40.875V18.125V17.2188C40.875 14.6646 38.8042 12.5938 36.25 12.5938H30.8125C29.2699 12.5938 27.9107 11.806 27.1146 10.6059L26.2812 9.34968L25.4479 10.6059C24.6518 11.806 23.2926 12.5938 21.75 12.5938C19.1958 12.5938 17.125 14.6646 17.125 17.2188V18.125V18.9375H16.3125C16.0218 18.9375 15.7464 19.0024 15.5 19.1186V18.8301V10.875C15.5 5.42157 19.9216 1 25.375 1H32.625C38.0784 1 42.5 5.42157 42.5 10.875V18.8301Z" stroke="black" stroke-width="2"/>
<path d="M26.1961 19.0737C26.1961 19.0738 26.1962 19.0739 26.1962 19.0739L26.1961 19.0737Z" stroke="black" stroke-width="2"/>
<path d="M35.2625 19.0737C35.2625 19.0738 35.2626 19.0739 35.2626 19.0739L35.2625 19.0737Z" stroke="black" stroke-width="2"/>
</svg>
