<?xml version="1.0" standalone="no"?>
<!DOCTYPE svg PUBLIC "-//W3C//DTD SVG 20010904//EN"
 "http://www.w3.org/TR/2001/REC-SVG-20010904/DTD/svg10.dtd">
<svg version="1.0" xmlns="http://www.w3.org/2000/svg"
 width="700.000000pt" height="700.000000pt" viewBox="0 0 700.000000 700.000000"
 preserveAspectRatio="xMidYMid meet">
<metadata>
Created by potrace 1.14, written by Peter Selinger 2001-2017
</metadata>
<g transform="translate(0.000000,700.000000) scale(0.100000,-0.100000)"
fill="#000000" stroke="none">
<path d="M3520 6605 c0 -19 7 -26 33 -33 30 -8 32 -11 35 -56 4 -69 -16 -256
-29 -272 -6 -8 -24 -14 -40 -14 -24 0 -29 -4 -29 -25 0 -19 5 -25 23 -26 12 0
54 -4 92 -8 39 -4 76 -6 83 -3 22 8 13 41 -13 48 -43 11 -48 25 -40 139 6 82
10 103 20 95 7 -6 57 -78 111 -160 79 -119 104 -150 122 -150 12 0 22 3 22 8
0 24 31 332 36 353 4 21 13 28 40 34 29 5 35 10 32 28 -3 20 -11 23 -97 30
-73 6 -96 5 -103 -5 -15 -25 -8 -36 27 -42 l35 -7 -1 -82 c-1 -137 -4 -136
-104 17 -55 82 -98 137 -110 140 -11 3 -48 7 -82 10 -62 6 -63 5 -63 -19z"/>
<path d="M3103 6599 c-45 -13 -119 -89 -132 -135 -60 -216 137 -390 328 -290
36 19 88 75 100 109 18 48 14 163 -8 205 -25 48 -77 96 -120 111 -40 13 -122
13 -168 0z m143 -74 c40 -42 59 -122 50 -205 -8 -68 -32 -102 -80 -114 -46
-12 -81 11 -113 74 -44 85 -25 241 31 268 42 21 77 14 112 -23z"/>
<path d="M2755 6535 c-5 -2 -47 -14 -93 -26 -74 -19 -83 -24 -80 -43 2 -16 11
-22 35 -24 29 -3 34 -8 44 -45 6 -23 24 -90 40 -150 16 -59 29 -112 29 -117 0
-6 -11 -15 -25 -20 -26 -10 -29 -18 -19 -43 4 -12 22 -10 111 14 58 16 108 30
110 33 3 2 2 14 -2 26 -5 17 -12 20 -35 15 -27 -6 -30 -4 -43 42 -42 143 -71
277 -61 280 28 9 45 29 38 46 -6 16 -25 20 -49 12z"/>
<path d="M2265 6373 c-99 -42 -181 -77 -183 -78 -6 -5 50 -135 58 -135 31 0
40 14 40 61 0 42 4 51 27 66 32 22 27 30 103 -152 61 -146 61 -142 15 -170
-14 -9 -14 -12 -2 -29 16 -22 16 -22 154 40 61 28 71 35 66 53 -4 18 -11 20
-42 15 l-36 -5 -62 152 c-47 114 -60 155 -50 161 24 15 57 7 91 -22 39 -35 71
-32 62 5 -10 40 -45 115 -53 115 -4 0 -89 -35 -188 -77z"/>
<path d="M4452 6417 c-91 -33 -152 -126 -152 -233 0 -82 36 -140 111 -178 29
-14 64 -26 78 -26 46 0 105 21 134 48 30 29 31 31 17 52 -7 12 -13 11 -34 -9
-49 -46 -135 -43 -179 6 -68 77 18 303 116 303 64 0 107 -58 107 -146 0 -36
25 -53 39 -26 11 21 51 142 51 155 0 5 -13 7 -29 4 -20 -4 -33 -1 -43 10 -37
45 -145 65 -216 40z"/>
<path d="M4880 6275 c-11 -13 -10 -18 8 -31 12 -8 22 -20 22 -26 0 -8 -150
-268 -166 -287 -2 -2 -17 1 -33 7 -30 11 -32 9 -35 -19 -1 -6 17 -22 39 -34
22 -13 60 -36 84 -50 62 -36 100 -17 49 25 l-22 18 25 38 c13 22 31 51 38 67
l14 27 56 -31 c98 -55 94 -46 50 -121 -37 -64 -41 -67 -65 -58 -28 11 -44 6
-44 -13 0 -14 153 -107 175 -107 25 0 27 20 3 39 l-23 19 20 34 c11 19 49 85
85 146 67 116 66 115 119 101 8 -2 16 3 18 13 3 11 -21 31 -80 67 -47 28 -89
51 -95 51 -20 0 -19 -25 0 -47 l20 -22 -32 -55 c-17 -31 -35 -56 -40 -56 -5 0
-38 19 -75 41 l-66 42 17 25 c9 14 25 40 36 58 17 29 22 32 45 23 17 -6 30 -6
39 2 19 15 13 22 -49 57 -28 16 -68 39 -88 51 -33 19 -38 20 -49 6z"/>
<path d="M1816 6147 c-15 -11 -14 -24 13 -177 47 -266 46 -249 22 -274 -18
-19 -19 -25 -7 -41 12 -17 17 -16 90 29 42 27 78 52 81 56 2 4 -1 15 -9 25
-12 16 -15 16 -44 1 l-31 -16 -10 37 c-6 21 -11 43 -11 48 0 9 83 65 96 65 3
0 21 -12 40 -26 l35 -27 -21 -22 c-20 -21 -19 -55 1 -55 5 0 50 25 100 56 63
39 89 61 87 72 -3 12 -13 17 -37 15 -28 -1 -60 18 -195 116 -197 143 -180 133
-200 118z m109 -182 c29 -24 29 -25 10 -39 -28 -21 -39 -15 -46 27 -7 43 -4
44 36 12z"/>
<path d="M1459 5858 c-25 -6 -71 -40 -138 -99 -55 -50 -101 -94 -101 -98 0 -5
6 -14 14 -20 12 -10 20 -9 38 3 23 15 26 13 137 -110 106 -117 112 -126 97
-143 -20 -22 -20 -35 -2 -50 10 -9 31 6 97 67 77 72 82 80 67 95 -13 14 -18
14 -34 2 -30 -22 -39 -18 -84 35 -35 42 -40 53 -30 65 20 25 53 17 109 -25 34
-26 64 -40 83 -40 86 0 125 79 77 156 -24 39 -26 40 -50 18 -18 -16 -18 -18 2
-43 30 -38 9 -36 -51 4 -28 19 -63 35 -76 35 -21 0 -23 4 -18 29 7 36 -19 94
-49 109 -37 17 -51 19 -88 10z m25 -114 c31 -32 33 -53 6 -87 l-20 -26 -47 50
c-45 48 -45 50 -28 69 25 27 57 25 89 -6z"/>
<path d="M5390 5740 c-96 -49 -183 -89 -193 -90 -10 0 -27 4 -37 10 -13 7 -21
5 -31 -6 -10 -13 -5 -21 32 -55 81 -73 95 -81 109 -64 11 13 9 20 -11 41 -26
27 -25 28 34 60 31 17 48 11 91 -34 27 -29 27 -32 16 -69 -17 -53 -25 -59 -54
-40 -22 15 -26 15 -37 1 -10 -13 -2 -24 52 -74 79 -73 105 -88 121 -72 9 9 7
16 -6 31 -11 12 -16 28 -13 38 9 27 61 176 101 287 28 75 34 102 25 112 -6 8
-14 14 -18 13 -3 0 -85 -40 -181 -89z m61 -65 c-9 -25 -19 -45 -23 -45 -4 0
-19 11 -34 24 l-28 23 39 21 c59 31 65 29 46 -23z"/>
<path d="M5815 5560 c-3 -5 -1 -18 5 -29 5 -11 10 -26 10 -35 0 -17 -238 -196
-261 -196 -9 0 -24 9 -33 19 -18 20 -46 18 -46 -2 0 -5 25 -43 55 -83 38 -50
60 -72 70 -68 17 7 20 30 5 39 -5 3 -10 17 -10 30 0 20 20 42 75 83 6 4 26 19
45 33 19 14 41 29 49 34 14 8 -57 -131 -112 -218 -47 -75 -34 -78 141 -35 81
20 148 36 149 34 3 -3 -156 -119 -179 -130 -14 -7 -24 -3 -42 13 -23 22 -46
22 -46 0 0 -5 30 -50 66 -100 58 -78 69 -89 81 -76 11 11 12 19 2 41 -8 16 -9
30 -3 35 27 25 254 191 260 191 4 0 17 -9 29 -20 19 -18 24 -19 34 -6 11 13 5
26 -34 76 -35 45 -51 60 -64 55 -20 -9 -248 -65 -261 -65 -6 0 10 37 35 83 25
45 57 105 72 134 l26 52 -44 60 c-43 59 -61 72 -74 51z"/>
<path d="M1072 5508 c-7 -7 -12 -18 -12 -26 0 -7 -22 -35 -49 -61 -106 -103
-104 -255 5 -351 50 -43 93 -60 154 -60 94 0 159 47 202 146 13 32 29 54 39
54 17 0 39 19 39 35 0 5 -25 28 -56 50 -73 52 -78 59 -64 86 10 17 9 24 -5 38
-15 15 -18 14 -38 -10 -76 -92 -117 -149 -117 -163 0 -27 29 -30 54 -7 28 26
31 26 67 0 36 -26 38 -63 5 -104 -21 -26 -30 -30 -75 -29 -65 1 -149 54 -191
121 -37 57 -38 90 -5 125 32 34 61 42 130 35 48 -5 75 3 75 24 0 6 -136 109
-143 109 -2 0 -8 -5 -15 -12z"/>
<path d="M726 4988 c-61 -112 -61 -114 -37 -127 17 -10 23 -8 33 9 17 27 31
25 92 -9 83 -47 169 -94 198 -108 24 -12 26 -17 16 -38 -11 -24 2 -55 23 -55
9 0 109 179 109 196 0 24 -34 26 -53 3 l-18 -22 -42 21 c-23 12 -87 46 -142
76 -100 54 -100 55 -100 93 0 27 -5 38 -17 41 -12 2 -29 -20 -62 -80z"/>
<path d="M6225 4958 c-2 -7 -3 -24 -2 -37 2 -22 -12 -31 -148 -94 l-149 -69
-17 21 c-19 24 -49 28 -49 7 0 -7 24 -62 54 -123 69 -141 121 -186 192 -169
42 11 84 59 84 96 0 27 3 31 18 25 60 -27 132 -2 153 53 13 34 3 71 -58 203
-43 91 -67 119 -78 87z m65 -174 c23 -60 -68 -115 -114 -68 -27 26 -18 42 37
68 66 31 66 31 77 0z m-172 -66 c15 -15 16 -62 2 -88 -14 -26 -71 -43 -104
-31 -23 10 -56 55 -45 65 6 6 123 65 130 66 3 0 10 -5 17 -12z"/>
<path d="M3205 4673 c-154 -63 -352 -144 -440 -180 -430 -176 -605 -247 -780
-318 -104 -43 -193 -81 -197 -84 -5 -4 760 -8 1699 -9 957 -1 1703 2 1698 6
-6 5 -102 46 -215 92 -247 100 -565 230 -675 275 -137 57 -427 176 -485 200
-30 12 -93 38 -140 58 -47 19 -108 44 -135 55 l-51 20 -279 -115z"/>
<path d="M566 4669 c-31 -84 -32 -93 -7 -105 11 -5 60 -45 110 -89 l91 -80
-33 -6 c-17 -4 -85 -12 -149 -19 l-117 -12 -25 -75 c-14 -42 -23 -80 -20 -84
10 -18 41 -8 54 16 7 14 18 25 25 25 19 0 279 -90 289 -100 5 -5 10 -24 10
-42 1 -25 6 -34 21 -36 18 -2 25 10 48 81 15 46 27 91 27 100 0 29 -38 20 -55
-13 -9 -16 -19 -30 -23 -30 -4 0 -52 14 -107 32 l-100 33 95 12 c52 6 120 12
151 12 48 1 57 4 62 21 4 16 -17 40 -99 111 -58 51 -103 93 -102 95 2 1 45
-11 96 -28 l92 -32 0 -37 c0 -25 5 -39 17 -43 21 -8 23 -5 63 115 28 84 31
102 19 110 -20 13 -39 11 -39 -3 -1 -42 -15 -41 -174 12 l-156 52 0 33 c0 28
-13 45 -35 45 -1 0 -14 -32 -29 -71z"/>
<path d="M6443 4483 c-7 -3 -13 -20 -13 -38 0 -32 -3 -34 -52 -49 -168 -47
-271 -70 -275 -60 -2 6 -10 20 -18 30 -11 15 -16 16 -26 7 -10 -10 -3 -46 31
-170 61 -225 46 -203 126 -187 37 8 70 16 72 19 13 12 -11 33 -45 39 -62 12
-80 29 -94 92 -15 66 -14 66 73 84 64 14 63 15 73 -18 5 -17 0 -29 -24 -51
-28 -27 -42 -61 -23 -61 4 0 45 11 92 24 69 19 85 27 85 42 0 15 -8 20 -38 22
-30 3 -40 9 -48 29 -14 38 -7 48 47 60 27 7 56 14 65 18 13 5 19 -4 29 -44 14
-59 7 -86 -26 -107 -25 -17 -31 -38 -14 -49 10 -6 120 21 120 30 0 6 -36 138
-66 245 -26 90 -32 100 -51 93z"/>
<path d="M376 4028 c-3 -7 -7 -43 -10 -79 l-6 -67 112 -57 c171 -87 170 -75
13 -130 -77 -27 -140 -55 -145 -64 -5 -9 -10 -48 -11 -86 -2 -65 -1 -70 19
-73 16 -2 23 3 28 22 11 45 21 47 179 31 82 -8 152 -18 156 -22 4 -5 9 -21 11
-38 2 -22 9 -31 25 -33 20 -3 22 2 29 80 11 120 10 128 -16 128 -14 0 -22 -10
-28 -32 -10 -39 -30 -43 -156 -31 l-79 8 104 36 c57 20 117 40 134 44 35 8 55
22 55 41 0 7 -56 43 -125 80 -69 37 -124 69 -122 70 5 5 188 -15 198 -22 5 -3
9 -18 9 -35 0 -24 4 -29 24 -29 28 0 32 11 42 141 5 75 4 87 -11 93 -23 9 -35
-1 -35 -30 0 -28 2 -28 -160 -14 -176 15 -178 16 -185 50 -5 21 -13 30 -26 30
-11 0 -21 -6 -23 -12z"/>
<path d="M1770 3930 l0 -60 1713 2 1712 3 0 55 0 55 -1712 3 -1713 2 0 -60z"/>
<path d="M6567 3964 c-4 -4 -7 -18 -7 -30 0 -13 -4 -25 -9 -28 -9 -6 -284 -36
-323 -36 -11 0 -18 8 -18 19 0 23 -25 45 -40 36 -7 -4 -9 -22 -6 -44 3 -20 8
-66 11 -103 6 -57 10 -68 25 -68 13 0 20 9 22 27 3 31 26 40 111 42 42 1 47
-1 47 -21 0 -37 -13 -48 -86 -74 -38 -14 -77 -33 -86 -41 -25 -23 -24 -97 1
-122 22 -22 82 -37 107 -27 26 10 12 41 -18 41 -62 2 -48 24 30 50 32 10 59
26 69 41 l16 25 31 -30 c45 -44 104 -44 140 -1 35 42 40 83 27 213 -11 103
-26 148 -44 131z m3 -196 c0 -44 -25 -68 -70 -68 -41 0 -65 19 -75 62 -7 26
-5 27 37 31 110 10 108 10 108 -25z"/>
<path d="M1903 3777 c-3 -5 -2 -28 2 -53 l6 -44 68 0 69 0 -4 -42 c-5 -47 -84
-1334 -84 -1359 0 -13 -11 -15 -62 -13 -35 1 -78 0 -96 -3 -33 -5 -33 -6 -30
-57 l3 -51 1713 -3 1713 -2 -3 57 -3 58 -88 1 c-48 1 -89 3 -91 5 -2 2 -6 51
-10 109 -3 58 -8 134 -11 170 -5 75 -12 174 -20 310 -3 52 -8 122 -10 155 -2
33 -9 150 -16 260 -6 110 -14 246 -18 302 l-6 102 70 3 70 3 0 50 0 50 -175
-2 c-96 -1 -196 -3 -222 -3 l-48 0 0 -50 0 -50 70 0 71 0 -6 -57 c-3 -32 -19
-285 -35 -563 -36 -613 -39 -659 -46 -736 l-5 -62 -166 4 c-91 2 -167 4 -168
6 -3 3 -72 1102 -82 1301 l-6 107 72 0 71 0 0 55 0 55 -225 0 -225 0 0 -55 0
-55 70 0 70 0 0 -37 c0 -21 -4 -90 -9 -153 -11 -130 -12 -140 -46 -715 -14
-231 -28 -439 -31 -462 l-5 -43 -164 0 c-191 0 -170 -17 -180 145 -3 55 -21
349 -40 654 -19 305 -35 567 -35 583 l0 28 70 0 70 0 0 55 0 55 -225 0 -225 0
0 -55 0 -55 70 0 c66 0 70 -1 70 -22 0 -24 -36 -633 -66 -1108 -9 -146 -20
-269 -24 -273 -8 -9 -320 -11 -328 -2 -5 5 -28 345 -66 985 -9 146 -19 300
-22 343 l-7 77 72 0 71 0 0 55 0 55 -222 -2 -223 -3 -3 -52 -3 -53 74 0 74 0
-4 -27 c-1 -16 -16 -253 -33 -528 -17 -275 -35 -569 -40 -654 -6 -85 -10 -165
-10 -178 l0 -23 -169 0 -169 0 -6 63 c-3 34 -11 141 -16 237 -6 96 -19 319
-30 495 -11 176 -22 367 -25 425 -3 58 -8 124 -10 148 l-5 42 70 0 70 0 0 56
0 56 -221 -3 c-121 -2 -223 -8 -226 -12z"/>
<path d="M6190 3402 c0 -11 5 -24 10 -27 7 -4 8 -11 2 -18 -17 -21 -30 -108
-22 -138 16 -56 43 -89 87 -105 78 -30 137 3 188 106 47 95 125 111 125 25 0
-39 -30 -69 -87 -86 -29 -8 -43 -18 -43 -30 0 -14 13 -18 81 -24 44 -4 83 -4
87 -1 3 4 1 16 -6 27 -10 16 -9 25 3 49 37 71 6 168 -62 197 -77 32 -135 2
-188 -97 -39 -76 -61 -94 -100 -84 -28 7 -45 31 -45 63 0 31 54 86 98 99 33
10 61 37 50 48 -2 1 -43 6 -91 10 -84 6 -87 6 -87 -14z"/>
<path d="M734 3338 l-10 -33 -144 -12 c-176 -16 -183 -15 -190 17 -4 16 -14
26 -29 28 l-24 4 7 -108 c4 -60 10 -112 12 -116 10 -16 44 -8 44 10 0 37 15
42 136 52 65 5 138 12 162 15 41 4 43 3 49 -25 4 -24 11 -30 30 -30 l24 0 -7
108 c-3 59 -9 110 -11 115 -11 20 -41 5 -49 -25z"/>
<path d="M655 2635 c-119 -64 -149 -203 -64 -299 111 -127 329 -47 329 119 0
66 -32 130 -82 163 -50 33 -138 41 -183 17z"/>
<path d="M6255 2635 c-108 -58 -146 -188 -82 -282 24 -37 106 -83 146 -83 79
0 170 60 192 127 26 81 -6 174 -79 223 -44 31 -134 38 -177 15z"/>
<path d="M1060 1783 c-63 -25 -117 -48 -120 -50 -2 -2 3 -16 12 -31 13 -21 23
-26 46 -24 34 4 48 -18 30 -47 -8 -14 -7 -24 7 -45 17 -26 18 -26 37 -9 11 10
52 55 90 101 l70 82 -23 35 c-13 19 -26 35 -29 34 -3 0 -57 -21 -120 -46z m55
-63 c-25 -26 -45 -31 -45 -11 0 6 55 38 69 40 3 1 -8 -12 -24 -29z"/>
<path d="M5776 1779 c-33 -39 -34 -82 -1 -114 29 -30 63 -32 114 -6 40 21 68
15 58 -12 -4 -10 -13 -13 -26 -10 -26 7 -62 -44 -40 -58 57 -36 146 50 124
121 -7 23 -53 50 -84 50 -11 0 -36 -9 -55 -21 -37 -21 -56 -19 -56 8 0 10 6
14 20 10 28 -7 61 40 39 54 -29 18 -67 10 -93 -22z"/>
<path d="M1196 1600 c-50 -42 -92 -82 -94 -88 -2 -6 16 -31 39 -57 60 -65 99
-62 182 14 69 63 68 107 -1 174 l-37 35 -89 -78z m114 -35 c0 -21 -98 -95
-116 -88 -21 8 -16 14 45 66 53 45 71 51 71 22z"/>
<path d="M5641 1603 c-46 -54 -49 -59 -34 -75 20 -22 32 -23 47 -3 9 12 23 4
89 -51 l77 -66 20 23 c10 13 19 27 20 30 0 3 -28 30 -62 59 -35 30 -67 57 -73
62 -6 5 -5 16 3 29 10 16 10 24 1 35 -20 24 -35 16 -88 -43z"/>
<path d="M1363 1412 c-34 -54 -65 -105 -68 -113 -3 -9 7 -26 24 -43 l29 -28
59 38 c32 20 82 53 111 71 l54 35 -23 24 c-12 13 -25 24 -29 24 -3 0 -34 -20
-68 -45 -34 -25 -62 -43 -62 -40 0 3 21 32 47 65 l46 60 -23 25 c-13 14 -26
25 -29 25 -3 0 -34 -45 -68 -98z"/>
<path d="M5500 1450 l-23 -20 93 -87 c51 -49 96 -89 100 -91 4 -1 28 22 55 53
39 46 45 58 35 70 -18 21 -33 19 -60 -10 l-23 -25 -69 65 c-37 36 -72 65 -77
65 -4 0 -18 -9 -31 -20z"/>
<path d="M5406 1361 c-16 -18 -14 -22 48 -92 36 -41 66 -80 66 -86 0 -29 -31
-9 -89 57 -35 39 -68 70 -75 70 -7 0 -21 -9 -31 -20 -17 -19 -15 -21 46 -90
73 -83 107 -104 142 -91 26 10 77 66 77 84 -1 32 -125 185 -151 186 -9 1 -24
-8 -33 -18z"/>
<path d="M1516 1255 c-84 -93 -87 -97 -70 -116 9 -10 24 -19 33 -18 9 0 52 41
95 91 l79 89 -25 25 -25 26 -87 -97z"/>
<path d="M1663 1221 c-39 -24 -93 -101 -100 -144 -9 -59 69 -112 124 -85 14 7
31 21 37 31 9 15 6 21 -14 37 -25 19 -25 19 -46 -1 -25 -23 -34 -24 -34 -2 0
22 79 123 96 123 17 0 18 -22 2 -39 -11 -10 -8 -16 11 -32 29 -24 38 -24 51 1
20 38 8 82 -29 107 -41 28 -57 29 -98 4z"/>
<path d="M5189 1181 c-38 -38 -38 -79 -2 -115 24 -25 30 -26 85 -20 55 6 58 5
58 -15 0 -24 -4 -25 -29 -11 -14 7 -23 4 -40 -14 -21 -22 -21 -23 -2 -40 45
-41 141 18 141 85 0 48 -32 71 -98 69 -80 -2 -82 -2 -82 16 0 12 6 15 24 10
16 -4 32 1 47 14 24 20 24 20 5 35 -32 24 -74 19 -107 -14z"/>
<path d="M1801 1023 l-71 -108 22 -18 c12 -10 42 -30 66 -45 43 -25 45 -25 58
-7 19 26 19 27 -22 54 -32 22 -34 26 -19 40 14 15 18 14 47 -2 31 -18 33 -18
45 -1 17 24 16 31 -4 43 -45 26 -47 29 -34 45 12 14 16 14 41 -4 35 -25 47
-25 60 -1 15 29 23 20 -91 94 l-26 17 -72 -107z"/>
<path d="M5030 1069 c-25 -17 -51 -34 -58 -38 -10 -6 3 -34 55 -114 37 -59 72
-107 77 -107 20 0 126 76 124 89 -6 30 -34 35 -65 13 -23 -16 -33 -18 -41 -10
-13 13 -16 38 -4 38 4 0 17 8 30 18 21 16 21 19 7 39 l-15 22 -35 -20 c-33
-20 -35 -20 -42 -4 -6 17 7 32 46 54 10 6 11 13 2 30 -15 27 -26 26 -81 -10z"/>
<path d="M4813 942 c-29 -14 -53 -32 -53 -39 0 -10 103 -208 115 -221 5 -6 55
21 55 30 0 5 -9 27 -20 49 -18 35 -19 40 -5 45 9 4 17 5 19 3 1 -2 13 -21 25
-41 l22 -37 34 16 34 16 -31 44 c-16 25 -36 47 -44 50 -8 3 -14 19 -14 37 0
37 -35 76 -66 75 -10 0 -43 -12 -71 -27z m74 -58 c3 -8 1 -20 -6 -27 -8 -8
-15 -6 -26 9 -20 26 -19 34 5 34 11 0 23 -7 27 -16z"/>
<path d="M2076 824 c-11 -29 -6 -34 73 -73 l78 -40 11 24 c13 28 10 31 -75 74
-72 36 -79 37 -87 15z"/>
<path d="M2474 788 c-24 -11 -44 -48 -44 -80 0 -11 14 -38 31 -59 17 -22 28
-46 25 -54 -8 -22 -26 -18 -26 5 0 13 -10 24 -26 30 -39 15 -44 13 -44 -23 0
-45 28 -69 88 -75 44 -4 51 -2 70 23 31 39 27 67 -13 115 -35 42 -40 60 -17
68 7 2 12 -5 12 -16 0 -12 9 -22 23 -26 42 -11 48 -8 45 26 -5 50 -77 88 -124
66z"/>
<path d="M2676 701 c-24 -27 -56 -115 -56 -157 0 -51 36 -84 93 -84 30 0 49 6
60 18 25 27 47 99 47 153 0 39 -4 51 -26 68 -34 27 -95 28 -118 2z m79 -41
c11 -18 -34 -150 -50 -150 -19 0 -19 31 0 93 20 68 34 83 50 57z"/>
<path d="M4565 688 c-44 -17 -82 -32 -84 -34 -2 -2 1 -15 7 -28 l11 -24 80 31
c79 30 93 43 73 74 -5 8 -29 3 -87 -19z"/>
<path d="M4175 699 c-37 -11 -55 -34 -55 -72 0 -47 17 -66 75 -82 42 -13 55
-21 55 -36 0 -22 -25 -26 -33 -5 -8 19 -61 6 -65 -16 -9 -46 77 -64 136 -28
27 17 32 25 32 59 0 49 -26 77 -81 86 -45 8 -71 31 -44 41 9 4 20 1 24 -5 8
-13 57 -6 67 10 8 13 -42 59 -63 58 -10 0 -31 -5 -48 -10z"/>
<path d="M2895 668 c-5 -15 -45 -225 -45 -237 0 -8 97 -31 131 -31 20 0 33 41
16 52 -7 4 -22 8 -34 8 -12 0 -25 4 -28 10 -3 5 2 50 12 99 9 50 15 92 12 94
-14 13 -60 16 -64 5z"/>
<path d="M4011 662 c-24 -4 -25 -11 -5 -122 2 -14 -10 6 -28 43 l-32 69 -35
-7 c-20 -4 -37 -8 -39 -10 -3 -3 38 -248 42 -253 2 -2 16 0 31 4 27 7 27 8 22
68 l-6 61 27 -58 c26 -56 28 -58 61 -53 18 3 36 7 38 10 8 8 -29 225 -41 239
-6 7 -22 11 -35 9z"/>
<path d="M3086 632 c-3 -5 -8 -56 -12 -113 -7 -124 -1 -138 68 -146 81 -9 94
11 114 181 7 63 0 76 -42 76 -20 0 -22 -7 -29 -75 -8 -93 -17 -127 -34 -133
-11 -4 -12 17 -6 107 l7 111 -30 0 c-17 0 -33 -4 -36 -8z"/>
<path d="M3695 620 c-38 -15 -47 -37 -47 -112 1 -116 22 -148 97 -148 57 0 85
35 85 107 0 85 -15 130 -50 148 -32 17 -55 18 -85 5z m56 -71 c4 -13 7 -50 8
-81 1 -45 -2 -58 -14 -58 -15 0 -20 14 -30 91 -6 50 1 82 18 76 7 -2 14 -14
18 -28z"/>
<path d="M3300 590 c0 -26 4 -30 26 -30 l26 0 -7 -105 -7 -105 35 0 35 0 7
100 c7 97 8 100 31 100 20 0 24 5 24 29 0 25 -4 29 -37 35 -21 3 -59 6 -85 6
-47 0 -48 -1 -48 -30z"/>
<path d="M3514 594 c3 -9 6 -67 6 -130 l0 -115 33 3 32 3 3 85 c2 47 0 104 -3
128 -6 40 -8 42 -42 42 -28 0 -34 -3 -29 -16z"/>
</g>
</svg>
