<svg width="554" height="212" viewBox="0 0 554 212" fill="none" xmlns="http://www.w3.org/2000/svg">
<g clip-path="url(#clip0_801_4337)">
<path d="M1075.29 76C1056.14 76 1038.14 83.0635 1024.56 95.9409C1017.16 102.95 1011.72 111.155 1008.28 119.903C1004.9 128.487 996.184 134.193 986.497 134.193H986.038C976.179 134.193 967.179 128.759 963.453 120.174C960.3 112.948 955.657 106.264 949.638 100.505C937.371 88.8773 921.092 82.5202 903.78 82.5202C886.469 82.5202 870.189 88.9317 857.922 100.505C853.05 105.123 849.095 110.394 846.057 116.045C840.382 126.803 829.49 134.138 816.822 134.138H812.007C800.37 134.138 789.078 128.542 783.747 118.707C781.11 113.817 777.613 109.199 773.257 105.069C762.308 94.6912 747.748 88.986 732.271 88.986C716.794 88.986 702.234 94.6912 691.286 105.069C688.419 107.786 685.897 110.774 683.776 113.871C674.719 127.02 658.44 134.084 641.874 134.084H641.415C625.25 134.084 610.919 126.042 601.003 113.98C599.741 112.459 598.423 110.992 596.933 109.633C587.245 100.505 574.462 95.4519 560.762 95.4519C547.062 95.4519 534.279 100.505 524.592 109.633C523.101 111.046 521.783 112.459 520.522 113.98C509.401 127.401 491.402 134.084 473.403 134.084H466.868C449.212 134.084 433.105 126.314 420.723 114.415C420.666 114.36 420.608 114.306 420.551 114.252C412.182 106.319 401.061 101.972 389.253 101.972C377.445 101.972 366.324 106.319 357.955 114.252C349.586 122.185 345 132.726 345 143.918C345 155.111 349.586 165.652 357.955 173.585C366.324 181.518 377.445 185.865 389.253 185.865C401.061 185.865 412.182 181.518 420.551 173.585C420.608 173.531 420.666 173.477 420.723 173.422C433.105 161.523 449.27 153.753 466.868 153.753H473.403C491.402 153.753 509.401 160.436 520.522 173.857C521.783 175.378 523.101 176.791 524.592 178.204C534.279 187.332 547.062 192.385 560.762 192.385C574.462 192.385 587.245 187.332 596.933 178.204C598.423 176.791 599.741 175.324 601.003 173.857C610.919 161.795 625.307 153.753 641.415 153.753H641.874C658.44 153.753 674.719 160.817 683.776 173.966C685.897 177.063 688.419 180.051 691.286 182.768C702.234 193.146 716.794 198.851 732.271 198.851C747.748 198.851 762.308 193.146 773.314 182.714C777.671 178.584 781.11 174.02 783.804 169.13C789.135 159.295 800.428 153.699 812.064 153.699H816.937C829.605 153.699 840.496 161.088 846.171 171.792C849.152 177.443 853.165 182.714 858.037 187.332C870.304 198.96 886.584 205.371 903.895 205.371C921.206 205.371 937.486 198.96 949.753 187.332C955.829 181.573 960.472 174.835 963.625 167.5C967.294 159.024 976.236 153.644 985.866 153.644C995.955 153.644 1004.95 159.567 1008.57 168.532C1012.18 177.497 1017.39 185.05 1024.62 191.896C1038.09 204.936 1056.09 212 1075.29 212C1098.1 212 1119.31 201.948 1133.24 184.126C1151.59 160.654 1151.59 127.401 1133.24 103.928C1119.31 86.0519 1098.1 76 1075.23 76H1075.29Z" fill="url(#paint0_linear_801_4337)"/>
<path d="M833.379 -67C814.257 -67 796.28 -59.9365 782.712 -47.0591C775.326 -40.0499 769.887 -31.8454 766.452 -23.0975C763.075 -14.5126 754.372 -8.80743 744.697 -8.80743H744.239C734.392 -8.80743 725.403 -14.2409 721.682 -22.8258C718.533 -30.0523 713.896 -36.7355 707.885 -42.495C695.633 -54.1227 679.373 -60.4798 662.084 -60.4798C644.794 -60.4798 628.535 -54.0683 616.283 -42.495C611.416 -37.8765 607.466 -32.6061 604.432 -26.9553C598.764 -16.197 587.886 -8.86176 575.234 -8.86176H570.425C558.803 -8.86176 547.524 -14.4583 542.2 -24.2928C539.566 -29.183 536.074 -33.8014 531.723 -37.9309C520.788 -48.3088 506.246 -54.014 490.788 -54.014C475.331 -54.014 460.789 -48.3088 449.854 -37.9309C446.991 -35.2141 444.472 -32.2257 442.354 -29.1286C433.308 -15.9796 417.049 -8.9161 400.503 -8.9161H400.045C383.901 -8.9161 369.588 -16.9577 359.683 -29.02C358.424 -30.5414 357.107 -32.0084 355.619 -33.3668C345.943 -42.495 333.176 -47.5481 319.493 -47.5481C305.81 -47.5481 293.043 -42.495 283.368 -33.3668C281.879 -31.9541 280.562 -30.5414 279.303 -29.02C268.196 -15.5993 250.219 -8.9161 232.242 -8.9161H225.716C208.083 -8.9161 191.995 -16.686 179.629 -28.5853C179.572 -28.6396 179.514 -28.694 179.457 -28.7483C171.098 -36.6812 159.992 -41.028 148.198 -41.028C136.404 -41.028 125.297 -36.6812 116.939 -28.7483C108.58 -20.8154 104 -10.2745 104 0.9185C104 12.1115 108.58 22.6524 116.939 30.5853C125.297 38.5182 136.404 42.865 148.198 42.865C159.992 42.865 171.098 38.5182 179.457 30.5853C179.514 30.531 179.572 30.4766 179.629 30.4223C191.995 18.523 208.14 10.7531 225.716 10.7531H232.242C250.219 10.7531 268.196 17.4363 279.303 30.857C280.562 32.3783 281.879 33.7911 283.368 35.2038C293.043 44.332 305.81 49.3851 319.493 49.3851C333.176 49.3851 345.943 44.332 355.619 35.2038C357.107 33.7911 358.424 32.324 359.683 30.857C369.588 18.7946 383.958 10.7531 400.045 10.7531H400.503C417.049 10.7531 433.308 17.8166 442.354 30.9656C444.472 34.0627 446.991 37.0511 449.854 39.7679C460.789 50.1458 475.331 55.851 490.788 55.851C506.246 55.851 520.788 50.1458 531.78 39.7135C536.131 35.5841 539.566 31.02 542.257 26.1298C547.581 16.2952 558.86 10.6988 570.482 10.6988H575.348C588.001 10.6988 598.878 18.0883 604.546 28.7922C607.523 34.4431 611.531 39.7135 616.397 44.332C628.649 55.9596 644.908 62.3712 662.198 62.3712C679.488 62.3712 695.747 55.9596 707.999 44.332C714.068 38.5725 718.705 31.835 721.854 24.4998C725.518 16.0236 734.449 10.6444 744.067 10.6444C754.143 10.6444 763.132 16.5669 766.739 25.5322C770.345 34.4974 775.555 42.0499 782.769 48.8961C796.223 61.9365 814.2 69 833.379 69C856.165 69 877.348 58.9481 891.26 41.1262C909.58 17.6536 909.58 -15.5993 891.26 -39.0719C877.348 -56.9481 856.165 -67 833.322 -67H833.379Z" fill="url(#paint1_linear_801_4337)"/>
</g>
<defs>
<linearGradient id="paint0_linear_801_4337" x1="334.515" y1="143.985" x2="1364.63" y2="144.545" gradientUnits="userSpaceOnUse">
<stop stop-color="#7177F8" stop-opacity="0.5"/>
<stop offset="1" stop-color="#3FE0D0"/>
</linearGradient>
<linearGradient id="paint1_linear_801_4337" x1="93.5281" y1="0.985432" x2="1122.36" y2="1.54339" gradientUnits="userSpaceOnUse">
<stop stop-color="#7177F8" stop-opacity="0.5"/>
<stop offset="1" stop-color="#3FE0D0"/>
</linearGradient>
<clipPath id="clip0_801_4337">
<rect width="554" height="212" fill="white" transform="matrix(-1 0 0 -1 554 212)"/>
</clipPath>
</defs>
</svg>
