<svg width="522" height="212" viewBox="0 0 522 212" fill="none" xmlns="http://www.w3.org/2000/svg">
<g clip-path="url(#clip0_469_1196)">
<path d="M971.289 136C952.144 136 934.144 128.936 920.559 116.059C913.164 109.05 907.719 100.845 904.279 92.0975C900.897 83.5126 892.184 77.8074 882.497 77.8074H882.038C872.179 77.8074 863.179 83.2409 859.453 91.8258C856.3 99.0523 851.657 105.736 845.638 111.495C833.371 123.123 817.092 129.48 799.78 129.48C782.469 129.48 766.189 123.068 753.922 111.495C749.05 106.877 745.095 101.606 742.057 95.9553C736.382 85.197 725.49 77.8618 712.822 77.8618H708.007C696.37 77.8618 685.078 83.4583 679.747 93.2928C677.11 98.183 673.613 102.801 669.257 106.931C658.308 117.309 643.748 123.014 628.271 123.014C612.794 123.014 598.234 117.309 587.286 106.931C584.419 104.214 581.897 101.226 579.776 98.1286C570.719 84.9796 554.44 77.9161 537.874 77.9161H537.415C521.25 77.9161 506.919 85.9577 497.003 98.02C495.741 99.5414 494.423 101.008 492.933 102.367C483.245 111.495 470.462 116.548 456.762 116.548C443.062 116.548 430.279 111.495 420.592 102.367C419.101 100.954 417.783 99.5414 416.522 98.02C405.401 84.5993 387.402 77.9161 369.403 77.9161H362.868C345.212 77.9161 329.105 85.686 316.723 97.5853C316.666 97.6396 316.608 97.694 316.551 97.7483C308.182 105.681 297.061 110.028 285.253 110.028C273.445 110.028 262.324 105.681 253.955 97.7483C245.586 89.8154 241 79.2745 241 68.0815C241 56.8885 245.586 46.3476 253.955 38.4147C262.324 30.4818 273.445 26.135 285.253 26.135C297.061 26.135 308.182 30.4818 316.551 38.4147C316.608 38.469 316.666 38.5234 316.723 38.5777C329.105 50.477 345.27 58.2469 362.868 58.2469H369.403C387.402 58.2469 405.401 51.5637 416.522 38.143C417.783 36.6217 419.101 35.2089 420.592 33.7962C430.279 24.668 443.062 19.6149 456.762 19.6149C470.462 19.6149 483.245 24.668 492.933 33.7962C494.423 35.2089 495.741 36.676 497.003 38.143C506.919 50.2054 521.307 58.2469 537.415 58.2469H537.874C554.44 58.2469 570.719 51.1834 579.776 38.0344C581.897 34.9373 584.419 31.9489 587.286 29.2321C598.234 18.8542 612.794 13.149 628.271 13.149C643.748 13.149 658.308 18.8542 669.314 29.2865C673.671 33.4159 677.11 37.98 679.804 42.8702C685.135 52.7048 696.428 58.3012 708.064 58.3012H712.937C725.605 58.3012 736.496 50.9117 742.171 40.2078C745.152 34.5569 749.165 29.2865 754.037 24.668C766.304 13.0404 782.584 6.62885 799.895 6.62885C817.206 6.62885 833.486 13.0404 845.753 24.668C851.829 30.4275 856.472 37.165 859.625 44.5002C863.294 52.9764 872.236 58.3556 881.866 58.3556C891.955 58.3556 900.955 52.4331 904.566 43.4678C908.177 34.5026 913.394 26.9501 920.616 20.1039C934.087 7.06352 952.086 0 971.289 0C994.104 0 1015.31 10.0519 1029.24 27.8738C1047.59 51.3464 1047.59 84.5993 1029.24 108.072C1015.31 125.948 994.104 136 971.232 136H971.289Z" fill="url(#paint0_linear_469_1196)"/>
<path d="M729.379 279C710.257 279 692.28 271.936 678.712 259.059C671.326 252.05 665.887 243.845 662.452 235.097C659.075 226.513 650.372 220.807 640.697 220.807H640.239C630.392 220.807 621.403 226.241 617.682 234.826C614.533 242.052 609.896 248.736 603.885 254.495C591.633 266.123 575.373 272.48 558.084 272.48C540.794 272.48 524.535 266.068 512.283 254.495C507.416 249.877 503.466 244.606 500.432 238.955C494.764 228.197 483.886 220.862 471.234 220.862H466.425C454.803 220.862 443.524 226.458 438.2 236.293C435.566 241.183 432.074 245.801 427.723 249.931C416.788 260.309 402.246 266.014 386.788 266.014C371.331 266.014 356.789 260.309 345.854 249.931C342.991 247.214 340.472 244.226 338.354 241.129C329.308 227.98 313.049 220.916 296.503 220.916H296.045C279.901 220.916 265.588 228.958 255.683 241.02C254.424 242.541 253.107 244.008 251.619 245.367C241.943 254.495 229.176 259.548 215.493 259.548C201.81 259.548 189.043 254.495 179.368 245.367C177.879 243.954 176.562 242.541 175.303 241.02C164.196 227.599 146.219 220.916 128.242 220.916H121.716C104.083 220.916 87.995 228.686 75.6288 240.585C75.5715 240.64 75.5142 240.694 75.457 240.748C67.0983 248.681 55.9916 253.028 44.1979 253.028C32.4042 253.028 21.2975 248.681 12.9388 240.748C4.58017 232.815 3.15195e-05 222.274 3.15195e-05 211.082C3.15195e-05 199.889 4.58017 189.348 12.9388 181.415C21.2975 173.482 32.4042 169.135 44.1979 169.135C55.9916 169.135 67.0983 173.482 75.457 181.415C75.5142 181.469 75.5715 181.523 75.6288 181.578C87.995 193.477 104.14 201.247 121.716 201.247H128.242C146.219 201.247 164.196 194.564 175.303 181.143C176.562 179.622 177.879 178.209 179.368 176.796C189.043 167.668 201.81 162.615 215.493 162.615C229.176 162.615 241.943 167.668 251.619 176.796C253.107 178.209 254.424 179.676 255.683 181.143C265.588 193.205 279.958 201.247 296.045 201.247H296.503C313.049 201.247 329.308 194.183 338.354 181.034C340.472 177.937 342.991 174.949 345.854 172.232C356.789 161.854 371.331 156.149 386.788 156.149C402.246 156.149 416.788 161.854 427.78 172.286C432.131 176.416 435.566 180.98 438.257 185.87C443.581 195.705 454.86 201.301 466.482 201.301H471.348C484.001 201.301 494.878 193.912 500.546 183.208C503.523 177.557 507.531 172.286 512.397 167.668C524.649 156.04 540.908 149.629 558.198 149.629C575.488 149.629 591.747 156.04 603.999 167.668C610.068 173.427 614.705 180.165 617.854 187.5C621.518 195.976 630.449 201.356 640.067 201.356C650.143 201.356 659.132 195.433 662.739 186.468C666.345 177.503 671.555 169.95 678.769 163.104C692.223 150.064 710.2 143 729.379 143C752.165 143 773.348 153.052 787.26 170.874C805.58 194.346 805.58 227.599 787.26 251.072C773.348 268.948 752.165 279 729.322 279H729.379Z" fill="url(#paint1_linear_469_1196)"/>
</g>
<defs>
<linearGradient id="paint0_linear_469_1196" x1="230.515" y1="68.0146" x2="1260.63" y2="67.4552" gradientUnits="userSpaceOnUse">
<stop stop-color="white"/>
<stop offset="1" stop-color="#E1E8F0"/>
</linearGradient>
<linearGradient id="paint1_linear_469_1196" x1="-10.4719" y1="211.015" x2="1018.36" y2="210.457" gradientUnits="userSpaceOnUse">
<stop stop-color="white"/>
<stop offset="1" stop-color="#C7D7E7"/>
</linearGradient>
<clipPath id="clip0_469_1196">
<rect width="522" height="212" fill="white" transform="matrix(-1 0 0 1 522 0)"/>
</clipPath>
</defs>
</svg>
