<svg width="554" height="212" viewBox="0 0 554 212" fill="none" xmlns="http://www.w3.org/2000/svg">
<g clip-path="url(#clip0_801_4325)">
<path d="M-521.289 76C-502.144 76 -484.144 83.0635 -470.559 95.9409C-463.164 102.95 -457.719 111.155 -454.279 119.903C-450.897 128.487 -442.184 134.193 -432.497 134.193H-432.038C-422.179 134.193 -413.179 128.759 -409.453 120.174C-406.3 112.948 -401.657 106.264 -395.638 100.505C-383.371 88.8773 -367.092 82.5202 -349.78 82.5202C-332.469 82.5202 -316.189 88.9317 -303.922 100.505C-299.05 105.123 -295.095 110.394 -292.057 116.045C-286.382 126.803 -275.49 134.138 -262.822 134.138H-258.007C-246.37 134.138 -235.078 128.542 -229.747 118.707C-227.11 113.817 -223.613 109.199 -219.257 105.069C-208.308 94.6912 -193.748 88.986 -178.271 88.986C-162.794 88.986 -148.234 94.6912 -137.286 105.069C-134.419 107.786 -131.897 110.774 -129.776 113.871C-120.719 127.02 -104.44 134.084 -87.8735 134.084H-87.415C-71.25 134.084 -56.9194 126.042 -47.0026 113.98C-45.7415 112.459 -44.4231 110.992 -42.9327 109.633C-33.2452 100.505 -20.4622 95.4519 -6.76216 95.4519C6.93794 95.4519 19.7209 100.505 29.4084 109.633C30.8988 111.046 32.2172 112.459 33.4783 113.98C44.5989 127.401 62.5982 134.084 80.5975 134.084H87.1322C104.788 134.084 120.895 126.314 133.277 114.415C133.334 114.36 133.392 114.306 133.449 114.252C141.818 106.319 152.939 101.972 164.747 101.972C176.555 101.972 187.676 106.319 196.045 114.252C204.414 122.185 209 132.726 209 143.918C209 155.111 204.414 165.652 196.045 173.585C187.676 181.518 176.555 185.865 164.747 185.865C152.939 185.865 141.818 181.518 133.449 173.585C133.392 173.531 133.334 173.477 133.277 173.422C120.895 161.523 104.73 153.753 87.1322 153.753H80.5975C62.5982 153.753 44.5989 160.436 33.4783 173.857C32.2172 175.378 30.8988 176.791 29.4084 178.204C19.7209 187.332 6.93794 192.385 -6.76216 192.385C-20.4622 192.385 -33.2452 187.332 -42.9327 178.204C-44.4231 176.791 -45.7415 175.324 -47.0026 173.857C-56.9194 161.795 -71.3074 153.753 -87.415 153.753H-87.8735C-104.44 153.753 -120.719 160.817 -129.776 173.966C-131.897 177.063 -134.419 180.051 -137.286 182.768C-148.234 193.146 -162.794 198.851 -178.271 198.851C-193.748 198.851 -208.308 193.146 -219.314 182.714C-223.671 178.584 -227.11 174.02 -229.804 169.13C-235.135 159.295 -246.428 153.699 -258.064 153.699H-262.937C-275.605 153.699 -286.496 161.088 -292.171 171.792C-295.152 177.443 -299.165 182.714 -304.037 187.332C-316.304 198.96 -332.584 205.371 -349.895 205.371C-367.206 205.371 -383.486 198.96 -395.753 187.332C-401.829 181.573 -406.472 174.835 -409.625 167.5C-413.294 159.024 -422.236 153.644 -431.866 153.644C-441.955 153.644 -450.955 159.567 -454.566 168.532C-458.177 177.497 -463.394 185.05 -470.616 191.896C-484.087 204.936 -502.086 212 -521.289 212C-544.104 212 -565.313 201.948 -579.243 184.126C-597.586 160.654 -597.586 127.401 -579.243 103.928C-565.313 86.0519 -544.104 76 -521.232 76H-521.289Z" fill="url(#paint0_linear_801_4325)"/>
<path d="M-279.379 -67C-260.257 -67 -242.28 -59.9365 -228.712 -47.0591C-221.326 -40.0499 -215.887 -31.8454 -212.452 -23.0975C-209.075 -14.5126 -200.372 -8.80743 -190.697 -8.80743H-190.239C-180.392 -8.80743 -171.403 -14.2409 -167.682 -22.8258C-164.533 -30.0523 -159.896 -36.7355 -153.885 -42.495C-141.633 -54.1227 -125.373 -60.4798 -108.084 -60.4798C-90.7938 -60.4798 -74.5345 -54.0683 -62.2828 -42.495C-57.4164 -37.8765 -53.4661 -32.6061 -50.4318 -26.9553C-44.7639 -16.197 -33.8862 -8.86176 -21.2338 -8.86176H-16.4247C-4.80269 -8.86176 6.47578 -14.4583 11.8001 -24.2928C14.4337 -29.183 17.926 -33.8014 22.2771 -37.9309C33.212 -48.3088 47.7538 -54.014 63.2116 -54.014C78.6694 -54.014 93.2112 -48.3088 104.146 -37.9309C107.009 -35.2141 109.528 -32.2257 111.646 -29.1286C120.692 -15.9796 136.951 -8.9161 153.497 -8.9161H153.955C170.099 -8.9161 184.412 -16.9577 194.317 -29.02C195.576 -30.5414 196.893 -32.0084 198.381 -33.3668C208.057 -42.495 220.824 -47.5481 234.507 -47.5481C248.19 -47.5481 260.957 -42.495 270.632 -33.3668C272.121 -31.9541 273.438 -30.5414 274.697 -29.02C285.804 -15.5993 303.781 -8.9161 321.758 -8.9161H328.284C345.917 -8.9161 362.005 -16.686 374.371 -28.5853C374.428 -28.6396 374.486 -28.694 374.543 -28.7483C382.902 -36.6812 394.008 -41.028 405.802 -41.028C417.596 -41.028 428.703 -36.6812 437.061 -28.7483C445.42 -20.8154 450 -10.2745 450 0.9185C450 12.1115 445.42 22.6524 437.061 30.5853C428.703 38.5182 417.596 42.865 405.802 42.865C394.008 42.865 382.902 38.5182 374.543 30.5853C374.486 30.531 374.428 30.4766 374.371 30.4223C362.005 18.523 345.86 10.7531 328.284 10.7531H321.758C303.781 10.7531 285.804 17.4363 274.697 30.857C273.438 32.3783 272.121 33.7911 270.632 35.2038C260.957 44.332 248.19 49.3851 234.507 49.3851C220.824 49.3851 208.057 44.332 198.381 35.2038C196.893 33.7911 195.576 32.324 194.317 30.857C184.412 18.7946 170.042 10.7531 153.955 10.7531H153.497C136.951 10.7531 120.692 17.8166 111.646 30.9656C109.528 34.0627 107.009 37.0511 104.146 39.7679C93.2112 50.1458 78.6694 55.851 63.2116 55.851C47.7538 55.851 33.2121 50.1458 22.2198 39.7135C17.8688 35.5841 14.4337 31.02 11.7429 26.1298C6.41853 16.2952 -4.85993 10.6988 -16.4819 10.6988H-21.3482C-34.0007 10.6988 -44.8784 18.0883 -50.5463 28.7922C-53.5234 34.4431 -57.5309 39.7135 -62.3973 44.332C-74.649 55.9596 -90.9083 62.3712 -108.198 62.3712C-125.488 62.3712 -141.747 55.9596 -153.999 44.332C-160.068 38.5725 -164.705 31.835 -167.854 24.4998C-171.518 16.0236 -180.449 10.6444 -190.067 10.6444C-200.143 10.6444 -209.132 16.5669 -212.739 25.5322C-216.345 34.4974 -221.555 42.0499 -228.769 48.8961C-242.223 61.9365 -260.2 69 -279.379 69C-302.165 69 -323.348 58.9481 -337.26 41.1262C-355.58 17.6536 -355.58 -15.5993 -337.26 -39.0719C-323.348 -56.9481 -302.165 -67 -279.322 -67H-279.379Z" fill="url(#paint1_linear_801_4325)"/>
</g>
<defs>
<linearGradient id="paint0_linear_801_4325" x1="219.485" y1="143.985" x2="-810.633" y2="144.545" gradientUnits="userSpaceOnUse">
<stop stop-color="#F1FAF9"/>
<stop offset="1" stop-color="#3FE0D0" stop-opacity="0.63"/>
</linearGradient>
<linearGradient id="paint1_linear_801_4325" x1="460.472" y1="0.985432" x2="-568.361" y2="1.54339" gradientUnits="userSpaceOnUse">
<stop stop-color="#F1FAF9"/>
<stop offset="1" stop-color="#3FE0D0" stop-opacity="0.63"/>
</linearGradient>
<clipPath id="clip0_801_4325">
<rect width="554" height="212" fill="white" transform="matrix(1 0 0 -1 0 212)"/>
</clipPath>
</defs>
</svg>
