<svg width="624" height="212" viewBox="0 0 624 212" fill="none" xmlns="http://www.w3.org/2000/svg">
<g clip-path="url(#clip0_714_4353)">
<path d="M-451.289 136C-432.144 136 -414.144 128.936 -400.559 116.059C-393.164 109.05 -387.719 100.845 -384.279 92.0975C-380.897 83.5126 -372.184 77.8074 -362.497 77.8074H-362.038C-352.179 77.8074 -343.179 83.2409 -339.453 91.8258C-336.3 99.0523 -331.657 105.736 -325.638 111.495C-313.371 123.123 -297.092 129.48 -279.78 129.48C-262.469 129.48 -246.189 123.068 -233.922 111.495C-229.05 106.877 -225.095 101.606 -222.057 95.9553C-216.382 85.197 -205.49 77.8618 -192.822 77.8618H-188.007C-176.37 77.8618 -165.078 83.4583 -159.747 93.2928C-157.11 98.183 -153.613 102.801 -149.257 106.931C-138.308 117.309 -123.748 123.014 -108.271 123.014C-92.7942 123.014 -78.2342 117.309 -67.2856 106.931C-64.4195 104.214 -61.8973 101.226 -59.7764 98.1286C-50.7194 84.9796 -34.4398 77.9161 -17.8735 77.9161H-17.415C-1.25006 77.9161 13.0806 85.9577 22.9974 98.02C24.2585 99.5414 25.5769 101.008 27.0673 102.367C36.7548 111.495 49.5378 116.548 63.2379 116.548C76.9379 116.548 89.7209 111.495 99.4084 102.367C100.899 100.954 102.217 99.5414 103.478 98.02C114.599 84.5993 132.598 77.9161 150.597 77.9161H157.132C174.788 77.9161 190.895 85.686 203.277 97.5853C203.334 97.6396 203.392 97.694 203.449 97.7483C211.818 105.681 222.939 110.028 234.747 110.028C246.555 110.028 257.676 105.681 266.045 97.7483C274.414 89.8154 279 79.2745 279 68.0815C279 56.8885 274.414 46.3476 266.045 38.4147C257.676 30.4818 246.555 26.135 234.747 26.135C222.939 26.135 211.818 30.4818 203.449 38.4147C203.392 38.469 203.334 38.5234 203.277 38.5777C190.895 50.477 174.73 58.2469 157.132 58.2469H150.597C132.598 58.2469 114.599 51.5637 103.478 38.143C102.217 36.6217 100.899 35.2089 99.4084 33.7962C89.7209 24.668 76.9379 19.6149 63.2379 19.6149C49.5378 19.6149 36.7548 24.668 27.0673 33.7962C25.5769 35.2089 24.2585 36.676 22.9974 38.143C13.0806 50.2054 -1.30737 58.2469 -17.415 58.2469H-17.8735C-34.4398 58.2469 -50.7194 51.1834 -59.7764 38.0344C-61.8973 34.9373 -64.4195 31.9489 -67.2856 29.2321C-78.2342 18.8542 -92.7942 13.149 -108.271 13.149C-123.748 13.149 -138.308 18.8542 -149.314 29.2865C-153.671 33.4159 -157.11 37.98 -159.804 42.8702C-165.135 52.7048 -176.428 58.3012 -188.064 58.3012H-192.937C-205.605 58.3012 -216.496 50.9117 -222.171 40.2078C-225.152 34.5569 -229.165 29.2865 -234.037 24.668C-246.304 13.0404 -262.584 6.62885 -279.895 6.62885C-297.206 6.62885 -313.486 13.0404 -325.753 24.668C-331.829 30.4275 -336.472 37.165 -339.625 44.5002C-343.294 52.9764 -352.236 58.3556 -361.866 58.3556C-371.955 58.3556 -380.955 52.4331 -384.566 43.4678C-388.177 34.5026 -393.394 26.9501 -400.616 20.1039C-414.087 7.06352 -432.086 0 -451.289 0C-474.104 0 -495.313 10.0519 -509.243 27.8738C-527.586 51.3464 -527.586 84.5993 -509.243 108.072C-495.313 125.948 -474.104 136 -451.232 136H-451.289Z" fill="url(#paint0_linear_714_4353)"/>
<path d="M-209.379 279C-190.257 279 -172.28 271.936 -158.712 259.059C-151.326 252.05 -145.887 243.845 -142.452 235.097C-139.075 226.513 -130.372 220.807 -120.697 220.807H-120.239C-110.392 220.807 -101.403 226.241 -97.682 234.826C-94.5332 242.052 -89.8959 248.736 -83.8845 254.495C-71.6328 266.123 -55.3735 272.48 -38.0836 272.48C-20.7938 272.48 -4.53452 266.068 7.71722 254.495C12.5836 249.877 16.5339 244.606 19.5682 238.955C25.2361 228.197 36.1138 220.862 48.7662 220.862H53.5753C65.1973 220.862 76.4758 226.458 81.8001 236.293C84.4337 241.183 87.926 245.801 92.2771 249.931C103.212 260.309 117.754 266.014 133.212 266.014C148.669 266.014 163.211 260.309 174.146 249.931C177.009 247.214 179.528 244.226 181.646 241.129C190.692 227.98 206.951 220.916 223.497 220.916H223.955C240.099 220.916 254.412 228.958 264.317 241.02C265.576 242.541 266.893 244.008 268.381 245.367C278.057 254.495 290.824 259.548 304.507 259.548C318.19 259.548 330.957 254.495 340.632 245.367C342.121 243.954 343.438 242.541 344.697 241.02C355.804 227.599 373.781 220.916 391.758 220.916H398.284C415.917 220.916 432.005 228.686 444.371 240.585C444.428 240.64 444.486 240.694 444.543 240.748C452.902 248.681 464.008 253.028 475.802 253.028C487.596 253.028 498.703 248.681 507.061 240.748C515.42 232.815 520 222.274 520 211.081C520 199.889 515.42 189.348 507.061 181.415C498.703 173.482 487.596 169.135 475.802 169.135C464.008 169.135 452.902 173.482 444.543 181.415C444.486 181.469 444.428 181.523 444.371 181.578C432.005 193.477 415.86 201.247 398.284 201.247H391.758C373.781 201.247 355.804 194.564 344.697 181.143C343.438 179.622 342.121 178.209 340.632 176.796C330.957 167.668 318.19 162.615 304.507 162.615C290.824 162.615 278.057 167.668 268.381 176.796C266.893 178.209 265.576 179.676 264.317 181.143C254.412 193.205 240.042 201.247 223.955 201.247H223.497C206.951 201.247 190.692 194.183 181.646 181.034C179.528 177.937 177.009 174.949 174.146 172.232C163.211 161.854 148.669 156.149 133.212 156.149C117.754 156.149 103.212 161.854 92.2198 172.286C87.8688 176.416 84.4337 180.98 81.7429 185.87C76.4185 195.705 65.1401 201.301 53.5181 201.301H48.6518C35.9993 201.301 25.1216 193.912 19.4537 183.208C16.4767 177.557 12.4691 172.286 7.60272 167.668C-4.64902 156.04 -20.9083 149.629 -38.1982 149.629C-55.488 149.629 -71.7473 156.04 -83.999 167.668C-90.0676 173.427 -94.705 180.165 -97.8538 187.5C-101.518 195.976 -110.449 201.356 -120.067 201.356C-130.143 201.356 -139.132 195.433 -142.739 186.468C-146.345 177.503 -151.555 169.95 -158.769 163.104C-172.223 150.064 -190.2 143 -209.379 143C-232.165 143 -253.348 153.052 -267.26 170.874C-285.58 194.346 -285.58 227.599 -267.26 251.072C-253.348 268.948 -232.165 279 -209.322 279H-209.379Z" fill="url(#paint1_linear_714_4353)"/>
</g>
<defs>
<linearGradient id="paint0_linear_714_4353" x1="289.485" y1="68.0146" x2="-740.633" y2="67.4552" gradientUnits="userSpaceOnUse">
<stop stop-color="#012B31"/>
<stop offset="1" stop-color="#3FE0D0" stop-opacity="0.63"/>
</linearGradient>
<linearGradient id="paint1_linear_714_4353" x1="530.472" y1="211.015" x2="-498.361" y2="210.457" gradientUnits="userSpaceOnUse">
<stop stop-color="#012B31"/>
<stop offset="1" stop-color="#3FE0D0" stop-opacity="0.63"/>
</linearGradient>
<clipPath id="clip0_714_4353">
<rect width="626" height="212" fill="white" transform="translate(-2)"/>
</clipPath>
</defs>
</svg>
