<svg width="616" height="265" viewBox="0 0 616 265" fill="none" xmlns="http://www.w3.org/2000/svg">
<g clip-path="url(#clip0_353_914)">
<mask id="mask0_353_914" style="mask-type:luminance" maskUnits="userSpaceOnUse" x="0" y="0" width="616" height="265">
<path d="M0 0H616V265H0V0Z" fill="white"/>
</mask>
<g mask="url(#mask0_353_914)">
<path d="M-309.019 129.481C-290.804 129.481 -273.68 122.756 -260.755 110.496C-253.72 103.823 -248.539 96.0114 -245.267 87.6828C-242.049 79.5094 -233.76 74.0778 -224.543 74.0778H-224.107C-214.727 74.0778 -206.165 79.2508 -202.62 87.4242C-199.62 94.3043 -195.203 100.667 -189.477 106.151C-177.806 117.221 -162.318 123.273 -145.848 123.273C-129.378 123.273 -113.89 117.169 -102.22 106.151C-97.5844 101.753 -93.8214 96.7356 -90.9314 91.3557C-85.5324 81.1131 -75.1704 74.1295 -63.1174 74.1295H-58.5364C-47.4664 74.1295 -36.7224 79.4577 -31.6504 88.8209C-29.1424 93.4766 -25.8154 97.8737 -21.6704 101.805C-11.2544 111.686 2.59763 117.117 17.3226 117.117C32.0466 117.117 45.8986 111.686 56.3156 101.805C59.0426 99.2187 61.4416 96.3735 63.4596 93.4249C72.0766 80.9062 87.5646 74.1812 103.326 74.1812H103.762C119.141 74.1812 132.775 81.8373 142.21 93.3214C143.409 94.7699 144.664 96.1666 146.082 97.4598C155.298 106.151 167.46 110.961 180.494 110.961C193.528 110.961 205.689 106.151 214.906 97.4598C216.324 96.1149 217.578 94.7699 218.778 93.3214C229.358 80.544 246.482 74.1812 263.606 74.1812H269.823C286.62 74.1812 301.945 81.5786 313.724 92.9076C313.779 92.9593 313.834 93.011 313.888 93.0628C321.85 100.615 332.43 104.754 343.665 104.754C354.899 104.754 365.479 100.615 373.441 93.0628C381.403 85.5101 385.766 75.4745 385.766 64.818C385.766 54.1616 381.403 44.1259 373.441 36.5733C365.479 29.0207 354.899 24.8823 343.665 24.8823C332.43 24.8823 321.85 29.0207 313.888 36.5733C313.834 36.625 313.779 36.6768 313.724 36.7285C301.945 48.0574 286.566 55.4549 269.823 55.4549H263.606C246.482 55.4549 229.358 49.092 218.778 36.3147C217.578 34.8662 216.324 33.5212 214.906 32.1762C205.689 23.4855 193.528 18.6746 180.494 18.6746C167.46 18.6746 155.298 23.4855 146.082 32.1762C144.664 33.5212 143.409 34.9179 142.21 36.3147C132.775 47.7988 119.086 55.4549 103.762 55.4549H103.326C87.5646 55.4549 72.0766 48.7299 63.4596 36.2112C61.4416 33.2626 59.0426 30.4174 56.3156 27.8309C45.8986 17.9504 32.0466 12.5187 17.3226 12.5187C2.59763 12.5187 -11.2544 17.9504 -21.7254 27.8826C-25.8694 31.8141 -29.1424 36.1595 -31.7054 40.8152C-36.7774 50.1784 -47.5204 55.5066 -58.5914 55.5066H-63.2264C-75.2794 55.5066 -85.6414 48.4713 -91.0404 38.2804C-93.8764 32.9005 -97.6934 27.8826 -102.329 23.4855C-113.999 12.4153 -129.487 6.31109 -145.957 6.31109C-162.427 6.31109 -177.915 12.4153 -189.586 23.4855C-195.367 28.969 -199.784 35.3835 -202.783 42.3671C-206.274 50.437 -214.781 55.5583 -223.943 55.5583C-233.542 55.5583 -242.104 49.9197 -245.539 41.3842C-248.975 32.8487 -253.938 25.6582 -260.809 19.1402C-273.625 6.72494 -290.749 0 -309.019 0C-330.724 0 -350.902 9.5701 -364.155 26.5376C-381.606 48.8851 -381.606 80.544 -364.155 102.892C-350.902 119.911 -330.724 129.481 -308.964 129.481H-309.019Z" fill="url(#paint0_linear_353_914)"/>
<path d="M-79.2105 265.481C-60.9955 265.481 -43.8715 258.756 -30.9465 246.496C-23.9115 239.823 -18.7305 232.011 -15.4585 223.683C-12.2415 215.509 -3.95153 210.078 5.26447 210.078H5.70148C15.0815 210.078 23.6435 215.251 27.1885 223.424C30.1875 230.304 34.6055 236.667 40.3315 242.151C52.0025 253.221 67.4905 259.273 83.9605 259.273C100.43 259.273 115.918 253.169 127.589 242.151C132.225 237.753 135.988 232.736 138.878 227.356C144.277 217.113 154.638 210.129 166.69 210.129H171.271C182.342 210.129 193.086 215.458 198.158 224.821C200.667 229.477 203.993 233.874 208.137 237.805C218.554 247.686 232.406 253.117 247.13 253.117C261.855 253.117 275.707 247.686 286.123 237.805C288.85 235.219 291.25 232.373 293.268 229.425C301.884 216.906 317.372 210.181 333.133 210.181H333.569C348.949 210.181 362.582 217.837 372.017 229.321C373.217 230.77 374.471 232.167 375.889 233.46C385.106 242.151 397.267 246.961 410.301 246.961C423.335 246.961 435.497 242.151 444.713 233.46C446.131 232.115 447.386 230.77 448.585 229.321C459.165 216.544 476.289 210.181 493.414 210.181H499.631C516.428 210.181 531.753 217.579 543.532 228.908C543.587 228.959 543.642 229.011 543.696 229.063C551.658 236.615 562.238 240.754 573.473 240.754C584.707 240.754 595.287 236.615 603.249 229.063C611.211 221.51 615.574 211.474 615.574 200.818C615.574 190.162 611.211 180.126 603.249 172.573C595.287 165.021 584.707 160.882 573.473 160.882C562.238 160.882 551.658 165.021 543.696 172.573C543.642 172.625 543.587 172.677 543.532 172.728C531.753 184.057 516.374 191.455 499.631 191.455H493.414C476.289 191.455 459.165 185.092 448.585 172.315C447.386 170.866 446.131 169.521 444.713 168.176C435.497 159.486 423.335 154.675 410.301 154.675C397.267 154.675 385.106 159.486 375.889 168.176C374.471 169.521 373.217 170.918 372.017 172.315C362.582 183.799 348.894 191.455 333.569 191.455H333.133C317.372 191.455 301.884 184.73 293.268 172.211C291.25 169.263 288.85 166.417 286.123 163.831C275.707 153.95 261.855 148.519 247.13 148.519C232.406 148.519 218.554 153.95 208.083 163.883C203.938 167.814 200.666 172.159 198.103 176.815C193.031 186.178 182.287 191.507 171.217 191.507H166.581C154.529 191.507 144.167 184.471 138.768 174.28C135.932 168.9 132.115 163.883 127.479 159.486C115.808 148.415 100.32 142.311 83.8505 142.311C67.3815 142.311 51.8935 148.415 40.2225 159.486C34.4415 164.969 30.0245 171.384 27.0245 178.367C23.5345 186.437 15.0265 191.558 5.8645 191.558C-3.7335 191.558 -12.2955 185.92 -15.7315 177.384C-19.1675 168.849 -24.1295 161.658 -31.0015 155.14C-43.8175 142.725 -60.9415 136 -79.2105 136C-100.917 136 -121.094 145.57 -134.346 162.538C-151.797 184.885 -151.797 216.544 -134.346 238.892C-121.094 255.911 -100.916 265.481 -79.1565 265.481H-79.2105Z" fill="url(#paint1_linear_353_914)"/>
</g>
</g>
<defs>
<linearGradient id="paint0_linear_353_914" x1="395.741" y1="64.7543" x2="-584.299" y2="64.2225" gradientUnits="userSpaceOnUse">
<stop stop-color="#7177F8" stop-opacity="0.5"/>
<stop offset="1" stop-color="#3FE0D0"/>
</linearGradient>
<linearGradient id="paint1_linear_353_914" x1="625.549" y1="200.754" x2="-354.488" y2="200.223" gradientUnits="userSpaceOnUse">
<stop stop-color="#7177F8" stop-opacity="0.5"/>
<stop offset="1" stop-color="#3FE0D0"/>
</linearGradient>
<clipPath id="clip0_353_914">
<rect width="616" height="265" fill="white" transform="matrix(-1 0 0 1 616 0)"/>
</clipPath>
</defs>
</svg>
