<svg width="551" height="293" viewBox="0 0 551 293" fill="none" xmlns="http://www.w3.org/2000/svg">
<g clip-path="url(#clip0_597_2296)">
<path d="M597.262 17.5606C589.778 17.5606 582.754 20.5132 577.496 25.8358C577.458 25.8746 577.42 25.9133 577.381 25.9522C569.552 33.9943 559.343 39.2393 548.213 39.2393H544.107C532.708 39.2393 521.348 34.7324 514.324 25.6802C513.518 24.6701 512.674 23.699 511.753 22.7277C505.651 16.5505 497.553 13.1704 488.917 13.1704C480.282 13.1704 472.184 16.5894 466.082 22.7277C465.16 23.6602 464.278 24.6701 463.51 25.6802C457.216 33.8 448.158 39.2393 437.988 39.2393H437.719C427.242 39.2393 416.956 34.4606 411.238 25.5638C409.894 23.4658 408.282 21.4455 406.479 19.6195C399.57 12.6264 390.359 8.78028 380.573 8.78028C370.786 8.78028 361.575 12.6264 354.667 19.6584C351.942 22.4168 349.716 25.5248 348.065 28.8271C344.688 35.4705 337.549 39.2393 330.219 39.2393H327.187C319.166 39.2393 312.296 34.2663 308.688 27.0012C306.769 23.155 304.275 19.6196 301.204 16.5115C293.452 8.66369 283.166 4.35125 272.228 4.35125C261.29 4.35125 251.004 8.66369 243.252 16.5115C239.375 20.4354 236.459 24.9809 234.501 29.8372C232.16 35.5871 226.557 39.2393 220.416 39.2393H220.378C214.007 39.2393 208.327 35.2376 206.024 29.2157C203.836 23.4658 200.459 18.0656 195.892 13.4424C187.333 4.77871 175.935 0 163.845 0C149.414 0 136.02 6.76015 127.193 18.8427C115.602 34.6937 115.602 57.1105 127.193 72.9616C136.02 85.0052 149.414 91.7651 163.807 91.7651C175.896 91.7651 187.295 86.9866 195.853 78.323C200.536 73.5832 203.951 68.0663 206.139 62.161C208.288 56.3334 213.776 52.5261 219.917 52.5261H220.224C226.48 52.5261 232.16 56.217 234.54 62.0445C236.497 66.862 239.375 71.3297 243.252 75.2536C251.004 83.1014 261.29 87.4139 272.228 87.4139C283.166 87.4139 293.49 83.1014 301.204 75.2536C304.275 72.1456 306.808 68.6101 308.688 64.7639C312.296 57.5377 319.166 52.565 327.149 52.565H330.219C337.588 52.565 344.726 56.3335 348.065 62.9769C349.754 66.2792 351.942 69.3872 354.667 72.1456C361.575 79.1387 370.786 83.0237 380.573 83.0237C390.359 83.0237 399.57 79.1776 406.479 72.1456C408.321 70.2808 409.894 68.2993 411.238 66.2014C416.956 57.3046 427.242 52.565 437.719 52.565H438.026C448.235 52.565 457.293 58.004 463.549 66.1238C464.354 67.1339 465.199 68.1441 466.12 69.0765C472.222 75.2537 480.32 78.6336 488.956 78.6336C497.591 78.6336 505.689 75.2149 511.791 69.0765C512.712 68.1441 513.557 67.1728 514.363 66.1238C521.386 57.0716 532.746 52.565 544.145 52.565H548.29C559.458 52.565 569.629 57.8098 577.458 65.8518C577.497 65.8907 577.535 65.9294 577.573 65.9683C582.87 71.3296 589.893 74.2435 597.339 74.2435C604.823 74.2435 611.846 71.2908 617.104 65.9683C622.4 60.6069 625.279 53.4974 625.279 45.9603C625.279 38.3845 622.362 31.2747 617.104 25.9522C611.769 20.5131 604.746 17.5606 597.262 17.5606Z" fill="url(#paint0_linear_597_2296)"/>
<path d="M28.5194 226.561C36.0034 226.561 43.0269 229.513 48.2848 234.836C48.3232 234.875 48.3616 234.913 48.3999 234.952C56.2293 242.994 66.4381 248.239 77.5681 248.239H81.6747C93.0733 248.239 104.434 243.732 111.457 234.68C112.263 233.67 113.107 232.699 114.028 231.728C120.131 225.551 128.229 222.17 136.864 222.17C145.499 222.17 153.597 225.589 159.7 231.728C160.621 232.66 161.503 233.67 162.271 234.68C168.565 242.8 177.623 248.239 187.793 248.239H188.062C198.539 248.239 208.825 243.461 214.544 234.564C215.887 232.466 217.499 230.445 219.303 228.62C226.211 221.626 235.422 217.78 245.209 217.78C254.995 217.78 264.206 221.626 271.115 228.658C273.84 231.417 276.066 234.525 277.716 237.827C281.093 244.471 288.232 248.239 295.562 248.239H298.594C306.615 248.239 313.485 243.266 317.093 236.001C319.012 232.155 321.507 228.62 324.577 225.512C332.33 217.664 342.615 213.351 353.553 213.351C364.491 213.351 374.777 217.664 382.53 225.512C386.406 229.435 389.323 233.981 391.28 238.837C393.621 244.587 399.225 248.239 405.365 248.239H405.404C411.775 248.239 417.455 244.238 419.757 238.216C421.945 232.466 425.322 227.066 429.89 222.442C438.448 213.779 449.847 209 461.936 209C476.367 209 489.761 215.76 498.588 227.843C510.179 243.694 510.179 266.111 498.588 281.962C489.761 294.005 476.367 300.765 461.975 300.765C449.885 300.765 438.486 295.987 429.928 287.323C425.246 282.583 421.83 277.066 419.642 271.161C417.493 265.333 412.005 261.526 405.864 261.526H405.557C399.301 261.526 393.621 265.217 391.242 271.045C389.284 275.862 386.406 280.33 382.53 284.254C374.777 292.101 364.491 296.414 353.553 296.414C342.615 296.414 332.291 292.101 324.577 284.254C321.507 281.146 318.974 277.61 317.093 273.764C313.485 266.538 306.615 261.565 298.633 261.565H295.562C288.193 261.565 281.055 265.333 277.716 271.977C276.027 275.279 273.84 278.387 271.115 281.146C264.206 288.139 254.995 292.024 245.209 292.024C235.422 292.024 226.211 288.178 219.303 281.146C217.46 279.281 215.887 277.299 214.544 275.201C208.825 266.305 198.539 261.565 188.062 261.565H187.755C177.546 261.565 168.489 267.004 162.233 275.124C161.427 276.134 160.582 277.144 159.661 278.076C153.559 284.254 145.461 287.634 136.826 287.634C128.19 287.634 120.092 284.215 113.99 278.076C113.069 277.144 112.225 276.173 111.419 275.124C104.395 266.072 93.0349 261.565 81.6363 261.565H77.4914C66.323 261.565 56.1525 266.81 48.3231 274.852C48.2847 274.891 48.2464 274.929 48.208 274.968C42.9117 280.33 35.8883 283.243 28.4427 283.243C20.9587 283.243 13.9354 280.291 8.6774 274.968C3.38107 269.607 0.502625 262.497 0.502625 254.96C0.502625 247.384 3.41946 240.275 8.6774 234.952C14.0121 229.513 21.0355 226.561 28.5194 226.561Z" fill="url(#paint1_linear_597_2296)"/>
</g>
<defs>
<linearGradient id="paint0_linear_597_2296" x1="438.888" y1="33.0707" x2="97.6678" y2="58.0052" gradientUnits="userSpaceOnUse">
<stop stop-color="#36BFB2"/>
<stop offset="1" stop-color="#3FE0D0"/>
</linearGradient>
<linearGradient id="paint1_linear_597_2296" x1="178.541" y1="334.5" x2="78.4414" y2="185.817" gradientUnits="userSpaceOnUse">
<stop stop-color="#36BFB2"/>
<stop offset="1" stop-color="#3FE0D0"/>
</linearGradient>
<clipPath id="clip0_597_2296">
<rect width="550" height="293" fill="white" transform="translate(0.5)"/>
</clipPath>
</defs>
</svg>
