<svg width="616" height="265" viewBox="0 0 616 265" fill="none" xmlns="http://www.w3.org/2000/svg">
<g clip-path="url(#clip0_353_911)">
<path d="M-309.02 129.481C-290.805 129.481 -273.681 122.756 -260.756 110.496C-253.721 103.823 -248.54 96.0114 -245.268 87.6828C-242.05 79.5094 -233.761 74.0778 -224.544 74.0778H-224.108C-214.728 74.0778 -206.166 79.2508 -202.621 87.4242C-199.621 94.3043 -195.204 100.667 -189.478 106.151C-177.807 117.221 -162.319 123.273 -145.849 123.273C-129.379 123.273 -113.891 117.169 -102.221 106.151C-97.585 101.753 -93.822 96.7356 -90.9316 91.3557C-85.5326 81.1131 -75.1708 74.1295 -63.1184 74.1295H-58.5374C-47.4667 74.1295 -36.7231 79.4577 -31.6513 88.8209C-29.1427 93.4766 -25.816 97.8737 -21.6713 101.805C-11.255 111.686 2.59713 117.117 17.3218 117.117C32.0464 117.117 45.8985 111.686 56.3148 101.805C59.0416 99.2187 61.4412 96.3735 63.459 93.4249C72.0756 80.9061 87.5638 74.1812 103.325 74.1812H103.761C119.14 74.1812 132.774 81.8373 142.209 93.3214C143.408 94.7699 144.663 96.1666 146.081 97.4598C155.297 106.151 167.459 110.961 180.493 110.961C193.527 110.961 205.688 106.151 214.905 97.4598C216.323 96.1149 217.577 94.7699 218.777 93.3214C229.357 80.544 246.481 74.1812 263.605 74.1812H269.822C286.619 74.1812 301.944 81.5786 313.723 92.9076C313.778 92.9593 313.832 93.011 313.887 93.0628C321.849 100.615 332.429 104.754 343.664 104.754C354.898 104.754 365.478 100.615 373.44 93.0628C381.402 85.5101 385.765 75.4745 385.765 64.818C385.765 54.1616 381.402 44.1259 373.44 36.5733C365.478 29.0207 354.898 24.8823 343.664 24.8823C332.429 24.8823 321.849 29.0207 313.887 36.5733C313.832 36.625 313.778 36.6768 313.723 36.7285C301.944 48.0574 286.565 55.4549 269.822 55.4549H263.605C246.481 55.4549 229.357 49.092 218.777 36.3147C217.577 34.8662 216.323 33.5212 214.905 32.1762C205.688 23.4855 193.527 18.6746 180.493 18.6746C167.459 18.6746 155.297 23.4855 146.081 32.1762C144.663 33.5212 143.408 34.9179 142.209 36.3147C132.774 47.7988 119.085 55.4549 103.761 55.4549H103.325C87.5638 55.4549 72.0756 48.7299 63.459 36.2112C61.4412 33.2626 59.0416 30.4174 56.3148 27.8309C45.8985 17.9504 32.0464 12.5187 17.3218 12.5187C2.59713 12.5187 -11.2549 17.9504 -21.7258 27.8826C-25.8705 31.8141 -29.1426 36.1595 -31.7058 40.8152C-36.7777 50.1784 -47.5212 55.5066 -58.5919 55.5066H-63.2275C-75.2799 55.5066 -85.6417 48.4713 -91.0407 38.2804C-93.8766 32.9005 -97.6941 27.8826 -102.33 23.4855C-114 12.4153 -129.488 6.31109 -145.958 6.31109C-162.428 6.31109 -177.916 12.4153 -189.587 23.4855C-195.368 28.969 -199.785 35.3835 -202.784 42.3671C-206.275 50.437 -214.782 55.5583 -223.944 55.5583C-233.543 55.5583 -242.105 49.9197 -245.54 41.3842C-248.976 32.8487 -253.939 25.6582 -260.81 19.1402C-273.626 6.72494 -290.75 0 -309.02 0C-330.725 0 -350.903 9.5701 -364.156 26.5376C-381.607 48.8851 -381.607 80.544 -364.156 102.892C-350.903 119.911 -330.725 129.481 -308.965 129.481H-309.02Z" fill="url(#paint0_linear_353_911)"/>
<path d="M-79.2114 265.481C-60.9964 265.481 -43.8722 258.756 -30.9472 246.496C-23.9121 239.823 -18.7312 232.011 -15.4591 223.683C-12.2415 215.509 -3.95207 210.078 5.26446 210.078H5.70075C15.0809 210.078 23.643 215.251 27.1878 223.424C30.1873 230.304 34.6047 236.667 40.3309 242.151C52.0016 253.221 67.4897 259.273 83.9595 259.273C100.429 259.273 115.917 253.169 127.588 242.151C132.224 237.753 135.987 232.736 138.877 227.356C144.276 217.113 154.638 210.129 166.69 210.129H171.271C182.342 210.129 193.085 215.458 198.157 224.821C200.666 229.477 203.993 233.874 208.137 237.805C218.554 247.686 232.406 253.117 247.13 253.117C261.855 253.117 275.707 247.686 286.123 237.805C288.85 235.219 291.25 232.373 293.268 229.425C301.884 216.906 317.372 210.181 333.133 210.181H333.569C348.949 210.181 362.582 217.837 372.017 229.321C373.217 230.77 374.471 232.167 375.889 233.46C385.106 242.151 397.267 246.961 410.301 246.961C423.335 246.961 435.497 242.151 444.713 233.46C446.131 232.115 447.386 230.77 448.585 229.321C459.165 216.544 476.289 210.181 493.414 210.181H499.631C516.428 210.181 531.752 217.579 543.532 228.908C543.587 228.959 543.641 229.011 543.696 229.063C551.658 236.615 562.238 240.754 573.472 240.754C584.706 240.754 595.286 236.615 603.249 229.063C611.211 221.51 615.574 211.474 615.574 200.818C615.574 190.162 611.211 180.126 603.249 172.573C595.286 165.021 584.706 160.882 573.472 160.882C562.238 160.882 551.658 165.021 543.696 172.573C543.641 172.625 543.587 172.677 543.532 172.728C531.752 184.057 516.373 191.455 499.631 191.455H493.414C476.289 191.455 459.165 185.092 448.585 172.315C447.386 170.866 446.131 169.521 444.713 168.176C435.497 159.486 423.335 154.675 410.301 154.675C397.267 154.675 385.106 159.486 375.889 168.176C374.471 169.521 373.217 170.918 372.017 172.315C362.582 183.799 348.894 191.455 333.569 191.455H333.133C317.372 191.455 301.884 184.73 293.268 172.211C291.25 169.263 288.85 166.417 286.123 163.831C275.707 153.95 261.855 148.519 247.13 148.519C232.406 148.519 218.554 153.95 208.083 163.883C203.938 167.814 200.666 172.159 198.103 176.815C193.031 186.178 182.287 191.507 171.217 191.507H166.581C154.529 191.507 144.167 184.471 138.768 174.28C135.932 168.9 132.115 163.883 127.479 159.486C115.808 148.415 100.32 142.311 83.8504 142.311C67.3806 142.311 51.8925 148.415 40.2219 159.486C34.4411 164.969 30.0237 171.384 27.0242 178.367C23.5339 186.437 15.0264 191.558 5.86436 191.558C-3.73393 191.558 -12.296 185.92 -15.7318 177.384C-19.1675 168.849 -24.1303 161.658 -31.0018 155.14C-43.8177 142.725 -60.9419 136 -79.2114 136C-100.917 136 -121.095 145.57 -134.347 162.538C-151.798 184.885 -151.798 216.544 -134.347 238.892C-121.095 255.911 -100.917 265.481 -79.1568 265.481H-79.2114Z" fill="url(#paint1_linear_353_911)"/>
</g>
<defs>
<linearGradient id="paint0_linear_353_911" x1="395.74" y1="64.7543" x2="-584.296" y2="64.2225" gradientUnits="userSpaceOnUse">
<stop stop-color="#F1FAF9"/>
<stop offset="1" stop-color="#3FE0D0" stop-opacity="0.63"/>
</linearGradient>
<linearGradient id="paint1_linear_353_911" x1="625.549" y1="200.754" x2="-354.488" y2="200.223" gradientUnits="userSpaceOnUse">
<stop stop-color="#F1FAF9"/>
<stop offset="1" stop-color="#3FE0D0" stop-opacity="0.63"/>
</linearGradient>
<clipPath id="clip0_353_911">
<rect width="616" height="265" fill="white" transform="matrix(-1 0 0 1 616 0)"/>
</clipPath>
</defs>
</svg>
