<svg width="616" height="265" viewBox="0 0 616 265" fill="none" xmlns="http://www.w3.org/2000/svg">
<g clip-path="url(#clip0_51_18436)">
<path d="M925.02 129.481C906.805 129.481 889.681 122.756 876.756 110.496C869.721 103.823 864.54 96.0114 861.268 87.6828C858.05 79.5094 849.761 74.0778 840.544 74.0778H840.108C830.728 74.0778 822.166 79.2508 818.621 87.4242C815.621 94.3043 811.204 100.667 805.478 106.151C793.807 117.221 778.319 123.273 761.849 123.273C745.379 123.273 729.891 117.169 718.221 106.151C713.585 101.753 709.822 96.7356 706.932 91.3557C701.533 81.1131 691.171 74.1295 679.118 74.1295H674.537C663.467 74.1295 652.723 79.4577 647.651 88.8209C645.143 93.4766 641.816 97.8737 637.671 101.805C627.255 111.686 613.403 117.117 598.678 117.117C583.954 117.117 570.102 111.686 559.685 101.805C556.958 99.2187 554.559 96.3735 552.541 93.4249C543.924 80.9062 528.436 74.1812 512.675 74.1812H512.239C496.86 74.1812 483.226 81.8373 473.791 93.3214C472.592 94.7699 471.337 96.1666 469.919 97.4598C460.703 106.151 448.541 110.961 435.507 110.961C422.473 110.961 410.312 106.151 401.095 97.4598C399.677 96.1149 398.423 94.7699 397.223 93.3214C386.643 80.544 369.519 74.1812 352.395 74.1812H346.178C329.381 74.1812 314.056 81.5786 302.277 92.9076C302.222 92.9593 302.167 93.011 302.113 93.0628C294.151 100.615 283.571 104.754 272.336 104.754C261.102 104.754 250.522 100.615 242.56 93.0628C234.598 85.5101 230.235 75.4745 230.235 64.818C230.235 54.1616 234.598 44.1259 242.56 36.5733C250.522 29.0207 261.102 24.8823 272.336 24.8823C283.571 24.8823 294.151 29.0207 302.113 36.5733C302.167 36.625 302.222 36.6768 302.277 36.7285C314.056 48.0574 329.435 55.4549 346.178 55.4549H352.395C369.519 55.4549 386.643 49.092 397.223 36.3147C398.423 34.8662 399.677 33.5212 401.095 32.1762C410.312 23.4855 422.473 18.6746 435.507 18.6746C448.541 18.6746 460.703 23.4855 469.919 32.1762C471.337 33.5212 472.592 34.9179 473.791 36.3147C483.226 47.7988 496.915 55.4549 512.239 55.4549H512.675C528.436 55.4549 543.924 48.7299 552.541 36.2112C554.559 33.2626 556.958 30.4174 559.685 27.8309C570.102 17.9504 583.954 12.5187 598.678 12.5187C613.403 12.5187 627.255 17.9504 637.726 27.8826C641.87 31.8141 645.143 36.1595 647.706 40.8152C652.778 50.1784 663.521 55.5066 674.592 55.5066H679.227C691.28 55.5066 701.642 48.4713 707.041 38.2804C709.877 32.9005 713.694 27.8826 718.33 23.4855C730 12.4153 745.488 6.31109 761.958 6.31109C778.428 6.31109 793.916 12.4153 805.587 23.4855C811.368 28.969 815.785 35.3835 818.784 42.3671C822.275 50.437 830.782 55.5583 839.944 55.5583C849.543 55.5583 858.105 49.9197 861.54 41.3842C864.976 32.8487 869.939 25.6582 876.81 19.1402C889.626 6.72494 906.75 0 925.02 0C946.725 0 966.903 9.5701 980.156 26.5376C997.607 48.8851 997.607 80.544 980.156 102.892C966.903 119.911 946.725 129.481 924.965 129.481H925.02Z" fill="url(#paint0_linear_51_18436)"/>
<path d="M695.211 265.481C676.996 265.481 659.872 258.756 646.947 246.496C639.912 239.823 634.731 232.011 631.459 223.683C628.242 215.509 619.952 210.078 610.736 210.078H610.299C600.919 210.078 592.357 215.251 588.812 223.424C585.813 230.304 581.395 236.667 575.669 242.151C563.998 253.221 548.51 259.273 532.04 259.273C515.571 259.273 500.083 253.169 488.412 242.151C483.776 237.753 480.013 232.736 477.123 227.356C471.724 217.113 461.362 210.129 449.31 210.129H444.729C433.658 210.129 422.915 215.458 417.843 224.821C415.334 229.477 412.007 233.874 407.863 237.805C397.446 247.686 383.594 253.117 368.87 253.117C354.145 253.117 340.293 247.686 329.877 237.805C327.15 235.219 324.75 232.373 322.732 229.425C314.116 216.906 298.628 210.181 282.867 210.181H282.431C267.051 210.181 253.418 217.837 243.983 229.321C242.783 230.77 241.529 232.167 240.111 233.46C230.894 242.151 218.733 246.961 205.699 246.961C192.665 246.961 180.503 242.151 171.287 233.46C169.869 232.115 168.614 230.77 167.415 229.321C156.835 216.544 139.711 210.181 122.586 210.181H116.369C99.5723 210.181 84.2477 217.579 72.468 228.908C72.4135 228.959 72.3589 229.011 72.3044 229.063C64.3422 236.615 53.7622 240.754 42.5279 240.754C31.2935 240.754 20.7136 236.615 12.7514 229.063C4.78918 221.51 0.42627 211.474 0.42627 200.818C0.42627 190.162 4.78918 180.126 12.7514 172.573C20.7136 165.021 31.2935 160.882 42.5279 160.882C53.7622 160.882 64.3422 165.021 72.3044 172.573C72.3589 172.625 72.4135 172.677 72.468 172.728C84.2477 184.057 99.6268 191.455 116.369 191.455H122.586C139.711 191.455 156.835 185.092 167.415 172.315C168.614 170.866 169.869 169.521 171.287 168.176C180.503 159.486 192.665 154.675 205.699 154.675C218.733 154.675 230.894 159.486 240.111 168.176C241.529 169.521 242.783 170.918 243.983 172.315C253.418 183.799 267.106 191.455 282.431 191.455H282.867C298.628 191.455 314.116 184.73 322.732 172.211C324.75 169.263 327.15 166.417 329.877 163.831C340.293 153.95 354.145 148.519 368.87 148.519C383.594 148.519 397.446 153.95 407.917 163.883C412.062 167.814 415.334 172.159 417.897 176.815C422.969 186.178 433.713 191.507 444.783 191.507H449.419C461.471 191.507 471.833 184.471 477.232 174.28C480.068 168.9 483.885 163.883 488.521 159.486C500.192 148.415 515.68 142.311 532.15 142.311C548.619 142.311 564.107 148.415 575.778 159.486C581.559 164.969 585.976 171.384 588.976 178.367C592.466 186.437 600.974 191.558 610.136 191.558C619.734 191.558 628.296 185.92 631.732 177.384C635.168 168.849 640.13 161.658 647.002 155.14C659.818 142.725 676.942 136 695.211 136C716.917 136 737.095 145.57 750.347 162.538C767.798 184.885 767.798 216.544 750.347 238.892C737.095 255.911 716.917 265.481 695.157 265.481H695.211Z" fill="url(#paint1_linear_51_18436)"/>
</g>
<defs>
<linearGradient id="paint0_linear_51_18436" x1="220.26" y1="64.7543" x2="1200.3" y2="64.2225" gradientUnits="userSpaceOnUse">
<stop stop-color="#F1FAF9"/>
<stop offset="1" stop-color="#3FE0D0" stop-opacity="0.63"/>
</linearGradient>
<linearGradient id="paint1_linear_51_18436" x1="-9.54895" y1="200.754" x2="970.488" y2="200.223" gradientUnits="userSpaceOnUse">
<stop stop-color="#F1FAF9"/>
<stop offset="1" stop-color="#3FE0D0" stop-opacity="0.63"/>
</linearGradient>
<clipPath id="clip0_51_18436">
<rect width="616" height="265" fill="white"/>
</clipPath>
</defs>
</svg>
