<svg width="512" height="512" viewBox="0 0 512 512" fill="none" xmlns="http://www.w3.org/2000/svg">
<path d="M45.8337 74.3398C58.0431 74.3398 69.5548 70.4652 78.1983 63.4408C82.927 59.5978 86.3766 55.0933 88.5859 50.3054C90.7565 45.6119 96.2992 42.4933 102.462 42.4933H102.772C109.09 42.4933 114.826 45.4544 117.191 50.1479C119.206 54.1169 122.152 57.7708 126.028 60.8893C133.858 67.2523 144.245 70.7488 155.292 70.7488C166.338 70.7488 176.726 67.2523 184.556 60.8893C187.656 58.3693 190.215 55.4714 192.114 52.3844C195.757 46.5254 202.695 42.4933 210.757 42.4933H213.858C221.3 42.4933 228.509 45.5489 231.882 50.9354C233.587 53.6129 235.796 56.1328 238.548 58.3693C245.525 64.0393 254.827 67.1893 264.711 67.1893C274.595 67.1893 283.897 64.0708 290.874 58.3693C292.735 56.8573 294.324 55.2508 295.681 53.5498C301.456 46.3364 311.843 42.4933 322.425 42.4933H322.696C333.006 42.4933 342.154 46.9034 348.472 53.4869C349.286 54.3059 350.138 55.1248 351.069 55.8808C357.231 60.8893 365.41 63.6299 374.131 63.6299C382.852 63.6299 391.03 60.8579 397.193 55.8494C398.123 55.0934 398.976 54.3059 399.79 53.4869C406.883 46.1474 418.356 42.4933 429.868 42.4933H434.054C445.333 42.4933 455.604 46.7459 463.511 53.2664C463.55 53.2979 463.589 53.3294 463.627 53.3609C468.976 57.7078 476.07 60.0704 483.589 60.0704C491.147 60.0704 498.24 57.6763 503.55 53.3609C508.899 49.0139 511.806 43.2494 511.806 37.1384C511.806 30.9959 508.86 25.2314 503.55 20.9159C498.201 16.5689 491.108 14.2065 483.589 14.2065C476.031 14.2065 468.938 16.6004 463.627 20.9159C463.589 20.9474 463.55 20.979 463.511 21.0105C455.604 27.531 445.294 31.7834 434.054 31.7834H429.868C418.356 31.7834 406.883 28.1294 399.79 20.79C398.976 19.971 398.123 19.1834 397.193 18.3959C391.03 13.3875 382.852 10.647 374.131 10.647C365.41 10.647 357.231 13.419 351.069 18.3959C350.138 19.1519 349.247 19.971 348.472 20.79C342.115 27.3734 332.968 31.7834 322.696 31.7834H322.425C311.843 31.7834 301.456 27.9089 295.681 20.7269C294.324 19.0259 292.696 17.3879 290.874 15.9074C283.897 10.2374 274.595 7.08748 264.711 7.08748C254.827 7.08748 245.525 10.2059 238.548 15.9074C235.796 18.1439 233.548 20.664 231.882 23.3414C228.471 28.7279 221.3 31.7834 213.858 31.7834H210.757C202.657 31.7834 195.719 27.7515 192.075 21.8925C190.137 18.774 187.618 15.9075 184.517 13.3875C176.687 7.02448 166.3 3.52797 155.253 3.52797C144.207 3.52797 133.819 7.02448 125.989 13.3875C122.113 16.5375 119.129 20.223 117.113 24.2234C114.788 28.8539 109.09 31.8149 102.888 31.8149H102.85C96.4155 31.8149 90.679 28.5704 88.3534 23.6879C86.1441 19.0259 82.7332 14.6474 78.1207 10.8989C69.4773 3.87446 57.9656 0 45.7562 0C31.1824 0 17.6939 5.48097 8.77914 15.2459C-2.92638 28.0979 -2.92638 46.2733 8.77914 59.1253C17.7715 68.8273 31.2987 74.3398 45.8337 74.3398Z" fill="#3FE0D0"/>
<path d="M45.8365 163.296C58.0459 163.296 69.5577 159.422 78.2011 152.397C82.9299 148.554 86.3795 144.05 88.5888 139.262C90.7594 134.568 96.302 131.45 102.465 131.45H102.775C109.093 131.45 114.829 134.411 117.194 139.104C119.209 143.073 122.155 146.727 126.031 149.846C133.86 156.209 144.248 159.705 155.295 159.705C166.341 159.705 176.729 156.209 184.559 149.846C187.659 147.326 190.218 144.428 192.117 141.341C195.76 135.482 202.698 131.45 210.76 131.45H213.629C221.187 131.45 228.474 134.537 231.962 139.986C233.667 142.664 235.877 145.152 238.59 147.326C245.567 152.996 254.869 156.146 264.753 156.146C274.637 156.146 283.939 153.027 290.916 147.326C292.699 145.877 294.288 144.27 295.683 142.569C301.536 135.293 312.04 131.418 322.699 131.418H322.777C333.087 131.418 342.234 135.828 348.552 142.412C349.366 143.231 350.219 144.05 351.149 144.806C357.312 149.814 365.49 152.555 374.211 152.555C382.932 152.555 391.11 149.783 397.273 144.806C398.204 144.05 399.056 143.262 399.87 142.412C406.963 135.072 418.436 131.418 429.948 131.418H434.134C445.413 131.418 455.685 135.671 463.592 142.191C463.63 142.223 463.669 142.254 463.708 142.286C469.057 146.633 476.15 148.995 483.669 148.995C493.243 148.995 502.08 145.152 507.546 138.348C513.437 131.009 513.437 121.118 507.584 113.747C502.119 106.943 493.282 103.068 483.669 103.068C476.111 103.068 469.018 105.462 463.708 109.778C463.669 109.809 463.63 109.841 463.592 109.872C455.685 116.393 445.374 120.645 434.134 120.645H429.987C418.475 120.645 407.002 116.991 399.909 109.652C399.095 108.833 398.242 108.045 397.312 107.258C391.149 102.249 382.971 99.5087 374.25 99.5087C365.529 99.5087 357.351 102.281 351.188 107.258C350.257 108.014 349.366 108.833 348.591 109.652C342.234 116.235 333.087 120.645 322.815 120.645H322.777C312.079 120.645 301.575 116.771 295.722 109.494C294.366 107.793 292.776 106.218 290.955 104.738C283.978 99.0678 274.676 95.9178 264.792 95.9178C254.908 95.9178 245.606 99.0363 238.629 104.738C235.916 106.943 233.706 109.4 232.001 112.077C228.512 117.527 221.225 120.614 213.667 120.614H210.838C202.737 120.614 195.799 116.582 192.194 110.723C190.256 107.604 187.737 104.738 184.636 102.218C176.807 95.8548 166.419 92.3583 155.372 92.3583C144.326 92.3583 133.938 95.8548 126.108 102.218C122.232 105.368 119.248 109.053 117.232 113.054C114.907 117.684 109.209 120.645 103.008 120.645H102.969C96.5346 120.645 90.7981 117.401 88.4725 112.518C86.2632 107.856 82.8523 103.478 78.2399 99.7293C69.5964 92.7048 58.0847 88.8303 45.8753 88.8303C31.3016 88.8303 17.8131 94.3113 8.89828 104.076C-2.80724 116.928 -2.80724 135.104 8.89828 147.956C17.7743 157.815 31.3015 163.296 45.8365 163.296Z" fill="#3FE0D0"/>
<path d="M45.8266 252.251C58.036 252.251 69.5478 248.377 78.1912 241.353C82.7649 237.636 86.2145 233.257 88.4626 228.501C90.7495 223.618 96.486 220.405 102.92 220.405C109.083 220.405 114.781 223.335 117.145 227.965C119.161 231.966 122.145 235.651 126.021 238.801C133.851 245.164 144.238 248.66 155.285 248.66C166.331 248.66 176.719 245.164 184.549 238.801C187.649 236.281 190.208 233.383 192.107 230.296C195.75 224.437 202.688 220.405 210.75 220.405H213.619C221.177 220.405 228.464 223.492 231.952 228.942C233.658 231.619 235.867 234.107 238.58 236.281C245.557 241.951 254.859 245.101 264.743 245.101C274.627 245.101 283.929 241.982 290.906 236.281C292.689 234.832 294.278 233.225 295.674 231.524C301.526 224.279 312.03 220.373 322.689 220.373H322.767C333.077 220.373 342.224 224.783 348.542 231.367C349.356 232.186 350.209 233.005 351.139 233.761C357.302 238.769 365.48 241.51 374.201 241.51C382.922 241.51 391.101 238.738 397.263 233.761C398.194 233.005 399.046 232.217 399.86 231.367C406.953 224.027 418.426 220.373 429.938 220.373H434.124C445.403 220.373 455.675 224.626 463.582 231.115C463.621 231.147 463.659 231.178 463.698 231.209C469.047 235.556 476.14 237.919 483.659 237.919C493.233 237.919 502.07 234.076 507.536 227.272C513.427 219.933 513.427 210.042 507.574 202.671C502.109 195.867 493.272 191.992 483.659 191.992C476.101 191.992 469.008 194.386 463.698 198.702C463.659 198.733 463.621 198.765 463.582 198.796C455.675 205.317 445.365 209.569 434.124 209.569H429.977C418.465 209.569 406.992 205.915 399.899 198.576C399.085 197.757 398.232 196.969 397.302 196.182C391.139 191.173 382.961 188.433 374.24 188.433C365.519 188.433 357.341 191.205 351.178 196.182C350.248 196.938 349.356 197.757 348.581 198.576C342.224 205.159 333.077 209.569 322.806 209.569H322.767C312.069 209.569 301.604 205.695 295.712 198.418C294.356 196.717 292.767 195.142 290.984 193.662C284.007 187.992 274.704 184.842 264.821 184.842C254.937 184.842 245.634 187.96 238.658 193.662C235.944 195.867 233.735 198.324 232.03 201.001C228.541 206.451 221.254 209.538 213.696 209.538H210.867C202.766 209.538 195.828 205.506 192.184 199.615C190.246 196.497 187.727 193.63 184.626 191.11C176.797 184.747 166.409 181.251 155.362 181.251C144.316 181.251 133.928 184.747 126.099 191.11C122.223 194.26 119.238 197.946 117.223 201.946C114.897 206.577 109.199 209.538 102.998 209.538C96.5635 209.538 90.827 206.325 88.5402 201.442C86.2921 196.686 82.8424 192.307 78.23 188.59C69.5865 181.566 58.0748 177.691 45.8654 177.691C33.656 177.691 22.1443 181.566 13.5008 188.59C4.85735 195.615 0.0898438 204.97 0.0898438 214.893C0.0898438 224.815 4.85735 234.17 13.5008 241.195C22.1055 248.377 33.6172 252.251 45.8266 252.251Z" fill="#3FE0D0"/>
<path d="M483.691 281.073C476.133 281.073 469.04 283.467 463.73 287.783C463.691 287.814 463.652 287.846 463.613 287.877C455.706 294.398 445.396 298.65 434.156 298.65H430.009C418.497 298.65 407.024 294.996 399.931 287.657C399.117 286.838 398.264 286.051 397.334 285.263C391.171 280.255 382.993 277.514 374.272 277.514C365.551 277.514 357.372 280.286 351.209 285.263C350.279 286.019 349.388 286.838 348.613 287.657C342.256 294.24 333.109 298.65 322.837 298.65H322.566C311.984 298.65 301.597 294.776 295.821 287.562C294.465 285.861 292.837 284.223 291.015 282.743C284.038 277.073 274.736 273.954 264.852 273.954C254.968 273.954 245.666 277.073 238.689 282.774C235.937 285.011 233.689 287.531 232.023 290.208C228.612 295.595 221.402 298.65 213.999 298.65H210.937C202.836 298.65 195.898 294.618 192.255 288.728C190.317 285.609 187.797 282.743 184.697 280.223C176.867 273.86 166.479 270.363 155.433 270.363C144.386 270.363 133.999 273.86 126.169 280.223C122.254 283.404 119.308 287.09 117.332 291.027C114.967 295.689 109.308 298.65 103.107 298.65H103.068C96.6339 298.65 90.8974 295.406 88.5718 290.523C86.3625 285.861 82.9516 281.483 78.3392 277.734C69.6957 270.71 58.184 266.835 45.9746 266.835C31.4009 266.835 17.8736 272.317 8.95882 282.113C-2.74669 294.965 -2.74669 313.14 8.95882 325.992C17.8736 335.757 31.4008 341.238 45.9358 341.238C58.1452 341.238 69.657 337.364 78.3004 330.339C83.0291 326.496 86.4788 322.023 88.6881 317.235C90.8586 312.51 96.4014 309.423 102.603 309.423H102.913C109.231 309.423 114.967 312.416 117.37 317.141C119.347 321.047 122.254 324.669 126.169 327.851C133.999 334.214 144.386 337.71 155.433 337.71C166.479 337.71 176.906 334.214 184.697 327.851C187.797 325.331 190.356 322.464 192.255 319.346C195.898 313.487 202.836 309.455 210.898 309.455H213.999C221.441 309.455 228.65 312.51 232.023 317.897C233.728 320.574 235.937 323.094 238.689 325.331C245.666 331.001 254.968 334.151 264.852 334.151C274.736 334.151 284.038 331.032 291.015 325.331C292.876 323.819 294.465 322.212 295.821 320.511C301.597 313.298 311.984 309.455 322.566 309.455H322.876C333.186 309.455 342.333 313.865 348.651 320.448C349.465 321.267 350.318 322.086 351.248 322.842C357.411 327.851 365.589 330.591 374.31 330.591C383.031 330.591 391.21 327.819 397.373 322.842C398.303 322.086 399.156 321.299 399.97 320.448C407.063 313.109 418.536 309.455 430.047 309.455H434.233C445.513 309.455 455.784 313.707 463.691 320.228C463.73 320.259 463.768 320.291 463.807 320.322C469.156 324.669 476.249 327.032 483.769 327.032C491.327 327.032 498.42 324.638 503.73 320.322C509.079 315.975 511.986 310.211 511.986 304.1C511.986 297.957 509.04 292.193 503.73 287.877C498.342 283.467 491.249 281.073 483.691 281.073Z" fill="#3FE0D0"/>
<path d="M374.256 366.47C365.535 366.47 357.357 369.242 351.194 374.219C350.264 374.975 349.372 375.794 348.597 376.613C342.24 383.197 333.093 387.607 322.821 387.607H322.55C311.969 387.607 301.581 383.732 295.806 376.519C294.449 374.818 292.821 373.179 291 371.699C284.023 366.029 274.72 362.911 264.837 362.911C254.953 362.911 245.65 366.029 238.674 371.699C235.922 373.935 233.674 376.456 232.007 379.165C228.596 384.551 221.425 387.607 213.983 387.607H210.883C202.782 387.607 195.844 383.575 192.239 377.716C190.301 374.597 187.782 371.731 184.681 369.211C176.851 362.848 166.464 359.351 155.417 359.351C144.371 359.351 133.983 362.848 126.153 369.211C118.324 375.574 114.021 384.015 114.021 392.993C114.021 401.97 118.324 410.413 126.153 416.776C133.983 423.139 144.371 426.635 155.417 426.635C166.464 426.635 176.851 423.139 184.681 416.776C187.782 414.256 190.34 411.389 192.239 408.271C195.883 402.412 202.821 398.38 210.883 398.38H213.983C221.425 398.38 228.635 401.435 232.007 406.821C233.712 409.499 235.922 412.019 238.674 414.255C245.65 419.925 254.953 423.076 264.837 423.076C274.72 423.076 284.023 419.957 291 414.255C292.86 412.743 294.449 411.137 295.806 409.436C301.581 402.223 311.969 398.38 322.55 398.38H322.86C333.17 398.38 342.318 402.789 348.636 409.373C349.411 410.192 350.302 410.979 351.233 411.735C357.395 416.744 365.574 419.516 374.295 419.516C385.031 419.516 394.954 415.326 401.272 407.955C408.869 399.041 408.83 386.788 401.155 377.905C394.76 370.597 384.915 366.47 374.256 366.47Z" fill="#3FE0D0"/>
<path d="M264.782 451.867C254.898 451.867 245.596 454.985 238.619 460.687C224.2 472.405 224.2 491.494 238.619 503.212C245.596 508.881 254.898 512 264.782 512C274.666 512 283.968 508.881 290.945 503.212C305.363 491.494 305.363 472.405 290.945 460.687C283.968 454.985 274.666 451.867 264.782 451.867Z" fill="#3FE0D0"/>
</svg>
