<?xml version="1.0" encoding="utf-8"?>
<!-- Generator: Adobe Illustrator 28.3.0, SVG Export Plug-In . SVG Version: 6.00 Build 0)  -->
<svg version="1.1" id="Layer_1" xmlns="http://www.w3.org/2000/svg" xmlns:xlink="http://www.w3.org/1999/xlink" x="0px" y="0px"
	 viewBox="0 0 15949.51 2275.46" style="enable-background:new 0 0 15949.51 2275.46;" xml:space="preserve">
<style type="text/css">
	.st0{opacity:0.25;fill:#CDC6BF;enable-background:new    ;}
	.st1{fill:none;}
</style>
<g>
	<path class="st0" d="M18497.29,1642.27c-222.2,0.11-431.59-108.21-560.23-289.77l-80.66-113.81
		c-57.91-81.78-148.54-128.64-248.62-128.59s-190.6,47-248.5,128.84l-80.48,113.89c-128.45,181.68-337.8,290.21-559.94,290.32
		c-222.13,0.11-431.58-108.21-560.23-289.76l-80.66-113.81c-57.91-81.78-148.54-128.64-248.62-128.59
		c-100.09,0.05-190.59,47-248.5,128.84l-80.48,113.89c-128.46,181.68-337.8,290.21-559.93,290.33
		c-222.14,0.11-431.59-108.21-560.24-289.77l-80.66-113.81c-57.91-81.78-148.54-128.64-248.62-128.59
		c-99.96,0.05-190.53,47-248.37,128.84l-80.54,113.89c-128.46,181.69-337.81,290.21-559.94,290.32s-431.59-108.21-560.23-289.76
		l-80.6-113.81c-57.91-81.78-148.54-128.64-248.62-128.59c-100.08,0.05-190.59,47-248.49,128.84l-80.55,113.89
		c-128.45,181.68-337.8,290.21-559.94,290.32c-222.14,0.12-431.59-108.2-560.23-289.76l-80.6-113.8
		c-57.91-81.78-148.54-128.64-248.62-128.59c-100.08,0.05-190.59,47-248.49,128.85l-80.54,113.88
		c-128.46,181.69-337.8,290.22-559.94,290.33c-222.13,0.11-431.59-108.21-560.23-289.77l-80.59-113.8
		c-57.92-81.79-148.55-128.65-248.63-128.59c-99.96,0.05-190.53,47-248.37,128.84l-80.48,113.88
		c-128.46,181.69-337.8,290.22-559.93,290.34c-222.14,0.1-431.59-108.21-560.24-289.78l-80.59-113.8
		c-57.91-81.79-148.54-128.64-248.62-128.59c-100.08,0.04-190.66,47-248.5,128.84l-80.48,113.88
		c-128.45,181.68-337.81,290.22-560,290.33c-222.2,0.11-431.59-108.21-560.23-289.76l-80.6-113.81
		c-57.91-81.79-148.54-128.64-248.62-128.59c-100.09,0.05-190.66,47-248.5,128.84l-80.48,113.88
		c-128.46,181.69-337.81,290.21-560,290.33c-222.2,0.11-431.59-108.21-560.23-289.76l-80.6-113.81
		c-57.92-81.78-148.54-128.64-248.62-128.59c-99.96,0.05-190.53,47-248.37,128.84l-80.48,113.9
		c-128.45,181.68-337.81,290.2-559.94,290.32c-222.13,0.11-431.59-108.21-560.23-289.76l-80.6-113.81
		c-57.92-81.78-148.54-128.64-248.62-128.59c-100.09,0.05-190.6,47-248.5,128.84l-80.48,113.88
		c-128.46,181.69-337.8,290.22-559.93,290.34c-222.14,0.1-431.59-108.21-560.24-289.77l-80.59-113.81
		c-57.91-81.79-148.54-128.64-248.62-128.59c-100.08,0.04-190.6,47-248.5,128.84l-80.48,113.88
		c-128.45,181.68-337.81,290.22-559.91,290.33c-222.21,0.1-431.6-108.2-560.32-289.79l-80.57-113.79
		c-58.5-81.79-149.06-128.63-249.12-128.57l-0.24-382.92c222.21-0.11,431.59,108.21,560.21,289.76l80.57,113.81
		c57.92,81.78,148.58,128.66,248.65,128.6c100.06-0.06,190.61-47,248.47-128.85l80.57-113.86
		c128.48-181.7,337.84-290.22,559.97-290.34c222.13-0.11,431.59,108.21,560.23,289.76l80.6,113.81
		c57.91,81.78,148.54,128.64,248.62,128.59s190.66-47,248.5-128.84l80.48-113.88c128.57-181.69,337.86-290.23,560.06-290.33
		c222.2-0.11,431.6,108.2,560.23,289.76l80.6,113.8c57.91,81.79,148.54,128.64,248.62,128.6c100.09-0.05,190.6-47,248.5-128.84
		l80.48-113.9c128.52-181.62,337.74-290.15,559.87-290.33c222.2-0.11,431.66,108.22,560.3,289.77l80.66,113.81
		c57.91,81.79,148.54,128.64,248.62,128.59c100.08-0.04,190.6-46.99,248.5-128.84l80.48-113.88
		c128.45-181.68,337.8-290.22,559.94-290.32c222.13-0.12,431.59,108.21,560.23,289.76l80.59,113.8
		c57.91,81.79,148.54,128.64,248.62,128.6c100.09-0.05,190.67-47.01,248.5-128.84l80.48-113.9
		c128.45-181.68,337.81-290.2,559.94-290.32c222.13-0.11,431.59,108.21,560.23,289.76l80.6,113.81
		c57.92,81.78,148.54,128.64,248.62,128.59c100.09-0.05,190.66-47,248.5-128.84l80.48-113.9
		c128.45-181.61,337.68-290.14,559.81-290.32c222.19-0.11,431.65,108.21,560.29,289.77l80.6,113.8
		c57.91,81.79,148.54,128.64,248.62,128.59c100.08-0.04,190.6-46.99,248.5-128.84l80.55-113.88
		c128.45-181.69,337.8-290.21,559.93-290.32c222.14-0.11,431.59,108.21,560.23,289.76l80.6,113.81
		c57.91,81.78,148.54,128.64,248.62,128.59c100.08-0.05,190.6-47,248.49-128.84l80.54-113.89
		c128.46-181.69,337.81-290.21,559.94-290.32c222.13-0.11,431.59,108.21,560.23,289.76l80.6,113.81
		c57.91,81.78,148.54,128.64,248.62,128.59c100.09-0.05,190.6-47,248.5-128.84l80.54-113.89
		c128.46-181.62,337.68-290.15,559.81-290.32c222.2-0.11,431.65,108.21,560.3,289.77l80.59,113.81
		c57.91,81.78,148.54,128.64,248.62,128.59c100.08-0.05,190.66-47,248.5-128.84l80.48-113.89
		c128.46-181.69,337.81-290.21,559.94-290.32c222.13-0.11,431.59,108.21,560.23,289.76l80.66,113.81
		c57.91,81.78,148.54,128.64,248.62,128.59c100.09-0.05,190.66-47,248.5-128.84l80.48-113.89
		c128.46-181.69,337.81-290.21,559.94-290.32c222.13-0.11,431.6,108.21,560.23,289.76l80.66,113.81
		c57.91,81.78,148.54,128.64,248.62,128.59c100.09-0.05,190.6-47,248.5-128.84l80.54-113.89
		c128.39-181.62,337.68-290.15,559.81-290.32l0.19,382.9c-99.96,0.05-190.47,47-248.31,128.84l-80.54,113.89
		c-128.45,181.68-337.81,290.21-559.94,290.32L18497.29,1642.27z"/>
</g>
<rect x="7112.1" y="687.55" class="st1" width="1921.16" height="1428.65"/>
</svg>
