<svg width="16" height="8" viewBox="0 0 16 8" fill="none" xmlns="http://www.w3.org/2000/svg">
<path d="M4.38707 0.511719C4.86435 0.511719 5.29806 0.579901 5.68821 0.716265C6.08215 0.852628 6.43442 1.02687 6.74503 1.23899C7.05563 1.44733 7.32836 1.66134 7.56321 1.88104C7.65033 1.96437 7.72609 2.04013 7.79048 2.10831C7.85866 2.17649 7.92685 2.25036 7.99503 2.3299C8.05942 2.25036 8.12382 2.17649 8.18821 2.10831C8.25639 2.03634 8.33215 1.96058 8.41548 1.88104C8.77533 1.54392 9.2223 1.23142 9.75639 0.943538C10.2943 0.655658 10.9098 0.511719 11.603 0.511719C12.2697 0.511719 12.8757 0.672704 13.4212 0.994674C13.9704 1.31286 14.4079 1.74089 14.7337 2.27876C15.0594 2.81286 15.2223 3.40187 15.2223 4.04581C15.2223 4.53445 15.1276 4.99278 14.9382 5.42081C14.7526 5.84505 14.4931 6.22005 14.1598 6.54581C13.8303 6.86778 13.4458 7.12157 13.0064 7.30717C12.5708 7.48899 12.103 7.5799 11.603 7.5799C11.1333 7.5799 10.7034 7.51361 10.3132 7.38104C9.92306 7.24846 9.57268 7.0818 9.26207 6.88104C8.95147 6.67649 8.67874 6.46816 8.44389 6.25604C8.34162 6.16134 8.25639 6.0799 8.18821 6.01172C8.12382 5.93975 8.05942 5.86399 7.99503 5.78445C7.91927 5.87157 7.8473 5.94922 7.77912 6.0174C7.71473 6.08558 7.63897 6.16513 7.55185 6.25604C7.32457 6.46058 7.05563 6.66513 6.74503 6.86967C6.43442 7.07043 6.08215 7.23899 5.68821 7.37536C5.29806 7.51172 4.86435 7.5799 4.38707 7.5799C3.72041 7.5799 3.11435 7.42081 2.56889 7.10263C2.02344 6.78445 1.58783 6.35831 1.26207 5.82422C0.936316 5.29013 0.773438 4.69732 0.773438 4.04581C0.773438 3.56096 0.86624 3.10642 1.05185 2.68217C1.24124 2.25414 1.50071 1.87725 1.83026 1.55149C2.16359 1.22573 2.54806 0.971946 2.98366 0.790128C3.42306 0.604522 3.89086 0.511719 4.38707 0.511719ZM2.89844 4.04581C2.89844 4.31096 2.96473 4.55149 3.0973 4.7674C3.23366 4.97952 3.41359 5.14998 3.63707 5.27876C3.86435 5.40376 4.11435 5.46626 4.38707 5.46626C4.71283 5.46626 5.01207 5.39808 5.2848 5.26172C5.56132 5.12536 5.82647 4.94354 6.08026 4.71626C6.2242 4.58369 6.34351 4.46058 6.43821 4.34695C6.53291 4.23331 6.61056 4.13293 6.67116 4.04581C6.60298 3.95869 6.50639 3.84884 6.38139 3.71626C6.26018 3.5799 6.1598 3.47384 6.08026 3.39808C5.85298 3.18217 5.59541 3.00036 5.30753 2.85263C5.01965 2.70111 4.71283 2.62536 4.38707 2.62536C4.11435 2.62536 3.86435 2.69164 3.63707 2.82422C3.41359 2.95301 3.23366 3.12536 3.0973 3.34126C2.96473 3.55339 2.89844 3.78823 2.89844 4.04581ZM13.0803 4.04581C13.0803 3.78823 13.014 3.55339 12.8814 3.34126C12.7526 3.12536 12.5765 2.95301 12.353 2.82422C12.1295 2.69164 11.8795 2.62536 11.603 2.62536C11.3833 2.62536 11.1712 2.66134 10.9666 2.73331C10.7621 2.80149 10.5708 2.89619 10.3928 3.0174C10.2185 3.13483 10.0594 3.26172 9.91548 3.39808C9.81321 3.49657 9.70336 3.6121 9.58594 3.74467C9.46851 3.87725 9.38139 3.97763 9.32457 4.04581C9.39654 4.15187 9.47988 4.25983 9.57457 4.36967C9.66927 4.47573 9.78291 4.59126 9.91548 4.71626C10.1541 4.93596 10.4117 5.11589 10.6882 5.25604C10.9685 5.39619 11.2734 5.46626 11.603 5.46626C11.8795 5.46626 12.1295 5.40376 12.353 5.27876C12.5765 5.14998 12.7526 4.97952 12.8814 4.7674C13.014 4.55149 13.0803 4.31096 13.0803 4.04581Z" fill="#303245"/>
</svg>
