<svg width="462" height="434" viewBox="0 0 462 434" fill="none" xmlns="http://www.w3.org/2000/svg">
<rect x="122.805" y="0.263809" width="339.19" height="413.345" rx="5" fill="#0F3D8B"/>
<mask id="mask0_310_2659" style="mask-type:luminance" maskUnits="userSpaceOnUse" x="225" y="34" width="30" height="50">
<path d="M234.508 61.7228V75.6333H239.168C241.094 75.6333 242.529 75.0432 243.47 73.8652C244.412 72.6872 244.883 70.8605 244.883 68.3897C244.883 63.9458 242.932 61.7228 239.031 61.7228H234.508ZM234.508 54.0017H238.761C240.709 54.0017 242.081 53.4814 242.876 52.4386C243.669 51.3957 244.065 49.8416 244.065 47.7785C244.065 45.7153 243.612 44.2355 242.705 43.3413C241.799 42.4449 240.369 41.9967 238.421 41.9967H234.508V54.0017ZM225.801 34.0053H238.488C243.657 34.0053 247.421 35.0076 249.779 37.0145C252.138 39.0213 253.315 42.2129 253.315 46.5892C253.315 49.4677 252.694 51.8777 251.446 53.8148C250.198 55.754 248.498 56.9275 246.344 57.3352V57.6753C249.155 58.378 251.185 59.6934 252.433 61.6214C253.678 63.5472 254.302 66.1104 254.302 69.3064C254.302 73.8202 253.095 77.3519 250.68 79.9015C248.266 82.4534 244.962 83.7282 240.765 83.7282H225.801V34.0053Z" fill="white"/>
</mask>
<g mask="url(#mask0_310_2659)">
<path d="M234.508 61.7228V75.6333H239.168C241.094 75.6333 242.529 75.0432 243.47 73.8652C244.412 72.6872 244.883 70.8605 244.883 68.3897C244.883 63.9458 242.932 61.7228 239.031 61.7228H234.508ZM234.508 54.0017H238.761C240.709 54.0017 242.081 53.4814 242.876 52.4386C243.669 51.3957 244.065 49.8416 244.065 47.7785C244.065 45.7153 243.612 44.2355 242.705 43.3413C241.799 42.4449 240.369 41.9967 238.421 41.9967H234.508V54.0017ZM225.801 34.0053H238.488C243.657 34.0053 247.421 35.0076 249.779 37.0145C252.138 39.0213 253.315 42.2129 253.315 46.5892C253.315 49.4677 252.694 51.8777 251.446 53.8148C250.198 55.754 248.498 56.9275 246.344 57.3352V57.6753C249.155 58.378 251.185 59.6934 252.433 61.6214C253.678 63.5472 254.302 66.1104 254.302 69.3064C254.302 73.8202 253.095 77.3519 250.68 79.9015C248.266 82.4534 244.962 83.7282 240.765 83.7282H225.801V34.0053Z" fill="white"/>
</g>
<mask id="mask1_310_2659" style="mask-type:luminance" maskUnits="userSpaceOnUse" x="261" y="34" width="23" height="50">
<path d="M261.109 83.7282V34.0053H270.362V75.6333H283.182V83.7282H261.109Z" fill="white"/>
</mask>
<g mask="url(#mask1_310_2659)">
<path d="M261.109 83.7282V34.0053H270.362V75.6333H283.182V83.7282H261.109Z" fill="white"/>
</g>
<mask id="mask2_310_2659" style="mask-type:luminance" maskUnits="userSpaceOnUse" x="287" y="33" width="37" height="52">
<path d="M297.034 58.797C297.034 64.4662 297.747 68.7861 299.178 71.757C300.606 74.7278 302.703 76.2122 305.469 76.2122C311.048 76.2122 313.836 70.4079 313.836 58.797C313.836 47.1884 311.068 41.384 305.536 41.384C302.725 41.384 300.606 42.8639 299.178 45.8235C297.747 48.7808 297.034 53.1076 297.034 58.797ZM323.325 58.797C323.325 67.0293 321.782 73.3539 318.699 77.7753C315.615 82.1967 311.205 84.4085 305.469 84.4085C299.709 84.4085 295.288 82.2034 292.204 77.7933C289.121 73.3832 287.578 67.0293 287.578 58.7294C287.578 50.4993 289.121 44.1905 292.204 39.8029C295.288 35.4153 299.732 33.2216 305.536 33.2216C311.273 33.2216 315.672 35.4266 318.733 39.8367C321.794 44.2468 323.325 50.5669 323.325 58.797Z" fill="white"/>
</mask>
<g mask="url(#mask2_310_2659)">
<path d="M297.034 58.797C297.034 64.4662 297.747 68.7861 299.178 71.757C300.606 74.7278 302.703 76.2122 305.469 76.2122C311.048 76.2122 313.836 70.4079 313.836 58.797C313.836 47.1884 311.068 41.384 305.536 41.384C302.725 41.384 300.606 42.8639 299.178 45.8235C297.747 48.7808 297.034 53.1076 297.034 58.797ZM323.325 58.797C323.325 67.0293 321.782 73.3539 318.699 77.7753C315.615 82.1967 311.205 84.4085 305.469 84.4085C299.709 84.4085 295.288 82.2034 292.204 77.7933C289.121 73.3832 287.578 67.0293 287.578 58.7294C287.578 50.4993 289.121 44.1905 292.204 39.8029C295.288 35.4153 299.732 33.2216 305.536 33.2216C311.273 33.2216 315.672 35.4266 318.733 39.8367C321.794 44.2468 323.325 50.5669 323.325 58.797Z" fill="white"/>
</g>
<mask id="mask3_310_2659" style="mask-type:luminance" maskUnits="userSpaceOnUse" x="329" y="33" width="32" height="52">
<path d="M345.591 56.146H360.794V81.6538C356.486 83.4895 351.907 84.4085 347.055 84.4085C341.271 84.4085 336.823 82.2102 333.705 77.8091C330.588 73.4125 329.027 67.0744 329.027 58.797C329.027 50.8169 330.813 44.5711 334.386 40.0574C337.956 35.546 342.949 33.2891 349.366 33.2891C353.335 33.2891 357.121 34.3094 360.727 36.35L357.801 43.9022C354.99 42.2692 352.359 41.4516 349.911 41.4516C346.395 41.4516 343.614 43.0238 341.562 46.1636C339.51 49.3033 338.483 53.5828 338.483 59.002C338.483 64.581 339.226 68.8537 340.71 71.8246C342.197 74.7954 344.355 76.2797 347.19 76.2797C348.686 76.2797 350.206 76.0883 351.747 75.7009V64.3085H345.591V56.146Z" fill="white"/>
</mask>
<g mask="url(#mask3_310_2659)">
<path d="M345.591 56.146H360.794V81.6538C356.486 83.4895 351.907 84.4085 347.055 84.4085C341.271 84.4085 336.823 82.2102 333.705 77.8091C330.588 73.4125 329.027 67.0744 329.027 58.797C329.027 50.8169 330.813 44.5711 334.386 40.0574C337.956 35.546 342.949 33.2891 349.366 33.2891C353.335 33.2891 357.121 34.3094 360.727 36.35L357.801 43.9022C354.99 42.2692 352.359 41.4516 349.911 41.4516C346.395 41.4516 343.614 43.0238 341.562 46.1636C339.51 49.3033 338.483 53.5828 338.483 59.002C338.483 64.581 339.226 68.8537 340.71 71.8246C342.197 74.7954 344.355 76.2797 347.19 76.2797C348.686 76.2797 350.206 76.0883 351.747 75.7009V64.3085H345.591V56.146Z" fill="white"/>
</g>
<mask id="mask4_310_2659" style="mask-type:luminance" maskUnits="userSpaceOnUse" x="156" y="101" width="281" height="137">
<path d="M434.409 237.171H158.669C157.577 237.171 156.691 236.286 156.691 235.193V103.861C156.691 102.769 157.577 101.883 158.669 101.883H434.409C435.501 101.883 436.386 102.769 436.386 103.861V235.193C436.386 236.286 435.501 237.171 434.409 237.171Z" fill="white"/>
</mask>
<g mask="url(#mask4_310_2659)">
<path d="M434.409 237.171H158.669C157.577 237.171 156.691 236.286 156.691 235.193V103.861C156.691 102.769 157.577 101.883 158.669 101.883H434.409C435.501 101.883 436.386 102.769 436.386 103.861V235.193C436.386 236.286 435.501 237.171 434.409 237.171Z" fill="#84E0DD"/>
</g>
<mask id="mask5_310_2659" style="mask-type:luminance" maskUnits="userSpaceOnUse" x="168" y="255" width="269" height="17">
<path d="M435.344 271.003H169.799C169.333 271.003 168.953 270.771 168.953 270.485V255.759C168.953 255.473 169.333 255.241 169.799 255.241H435.344C435.811 255.241 436.19 255.473 436.19 255.759V270.485C436.19 270.771 435.811 271.003 435.344 271.003Z" fill="white"/>
</mask>
<g mask="url(#mask5_310_2659)">
<path d="M435.344 271.003H169.799C169.333 271.003 168.953 270.771 168.953 270.485V255.759C168.953 255.473 169.333 255.241 169.799 255.241H435.344C435.811 255.241 436.19 255.473 436.19 255.759V270.485C436.19 270.771 435.811 271.003 435.344 271.003Z" fill="white"/>
</g>
<mask id="mask6_310_2659" style="mask-type:luminance" maskUnits="userSpaceOnUse" x="168" y="281" width="268" height="17">
<path d="M434.304 297.121H169.767C169.022 297.121 168.418 296.751 168.418 296.295V282.187C168.418 281.73 169.022 281.36 169.767 281.36H434.304C435.049 281.36 435.653 281.73 435.653 282.187V296.295C435.653 296.751 435.049 297.121 434.304 297.121Z" fill="white"/>
</mask>
<g mask="url(#mask6_310_2659)">
<path d="M434.304 297.121H169.767C169.022 297.121 168.418 296.751 168.418 296.295V282.187C168.418 281.73 169.022 281.36 169.767 281.36H434.304C435.049 281.36 435.653 281.73 435.653 282.187V296.295C435.653 296.751 435.049 297.121 434.304 297.121Z" fill="white"/>
</g>
<mask id="mask7_310_2659" style="mask-type:luminance" maskUnits="userSpaceOnUse" x="169" y="305" width="268" height="17">
<path d="M434.72 321.487H170.57C169.718 321.487 169.027 321.063 169.027 320.541V306.671C169.027 306.149 169.718 305.726 170.57 305.726H434.72C435.572 305.726 436.263 306.149 436.263 306.671V320.541C436.263 321.063 435.572 321.487 434.72 321.487Z" fill="white"/>
</mask>
<g mask="url(#mask7_310_2659)">
<path d="M434.72 321.487H170.57C169.718 321.487 169.027 321.063 169.027 320.541V306.671C169.027 306.149 169.718 305.726 170.57 305.726H434.72C435.572 305.726 436.263 306.149 436.263 306.671V320.541C436.263 321.063 435.572 321.487 434.72 321.487Z" fill="white"/>
</g>
<path d="M43.9658 372.762C43.9658 372.762 86.4016 407.415 97.045 413.576C109.4 420.727 123.475 403.498 117.402 395.049C111.329 386.602 68.883 361.697 68.883 361.697L43.9658 372.762Z" fill="black"/>
<path d="M43.9658 372.762C43.9658 372.762 86.4016 407.415 97.045 413.576C109.4 420.727 123.475 403.498 117.402 395.049C111.329 386.602 68.883 361.697 68.883 361.697L43.9658 372.762Z" fill="#0F3D8B"/>
<path d="M48.0354 327.322L131.66 230.707L187.2 329.441L67.1914 367.1L48.0354 327.322Z" fill="black"/>
<path d="M48.0354 327.322L131.66 230.707L187.2 329.441L67.1914 367.1L48.0354 327.322Z" fill="#84E0DD"/>
<path d="M170.514 274.054C186.59 301.897 195.023 327.123 189.349 330.399C183.677 333.674 166.047 313.758 149.971 285.914C133.896 258.072 125.463 232.845 131.136 229.57C136.81 226.295 154.44 246.211 170.514 274.054Z" fill="black"/>
<path d="M170.514 274.054C186.59 301.897 195.023 327.123 189.349 330.399C183.677 333.674 166.047 313.758 149.971 285.914C133.896 258.072 125.463 232.845 131.136 229.57C136.81 226.295 154.44 246.211 170.514 274.054Z" fill="#0F3D8B"/>
<path d="M188.139 326.502C186.666 326.094 182.54 323.619 175.369 315.201C168.436 307.066 160.697 295.792 153.575 283.456C146.453 271.12 140.559 258.781 136.98 248.71C133.276 238.29 133.195 233.48 133.578 232C135.052 232.408 139.177 234.883 146.35 243.3C153.281 251.436 161.02 262.709 168.142 275.045C175.264 287.381 181.158 299.721 184.738 309.792C188.442 320.212 188.523 325.022 188.139 326.502Z" fill="black"/>
<path d="M188.139 326.502C186.666 326.094 182.54 323.619 175.369 315.201C168.436 307.066 160.697 295.792 153.575 283.456C146.453 271.12 140.559 258.781 136.98 248.71C133.276 238.29 133.195 233.48 133.578 232C135.052 232.408 139.177 234.883 146.35 243.3C153.281 251.436 161.02 262.709 168.142 275.045C175.264 287.381 181.158 299.721 184.738 309.792C188.442 320.212 188.523 325.022 188.139 326.502Z" fill="#84E0DD"/>
<path d="M188.139 326.502C186.666 326.094 182.54 323.619 175.368 315.2C168.436 307.066 160.697 295.792 153.575 283.456C146.453 271.12 140.559 258.781 136.98 248.71C133.276 238.29 133.195 233.48 133.578 232C135.052 232.408 139.177 234.883 146.35 243.3C153.281 251.436 173.321 255.607 180.443 267.943C187.565 280.279 181.158 299.721 184.738 309.791C188.442 320.212 188.523 325.022 188.139 326.502Z" fill="black"/>
<mask id="mask8_310_2659" style="mask-type:luminance" maskUnits="userSpaceOnUse" x="141" y="261" width="36" height="37">
<path d="M173.802 271.274C178.748 279.84 178.143 289.448 169.01 294.721C159.877 299.994 148.464 297.325 143.518 288.758C138.572 280.193 141.968 268.974 151.101 263.701C160.234 258.428 168.857 262.708 173.802 271.274Z" fill="white"/>
</mask>
<g mask="url(#mask8_310_2659)">
<path d="M168.652 294.934L168.647 294.925L168.338 295.103L168.332 295.094L168.091 295.233L168.085 295.223L167.931 295.312L167.925 295.303L167.761 295.397L167.756 295.388L167.62 295.466L167.615 295.456L167.499 295.523L167.493 295.513L167.378 295.58L167.372 295.571L167.266 295.632L167.26 295.622L167.164 295.678L167.158 295.668L167.071 295.718L167.066 295.709L166.979 295.759L166.973 295.749L166.877 295.805L166.871 295.795L166.794 295.84L166.788 295.83L166.711 295.875L166.706 295.865L166.638 295.904L166.632 295.895L166.555 295.939L166.55 295.93L166.472 295.974L166.467 295.964L166.399 296.003L166.394 295.994L166.326 296.033L166.321 296.023L166.263 296.057L166.257 296.047L166.19 296.086L166.184 296.076L166.126 296.11L166.12 296.1L166.053 296.139L166.047 296.129L165.989 296.163L165.984 296.153L165.926 296.187L165.92 296.177L165.862 296.21L165.857 296.201L165.809 296.229L165.803 296.219L165.745 296.252L165.74 296.243L165.682 296.276L165.676 296.267L165.628 296.294L165.622 296.285L165.564 296.318L165.559 296.309L165.51 296.336L165.505 296.327L165.457 296.355L165.451 296.345L165.403 296.373L165.397 296.363L165.349 296.391L165.343 296.381L165.295 296.409L165.29 296.4L165.241 296.428L165.236 296.418L165.187 296.446L165.182 296.436L165.134 296.464L165.128 296.454L165.08 296.482L165.074 296.473L165.036 296.495L165.03 296.485L164.982 296.513L164.976 296.503L164.938 296.526L164.932 296.516L164.893 296.538L164.888 296.529L164.84 296.557L164.834 296.547L164.795 296.569L164.79 296.559L164.742 296.587L164.736 296.578L164.697 296.6L164.692 296.59L164.653 296.613L164.648 296.603L164.599 296.631L164.594 296.621L164.555 296.643L164.55 296.634L164.511 296.656L164.505 296.646L164.467 296.669L164.461 296.659L164.432 296.676L164.427 296.666L164.388 296.688L164.383 296.679L164.344 296.701L164.338 296.691L164.3 296.714L164.294 296.704L164.256 296.726L164.25 296.717L164.211 296.739L164.206 296.729L164.167 296.752L164.162 296.742L164.123 296.764L164.117 296.755L164.088 296.771L164.083 296.762L164.044 296.784L164.039 296.774L164 296.797L163.995 296.787L163.966 296.804L163.96 296.794L163.921 296.816L163.916 296.807L163.887 296.823L163.881 296.814L163.843 296.836L163.837 296.826L163.798 296.849L163.793 296.839L163.764 296.856L163.758 296.846L163.72 296.868L163.714 296.859L163.685 296.875L163.68 296.866L163.641 296.888L163.635 296.878L163.607 296.895L163.601 296.886L163.572 296.902L163.566 296.893L163.537 296.909L163.532 296.9L163.493 296.922L163.488 296.912L163.459 296.929L163.453 296.919L163.424 296.936L163.419 296.926L163.38 296.949L163.374 296.939L163.346 296.956L163.34 296.946L163.311 296.963L163.305 296.953L163.276 296.97L163.271 296.96L163.232 296.983L163.227 296.973L163.198 296.99L163.192 296.98L163.163 296.997L163.158 296.987L163.129 297.004L163.123 296.994L163.094 297.011L163.089 297.001L163.06 297.018L163.054 297.008L163.025 297.025L163.02 297.015L162.991 297.032L162.985 297.022L162.956 297.039L162.95 297.029L162.921 297.046L162.916 297.036L162.887 297.053L162.881 297.044L162.852 297.06L162.847 297.051L162.818 297.067L162.812 297.058L162.783 297.074L162.778 297.065L162.749 297.081L162.743 297.072L162.714 297.089L162.709 297.079L162.689 297.09L162.684 297.08L162.655 297.097L162.649 297.087L162.62 297.104L162.615 297.095L162.586 297.111L162.58 297.102L162.551 297.118L162.546 297.109L162.517 297.125L162.511 297.116L162.492 297.127L162.486 297.117L162.457 297.134L162.452 297.124L162.423 297.141L162.417 297.131L162.388 297.148L162.383 297.138L162.354 297.155L162.348 297.145L162.329 297.157L162.323 297.147L162.294 297.164L162.289 297.154L162.26 297.171L162.254 297.161L162.235 297.172L162.229 297.163L162.2 297.179L162.195 297.17L162.176 297.181L162.17 297.171L162.141 297.188L162.135 297.178L162.107 297.195L162.101 297.185L162.082 297.196L162.076 297.187L162.047 297.203L162.042 297.194L162.032 297.199L161.948 297.055L161.939 297.06L161.849 296.906L161.84 296.911L161.745 296.747L161.735 296.753L161.635 296.579L161.625 296.585L161.52 296.401L161.51 296.407L161.41 296.233L161.4 296.239L161.3 296.065L161.29 296.07L161.19 295.897L161.18 295.902L161.08 295.729L161.07 295.734L160.959 295.541L160.949 295.547L160.837 295.354L160.828 295.359L160.716 295.166L160.707 295.172L160.595 294.979L160.586 294.984L160.474 294.791L160.465 294.797L160.347 294.594L160.338 294.6L160.215 294.387L160.206 294.393L160.083 294.18L160.073 294.186L159.945 293.964L159.935 293.97L159.813 293.757L159.803 293.763L159.681 293.55L159.671 293.556L159.532 293.315L159.522 293.32L159.383 293.079L159.373 293.085L159.234 292.843L159.224 292.849L159.085 292.608L159.075 292.613L158.93 292.362L158.921 292.368L158.764 292.097L158.755 292.103L158.593 291.823L158.584 291.829L158.428 291.558L158.418 291.564L158.251 291.274L158.241 291.28L158.057 290.961L158.047 290.967L157.869 290.658L157.86 290.664L157.676 290.345L157.666 290.351L157.46 289.994L157.45 289.999L157.233 289.623L157.223 289.628L157.006 289.252L156.996 289.257L156.745 288.823L156.736 288.829L156.474 288.375L156.464 288.381L156.18 287.888L156.17 287.894L155.83 287.305L155.821 287.311L155.436 286.645L155.426 286.65L154.953 285.83L154.943 285.835L154.09 284.358L154.081 284.364L153.039 282.559L153.048 282.553L152.196 281.077L152.205 281.071L151.726 280.241L151.736 280.235L151.357 279.579L151.366 279.573L151.026 278.985L151.036 278.979L150.752 278.487L150.762 278.481L150.5 278.028L150.509 278.022L150.259 277.588L150.268 277.582L150.051 277.206L150.06 277.2L149.843 276.824L149.853 276.818L149.647 276.461L149.656 276.455L149.472 276.137L149.482 276.131L149.298 275.813L149.308 275.807L149.129 275.498L149.139 275.493L148.972 275.203L148.982 275.197L148.826 274.927L148.835 274.922L148.674 274.642L148.683 274.636L148.527 274.366L148.537 274.36L148.392 274.109L148.402 274.104L148.262 273.862L148.272 273.857L148.133 273.616L148.142 273.61L148.003 273.369L148.013 273.363L147.873 273.122L147.883 273.116L147.76 272.904L147.77 272.898L147.642 272.676L147.651 272.671L147.529 272.458L147.538 272.453L147.416 272.24L147.426 272.235L147.303 272.023L147.313 272.017L147.196 271.814L147.205 271.809L147.094 271.616L147.103 271.61L146.992 271.417L147.002 271.411L146.89 271.218L146.9 271.213L146.788 271.02L146.798 271.014L146.687 270.821L146.696 270.816L146.596 270.642L146.606 270.636L146.505 270.462L146.515 270.457L146.415 270.283L146.424 270.278L146.318 270.094L146.328 270.089L146.228 269.915L146.237 269.909L146.137 269.736L146.147 269.73L146.052 269.566L146.062 269.56L145.967 269.396L145.976 269.391L145.887 269.236L145.897 269.231L145.802 269.067L145.812 269.061L145.717 268.897L145.727 268.891L145.638 268.737L145.647 268.731L145.553 268.567L145.562 268.562L145.501 268.455L145.52 268.444L145.515 268.435L145.534 268.424L145.528 268.414L145.557 268.397L145.552 268.387L145.571 268.376L145.565 268.367L145.594 268.35L145.589 268.34L145.618 268.324L145.612 268.314L145.632 268.303L145.626 268.293L145.655 268.276L145.649 268.267L145.678 268.25L145.673 268.24L145.702 268.224L145.696 268.214L145.715 268.203L145.71 268.193L145.739 268.177L145.733 268.167L145.762 268.15L145.757 268.141L145.786 268.124L145.78 268.114L145.809 268.097L145.803 268.088L145.823 268.077L145.817 268.067L145.846 268.05L145.841 268.041L145.869 268.024L145.864 268.014L145.893 267.998L145.887 267.988L145.916 267.971L145.911 267.961L145.93 267.95L145.924 267.941L145.953 267.924L145.948 267.914L145.977 267.898L145.971 267.888L146 267.871L145.995 267.862L146.024 267.845L146.018 267.835L146.047 267.818L146.041 267.809L146.07 267.792L146.065 267.782L146.094 267.766L146.088 267.756L146.117 267.739L146.111 267.73L146.14 267.713L146.135 267.703L146.164 267.687L146.158 267.677L146.197 267.655L146.191 267.645L146.22 267.628L146.215 267.619L146.244 267.602L146.238 267.592L146.267 267.576L146.261 267.566L146.29 267.549L146.285 267.54L146.314 267.523L146.308 267.513L146.337 267.496L146.332 267.487L146.37 267.465L146.365 267.455L146.394 267.438L146.388 267.428L146.417 267.412L146.411 267.402L146.45 267.38L146.444 267.37L146.473 267.353L146.468 267.344L146.497 267.327L146.491 267.317L146.52 267.301L146.515 267.291L146.553 267.269L146.548 267.259L146.577 267.242L146.571 267.233L146.61 267.21L146.604 267.201L146.633 267.184L146.627 267.174L146.666 267.152L146.66 267.142L146.689 267.126L146.684 267.116L146.722 267.094L146.717 267.084L146.755 267.062L146.75 267.052L146.779 267.036L146.773 267.026L146.812 267.004L146.806 266.994L146.835 266.977L146.83 266.968L146.868 266.945L146.863 266.936L146.892 266.919L146.886 266.909L146.925 266.887L146.919 266.877L146.958 266.855L146.952 266.845L146.991 266.823L146.985 266.813L147.024 266.791L147.018 266.781L147.057 266.759L147.051 266.75L147.09 266.727L147.084 266.718L147.123 266.695L147.117 266.686L147.156 266.663L147.15 266.654L147.189 266.631L147.183 266.622L147.222 266.599L147.217 266.59L147.255 266.567L147.25 266.558L147.288 266.536L147.283 266.526L147.331 266.498L147.325 266.488L147.364 266.466L147.358 266.456L147.397 266.434L147.391 266.424L147.44 266.397L147.434 266.387L147.473 266.365L147.467 266.355L147.506 266.333L147.5 266.323L147.548 266.295L147.543 266.286L147.581 266.263L147.576 266.254L147.624 266.226L147.619 266.216L147.667 266.188L147.661 266.179L147.709 266.151L147.704 266.141L147.752 266.113L147.747 266.104L147.795 266.076L147.789 266.066L147.828 266.044L147.822 266.034L147.871 266.006L147.865 265.997L147.913 265.969L147.908 265.959L147.956 265.931L147.95 265.922L148.008 265.888L148.003 265.878L148.051 265.851L148.045 265.841L148.103 265.808L148.098 265.798L148.156 265.764L148.15 265.755L148.198 265.727L148.193 265.717L148.251 265.684L148.245 265.674L148.293 265.646L148.288 265.637L148.355 265.598L148.35 265.588L148.408 265.555L148.402 265.545L148.46 265.511L148.455 265.502L148.522 265.463L148.517 265.453L148.574 265.42L148.569 265.41L148.636 265.371L148.631 265.361L148.689 265.328L148.683 265.318L148.76 265.274L148.755 265.264L148.832 265.219L148.826 265.21L148.894 265.171L148.888 265.161L148.966 265.117L148.96 265.107L149.037 265.062L149.032 265.053L149.109 265.008L149.103 264.998L149.2 264.943L149.194 264.933L149.281 264.883L149.276 264.873L149.363 264.823L149.357 264.813L149.444 264.763L149.438 264.754L149.554 264.687L149.549 264.677L149.674 264.605L149.668 264.595L149.784 264.528L149.779 264.518L149.904 264.446L149.899 264.436L150.063 264.342L150.057 264.332L150.221 264.237L150.216 264.228L150.467 264.083L150.461 264.073L150.809 263.872L150.803 263.863L151.401 263.517L151.407 263.527L151.706 263.354L151.712 263.364L151.982 263.208L151.988 263.217L152.113 263.145L152.119 263.155L152.254 263.077L152.259 263.086L152.395 263.008L152.4 263.018L152.526 262.945L152.531 262.955L152.666 262.877L152.672 262.887L152.807 262.809L152.813 262.818L152.89 262.774L152.895 262.783L152.973 262.739L152.978 262.749L153.055 262.704L153.061 262.714L153.138 262.669L153.144 262.679L153.221 262.634L153.227 262.644L153.304 262.599L153.309 262.609L153.387 262.564L153.392 262.574L153.469 262.529L153.475 262.539L153.552 262.494L153.558 262.504L153.635 262.459L153.64 262.469L153.698 262.436L153.704 262.445L153.752 262.417L153.758 262.427L153.816 262.394L153.821 262.403L153.879 262.37L153.885 262.38L153.933 262.352L153.939 262.361L153.997 262.328L154.002 262.338L154.05 262.31L154.056 262.319L154.114 262.286L154.119 262.296L154.177 262.262L154.183 262.272L154.231 262.244L154.237 262.254L154.295 262.22L154.3 262.23L154.348 262.202L154.354 262.212L154.412 262.178L154.418 262.188L154.475 262.154L154.481 262.164L154.52 262.142L154.525 262.151L154.573 262.123L154.579 262.133L154.618 262.111L154.623 262.12L154.662 262.098L154.667 262.108L154.706 262.086L154.712 262.095L154.76 262.067L154.765 262.077L154.804 262.055L154.81 262.064L154.848 262.042L154.854 262.052L154.892 262.029L154.898 262.039L154.946 262.011L154.952 262.021L154.99 261.999L154.996 262.008L155.035 261.986L155.04 261.996L155.079 261.973L155.084 261.983L155.133 261.955L155.138 261.965L155.177 261.942L155.182 261.952L155.221 261.93L155.227 261.939L155.265 261.917L155.271 261.927L155.319 261.899L155.325 261.909L155.354 261.892L155.359 261.902L155.398 261.879L155.403 261.889L155.432 261.872L155.438 261.882L155.476 261.86L155.482 261.869L155.511 261.852L155.517 261.862L155.546 261.845L155.551 261.855L155.59 261.833L155.595 261.842L155.624 261.826L155.63 261.835L155.668 261.813L155.674 261.823L155.703 261.806L155.709 261.816L155.737 261.799L155.743 261.809L155.782 261.786L155.787 261.796L155.816 261.779L155.822 261.789L155.86 261.767L155.866 261.776L155.895 261.76L155.9 261.769L155.929 261.752L155.935 261.762L155.974 261.74L155.979 261.749L156.008 261.733L156.014 261.742L156.043 261.726L156.048 261.735L156.087 261.713L156.092 261.723L156.121 261.706L156.127 261.716L156.166 261.693L156.171 261.703L156.19 261.692L156.196 261.701L156.225 261.685L156.231 261.694L156.259 261.678L156.265 261.687L156.294 261.671L156.3 261.68L156.329 261.664L156.334 261.673L156.353 261.662L156.359 261.672L156.388 261.655L156.394 261.665L156.422 261.648L156.428 261.658L156.457 261.641L156.463 261.651L156.492 261.634L156.497 261.643L156.516 261.632L156.522 261.642L156.551 261.625L156.557 261.635L156.585 261.618L156.591 261.628L156.62 261.611L156.626 261.621L156.655 261.604L156.66 261.614L156.689 261.597L156.695 261.607L156.714 261.595L156.72 261.605L156.748 261.588L156.754 261.598L156.783 261.581L156.789 261.591L156.818 261.574L156.823 261.584L156.852 261.567L156.858 261.577L156.877 261.566L156.883 261.575L156.911 261.559L156.917 261.568L156.946 261.552L156.952 261.561L156.981 261.545L156.986 261.554L157.005 261.543L157.011 261.553L157.04 261.536L157.046 261.546L157.065 261.534L157.07 261.544L157.09 261.533L157.095 261.543L157.124 261.526L157.13 261.536L157.149 261.524L157.155 261.534L157.174 261.523L157.18 261.533L157.209 261.516L157.214 261.526L157.233 261.514L157.239 261.524L157.268 261.507L157.274 261.517L157.293 261.506L157.298 261.515L157.318 261.504L157.323 261.514L157.352 261.497L157.358 261.507L157.377 261.496L157.383 261.505L157.402 261.494L157.408 261.504L157.437 261.487L157.442 261.497L157.461 261.486L157.467 261.495L157.486 261.484L157.492 261.494L157.521 261.477L157.526 261.487L157.546 261.476L157.551 261.485L157.58 261.469L157.586 261.478L157.605 261.467L157.611 261.477L157.63 261.466L157.636 261.475L157.664 261.459L157.67 261.468L157.689 261.457L157.695 261.467L157.714 261.456L157.72 261.465L157.749 261.448L157.754 261.458L157.774 261.447L157.779 261.457L157.799 261.445L157.804 261.455L157.823 261.444L157.829 261.454L157.858 261.437L157.864 261.447L157.883 261.435L157.888 261.445L157.908 261.434L157.913 261.444L157.933 261.432L157.938 261.442L157.957 261.431L157.963 261.441L157.982 261.429L157.988 261.439L158.007 261.428L158.013 261.438L158.032 261.426L158.038 261.436L158.057 261.425L158.063 261.435L158.082 261.424L158.087 261.433L158.107 261.422L158.112 261.432L158.132 261.421L158.137 261.43L158.156 261.419L158.162 261.429L158.181 261.418L158.187 261.427L158.206 261.416L158.212 261.426L158.231 261.415L158.237 261.424L158.256 261.413L158.262 261.423L158.281 261.412L158.286 261.421L158.306 261.41L158.311 261.42L158.331 261.409L158.336 261.418L158.355 261.407L158.361 261.417L158.38 261.406L158.386 261.415L158.405 261.404L158.411 261.414L158.43 261.403L158.436 261.412L158.455 261.401L158.461 261.411L158.48 261.4L158.485 261.409L158.505 261.398L158.51 261.408L158.53 261.397L158.535 261.406L158.555 261.395L158.56 261.405L158.579 261.394L158.585 261.403L158.604 261.392L158.61 261.402L158.629 261.391L158.635 261.4L158.654 261.389L158.66 261.399L158.679 261.388L158.684 261.397L158.704 261.386L158.709 261.396L158.719 261.39L158.725 261.4L158.744 261.389L158.749 261.398L158.769 261.387L158.774 261.397L158.794 261.386L158.799 261.395L158.809 261.39L158.814 261.4L158.834 261.388L158.839 261.398L158.859 261.387L158.864 261.397L158.884 261.385L158.889 261.395L158.899 261.389L158.904 261.399L158.924 261.388L158.929 261.398L158.948 261.386L158.954 261.396L158.973 261.385L158.979 261.395L158.989 261.389L158.994 261.399L159.013 261.388L159.019 261.397L159.038 261.386L159.044 261.396L159.063 261.385L159.069 261.394L159.078 261.389L159.084 261.398L159.103 261.387L159.109 261.397L159.128 261.386L159.134 261.395L159.153 261.384L159.159 261.394L159.178 261.383L159.184 261.392L159.193 261.387L159.199 261.396L159.218 261.385L159.224 261.395L159.243 261.384L159.249 261.393L159.268 261.382L159.273 261.392L159.283 261.386L159.289 261.396L159.308 261.385L159.313 261.395L159.333 261.383L159.338 261.393L159.358 261.382L159.363 261.392L159.373 261.386L159.378 261.396L159.398 261.384L159.403 261.394L159.423 261.383L159.428 261.393L159.438 261.387L159.443 261.397L159.463 261.386L159.468 261.395L159.478 261.39L159.484 261.399L159.503 261.388L159.508 261.398L159.528 261.387L159.533 261.396L159.543 261.391L159.549 261.4L159.568 261.389L159.573 261.399L159.583 261.393L159.589 261.403L159.608 261.392L159.614 261.401L159.623 261.396L159.629 261.406L159.648 261.394L159.654 261.404L159.663 261.398L159.669 261.408L159.688 261.397L159.694 261.407L159.703 261.401L159.709 261.411L159.728 261.4L159.734 261.409L159.753 261.398L159.759 261.408L159.768 261.402L159.774 261.412L159.793 261.401L159.799 261.41L159.808 261.405L159.814 261.414L159.833 261.403L159.839 261.413L159.849 261.407L159.854 261.417L159.873 261.406L159.879 261.416L159.889 261.41L159.894 261.42L159.914 261.408L159.919 261.418L159.938 261.407L159.944 261.417L159.954 261.411L159.959 261.421L159.979 261.41L159.984 261.419L159.994 261.414L159.999 261.423L160.019 261.412L160.024 261.422L160.034 261.416L160.039 261.426L160.059 261.415L160.064 261.424L160.074 261.419L160.08 261.428L160.099 261.417L160.104 261.427L160.114 261.421L160.12 261.431L160.139 261.42L160.145 261.43L160.164 261.418L160.169 261.428L160.179 261.422L160.185 261.432L160.204 261.421L160.209 261.431L160.219 261.425L160.225 261.435L160.234 261.429L160.24 261.439L160.259 261.428L160.265 261.437L160.274 261.432L160.28 261.441L160.29 261.436L160.295 261.445L160.315 261.434L160.32 261.444L160.33 261.438L160.335 261.448L160.355 261.437L160.36 261.447L160.37 261.441L160.375 261.451L160.385 261.445L160.391 261.455L160.41 261.444L160.416 261.453L160.425 261.448L160.431 261.457L160.44 261.452L160.446 261.461L160.465 261.45L160.471 261.46L160.481 261.454L160.486 261.464L160.496 261.458L160.501 261.468L160.521 261.457L160.526 261.467L160.536 261.461L160.541 261.471L160.561 261.459L160.566 261.469L160.576 261.464L160.582 261.473L160.591 261.468L160.597 261.477L160.616 261.466L160.622 261.476L160.631 261.47L160.637 261.48L160.647 261.474L160.652 261.484L160.671 261.473L160.677 261.482L160.687 261.477L160.692 261.487L160.712 261.475L160.717 261.485L160.727 261.479L160.732 261.489L160.742 261.484L160.748 261.493L160.767 261.482L160.772 261.492L160.782 261.486L160.788 261.496L160.797 261.49L160.803 261.5L160.822 261.489L160.828 261.498L160.837 261.493L160.843 261.502L160.853 261.497L160.858 261.507L160.878 261.495L160.883 261.505L160.893 261.499L160.898 261.509L160.918 261.498L160.923 261.508L160.933 261.502L160.938 261.512L160.948 261.506L160.954 261.516L160.973 261.505L160.979 261.514L160.988 261.509L160.994 261.518L161.003 261.513L161.009 261.522L161.019 261.517L161.024 261.527L161.043 261.515L161.049 261.525L161.059 261.519L161.064 261.529L161.074 261.524L161.08 261.533L161.089 261.528L161.095 261.537L161.104 261.532L161.11 261.541L161.129 261.53L161.135 261.54L161.145 261.534L161.15 261.544L161.16 261.538L161.165 261.548L161.175 261.542L161.181 261.552L161.2 261.541L161.205 261.551L161.215 261.545L161.221 261.555L161.23 261.549L161.236 261.559L161.246 261.553L161.251 261.563L161.261 261.557L161.266 261.567L161.286 261.556L161.291 261.565L161.301 261.56L161.306 261.57L161.316 261.564L161.322 261.574L161.331 261.568L161.337 261.578L161.347 261.572L161.352 261.582L161.371 261.571L161.377 261.58L161.387 261.575L161.392 261.584L161.402 261.579L161.407 261.588L161.417 261.583L161.423 261.592L161.432 261.587L161.438 261.597L161.457 261.585L161.463 261.595L161.472 261.59L161.478 261.599L161.488 261.594L161.493 261.603L161.503 261.598L161.508 261.607L161.528 261.596L161.533 261.606L161.543 261.6L161.549 261.61L161.558 261.604L161.564 261.614L161.573 261.608L161.579 261.618L161.589 261.612L161.594 261.622L161.614 261.611L161.619 261.621L161.629 261.615L161.634 261.625L161.644 261.619L161.65 261.629L161.659 261.623L161.665 261.633L161.674 261.627L161.68 261.637L161.699 261.626L161.705 261.635L161.715 261.63L161.72 261.64L161.73 261.634L161.735 261.644L161.745 261.638L161.751 261.648L161.76 261.642L161.766 261.652L161.785 261.641L161.791 261.65L161.8 261.645L161.806 261.654L161.816 261.649L161.821 261.658L161.831 261.653L161.836 261.663L161.846 261.657L161.852 261.667L161.861 261.661L161.867 261.671L161.876 261.665L161.882 261.675L161.892 261.669L161.897 261.679L161.907 261.673L161.912 261.683L161.922 261.677L161.928 261.687L161.937 261.681L161.943 261.691L161.953 261.686L161.958 261.695L161.977 261.684L161.983 261.694L161.993 261.688L161.998 261.698L162.008 261.692L162.013 261.702L162.023 261.696L162.029 261.706L162.038 261.7L162.044 261.71L162.054 261.704L162.059 261.714L162.069 261.709L162.074 261.718L162.084 261.713L162.09 261.722L162.099 261.717L162.105 261.726L162.114 261.721L162.12 261.73L162.13 261.725L162.135 261.734L162.145 261.729L162.15 261.739L162.16 261.733L162.166 261.743L162.185 261.731L162.191 261.741L162.2 261.736L162.206 261.745L162.215 261.74L162.221 261.749L162.231 261.744L162.236 261.753L162.246 261.748L162.251 261.757L162.261 261.752L162.267 261.762L162.276 261.756L162.282 261.766L162.292 261.76L162.297 261.77L162.307 261.764L162.312 261.774L162.322 261.768L162.328 261.778L162.337 261.772L162.343 261.782L162.352 261.776L162.358 261.786L162.377 261.775L162.383 261.785L162.393 261.779L162.398 261.789L162.408 261.783L162.413 261.793L162.423 261.787L162.429 261.797L162.438 261.791L162.444 261.801L162.453 261.795L162.459 261.805L162.469 261.799L162.474 261.809L162.484 261.803L162.49 261.813L162.499 261.808L162.505 261.817L162.514 261.812L162.52 261.821L162.53 261.816L162.535 261.825L162.545 261.82L162.55 261.829L162.56 261.824L162.566 261.833L162.575 261.828L162.581 261.838L162.591 261.832L162.596 261.842L162.606 261.836L162.611 261.846L162.621 261.84L162.627 261.85L162.636 261.844L162.642 261.854L162.651 261.848L162.657 261.858L162.667 261.852L162.672 261.862L162.682 261.856L162.687 261.866L162.697 261.861L162.703 261.87L162.712 261.865L162.718 261.874L162.728 261.869L162.733 261.878L162.743 261.873L162.748 261.882L162.758 261.877L162.764 261.887L162.773 261.881L162.779 261.891L162.788 261.885L162.794 261.895L162.804 261.889L162.809 261.899L162.819 261.893L162.824 261.903L162.834 261.897L162.84 261.907L162.849 261.901L162.855 261.911L162.865 261.905L162.876 261.925L162.885 261.919L162.891 261.929L162.901 261.923L162.906 261.933L162.916 261.927L162.921 261.937L162.931 261.931L162.937 261.941L162.946 261.935L162.952 261.945L162.961 261.94L162.967 261.949L162.977 261.944L162.982 261.953L162.992 261.948L162.998 261.957L163.007 261.952L163.013 261.961L163.022 261.956L163.028 261.966L163.038 261.96L163.043 261.97L163.053 261.964L163.058 261.974L163.068 261.968L163.074 261.978L163.083 261.972L163.089 261.982L163.099 261.976L163.104 261.986L163.114 261.98L163.119 261.99L163.129 261.984L163.135 261.994L163.144 261.989L163.15 261.998L163.159 261.993L163.165 262.002L163.175 261.997L163.18 262.006L163.19 262.001L163.195 262.01L163.205 262.005L163.211 262.014L163.22 262.009L163.226 262.019L163.236 262.013L163.241 262.023L163.251 262.017L163.256 262.027L163.266 262.021L163.272 262.031L163.281 262.025L163.292 262.045L163.302 262.039L163.308 262.049L163.317 262.043L163.323 262.053L163.332 262.047L163.338 262.057L163.348 262.051L163.353 262.061L163.363 262.055L163.368 262.065L163.378 262.059L163.389 262.079L163.399 262.073L163.405 262.083L163.414 262.077L163.42 262.087L163.429 262.081L163.435 262.091L163.445 262.085L163.45 262.095L163.46 262.089L163.465 262.099L163.475 262.093L163.481 262.103L163.49 262.098L163.501 262.117L163.511 262.111L163.517 262.121L163.526 262.115L163.532 262.125L163.542 262.119L163.547 262.129L163.557 262.124L163.562 262.133L163.572 262.128L163.578 262.137L163.587 262.132L163.598 262.151L163.608 262.145L163.614 262.155L163.623 262.15L163.629 262.159L163.638 262.154L163.644 262.163L163.654 262.158L163.659 262.167L163.669 262.162L163.674 262.171L163.684 262.166L163.695 262.185L163.705 262.18L163.711 262.189L163.72 262.184L163.726 262.193L163.735 262.188L163.741 262.197L163.751 262.192L163.756 262.201L163.766 262.196L163.771 262.206L163.781 262.2L163.787 262.21L163.796 262.204L163.807 262.223L163.817 262.218L163.823 262.227L163.832 262.222L163.838 262.232L163.848 262.226L163.853 262.236L163.863 262.23L163.868 262.24L163.878 262.234L163.884 262.244L163.893 262.238L163.904 262.257L163.914 262.252L163.92 262.262L163.929 262.256L163.935 262.266L163.944 262.26L163.95 262.27L163.96 262.264L163.965 262.274L163.975 262.268L163.98 262.278L163.99 262.272L164.001 262.292L164.011 262.286L164.017 262.296L164.026 262.29L164.032 262.3L164.041 262.294L164.047 262.304L164.057 262.298L164.068 262.318L164.077 262.312L164.083 262.322L164.093 262.316L164.098 262.326L164.108 262.32L164.113 262.33L164.123 262.324L164.134 262.344L164.144 262.338L164.149 262.348L164.159 262.342L164.165 262.352L164.174 262.346L164.185 262.365L164.195 262.36L164.201 262.37L164.21 262.364L164.216 262.374L164.226 262.368L164.231 262.378L164.241 262.372L164.252 262.391L164.262 262.386L164.267 262.395L164.277 262.39L164.282 262.4L164.292 262.394L164.303 262.413L164.313 262.408L164.318 262.417L164.328 262.412L164.334 262.421L164.343 262.416L164.354 262.435L164.364 262.43L164.37 262.439L164.379 262.434L164.385 262.443L164.395 262.438L164.4 262.447L164.41 262.442L164.421 262.461L164.431 262.456L164.436 262.465L164.446 262.46L164.451 262.469L164.461 262.464L164.472 262.483L164.482 262.477L164.487 262.487L164.497 262.482L164.503 262.491L164.512 262.486L164.518 262.495L164.528 262.49L164.539 262.509L164.548 262.503L164.554 262.513L164.564 262.508L164.569 262.517L164.579 262.512L164.59 262.531L164.6 262.525L164.605 262.535L164.615 262.529L164.62 262.539L164.63 262.534L164.636 262.543L164.645 262.538L164.656 262.557L164.666 262.551L164.672 262.561L164.681 262.555L164.687 262.565L164.696 262.559L164.708 262.579L164.717 262.573L164.723 262.583L164.733 262.577L164.738 262.587L164.748 262.581L164.759 262.601L164.769 262.595L164.774 262.605L164.784 262.599L164.789 262.609L164.799 262.603L164.81 262.623L164.82 262.617L164.825 262.627L164.835 262.621L164.846 262.64L164.856 262.635L164.861 262.644L164.871 262.639L164.882 262.658L164.892 262.653L164.897 262.662L164.907 262.657L164.918 262.676L164.928 262.67L164.933 262.68L164.943 262.675L164.949 262.684L164.958 262.679L164.969 262.698L164.979 262.692L164.985 262.702L164.994 262.696L165.005 262.716L165.015 262.71L165.021 262.72L165.03 262.714L165.041 262.734L165.051 262.728L165.057 262.738L165.066 262.732L165.078 262.751L165.087 262.746L165.093 262.755L165.102 262.75L165.108 262.759L165.118 262.754L165.129 262.773L165.138 262.768L165.144 262.777L165.154 262.772L165.165 262.791L165.174 262.785L165.18 262.795L165.19 262.79L165.201 262.809L165.21 262.803L165.216 262.813L165.226 262.807L165.237 262.827L165.246 262.821L165.252 262.831L165.262 262.825L165.267 262.835L165.277 262.829L165.288 262.849L165.298 262.843L165.303 262.853L165.313 262.847L165.324 262.866L165.334 262.861L165.339 262.87L165.349 262.865L165.36 262.884L165.37 262.879L165.375 262.888L165.385 262.883L165.396 262.902L165.406 262.896L165.411 262.906L165.421 262.9L165.427 262.91L165.436 262.905L165.447 262.924L165.457 262.918L165.463 262.928L165.472 262.922L165.483 262.942L165.493 262.936L165.504 262.955L165.514 262.95L165.519 262.959L165.529 262.954L165.54 262.973L165.55 262.968L165.555 262.977L165.565 262.972L165.576 262.991L165.586 262.985L165.597 263.005L165.607 262.999L165.612 263.009L165.622 263.003L165.633 263.023L165.643 263.017L165.648 263.027L165.658 263.021L165.669 263.04L165.679 263.035L165.69 263.054L165.7 263.049L165.705 263.058L165.715 263.053L165.726 263.072L165.736 263.066L165.747 263.086L165.756 263.08L165.762 263.09L165.772 263.084L165.783 263.103L165.792 263.098L165.798 263.108L165.808 263.102L165.819 263.121L165.828 263.116L165.84 263.135L165.849 263.129L165.855 263.139L165.864 263.134L165.876 263.153L165.885 263.147L165.891 263.157L165.9 263.151L165.912 263.171L165.921 263.165L165.932 263.184L165.942 263.179L165.948 263.188L165.957 263.183L165.968 263.202L165.978 263.197L165.984 263.206L165.993 263.201L166.004 263.22L166.014 263.214L166.025 263.234L166.035 263.228L166.04 263.238L166.05 263.232L166.061 263.252L166.071 263.246L166.082 263.265L166.092 263.26L166.097 263.269L166.107 263.264L166.118 263.283L166.128 263.278L166.133 263.287L166.143 263.282L166.154 263.301L166.164 263.295L166.175 263.315L166.185 263.309L166.196 263.328L166.205 263.323L166.211 263.332L166.221 263.327L166.232 263.346L166.241 263.341L166.253 263.36L166.262 263.354L166.273 263.374L166.283 263.368L166.294 263.387L166.304 263.382L166.309 263.391L166.319 263.386L166.33 263.405L166.34 263.4L166.351 263.419L166.361 263.413L166.372 263.433L166.381 263.427L166.393 263.446L166.402 263.441L166.408 263.45L166.417 263.445L166.429 263.464L166.438 263.459L166.449 263.478L166.459 263.472L166.47 263.492L166.48 263.486L166.491 263.505L166.501 263.5L166.506 263.509L166.516 263.504L166.527 263.523L166.537 263.518L166.548 263.537L166.557 263.531L166.569 263.551L166.578 263.545L166.589 263.564L166.599 263.559L166.605 263.568L166.614 263.563L166.625 263.582L166.635 263.577L166.646 263.596L166.656 263.59L166.667 263.61L166.677 263.604L166.688 263.623L166.697 263.618L166.709 263.637L166.718 263.632L166.724 263.641L166.734 263.636L166.745 263.655L166.754 263.649L166.765 263.669L166.775 263.663L166.786 263.682L166.796 263.677L166.807 263.696L166.817 263.691L166.822 263.7L166.832 263.695L166.843 263.714L166.853 263.708L166.864 263.728L166.874 263.722L166.885 263.741L166.894 263.736L166.905 263.755L166.915 263.75L166.926 263.769L166.936 263.763L166.947 263.783L166.957 263.777L166.968 263.796L166.978 263.791L166.989 263.81L166.998 263.805L167.009 263.824L167.019 263.818L167.03 263.838L167.04 263.832L167.051 263.851L167.061 263.846L167.072 263.865L167.082 263.859L167.093 263.879L167.102 263.873L167.119 263.902L167.129 263.897L167.14 263.916L167.149 263.91L167.161 263.93L167.17 263.924L167.181 263.943L167.191 263.938L167.202 263.957L167.212 263.951L167.223 263.971L167.233 263.965L167.244 263.985L167.253 263.979L167.265 263.998L167.274 263.993L167.285 264.012L167.295 264.006L167.306 264.026L167.316 264.02L167.327 264.039L167.337 264.034L167.348 264.053L167.357 264.048L167.369 264.067L167.378 264.061L167.389 264.081L167.399 264.075L167.41 264.094L167.42 264.089L167.431 264.108L167.441 264.103L167.452 264.122L167.461 264.116L167.473 264.136L167.482 264.13L167.493 264.149L167.503 264.144L167.514 264.163L167.524 264.157L167.535 264.177L167.545 264.171L167.561 264.2L167.571 264.195L167.582 264.214L167.592 264.208L167.603 264.228L167.613 264.222L167.629 264.251L167.639 264.245L167.65 264.265L167.66 264.259L167.671 264.278L167.681 264.273L167.692 264.292L167.701 264.287L167.718 264.316L167.728 264.31L167.739 264.329L167.749 264.324L167.76 264.343L167.769 264.337L167.786 264.366L167.796 264.361L167.807 264.38L167.817 264.375L167.828 264.394L167.837 264.388L167.848 264.408L167.858 264.402L167.875 264.431L167.884 264.425L167.896 264.445L167.905 264.439L167.916 264.458L167.926 264.453L167.943 264.482L167.952 264.476L167.964 264.496L167.973 264.49L167.984 264.509L167.994 264.504L168.011 264.533L168.02 264.527L168.032 264.546L168.041 264.541L168.052 264.56L168.062 264.555L168.073 264.574L168.083 264.568L168.1 264.597L168.109 264.592L168.12 264.611L168.13 264.605L168.141 264.625L168.151 264.619L168.167 264.648L168.177 264.643L168.188 264.662L168.198 264.656L168.215 264.685L168.224 264.68L168.235 264.699L168.245 264.693L168.262 264.722L168.271 264.717L168.283 264.736L168.292 264.731L168.309 264.759L168.319 264.754L168.335 264.783L168.345 264.777L168.356 264.797L168.366 264.791L168.383 264.82L168.392 264.814L168.409 264.843L168.419 264.838L168.43 264.857L168.439 264.852L168.456 264.88L168.466 264.875L168.477 264.894L168.487 264.889L168.503 264.918L168.513 264.912L168.53 264.941L168.539 264.935L168.55 264.955L168.56 264.949L168.577 264.978L168.586 264.973L168.598 264.992L168.607 264.986L168.624 265.015L168.634 265.01L168.65 265.039L168.66 265.033L168.671 265.052L168.681 265.047L168.697 265.076L168.707 265.07L168.718 265.089L168.728 265.084L168.745 265.113L168.754 265.107L168.771 265.136L168.781 265.131L168.792 265.15L168.801 265.144L168.818 265.173L168.828 265.168L168.845 265.197L168.854 265.191L168.871 265.22L168.881 265.215L168.897 265.243L168.907 265.238L168.924 265.267L168.933 265.261L168.95 265.29L168.96 265.285L168.976 265.314L168.986 265.308L169.003 265.337L169.012 265.331L169.029 265.36L169.039 265.355L169.056 265.384L169.065 265.378L169.082 265.407L169.092 265.402L169.108 265.431L169.118 265.425L169.135 265.454L169.144 265.448L169.161 265.477L169.171 265.472L169.187 265.501L169.197 265.495L169.214 265.524L169.223 265.519L169.24 265.547L169.25 265.542L169.267 265.571L169.276 265.565L169.293 265.594L169.303 265.589L169.319 265.618L169.329 265.612L169.346 265.641L169.355 265.635L169.372 265.664L169.382 265.659L169.398 265.688L169.408 265.682L169.425 265.711L169.434 265.706L169.451 265.735L169.461 265.729L169.477 265.758L169.487 265.752L169.509 265.791L169.519 265.785L169.536 265.814L169.545 265.809L169.568 265.847L169.577 265.842L169.594 265.871L169.604 265.865L169.626 265.904L169.636 265.898L169.652 265.927L169.662 265.922L169.684 265.96L169.694 265.955L169.711 265.984L169.72 265.978L169.743 266.017L169.752 266.011L169.769 266.04L169.779 266.034L169.801 266.073L169.811 266.068L169.827 266.096L169.837 266.091L169.859 266.13L169.869 266.124L169.886 266.153L169.895 266.147L169.918 266.186L169.927 266.18L169.944 266.209L169.954 266.204L169.976 266.242L169.986 266.237L170.002 266.266L170.012 266.26L170.029 266.289L170.038 266.284L170.061 266.322L170.07 266.317L170.093 266.355L170.102 266.35L170.125 266.388L170.134 266.383L170.156 266.421L170.166 266.416L170.188 266.454L170.198 266.449L170.226 266.497L170.236 266.491L170.258 266.53L170.268 266.524L170.29 266.563L170.299 266.558L170.322 266.596L170.331 266.591L170.354 266.629L170.363 266.624L170.386 266.662L170.395 266.657L170.418 266.695L170.427 266.69L170.45 266.728L170.459 266.723L170.481 266.761L170.491 266.756L170.519 266.804L170.529 266.798L170.551 266.837L170.561 266.831L170.583 266.87L170.593 266.864L170.615 266.903L170.624 266.898L170.647 266.936L170.656 266.931L170.684 266.979L170.694 266.973L170.722 267.022L170.731 267.016L170.759 267.064L170.769 267.059L170.797 267.107L170.806 267.101L170.834 267.15L170.844 267.144L170.872 267.192L170.882 267.187L170.909 267.235L170.919 267.229L170.947 267.278L170.957 267.272L170.984 267.32L170.994 267.315L171.022 267.363L171.032 267.357L171.059 267.406L171.069 267.4L171.091 267.439L171.101 267.433L171.129 267.481L171.139 267.476L171.166 267.524L171.176 267.519L171.204 267.567L171.214 267.561L171.247 267.619L171.257 267.614L171.29 267.672L171.3 267.666L171.333 267.724L171.343 267.718L171.382 267.786L171.392 267.78L171.425 267.838L171.435 267.833L171.468 267.891L171.478 267.885L171.511 267.943L171.521 267.937L171.554 267.995L171.564 267.99L171.597 268.048L171.607 268.042L171.646 268.11L171.656 268.104L171.689 268.162L171.699 268.156L171.732 268.214L171.742 268.209L171.775 268.267L171.785 268.261L171.829 268.338L171.839 268.333L171.884 268.41L171.893 268.404L171.938 268.482L171.948 268.476L171.992 268.553L172.002 268.548L172.052 268.634L172.062 268.629L172.106 268.706L172.116 268.701L172.16 268.778L172.17 268.772L172.215 268.849L172.224 268.844L172.269 268.921L172.279 268.915L172.329 269.002L172.338 268.997L172.4 269.103L172.409 269.097L172.476 269.213L172.486 269.208L172.547 269.314L172.557 269.308L172.624 269.424L172.633 269.419L172.695 269.525L172.704 269.519L172.771 269.635L172.781 269.629L172.853 269.755L172.863 269.749L172.969 269.933L172.978 269.927L173.09 270.12L173.1 270.115L173.205 270.298L173.215 270.292L173.327 270.485L173.336 270.48L173.581 270.905L173.591 270.899L174.02 271.642L174.011 271.648L174.256 272.073L174.246 272.078L174.358 272.271L174.348 272.277L174.459 272.47L174.45 272.475L174.556 272.659L174.546 272.664L174.652 272.848L174.642 272.853L174.715 272.979L174.705 272.984L174.772 273.1L174.762 273.106L174.823 273.212L174.814 273.217L174.881 273.333L174.871 273.339L174.932 273.445L174.923 273.451L174.99 273.566L174.98 273.572L175.041 273.678L175.032 273.684L175.082 273.771L175.072 273.776L175.117 273.853L175.107 273.859L175.152 273.936L175.142 273.942L175.187 274.019L175.177 274.025L175.221 274.102L175.212 274.107L175.262 274.194L175.252 274.2L175.297 274.277L175.287 274.283L175.332 274.36L175.322 274.365L175.367 274.443L175.357 274.448L175.402 274.525L175.392 274.531L175.425 274.589L175.416 274.595L175.449 274.652L175.44 274.658L175.473 274.716L175.463 274.721L175.502 274.789L175.493 274.795L175.526 274.853L175.517 274.858L175.55 274.916L175.54 274.922L175.574 274.98L175.564 274.985L175.598 275.043L175.588 275.049L175.627 275.116L175.617 275.122L175.651 275.18L175.641 275.185L175.674 275.243L175.665 275.249L175.698 275.307L175.689 275.312L175.722 275.37L175.712 275.376L175.74 275.424L175.731 275.43L175.758 275.478L175.749 275.483L175.777 275.532L175.767 275.537L175.795 275.585L175.785 275.591L175.808 275.63L175.798 275.635L175.826 275.683L175.816 275.689L175.844 275.737L175.834 275.743L175.862 275.791L175.853 275.797L175.88 275.845L175.871 275.851L175.899 275.899L175.889 275.904L175.917 275.953L175.907 275.958L175.935 276.006L175.925 276.012L175.953 276.06L175.944 276.066L175.971 276.114L175.962 276.12L175.99 276.168L175.98 276.174L176.002 276.212L175.993 276.218L176.015 276.256L176.005 276.262L176.028 276.301L176.018 276.306L176.04 276.345L176.031 276.35L176.058 276.399L176.049 276.404L176.071 276.443L176.061 276.448L176.084 276.487L176.074 276.492L176.096 276.531L176.087 276.537L176.109 276.575L176.099 276.581L176.122 276.619L176.112 276.625L176.134 276.664L176.125 276.669L176.147 276.708L176.137 276.713L176.16 276.752L176.15 276.758L176.178 276.806L176.168 276.811L176.19 276.85L176.181 276.856L176.203 276.894L176.193 276.9L176.216 276.938L176.206 276.944L176.228 276.983L176.219 276.988L176.241 277.027L176.231 277.032L176.248 277.061L176.238 277.067L176.261 277.105L176.251 277.111L176.268 277.14L176.258 277.146L176.28 277.184L176.271 277.19L176.287 277.219L176.278 277.224L176.294 277.253L176.285 277.259L176.307 277.297L176.297 277.303L176.314 277.332L176.305 277.338L176.327 277.376L176.317 277.382L176.334 277.411L176.324 277.416L176.347 277.455L176.337 277.46L176.354 277.489L176.344 277.495L176.366 277.534L176.357 277.539L176.373 277.568L176.364 277.574L176.386 277.612L176.376 277.618L176.393 277.647L176.383 277.652L176.406 277.691L176.396 277.697L176.413 277.726L176.403 277.731L176.425 277.77L176.416 277.775L176.432 277.804L176.423 277.81L176.439 277.839L176.43 277.844L176.447 277.873L176.437 277.879L176.454 277.908L176.444 277.913L176.461 277.942L176.451 277.948L176.468 277.977L176.458 277.982L176.475 278.011L176.465 278.017L176.482 278.046L176.472 278.052L176.489 278.08L176.479 278.086L176.496 278.115L176.486 278.121L176.503 278.15L176.493 278.155L176.51 278.184L176.5 278.19L176.517 278.219L176.508 278.224L176.524 278.253L176.515 278.259L176.531 278.288L176.522 278.293L176.538 278.322L176.529 278.328L176.545 278.357L176.536 278.362L176.553 278.391L176.543 278.397L176.56 278.426L176.55 278.431L176.567 278.46L176.557 278.466L176.574 278.495L176.564 278.5L176.581 278.529L176.571 278.535L176.588 278.564L176.578 278.569L176.595 278.598L176.585 278.604L176.602 278.633L176.592 278.639L176.609 278.667L176.599 278.673L176.611 278.692L176.601 278.698L176.618 278.727L176.608 278.732L176.625 278.761L176.615 278.767L176.626 278.786L176.617 278.792L176.633 278.821L176.624 278.826L176.635 278.846L176.625 278.851L176.642 278.88L176.632 278.886L176.649 278.915L176.639 278.92L176.65 278.94L176.641 278.945L176.657 278.974L176.648 278.98L176.659 278.999L176.649 279.005L176.666 279.034L176.656 279.039L176.673 279.068L176.663 279.074L176.675 279.093L176.665 279.099L176.682 279.128L176.672 279.133L176.689 279.162L176.679 279.168L176.69 279.187L176.681 279.193L176.697 279.221L176.688 279.227L176.699 279.246L176.689 279.252L176.706 279.281L176.696 279.286L176.713 279.315L176.703 279.321L176.714 279.34L176.705 279.346L176.721 279.375L176.712 279.38L176.723 279.4L176.713 279.405L176.73 279.434L176.72 279.44L176.731 279.459L176.722 279.465L176.739 279.494L176.729 279.499L176.74 279.519L176.73 279.524L176.742 279.543L176.732 279.549L176.749 279.578L176.739 279.583L176.75 279.603L176.74 279.608L176.752 279.628L176.742 279.633L176.759 279.662L176.749 279.668L176.76 279.687L176.75 279.693L176.762 279.712L176.752 279.718L176.763 279.737L176.753 279.742L176.77 279.771L176.761 279.777L176.772 279.796L176.762 279.802L176.773 279.821L176.764 279.827L176.78 279.856L176.771 279.861L176.782 279.881L176.772 279.886L176.783 279.905L176.774 279.911L176.785 279.93L176.775 279.936L176.792 279.965L176.782 279.97L176.793 279.99L176.784 279.995L176.795 280.015L176.785 280.02L176.802 280.049L176.792 280.055L176.803 280.074L176.794 280.08L176.805 280.099L176.795 280.104L176.812 280.133L176.802 280.139L176.813 280.158L176.804 280.164L176.815 280.183L176.805 280.189L176.816 280.208L176.807 280.214L176.823 280.243L176.814 280.248L176.825 280.267L176.815 280.273L176.826 280.292L176.817 280.298L176.828 280.317L176.818 280.323L176.829 280.342L176.82 280.348L176.831 280.367L176.821 280.373L176.832 280.392L176.823 280.397L176.834 280.417L176.824 280.422L176.835 280.442L176.826 280.447L176.837 280.466L176.827 280.472L176.838 280.491L176.829 280.497L176.84 280.516L176.83 280.522L176.841 280.541L176.832 280.547L176.843 280.566L176.833 280.572L176.844 280.591L176.835 280.596L176.846 280.616L176.836 280.621L176.847 280.641L176.838 280.646L176.849 280.665L176.839 280.671L176.85 280.69L176.841 280.696L176.857 280.725L176.848 280.73L176.859 280.75L176.849 280.755L176.86 280.775L176.851 280.78L176.862 280.8L176.852 280.805L176.863 280.824L176.854 280.83L176.865 280.849L176.855 280.855L176.866 280.874L176.857 280.88L176.868 280.899L176.858 280.905L176.869 280.924L176.86 280.929L176.871 280.949L176.861 280.954L176.872 280.974L176.863 280.979L176.874 280.999L176.864 281.004L176.875 281.023L176.866 281.029L176.877 281.048L176.867 281.054L176.878 281.073L176.869 281.079L176.88 281.098L176.87 281.104L176.881 281.123L176.872 281.128L176.877 281.138L176.868 281.144L176.879 281.163L176.869 281.169L176.88 281.188L176.871 281.193L176.882 281.213L176.872 281.218L176.883 281.238L176.874 281.243L176.879 281.253L176.869 281.258L176.881 281.278L176.871 281.283L176.882 281.303L176.872 281.308L176.884 281.328L176.874 281.333L176.885 281.352L176.875 281.358L176.881 281.368L176.871 281.373L176.882 281.392L176.873 281.398L176.884 281.417L176.874 281.423L176.885 281.442L176.876 281.448L176.887 281.467L176.877 281.473L176.883 281.482L176.873 281.488L176.884 281.507L176.875 281.513L176.886 281.532L176.876 281.538L176.887 281.557L176.878 281.563L176.889 281.582L176.879 281.587L176.885 281.597L176.875 281.603L176.886 281.622L176.877 281.628L176.888 281.647L176.878 281.652L176.889 281.672L176.88 281.677L176.891 281.697L176.881 281.702L176.892 281.721L176.883 281.727L176.888 281.737L176.879 281.742L176.89 281.762L176.88 281.767L176.891 281.786L176.881 281.792L176.893 281.811L176.883 281.817L176.894 281.836L176.884 281.842L176.89 281.851L176.88 281.857L176.892 281.876L176.882 281.882L176.893 281.901L176.883 281.907L176.889 281.916L176.879 281.922L176.89 281.941L176.881 281.947L176.892 281.966L176.882 281.972L176.888 281.981L176.878 281.987L176.889 282.006L176.88 282.012L176.885 282.022L176.876 282.027L176.887 282.046L176.877 282.052L176.888 282.071L176.879 282.077L176.884 282.086L176.875 282.092L176.886 282.111L176.876 282.117L176.882 282.127L176.872 282.132L176.883 282.151L176.873 282.157L176.885 282.176L176.875 282.182L176.881 282.192L176.871 282.197L176.882 282.216L176.872 282.222L176.878 282.232L176.868 282.237L176.879 282.257L176.87 282.262L176.881 282.281L176.871 282.287L176.877 282.297L176.867 282.302L176.878 282.322L176.869 282.327L176.88 282.346L176.87 282.352L176.876 282.362L176.866 282.367L176.877 282.387L176.868 282.392L176.873 282.402L176.863 282.407L176.875 282.427L176.865 282.432L176.876 282.451L176.866 282.457L176.872 282.467L176.862 282.472L176.874 282.492L176.864 282.497L176.869 282.507L176.86 282.512L176.871 282.532L176.861 282.537L176.872 282.557L176.863 282.562L176.868 282.572L176.859 282.577L176.87 282.597L176.86 282.602L176.871 282.622L176.862 282.627L176.867 282.637L176.858 282.642L176.869 282.662L176.859 282.667L176.865 282.677L176.855 282.682L176.866 282.702L176.857 282.707L176.862 282.717L176.852 282.723L176.864 282.742L176.854 282.747L176.86 282.757L176.85 282.763L176.855 282.772L176.846 282.778L176.857 282.797L176.847 282.803L176.853 282.812L176.843 282.818L176.854 282.837L176.845 282.843L176.85 282.853L176.841 282.858L176.852 282.877L176.842 282.883L176.848 282.893L176.838 282.898L176.849 282.918L176.84 282.923L176.845 282.933L176.835 282.938L176.841 282.948L176.831 282.954L176.843 282.973L176.833 282.978L176.838 282.988L176.829 282.994L176.84 283.013L176.83 283.019L176.836 283.028L176.826 283.034L176.837 283.053L176.828 283.059L176.833 283.068L176.824 283.074L176.835 283.093L176.825 283.099L176.831 283.108L176.821 283.114L176.827 283.124L176.817 283.129L176.828 283.148L176.818 283.154L176.824 283.164L176.814 283.169L176.825 283.189L176.816 283.194L176.821 283.204L176.812 283.209L176.823 283.229L176.813 283.234L176.819 283.244L176.809 283.249L176.815 283.259L176.805 283.265L176.816 283.284L176.807 283.29L176.812 283.299L176.803 283.305L176.814 283.324L176.804 283.33L176.81 283.339L176.8 283.345L176.811 283.364L176.801 283.37L176.807 283.379L176.797 283.385L176.808 283.404L176.799 283.41L176.804 283.42L176.795 283.425L176.8 283.435L176.791 283.44L176.802 283.46L176.792 283.465L176.798 283.475L176.788 283.48L176.794 283.49L176.784 283.496L176.795 283.515L176.786 283.521L176.791 283.53L176.781 283.536L176.787 283.545L176.777 283.551L176.788 283.57L176.779 283.576L176.784 283.586L176.775 283.591L176.78 283.601L176.771 283.606L176.776 283.616L176.767 283.622L176.778 283.641L176.768 283.646L176.774 283.656L176.764 283.662L176.77 283.671L176.76 283.677L176.771 283.696L176.761 283.702L176.767 283.711L176.757 283.717L176.763 283.727L176.753 283.732L176.764 283.752L176.755 283.757L176.76 283.767L176.751 283.772L176.756 283.782L176.747 283.788L176.752 283.797L176.743 283.803L176.754 283.822L176.744 283.828L176.75 283.837L176.74 283.843L176.746 283.853L176.736 283.858L176.747 283.877L176.737 283.883L176.743 283.893L176.733 283.898L176.739 283.908L176.729 283.913L176.735 283.923L176.725 283.929L176.736 283.948L176.727 283.954L176.732 283.963L176.723 283.969L176.728 283.978L176.718 283.984L176.73 284.003L176.72 284.009L176.726 284.019L176.716 284.024L176.721 284.034L176.712 284.039L176.723 284.059L176.713 284.064L176.719 284.074L176.709 284.079L176.715 284.089L176.705 284.095L176.711 284.104L176.701 284.11L176.712 284.129L176.703 284.135L176.708 284.144L176.698 284.15L176.704 284.16L176.694 284.165L176.706 284.184L176.696 284.19L176.701 284.2L176.692 284.205L176.697 284.215L176.688 284.221L176.693 284.23L176.684 284.236L176.695 284.255L176.685 284.261L176.691 284.27L176.681 284.276L176.687 284.285L176.677 284.291L176.683 284.301L176.673 284.306L176.678 284.316L176.669 284.322L176.674 284.331L176.665 284.337L176.676 284.356L176.666 284.362L176.672 284.371L176.662 284.377L176.668 284.387L176.658 284.392L176.664 284.402L176.654 284.407L176.66 284.417L176.65 284.423L176.655 284.432L176.646 284.438L176.651 284.447L176.642 284.453L176.653 284.472L176.643 284.478L176.649 284.488L176.639 284.493L176.645 284.503L176.635 284.508L176.641 284.518L176.631 284.524L176.637 284.533L176.627 284.539L176.632 284.548L176.623 284.554L176.634 284.573L176.624 284.579L176.63 284.589L176.62 284.594L176.626 284.604L176.616 284.609L176.622 284.619L176.612 284.625L176.618 284.634L176.608 284.64L176.614 284.649L176.604 284.655L176.609 284.665L176.6 284.67L176.611 284.69L176.601 284.695L176.607 284.705L176.597 284.71L176.603 284.72L176.593 284.726L176.599 284.735L176.589 284.741L176.595 284.75L176.585 284.756L176.591 284.766L176.581 284.771L176.592 284.791L176.582 284.796L176.588 284.806L176.578 284.811L176.584 284.821L176.574 284.827L176.58 284.836L176.57 284.842L176.576 284.851L176.566 284.857L176.572 284.867L176.562 284.872L176.573 284.892L176.564 284.897L176.569 284.907L176.559 284.912L176.565 284.922L176.555 284.928L176.561 284.937L176.551 284.943L176.557 284.952L176.547 284.958L176.553 284.968L176.543 284.973L176.549 284.983L176.539 284.988L176.55 285.008L176.541 285.013L176.546 285.023L176.536 285.029L176.542 285.038L176.532 285.044L176.538 285.053L176.528 285.059L176.534 285.069L176.524 285.074L176.53 285.084L176.52 285.089L176.526 285.099L176.516 285.105L176.522 285.114L176.512 285.12L176.518 285.13L176.508 285.135L176.513 285.145L176.504 285.15L176.509 285.16L176.5 285.166L176.505 285.175L176.496 285.181L176.501 285.19L176.492 285.196L176.497 285.206L176.488 285.211L176.493 285.221L176.483 285.226L176.489 285.236L176.479 285.242L176.485 285.251L176.475 285.257L176.481 285.267L176.471 285.272L176.477 285.282L176.467 285.287L176.473 285.297L176.463 285.303L176.469 285.312L176.459 285.318L176.465 285.327L176.455 285.333L176.46 285.343L176.451 285.348L176.456 285.358L176.447 285.364L176.452 285.373L176.443 285.379L176.454 285.398L176.444 285.404L176.45 285.413L176.44 285.419L176.446 285.428L176.436 285.434L176.442 285.444L176.432 285.449L176.437 285.459L176.428 285.465L176.433 285.474L176.424 285.48L176.429 285.489L176.42 285.495L176.425 285.505L176.416 285.51L176.421 285.52L176.411 285.525L176.417 285.535L176.407 285.541L176.413 285.55L176.403 285.556L176.409 285.566L176.399 285.571L176.405 285.581L176.395 285.586L176.401 285.596L176.391 285.602L176.397 285.611L176.387 285.617L176.393 285.626L176.383 285.632L176.388 285.642L176.379 285.647L176.384 285.657L176.375 285.662L176.38 285.672L176.371 285.678L176.376 285.687L176.367 285.693L176.372 285.703L176.363 285.708L176.368 285.718L176.358 285.723L176.364 285.733L176.354 285.739L176.36 285.748L176.35 285.754L176.356 285.763L176.346 285.769L176.352 285.779L176.342 285.784L176.348 285.794L176.338 285.799L176.344 285.809L176.334 285.815L176.34 285.824L176.33 285.83L176.335 285.84L176.326 285.845L176.331 285.855L176.322 285.86L176.327 285.87L176.318 285.876L176.323 285.885L176.314 285.891L176.319 285.9L176.309 285.906L176.315 285.916L176.305 285.921L176.311 285.931L176.292 285.942L176.297 285.952L176.288 285.957L176.293 285.967L176.284 285.973L176.289 285.982L176.279 285.988L176.285 285.997L176.275 286.003L176.281 286.013L176.271 286.018L176.277 286.028L176.267 286.033L176.273 286.043L176.263 286.049L176.269 286.058L176.259 286.064L176.265 286.074L176.255 286.079L176.261 286.089L176.251 286.094L176.256 286.104L176.247 286.11L176.252 286.119L176.243 286.125L176.248 286.134L176.229 286.146L176.235 286.155L176.225 286.161L176.23 286.17L176.221 286.176L176.226 286.186L176.217 286.191L176.222 286.201L176.213 286.206L176.218 286.216L176.209 286.222L176.214 286.231L176.205 286.237L176.21 286.247L176.2 286.252L176.206 286.262L176.196 286.267L176.202 286.277L176.192 286.283L176.198 286.292L176.188 286.298L176.194 286.307L176.184 286.313L176.19 286.323L176.17 286.334L176.176 286.344L176.166 286.349L176.172 286.359L176.162 286.364L176.168 286.374L176.158 286.38L176.164 286.389L176.154 286.395L176.16 286.404L176.15 286.41L176.156 286.42L176.146 286.425L176.151 286.435L176.142 286.44L176.147 286.45L176.138 286.456L176.143 286.465L176.134 286.471L176.139 286.481L176.13 286.486L176.135 286.496L176.126 286.501L176.131 286.511L176.112 286.522L176.117 286.532L176.108 286.537L176.113 286.547L176.104 286.553L176.109 286.562L176.1 286.568L176.105 286.577L176.095 286.583L176.101 286.593L176.082 286.604L176.087 286.613L176.078 286.619L176.083 286.629L176.074 286.634L176.079 286.644L176.069 286.65L176.075 286.659L176.065 286.665L176.071 286.674L176.052 286.686L176.057 286.695L176.048 286.701L176.053 286.71L176.044 286.716L176.049 286.726L176.039 286.731L176.045 286.741L176.026 286.752L176.031 286.762L176.022 286.767L176.027 286.777L176.018 286.782L176.023 286.792L176.013 286.798L176.019 286.807L176.009 286.813L176.015 286.823L175.996 286.834L176.001 286.843L175.992 286.849L175.997 286.859L175.987 286.864L175.993 286.874L175.983 286.879L175.989 286.889L175.979 286.895L175.985 286.904L175.966 286.915L175.971 286.925L175.962 286.931L175.967 286.94L175.957 286.946L175.963 286.956L175.953 286.961L175.959 286.971L175.94 286.982L175.945 286.992L175.936 286.997L175.941 287.007L175.931 287.012L175.937 287.022L175.927 287.028L175.933 287.037L175.923 287.043L175.929 287.052L175.91 287.064L175.915 287.073L175.906 287.079L175.911 287.088L175.901 287.094L175.907 287.104L175.897 287.109L175.903 287.119L175.893 287.124L175.899 287.134L175.88 287.145L175.885 287.155L175.875 287.16L175.881 287.17L175.871 287.176L175.877 287.185L175.867 287.191L175.873 287.201L175.863 287.206L175.869 287.216L175.849 287.227L175.855 287.237L175.845 287.242L175.851 287.252L175.841 287.257L175.847 287.267L175.828 287.278L175.833 287.288L175.824 287.293L175.829 287.303L175.819 287.309L175.825 287.318L175.806 287.329L175.811 287.339L175.802 287.345L175.807 287.354L175.798 287.36L175.803 287.37L175.784 287.381L175.789 287.39L175.78 287.396L175.785 287.406L175.766 287.417L175.772 287.426L175.762 287.432L175.767 287.442L175.758 287.447L175.763 287.457L175.744 287.468L175.75 287.478L175.74 287.483L175.746 287.493L175.736 287.498L175.742 287.508L175.722 287.519L175.728 287.529L175.718 287.534L175.724 287.544L175.714 287.55L175.72 287.559L175.7 287.57L175.706 287.58L175.696 287.586L175.702 287.595L175.683 287.607L175.688 287.616L175.678 287.622L175.684 287.631L175.674 287.637L175.68 287.647L175.661 287.658L175.666 287.667L175.657 287.673L175.662 287.683L175.652 287.688L175.658 287.698L175.639 287.709L175.644 287.719L175.635 287.724L175.64 287.734L175.631 287.739L175.636 287.749L175.617 287.76L175.622 287.77L175.613 287.775L175.618 287.785L175.599 287.796L175.605 287.806L175.595 287.812L175.601 287.821L175.591 287.827L175.596 287.836L175.577 287.848L175.583 287.857L175.573 287.863L175.579 287.872L175.569 287.878L175.575 287.888L175.555 287.899L175.561 287.908L175.551 287.914L175.557 287.924L175.547 287.929L175.553 287.939L175.533 287.95L175.539 287.96L175.529 287.965L175.535 287.975L175.516 287.986L175.521 287.996L175.511 288.001L175.517 288.011L175.498 288.022L175.503 288.032L175.494 288.037L175.499 288.047L175.48 288.058L175.485 288.068L175.466 288.079L175.472 288.089L175.462 288.094L175.468 288.104L175.448 288.115L175.454 288.125L175.444 288.13L175.45 288.14L175.431 288.151L175.436 288.161L175.426 288.166L175.432 288.176L175.413 288.187L175.418 288.197L175.409 288.202L175.414 288.212L175.395 288.223L175.401 288.233L175.391 288.238L175.396 288.248L175.377 288.259L175.383 288.269L175.363 288.28L175.369 288.289L175.359 288.295L175.365 288.305L175.346 288.316L175.351 288.325L175.342 288.331L175.347 288.341L175.328 288.352L175.333 288.362L175.324 288.367L175.329 288.377L175.31 288.388L175.316 288.398L175.306 288.403L175.311 288.413L175.292 288.424L175.298 288.434L175.288 288.439L175.294 288.449L175.274 288.46L175.28 288.47L175.261 288.481L175.266 288.49L175.257 288.496L175.262 288.506L175.243 288.517L175.248 288.526L175.239 288.532L175.244 288.542L175.225 288.553L175.231 288.562L175.221 288.568L175.226 288.578L175.207 288.589L175.213 288.598L175.203 288.604L175.209 288.614L175.189 288.625L175.195 288.634L175.185 288.64L175.191 288.65L175.172 288.661L175.177 288.67L175.158 288.682L175.163 288.691L175.154 288.697L175.159 288.707L175.14 288.718L175.146 288.727L175.126 288.738L175.132 288.748L175.113 288.759L175.118 288.769L175.108 288.774L175.114 288.784L175.095 288.795L175.1 288.805L175.081 288.816L175.087 288.826L175.067 288.837L175.073 288.847L175.054 288.858L175.059 288.867L175.049 288.873L175.055 288.883L175.036 288.894L175.041 288.903L175.022 288.915L175.028 288.924L175.008 288.935L175.014 288.945L175.004 288.951L175.01 288.96L174.99 288.971L174.996 288.981L174.977 288.992L174.982 289.002L174.963 289.013L174.969 289.023L174.959 289.028L174.964 289.038L174.945 289.049L174.951 289.059L174.931 289.07L174.937 289.079L174.918 289.091L174.923 289.1L174.914 289.106L174.919 289.115L174.9 289.127L174.905 289.136L174.886 289.147L174.892 289.157L174.872 289.168L174.878 289.178L174.859 289.189L174.864 289.199L174.855 289.204L174.86 289.214L174.841 289.225L174.846 289.235L174.827 289.246L174.833 289.255L174.813 289.267L174.819 289.276L174.809 289.282L174.815 289.291L174.796 289.303L174.801 289.312L174.782 289.323L174.787 289.333L174.768 289.344L174.774 289.354L174.764 289.359L174.77 289.369L174.75 289.38L174.756 289.39L174.737 289.401L174.742 289.411L174.723 289.422L174.728 289.431L174.699 289.448L174.705 289.458L174.686 289.469L174.691 289.479L174.672 289.49L174.678 289.499L174.658 289.511L174.664 289.52L174.645 289.531L174.65 289.541L174.631 289.552L174.636 289.562L174.617 289.573L174.623 289.583L174.603 289.594L174.609 289.603L174.59 289.615L174.595 289.624L174.576 289.635L174.581 289.645L174.562 289.656L174.568 289.666L174.548 289.677L174.554 289.687L174.535 289.698L174.54 289.707L174.521 289.719L174.527 289.728L174.507 289.739L174.513 289.749L174.493 289.76L174.499 289.77L174.48 289.781L174.485 289.791L174.466 289.802L174.472 289.811L174.452 289.823L174.458 289.832L174.439 289.843L174.444 289.853L174.425 289.864L174.43 289.874L174.411 289.885L174.417 289.895L174.397 289.906L174.403 289.915L174.384 289.927L174.389 289.936L174.37 289.947L174.375 289.957L174.356 289.968L174.362 289.978L174.342 289.989L174.348 289.999L174.329 290.01L174.334 290.019L174.315 290.031L174.321 290.04L174.292 290.057L174.297 290.067L174.278 290.078L174.283 290.087L174.264 290.099L174.27 290.108L174.241 290.125L174.246 290.135L174.227 290.146L174.233 290.155L174.213 290.166L174.219 290.176L174.19 290.193L174.195 290.202L174.176 290.214L174.182 290.223L174.153 290.24L174.158 290.25L174.139 290.261L174.145 290.27L174.125 290.282L174.131 290.291L174.102 290.308L174.108 290.318L174.088 290.329L174.094 290.338L174.074 290.35L174.08 290.359L174.051 290.376L174.057 290.386L174.037 290.397L174.043 290.406L174.014 290.423L174.02 290.433L174 290.444L174.006 290.454L173.987 290.465L173.992 290.474L173.963 290.491L173.969 290.501L173.949 290.512L173.955 290.522L173.936 290.533L173.941 290.542L173.912 290.559L173.918 290.569L173.899 290.58L173.904 290.59L173.885 290.601L173.89 290.61L173.861 290.627L173.867 290.637L173.848 290.648L173.853 290.657L173.824 290.674L173.83 290.684L173.811 290.695L173.816 290.705L173.787 290.721L173.793 290.731L173.764 290.748L173.769 290.757L173.75 290.769L173.756 290.778L173.727 290.795L173.732 290.805L173.703 290.821L173.709 290.831L173.68 290.848L173.685 290.857L173.657 290.874L173.662 290.884L173.643 290.895L173.648 290.904L173.619 290.921L173.625 290.931L173.596 290.948L173.602 290.957L173.573 290.974L173.578 290.984L173.549 291L173.555 291.01L173.536 291.021L173.541 291.031L173.512 291.047L173.518 291.057L173.489 291.074L173.494 291.083L173.465 291.1L173.471 291.11L173.442 291.127L173.448 291.136L173.428 291.147L173.434 291.157L173.405 291.174L173.41 291.183L173.381 291.2L173.387 291.21L173.358 291.226L173.364 291.236L173.335 291.253L173.34 291.263L173.321 291.274L173.327 291.283L173.298 291.3L173.303 291.31L173.274 291.326L173.28 291.336L173.251 291.353L173.256 291.362L173.218 291.385L173.223 291.394L173.194 291.411L173.2 291.421L173.161 291.443L173.167 291.453L173.138 291.469L173.144 291.479L173.115 291.496L173.12 291.505L173.082 291.528L173.087 291.537L173.058 291.554L173.064 291.564L173.025 291.586L173.031 291.596L173.002 291.612L173.007 291.622L172.978 291.639L172.984 291.648L172.945 291.671L172.951 291.68L172.922 291.697L172.928 291.707L172.889 291.729L172.894 291.739L172.866 291.755L172.871 291.765L172.842 291.782L172.848 291.791L172.809 291.814L172.815 291.823L172.786 291.84L172.791 291.85L172.753 291.872L172.758 291.882L172.729 291.898L172.735 291.908L172.706 291.925L172.712 291.934L172.673 291.957L172.678 291.966L172.64 291.989L172.645 291.998L172.607 292.021L172.612 292.03L172.564 292.058L172.57 292.068L172.531 292.09L172.537 292.1L172.498 292.122L172.504 292.132L172.465 292.154L172.471 292.164L172.422 292.191L172.428 292.201L172.389 292.223L172.395 292.233L172.356 292.255L172.362 292.265L172.323 292.287L172.329 292.297L172.281 292.325L172.286 292.334L172.247 292.357L172.253 292.366L172.214 292.389L172.22 292.398L172.181 292.421L172.187 292.43L172.139 292.458L172.144 292.468L172.106 292.49L172.111 292.5L172.073 292.522L172.078 292.532L172.03 292.56L172.036 292.569L171.987 292.597L171.993 292.607L171.935 292.64L171.941 292.65L171.883 292.683L171.888 292.693L171.84 292.721L171.845 292.73L171.788 292.764L171.793 292.774L171.745 292.801L171.75 292.811L171.693 292.844L171.698 292.854L171.64 292.888L171.646 292.897L171.597 292.925L171.603 292.935L171.545 292.968L171.551 292.978L171.502 293.006L171.508 293.015L171.45 293.049L171.456 293.058L171.398 293.092L171.403 293.102L171.355 293.129L171.361 293.139L171.283 293.184L171.289 293.193L171.212 293.238L171.217 293.248L171.13 293.298L171.136 293.307L171.059 293.352L171.064 293.362L170.997 293.401L171.002 293.41L170.925 293.455L170.931 293.464L170.844 293.515L170.849 293.524L170.772 293.569L170.778 293.578L170.701 293.623L170.706 293.633L170.629 293.677L170.635 293.687L170.509 293.759L170.515 293.769L170.389 293.842L170.395 293.851L170.26 293.929L170.265 293.939L170.14 294.011L170.145 294.021L170.01 294.099L170.016 294.109L169.881 294.187L169.886 294.196L169.635 294.341L169.641 294.351L169.342 294.524L169.347 294.533" fill="#0F3D8B"/>
</g>
<path d="M29.9528 334.949C34.5417 331.539 41.476 327.261 50.1099 324.605C55.1748 339.18 63.4513 352.639 74.5351 365.127L53.0266 377.545C49.5975 379.524 45.235 378.721 42.7448 375.643C37.7528 369.472 29.8542 358.818 25.9595 348.845C24.0053 343.841 25.6408 338.154 29.9528 334.949Z" fill="black"/>
<path d="M29.9528 334.949C34.5417 331.539 41.476 327.261 50.1099 324.605C55.1748 339.18 63.4513 352.639 74.5351 365.127L53.0266 377.545C49.5975 379.524 45.235 378.721 42.7448 375.643C37.7528 369.472 29.8542 358.818 25.9595 348.845C24.0053 343.841 25.6408 338.154 29.9528 334.949Z" fill="#0F3D8B"/>
<path d="M48.6605 337.552L31.9027 347.227C31.3339 347.555 30.6598 347.547 30.0993 347.204C29.5395 346.862 29.2245 346.265 29.2576 345.609C29.2716 345.334 29.5061 345.124 29.78 345.137C30.0544 345.151 30.266 345.386 30.252 345.66C30.2372 345.945 30.3746 346.206 30.6189 346.356C30.8628 346.504 31.157 346.508 31.4051 346.365L48.1628 336.69C48.5303 336.478 48.6564 336.006 48.4446 335.639L47.7558 334.446C47.5435 334.078 47.0724 333.953 46.705 334.165L29.8229 343.912C29.5849 344.049 29.2805 343.967 29.1429 343.729C29.0058 343.491 29.0872 343.187 29.3252 343.05L46.2073 333.303C47.05 332.816 48.1311 333.106 48.6177 333.949L49.3065 335.142C49.7924 335.983 49.5031 337.065 48.6605 337.552Z" fill="black"/>
<path d="M51.4574 345.834L34.6996 355.509C34.1308 355.838 33.4568 355.829 32.8962 355.486C32.3358 355.143 32.0214 354.547 32.0545 353.891C32.0692 353.617 32.3032 353.406 32.5769 353.419C32.8513 353.433 33.0624 353.667 33.0489 353.942C33.0341 354.228 33.1716 354.488 33.4153 354.637C33.6598 354.787 33.9539 354.79 34.202 354.647L50.9597 344.972C51.3272 344.76 51.4534 344.288 51.2416 343.921L50.5528 342.728C50.341 342.362 49.8694 342.235 49.5019 342.447L32.6199 352.194C32.3818 352.331 32.0775 352.25 31.9398 352.011C31.8027 351.774 31.8841 351.469 32.1222 351.332L49.0042 341.585C49.8469 341.099 50.9281 341.388 51.4146 342.231L52.1034 343.424C52.5893 344.265 52.3 345.348 51.4574 345.834Z" fill="black"/>
<path d="M61.6925 315.897C61.51 316.003 61.273 315.984 61.1088 315.834C60.9056 315.649 60.8912 315.334 61.076 315.131L125.716 244.213C125.901 244.01 126.215 243.995 126.419 244.18C126.622 244.365 126.636 244.68 126.451 244.884L61.8121 315.801C61.777 315.841 61.7359 315.872 61.6925 315.897Z" fill="white"/>
<path d="M53.5093 326.457C53.3394 326.555 53.1206 326.547 52.9559 326.42C52.7388 326.252 52.6989 325.939 52.8675 325.722L55.9812 321.703C56.1489 321.485 56.4619 321.446 56.679 321.614C56.8961 321.782 56.936 322.095 56.7674 322.312L53.6538 326.331C53.6133 326.384 53.5636 326.426 53.5093 326.457Z" fill="white"/>
<path d="M57.9651 353.666L41.2074 363.341C40.6386 363.669 39.9646 363.661 39.4041 363.318C38.8437 362.974 38.5292 362.379 38.5623 361.723C38.5763 361.448 38.8102 361.237 39.0847 361.251C39.359 361.265 39.5701 361.498 39.5561 361.773C39.5416 362.059 39.6791 362.32 39.9231 362.468C40.1676 362.618 40.4617 362.622 40.7097 362.479L57.4675 352.804C57.8349 352.592 57.961 352.12 57.7487 351.752L57.0605 350.56C56.8481 350.192 56.3771 350.066 56.0096 350.279L39.1275 360.026C38.8895 360.163 38.5852 360.081 38.4476 359.843C38.3105 359.605 38.3919 359.301 38.6299 359.164L55.512 349.417C56.3546 348.93 57.4358 349.22 57.9223 350.062L58.6106 351.254C59.0971 352.097 58.8078 353.179 57.9651 353.666Z" fill="black"/>
<path d="M65.1135 362.405L48.3558 372.08C47.7871 372.408 47.1131 372.399 46.5525 372.056C45.992 371.713 45.6777 371.118 45.7108 370.461C45.7249 370.187 45.9593 369.977 46.2331 369.99C46.5074 370.004 46.7186 370.237 46.7045 370.512C46.6901 370.798 46.8276 371.058 47.0716 371.207C47.3161 371.357 47.6102 371.361 47.8581 371.218L64.6159 361.543C64.9833 361.33 65.1095 360.859 64.8972 360.491L64.2089 359.299C63.9966 358.931 63.5255 358.805 63.158 359.017L46.276 368.764C46.038 368.902 45.7337 368.82 45.596 368.582C45.4589 368.344 45.5403 368.04 45.7784 367.902L62.6604 358.156C63.5031 357.669 64.5843 357.959 65.0708 358.801L65.7591 359.993C66.2456 360.836 65.9563 361.918 65.1135 362.405Z" fill="black"/>
<path d="M110.356 406.218C109.584 406.664 108.755 407.032 107.879 407.311C104.043 408.536 99.972 407.89 96.71 405.541L66.1488 383.526C65.9262 383.367 65.8753 383.055 66.036 382.832C66.1967 382.609 66.5076 382.559 66.7306 382.719L97.2919 404.734C100.295 406.897 104.044 407.491 107.576 406.363C111.047 405.255 113.707 402.655 114.873 399.232C114.936 399.048 114.996 398.861 115.058 398.671C115.14 398.41 115.42 398.264 115.682 398.347C115.944 398.429 116.089 398.71 116.006 398.971C115.944 399.168 115.88 399.362 115.815 399.553C114.841 402.412 112.909 404.744 110.356 406.218Z" fill="#0F3D8B"/>
<path d="M62.1788 380.298C62.0144 380.392 61.8029 380.388 61.6391 380.271L58.2295 377.814C58.0069 377.655 57.9566 377.344 58.1167 377.12C58.2773 376.898 58.5889 376.848 58.8114 377.008L62.2204 379.463C62.4434 379.624 62.4944 379.935 62.3337 380.158C62.2914 380.217 62.2379 380.263 62.1788 380.298Z" fill="black"/>
<path d="M171.109 272.239C170.885 272.368 170.596 272.303 170.448 272.086C167.728 268.061 164.466 265.772 160.756 265.282C154.337 264.435 148.67 269.271 148.614 269.32C148.404 269.502 148.092 269.478 147.912 269.271C147.732 269.064 147.754 268.748 147.962 268.569C148.207 268.357 154.029 263.391 160.885 264.295C164.891 264.823 168.385 267.258 171.273 271.529C171.427 271.757 171.367 272.065 171.139 272.22C171.129 272.226 171.119 272.233 171.109 272.239Z" fill="white"/>
<path d="M409.315 175.283C409.289 175.283 409.264 175.283 409.239 175.282L373.087 174.687C370.492 174.644 368.459 172.441 368.622 169.848L371.001 132.145C371.138 129.976 372.789 128.205 374.943 127.92L383.102 126.838L415.001 122.609L415.649 122.523C415.855 122.496 416.059 122.482 416.259 122.482C418.837 122.482 420.922 124.663 420.79 127.253C420.783 127.418 420.766 127.583 420.74 127.75L417.348 149.119L413.807 171.445C413.456 173.659 411.547 175.283 409.315 175.283ZM392.744 136.759C384.904 136.759 378.525 143.142 378.525 150.989C378.525 158.835 384.904 165.218 392.744 165.218C400.584 165.218 406.962 158.835 406.962 150.989C406.962 143.142 400.584 136.759 392.744 136.759ZM392.744 162.834C386.218 162.834 380.908 157.521 380.908 150.989C380.908 144.457 386.218 139.143 392.744 139.143C399.271 139.143 404.579 144.457 404.579 150.989C404.579 157.521 399.271 162.834 392.744 162.834ZM389.702 144.827C388.966 144.827 388.29 145.415 388.29 146.239V156.469C388.29 157.293 388.966 157.881 389.702 157.881C389.942 157.881 390.187 157.819 390.418 157.682L399.032 152.567C399.952 152.02 399.952 150.688 399.032 150.141L390.418 145.026C390.187 144.889 389.942 144.827 389.702 144.827Z" fill="black"/>
<path d="M409.315 175.283C409.289 175.283 409.264 175.283 409.239 175.282L373.087 174.687C370.492 174.644 368.459 172.441 368.622 169.848L371.001 132.145C371.138 129.976 372.789 128.205 374.943 127.92L383.102 126.838L415.001 122.609L415.649 122.523C415.855 122.496 416.059 122.482 416.259 122.482C418.837 122.482 420.922 124.663 420.79 127.253C420.783 127.418 420.766 127.583 420.74 127.75L417.348 149.119L413.807 171.445C413.456 173.659 411.547 175.283 409.315 175.283ZM392.744 136.759C384.904 136.759 378.525 143.142 378.525 150.989C378.525 158.835 384.904 165.218 392.744 165.218C400.584 165.218 406.962 158.835 406.962 150.989C406.962 143.142 400.584 136.759 392.744 136.759ZM392.744 162.834C386.218 162.834 380.908 157.521 380.908 150.989C380.908 144.457 386.218 139.143 392.744 139.143C399.271 139.143 404.579 144.457 404.579 150.989C404.579 157.521 399.271 162.834 392.744 162.834ZM389.702 144.827C388.966 144.827 388.29 145.415 388.29 146.239V156.469C388.29 157.293 388.966 157.881 389.702 157.881C389.942 157.881 390.187 157.819 390.418 157.682L399.032 152.567C399.952 152.02 399.952 150.688 399.032 150.141L390.418 145.026C390.187 144.889 389.942 144.827 389.702 144.827Z" fill="white"/>
<path d="M392.746 165.218C384.906 165.218 378.527 158.835 378.527 150.989C378.527 143.142 384.906 136.759 392.746 136.759C400.586 136.759 406.964 143.142 406.964 150.989C406.964 158.835 400.586 165.218 392.746 165.218ZM392.746 139.143C386.22 139.143 380.91 144.457 380.91 150.989C380.91 157.521 386.22 162.834 392.746 162.834C399.273 162.834 404.581 157.521 404.581 150.989C404.581 144.457 399.273 139.143 392.746 139.143Z" fill="black"/>
<path d="M392.746 165.218C384.906 165.218 378.527 158.835 378.527 150.989C378.527 143.142 384.906 136.759 392.746 136.759C400.586 136.759 406.964 143.142 406.964 150.989C406.964 158.835 400.586 165.218 392.746 165.218ZM392.746 139.143C386.22 139.143 380.91 144.457 380.91 150.989C380.91 157.521 386.22 162.834 392.746 162.834C399.273 162.834 404.581 157.521 404.581 150.989C404.581 144.457 399.273 139.143 392.746 139.143Z" fill="#0F3D8B"/>
<path d="M389.693 157.881C388.957 157.881 388.281 157.293 388.281 156.469V146.239C388.281 145.415 388.957 144.827 389.693 144.827C389.933 144.827 390.178 144.889 390.409 145.026L399.023 150.141C399.943 150.688 399.943 152.02 399.023 152.567L390.409 157.682C390.178 157.819 389.933 157.881 389.693 157.881Z" fill="black"/>
<path d="M389.693 157.881C388.957 157.881 388.281 157.293 388.281 156.469V146.239C388.281 145.415 388.957 144.827 389.693 144.827C389.933 144.827 390.178 144.889 390.409 145.026L399.023 150.141C399.943 150.688 399.943 152.02 399.023 152.567L390.409 157.682C390.178 157.819 389.933 157.881 389.693 157.881Z" fill="#0F3D8B"/>
<path d="M345.935 224.501H310.212C307.48 224.501 305.266 222.285 305.266 219.554V183.735C305.266 181.157 307.244 179.011 309.813 178.803L347.873 175.723C350.872 175.481 353.391 177.948 353.211 180.95L350.873 219.85C350.716 222.462 348.552 224.501 345.935 224.501Z" fill="black"/>
<path d="M345.935 224.501H310.212C307.48 224.501 305.266 222.285 305.266 219.554V183.735C305.266 181.157 307.244 179.011 309.813 178.803L347.873 175.723C350.872 175.481 353.391 177.948 353.211 180.95L350.873 219.85C350.716 222.462 348.552 224.501 345.935 224.501Z" fill="white"/>
<path d="M337.509 191.493C334.901 188.93 330.834 189.7 328.033 192.052C327.632 192.389 327.051 192.393 326.643 192.063C323.806 189.761 319.742 189.06 317.179 191.667C314.396 194.499 314.435 199.05 317.267 201.833L326.739 211.146C327.17 211.568 327.862 211.562 328.285 211.132L337.597 201.658C340.38 198.827 340.341 194.276 337.509 191.493Z" fill="#0F3D8B"/>
<path d="M239.939 148.306C239.939 164.179 227.071 177.048 211.198 177.048C195.326 177.048 182.457 164.179 182.457 148.306C182.457 132.434 195.326 119.565 211.198 119.565C227.071 119.565 239.939 132.434 239.939 148.306Z" fill="black"/>
<path d="M239.939 148.306C239.939 164.179 227.071 177.048 211.198 177.048C195.326 177.048 182.457 164.179 182.457 148.306C182.457 132.434 195.326 119.565 211.198 119.565C227.071 119.565 239.939 132.434 239.939 148.306Z" fill="white"/>
<path d="M204.213 138.757C204.213 138.016 203.612 137.416 202.872 137.416H198.005C197.263 137.416 196.664 138.016 196.664 138.757V159.982C196.664 160.722 197.263 161.324 198.005 161.324H202.872C203.612 161.324 204.213 160.722 204.213 159.982V138.757Z" fill="#0F3D8B"/>
<path d="M220.697 137.416H215.964V131.691C215.964 129.832 214.867 128.608 213.008 128.608H212.889C211.028 128.608 209.52 129.974 209.52 131.833L207.857 137.573C207.117 137.573 205.898 138.102 205.898 138.843V160.845C205.898 161.585 207.736 162.581 208.477 162.581H209.52H220.697C223.478 162.581 225.612 159.93 225.612 157.148V142.542C225.612 139.758 223.478 137.416 220.697 137.416Z" fill="#0F3D8B"/>
</svg>
