<svg width="298" height="251" viewBox="0 0 298 251" fill="none" xmlns="http://www.w3.org/2000/svg">
<path d="M296.829 91.653C274.274 65.5912 252.91 100.704 230.355 74.6465C230.562 85.6161 230.769 96.5817 230.991 107.547C253.538 133.613 274.913 98.4842 297.456 124.546C297.249 113.58 297.035 102.611 296.829 91.653Z" fill="#7CE3E2"/>
<path d="M227.198 149.07L226.098 72.2749L221.109 71L222.225 149.07H227.198Z" fill="#0F3D8B"/>
<path d="M206.783 179.827H173.124V203.982H139.456V228.539H106.047V250.001H241.634V153.689H206.783V179.827Z" fill="#0F3D8B"/>
<path d="M98.7917 141.172C103.633 143.015 105.027 139.834 106.461 136.39C108.216 132.176 109.801 127.831 112.14 123.935C114.376 120.194 122.212 118.482 124.329 121.501C125.834 123.645 125.163 127.756 124.44 130.75C123.813 133.4 121.712 135.687 120.354 138.181C114.722 148.563 117.172 155.958 127.896 160.915C132.122 162.857 136.395 164.7 140.613 166.678C148.834 170.538 153.342 176.519 152.317 185.885C151.992 188.879 151.622 192.398 152.901 194.856C154.176 197.291 157.222 199.483 160.102 199.046C162.552 198.669 164.919 196.751 165.066 194.213C165.547 186.202 165.908 178.017 164.593 170.161C163.938 166.316 159.967 162.575 156.654 159.719C153.417 156.916 149.116 155.299 144.851 152.916C147.623 146.172 150.22 139.834 153.298 132.339C160.439 143.944 170.587 145.044 181.906 143.634C186.163 143.11 189.496 142.681 188.824 137.391C188.177 132.315 184.753 131.541 180.567 132.502C171.19 134.663 164.8 131.239 159.947 123.316C158.493 120.945 157.341 118.149 155.089 116.349C154.355 115.766 153.445 115.352 152.5 115.376C151.614 115.404 150.788 115.809 150.006 116.21C147.809 117.33 145.847 118.911 143.707 120.023C143.56 120.091 142.392 117.211 142.194 116.615C141.796 115.44 141.367 114.24 140.561 113.271C139.064 111.448 137.189 109.907 134.874 109.347C131.887 108.609 128.69 108.593 125.628 108.358C122.351 108.108 119.039 107.953 115.77 108.358C112.998 108.704 110.305 109.546 108.061 111.242C105.611 113.081 103.84 115.686 102.334 118.327C100.078 122.311 98.2912 126.56 96.4921 130.758C96.2339 131.358 95.8725 131.926 95.6779 132.546C94.5659 136.152 94.2839 139.464 98.7917 141.172Z" fill="#0F3D8B"/>
<path d="M110.399 201.996C107.456 204.852 106.443 208.474 109.934 211.758C113.402 215.019 117.056 214.741 120.594 211.647C128.998 204.3 134.225 195.371 135.885 184.318C137.708 172.094 137.176 170.565 124.411 166.343C123.922 166.176 123.422 166.581 123.482 167.097C125.015 181.189 120.233 192.464 110.399 201.996Z" fill="#0F3D8B"/>
<path d="M147.959 108.269C153.782 108.253 158.341 101.863 158.309 93.7687C158.282 87.5769 154.874 84.4353 148.13 84.3758C141.096 84.3162 137.224 87.7397 137.363 93.9235C137.534 102.188 142.05 108.297 147.959 108.269Z" fill="#0F3D8B"/>
<path d="M76.0913 150.316C74.5622 153.247 73.605 154.935 72.771 156.679C69.7962 162.867 70.2609 164.122 76.5401 167.124C81.7588 169.618 86.9814 172.136 92.228 174.579C95.9533 176.311 98.8248 175.596 100.493 171.648C101.458 169.384 102.542 167.176 103.996 164.011C92.4782 163.451 83.2839 159.658 76.0913 150.316Z" fill="#7CE3E2"/>
<path d="M85.5824 145.26C82.2344 143.937 78.8823 143.171 77.4883 147.694C84.7484 156.702 93.9507 161.285 105.607 160.674C106.862 154.637 104.42 152.742 85.5824 145.26Z" fill="#7CE3E2"/>
<path d="M92.2742 144.236L97.7114 146.635L96.921 148.43L98.7757 149.257L99.7409 147.072C100.102 146.254 99.7329 145.301 98.9148 144.939L92.7111 142.215C91.8969 141.853 90.9397 142.223 90.5783 143.037L89.6172 145.225L91.4838 146.04L92.2742 144.236Z" fill="#0F3D8B"/>
<mask id="mask0_740_10461" style="mask-type:luminance" maskUnits="userSpaceOnUse" x="0" y="0" width="116" height="97">
<path d="M0 0H115.166V96.8308H0V0Z" fill="white"/>
</mask>
<g mask="url(#mask0_740_10461)">
<path d="M100.206 46.789C101.594 45.4014 102.393 43.5154 102.393 41.507V21.9606C102.393 17.8365 99.0392 14.4823 94.912 14.4823H74.0377L71.4116 5.55058C70.4507 2.2829 67.3949 0 63.9869 0H38.4065C34.9955 0 31.9427 2.2829 30.9818 5.55357L28.3527 14.4823H7.47837C3.35422 14.4823 0 17.8365 0 21.9606V41.507C0 44.3868 1.68905 47.0218 4.26142 48.2543V84.6494C4.26142 88.7735 7.61564 92.1278 11.7398 92.1278H73.8258C78.2454 95.2045 83.4289 96.8308 88.8362 96.8308C103.351 96.8308 115.16 85.0284 115.16 70.5193C115.16 60.3044 109.338 51.1489 100.206 46.789ZM37.7052 9.57625C38.0245 8.50791 38.9884 7.78872 40.1045 7.78872H62.2889C63.402 7.78872 64.3659 8.50791 64.6882 9.57625L66.1594 14.4823H36.234L37.7052 9.57625ZM1.82632 41.507V21.9606C1.82632 18.8451 4.36288 16.3086 7.47837 16.3086H94.912C98.0305 16.3086 100.567 18.8451 100.567 21.9606V41.507C100.567 43.2767 99.7464 44.918 98.3588 45.9863C95.3238 44.8075 92.1248 44.2077 88.8362 44.2077C83.8377 44.2077 78.9705 45.6163 74.7658 48.2811C70.7789 50.8058 67.55 54.348 65.4044 58.5348C63.9809 59.066 62.5575 59.5942 61.137 60.1254L58.0752 61.2653V56.3086C58.0752 54.3838 56.5085 52.8171 54.5837 52.8171H47.8096C45.8848 52.8171 44.3181 54.3838 44.3181 56.3086V61.2653L5.51179 46.804C5.50582 46.801 5.49985 46.798 5.49687 46.798C3.30051 45.9744 1.82632 43.8466 1.82632 41.507ZM48.6392 69.1257H53.7512C54.2555 69.1257 54.6673 68.7168 54.6673 68.2125V64.0167H56.2459V69.8956C56.2459 70.8147 55.4999 71.5578 54.5837 71.5578H47.8096C46.8905 71.5578 46.1445 70.8117 46.1445 69.8956V64.0167H47.7231V68.2125C47.7231 68.7168 48.1349 69.1257 48.6392 69.1257ZM56.2459 62.1874H46.1445V56.3086C46.1445 55.3924 46.8905 54.6464 47.8096 54.6464H54.5837C55.4999 54.6464 56.2459 55.3924 56.2459 56.3086V62.1874ZM88.8362 95.0045C83.7094 95.0045 78.7974 93.4348 74.6345 90.4686C68.1916 85.8789 64.342 78.4184 64.342 70.5193C64.342 66.7085 65.1955 63.0588 66.8726 59.6718C71.0385 51.2623 79.4539 46.037 88.8362 46.037C92.0562 46.037 95.1836 46.6518 98.1349 47.8633C107.368 51.6503 113.333 60.5432 113.333 70.5193C113.333 84.0197 102.343 95.0045 88.8362 95.0045Z" fill="#0F3D8B"/>
</g>
<path d="M105.417 56.6437C103.823 55.3366 101.463 55.5694 100.156 57.157L84.1874 76.59C83.9606 76.8675 83.6174 77.0227 83.2653 77.0197C82.9042 77.0167 82.573 76.8526 82.3492 76.5691L77.5237 70.4277C76.8105 69.5205 75.7362 69.0012 74.5813 69.0012C73.7368 69.0012 72.94 69.2788 72.2745 69.798C71.4897 70.4157 70.9913 71.302 70.875 72.2928C70.7556 73.2835 71.0301 74.2623 71.6479 75.0442L78.8248 84.1758C79.8753 85.5157 81.4599 86.2946 83.1638 86.3125C83.1847 86.3125 83.2056 86.3125 83.2265 86.3125C84.9066 86.3125 86.4793 85.5694 87.5476 84.2713L105.93 61.9018C106.479 61.2334 106.781 60.3918 106.781 59.5294C106.781 58.4074 106.285 57.3569 105.417 56.6437Z" fill="#7CE3E2"/>
</svg>
