<svg width="251" height="250" viewBox="0 0 251 250" fill="none" xmlns="http://www.w3.org/2000/svg">
<mask id="mask0_692_423" style="mask-type:luminance" maskUnits="userSpaceOnUse" x="0" y="0" width="193" height="233">
<path d="M0 0H192.122V232.959H0V0Z" fill="white"/>
</mask>
<g mask="url(#mask0_692_423)">
<rect x="3" y="2" width="186" height="229" rx="12" fill="#0F3D8B"/>
<path fill-rule="evenodd" clip-rule="evenodd" d="M177.279 232.307H14.2653C6.36712 232.307 -0.0664062 226.762 -0.0664062 219.946L-0.0633801 12.4463C-0.0633801 5.63019 6.36712 0.0820312 14.2653 0.0820312H177.279C185.18 0.0820312 191.605 5.63019 191.605 12.4463V136.39C191.605 137.606 190.624 138.595 189.405 138.595C188.188 138.595 187.202 137.606 187.202 136.39V74.4179V12.4463C187.202 8.05997 182.747 4.49265 177.279 4.49265H14.2653C8.79105 4.49265 4.3366 8.05997 4.3366 12.4463V219.946C4.3366 224.326 8.79105 227.899 14.2653 227.899H177.279C182.747 227.899 187.202 224.326 187.202 219.946V198.79C187.202 197.574 188.188 196.585 189.405 196.585C190.624 196.585 191.605 197.574 191.605 198.79V219.946C191.605 226.762 185.177 232.31 177.279 232.307Z" fill="#7CE3E2"/>
</g>
<path d="M55.6789 58.913V58.413V27.7268C55.6789 26.7858 54.9155 26.0215 53.9759 26.0215C44.749 26.0215 36.0764 29.6208 29.555 36.1549C23.0334 42.6923 19.4395 51.3805 19.4395 60.6184C19.4395 69.8623 23.0334 78.5504 29.5548 85.0847L55.6789 58.913ZM55.6789 58.913H56.1789M55.6789 58.913H56.1789M56.1789 58.913H86.8183C87.7571 58.913 88.5183 59.6765 88.5183 60.6184C88.5183 69.8623 84.9244 78.5504 78.397 85.0846L78.3967 85.0848M56.1789 58.913L78.3967 85.0848M78.3967 85.0848C71.8753 91.622 63.2057 95.2213 53.9789 95.2213C44.7491 95.2213 36.0825 91.622 29.5549 85.0847L78.3967 85.0848Z" fill="#7CE3E2" stroke="#0F3D8B"/>
<path d="M85.317 29.2234L85.3171 29.2234C91.8446 35.7608 95.4385 44.4489 95.4385 53.6867C95.4385 54.6303 94.6756 55.392 93.7355 55.392H60.8964C59.9563 55.392 59.1934 54.6303 59.1934 53.6867V20.7952C59.1934 19.8542 59.9567 19.0898 60.8964 19.0898C70.1232 19.0898 78.7957 22.6892 85.317 29.2234Z" fill="white" stroke="#0F3D8B"/>
<path d="M123.346 103.863H109.072C108.132 103.863 107.369 103.101 107.369 102.157V48.6565C107.369 47.7151 108.133 46.9512 109.069 46.9512H123.346C124.282 46.9512 125.046 47.7151 125.046 48.6565V102.157C125.046 103.099 124.282 103.863 123.346 103.863Z" fill="#7CE3E2" stroke="black"/>
<path d="M130.905 32.7678V32.7678C130.905 31.8199 131.661 31.0625 132.605 31.0625H146.879C147.816 31.0625 148.579 31.8212 148.579 32.7678V102.158C148.579 103.099 147.816 103.863 146.879 103.863H132.605C131.663 103.863 130.902 103.102 130.902 102.158L130.905 32.7678Z" fill="#7CE3E2" stroke="black"/>
<path d="M170.406 103.863H156.126C155.189 103.863 154.426 103.102 154.426 102.158V12.1526C154.426 11.2112 155.19 10.4473 156.126 10.4473H170.406C171.345 10.4473 172.106 11.2107 172.106 12.1526L172.109 102.158C172.109 103.099 171.346 103.863 170.406 103.863Z" fill="#7CE3E2" stroke="black"/>
<path d="M117.623 133.557H22.9686C22.0291 133.557 21.266 132.793 21.2656 131.852C21.2683 130.91 22.0303 130.146 22.9686 130.146H117.623C118.559 130.146 119.323 130.91 119.323 131.852V131.853C119.325 132.792 118.56 133.557 117.623 133.557Z" fill="#7CE3E2" stroke="black"/>
<path d="M117.623 156.332H22.9686C22.0282 156.332 21.266 155.573 21.2656 154.627C21.2683 153.684 22.028 152.928 22.9686 152.928H117.623C118.561 152.928 119.323 153.685 119.323 154.627V154.628C119.325 155.572 118.561 156.332 117.623 156.332Z" fill="#7CE3E2" stroke="black"/>
<path d="M117.623 179.109H22.9686C22.0287 179.109 21.266 178.348 21.2656 177.405C21.2683 176.462 22.0303 175.699 22.9686 175.699H117.623C118.559 175.699 119.323 176.463 119.323 177.404V177.406C119.325 178.347 118.56 179.109 117.623 179.109Z" fill="#7CE3E2" stroke="black"/>
<path d="M119.323 200.186V200.187C119.325 201.126 118.56 201.891 117.623 201.891H22.9686C22.0291 201.891 21.266 201.127 21.2656 200.186C21.2683 199.238 22.0294 198.48 22.9686 198.48H117.623C118.56 198.48 119.323 199.239 119.323 200.186Z" fill="#7CE3E2" stroke="black"/>
<path d="M140.134 193.47L140.134 193.47C125.01 178.322 125.01 153.67 140.134 138.522L140.134 138.522C147.457 131.181 157.195 127.145 167.559 127.145C177.915 127.145 187.653 131.181 194.982 138.522C210.106 153.67 210.106 178.322 194.982 193.47L194.982 193.47C187.424 201.043 177.491 204.832 167.559 204.832C157.625 204.832 147.692 201.043 140.134 193.47Z" fill="white" stroke="#0F3D8B"/>
<path fill-rule="evenodd" clip-rule="evenodd" d="M167.366 201.066C158.522 201.066 149.678 197.659 142.948 190.849C129.483 177.229 129.483 155.065 142.948 141.445C149.468 134.845 158.139 131.215 167.366 131.215C176.586 131.215 185.257 134.845 191.782 141.445C205.247 155.065 205.247 177.229 191.782 190.849C185.052 197.659 176.208 201.066 167.366 201.066Z" fill="#7CE3E2"/>
<path d="M206.82 197.892L206.82 197.892L197.106 188.157L197.106 188.157C196.439 187.491 196.438 186.411 197.1 185.745C197.764 185.08 198.845 185.08 199.509 185.745L199.509 185.745L209.226 195.48C209.226 195.48 209.226 195.48 209.226 195.48C209.89 196.146 209.89 197.225 209.226 197.892C208.892 198.226 208.457 198.394 208.027 198.394C207.593 198.394 207.152 198.225 206.82 197.892ZM196.395 208.336L196.395 208.336L186.678 198.601L186.678 198.601C186.014 197.938 186.014 196.856 186.678 196.193L186.679 196.191C187.337 195.527 188.416 195.527 189.074 196.191L189.075 196.193L198.798 205.924L198.798 205.924C199.465 206.59 199.462 207.675 198.799 208.335L198.798 208.336C198.464 208.671 198.029 208.838 197.599 208.838C197.163 208.838 196.728 208.67 196.395 208.336Z" fill="white" stroke="#0F3D8B"/>
<mask id="mask1_692_423" style="mask-type:luminance" maskUnits="userSpaceOnUse" x="192" y="191" width="59" height="59">
<path d="M193.398 192.443H250.499V249.5H193.398V192.443Z" fill="white" stroke="white"/>
</mask>
<g mask="url(#mask1_692_423)">
<path d="M244.388 243.56C247.869 240.073 247.869 234.406 244.388 230.92C244.388 230.92 244.388 230.92 244.388 230.92L210.677 197.152L210.323 196.797L209.969 197.152L198.059 209.082L197.706 209.435L198.059 209.789L231.769 243.559C233.446 245.244 235.689 246.17 238.079 246.17C240.47 246.17 242.713 245.244 244.388 243.56ZM244.388 243.56C244.388 243.56 244.388 243.56 244.388 243.56L244.034 243.207L244.389 243.559C244.388 243.559 244.388 243.559 244.388 243.56ZM229.364 245.972L229.363 245.972L194.094 210.644C194.094 210.644 194.094 210.644 194.094 210.644C193.43 209.978 193.43 208.899 194.094 208.232C194.094 208.232 194.094 208.232 194.094 208.232L209.125 193.177L209.127 193.175C209.747 192.547 210.896 192.544 211.528 193.177L211.528 193.177L246.794 228.508L246.794 228.508C249.12 230.834 250.397 233.931 250.397 237.24C250.397 240.548 249.118 243.648 246.794 245.971L246.793 245.972C244.476 248.301 241.381 249.58 238.079 249.58C234.779 249.58 231.684 248.301 229.364 245.972Z" fill="white" stroke="#0F3D8B"/>
</g>
</svg>
