<svg width="60" height="60" viewBox="0 0 60 60" fill="none" xmlns="http://www.w3.org/2000/svg">
<circle cx="25" cy="25" r="25" fill="#CAE3E3"/>
<path d="M34.8395 29.632C34.7411 29.6758 34.6405 29.7748 34.5945 29.8716L34.5508 29.9707L34.5552 35.4428L34.5617 40.9173L34.6295 41.0164C34.7345 41.1684 34.8549 41.226 35.043 41.2168L35.1961 41.2076L37.7447 39.657C42.2469 36.9151 43.2816 36.2861 43.706 36.0304C43.8745 35.929 44.0407 35.8184 44.0735 35.7862C44.2792 35.5903 44.277 35.224 44.0713 35.0419C44.0363 35.0097 43.7957 34.8576 43.5397 34.7009C42.4722 34.0535 36.944 30.6896 36.104 30.1781L35.1961 29.6228L35.043 29.6159C34.9599 29.6136 34.868 29.6205 34.8395 29.632Z" fill="#AAD4C8"/>
<path d="M34.8395 29.632C34.7411 29.6758 34.6405 29.7748 34.5945 29.8716L34.5508 29.9707L34.5552 35.4428L34.5617 40.9173L34.6295 41.0164C34.7345 41.1684 34.8549 41.226 35.043 41.2168L35.1961 41.2076L37.7447 39.657C42.2469 36.9151 43.2816 36.2861 43.706 36.0304C43.8745 35.929 44.0407 35.8184 44.0735 35.7862C44.2792 35.5903 44.277 35.224 44.0713 35.0419C44.0363 35.0097 43.7957 34.8576 43.5397 34.7009C42.4722 34.0535 36.944 30.6896 36.104 30.1781L35.1961 29.6228L35.043 29.6159C34.9599 29.6136 34.868 29.6205 34.8395 29.632Z" stroke="black"/>
<path d="M19.1551 23.0136C18.5644 23.0874 18.0722 23.3408 17.6741 23.7763C17.3175 24.168 17.1206 24.5781 17.0331 25.1126C17.0046 25.2831 17.0003 27.0527 17.0003 38.9624C17.0003 52.5718 16.9896 52.8823 17.1007 53.1405C17.1131 53.1692 17.1269 53.1973 17.1425 53.243C17.4094 54.0309 18.011 54.6047 18.816 54.842L19.002 54.8973L30.8261 54.9088L42.6502 54.9203L42.8033 55.2221C43.2102 56.024 43.6521 56.6438 44.3019 57.3304C44.7066 57.7566 45.0654 58.0792 45.4657 58.3718C47.2595 59.6897 49.4494 60.2358 51.6195 59.9063C55.3866 59.3349 58.3749 56.1875 58.913 52.2246C59.029 51.3767 59.029 50.432 58.913 49.621C58.6833 47.9989 58.0686 46.5151 57.0951 45.2386L56.8807 44.9598V35.1353C56.8807 25.3979 56.8862 25.0895 56.7913 24.816C56.782 24.7892 56.7717 24.7628 56.7604 24.7279C56.6029 24.2348 56.2966 23.7947 55.8985 23.4837C55.7388 23.3569 55.4391 23.198 55.2269 23.1242C55.1946 23.1131 55.1743 23.1029 55.1536 23.0936C54.9221 22.9898 54.6405 22.9979 36.9296 23.0021C27.1902 23.0021 19.1923 23.009 19.1551 23.0136ZM51.2913 42.9138C51.8514 42.9922 52.313 43.1005 52.7549 43.2548C53.969 43.6811 54.9731 44.3424 55.8635 45.3032C56.7932 46.3054 57.432 47.4805 57.7755 48.8145C57.9767 49.5933 58.0511 50.2707 58.0336 51.1186C58.0205 51.7131 57.9899 52.0103 57.887 52.5402C57.5283 54.3904 56.5285 56.1 55.1306 57.252C53.9909 58.1921 52.7614 58.7289 51.2585 58.9455C50.926 58.9916 49.8081 58.9847 49.4428 58.934C48.0011 58.7289 46.7367 58.1667 45.621 57.2313C45.2797 56.9479 44.6847 56.3235 44.4244 55.9802C43.8315 55.1945 43.4028 54.365 43.1074 53.4227C42.4949 51.4619 42.6283 49.3237 43.4837 47.4459C44.2319 45.8054 45.4504 44.5083 47.0036 43.6995C47.9246 43.2203 48.7646 42.976 49.8584 42.8724C50.0685 42.8539 51.0616 42.8816 51.2913 42.9138ZM42.2389 47.9574C42.2353 47.9727 42.2183 48.0337 42.195 48.1176C42.1761 48.1854 42.153 48.2682 42.1296 48.3537C41.9633 48.9367 41.8583 49.5196 41.7927 50.22L41.7752 50.4043H34.7966H27.8181L27.8072 49.932C27.7962 49.4873 27.794 49.4551 27.7459 49.3721C27.5425 49.0288 27.0852 49.0496 26.9037 49.4113C26.8599 49.4965 26.8555 49.5472 26.849 49.9597L26.8402 50.4159H23.6091H20.378L20.2817 50.4666C19.9383 50.6509 19.9383 51.1624 20.2817 51.3536L20.3758 51.4066H23.6091H26.8402L26.849 51.8605C26.8555 52.2776 26.8599 52.3259 26.9037 52.4135C26.9934 52.5886 27.1618 52.6969 27.3478 52.6969C27.4506 52.6969 27.6343 52.6024 27.6956 52.5218C27.7962 52.3858 27.8072 52.3259 27.8072 51.8536V51.4066H34.7944H41.7795L41.7948 51.6071C41.8386 52.22 41.9699 52.9526 42.1339 53.531L42.2389 53.895L30.6642 53.8904L19.0895 53.8835L18.9473 53.8328C18.7373 53.7568 18.5426 53.6277 18.3807 53.4549C18.2144 53.2798 18.116 53.1162 18.0328 52.8766L17.9738 52.7084L17.9672 50.3053L17.9628 47.9044H30.1064H42.2499L42.2389 47.9574Z" fill="#616E7D"/>
<path d="M19.1551 23.0136C18.5644 23.0874 18.0722 23.3408 17.6741 23.7763C17.3175 24.168 17.1206 24.5781 17.0331 25.1126C17.0046 25.2831 17.0003 27.0527 17.0003 38.9624C17.0003 52.5718 16.9896 52.8823 17.1007 53.1405C17.1131 53.1692 17.1269 53.1973 17.1425 53.243C17.4094 54.0309 18.011 54.6047 18.816 54.842L19.002 54.8973L30.8261 54.9088L42.6502 54.9203L42.8033 55.2221C43.2102 56.024 43.6521 56.6438 44.3019 57.3304C44.7066 57.7566 45.0654 58.0792 45.4657 58.3718C47.2595 59.6897 49.4494 60.2358 51.6195 59.9063C55.3866 59.3349 58.3749 56.1875 58.913 52.2246C59.029 51.3767 59.029 50.432 58.913 49.621C58.6833 47.9989 58.0686 46.5151 57.0951 45.2386L56.8807 44.9598V35.1353C56.8807 25.3979 56.8862 25.0895 56.7913 24.816C56.782 24.7892 56.7717 24.7628 56.7604 24.7279C56.6029 24.2348 56.2966 23.7947 55.8985 23.4837C55.7388 23.3569 55.4391 23.198 55.2269 23.1242C55.1946 23.1131 55.1743 23.1029 55.1536 23.0936C54.9221 22.9898 54.6405 22.9979 36.9296 23.0021C27.1902 23.0021 19.1923 23.009 19.1551 23.0136ZM51.2913 42.9138C51.8514 42.9922 52.313 43.1005 52.7549 43.2548C53.969 43.6811 54.9731 44.3424 55.8635 45.3032C56.7932 46.3054 57.432 47.4805 57.7755 48.8145C57.9767 49.5933 58.0511 50.2707 58.0336 51.1186C58.0205 51.7131 57.9899 52.0103 57.887 52.5402C57.5283 54.3904 56.5285 56.1 55.1306 57.252C53.9909 58.1921 52.7614 58.7289 51.2585 58.9455C50.926 58.9916 49.8081 58.9847 49.4428 58.934C48.0011 58.7289 46.7367 58.1667 45.621 57.2313C45.2797 56.9479 44.6847 56.3235 44.4244 55.9802C43.8315 55.1945 43.4028 54.365 43.1074 53.4227C42.4949 51.4619 42.6283 49.3237 43.4837 47.4459C44.2319 45.8054 45.4504 44.5083 47.0036 43.6995C47.9246 43.2203 48.7646 42.976 49.8584 42.8724C50.0685 42.8539 51.0616 42.8816 51.2913 42.9138ZM42.2389 47.9574C42.2353 47.9727 42.2183 48.0337 42.195 48.1176C42.1761 48.1854 42.153 48.2682 42.1296 48.3537C41.9633 48.9367 41.8583 49.5196 41.7927 50.22L41.7752 50.4043H34.7966H27.8181L27.8072 49.932C27.7962 49.4873 27.794 49.4551 27.7459 49.3721C27.5425 49.0288 27.0852 49.0496 26.9037 49.4113C26.8599 49.4965 26.8555 49.5472 26.849 49.9597L26.8402 50.4159H23.6091H20.378L20.2817 50.4666C19.9383 50.6509 19.9383 51.1624 20.2817 51.3536L20.3758 51.4066H23.6091H26.8402L26.849 51.8605C26.8555 52.2776 26.8599 52.3259 26.9037 52.4135C26.9934 52.5886 27.1618 52.6969 27.3478 52.6969C27.4506 52.6969 27.6343 52.6024 27.6956 52.5218C27.7962 52.3858 27.8072 52.3259 27.8072 51.8536V51.4066H34.7944H41.7795L41.7948 51.6071C41.8386 52.22 41.9699 52.9526 42.1339 53.531L42.2389 53.895L30.6642 53.8904L19.0895 53.8835L18.9473 53.8328C18.7373 53.7568 18.5426 53.6277 18.3807 53.4549C18.2144 53.2798 18.116 53.1162 18.0328 52.8766L17.9738 52.7084L17.9672 50.3053L17.9628 47.9044H30.1064H42.2499L42.2389 47.9574Z" stroke="black"/>
<path d="M50.1481 45.5083C50.0693 45.5566 50.0146 45.6096 49.973 45.6857C49.914 45.794 49.9118 45.8055 49.9052 46.2156L49.8965 46.6326L49.763 46.6488C49.5486 46.6718 49.1614 46.7686 48.9777 46.8423C48.2864 47.1234 47.8073 47.6234 47.6082 48.2731C47.5448 48.4805 47.5163 48.6833 47.5163 48.9482C47.5163 49.4805 47.6826 49.9228 48.0173 50.2777C48.2098 50.4827 48.3651 50.5979 48.6539 50.75C49.0324 50.9505 49.3758 51.068 50.0977 51.2454C51.651 51.6256 52.1519 51.8629 52.3619 52.3122C52.5851 52.7937 52.4538 53.402 52.0557 53.7407C51.3206 54.3651 49.7958 54.3628 48.923 53.7384C48.6408 53.5379 48.4111 53.1946 48.3039 52.8144C48.2186 52.5126 48.0742 52.3721 47.8314 52.3559C47.5688 52.3375 47.3523 52.4873 47.2844 52.7361C47.2451 52.879 47.2538 52.9619 47.3348 53.2384C47.5295 53.8974 47.9998 54.4941 48.5773 54.8098C48.888 54.978 49.4721 55.1577 49.8133 55.1899L49.8899 55.1969L49.9008 55.6231C49.9118 56.001 49.9184 56.0609 49.9599 56.1415C50.0496 56.3189 50.2006 56.4134 50.3953 56.4111C50.5943 56.4088 50.789 56.2567 50.8393 56.0678C50.8525 56.0194 50.8634 55.812 50.8634 55.607V55.2337L50.9684 55.2222C51.8369 55.1139 52.421 54.8397 52.9045 54.3121C53.3354 53.8421 53.5323 53.2891 53.5039 52.6278C53.4732 51.8997 53.2479 51.4597 52.6769 51.015C52.2722 50.6993 51.6728 50.4712 50.4806 50.1855C49.1177 49.8583 48.7086 49.6371 48.5751 49.1579C48.4855 48.8261 48.5598 48.439 48.7633 48.1902C49.0827 47.7985 49.8155 47.5842 50.5987 47.651C51.174 47.6994 51.535 47.8515 51.8172 48.1602C51.9769 48.3377 52.0469 48.4575 52.1344 48.7132C52.2154 48.9459 52.2766 49.0358 52.4122 49.1187C52.4976 49.1717 52.5413 49.1832 52.6682 49.1832C52.7973 49.1832 52.8388 49.1717 52.9263 49.1187C53.0598 49.0358 53.1517 48.9021 53.1823 48.7432C53.2042 48.6372 53.1998 48.5957 53.1604 48.4436C52.9985 47.8192 52.5741 47.2962 51.966 46.976C51.721 46.8446 51.104 46.6603 50.9159 46.6603H50.8634V46.2663C50.8634 46.0359 50.8525 45.8331 50.8393 45.7824C50.754 45.4829 50.4128 45.347 50.1481 45.5083Z" fill="#6A7B86"/>
<path d="M50.1481 45.5083C50.0693 45.5566 50.0146 45.6096 49.973 45.6857C49.914 45.794 49.9118 45.8055 49.9052 46.2156L49.8965 46.6326L49.763 46.6488C49.5486 46.6718 49.1614 46.7686 48.9777 46.8423C48.2864 47.1234 47.8073 47.6234 47.6082 48.2731C47.5448 48.4805 47.5163 48.6833 47.5163 48.9482C47.5163 49.4805 47.6826 49.9228 48.0173 50.2777C48.2098 50.4827 48.3651 50.5979 48.6539 50.75C49.0324 50.9505 49.3758 51.068 50.0977 51.2454C51.651 51.6256 52.1519 51.8629 52.3619 52.3122C52.5851 52.7937 52.4538 53.402 52.0557 53.7407C51.3206 54.3651 49.7958 54.3628 48.923 53.7384C48.6408 53.5379 48.4111 53.1946 48.3039 52.8144C48.2186 52.5126 48.0742 52.3721 47.8314 52.3559C47.5688 52.3375 47.3523 52.4873 47.2844 52.7361C47.2451 52.879 47.2538 52.9619 47.3348 53.2384C47.5295 53.8974 47.9998 54.4941 48.5773 54.8098C48.888 54.978 49.4721 55.1577 49.8133 55.1899L49.8899 55.1969L49.9008 55.6231C49.9118 56.001 49.9184 56.0609 49.9599 56.1415C50.0496 56.3189 50.2006 56.4134 50.3953 56.4111C50.5943 56.4088 50.789 56.2567 50.8393 56.0678C50.8525 56.0194 50.8634 55.812 50.8634 55.607V55.2337L50.9684 55.2222C51.8369 55.1139 52.421 54.8397 52.9045 54.3121C53.3354 53.8421 53.5323 53.2891 53.5039 52.6278C53.4732 51.8997 53.2479 51.4597 52.6769 51.015C52.2722 50.6993 51.6728 50.4712 50.4806 50.1855C49.1177 49.8583 48.7086 49.6371 48.5751 49.1579C48.4855 48.8261 48.5598 48.439 48.7633 48.1902C49.0827 47.7985 49.8155 47.5842 50.5987 47.651C51.174 47.6994 51.535 47.8515 51.8172 48.1602C51.9769 48.3377 52.0469 48.4575 52.1344 48.7132C52.2154 48.9459 52.2766 49.0358 52.4122 49.1187C52.4976 49.1717 52.5413 49.1832 52.6682 49.1832C52.7973 49.1832 52.8388 49.1717 52.9263 49.1187C53.0598 49.0358 53.1517 48.9021 53.1823 48.7432C53.2042 48.6372 53.1998 48.5957 53.1604 48.4436C52.9985 47.8192 52.5741 47.2962 51.966 46.976C51.721 46.8446 51.104 46.6603 50.9159 46.6603H50.8634V46.2663C50.8634 46.0359 50.8525 45.8331 50.8393 45.7824C50.754 45.4829 50.4128 45.347 50.1481 45.5083Z" stroke="black"/>
<path d="M33.2686 32.0143C33.177 32.052 33.0834 32.1374 33.0407 32.2208L33 32.3062L33.0041 37.0226L33.0102 41.741L33.0733 41.8264C33.1709 41.9575 33.2828 42.0071 33.4578 41.9992L33.6003 41.9912L35.9708 40.6548C40.1585 38.2916 41.121 37.7494 41.5157 37.529C41.6724 37.4416 41.827 37.3463 41.8576 37.3185C42.0488 37.1497 42.0468 36.834 41.8555 36.6771C41.823 36.6493 41.5991 36.5182 41.3611 36.3832C40.3681 35.8251 35.2261 32.9258 34.4447 32.4849L33.6003 32.0063L33.4578 32.0004C33.3805 31.9984 33.295 32.0044 33.2686 32.0143Z" fill="#96B9AF"/>
<path d="M33.2686 32.0143C33.177 32.052 33.0834 32.1374 33.0407 32.2208L33 32.3062L33.0041 37.0226L33.0102 41.741L33.0733 41.8264C33.1709 41.9575 33.2828 42.0071 33.4578 41.9992L33.6003 41.9912L35.9708 40.6548C40.1585 38.2916 41.121 37.7494 41.5157 37.529C41.6724 37.4416 41.827 37.3463 41.8576 37.3185C42.0488 37.1497 42.0468 36.834 41.8555 36.6771C41.823 36.6493 41.5991 36.5182 41.3611 36.3832C40.3681 35.8251 35.2261 32.9258 34.4447 32.4849L33.6003 32.0063L33.4578 32.0004C33.3805 31.9984 33.295 32.0044 33.2686 32.0143Z" stroke="black"/>
</svg>
