<svg width="60" height="60" viewBox="0 0 60 60" fill="none" xmlns="http://www.w3.org/2000/svg">
<g clip-path="url(#clip0_724_7261)">
<circle cx="25" cy="25" r="25" fill="#CAE3E3"/>
<path d="M20.7148 24.7438C20.7148 18.1072 26.1648 12.7079 32.8636 12.7079C37.1601 12.7079 40.9348 14.9346 43.0945 18.2804L43.7118 17.9245C41.4272 14.3698 37.4233 11.9998 32.8636 11.9998C25.7712 11.9998 20 17.7172 20 24.7438C20 31.7709 25.7712 37.4883 32.8636 37.4883C33.5506 37.4883 34.2197 37.4185 34.8774 37.3161C35.765 41.9638 39.878 45.4805 44.8277 45.4805C50.4252 45.4805 54.9627 40.9864 54.9627 35.4415C54.9627 30.1853 50.8827 25.8777 45.6919 25.4429C45.705 25.2102 45.7276 24.9802 45.7276 24.7438C45.7276 22.6395 45.2011 20.6568 44.2838 18.906L43.6662 19.2619C44.5209 20.9094 45.0124 22.7695 45.0124 24.7438C45.0124 24.9687 44.9898 25.1868 44.9775 25.4072C44.9276 25.4072 44.8784 25.3993 44.8277 25.3993C44.6501 25.3993 44.478 25.4178 44.3044 25.4256C44.3179 25.1997 44.3393 24.9751 44.3393 24.7438C44.3393 22.889 43.881 21.1443 43.0858 19.5969L40.6018 21.0302C41.1528 22.1546 41.4708 23.4104 41.4708 24.7438C41.4708 25.1774 41.4272 25.5992 41.3645 26.0143C38.2356 27.1441 35.8312 29.7531 35.0102 32.9927C34.324 33.1675 33.6064 33.2712 32.8636 33.2712C28.1097 33.2712 24.2564 29.4535 24.2564 24.7438C24.2564 20.0357 28.1097 16.218 32.8636 16.218C35.8621 16.218 38.4992 17.7379 40.0397 20.0422L42.5169 18.6131C40.4765 15.4653 36.9198 13.3754 32.8636 13.3754C26.5271 13.3754 21.3879 18.4659 21.3879 24.7438C21.3879 31.0234 26.5271 36.1126 32.8636 36.1126C33.4979 36.1126 34.1139 36.0498 34.72 35.9513C34.7315 36.1745 34.7442 36.3978 34.7703 36.6171C34.1472 36.7155 33.5134 36.78 32.8636 36.78C26.1648 36.78 20.7148 31.3808 20.7148 24.7438Z" fill="#616E7D"/>
<path d="M32.8689 19.0589C34.8082 19.0589 36.5208 20.0155 37.559 21.4763L40.045 20.0416C38.5045 17.7373 35.8674 16.2174 32.8689 16.2174C28.115 16.2174 24.2617 20.0351 24.2617 24.7431C24.2617 29.4528 28.115 33.2705 32.8689 33.2705C33.6117 33.2705 34.3293 33.1668 35.0155 32.992C35.8365 29.7524 38.2409 27.1434 41.3698 26.0136C41.4325 25.5986 41.4761 25.1768 41.4761 24.7431C41.4761 23.4097 41.1581 22.154 40.6071 21.0295L38.1224 22.4627C38.4315 23.1618 38.6064 23.9314 38.6064 24.7431C38.6064 27.883 36.0379 30.4278 32.8689 30.4278C29.6999 30.4278 27.1311 27.883 27.1311 24.7431C27.1311 21.6035 29.6999 19.0589 32.8689 19.0589Z" fill="white"/>
<path d="M32.8628 21.9008C33.7437 21.9008 34.5219 22.3016 35.0467 22.9202L37.5529 21.4752C36.5147 20.0145 34.8022 19.0579 32.8628 19.0579C29.6938 19.0579 27.125 21.6025 27.125 24.7421C27.125 27.882 29.6938 30.4268 32.8628 30.4268C36.0318 30.4268 38.6003 27.882 38.6003 24.7421C38.6003 23.9303 38.4255 23.1607 38.1163 22.4616L35.593 23.9174C35.6743 24.1801 35.7306 24.4531 35.7306 24.7421C35.7306 26.3119 34.4478 27.585 32.8628 27.585C31.2783 27.585 29.9931 26.3119 29.9931 24.7421C29.9931 23.1723 31.2783 21.9008 32.8628 21.9008Z" fill="#616E7D"/>
<path d="M33.2544 23.9558L35.0458 22.9221C34.521 22.3035 33.7428 21.9027 32.8619 21.9027C31.2774 21.9027 29.9922 23.1742 29.9922 24.744C29.9922 26.3138 31.2774 27.5869 32.8619 27.5869C34.4469 27.5869 35.7297 26.3138 35.7297 24.744C35.7297 24.455 35.6734 24.182 35.5921 23.9193L33.7594 24.9767C33.5264 25.112 33.2258 25.0397 33.08 24.8126L33.0531 24.7703C32.8754 24.4919 32.9666 24.1215 33.2544 23.9558Z" fill="white"/>
<path d="M49.4509 17.8306C49.5643 17.8909 49.7023 17.8897 49.8133 17.8241L50.1954 17.6048C50.2525 17.572 50.2866 17.5099 50.2866 17.4444C50.2854 17.3774 50.2497 17.3171 50.1899 17.2855L48.4567 16.3462L48.6545 16.2304L48.7406 16.1177L48.7207 15.9782L48.4812 15.5829C48.4281 15.4975 48.3148 15.4684 48.2271 15.5185L48.023 15.637L48.0127 13.6991C48.0115 13.6335 47.977 13.5742 47.9184 13.5414H47.7344L47.355 13.7607C47.2408 13.8263 47.1719 13.9473 47.1719 14.0775L47.1838 16.1215L47.0835 16.1807L47.0716 14.2417C47.0716 14.1773 47.0359 14.1155 46.9788 14.084L46.7933 14.0854L46.4135 14.3033C46.2993 14.3691 46.2304 14.4897 46.2304 14.6199L46.2439 16.6639L46.1415 16.7231L46.1301 14.7843C46.1301 14.7199 46.0944 14.6594 46.0369 14.6264L45.8525 14.6277L45.4732 14.846C45.3594 14.9117 45.2892 15.0325 45.2908 15.1625L45.3008 16.9045C45.3008 16.9689 45.2679 17.0281 45.2108 17.0622L43.7166 17.9239L43.0994 18.2798L42.5218 18.6124L40.0446 20.0416L37.5586 21.4763L35.0524 22.9212L33.2609 23.9549C32.9731 24.1207 32.8819 24.491 33.0596 24.7695L33.0865 24.8117C33.2324 25.0389 33.5329 25.1112 33.766 24.9759L35.5987 23.9184L38.1219 22.4627L40.6067 21.0295L43.0906 19.5962L43.6711 19.2612L44.2887 18.9053L45.7812 18.0449L45.9596 18.0421L47.5695 18.9156C47.6825 18.9761 47.82 18.9749 47.9302 18.912L48.3124 18.6911C48.371 18.6571 48.4051 18.5966 48.4035 18.5295C48.4035 18.4637 48.3671 18.4034 48.3088 18.3718L46.5752 17.4312L46.672 17.3762L48.5114 18.3718C48.624 18.4348 48.7603 18.4325 48.8717 18.3681L49.2535 18.1485C49.3122 18.1143 49.3466 18.0527 49.3466 17.9871C49.3451 17.9213 49.3082 17.8595 49.2503 17.8281L47.5168 16.8889L47.6139 16.8323L49.4509 17.8306Z" fill="#96B9AF"/>
<path d="M43.6726 51.1826L42.5207 49.0825H42.5195L43.6726 51.1826Z" fill="#616E7D"/>
<path d="M48.6046 58.8244H41.0544L38.8693 47.4556C39.0841 47.4399 39.299 47.4244 39.5162 47.4244H50.1428C50.3616 47.4244 50.5765 47.4399 50.7897 47.4556L48.6046 58.8244ZM38.9632 46.4273C33.7023 46.4273 29.4375 50.652 29.4375 55.865V60.4443H60.2231V55.865C60.2231 50.652 55.9575 46.4273 50.6954 46.4273H38.9632Z" fill="#616E7D"/>
<path d="M46.0187 51.1824L47.1914 58.8252H48.5987L50.7837 47.4564C50.5705 47.4406 50.3556 47.4252 50.1368 47.4252H39.5102C39.293 47.4252 39.0781 47.4406 38.8633 47.4564L41.0484 58.8252H42.4552L43.6299 51.1824H43.6715L42.5179 49.083H42.519H47.1296L45.9767 51.1824H46.0187Z" fill="white"/>
<path d="M42.457 58.8252H47.1932L46.0205 51.1824H45.9785L47.1314 49.083H42.5208L43.6733 51.1824H43.6317L42.457 58.8252Z" fill="#96B9AF"/>
</g>
<defs>
<clipPath id="clip0_724_7261">
<rect width="60" height="60" fill="white"/>
</clipPath>
</defs>
</svg>
