<svg width="60" height="60" viewBox="0 0 60 60" fill="none" xmlns="http://www.w3.org/2000/svg">
<g clip-path="url(#clip0_724_7285)">
<circle cx="25" cy="25" r="25" fill="#CAE3E3"/>
<path d="M20.1549 23.0137C19.5643 23.0868 19.0721 23.3379 18.674 23.7693C18.3175 24.1573 18.1206 24.5636 18.0331 25.0932C18.0046 25.2621 18.0003 27.0151 18.0003 38.8138C18.0003 52.2954 17.9896 52.6039 18.1007 52.8596C18.113 52.8881 18.1269 52.9159 18.1425 52.9612C18.4093 53.7419 19.0109 54.3102 19.8158 54.5453L20.0018 54.6001L31.8248 54.6115L43.6478 54.6229L43.8009 54.922C44.2078 55.7163 44.6496 56.3303 45.2993 57.0105C45.704 57.4328 46.0627 57.7524 46.463 58.0423C48.2567 59.3479 50.4463 59.8889 52.6162 59.5625C56.383 58.9964 59.371 55.8784 59.9091 51.9523C60.0251 51.1123 60.0251 50.1765 59.9091 49.373C59.6794 47.7661 59.0648 46.2961 58.0914 45.0315L57.877 44.7553V35.0224C57.877 25.3764 57.8824 25.0703 57.7876 24.7994C57.7783 24.7728 57.768 24.7466 57.7567 24.712C57.5992 24.2235 57.293 23.7875 56.8948 23.4794C56.7352 23.3538 56.4355 23.1963 56.2233 23.1233C56.191 23.1123 56.1707 23.1022 56.15 23.093C55.9186 22.9901 55.6379 22.9981 37.9277 23.0023C28.1893 23.0023 20.1921 23.0092 20.1549 23.0137ZM52.2881 42.7284C52.8481 42.806 53.3097 42.9133 53.7515 43.0662C54.9655 43.4885 55.9696 44.1436 56.8598 45.0954C57.7895 46.0884 58.4282 47.2525 58.7717 48.5741C58.9729 49.3456 59.0473 50.0167 59.0298 50.8567C59.0166 51.4456 58.986 51.74 58.8832 52.265C58.5245 54.0979 57.5248 55.7916 56.1271 56.9329C54.9874 57.8642 53.7581 58.3961 52.2553 58.6106C51.9228 58.6563 50.8051 58.6494 50.4398 58.5992C48.9982 58.3961 47.7339 57.8391 46.6183 56.9124C46.2771 56.6316 45.6821 56.013 45.4218 55.6729C44.829 54.8946 44.4003 54.0728 44.105 53.1393C43.4925 51.1968 43.6259 49.0786 44.4812 47.2182C45.2293 45.593 46.4477 44.308 48.0008 43.5068C48.9217 43.032 49.7617 42.79 50.8554 42.6873C51.0654 42.6691 52.0585 42.6964 52.2881 42.7284ZM43.2366 47.725C43.2329 47.7401 43.216 47.8006 43.1926 47.8836C43.1737 47.9508 43.1507 48.0328 43.1272 48.1176C42.961 48.6951 42.856 49.2726 42.7903 49.9665L42.7728 50.1491H35.795H28.8171L28.8061 49.6812C28.7952 49.2406 28.793 49.2087 28.7449 49.1265C28.5415 48.7864 28.0843 48.8069 27.9027 49.1653C27.859 49.2497 27.8546 49.3 27.8481 49.7085L27.8393 50.1605H24.6085H21.3777L21.2814 50.2107C20.938 50.3933 20.938 50.9001 21.2814 51.0895L21.3755 51.142H24.6085H27.8393L27.8481 51.5917C27.8546 52.0048 27.859 52.0528 27.9027 52.1395C27.9924 52.313 28.1609 52.4203 28.3468 52.4203C28.4496 52.4203 28.6333 52.3267 28.6946 52.2468C28.7952 52.1121 28.8061 52.0528 28.8061 51.5848V51.142H35.7928H42.7772L42.7925 51.3406C42.8363 51.9478 42.9675 52.6736 43.1316 53.2465L43.2366 53.6072L31.6629 53.6026L20.0893 53.5958L19.9471 53.5456C19.7371 53.4702 19.5424 53.3424 19.3805 53.1712C19.2143 52.9977 19.1159 52.8357 19.0327 52.5983L18.9737 52.4317L18.9671 50.0509L18.9627 47.6725H31.1051H43.2475L43.2366 47.725Z" fill="#616E7D"/>
<path d="M20.1549 23.0137C19.5643 23.0868 19.0721 23.3379 18.674 23.7693C18.3175 24.1573 18.1206 24.5636 18.0331 25.0932C18.0046 25.2621 18.0003 27.0151 18.0003 38.8138C18.0003 52.2954 17.9896 52.6039 18.1007 52.8596C18.113 52.8881 18.1269 52.9159 18.1425 52.9612C18.4093 53.7419 19.0109 54.3102 19.8158 54.5453L20.0018 54.6001L31.8248 54.6115L43.6478 54.6229L43.8009 54.922C44.2078 55.7163 44.6496 56.3303 45.2993 57.0105C45.704 57.4328 46.0627 57.7524 46.463 58.0423C48.2567 59.3479 50.4463 59.8889 52.6162 59.5625C56.383 58.9964 59.371 55.8784 59.9091 51.9523C60.0251 51.1123 60.0251 50.1765 59.9091 49.373C59.6794 47.7661 59.0648 46.2961 58.0914 45.0315L57.877 44.7553V35.0224C57.877 25.3764 57.8824 25.0703 57.7876 24.7994C57.7783 24.7728 57.768 24.7466 57.7567 24.712C57.5992 24.2235 57.293 23.7875 56.8948 23.4794C56.7352 23.3538 56.4355 23.1963 56.2233 23.1233C56.191 23.1123 56.1707 23.1022 56.15 23.093C55.9186 22.9901 55.6379 22.9981 37.9277 23.0023C28.1893 23.0023 20.1921 23.0092 20.1549 23.0137ZM52.2881 42.7284C52.8481 42.806 53.3097 42.9133 53.7515 43.0662C54.9655 43.4885 55.9696 44.1436 56.8598 45.0954C57.7895 46.0884 58.4282 47.2525 58.7717 48.5741C58.9729 49.3456 59.0473 50.0167 59.0298 50.8567C59.0166 51.4456 58.986 51.74 58.8832 52.265C58.5245 54.0979 57.5248 55.7916 56.1271 56.9329C54.9874 57.8642 53.7581 58.3961 52.2553 58.6106C51.9228 58.6563 50.8051 58.6494 50.4398 58.5992C48.9982 58.3961 47.7339 57.8391 46.6183 56.9124C46.2771 56.6316 45.6821 56.013 45.4218 55.6729C44.829 54.8946 44.4003 54.0728 44.105 53.1393C43.4925 51.1968 43.6259 49.0786 44.4812 47.2182C45.2293 45.593 46.4477 44.308 48.0008 43.5068C48.9217 43.032 49.7617 42.79 50.8554 42.6873C51.0654 42.6691 52.0585 42.6964 52.2881 42.7284ZM43.2366 47.725C43.2329 47.7401 43.216 47.8006 43.1926 47.8836C43.1737 47.9508 43.1507 48.0328 43.1272 48.1176C42.961 48.6951 42.856 49.2726 42.7903 49.9665L42.7728 50.1491H35.795H28.8171L28.8061 49.6812C28.7952 49.2406 28.793 49.2087 28.7449 49.1265C28.5415 48.7864 28.0843 48.8069 27.9027 49.1653C27.859 49.2497 27.8546 49.3 27.8481 49.7085L27.8393 50.1605H24.6085H21.3777L21.2814 50.2107C20.938 50.3933 20.938 50.9001 21.2814 51.0895L21.3755 51.142H24.6085H27.8393L27.8481 51.5917C27.8546 52.0048 27.859 52.0528 27.9027 52.1395C27.9924 52.313 28.1609 52.4203 28.3468 52.4203C28.4496 52.4203 28.6333 52.3267 28.6946 52.2468C28.7952 52.1121 28.8061 52.0528 28.8061 51.5848V51.142H35.7928H42.7772L42.7925 51.3406C42.8363 51.9478 42.9675 52.6736 43.1316 53.2465L43.2366 53.6072L31.6629 53.6026L20.0893 53.5958L19.9471 53.5456C19.7371 53.4702 19.5424 53.3424 19.3805 53.1712C19.2143 52.9977 19.1159 52.8357 19.0327 52.5983L18.9737 52.4317L18.9671 50.0509L18.9627 47.6725H31.1051H43.2475L43.2366 47.725Z" stroke="black"/>
<path d="M34.8473 29.95C34.7489 29.9933 34.6483 30.0915 34.6023 30.1874L34.5586 30.2855L34.563 35.7066L34.5695 41.1301L34.6373 41.2282C34.7423 41.3789 34.8626 41.4359 35.0508 41.4268L35.2039 41.4177L37.7522 39.8815C42.2539 37.1652 43.2886 36.5421 43.713 36.2887C43.8814 36.1883 44.0476 36.0787 44.0804 36.0468C44.2861 35.8527 44.2839 35.4898 44.0783 35.3095C44.0433 35.2775 43.8026 35.1269 43.5467 34.9717C42.4793 34.3302 36.9516 30.9977 36.1117 30.4909L35.2039 29.9408L35.0508 29.934C34.9676 29.9317 34.8758 29.9386 34.8473 29.95Z" fill="#96B9AF"/>
<path d="M34.8473 29.95C34.7489 29.9933 34.6483 30.0915 34.6023 30.1874L34.5586 30.2855L34.563 35.7066L34.5695 41.1301L34.6373 41.2282C34.7423 41.3789 34.8626 41.4359 35.0508 41.4268L35.2039 41.4177L37.7522 39.8815C42.2539 37.1652 43.2886 36.5421 43.713 36.2887C43.8814 36.1883 44.0476 36.0787 44.0804 36.0468C44.2861 35.8527 44.2839 35.4898 44.0783 35.3095C44.0433 35.2775 43.8026 35.1269 43.5467 34.9717C42.4793 34.3302 36.9516 30.9977 36.1117 30.4909L35.2039 29.9408L35.0508 29.934C34.9676 29.9317 34.8758 29.9386 34.8473 29.95Z" stroke="black"/>
<path d="M50.0153 42.2037C46.7434 42.8654 44.1349 45.4175 43.2475 48.8298C42.9696 49.9168 42.9696 52.1853 43.2475 53.2534C44.0811 56.4767 46.3849 58.887 49.4506 59.7661C50.5442 60.078 52.4804 60.078 53.574 59.7661C56.6577 58.887 58.9435 56.4767 59.7772 53.2251C60.073 52.0719 60.073 50.0302 59.7772 48.877C58.9435 45.6444 56.6128 43.1773 53.6009 42.3455C52.6956 42.0903 50.9117 42.0241 50.0153 42.2037ZM53.4396 43.4042C55.5999 43.9997 57.3479 45.5593 58.316 47.7617C59.1855 49.7372 59.2483 51.845 58.4953 53.8962C58.2443 54.5957 57.4555 55.9757 57.2314 56.1175C57.1865 56.1553 56.7742 55.7866 56.317 55.314L55.4923 54.4539L55.1427 54.832L54.7932 55.2101L55.6268 56.0986L56.4605 56.9776L56.1109 57.2612C54.4884 58.6223 52.1577 59.2178 50.0781 58.8019C48.1687 58.4333 46.3401 57.1289 45.2465 55.3613C44.3949 53.9907 44.0363 52.6674 44.0542 50.9565C44.0632 49.2362 44.5114 47.7806 45.4706 46.4194L45.8829 45.824L46.7255 46.7125L47.5681 47.5915L47.9267 47.2229L48.2853 46.8542L47.4606 45.9657L46.6269 45.0867L46.8958 44.8504C47.353 44.4534 48.3032 43.8862 48.9396 43.631C50.3291 43.0828 51.9874 42.9977 53.4396 43.4042Z" fill="#616E7D"/>
<path d="M51.0336 45.153C50.9978 45.1908 50.9709 45.5311 50.9709 45.8998V46.5803L50.442 46.6937C49.1601 46.9584 48.2817 48.3101 48.5506 49.5767C48.685 50.21 48.8374 50.4841 49.2946 50.9284C49.8324 51.4577 50.3882 51.6184 51.5894 51.6184C52.7368 51.6184 53.0326 51.7602 53.3194 52.4313C53.5256 52.9322 53.4898 53.386 53.1939 53.8113C52.8712 54.3028 52.5934 54.3784 51.3563 54.3406L50.2358 54.3123L49.931 53.9531C49.7607 53.764 49.5994 53.471 49.5635 53.3198C49.5187 53.0457 49.5008 53.0362 48.9898 53.0362H48.4609L48.5147 53.2914C48.7209 54.3217 49.3304 55.0874 50.1731 55.3426C50.433 55.4276 50.7199 55.4938 50.8095 55.4938C50.9529 55.4938 50.9709 55.5789 50.9709 56.25V57.0156L51.4908 56.9873L52.0017 56.9589L52.0286 56.2216C52.0466 55.5978 52.0734 55.4938 52.2169 55.4938C52.5934 55.4938 53.2926 55.1913 53.6511 54.8605C54.9599 53.679 54.6372 51.4388 53.0505 50.711C52.8264 50.607 52.3424 50.5408 51.5715 50.503C50.2806 50.4557 49.9848 50.3329 49.698 49.7279C49.3932 49.0946 49.5814 48.3573 50.1551 47.9603C50.4241 47.7618 50.5675 47.7429 51.4818 47.7429C52.5934 47.7429 52.8712 47.828 53.2029 48.2723C53.3015 48.4046 53.4091 48.6598 53.4449 48.8394C53.4987 49.1608 53.5077 49.1608 53.9828 49.1608H54.4668V48.8489C54.4668 48.3952 54.0904 47.6295 53.678 47.2609C53.3105 46.93 52.9609 46.7599 52.3872 46.6654L52.0555 46.5992L52.0286 45.8714L52.0017 45.1436L51.5535 45.1152C51.3025 45.0963 51.0695 45.1152 51.0336 45.153Z" fill="#616E7D"/>
</g>
<defs>
<clipPath id="clip0_724_7285">
<rect width="60" height="60" fill="white"/>
</clipPath>
</defs>
</svg>
