<svg width="60" height="60" viewBox="0 0 60 60" fill="none" xmlns="http://www.w3.org/2000/svg">
<g clip-path="url(#clip0_724_7294)">
<circle cx="25" cy="25" r="25" fill="#CAE3E3"/>
<path d="M45.0781 46.3369L45.5647 45.7807H44.5703L45.0781 46.3369Z" fill="white"/>
<path d="M50.7369 33.0186H32.9295V30.4526H50.7369V33.0186ZM50.7369 37.2734H29.8924V34.7074H50.7369V37.2734ZM26.7227 21.7281V58.749H47.6174V53.4723C47.6174 53.2446 47.7102 53.0221 47.8711 52.8611C48.032 52.7003 48.2538 52.6081 48.4815 52.6081H53.9766V40.9386L46.2705 49.704C45.9778 50.0365 45.5573 50.2291 45.0993 50.2338C44.6632 50.2338 44.2437 50.0494 43.9492 49.7278L40.3317 45.7826H29.8924V43.2166H47.7747V43.2652L49.3022 41.5282H29.8924V38.9618H50.7369V39.8958L53.9766 36.2112V21.7281H26.7227Z" fill="white"/>
<path d="M49.3496 58.7806V54.3371H53.9495L49.3496 58.7806ZM53.9809 52.6087H48.4858C48.2582 52.6087 48.0363 52.7009 47.8754 52.8617C47.7145 53.0227 47.6217 53.2452 47.6217 53.4728V58.7496H26.727V21.7287H53.9809V36.2118L55.7083 34.2472V20.8645C55.7083 20.6369 55.616 20.4144 55.4555 20.2533C55.2946 20.0925 55.0719 20.0003 54.8446 20.0003H25.8638C25.6356 20.0003 25.4138 20.0925 25.2528 20.2533C25.0919 20.4144 25 20.6369 25 20.8645V59.6142C25 59.842 25.0919 60.0645 25.2528 60.2254C25.4138 60.3862 25.6356 60.4785 25.8638 60.4785H49.5656C49.7928 60.4785 50.0134 60.3879 50.1739 60.2275L52.8367 57.58L52.8402 57.5764L55.4564 54.9472C55.6174 54.7856 55.7083 54.5645 55.7083 54.3371V38.9746L53.9809 40.9392V52.6087Z" fill="#616E7D"/>
<path d="M49.3477 58.7803L53.9476 54.3368H49.3477V58.7803Z" fill="white"/>
<path d="M32.9297 33.0186H50.7371V30.4525H32.9297V33.0186Z" fill="#96B9AF"/>
<path d="M29.8984 37.2734H50.7429V34.7074H29.8984V37.2734Z" fill="#96B9AF"/>
<path d="M29.8984 38.9619V41.5283H49.3083L50.7429 39.8959V38.9619H29.8984Z" fill="#96B9AF"/>
<path d="M29.8984 43.2172V45.7832H40.3378L39.7166 45.1056L38.9523 44.272C38.8246 44.1321 38.803 43.925 38.8999 43.7617C38.9783 43.6291 39.12 43.5507 39.2692 43.5507L39.3723 43.5635L43.3363 44.5404C43.4183 44.5611 43.4922 44.6052 43.5496 44.6676L44.5728 45.7832H45.5675L47.7807 43.2658V43.2172H29.8984Z" fill="#96B9AF"/>
<path d="M60.162 33.2598L58.465 31.7652C58.3865 31.6955 58.2857 31.6575 58.1813 31.6575L58.1539 31.6585C58.0396 31.6654 57.9334 31.7179 57.8585 31.8038L55.7103 34.2472L53.9829 36.2117L50.7432 39.8963L49.3085 41.5287L47.781 43.2658L45.5677 45.7832L45.081 46.337L44.5731 45.7832L43.5499 44.6675C43.4925 44.6052 43.4186 44.5611 43.3365 44.5403L39.3726 43.5634L39.2695 43.5506C39.1202 43.5506 38.9786 43.629 38.9001 43.7616C38.8033 43.925 38.8248 44.132 38.9526 44.2719L39.7168 45.1056L40.338 45.7832L43.9555 49.7284C44.25 50.05 44.6695 50.2344 45.1056 50.2344C45.5636 50.2296 45.9841 50.037 46.2768 49.7046L53.9829 40.9392L55.7103 38.9745L60.2009 33.8666C60.3582 33.6885 60.3407 33.4167 60.162 33.2598Z" fill="#AAD4C8"/>
</g>
<defs>
<clipPath id="clip0_724_7294">
<rect width="60" height="60" fill="white"/>
</clipPath>
</defs>
</svg>
