<svg width="60" height="60" viewBox="0 0 60 60" fill="none" xmlns="http://www.w3.org/2000/svg">
<g clip-path="url(#clip0_724_7262)">
<circle cx="25" cy="25" r="25" fill="#CAE3E3"/>
<path d="M54.0243 16.0639C53.6163 16.1351 53.0608 16.4469 52.8003 16.7409C52.7222 16.8389 52.5746 17.0972 52.4792 17.311C52.3142 17.6851 52.2969 17.89 52.2969 20.1615C52.2969 22.5399 52.3056 22.6201 52.5052 23.0566C52.6094 23.306 52.8437 23.6267 53.0173 23.7871C53.5555 24.277 53.7552 24.3037 56.3767 24.3037H58.7725L59.1978 24.0721C59.6839 23.8227 60.144 23.2615 60.2828 22.7626C60.4217 22.2193 60.3957 17.9435 60.2394 17.4981C60.0485 16.928 59.7013 16.536 59.1718 16.2688L58.677 16.0193L56.5503 16.0015C55.3784 15.9926 54.2413 16.0193 54.0243 16.0639Z" fill="#96B9AF"/>
<path d="M37.065 18.5045C36.0581 18.7539 35.1379 19.5289 34.6952 20.4999L34.4609 21.0076L34.4348 28.5526L34.4175 36.1066H32.2908H30.1641V37.8881V39.6697H32.2908H34.4175L34.4348 47.2147L34.4609 54.7686L34.6952 55.2764C35.1293 56.2385 36.0233 56.9867 37.0563 57.2718C37.4122 57.3698 38.775 57.3965 44.0354 57.3965H50.563V55.6149V53.8333L44.2524 53.8155L37.933 53.7888L37.907 46.7248L37.8896 39.6697H43.9225H49.9554V37.8881V36.1066H43.9225H37.8896L37.907 29.0426L37.933 21.9875L44.2524 21.9608L50.563 21.943V20.1614V18.3798L44.0354 18.3887C39.2177 18.3887 37.3862 18.4243 37.065 18.5045Z" fill="#96B9AF"/>
<path d="M21.61 24.2674C20.8722 24.4812 20.0475 25.3452 19.8392 26.1113C19.492 27.4119 20.0649 28.8193 21.1847 29.4162C21.9659 29.8259 22.9642 29.8259 23.7454 29.4251C24.0926 29.238 24.7089 28.5966 24.8999 28.2136C25.1429 27.7237 25.2297 27.0377 25.1256 26.4498C24.9693 25.5234 24.4572 24.8375 23.6152 24.4277C23.1899 24.2139 22.9902 24.1694 22.4867 24.1783C22.1569 24.1783 21.7576 24.2228 21.61 24.2674Z" fill="#616E7D"/>
<path d="M17.3329 31.1184C16.8555 31.2342 16.3954 31.6083 16.1784 32.0716L15.9701 32.4991L15.944 37.4608L15.918 42.4226L16.161 42.6987C16.2999 42.8501 16.5343 43.0016 16.7079 43.0461C17.1245 43.1352 17.6888 43.0016 17.9058 42.7611C18.0794 42.574 18.0881 42.4404 18.1488 38.8861L18.2096 35.216H18.6263H19.0516L19.069 44.409C19.095 52.7736 19.1124 53.6376 19.2426 53.8781C19.7373 54.8135 21.4995 54.7689 21.9248 53.8069C22.0724 53.4506 22.0897 53.1655 22.0897 48.863V44.3021H22.4804H22.871V48.9699V53.6287L23.0706 53.9316C23.3658 54.3859 23.7564 54.564 24.4334 54.5284C25.1018 54.4928 25.5098 54.2523 25.7008 53.7801C25.805 53.5307 25.8223 51.9362 25.8223 44.3467V35.216H26.2997H26.7772V38.8327C26.7772 41.1398 26.8119 42.5027 26.864 42.6185C27.1678 43.1975 28.5566 43.1975 28.8605 42.6185C28.982 42.3869 28.982 32.8911 28.8605 32.4457C28.7216 31.9468 28.4178 31.546 27.9924 31.2966C27.6192 31.0828 27.541 31.0739 26.1522 31.0739C24.39 31.0739 24.4942 31.0026 23.7824 32.6328C23.496 33.2741 23.2442 33.7908 23.2182 33.7908C23.1835 33.7908 23.0533 33.5592 22.9231 33.2741L22.68 32.7575L23.0012 32.027C23.4178 31.1006 23.3831 31.0293 22.437 31.0293C21.4908 31.0293 21.4474 31.1095 21.8727 32.0092L22.2113 32.7218L21.9595 33.2563C21.8206 33.5503 21.6904 33.7908 21.6644 33.7908C21.6384 33.7908 21.4995 33.5146 21.3519 33.185C20.7182 31.6885 20.4925 31.2877 20.2582 31.154C19.9891 31.0204 17.8711 30.9848 17.3329 31.1184Z" fill="#616E7D"/>
<path d="M53.9635 33.7904C53.2778 33.9419 52.7743 34.3606 52.4792 35.0376C52.3142 35.4117 52.2969 35.6166 52.2969 37.8881C52.2969 40.2754 52.3056 40.3467 52.5052 40.7832C52.7222 41.2642 53.1128 41.6561 53.5989 41.8877C53.8507 42.0035 54.2934 42.0303 56.3333 42.0303C59.0589 42.0303 59.1197 42.0214 59.7707 41.3533C60.3176 40.7921 60.3697 40.4803 60.3697 37.8881C60.3697 35.2959 60.3176 34.9841 59.7707 34.4229C59.137 33.7726 59.0242 33.7459 56.5503 33.7281C55.335 33.7192 54.1718 33.7459 53.9635 33.7904Z" fill="#96B9AF"/>
<path d="M54.0764 51.4903C53.2778 51.6684 52.809 52.0426 52.5052 52.7196C52.3056 53.1561 52.2969 53.2362 52.2969 55.6147C52.2969 58.002 52.3056 58.0732 52.5052 58.5097C52.7396 59.0264 52.9653 59.258 53.5121 59.552C53.8941 59.7479 53.9548 59.7568 56.2899 59.7568H58.677L59.1718 59.5074C59.4408 59.3738 59.762 59.1244 59.8922 58.9551C60.3523 58.3316 60.3783 58.0821 60.3523 55.4276L60.3263 52.9868L60.0832 52.5592C59.7794 52.0248 59.2759 51.6506 58.7117 51.5259C58.295 51.4279 54.4496 51.4012 54.0764 51.4903Z" fill="#96B9AF"/>
</g>
<defs>
<clipPath id="clip0_724_7262">
<rect width="60" height="60" fill="white"/>
</clipPath>
</defs>
</svg>
