<svg width="300" height="250" viewBox="0 0 300 250" fill="none" xmlns="http://www.w3.org/2000/svg">
<path d="M101.218 92.181C101.997 92.6456 102.827 93.0081 103.704 93.2721C104.581 93.5326 105.476 93.6839 106.393 93.7226C107.311 93.7614 108.22 93.691 109.116 93.5079C110.015 93.3249 110.873 93.0327 111.696 92.6385L130.985 83.318H182.343C183.049 83.318 183.751 83.2828 184.458 83.2159C185.16 83.1491 185.855 83.0505 186.55 82.9167C187.242 82.783 187.926 82.6176 188.603 82.4204C189.276 82.2233 189.942 81.991 190.593 81.7306C191.245 81.4701 191.885 81.1779 192.508 80.8576C193.13 80.5373 193.734 80.1854 194.32 79.8052C194.91 79.4286 195.474 79.0203 196.02 78.5873C196.566 78.1544 197.09 77.6968 197.588 77.2146C198.087 76.7324 198.564 76.2291 199.011 75.7011C199.459 75.1731 199.877 74.6275 200.271 74.0608C200.664 73.4941 201.024 72.9063 201.359 72.308C201.69 71.7061 201.992 71.0901 202.261 70.4601C202.534 69.83 202.771 69.1859 202.975 68.5347C203.182 67.88 203.353 67.2218 203.491 66.5495C203.626 65.8807 203.732 65.2085 203.801 64.5291C203.87 63.8498 203.903 63.1705 203.903 62.4876V20.8304C203.903 20.1475 203.87 19.4682 203.801 18.7889C203.732 18.1095 203.626 17.4373 203.491 16.765C203.353 16.0962 203.182 15.438 202.975 14.7833C202.771 14.1321 202.534 13.488 202.261 12.858C201.992 12.2279 201.69 11.6119 201.359 11.01C201.024 10.4082 200.664 9.82386 200.271 9.25716C199.877 8.69047 199.459 8.1449 199.011 7.61692C198.564 7.08895 198.087 6.58561 197.588 6.10339C197.09 5.61766 196.566 5.16008 196.02 4.73066C195.474 4.29772 194.91 3.88942 194.32 3.5128C193.734 3.13265 193.13 2.78067 192.508 2.46036C191.885 2.14006 191.245 1.84791 190.593 1.58745C189.942 1.32698 189.276 1.09467 188.603 0.897558C187.926 0.700447 187.242 0.535014 186.55 0.401261C185.855 0.267507 185.16 0.168952 184.458 0.102075C183.751 0.035199 183.049 0 182.343 0H117.657C116.951 0 116.249 0.035199 115.543 0.102075C114.84 0.168952 114.145 0.267507 113.45 0.401261C112.759 0.535014 112.074 0.700447 111.397 0.897558C110.724 1.09467 110.058 1.32698 109.407 1.58745C108.755 1.84791 108.115 2.14006 107.492 2.46036C106.87 2.78067 106.266 3.13265 105.68 3.5128C105.09 3.88942 104.526 4.29772 103.98 4.73066C103.435 5.16008 102.911 5.61766 102.412 6.10339C101.913 6.58561 101.437 7.08895 100.989 7.61692C100.541 8.1449 100.123 8.69047 99.7297 9.25716C99.3367 9.82386 98.9764 10.4082 98.6416 11.01C98.3104 11.6119 98.0083 12.2279 97.739 12.858C97.4661 13.488 97.2295 14.1321 97.0257 14.7833C96.8182 15.438 96.6472 16.0962 96.5089 16.765C96.3742 17.4373 96.2687 18.1095 96.1996 18.7889C96.1304 19.4682 96.0977 20.1475 96.0977 20.8304V83.318C96.0977 84.205 96.2105 85.0779 96.4434 85.9368C96.6763 86.7991 97.0148 87.6157 97.4624 88.3901C97.9101 89.168 98.4523 89.8755 99.0892 90.5161C99.7261 91.1602 100.436 91.7128 101.218 92.181Z" fill="#0F3D8B"/>
<path d="M134.604 75.6406H125.016V30.3244H134.604V75.6406Z" fill="#7CE3E2"/>
<path d="M158.355 75.6406H148.771V26.3721H158.355V75.6406Z" fill="#7CE3E2"/>
<path d="M120.918 75.6406H115.975V39.1145H120.918V75.6406Z" fill="#7CE3E2"/>
<path d="M143.58 75.6406H138.639V39.1145H143.58V75.6406Z" fill="#7CE3E2"/>
<path d="M181.834 75.3457H172.521V7.38422H181.834V75.3457Z" fill="#7CE3E2"/>
<path d="M167.443 75.3457H162.363V21.3041H167.443V75.3457Z" fill="#7CE3E2"/>
<path d="M117.656 145.802C117.656 147.167 117.586 148.53 117.448 149.885C117.31 151.243 117.102 152.592 116.826 153.929C116.553 155.267 116.211 156.59 115.799 157.896C115.388 159.202 114.915 160.483 114.373 161.743C113.834 163.007 113.23 164.239 112.564 165.439C111.898 166.643 111.174 167.811 110.388 168.948C109.605 170.082 108.765 171.176 107.869 172.229C106.97 173.285 106.024 174.295 105.027 175.259C104.026 176.224 102.982 177.139 101.89 178.005C100.798 178.871 99.6662 179.684 98.4907 180.44C97.3152 181.197 96.1069 181.898 94.8623 182.542C93.614 183.186 92.3402 183.767 91.0337 184.291C89.7308 184.812 88.4024 185.27 87.0522 185.667C85.6984 186.062 84.33 186.393 82.947 186.66C81.5604 186.928 80.1666 187.128 78.7581 187.262C77.3533 187.392 75.9449 187.459 74.5328 187.459C73.1208 187.459 71.7123 187.392 70.3076 187.262C68.8991 187.128 67.5053 186.928 66.1187 186.66C64.7357 186.393 63.3673 186.062 62.0135 185.667C60.6633 185.27 59.3349 184.812 58.032 184.291C56.7255 183.767 55.4517 183.186 54.2034 182.542C52.9588 181.898 51.7505 181.197 50.575 180.44C49.3995 179.684 48.2676 178.871 47.1758 178.005C46.084 177.139 45.0395 176.224 44.0387 175.259C43.0415 174.295 42.0953 173.285 41.1964 172.229C40.3011 171.176 39.4604 170.082 38.6779 168.948C37.8918 167.811 37.1676 166.643 36.5016 165.439C35.8356 164.239 35.2315 163.007 34.6929 161.743C34.1506 160.483 33.6775 159.202 33.2662 157.896C32.855 156.59 32.5129 155.267 32.2399 153.929C31.9633 152.592 31.7559 151.243 31.6176 149.885C31.4793 148.53 31.4102 147.167 31.4102 145.802C31.4102 144.44 31.4793 143.077 31.6176 141.719C31.7559 140.364 31.9633 139.016 32.2399 137.674C32.5129 136.337 32.855 135.017 33.2662 133.711C33.6775 132.405 34.1506 131.121 34.6929 129.86C35.2315 128.6 35.8356 127.368 36.5016 126.165C37.1676 124.961 37.8918 123.792 38.6779 122.659C39.4604 121.525 40.3011 120.431 41.1964 119.375C42.0953 118.322 43.0415 117.312 44.0387 116.348C45.0395 115.383 46.084 114.468 47.1758 113.602C48.2676 112.736 49.3995 111.923 50.575 111.167C51.7505 110.406 52.9588 109.706 54.2034 109.065C55.4517 108.421 56.7255 107.837 58.032 107.316C59.3349 106.795 60.6633 106.334 62.0135 105.94C63.3673 105.542 64.7357 105.211 66.1187 104.947C67.5053 104.68 68.8991 104.479 70.3076 104.345C71.7123 104.211 73.1208 104.145 74.5328 104.145C75.9449 104.145 77.3533 104.211 78.7581 104.345C80.1666 104.479 81.5604 104.68 82.947 104.947C84.33 105.211 85.6984 105.542 87.0522 105.94C88.4024 106.334 89.7308 106.795 91.0337 107.316C92.3402 107.837 93.614 108.421 94.8623 109.065C96.1069 109.706 97.3152 110.406 98.4907 111.167C99.6662 111.923 100.798 112.736 101.89 113.602C102.982 114.468 104.026 115.383 105.027 116.348C106.024 117.312 106.97 118.322 107.866 119.375C108.765 120.431 109.605 121.525 110.388 122.659C111.174 123.792 111.898 124.961 112.564 126.165C113.23 127.368 113.834 128.6 114.373 129.86C114.915 131.121 115.388 132.405 115.799 133.711C116.211 135.017 116.553 136.337 116.826 137.674C117.102 139.016 117.31 140.364 117.448 141.719C117.586 143.077 117.656 144.44 117.656 145.802Z" fill="#7CE3E2"/>
<mask id="mask0_692_422" style="mask-type:luminance" maskUnits="userSpaceOnUse" x="0" y="184" width="150" height="66">
<path d="M0 184.594H149.068V249.999H0V184.594Z" fill="white"/>
</mask>
<g mask="url(#mask0_692_422)">
<path d="M124.77 185.17C124.016 186.067 123.234 186.947 122.429 187.803C121.625 188.662 120.795 189.496 119.94 190.309C119.085 191.122 118.211 191.91 117.309 192.678C116.41 193.445 115.489 194.184 114.55 194.902C113.608 195.617 112.647 196.307 111.664 196.972C110.682 197.637 109.681 198.274 108.665 198.887C107.646 199.499 106.609 200.08 105.557 200.636C104.506 201.192 103.439 201.72 102.358 202.216C101.274 202.716 100.178 203.184 99.0685 203.624C97.9621 204.061 96.8412 204.473 95.7057 204.849C94.5739 205.229 93.4311 205.578 92.2775 205.895C91.1274 206.215 89.9665 206.5 88.7946 206.757C87.6264 207.01 86.4508 207.236 85.2681 207.426C84.0853 207.619 82.8988 207.781 81.7088 207.908C80.5151 208.038 79.3214 208.133 78.124 208.197C76.9303 208.26 75.7293 208.295 74.532 208.295C73.3346 208.295 72.1336 208.26 70.9399 208.197C69.7426 208.133 68.5489 208.038 67.3552 207.908C66.1651 207.781 64.9787 207.619 63.7959 207.426C62.6131 207.236 61.4376 207.01 60.2693 206.757C59.0975 206.5 57.9365 206.215 56.7865 205.895C55.6328 205.578 54.4901 205.229 53.3582 204.849C52.2227 204.473 51.1018 204.061 49.9955 203.624C48.8855 203.184 47.79 202.716 46.7055 202.216C45.6246 201.72 44.5583 201.192 43.5065 200.636C42.4547 200.08 41.4175 199.499 40.3985 198.887C39.3831 198.274 38.3823 197.637 37.3997 196.972C36.417 196.307 35.4562 195.617 34.5137 194.902C33.5747 194.184 32.6539 193.445 31.755 192.678C30.8525 191.91 29.979 191.122 29.1238 190.309C28.2685 189.496 27.4388 188.662 26.6345 187.803C25.8302 186.947 25.0477 186.067 24.2944 185.17C21.2373 187.799 18.4241 190.65 15.8511 193.723C13.2744 196.796 10.978 200.052 8.95085 203.487C6.92737 206.919 5.20232 210.492 3.77933 214.198C2.35634 217.904 1.24998 221.695 0.467519 225.578C0.18001 227.038 0.0562726 228.51 0.103584 229.995C0.150895 231.48 0.365617 232.945 0.747749 234.384C1.12988 235.824 1.67214 237.207 2.3709 238.534C3.06966 239.858 3.90671 241.093 4.88933 242.241C5.90835 243.441 7.05475 244.518 8.32124 245.475C9.59137 246.433 10.9525 247.242 12.4046 247.907C13.8603 248.576 15.3707 249.08 16.9392 249.425C18.5078 249.766 20.0982 249.942 21.7068 249.945H127.357C128.966 249.942 130.556 249.766 132.125 249.425C133.693 249.08 135.204 248.576 136.659 247.907C138.111 247.242 139.473 246.433 140.743 245.475C142.009 244.518 143.156 243.441 144.175 242.241C145.161 241.097 146.002 239.861 146.7 238.534C147.399 237.211 147.941 235.827 148.323 234.388C148.706 232.948 148.92 231.484 148.964 229.995C149.011 228.51 148.888 227.035 148.596 225.578C147.814 221.695 146.708 217.904 145.285 214.198C143.862 210.492 142.137 206.919 140.113 203.487C138.086 200.052 135.786 196.796 133.213 193.723C130.64 190.65 127.827 187.799 124.77 185.17Z" fill="#0F3D8B"/>
</g>
<path d="M268.587 145.802C268.587 147.167 268.518 148.53 268.38 149.885C268.241 151.243 268.034 152.592 267.757 153.929C267.484 155.267 267.142 156.59 266.731 157.896C266.32 159.202 265.847 160.483 265.304 161.743C264.766 163.007 264.162 164.239 263.496 165.439C262.83 166.643 262.105 167.811 261.319 168.948C260.537 170.082 259.696 171.176 258.797 172.229C257.902 173.285 256.956 174.295 255.959 175.259C254.958 176.224 253.913 177.139 252.821 178.005C251.73 178.871 250.598 179.684 249.422 180.44C248.247 181.197 247.039 181.898 245.794 182.542C244.546 183.186 243.272 183.767 241.965 184.291C240.662 184.812 239.334 185.27 237.984 185.667C236.63 186.062 235.262 186.393 233.879 186.66C232.492 186.928 231.098 187.128 229.69 187.262C228.285 187.392 226.877 187.459 225.464 187.459C224.052 187.459 222.644 187.392 221.239 187.262C219.831 187.128 218.437 186.928 217.05 186.66C215.667 186.393 214.299 186.062 212.945 185.667C211.595 185.27 210.267 184.812 208.964 184.291C207.657 183.767 206.383 183.186 205.135 182.542C203.89 181.898 202.682 181.197 201.507 180.44C200.331 179.684 199.199 178.871 198.107 178.005C197.016 177.139 195.971 176.224 194.97 175.259C193.973 174.295 193.027 173.285 192.128 172.229C191.233 171.176 190.392 170.082 189.61 168.948C188.823 167.811 188.099 166.643 187.433 165.439C186.767 164.239 186.163 163.007 185.624 161.743C185.082 160.483 184.609 159.202 184.198 157.896C183.787 156.59 183.445 155.267 183.172 153.929C182.895 152.592 182.688 151.243 182.549 149.885C182.411 148.53 182.342 147.167 182.342 145.802C182.342 144.44 182.411 143.077 182.549 141.719C182.688 140.364 182.895 139.016 183.172 137.674C183.445 136.337 183.787 135.017 184.198 133.711C184.609 132.405 185.082 131.121 185.624 129.86C186.163 128.6 186.767 127.368 187.433 126.165C188.099 124.961 188.823 123.792 189.61 122.659C190.392 121.525 191.233 120.431 192.128 119.375C193.027 118.322 193.973 117.312 194.97 116.348C195.971 115.383 197.016 114.468 198.107 113.602C199.199 112.736 200.331 111.923 201.507 111.167C202.682 110.406 203.89 109.706 205.135 109.065C206.383 108.421 207.657 107.837 208.964 107.316C210.267 106.795 211.595 106.334 212.945 105.94C214.299 105.542 215.667 105.211 217.05 104.947C218.437 104.68 219.831 104.479 221.239 104.345C222.644 104.211 224.052 104.145 225.464 104.145C226.877 104.145 228.285 104.211 229.69 104.345C231.098 104.479 232.492 104.68 233.879 104.947C235.262 105.211 236.63 105.542 237.984 105.94C239.334 106.334 240.662 106.795 241.965 107.316C243.272 107.837 244.546 108.421 245.794 109.065C247.039 109.706 248.247 110.406 249.422 111.167C250.598 111.923 251.73 112.736 252.821 113.602C253.913 114.468 254.958 115.383 255.959 116.348C256.956 117.312 257.902 118.322 258.797 119.375C259.696 120.431 260.537 121.525 261.319 122.659C262.105 123.792 262.83 124.961 263.496 126.165C264.162 127.368 264.766 128.6 265.304 129.86C265.847 131.121 266.32 132.405 266.731 133.711C267.142 135.017 267.484 136.337 267.757 137.674C268.034 139.016 268.241 140.364 268.38 141.719C268.518 143.077 268.587 144.44 268.587 145.802Z" fill="#0F3D8B"/>
<mask id="mask1_692_422" style="mask-type:luminance" maskUnits="userSpaceOnUse" x="150" y="184" width="150" height="66">
<path d="M150.932 184.594H300V249.999H150.932V184.594Z" fill="white"/>
</mask>
<g mask="url(#mask1_692_422)">
<path d="M299.53 225.578C298.747 221.695 297.641 217.904 296.218 214.198C294.795 210.492 293.07 206.919 291.046 203.487C289.019 200.052 286.719 196.796 284.146 193.723C281.573 190.65 278.76 187.799 275.703 185.17C274.95 186.067 274.167 186.947 273.363 187.803C272.559 188.662 271.729 189.496 270.873 190.309C270.018 191.122 269.145 191.91 268.242 192.678C267.343 193.445 266.423 194.184 265.484 194.902C264.541 195.617 263.58 196.307 262.598 196.972C261.615 197.637 260.614 198.274 259.599 198.887C258.58 199.499 257.543 200.08 256.491 200.636C255.439 201.192 254.373 201.72 253.292 202.216C252.207 202.716 251.112 203.184 250.002 203.624C248.895 204.061 247.775 204.473 246.639 204.849C245.507 205.229 244.364 205.578 243.211 205.895C242.061 206.215 240.9 206.5 239.728 206.757C238.56 207.01 237.384 207.236 236.201 207.426C235.019 207.619 233.832 207.781 232.642 207.908C231.448 208.038 230.255 208.133 229.057 208.197C227.864 208.26 226.663 208.295 225.465 208.295C224.268 208.295 223.067 208.26 221.873 208.197C220.676 208.133 219.482 208.038 218.288 207.908C217.098 207.781 215.912 207.619 214.729 207.426C213.546 207.236 212.371 207.01 211.203 206.757C210.031 206.5 208.87 206.215 207.72 205.895C206.566 205.578 205.423 205.229 204.292 204.849C203.156 204.473 202.035 204.061 200.929 203.624C199.819 203.184 198.723 202.716 197.639 202.216C196.558 201.72 195.492 201.192 194.44 200.636C193.388 200.08 192.351 199.499 191.332 198.887C190.316 198.274 189.316 197.637 188.333 196.972C187.35 196.307 186.39 195.617 185.447 194.902C184.508 194.184 183.587 193.445 182.688 192.678C181.786 191.91 180.912 191.122 180.057 190.309C179.202 189.496 178.372 188.662 177.568 187.803C176.763 186.947 175.981 186.067 175.228 185.17C172.171 187.799 169.357 190.65 166.784 193.723C164.208 196.796 161.911 200.052 159.884 203.487C157.861 206.919 156.136 210.492 154.713 214.198C153.29 217.904 152.183 221.695 151.401 225.578C151.11 227.035 150.986 228.51 151.033 229.995C151.077 231.484 151.292 232.948 151.674 234.388C152.056 235.827 152.598 237.211 153.297 238.534C153.996 239.861 154.836 241.097 155.823 242.241C156.842 243.441 157.988 244.518 159.255 245.475C160.525 246.433 161.886 247.242 163.338 247.907C164.794 248.576 166.304 249.08 167.873 249.425C169.441 249.766 171.032 249.942 172.64 249.945H278.29C279.899 249.942 281.489 249.766 283.058 249.425C284.627 249.08 286.137 248.576 287.593 247.907C289.045 247.242 290.406 246.433 291.676 245.475C292.943 244.518 294.089 243.441 295.108 242.241C296.091 241.093 296.928 239.858 297.626 238.534C298.325 237.207 298.867 235.824 299.25 234.384C299.632 232.945 299.846 231.48 299.894 229.995C299.941 228.51 299.817 227.038 299.53 225.578Z" fill="#7CE3E2"/>
</g>
</svg>
