<svg width="280" height="250" viewBox="0 0 280 250" fill="none" xmlns="http://www.w3.org/2000/svg">
<path d="M100.336 1.60148C76.4504 5.90914 54.8799 16.7308 37.5182 33.4362C26.8908 43.5224 20.0514 52.558 13.6328 65.0607C-12.9884 117.068 0.269628 179.476 45.6203 215.304C57.3 224.444 58.5627 224.549 50.3553 215.619C36.6765 200.805 27.2065 183.364 21.8402 163.086C18.9992 152.685 17.9469 127.89 19.8409 115.282C23.3133 91.2219 35.519 67.3721 53.512 49.301C90.5502 12.108 146.002 3.17747 193.668 26.712C200.507 30.0741 201.033 30.2842 198.192 27.8677C193.142 23.455 181.883 16.2055 174.728 12.6333C152.736 1.60149 124.116 -2.60112 100.336 1.60148Z" fill="#7CE3E2"/>
<path d="M112.648 29.864C59.9315 51.5074 30.8903 109.293 45.0952 164.032C61.4047 227.071 127.274 263.949 189.67 245.037L195.773 243.146H177.57C163.68 243.146 157.472 242.726 151.58 241.255C109.07 230.958 77.0827 200.174 65.5083 158.463C61.8255 145.12 60.8785 123.582 63.4039 109.398C69.2963 75.8825 88.7624 47.62 118.33 29.864C126.011 25.2412 123.907 25.2412 112.648 29.864Z" fill="#0F3D8B"/>
<path d="M88.7598 167.499C104.543 197.232 135.268 219.401 169.15 225.285C195.56 229.908 225.128 224.339 248.277 210.471C256.905 205.217 271.636 192.399 277.633 184.835C280.685 181.052 280.159 181.263 271.11 187.987C254.485 200.595 232.809 209.945 212.501 213.307C203.557 214.778 180.198 214.778 171.254 213.307C143.896 208.685 116.328 194.291 97.7037 174.749C93.9157 170.756 89.4964 165.818 87.8128 163.822C85.0771 160.46 85.1823 160.88 88.7598 167.499Z" fill="#7CE3E2"/>
</svg>
