<svg width="365" height="250" viewBox="0 0 365 250" fill="none" xmlns="http://www.w3.org/2000/svg">
<g clip-path="url(#clip0_704_285)">
<path d="M260.1 120.185C262.245 118.171 262.054 113.842 261.192 111.505C258.052 102.992 252.036 99.5863 237.919 99.5863C237.425 99.5863 236.935 99.5954 236.45 99.6097C236.346 90.8428 226.973 83.3422 220.378 82.6323C201.224 80.5688 160.388 79.7178 147.716 83.7677C141.365 85.7975 135.636 90.9264 135.636 99.758C135.636 99.9335 135.647 100.107 135.652 100.281C134.054 100.023 132.394 99.8843 130.689 99.8843C117.916 99.8843 107.558 107.5 107.558 116.895C107.558 118.182 107.759 119.433 108.127 120.638C107.937 120.635 107.749 120.627 107.558 120.627C106.966 120.627 106.38 120.644 105.795 120.67H104.507C103.5 120.67 102.52 120.814 101.574 121.083C88.2787 123.129 78.2891 131.858 78.2891 142.315C78.2891 154.295 88.1395 163.722 112.251 163.724H261.079C274.043 163.724 282.609 150.959 282.609 141.871C282.609 130.687 272.776 121.474 260.1 120.185Z" fill="#7CE3E2"/>
<path d="M132.312 129.022C132.312 125.936 132.911 123.192 134.109 120.789C135.307 118.355 136.971 116.471 139.1 115.136C141.256 113.771 143.692 113.089 146.407 113.089C149.734 113.089 152.582 114.068 154.951 116.026C157.321 117.985 158.904 120.655 159.702 124.038H152.196C151.637 122.732 150.839 121.738 149.801 121.056C148.789 120.373 147.631 120.032 146.327 120.032C144.224 120.032 142.521 120.848 141.216 122.48C139.912 124.111 139.26 126.292 139.26 129.022C139.26 131.752 139.912 133.933 141.216 135.565C142.521 137.196 144.224 138.013 146.327 138.013C147.631 138.013 148.789 137.671 149.801 136.989C150.839 136.306 151.637 135.312 152.196 134.007H159.702C158.904 137.389 157.321 140.06 154.951 142.018C152.582 143.946 149.734 144.911 146.407 144.911C143.692 144.911 141.256 144.243 139.1 142.908C136.971 141.543 135.307 139.659 134.109 137.256C132.911 134.853 132.312 132.108 132.312 129.022ZM195.626 113.445V144.688H188.799V125.951L182.53 144.688H177.02L170.712 125.907V144.688H163.884V113.445H171.949L179.815 135.075L187.601 113.445H195.626ZM213.791 145C211.156 145 208.734 144.317 206.524 142.953C204.342 141.588 202.598 139.689 201.294 137.256C200.016 134.793 199.377 132.033 199.377 128.978C199.377 125.921 200.016 123.177 201.294 120.744C202.598 118.311 204.342 116.412 206.524 115.047C208.734 113.682 211.156 113 213.791 113C216.426 113 218.836 113.682 221.018 115.047C223.228 116.412 224.958 118.311 226.209 120.744C227.486 123.177 228.125 125.921 228.125 128.978C228.125 132.033 227.486 134.793 226.209 137.256C224.931 139.689 223.201 141.588 221.018 142.953C218.836 144.317 216.426 145 213.791 145ZM213.791 138.057C216.027 138.057 217.811 137.226 219.141 135.565C220.499 133.903 221.178 131.707 221.178 128.978C221.178 126.218 220.499 124.022 219.141 122.391C217.811 120.729 216.027 119.898 213.791 119.898C211.529 119.898 209.719 120.714 208.361 122.346C207.03 123.978 206.365 126.188 206.365 128.978C206.365 131.737 207.03 133.947 208.361 135.609C209.719 137.241 211.529 138.057 213.791 138.057Z" fill="#0F3D8B"/>
<path d="M311.533 128.98H311.173C311.172 140.115 307.202 150.728 299.997 160.403C289.192 174.914 271.1 187.298 248.304 196.043C225.508 204.789 198.013 209.901 168.413 209.901C128.947 209.901 93.2214 200.813 67.3905 186.141C54.4744 178.806 44.0334 170.077 36.8293 160.403C29.6245 150.728 25.6545 140.115 25.6538 128.98C25.6545 117.845 29.6245 107.232 36.8293 97.5574C47.6347 83.0451 65.726 70.6623 88.5224 61.9169C111.318 53.1701 138.813 48.0579 168.413 48.0586C207.879 48.0579 243.605 57.1471 269.437 71.8184C282.352 79.1539 292.793 87.8825 299.997 97.5574C307.202 107.232 311.172 117.844 311.173 128.98H311.533H311.893C311.894 117.67 307.854 106.899 300.575 97.126C289.654 82.4641 271.449 70.0263 248.562 61.2437C225.673 52.4616 198.096 47.3379 168.413 47.3379C128.836 47.3386 93.0033 56.4451 67.0346 71.1921C54.051 78.5658 43.5322 87.3514 36.2518 97.126C28.972 106.899 24.9329 117.67 24.9336 128.98C24.9329 140.291 28.972 151.06 36.2518 160.833C47.1731 175.495 65.3772 187.933 88.2648 196.716C111.154 205.498 138.731 210.621 168.413 210.622C207.99 210.62 243.823 201.515 269.792 186.767C282.775 179.394 293.294 170.609 300.575 160.833C307.854 151.06 311.894 140.291 311.893 128.98H311.533Z" fill="#0F3D8B"/>
<path d="M69.0174 142.838C69.0174 161.913 53.5674 177.375 34.5088 177.375C15.4494 177.375 0 161.913 0 142.838C0 123.761 15.4494 108.299 34.5088 108.299C53.5674 108.299 69.0174 123.761 69.0174 142.838Z" fill="#E6F0FA"/>
<path d="M65.4661 142.839C65.4661 159.951 51.6082 173.82 34.5112 173.82C17.4134 173.82 3.55469 159.951 3.55469 142.839C3.55469 125.727 17.4134 111.855 34.5112 111.855C51.6082 111.855 65.4661 125.727 65.4661 142.839Z" fill="#0F3D8B"/>
<path d="M34.5644 173.819C34.5695 173.819 34.5745 173.819 34.5796 173.819C34.5752 173.819 34.5695 173.819 34.5644 173.819ZM34.7243 173.819C34.7315 173.819 34.7387 173.819 34.7459 173.819C34.738 173.819 34.7315 173.819 34.7243 173.819ZM34.8323 173.818C34.8388 173.818 34.846 173.818 34.8518 173.818C34.8453 173.818 34.8388 173.818 34.8323 173.818ZM34.9483 173.816C34.9511 173.816 34.9547 173.816 34.9583 173.816C34.9547 173.816 34.9518 173.816 34.9483 173.816ZM35.0664 173.815C35.0685 173.815 35.0728 173.815 35.075 173.814C35.0721 173.815 35.0692 173.815 35.0664 173.815ZM35.1737 173.813C35.1786 173.813 35.1823 173.813 35.1873 173.812C35.183 173.813 35.1779 173.813 35.1737 173.813ZM35.2283 173.812C35.232 173.812 35.237 173.812 35.2414 173.812C35.2363 173.812 35.2327 173.812 35.2283 173.812ZM35.2838 173.81C35.2874 173.81 35.2896 173.81 35.2939 173.81C35.2903 173.81 35.2867 173.81 35.2838 173.81ZM35.3414 173.808C35.3436 173.808 35.345 173.808 35.3472 173.808C35.345 173.808 35.3429 173.808 35.3414 173.808ZM3.55469 142.838C3.55469 142.823 3.55469 142.807 3.55469 142.792C3.55469 142.808 3.55469 142.822 3.55469 142.838ZM3.55469 142.729C3.55469 142.718 3.55469 142.709 3.55469 142.698C3.55469 142.708 3.55469 142.719 3.55469 142.729ZM3.55469 142.683C3.55469 142.669 3.55469 142.653 3.55541 142.638C3.55469 142.654 3.55469 142.668 3.55469 142.683ZM3.55541 142.575C3.55541 142.566 3.55541 142.555 3.55613 142.547C3.55541 142.556 3.55541 142.566 3.55541 142.575ZM3.55685 142.431C3.55757 142.418 3.55757 142.406 3.55757 142.393C3.55757 142.406 3.55757 142.419 3.55685 142.431ZM3.55972 142.28C3.55972 142.273 3.55972 142.264 3.55972 142.255C3.55972 142.264 3.55972 142.272 3.55972 142.28ZM3.56044 142.215C3.56044 142.208 3.56117 142.202 3.56117 142.196C3.56117 142.202 3.56044 142.208 3.56044 142.215ZM3.56117 142.169C3.56188 142.163 3.56188 142.157 3.56188 142.15C3.56188 142.156 3.56188 142.163 3.56117 142.169ZM3.56261 142.125C3.56261 142.119 3.56261 142.112 3.56261 142.106C3.56261 142.112 3.56261 142.118 3.56261 142.125ZM3.56333 142.08C3.56405 142.074 3.56405 142.069 3.56405 142.063C3.56405 142.068 3.56333 142.075 3.56333 142.08Z" fill="#0F3D8B"/>
<path d="M34.5111 173.82C17.4134 173.82 3.55469 159.95 3.55469 142.839C3.55469 142.823 3.55469 142.809 3.55469 142.793C3.55469 142.789 3.55469 142.783 3.55469 142.777C3.55469 142.766 3.55469 142.757 3.55469 142.746C3.55469 142.741 3.55469 142.735 3.55469 142.73C3.55469 142.72 3.55469 142.709 3.55469 142.699C3.55469 142.694 3.55469 142.689 3.55469 142.684C3.55469 142.669 3.55469 142.654 3.55541 142.639C3.55541 142.639 3.55541 142.639 3.55541 142.638C3.55541 142.623 3.55541 142.608 3.55541 142.593C3.55541 142.587 3.55541 142.581 3.55541 142.575C3.55541 142.566 3.55541 142.557 3.55613 142.548C3.55613 142.54 3.55613 142.535 3.55613 142.527C3.55613 142.52 3.55613 142.511 3.55613 142.502C3.55613 142.496 3.55613 142.489 3.55613 142.482C3.55685 142.47 3.55685 142.458 3.55685 142.446C3.55685 142.441 3.55685 142.436 3.55685 142.432C3.55757 142.419 3.55757 142.406 3.55757 142.394C3.55757 142.388 3.55757 142.38 3.55757 142.373C3.55829 142.365 3.55829 142.357 3.55829 142.349C3.55829 142.342 3.55829 142.334 3.55829 142.328C3.55901 142.319 3.55901 142.311 3.55901 142.303C3.55901 142.295 3.559 142.288 3.55972 142.281C3.55972 142.272 3.55972 142.265 3.55972 142.256C3.55972 142.243 3.56044 142.23 3.56044 142.215C3.56044 142.209 3.56117 142.202 3.56117 142.197C3.56117 142.188 3.56117 142.178 3.56117 142.17C3.56188 142.164 3.56188 142.157 3.56188 142.151C3.56188 142.143 3.56261 142.134 3.56261 142.125C3.56261 142.119 3.56261 142.113 3.56261 142.107C3.56333 142.098 3.56333 142.09 3.56333 142.081C3.56333 142.075 3.56405 142.069 3.56405 142.064C3.56405 142.046 3.56477 142.026 3.56549 142.007C3.56549 142.005 3.56549 142 3.56549 141.997C3.56621 141.986 3.56621 141.977 3.56621 141.966C3.56693 141.961 3.56693 141.959 3.56693 141.954C3.56693 141.945 3.56765 141.933 3.56765 141.923C3.56765 141.92 3.56765 141.916 3.56838 141.913C3.56981 141.862 3.57125 141.812 3.57269 141.761V141.759C4.02564 128.531 12.7664 117.416 24.7557 113.434C20.8793 121.474 20.4314 130.167 24.0414 139.055C27.7262 148.134 34.3275 155.919 43.5493 159.573C48.292 161.452 53.2177 162.413 58.2239 162.748C52.7114 169.318 44.5294 173.566 35.3472 173.809C35.345 173.809 35.3436 173.809 35.3414 173.809C35.3248 173.81 35.3105 173.81 35.2939 173.811C35.2896 173.811 35.2874 173.811 35.2838 173.811C35.2694 173.812 35.255 173.812 35.2414 173.812C35.237 173.812 35.232 173.812 35.2283 173.812C35.2147 173.813 35.201 173.813 35.1873 173.813C35.1823 173.814 35.1786 173.814 35.1737 173.814C35.1592 173.814 35.1463 173.814 35.1326 173.814C35.1283 173.814 35.124 173.814 35.1196 173.814C35.1045 173.815 35.0901 173.815 35.075 173.815C35.0728 173.816 35.0685 173.816 35.0664 173.816C35.0303 173.816 34.9936 173.816 34.9583 173.817C34.9547 173.817 34.9511 173.817 34.9483 173.817C34.9338 173.818 34.9187 173.818 34.9043 173.818C34.8993 173.818 34.8942 173.818 34.8892 173.818C34.8769 173.819 34.864 173.819 34.8518 173.819C34.846 173.819 34.8388 173.819 34.8323 173.819C34.8208 173.819 34.8107 173.819 34.7991 173.82C34.792 173.82 34.7848 173.82 34.7776 173.82C34.7675 173.82 34.756 173.82 34.7459 173.82C34.7387 173.82 34.7315 173.82 34.7243 173.82C34.7135 173.82 34.7019 173.82 34.6918 173.82C34.6847 173.82 34.6782 173.82 34.671 173.82C34.6595 173.82 34.6487 173.82 34.6372 173.82C34.6307 173.82 34.6242 173.82 34.6177 173.82C34.6047 173.82 34.5925 173.82 34.5796 173.82C34.5745 173.82 34.5695 173.82 34.5644 173.82C34.5464 173.82 34.5292 173.82 34.5111 173.82Z" fill="#0F3D8B"/>
<mask id="mask0_704_285" style="mask-type:luminance" maskUnits="userSpaceOnUse" x="3" y="111" width="63" height="63">
<path d="M65.4661 142.839C65.4661 159.951 51.6082 173.82 34.5112 173.82C17.4134 173.82 3.55469 159.951 3.55469 142.839C3.55469 125.727 17.4134 111.855 34.5112 111.855C51.6082 111.855 65.4661 125.727 65.4661 142.839Z" fill="white"/>
</mask>
<g mask="url(#mask0_704_285)">
<path d="M24.8727 165.752C25.057 166.29 24.7669 166.875 24.2289 167.059L20.202 168.418C19.6619 168.6 19.0779 168.311 18.8942 167.767L13.7318 152.446C13.551 151.909 13.8383 151.322 14.3777 151.14L18.4053 149.78C18.9425 149.6 19.5287 149.889 19.7102 150.429L24.8727 165.752Z" fill="white"/>
<path d="M20.8379 152.35C20.9611 152.973 20.5593 153.577 19.9385 153.699L14.0343 154.877C13.4143 154.999 12.8108 154.596 12.6891 153.975L10.2227 141.6C10.1017 140.979 10.5028 140.376 11.1243 140.25L17.0242 139.075C17.6493 138.951 18.252 139.353 18.3759 139.976L20.8379 152.35Z" fill="white"/>
<path d="M57.972 155.92L20.7902 152.519L18.2402 139.699L50.6247 119.021L57.972 155.92Z" fill="#7CE3E2"/>
<path d="M20.6609 152.545L19.7773 147.252C23.8906 144.731 28.6017 143.426 32.8936 142.837C38.7777 142.034 46.9582 141.633 49.7479 135.341C50.6358 133.343 51.4186 130.955 52.5312 129.271L57.8421 155.95L20.6609 152.545Z" fill="white"/>
<path d="M57.2401 136.885C59.2708 147.077 59.5963 155.598 57.971 155.921C56.3421 156.247 53.3824 148.249 51.3545 138.059C49.3238 127.87 48.999 119.346 50.6236 119.021C52.2525 118.699 55.2136 126.694 57.2401 136.885Z" fill="white"/>
<path d="M20.9426 146.82L20.9232 146.811L20.9412 146.824L20.9426 146.82L20.9232 146.811L20.9412 146.824C20.9498 146.806 21.0607 146.716 21.2249 146.624C22.398 145.944 26.301 144.497 27.2789 144.226C30.0031 143.465 32.1534 143.15 34.5658 142.835C36.8579 142.532 39.2041 142.28 41.494 141.759C44.0541 141.18 46.5558 139.995 48.1919 138.079C48.256 138.003 48.2473 137.889 48.1717 137.824C48.0961 137.76 47.9824 137.769 47.9175 137.844C46.3556 139.679 43.923 140.842 41.4141 141.408C39.1515 141.922 36.8169 142.174 34.519 142.477C32.1045 142.794 29.929 143.111 27.1817 143.878C26.584 144.046 25.0351 144.598 23.5927 145.171C22.8718 145.458 22.1798 145.75 21.649 146.001C21.384 146.127 21.1586 146.243 20.9872 146.346C20.8145 146.455 20.6992 146.522 20.6207 146.659C20.5761 146.748 20.6121 146.856 20.7014 146.901C20.7899 146.946 20.8979 146.909 20.9426 146.82Z" fill="white"/>
<path d="M52.6568 143.866C51.9079 140.89 51.0315 136.919 50.8464 135.356C50.7413 134.45 50.441 133.161 50.2617 131.754C50.5728 131.641 51.0142 131.459 51.3462 131.393C54.7804 130.708 58.1132 132.937 58.798 136.372C59.4835 139.808 57.2562 143.145 53.8227 143.83C53.4641 143.904 53.0096 143.857 52.6568 143.866Z" fill="#7CE3E2"/>
<path d="M53.9695 137.861C52.6676 137.448 51.6673 136.778 50.9277 135.904C51.2107 137.714 51.9863 141.19 52.6596 143.866C53.0125 143.857 53.4669 143.904 53.8255 143.83C56.855 143.226 58.9441 140.553 58.9218 137.569C57.4239 138.307 55.4739 138.344 53.9695 137.861Z" fill="#7CE3E2"/>
<path d="M20.8402 152.35L19.5749 145.99C18.2528 147.328 16.2019 148.074 14.3261 147.844C13.104 147.696 12.0771 147.275 11.2324 146.655L12.6914 153.975C12.8131 154.596 13.4165 154.999 14.0365 154.876L19.9408 153.699C20.5615 153.576 20.9634 152.972 20.8402 152.35Z" fill="white"/>
</g>
<path d="M130.758 46.6419C130.758 65.7165 115.308 81.1803 96.25 81.1803C77.1911 81.1803 61.7402 65.7165 61.7402 46.6419C61.7402 27.5669 77.1911 12.1035 96.25 12.1035C115.308 12.1035 130.758 27.5669 130.758 46.6419Z" fill="#E6F0FA"/>
<path d="M127.208 46.6418C127.208 63.7535 113.349 77.625 96.2513 77.625C79.1539 77.625 65.2949 63.7535 65.2949 46.6418C65.2949 29.5294 79.1539 15.6582 96.2513 15.6582C113.349 15.6582 127.208 29.5294 127.208 46.6418Z" fill="#0F3D8B"/>
<path d="M96.305 77.6261C96.3102 77.6261 96.3154 77.6261 96.3199 77.6261C96.3154 77.6261 96.3096 77.6261 96.305 77.6261ZM96.4118 77.6261C96.4189 77.6261 96.4241 77.6261 96.4312 77.6261C96.4248 77.6261 96.4183 77.6261 96.4118 77.6261ZM96.4649 77.6248C96.472 77.6248 96.4778 77.6248 96.4849 77.6248C96.4785 77.6248 96.4714 77.6248 96.4649 77.6248ZM96.5743 77.6242C96.5807 77.6242 96.5853 77.6242 96.5911 77.6242C96.5859 77.6242 96.5794 77.6242 96.5743 77.6242ZM96.6332 77.6235C96.6364 77.6235 96.6409 77.6235 96.6435 77.6235C96.6396 77.6235 96.6364 77.6235 96.6332 77.6235ZM96.8629 77.6203H96.8648C96.8648 77.6203 96.8642 77.6203 96.8629 77.6203ZM65.2949 46.6429C65.2949 46.6277 65.2949 46.6119 65.2949 46.5975C65.2949 46.6126 65.2949 46.627 65.2949 46.6429ZM65.2949 46.5816C65.2949 46.5708 65.2949 46.5615 65.2949 46.5506C65.2949 46.56 65.2949 46.5722 65.2949 46.5816ZM65.2962 46.3805C65.2962 46.3712 65.2962 46.3611 65.2962 46.351C65.2962 46.3604 65.2962 46.3712 65.2962 46.3805ZM65.2962 46.3323C65.2962 46.3236 65.2962 46.3142 65.2969 46.3056C65.2962 46.315 65.2962 46.3229 65.2962 46.3323ZM65.2995 46.085C65.2995 46.0764 65.2995 46.0677 65.3001 46.0591C65.2995 46.0685 65.2995 46.0756 65.2995 46.085ZM65.3014 46.0223C65.3014 46.0151 65.3014 46.0079 65.3014 46C65.3014 46.0086 65.3014 46.0144 65.3014 46.0223ZM65.3027 45.9293C65.3027 45.9236 65.3033 45.9171 65.3033 45.9113C65.3033 45.9171 65.3027 45.9229 65.3027 45.9293ZM65.304 45.8846C65.304 45.8789 65.304 45.8738 65.304 45.8681C65.304 45.8731 65.304 45.8796 65.304 45.8846ZM65.3053 45.8141C65.3053 45.809 65.3053 45.8061 65.3059 45.801C65.3053 45.8054 65.3053 45.8097 65.3053 45.8141ZM65.313 45.5654V45.5625C65.313 45.5625 65.313 45.5639 65.313 45.5654Z" fill="#0F3D8B"/>
<path d="M96.2513 77.626C79.1539 77.626 65.2949 63.7544 65.2949 46.6427C65.2949 46.6269 65.2949 46.6125 65.2949 46.5973C65.2949 46.5923 65.2949 46.5865 65.2949 46.5815C65.2949 46.5721 65.2949 46.5598 65.2949 46.5505C65.2949 46.5455 65.2949 46.539 65.2949 46.5339C65.2949 46.5231 65.2949 46.513 65.2956 46.5022C65.2956 46.4972 65.2956 46.4929 65.2956 46.4878C65.2956 46.4575 65.2956 46.4273 65.2956 46.397C65.2956 46.392 65.2962 46.3854 65.2962 46.3804C65.2962 46.3711 65.2962 46.3602 65.2962 46.3508C65.2962 46.3444 65.2962 46.3386 65.2962 46.3321C65.2962 46.3227 65.2962 46.3148 65.2969 46.3054C65.2969 46.299 65.2969 46.2932 65.2969 46.286C65.2969 46.2738 65.2969 46.2608 65.2969 46.2485C65.2975 46.2442 65.2975 46.2413 65.2975 46.2377C65.2975 46.224 65.2975 46.211 65.2975 46.1981C65.2982 46.1909 65.2982 46.1844 65.2982 46.1771C65.2982 46.1692 65.2982 46.1606 65.2982 46.1527C65.2988 46.1462 65.2988 46.1382 65.2988 46.1317C65.2988 46.1231 65.2988 46.1152 65.2988 46.1073C65.2995 46.0994 65.2995 46.0921 65.2995 46.0849C65.2995 46.0755 65.2995 46.0683 65.3001 46.0589C65.3001 46.0467 65.3001 46.0345 65.3014 46.0222C65.3014 46.0143 65.3014 46.0085 65.3014 45.9999C65.3014 45.9919 65.302 45.9826 65.302 45.9746C65.302 45.9681 65.302 45.961 65.302 45.9545C65.3027 45.9465 65.3027 45.9379 65.3027 45.9292C65.3027 45.9227 65.3033 45.917 65.3033 45.9112C65.3033 45.9019 65.3033 45.8939 65.304 45.8845C65.304 45.8795 65.304 45.873 65.304 45.8679C65.3046 45.8507 65.3053 45.8312 65.3053 45.8139C65.3053 45.8096 65.3053 45.8053 65.3059 45.801C65.3059 45.7909 65.3059 45.7801 65.3066 45.7707C65.3066 45.7663 65.3066 45.7628 65.3066 45.7584C65.3079 45.7483 65.3079 45.7368 65.3085 45.7267C65.3085 45.7231 65.3085 45.7202 65.3085 45.7173C65.3098 45.6661 65.3111 45.6157 65.313 45.5653C65.313 45.5638 65.313 45.5631 65.313 45.5624C65.7654 32.3355 74.5054 21.2211 86.4966 17.2383C84.2031 21.9929 83.1094 26.9761 83.3449 32.0926L79.6788 32.1942C77.3639 32.2584 75.5292 34.1546 75.5272 36.4588C75.5272 36.4999 75.5272 36.5416 75.5292 36.5828L76.0915 56.981C76.1556 59.2974 78.0492 61.1324 80.3505 61.1346C80.3525 61.1346 80.3538 61.1346 80.3551 61.1346C80.3952 61.1346 80.436 61.1338 80.4761 61.1324L81.7808 61.0971C81.7096 62.0383 81.5769 63.0157 81.3485 63.9944C80.214 68.8248 77.5153 69.4867 77.5153 69.4867C77.538 69.4958 78.5165 69.9019 80.113 69.9019C80.1137 69.9019 80.115 69.9019 80.1156 69.9019C80.1227 69.9019 80.1298 69.9019 80.137 69.9019C81.9244 69.898 84.4794 69.3857 87.3321 67.2542C87.3418 67.2471 87.3502 67.2406 87.36 67.2335C87.3891 67.2108 87.4195 67.1888 87.4493 67.1661C87.4557 67.1616 87.4616 67.1571 87.4674 67.1525C87.4719 67.1493 87.4764 67.1454 87.481 67.1422C88.7248 66.1901 90.0308 64.5328 91.195 62.798C91.6416 62.1321 92.0681 61.4552 92.4609 60.8023L99.8942 60.5969C101.579 61.6845 103.377 62.6192 105.289 63.3768C110.033 65.2562 114.957 66.2173 119.964 66.5528C114.429 73.148 106.203 77.4051 96.9761 77.6176C96.9749 77.6176 96.9742 77.6176 96.9736 77.6176C96.9567 77.6182 96.9386 77.6182 96.9224 77.6195C96.9198 77.6195 96.9192 77.6195 96.9173 77.6195C96.8998 77.6195 96.8823 77.6201 96.8648 77.6201H96.8629C96.7898 77.6214 96.7173 77.6227 96.6435 77.6234C96.6409 77.6234 96.6364 77.6234 96.6332 77.6234C96.6189 77.624 96.6053 77.624 96.5911 77.624C96.5853 77.624 96.5807 77.624 96.5743 77.624C96.562 77.624 96.5503 77.6247 96.5387 77.6247C96.5322 77.6247 96.5257 77.6247 96.5193 77.6247C96.5076 77.6247 96.4966 77.6247 96.4849 77.6247C96.4778 77.6247 96.472 77.6247 96.4649 77.6247C96.4532 77.626 96.4429 77.626 96.4312 77.626C96.4241 77.626 96.4189 77.626 96.4118 77.626C96.4002 77.626 96.3885 77.626 96.3769 77.626C96.3704 77.626 96.3639 77.626 96.3575 77.626C96.3452 77.626 96.3329 77.626 96.3199 77.626C96.3154 77.626 96.3102 77.626 96.305 77.626C96.2869 77.626 96.2688 77.626 96.2513 77.626Z" fill="#0F3D8B"/>
<path d="M120.895 55.7427C120.961 58.1024 119.104 60.0664 116.747 60.1312L80.4779 61.1323C78.1209 61.198 76.1581 59.3391 76.0934 56.9809L75.531 36.5827C75.465 34.2237 77.3236 32.2597 79.6806 32.1941L115.948 31.1931C118.303 31.1275 120.269 32.9862 120.333 35.3452L120.895 55.7427Z" fill="white"/>
<path d="M77.5156 69.4848C77.5156 69.4848 80.2149 68.8229 81.3488 63.9927C82.4826 59.1616 81.3261 54.2656 81.3261 54.2656L94.9127 56.3334C94.9127 56.3334 90.9404 64.5051 87.4677 67.1512C81.9526 71.3566 77.5156 69.4848 77.5156 69.4848Z" fill="white"/>
<path d="M91.2856 44.0873C91.3166 45.3932 90.2831 46.4772 88.9771 46.5082C87.6724 46.5384 86.5897 45.505 86.5593 44.199C86.527 42.8923 87.5618 41.809 88.8658 41.778C90.1724 41.7471 91.2545 42.7813 91.2856 44.0873Z" fill="#0F3D8B"/>
<path d="M101.274 43.8521C101.306 45.1589 100.275 46.2421 98.9679 46.2723C97.6626 46.3041 96.5793 45.2698 96.5495 43.9646C96.5191 42.6579 97.5526 41.5732 98.8579 41.5436C100.163 41.5126 101.244 42.5462 101.274 43.8521Z" fill="#7CE3E2"/>
<path d="M111.263 43.6173C111.294 44.9232 110.262 46.0064 108.957 46.0382C107.652 46.0684 106.569 45.0342 106.538 43.7275C106.509 42.4215 107.541 41.3383 108.845 41.3073C110.151 41.277 111.233 42.3106 111.263 43.6173Z" fill="#0F3D8B"/>
<path d="M80.1387 69.9011C81.9255 69.8965 84.4818 69.3842 87.3338 67.2534C84.4805 69.3849 81.9255 69.8972 80.1387 69.9011ZM87.482 67.1414C88.7252 66.1893 90.0312 64.5322 91.1968 62.7974C90.0325 64.5322 88.7265 66.1893 87.482 67.1414ZM81.3495 63.9938C81.5786 63.015 81.7113 62.0377 81.7825 61.0964L80.4778 61.1318L81.7857 61.0957C81.7145 62.037 81.5786 63.0165 81.3495 63.9938Z" fill="#0F3D8B"/>
<path d="M99.8939 60.5964L99.8926 60.5958L116.744 60.1309L99.8939 60.5964Z" fill="#0F3D8B"/>
<path d="M92.4629 60.8019L92.4635 60.8012L99.8949 60.5957L99.8962 60.5964L92.4629 60.8019Z" fill="#0F3D8B"/>
<path d="M80.3571 61.1346C80.3558 61.1346 80.3539 61.1346 80.3526 61.1346C78.0513 61.1318 76.157 59.2975 76.093 56.981L75.5306 36.5828C75.5293 36.5418 75.5293 36.5 75.5293 36.4588C75.5306 34.1547 77.3659 32.2584 79.6808 32.1943L80.9752 32.1582C80.6775 36.6952 81.5583 41.1754 84.6782 44.8821C89.0822 50.1117 96.5446 51.7261 103.028 52.1939C104.393 52.2919 105.763 52.3388 107.135 52.3388C111.692 52.3388 116.271 51.8242 120.764 50.978L120.895 55.7428C120.897 55.7846 120.897 55.8257 120.897 55.8668C120.895 58.171 119.062 60.0679 116.746 60.1313L99.895 60.5962L92.4636 60.8017C93.9068 58.4074 94.9138 56.3353 94.9138 56.3353L81.3272 54.2675C81.3272 54.2675 82.0631 57.3832 81.7854 61.0964L80.4782 61.1325C80.4374 61.1339 80.3973 61.1346 80.3571 61.1346Z" fill="#EFF4FB"/>
<path d="M80.1159 69.9C80.1153 69.9 80.1146 69.9 80.114 69.9C78.5174 69.8993 77.5389 69.4945 77.5156 69.4854C77.5156 69.4854 80.2149 68.8229 81.3488 63.9926C81.5779 63.0154 81.7144 62.0359 81.785 61.0946C82.0619 57.3814 81.3261 54.2656 81.3261 54.2656L94.9127 56.3334C94.9127 56.3334 93.9057 58.4055 92.4625 60.7998C92.4619 60.8005 92.4619 60.7998 92.4619 60.8005C92.0684 61.4535 91.6425 62.1303 91.196 62.7963C90.0305 64.531 88.7245 66.1882 87.4813 67.1402C87.4774 67.1435 87.4722 67.1474 87.4677 67.1512C87.4619 67.1551 87.456 67.1597 87.4496 67.1649C87.4205 67.1869 87.39 67.2095 87.3603 67.2316C87.3512 67.2387 87.3428 67.2452 87.3331 67.2523C84.481 69.3831 81.9254 69.8954 80.1379 69.9C80.1308 69.9 80.1237 69.9 80.1159 69.9Z" fill="#EFF4FB"/>
<path d="M83.9189 53.2382L112.004 52.7883C112.103 52.7869 112.183 52.7054 112.181 52.6052C112.179 52.5057 112.098 52.4263 111.999 52.4278L83.9131 52.8778C83.8134 52.8792 83.7338 52.9614 83.7364 53.0609C83.7377 53.1604 83.8192 53.2397 83.9189 53.2382Z" fill="#27355C"/>
<path d="M82.6142 55.0444L113.543 54.6671C113.643 54.6657 113.723 54.5842 113.721 54.4848C113.72 54.3852 113.639 54.3052 113.539 54.3067L82.6096 54.6838C82.51 54.6852 82.4304 54.7667 82.4317 54.8662C82.433 54.9657 82.5145 55.0451 82.6142 55.0444Z" fill="#27355C"/>
<path d="M249.79 34.5383C249.79 53.6139 234.34 69.0771 215.281 69.0771C196.223 69.0771 180.771 53.6139 180.771 34.5383C180.771 15.4633 196.223 0 215.281 0C234.34 0 249.79 15.4633 249.79 34.5383Z" fill="#E6F0FA"/>
<path d="M246.238 34.5376C246.238 51.6499 232.38 65.5205 215.282 65.5205C198.186 65.5205 184.326 51.6499 184.326 34.5376C184.326 17.4266 198.186 3.55469 215.282 3.55469C232.38 3.55469 246.238 17.4266 246.238 34.5376Z" fill="#0F3D8B"/>
<path d="M215.336 65.5218C215.34 65.5218 215.345 65.5218 215.351 65.5218C215.346 65.5218 215.34 65.5218 215.336 65.5218ZM215.442 65.5218C215.45 65.5218 215.455 65.5218 215.462 65.5218C215.455 65.5218 215.448 65.5218 215.442 65.5218ZM215.496 65.5211C215.503 65.5211 215.509 65.5211 215.516 65.5211C215.51 65.5211 215.502 65.5211 215.496 65.5211ZM215.662 65.5198C215.666 65.5198 215.671 65.5198 215.675 65.5198C215.67 65.5198 215.666 65.5198 215.662 65.5198ZM215.725 65.5192H215.728C215.728 65.5192 215.727 65.5192 215.725 65.5192ZM215.893 65.5159C215.894 65.5159 215.896 65.5159 215.898 65.5159C215.895 65.5159 215.895 65.5159 215.893 65.5159ZM215.947 65.5153C215.95 65.5153 215.952 65.5153 215.954 65.5153C215.952 65.5153 215.949 65.5153 215.947 65.5153ZM216.06 65.5127C216.06 65.5127 216.06 65.5127 216.061 65.5127H216.06ZM184.326 34.5389C184.326 34.5237 184.326 34.5086 184.326 34.4935C184.326 34.5093 184.326 34.523 184.326 34.5389ZM184.326 34.4777C184.326 34.4669 184.326 34.4582 184.326 34.4474C184.326 34.4575 184.326 34.4676 184.326 34.4777ZM184.326 34.4301C184.326 34.4193 184.326 34.4099 184.326 34.399C184.326 34.4092 184.326 34.42 184.326 34.4301ZM184.326 34.3847C184.326 34.3544 184.327 34.3234 184.327 34.2932C184.327 34.3234 184.326 34.3537 184.326 34.3847ZM184.327 34.2773C184.327 34.2679 184.327 34.2571 184.328 34.247C184.327 34.2564 184.327 34.2679 184.327 34.2773ZM184.328 34.1829C184.329 34.1699 184.329 34.1562 184.329 34.1432C184.329 34.1569 184.329 34.1691 184.328 34.1829ZM184.33 34.0286C184.331 34.0207 184.331 34.0113 184.331 34.0027C184.331 34.0121 184.331 34.0193 184.33 34.0286ZM184.333 33.8722C184.333 33.865 184.333 33.8579 184.333 33.8499C184.333 33.8571 184.333 33.865 184.333 33.8722ZM184.335 33.8268C184.335 33.8203 184.335 33.8124 184.335 33.8052C184.335 33.8131 184.335 33.8196 184.335 33.8268ZM184.335 33.7821C184.336 33.7742 184.336 33.7663 184.336 33.7591C184.336 33.767 184.336 33.7735 184.335 33.7821ZM184.337 33.7187C184.337 33.7108 184.337 33.7036 184.337 33.6963C184.337 33.7036 184.337 33.7115 184.337 33.7187ZM184.338 33.6697C184.338 33.6647 184.338 33.6582 184.338 33.6538C184.338 33.6596 184.338 33.6639 184.338 33.6697ZM184.341 33.5796V33.5782C184.341 33.5796 184.341 33.5782 184.341 33.5796ZM184.346 33.4225C184.346 33.4204 184.346 33.4189 184.346 33.416C184.346 33.4182 184.346 33.4204 184.346 33.4225Z" fill="#0F3D8B"/>
<path d="M219.309 65.261L224.149 51.5034H224.918C229.476 53.2303 234.198 54.1254 238.997 54.4476C234.131 60.2452 227.186 64.2351 219.309 65.261ZM211.131 65.2441C202.034 64.024 194.187 58.8484 189.375 51.5034H215.967L211.131 65.2441ZM214.243 49.8818H188.383C185.801 45.3577 184.326 40.1201 184.326 34.5373C184.326 34.5215 184.326 34.5077 184.326 34.4919C184.326 34.4869 184.326 34.4811 184.326 34.4761C184.326 34.466 184.326 34.4559 184.326 34.4458C184.326 34.4407 184.326 34.4335 184.326 34.4285C184.326 34.4184 184.326 34.4076 184.326 34.3975C184.326 34.3925 184.326 34.3881 184.326 34.3831C184.326 34.3521 184.327 34.3218 184.327 34.2916C184.327 34.2865 184.327 34.2807 184.327 34.2757C184.327 34.2663 184.327 34.2548 184.328 34.2454C184.328 34.239 184.328 34.2339 184.328 34.2274C184.328 34.2181 184.328 34.2094 184.328 34.2C184.328 34.1943 184.328 34.187 184.328 34.1813C184.329 34.1676 184.329 34.1553 184.329 34.1416C184.329 34.1388 184.329 34.1373 184.329 34.1344C184.329 34.1208 184.329 34.1063 184.329 34.0926C184.329 34.0868 184.329 34.0789 184.329 34.0732C184.33 34.0638 184.33 34.0559 184.33 34.0473C184.33 34.04 184.33 34.0342 184.33 34.0271C184.331 34.0177 184.331 34.0105 184.331 34.0011C184.331 33.9932 184.331 33.9881 184.331 33.9802C184.331 33.9701 184.331 33.9607 184.331 33.9507C184.331 33.942 184.332 33.9319 184.332 33.9232C184.332 33.9131 184.332 33.9045 184.333 33.8944C184.333 33.8872 184.333 33.8785 184.333 33.8706C184.333 33.8634 184.333 33.8555 184.333 33.8483C184.333 33.8397 184.335 33.8339 184.335 33.8252C184.335 33.818 184.335 33.8116 184.335 33.8036C184.335 33.7957 184.335 33.7885 184.335 33.7805C184.336 33.7719 184.336 33.7654 184.336 33.7575C184.336 33.7438 184.337 33.7301 184.337 33.7171C184.337 33.7099 184.337 33.702 184.337 33.6948C184.338 33.6854 184.338 33.6775 184.338 33.6681C184.338 33.6623 184.338 33.658 184.338 33.6522C184.338 33.6414 184.339 33.6335 184.339 33.6234C184.339 33.6191 184.339 33.6134 184.34 33.6098C184.34 33.5982 184.34 33.5888 184.341 33.578C184.341 33.5766 184.341 33.578 184.341 33.5766C184.342 33.5384 184.343 33.5024 184.344 33.4642C184.344 33.4613 184.344 33.4576 184.344 33.4548C184.345 33.4432 184.345 33.4324 184.346 33.4209C184.346 33.4188 184.346 33.4166 184.346 33.4144C184.817 20.207 193.55 9.11125 205.527 5.13281C201.651 13.1733 201.203 21.8654 204.812 30.7549C206.974 36.0768 210.137 40.9555 214.243 44.8171V49.8818ZM217.087 48.3199V47.2107C217.19 47.2878 217.293 47.3642 217.396 47.4399L217.087 48.3199Z" fill="#0F3D8B"/>
<mask id="mask1_704_285" style="mask-type:luminance" maskUnits="userSpaceOnUse" x="184" y="3" width="63" height="63">
<path d="M246.231 34.5376C246.231 51.6499 232.372 65.5205 215.274 65.5205C198.177 65.5205 184.318 51.6499 184.318 34.5376C184.318 17.4266 198.177 3.55469 215.274 3.55469C232.372 3.55469 246.231 17.4266 246.231 34.5376Z" fill="white"/>
</mask>
<g mask="url(#mask1_704_285)">
<path d="M197.233 50.6093H191.721V23.6523H197.233V50.6093Z" fill="#7CE3E2"/>
<path d="M210.886 50.6107H205.377V21.3027H210.886V50.6107Z" fill="#7CE3E2"/>
<path d="M219.027 50.6101H224.539V11.9551H219.027V50.6101Z" fill="#7CE3E2"/>
<path d="M189.365 50.6108H186.523V28.8828H189.365V50.6108Z" fill="#C1D0EE"/>
<path d="M202.391 50.6108H199.551V28.8828H202.391V50.6108Z" fill="#C1D0EE"/>
<path d="M214.232 50.6107H217.077V28.8828H214.232V50.6107Z" fill="#C1D0EE"/>
<path d="M147.977 51.5045H228.51V49.8828H147.977V51.5045Z" fill="white"/>
<path d="M214.318 74.2293C213.927 75.3407 212.708 75.9262 211.595 75.5337C210.482 75.1425 209.898 73.921 210.29 72.8077L220.949 42.5182C221.341 41.4054 222.559 40.8188 223.67 41.2123C224.782 41.6036 225.369 42.8245 224.975 43.9359L214.318 74.2293Z" fill="#0F3D8B"/>
<path d="M217.503 47.1152L208.548 72.5639C207.841 74.5768 208.897 76.7834 210.907 77.49C212.917 78.1992 215.123 77.1416 215.83 75.1286L224.781 49.6818L217.503 47.1152Z" fill="white"/>
<path d="M214.506 65.511C213.363 65.4838 212.235 65.3938 211.125 65.2448L217.505 47.1152L220.595 48.2057L214.506 65.511Z" fill="#0F3D8B"/>
<path d="M241.077 37.2164C238.705 44.9391 230.528 49.2743 222.814 46.9009C215.098 44.5289 210.765 36.3414 213.137 28.6202C215.509 20.8983 223.686 16.5623 231.402 18.9372C239.118 21.309 243.45 29.4945 241.077 37.2164Z" fill="white"/>
<path d="M239.115 36.6126C237.075 43.2491 230.047 46.9775 223.417 44.9349C216.783 42.8945 213.058 35.8594 215.097 29.2222C217.135 22.5849 224.164 18.8573 230.798 20.8985C237.431 22.9403 241.153 29.9746 239.115 36.6126Z" fill="#0F3D8B"/>
<path d="M238.325 36.3351C236.416 42.547 229.838 46.0361 223.63 44.1248C217.423 42.2155 213.938 35.6301 215.847 29.4196C217.756 23.2061 224.332 19.7178 230.54 21.6285C236.748 23.5384 240.232 30.1223 238.325 36.3351Z" fill="white"/>
<path d="M227.058 44.7752C225.91 44.7752 224.743 44.6065 223.588 44.2512C217.349 42.3311 213.848 35.7119 215.765 29.4711C216.878 25.8444 219.575 23.1445 222.861 21.8926C219.612 23.1467 216.949 25.8277 215.845 29.4192C213.937 35.6298 217.422 42.2151 223.628 44.1243C224.78 44.4789 225.944 44.6476 227.089 44.6476C229.062 44.6476 230.978 44.1459 232.67 43.2314C232.712 43.2487 232.755 43.266 232.797 43.2825C231.063 44.2454 229.091 44.7752 227.058 44.7752Z" fill="#0F3D8B"/>
<path d="M227.09 44.6473C225.946 44.6473 224.782 44.4786 223.63 44.124C217.423 42.2148 213.938 35.6295 215.847 29.4189C216.951 25.8274 219.614 23.1464 222.862 21.8923C223.739 21.5578 224.658 21.3272 225.601 21.209C225.202 22.0285 224.862 22.8905 224.584 23.7921C222.077 31.9508 225.678 40.3806 232.672 43.231C230.979 44.1456 229.064 44.6473 227.09 44.6473Z" fill="#0F3D8B"/>
</g>
<path d="M157.497 215.462C157.497 234.538 142.046 250 122.988 250C103.928 250 88.4785 234.538 88.4785 215.462C88.4785 196.388 103.928 180.924 122.988 180.924C142.046 180.924 157.497 196.388 157.497 215.462Z" fill="white"/>
<path d="M153.943 215.462C153.943 232.573 140.086 246.445 122.988 246.445C105.891 246.445 92.0312 232.573 92.0312 215.462C92.0312 198.351 105.891 184.479 122.988 184.479C140.086 184.479 153.943 198.351 153.943 215.462Z" fill="#0F3D8B"/>
<path d="M123.042 246.445C123.047 246.445 123.052 246.445 123.057 246.445C123.052 246.445 123.046 246.445 123.042 246.445ZM123.095 246.445C123.101 246.445 123.107 246.445 123.114 246.445C123.107 246.445 123.102 246.445 123.095 246.445ZM123.202 246.445C123.21 246.445 123.215 246.445 123.222 246.445C123.215 246.445 123.208 246.445 123.202 246.445ZM123.312 246.443C123.318 246.443 123.322 246.443 123.327 246.443C123.322 246.443 123.317 246.443 123.312 246.443ZM92.0312 215.462C92.0312 215.447 92.0312 215.431 92.0312 215.416C92.0312 215.432 92.0312 215.445 92.0312 215.462ZM92.0312 215.4C92.0312 215.39 92.0312 215.381 92.0312 215.37C92.0312 215.38 92.0312 215.39 92.0312 215.4ZM92.0312 215.353C92.0312 215.342 92.0312 215.332 92.0312 215.321C92.0312 215.332 92.0312 215.342 92.0312 215.353ZM92.0319 215.2C92.0319 215.19 92.0319 215.18 92.0319 215.169C92.0319 215.179 92.0319 215.191 92.0319 215.2ZM92.0332 215.059C92.0332 215.045 92.0338 215.031 92.0338 215.017C92.0338 215.03 92.0332 215.045 92.0332 215.059ZM92.0351 214.951C92.0351 214.943 92.0358 214.933 92.0358 214.925C92.0358 214.935 92.0351 214.942 92.0351 214.951ZM92.0358 214.905C92.0364 214.895 92.0364 214.885 92.0364 214.875C92.0364 214.885 92.0364 214.894 92.0358 214.905ZM92.0377 214.795C92.0377 214.787 92.0384 214.78 92.0384 214.772C92.0384 214.78 92.0377 214.787 92.0377 214.795ZM92.039 214.75C92.039 214.743 92.039 214.735 92.039 214.728C92.039 214.736 92.039 214.742 92.039 214.75ZM92.0397 214.704C92.0397 214.697 92.0403 214.69 92.0403 214.682C92.0403 214.69 92.0397 214.696 92.0397 214.704ZM92.0416 214.64C92.0423 214.633 92.0423 214.627 92.0423 214.619C92.0423 214.626 92.0423 214.633 92.0416 214.64ZM92.0429 214.592C92.0429 214.587 92.0435 214.581 92.0435 214.576C92.0429 214.582 92.0429 214.586 92.0429 214.592ZM92.0507 214.345C92.0507 214.343 92.0507 214.341 92.0507 214.338C92.0507 214.34 92.0507 214.344 92.0507 214.345Z" fill="#0F3D8B"/>
<path d="M122.988 246.446C105.891 246.446 92.0312 232.573 92.0312 215.462C92.0312 215.446 92.0312 215.432 92.0312 215.417C92.0312 215.412 92.0312 215.406 92.0312 215.401C92.0312 215.391 92.0312 215.38 92.0312 215.37C92.0312 215.366 92.0312 215.358 92.0312 215.353C92.0312 215.343 92.0312 215.333 92.0312 215.322C92.0312 215.316 92.0312 215.312 92.0312 215.307C92.0312 215.277 92.0319 215.246 92.0319 215.217C92.0319 215.211 92.0319 215.206 92.0319 215.2C92.0319 215.191 92.0319 215.18 92.0319 215.17C92.0319 215.163 92.0325 215.158 92.0325 215.152C92.0325 215.143 92.0325 215.134 92.0325 215.125C92.0325 215.119 92.0325 215.112 92.0325 215.106C92.0332 215.092 92.0332 215.079 92.0332 215.066C92.0332 215.064 92.0332 215.061 92.0332 215.059C92.0332 215.046 92.0338 215.03 92.0338 215.017C92.0338 215.011 92.0338 215.004 92.0338 214.998C92.0338 214.989 92.0351 214.981 92.0351 214.971C92.0351 214.965 92.0351 214.958 92.0351 214.952C92.0351 214.943 92.0358 214.936 92.0358 214.926C92.0358 214.918 92.0358 214.912 92.0358 214.905C92.0364 214.894 92.0364 214.886 92.0364 214.875C92.0364 214.866 92.0371 214.857 92.0371 214.847C92.0371 214.838 92.0371 214.829 92.0377 214.819C92.0377 214.811 92.0377 214.803 92.0377 214.796C92.0377 214.788 92.0384 214.78 92.0384 214.773C92.0384 214.765 92.0384 214.758 92.039 214.75C92.039 214.743 92.039 214.736 92.039 214.729C92.0397 214.72 92.0397 214.713 92.0397 214.704C92.0397 214.697 92.0403 214.691 92.0403 214.682C92.0403 214.669 92.0416 214.654 92.0416 214.64C92.0423 214.633 92.0423 214.627 92.0423 214.619C92.0423 214.61 92.0429 214.601 92.0429 214.593C92.0429 214.586 92.0429 214.583 92.0435 214.576C92.0435 214.567 92.0435 214.557 92.0442 214.548C92.0442 214.544 92.0442 214.538 92.0442 214.535C92.0448 214.524 92.0448 214.513 92.0455 214.502C92.0461 214.465 92.0481 214.427 92.0494 214.39C92.0494 214.387 92.0494 214.382 92.0494 214.38C92.05 214.368 92.05 214.358 92.0507 214.346C92.0507 214.344 92.0507 214.34 92.0507 214.338C92.5218 201.131 101.255 190.037 113.232 186.057C111.649 189.342 110.638 192.735 110.241 196.205H107.264V203.437H104.083V206.836V208.806V215.592C103.847 216.14 103.716 216.745 103.716 217.38V236.91H142.26V236.276V234.899C143.731 235.118 145.212 235.272 146.701 235.371C141.099 242.046 132.742 246.327 123.38 246.443C123.377 246.443 123.374 246.443 123.371 246.443C123.357 246.443 123.343 246.443 123.327 246.444C123.322 246.444 123.318 246.444 123.312 246.444C123.3 246.444 123.287 246.444 123.275 246.444C123.269 246.444 123.263 246.444 123.256 246.445C123.245 246.445 123.234 246.445 123.222 246.445C123.215 246.445 123.21 246.445 123.202 246.445C123.19 246.445 123.18 246.445 123.168 246.445C123.162 246.445 123.155 246.445 123.148 246.446C123.136 246.446 123.125 246.446 123.114 246.446C123.107 246.446 123.101 246.446 123.095 246.446C123.082 246.446 123.07 246.446 123.057 246.446C123.052 246.446 123.047 246.446 123.042 246.446C123.024 246.446 123.006 246.446 122.988 246.446Z" fill="#0F3D8B"/>
<path d="M127.47 206.836C126.322 204.826 123.902 203.438 121.096 203.438H104.08V206.836V208.807V234.211H141.89V206.836H127.47Z" fill="#304782"/>
<path d="M107.266 221.522H138.714V196.205H107.266V221.522Z" fill="white"/>
<path d="M136.311 199.85H109.664C109.565 199.85 109.484 199.931 109.484 200.03C109.484 200.129 109.565 200.21 109.664 200.21H136.311C136.411 200.21 136.492 200.129 136.492 200.03C136.492 199.931 136.411 199.85 136.311 199.85Z" fill="black"/>
<path d="M136.311 202.654H109.664C109.565 202.654 109.484 202.735 109.484 202.835C109.484 202.934 109.565 203.015 109.664 203.015H136.311C136.411 203.015 136.492 202.934 136.492 202.835C136.492 202.735 136.411 202.654 136.311 202.654Z" fill="black"/>
<path d="M136.311 205.459H109.664C109.565 205.459 109.484 205.54 109.484 205.64C109.484 205.739 109.565 205.82 109.664 205.82H136.311C136.411 205.82 136.492 205.739 136.492 205.64C136.492 205.54 136.411 205.459 136.311 205.459Z" fill="black"/>
<path d="M136.311 208.264H109.664C109.565 208.264 109.484 208.343 109.484 208.443C109.484 208.543 109.565 208.624 109.664 208.624H136.311C136.411 208.624 136.492 208.543 136.492 208.443C136.492 208.343 136.411 208.264 136.311 208.264Z" fill="black"/>
<path d="M107.266 212.957V196.205H113.733C114.126 197.474 114.638 198.692 115.255 199.85H109.667C109.567 199.85 109.487 199.931 109.487 200.03C109.487 200.13 109.567 200.211 109.667 200.211H115.453C115.927 201.061 116.459 201.877 117.041 202.655H109.667C109.567 202.655 109.487 202.736 109.487 202.835C109.487 202.934 109.567 203.015 109.667 203.015H117.317C117.993 203.881 118.733 204.697 119.528 205.459H109.667C109.567 205.459 109.487 205.54 109.487 205.639C109.487 205.739 109.567 205.819 109.667 205.819H119.912C120.896 206.719 121.957 207.537 123.081 208.263H109.667C109.567 208.263 109.487 208.342 109.487 208.442C109.487 208.543 109.567 208.623 109.667 208.623H123.657C125.353 209.649 127.179 210.469 129.085 211.047C130.857 211.585 132.624 211.83 134.364 211.83C135.837 211.83 137.29 211.655 138.714 211.329V212.957C138.399 212.887 138.073 212.851 137.737 212.851H108.243C107.908 212.851 107.58 212.888 107.266 212.957Z" fill="white"/>
<path d="M115.451 200.21H109.664C109.565 200.21 109.484 200.129 109.484 200.03C109.484 199.931 109.565 199.85 109.664 199.85H115.253C115.318 199.97 115.383 200.091 115.451 200.21Z" fill="black"/>
<path d="M117.315 203.015H109.664C109.565 203.015 109.484 202.934 109.484 202.835C109.484 202.735 109.565 202.654 109.664 202.654H117.039C117.13 202.775 117.222 202.896 117.315 203.015Z" fill="black"/>
<path d="M119.91 205.82H109.664C109.565 205.82 109.484 205.739 109.484 205.64C109.484 205.54 109.565 205.459 109.664 205.459H119.526C119.651 205.581 119.781 205.702 119.91 205.82Z" fill="black"/>
<path d="M123.655 208.624H109.664C109.565 208.624 109.484 208.543 109.484 208.443C109.484 208.343 109.565 208.264 109.664 208.264H123.079C123.269 208.386 123.461 208.507 123.655 208.624Z" fill="black"/>
<path d="M142.259 236.911V217.381C142.259 214.879 140.232 212.852 137.733 212.852H108.24C105.741 212.852 103.715 214.879 103.715 217.381V236.911H142.259Z" fill="#7CE3E2"/>
<path d="M137.96 214.572H108.051C107.951 214.572 107.871 214.653 107.871 214.752C107.871 214.852 107.951 214.932 108.051 214.932H137.96C138.059 214.932 138.14 214.852 138.14 214.752C138.14 214.653 138.059 214.572 137.96 214.572Z" fill="black"/>
<path d="M142.259 236.911H103.715V217.381C103.715 214.879 105.741 212.852 108.24 212.852H111.914C112.038 213.434 112.209 214.008 112.423 214.572H108.05C107.951 214.572 107.87 214.653 107.87 214.753C107.87 214.852 107.951 214.933 108.05 214.933H112.565C115.108 221.094 122.591 226.159 127.384 229.649C131.957 232.978 137.006 235.166 142.259 236.277V236.911Z" fill="#7CE3E2"/>
<path d="M112.567 214.932H108.051C107.951 214.932 107.871 214.852 107.871 214.752C107.871 214.653 107.951 214.572 108.051 214.572H112.424C112.469 214.693 112.517 214.814 112.567 214.932Z" fill="#263148"/>
<path d="M280.981 211.64C280.981 230.715 265.531 246.177 246.472 246.177C227.412 246.177 211.963 230.715 211.963 211.64C211.963 192.565 227.412 177.102 246.472 177.102C265.531 177.102 280.981 192.565 280.981 211.64Z" fill="#E6F0FA"/>
<path d="M277.43 211.641C277.43 228.753 263.571 242.624 246.474 242.624C229.377 242.624 215.518 228.753 215.518 211.641C215.518 194.53 229.377 180.658 246.474 180.658C263.571 180.658 277.43 194.53 277.43 211.641Z" fill="#0F3D8B"/>
<path d="M246.527 242.622C246.533 242.622 246.537 242.622 246.542 242.622C246.538 242.622 246.532 242.622 246.527 242.622ZM246.634 242.622C246.642 242.622 246.647 242.622 246.654 242.622C246.647 242.622 246.64 242.622 246.634 242.622ZM246.688 242.622C246.695 242.622 246.7 242.622 246.708 242.622C246.701 242.622 246.694 242.622 246.688 242.622ZM246.741 242.621C246.748 242.621 246.754 242.621 246.761 242.621C246.755 242.621 246.747 242.621 246.741 242.621ZM246.796 242.621C246.802 242.621 246.808 242.621 246.814 242.621C246.809 242.621 246.802 242.621 246.796 242.621ZM247.084 242.617C247.087 242.617 247.089 242.617 247.091 242.617C247.088 242.617 247.087 242.617 247.084 242.617ZM247.139 242.615C247.141 242.615 247.144 242.615 247.146 242.615C247.143 242.615 247.141 242.615 247.139 242.615ZM247.194 242.615C247.196 242.615 247.198 242.614 247.199 242.614C247.198 242.614 247.196 242.614 247.194 242.615ZM247.251 242.613C247.253 242.613 247.252 242.613 247.253 242.613C247.252 242.613 247.252 242.613 247.251 242.613ZM215.518 211.64C215.518 211.624 215.518 211.61 215.518 211.595C215.518 211.61 215.518 211.624 215.518 211.64ZM215.518 211.578C215.518 211.567 215.518 211.559 215.518 211.547C215.518 211.558 215.518 211.569 215.518 211.578ZM215.518 211.531C215.518 211.52 215.518 211.51 215.518 211.499C215.518 211.51 215.518 211.521 215.518 211.531ZM215.519 211.378C215.519 211.368 215.519 211.358 215.519 211.348C215.519 211.358 215.519 211.369 215.519 211.378ZM215.52 211.237C215.52 211.222 215.52 211.209 215.52 211.195C215.52 211.208 215.52 211.224 215.52 211.237ZM215.521 211.13C215.521 211.121 215.521 211.111 215.521 211.104C215.521 211.113 215.521 211.12 215.521 211.13ZM215.522 211.083C215.522 211.073 215.522 211.062 215.523 211.053C215.522 211.063 215.522 211.072 215.522 211.083ZM215.523 211.025C215.524 211.016 215.524 211.005 215.524 210.997C215.524 211.007 215.524 211.016 215.523 211.025ZM215.525 210.973C215.525 210.966 215.525 210.959 215.525 210.951C215.525 210.958 215.525 210.966 215.525 210.973ZM215.525 210.928C215.525 210.921 215.526 210.913 215.526 210.907C215.526 210.914 215.525 210.92 215.525 210.928ZM215.527 210.882C215.527 210.875 215.527 210.868 215.527 210.86C215.527 210.869 215.527 210.874 215.527 210.882ZM215.528 210.818C215.528 210.811 215.528 210.805 215.529 210.797C215.528 210.804 215.528 210.811 215.528 210.818ZM215.529 210.771C215.529 210.766 215.529 210.759 215.529 210.754C215.529 210.76 215.529 210.764 215.529 210.771ZM215.535 210.566C215.535 210.564 215.536 210.56 215.536 210.557C215.536 210.561 215.535 210.563 215.535 210.566ZM215.537 210.523C215.537 210.521 215.538 210.519 215.538 210.518C215.538 210.52 215.538 210.521 215.537 210.523Z" fill="#0F3D8B"/>
<path d="M269.89 231.897V231.528C269.989 231.536 270.087 231.543 270.186 231.549C270.088 231.666 269.989 231.782 269.89 231.897ZM222.489 231.23C218.131 225.892 215.518 219.071 215.518 211.64C215.518 211.624 215.518 211.61 215.518 211.594C215.518 211.589 215.518 211.583 215.518 211.579C215.518 211.569 215.518 211.558 215.518 211.548C215.518 211.543 215.518 211.536 215.518 211.531C215.518 211.521 215.518 211.51 215.518 211.499C215.518 211.494 215.518 211.49 215.518 211.485C215.518 211.455 215.518 211.424 215.518 211.394C215.518 211.389 215.518 211.383 215.519 211.378C215.519 211.369 215.519 211.357 215.519 211.348C215.519 211.341 215.519 211.337 215.519 211.33C215.519 211.321 215.519 211.312 215.519 211.302C215.52 211.297 215.52 211.289 215.52 211.284C215.52 211.27 215.52 211.257 215.52 211.244C215.52 211.242 215.52 211.239 215.52 211.237C215.52 211.223 215.52 211.208 215.52 211.195C215.52 211.188 215.521 211.181 215.521 211.175C215.521 211.166 215.521 211.159 215.521 211.149C215.521 211.142 215.521 211.136 215.521 211.129C215.521 211.12 215.521 211.113 215.521 211.104C215.521 211.096 215.522 211.09 215.522 211.083C215.522 211.072 215.522 211.063 215.523 211.053C215.523 211.043 215.523 211.035 215.523 211.025C215.524 211.015 215.524 211.006 215.524 210.997C215.524 210.989 215.525 210.98 215.525 210.973C215.525 210.966 215.525 210.958 215.525 210.951C215.525 210.943 215.525 210.936 215.525 210.928C215.525 210.921 215.526 210.914 215.526 210.907C215.526 210.898 215.526 210.891 215.527 210.883C215.527 210.874 215.527 210.868 215.527 210.86C215.527 210.847 215.527 210.832 215.528 210.818C215.528 210.811 215.528 210.804 215.529 210.797C215.529 210.788 215.529 210.779 215.529 210.771C215.529 210.764 215.529 210.76 215.529 210.754C215.531 210.745 215.531 210.736 215.531 210.725C215.531 210.721 215.531 210.716 215.531 210.712C215.531 210.701 215.532 210.691 215.532 210.68C215.533 210.642 215.534 210.604 215.535 210.566C215.535 210.563 215.536 210.561 215.536 210.558C215.536 210.546 215.537 210.535 215.537 210.523C215.538 210.521 215.538 210.52 215.538 210.517C216.007 197.309 224.74 186.214 236.718 182.234C234.665 186.494 233.573 190.936 233.538 195.493H222.489V231.23Z" fill="#0F3D8B"/>
<mask id="mask2_704_285" style="mask-type:luminance" maskUnits="userSpaceOnUse" x="215" y="180" width="63" height="63">
<path d="M277.428 211.639C277.428 228.751 263.569 242.622 246.472 242.622C229.375 242.622 215.516 228.751 215.516 211.639C215.516 194.528 229.375 180.656 246.472 180.656C263.569 180.656 277.428 194.528 277.428 211.639Z" fill="white"/>
</mask>
<g mask="url(#mask2_704_285)">
<path d="M222.49 251.6H269.89V195.492H222.49V251.6Z" fill="#C1D0EE"/>
<path d="M266.151 216.343C266.151 219.356 263.714 221.797 260.706 221.797H231.673C228.67 221.797 226.232 219.356 226.232 216.343C226.232 213.339 228.67 210.898 231.673 210.898H260.706C263.714 210.898 266.151 213.339 266.151 216.343Z" fill="white"/>
<path d="M266.151 228.74C266.151 231.747 263.714 234.188 260.706 234.188H231.673C228.67 234.188 226.232 231.747 226.232 228.74C226.232 225.731 228.67 223.293 231.673 223.293H260.706C263.714 223.293 266.151 225.731 266.151 228.74Z" fill="white"/>
<path d="M266.151 241.13C266.151 244.136 263.714 246.581 260.706 246.581H231.673C228.67 246.581 226.232 244.136 226.232 241.13C226.232 238.124 228.67 235.686 231.673 235.686H260.706C263.714 235.686 266.151 238.124 266.151 241.13Z" fill="white"/>
<path d="M229.541 219.767H262.84V212.822H229.541V219.767Z" fill="#C1D0EE"/>
<path d="M229.541 232.213H262.84V225.266H229.541V232.213Z" fill="#C1D0EE"/>
<path d="M229.541 244.603H262.84V237.658H229.541V244.603Z" fill="#C1D0EE"/>
<path d="M255.025 216.27H237.359V214.557H255.025V216.27Z" fill="#7CE3E2"/>
<path d="M266.156 203.713C266.156 206.724 263.716 209.159 260.711 209.159H231.676C228.671 209.159 226.232 206.724 226.232 203.713C226.232 200.703 228.671 198.264 231.676 198.264H260.711C263.716 198.264 266.156 200.703 266.156 203.713Z" fill="white"/>
<path d="M229.543 207.13H262.839V200.186H229.543V207.13Z" fill="#C1D0EE"/>
<path d="M255.024 203.634H237.357V201.922H255.024V203.634Z" fill="#7CE3E2"/>
<path d="M237.359 228.66H255.025V226.953H237.359V228.66Z" fill="#7CE3E2"/>
<path d="M237.359 241.05H255.025V239.344H237.359V241.05Z" fill="#7CE3E2"/>
<path d="M230.629 205.001H260.951C261.05 205.001 261.131 204.92 261.131 204.821C261.131 204.721 261.05 204.641 260.951 204.641H230.629C230.529 204.641 230.449 204.721 230.449 204.821C230.449 204.92 230.529 205.001 230.629 205.001Z" fill="#7CE3E2"/>
<path d="M230.459 217.979H261.622C261.721 217.979 261.802 217.899 261.802 217.799C261.802 217.7 261.721 217.619 261.622 217.619H230.459C230.36 217.619 230.279 217.7 230.279 217.799C230.279 217.899 230.36 217.979 230.459 217.979Z" fill="#7CE3E2"/>
<path d="M230.795 230.624H262.633C262.732 230.624 262.813 230.543 262.813 230.444C262.813 230.345 262.732 230.264 262.633 230.264H230.795C230.695 230.264 230.615 230.345 230.615 230.444C230.615 230.543 230.695 230.624 230.795 230.624Z" fill="#7CE3E2"/>
<path d="M228.389 236.789C226.189 235.2 224.204 233.33 222.49 231.229V195.492H227.854C228.271 196.626 228.693 197.762 229.121 198.899C227.401 199.814 226.229 201.627 226.229 203.712C226.229 206.725 228.667 209.16 231.673 209.16H233.274C233.53 209.742 233.791 210.321 234.054 210.898H231.672C228.669 210.898 226.232 213.339 226.232 216.343C226.232 219.356 228.669 221.797 231.672 221.797H239.795C240.103 222.299 240.416 222.797 240.735 223.292H231.672C228.669 223.292 226.232 225.731 226.232 228.74C226.232 231.746 228.669 234.187 231.672 234.187H249.463C249.991 234.704 250.527 235.203 251.075 235.685H231.672C230.439 235.685 229.302 236.096 228.389 236.789Z" fill="#C1D0EE"/>
<path d="M239.795 221.797H231.673C228.67 221.797 226.232 219.356 226.232 216.343C226.232 213.339 228.67 210.898 231.673 210.898H234.055C234.35 211.543 234.649 212.183 234.954 212.821H229.542V219.766H238.588C238.982 220.449 239.384 221.126 239.795 221.797Z" fill="white"/>
<path d="M249.464 234.188H231.673C228.67 234.188 226.232 231.747 226.232 228.74C226.232 225.731 228.67 223.293 231.673 223.293H240.736C241.164 223.957 241.602 224.614 242.052 225.265H229.542V232.213H247.561C247.914 232.597 248.272 232.979 248.636 233.356C248.909 233.638 249.185 233.915 249.464 234.188Z" fill="white"/>
<path d="M253.486 237.659H229.66C229.229 237.38 228.806 237.09 228.389 236.789C229.302 236.097 230.439 235.686 231.672 235.686H251.074C251.859 236.379 252.664 237.037 253.486 237.659Z" fill="white"/>
<path d="M238.587 219.767H229.541V212.822H234.953C235.727 214.443 236.537 216.045 237.389 217.62H230.459C230.36 217.62 230.279 217.701 230.279 217.8C230.279 217.9 230.36 217.981 230.459 217.981H237.585C237.912 218.58 238.246 219.177 238.587 219.767Z" fill="#C1D0EE"/>
<path d="M247.559 232.213H229.541V225.266H242.05C242.442 225.834 242.843 226.396 243.251 226.953H237.358V228.659H244.548C244.973 229.201 245.409 229.736 245.852 230.265H230.795C230.696 230.265 230.615 230.346 230.615 230.445C230.615 230.545 230.696 230.626 230.795 230.626H246.158C246.614 231.162 247.082 231.69 247.559 232.213Z" fill="#C1D0EE"/>
<path d="M246.473 242.622C240.275 242.622 234.502 240.799 229.66 237.658H253.486C254.861 238.701 256.285 239.647 257.752 240.501C254.486 241.781 250.95 242.522 247.253 242.613C247.253 242.613 247.253 242.613 247.251 242.613C247.234 242.613 247.216 242.613 247.199 242.613C247.199 242.613 247.196 242.614 247.194 242.614C247.178 242.614 247.163 242.615 247.146 242.615C247.144 242.615 247.141 242.615 247.138 242.615C247.122 242.615 247.107 242.615 247.091 242.616C247.088 242.616 247.086 242.616 247.084 242.616C247.066 242.616 247.048 242.617 247.031 242.617H247.03C246.994 242.618 246.956 242.619 246.92 242.619C246.918 242.619 246.917 242.619 246.915 242.619C246.9 242.619 246.882 242.619 246.866 242.62C246.862 242.62 246.858 242.62 246.854 242.62C246.841 242.62 246.827 242.62 246.814 242.62C246.807 242.621 246.802 242.621 246.796 242.621C246.785 242.621 246.772 242.621 246.761 242.621C246.754 242.621 246.748 242.621 246.741 242.621C246.73 242.621 246.718 242.621 246.708 242.621C246.701 242.621 246.695 242.621 246.688 242.621C246.677 242.621 246.664 242.621 246.653 242.621C246.646 242.621 246.641 242.621 246.634 242.621C246.622 242.622 246.611 242.622 246.6 242.622C246.593 242.622 246.587 242.622 246.58 242.622C246.568 242.622 246.555 242.622 246.542 242.622C246.537 242.622 246.532 242.622 246.527 242.622C246.51 242.622 246.492 242.622 246.473 242.622ZM237.358 239.343V241.049H255.024V239.343H237.358Z" fill="#C1D0EE"/>
<path d="M233.277 209.159H231.676C228.671 209.159 226.232 206.724 226.232 203.713C226.232 201.626 227.404 199.814 229.125 198.898C229.286 199.327 229.45 199.756 229.614 200.185H229.547V207.13H232.401C232.689 207.809 232.98 208.485 233.277 209.159Z" fill="white"/>
<path d="M232.396 207.131H229.543V200.186H229.61C230.178 201.673 230.762 203.16 231.363 204.641H230.628C230.529 204.641 230.448 204.721 230.448 204.821C230.448 204.921 230.529 205.001 230.628 205.001H231.51C231.801 205.711 232.097 206.423 232.396 207.131Z" fill="#C1D0EE"/>
<path d="M244.549 228.66H237.359V226.953H243.252C243.675 227.528 244.107 228.098 244.549 228.66Z" fill="#7CE3E2"/>
<path d="M237.359 241.05H255.025V239.344H237.359V241.05Z" fill="#7CE3E2"/>
<path d="M231.512 205.001H230.629C230.53 205.001 230.449 204.92 230.449 204.821C230.449 204.721 230.53 204.641 230.629 204.641H231.366C231.415 204.762 231.463 204.88 231.512 205.001Z" fill="#24335C"/>
<path d="M237.585 217.979H230.459C230.36 217.979 230.279 217.899 230.279 217.799C230.279 217.7 230.36 217.619 230.459 217.619H237.389C237.454 217.74 237.52 217.859 237.585 217.979Z" fill="#24335C"/>
<path d="M246.158 230.624H230.795C230.695 230.624 230.615 230.543 230.615 230.444C230.615 230.345 230.695 230.264 230.795 230.264H245.852C245.954 230.384 246.055 230.504 246.158 230.624Z" fill="#24335C"/>
</g>
<path d="M365.002 131.37C365.002 150.445 349.551 165.908 330.493 165.908C311.435 165.908 295.984 150.445 295.984 131.37C295.984 112.295 311.435 96.832 330.493 96.832C349.551 96.832 365.002 112.295 365.002 131.37Z" fill="#E6F0FA"/>
<path d="M361.449 131.371C361.449 148.483 347.589 162.354 330.492 162.354C313.394 162.354 299.535 148.483 299.535 131.371C299.535 114.258 313.394 100.387 330.492 100.387C347.589 100.387 361.449 114.258 361.449 131.371Z" fill="#0F3D8B"/>
<path d="M330.545 162.354C330.55 162.354 330.555 162.354 330.56 162.354C330.555 162.354 330.549 162.354 330.545 162.354ZM330.651 162.354C330.658 162.354 330.665 162.354 330.671 162.354C330.664 162.354 330.658 162.354 330.651 162.354ZM330.704 162.353C330.712 162.353 330.717 162.353 330.725 162.353C330.718 162.353 330.711 162.353 330.704 162.353ZM330.759 162.353C330.765 162.353 330.772 162.353 330.778 162.353C330.772 162.353 330.766 162.353 330.759 162.353ZM331.214 162.346C331.215 162.346 331.214 162.346 331.215 162.346H331.214ZM299.535 131.371C299.535 131.356 299.535 131.34 299.535 131.326C299.535 131.34 299.535 131.355 299.535 131.371ZM299.535 131.31C299.535 131.299 299.535 131.289 299.535 131.279C299.535 131.288 299.535 131.3 299.535 131.31ZM299.535 131.262C299.536 131.251 299.536 131.242 299.536 131.231C299.536 131.241 299.536 131.251 299.535 131.262ZM299.536 131.215C299.536 131.202 299.536 131.186 299.536 131.172C299.536 131.186 299.536 131.202 299.536 131.215ZM299.537 131.014C299.537 131.002 299.537 130.992 299.538 130.98C299.537 130.991 299.537 131.003 299.537 131.014ZM299.538 130.962C299.538 130.949 299.538 130.939 299.538 130.927C299.538 130.938 299.538 130.95 299.538 130.962ZM299.538 130.905C299.538 130.897 299.538 130.889 299.538 130.882C299.538 130.889 299.538 130.897 299.538 130.905ZM299.539 130.859C299.539 130.851 299.539 130.845 299.539 130.837C299.539 130.844 299.539 130.852 299.539 130.859ZM299.54 130.813C299.54 130.805 299.54 130.799 299.541 130.791C299.54 130.798 299.54 130.805 299.54 130.813ZM299.542 130.745C299.542 130.739 299.542 130.735 299.542 130.729C299.542 130.734 299.542 130.74 299.542 130.745ZM299.542 130.701C299.542 130.695 299.542 130.69 299.543 130.684C299.542 130.69 299.542 130.695 299.542 130.701ZM299.543 130.656C299.544 130.651 299.544 130.646 299.544 130.64C299.544 130.647 299.544 130.65 299.543 130.656ZM299.547 130.534C299.547 130.533 299.547 130.531 299.547 130.53C299.547 130.531 299.547 130.533 299.547 130.534ZM299.547 130.496C299.547 130.494 299.547 130.49 299.547 130.488C299.547 130.491 299.547 130.493 299.547 130.496ZM299.549 130.454C299.549 130.452 299.549 130.449 299.549 130.447C299.549 130.449 299.549 130.451 299.549 130.454Z" fill="#E6F0FA"/>
<path d="M330.492 162.354C330.485 162.354 330.479 162.354 330.473 162.354C335.824 162.351 340.858 160.989 345.247 158.595C347.827 157.188 350.184 155.425 352.254 153.37L352.258 151.118C352.905 151.183 353.555 151.238 354.206 151.282C348.669 157.877 340.443 162.134 331.215 162.346C331.214 162.346 331.215 162.346 331.214 162.346C331.196 162.347 331.178 162.347 331.161 162.348C331.159 162.348 331.159 162.348 331.157 162.348C331.139 162.348 331.121 162.348 331.104 162.348C331.03 162.35 330.957 162.351 330.883 162.352C330.881 162.352 330.877 162.352 330.874 162.352C330.859 162.353 330.845 162.353 330.831 162.353C330.825 162.353 330.82 162.353 330.814 162.353C330.803 162.353 330.791 162.353 330.778 162.353C330.772 162.353 330.765 162.353 330.759 162.353C330.748 162.353 330.736 162.353 330.725 162.353C330.717 162.353 330.712 162.353 330.704 162.353C330.693 162.354 330.682 162.354 330.671 162.354C330.665 162.354 330.658 162.354 330.651 162.354C330.64 162.354 330.628 162.354 330.616 162.354C330.61 162.354 330.604 162.354 330.598 162.354C330.585 162.354 330.573 162.354 330.56 162.354C330.555 162.354 330.55 162.354 330.545 162.354C330.527 162.354 330.51 162.354 330.492 162.354ZM308.675 153.352C303.03 147.739 299.535 139.964 299.535 131.371C299.535 131.355 299.535 131.341 299.535 131.326C299.535 131.32 299.535 131.315 299.535 131.31C299.535 131.3 299.535 131.288 299.535 131.279C299.535 131.274 299.535 131.267 299.535 131.262C299.536 131.251 299.536 131.241 299.536 131.231C299.536 131.227 299.536 131.221 299.536 131.216C299.536 131.203 299.536 131.186 299.536 131.172V131.17C299.536 131.155 299.536 131.14 299.536 131.125C299.536 131.12 299.536 131.114 299.536 131.108C299.536 131.099 299.536 131.089 299.536 131.08C299.536 131.074 299.536 131.066 299.536 131.059C299.536 131.051 299.537 131.044 299.537 131.035C299.537 131.029 299.537 131.021 299.537 131.014C299.537 131.003 299.537 130.991 299.538 130.98C299.538 130.974 299.538 130.967 299.538 130.962C299.538 130.95 299.538 130.938 299.538 130.927C299.538 130.919 299.538 130.912 299.538 130.905C299.538 130.898 299.538 130.889 299.538 130.882C299.539 130.874 299.539 130.866 299.539 130.859C299.539 130.852 299.539 130.844 299.539 130.837C299.54 130.829 299.54 130.82 299.54 130.813C299.54 130.806 299.54 130.798 299.541 130.791C299.541 130.776 299.541 130.761 299.542 130.745C299.542 130.74 299.542 130.734 299.542 130.729C299.542 130.72 299.542 130.71 299.542 130.701C299.542 130.695 299.542 130.69 299.543 130.684C299.543 130.675 299.543 130.666 299.543 130.657C299.544 130.65 299.544 130.647 299.544 130.64C299.544 130.631 299.544 130.622 299.544 130.612C299.544 130.609 299.544 130.604 299.544 130.6C299.545 130.578 299.546 130.557 299.547 130.534C299.547 130.533 299.547 130.532 299.547 130.53C299.547 130.519 299.547 130.508 299.547 130.496C299.547 130.493 299.547 130.491 299.547 130.488C299.548 130.477 299.548 130.465 299.549 130.454C299.549 130.451 299.549 130.449 299.549 130.447C299.938 117.151 308.699 105.966 320.738 101.967C316.861 110.006 316.413 118.7 320.022 127.589C320.292 128.254 320.577 128.91 320.878 129.561C313.679 133.422 308.713 141.489 308.68 150.837C308.68 150.851 308.68 150.866 308.68 150.88L308.675 153.352Z" fill="#0F3D8B"/>
<mask id="mask3_704_285" style="mask-type:luminance" maskUnits="userSpaceOnUse" x="299" y="100" width="63" height="63">
<path d="M361.412 131.371C361.412 148.483 347.554 162.354 330.456 162.354C313.36 162.354 299.5 148.483 299.5 131.371C299.5 114.258 313.36 100.387 330.456 100.387C347.554 100.387 361.412 114.258 361.412 131.371Z" fill="white"/>
</mask>
<g mask="url(#mask3_704_285)">
<path d="M333.186 127.314C336.99 125.882 339.77 121.452 339.78 116.202C339.791 109.783 335.664 104.572 330.558 104.563C325.453 104.553 321.304 109.748 321.29 116.168C321.282 121.417 324.043 125.857 327.844 127.305C317.069 128.726 308.705 138.725 308.681 150.88L308.652 166.741L352.228 166.823L352.259 150.961C352.282 138.807 343.956 128.775 333.186 127.314Z" fill="white"/>
<path d="M330.455 162.353C321.963 162.353 314.269 158.93 308.676 153.388L308.681 150.879C308.681 150.864 308.681 150.85 308.681 150.836C308.723 138.784 316.969 128.868 327.624 127.344C329.809 140.46 335.162 152.703 345.248 158.594C340.859 160.988 335.825 162.35 330.474 162.353C330.468 162.353 330.462 162.353 330.455 162.353Z" fill="white"/>
<path d="M328.38 135.487L327.07 131.364L332.934 131.309L331.874 135.432L328.38 135.487Z" fill="#7CE3E2"/>
<path d="M330.36 146.798L326.629 141.364L328.438 134.945H331.807L333.554 140.989L330.36 146.798Z" fill="#7CE3E2"/>
<path d="M319.697 130.724L330.377 147.147L339.927 129.716C339.975 129.628 339.944 129.519 339.856 129.472C339.769 129.424 339.659 129.455 339.612 129.543L330.351 146.446L319.999 130.528C319.945 130.444 319.834 130.42 319.749 130.475C319.666 130.529 319.643 130.641 319.697 130.724Z" fill="#27355C"/>
</g>
</g>
<defs>
<clipPath id="clip0_704_285">
<rect width="365" height="250" fill="white"/>
</clipPath>
</defs>
</svg>
