<svg width="512" height="512" viewBox="0 0 512 512" fill="none" xmlns="http://www.w3.org/2000/svg">
<path d="M255.999 13L316.433 198.864H512L353.782 313.735L414.216 499.597L255.999 384.726L97.7836 499.597L158.218 313.735L0 198.864H195.567L255.999 13Z" fill="#E11735"/>
<path d="M303.369 339.483L292.221 310.963H314.52L321.953 334.137C342.393 332.353 356.81 340.889 364.243 345.048L373.259 373.362C359.88 359.102 339.297 353.746 329.385 353.746L346.11 407.221C347.967 412.57 351.684 423.978 344.252 426.83C336.819 429.682 331.244 421.484 329.385 416.135L308.946 357.311C288.133 367.293 276.567 388.31 274.089 397.816L256.059 384.945C262.004 360.703 289.743 344.832 303.369 339.483Z" fill="white"/>
<path d="M204.823 357.313L193.672 346.615L228.979 307.4L163.939 261.052C156.508 255.705 149.074 250.357 149.074 236.096C149.074 225.401 160.225 218.27 171.373 218.27H268.003C279.895 218.27 285.346 227.778 286.585 232.531L301.453 277.096H342.334C346.05 277.096 353.482 279.235 353.482 287.791C353.482 296.347 347.908 298.486 342.334 298.486H288.445L273.577 257.487H225.262L271.72 289.575C283.612 296.705 276.676 306.805 271.72 310.965L204.823 357.313Z" fill="white"/>
<path d="M200.648 424.843C197.672 379.209 161.273 364.156 142.691 361.78L150.419 337.327C195.017 345.883 216.965 389.196 222.542 409.399L200.648 424.843Z" fill="white"/>
<path d="M343.554 211.668C351.122 226.143 346.202 243.193 332.571 249.751C318.937 256.308 301.751 249.89 294.186 235.415C286.618 220.94 291.538 203.89 305.169 197.333C318.803 190.775 335.989 197.193 343.554 211.668Z" fill="white"/>
</svg>
