<svg width="514" height="514" viewBox="0 0 514 514" fill="none" xmlns="http://www.w3.org/2000/svg">
<path d="M512.596 0.595459H0.595703V512.595H512.596V0.595459Z" fill="white" stroke="#15416F" stroke-width="0.87" stroke-miterlimit="10"/>
<path d="M423.247 458.428C422.716 458.428 422.184 458.428 421.696 458.34L420.854 458.251L420.323 457.587C414.163 449.524 403.04 436.5 376.186 405.934L287.781 305.064C267.396 281.497 254.412 266.745 247.101 259.746C246.923 263.068 246.923 269.802 246.923 280.389V354.059C246.923 375.677 246.923 415.945 253.482 427.507C256.318 432.247 261.813 434.861 271.296 436.013L280.159 437.209L280.557 437.519C283.305 439.645 284.014 443.544 283.438 446.423C282.906 449.17 281.311 451.163 279.139 451.828L278.829 451.916H278.475C264.826 451.163 249.937 450.765 235.49 450.765C219.139 450.765 209.124 451.163 196.317 451.872H195.697L195.165 451.562C193.171 450.322 191.842 447.797 191.62 444.828C191.398 441.86 192.329 439.114 194.146 437.519L194.5 437.209L203.274 435.216L204.382 434.994C210.852 433.621 216.48 432.469 218.563 427.64C223.304 416.344 223.304 383.208 223.304 354.015V262.005C223.304 234.495 223.304 229.534 211.517 219.478C207.883 216.465 198.045 213.586 192.329 212.346L186.169 211.105L185.771 210.795C183.466 208.802 183.067 204.859 183.644 202.024C184.22 199.189 185.815 197.195 187.986 196.531L188.341 196.442H188.74C198.666 197.55 211.65 197.638 220.557 197.638H233.142C241.251 197.638 250.203 197.195 259.065 196.486L260.483 196.354L261.015 197.682C267.263 213.497 308.121 260.765 321.459 275.295L359.258 316.095C363.956 321.233 370.337 328.366 377.073 335.896C389.525 349.806 405.965 368.146 411.77 373.817C411.859 372.532 411.859 370.583 411.859 368.058V294.388C411.859 271.219 411.859 232.457 404.946 220.984C402.021 216.111 396.792 213.586 387.486 212.434L378.269 211.238L377.87 210.928C375.123 208.802 374.414 204.903 374.946 202.024C375.477 199.277 377.073 197.284 379.244 196.619L379.554 196.531H379.864C394.887 197.328 408.668 197.682 423.203 197.682C439.466 197.682 449.26 197.284 462.775 196.531H463.396L463.927 196.841C465.921 198.081 467.207 200.606 467.472 203.574C467.694 206.542 466.763 209.289 464.947 210.884L464.592 211.194L454.622 213.32C447.974 214.738 442.701 215.845 440.53 220.762C435.389 232.103 435.389 265.195 435.389 294.388V384.67C435.389 432.336 436.01 446.999 436.497 450.897L436.586 451.651L436.143 452.271C433.351 456.125 428.476 458.384 423.114 458.384L423.247 458.428Z" fill="#5F94B7"/>
<path d="M463.042 198.48C466.055 200.385 466.808 206.808 463.795 209.422L455.11 211.283C447.931 212.789 441.505 213.941 438.847 219.965C433.573 231.66 433.573 264.531 433.573 294.388V384.67C433.573 396.011 433.573 442.481 434.725 451.164C432.022 454.885 427.458 456.524 423.248 456.524C422.761 456.524 422.318 456.524 421.874 456.479C415.848 448.55 404.858 435.703 377.649 404.738L289.244 303.868C265.048 275.915 252.596 261.961 246.171 256.291C245.019 256.291 245.019 260.455 245.019 280.478V354.148C245.019 382.455 245.417 417.23 251.843 428.527C255.255 434.197 261.681 436.855 271.119 437.962L279.45 439.114C282.862 441.772 282.464 448.949 278.697 450.056C264.694 449.303 249.982 448.904 235.624 448.904C219.76 448.904 209.568 449.303 196.318 450.056C193.305 448.151 192.551 441.728 195.565 439.114L203.896 437.254C211.074 435.747 217.854 434.596 220.513 428.571C225.432 416.876 225.432 384.006 225.432 354.192V264.663C225.432 235.204 225.831 229.135 212.98 218.193C208.814 214.782 198.223 211.77 192.95 210.663L187.278 209.511C184.619 207.251 185.018 199.676 188.785 198.569C198.356 199.588 210.808 199.765 220.823 199.765C225.831 199.765 230.218 199.765 233.364 199.765C241.296 199.765 250.381 199.366 259.421 198.613C265.846 214.871 307.013 262.448 320.263 276.801L358.063 317.601C373.927 334.966 409.068 375.013 412.834 377.272C413.987 376.165 413.987 374.26 413.987 368.191V294.521C413.987 266.17 413.632 231.439 406.808 220.098C403.396 214.428 397.369 211.77 387.93 210.663L379.245 209.511C375.833 206.853 376.231 199.676 379.998 198.569C394.71 199.322 408.713 199.721 423.47 199.721C439.733 199.721 449.526 199.322 463.13 198.569M261.902 194.405L259.066 194.626C250.292 195.379 241.385 195.734 233.32 195.734C231.902 195.734 230.262 195.734 228.445 195.734C226.141 195.734 223.571 195.734 220.779 195.734C211.916 195.734 198.977 195.601 189.139 194.582L188.386 194.493L187.632 194.715C184.796 195.556 182.714 198.082 181.96 201.625C181.207 205.125 181.783 209.732 184.708 212.257L185.461 212.922L186.436 213.099L192.108 214.251C197.78 215.447 207.219 218.371 210.454 221.029C221.532 230.464 221.532 235.293 221.532 262.05V264.53V354.059C221.532 383.076 221.532 415.99 216.924 426.976C215.328 430.697 210.986 431.76 204.117 433.178L203.054 433.4L194.678 435.304L193.748 435.526L192.994 436.146C190.69 438.14 189.538 441.462 189.804 445.05C190.07 448.639 191.754 451.695 194.235 453.246L195.254 453.91L196.495 453.822C209.302 453.068 219.317 452.714 235.58 452.714C249.982 452.714 264.782 453.113 278.431 453.866H279.096L279.716 453.689C282.597 452.847 284.679 450.233 285.344 446.822C286.009 443.367 285.122 438.671 281.755 436.058L280.957 435.437L279.938 435.304L271.607 434.153C262.7 433.089 257.604 430.742 255.122 426.533C248.874 415.503 248.874 375.545 248.874 354.104V280.434C248.874 273.568 248.874 268.119 248.918 264.265C256.629 272.194 269.037 286.326 286.319 306.349L374.769 407.219C401.579 437.741 412.701 450.765 418.817 458.739L419.836 460.068L421.52 460.201C422.096 460.245 422.672 460.289 423.248 460.289C429.186 460.289 434.637 457.72 437.827 453.379L438.714 452.138L438.536 450.632C438.138 447.487 437.428 434.729 437.428 384.67V294.388C437.428 265.372 437.429 232.502 442.392 221.56C444.076 217.662 448.152 216.687 455.154 215.181L455.952 215.004L464.681 213.143L465.656 212.922L466.41 212.257C468.714 210.22 469.866 206.986 469.6 203.353C469.334 199.765 467.65 196.708 465.169 195.158L464.15 194.493L462.953 194.582C449.482 195.335 439.688 195.734 423.514 195.734C409.023 195.734 395.286 195.379 380.264 194.582H379.599L378.979 194.759C376.098 195.601 374.016 198.214 373.351 201.625C372.686 205.081 373.573 209.777 376.94 212.39L377.782 213.01L378.802 213.143L387.487 214.295C396.217 215.358 401.003 217.618 403.573 221.915C410.22 232.989 410.22 272.903 410.22 294.344V368.014C410.22 368.412 410.22 368.811 410.22 369.21C402.997 361.635 389.437 346.484 378.802 334.612C372.066 327.081 365.685 319.949 360.987 314.81L323.188 274.011C307.9 257.443 268.948 211.726 263.099 197.018L262.035 194.36L261.902 194.405Z" fill="white"/>
<path d="M49.4632 343.694C47.5134 342.719 46.1397 340.504 45.6522 337.581C45.2091 334.745 45.5636 330.581 48.0895 328.056L48.5769 327.569L58.6361 326.196C77.4251 323.803 80.8373 323.36 80.8373 279.105V122.773C80.8373 81.619 80.3941 78.4737 62.1369 76.5246L50.3052 75.1513L49.8177 74.664C47.7793 72.6262 46.7157 69.1709 47.1146 65.8041C47.4248 63.0133 48.7099 60.754 50.6153 59.5579L51.0142 59.2921H51.5016C80.5714 56.6785 112.522 55.3938 149.08 55.3938C189.982 55.3938 216.127 59.9566 233.808 70.1898C254.901 82.5493 264.739 100.756 264.739 127.469C264.739 152.808 246.615 173.274 215.063 183.64C214.576 183.773 214.266 183.95 214.088 184.128C214.399 184.305 214.93 184.615 215.95 184.925C281.046 195.114 286.098 245.837 286.098 261.164C286.098 277.954 281.445 301.742 259.288 319.551C238.461 336.872 209.967 343.915 161.045 343.915C151.252 343.915 141.769 343.561 132.551 343.251C123.954 342.941 115.845 342.631 108.09 342.631C88.8137 342.631 68.8726 343.074 50.4824 343.915H49.9506L49.4632 343.694ZM154.354 200.607C139.021 200.607 139.021 202.113 139.021 208.404V262.803C139.021 296.426 141.99 309.14 173.63 309.14C197.072 309.14 220.735 294.123 220.735 260.544C220.735 223.022 195.92 200.607 154.354 200.607ZM155.063 76.5246C134.457 76.5246 134.457 76.8347 134.457 92.428V169.73C134.457 176.08 139.907 179.255 150.809 179.255C190.425 179.255 207.308 163.661 207.308 127.026C207.308 90.3903 179.169 76.5246 155.063 76.5246Z" fill="#15416F"/>
<path d="M149.08 57.4315C184.974 57.4315 213.6 60.8425 232.832 71.9617C252.508 83.4795 262.744 100.579 262.744 127.469C262.744 152.675 244.354 171.901 214.486 181.691C212.758 182.134 211.916 183.419 211.916 184.26C211.916 185.102 212.758 185.944 215.328 186.83C247.81 191.924 284.103 212.878 284.103 261.12C284.103 280.789 277.678 302.141 258.047 317.912C237.973 334.568 209.745 341.833 161.044 341.833C142.255 341.833 124.308 340.549 108.045 340.549C89.2561 340.549 69.182 340.991 50.3487 341.833C46.9365 340.15 46.4934 332.442 49.5067 329.474L58.9012 328.189C78.9753 325.62 82.8306 324.335 82.8306 279.061V122.773C82.8306 81.7518 82.3875 76.6131 62.3134 74.4867L51.1906 73.2021C48.1773 70.234 48.1773 63.3676 51.6338 61.2412C70.8659 59.5136 102.063 57.3872 149.035 57.3872M150.763 181.292C190.912 181.292 209.302 165.478 209.302 127.07C209.302 88.6625 181.517 74.531 155.062 74.531C133.703 74.531 132.418 75.3727 132.418 92.4723V169.775C132.418 180.894 133.703 181.337 150.763 181.337M173.629 311.134C199.686 311.134 222.729 294.123 222.729 260.5C222.729 221.605 196.274 198.525 154.353 198.525C137.735 198.525 136.982 200.784 136.982 208.359V262.759C136.982 297.135 140.749 311.134 173.629 311.134ZM149.08 53.356C112.432 53.356 80.4377 54.5963 51.3236 57.21L50.3487 57.2986L49.5067 57.8302C47.0695 59.3364 45.4742 62.1715 45.0754 65.5826C44.6322 69.6138 45.873 73.645 48.3546 76.1258L49.3738 77.1447L50.7918 77.3219L61.9145 78.6066C78.8424 80.3786 78.8424 82.815 78.8424 122.862V279.15C78.8424 321.633 76.5381 321.943 58.4581 324.246L49.0193 325.531L47.6899 325.708L46.715 326.683C43.6573 329.739 43.1699 334.657 43.7016 337.979C44.2777 341.523 46.0503 344.314 48.6204 345.554L49.551 346.042H50.6146C69.0047 345.156 88.9016 344.713 108.089 344.713C115.844 344.713 123.909 345.023 132.506 345.333C141.723 345.687 151.251 345.997 161.089 345.997C210.543 345.997 239.391 338.777 260.661 321.145C283.394 302.85 288.18 278.441 288.18 261.208C288.18 237.996 280.248 219.035 264.65 204.86C253.394 194.671 238.017 187.273 220.956 183.773C250.203 172.654 266.865 152.365 266.865 127.513C266.865 100.003 256.717 81.2645 234.959 68.5063C216.924 58.096 190.468 53.4446 149.168 53.4446L149.08 53.356ZM150.763 177.217C145.224 177.217 138.932 177.217 137.292 176.198C136.45 175.711 136.45 171.679 136.45 169.73V92.428C136.45 85.2515 136.716 81.3974 138.223 80.2456C140.217 78.6509 146.465 78.5623 155.062 78.5623C178.238 78.5623 205.269 91.2762 205.269 127.026C205.269 162.775 189.494 177.217 150.808 177.217H150.763ZM173.629 307.103C145.091 307.103 141.014 297.667 141.014 262.803V208.404C141.014 203.176 141.014 202.645 154.353 202.645C194.634 202.645 218.696 224.307 218.696 260.544C218.696 294.92 194.412 307.103 173.629 307.103Z" fill="white"/>
</svg>
