<svg width="56" height="58" viewBox="0 0 56 58" fill="none" xmlns="http://www.w3.org/2000/svg">
<path fill-rule="evenodd" clip-rule="evenodd" d="M25.0859 34.7648C25.0859 39.4026 28.843 43.1626 33.4789 43.1626C38.1148 43.1626 41.8719 39.4026 41.8719 34.7648C41.8719 30.127 38.1148 26.367 33.4789 26.367C28.843 26.367 25.0859 30.127 25.0859 34.7648ZM33.4789 41.6626C29.6723 41.6626 26.5859 38.5751 26.5859 34.7648C26.5859 30.9546 29.6723 27.867 33.4789 27.867C37.2855 27.867 40.3719 30.9546 40.3719 34.7648C40.3719 38.5751 37.2855 41.6626 33.4789 41.6626Z" fill="#16346C"/>
<path fill-rule="evenodd" clip-rule="evenodd" d="M30.7122 36.512C30.7122 37.8902 31.8284 39.0083 33.2071 39.0083H33.8739C35.2522 39.0083 36.3695 37.8906 36.3695 36.512C36.3695 35.1335 35.2522 34.0158 33.8739 34.0158H33.0737C32.5242 34.0158 32.0781 33.5701 32.0781 33.0195C32.0781 32.469 32.5242 32.0233 33.0737 32.0233H33.7406C34.29 32.0233 34.7361 32.469 34.7361 33.0195C34.7361 33.4337 35.0719 33.7695 35.4861 33.7695C35.9004 33.7695 36.2361 33.4337 36.2361 33.0195C36.2361 31.6409 35.1189 30.5233 33.7406 30.5233H33.0737C31.6954 30.5233 30.5781 31.6409 30.5781 33.0195C30.5781 34.3981 31.6954 35.5158 33.0737 35.5158H33.8739C34.4234 35.5158 34.8695 35.9615 34.8695 36.512C34.8695 37.0626 34.4234 37.5083 33.8739 37.5083H33.2071C32.658 37.5083 32.2122 37.063 32.2122 36.512C32.2122 36.0978 31.8764 35.762 31.4622 35.762C31.048 35.762 30.7122 36.0978 30.7122 36.512Z" fill="#16346C"/>
<path fill-rule="evenodd" clip-rule="evenodd" d="M33.4727 32.0229C33.8869 32.0229 34.2227 31.6872 34.2227 31.2729V29.8436C34.2227 29.4294 33.8869 29.0936 33.4727 29.0936C33.0584 29.0936 32.7227 29.4294 32.7227 29.8436V31.2729C32.7227 31.6872 33.0584 32.0229 33.4727 32.0229Z" fill="#16346C"/>
<path fill-rule="evenodd" clip-rule="evenodd" d="M33.4727 40.438C33.8869 40.438 34.2227 40.1022 34.2227 39.688V38.2587C34.2227 37.8445 33.8869 37.5087 33.4727 37.5087C33.0584 37.5087 32.7227 37.8445 32.7227 38.2587V39.688C32.7227 40.1022 33.0584 40.438 33.4727 40.438Z" fill="#16346C"/>
<path d="M43.7022 48.9569L34.9283 49.2388C33.8008 49.2752 32.8561 48.3918 32.8176 47.2629C32.7798 46.1547 33.6309 45.2176 34.7371 45.1495L35.0561 45.1296C37.4617 44.9818 39.7992 44.3582 42.0398 43.4672C44.3223 42.5604 47.0187 43.0169 48.884 44.836L52.1283 48.0006L54.4761 49.4038" stroke="#16346C" stroke-width="1.5" stroke-miterlimit="10" stroke-linecap="round" stroke-linejoin="round"/>
<path fill-rule="evenodd" clip-rule="evenodd" d="M50.5308 57.2964C50.7433 56.9408 50.6274 56.4803 50.2719 56.2678L47.711 54.7367C47.5946 54.6672 47.4616 54.6304 47.3261 54.6304H40.3065C39.0029 54.6391 37.7215 54.2896 36.6016 53.6202L22.1101 44.965L22.0919 44.9544C21.4331 44.5858 21.1966 43.7531 21.5637 43.0926C21.9247 42.4443 22.7351 42.2017 23.3917 42.5442L23.395 42.5459L32.5608 47.269C32.929 47.4588 33.3813 47.3141 33.5711 46.9459C33.7608 46.5777 33.6161 46.1254 33.2479 45.9357L24.0854 41.2142C24.0849 41.2139 24.0843 41.2136 24.0837 41.2133C22.7057 40.4957 21.008 41.0066 20.2528 42.3635C19.486 43.7431 19.9765 45.4825 21.3494 46.2578L35.8319 54.9077C37.1863 55.7173 38.7364 56.1405 40.314 56.1304H47.119L49.5022 57.5552C49.8577 57.7678 50.3182 57.6519 50.5308 57.2964Z" fill="#16346C"/>
<path fill-rule="evenodd" clip-rule="evenodd" d="M18.9688 22.7136C18.9688 25.1411 20.9362 27.1108 23.3639 27.1108C25.7916 27.1108 27.7591 25.1411 27.7591 22.7136V21.4988C27.7591 21.0846 27.4233 20.7488 27.0091 20.7488C26.5948 20.7488 26.2591 21.0846 26.2591 21.4988V22.7136C26.2591 24.3136 24.9622 25.6108 23.3639 25.6108C21.7656 25.6108 20.4688 24.3136 20.4688 22.7136V17.8C20.4688 17.3858 20.133 17.05 19.7188 17.05C19.3045 17.05 18.9688 17.3858 18.9688 17.8V22.7136Z" fill="#16346C"/>
<path fill-rule="evenodd" clip-rule="evenodd" d="M14.4453 13.2706C14.4453 16.187 16.8082 18.5513 19.7232 18.5513C22.6383 18.5513 25.0011 16.187 25.0011 13.2706V7.16696C25.0011 6.75275 24.6654 6.41696 24.2511 6.41696H22.4031C21.9889 6.41696 21.6531 6.75275 21.6531 7.16696C21.6531 7.58117 21.9889 7.91696 22.4031 7.91696H23.5011V13.2706C23.5011 15.3593 21.8091 17.0513 19.7232 17.0513C17.6373 17.0513 15.9453 15.3593 15.9453 13.2706V7.91696H17.0433C17.4575 7.91696 17.7933 7.58117 17.7933 7.16696C17.7933 6.75275 17.4575 6.41696 17.0433 6.41696H15.1953C14.7811 6.41696 14.4453 6.75275 14.4453 7.16696V13.2706Z" fill="#16346C"/>
<path fill-rule="evenodd" clip-rule="evenodd" d="M24.4805 19.7192C24.4805 21.1166 25.6125 22.2505 27.0104 22.2505C28.4087 22.2505 29.5397 21.1163 29.5397 19.7192C29.5397 18.3226 28.4085 17.1885 27.0104 17.1885C25.6127 17.1885 24.4805 18.3222 24.4805 19.7192ZM27.0104 20.7505C26.4421 20.7505 25.9805 20.2893 25.9805 19.7192C25.9805 19.1499 26.4419 18.6885 27.0104 18.6885C27.5786 18.6885 28.0397 19.1495 28.0397 19.7192C28.0397 20.2897 27.5784 20.7505 27.0104 20.7505Z" fill="#16346C"/>
<path fill-rule="evenodd" clip-rule="evenodd" d="M15.0234 40.269C15.0234 40.6833 15.3592 41.019 15.7734 41.019H20.0848C20.499 41.019 20.8348 40.6833 20.8348 40.269C20.8348 39.8548 20.499 39.519 20.0848 39.519H15.7734C15.3592 39.519 15.0234 39.8548 15.0234 40.269Z" fill="#16346C"/>
<path fill-rule="evenodd" clip-rule="evenodd" d="M6.28906 40.269C6.28906 40.6833 6.62485 41.019 7.03906 41.019H11.7471C12.1613 41.019 12.4971 40.6833 12.4971 40.269C12.4971 39.8548 12.1613 39.519 11.7471 39.519H7.03906C6.62485 39.519 6.28906 39.8548 6.28906 40.269Z" fill="#16346C"/>
<path fill-rule="evenodd" clip-rule="evenodd" d="M6.28906 48.4673C6.28906 48.8815 6.62485 49.2173 7.03906 49.2173H20.0851C20.4993 49.2173 20.8351 48.8815 20.8351 48.4673C20.8351 48.0531 20.4993 47.7173 20.0851 47.7173H7.03906C6.62485 47.7173 6.28906 48.0531 6.28906 48.4673Z" fill="#16346C"/>
<path fill-rule="evenodd" clip-rule="evenodd" d="M6.28906 32.0718C6.28906 32.486 6.62485 32.8218 7.03906 32.8218H20.0851C20.4993 32.8218 20.8351 32.486 20.8351 32.0718C20.8351 31.6576 20.4993 31.3218 20.0851 31.3218H7.03906C6.62485 31.3218 6.28906 31.6576 6.28906 32.0718Z" fill="#16346C"/>
<path fill-rule="evenodd" clip-rule="evenodd" d="M0 52.3983C0 54.4592 1.66967 56.1313 3.73101 56.1313H40.3096C40.7238 56.1313 41.0596 55.7956 41.0596 55.3813C41.0596 54.9671 40.7238 54.6313 40.3096 54.6313H3.73101C2.49922 54.6313 1.5 53.6319 1.5 52.3983V3.89482C1.5 2.66121 2.49922 1.66173 3.73101 1.66173H40.2512C41.4832 1.66173 42.4829 2.66143 42.4829 3.89482V43.1238C42.4829 43.538 42.8187 43.8738 43.2329 43.8738C43.6471 43.8738 43.9829 43.538 43.9829 43.1238V3.89482C43.9829 1.83368 42.3123 0.161732 40.2512 0.161732H3.73101C1.66967 0.161732 0 1.83391 0 3.89482V52.3983Z" fill="#16346C"/>
</svg>
