<svg width="86" height="62" viewBox="0 0 86 62" fill="none" xmlns="http://www.w3.org/2000/svg">
<path d="M65.7727 1.06519H19.8543L2.30811 17.7072L42.254 60.5018L83.6933 18.0246L65.7737 1.06519H65.7727Z" stroke="#16346C" stroke-width="2"/>
<path d="M2.30713 17.889L83.3011 18.1489" stroke="#16346C" stroke-width="2"/>
<path d="M19.6494 1.39368L30.4828 18.1446" stroke="#16346C" stroke-width="2"/>
<path d="M29.9307 18.1618L42.4059 1.2959" stroke="#16346C" stroke-width="2"/>
<path d="M42.1094 1.2959L54.5846 17.8659" stroke="#16346C" stroke-width="2"/>
<path d="M54.8677 18.279L65.9534 1" stroke="#16346C" stroke-width="2"/>
<path d="M42.4062 1.5918V18.1618" stroke="#16346C" stroke-width="2"/>
<path d="M42.3477 17.7593V60.6314" stroke="#16346C" stroke-width="2"/>
<path d="M30.0869 17.889L42.0866 59.9817" stroke="#16346C" stroke-width="2"/>
<path d="M54.8683 18.0194L42.6089 60.1121" stroke="#16346C" stroke-width="2"/>
<path d="M65.8403 1.47778L70.372 17.9312" stroke="#16346C" stroke-width="2"/>
<path d="M19.7733 1.08897L14.8378 17.6691" stroke="#16346C" stroke-width="2"/>
<path d="M14.6973 17.6298L42.2176 59.9822" stroke="#16346C" stroke-width="2"/>
<path d="M70.6489 17.7592L42.2168 60.3715" stroke="#16346C" stroke-width="2"/>
</svg>
