<svg width="56" height="56" viewBox="0 0 56 56" fill="none" xmlns="http://www.w3.org/2000/svg">
<path fill-rule="evenodd" clip-rule="evenodd" d="M31.2078 30.0211C31.2078 32.0737 29.5367 33.7428 27.4928 33.7428C25.4416 33.7428 23.7704 32.0737 23.7704 30.0211C23.7704 27.9692 25.4416 26.2994 27.4928 26.2994C29.5367 26.2994 31.2078 27.9692 31.2078 30.0211ZM22.1857 30.0211C22.1857 32.9481 24.5665 35.3302 27.4928 35.3302C30.4117 35.3302 32.7925 32.9481 32.7925 30.0211C32.7925 27.0941 30.4117 24.7126 27.4928 24.7126C24.5665 24.7126 22.1857 27.0941 22.1857 30.0211ZM41.535 31.2803C41.7936 30.9812 41.9226 30.5964 41.8942 30.1966C41.7984 28.8685 40.1488 28.3209 39.2832 29.3182L32.097 37.5827C30.8992 38.9561 29.3071 39.6805 27.4928 39.6805C25.6711 39.6805 24.079 38.9561 22.8886 37.5827L15.7024 29.3182C14.822 28.3169 13.167 28.8827 13.0847 30.196C13.0631 30.5964 13.1846 30.9812 13.4499 31.2803L20.3708 39.692C21.1885 40.6832 21.6402 41.775 21.7482 43.0161H21.8697C22.9528 43.0161 23.8352 43.8972 23.8352 44.9816V53.1954C23.8352 53.3251 23.8204 53.4513 23.7995 53.5742H32.2908C32.7999 53.5742 33.2158 53.1617 33.2158 52.6539V43.5785C33.2158 42.1018 33.6676 40.8304 34.6074 39.692L41.535 31.2803ZM8.6452 53.5742C8.43724 53.5742 8.26506 53.4007 8.26506 53.1954V46.2969L14.4614 49.5675V49.8707C14.4614 50.3089 14.8199 50.6634 15.2575 50.6634C15.695 50.6634 16.0461 50.3089 16.0461 49.8707V49.5675L22.2499 46.2969V53.1954C22.2499 53.4007 22.0777 53.5742 21.8697 53.5742H8.6452ZM21.8697 44.6028L22.0061 44.6305L16.0461 47.7756C15.9448 46.8377 14.5694 46.8377 14.4688 47.7756L8.50881 44.6305L8.6452 44.6028H21.8697ZM13.8233 41.8986C13.8233 41.7399 13.8733 41.6312 13.9091 41.5853H16.6059C16.6342 41.6312 16.6916 41.7399 16.6916 41.8986V43.0154H13.8233V41.8986ZM42.4317 27.9752C43.7159 29.0974 43.8422 31.0035 42.7328 32.3134L35.8336 40.7001C35.124 41.5556 34.8012 42.4698 34.8012 43.5785V52.6539C34.8012 54.0367 33.675 55.1616 32.2908 55.1616H22.6874C22.5443 55.1616 22.4004 55.1474 22.2573 55.1231C22.1351 55.1481 22.0061 55.1616 21.8697 55.1616H8.6452C7.56218 55.1616 6.67969 54.2791 6.67969 53.1954V44.9816C6.67969 43.8972 7.56218 43.0154 8.6452 43.0154H12.238V41.8986C12.238 40.8331 12.9483 39.9992 13.8449 39.9992H16.6632C17.5667 39.9992 18.277 40.8331 18.277 41.8986V43.0154H20.1486C20.0555 42.1525 19.7327 41.407 19.152 40.7001L12.2454 32.3134C11.7147 31.6963 11.4493 30.9056 11.5067 30.0866C11.6985 27.3399 15.1082 26.2244 16.8928 28.2764L24.079 36.5402C24.975 37.5719 26.1228 38.0945 27.4928 38.0945C28.8554 38.0945 30.0026 37.5719 30.8992 36.5402L38.0854 28.2764C39.1975 26.9948 41.1481 26.8605 42.4317 27.9752Z" fill="#16346C"/>
<path fill-rule="evenodd" clip-rule="evenodd" d="M28.4339 0.161621H27.8546C22.9466 0.315567 19 4.35936 19 9.3086C19 14.3551 23.1025 18.461 28.1443 18.461C33.186 18.461 37.2886 14.3551 37.2886 9.3086C37.2886 4.35936 33.342 0.315567 28.4339 0.161621ZM27.5204 9.80487C27.305 9.52939 27.2908 9.1425 27.4914 8.85351L30.3461 4.77663C30.5966 4.41743 31.0915 4.32965 31.4501 4.5815C31.8093 4.83335 31.895 5.3276 31.6439 5.68681L29.1341 9.27754L30.3887 10.8514C30.808 11.3781 30.4197 12.1411 29.7722 12.1411C29.5426 12.1411 29.3056 12.0391 29.1551 11.8433L27.5204 9.80487ZM27.3482 1.78548V2.72334C27.3482 3.16155 27.7067 3.51671 28.1443 3.51671C28.5818 3.51671 28.9329 3.16155 28.9329 2.72334V1.78548C32.469 2.15685 35.2873 4.9765 35.66 8.51523H34.7208C34.2832 8.51523 33.9247 8.87107 33.9247 9.3086C33.9247 9.74748 34.2832 10.102 34.7208 10.102H35.66C35.2873 13.6414 32.469 16.4617 28.9329 16.8317V15.8945C28.9329 15.4563 28.5818 15.1012 28.1443 15.1012C27.7067 15.1012 27.3482 15.4563 27.3482 15.8945V16.8317C23.8122 16.4617 20.9939 13.6414 20.6279 10.102H21.5604C22.0047 10.102 22.3564 9.74748 22.3564 9.3086C22.3564 8.87107 22.0047 8.51523 21.5604 8.51523H20.6279C20.9939 4.97717 23.8122 2.15685 27.3482 1.78548Z" fill="#16346C"/>
<path fill-rule="evenodd" clip-rule="evenodd" d="M48.513 18.0026C48.7135 18.2909 48.7067 18.6778 48.4846 18.9532L47.1072 20.6797C46.8331 21.0221 46.3361 21.0768 45.9884 20.804C45.644 20.5298 45.5941 20.0302 45.8668 19.6879L46.8776 18.4252L44.8047 15.4591C44.5468 15.1005 44.64 14.6056 44.9985 14.3544C45.3571 14.1033 45.852 14.1904 46.0957 14.5496L48.513 18.0026ZM48.6568 24.6898C51.4825 24.3319 53.7343 22.0821 54.0928 19.251H53.4541C53.0166 19.251 52.658 18.8958 52.658 18.4576C52.658 18.0188 53.0166 17.6636 53.4541 17.6636H54.0928C53.7343 14.8318 51.4818 12.5834 48.6568 12.2242V12.8649C48.6568 13.3031 48.305 13.659 47.8675 13.659C47.4299 13.659 47.0714 13.3031 47.0714 12.8649V12.2242C44.2457 12.5834 42.0013 14.8318 41.6353 17.6636H42.2808C42.7184 17.6636 43.0695 18.0188 43.0695 18.4576C43.0695 18.8952 42.7184 19.251 42.2808 19.251H41.6353C42.0013 22.0821 44.2457 24.3319 47.0714 24.6898V24.0497C47.0714 23.6108 47.4299 23.2563 47.8675 23.2563C48.305 23.2563 48.6568 23.6108 48.6568 24.0497V24.6898ZM47.8675 10.5854C43.5286 10.5854 40 14.1168 40 18.4576C40 22.7972 43.5286 26.3292 47.8675 26.3292C52.1996 26.3292 55.7282 22.7972 55.7282 18.4576C55.7282 14.1168 52.1996 10.5854 47.8675 10.5854Z" fill="#16346C"/>
<path fill-rule="evenodd" clip-rule="evenodd" d="M7.0714 18.4576V15.141C7.0714 14.7022 7.43061 14.3477 7.86814 14.3477C8.30567 14.3477 8.65678 14.7022 8.65678 15.141V17.6636H10.5791C11.0166 17.6636 11.3751 18.0188 11.3751 18.4576C11.3751 18.8952 11.0166 19.251 10.5791 19.251H7.86747C7.43061 19.251 7.0714 18.8952 7.0714 18.4576ZM1.64277 19.251C2.0013 22.0821 4.24568 24.3312 7.0714 24.6898V24.0497C7.0714 23.6108 7.43061 23.2563 7.86814 23.2563C8.30567 23.2563 8.65678 23.6108 8.65678 24.0497V24.6898C11.4899 24.3312 13.7343 22.0821 14.0928 19.251H13.4548C13.0172 19.251 12.6587 18.8952 12.6587 18.4576C12.6587 18.0188 13.0172 17.6636 13.4548 17.6636H14.0928C13.7343 14.8318 11.4899 12.5834 8.65678 12.2242V12.8649C8.65678 13.3031 8.30567 13.659 7.86814 13.659C7.43061 13.659 7.0714 13.3031 7.0714 12.8649V12.2242C4.24568 12.5834 2.0013 14.8318 1.64277 17.6636H2.28084C2.71837 17.6636 3.06947 18.0188 3.06947 18.4576C3.06947 18.8952 2.71837 19.251 2.28084 19.251H1.64277ZM15.7282 18.4576C15.7282 14.1168 12.1996 10.5854 7.86747 10.5854C3.52861 10.5854 0 14.1168 0 18.4576C0 22.7972 3.52861 26.3292 7.86747 26.3292C12.1996 26.3292 15.7282 22.7972 15.7282 18.4576Z" fill="#16346C"/>
</svg>
