<svg width="32" height="57" viewBox="0 0 32 57" fill="none" xmlns="http://www.w3.org/2000/svg">
<path d="M22.4417 40.6107H8.30714C7.94462 40.6107 7.63755 40.3436 7.58682 39.9844L3.00721 7.38399C2.97406 7.15133 3.05658 6.91798 3.22702 6.75498C3.39611 6.59333 3.63351 6.52367 3.86483 6.56831C3.88985 6.57304 6.42011 7.03635 10.552 6.49256C14.3653 5.99137 20.3612 4.50339 27.2756 0.268712C27.515 0.122619 27.8174 0.126001 28.0521 0.278857C28.2867 0.431714 28.4132 0.706992 28.3767 0.984975L23.1654 39.9797C23.1146 40.3409 22.8062 40.6107 22.4417 40.6107ZM8.93886 39.1566H21.8045L26.7332 2.2802C20.115 6.08065 14.3876 7.46313 10.6602 7.94402C7.82828 8.31061 5.72752 8.22944 4.57974 8.12393L8.93886 39.1566Z" fill="#16346C"/>
<path d="M26.3146 44.3207H5.07151C4.66975 44.3207 4.34375 43.9947 4.34375 43.5936V39.8838C4.34375 39.4821 4.66975 39.1567 5.07151 39.1567H26.3132C26.715 39.1567 27.0403 39.4821 27.0403 39.8838V43.5936C27.0416 43.9947 26.7163 44.3207 26.3146 44.3207ZM5.7986 42.8659H25.5854V40.6096H5.7986V42.8659Z" fill="#16346C"/>
<path d="M30.655 56.1616H0.72681C0.517139 56.1616 0.318967 56.0716 0.18099 55.9154C0.0436892 55.7585 -0.0205646 55.5488 0.00581321 55.3418L1.52153 43.5008C1.5682 43.1376 1.87662 42.8657 2.24253 42.8657H29.1392C29.5058 42.8657 29.8149 43.1376 29.8609 43.5008L31.3766 55.3418C31.403 55.5488 31.3388 55.7571 31.2008 55.9154C31.0628 56.0716 30.8646 56.1616 30.655 56.1616ZM1.55264 54.7067H29.8278L28.4974 44.3206H2.88169L1.55264 54.7067Z" fill="#16346C"/>
<path d="M27.2115 53.132H4.17276C3.96309 53.132 3.76492 53.042 3.62694 52.8858C3.48964 52.7289 3.42471 52.5192 3.45109 52.3122L4.1917 46.5321C4.23837 46.1682 4.54679 45.897 4.91269 45.897H26.4716C26.8382 45.897 27.1473 46.1682 27.1926 46.5321L27.9332 52.3122C27.9596 52.5192 27.8953 52.7275 27.7573 52.8858C27.62 53.042 27.4212 53.132 27.2115 53.132ZM4.99859 51.6771H26.3857L25.8324 47.3511H5.55321L4.99859 51.6771Z" fill="#16346C"/>
<path d="M12.2998 22.3502C12.1496 22.3502 11.9995 22.3035 11.8716 22.2109C11.643 22.0459 11.5321 21.7631 11.5849 21.4865L12.2369 18.081L9.70662 15.7084C9.50101 15.5156 9.42526 15.2214 9.51183 14.9536C9.59908 14.6857 9.8331 14.4916 10.1131 14.4564L13.5551 14.0242L15.0309 10.8853C15.1506 10.6303 15.407 10.4673 15.689 10.4673C15.9704 10.4673 16.2267 10.6303 16.3471 10.8853L17.8222 14.0242L21.2642 14.4564C21.5436 14.4916 21.7783 14.6844 21.8655 14.9522C21.9528 15.2201 21.877 15.5143 21.6707 15.7077L19.1411 18.0797L19.7925 21.4852C19.8459 21.7618 19.7329 22.0445 19.5057 22.2102C19.2784 22.3752 18.9741 22.3942 18.7279 22.2589L15.689 20.5876L12.6495 22.2603C12.5399 22.3211 12.4202 22.3502 12.2998 22.3502ZM11.8311 15.7077L13.524 17.2944C13.7059 17.4649 13.7878 17.7165 13.7411 17.9613L13.3055 20.24L15.3387 19.1213C15.5571 19.0016 15.8229 19.0016 16.0414 19.1213L18.0738 20.24L17.6376 17.9613C17.5909 17.7165 17.6734 17.4649 17.8547 17.2944L19.5476 15.7077L17.2446 15.4182C16.9971 15.3864 16.7827 15.2315 16.6778 15.0056L15.691 12.9056L14.7049 15.0056C14.5987 15.2315 14.3836 15.3864 14.1361 15.4182L11.8311 15.7077Z" fill="#16346C"/>
<path d="M20.3796 26.5162H11.0012C10.5994 26.5162 10.2734 26.1909 10.2734 25.7891C10.2734 25.3873 10.5994 25.062 11.0012 25.062H20.3796C20.7813 25.062 21.1073 25.3873 21.1073 25.7891C21.1073 26.1909 20.7827 26.5162 20.3796 26.5162Z" fill="#16346C"/>
<path d="M18.1966 30.304H13.1841C12.783 30.304 12.457 29.978 12.457 29.5762C12.457 29.1751 12.783 28.8491 13.1841 28.8491H18.1966C18.5984 28.8491 18.9244 29.1751 18.9244 29.5762C18.9244 29.978 18.5984 30.304 18.1966 30.304Z" fill="#16346C"/>
</svg>
