<svg width="55" height="57" viewBox="0 0 55 57" fill="none" xmlns="http://www.w3.org/2000/svg">
<path d="M52.6736 47.4991C52.4516 47.1859 52.0177 47.1118 51.703 47.3328L51.6353 47.3799C50.7432 46.5029 50.6647 45.7969 50.5517 44.7879C50.4136 43.5471 50.2417 42.0018 48.4399 39.851L45.7602 36.0794C45.6377 35.9056 45.4854 35.7615 45.3149 35.6449L44.6191 31.6221C44.5541 31.2456 44.1927 30.991 43.8136 31.0556L40.9289 31.5494C40.2575 29.6242 38.2607 28.4036 36.176 28.7607C34.092 29.1177 32.6192 30.931 32.6334 32.9694L29.7473 33.4631C29.3676 33.5278 29.1131 33.8868 29.1781 34.2641L29.7832 37.7628C29.8482 38.1407 30.2096 38.394 30.588 38.3293C32.1488 38.0625 33.6358 39.108 33.9039 40.66C34.1726 42.212 33.1214 43.6926 31.5613 43.9593C31.1816 44.024 30.9271 44.3837 30.9921 44.7602L31.5972 48.2597C31.6554 48.5971 31.9505 48.8349 32.2835 48.8349C32.3234 48.8349 32.3627 48.8315 32.4026 48.8248L36.7622 48.0784C36.7419 48.1788 36.7243 48.2805 36.7135 48.3856C36.6789 48.746 36.9287 49.0734 37.2874 49.1353C38.4882 49.3448 39.563 49.4546 40.5119 49.5516C43.0542 49.8116 44.5595 49.9666 45.6905 51.5563L45.6411 51.5913C45.4902 51.6978 45.388 51.8594 45.3562 52.04C45.325 52.2212 45.3677 52.4071 45.4739 52.5573L47.6642 55.6404C47.8003 55.831 48.0148 55.9341 48.2335 55.9341C48.3729 55.9341 48.513 55.8923 48.6355 55.8068L54.6947 51.5448C54.8456 51.4384 54.9478 51.2768 54.9796 51.0969C55.0108 50.915 54.9674 50.7291 54.8618 50.5789L52.6736 47.4991ZM32.4764 45.1557C34.4129 44.4874 35.638 42.501 35.2792 40.4269C34.9225 38.363 33.1153 36.9019 31.078 36.9019C31.0692 36.9019 31.0584 36.9019 31.0489 36.9019L30.6705 34.7147L33.4998 34.2304C33.6825 34.1994 33.8436 34.0977 33.9506 33.9475C34.0575 33.7966 34.0995 33.6106 34.0677 33.4294C33.7996 31.8774 34.8508 30.3969 36.4102 30.1301C37.9704 29.862 39.4581 30.9088 39.7268 32.4608C39.7579 32.6427 39.8601 32.803 40.0111 32.9094C40.162 33.0158 40.3495 33.0576 40.5316 33.026L43.3608 32.5416L43.8569 35.4092C43.6661 35.4624 43.484 35.5453 43.3168 35.6618C43.2166 35.7325 43.1266 35.8113 43.0461 35.8976L42.9926 35.8214C42.4356 35.0367 41.3397 34.8494 40.5512 35.4045C40.3989 35.5116 40.269 35.6389 40.1634 35.7797C39.9948 35.6874 39.8101 35.6214 39.6151 35.5884C39.1528 35.5082 38.6892 35.6133 38.3081 35.8814C37.6171 36.3671 37.3876 37.2636 37.7159 38.0066C37.5954 38.0565 37.4783 38.1178 37.3687 38.1952C36.9876 38.4633 36.7344 38.8641 36.6546 39.3229C36.574 39.7816 36.6803 40.2444 36.9497 40.6229L40.4118 45.4965C40.4152 45.5012 40.4185 45.5059 40.4212 45.5106L40.6026 45.7531C40.6277 45.7875 40.6304 45.8144 40.6108 45.8522C40.5905 45.8906 40.5674 45.9054 40.5248 45.902L39.7356 45.8764C38.9789 45.8522 38.2878 46.0879 37.7565 46.5029L32.8554 47.3422L32.4764 45.1557ZM40.6561 48.1761C39.9495 48.1047 39.1725 48.0252 38.3318 47.9013C38.6127 47.4978 39.117 47.2452 39.6909 47.2647L40.4795 47.2903C41.0555 47.3051 41.5793 47.0047 41.846 46.4961C42.1134 45.9876 42.066 45.3867 41.7222 44.9266L41.5455 44.6909L38.0875 39.8247C38.0144 39.7216 38.0191 39.6145 38.0286 39.5586C38.0381 39.5047 38.0692 39.4017 38.1734 39.3276C38.277 39.2548 38.3853 39.2595 38.4408 39.269C38.4956 39.2777 38.5985 39.3094 38.6729 39.4131L41.2328 43.0163C41.3688 43.2069 41.5841 43.31 41.802 43.31C41.9415 43.31 42.0822 43.2682 42.2041 43.1826C42.5188 42.9624 42.5933 42.5286 42.3713 42.2167L39.8114 38.6135C39.8114 38.6135 39.8114 38.6135 39.8114 38.6122L39.0296 37.5108C38.918 37.3539 38.9565 37.1262 39.1156 37.0151C39.2192 36.9423 39.3268 36.947 39.383 36.9565C39.4371 36.9659 39.5407 36.9969 39.6151 37.1006L40.1363 37.8349L42.9581 41.8051C43.0935 41.9964 43.3087 42.0988 43.5273 42.0988C43.6661 42.0988 43.8069 42.057 43.9287 41.9715C44.2434 41.7512 44.3179 41.3174 44.0959 41.0055L41.2748 37.0353C41.1631 36.8777 41.2017 36.65 41.3607 36.5395C41.5191 36.4284 41.7479 36.4661 41.8589 36.6251L42.8857 38.0706C42.8884 38.074 42.8918 38.0774 42.8951 38.0821C42.8972 38.0854 42.8999 38.0902 42.9033 38.0949L44.6807 40.5967C44.902 40.9099 45.3379 40.984 45.6513 40.763C45.966 40.5421 46.0405 40.109 45.8184 39.7971L44.0417 37.2953C43.93 37.1377 43.9686 36.91 44.1277 36.7995C44.2319 36.7261 44.3389 36.7308 44.3944 36.7402C44.4492 36.7497 44.5527 36.7807 44.6272 36.8851L47.3184 40.6761C47.3285 40.6916 47.34 40.7065 47.3529 40.7213C48.9015 42.5623 49.0362 43.7721 49.1662 44.9428C49.2799 45.97 49.3997 47.0263 50.4847 48.1903L46.829 50.7614C45.3264 48.6551 43.239 48.4402 40.6561 48.1761ZM48.4027 54.2784L47.0158 52.3276L51.9372 48.8666L53.3227 50.8173L48.4027 54.2784Z" fill="#16346C"/>
<path d="M27.0917 39.1724L28.2261 36.4867C28.375 36.1344 28.2085 35.7276 27.8532 35.5787L24.5644 34.2025C24.3931 34.1304 24.2016 34.1304 24.031 34.1998C23.8604 34.2692 23.723 34.4033 23.652 34.573C23.3562 35.2736 22.8012 35.8178 22.0891 36.1068C21.3757 36.3958 20.5967 36.3931 19.8927 36.0987C19.1888 35.8037 18.6419 35.2513 18.3516 34.5434C18.0612 33.8334 18.0632 33.0581 18.3597 32.3582C18.4314 32.1877 18.4314 31.9971 18.3617 31.8274C18.292 31.6576 18.1573 31.5215 17.9867 31.4508L14.6972 30.0746C14.5267 30.0026 14.3351 30.0026 14.1639 30.0719C13.9933 30.1413 13.8566 30.2754 13.7855 30.4451L9.81648 39.8386C9.44286 38.5958 8.33688 37.7444 7.04207 37.7881C6.67725 37.7996 6.38417 38.0899 6.36793 38.4516C6.31581 39.6635 6.34491 40.7386 6.37131 41.6863C6.44103 44.2285 6.48299 45.7334 5.04401 47.055L5.0034 47.0112C4.87818 46.8758 4.70355 46.7963 4.51877 46.7883C4.33535 46.7815 4.15463 46.8475 4.01858 46.9722L1.2286 49.5332C1.09256 49.6578 1.01269 49.831 1.00457 50.0148C0.996445 50.1987 1.06345 50.3779 1.18935 50.5126L6.22037 55.9386C6.35777 56.0868 6.54458 56.1615 6.73275 56.1615C6.90128 56.1615 7.07117 56.1002 7.20587 55.9776L9.99449 53.4172C10.1305 53.292 10.2104 53.1188 10.2185 52.9349C10.2266 52.7511 10.159 52.5719 10.0337 52.4371L9.97824 52.3772C10.7363 51.3829 11.4301 51.2145 12.421 50.9727C13.64 50.6757 15.1568 50.3058 17.0669 48.25L17.272 48.062L21.7825 49.9475C21.8705 49.9845 21.9625 50.002 22.0519 50.002C22.3233 50.002 22.5825 49.8424 22.6942 49.577L23.8286 46.8913C24.6869 47.0954 25.5898 47.0274 26.427 46.6879C27.4843 46.2581 28.3087 45.4491 28.7486 44.4077C29.569 42.4684 28.8258 40.2576 27.0917 39.1724ZM6.77268 54.4883L2.68519 50.0815L4.45041 48.4615L8.53791 52.8683L6.77268 54.4883ZM16.1017 47.2497C16.0875 47.2618 16.0746 47.2759 16.0611 47.2887C14.4265 49.0543 13.2386 49.3446 12.0887 49.6242C11.0802 49.87 10.0419 50.1233 9.02321 51.3459L5.98686 48.0722C7.89084 46.3167 7.83398 44.2299 7.76291 41.6466C7.74329 40.942 7.7223 40.164 7.73516 39.3186C8.17308 39.5422 8.49053 40.007 8.54603 40.5755L8.62251 41.3569C8.67869 41.9275 9.05028 42.4051 9.59041 42.6011C10.1312 42.7991 10.7235 42.6745 11.1384 42.2757L11.3495 42.071L15.7518 38.03C15.8459 37.9444 15.9514 37.935 16.0083 37.937C16.0645 37.9397 16.1714 37.9572 16.2574 38.0509C16.3433 38.1445 16.3521 38.2502 16.3501 38.3061C16.3474 38.3614 16.3305 38.4678 16.2364 38.5534L12.9774 41.5449C12.6938 41.8049 12.6762 42.2434 12.9374 42.525C13.0748 42.6732 13.2616 42.7479 13.4498 42.7479C13.6183 42.7479 13.7876 42.6866 13.9222 42.5647L17.182 39.5725L18.1783 38.6571C18.2724 38.5716 18.3793 38.5628 18.4348 38.5648C18.4903 38.5668 18.5973 38.5843 18.6832 38.678C18.7692 38.7716 18.7786 38.878 18.7766 38.9333C18.7739 38.9892 18.7563 39.0949 18.6622 39.1805L17.9982 39.7894L14.4069 43.0868C14.1233 43.3468 14.1057 43.7846 14.3676 44.0669C14.5043 44.2144 14.6911 44.2898 14.8793 44.2898C15.0478 44.2898 15.2177 44.2285 15.3524 44.1059L18.8389 40.9049C18.8389 40.9049 18.8402 40.9049 18.8402 40.9036L18.9445 40.8079C19.0873 40.6786 19.3174 40.6874 19.4501 40.8288C19.5814 40.971 19.5719 41.2007 19.4305 41.3313L18.1221 42.5324C18.1201 42.5344 18.118 42.5364 18.1153 42.5391C18.1106 42.5438 18.1059 42.5472 18.1018 42.5506L15.8391 44.6287C15.5555 44.8887 15.5379 45.3265 15.7992 45.6081C16.0611 45.8903 16.501 45.9078 16.7846 45.6478L19.0467 43.5697C19.1902 43.4391 19.421 43.4485 19.5523 43.5893C19.6836 43.7314 19.6741 43.9618 19.5327 44.0925L16.1017 47.2497ZM27.464 43.8702C27.1682 44.5707 26.6132 45.115 25.9011 45.404C25.1877 45.693 24.4087 45.6903 23.7048 45.3959C23.3494 45.2464 22.9413 45.4127 22.7917 45.7664L21.6789 48.4002L18.3962 47.0274L20.4782 45.117C21.1876 44.4656 21.2329 43.3609 20.5777 42.6543C20.4945 42.5647 20.4038 42.4859 20.3083 42.4179L20.3767 42.3539C21.0867 41.7025 21.1321 40.5978 20.4769 39.8912C20.3503 39.7551 20.2061 39.6439 20.0518 39.5577C20.1215 39.3792 20.1642 39.1886 20.1716 38.9912C20.1899 38.5257 20.0261 38.0805 19.71 37.7396C19.3946 37.3988 18.9607 37.2001 18.493 37.1812C18.1444 37.1664 17.8067 37.2546 17.5163 37.4311C17.4513 37.318 17.3742 37.2102 17.2835 37.1118C16.9681 36.771 16.5349 36.5723 16.0665 36.5541C15.5988 36.5366 15.1514 36.6982 14.8089 37.0142L11.07 40.4462L14.7981 31.6233L16.855 32.4828C16.65 33.3369 16.7183 34.2349 17.0594 35.0681C17.4906 36.1196 18.3049 36.9401 19.3513 37.3779C20.3977 37.8158 21.5571 37.8205 22.6137 37.3907C23.4516 37.0512 24.1434 36.4706 24.6138 35.7276L26.6707 36.5878L25.558 39.2209C25.4097 39.5739 25.5756 39.9807 25.9309 40.1296C27.3902 40.7406 28.0786 42.4185 27.464 43.8702Z" fill="#16346C"/>
<path d="M29.9173 19.7221L29.3785 22.5863C29.3075 22.9628 29.5572 23.3245 29.9349 23.3946L33.4424 24.048C33.8207 24.118 34.1842 23.8702 34.2552 23.4943C34.547 21.9456 36.0496 20.9218 37.6063 21.2121C39.1624 21.5017 40.1919 22.9972 39.9002 24.5458C39.8291 24.9223 40.0789 25.2841 40.4565 25.3548L43.964 26.0075C44.0073 26.0156 44.0499 26.0196 44.0919 26.0196C44.2313 26.0196 44.3687 25.9779 44.4858 25.8977C44.6381 25.794 44.7437 25.6343 44.7776 25.4531L46.3742 16.9616C46.8589 17.9404 47.8389 18.5736 48.9618 18.5352C49.3267 18.5237 49.6197 18.2347 49.636 17.8723C49.6881 16.6598 49.659 15.5854 49.6326 14.6377C49.5629 12.0954 49.5209 10.5906 50.9599 9.2683L51.0005 9.31209C51.1379 9.46028 51.3247 9.53573 51.5129 9.53573C51.6814 9.53573 51.8506 9.47443 51.9853 9.35183L54.774 6.79076C54.91 6.66615 54.9905 6.49236 54.9987 6.30913C55.0054 6.12524 54.9391 5.94606 54.8139 5.81066L49.7822 0.385405C49.5209 0.103162 49.0803 0.0856487 48.7974 0.345662L46.0087 2.90673C45.7251 3.16674 45.7075 3.60459 45.9688 3.88683L46.025 3.94678C45.2662 4.94036 44.5731 5.10943 43.5822 5.35059C42.3626 5.64765 40.8457 6.01746 38.9363 8.07332L37.9048 9.01974L32.8163 8.07265C32.4379 8.00192 32.0738 8.25048 32.0034 8.62568L31.4646 11.4899C30.5813 11.4697 29.7149 11.7263 28.9684 12.2349C28.0262 12.8775 27.392 13.8428 27.1828 14.9516C26.9737 16.0623 27.2147 17.1906 27.8604 18.1276C28.3714 18.8726 29.0868 19.423 29.9173 19.7221ZM49.2305 1.83636L53.3174 6.24312L51.5521 7.86315L47.4646 3.45707L49.2305 1.83636ZM39.9015 9.07565C39.9151 9.06285 39.9279 9.04871 39.9408 9.03524C41.5754 7.26903 42.7632 6.97938 43.9132 6.69983C44.921 6.45329 45.9593 6.19934 46.978 4.97741L50.0143 8.25183C48.111 10.0073 48.1679 12.0941 48.2383 14.6767C48.2579 15.382 48.2789 16.1593 48.266 17.0054C47.8288 16.7811 47.5114 16.317 47.4558 15.7484L47.3787 14.967C47.3232 14.3958 46.9516 13.9189 46.4115 13.7209C45.87 13.5235 45.2777 13.6481 44.8635 14.0469L44.6517 14.2517L40.2501 18.2927C40.1066 18.4233 39.8758 18.4139 39.7445 18.2731C39.6585 18.1795 39.6491 18.0731 39.6518 18.0178C39.6538 17.9626 39.6714 17.8568 39.7655 17.7706L43.0245 14.7771C43.3081 14.5171 43.3257 14.0792 43.0638 13.7977C42.8025 13.5154 42.3626 13.4979 42.079 13.7579L37.8236 17.6655C37.6808 17.7962 37.4493 17.7868 37.318 17.6453C37.1867 17.5032 37.1962 17.2735 37.3376 17.1428L38.0023 16.5325L41.5937 13.2359C41.8773 12.9759 41.8942 12.538 41.6329 12.2558C41.3716 11.9735 40.9317 11.9567 40.6481 12.2167L37.1603 15.419L37.0567 15.5133C36.9139 15.644 36.6831 15.6346 36.5518 15.4938C36.4205 15.3517 36.43 15.122 36.5714 14.9913L37.8791 13.7902C37.8818 13.7882 37.8825 13.7855 37.8852 13.7835C37.8899 13.7788 37.8953 13.7754 37.9001 13.7707L40.1628 11.6933C40.4464 11.4333 40.4633 10.9948 40.2021 10.7132C39.9408 10.431 39.5008 10.4134 39.2172 10.6735L36.9545 12.7515C36.8604 12.8371 36.7535 12.8465 36.698 12.8438C36.6425 12.8418 36.5356 12.8243 36.4496 12.7307C36.3636 12.637 36.3542 12.5306 36.3562 12.4754C36.3589 12.4201 36.3765 12.3137 36.4706 12.2281L39.9015 9.07565ZM28.5535 15.2082C28.6942 14.4618 29.1213 13.8125 29.7555 13.38C30.3911 12.9482 31.1532 12.7859 31.9032 12.926C32.0846 12.9597 32.2728 12.9199 32.425 12.8162C32.5767 12.7125 32.6829 12.5528 32.7161 12.3716L33.2447 9.56334L36.6269 10.1932L35.5237 11.2063C35.1812 11.5209 34.9815 11.952 34.9626 12.4174C34.9443 12.8836 35.1081 13.3282 35.4235 13.669C35.5061 13.7579 35.5968 13.8367 35.6936 13.9061L35.6245 13.9694C34.9152 14.6215 34.8698 15.7262 35.525 16.4321C35.6516 16.5689 35.7958 16.6794 35.9501 16.7663C35.8804 16.9441 35.837 17.1347 35.8303 17.3328C35.812 17.7982 35.9758 18.2428 36.2912 18.5843C36.6364 18.9562 37.1068 19.1448 37.5793 19.1448C37.8933 19.1448 38.2067 19.0613 38.4856 18.8928C38.5505 19.006 38.627 19.1131 38.7177 19.2115C39.0629 19.584 39.5333 19.7719 40.0058 19.7719C40.4308 19.7719 40.8572 19.6197 41.193 19.3112L45.2067 15.6258L43.5342 24.5168L41.3419 24.1093C41.3859 22.0703 39.9394 20.2367 37.8615 19.8494C35.7829 19.462 33.7686 20.6523 33.0694 22.5687L30.8764 22.1605L31.405 19.3523C31.4389 19.1724 31.3989 18.9851 31.2947 18.8336C31.1905 18.682 31.0301 18.5769 30.8473 18.5432C30.0974 18.4038 29.4455 17.9788 29.0103 17.3476C28.5758 16.7144 28.4134 15.9552 28.5535 15.2082Z" fill="#16346C"/>
<path d="M2.76301 9.69394C2.80226 9.70068 2.8422 9.70405 2.88281 9.70405C3.02562 9.70405 3.16573 9.66026 3.2835 9.57808L3.35051 9.53093C4.24057 10.4093 4.31909 11.1153 4.42941 12.1243C4.56546 13.3665 4.73535 14.9104 6.53171 17.0646L9.20459 20.8408C9.54504 21.3231 10.0886 21.5791 10.6388 21.5791C10.7201 21.5791 10.8006 21.5737 10.8818 21.5623L12.8528 26.6016C12.9198 26.7727 13.0525 26.9114 13.2224 26.9855C13.3916 27.0596 13.5831 27.0643 13.7551 26.997L16.4848 25.9407C17.2605 27.2442 18.6744 28.0195 20.1587 28.0195C20.6718 28.0195 21.1936 27.9272 21.6999 27.7305C23.6709 26.968 24.7498 24.8987 24.3281 22.9034L27.0579 21.8472C27.4166 21.7091 27.5946 21.307 27.4552 20.9493L26.161 17.6412C26.094 17.4701 25.9614 17.3313 25.7915 17.2572C25.6223 17.1831 25.4307 17.1784 25.2588 17.2458C23.7826 17.8163 22.1155 17.0875 21.5415 15.6197C20.9682 14.1519 21.7013 12.4928 23.1775 11.9216C23.3494 11.8549 23.4882 11.7229 23.5626 11.5545C23.6371 11.3854 23.6418 11.1947 23.5741 11.0236L22.2807 7.71555C22.1412 7.35853 21.7371 7.18138 21.3777 7.32014L18.2757 8.52051C18.2967 8.17091 18.0517 7.85768 17.7018 7.79638C16.501 7.58554 15.4269 7.47372 14.4786 7.3747C11.9364 7.10997 10.4324 6.95235 9.30341 5.35993L9.3535 5.32558C9.66823 5.10464 9.74336 4.67285 9.52135 4.35962L7.33445 1.27381C7.22751 1.1236 7.06642 1.02054 6.88367 0.989551C6.7016 0.958565 6.51479 0.999655 6.36317 1.10609L0.295889 5.35522C-0.0188464 5.57616 -0.0946534 6.00862 0.127353 6.32185L2.31223 9.40968C2.41917 9.55989 2.58026 9.66228 2.76301 9.69394ZM22.0404 10.9347C20.2772 11.9741 19.4744 14.164 20.2406 16.1236C21.0075 18.0851 23.0875 19.1582 25.0923 18.7392L25.9018 20.8072L23.2262 21.8432C22.8668 21.9813 22.6895 22.3834 22.8289 22.7411C23.4029 24.2082 22.6698 25.868 21.1943 26.4385C19.7181 27.0098 18.0517 26.2802 17.4777 24.8118C17.4107 24.6407 17.2781 24.5019 17.1082 24.4278C16.939 24.3544 16.7474 24.3497 16.5755 24.4164L13.8992 25.4517L12.3486 21.4868C12.6565 21.7179 13.0281 21.8405 13.4058 21.8405C13.7544 21.8405 14.1057 21.7374 14.4116 21.5239C14.5639 21.4175 14.6938 21.2895 14.8008 21.1494C14.9686 21.2416 15.1534 21.309 15.349 21.3427C15.4512 21.3595 15.5521 21.369 15.6529 21.369C16.011 21.369 16.3582 21.2605 16.6554 21.0524C17.0378 20.7856 17.2923 20.3841 17.3721 19.9254C17.431 19.5839 17.3897 19.2403 17.2523 18.9305C17.3735 18.8813 17.4906 18.8187 17.5996 18.7412C17.982 18.4745 18.2365 18.073 18.3163 17.6143C18.3962 17.1555 18.2933 16.6934 18.0239 16.3135L14.5707 11.4339C14.5673 11.4292 14.5639 11.4251 14.5612 11.4204L14.3811 11.1772C14.3554 11.1429 14.3534 11.1166 14.373 11.0782C14.394 11.0398 14.417 11.0263 14.4603 11.0284L15.2489 11.0553C16.0245 11.0816 16.7318 10.833 17.2699 10.3999L21.2329 8.86607L22.0404 10.9347ZM14.331 8.7556C15.0363 8.82903 15.8147 8.91053 16.654 9.0338C16.3731 9.43595 15.8682 9.68923 15.2942 9.66834L14.5057 9.6414C13.9304 9.62321 13.4058 9.92499 13.1371 10.4336C12.8691 10.9408 12.9164 11.543 13.2589 12.0024L13.4349 12.2382L16.8828 17.1117C16.9566 17.2155 16.9518 17.3219 16.9423 17.3778C16.9329 17.4317 16.9017 17.5348 16.7968 17.6075C16.6926 17.6803 16.5856 17.6756 16.5301 17.6661C16.4753 17.6574 16.3718 17.6257 16.2987 17.522L13.7463 13.9141C13.5242 13.6009 13.0897 13.5261 12.775 13.7464C12.4602 13.9673 12.3844 14.3998 12.6064 14.7123L15.1595 18.3202L15.9399 19.4229C16.013 19.5273 16.0083 19.6331 15.9981 19.689C15.9887 19.7429 15.9575 19.8459 15.8526 19.9187C15.6935 20.0298 15.4661 19.9901 15.3544 19.8318L14.7527 18.9817C14.7527 18.9817 14.7527 18.9817 14.7527 18.9803L12.021 15.1205C11.799 14.8073 11.3651 14.7325 11.0504 14.9528C10.7356 15.1738 10.6598 15.6062 10.8818 15.9194L13.6136 19.7799L13.6948 19.8944C13.8065 20.0527 13.7666 20.2791 13.6075 20.3902C13.4484 20.5013 13.221 20.4616 13.1093 20.3033L12.0853 18.8557C12.0826 18.8523 12.0792 18.849 12.0758 18.8443C12.0731 18.8402 12.071 18.8362 12.0677 18.8321L10.295 16.3283C10.073 16.0151 9.63913 15.9397 9.32439 16.1606C9.00966 16.3815 8.93385 16.8133 9.15586 17.1266L10.9278 19.631C11.0395 19.7893 11.0003 20.0157 10.8419 20.1268C10.6828 20.238 10.4554 20.1982 10.3437 20.0399L7.65528 16.2401C7.64445 16.2253 7.63294 16.2104 7.62008 16.1956C6.07551 14.3506 5.94285 13.1408 5.8156 11.9701C5.70257 10.9428 5.58615 9.88525 4.50251 8.72057L8.16292 6.15884C9.66214 8.26791 11.7482 8.48616 14.331 8.7556ZM6.59601 2.63855L7.97814 4.59269L3.05067 8.04494L1.66854 6.0908L6.59601 2.63855Z" fill="#16346C"/>
</svg>
