<svg width="732" height="405" viewBox="0 0 732 405" fill="none" xmlns="http://www.w3.org/2000/svg">
<path d="M359.472 2.36719H101.106L2.37988 96.0057L227.141 336.796L460.305 97.7919L359.478 2.36719H359.472Z" stroke="#16346C" stroke-width="3"/>
<path d="M2.37402 97.0281L458.098 98.49" stroke="#16346C" stroke-width="3"/>
<path d="M99.9512 4.2146L160.906 98.4662" stroke="#16346C" stroke-width="3"/>
<path d="M157.803 98.5636L227.997 3.66504" stroke="#16346C" stroke-width="3"/>
<path d="M226.328 3.66504L296.522 96.8987" stroke="#16346C" stroke-width="3"/>
<path d="M298.114 99.2226L360.49 2" stroke="#16346C" stroke-width="3"/>
<path d="M158.682 97.0281L226.199 333.868" stroke="#16346C" stroke-width="3"/>
<path d="M298.115 97.761L229.136 334.601" stroke="#16346C" stroke-width="3"/>
<path d="M668.654 175.31L506.503 130.564L428.325 172.234L527.684 362.28L715.411 252.662L668.658 175.311L668.654 175.31Z" stroke="#16346C" stroke-width="2"/>
<path d="M428.146 172.874L713.906 252.718" stroke="#16346C" stroke-width="2"/>
<path d="M505.459 131.524L527.392 201.233" stroke="#16346C" stroke-width="2"/>
<path d="M525.426 200.756L585.915 153.354" stroke="#16346C" stroke-width="2"/>
<path d="M584.865 153.065L612.772 223.736" stroke="#16346C" stroke-width="2"/>
<path d="M613.372 225.471L669.357 175.256" stroke="#16346C" stroke-width="2"/>
<path d="M526.242 199.945L527.599 360.28" stroke="#16346C" stroke-width="2"/>
<path d="M613.625 224.553L529.315 361.249" stroke="#16346C" stroke-width="2"/>
</svg>
