<svg width="622" height="537" viewBox="0 0 622 537" fill="none" xmlns="http://www.w3.org/2000/svg">
<path d="M208.007 0H0V140.754H208.007V0Z" fill="#16346C"/>
<path d="M202.069 3.96655H3.9668V136.973H202.069V3.96655Z" fill="white"/>
<path d="M25.418 70.5631V107.595H29.5581H33.6983V90.0087V72.4053L34.408 72.5248C36.0641 72.7977 41.8941 73.48 44.0065 73.6505C45.257 73.7529 46.3047 73.8552 46.3216 73.8894C46.3554 73.9064 48.6874 78.3755 51.5264 83.7998C54.3653 89.224 57.593 95.3477 58.6914 97.4287C59.7898 99.5097 61.429 102.631 62.3584 104.405L64.0145 107.595H73.0214H82.0284V94.3072V81.0194L83.6845 79.1601C84.5801 78.1367 87.267 75.1004 89.6328 72.4053C91.9986 69.7103 93.9757 67.5098 94.0264 67.5098C94.0771 67.5098 94.5672 68.3286 95.1249 69.335C95.6656 70.3585 96.426 71.7572 96.8147 72.4565C97.2034 73.1559 97.9976 74.6228 98.5891 75.6974C99.1805 76.7721 100.059 78.3925 100.549 79.2795C101.022 80.1665 102.476 82.8104 103.743 85.1644C107.19 91.4927 108.019 93.0279 108.897 94.6313C109.337 95.433 110.198 97.0023 110.807 98.1281C111.415 99.2539 112.361 100.977 112.902 101.966C113.443 102.955 114.339 104.627 114.896 105.685L115.91 107.595H133.485C153.78 107.595 153.915 107.578 158.562 106.06C165.153 103.911 170.865 99.6121 175.258 93.5225C179.939 87.0066 182.575 78.4949 182.575 69.8126C182.575 63.6378 181.359 58.2135 178.858 53.1815C174.396 44.1922 166.032 37.8127 155.149 35.1006C149.589 33.7189 149.234 33.6848 136.915 33.6166L125.965 33.5313V70.512C125.965 94.3754 125.914 107.441 125.796 107.322C125.711 107.237 125.188 106.35 124.647 105.377C123.16 102.699 118.006 93.3861 116.333 90.3669C115.522 88.917 113.561 85.3349 111.939 82.4352C110.334 79.5183 107.968 75.271 106.7 72.9682C105.433 70.6655 103.422 67.0322 102.222 64.8659C101.022 62.7167 100.059 60.8745 100.059 60.7721C100.059 60.6527 102.222 58.1282 104.858 55.1432C107.495 52.1581 110.3 48.9683 111.094 48.0643C111.888 47.1432 114.964 43.6464 117.921 40.2861C120.895 36.9258 123.43 34.026 123.565 33.8554C123.802 33.5825 123.751 33.5654 122.653 33.5654H121.47L119.205 36.414C115.454 41.139 112.023 45.2498 109.151 48.4907C107.664 50.1794 103.625 54.7508 100.194 58.6399C96.764 62.5291 93.266 66.4864 92.438 67.4246C91.593 68.3798 88.9231 71.399 86.5065 74.1452L82.1129 79.1431L82.0622 56.3542L82.0284 33.5654H77.8882H73.7481V70.4267C73.7481 96.917 73.6974 107.271 73.5622 107.22C73.4608 107.186 72.4807 105.48 71.3992 103.416C70.3008 101.352 68.4419 97.821 67.259 95.5694C66.0592 93.3178 64.5721 90.5204 63.9469 89.3434C63.3216 88.1665 61.3445 84.4479 59.5532 81.0706C57.762 77.6932 56.0045 74.384 55.6496 73.7017L54.9906 72.4906L55.8862 72.1836C60.0264 70.8019 64.5552 67.4757 66.9379 64.0642C69.6417 60.1751 70.8246 55.0749 70.1994 50.0089C69.1685 41.753 63.3892 36.5334 52.9459 34.4354C49.3802 33.7189 48.755 33.6848 36.9597 33.6166L25.418 33.5484V70.5631ZM46.0343 35.1688C49.8196 35.8341 52.8276 36.9769 55.0582 38.5803C55.6496 39.0068 56.6973 39.979 57.424 40.7466C60.4995 44.0558 61.9697 49.4118 61.429 55.399C60.9896 60.3457 59.5025 63.8766 56.6129 66.964C55.092 68.5674 53.3007 69.8467 50.8166 71.0578L48.8226 72.0301L44.4289 72.013C40.576 72.013 37.6357 71.8595 34.5939 71.5013L33.6983 71.399V53.0621V34.7253L39.0721 34.8106C42.9926 34.8618 44.8514 34.9641 46.0343 35.1688ZM146.226 35.0324C150.113 35.5953 153.307 36.6017 156.551 38.2733C159.796 39.9279 161.976 41.5825 164.646 44.414C167.451 47.3649 169.665 51.0664 171.219 55.3308C174.633 64.7124 174.802 78.3925 171.642 87.9788C170.104 92.6697 167.975 96.2517 164.933 99.3391C161.57 102.734 158.224 104.627 153.121 106.009L151.397 106.486H142.864H134.33L134.279 70.6143L134.245 34.7595H139.332C143.049 34.7595 144.908 34.8277 146.226 35.0324Z" fill="#16346C"/>
<path d="M137.254 72.7849L142.983 71.1148C147.699 69.7399 151.375 66.035 152.714 61.3085L154.289 55.7502L155.723 61.1483C157.025 66.0435 160.824 69.8815 165.706 71.2316L171.323 72.7849L166.157 74.0117C160.954 75.2472 156.88 79.2887 155.602 84.4809L154.289 89.8195L152.68 84.0191C151.287 78.9985 147.268 75.1367 142.196 73.9455L137.254 72.7849Z" fill="#16346C"/>
<path d="M603.187 184.895L513.97 114.034L512.246 116.133L597.781 187.935L564.846 259.062L570.11 261.491L603.986 188.35C604.565 187.135 604.229 185.718 603.187 184.895Z" fill="#506EA6"/>
<path d="M569.952 244.561H564.993C552.826 244.561 542.971 254.432 542.971 266.599V268.973H591.982V266.599C591.982 254.432 582.119 244.561 569.952 244.561Z" fill="#86A2D7"/>
<path d="M471.969 108.048L488.225 100.073C500.141 94.0169 514.603 96.4612 523.855 106.113C535.145 117.888 531.862 137.231 517.322 144.626L514.376 145.817L471.969 108.048Z" fill="#86A2D7"/>
<path d="M509.296 118.82C519.912 129.961 521.181 142.715 512.132 147.321C503.083 151.92 487.149 146.624 476.533 135.484C465.918 124.343 464.641 111.581 473.689 106.975C482.73 102.368 498.681 107.68 509.296 118.82Z" fill="#506EA6"/>
<path d="M509.399 145.363C501.369 149.444 487.205 144.744 477.78 134.841C468.347 124.947 467.212 113.61 475.257 109.529C478.712 107.782 483.295 107.649 488.153 108.855C494.585 110.445 501.494 114.409 506.877 120.05C508.428 121.68 509.76 123.348 510.849 125.017C516.427 133.478 516.105 141.955 509.399 145.363Z" fill="#16346C"/>
<path d="M510.83 125.017C510.627 126.749 509.992 128.323 508.88 129.64C504.955 134.27 496.721 133.737 490.477 128.449C484.225 123.153 482.337 115.123 486.262 110.5C486.795 109.85 487.437 109.309 488.135 108.863C494.567 110.453 501.476 114.417 506.859 120.058C508.418 121.68 509.749 123.349 510.83 125.017Z" fill="white"/>
<path d="M594.078 184.824L600.714 181.934C602.218 181.283 603.942 182.216 604.2 183.83L604.952 188.342C605.195 189.799 604.13 191.155 602.649 191.264L596.029 191.742L594.078 184.824Z" fill="#86A2D7"/>
<path d="M579.719 254.558C579.719 254.754 579.688 254.949 579.617 255.137C578.842 257.48 573.475 259.282 566.973 259.282C560.47 259.282 555.104 257.48 554.336 255.137C554.266 254.949 554.234 254.754 554.234 254.558C554.234 251.957 559.946 249.841 566.973 249.841C574.016 249.841 579.719 251.957 579.719 254.558Z" fill="#506EA6"/>
<path d="M579.719 255.717C579.719 258.318 574.008 260.449 566.973 260.449C559.946 260.449 554.234 258.326 554.234 255.717C554.234 255.529 554.266 255.333 554.336 255.137C555.112 257.48 560.47 259.282 566.973 259.282C573.475 259.282 578.85 257.48 579.617 255.137C579.688 255.333 579.719 255.529 579.719 255.717Z" fill="#16346C"/>
<path d="M569.345 255.137H566.102C565.647 255.137 565.326 254.699 565.467 254.268L565.984 252.662C566.07 252.387 566.329 252.192 566.619 252.192H568.82C569.11 252.192 569.369 252.387 569.455 252.662L569.972 254.268C570.121 254.699 569.799 255.137 569.345 255.137Z" fill="white"/>
<path d="M318.103 235.035C318.103 235.035 310.042 236.037 308.248 229.276C306.454 222.515 310.48 220.933 310.48 220.933L323.744 220.087L322.389 228.736L318.103 235.035Z" fill="#6D4853"/>
<path d="M280.01 109.698L261.543 99.0356L250.622 101.654L256.751 128.14L283.279 120.679L280.011 109.698L280.01 109.698Z" stroke="#16346C" stroke-width="0.5"/>
<path d="M250.58 101.727L283.093 120.638" stroke="#16346C" stroke-width="0.5"/>
<path d="M261.385 99.1199L261.852 108.372" stroke="#16346C" stroke-width="0.5"/>
<path d="M261.627 108.251L270.56 104.365" stroke="#16346C" stroke-width="0.5"/>
<path d="M270.441 104.296L271.611 113.856" stroke="#16346C" stroke-width="0.5"/>
<path d="M271.629 114.088L280.099 109.713" stroke="#16346C" stroke-width="0.5"/>
<path d="M261.752 108.177L256.804 127.892" stroke="#16346C" stroke-width="0.5"/>
<path d="M271.688 113.984L256.984 128.066" stroke="#16346C" stroke-width="0.5"/>
<path d="M270.726 346.485C269.621 350.073 269.183 355.009 271.337 360.947C272.716 364.723 276.281 367.262 280.292 367.262H416.319C420.526 367.262 424.231 364.504 425.422 360.461C426.527 356.732 427.263 351.899 426.049 347.057C424.991 342.866 421.176 339.959 416.851 339.959H279.743C275.638 339.951 271.925 342.568 270.726 346.485Z" fill="#86A2D7"/>
<path d="M393.108 360.947C394.487 364.723 398.044 367.262 402.063 367.262H470.848C475.063 367.262 478.769 364.496 479.96 360.461C481.064 356.732 481.809 351.899 480.579 347.049C480.328 346.062 479.928 345.145 479.396 344.315C477.695 341.651 474.679 339.951 471.397 339.951H401.523C400.065 339.951 398.687 340.273 397.433 340.86C395.122 341.957 393.289 343.939 392.505 346.485C391.393 350.065 390.946 355.009 393.108 360.947Z" fill="#051739"/>
<path d="M512.528 181.244C510.233 288.95 481.073 349.729 481.073 349.729L359.266 339.951C359.266 339.951 371.252 308.504 380.669 271.824C385.722 252.168 390.023 225.727 391.347 190.81C391.841 178.11 402.26 168.059 414.975 168.059H499.609C506.848 168.059 512.685 174.005 512.528 181.244Z" fill="#051739"/>
<path d="M463.202 339.951C463.202 339.951 493.285 288.95 495.581 181.244C495.737 174.005 489.901 168.059 482.67 168.059H398.036C385.329 168.059 374.893 178.103 374.408 190.802C370.608 290.877 342.311 339.944 342.311 339.944H463.202V339.951Z" fill="#86A2D7"/>
<path d="M379.168 367.253V517.922H392.353V367.794L379.168 367.253Z" fill="#506EA6"/>
<path d="M375.562 367.254V382.758C375.562 383.808 376.416 384.662 377.466 384.662H394.051C395.101 384.662 395.955 383.808 395.955 382.758V367.254H375.562Z" fill="#506EA6"/>
<path d="M443.168 526.705C443.168 522.819 445.557 519.677 448.503 519.677C451.449 519.677 453.83 522.819 453.83 526.705C453.83 530.591 451.449 533.74 448.503 533.74C445.557 533.74 443.168 530.591 443.168 526.705Z" fill="#50404E"/>
<path d="M445.797 526.705C445.797 522.819 448.186 519.677 451.132 519.677C454.078 519.677 456.467 522.819 456.467 526.705C456.467 530.591 454.078 533.74 451.132 533.74C448.186 533.74 445.797 530.591 445.797 526.705Z" fill="#6B5568"/>
<path d="M392.338 517.923C392.338 517.923 433.468 519.176 455.412 526.721C457.018 527.277 458.687 526.078 458.687 524.378C458.687 521.103 456.712 518.15 453.673 516.912C443.527 512.783 419.241 504.205 392.338 504.205V517.923Z" fill="#717F8F"/>
<path d="M345.511 531.312L346.005 530.497C345.699 529.4 345.511 528.107 345.511 526.705C345.511 522.819 346.898 519.678 348.606 519.678C350.313 519.678 351.7 522.819 351.7 526.705C351.7 530.591 350.313 533.74 348.606 533.74H345.064L345.511 531.312Z" fill="#50404E"/>
<path d="M348.156 526.705C348.156 522.819 346.777 519.677 345.061 519.677C343.361 519.677 341.967 522.819 341.967 526.705C341.967 530.591 343.361 533.74 345.061 533.74C346.777 533.74 348.156 530.591 348.156 526.705Z" fill="#6B5568"/>
<path d="M379.152 517.923C379.152 517.923 355.304 519.176 342.589 526.721C341.657 527.277 340.686 526.078 340.686 524.378C340.686 521.104 341.829 518.15 343.592 516.912C349.476 512.783 363.562 504.205 379.152 504.205V517.923Z" fill="#717F8F"/>
<path d="M423.382 531.312L423.876 530.497C423.57 529.4 423.382 528.107 423.382 526.705C423.382 522.819 424.777 519.677 426.477 519.677C428.192 519.677 429.571 522.819 429.571 526.705C429.571 530.591 428.192 533.74 426.477 533.74H422.943L423.382 531.312Z" fill="#6B5568"/>
<path d="M426.043 526.705C426.043 522.819 424.656 519.677 422.948 519.677C421.24 519.677 419.854 522.819 419.854 526.705C419.854 530.591 421.24 533.74 422.948 533.74C424.656 533.74 426.043 530.591 426.043 526.705Z" fill="#717F8F"/>
<path d="M392.4 517.923C392.4 517.923 416.248 519.176 428.963 526.721C429.895 527.277 430.867 526.078 430.867 524.378C430.867 521.103 429.723 518.15 427.96 516.912C422.077 512.783 407.998 504.205 392.4 504.205V517.923Z" fill="#506EA6"/>
<path d="M328.278 526.705C328.278 522.819 325.888 519.677 322.943 519.677C319.997 519.677 317.607 522.819 317.607 526.705C317.607 530.591 319.997 533.74 322.943 533.74C325.896 533.74 328.278 530.591 328.278 526.705Z" fill="#6B5568"/>
<path d="M325.67 526.705C325.67 522.819 323.289 519.677 320.343 519.677C317.397 519.677 315.008 522.819 315.008 526.705C315.008 530.591 317.397 533.74 320.343 533.74C323.289 533.74 325.67 530.591 325.67 526.705Z" fill="#717F8F"/>
<path d="M379.152 517.923C379.152 517.923 338.014 519.176 316.077 526.721C314.471 527.277 312.803 526.078 312.803 524.378C312.803 521.103 314.777 518.15 317.817 516.912C327.962 512.783 352.256 504.205 379.152 504.205V517.923Z" fill="#506EA6"/>
<path d="M377.19 517.923H394.41C395.64 517.923 396.635 516.928 396.635 515.698V506.43C396.635 505.2 395.64 504.205 394.41 504.205H377.19C375.96 504.205 374.965 505.2 374.965 506.43V515.698C374.957 516.928 375.952 517.923 377.19 517.923Z" fill="#717F8F"/>
<path d="M377.863 504.205H393.72V495.799C393.72 494.898 392.991 494.169 392.09 494.169H379.493C378.592 494.169 377.863 494.898 377.863 495.799V504.205Z" fill="#86A2D7"/>
<path d="M375.57 367.254V382.758C375.57 383.808 376.432 384.662 377.482 384.662H380.569L382.245 378.457C383.577 373.513 388.058 370.082 393.182 370.082H395.971V367.262H375.57V367.254Z" fill="#86A2D7"/>
<path d="M379.152 384.661V494.169H380.241L381.299 395.175C381.369 390.662 385.052 387.035 389.564 387.035H392.345V384.661H379.152Z" fill="#86A2D7"/>
<path d="M399.04 84.3966C397.559 128.731 402.777 144.431 402.777 144.431H365.76C365.76 144.431 366.598 113 373.602 84.3966H399.04Z" fill="#FDB0A8"/>
<path d="M397.437 117.7C395.4 122.197 393.222 126.091 391.24 128.841C390.966 128.997 390.707 129.13 390.425 129.264C388.13 130.478 385.803 131.583 383.539 132.562C381.659 133.384 379.818 134.121 378.055 134.787C374.475 136.142 371.168 137.208 368.426 137.999C366.852 138.469 365.449 138.837 364.298 139.135C362.253 139.652 360.122 139.675 358.069 139.19C357.067 138.963 355.711 138.673 353.839 138.297C353.165 138.156 352.593 137.686 352.343 137.051C346.67 122.236 346.169 108.417 347.391 101.891C348.637 95.2158 351.473 90.3037 351.379 88.7447C349.773 77.0872 352.131 70.4828 354.842 66.8007C357.443 63.2596 360.373 62.4214 360.42 62.4057C360.655 63.4947 360.89 64.2076 361.211 64.8657C361.211 64.8657 361.47 58.8881 363.616 58.6218C372.226 57.5641 383.915 64.7403 390.292 69.8404C390.3 72.1515 389.689 79.3121 389.869 81.7486C389.869 81.7486 392.94 83.9265 395.29 84.7178C395.29 84.7178 398.205 95.349 396.497 103.857C397.343 104.46 397.178 104.64 398.181 104.695C397.17 108.597 396.277 112.772 395.776 115.131C395.564 116.29 396.285 117.442 397.437 117.7Z" fill="#FDCFBF"/>
<path d="M388.44 94.5734C388.44 94.5734 383.685 89.7789 381.076 87.6637C377.746 86.5199 369.356 84.8354 363.676 84.0363C364.209 81.3413 365.297 80.1427 365.297 80.1427C366.198 80.2524 367.092 80.3699 367.953 80.5109L368.173 82.1718L369.567 80.793C374.644 81.741 378.929 83.2686 382.815 85.5954C387.085 90.3743 388.44 94.5734 388.44 94.5734Z" fill="#362F41"/>
<path d="M350.661 81.0828C350.661 81.0828 353.787 80.1036 356.952 80.2603C357.641 81.6704 357.57 83.1355 357.57 83.1355C357.57 83.1355 352.627 83.1042 350.723 83.7622C350.3 82.7673 350.661 81.0828 350.661 81.0828Z" fill="#362F41"/>
<path d="M416.493 85.5404C415.177 92.2779 411.127 99.7284 411.127 99.7284C405.243 98.5846 401.968 99.5169 401.968 99.5169C400.895 101.35 399.657 105.471 398.513 109.858C397.307 109.78 395.756 109.513 394.73 108.769C396.806 98.3966 394.98 85.4542 394.98 85.4542C392.113 84.4985 388.368 81.8349 388.368 81.8349C388.141 78.85 388.102 72.2535 388.102 69.4253C388.337 68.8534 388.572 68.2344 388.791 67.592C389.481 65.4924 390.029 63.0482 390.311 60.3532C387.577 56.483 384.576 53.271 381.756 50.8658C386.503 51.2654 398.827 52.6677 406.935 56.9374C412.2 63.1186 412.976 68.8535 414.495 75.5753C413.916 80.4247 413.642 81.6076 413.642 81.6076C413.642 81.6076 413.649 81.6076 416.493 85.5404Z" fill="#362F41"/>
<path d="M394.971 85.4542C396.428 86.0183 397.885 86.4805 399.366 86.9271C400.839 87.3815 402.327 87.7733 403.808 88.2511C403.024 88.1963 402.264 88.0866 401.497 87.9456C400.721 87.8046 399.969 87.6087 399.225 87.3971C398.48 87.1621 397.736 86.9037 397.023 86.5825C396.31 86.2613 395.605 85.9164 394.971 85.4542Z" fill="#362F41"/>
<path d="M380.825 95.5605C380.825 95.5605 378.6 98.4357 372.427 97.519C371.706 97.4094 371.048 97.2762 370.46 97.096C368.909 96.6416 367.781 96.0148 366.974 95.3724C365.439 94.166 365.023 92.9359 365.023 92.9359C365.047 92.8889 366.637 89.9198 370.108 88.7524C374.636 90.0059 378.773 92.3954 380.825 95.5605Z" fill="#FDCFBF"/>
<path d="M380.825 95.5605C378.491 92.9125 375.749 91.4318 373.281 90.4604C372.16 90.0217 371.103 89.6848 370.163 89.4106C368.847 89.7239 367.609 90.5465 366.684 91.3143C365.681 92.1447 365.039 92.9125 365.023 92.9439C365.047 92.8969 366.637 89.9277 370.108 88.7604C374.636 90.006 378.773 92.3955 380.825 95.5605Z" fill="#362F41"/>
<path d="M374.344 93.7587C374.046 95.6781 372.377 97.0569 370.442 97.0961C368.891 96.6417 367.763 96.015 366.956 95.3726C366.384 94.5656 366.11 93.5706 366.259 92.5287C366.329 92.0899 366.462 91.6904 366.666 91.3144C367.591 90.5388 368.828 89.724 370.145 89.4106C371.085 89.6848 372.15 90.0217 373.263 90.4605C374.101 91.3222 374.54 92.5131 374.344 93.7587Z" fill="white"/>
<path d="M370.449 97.5974C368.882 97.1665 367.66 96.5554 366.657 95.772C365.882 94.7222 365.608 93.5941 365.78 92.4581C365.858 91.9724 366.007 91.5101 366.242 91.0792C367.621 89.8884 368.859 89.2147 370.05 88.9326C371.272 89.2303 372.329 89.5516 373.465 90.006C374.609 91.1341 375.056 92.4816 374.852 93.8369C374.523 95.9679 372.69 97.5582 370.473 97.5974C370.457 97.5974 370.449 97.5974 370.449 97.5974ZM367.323 95.0199C368.193 95.6937 369.274 96.2264 370.512 96.5947C372.212 96.5163 373.606 95.3098 373.865 93.6802C374.022 92.6618 373.708 91.6511 372.995 90.8755C371.985 90.4838 371.037 90.1862 370.152 89.9198C369.188 90.1705 368.122 90.7659 367.073 91.6277C366.916 91.9332 366.822 92.2701 366.767 92.607C366.634 93.4452 366.83 94.307 367.323 95.0199Z" fill="black"/>
<path d="M358.717 93.5001C358.654 93.6333 358.584 93.7508 358.529 93.884C358.263 93.9075 357.894 93.9388 357.424 93.9388C356.39 93.9545 354.902 93.8919 353.131 93.5237C352.52 93.3983 351.886 93.2494 351.22 93.0457C351.22 93.0457 351.157 91.1499 352.05 89.6065C353.405 88.2668 355.818 87.2875 358.38 87.2719C358.412 87.5539 358.443 87.8438 358.466 88.1336C358.498 88.4548 358.529 88.7839 358.553 89.1129C358.607 89.8493 358.654 90.5857 358.678 91.3143C358.686 91.4945 358.694 91.6826 358.701 91.8627L358.717 92.4111C358.725 92.5991 358.725 92.7872 358.725 92.9674L358.717 93.5001Z" fill="white"/>
<path d="M358.466 88.1414C357.628 88.1806 356.853 88.2668 356.147 88.3921C355.074 88.5801 354.181 88.8623 353.484 89.1835C352.99 89.395 352.614 89.63 352.324 89.865C351.58 90.8991 351.22 93.0535 351.22 93.0535C351.22 93.0535 351.157 91.1577 352.05 89.6143C353.405 88.2747 355.818 87.2953 358.38 87.2797C358.412 87.5539 358.443 87.8437 358.466 88.1414Z" fill="#FDB0A8"/>
<path d="M358.333 91.5806C358.333 92.5129 357.98 93.3433 357.432 93.9387C356.398 93.9544 354.909 93.8917 353.139 93.5313C352.77 92.9829 352.559 92.2934 352.567 91.5492C352.574 90.6091 352.927 89.763 353.483 89.1754C354.196 88.8542 355.089 88.58 356.155 88.392C356.382 88.4546 356.601 88.5565 356.805 88.6662C357.455 89.0657 357.941 89.7238 358.192 90.5229C358.278 90.8598 358.333 91.2124 358.333 91.5806Z" fill="#292331"/>
<path d="M358.177 90.5309C357.135 90.6484 356.579 90.1313 356.54 89.4654C356.532 89.1599 356.618 88.8856 356.79 88.6663C357.44 89.0736 357.934 89.7318 358.177 90.5309Z" fill="white"/>
<path d="M358.963 93.5236C358.25 94.9808 357.694 96.1245 357.169 97.2762C356.613 98.5218 356.073 99.7832 355.618 101.06L355.446 101.538L355.281 102.024C355.234 102.188 355.172 102.353 355.132 102.509L354.984 103.003C354.835 103.497 354.709 103.99 354.709 103.99C354.615 104.319 354.553 104.656 354.474 104.977C354.365 105.479 354.279 105.988 354.279 105.988C354.192 106.481 354.114 106.991 354.114 106.991C354.083 107.241 353.989 108.001 353.989 108.001C353.957 108.346 353.942 108.683 353.91 109.02C353.699 109.231 353.558 109.372 353.432 109.537C353.299 109.694 353.197 109.858 353.103 110.038C352.915 110.406 352.782 110.79 352.712 111.198C352.641 111.605 352.641 112.013 352.719 112.412C352.798 112.812 352.955 113.203 353.182 113.548C353.401 113.885 353.683 114.19 354.012 114.449C354.333 114.708 354.694 114.927 355.07 115.107C355.446 115.287 355.838 115.436 356.229 115.569C356.637 115.695 357.044 115.797 357.451 115.875C356.629 115.742 355.798 115.538 355.015 115.201C354.631 115.029 354.255 114.817 353.918 114.559C353.573 114.3 353.268 113.995 353.025 113.642C352.782 113.29 352.602 112.874 352.524 112.459C352.477 112.255 352.445 112.036 352.445 111.817C352.438 111.597 352.453 111.378 352.484 111.166C352.547 110.736 352.672 110.328 352.876 109.944C352.978 109.748 353.08 109.56 353.221 109.38C353.338 109.223 353.472 109.075 353.636 108.949C353.707 107.602 353.887 106.246 354.169 104.922C354.459 103.575 354.85 102.259 355.313 100.966L355.485 100.481L355.673 100.003L355.853 99.5169L356.049 99.0389L356.245 98.561L356.449 98.091L356.66 97.6209L356.872 97.143C357.381 96.0384 357.929 94.9573 358.486 93.8762C358.548 93.743 358.619 93.6254 358.674 93.4922V92.9752C358.674 92.795 358.674 92.607 358.666 92.419L358.65 91.8705C358.642 91.6903 358.634 91.5023 358.627 91.3222C358.603 90.5857 358.556 89.8493 358.501 89.1207C358.478 88.7916 358.446 88.4626 358.415 88.1414C358.392 87.8515 358.36 87.5616 358.329 87.2796C358.251 86.551 358.204 86.1907 358.164 85.8225C358.11 85.4621 358.063 85.0939 358 84.7257C358.078 85.0861 358.149 85.4464 358.203 85.8146C358.266 86.1828 358.321 86.551 358.368 86.9114C358.462 87.5617 358.501 87.8516 358.533 88.1336C358.572 88.4627 358.611 88.7838 358.642 89.105C358.721 89.8414 358.783 90.5778 358.822 91.3143C358.924 92.0585 358.948 92.7872 358.963 93.5236Z" fill="#FDB0A8"/>
<path d="M360.954 125.119C360.068 125.119 359.528 125.072 359.528 125.072C359.363 125.057 359.253 124.916 359.269 124.759C359.285 124.602 359.426 124.5 359.575 124.508C359.614 124.508 363.092 124.821 367.464 123.787C367.62 123.748 367.761 123.85 367.801 123.999C367.84 124.156 367.746 124.297 367.597 124.336C364.831 124.994 362.411 125.119 360.954 125.119Z" fill="#FDB0A8"/>
<path d="M400.45 64.1607C400.153 67.0281 399.573 69.629 398.829 71.8383C398.609 72.5277 398.351 73.1857 398.1 73.789C397.129 76.1236 395.993 77.8551 394.927 78.7638C395.585 72.9273 394.246 71.5484 394.246 71.5484C394.246 71.5484 391.715 78.9362 387.367 81.733C388.158 73.2015 388.292 69.9424 384.641 68.0622C384.28 72.5121 382.933 73.4287 380.684 75.9748C378.036 70.0521 375.381 65.7667 372.968 62.7975C369.223 58.1752 366.058 56.6868 364.389 57.0315C361.647 57.5877 361.279 65.1008 361.279 65.1008C360.871 64.2547 360.574 63.3146 360.37 62.3666C360.339 62.2099 360.307 62.0689 360.276 61.9123C359.681 58.8412 359.931 55.8798 359.931 55.8798C359.931 55.8798 368.361 48.6487 370.39 48.5469C374.589 48.492 377.441 51.1244 377.441 51.1244C377.441 51.1244 379.486 48.7506 381.609 48.7271C383.857 48.8603 387.461 50.7562 391.37 54.0936C394.363 56.6633 397.544 60.0634 400.45 64.1607Z" fill="#483E56"/>
<path d="M361.284 65.1007C358.636 64.756 356.38 66.033 354.852 66.793C353.066 67.6626 351.977 68.2893 350.825 69.0727C348.788 70.4516 346.618 72.2926 344.432 74.7839C343.86 64.8813 346.626 62.2334 350.48 59.6167C345.592 59.2094 341.369 63.9804 341.369 63.9804C341.369 63.9804 342.913 58.4808 348.31 55.4959C353.7 52.5267 359.936 55.9033 359.936 55.9033C359.936 55.9033 359.686 58.8646 360.281 61.9356C360.312 62.0923 360.344 62.2333 360.375 62.39C360.579 63.3223 360.877 64.2546 361.284 65.1007Z" fill="#483E56"/>
<path d="M350.488 59.609C350.943 59.4759 351.413 59.468 351.883 59.4915C352.353 59.5072 352.807 59.6012 353.262 59.7266C354.155 59.9929 355.009 60.4395 355.667 61.0976C355.228 60.9409 354.821 60.7607 354.398 60.604C353.975 60.4473 353.559 60.3142 353.128 60.1888C352.267 59.9381 351.405 59.7579 350.488 59.609Z" fill="#362F41"/>
<path d="M372.982 62.7976C364.748 60.51 361.293 65.1009 361.293 65.1009C361.293 65.1009 361.669 57.5878 364.403 57.0316C366.072 56.6869 369.237 58.1753 372.982 62.7976Z" fill="#362F41"/>
<path d="M411.62 107.751C411.62 107.751 408.368 113.486 403.793 117.802C401.082 118.233 398.928 118.006 397.479 117.692C396.288 117.434 395.551 116.282 395.794 115.123C396.288 112.765 397.181 108.597 398.192 104.695C399.116 101.092 400.142 97.715 401.012 96.2187C401.012 96.2187 403.699 95.4588 408.517 96.3911C409.246 96.5321 410.021 96.7122 410.852 96.9394C412.027 102.228 411.62 107.751 411.62 107.751Z" fill="#FDCFBF"/>
<path d="M400.144 105.51C400.245 104.358 400.449 103.207 400.715 102.079C400.982 100.943 401.334 99.8303 401.828 98.757C402.564 98.4671 403.081 98.4357 403.598 98.4043C404.115 98.373 404.633 98.3652 405.142 98.3652C406.176 98.3652 407.202 98.4044 408.236 98.4827C408.401 98.4984 408.542 98.6081 408.605 98.757C408.894 99.5717 409.106 100.363 409.278 101.193C409.443 102.008 409.568 102.831 409.639 103.653C409.803 105.306 409.756 106.991 409.537 108.644C409.114 109.545 408.722 110.297 408.283 111.018C407.853 111.754 407.375 112.459 406.873 113.141C406.372 113.822 405.816 114.473 405.244 115.091C404.656 115.71 404.061 116.29 403.356 116.831C403.23 116.932 403.05 116.909 402.948 116.784C402.705 116.22 402.423 115.71 402.086 115.272C401.765 114.817 401.381 114.402 400.927 114.096C400.465 113.791 399.916 113.603 399.36 113.595C398.796 113.564 398.24 113.76 397.707 113.987C398.208 113.713 398.749 113.423 399.352 113.407C399.948 113.36 400.567 113.509 401.107 113.807C401.632 114.096 402.094 114.512 402.486 114.966C402.87 115.444 403.199 115.93 403.457 116.486L403.011 116.368C403.614 115.851 404.186 115.232 404.719 114.606C405.244 113.979 405.729 113.321 406.215 112.647C407.14 111.292 407.954 109.858 408.667 108.37C408.808 106.928 408.832 105.322 408.714 103.732C408.652 102.933 408.534 102.149 408.385 101.358C408.236 100.575 408.056 99.7832 407.813 99.0546L408.182 99.3289C407.171 99.2349 406.16 99.1643 405.15 99.1016C404.648 99.0703 404.139 99.0546 403.638 99.0546C403.136 99.0546 402.627 99.0702 402.18 99.1643C401.334 101.037 400.637 103.254 400.144 105.51Z" fill="#FDB0A8"/>
<path d="M384.645 68.0621C384.669 66.9888 384.489 65.9625 384.199 64.9675C383.909 63.9725 383.462 63.0403 382.984 62.0688C383.384 62.4449 383.721 62.8678 383.995 63.3379C384.301 63.8001 384.496 64.3094 384.669 64.8264C384.818 65.3592 384.912 65.9076 384.912 66.4481C384.912 67.0044 384.849 67.5607 384.645 68.0621Z" fill="#362F41"/>
<path d="M333.699 153.738C333.699 153.738 323.725 161.071 319.887 166.038C297.575 195.017 271.494 242.406 271.494 242.406L288.04 255.827C288.04 255.827 338.94 216.961 346.171 193.991L333.699 153.738Z" fill="#FDCFBF"/>
<path d="M443.439 155.783C443.439 155.783 454.117 172.924 442.569 195.244C442.569 195.244 431.507 222.931 427.645 236.727C417.241 273.955 425.631 287.227 425.631 287.227L414.295 287.462C414.295 287.462 412.305 258.389 415.658 235.191L443.439 155.783Z" fill="#16346C"/>
<path d="M318.108 235.035C319.079 231.713 318.946 228.383 318.068 225.171C314.355 211.203 297.018 199.373 297.018 199.373C315.193 162.622 333.126 153.996 333.698 153.738L339.19 215.206C339.19 215.206 340.106 216.992 318.108 235.035Z" fill="#506EA6"/>
<path d="M462.833 353.528L418.429 378.669L405.001 368.821L365.17 340.36C365.154 340.36 368.618 288.418 368.618 288.418L425.628 287.242C438.68 298.657 462.833 353.528 462.833 353.528Z" fill="#16346C"/>
<path opacity="0.26" d="M462.024 353.246L417.619 378.386L404.191 368.538L365.709 340.296C365.693 340.296 367.809 288.135 367.809 288.135L424.819 286.96C437.871 298.374 462.024 353.246 462.024 353.246Z" fill="#0F1724"/>
<path d="M417.607 234.964C413.839 250.68 414.278 287.47 414.278 287.47L327.168 289.491L335.621 234.964C335.621 234.964 334.83 230.06 334.086 221.168C332.895 207.285 331.751 183.665 333.694 153.738C345.837 147.33 358.396 145.269 363.441 144.666C364.898 144.486 365.736 144.439 365.736 144.439H402.753C402.753 144.439 403.592 144.541 405.096 144.76C411.316 145.677 428.818 148.755 443.437 155.798C443.437 155.798 421.352 219.256 417.607 234.964Z" fill="#16346C"/>
<path opacity="0.25" d="M443.432 155.783L421.034 219.812L421.527 210.936H393.277L381.776 174.546L374.968 168.059C374.968 168.059 368.45 222.993 376.942 236.155C383.421 246.198 405.028 243.284 414.9 241.349C412.628 263.23 414.288 287.47 414.288 287.47L425.625 287.235C425.625 287.235 417.234 273.963 427.638 236.734C431.5 222.938 442.562 195.252 442.562 195.252C454.11 172.924 443.432 155.783 443.432 155.783Z" fill="#16346C"/>
<path d="M368.614 288.418L366.499 340.578C341.233 354.719 313.531 364.379 290.318 370.78C260.383 379.029 237.907 381.873 237.907 381.873L227.307 341.276C275.3 310.377 293.914 299.628 327.171 289.483L368.614 288.418Z" fill="#16346C"/>
<path opacity="0.26" d="M368.614 288.418L366.499 340.578C341.233 354.719 313.531 364.379 290.318 370.78C260.383 379.029 237.907 381.873 237.907 381.873L227.307 341.276C275.3 310.377 293.914 299.628 327.171 289.483L368.614 288.418Z" fill="#0F1724"/>
<path d="M316.922 514.171H290.192C268.577 440.614 245.27 399.523 231.254 379.444C223.616 368.515 221.994 354.492 226.977 342.121L227.314 341.283C227.314 341.283 237.639 341.119 250.425 344.347C265.678 348.185 284.441 356.858 293.302 376.373C293.654 377.156 293.999 377.909 294.328 378.676C315.512 427.077 296.24 441.414 316.922 514.171Z" fill="#092355"/>
<path d="M290.197 514.171C284.87 519.201 272.17 523.611 263.929 526.087C259.588 527.387 256.878 531.673 257.552 536.154H323.352C323.352 530.122 321.95 524.191 319.247 518.801L316.92 514.163H290.197V514.171Z" fill="#52363E"/>
<path d="M414.394 227.451C414.394 227.451 406.231 228.947 403.653 222.077C401.076 215.206 418.468 214.258 418.468 214.258L419.721 216.969L414.394 227.451Z" fill="#713345"/>
<path d="M465.048 377.831C464.829 378.457 463.364 382.625 461.358 388.023C458.671 395.285 455.004 404.741 452.184 410.492C420.502 475.078 393.419 508.648 393.419 508.648L372.729 500.994C388.233 440.27 386.995 431.707 391.312 406.159C392.871 396.915 396.106 387.78 399.608 379.875C405.625 366.244 412.409 356.263 412.73 355.793C412.746 355.769 434.197 364.818 434.197 364.818L465.048 377.831Z" fill="#092355"/>
<path d="M465.057 377.831C464.242 381.544 462.973 384.936 461.367 388.023C454.747 400.761 442.102 408.212 429.716 405.486C418.694 403.049 410.867 393.201 408.822 380.941C408.015 376.076 408.102 370.842 409.285 365.531C410.06 362.044 411.227 358.77 412.739 355.785C416.946 347.433 423.723 341.291 431.346 338.698C432.286 338.385 433.187 338.142 434.104 337.931C437.574 337.155 441.1 337.116 444.617 337.876C460.019 341.283 469.178 359.161 465.057 377.831Z" fill="#092355"/>
<path d="M372.74 501.001C368.345 520.36 364.436 516.239 364.436 527.826C364.436 533.67 369.191 536.162 369.191 536.162H403.693C405.832 530.231 404.289 527.129 399.995 522.985C396.948 520.054 393.031 513.818 393.415 508.648L372.74 501.001Z" fill="#52363E"/>
<path d="M443.436 155.783C443.436 155.783 444.126 156.919 444.979 158.917C450.04 170.778 448.309 184.409 440.82 194.907C424.783 217.4 404.633 231.729 404.633 231.729L387.084 215.958C387.084 215.958 393.085 204.614 409.968 177.029C415.483 168.012 423.929 161.063 433.965 157.734C439.566 155.877 443.436 155.783 443.436 155.783Z" fill="#FDB0A8"/>
<path d="M244.082 160.131L257.298 155.783C277.08 222.57 288.761 224.639 290.007 239.359C290.657 247.013 288.072 255.827 288.072 255.827C288.072 255.827 276.398 260.112 270.123 252.826C259.821 240.863 244.082 160.131 244.082 160.131Z" fill="#FDCFBF"/>
<path d="M367.559 102.259C368.726 105.518 371.162 108.166 374.312 109.615L375.863 110.328L380.156 107.664L374.375 101.037L367.559 102.259Z" fill="#FDB0A8"/>
<path d="M246.756 142.841C248.692 139.66 250.916 136.667 253.408 133.886L258.007 128.747C259.025 127.705 260.137 127.188 261.172 128.214C261.446 128.488 261.532 128.895 261.391 129.256L258.077 137.764C257.254 140.302 257.082 143.021 257.576 145.645C257.842 147.048 258.602 148.998 258.492 149.962C258.022 154.075 257.153 156.033 257.153 156.033L247.986 151.012C245.667 148.944 245.135 145.504 246.756 142.841Z" fill="#FDB0A8"/>
<path d="M235.811 140.341C234.848 136.479 236.101 124.023 236.101 124.023C236.172 123.286 236.47 122.581 236.94 122.009L243.614 114.01C243.779 113.807 244.084 113.775 244.296 113.94C245.22 114.684 245.487 115.992 244.93 117.034L240.935 124.524L241.013 137.325L235.811 140.341Z" fill="#FDCFBF"/>
<path d="M235.936 141.062L243.3 128.778C243.699 128.151 244.279 127.65 244.961 127.352L254.526 123.208C254.769 123.098 255.051 123.208 255.161 123.451C255.654 124.54 255.318 125.824 254.338 126.506L247.405 131.402L241.717 142.872L235.936 141.062Z" fill="#FDB0A8"/>
<path d="M236.918 140.498L239.26 126.052C239.378 125.315 239.715 124.641 240.224 124.093L247.361 116.502C247.541 116.321 247.855 116.306 248.051 116.478C248.928 117.277 249.124 118.593 248.505 119.604L244.079 126.843L243.381 139.621L236.918 140.498Z" fill="#FDCFBF"/>
<path d="M244.066 160.131C244.066 160.131 241.465 156.088 236.913 144.588C235.323 140.545 235.237 136.048 236.71 131.951C237.947 128.512 239.177 125.676 239.914 124.093C240.321 123.208 241.026 122.495 241.912 122.072L247.92 119.236L252.214 118.108C252.496 118.037 252.786 118.194 252.887 118.452C253.303 119.588 252.723 120.826 251.595 121.226L249.268 122.072L244.113 125.887L243.768 133.674C243.525 135.946 244.654 138.132 246.644 139.268C252.323 142.496 253.491 143.608 254.635 146.679C256.664 152.156 257.29 155.783 257.29 155.783L244.066 160.131Z" fill="#FDCFBF"/>
<path d="M372.922 85.8147C372.272 85.8147 371.645 85.9088 371.034 86.0576C370.431 86.2143 369.898 86.4101 369.405 86.6608L365.77 88.0318L365.644 90.3743C364.861 91.8001 364.406 93.461 364.406 95.2394C364.406 96.6417 364.688 97.9657 365.182 99.1565L365.025 102.298L370.117 104.124C370.274 104.186 370.407 104.241 370.564 104.28C371.418 104.531 372.162 104.656 372.93 104.656C377.638 104.656 381.446 100.433 381.446 95.2315C381.438 90.0374 377.623 85.8147 372.922 85.8147Z" fill="#86A2D7"/>
<path d="M372.301 95.2394C372.301 99.2192 369.583 102.447 366.23 102.447C362.877 102.447 360.158 99.2192 360.158 95.2394C360.158 91.2596 362.877 88.0319 366.23 88.0319C369.583 88.0319 372.301 91.2596 372.301 95.2394Z" fill="#506EA6"/>
<path d="M365.752 89.7788C365.494 89.7788 365 89.8572 365 89.8572C364.796 89.9042 364.655 89.9512 364.514 89.9904L361.138 90.907L360.801 99.5639L364.663 100.551C365.235 100.676 365.486 100.708 365.744 100.708C368.283 100.708 370.343 98.2555 370.343 95.2471C370.351 92.2231 368.29 89.7788 365.752 89.7788Z" fill="#86A2D7"/>
<path d="M364.809 95.2394C364.809 97.6445 363.172 99.5874 361.151 99.5874C359.13 99.5874 357.492 97.6445 357.492 95.2394C357.492 92.8421 359.13 90.8992 361.151 90.8992C363.172 90.8992 364.809 92.8421 364.809 95.2394Z" fill="#506EA6"/>
<path d="M363.669 95.2393C363.669 96.9472 362.509 98.3182 361.068 98.3182C359.634 98.3182 358.475 96.9394 358.475 95.2393C358.475 93.5393 359.634 92.1604 361.068 92.1604C362.509 92.1604 363.669 93.5393 363.669 95.2393Z" fill="#D4E5FD"/>
<path d="M386.993 117.277L382.206 93.2494L375.735 85.2035C375.508 84.9293 375.116 84.8431 374.795 85.0077C373.573 85.6187 373.134 87.1464 373.855 88.3294L377.717 94.5812L377.365 104.672L376.268 104.828C374.881 105.016 373.643 105.808 372.899 106.998C371.043 106.998 369.366 108.103 368.637 109.811C367.368 110.077 366.412 111.096 366.279 112.349L366.201 113.054C364.869 114.277 364.399 116.18 364.994 117.888L367.196 124.195L380.796 118.773L386.993 117.277Z" fill="#FDB0A8"/>
<path d="M405.884 147.862C405.884 154.232 396.201 159.387 384.246 159.387C372.298 159.387 362.6 154.232 362.6 147.862C362.678 145.888 364.041 144.533 365.726 144.431H402.75C404.466 144.627 405.853 146.037 405.876 147.768C405.884 147.8 405.884 147.831 405.884 147.862Z" fill="#FDB0A8"/>
<path d="M387.182 121.508C386.61 125.958 385.38 129.804 385.38 129.804L381.902 130.266L378.063 130.784L369.915 131.888C369.915 131.888 367.424 127.329 367.032 122.699C366.962 121.962 366.962 121.257 367.001 120.607C367.698 110.744 379.716 108.229 382.865 110.634C383.876 111.417 384.62 112.224 385.247 113.125C386.845 115.46 387.574 118.468 387.182 121.508Z" fill="#FDCFBF"/>
<path d="M411.438 215.825C411.438 219.131 411.211 222.907 409.338 226.738C406.714 232.089 400.486 234.604 394.9 232.551C389.455 230.545 383.164 227.428 380.312 223.079C374.938 214.877 379.356 186.141 370.88 137.262C370.582 135.492 370.253 133.706 369.916 131.888L378.064 131.003L381.973 130.368L385.389 129.812C385.538 130.392 385.671 130.972 385.828 131.559C398.464 182.701 411.477 202.021 411.438 215.825Z" fill="#FDCFBF"/>
<path d="M414.395 227.451C414.395 227.451 414.865 224.662 414.881 220.22C414.912 211.892 413.385 197.775 404.281 185.671C421.329 153.581 443.421 155.791 443.421 155.791C465.389 193.497 414.395 227.451 414.395 227.451Z" fill="#506EA6"/>
<path d="M621.416 269.253L619.011 284.682H504.812L502.399 269.253H621.416Z" fill="#EFEFEF" stroke="black"/>
<path d="M604.169 285.682L601.657 298.823H522.159L519.648 285.682H604.169Z" fill="white" stroke="black"/>
<path d="M85.6177 275.013L84.7277 269.253H562.84L561.942 275.014L561.942 275.014L560.426 284.674H87.1414L85.618 275.015L85.6177 275.013Z" fill="white" stroke="black"/>
<path d="M545.584 285.682L543.073 298.823H104.474L101.977 285.682H545.584Z" fill="#EFEFEF" stroke="black"/>
<path d="M118.738 535.661V299.823H134.95V535.661H118.738Z" fill="#EFEFEF" stroke="black"/>
<path d="M135.938 535.661V299.823H142.192V535.661H135.938Z" fill="white" stroke="black"/>
<path d="M503.656 535.661V299.823H519.86V535.661H503.656Z" fill="#EFEFEF" stroke="black"/>
<path d="M520.855 535.661V299.823H527.11V535.661H520.855Z" fill="white" stroke="black"/>
<path d="M184.404 535.661V299.823H200.616V535.661H184.404Z" fill="white" stroke="black"/>
<path d="M201.604 535.661V299.823H207.85V535.661H201.604Z" fill="white" stroke="black"/>
<path d="M569.336 535.661V299.823H585.548V535.661H569.336Z" fill="white" stroke="black"/>
<path d="M586.535 535.661V299.823H592.79V535.661H586.535Z" fill="white" stroke="black"/>
<path d="M135.963 430.071V414.713H502.674V430.071H135.963Z" fill="#EFEFEF" stroke="black"/>
<path d="M528.107 430.071V414.713H585.52V430.071H528.107Z" fill="#6D4853" stroke="black"/>
<path opacity="0.25" d="M84.8933 270.298L84.7292 269.253H562.839L562.675 270.298H84.8933Z" fill="white" stroke="black"/>
<path d="M102.19 286.815L101.977 285.682H545.585L544.956 288.942L102.19 286.815Z" fill="#16346C" stroke="black"/>
<path opacity="0.25" d="M135.959 414.713H502.67V416.798L135.959 415.751V414.713Z" fill="#DD8055" stroke="black"/>
<path d="M197.563 178.448C200.595 186.407 215.057 195.37 217.078 196.592C219.601 198.12 241.874 211.258 247.092 202.632C252.301 194.022 230.326 180.383 227.804 178.863C225.908 177.719 212.918 170.042 204.34 169.908C201.48 169.854 199.099 170.653 197.798 172.807C196.756 174.531 196.795 176.458 197.563 178.448Z" fill="#86A2D7"/>
<path d="M199.6 178.448C201.19 182.545 208.241 189.04 217.674 194.759C229.652 201.998 240.95 205.233 242.924 201.982C244.506 198.323 236.507 190.05 224.819 182.96C216.381 177.852 208.273 174.734 203.525 174.484C202.342 174.429 201.363 174.546 200.65 174.852C200.172 175.063 199.812 175.353 199.569 175.737C199.138 176.426 199.177 177.351 199.6 178.448Z" fill="#94BDF9"/>
<path d="M218.886 193.623C229.454 200.016 239.49 203.275 243.054 201.731C244.512 198.316 236.513 190.043 224.824 182.96C214.271 176.583 204.235 173.308 200.655 174.852C199.19 178.268 207.197 186.556 218.886 193.623Z" fill="#A9CAFA"/>
<path d="M197.562 178.448C198.675 178.698 199.607 178.448 199.607 178.448C199.184 177.351 199.145 176.426 199.568 175.737C199.803 175.353 200.163 175.063 200.649 174.852C201.362 174.546 202.341 174.429 203.524 174.483C202.349 171.671 204.198 170.033 204.347 169.916C201.487 169.861 199.106 170.66 197.805 172.815C196.755 174.53 196.795 176.458 197.562 178.448Z" fill="#86A2D7"/>
<path d="M202.005 173.614C201.958 173.629 201.958 173.629 203.517 174.483C201.99 171.945 204.34 169.916 204.34 169.916L202.773 169.054C202.632 169.171 200.783 170.809 202.005 173.614Z" fill="#86A2D7"/>
<path d="M196.236 171.953C197.537 169.806 199.911 168.999 202.77 169.054C202.629 169.179 200.78 170.817 202.003 173.614C200.788 173.567 199.801 173.676 199.08 173.998C198.595 174.201 198.242 174.491 197.999 174.883C197.843 175.141 197.749 175.431 197.717 175.752C197.615 176.747 198.211 177.68 199.08 178.165L199.597 178.447H197.553C196.385 177.805 195.547 176.638 195.453 175.306C195.367 174.131 195.594 173.003 196.236 171.953Z" fill="#506EA6"/>
<path d="M162.875 264.272C163.016 264.272 163.157 264.241 163.298 264.178C163.815 263.951 164.066 263.332 163.823 262.799L138.377 205.217L198.615 173.974C199.125 173.716 199.328 173.089 199.062 172.564C198.796 172.063 198.169 171.859 197.66 172.117L136.544 203.807C136.051 204.066 135.847 204.653 136.066 205.155L161.912 263.638C162.092 264.037 162.468 264.272 162.875 264.272Z" fill="#506EA6"/>
<path d="M157.776 263.246C157.972 263.246 158.121 263.058 158.121 262.878C158.121 262.188 140.65 222.147 132.973 204.59L198.17 171.138C198.334 171.052 198.405 170.848 198.326 170.676C198.232 170.503 198.029 170.433 197.849 170.519L132.369 204.12C132.205 204.199 132.134 204.395 132.205 204.567C140.807 224.231 157.142 261.734 157.431 262.917C157.431 263.121 157.58 263.246 157.776 263.246Z" fill="#506EA6"/>
<path d="M148.159 259.532H177.412C178.07 259.532 178.681 259.885 179.018 260.465L182.152 266.004C182.849 267.226 181.964 268.761 180.546 268.761H145.017C143.599 268.761 142.714 267.234 143.411 266.004L146.545 260.465C146.882 259.877 147.493 259.532 148.159 259.532Z" fill="#506EA6"/>
<path d="M140.575 259.532H169.828C170.494 259.532 171.105 259.885 171.434 260.465L174.568 266.004C175.265 267.226 174.38 268.761 172.969 268.761H137.433C136.015 268.761 135.13 267.234 135.827 266.004L138.969 260.465C139.29 259.877 139.916 259.532 140.575 259.532Z" fill="#16346C"/>
<path d="M132.929 209.142L139.902 208.946C140.575 208.923 141.147 208.445 141.281 207.787L141.758 205.382C141.892 204.724 141.539 204.05 140.92 203.776L134.535 201.018C133.697 200.65 132.733 201.159 132.545 202.06L131.48 207.427C131.284 208.328 131.997 209.174 132.929 209.142Z" fill="#86A2D7"/>
<path d="M134.602 205.57C134.602 206.479 135.424 207.215 136.419 207.215C137.43 207.215 138.244 206.479 138.244 205.57C138.244 204.661 137.43 203.925 136.419 203.925C135.416 203.925 134.602 204.661 134.602 205.57Z" fill="#335189"/>
<path d="M277.241 194.241C277.241 194.241 277.147 194.273 276.85 194.226C277.108 194.241 277.241 194.241 277.241 194.241Z" fill="#C6B92F"/>
<path d="M381.031 241.072H376.488L384.75 253.74L381.031 241.072Z" fill="white" fill-opacity="0.35"/>
<path d="M388.399 241.026H393.08L384.76 253.531L388.399 241.026Z" fill="white" fill-opacity="0.35"/>
<path d="M391.661 236.02H377.983L372.756 240.97L384.655 253.699L397 241.064L391.662 236.02H391.661Z" stroke="white" stroke-width="0.2"/>
<path d="M372.756 241.024L396.883 241.101" stroke="white" stroke-width="0.2"/>
<path d="M377.922 236.117L381.149 241.1" stroke="white" stroke-width="0.2"/>
<path d="M380.986 241.105L384.703 236.088" stroke="white" stroke-width="0.2"/>
<path d="M384.613 236.088L388.33 241.017" stroke="white" stroke-width="0.2"/>
<path d="M388.412 241.14L391.714 236" stroke="white" stroke-width="0.2"/>
<path d="M384.701 236.176V241.105" stroke="white" stroke-width="0.2"/>
<path d="M384.684 240.985V253.737" stroke="white" stroke-width="0.2"/>
<path d="M381.031 241.024L384.606 253.544" stroke="white" stroke-width="0.2"/>
<path d="M388.414 241.062L384.762 253.583" stroke="white" stroke-width="0.2"/>
<path d="M391.682 236.142L393.032 241.036" stroke="white" stroke-width="0.2"/>
<path d="M377.959 236.026L376.488 240.958" stroke="white" stroke-width="0.2"/>
<path d="M376.447 240.946L384.645 253.544" stroke="white" stroke-width="0.2"/>
<path d="M393.114 240.985L384.645 253.66" stroke="white" stroke-width="0.2"/>
<path d="M359.82 243.367H356.094L362.871 253.759L359.82 243.367Z" fill="white" fill-opacity="0.35"/>
<path d="M365.865 243.329H369.705L362.88 253.588L365.865 243.329Z" fill="white" fill-opacity="0.35"/>
<path d="M368.54 239.222H357.319L353.031 243.283L362.793 253.725L372.92 243.36L368.541 239.222H368.54Z" stroke="white" stroke-width="0.2"/>
<path d="M353.031 243.327L372.824 243.39" stroke="white" stroke-width="0.2"/>
<path d="M357.27 239.302L359.917 243.39" stroke="white" stroke-width="0.2"/>
<path d="M359.783 243.394L362.832 239.278" stroke="white" stroke-width="0.2"/>
<path d="M362.758 239.278L365.806 243.321" stroke="white" stroke-width="0.2"/>
<path d="M365.875 243.422L368.584 239.206" stroke="white" stroke-width="0.2"/>
<path d="M362.83 239.35V243.394" stroke="white" stroke-width="0.2"/>
<path d="M362.816 243.295V253.757" stroke="white" stroke-width="0.2"/>
<path d="M359.818 243.327L362.751 253.598" stroke="white" stroke-width="0.2"/>
<path d="M365.875 243.359L362.879 253.63" stroke="white" stroke-width="0.2"/>
<path d="M368.557 239.323L369.664 243.337" stroke="white" stroke-width="0.2"/>
<path d="M357.3 239.228L356.094 243.273" stroke="white" stroke-width="0.2"/>
<path d="M356.059 243.264L362.784 253.598" stroke="white" stroke-width="0.2"/>
<path d="M369.733 243.295L362.785 253.693" stroke="white" stroke-width="0.2"/>
<path d="M394.967 251.051L392.832 265.883L392.405 268.835H350.376L347.814 251.051H394.967Z" fill="#483E56"/>
<path d="M342.734 246.236H340.027L344.95 253.783L342.734 246.236Z" fill="white" fill-opacity="0.35"/>
<path d="M347.123 246.208H349.912L344.955 253.659L347.123 246.208Z" fill="white" fill-opacity="0.35"/>
<path d="M349.066 243.225H340.917L337.803 246.175L344.892 253.758L352.247 246.231L349.067 243.225H349.066Z" stroke="white" stroke-width="0.2"/>
<path d="M337.803 246.207L352.178 246.253" stroke="white" stroke-width="0.2"/>
<path d="M340.881 243.283L342.804 246.252" stroke="white" stroke-width="0.2"/>
<path d="M342.705 246.255L344.919 243.266" stroke="white" stroke-width="0.2"/>
<path d="M344.867 243.266L347.081 246.203" stroke="white" stroke-width="0.2"/>
<path d="M347.131 246.276L349.098 243.214" stroke="white" stroke-width="0.2"/>
<path d="M344.92 243.319V246.255" stroke="white" stroke-width="0.2"/>
<path d="M344.908 246.184V253.781" stroke="white" stroke-width="0.2"/>
<path d="M342.732 246.207L344.862 253.666" stroke="white" stroke-width="0.2"/>
<path d="M347.131 246.23L344.955 253.689" stroke="white" stroke-width="0.2"/>
<path d="M349.078 243.298L349.882 246.214" stroke="white" stroke-width="0.2"/>
<path d="M340.904 243.23L340.028 246.168" stroke="white" stroke-width="0.2"/>
<path d="M340.002 246.161L344.886 253.666" stroke="white" stroke-width="0.2"/>
<path d="M349.933 246.184L344.887 253.735" stroke="white" stroke-width="0.2"/>
<path d="M384.147 251.051L382.011 265.883L381.591 268.835H339.556L339.135 265.883L337 251.051H384.147Z" fill="#46496C"/>
<path d="M382.013 265.883L381.592 268.835H339.557L339.137 265.883H382.013Z" fill="#483E56"/>
<path d="M392.842 265.883L392.415 268.835H381.596L382.016 265.883H392.842Z" fill="#362F41"/>
<path opacity="0.5" d="M370.881 137.262C370.035 137.529 369.212 137.772 368.437 137.999L365.906 120.426L367.003 120.607C366.964 121.265 366.964 121.97 367.034 122.698C367.426 127.328 369.917 131.888 369.917 131.888C370.254 133.706 370.583 135.492 370.881 137.262Z" fill="#FDB0A8"/>
<path opacity="0.5" d="M390.411 129.256C388.875 130.07 387.324 130.83 385.796 131.543C385.64 130.964 385.507 130.384 385.358 129.796C385.358 129.796 386.588 125.958 387.16 121.5C387.551 118.452 386.823 115.444 385.217 113.117L385.82 111.433L390.411 129.256Z" fill="#FDB0A8"/>
<path opacity="0.5" d="M414.404 227.451C414.404 227.451 414.874 224.662 414.89 220.22C452.839 193.599 443.438 155.783 443.438 155.783C465.398 193.497 414.404 227.451 414.404 227.451Z" fill="#16346C"/>
<path opacity="0.5" d="M318.11 235.034C319.081 231.713 318.948 228.383 318.07 225.171C322.896 222.703 327.691 219.491 329.07 215.989C325.019 190.857 333.527 154.466 333.7 153.738C331.765 183.657 332.901 207.278 334.099 221.16C331.005 224.137 326.046 228.524 318.11 235.034Z" fill="#16346C"/>
<path opacity="0.5" d="M431.345 338.706C423.722 341.299 416.945 347.433 412.754 355.769C412.511 356.114 409.095 361.144 404.998 368.829L366.516 340.586C367.174 340.9 384.268 349.047 402.358 358.088C407.442 346.846 424.537 340.743 431.345 338.706Z" fill="#335189"/>
<path opacity="0.5" d="M366.444 340.61C341.249 354.719 313.547 364.379 290.334 370.78C280.698 355.142 264.151 347.794 250.434 344.339C250.434 344.339 279.718 344.543 291.399 360.219C315.106 357.822 364.101 341.409 366.444 340.61Z" fill="#335189"/>
</svg>
