<svg width="509" height="455" viewBox="0 0 509 455" fill="none" xmlns="http://www.w3.org/2000/svg">
<path d="M102.716 226.196C42.1903 271.939 47.0954 267.909 47.0954 272.378V276.146L152.643 365.529C210.716 414.602 258.716 454.912 259.329 454.999C259.942 455.175 307.854 415.128 365.927 366.055L471.474 276.934L471.737 272.465L472 267.996L423.65 231.542L375.387 195H259.592L143.884 195.088L102.716 226.196ZM163.592 198.856C163.592 199.294 158.774 200.784 140.03 206.48C135.475 207.794 132.146 208.583 132.584 208.145C133.022 207.706 135.913 205.428 139.066 202.974L144.76 198.593H154.219C159.387 198.505 163.592 198.68 163.592 198.856ZM188.38 208.933C193.022 212.964 196.876 216.557 196.876 216.82C196.876 217.083 178.832 228.124 156.76 241.181C125.665 259.759 116.643 264.754 116.555 263.527C116.38 262.738 118.044 251.434 120.059 238.465L123.825 214.892L150.015 206.83C174.365 199.469 176.38 198.943 178.044 200.17C179.095 200.959 183.65 204.902 188.38 208.933ZM247.504 198.943C247.241 199.206 236.643 202.974 223.942 207.268C205.46 213.578 200.643 214.892 199.592 214.016C197.927 212.877 185.84 202.449 183.3 200.083C181.635 198.593 182.599 198.505 214.745 198.505C233.051 198.505 247.767 198.68 247.504 198.943ZM287.971 208.145C302.686 213.052 314.949 217.433 315.212 217.696C315.475 217.959 303.212 229.176 287.883 242.496L260.029 266.769L232.175 242.583C216.847 229.351 204.234 218.222 204.146 217.872C203.884 217.258 259.154 198.505 260.38 198.856C260.905 198.943 273.256 203.15 287.971 208.145ZM336.934 199.119C336.934 199.732 327.299 208.32 321.256 213.139L318.803 215.155L295.854 207.268C283.241 202.974 272.643 199.294 272.38 199.031C272.117 198.68 286.57 198.505 304.438 198.505C322.394 198.505 337.022 198.768 336.934 199.119ZM380.642 203.062C384.059 205.603 386.861 207.969 386.949 208.232C386.949 208.758 360.321 200.959 356.73 199.382C355.591 198.856 358.394 198.593 364.701 198.593L374.336 198.505L380.642 203.062ZM369.518 206.918C383.183 211.036 394.745 214.717 395.095 215.155C395.883 215.856 403.767 264.403 403.153 264.929C402.54 265.542 323.007 217.346 323.27 216.557C323.796 214.98 341.84 199.469 343.241 199.469C344.029 199.382 355.854 202.799 369.518 206.918ZM119.533 221.464C119.358 222.078 117.694 232.418 115.854 244.511C114.015 256.517 112.263 266.682 112 267.032C111.738 267.383 107.621 268.259 102.891 269.135C95.4457 270.362 93.256 270.362 87.1246 269.486C83.183 268.872 79.5041 268.171 78.891 267.821C78.3655 267.47 85.9859 258.006 98.1611 243.898C116.555 222.691 120.847 218.222 119.533 221.464ZM231.3 246.264C244.613 257.743 255.387 267.295 255.3 267.47C255.124 267.558 247.592 268.347 238.482 269.135C222.803 270.537 220.876 270.537 203.884 269.048C193.986 268.259 185.84 267.47 185.752 267.383C185.577 267.207 199.154 225.846 200.818 221.464C201.343 220.062 199.241 218.397 231.3 246.264ZM326.161 243.547C330.453 256.341 333.694 266.945 333.518 267.207C333.256 267.383 325.11 268.259 315.475 269.048C299.008 270.45 296.73 270.45 281.752 269.135C272.993 268.347 265.548 267.47 265.285 267.295C265.11 267.032 266.599 265.367 268.701 263.527C270.803 261.774 282.803 251.346 295.329 240.305C307.854 229.351 318.19 220.413 318.278 220.413C318.453 220.413 321.956 230.841 326.161 243.547ZM421.197 243.723C434.511 259.058 441.08 267.295 440.467 267.733C439.854 268.084 436.175 268.785 432.234 269.398C426.102 270.362 423.737 270.275 416.73 269.048C412.175 268.259 408.146 267.383 407.796 267.032C407.358 266.594 400.088 223.042 400.088 220.763C400.088 219.712 402.54 222.341 421.197 243.723ZM189.519 244.774L181.898 267.47L165.256 269.048C150.891 270.362 147.037 270.45 136.614 269.486C130.044 268.872 123.475 268.171 122.161 267.821C119.971 267.383 124.088 264.666 158.073 244.336C179.095 231.717 196.526 221.552 196.701 221.727C196.876 221.903 193.635 232.243 189.519 244.774ZM361.372 244.248C390.628 261.774 399.124 267.295 397.81 267.733C396.934 268.084 390.015 268.872 382.569 269.486C370.482 270.45 367.241 270.362 353.314 268.872L337.635 267.295L330.365 245.826C326.424 233.996 322.92 223.655 322.57 222.779C322.219 221.99 322.219 221.289 322.57 221.289C322.92 221.289 340.351 231.63 361.372 244.248ZM107.358 228.124C106.745 229.001 98.7742 238.202 89.7523 248.63L73.1976 267.558L67.329 268.872C62.4239 270.012 60.672 270.099 57.1684 269.135L52.964 268.084L80.4676 247.315C95.6209 235.923 108.059 226.547 108.234 226.547C108.409 226.547 107.971 227.248 107.358 228.124ZM438.978 247.14C453.693 258.182 465.693 267.558 465.781 267.909C465.781 268.171 463.942 268.872 461.664 269.398C458.161 270.187 456.496 270.099 451.766 268.872L446.161 267.295L428.292 246.79C418.394 235.573 410.774 226.459 411.299 226.635C411.825 226.81 424.263 236.011 438.978 247.14ZM81.7815 272.29C82.4822 273.079 74.2487 273.867 71.9713 273.342C69.1684 272.641 69.3436 271.414 72.3217 271.063C74.7742 270.8 80.9932 271.589 81.7815 272.29ZM125.84 272.115C127.592 273.079 112.876 273.867 108.847 273.079C105.694 272.465 105.606 272.378 107.533 271.852C108.76 271.589 110.511 271.151 111.475 270.976C114.015 270.537 124.438 271.326 125.84 272.115ZM196.701 272.115C198.54 273.079 183.825 273.955 176.38 273.254C172.701 272.991 169.898 272.465 170.249 272.202C171.738 270.713 193.898 270.625 196.701 272.115ZM273.781 272.115C275.708 273.079 260.73 273.955 252.497 273.342C248.38 272.991 245.227 272.465 245.577 272.202C247.066 270.713 271.066 270.625 273.781 272.115ZM348.321 272.115C350.248 273.166 337.285 273.955 328.964 273.342C324.672 272.991 321.431 272.465 321.781 272.202C323.27 270.713 345.431 270.625 348.321 272.115ZM412.35 271.852C413.139 272.202 412.526 272.641 410.599 273.079C407.358 273.867 391.767 273.166 392.642 272.202C394.044 270.888 408.847 270.625 412.35 271.852ZM450.015 272.115C450.015 272.465 448.701 272.991 447.212 273.254C443.796 273.867 436.613 272.641 438.628 271.852C441.781 270.537 450.015 270.713 450.015 272.115ZM53.2268 272.115C53.2268 272.553 52.6137 272.991 51.9129 272.991C51.2122 272.991 50.5991 272.553 50.5991 272.115C50.5991 271.589 51.2122 271.238 51.9129 271.238C52.6137 271.238 53.2268 271.589 53.2268 272.115ZM468.847 272.115C469.109 272.553 468.584 272.991 467.62 272.991C466.569 272.991 465.781 272.553 465.781 272.115C465.781 271.589 466.307 271.238 467.007 271.238C467.708 271.238 468.584 271.589 468.847 272.115ZM68.818 275.883C74.1611 277.811 74.9494 278.512 122.949 327.059C149.752 354.224 171.475 376.395 171.212 376.395C170.511 376.395 53.6648 277.373 53.402 276.672C53.1392 275.883 58.745 274.13 61.548 274.043C62.5115 274.043 65.7523 274.831 68.818 275.883ZM102.541 275.269C107.884 276.146 112.088 277.285 112.964 278.161C113.752 278.95 127.329 298.492 143.008 321.626C158.774 344.76 175.416 369.122 179.971 375.782C184.526 382.354 188.03 387.787 187.854 387.787C186.978 387.787 78.453 277.285 78.8034 276.847C79.1538 276.496 88.964 274.481 92.9056 273.955C93.256 273.867 97.6355 274.481 102.541 275.269ZM165.519 275.532C174.103 276.321 181.46 277.373 181.898 277.811C182.949 278.95 234.803 399.179 234.453 399.529C234.015 399.88 118.57 278.512 118.219 277.46C118.132 277.022 123.825 276.233 130.92 275.708C138.015 275.094 144.322 274.481 144.76 274.306C146.336 273.78 149.84 273.955 165.519 275.532ZM240.234 275.445L257.752 276.934L257.577 279.563C257.489 281.053 253.811 306.992 249.431 337.399C245.051 367.72 241.197 394.71 240.935 397.251C240.672 399.705 240.146 401.808 239.883 401.808C239.446 401.808 186.628 280.001 186.103 277.811C186.015 277.285 192.322 276.321 201.694 275.532C221.927 273.692 219.825 273.692 240.234 275.445ZM319.329 275.708C327.124 276.321 333.518 277.11 333.518 277.46C333.518 277.811 322.132 304.45 308.205 336.698C294.278 368.859 282.278 396.813 281.489 398.653C280.701 400.581 279.913 401.895 279.65 401.72C279.3 401.37 261.869 277.723 262.044 277.285C262.132 277.197 269.402 276.496 278.336 275.62C295.241 273.955 296.029 273.955 319.329 275.708ZM385.635 275.357C394.307 276.146 401.577 276.847 401.752 277.022C402.015 277.285 303.387 381.215 289.986 394.797C284.818 400.055 284.467 400.23 285.694 397.426C286.92 394.447 299.533 365.266 324.759 306.729C331.679 290.78 337.372 277.635 337.548 277.46C337.81 277.197 357.256 275.007 368.555 273.955C369.256 273.955 376.964 274.481 385.635 275.357ZM432.934 275.269C437.226 275.971 440.993 276.759 441.168 276.934C441.343 277.11 421.635 297.352 397.372 321.801C373.11 346.25 348.497 371.137 342.803 377.008C337.022 382.967 332.205 387.612 332.029 387.436C331.854 387.261 334.745 382.617 338.599 377.184C343.679 369.735 402.715 283.331 406.394 277.986C406.657 277.46 410.774 276.409 415.591 275.62C420.321 274.744 424.35 274.043 424.613 273.955C424.876 273.955 428.555 274.481 432.934 275.269ZM464.642 275.708C466.657 276.409 465.343 277.723 443.708 295.95C431.007 306.641 405.518 328.286 386.949 343.972C368.467 359.658 352.263 373.24 351.037 374.204C348.672 375.957 412.438 310.847 433.723 289.641C445.46 277.986 446.949 276.847 451.591 275.445C456.496 273.955 460.35 274.043 464.642 275.708ZM260.818 291.919C260.818 292.62 264.409 318.647 268.701 349.58C273.081 380.601 276.584 406.89 276.584 407.942C276.584 409.695 261.431 446.061 260.029 447.551C259.679 447.901 255.65 439.401 251.008 428.623L242.511 408.993L250.394 354.4C254.774 324.342 258.54 297.615 258.803 295.074C259.066 292.62 259.679 290.517 260.029 290.517C260.467 290.517 260.818 291.131 260.818 291.919ZM178.92 346.601C203.358 372.364 226.92 397.076 231.212 401.37L239.008 409.344L247.154 428.097C251.708 438.437 255.212 447.113 255.124 447.2C254.949 447.376 243.212 437.736 229.11 425.731L203.358 403.999L166.57 350.193C146.424 320.662 129.519 295.775 129.081 294.986C128.03 292.971 129.694 294.636 178.92 346.601ZM383.971 304.713C379.942 310.672 363.212 335.209 346.745 359.307L316.876 403.035L291.299 424.767C277.197 436.685 265.373 446.412 265.022 446.499C264.759 446.499 268.088 438.174 272.467 428.009L280.526 409.607L335.533 351.771C365.84 320.049 390.803 294.022 390.978 294.022C391.153 294.022 388 298.842 383.971 304.713Z" fill="#16346C"/>
<path d="M407.469 154.935L424.396 150C438.331 145.938 449.195 134.99 453.151 121.025L457.803 104.601L462.043 120.551C465.888 135.016 477.115 146.356 491.541 150.345L508.137 154.935L492.872 158.56C477.5 162.211 465.46 174.153 461.685 189.495L457.803 205.27L453.049 188.13C448.935 173.295 437.059 161.884 422.072 158.365L407.469 154.935Z" fill="#16346C"/>
<path d="M322.469 107.023L311.709 104.497L324.822 100.674C338.952 96.5544 349.968 85.4535 353.979 71.292L357.593 58.5326L360.856 70.8076C364.755 85.4748 376.14 96.9741 390.767 101.019L403.452 104.527L392.121 107.218C376.534 110.919 364.325 123.029 360.497 138.586L357.566 150.496L353.88 137.206C349.708 122.163 337.666 110.592 322.469 107.023Z" stroke="#16346C" stroke-width="2"/>
<path d="M88.1417 1L146.333 86.5462L155.316 99.7513L145.555 118.698L157.74 135.877L129.397 148.553L109.361 165.686L97.902 148.553H84.1227L72.0659 149.701L0.873047 37.7447" stroke="#16346C" stroke-width="0.5"/>
<path d="M16.9479 69.322C14.8428 79.2737 14.5366 101.703 30.1531 111.808C49.6737 124.439 66.3246 112.382 72.6401 109.512C78.9556 106.641 105.366 87.6944 123.738 85.972C142.11 84.2496 147.852 84.8237 157.038 94.0099C164.387 101.359 162.014 110.468 159.909 114.105L157.038 109.512C157.038 93.4357 148.426 89.4168 130.053 89.4168C111.681 89.4168 88.7155 106.067 82.4 109.512C76.0845 112.956 53.1194 128.458 30.1531 117.549C11.78 108.823 10.6328 81.7616 12.3558 69.322" stroke="#16346C" stroke-width="0.5"/>
<path d="M80.6757 154.294C84.8095 166.236 100.388 167.691 107.66 166.925V162.332C105.747 162.332 100.657 162.102 95.6049 161.184C89.2894 160.036 85.2704 154.868 84.1222 148.553C82.9739 142.237 86.9928 135.922 92.7342 130.18C98.4756 124.439 114.551 116.975 124.886 114.105C135.22 111.234 148.425 108.937 159.908 115.827C169.094 121.339 162.97 130.755 158.76 134.774H161.056L163.353 137.644C170.817 130.18 171.965 116.975 162.205 111.234C152.444 105.493 139.813 106.641 135.22 107.215C130.627 107.789 117.996 110.66 110.532 114.105C103.069 117.55 91.5843 125.013 88.7136 127.884C85.843 130.755 75.5085 139.367 80.6757 154.294Z" fill="#DBDBDB" stroke="#16346C" stroke-width="0.5"/>
<path d="M106.945 176.532L119.145 195.058L178.281 156.591L165.577 137.989C163.578 135.061 159.889 133.798 156.515 134.887L148.241 137.556C134.099 142.118 121.508 150.528 111.878 161.843L107.534 166.947C105.229 169.656 104.989 173.561 106.945 176.532Z" fill="white" stroke="#16346C" stroke-width="0.5"/>
<path d="M136.675 199.778L136.369 200.225L119.145 193.91C131.231 174.865 150.673 161.684 172.839 157.508L177.706 156.591L177.132 176.686C160.819 177.773 145.907 186.285 136.675 199.778Z" fill="#DBDBDB" stroke="#16346C" stroke-width="0.5"/>
<path d="M140.389 202.522L139.24 196.206C147.696 185.544 160.037 178.673 173.554 177.102L177.133 176.686L177.707 197.929L172.54 211.134H169.095H163.928L140.389 202.522Z" fill="#DBDBDB" stroke="#16346C" stroke-width="0.5"/>
<path d="M165.649 209.411L172.539 211.134M172.539 211.134L167.946 206.541M172.539 211.134L171.965 204.818" stroke="#16346C" stroke-width="0.5"/>
</svg>
