<svg width="786" height="370" viewBox="0 0 786 370" fill="none" xmlns="http://www.w3.org/2000/svg">
<g opacity="0.8">
<path d="M0.492188 185V370H21.1752H41.8583V282.144V194.203L45.4039 194.8C53.6772 196.163 82.8023 199.572 93.3548 200.424C99.602 200.935 104.836 201.446 104.92 201.617C105.089 201.702 116.739 224.028 130.922 251.126C145.105 278.224 161.229 308.816 166.716 319.212C172.204 329.608 180.392 345.203 185.036 354.065L193.309 370H238.305H283.301V303.618V237.236L291.574 227.948C296.049 222.835 309.472 207.667 321.29 194.203C333.109 180.739 342.987 169.747 343.24 169.747C343.493 169.747 345.941 173.837 348.727 178.865C351.429 183.977 355.228 190.965 357.169 194.459C359.111 197.953 363.079 205.281 366.033 210.649C368.988 216.018 373.378 224.113 375.826 228.544C378.19 232.976 385.45 246.184 391.782 257.943C409.003 289.558 413.14 297.227 417.53 305.237C419.725 309.242 424.03 317.082 427.069 322.706C430.109 328.33 434.836 336.937 437.538 341.879C440.239 346.822 444.713 355.173 447.499 360.456L452.564 370H540.362C641.751 370 642.426 369.915 665.642 362.331C698.566 351.594 727.1 330.12 749.05 299.698C772.434 267.146 785.604 224.625 785.604 181.251C785.604 150.403 779.525 123.305 767.031 98.1667C744.744 53.2588 702.956 21.3887 648.589 7.83966C620.815 0.937317 619.042 0.766876 557.499 0.426025L502.795 -6.10352e-05V184.744C502.795 303.959 502.541 369.233 501.951 368.637C501.528 368.211 498.911 363.779 496.21 358.922C488.781 345.544 463.033 299.017 454.675 283.934C450.623 276.69 440.83 258.795 432.726 244.309C424.706 229.737 412.887 208.519 406.555 197.015C400.224 185.511 390.178 167.361 384.184 156.538C378.19 145.801 373.378 136.598 373.378 136.087C373.378 135.491 384.184 122.879 397.353 107.966C410.523 93.0539 424.537 77.1188 428.505 72.6024C432.472 68.0009 447.837 50.532 462.611 33.7448C477.469 16.9576 490.132 2.47116 490.807 1.61902C491.989 0.255585 491.736 0.17038 486.248 0.17038H480.339L469.026 14.4012C450.285 38.0055 433.148 58.5421 418.796 74.7328C411.367 83.169 391.191 106.006 374.053 125.435C356.916 144.864 339.441 164.634 335.304 169.321C331.083 174.093 317.745 189.175 305.673 202.895L283.723 227.863L283.47 114.017L283.301 0.17038H262.618H241.935V184.318C241.935 316.656 241.682 368.381 241.006 368.125C240.5 367.955 235.604 359.433 230.201 349.123C224.713 338.812 215.427 321.172 209.518 309.924C203.524 298.676 196.095 284.701 192.971 278.821C189.848 272.941 179.97 254.364 171.022 237.492C162.073 220.62 153.293 204.088 151.521 200.679L148.228 194.629L152.703 193.095C173.386 186.193 196.01 169.576 207.914 152.533C221.421 133.105 227.33 107.625 224.207 82.3169C219.057 41.0732 190.185 14.9977 138.013 4.5163C120.201 0.937317 117.077 0.766876 58.1515 0.426025L0.492188 0.0851746V185ZM103.485 8.18051C122.396 11.5039 137.422 17.2132 148.566 25.2234C151.521 27.3537 156.755 32.2109 160.385 36.0456C175.749 52.5771 183.094 79.3344 180.392 109.245C178.198 133.957 170.769 151.596 156.333 167.02C148.735 175.03 139.786 181.421 127.376 187.471L117.415 192.328L95.4654 192.243C76.2175 192.243 61.5283 191.476 46.3326 189.687L41.8583 189.175V97.5702V5.96494L68.704 6.39102C88.2896 6.64667 97.5759 7.15796 103.485 8.18051ZM604.015 7.49881C623.432 10.3109 639.387 15.3385 655.596 23.6895C671.805 31.9553 682.695 40.2211 696.033 54.3666C710.047 69.1087 721.106 87.6002 728.873 108.904C745.926 155.771 746.77 224.113 730.984 272.004C723.301 295.438 712.664 313.333 697.469 328.756C680.669 345.714 663.954 355.173 638.459 362.075L629.848 364.461H587.215H544.583L544.33 185.256L544.161 6.13538H569.571C588.144 6.13538 597.43 6.47623 604.015 7.49881Z" fill="white"/>
<path d="M559.195 196.1L587.815 187.757C611.375 180.888 629.742 162.379 636.43 138.768L644.295 111L651.464 137.967C657.964 162.422 676.946 181.595 701.335 188.34L729.395 196.1L703.586 202.229C677.596 208.401 657.241 228.591 650.858 254.53L644.295 281.2L636.258 252.223C629.302 227.141 609.224 207.849 583.885 201.898L559.195 196.1Z" fill="white"/>
</g>
</svg>
