<svg width="268" height="47" viewBox="0 0 268 47" fill="none" xmlns="http://www.w3.org/2000/svg">
<path d="M12.968 31.688C9.352 31.688 6.312 30.52 3.848 28.184C1.352 25.816 0.104 22.872 0.104 19.352C0.104 14.2 2.28 9.88 6.632 6.392C10.696 3.096 15.352 1.448 20.6 1.448C23.992 1.448 26.04 2.648 26.744 5.048C26.776 5.144 26.792 5.24 26.792 5.336C26.824 5.432 26.84 5.528 26.84 5.624C26.84 5.912 26.76 6.088 26.6 6.152L25.304 4.568C24.248 3.608 22.696 3.128 20.648 3.128C16.072 3.128 11.832 4.904 7.928 8.456C3.896 12.104 1.88 16.184 1.88 20.696C1.88 24.056 3.08 26.6 5.48 28.328C7.528 29.8 10.312 30.536 13.832 30.536C16.36 30.536 18.68 30.072 20.792 29.144C23.32 27.992 24.808 26.328 25.256 24.152C25.448 23.128 25.544 21.208 25.544 18.392C25.544 18.072 25.72 17.752 26.072 17.432C26.456 17.112 26.808 16.952 27.128 16.952C27.416 16.952 27.624 17.064 27.752 17.288C27.528 18.184 27.352 19.352 27.224 20.792C27.128 22.232 27.08 23.944 27.08 25.928C27.08 26.28 27.096 26.792 27.128 27.464C27.192 28.136 27.224 28.648 27.224 29C27.224 29.48 27.064 29.72 26.744 29.72C26.04 29.72 25.512 29 25.16 27.56C21.832 30.312 17.768 31.688 12.968 31.688ZM31.8433 28.904C30.3393 28.904 29.5873 27.4 29.5873 24.392C29.5873 23.272 29.6833 22.152 29.8753 21.032C30.0673 19.912 30.3393 18.792 30.6913 17.672C30.9793 16.776 31.4753 16.008 32.1793 15.368C32.9153 14.696 33.7313 14.36 34.6273 14.36C34.9473 14.36 35.1233 14.424 35.1553 14.552C35.0913 14.68 35.0113 14.712 34.9153 14.648C33.6353 14.968 32.6753 16.28 32.0353 18.584C31.8113 19.416 31.6353 20.28 31.5073 21.176C31.4113 22.072 31.3633 23 31.3633 23.96C31.3633 26.296 31.7473 27.464 32.5153 27.464C33.5713 27.464 34.3873 26.312 34.9633 24.008C35.3473 22.408 35.5393 20.792 35.5393 19.16C35.5393 18.104 35.3633 17.304 35.0113 16.76C34.6593 16.184 34.4833 15.944 34.4833 16.04C34.4833 15.784 34.6593 15.656 35.0113 15.656C35.9713 15.656 36.4513 16.856 36.4513 19.256C36.4513 21.08 36.0993 22.984 35.3953 24.968C34.4993 27.592 33.3153 28.904 31.8433 28.904ZM40.466 29.816C40.242 29.816 40.13 29.672 40.13 29.384C40.13 28.936 40.162 28.296 40.226 27.464C40.322 26.6 40.37 25.944 40.37 25.496C40.37 23.32 39.89 21.112 38.93 18.872C38.962 19 38.978 19.16 38.978 19.352C38.978 19.448 38.93 19.544 38.834 19.64L38.69 19.448C38.466 19.032 38.226 18.664 37.97 18.344C37.746 17.992 37.522 17.656 37.298 17.336C37.298 17.08 37.41 16.792 37.634 16.472C37.858 16.152 38.098 15.992 38.354 15.992C38.418 15.992 38.466 16.008 38.498 16.04C39.426 16.392 40.21 17.816 40.85 20.312C41.106 21.304 41.298 22.232 41.426 23.096C41.554 23.928 41.634 24.712 41.666 25.448C42.05 23.912 43.058 21.576 44.69 18.44C46.546 14.856 48.002 13.064 49.058 13.064C49.698 13.064 50.018 13.64 50.018 14.792C50.018 15.208 49.906 15.416 49.682 15.416L49.49 15.224C49.362 15.128 49.218 15.08 49.058 15.08C48.258 15.08 47.154 16.12 45.746 18.2C44.754 19.608 43.938 21.064 43.298 22.568C42.658 24.04 42.162 25.528 41.81 27.032C41.778 27.64 41.634 28.424 41.378 29.384C41.25 29.672 40.946 29.816 40.466 29.816ZM50.9191 10.472C50.1831 10.472 49.8151 10.152 49.8151 9.512C49.8151 8.904 50.1511 8.456 50.8231 8.168L52.4551 7.448C52.5831 7.384 52.6791 7.352 52.7431 7.352C52.9671 7.352 53.0791 7.496 53.0791 7.784C53.0791 7.88 52.8711 8.184 52.4551 8.696C52.0391 9.208 51.7991 9.592 51.7351 9.848C51.6071 10.264 51.3351 10.472 50.9191 10.472ZM52.0711 29.72C51.0791 29.72 50.5831 28.616 50.5831 26.408C50.5831 25.64 50.6311 24.568 50.7271 23.192C50.8231 21.752 50.8711 20.664 50.8711 19.928C50.8711 17.72 50.2791 16.616 49.0951 16.616C48.9671 16.616 48.7751 16.648 48.5191 16.712C48.2951 16.776 48.1351 16.808 48.0391 16.808C47.8791 16.808 47.7991 16.744 47.7991 16.616C47.7991 16.36 48.3431 16.072 49.4311 15.752C50.5511 15.368 51.2711 15.176 51.5911 15.176C52.0711 15.176 52.3111 15.88 52.3111 17.288C52.3111 17.64 52.2791 18.104 52.2151 18.68C52.1831 19.256 52.1351 19.912 52.0711 20.648C52.0071 21.384 51.9591 22.04 51.9271 22.616C51.8951 23.16 51.8791 23.608 51.8791 23.96C51.8791 26.904 52.3591 28.376 53.3191 28.376C54.0551 28.376 54.8551 27.864 55.7191 26.84C55.8151 26.84 55.8631 26.92 55.8631 27.08C55.8631 27.496 55.3511 28.04 54.3271 28.712C53.3351 29.384 52.5831 29.72 52.0711 29.72ZM56.2993 30.44C56.2353 30.376 56.2033 30.328 56.2033 30.296C56.2353 30.072 56.2833 29.672 56.3473 29.096C56.4433 28.52 56.5553 27.736 56.6833 26.744C56.9393 24.824 57.1313 23.144 57.2593 21.704C57.3873 20.264 57.4513 19.064 57.4513 18.104C57.4513 17.112 57.3713 16.344 57.2113 15.8C57.0833 15.672 56.8273 15.608 56.4433 15.608C56.2513 15.608 55.9633 15.656 55.5793 15.752C55.1952 15.848 54.9232 15.896 54.7632 15.896C54.6032 15.896 54.5232 15.848 54.5232 15.752C54.5232 15.624 54.9712 15.368 55.8673 14.984C57.4033 14.152 58.1713 13.72 58.1713 13.688C58.7793 13.688 59.0833 14.6 59.0833 16.424C59.0833 17.224 58.9393 18.44 58.6513 20.072C58.5233 20.872 58.4273 21.576 58.3633 22.184C58.2993 22.76 58.2673 23.256 58.2673 23.672V23.816C58.5553 23.304 58.9233 22.712 59.3713 22.04C59.8513 21.336 60.3953 20.568 61.0033 19.736C62.3153 18.008 63.3233 16.808 64.0273 16.136C64.1553 16.008 64.4753 15.832 64.9873 15.608C65.5313 15.384 65.8993 15.272 66.0913 15.272C66.1873 15.272 66.2353 15.304 66.2353 15.368C65.4673 16.84 64.9873 17.944 64.7953 18.68C64.5393 19.64 64.4113 20.872 64.4113 22.376C64.4113 25 64.9713 26.312 66.0913 26.312C66.4753 26.312 66.9233 26.008 67.4353 25.4C67.4993 25.272 67.5953 25.144 67.7233 25.016C67.8833 24.856 68.0433 24.664 68.2032 24.44L68.2513 24.632C68.2513 24.984 67.8833 25.624 67.1473 26.552C66.4433 27.448 65.8833 27.896 65.4673 27.896C63.8993 27.896 63.1153 26.232 63.1153 22.904C63.1153 21.976 63.1313 21.096 63.1633 20.264C63.2273 19.432 63.3233 18.648 63.4513 17.912C62.6513 18.68 61.9153 19.496 61.2433 20.36C60.6033 21.224 60.0113 22.136 59.4673 23.096C58.1553 25.432 57.5633 27.48 57.6913 29.24C57.5313 29.432 57.3233 29.624 57.0673 29.816C56.8433 30.008 56.5873 30.216 56.2993 30.44ZM78.4629 31.496C77.3109 31.496 76.7349 30.04 76.7349 27.128C76.7349 26.776 76.7509 26.152 76.7829 25.256C76.8469 24.36 76.9429 23.208 77.0709 21.8C76.5269 22.92 75.4389 24.392 73.8069 26.216C71.9509 28.328 70.6069 29.384 69.7749 29.384C68.8469 29.384 68.3829 28.824 68.3829 27.704C68.3829 26.168 69.1669 24.28 70.7349 22.04C71.4069 21.048 72.0949 20.168 72.7989 19.4C73.5029 18.632 74.2069 17.944 74.9109 17.336C75.8389 16.536 76.7189 16.136 77.5509 16.136C77.6789 14.248 77.7749 12.536 77.8389 11C77.9029 9.464 77.9349 8.136 77.9349 7.016C77.9349 3.72 77.2949 2.072 76.0149 2.072C75.9189 2.072 75.7589 2.104 75.5349 2.168C75.3109 2.232 75.1509 2.264 75.0549 2.264C74.8949 2.264 74.8149 2.184 74.8149 2.024C74.8149 1.8 75.3589 1.496 76.4469 1.112C77.5029 0.695998 78.2389 0.487998 78.6549 0.487998C79.4229 0.487998 79.8069 1.144 79.8069 2.456C79.8069 3.064 79.7109 4.552 79.5189 6.92C79.3269 9.256 79.0229 12.504 78.6069 16.664C78.9589 17.112 79.1349 17.592 79.1349 18.104C79.1349 18.328 79.0709 18.44 78.9429 18.44C79.0069 18.44 78.8629 18.28 78.5109 17.96C78.3829 19.144 78.2869 20.344 78.2229 21.56C78.1909 22.776 78.1749 23.992 78.1749 25.208C78.1749 28.44 78.6869 30.056 79.7109 30.056C80.3829 30.056 81.0869 29.496 81.8229 28.376C81.9189 28.376 81.9669 28.472 81.9669 28.664C81.9669 29.08 81.5029 29.656 80.5749 30.392C79.6469 31.128 78.9429 31.496 78.4629 31.496ZM70.3989 28.04C71.3269 28.04 72.6229 26.84 74.2869 24.44C75.4389 22.744 76.4469 21.064 77.3109 19.4L77.4069 17.768C76.6389 17.8 76.0309 17.976 75.5829 18.296C74.2389 19.192 72.9589 20.44 71.7429 22.04C70.3349 23.928 69.6309 25.544 69.6309 26.888C69.6309 27.656 69.8869 28.04 70.3989 28.04ZM84.6391 30.296C82.4631 30.296 81.3751 29.704 81.3751 28.52C81.3751 28.168 81.4871 27.992 81.7111 27.992L82.6711 28.904C82.5751 28.232 82.5271 27.496 82.5271 26.696C82.5271 26.248 82.5271 25.88 82.5271 25.592C82.5271 25.272 82.5431 25 82.5751 24.776C82.9271 19.944 83.1991 16.04 83.3911 13.064C83.5831 10.088 83.6791 8.024 83.6791 6.872C83.6791 3.672 83.0551 2.072 81.8071 2.072C81.5191 2.072 81.2311 2.12 80.9431 2.216C80.9111 2.248 80.8631 2.264 80.7991 2.264C80.6711 2.264 80.6071 2.184 80.6071 2.024C80.6071 1.8 81.1671 1.496 82.2871 1.112C83.3431 0.695998 84.0791 0.487998 84.4951 0.487998C85.2311 0.487998 85.5991 1.144 85.5991 2.456C85.5991 4.216 85.4551 6.536 85.1671 9.416C84.9431 11.56 84.7191 13.864 84.4951 16.328C84.3031 18.792 84.1271 21.4 83.9671 24.152C84.4791 22.584 85.3591 21.032 86.6071 19.496C88.0791 17.64 89.4871 16.712 90.8311 16.712C91.9511 16.712 92.5111 17.656 92.5111 19.544C92.5111 22.232 91.8711 24.6 90.5911 26.648C89.1191 29.08 87.1351 30.296 84.6391 30.296ZM84.2551 29.48C86.1431 29.48 87.7591 28.488 89.1031 26.504C90.3191 24.648 90.9271 22.744 90.9271 20.792C90.9271 19.096 90.5431 18.248 89.7751 18.248C88.9111 18.248 87.9191 19.016 86.7991 20.552C85.1031 22.92 84.2551 25.096 84.2551 27.08C84.2551 27.24 84.2711 27.464 84.3031 27.752C84.3351 28.008 84.3511 28.216 84.3511 28.376C84.3511 28.888 84.2391 29.256 84.0151 29.48H84.2551ZM93.2803 32.072C93.2483 32.04 93.2323 32.008 93.2323 31.976C93.2643 31.816 93.3123 31.544 93.3763 31.16C93.4403 30.776 93.5043 30.28 93.5683 29.672C94.1763 25.256 94.6243 21.144 94.9123 17.336C95.2003 13.528 95.3443 10.024 95.3443 6.824C95.3443 3.656 94.7203 2.072 93.4723 2.072C93.3763 2.072 93.2163 2.104 92.9923 2.168C92.7683 2.232 92.6082 2.264 92.5122 2.264C92.3522 2.264 92.2722 2.184 92.2722 2.024C92.2722 1.8 92.8322 1.496 93.9523 1.112C95.0083 0.695998 95.7443 0.487998 96.1603 0.487998C96.8963 0.487998 97.2643 1.144 97.2643 2.456C97.2643 3.416 97.2323 4.472 97.1683 5.624C97.1043 6.776 97.0083 8.008 96.8803 9.32L95.5843 23.768L99.8563 18.152C100.208 17.672 100.816 16.68 101.68 15.176C102.128 14.44 102.816 14.072 103.744 14.072C104.16 14.072 104.416 14.168 104.512 14.36C104.48 14.392 104.432 14.424 104.368 14.456C104.336 14.488 104.272 14.52 104.176 14.552C103.28 14.936 102.528 16.344 101.92 18.776C101.408 20.696 101.152 22.376 101.152 23.816C101.152 26.216 101.728 27.416 102.88 27.416C103.264 27.416 103.712 27.112 104.224 26.504L105.04 25.592C105.072 25.624 105.088 25.656 105.088 25.688C105.088 26.104 104.704 26.776 103.936 27.704C103.232 28.6 102.672 29.048 102.256 29.048C100.72 29.048 99.9523 27.464 99.9523 24.296C99.9523 21.512 100.016 19.88 100.144 19.4C99.9203 19.624 99.6323 19.944 99.2803 20.36C98.9603 20.744 98.5443 21.24 98.0323 21.848C96.0163 24.344 94.9283 27.352 94.7683 30.872C94.0643 31.608 93.5683 32.008 93.2803 32.072ZM106.096 28.088C105.168 28.088 104.704 27.512 104.704 26.36C104.704 24.856 105.488 22.984 107.056 20.744C107.728 19.752 108.416 18.872 109.12 18.104C109.824 17.336 110.528 16.648 111.232 16.04C112.16 15.272 113.008 14.888 113.776 14.888C114.256 14.888 114.656 15.096 114.976 15.512C115.296 15.896 115.456 16.328 115.456 16.808C115.456 17.032 115.392 17.144 115.264 17.144C115.264 17.144 115.152 17.032 114.928 16.808C114.704 16.584 114.336 16.472 113.824 16.472C113.088 16.472 112.448 16.648 111.904 17C110.496 17.992 109.2 19.256 108.016 20.792C106.64 22.584 105.952 24.2 105.952 25.64C105.952 26.376 106.208 26.744 106.72 26.744C107.552 26.744 108.864 25.512 110.656 23.048C111.424 21.96 112.048 21 112.528 20.168C113.04 19.304 113.408 18.568 113.632 17.96C113.856 17.736 114.112 17.624 114.4 17.624C114.56 17.624 114.656 17.688 114.688 17.816C114.464 18.232 114.352 18.984 114.352 20.072C114.352 21.448 114.512 22.68 114.832 23.768C115.312 25.464 116 26.312 116.896 26.312C117.472 26.312 118.08 25.816 118.72 24.824L119.728 23.288C119.76 23.32 119.776 23.352 119.776 23.384C119.776 23.896 119.296 24.76 118.336 25.976C117.376 27.16 116.64 27.752 116.128 27.752C115.296 27.752 114.528 26.824 113.824 24.968C113.28 23.432 113.008 22.136 113.008 21.08C109.872 25.752 107.568 28.088 106.096 28.088ZM121.185 10.472C120.449 10.472 120.081 10.152 120.081 9.512C120.081 8.904 120.417 8.456 121.089 8.168L122.721 7.448C122.849 7.384 122.945 7.352 123.009 7.352C123.233 7.352 123.345 7.496 123.345 7.784C123.345 7.88 123.137 8.184 122.721 8.696C122.305 9.208 122.065 9.592 122.001 9.848C121.873 10.264 121.601 10.472 121.185 10.472ZM122.337 29.72C121.345 29.72 120.849 28.616 120.849 26.408C120.849 25.64 120.897 24.568 120.993 23.192C121.089 21.752 121.137 20.664 121.137 19.928C121.137 17.72 120.545 16.616 119.361 16.616C119.233 16.616 119.041 16.648 118.785 16.712C118.561 16.776 118.401 16.808 118.305 16.808C118.145 16.808 118.065 16.744 118.065 16.616C118.065 16.36 118.609 16.072 119.697 15.752C120.817 15.368 121.537 15.176 121.857 15.176C122.337 15.176 122.577 15.88 122.577 17.288C122.577 17.64 122.545 18.104 122.481 18.68C122.449 19.256 122.401 19.912 122.337 20.648C122.273 21.384 122.225 22.04 122.193 22.616C122.161 23.16 122.145 23.608 122.145 23.96C122.145 26.904 122.625 28.376 123.585 28.376C124.321 28.376 125.121 27.864 125.985 26.84C126.081 26.84 126.129 26.92 126.129 27.08C126.129 27.496 125.617 28.04 124.593 28.712C123.601 29.384 122.849 29.72 122.337 29.72ZM168.641 29C166.401 29 164.529 22.472 163.025 9.416C162.129 11.4 161.217 13.272 160.289 15.032C159.361 16.792 158.433 18.424 157.505 19.928C154.401 25.048 151.905 27.608 150.017 27.608C147.841 27.608 146.081 24.744 144.737 19.016C144.225 16.84 143.841 14.76 143.585 12.776C143.329 10.792 143.201 8.92 143.201 7.16C143.201 4.472 143.665 3.048 144.593 2.888L144.833 6.824C145.089 10.856 145.569 14.36 146.273 17.336C147.521 22.456 149.249 25.016 151.457 25.016C152.993 25.016 155.185 22.488 158.033 17.432C160.305 13.4 161.889 10.04 162.785 7.352L162.449 4.232C162.449 2.664 162.945 1.88 163.937 1.88C164.769 1.88 165.185 2.68 165.185 4.28C165.185 5.208 165.041 5.848 164.753 6.2V7.016C164.753 8.488 164.817 10.008 164.945 11.576C165.073 13.144 165.265 14.76 165.521 16.424C165.681 17.416 165.873 18.392 166.097 19.352C166.321 20.312 166.577 21.256 166.865 22.184C167.825 25.224 168.865 26.744 169.985 26.744C170.145 26.744 170.353 26.68 170.609 26.552C170.897 26.392 171.073 26.312 171.137 26.312L171.281 26.456C171.281 26.616 170.801 27.256 169.841 28.376C169.521 28.792 169.121 29 168.641 29ZM136.913 30.152C136.145 30.152 135.761 29.08 135.761 26.936C135.761 22.904 137.281 16.328 140.321 7.208C140.449 6.856 140.625 6.344 140.849 5.672C141.105 5 141.409 4.184 141.761 3.224C142.081 2.328 142.497 1.88 143.009 1.88C143.265 1.88 143.409 2.04 143.441 2.36C142.449 4.888 141.601 7.08 140.897 8.936C140.193 10.76 139.649 12.248 139.265 13.4C137.793 17.848 137.057 21.656 137.057 24.824C137.057 25.304 137.185 26.104 137.441 27.224C137.569 27.736 137.665 28.168 137.729 28.52C137.793 28.872 137.825 29.128 137.825 29.288C137.825 29.864 137.521 30.152 136.913 30.152ZM175.293 29.24C174.845 29.24 174.621 28.84 174.621 28.04C174.621 27.528 174.861 27.032 175.341 26.552C175.853 26.072 176.365 25.832 176.877 25.832C177.037 25.832 177.117 25.864 177.117 25.928C177.117 26.216 177.021 26.632 176.829 27.176C176.669 27.72 176.589 28.104 176.589 28.328C176.589 28.936 176.157 29.24 175.293 29.24ZM193.642 30.2C192.138 30.2 191.386 28.248 191.386 24.344C191.386 24.12 191.386 23.896 191.386 23.672C191.418 23.416 191.434 23.16 191.434 22.904H191.29C191.002 22.904 190.858 22.696 190.858 22.28C190.858 21.736 191.098 21.208 191.578 20.696C191.706 14.584 192.042 10.296 192.586 7.832C192.266 7.928 192.058 7.976 191.962 7.976C191.77 7.976 191.626 7.864 191.53 7.64C192.298 3.128 193.242 0.871999 194.362 0.871999C194.938 0.871999 195.226 1.448 195.226 2.6C195.226 3.176 194.89 5.128 194.218 8.456C193.962 9.832 193.706 11.464 193.45 13.352C193.226 15.208 193.018 17.352 192.826 19.784L197.53 15.848C197.178 14.6 196.906 13.592 196.714 12.824C196.554 12.056 196.474 11.544 196.474 11.288C196.474 11.096 196.554 11 196.714 11C196.842 11 196.922 11.064 196.954 11.192C197.082 11.64 197.242 12.2 197.434 12.872C197.658 13.544 197.914 14.344 198.202 15.272C200.378 13.416 202.314 11.752 204.01 10.28C205.706 8.808 207.114 7.512 208.234 6.392L212.362 2.312C212.586 2.088 212.858 1.976 213.177 1.976C213.753 1.976 214.042 2.184 214.042 2.6C214.042 2.792 213.898 2.984 213.609 3.176C211.082 5 208.57 7 206.074 9.176C203.61 11.32 201.194 13.656 198.826 16.184C199.658 18.712 200.794 21.064 202.234 23.24C204.186 26.152 206.106 27.608 207.994 27.608C209.882 27.608 211.242 26.232 212.074 23.48C212.65 21.592 212.938 19.4 212.938 16.904C212.938 15.752 212.89 15.064 212.794 14.84C212.89 14.744 212.97 14.696 213.034 14.696C213.258 14.696 213.45 14.952 213.609 15.464C213.77 15.944 213.85 16.328 213.85 16.616C213.85 19.336 213.37 22.04 212.41 24.728C211.162 28.248 209.45 30.008 207.274 30.008C205.162 30.008 203.114 28.344 201.13 25.016C200.49 23.896 199.882 22.68 199.306 21.368C198.73 20.024 198.202 18.584 197.722 17.048C196.73 17.752 195.178 19.304 193.066 21.704C193.322 25.896 194.106 27.992 195.418 27.992C195.61 27.992 195.866 27.912 196.186 27.752C196.506 27.592 196.682 27.512 196.714 27.512L196.81 27.608C196.81 27.768 196.202 28.424 194.986 29.576C194.57 29.992 194.122 30.2 193.642 30.2ZM217.276 46.904C216.22 46.904 215.212 46.376 214.252 45.32C213.292 44.264 212.812 43.192 212.812 42.104C212.812 41.816 212.86 41.656 212.956 41.624L213.196 41.96C214.348 44.392 215.868 45.608 217.756 45.608C221.404 45.608 223.228 41.016 223.228 31.832C223.228 31.512 223.18 30.392 223.084 28.472C222.988 26.52 222.828 23.752 222.604 20.168C222.092 21.448 221.068 23.144 219.532 25.256C217.772 27.784 216.46 29.048 215.596 29.048C214.924 29.048 214.588 28.28 214.588 26.744C214.588 26.072 214.668 25.192 214.828 24.104C214.988 22.984 215.228 21.672 215.548 20.168C215.388 19.688 215.308 19.256 215.308 18.872C215.308 17.272 216.028 16.28 217.468 15.896C217.596 15.992 217.66 16.152 217.66 16.376C217.66 16.6 217.58 17.032 217.42 17.672C217.292 18.28 217.1 19.112 216.844 20.168C216.3 22.28 216.028 23.928 216.028 25.112C216.028 26.456 216.284 27.128 216.796 27.128C217.468 27.128 218.524 25.912 219.964 23.48C221.276 21.304 222.236 19.048 222.844 16.712C223.036 15.976 223.5 15.608 224.236 15.608C224.588 15.608 224.764 15.752 224.764 16.04C224.764 16.168 224.7 16.392 224.572 16.712C224.476 17 224.364 17.304 224.236 17.624C224.108 17.912 224.012 18.088 223.948 18.152C223.98 18.248 224.028 18.648 224.092 19.352C224.476 22.616 224.668 26.424 224.668 30.776C224.668 31.832 224.636 32.776 224.572 33.608C224.54 34.44 224.492 35.176 224.428 35.816C224.108 38.408 223.452 40.712 222.46 42.728C221.084 45.512 219.356 46.904 217.276 46.904ZM228.159 28.088C227.231 28.088 226.767 27.512 226.767 26.36C226.767 24.856 227.551 22.984 229.119 20.744C229.791 19.752 230.479 18.872 231.183 18.104C231.887 17.336 232.591 16.648 233.295 16.04C234.223 15.272 235.071 14.888 235.839 14.888C236.319 14.888 236.719 15.096 237.039 15.512C237.359 15.896 237.519 16.328 237.519 16.808C237.519 17.032 237.455 17.144 237.327 17.144C237.327 17.144 237.215 17.032 236.991 16.808C236.767 16.584 236.399 16.472 235.887 16.472C235.151 16.472 234.511 16.648 233.967 17C232.559 17.992 231.263 19.256 230.079 20.792C228.703 22.584 228.015 24.2 228.015 25.64C228.015 26.376 228.271 26.744 228.783 26.744C229.615 26.744 230.927 25.512 232.719 23.048C233.487 21.96 234.111 21 234.591 20.168C235.103 19.304 235.471 18.568 235.695 17.96C235.919 17.736 236.175 17.624 236.463 17.624C236.623 17.624 236.719 17.688 236.751 17.816C236.527 18.232 236.415 18.984 236.415 20.072C236.415 21.448 236.575 22.68 236.895 23.768C237.375 25.464 238.063 26.312 238.959 26.312C239.535 26.312 240.143 25.816 240.783 24.824L241.791 23.288C241.823 23.32 241.839 23.352 241.839 23.384C241.839 23.896 241.359 24.76 240.399 25.976C239.439 27.16 238.703 27.752 238.191 27.752C237.359 27.752 236.591 26.824 235.887 24.968C235.343 23.432 235.071 22.136 235.071 21.08C231.935 25.752 229.631 28.088 228.159 28.088ZM250.447 31.496C249.295 31.496 248.719 30.04 248.719 27.128C248.719 26.776 248.735 26.152 248.767 25.256C248.831 24.36 248.927 23.208 249.055 21.8C248.511 22.92 247.423 24.392 245.791 26.216C243.935 28.328 242.591 29.384 241.759 29.384C240.831 29.384 240.367 28.824 240.367 27.704C240.367 26.168 241.151 24.28 242.719 22.04C243.391 21.048 244.079 20.168 244.783 19.4C245.487 18.632 246.191 17.944 246.895 17.336C247.823 16.536 248.703 16.136 249.535 16.136C249.663 14.248 249.759 12.536 249.823 11C249.887 9.464 249.919 8.136 249.919 7.016C249.919 3.72 249.279 2.072 247.999 2.072C247.903 2.072 247.743 2.104 247.519 2.168C247.295 2.232 247.135 2.264 247.039 2.264C246.879 2.264 246.799 2.184 246.799 2.024C246.799 1.8 247.343 1.496 248.431 1.112C249.487 0.695998 250.223 0.487998 250.639 0.487998C251.407 0.487998 251.791 1.144 251.791 2.456C251.791 3.064 251.695 4.552 251.503 6.92C251.311 9.256 251.007 12.504 250.591 16.664C250.943 17.112 251.119 17.592 251.119 18.104C251.119 18.328 251.055 18.44 250.927 18.44C250.991 18.44 250.847 18.28 250.495 17.96C250.367 19.144 250.271 20.344 250.207 21.56C250.175 22.776 250.159 23.992 250.159 25.208C250.159 28.44 250.671 30.056 251.695 30.056C252.367 30.056 253.071 29.496 253.807 28.376C253.903 28.376 253.951 28.472 253.951 28.664C253.951 29.08 253.487 29.656 252.559 30.392C251.631 31.128 250.927 31.496 250.447 31.496ZM242.383 28.04C243.311 28.04 244.607 26.84 246.271 24.44C247.423 22.744 248.431 21.064 249.295 19.4L249.391 17.768C248.623 17.8 248.015 17.976 247.567 18.296C246.223 19.192 244.943 20.44 243.727 22.04C242.319 23.928 241.615 25.544 241.615 26.888C241.615 27.656 241.871 28.04 242.383 28.04ZM254.128 28.088C253.2 28.088 252.736 27.512 252.736 26.36C252.736 24.856 253.52 22.984 255.088 20.744C255.76 19.752 256.448 18.872 257.152 18.104C257.856 17.336 258.56 16.648 259.264 16.04C260.192 15.272 261.04 14.888 261.808 14.888C262.288 14.888 262.688 15.096 263.008 15.512C263.328 15.896 263.488 16.328 263.488 16.808C263.488 17.032 263.424 17.144 263.296 17.144C263.296 17.144 263.184 17.032 262.96 16.808C262.736 16.584 262.368 16.472 261.856 16.472C261.12 16.472 260.48 16.648 259.936 17C258.528 17.992 257.232 19.256 256.048 20.792C254.672 22.584 253.984 24.2 253.984 25.64C253.984 26.376 254.24 26.744 254.752 26.744C255.584 26.744 256.896 25.512 258.688 23.048C259.456 21.96 260.08 21 260.56 20.168C261.072 19.304 261.44 18.568 261.664 17.96C261.888 17.736 262.144 17.624 262.432 17.624C262.592 17.624 262.688 17.688 262.72 17.816C262.496 18.232 262.384 18.984 262.384 20.072C262.384 21.448 262.544 22.68 262.864 23.768C263.344 25.464 264.032 26.312 264.928 26.312C265.504 26.312 266.112 25.816 266.752 24.824L267.76 23.288C267.792 23.32 267.808 23.352 267.808 23.384C267.808 23.896 267.328 24.76 266.368 25.976C265.408 27.16 264.672 27.752 264.16 27.752C263.328 27.752 262.56 26.824 261.856 24.968C261.312 23.432 261.04 22.136 261.04 21.08C257.904 25.752 255.6 28.088 254.128 28.088Z" fill="black"/>
</svg>
