<svg width="529" height="407" viewBox="0 0 529 407" fill="none" xmlns="http://www.w3.org/2000/svg">
<path d="M528.003 406V57.5115L444.055 82.3149L409.232 154.555L373.6 172.132L268.5 290.5L213.021 318.107L172.623 326.009L155.834 381.197L103.91 406H528.003Z" stroke="#16346C" stroke-width="2"/>
<path d="M313.897 318.621L276.85 304.351L228.461 225.318V181.41C239.092 156.652 267.832 103.475 299.212 85.9119L340.269 81.1553L383.893 120.672L372.162 145.553L376.928 227.879L313.897 318.621Z" fill="white"/>
<path d="M299.212 85.9119C310.698 147.87 324.162 281.153 313.897 318.621M299.212 85.9119C267.832 103.475 239.092 156.652 228.461 181.41V225.318L276.85 304.351L313.897 318.621M299.212 85.9119L340.269 81.1553L383.893 120.672L372.162 145.553L376.928 227.879L313.897 318.621" stroke="#E5E4E2" stroke-width="5"/>
<path d="M467.477 308L450.792 301.69L429 266.744V247.33C433.788 236.382 446.731 212.869 460.863 205.103L479.354 203L499 220.473L493.717 231.475L495.863 267.877L467.477 308Z" fill="white"/>
<path d="M460.863 205.103C466.036 232.499 472.099 291.433 467.477 308M460.863 205.103C446.731 212.869 433.788 236.382 429 247.33V266.744L450.792 301.69L467.477 308M460.863 205.103L479.354 203L499 220.473L493.717 231.475L495.863 267.877L467.477 308" stroke="#E5E4E2" stroke-width="5"/>
<path d="M278.924 369.592L264.531 375.3L229.996 365.592L218.557 353.116C215.17 343.279 209.598 320.595 214.066 307.335L224.658 295.164L247.525 294.898L250.626 305.06L273.448 327.198L278.924 369.592Z" fill="white"/>
<path d="M214.066 307.335C233.517 321.914 272.121 356.241 278.924 369.592M214.066 307.335C209.598 320.595 215.17 343.279 218.557 353.116L229.996 365.592L264.531 375.3L278.924 369.592M214.066 307.335L224.658 295.164L247.525 294.898L250.626 305.06L273.448 327.198L278.924 369.592" stroke="#E5E4E2" stroke-width="5"/>
<path d="M188.467 22.2585L2 209.004L22.7186 228.158L211.406 45.0953C221.173 13.5658 200.183 16.7335 188.467 22.2585Z" fill="white" stroke="#16346C" stroke-width="2"/>
<path d="M120.761 2L71.5547 51.3569C113.608 67.8092 202.082 112.353 219.545 158.911L233.604 150.439C225.02 73.236 154.799 19.3118 120.761 2Z" fill="white" stroke="#16346C" stroke-width="2"/>
</svg>
