<svg width="650" height="306" viewBox="0 0 650 306" fill="none" xmlns="http://www.w3.org/2000/svg">
<g opacity="0.2">
<path d="M0 153V306H17.1054H34.2109V233.341V160.611L37.1432 161.105C43.9854 162.232 68.0726 165.051 76.7999 165.756C81.9665 166.179 86.2952 166.602 86.365 166.743C86.5046 166.813 96.1395 185.277 107.869 207.688C119.598 230.099 132.934 255.399 137.472 263.997C142.01 272.595 148.782 285.492 152.622 292.821L159.465 306H196.678H233.891V251.1V196.201L240.733 188.519C244.433 184.291 255.534 171.746 265.309 160.611C275.083 149.476 283.252 140.385 283.461 140.385C283.671 140.385 285.696 143.768 288 147.926C290.234 152.154 293.376 157.933 294.981 160.823C296.587 163.712 299.869 169.773 302.312 174.213C304.756 178.653 308.387 185.348 310.411 189.012C312.366 192.677 318.371 203.601 323.607 213.326C337.85 239.472 341.271 245.815 344.901 252.439C346.717 255.752 350.277 262.235 352.791 266.887C355.304 271.538 359.214 278.656 361.448 282.743C363.682 286.831 367.383 293.737 369.687 298.107L373.876 306H446.487C530.338 306 530.897 305.93 550.097 299.657C577.326 290.778 600.924 273.018 619.077 247.859C638.417 220.937 649.308 185.771 649.308 149.899C649.308 124.387 644.281 101.977 633.948 81.1866C615.516 44.0465 580.956 17.6891 535.994 6.48367C513.023 0.775238 511.557 0.634277 460.66 0.352386L415.418 3.05176e-05V152.789C415.418 251.382 415.208 305.366 414.72 304.872C414.37 304.52 412.206 300.855 409.972 296.838C403.828 285.774 382.533 247.295 375.621 234.821C372.27 228.83 364.171 214.031 357.469 202.05C350.836 189.999 341.061 172.451 335.825 162.937C330.589 153.423 322.28 138.412 317.323 129.462C312.366 120.582 308.387 112.971 308.387 112.548C308.387 112.054 317.323 101.624 328.215 89.2911C339.107 76.9581 350.696 63.7794 353.978 60.0442C357.259 56.2386 369.966 41.7914 382.184 27.9079C394.472 14.0244 404.945 2.04379 405.504 1.33905C406.481 0.211456 406.272 0.140961 401.733 0.140961H396.846L387.49 11.9102C371.991 31.4316 357.818 48.416 345.949 61.8061C339.805 68.7831 323.118 87.6702 308.945 103.738C294.772 119.807 280.32 136.157 276.899 140.033C273.408 143.979 262.376 156.453 252.392 167.8L234.24 188.449L234.03 94.2948L233.891 0.140961H216.785H199.68V152.436C199.68 261.883 199.47 304.661 198.912 304.45C198.493 304.309 194.443 297.261 189.975 288.734C185.437 280.206 177.757 265.618 172.87 256.316C167.913 247.013 161.769 235.455 159.185 230.592C156.602 225.73 148.433 210.366 141.033 196.412C133.632 182.458 126.371 168.786 124.905 165.967L122.182 160.964L125.882 159.695C142.987 153.987 161.699 140.244 171.543 126.149C182.714 110.081 187.601 89.0092 185.018 68.0783C180.759 33.9687 156.881 12.4035 113.734 3.73517C99.0021 0.775238 96.4188 0.634277 47.6858 0.352386L0 0.0704956V153ZM85.1781 6.76556C100.817 9.51407 113.245 14.2358 122.461 20.8604C124.905 22.6223 129.233 26.6393 132.235 29.8107C144.942 43.4827 151.017 65.6117 148.782 90.3482C146.967 110.786 140.823 125.374 128.884 138.13C122.601 144.755 115.2 150.04 104.937 155.044L96.6981 159.061L78.5454 158.99C62.6268 158.99 50.4785 158.356 37.9112 156.876L34.2109 156.453V80.6932V4.93323L56.413 5.28561C72.6108 5.49704 80.2908 5.91986 85.1781 6.76556ZM499.13 6.20178C515.188 8.52744 528.383 12.6854 541.788 19.5919C555.194 26.4279 564.2 33.2639 575.231 44.9627C586.821 57.1548 595.967 72.4477 602.391 90.0663C616.494 128.827 617.192 185.348 604.136 224.954C597.783 244.335 588.986 259.135 576.418 271.89C562.524 285.915 548.701 293.737 527.615 299.446L520.494 301.419H485.236H449.978L449.768 153.211L449.629 5.07419H470.644C486.004 5.07419 493.684 5.35608 499.13 6.20178Z" fill="#16346C"/>
</g>
<path d="M462.555 161.181L486.224 154.281C505.708 148.6 520.899 133.293 526.43 113.765L532.935 90.8008L538.863 113.103C544.239 133.328 559.938 149.185 580.108 154.763L603.315 161.181L581.97 166.25C560.475 171.354 543.641 188.052 538.362 209.504L532.935 231.561L526.288 207.596C520.535 186.853 503.93 170.897 482.974 165.976L462.555 161.181Z" fill="#16346C"/>
</svg>
