<svg width="49" height="38" viewBox="0 0 49 38" fill="none" xmlns="http://www.w3.org/2000/svg">
<path d="M4.03106 24.9331L1.96518 24.4479L4.68005 23.6564C8.58284 22.5187 11.6255 19.4526 12.7334 15.5412L13.4847 12.8888L14.1539 15.4064C15.2307 19.4575 18.3752 22.6336 22.4153 23.7509L24.991 24.4632L22.7902 24.9858C18.4849 26.0082 15.113 29.3528 14.0556 33.6497L13.4711 36.025L12.7068 33.2695C11.5545 29.1147 8.22849 25.9188 4.03106 24.9331Z" stroke="white"/>
<path d="M22 13.5L26.5401 12.1764C30.2776 11.0868 33.1914 8.15067 34.2523 4.40497L35.5 0L36.6371 4.278C37.6684 8.15746 40.6797 11.199 44.5486 12.269L49 13.5L44.9057 14.4723C40.7828 15.4514 37.5537 18.6543 36.5411 22.7691L35.5 27L34.225 22.4031C33.1215 18.4243 29.9364 15.3638 25.9168 14.4198L22 13.5Z" fill="white"/>
</svg>
