<svg width="320" height="47" viewBox="0 0 320 47" fill="none" xmlns="http://www.w3.org/2000/svg">
<path d="M12.968 31.688C9.352 31.688 6.312 30.52 3.848 28.184C1.352 25.816 0.104 22.872 0.104 19.352C0.104 14.2 2.28 9.88 6.632 6.392C10.696 3.096 15.352 1.448 20.6 1.448C23.992 1.448 26.04 2.648 26.744 5.048C26.776 5.144 26.792 5.24 26.792 5.336C26.824 5.432 26.84 5.528 26.84 5.624C26.84 5.912 26.76 6.088 26.6 6.152L25.304 4.568C24.248 3.608 22.696 3.128 20.648 3.128C16.072 3.128 11.832 4.904 7.928 8.456C3.896 12.104 1.88 16.184 1.88 20.696C1.88 24.056 3.08 26.6 5.48 28.328C7.528 29.8 10.312 30.536 13.832 30.536C16.36 30.536 18.68 30.072 20.792 29.144C23.32 27.992 24.808 26.328 25.256 24.152C25.448 23.128 25.544 21.208 25.544 18.392C25.544 18.072 25.72 17.752 26.072 17.432C26.456 17.112 26.808 16.952 27.128 16.952C27.416 16.952 27.624 17.064 27.752 17.288C27.528 18.184 27.352 19.352 27.224 20.792C27.128 22.232 27.08 23.944 27.08 25.928C27.08 26.28 27.096 26.792 27.128 27.464C27.192 28.136 27.224 28.648 27.224 29C27.224 29.48 27.064 29.72 26.744 29.72C26.04 29.72 25.512 29 25.16 27.56C21.832 30.312 17.768 31.688 12.968 31.688ZM29.1553 32.072C29.1233 32.04 29.1073 32.008 29.1073 31.976C29.1393 31.816 29.1873 31.544 29.2513 31.16C29.3153 30.776 29.3793 30.28 29.4433 29.672C30.0513 25.256 30.4993 21.144 30.7873 17.336C31.0753 13.528 31.2193 10.024 31.2193 6.824C31.2193 3.656 30.5953 2.072 29.3473 2.072C29.2513 2.072 29.0913 2.104 28.8673 2.168C28.6433 2.232 28.4832 2.264 28.3872 2.264C28.2272 2.264 28.1472 2.184 28.1472 2.024C28.1472 1.8 28.7072 1.496 29.8273 1.112C30.8833 0.695998 31.6193 0.487998 32.0353 0.487998C32.7713 0.487998 33.1393 1.144 33.1393 2.456C33.1393 3.416 33.1073 4.472 33.0433 5.624C32.9793 6.776 32.8833 8.008 32.7553 9.32L31.4593 23.768L35.7313 18.152C36.0833 17.672 36.6913 16.68 37.5553 15.176C38.0033 14.44 38.6913 14.072 39.6193 14.072C40.0353 14.072 40.2913 14.168 40.3873 14.36C40.3553 14.392 40.3073 14.424 40.2433 14.456C40.2113 14.488 40.1473 14.52 40.0513 14.552C39.1553 14.936 38.4033 16.344 37.7953 18.776C37.2833 20.696 37.0273 22.376 37.0273 23.816C37.0273 26.216 37.6033 27.416 38.7553 27.416C39.1393 27.416 39.5873 27.112 40.0993 26.504L40.9153 25.592C40.9473 25.624 40.9633 25.656 40.9633 25.688C40.9633 26.104 40.5793 26.776 39.8113 27.704C39.1073 28.6 38.5473 29.048 38.1313 29.048C36.5953 29.048 35.8273 27.464 35.8273 24.296C35.8273 21.512 35.8913 19.88 36.0193 19.4C35.7953 19.624 35.5073 19.944 35.1553 20.36C34.8353 20.744 34.4193 21.24 33.9073 21.848C31.8913 24.344 30.8033 27.352 30.6433 30.872C29.9393 31.608 29.4433 32.008 29.1553 32.072ZM41.9713 28.088C41.0433 28.088 40.5793 27.512 40.5793 26.36C40.5793 24.856 41.3633 22.984 42.9313 20.744C43.6033 19.752 44.2913 18.872 44.9953 18.104C45.6993 17.336 46.4033 16.648 47.1073 16.04C48.0353 15.272 48.8833 14.888 49.6513 14.888C50.1313 14.888 50.5313 15.096 50.8513 15.512C51.1713 15.896 51.3313 16.328 51.3313 16.808C51.3313 17.032 51.2673 17.144 51.1393 17.144C51.1393 17.144 51.0273 17.032 50.8033 16.808C50.5793 16.584 50.2113 16.472 49.6993 16.472C48.9633 16.472 48.3233 16.648 47.7793 17C46.3713 17.992 45.0753 19.256 43.8913 20.792C42.5153 22.584 41.8273 24.2 41.8273 25.64C41.8273 26.376 42.0833 26.744 42.5953 26.744C43.4273 26.744 44.7393 25.512 46.5312 23.048C47.2993 21.96 47.9233 21 48.4033 20.168C48.9153 19.304 49.2833 18.568 49.5073 17.96C49.7313 17.736 49.9873 17.624 50.2753 17.624C50.4353 17.624 50.5313 17.688 50.5633 17.816C50.3393 18.232 50.2273 18.984 50.2273 20.072C50.2273 21.448 50.3873 22.68 50.7073 23.768C51.1873 25.464 51.8753 26.312 52.7713 26.312C53.3473 26.312 53.9553 25.816 54.5953 24.824L55.6033 23.288C55.6353 23.32 55.6513 23.352 55.6513 23.384C55.6513 23.896 55.1713 24.76 54.2113 25.976C53.2513 27.16 52.5153 27.752 52.0033 27.752C51.1713 27.752 50.4033 26.824 49.6993 24.968C49.1553 23.432 48.8833 22.136 48.8833 21.08C45.7473 25.752 43.4433 28.088 41.9713 28.088ZM54.6118 30.44C54.5478 30.376 54.5158 30.328 54.5158 30.296C54.5478 30.072 54.5958 29.672 54.6598 29.096C54.7558 28.52 54.8678 27.736 54.9958 26.744C55.2518 24.824 55.4438 23.144 55.5718 21.704C55.6998 20.264 55.7638 19.064 55.7638 18.104C55.7638 17.112 55.6838 16.344 55.5238 15.8C55.3958 15.672 55.1398 15.608 54.7558 15.608C54.5638 15.608 54.2758 15.656 53.8918 15.752C53.5077 15.848 53.2357 15.896 53.0757 15.896C52.9157 15.896 52.8357 15.848 52.8357 15.752C52.8357 15.624 53.2837 15.368 54.1798 14.984C55.7158 14.152 56.4838 13.72 56.4838 13.688C57.0918 13.688 57.3958 14.6 57.3958 16.424C57.3958 17.224 57.2518 18.44 56.9638 20.072C56.8358 20.872 56.7398 21.576 56.6758 22.184C56.6118 22.76 56.5798 23.256 56.5798 23.672V23.816C56.8678 23.304 57.2358 22.712 57.6838 22.04C58.1638 21.336 58.7078 20.568 59.3158 19.736C60.6278 18.008 61.6358 16.808 62.3398 16.136C62.4678 16.008 62.7878 15.832 63.2998 15.608C63.8438 15.384 64.2118 15.272 64.4038 15.272C64.4998 15.272 64.5478 15.304 64.5478 15.368C63.7798 16.84 63.2998 17.944 63.1078 18.68C62.8518 19.64 62.7238 20.872 62.7238 22.376C62.7238 25 63.2838 26.312 64.4038 26.312C64.7878 26.312 65.2358 26.008 65.7478 25.4C65.8118 25.272 65.9078 25.144 66.0358 25.016C66.1958 24.856 66.3558 24.664 66.5157 24.44L66.5638 24.632C66.5638 24.984 66.1958 25.624 65.4598 26.552C64.7558 27.448 64.1958 27.896 63.7798 27.896C62.2118 27.896 61.4278 26.232 61.4278 22.904C61.4278 21.976 61.4438 21.096 61.4758 20.264C61.5398 19.432 61.6358 18.648 61.7638 17.912C60.9638 18.68 60.2278 19.496 59.5558 20.36C58.9158 21.224 58.3238 22.136 57.7798 23.096C56.4678 25.432 55.8758 27.48 56.0038 29.24C55.8438 29.432 55.6358 29.624 55.3798 29.816C55.1558 30.008 54.8998 30.216 54.6118 30.44ZM70.4394 30.68C68.9354 30.68 67.9114 29.976 67.3674 28.568C67.2394 28.28 67.1754 28.04 67.1754 27.848C67.1754 27.624 67.2874 27.512 67.5114 27.512C67.6394 27.512 67.7354 27.592 67.7994 27.752C68.2474 29.16 69.0634 29.864 70.2474 29.864C71.5274 29.864 72.1674 29.24 72.1674 27.992C72.1674 27.288 71.6074 26.088 70.4874 24.392C69.3674 22.696 68.8074 21.304 68.8074 20.216C68.8074 18.776 69.4794 17.32 70.8234 15.848C72.1674 14.376 73.5434 13.64 74.9514 13.64C76.0074 13.64 76.5354 14.12 76.5354 15.08C76.5354 15.4 76.2954 15.88 75.8154 16.52C75.3674 17.16 75.0154 17.48 74.7594 17.48C74.7274 17.448 74.7114 17.416 74.7114 17.384C74.7114 17.352 74.8394 17.144 75.0954 16.76C75.3514 16.376 75.4794 16.072 75.4794 15.848C75.4794 15.624 75.3194 15.512 74.9994 15.512C73.9754 15.512 72.9034 16.024 71.7834 17.048C70.6954 18.04 70.1514 19.064 70.1514 20.12C70.1514 21.08 70.7434 22.344 71.9274 23.912C73.1434 25.512 73.7514 26.792 73.7514 27.752C73.7514 28.616 73.4154 29.32 72.7434 29.864C72.1034 30.408 71.3354 30.68 70.4394 30.68ZM77.1084 32.072C77.0764 32.04 77.0604 32.008 77.0604 31.976C77.0924 31.816 77.1404 31.544 77.2044 31.16C77.2684 30.776 77.3324 30.28 77.3964 29.672C78.0044 25.256 78.4524 21.144 78.7404 17.336C79.0284 13.528 79.1724 10.024 79.1724 6.824C79.1724 3.656 78.5484 2.072 77.3004 2.072C77.2044 2.072 77.0444 2.104 76.8204 2.168C76.5964 2.232 76.4364 2.264 76.3404 2.264C76.1804 2.264 76.1004 2.184 76.1004 2.024C76.1004 1.8 76.6604 1.496 77.7804 1.112C78.8364 0.695998 79.5724 0.487998 79.9884 0.487998C80.7244 0.487998 81.0924 1.144 81.0924 2.456C81.0924 3.416 81.0604 4.472 80.9964 5.624C80.9324 6.776 80.8364 8.008 80.7084 9.32L79.4124 23.768L83.6844 18.152C84.0364 17.672 84.6444 16.68 85.5084 15.176C85.9564 14.44 86.6444 14.072 87.5724 14.072C87.9884 14.072 88.2444 14.168 88.3404 14.36C88.3084 14.392 88.2604 14.424 88.1964 14.456C88.1644 14.488 88.1004 14.52 88.0044 14.552C87.1084 14.936 86.3564 16.344 85.7484 18.776C85.2364 20.696 84.9804 22.376 84.9804 23.816C84.9804 26.216 85.5564 27.416 86.7084 27.416C87.0924 27.416 87.5404 27.112 88.0524 26.504L88.8684 25.592C88.9004 25.624 88.9164 25.656 88.9164 25.688C88.9164 26.104 88.5324 26.776 87.7644 27.704C87.0604 28.6 86.5004 29.048 86.0844 29.048C84.5484 29.048 83.7804 27.464 83.7804 24.296C83.7804 21.512 83.8444 19.88 83.9724 19.4C83.7484 19.624 83.4604 19.944 83.1084 20.36C82.7884 20.744 82.3724 21.24 81.8604 21.848C79.8444 24.344 78.7564 27.352 78.5964 30.872C77.8924 31.608 77.3964 32.008 77.1084 32.072ZM91.6044 46.904C90.5484 46.904 89.5404 46.376 88.5804 45.32C87.6204 44.264 87.1404 43.192 87.1404 42.104C87.1404 41.816 87.1884 41.656 87.2844 41.624L87.5244 41.96C88.6764 44.392 90.1964 45.608 92.0844 45.608C95.7324 45.608 97.5564 41.016 97.5564 31.832C97.5564 31.512 97.5084 30.392 97.4124 28.472C97.3164 26.52 97.1564 23.752 96.9324 20.168C96.4204 21.448 95.3964 23.144 93.8604 25.256C92.1004 27.784 90.7884 29.048 89.9244 29.048C89.2524 29.048 88.9164 28.28 88.9164 26.744C88.9164 26.072 88.9964 25.192 89.1564 24.104C89.3164 22.984 89.5564 21.672 89.8764 20.168C89.7164 19.688 89.6364 19.256 89.6364 18.872C89.6364 17.272 90.3564 16.28 91.7964 15.896C91.9244 15.992 91.9884 16.152 91.9884 16.376C91.9884 16.6 91.9084 17.032 91.7484 17.672C91.6204 18.28 91.4284 19.112 91.1724 20.168C90.6284 22.28 90.3564 23.928 90.3564 25.112C90.3564 26.456 90.6124 27.128 91.1244 27.128C91.7964 27.128 92.8524 25.912 94.2924 23.48C95.6044 21.304 96.5644 19.048 97.1724 16.712C97.3644 15.976 97.8284 15.608 98.5644 15.608C98.9164 15.608 99.0924 15.752 99.0924 16.04C99.0924 16.168 99.0284 16.392 98.9004 16.712C98.8044 17 98.6924 17.304 98.5644 17.624C98.4364 17.912 98.3404 18.088 98.2764 18.152C98.3084 18.248 98.3564 18.648 98.4204 19.352C98.8044 22.616 98.9964 26.424 98.9964 30.776C98.9964 31.832 98.9644 32.776 98.9004 33.608C98.8684 34.44 98.8204 35.176 98.7564 35.816C98.4364 38.408 97.7804 40.712 96.7884 42.728C95.4124 45.512 93.6844 46.904 91.6044 46.904ZM102.487 28.088C101.559 28.088 101.095 27.512 101.095 26.36C101.095 24.856 101.879 22.984 103.447 20.744C104.119 19.752 104.807 18.872 105.511 18.104C106.215 17.336 106.919 16.648 107.623 16.04C108.551 15.272 109.399 14.888 110.167 14.888C110.647 14.888 111.047 15.096 111.367 15.512C111.687 15.896 111.847 16.328 111.847 16.808C111.847 17.032 111.783 17.144 111.655 17.144C111.655 17.144 111.543 17.032 111.319 16.808C111.095 16.584 110.727 16.472 110.215 16.472C109.479 16.472 108.839 16.648 108.295 17C106.887 17.992 105.591 19.256 104.407 20.792C103.031 22.584 102.343 24.2 102.343 25.64C102.343 26.376 102.599 26.744 103.111 26.744C103.943 26.744 105.255 25.512 107.047 23.048C107.815 21.96 108.439 21 108.919 20.168C109.431 19.304 109.799 18.568 110.023 17.96C110.247 17.736 110.503 17.624 110.791 17.624C110.951 17.624 111.047 17.688 111.079 17.816C110.855 18.232 110.743 18.984 110.743 20.072C110.743 21.448 110.903 22.68 111.223 23.768C111.703 25.464 112.391 26.312 113.287 26.312C113.863 26.312 114.471 25.816 115.111 24.824L116.119 23.288C116.151 23.32 116.167 23.352 116.167 23.384C116.167 23.896 115.687 24.76 114.727 25.976C113.767 27.16 113.031 27.752 112.519 27.752C111.687 27.752 110.919 26.824 110.215 24.968C109.671 23.432 109.399 22.136 109.399 21.08C106.263 25.752 103.959 28.088 102.487 28.088ZM116.087 29.048C115.831 29.048 115.703 28.712 115.703 28.04C115.703 27.528 115.751 27.016 115.847 26.504C116.263 24.328 116.567 22.456 116.759 20.888C116.983 19.32 117.095 18.072 117.095 17.144C117.095 16.28 116.967 15.72 116.711 15.464C116.487 15.208 115.943 15.08 115.079 15.08C114.887 15.08 114.631 15.128 114.311 15.224C113.959 15.288 113.703 15.32 113.543 15.32C113.415 15.32 113.351 15.288 113.351 15.224C113.351 15.128 113.783 14.872 114.647 14.456C116.343 13.592 117.223 13.16 117.287 13.16C118.087 13.16 118.487 13.976 118.487 15.608C118.487 16.056 118.391 17.016 118.199 18.488C118.007 19.96 117.735 21.928 117.383 24.392L117.191 25.688L117.239 25.784C120.215 20.472 122.135 17.816 122.999 17.816C123.479 17.816 123.687 19.88 123.623 24.008C123.847 23.72 124.279 23.128 124.919 22.232C125.591 21.336 126.487 20.152 127.607 18.68L129.479 16.904C129.735 16.648 129.927 16.52 130.055 16.52C130.119 16.52 130.151 16.568 130.151 16.664C130.151 16.76 130.103 16.904 130.007 17.096C129.239 18.76 128.855 21 128.855 23.816C128.855 26.216 129.431 27.416 130.583 27.416C131.031 27.416 131.735 26.808 132.695 25.592V25.736C132.695 26.12 132.327 26.776 131.591 27.704C130.887 28.6 130.343 29.048 129.959 29.048C128.391 29.048 127.607 27.368 127.607 24.008C127.607 22.536 127.703 21.208 127.895 20.024C126.807 20.536 125.511 22.008 124.007 24.44L123.335 25.784C123.175 26.04 122.999 26.168 122.807 26.168C122.359 26.168 122.103 25.448 122.039 24.008C122.039 23.752 122.039 23.4 122.039 22.952C122.039 22.504 122.055 21.96 122.087 21.32C122.055 20.776 121.943 20.408 121.751 20.216C120.887 20.472 119.287 23.08 116.951 28.04C116.631 28.712 116.343 29.048 116.087 29.048ZM136.155 30.296C133.979 30.296 132.891 29.704 132.891 28.52C132.891 28.168 133.003 27.992 133.227 27.992L134.187 28.904C134.091 28.232 134.043 27.496 134.043 26.696C134.043 26.248 134.043 25.88 134.043 25.592C134.043 25.272 134.059 25 134.091 24.776C134.443 19.944 134.715 16.04 134.907 13.064C135.099 10.088 135.195 8.024 135.195 6.872C135.195 3.672 134.571 2.072 133.323 2.072C133.035 2.072 132.747 2.12 132.459 2.216C132.427 2.248 132.379 2.264 132.315 2.264C132.187 2.264 132.123 2.184 132.123 2.024C132.123 1.8 132.683 1.496 133.803 1.112C134.859 0.695998 135.595 0.487998 136.011 0.487998C136.747 0.487998 137.115 1.144 137.115 2.456C137.115 4.216 136.971 6.536 136.683 9.416C136.459 11.56 136.235 13.864 136.011 16.328C135.819 18.792 135.643 21.4 135.483 24.152C135.995 22.584 136.875 21.032 138.123 19.496C139.595 17.64 141.003 16.712 142.347 16.712C143.467 16.712 144.027 17.656 144.027 19.544C144.027 22.232 143.387 24.6 142.107 26.648C140.635 29.08 138.651 30.296 136.155 30.296ZM135.771 29.48C137.659 29.48 139.275 28.488 140.619 26.504C141.835 24.648 142.443 22.744 142.443 20.792C142.443 19.096 142.059 18.248 141.291 18.248C140.427 18.248 139.435 19.016 138.315 20.552C136.619 22.92 135.771 25.096 135.771 27.08C135.771 27.24 135.787 27.464 135.819 27.752C135.851 28.008 135.867 28.216 135.867 28.376C135.867 28.888 135.755 29.256 135.531 29.48H135.771ZM144.796 32.072C144.764 32.04 144.748 32.008 144.748 31.976C144.78 31.816 144.828 31.544 144.892 31.16C144.956 30.776 145.02 30.28 145.084 29.672C145.692 25.256 146.14 21.144 146.428 17.336C146.716 13.528 146.86 10.024 146.86 6.824C146.86 3.656 146.236 2.072 144.988 2.072C144.892 2.072 144.732 2.104 144.508 2.168C144.284 2.232 144.124 2.264 144.028 2.264C143.868 2.264 143.788 2.184 143.788 2.024C143.788 1.8 144.348 1.496 145.468 1.112C146.524 0.695998 147.26 0.487998 147.676 0.487998C148.412 0.487998 148.78 1.144 148.78 2.456C148.78 3.416 148.748 4.472 148.684 5.624C148.62 6.776 148.524 8.008 148.396 9.32L147.1 23.768L151.372 18.152C151.724 17.672 152.332 16.68 153.196 15.176C153.644 14.44 154.332 14.072 155.26 14.072C155.676 14.072 155.932 14.168 156.028 14.36C155.996 14.392 155.948 14.424 155.884 14.456C155.852 14.488 155.788 14.52 155.692 14.552C154.796 14.936 154.044 16.344 153.436 18.776C152.924 20.696 152.668 22.376 152.668 23.816C152.668 26.216 153.244 27.416 154.396 27.416C154.78 27.416 155.228 27.112 155.74 26.504L156.556 25.592C156.588 25.624 156.604 25.656 156.604 25.688C156.604 26.104 156.22 26.776 155.452 27.704C154.748 28.6 154.188 29.048 153.772 29.048C152.236 29.048 151.468 27.464 151.468 24.296C151.468 21.512 151.532 19.88 151.66 19.4C151.436 19.624 151.148 19.944 150.796 20.36C150.476 20.744 150.06 21.24 149.548 21.848C147.532 24.344 146.444 27.352 146.284 30.872C145.58 31.608 145.084 32.008 144.796 32.072ZM157.612 28.088C156.684 28.088 156.22 27.512 156.22 26.36C156.22 24.856 157.004 22.984 158.572 20.744C159.244 19.752 159.932 18.872 160.636 18.104C161.34 17.336 162.044 16.648 162.748 16.04C163.676 15.272 164.524 14.888 165.292 14.888C165.772 14.888 166.172 15.096 166.492 15.512C166.812 15.896 166.972 16.328 166.972 16.808C166.972 17.032 166.908 17.144 166.78 17.144C166.78 17.144 166.668 17.032 166.444 16.808C166.22 16.584 165.852 16.472 165.34 16.472C164.604 16.472 163.964 16.648 163.42 17C162.012 17.992 160.716 19.256 159.532 20.792C158.156 22.584 157.468 24.2 157.468 25.64C157.468 26.376 157.724 26.744 158.236 26.744C159.068 26.744 160.38 25.512 162.172 23.048C162.94 21.96 163.564 21 164.044 20.168C164.556 19.304 164.924 18.568 165.148 17.96C165.372 17.736 165.628 17.624 165.916 17.624C166.076 17.624 166.172 17.688 166.204 17.816C165.98 18.232 165.868 18.984 165.868 20.072C165.868 21.448 166.028 22.68 166.348 23.768C166.828 25.464 167.516 26.312 168.412 26.312C168.988 26.312 169.596 25.816 170.236 24.824L171.244 23.288C171.276 23.32 171.292 23.352 171.292 23.384C171.292 23.896 170.812 24.76 169.852 25.976C168.892 27.16 168.156 27.752 167.644 27.752C166.812 27.752 166.044 26.824 165.34 24.968C164.796 23.432 164.524 22.136 164.524 21.08C161.388 25.752 159.084 28.088 157.612 28.088ZM172.7 10.472C171.964 10.472 171.596 10.152 171.596 9.512C171.596 8.904 171.932 8.456 172.604 8.168L174.236 7.448C174.364 7.384 174.46 7.352 174.524 7.352C174.748 7.352 174.86 7.496 174.86 7.784C174.86 7.88 174.652 8.184 174.236 8.696C173.82 9.208 173.58 9.592 173.516 9.848C173.388 10.264 173.116 10.472 172.7 10.472ZM173.852 29.72C172.86 29.72 172.364 28.616 172.364 26.408C172.364 25.64 172.412 24.568 172.508 23.192C172.604 21.752 172.652 20.664 172.652 19.928C172.652 17.72 172.06 16.616 170.876 16.616C170.748 16.616 170.556 16.648 170.3 16.712C170.076 16.776 169.916 16.808 169.82 16.808C169.66 16.808 169.58 16.744 169.58 16.616C169.58 16.36 170.124 16.072 171.212 15.752C172.332 15.368 173.052 15.176 173.372 15.176C173.852 15.176 174.092 15.88 174.092 17.288C174.092 17.64 174.06 18.104 173.996 18.68C173.964 19.256 173.916 19.912 173.852 20.648C173.788 21.384 173.74 22.04 173.708 22.616C173.676 23.16 173.66 23.608 173.66 23.96C173.66 26.904 174.14 28.376 175.1 28.376C175.836 28.376 176.636 27.864 177.5 26.84C177.596 26.84 177.644 26.92 177.644 27.08C177.644 27.496 177.132 28.04 176.108 28.712C175.116 29.384 174.364 29.72 173.852 29.72ZM220.157 29C217.917 29 216.045 22.472 214.541 9.416C213.645 11.4 212.733 13.272 211.805 15.032C210.877 16.792 209.949 18.424 209.021 19.928C205.917 25.048 203.421 27.608 201.533 27.608C199.357 27.608 197.597 24.744 196.253 19.016C195.741 16.84 195.357 14.76 195.101 12.776C194.845 10.792 194.717 8.92 194.717 7.16C194.717 4.472 195.181 3.048 196.109 2.888L196.349 6.824C196.605 10.856 197.085 14.36 197.789 17.336C199.037 22.456 200.765 25.016 202.973 25.016C204.509 25.016 206.701 22.488 209.549 17.432C211.821 13.4 213.405 10.04 214.301 7.352L213.965 4.232C213.965 2.664 214.461 1.88 215.453 1.88C216.285 1.88 216.701 2.68 216.701 4.28C216.701 5.208 216.557 5.848 216.269 6.2V7.016C216.269 8.488 216.333 10.008 216.461 11.576C216.589 13.144 216.781 14.76 217.037 16.424C217.197 17.416 217.389 18.392 217.613 19.352C217.837 20.312 218.093 21.256 218.381 22.184C219.341 25.224 220.381 26.744 221.501 26.744C221.661 26.744 221.869 26.68 222.125 26.552C222.413 26.392 222.589 26.312 222.653 26.312L222.797 26.456C222.797 26.616 222.317 27.256 221.357 28.376C221.037 28.792 220.637 29 220.157 29ZM188.429 30.152C187.661 30.152 187.277 29.08 187.277 26.936C187.277 22.904 188.797 16.328 191.837 7.208C191.965 6.856 192.141 6.344 192.365 5.672C192.621 5 192.925 4.184 193.277 3.224C193.597 2.328 194.013 1.88 194.525 1.88C194.781 1.88 194.925 2.04 194.957 2.36C193.965 4.888 193.117 7.08 192.413 8.936C191.709 10.76 191.165 12.248 190.781 13.4C189.309 17.848 188.573 21.656 188.573 24.824C188.573 25.304 188.701 26.104 188.957 27.224C189.085 27.736 189.181 28.168 189.245 28.52C189.309 28.872 189.341 29.128 189.341 29.288C189.341 29.864 189.037 30.152 188.429 30.152ZM226.809 29.24C226.361 29.24 226.137 28.84 226.137 28.04C226.137 27.528 226.377 27.032 226.857 26.552C227.369 26.072 227.881 25.832 228.393 25.832C228.553 25.832 228.633 25.864 228.633 25.928C228.633 26.216 228.537 26.632 228.345 27.176C228.185 27.72 228.105 28.104 228.105 28.328C228.105 28.936 227.673 29.24 226.809 29.24ZM245.157 30.2C243.653 30.2 242.901 28.248 242.901 24.344C242.901 24.12 242.901 23.896 242.901 23.672C242.933 23.416 242.949 23.16 242.949 22.904H242.805C242.517 22.904 242.373 22.696 242.373 22.28C242.373 21.736 242.613 21.208 243.093 20.696C243.221 14.584 243.557 10.296 244.101 7.832C243.781 7.928 243.573 7.976 243.477 7.976C243.285 7.976 243.141 7.864 243.045 7.64C243.813 3.128 244.757 0.871999 245.877 0.871999C246.453 0.871999 246.741 1.448 246.741 2.6C246.741 3.176 246.405 5.128 245.733 8.456C245.477 9.832 245.221 11.464 244.965 13.352C244.741 15.208 244.533 17.352 244.341 19.784L249.045 15.848C248.693 14.6 248.421 13.592 248.229 12.824C248.069 12.056 247.989 11.544 247.989 11.288C247.989 11.096 248.069 11 248.229 11C248.357 11 248.437 11.064 248.469 11.192C248.597 11.64 248.757 12.2 248.949 12.872C249.173 13.544 249.429 14.344 249.717 15.272C251.893 13.416 253.829 11.752 255.525 10.28C257.221 8.808 258.629 7.512 259.749 6.392L263.877 2.312C264.101 2.088 264.373 1.976 264.693 1.976C265.269 1.976 265.557 2.184 265.557 2.6C265.557 2.792 265.413 2.984 265.125 3.176C262.597 5 260.085 7 257.589 9.176C255.125 11.32 252.709 13.656 250.341 16.184C251.173 18.712 252.309 21.064 253.749 23.24C255.701 26.152 257.621 27.608 259.509 27.608C261.397 27.608 262.757 26.232 263.589 23.48C264.165 21.592 264.453 19.4 264.453 16.904C264.453 15.752 264.405 15.064 264.309 14.84C264.405 14.744 264.485 14.696 264.549 14.696C264.773 14.696 264.965 14.952 265.125 15.464C265.285 15.944 265.365 16.328 265.365 16.616C265.365 19.336 264.885 22.04 263.925 24.728C262.677 28.248 260.965 30.008 258.789 30.008C256.677 30.008 254.629 28.344 252.645 25.016C252.005 23.896 251.397 22.68 250.821 21.368C250.245 20.024 249.717 18.584 249.237 17.048C248.245 17.752 246.693 19.304 244.581 21.704C244.837 25.896 245.621 27.992 246.933 27.992C247.125 27.992 247.381 27.912 247.701 27.752C248.021 27.592 248.197 27.512 248.229 27.512L248.325 27.608C248.325 27.768 247.717 28.424 246.501 29.576C246.085 29.992 245.637 30.2 245.157 30.2ZM268.792 46.904C267.736 46.904 266.728 46.376 265.768 45.32C264.808 44.264 264.328 43.192 264.328 42.104C264.328 41.816 264.376 41.656 264.472 41.624L264.712 41.96C265.864 44.392 267.384 45.608 269.272 45.608C272.92 45.608 274.744 41.016 274.744 31.832C274.744 31.512 274.696 30.392 274.6 28.472C274.504 26.52 274.344 23.752 274.12 20.168C273.608 21.448 272.584 23.144 271.048 25.256C269.288 27.784 267.976 29.048 267.112 29.048C266.44 29.048 266.104 28.28 266.104 26.744C266.104 26.072 266.184 25.192 266.344 24.104C266.504 22.984 266.744 21.672 267.064 20.168C266.904 19.688 266.824 19.256 266.824 18.872C266.824 17.272 267.544 16.28 268.984 15.896C269.112 15.992 269.176 16.152 269.176 16.376C269.176 16.6 269.096 17.032 268.936 17.672C268.808 18.28 268.616 19.112 268.36 20.168C267.816 22.28 267.544 23.928 267.544 25.112C267.544 26.456 267.8 27.128 268.312 27.128C268.984 27.128 270.04 25.912 271.48 23.48C272.792 21.304 273.752 19.048 274.36 16.712C274.552 15.976 275.016 15.608 275.752 15.608C276.104 15.608 276.28 15.752 276.28 16.04C276.28 16.168 276.216 16.392 276.088 16.712C275.992 17 275.88 17.304 275.752 17.624C275.624 17.912 275.528 18.088 275.464 18.152C275.496 18.248 275.544 18.648 275.608 19.352C275.992 22.616 276.184 26.424 276.184 30.776C276.184 31.832 276.152 32.776 276.088 33.608C276.056 34.44 276.008 35.176 275.944 35.816C275.624 38.408 274.968 40.712 273.976 42.728C272.6 45.512 270.872 46.904 268.792 46.904ZM279.674 28.088C278.746 28.088 278.282 27.512 278.282 26.36C278.282 24.856 279.066 22.984 280.634 20.744C281.306 19.752 281.994 18.872 282.698 18.104C283.402 17.336 284.106 16.648 284.81 16.04C285.738 15.272 286.586 14.888 287.354 14.888C287.834 14.888 288.234 15.096 288.554 15.512C288.874 15.896 289.034 16.328 289.034 16.808C289.034 17.032 288.97 17.144 288.842 17.144C288.842 17.144 288.73 17.032 288.506 16.808C288.282 16.584 287.914 16.472 287.402 16.472C286.666 16.472 286.026 16.648 285.482 17C284.074 17.992 282.778 19.256 281.594 20.792C280.218 22.584 279.53 24.2 279.53 25.64C279.53 26.376 279.786 26.744 280.298 26.744C281.13 26.744 282.442 25.512 284.234 23.048C285.002 21.96 285.626 21 286.106 20.168C286.618 19.304 286.986 18.568 287.21 17.96C287.434 17.736 287.69 17.624 287.978 17.624C288.138 17.624 288.234 17.688 288.266 17.816C288.042 18.232 287.93 18.984 287.93 20.072C287.93 21.448 288.09 22.68 288.41 23.768C288.89 25.464 289.578 26.312 290.474 26.312C291.05 26.312 291.658 25.816 292.298 24.824L293.306 23.288C293.338 23.32 293.354 23.352 293.354 23.384C293.354 23.896 292.874 24.76 291.914 25.976C290.954 27.16 290.218 27.752 289.706 27.752C288.874 27.752 288.106 26.824 287.402 24.968C286.858 23.432 286.586 22.136 286.586 21.08C283.45 25.752 281.146 28.088 279.674 28.088ZM301.963 31.496C300.811 31.496 300.235 30.04 300.235 27.128C300.235 26.776 300.251 26.152 300.283 25.256C300.347 24.36 300.443 23.208 300.571 21.8C300.027 22.92 298.939 24.392 297.307 26.216C295.451 28.328 294.107 29.384 293.275 29.384C292.347 29.384 291.883 28.824 291.883 27.704C291.883 26.168 292.667 24.28 294.235 22.04C294.907 21.048 295.595 20.168 296.299 19.4C297.003 18.632 297.707 17.944 298.411 17.336C299.339 16.536 300.219 16.136 301.051 16.136C301.179 14.248 301.275 12.536 301.339 11C301.403 9.464 301.435 8.136 301.435 7.016C301.435 3.72 300.795 2.072 299.515 2.072C299.419 2.072 299.259 2.104 299.035 2.168C298.811 2.232 298.651 2.264 298.555 2.264C298.395 2.264 298.315 2.184 298.315 2.024C298.315 1.8 298.859 1.496 299.947 1.112C301.003 0.695998 301.739 0.487998 302.155 0.487998C302.923 0.487998 303.307 1.144 303.307 2.456C303.307 3.064 303.211 4.552 303.019 6.92C302.827 9.256 302.523 12.504 302.107 16.664C302.459 17.112 302.635 17.592 302.635 18.104C302.635 18.328 302.571 18.44 302.443 18.44C302.507 18.44 302.363 18.28 302.011 17.96C301.883 19.144 301.787 20.344 301.723 21.56C301.691 22.776 301.675 23.992 301.675 25.208C301.675 28.44 302.187 30.056 303.211 30.056C303.883 30.056 304.587 29.496 305.323 28.376C305.419 28.376 305.467 28.472 305.467 28.664C305.467 29.08 305.003 29.656 304.075 30.392C303.147 31.128 302.443 31.496 301.963 31.496ZM293.899 28.04C294.827 28.04 296.123 26.84 297.787 24.44C298.939 22.744 299.947 21.064 300.811 19.4L300.907 17.768C300.139 17.8 299.531 17.976 299.083 18.296C297.739 19.192 296.459 20.44 295.243 22.04C293.835 23.928 293.131 25.544 293.131 26.888C293.131 27.656 293.387 28.04 293.899 28.04ZM305.643 28.088C304.715 28.088 304.251 27.512 304.251 26.36C304.251 24.856 305.035 22.984 306.603 20.744C307.275 19.752 307.963 18.872 308.667 18.104C309.371 17.336 310.075 16.648 310.779 16.04C311.707 15.272 312.555 14.888 313.323 14.888C313.803 14.888 314.203 15.096 314.523 15.512C314.843 15.896 315.003 16.328 315.003 16.808C315.003 17.032 314.939 17.144 314.811 17.144C314.811 17.144 314.699 17.032 314.475 16.808C314.251 16.584 313.883 16.472 313.371 16.472C312.635 16.472 311.995 16.648 311.451 17C310.043 17.992 308.747 19.256 307.563 20.792C306.187 22.584 305.499 24.2 305.499 25.64C305.499 26.376 305.755 26.744 306.267 26.744C307.099 26.744 308.411 25.512 310.203 23.048C310.971 21.96 311.595 21 312.075 20.168C312.587 19.304 312.955 18.568 313.179 17.96C313.403 17.736 313.659 17.624 313.947 17.624C314.107 17.624 314.203 17.688 314.235 17.816C314.011 18.232 313.899 18.984 313.899 20.072C313.899 21.448 314.059 22.68 314.379 23.768C314.859 25.464 315.547 26.312 316.443 26.312C317.019 26.312 317.627 25.816 318.267 24.824L319.275 23.288C319.307 23.32 319.323 23.352 319.323 23.384C319.323 23.896 318.843 24.76 317.883 25.976C316.923 27.16 316.187 27.752 315.675 27.752C314.843 27.752 314.075 26.824 313.371 24.968C312.827 23.432 312.555 22.136 312.555 21.08C309.419 25.752 307.115 28.088 305.643 28.088Z" fill="black"/>
</svg>
