<svg width="136" height="43" viewBox="0 0 136 43" fill="none" xmlns="http://www.w3.org/2000/svg">
<g clip-path="url(#clip0_1757_1769)">
<mask id="mask0_1757_1769" style="mask-type:luminance" maskUnits="userSpaceOnUse" x="0" y="-7" width="136" height="60">
<path d="M135.143 -6.14258H0.000244141V52.2146H135.143V-6.14258Z" fill="white"/>
</mask>
<g mask="url(#mask0_1757_1769)">
<path d="M110.138 7.50699C109.358 7.43817 108.561 7.43817 107.785 7.50699L107.149 0.369418C108.346 0.263579 109.572 0.263579 110.773 0.369418L110.138 7.50699Z" fill="#CCA15B"/>
</g>
<mask id="mask1_1757_1769" style="mask-type:luminance" maskUnits="userSpaceOnUse" x="0" y="-7" width="136" height="60">
<path d="M135.143 -6.14258H0.000244141V52.2146H135.143V-6.14258Z" fill="white"/>
</mask>
<g mask="url(#mask1_1757_1769)">
<path d="M110.138 33.8389C109.358 33.9088 108.561 33.9081 107.785 33.8392L107.149 40.9764C108.346 41.0826 109.572 41.0826 110.773 40.9764L110.138 33.8389Z" fill="#CCA15B"/>
</g>
<mask id="mask2_1757_1769" style="mask-type:luminance" maskUnits="userSpaceOnUse" x="0" y="-7" width="136" height="60">
<path d="M135.143 -6.14258H0.000244141V52.2146H135.143V-6.14258Z" fill="white"/>
</mask>
<g mask="url(#mask2_1757_1769)">
<path d="M96.9541 26.2402C97.2851 26.9493 97.6829 27.6356 98.1313 28.2721L92.2471 32.3897C91.5559 31.4084 90.9423 30.3504 90.4338 29.2609L96.9541 26.2402Z" fill="#CCA15B"/>
</g>
<mask id="mask3_1757_1769" style="mask-type:luminance" maskUnits="userSpaceOnUse" x="0" y="-7" width="136" height="60">
<path d="M135.143 -6.14258H0.000244141V52.2146H135.143V-6.14258Z" fill="white"/>
</mask>
<g mask="url(#mask3_1757_1769)">
<path d="M119.836 13.0743C120.286 13.7138 120.684 14.4012 121.013 15.1058L127.533 12.0862C127.026 10.9994 126.413 9.94099 125.721 8.95703L119.836 13.0743Z" fill="#CCA15B"/>
</g>
<mask id="mask4_1757_1769" style="mask-type:luminance" maskUnits="userSpaceOnUse" x="0" y="-7" width="136" height="60">
<path d="M135.143 -6.14258H0.000244141V52.2146H135.143V-6.14258Z" fill="white"/>
</mask>
<g mask="url(#mask4_1757_1769)">
<path d="M119.836 28.2721C120.286 27.6326 120.684 26.9448 121.013 26.2402L127.533 29.2602C127.026 30.3466 126.413 31.4046 125.721 32.389L119.836 28.2721Z" fill="#CCA15B"/>
</g>
<mask id="mask5_1757_1769" style="mask-type:luminance" maskUnits="userSpaceOnUse" x="0" y="-7" width="136" height="60">
<path d="M135.143 -6.14258H0.000244141V52.2146H135.143V-6.14258Z" fill="white"/>
</mask>
<g mask="url(#mask5_1757_1769)">
<path d="M96.9541 15.1065C97.2851 14.3978 97.6829 13.7108 98.1313 13.075L92.2471 8.95703C91.5559 9.938 90.9423 10.9964 90.4338 12.0862L96.9541 15.1065Z" fill="#CCA15B"/>
</g>
<mask id="mask6_1757_1769" style="mask-type:luminance" maskUnits="userSpaceOnUse" x="0" y="-7" width="136" height="60">
<path d="M135.143 -6.14258H0.000244141V52.2146H135.143V-6.14258Z" fill="white"/>
</mask>
<g mask="url(#mask6_1757_1769)">
<path d="M98.7567 38.3254C100.061 39.0742 101.441 39.6983 102.643 40.048L104.866 33.2332C104.102 33.0066 103.209 32.6038 102.355 32.1139C101.503 31.6224 100.707 31.0529 100.128 30.5068L95.3167 35.8324C96.2222 36.6956 97.4549 37.5752 98.7567 38.3254Z" fill="#CCA15B"/>
</g>
<mask id="mask7_1757_1769" style="mask-type:luminance" maskUnits="userSpaceOnUse" x="0" y="-7" width="136" height="60">
<path d="M135.143 -6.14258H0.000244141V52.2146H135.143V-6.14258Z" fill="white"/>
</mask>
<g mask="url(#mask7_1757_1769)">
<path d="M119.21 3.02021C120.512 3.77043 121.745 4.64968 122.651 5.51322L117.84 10.8384C117.261 10.2924 116.465 9.72321 115.612 9.23104C114.759 8.74111 113.866 8.33908 113.102 8.11207L115.324 1.29688C116.526 1.6473 117.907 2.27186 119.21 3.02021Z" fill="#CCA15B"/>
</g>
<mask id="mask8_1757_1769" style="mask-type:luminance" maskUnits="userSpaceOnUse" x="0" y="-7" width="136" height="60">
<path d="M135.143 -6.14258H0.000244141V52.2146H135.143V-6.14258Z" fill="white"/>
</mask>
<g mask="url(#mask8_1757_1769)">
<path d="M98.7567 3.02021C97.4549 3.77043 96.2222 4.64968 95.3167 5.51322L100.128 10.8384C100.707 10.2924 101.503 9.72321 102.355 9.23104C103.209 8.74111 104.102 8.33908 104.866 8.11207L102.643 1.29688C101.441 1.6473 100.061 2.27186 98.7567 3.02021Z" fill="#CCA15B"/>
</g>
<mask id="mask9_1757_1769" style="mask-type:luminance" maskUnits="userSpaceOnUse" x="0" y="-7" width="136" height="60">
<path d="M135.143 -6.14258H0.000244141V52.2146H135.143V-6.14258Z" fill="white"/>
</mask>
<g mask="url(#mask9_1757_1769)">
<path d="M119.21 38.3254C117.907 39.0742 116.526 39.6983 115.324 40.048L113.102 33.2332C113.866 33.0066 114.759 32.6038 115.612 32.1139C116.464 31.6224 117.261 31.0529 117.84 30.5068L122.651 35.8324C121.745 36.6956 120.512 37.5752 119.21 38.3254Z" fill="#CCA15B"/>
</g>
<mask id="mask10_1757_1769" style="mask-type:luminance" maskUnits="userSpaceOnUse" x="0" y="-7" width="136" height="60">
<path d="M135.143 -6.14258H0.000244141V52.2146H135.143V-6.14258Z" fill="white"/>
</mask>
<g mask="url(#mask10_1757_1769)">
<path d="M129.44 20.673C129.44 19.1741 129.292 17.6702 128.994 16.457L121.961 17.9466C122.146 18.72 122.243 19.6913 122.244 20.673C122.243 21.6547 122.146 22.6263 121.961 23.3994L128.994 24.889C129.291 23.6754 129.44 22.1712 129.44 20.673Z" fill="#CCA15B"/>
</g>
<mask id="mask11_1757_1769" style="mask-type:luminance" maskUnits="userSpaceOnUse" x="0" y="-7" width="136" height="60">
<path d="M135.143 -6.14258H0.000244141V52.2146H135.143V-6.14258Z" fill="white"/>
</mask>
<g mask="url(#mask11_1757_1769)">
<path d="M88.5315 20.673C88.5326 19.1741 88.6801 17.6702 88.9773 16.457L96.0102 17.9466C95.8252 18.72 95.7291 19.6913 95.7273 20.673C95.7291 21.6547 95.8252 22.6263 96.0102 23.3994L88.9773 24.889C88.6805 23.6754 88.5326 22.1712 88.5315 20.673Z" fill="#CCA15B"/>
</g>
<mask id="mask12_1757_1769" style="mask-type:luminance" maskUnits="userSpaceOnUse" x="0" y="-7" width="136" height="60">
<path d="M135.143 -6.14258H0.000244141V52.2146H135.143V-6.14258Z" fill="white"/>
</mask>
<g mask="url(#mask12_1757_1769)">
<path d="M109.572 13.9745C109.174 13.9393 108.769 13.9393 108.375 13.9745L108.051 10.3434C108.66 10.2892 109.284 10.2892 109.895 10.3434L109.572 13.9745Z" fill="#A7A9AC"/>
</g>
<mask id="mask13_1757_1769" style="mask-type:luminance" maskUnits="userSpaceOnUse" x="0" y="-7" width="136" height="60">
<path d="M135.143 -6.14258H0.000244141V52.2146H135.143V-6.14258Z" fill="white"/>
</mask>
<g mask="url(#mask13_1757_1769)">
<path d="M109.572 27.3721C109.174 27.4069 108.769 27.4069 108.375 27.3721L108.051 31.0031C108.66 31.0574 109.284 31.0577 109.895 31.0031L109.572 27.3721Z" fill="#A7A9AC"/>
</g>
<mask id="mask14_1757_1769" style="mask-type:luminance" maskUnits="userSpaceOnUse" x="0" y="-7" width="136" height="60">
<path d="M135.143 -6.14258H0.000244141V52.2146H135.143V-6.14258Z" fill="white"/>
</mask>
<g mask="url(#mask14_1757_1769)">
<path d="M102.865 23.5059C103.033 23.866 103.236 24.2157 103.464 24.5392L100.47 26.6346C100.117 26.1354 99.8049 25.5972 99.5471 25.0422L102.865 23.5059Z" fill="#A7A9AC"/>
</g>
<mask id="mask15_1757_1769" style="mask-type:luminance" maskUnits="userSpaceOnUse" x="0" y="-7" width="136" height="60">
<path d="M135.143 -6.14258H0.000244141V52.2146H135.143V-6.14258Z" fill="white"/>
</mask>
<g mask="url(#mask15_1757_1769)">
<path d="M114.508 16.8066C114.737 17.132 114.94 17.4817 115.107 17.8403L118.425 16.304C118.167 15.7509 117.854 15.2123 117.502 14.7119L114.508 16.8066Z" fill="#A7A9AC"/>
</g>
<mask id="mask16_1757_1769" style="mask-type:luminance" maskUnits="userSpaceOnUse" x="0" y="-7" width="136" height="60">
<path d="M135.143 -6.14258H0.000244141V52.2146H135.143V-6.14258Z" fill="white"/>
</mask>
<g mask="url(#mask16_1757_1769)">
<path d="M114.508 24.5396C114.737 24.2146 114.94 23.8641 115.107 23.5059L118.425 25.0418C118.167 25.595 117.854 26.1335 117.502 26.6339L114.508 24.5396Z" fill="#A7A9AC"/>
</g>
<mask id="mask17_1757_1769" style="mask-type:luminance" maskUnits="userSpaceOnUse" x="0" y="-7" width="136" height="60">
<path d="M135.143 -6.14258H0.000244141V52.2146H135.143V-6.14258Z" fill="white"/>
</mask>
<g mask="url(#mask17_1757_1769)">
<path d="M102.865 17.8407C103.033 17.4802 103.236 17.1309 103.464 16.807L100.47 14.7119C100.117 15.2108 99.8049 15.7497 99.5471 16.304L102.865 17.8407Z" fill="#A7A9AC"/>
</g>
<mask id="mask18_1757_1769" style="mask-type:luminance" maskUnits="userSpaceOnUse" x="0" y="-7" width="136" height="60">
<path d="M135.143 -6.14258H0.000244141V52.2146H135.143V-6.14258Z" fill="white"/>
</mask>
<g mask="url(#mask18_1757_1769)">
<path d="M103.782 29.6549C104.444 30.0356 105.147 30.3535 105.759 30.5311L106.89 27.0639C106.501 26.9479 106.046 26.7441 105.612 26.4947C105.179 26.2441 104.774 25.955 104.479 25.6768L102.031 28.3863C102.492 28.8254 103.119 29.2727 103.782 29.6549Z" fill="#A7A9AC"/>
</g>
<mask id="mask19_1757_1769" style="mask-type:luminance" maskUnits="userSpaceOnUse" x="0" y="-7" width="136" height="60">
<path d="M135.143 -6.14258H0.000244141V52.2146H135.143V-6.14258Z" fill="white"/>
</mask>
<g mask="url(#mask19_1757_1769)">
<path d="M114.186 11.6921C114.849 12.0735 115.476 12.5216 115.936 12.9606L113.489 15.6702C113.194 15.3916 112.789 15.1025 112.355 14.8523C111.922 14.6028 111.467 14.3979 111.078 14.2827L112.209 10.8154C112.82 10.9934 113.523 11.311 114.186 11.6921Z" fill="#A7A9AC"/>
</g>
<mask id="mask20_1757_1769" style="mask-type:luminance" maskUnits="userSpaceOnUse" x="0" y="-7" width="136" height="60">
<path d="M135.143 -6.14258H0.000244141V52.2146H135.143V-6.14258Z" fill="white"/>
</mask>
<g mask="url(#mask20_1757_1769)">
<path d="M103.782 11.6921C103.119 12.0735 102.492 12.5216 102.031 12.9606L104.479 15.6702C104.774 15.3916 105.179 15.1025 105.612 14.8523C106.046 14.6028 106.501 14.3979 106.89 14.2827L105.759 10.8154C105.147 10.9934 104.444 11.311 103.782 11.6921Z" fill="#A7A9AC"/>
</g>
<mask id="mask21_1757_1769" style="mask-type:luminance" maskUnits="userSpaceOnUse" x="0" y="-7" width="136" height="60">
<path d="M135.143 -6.14258H0.000244141V52.2146H135.143V-6.14258Z" fill="white"/>
</mask>
<g mask="url(#mask21_1757_1769)">
<path d="M114.187 29.6549C113.524 30.0356 112.821 30.3535 112.209 30.5311L111.078 27.0639C111.467 26.9479 111.922 26.7441 112.355 26.4947C112.789 26.2441 113.194 25.955 113.489 25.6768L115.936 28.3863C115.477 28.8254 114.849 29.2727 114.187 29.6549Z" fill="#A7A9AC"/>
</g>
<mask id="mask22_1757_1769" style="mask-type:luminance" maskUnits="userSpaceOnUse" x="0" y="-7" width="136" height="60">
<path d="M135.143 -6.14258H0.000244141V52.2146H135.143V-6.14258Z" fill="white"/>
</mask>
<g mask="url(#mask22_1757_1769)">
<path d="M119.392 20.6735C119.391 19.911 119.316 19.1458 119.165 18.5283L115.586 19.2864C115.681 19.6798 115.73 20.1742 115.731 20.6735C115.73 21.1728 115.681 21.6672 115.586 22.0606L119.165 22.8187C119.316 22.2013 119.391 21.4357 119.392 20.6735Z" fill="#A7A9AC"/>
</g>
<mask id="mask23_1757_1769" style="mask-type:luminance" maskUnits="userSpaceOnUse" x="0" y="-7" width="136" height="60">
<path d="M135.143 -6.14258H0.000244141V52.2146H135.143V-6.14258Z" fill="white"/>
</mask>
<g mask="url(#mask23_1757_1769)">
<path d="M98.5784 20.6735C98.5791 19.911 98.6542 19.1458 98.8058 18.5283L102.384 19.2864C102.29 19.6798 102.24 20.1742 102.239 20.6735C102.24 21.1728 102.29 21.6672 102.384 22.0606L98.8058 22.8187C98.6542 22.2013 98.5787 21.4357 98.5784 20.6735Z" fill="#A7A9AC"/>
</g>
<path d="M52.6213 32.3356H53.1914V27.9984H52.6213V32.3356ZM61.1966 31.4832L59.1439 28.0096L59.1367 27.998H58.4196V32.3356H58.9664V28.718L61.0971 32.324L61.1039 32.3356H61.7418V27.998H61.1966V31.4832ZM67.5311 27.998H66.3693V32.3356H67.5191C68.9061 32.3356 69.7339 31.5307 69.7339 30.1821V30.1275C69.7339 28.7943 68.9109 27.998 67.5311 27.998ZM69.1455 30.1758C69.1455 31.2637 68.5642 31.8628 67.5075 31.8628H66.9404V28.464H67.5007C68.8603 28.464 69.1455 29.3687 69.1455 30.1275V30.1758ZM73.7887 32.3356H74.3591V27.9984H73.7887V32.3356ZM80.3908 28.0138L80.3859 27.998H79.6661L78.1793 32.3045L78.1688 32.3356H78.7118L79.1272 31.0992H80.8707L81.2873 32.3195L81.2925 32.3356H81.8588L80.3908 28.0138ZM79.2875 30.6388L80.002 28.5257L80.7157 30.6388H79.2875Z" fill="white"/>
<path d="M15.3958 17.2796H19.5639V21.8015C18.4557 22.2481 17.1554 22.4422 15.3234 22.4422C11.4112 22.4422 8.67812 20.0505 8.67812 16.6263C8.67812 13.2017 11.4112 10.81 15.3234 10.81C17.262 10.81 19.3627 11.3037 20.6758 12.0685L21.7213 12.677V10.4802L21.3453 10.2868C19.7995 9.49022 17.6042 9.0332 15.3234 9.0332C9.74913 9.0332 5.70337 12.2263 5.70337 16.6263C5.70337 21.0259 9.74913 24.2194 15.3234 24.2194C18.0013 24.2194 20.29 23.7093 22.1281 22.7025L22.488 22.505V15.5025H15.3958V17.2796ZM29.8428 18.9783C29.8428 21.2555 29.3242 22.2066 26.1134 22.2066H25.06V23.9838H26.1134C30.5284 23.9838 32.7669 22.3461 32.7669 19.1159V9.26844H29.8428V18.9783ZM37.3268 23.9838H49.0483V22.2066H40.2513V17.2793H45.9827V15.5025H40.2513V11.0453H49.0483V9.26844H37.3268V23.9838ZM58.1996 9.26844H52.6456V23.9838H55.5697V17.6129H58.1996C62.2847 17.6129 64.7247 16.0567 64.7247 13.4508C64.7247 10.8317 62.2851 9.26844 58.1996 9.26844ZM58.1996 15.8357H55.5697V11.0453H58.1996C61.3724 11.0453 61.8003 12.2611 61.8003 13.4508C61.8006 14.6299 61.3724 15.8357 58.1996 15.8357ZM80.8222 21.2387C79.5335 21.9698 77.5604 22.4422 75.7955 22.4422C71.8976 22.4422 69.2782 20.1048 69.2782 16.6263C69.2782 13.1474 71.9073 10.81 75.821 10.81C77.5048 10.81 79.3455 11.2431 80.5115 11.9133L81.5532 12.5124V10.3414L81.1761 10.1481C79.7887 9.43973 77.8373 9.0332 75.8206 9.0332C70.3064 9.0332 66.3023 12.2263 66.3023 16.6263C66.3023 21.0259 70.2948 24.2194 75.7951 24.2194C77.9822 24.2194 80.0049 23.787 81.4909 23.0017L81.8602 22.8064V20.65L80.8222 21.2387Z" fill="white"/>
<path d="M6.82076 38.5012C6.83802 38.5442 6.86917 38.5835 6.91457 38.6186C6.95998 38.6541 7.02227 38.6867 7.10221 38.7155C7.18176 38.7446 7.28421 38.7719 7.4088 38.7977C7.6606 38.8535 7.84674 38.9309 7.96607 39.03C8.08541 39.1287 8.14545 39.2652 8.14545 39.4395C8.14545 39.536 8.12631 39.6243 8.08803 39.7035C8.04976 39.7832 7.99684 39.8513 7.92967 39.907C7.8625 39.9627 7.78144 40.0057 7.68687 40.036C7.59231 40.0659 7.48873 40.0809 7.3769 40.0809C7.19602 40.0809 7.03091 40.0517 6.88117 39.9938C6.73144 39.9358 6.58884 39.8457 6.45337 39.7237L6.61173 39.5371C6.72994 39.6445 6.84965 39.7241 6.97011 39.7768C7.09057 39.8296 7.22942 39.8558 7.38666 39.8558C7.53939 39.8558 7.66173 39.8202 7.7533 39.7495C7.84486 39.6789 7.89064 39.5854 7.89064 39.4691C7.89064 39.4152 7.88201 39.3677 7.86475 39.3254C7.84749 39.2839 7.81747 39.2454 7.77394 39.211C7.73078 39.1766 7.67111 39.1456 7.59418 39.1175C7.51725 39.0895 7.42006 39.0629 7.3011 39.0367C7.17163 39.0091 7.05868 38.9765 6.96298 38.9399C6.86691 38.9032 6.78736 38.8595 6.72506 38.8075C6.66239 38.7559 6.61586 38.696 6.58584 38.6272C6.55544 38.5584 6.54043 38.4769 6.54043 38.3822C6.54043 38.2921 6.55844 38.2095 6.59522 38.1343C6.632 38.0591 6.68341 37.994 6.75021 37.9394C6.817 37.8848 6.89581 37.8415 6.98587 37.8104C7.07631 37.779 7.17538 37.7637 7.28309 37.7637C7.44895 37.7637 7.59381 37.7865 7.71765 37.8317C7.84148 37.8774 7.96119 37.9458 8.07753 38.0374L7.92892 38.2334C7.82347 38.1478 7.71765 38.0853 7.61069 38.0468C7.50374 38.0083 7.39266 37.9892 7.27633 37.9892C7.20315 37.9892 7.13673 37.9985 7.07781 38.018C7.01852 38.0374 6.96786 38.0632 6.92583 38.0954C6.8838 38.1276 6.85153 38.1661 6.82901 38.2117C6.8065 38.2566 6.79524 38.3052 6.79524 38.3568C6.79486 38.4099 6.80349 38.4582 6.82076 38.5012Z" fill="white"/>
<path d="M10.2402 39.5819C10.1948 39.6892 10.1352 39.7797 10.0609 39.8542C9.98656 39.9282 9.90175 39.9851 9.80568 40.0247C9.70961 40.0643 9.61129 40.0842 9.50997 40.0842C9.43229 40.0842 9.36137 40.0748 9.29682 40.0554C9.23227 40.0359 9.17411 40.0101 9.12232 39.978C9.07053 39.9458 9.02363 39.908 8.9816 39.8654C8.93957 39.8224 8.90241 39.7775 8.87014 39.73V40.5636H8.62134V38.3848H8.87014V38.7195C8.90466 38.6701 8.94294 38.623 8.98497 38.5777C9.027 38.5329 9.07391 38.4936 9.1257 38.4607C9.17749 38.4278 9.2349 38.4005 9.29832 38.3799C9.36174 38.3597 9.43229 38.3496 9.5096 38.3496C9.60867 38.3496 9.70586 38.3687 9.80193 38.4072C9.898 38.4457 9.98318 38.5022 10.059 38.5762C10.1344 38.6503 10.1945 38.7408 10.2399 38.8485C10.2853 38.9562 10.3078 39.0778 10.3078 39.215C10.3078 39.3523 10.2856 39.4746 10.2402 39.5819ZM10.0061 38.9521C9.97493 38.8732 9.93215 38.8051 9.87848 38.749C9.82445 38.6926 9.76215 38.6488 9.69085 38.6189C9.61993 38.5893 9.5445 38.5744 9.46456 38.5744C9.38688 38.5744 9.31221 38.5897 9.24015 38.6208C9.1681 38.6518 9.10356 38.6948 9.04652 38.7505C8.98948 38.8059 8.94444 38.8732 8.91067 38.9521C8.87727 39.0314 8.86076 39.1185 8.86076 39.2146C8.86076 39.3111 8.87727 39.399 8.91067 39.4791C8.94407 39.5591 8.9891 39.6272 9.04652 39.6825C9.10356 39.7379 9.1681 39.7812 9.24015 39.8123C9.31221 39.8433 9.38726 39.8587 9.46456 39.8587C9.54412 39.8587 9.6203 39.8444 9.69235 39.8156C9.7644 39.7868 9.8267 39.7453 9.87961 39.6907C9.93252 39.6361 9.97418 39.5688 10.0057 39.4888C10.0368 39.4087 10.0526 39.3186 10.0526 39.218C10.053 39.1197 10.0372 39.0314 10.0061 38.9521Z" fill="white"/>
<path d="M12.3387 39.5506C12.2945 39.6568 12.2337 39.7496 12.1564 39.8293C12.0787 39.9085 11.9864 39.9714 11.8787 40.0174C11.771 40.0637 11.6546 40.0869 11.53 40.0869C11.4051 40.0869 11.2899 40.0637 11.1844 40.0174C11.079 39.9714 10.9874 39.9093 10.9097 39.8307C10.8321 39.7526 10.772 39.661 10.7289 39.5559C10.6857 39.4508 10.6643 39.339 10.6643 39.2208C10.6643 39.1026 10.6857 38.9908 10.7289 38.8846C10.772 38.7783 10.8321 38.6856 10.9097 38.6063C10.9874 38.5266 11.0794 38.4638 11.1859 38.4178C11.2925 38.3718 11.4092 38.3486 11.5364 38.3486C11.6614 38.3486 11.777 38.3718 11.8836 38.4178C11.9901 38.4638 12.0821 38.5263 12.1597 38.6044C12.2374 38.683 12.2975 38.7746 12.3406 38.8797C12.3838 38.9848 12.4052 39.0962 12.4052 39.2144C12.4052 39.3326 12.383 39.4444 12.3387 39.5506ZM12.1031 38.9653C12.0719 38.8861 12.0284 38.8172 11.9725 38.7581C11.9166 38.6994 11.8509 38.6527 11.7755 38.6187C11.7 38.5842 11.6182 38.567 11.53 38.567C11.4396 38.567 11.3567 38.5835 11.2812 38.6168C11.2058 38.6501 11.142 38.6961 11.0891 38.7548C11.0362 38.8135 10.9949 38.8823 10.9645 38.9605C10.9341 39.0386 10.9191 39.1228 10.9191 39.2125C10.9191 39.3023 10.9349 39.3872 10.966 39.4665C10.9972 39.5454 11.0403 39.6142 11.0951 39.6718C11.1499 39.7294 11.2152 39.7754 11.2906 39.8098C11.3661 39.8442 11.4479 39.8614 11.5361 39.8614C11.6265 39.8614 11.7094 39.845 11.7849 39.8117C11.8603 39.7784 11.9248 39.7328 11.9789 39.6752C12.0325 39.6176 12.0746 39.5495 12.1046 39.4713C12.135 39.3932 12.15 39.309 12.15 39.2193C12.15 39.1291 12.1342 39.0446 12.1031 38.9653Z" fill="white"/>
<path d="M13.1006 40.048H12.8518V38.3842H13.1006V38.6736C13.1565 38.5835 13.2297 38.5068 13.3201 38.4436C13.4106 38.38 13.528 38.3486 13.6721 38.3486C13.7735 38.3486 13.8632 38.3647 13.942 38.3969C14.0208 38.429 14.0872 38.4747 14.1424 38.5334C14.1971 38.5925 14.2392 38.6628 14.2681 38.7443C14.2973 38.8258 14.3116 38.916 14.3116 39.0147V40.048H14.0628V39.0757C14.0628 38.9212 14.023 38.7989 13.9435 38.7092C13.8639 38.619 13.7494 38.5741 13.6008 38.5741C13.5299 38.5741 13.4635 38.5861 13.4023 38.6112C13.3408 38.6355 13.2875 38.671 13.2425 38.7174C13.1971 38.7634 13.1622 38.8187 13.1374 38.8831C13.1126 38.9474 13.1002 39.0181 13.1002 39.0951L13.1006 40.048Z" fill="white"/>
<path d="M15.9421 39.7925C15.911 39.8538 15.869 39.9058 15.816 39.9488C15.7631 39.9914 15.7008 40.0243 15.6288 40.0472C15.5567 40.0696 15.4787 40.0808 15.3946 40.0808C15.2742 40.0808 15.1522 40.0588 15.0295 40.0146C14.9068 39.9709 14.7979 39.9114 14.7034 39.8359L14.8291 39.659C14.9195 39.7278 15.0137 39.7801 15.1117 39.8164C15.2096 39.8531 15.3079 39.871 15.4074 39.871C15.5087 39.871 15.5913 39.8475 15.6562 39.8003C15.7207 39.7532 15.753 39.6889 15.753 39.6074V39.6006C15.753 39.5599 15.7417 39.5243 15.7188 39.4944C15.6963 39.4645 15.6656 39.4383 15.6269 39.4155C15.5883 39.3931 15.5436 39.3732 15.4929 39.356C15.4423 39.3388 15.3901 39.3227 15.3364 39.3078C15.2719 39.2883 15.2066 39.2678 15.1409 39.245C15.0753 39.2221 15.016 39.1941 14.9634 39.1597C14.9109 39.1253 14.8677 39.0823 14.8343 39.0307C14.8009 38.9791 14.7844 38.9147 14.7844 38.8373V38.831C14.7844 38.7603 14.7983 38.6952 14.8265 38.6361C14.8542 38.5774 14.8936 38.5269 14.9443 38.485C14.995 38.4435 15.055 38.411 15.1252 38.3885C15.1953 38.3657 15.2711 38.3545 15.353 38.3545C15.4562 38.3545 15.5609 38.3713 15.6663 38.4046C15.7718 38.4379 15.8674 38.4824 15.9538 38.5381L15.8408 38.7247C15.7631 38.6754 15.6821 38.6361 15.5973 38.6073C15.5121 38.5785 15.4288 38.5639 15.347 38.5639C15.2479 38.5639 15.1691 38.5871 15.1113 38.6335C15.0531 38.6795 15.0242 38.7367 15.0242 38.8055V38.8123C15.0242 38.8508 15.0359 38.8844 15.0599 38.9136C15.0835 38.9428 15.115 38.9682 15.1552 38.9891C15.195 39.0108 15.2408 39.0299 15.2925 39.0471C15.3443 39.0643 15.398 39.0815 15.4539 39.0987C15.5185 39.1182 15.5826 39.1395 15.646 39.1631C15.7095 39.1866 15.7673 39.2169 15.8187 39.2532C15.8701 39.2895 15.9117 39.3336 15.9433 39.3852C15.9744 39.4368 15.9902 39.5004 15.9902 39.5752V39.5819C15.989 39.6616 15.9733 39.7315 15.9421 39.7925Z" fill="white"/>
<path d="M18.0223 39.5506C17.9781 39.6568 17.9173 39.7496 17.84 39.8293C17.7623 39.9085 17.67 39.9714 17.5623 40.0174C17.4546 40.0637 17.3382 40.0869 17.2136 40.0869C17.0887 40.0869 16.9735 40.0637 16.868 40.0174C16.7626 39.9714 16.671 39.9093 16.5933 39.8307C16.5156 39.7526 16.4556 39.661 16.4124 39.5559C16.3693 39.4508 16.3479 39.339 16.3479 39.2208C16.3479 39.1026 16.3693 38.9908 16.4124 38.8846C16.4556 38.7783 16.5156 38.6856 16.5933 38.6063C16.671 38.5266 16.7629 38.4638 16.8695 38.4178C16.9761 38.3718 17.0928 38.3486 17.22 38.3486C17.345 38.3486 17.4606 38.3718 17.5671 38.4178C17.6737 38.4638 17.7657 38.5263 17.8433 38.6044C17.921 38.683 17.9811 38.7746 18.0242 38.8797C18.0674 38.9848 18.0888 39.0962 18.0888 39.2144C18.0884 39.3326 18.0663 39.4444 18.0223 39.5506ZM17.7863 38.9653C17.7552 38.8861 17.7116 38.8172 17.6557 38.7581C17.5998 38.6994 17.5341 38.6527 17.4587 38.6187C17.3833 38.5842 17.3015 38.567 17.2133 38.567C17.1228 38.567 17.0399 38.5835 16.9645 38.6168C16.889 38.6501 16.8252 38.6961 16.7723 38.7548C16.7194 38.8135 16.6781 38.8823 16.6477 38.9605C16.6173 39.0386 16.6023 39.1228 16.6023 39.2125C16.6023 39.3023 16.6181 39.3872 16.6492 39.4665C16.6804 39.5454 16.7235 39.6142 16.7783 39.6718C16.8331 39.7294 16.8984 39.7754 16.9738 39.8098C17.0493 39.8442 17.1311 39.8614 17.2193 39.8614C17.3097 39.8614 17.3926 39.845 17.4681 39.8117C17.5435 39.7784 17.608 39.7328 17.6621 39.6752C17.7158 39.6176 17.7578 39.5495 17.7878 39.4713C17.8182 39.3932 17.8332 39.309 17.8332 39.2193C17.8332 39.1291 17.8178 39.0446 17.7863 38.9653Z" fill="white"/>
<path d="M18.7881 40.0488H18.5393V38.385H18.7881V38.8192C18.8185 38.7503 18.856 38.6871 18.9011 38.6292C18.9465 38.5716 18.9979 38.5215 19.0561 38.4799C19.1142 38.4381 19.1776 38.4063 19.2467 38.385C19.3157 38.3633 19.3897 38.3535 19.4696 38.3558V38.6232H19.4505C19.36 38.6232 19.2745 38.6393 19.1934 38.6714C19.1127 38.7036 19.0422 38.7518 18.9821 38.8165C18.9217 38.8809 18.8744 38.9609 18.8399 39.0563C18.8054 39.152 18.7881 39.262 18.7881 39.3861V40.0488Z" fill="white"/>
<path d="M19.9961 39.5482C20.0307 39.6182 20.0746 39.6769 20.1286 39.7251C20.1823 39.7734 20.2427 39.81 20.3095 39.8347C20.3763 39.8594 20.4461 39.8717 20.5193 39.8717C20.6356 39.8717 20.735 39.8504 20.818 39.8074C20.9009 39.7648 20.9767 39.7076 21.0454 39.6369L21.2007 39.7753C21.1167 39.8695 21.021 39.9454 20.9133 40.0019C20.8056 40.0587 20.672 40.0875 20.5129 40.0875C20.3988 40.0875 20.2911 40.0662 20.1898 40.0247C20.0884 39.9828 20.0003 39.9237 19.9241 39.8474C19.8483 39.7715 19.7879 39.6799 19.7432 39.5726C19.6985 39.4652 19.676 39.347 19.676 39.2184C19.676 39.0983 19.6959 38.985 19.7357 38.8788C19.7755 38.773 19.831 38.6806 19.9019 38.602C19.9729 38.5239 20.0577 38.4622 20.1552 38.4173C20.2532 38.372 20.3605 38.3496 20.4765 38.3496C20.5992 38.3496 20.7091 38.3728 20.806 38.4188C20.9028 38.4648 20.9846 38.5276 21.0514 38.6073C21.1182 38.6866 21.1688 38.7801 21.203 38.887C21.2375 38.9944 21.2548 39.1096 21.2548 39.2315C21.2548 39.2423 21.2548 39.2543 21.2548 39.267C21.2548 39.2801 21.2537 39.2939 21.2518 39.3089H19.9305C19.9402 39.3983 19.9616 39.4783 19.9961 39.5482ZM21.0007 39.1249C20.994 39.0497 20.9786 38.9775 20.9538 38.9091C20.9294 38.8403 20.8949 38.7804 20.8514 38.7292C20.8075 38.6776 20.7538 38.6361 20.6907 38.605C20.6277 38.574 20.5542 38.5583 20.4708 38.5583C20.398 38.5583 20.3305 38.5729 20.2686 38.6017C20.2063 38.6308 20.1519 38.6709 20.1046 38.721C20.0573 38.7711 20.019 38.8309 19.989 38.8997C19.959 38.9686 19.9398 39.0434 19.9312 39.1253L21.0007 39.1249Z" fill="white"/>
<path d="M23.0313 40.0484V39.7133C22.9967 39.763 22.9585 39.8102 22.9164 39.855C22.8744 39.9003 22.8275 39.9399 22.7757 39.974C22.7239 40.008 22.6665 40.0353 22.6031 40.0547C22.5397 40.0742 22.4691 40.0835 22.3918 40.0835C22.2905 40.0835 22.1925 40.0641 22.098 40.0256C22.0034 39.9871 21.9182 39.9306 21.8428 39.8569C21.7674 39.7829 21.7073 39.6923 21.6619 39.5846C21.6165 39.4769 21.594 39.355 21.594 39.2178C21.594 39.0805 21.6165 38.9582 21.6619 38.8509C21.7073 38.7439 21.7674 38.653 21.8428 38.579C21.9182 38.5049 22.0034 38.4477 22.098 38.4084C22.1925 38.3688 22.2905 38.349 22.3918 38.349C22.4695 38.349 22.5404 38.3583 22.605 38.3778C22.6695 38.3972 22.7277 38.4227 22.7795 38.4548C22.8313 38.4874 22.8782 38.5248 22.9202 38.5678C22.9622 38.6108 22.9994 38.6557 23.0316 38.7028V37.6982H23.2804V40.048L23.0313 40.0484ZM22.9911 38.9519C22.9577 38.8729 22.9123 38.8056 22.8553 38.7503C22.7982 38.6949 22.7337 38.6515 22.6616 38.6205C22.5896 38.5895 22.5145 38.5741 22.4372 38.5741C22.3554 38.5741 22.2789 38.5883 22.2079 38.6171C22.137 38.6459 22.0751 38.6874 22.0222 38.742C21.9693 38.7966 21.9272 38.8636 21.8961 38.9436C21.8649 39.024 21.8492 39.1142 21.8492 39.2144C21.8492 39.3128 21.8649 39.4014 21.8961 39.4803C21.9272 39.5596 21.97 39.6273 22.0237 39.6837C22.0777 39.7402 22.14 39.784 22.2113 39.8135C22.2822 39.8434 22.3577 39.8584 22.4376 39.8584C22.5153 39.8584 22.59 39.8431 22.662 39.812C22.7341 39.781 22.7986 39.738 22.8556 39.6823C22.9127 39.6265 22.9577 39.5588 22.9915 39.4788C23.0249 39.3988 23.0414 39.3109 23.0414 39.2144C23.041 39.1183 23.0245 39.0311 22.9911 38.9519Z" fill="white"/>
<path d="M26.4238 39.5819C26.3784 39.6892 26.3188 39.7797 26.2445 39.8541C26.1702 39.9282 26.0853 39.985 25.9893 40.0247C25.8932 40.0643 25.7949 40.0841 25.6936 40.0841C25.6159 40.0841 25.545 40.0748 25.4804 40.0553C25.4159 40.0359 25.3577 40.0101 25.3059 39.9779C25.2541 39.9458 25.2072 39.908 25.1652 39.8654C25.1232 39.8224 25.086 39.7775 25.0537 39.73V40.049H24.8049V37.6992H25.0537V38.7198C25.0883 38.6705 25.1265 38.6233 25.1686 38.5781C25.2106 38.5332 25.2575 38.4939 25.3093 38.461C25.3611 38.4281 25.4185 38.4008 25.4819 38.3803C25.5453 38.3601 25.6159 38.35 25.6932 38.35C25.7923 38.35 25.8895 38.369 25.9855 38.4076C26.0816 38.4461 26.1668 38.5025 26.2426 38.5766C26.318 38.6506 26.3781 38.7412 26.4235 38.8489C26.4689 38.9566 26.4914 39.0781 26.4914 39.2154C26.4914 39.3526 26.4692 39.4745 26.4238 39.5819ZM26.1897 38.9521C26.1585 38.8732 26.1157 38.8051 26.0621 38.749C26.008 38.6925 25.9457 38.6488 25.8744 38.6189C25.8035 38.5893 25.7281 38.5744 25.6482 38.5744C25.5705 38.5744 25.4958 38.5897 25.4237 38.6207C25.3517 38.6518 25.2872 38.6948 25.2301 38.7505C25.1731 38.8059 25.128 38.8732 25.0943 38.9521C25.0609 39.0314 25.0444 39.1185 25.0444 39.2146C25.0444 39.3111 25.0609 39.399 25.0943 39.479C25.1277 39.5591 25.1727 39.6271 25.2301 39.6825C25.2872 39.7378 25.3517 39.7812 25.4237 39.8123C25.4958 39.8433 25.5709 39.8586 25.6482 39.8586C25.7277 39.8586 25.8039 39.8444 25.8759 39.8156C25.948 39.7868 26.0103 39.7453 26.0632 39.6907C26.1161 39.6361 26.1578 39.5688 26.1893 39.4888C26.2204 39.4087 26.2362 39.3186 26.2362 39.218C26.2366 39.1196 26.2208 39.0314 26.1897 38.9521Z" fill="white"/>
<path d="M27.6851 40.1026C27.6141 40.2743 27.535 40.3955 27.4475 40.4665C27.3601 40.5376 27.2543 40.5727 27.1293 40.5727C27.0602 40.5727 26.998 40.5653 26.942 40.5514C26.8861 40.5376 26.8302 40.5166 26.7739 40.4886L26.858 40.2926C26.8989 40.3139 26.9394 40.3297 26.9792 40.3394C27.019 40.3487 27.0659 40.3536 27.1199 40.3536C27.1953 40.3536 27.2588 40.3311 27.3106 40.2859C27.3623 40.241 27.4126 40.1591 27.4625 40.0413L26.7034 38.3838H26.9781L27.5852 39.7709L28.1215 38.3838H28.3864L27.6851 40.1026Z" fill="white"/>
<path d="M30.875 39.43H30.8618L30.0381 38.2261V40.0478H29.7893V37.7949H30.0475L30.8712 39.0242L31.6949 37.7949H31.9531V40.0478H31.6979V38.2228L30.875 39.43Z" fill="white"/>
<path d="M32.5588 38.0205V37.7471H32.8429V38.0205H32.5588ZM32.575 40.0482V38.3843H32.8238V40.0482H32.575Z" fill="white"/>
<path d="M33.6514 40.049H33.4026V38.3851H33.6514V38.6746C33.7073 38.5845 33.7805 38.5078 33.8709 38.4446C33.9614 38.381 34.0788 38.3496 34.2229 38.3496C34.3242 38.3496 34.4139 38.3657 34.4927 38.3979C34.5715 38.43 34.638 38.4756 34.6931 38.5344C34.7479 38.5934 34.79 38.6638 34.8188 38.7453C34.8481 38.8268 34.8624 38.9169 34.8624 39.0157V40.049H34.6136V39.0766C34.6136 38.9222 34.5738 38.7999 34.4942 38.7101C34.4147 38.62 34.3002 38.5751 34.1516 38.5751C34.0807 38.5751 34.0143 38.5871 33.9531 38.6121C33.8916 38.6365 33.8383 38.672 33.7932 38.7184C33.7478 38.7644 33.7129 38.8197 33.6882 38.884C33.6634 38.9484 33.651 39.019 33.651 39.0961L33.6514 40.049Z" fill="white"/>
<path d="M35.3987 38.0205V37.7471H35.6828V38.0205H35.3987ZM35.4148 40.0482V38.3843H35.6636V40.0482H35.4148Z" fill="white"/>
<path d="M37.3406 39.7925C37.3094 39.8538 37.2674 39.9058 37.2145 39.9488C37.1616 39.9914 37.0993 40.0243 37.0272 40.0472C36.9552 40.0696 36.8771 40.0808 36.7931 40.0808C36.6726 40.0808 36.5506 40.0588 36.4279 40.0146C36.3052 39.9709 36.1964 39.9114 36.1018 39.8359L36.2275 39.659C36.318 39.7278 36.4122 39.7801 36.5101 39.8164C36.608 39.8531 36.7064 39.871 36.8058 39.871C36.9071 39.871 36.9897 39.8475 37.0546 39.8003C37.1192 39.7532 37.1514 39.6889 37.1514 39.6074V39.6006C37.1514 39.5599 37.1402 39.5243 37.1173 39.4944C37.0948 39.4645 37.064 39.4383 37.0253 39.4155C36.9867 39.3931 36.942 39.3732 36.8914 39.356C36.8407 39.3388 36.7885 39.3227 36.7349 39.3078C36.6703 39.2883 36.605 39.2678 36.5394 39.245C36.4737 39.2221 36.4144 39.1941 36.3619 39.1597C36.3093 39.1253 36.2662 39.0823 36.2328 39.0307C36.1994 38.9791 36.1829 38.9147 36.1829 38.8373V38.831C36.1829 38.7603 36.1968 38.6952 36.2249 38.6361C36.2527 38.5774 36.2921 38.5269 36.3427 38.485C36.3934 38.4435 36.4534 38.411 36.5236 38.3885C36.5938 38.3657 36.6696 38.3545 36.7514 38.3545C36.8546 38.3545 36.9593 38.3713 37.0647 38.4046C37.1702 38.4379 37.2659 38.4824 37.3522 38.5381L37.2392 38.7247C37.1616 38.6754 37.0805 38.6361 36.9957 38.6073C36.9105 38.5785 36.8272 38.5639 36.7454 38.5639C36.6463 38.5639 36.5675 38.5871 36.5097 38.6335C36.4516 38.6795 36.4227 38.7367 36.4227 38.8055V38.8123C36.4227 38.8508 36.4343 38.8844 36.4583 38.9136C36.482 38.9428 36.5135 38.9682 36.5536 38.9891C36.5934 39.0108 36.6392 39.0299 36.691 39.0471C36.7428 39.0643 36.7964 39.0815 36.8523 39.0987C36.9169 39.1182 36.9811 39.1395 37.0445 39.1631C37.1079 39.1866 37.1657 39.2169 37.2171 39.2532C37.2685 39.2895 37.3102 39.3336 37.3417 39.3852C37.3728 39.4368 37.3886 39.5004 37.3886 39.5752V39.5819C37.3871 39.6616 37.3717 39.7315 37.3406 39.7925Z" fill="white"/>
<path d="M38.1532 39.5749C38.1532 39.6777 38.1791 39.7499 38.2309 39.7907C38.2827 39.8314 38.3502 39.8516 38.4343 39.8516C38.4771 39.8516 38.5176 39.8475 38.5555 39.8389C38.593 39.8307 38.6336 39.8154 38.6767 39.794V40.0061C38.6336 40.0297 38.5878 40.0476 38.5394 40.0596C38.491 40.0712 38.4365 40.0771 38.3761 40.0771C38.3093 40.0771 38.247 40.0689 38.1889 40.0517C38.1307 40.0345 38.0804 40.0072 38.0388 39.9694C37.9971 39.9317 37.9641 39.8834 37.9404 39.8228C37.9168 39.763 37.9048 39.6908 37.9048 39.6074V38.6029H37.6721V38.3841H37.9048V37.8818H38.1536V38.3841H38.6835V38.6029H38.1536L38.1532 39.5749Z" fill="white"/>
<path d="M39.374 40.0488H39.1252V38.385H39.374V38.8192C39.4044 38.7503 39.442 38.6871 39.487 38.6292C39.5324 38.5716 39.5838 38.5215 39.642 38.4799C39.7002 38.4381 39.7636 38.4063 39.8326 38.385C39.9017 38.3633 39.9756 38.3535 40.0555 38.3558V38.6232H40.0364C39.946 38.6232 39.8604 38.6393 39.7793 38.6714C39.6987 38.7036 39.6281 38.7518 39.5681 38.8165C39.5076 38.8809 39.4604 38.9609 39.4258 39.0563C39.3913 39.152 39.374 39.262 39.374 39.3861V40.0488Z" fill="white"/>
<path d="M41.2476 40.1026C41.1766 40.2743 41.0975 40.3955 41.01 40.4665C40.9226 40.5376 40.8168 40.5727 40.6918 40.5727C40.6227 40.5727 40.5605 40.5653 40.5045 40.5514C40.4486 40.5376 40.3927 40.5166 40.3364 40.4886L40.4205 40.2926C40.4614 40.3139 40.5019 40.3297 40.5417 40.3394C40.5815 40.3487 40.6284 40.3536 40.6824 40.3536C40.7578 40.3536 40.8213 40.3311 40.8731 40.2859C40.9248 40.241 40.9751 40.1591 41.025 40.0413L40.2659 38.3838H40.5406L41.1477 39.7709L41.684 38.3838H41.9489L41.2476 40.1026Z" fill="white"/>
<path d="M44.8817 39.5506C44.8374 39.6568 44.7766 39.7496 44.6993 39.8293C44.6217 39.9085 44.5293 39.9714 44.4216 40.0174C44.3139 40.0637 44.1976 40.0869 44.073 40.0869C43.9481 40.0869 43.8328 40.0637 43.7274 40.0174C43.6219 39.9714 43.5304 39.9093 43.4527 39.8307C43.375 39.7526 43.315 39.661 43.2718 39.5559C43.2287 39.4508 43.2073 39.339 43.2073 39.2208C43.2073 39.1026 43.2287 38.9908 43.2718 38.8846C43.315 38.7783 43.375 38.6856 43.4527 38.6063C43.5304 38.5266 43.6223 38.4638 43.7289 38.4178C43.8355 38.3718 43.9522 38.3486 44.0794 38.3486C44.2044 38.3486 44.3199 38.3718 44.4265 38.4178C44.5331 38.4638 44.625 38.5263 44.7027 38.6044C44.7804 38.683 44.8404 38.7746 44.8836 38.8797C44.9268 38.9848 44.9481 39.0962 44.9481 39.2144C44.9481 39.3326 44.926 39.4444 44.8817 39.5506ZM44.6461 38.9653C44.6149 38.8861 44.5714 38.8172 44.5155 38.7581C44.4595 38.6994 44.3939 38.6527 44.3184 38.6187C44.243 38.5842 44.1612 38.567 44.073 38.567C43.9826 38.567 43.8996 38.5835 43.8242 38.6168C43.7488 38.6501 43.685 38.6961 43.6321 38.7548C43.5792 38.8135 43.5379 38.8823 43.5075 38.9605C43.4771 39.0386 43.4621 39.1228 43.4621 39.2125C43.4621 39.3023 43.4778 39.3872 43.509 39.4665C43.5401 39.5454 43.5833 39.6142 43.6381 39.6718C43.6929 39.7294 43.7582 39.7754 43.8336 39.8098C43.909 39.8442 43.9908 39.8614 44.079 39.8614C44.1695 39.8614 44.2524 39.845 44.3278 39.8117C44.4033 39.7784 44.4678 39.7328 44.5218 39.6752C44.5755 39.6176 44.6175 39.5495 44.6476 39.4713C44.678 39.3932 44.693 39.309 44.693 39.2193C44.693 39.1291 44.6772 39.0446 44.6461 38.9653Z" fill="white"/>
<path d="M46.2626 38.3905V38.6029H45.7361V40.048H45.4873V38.6029H45.2581V38.3871H45.4873V38.2424C45.4873 38.0599 45.5309 37.9215 45.6183 37.8273C45.7054 37.7327 45.8296 37.6855 45.9913 37.6855C46.0495 37.6855 46.0994 37.6889 46.1414 37.6953C46.1835 37.7016 46.2251 37.7125 46.266 37.7274V37.9428C46.2206 37.9301 46.1801 37.9197 46.1433 37.9122C46.1065 37.9047 46.0668 37.9013 46.024 37.9013C45.83 37.9013 45.7335 38.0191 45.7335 38.2551V38.3901H46.2626V38.3905Z" fill="white"/>
<path d="M49.3478 39.8538C49.2843 39.902 49.2157 39.9432 49.1429 39.9776C49.0697 40.012 48.9909 40.0389 48.9072 40.058C48.8231 40.0774 48.7297 40.0872 48.6261 40.0872C48.4621 40.0872 48.3116 40.0569 48.1739 39.997C48.0362 39.9372 47.9165 39.8549 47.8152 39.7509C47.7138 39.647 47.635 39.5239 47.578 39.3826C47.521 39.2408 47.4924 39.0886 47.4924 38.9252C47.4924 38.7644 47.521 38.6129 47.578 38.4715C47.635 38.3298 47.7142 38.2056 47.8152 38.0998C47.9165 37.9936 48.0369 37.9098 48.1769 37.8485C48.3169 37.7875 48.4696 37.7568 48.6355 37.7568C48.7387 37.7568 48.8321 37.7654 48.9151 37.7823C48.998 37.7998 49.0749 37.8238 49.1459 37.8548C49.2168 37.8859 49.2825 37.9236 49.3429 37.9674C49.4029 38.0115 49.4611 38.0601 49.517 38.114L49.3429 38.3006C49.2461 38.2109 49.1421 38.1368 49.031 38.0785C48.9199 38.0209 48.7871 37.9917 48.6321 37.9917C48.5072 37.9917 48.3916 38.0153 48.285 38.0624C48.1784 38.1099 48.0857 38.1753 48.0073 38.2587C47.9289 38.3421 47.8673 38.4405 47.823 38.5531C47.7788 38.666 47.757 38.7875 47.757 38.9188C47.757 39.0497 47.7791 39.172 47.823 39.2853C47.8673 39.3994 47.9285 39.4978 48.0073 39.5815C48.0861 39.6653 48.1784 39.7311 48.285 39.7794C48.3916 39.8276 48.5072 39.8515 48.6321 39.8515C48.7871 39.8515 48.9207 39.8235 49.0325 39.7663C49.1444 39.7091 49.2543 39.6294 49.362 39.5262L49.5301 39.6904C49.472 39.7513 49.4112 39.8055 49.3478 39.8538Z" fill="white"/>
<path d="M51.4755 39.5516C51.4312 39.6578 51.3704 39.7506 51.2931 39.8302C51.2154 39.9095 51.1231 39.9723 51.0154 40.0183C50.9077 40.0647 50.7914 40.0879 50.6668 40.0879C50.5418 40.0879 50.4266 40.0647 50.3211 40.0183C50.2157 39.9723 50.1241 39.9103 50.0464 39.8317C49.9688 39.7536 49.9087 39.6619 49.8656 39.5568C49.8224 39.4518 49.801 39.3399 49.801 39.2217C49.801 39.1036 49.8224 38.9917 49.8656 38.8855C49.9087 38.7793 49.9688 38.6866 50.0464 38.6073C50.1241 38.5276 50.2161 38.4648 50.3226 38.4188C50.4292 38.3728 50.5459 38.3496 50.6731 38.3496C50.7981 38.3496 50.9137 38.3728 51.0203 38.4188C51.1268 38.4648 51.2188 38.5273 51.2965 38.6054C51.3741 38.684 51.4342 38.7756 51.4773 38.8807C51.5205 38.9858 51.5419 39.0972 51.5419 39.2154C51.5419 39.3336 51.5197 39.4454 51.4755 39.5516ZM51.2398 38.9663C51.2087 38.887 51.1651 38.8182 51.1092 38.7591C51.0533 38.7004 50.9876 38.6537 50.9122 38.6196C50.8368 38.5852 50.755 38.568 50.6668 38.568C50.5763 38.568 50.4934 38.5845 50.418 38.6178C50.3425 38.651 50.2787 38.697 50.2258 38.7558C50.1729 38.8145 50.1316 38.8833 50.1012 38.9615C50.0708 39.0396 50.0558 39.1238 50.0558 39.2135C50.0558 39.3033 50.0716 39.3882 50.1027 39.4675C50.1339 39.5464 50.177 39.6152 50.2318 39.6728C50.2866 39.7304 50.3519 39.7764 50.4273 39.8108C50.5028 39.8452 50.5846 39.8624 50.6728 39.8624C50.7632 39.8624 50.8461 39.8459 50.9216 39.8127C50.997 39.7794 51.0615 39.7337 51.1156 39.6761C51.1692 39.6186 51.2113 39.5505 51.2413 39.4723C51.2717 39.3942 51.2867 39.31 51.2867 39.2203C51.2867 39.1301 51.2709 39.0456 51.2398 38.9663Z" fill="white"/>
<path d="M53.4199 38.5519C53.4575 38.5112 53.5003 38.4756 53.5475 38.4457C53.5948 38.4158 53.6481 38.3919 53.7074 38.375C53.7667 38.3578 53.8327 38.3496 53.9059 38.3496C54.0996 38.3496 54.2515 38.4091 54.3611 38.5284C54.4707 38.6477 54.5259 38.8111 54.5259 39.0194V40.0494H54.2771V39.077C54.2771 38.9162 54.2388 38.792 54.1622 38.7053C54.0857 38.6189 53.9799 38.5751 53.844 38.5751C53.7813 38.5751 53.7224 38.586 53.6661 38.6088C53.6102 38.6316 53.5614 38.6645 53.519 38.7086C53.477 38.7528 53.4436 38.807 53.4188 38.8713C53.3941 38.936 53.3817 39.0086 53.3817 39.0905V40.0494H53.1362V39.071C53.1362 38.9143 53.098 38.7924 53.0214 38.7053C52.9449 38.6189 52.8402 38.5751 52.7066 38.5751C52.6398 38.5751 52.5786 38.5878 52.5227 38.6136C52.4668 38.6394 52.4176 38.6761 52.3756 38.7232C52.3335 38.7703 52.3005 38.8257 52.2769 38.8889C52.2532 38.9521 52.2412 39.0224 52.2412 39.0995V40.049H51.9924V38.3851H52.2412V38.6649C52.2694 38.6245 52.2998 38.5845 52.3332 38.546C52.3666 38.5071 52.4049 38.4738 52.448 38.4446C52.4912 38.4154 52.5396 38.3922 52.5932 38.375C52.6473 38.3578 52.7096 38.3496 52.7809 38.3496C52.9163 38.3496 53.0285 38.381 53.1167 38.4446C53.2049 38.5078 53.2717 38.5867 53.3171 38.681C53.3483 38.6353 53.382 38.5927 53.4199 38.5519Z" fill="white"/>
<path d="M56.4903 38.5519C56.5278 38.5112 56.5706 38.4756 56.6179 38.4457C56.6651 38.4158 56.7184 38.3919 56.7777 38.375C56.837 38.3578 56.9031 38.3496 56.9762 38.3496C57.1699 38.3496 57.3219 38.4091 57.4314 38.5284C57.541 38.6477 57.5962 38.8111 57.5962 39.0194V40.0494H57.3474V39.077C57.3474 38.9162 57.3091 38.792 57.2325 38.7053C57.156 38.6189 57.0502 38.5751 56.9143 38.5751C56.8516 38.5751 56.7927 38.586 56.7364 38.6088C56.6805 38.6316 56.6317 38.6645 56.5893 38.7086C56.5473 38.7528 56.5139 38.807 56.4891 38.8713C56.4644 38.936 56.452 39.0086 56.452 39.0905V40.0494H56.2066V39.071C56.2066 38.9143 56.1683 38.7924 56.0917 38.7053C56.0152 38.6189 55.9105 38.5751 55.7769 38.5751C55.7101 38.5751 55.6489 38.5878 55.593 38.6136C55.5371 38.6394 55.4879 38.6761 55.4459 38.7232C55.4039 38.7703 55.3708 38.8257 55.3472 38.8889C55.3236 38.9521 55.3115 39.0224 55.3115 39.0995V40.049H55.0627V38.3851H55.3115V38.6649C55.3397 38.6245 55.3701 38.5845 55.4035 38.546C55.4369 38.5071 55.4752 38.4738 55.5183 38.4446C55.5615 38.4154 55.6099 38.3922 55.6635 38.375C55.7176 38.3578 55.7799 38.3496 55.8512 38.3496C55.9867 38.3496 56.0989 38.381 56.187 38.4446C56.2752 38.5078 56.342 38.5867 56.3874 38.681C56.419 38.6353 56.4527 38.5927 56.4903 38.5519Z" fill="white"/>
<path d="M58.3516 39.5482C58.3861 39.6182 58.43 39.6769 58.4841 39.7251C58.5377 39.7734 58.5981 39.81 58.6649 39.8347C58.7317 39.8594 58.8015 39.8717 58.8747 39.8717C58.9911 39.8717 59.0905 39.8504 59.1734 39.8074C59.2564 39.7648 59.3322 39.7076 59.4008 39.6369L59.5562 39.7753C59.4721 39.8695 59.3765 39.9454 59.2688 40.0019C59.161 40.0587 59.0275 40.0875 58.8683 40.0875C58.7543 40.0875 58.6466 40.0662 58.5452 40.0247C58.4439 39.9828 58.3557 39.9237 58.2796 39.8474C58.2037 39.7715 58.1433 39.6799 58.0987 39.5726C58.054 39.4652 58.0315 39.347 58.0315 39.2184C58.0315 39.0983 58.0514 38.985 58.0912 38.8788C58.1309 38.773 58.1865 38.6806 58.2574 38.602C58.3283 38.5239 58.4131 38.4622 58.5107 38.4173C58.6087 38.372 58.716 38.3496 58.8319 38.3496C58.9547 38.3496 59.0646 38.3728 59.1614 38.4188C59.2582 38.4648 59.3401 38.5276 59.4069 38.6073C59.4737 38.6866 59.5243 38.7801 59.5585 38.887C59.593 38.9944 59.6102 39.1096 59.6102 39.2315C59.6102 39.2423 59.6102 39.2543 59.6102 39.267C59.6102 39.2801 59.6091 39.2939 59.6072 39.3089H58.2859C58.2957 39.3983 58.3174 39.4783 58.3516 39.5482ZM59.3562 39.1249C59.3494 39.0497 59.334 38.9775 59.3093 38.9091C59.2849 38.8403 59.2504 38.7804 59.2068 38.7292C59.1629 38.6776 59.1093 38.6361 59.0462 38.605C58.9832 38.574 58.9096 38.5583 58.8263 38.5583C58.7535 38.5583 58.686 38.5729 58.624 38.6017C58.5618 38.6308 58.5073 38.6709 58.46 38.721C58.4128 38.7711 58.3745 38.8309 58.3445 38.8997C58.3144 38.9686 58.2953 39.0434 58.2867 39.1253L59.3562 39.1249Z" fill="white"/>
<path d="M60.2959 40.0488H60.0471V38.385H60.2959V38.8192C60.3263 38.7503 60.3638 38.6871 60.4089 38.6292C60.4543 38.5716 60.5057 38.5215 60.5639 38.4799C60.622 38.4381 60.6854 38.4063 60.7545 38.385C60.8235 38.3633 60.8975 38.3535 60.9774 38.3558V38.6232H60.9583C60.8678 38.6232 60.7823 38.6393 60.7012 38.6714C60.6205 38.7036 60.55 38.7518 60.4899 38.8165C60.4295 38.8809 60.3822 38.9609 60.3477 39.0563C60.3132 39.152 60.2959 39.262 60.2959 39.3861V40.0488Z" fill="white"/>
<path d="M62.4354 39.9953C62.3288 40.0563 62.1971 40.0869 62.0398 40.0869C61.9171 40.0869 61.8034 40.0637 61.6991 40.0174C61.5948 39.9714 61.5043 39.9093 61.4278 39.8308C61.3512 39.7526 61.2915 39.661 61.2484 39.5559C61.2052 39.4508 61.1838 39.339 61.1838 39.2208C61.1838 39.1026 61.2052 38.9908 61.2484 38.8846C61.2915 38.7783 61.3512 38.6856 61.4278 38.6063C61.5043 38.5267 61.5944 38.4638 61.6991 38.4178C61.8038 38.3718 61.9171 38.3486 62.0398 38.3486C62.1194 38.3486 62.1914 38.3561 62.2564 38.3711C62.3209 38.386 62.3802 38.4074 62.4339 38.4339C62.4879 38.4608 62.5371 38.4922 62.5825 38.5289C62.6279 38.5655 62.6695 38.6041 62.7086 38.6448L62.5438 38.8187C62.477 38.7499 62.4042 38.6912 62.3258 38.6418C62.2473 38.5925 62.1509 38.5678 62.0364 38.5678C61.9524 38.5678 61.874 38.5842 61.8008 38.6175C61.7276 38.6508 61.6642 38.6968 61.6105 38.7555C61.5565 38.8143 61.5148 38.8831 61.4844 38.9612C61.454 39.0394 61.439 39.1235 61.439 39.2133C61.439 39.3031 61.4548 39.3879 61.4859 39.4672C61.5171 39.5461 61.5602 39.6153 61.615 39.6744C61.6698 39.7335 61.7344 39.7791 61.809 39.8124C61.8833 39.8457 61.9644 39.8622 62.0526 39.8622C62.1603 39.8622 62.2556 39.8386 62.3385 39.7915C62.4215 39.7444 62.4961 39.6853 62.5629 39.6142L62.7213 39.7623C62.6372 39.8566 62.5419 39.9347 62.4354 39.9953Z" fill="white"/>
<path d="M63.2969 39.5482C63.3314 39.6182 63.3753 39.6769 63.4294 39.7251C63.483 39.7734 63.5435 39.81 63.6103 39.8347C63.6771 39.8594 63.7469 39.8717 63.82 39.8717C63.9364 39.8717 64.0358 39.8504 64.1187 39.8074C64.2017 39.7648 64.2775 39.7076 64.3462 39.6369L64.5015 39.7753C64.4175 39.8695 64.3218 39.9454 64.2141 40.0019C64.1064 40.0587 63.9728 40.0875 63.8137 40.0875C63.6996 40.0875 63.5919 40.0662 63.4905 40.0247C63.3892 39.9828 63.301 39.9237 63.2249 39.8474C63.1491 39.7715 63.0886 39.6799 63.044 39.5726C62.9993 39.4652 62.9768 39.347 62.9768 39.2184C62.9768 39.0983 62.9967 38.985 63.0365 38.8788C63.0763 38.773 63.1318 38.6806 63.2027 38.602C63.2736 38.5239 63.3585 38.4622 63.456 38.4173C63.554 38.372 63.6613 38.3496 63.7773 38.3496C63.9 38.3496 64.0099 38.3728 64.1067 38.4188C64.2036 38.4648 64.2854 38.5276 64.3522 38.6073C64.419 38.6866 64.4696 38.7801 64.5038 38.887C64.5383 38.9944 64.5556 39.1096 64.5556 39.2315C64.5556 39.2423 64.5556 39.2543 64.5556 39.267C64.5556 39.2801 64.5544 39.2939 64.5526 39.3089H63.2312C63.241 39.3983 63.2624 39.4783 63.2969 39.5482ZM64.3015 39.1249C64.2947 39.0497 64.2794 38.9775 64.2546 38.9091C64.2302 38.8403 64.1957 38.7804 64.1521 38.7292C64.1082 38.6776 64.0546 38.6361 63.9915 38.605C63.9285 38.574 63.8549 38.5583 63.7716 38.5583C63.6988 38.5583 63.6313 38.5729 63.5694 38.6017C63.5071 38.6308 63.4526 38.6709 63.4054 38.721C63.3581 38.7711 63.3198 38.8309 63.2898 38.8997C63.2598 38.9686 63.2406 39.0434 63.232 39.1253L64.3015 39.1249Z" fill="white"/>
<path d="M67.6345 40.0935L67.2792 39.7296C67.1756 39.8414 67.0638 39.9278 66.9429 39.9888C66.8221 40.0498 66.6877 40.0804 66.5391 40.0804C66.4378 40.0804 66.3436 40.0655 66.2566 40.0355C66.1695 40.0056 66.0937 39.9626 66.0303 39.9065C65.9668 39.8508 65.9173 39.7839 65.8817 39.7053C65.846 39.6272 65.8284 39.5411 65.8284 39.4465C65.8284 39.2943 65.8757 39.1642 65.9706 39.0572C66.0652 38.9499 66.1999 38.862 66.3744 38.7932C66.2967 38.703 66.24 38.6196 66.2033 38.5437C66.1665 38.4674 66.1485 38.3844 66.1485 38.2943C66.1485 38.2191 66.1631 38.1488 66.192 38.0837C66.2213 38.0179 66.2614 37.9614 66.3132 37.9128C66.365 37.8645 66.4273 37.8268 66.5008 37.7987C66.574 37.7707 66.6558 37.7568 66.7463 37.7568C66.8258 37.7568 66.899 37.7703 66.9658 37.7969C67.0326 37.8238 67.09 37.8601 67.1384 37.9064C67.1868 37.9524 67.2251 38.007 67.2529 38.0691C67.281 38.1312 67.2949 38.1978 67.2949 38.2685C67.2949 38.4165 67.2476 38.5373 67.1527 38.6308C67.0581 38.724 66.9275 38.7995 66.7617 38.8575L67.2784 39.3822C67.3279 39.3093 67.3752 39.2307 67.4203 39.1469C67.4653 39.0632 67.5084 38.9742 67.5493 38.8799L67.7599 38.9764C67.71 39.0837 67.6585 39.1847 67.606 39.2793C67.5535 39.3736 67.4961 39.4615 67.4338 39.543L67.8274 39.9454L67.6345 40.0935ZM66.5166 38.951C66.3658 39.0067 66.2562 39.0774 66.1871 39.163C66.1181 39.2487 66.0839 39.3403 66.0839 39.4364C66.0839 39.4989 66.0952 39.5557 66.1177 39.6073C66.1402 39.6589 66.1725 39.7038 66.2145 39.7423C66.2566 39.7809 66.3065 39.8112 66.3646 39.8325C66.4228 39.8538 66.4862 39.8646 66.5553 39.8646C66.663 39.8646 66.7635 39.8385 66.8574 39.7857C66.9512 39.733 67.0386 39.6616 67.1208 39.5718L66.5166 38.951ZM66.9658 38.0545C66.9054 37.9958 66.8288 37.9663 66.7365 37.9663C66.6333 37.9663 66.5504 37.9973 66.4877 38.0594C66.425 38.1218 66.3939 38.2 66.3939 38.2946C66.3939 38.329 66.3977 38.3612 66.4052 38.3911C66.4127 38.4214 66.425 38.4525 66.4423 38.4846C66.4596 38.5168 66.4828 38.5516 66.5117 38.589C66.541 38.6267 66.5767 38.6679 66.6202 38.7128C66.7643 38.6634 66.8731 38.6047 66.9463 38.5359C67.0195 38.467 67.0559 38.3825 67.0559 38.2815C67.0562 38.1892 67.0259 38.1136 66.9658 38.0545Z" fill="white"/>
<path d="M69.5015 37.7949V40.0478H69.2463V37.7949H69.5015Z" fill="white"/>
<path d="M70.3701 40.049H70.1213V38.3851H70.3701V38.6746C70.4257 38.5845 70.4992 38.5078 70.5897 38.4446C70.6801 38.381 70.7976 38.3496 70.9417 38.3496C71.043 38.3496 71.1327 38.3657 71.2111 38.3979C71.2899 38.43 71.3567 38.4756 71.4115 38.5344C71.4663 38.5934 71.5083 38.6638 71.5376 38.7453C71.5665 38.8268 71.5811 38.9169 71.5811 39.0157V40.049H71.3323V39.0766C71.3323 38.9222 71.2925 38.7999 71.213 38.7101C71.1331 38.62 71.019 38.5751 70.8707 38.5751C70.7998 38.5751 70.7334 38.5871 70.6722 38.6121C70.6107 38.6365 70.5574 38.672 70.512 38.7184C70.467 38.7644 70.4317 38.8197 70.4073 38.884C70.3825 38.9484 70.3701 39.019 70.3701 39.0961V40.049Z" fill="white"/>
<path d="M73.4489 40.0484V39.7133C73.4143 39.763 73.3764 39.8102 73.3344 39.855C73.2924 39.9003 73.2455 39.9399 73.1937 39.974C73.1419 40.008 73.0845 40.0353 73.0211 40.0547C72.9573 40.0742 72.8871 40.0835 72.8094 40.0835C72.7081 40.0835 72.6105 40.0641 72.5156 40.0256C72.421 39.9871 72.3358 39.9306 72.2604 39.8569C72.185 39.7829 72.1249 39.6923 72.0799 39.5846C72.0345 39.4773 72.012 39.355 72.012 39.2178C72.012 39.0805 72.0345 38.9582 72.0799 38.8509C72.1249 38.7439 72.185 38.653 72.2604 38.579C72.3358 38.5049 72.421 38.4477 72.5156 38.4084C72.6105 38.3688 72.7085 38.349 72.8094 38.349C72.8871 38.349 72.958 38.3583 73.0226 38.3778C73.0871 38.3972 73.1453 38.4227 73.1971 38.4548C73.2488 38.4874 73.2958 38.5248 73.3374 38.5678C73.3794 38.6108 73.4166 38.6557 73.4489 38.7028V37.6982H73.6977V40.048L73.4489 40.0484ZM73.4083 38.9519C73.3749 38.8729 73.3299 38.8056 73.2729 38.7503C73.2158 38.6949 73.1513 38.6515 73.0788 38.6205C73.0064 38.5895 72.9317 38.5741 72.8544 38.5741C72.7723 38.5741 72.6961 38.5883 72.6251 38.6171C72.5542 38.6459 72.4923 38.6874 72.4394 38.742C72.3865 38.7966 72.3448 38.8636 72.3137 38.9436C72.2822 39.024 72.2668 39.1142 72.2668 39.2144C72.2668 39.3128 72.2822 39.4014 72.3137 39.4803C72.3448 39.5596 72.3872 39.6273 72.4413 39.6837C72.4953 39.7402 72.5576 39.784 72.6285 39.8135C72.6994 39.8434 72.7749 39.8584 72.8548 39.8584C72.9321 39.8584 73.0068 39.8431 73.0792 39.812C73.1516 39.781 73.2158 39.738 73.2732 39.6823C73.3307 39.6265 73.3753 39.5588 73.4087 39.4788C73.4421 39.3988 73.459 39.3109 73.459 39.2144C73.4586 39.1183 73.4417 39.0311 73.4083 38.9519Z" fill="white"/>
<path d="M75.4378 38.3848H75.6832V40.0486H75.4378V39.7592C75.3823 39.8493 75.3087 39.926 75.2183 39.9892C75.1278 40.0524 75.0104 40.0842 74.8663 40.0842C74.7649 40.0842 74.6752 40.0681 74.5968 40.0359C74.518 40.0038 74.4512 39.9581 74.3964 39.899C74.3416 39.8403 74.2996 39.7696 74.2703 39.6885C74.2414 39.607 74.2268 39.5168 74.2268 39.4181V38.3848H74.4756V39.3568C74.4756 39.5112 74.5154 39.6335 74.5949 39.7236C74.6745 39.8138 74.789 39.8587 74.9372 39.8587C75.0081 39.8587 75.0745 39.8463 75.1357 39.8216C75.1972 39.7969 75.2502 39.7614 75.2941 39.7154C75.3383 39.6694 75.3732 39.6141 75.3991 39.5497C75.4247 39.4854 75.4378 39.4147 75.4378 39.3373V38.3848Z" fill="white"/>
<path d="M77.3445 39.7925C77.3133 39.8538 77.2713 39.9058 77.2184 39.9488C77.1655 39.9914 77.1032 40.0243 77.0311 40.0472C76.9591 40.0696 76.881 40.0808 76.797 40.0808C76.6765 40.0808 76.5545 40.0588 76.4318 40.0146C76.3091 39.9709 76.2003 39.9114 76.1057 39.8359L76.2318 39.659C76.3219 39.7278 76.4161 39.7801 76.5144 39.8164C76.6123 39.8531 76.7106 39.871 76.8097 39.871C76.911 39.871 76.994 39.8475 77.0585 39.8003C77.1231 39.7532 77.1553 39.6889 77.1553 39.6074V39.6006C77.1553 39.5599 77.1441 39.5243 77.1216 39.4944C77.0987 39.4645 77.0679 39.4383 77.0296 39.4155C76.9906 39.3931 76.9459 39.3732 76.8956 39.356C76.8454 39.3388 76.7928 39.3227 76.7388 39.3078C76.6742 39.2883 76.6089 39.2678 76.5433 39.245C76.4776 39.2221 76.4183 39.1941 76.3654 39.1597C76.3125 39.1253 76.2697 39.0823 76.2363 39.0307C76.2029 38.9791 76.186 38.9147 76.186 38.8373V38.831C76.186 38.7603 76.1999 38.6952 76.2281 38.6361C76.2558 38.5774 76.2952 38.5269 76.3459 38.485C76.3965 38.4435 76.4566 38.411 76.5264 38.3885C76.5966 38.3657 76.6724 38.3545 76.7538 38.3545C76.857 38.3545 76.9617 38.3713 77.0671 38.4046C77.1726 38.4379 77.2687 38.4824 77.355 38.5381L77.2417 38.7247C77.1643 38.6754 77.0829 38.6361 76.9981 38.6073C76.9133 38.5785 76.8296 38.5639 76.7478 38.5639C76.6483 38.5639 76.5699 38.5871 76.5118 38.6335C76.454 38.6795 76.4247 38.7367 76.4247 38.8055V38.8123C76.4247 38.8508 76.4367 38.8844 76.4603 38.9136C76.484 38.9428 76.5159 38.9682 76.5557 38.9891C76.5954 39.0108 76.6416 39.0299 76.693 39.0471C76.7444 39.0643 76.7985 39.0815 76.8547 39.0987C76.9193 39.1182 76.9835 39.1395 77.0469 39.1631C77.1103 39.1866 77.1681 39.2169 77.2199 39.2532C77.2717 39.2895 77.3129 39.3336 77.3441 39.3852C77.3752 39.4368 77.391 39.5004 77.391 39.5752V39.5819C77.3914 39.6616 77.3756 39.7315 77.3445 39.7925Z" fill="white"/>
<path d="M78.1618 39.5749C78.1618 39.6777 78.1873 39.7499 78.2391 39.7907C78.2909 39.8314 78.3584 39.8516 78.4425 39.8516C78.4856 39.8516 78.5262 39.8475 78.5637 39.8389C78.6016 39.8307 78.6417 39.8154 78.6845 39.794V40.0061C78.6417 40.0297 78.596 40.0476 78.5475 40.0596C78.4991 40.0715 78.4447 40.0771 78.3843 40.0771C78.3171 40.0771 78.2548 40.0689 78.1967 40.0517C78.1389 40.0345 78.0886 40.0072 78.0469 39.9694C78.0049 39.9317 77.9719 39.8834 77.9482 39.8228C77.9246 39.763 77.9126 39.6908 77.9126 39.6074V38.6029H77.6799V38.3841H77.9126V37.8818H78.1614V38.3841H78.6909V38.6029H78.1614L78.1618 39.5749Z" fill="white"/>
<path d="M79.378 40.0488H79.1292V38.385H79.378V38.8192C79.408 38.7503 79.4459 38.6871 79.4909 38.6292C79.5359 38.5716 79.5877 38.5215 79.6459 38.4799C79.7041 38.4381 79.7675 38.4063 79.8365 38.385C79.9056 38.3633 79.9799 38.3535 80.0594 38.3558V38.6232H80.0399C79.9499 38.6232 79.8639 38.6393 79.7832 38.6714C79.7022 38.7036 79.632 38.7518 79.5716 38.8165C79.5115 38.8809 79.4639 38.9609 79.4297 39.0563C79.3952 39.152 79.378 39.262 79.378 39.3861V40.0488Z" fill="white"/>
<path d="M81.2515 40.1026C81.1805 40.2743 81.1014 40.3955 81.0139 40.4665C80.9265 40.5376 80.8207 40.5727 80.6957 40.5727C80.6267 40.5727 80.5644 40.5653 80.5084 40.5514C80.4525 40.5376 80.3962 40.5166 80.3407 40.4886L80.4248 40.2926C80.4653 40.3139 80.5058 40.3297 80.5456 40.3394C80.5854 40.3487 80.6323 40.3536 80.6863 40.3536C80.7614 40.3536 80.8252 40.3311 80.877 40.2859C80.9287 40.241 80.979 40.1591 81.0286 40.0413L80.2698 38.3838H80.5441L81.1513 39.7709L81.6875 38.3838H81.9521L81.2515 40.1026Z" fill="white"/>
</g>
<defs>
<clipPath id="clip0_1757_1769">
<rect width="135.143" height="43" fill="white" transform="translate(0.6604)"/>
</clipPath>
</defs>
</svg>
