<svg width="179" height="43" viewBox="0 0 179 43" fill="none" xmlns="http://www.w3.org/2000/svg">
<path d="M25.3146 30.7208C27.1361 32.7208 30.4988 33.5608 30.4988 33.5608L23.0128 25.3208C23.0128 25.2808 23.4931 28.7008 25.3146 30.7208ZM30.4988 34.1208C30.4988 34.1208 27.096 34.9608 25.3146 36.9608C23.5132 38.9608 23.0128 42.3808 23.0128 42.3808L30.4988 34.1208ZM20.1505 30.7208C21.9719 28.7208 22.4523 25.3008 22.4523 25.3008L14.9663 33.5408C14.9663 33.5608 18.329 32.7208 20.1505 30.7208ZM22.4523 42.3608C22.4523 42.3608 21.9719 38.9408 20.1505 36.9408C18.329 34.9408 14.9663 34.1008 14.9663 34.1008L22.4523 42.3608Z" fill="white"/>
<path d="M2.69678 27.1602V40.5202H4.63833V34.3202H9.88254V32.6002H4.63833V28.8802H9.88254V27.1602H2.69678Z" fill="white"/>
<path d="M38.3443 28.7997H37.7638V32.9997H38.4844C39.4652 32.9997 40.1457 32.9197 40.506 32.7397C40.8663 32.5797 41.1465 32.3197 41.3467 31.9797C41.5469 31.6397 41.6469 31.2797 41.6469 30.8397C41.6469 30.4197 41.5268 30.0197 41.3067 29.6997C41.0865 29.3597 40.7662 29.1197 40.3459 28.9797C39.9456 28.8797 39.265 28.7997 38.3443 28.7997ZM35.8022 40.5197V27.1797H39.1649C40.546 27.1797 41.6069 27.5197 42.4276 28.1797C43.2482 28.8597 43.6285 29.7597 43.6285 30.8997C43.6285 31.6797 43.4284 32.3597 43.0481 32.9197C42.6678 33.4797 42.0873 33.8997 41.3667 34.1797C41.787 34.4597 42.2074 34.8597 42.6277 35.3197C43.0481 35.7797 43.6085 36.6397 44.3691 37.8397C44.8495 38.5997 45.2098 39.1597 45.49 39.5597L46.1906 40.5197H43.8887L43.3083 39.6597C43.2882 39.6397 43.2482 39.5797 43.1882 39.4997L42.8279 38.9597L42.2474 37.9797L41.6069 36.9397C41.2066 36.3797 40.8463 35.9597 40.506 35.6197C40.1657 35.2797 39.8855 35.0597 39.6053 34.9197C39.3251 34.7797 38.8847 34.6997 38.2642 34.6997H37.7638V40.4997H35.8223V40.5197H35.8022Z" fill="white"/>
<path d="M52.0952 27.1602H59.7213V28.8802H53.9967V32.9402H59.5212V34.6602H53.9967V38.8002H59.8815V40.5202H52.0952V27.1602Z" fill="white"/>
<path d="M75.5129 27.1602H77.4545L71.7499 40.5602H71.3095L65.5249 27.1602H67.4665L71.5097 36.5602L75.5129 27.1602Z" fill="white"/>
<path d="M83.1226 27.1602H90.7687V28.8802H85.0641V32.9402H90.5685V34.6602H85.0641V38.8002H90.9488V40.5202H83.1226V27.1602Z" fill="white"/>
<path d="M100.438 28.7997H99.8571V32.9997H100.578C101.558 32.9997 102.239 32.9197 102.599 32.7397C102.96 32.5797 103.24 32.3197 103.44 31.9797C103.64 31.6397 103.74 31.2797 103.74 30.8397C103.74 30.4197 103.62 30.0197 103.4 29.6997C103.18 29.3797 102.859 29.1197 102.439 28.9797C102.039 28.8797 101.378 28.7997 100.438 28.7997ZM97.9155 40.5197V27.1797H101.278C102.659 27.1797 103.72 27.5197 104.541 28.1797C105.361 28.8597 105.742 29.7597 105.742 30.8997C105.742 31.6797 105.542 32.3597 105.161 32.9197C104.781 33.4797 104.201 33.8997 103.48 34.1797C103.9 34.4597 104.321 34.8597 104.741 35.3197C105.161 35.7997 105.722 36.6397 106.482 37.8397C106.963 38.5997 107.323 39.1597 107.603 39.5597L108.304 40.5197H106.002L105.422 39.6597C105.402 39.6397 105.361 39.5797 105.301 39.4997L104.941 38.9597L104.361 37.9797L103.72 36.9397C103.32 36.3797 102.96 35.9597 102.619 35.6197C102.279 35.2797 101.999 35.0597 101.719 34.9197C101.438 34.7797 100.998 34.6997 100.377 34.6997H99.8771V40.4997H97.9355V40.5197H97.9155Z" fill="white"/>
<path d="M124.274 27.1602H126.055V40.5202H124.133V30.1402L119.97 35.3002H119.63L115.426 30.1402V40.5202H113.525V27.1602H115.346L119.81 32.6602L124.274 27.1602Z" fill="white"/>
<path d="M139.668 34.8806L137.506 30.0606L135.485 34.8806H139.668ZM136.846 27.1006H138.187L144.212 40.5406H142.25L140.449 36.5806H134.704L133.023 40.5406H131.021L136.846 27.1006Z" fill="white"/>
<path d="M151.675 28.7997H151.095V32.9997H151.815C152.796 32.9997 153.477 32.9197 153.837 32.7397C154.197 32.5797 154.478 32.3197 154.678 31.9797C154.878 31.6397 154.978 31.2597 154.978 30.8397C154.978 30.4197 154.858 30.0197 154.638 29.6997C154.418 29.3597 154.097 29.1197 153.677 28.9797C153.317 28.8797 152.636 28.7997 151.675 28.7997ZM149.193 40.5197V27.1797H152.556C153.937 27.1797 154.998 27.5197 155.819 28.1797C156.639 28.8597 157.02 29.7597 157.02 30.8997C157.02 31.6797 156.819 32.3597 156.439 32.9197C156.039 33.4797 155.478 33.8997 154.758 34.1797C155.178 34.4597 155.598 34.8597 156.019 35.3197C156.439 35.7997 157 36.6397 157.76 37.8397C158.241 38.5997 158.601 39.1597 158.881 39.5597L159.582 40.5197H157.28L156.699 39.6597C156.679 39.6397 156.639 39.5797 156.579 39.4997L156.219 38.9597L155.639 37.9797L154.998 36.9397C154.598 36.3797 154.237 35.9597 153.897 35.6197C153.557 35.2797 153.277 35.0597 152.996 34.9197C152.716 34.7797 152.276 34.6997 151.655 34.6997H151.115V40.4997H149.173V40.5197H149.193Z" fill="white"/>
<path d="M172.111 27.1602L166.447 33.2802V27.1602H164.505V40.5202H166.447V33.9202L173.312 40.5202H175.955L168.669 33.5002L174.493 27.1602H172.111Z" fill="white"/>
<path d="M40.7878 12.4199C41.048 12.4399 41.3282 12.4399 41.6484 12.4799C41.9887 12.4799 42.349 12.4999 42.7693 12.4999C43.2697 12.4999 43.7701 12.4799 44.2505 12.4399C44.7509 12.3799 45.2313 12.3199 45.6917 12.1799C46.132 12.0399 46.5524 11.8799 46.9527 11.6399C47.353 11.3799 47.7133 11.0799 48.0135 10.7199C48.4939 10.1399 48.8342 9.51988 48.9943 8.89988C49.1945 8.27988 49.2746 7.57988 49.2746 6.85988C49.2746 5.99988 49.1545 5.19988 48.9343 4.49988C48.7141 3.79988 48.3538 3.17988 47.8134 2.67988C47.313 2.17988 46.6324 1.77988 45.7918 1.49988C44.9511 1.21988 43.9103 1.07988 42.6492 1.07988C42.289 1.07988 41.9487 1.07988 41.6484 1.09988C41.3482 1.09988 41.068 1.11988 40.7878 1.11988V12.4199ZM36.084 12.4199H38.546V1.13988H36.084V0.919883H40.2273H40.8478C41.048 0.919883 41.2681 0.899883 41.4683 0.899883H42.0888C42.289 0.899883 42.5091 0.879883 42.7093 0.879883C43.1496 0.879883 43.55 0.879883 43.8902 0.899883C44.2505 0.899883 44.5708 0.919883 44.871 0.959883C45.1713 0.979883 45.4515 1.01988 45.7317 1.07988C46.0119 1.13988 46.3122 1.19988 46.6324 1.23988C47.5332 1.45988 48.3138 1.73988 48.9543 2.13988C49.6348 2.49988 50.1553 2.91988 50.5756 3.39988C50.9959 3.87988 51.2962 4.39988 51.4963 4.97988C51.6965 5.53988 51.7966 6.15988 51.7966 6.77988C51.7966 7.49988 51.6765 8.15988 51.4363 8.73988C51.2161 9.29988 50.8758 9.83988 50.4555 10.2799C50.0352 10.7199 49.5548 11.0999 48.9943 11.4199C48.4339 11.7199 47.8534 11.9999 47.2329 12.1999C46.8726 12.3199 46.5324 12.4199 46.2321 12.4799C45.9319 12.5399 45.5916 12.5999 45.2513 12.6199C44.9111 12.6399 44.5708 12.6799 44.1504 12.6799C43.7501 12.6799 43.2898 12.6999 42.7693 12.6999C42.5492 12.6999 42.329 12.6999 42.0688 12.6799C41.8086 12.6799 41.5684 12.6799 41.3082 12.6599C41.048 12.6599 40.8078 12.6399 40.5476 12.6399H39.847H36.064V12.4399H36.084V12.4199Z" fill="white"/>
<path d="M54.499 12.4402H56.6007V2.86016H54.499V2.66016H65.3077V5.08016H65.1075C64.9474 4.72016 64.7672 4.40016 64.5671 4.12016C64.3669 3.84016 64.1467 3.62016 63.8865 3.42016C63.6263 3.22016 63.3061 3.08016 62.9258 3.00016C62.5455 2.92016 62.1051 2.86016 61.6047 2.86016H58.4622V7.18016H59.7032C60.1235 7.18016 60.4638 7.16015 60.764 7.10015C61.0443 7.04015 61.3045 6.94016 61.4846 6.80015C61.7048 6.64016 61.8849 6.44015 62.025 6.18015C62.1652 5.90015 62.3253 5.56016 62.4454 5.14016H62.6455V9.48015H62.4454C62.3653 9.20015 62.2452 8.94015 62.1652 8.70015C62.0851 8.46015 61.945 8.22015 61.7648 8.02015C61.6047 7.82015 61.3645 7.68015 61.0843 7.58015C60.8041 7.48015 60.4438 7.38016 59.9834 7.38016H58.4622V12.4202H62.025C62.7256 12.4202 63.2861 12.3002 63.7464 12.1202C64.2268 11.9002 64.5871 11.6402 64.8673 11.3402C65.1476 11.0402 65.3677 10.7202 65.5078 10.3802C65.6479 10.0402 65.728 9.80015 65.768 9.56015H65.9682V12.6202H54.439V12.4602H54.499V12.4402Z" fill="white"/>
<path d="M77.7555 6.22035H79.7972C80.2175 6.22035 80.5778 6.20035 80.9181 6.10035C81.2583 6.00035 81.5386 5.90035 81.7788 5.70035C82.039 5.50035 82.2191 5.26035 82.3592 4.92035C82.4993 4.58035 82.5594 4.16035 82.5594 3.66035C82.5594 3.10035 82.4393 2.62035 82.2591 2.28035C82.059 1.92035 81.8188 1.66035 81.4785 1.50035C81.1783 1.34035 80.798 1.22035 80.4177 1.16035C80.0173 1.10035 79.637 1.08035 79.2768 1.08035C78.9965 1.08035 78.7363 1.08035 78.4561 1.10035C78.1759 1.10035 77.9557 1.10035 77.7555 1.12035V6.22035ZM77.7555 12.4203C77.9157 12.4203 78.1158 12.4403 78.336 12.4803C78.5562 12.4803 78.8764 12.5003 79.2567 12.5003C79.9573 12.5003 80.5378 12.4403 81.0582 12.3603C81.5586 12.2403 81.9789 12.0803 82.2992 11.8603C82.6394 11.6003 82.8596 11.2803 82.9997 10.8804C83.1398 10.4604 83.2199 9.96035 83.2199 9.34035C83.2199 8.48035 82.9597 7.76035 82.4593 7.26035C81.9589 6.76035 81.1983 6.50035 80.2175 6.50035H77.7755L77.7555 12.4203ZM73.0718 12.4203H75.5337V1.12035H73.0718V0.900352H76.9749H77.6555C77.9157 0.900352 78.1358 0.880352 78.356 0.880352C78.5762 0.880352 78.8364 0.880352 79.0566 0.880352C79.2768 0.880352 79.4969 0.860352 79.6971 0.860352C80.798 0.860352 81.6587 0.980352 82.3592 1.16035C83.0598 1.34035 83.6002 1.58035 84.0205 1.86035C84.4209 2.14035 84.7011 2.44035 84.8412 2.76035C84.9813 3.08035 85.0614 3.38035 85.0614 3.62035C85.0614 3.98035 84.9413 4.32035 84.7211 4.62035C84.521 4.92035 84.2207 5.20035 83.8604 5.44035C83.5001 5.66035 83.0998 5.86035 82.6194 6.00035C82.139 6.14035 81.6386 6.22035 81.1382 6.28035V6.30035C81.6787 6.32035 82.1991 6.42035 82.7595 6.56035C83.32 6.70035 83.8204 6.90035 84.2808 7.14035C84.7211 7.40035 85.1214 7.68035 85.4017 8.04035C85.6819 8.40035 85.822 8.82035 85.822 9.30035C85.822 9.80035 85.6819 10.2604 85.4617 10.6804C85.2015 11.1003 84.8412 11.4403 84.3408 11.7403C83.8404 12.0403 83.1999 12.2803 82.4393 12.4403C81.6787 12.6003 80.778 12.7003 79.7371 12.7003C79.537 12.7003 79.3168 12.7003 79.1166 12.6803C78.9165 12.6803 78.7163 12.6803 78.4961 12.6603C78.2759 12.6603 78.0558 12.6403 77.7956 12.6403H76.9749H73.0718V12.4203Z" fill="white"/>
<path d="M88.9282 12.4402H91.0299V2.86016H88.9282V2.66016H99.7369V5.08016H99.5367C99.3766 4.72016 99.1964 4.40016 98.9963 4.12016C98.7961 3.84016 98.576 3.62016 98.3157 3.42016C98.0555 3.22016 97.7353 3.08016 97.355 3.00016C96.9747 2.92016 96.5343 2.86016 96.0339 2.86016H92.8914V7.18016H94.1324C94.5527 7.18016 94.893 7.16015 95.1932 7.10015C95.4735 7.04015 95.7337 6.94016 95.9138 6.80015C96.134 6.64016 96.3141 6.44015 96.4542 6.18015C96.5944 5.90015 96.7545 5.56016 96.8946 5.14016H97.0948V9.48015H96.8746C96.7945 9.20015 96.7145 8.94015 96.5944 8.70015C96.5143 8.44015 96.3742 8.22015 96.194 8.02015C96.0339 7.82015 95.7937 7.68015 95.5135 7.58015C95.2333 7.48015 94.873 7.38016 94.4126 7.38016H92.8914V12.4202H96.4542C97.1548 12.4202 97.7153 12.3002 98.1756 12.1202C98.656 11.9002 99.0163 11.6402 99.2965 11.3402C99.5768 11.0402 99.7969 10.7202 99.937 10.3802C100.077 10.0402 100.157 9.80015 100.197 9.56015H100.397V12.6202H88.8882L88.9282 12.4402Z" fill="white"/>
<path d="M103.638 12.4402H105.74V2.86016H103.638V2.66016H114.447V5.08016H114.247C114.087 4.72016 113.906 4.40016 113.706 4.12016C113.506 3.84016 113.286 3.62016 113.026 3.42016C112.766 3.22016 112.445 3.08016 112.065 3.00016C111.705 2.92016 111.244 2.86016 110.744 2.86016H107.601V7.18016H108.842C109.263 7.18016 109.603 7.16016 109.903 7.10016C110.183 7.04016 110.444 6.94016 110.624 6.80016C110.844 6.64016 111.024 6.44016 111.164 6.18016C111.304 5.90016 111.464 5.56016 111.605 5.14016H111.805V9.48016H111.605C111.525 9.20016 111.404 8.94016 111.324 8.70016C111.244 8.46016 111.104 8.22016 110.924 8.02016C110.764 7.82016 110.524 7.68016 110.243 7.58016C109.963 7.48016 109.603 7.42016 109.143 7.42016H107.681V12.4602H111.244C111.945 12.4602 112.505 12.3402 112.966 12.1602C113.446 11.9402 113.806 11.6802 114.087 11.3802C114.367 11.0802 114.587 10.7602 114.727 10.4202C114.867 10.0802 114.947 9.84016 114.987 9.60016H115.187V12.6602H103.658L103.638 12.4402Z" fill="white"/>
<path d="M122.294 7.20062H124.035C124.395 7.20062 124.716 7.18062 124.996 7.08063C125.276 7.02063 125.536 6.92062 125.716 6.74062C125.937 6.58062 126.077 6.34062 126.197 6.06062C126.317 5.78062 126.357 5.42062 126.357 5.00062C126.357 4.52062 126.277 4.14062 126.097 3.86062C125.937 3.56062 125.696 3.32062 125.416 3.18062C125.156 3.04062 124.856 2.92062 124.516 2.88062C124.175 2.82062 123.875 2.82063 123.535 2.82063C123.315 2.82063 123.094 2.82063 122.834 2.82063C122.614 2.82063 122.414 2.82062 122.254 2.84062V7.20062H122.294ZM118.311 12.4806H120.412V2.88062H118.311V2.68062H121.893H122.334C122.474 2.68062 122.634 2.66063 122.774 2.66063C122.914 2.66063 123.074 2.66063 123.214 2.66063C123.355 2.66063 123.515 2.64062 123.655 2.64062C124.375 2.64062 125.056 2.66063 125.616 2.76063C126.177 2.82063 126.717 2.98062 127.218 3.26062C127.658 3.52062 127.978 3.80063 128.138 4.12063C128.339 4.42062 128.419 4.74062 128.419 5.02062C128.419 5.16062 128.399 5.36062 128.299 5.56062C128.238 5.78062 128.078 6.00062 127.858 6.24062C127.638 6.46062 127.298 6.66062 126.857 6.86062C126.417 7.06062 125.817 7.16062 125.096 7.22062V7.24062C125.296 7.26062 125.576 7.30062 125.917 7.36062C126.277 7.42062 126.617 7.50062 126.977 7.62062C127.338 7.74062 127.678 7.90062 127.978 8.12062C128.279 8.32062 128.479 8.56062 128.619 8.88062C128.699 9.08062 128.759 9.28062 128.759 9.52062C128.779 9.74062 128.819 10.0006 128.839 10.2406C128.859 10.5006 128.899 10.7406 128.899 10.9606C128.919 11.1806 128.959 11.3806 129.019 11.5406C129.099 11.8006 129.219 11.9806 129.379 12.1806C129.54 12.3806 129.8 12.4806 130.16 12.4806C130.32 12.4806 130.5 12.4606 130.66 12.4206C130.821 12.3606 131.001 12.3006 131.141 12.2006L131.301 12.3606C131.241 12.3806 131.161 12.4406 131.081 12.5006C131.001 12.5206 130.921 12.5806 130.781 12.6206C130.66 12.6406 130.5 12.6806 130.3 12.7006C130.14 12.7206 129.9 12.7606 129.62 12.7606C129.119 12.7606 128.699 12.7006 128.359 12.6206C128.018 12.5406 127.778 12.4006 127.578 12.2206C127.378 12.0206 127.218 11.8006 127.138 11.5406C127.058 11.2606 126.998 10.9606 126.937 10.6206L126.797 9.36062C126.737 8.88062 126.637 8.52062 126.437 8.26062C126.237 8.00062 125.997 7.82062 125.716 7.68062C125.456 7.56063 125.176 7.48062 124.876 7.48062C124.596 7.46062 124.335 7.46062 124.115 7.46062H122.234V12.5006H124.335V12.7006H118.291V12.4406H118.311V12.4806Z" fill="white"/>
<path d="M132.961 9.64047H133.161C133.301 10.1405 133.461 10.5605 133.702 10.9005C133.922 11.2405 134.182 11.5405 134.422 11.7405C134.682 11.9605 134.963 12.1405 135.263 12.2805C135.543 12.4005 135.843 12.4805 136.123 12.5405C136.424 12.6005 136.704 12.6205 136.964 12.6605C137.244 12.6605 137.505 12.6805 137.745 12.6805C138.425 12.6805 138.946 12.6005 139.366 12.4605C139.786 12.3205 140.127 12.1205 140.367 11.9005C140.627 11.6805 140.787 11.4205 140.907 11.1805C141.027 10.9005 141.047 10.8205 141.047 10.6805C141.047 10.3405 140.967 10.0605 140.787 9.84047C140.627 9.62047 140.427 9.42047 140.167 9.26047C139.906 9.10047 139.626 8.96047 139.326 8.84047C139.046 8.72047 138.766 8.68047 138.485 8.58047L136.324 8.10047C135.323 7.88047 134.522 7.56047 134.002 7.18047C133.501 6.78047 133.221 6.04047 133.221 5.38047C133.221 4.96047 133.341 4.56047 133.521 4.24047C133.722 3.88047 134.002 3.56047 134.362 3.32047C134.722 3.06047 135.143 2.84047 135.643 2.70047C136.143 2.56047 136.704 2.48047 137.324 2.48047C137.765 2.48047 138.145 2.50047 138.425 2.56047C138.726 2.62047 138.986 2.68047 139.206 2.76047C139.426 2.82047 139.606 2.90047 139.766 2.92047C139.927 2.98047 140.127 3.00047 140.307 3.00047C140.467 3.00047 140.587 2.98047 140.607 2.98047C140.667 2.96047 140.747 2.86047 140.867 2.72047H141.127V5.20047H140.907C140.827 4.86047 140.707 4.56047 140.507 4.24047C140.347 3.94047 140.087 3.66047 139.806 3.40047C139.526 3.14047 139.166 2.98047 138.746 2.84047C138.345 2.70047 137.885 2.62047 137.344 2.62047C137.044 2.62047 136.704 2.64047 136.344 2.70047C135.983 2.76047 135.643 2.86047 135.343 3.00047C135.043 3.14047 134.762 3.34047 134.562 3.58047C134.362 3.84047 134.262 4.14047 134.262 4.50047C134.262 4.80047 134.342 5.06047 134.522 5.26047C134.682 5.46047 134.882 5.66047 135.143 5.80047C135.403 5.94047 135.703 6.06047 136.003 6.16047C136.344 6.24047 136.644 6.32047 136.984 6.42047L139.266 6.96047C139.526 7.02047 139.806 7.10047 140.167 7.18047C140.527 7.26047 140.887 7.40047 141.228 7.60047C141.588 7.80047 141.868 8.02047 142.128 8.32047C142.388 8.62047 142.489 9.02047 142.489 9.50047C142.489 9.94047 142.368 10.3605 142.148 10.7605C141.928 11.1605 141.608 11.4805 141.188 11.8005C140.767 12.1005 140.267 12.3405 139.666 12.5205C139.086 12.6805 138.405 12.7805 137.665 12.7805C137.404 12.7805 137.164 12.7805 136.964 12.7605C136.764 12.7605 136.564 12.7605 136.404 12.7405C136.244 12.7205 136.043 12.6805 135.863 12.6605C135.703 12.6405 135.503 12.6005 135.283 12.5405C135.023 12.4805 134.742 12.4205 134.462 12.3405C134.182 12.2605 133.922 12.2205 133.702 12.2205C133.501 12.2205 133.401 12.2405 133.301 12.3005C133.241 12.3605 133.181 12.4405 133.141 12.5205H132.861L132.961 9.64047Z" fill="white"/>
</svg>
