<?xml version="1.0" standalone="no"?>
<!DOCTYPE svg PUBLIC "-//W3C//DTD SVG 20010904//EN"
 "http://www.w3.org/TR/2001/REC-SVG-20010904/DTD/svg10.dtd">
<svg version="1.0" xmlns="http://www.w3.org/2000/svg"
 width="192.57E4FF" height="257.000000pt" viewBox="0 0 192.000000 257.000000"
 preserveAspectRatio="xMidYMid meet">

<g transform="translate(0.000000,257.000000) scale(0.100000,-0.100000)"
fill="#57E4FF" stroke="none">
<path d="M649 2537 c-10 -21 -5 -45 34 -160 l45 -135 -36 -7 c-48 -9 -123 -48
-166 -86 -42 -36 -90 -129 -107 -205 -11 -50 -23 -66 -103 -152 -187 -199
-186 -198 -186 -238 0 -34 10 -47 104 -143 134 -136 135 -136 291 -32 119 80
198 121 231 121 35 0 84 -21 84 -36 0 -39 -55 -110 -194 -254 -131 -135 -159
-168 -194 -239 -23 -45 -49 -116 -58 -159 -16 -74 -19 -78 -63 -107 -68 -45
-103 -108 -109 -198 l-4 -73 -46 -18 c-108 -45 -162 -131 -170 -268 -4 -71 -2
-92 12 -113 l16 -25 921 0 c615 0 927 3 940 10 17 10 19 22 19 113 0 91 -3
109 -26 155 -29 59 -80 105 -140 128 l-42 16 -4 66 c-2 38 -12 84 -23 107 -26
54 -88 111 -138 128 -42 13 -42 14 -45 68 -7 115 25 198 145 372 118 171 157
271 169 432 12 154 -30 385 -93 508 -80 160 -185 263 -348 343 -164 80 -237
95 -492 101 l-212 5 -12 -25z m456 -103 c233 -45 413 -172 506 -359 56 -113
79 -207 86 -357 9 -202 -24 -312 -145 -481 -116 -160 -159 -260 -170 -399 l-7
-83 -440 0 -440 0 3 30 c6 49 38 130 72 182 18 26 95 111 170 188 131 133 181
200 195 255 6 24 8 25 98 25 82 0 98 3 152 30 49 25 61 35 63 58 7 59 -33 71
-113 36 -64 -28 -163 -22 -255 16 -95 40 -157 38 -245 -5 -38 -19 -111 -63
-161 -96 l-92 -61 -72 72 -71 72 125 131 c69 72 132 142 139 154 8 13 17 45
21 72 7 61 51 141 93 173 37 29 111 53 160 53 85 0 91 30 33 191 -22 62 -40
117 -40 122 0 14 232 0 335 -19z m382 -1795 c65 -24 113 -97 113 -171 l0 -28
-641 0 -642 0 6 51 c8 66 38 112 90 138 41 20 55 21 544 21 329 0 511 -4 530
-11z m233 -331 c52 -27 90 -89 90 -150 l0 -38 -851 0 -852 0 6 55 c7 68 36
111 91 136 39 18 80 19 756 19 l716 0 44 -22z"/>
</g>
</svg>
