<svg width="400" height="62" viewBox="0 0 400 62" fill="none" xmlns="http://www.w3.org/2000/svg">
<g clip-path="url(#clip0_575_59)">
<path d="M3.85565 36.7927C3.85782 32.2411 5.0683 27.7717 7.36343 23.8412C9.65856 19.9106 12.956 16.6598 16.9189 14.421C20.8818 12.1821 25.3681 11.0355 29.9192 11.0983C34.4704 11.161 38.9233 12.4309 42.8229 14.7782C40.1549 12.3981 37.0197 10.6009 33.6177 9.5014C30.2156 8.40188 26.6216 8.02424 23.0653 8.39263C19.509 8.76101 16.0687 9.86732 12.9643 11.6408C9.85987 13.4143 7.1596 15.816 5.0361 18.6924C2.9126 21.5688 1.41257 24.8566 0.631896 28.3456C-0.148776 31.8347 -0.192921 35.4482 0.502285 38.9553C1.19749 42.4623 2.61676 45.7858 4.66936 48.7132C6.72196 51.6406 9.36275 54.1075 12.4229 55.9564C9.72496 53.5463 7.56697 50.5931 6.0905 47.2905C4.61403 43.9878 3.85243 40.4104 3.85565 36.7927Z" fill="white"/>
<path d="M37.6639 60.2618C32.1374 60.247 26.777 58.3708 22.4475 54.9361C18.118 51.5013 15.0719 46.7082 13.8004 41.3299C12.529 35.9516 13.1064 30.3019 15.4395 25.292C17.7726 20.2822 21.7254 16.2043 26.6602 13.7164C23.4943 14.5954 20.5392 16.1065 17.973 18.1585C15.4068 20.2105 13.2828 22.7609 11.729 25.656C10.1752 28.5511 9.22372 31.7308 8.93202 35.0036C8.64033 38.2763 9.01443 41.5742 10.0318 44.6985C11.0491 47.8227 12.6886 50.7086 14.8514 53.1821C17.0142 55.6555 19.6555 57.6654 22.6161 59.0905C25.5767 60.5156 28.7952 61.3263 32.0776 61.4739C35.36 61.6215 38.6383 61.1028 41.7148 59.9491C40.3757 60.1677 39.0206 60.2723 37.6639 60.2618Z" fill="white"/>
<path d="M40.8383 54.0655C36.3955 54.0671 32.0167 53.0066 28.067 50.9723C24.1174 48.938 20.7113 45.9889 18.1328 42.3709C19.8882 46.2241 22.6214 49.5507 26.0608 52.0203C29.5002 54.4898 33.5259 56.0163 37.738 56.4479C41.9501 56.8796 46.2019 56.2014 50.0706 54.4808C53.9394 52.7602 57.2906 50.057 59.791 46.64C54.638 51.42 47.8669 54.0729 40.8383 54.0655Z" fill="white"/>
<path d="M71.2228 44.4036C69.2128 43.5881 67.4558 42.2528 66.1319 40.5346C64.8848 38.8881 64.1648 36.903 64.0664 34.84H70.1246C70.1999 35.695 70.46 36.5235 70.887 37.2681C71.3139 38.0128 71.8975 38.6558 72.5973 39.1527C74.301 40.3329 76.3452 40.9206 78.4155 40.8255C80.2877 40.9357 82.1439 40.4244 83.6955 39.3709C84.2954 38.9505 84.7843 38.3906 85.12 37.7394C85.4557 37.0883 85.6282 36.3653 85.6228 35.6327C85.6485 34.9209 85.468 34.2167 85.1028 33.6051C84.7377 32.9935 84.2035 32.5005 83.5646 32.1855C81.5326 31.1992 79.3919 30.4547 77.1864 29.9673C75.0044 29.4278 72.8652 28.7277 70.7864 27.8727C69.1378 27.1733 67.6794 26.0913 66.5319 24.7164C65.4113 23.2104 64.7928 21.39 64.7641 19.5131C64.7354 17.6362 65.2979 15.7977 66.3719 14.2582C67.5435 12.6722 69.1249 11.4352 70.9464 10.68C73.0848 9.74483 75.3981 9.27623 77.7319 9.30546C81.6397 9.30546 84.7913 10.2921 87.1864 12.2655C88.3852 13.2582 89.3526 14.5009 90.0209 15.9067C90.6893 17.3124 91.0423 18.8472 91.0555 20.4036H85.1937C85.1657 19.5506 84.9567 18.7133 84.5805 17.9473C84.2044 17.1812 83.6697 16.5038 83.0119 15.96C81.4548 14.7731 79.527 14.1778 77.5719 14.28C75.7956 14.1865 74.0357 14.6602 72.5464 15.6327C71.9639 16.0201 71.4877 16.5471 71.1612 17.1658C70.8347 17.7845 70.6684 18.4751 70.6773 19.1745C70.6595 19.7038 70.7503 20.2312 70.9442 20.724C71.1381 21.2168 71.4309 21.6647 71.8046 22.04C72.615 22.831 73.5809 23.4452 74.6409 23.8436C76.1912 24.4314 77.7716 24.9364 79.3755 25.3564C81.4759 25.9048 83.5404 26.5825 85.5573 27.3855C87.1361 28.0495 88.5363 29.076 89.6446 30.3818C90.8321 31.8562 91.4583 33.7038 91.4119 35.5964C91.4327 37.4596 90.8708 39.2828 89.8046 40.8109C88.6569 42.4191 87.0861 43.6778 85.2664 44.4473C83.1438 45.3624 80.8502 45.8137 78.5391 45.7709C76.0326 45.8189 73.5428 45.3536 71.2228 44.4036Z" fill="white"/>
<path d="M106.765 13.7091V34.5091C106.765 36.2255 107.131 37.4376 107.863 38.1455C108.595 38.8533 109.861 39.2097 111.66 39.2145H115.972V44.1673H110.692C107.434 44.1673 104.988 43.4158 103.354 41.9127C101.72 40.4097 100.906 37.9418 100.91 34.5091V13.7091H96.3359V8.88H100.91V0H106.729V8.88H115.936V13.7091H106.765Z" fill="white"/>
<path d="M133.382 10.473C135.521 9.30254 137.934 8.72503 140.371 8.80028V14.8366H138.83C132.26 14.8366 128.975 18.4003 128.975 25.5276V44.713H123.113V9.40392H128.975V15.1348C129.963 13.188 131.494 11.5689 133.382 10.473Z" fill="white"/>
<path d="M147.075 16.9018C148.444 14.2647 150.529 12.0668 153.09 10.56C155.679 9.04781 158.63 8.26846 161.628 8.30547C164.44 8.23421 167.218 8.92263 169.672 10.2982C171.795 11.4774 173.556 13.2153 174.763 15.3236V8.88001H180.683V44.1673H174.763V37.6218C173.518 39.75 171.728 41.5074 169.577 42.7127C167.143 44.0998 164.378 44.801 161.577 44.7418C158.582 44.7796 155.636 43.9758 153.075 42.4218C150.516 40.8516 148.443 38.6004 147.09 35.92C145.594 32.9705 144.845 29.6991 144.908 26.3927C144.829 23.098 145.574 19.8357 147.075 16.9018ZM173.148 19.5055C172.15 17.6118 170.637 16.0387 168.784 14.9673C166.95 13.9418 164.883 13.4034 162.781 13.4034C160.679 13.4034 158.612 13.9418 156.777 14.9673C154.941 16.0294 153.443 17.5903 152.457 19.4691C151.346 21.6176 150.793 24.011 150.85 26.4291C150.792 28.8753 151.344 31.2974 152.457 33.4764C153.44 35.3757 154.937 36.9607 156.777 38.0509C158.594 39.1054 160.662 39.6506 162.763 39.6291C164.874 39.6471 166.953 39.1024 168.784 38.0509C170.645 36.9735 172.16 35.3862 173.148 33.4764C174.264 31.319 174.819 28.9155 174.763 26.4873C174.824 24.0609 174.269 21.6585 173.148 19.5055Z" fill="white"/>
<path d="M197.733 13.7091V34.5091C197.733 36.2255 198.096 37.4376 198.823 38.1455C199.551 38.8727 200.823 39.2145 202.62 39.2145H206.94V44.1673H201.66C198.392 44.1673 195.943 43.4158 194.314 41.9127C192.685 40.4097 191.885 37.9418 191.914 34.5091V13.7091H187.34V8.88H191.914V0H197.733V8.88H206.94V13.7091H197.733Z" fill="white"/>
<path d="M214.044 16.9018C215.413 14.2647 217.498 12.0668 220.059 10.56C222.647 9.04779 225.599 8.26844 228.597 8.30544C231.408 8.23527 234.187 8.92362 236.64 10.2982C238.764 11.4773 240.525 13.2153 241.731 15.3236V8.87999H247.651V44.1673H241.731V37.6218C240.487 39.7499 238.697 41.5074 236.546 42.7127C234.112 44.0998 231.347 44.801 228.546 44.7418C225.551 44.7796 222.605 43.9757 220.044 42.4218C217.484 40.8516 215.412 38.6004 214.059 35.92C212.563 32.9705 211.814 29.6991 211.877 26.3927C211.798 23.098 212.543 19.8357 214.044 16.9018ZM240.124 19.5054C239.123 17.6139 237.611 16.0415 235.76 14.9673C233.926 13.9418 231.859 13.4033 229.757 13.4033C227.655 13.4033 225.588 13.9418 223.753 14.9673C221.917 16.0293 220.419 17.5903 219.433 19.4691C218.322 21.6176 217.769 24.011 217.826 26.4291C217.768 28.8753 218.32 31.2974 219.433 33.4764C220.416 35.3757 221.913 36.9607 223.753 38.0509C225.57 39.1054 227.638 39.6505 229.739 39.6291C231.85 39.6471 233.929 39.1024 235.76 38.0509C237.619 36.9706 239.133 35.3841 240.124 33.4764C241.235 31.3173 241.787 28.9146 241.731 26.4873C241.792 24.0618 241.239 21.6604 240.124 19.5054Z" fill="white"/>
<path d="M280.138 10.2982C282.263 11.4746 284.025 13.2132 285.229 15.3236V8.87998H291.156V44.9454C291.209 47.9375 290.498 50.8938 289.09 53.5345C287.737 56.0281 285.691 58.0767 283.199 59.4327C280.469 60.8957 277.41 61.6367 274.312 61.5854C269.672 61.5854 265.808 60.4897 262.719 58.2982C261.228 57.2767 259.97 55.9518 259.026 54.4103C258.082 52.8688 257.475 51.1453 257.243 49.3527H263.061C263.716 51.5079 265.136 53.3494 267.054 54.5309C269.233 55.8839 271.762 56.5667 274.327 56.4945C275.777 56.5507 277.224 56.3114 278.579 55.7913C279.934 55.2713 281.17 54.4812 282.21 53.4691C284.256 51.4521 285.277 48.6206 285.272 44.9745V37.5345C284.035 39.6731 282.26 41.4507 280.123 42.6909C277.699 44.1048 274.929 44.8173 272.123 44.7491C269.116 44.7875 266.158 43.981 263.587 42.4214C261.015 40.8618 258.933 38.6118 257.578 35.9273C256.082 32.9777 255.333 29.7064 255.396 26.4C255.32 23.1016 256.07 19.8366 257.578 16.9018C258.947 14.2626 261.035 12.0641 263.599 10.56C266.185 9.04667 269.135 8.26718 272.13 8.30544C274.929 8.24358 277.694 8.93161 280.138 10.2982ZM283.65 19.5054C282.65 17.6139 281.138 16.0415 279.287 14.9673C277.452 13.9418 275.385 13.4033 273.283 13.4033C271.181 13.4033 269.114 13.9418 267.279 14.9673C265.443 16.0293 263.945 17.5903 262.959 19.4691C261.849 21.6176 261.296 24.011 261.352 26.4291C261.294 28.8752 261.846 31.2974 262.959 33.4763C263.943 35.3757 265.439 36.9607 267.279 38.0509C269.097 39.1047 271.164 39.6498 273.265 39.6291C275.377 39.6471 277.455 39.1024 279.287 38.0509C281.146 36.9706 282.659 35.3841 283.65 33.4763C284.761 31.3173 285.314 28.9146 285.258 26.4873C285.318 24.0618 284.765 21.6604 283.65 19.5054Z" fill="white"/>
<path d="M333.097 28.7127H304.893C305.111 32.1891 306.304 34.9043 308.471 36.8582C310.63 38.8019 313.452 39.8431 316.355 39.7673C318.601 39.8501 320.817 39.2325 322.697 38C324.367 36.8468 325.621 35.1868 326.275 33.2655H332.588C331.688 36.5868 329.688 39.5047 326.915 41.5418C324.088 43.6655 320.568 44.7273 316.355 44.7273C313.215 44.7809 310.116 44.003 307.373 42.4727C304.733 40.9747 302.577 38.7511 301.162 36.0655C299.61 33.0974 298.835 29.7849 298.908 26.4364C298.831 23.1076 299.58 19.8117 301.09 16.8437C302.477 14.174 304.616 11.9692 307.242 10.5018C310.033 8.98265 313.171 8.21806 316.348 8.28365C319.45 8.21801 322.516 8.97051 325.235 10.4655C327.758 11.8648 329.827 13.9569 331.199 16.4946C332.621 19.1544 333.342 22.1331 333.293 25.1491C333.29 26.3396 333.225 27.5291 333.097 28.7127ZM325.73 18.1891C324.766 16.6162 323.369 15.3539 321.708 14.5527C319.952 13.7025 318.022 13.2718 316.071 13.2946C313.279 13.2313 310.57 14.2473 308.508 16.1309C306.418 18.0218 305.225 20.64 304.93 23.9855H327.213C327.276 21.9521 326.761 19.9425 325.73 18.1891Z" fill="white"/>
<path d="M346.231 43.4036C344.221 42.5881 342.464 41.2528 341.14 39.5346C339.895 37.8875 339.178 35.9024 339.082 33.84H345.133C345.208 34.6959 345.469 35.5251 345.897 36.2699C346.326 37.0147 346.911 37.6572 347.613 38.1527C349.314 39.3374 351.36 39.9256 353.431 39.8255C355.303 39.9357 357.16 39.4244 358.711 38.3709C359.312 37.9508 359.802 37.3912 360.139 36.7401C360.476 36.089 360.65 35.3659 360.646 34.6327C360.671 33.9201 360.489 33.2154 360.123 32.6037C359.756 31.992 359.22 31.4994 358.58 31.1855C356.55 30.2002 354.412 29.4557 352.209 28.9673C350.025 28.4276 347.883 27.7276 345.802 26.8727C344.156 26.173 342.7 25.091 341.555 23.7164C340.314 22.1579 339.683 20.2007 339.78 18.2109C339.774 16.4308 340.337 14.6953 341.388 13.2582C342.561 11.674 344.142 10.4375 345.962 9.68C348.098 8.76825 350.403 8.31961 352.726 8.36364C356.629 8.36364 359.78 9.35031 362.18 11.3236C363.377 12.3064 364.344 13.5387 365.015 14.9343C365.686 16.33 366.044 17.8553 366.064 19.4036H360.209C360.174 18.5477 359.957 17.7091 359.573 16.9431C359.19 16.1771 358.648 15.5012 357.984 14.96C356.427 13.7731 354.499 13.1778 352.544 13.28C350.78 13.1883 349.032 13.6539 347.547 14.6109C346.966 14.9986 346.491 15.526 346.165 16.1447C345.84 16.7634 345.675 17.4538 345.686 18.1527C345.667 18.6822 345.757 19.2099 345.951 19.7029C346.145 20.1959 346.438 20.6437 346.813 21.0182C347.621 21.809 348.584 22.4233 349.642 22.8218C351.193 23.4074 352.773 23.9123 354.377 24.3345C356.477 24.883 358.542 25.5607 360.558 26.3636C362.138 27.0256 363.539 28.0524 364.646 29.36C365.836 30.8333 366.465 32.6811 366.42 34.5746C366.442 36.439 365.877 38.2631 364.806 39.7891C363.661 41.4005 362.09 42.6599 360.267 43.4255C358.145 44.3406 355.851 44.7919 353.54 44.7491C351.038 44.8022 348.551 44.3444 346.231 43.4036Z" fill="white"/>
<path d="M379.848 43.4036C377.838 42.5881 376.081 41.2528 374.757 39.5345C373.51 37.8881 372.79 35.903 372.691 33.84H378.75C378.825 34.695 379.085 35.5235 379.512 36.2681C379.939 37.0127 380.522 37.6558 381.222 38.1527C382.926 39.3329 384.97 39.9206 387.04 39.8254C388.913 39.9346 390.768 39.4234 392.32 38.3709C392.92 37.9504 393.409 37.3906 393.745 36.7394C394.081 36.0882 394.253 35.3653 394.248 34.6327C394.274 33.9209 394.093 33.2167 393.728 32.6051C393.363 31.9935 392.828 31.5005 392.19 31.1854C390.158 30.1992 388.017 29.4547 385.811 28.9673C383.629 28.4278 381.49 27.7277 379.411 26.8727C377.763 26.1733 376.304 25.0913 375.157 23.7164C374.036 22.2104 373.418 20.39 373.389 18.5131C373.36 16.6361 373.923 14.7977 374.997 13.2582C376.169 11.6722 377.75 10.4352 379.571 9.67999C381.705 8.76883 384.008 8.32019 386.328 8.36363C390.231 8.36363 393.382 9.35029 395.782 11.3236C396.979 12.3073 397.947 13.5394 398.621 14.9346C399.294 16.3298 399.655 17.8547 399.68 19.4036H393.819C393.791 18.5506 393.582 17.7133 393.206 16.9472C392.829 16.1811 392.295 15.5038 391.637 14.96C390.08 13.7731 388.152 13.1778 386.197 13.28C384.421 13.1865 382.661 13.6602 381.171 14.6327C380.589 15.0201 380.113 15.5471 379.786 16.1658C379.46 16.7845 379.293 17.4751 379.302 18.1745C379.284 18.7038 379.375 19.2312 379.569 19.724C379.763 20.2168 380.056 20.6647 380.43 21.04C381.24 21.831 382.206 22.4452 383.266 22.8436C384.816 23.4314 386.397 23.9364 388 24.3564C390.101 24.9048 392.165 25.5825 394.182 26.3854C395.761 27.0495 397.161 28.076 398.27 29.3818C399.457 30.8561 400.083 32.7038 400.037 34.5964C400.058 36.4596 399.496 38.2827 398.43 39.8109C397.282 41.4191 395.711 42.6778 393.891 43.4473C391.766 44.363 389.47 44.8143 387.157 44.7709C384.653 44.8181 382.165 44.3529 379.848 43.4036Z" fill="white"/>
</g>
<defs>
<clipPath id="clip0_575_59">
<rect width="400" height="61.5564" fill="white"/>
</clipPath>
</defs>
</svg>
