<svg width="503" height="450" viewBox="0 0 503 450" fill="none" xmlns="http://www.w3.org/2000/svg">
<path d="M180.604 2.88267C137.611 10.6365 98.7838 30.1155 67.5328 60.1851C48.4035 78.3403 36.0925 94.6044 24.5391 117.109C-23.379 210.722 0.485331 323.058 82.1166 387.546C103.14 404 105.413 404.189 90.6396 388.114C66.0176 361.448 48.9717 330.055 39.3123 293.555C34.1985 274.833 32.3045 230.201 35.7137 207.507C41.9639 164.199 63.9342 121.27 96.3216 88.7418C162.99 21.7944 262.804 5.71945 348.602 48.0816C360.913 54.1334 361.86 54.5116 356.746 50.1619C347.655 42.219 327.389 29.1699 314.51 22.74C274.926 2.8827 223.409 -4.682 180.604 2.88267Z" fill="#ffffff"/>
<path d="M202.766 53.7553C107.877 92.7133 55.6025 196.728 81.1714 295.257C110.528 408.728 229.093 475.108 341.407 441.067L352.392 437.662H319.626C294.625 437.662 283.45 436.906 272.844 434.258C196.326 415.725 138.749 360.314 117.915 285.234C111.286 261.216 109.581 222.447 114.127 196.917C124.733 136.588 159.772 85.716 212.994 53.7553C226.82 45.4341 223.032 45.4341 202.766 53.7553Z" fill="#ffffff"/>
<path d="M159.765 301.498C188.175 355.018 243.479 394.922 304.466 405.513C352.005 413.834 405.227 403.811 446.895 378.847C462.425 369.391 488.941 346.319 499.737 332.703C505.23 325.894 504.283 326.273 487.994 338.376C458.069 361.07 419.053 377.902 382.499 383.953C366.4 386.601 324.353 386.601 308.254 383.953C259.01 375.632 209.387 349.723 175.864 314.547C169.045 307.361 161.09 298.472 158.06 294.879C153.136 288.828 153.325 289.584 159.765 301.498Z" fill="#ffffff"/>
</svg>
