<?xml version="1.0" standalone="no"?>
<!DOCTYPE svg PUBLIC "-//W3C//DTD SVG 20010904//EN"
 "http://www.w3.org/TR/2001/REC-SVG-20010904/DTD/svg10.dtd">
<svg version="1.0" xmlns="http://www.w3.org/2000/svg"
 width="311.000000pt" height="298.000000pt" viewBox="0 0 311.000000 298.000000"
 preserveAspectRatio="xMidYMid meet">

<g transform="translate(0.000000,298.000000) scale(0.100000,-0.100000)"
fill="#57E4FF" stroke="none">
<path d="M1855 2968 c-11 -6 -23 -16 -27 -22 -4 -6 -8 -233 -8 -504 l0 -492
-192 -308 c-105 -169 -254 -408 -331 -532 -77 -124 -143 -229 -147 -233 -3 -4
-68 91 -143 212 -76 120 -144 224 -151 231 -8 6 -27 10 -43 8 -31 -3 7 54
-532 -811 -150 -241 -275 -447 -278 -457 -3 -10 0 -27 6 -39 l12 -21 1527 0
c1175 0 1531 3 1540 12 27 27 9 68 -131 293 -79 127 -248 399 -377 605 -128
206 -325 522 -437 701 l-203 327 0 156 0 156 385 0 c372 0 386 1 405 20 37 37
26 57 -100 185 -66 66 -120 125 -120 130 0 5 54 64 120 130 70 72 120 130 120
141 0 11 -7 30 -16 42 l-15 22 -390 0 c-253 0 -389 4 -389 10 0 14 -38 50 -52
50 -7 0 -22 -6 -33 -12z m597 -262 c-70 -71 -92 -100 -92 -120 0 -20 22 -50
91 -121 l92 -95 -302 0 -301 0 0 215 0 215 302 0 302 0 -92 -94z m-425 -1136
c134 -216 461 -740 761 -1222 78 -125 142 -230 142 -233 0 -3 -296 -5 -657 -5
l-658 0 -190 306 c-104 168 -194 313 -198 323 -6 12 6 40 44 102 29 46 170
273 314 504 144 231 267 431 274 444 7 13 16 19 21 15 4 -5 71 -110 147 -234z
m-1046 -667 c84 -137 229 -369 321 -517 93 -147 168 -270 168 -272 0 -2 -292
-4 -650 -4 l-650 0 39 63 c21 34 107 172 191 307 84 135 212 341 284 457 72
117 134 213 137 213 3 0 75 -111 160 -247z"/>
</g>
</svg>
