<?xml version="1.0" standalone="no"?>
<!DOCTYPE svg PUBLIC "-//W3C//DTD SVG 20010904//EN"
 "http://www.w3.org/TR/2001/REC-SVG-20010904/DTD/svg10.dtd">
<svg version="1.0" xmlns="http://www.w3.org/2000/svg"
 width="700.000000pt" height="700.000000pt" viewBox="0 0 700.000000 700.000000"
 preserveAspectRatio="xMidYMid meet">
<metadata>
Created by potrace 1.14, written by Peter Selinger 2001-2017
</metadata>
<g transform="translate(0.000000,700.000000) scale(0.100000,-0.100000)"
fill="#000000" stroke="none">
<path d="M6519 6907 c-28 -18 -345 -448 -534 -722 -19 -27 -61 -87 -95 -133
-33 -46 -60 -88 -60 -94 0 -6 3 -9 6 -6 7 8 115 -35 173 -68 93 -55 189 -156
235 -250 15 -31 29 -54 31 -52 2 2 37 77 78 168 41 91 87 192 102 225 15 33
45 101 67 150 22 50 54 119 71 155 16 36 41 90 54 120 56 125 67 148 98 216
46 98 55 137 44 179 -30 108 -182 171 -270 112z"/>
<path d="M5452 5859 c-391 -99 -585 -534 -397 -888 14 -25 23 -46 22 -47 -1
-1 -24 -5 -50 -8 -203 -27 -471 -228 -648 -484 -131 -190 -214 -396 -463
-1152 -182 -551 -301 -887 -371 -1045 -8 -16 -39 -88 -71 -160 -69 -159 -170
-368 -231 -478 -25 -45 -53 -96 -62 -113 -9 -17 -48 -81 -85 -141 -125 -201
-246 -362 -421 -557 -132 -147 -206 -272 -240 -401 -25 -97 -2 -178 67 -240
55 -50 94 -67 162 -68 97 -3 130 19 318 216 90 94 186 194 213 223 28 28 129
134 225 234 96 101 193 202 215 225 176 183 409 426 449 468 27 29 135 142
241 252 106 110 232 242 282 294 l90 94 54 -30 c51 -29 104 -57 354 -188 61
-32 144 -76 185 -98 41 -22 113 -60 160 -85 47 -25 87 -46 89 -48 3 -3 -116
-173 -129 -184 -3 -3 -17 -21 -30 -40 -13 -19 -27 -37 -30 -40 -13 -11 -170
-220 -222 -295 -98 -141 -176 -342 -172 -442 4 -128 147 -215 258 -157 41 22
1013 988 1056 1050 48 69 73 158 67 237 -8 91 -35 142 -110 213 -34 31 -120
112 -192 179 -71 67 -146 137 -166 156 -20 19 -94 88 -164 154 -138 129 -145
135 -308 289 -60 55 -138 128 -173 161 l-65 61 77 159 c145 305 155 325 157
325 1 0 2 -44 2 -98 -2 -283 80 -437 224 -426 18 1 75 8 125 14 50 6 107 13
126 15 19 2 73 9 120 15 47 6 103 13 125 16 22 2 56 6 75 9 19 3 53 7 75 9 22
3 65 8 95 12 70 8 93 11 155 18 28 3 73 8 100 11 28 3 66 8 85 10 133 16 167
27 231 77 97 75 83 225 -26 285 -22 12 -58 24 -80 28 -22 4 -259 8 -526 10
-267 1 -491 5 -498 10 -9 5 -11 25 -7 69 25 262 29 684 7 781 -27 120 -50 166
-124 243 -39 39 -68 72 -66 73 2 0 24 2 49 5 249 24 461 201 535 444 23 77 28
220 10 300 -51 225 -218 401 -440 466 -86 24 -223 26 -313 3z"/>
<path d="M4318 5140 c-48 -10 -111 -26 -140 -35 -90 -30 -249 -108 -343 -171
-49 -32 -94 -61 -100 -63 -5 -2 -12 -7 -15 -11 -3 -3 -23 -19 -45 -36 -51 -38
-70 -53 -179 -148 -121 -106 -166 -148 -535 -516 -306 -304 -470 -460 -596
-565 -33 -28 -62 -53 -65 -56 -37 -42 -351 -261 -470 -328 -115 -64 -380 -187
-380 -176 0 2 -19 -4 -42 -14 -54 -23 -217 -65 -328 -85 -285 -51 -669 -35
-952 39 -72 18 -118 27 -118 21 0 -6 115 -150 160 -201 75 -85 342 -345 456
-445 103 -90 146 -128 264 -230 10 -8 37 -31 61 -51 138 -115 459 -398 543
-478 263 -251 413 -434 507 -616 29 -55 65 -147 74 -185 17 -74 23 -162 15
-234 l-6 -54 31 21 c269 188 515 442 727 747 119 172 349 590 417 760 8 19 24
58 37 87 35 79 141 345 186 468 45 122 60 166 211 605 143 416 166 482 177
505 5 11 23 56 39 100 78 214 195 471 288 633 197 342 411 544 693 654 25 10
24 10 -15 22 -168 54 -399 69 -557 36z"/>
</g>
</svg>
