<svg width="42" height="44" viewBox="0 0 42 44" fill="none" xmlns="http://www.w3.org/2000/svg">
<rect x="-0.333333" y="0.333333" width="41.3333" height="41.3333" rx="10.3333" transform="matrix(-1 0 0 1 41.3333 0)" fill="#0058BB"/>
<rect x="-0.333333" y="0.333333" width="41.3333" height="41.3333" rx="10.3333" transform="matrix(-1 0 0 1 41.3333 0)" stroke="url(#paint0_linear_1_12595)" stroke-width="0.666667"/>
<g filter="url(#filter0_d_1_12595)">
<path d="M39.333 10.667C39.333 6.24872 35.7513 2.66699 31.333 2.66699H10.6663C6.24807 2.66699 2.66634 6.24871 2.66634 10.667V31.3337C2.66634 35.7519 6.24806 39.3337 10.6663 39.3337H31.333C35.7513 39.3337 39.333 35.7519 39.333 31.3337V10.667Z" fill="#0371EE" shape-rendering="crispEdges"/>
<g clip-path="url(#clip0_1_12595)">
<path d="M16.8333 21.8333H23.155L21.2442 23.7442C21.1646 23.821 21.1011 23.913 21.0574 24.0147C21.0137 24.1163 20.9908 24.2257 20.9898 24.3363C20.9888 24.447 21.0099 24.5567 21.0518 24.6591C21.0937 24.7615 21.1556 24.8546 21.2338 24.9328C21.3121 25.0111 21.4051 25.0729 21.5075 25.1148C21.61 25.1567 21.7197 25.1778 21.8303 25.1769C21.941 25.1759 22.0503 25.1529 22.152 25.1092C22.2537 25.0656 22.3456 25.0021 22.4225 24.9225L25.7558 21.5892C25.8334 21.5118 25.895 21.4198 25.937 21.3186C25.979 21.2173 26.0007 21.1088 26.0007 20.9992C26.0007 20.8895 25.979 20.781 25.937 20.6798C25.895 20.5785 25.8334 20.4866 25.7558 20.4092L22.4225 17.0758C22.266 16.9196 22.0539 16.8319 21.8327 16.832C21.6116 16.8322 21.3996 16.9202 21.2433 17.0767C21.0871 17.2331 20.9994 17.4453 20.9995 17.6664C20.9997 17.8876 21.0877 18.0996 21.2442 18.2558L23.155 20.1667H16.8333C16.6123 20.1667 16.4004 20.2545 16.2441 20.4107C16.0878 20.567 16 20.779 16 21C16 21.221 16.0878 21.433 16.2441 21.5893C16.4004 21.7455 16.6123 21.8333 16.8333 21.8333Z" fill="white"/>
</g>
</g>
<defs>
<filter id="filter0_d_1_12595" x="-0.000651121" y="1.33366" width="42.0003" height="42.0003" filterUnits="userSpaceOnUse" color-interpolation-filters="sRGB">
<feFlood flood-opacity="0" result="BackgroundImageFix"/>
<feColorMatrix in="SourceAlpha" type="matrix" values="0 0 0 0 0 0 0 0 0 0 0 0 0 0 0 0 0 0 127 0" result="hardAlpha"/>
<feOffset dy="1.33333"/>
<feGaussianBlur stdDeviation="1.33333"/>
<feComposite in2="hardAlpha" operator="out"/>
<feColorMatrix type="matrix" values="0 0 0 0 0.0417941 0 0 0 0 0.123894 0 0 0 0 0.21719 0 0 0 0.45 0"/>
<feBlend mode="normal" in2="BackgroundImageFix" result="effect1_dropShadow_1_12595"/>
<feBlend mode="normal" in="SourceGraphic" in2="effect1_dropShadow_1_12595" result="shape"/>
</filter>
<linearGradient id="paint0_linear_1_12595" x1="21" y1="0" x2="21" y2="42" gradientUnits="userSpaceOnUse">
<stop stop-color="#64ACFF"/>
<stop offset="1" stop-color="#0152AE"/>
</linearGradient>
<clipPath id="clip0_1_12595">
<rect width="10" height="10" fill="white" transform="translate(16 16)"/>
</clipPath>
</defs>
</svg>
