<svg width="26" height="26" viewBox="0 0 26 26" fill="none" xmlns="http://www.w3.org/2000/svg">
<path d="M26 8C26 3.58172 22.4183 0 18 0H8C3.58172 0 0 3.58172 0 8V18C0 22.4183 3.58172 26 8 26H18C22.4183 26 26 22.4183 26 18V8Z" fill="#0371EE"/>
<g clip-path="url(#clip0_747_5823)">
<path d="M8.83333 13.8333H15.155L13.2442 15.7442C13.1646 15.821 13.1011 15.913 13.0574 16.0147C13.0137 16.1163 12.9908 16.2257 12.9898 16.3363C12.9888 16.447 13.0099 16.5567 13.0518 16.6591C13.0937 16.7615 13.1556 16.8546 13.2338 16.9328C13.3121 17.0111 13.4051 17.0729 13.5075 17.1148C13.61 17.1567 13.7197 17.1778 13.8303 17.1769C13.941 17.1759 14.0503 17.1529 14.152 17.1092C14.2537 17.0656 14.3456 17.0021 14.4225 16.9225L17.7558 13.5892C17.8334 13.5118 17.895 13.4198 17.937 13.3186C17.979 13.2173 18.0007 13.1088 18.0007 12.9992C18.0007 12.8895 17.979 12.781 17.937 12.6798C17.895 12.5785 17.8334 12.4866 17.7558 12.4092L14.4225 9.07583C14.266 8.91957 14.0539 8.83188 13.8327 8.83203C13.6116 8.83219 13.3996 8.92018 13.2433 9.07666C13.0871 9.23314 12.9994 9.44528 12.9995 9.66642C12.9997 9.88755 13.0877 10.0996 13.2442 10.2558L15.155 12.1667H8.83333C8.61232 12.1667 8.40036 12.2545 8.24408 12.4107C8.0878 12.567 8 12.779 8 13C8 13.221 8.0878 13.433 8.24408 13.5893C8.40036 13.7455 8.61232 13.8333 8.83333 13.8333Z" fill="white"/>
</g>
<defs>
<clipPath id="clip0_747_5823">
<rect width="10" height="10" fill="white" transform="translate(8 8)"/>
</clipPath>
</defs>
</svg>
