<svg width="50" height="50" viewBox="0 0 50 50" fill="none" xmlns="http://www.w3.org/2000/svg">
<rect width="50" height="50" fill="#FCA996"/>
<path d="M39 25H35.8889C34.1707 25 32.7778 26.3929 32.7778 28.1111V31.2222C32.7778 32.9404 34.1707 34.3333 35.8889 34.3333C37.6071 34.3333 39 32.9404 39 31.2222V25ZM39 25C39 17.268 32.732 11 25 11C17.268 11 11 17.268 11 25M11 25V31.2222C11 32.9404 12.3929 34.3333 14.1111 34.3333C15.8293 34.3333 17.2222 32.9404 17.2222 31.2222V28.1111C17.2222 26.3929 15.8293 25 14.1111 25H11Z" stroke="black" stroke-width="2.58"/>
<path d="M39 28.1113V34.3335C39 37.4446 37.9629 39.0002 35.8889 39.0002C33.8148 39.0002 31.2222 39.0002 28.1111 39.0002" stroke="black" stroke-width="2.58"/>
</svg>
