<svg width="50" height="50" viewBox="0 0 50 50" fill="none" xmlns="http://www.w3.org/2000/svg">
<rect width="50" height="50" fill="#E4E5CB"/>
<path d="M37.0353 16.1412L31.1529 10.2588C30.9876 10.0933 30.7633 10.0002 30.5294 10H18.7647C18.2187 10 17.695 10.2169 17.3089 10.603C16.9228 10.9891 16.7059 11.5128 16.7059 12.0588V14.7059H14.0588C13.5128 14.7059 12.9891 14.9228 12.603 15.3089C12.2169 15.695 12 16.2187 12 16.7647V37.9412C12 38.4872 12.2169 39.0109 12.603 39.397C12.9891 39.7831 13.5128 40 14.0588 40H30.5294C31.0754 40 31.5991 39.7831 31.9852 39.397C32.3713 39.0109 32.5882 38.4872 32.5882 37.9412V35.2941H35.2353C35.7813 35.2941 36.305 35.0772 36.6911 34.6911C37.0772 34.305 37.2941 33.7813 37.2941 33.2353V16.7647C37.2939 16.5308 37.2008 16.3065 37.0353 16.1412ZM30.8235 37.9412C30.8235 38.0192 30.7925 38.094 30.7374 38.1492C30.6822 38.2043 30.6074 38.2353 30.5294 38.2353H14.0588C13.9808 38.2353 13.906 38.2043 13.8509 38.1492C13.7957 38.094 13.7647 38.0192 13.7647 37.9412V16.7647C13.7647 16.6867 13.7957 16.6119 13.8509 16.5567C13.906 16.5016 13.9808 16.4706 14.0588 16.4706H25.4574L30.8235 21.8368V37.9412ZM35.5294 33.2353C35.5294 33.3133 35.4984 33.3881 35.4433 33.4433C35.3881 33.4984 35.3133 33.5294 35.2353 33.5294H32.5882V21.4706C32.588 21.2367 32.4949 21.0124 32.3294 20.8471L26.4471 14.9647C26.2817 14.7992 26.0575 14.7061 25.8235 14.7059H18.4706V12.0588C18.4706 11.9808 18.5016 11.906 18.5567 11.8509C18.6119 11.7957 18.6867 11.7647 18.7647 11.7647H30.1632L35.5294 17.1309V33.2353ZM26.7059 28.5294C26.7059 28.7634 26.6129 28.9879 26.4474 29.1533C26.282 29.3188 26.0575 29.4118 25.8235 29.4118H18.7647C18.5307 29.4118 18.3063 29.3188 18.1408 29.1533C17.9753 28.9879 17.8824 28.7634 17.8824 28.5294C17.8824 28.2954 17.9753 28.071 18.1408 27.9055C18.3063 27.74 18.5307 27.6471 18.7647 27.6471H25.8235C26.0575 27.6471 26.282 27.74 26.4474 27.9055C26.6129 28.071 26.7059 28.2954 26.7059 28.5294ZM26.7059 33.2353C26.7059 33.4693 26.6129 33.6937 26.4474 33.8592C26.282 34.0247 26.0575 34.1176 25.8235 34.1176H18.7647C18.5307 34.1176 18.3063 34.0247 18.1408 33.8592C17.9753 33.6937 17.8824 33.4693 17.8824 33.2353C17.8824 33.0013 17.9753 32.7768 18.1408 32.6114C18.3063 32.4459 18.5307 32.3529 18.7647 32.3529H25.8235C26.0575 32.3529 26.282 32.4459 26.4474 32.6114C26.6129 32.7768 26.7059 33.0013 26.7059 33.2353Z" fill="black"/>
</svg>
