<svg width="50" height="50" viewBox="0 0 50 50" fill="none" xmlns="http://www.w3.org/2000/svg">
<rect width="50" height="50" fill="#F4D5FA"/>
<path d="M18.3334 17.6666H31.3334C34.1424 17.6666 35.5468 17.6666 36.5557 18.3408C36.9925 18.6326 37.3674 19.0076 37.6593 19.4444C38.2482 20.3257 38.3226 21.5089 38.3321 23.6666M25.0001 17.6666L24.1556 15.9775C23.4558 14.5781 22.8164 13.1695 21.2658 12.588C20.5866 12.3333 19.8108 12.3333 18.2591 12.3333C15.8371 12.3333 14.6262 12.3333 13.7175 12.8404C13.0698 13.2019 12.5353 13.7363 12.1738 14.3841C11.6667 15.2927 11.6667 16.5037 11.6667 18.9257V23C11.6667 29.2853 11.6667 32.4281 13.6194 34.3806C15.3529 36.1142 18.0243 36.3088 23.0001 36.3305H23.6668" stroke="black" stroke-width="2.5" stroke-linecap="round" stroke-linejoin="round"/>
<path d="M33.0001 35.9524V37.6667M33.0001 35.9524C31.4577 35.9524 30.0989 35.1948 29.3018 34.0444M33.0001 35.9524C34.5425 35.9524 35.9013 35.1948 36.6984 34.0444M29.3018 34.0444L27.6673 35.0952M29.3018 34.0444C28.8305 33.364 28.5557 32.5463 28.5557 31.6667C28.5557 30.7871 28.8303 29.9695 29.3017 29.2892M36.6984 34.0444L38.3329 35.0952M36.6984 34.0444C37.1697 33.364 37.4445 32.5463 37.4445 31.6667C37.4445 30.7871 37.1698 29.9695 36.6985 29.2892M33.0001 27.381C34.5426 27.381 35.9015 28.1387 36.6985 29.2892M33.0001 27.381C31.4575 27.381 30.0986 28.1387 29.3017 29.2892M33.0001 27.381V25.6667M36.6985 29.2892L38.3334 28.2382M29.3017 29.2892L27.6667 28.2382" stroke="black" stroke-width="2.5" stroke-linecap="round" stroke-linejoin="round"/>
</svg>
