<svg width="50" height="50" viewBox="0 0 50 50" fill="none" xmlns="http://www.w3.org/2000/svg">
<rect width="50" height="50" fill="#B0C6F2"/>
<path d="M11.9104 14.9649L20.8354 20.1633C24.4288 22.2084 26.026 22.2084 29.6194 20.1633L38.5443 14.9649" stroke="black" stroke-width="2" stroke-linecap="round" stroke-linejoin="round"/>
<path d="M23.8048 35.2474C23.8048 35.2474 22.4803 35.23 21.0999 35.1952C16.6203 35.0824 14.3806 35.026 12.7713 33.4066C11.162 31.787 11.1154 29.6009 11.0224 25.2284C10.9925 23.8224 10.9925 22.4249 11.0224 21.019C11.1154 16.6466 11.1619 14.4604 12.7713 12.8409C14.3806 11.2214 16.6203 11.165 21.0998 11.0521C23.8607 10.9826 26.5943 10.9826 29.3552 11.0522C33.8347 11.165 36.0744 11.2214 37.6838 12.8409C39.2931 14.4604 39.3396 16.6466 39.4325 21.019C39.4475 21.7219 39.455 22.4228 39.455 23.1237" stroke="black" stroke-width="2" stroke-linecap="round" stroke-linejoin="round"/>
<path d="M33.7626 26.6894C31.9609 26.6894 30.7926 27.8413 29.4109 28.2612C28.849 28.4319 28.5682 28.5172 28.4545 28.6376C28.3408 28.7578 28.3075 28.9337 28.2409 29.2854C27.5284 33.0485 29.0858 36.5276 32.7994 37.8817C33.1985 38.0272 33.398 38.0999 33.7646 38.0999C34.1313 38.0999 34.3309 38.0272 34.7298 37.8817C38.4433 36.5276 39.9991 33.0485 39.2865 29.2854C39.2199 28.9337 39.1864 28.7578 39.0728 28.6375C38.9591 28.5171 38.6782 28.4318 38.1164 28.2612C36.7342 27.8414 35.5645 26.6894 33.7626 26.6894Z" stroke="black" stroke-width="2" stroke-linecap="round" stroke-linejoin="round"/>
</svg>
