<svg width="82" height="82" viewBox="0 0 82 82" fill="none" xmlns="http://www.w3.org/2000/svg">
<rect x="0.5" y="0.5" width="81" height="81" rx="40.5" stroke="url(#paint0_linear_371_1335)"/>
<rect x="0.5" y="0.5" width="81" height="81" rx="40.5" stroke="url(#paint1_linear_371_1335)"/>
<rect x="10.5" y="10.5" width="61" height="61" rx="30.5" stroke="url(#paint2_linear_371_1335)"/>
<rect x="10.5" y="10.5" width="61" height="61" rx="30.5" stroke="url(#paint3_linear_371_1335)"/>
<path d="M39.8766 29.476C40.2326 28.6802 40.4107 28.2823 40.6587 28.1598C40.874 28.0533 41.1268 28.0533 41.3422 28.1598C41.5901 28.2823 41.7682 28.6802 42.1242 29.476L44.9603 35.8143C45.0657 36.0495 45.1183 36.1671 45.1998 36.2572C45.2718 36.3369 45.3599 36.4006 45.4582 36.4443C45.5694 36.4936 45.698 36.5071 45.9551 36.5342L52.8828 37.2625C53.7526 37.354 54.1873 37.3997 54.381 37.5967C54.5491 37.7678 54.6272 38.0075 54.5922 38.2444C54.5519 38.5171 54.227 38.8087 53.5774 39.392L48.4024 44.0377C48.2105 44.21 48.1143 44.2963 48.0536 44.4012C47.9998 44.4942 47.9661 44.5974 47.9548 44.704C47.9421 44.8246 47.9688 44.9505 48.0225 45.2025L49.468 51.9909C49.6494 52.8433 49.7402 53.2693 49.6119 53.5136C49.5004 53.7259 49.2958 53.8739 49.0588 53.9139C48.786 53.9599 48.4072 53.7423 47.6496 53.307L41.6152 49.8398C41.3912 49.7111 41.2792 49.6469 41.1602 49.6217C41.0549 49.5994 40.946 49.5994 40.8406 49.6217C40.7216 49.6469 40.6096 49.7111 40.3857 49.8398L34.3513 53.307C33.5937 53.7423 33.2149 53.9599 32.942 53.9139C32.705 53.8739 32.5004 53.7259 32.389 53.5136C32.2607 53.2693 32.3515 52.8433 32.5329 51.9909L33.9783 45.2025C34.0319 44.9505 34.0588 44.8246 34.046 44.704C34.0347 44.5974 34.0011 44.4942 33.9473 44.4012C33.8865 44.2963 33.7904 44.21 33.5984 44.0377L28.4235 39.392C27.7739 38.8087 27.449 38.5171 27.4086 38.2444C27.3736 38.0075 27.4517 37.7678 27.6199 37.5967C27.8135 37.3997 28.2484 37.354 29.1181 37.2625L36.0458 36.5342C36.3029 36.5071 36.4314 36.4936 36.5426 36.4443C36.641 36.4006 36.729 36.3369 36.8011 36.2572C36.8825 36.1671 36.9352 36.0495 37.0404 35.8143L39.8766 29.476Z" stroke="#EC5236" stroke-width="2" stroke-linecap="round" stroke-linejoin="round"/>
<defs>
<linearGradient id="paint0_linear_371_1335" x1="6.75" y1="86.5" x2="85.75" y2="-5.5" gradientUnits="userSpaceOnUse">
<stop stop-color="#EC5236"/>
<stop offset="0.323723" stop-color="#EC5236" stop-opacity="0"/>
</linearGradient>
<linearGradient id="paint1_linear_371_1335" x1="81.75" y1="-10.5" x2="6.75" y2="82" gradientUnits="userSpaceOnUse">
<stop stop-color="#EC5236"/>
<stop offset="0.576615" stop-color="#EC5236" stop-opacity="0"/>
</linearGradient>
<linearGradient id="paint2_linear_371_1335" x1="3.25" y1="13.5" x2="71.75" y2="72" gradientUnits="userSpaceOnUse">
<stop stop-color="#EC5236"/>
<stop offset="0.323723" stop-color="#EC5236" stop-opacity="0"/>
</linearGradient>
<linearGradient id="paint3_linear_371_1335" x1="84.25" y1="86" x2="12.25" y2="35" gradientUnits="userSpaceOnUse">
<stop stop-color="#EC5236"/>
<stop offset="0.576615" stop-color="#EC5236" stop-opacity="0"/>
</linearGradient>
</defs>
</svg>
