<svg width="82" height="82" viewBox="0 0 82 82" fill="none" xmlns="http://www.w3.org/2000/svg">
<rect x="0.5" y="0.5" width="81" height="81" rx="40.5" stroke="url(#paint0_linear_371_1317)"/>
<rect x="0.5" y="0.5" width="81" height="81" rx="40.5" stroke="url(#paint1_linear_371_1317)"/>
<rect x="10.5" y="10.5" width="61" height="61" rx="30.5" stroke="url(#paint2_linear_371_1317)"/>
<rect x="10.5" y="10.5" width="61" height="61" rx="30.5" stroke="url(#paint3_linear_371_1317)"/>
<path d="M41.0004 44.0222V48.5556M41.0004 44.0222C37.3451 44.0222 34.296 41.4265 33.596 37.9778M41.0004 44.0222C44.6558 44.0222 47.7047 41.4265 48.4048 37.9778M41.0004 48.5556C42.4057 48.5556 43.1084 48.5556 43.6849 48.71C45.2492 49.1292 46.4712 50.3512 46.8904 51.9155C47.0448 52.492 47.0448 53.1947 47.0448 54.6H34.9559C34.9559 53.1947 34.9559 52.492 35.1104 51.9155C35.5296 50.3512 36.7516 49.1292 38.3159 48.71C38.8924 48.5556 39.5951 48.5556 41.0004 48.5556ZM33.596 37.9778H33.4448H33.0671C32.0138 37.9778 31.4872 37.9778 31.0493 37.8907C29.251 37.533 27.8452 36.1272 27.4875 34.3289C27.4004 33.891 27.4004 33.3643 27.4004 32.3111C27.4004 31.9601 27.4004 31.7845 27.4294 31.6386C27.5487 31.0391 28.0173 30.5705 28.6167 30.4513C28.7627 30.4222 28.9382 30.4222 29.2893 30.4222H33.4448M33.596 37.9778C33.4969 37.4895 33.4448 36.9842 33.4448 36.4667V29.7746C33.4448 28.969 33.4448 28.5662 33.5945 28.2555C33.743 27.9471 33.9919 27.6982 34.3003 27.5497C34.6111 27.4 35.0138 27.4 35.8194 27.4H46.1814C46.987 27.4 47.3897 27.4 47.7005 27.5497C48.0089 27.6982 48.2578 27.9471 48.4063 28.2555C48.5559 28.5662 48.5559 28.969 48.5559 29.7746V36.4667C48.5559 36.9842 48.504 37.4895 48.4048 37.9778M48.4048 37.9778H48.5559H48.9337C49.987 37.9778 50.5136 37.9778 50.9515 37.8907C52.7497 37.533 54.1555 36.1272 54.5134 34.3289C54.6004 33.891 54.6004 33.3643 54.6004 32.3111C54.6004 31.9601 54.6004 31.7845 54.5714 31.6386C54.4522 31.0391 53.9836 30.5705 53.3841 30.4513C53.2381 30.4222 53.0625 30.4222 52.7115 30.4222H48.5559" stroke="#EC5236" stroke-width="2" stroke-linecap="round" stroke-linejoin="round"/>
<defs>
<linearGradient id="paint0_linear_371_1317" x1="6.75" y1="86.5" x2="85.75" y2="-5.5" gradientUnits="userSpaceOnUse">
<stop stop-color="#EC5236"/>
<stop offset="0.323723" stop-color="#EC5236" stop-opacity="0"/>
</linearGradient>
<linearGradient id="paint1_linear_371_1317" x1="81.75" y1="-10.5" x2="6.75" y2="82" gradientUnits="userSpaceOnUse">
<stop stop-color="#EC5236"/>
<stop offset="0.576615" stop-color="#EC5236" stop-opacity="0"/>
</linearGradient>
<linearGradient id="paint2_linear_371_1317" x1="3.25" y1="13.5" x2="71.75" y2="72" gradientUnits="userSpaceOnUse">
<stop stop-color="#EC5236"/>
<stop offset="0.323723" stop-color="#EC5236" stop-opacity="0"/>
</linearGradient>
<linearGradient id="paint3_linear_371_1317" x1="84.25" y1="86" x2="12.25" y2="35" gradientUnits="userSpaceOnUse">
<stop stop-color="#EC5236"/>
<stop offset="0.576615" stop-color="#EC5236" stop-opacity="0"/>
</linearGradient>
</defs>
</svg>
