<svg width="82" height="82" viewBox="0 0 82 82" fill="none" xmlns="http://www.w3.org/2000/svg">
<rect x="0.5" y="0.5" width="81" height="81" rx="40.5" stroke="url(#paint0_linear_371_1326)"/>
<rect x="0.5" y="0.5" width="81" height="81" rx="40.5" stroke="url(#paint1_linear_371_1326)"/>
<rect x="10.5" y="10.5" width="61" height="61" rx="30.5" stroke="url(#paint2_linear_371_1326)"/>
<rect x="10.5" y="10.5" width="61" height="61" rx="30.5" stroke="url(#paint3_linear_371_1326)"/>
<path d="M29.4404 51.5778V32.2356C29.4404 30.543 29.4404 29.6967 29.7647 29.0502C30.0499 28.4815 30.505 28.0192 31.0648 27.7294C31.7012 27.4 32.5343 27.4 34.2004 27.4H48.4804C50.1466 27.4 50.9797 27.4 51.6161 27.7294C52.1758 28.0192 52.631 28.4815 52.9162 29.0502C53.2404 29.6967 53.2404 30.543 53.2404 32.2356V48.5556H32.4154C30.7724 48.5556 29.4404 49.9086 29.4404 51.5778ZM29.4404 51.5778C29.4404 53.247 30.7724 54.6 32.4154 54.6H53.2404M36.8779 33.4445H45.8029M36.8779 39.4889H45.8029M51.7529 48.5556V54.6" stroke="#EC5236" stroke-width="2" stroke-linecap="round" stroke-linejoin="round"/>
<defs>
<linearGradient id="paint0_linear_371_1326" x1="6.75" y1="86.5" x2="85.75" y2="-5.5" gradientUnits="userSpaceOnUse">
<stop stop-color="#EC5236"/>
<stop offset="0.323723" stop-color="#EC5236" stop-opacity="0"/>
</linearGradient>
<linearGradient id="paint1_linear_371_1326" x1="81.75" y1="-10.5" x2="6.75" y2="82" gradientUnits="userSpaceOnUse">
<stop stop-color="#EC5236"/>
<stop offset="0.576615" stop-color="#EC5236" stop-opacity="0"/>
</linearGradient>
<linearGradient id="paint2_linear_371_1326" x1="3.25" y1="13.5" x2="71.75" y2="72" gradientUnits="userSpaceOnUse">
<stop stop-color="#EC5236"/>
<stop offset="0.323723" stop-color="#EC5236" stop-opacity="0"/>
</linearGradient>
<linearGradient id="paint3_linear_371_1326" x1="84.25" y1="86" x2="12.25" y2="35" gradientUnits="userSpaceOnUse">
<stop stop-color="#EC5236"/>
<stop offset="0.576615" stop-color="#EC5236" stop-opacity="0"/>
</linearGradient>
</defs>
</svg>
