<svg width="151" height="19" viewBox="0 0 151 19" fill="none" xmlns="http://www.w3.org/2000/svg">
<g clip-path="url(#clip0_486_9733)">
<path d="M32.4024 16.0903H23.9849C23.9727 15.8125 23.9504 15.5633 23.9504 15.314C23.9504 12.9731 23.9504 10.6315 23.9504 8.28921C23.961 8.00877 23.948 7.72793 23.9117 7.44967C23.794 6.77558 23.4306 6.26898 22.7647 6.07493C22.0987 5.88087 21.5709 6.10557 21.1283 6.59582C20.5638 7.21884 20.373 7.9726 20.375 8.79784C20.375 10.9979 20.3628 13.1999 20.3851 15.3998C20.3851 15.9187 20.2979 16.1454 19.7051 16.1352C17.6341 16.0984 15.5633 16.123 13.4924 16.1189C13.3117 16.1189 13.131 16.0903 12.8834 16.0678V15.2814C12.8834 12.8914 12.8834 10.5035 12.8834 8.11559C12.8943 7.74298 12.8357 7.37161 12.7108 7.0207C12.2661 5.93602 11.05 5.68273 10.1871 6.47326C9.48057 7.12079 9.29176 7.98281 9.28769 8.89794C9.28769 11.0284 9.28769 13.159 9.28769 15.2896V16.0801H0.793018C0.927015 15.786 1.02447 15.5694 1.11989 15.3529C1.34729 14.8381 1.75943 14.3315 1.77161 13.8065C1.83658 11.068 1.83658 8.32871 1.77161 5.58876C1.75943 5.08422 1.38383 4.5858 1.16253 4.09351C1.06305 3.87085 0.924989 3.66659 0.740234 3.33771H9.26739V4.9494C9.38486 4.87284 9.49743 4.78893 9.60442 4.69815C10.0397 4.23917 10.5658 3.87711 11.1488 3.6354C11.7317 3.39367 12.3585 3.27765 12.9889 3.2948C13.801 3.2948 14.6131 3.32545 15.4252 3.28459C17.2849 3.19472 18.8138 3.76668 19.8005 5.40083C20.3609 4.91467 20.8481 4.37949 21.4349 4.00158C22.8926 3.06807 27.6556 2.95164 29.1803 3.78506C30.6564 4.58988 31.4136 5.87066 31.4279 7.55793C31.4482 9.57204 31.4421 11.5862 31.4279 13.6002C31.4279 14.2886 31.5578 14.8851 32.0999 15.3672C32.2542 15.502 32.2806 15.7819 32.4024 16.0903Z" fill="#9C835A"/>
<path d="M98.6309 3.33567H107.141V4.95145C107.344 4.78191 107.472 4.69815 107.576 4.59602C107.989 4.18182 108.48 3.85427 109.02 3.63232C109.561 3.41037 110.14 3.29844 110.723 3.30298C111.792 3.29277 112.865 3.27643 113.935 3.30298C116.493 3.36631 118.198 5.08218 118.235 7.67028C118.265 9.63537 118.251 11.6025 118.235 13.5696C118.235 14.2784 118.341 14.9056 118.927 15.3937C119.078 15.5183 119.09 15.8023 119.189 16.0924H110.747V15.3182C110.747 12.9057 110.747 10.4953 110.747 8.08496C110.755 7.78197 110.716 7.47961 110.634 7.1882C110.228 5.94624 108.887 5.62554 107.972 6.5468C107.338 7.18412 107.159 7.99508 107.159 8.86322V16.074H98.6731C98.8277 15.7635 98.9449 15.549 99.0424 15.3243C99.2637 14.8055 99.6518 14.2866 99.664 13.7596C99.7249 11.0455 99.7249 8.33076 99.664 5.61533C99.6518 5.10874 99.2843 4.60827 99.0668 4.1119C98.9534 3.88311 98.8174 3.67476 98.6309 3.33567Z" fill="#9C835A"/>
<path d="M54.3431 16.0944H45.8951C45.8728 15.6715 45.8524 15.263 45.8261 14.7483C44.7185 15.5148 43.4318 15.978 42.0924 16.0924C40.3301 16.2578 38.6003 16.1373 36.9822 15.3386C35.5732 14.642 34.6149 13.5901 34.6291 11.9069C34.6433 10.2237 35.5914 9.10222 37.0431 8.53843C38.1907 8.10342 39.395 7.83851 40.6184 7.75199C42.3279 7.6233 44.0537 7.71931 45.8383 7.71931C45.8383 6.76946 45.4728 6.08516 44.7338 5.61737C43.7776 5.00456 42.7157 4.92898 41.6376 5.11691C39.9687 5.40698 38.308 5.72972 36.6187 6.06064V3.44394C36.9172 3.54607 37.1933 3.57467 37.3802 3.7197C37.636 3.92444 37.9387 4.06143 38.2607 4.11816C38.5828 4.1749 38.9138 4.14957 39.2236 4.04449C42.4849 3.13594 45.8954 2.90177 49.2491 3.3561C51.9027 3.70132 53.3503 5.31709 53.3543 8.02571C53.3543 9.89888 53.3645 11.7721 53.3543 13.6452C53.3543 14.309 53.4884 14.8831 54.0081 15.3488C54.1583 15.4877 54.1969 15.7594 54.3431 16.0944ZM45.8505 9.4168H44.4922C44.283 9.40962 44.0735 9.41372 43.8648 9.42905C43.5331 9.46145 43.2137 9.57234 42.9326 9.75265C42.6516 9.93296 42.417 10.1776 42.2478 10.4666C42.0787 10.7555 41.9799 11.0807 41.9595 11.4154C41.939 11.7501 41.9976 12.0849 42.1304 12.3925C42.2631 12.7001 42.4664 12.9718 42.7233 13.1853C42.9804 13.3988 43.284 13.5482 43.6093 13.6211C43.9346 13.694 44.2725 13.6885 44.5952 13.6051C44.918 13.5215 45.2167 13.3625 45.4667 13.1406C45.6588 12.9791 45.7888 12.7551 45.8342 12.5074C45.8728 11.5065 45.8505 10.5117 45.8505 9.4168Z" fill="#9C835A"/>
<path d="M87.5325 7.7213C87.3802 6.02994 86.2981 4.98612 84.5114 5.08213C82.8304 5.17405 81.1635 5.57033 79.4926 5.84814C79.1108 5.91147 78.7373 6.03403 78.3068 6.14433V3.45409C78.5932 3.54601 78.8754 3.56644 79.0601 3.71352C79.6489 4.1813 80.2783 4.21807 80.9686 4.02605C84.2066 3.13459 87.5897 2.90674 90.917 3.35605C93.5847 3.70535 95.02 5.30274 95.0266 8.01341C95.0266 9.86409 95.036 11.7128 95.0266 13.5614C95.0266 14.2722 95.1579 14.8953 95.7288 15.3876C95.8807 15.5203 95.9032 15.7961 96.0128 16.0882H87.5853V14.689C86.4907 15.469 85.2129 15.9485 83.8779 16.08C82.067 16.268 80.2966 16.1434 78.6338 15.3242C77.241 14.6379 76.3091 13.5798 76.2989 11.9476C76.2888 10.3155 77.2044 9.29214 78.5505 8.58537C79.6986 8.00423 80.9687 7.70928 82.2537 7.72538C83.9917 7.70904 85.7336 7.7213 87.5325 7.7213ZM87.5629 9.35546C86.6412 9.44534 85.7357 9.42491 84.9033 9.64756C84.0709 9.87022 83.6201 10.7669 83.6648 11.6392C83.682 12.0469 83.8161 12.4408 84.0507 12.7737C84.2854 13.1066 84.6106 13.364 84.9874 13.5151C85.3642 13.6662 85.7763 13.7045 86.1742 13.6254C86.572 13.5462 86.9387 13.353 87.23 13.0691C87.4153 12.8718 87.5278 12.6166 87.5487 12.346C87.5771 11.4145 87.5548 10.4851 87.5548 9.34934L87.5629 9.35546Z" fill="#9C835A"/>
<path d="M67.0493 7.01246C66.6133 7.37411 66.2569 7.82315 66.0028 8.33098C65.7487 8.83882 65.6024 9.39431 65.5733 9.96213C65.5064 11.01 65.6485 12.0824 65.5064 13.1161C65.346 14.2722 66.0302 15.0852 66.5886 16.0841H57.0361C57.2005 15.7614 57.3223 15.5448 57.4218 15.3181C57.6431 14.8238 58.0309 14.3294 58.0309 13.8269C58.0918 11.1114 58.0918 8.39674 58.0309 5.68267C58.0187 5.15769 57.6248 4.63884 57.4015 4.12204C57.3082 3.91778 57.1843 3.7135 57.0117 3.39893H65.5043V5.8277L66.1012 5.27617C67.4961 3.93151 69.3633 3.1971 71.2947 3.23347C72.1111 3.24564 72.9062 3.49775 73.582 3.95876C74.2579 4.41978 74.7849 5.06957 75.0983 5.82815C75.4118 6.58673 75.4979 7.42096 75.3461 8.22816C75.1943 9.03535 74.8112 9.78025 74.244 10.3712C73.6767 10.9621 72.9502 11.3732 72.1537 11.5539C71.3572 11.7346 70.5255 11.677 69.7611 11.3883C68.9966 11.0995 68.3329 10.5921 67.8515 9.92859C67.37 9.26507 67.0919 8.47438 67.0514 7.65387C67.0433 7.48229 67.0493 7.32091 67.0493 7.01246Z" fill="#9C835A"/>
<path d="M150.433 3.33569C148.493 7.02685 146.618 10.5954 144.668 14.3091C145.759 14.3091 146.756 14.1967 147.714 14.3377C148.794 14.497 149.45 13.6738 150.386 13.2898V17.083C150.096 16.9523 149.817 16.9054 149.659 16.742C149.2 16.2639 148.66 16.1149 148.021 16.1149C143.95 16.1271 139.877 16.1149 135.804 16.1149H134.883C136.802 12.438 138.673 8.86323 140.631 5.11487C138.617 5.33344 136.635 4.48368 134.996 6.26287L134.923 5.98098V2.35315C135.203 2.46346 135.478 2.48796 135.608 2.63708C136.097 3.20903 136.717 3.34385 137.435 3.34181C141.484 3.34181 145.532 3.34181 149.582 3.34181L150.433 3.33569Z" fill="#9C835A"/>
<path d="M131.793 5.11071L130.335 5.17811V12.6932C130.335 14.1231 130.403 14.2007 131.798 14.3682V16.0658C131.614 16.0841 131.436 16.1188 131.257 16.1188C129.582 16.1188 127.909 16.1311 126.233 16.1188C124.185 16.1004 122.884 14.7849 122.876 12.7238C122.876 10.4768 122.876 8.22991 122.876 5.98294V5.17403L121.406 5.1005V3.3642L122.864 3.29474V1.1499H130.317V3.29474L131.797 3.36828L131.793 5.11071Z" fill="#9C835A"/>
</g>
<defs>
<clipPath id="clip0_486_9733">
<rect width="150" height="17.8125" fill="white" transform="translate(0.5 0.59375)"/>
</clipPath>
</defs>
</svg>
