<svg width="145" height="29" viewBox="0 0 145 29" fill="none" xmlns="http://www.w3.org/2000/svg">
<path fill-rule="evenodd" clip-rule="evenodd" d="M105.243 2.42213C105.011 2.96771 103.771 5.228 103.771 5.228H93.1534L93.9284 3.903C94.1609 2.65594 91.6034 3.20153 90.9834 4.05889C90.9059 4.21477 88.9685 7.72211 88.9685 7.72211H99.5083C100.748 7.72211 101.601 8.89122 101.136 9.90446C101.058 10.0603 97.7258 15.9839 97.6483 16.0618C97.0283 17.153 95.5559 18.0103 94.0059 18.0103H75.7937C74.3212 18.0883 73.0037 17.2309 73.6237 16.1397C73.6237 15.9839 75.0187 13.4897 75.0187 13.4897L85.8685 13.4118C85.8685 13.4118 85.4035 14.2692 85.2485 14.503C84.706 16.1397 87.2635 16.0618 88.116 14.503C88.116 14.425 90.0535 10.8397 90.0535 10.8397H79.7461C78.3512 10.9177 77.8862 8.81328 78.4286 7.87799C78.6611 7.41035 80.9861 3.35742 81.1411 2.88977C81.9936 1.33095 84.3186 0.00595248 86.256 0.00595248H103.771C105.011 -0.0719885 105.708 1.56478 105.243 2.42213ZM145 0.00595248V2.81183H118.495L116.016 7.72211H129.733L128.26 10.528H114.543L111.908 15.2044H125.625L124.153 18.0103H99.8958L109.971 0.00595248H145ZM1.39498 20.5044H4.64992C6.19989 20.5044 6.43239 21.5177 6.27739 22.2191C6.0449 23.1544 5.50241 23.3882 5.19241 23.5441C5.9674 23.8559 6.0449 24.4794 5.8899 25.1809C5.7349 25.7265 5.42491 26.1941 5.03741 26.5059C4.57242 26.8956 4.18493 27.1294 2.78995 27.1294H0L1.39498 20.5044ZM1.54997 25.9603H3.25494C3.95243 25.9603 4.41742 25.6485 4.49492 25.025C4.64992 24.4015 4.18493 24.2456 3.71994 24.2456H1.93747L1.54997 25.9603ZM2.16996 23.0765H3.79743C4.33993 23.0765 4.80492 22.8427 4.88242 22.2971C5.03741 21.7515 4.64992 21.5956 4.02993 21.5956H2.47996L2.16996 23.0765ZM11.0048 25.6485C10.3848 26.8176 9.37734 27.2073 8.52485 27.2073C7.12988 27.2073 6.27739 26.5838 6.66489 24.5574C6.81988 23.9338 7.36237 22.0632 9.53234 22.0632C10.4623 22.0632 11.7023 22.5309 11.2373 24.7912V25.025H7.82736C7.82736 25.3368 7.74987 26.1941 8.75735 26.1941C9.14484 26.1941 9.53234 26.0382 9.68733 25.6485H11.0048ZM10.0748 24.1676C10.1523 23.3882 9.68733 23.1544 9.29984 23.1544C8.67985 23.1544 8.29236 23.5441 8.05986 24.1676H10.0748ZM14.1048 22.2191H14.8797L14.7247 23.1544H13.9498L13.3298 25.8044C13.3298 26.0382 13.2523 26.1941 13.7948 26.1941C13.8464 26.1941 13.8723 26.1941 13.8723 26.1941C13.8723 26.1941 13.8981 26.1941 13.9498 26.1941C13.9498 26.1941 13.9756 26.1941 14.0273 26.1941C14.0273 26.1941 14.0531 26.1941 14.1048 26.1941L13.8723 27.1294C13.6656 27.1294 13.4589 27.1294 13.2523 27.1294H13.0973C12.0123 27.1294 11.8573 26.7397 12.0123 26.1162L12.6323 23.1544H12.0123L12.1673 22.2191H12.8648L13.0973 20.8941H14.4148L14.1048 22.2191ZM17.1272 22.2191H17.9022L17.7472 23.1544H16.9722L16.3522 25.8044C16.3522 26.0382 16.2747 26.1941 16.8172 26.1941C16.8689 26.1941 16.8947 26.1941 16.8947 26.1941C16.8947 26.1941 16.9205 26.1941 16.9722 26.1941C16.9722 26.1941 16.998 26.1941 17.0497 26.1941C17.0497 26.1941 17.0755 26.1941 17.1272 26.1941L16.8947 27.1294C16.688 27.1294 16.4814 27.1294 16.2747 27.1294H16.1197C15.0347 27.1294 14.8797 26.7397 15.0347 26.1162L15.6547 23.1544H15.0347L15.1897 22.2191H15.8872L16.1197 20.8941H17.4372L17.1272 22.2191ZM22.1646 25.6485C21.5446 26.8176 20.5371 27.2073 19.6847 27.2073C18.2897 27.2073 17.4372 26.5838 17.8247 24.5574C17.9797 23.9338 18.5222 22.0632 20.6921 22.0632C21.6221 22.0632 22.8621 22.5309 22.3971 24.7912V25.025H18.9872C18.9872 25.3368 18.9097 26.1941 19.9172 26.1941C20.3047 26.1941 20.6921 26.0382 20.8471 25.6485H22.1646ZM21.2346 24.1676C21.3121 23.3882 20.8471 23.1544 20.4597 23.1544C19.8397 23.1544 19.4522 23.5441 19.2197 24.1676H21.2346ZM23.7921 22.2191H25.0321L24.8771 23.0765C25.2646 22.5309 25.6521 22.0632 26.427 22.0632C26.4787 22.0632 26.5045 22.0632 26.5045 22.0632C26.5045 22.0632 26.5304 22.0632 26.582 22.0632C26.6337 22.0632 26.6595 22.0632 26.6595 22.0632L26.427 23.3882C26.2721 23.3882 26.1946 23.3882 26.0396 23.3882C25.0321 23.3882 24.7221 24.0118 24.6446 24.5574L24.1021 27.1294H22.7846L23.7921 22.2191ZM32.3944 23.7C32.3944 23.3882 32.3169 22.9985 31.6195 22.9985C30.922 22.9985 30.767 23.3103 30.767 23.5441C30.612 24.3235 33.7119 23.7 33.4019 25.5706C33.0919 26.9735 31.6195 27.2073 30.8445 27.2073C29.7595 27.2073 28.6745 26.8176 28.907 25.4926H30.2245C30.147 25.9603 30.302 26.2721 31.1545 26.2721C31.7745 26.2721 32.007 25.8823 32.007 25.7265C32.2394 24.9471 29.062 25.5706 29.4495 23.7C29.6045 22.9985 30.2245 22.0632 31.7745 22.0632C32.7044 22.0632 33.7894 22.2971 33.6344 23.7H32.3944ZM36.1919 27.2073C34.8744 27.2073 33.8669 26.4279 34.2544 24.6353C34.5644 22.8427 35.9594 22.0632 37.2769 22.0632C38.5943 22.0632 39.6018 22.8427 39.2143 24.6353C38.8268 26.4279 37.5094 27.2073 36.1919 27.2073ZM37.0444 23.1544C36.0369 23.1544 35.6494 24.0118 35.5719 24.6353C35.4169 25.2588 35.4169 26.1162 36.4244 26.1162C37.3544 26.1162 37.7419 25.2588 37.8969 24.6353C38.0518 24.0118 38.0518 23.1544 37.0444 23.1544ZM43.9417 27.0515H42.7793L42.9343 26.4279H42.8568C42.4693 26.8956 41.9268 27.2073 41.2293 27.2073C40.2993 27.2073 39.6793 26.6618 39.9118 25.4147L40.6093 22.2191H41.9268L41.2293 25.2588C41.0743 25.9603 41.5393 26.1162 41.9268 26.1162C42.3143 26.1162 42.9343 25.8824 43.1668 25.025L43.7093 22.2191H45.0267L43.9417 27.0515ZM49.5216 27.0515H48.2817L48.9017 24.0118C48.9792 23.7 49.0567 23.0765 48.2817 23.0765C47.6617 23.0765 47.1967 23.4662 47.0417 24.2456L46.4217 27.0515H45.1042L46.1892 22.1412H47.4292L47.2742 22.8427C47.5067 22.5309 47.9717 21.9853 48.9017 21.9853C49.8316 21.9853 50.4516 22.5309 50.2191 23.6221L49.5216 27.0515ZM55.1791 27.0515H53.9391L54.0941 26.4279H54.0166C53.6291 26.9735 53.0091 27.2073 52.4666 27.2073C51.0716 27.2073 50.6841 25.8823 50.9941 24.5574C51.3816 22.8427 52.4666 22.0632 53.5516 22.0632C54.4041 22.0632 54.6366 22.453 54.7916 22.7647L55.334 20.4265H56.574L55.1791 27.0515ZM53.0091 26.1162C53.8616 26.1162 54.3266 25.4926 54.4816 24.7132C54.6366 23.9338 54.5591 23.1544 53.7066 23.1544C52.8541 23.1544 52.4666 23.8559 52.3116 24.6353C52.1566 25.2588 52.2341 26.1162 53.0091 26.1162ZM61.3789 22.1412H62.1539L61.9214 23.0765H61.1464L60.604 25.7265C60.5265 26.0382 60.5265 26.1162 61.0689 26.1162C61.0689 26.1162 61.0948 26.1162 61.1464 26.1162C61.1981 26.1162 61.2239 26.1162 61.2239 26.1162C61.2756 26.1162 61.3014 26.1162 61.3014 26.1162L61.1464 27.1294C60.9398 27.1294 60.7331 27.1294 60.5265 27.1294H60.3715C59.209 27.1294 59.1315 26.7397 59.2865 26.0382L59.9065 23.0765H59.209L59.4415 22.1412H60.0615L60.3715 20.8162H61.6114L61.3789 22.1412ZM66.4164 27.0515H65.0989L65.7189 24.0897C65.7964 23.7 65.9514 23.1544 65.0989 23.1544C64.5564 23.1544 64.0139 23.5441 63.8589 24.2456L63.2389 27.0515H61.9989L63.3939 20.4265H64.6339L64.1689 22.8427C64.4014 22.375 65.0214 22.0632 65.7189 22.0632C66.7263 22.0632 67.3463 22.6088 67.1138 23.7L66.4164 27.0515ZM68.5863 22.1412H69.8263L69.6713 22.9985C70.0588 22.4529 70.4463 21.9853 71.2213 21.9853C71.2213 21.9853 71.2471 21.9853 71.2988 21.9853C71.2988 21.9853 71.3246 21.9853 71.3763 21.9853C71.4279 21.9853 71.4538 22.0113 71.4538 22.0632L71.2213 23.3103C71.0663 23.3103 70.9888 23.3103 70.8338 23.3103C69.8263 23.3103 69.5163 23.9338 69.4388 24.4794L68.8963 27.0515H67.5788L68.5863 22.1412ZM73.1587 27.1294C71.8413 27.1294 70.8338 26.35 71.1438 24.5574C71.5313 22.8427 72.9262 21.9853 74.2437 21.9853C75.5612 21.9853 76.5687 22.8427 76.1812 24.5574C75.7937 26.35 74.3987 27.1294 73.1587 27.1294ZM74.0112 23.0765C73.0037 23.0765 72.6162 23.9338 72.4613 24.5574C72.3838 25.1809 72.3838 26.0382 73.3912 26.0382C74.3212 26.0382 74.7087 25.1809 74.8637 24.5574C74.9412 23.9338 74.9412 23.0765 74.0112 23.0765ZM80.9086 27.0515H79.7461L79.8236 26.35C79.4361 26.8956 78.8936 27.1294 78.1962 27.1294C77.1887 27.1294 76.6462 26.5838 76.8787 25.3368L77.5762 22.1412H78.8936L78.1962 25.1809C78.0412 25.8824 78.5061 26.0382 78.8936 26.0382C79.2811 26.0382 79.9011 25.8044 80.0561 24.9471L80.6761 22.1412H81.9936L80.9086 27.0515ZM87.5735 22.1412L86.6435 26.7397C86.411 27.5971 86.101 29 83.6986 29C82.6911 29 81.6836 28.6103 81.8386 27.5971H83.2336C83.2336 27.8309 83.3111 28.0647 84.0086 28.0647C84.706 28.0647 85.0935 27.7529 85.326 26.8956L85.4035 26.35C85.0935 26.7397 84.706 27.0515 83.9311 27.0515C82.7686 27.0515 81.9936 26.2721 82.3811 24.5574C82.7686 22.8427 83.8536 21.9853 84.9385 21.9853C85.8685 21.9853 86.101 22.5309 86.1785 22.8427L86.3335 22.1412H87.5735ZM84.396 25.9603C85.326 25.9603 85.636 25.2588 85.791 24.5574C85.946 23.7779 85.7135 23.1544 85.016 23.1544C84.551 23.1544 83.9311 23.4662 83.6986 24.6353C83.5436 25.2588 83.6986 25.9603 84.396 25.9603ZM92.0684 27.0515H90.8284L91.4484 24.0897C91.5259 23.7 91.6034 23.0765 90.8284 23.0765C90.2085 23.0765 89.7435 23.4662 89.5885 24.2456L88.9685 27.0515H87.7285L89.1235 20.4265H90.3634L89.8985 22.7647C90.131 22.375 90.7509 21.9853 91.4484 21.9853C92.3784 21.9853 93.0759 22.5309 92.8434 23.6221L92.0684 27.0515ZM96.7958 22.1412H98.0358L97.8808 22.9985C98.2683 22.5309 98.6558 22.0632 99.4308 22.0632C99.4825 22.0632 99.5083 22.0632 99.5083 22.0632C99.56 22.0632 99.5858 22.0632 99.5858 22.0632C99.5858 22.0632 99.6116 22.0632 99.6633 22.0632L99.3533 23.3882C99.2758 23.3882 99.1208 23.3882 99.0433 23.3882C98.0358 23.3882 97.7258 24.0118 97.5708 24.5574L97.0283 27.0515H95.7884L96.7958 22.1412ZM103.771 25.6485C103.228 26.8176 102.143 27.2073 101.291 27.2073C99.9733 27.2073 99.0433 26.5059 99.4308 24.4794C99.5858 23.9338 100.206 22.0632 102.298 22.0632C103.306 22.0632 104.546 22.5309 104.003 24.7132V24.9471H100.671C100.593 25.3368 100.516 26.1941 101.523 26.1941C101.911 26.1941 102.298 25.9603 102.453 25.6485H103.771ZM102.841 24.0897C102.918 23.3103 102.453 23.0765 102.066 23.0765C101.446 23.0765 101.058 23.4662 100.826 24.0897H102.841ZM107.878 23.6221C107.878 23.3103 107.878 22.9985 107.181 22.9985C106.483 22.9985 106.328 23.3103 106.328 23.4662C106.096 24.2456 109.273 23.7 108.886 25.4926C108.576 26.9735 107.181 27.2073 106.406 27.2073C105.321 27.2073 104.236 26.8176 104.468 25.4926H105.786C105.708 25.8824 105.863 26.1941 106.638 26.1941C107.336 26.1941 107.568 25.8823 107.568 25.7265C107.801 24.8691 104.623 25.4926 105.011 23.7C105.166 22.9206 105.786 22.0632 107.336 22.0632C108.266 22.0632 109.351 22.2971 109.196 23.6221H107.878ZM113.923 25.6485C113.381 26.8176 112.296 27.2073 111.443 27.2073C110.126 27.2073 109.196 26.5059 109.583 24.4794C109.738 23.9338 110.358 22.0632 112.451 22.0632C113.458 22.0632 114.698 22.5309 114.156 24.7132V24.9471H110.823C110.746 25.3368 110.668 26.1941 111.676 26.1941C112.063 26.1941 112.451 25.9603 112.606 25.6485H113.923ZM112.993 24.0897C113.071 23.3103 112.606 23.0765 112.218 23.0765C111.598 23.0765 111.211 23.4662 110.978 24.0897H112.993ZM118.728 26.1162C118.573 26.6618 118.728 26.8176 118.883 26.8956L118.805 27.0515H117.41C117.41 26.9995 117.41 26.9475 117.41 26.8956C117.41 26.8436 117.41 26.7917 117.41 26.7397C117.41 26.7397 117.41 26.7137 117.41 26.6618C117.41 26.6098 117.41 26.5578 117.41 26.5059C117.1 26.8176 116.558 27.2073 115.706 27.2073C115.008 27.2073 114.311 26.8176 114.543 25.8044C114.698 24.7912 115.473 24.3235 116.248 24.1676L117.488 24.0118C117.643 24.0118 117.953 23.9338 118.03 23.6221C118.108 23.0765 117.643 23.0765 117.255 23.0765C116.635 23.0765 116.403 23.4662 116.325 23.7779H115.086C115.551 22.2191 116.635 22.0632 117.643 22.0632C118.34 22.0632 119.58 22.2191 119.27 23.4662L118.728 26.1162ZM117.798 24.7132C117.643 24.7912 117.41 24.8691 116.868 24.9471C116.403 25.025 115.938 25.1809 115.861 25.6485C115.783 26.1162 116.093 26.2721 116.325 26.2721C116.868 26.2721 117.565 25.8823 117.643 25.3368L117.798 24.7132ZM120.743 22.1412H121.983L121.828 22.9985C122.215 22.5309 122.603 22.0632 123.378 22.0632C123.43 22.0632 123.455 22.0632 123.455 22.0632C123.507 22.0632 123.533 22.0632 123.533 22.0632C123.533 22.0632 123.559 22.0632 123.61 22.0632L123.3 23.3882C123.223 23.3103 123.068 23.3103 122.99 23.3103C121.983 23.3103 121.673 23.9338 121.518 24.4794L120.975 27.0515H119.735L120.743 22.1412ZM126.323 25.2588H127.64C127.485 25.8044 126.788 27.2073 125.005 27.2073C123.145 27.2073 123.068 25.8044 123.3 24.7132C123.61 23.1544 124.54 22.0632 126.168 22.0632C126.943 22.0632 128.105 22.375 127.95 23.9338H126.633C126.633 23.5441 126.555 23.0765 125.935 23.0765C125.16 23.0765 124.773 23.9338 124.618 24.5574C124.54 25.1029 124.308 26.1162 125.315 26.1162C125.935 26.1162 126.323 25.4926 126.323 25.2588ZM132.445 27.0515H131.205L131.825 24.0897C131.903 23.7 131.98 23.0765 131.205 23.0765C130.663 23.0765 130.12 23.4662 129.965 24.2456L129.345 27.0515H128.105L129.5 20.4265H130.74L130.275 22.7647C130.508 22.375 131.128 22.0632 131.825 22.0632C132.833 22.0632 133.453 22.6088 133.22 23.7L132.445 27.0515ZM135.158 27.2853C134.228 27.2853 133.453 26.6618 133.453 25.5706C133.453 24.4794 134.228 23.8559 135.158 23.8559C136.01 23.8559 136.863 24.4794 136.863 25.5706C136.863 26.6618 136.01 27.2853 135.158 27.2853ZM135.158 24.2456C134.46 24.2456 133.918 24.7912 133.918 25.5706C133.918 26.35 134.46 26.8956 135.158 26.8956C135.778 26.8956 136.32 26.35 136.32 25.5706C136.32 24.7912 135.778 24.2456 135.158 24.2456ZM134.848 25.7265V26.5059H134.46V24.6353H135.158C135.623 24.6353 135.855 24.7912 135.855 25.2588C135.855 25.5706 135.7 25.6485 135.468 25.7265L135.933 26.5059H135.468L135.003 25.7265H134.848ZM134.848 25.4147H135.235C135.39 25.4147 135.468 25.4147 135.468 25.1809C135.468 25.025 135.313 24.9471 135.158 24.9471H134.848V25.4147Z" fill="black"/>
<path fill-rule="evenodd" clip-rule="evenodd" d="M143.295 7.02053C142.442 7.02053 141.59 6.39701 141.59 5.30583C141.59 4.21466 142.442 3.59113 143.295 3.59113C144.225 3.59113 145 4.21466 145 5.30583C145 6.39701 144.225 7.02053 143.295 7.02053ZM143.295 3.98084C142.675 3.98084 142.132 4.52642 142.132 5.30583C142.132 6.08524 142.675 6.63083 143.295 6.63083C143.992 6.63083 144.535 6.08524 144.535 5.30583C144.535 4.52642 143.992 3.98084 143.295 3.98084ZM143.062 5.46171V6.24112H142.675V4.37054H143.295C143.76 4.37054 144.07 4.52642 144.07 4.91613C144.07 5.30583 143.837 5.38377 143.605 5.38377L144.07 6.24112H143.605L143.217 5.46171H143.062ZM143.372 5.14995C143.605 5.14995 143.682 5.07201 143.682 4.91613C143.682 4.6823 143.45 4.6823 143.295 4.6823H143.062V5.14995H143.372ZM77.8861 2.26613C77.6536 2.73378 70.4462 15.8279 70.1362 16.2955C69.5162 17.2308 68.0438 18.0882 66.3388 18.0102C65.7188 18.0102 49.4441 18.0102 48.4366 18.0102C46.5766 18.0882 46.1891 16.3734 46.7316 15.4382C46.8866 15.1264 53.8615 2.5779 54.1715 2.11025C55.024 0.629377 56.4965 -0.0720954 58.3564 0.00584555H76.3361C77.5761 -0.0720954 78.4286 1.2529 77.8861 2.26613ZM62.9288 4.21466C62.6964 4.60436 57.4264 14.1911 57.1939 14.5808C56.9614 15.2043 58.3564 15.672 58.8989 15.672C59.3639 15.672 60.9139 15.4382 61.5339 14.5808C61.8439 13.9573 66.8813 4.76025 67.1138 4.37054C67.5013 3.66908 66.1838 3.35731 65.6413 3.35731C65.1763 3.35731 63.2388 3.27937 62.9288 4.21466ZM19.3746 15.4382L27.8994 0.00584555H49.2116C50.7616 0.00584555 50.7616 1.17496 50.3741 2.03231C50.0641 3.04555 48.5141 5.77348 47.8941 6.39701C47.3516 7.3323 45.6466 8.03376 44.7167 8.18964C45.1817 8.50141 46.0341 9.51465 45.5691 10.6058C45.2591 11.8529 43.4767 15.0485 42.5467 16.0617C42.0817 16.8411 40.7642 17.9323 38.9818 18.0102H0.232422V15.4382H19.3746ZM32.5494 10.6058L29.8369 15.4382H34.9518C35.6493 15.3602 36.0368 15.0485 36.8118 14.1911C37.1218 13.7235 38.1293 11.9308 38.2843 11.5411C38.5943 10.9955 38.5168 10.6838 37.6643 10.6058H32.5494ZM36.5018 3.35731L34.0993 7.79994H39.2918C39.9117 7.722 40.6092 7.41024 40.6867 7.09848C40.8417 6.94259 42.0817 4.68231 42.2367 4.44848C42.4692 3.9029 42.1592 3.35731 41.5392 3.35731H36.5018Z" fill="black"/>
</svg>
