<svg width="155" height="55" viewBox="0 0 155 55" fill="none" xmlns="http://www.w3.org/2000/svg">
<mask id="mask0_585_8211" style="mask-type:luminance" maskUnits="userSpaceOnUse" x="0" y="1" width="155" height="53">
<path d="M145.606 5.55541C145.606 7.91947 147.404 9.93673 149.91 9.93673C152.279 9.93673 154.147 7.91947 154.147 5.55541C154.147 3.18277 152.279 1.32698 149.91 1.32698C147.404 1.32698 145.606 3.18277 145.606 5.55541ZM61.2213 5.55206V16.3078C58.8555 15.2314 55.2742 14.2322 51.8251 14.2322C42.5801 14.2322 37.27 19.7449 36.4751 28.6449C36.2622 31.2339 36.2622 36.326 36.4751 38.8377C37.27 47.6518 43.1449 53.616 52.8312 53.616C59.786 53.616 65.594 50.5223 67.4636 49.1523C68.6139 48.3711 68.8319 47.578 68.8319 46.2852V5.55206C68.8319 3.40261 67.1735 1.67717 65.0223 1.67717C62.9501 1.67717 61.2213 3.40261 61.2213 5.55206ZM44.072 37.8951C43.866 35.6736 43.9329 31.4485 44.072 29.5033C44.369 24.2739 46.9494 21.5424 52.3985 21.5424C56.136 21.5424 59.719 22.8386 61.2213 23.7726V43.7048C59.786 44.7881 56.0622 46.2852 52.9737 46.2852C47.4473 46.2852 44.5115 43.4198 44.072 37.8951ZM110.48 18.1724C109.411 18.8952 108.966 19.6145 108.966 21.1115V49.2965C108.966 51.4511 110.762 53.1782 112.777 53.1782C114.922 53.1782 116.58 51.4511 116.58 49.2965V23.5614C118.216 22.5519 121.595 21.5424 125.102 21.5424C129.557 21.5424 133.437 23.9872 133.437 29.7265V49.2965C133.437 51.4511 135.223 53.1782 137.232 53.1782C139.462 53.1782 141.038 51.4511 141.038 49.2965V29.3643C141.038 19.6763 135.724 14.2322 125.327 14.2322C117.797 14.2322 112.557 16.5998 110.48 18.1724ZM78.0684 16.3748C76.1335 17.2418 75.5515 18.6754 75.5515 19.8995C75.5515 22.121 77.6392 23.7726 80.7947 22.7648C82.8051 22.0472 85.6756 21.1888 88.6148 21.1888C94.2013 21.1888 96.5756 23.2695 96.5756 28.1453V30.5077C93.2725 29.7266 90.826 29.299 87.4611 29.299C77.4228 29.299 72.9007 34.9662 72.9007 41.2016C72.9007 48.232 77.7731 53.616 87.6018 53.616C95.0648 53.616 100.521 50.9497 102.533 49.5934C103.604 48.8707 103.889 48.0913 103.889 46.7951V28.1453C103.889 18.459 98.2203 14.2322 89.0405 14.2322C84.6764 14.2322 80.1509 15.3704 78.0684 16.3748ZM80.362 40.9219C80.362 37.4745 83.5141 35.531 87.8903 35.531C91.1247 35.531 93.4184 35.9654 96.5756 36.7482V44.7194C95.8529 45.2843 93.2072 46.9428 88.2525 46.9428C83.1622 46.9428 80.362 44.7881 80.362 40.9219ZM6.13725 16.3748C4.20411 17.2418 3.62039 18.6754 3.62039 19.8995C3.62039 22.121 5.70461 23.7726 8.86355 22.7648C10.8722 22.0472 13.7479 21.1888 16.6802 21.1888C22.2805 21.1888 24.6445 23.2695 24.6445 28.1453V30.5077C21.3414 29.7266 18.9052 29.299 15.5334 29.299C5.83337 29.299 1.28724 34.592 0.990234 40.5682V41.885C1.29754 48.5737 6.16815 53.616 15.6724 53.616C23.1423 53.616 28.5863 50.9497 30.6036 49.5934C31.6766 48.8707 31.9599 48.0913 31.9599 46.7951V28.1453C31.9599 18.459 26.2909 14.2322 17.1128 14.2322C12.7367 14.2322 8.22146 15.3704 6.13725 16.3748ZM8.43778 40.9219C8.43778 37.4745 11.5881 35.531 15.9643 35.531C19.1902 35.531 21.4924 35.9654 24.6445 36.7482V44.7194C23.9303 45.2843 21.2675 46.9428 16.3197 46.9428C11.231 46.9428 8.43778 44.7881 8.43778 40.9219ZM146.107 18.7561V49.4493C146.107 51.6021 147.903 53.3309 149.91 53.3309C152.06 53.3309 153.722 51.6021 153.722 49.4493V18.7561C153.722 16.6066 151.993 14.8812 149.91 14.8812C147.757 14.8812 146.107 16.6066 146.107 18.7561Z" fill="white"/>
</mask>
<g mask="url(#mask0_585_8211)">
<path d="M145.606 5.55541C145.606 7.91947 147.404 9.93673 149.91 9.93673C152.279 9.93673 154.147 7.91947 154.147 5.55541C154.147 3.18277 152.279 1.32698 149.91 1.32698C147.404 1.32698 145.606 3.18277 145.606 5.55541ZM61.2213 5.55206V16.3078C58.8555 15.2314 55.2742 14.2322 51.8251 14.2322C42.5801 14.2322 37.27 19.7449 36.4751 28.6449C36.2622 31.2339 36.2622 36.326 36.4751 38.8377C37.27 47.6518 43.1449 53.616 52.8312 53.616C59.786 53.616 65.594 50.5223 67.4636 49.1523C68.6139 48.3711 68.8319 47.578 68.8319 46.2852V5.55206C68.8319 3.40261 67.1735 1.67717 65.0223 1.67717C62.9501 1.67717 61.2213 3.40261 61.2213 5.55206ZM44.072 37.8951C43.866 35.6736 43.9329 31.4485 44.072 29.5033C44.369 24.2739 46.9494 21.5424 52.3985 21.5424C56.136 21.5424 59.719 22.8386 61.2213 23.7726V43.7048C59.786 44.7881 56.0622 46.2852 52.9737 46.2852C47.4473 46.2852 44.5115 43.4198 44.072 37.8951ZM110.48 18.1724C109.411 18.8952 108.966 19.6145 108.966 21.1115V49.2965C108.966 51.4511 110.762 53.1782 112.777 53.1782C114.922 53.1782 116.58 51.4511 116.58 49.2965V23.5614C118.216 22.5519 121.595 21.5424 125.102 21.5424C129.557 21.5424 133.437 23.9872 133.437 29.7265V49.2965C133.437 51.4511 135.223 53.1782 137.232 53.1782C139.462 53.1782 141.038 51.4511 141.038 49.2965V29.3643C141.038 19.6763 135.724 14.2322 125.327 14.2322C117.797 14.2322 112.557 16.5998 110.48 18.1724ZM78.0684 16.3748C76.1335 17.2418 75.5515 18.6754 75.5515 19.8995C75.5515 22.121 77.6392 23.7726 80.7947 22.7648C82.8051 22.0472 85.6756 21.1888 88.6148 21.1888C94.2013 21.1888 96.5756 23.2695 96.5756 28.1453V30.5077C93.2725 29.7266 90.826 29.299 87.4611 29.299C77.4228 29.299 72.9007 34.9662 72.9007 41.2016C72.9007 48.232 77.7731 53.616 87.6018 53.616C95.0648 53.616 100.521 50.9497 102.533 49.5934C103.604 48.8707 103.889 48.0913 103.889 46.7951V28.1453C103.889 18.459 98.2203 14.2322 89.0405 14.2322C84.6764 14.2322 80.1509 15.3704 78.0684 16.3748ZM80.362 40.9219C80.362 37.4745 83.5141 35.531 87.8903 35.531C91.1247 35.531 93.4184 35.9654 96.5756 36.7482V44.7194C95.8529 45.2843 93.2072 46.9428 88.2525 46.9428C83.1622 46.9428 80.362 44.7881 80.362 40.9219ZM6.13725 16.3748C4.20411 17.2418 3.62039 18.6754 3.62039 19.8995C3.62039 22.121 5.70461 23.7726 8.86355 22.7648C10.8722 22.0472 13.7479 21.1888 16.6802 21.1888C22.2805 21.1888 24.6445 23.2695 24.6445 28.1453V30.5077C21.3414 29.7266 18.9052 29.299 15.5334 29.299C5.83337 29.299 1.28724 34.592 0.990234 40.5682V41.885C1.29754 48.5737 6.16815 53.616 15.6724 53.616C23.1423 53.616 28.5863 50.9497 30.6036 49.5934C31.6766 48.8707 31.9599 48.0913 31.9599 46.7951V28.1453C31.9599 18.459 26.2909 14.2322 17.1128 14.2322C12.7367 14.2322 8.22146 15.3704 6.13725 16.3748ZM8.43778 40.9219C8.43778 37.4745 11.5881 35.531 15.9643 35.531C19.1902 35.531 21.4924 35.9654 24.6445 36.7482V44.7194C23.9303 45.2843 21.2675 46.9428 16.3197 46.9428C11.231 46.9428 8.43778 44.7881 8.43778 40.9219ZM146.107 18.7561V49.4493C146.107 51.6021 147.903 53.3309 149.91 53.3309C152.06 53.3309 153.722 51.6021 153.722 49.4493V18.7561C153.722 16.6066 151.993 14.8812 149.91 14.8812C147.757 14.8812 146.107 16.6066 146.107 18.7561Z" fill="url(#paint0_linear_585_8211)"/>
</g>
<defs>
<linearGradient id="paint0_linear_585_8211" x1="-70.8163" y1="40.4517" x2="214.659" y2="15.4758" gradientUnits="userSpaceOnUse">
<stop stop-color="#00B16B"/>
<stop offset="0.350006" stop-color="#006DB6"/>
<stop offset="0.649994" stop-color="#8E278F"/>
<stop offset="0.899994" stop-color="#F04C23"/>
<stop offset="1" stop-color="#F04C23"/>
</linearGradient>
</defs>
</svg>
