<svg width="64" height="65" viewBox="0 0 64 65" fill="none" xmlns="http://www.w3.org/2000/svg">
<g clip-path="url(#clip0_491_12349)">
<path d="M0.53418 0H63.1218V52.4247H0.53418V0Z" fill="#FF3300"/>
<path d="M48.6697 30.1482V33.9699C48.6697 34.977 47.853 35.7936 46.8456 35.7936C45.8381 35.7936 45.0214 34.977 45.0214 33.9699V15.1775H41.482V37.1273H52.2092V30.1373H48.6697V30.1482ZM22.086 33.9372C22.086 34.9607 21.28 35.8207 20.2672 35.8207C19.249 35.8088 18.4315 34.9769 18.4376 33.959V30.1373H14.8982V33.3057C14.8982 34.8954 16.2922 37.454 20.2563 37.454C24.2205 37.454 25.6145 35.4942 25.6145 33.3057V15.1775H22.086V33.9372ZM35.3724 15.1775H28.2935V37.1273H35.3724C38.0188 37.1273 38.9118 35.3744 38.9118 34.2529V27.6877C38.9118 26.7513 37.9752 25.5318 36.5812 25.5318C37.9752 25.5318 38.9118 23.5938 38.9118 22.5051V18.7596C38.9118 16.3317 36.7337 15.1775 35.3724 15.1775ZM33.9784 35.3418H31.8329V26.4899H33.9784C35.3724 26.4899 35.3724 27.5025 35.3724 30.943C35.3724 34.3836 35.3724 35.3418 33.9784 35.3418ZM33.7606 24.6391L31.8329 24.6282V17.2571H33.7606C35.0565 17.2571 35.3724 17.5293 35.3724 20.9699C35.3724 24.4104 35.0565 24.6391 33.7606 24.6391ZM16.6734 27.753C17.8249 27.7738 18.7753 26.8574 18.7964 25.7063C18.8173 24.555 17.9008 23.6047 16.7493 23.5836C15.5978 23.5625 14.6472 24.4786 14.626 25.6299V25.6625C14.6139 26.805 15.5306 27.741 16.6734 27.753ZM19.9405 15.1775H13.4062L16.6734 22.7663L19.9405 15.1775Z" fill="white"/>
<path d="M12.5463 56.1483V59.6433H8.54959V56.1483H6.93774V64.0092H8.56046V60.3401H12.5573V63.1599C12.5507 63.3112 12.5845 63.4615 12.6553 63.5954C12.7166 63.7022 12.8073 63.7892 12.9166 63.8459C13.0159 63.9083 13.1272 63.9491 13.2433 63.9657C13.3437 63.9863 13.4458 63.9973 13.5482 63.9983H14.169V56.1373H12.5463V56.1483ZM44.1507 64.0092V56.1483H42.5714L39.4024 61.9623L36.1788 56.1374H34.5778V63.9983H35.4055V57.9012L38.8033 63.9983H39.2281L42.5388 57.9556V63.1599C42.5357 63.3122 42.5733 63.4625 42.6477 63.5954C42.7117 63.703 42.8015 63.7929 42.9091 63.8568C43.0084 63.9192 43.1197 63.9601 43.2358 63.9766C43.3398 63.9972 43.4455 64.0081 43.5516 64.0092L44.1507 64.0092ZM54.2896 64.0092L50.2493 55.9741H49.7701L45.6317 64.0092H46.5791L47.8642 61.5159H50.7938L50.3909 60.7103H48.2781L49.6395 58.0646L52.3076 63.3777C52.3934 63.5694 52.5288 63.7347 52.6997 63.8568C52.8809 63.9633 53.0886 64.0161 53.2986 64.0092H54.2896ZM62.7081 56.1483C62.657 56.1469 62.6059 56.1506 62.5555 56.1591C62.4978 56.1715 62.4425 56.1936 62.3921 56.2245C62.3384 56.2565 62.2936 56.3014 62.2615 56.3551C62.2246 56.4217 62.2058 56.4968 62.2071 56.5729V61.6356L56.8271 56.1482H55.7925V64.0092H56.7401V58.0863L62.2071 63.8133C62.4249 64.031 62.7407 64.0092 63.0347 64.0092H63.1436V56.1483H62.7081ZM20.3003 55.9741H19.8321L15.6828 64.0092H16.6303L19.6905 58.0645L21.0191 60.7102H18.8955L18.4817 61.505H21.433L22.3696 63.3777C22.4555 63.5694 22.5907 63.7347 22.7616 63.8568C22.9441 63.9592 23.1517 64.0082 23.3607 63.9983H24.3517L20.3003 55.9741ZM30.69 63.3777L28.3049 60.4162H27.4772V64.0092H25.8655V56.1483H28.8386C28.8386 56.1483 30.0583 56.1265 30.8643 56.5403C31.6701 56.9539 32.0077 57.5202 32.0077 58.2496C32.0077 58.979 31.5829 59.8283 30.0474 60.2639L33.1404 64.0092H31.8879C31.6955 64.0029 31.5049 63.9699 31.3215 63.9113C31.0275 63.7915 30.69 63.3777 30.69 63.3777H30.69ZM27.4772 56.8341V59.8065H28.2287C28.2287 59.8065 28.9692 59.8174 29.4593 59.5343C29.9494 59.2512 30.287 58.8593 30.287 58.2822C30.2834 57.7054 29.9301 57.1886 29.394 56.9757C29.1327 56.8645 28.85 56.8125 28.5662 56.8233H27.4772V56.8341ZM0.53418 60.34H0.77364V61.8534C1.01326 61.6139 1.23108 61.4832 1.59052 61.4832C2.17856 61.4832 2.59245 61.9405 2.59245 62.6046C2.59245 63.3777 2.09149 63.8677 1.32915 63.8677C1.05508 63.8641 0.784598 63.8048 0.53418 63.6934V60.34ZM0.784661 63.5301C0.961316 63.601 1.14972 63.6379 1.34004 63.639C1.88099 63.6573 2.33452 63.2338 2.35286 62.6928V62.6264C2.35286 62.082 2.02605 61.7011 1.56876 61.7011C1.28562 61.7011 1.0569 61.8317 0.784661 62.1474V63.5301ZM3.333 65H3.09341L3.87752 63.3777L2.93001 61.5267H3.18049L3.99725 63.1381L4.78135 61.5267H5.03183L3.333 65Z" fill="#FF3300"/>
</g>
<defs>
<clipPath id="clip0_491_12349">
<rect width="62.6204" height="65" fill="white" transform="translate(0.52832)"/>
</clipPath>
</defs>
</svg>
