<svg width="123" height="29" viewBox="0 0 123 29" fill="none" xmlns="http://www.w3.org/2000/svg">
<path d="M65.3059 27.7289V1.80807H61.3485V17.9675L44.0684 1.18151V27.1355H48.0258V10.7124L65.3059 27.7289Z" fill="#231F20"/>
<path d="M25.2051 27.1352V1.80848H39.3855V5.76589L29.1625 5.76175V11.7099L37.0773 11.7017V15.6591H29.1625V15.6673V23.1819H29.1708L39.32 23.1778V27.1352H25.2051Z" fill="#231F20"/>
<path d="M122.424 27.6298V1.80835H118.467L118.442 18.2252L101.055 1.16522V27.1351H105.069V10.605L122.424 27.6298Z" fill="#231F20"/>
<path d="M0.47168 27.1352L0.47168 1.80848H8.84814C8.84814 1.80848 20.7528 2.237 20.7528 14.3728C20.7528 26.1457 8.88126 27.1352 8.88126 27.1352H0.47168ZM8.74946 23.3427C8.74946 23.3427 16.8451 22.9397 16.8451 14.5212C16.8451 5.30425 7.92486 5.46917 7.92486 5.46917H4.42909V23.3448L8.74946 23.3427Z" fill="#231F20"/>
<path d="M73.5997 14.6038C73.5997 9.29803 77.8593 4.99628 83.114 4.99628C88.368 4.99628 92.8257 8.66801 92.8257 14.6038C92.8257 19.9095 88.368 24.2113 83.114 24.2113C77.8593 24.2113 73.5997 19.9095 73.5997 14.6038ZM83.114 28.0238C90.8963 28.1245 96.9294 21.3117 96.9294 15.0654C96.9294 8.33817 92.0832 0.985741 83.3114 0.985741C76.7815 0.985741 69.5615 6.29288 69.5615 14.6038C69.5615 20.8501 74.3284 27.9099 83.114 28.0238Z" fill="#231F20"/>
</svg>
