<svg width="141" height="37" viewBox="0 0 141 37" fill="none" xmlns="http://www.w3.org/2000/svg">
<g clip-path="url(#clip0_486_9757)">
<path d="M19.5707 36.0027C18.9647 35.5563 18.9647 35.4287 20.1766 30.6132C20.8782 27.9025 21.4841 24.8091 21.5798 23.7567L21.7392 21.8433L20.1128 25.0323C17.1789 30.7089 15.0422 33.4515 12.2677 35.0779C10.5137 36.0984 7.29275 36.4492 5.12419 35.8433C0.723275 34.5995 -0.871258 28.6998 2.41348 25.6702C4.3907 23.8524 10.0353 24.5859 9.39753 26.5631C9.1743 27.2328 9.01484 27.2647 7.73922 27.0733C6.49548 26.882 6.20847 26.9777 5.47498 27.7112C4.83717 28.349 4.64583 28.8911 4.64583 30.0073C4.64583 31.251 4.80528 31.6018 5.66633 32.3353C7.42031 33.8023 10.0991 33.3239 12.2677 31.1554C13.7666 29.6565 16.3178 24.9367 19.6344 17.6337C23.0467 10.0756 25.1196 5.96173 26.9055 3.18724C28.5319 0.667882 28.7871 0.47654 29.8713 0.731665C31.1151 1.05057 31.1789 2.13485 30.0946 4.55854C28.0536 9.08702 26.6185 14.4128 26.2358 18.6861L26.0126 21.1417L29.2335 16.5494C33.3155 10.7134 35.6754 7.7795 39.3748 3.95262C41.7347 1.52893 42.5319 0.923006 43.2654 0.923006C44.4454 0.923006 44.7962 1.72027 44.0946 2.86834C43.8076 3.3467 42.1492 6.08929 40.3953 8.99134C33.8896 19.7066 30.9556 27.5836 31.9761 31.4743C32.4226 33.1326 33.188 33.4196 35.0376 32.5585C37.0467 31.6337 38.0672 30.5813 39.2472 28.2214C41.4158 23.9162 45.721 20.6633 49.2609 20.6633C50.1857 20.6633 51.2381 20.8547 51.5889 21.1098C52.1629 21.4925 52.3224 21.4925 52.8645 21.1098C53.6937 20.5039 55.1606 20.5358 55.6709 21.1417C55.9898 21.5244 55.7347 22.2897 54.2677 25.1599C53.2791 27.1052 52.0991 29.3376 51.6845 30.0711C51.27 30.8364 51.0148 31.538 51.1424 31.6656C51.9078 32.431 55.2882 28.7954 58.7643 23.5654C59.9761 21.7476 59.9761 21.7157 59.4659 20.5358C58.8281 19.005 58.8281 15.9435 59.4659 14.6998C60.008 13.6474 61.475 12.7226 62.5912 12.7226C62.9738 12.7226 63.7392 13.169 64.2495 13.6793C65.0467 14.4765 65.2062 14.923 65.2062 16.1667C65.2062 17.0278 64.9192 18.2396 64.5365 18.9731C63.6754 20.6633 63.6754 20.7271 64.983 20.5358C66.3224 20.3125 67.4704 21.0141 67.4704 22.0346C67.4704 22.4492 66.418 24.0756 65.1424 25.702C60.7734 31.2191 60.0718 33.9936 63.3884 32.6223C65.5251 31.7294 66.6413 30.6451 71.7438 24.3945C75.475 19.8342 76.9101 18.3034 77.4522 18.3034C78.2813 18.3034 79.6527 19.1645 79.6527 19.6747C79.6527 19.8661 79.0467 20.8547 78.2814 21.8433L76.9101 23.661L77.3565 25.1599C77.6116 25.9891 77.8668 27.2966 77.9306 28.062C77.9943 28.8273 78.1538 29.4651 78.2495 29.4651C78.3451 29.4651 79.27 28.8592 80.2905 28.1257C81.7893 27.0733 82.3634 26.4036 83.0331 24.9048C86.7324 16.7089 89.6344 10.3945 90.049 9.78861C90.623 8.92756 92.5046 8.76811 93.1424 9.53348C93.5889 10.0437 93.557 10.0756 90.049 18.3353L88.5501 21.8752L89.9533 21.046C91.516 20.1212 92.7278 19.9936 93.5251 20.6314C94.2586 21.2374 94.8007 23.0551 94.5456 24.267C94.3224 25.3513 92.7916 28.6041 91.3246 30.9959C90.8144 31.8251 90.623 32.3991 90.8782 32.3991C91.7711 32.3991 94.0991 30.0392 94.9602 28.2533C96.1082 25.8934 99.68 22.2579 101.849 21.2055C103.921 20.185 106.568 20.1212 107.557 21.0141C108.163 21.5563 108.259 21.5563 108.45 21.1417C108.864 20.0574 111.894 20.2487 111.894 21.333C111.894 21.5882 110.874 23.7886 109.598 26.2442C108.322 28.6998 107.302 30.9959 107.302 31.4105C107.302 32.6542 108.195 32.5585 109.949 31.0916C111.288 29.9754 111.926 29.0506 113.202 26.3718C116.391 19.7066 121.27 13.5836 125.703 10.6178C128.286 8.89567 130.646 9.05513 130.646 11.0005C130.646 12.021 128.509 16.6132 127.042 18.7499C125.543 20.9185 122.195 24.0437 119.101 26.1804C115.689 28.5084 115.562 28.6679 115.306 30.4856C115.051 32.2715 115.912 33.292 117.316 32.9412C118.782 32.5585 121.78 29.1462 123.726 25.6383C126.245 21.046 127.521 19.1007 129.593 16.5175C131.794 13.8068 136.482 9.88428 137.853 9.56538C139.193 9.27836 140.149 9.62916 140.372 10.4902C140.596 11.415 139.288 15.0506 137.853 17.538C136.482 19.8661 131.953 24.4264 128.573 26.8182C125.926 28.7317 125.352 29.6884 125.83 31.5699C126.436 33.9936 129.243 32.9731 132.336 29.21C134.122 27.0096 134.409 26.8182 134.855 27.2328C135.557 27.9344 135.206 28.923 133.261 31.5062C131.411 33.9617 128.892 35.8433 127.01 36.1622C124.937 36.5449 122.737 35.0779 122.003 32.8774C121.94 32.718 121.398 33.0369 120.76 33.6109C119.197 35.0779 116.614 36.3216 115.115 36.3216C114.158 36.3216 113.616 36.0984 112.883 35.3649C112.341 34.8228 111.926 34.0893 111.926 33.7066C111.926 33.3239 111.83 33.0369 111.735 33.0369C111.639 33.0369 110.778 33.6109 109.853 34.3444C106.951 36.5449 105.452 36.7043 104.081 34.9822L103.539 34.3125L102.391 34.9822C101.753 35.3649 100.541 35.8114 99.68 36.0027C97.8622 36.4173 96.4909 35.9708 95.2153 34.5995L94.4499 33.7704L93.1424 34.7271C91.1333 36.1622 89.8258 36.513 88.6458 35.9071C87.4021 35.2692 86.6367 34.185 86.6367 33.1007C86.6367 32.6542 87.5296 30.5813 88.6139 28.5084C89.6982 26.4355 90.5911 24.6178 90.5911 24.4902C90.5911 23.8524 89.6344 24.3308 87.9761 25.7977C86.4454 27.169 85.9351 27.9344 84.3406 31.4743C82.2358 36.1622 81.4385 36.9595 79.8121 36.0346C78.8554 35.4925 78.6321 34.3125 79.2381 32.9731C79.4294 32.5585 78.6959 32.9412 77.1333 34.0255C73.1788 36.8 70.0217 37.0232 67.8531 34.6952L66.9602 33.7385L65.2062 34.7909C63.9624 35.5563 62.9101 35.8752 61.5707 36.0027C59.8167 36.1303 59.6253 36.0665 58.7005 35.1417C57.967 34.4082 57.7119 33.8342 57.7119 33.005C57.7119 31.4105 59.6572 27.7112 61.6344 25.4788C62.6868 24.2989 63.1652 23.5335 62.9419 23.374C62.4955 23.087 62.6549 22.9276 59.5297 27.2647C56.0536 32.0802 54.0763 34.185 52.0353 35.2055C49.9943 36.226 48.623 36.2897 47.6344 35.3649L46.9009 34.6952L45.5615 35.3649C43.8076 36.2579 41.4158 36.2579 39.9807 35.3968C39.3748 35.046 38.8326 34.5358 38.7051 34.2487C38.5456 33.8661 38.2586 33.9617 37.1424 34.7271C34.8144 36.3535 31.9442 36.7043 29.967 35.6838C28.4363 34.8866 27.8622 31.5062 28.5 26.8501L28.7552 25.0323L27.7347 26.8501C24.8964 31.8569 21.4841 36.3854 20.5593 36.3854C20.3041 36.4492 19.9215 36.2579 19.5707 36.0027ZM73.2107 33.0369C73.8804 32.3672 74.008 31.8888 74.008 30.4856C74.008 28.4765 73.721 27.2009 73.3064 27.3285C72.7324 27.5198 70.0536 31.0597 70.0536 31.6337C70.0536 32.2715 71.4567 33.8342 72.0308 33.8342C72.2221 33.8342 72.7643 33.4515 73.2107 33.0369ZM102.199 31.3786C104.942 29.0506 106.887 23.3103 105.038 23.0551C102.614 22.7043 98.0217 27.9344 97.926 31.1235C97.8622 33.4196 99.68 33.5472 102.199 31.3786ZM45.434 31.8888C47.6663 30.4857 49.4841 27.5517 49.8668 24.7772C50.09 23.1508 49.6754 22.7043 48.2404 23.087C45.2426 23.8524 40.7142 30.677 42.1174 32.3353C42.7233 33.1007 43.7757 32.9412 45.434 31.8888ZM121.653 20.759C124.013 18.431 127.425 13.4241 126.691 13.4241C126.532 13.4241 125.256 14.6679 123.821 16.1667C121.334 18.8137 118.145 23.2784 118.782 23.2784C118.91 23.3103 120.218 22.1622 121.653 20.759ZM132.4 20.185C134.026 18.6861 137.279 13.456 136.577 13.456C135.621 13.456 128.956 21.9071 128.956 23.1189C128.956 23.3103 129.657 22.8 130.486 22.0027C131.347 21.1736 132.177 20.3763 132.4 20.185ZM62.4636 17.6656C62.7825 16.7408 62.4955 15.4014 62.0171 15.4014C61.6025 15.4014 61.188 16.9002 61.3793 17.7294C61.6344 18.9731 62.0171 18.9731 62.4636 17.6656Z" fill="black"/>
</g>
<defs>
<clipPath id="clip0_486_9757">
<rect width="140" height="36.0364" fill="white" transform="translate(0.5 0.481812)"/>
</clipPath>
</defs>
</svg>
