<svg width="151" height="29" viewBox="0 0 151 29" fill="none" xmlns="http://www.w3.org/2000/svg">
<g clip-path="url(#clip0_486_9774)">
<path d="M12.6476 0.477539H19.3347V22.4101H12.6476V12.3794H7.34084V22.318H0.623047V0.56956H7.37151V9.61864H12.6169V0.477539H12.6476ZM38.1997 10.0174C39.4267 12.1033 39.5494 15.1401 38.6905 17.6248C37.8316 20.0788 36.0832 21.3058 34.9482 21.9193C33.7826 22.5328 31.9727 22.8702 30.1936 22.8702C28.4145 22.8702 26.1445 22.4714 24.6108 21.2751C23.077 20.0481 22.0341 18.7291 21.574 16.9193C21.1138 15.1094 20.8071 11.8579 22.7396 9.31189C24.6721 6.7352 27.0954 6.27508 28.2304 6.09103C29.2427 5.90698 29.8869 5.93766 29.9789 5.93766C29.9789 5.93766 32.1568 5.81496 33.9053 6.48981C35.6844 7.13398 36.9727 7.93152 38.1997 10.0174ZM31.2672 20.6616C32.1261 19.9254 32.4942 18.453 32.5862 17.4407C32.6476 16.9193 32.6169 14.3732 32.6169 12.1953C32.6169 10.9683 32.4022 10.0481 32.2181 9.55729C31.6967 8.26895 30.8991 7.56343 29.8562 7.77815C29.3654 7.87017 28.8132 8.36097 28.2918 9.49594C27.7703 10.6309 27.9237 12.5634 27.8623 15.3855C27.801 18.1769 28.0464 19.1278 28.6905 20.1094C29.3654 21.0604 30.4083 21.3671 31.2672 20.6616ZM55.1936 6.48981C52.9543 5.53889 50.7458 6.09103 49.4881 6.70453C48.2304 7.31803 47.4022 8.5757 47.3715 8.5757V6.42846H41.0832V22.318H47.3408V10.8763C47.2181 10.7536 48.1077 9.80269 48.9359 9.34257C49.7948 8.88245 50.8071 9.12784 51.1752 9.55729C51.666 10.1708 51.666 10.8456 51.666 11.2137V22.2874H57.8623V10.2015C57.801 9.43459 57.4329 7.44073 55.1936 6.48981ZM75.9298 20.4162C74.8255 21.4898 72.8316 22.5634 70.623 22.8088C68.4145 23.0235 65.2856 23.1156 62.7703 20.999C61.2979 19.772 60.623 18.4223 60.1936 17.1953C59.6415 15.6616 59.4881 12.7168 60.7458 10.2015C62.0034 7.68613 65.1629 5.69226 69.0893 5.87631C73.0157 6.09103 75.255 7.50208 76.6353 10.1401C77.8316 12.3794 77.6476 15.3242 77.6169 15.3242L66.3286 15.2935V18.5143C66.3286 18.5143 66.4513 19.1585 66.6967 19.4959C66.9421 19.8334 67.985 21.1524 71.0218 20.6616C74.4267 20.1094 74.3347 17.7168 74.396 17.7168H77.0954C77.0648 17.7475 77.0341 19.3426 75.9298 20.4162ZM70.2856 8.23827C69.6414 7.56343 68.4451 7.62478 67.8316 8.05423C67.3408 8.42232 66.7887 9.21987 66.6046 10.2321C66.4206 11.2137 66.4513 13.2996 66.4513 13.2996H71.3899C71.3899 13.2689 71.3899 12.7475 71.3899 11.8579C71.3899 10.9683 71.2365 10.0481 71.1445 9.74134C71.0832 9.46527 70.9298 8.91312 70.2856 8.23827ZM133.599 10.1401C134.795 12.3794 134.611 15.3242 134.58 15.3242L123.292 15.2935V18.5143C123.292 18.5143 123.414 19.1585 123.66 19.4959C123.905 19.8334 124.948 21.1524 128.016 20.6616C131.421 20.1094 131.329 17.6861 131.39 17.6861H134.089C134.089 17.6861 134.059 19.2812 132.924 20.3548C131.819 21.4285 129.826 22.5021 127.617 22.7475C125.408 22.9622 122.28 23.0542 119.733 20.9377C118.261 19.7107 117.586 18.361 117.157 17.134C116.605 15.6002 116.451 12.6555 117.709 10.1401C118.967 7.62478 122.126 5.63091 126.053 5.81496C129.948 6.09103 132.218 7.50208 133.599 10.1401ZM123.2 13.0236H128.138C128.138 12.9929 128.138 12.4714 128.138 11.5818C128.138 10.6923 127.985 9.77201 127.893 9.46527C127.801 9.18919 127.678 8.63705 127.003 7.9622C126.359 7.28735 125.163 7.3487 124.549 7.77815C124.059 8.14625 123.506 8.9438 123.322 9.95607C123.169 10.9683 123.2 13.0236 123.2 13.0236ZM114.273 6.42846L111.881 15.2321L109.181 6.42846H103.691L101.267 15.3548L98.5065 6.45913L89.9175 6.42846L86.8194 13.9745L83.9053 6.42846H77.0954L83.4451 22.6861C83.4451 22.6861 83.4451 22.8395 83.3224 23.2996C83.1997 23.7597 82.7396 24.9254 81.9727 25.7229C81.2059 26.5512 80.347 26.3058 80.347 26.3058C80.347 26.3058 80.6844 26.0297 80.8685 25.5696C81.0832 25.1094 80.9912 24.2812 80.6537 23.545C80.3163 22.8088 79.3347 22.2567 77.8316 22.5328C76.3286 22.8088 75.6537 24.1892 75.8071 25.4775C75.9605 26.7659 76.7887 27.9009 78.9053 28.269C81.0218 28.6371 82.3102 27.8702 83.4758 26.8272C84.6415 25.7843 85.5924 23.1462 85.5924 23.1462L92.1875 6.94993L96.8807 22.2874H102.157L104.703 13.0236L107.586 22.2874H112.74L117.095 6.42846H114.273ZM136.451 22.3487H142.464V0.508211H136.451V22.3487ZM144.335 0.508211V22.3487H150.347V0.508211H144.335Z" fill="#CF002A"/>
</g>
<defs>
<clipPath id="clip0_486_9774">
<rect width="150" height="28.2209" fill="white" transform="translate(0.5 0.389526)"/>
</clipPath>
</defs>
</svg>
