<svg width="137" height="27" viewBox="0 0 137 27" fill="none" xmlns="http://www.w3.org/2000/svg">
<g clip-path="url(#clip0_486_9765)">
<path fill-rule="evenodd" clip-rule="evenodd" d="M27.2693 0.957378H36.8231C36.8231 0.957378 44.0477 1.06923 44.0477 9.17845C44.0477 16.8969 36.6655 17.3995 36.6655 17.3995H32.8618V22.098H27.2693V0.957378ZM32.8618 12.5906H35.0996C35.0996 12.5906 38.0636 12.311 38.0636 9.06732C38.0636 5.82363 34.8759 5.59993 34.8759 5.59993H32.8625L32.8618 12.5906ZM103.234 0.957378H112.965C112.965 0.957378 120.013 1.40478 120.013 9.17845C120.013 16.2251 112.91 17.3995 112.91 17.3995H108.828V22.098H103.234L103.234 0.957378ZM108.827 12.5906H111.064C111.064 12.5906 114.027 12.311 114.027 9.06732C114.027 5.82363 110.84 5.59993 110.84 5.59993H108.827V12.5906ZM46.5084 1.12588H52.045V8.84362H57.9179V1.12588H63.2309V22.0987H57.9739V13.5973H52.101V22.0987H46.5084V1.12588ZM68.4603 1.06996H73.7449V22.0987H68.4603V1.06996ZM92.8439 1.06996H98.1299V22.0987H92.8439V1.06996ZM78.9467 1.12588H84.2589V17.1206H90.02V22.0987H78.9467V1.12588ZM134.092 0.90145C134.092 0.90145 132.022 0.621826 130.122 0.621826C127.212 0.621826 122.123 1.40478 122.067 7.44548C122.067 7.44548 121.695 12.1752 126.877 13.4854C131.743 14.7158 130.652 15.6949 130.793 15.8343C130.793 15.8343 130.905 17.3436 127.212 17.3436C123.521 17.3436 122.683 16.6725 122.683 16.6725V21.5939C122.683 21.5939 123.534 21.9673 127.157 22.265C131.91 22.6565 136.441 20.5924 136.441 15.4988C136.441 13.4854 135.434 10.241 130.793 9.12252C127.824 8.40711 127.414 7.55951 127.436 7.16512C127.436 7.16512 127.306 5.46919 130.681 5.54328C133.812 5.61228 134.147 6.04661 134.147 6.04661L134.092 0.90145ZM9.84733 26.3781C3.45946 26.3781 0.558594 20.9984 0.558594 16.7901V0.937042H19.5639V16.7901C19.5639 20.9984 16.4335 26.3781 10.0456 26.3781H9.84733ZM9.96354 25.8319C15.9737 25.8319 19.0046 20.7434 19.0046 16.7843V1.4825H1.11785V16.7843C1.11785 20.7434 3.93374 25.8319 9.94393 25.8319H9.96354Z" fill="#00A1E3"/>
<path fill-rule="evenodd" clip-rule="evenodd" d="M1.58008 16.8693C1.58008 12.1853 5.37721 8.38892 10.0604 8.38892C14.7437 8.38892 18.5408 12.186 18.5408 16.8693C18.5408 21.5525 14.7437 25.3496 10.0604 25.3496C5.37721 25.3496 1.58008 21.5525 1.58008 16.8693ZM10.0604 24.8507C14.4684 24.8507 18.0418 21.2772 18.0418 16.8693C18.0418 12.4613 14.4684 8.88789 10.0604 8.88789C5.65248 8.88789 2.07905 12.4613 2.07905 16.8693C2.07905 21.2772 5.65248 24.8507 10.0604 24.8507Z" fill="#00A1E3"/>
<path fill-rule="evenodd" clip-rule="evenodd" d="M6.12848 9.79077L6.60566 12.4382L9.25305 12.9153L6.60566 13.3925L6.12848 16.0399L5.65129 13.3925L3.00391 12.9153L5.65129 12.4382L6.12848 9.79077Z" fill="#00A1E3"/>
<path fill-rule="evenodd" clip-rule="evenodd" d="M8.11195 8.93372L8.41555 10.6151L10.0969 10.9187L8.41555 11.2216L8.11195 12.9037L7.80908 11.2216L6.12695 10.9187L7.80908 10.6151L8.11195 8.93372ZM14.0531 24.014L13.576 21.3659L10.9286 20.8887L13.576 20.4115L14.0531 17.7642L14.5303 20.4115L17.1777 20.8887L14.5303 21.3659L14.0531 24.014Z" fill="#00A1E3"/>
<path fill-rule="evenodd" clip-rule="evenodd" d="M12.0697 24.8704L11.7661 23.189L10.084 22.8854L11.7661 22.5825L12.0697 20.9004L12.3726 22.5825L14.0547 22.8854L12.3726 23.189L12.0697 24.8704ZM17.9688 15.7225C17.9688 15.7225 16.8662 16.2295 16.0288 16.2295C15.1914 16.2295 14.2436 15.745 14.2436 15.745C14.2436 15.745 13.2071 15.127 11.9731 15.127C10.9149 15.127 9.96633 15.7661 9.96633 15.7661C9.96633 15.7661 8.86379 16.2731 7.93848 16.2731C7.01244 16.2731 6.1968 15.7661 6.1968 15.7661C6.1968 15.7661 5.29327 15.127 4.05855 15.127C2.82383 15.127 2.09897 15.6891 2.09897 15.6891L2.05249 16.3174C2.05249 16.3174 2.82383 15.7385 4.05855 15.7385C5.29327 15.7385 6.1968 16.3777 6.1968 16.3777C6.1968 16.3777 7.01244 16.8846 7.93848 16.8846C8.86379 16.8846 9.96633 16.3777 9.96633 16.3777C9.96633 16.3777 10.9149 15.7385 11.9731 15.7385C13.2078 15.7385 14.2436 16.3559 14.2436 16.3559C14.2436 16.3559 15.1914 16.841 16.0288 16.841C16.8662 16.841 18.0349 16.2956 18.0349 16.2956L17.9688 15.7225ZM18.0501 17.5964C18.0501 17.5964 16.867 18.1535 16.0295 18.1535C15.1921 18.1535 14.2443 17.6683 14.2443 17.6683C14.2443 17.6683 13.2078 17.0509 11.9738 17.0509C10.9156 17.0509 9.96706 17.6901 9.96706 17.6901C9.96706 17.6901 8.86452 18.1971 7.93921 18.1971C7.01317 18.1971 6.19752 17.6901 6.19752 17.6901C6.19752 17.6901 5.294 17.0509 4.05928 17.0509C2.82455 17.0509 2.02344 17.6189 2.02344 17.6189L2.05322 18.2414C2.05322 18.2414 2.82455 17.6625 4.05928 17.6625C5.294 17.6625 6.19752 18.3016 6.19752 18.3016C6.19752 18.3016 7.01317 18.8086 7.93921 18.8086C8.86452 18.8086 9.96706 18.3016 9.96706 18.3016C9.96706 18.3016 10.9156 17.6625 11.9738 17.6625C13.2086 17.6625 14.2443 18.2799 14.2443 18.2799C14.2443 18.2799 15.1921 18.765 16.0295 18.765C16.867 18.765 18.0356 18.2188 18.0356 18.2188L18.0501 17.5964Z" fill="#00A1E3"/>
<path fill-rule="evenodd" clip-rule="evenodd" d="M18.0722 16.6268C18.0722 16.6268 16.8673 17.1918 16.0299 17.1918C15.1924 17.1918 14.2446 16.7067 14.2446 16.7067C14.2446 16.7067 13.2082 16.0886 11.9742 16.0886C10.9159 16.0886 9.96738 16.7284 9.96738 16.7284C9.96738 16.7284 8.86485 17.2354 7.93953 17.2354C7.01349 17.2354 6.19785 16.7284 6.19785 16.7284C6.19785 16.7284 5.29432 16.0886 4.0596 16.0886C2.82488 16.0886 2.02376 16.6703 2.02376 16.6703L2.05354 17.2797C2.05354 17.2797 2.82488 16.7008 4.0596 16.7008C5.29432 16.7008 6.19785 17.34 6.19785 17.34C6.19785 17.34 7.01349 17.847 7.93953 17.847C8.86485 17.847 9.96738 17.34 9.96738 17.34C9.96738 17.34 10.9159 16.7008 11.9742 16.7008C13.2089 16.7008 14.2446 17.3182 14.2446 17.3182C14.2446 17.3182 15.1924 17.8034 16.0299 17.8034C16.8673 17.8034 18.0948 17.2216 18.0948 17.2216L18.0722 16.6268ZM1.88867 3.40289H3.36235C3.36235 3.40289 4.42929 3.47044 4.42929 4.64779C4.42929 5.71473 3.35363 5.89267 3.35363 5.89267H2.73555V6.60373H1.88867V3.40289ZM2.73555 5.16346H3.074C3.074 5.16346 3.52286 5.12134 3.52286 4.63035C3.52286 4.13937 3.03987 4.10523 3.03987 4.10523H2.73482L2.73555 5.16346ZM13.3905 3.40289H14.8641C14.8641 3.40289 15.9311 3.47044 15.9311 4.64779C15.9311 5.71473 14.8554 5.89267 14.8554 5.89267H14.2373V6.60373H13.3905V3.40289ZM14.2373 5.16346H14.5765C14.5765 5.16346 15.0254 5.12134 15.0254 4.63035C15.0254 4.13937 14.5424 4.10523 14.5424 4.10523H14.2373V5.16346ZM4.80189 3.42832H5.64005V4.59622H6.52905V3.42832H7.33379V6.60373H6.53776V5.31599H5.64876V6.60373H4.80189V3.42832ZM8.12184 3.4196H8.92586V6.60373H8.12983L8.12184 3.4196ZM11.8137 3.4196H12.6184V6.60373H11.8216L11.8137 3.4196ZM9.71317 3.42832H10.5179V5.84982H11.3902V6.60373H9.71317V3.42832ZM18.0628 3.39418C18.0628 3.39418 17.7498 3.35205 17.4614 3.35205C17.0213 3.35205 16.2507 3.47044 16.2419 4.38486C16.2419 4.38486 16.186 5.101 16.9704 5.29928C17.7076 5.48594 17.542 5.63411 17.5631 5.65517C17.5631 5.65517 17.5798 5.88323 17.0205 5.88323C16.462 5.88323 16.3349 5.78155 16.3349 5.78155V6.52674C16.3349 6.52674 16.4635 6.58339 17.0126 6.62842C17.7323 6.68798 18.4187 6.37494 18.4187 5.6036C18.4187 5.29855 18.2662 4.80757 17.5631 4.63834C17.1135 4.53012 17.03 4.40156 17.0547 4.34201C17.0816 4.27954 17.0714 4.09652 17.5457 4.09652C18.0199 4.09652 18.0708 4.17278 18.0708 4.17278L18.0628 3.39418Z" fill="#00A1E3"/>
</g>
<defs>
<clipPath id="clip0_486_9765">
<rect width="137" height="27" fill="white"/>
</clipPath>
</defs>
</svg>
