<svg width="140" height="33" viewBox="0 0 140 33" fill="none" xmlns="http://www.w3.org/2000/svg">
<path d="M15.9554 0.746689C7.2587 0.746689 0.204102 7.80063 0.204102 16.4988C0.204102 25.198 7.2587 32.2533 15.9554 32.2533C24.6577 32.2533 31.7099 25.198 31.7099 16.4988C31.7101 7.80063 24.6577 0.746689 15.9554 0.746689ZM15.9554 1.41826C24.2885 1.41826 31.04 8.17073 31.04 16.4988C31.0402 24.8279 24.2887 31.5817 15.9554 31.5817C7.62796 31.5817 0.876078 24.8281 0.876078 16.4988C0.876078 8.17094 7.62796 1.41826 15.9554 1.41826ZM15.9554 3.11994C8.56748 3.11994 2.57777 9.11167 2.57777 16.5012C2.57777 23.8918 8.56748 29.8809 15.9554 29.8809C23.347 29.8809 29.3367 23.8916 29.3367 16.5012C29.3369 9.11167 23.347 3.11994 15.9554 3.11994ZM15.9554 3.81243C16.06 3.81243 16.1479 3.87817 16.1785 3.96997L17.2977 7.14483C17.3109 7.18579 17.3149 7.2259 17.3149 7.26791C17.3149 7.39645 17.2526 7.51123 17.1537 7.57928C16.8487 7.78995 16.6495 8.14037 16.6495 8.53925C16.6495 8.89401 16.8042 9.21156 17.0565 9.42496C17.6887 9.9675 18.0899 10.7728 18.0899 11.6739V12.8062L23.6663 9.58741L24.3563 10.782L18.0895 14.4008V15.2697L18.8435 15.7041L25.1083 12.0862L25.7991 13.2821L20.2227 16.5012L21.2028 17.067C21.9839 17.5162 22.4808 18.266 22.6333 19.0854C22.6948 19.4082 22.8906 19.7048 23.1957 19.882C23.5419 20.0801 23.9466 20.0843 24.2812 19.9251C24.3909 19.873 24.52 19.8729 24.6328 19.9374C24.6698 19.9593 24.7015 19.9857 24.7296 20.0174L26.9179 22.5749C26.9834 22.6467 26.9972 22.7562 26.9474 22.8456C26.8955 22.9339 26.7942 22.9768 26.6972 22.9552L23.389 22.3365C23.3491 22.3296 23.3094 22.3153 23.2725 22.2947C23.1597 22.2302 23.0944 22.1147 23.0846 21.9964C23.0539 21.6272 22.8502 21.2776 22.5053 21.0808C22.198 20.9012 21.8449 20.8813 21.5363 20.9889V20.9913C20.748 21.2663 19.8505 21.2105 19.0703 20.7591L18.0895 20.1951V26.6338H16.7102V19.3975L15.9554 18.9627L15.203 19.3996V26.6338H13.8229V20.1955L12.8429 20.7596C12.0638 21.2107 11.1662 21.2661 10.3785 20.9913V20.9893C10.0704 20.8815 9.71621 20.901 9.40913 21.0808C9.06235 21.2778 8.85865 21.6274 8.82945 21.9964C8.81979 22.1147 8.75331 22.2302 8.64157 22.2947C8.60565 22.3155 8.5643 22.33 8.52629 22.3369L5.21686 22.9552C5.12087 22.9768 5.018 22.9336 4.96948 22.8456C4.9176 22.7561 4.93145 22.6467 4.99656 22.5749L7.18561 20.0178C7.21229 19.9863 7.24488 19.9597 7.28079 19.9378C7.39253 19.8733 7.52437 19.8734 7.63401 19.9255C7.96777 20.0847 8.373 20.0805 8.71705 19.8825C9.02435 19.7052 9.22153 19.4086 9.27908 19.0858C9.43283 18.2664 9.93008 17.5164 10.7117 17.0674L11.6909 16.5012L6.11611 13.2821L6.80778 12.0862L13.0714 15.7041L13.8233 15.2697V14.4008L7.55852 10.782L8.2506 9.58741L13.8233 12.8062V11.6739C13.8233 10.7728 14.2257 9.9675 14.8596 9.42496C15.1077 9.21156 15.2653 8.89401 15.2653 8.53924C15.2653 8.14037 15.0659 7.78995 14.7607 7.57928C14.6629 7.51101 14.5962 7.39645 14.5962 7.2679C14.5962 7.22589 14.6046 7.18579 14.6172 7.14483L15.738 3.96996C15.7676 3.87817 15.8533 3.81243 15.9554 3.81243ZM15.9582 10.725C15.5426 10.725 15.203 11.0619 15.203 11.4774V13.6029L15.9582 14.0385L16.7102 13.6029V11.4774C16.7102 11.0619 16.3741 10.725 15.9582 10.725ZM15.9587 15.4994L15.0906 15.9999V16.9997L15.9587 17.501L16.8251 16.9997V15.9999L15.9587 15.4994ZM13.0718 17.2967L11.231 18.3605C10.8691 18.5673 10.7474 19.0279 10.9541 19.3869C11.1644 19.7458 11.6255 19.8713 11.9834 19.663L13.8233 18.6004V17.7316L13.0718 17.2967ZM18.8435 17.2971L18.0911 17.7328V18.6009L19.9306 19.663C20.2896 19.8711 20.7503 19.7463 20.9599 19.3873C21.1672 19.0281 21.0435 18.5676 20.6826 18.3605L18.8435 17.2971Z" fill="black"/>
<path d="M34.3955 3.37224L39.501 19.473V29.629H44.6048V18.9479L49.8986 3.37224H45.5984L42.1245 13.6016L38.9816 3.37224H34.3955ZM53.1859 3.37224L48.3885 29.629H52.6431L53.6621 23.518H58.9547L59.9434 29.629H64.6296L60.2962 3.37224H53.1859ZM66.8084 3.37224V29.6265H70.9231V9.83602L74.4381 27.0404H78.2808L81.3986 9.55705V29.6265H86.2227V3.37224H78.7456L76.5414 15.8621L73.9843 3.37224H66.8084ZM93.1222 3.37224L88.3235 29.629H92.5798L93.5993 23.518H98.8902L99.8801 29.629H104.564L100.233 3.37224H93.1222ZM106.745 3.37224V29.6298H111.342V18.0987H116.373V29.6298H121.075V3.37224H116.373V13.4359H111.342V3.37224H106.745ZM127.973 3.37224L123.172 29.629H127.43L128.449 23.518H133.742L134.729 29.629H139.416L135.082 3.37224H127.973ZM56.348 7.39959L58.2474 19.1399H54.3911L56.348 7.39959ZM96.2839 7.39959L98.1833 19.1399H94.3262L96.2839 7.39959ZM131.135 7.39959L133.034 19.1399H129.179L131.135 7.39959Z" fill="black"/>
</svg>
