<svg width="2991" height="1270" viewBox="0 0 2991 1270" fill="none" xmlns="http://www.w3.org/2000/svg">
<g clip-path="url(#clip0_1392_2763)">
<path opacity="0.25" d="M6373.67 -305.036C6185.58 -258.288 5985.57 -306.024 5838.55 -432.718L5746.37 -512.129C5680.17 -569.206 5593.61 -589.849 5508.89 -568.792C5424.17 -547.735 5357.4 -488.984 5325.57 -407.542L5281.35 -294.227C5210.75 -113.445 5056.31 22.3895 4868.27 69.1244C4680.24 115.859 4480.18 68.1371 4333.15 -58.5566L4240.97 -137.969C4174.77 -195.045 4088.21 -215.688 4003.49 -194.631C3918.77 -173.574 3852.01 -114.823 3820.17 -33.3809L3775.95 79.9337C3705.35 260.716 3550.91 396.551 3362.88 443.286C3174.84 490.02 2974.78 442.298 2827.75 315.605L2735.57 236.193C2669.37 179.116 2582.81 158.474 2498.09 179.53C2413.48 200.56 2346.66 259.325 2314.88 340.754L2270.61 454.081C2200.01 634.864 2045.56 770.698 1857.53 817.433C1669.5 864.168 1469.43 816.446 1322.41 689.752L1230.28 610.327C1164.08 553.25 1077.52 532.608 992.802 553.665C908.082 574.721 841.316 633.473 809.485 714.914L765.208 828.242C694.609 1009.02 540.164 1144.86 352.131 1191.59C164.098 1238.33 -35.9675 1190.61 -182.989 1063.91L-275.117 984.488C-341.318 927.412 -427.877 906.769 -512.597 927.826C-597.317 948.882 -664.084 1007.63 -695.915 1089.08L-740.191 1202.4C-810.791 1383.19 -965.234 1519.02 -1153.27 1565.76C-1341.3 1612.49 -1541.37 1564.77 -1688.39 1438.07L-1780.51 1358.65C-1846.72 1301.57 -1933.28 1280.93 -2018 1301.99C-2102.61 1323.02 -2169.43 1381.78 -2201.21 1463.21L-2245.43 1576.52C-2316.03 1757.31 -2470.47 1893.14 -2658.5 1939.88C-2846.54 1986.61 -3046.6 1938.89 -3193.63 1812.19L-3285.75 1732.77C-3351.95 1675.69 -3438.51 1655.05 -3523.23 1676.11C-3607.95 1697.16 -3674.77 1755.93 -3706.55 1837.36L-3750.77 1950.67C-3821.37 2131.45 -3975.82 2267.29 -4163.9 2314.04C-4351.99 2360.79 -4552 2313.05 -4699.02 2186.36L-4791.15 2106.93C-4857.35 2049.85 -4943.91 2029.21 -5028.63 2050.27C-5113.35 2071.33 -5180.17 2130.09 -5211.95 2211.52L-5256.17 2324.83C-5326.77 2505.62 -5481.22 2641.45 -5669.3 2688.2C-5857.39 2734.95 -6057.4 2687.21 -6204.42 2560.52L-6296.55 2481.09C-6362.75 2424.02 -6449.31 2403.37 -6534.03 2424.43C-6618.64 2445.46 -6685.46 2504.22 -6717.24 2585.65L-6761.46 2698.97C-6832.06 2879.75 -6986.51 3015.58 -7174.54 3062.32C-7362.57 3109.05 -7562.64 3061.33 -7709.66 2934.64L-7801.79 2855.21C-7867.99 2798.14 -7954.55 2777.49 -8039.27 2798.55C-8123.99 2819.61 -8190.76 2878.36 -8222.59 2959.8L-8266.81 3073.11C-8337.41 3253.9 -8491.85 3389.73 -8679.88 3436.47C-8867.92 3483.2 -9067.98 3435.48 -9215.01 3308.79L-9307.13 3229.36C-9373.33 3172.28 -9459.89 3151.64 -9544.61 3172.7C-9629.33 3193.75 -9696.1 3252.51 -9727.93 3333.95L-9772.15 3447.26C-9842.75 3628.04 -9997.2 3763.88 -10185.2 3810.61C-10373.3 3857.35 -10573.3 3809.63 -10720.4 3682.93L-10812.5 3603.51C-10879.2 3546.55 -10965.7 3525.91 -11050.4 3546.97L-11131 3222.85C-10942.9 3176.1 -10742.9 3223.84 -10595.9 3350.53L-10503.8 3429.96C-10437.6 3487.03 -10351 3507.68 -10266.3 3486.62C-10181.6 3465.56 -10114.8 3406.81 -10083 3325.37L-10038.7 3212.06C-9968.08 3031.26 -9813.63 2895.43 -9625.6 2848.69C-9437.57 2801.96 -9237.5 2849.68 -9090.48 2976.37L-8998.35 3055.8C-8932.15 3112.87 -8845.59 3133.52 -8760.87 3112.46C-8676.15 3091.4 -8609.33 3032.64 -8577.55 2951.21L-8533.33 2837.9C-8462.63 2657.09 -8308.24 2521.26 -8120.15 2474.52C-7932.06 2427.77 -7732.05 2475.5 -7585.03 2602.2L-7492.9 2681.62C-7426.7 2738.7 -7340.14 2759.34 -7255.42 2738.29C-7170.7 2717.23 -7103.93 2658.48 -7072.1 2577.04L-7027.88 2463.72C-6957.21 2282.98 -6802.88 2147.17 -6614.86 2100.38C-6426.77 2053.63 -6226.7 2101.36 -6079.68 2228.05L-5987.5 2307.46C-5921.3 2364.54 -5834.74 2385.18 -5750.02 2364.12C-5665.3 2343.07 -5598.53 2284.32 -5566.7 2202.87L-5522.48 2089.56C-5451.88 1908.78 -5297.44 1772.94 -5109.4 1726.21C-4921.37 1679.47 -4721.3 1727.2 -4574.28 1853.89L-4482.16 1933.31C-4415.96 1990.39 -4329.4 2011.03 -4244.68 1989.98C-4159.96 1968.92 -4093.13 1910.15 -4061.36 1828.73L-4017.14 1715.41C-3946.54 1534.63 -3792.09 1398.8 -3604.06 1352.06C-3416.03 1305.33 -3215.96 1353.05 -3068.94 1479.74L-2976.81 1559.17C-2910.61 1616.24 -2824.05 1636.89 -2739.33 1615.83C-2654.61 1594.77 -2587.79 1536.01 -2556.01 1454.58L-2511.79 1341.26C-2441.18 1160.54 -2286.84 1024.73 -2098.82 977.94C-1910.74 931.191 -1710.67 978.913 -1563.65 1105.61L-1471.52 1185.03C-1405.32 1242.11 -1318.76 1262.75 -1234.04 1241.69C-1149.32 1220.64 -1082.55 1161.89 -1050.72 1080.44L-1006.44 967.116C-935.845 786.334 -781.401 650.5 -593.368 603.765C-405.335 557.03 -205.271 604.753 -58.249 731.446L33.8779 810.872C100.079 867.948 186.639 888.59 271.359 867.534C356.079 846.477 422.846 787.725 454.677 706.284L498.952 592.956C569.552 412.173 723.997 276.339 912.03 229.604C1100.06 182.869 1300.13 230.591 1447.15 357.285L1539.28 436.711C1605.48 493.787 1692.04 514.429 1776.76 493.373C1861.48 472.316 1928.25 413.564 1960.08 332.122L2004.35 218.795C2074.97 38.0662 2229.3 -97.7414 2417.32 -144.53C2605.41 -191.279 2805.47 -143.556 2952.5 -16.8625L3044.62 62.5625C3110.82 119.639 3197.38 140.282 3282.1 119.225C3366.82 98.1681 3433.64 39.4034 3465.42 -42.025L3509.64 -155.339C3580.24 -336.122 3734.69 -471.956 3922.72 -518.691C4110.75 -565.426 4310.82 -517.704 4457.84 -391.01L4550.02 -311.598C4616.22 -254.522 4702.78 -233.879 4787.5 -254.936C4872.22 -275.993 4939.04 -334.758 4970.82 -416.186L5015.04 -529.5C5085.64 -710.283 5240.09 -846.117 5428.12 -892.852C5616.15 -939.587 5816.22 -891.865 5963.24 -765.171L6055.42 -685.76C6121.62 -628.683 6208.18 -608.041 6292.9 -629.097C6377.62 -650.154 6444.39 -708.905 6476.22 -790.347L6520.49 -903.675C6591.05 -1084.39 6745.44 -1220.21 6933.46 -1267L7014.02 -942.886C6929.41 -921.856 6862.64 -863.104 6830.86 -781.676L6786.59 -668.348C6715.99 -487.566 6561.54 -351.731 6373.51 -304.996L6373.67 -305.036Z" fill="#CEC6C0"/>
</g>
<g clip-path="url(#clip1_1392_2763)">
<path opacity="0.25" d="M-2971.67 -305.036C-2783.58 -258.288 -2583.57 -306.024 -2436.55 -432.718L-2344.37 -512.129C-2278.17 -569.206 -2191.61 -589.849 -2106.89 -568.792C-2022.17 -547.735 -1955.4 -488.984 -1923.57 -407.542L-1879.35 -294.227C-1808.75 -113.445 -1654.31 22.3895 -1466.27 69.1244C-1278.24 115.859 -1078.18 68.1371 -931.15 -58.5566L-838.971 -137.969C-772.771 -195.045 -686.21 -215.688 -601.49 -194.631C-516.77 -173.574 -450.01 -114.823 -418.17 -33.3809L-373.95 79.9337C-303.35 260.716 -148.91 396.551 39.1201 443.286C227.16 490.02 427.22 442.298 574.25 315.605L666.43 236.193C732.63 179.116 819.19 158.474 903.91 179.53C988.52 200.56 1055.34 259.325 1087.12 340.754L1131.39 454.081C1201.99 634.864 1356.44 770.698 1544.47 817.433C1732.5 864.168 1932.57 816.446 2079.59 689.752L2171.72 610.327C2237.92 553.25 2324.48 532.608 2409.2 553.665C2493.92 574.721 2560.68 633.473 2592.51 714.914L2636.79 828.242C2707.39 1009.02 2861.84 1144.86 3049.87 1191.59C3237.9 1238.33 3437.97 1190.61 3584.99 1063.91L3677.12 984.488C3743.32 927.412 3829.88 906.769 3914.6 927.826C3999.32 948.882 4066.08 1007.63 4097.92 1089.08L4142.19 1202.4C4212.79 1383.19 4367.23 1519.02 4555.27 1565.76C4743.3 1612.49 4943.37 1564.77 5090.39 1438.07L5182.51 1358.65C5248.72 1301.57 5335.28 1280.93 5420 1301.99C5504.61 1323.02 5571.43 1381.78 5603.21 1463.21L5647.43 1576.52C5718.03 1757.31 5872.47 1893.14 6060.5 1939.88C6248.54 1986.61 6448.6 1938.89 6595.63 1812.19L6687.75 1732.77C6753.95 1675.69 6840.51 1655.05 6925.23 1676.11C7009.95 1697.16 7076.77 1755.93 7108.55 1837.36L7152.77 1950.67C7223.37 2131.45 7377.82 2267.29 7565.9 2314.04C7753.99 2360.79 7954 2313.05 8101.02 2186.36L8193.15 2106.93C8259.35 2049.85 8345.91 2029.21 8430.63 2050.27C8515.35 2071.33 8582.17 2130.09 8613.95 2211.52L8658.17 2324.83C8728.77 2505.62 8883.22 2641.45 9071.3 2688.2C9259.39 2734.95 9459.4 2687.21 9606.42 2560.52L9698.55 2481.09C9764.75 2424.02 9851.31 2403.37 9936.03 2424.43C10020.6 2445.46 10087.5 2504.22 10119.2 2585.65L10163.5 2698.97C10234.1 2879.75 10388.5 3015.58 10576.5 3062.32C10764.6 3109.05 10964.6 3061.33 11111.7 2934.64L11203.8 2855.21C11270 2798.14 11356.6 2777.49 11441.3 2798.55C11526 2819.61 11592.8 2878.36 11624.6 2959.8L11668.8 3073.11C11739.4 3253.9 11893.8 3389.73 12081.9 3436.47C12269.9 3483.2 12470 3435.48 12617 3308.79L12709.1 3229.36C12775.3 3172.28 12861.9 3151.64 12946.6 3172.7C13031.3 3193.75 13098.1 3252.51 13129.9 3333.95L13174.2 3447.26C13244.8 3628.04 13399.2 3763.88 13587.2 3810.61C13775.3 3857.35 13975.3 3809.63 14122.4 3682.93L14214.5 3603.51C14281.2 3546.55 14367.7 3525.91 14452.4 3546.97L14533 3222.85C14344.9 3176.1 14144.9 3223.84 13997.9 3350.53L13905.8 3429.96C13839.6 3487.03 13753 3507.68 13668.3 3486.62C13583.6 3465.56 13516.8 3406.81 13485 3325.37L13440.7 3212.06C13370.1 3031.26 13215.6 2895.43 13027.6 2848.69C12839.6 2801.96 12639.5 2849.68 12492.5 2976.37L12400.3 3055.8C12334.1 3112.87 12247.6 3133.52 12162.9 3112.46C12078.2 3091.4 12011.3 3032.64 11979.5 2951.21L11935.3 2837.9C11864.6 2657.09 11710.2 2521.26 11522.1 2474.52C11334.1 2427.77 11134 2475.5 10987 2602.2L10894.9 2681.62C10828.7 2738.7 10742.1 2759.34 10657.4 2738.29C10572.7 2717.23 10505.9 2658.48 10474.1 2577.04L10429.9 2463.72C10359.2 2282.98 10204.9 2147.17 10016.9 2100.38C9828.77 2053.63 9628.7 2101.36 9481.68 2228.05L9389.5 2307.46C9323.3 2364.54 9236.74 2385.18 9152.02 2364.12C9067.3 2343.07 9000.53 2284.32 8968.7 2202.87L8924.48 2089.56C8853.88 1908.78 8699.44 1772.94 8511.4 1726.21C8323.37 1679.47 8123.3 1727.2 7976.28 1853.89L7884.16 1933.31C7817.96 1990.39 7731.4 2011.03 7646.68 1989.98C7561.96 1968.92 7495.13 1910.15 7463.36 1828.73L7419.14 1715.41C7348.54 1534.63 7194.09 1398.8 7006.06 1352.06C6818.03 1305.33 6617.96 1353.05 6470.94 1479.74L6378.81 1559.17C6312.61 1616.24 6226.05 1636.89 6141.33 1615.83C6056.61 1594.77 5989.79 1536.01 5958.01 1454.58L5913.79 1341.26C5843.18 1160.54 5688.84 1024.73 5500.82 977.94C5312.74 931.191 5112.67 978.913 4965.65 1105.61L4873.52 1185.03C4807.32 1242.11 4720.76 1262.75 4636.04 1241.69C4551.32 1220.64 4484.55 1161.89 4452.72 1080.44L4408.44 967.116C4337.85 786.334 4183.4 650.5 3995.37 603.765C3807.34 557.03 3607.27 604.753 3460.25 731.446L3368.12 810.872C3301.92 867.948 3215.36 888.59 3130.64 867.534C3045.92 846.477 2979.15 787.725 2947.32 706.284L2903.05 592.956C2832.45 412.173 2678 276.339 2489.97 229.604C2301.94 182.869 2101.87 230.591 1954.85 357.285L1862.72 436.711C1796.52 493.787 1709.96 514.429 1625.24 493.373C1540.52 472.316 1473.75 413.564 1441.92 332.122L1397.65 218.795C1327.03 38.0662 1172.7 -97.7414 984.68 -144.53C796.59 -191.279 596.53 -143.556 449.5 -16.8625L357.38 62.5625C291.18 119.639 204.62 140.282 119.9 119.225C35.1804 98.1681 -31.6399 39.4034 -63.4199 -42.025L-107.64 -155.339C-178.24 -336.122 -332.69 -471.956 -520.72 -518.691C-708.75 -565.426 -908.82 -517.704 -1055.84 -391.01L-1148.02 -311.598C-1214.22 -254.522 -1300.78 -233.879 -1385.5 -254.936C-1470.22 -275.993 -1537.04 -334.758 -1568.82 -416.186L-1613.04 -529.5C-1683.64 -710.283 -1838.09 -846.117 -2026.12 -892.852C-2214.15 -939.587 -2414.22 -891.865 -2561.24 -765.171L-2653.42 -685.76C-2719.62 -628.683 -2806.18 -608.041 -2890.9 -629.097C-2975.62 -650.154 -3042.39 -708.905 -3074.22 -790.347L-3118.49 -903.675C-3189.05 -1084.39 -3343.44 -1220.21 -3531.46 -1267L-3612.02 -942.886C-3527.41 -921.856 -3460.64 -863.104 -3428.86 -781.676L-3384.59 -668.348C-3313.99 -487.566 -3159.54 -351.731 -2971.51 -304.996L-2971.67 -305.036Z" fill="#CEC6C0"/>
</g>
<defs>
<clipPath id="clip0_1392_2763">
<rect width="1701" height="1270" fill="white"/>
</clipPath>
<clipPath id="clip1_1392_2763">
<rect width="1290" height="1270" fill="white" transform="matrix(-1 0 0 1 2991 0)"/>
</clipPath>
</defs>
</svg>
