<svg width="3840" height="129" viewBox="0 0 3840 129" fill="none" xmlns="http://www.w3.org/2000/svg"><path d="M1920.23 2151.49V0.699951C1916.21 0.669951 1912.25 0.43 1908.36 0C1907.17 0.29 1905.71 0.410005 1903.96 0.380005C1871.26 -0.0099951 1841.09 9.31998 1812.67 24.85C1789.73 37.39 1767.4 51.1999 1743.71 62.1699C1704.28 80.4399 1663.95 91.5399 1619.56 77.0299C1587.44 66.5399 1558.79 50.2199 1529.71 34.0599C1496.73 15.7399 1462.68 -0.0800342 1423.67 0.339966C1394.36 0.649966 1367.1 9.67992 1341.44 22.9199C1308.62 39.8599 1277.58 60.56 1242.84 73.35C1213.85 84.01 1183.77 88.25 1152.45 79.33C1116.64 69.12 1085.3 50.51 1053.23 32.87C1020.94 15.11 987.566 -0.550029 949.439 0.469971C928.865 1.01997 908.715 4.72993 889.403 13.0499C863.989 24.0099 840.423 38.14 816.201 51.25C787.674 66.69 757.944 79.6999 724.89 83.6499C712.4 85.1399 700.273 84.18 688.582 81.6C656.851 74.61 628.001 60.7999 599.918 44.4299C574.877 29.8199 549.321 15.1499 521.117 7.17993C497.329 0.459932 473.097 -1.81001 447.985 3.35999C419.064 9.29999 393.71 22.49 368.386 36.22C345.043 48.88 322.367 63.2199 297.366 72.1899C266.667 83.1999 235.502 88.4799 202.296 78.5499C174.294 70.1799 149.173 57.19 123.93 43.35C99.6671 30.05 75.5054 15.75 48.8982 7.76001C25.2822 0.67001 0.574848 -3.21006 -24.1729 3.43994C-28.6597 4.64994 -32.9645 4.62999 -37.3906 4.85999V2171.64C-33.3687 2171.67 -29.4075 2171.91 -25.5169 2172.34C-24.3245 2172.05 -22.8694 2171.93 -21.1212 2171.96C11.5795 2172.35 41.7538 2163.02 70.1698 2147.49C93.1087 2134.95 115.441 2121.14 139.128 2110.17C178.559 2091.9 218.889 2080.8 263.281 2095.31C295.396 2105.8 324.054 2122.12 353.127 2138.28C386.111 2156.6 420.166 2172.42 459.172 2172C488.477 2171.69 515.741 2162.66 541.398 2149.42C574.22 2132.48 605.264 2111.78 640.006 2098.99C668.987 2088.33 699.071 2084.09 730.387 2093.01C766.2 2103.22 797.536 2121.83 829.611 2139.47C861.897 2157.23 895.275 2172.89 933.402 2171.87C953.976 2171.32 974.126 2167.61 993.437 2159.29C1018.85 2148.33 1042.42 2134.2 1066.64 2121.09C1095.17 2105.65 1124.9 2092.64 1157.95 2088.69C1170.44 2087.2 1182.57 2088.16 1194.26 2090.74C1225.99 2097.73 1254.84 2111.54 1282.92 2127.91C1307.96 2142.52 1333.52 2157.19 1361.72 2165.16C1385.51 2171.88 1409.74 2174.15 1434.86 2168.98C1463.78 2163.04 1489.13 2149.85 1514.45 2136.12C1537.8 2123.46 1560.47 2109.12 1585.47 2100.15C1616.17 2089.14 1647.34 2083.86 1680.54 2093.79C1708.55 2102.16 1733.67 2115.15 1758.91 2128.99C1783.17 2142.29 1807.34 2156.59 1833.94 2164.58C1857.56 2171.67 1882.27 2175.55 1907.01 2168.9C1911.5 2167.69 1915.81 2167.71 1920.23 2167.48V2151.48V2151.49Z" fill="#2B2829"/><path d="M3840.23 2151.49V0.699951C3836.21 0.669951 3832.25 0.43 3828.36 0C3827.17 0.29 3825.71 0.410005 3823.96 0.380005C3791.26 -0.0099951 3761.09 9.31998 3732.67 24.85C3709.73 37.39 3687.4 51.1999 3663.71 62.1699C3624.28 80.4399 3583.95 91.5399 3539.56 77.0299C3507.44 66.5399 3478.79 50.2199 3449.71 34.0599C3416.73 15.7399 3382.68 -0.0800342 3343.67 0.339966C3314.36 0.649966 3287.1 9.67992 3261.44 22.9199C3228.62 39.8599 3197.58 60.56 3162.84 73.35C3133.85 84.01 3103.77 88.25 3072.45 79.33C3036.64 69.12 3005.3 50.51 2973.23 32.87C2940.94 15.11 2907.57 -0.550029 2869.44 0.469971C2848.86 1.01997 2828.71 4.72993 2809.4 13.0499C2783.99 24.0099 2760.42 38.14 2736.2 51.25C2707.67 66.69 2677.94 79.6999 2644.89 83.6499C2632.4 85.1399 2620.27 84.18 2608.58 81.6C2576.85 74.61 2548 60.7999 2519.92 44.4299C2494.88 29.8199 2469.32 15.1499 2441.12 7.17993C2417.33 0.459932 2393.1 -1.81001 2367.99 3.35999C2339.06 9.29999 2313.71 22.49 2288.39 36.22C2265.04 48.88 2242.37 63.2199 2217.37 72.1899C2186.67 83.1999 2155.5 88.4799 2122.3 78.5499C2094.29 70.1799 2069.17 57.19 2043.93 43.35C2019.67 30.05 1995.51 15.75 1968.9 7.76001C1945.28 0.67001 1920.57 -3.21006 1895.83 3.43994C1891.34 4.64994 1887.04 4.62999 1882.61 4.85999V2171.64C1886.63 2171.67 1890.59 2171.91 1894.48 2172.34C1895.68 2172.05 1897.13 2171.93 1898.88 2171.96C1931.58 2172.35 1961.75 2163.02 1990.17 2147.49C2013.11 2134.95 2035.44 2121.14 2059.13 2110.17C2098.56 2091.9 2138.89 2080.8 2183.28 2095.31C2215.4 2105.8 2244.05 2122.12 2273.13 2138.28C2306.11 2156.6 2340.17 2172.42 2379.17 2172C2408.48 2171.69 2435.74 2162.66 2461.4 2149.42C2494.22 2132.48 2525.26 2111.78 2560.01 2098.99C2588.99 2088.33 2619.07 2084.09 2650.39 2093.01C2686.2 2103.22 2717.54 2121.83 2749.61 2139.47C2781.9 2157.23 2815.27 2172.89 2853.4 2171.87C2873.98 2171.32 2894.13 2167.61 2913.44 2159.29C2938.85 2148.33 2962.42 2134.2 2986.64 2121.09C3015.17 2105.65 3044.9 2092.64 3077.95 2088.69C3090.44 2087.2 3102.57 2088.16 3114.26 2090.74C3145.99 2097.73 3174.84 2111.54 3202.92 2127.91C3227.96 2142.52 3253.52 2157.19 3281.72 2165.16C3305.51 2171.88 3329.74 2174.15 3354.86 2168.98C3383.78 2163.04 3409.13 2149.85 3434.45 2136.12C3457.8 2123.46 3480.47 2109.12 3505.47 2100.15C3536.17 2089.14 3567.34 2083.86 3600.54 2093.79C3628.55 2102.16 3653.67 2115.15 3678.91 2128.99C3703.17 2142.29 3727.34 2156.59 3753.94 2164.58C3777.56 2171.67 3802.27 2175.55 3827.01 2168.9C3831.5 2167.69 3835.81 2167.71 3840.23 2167.48V2151.48V2151.49Z" fill="#2B2829"/></svg>