<svg width="1920" height="21" viewBox="0 0 1920 21" fill="none" xmlns="http://www.w3.org/2000/svg">
<path d="M-199.055 8.82324C-192.595 -0.906757 -179.075 -0.906757 -172.615 8.82324L-169.985 12.7935C-163.525 22.5235 -150.005 22.5235 -143.545 12.7935L-140.915 8.82324C-134.455 -0.906757 -120.935 -0.906757 -114.475 8.82324L-111.845 12.7935C-105.385 22.5235 -91.8647 22.5235 -85.4047 12.7935L-82.7747 8.82324C-79.5447 3.96324 -74.5547 1.53344 -69.5547 1.52344C-64.5547 1.52344 -59.5647 3.95324 -56.3347 8.82324L-53.7047 12.7935C-47.2447 22.5235 -33.7247 22.5235 -27.2647 12.7935L-24.6347 8.82324C-18.1747 -0.906757 -4.65469 -0.906757 1.80531 8.82324L4.4353 12.7935C10.8953 22.5235 24.4153 22.5235 30.8753 12.7935L33.5053 8.82324C39.9653 -0.906757 53.4853 -0.906757 59.9453 8.82324L62.5753 12.7935C69.0353 22.5235 82.5553 22.5235 89.0153 12.7935L91.6453 8.82324C94.8753 3.96324 99.8653 1.53344 104.865 1.52344C109.865 1.52344 114.855 3.95324 118.085 8.82324L120.715 12.7935C127.175 22.5235 140.695 22.5235 147.155 12.7935L149.975 8.82324C156.435 -0.906757 169.955 -0.906757 176.415 8.82324L179.045 12.7935C185.505 22.5235 199.025 22.5235 205.485 12.7935L208.115 8.82324C214.575 -0.906757 228.095 -0.906757 234.555 8.82324L237.185 12.7935C243.645 22.5235 257.165 22.5235 263.625 12.7935L266.255 8.82324C269.485 3.96324 274.475 1.53344 279.475 1.52344C284.475 1.52344 289.465 3.95324 292.695 8.82324L295.325 12.7935C301.785 22.5235 315.305 22.5235 321.765 12.7935L324.395 8.82324C330.855 -0.906757 344.375 -0.906757 350.835 8.82324L353.465 12.7935C359.925 22.5235 373.445 22.5235 379.905 12.7935L382.535 8.82324C388.995 -0.906757 402.515 -0.906757 408.975 8.82324L411.605 12.7935C418.065 22.5235 431.585 22.5235 438.045 12.7935L440.675 8.82324C443.905 3.96324 448.895 1.53344 453.895 1.52344C458.885 1.52344 463.885 3.95324 467.115 8.82324L469.745 12.7935C476.205 22.5235 489.725 22.5235 496.185 12.7935L498.785 8.82324C505.245 -0.906757 518.765 -0.906757 525.225 8.82324L527.855 12.7935C534.315 22.5235 547.835 22.5235 554.295 12.7935L556.925 8.82324C563.385 -0.906757 576.905 -0.906757 583.365 8.82324L585.995 12.7935C592.455 22.5235 605.975 22.5235 612.435 12.7935L615.065 8.82324C618.295 3.96324 623.285 1.53344 628.285 1.52344C633.285 1.52344 638.275 3.95324 641.505 8.82324L644.135 12.7935C650.595 22.5235 664.115 22.5235 670.575 12.7935L673.205 8.82324C679.665 -0.906757 693.185 -0.906757 699.645 8.82324L702.275 12.7935C708.735 22.5235 722.255 22.5235 728.715 12.7935L731.345 8.82324C737.805 -0.906757 751.325 -0.906757 757.785 8.82324L760.415 12.7935C766.875 22.5235 780.395 22.5235 786.855 12.7935L789.485 8.82324C792.715 3.96324 797.705 1.53344 802.705 1.52344C807.705 1.52344 812.695 3.95324 815.925 8.82324L818.555 12.7935C825.015 22.5235 838.535 22.5235 844.995 12.7935L847.815 8.82324C854.275 -0.906757 867.795 -0.906757 874.255 8.82324L876.885 12.7935C883.345 22.5235 896.865 22.5235 903.325 12.7935L905.955 8.82324C912.415 -0.906757 925.935 -0.906757 932.395 8.82324L935.025 12.7935C941.485 22.5235 955.005 22.5235 961.465 12.7935L964.095 8.82324C967.325 3.96324 972.315 1.53344 977.315 1.52344C982.315 1.52344 987.305 3.95324 990.535 8.82324L993.165 12.7935C999.625 22.5235 1013.15 22.5235 1019.61 12.7935L1022.24 8.82324C1028.7 -0.906757 1042.22 -0.906757 1048.68 8.82324L1051.31 12.7935C1057.77 22.5235 1071.29 22.5235 1077.75 12.7935L1080.38 8.82324C1086.84 -0.906757 1100.36 -0.906757 1106.82 8.82324L1109.45 12.7935C1115.91 22.5235 1129.43 22.5235 1135.89 12.7935L1138.52 8.82324C1141.75 3.96324 1146.74 1.53344 1151.74 1.52344C1156.74 1.52344 1161.73 3.95324 1164.96 8.82324L1167.59 12.7935C1174.05 22.5235 1187.57 22.5235 1194.03 12.7935L1196.44 8.82324C1202.9 -0.906757 1216.42 -0.906757 1222.88 8.82324L1225.51 12.7935C1231.97 22.5235 1245.49 22.5235 1251.95 12.7935L1254.58 8.82324C1261.04 -0.906757 1274.56 -0.906757 1281.02 8.82324L1283.65 12.7935C1290.11 22.5235 1303.63 22.5235 1310.09 12.7935L1312.72 8.82324C1315.95 3.96324 1320.94 1.53344 1325.94 1.52344C1330.94 1.52344 1335.93 3.95324 1339.17 8.82324L1341.8 12.7935C1348.26 22.5235 1361.78 22.5235 1368.24 12.7935L1370.87 8.82324C1377.33 -0.906757 1390.85 -0.906757 1397.31 8.82324L1399.94 12.7935C1406.4 22.5235 1419.92 22.5235 1426.38 12.7935L1429.01 8.82324C1435.47 -0.906757 1448.99 -0.906757 1455.45 8.82324L1458.08 12.7935C1464.54 22.5235 1478.06 22.5235 1484.52 12.7935L1487.15 8.82324C1490.38 3.96324 1495.38 1.53344 1500.37 1.52344C1505.36 1.52344 1510.36 3.95324 1513.59 8.82324L1516.22 12.7935C1522.68 22.5235 1536.2 22.5235 1542.66 12.7935L1545.48 8.82324C1551.94 -0.906757 1565.46 -0.906757 1571.92 8.82324L1574.55 12.7935C1581.01 22.5235 1594.53 22.5235 1600.99 12.7935L1603.62 8.82324C1610.08 -0.906757 1623.6 -0.906757 1630.06 8.82324L1632.69 12.7935C1639.16 22.5235 1652.67 22.5235 1659.13 12.7935L1661.76 8.82324C1664.99 3.96324 1669.99 1.53344 1674.98 1.52344C1679.97 1.52344 1684.98 3.95324 1688.2 8.82324L1690.83 12.7935C1697.3 22.5235 1710.81 22.5235 1717.27 12.7935L1719.9 8.82324C1726.37 -0.906757 1739.89 -0.906757 1746.35 8.82324L1748.98 12.7935C1755.44 22.5235 1768.96 22.5235 1775.42 12.7935L1778.05 8.82324C1784.51 -0.906757 1798.03 -0.906757 1804.49 8.82324L1807.12 12.7935C1813.58 22.5235 1827.1 22.5235 1833.56 12.7935L1836.19 8.82324C1839.42 3.96324 1844.41 1.53344 1849.41 1.52344C1854.4 1.52344 1859.4 3.95324 1862.63 8.82324L1865.26 12.7935C1871.72 22.5235 1885.24 22.5235 1891.7 12.7935L1894.3 8.82324C1900.77 -0.906757 1914.28 -0.906757 1920.74 8.82324L1923.38 12.7935C1929.84 22.5235 1943.36 22.5235 1949.82 12.7935L1952.45 8.82324C1958.91 -0.906757 1972.43 -0.906757 1978.89 8.82324L1981.52 12.7935C1987.98 22.5235 2001.5 22.5235 2007.96 12.7935L2010.59 8.82324C2013.82 3.96324 2018.81 1.53344 2023.81 1.52344C2028.8 1.52344 2033.8 3.95324 2037.03 8.82324L2039.66 12.7935C2046.12 22.5235 2059.64 22.5235 2066.1 12.7935L2068.73 8.82324C2075.19 -0.906757 2088.71 -0.906757 2095.17 8.82324L2097.8 12.7935C2104.26 22.5235 2117.78 22.5235 2124.24 12.7935L2126.87 8.82324C2133.33 -0.906757 2146.85 -0.906757 2153.31 8.82324L2155.94 12.7935C2162.4 22.5235 2175.92 22.5235 2182.38 12.7935L2185.01 8.82324C2188.24 3.96324 2193.24 1.53344 2198.23 1.52344C2203.22 1.52344 2208.22 3.95324 2211.45 8.82324L2214.08 12.7935C2220.54 22.5235 2234.06 22.5235 2240.52 12.7935L2243.34 8.82324C2249.8 -0.906757 2263.32 -0.906757 2269.78 8.82324L2272.41 12.7935C2278.88 22.5235 2292.39 22.5235 2298.85 12.7935L2301.48 8.82324C2307.95 -0.906757 2321.47 -0.906757 2327.93 8.82324L2330.56 12.7935C2337.02 22.5235 2350.54 22.5235 2357 12.7935L2359.63 8.82324C2362.86 3.96324 2367.85 1.53344 2372.84 1.52344C2377.83 1.52344 2382.84 3.95324 2386.07 8.82324L2388.7 12.7935C2395.16 22.5235 2408.68 22.5235 2415.14 12.7935L2417.77 8.82324C2424.23 -0.906757 2437.75 -0.906757 2444.21 8.82324L2446.84 12.7935C2453.3 22.5235 2466.82 22.5235 2473.28 12.7935L2475.91 8.82324C2482.37 -0.906757 2495.89 -0.906757 2502.35 8.82324L2504.98 12.7935C2511.44 22.5235 2524.96 22.5235 2531.42 12.7935L2534.05 8.82324C2537.28 3.96324 2542.28 1.53344 2547.27 1.52344C2552.26 1.52344 2557.26 3.95324 2560.49 8.82324L2563.12 12.7935C2569.58 22.5235 2583.1 22.5235 2589.56 12.7935" stroke="#2B2829" stroke-width="1.77" stroke-miterlimit="10"/>
</svg>
