<svg width="249" height="31" viewBox="0 0 249 31" fill="none" xmlns="http://www.w3.org/2000/svg">
<g clip-path="url(#clip0_1423_2351)">
<path d="M135.085 25.9409C134.225 27.4409 132.985 28.6309 131.365 29.5309C129.755 30.4209 127.975 30.8709 126.045 30.8709C124.575 30.8709 123.225 30.6009 121.985 30.0509C120.745 29.5009 119.665 28.7509 118.745 27.8009C117.825 26.8509 117.105 25.7309 116.585 24.4509C116.065 23.1709 115.805 21.7809 115.805 20.2809C115.805 18.7809 116.065 17.3909 116.585 16.1109C117.105 14.8309 117.825 13.7109 118.745 12.7609C119.665 11.8109 120.745 11.0709 121.985 10.5409C123.225 10.0109 124.575 9.74094 126.045 9.74094C127.945 9.74094 129.695 10.1809 131.295 11.0609C132.895 11.9409 134.145 13.1109 135.035 14.5809V0.710938H137.025V30.4409H135.075V25.9509L135.085 25.9409ZM129.815 28.4409C130.915 27.9809 131.855 27.3509 132.645 26.5609C133.435 25.7709 134.065 24.8309 134.525 23.7509C134.985 22.6709 135.215 21.5109 135.215 20.2709C135.215 19.0309 134.985 17.8809 134.525 16.8109C134.065 15.7409 133.435 14.8209 132.645 14.0209C131.855 13.2309 130.905 12.6109 129.815 12.1609C128.715 11.7109 127.525 11.4909 126.225 11.4909C125.015 11.4909 123.885 11.7109 122.855 12.1609C121.815 12.6109 120.915 13.2209 120.155 14.0009C119.395 14.7809 118.795 15.7009 118.385 16.7609C117.965 17.8309 117.755 18.9909 117.755 20.2609C117.755 21.5309 117.965 22.7009 118.385 23.7809C118.805 24.8609 119.395 25.8009 120.155 26.5909C120.915 27.3809 121.825 28.0009 122.855 28.4509C123.895 28.9009 125.015 29.1209 126.225 29.1209C127.525 29.1209 128.715 28.8909 129.815 28.4309V28.4409Z" fill="#2B2829"/>
<path d="M141.869 19.01H158.779C158.779 17.91 158.579 16.92 158.169 16.01C157.769 15.1 157.199 14.32 156.479 13.66C155.759 13 154.919 12.48 153.969 12.11C153.019 11.74 151.979 11.55 150.859 11.55C149.619 11.55 148.479 11.77 147.439 12.2C146.399 12.63 145.519 13.23 144.779 13.99C144.039 14.75 143.469 15.66 143.049 16.71C142.629 17.76 142.419 18.91 142.419 20.14C142.419 21.37 142.619 22.55 142.999 23.64C143.389 24.74 143.949 25.68 144.689 26.47C145.429 27.26 146.299 27.89 147.329 28.35C148.349 28.81 149.509 29.04 150.809 29.04C152.539 29.04 154.069 28.61 155.409 27.77C156.749 26.92 157.769 25.69 158.459 24.08H160.449C159.759 26.13 158.539 27.77 156.799 29.01C155.059 30.25 153.059 30.87 150.809 30.87C149.249 30.87 147.839 30.6 146.569 30.07C145.299 29.54 144.209 28.8 143.309 27.87C142.399 26.93 141.699 25.82 141.209 24.52C140.719 23.22 140.469 21.83 140.469 20.33C140.469 18.83 140.739 17.4 141.269 16.12C141.799 14.84 142.529 13.72 143.449 12.77C144.369 11.82 145.459 11.08 146.709 10.55C147.959 10.02 149.329 9.75 150.799 9.75C152.269 9.75 153.699 10 154.929 10.51C156.149 11.01 157.189 11.7 158.039 12.56C158.889 13.42 159.549 14.43 160.009 15.56C160.469 16.7 160.699 17.9 160.699 19.17V19.93C160.699 20.2 160.669 20.46 160.609 20.69H141.799L141.839 19.05L141.869 19.01Z" fill="#2B2829"/>
<path d="M164.156 30.4131V10.1431H166.106V14.7631C166.686 13.1231 167.646 11.8731 169.006 11.0031C170.356 10.1431 171.856 9.70312 173.506 9.70312C173.796 9.70312 174.076 9.72313 174.346 9.74313C174.616 9.77313 174.896 9.81313 175.186 9.87313V11.6831C174.926 11.6231 174.676 11.5831 174.426 11.5531C174.186 11.5231 173.946 11.5131 173.716 11.5131C172.506 11.5131 171.426 11.7431 170.476 12.2031C169.526 12.6631 168.726 13.3031 168.076 14.1031C167.426 14.9131 166.936 15.8631 166.606 16.9531C166.276 18.0531 166.106 19.2331 166.106 20.4931V30.3931H164.156V30.4131Z" fill="#2B2829"/>
<path d="M178.651 30.4209V10.1509H180.601L180.641 14.1209C181.101 13.3109 181.631 12.6309 182.221 12.0709C182.811 11.5109 183.441 11.0609 184.121 10.7109C184.801 10.3609 185.491 10.1109 186.201 9.95094C186.911 9.79094 187.611 9.71094 188.301 9.71094C190.261 9.71094 191.921 10.1409 193.271 11.0109C194.621 11.8709 195.581 13.1709 196.121 14.9009C196.521 13.9809 197.031 13.1909 197.631 12.5509C198.231 11.9109 198.891 11.3709 199.601 10.9509C200.311 10.5309 201.061 10.2209 201.871 10.0209C202.681 9.82094 203.471 9.72094 204.251 9.72094C205.491 9.72094 206.611 9.89094 207.621 10.2409C208.631 10.5909 209.501 11.1009 210.241 11.7909C210.981 12.4809 211.541 13.3409 211.951 14.3809C212.351 15.4209 212.561 16.6309 212.561 18.0109V30.4109H210.571V18.7909C210.571 16.3109 210.011 14.4809 208.881 13.3009C207.751 12.1209 206.081 11.5309 203.861 11.5309C202.911 11.5309 201.991 11.7209 201.111 12.1109C200.231 12.5009 199.451 13.0309 198.771 13.7109C198.091 14.3909 197.561 15.1809 197.171 16.0909C196.781 17.0009 196.591 17.9909 196.591 19.0509V30.4209H194.601V18.8009C194.601 16.3209 194.041 14.4909 192.911 13.3109C191.791 12.1309 190.121 11.5409 187.901 11.5409C186.951 11.5409 186.031 11.7309 185.151 12.1209C184.271 12.5109 183.491 13.0309 182.811 13.7009C182.131 14.3709 181.601 15.1509 181.211 16.0809C180.821 17.0009 180.631 17.9809 180.631 19.0209V30.4309H178.641L178.651 30.4209Z" fill="#2B2829"/>
<path d="M231.245 19.1109V20.7109H221.905C220.435 20.7109 219.235 21.0809 218.315 21.8309C217.395 22.5809 216.935 23.5909 216.935 24.8509C216.935 25.5109 217.075 26.1109 217.345 26.6409C217.615 27.1709 217.995 27.6209 218.495 27.9809C218.985 28.3409 219.595 28.6209 220.315 28.8209C221.035 29.0209 221.825 29.1209 222.695 29.1209C223.905 29.1209 225.005 28.9509 225.985 28.6009C226.965 28.2509 227.805 27.7709 228.495 27.1509C229.185 26.5309 229.715 25.7809 230.095 24.9009C230.465 24.0209 230.655 23.0509 230.655 21.9809L230.615 16.7909C230.615 15.8709 230.445 15.0709 230.095 14.3909C229.755 13.7109 229.285 13.1609 228.695 12.7309C228.105 12.3009 227.415 11.9709 226.615 11.7609C225.825 11.5409 224.995 11.4409 224.125 11.4409C223.435 11.4409 222.745 11.5209 222.075 11.6809C221.395 11.8409 220.775 12.0909 220.215 12.4409C219.655 12.7909 219.175 13.2209 218.785 13.7409C218.395 14.2609 218.115 14.8909 217.945 15.6409H215.995C216.165 14.6009 216.505 13.7109 217.015 12.9609C217.515 12.2109 218.145 11.6009 218.875 11.1209C219.615 10.6509 220.435 10.2909 221.335 10.0609C222.245 9.83094 223.185 9.71094 224.165 9.71094C225.345 9.71094 226.445 9.85094 227.455 10.1409C228.465 10.4309 229.335 10.8609 230.075 11.4409C230.815 12.0209 231.395 12.7609 231.825 13.6609C232.255 14.5709 232.475 15.6409 232.475 16.8809V26.5609C232.475 27.3709 232.685 27.9609 233.105 28.3509C233.525 28.7409 234.075 28.9309 234.765 28.9309H235.025C235.115 28.9309 235.195 28.9209 235.285 28.8909V30.6209C235.225 30.6209 235.135 30.6209 235.005 30.6409C234.875 30.6509 234.755 30.6609 234.635 30.6609C233.425 30.6609 232.435 30.3409 231.675 29.6909C230.915 29.0409 230.585 27.9809 230.705 26.5109C230.305 27.2909 229.815 27.9509 229.235 28.5009C228.655 29.0509 228.025 29.4909 227.335 29.8409C226.645 30.1909 225.895 30.4409 225.085 30.6009C224.275 30.7609 223.455 30.8409 222.625 30.8409C221.445 30.8409 220.385 30.6909 219.445 30.4109C218.505 30.1209 217.715 29.7209 217.065 29.2009C216.415 28.6809 215.915 28.0609 215.575 27.3209C215.225 26.5909 215.055 25.7709 215.055 24.8809C215.055 23.9909 215.215 23.2209 215.525 22.5009C215.845 21.7809 216.295 21.1709 216.885 20.6609C217.475 20.1609 218.185 19.7709 219.025 19.4909C219.865 19.2209 220.795 19.0809 221.835 19.0809H231.265L231.245 19.1109Z" fill="#2B2829"/>
<path d="M238.742 0.703125H240.692V30.4331H238.742V0.703125Z" fill="#2B2829"/>
<path d="M3.38845 23.4631C3.81845 23.4631 4.18845 23.7631 4.29845 24.1731C4.38845 24.4931 4.51845 24.7931 4.68845 25.0531C4.97845 25.5131 5.33845 25.8931 5.76845 26.1931C6.19845 26.4931 6.67845 26.7231 7.21845 26.8831C7.74845 27.0431 8.30845 27.1231 8.88845 27.1231C9.37845 27.1231 9.85845 27.0631 10.3385 26.9531C10.8184 26.8431 11.2285 26.6731 11.5885 26.4531C11.9485 26.2331 12.2384 25.9731 12.4584 25.6531C12.6784 25.3331 12.7884 24.9631 12.7884 24.5331C12.7884 24.0731 12.6684 23.6831 12.4184 23.3631C12.1784 23.0431 11.8184 22.7831 11.3584 22.5631C10.8984 22.3431 10.3484 22.1631 9.71845 22.0231C9.08845 21.8831 8.38845 21.7531 7.63845 21.6331C6.85845 21.4931 6.05845 21.3131 5.21845 21.1131C4.37845 20.9131 3.63845 20.6131 2.96845 20.2031C2.30845 19.8031 1.75845 19.2631 1.32845 18.6031C0.898447 17.9431 0.678447 17.0731 0.678447 16.0131C0.678447 14.9531 0.908449 13.9731 1.36845 13.1831C1.82845 12.3931 2.43845 11.7331 3.18845 11.2131C3.93845 10.6931 4.79845 10.3131 5.75845 10.0731C6.72845 9.83312 7.69845 9.70312 8.67845 9.70312C9.71845 9.70312 10.7085 9.85313 11.6585 10.1331C12.6084 10.4231 13.4484 10.8431 14.1884 11.4031C14.9284 11.9631 15.5284 12.6731 16.0084 13.5231C16.3284 14.0831 16.5385 14.7231 16.6585 15.4131C16.7585 15.9931 16.3085 16.5231 15.7284 16.5231H13.5484C13.1484 16.5231 12.7785 16.2731 12.6585 15.8831C12.5785 15.6131 12.4584 15.3631 12.3084 15.1331C12.0484 14.7331 11.7184 14.4031 11.3084 14.1431C10.9084 13.8831 10.4584 13.6831 9.96845 13.5431C9.47845 13.4031 8.96845 13.3231 8.45845 13.3231C8.02845 13.3231 7.58845 13.3731 7.13845 13.4731C6.68845 13.5731 6.29845 13.7231 5.94845 13.9231C5.59845 14.1231 5.31845 14.3731 5.10845 14.6531C4.88845 14.9431 4.77845 15.2731 4.77845 15.6431C4.77845 15.9331 4.84845 16.1931 4.99845 16.4231C5.13845 16.6531 5.37845 16.8731 5.70845 17.0731C6.03845 17.2731 6.46845 17.4531 6.98845 17.6131C7.50845 17.7731 8.12845 17.9231 8.84845 18.0631C9.76845 18.2331 10.7184 18.4231 11.6984 18.6231C12.6784 18.8231 13.5684 19.1231 14.3784 19.5331C15.1884 19.9331 15.8484 20.4831 16.3685 21.1731C16.8885 21.8631 17.1484 22.8031 17.1484 23.9831C17.1484 25.1631 16.8985 26.0931 16.3885 26.9431C15.8885 27.7931 15.2284 28.5031 14.4184 29.0831C13.6084 29.6631 12.6884 30.0931 11.6484 30.3831C10.6084 30.6731 9.55845 30.8131 8.48845 30.8131C7.41845 30.8131 6.34845 30.6531 5.35845 30.3431C4.35845 30.0231 3.48845 29.5631 2.71845 28.9431C1.95845 28.3231 1.34845 27.5531 0.898448 26.6331C0.578448 25.9831 0.378448 25.2631 0.288448 24.4731C0.218448 23.9231 0.668449 23.4331 1.22845 23.4331H3.38845V23.4631Z" fill="#2B2829"/>
<path d="M52.3497 10.1614H55.3997V4.99135C55.3997 4.68135 55.6197 4.41135 55.9297 4.34135L58.6597 3.76135C59.0697 3.67135 59.4597 3.99135 59.4597 4.41135V10.1614H65.4497C65.8197 10.1614 66.1197 10.4614 66.1197 10.8314V13.0414C66.1197 13.4114 65.8197 13.7113 65.4497 13.7113H59.4997V22.9114C59.4997 24.3813 59.9097 25.3713 60.7397 25.8913C61.5597 26.4114 62.6197 26.6713 63.9197 26.6713C64.1497 26.6713 64.3997 26.6614 64.6797 26.6314C65.0797 26.5914 65.4297 26.9014 65.4297 27.3013V29.6314C65.4297 29.9514 65.1997 30.2313 64.8897 30.2813C64.6997 30.3113 64.4997 30.3414 64.2897 30.3614C63.8697 30.4014 63.4597 30.4213 63.0597 30.4213C61.9097 30.4213 60.8497 30.2814 59.8997 29.9914C58.9497 29.7014 58.1397 29.2614 57.4797 28.6514C56.8197 28.0514 56.2997 27.2714 55.9197 26.3414C55.5497 25.4014 55.3597 24.2914 55.3597 22.9914V13.7014H52.3497C51.9797 13.7014 51.6797 13.4013 51.6797 13.0313V10.8214C51.6797 10.4514 51.9797 10.1514 52.3497 10.1514V10.1614Z" fill="#2B2829"/>
<path d="M68.7294 0.691406H71.1594C71.6494 0.691406 72.0394 1.08141 72.0394 1.57141V12.7114C72.2094 12.4514 72.4694 12.1514 72.7994 11.8014C73.1294 11.4514 73.5494 11.1314 74.0494 10.8314C74.5494 10.5314 75.1594 10.2714 75.8694 10.0514C76.5794 9.83141 77.3794 9.73141 78.2694 9.73141C79.6494 9.73141 80.8594 9.94141 81.8994 10.3614C82.9394 10.7814 83.8194 11.3514 84.5394 12.0914C85.2594 12.8214 85.7994 13.7114 86.1594 14.7514C86.5194 15.7914 86.6994 16.9114 86.6994 18.1214V29.5614C86.6994 30.0514 86.3094 30.4414 85.8194 30.4414H83.3894C82.8994 30.4414 82.5094 30.0514 82.5094 29.5614V19.0314C82.5094 17.3314 82.0794 16.0214 81.2294 15.1014C80.3794 14.1814 79.1794 13.7214 77.6194 13.7214C76.8394 13.7214 76.1094 13.8414 75.4394 14.0714C74.7594 14.3014 74.1694 14.6514 73.6694 15.1114C73.1694 15.5714 72.7694 16.1314 72.4794 16.7914C72.1894 17.4514 72.0494 18.2014 72.0494 19.0414V29.5714C72.0494 30.0614 71.6594 30.4514 71.1694 30.4514H68.7394C68.2494 30.4514 67.8594 30.0614 67.8594 29.5714V1.60141C67.8594 1.11141 68.2494 0.721409 68.7394 0.721409L68.7294 0.691406Z" fill="#2B2829"/>
<path d="M92.1863 18.3722H104.726C104.636 17.5922 104.416 16.8922 104.056 16.2822C103.696 15.6622 103.236 15.1422 102.676 14.7322C102.116 14.3122 101.486 14.0022 100.796 13.7822C100.106 13.5622 99.4164 13.4622 98.7164 13.4622C97.7064 13.4622 96.8164 13.6322 96.0564 13.9822C95.2964 14.3322 94.6562 14.8122 94.1562 15.4322C93.6562 16.0522 93.2664 16.7722 93.0064 17.5922C92.7464 18.4122 92.6164 19.3022 92.6164 20.2522C92.6164 21.2022 92.7564 22.1322 93.0264 22.9522C93.2964 23.7722 93.7064 24.4822 94.2564 25.0722C94.8064 25.6622 95.4664 26.1222 96.2464 26.4522C97.0264 26.7822 97.9364 26.9522 98.9664 26.9522C100.146 26.9522 101.176 26.7122 102.036 26.2422C102.796 25.8222 103.436 25.2222 103.946 24.4422C104.086 24.2322 104.326 24.1022 104.576 24.1022H107.526C108.076 24.1022 108.456 24.6722 108.226 25.1822C107.496 26.7822 106.396 28.0822 104.926 29.0722C103.136 30.2822 101.016 30.8822 98.5664 30.8822C96.8964 30.8822 95.4164 30.5822 94.1364 29.9722C92.8564 29.3722 91.7964 28.5722 90.9564 27.5722C90.1164 26.5822 89.4864 25.4522 89.0564 24.2022C88.6264 22.9522 88.4062 21.6622 88.4062 20.3322C88.4062 19.0022 88.6264 17.7122 89.0564 16.4422C89.4864 15.1722 90.1364 14.0422 91.0064 13.0522C91.8764 12.0622 92.9464 11.2622 94.2264 10.6522C95.5064 10.0522 97.0064 9.74219 98.6964 9.74219C100.226 9.74219 101.616 9.98219 102.866 10.4722C104.116 10.9622 105.206 11.6522 106.106 12.5422C107.006 13.4322 107.716 14.5122 108.206 15.7622C108.696 17.0122 108.946 18.3922 108.946 19.8922V19.9522C108.936 20.8022 108.546 21.4422 107.216 21.4822H92.0864L92.1764 18.3722H92.1863Z" fill="#2B2829"/>
<path d="M49.955 11.1423V15.0723C49.955 19.3123 48.295 23.2923 45.275 26.2823C42.295 29.2323 38.355 30.8523 34.165 30.8523H34.015C25.395 30.7623 18.375 23.6023 18.375 14.8723V11.1423C18.375 10.6023 18.825 10.1523 19.365 10.1523H21.585C22.125 10.1523 22.575 10.5923 22.575 11.1423V14.8923C22.575 21.2823 27.695 26.5623 33.985 26.6523C37.115 26.7023 40.055 25.5223 42.295 23.3223C44.525 21.1223 45.755 18.1923 45.755 15.0723V11.1423C45.755 10.6023 46.195 10.1523 46.745 10.1523H48.965C49.505 10.1523 49.955 10.5923 49.955 11.1423Z" fill="#2B2829"/>
<path d="M29.8867 3.99012C30.1267 5.42012 28.8967 6.65012 27.4667 6.41012C26.5967 6.27012 25.8967 5.57012 25.7567 4.70012C25.5167 3.27012 26.7467 2.04012 28.1767 2.28012C29.0467 2.42012 29.7467 3.12012 29.8867 3.99012Z" fill="#2B2829"/>
<path d="M42.582 3.99012C42.822 5.42012 41.592 6.65012 40.162 6.41012C39.292 6.27012 38.592 5.57012 38.452 4.70012C38.212 3.27012 39.442 2.04012 40.872 2.28012C41.742 2.42012 42.432 3.12012 42.582 3.99012Z" fill="#2B2829"/>
<path d="M244.68 0.703125H246.29V1.05312H244.68V0.703125ZM245.28 1.01312H245.69V2.63313H245.28V1.01312Z" fill="#2B2829"/>
<path d="M246.612 0.703125H246.952L247.672 1.58313H247.622L248.342 0.703125H248.682V2.63313H248.282V1.31313H248.302L247.672 2.06313H247.612L246.982 1.32312H247.002V2.63313H246.602V0.703125H246.612Z" fill="#2B2829"/>
</g>
<defs>
<clipPath id="clip0_1423_2351">
<rect width="249" height="31" fill="white"/>
</clipPath>
</defs>
</svg>
