<svg width="77" height="80" viewBox="0 0 77 80" fill="none" xmlns="http://www.w3.org/2000/svg">
<g clip-path="url(#clip0_1054_3)">
<rect width="77" height="80" fill="white"/>
<path fill-rule="evenodd" clip-rule="evenodd" d="M41.7067 1.0074C41.6171 1.02809 41.5303 1.05958 41.4482 1.10119C41.2867 1.14345 41.1194 1.15928 40.9528 1.14808C40.3246 1.14808 40.3641 1.33927 41.1467 2.11123C41.4978 2.44553 41.8219 2.8074 42.1159 3.19342L42.2415 3.34132C42.3098 3.41708 42.281 3.42068 41.861 3.38822C40.3856 3.28 39.8723 3.25836 38.4436 3.25836C35.1546 3.23009 31.8771 3.65119 28.701 4.51009L28.1877 4.64356C28.0764 4.66881 27.9292 4.7121 27.8574 4.73735C27.7856 4.7626 27.5595 4.83475 27.3477 4.89607C26.5759 5.12694 24.738 5.77265 24.3108 5.97826L23.7508 6.21274C21.0656 7.31297 16.74 9.86694 15.0528 11.3495L14.7405 11.6093C14.0226 12.1828 13.7749 12.3993 13.6636 12.4931L13.2041 12.9295C12.1292 13.8943 11.1093 14.9192 10.1492 15.9994C9.9518 16.223 9.75796 16.4431 9.71488 16.4863C9.6718 16.5296 9.54616 16.6847 9.43488 16.8218C9.05796 17.2944 8.68462 17.7489 8.57693 17.8752C7.50001 19.0908 5.62975 22.1101 4.49898 24.39C3.82411 25.7174 3.87078 25.6345 3.5118 26.4605C3.3718 26.7996 3.22462 27.1459 3.18873 27.2289C3.15283 27.3119 3.01283 27.6834 2.88001 28.0514C2.74719 28.4193 2.62155 28.7728 2.59642 28.8197C2.5318 28.9857 2.26257 29.8117 2.14052 30.2302C2.07949 30.4394 2.01129 30.6703 1.98616 30.7424C1.90719 30.9589 1.62719 32.0519 1.44411 32.8455C0.0885295 38.8741 0.195644 45.1418 1.75642 51.1201C1.80308 51.2896 1.86052 51.5169 1.88924 51.6323C1.91565 51.7446 1.94801 51.8554 1.98616 51.9642C2.01129 52.0363 2.07949 52.2672 2.14052 52.4764C2.20155 52.6857 2.26975 52.9093 2.29129 52.9634C2.31283 53.0175 2.38462 53.2268 2.44565 53.4252C2.50667 53.6236 2.57488 53.8292 2.59642 53.8869C2.61796 53.9446 2.72565 54.2476 2.82975 54.529C3.00565 55.0232 3.09539 55.2505 3.21385 55.5282C3.23539 55.5823 3.35385 55.8601 3.46872 56.1415C3.80257 56.9423 3.84924 57.0433 4.45232 58.2698C4.76462 58.9047 5.11642 59.59 5.23847 59.7957C5.36052 60.0013 5.45744 60.178 5.45744 60.1925C5.45744 60.2069 6.5918 62.0683 6.74257 62.2414C6.7677 62.2703 6.83949 62.3857 6.9077 62.4975C6.95252 62.5788 7.00416 62.656 7.06206 62.7284C7.06206 62.7284 7.23796 62.9737 7.42103 63.2406C7.72257 63.6843 8.67385 64.9758 8.74924 65.0443C8.74924 65.0443 8.87129 65.185 8.97898 65.3257C9.28052 65.6864 9.37744 65.8199 9.4636 65.91C9.54975 66.0002 9.63232 66.1084 9.7436 66.2455C9.85488 66.3826 10.0164 66.5702 10.1026 66.6568C10.1887 66.7433 10.3395 66.9093 10.44 67.0175L10.6267 67.2231L10.4292 67.4504C10.1133 67.8111 10.239 67.9626 10.5908 67.6524C10.7846 67.4792 10.8421 67.4612 10.8421 67.573C10.8421 67.6163 10.7559 67.6921 10.6518 67.7389C10.2462 67.9373 10.5118 68.0059 11.2154 67.8905C11.2405 67.8905 11.2728 67.9085 11.2836 67.9373C11.2944 67.9662 11.1903 68.0095 10.9964 68.0311C10.3503 68.1033 10.1528 68.2728 10.1528 68.7526C10.1528 69.3767 10.4041 69.5246 10.9426 69.2143C11.1149 69.1133 11.1221 69.1458 10.9785 69.3767C10.9139 69.4849 10.8277 69.6292 10.7918 69.6941L10.7272 69.8168L11.0646 69.7951C11.1758 69.7709 11.2909 69.7709 11.4021 69.7951C11.4021 69.8492 11.1615 69.9935 11.0718 69.9935C10.8277 69.9935 11.0395 70.2821 11.4021 70.4444C11.7956 70.6188 12.2212 70.7085 12.6513 70.7078C14.4821 70.8484 14.7369 70.9206 15.1246 71.3787C15.1896 71.4346 15.258 71.4864 15.3292 71.5338C15.4911 71.6424 15.6447 71.763 15.7887 71.8946C15.8519 71.9532 15.9218 72.0041 15.9969 72.0461C16.0471 72.0699 16.0931 72.1015 16.1333 72.1399C16.1908 72.1868 16.2877 72.2625 16.3523 72.3058C16.4169 72.3491 16.5139 72.4176 16.5749 72.4645C17.93 73.4091 19.337 74.2763 20.7892 75.0618C20.8939 75.1101 20.9958 75.1643 21.0944 75.2241C21.1374 75.271 22.4441 75.8987 23.0077 76.144L23.3667 76.3027L23.7256 76.4578L24.16 76.6418C24.3673 76.737 24.5794 76.8213 24.7954 76.8943C24.9354 76.9412 25.1221 77.0133 25.2046 77.0458C25.2872 77.0783 25.5062 77.1612 25.6892 77.2262C25.8723 77.2911 26.0662 77.356 26.1236 77.3813C26.181 77.4065 26.3856 77.4751 26.5831 77.5364C26.7805 77.5977 26.9851 77.6663 27.0426 77.6915C27.2508 77.7817 29.6128 78.413 30.18 78.532L30.9195 78.6871C32.2579 78.9619 33.6112 79.1583 34.9723 79.2751L36.1749 79.3797C36.8928 79.4447 39.9082 79.4447 40.68 79.3797L41.9113 79.2751C44.0214 79.094 46.1123 78.732 48.161 78.1929L48.8215 78.0089L49.92 77.6735L50.0995 77.6266C50.171 77.6096 50.2398 77.5829 50.3041 77.5472C50.3764 77.5103 50.4539 77.4848 50.5339 77.4715C50.6215 77.454 50.7054 77.421 50.7815 77.3741C50.821 77.3416 50.8569 77.3272 50.8605 77.3416C51.1234 77.277 51.3804 77.1901 51.6287 77.0819L52.2174 76.8546C52.4831 76.7572 52.7451 76.6526 52.8026 76.6273L53.1615 76.4686C54.1272 76.0574 54.3641 75.9492 55.4841 75.3864C56.1318 75.0792 56.7633 74.7385 57.3759 74.3656C57.5505 74.2518 57.7342 74.1529 57.9251 74.0698C57.9574 74.0698 57.9826 74.0517 57.9826 74.0301C57.9826 74.0084 58.0687 73.9435 58.1728 73.8894C58.4326 73.746 58.6843 73.5883 58.9267 73.4168C58.9554 73.3916 59.0703 73.3194 59.1815 73.2509C59.2618 73.2049 59.3386 73.1531 59.4113 73.0958C59.484 73.0385 59.5608 72.9867 59.641 72.9407C59.7523 72.8721 59.8672 72.7964 59.8959 72.7747C59.9246 72.7531 60.5887 72.2769 60.7574 72.1615C60.8111 72.1248 60.8627 72.0851 60.9118 72.0425C61.0032 71.9658 61.0991 71.8947 61.199 71.8296C61.3395 71.7309 61.4749 71.6249 61.6046 71.5122C61.6683 71.4506 61.7395 71.3973 61.8164 71.3535C61.8813 71.3194 61.9406 71.2756 61.9923 71.2236L62.2436 71.0072L62.6026 70.7114C62.7426 70.5995 62.879 70.4841 62.9113 70.4552C62.9436 70.4264 63.08 70.3073 63.2164 70.1919L63.5754 69.8673C64.3149 69.2288 66.1528 67.3782 66.8062 66.6207C67.1867 66.1734 67.3303 66.0074 67.3913 65.9389L67.6498 65.6287C67.919 65.2896 68.041 65.1381 68.12 65.0587C68.199 64.9794 68.2672 64.8784 68.3713 64.7449C68.4383 64.6498 68.5102 64.5583 68.5867 64.4707C68.6526 64.389 68.7137 64.3035 68.7697 64.2146C68.8523 64.0884 68.9456 63.9585 68.9744 63.9224L69.0785 63.7962C69.1072 63.7601 69.2436 63.5689 69.38 63.3705C69.4711 63.2313 69.5719 63.0987 69.6815 62.9737C69.7139 62.952 69.721 62.934 69.6815 62.934C69.6421 62.934 69.6815 62.9016 69.7067 62.8583C69.8431 62.7104 69.9041 62.631 69.9041 62.6058C70.011 62.414 70.1373 62.2339 70.281 62.0683C70.3169 62.043 70.3169 62.0322 70.281 62.0286C70.2451 62.025 70.2559 62.0105 70.281 61.9889C70.3971 61.8502 70.4993 61.7004 70.5862 61.5416C70.6677 61.3905 70.7639 61.248 70.8733 61.1159C70.8779 61.1119 70.8816 61.1069 70.8841 61.1013C70.8866 61.0957 70.8879 61.0896 70.8879 61.0835C70.8879 61.0773 70.8866 61.0713 70.8841 61.0657C70.8816 61.0601 70.8779 61.0551 70.8733 61.051C70.8733 61.0257 70.8733 61.0041 70.8985 61.0041C70.9051 61.0046 70.9117 61.0038 70.918 61.0017C70.9243 60.9996 70.9301 60.9963 70.9351 60.9919C70.9401 60.9875 70.9442 60.9822 70.9471 60.9763C70.9501 60.9703 70.9519 60.9638 70.9523 60.9572C71.0415 60.7631 71.1435 60.5751 71.2574 60.3945C71.3723 60.2125 71.4754 60.0233 71.5662 59.8281C71.5656 59.8155 71.5686 59.803 71.575 59.7921C71.5814 59.7812 71.5908 59.7724 71.6021 59.7668C71.6697 59.6837 71.7253 59.5914 71.7672 59.4926C71.8135 59.3961 71.8651 59.3022 71.9215 59.2113C71.9826 59.15 72.9985 57 73.2462 56.4156C73.361 56.1342 73.4903 55.8348 73.5298 55.7483C73.5692 55.6617 73.659 55.42 73.7344 55.2108C73.7819 55.0616 73.8419 54.9168 73.9139 54.7779C73.957 54.6879 73.9906 54.5936 74.0144 54.4965C74.0549 54.3478 74.1053 54.202 74.1651 54.06C74.2621 53.8436 74.6964 52.4909 74.8831 51.8271C75.0482 51.2427 75.2995 50.276 75.3174 50.1642C75.3174 50.1064 75.3785 49.8647 75.4359 49.6231C75.4933 49.3814 75.5508 49.1072 75.5687 49.0098C75.5867 48.9124 75.6118 48.7717 75.6262 48.7032C75.6405 48.6347 75.6764 48.4471 75.7015 48.292C75.7267 48.1368 75.7626 47.9529 75.7769 47.8807C75.7913 47.8086 75.8272 47.5885 75.8559 47.3865C75.8846 47.1845 75.9205 46.9645 75.9313 46.8995C76.0139 46.4775 76.1826 44.9119 76.2508 43.9343C76.2974 43.2634 76.2974 39.5334 76.2508 38.8084C76.2292 38.5126 76.1898 38.0147 76.1574 37.7045C76.1251 37.3943 76.0892 37.0624 76.0785 36.9614C76.0677 36.8604 76.039 36.6007 76.0067 36.3734C75.9744 36.1462 75.9385 35.8828 75.9241 35.7854C75.899 35.5834 75.7805 34.8908 75.698 34.4255C75.6656 34.2559 75.6333 34.0648 75.6226 34.0142C75.5903 33.8267 75.4898 33.3685 75.3892 32.9321C75.3569 32.7914 75.321 32.6254 75.3103 32.5713C75.2995 32.5172 75.2277 32.2358 75.1559 31.9581C75.0841 31.6803 75.0159 31.417 75.0087 31.3737C74.8831 30.8506 74.359 29.1877 74.0933 28.4879C74.0334 28.3427 73.9889 28.1915 73.9605 28.0369C73.9605 27.9828 73.939 27.9359 73.9103 27.9359C73.8957 27.9341 73.8823 27.9268 73.873 27.9153C73.8636 27.9039 73.859 27.8894 73.86 27.8746C73.835 27.7513 73.799 27.6306 73.7523 27.5139C73.6374 27.2253 73.5944 27.1135 73.3933 26.6662C73.2354 26.3054 73.1744 26.1575 73.1636 26.1287C73.1528 26.0998 73.1277 26.0349 73.0954 25.9483C73.0631 25.8617 72.9985 25.7138 72.8333 25.3603L72.7436 25.18C72.7113 25.1222 72.5318 24.7651 72.3451 24.3863C71.9862 23.6974 71.778 23.2645 71.559 22.8749L71.358 22.4637C71.3155 22.376 71.2611 22.2946 71.1964 22.222C71.1641 22.1967 71.1641 22.1823 71.1964 22.1823C71.2287 22.1823 71.2287 22.1642 71.1964 22.1426C71.011 21.9166 70.8609 21.6636 70.7513 21.3923C70.7692 21.3923 70.7513 21.3598 70.7513 21.3598C70.7513 21.3598 70.6472 21.2624 70.579 21.1434C70.5108 21.0243 70.3959 20.8368 70.3169 20.7249C70.257 20.6509 70.2086 20.5682 70.1733 20.4796C70.1653 20.4394 70.1467 20.402 70.1195 20.3714C69.9149 20.1261 69.8646 20.0576 69.8646 20.0107C69.8654 19.9947 69.8621 19.9787 69.8552 19.9642C69.8484 19.9497 69.838 19.9372 69.8251 19.9277C69.6051 19.6827 69.4058 19.4196 69.2292 19.1413C69.1862 19.08 69.1287 19.0006 69.1 18.9682C69.0713 18.9357 68.9815 18.8058 68.899 18.6796C68.8278 18.5725 68.7499 18.47 68.6656 18.373C68.5919 18.2922 68.5236 18.2066 68.461 18.1168C68.3276 17.9217 68.1838 17.7338 68.0303 17.5541C67.6713 17.1284 67.4703 16.8687 67.4021 16.8002C67.3339 16.7316 67.3446 16.7316 67.3554 16.7316C67.3044 16.6525 67.2442 16.5798 67.1759 16.5152C67.0646 16.3962 66.9031 16.2086 66.8169 16.1004C66.7308 15.9921 66.5369 15.7793 66.3933 15.6278C66.2498 15.4763 66.1385 15.35 66.1421 15.35C66.1456 15.35 64.3795 13.5789 64.3472 13.5464C64.3407 13.5446 64.3347 13.5413 64.3297 13.5368C64.3246 13.5323 64.3208 13.5266 64.3183 13.5203C64.3159 13.514 64.3149 13.5072 64.3156 13.5004C64.3162 13.4937 64.3184 13.4872 64.3221 13.4815C64.3221 13.4562 64.3221 13.4346 64.3005 13.4346C64.2083 13.3846 64.1247 13.32 64.0528 13.2434C63.9415 13.1352 63.6615 12.8826 63.4246 12.677L62.9292 12.2874C62.9005 12.2586 62.7174 12.1071 62.52 11.9484C62.3226 11.7896 62.1144 11.6201 62.0498 11.5696C61.5364 11.1295 60.4308 10.3215 59.4077 9.63968C59.099 9.43406 58.8262 9.24648 58.7974 9.22484C58.7687 9.2032 57.1928 8.24365 56.78 8.01278C56.0621 7.61237 54.2169 6.70333 53.4415 6.37146L52.4723 5.95662C52.3862 5.92055 52.02 5.78347 51.6539 5.65C51.2877 5.51653 50.9359 5.39027 50.8892 5.36502C50.7241 5.29648 49.9021 5.02954 49.4857 4.9069L48.9759 4.74817C48.5308 4.58945 46.6713 4.14215 45.5836 3.93653L45.0487 3.83192L44.6251 3.75256C44.5139 3.73452 44.4456 3.69845 44.4672 3.66959C44.4887 3.64073 44.2518 3.30886 44.1836 3.30886C44.1096 3.35213 44.0419 3.40555 43.9826 3.46758C43.5841 3.82831 43.2467 3.64073 42.7118 2.74612C42.54 2.40817 42.2946 2.11349 41.9939 1.88397C41.9302 1.84844 41.8816 1.79069 41.8574 1.72164C41.8251 1.599 41.8359 1.59539 42.0226 1.69279L42.1662 1.76854L42.3277 1.42945C42.3992 1.30384 42.4456 1.16535 42.4641 1.02183C42.4354 0.946073 41.9687 0.931644 41.6923 1.00018M41.4374 3.71648C41.6636 3.74534 42.001 3.78502 42.1913 3.79945L42.5503 3.83192L42.7226 4.19265C43.0696 4.94297 43.078 5.36382 42.7477 5.4552C42.5969 5.49849 42.5467 5.53817 42.5467 5.61393C42.9167 6.32297 43.3608 6.99047 43.8713 7.60516C43.9933 7.73502 44.3882 8.2689 44.6898 8.709C44.8555 8.97196 45.0428 9.22053 45.2498 9.4521C45.3539 9.56393 45.8349 10.1736 45.8851 10.271C45.9354 10.3684 45.9067 10.3323 45.8313 10.3034C44.8502 10.067 43.8567 9.88638 42.8554 9.76233C40.5953 9.45566 38.3101 9.38073 36.0349 9.53868C34.5989 9.64288 33.171 9.83807 31.7595 10.1231L31.0954 10.2782L30.46 10.4297C29.7421 10.6209 28.5323 10.9888 28.3923 11.0465C28.3385 11.0718 28.1087 11.1547 27.8826 11.2269C27.3944 11.3928 26.8487 11.5876 26.7087 11.6598C26.6549 11.6886 26.4826 11.7572 26.3318 11.8185C26.181 11.8798 25.9369 11.9772 25.7933 12.0421L25.1041 12.3596C24.5656 12.6013 23.2554 13.2758 23.0005 13.4418C22.9309 13.4895 22.8562 13.5294 22.778 13.5608C22.5805 13.5608 18.8292 16.1292 18.5744 16.4467C18.5744 16.4467 18.4344 16.5693 18.2944 16.6811C18.1544 16.793 18.0108 16.9084 17.9821 16.9373L17.6231 17.2439C17.081 17.7056 16.8226 17.9653 15.9682 18.8095C15.422 19.3353 14.9031 19.8891 14.4139 20.4688L14.1051 20.8295C14.0764 20.8584 13.9615 20.9991 13.8503 21.1398C13.739 21.2805 13.6313 21.4103 13.6169 21.4247C13.3226 21.6664 10.7667 25.4397 10.7667 25.6345C10.7343 25.7174 10.6921 25.7961 10.641 25.869C10.4867 26.1106 9.7795 27.5067 9.56411 27.972L9.26975 28.6213C9.19078 28.7945 9.07949 29.0614 9.02206 29.2093C8.96462 29.3572 8.89642 29.5304 8.89642 29.6025C8.8318 29.7432 8.63078 30.2915 8.46924 30.7821C8.39385 31.0058 8.31129 31.2366 8.28616 31.2943C8.26103 31.3521 8.01334 32.1601 7.86257 32.7048L7.70462 33.2675C7.66155 33.4226 7.57898 33.7581 7.52155 34.0106C7.46411 34.2632 7.39591 34.5662 7.36719 34.678C7.31334 34.9125 7.24873 35.2552 7.13385 35.9081C6.31775 40.7266 6.59756 45.6682 7.95231 50.3626C8.1318 50.9722 8.69539 52.6568 8.74206 52.7217C8.8025 52.847 8.85525 52.9759 8.90001 53.1077C8.96462 53.2881 9.03283 53.4684 9.05078 53.4901C9.09941 53.5911 9.14255 53.6946 9.18001 53.8003C9.6544 54.9098 10.1864 55.9935 10.7739 57.0469C10.8313 57.1515 10.9103 57.2886 10.9462 57.3571C10.9755 57.4083 11.0079 57.4577 11.0431 57.505C11.0431 57.505 11.1041 57.5988 11.1508 57.6854C11.2405 57.8549 11.8687 58.883 11.9441 58.966C12.0195 59.0489 12.0769 59.1572 12.1882 59.3267C12.2995 59.4963 12.4036 59.6442 12.418 59.6586C12.4323 59.673 12.5364 59.8173 12.6477 59.9868C12.9636 60.4522 13.1 60.5784 13.2795 60.5784C13.459 60.5784 13.4877 60.5496 13.1251 60.059C12.6908 59.471 11.6892 57.9848 11.6892 57.9199C11.6897 57.9128 11.6888 57.9056 11.6865 57.8989C11.6843 57.8921 11.6807 57.8859 11.676 57.8805C11.6714 57.8751 11.6657 57.8708 11.6593 57.8676C11.653 57.8645 11.6461 57.8626 11.639 57.8621C11.6321 57.8622 11.6252 57.8607 11.6189 57.858C11.6125 57.8552 11.6068 57.8512 11.6021 57.8461C11.5974 57.841 11.5938 57.835 11.5915 57.8285C11.5892 57.8219 11.5882 57.815 11.5887 57.808C11.5413 57.6911 11.4811 57.5798 11.4092 57.4762C11.3428 57.3767 11.2829 57.2731 11.2298 57.1659C11.2078 57.1059 11.1763 57.0499 11.1364 57C10.9605 56.7439 10.1098 55.0953 9.83693 54.4749L9.61437 54.0023C9.54257 53.8364 9.42411 53.5622 9.35232 53.3855C9.28052 53.2087 9.20155 53.0247 9.17283 52.9634C9.1118 52.8372 8.76719 51.8524 8.54103 51.1598C7.82136 48.9815 7.35047 46.7281 7.13744 44.443L7.04411 43.3103C6.88638 40.3538 7.11813 37.3894 7.73334 34.494C7.78001 34.2992 7.83744 34.0431 7.86257 33.9277C8.14891 32.772 8.49398 31.6318 8.89642 30.5116C8.93232 30.4286 9.02565 30.1833 9.10103 29.9741C9.17642 29.7648 9.26975 29.5232 9.30565 29.4366C9.34155 29.35 9.47437 29.0506 9.58924 28.7692C10.052 27.7061 10.5745 26.6704 11.1544 25.6669C11.202 25.6022 11.2417 25.5319 11.2728 25.4577C11.2728 25.4072 12.1954 23.9282 12.5328 23.4412C13.118 22.5899 14.3277 21.0207 14.7908 20.5374L15.358 19.9458C16.0967 19.1384 16.8768 18.3703 17.6949 17.6443L18.1005 17.2836C18.2656 17.1357 18.761 16.728 19.0769 16.4863L19.4826 16.1689C19.8092 15.8947 21.3492 14.8378 21.9308 14.4879C22.0109 14.4431 22.0877 14.3925 22.1605 14.3364C22.2084 14.2996 22.2602 14.2681 22.3149 14.2426C22.4425 14.1846 22.5629 14.112 22.6739 14.0262C22.7377 13.9814 22.8049 13.9416 22.8749 13.9071L23.3882 13.6294C23.8154 13.3913 25.3267 12.6337 25.6569 12.4931L26.0159 12.3343L26.3749 12.1828C26.5149 12.1251 26.6692 12.053 26.7339 12.0241C26.7805 11.9985 26.8318 11.9826 26.8846 11.9772C26.9553 11.965 27.0233 11.9406 27.0856 11.9051C27.2351 11.8358 27.3885 11.7756 27.5451 11.7247C27.721 11.6634 27.9041 11.5948 27.9687 11.5696C28.1123 11.5047 28.9092 11.2413 29.3723 11.1079C29.5841 11.0465 29.8139 10.9744 29.8821 10.9491C29.9503 10.9239 30.1154 10.877 30.241 10.8481L30.7759 10.7147C35.7798 9.45893 41.013 9.44902 46.0215 10.6858C46.1041 10.7035 46.183 10.7352 46.2549 10.7796C46.3303 10.8698 46.9226 11.8149 46.9226 11.8618C46.9597 11.9498 47.0066 12.0333 47.0626 12.1107C47.138 12.2261 47.2456 12.4101 47.2995 12.5147C47.4467 12.8069 48.1539 12.7347 48.0677 12.4389C47.9377 12.1393 47.7621 11.8618 47.5472 11.6165C47.339 11.3784 47.3641 11.3099 47.5939 11.4902C48.3118 12.0241 48.7067 12.0458 48.3477 11.5227C48.1897 11.299 48.1898 11.299 48.4518 11.5732L48.7139 11.851L48.5954 11.9736C48.5447 12.0224 48.5061 12.0823 48.4825 12.1486C48.4588 12.215 48.4509 12.286 48.4592 12.356C48.4676 12.4259 48.492 12.493 48.5306 12.5518C48.5692 12.6107 48.6209 12.6597 48.6815 12.6951C49.2236 12.8863 49.1662 12.8069 49.1662 13.3732C49.1722 13.5686 49.1614 13.7641 49.1339 13.9576C49.0836 14.0875 48.9974 14.0514 49.0333 13.9143C49.0692 13.7773 49.0333 13.7484 48.8933 13.6077C48.7779 13.4776 48.6723 13.3389 48.5774 13.1929C48.4303 12.962 48.3836 12.9368 48.1467 12.9584C47.7877 12.9909 47.8236 13.4598 48.2185 13.8061C48.6133 14.1524 49.2667 15.5809 49.2667 15.9921C49.3114 16.2019 49.4062 16.3975 49.5431 16.5621C49.6256 16.6162 49.7692 16.5621 50.0851 16.3457C50.2096 16.2579 50.3418 16.1819 50.48 16.1184C50.5446 16.0968 50.5949 16.0607 50.5949 16.0318C50.5949 15.92 50.7492 15.9994 50.778 16.1256C50.7976 16.204 50.838 16.2756 50.8949 16.3328C50.9518 16.3899 51.023 16.4306 51.101 16.4503C51.1895 16.4669 51.2745 16.4986 51.3523 16.5441L51.5246 16.6379L51.3451 16.6667C51.2122 16.6929 51.0856 16.7452 50.9729 16.8208C50.8601 16.8963 50.7634 16.9935 50.6882 17.1068L50.6128 17.2655L50.4477 16.9048C50.279 16.5441 50.0887 16.4322 49.8446 16.5874C49.7872 16.6234 50.0492 17.5469 50.3867 18.5173C50.4585 18.7193 50.4944 18.7265 49.7764 18.373C48.9423 17.9503 48.0826 17.5804 47.2026 17.2655C46.9477 17.1753 46.6964 17.0816 46.639 17.0563C46.5815 17.0311 45.44 16.6775 45.1349 16.5982C44.381 16.3962 44.1477 16.3384 43.4764 16.205C39.5499 15.4253 35.4974 15.566 31.6339 16.6162C31.0954 16.7677 30.3308 17.0022 30.2303 17.0419C30.1298 17.0816 30.0113 17.1248 29.8713 17.1717C28.973 17.4873 28.0964 17.8621 27.2472 18.2936C22.559 20.5951 18.2728 24.6605 16.0795 28.9352L15.8533 29.3572C15.6703 29.7179 15.6703 29.7179 15.7995 29.653C16.0364 29.5628 16.1154 29.5015 16.1908 29.3608C16.7089 28.3901 17.2868 27.4528 17.921 26.5543C17.9462 26.5255 18.1292 26.2838 18.3267 26.0132C18.6605 25.5659 19.199 24.9058 19.6441 24.4008C20.4667 23.5136 21.3355 22.6707 22.2467 21.8757C22.3179 21.8191 22.3862 21.7589 22.4513 21.6953C22.4728 21.67 23.8872 20.6131 24.0595 20.4832C24.2318 20.3534 24.7164 20.0432 25.1041 19.7979L25.639 19.4588C25.7125 19.4134 25.7893 19.3736 25.8687 19.3397C25.9242 19.3196 25.9754 19.289 26.0195 19.2495C26.0662 19.1882 27.6528 18.3766 28.1374 18.1674L28.4964 18.0122C29.9925 17.3673 31.5468 16.8684 33.138 16.5224C34.7283 16.1854 36.3481 16.0089 37.9733 15.9958C40.4466 15.9397 42.9141 16.2583 45.2928 16.9409C45.8421 17.096 47.0231 17.482 47.2062 17.5685L47.5903 17.72C47.7446 17.7778 47.9133 17.8463 47.9708 17.8752L48.6887 18.189C49.4857 18.5173 50.5015 19.0944 50.5446 19.2351C50.5698 19.3181 50.6092 19.4335 50.6308 19.4912C50.6523 19.549 50.7241 19.7654 50.7851 19.9782C50.8462 20.1911 50.9323 20.4472 50.9718 20.5554C51.0224 20.6554 51.0438 20.7677 51.0337 20.8794C51.0235 20.991 50.9822 21.0976 50.9144 21.1867C50.6595 21.67 50.8426 22.3049 51.18 22.1029L51.3236 22.0163L51.198 22.1246L51.0041 22.2869C50.8749 22.3951 50.9251 22.709 51.0687 22.6729L51.3236 22.6116C51.3954 22.5935 51.4528 22.6116 51.4528 22.6116C51.4528 22.6116 51.1333 22.7667 50.8282 22.7955C50.5231 22.8244 50.4692 22.8677 50.4154 23.6C50.4039 23.9352 50.3679 24.2692 50.3077 24.5992C50.1605 25.2629 49.7262 25.0068 53.9657 26.7636C56.019 27.6041 58.5821 28.661 59.6626 29.1083C61.9456 30.0498 61.6477 29.9705 61.8164 29.6999C62.4087 28.762 63.8339 28.257 65.198 28.5059C65.4241 28.5492 65.6287 28.5816 65.6574 28.5853C65.8118 28.5853 65.8441 28.6718 65.7831 28.8811C65.7221 29.0903 65.8872 29.7901 66.0021 29.7504C66.2617 29.4176 66.4799 29.0542 66.6518 28.6682C66.6518 28.6682 66.5944 28.643 66.5262 28.643C66.2785 28.643 66.2282 28.4265 66.3251 27.7339C66.3682 27.4021 66.4149 27.1243 66.4221 27.1135C66.4292 27.1026 67.1113 28.4662 67.1113 28.5131C67.1113 28.56 67.3303 29.029 67.4703 29.3356C67.5636 29.5304 68.0733 30.9264 68.2492 31.4639C68.4251 32.0014 68.4898 32.2142 68.6944 32.9501C68.8739 33.5958 68.8918 33.6716 68.9995 34.1549C69.0569 34.4074 69.1251 34.7068 69.1539 34.8223C69.4594 36.3012 69.6644 37.7993 69.7677 39.3062C69.8359 40.1647 69.8072 43.1299 69.721 44.1003C69.5544 45.9025 69.2471 47.6888 68.8021 49.4427C68.6118 50.1642 68.4431 50.7052 68.4144 50.799C68.3857 50.8928 68.321 51.066 68.26 51.2608C68.199 51.4556 68.1308 51.6648 68.1092 51.7225C68.0877 51.7802 67.98 52.0832 67.8723 52.3646C67.8068 52.5643 67.7313 52.7605 67.6462 52.9526C67.5981 53.0521 67.5562 53.1545 67.5205 53.2592C67.4703 53.4035 67.3733 53.6452 67.3051 53.8003C67.2369 53.9554 67.0826 54.2873 66.9713 54.5434C66.7128 55.117 66.1133 56.293 65.8944 56.6753C65.8272 56.7774 65.7683 56.8848 65.7185 56.9964C65.1106 58.0452 64.4504 59.0626 63.7405 60.0446C63.3815 60.5315 63.3815 60.564 63.5718 60.564C63.9846 60.564 65.7257 57.9235 66.8887 55.5138C67.1185 55.0412 67.3267 54.6156 67.3518 54.5723C67.438 54.4027 67.9728 53.1294 68.1236 52.7181C70.5703 46.253 70.865 39.1649 68.9636 32.5172L68.8308 32.0555C68.619 31.334 67.9549 29.4907 67.6569 28.8089C67.359 28.1271 67.2369 27.8746 66.9103 27.2037C66.519 26.4028 66.4759 26.1792 66.7415 26.3235C67.0072 26.4678 67.5851 25.9627 68.1774 25.0537C68.5364 24.5306 68.5364 24.527 68.4323 24.4188C68.309 24.1164 68.2988 23.7794 68.4036 23.4701C68.4335 23.4246 68.4495 23.3713 68.4495 23.3168C68.4495 23.2623 68.4335 23.2089 68.4036 23.1635C68.3318 23.0228 68.3354 23.0047 68.4539 22.8677C68.5723 22.7306 68.5759 22.6873 68.5436 22.5611C68.479 22.2761 68.5041 22.2003 68.9528 21.2732L69.398 20.3606L69.301 20.2307C69.2113 20.1081 68.9421 20.0071 68.4682 19.8953C68.3841 19.8689 68.3125 19.8124 68.2672 19.7365C68.0949 19.4119 67.0431 19.3217 66.519 19.5886C66.1495 19.7886 65.7987 20.0216 65.4708 20.2848C65.4619 20.2975 65.45 20.3077 65.4363 20.3147C65.4225 20.3216 65.4072 20.325 65.3918 20.3245C65.2609 20.4259 65.147 20.5477 65.0544 20.6853C64.9 20.8909 64.7636 21.0676 64.7457 21.0821C64.7277 21.0965 64.5949 21.266 64.4477 21.4428C64.2732 21.6983 64.0215 21.8905 63.7298 21.9911C63.6332 21.916 63.5506 21.8244 63.4857 21.7205C62.7031 20.7009 61.8515 19.7367 60.9369 18.8347C59.8345 17.6835 58.6333 16.6321 57.3472 15.6927L56.4533 15.029L56.2487 14.8919C56.1434 14.8178 56.0438 14.7358 55.9508 14.6466C55.8906 14.5778 55.8122 14.5278 55.7246 14.5023C55.3555 14.3596 55.0326 14.1175 54.7913 13.8025C54.7143 13.6092 54.5774 13.4459 54.4009 13.3368C54.2245 13.2277 54.0177 13.1785 53.8113 13.1965C53.4523 13.1965 53.3985 13.1604 52.7056 12.8069C52.2964 12.5977 51.74 12.3271 51.4672 12.2009C51.2916 12.1335 51.1242 12.0464 50.9682 11.9411C50.9487 11.8904 50.918 11.8448 50.8785 11.8077C50.8282 11.7536 50.6308 11.501 50.4405 11.2485C49.9703 10.6173 49.9595 10.6064 49.8841 10.6064C49.6651 10.6064 49.5251 10.3034 49.5251 9.86333C49.5251 9.5026 49.5251 9.41963 49.4246 9.3511C49.3241 9.28256 49.4067 9.31502 49.5072 9.37274C49.6175 9.43485 49.7401 9.47179 49.8662 9.48096H50.0313L49.9954 9.13826C49.9749 8.95218 49.9364 8.76855 49.8805 8.58995C49.828 8.41783 49.7896 8.24169 49.7657 8.06329C49.7399 7.84705 49.6623 7.64032 49.5395 7.46087C49.4715 7.3605 49.4104 7.25565 49.3564 7.14703C49.3564 7.14703 49.2236 6.92338 49.0656 6.67808C48.7497 6.1947 48.6887 5.8989 48.8431 5.59589C48.9256 5.44438 48.8933 5.39027 48.7605 5.45881C48.6543 5.50956 48.5452 5.55412 48.4339 5.59228C48.2946 5.63486 48.1701 5.71614 48.0749 5.82676C47.9421 6.00712 47.8128 6.02155 47.68 5.87365C47.6035 5.79736 47.5134 5.73618 47.4144 5.69329C47.1918 5.5995 47.2457 5.51653 47.5328 5.51653C47.6585 5.51653 47.759 5.49489 47.759 5.46603C47.7348 5.40836 47.6995 5.35606 47.6551 5.31211C47.6108 5.26816 47.5582 5.23343 47.5005 5.20991C47.2488 5.08965 47.0145 4.93552 46.8041 4.75178C46.6933 4.65966 46.573 4.57983 46.4451 4.5137C46.2405 4.40548 46.2262 4.38744 46.3554 4.40909C46.6174 4.45237 47.461 4.65438 48.0928 4.82393C48.258 4.87082 48.4877 4.92854 48.6026 4.9574C48.7174 4.98626 48.8646 5.02954 48.9328 5.05479C49.001 5.08005 49.3349 5.18466 49.6723 5.28566C50.0098 5.38667 50.3292 5.49489 50.3903 5.51653C50.4513 5.53817 50.6415 5.61032 50.8246 5.67164C51.0077 5.73297 51.1836 5.80511 51.2446 5.83037C51.2915 5.85543 51.3426 5.87134 51.3954 5.87726C51.4887 5.90053 51.579 5.93442 51.6646 5.97826C51.7498 6.0232 51.8402 6.05713 51.9339 6.07927C51.9881 6.08804 52.0403 6.10636 52.0882 6.13338C52.1349 6.15863 52.3826 6.26685 52.6339 6.36425L53.1974 6.59511C54.413 7.12196 55.5993 7.71442 56.7513 8.36991C56.8212 8.41813 56.8958 8.45922 56.9739 8.49256C57.0133 8.49256 59.0846 9.76594 59.1277 9.82365C59.1708 9.88137 59.2928 9.94269 59.4615 10.0545L59.8205 10.2998C59.8492 10.3215 60.0323 10.4549 60.2298 10.592C60.4272 10.7291 60.6103 10.8626 60.6354 10.8878L60.9441 11.1187C61.2421 11.3423 61.2062 11.3135 61.6621 11.6706C62.118 12.0277 62.4087 12.2694 63.0369 12.8177C63.8805 13.5392 65.6215 15.2671 66.361 16.0968L66.8421 16.6379C66.8851 16.6811 67.0108 16.8363 67.1221 16.9733C67.481 17.3954 67.5277 17.4747 67.6067 17.5613C67.6792 17.6444 67.7475 17.7311 67.8113 17.8211C67.8664 17.9026 67.9276 17.9798 67.9944 18.0519C68.4036 18.4126 70.78 22.02 71.3328 23.1274C71.3767 23.2259 71.4296 23.3201 71.4908 23.4088C71.5662 23.4701 72.8405 26.1359 73.02 26.6121C73.0739 26.7527 73.1421 26.9151 73.1672 26.9728C73.2765 27.18 73.362 27.3991 73.4221 27.6257C73.4246 27.6683 73.441 27.7088 73.4687 27.7411C73.5405 27.8241 74.2728 29.9596 74.4774 30.6883C74.6821 31.417 74.8687 32.1312 74.9262 32.3801C75.1667 33.4046 75.2313 33.7148 75.3892 34.5842C75.5615 35.5221 75.7482 36.8388 75.8164 37.8308C75.8487 38.1915 75.8954 38.7254 75.9205 39.0392C75.9887 39.7607 75.9887 42.863 75.9205 43.5953C75.8954 43.9055 75.8487 44.4502 75.8164 44.8037C75.6367 46.8374 75.2885 48.8524 74.7754 50.8279C74.7287 50.9938 74.6713 51.2247 74.6426 51.3401C74.6173 51.4527 74.585 51.5636 74.5457 51.672C74.5205 51.7441 74.4523 51.975 74.3913 52.1842C74.2298 52.7398 73.8349 53.9374 73.7774 54.042C73.7515 54.0902 73.7345 54.1428 73.7272 54.1971C73.715 54.2681 73.6907 54.3365 73.6554 54.3991C73.6096 54.4922 73.5746 54.5902 73.5513 54.6913C73.5406 54.76 73.5121 54.8247 73.4687 54.8789C73.4533 54.8937 73.4411 54.9117 73.433 54.9316C73.425 54.9515 73.4213 54.9729 73.4221 54.9943C73.4016 55.0958 73.3678 55.194 73.3215 55.2865C73.2814 55.3629 73.2478 55.4425 73.221 55.5246C73.1763 55.6477 73.1248 55.7681 73.0667 55.8853C73.0086 56.0026 72.9571 56.1231 72.9123 56.2461C72.9123 56.3507 71.6164 58.9984 71.2933 59.5468C71.1749 59.7524 71.0744 59.9291 71.0744 59.9436C71.0744 59.958 70.0621 61.6354 69.8 62.0214L69.5774 62.3532C69.2185 62.8979 68.7913 63.504 68.4 64.0198C68.0087 64.5357 67.9477 64.6186 67.8364 64.7413L67.5815 65.0587C67.2764 65.4375 67.1831 65.5565 67.0969 65.6467L66.8456 65.9317C66.239 66.6531 65.9374 66.9706 64.9539 67.9554C63.9703 68.9402 63.6221 69.2721 62.94 69.8564L62.6564 70.1089C62.5631 70.1955 62.4374 70.3001 62.0713 70.5923C61.9313 70.7042 61.8057 70.8124 61.7913 70.8268C61.6872 70.9531 60.1723 72.0605 59.2785 72.6737C58.5892 73.1391 57.0385 74.1167 56.981 74.1167C56.9236 74.1167 56.7908 74.2177 56.5862 74.3367C56.2739 74.5243 54.0733 75.6281 53.7682 75.7796C53.7108 75.8013 53.5169 75.8878 53.3339 75.9708C52.0174 76.5338 50.673 77.0287 49.3062 77.4534C48.9903 77.5508 48.8395 77.5941 48.1072 77.8141C47.5221 77.9729 47.4395 77.9945 46.9836 78.0991L46.3195 78.2506C44.867 78.556 43.399 78.7812 41.9221 78.9252C40.6259 79.0586 39.3224 79.1056 38.02 79.0659C37.0508 79.0659 36.0995 79.0262 35.9021 79.0082L34.958 78.9252C32.9357 78.7424 30.9318 78.3925 28.9667 77.8791L28.4533 77.7456C28.3421 77.7168 28.1949 77.6735 28.1231 77.6482C28.0513 77.623 27.8251 77.5544 27.6133 77.4931C26.8667 77.2731 25.2118 76.7031 24.9354 76.5696L24.5513 76.4181L24.1708 76.263L23.7364 76.079C21.8036 75.234 19.9385 74.2403 18.158 73.1066C17.0021 72.3383 15.4046 71.1947 15.2682 71.0396C15.2682 71.0216 15.1318 70.9206 14.999 70.8124C14.7262 70.5923 14.7298 70.4877 15.0205 70.3398C15.3113 70.1919 16.0795 70.6068 16.2949 71.0613C16.4672 71.422 16.5928 71.5374 16.9195 71.5771C17.3068 71.6088 17.6966 71.5894 18.079 71.5194C18.1865 71.4926 18.2987 71.4912 18.4068 71.5153C18.515 71.5394 18.6161 71.5882 18.7023 71.6581C18.7885 71.728 18.8575 71.8169 18.9038 71.918C18.9501 72.0191 18.9725 72.1296 18.9692 72.2409C18.9692 72.8938 19.4287 73.1319 20.2831 72.9371C21.3277 72.699 21.798 72.7134 21.798 72.9912C21.798 73.4457 24.4974 73.3231 25.0287 72.8469C25.1418 72.76 25.2754 72.704 25.4164 72.6846C25.7501 72.6048 26.0617 72.4507 26.3282 72.2336C26.3897 72.1813 26.4603 72.141 26.5364 72.1146C26.6764 72.1146 26.7698 71.9126 26.7339 71.6817C26.698 71.4509 26.7051 71.4509 26.9062 71.321L27.1108 71.1839L27.4698 71.3138C28.1877 71.5807 29.3831 71.9631 30.241 72.2012L30.7005 72.3274C30.7974 72.3527 30.9805 72.3996 31.1062 72.4248L31.6949 72.5511C35.8575 73.458 40.1586 73.5193 44.3451 72.7315C44.8441 72.6449 46.3949 72.2841 46.858 72.1435L47.3964 71.9884C48.1144 71.7791 50.0385 71.1118 50.4046 70.9422L50.7636 70.7835L51.1226 70.632L51.4815 70.4733C52.6264 69.9476 53.742 69.3599 54.8236 68.7129C55.9453 68.0182 57.0297 67.2644 58.0723 66.4547C58.1082 66.4259 58.2195 66.3321 58.3272 66.2491C58.5749 66.0507 59.5262 65.2391 59.8241 64.9685C60.2226 64.6078 61.881 62.9268 62.1108 62.6454L62.3333 62.3785H62.1072C61.8954 62.3785 61.8631 62.3785 61.6226 62.6743C61.2636 63.0999 60.2764 64.0775 59.7236 64.5826L59.16 65.0948C58.1118 66.0204 57.0024 66.8737 55.8395 67.6488C55.0605 68.1718 54.0769 68.7851 54.0195 68.7851C53.9125 68.8373 53.8083 68.8951 53.7072 68.9582C53.3159 69.1963 52.1456 69.7987 51.5856 70.0404L50.8462 70.3723C50.6918 70.4444 50.4513 70.5418 50.3113 70.5923C50.206 70.6284 50.103 70.6705 50.0026 70.7186C49.9774 70.7366 49.7118 70.8412 49.4174 70.9458C49.1231 71.0505 48.8359 71.1587 48.7785 71.1839C48.721 71.2092 48.5164 71.2741 48.319 71.3354C48.1215 71.3968 47.9169 71.4653 47.8631 71.4905C47.6046 71.5952 46.2441 71.9595 45.2856 72.1795C40.79 73.1512 36.1402 73.1512 31.6446 72.1795C31.0056 72.028 30.6646 71.9451 30.3918 71.8693L29.8821 71.7358C29.7564 71.7034 29.6092 71.6565 29.5518 71.6348C29.4944 71.6132 29.279 71.541 29.0672 71.4797C28.7265 71.3884 28.3919 71.2751 28.0656 71.1406C27.9973 71.1081 27.9248 71.0851 27.8503 71.0721C27.7605 71.0721 27.538 70.9531 27.538 70.9098C27.538 70.8665 27.5595 70.8665 27.5918 70.8665C27.8007 70.7579 27.9959 70.6247 28.1733 70.4697L28.3636 70.3398C28.5035 70.2042 28.6157 70.0425 28.6939 69.8636C29.0026 69.2396 29.3364 69.0592 30.521 68.8572C31.3539 68.7129 31.5692 68.2836 31.0308 67.84C30.6933 67.5658 30.6969 67.5838 30.9698 67.2303C31.0882 67.0716 31.3287 66.7542 31.4651 66.5089C31.6877 66.1698 31.7667 66.0904 31.8456 66.1084L32.2549 66.2058C33.3531 66.4861 34.47 66.6862 35.5969 66.8047L36.6021 66.9093C37.8253 66.9742 39.0511 66.9742 40.2744 66.9093L41.3082 66.8047C43.0843 66.6241 44.835 66.2454 46.5277 65.6756C46.9082 65.5493 47.2456 65.4267 47.3174 65.405L47.7267 65.2427C47.8501 65.1987 47.97 65.1457 48.0856 65.084C48.1178 65.0596 48.1567 65.0458 48.1969 65.0443C48.5056 65.0443 51.32 63.5364 52.5405 62.7212L53.0144 62.4037H52.7882C52.49 62.4313 52.2095 62.5583 51.9913 62.7645C51.9554 62.8041 50.9144 63.4282 50.5554 63.6338C49.6718 64.1188 48.7595 64.5488 47.8236 64.9216L47.0841 65.221C46.9585 65.2788 46.14 65.5529 45.86 65.6323L45.4005 65.7658C45.0164 65.8812 44.4062 66.0435 44.1764 66.0904C43.3723 66.2672 43.1569 66.3105 42.7405 66.379C41.3198 66.6404 39.877 66.7612 38.4328 66.7397C36.2866 66.7732 34.146 66.5086 32.0718 65.9533L31.8098 65.8884L31.7882 65.5746C31.7708 65.4174 31.7892 65.2582 31.8421 65.1092C32.0297 64.7814 32.2358 64.4646 32.4595 64.1605C32.7364 63.9005 32.9628 63.591 33.1272 63.2479C33.1376 63.128 33.1718 63.0115 33.2277 62.9052C33.2859 62.7931 33.3213 62.6704 33.3318 62.5444V62.4037H14.5251L14.6364 62.5228C14.7836 62.6815 14.7764 62.7428 14.6364 62.6382C14.3959 62.4795 14.2487 62.5516 13.9185 62.9989C13.7484 63.2068 13.5674 63.4055 13.3764 63.5942C12.9887 63.9837 12.9815 63.991 12.9456 64.3156C12.8918 64.7954 12.8523 64.8711 12.7733 64.6763C12.6656 64.4238 12.54 64.4671 12.4574 64.7846C12.3964 65.0118 12.3605 65.0623 12.2277 65.1056C11.9764 65.185 11.9226 65.2571 11.5923 65.9245C11.2621 66.5918 11.2333 66.801 11.4344 66.9057C11.5421 66.9598 11.5241 66.967 11.2369 67.0031L10.9174 67.0391L10.6554 66.7542C10.1887 66.2455 9.81898 65.8271 9.69693 65.672C9.63232 65.589 9.54616 65.4844 9.50308 65.4375C9.38462 65.3112 9.23744 65.1273 9.06873 64.9036C8.98616 64.7918 8.9036 64.6872 8.88924 64.6727C8.83556 64.6068 8.78524 64.5382 8.73847 64.4671C8.69122 64.3955 8.63967 64.3268 8.58411 64.2615C8.54821 64.2326 8.22514 63.8178 8.12821 63.6483C8.08733 63.588 8.04298 63.5302 7.99539 63.4751C7.94873 63.4246 7.7118 63.0819 7.50001 62.7536C7.46411 62.7031 7.37437 62.5769 7.29898 62.4795C7.24097 62.4128 7.19373 62.3373 7.15898 62.2558C7.12566 62.1829 7.0808 62.1159 7.02616 62.0574C6.95078 61.9709 6.91129 61.9023 6.93642 61.9023C6.96155 61.9023 6.95437 61.9023 6.93642 61.8626C6.66656 61.4954 6.42647 61.107 6.21847 60.7011C6.21937 60.6864 6.21654 60.6718 6.21026 60.6586C6.20398 60.6453 6.19445 60.6339 6.18257 60.6253C6.0603 60.4863 5.95983 60.3294 5.88462 60.16C5.84644 60.0583 5.7945 59.9624 5.73026 59.875C5.62975 59.7199 5.56873 59.5936 5.59026 59.5936C5.6118 59.5936 5.59026 59.5756 5.56873 59.554C5.54719 59.5323 4.57796 57.707 4.35539 57.184C4.28001 57.0036 4.1436 56.7006 4.05744 56.5202C3.97129 56.3399 3.8959 56.1595 3.89231 56.1595C3.88873 56.1595 3.86001 56.0693 3.8277 55.9899C3.80109 55.9309 3.78063 55.8693 3.76667 55.806C3.73476 55.7068 3.69515 55.6103 3.64821 55.5174C3.58824 55.3931 3.5355 55.2654 3.49026 55.135C3.45596 55.0309 3.41642 54.9285 3.3718 54.8284C3.33601 54.7534 3.30484 54.6763 3.27847 54.5975C3.27847 54.5687 3.1959 54.3486 3.10616 54.1105C2.8836 53.5117 2.54257 52.4728 2.54257 52.3863C2.53742 52.3297 2.52158 52.2746 2.4959 52.2239C2.38022 51.9108 2.28547 51.5902 2.21231 51.2644C2.21231 51.2067 2.15847 51.0407 2.11898 50.9037L2.03642 50.6078C2.03642 50.6078 2.03642 50.5537 2.01129 50.5213C1.98616 50.4888 1.94308 50.2255 1.88206 49.9441C1.82103 49.6627 1.74924 49.3597 1.7277 49.2768C1.70616 49.1938 1.65231 48.9593 1.59847 48.6347C1.59847 48.5914 1.55898 48.4218 1.52667 48.2523C1.45129 47.8519 1.44411 47.8086 1.37232 47.3541C1.34001 47.1412 1.30411 46.9248 1.29693 46.8671C1.29693 46.7516 1.16411 45.8606 1.14257 45.6622C0.982487 44.2493 0.914138 42.8274 0.937956 41.4056C0.914815 39.9851 0.98196 38.5645 1.13898 37.1526C1.13898 37.0552 1.18924 36.7666 1.22155 36.5105C1.28616 36.0127 1.28616 36.0055 1.36873 35.5113C1.39744 35.3273 1.43334 35.1109 1.44411 35.0243C1.47283 34.8295 1.56616 34.3028 1.60206 34.1297C1.60206 34.0575 1.65231 33.8952 1.67744 33.769C1.70257 33.6427 1.76001 33.4082 1.79949 33.2315C1.83898 33.0547 1.90719 32.7517 1.95744 32.5389L2.05437 32.1024C2.05437 32.0735 2.08667 31.9833 2.10462 31.8968C2.12257 31.8102 2.16206 31.6875 2.18719 31.6154C2.21231 31.5432 2.26616 31.3629 2.30924 31.2078C2.51385 30.4647 2.60719 30.1472 2.64308 30.0534C2.67898 29.9596 2.74001 29.7757 2.80103 29.5664C2.84121 29.4179 2.89406 29.273 2.95898 29.1336C2.98649 29.0959 3.00156 29.0504 3.00206 29.0037C3.01402 28.9264 3.03955 28.8519 3.07744 28.7837C3.12771 28.6808 3.16394 28.5716 3.18514 28.459C3.19368 28.3848 3.22086 28.3141 3.26411 28.2534C3.27833 28.2416 3.28962 28.2267 3.2971 28.2098C3.30458 28.1929 3.30803 28.1745 3.30719 28.156C3.31753 28.0825 3.33807 28.0109 3.36821 27.9432C3.40052 27.8638 3.43283 27.7844 3.43642 27.77C3.44001 27.7556 3.47231 27.6798 3.50462 27.6005C3.52843 27.5465 3.54881 27.4911 3.56565 27.4345C3.59281 27.352 3.62518 27.2712 3.66257 27.1928C3.71642 27.0738 3.82052 26.8321 3.89231 26.6553C3.96411 26.4786 4.09334 26.1828 4.1759 26.0024C4.25847 25.8221 4.33385 25.6417 4.34103 25.6417C4.36616 25.5515 5.35334 23.6108 5.41796 23.5458C5.48257 23.4809 5.46103 23.4773 5.44667 23.4773C5.49727 23.3366 5.56607 23.2032 5.65129 23.0805C5.97437 22.5286 6.16821 22.1895 6.23642 22.0524C6.26873 21.9911 6.31539 21.937 6.34052 21.937C6.36565 21.937 6.37283 21.9153 6.34052 21.8865C6.30821 21.8576 6.34052 21.836 6.36206 21.836C6.3836 21.836 6.41591 21.7999 6.41591 21.7602C6.41591 21.7205 6.44103 21.6809 6.46975 21.6809C6.49847 21.6809 6.51283 21.6809 6.49847 21.6376C6.48411 21.5943 6.51642 21.5474 6.57385 21.4861C6.61514 21.4475 6.64812 21.4009 6.67078 21.349C6.67078 21.2949 7.94155 19.4083 8.08873 19.2423C8.17562 19.138 8.25595 19.0284 8.32924 18.9141C8.41539 18.7878 8.52308 18.6399 8.57334 18.5822C8.6236 18.5245 8.77796 18.3297 8.93231 18.1457C9.21949 17.785 9.23026 17.7597 9.51744 17.4026C9.62873 17.2619 9.75437 17.1104 9.79744 17.0671C9.84052 17.0238 10.1313 16.7064 10.5908 16.1545C10.8062 15.8984 13.0462 13.6294 13.2939 13.4274C14.0118 12.8069 14.1626 12.677 14.2344 12.6085C14.3062 12.54 14.4282 12.4389 14.5682 12.3271C14.7082 12.2153 14.8339 12.1107 14.8482 12.0926C14.8626 12.0746 15.6559 11.4578 15.8426 11.3171L16.3272 10.9563C16.5677 10.776 16.9339 10.5163 17.1385 10.3756L18.3482 9.57114C18.5959 9.40521 18.8328 9.25731 18.8759 9.23927C18.9147 9.22689 18.9503 9.20594 18.98 9.17794C19.2039 9.01525 19.4446 8.87737 19.698 8.76671C19.705 8.7672 19.7121 8.76628 19.7189 8.76401C19.7256 8.76173 19.7318 8.75814 19.7371 8.75345C19.7425 8.74876 19.7468 8.74305 19.7499 8.73666C19.7531 8.73027 19.7549 8.72332 19.7554 8.71621C19.7558 8.7091 19.7577 8.70215 19.7608 8.69576C19.764 8.68937 19.7683 8.68366 19.7737 8.67897C19.779 8.67428 19.7852 8.67069 19.7919 8.66841C19.7987 8.66614 19.8058 8.66522 19.8128 8.66571C19.9608 8.60634 20.1027 8.53265 20.2364 8.44566C20.7103 8.15708 23.4995 6.76826 23.6036 6.76826C23.7258 6.72539 23.8456 6.67602 23.9626 6.62037C24.1421 6.541 24.4005 6.43279 24.5405 6.37868C24.6805 6.32457 24.8528 6.25603 24.9246 6.21995C24.9904 6.18488 25.0623 6.16284 25.1364 6.15502C25.1582 6.15616 25.1799 6.15218 25.1998 6.14342C25.2197 6.13465 25.2374 6.12133 25.2513 6.10452C25.3085 6.06192 25.3749 6.03349 25.4451 6.02155C25.5277 6.00484 25.6083 5.97945 25.6856 5.9458C25.7287 5.92415 25.9154 5.85562 26.0949 5.79429C26.2744 5.73297 26.4754 5.66443 26.5292 5.63918C26.5831 5.61393 26.8882 5.51292 27.2472 5.40831C27.6062 5.3037 27.9185 5.19909 27.9867 5.17744C28.0549 5.1558 28.2056 5.1089 28.3205 5.08005L28.8303 4.94657C31.2337 4.30656 33.6936 3.90423 36.1749 3.74534C37.0005 3.68763 41.021 3.7237 41.5308 3.79224M43.7169 4.14575C43.7708 4.30087 43.6882 4.50648 43.5662 4.50648C43.4441 4.50648 43.4764 4.29726 43.5267 4.14575C43.5769 3.99425 43.6487 3.95457 43.7169 4.14575ZM44.6215 4.11689L44.8872 4.14936L44.7364 4.29726C44.6841 4.35367 44.625 4.40334 44.5605 4.44516C44.4406 4.40652 44.3329 4.33685 44.2482 4.24315C44.119 4.07721 44.1585 4.06279 44.6072 4.11689M49.098 9.16712C49.2487 9.2537 49.2703 9.28616 49.1985 9.29699C49.0298 9.33306 48.861 9.26091 48.861 9.15269C48.861 9.04447 48.861 9.02644 49.098 9.15269M53.6533 10.6858C53.6315 10.7811 53.5978 10.8732 53.5528 10.96C53.4164 11.2485 53.4236 11.2954 53.6749 11.6309C54.1021 12.2045 54.6262 12.5508 54.6262 12.2586C54.6073 12.0193 54.5516 11.7845 54.461 11.5624C54.4481 11.5472 54.4395 11.5287 54.4363 11.509C54.4332 11.4893 54.4355 11.469 54.4431 11.4505C54.4754 11.4 54.4108 11.2377 54.3103 11.1151C53.98 10.7074 53.6569 10.4946 53.6533 10.6858ZM52.2174 12.9656C53.9513 13.8242 54.041 13.8927 54.0985 14.441C54.1131 14.607 54.1432 14.7712 54.1882 14.9316C54.2385 15.0759 54.2313 15.1084 54.1092 15.231C53.9872 15.3537 53.9441 15.4907 54.0267 15.6386C54.2452 16.0909 54.416 16.5648 54.5364 17.0527C54.5065 17.1863 54.4344 17.3066 54.3309 17.3957C54.2274 17.4847 54.098 17.5378 53.9621 17.5469C53.7431 17.5469 53.6497 17.3774 53.6031 16.8795C53.5205 16.1581 53.298 15.8551 52.799 15.8551C52.6342 15.8619 52.4729 15.8066 52.3467 15.7C52.2718 15.6392 52.1856 15.5941 52.0931 15.5675C52.0006 15.5408 51.9037 15.5331 51.8082 15.5448C51.6528 15.5585 51.4965 15.5298 51.3559 15.4619C51.2026 15.3955 51.0382 15.3588 50.8713 15.3537C50.7399 15.354 50.6096 15.3295 50.4872 15.2815C50.4872 15.2563 50.62 15.2526 50.8282 15.2815C51.1872 15.3176 51.1872 15.314 51.1692 15.2058C51.1513 15.0975 51.1692 15.0975 51.3092 15.0975C51.5605 15.0975 51.6287 15.0542 51.6933 14.8558C51.758 14.6574 51.7257 14.5925 51.4205 14.8053C51.1154 15.0182 51.0615 15.0254 51.0615 14.928C51.0411 14.8346 51.0072 14.7447 50.961 14.6611C50.821 14.3653 50.8318 14.3003 51.1046 14.12L51.3451 13.9432H51.0651C50.7062 13.9216 50.6559 13.8711 50.6559 13.5825C50.6559 13.3732 50.6774 13.3191 50.7959 13.2217C50.9144 13.1243 50.9323 13.1063 50.8785 12.962C50.8246 12.8177 50.8246 12.7997 50.9933 12.7275C51.0867 12.6879 51.1656 12.6193 51.1656 12.576C51.1656 12.475 51.1656 12.4822 52.2139 12.9909M52.2139 14.9244C51.8118 15.0615 51.8118 15.0579 52.3431 15.314L52.878 15.5737C53.0467 15.6675 53.0754 15.6314 53.0431 15.3789C52.9569 14.7476 52.8672 14.6971 52.2139 14.9244ZM56.2451 15.35C56.5297 15.532 56.8041 15.7295 57.0672 15.9416C57.1651 16.0252 57.2682 16.1023 57.3759 16.1725C57.4908 16.2519 57.5949 16.3276 57.6092 16.3421L57.9897 16.6487C58.3056 16.8976 58.5139 17.0671 58.7077 17.2367C58.7364 17.2655 58.9123 17.417 59.0918 17.5721C60.5431 18.8473 61.8756 20.2527 63.0728 21.7711C63.3098 22.0632 63.3097 22.0632 63.1159 22.1318C62.6385 22.2833 62.1036 22.2039 62.1036 21.9839C62.1036 21.9153 61.8846 21.8179 61.2636 21.6231C60.9549 21.5185 60.6569 21.4139 60.5995 21.3887L60.0395 21.1542C59.7846 21.0496 59.5585 20.945 59.5298 20.9269C59.501 20.9089 59.2821 20.7863 59.0451 20.66L58.2518 20.2235C57.8928 20.0359 57.5841 19.9674 57.6846 20.1009C57.7851 20.2343 57.8067 20.3426 57.6092 20.256C56.8698 19.9385 56.8015 19.852 56.701 19.1125C56.6328 18.6002 56.2487 16.3312 56.1374 15.7829C56.0441 15.3104 56.0118 15.2671 55.7174 15.2635C55.5092 15.2635 55.4949 15.2635 55.5954 15.2058C55.6959 15.148 55.7103 15.13 55.7103 15.1047C55.7103 15.0146 55.8323 15.0723 56.2344 15.3537M56.8841 19.2099C56.8991 19.2772 56.9245 19.3417 56.9595 19.4011C56.9989 19.4703 57.0257 19.546 57.0385 19.6247C57.034 19.6907 57.0478 19.7567 57.0782 19.8154C57.1085 19.8741 57.1544 19.9233 57.2108 19.9576C57.2671 19.9918 57.3317 20.0099 57.3976 20.0097C57.4634 20.0095 57.528 19.9911 57.5841 19.9566L57.7169 19.8628L57.5195 19.6824L57.1318 19.3217C56.9344 19.1413 56.8877 19.1161 56.8877 19.1954M14.8626 31.5432C14.8457 31.5495 14.8309 31.5601 14.8195 31.5741C14.8081 31.588 14.8007 31.6048 14.798 31.6226C14.7836 31.6969 14.7581 31.7687 14.7226 31.8354C14.3636 32.6471 14.2344 33.1124 14.4174 33.0908C14.5359 33.0908 14.5754 33.0042 14.8051 32.409C15.1641 31.4747 15.1641 31.4206 14.8626 31.5432ZM22.8174 31.6298C22.7725 31.6726 22.7349 31.7226 22.7062 31.7777C22.6484 31.9022 22.5825 32.0228 22.5087 32.1384C22.3113 32.4631 21.9918 33.0511 21.9918 33.0836C21.9918 33.2026 22.2539 33.0836 22.3508 32.9104C22.4046 32.8058 22.5015 32.6254 22.5662 32.5136C22.6308 32.4018 22.7421 32.2034 22.8103 32.0771C22.8785 31.9509 22.979 31.7885 23.0328 31.7164C23.1836 31.5 23.0328 31.435 22.8318 31.637M47.7374 31.5613C47.8116 31.6058 47.8953 31.6318 47.9815 31.637C48.3405 31.6875 48.6385 31.8715 49.1446 32.3585C49.3625 32.5859 49.6031 32.7902 49.8626 32.9681L50.1139 33.1016H61.7087L61.8523 32.7661C61.9923 32.4379 62.0856 32.3441 62.0856 32.528C62.0846 32.5756 62.0984 32.6223 62.1251 32.6615C62.1668 32.7307 62.1971 32.8063 62.2149 32.8852C62.2615 33.0475 62.2903 33.0763 62.4303 33.0908C62.5703 33.1052 62.6062 33.0439 62.4303 32.6651C62.2257 32.1926 62.179 31.9725 62.2795 31.9725C62.3082 31.9725 62.3298 31.9364 62.3298 31.8932C62.3298 31.8499 62.301 31.821 62.2292 31.8426C62.1574 31.8643 62.1144 31.8426 62.0749 31.7344C62.0503 31.6655 62.0111 31.6027 61.96 31.5505C61.8703 31.4963 47.6764 31.5 47.7123 31.5505M13.6887 34.9666C13.6887 35.0099 13.6528 35.0856 13.6349 35.1325C13.6169 35.1794 13.5739 35.385 13.5308 35.5834C13.4877 35.7818 13.4374 36.0271 13.4159 36.1353C13.3728 36.3193 13.3764 36.3265 13.52 36.3265C13.6636 36.3265 13.6708 36.2977 13.6923 36.1858C13.7139 36.074 13.7785 35.8251 13.8467 35.5329C13.9149 35.2407 13.9723 34.9882 13.9723 34.9558C13.9723 34.862 13.7174 34.8764 13.6887 34.9558M21.1626 34.9738C21.1631 35.024 21.1481 35.0732 21.1195 35.1145C20.942 35.5541 20.7968 36.0062 20.6851 36.4672C20.5579 36.8491 20.4784 37.2453 20.4482 37.6468C20.4482 37.7911 20.4267 37.9029 20.3908 37.9174C20.2795 37.9534 20.1108 39.3927 20.0641 40.7202C20.0183 42.0711 20.1158 43.4231 20.3549 44.7532C20.4769 45.352 20.6277 46.023 20.6636 46.1384C20.6995 46.2538 20.7569 46.4414 20.818 46.6506C20.9961 47.2725 21.2107 47.8832 21.4605 48.4795L21.7836 49.201C21.8949 49.4463 22.0851 49.8251 22.2072 50.0487L22.5374 50.6331C22.5702 50.7052 22.6152 50.7711 22.6703 50.8279C22.6822 50.8348 22.6922 50.8448 22.6991 50.8569C22.7061 50.8689 22.7097 50.8825 22.7098 50.8964C22.7098 50.9397 23.4528 52.0868 23.5928 52.2564L23.7041 52.3899C23.7328 52.4223 23.8154 52.5305 23.8836 52.6315C24.0082 52.8105 24.1436 52.9816 24.2892 53.1438L24.6482 53.555C25.0862 54.0673 25.3195 54.2765 25.3662 54.2224C25.4128 54.1683 25.3662 54.024 24.9856 53.5983C24.799 53.3891 24.5836 53.1402 24.5046 53.0428C24.4256 52.9454 24.3431 52.8516 24.3287 52.8372C23.755 52.1064 23.2274 51.3401 22.7492 50.5429C22.7177 50.4618 22.6755 50.3854 22.6236 50.3157C22.3014 49.7549 22.0126 49.1755 21.7585 48.5805C21.6831 48.3966 21.5862 48.1729 21.5431 48.0791C21.4677 47.9096 21.1482 46.9969 21.001 46.5063C20.3102 44.1103 20.1063 41.5991 20.4015 39.1222C20.5464 37.8651 20.8318 36.6284 21.2523 35.4355C21.3456 35.1578 21.4246 34.9197 21.4246 34.9125C21.4246 34.9053 21.3636 34.9125 21.2954 34.9125C21.2272 34.9125 21.1662 34.9413 21.1662 35.0063M52.7954 34.9233C52.7954 34.9233 52.8421 35.0892 52.8959 35.284C53.036 35.866 53.036 36.4732 52.8959 37.0552C52.8385 37.2789 52.7703 37.5674 52.738 37.6937C52.7239 37.7839 52.6935 37.8707 52.6482 37.9498C52.564 38.0657 52.4861 38.1862 52.4149 38.3105C52.3373 38.4491 52.2497 38.5817 52.1528 38.7074C52.0574 38.8545 51.9734 39.0089 51.9015 39.1691C51.6604 39.6788 51.3445 40.1494 50.9646 40.5651L50.6595 40.897V41.283C50.6595 41.9215 50.6954 42.0658 50.8533 42.0261C50.9017 42.0204 50.9484 42.0049 50.9906 41.9805C51.0328 41.9561 51.0697 41.9234 51.0989 41.8842C51.1281 41.8451 51.1491 41.8004 51.1606 41.7528C51.172 41.7053 51.1738 41.6559 51.1656 41.6076C51.1656 41.4164 51.1657 41.384 51.2733 41.384C51.381 41.384 51.3774 41.402 51.3451 41.77C51.2841 42.4229 51.5031 42.596 52.038 42.3219C52.4974 42.0874 52.8672 42.2461 52.9282 42.7079C53.0144 43.3247 53.1256 43.5375 53.359 43.5375C53.718 43.5375 55.6959 42.3471 56.3456 41.7339L56.5503 41.5427V41.7195C56.5318 42.6738 56.4406 43.6253 56.2774 44.5656C56.0707 45.6949 55.7631 46.8033 55.3585 47.8771C55.3242 47.947 55.2989 48.0209 55.2831 48.0972C55.277 48.1479 55.2611 48.1969 55.2364 48.2415C55.2077 48.292 55.1359 48.4471 55.0749 48.6022C54.2626 50.4805 53.144 52.2093 51.7651 53.7174C51.4062 54.0781 51.4062 54.1178 51.4421 54.2621C51.478 54.4063 51.478 54.3739 51.6503 54.1827L52.0631 53.7282C52.8408 52.8653 53.5355 51.9305 54.138 50.9361C54.8566 49.7217 55.4415 48.4323 55.8826 47.0907C56.1751 46.1592 56.4018 45.2081 56.561 44.2446C56.6663 43.5663 56.7275 42.8819 56.7441 42.1956L56.78 41.2721L57.0277 40.9114C57.1312 40.7633 57.2259 40.6091 57.3113 40.4497C57.3526 40.3561 57.4006 40.2657 57.4549 40.1791C57.5159 40.0817 57.7528 39.6344 57.9862 39.1835C58.2195 38.7326 58.4492 38.3033 58.5031 38.2276C58.679 37.9787 58.6754 37.9751 57.4764 37.9751H56.3564V36.3879H58.2267H60.0969L60.1723 36.1137C60.2557 35.852 60.4128 35.6202 60.6246 35.4463C60.7564 35.3139 60.8765 35.1703 60.9836 35.0171C60.9836 34.9954 59.1349 34.9774 56.8769 34.9774C54.619 34.9774 52.7703 34.9774 52.7703 34.9774M62.8431 35.1073C62.879 35.2516 62.9939 35.7602 63.0764 36.1209C63.096 36.2006 63.1116 36.2813 63.1231 36.3626C63.1231 36.3842 63.1949 36.4023 63.281 36.4023C63.3672 36.4023 63.4318 36.3842 63.4103 36.3121C63.3887 36.24 63.1877 35.349 63.141 35.1073C63.1195 34.9918 63.0872 34.9666 62.9615 34.9666C62.8359 34.9666 62.8108 34.9666 62.8431 35.1073ZM63.421 37.3041C63.421 37.6973 63.421 38.1446 63.439 38.2997C63.7248 40.7816 63.6632 43.2914 63.2559 45.756C63.1339 46.4775 63.0764 46.7661 63.0262 46.9609C63.001 47.0619 62.9292 47.3505 62.8718 47.603C62.8144 47.8555 62.7426 48.1224 62.7174 48.191C62.6923 48.2595 62.6241 48.494 62.5631 48.7032C62.4087 49.2479 62.1646 49.9802 62.0677 50.193C61.9725 50.4822 61.9371 50.7878 61.9636 51.0912C61.9995 51.2752 62.6815 49.4499 62.9508 48.4218C63.2021 47.4875 63.2415 47.318 63.4569 46.2574C63.9361 43.6106 64.0232 40.9072 63.7154 38.2348C63.6257 37.5133 63.4857 36.6332 63.4569 36.6043C63.4322 36.8331 63.4202 37.0631 63.421 37.2933M13.2472 37.0047C13.2113 37.2175 13.161 37.5169 13.1323 37.6721C12.6728 40.2405 12.8236 44.0498 13.4913 47.1557C13.7749 48.4399 14.6651 51.1742 14.7656 51.0696C14.8662 50.965 14.7082 50.0379 14.5036 49.6663C14.4665 49.5844 14.4388 49.4985 14.421 49.4102C14.4026 49.3238 14.3762 49.2392 14.3421 49.1577C14.3421 49.1144 14.2703 48.9521 14.2236 48.797C14.1769 48.6419 14.1087 48.4002 14.0656 48.2595C14.0226 48.1188 13.9651 47.8988 13.9328 47.7725C13.7677 47.0907 13.7246 46.8923 13.6564 46.5424C13.6133 46.3296 13.5595 46.0518 13.5344 45.9256C13.4374 45.4566 13.2974 44.3708 13.2185 43.5159C13.1862 43.1912 13.161 42.2353 13.161 41.3876C13.1419 40.386 13.1923 39.3844 13.3118 38.3899C13.3313 38.0403 13.3313 37.6898 13.3118 37.3402L13.2867 36.6187L13.2221 37.0011M41.94 37.1274C41.94 37.1851 41.9903 37.2067 42.1087 37.2031C42.2272 37.1995 42.238 37.2031 42.1949 37.1706C42.1518 37.1382 42.08 37.1201 42.0298 37.0949C41.9795 37.0696 41.94 37.0696 41.94 37.1274ZM39.718 38.26C39.718 38.4512 39.8256 39.923 39.9226 41.5283C40.0195 43.1335 40.1236 44.8073 40.1523 45.2438C40.181 45.6803 40.2492 46.8021 40.3067 47.7328C40.3641 48.6635 40.4287 49.7818 40.4574 50.2183C40.5221 51.2103 40.5903 52.3069 40.6908 53.9735C40.8667 56.899 40.8308 56.6465 41.0677 56.6934C41.1945 56.7298 41.3155 56.7844 41.4267 56.8557C41.6112 56.9588 41.8243 56.998 42.0332 56.9674C42.242 56.9368 42.4351 56.8379 42.5826 56.6862C42.8733 56.4084 43.0133 55.9647 42.8626 55.7879C42.4732 55.5191 42.0335 55.3326 41.5703 55.2396C40.8918 55.2396 40.7303 53.2664 41.3549 52.6568C41.6618 52.3894 42.0162 52.1826 42.3995 52.0472C43.0722 51.7201 43.6487 51.2229 44.0723 50.6042C44.3157 50.1218 44.5337 49.627 44.7256 49.1216C44.9051 48.5878 45.1528 48.3136 45.4436 48.3136C45.5333 48.3136 45.6267 48.209 45.9103 47.8014C46.0823 47.5593 46.2731 47.3313 46.481 47.1196C46.6107 46.9891 46.7196 46.8395 46.8041 46.6759C46.905 46.3765 47.0529 46.0952 47.2421 45.8426C47.4144 45.6226 47.4036 45.7163 47.5328 43.6241C47.5723 42.964 47.5687 42.9026 47.4826 42.7836C47.3964 42.6646 47.3641 42.5131 47.5041 42.2497C47.5941 42.0578 47.6419 41.8486 47.6441 41.6365C47.6728 41.1964 47.6657 41.1856 47.3533 41.3154C47.1487 41.402 46.9477 41.4237 47.0805 41.3443C47.1977 41.2945 47.3176 41.2511 47.4395 41.2144L47.7015 41.1279L47.7374 40.4966C47.7733 39.8978 47.7698 39.8617 47.6656 39.7751C47.6172 39.7306 47.5802 39.6749 47.558 39.6128C47.558 39.5226 47.461 39.5587 47.1774 39.7499C46.8939 39.941 46.84 40.006 47.0446 40.0926C47.2492 40.1791 47.1739 40.3054 46.9262 40.3126C46.7682 40.3126 46.7574 40.3126 46.8077 40.2224C46.858 40.1322 46.8364 40.0601 46.6857 40.1178C46.0287 40.3631 46.0682 40.1972 46.7682 39.7823C46.9797 39.672 47.1763 39.535 47.3533 39.3747C47.3533 39.2412 47.1487 39.2521 46.8328 39.4C46.7264 39.4586 46.613 39.5034 46.4954 39.5334C46.5615 39.3394 46.6611 39.1587 46.7898 38.9995C47.1487 38.5342 47.1487 37.7406 46.7898 38.1482C46.6874 38.2569 46.5744 38.3548 46.4523 38.4404C46.3004 38.521 46.1761 38.6456 46.0955 38.798C46.0148 38.9505 45.9816 39.1237 46 39.2953V39.6561L45.7092 39.9555C45.4292 40.2368 45.4041 40.2513 45.2031 40.2296C45.1401 40.2114 45.0733 40.2108 45.0101 40.228C44.9468 40.2452 44.8894 40.2794 44.8441 40.327C44.6769 40.4508 44.4991 40.5594 44.3128 40.6517C44.0466 40.7761 43.8121 40.96 43.6272 41.1892C43.2 41.6834 43.2215 41.6762 42.981 41.4273C42.3923 40.8212 42.1769 40.0962 42.4785 39.739C42.78 39.3819 42.3385 38.3935 41.9472 38.6136C41.66 38.7723 41.4446 38.8011 41.301 38.7074C41.0611 38.5383 40.8673 38.3113 40.7374 38.0472L40.7051 37.9065H39.6928L39.718 38.2673M46.5169 40.8826C46.5262 40.9788 46.5101 41.0759 46.4703 41.1639C46.4056 41.283 46.3374 41.1026 46.3267 40.7779C46.3267 40.6012 46.5026 40.7022 46.5169 40.8826ZM36.5087 43.5447C36.1611 43.9181 35.6847 44.1439 35.1769 44.176C34.8467 44.176 34.6564 44.3925 34.6492 44.7748C34.6263 44.9611 34.5742 45.1425 34.4949 45.3123C34.4159 45.4927 34.3082 45.7524 34.2615 45.8931L34.1323 46.2538C34.0138 46.5313 33.9341 46.8238 33.8954 47.1232C33.8881 47.2462 33.8639 47.3676 33.8236 47.4839C33.8021 47.5092 33.6728 47.7545 33.5328 48.0214C33.1836 48.7672 32.7156 49.4508 32.1472 50.0451C31.2318 51.0335 30.8908 51.2968 30.1118 51.6431L29.7923 51.7838L29.821 52.1193C29.821 52.3033 29.8821 53.032 29.9251 53.7354C29.9682 54.4388 30.0221 55.3515 30.0508 55.7627C30.0795 56.1739 30.1477 57.3463 30.2051 58.3744C30.2626 59.4025 30.3236 60.3223 30.338 60.4125L30.3631 60.5784H33.5077L33.6405 60.3764C33.7017 60.2943 33.7468 60.2013 33.7733 60.1023C33.8319 59.8876 33.9319 59.6866 34.0677 59.5107C34.2113 59.3195 34.179 59.3231 34.9221 59.4746C35.6651 59.6261 35.8159 59.6333 35.8159 59.5215C35.8159 59.4097 35.7405 59.4097 35.2918 59.3303C34.678 59.2221 34.5272 59.1824 34.5092 59.1175C34.4913 59.0526 35.0764 58.5764 35.4713 58.396C35.9344 58.1724 35.8913 58.3022 35.9703 56.9531C35.999 56.4337 36.0564 55.4633 36.0995 54.7887C36.1426 54.1142 36.2072 53.0284 36.2503 52.3538C36.2933 51.6792 36.3615 50.5501 36.401 49.8647C36.5267 47.8194 36.6236 46.2827 36.7098 44.9191C36.7564 44.2157 36.7851 43.5556 36.778 43.4546V43.2706L36.5267 43.5447M25.1221 55.1603C25.0503 55.1963 24.8564 55.2793 24.6877 55.3478C24.1457 55.5975 23.6319 55.9047 23.1549 56.2641C21.8913 57.1551 21.6939 57.285 21.5072 57.3463C21.4594 57.3688 21.4074 57.3805 21.3546 57.3805C21.3019 57.3805 21.2498 57.3688 21.2021 57.3463C20.9472 57.2092 20.38 57.3102 19.7662 57.6024L19.4467 57.7575V57.9956C19.4467 58.1291 19.479 58.7171 19.5221 59.3123C19.5651 59.9075 19.5974 60.4305 19.5974 60.481C19.5974 60.5316 19.759 60.5676 22.2933 60.5676H24.9856L25.0754 59.1716C25.1256 58.4032 25.1974 57.2814 25.2369 56.6789C25.3195 55.438 25.3267 55.0845 25.2728 55.0845C25.2149 55.0979 25.1593 55.1198 25.1077 55.1495M46.4021 57.7395C46.2872 57.8008 45.9103 57.974 45.5585 58.1219L44.819 58.4357C44.5821 58.5403 43.4226 58.9047 42.9415 59.0237L42.2236 59.2005C42.1267 59.2257 41.8108 59.287 41.5236 59.3375C41.0749 59.4169 40.9995 59.4421 40.9995 59.5287C40.9995 59.6153 41.1395 59.6333 41.8682 59.489C42.4208 59.395 42.9665 59.2636 43.5015 59.0958C44.3475 58.8434 45.1771 58.5386 45.9857 58.1832C46.0359 58.1543 46.1903 58.0786 46.3446 58.0136C46.6246 57.8838 46.6749 57.8369 46.6785 57.7034C46.6821 57.5699 46.6533 57.5952 46.3985 57.7395M56.8303 58.6846C56.5359 59.0093 55.9903 59.5504 55.6241 59.8895C54.9492 60.5135 54.881 60.6109 55.2185 60.5676C55.4374 60.5243 57.3077 58.7026 57.3723 58.4754C57.48 58.0461 57.3903 58.0822 56.8374 58.6846M12.3246 67.7642C12.1379 67.8569 11.9281 67.8921 11.7215 67.8652C11.6785 67.8255 11.7898 67.7967 12.3246 67.7209C12.3533 67.7209 12.3533 67.7209 12.3246 67.7642ZM16.6072 73.3988C16.3056 73.5828 16.1836 73.9147 16.3595 74.0878C16.457 74.2143 16.5099 74.3697 16.5099 74.5297C16.5099 74.6897 16.457 74.8451 16.3595 74.9716C16.308 75.0536 16.2749 75.146 16.2626 75.2421C16.2626 75.3251 16.2051 75.3792 16.04 75.4514C15.778 75.5632 15.6523 75.7219 15.6523 75.9384C15.6523 76.0826 15.559 76.2197 15.3221 76.4181C15.2878 76.4555 15.2624 76.5001 15.2476 76.5486C15.2328 76.5972 15.2291 76.6485 15.2367 76.6987C15.2442 76.7489 15.2629 76.7968 15.2914 76.8387C15.3198 76.8807 15.3573 76.9157 15.401 76.9412C15.5446 77.0025 15.5841 76.9953 15.8713 76.8366C16.2075 76.6275 16.5696 76.4638 16.9482 76.3496C17.3133 76.2587 17.6729 76.1467 18.0251 76.0141C18.0941 75.9791 18.1679 75.9548 18.2441 75.942C18.6318 75.859 18.8256 75.6895 18.8903 75.372L18.9226 75.2169L18.3985 74.9932C17.7128 74.7047 17.6805 74.683 18.1939 74.683C18.578 74.683 18.6139 74.683 18.6139 74.582C18.6139 74.481 18.6139 74.481 18.5744 74.481C18.2986 74.2989 18.0557 74.0707 17.8564 73.8064C17.7992 73.6953 17.7207 73.5966 17.6255 73.516C17.5303 73.4353 17.4202 73.3744 17.3015 73.3365C17.1828 73.2986 17.0579 73.2847 16.9338 73.2954C16.8098 73.306 16.689 73.3412 16.5785 73.3988" fill="#D3D3D3"/>
<path fill-rule="evenodd" clip-rule="evenodd" d="M38.1818 20.4652C38.1818 20.5049 38.1316 20.5265 38.1028 20.5121C38.0741 20.4976 38.0239 20.5121 37.9808 20.5409C37.9377 20.5698 37.909 20.5878 37.909 20.5662C37.909 20.5445 37.8767 20.5662 37.8372 20.5878C37.7806 20.6268 37.7173 20.6549 37.6505 20.6708C37.5768 20.6868 37.5079 20.7202 37.4495 20.7682C37.3856 20.8177 37.3076 20.8455 37.2269 20.8475C37.1516 20.8475 37.0905 20.8692 37.0905 20.8944C37.0905 20.9197 36.8464 21.0243 36.7316 21.0099C36.6957 21.0099 36.6669 21.0099 36.6669 21.0496C36.6669 21.0892 36.6275 21.1037 36.5808 21.1073C36.5119 21.1154 36.4463 21.1416 36.3905 21.183C36.3414 21.222 36.2834 21.248 36.2218 21.2588C36.1148 21.2835 36.0112 21.321 35.9131 21.3706C35.8255 21.4165 35.7327 21.4516 35.6367 21.4752C35.6151 21.4752 35.5972 21.4752 35.5972 21.5149C35.5972 21.5546 35.5541 21.5654 35.5003 21.5654C35.4758 21.5636 35.4513 21.5672 35.4283 21.5759C35.4054 21.5846 35.3846 21.5983 35.3675 21.6159C35.3525 21.6273 35.3342 21.6335 35.3154 21.6335C35.2966 21.6335 35.2783 21.6273 35.2633 21.6159C35.2239 21.6159 35.188 21.6159 35.188 21.6159C35.188 21.6159 35.0695 21.7061 34.9223 21.7566C34.8127 21.7932 34.706 21.8378 34.6028 21.8901C34.5466 21.9231 34.4862 21.9486 34.4234 21.9658C34.3281 21.9937 34.2346 22.0275 34.1434 22.0668C33.8849 22.1786 33.7844 22.2147 33.7485 22.2039C33.7126 22.1931 33.709 22.2039 33.709 22.2472C33.709 22.2905 33.6623 22.2977 33.6085 22.2977C33.5546 22.2977 33.5044 22.3229 33.5044 22.3554C33.5044 22.3879 33.4613 22.4023 33.4039 22.3879C33.3464 22.3734 33.3034 22.3879 33.3034 22.3879C33.3034 22.3879 33.2603 22.442 33.0736 22.4889C33.0291 22.5056 32.9878 22.53 32.9516 22.561C32.7821 22.6589 32.5996 22.7318 32.4095 22.7775C32.3393 22.7938 32.2708 22.8167 32.2049 22.846C31.8391 23.0276 31.4627 23.1866 31.0777 23.3222C30.9409 23.3591 30.8102 23.4163 30.69 23.4917C30.6505 23.5458 30.629 23.553 30.4423 23.5638C30.3813 23.5638 30.3526 23.5927 30.3705 23.6252C30.3885 23.6576 30.3705 23.6721 30.3346 23.6649C30.2486 23.6698 30.1644 23.6918 30.0869 23.7298C29.7926 23.8633 29.4551 24.0039 29.4264 24.0075C29.3809 24.0207 29.3374 24.0401 29.2972 24.0653C29.2156 24.104 29.1301 24.1343 29.0423 24.1554C28.9748 24.1677 28.9117 24.1975 28.8592 24.242C28.816 24.2829 28.7604 24.3083 28.7013 24.3142C28.6053 24.3361 28.5125 24.37 28.4249 24.4152C28.3515 24.4554 28.271 24.4811 28.188 24.4909C28.1377 24.4909 28.0982 24.5162 28.0982 24.545C28.0982 24.5739 28.0623 24.5955 28.0228 24.5955C27.9636 24.5999 27.906 24.6171 27.8541 24.646C27.7182 24.7153 27.5779 24.7755 27.4341 24.8264L27.2582 24.9022L27.0644 24.9815L27.0034 25.0068H26.9387C26.8517 25.0445 26.7667 25.0867 26.6839 25.133C26.5618 25.1943 26.4649 25.234 26.4649 25.216C26.4649 25.198 26.4146 25.216 26.35 25.2665C26.2625 25.3154 26.1681 25.3507 26.07 25.3711C25.981 25.3854 25.8942 25.4108 25.8116 25.4469C25.6176 25.577 25.4007 25.6688 25.1726 25.7174C25.1726 25.7174 25.1403 25.7174 25.1403 25.7463C25.1403 25.7751 25.0864 25.8076 25.0254 25.8076C24.9423 25.8142 24.8621 25.8415 24.7921 25.887C24.7157 25.9376 24.6304 25.9731 24.5408 25.9916C24.4809 26.0001 24.4241 26.0236 24.3757 26.0601C24.3027 26.1226 24.2094 26.1559 24.1136 26.1539C24.0957 26.1539 24.031 26.1828 23.97 26.2369C23.909 26.291 23.848 26.3198 23.83 26.3018C23.8121 26.2838 23.7475 26.3018 23.69 26.3379C23.6045 26.3865 23.5127 26.4229 23.4172 26.4461C23.3275 26.4461 23.2521 26.5038 23.2521 26.5291C23.2521 26.5543 23.2126 26.5759 23.1623 26.5759C23.1054 26.5779 23.0509 26.5996 23.008 26.6373C22.9757 26.6697 22.9469 26.6842 22.9469 26.6625C22.9469 26.6409 22.8644 26.6625 22.7639 26.7311C22.6633 26.7996 22.5592 26.8212 22.5341 26.8032C22.509 26.7852 22.4875 26.8032 22.4875 26.8249C22.4875 26.8465 22.43 26.8862 22.3582 26.9042C22.22 26.949 22.0845 27.002 21.9526 27.0629C21.8464 27.1184 21.7344 27.162 21.6187 27.1928C21.5504 27.2053 21.4848 27.2297 21.4249 27.2649C21.3092 27.338 21.1796 27.3859 21.0444 27.4056C21.0401 27.4045 21.0355 27.4044 21.0312 27.4053C21.0268 27.4063 21.0227 27.4082 21.0192 27.411C21.0158 27.4138 21.013 27.4174 21.0111 27.4215C21.0092 27.4256 21.0083 27.43 21.0085 27.4345C21.0085 27.4958 20.7105 27.6112 20.6495 27.5752C20.5885 27.5391 20.5957 27.5752 20.5957 27.5752C20.3109 27.7811 19.9977 27.9439 19.6659 28.0586C19.6117 28.0692 19.5603 28.0914 19.5151 28.1235C19.4574 28.1579 19.396 28.1857 19.3321 28.2064C19.2603 28.2281 19.088 28.2966 18.948 28.358C18.7146 28.4626 18.528 28.5419 18.4634 28.5636L18.2946 28.6321C18.2272 28.6616 18.1559 28.6811 18.0828 28.6898C18.0612 28.6934 18.0409 28.7026 18.0239 28.7165C18.0069 28.7305 17.9938 28.7486 17.9859 28.7692C17.9859 28.8125 17.9392 28.8449 17.9177 28.8413C17.7849 28.8161 17.6449 28.8413 17.6772 28.8991C17.7095 28.9568 17.6772 28.9496 17.6413 28.9423C17.5549 28.9446 17.4701 28.9668 17.3936 29.0073C17.2931 29.0542 17.0095 29.1768 16.7546 29.2814C16.4998 29.386 16.1767 29.5267 16.0367 29.5989C15.8981 29.6657 15.7523 29.7166 15.6023 29.7504C15.5298 29.757 15.4603 29.7832 15.4013 29.8261C15.3895 29.8426 15.3745 29.8565 15.3572 29.867C15.34 29.8776 15.3208 29.8845 15.3008 29.8875C15.253 29.8972 15.207 29.9143 15.1644 29.938C15.1285 29.9596 15.0998 29.9632 15.0998 29.938C15.0998 29.9127 15.0639 29.938 15.0208 29.9704C14.9678 30.0089 14.9082 30.037 14.8449 30.0534C14.7492 30.0777 14.6574 30.1153 14.5721 30.1652C14.4751 30.2229 14.3818 30.2518 14.3675 30.2374C14.3531 30.2229 14.3351 30.2374 14.3351 30.2662C14.3363 30.2737 14.3357 30.2814 14.3334 30.2887C14.3311 30.2959 14.3273 30.3026 14.3221 30.3081C14.3169 30.3137 14.3106 30.318 14.3035 30.3207C14.2964 30.3235 14.2888 30.3246 14.2813 30.3239C14.1826 30.3401 14.0877 30.3743 14.0013 30.4249C13.8828 30.4863 13.7859 30.5259 13.7859 30.5079C13.7859 30.4899 13.7285 30.5079 13.6639 30.5548C13.5856 30.6018 13.501 30.6371 13.4126 30.6594C13.326 30.677 13.2426 30.7074 13.1649 30.7496C13.0963 30.787 13.0225 30.8137 12.9459 30.829C12.8784 30.8454 12.8157 30.8776 12.7628 30.9228C12.7156 30.9647 12.6567 30.9912 12.5941 30.9985C12.5343 31.0009 12.4757 31.0156 12.4218 31.0418C12.2365 31.1365 12.0446 31.2172 11.8475 31.2835C11.7922 31.2964 11.7398 31.3196 11.6931 31.352C11.6476 31.3904 11.5968 31.422 11.5423 31.4458C11.4454 31.4891 17.9536 31.5035 38.4403 31.5071C57.509 31.5071 65.4567 31.5071 65.4351 31.4566C65.4136 31.4061 65.3885 31.4133 65.3741 31.4278C65.3598 31.4422 65.2987 31.4278 65.2377 31.3953C65.1931 31.368 65.1447 31.3473 65.0941 31.334C65.0672 31.3272 65.0425 31.3135 65.0223 31.2943C64.9847 31.2673 64.9393 31.2533 64.8931 31.2546C64.8393 31.2546 64.7998 31.2294 64.7998 31.2005C64.7998 31.1717 64.7782 31.1608 64.7495 31.1753C64.7429 31.1791 64.7356 31.1816 64.7281 31.1826C64.7205 31.1836 64.7129 31.1831 64.7055 31.1811C64.6982 31.179 64.6913 31.1756 64.6853 31.1709C64.6793 31.1662 64.6743 31.1603 64.6705 31.1536C64.6503 31.1349 64.6265 31.1204 64.6006 31.1111C64.5747 31.1018 64.5472 31.0979 64.5198 31.0995C64.4863 31.0995 64.4532 31.0928 64.4224 31.0798C64.3916 31.0668 64.3637 31.0477 64.3403 31.0238C64.2994 30.9789 64.2428 30.9517 64.1823 30.948C64.0849 30.9314 63.9912 30.8972 63.9059 30.847C63.809 30.7893 63.7264 30.7568 63.7264 30.7749C63.7264 30.7929 63.6977 30.7749 63.6582 30.7496C63.6187 30.7243 63.5757 30.7063 63.5577 30.7243C63.5398 30.7424 63.5218 30.7243 63.5218 30.6955C63.5218 30.6666 63.4895 30.6414 63.4464 30.6558C63.4194 30.6623 63.3912 30.6614 63.3646 30.6532C63.3381 30.6449 63.3143 30.6296 63.2957 30.6089C63.246 30.5624 63.1834 30.5322 63.1162 30.5223C63.0587 30.5223 63.0121 30.5007 63.0121 30.4791C63.0121 30.4574 62.8793 30.3925 62.689 30.3528C62.6173 30.3311 62.5495 30.2982 62.488 30.2554C62.4285 30.2132 62.3593 30.1871 62.2869 30.1796C62.2367 30.1796 62.1972 30.1544 62.1972 30.1219C62.1972 30.0895 62.1505 30.0822 62.0895 30.1219C62.0285 30.1616 61.989 30.1219 62.0213 30.0895C62.0536 30.057 62.0213 30.0354 61.9782 30.057C61.9524 30.0643 61.9249 30.0637 61.8994 30.0553C61.8738 30.047 61.8513 30.0313 61.8346 30.0101C61.8204 29.9908 61.8011 29.9759 61.7789 29.967C61.7567 29.9581 61.7325 29.9555 61.709 29.9596C61.6453 29.966 61.5813 29.9521 61.5259 29.9199C61.4613 29.8875 61.2567 29.8045 61.0736 29.7359C60.9436 29.6925 60.8165 29.6407 60.6931 29.5808C60.5927 29.5328 60.4896 29.4906 60.3844 29.4546C60.151 29.3716 59.8316 29.2381 59.5695 29.1191C59.5121 29.0938 59.1818 28.9532 58.83 28.8125C58.4782 28.6718 58.1121 28.5203 58.0403 28.4806C57.9685 28.4409 57.771 28.3724 57.631 28.3219C57.5266 28.2868 57.4247 28.2446 57.3259 28.1956C57.2972 28.1956 57.1572 28.1235 57.0172 28.0694C56.8772 28.0153 56.6582 27.9323 56.5326 27.8782L56.1269 27.7014C56.0264 27.6617 55.9008 27.604 55.8469 27.5788L55.2834 27.3515L54.7234 27.1207C54.6659 27.0918 54.4936 27.0233 54.3392 26.9655C54.1849 26.9078 54.0126 26.8393 53.9587 26.814L53.3951 26.5832C52.9823 26.4172 52.8028 26.3379 52.4798 26.1972C52.1567 26.0565 51.8875 25.9447 51.6613 25.8617C51.5571 25.8259 51.4552 25.7837 51.3562 25.7354C51.3275 25.7354 51.1551 25.6489 50.9721 25.5803C50.789 25.5118 50.5844 25.4288 50.5162 25.3928C50.464 25.3643 50.4085 25.3425 50.351 25.3278C50.299 25.3088 50.2514 25.2793 50.211 25.2412C50.1483 25.19 50.0746 25.1542 49.9957 25.1366C49.9141 25.1196 49.8362 25.0878 49.7659 25.0428C49.7074 25.0041 49.6413 24.9783 49.5721 24.9671C49.529 24.9671 49.4931 24.9454 49.4931 24.9202C49.4931 24.8949 49.4464 24.8877 49.3854 24.9202C49.3244 24.9527 49.2849 24.9202 49.3172 24.8805C49.3495 24.8408 49.3172 24.8228 49.2777 24.8444C49.2522 24.8526 49.2249 24.8528 49.1993 24.8451C49.1736 24.8374 49.1509 24.8221 49.1341 24.8012C49.0975 24.7591 49.046 24.7332 48.9905 24.729C48.8937 24.7101 48.8004 24.676 48.7141 24.628C48.61 24.5703 48.5239 24.5342 48.5239 24.5522C48.5239 24.5703 48.4521 24.5522 48.3587 24.4909C48.2887 24.4482 48.2104 24.4211 48.129 24.4116C48.0931 24.4116 48.0644 24.4116 48.0644 24.3719C48.0644 24.3322 48.0644 24.3214 48.0285 24.3286C47.9623 24.318 47.8982 24.2973 47.8382 24.2673C47.7777 24.2362 47.712 24.2167 47.6444 24.2096C47.6228 24.2096 47.6085 24.2096 47.6085 24.1735C47.6085 24.1374 47.5151 24.1122 47.4003 24.0941C47.2854 24.0761 47.2064 24.04 47.2208 24.0184C47.2351 23.9967 47.1885 23.9715 47.1167 23.9715C47.0578 23.9764 46.9991 23.9598 46.9516 23.9246C46.8903 23.8635 46.8109 23.8242 46.7254 23.8128C46.6589 23.7927 46.5951 23.7649 46.5351 23.7298C46.4832 23.6991 46.4278 23.6748 46.37 23.6576C46.3305 23.6865 46.1259 23.5855 46.1259 23.5422C46.1259 23.4989 46.0936 23.4989 46.0577 23.517C46.041 23.5255 46.0226 23.53 46.0039 23.53C45.9851 23.53 45.9667 23.5255 45.95 23.517C45.9327 23.4961 45.9085 23.482 45.8818 23.4773C45.6816 23.406 45.4871 23.3191 45.3003 23.2175C45.2213 23.1779 45.1351 23.1562 45.1064 23.1743C45.0777 23.1923 45.0418 23.1743 45.0275 23.1274C45.0239 23.1173 45.0183 23.108 45.0111 23.1001C45.0038 23.0923 44.9951 23.086 44.9854 23.0816C44.9756 23.0772 44.9651 23.0748 44.9545 23.0747C44.9438 23.0745 44.9332 23.0764 44.9234 23.0805C44.8839 23.0805 44.8516 23.0805 44.8516 23.048C44.8516 23.0155 44.83 23.0011 44.8049 23.0155C44.7798 23.03 44.7187 23.0155 44.6685 22.9542C44.6182 22.8929 44.5716 22.8712 44.5608 22.8821C44.55 22.8929 44.2413 22.828 44.2413 22.7811C44.2413 22.7342 44.2126 22.7378 44.1767 22.745C44.0978 22.7391 44.0215 22.7144 43.9541 22.6728C43.8644 22.6259 43.7782 22.6007 43.7603 22.6187C43.7423 22.6368 43.7316 22.6187 43.7316 22.5935C43.7316 22.5682 43.6885 22.5322 43.6382 22.5322C43.567 22.5245 43.4989 22.4984 43.4408 22.4564C43.3833 22.4167 43.3223 22.3951 43.308 22.4095C43.2936 22.4239 43.1931 22.3879 43.0854 22.3301C43.0047 22.283 42.9176 22.2478 42.8269 22.2255C42.791 22.2255 42.7623 22.2039 42.7623 22.1786C42.7623 22.1534 42.669 22.1209 42.5577 22.1029C42.4464 22.0849 42.3531 22.0488 42.3531 22.0199C42.3531 21.9911 42.3172 21.9838 42.2777 22.0199C42.2382 22.056 42.1987 22.0199 42.1987 21.9875C42.1987 21.955 42.1664 21.937 42.1198 21.955C42.1096 21.9591 42.0988 21.9611 42.0879 21.961C42.077 21.9608 42.0662 21.9585 42.0562 21.9541C42.0462 21.9498 42.0371 21.9434 42.0295 21.9355C42.022 21.9276 42.016 21.9183 42.0121 21.9081C42.0068 21.889 41.9956 21.872 41.9801 21.8597C41.9646 21.8474 41.9456 21.8404 41.9259 21.8396C41.7817 21.8422 41.6414 21.7922 41.531 21.6989C41.492 21.6561 41.4379 21.6302 41.3803 21.6267C41.3598 21.6286 41.3393 21.6253 41.3205 21.6171C41.3016 21.6089 41.2852 21.5961 41.2726 21.5798C41.2185 21.5358 41.1518 21.5105 41.0823 21.5077C41.0055 21.502 40.9325 21.4717 40.8741 21.4211C40.865 21.4073 40.8528 21.3958 40.8385 21.3877C40.8241 21.3795 40.808 21.3749 40.7916 21.3742C40.7126 21.3742 40.5151 21.3093 40.5151 21.2624C40.5151 21.2155 40.4828 21.2335 40.4398 21.2624C40.3967 21.2912 40.3644 21.2624 40.3644 21.2263C40.3644 21.1902 40.3321 21.1794 40.289 21.1938C40.2656 21.1999 40.241 21.199 40.218 21.1913C40.1951 21.1837 40.1749 21.1695 40.1598 21.1506C40.1428 21.131 40.1205 21.1168 40.0956 21.1097C40.0708 21.1027 40.0444 21.1031 40.0198 21.1109C39.9659 21.1325 39.9516 21.1109 39.9767 21.082C40.0018 21.0532 39.9767 21.0243 39.9157 21.0243C39.8682 21.0267 39.8213 21.0127 39.7828 20.9846C39.7545 20.9602 39.7194 20.9451 39.6823 20.9413C39.5531 20.9413 39.3951 20.8548 39.3951 20.8079C39.3951 20.761 39.3736 20.7754 39.3449 20.7898C39.3383 20.7937 39.331 20.7962 39.3235 20.7972C39.3159 20.7982 39.3082 20.7976 39.3009 20.7956C39.2935 20.7936 39.2867 20.7901 39.2807 20.7854C39.2747 20.7807 39.2696 20.7749 39.2659 20.7682C39.2488 20.7503 39.2281 20.7362 39.2052 20.7269C39.1824 20.7176 39.1578 20.7132 39.1331 20.7141C39.0663 20.7106 39.0028 20.6838 38.9536 20.6383C38.9105 20.595 38.8531 20.5734 38.828 20.5914C38.8028 20.6095 38.731 20.5914 38.67 20.5373C38.5228 20.4363 38.2285 20.4327 38.189 20.5373M11.2803 33.9998V34.9016H38.3649H65.4531V33.1016H11.2803V33.9998ZM13.5634 36.3662H13.409V37.1345V37.8993H15.6562L15.6203 38.0652C15.5911 38.2733 15.5731 38.4828 15.5664 38.6929C15.5449 39.4143 15.5054 40.0889 15.4623 40.4965C15.4444 40.7094 15.4228 41.0304 15.4157 41.218C15.4157 41.7194 15.3439 42.6357 15.308 43.0217C15.308 43.2056 15.2721 43.505 15.2649 43.689C15.2577 43.873 15.2434 44.1724 15.2254 44.3564C15.1823 44.7496 15.1321 45.6442 15.0603 47.1484C15.0573 47.4924 15.0322 47.8358 14.9849 48.1765C14.9849 48.1765 14.9849 48.3821 14.9598 48.6382C14.9346 48.8943 14.9275 49.2587 14.9131 49.4571C14.8987 49.6555 14.8808 50.0992 14.8808 50.4419C14.9027 50.6526 14.8844 50.8657 14.8269 51.0696C14.8018 51.0696 14.7803 51.1597 14.7839 51.2643C14.7839 51.5601 14.7372 52.6568 14.6977 52.9417C14.6798 53.0824 14.6582 53.3602 14.651 53.5586C14.651 54.0564 14.5792 54.9763 14.5434 55.4019C14.5434 55.6003 14.5075 55.9106 14.5003 56.0945C14.4751 56.6032 14.4249 57.4076 14.389 57.8621C14.371 58.0894 14.3495 58.4248 14.3423 58.6052C14.3351 58.7856 14.3136 59.204 14.2921 59.5287C14.2705 59.8533 14.2526 60.2177 14.2526 60.3367V60.5568H11.3054V61.4297C11.2947 61.7224 11.3067 62.0155 11.3413 62.3063H65.4531V61.437C65.4311 61.1413 65.4492 60.8439 65.5069 60.5532C65.5321 60.5532 64.8751 60.5532 64.0387 60.5532C63.56 60.5787 63.08 60.5679 62.6028 60.5207C62.6531 60.4882 62.6567 60.4666 62.6028 60.4413C62.5829 60.4175 62.5678 60.3899 62.5586 60.3602C62.5493 60.3305 62.5461 60.2992 62.549 60.2682C62.549 60.1924 62.549 59.8065 62.5203 59.4133C62.4916 59.0201 62.4844 58.6196 62.4844 58.5295C62.4844 58.4393 62.4844 58.3599 62.4521 58.3599C62.4132 58.2142 62.3986 58.0631 62.409 57.9126C62.409 57.6673 62.3875 57.2453 62.3731 56.9783C62.3587 56.7114 62.3408 56.3651 62.3336 56.21C62.3372 56.099 62.3138 55.9887 62.2654 55.8889C62.2331 55.8637 62.2439 55.8312 62.2905 55.7987C62.3372 55.7663 62.3444 55.7482 62.3157 55.7482C62.2869 55.7482 62.2618 55.6148 62.2582 55.4524C62.2546 55.2901 62.2367 54.8933 62.2187 54.5686C62.2008 54.244 62.1864 53.8472 62.1828 53.6848C62.1903 53.5846 62.1769 53.4838 62.1434 53.3891C62.1254 53.3891 62.1039 53.3313 62.1003 53.2592C62.0967 53.187 62.1003 53.1401 62.1469 53.1618C62.1936 53.1834 62.19 53.1618 62.1469 53.1329C62.1039 53.1041 62.0859 52.866 62.0464 51.9281C62.0404 51.7048 62.0225 51.4821 61.9926 51.2607C61.9622 51.031 61.9442 50.7998 61.9387 50.5681C61.9387 50.1317 61.8957 49.4535 61.8526 48.5949C61.8494 48.5423 61.8278 48.4924 61.7916 48.4543C61.7557 48.4302 61.7628 48.4014 61.8131 48.3677C61.8741 48.328 61.8741 48.3172 61.8131 48.3136C61.7521 48.31 61.7592 48.2847 61.7808 48.2234C61.8016 48.1794 61.8126 48.1314 61.8131 48.0827C61.77 47.6354 61.7485 47.3612 61.7269 46.9031C61.691 46.1817 61.6767 46.0374 61.6336 45.9652C61.5905 45.8931 61.6336 45.9039 61.6623 45.9039C61.691 45.9039 61.709 45.9039 61.6623 45.8498C61.6157 45.7957 61.6013 45.7885 61.6623 45.7668C61.7234 45.7452 61.7162 45.7235 61.6982 45.6983C61.6185 45.0048 61.5741 44.3077 61.5654 43.6096C61.5654 43.5195 61.5654 43.4437 61.5223 43.4437C61.4793 43.4437 61.49 43.3824 61.5223 43.303C61.5566 43.1559 61.5566 43.0028 61.5223 42.8557C61.5223 42.7403 61.4828 42.3507 61.4685 41.9828C61.4704 41.6615 61.4464 41.3406 61.3967 41.0232C61.3754 40.9718 61.3644 40.9166 61.3644 40.8609C61.3644 40.8052 61.3754 40.75 61.3967 40.6986C61.4088 40.6898 61.4173 40.6769 61.4207 40.6623C61.424 40.6477 61.4218 40.6323 61.4146 40.6192C61.3427 40.2753 61.309 39.9244 61.3141 39.5731C61.3073 39.2303 61.281 38.8883 61.2351 38.5486C61.2232 38.442 61.2172 38.3348 61.2172 38.2275V37.9065H63.468V36.3157L61.1992 36.3409C59.95 36.3409 58.3705 36.3662 57.6921 36.3662H56.4249V37.9029H58.6792L58.6434 38.0616C58.6144 38.2613 58.5964 38.4624 58.5895 38.664C58.5285 40.107 58.5177 40.3631 58.4854 40.5939C58.4854 40.7346 58.4459 41.0124 58.4387 41.2108C58.4387 41.6906 58.3669 42.5635 58.3275 43.0144C58.3275 43.2128 58.2916 43.5375 58.2844 43.7359C58.2844 44.075 58.2592 44.2986 58.1803 45.352C58.1803 45.5901 58.1408 45.9616 58.13 46.1708C58.1121 46.6217 58.0654 47.4803 58.0295 47.9745C58.0295 48.1693 57.9936 48.5048 57.9828 48.7176C57.9362 49.5148 57.9039 50.0379 57.8716 50.4094C57.8392 50.781 57.8285 50.9685 57.7818 52.076C57.7818 52.3862 57.7567 52.6387 57.7531 52.6387C57.6743 53.2936 57.6323 53.9523 57.6275 54.6119C57.6275 54.9727 57.5844 55.3334 57.5664 55.456C57.5485 55.5787 57.5269 55.8456 57.5198 56.0729C57.5126 56.3001 57.491 56.7366 57.4731 57.0469C57.4552 57.3571 57.4264 57.808 57.4157 58.0461C57.4049 58.2842 57.3834 58.5872 57.3726 58.7134C57.3726 58.9659 57.2757 60.2574 57.2685 60.4449V60.5568H54.5546C53.0613 60.5568 51.8372 60.5568 51.8372 60.5207C51.8372 60.4341 51.7762 59.2942 51.769 59.1643C51.7682 59.1036 51.7521 59.044 51.7223 58.9912C51.6931 58.9461 51.6776 58.8935 51.6776 58.8397C51.6776 58.7859 51.6931 58.7333 51.7223 58.6882C51.736 58.6799 51.7459 58.6666 51.7499 58.6511C51.7539 58.6356 51.7518 58.6191 51.7439 58.6052C51.6709 58.2359 51.6372 57.8598 51.6434 57.4833C51.6402 57.1656 51.6138 56.8485 51.5644 56.5346C51.5285 56.5346 51.5321 56.2496 51.5644 56.2244C51.5706 56.2187 51.5755 56.2117 51.5789 56.2039C51.5823 56.1962 51.584 56.1878 51.584 56.1793C51.584 56.1708 51.5823 56.1625 51.5789 56.1547C51.5755 56.1469 51.5706 56.14 51.5644 56.1342C51.4869 55.7791 51.4579 55.415 51.4782 55.052C51.4705 54.7647 51.4465 54.4781 51.4064 54.1935C51.3741 54.0239 51.3777 53.9446 51.4064 53.9301C51.4351 53.9157 51.4423 53.9049 51.4064 53.9013C51.3871 53.8986 51.3695 53.8884 51.3574 53.8729C51.3454 53.8575 51.3398 53.8379 51.3418 53.8183C51.3418 53.7714 51.3669 53.7534 51.4028 53.775C51.4387 53.7967 51.4459 53.775 51.4244 53.757C51.3349 53.068 51.2881 52.374 51.2844 51.6792C51.2844 51.6034 51.2844 51.5385 51.2377 51.5385C51.191 51.5385 51.191 51.4808 51.191 51.4086C51.191 51.3365 51.209 51.2896 51.2485 51.3149C51.288 51.3401 51.2916 51.3149 51.2736 51.2932C51.1931 50.8506 51.1546 50.4012 51.1587 49.9513C51.1264 49.2046 51.1228 49.1721 51.069 49.0855C51.0619 49.0767 51.0569 49.0664 51.0543 49.0554C51.0517 49.0443 51.0516 49.0328 51.054 49.0218C51.0564 49.0107 51.0613 49.0003 51.0682 48.9914C51.0752 48.9824 51.084 48.9751 51.0941 48.9701C51.1516 48.934 51.1516 48.9268 51.0941 48.9268C51.0367 48.9268 51.0367 48.8944 51.0618 48.8366C51.0869 48.7789 51.1013 48.7392 51.0618 48.4398C51.0618 48.3244 51.0223 47.9348 51.008 47.5669C50.9757 46.7588 50.9685 46.6578 50.929 46.5929C50.9138 46.5337 50.9138 46.4717 50.929 46.4125C50.9568 46.2429 50.9568 46.0699 50.929 45.9003C50.929 45.7452 50.8895 45.3412 50.8716 45.0021C50.8901 44.6755 50.8574 44.348 50.7746 44.0317C50.7459 43.9668 50.7495 43.9271 50.7746 43.9127C50.7821 43.911 50.789 43.9076 50.7949 43.9026C50.8007 43.8977 50.8052 43.8914 50.8081 43.8842C50.8109 43.8771 50.8119 43.8694 50.8111 43.8618C50.8103 43.8542 50.8076 43.8469 50.8034 43.8405C50.736 43.4547 50.706 43.0633 50.7136 42.6717C50.7051 42.3881 50.6811 42.1051 50.6418 41.824C50.6095 41.6292 50.57 41.0052 50.5521 40.4424C50.5198 39.2484 50.5162 39.2051 50.4659 39.1546C50.4367 39.1095 50.4212 39.0569 50.4212 39.0031C50.4212 38.9493 50.4367 38.8967 50.4659 38.8516C50.479 38.8447 50.4889 38.8329 50.4936 38.8188C50.4983 38.8047 50.4974 38.7893 50.491 38.7759C50.462 38.681 50.4451 38.5828 50.4408 38.4837C50.4408 38.3502 50.4121 38.2023 50.4049 38.159C50.3762 37.8921 50.3295 37.9029 51.5285 37.9029H52.6916L52.7239 37.6648C52.7239 37.5349 52.7562 37.1778 52.7562 36.8712V36.3157H45.6628V37.9029H47.8957L47.8741 38.2239C47.8741 38.4007 47.8418 38.8913 47.8275 39.3061C47.8131 39.721 47.7916 40.2476 47.7772 40.4605C47.6839 41.7627 47.6444 42.2641 47.6192 42.4842C47.6041 42.5953 47.5969 42.7074 47.5977 42.8196C47.6157 42.9964 47.4721 45.4241 47.4254 45.7416C47.3931 45.9652 47.3536 46.564 47.3392 47.0979C47.3394 47.2527 47.3262 47.4072 47.2998 47.5596C47.2736 47.7036 47.2615 47.8498 47.2639 47.9961C47.2639 48.3689 47.228 48.9701 47.1562 49.7998C47.1203 50.2615 47.1059 50.5537 47.07 51.4411C47.07 51.7802 47.0269 52.1626 47.009 52.2888C46.9815 52.4922 46.9647 52.6969 46.9587 52.9021C46.9408 53.4179 46.8905 54.345 46.851 54.7743C46.851 54.9691 46.8151 55.2721 46.808 55.438C46.8008 55.6039 46.7792 55.943 46.7613 56.1847C46.7434 56.4264 46.7182 56.8845 46.7003 57.2092C46.6823 57.5338 46.6644 57.9306 46.6572 58.0533C46.65 58.1759 46.6249 58.5295 46.6069 58.7964C46.5818 59.2293 46.5351 59.8533 46.5028 60.2393C46.5028 60.3115 46.5028 60.4089 46.5028 60.4594C46.5028 60.5099 46.3413 60.5459 43.8141 60.5351H41.1326L41.1039 60.2285C41.0876 60.0715 41.0804 59.9137 41.0823 59.7559C41.0823 59.6622 41.0608 59.5864 41.0321 59.5864C41.0034 59.5864 40.989 59.5395 41.0321 59.4457C41.049 59.3833 41.0586 59.3192 41.0608 59.2545C41.0285 59.0345 41.0034 58.6954 40.9782 58.1002C40.9423 57.3138 40.9351 57.238 40.8777 57.1118C40.8529 57.0455 40.8529 56.9724 40.8777 56.9062C40.9082 56.831 40.9082 56.7468 40.8777 56.6717C40.8279 56.3576 40.7967 56.0408 40.7844 55.723C40.7557 55.2685 40.6982 54.345 40.6551 53.6668C40.6121 52.9886 40.5439 51.8632 40.5044 51.1814C40.4003 49.4896 40.2926 47.7797 40.1992 46.2358C40.0018 43.0469 39.9623 42.4192 39.8905 41.2613C39.851 40.5867 39.7936 39.7101 39.7685 39.3133C39.7434 38.9165 39.7182 38.4404 39.7182 38.2492V37.8885H41.9223V37.0949V36.2976H34.8721V37.0876V37.8812H37.1157L37.0905 38.2817C37.0439 38.9201 37.0008 39.6272 36.9828 39.9843C36.9469 40.7418 36.9039 41.4561 36.8859 41.6256C36.8859 41.723 36.85 42.1848 36.8321 42.6501C36.7998 43.5159 36.7603 44.2626 36.6275 46.4161C36.5844 47.0943 36.5162 48.1909 36.4767 48.8511C36.4085 49.9838 36.351 50.8856 36.1716 53.8255C36.1285 54.4857 36.0603 55.6292 36.0172 56.3795C35.9741 57.1298 35.931 57.7467 35.9167 57.7647C35.9023 57.7828 35.8162 59.0453 35.8198 59.3483C35.8198 59.4674 35.8198 59.5648 35.791 59.5648C35.7567 59.7075 35.7434 59.8546 35.7516 60.0012C35.7557 60.1645 35.7425 60.3278 35.7121 60.4882C35.6834 60.5315 30.2844 60.5712 30.2736 60.5279C30.2628 60.4846 30.2413 59.9616 30.2018 59.2834C30.1623 58.6052 30.0941 57.4797 30.051 56.798C30.008 56.1162 29.9398 54.9763 29.9003 54.2728C29.8608 53.5694 29.8105 52.8876 29.7962 52.7325C29.7818 52.5774 29.7531 52.0616 29.7387 51.5818C29.7064 50.478 29.6992 50.3661 29.6454 50.2796C29.6383 50.271 29.6333 50.261 29.6307 50.2502C29.6281 50.2394 29.628 50.2282 29.6305 50.2174C29.6329 50.2066 29.6378 50.1965 29.6447 50.1879C29.6517 50.1792 29.6605 50.1724 29.6705 50.1677C29.71 50.1425 29.7208 50.1208 29.6921 50.1208C29.6634 50.1208 29.6346 49.9549 29.631 49.7601C29.631 49.4535 29.5736 48.3496 29.5521 47.9565C29.5506 47.9034 29.5287 47.853 29.491 47.8158C29.4551 47.7905 29.4623 47.758 29.5126 47.7256C29.5628 47.6931 29.5664 47.6751 29.5126 47.6751C29.4932 47.6724 29.4756 47.6622 29.4636 47.6467C29.4515 47.6312 29.4459 47.6117 29.448 47.5921C29.448 47.5488 29.4695 47.5272 29.4946 47.5452C29.5198 47.5633 29.5305 47.5236 29.5162 47.4586C29.4615 47.0628 29.4291 46.6641 29.4192 46.2646C29.4409 45.9638 29.4204 45.6615 29.3582 45.3664C29.3533 45.3594 29.3501 45.3513 29.349 45.3428C29.3478 45.3343 29.3486 45.3256 29.3514 45.3175C29.3542 45.3094 29.3589 45.3021 29.3651 45.2962C29.3713 45.2902 29.3788 45.2859 29.3869 45.2834C29.4372 45.2618 29.4372 45.2546 29.3869 45.2546C29.3676 45.2503 29.3505 45.2392 29.3387 45.2233C29.3268 45.2074 29.321 45.1878 29.3223 45.168C29.3223 45.1211 29.3475 45.1031 29.3834 45.1247C29.4192 45.1464 29.4264 45.1247 29.4049 45.1067C29.3158 44.4019 29.269 43.6924 29.2649 42.982C29.2649 42.9026 29.2649 42.8413 29.2218 42.8413C29.1787 42.8413 29.1895 42.7764 29.2218 42.7006C29.2587 42.5526 29.2587 42.3977 29.2218 42.2497C29.1931 42.0152 29.1321 40.8068 29.1357 40.547C29.1357 40.4533 29.1357 40.3775 29.0962 40.3775C29.0567 40.3775 29.0423 40.1286 29.0962 40.0925C29.1063 40.0818 29.1119 40.0676 29.1119 40.0528C29.1119 40.0381 29.1063 40.0239 29.0962 40.0132C29.0266 39.6738 28.9941 39.3279 28.9992 38.9815C28.9992 38.7254 28.9669 38.3863 28.9562 38.2239L28.931 37.9281H31.2177V36.3409H24.1351V37.9281H26.4075V38.1482C26.4075 38.2672 26.3787 38.5089 26.3608 38.7254C26.3428 38.9418 26.3177 39.234 26.3069 39.4143C26.2531 40.6985 26.2351 41.0088 26.2064 41.218C26.1799 41.4214 26.1643 41.6261 26.1598 41.8312C26.1598 42.3291 26.088 43.1984 26.0449 43.6349C26.0449 43.8333 26.009 44.1543 26.0018 44.3564C26.0018 44.7171 25.9695 45.0778 25.8977 46.0229C25.8977 46.261 25.8582 46.6181 25.851 46.8165C25.8295 47.318 25.7864 48.126 25.7505 48.6202C25.7146 49.1144 25.6859 49.5797 25.6536 50.3373C25.6536 50.6619 25.6141 51.0191 25.5926 51.1345C25.571 51.2499 25.5531 51.5349 25.5423 51.773C25.5423 52.3754 25.4777 53.1257 25.4418 53.4901C25.425 53.6398 25.4166 53.7903 25.4167 53.941C25.431 54.115 25.431 54.29 25.4167 54.464C25.4167 54.5795 25.3808 55.1314 25.3628 55.6905C25.3449 56.2496 25.3198 56.7294 25.309 56.7511C25.2982 56.7727 25.2085 58.0172 25.0972 60.0662L25.0505 60.5748H19.5546L19.5223 59.8533C19.5223 59.4674 19.4649 58.9299 19.4398 58.6629C19.4146 58.396 19.3895 58.0136 19.3895 57.8152C19.3896 57.1813 19.3548 56.5478 19.2854 55.9178C19.2854 55.9178 19.2854 55.723 19.2603 55.4849C19.2387 55.0015 19.1885 53.9157 19.1705 53.638C19.1678 53.5562 19.1508 53.4757 19.1203 53.3999C19.1153 53.3928 19.112 53.3847 19.1106 53.3761C19.1092 53.3676 19.1097 53.3588 19.1121 53.3505C19.1145 53.3422 19.1188 53.3345 19.1245 53.3281C19.1303 53.3216 19.1374 53.3166 19.1454 53.3133C19.1992 53.2917 19.1992 53.288 19.1454 53.2844C19.1257 53.2809 19.1081 53.27 19.0961 53.2539C19.0841 53.2379 19.0787 53.2178 19.0808 53.1979C19.0808 53.151 19.1023 53.1329 19.1382 53.1546C19.1741 53.1762 19.1849 53.1546 19.1634 53.1365C19.0706 52.4491 19.0238 51.7561 19.0234 51.0623C19.0234 50.983 19.0018 50.9217 18.9767 50.9217C18.9516 50.9217 18.948 50.8856 18.948 50.8098C18.948 50.7341 18.9695 50.6908 19.009 50.7124C19.0485 50.7341 19.0521 50.7124 19.0305 50.6908C18.9489 50.2483 18.9116 49.7988 18.9192 49.3489C18.8834 48.5986 18.8798 48.5697 18.8259 48.4867C18.8188 48.4779 18.8138 48.4676 18.8112 48.4566C18.8086 48.4455 18.8085 48.434 18.8109 48.423C18.8133 48.4119 18.8182 48.4015 18.8251 48.3925C18.8321 48.3836 18.8409 48.3763 18.851 48.3713C18.9121 48.3352 18.9121 48.328 18.851 48.3244C18.79 48.3208 18.7936 48.2955 18.8187 48.2342C18.8439 48.1729 18.8582 48.1404 18.8187 47.8374C18.8187 47.7256 18.7792 47.3324 18.7613 46.968C18.7655 46.6456 18.7427 46.3235 18.6931 46.0049C18.6748 45.848 18.6652 45.6903 18.6644 45.5323C18.6749 44.8293 18.6233 44.1267 18.51 43.4329C18.4813 43.368 18.4885 43.3247 18.528 43.3138C18.5354 43.3122 18.5424 43.3088 18.5482 43.3038C18.554 43.2989 18.5586 43.2926 18.5614 43.2854C18.5642 43.2783 18.5653 43.2706 18.5645 43.263C18.5636 43.2554 18.561 43.248 18.5567 43.2417C18.4816 42.8131 18.448 42.3782 18.4562 41.9431C18.4203 41.135 18.4167 41.0845 18.3664 41.0052C18.3423 40.9388 18.3423 40.8659 18.3664 40.7996C18.3856 40.7378 18.3929 40.6729 18.388 40.6084C18.3387 40.2437 18.3135 39.8762 18.3126 39.5081C18.3201 39.19 18.2936 38.8719 18.2336 38.5594C18.1977 38.5594 18.1977 38.2744 18.2336 38.2528C18.2695 38.2312 18.2587 38.1734 18.2336 38.1013C18.1618 37.9209 18.169 37.9173 19.3321 37.9173H20.409V37.7514C20.409 37.6612 20.409 37.3041 20.409 36.9578V36.3301H17.0562C15.2146 36.3301 13.6351 36.3301 13.5526 36.359" fill="#001F7E"/>
</g>
<defs>
<clipPath id="clip0_1054_3">
<rect width="77" height="80" fill="white"/>
</clipPath>
</defs>
</svg>
