<svg width="512" height="514" viewBox="0 0 512 514" fill="none" xmlns="http://www.w3.org/2000/svg">
<path d="M223.569 0V93.0471C157.01 106.245 104.792 159.298 92.8352 226.294H0C13.3492 108.469 106.171 14.7385 223.569 0Z" fill="url(#paint0_linear_1070_2395)"/>
<path d="M419.163 226.294C407.203 159.298 354.989 106.245 288.43 93.0471V0C405.827 14.7385 498.649 108.469 511.999 226.294H419.163Z" fill="url(#paint1_linear_1070_2395)"/>
<path d="M511.184 291.134H417.9C403.915 355.19 352.887 405.4 288.391 418.189V322.35C313.108 310.321 330.142 284.959 330.142 255.622C330.142 214.659 296.938 181.453 255.973 181.453C215.011 181.453 181.807 214.659 181.807 255.622C181.807 284.959 198.839 310.321 223.558 322.35V418.189C159.063 405.4 108.034 355.19 94.0497 291.134H0.765625C18.0688 416.616 125.734 513.258 255.973 513.258C386.215 513.258 493.881 416.616 511.184 291.134Z" fill="url(#paint2_linear_1070_2395)"/>
<defs>
<linearGradient id="paint0_linear_1070_2395" x1="138.75" y1="-41.1905" x2="496.823" y2="361.307" gradientUnits="userSpaceOnUse">
<stop stop-color="#41CEFB"/>
<stop offset="1" stop-color="#41A1FB"/>
</linearGradient>
<linearGradient id="paint1_linear_1070_2395" x1="138.778" y1="-41.1905" x2="496.851" y2="361.307" gradientUnits="userSpaceOnUse">
<stop stop-color="#41CEFB"/>
<stop offset="1" stop-color="#41A1FB"/>
</linearGradient>
<linearGradient id="paint2_linear_1070_2395" x1="138.739" y1="-41.1844" x2="496.812" y2="361.313" gradientUnits="userSpaceOnUse">
<stop stop-color="#41CEFB"/>
<stop offset="1" stop-color="#41A1FB"/>
</linearGradient>
</defs>
</svg>
