<svg width="400" height="359" viewBox="0 0 400 359" fill="none" xmlns="http://www.w3.org/2000/svg">
<path d="M143.691 3.26883C109.485 9.43781 78.5934 24.9356 53.7298 48.8592C38.5103 63.3037 28.7155 76.2436 19.5236 94.1487C-18.6006 168.628 0.386134 258.003 65.3328 309.311C82.0592 322.402 83.8675 322.552 72.1138 309.763C52.5243 288.547 38.9624 263.57 31.2773 234.531C27.2087 219.635 25.7018 184.126 28.4142 166.07C33.3869 131.614 50.8667 97.4589 76.6345 71.5792C129.677 18.3152 209.09 5.52579 277.351 39.2296C287.146 44.0444 287.9 44.3453 283.831 40.8847C276.598 34.5652 260.474 24.1833 250.227 19.0675C218.734 3.26883 177.746 -2.74973 143.691 3.26883Z" fill="#7CE3E2"/>
<path d="M161.323 43.7436C85.8277 74.739 44.2377 157.494 64.5806 235.885C87.9373 326.163 182.268 378.976 271.626 351.892L280.366 349.184H254.297C234.406 349.184 225.516 348.582 217.077 346.476C156.199 331.73 110.39 287.645 93.8142 227.911C88.5401 208.802 87.1839 177.957 90.8004 157.644C99.239 109.646 127.116 69.1718 169.46 43.7436C180.46 37.1232 177.446 37.1232 161.323 43.7436Z" fill="#0F3D8B"/>
<path d="M127.112 240.851C149.715 283.432 193.716 315.179 242.238 323.605C280.06 330.226 322.404 322.251 355.555 302.39C367.912 294.867 389.008 276.51 397.597 265.677C401.967 260.26 401.214 260.561 388.255 270.191C364.446 288.246 333.404 301.638 304.321 306.453C291.513 308.559 258.06 308.559 245.251 306.453C206.072 299.832 166.592 279.219 139.92 251.232C134.495 245.515 128.167 238.443 125.756 235.584C121.838 230.769 121.988 231.371 127.112 240.851Z" fill="#7CE3E2"/>
</svg>
