<svg width="60" height="64" viewBox="0 0 60 64" fill="none" xmlns="http://www.w3.org/2000/svg">
<circle opacity="0.2" cx="24.265" cy="24.265" r="24.265" fill="#7CE3E2"/>
<path d="M14.0886 18.1099C13.4081 18.2 12.8409 18.51 12.3821 19.0426C11.9713 19.5216 11.7444 20.0232 11.6436 20.6769C11.6108 20.8854 11.6058 23.0495 11.6058 37.6147C11.6058 56.1107 11.5907 54.5214 11.7696 55.0794C12.0771 56.0431 12.7703 56.7447 13.6979 57.0349L13.9122 57.1025L27.5363 57.1166L41.1604 57.1307L41.3369 57.4999C41.8057 58.4804 42.3149 59.2384 43.0635 60.0781C43.5298 60.5994 43.9432 60.9939 44.4045 61.3518C46.4714 62.9636 48.9946 63.6314 51.4951 63.2284C55.8357 62.5296 59.2789 58.6805 59.899 53.8339C60.0326 52.7969 60.0326 51.6417 59.899 50.6498C59.6343 48.6661 58.926 46.8514 57.8043 45.2903L57.5573 44.9494V32.9343C57.5573 19.8597 57.5648 20.6853 57.4186 20.2063C57.2372 19.6033 56.8843 19.0651 56.4255 18.6847C56.2415 18.5297 55.8962 18.3353 55.6517 18.2451C55.1979 18.0789 56.8011 18.0901 34.5689 18.0958C23.347 18.0958 14.1315 18.1042 14.0886 18.1099ZM51.117 42.4472C51.7623 42.543 52.2942 42.6754 52.8033 42.8642C54.2023 43.3855 55.3593 44.1942 56.3852 45.3692C57.4565 46.595 58.1925 48.0321 58.5882 49.6636C58.8201 50.616 58.9058 51.4444 58.8857 52.4814C58.8705 53.2083 58.8352 53.5718 58.7168 54.2199C58.3034 56.4826 57.1515 58.5734 55.5408 59.9823C54.2275 61.132 52.8109 61.7885 51.0792 62.0534C50.6961 62.1098 49.408 62.1013 48.9871 62.0393C47.3259 61.7885 45.869 61.101 44.5835 59.957C44.1903 59.6104 43.5046 58.8468 43.2047 58.4269C42.5216 57.466 42.0275 56.4516 41.6873 55.2992C40.9815 52.9012 41.1352 50.2863 42.1208 47.9898C42.9829 45.9835 44.3869 44.3971 46.1765 43.4081C47.2377 42.8219 48.2057 42.5233 49.466 42.3965C49.708 42.3739 50.8523 42.4077 51.117 42.4472ZM40.6866 48.6153C40.679 48.6492 40.621 48.8661 40.5605 49.1C40.3689 49.8129 40.248 50.5258 40.1723 51.3824L40.1522 51.6078H32.1113H24.0704L24.0578 51.0302C24.0452 50.4864 24.0427 50.4469 23.9872 50.3455C23.7528 49.9256 23.226 49.951 23.0168 50.3934C22.9664 50.4976 22.9613 50.5596 22.9538 51.064L22.9437 51.6219H19.2207H15.4977L15.3868 51.6839C14.991 51.9093 14.991 52.5349 15.3868 52.7688L15.4952 52.8336H19.2207H22.9437L22.9538 53.3887C22.9613 53.8987 22.9664 53.9579 23.0168 54.065C23.1201 54.2791 23.3142 54.4115 23.5285 54.4115C23.6469 54.4115 23.8587 54.296 23.9293 54.1974C24.0452 54.0311 24.0578 53.9579 24.0578 53.3802V52.8336H32.1088H40.1572L40.1749 53.0787C40.2253 53.8283 40.3765 54.7243 40.5656 55.4316L40.6866 55.8768L27.3498 55.8712L14.013 55.8627L13.8492 55.8007C13.6072 55.7077 13.3828 55.5499 13.1963 55.3386C13.0047 55.1244 12.8913 54.9244 12.7955 54.6313L12.7275 54.4256L12.7199 51.4867L12.7149 48.5505H26.707H40.6992L40.6866 48.6153Z" fill="#616E7D"/>
<path d="M31.0183 26.6693C30.9048 26.7229 30.7889 26.844 30.736 26.9624L30.6855 27.0836L30.6906 33.7758L30.6982 40.4709L30.7763 40.5921C30.8973 40.7781 31.0359 40.8485 31.2527 40.8372L31.4291 40.826L34.3657 38.9296C39.5532 35.5764 40.7455 34.8071 41.2345 34.4944C41.4286 34.3704 41.6201 34.2351 41.6579 34.1957C41.8949 33.9562 41.8924 33.5081 41.6554 33.2855C41.6151 33.2461 41.3378 33.0601 41.0429 32.8685C39.8128 32.0767 33.4431 27.9627 32.4752 27.3372L31.4291 26.6581L31.2527 26.6496C31.1569 26.6468 31.051 26.6553 31.0183 26.6693Z" fill="#AAD4C8"/>
<path d="M48.496 41.7204C44.7257 42.534 41.7198 45.6723 40.6972 49.8684C40.377 51.2051 40.377 53.9947 40.6972 55.3081C41.6578 59.2716 44.3126 62.2356 47.8453 63.3166C49.1055 63.7001 51.3367 63.7001 52.5969 63.3166C56.1503 62.2356 58.7843 59.2716 59.745 55.2732C60.0859 53.8552 60.0859 51.3445 59.745 49.9265C58.7843 45.9513 56.0986 42.9176 52.6279 41.8948C51.5846 41.5809 49.529 41.4996 48.496 41.7204ZM52.442 43.1966C54.9314 43.9288 56.9457 45.8467 58.0613 48.5549C59.0632 50.9842 59.1355 53.5762 58.2678 56.0985C57.9786 56.9586 57.0696 58.6556 56.8114 58.83C56.7597 58.8765 56.2846 58.4231 55.7578 57.842L54.8074 56.7843L54.4046 57.2492L54.0017 57.7141L54.9624 58.8067L55.923 59.8877L55.5202 60.2364C53.6505 61.9101 50.9648 62.6424 48.5684 62.131C46.3681 61.6777 44.2609 60.0737 43.0007 57.9001C42.0194 56.2147 41.6062 54.5874 41.6269 52.4836C41.6372 50.3682 42.1537 48.5782 43.2589 46.9044L43.7341 46.1721L44.7051 47.2647L45.6761 48.3457L46.0892 47.8924L46.5024 47.4391L45.5521 46.3465L44.5915 45.2655L44.9013 44.9749C45.4282 44.4868 46.5231 43.7894 47.2565 43.4755C48.8576 42.8014 50.7686 42.6968 52.442 43.1966Z" fill="#616E7D"/>
<path d="M49.6697 45.3473C49.6284 45.3938 49.5974 45.8122 49.5974 46.2655V47.1024L48.9879 47.2419C47.5108 47.5673 46.4985 49.2295 46.8084 50.787C46.9633 51.5658 47.1389 51.9028 47.6657 52.4491C48.2855 53.1 48.9259 53.2976 50.3101 53.2976C51.6323 53.2976 51.9732 53.472 52.3037 54.2973C52.5413 54.9133 52.5 55.4712 52.1591 55.9943C51.7872 56.5987 51.467 56.6917 50.0415 56.6452L48.7503 56.6103L48.3991 56.1686C48.2029 55.9361 48.0169 55.5758 47.9756 55.3898C47.924 55.0528 47.9033 55.0411 47.3145 55.0411H46.7051L46.7671 55.355C47.0046 56.6219 47.707 57.5634 48.678 57.8772C48.9776 57.9818 49.3081 58.0632 49.4114 58.0632C49.5767 58.0632 49.5974 58.1678 49.5974 58.9931V59.9346L50.1965 59.8997L50.7853 59.8648L50.8163 58.9582C50.8369 58.1911 50.8679 58.0632 51.0332 58.0632C51.467 58.0632 52.2727 57.6913 52.6859 57.2844C54.194 55.8315 53.8222 53.0768 51.9938 52.1818C51.7356 52.0539 51.1778 51.9726 50.2895 51.9261C48.802 51.868 48.4611 51.7169 48.1306 50.973C47.7794 50.1942 47.9963 49.2876 48.6574 48.7994C48.9673 48.5553 49.1325 48.5321 50.1862 48.5321C51.467 48.5321 51.7872 48.6367 52.1694 49.183C52.2831 49.3457 52.407 49.6595 52.4483 49.8804C52.5103 50.2756 52.5206 50.2756 53.0681 50.2756H53.6259V49.892C53.6259 49.3341 53.1921 48.3926 52.7169 47.9393C52.2934 47.5325 51.8905 47.3232 51.2294 47.207L50.8472 47.1256L50.8163 46.2307L50.7853 45.3357L50.2688 45.3008C49.9796 45.2775 49.711 45.3008 49.6697 45.3473Z" fill="#616E7D"/>
</svg>
