<svg width="448" height="386" viewBox="0 0 448 386" fill="none" xmlns="http://www.w3.org/2000/svg">
<path d="M151.002 142.327C152.164 143.045 153.402 143.604 154.711 144.012C156.019 144.414 157.355 144.648 158.723 144.708C160.091 144.768 161.448 144.659 162.784 144.376C164.125 144.094 165.406 143.643 166.633 143.034L195.409 128.643H272.028C273.081 128.643 274.129 128.589 275.182 128.485C276.23 128.382 277.267 128.23 278.304 128.023C279.335 127.817 280.356 127.561 281.366 127.257C282.37 126.953 283.364 126.594 284.336 126.192C285.308 125.79 286.263 125.339 287.192 124.844C288.12 124.35 289.021 123.806 289.895 123.219C290.775 122.638 291.617 122.007 292.431 121.339C293.245 120.67 294.027 119.964 294.771 119.219C295.515 118.475 296.226 117.698 296.894 116.882C297.562 116.067 298.186 115.225 298.772 114.35C299.359 113.475 299.896 112.567 300.396 111.643C300.89 110.714 301.34 109.763 301.742 108.79C302.149 107.818 302.502 106.823 302.806 105.818C303.116 104.807 303.371 103.79 303.577 102.752C303.778 101.72 303.936 100.682 304.039 99.633C304.142 98.5841 304.191 97.5352 304.191 96.4809V32.1621C304.191 31.1078 304.142 30.0589 304.039 29.01C303.936 27.9611 303.778 26.9231 303.577 25.8851C303.371 24.8525 303.116 23.8363 302.806 22.8254C302.502 21.82 302.149 20.8255 301.742 19.8527C301.34 18.8799 300.89 17.9288 300.396 16.9995C299.896 16.0702 299.359 15.168 298.772 14.2931C298.186 13.4181 297.562 12.5757 296.894 11.7605C296.226 10.9453 295.515 10.1682 294.771 9.42364C294.027 8.67366 293.245 7.96716 292.431 7.30413C291.617 6.63567 290.775 6.00526 289.895 5.42375C289.021 4.83682 288.12 4.29335 287.192 3.7988C286.263 3.30425 285.308 2.85318 284.336 2.45102C283.364 2.04885 282.37 1.69017 281.366 1.38583C280.356 1.08149 279.335 0.826062 278.304 0.619547C277.267 0.413031 276.23 0.260862 275.182 0.157604C274.129 0.0543473 273.081 0 272.028 0H175.527C174.473 0 173.425 0.0543473 172.372 0.157604C171.324 0.260862 170.287 0.413031 169.25 0.619547C168.219 0.826062 167.198 1.08149 166.188 1.38583C165.184 1.69017 164.19 2.04885 163.218 2.45102C162.246 2.85318 161.291 3.30425 160.363 3.7988C159.434 4.29335 158.533 4.83682 157.659 5.42375C156.779 6.00526 155.938 6.63567 155.123 7.30413C154.309 7.96716 153.527 8.67366 152.783 9.42364C152.039 10.1682 151.328 10.9453 150.66 11.7605C149.992 12.5757 149.368 13.4181 148.782 14.2931C148.195 15.168 147.658 16.0702 147.158 16.9995C146.664 17.9288 146.214 18.8799 145.812 19.8527C145.405 20.8255 145.052 21.82 144.748 22.8254C144.438 23.8363 144.183 24.8525 143.977 25.8851C143.776 26.9231 143.618 27.9611 143.515 29.01C143.412 30.0589 143.363 31.1078 143.363 32.1621V128.643C143.363 130.012 143.532 131.36 143.879 132.686C144.227 134.018 144.731 135.279 145.399 136.474C146.067 137.675 146.876 138.768 147.826 139.757C148.776 140.751 149.835 141.605 151.002 142.327Z" fill="white"/>
<path d="M200.812 116.789H186.508V46.8208H200.812V116.789Z" fill="#7CE3E2"/>
<path d="M236.242 116.789H221.945V40.7185H236.242V116.789Z" fill="#7CE3E2"/>
<path d="M180.394 116.789H173.02V60.3928H180.394V116.789Z" fill="#0F3D8B"/>
<path d="M214.203 116.789H206.832V60.3928H214.203V116.789Z" fill="#0F3D8B"/>
<path d="M271.272 116.333H257.379V11.4005H271.272V116.333Z" fill="#7CE3E2"/>
<path d="M249.801 116.333H242.223V32.8927H249.801V116.333Z" fill="#0F3D8B"/>
<path d="M175.524 225.118C175.524 227.226 175.42 229.329 175.214 231.422C175.008 233.52 174.698 235.601 174.286 237.666C173.879 239.731 173.368 241.775 172.755 243.791C172.141 245.807 171.435 247.785 170.626 249.731C169.823 251.682 168.922 253.584 167.928 255.437C166.934 257.296 165.854 259.1 164.681 260.856C163.514 262.606 162.26 264.296 160.924 265.921C159.583 267.551 158.171 269.111 156.684 270.6C155.191 272.089 153.633 273.502 152.004 274.839C150.375 276.176 148.686 277.431 146.933 278.6C145.179 279.768 143.377 280.85 141.52 281.844C139.657 282.839 137.757 283.735 135.808 284.545C133.864 285.35 131.883 286.056 129.868 286.67C127.849 287.279 125.807 287.79 123.744 288.203C121.676 288.616 119.596 288.926 117.495 289.132C115.399 289.333 113.298 289.436 111.191 289.436C109.085 289.436 106.984 289.333 104.888 289.132C102.787 288.926 100.707 288.616 98.6389 288.203C96.5757 287.79 94.5343 287.279 92.5146 286.67C90.5003 286.056 88.5186 285.35 86.5749 284.545C84.6258 283.735 82.7255 282.839 80.8633 281.844C79.0064 280.85 77.2039 279.768 75.4502 278.6C73.6966 277.431 72.008 276.176 70.3792 274.839C68.7504 273.502 67.1922 272.089 65.6991 270.6C64.2115 269.111 62.7999 267.551 61.4588 265.921C60.1232 264.296 58.8691 262.606 57.7017 260.856C56.529 259.1 55.4486 257.296 54.455 255.437C53.4614 253.584 52.5602 251.682 51.7566 249.731C50.9477 247.785 50.2418 245.807 49.6283 243.791C49.0148 241.775 48.5045 239.731 48.0973 237.666C47.6846 235.601 47.3752 233.52 47.1688 231.422C46.9625 229.329 46.8594 227.226 46.8594 225.118C46.8594 223.014 46.9625 220.911 47.1688 218.813C47.3752 216.721 47.6846 214.64 48.0973 212.569C48.5045 210.504 49.0148 208.466 49.6283 206.45C50.2418 204.433 50.9477 202.45 51.7566 200.504C52.5602 198.559 53.4614 196.656 54.455 194.798C55.4486 192.939 56.529 191.135 57.7017 189.385C58.8691 187.635 60.1232 185.945 61.4588 184.314C62.7999 182.689 64.2115 181.13 65.6991 179.641C67.1922 178.152 68.7504 176.739 70.3792 175.402C72.008 174.065 73.6966 172.809 75.4502 171.641C77.2039 170.467 79.0064 169.386 80.8633 168.396C82.7255 167.402 84.6258 166.5 86.5749 165.695C88.5186 164.891 90.5003 164.179 92.5146 163.57C94.5343 162.956 96.5757 162.446 98.6389 162.038C100.707 161.625 102.787 161.315 104.888 161.109C106.984 160.902 109.085 160.799 111.191 160.799C113.298 160.799 115.399 160.902 117.495 161.109C119.596 161.315 121.676 161.625 123.744 162.038C125.807 162.446 127.849 162.956 129.868 163.57C131.883 164.179 133.864 164.891 135.808 165.695C137.757 166.5 139.657 167.402 141.52 168.396C143.377 169.386 145.179 170.467 146.933 171.641C148.686 172.809 150.375 174.065 152.004 175.402C153.633 176.739 155.191 178.152 156.684 179.641C158.171 181.13 159.583 182.689 160.919 184.314C162.26 185.945 163.514 187.635 164.681 189.385C165.854 191.135 166.934 192.939 167.928 194.798C168.922 196.656 169.823 198.559 170.626 200.504C171.435 202.45 172.141 204.433 172.755 206.45C173.368 208.466 173.879 210.504 174.286 212.569C174.698 214.64 175.008 216.721 175.214 218.813C175.42 220.911 175.524 223.014 175.524 225.118Z" fill="#7CE3E2"/>
<mask id="mask0_692_422" style="mask-type:luminance" maskUnits="userSpaceOnUse" x="0" y="285" width="223" height="101">
<path d="M0 285.014H222.385V386H0V285.014Z" fill="white"/>
</mask>
<g mask="url(#mask0_692_422)">
<path d="M186.137 285.904C185.013 287.29 183.846 288.649 182.646 289.969C181.446 291.295 180.208 292.583 178.932 293.839C177.656 295.094 176.353 296.312 175.007 297.496C173.666 298.681 172.292 299.822 170.891 300.931C169.485 302.034 168.052 303.099 166.586 304.127C165.12 305.154 163.627 306.137 162.112 307.083C160.592 308.029 159.045 308.925 157.476 309.784C155.906 310.643 154.316 311.458 152.703 312.224C151.085 312.996 149.451 313.719 147.795 314.398C146.145 315.072 144.472 315.708 142.778 316.289C141.09 316.876 139.385 317.414 137.664 317.903C135.948 318.398 134.216 318.838 132.468 319.235C130.725 319.626 128.972 319.974 127.207 320.267C125.442 320.566 123.673 320.816 121.897 321.012C120.116 321.213 118.336 321.36 116.549 321.458C114.768 321.555 112.977 321.61 111.191 321.61C109.404 321.61 107.613 321.555 105.832 321.458C104.046 321.36 102.265 321.213 100.484 321.012C98.7085 320.816 96.9385 320.566 95.174 320.267C93.4095 319.974 91.6558 319.626 89.913 319.235C88.1647 318.838 86.4328 318.398 84.7171 317.903C82.996 317.414 81.2912 316.876 79.6027 316.289C77.9087 315.708 76.2365 315.072 74.586 314.398C72.93 313.719 71.2958 312.996 69.6779 312.224C68.0653 311.458 66.4746 310.643 64.9055 309.784C63.3364 308.925 61.789 308.029 60.2688 307.083C58.754 306.137 57.261 305.154 55.7951 304.127C54.3291 303.099 52.8958 302.034 51.4896 300.931C50.0888 299.822 48.7152 298.681 47.3742 297.496C46.0277 296.312 44.7247 295.094 43.4488 293.839C42.1729 292.583 40.935 291.295 39.7351 289.969C38.5352 288.649 37.3679 287.29 36.244 285.904C31.6834 289.964 27.4865 294.366 23.648 299.11C19.804 303.855 16.3781 308.882 13.354 314.186C10.3353 319.485 7.76179 325.001 5.63892 330.724C3.51605 336.446 1.86553 342.299 0.698229 348.294C0.269311 350.549 0.0847147 352.821 0.155296 355.114C0.225877 357.408 0.546206 359.668 1.11629 361.891C1.68637 364.114 2.49534 366.25 3.53777 368.299C4.5802 370.342 5.82894 372.25 7.29486 374.021C8.81508 375.874 10.5253 377.537 12.4147 379.016C14.3096 380.494 16.3401 381.744 18.5064 382.771C20.6782 383.804 22.9313 384.581 25.2714 385.113C27.6114 385.641 29.984 385.912 32.3838 385.918H189.997C192.397 385.912 194.77 385.641 197.11 385.113C199.45 384.581 201.703 383.804 203.875 382.771C206.041 381.744 208.071 380.494 209.966 379.016C211.856 377.537 213.566 375.874 215.086 374.021C216.558 372.255 217.812 370.347 218.854 368.299C219.897 366.255 220.706 364.119 221.276 361.897C221.846 359.674 222.166 357.413 222.231 355.114C222.302 352.821 222.117 350.544 221.683 348.294C220.515 342.299 218.865 336.446 216.742 330.724C214.619 325.001 212.046 319.485 209.027 314.186C206.003 308.882 202.572 303.855 198.733 299.11C194.894 294.366 190.698 289.964 186.137 285.904Z" fill="#0F3D8B"/>
</g>
<path d="M400.688 225.118C400.688 227.226 400.585 229.329 400.378 231.422C400.172 233.52 399.862 235.601 399.45 237.666C399.043 239.731 398.532 241.775 397.919 243.791C397.305 245.807 396.599 247.785 395.79 249.731C394.987 251.682 394.086 253.584 393.092 255.437C392.098 257.296 391.018 259.1 389.845 260.856C388.678 262.606 387.424 264.296 386.083 265.921C384.747 267.551 383.336 269.111 381.848 270.6C380.355 272.089 378.797 273.502 377.168 274.839C375.539 276.176 373.851 277.431 372.097 278.6C370.343 279.768 368.541 280.85 366.684 281.844C364.822 282.839 362.921 283.735 360.972 284.545C359.028 285.35 357.047 286.056 355.032 286.67C353.013 287.279 350.971 287.79 348.908 288.203C346.84 288.616 344.76 288.926 342.659 289.132C340.563 289.333 338.462 289.436 336.356 289.436C334.249 289.436 332.148 289.333 330.052 289.132C327.951 288.926 325.872 288.616 323.803 288.203C321.74 287.79 319.698 287.279 317.679 286.67C315.664 286.056 313.683 285.35 311.739 284.545C309.79 283.735 307.89 282.839 306.027 281.844C304.17 280.85 302.368 279.768 300.614 278.6C298.861 277.431 297.172 276.176 295.543 274.839C293.914 273.502 292.356 272.089 290.863 270.6C289.376 269.111 287.964 267.551 286.623 265.921C285.287 264.296 284.033 262.606 282.866 260.856C281.693 259.1 280.613 257.296 279.619 255.437C278.626 253.584 277.724 251.682 276.921 249.731C276.112 247.785 275.406 245.807 274.792 243.791C274.179 241.775 273.669 239.731 273.261 237.666C272.849 235.601 272.539 233.52 272.333 231.422C272.127 229.329 272.023 227.226 272.023 225.118C272.023 223.014 272.127 220.911 272.333 218.813C272.539 216.721 272.849 214.64 273.261 212.569C273.669 210.504 274.179 208.466 274.792 206.45C275.406 204.433 276.112 202.45 276.921 200.504C277.724 198.559 278.626 196.656 279.619 194.798C280.613 192.939 281.693 191.135 282.866 189.385C284.033 187.635 285.287 185.945 286.623 184.314C287.964 182.689 289.376 181.13 290.863 179.641C292.356 178.152 293.914 176.739 295.543 175.402C297.172 174.065 298.861 172.809 300.614 171.641C302.368 170.467 304.17 169.386 306.027 168.396C307.89 167.402 309.79 166.5 311.739 165.695C313.683 164.891 315.664 164.179 317.679 163.57C319.698 162.956 321.74 162.446 323.803 162.038C325.872 161.625 327.951 161.315 330.052 161.109C332.148 160.902 334.249 160.799 336.356 160.799C338.462 160.799 340.563 160.902 342.659 161.109C344.76 161.315 346.84 161.625 348.908 162.038C350.971 162.446 353.013 162.956 355.032 163.57C357.047 164.179 359.028 164.891 360.972 165.695C362.921 166.5 364.822 167.402 366.684 168.396C368.541 169.386 370.343 170.467 372.097 171.641C373.851 172.809 375.539 174.065 377.168 175.402C378.797 176.739 380.355 178.152 381.848 179.641C383.336 181.13 384.747 182.689 386.083 184.314C387.424 185.945 388.678 187.635 389.845 189.385C391.018 191.135 392.098 192.939 393.092 194.798C394.086 196.656 394.987 198.559 395.79 200.504C396.599 202.45 397.305 204.433 397.919 206.45C398.532 208.466 399.043 210.504 399.45 212.569C399.862 214.64 400.172 216.721 400.378 218.813C400.585 220.911 400.688 223.014 400.688 225.118Z" fill="#0F3D8B"/>
<mask id="mask1_692_422" style="mask-type:luminance" maskUnits="userSpaceOnUse" x="225" y="285" width="223" height="101">
<path d="M225.168 285.014H447.553V386H225.168V285.014Z" fill="white"/>
</mask>
<g mask="url(#mask1_692_422)">
<path d="M446.852 348.294C445.685 342.299 444.034 336.446 441.912 330.724C439.789 325.001 437.215 319.485 434.197 314.186C431.172 308.882 427.741 303.855 423.902 299.11C420.064 294.366 415.867 289.964 411.306 285.904C410.183 287.29 409.015 288.649 407.815 289.969C406.616 291.295 405.378 292.583 404.102 293.839C402.826 295.094 401.523 296.312 400.176 297.496C398.835 298.681 397.462 299.822 396.061 300.931C394.655 302.034 393.221 303.099 391.755 304.127C390.29 305.154 388.796 306.137 387.282 307.083C385.761 308.029 384.214 308.925 382.645 309.784C381.076 310.643 379.485 311.458 377.873 312.224C376.255 312.996 374.62 313.719 372.965 314.398C371.314 315.072 369.642 315.708 367.948 316.289C366.259 316.876 364.554 317.414 362.833 317.903C361.118 318.398 359.386 318.838 357.638 319.235C355.895 319.626 354.141 319.974 352.377 320.267C350.612 320.566 348.842 320.816 347.067 321.012C345.286 321.213 343.505 321.36 341.719 321.458C339.938 321.555 338.146 321.61 336.36 321.61C334.574 321.61 332.782 321.555 331.001 321.458C329.215 321.36 327.434 321.213 325.653 321.012C323.878 320.816 322.108 320.566 320.343 320.267C318.579 319.974 316.825 319.626 315.082 319.235C313.334 318.838 311.602 318.398 309.887 317.903C308.165 317.414 306.461 316.876 304.772 316.289C303.078 315.708 301.406 315.072 299.755 314.398C298.1 313.719 296.465 312.996 294.847 312.224C293.235 311.458 291.644 310.643 290.075 309.784C288.506 308.925 286.959 308.029 285.438 307.083C283.924 306.137 282.43 305.154 280.965 304.127C279.499 303.099 278.065 302.034 276.659 300.931C275.258 299.822 273.885 298.681 272.544 297.496C271.197 296.312 269.894 295.094 268.618 293.839C267.342 292.583 266.104 291.295 264.905 289.969C263.705 288.649 262.537 287.29 261.414 285.904C256.853 289.964 252.656 294.366 248.817 299.11C244.974 303.855 241.548 308.882 238.523 314.186C235.505 319.485 232.931 325.001 230.808 330.724C228.686 336.446 227.035 342.299 225.868 348.294C225.433 350.544 225.249 352.821 225.319 355.114C225.384 357.413 225.705 359.674 226.275 361.897C226.845 364.119 227.654 366.255 228.696 368.299C229.739 370.347 230.993 372.255 232.464 374.021C233.985 375.874 235.695 377.537 237.584 379.016C239.479 380.494 241.51 381.744 243.676 382.771C245.848 383.804 248.101 384.581 250.441 385.113C252.781 385.641 255.154 385.912 257.553 385.918H415.167C417.566 385.912 419.939 385.641 422.279 385.113C424.619 384.581 426.872 383.804 429.044 382.771C431.21 381.744 433.241 380.494 435.136 379.016C437.025 377.537 438.735 375.874 440.256 374.021C441.722 372.25 442.97 370.342 444.013 368.299C445.055 366.25 445.864 364.114 446.434 361.891C447.004 359.668 447.325 357.408 447.395 355.114C447.466 352.821 447.281 350.549 446.852 348.294Z" fill="#7CE3E2"/>
</g>
</svg>
