<svg width="564" height="386" viewBox="0 0 564 386" fill="none" xmlns="http://www.w3.org/2000/svg">
<path d="M401.909 185.564C405.222 182.454 404.927 175.771 403.596 172.163C398.744 159.018 389.447 153.76 367.634 153.76C366.871 153.76 366.114 153.774 365.364 153.796C365.204 140.26 350.721 128.679 340.529 127.583C310.932 124.397 247.833 123.083 228.252 129.336C218.438 132.47 209.586 140.389 209.586 154.025C209.586 154.296 209.603 154.564 209.611 154.833C207.141 154.434 204.576 154.22 201.941 154.22C182.204 154.22 166.199 165.978 166.199 180.485C166.199 182.471 166.51 184.403 167.079 186.264C166.785 186.259 166.495 186.247 166.199 186.247C165.285 186.247 164.379 186.273 163.476 186.313H161.485C159.929 186.313 158.415 186.536 156.953 186.951C136.409 190.11 120.973 203.587 120.973 219.733C120.973 238.23 136.194 252.785 173.451 252.788H403.421C423.453 252.788 436.689 233.08 436.689 219.047C436.689 201.779 421.495 187.555 401.909 185.564Z" fill="#7CE3E2"/>
<path d="M197.052 199.04C197.052 194.186 198.102 189.87 200.202 186.09C202.302 182.263 205.219 179.3 208.952 177.2C212.732 175.053 217.002 173.98 221.762 173.98C227.596 173.98 232.589 175.52 236.742 178.6C240.896 181.68 243.672 185.88 245.072 191.2H231.912C230.932 189.146 229.532 187.583 227.712 186.51C225.939 185.436 223.909 184.9 221.622 184.9C217.936 184.9 214.949 186.183 212.662 188.75C210.376 191.316 209.232 194.746 209.232 199.04C209.232 203.333 210.376 206.763 212.662 209.33C214.949 211.896 217.936 213.18 221.622 213.18C223.909 213.18 225.939 212.643 227.712 211.57C229.532 210.496 230.932 208.933 231.912 206.88H245.072C243.672 212.2 240.896 216.4 236.742 219.48C232.589 222.513 227.596 224.03 221.762 224.03C217.002 224.03 212.732 222.98 208.952 220.88C205.219 218.733 202.302 215.77 200.202 211.99C198.102 208.21 197.052 203.893 197.052 199.04ZM308.053 174.54V223.68H296.083V194.21L285.093 223.68H275.433L264.373 194.14V223.68H252.403V174.54H266.542L280.333 208.56L293.983 174.54H308.053ZM339.9 224.17C335.28 224.17 331.034 223.096 327.16 220.95C323.334 218.803 320.277 215.816 317.99 211.99C315.75 208.116 314.63 203.776 314.63 198.97C314.63 194.163 315.75 189.846 317.99 186.02C320.277 182.193 323.334 179.206 327.16 177.06C331.034 174.913 335.28 173.84 339.9 173.84C344.52 173.84 348.744 174.913 352.57 177.06C356.444 179.206 359.477 182.193 361.67 186.02C363.91 189.846 365.03 194.163 365.03 198.97C365.03 203.776 363.91 208.116 361.67 211.99C359.43 215.816 356.397 218.803 352.57 220.95C348.744 223.096 344.52 224.17 339.9 224.17ZM339.9 213.25C343.82 213.25 346.947 211.943 349.28 209.33C351.66 206.716 352.85 203.263 352.85 198.97C352.85 194.63 351.66 191.176 349.28 188.61C346.947 185.996 343.82 184.69 339.9 184.69C335.934 184.69 332.76 185.973 330.38 188.54C328.047 191.106 326.88 194.583 326.88 198.97C326.88 203.31 328.047 206.786 330.38 209.4C332.76 211.966 335.934 213.25 339.9 213.25Z" fill="#0F3D8B"/>
<path d="M481.382 199.146H480.826C480.825 216.339 474.69 232.725 463.557 247.664C446.861 270.069 418.905 289.189 383.681 302.692C348.456 316.196 305.97 324.088 260.232 324.088C199.25 324.089 144.046 310.056 104.132 287.403C84.1739 276.078 68.0404 262.6 56.9086 247.664C45.7757 232.725 39.6412 216.339 39.6401 199.146C39.6412 181.954 45.7757 165.568 56.9086 150.63C73.6052 128.223 101.56 109.104 136.785 95.6011C172.009 82.096 214.495 74.2028 260.232 74.2039C321.215 74.2028 376.42 88.2365 416.335 110.889C436.292 122.215 452.425 135.692 463.557 150.63C474.69 165.568 480.825 181.953 480.826 199.146H481.382H481.938C481.94 181.684 475.698 165.054 464.45 149.964C447.574 127.326 419.445 108.122 384.079 94.5617C348.711 81.0021 306.099 73.0911 260.232 73.0911C199.078 73.0922 143.709 87.1526 103.582 109.922C83.5196 121.307 67.2659 134.872 56.0162 149.964C44.7675 165.054 38.5262 181.684 38.5273 199.146C38.5262 216.61 44.7675 233.238 56.0162 248.328C72.8919 270.966 101.021 290.17 136.387 303.731C171.755 317.29 214.367 325.2 260.232 325.201C321.387 325.199 376.757 311.14 416.884 288.37C436.946 276.985 453.2 263.421 464.45 248.328C475.698 233.238 481.94 216.61 481.938 199.146H481.382Z" fill="#0F3D8B"/>
<path d="M106.646 220.542C106.646 249.995 82.7727 273.868 53.3232 273.868C23.8725 273.868 0 249.995 0 220.542C0 191.088 23.8725 167.214 53.3232 167.214C82.7727 167.214 106.646 191.088 106.646 220.542Z" fill="#E6F0FA"/>
<path d="M101.158 220.543C101.158 246.963 79.7447 268.378 53.3263 268.378C26.9067 268.378 5.49219 246.963 5.49219 220.543C5.49219 194.121 26.9067 172.704 53.3263 172.704C79.7447 172.704 101.158 194.121 101.158 220.543Z" fill="#0F3D8B"/>
<path d="M53.4086 268.378C53.4164 268.378 53.4242 268.378 53.432 268.378C53.4253 268.378 53.4164 268.378 53.4086 268.378ZM53.6556 268.377C53.6667 268.377 53.6779 268.377 53.689 268.377C53.6768 268.377 53.6667 268.377 53.6556 268.377ZM53.8225 268.376C53.8325 268.376 53.8437 268.376 53.8526 268.376C53.8426 268.376 53.8325 268.376 53.8225 268.376ZM54.0017 268.373C54.0061 268.373 54.0117 268.373 54.0173 268.373C54.0117 268.373 54.0072 268.373 54.0017 268.373ZM54.1842 268.371C54.1875 268.371 54.1942 268.371 54.1975 268.37C54.1931 268.371 54.1886 268.371 54.1842 268.371ZM54.35 268.368C54.3577 268.368 54.3633 268.368 54.3711 268.367C54.3644 268.368 54.3566 268.368 54.35 268.368ZM54.4345 268.366C54.4401 268.366 54.4479 268.366 54.4546 268.366C54.4468 268.366 54.4412 268.366 54.4345 268.366ZM54.5202 268.363C54.5258 268.363 54.5291 268.363 54.5358 268.363C54.5302 268.363 54.5247 268.363 54.5202 268.363ZM54.6092 268.361C54.6126 268.361 54.6148 268.361 54.6181 268.361C54.6148 268.361 54.6115 268.361 54.6092 268.361ZM5.49219 220.543C5.49219 220.519 5.49219 220.495 5.49219 220.472C5.49219 220.496 5.49219 220.518 5.49219 220.543ZM5.49219 220.374C5.49219 220.358 5.49219 220.343 5.49219 220.327C5.49219 220.342 5.49219 220.359 5.49219 220.374ZM5.49219 220.303C5.49219 220.281 5.49219 220.257 5.4933 220.234C5.49219 220.258 5.49219 220.28 5.49219 220.303ZM5.4933 220.136C5.4933 220.123 5.4933 220.106 5.49442 220.093C5.4933 220.107 5.4933 220.122 5.4933 220.136ZM5.49553 219.914C5.49664 219.894 5.49664 219.876 5.49664 219.856C5.49664 219.875 5.49664 219.895 5.49553 219.914ZM5.49997 219.681C5.49997 219.67 5.49997 219.656 5.49997 219.643C5.49997 219.657 5.49997 219.668 5.49997 219.681ZM5.50108 219.58C5.50108 219.57 5.5022 219.561 5.5022 219.551C5.5022 219.56 5.50108 219.57 5.50108 219.58ZM5.5022 219.51C5.50331 219.5 5.50331 219.491 5.50331 219.48C5.50331 219.49 5.50331 219.501 5.5022 219.51ZM5.50443 219.441C5.50443 219.432 5.50443 219.422 5.50443 219.413C5.50443 219.422 5.50443 219.431 5.50443 219.441ZM5.50554 219.372C5.50665 219.363 5.50665 219.355 5.50665 219.346C5.50665 219.354 5.50554 219.364 5.50554 219.372ZM5.50888 219.259C5.50888 219.254 5.50888 219.248 5.50888 219.243C5.50888 219.248 5.50888 219.255 5.50888 219.259ZM5.51222 219.128C5.51222 219.123 5.51222 219.118 5.51334 219.113C5.51222 219.118 5.51222 219.124 5.51222 219.128Z" fill="#0F3D8B"/>
<path d="M53.3262 268.378C26.9067 268.378 5.49219 246.963 5.49219 220.543C5.49219 220.518 5.49219 220.496 5.49219 220.472C5.49219 220.465 5.49219 220.456 5.49219 220.448C5.49219 220.431 5.49219 220.417 5.49219 220.4C5.49219 220.392 5.49219 220.382 5.49219 220.374C5.49219 220.359 5.49219 220.342 5.49219 220.327C5.49219 220.319 5.49219 220.311 5.49219 220.303C5.49219 220.28 5.49219 220.258 5.4933 220.234C5.4933 220.233 5.4933 220.234 5.4933 220.232C5.4933 220.21 5.4933 220.186 5.4933 220.163C5.4933 220.154 5.4933 220.145 5.4933 220.136C5.4933 220.122 5.4933 220.107 5.49442 220.093C5.49442 220.082 5.49442 220.073 5.49442 220.062C5.49442 220.05 5.49442 220.036 5.49442 220.023C5.49442 220.013 5.49442 220.002 5.49442 219.992C5.49553 219.973 5.49553 219.955 5.49553 219.936C5.49553 219.929 5.49553 219.92 5.49553 219.914C5.49664 219.895 5.49664 219.875 5.49664 219.856C5.49664 219.846 5.49664 219.834 5.49664 219.824C5.49776 219.811 5.49776 219.798 5.49776 219.786C5.49776 219.776 5.49776 219.764 5.49776 219.754C5.49887 219.74 5.49887 219.728 5.49887 219.716C5.49887 219.703 5.49886 219.692 5.49997 219.681C5.49997 219.668 5.49997 219.657 5.49997 219.643C5.49997 219.622 5.50108 219.602 5.50108 219.58C5.50108 219.57 5.5022 219.56 5.5022 219.551C5.5022 219.538 5.5022 219.523 5.5022 219.51C5.50331 219.501 5.50331 219.49 5.50331 219.48C5.50331 219.468 5.50443 219.454 5.50443 219.441C5.50443 219.431 5.50443 219.422 5.50443 219.413C5.50554 219.399 5.50554 219.386 5.50554 219.372C5.50554 219.364 5.50665 219.354 5.50665 219.346C5.50665 219.318 5.50777 219.287 5.50888 219.259C5.50888 219.255 5.50888 219.248 5.50888 219.243C5.50999 219.226 5.50999 219.212 5.50999 219.195C5.51111 219.188 5.51111 219.184 5.51111 219.177C5.51111 219.162 5.51222 219.144 5.51222 219.128C5.51222 219.124 5.51222 219.118 5.51334 219.113C5.51556 219.034 5.51778 218.957 5.52001 218.878V218.876C6.21991 198.451 19.7262 181.29 38.2521 175.141C32.2623 187.555 31.5701 200.977 37.1483 214.701C42.8421 228.718 53.0425 240.738 67.2921 246.38C74.6206 249.282 82.2317 250.765 89.9674 251.282C81.4494 261.427 68.8066 267.985 54.6181 268.361C54.6148 268.361 54.6126 268.361 54.6092 268.361C54.5836 268.362 54.5614 268.362 54.5358 268.363C54.5291 268.363 54.5258 268.363 54.5202 268.363C54.498 268.365 54.4757 268.365 54.4546 268.366C54.4479 268.366 54.4401 268.366 54.4345 268.366C54.4134 268.367 54.3922 268.367 54.3711 268.367C54.3633 268.368 54.3577 268.368 54.35 268.368C54.3277 268.368 54.3077 268.369 54.2865 268.369C54.2799 268.369 54.2732 268.369 54.2665 268.369C54.2431 268.37 54.2209 268.37 54.1975 268.37C54.1942 268.371 54.1875 268.371 54.1842 268.371C54.1285 268.372 54.0718 268.372 54.0173 268.373C54.0117 268.373 54.0061 268.373 54.0017 268.373C53.9794 268.375 53.956 268.375 53.9338 268.375C53.926 268.375 53.9182 268.375 53.9104 268.375C53.8915 268.376 53.8715 268.376 53.8526 268.376C53.8437 268.376 53.8325 268.376 53.8225 268.376C53.8047 268.376 53.7891 268.376 53.7713 268.377C53.7602 268.377 53.7491 268.377 53.738 268.377C53.7224 268.377 53.7046 268.377 53.689 268.377C53.6779 268.377 53.6667 268.377 53.6556 268.377C53.6389 268.378 53.6211 268.378 53.6055 268.378C53.5944 268.378 53.5844 268.378 53.5733 268.378C53.5555 268.378 53.5388 268.378 53.521 268.378C53.511 268.378 53.5009 268.378 53.4909 268.378C53.4709 268.378 53.452 268.378 53.4319 268.378C53.4242 268.378 53.4164 268.378 53.4086 268.378C53.3808 268.378 53.3541 268.378 53.3262 268.378Z" fill="#0F3D8B"/>
<mask id="mask0_692_421" style="mask-type:luminance" maskUnits="userSpaceOnUse" x="5" y="172" width="97" height="97">
<path d="M101.158 220.543C101.158 246.963 79.7447 268.378 53.3263 268.378C26.9067 268.378 5.49219 246.963 5.49219 220.543C5.49219 194.121 26.9067 172.704 53.3263 172.704C79.7447 172.704 101.158 194.121 101.158 220.543Z" fill="white"/>
</mask>
<g mask="url(#mask0_692_421)">
<path d="M38.4313 255.92C38.7162 256.751 38.2678 257.654 37.4365 257.939L31.2142 260.037C30.3796 260.318 29.4772 259.871 29.1934 259.032L21.2163 235.376C20.937 234.546 21.381 233.64 22.2144 233.359L28.4379 231.26C29.268 230.981 30.1737 231.428 30.4542 232.262L38.4313 255.92Z" fill="white"/>
<path d="M32.1977 235.228C32.388 236.189 31.7671 237.122 30.8079 237.311L21.6847 239.129C20.7266 239.318 19.7941 238.696 19.6061 237.737L15.795 218.629C15.608 217.671 16.2278 216.739 17.1881 216.545L26.3047 214.731C27.2706 214.54 28.2019 215.16 28.3933 216.122L32.1977 235.228Z" fill="white"/>
<path d="M89.5774 240.741L32.1238 235.489L28.1836 215.695L78.2242 183.769L89.5774 240.741Z" fill="#7CE3E2"/>
<path d="M31.9239 235.529L30.5586 227.357C36.9145 223.465 44.194 221.449 50.8259 220.54C59.918 219.301 72.5586 218.681 76.8693 208.966C78.2413 205.882 79.4509 202.195 81.17 199.595L89.3764 240.786L31.9239 235.529Z" fill="white"/>
<path d="M88.4462 211.351C91.5841 227.087 92.087 240.243 89.5756 240.742C87.0586 241.246 82.4853 228.897 79.3518 213.163C76.2139 197.431 75.7121 184.27 78.2224 183.769C80.7394 183.272 85.3149 195.616 88.4462 211.351Z" fill="white"/>
<path d="M32.359 226.691L32.329 226.677L32.3568 226.697L32.359 226.691L32.329 226.677L32.3568 226.697C32.3702 226.669 32.5415 226.53 32.7952 226.388C34.6079 225.338 40.6389 223.104 42.1499 222.685C46.3594 221.51 49.682 221.025 53.4097 220.538C56.9515 220.07 60.5768 219.681 64.1152 218.877C68.071 217.983 71.9366 216.153 74.4648 213.194C74.5638 213.077 74.5504 212.901 74.4336 212.801C74.3168 212.702 74.141 212.716 74.0408 212.832C71.6273 215.665 67.8685 217.461 63.9917 218.335C60.4955 219.129 56.8881 219.518 53.3373 219.986C49.6064 220.474 46.2448 220.964 41.9997 222.149C41.0762 222.407 38.6827 223.26 36.4539 224.145C35.34 224.588 34.2707 225.038 33.4506 225.426C33.0411 225.621 32.6928 225.8 32.428 225.959C32.161 226.128 31.9829 226.231 31.8616 226.442C31.7927 226.58 31.8483 226.747 31.9863 226.816C32.1231 226.885 32.29 226.829 32.359 226.691Z" fill="white"/>
<path d="M81.365 222.13C80.2078 217.535 78.8536 211.404 78.5676 208.991C78.4051 207.592 77.9411 205.601 77.6641 203.429C78.1448 203.254 78.8269 202.973 79.3398 202.872C84.6464 201.814 89.7962 205.256 90.8544 210.559C91.9137 215.864 88.472 221.016 83.1665 222.074C82.6124 222.188 81.9102 222.116 81.365 222.13Z" fill="#7CE3E2"/>
<path d="M83.3916 212.858C81.3798 212.22 79.8342 211.186 78.6914 209.837C79.1287 212.631 80.3271 217.998 81.3675 222.13C81.9128 222.116 82.6149 222.188 83.169 222.074C87.8503 221.141 91.0783 217.015 91.0438 212.408C88.7294 213.547 85.7161 213.604 83.3916 212.858Z" fill="#7CE3E2"/>
<path d="M32.2015 235.228L30.2464 225.409C28.2035 227.474 25.0344 228.626 22.1358 228.271C20.2475 228.042 18.6607 227.392 17.3555 226.435L19.6099 237.737C19.7979 238.696 20.7304 239.318 21.6884 239.129L30.8117 237.311C31.7709 237.122 32.3918 236.189 32.2015 235.228Z" fill="white"/>
</g>
<path d="M202.049 72.0157C202.049 101.467 178.175 125.343 148.727 125.343C119.277 125.343 95.4023 101.467 95.4023 72.0157C95.4023 42.5639 119.277 18.6885 148.727 18.6885C178.175 18.6885 202.049 42.5639 202.049 72.0157Z" fill="#E6F0FA"/>
<path d="M196.564 72.0159C196.564 98.4363 175.148 119.854 148.729 119.854C122.31 119.854 100.895 98.4363 100.895 72.0159C100.895 45.5944 122.31 24.1772 148.729 24.1772C175.148 24.1772 196.564 45.5944 196.564 72.0159Z" fill="#0F3D8B"/>
<path d="M148.812 119.854C148.82 119.854 148.828 119.854 148.835 119.854C148.828 119.854 148.819 119.854 148.812 119.854ZM148.977 119.854C148.988 119.854 148.996 119.854 149.007 119.854C148.997 119.854 148.987 119.854 148.977 119.854ZM149.059 119.852C149.07 119.852 149.079 119.852 149.09 119.852C149.08 119.852 149.069 119.852 149.059 119.852ZM149.228 119.851C149.238 119.851 149.245 119.851 149.254 119.851C149.246 119.851 149.236 119.851 149.228 119.851ZM149.319 119.85C149.324 119.85 149.331 119.85 149.335 119.85C149.329 119.85 149.324 119.85 149.319 119.85ZM149.674 119.845H149.677C149.677 119.845 149.676 119.845 149.674 119.845ZM100.895 72.0159C100.895 71.9925 100.895 71.968 100.895 71.9458C100.895 71.9692 100.895 71.9914 100.895 72.0159ZM100.895 71.9213C100.895 71.9046 100.895 71.8902 100.895 71.8735C100.895 71.8879 100.895 71.9068 100.895 71.9213ZM100.897 71.6108C100.897 71.5964 100.897 71.5808 100.897 71.5652C100.897 71.5797 100.897 71.5964 100.897 71.6108ZM100.897 71.5363C100.897 71.5229 100.897 71.5085 100.898 71.4951C100.897 71.5096 100.897 71.5218 100.897 71.5363ZM100.902 71.1546C100.902 71.1412 100.902 71.1279 100.903 71.1145C100.902 71.129 100.902 71.1401 100.902 71.1546ZM100.905 71.0578C100.905 71.0466 100.905 71.0355 100.905 71.0233C100.905 71.0366 100.905 71.0455 100.905 71.0578ZM100.907 70.9142C100.907 70.9053 100.908 70.8953 100.908 70.8864C100.908 70.8953 100.907 70.9042 100.907 70.9142ZM100.909 70.8452C100.909 70.8363 100.909 70.8285 100.909 70.8196C100.909 70.8274 100.909 70.8374 100.909 70.8452ZM100.911 70.7362C100.911 70.7284 100.911 70.7239 100.912 70.7161C100.911 70.7228 100.911 70.7295 100.911 70.7362ZM100.923 70.3523C100.923 70.3511 100.923 70.3489 100.923 70.3478C100.923 70.3489 100.923 70.35 100.923 70.3523Z" fill="#0F3D8B"/>
<path d="M148.729 119.854C122.31 119.854 100.895 98.4363 100.895 72.0159C100.895 71.9914 100.895 71.9692 100.895 71.9458C100.895 71.938 100.895 71.9291 100.895 71.9213C100.895 71.9068 100.895 71.8879 100.895 71.8735C100.895 71.8657 100.895 71.8557 100.895 71.8479C100.895 71.8312 100.895 71.8156 100.896 71.7989C100.896 71.7911 100.896 71.7845 100.896 71.7767C100.896 71.7299 100.896 71.6832 100.896 71.6365C100.896 71.6287 100.897 71.6186 100.897 71.6108C100.897 71.5964 100.897 71.5797 100.897 71.5652C100.897 71.5552 100.897 71.5463 100.897 71.5363C100.897 71.5218 100.897 71.5096 100.898 71.4951C100.898 71.4851 100.898 71.4762 100.898 71.4651C100.898 71.4462 100.898 71.4261 100.898 71.4072C100.899 71.4005 100.899 71.3961 100.899 71.3905C100.899 71.3694 100.899 71.3493 100.899 71.3293C100.9 71.3182 100.9 71.3082 100.9 71.297C100.9 71.2848 100.9 71.2714 100.9 71.2592C100.901 71.2492 100.901 71.2369 100.901 71.2269C100.901 71.2136 100.901 71.2013 100.901 71.1891C100.902 71.1769 100.902 71.1657 100.902 71.1546C100.902 71.1401 100.902 71.129 100.903 71.1145C100.903 71.0956 100.903 71.0767 100.905 71.0578C100.905 71.0455 100.905 71.0366 100.905 71.0233C100.905 71.0111 100.906 70.9966 100.906 70.9843C100.906 70.9743 100.906 70.9632 100.906 70.9532C100.907 70.9409 100.907 70.9276 100.907 70.9142C100.907 70.9042 100.908 70.8953 100.908 70.8864C100.908 70.872 100.908 70.8597 100.909 70.8452C100.909 70.8374 100.909 70.8274 100.909 70.8196C100.91 70.7929 100.911 70.7629 100.911 70.7362C100.911 70.7295 100.911 70.7228 100.912 70.7162C100.912 70.7006 100.912 70.6839 100.913 70.6694C100.913 70.6627 100.913 70.6572 100.913 70.6505C100.915 70.6349 100.915 70.6171 100.916 70.6015C100.916 70.596 100.916 70.5915 100.916 70.587C100.918 70.508 100.92 70.4302 100.923 70.3523C100.923 70.35 100.923 70.3489 100.923 70.3478C101.622 49.9255 115.127 32.7648 133.656 26.6154C130.112 33.9566 128.422 41.6506 128.786 49.5505L123.121 49.7073C119.544 49.8064 116.709 52.7342 116.706 56.2919C116.706 56.3553 116.706 56.4198 116.709 56.4833L117.578 87.9781C117.677 91.5547 120.603 94.3879 124.159 94.3913C124.162 94.3913 124.164 94.3913 124.166 94.3913C124.228 94.3913 124.291 94.3901 124.353 94.3879L126.369 94.3334C126.259 95.7867 126.054 97.2957 125.701 98.8069C123.948 106.265 119.778 107.287 119.778 107.287V107.288C119.813 107.302 121.325 107.928 123.792 107.928C123.793 107.928 123.795 107.928 123.796 107.928C123.807 107.928 123.818 107.928 123.829 107.928C126.591 107.922 130.539 107.131 134.947 103.84C134.962 103.829 134.975 103.819 134.99 103.808C135.035 103.773 135.082 103.739 135.128 103.704C135.138 103.697 135.147 103.69 135.156 103.683C135.163 103.678 135.17 103.672 135.177 103.667C137.099 102.197 139.117 99.6382 140.916 96.9596C141.606 95.9314 142.265 94.8864 142.872 93.8782L154.358 93.5611C156.961 95.2403 159.74 96.6836 162.694 97.8532C170.024 100.755 177.633 102.239 185.37 102.757C176.817 112.94 164.107 119.513 149.849 119.841C149.847 119.841 149.846 119.841 149.845 119.841C149.819 119.842 149.791 119.842 149.766 119.844C149.762 119.844 149.761 119.844 149.758 119.844C149.731 119.844 149.704 119.845 149.677 119.845H149.674C149.561 119.847 149.449 119.849 149.335 119.85C149.331 119.85 149.324 119.85 149.319 119.85C149.297 119.851 149.276 119.851 149.254 119.851C149.245 119.851 149.238 119.851 149.228 119.851C149.209 119.851 149.191 119.852 149.173 119.852C149.163 119.852 149.153 119.852 149.143 119.852C149.125 119.852 149.108 119.852 149.09 119.852C149.079 119.852 149.07 119.852 149.059 119.852C149.041 119.854 149.025 119.854 149.007 119.854C148.996 119.854 148.988 119.854 148.977 119.854C148.959 119.854 148.941 119.854 148.923 119.854C148.913 119.854 148.903 119.854 148.893 119.854C148.874 119.854 148.855 119.854 148.835 119.854C148.828 119.854 148.82 119.854 148.812 119.854C148.784 119.854 148.756 119.854 148.729 119.854Z" fill="#0F3D8B"/>
<path d="M186.807 86.0664C186.908 89.7098 184.039 92.7422 180.397 92.8423L124.354 94.388C120.712 94.4893 117.679 91.6193 117.579 87.9782L116.71 56.4834C116.608 52.8411 119.48 49.8087 123.122 49.7074L179.162 48.1618C182.802 48.0605 185.84 50.9304 185.939 54.5727L186.807 86.0664Z" fill="white"/>
<path d="M119.777 107.286C119.777 107.286 123.948 106.264 125.7 98.8062C127.452 91.347 125.665 83.7876 125.665 83.7876L146.659 86.9803C146.659 86.9803 140.521 99.5974 135.155 103.683C126.633 110.176 119.777 107.286 119.777 107.286Z" fill="white"/>
<path d="M141.054 68.0697C141.102 70.0861 139.505 71.7597 137.487 71.8076C135.471 71.8543 133.798 70.2586 133.751 68.2422C133.701 66.2246 135.3 64.5521 137.315 64.5042C139.334 64.4564 141.006 66.0533 141.054 68.0697Z" fill="#0F3D8B"/>
<path d="M156.489 67.7064C156.539 69.724 154.945 71.3965 152.926 71.4432C150.909 71.4922 149.235 69.8953 149.189 67.88C149.142 65.8625 150.739 64.1877 152.756 64.1421C154.772 64.0942 156.443 65.69 156.489 67.7064Z" fill="#7CE3E2"/>
<path d="M171.924 67.3441C171.972 69.3605 170.377 71.033 168.36 71.082C166.344 71.1287 164.671 69.5319 164.622 67.5143C164.577 65.4979 166.172 63.8254 168.187 63.7775C170.205 63.7308 171.877 65.3266 171.924 67.3441Z" fill="#0F3D8B"/>
<path d="M123.83 107.927C126.591 107.92 130.541 107.129 134.948 103.839C130.539 107.13 126.591 107.921 123.83 107.927ZM135.177 103.666C137.098 102.196 139.116 99.6374 140.917 96.9589C139.118 99.6374 137.1 102.196 135.177 103.666ZM125.701 98.8061C126.055 97.2949 126.26 95.786 126.37 94.3326L124.354 94.3872L126.375 94.3315C126.265 95.7849 126.055 97.2972 125.701 98.8061Z" fill="#0F3D8B"/>
<path d="M154.357 93.5605L154.355 93.5595L180.394 92.8417L154.357 93.5605Z" fill="#0F3D8B"/>
<path d="M142.875 93.8779C142.875 93.8768 142.875 93.8779 142.876 93.8768L154.359 93.5595L154.361 93.5606L142.875 93.8779Z" fill="#0F3D8B"/>
<path d="M124.167 94.3916C124.165 94.3916 124.162 94.3916 124.16 94.3916C120.604 94.3872 117.677 91.555 117.578 87.9784L116.709 56.4836C116.707 56.4202 116.707 56.3557 116.707 56.2922C116.709 52.7346 119.545 49.8067 123.122 49.7077L125.122 49.652C124.662 56.6572 126.023 63.5745 130.844 69.2977C137.649 77.3722 149.18 79.8649 159.198 80.5871C161.308 80.7385 163.424 80.8108 165.545 80.8108C172.586 80.8108 179.661 80.0163 186.604 78.7098L186.807 86.0666C186.809 86.1312 186.81 86.1946 186.809 86.258C186.807 89.8157 183.974 92.7446 180.396 92.8425L154.357 93.5603L142.874 93.8775C145.104 90.1807 146.66 86.9814 146.66 86.9814L125.666 83.7887C125.666 83.7887 126.803 88.5994 126.374 94.3326L124.354 94.3883C124.291 94.3905 124.229 94.3916 124.167 94.3916Z" fill="#EFF4FB"/>
<path d="M123.795 107.927C123.794 107.927 123.793 107.927 123.792 107.927C121.325 107.926 119.813 107.301 119.777 107.287V107.286C119.777 107.286 123.948 106.264 125.7 98.8061C126.054 97.2972 126.265 95.7849 126.374 94.3315C126.802 88.5983 125.665 83.7876 125.665 83.7876L146.659 86.9803C146.659 86.9803 145.103 90.1796 142.873 93.8764C142.872 93.8775 142.872 93.8764 142.872 93.8775H142.871C142.263 94.8857 141.606 95.9306 140.916 96.9589C139.115 99.6374 137.097 102.196 135.176 103.666C135.17 103.671 135.162 103.677 135.155 103.683C135.146 103.689 135.137 103.696 135.127 103.704C135.082 103.738 135.035 103.773 134.989 103.807C134.975 103.818 134.962 103.828 134.947 103.839C130.54 107.129 126.591 107.92 123.829 107.927C123.818 107.927 123.807 107.927 123.795 107.927Z" fill="#EFF4FB"/>
<path d="M129.673 82.2011L173.07 81.5064C173.224 81.5042 173.347 81.3784 173.344 81.2236C173.341 81.07 173.216 80.9475 173.062 80.9497L129.664 81.6445C129.51 81.6467 129.387 81.7736 129.391 81.9273C129.393 82.0809 129.519 82.2034 129.673 82.2011Z" fill="#27355C"/>
<path d="M127.657 84.9893L175.449 84.4069C175.603 84.4047 175.727 84.2789 175.724 84.1253C175.722 83.9716 175.596 83.848 175.443 83.8503L127.65 84.4326C127.496 84.4348 127.373 84.5606 127.375 84.7142C127.377 84.8679 127.503 84.9904 127.657 84.9893Z" fill="#27355C"/>
<path d="M385.976 53.327C385.976 82.7798 362.103 106.655 332.652 106.655C303.203 106.655 279.328 82.7798 279.328 53.327C279.328 23.8753 303.203 -9.91821e-05 332.652 -9.91821e-05C362.103 -9.91821e-05 385.976 23.8753 385.976 53.327Z" fill="#E6F0FA"/>
<path d="M380.487 53.3274C380.487 79.7489 359.073 101.165 332.653 101.165C306.236 101.165 284.82 79.7489 284.82 53.3274C284.82 26.9081 306.236 5.48981 332.653 5.48981C359.073 5.48981 380.487 26.9081 380.487 53.3274Z" fill="#0F3D8B"/>
<path d="M332.736 101.165C332.743 101.165 332.751 101.165 332.759 101.165C332.752 101.165 332.743 101.165 332.736 101.165ZM332.9 101.165C332.913 101.165 332.92 101.165 332.931 101.165C332.921 101.165 332.91 101.165 332.9 101.165ZM332.984 101.164C332.995 101.164 333.004 101.164 333.015 101.164C333.005 101.164 332.993 101.164 332.984 101.164ZM333.241 101.162C333.247 101.162 333.254 101.162 333.26 101.162C333.253 101.162 333.247 101.162 333.241 101.162ZM333.338 101.161C333.339 101.161 333.341 101.161 333.342 101.161C333.341 101.161 333.34 101.161 333.338 101.161ZM333.597 101.156C333.599 101.156 333.602 101.156 333.605 101.156C333.601 101.156 333.6 101.156 333.597 101.156ZM333.681 101.155C333.685 101.155 333.688 101.155 333.691 101.155C333.688 101.155 333.684 101.155 333.681 101.155ZM333.856 101.151C333.857 101.151 333.855 101.151 333.857 101.151H333.856ZM284.82 53.3274C284.82 53.304 284.82 53.2807 284.82 53.2573C284.82 53.2818 284.82 53.3029 284.82 53.3274ZM284.82 53.2329C284.82 53.2162 284.82 53.2028 284.82 53.1861C284.82 53.2017 284.82 53.2173 284.82 53.2329ZM284.82 53.1594C284.82 53.1427 284.82 53.1282 284.82 53.1115C284.82 53.1271 284.82 53.1438 284.82 53.1594ZM284.82 53.0893C284.82 53.0426 284.821 52.9947 284.821 52.948C284.821 52.9947 284.82 53.0415 284.82 53.0893ZM284.821 52.9235C284.821 52.909 284.821 52.8923 284.823 52.8767C284.821 52.8912 284.821 52.909 284.821 52.9235ZM284.823 52.7777C284.824 52.7577 284.824 52.7365 284.824 52.7165C284.824 52.7376 284.824 52.7565 284.823 52.7777ZM284.826 52.5396C284.827 52.5273 284.827 52.5128 284.827 52.4995C284.827 52.514 284.827 52.5251 284.826 52.5396ZM284.83 52.2981C284.831 52.2869 284.831 52.2758 284.831 52.2636C284.831 52.2747 284.831 52.2869 284.83 52.2981ZM284.833 52.228C284.833 52.2179 284.833 52.2057 284.833 52.1946C284.833 52.2068 284.833 52.2168 284.833 52.228ZM284.834 52.159C284.835 52.1467 284.835 52.1345 284.835 52.1234C284.835 52.1356 284.835 52.1456 284.834 52.159ZM284.836 52.061C284.837 52.0488 284.837 52.0377 284.837 52.0265C284.837 52.0377 284.837 52.0499 284.836 52.061ZM284.838 51.9854C284.838 51.9776 284.839 51.9676 284.839 51.9609C284.839 51.9698 284.839 51.9765 284.838 51.9854ZM284.843 51.8463V51.8441C284.843 51.8463 284.843 51.8441 284.843 51.8463ZM284.85 51.6037C284.85 51.6004 284.85 51.5981 284.85 51.5937C284.85 51.597 284.85 51.6004 284.85 51.6037Z" fill="#0F3D8B"/>
<path d="M338.876 100.764L346.354 79.5223H347.542C354.586 82.1886 361.882 83.5707 369.297 84.0681C361.779 93.0196 351.047 99.1801 338.876 100.764ZM326.239 100.738C312.182 98.8541 300.057 90.863 292.622 79.5223H333.711L326.239 100.738ZM331.048 77.0185H291.088C287.099 70.0333 284.82 61.9465 284.82 53.3266C284.82 53.3022 284.82 53.281 284.82 53.2565C284.82 53.2488 284.82 53.2399 284.82 53.2321C284.82 53.2165 284.82 53.2009 284.82 53.1853C284.82 53.1775 284.82 53.1664 284.82 53.1586C284.82 53.1431 284.82 53.1263 284.82 53.1108C284.82 53.103 284.82 53.0963 284.82 53.0885C284.82 53.0407 284.821 52.9939 284.821 52.9472C284.821 52.9394 284.821 52.9305 284.821 52.9227C284.821 52.9082 284.821 52.8904 284.823 52.876C284.823 52.866 284.823 52.8582 284.823 52.8482C284.823 52.8337 284.823 52.8203 284.823 52.8059C284.823 52.797 284.823 52.7858 284.823 52.7769C284.824 52.7558 284.824 52.7369 284.824 52.7157C284.824 52.7113 284.824 52.709 284.824 52.7046C284.824 52.6835 284.825 52.6612 284.825 52.64C284.825 52.6311 284.825 52.6189 284.825 52.61C284.826 52.5955 284.826 52.5833 284.826 52.57C284.826 52.5588 284.826 52.5499 284.826 52.5388C284.827 52.5243 284.827 52.5132 284.827 52.4987C284.827 52.4865 284.827 52.4787 284.827 52.4664C284.828 52.4509 284.828 52.4364 284.828 52.4209C284.828 52.4075 284.829 52.3919 284.829 52.3785C284.829 52.3629 284.829 52.3496 284.83 52.334C284.83 52.3229 284.83 52.3095 284.83 52.2973C284.831 52.2862 284.831 52.274 284.831 52.2628C284.831 52.2495 284.833 52.2406 284.833 52.2272C284.833 52.2161 284.833 52.2061 284.833 52.1938C284.834 52.1816 284.834 52.1704 284.834 52.1582C284.835 52.1448 284.835 52.1348 284.835 52.1226C284.835 52.1015 284.836 52.0803 284.836 52.0603C284.837 52.0491 284.837 52.0369 284.837 52.0258C284.838 52.0113 284.838 51.9991 284.838 51.9846C284.839 51.9757 284.839 51.969 284.839 51.9601C284.839 51.9434 284.84 51.9312 284.84 51.9156C284.84 51.909 284.84 51.9001 284.841 51.8945C284.841 51.8767 284.841 51.8622 284.843 51.8455C284.843 51.8433 284.843 51.8455 284.843 51.8433C284.845 51.7843 284.846 51.7287 284.848 51.6697C284.848 51.6653 284.848 51.6596 284.848 51.6552C284.849 51.6374 284.849 51.6207 284.85 51.6029C284.85 51.5996 284.85 51.5963 284.85 51.5929C285.578 31.2006 299.073 14.0688 317.579 7.92609C311.59 20.3406 310.898 33.7612 316.475 47.4866C319.815 55.7036 324.703 63.2363 331.048 69.1987V77.0185ZM335.442 74.607V72.8944C335.601 73.0134 335.76 73.1314 335.92 73.2483L335.442 74.607Z" fill="#0F3D8B"/>
<mask id="mask1_692_421" style="mask-type:luminance" maskUnits="userSpaceOnUse" x="284" y="5" width="97" height="97">
<path d="M380.476 53.3274C380.476 79.7489 359.061 101.165 332.642 101.165C306.224 101.165 284.809 79.7489 284.809 53.3274C284.809 26.9081 306.224 5.48981 332.642 5.48981C359.061 5.48981 380.476 26.9081 380.476 53.3274Z" fill="white"/>
</mask>
<g mask="url(#mask1_692_421)">
<path d="M304.763 78.1426H296.246V36.5211H304.763V78.1426Z" fill="#7CE3E2"/>
<path d="M325.86 78.1426H317.348V32.8911H325.86V78.1426Z" fill="#7CE3E2"/>
<path d="M338.441 78.1426H346.958V18.4593H338.441V78.1426Z" fill="#7CE3E2"/>
<path d="M292.606 78.1426H288.215V44.5946H292.606V78.1426Z" fill="#C1D0EE"/>
<path d="M312.732 78.1426H308.344V44.5946H312.732V78.1426Z" fill="#C1D0EE"/>
<path d="M331.031 78.1426H335.426V44.5947H331.031V78.1426Z" fill="#C1D0EE"/>
<path d="M228.652 79.5225H353.092V77.0186H228.652V79.5225Z" fill="white"/>
<path d="M331.162 114.612C330.558 116.328 328.674 117.232 326.955 116.626C325.235 116.022 324.333 114.136 324.938 112.417L341.409 65.65C342.014 63.9319 343.896 63.0261 345.613 63.6337C347.332 64.2379 348.238 66.123 347.629 67.839L331.162 114.612Z" fill="#0F3D8B"/>
<path d="M336.083 72.7473L322.246 112.04C321.153 115.148 322.785 118.555 325.891 119.646C328.997 120.741 332.406 119.108 333.498 116L347.33 76.71L336.083 72.7473Z" fill="white"/>
<path d="M331.455 101.151C329.688 101.109 327.945 100.97 326.23 100.74L336.088 72.7479L340.863 74.4316L331.455 101.151Z" fill="#0F3D8B"/>
<path d="M372.512 57.4624C368.847 69.3862 356.211 76.0797 344.292 72.4152C332.368 68.7529 325.674 56.1114 329.339 44.1898C333.003 32.2672 345.639 25.5725 357.561 29.2392C369.484 32.9014 376.179 45.5397 372.512 57.4624Z" fill="white"/>
<path d="M369.478 56.531C366.327 66.7778 355.467 72.5344 345.222 69.3807C334.971 66.2303 329.215 55.3681 332.366 45.1202C335.515 34.8723 346.377 29.1169 356.627 32.2684C366.876 35.421 372.628 46.282 369.478 56.531Z" fill="#0F3D8B"/>
<path d="M368.26 56.1023C365.31 65.6936 355.145 71.0807 345.553 68.1296C335.962 65.1817 330.577 55.0139 333.526 45.4248C336.476 35.8312 346.638 30.4453 356.231 33.3953C365.823 36.3443 371.206 46.5098 368.26 56.1023Z" fill="white"/>
<path d="M350.85 69.1338C349.077 69.1338 347.273 68.8734 345.489 68.3248C335.848 65.3602 330.438 55.1402 333.4 45.5043C335.12 39.9047 339.287 35.7361 344.365 33.8031C339.345 35.7394 335.23 39.879 333.524 45.4242C330.575 55.0133 335.96 65.1811 345.551 68.1289C347.331 68.6764 349.129 68.9368 350.898 68.9368C353.947 68.9368 356.907 68.1623 359.522 66.7502C359.587 66.7769 359.653 66.8036 359.719 66.8292C357.039 68.3159 353.991 69.1338 350.85 69.1338Z" fill="#0F3D8B"/>
<path d="M350.9 68.9375C349.131 68.9375 347.333 68.6771 345.553 68.1296C335.962 65.1818 330.577 55.014 333.526 45.4249C335.232 39.8797 339.347 35.7401 344.367 33.8038C345.722 33.2874 347.142 32.9313 348.598 32.7488C347.982 34.0141 347.456 35.345 347.027 36.7371C343.153 49.3342 348.718 62.3497 359.524 66.7508C356.909 68.163 353.949 68.9375 350.9 68.9375Z" fill="#0F3D8B"/>
</g>
<path d="M243.366 332.674C243.366 362.127 219.491 386 190.043 386C160.591 386 136.719 362.127 136.719 332.674C136.719 303.223 160.591 279.347 190.043 279.347C219.491 279.347 243.366 303.223 243.366 332.674Z" fill="white"/>
<path d="M237.874 332.674C237.874 359.094 216.461 380.513 190.042 380.513C163.623 380.513 142.207 359.094 142.207 332.674C142.207 306.255 163.623 284.836 190.042 284.836C216.461 284.836 237.874 306.255 237.874 332.674Z" fill="#0F3D8B"/>
<path d="M190.125 380.513C190.132 380.513 190.14 380.513 190.148 380.513C190.141 380.513 190.131 380.513 190.125 380.513ZM190.207 380.513C190.216 380.513 190.226 380.513 190.236 380.513C190.226 380.513 190.217 380.513 190.207 380.513ZM190.372 380.512C190.384 380.512 190.392 380.512 190.403 380.512C190.393 380.512 190.382 380.512 190.372 380.512ZM190.542 380.51C190.552 380.51 190.557 380.51 190.566 380.51C190.558 380.51 190.55 380.51 190.542 380.51ZM142.207 332.674C142.207 332.651 142.207 332.627 142.207 332.604C142.207 332.628 142.207 332.649 142.207 332.674ZM142.207 332.579C142.207 332.563 142.207 332.549 142.207 332.532C142.207 332.548 142.207 332.564 142.207 332.579ZM142.207 332.506C142.207 332.489 142.207 332.474 142.207 332.457C142.207 332.474 142.207 332.49 142.207 332.506ZM142.207 332.435C142.207 332.389 142.208 332.341 142.208 332.295C142.208 332.341 142.207 332.388 142.207 332.435ZM142.208 332.27C142.208 332.254 142.208 332.239 142.208 332.223C142.208 332.238 142.208 332.256 142.208 332.27ZM142.21 332.052C142.21 332.03 142.211 332.009 142.211 331.987C142.211 332.007 142.21 332.031 142.21 332.052ZM142.213 331.886C142.213 331.873 142.214 331.858 142.214 331.846C142.214 331.861 142.213 331.872 142.213 331.886ZM142.214 331.814C142.215 331.799 142.215 331.783 142.215 331.768C142.215 331.784 142.215 331.797 142.214 331.814ZM142.216 331.725C142.216 331.711 142.216 331.695 142.217 331.681C142.216 331.696 142.216 331.71 142.216 331.725ZM142.217 331.645C142.217 331.633 142.218 331.622 142.218 331.61C142.218 331.621 142.217 331.633 142.217 331.645ZM142.219 331.575C142.219 331.564 142.219 331.552 142.219 331.542C142.219 331.553 142.219 331.563 142.219 331.575ZM142.22 331.504C142.22 331.493 142.221 331.482 142.221 331.47C142.221 331.483 142.22 331.492 142.22 331.504ZM142.223 331.405C142.224 331.394 142.224 331.385 142.224 331.373C142.224 331.384 142.224 331.394 142.223 331.405ZM142.225 331.332C142.225 331.324 142.226 331.314 142.226 331.306C142.225 331.316 142.225 331.322 142.225 331.332ZM142.235 331.018C142.235 331.013 142.235 331.007 142.235 331.003C142.235 331.007 142.235 331.014 142.235 331.018ZM142.237 330.95C142.237 330.947 142.237 330.944 142.237 330.939C142.237 330.942 142.237 330.948 142.237 330.95Z" fill="#0F3D8B"/>
<path d="M190.042 380.513C163.623 380.513 142.207 359.094 142.207 332.674C142.207 332.649 142.207 332.628 142.207 332.604C142.207 332.596 142.207 332.587 142.207 332.579C142.207 332.564 142.207 332.548 142.207 332.532C142.207 332.525 142.207 332.514 142.207 332.506C142.207 332.49 142.207 332.474 142.207 332.457C142.207 332.449 142.207 332.443 142.207 332.435C142.207 332.388 142.208 332.341 142.208 332.295C142.208 332.287 142.208 332.278 142.208 332.27C142.208 332.256 142.208 332.238 142.208 332.223C142.208 332.213 142.209 332.205 142.209 332.195C142.209 332.181 142.209 332.168 142.209 332.153C142.209 332.144 142.209 332.133 142.209 332.124C142.21 332.103 142.21 332.083 142.21 332.063C142.21 332.059 142.21 332.055 142.21 332.052C142.21 332.031 142.211 332.007 142.211 331.987C142.211 331.977 142.211 331.966 142.211 331.957C142.211 331.943 142.213 331.931 142.213 331.916C142.213 331.906 142.213 331.896 142.213 331.886C142.213 331.872 142.214 331.861 142.214 331.846C142.214 331.834 142.214 331.825 142.214 331.814C142.215 331.797 142.215 331.784 142.215 331.768C142.215 331.753 142.216 331.74 142.216 331.725C142.216 331.71 142.216 331.696 142.217 331.681C142.217 331.669 142.217 331.656 142.217 331.645C142.217 331.633 142.218 331.621 142.218 331.61C142.218 331.598 142.218 331.587 142.219 331.575C142.219 331.563 142.219 331.553 142.219 331.542C142.22 331.529 142.22 331.518 142.22 331.504C142.22 331.492 142.221 331.483 142.221 331.47C142.221 331.45 142.223 331.427 142.223 331.405C142.224 331.394 142.224 331.384 142.224 331.373C142.224 331.359 142.225 331.345 142.225 331.332C142.225 331.322 142.225 331.316 142.226 331.306C142.226 331.292 142.226 331.277 142.227 331.262C142.227 331.256 142.227 331.247 142.227 331.242C142.228 331.225 142.228 331.208 142.229 331.192C142.23 331.134 142.233 331.076 142.235 331.018C142.235 331.014 142.235 331.007 142.235 331.003C142.236 330.984 142.236 330.969 142.237 330.95C142.237 330.948 142.237 330.942 142.237 330.939C142.965 310.547 156.46 293.417 174.967 287.272C172.52 292.345 170.958 297.583 170.345 302.941H165.744V314.108H160.829V319.355V322.397V332.874C160.464 333.721 160.262 334.655 160.262 335.636V365.79H219.821V364.811V362.684C222.094 363.021 224.382 363.261 226.683 363.414C218.027 373.72 205.113 380.329 190.648 380.509C190.643 380.509 190.638 380.509 190.633 380.509C190.611 380.509 190.59 380.509 190.566 380.51C190.557 380.51 190.552 380.51 190.542 380.51C190.523 380.51 190.504 380.51 190.485 380.51C190.475 380.51 190.466 380.51 190.456 380.512C190.438 380.512 190.421 380.512 190.403 380.512C190.392 380.512 190.384 380.512 190.372 380.512C190.354 380.512 190.338 380.512 190.319 380.512C190.31 380.512 190.299 380.512 190.289 380.513C190.271 380.513 190.254 380.513 190.236 380.513C190.226 380.513 190.216 380.513 190.207 380.513C190.187 380.513 190.168 380.513 190.148 380.513C190.14 380.513 190.132 380.513 190.125 380.513C190.097 380.513 190.07 380.513 190.042 380.513Z" fill="#0F3D8B"/>
<path d="M196.966 319.354C195.192 316.251 191.453 314.107 187.117 314.107H160.824V319.354V322.397V361.621H219.248V319.354H196.966Z" fill="#304782"/>
<path d="M165.746 342.03H214.34V302.94H165.746V342.03Z" fill="white"/>
<path d="M210.629 308.569H169.454C169.3 308.569 169.176 308.694 169.176 308.848C169.176 309.001 169.3 309.126 169.454 309.126H210.629C210.783 309.126 210.908 309.001 210.908 308.848C210.908 308.694 210.783 308.569 210.629 308.569Z" fill="black"/>
<path d="M210.629 312.899H169.454C169.3 312.899 169.176 313.024 169.176 313.178C169.176 313.331 169.3 313.456 169.454 313.456H210.629C210.783 313.456 210.908 313.331 210.908 313.178C210.908 313.024 210.783 312.899 210.629 312.899Z" fill="black"/>
<path d="M210.629 317.228H169.454C169.3 317.228 169.176 317.353 169.176 317.507C169.176 317.66 169.3 317.785 169.454 317.785H210.629C210.783 317.785 210.908 317.66 210.908 317.507C210.908 317.353 210.783 317.228 210.629 317.228Z" fill="black"/>
<path d="M210.629 321.558H169.454C169.3 321.558 169.176 321.681 169.176 321.835C169.176 321.99 169.3 322.114 169.454 322.114H210.629C210.783 322.114 210.908 321.99 210.908 321.835C210.908 321.681 210.783 321.558 210.629 321.558Z" fill="black"/>
<path d="M165.746 328.806V302.941H175.74C176.346 304.9 177.138 306.781 178.092 308.569H169.456C169.302 308.569 169.178 308.694 169.178 308.847C169.178 309.001 169.302 309.126 169.456 309.126H178.397C179.13 310.438 179.951 311.698 180.851 312.899H169.456C169.302 312.899 169.178 313.024 169.178 313.177C169.178 313.331 169.302 313.456 169.456 313.456H181.278C182.322 314.793 183.465 316.053 184.694 317.229H169.456C169.302 317.229 169.178 317.354 169.178 317.507C169.178 317.661 169.302 317.785 169.456 317.785H185.288C186.808 319.175 188.447 320.437 190.184 321.558H169.456C169.302 321.558 169.178 321.681 169.178 321.835C169.178 321.99 169.302 322.114 169.456 322.114H191.074C193.695 323.699 196.516 324.964 199.461 325.857C202.2 326.687 204.93 327.066 207.619 327.066C209.894 327.066 212.14 326.795 214.34 326.293V328.806C213.854 328.698 213.349 328.642 212.83 328.642H167.257C166.739 328.642 166.232 328.699 165.746 328.806Z" fill="white"/>
<path d="M178.395 309.126H169.454C169.3 309.126 169.176 309.001 169.176 308.848C169.176 308.694 169.3 308.569 169.454 308.569H178.09C178.19 308.755 178.291 308.941 178.395 309.126Z" fill="black"/>
<path d="M181.276 313.456H169.454C169.3 313.456 169.176 313.331 169.176 313.178C169.176 313.024 169.3 312.899 169.454 312.899H180.849C180.99 313.086 181.132 313.272 181.276 313.456Z" fill="black"/>
<path d="M185.286 317.785H169.454C169.3 317.785 169.176 317.66 169.176 317.507C169.176 317.353 169.3 317.228 169.454 317.228H184.692C184.886 317.416 185.086 317.603 185.286 317.785Z" fill="black"/>
<path d="M191.072 322.114H169.454C169.3 322.114 169.176 321.99 169.176 321.835C169.176 321.681 169.3 321.558 169.454 321.558H190.182C190.476 321.747 190.773 321.933 191.072 322.114Z" fill="black"/>
<path d="M219.821 365.79V335.636C219.821 331.772 216.689 328.642 212.827 328.642H167.254C163.393 328.642 160.262 331.772 160.262 335.636V365.79H219.821Z" fill="#7CE3E2"/>
<path d="M213.178 331.299H166.962C166.808 331.299 166.684 331.423 166.684 331.577C166.684 331.731 166.808 331.855 166.962 331.855H213.178C213.331 331.855 213.456 331.731 213.456 331.577C213.456 331.423 213.331 331.299 213.178 331.299Z" fill="black"/>
<path d="M219.821 365.79H160.262V335.636C160.262 331.772 163.393 328.642 167.254 328.642H172.931C173.123 329.541 173.387 330.427 173.718 331.299H166.96C166.807 331.299 166.682 331.424 166.682 331.578C166.682 331.731 166.807 331.856 166.96 331.856H173.938C177.866 341.369 189.429 349.189 196.836 354.577C203.902 359.717 211.703 363.095 219.821 364.811V365.79Z" fill="#7CE3E2"/>
<path d="M173.94 331.855H166.962C166.808 331.855 166.684 331.731 166.684 331.577C166.684 331.423 166.808 331.299 166.962 331.299H173.719C173.789 331.485 173.863 331.672 173.94 331.855Z" fill="#263148"/>
<path d="M434.174 326.773C434.174 356.225 410.3 380.099 380.851 380.099C351.399 380.099 327.527 356.225 327.527 326.773C327.527 297.322 351.399 273.446 380.851 273.446C410.3 273.446 434.174 297.322 434.174 326.773Z" fill="#E6F0FA"/>
<path d="M428.687 326.773C428.687 353.194 407.272 374.61 380.854 374.61C354.435 374.61 333.02 353.194 333.02 326.773C333.02 300.353 354.435 278.935 380.854 278.935C407.272 278.935 428.687 300.353 428.687 326.773Z" fill="#0F3D8B"/>
<path d="M380.936 374.61C380.945 374.61 380.951 374.61 380.959 374.61C380.953 374.61 380.944 374.61 380.936 374.61ZM381.102 374.609C381.113 374.609 381.121 374.609 381.132 374.609C381.122 374.609 381.111 374.609 381.102 374.609ZM381.184 374.609C381.195 374.609 381.204 374.609 381.215 374.609C381.205 374.609 381.194 374.609 381.184 374.609ZM381.266 374.608C381.278 374.608 381.286 374.608 381.298 374.608C381.288 374.608 381.276 374.608 381.266 374.608ZM381.352 374.608C381.361 374.608 381.37 374.608 381.38 374.607C381.371 374.608 381.361 374.608 381.352 374.608ZM381.536 374.606C381.539 374.606 381.54 374.606 381.543 374.606C381.541 374.606 381.538 374.606 381.536 374.606ZM381.797 374.601C381.801 374.601 381.804 374.601 381.807 374.601C381.803 374.601 381.801 374.601 381.797 374.601ZM381.881 374.599C381.884 374.599 381.89 374.599 381.893 374.599C381.888 374.599 381.885 374.599 381.881 374.599ZM381.967 374.598C381.97 374.598 381.973 374.597 381.974 374.597C381.973 374.597 381.97 374.597 381.967 374.598ZM382.055 374.596C382.058 374.596 382.056 374.596 382.058 374.596C382.056 374.596 382.056 374.596 382.055 374.596ZM333.02 326.773C333.02 326.749 333.02 326.726 333.02 326.703C333.02 326.727 333.02 326.748 333.02 326.773ZM333.02 326.678C333.02 326.661 333.02 326.648 333.02 326.63C333.02 326.647 333.02 326.663 333.02 326.678ZM333.02 326.605C333.02 326.588 333.02 326.572 333.02 326.556C333.02 326.572 333.02 326.589 333.02 326.605ZM333.021 326.533C333.021 326.488 333.021 326.44 333.021 326.393C333.021 326.44 333.021 326.487 333.021 326.533ZM333.022 326.369C333.022 326.353 333.022 326.338 333.022 326.322C333.022 326.337 333.022 326.354 333.022 326.369ZM333.024 326.151C333.024 326.128 333.024 326.107 333.024 326.086C333.024 326.106 333.024 326.13 333.024 326.151ZM333.026 325.985C333.026 325.972 333.026 325.957 333.026 325.945C333.026 325.959 333.026 325.97 333.026 325.985ZM333.027 325.913C333.027 325.898 333.027 325.881 333.028 325.867C333.027 325.882 333.027 325.896 333.027 325.913ZM333.028 325.824C333.03 325.81 333.03 325.793 333.03 325.78C333.03 325.795 333.03 325.809 333.028 325.824ZM333.031 325.743C333.031 325.732 333.031 325.721 333.031 325.709C333.031 325.72 333.031 325.732 333.031 325.743ZM333.032 325.673C333.032 325.663 333.033 325.651 333.033 325.641C333.033 325.652 333.032 325.662 333.032 325.673ZM333.034 325.603C333.034 325.592 333.034 325.581 333.034 325.569C333.034 325.582 333.034 325.591 333.034 325.603ZM333.036 325.504C333.036 325.493 333.036 325.484 333.037 325.472C333.036 325.483 333.036 325.493 333.036 325.504ZM333.038 325.431C333.038 325.423 333.038 325.413 333.038 325.405C333.038 325.415 333.038 325.421 333.038 325.431ZM333.047 325.115C333.047 325.111 333.048 325.106 333.048 325.101C333.048 325.107 333.047 325.11 333.047 325.115ZM333.05 325.048C333.05 325.046 333.051 325.042 333.051 325.04C333.051 325.043 333.051 325.046 333.05 325.048Z" fill="#0F3D8B"/>
<path d="M417.036 358.049V357.48C417.189 357.491 417.341 357.502 417.494 357.512C417.342 357.692 417.19 357.872 417.036 358.049ZM343.793 357.019C337.059 348.777 333.02 338.246 333.02 326.772C333.02 326.748 333.02 326.726 333.02 326.702C333.02 326.694 333.02 326.685 333.02 326.678C333.02 326.662 333.02 326.646 333.02 326.63C333.02 326.623 333.02 326.612 333.02 326.604C333.02 326.588 333.02 326.572 333.02 326.555C333.02 326.547 333.021 326.541 333.021 326.533C333.021 326.486 333.021 326.439 333.021 326.393C333.021 326.385 333.021 326.376 333.022 326.368C333.022 326.354 333.022 326.336 333.022 326.321C333.022 326.311 333.022 326.304 333.022 326.294C333.022 326.279 333.022 326.266 333.022 326.251C333.023 326.242 333.023 326.231 333.023 326.222C333.023 326.201 333.023 326.181 333.023 326.161C333.023 326.157 333.024 326.153 333.024 326.15C333.024 326.129 333.024 326.106 333.024 326.085C333.024 326.075 333.025 326.064 333.025 326.055C333.025 326.041 333.025 326.029 333.025 326.014C333.025 326.004 333.026 325.994 333.026 325.984C333.026 325.97 333.026 325.959 333.026 325.944C333.026 325.932 333.027 325.923 333.027 325.912C333.027 325.895 333.027 325.882 333.028 325.866C333.028 325.851 333.028 325.838 333.028 325.823C333.03 325.808 333.03 325.794 333.03 325.779C333.03 325.767 333.031 325.754 333.031 325.743C333.031 325.732 333.031 325.719 333.031 325.708C333.032 325.696 333.032 325.685 333.032 325.673C333.032 325.662 333.033 325.651 333.033 325.64C333.033 325.627 333.033 325.616 333.034 325.603C333.034 325.59 333.034 325.581 333.034 325.568C333.035 325.548 333.035 325.525 333.036 325.503C333.036 325.492 333.036 325.482 333.037 325.471C333.037 325.457 333.037 325.443 333.038 325.43C333.038 325.42 333.038 325.414 333.038 325.404C333.04 325.39 333.04 325.376 333.04 325.36C333.041 325.354 333.041 325.345 333.041 325.34C333.041 325.323 333.042 325.307 333.042 325.29C333.044 325.231 333.046 325.173 333.047 325.114C333.047 325.11 333.048 325.106 333.048 325.101C333.048 325.083 333.05 325.066 333.05 325.047C333.051 325.045 333.051 325.043 333.051 325.039C333.776 304.645 347.271 287.515 365.779 281.37C362.607 287.947 360.92 294.805 360.865 301.841H343.793V357.019Z" fill="#0F3D8B"/>
<mask id="mask2_692_421" style="mask-type:luminance" maskUnits="userSpaceOnUse" x="333" y="278" width="96" height="97">
<path d="M428.683 326.772C428.683 353.193 407.268 374.609 380.85 374.609C354.431 374.609 333.016 353.193 333.016 326.772C333.016 300.352 354.431 278.934 380.85 278.934C407.268 278.934 428.683 300.352 428.683 326.772Z" fill="white"/>
</mask>
<g mask="url(#mask2_692_421)">
<path d="M343.793 388.472H417.036V301.841H343.793V388.472Z" fill="#C1D0EE"/>
<path d="M411.257 334.034C411.257 338.687 407.49 342.455 402.842 342.455H357.981C353.341 342.455 349.574 338.687 349.574 334.034C349.574 329.396 353.341 325.628 357.981 325.628H402.842C407.49 325.628 411.257 329.396 411.257 334.034Z" fill="white"/>
<path d="M411.257 353.175C411.257 357.818 407.49 361.587 402.842 361.587H357.981C353.341 361.587 349.574 357.818 349.574 353.175C349.574 348.53 353.341 344.765 357.981 344.765H402.842C407.49 344.765 411.257 348.53 411.257 353.175Z" fill="white"/>
<path d="M411.257 372.305C411.257 376.947 407.49 380.722 402.842 380.722H357.981C353.341 380.722 349.574 376.947 349.574 372.305C349.574 367.664 353.341 363.899 357.981 363.899H402.842C407.49 363.899 411.257 367.664 411.257 372.305Z" fill="white"/>
<path d="M354.688 339.321H406.141V328.598H354.688V339.321Z" fill="#C1D0EE"/>
<path d="M354.688 358.537H406.141V347.811H354.688V358.537Z" fill="#C1D0EE"/>
<path d="M354.688 377.669H406.141V366.946H354.688V377.669Z" fill="#C1D0EE"/>
<path d="M394.067 333.923H366.77V331.277H394.067V333.923Z" fill="#7CE3E2"/>
<path d="M411.264 314.534C411.264 319.184 407.494 322.944 402.851 322.944H357.986C353.342 322.944 349.574 319.184 349.574 314.534C349.574 309.888 353.342 306.121 357.986 306.121H402.851C407.494 306.121 411.264 309.888 411.264 314.534Z" fill="white"/>
<path d="M354.691 319.811H406.14V309.088H354.691V319.811Z" fill="#C1D0EE"/>
<path d="M394.065 314.412H366.766V311.769H394.065V314.412Z" fill="#7CE3E2"/>
<path d="M366.77 353.051H394.067V350.416H366.77V353.051Z" fill="#7CE3E2"/>
<path d="M366.77 372.182H394.067V369.547H366.77V372.182Z" fill="#7CE3E2"/>
<path d="M356.368 316.522H403.221C403.374 316.522 403.499 316.398 403.499 316.244C403.499 316.09 403.374 315.966 403.221 315.966H356.368C356.214 315.966 356.09 316.09 356.09 316.244C356.09 316.398 356.214 316.522 356.368 316.522Z" fill="#7CE3E2"/>
<path d="M356.106 336.562H404.259C404.412 336.562 404.537 336.438 404.537 336.284C404.537 336.131 404.412 336.006 404.259 336.006H356.106C355.953 336.006 355.828 336.131 355.828 336.284C355.828 336.438 355.953 336.562 356.106 336.562Z" fill="#7CE3E2"/>
<path d="M356.626 356.086H405.822C405.975 356.086 406.1 355.961 406.1 355.808C406.1 355.654 405.975 355.529 405.822 355.529H356.626C356.472 355.529 356.348 355.654 356.348 355.808C356.348 355.961 356.472 356.086 356.626 356.086Z" fill="#7CE3E2"/>
<path d="M352.908 365.603C349.508 363.15 346.441 360.262 343.793 357.019V301.841H352.081C352.725 303.592 353.377 305.346 354.039 307.101C351.381 308.514 349.57 311.313 349.57 314.533C349.57 319.184 353.338 322.944 357.983 322.944H360.456C360.852 323.842 361.255 324.737 361.662 325.628H357.981C353.341 325.628 349.575 329.396 349.575 334.034C349.575 338.687 353.341 342.455 357.981 342.455H370.532C371.008 343.231 371.492 343.999 371.985 344.764H357.981C353.341 344.764 349.575 348.53 349.575 353.175C349.575 357.817 353.341 361.586 357.981 361.586H385.471C386.287 362.384 387.116 363.154 387.962 363.899H357.981C356.076 363.899 354.319 364.533 352.908 365.603Z" fill="#C1D0EE"/>
<path d="M370.531 342.455H357.981C353.341 342.455 349.574 338.687 349.574 334.034C349.574 329.396 353.341 325.628 357.981 325.628H361.662C362.117 326.623 362.58 327.612 363.05 328.597H354.688V339.32H368.666C369.274 340.374 369.896 341.42 370.531 342.455Z" fill="white"/>
<path d="M385.471 361.587H357.981C353.341 361.587 349.574 357.818 349.574 353.175C349.574 348.53 353.341 344.765 357.981 344.765H371.985C372.647 345.791 373.323 346.805 374.018 347.81H354.688V358.537H382.531C383.076 359.131 383.63 359.72 384.192 360.302C384.614 360.737 385.04 361.166 385.471 361.587Z" fill="white"/>
<path d="M391.687 366.946H354.871C354.204 366.515 353.551 366.067 352.906 365.603C354.317 364.534 356.074 363.899 357.979 363.899H387.959C389.172 364.969 390.416 365.985 391.687 366.946Z" fill="white"/>
<path d="M368.666 339.321H354.688V328.598H363.05C364.246 331.1 365.498 333.574 366.814 336.006H356.106C355.953 336.006 355.828 336.131 355.828 336.284C355.828 336.438 355.953 336.563 356.106 336.563H367.117C367.623 337.488 368.139 338.409 368.666 339.321Z" fill="#C1D0EE"/>
<path d="M382.53 358.537H354.688V347.811H374.017C374.622 348.688 375.242 349.557 375.873 350.416H366.767V353.051H377.877C378.534 353.888 379.207 354.713 379.892 355.53H356.626C356.472 355.53 356.348 355.655 356.348 355.808C356.348 355.962 356.472 356.087 356.626 356.087H380.364C381.07 356.915 381.793 357.731 382.53 358.537Z" fill="#C1D0EE"/>
<path d="M380.851 374.61C371.273 374.61 362.352 371.795 354.871 366.946H391.687C393.811 368.556 396.012 370.016 398.279 371.336C393.232 373.312 387.768 374.455 382.055 374.596C382.054 374.596 382.055 374.596 382.053 374.596C382.026 374.596 381.999 374.597 381.972 374.597C381.971 374.597 381.967 374.598 381.965 374.598C381.939 374.598 381.916 374.599 381.89 374.599C381.887 374.599 381.882 374.599 381.878 374.599C381.853 374.6 381.83 374.6 381.805 374.601C381.801 374.601 381.798 374.601 381.795 374.601C381.767 374.601 381.739 374.603 381.712 374.603H381.711C381.656 374.604 381.597 374.605 381.541 374.606C381.538 374.606 381.537 374.606 381.533 374.606C381.51 374.606 381.482 374.606 381.458 374.607C381.452 374.607 381.445 374.607 381.439 374.607C381.419 374.607 381.397 374.607 381.377 374.607C381.367 374.608 381.359 374.608 381.35 374.608C381.332 374.608 381.313 374.608 381.295 374.608C381.284 374.608 381.275 374.608 381.264 374.608C381.248 374.609 381.229 374.609 381.213 374.609C381.202 374.609 381.193 374.609 381.182 374.609C381.165 374.609 381.145 374.609 381.129 374.609C381.118 374.609 381.11 374.609 381.099 374.609C381.081 374.61 381.064 374.61 381.046 374.61C381.036 374.61 381.026 374.61 381.016 374.61C380.997 374.61 380.977 374.61 380.957 374.61C380.949 374.61 380.942 374.61 380.933 374.61C380.907 374.61 380.879 374.61 380.851 374.61ZM366.766 369.547V372.182H394.064V369.547H366.766Z" fill="#C1D0EE"/>
<path d="M360.46 322.944H357.986C353.342 322.944 349.574 319.184 349.574 314.534C349.574 311.313 351.385 308.514 354.043 307.101C354.293 307.763 354.546 308.425 354.799 309.088H354.696V319.811H359.105C359.55 320.859 360.001 321.903 360.46 322.944Z" fill="white"/>
<path d="M359.1 319.811H354.691V309.087H354.794C355.673 311.383 356.575 313.68 357.504 315.966H356.367C356.214 315.966 356.089 316.09 356.089 316.244C356.089 316.398 356.214 316.522 356.367 316.522H357.73C358.18 317.619 358.637 318.718 359.1 319.811Z" fill="#C1D0EE"/>
<path d="M377.879 353.051H366.77V350.416H375.875C376.529 351.304 377.197 352.183 377.879 353.051Z" fill="#7CE3E2"/>
<path d="M366.77 372.182H394.067V369.547H366.77V372.182Z" fill="#7CE3E2"/>
<path d="M357.732 316.522H356.368C356.215 316.522 356.09 316.398 356.09 316.244C356.09 316.09 356.215 315.966 356.368 315.966H357.506C357.582 316.153 357.656 316.335 357.732 316.522Z" fill="#24335C"/>
<path d="M367.117 336.562H356.106C355.953 336.562 355.828 336.438 355.828 336.284C355.828 336.131 355.953 336.006 356.106 336.006H366.814C366.915 336.192 367.016 336.377 367.117 336.562Z" fill="#24335C"/>
<path d="M380.364 356.086H356.626C356.472 356.086 356.348 355.961 356.348 355.808C356.348 355.654 356.472 355.529 356.626 355.529H379.892C380.049 355.715 380.206 355.9 380.364 356.086Z" fill="#24335C"/>
</g>
<path d="M564.002 202.837C564.002 232.289 540.127 256.164 510.678 256.164C481.229 256.164 457.355 232.289 457.355 202.837C457.355 173.385 481.229 149.51 510.678 149.51C540.127 149.51 564.002 173.385 564.002 202.837Z" fill="#E6F0FA"/>
<path d="M558.513 202.837C558.513 229.258 537.097 250.675 510.678 250.675C484.259 250.675 462.844 229.258 462.844 202.837C462.844 176.416 484.259 154.998 510.678 154.998C537.097 154.998 558.513 176.416 558.513 202.837Z" fill="#0F3D8B"/>
<path d="M510.76 250.675C510.768 250.675 510.776 250.675 510.784 250.675C510.776 250.675 510.767 250.675 510.76 250.675ZM510.925 250.675C510.935 250.675 510.946 250.675 510.955 250.675C510.945 250.675 510.935 250.675 510.925 250.675ZM511.007 250.674C511.018 250.674 511.027 250.674 511.038 250.674C511.028 250.674 511.017 250.674 511.007 250.674ZM511.092 250.674C511.101 250.674 511.111 250.674 511.121 250.674C511.111 250.674 511.102 250.674 511.092 250.674ZM511.177 250.673C511.186 250.673 511.193 250.673 511.202 250.673C511.194 250.673 511.185 250.673 511.177 250.673ZM511.794 250.663C511.796 250.663 511.794 250.663 511.796 250.663H511.794ZM462.844 202.837C462.844 202.814 462.844 202.789 462.844 202.767C462.844 202.79 462.844 202.813 462.844 202.837ZM462.844 202.743C462.844 202.726 462.844 202.711 462.844 202.695C462.844 202.709 462.844 202.728 462.844 202.743ZM462.844 202.669C462.845 202.652 462.845 202.638 462.845 202.621C462.845 202.637 462.845 202.652 462.844 202.669ZM462.845 202.597C462.845 202.576 462.845 202.552 462.845 202.53C462.845 202.551 462.845 202.577 462.845 202.597ZM462.847 202.286C462.847 202.267 462.847 202.252 462.848 202.233C462.847 202.251 462.847 202.269 462.847 202.286ZM462.848 202.205C462.848 202.186 462.848 202.17 462.849 202.151C462.848 202.168 462.848 202.187 462.848 202.205ZM462.849 202.117C462.849 202.105 462.849 202.093 462.849 202.082C462.849 202.093 462.849 202.106 462.849 202.117ZM462.85 202.047C462.85 202.035 462.85 202.025 462.85 202.012C462.85 202.023 462.85 202.036 462.85 202.047ZM462.852 201.975C462.852 201.964 462.852 201.954 462.853 201.941C462.852 201.953 462.852 201.964 462.852 201.975ZM462.854 201.871C462.854 201.862 462.854 201.855 462.854 201.846C462.854 201.853 462.854 201.863 462.854 201.871ZM462.855 201.803C462.855 201.793 462.855 201.786 462.856 201.776C462.855 201.786 462.855 201.794 462.855 201.803ZM462.856 201.734C462.857 201.726 462.857 201.718 462.857 201.709C462.857 201.719 462.857 201.724 462.856 201.734ZM462.862 201.545C462.862 201.544 462.862 201.541 462.862 201.539C462.862 201.541 462.862 201.543 462.862 201.545ZM462.863 201.486C462.863 201.483 462.863 201.477 462.863 201.474C462.863 201.478 462.863 201.482 462.863 201.486ZM462.865 201.421C462.865 201.418 462.865 201.414 462.865 201.411C462.865 201.414 462.865 201.417 462.865 201.421Z" fill="#E6F0FA"/>
<path d="M510.678 250.675C510.668 250.675 510.659 250.675 510.649 250.675C518.918 250.67 526.696 248.567 533.478 244.871C537.465 242.698 541.107 239.976 544.305 236.804L544.311 233.326C545.312 233.427 546.315 233.511 547.321 233.579C538.766 243.762 526.055 250.335 511.796 250.663C511.794 250.663 511.796 250.663 511.794 250.663C511.766 250.664 511.739 250.664 511.712 250.665C511.71 250.665 511.709 250.665 511.707 250.665C511.679 250.665 511.651 250.666 511.624 250.666C511.51 250.668 511.397 250.67 511.283 250.671C511.279 250.671 511.273 250.671 511.269 250.671C511.245 250.673 511.224 250.673 511.202 250.673C511.193 250.673 511.186 250.673 511.177 250.673C511.159 250.673 511.14 250.674 511.121 250.674C511.111 250.674 511.101 250.674 511.092 250.674C511.074 250.674 511.056 250.674 511.038 250.674C511.027 250.674 511.018 250.674 511.007 250.674C510.989 250.675 510.973 250.675 510.955 250.675C510.946 250.675 510.935 250.675 510.925 250.675C510.907 250.675 510.889 250.675 510.871 250.675C510.861 250.675 510.851 250.675 510.843 250.675C510.823 250.675 510.804 250.675 510.784 250.675C510.776 250.675 510.768 250.675 510.76 250.675C510.732 250.675 510.706 250.675 510.678 250.675ZM476.967 236.776C468.244 228.11 462.844 216.105 462.844 202.837C462.844 202.813 462.844 202.79 462.844 202.767C462.844 202.759 462.844 202.75 462.844 202.743C462.844 202.728 462.844 202.709 462.844 202.695C462.844 202.687 462.844 202.677 462.844 202.669C462.845 202.652 462.845 202.637 462.845 202.621C462.845 202.614 462.845 202.605 462.845 202.597C462.845 202.577 462.845 202.551 462.845 202.53C462.845 202.529 462.845 202.528 462.845 202.527C462.845 202.503 462.845 202.481 462.846 202.458C462.846 202.449 462.846 202.44 462.846 202.431C462.846 202.417 462.846 202.402 462.846 202.388C462.846 202.378 462.846 202.366 462.846 202.356C462.846 202.343 462.847 202.332 462.847 202.319C462.847 202.309 462.847 202.296 462.847 202.286C462.847 202.269 462.847 202.251 462.848 202.233C462.848 202.224 462.848 202.214 462.848 202.205C462.848 202.187 462.848 202.168 462.849 202.151C462.849 202.139 462.849 202.128 462.849 202.117C462.849 202.106 462.849 202.093 462.849 202.082C462.85 202.069 462.85 202.058 462.85 202.047C462.85 202.036 462.85 202.023 462.85 202.012C462.852 202 462.852 201.987 462.852 201.975C462.852 201.964 462.852 201.953 462.853 201.941C462.853 201.919 462.853 201.895 462.854 201.871C462.854 201.863 462.854 201.853 462.854 201.846C462.855 201.832 462.855 201.817 462.855 201.803C462.855 201.794 462.855 201.786 462.856 201.776C462.856 201.762 462.856 201.748 462.856 201.734C462.857 201.724 462.857 201.719 462.857 201.709C462.857 201.694 462.858 201.68 462.858 201.665C462.858 201.66 462.858 201.653 462.858 201.646C462.859 201.612 462.86 201.58 462.862 201.545C462.862 201.543 462.862 201.541 462.862 201.539C462.862 201.521 462.863 201.504 462.863 201.486C462.863 201.482 462.863 201.478 462.863 201.474C462.864 201.456 462.864 201.438 462.865 201.421C462.865 201.417 462.865 201.414 462.865 201.411C463.466 180.882 477.004 163.611 495.606 157.437C489.616 169.85 488.923 183.273 494.5 196.997C494.917 198.024 495.358 199.038 495.823 200.042C484.699 206.004 477.026 218.46 476.974 232.893C476.974 232.914 476.974 232.938 476.974 232.959L476.967 236.776Z" fill="#0F3D8B"/>
<mask id="mask3_692_421" style="mask-type:luminance" maskUnits="userSpaceOnUse" x="462" y="154" width="97" height="97">
<path d="M558.452 202.836C558.452 229.257 537.039 250.674 510.619 250.674C484.201 250.674 462.785 229.257 462.785 202.836C462.785 176.415 484.201 154.997 510.619 154.997C537.039 154.997 558.452 176.415 558.452 202.836Z" fill="white"/>
</mask>
<g mask="url(#mask3_692_421)">
<path d="M514.84 196.573C520.718 194.361 525.013 187.521 525.029 179.415C525.046 169.505 518.669 161.458 510.779 161.444C502.89 161.429 496.48 169.451 496.458 179.363C496.446 187.468 500.712 194.322 506.585 196.559C489.935 198.752 477.012 214.191 476.975 232.958L476.93 257.447L544.264 257.574L544.312 233.083C544.347 214.318 531.481 198.828 514.84 196.573Z" fill="white"/>
<path d="M510.619 250.673C497.497 250.673 485.607 245.388 476.965 236.831L476.973 232.957C476.973 232.935 476.973 232.913 476.973 232.891C477.038 214.283 489.78 198.972 506.244 196.619C509.62 216.87 517.891 235.773 533.476 244.87C526.694 248.565 518.916 250.668 510.647 250.673C510.638 250.673 510.629 250.673 510.619 250.673Z" fill="white"/>
<path d="M507.411 209.191L505.387 202.825L514.448 202.739L512.809 209.105L507.411 209.191Z" fill="#7CE3E2"/>
<path d="M510.473 226.656L504.707 218.265L507.503 208.355H512.709L515.408 217.686L510.473 226.656Z" fill="#7CE3E2"/>
<path d="M493.994 201.839L510.496 227.196L525.254 200.282C525.328 200.147 525.279 199.978 525.144 199.905C525.009 199.831 524.84 199.88 524.766 200.015L510.456 226.114L494.46 201.536C494.377 201.407 494.205 201.37 494.075 201.454C493.946 201.538 493.911 201.711 493.994 201.839Z" fill="#27355C"/>
</g>
</svg>
