<svg width="38" height="43" viewBox="0 0 38 43" fill="none" xmlns="http://www.w3.org/2000/svg">
<path d="M1.97916 0.408615C1.2279 0.727901 0.439077 1.66697 0.194918 2.5497C0.0822296 2.98167 0.00710377 6.32477 0.00710377 11.2831C0.00710377 19.9038 0.0258852 20.1104 0.983739 21.1246L1.39693 21.5565L0.908613 22.0824C0.645673 22.3641 0.34517 22.8712 0.2137 23.2281C-0.068022 24.0732 -0.068022 39.5679 0.194918 40.5634C0.457859 41.4649 1.2279 42.3852 2.01672 42.7044C2.91823 43.0988 34.6589 43.0988 35.5604 42.7044C36.3492 42.3852 37.1192 41.4649 37.3822 40.5634C37.6263 39.6243 37.6263 24.3362 37.3822 23.3971C37.2695 23.0027 36.969 22.4393 36.6873 22.12L36.199 21.5377L36.5934 21.1246C37.5512 20.1104 37.57 19.885 37.57 11.2831C37.57 6.32477 37.4949 2.98167 37.3822 2.5497C37.1192 1.64819 36.3492 0.727901 35.5604 0.408615C34.6777 0.0329857 2.82432 0.0329857 1.97916 0.408615ZM35.5416 2.00504L36.1614 2.5497L36.2177 10.7008C36.2553 16.0536 36.2177 19.0586 36.0675 19.5093C35.9736 19.9038 35.6543 20.3545 35.3538 20.5423C34.8655 20.8804 34.0954 20.8992 19.1454 20.9555C1.77256 21.0119 2.2421 21.0306 1.64109 19.8662C1.34059 19.2652 1.32181 18.5327 1.35937 10.8887L1.41571 2.5497L2.0355 2.00504L2.63651 1.46038H18.7886H34.9406L35.5416 2.00504ZM34.9406 22.3641C35.3913 22.5144 35.7106 22.7961 35.936 23.2469C36.2365 23.8479 36.2553 24.5803 36.2177 32.2244L36.1614 40.5634L35.5416 41.108L34.9406 41.6527H18.7886H2.63651L2.0355 41.108L1.41571 40.5634L1.35937 32.2244C1.32181 24.5803 1.34059 23.8479 1.64109 23.2469C1.86647 22.7961 2.18575 22.5144 2.63651 22.3641C3.57558 22.0448 34.0015 22.0448 34.9406 22.3641Z" fill="#152532"/>
<path d="M4.58873 3.52624C4.36335 3.60137 4.00651 3.92065 3.78113 4.20238C3.44306 4.63435 3.38672 4.95363 3.38672 6.51249C3.38672 9.68656 3.48063 9.72412 10.3546 9.72412C16.0454 9.72412 16.4398 9.649 16.9845 8.50333C17.3601 7.71451 17.3789 5.44195 17.0221 4.55922C16.5337 3.39477 16.2332 3.33843 10.2983 3.35721C7.36839 3.35721 4.79533 3.43234 4.58873 3.52624ZM15.7449 4.87851C16.1018 5.23535 16.0454 7.75207 15.6698 8.10892C15.4256 8.37186 14.6556 8.40942 10.2607 8.40942C6.542 8.40942 5.09583 8.35308 4.9268 8.18404C4.79533 8.05257 4.70142 7.39522 4.70142 6.53128C4.70142 5.66733 4.79533 5.00998 4.9268 4.87851C5.24608 4.55922 15.4256 4.55922 15.7449 4.87851Z" fill="#152532"/>
<path d="M24.703 3.60147C21.5853 4.35273 19.2752 6.86944 18.7869 10.0623C18.3925 12.5414 19.3503 15.2272 21.2285 16.9175C24.7406 20.054 30.2811 19.3967 32.8542 15.5277C33.9247 13.9313 34.244 12.6917 34.1501 10.6821C34.0562 8.59733 33.3425 7.01969 31.8776 5.64865C29.8116 3.67659 27.2949 2.9629 24.703 3.60147ZM29.2294 5.31058C30.4502 5.91159 31.6146 7.05726 32.272 8.31561C32.7227 9.142 32.7791 9.46128 32.7791 11.1328C32.7791 12.7105 32.7039 13.1424 32.3471 13.8749C31.7085 15.1896 30.7694 16.1663 29.4547 16.88C28.3466 17.481 28.1588 17.5185 26.4873 17.5185C25.0035 17.5185 24.5528 17.4434 23.8203 17.0865C22.4305 16.3916 21.3036 15.2835 20.6275 13.9125C18.8808 10.344 20.8716 6.00549 24.7782 4.89739C26.0553 4.54054 28.0274 4.72836 29.2294 5.31058Z" fill="#152532"/>
<path d="M27.3165 10.3064L25.1754 12.4287L24.3678 11.6399C23.4851 10.776 22.8277 10.6257 22.6399 11.2455C22.5272 11.5648 22.7526 11.8841 23.6917 12.8419C24.349 13.4993 25.0064 14.0439 25.1754 14.0439C25.3257 14.0439 26.6028 12.8983 27.9926 11.5084C30.1525 9.34858 30.4906 8.91661 30.3215 8.63489C29.8896 7.95876 29.4951 8.16535 27.3165 10.3064Z" fill="#152532"/>
<path d="M3.93138 13.2739C3.4055 13.7998 3.38672 13.8937 3.38672 15.6216C3.38672 16.5982 3.48063 17.6312 3.6121 17.8941C4.06285 18.8708 4.4197 18.9271 10.2232 18.9271C13.247 18.9271 15.7825 18.852 16.0454 18.7393C16.3084 18.6454 16.7028 18.2886 16.9094 17.9505C17.2474 17.4246 17.3038 17.0865 17.2474 15.584C17.1911 13.8561 17.1723 13.8186 16.5713 13.2739L15.9703 12.7292H10.2232H4.47604L3.93138 13.2739ZM15.7449 14.2693C16.0642 14.5886 16.0454 17.1241 15.7073 17.4058C15.5383 17.5561 13.9043 17.6124 10.1293 17.5749L4.79533 17.5185L4.73898 16.0348C4.70142 15.2084 4.7202 14.4384 4.77655 14.2881C4.90802 13.95 15.4068 13.9313 15.7449 14.2693Z" fill="#152532"/>
<path d="M7.78401 24.5428C4.51603 26.0265 5.6617 30.9473 9.26774 30.9473C12.8174 30.9473 13.8692 26.0077 10.6388 24.5428C9.66215 24.092 8.76064 24.092 7.78401 24.5428ZM10.7703 26.2519C11.9723 27.5854 11.052 29.6138 9.24896 29.6326C7.53985 29.6326 6.52565 27.6605 7.53985 26.3646C8.06573 25.6885 8.57283 25.4819 9.49312 25.5946C10.0378 25.6509 10.3946 25.8199 10.7703 26.2519Z" fill="#152532"/>
<path d="M18.9598 27.6793C18.7907 27.8859 18.7719 28.0549 18.9222 28.2803C19.0912 28.562 19.8237 28.5996 26.2282 28.6559C30.1347 28.6747 33.5342 28.6559 33.7783 28.5996C34.1164 28.5057 34.2103 28.393 34.1539 27.9798L34.0976 27.4727L26.6601 27.4163C20.0303 27.3788 19.1851 27.4163 18.9598 27.6793Z" fill="#152532"/>
<path d="M18.9598 31.0599C18.7907 31.2665 18.7719 31.4355 18.9222 31.6609C19.0912 31.9426 19.8237 31.9802 26.2282 32.0365C30.1347 32.0553 33.5342 32.0365 33.7783 31.9802C34.1164 31.8863 34.2103 31.7736 34.1539 31.3604L34.0976 30.8533L26.6601 30.797C20.0303 30.7594 19.1851 30.797 18.9598 31.0599Z" fill="#152532"/>
<path d="M5.45268 32.6562C4.85167 32.9004 3.98773 33.708 3.64966 34.3654C3.46184 34.7222 3.38672 35.5674 3.38672 37.2014C3.38672 39.1734 3.44306 39.5678 3.68722 39.6617C4.17554 39.8495 14.5429 39.7932 14.8434 39.5866C15.2566 39.3237 15.2378 35.2105 14.8058 34.4217C14.4114 33.6892 13.5663 32.9004 12.9089 32.6562C12.2328 32.3933 6.09125 32.4121 5.45268 32.6562ZM12.6648 33.9897C13.5099 34.3654 13.7916 35.0227 13.8668 36.8069L13.9419 38.4597H9.32166H4.70142V36.7506C4.70142 35.0603 4.70142 35.0415 5.33999 34.4029L5.97856 33.7644H9.09628C11.0308 33.7644 12.383 33.8395 12.6648 33.9897Z" fill="#152532"/>
<path d="M18.9598 34.4405C18.7907 34.6471 18.7719 34.8162 18.9222 35.0416C19.0912 35.3233 19.8237 35.3608 26.6038 35.3608H34.0976L34.1539 34.9101C34.1915 34.6659 34.1164 34.3842 33.9661 34.3091C33.8347 34.2152 30.454 34.14 26.4723 34.14C20.0679 34.14 19.1851 34.1776 18.9598 34.4405Z" fill="#152532"/>
<path d="M18.9598 37.8212C18.7907 38.0278 18.7719 38.1968 18.9222 38.4222C19.0912 38.7039 19.8237 38.7415 26.6038 38.7415H34.0976L34.1539 38.2907C34.1915 38.0465 34.1164 37.7648 33.9661 37.6897C33.8347 37.5958 30.454 37.5207 26.4723 37.5207C20.0679 37.5207 19.1851 37.5582 18.9598 37.8212Z" fill="#152532"/>
</svg>
