<svg width="37" height="48" viewBox="0 0 37 48" fill="none" xmlns="http://www.w3.org/2000/svg">
<path d="M3.26371 7.82905L9.18004 10.4302C8.00698 12.1643 7.39494 14.1534 7.39494 16.2445C7.39494 21.9568 12.0362 26.6491 17.7995 26.6491C23.5628 26.6491 28.2041 22.0078 28.2041 16.2445C28.2041 14.2044 27.5921 12.1643 26.47 10.4812L31.6723 8.03307V17.9276L30.0912 21.2938C29.9892 21.5488 29.9892 21.8038 30.1422 22.0078C30.2952 22.2118 30.5502 22.3649 30.8052 22.3649H33.8144C34.0694 22.3649 34.3244 22.2629 34.4264 22.0078C34.5794 21.8038 34.5794 21.5488 34.4774 21.2938L33.1004 17.9276V7.37003C33.1004 6.96201 33.0494 6.65599 32.3353 6.34997C32.1823 6.29897 18.1565 0.0766263 18.1565 0.0766263C17.9525 -0.0253793 17.7485 -0.0253793 17.5445 0.0766263L3.26371 6.40098C3.0087 6.50298 2.80469 6.809 2.80469 7.11502C2.80469 7.42103 2.9577 7.67605 3.26371 7.82905ZM26.623 16.2445C26.623 21.1408 22.6448 25.119 17.7485 25.119C12.8522 25.119 8.87402 21.1408 8.87402 16.2445C8.87402 14.3574 9.48606 12.5723 10.5571 11.0422L17.4935 14.1534C17.5955 14.2044 17.6975 14.2044 17.7995 14.2044C17.9015 14.2044 18.0035 14.2044 18.1055 14.1534L24.9399 11.0932C26.062 12.6233 26.623 14.4084 26.623 16.2445ZM31.9783 20.8348L32.3353 20.0697L32.6413 20.8348H31.9783ZM17.8505 1.60671L30.2442 7.11502L17.8505 12.6233L5.45683 7.11502L17.8505 1.60671Z" fill="#152532"/>
<path d="M18.055 28.4851C8.10945 28.4851 0 36.5946 0 46.5401C0 46.9481 0.35702 47.3051 0.765042 47.3051H35.345C35.753 47.3051 36.11 46.9481 36.11 46.5401C36.11 36.5946 28.0006 28.4851 18.055 28.4851ZM1.58109 45.7751C1.98911 37.0026 9.23151 30.0152 18.106 30.0152C26.9805 30.0152 34.1719 37.0536 34.5799 45.7751H1.58109Z" fill="#152532"/>
</svg>
