<svg width="47" height="42" viewBox="0 0 47 42" fill="none" xmlns="http://www.w3.org/2000/svg">
<path d="M17.5991 0.469016C15.1612 1.0754 13.1688 2.84505 12.5005 5.03545C12.2282 5.92646 12.1787 7.36198 12.3891 8.20349C12.5129 8.72325 12.5005 8.78513 11.758 10.2578C11.1021 11.5695 11.0155 11.8294 11.1268 12.0769C11.3991 12.6586 11.7332 12.6833 13.1564 12.1759C14.6166 11.6562 14.3444 11.6314 15.8542 12.4729C16.8194 13.0051 18.2549 13.3516 19.5048 13.3516C20.7919 13.3516 21.5962 13.1783 22.71 12.6709L23.5763 12.2873L24.3188 12.6214C25.3707 13.1041 26.5463 13.3516 27.8086 13.3516C29.405 13.3516 30.4692 13.0298 32.3255 11.9779L32.7834 11.718L34.2065 12.1883L35.6297 12.6586L35.9514 12.3615C36.1247 12.2007 36.2608 11.9779 36.2608 11.8542C36.2608 11.7304 35.9267 11.0003 35.5059 10.2083C34.8005 8.85938 34.7634 8.76038 34.8872 8.31487C35.1099 7.53523 35.048 5.91409 34.7758 5.03545C33.5259 1.00115 28.2664 -0.991254 24.2569 1.03827L23.601 1.3724L22.6605 0.926897C22.1407 0.679394 21.423 0.43189 21.0517 0.357639C20.0741 0.172012 18.6262 0.221513 17.5991 0.469016ZM20.8166 1.60753C21.1755 1.68178 21.6829 1.85503 21.9304 1.97879L22.4006 2.21391L21.8685 2.8698C19.9132 5.27058 19.938 8.55 21.9304 10.8147C22.1902 11.1117 22.4006 11.3715 22.4006 11.4087C22.4006 11.4458 22.0789 11.6067 21.6952 11.7552C21.1136 11.9903 20.73 12.0398 19.6162 12.0398C18.0074 12.0522 17.2897 11.8665 16.0398 11.1117C15.0374 10.5053 14.4681 10.4063 13.6638 10.6785C13.342 10.7899 13.0326 10.8765 12.9707 10.8765C12.9212 10.8765 13.0697 10.4805 13.3173 9.98552C13.7504 9.13163 13.7628 9.05738 13.6638 8.33962C13.6019 7.93124 13.5648 7.13923 13.5648 6.59472C13.5648 5.70371 13.6143 5.48096 13.9731 4.75082C14.4434 3.79794 15.3963 2.79555 16.312 2.30054C17.6114 1.59516 19.4306 1.31053 20.8166 1.60753ZM29.3802 1.71891C30.6301 2.02829 31.4469 2.48617 32.276 3.3153C33.0804 4.10731 33.6496 5.24583 33.7486 6.23584C33.7858 6.61947 33.7486 7.39911 33.662 7.96837L33.5011 8.9955L33.9466 9.93602C34.1942 10.4558 34.3798 10.8765 34.3674 10.8765C34.355 10.8765 34.0704 10.7899 33.7363 10.6909C32.8081 10.4063 32.5359 10.4558 31.2612 11.124C28.9966 12.312 27.0042 12.4358 24.9375 11.4953C22.8709 10.5672 21.5096 8.46337 21.6952 6.49572C21.819 5.1592 22.2026 4.36719 23.1926 3.37718C24.8757 1.70653 27.0537 1.1249 29.3802 1.71891Z" fill="#152532"/>
<path d="M16.5773 6.19871C16.2555 6.54522 16.2555 7.08973 16.5773 7.41148C16.9856 7.81986 17.5054 7.78274 17.9138 7.33723C18.2479 6.9536 18.2603 6.66897 17.9261 6.24822C17.592 5.82746 16.9485 5.80271 16.5773 6.19871Z" fill="#152532"/>
<path d="M23.5243 6.24826C23.1902 6.66902 23.2025 6.95365 23.5491 7.33728C24.1183 7.98079 25.1207 7.64666 25.1207 6.81752C25.1207 6.00076 24.0193 5.61713 23.5243 6.24826Z" fill="#152532"/>
<path d="M27.3738 6.12454C27.1758 6.26066 27.1016 6.43392 27.1016 6.78042C27.1016 7.36205 27.3986 7.65906 27.9926 7.65906C28.5247 7.65906 28.8341 7.34968 28.8341 6.81755C28.8341 6.06266 28.0173 5.66666 27.3738 6.12454Z" fill="#152532"/>
<path d="M31.0639 6.17397C30.9278 6.31009 30.8164 6.58235 30.8164 6.79272C30.8164 7.64661 31.8064 7.99312 32.4004 7.33723C32.7346 6.9536 32.7469 6.66897 32.4128 6.24822C32.091 5.83984 31.4352 5.80271 31.0639 6.17397Z" fill="#152532"/>
<path d="M8.72216 13.7723C6.94014 14.3415 5.59125 15.6904 5.04674 17.4725C4.84874 18.1407 4.81161 18.5491 4.84874 19.4154C4.89824 20.3682 4.96011 20.6281 5.36849 21.4449C6.74214 24.2293 9.92255 25.3554 12.7193 24.0313C14.1425 23.363 15.38 21.7543 15.7265 20.1455C16.2834 17.5343 14.588 14.6385 12.0387 13.8465C11.1106 13.5619 9.5018 13.5248 8.72216 13.7723ZM12.0263 15.1707C13.3133 15.7523 14.3652 17.1878 14.5385 18.611C14.6499 19.4649 14.3405 20.6529 13.796 21.482C12.8926 22.8309 11.1353 23.5734 9.5513 23.2517C6.50701 22.6329 5.09624 19.2421 6.80401 16.6681C7.26189 15.9751 7.8559 15.5048 8.77166 15.1212C9.6503 14.7499 11.1229 14.7747 12.0263 15.1707Z" fill="#152532"/>
<path d="M35.3654 13.8466C34.4126 14.1808 33.967 14.4654 33.1874 15.2326C30.0194 18.3636 31.8385 23.7591 36.3183 24.5264C37.9395 24.7987 39.8329 24.1675 41.0456 22.93C43.6568 20.2446 42.8772 15.8019 39.4987 14.1189C38.6325 13.6981 38.4716 13.661 37.3207 13.6239C36.3183 13.5991 35.9347 13.6486 35.3654 13.8466ZM39.078 15.3316C40.4888 16.0865 41.2065 17.225 41.3055 18.8586C41.3674 20.1456 41.0704 20.9995 40.2165 21.9276C38.5954 23.7096 35.9099 23.7839 34.165 22.1009C33.868 21.8162 33.472 21.247 33.274 20.8386C32.6182 19.4773 32.8409 17.5592 33.7938 16.4083C34.6848 15.3193 35.8481 14.8119 37.3083 14.8738C38.1499 14.9109 38.4097 14.9728 39.078 15.3316Z" fill="#152532"/>
<path d="M6.43545 25.9C5.34644 26.1723 3.99754 26.9148 3.10653 27.7439C2.06702 28.7092 1.42351 29.6992 1.00275 30.9739L0.668625 31.9762L0.65625 36.3075C0.65625 41.171 0.65625 41.1462 1.54726 41.7155L2.01752 42.0001H10.0242C17.9444 42.0001 18.031 42.0001 18.3775 41.7402C18.5631 41.6041 18.8477 41.2947 19.0086 41.072C19.2809 40.6636 19.2809 40.6141 19.2809 36.4437C19.2809 33.0776 19.2437 32.0629 19.0952 31.4812C18.4022 28.7711 16.2366 26.6054 13.5264 25.9124C12.5735 25.6773 7.43784 25.6649 6.43545 25.9ZM13.2047 27.1499C15.4693 27.6821 17.3256 29.5383 17.8577 31.803C18.0805 32.7682 18.13 40.0572 17.9196 40.4656C17.7959 40.6884 17.5731 40.7007 10.0242 40.7007C4.14605 40.7007 2.21552 40.6636 2.10414 40.5522C1.85664 40.3047 1.89377 32.5579 2.14127 31.605C2.41352 30.5655 2.89615 29.7363 3.76242 28.8577C4.57918 28.0286 5.86619 27.2984 6.91808 27.1004C7.89572 26.9024 12.3137 26.9395 13.2047 27.1499Z" fill="#152532"/>
<path d="M33.4355 25.9C32.3464 26.1723 30.9975 26.9148 30.1065 27.7439C29.067 28.7092 28.4235 29.6992 28.0028 30.9739L27.6686 31.9762L27.6562 36.3075C27.6562 41.171 27.6562 41.1462 28.5473 41.7155L29.0175 42.0001H37.0242C44.9444 42.0001 45.031 42.0001 45.3775 41.7402C45.5631 41.6041 45.8477 41.2947 46.0086 41.072C46.2809 40.6636 46.2809 40.6141 46.2809 36.4437C46.2809 33.0776 46.2437 32.0629 46.0952 31.4812C45.4022 28.7711 43.2366 26.6054 40.5264 25.9124C39.5735 25.6773 34.4378 25.6649 33.4355 25.9ZM40.2047 27.1499C42.4693 27.6821 44.3256 29.5383 44.8577 31.803C45.0805 32.7682 45.13 40.0572 44.9196 40.4656C44.7959 40.6884 44.5731 40.7007 37.0242 40.7007C31.146 40.7007 29.2155 40.6636 29.1041 40.5522C28.8566 40.3047 28.8938 32.5579 29.1413 31.605C29.4135 30.5655 29.8962 29.7363 30.7624 28.8577C31.5792 28.0286 32.8662 27.2984 33.9181 27.1004C34.8957 26.9024 39.3137 26.9395 40.2047 27.1499Z" fill="#152532"/>
</svg>
