<svg width="46" height="45" viewBox="0 0 46 45" fill="none" xmlns="http://www.w3.org/2000/svg">
<path d="M13.6673 0.0507163C13.157 0.182669 12.6116 0.481763 12.207 0.833638C11.8199 1.18551 11.3273 1.97723 11.2129 2.45226L11.1601 2.68098L10.0781 2.71617C9.05769 2.74256 8.96972 2.76015 8.67942 2.98008C8.10763 3.41112 8.06364 3.61345 8.09883 5.68072C8.12522 7.704 8.14281 7.74798 8.7322 8.18782C8.96972 8.37256 9.05769 8.37256 14.415 8.37256C19.7723 8.37256 19.8602 8.37256 20.0978 8.18782C20.696 7.73918 20.7047 7.72159 20.7047 5.57515C20.7047 3.65743 20.7047 3.61345 20.4936 3.32315C20.1505 2.84812 19.7107 2.69858 18.6199 2.69858H17.6698L17.617 2.45226C17.5027 1.96843 17.0101 1.18551 16.5966 0.807247C16.3591 0.596122 15.9368 0.332216 15.6641 0.226654C15.1275 0.0243256 14.1071 -0.0636431 13.6673 0.0507163ZM15.2683 1.58137C15.585 1.74851 15.9808 2.13558 16.1392 2.45226C16.2095 2.58422 16.2975 2.93609 16.3415 3.23518C16.4559 4.07089 16.5262 4.10607 18.0745 4.10607H19.3412V5.55756V7.00904H14.415H9.48874V5.55756V4.10607H10.7643C12.0134 4.10607 12.0574 4.09728 12.2598 3.88615C12.4093 3.7454 12.4797 3.57826 12.4797 3.38473C12.4797 2.52264 13.0515 1.72212 13.852 1.46701C14.1951 1.35265 14.9516 1.42303 15.2683 1.58137Z" fill="#152532"/>
<path d="M1.39604 5.01225C0.9386 5.1618 0.226053 5.90953 0.0940996 6.39336C0.00613088 6.70125 -0.0114629 10.7742 0.00613088 24.8668L0.0325215 42.9444L0.270037 43.393C0.621912 44.0616 0.885818 44.3343 1.5016 44.6686L2.0558 44.9677H14.4154H26.775L27.3292 44.6686C27.945 44.3343 28.2177 44.0528 28.5608 43.393C28.7807 42.9708 28.7895 42.8564 28.8247 41.5105L28.8599 40.0854H28.552C28.3848 40.0854 28.0682 40.059 27.8482 40.0326L27.4436 39.971L27.4172 41.3433C27.3908 42.8388 27.3468 42.9532 26.7838 43.3754C26.5463 43.5602 26.5287 43.5602 14.4154 43.5602C2.30211 43.5602 2.28452 43.5602 2.04701 43.3754C1.91505 43.2787 1.72152 43.0851 1.62476 42.9532L1.44002 42.7157L1.41363 24.726L1.39604 6.73644L1.60716 6.52531C1.80949 6.32299 1.88866 6.30539 2.66279 6.30539H3.50729L3.52488 23.4505L3.55127 40.6044L3.73601 40.8419C3.83277 40.9739 4.0263 41.1674 4.15826 41.2642C4.39577 41.4489 4.43975 41.4489 14.4154 41.4489C24.3911 41.4489 24.435 41.4489 24.6726 41.2642C25.13 40.9299 25.2708 40.6484 25.3059 40.015L25.3411 39.4168L24.6286 39.1001L23.916 38.7747V39.4344V40.0854H14.4154H4.91479V23.1954V6.30539H5.79447H6.67416V5.60164V4.89789L4.19344 4.90669C2.64519 4.91549 1.58957 4.95067 1.39604 5.01225Z" fill="#152532"/>
<path d="M22.1562 5.60159V6.30534H23.0359H23.9156V12.947C23.9156 16.5977 23.9332 19.5886 23.9508 19.5886C23.9684 19.5886 24.2851 19.4479 24.6546 19.2807L25.3231 18.964V12.6391V6.30534H26.1588C26.933 6.30534 27.0209 6.32294 27.2145 6.52527L27.4344 6.73639V12.5951V18.445L27.6367 18.4098C27.7423 18.3835 28.059 18.3395 28.3405 18.3131L28.8419 18.2603V12.4895C28.8419 8.28464 28.8155 6.63083 28.7363 6.37572C28.6835 6.18219 28.4636 5.83031 28.2525 5.60159C27.6543 4.93303 27.4784 4.89784 24.6018 4.89784H22.1562V5.60159Z" fill="#152532"/>
<path d="M6.54414 12.1553C6.40339 12.2873 6.32422 12.472 6.32422 12.6391C6.32422 12.8063 6.40339 12.991 6.54414 13.123L6.75527 13.3429H11.2505H15.7457L15.9568 13.123C16.0975 12.991 16.1767 12.8063 16.1767 12.6391C16.1767 12.472 16.0975 12.2873 15.9568 12.1553L15.7457 11.9354H11.2505H6.75527L6.54414 12.1553Z" fill="#152532"/>
<path d="M21.3387 12.4807C21.2331 12.5951 20.89 12.9909 20.5821 13.3604C20.2742 13.7387 19.9927 14.0465 19.9575 14.0465C19.9224 14.0465 19.7464 13.9234 19.5617 13.7826C19.1482 13.4572 18.7964 13.4396 18.5061 13.7387C18.2422 13.9938 18.2158 14.3896 18.4445 14.6447C18.7348 14.9702 19.7024 15.718 19.9136 15.7707C20.0279 15.7971 20.1951 15.7971 20.2918 15.7707C20.3886 15.7355 20.9252 15.155 21.4882 14.4776C22.6142 13.1229 22.7022 12.9118 22.2887 12.5071C22.016 12.2256 21.6026 12.2168 21.3387 12.4807Z" fill="#152532"/>
<path d="M8.65352 14.9704C8.51277 15.1023 8.43359 15.2871 8.43359 15.4542C8.43359 15.6213 8.51277 15.8061 8.65352 15.938L8.86464 16.158H12.3042H15.7438L15.9549 15.938C16.0957 15.8061 16.1748 15.6213 16.1748 15.4542C16.1748 15.2871 16.0957 15.1023 15.9549 14.9704L15.7438 14.7505H12.3042H8.86464L8.65352 14.9704Z" fill="#152532"/>
<path d="M6.54414 19.8965C6.40339 20.0285 6.32422 20.2132 6.32422 20.3804C6.32422 20.5475 6.40339 20.7322 6.54414 20.8642L6.75527 21.0841H11.2505H15.7457L15.9568 20.8642C16.0975 20.7322 16.1767 20.5475 16.1767 20.3804C16.1767 20.2132 16.0975 20.0285 15.9568 19.8965L15.7457 19.6766H11.2505H6.75527L6.54414 19.8965Z" fill="#152532"/>
<path d="M28.0067 19.7734C24.3032 20.2396 21.1451 22.9578 20.0895 26.5822C19.1043 29.9953 20.1159 33.6372 22.7286 36.1092C24.5231 37.7982 26.7399 38.6779 29.2207 38.6779C30.6282 38.6779 32.1676 38.3524 33.1353 37.8509L33.408 37.7102L35.8887 40.7979C38.519 44.0615 38.8356 44.3782 39.8297 44.7565C41.2636 45.2931 42.9262 44.9236 43.9554 43.8416C44.4744 43.2874 44.712 42.8388 44.9055 42.0822C45.0814 41.4049 45.0286 40.4988 44.7735 39.8127C44.3953 38.8186 44.0786 38.5019 40.8149 35.8717L37.7272 33.3909L37.868 33.1182C38.3694 32.1506 38.6949 30.6111 38.6949 29.2036C38.6949 26.7669 37.8064 24.4973 36.1702 22.7555C35.2905 21.8143 34.534 21.26 33.3728 20.6883C31.6398 19.835 29.898 19.5359 28.0067 19.7734ZM31.2615 21.348C34.2789 22.1573 36.4957 24.5237 37.1554 27.6202C37.3314 28.4119 37.3226 29.9777 37.1466 30.831C36.5045 33.9539 33.9622 36.4962 30.8481 37.1296C30.074 37.2879 28.5873 37.3143 27.822 37.1736C26.5376 36.9537 25.1741 36.3291 24.1361 35.5022C20.9164 32.9423 20.1599 28.236 22.4207 24.8052C23.6522 22.9315 25.5964 21.6295 27.7692 21.2161C28.7016 21.0401 30.3379 21.1017 31.2615 21.348ZM42.7678 39.2848C43.3133 39.7951 43.5772 40.446 43.5772 41.2289C43.5772 41.9679 43.4012 42.4077 42.9086 42.8916C42.4336 43.3754 41.9849 43.5513 41.246 43.5513C40.7006 43.5601 40.4983 43.5161 40.1024 43.3226C39.4778 43.0147 39.3811 42.9092 36.8212 39.7159L34.6659 37.024L35.3169 36.4874C35.6688 36.1883 36.2054 35.6517 36.5045 35.2999L37.0411 34.6401L39.7329 36.8041C41.2196 37.9917 42.5831 39.1089 42.7678 39.2848Z" fill="#152532"/>
<path d="M32.7831 25.7465C32.7039 25.7993 31.5604 26.9781 30.232 28.368C28.9125 29.7579 27.8129 30.9015 27.7777 30.9191C27.7513 30.9279 27.2851 30.488 26.7573 29.9338C26.2294 29.3796 25.6928 28.8782 25.5785 28.8254C25.1034 28.6143 24.5229 29.1157 24.6724 29.6171C24.7164 29.7667 25.3234 30.4792 26.0975 31.2885C27.2939 32.5377 27.4786 32.696 27.7249 32.696C27.8833 32.696 28.068 32.6433 28.1384 32.5817C28.2967 32.4585 32.9415 27.5675 33.4429 26.9957C33.8036 26.5822 33.8651 26.2303 33.6188 25.9312C33.4341 25.7201 32.9942 25.6146 32.7831 25.7465Z" fill="#152532"/>
<path d="M21.3387 20.222C21.2331 20.3363 20.89 20.7322 20.5821 21.1017C20.2742 21.4799 19.9927 21.7878 19.9575 21.7878C19.9224 21.7878 19.7464 21.6647 19.5617 21.5239C19.1482 21.1984 18.7964 21.1808 18.5061 21.4799C18.2422 21.735 18.2158 22.1309 18.4445 22.386C18.7084 22.6851 19.7024 23.4592 19.8256 23.4592C19.8872 23.4592 20.0191 23.3273 20.1071 23.1689C20.4502 22.6059 21.3738 21.5415 21.928 21.0753C22.2447 20.8114 22.4998 20.5651 22.4998 20.5299C22.5086 20.4947 22.4119 20.3627 22.2887 20.2484C22.016 19.9669 21.6026 19.9581 21.3387 20.222Z" fill="#152532"/>
<path d="M10.7668 22.7116C10.626 22.8435 10.5469 23.0283 10.5469 23.1954C10.5469 23.3626 10.626 23.5473 10.7668 23.6792L10.9779 23.8992H13.3619H15.7458L15.957 23.6792C16.0977 23.5473 16.1769 23.3626 16.1769 23.1954C16.1769 23.0283 16.0977 22.8435 15.957 22.7116L15.7458 22.4917H13.3619H10.9779L10.7668 22.7116Z" fill="#152532"/>
<path d="M6.54414 26.934C6.40339 27.066 6.32422 27.2507 6.32422 27.4178C6.32422 27.585 6.40339 27.7697 6.54414 27.9017L6.75527 28.1216H11.2505H15.7457L15.9568 27.9017C16.0975 27.7697 16.1767 27.585 16.1767 27.4178C16.1767 27.2507 16.0975 27.066 15.9568 26.934L15.7457 26.7141H11.2505H6.75527L6.54414 26.934Z" fill="#152532"/>
<path d="M8.65352 29.7491C8.51277 29.881 8.43359 30.0658 8.43359 30.2329C8.43359 30.4 8.51277 30.5848 8.65352 30.7167L8.86464 30.9366H12.3042H15.7438L15.9549 30.7167C16.0957 30.5848 16.1748 30.4 16.1748 30.2329C16.1748 30.0658 16.0957 29.881 15.9549 29.7491L15.7438 29.5291H12.3042H8.86464L8.65352 29.7491Z" fill="#152532"/>
<path d="M6.54414 33.9716C6.40339 34.1036 6.32422 34.2883 6.32422 34.4554C6.32422 34.6226 6.40339 34.8073 6.54414 34.9393L6.75527 35.1592H11.2505H15.7457L15.9568 34.9393C16.0975 34.8073 16.1767 34.6226 16.1767 34.4554C16.1767 34.2883 16.0975 34.1036 15.9568 33.9716L15.7457 33.7517H11.2505H6.75527L6.54414 33.9716Z" fill="#152532"/>
<path d="M18.5047 33.9627C18.1264 34.341 18.1968 34.6489 18.8302 35.2998L19.3668 35.8628L18.8302 36.4258C18.2056 37.0768 18.1264 37.3847 18.5047 37.7541C18.8742 38.1324 19.1821 38.0532 19.833 37.4287L20.396 36.8921L20.959 37.4287C21.5484 38.0005 21.8563 38.106 22.1906 37.8597C22.3313 37.7541 22.2698 37.6662 21.5132 36.9184C20.6687 36.0651 20.1673 35.3878 19.6043 34.3674C19.3316 33.8659 19.2612 33.7956 19.0149 33.7692C18.8038 33.7516 18.6718 33.7956 18.5047 33.9627Z" fill="#152532"/>
<path d="M12.173 36.7865C12.0323 36.9185 11.9531 37.1032 11.9531 37.2704C11.9531 37.4375 12.0323 37.6222 12.173 37.7542C12.3842 37.9741 12.4018 37.9741 14.0644 37.9741C15.727 37.9741 15.7446 37.9741 15.9557 37.7542C16.0965 37.6222 16.1756 37.4375 16.1756 37.2704C16.1756 37.1032 16.0965 36.9185 15.9557 36.7865C15.7446 36.5666 15.727 36.5666 14.0644 36.5666C12.4018 36.5666 12.3842 36.5666 12.173 36.7865Z" fill="#152532"/>
</svg>
