<svg width="92" height="26" viewBox="0 0 92 26" fill="none" xmlns="http://www.w3.org/2000/svg"><path d="M23.9727 5.23035H26.4202L31.6238 13.7212C32.4717 15.0782 32.9926 16.106 32.9926 16.106C32.9926 16.106 32.8965 14.9612 32.8965 13.3516V5.23035H35.1317V19.3454H32.6841L27.4805 11.0058C26.6512 9.64736 26.1118 8.61953 26.1118 8.61953C26.1118 8.61953 26.2079 9.78305 26.2079 11.3739V19.3454H23.9727V5.23035Z" fill="#F9FAFC"/><path d="M36.6055 14.3031C36.6055 11.3163 38.6872 9.125 41.6355 9.125C44.5837 9.125 46.6655 11.2976 46.6655 14.3031C46.6655 17.3086 44.5264 19.5 41.6355 19.5C38.7446 19.5 36.6055 17.3086 36.6055 14.3031ZM44.5078 14.3031C44.5078 12.3442 43.3127 10.967 41.6355 10.967C39.9583 10.967 38.7446 12.3629 38.7446 14.3031C38.7446 16.2434 39.8823 17.658 41.6355 17.658C43.3886 17.658 44.5078 16.2621 44.5078 14.3031Z" fill="#F9FAFC"/><path d="M48.1445 9.21234H50.2449V11.006C50.7657 9.88144 51.7671 9.125 53.1947 9.125C54.813 9.125 55.9709 9.82374 56.394 11.1229C56.9335 9.99842 58.1286 9.125 59.6709 9.125C61.81 9.125 63.1973 10.5022 63.1973 12.5579V19.3456H61.097V13.0819C61.097 11.8014 60.3654 10.9483 59.0927 10.9483C57.5706 10.9483 56.7227 12.3052 56.7227 14.2641V19.3456H54.6223V13.0819C54.6223 11.8014 53.9093 10.9483 52.6367 10.9483C51.1145 10.9483 50.2464 12.3255 50.2464 14.2641V19.3456H48.1461V9.21234H48.1445Z" fill="#F9FAFC"/><path d="M66.9657 5.23047V7.61522H64.6328V5.23047H66.9657ZM64.7305 9.21233H66.8308V19.344H64.7305V9.21233Z" fill="#F9FAFC"/><path d="M68.3047 9.21204H70.405V10.9854C71.0995 9.84059 72.2946 9.12314 73.7207 9.12314C75.8412 9.12314 77.3246 10.5393 77.3246 12.7104V19.3437H75.2242V13.1767C75.2242 11.9165 74.4337 11.0244 73.1611 11.0244C71.4451 11.0244 70.405 12.4983 70.405 14.922V19.3437H68.3047V9.21204Z" fill="#F9FAFC"/><path d="M78.8008 16.6091C78.8008 14.8638 80.0532 13.7783 82.2311 13.4866L84.3702 13.195C84.9484 13.117 85.2383 12.8456 85.2383 12.3605C85.2383 11.4871 84.4477 10.8087 83.1379 10.8087C81.9242 10.8087 81.0375 11.4294 80.9414 12.5539H78.8783C79.1092 10.4593 80.7089 9.12109 83.1379 9.12109C85.7017 9.12109 87.3402 10.595 87.3402 12.844V16.8384C87.3402 17.4201 87.5913 17.6338 87.9958 17.6338C88.1307 17.6338 88.3229 17.5948 88.3229 17.5948V19.3401C88.3229 19.3401 87.8222 19.4571 87.3402 19.4571C86.3001 19.4571 85.5669 18.9533 85.4894 17.8662C85.0073 18.8753 83.7548 19.4945 82.2513 19.4945C80.2269 19.4945 78.8008 18.3123 78.8008 16.6044V16.6091ZM85.2956 14.9215V14.5535L82.5783 14.9995C81.4607 15.1742 80.9011 15.678 80.9011 16.5311C80.9011 17.3063 81.5754 17.8506 82.5783 17.8506C84.2943 17.8506 85.2956 16.6481 85.2956 14.9215Z" fill="#F9FAFC"/><path d="M89.7969 5.20703H91.8972V19.3455H89.7969V5.20703Z" fill="#F9FAFC"/><path d="M17.0702 16.6255L16.3355 19.4111H3.33965C1.85312 19.4111 -0.485948 18.8667 0.0891313 16.6847L1.19899 12.497C1.22069 12.4128 1.29664 12.3535 1.385 12.3535H1.41755C1.4966 12.3535 1.56326 12.4034 1.59581 12.4752C2.00193 13.3907 3.24354 13.96 4.78587 13.96H14.7312C16.8021 13.96 17.5012 15.0003 17.0718 16.6255H17.0702Z" fill="#F9FAFC"/><path d="M15.0018 9.57899L14.264 12.3537H5.77111C3.66455 12.3537 2.08658 11.2697 2.5051 9.68661L3.63045 5.45208C3.65215 5.36786 3.72966 5.30859 3.81646 5.30859H3.88932C3.96527 5.30859 4.03037 5.35538 4.06448 5.42401C4.46285 6.25844 5.55565 6.91506 7.23594 6.91506L12.6643 6.91194C13.9881 6.91194 15.5909 7.35177 15.0034 9.57899H15.0018Z" fill="#F9FAFC"/><path d="M10.4685 5.30849H8.21467C7.07381 5.30849 4.33172 4.96692 4.94865 2.64144C4.9502 2.63364 4.9533 2.62584 4.95485 2.61804C5.43848 0.854047 7.18386 0.5 8.81765 0.5H10.0841C10.9211 0.5 11.5303 1.297 11.3148 2.11115L10.4685 5.30849Z" fill="#F9FAFC"/></svg>