<svg xmlns="http://www.w3.org/2000/svg" xmlns:xlink="http://www.w3.org/1999/xlink" fill="none" version="1.1" width="15.5" height="15.5" viewBox="0 0 15.5 15.5"><g><g><path d="M3.11111,0.75Q3.11111,0.6761315,3.12552,0.603682Q3.13993,0.5312330000000001,3.1682,0.462987Q3.19647,0.394742,3.23751,0.333322Q3.27855,0.271903,3.33078,0.21967000000000003Q3.38301,0.16743699999999995,3.44443,0.126398Q3.50585,0.08535899999999996,3.5741,0.057089999999999974Q3.64234,0.028822000000000014,3.71479,0.014410999999999952Q3.78724,0,3.86111,0Q3.93498,0,4.007429999999999,0.014410999999999952Q4.07988,0.028822000000000014,4.1481200000000005,0.057089999999999974Q4.2163699999999995,0.08535899999999996,4.2777899999999995,0.126398Q4.33921,0.16743699999999995,4.391439999999999,0.21967000000000003Q4.44367,0.271903,4.48471,0.333322Q4.52575,0.394742,4.5540199999999995,0.462987Q4.58229,0.5312330000000001,4.5967,0.603682Q4.61111,0.6761315,4.61111,0.75L4.61111,1.5555560000000002L10.8889,1.5555560000000002L10.8889,0.75Q10.8889,0.6761315,10.9033,0.603682Q10.9177,0.5312330000000001,10.946,0.462987Q10.9742,0.394742,11.0153,0.333322Q11.0563,0.271903,11.1086,0.21967000000000003Q11.1608,0.16743699999999995,11.2222,0.126398Q11.2836,0.08535899999999996,11.3519,0.057089999999999974Q11.4201,0.028822000000000014,11.4926,0.014410999999999952Q11.565,0,11.6389,0Q11.7128,0,11.7852,0.014410999999999952Q11.8577,0.028822000000000014,11.9259,0.057089999999999974Q11.9941,0.08535899999999996,12.0556,0.126398Q12.117,0.16743699999999995,12.1692,0.21967000000000003Q12.2215,0.271903,12.2625,0.333322Q12.3035,0.394742,12.3318,0.462987Q12.3601,0.5312330000000001,12.3745,0.603682Q12.3889,0.6761315,12.3889,0.75L12.3889,0.75119604L12.3889,1.556033Q13.7695,1.566513,14.2412,1.80685Q14.9087,2.1470000000000002,15.2487,2.81439Q15.5,3.30759,15.5,4.79444L15.5,12.2611Q15.5,13.748,15.2487,14.2411Q14.9087,14.9087,14.2412,15.2487Q13.748,15.5,12.2611,15.5L3.23889,15.5Q1.75216,15.5,1.258925,15.2487L1.258839,15.2487Q0.591421,14.9087,0.251301,14.2412Q0,13.748,0,12.2611L0,4.79444Q0,3.30759,0.251286,2.81442Q0.591375,2.1469300000000002,1.25885,1.80685Q1.73053,1.566513,3.11111,1.556033L3.11111,0.75ZM3.86111,3.05556L3.23889,3.05556Q2.1121600000000003,3.05556,1.93985,3.14335Q1.706626,3.26218,1.587809,3.49538Q1.505105,3.6577,1.500297,4.66667L13.9997,4.66667Q13.9949,3.65771,13.9122,3.49541Q13.7934,3.26219,13.5602,3.14335Q13.3879,3.05556,12.2611,3.05556L3.86111,3.05556ZM14,6.16667L1.5,6.16667L1.5,12.2611Q1.5,13.3879,1.5877940000000001,13.5602Q1.706639,13.7934,1.93977,13.9122L1.93986,13.9122Q2.11217,14,3.23889,14L12.2611,14Q13.3879,14,13.5601,13.9122Q13.7934,13.7934,13.9122,13.5602Q14,13.3879,14,12.2611L14,6.16667ZM6.97222,9.27778L8.52778,9.27778Q8.60165,9.27778,8.67409,9.26337Q8.74654,9.24895,8.81479,9.22069Q8.88303,9.19242,8.94445,9.15138Q9.00587,9.11034,9.05811,9.05811Q9.11034,9.00587,9.15138,8.94445Q9.19242,8.88303,9.22069,8.81479Q9.24895,8.74654,9.26337,8.67409Q9.27778,8.60165,9.27778,8.52778Q9.27778,8.45391,9.26337,8.38146Q9.24895,8.30901,9.22069,8.24076Q9.19242,8.172519999999999,9.15138,8.1111Q9.11034,8.04968,9.05811,7.99745Q9.00587,7.94521,8.94445,7.90418Q8.88303,7.86314,8.81479,7.83487Q8.74654,7.8066,8.67409,7.79219Q8.60165,7.77778,8.52778,7.77778L6.97222,7.77778Q6.89835,7.77778,6.8259,7.79219Q6.75346,7.8066,6.68521,7.83487Q6.61696,7.86314,6.55554,7.90417Q6.49412,7.94521,6.44189,7.99745Q6.38966,8.04968,6.34862,8.1111Q6.30758,8.172519999999999,6.27931,8.24076Q6.25104,8.30901,6.23663,8.38146Q6.22222,8.45391,6.22222,8.52778Q6.22222,8.60165,6.23663,8.67409Q6.25104,8.74654,6.27931,8.81479Q6.30758,8.88303,6.34862,8.94445Q6.38966,9.00587,6.44189,9.05811Q6.49412,9.11034,6.55554,9.15138Q6.61696,9.19242,6.68521,9.22069Q6.75346,9.24895,6.8259,9.26337Q6.89835,9.27778,6.97222,9.27778ZM3.08333,7.77778L4.63889,7.77778Q4.712759999999999,7.77778,4.78521,7.79219Q4.85766,7.8066,4.9259,7.83487Q4.99415,7.86314,5.05557,7.90417Q5.11699,7.94521,5.16922,7.99745Q5.22145,8.04968,5.26249,8.1111Q5.30353,8.172519999999999,5.3318,8.24076Q5.36007,8.30901,5.37448,8.38146Q5.38889,8.45391,5.38889,8.52778Q5.38889,8.60165,5.37448,8.67409Q5.36007,8.74654,5.3318,8.81479Q5.30353,8.88303,5.26249,8.94445Q5.22145,9.00587,5.16922,9.05811Q5.11699,9.11034,5.05557,9.15138Q4.99415,9.19242,4.9259,9.22069Q4.85766,9.24895,4.78521,9.26337Q4.712759999999999,9.27778,4.63889,9.27778L3.08333,9.27778Q3.00946,9.27778,2.93702,9.26337Q2.86457,9.24895,2.79632,9.22069Q2.7280699999999998,9.19242,2.6666600000000003,9.15138Q2.6052400000000002,9.11034,2.553,9.05811Q2.50077,9.00587,2.45973,8.94445Q2.41869,8.88303,2.3904199999999998,8.81479Q2.3621600000000003,8.74654,2.34774,8.67409Q2.33333,8.60165,2.33333,8.52778Q2.33333,8.45391,2.34774,8.38146Q2.3621600000000003,8.30901,2.3904199999999998,8.24076Q2.41869,8.172519999999999,2.45973,8.1111Q2.50077,8.04968,2.553,7.99745Q2.6052400000000002,7.94521,2.6666600000000003,7.90417Q2.7280699999999998,7.86314,2.79632,7.83487Q2.86457,7.8066,2.93702,7.79219Q3.00946,7.77778,3.08333,7.77778ZM10.8611,7.77778L12.4167,7.77778Q12.4905,7.77778,12.563,7.79219Q12.6354,7.8066,12.7037,7.83487Q12.7719,7.86314,12.8333,7.90417Q12.8948,7.94521,12.947,7.99745Q12.9992,8.04968,13.0403,8.1111Q13.0813,8.172519999999999,13.1096,8.24076Q13.1378,8.30901,13.1523,8.38146Q13.1667,8.45391,13.1667,8.52778Q13.1667,8.60165,13.1523,8.67409Q13.1378,8.74654,13.1096,8.81479Q13.0813,8.88303,13.0403,8.94445Q12.9992,9.00587,12.947,9.05811Q12.8948,9.11034,12.8333,9.15138Q12.7719,9.19242,12.7037,9.22069Q12.6354,9.24895,12.563,9.26337Q12.4905,9.27778,12.4167,9.27778L10.8611,9.27778Q10.7872,9.27778,10.71479,9.26337Q10.64234,9.24895,10.5741,9.22069Q10.50585,9.19242,10.44443,9.15138Q10.38301,9.11034,10.33078,9.05811Q10.27855,9.00587,10.23751,8.94445Q10.19647,8.88303,10.1682,8.81479Q10.13993,8.74654,10.12552,8.67409Q10.11111,8.60165,10.11111,8.52778Q10.11111,8.45391,10.12552,8.38146Q10.13993,8.30901,10.1682,8.24076Q10.19647,8.172519999999999,10.23751,8.1111Q10.27855,8.04968,10.33078,7.99745Q10.38301,7.94521,10.44443,7.90417Q10.50585,7.86314,10.5741,7.83487Q10.64234,7.8066,10.71479,7.79219Q10.7872,7.77778,10.8611,7.77778ZM3.08333,10.8889Q3.00946,10.8889,2.93702,10.9033Q2.86457,10.9177,2.79632,10.946Q2.7280699999999998,10.9742,2.6666600000000003,11.0153Q2.6052400000000002,11.0563,2.553,11.1086Q2.50077,11.1608,2.45973,11.2222Q2.41869,11.2836,2.3904199999999998,11.3519Q2.3621600000000003,11.4201,2.34774,11.4926Q2.33333,11.565,2.33333,11.6389Q2.33333,11.7128,2.34774,11.7852Q2.3621600000000003,11.8577,2.3904199999999998,11.9259Q2.41869,11.9941,2.45973,12.0556Q2.50077,12.117,2.553,12.1692Q2.6052400000000002,12.2215,2.6666600000000003,12.2625Q2.7280699999999998,12.3035,2.79632,12.3318Q2.86457,12.3601,2.93702,12.3745Q3.00946,12.3889,3.08333,12.3889L3.08453,12.3889L4.63889,12.3889Q4.712759999999999,12.3889,4.78521,12.3745Q4.85766,12.3601,4.9259,12.3318Q4.99415,12.3035,5.05557,12.2625Q5.11699,12.2215,5.16922,12.1692Q5.22145,12.117,5.26249,12.0556Q5.30353,11.9941,5.3318,11.9259Q5.36007,11.8577,5.37448,11.7852Q5.38889,11.7128,5.38889,11.6389Q5.38889,11.565,5.37448,11.4926Q5.36007,11.4201,5.3318,11.3519Q5.30353,11.2836,5.26249,11.2222Q5.22145,11.1608,5.16922,11.1086Q5.11699,11.0563,5.05557,11.0153Q4.99415,10.9742,4.9259,10.946Q4.85766,10.9177,4.78521,10.9033Q4.712759999999999,10.8889,4.63889,10.8889L3.08333,10.8889ZM6.97222,10.8889Q6.89835,10.8889,6.8259,10.9033Q6.75346,10.9177,6.68521,10.946Q6.61696,10.9742,6.55554,11.0153Q6.49412,11.0563,6.44189,11.1086Q6.38966,11.1608,6.34862,11.2222Q6.30758,11.2836,6.27931,11.3519Q6.25104,11.4201,6.23663,11.4926Q6.22222,11.565,6.22222,11.6389Q6.22222,11.7128,6.23663,11.7852Q6.25104,11.8577,6.27931,11.9259Q6.30758,11.9941,6.34862,12.0556Q6.38966,12.117,6.44189,12.1692Q6.49412,12.2215,6.55554,12.2625Q6.61696,12.3035,6.68521,12.3318Q6.75346,12.3601,6.8259,12.3745Q6.89835,12.3889,6.97222,12.3889L6.97342,12.3889L8.52778,12.3889Q8.60165,12.3889,8.67409,12.3745Q8.74654,12.3601,8.81479,12.3318Q8.88303,12.3035,8.94445,12.2625Q9.00587,12.2215,9.05811,12.1692Q9.11034,12.117,9.15138,12.0556Q9.19242,11.9941,9.22069,11.9259Q9.24895,11.8577,9.26337,11.7852Q9.27778,11.7128,9.27778,11.6389Q9.27778,11.565,9.26337,11.4926Q9.24895,11.4201,9.22069,11.3519Q9.19242,11.2836,9.15138,11.2222Q9.11034,11.1608,9.05811,11.1086Q9.00587,11.0563,8.94445,11.0153Q8.88303,10.9742,8.81479,10.946Q8.74654,10.9177,8.67409,10.9033Q8.60165,10.8889,8.52778,10.8889L6.97222,10.8889ZM10.8611,10.8889Q10.7872,10.8889,10.71479,10.9033Q10.64234,10.9177,10.5741,10.946Q10.50585,10.9742,10.44443,11.0153Q10.38301,11.0563,10.33078,11.1086Q10.27855,11.1608,10.23751,11.2222Q10.19647,11.2836,10.1682,11.3519Q10.13993,11.4201,10.12552,11.4926Q10.11111,11.565,10.11111,11.6389Q10.11111,11.7128,10.12552,11.7852Q10.13993,11.8577,10.1682,11.9259Q10.19647,11.9941,10.23751,12.0556Q10.27855,12.117,10.33078,12.1692Q10.38301,12.2215,10.44443,12.2625Q10.50585,12.3035,10.5741,12.3318Q10.64234,12.3601,10.71479,12.3745Q10.7872,12.3889,10.8611,12.3889L10.8623,12.3889L12.4167,12.3889Q12.4905,12.3889,12.563,12.3745Q12.6354,12.3601,12.7037,12.3318Q12.7719,12.3035,12.8333,12.2625Q12.8948,12.2215,12.947,12.1692Q12.9992,12.117,13.0403,12.0556Q13.0813,11.9941,13.1096,11.9259Q13.1378,11.8577,13.1523,11.7852Q13.1667,11.7128,13.1667,11.6389Q13.1667,11.565,13.1523,11.4926Q13.1378,11.4201,13.1096,11.3519Q13.0813,11.2836,13.0403,11.2222Q12.9992,11.1608,12.947,11.1086Q12.8948,11.0563,12.8333,11.0153Q12.7719,10.9742,12.7037,10.946Q12.6354,10.9177,12.563,10.9033Q12.4905,10.8889,12.4167,10.8889L10.8611,10.8889Z" fill-rule="evenodd" fill="#9CCB40" fill-opacity="0.800000011920929" style="mix-blend-mode:passthrough"/></g></g></svg>