<svg width="19" height="19" viewBox="0 0 19 19" fill="none" xmlns="http://www.w3.org/2000/svg">
<g clip-path="url(#clip0_2215_2353)">
<mask id="mask0_2215_2353" style="mask-type:luminance" maskUnits="userSpaceOnUse" x="0" y="0" width="19" height="19">
<path d="M19 9.5C19 4.25329 14.7467 0 9.5 0C4.25329 0 0 4.25329 0 9.5C0 14.7467 4.25329 19 9.5 19C14.7467 19 19 14.7467 19 9.5Z" fill="white"/>
</mask>
<g mask="url(#mask0_2215_2353)">
<path d="M19 9.5C19 4.25329 14.7467 0 9.5 0C4.25329 0 0 4.25329 0 9.5C0 14.7467 4.25329 19 9.5 19C14.7467 19 19 14.7467 19 9.5Z" fill="#004A70"/>
<path fill-rule="evenodd" clip-rule="evenodd" d="M14.7921 7.16875C14.8585 7.10471 14.9098 7.03023 14.9459 6.94532C14.982 6.86041 15 6.77183 15 6.67957C15 6.63495 14.9957 6.59076 14.987 6.54699C14.9783 6.50323 14.9654 6.46074 14.9483 6.41951C14.9312 6.37829 14.9102 6.33912 14.8855 6.30202C14.8607 6.26492 14.8325 6.23059 14.8009 6.19904C14.7694 6.16749 14.7351 6.13932 14.698 6.11453C14.6609 6.08974 14.6217 6.06881 14.5805 6.05173C14.5393 6.03465 14.4968 6.02176 14.453 6.01306C14.4093 6.00435 14.3651 6 14.3204 6C14.2325 6 14.1477 6.01646 14.0661 6.04939C13.9845 6.08232 13.912 6.12932 13.8487 6.19039L7.89339 11.9332L5.15127 9.28922C5.08794 9.22815 5.01548 9.18116 4.9339 9.14823C4.85232 9.11531 4.76755 9.09885 4.67957 9.09885C4.63495 9.09885 4.59076 9.1032 4.54699 9.1119C4.50323 9.12061 4.46074 9.1335 4.41951 9.15058C4.37829 9.16765 4.33912 9.18859 4.30202 9.21338C4.26492 9.23817 4.23059 9.26634 4.19904 9.29789C4.16749 9.32944 4.13932 9.36376 4.11453 9.40087C4.08974 9.43797 4.06881 9.47713 4.05173 9.51836C4.03465 9.55958 4.02176 9.60207 4.01306 9.64584C4.00435 9.6896 4 9.7338 4 9.77842C4 9.87068 4.01804 9.95927 4.05412 10.0442C4.09021 10.1291 4.14146 10.2036 4.20787 10.2676L7.42172 13.3665C7.45309 13.3967 7.48706 13.4237 7.52362 13.4474C7.56019 13.4711 7.59869 13.4911 7.6391 13.5075C7.67951 13.5238 7.72111 13.5361 7.76389 13.5444C7.80667 13.5527 7.84985 13.5568 7.89344 13.5568C7.93702 13.5568 7.9802 13.5527 8.02298 13.5444C8.06576 13.5361 8.10736 13.5238 8.14778 13.5074C8.18819 13.4911 8.22668 13.4711 8.26324 13.4474C8.29981 13.4237 8.33377 13.3967 8.36514 13.3664L14.7921 7.16875Z" fill="white"/>
</g>
</g>
<defs>
<clipPath id="clip0_2215_2353">
<rect width="19" height="19" fill="white"/>
</clipPath>
</defs>
</svg>
