<svg xmlns="http://www.w3.org/2000/svg" xmlns:xlink="http://www.w3.org/1999/xlink" fill="none" version="1.1" width="12.388671875" height="15.5" viewBox="0 0 12.388671875 15.5"><g><g><path d="M1.8069,1.86739Q0,3.72591,0,6.35Q0,8.490300000000001,1.599467,10.763Q2.52148,12.0731,5.00614,14.6074Q5.43962,15.0495,5.6567,15.2728Q5.76069,15.3798,5.8977,15.4388Q6.03471,15.4978,6.18388,15.4999Q6.33305,15.502,6.47167,15.4469Q6.61029,15.3917,6.71725,15.2877Q6.72483,15.2804,6.73219,15.2728Q6.94918,15.0496,7.38275,14.6074Q9.86741,12.0731,10.7894,10.763Q12.3889,8.490300000000001,12.3889,6.35Q12.3889,3.72591,10.582,1.86739Q8.76648,0,6.19444,-0.0000010000000000287557Q3.62242,0,1.8069,1.86739ZM2.82614,9.89975Q1.5,8.01539,1.5,6.35Q1.5,4.3349,2.88239,2.91301Q4.25615,1.5,6.19444,1.4999989999999999Q8.13274,1.5,9.5065,2.91301Q10.8889,4.33489,10.8889,6.35Q10.8889,8.01539,9.56275,9.89974Q8.71094,11.1101,6.31166,13.5573Q6.25155,13.6186,6.19444,13.6769Q6.13756,13.6188,6.07723,13.5573Q3.67795,11.1101,2.82614,9.89975Z" fill-rule="evenodd" fill="#9CCB40" fill-opacity="0.800000011920929" style="mix-blend-mode:passthrough"/></g><g><path d="M4.014399125,4.014203164093018Q3.111328125,4.917281164093017,3.111328125,6.194441164093018Q3.111328125,7.471631164093018,4.014402125,8.374701164093018Q4.917478125,9.277781164093017,6.194658125,9.277781164093017Q7.471848125,9.277781164093017,8.374918125,8.374701164093018Q9.277998125,7.471631164093018,9.277998125,6.194441164093018Q9.277998125,4.917281164093017,8.374928125,4.014203164093018Q7.471838125,3.1111111640930176,6.194658125,3.1111111640930176Q4.917478125,3.1111111640930176,4.014399125,4.014203164093018ZM5.075058125,7.314041164093018Q4.611328125,6.850311164093018,4.611328125,6.194441164093018Q4.611328125,5.538601164093017,5.075068125,5.074861164093018Q5.538808125,4.611111164093018,6.194658125,4.611111164093018Q6.850518125,4.611111164093018,7.314258125,5.074861164093018Q7.777998125,5.538601164093017,7.777998125,6.194441164093018Q7.777998125,6.850311164093018,7.314258125,7.314041164093018Q6.850528125,7.7777811640930175,6.194658125,7.7777811640930175Q5.538798125,7.7777811640930175,5.075058125,7.314041164093018Z" fill-rule="evenodd" fill="#9CCB40" fill-opacity="0.800000011920929" style="mix-blend-mode:passthrough"/></g></g></svg>