<svg xmlns="http://www.w3.org/2000/svg" xmlns:xlink="http://www.w3.org/1999/xlink" fill="none" version="1.1" width="15.5" height="15.5" viewBox="0 0 15.5 15.5"><g><g><path d="M13.2301,2.26992Q10.9602,0,7.75,0Q4.5398499999999995,0.0000010000000000287557,2.26992,2.26992Q0,4.5398499999999995,0.0000010000000000287557,7.75Q0,10.9602,2.26992,13.2301Q4.53984,15.5,7.75,15.5Q10.9602,15.5,13.2301,13.2301Q15.5,10.9602,15.5,7.75Q15.5,4.53984,13.2301,2.26992ZM3.33058,3.33058Q5.16117,1.5,7.75,1.5000010000000001Q10.33885,1.5,12.1694,3.33058Q14,5.16116,14,7.75Q14,10.33886,12.1694,12.1694Q10.33886,14,7.75,14Q5.16116,14,3.33058,12.1694Q1.5000010000000001,10.33885,1.5000010000000001,7.75Q1.5,5.16117,3.33058,3.33058ZM7,3.86111Q7,3.78724,7.01441,3.71479Q7.02882,3.64234,7.05709,3.5741Q7.08536,3.50585,7.1264,3.44443Q7.16744,3.38301,7.21967,3.33078Q7.2719,3.27855,7.33332,3.23751Q7.39474,3.19647,7.46299,3.1682Q7.53123,3.13993,7.60368,3.12552Q7.67613,3.11111,7.75,3.11111Q7.82387,3.11111,7.89632,3.12552Q7.96877,3.13993,8.03701,3.1682Q8.105260000000001,3.19647,8.16668,3.23751Q8.228100000000001,3.27855,8.28033,3.33078Q8.33256,3.38301,8.3736,3.44443Q8.41464,3.50585,8.442910000000001,3.5741Q8.47118,3.64234,8.48559,3.71479Q8.5,3.78724,8.5,3.86111L8.5,7.32536L10.08032,8.27355Q10.16361,8.32352,10.23142,8.39307Q10.29924,8.46261,10.34709,8.547139999999999Q10.39495,8.63167,10.4197,8.7256Q10.44444,8.81953,10.44444,8.91667Q10.44444,8.99053,10.43003,9.06298Q10.41562,9.13543,10.38735,9.20368Q10.35909,9.27192,10.31805,9.33334Q10.27701,9.39476,10.22478,9.447Q10.17254,9.49923,10.11112,9.54027Q10.0497,9.58131,9.98146,9.60957Q9.91321,9.63784,9.84076,9.65225Q9.76831,9.66667,9.69444,9.66667Q9.48671,9.66667,9.30857,9.55979L7.36413,8.39312Q7.28083,8.34314,7.21302,8.2736Q7.14521,8.204049999999999,7.09735,8.11952Q7.04949,8.035,7.02474,7.94107Q7,7.84713,7,7.75L7,3.86111L7,3.86111Z" fill-rule="evenodd" fill="#9CCB40" fill-opacity="0.800000011920929" style="mix-blend-mode:passthrough"/></g></g></svg>