<svg xmlns="http://www.w3.org/2000/svg" xmlns:xlink="http://www.w3.org/1999/xlink" fill="none" version="1.1" width="12.5" height="8.5" viewBox="0 0 12.5 8.5"><g><g><path d="M12.2679,1.292508Q12.3791,1.186367,12.4395,1.045043Q12.5,0.903718,12.5,0.75Q12.5,0.6761315,12.4856,0.603682Q12.4712,0.5312330000000001,12.4429,0.462987Q12.4146,0.394742,12.3736,0.333322Q12.3326,0.271903,12.2803,0.21967000000000003Q12.2281,0.16743699999999995,12.1667,0.126398Q12.1053,0.08535899999999996,12.037,0.057089999999999974Q11.9688,0.028822000000000014,11.8963,0.014410999999999952Q11.8239,0,11.75,0Q11.6053,0,11.4711,0.053803000000000045Q11.3368,0.10760599999999998,11.2321,0.20749300000000004L4.4169,6.71317L1.267837,3.70746Q1.1632,3.60759,1.028925,3.5538Q0.89465,3.5,0.75,3.5Q0.6761315,3.5,0.603682,3.51441Q0.5312330000000001,3.52882,0.462987,3.55709Q0.394742,3.58536,0.333322,3.6264Q0.271903,3.66744,0.21967000000000003,3.71967Q0.16743699999999995,3.7719,0.126398,3.83332Q0.08535899999999996,3.89474,0.057089999999999974,3.96299Q0.028822000000000014,4.03123,0.014410999999999952,4.103680000000001Q0,4.176130000000001,0,4.25Q0,4.4037299999999995,0.06047899999999995,4.545059999999999Q0.12095800000000001,4.686389999999999,0.232163,4.79254L3.89909,8.29253Q3.95093,8.34202,4.01121,8.380790000000001Q4.07149,8.41956,4.1380099999999995,8.44621Q4.20454,8.47286,4.27491,8.48643Q4.34528,8.5,4.41695,8.5Q4.48862,8.5,4.55899,8.486419999999999Q4.62936,8.472850000000001,4.69588,8.44619Q4.76241,8.41954,4.82268,8.38076Q4.88296,8.34199,4.93479,8.29251L12.2674,1.292929L12.2679,1.292507L12.2679,1.292508Z" fill-rule="evenodd" fill="#004A70" fill-opacity="1" style="mix-blend-mode:passthrough"/></g></g></svg>