<svg width="495" height="570" viewBox="0 0 495 570" fill="none" xmlns="http://www.w3.org/2000/svg">
<path d="M243.332 2.26682C234.266 5.60015 229.066 9.46682 224.132 16.8002C218.799 24.9335 216.532 35.6002 218.666 43.8668C220.666 52.1335 225.599 60.2668 231.466 65.0668L236.132 68.9335L230.132 72.5335C216.532 80.5335 209.332 94.4002 208.932 113.067C208.532 128.533 209.599 129.333 230.132 129.333H245.332V157.333V185.333H254.666H263.999V157.333V129.333H279.199C299.732 129.333 300.799 128.533 300.399 113.067C299.999 94.4002 292.799 80.5335 279.199 72.5335L273.199 69.0668L278.266 64.6668C281.066 62.2668 285.199 57.0668 287.332 53.2002C294.666 39.7335 291.866 22.6668 280.666 11.3335C270.799 1.46682 255.732 -2.13318 243.332 2.26682ZM265.732 22.1335C275.999 29.6002 275.332 45.8668 264.532 52.9335C259.466 56.1335 249.466 55.8668 244.399 52.2668C239.732 49.0668 235.999 42.0002 235.999 36.8002C235.999 31.2002 240.799 23.3335 245.599 20.8002C251.199 18.0002 260.932 18.6668 265.732 22.1335ZM269.332 87.7335C273.732 90.4002 276.266 93.3335 279.066 98.5335C285.466 111.333 286.799 110.667 254.666 110.667C223.066 110.667 224.399 111.2 229.466 100C232.666 92.8002 235.332 89.7335 240.666 86.9335C250.399 81.8668 259.866 82.1335 269.332 87.7335Z" fill="#1D3557"/>
<path d="M34.0654 95.0667C24.9987 98.4 18.0654 104.8 13.6654 113.867C9.66537 121.867 9.3987 123.467 9.93203 131.6C10.732 142.533 14.0654 149.733 21.7987 156.667C24.9987 159.467 26.8654 162 26.0654 162.267C22.0654 163.6 13.132 171.333 9.26537 176.8C2.9987 185.6 0.465365 193.867 0.332031 205.467C0.332031 213.467 0.865365 216.4 2.86536 218.8L5.26536 221.867H44.0654C65.3987 222 84.1987 221.733 85.932 221.333C88.1987 220.667 91.932 216.133 93.132 212.4C93.132 212.133 113.532 225.467 138.332 242C163.132 258.533 183.799 272 184.465 272C184.999 272 187.265 268.667 189.399 264.667L193.399 257.333L187.132 252.933C183.799 250.533 160.465 234.933 135.265 218.133C100.732 195.2 89.132 186.8 87.3987 183.6C82.732 174.4 79.2654 170.8 66.0654 162C65.7987 161.867 68.5987 158.8 72.1987 155.067C90.1987 136.4 84.732 107.467 60.9987 96.5333C53.532 92.9333 41.3987 92.4 34.0654 95.0667ZM51.132 112C66.0654 116.133 69.132 137.333 55.932 145.333C45.532 151.733 31.6654 146.267 28.332 134.533C25.7987 126 31.3987 115.733 40.332 112.133C44.5987 110.4 45.3987 110.4 51.132 112ZM58.8654 179.467C66.9987 183.6 72.1987 190.4 73.2654 198.533L74.0654 204H46.332H18.5987L19.3987 198.667C20.332 191.6 24.8654 184.533 30.8654 180.667C40.0654 174.933 48.8654 174.533 58.8654 179.467Z" fill="#1D3557"/>
<path d="M431.4 96.2545C407.667 107.188 402.2 136.121 420.2 154.788C423.8 158.521 426.6 161.588 426.333 161.721C426.2 161.855 423.133 163.988 419.4 166.655C412.467 171.588 408.733 175.988 405 183.321C403.267 186.655 391.4 195.055 355 219.188C328.867 236.655 305.533 252.255 303.267 253.988L299 257.188L303 264.388C305.133 268.388 307.4 271.721 308.067 271.721C308.733 271.721 329.4 258.255 354.2 241.721C379 225.188 399.267 211.855 399.267 212.121C400.6 216.121 404.2 220.388 406.733 220.921C408.6 221.455 427.4 221.721 448.467 221.721H487L489.533 218.521C491.533 216.121 492.067 213.321 492.067 205.188C491.933 193.588 489.4 185.321 483.133 176.521C479.267 171.055 470.333 163.321 466.333 161.988C465.533 161.721 467.4 159.188 470.6 156.388C478.333 149.455 481.667 142.255 482.467 131.321C483 123.321 482.733 121.588 478.867 113.855C474.333 104.655 466.6 97.5878 457.533 94.5212C449.933 91.9878 438.867 92.6545 431.4 96.2545ZM456.467 114.121C461.533 117.188 465.933 126.388 464.733 131.988C462.733 141.321 455.267 147.721 446.333 147.721C435.533 147.721 428.067 139.988 428.067 128.788C428.067 123.588 428.867 121.588 432.2 117.721C438.733 110.388 447.667 109.055 456.467 114.121ZM461.533 180.521C467.933 184.921 472.067 191.455 473 198.388L473.8 203.721H446.067H418.333L419.133 198.388C420.333 188.921 428.733 179.321 438.2 176.655C444.333 174.788 456.2 176.788 461.533 180.521Z" fill="#1D3557"/>
<path d="M35.8657 331.985C10.799 341.852 4.79901 373.985 24.399 392.652L29.8657 397.852L23.3323 402.252C10.399 410.919 4.53234 422.252 3.59901 439.985C2.66567 459.185 -0.267659 457.985 49.599 457.985H90.2657L92.799 454.785C95.7323 451.185 96.1323 442.252 93.8657 429.985C92.399 422.252 92.5323 422.119 96.1323 419.452C98.1323 417.852 116.399 405.185 136.532 391.319C180.932 360.652 195.866 350.252 196.266 349.985C197.066 349.585 188.399 334.652 187.466 334.652C186.932 334.652 182.932 337.052 178.666 340.119C174.266 343.185 165.332 349.319 158.799 353.852C152.132 358.519 132.132 372.252 114.399 384.519L81.999 406.919L75.3323 402.519C71.7323 400.119 68.6657 397.985 68.6657 397.719C68.6657 397.452 70.799 395.319 73.3323 393.052C75.999 390.785 79.7323 386.119 81.7323 382.785C84.799 377.452 85.3323 375.185 85.3323 365.985C85.3323 353.985 83.4657 349.185 75.4657 340.919C68.5323 333.585 61.599 330.385 51.3323 329.719C44.9323 329.452 40.9323 329.985 35.8657 331.985ZM57.999 349.719C63.0657 352.252 67.3323 359.585 67.3323 365.852C67.3323 376.652 59.4657 383.985 48.1323 383.985C43.3323 383.985 41.199 383.185 37.4657 379.852C28.5323 372.119 28.5323 359.985 37.3323 352.119C41.199 348.785 43.199 347.985 48.399 347.985C51.8657 347.985 56.1323 348.785 57.999 349.719ZM59.999 414.519C69.3323 418.785 76.6657 428.519 76.6657 436.519V439.985H49.199H21.599L22.399 434.519C23.4657 426.385 28.6657 419.585 36.799 415.452C45.0657 411.319 52.5323 411.052 59.999 414.519Z" fill="#1D3557"/>
<path d="M434.798 330.985C427.065 334.052 418.932 341.385 414.932 348.985C412.665 353.119 411.998 356.585 411.998 364.985C411.998 374.185 412.532 376.452 415.598 381.785C417.598 385.119 421.332 389.785 423.998 392.052C426.532 394.319 428.665 396.452 428.665 396.852C428.665 397.252 426.265 398.852 423.332 400.452C420.398 402.185 417.998 403.919 417.998 404.585C417.998 406.585 415.065 405.652 409.465 401.919C406.532 399.785 383.465 383.919 358.265 366.452C333.198 349.119 311.732 334.585 310.665 334.185C309.465 333.652 307.598 335.919 304.932 341.252L300.932 349.119L352.932 384.852C402.132 418.852 404.798 420.852 404.132 424.185C403.732 426.052 402.932 432.719 402.532 438.985C401.732 449.119 401.998 450.719 404.398 453.652L407.065 456.985H447.732C497.598 456.985 494.665 458.185 493.732 438.985C492.798 421.385 486.932 410.052 474.265 401.519C470.798 399.119 467.732 397.119 467.598 396.852C467.332 396.719 469.598 394.185 472.798 391.385C491.732 374.319 487.332 343.919 464.132 332.052C456.265 328.052 443.198 327.519 434.798 330.985ZM460.798 351.785C474.532 364.852 461.732 387.385 443.332 382.585C434.132 380.185 429.332 372.852 430.265 362.719C431.732 347.652 449.732 341.252 460.798 351.785ZM462.665 415.519C469.465 419.519 473.998 426.185 474.932 433.652L475.732 438.985H447.998H420.265L421.065 433.519C422.798 420.585 436.398 410.185 449.732 411.519C453.865 411.919 459.198 413.519 462.665 415.519Z" fill="#1D3557"/>
<path d="M245.333 412.667V441.333L240.533 443.333C227.066 448.933 218 462.267 218 476.667C218 486.533 223.066 497.733 230.4 504.133L235.2 508.4L232 510.533C225.066 514.933 217.733 522.8 214.133 529.333C207.6 541.333 206.8 563.2 212.8 567.6C216.266 570.133 293.066 570.133 296.533 567.6C302 563.6 301.6 541.733 296 530.533C292.266 523.333 284.8 515.333 278.533 511.733L273.333 508.933L278.666 504.4C286.133 498 291.333 486.667 291.333 476.667C291.333 462.267 282.266 448.933 268.8 443.333L264 441.333V412.667V384H254.666H245.333V412.667ZM264.666 461.333C279.866 470.8 273.066 495.067 255.333 495.067C236.133 495.067 229.2 470.933 245.333 460.8C250.133 457.867 259.466 458.133 264.666 461.333ZM266.8 526.267C274.933 530.533 280.666 537.733 282.133 545.6L282.933 550.667H254.666H226.4L227.333 545.6C229.066 535.867 235.866 528.267 246.4 524.533C253.866 521.867 258.8 522.267 266.8 526.267Z" fill="#1D3557"/>
<ellipse cx="254.5" cy="285.5" rx="104.5" ry="102.5" fill="#1D3557"/>
<path d="M243.333 212.533C229.2 217.067 217.333 233.333 217.333 248.133C217.333 255.867 222.533 267.333 229.067 273.867C232.4 277.067 234.533 280 233.733 280.267C229.733 281.6 221.067 289.467 216.933 295.6C208.933 307.333 205.6 326.8 210 335.333C212.667 340.533 216.133 340.933 259.6 340.4C303.333 339.867 300.667 340.933 300.533 323.6C300.4 305.6 294.267 293.067 281.467 284.4C278.133 282.133 275.2 280.133 274.933 279.867C274.667 279.733 277.2 276.933 280.4 273.733C303.867 250.133 287.733 211.067 254.667 211.467C249.867 211.6 244.8 212 243.333 212.533ZM263.867 231.867C275.6 238 275.733 255.2 264.133 262.933C255.333 268.933 243.467 265.333 238.267 255.333C234.133 247.333 237.467 236.133 245.2 232C249.733 229.467 259.2 229.467 263.867 231.867ZM269.867 298.933C275.867 303.2 280.933 311.067 281.6 317.333L282 321.333H254.667H227.333L227.733 317.467C228.8 308.267 236.4 299.067 246 295.467C252.667 293.067 263.733 294.667 269.867 298.933Z" fill="white"/>
</svg>
