<svg width="543" height="301" viewBox="0 0 543 301" fill="none" xmlns="http://www.w3.org/2000/svg">
<g filter="url(#filter0_b_4794_25780)">
<path fill-rule="evenodd" clip-rule="evenodd" d="M273.246 5.0117C272.797 5.31229 272.269 5.47263 271.729 5.47245C271.371 5.47257 271.016 5.4019 270.685 5.26449C270.353 5.12707 270.053 4.92559 269.799 4.67158C269.546 4.41756 269.345 4.11597 269.208 3.78406C269.07 3.45214 269 3.0964 269 2.73716C269 2.19591 269.16 1.66676 269.46 1.21665C269.76 0.766533 270.186 0.41568 270.685 0.208466C271.184 0.00125088 271.733 -0.0530173 272.262 0.0525305C272.792 0.158078 273.279 0.418698 273.66 0.801422C274.042 1.18415 274.302 1.67178 274.408 2.20265C274.513 2.73351 274.459 3.28375 274.252 3.78377C274.045 4.28378 273.695 4.71111 273.246 5.0117ZM269.189 111.049C269.999 110.506 270.951 110.217 271.925 110.217C273.232 110.217 274.484 110.737 275.408 111.663C276.332 112.589 276.851 113.844 276.851 115.153C276.851 116.13 276.562 117.084 276.021 117.896C275.479 118.708 274.71 119.34 273.81 119.714C272.91 120.088 271.92 120.186 270.964 119.995C270.009 119.805 269.131 119.334 268.443 118.644C267.754 117.954 267.285 117.074 267.095 116.116C266.905 115.159 267.002 114.166 267.375 113.264C267.748 112.362 268.379 111.591 269.189 111.049ZM272.334 125.111C272.085 125.275 271.793 125.361 271.495 125.358C271.297 125.357 271.101 125.316 270.919 125.238C270.736 125.161 270.571 125.048 270.432 124.907C270.294 124.765 270.184 124.598 270.11 124.414C270.036 124.23 269.998 124.033 270 123.835C270.002 123.536 270.093 123.245 270.261 122.997C270.429 122.75 270.666 122.558 270.942 122.446C271.219 122.334 271.522 122.307 271.814 122.368C272.106 122.428 272.374 122.575 272.583 122.788C272.792 123.001 272.933 123.271 272.989 123.565C273.044 123.859 273.012 124.162 272.895 124.437C272.779 124.712 272.584 124.947 272.334 125.111ZM270.213 200.075C270.334 199.995 270.46 199.926 270.591 199.868C270.447 198.981 270.115 198.13 269.613 197.377C268.921 196.34 267.939 195.532 266.79 195.055C265.64 194.577 264.375 194.453 263.155 194.696C261.935 194.939 260.814 195.54 259.934 196.421C259.055 197.303 258.456 198.426 258.213 199.649C257.97 200.872 258.095 202.14 258.571 203.292C259.047 204.444 259.853 205.429 260.888 206.121C261.922 206.814 263.138 207.184 264.382 207.184V207.186C265.209 207.186 266.027 207.024 266.791 206.707C267.554 206.39 268.248 205.926 268.832 205.34C269.181 204.99 269.486 204.602 269.743 204.183C269.386 203.808 269.144 203.337 269.047 202.826C268.948 202.304 269.006 201.763 269.214 201.273C269.421 200.784 269.769 200.366 270.213 200.075ZM274.46 141.672C274.46 141.512 274.445 141.353 274.417 141.198C274.653 140.734 274.787 140.209 274.787 139.653C274.787 137.775 273.267 136.252 271.393 136.252C269.519 136.252 268 137.775 268 139.653C268 140.611 268.395 141.477 269.031 142.095C269.038 142.136 269.045 142.177 269.053 142.218C269.159 142.749 269.42 143.237 269.803 143.619C270.185 144.002 270.673 144.262 271.203 144.366C271.733 144.471 272.282 144.415 272.781 144.207C273.28 143.998 273.706 143.646 274.004 143.195C274.303 142.744 274.462 142.214 274.46 141.672ZM271.142 107.147C273.15 107.148 275.112 106.552 276.781 105.435C278.45 104.318 279.752 102.73 280.52 100.872C281.04 99.6154 281.301 98.2733 281.294 96.9259C301.686 100.415 317.206 118.215 317.206 139.647C317.212 144.969 316.237 150.246 314.331 155.213C315.132 157.315 316.627 160.049 319.172 163.616C319.981 164.631 320.552 165.816 320.844 167.082C321.135 168.348 321.14 169.663 320.857 170.931V170.929C319.803 175.657 315.051 178.617 310.245 177.54C309.131 177.29 308.075 176.831 307.132 176.187C306.214 175.656 303.136 174.259 298.045 175.65C295.113 177.625 291.95 179.231 288.626 180.432C287.991 180.808 287.63 180.924 287.507 180.818C285.826 181.374 284.112 181.824 282.375 182.168C282.133 184.826 282.812 187.486 284.297 189.702C285.783 191.917 287.984 193.552 290.531 194.331C290.831 194.425 291.13 194.497 291.429 194.562C291.416 194.577 291.401 194.59 291.388 194.604C293.248 195.267 294.851 196.503 295.968 198.134C297.086 199.765 297.66 201.709 297.609 203.687C297.558 205.665 296.884 207.576 295.685 209.148C294.485 210.719 292.82 211.87 290.929 212.436C289.037 213.003 287.015 212.955 285.152 212.301C283.289 211.646 281.68 210.418 280.555 208.792C279.43 207.166 278.847 205.225 278.888 203.247C278.93 201.269 279.595 199.354 280.787 197.777C281.134 197.12 281.418 196.431 281.637 195.721C282.509 192.855 282.243 189.912 281.1 187.372C280.966 186.416 280.64 185.492 280.136 184.66C279.444 183.516 278.445 182.59 277.254 181.988C276.328 181.52 275.311 181.261 274.275 181.228C273.239 181.196 272.208 181.391 271.255 181.8C268.939 180.98 267.292 178.679 267.121 175.966C267.573 175.35 267.805 174.6 267.779 173.836C267.753 173.072 267.471 172.339 266.979 171.756C266.486 171.172 265.812 170.772 265.064 170.621C264.317 170.469 263.54 170.574 262.86 170.919C262.179 171.264 261.635 171.829 261.314 172.522C260.994 173.216 260.916 173.998 261.093 174.741C261.27 175.484 261.692 176.146 262.291 176.619C262.89 177.093 263.631 177.35 264.393 177.349C264.573 177.348 264.751 177.332 264.928 177.302C266.728 178.301 267.961 180.293 268.109 182.595C246.995 179.731 230.72 161.594 230.72 139.647C230.72 120.207 243.49 103.756 261.081 98.2614C261.364 100.484 262.373 102.565 263.97 104.167C265.872 106.074 268.452 107.146 271.142 107.147ZM276.412 8.94297C279.249 11.7866 279.249 16.397 276.412 19.2407C273.574 22.0843 268.974 22.0843 266.137 19.2406C263.3 16.397 263.3 11.7866 266.137 8.94298C268.974 6.09936 273.574 6.09935 276.412 8.94297ZM532.652 167.469C528.477 166.367 525.277 165.241 522.827 164.13C514.221 163.948 507.3 156.905 507.3 148.239C507.301 144.94 508.325 141.723 510.23 139.033C512.136 136.343 514.829 134.314 517.936 133.226V120.696C517.936 110.485 508.88 102.83 498.409 102.83C487.372 102.83 478.883 110.489 478.883 120.696V164.094H471.482C470.731 165.188 469.958 167.078 469.254 170.223C469.328 172.198 468.385 174.068 466.644 174.98C464.155 176.283 460.986 175.133 459.565 172.409C459.075 171.478 458.843 170.431 458.893 169.379C458.667 168.467 457.756 166.088 454.212 164.094H443.507C451.761 144.98 459.228 127.946 466.7 110.899L466.704 110.889C471.434 100.098 476.167 89.3014 481.102 77.9693C482.182 78.5586 483.396 78.8573 484.625 78.8362C485.854 78.8151 487.057 78.475 488.116 77.8489C489.175 77.2229 490.054 76.3324 490.667 75.2644C491.28 74.1963 491.607 72.9872 491.615 71.755C493.289 69.9534 496.052 69.3573 498.602 70.2825C498.984 70.9441 499.578 71.4572 500.287 71.7387C500.997 72.0203 501.78 72.054 502.511 71.8343C503.242 71.6146 503.877 71.1543 504.315 70.528C504.752 69.9016 504.966 69.1457 504.922 68.3823C504.878 67.6189 504.579 66.8928 504.072 66.3211C503.565 65.7494 502.881 65.3657 502.13 65.2318C501.379 65.098 500.605 65.2219 499.932 65.5835C499.26 65.9451 498.729 66.5233 498.426 67.2247C498.356 67.39 498.298 67.5604 498.254 67.7343C496.357 69.1937 493.533 69.4137 491.1 68.0728C490.811 67.9123 490.533 67.7327 490.267 67.535L490.256 67.5187C490.166 67.3925 490.075 67.2656 489.976 67.1438C489.607 66.703 489.188 66.3083 488.725 65.9685C488.483 65.789 488.23 65.6254 487.968 65.4786C487.582 65.2644 487.177 65.0865 486.759 64.9473C487.46 63.3282 488.166 61.6962 488.877 60.0513L489.485 58.6409L489.519 58.5624L489.575 58.4335C489.595 58.3858 489.616 58.3381 489.636 58.2901C490.768 55.7373 490.768 53.7514 490.768 52.0504C490.768 51.1406 490.685 50.2327 490.522 49.3377C491.156 48.2536 491.835 47.6866 492.15 47.4628C493.372 46.7085 494.285 45.5416 494.725 44.1723C495.164 42.8031 495.101 41.3216 494.548 39.9946C493.994 38.6677 492.985 37.5826 491.704 36.9348C490.423 36.2871 488.953 36.1192 487.559 36.4615C485.276 36.9081 483.488 37.0999 482.08 37.1197C480.742 36.2141 479.307 35.4633 477.8 34.8818C477.568 34.7928 477.334 34.7079 477.098 34.627C475.215 33.9692 473.236 33.6268 471.242 33.6134C463.883 33.6134 456.526 37.8681 453.698 44.6748L432.783 93.042C423.616 94.9226 414.16 89.9184 410.697 80.8391C410.473 80.2511 410.123 79.4328 409.723 78.4957L409.722 78.4941L409.721 78.4913C409.317 77.5474 408.862 76.4832 408.433 75.4127C408.23 73.4 407.662 71.4414 406.758 69.6328V69.6281C405.371 66.8472 403.239 64.5084 400.6 62.8739C397.962 61.2393 394.921 60.3736 391.819 60.3738C382.798 60.3738 375.452 67.5435 375.132 76.5062L375.09 76.4733C375.056 76.9106 375.01 77.3487 374.942 77.7897C374.427 81.0714 372.936 84.1212 370.665 86.541C368.394 88.9608 365.448 90.6382 362.211 91.3542C345.671 59.3987 312.363 37.5626 273.964 37.5626C256.592 37.5626 240.265 42.0355 226.058 49.8887C224.141 50.6385 222.1 51.0231 220.042 51.0227C210.918 51.0227 203.521 43.6575 203.521 34.5734C203.524 33.5487 203.622 32.5265 203.816 31.5203C204.759 28.9563 204.869 26.159 204.13 23.5286C203.392 20.8981 201.842 18.5691 199.703 16.8744C197.564 15.1798 194.945 14.2063 192.221 14.0932C189.497 13.98 186.807 14.733 184.536 16.2445C182.264 17.756 180.528 19.9485 179.574 22.5087C178.621 25.0689 178.5 27.8657 179.228 30.4991C179.956 33.1326 181.496 35.4679 183.628 37.1712C185.76 38.8745 188.375 39.8586 191.098 39.9828C191.086 40.0064 191.072 40.0289 191.06 40.0534C191.482 40.0195 191.904 39.9979 192.339 39.9979C195.223 39.9976 198.053 40.7799 200.529 42.2618C203.006 43.7436 205.035 45.8698 206.403 48.4146C207.771 50.9594 208.426 53.8279 208.299 56.7157C208.171 59.6035 207.266 62.4029 205.679 64.8166C188.057 81.5339 176.545 104.65 174.836 130.454C172.584 133.669 168.288 134.841 164.709 133.03C164.253 132.8 163.821 132.525 163.419 132.209C162.794 131.543 162.031 131.021 161.183 130.68C160.336 130.34 159.424 130.19 158.512 130.24C157.601 130.29 156.711 130.539 155.906 130.97C155.1 131.401 154.399 132.004 153.85 132.735C153.835 132.717 153.822 132.699 153.807 132.68C153.795 132.664 153.782 132.648 153.769 132.633C153.684 132.851 153.589 133.068 153.488 133.281C153.456 133.335 153.426 133.39 153.394 133.444C151.17 137.631 145.529 139.08 140.488 136.829V114.12C140.488 103.91 131.432 96.255 120.96 96.255C118.61 96.2471 116.273 96.6127 114.037 97.3382C107.135 95.0956 101.466 90.0378 98.3807 83.4812C102.82 73.3262 107.369 62.8797 112.187 51.7232C113.32 49.1704 113.32 47.1845 113.32 45.4836V45.4835C113.32 42.1925 112.228 39.0632 110.424 36.3439C110.924 36.3061 111.404 36.1308 111.811 35.8373C112.218 35.5437 112.537 35.1434 112.732 34.6802C112.927 34.217 112.991 33.7089 112.916 33.2117C112.842 32.7145 112.632 32.2475 112.31 31.8621C111.988 31.4766 111.566 31.1875 111.091 31.0267C110.616 30.8659 110.106 30.8395 109.616 30.9504C109.127 31.0614 108.678 31.3053 108.318 31.6555C107.958 32.0057 107.702 32.4486 107.576 32.9354C103.844 29.3407 98.7766 27.0502 93.7818 27.0502C86.4239 27.0502 79.0659 31.305 76.2383 38.1117L66.5791 60.4396C62.9766 61.8378 60.4436 61.3188 59.5786 61.0546C58.5143 60.6391 57.381 60.4298 56.2388 60.4377C51.3135 60.4725 47.3488 64.4292 47.3826 69.2764C47.3935 70.5762 47.6951 71.857 48.2651 73.0246C48.8351 74.1921 49.6591 75.2167 50.6765 76.0229C53.4712 78.4959 55.3822 80.5476 56.6628 82.257C58.2045 82.5748 59.6574 83.2292 60.9181 84.1737C62.1788 85.1181 63.2165 86.3293 63.9572 87.7212C64.698 89.1131 65.1236 90.6515 65.2039 92.2269C65.2842 93.8024 65.0172 95.3763 64.4219 96.8366C63.8265 98.2969 62.9174 99.6078 61.7593 100.676C60.6011 101.744 59.2224 102.544 57.721 103.017C56.2197 103.491 54.6327 103.627 53.0728 103.417C51.513 103.206 50.0186 102.653 48.696 101.798L29.082 147.152C27.7292 147.4 26.7873 147.185 26.4027 147.058C25.2228 146.581 23.9116 146.542 22.7056 146.948C21.4996 147.355 20.4781 148.18 19.8255 149.274C19.1729 150.369 18.9321 151.661 19.1466 152.918C19.3611 154.175 20.0167 155.314 20.9951 156.129C22.0313 157.059 23.0029 158.058 23.9034 159.12L21.8986 163.757C20.2015 167.445 19.0691 172.55 19.0691 173.685C19.0752 178.603 20.9794 183.327 24.3828 186.868C23.3996 191.909 19.2549 195.927 13.9243 196.472C13.1861 196.546 12.4426 196.55 11.7037 196.483C9.78919 195.991 7.76826 196.117 5.92981 196.845C4.09135 197.572 2.52948 198.864 1.46753 200.535C0.405573 202.206 -0.102114 204.17 0.0170536 206.148C0.136221 208.125 0.876152 210.014 2.13104 211.545C3.38592 213.076 5.09152 214.17 7.00399 214.67C8.91646 215.171 10.9379 215.052 12.7793 214.332C14.6206 213.612 16.1877 212.327 17.2564 210.66C18.3251 208.994 18.8407 207.031 18.7295 205.053C18.7359 205.056 18.7421 205.058 18.7483 205.061C18.7601 205.066 18.7716 205.071 18.7839 205.076C18.7286 204.773 18.6816 204.467 18.6497 204.156C18.4764 202.468 18.6747 200.762 19.2308 199.159C19.7869 197.556 20.6872 196.095 21.8681 194.879C23.049 193.663 24.4819 192.721 26.0655 192.121C27.6491 191.52 29.345 191.275 31.0334 191.403C32.4643 191.99 33.9567 192.412 35.4821 192.664C35.7016 192.779 35.9202 192.894 36.1313 193.022C36.1358 192.953 36.138 192.885 36.1401 192.816L36.1416 192.766C37.1441 192.903 38.1546 192.972 39.1663 192.972H101.426V216.235C101.426 226.446 109.916 234.1 120.953 234.1C131.989 234.1 140.477 226.446 140.477 216.235V192.976H144.156C148.735 192.976 152.849 191.533 156.071 189.114C156.279 189.93 156.707 190.674 157.307 191.264C157.907 191.854 158.657 192.269 159.475 192.462C160.293 192.656 161.149 192.622 161.949 192.363C162.749 192.104 163.463 191.631 164.014 190.994C164.565 190.357 164.932 189.582 165.074 188.751C165.217 187.921 165.13 187.067 164.823 186.282C164.516 185.498 164.001 184.812 163.333 184.3C162.665 183.788 161.87 183.469 161.034 183.378C162.41 180.838 163.127 177.993 163.121 175.103C163.118 173.541 162.888 171.987 162.44 170.49C168.338 168.869 174.575 168.967 180.42 170.772C189.244 195.423 207.485 215.576 230.799 226.865C229.358 235.349 223.612 242.84 215.03 246.051C213.59 246.589 212.104 246.991 210.59 247.25C208.267 247.255 205.964 247.676 203.789 248.493C203.325 248.666 202.875 248.861 202.432 249.065C197.908 248.132 194.524 244.123 194.564 239.348C194.57 238.716 194.638 238.086 194.766 237.468C195.333 235.938 195.403 234.267 194.967 232.695C194.531 231.123 193.611 229.728 192.337 228.711C191.064 227.694 189.502 227.106 187.876 227.032C186.249 226.957 184.641 227.399 183.279 228.294C181.918 229.19 180.874 230.494 180.296 232.02C179.718 233.545 179.635 235.215 180.06 236.79C180.485 238.366 181.396 239.767 182.662 240.793C183.928 241.819 185.485 242.418 187.111 242.505L187.083 242.555C187.335 242.538 187.591 242.527 187.848 242.53C189.103 242.54 190.343 242.798 191.499 243.289C192.654 243.78 193.702 244.495 194.582 245.391C195.461 246.288 196.156 247.35 196.627 248.516C197.097 249.682 197.334 250.93 197.323 252.188C197.323 252.255 197.319 252.321 197.315 252.388L197.314 252.388C197.312 252.425 197.31 252.462 197.308 252.499C194.47 255.143 192.48 258.573 191.588 262.352C190.696 266.131 190.943 270.091 192.298 273.73C196.079 283.885 207.354 289.039 217.483 285.25C227.334 281.565 232.467 270.777 229.266 260.85C229.307 260.85 229.346 260.862 229.386 260.866C229.115 260.284 228.858 259.691 228.63 259.08C224.558 248.143 228.869 236.13 238.334 230.119C251.098 235.018 264.732 237.232 278.386 236.621C292.041 236.01 305.423 232.588 317.701 226.569C324.322 225.44 327.681 227.833 328.575 228.619C328.618 228.664 328.663 228.707 328.709 228.749C328.728 228.767 328.748 228.786 328.768 228.804C328.787 228.822 328.806 228.839 328.825 228.857C329.265 229.27 329.744 229.638 330.255 229.957C331.55 238.19 322.211 239.672 313.297 241.087C312.406 241.228 311.519 241.369 310.647 241.515C303.805 242.669 297.597 242.345 291.831 242.044C280.675 241.462 271.171 240.966 261.914 251.423C255.864 258.257 246.997 283.029 253.921 291.81C262.435 302.612 274.893 296.946 285.839 291.968L285.84 291.968C288.834 290.606 291.716 289.295 294.372 288.388C314.672 281.452 329.696 280.691 350.604 286.811C354.266 287.882 358.658 289.623 363.455 291.523C380.622 298.324 402.971 307.179 415.538 294.793C423.88 286.569 420.971 280.267 417.529 272.81C415.923 269.331 414.201 265.601 413.452 261.307C412.513 255.92 412.437 251.703 412.377 248.382C412.212 239.268 412.169 236.903 394.73 235.613C391.247 235.356 387.78 235.201 384.375 235.048C367.342 234.287 351.851 233.595 343.514 220.453C343.351 219.825 343.119 219.216 342.823 218.638C341.51 215.717 340.652 213.341 340.141 211.407C358.575 194.894 370.823 171.593 372.976 145.42C383.39 147.357 392.787 154.051 397.77 164.335C398.563 165.976 399.227 167.677 399.756 169.422L399.366 170.326C397.668 174.014 396.535 179.119 396.535 180.254C396.537 183.164 397.207 186.033 398.493 188.641C397.036 193.907 392.134 197.668 386.485 197.406C385.744 197.37 385.007 197.264 384.286 197.09C382.464 196.321 380.447 196.148 378.522 196.597C376.597 197.046 374.863 198.094 373.567 199.59C372.272 201.087 371.482 202.955 371.31 204.929C371.138 206.902 371.593 208.88 372.61 210.579C373.626 212.277 375.153 213.611 376.971 214.387C378.79 215.164 380.807 215.345 382.734 214.904C384.66 214.463 386.399 213.422 387.7 211.931C389.002 210.44 389.799 208.575 389.98 206.602C389.989 206.607 389.998 206.613 390.007 206.618L390.008 206.618C390.015 206.623 390.023 206.628 390.03 206.632C390.02 206.324 390.018 206.015 390.03 205.703C390.1 204.18 390.468 202.685 391.113 201.305C391.759 199.924 392.67 198.685 393.794 197.657C394.918 196.63 396.233 195.834 397.664 195.316C399.094 194.798 400.613 194.567 402.132 194.638C402.502 194.655 402.867 194.693 403.226 194.744C406.673 197.698 411.276 199.539 416.626 199.539H478.887V222.808C478.887 233.019 487.376 240.673 498.412 240.673C499.762 240.674 501.108 240.556 502.437 240.32C507.344 241.847 510.423 246.837 509.424 251.973C509.3 252.611 509.114 253.236 508.868 253.838C508.004 255.284 507.618 256.967 507.764 258.646C507.911 260.326 508.583 261.916 509.685 263.19C510.787 264.464 512.261 265.356 513.899 265.74C515.537 266.124 517.254 265.98 518.805 265.328C520.356 264.676 521.662 263.55 522.537 262.11C523.412 260.67 523.81 258.99 523.676 257.309C523.541 255.629 522.881 254.034 521.789 252.752C520.696 251.47 519.228 250.567 517.593 250.171C517.595 250.167 517.598 250.164 517.601 250.16C517.605 250.155 517.61 250.15 517.614 250.145C517.62 250.138 517.625 250.132 517.63 250.125C517.371 250.096 517.11 250.059 516.849 250.007C515.577 249.759 514.366 249.262 513.285 248.545C512.204 247.828 511.275 246.904 510.551 245.827C509.826 244.75 509.32 243.54 509.063 242.267C508.805 240.994 508.799 239.682 509.047 238.407C509.066 238.309 509.088 238.214 509.111 238.121C509.126 238.058 509.142 237.996 509.159 237.933L509.176 237.866C514.51 234.749 517.944 229.295 517.944 222.803V205.928C522.306 193.402 529.34 191.233 531.306 190.866C534.128 190.611 536.764 189.349 538.735 187.309C540.706 185.269 541.88 182.587 542.044 179.752C542.208 176.918 541.351 174.118 539.629 171.864C537.906 169.609 535.433 168.05 532.66 167.469H532.652ZM101.423 114.12V157.518H66.0481C74.2224 138.59 81.625 121.701 89.0241 104.82L89.0252 104.818L89.0316 104.803C91.3659 99.4777 93.7 94.1527 96.0578 88.7647C100.478 93.1217 103.275 98.8645 103.985 105.037C102.295 107.763 101.407 110.911 101.423 114.12ZM156.774 162.013C153.462 159.245 149.076 157.518 144.152 157.518H143.17C142.408 157.674 141.622 157.674 140.86 157.518H140.477V157.424C139.856 157.247 139.265 156.976 138.726 156.62C133.868 153.457 136.2 145.208 140.498 142.995C143.17 139.177 148.868 138.057 153.834 140.569C153.968 140.636 154.097 140.711 154.227 140.782C154.896 141.517 155.73 142.082 156.66 142.431C157.589 142.779 158.588 142.901 159.574 142.787C160.56 142.672 161.505 142.325 162.331 141.772C163.156 141.22 163.839 140.478 164.323 139.61C164.332 139.622 164.34 139.636 164.35 139.648C164.428 139.46 164.511 139.267 164.605 139.084C165.498 137.311 167.033 135.948 168.896 135.274C170.76 134.6 172.81 134.665 174.626 135.457L174.621 135.774C174.613 136.233 174.605 136.691 174.605 137.15C174.605 139.683 174.699 142.193 174.886 144.68C170.789 152.541 164.413 158.708 156.778 162.016L156.774 162.013ZM209.338 141.648C208.803 141.648 208.281 141.489 207.836 141.191C207.392 140.894 207.045 140.471 206.841 139.976C206.636 139.481 206.583 138.936 206.687 138.411C206.791 137.885 207.049 137.402 207.427 137.024C207.805 136.645 208.286 136.387 208.811 136.282C209.335 136.178 209.878 136.231 210.372 136.436C210.866 136.641 211.288 136.989 211.585 137.434C211.882 137.88 212.041 138.403 212.041 138.939C212.041 139.658 211.756 140.347 211.249 140.855C210.742 141.363 210.055 141.648 209.338 141.648ZM251.228 65.7898C252.308 65.7898 253.364 66.1109 254.262 66.7124C255.16 67.314 255.86 68.1689 256.274 69.1692C256.687 70.1695 256.795 71.2702 256.585 72.3321C256.374 73.3941 255.854 74.3695 255.09 75.1351C254.326 75.9007 253.353 76.4221 252.293 76.6333C251.234 76.8445 250.135 76.7361 249.137 76.3218C248.139 75.9074 247.286 75.2058 246.686 74.3055C246.086 73.4053 245.766 72.3469 245.766 71.2642C245.765 70.5452 245.907 69.8333 246.181 69.1691C246.456 68.5048 246.858 67.9013 247.365 67.393C247.872 66.8846 248.474 66.4814 249.137 66.2063C249.8 65.9312 250.51 65.7897 251.228 65.7898ZM312.156 210.277C311.621 210.277 311.099 210.119 310.654 209.821C310.21 209.523 309.863 209.1 309.659 208.605C309.454 208.11 309.401 207.565 309.505 207.04C309.609 206.514 309.867 206.032 310.245 205.653C310.623 205.274 311.104 205.016 311.629 204.912C312.153 204.807 312.696 204.861 313.19 205.066C313.684 205.271 314.106 205.618 314.403 206.063C314.7 206.509 314.859 207.033 314.859 207.568C314.859 208.287 314.575 208.976 314.069 209.484C313.563 209.992 312.876 210.278 312.16 210.279L312.156 210.277ZM324.168 155.477C324.168 154.405 324.485 153.358 325.079 152.467C325.673 151.576 326.517 150.881 327.505 150.471C328.493 150.061 329.58 149.954 330.628 150.163C331.677 150.372 332.64 150.888 333.396 151.646C334.152 152.403 334.667 153.369 334.875 154.42C335.084 155.471 334.977 156.56 334.568 157.55C334.159 158.54 333.466 159.386 332.577 159.982C331.688 160.577 330.643 160.895 329.574 160.895C328.14 160.895 326.765 160.324 325.751 159.308C324.738 158.292 324.168 156.914 324.168 155.477ZM411.294 145.789C410.855 145.789 410.42 145.772 409.987 145.748L409.964 145.801C396.572 149.62 382.223 145.249 373.282 134.874C372.988 121.068 369.819 107.476 363.977 94.9696C367.682 91.1972 373.063 89.2057 378.654 90.0877C380.171 90.3263 381.648 90.7724 383.044 91.4135V91.3646C385.726 93.0246 388.823 93.8893 391.976 93.8583C395.128 93.8274 398.208 92.9021 400.857 91.1897C410.876 88.1215 421.684 93.2893 425.472 103.218C425.938 104.448 426.282 105.722 426.497 107.02C428.749 109.112 430.544 111.647 431.771 114.467C432.998 117.288 433.63 120.332 433.627 123.408C433.627 135.768 423.63 145.789 411.298 145.789H411.294ZM467.883 184.999C467.343 184.999 466.815 184.839 466.366 184.538C465.917 184.238 465.567 183.81 465.36 183.31C465.153 182.81 465.099 182.26 465.204 181.729C465.31 181.199 465.569 180.711 465.951 180.328C466.333 179.945 466.819 179.685 467.349 179.579C467.879 179.473 468.428 179.528 468.927 179.735C469.425 179.942 469.852 180.292 470.152 180.742C470.452 181.192 470.612 181.721 470.612 182.263C470.612 182.987 470.325 183.682 469.814 184.195C469.303 184.708 468.61 184.997 467.887 184.998L467.883 184.999ZM273.247 150.654C272.798 150.955 272.27 151.115 271.73 151.115C271.371 151.115 271.016 151.044 270.685 150.907C270.354 150.77 270.053 150.568 269.799 150.314C269.546 150.06 269.345 149.758 269.208 149.426C269.07 149.094 269 148.738 269 148.379C269 147.838 269.16 147.309 269.46 146.859C269.76 146.409 270.186 146.058 270.685 145.851C271.184 145.644 271.733 145.59 272.263 145.695C272.792 145.801 273.279 146.061 273.66 146.444C274.042 146.827 274.302 147.314 274.408 147.845C274.513 148.376 274.459 148.926 274.252 149.426C274.046 149.926 273.696 150.353 273.247 150.654Z" fill="url(#paint0_linear_4794_25780)"/>
</g>
<defs>
<filter id="filter0_b_4794_25780" x="-15" y="-15" width="572.062" height="331" filterUnits="userSpaceOnUse" color-interpolation-filters="sRGB">
<feFlood flood-opacity="0" result="BackgroundImageFix"/>
<feGaussianBlur in="BackgroundImageFix" stdDeviation="7.5"/>
<feComposite in2="SourceAlpha" operator="in" result="effect1_backgroundBlur_4794_25780"/>
<feBlend mode="normal" in="SourceGraphic" in2="effect1_backgroundBlur_4794_25780" result="shape"/>
</filter>
<linearGradient id="paint0_linear_4794_25780" x1="142.947" y1="175.893" x2="498.346" y2="175.893" gradientUnits="userSpaceOnUse">
<stop stop-color="#684BFE"/>
<stop offset="0.729167" stop-color="#E178E7"/>
<stop offset="1" stop-color="#05E5AD"/>
</linearGradient>
</defs>
</svg>
