<?xml version="1.0" encoding="UTF-8"?>
<svg xmlns="http://www.w3.org/2000/svg" width="109" height="21" viewBox="0 0 109 21" fill="none">
  <path d="M22.7969 13.3175C22.7969 17.2946 25.6194 19.9887 29.5195 19.9887C30.6228 19.9887 31.7518 19.7321 32.7782 19.1676V15.6267C31.9827 16.1912 31.0077 16.6018 30.007 16.6018C28.0313 16.6018 26.5688 15.2162 26.5688 13.3175C26.5688 11.3931 28.057 10.0332 30.007 10.0332C30.982 10.0332 31.8801 10.3411 32.7525 10.9569V7.44163C31.8288 6.9028 30.6741 6.64621 29.5708 6.64621C25.5937 6.64621 22.7969 9.49432 22.7969 13.3175Z" fill="white"></path>
  <path d="M33.3661 13.3175C33.3661 17.0893 36.3168 19.9887 40.2426 19.9887C44.1684 19.9887 47.1191 17.0893 47.1191 13.3175C47.1191 9.54564 44.1684 6.64621 40.2426 6.64621C36.3168 6.64621 33.3661 9.54564 33.3661 13.3175ZM37.0609 13.3175C37.0609 11.4957 38.4978 10.0588 40.2426 10.0588C41.9874 10.0588 43.4243 11.4957 43.4243 13.3175C43.4243 15.1392 41.9874 16.5761 40.2426 16.5761C38.4978 16.5761 37.0609 15.1392 37.0609 13.3175Z" fill="white"></path>
  <path d="M58.0098 1.69409V8.62193C57.1374 7.31334 55.5723 6.67187 53.9044 6.67187C50.4918 6.67187 47.9003 9.5713 47.9003 13.3175C47.9003 17.0893 50.4918 19.9631 53.9044 19.9631C55.5723 19.9631 57.1374 19.2446 58.0098 17.9617V19.6551H61.7303V1.69409H58.0098ZM51.6208 13.3175C51.6208 11.4957 53.0577 10.0332 54.8795 10.0332C56.7012 10.0332 58.1381 11.4957 58.1381 13.3175C58.1381 15.1392 56.7012 16.6018 54.8795 16.6018C53.0577 16.6018 51.6208 15.1392 51.6208 13.3175Z" fill="white"></path>
  <path d="M67.2135 19.6551V6.97977H63.4673V19.6551H67.2135Z" fill="white"></path>
  <path d="M77.2053 13.6767C77.2053 15.4728 76.2816 16.5505 74.8447 16.5505C73.4335 16.5505 72.6124 15.5754 72.6124 13.9076V6.97977H68.8662V14.8057C68.8662 17.9873 70.6367 19.9887 73.5105 19.9887C75.1783 19.9887 76.4612 19.2446 77.2053 18.0387V19.6551H80.9515V6.97977H77.2053V13.6767Z" fill="white"></path>
  <path d="M86.4354 12.8813C86.4354 11.1365 87.3078 10.0588 88.6421 10.0588C89.925 10.0588 90.6434 11.0082 90.6434 12.6247V19.6551H94.3896V12.8043C94.4152 11.1108 95.2876 10.0588 96.5706 10.0588C97.8792 10.0588 98.5976 11.0082 98.5976 12.5734V19.6551H102.344V11.701C102.344 8.62193 100.702 6.64621 97.8022 6.64621C95.9548 6.64621 94.5179 7.51861 93.7225 8.85286C93.0297 7.46729 91.7211 6.64621 90.002 6.64621C88.3341 6.64621 87.1025 7.41597 86.4354 8.57061V6.97977H82.6892V19.6551H86.4354V12.8813Z" fill="white"></path>
  <path d="M105.603 1.87206V2.39755C105.323 1.9788 104.823 1.77353 104.289 1.77353C103.197 1.77353 102.367 2.70134 102.367 3.90012C102.367 5.1071 103.197 6.02671 104.289 6.02671C104.823 6.02671 105.323 5.7968 105.603 5.38627V5.92818H106.777V1.87206H105.603ZM103.558 3.90012C103.558 3.31715 104.018 2.84914 104.601 2.84914C105.184 2.84914 105.644 3.31715 105.644 3.90012C105.644 4.48308 105.184 4.95109 104.601 4.95109C104.018 4.95109 103.558 4.48308 103.558 3.90012Z" fill="white"></path>
  <path d="M108.786 5.92818V1.87206H107.587V5.92818H108.786ZM108.885 0.697916C108.885 0.32022 108.573 0 108.187 0C107.801 0 107.489 0.32022 107.489 0.697916C107.489 1.07561 107.801 1.39583 108.187 1.39583C108.573 1.39583 108.885 1.07561 108.885 0.697916Z" fill="white"></path>
  <path d="M65.3406 1.66748C66.5465 1.66748 67.5216 2.66817 67.5216 3.84847C67.5216 5.02877 66.5465 6.02945 65.3406 6.02945C64.1346 6.02945 63.1596 5.02877 63.1596 3.84847C63.1596 2.66817 64.1346 1.66748 65.3406 1.66748Z" fill="white"></path>
  <path d="M6.61398 7C7.56627 7 8.46975 7.20147 9.28815 7.56311C7.47492 8.59174 6.20978 10.9218 6.20978 13.6322C6.20978 16.3427 7.47617 18.6727 9.28815 19.7014C8.46975 20.063 7.56627 20.2645 6.61398 20.2645C2.95123 20.2645 -0.0182657 17.295 -0.0182657 13.6322C-0.0182657 9.96949 2.95123 7 6.61398 7Z" fill="white"></path>
  <path d="M11.8443 9.55654C11.1735 8.6981 10.2976 8.0086 9.28774 7.56311C9.92468 7.20147 10.6279 7 11.3675 7C12.0658 7 12.7327 7.1802 13.3397 7.50305C12.7465 7.94478 12.2322 8.65806 11.843 9.55654H11.8443Z" fill="white"></path>
  <path d="M11.843 17.7083C12.2322 18.6067 12.7465 19.3188 13.3397 19.7617C12.7315 20.0858 12.0658 20.2648 11.3675 20.2648C10.6267 20.2648 9.92343 20.0633 9.28774 19.7017C10.2963 19.2562 11.1735 18.5667 11.8443 17.7083H11.843Z" fill="white"></path>
  <path d="M15.8618 16.886C16.0495 17.8858 16.3211 18.7242 16.6489 19.3161C16.0946 19.918 15.4451 20.2647 14.7494 20.2647C14.2501 20.2647 13.7745 20.0857 13.3403 19.7616C14.4102 19.1923 15.2975 18.1724 15.8618 16.8872V16.886Z" fill="white"></path>
  <path d="M13.3403 7.50305C13.7745 7.17895 14.2501 7 14.7494 7C15.4439 7 16.0933 7.34663 16.6489 7.94854C16.3223 8.54043 16.0508 9.37885 15.8618 10.3787C15.2975 9.09354 14.4102 8.07367 13.3403 7.5043V7.50305Z" fill="white"></path>
  <path opacity="0.75" d="M11.844 17.7083C11.3559 16.5833 11.0656 15.1693 11.0656 13.6326C11.0656 12.0959 11.3572 10.6819 11.844 9.55688C12.7212 10.6819 13.2455 12.0959 13.2455 13.6326C13.2455 15.1693 12.7212 16.5833 11.844 17.7083Z" fill="white"></path>
  <path d="M16.6488 7.94854C16.9816 7.34663 17.3708 7 17.7888 7C19.0101 7 19.9999 9.96949 19.9999 13.6322C19.9999 17.295 19.0101 20.2645 17.7888 20.2645C17.3721 20.2645 16.9816 19.9179 16.6488 19.3159C17.7187 18.1547 18.4345 16.0449 18.4345 13.6322C18.4345 11.2196 17.7187 9.10855 16.6488 7.94854Z" fill="white"></path>
  <path opacity="0.75" d="M15.8621 16.886C15.6807 15.925 15.5781 14.815 15.5781 13.6325C15.5781 12.4499 15.6819 11.34 15.8621 10.3789C16.2838 11.34 16.5266 12.4499 16.5266 13.6325C16.5266 14.815 16.2851 15.925 15.8621 16.886Z" fill="white"></path>
</svg>
