<?xml version="1.0" encoding="UTF-8"?>
<svg xmlns="http://www.w3.org/2000/svg" width="110" height="44" viewBox="0 0 110 44" fill="none">
  <g clip-path="url(#clip0_5635_28189)">
    <path d="M30.383 29.7227C30.9444 29.7227 31.4565 29.7965 31.9193 29.9443C32.392 30.092 32.7909 30.3086 33.1159 30.5942C33.4507 30.8798 33.7117 31.2294 33.8988 31.6431C34.0859 32.0567 34.1795 32.5294 34.1795 33.0612C34.1795 33.593 34.0859 34.0657 33.8988 34.4794C33.7117 34.893 33.4507 35.2426 33.1159 35.5282C32.7909 35.8138 32.392 36.0305 31.9193 36.1782C31.4565 36.3259 30.9444 36.3998 30.383 36.3998H29.083V40.0633H26.8672V29.7227H30.383ZM29.083 34.435H30.4273C30.8705 34.435 31.2349 34.3169 31.5205 34.0805C31.8061 33.8441 31.9489 33.5093 31.9489 33.076C31.9489 32.6427 31.8061 32.3078 31.5205 32.0715C31.2349 31.8351 30.8705 31.7169 30.4273 31.7169H29.083V34.435ZM37.7961 40.0633H35.595V29.7227H39.0369C39.5983 29.7227 40.1104 29.7965 40.5733 29.9443C41.0361 30.092 41.4301 30.3086 41.755 30.5942C42.0899 30.87 42.3509 31.2147 42.538 31.6283C42.7251 32.0321 42.8187 32.4999 42.8187 33.0317C42.8187 33.7703 42.6168 34.3956 42.213 34.9078C41.8191 35.41 41.3119 35.7793 40.6914 36.0157L43.5425 40.0633H40.9278L38.387 36.2816H37.7961V40.0633ZM37.7961 34.4498H39.0517C39.4949 34.4498 39.8593 34.3316 40.1449 34.0953C40.4403 33.8491 40.588 33.5093 40.588 33.076C40.588 32.6328 40.4403 32.298 40.1449 32.0715C39.8593 31.8351 39.4949 31.7169 39.0517 31.7169H37.7961V34.4498ZM43.8975 35.1589H48.5803V37.0941H43.8975V35.1589ZM55.4074 29.7227L59.5585 40.0633H57.2392L56.3676 37.8327H52.4234L51.5519 40.0633H49.2769L53.4427 29.7227H55.4074ZM53.103 35.927H55.7029L54.3882 32.5442L53.103 35.927ZM60.5593 35.3362C60.5593 34.9225 60.6381 34.5483 60.7957 34.2135C60.9631 33.8688 61.1847 33.5782 61.4604 33.3419C61.7362 33.0957 62.0562 32.9086 62.4206 32.7805C62.7948 32.6427 63.1937 32.5737 63.6172 32.5737C63.824 32.5737 64.0209 32.5934 64.2081 32.6328C64.405 32.6624 64.5971 32.7067 64.7842 32.7658H67.2807V34.2135H66.4239C66.5913 34.568 66.675 34.9422 66.675 35.3362C66.675 35.7399 66.5913 36.1092 66.4239 36.4441C66.2663 36.7789 66.0497 37.0645 65.7739 37.3009C65.4982 37.5372 65.1732 37.7243 64.799 37.8622C64.4346 37.9902 64.0406 38.0543 63.6172 38.0543C63.174 38.0543 62.7751 37.9902 62.4206 37.8622C62.1449 37.941 62.007 38.0887 62.007 38.3054C62.007 38.4728 62.0661 38.5861 62.1843 38.6452C62.3123 38.7042 62.4698 38.7338 62.657 38.7338H64.7694C65.577 38.7338 66.2171 38.9111 66.6898 39.2656C67.1724 39.6103 67.4137 40.1224 67.4137 40.8019C67.4137 41.2451 67.3053 41.6292 67.0887 41.9542C66.8819 42.2791 66.5963 42.5451 66.2319 42.7519C65.8675 42.9685 65.4489 43.1261 64.9762 43.2246C64.5035 43.3231 64.0062 43.3723 63.4842 43.3723C62.3714 43.3723 61.5146 43.2147 60.9138 42.8996C60.3229 42.5943 60.0275 42.1068 60.0275 41.4371C60.0275 41.122 60.1161 40.8364 60.2934 40.5803C60.4707 40.3243 60.6873 40.1125 60.9434 39.9451C60.7267 39.7777 60.5691 39.5906 60.4707 39.3838C60.382 39.1671 60.3377 38.9455 60.3377 38.719C60.3377 38.3054 60.4263 37.9804 60.6036 37.744C60.7907 37.4978 61.0074 37.291 61.2536 37.1236C61.0369 36.8872 60.8646 36.6213 60.7366 36.3259C60.6184 36.0206 60.5593 35.6907 60.5593 35.3362ZM65.5523 40.994C65.5523 40.797 65.4588 40.6542 65.2717 40.5656C65.0944 40.4868 64.8285 40.4474 64.474 40.4474H62.3911C62.0267 40.5853 61.8445 40.8118 61.8445 41.1269C61.8445 41.6193 62.4009 41.8655 63.5138 41.8655C64.1834 41.8655 64.6906 41.7917 65.0353 41.6439C65.38 41.5061 65.5523 41.2894 65.5523 40.994ZM63.6172 34.2282C63.302 34.2282 63.0312 34.3316 62.8047 34.5384C62.588 34.7453 62.4797 35.0112 62.4797 35.3362C62.4797 35.671 62.588 35.9418 62.8047 36.1486C63.0312 36.3456 63.302 36.4441 63.6172 36.4441C63.9323 36.4441 64.1982 36.3456 64.4149 36.1486C64.6414 35.9418 64.7546 35.671 64.7546 35.3362C64.7546 35.0112 64.6414 34.7453 64.4149 34.5384C64.1982 34.3316 63.9323 34.2282 63.6172 34.2282ZM74.8221 39.5758C74.4676 39.7826 74.0539 39.9451 73.5812 40.0633C73.1184 40.1913 72.5964 40.2553 72.0154 40.2553C71.3949 40.2553 70.8336 40.1618 70.3313 39.9747C69.829 39.7777 69.4056 39.5118 69.0609 39.177C68.7162 38.8323 68.4503 38.4236 68.2632 37.9509C68.0761 37.4683 67.9825 36.9463 67.9825 36.385C67.9825 35.8433 68.0711 35.3411 68.2484 34.8782C68.4355 34.4055 68.6916 34.0017 69.0166 33.6669C69.3514 33.3222 69.7453 33.0563 70.1984 32.8692C70.6514 32.6722 71.1487 32.5737 71.6904 32.5737C72.2517 32.5737 72.749 32.6673 73.1824 32.8544C73.6255 33.0317 73.9998 33.2877 74.3051 33.6226C74.6202 33.9574 74.8566 34.3612 75.0141 34.8339C75.1816 35.2968 75.2653 35.8089 75.2653 36.3702C75.2653 36.4785 75.2603 36.5918 75.2505 36.71C75.2406 36.8282 75.2308 36.9316 75.2209 37.0202H70.1097C70.1885 37.4437 70.4101 37.7884 70.7745 38.0543C71.1389 38.3202 71.6313 38.4531 72.2517 38.4531C72.6949 38.4531 73.1233 38.3891 73.5369 38.2611C73.9505 38.1232 74.3789 37.9115 74.8221 37.6259V39.5758ZM73.1971 35.6021C73.1577 35.1884 73.0002 34.8585 72.7244 34.6123C72.4487 34.3661 72.0991 34.243 71.6756 34.243C71.2521 34.243 70.8927 34.376 70.5972 34.6419C70.3018 34.9078 70.1294 35.2278 70.0802 35.6021H73.1971ZM78.7761 40.0633H76.6194V32.7658H78.7761V33.6964C79.0026 33.3419 79.2931 33.0661 79.6477 32.8692C80.0121 32.6722 80.4405 32.5737 80.9329 32.5737C81.77 32.5737 82.4249 32.8396 82.8976 33.3714C83.3802 33.9032 83.6214 34.632 83.6214 35.5577V40.0633H81.4647V36.06C81.4647 35.5774 81.3514 35.2081 81.1249 34.9521C80.8984 34.6862 80.5734 34.5532 80.1499 34.5532C79.7363 34.5532 79.4015 34.7009 79.1454 34.9964C78.8992 35.282 78.7761 35.6808 78.7761 36.1929V40.0633ZM84.4601 34.5384V34.2578L87.8725 30.6976H87.9316V32.7658H89.7782V34.5384H87.9316V37.2122C87.9316 37.6062 88.0153 37.8868 88.1827 38.0543C88.3502 38.2217 88.6062 38.3054 88.9509 38.3054C89.0986 38.3054 89.2463 38.2808 89.3941 38.2315C89.5418 38.1823 89.6698 38.1183 89.7782 38.0395V39.9303C89.6107 40.019 89.3941 40.0928 89.1282 40.1519C88.8721 40.211 88.5717 40.2406 88.2271 40.2406C87.449 40.2406 86.8483 40.0288 86.4248 39.6054C86.0014 39.172 85.7896 38.5467 85.7896 37.7293V34.5384H84.4601Z" fill="url(#paint0_linear_5635_28189)"></path>
    <path d="M23.0312 13.4461C23.0312 17.4613 25.8822 20.1812 29.8216 20.1812C30.936 20.1812 32.0762 19.9222 33.1129 19.3523V15.7775C32.3095 16.3474 31.3247 16.7618 30.3139 16.7618C28.3183 16.7618 26.841 15.363 26.841 13.4461C26.841 11.5033 28.3442 10.1303 30.3139 10.1303C31.2987 10.1303 32.2059 10.4412 33.0871 11.0629V7.51397C32.1541 6.96998 30.9878 6.71094 29.8734 6.71094C25.8563 6.71094 23.0312 9.58631 23.0312 13.4461Z" fill="#7962FE"></path>
    <path d="M33.7031 13.4461C33.7031 17.254 36.6835 20.1812 40.6488 20.1812C44.6141 20.1812 47.5945 17.254 47.5945 13.4461C47.5945 9.63812 44.6141 6.71094 40.6488 6.71094C36.6835 6.71094 33.7031 9.63812 33.7031 13.4461ZM37.4351 13.4461C37.4351 11.6069 38.8865 10.1562 40.6488 10.1562C42.4112 10.1562 43.8625 11.6069 43.8625 13.4461C43.8625 15.2853 42.4112 16.7359 40.6488 16.7359C38.8865 16.7359 37.4351 15.2853 37.4351 13.4461Z" fill="#7962FE"></path>
    <path d="M58.6018 1.71094V8.7051C57.7207 7.38398 56.1397 6.73637 54.4551 6.73637C51.0082 6.73637 48.3906 9.66356 48.3906 13.4456C48.3906 17.2535 51.0082 20.1548 54.4551 20.1548C56.1397 20.1548 57.7207 19.4295 58.6018 18.1343V19.8439H62.3598V1.71094H58.6018ZM52.1485 13.4456C52.1485 11.6064 53.5999 10.1298 55.44 10.1298C57.2801 10.1298 58.7314 11.6064 58.7314 13.4456C58.7314 15.2848 57.2801 16.7613 55.44 16.7613C53.5999 16.7613 52.1485 15.2848 52.1485 13.4456Z" fill="#7962FE"></path>
    <path d="M67.8933 19.8436V7.04688H64.1094V19.8436H67.8933Z" fill="#7962FE"></path>
    <path d="M77.9855 13.8079C77.9855 15.6212 77.0525 16.7092 75.6012 16.7092C74.1757 16.7092 73.3464 15.7249 73.3464 14.0411V7.04688H69.5625V14.9477C69.5625 18.1599 71.3508 20.1804 74.2535 20.1804C75.9381 20.1804 77.2339 19.4292 77.9855 18.2117V19.8436H81.7694V7.04688H77.9855V13.8079Z" fill="#7962FE"></path>
    <path d="M87.3073 13.0057C87.3073 11.2442 88.1885 10.1562 89.5362 10.1562C90.832 10.1562 91.5577 11.1147 91.5577 12.7467V19.8444H95.3415V12.928C95.3674 11.2183 96.2486 10.1562 97.5445 10.1562C98.8662 10.1562 99.5919 11.1147 99.5919 12.6949V19.8444H103.376V11.8141C103.376 8.70557 101.717 6.71094 98.7885 6.71094C96.9225 6.71094 95.4711 7.59168 94.6677 8.93871C93.9679 7.53988 92.6462 6.71094 90.9097 6.71094C89.2251 6.71094 87.9811 7.48807 87.3073 8.65376V7.04769H83.5234V19.8444H87.3073V13.0057Z" fill="#7962FE"></path>
    <path d="M106.666 1.88854V2.41907C106.384 1.9963 105.878 1.78906 105.339 1.78906C104.236 1.78906 103.398 2.72579 103.398 3.93607C103.398 5.15464 104.236 6.08308 105.339 6.08308C105.878 6.08308 106.384 5.85097 106.666 5.43649V5.9836H107.852V1.88854H106.666ZM104.601 3.93607C104.601 3.34751 105.065 2.875 105.654 2.875C106.243 2.875 106.708 3.34751 106.708 3.93607C106.708 4.52463 106.243 4.99714 105.654 4.99714C105.065 4.99714 104.601 4.52463 104.601 3.93607Z" fill="#7962FE"></path>
    <path d="M109.881 5.98509V1.89003H108.67V5.98509H109.881ZM109.98 0.704616C109.98 0.323295 109.665 0 109.275 0C108.885 0 108.57 0.323295 108.57 0.704616C108.57 1.08594 108.885 1.40923 109.275 1.40923C109.665 1.40923 109.98 1.08594 109.98 0.704616Z" fill="#7962FE"></path>
    <path d="M66.0077 1.6875C67.2258 1.6875 68.2107 2.6978 68.2107 3.88943C68.2107 5.08105 67.2258 6.09135 66.0077 6.09135C64.7896 6.09135 63.8047 5.08105 63.8047 3.88943C63.8047 2.6978 64.7896 1.6875 66.0077 1.6875Z" fill="#7962FE"></path>
    <path d="M6.70698 6.33984C7.66888 6.33984 8.58149 6.52799 9.40814 6.86571C7.57661 7.82628 6.29871 10.0022 6.29871 12.5333C6.29871 15.0645 7.57788 17.2404 9.40814 18.201C8.58149 18.5387 7.66888 18.7269 6.70698 18.7269C3.00727 18.7269 0.0078125 15.9538 0.0078125 12.5333C0.0078125 9.1129 3.00727 6.33984 6.70698 6.33984Z" fill="#05E5AD"></path>
    <path d="M6.70698 6.33984C7.66888 6.33984 8.58149 6.52799 9.40814 6.86571C7.57661 7.82628 6.29871 10.0022 6.29871 12.5333C6.29871 15.0645 7.57788 17.2404 9.40814 18.201C8.58149 18.5387 7.66888 18.7269 6.70698 18.7269C3.00727 18.7269 0.0078125 15.9538 0.0078125 12.5333C0.0078125 9.1129 3.00727 6.33984 6.70698 6.33984Z" fill="url(#paint1_radial_5635_28189)"></path>
    <path d="M11.973 8.72726C11.2955 7.92561 10.4107 7.28172 9.39062 6.86571C10.034 6.52799 10.7444 6.33984 11.4914 6.33984C12.1967 6.33984 12.8704 6.50812 13.4835 6.80962C12.8843 7.22213 12.3648 7.88822 11.9717 8.72726H11.973Z" fill="url(#paint2_radial_5635_28189)"></path>
    <path d="M11.9717 16.3438C12.3648 17.1827 12.8843 17.8477 13.4835 18.2614C12.8692 18.5641 12.1967 18.7311 11.4914 18.7311C10.7431 18.7311 10.0328 18.5429 9.39062 18.2052C10.4094 17.7892 11.2955 17.1453 11.973 16.3438H11.9717Z" fill="url(#paint3_radial_5635_28189)"></path>
    <path d="M6.28125 12.5348C6.28125 10.0037 7.56041 7.82777 9.39067 6.86719C10.4095 7.2832 11.2955 7.92709 11.973 8.72874C11.48 9.7793 11.1869 11.0998 11.1869 12.5348C11.1869 13.9699 11.4813 15.2904 11.973 16.3409C11.2955 17.1426 10.4108 17.7865 9.39067 18.2025C7.55914 17.2419 6.28125 15.066 6.28125 12.5348Z" fill="#7962FE"></path>
    <path d="M16.0314 15.5703C16.221 16.504 16.4953 17.287 16.8264 17.8397C16.2665 18.4018 15.6105 18.7255 14.9077 18.7255C14.4033 18.7255 13.923 18.5584 13.4844 18.2557C14.5651 17.724 15.4613 16.7716 16.0314 15.5715V15.5703Z" fill="url(#paint4_radial_5635_28189)"></path>
    <path d="M13.4844 6.80962C13.923 6.50695 14.4033 6.33984 14.9077 6.33984C15.6092 6.33984 16.2652 6.66354 16.8264 7.22563C16.4965 7.77837 16.2222 8.56133 16.0314 9.49503C15.4613 8.29489 14.5651 7.34249 13.4844 6.81078V6.80962Z" fill="url(#paint5_radial_5635_28189)"></path>
    <path d="M11.9766 16.3423C12.8626 15.2918 13.3923 13.9713 13.3923 12.5362C13.3923 11.1012 12.8626 9.78071 11.9766 8.73015C12.3697 7.89227 12.8892 7.22618 13.4883 6.8125C14.569 7.34421 15.4652 8.2966 16.0353 9.49674C15.852 10.3942 15.7483 11.4308 15.7483 12.5351C15.7483 13.6394 15.8532 14.6759 16.0353 15.5734C15.4652 16.7735 14.569 17.7259 13.4883 18.2576C12.8892 17.8451 12.3697 17.179 11.9766 16.34V16.3423Z" fill="#7962FE"></path>
    <path d="M11.9738 16.3387C11.4808 15.2882 11.1875 13.9677 11.1875 12.5326C11.1875 11.0976 11.4821 9.77712 11.9738 8.72656C12.8598 9.77712 13.3894 11.0976 13.3894 12.5326C13.3894 13.9677 12.8598 15.2882 11.9738 16.3387Z" fill="#321BB2"></path>
    <path d="M16.8359 7.22563C17.1721 6.66354 17.5652 6.33984 17.9874 6.33984C19.221 6.33984 20.2209 9.1129 20.2209 12.5333C20.2209 15.9538 19.221 18.7269 17.9874 18.7269C17.5665 18.7269 17.1721 18.4032 16.8359 17.8411C17.9166 16.7566 18.6396 14.7864 18.6396 12.5333C18.6396 10.2803 17.9166 8.30891 16.8359 7.22563Z" fill="#05E6AD"></path>
    <path d="M16.8359 7.22563C17.1721 6.66354 17.5652 6.33984 17.9874 6.33984C19.221 6.33984 20.2209 9.1129 20.2209 12.5333C20.2209 15.9538 19.221 18.7269 17.9874 18.7269C17.5665 18.7269 17.1721 18.4032 16.8359 17.8411C17.9166 16.7566 18.6396 14.7864 18.6396 12.5333C18.6396 10.2803 17.9166 8.30891 16.8359 7.22563Z" fill="url(#paint6_radial_5635_28189)"></path>
    <path d="M16.7024 12.5382C16.7024 11.4339 16.4586 10.3973 16.0312 9.49986C16.2209 8.56616 16.4951 7.78321 16.8263 7.23047C17.907 8.31375 18.63 10.2863 18.63 12.5382C18.63 14.79 17.907 16.7626 16.8263 17.8459C16.4964 17.2932 16.2221 16.5102 16.0312 15.5765C16.4572 14.679 16.7024 13.6425 16.7024 12.5382Z" fill="#7962FE"></path>
    <path d="M16.0368 15.5727C15.8536 14.6753 15.75 13.6387 15.75 12.5344C15.75 11.4301 15.8549 10.3936 16.0368 9.49609C16.4625 10.3936 16.7076 11.4301 16.7076 12.5344C16.7076 13.6387 16.4638 14.6753 16.0368 15.5727Z" fill="#321BB2"></path>
  </g>
  <defs>
    <linearGradient id="paint0_linear_5635_28189" x1="31.6492" y1="35.0237" x2="91.323" y2="35.0237" gradientUnits="userSpaceOnUse">
      <stop stop-color="#684BFE"></stop>
      <stop offset="0.729167" stop-color="#E178E7"></stop>
      <stop offset="1" stop-color="#05E5AD"></stop>
    </linearGradient>
    <radialGradient id="paint1_radial_5635_28189" cx="0" cy="0" r="1" gradientUnits="userSpaceOnUse" gradientTransform="translate(9.4126 12.5505) rotate(-179.261) scale(7.42124 10.0079)">
      <stop stop-color="#6447FF"></stop>
      <stop offset="0.0666667" stop-color="#6348FE"></stop>
      <stop offset="0.133333" stop-color="#614DFC"></stop>
      <stop offset="0.2" stop-color="#5C54F8"></stop>
      <stop offset="0.266667" stop-color="#565EF3"></stop>
      <stop offset="0.333333" stop-color="#4E6CEC"></stop>
      <stop offset="0.4" stop-color="#447BE4"></stop>
      <stop offset="0.466667" stop-color="#3A8DDB"></stop>
      <stop offset="0.533333" stop-color="#2F9FD1"></stop>
      <stop offset="0.6" stop-color="#25B1C8"></stop>
      <stop offset="0.666667" stop-color="#1BC0C0"></stop>
      <stop offset="0.733333" stop-color="#13CEB9"></stop>
      <stop offset="0.8" stop-color="#0DD8B4"></stop>
      <stop offset="0.866667" stop-color="#08DFB0"></stop>
      <stop offset="0.933333" stop-color="#06E4AE"></stop>
      <stop offset="1" stop-color="#05E5AD"></stop>
    </radialGradient>
    <radialGradient id="paint2_radial_5635_28189" cx="0" cy="0" r="1" gradientUnits="userSpaceOnUse" gradientTransform="translate(14.2582 7.9996) rotate(-165.203) scale(4.10459 3.9445)">
      <stop stop-color="#6447FF"></stop>
      <stop offset="0.0666667" stop-color="#6348FE"></stop>
      <stop offset="0.133333" stop-color="#614DFC"></stop>
      <stop offset="0.2" stop-color="#5C54F8"></stop>
      <stop offset="0.266667" stop-color="#565EF3"></stop>
      <stop offset="0.333333" stop-color="#4E6CEC"></stop>
      <stop offset="0.4" stop-color="#447BE4"></stop>
      <stop offset="0.466667" stop-color="#3A8DDB"></stop>
      <stop offset="0.533333" stop-color="#2F9FD1"></stop>
      <stop offset="0.6" stop-color="#25B1C8"></stop>
      <stop offset="0.666667" stop-color="#1BC0C0"></stop>
      <stop offset="0.733333" stop-color="#13CEB9"></stop>
      <stop offset="0.8" stop-color="#0DD8B4"></stop>
      <stop offset="0.866667" stop-color="#08DFB0"></stop>
      <stop offset="0.933333" stop-color="#06E4AE"></stop>
      <stop offset="1" stop-color="#05E5AD"></stop>
    </radialGradient>
    <radialGradient id="paint3_radial_5635_28189" cx="0" cy="0" r="1" gradientUnits="userSpaceOnUse" gradientTransform="translate(14.2582 18.0034) rotate(-165.203) scale(4.10459 3.9445)">
      <stop stop-color="#6447FF"></stop>
      <stop offset="0.0666667" stop-color="#6348FE"></stop>
      <stop offset="0.133333" stop-color="#614DFC"></stop>
      <stop offset="0.2" stop-color="#5C54F8"></stop>
      <stop offset="0.266667" stop-color="#565EF3"></stop>
      <stop offset="0.333333" stop-color="#4E6CEC"></stop>
      <stop offset="0.4" stop-color="#447BE4"></stop>
      <stop offset="0.466667" stop-color="#3A8DDB"></stop>
      <stop offset="0.533333" stop-color="#2F9FD1"></stop>
      <stop offset="0.6" stop-color="#25B1C8"></stop>
      <stop offset="0.666667" stop-color="#1BC0C0"></stop>
      <stop offset="0.733333" stop-color="#13CEB9"></stop>
      <stop offset="0.8" stop-color="#0DD8B4"></stop>
      <stop offset="0.866667" stop-color="#08DFB0"></stop>
      <stop offset="0.933333" stop-color="#06E4AE"></stop>
      <stop offset="1" stop-color="#05E5AD"></stop>
    </radialGradient>
    <radialGradient id="paint4_radial_5635_28189" cx="0" cy="0" r="1" gradientUnits="userSpaceOnUse" gradientTransform="translate(17.8492 17.8416) rotate(-158.051) scale(3.91435 5.49308)">
      <stop stop-color="#6447FF"></stop>
      <stop offset="0.0666667" stop-color="#6348FE"></stop>
      <stop offset="0.133333" stop-color="#614DFC"></stop>
      <stop offset="0.2" stop-color="#5C54F8"></stop>
      <stop offset="0.266667" stop-color="#565EF3"></stop>
      <stop offset="0.333333" stop-color="#4E6CEC"></stop>
      <stop offset="0.4" stop-color="#447BE4"></stop>
      <stop offset="0.466667" stop-color="#3A8DDB"></stop>
      <stop offset="0.533333" stop-color="#2F9FD1"></stop>
      <stop offset="0.6" stop-color="#25B1C8"></stop>
      <stop offset="0.666667" stop-color="#1BC0C0"></stop>
      <stop offset="0.733333" stop-color="#13CEB9"></stop>
      <stop offset="0.8" stop-color="#0DD8B4"></stop>
      <stop offset="0.866667" stop-color="#08DFB0"></stop>
      <stop offset="0.933333" stop-color="#06E4AE"></stop>
      <stop offset="1" stop-color="#05E5AD"></stop>
    </radialGradient>
    <radialGradient id="paint5_radial_5635_28189" cx="0" cy="0" r="1" gradientUnits="userSpaceOnUse" gradientTransform="translate(17.8492 8.61109) rotate(-158.051) scale(3.91435 5.49308)">
      <stop stop-color="#6447FF"></stop>
      <stop offset="0.0666667" stop-color="#6348FE"></stop>
      <stop offset="0.133333" stop-color="#614DFC"></stop>
      <stop offset="0.2" stop-color="#5C54F8"></stop>
      <stop offset="0.266667" stop-color="#565EF3"></stop>
      <stop offset="0.333333" stop-color="#4E6CEC"></stop>
      <stop offset="0.4" stop-color="#447BE4"></stop>
      <stop offset="0.466667" stop-color="#3A8DDB"></stop>
      <stop offset="0.533333" stop-color="#2F9FD1"></stop>
      <stop offset="0.6" stop-color="#25B1C8"></stop>
      <stop offset="0.666667" stop-color="#1BC0C0"></stop>
      <stop offset="0.733333" stop-color="#13CEB9"></stop>
      <stop offset="0.8" stop-color="#0DD8B4"></stop>
      <stop offset="0.866667" stop-color="#08DFB0"></stop>
      <stop offset="0.933333" stop-color="#06E4AE"></stop>
      <stop offset="1" stop-color="#05E5AD"></stop>
    </radialGradient>
    <radialGradient id="paint6_radial_5635_28189" cx="0" cy="0" r="1" gradientUnits="userSpaceOnUse" gradientTransform="translate(18.1421 12.4547) scale(2.36219 10.7728)">
      <stop stop-color="#05E5AD"></stop>
      <stop offset="0.32" stop-color="#05E5AD" stop-opacity="0"></stop>
      <stop offset="0.902778" stop-color="#6447FF"></stop>
    </radialGradient>
    <clipPath id="clip0_5635_28189">
      <rect width="110" height="44" fill="white"></rect>
    </clipPath>
  </defs>
</svg>
