<?xml version="1.0" encoding="UTF-8"?>
<svg xmlns="http://www.w3.org/2000/svg" width="80" height="80" viewBox="0 0 80 80" fill="none">
  <path d="M26.5053 13C30.3111 13 33.9218 13.8052 37.1925 15.2505C29.946 19.3613 24.89 28.6732 24.89 39.5053C24.89 50.3376 29.951 59.6495 37.1925 63.7601C33.9218 65.2056 30.3111 66.0106 26.5053 66.0106C11.8674 66.0106 0 54.1432 0 39.5053C0 24.8674 11.8674 13 26.5053 13Z" fill="#05E5AD"></path>
  <path d="M26.5053 13C30.3111 13 33.9218 13.8052 37.1925 15.2505C29.946 19.3613 24.89 28.6732 24.89 39.5053C24.89 50.3376 29.951 59.6495 37.1925 63.7601C33.9218 65.2056 30.3111 66.0106 26.5053 66.0106C11.8674 66.0106 0 54.1432 0 39.5053C0 24.8674 11.8674 13 26.5053 13Z" fill="url(#paint0_radial_748_1348)"></path>
  <path d="M47.4066 23.217C44.7259 19.7863 41.2254 17.0309 37.1895 15.2505C39.7351 13.8052 42.5456 13 45.5012 13C48.2918 13 50.9572 13.7202 53.3827 15.0103C51.0123 16.7757 48.9568 19.6264 47.4016 23.217H47.4066Z" fill="url(#paint1_radial_748_1348)"></path>
  <path d="M47.4016 55.7946C48.957 59.3854 51.0123 62.2308 53.3827 64.0012C50.9522 65.2965 48.2918 66.0117 45.5012 66.0117C42.5406 66.0117 39.7301 65.2065 37.1895 63.7613C41.2203 61.9808 44.7259 59.2252 47.4066 55.7946H47.4016Z" fill="url(#paint2_radial_748_1348)"></path>
  <path d="M24.8887 39.5053C24.8887 28.673 29.9496 19.3612 37.1911 15.2505C41.222 17.0307 44.7276 19.7864 47.4081 23.217C45.4579 27.7129 44.2976 33.3641 44.2976 39.5053C44.2976 45.6466 45.4629 51.2978 47.4081 55.7937C44.7276 59.2243 41.227 61.9797 37.1911 63.7602C29.9446 59.6493 24.8887 50.3374 24.8887 39.5053Z" fill="#7962FE"></path>
  <path d="M63.4658 52.5057C64.2159 56.5017 65.3011 59.8523 66.6113 62.2177C64.396 64.6233 61.8005 66.0085 59.0199 66.0085C57.0245 66.0085 55.1241 65.2935 53.3887 63.9982C57.6645 61.7228 61.2103 57.6469 63.4658 52.5108V52.5057Z" fill="url(#paint3_radial_748_1348)"></path>
  <path d="M53.3887 15.0103C55.1241 13.7152 57.0245 13 59.0199 13C61.7955 13 64.391 14.3854 66.6113 16.7907C65.3061 19.1561 64.221 22.5068 63.4658 26.5027C61.2103 21.3666 57.6645 17.2909 53.3887 15.0153V15.0103Z" fill="url(#paint4_radial_748_1348)"></path>
  <path d="M47.4082 55.7917C50.914 51.2959 53.0093 45.6447 53.0093 39.5036C53.0093 33.3624 50.914 27.7112 47.4082 23.2153C48.9636 19.6295 51.0189 16.7791 53.3895 15.0087C57.6654 17.284 61.2112 21.3599 63.4664 26.4958C62.7414 30.3366 62.3313 34.7726 62.3313 39.4986C62.3313 44.2246 62.7464 48.6604 63.4664 52.5012C61.2112 57.6373 57.6654 61.713 53.3895 63.9886C51.0189 62.2232 48.9636 59.3725 47.4082 55.7819V55.7917Z" fill="#7962FE"></path>
  <path d="M47.4074 55.7952C45.4569 51.2993 44.2969 45.6482 44.2969 39.5069C44.2969 33.3656 45.462 27.7144 47.4074 23.2186C50.9132 27.7144 53.0085 33.3656 53.0085 39.5069C53.0085 45.6482 50.9132 51.2993 47.4074 55.7952Z" fill="#321BB2"></path>
  <path d="M66.6074 16.7907C67.9375 14.3854 69.4929 13 71.1632 13C76.0443 13 80 24.8674 80 39.5053C80 54.1432 76.0443 66.0106 71.1632 66.0106C69.4979 66.0106 67.9375 64.6254 66.6074 62.2198C70.8833 57.5791 73.7438 49.1473 73.7438 39.5053C73.7438 29.8634 70.8833 21.4267 66.6074 16.7907Z" fill="#05E6AD"></path>
  <path d="M66.6074 16.7907C67.9375 14.3854 69.4929 13 71.1632 13C76.0443 13 80 24.8674 80 39.5053C80 54.1432 76.0443 66.0106 71.1632 66.0106C69.4979 66.0106 67.9375 64.6254 66.6074 62.2198C70.8833 57.5791 73.7438 49.1473 73.7438 39.5053C73.7438 29.8634 70.8833 21.4267 66.6074 16.7907Z" fill="url(#paint5_radial_748_1348)"></path>
  <path d="M66.1204 39.5073C66.1204 34.7813 65.1553 30.3453 63.4648 26.5045C64.215 22.5088 65.3001 19.1582 66.6105 16.7925C70.8864 21.4285 73.7469 29.8703 73.7469 39.5073C73.7469 49.1441 70.8864 57.5859 66.6105 62.2218C65.3051 59.8562 64.22 56.5056 63.4648 52.5099C65.1502 48.6691 66.1204 44.2331 66.1204 39.5073Z" fill="#7962FE"></path>
  <path d="M63.4633 52.5073C62.7383 48.6665 62.3281 44.2308 62.3281 39.5048C62.3281 34.7788 62.7431 30.343 63.4633 26.5022C65.1487 30.343 66.1189 34.7788 66.1189 39.5048C66.1189 44.2308 65.1537 48.6665 63.4633 52.5073Z" fill="#321BB2"></path>
  <defs>
    <radialGradient id="paint0_radial_748_1348" cx="0" cy="0" r="1" gradientUnits="userSpaceOnUse" gradientTransform="translate(37.2101 39.5786) rotate(-179.2) scale(29.3626 42.8286)">
      <stop stop-color="#6447FF"></stop>
      <stop offset="0.0666667" stop-color="#6348FE"></stop>
      <stop offset="0.133333" stop-color="#614DFC"></stop>
      <stop offset="0.2" stop-color="#5C54F8"></stop>
      <stop offset="0.266667" stop-color="#565EF3"></stop>
      <stop offset="0.333333" stop-color="#4E6CEC"></stop>
      <stop offset="0.4" stop-color="#447BE4"></stop>
      <stop offset="0.466667" stop-color="#3A8DDB"></stop>
      <stop offset="0.533333" stop-color="#2F9FD1"></stop>
      <stop offset="0.6" stop-color="#25B1C8"></stop>
      <stop offset="0.666667" stop-color="#1BC0C0"></stop>
      <stop offset="0.733333" stop-color="#13CEB9"></stop>
      <stop offset="0.8" stop-color="#0DD8B4"></stop>
      <stop offset="0.866667" stop-color="#08DFB0"></stop>
      <stop offset="0.933333" stop-color="#06E4AE"></stop>
      <stop offset="1" stop-color="#05E5AD"></stop>
    </radialGradient>
    <radialGradient id="paint1_radial_748_1348" cx="0" cy="0" r="1" gradientUnits="userSpaceOnUse" gradientTransform="translate(56.448 20.103) rotate(-164.055) scale(16.3296 16.7879)">
      <stop stop-color="#6447FF"></stop>
      <stop offset="0.0666667" stop-color="#6348FE"></stop>
      <stop offset="0.133333" stop-color="#614DFC"></stop>
      <stop offset="0.2" stop-color="#5C54F8"></stop>
      <stop offset="0.266667" stop-color="#565EF3"></stop>
      <stop offset="0.333333" stop-color="#4E6CEC"></stop>
      <stop offset="0.4" stop-color="#447BE4"></stop>
      <stop offset="0.466667" stop-color="#3A8DDB"></stop>
      <stop offset="0.533333" stop-color="#2F9FD1"></stop>
      <stop offset="0.6" stop-color="#25B1C8"></stop>
      <stop offset="0.666667" stop-color="#1BC0C0"></stop>
      <stop offset="0.733333" stop-color="#13CEB9"></stop>
      <stop offset="0.8" stop-color="#0DD8B4"></stop>
      <stop offset="0.866667" stop-color="#08DFB0"></stop>
      <stop offset="0.933333" stop-color="#06E4AE"></stop>
      <stop offset="1" stop-color="#05E5AD"></stop>
    </radialGradient>
    <radialGradient id="paint2_radial_748_1348" cx="0" cy="0" r="1" gradientUnits="userSpaceOnUse" gradientTransform="translate(56.448 62.8976) rotate(-164.055) scale(16.3296 16.7879)">
      <stop stop-color="#6447FF"></stop>
      <stop offset="0.0666667" stop-color="#6348FE"></stop>
      <stop offset="0.133333" stop-color="#614DFC"></stop>
      <stop offset="0.2" stop-color="#5C54F8"></stop>
      <stop offset="0.266667" stop-color="#565EF3"></stop>
      <stop offset="0.333333" stop-color="#4E6CEC"></stop>
      <stop offset="0.4" stop-color="#447BE4"></stop>
      <stop offset="0.466667" stop-color="#3A8DDB"></stop>
      <stop offset="0.533333" stop-color="#2F9FD1"></stop>
      <stop offset="0.6" stop-color="#25B1C8"></stop>
      <stop offset="0.666667" stop-color="#1BC0C0"></stop>
      <stop offset="0.733333" stop-color="#13CEB9"></stop>
      <stop offset="0.8" stop-color="#0DD8B4"></stop>
      <stop offset="0.866667" stop-color="#08DFB0"></stop>
      <stop offset="0.933333" stop-color="#06E4AE"></stop>
      <stop offset="1" stop-color="#05E5AD"></stop>
    </radialGradient>
    <radialGradient id="paint3_radial_748_1348" cx="0" cy="0" r="1" gradientUnits="userSpaceOnUse" gradientTransform="translate(70.6579 62.2257) rotate(-156.448) scale(15.6699 23.2337)">
      <stop stop-color="#6447FF"></stop>
      <stop offset="0.0666667" stop-color="#6348FE"></stop>
      <stop offset="0.133333" stop-color="#614DFC"></stop>
      <stop offset="0.2" stop-color="#5C54F8"></stop>
      <stop offset="0.266667" stop-color="#565EF3"></stop>
      <stop offset="0.333333" stop-color="#4E6CEC"></stop>
      <stop offset="0.4" stop-color="#447BE4"></stop>
      <stop offset="0.466667" stop-color="#3A8DDB"></stop>
      <stop offset="0.533333" stop-color="#2F9FD1"></stop>
      <stop offset="0.6" stop-color="#25B1C8"></stop>
      <stop offset="0.666667" stop-color="#1BC0C0"></stop>
      <stop offset="0.733333" stop-color="#13CEB9"></stop>
      <stop offset="0.8" stop-color="#0DD8B4"></stop>
      <stop offset="0.866667" stop-color="#08DFB0"></stop>
      <stop offset="0.933333" stop-color="#06E4AE"></stop>
      <stop offset="1" stop-color="#05E5AD"></stop>
    </radialGradient>
    <radialGradient id="paint4_radial_748_1348" cx="0" cy="0" r="1" gradientUnits="userSpaceOnUse" gradientTransform="translate(70.6579 22.7198) rotate(-156.448) scale(15.6699 23.2337)">
      <stop stop-color="#6447FF"></stop>
      <stop offset="0.0666667" stop-color="#6348FE"></stop>
      <stop offset="0.133333" stop-color="#614DFC"></stop>
      <stop offset="0.2" stop-color="#5C54F8"></stop>
      <stop offset="0.266667" stop-color="#565EF3"></stop>
      <stop offset="0.333333" stop-color="#4E6CEC"></stop>
      <stop offset="0.4" stop-color="#447BE4"></stop>
      <stop offset="0.466667" stop-color="#3A8DDB"></stop>
      <stop offset="0.533333" stop-color="#2F9FD1"></stop>
      <stop offset="0.6" stop-color="#25B1C8"></stop>
      <stop offset="0.666667" stop-color="#1BC0C0"></stop>
      <stop offset="0.733333" stop-color="#13CEB9"></stop>
      <stop offset="0.8" stop-color="#0DD8B4"></stop>
      <stop offset="0.866667" stop-color="#08DFB0"></stop>
      <stop offset="0.933333" stop-color="#06E4AE"></stop>
      <stop offset="1" stop-color="#05E5AD"></stop>
    </radialGradient>
    <radialGradient id="paint5_radial_748_1348" cx="0" cy="0" r="1" gradientUnits="userSpaceOnUse" gradientTransform="translate(71.7755 39.1689) scale(9.34603 46.1029)">
      <stop stop-color="#05E5AD"></stop>
      <stop offset="0.32" stop-color="#05E5AD" stop-opacity="0"></stop>
      <stop offset="0.902778" stop-color="#6447FF"></stop>
    </radialGradient>
  </defs>
</svg>
