<?xml version="1.0" encoding="UTF-8"?>
<svg xmlns="http://www.w3.org/2000/svg" width="217" height="45" viewBox="0 0 217 45" fill="none">
  <path d="M60.7594 35.2252L59.2515 36.375L59.4777 38.2599L61.2306 38.9951L62.7386 37.8453L62.4935 35.9603L60.7594 35.2252Z" fill="white"></path>
  <path d="M3.17515 22.7471L0.668213 24.6508L1.06405 27.7798L3.96682 29.005L6.47376 27.0824L6.07792 23.9534L3.17515 22.7471Z" fill="white"></path>
  <path d="M13.9946 17.9405L13.7118 15.754L11.3745 14.7739L9.33882 16.3195L9.56501 17.9782L7.75549 19.3354L8.30212 23.5576L12.2227 25.1975L15.6156 22.6151L15.069 18.4118L13.9946 17.9405Z" fill="white"></path>
  <path d="M59.6474 16.885L61.6077 11.6449L61.3438 6.34832L61.0987 3.53979L59.1384 3.50209L57.4043 6.14098L57.3855 4.44455L56.1226 3.70944L54.6146 4.95348L53.691 9.79772L54.6146 15.9614L53.1632 16.6211C53.069 16.6588 52.8051 16.7908 52.5412 16.9227L52.3527 15.4525L45.2466 12.4743L44.8319 12.7947L44.6623 11.4376L36.3121 7.93165L33.9182 9.74117L31.694 8.81756L29.206 10.7213L26.8875 9.76002L29.6772 7.63006L29.0175 2.52194L24.2675 0.523926L20.1772 3.65289L20.705 7.7997L17.708 10.0805L18.0661 12.889L17.0859 13.6429L18.1603 22.0874L26.0016 25.3671L30.205 22.1628L30.2427 22.4078L32.5611 23.388L33.0512 27.252L39.8369 30.0983L40.8736 29.3066L43.6821 30.7391L43.4182 33.6796L48.8279 39.636V39.6736L48.8656 39.6925L48.9976 39.8433L49.1107 39.8056L50.2416 40.2768L51.4668 39.3532L51.2783 37.8264L49.9023 37.261L49.8081 37.1667L48.696 34.0189L49.9966 30.3622L50.1474 30.3245L50.1285 30.3433L50.5055 33.3403L53.069 34.4147L53.2386 35.7153L55.6136 36.7143L57.6682 35.1498L57.3478 32.6052L55.6136 31.8889L55.3309 29.6836L54.5015 29.3443L55.4817 29.1181H60.6652L63.2853 27.3651V20.7114L59.6474 16.885Z" fill="white"></path>
  <path d="M74.425 27.3275V27.0447C74.425 20.1648 77.3467 16.7154 83.1899 16.7154C84.4151 16.7154 85.5272 16.9039 86.5074 17.2997C87.5064 17.6767 88.298 18.1479 88.8824 18.6568C89.4667 19.1846 89.9756 19.8632 90.428 20.7114C90.8615 21.5596 91.182 22.2759 91.3705 22.8602C91.5589 23.4445 91.7097 24.1608 91.804 24.9902C91.9171 25.8007 91.9548 26.3096 91.9548 26.517V27.384L91.8794 28.7977H77.309C77.4975 30.8146 78.1006 32.2659 79.1562 33.1707C80.2117 34.0755 81.7574 34.5278 83.8119 34.5278C86.7147 34.5278 88.9955 34.0378 90.673 33.0388V36.0169C88.7504 36.9405 86.4131 37.4118 83.6611 37.4118H83.548C82.3794 37.4118 81.305 37.2798 80.3248 36.9971C79.3447 36.7144 78.3834 36.2243 77.4409 35.5457C76.4985 34.8483 75.7633 33.8116 75.2167 32.4167C74.7078 31.0031 74.425 29.3066 74.425 27.3275ZM77.3278 26.2154H89.0709C89.0709 25.763 89.0143 25.2541 88.9012 24.6886C88.7881 24.1231 88.5619 23.4068 88.2415 22.5209C87.9022 21.635 87.299 20.8999 86.432 20.3156C85.5649 19.7312 84.4905 19.4297 83.2088 19.4297C81.2108 19.4297 79.7782 19.9386 78.8735 20.9753C77.9875 22.012 77.4598 23.7461 77.3278 26.2154ZM96.7425 44.5179V23.0299C96.7425 22.5021 96.8179 21.9366 96.9875 21.39C97.1571 20.8245 97.4776 20.1459 97.9677 19.3543C98.4577 18.5626 99.306 17.9217 100.512 17.4317C101.719 16.9416 103.208 16.6965 104.98 16.6965C105.734 16.6965 106.45 16.7531 107.166 16.885C107.882 17.017 108.655 17.2997 109.485 17.7709C110.314 18.2233 111.03 18.8265 111.633 19.5616C112.236 20.2967 112.745 21.3334 113.16 22.6717C113.575 23.9912 113.782 25.5368 113.782 27.2898C113.782 29.2878 113.518 30.9654 112.972 32.3602C112.444 33.755 111.69 34.7917 110.747 35.4892C109.805 36.1866 108.844 36.6767 107.845 36.9594C106.864 37.2421 105.79 37.3741 104.603 37.3741C102.963 37.3741 101.323 37.1102 99.6264 36.6013V44.4991H96.7425V44.5179ZM99.6452 33.6796C101.172 34.3394 102.831 34.6786 104.621 34.6786C106.808 34.6786 108.41 34.0943 109.39 32.9445C110.389 31.7759 110.879 29.891 110.879 27.2709C110.879 25.5933 110.691 24.1797 110.333 23.0676C109.975 21.9555 109.466 21.1261 108.825 20.6172C108.184 20.1082 107.562 19.7689 106.978 19.5993C106.393 19.4297 105.734 19.3543 104.98 19.3543C101.436 19.3543 99.6452 20.5418 99.6452 22.9168V33.6796ZM117.59 22.4832C117.59 20.881 118.174 19.5239 119.343 18.393C120.511 17.262 122.302 16.6965 124.696 16.6965C126.411 16.6965 128.126 17.1112 129.823 17.9217V20.8057C128.296 19.882 126.694 19.4297 124.997 19.4297C121.981 19.4297 120.474 20.4475 120.474 22.5021C120.474 23.1995 120.832 23.765 121.567 24.1797C122.302 24.6132 123.188 24.9525 124.243 25.2352C125.299 25.5179 126.355 25.8572 127.41 26.2531C128.466 26.6489 129.37 27.3086 130.105 28.2511C130.841 29.1935 131.218 30.381 131.218 31.8324C131.218 33.5665 130.558 34.9425 129.276 35.9227C127.976 36.9028 126.185 37.4118 123.866 37.4118C121.642 37.4118 119.625 36.9028 117.816 35.9038V32.8503C119.738 34.0378 121.718 34.6221 123.753 34.6221C126.807 34.6221 128.315 33.6985 128.315 31.8513C128.315 30.8523 127.957 30.0794 127.222 29.514C126.486 28.9485 125.601 28.5338 124.545 28.2511C123.489 27.9683 122.434 27.6667 121.378 27.3275C120.323 26.9882 119.418 26.4227 118.683 25.631C117.967 24.8205 117.59 23.765 117.59 22.4832ZM134.912 30.9277C134.912 30.0229 135.082 29.2124 135.421 28.515C135.76 27.7987 136.156 27.2144 136.646 26.7808C137.136 26.3285 137.739 25.9515 138.493 25.6499C139.247 25.3483 139.907 25.1033 140.473 24.9525C141.038 24.8017 141.735 24.6886 142.527 24.6132C143.319 24.5378 143.884 24.5001 144.205 24.4812C144.544 24.4624 144.94 24.4624 145.392 24.4624L148.615 24.6509C148.615 22.8414 148.125 21.5408 147.145 20.7491C146.165 19.9763 144.695 19.5805 142.772 19.5805C140.604 19.5805 138.644 19.9009 136.91 20.5418V17.7332C138.889 17.0358 140.887 16.6965 142.923 16.6965C145.731 16.6965 147.861 17.4128 149.35 18.8265C150.821 20.2402 151.556 22.3136 151.556 25.0467V31.0596C151.556 32.3413 151.254 33.4346 150.67 34.3394C150.067 35.2441 149.313 35.9038 148.37 36.3185C147.428 36.7144 146.561 36.9971 145.75 37.1667C144.94 37.3175 144.129 37.3929 143.338 37.3929C142.716 37.3929 142.094 37.3552 141.453 37.2798C140.812 37.2044 140.077 37.0159 139.247 36.7332C138.437 36.4505 137.721 36.0923 137.117 35.6588C136.514 35.2253 136.005 34.5844 135.572 33.7739C135.119 32.9445 134.912 32.0021 134.912 30.9277ZM137.815 30.9277C137.815 33.4157 139.624 34.6786 143.262 34.6786H143.319C146.862 34.6786 148.634 33.4723 148.634 31.0596V27.2144C147.748 27.0636 146.561 26.9882 145.072 26.9882C140.227 26.9693 137.815 28.2888 137.815 30.9277ZM155.929 26.9882C155.929 24.8959 156.212 23.1241 156.777 21.6539C157.343 20.2025 158.097 19.1281 159.039 18.4684C159.981 17.8086 160.886 17.3374 161.753 17.0924C162.601 16.8285 163.506 16.7154 164.449 16.7154C166.164 16.7154 167.596 16.9604 168.765 17.4317C169.934 17.9029 170.744 18.5249 171.216 19.2789C171.687 20.0328 172.007 20.6737 172.158 21.2203C172.328 21.767 172.403 22.3136 172.403 22.8414V37.9395C172.403 38.8255 172.271 39.636 172.026 40.3899C171.762 41.1439 171.347 41.8602 170.763 42.5764C170.179 43.2927 169.274 43.8393 168.068 44.2352C166.861 44.631 165.41 44.8383 163.695 44.8383C161.829 44.8383 159.925 44.5933 158.002 44.1221V41.3889C159.718 41.879 161.508 42.1052 163.393 42.1052C164.675 42.1052 165.749 41.9921 166.616 41.7659C167.483 41.5397 168.105 41.2193 168.501 40.7858C168.897 40.3711 169.161 39.9376 169.312 39.5229C169.463 39.1082 169.519 38.5993 169.519 38.0149V36.0169C168.011 36.507 166.447 36.752 164.826 36.752C163.94 36.752 163.11 36.6767 162.338 36.5259C161.565 36.3751 160.773 36.0735 159.981 35.6399C159.171 35.1876 158.492 34.6221 157.908 33.9058C157.324 33.2084 156.871 32.2659 156.513 31.0785C156.098 29.9098 155.929 28.5338 155.929 26.9882ZM158.832 26.9693C158.832 28.4773 158.982 29.7025 159.303 30.6826C159.623 31.6628 160.095 32.379 160.717 32.8503C161.339 33.3215 161.961 33.6419 162.583 33.7927C163.205 33.9435 163.94 34.0189 164.788 34.0189C166.39 34.0189 167.955 33.7173 169.481 33.0953V22.7094C169.481 20.4664 167.804 19.3354 164.43 19.3354C163.714 19.3354 163.073 19.4297 162.507 19.5993C161.942 19.7689 161.357 20.0894 160.754 20.5795C160.132 21.0695 159.661 21.8424 159.322 22.9356C158.982 24.01 158.832 25.3672 158.832 26.9693ZM177.436 32.2471C176.87 30.8146 176.588 29.0804 176.588 27.0447C176.588 25.009 176.87 23.2749 177.436 21.8424C178.001 20.4098 178.755 19.3354 179.735 18.638C180.697 17.9406 181.677 17.4317 182.695 17.1301C183.694 16.8285 184.806 16.6965 186.012 16.6965C187.218 16.6965 188.331 16.8473 189.348 17.1301C190.366 17.4317 191.346 17.9217 192.327 18.638C193.288 19.3354 194.061 20.4098 194.626 21.8424C195.192 23.2749 195.474 25.009 195.474 27.0447C195.474 29.0804 195.192 30.8146 194.626 32.2471C194.061 33.6796 193.307 34.754 192.327 35.4515C191.365 36.1489 190.366 36.6578 189.348 36.9594C188.331 37.261 187.218 37.3929 186.012 37.3929C184.806 37.3929 183.694 37.2421 182.695 36.9594C181.696 36.6578 180.716 36.1677 179.735 35.4515C178.774 34.754 178.001 33.6796 177.436 32.2471ZM181.055 21.1826C180.018 22.4078 179.509 24.3681 179.509 27.0447C179.509 29.7213 180.018 31.6816 181.055 32.9068C182.091 34.132 183.731 34.754 186.012 34.754C188.293 34.754 189.952 34.1509 190.988 32.9257C192.025 31.7193 192.553 29.759 192.553 27.0447C192.553 24.3304 192.025 22.3701 190.988 21.1638C189.952 19.9574 188.293 19.3354 186.012 19.3354C183.731 19.3354 182.091 19.9574 181.055 21.1826ZM200.055 37.0913V18.6568C202.675 17.3563 205.502 16.6965 208.537 16.6965C211.063 16.6965 213.004 17.3374 214.399 18.6191C215.794 19.9009 216.491 21.7104 216.491 24.0289V37.0913H213.588V24.0289C213.588 23.4634 213.532 22.9733 213.419 22.5209C213.306 22.0874 213.08 21.6162 212.74 21.1261C212.401 20.636 211.854 20.2402 211.1 19.9763C210.346 19.7124 209.385 19.5805 208.235 19.5805C206.558 19.5805 204.805 19.8443 202.976 20.391V37.0913H200.055Z" fill="white"></path>
</svg>
