<?xml version="1.0" encoding="UTF-8"?>
<svg xmlns="http://www.w3.org/2000/svg" width="32" height="32" viewBox="0 0 32 32" fill="none">
  <g clip-path="url(#clip0_4212_24121)">
    <path d="M29.6311 23.9999C29.8586 23.6134 30 23.178 30 22.7869V9.21291C30 8.82186 29.8588 8.38649 29.6312 8L15.5 16L29.6311 23.9999Z" fill="#00599C"></path>
    <path d="M16.7559 31.7066L28.7445 24.9197C29.0898 24.7241 29.4037 24.3865 29.6313 24L15.5002 16L1.36914 24C1.59669 24.3865 1.91066 24.7242 2.25592 24.9197L14.2445 31.7066C14.9351 32.0977 16.0653 32.0977 16.7559 31.7066Z" fill="#004482"></path>
    <path d="M29.6312 7.99995C29.4035 7.61337 29.0895 7.27576 28.7443 7.08024L16.7557 0.293283C16.0651 -0.097761 14.9349 -0.097761 14.2443 0.293283L2.25572 7.08024C1.56503 7.47119 1 8.43096 1 9.21295V22.787C1 23.178 1.1413 23.6135 1.36894 24L15.5 16L29.6312 7.99995Z" fill="#659AD2"></path>
    <path d="M15.5002 25.4789C10.1699 25.4789 5.8335 21.2268 5.8335 16.0002C5.8335 10.7736 10.1699 6.52148 15.5002 6.52148C18.9396 6.52148 22.1473 8.33638 23.8714 11.2579L19.6879 13.6316C18.825 12.1693 17.2203 11.2608 15.5002 11.2608C12.835 11.2608 10.6668 13.3869 10.6668 16.0002C10.6668 18.6135 12.835 20.7396 15.5002 20.7396C17.2205 20.7396 18.8252 19.8311 19.6882 18.3685L23.8717 20.7422C22.1476 23.664 18.9398 25.4789 15.5002 25.4789Z" fill="white"></path>
    <path d="M25.1666 15.4731H24.0924V14.4199H23.0185V15.4731H21.9443V16.5262H23.0185V17.5795H24.0924V16.5262H25.1666V15.4731Z" fill="white"></path>
    <path d="M29.1944 15.4731H28.1203V14.4199H27.0463V15.4731H25.9722V16.5262H27.0463V17.5795H28.1203V16.5262H29.1944V15.4731Z" fill="white"></path>
  </g>
  <defs>
    <clipPath id="clip0_4212_24121">
      <rect width="29" height="32" fill="white" transform="translate(1)"></rect>
    </clipPath>
  </defs>
</svg>
