<?xml version="1.0" encoding="UTF-8"?>
<svg xmlns="http://www.w3.org/2000/svg" width="49" height="48" viewBox="0 0 49 48" fill="none">
  <g clip-path="url(#clip0_15764_50824)">
    <path d="M48.5 0H0.5V48H48.5V0Z" fill="black"></path>
    <path d="M25.6832 12.145C31.1909 14.9938 31.9327 22.4565 30.5519 27.7362C29.0258 33.5678 23.9539 36.3965 18.1603 36.4277C15.345 36.4442 12.532 36.4434 9.72121 36.4254C9.66254 36.4254 9.60628 36.4019 9.56479 36.36C9.52331 36.3182 9.5 36.2613 9.5 36.2021V10.753C9.5 10.6941 9.52323 10.6376 9.56465 10.5958C9.60606 10.554 9.66233 10.5302 9.72121 10.5296C12.7256 10.5072 15.7234 10.4975 18.7144 10.5005C21.2482 10.5035 23.571 11.0517 25.6832 12.145ZM23.6299 26.2638C24.3761 22.6196 24.3226 16.7232 19.2684 16.2629C18.2868 16.1735 17.4148 16.1468 16.6522 16.1825C16.5949 16.1853 16.5408 16.2101 16.5012 16.2518C16.4618 16.2933 16.4398 16.3485 16.4399 16.4058L16.3975 30.4575C16.3973 30.515 16.4194 30.5702 16.4588 30.6117C16.4984 30.6534 16.5524 30.6782 16.6097 30.681C18.0709 30.7556 19.1657 30.684 19.8941 30.4665C21.9349 29.8544 23.18 28.4534 23.6299 26.2638Z" fill="white"></path>
    <path d="M32.4912 32.0933C32.4912 34.4823 34.3949 36.419 36.7433 36.419C39.0915 36.419 40.9952 34.4823 40.9952 32.0933C40.9952 29.7042 39.0915 27.7676 36.7433 27.7676C34.3949 27.7676 32.4912 29.7042 32.4912 32.0933Z" fill="#85BB24"></path>
  </g>
  <defs>
    <clipPath id="clip0_15764_50824">
      <rect x="0.5" width="48" height="48" rx="4" fill="white"></rect>
    </clipPath>
  </defs>
</svg>
