<?xml version="1.0" encoding="UTF-8"?>
<svg xmlns="http://www.w3.org/2000/svg" width="20" height="20" viewBox="0 0 20 20" fill="none">
  <path fill-rule="evenodd" clip-rule="evenodd" d="M5.47798 6.7566C5.88154 6.34924 5.88154 5.68936 5.47798 5.282L5.46443 5.26812C5.06087 4.86075 4.40705 4.86075 4.00349 5.26812L0.302668 9.00295C-0.100889 9.41032 -0.100889 10.0715 0.302668 10.4788L4.00349 14.2134C4.40705 14.6208 5.06087 14.6208 5.46443 14.2134L5.47798 14.1998C5.88154 13.7924 5.88154 13.1326 5.47798 12.7252L3.25269 10.4788C2.84913 10.0715 2.84913 9.41032 3.25269 9.00295L5.47798 6.7566ZM19.6973 9.00295L15.9965 5.26812C15.594 4.86075 14.9391 4.86075 14.5356 5.26812L14.522 5.282C14.1185 5.68936 14.1185 6.34924 14.522 6.7566L16.7484 9.00295C17.1519 9.41032 17.1519 10.0715 16.7484 10.4788L14.522 12.7252C14.1185 13.1326 14.1185 13.7924 14.522 14.1998L14.5356 14.2134C14.9391 14.6208 15.594 14.6208 15.9965 14.2134L19.6973 10.4788C20.1009 10.0715 20.1009 9.41032 19.6973 9.00295ZM13.4835 4.64003L8.15471 16.0406C7.98208 16.399 7.67921 16.8419 7.28846 16.8419H7.26778C6.50799 16.8419 6.01285 15.8101 6.34881 15.1144L11.6466 3.82178C11.8192 3.46442 12.4591 3.18418 12.4591 3.18418V3.15771C13.4928 3.15771 13.8185 3.94436 13.4835 4.64003Z" fill="#684BFE"></path>
</svg>
