<svg xmlns="http://www.w3.org/2000/svg" width="20" height="20" viewBox="0 0 20 20" fill="none">
  <g clip-path="url(#clip0_4418_25316)">
    <path d="M11.4609 16.6641H16.6693" stroke="#684BFE" stroke-width="1.5" stroke-linecap="round" stroke-linejoin="round"/>
    <path d="M3.33594 16.6641H8.54427" stroke="#684BFE" stroke-width="1.5" stroke-linecap="round" stroke-linejoin="round"/>
    <path d="M9.9974 15.2109C10.8024 15.2109 11.4557 15.8634 11.4557 16.6693C11.4557 17.4743 10.8032 18.1276 9.9974 18.1276C9.1924 18.1276 8.53906 17.4751 8.53906 16.6693C8.53906 15.8643 9.1924 15.2109 9.9974 15.2109Z" stroke="#684BFE" stroke-width="1.5" stroke-linecap="round" stroke-linejoin="round"/>
    <path d="M9.99823 2.5C7.6499 2.5 5.7474 4.4025 5.7474 6.75083C4.1824 6.75083 2.91406 8.01917 2.91406 9.58417C2.91406 11.1492 4.1824 12.4175 5.7474 12.4175H13.5382C15.4941 12.4175 17.0799 10.8317 17.0799 8.87583C17.0799 7.08417 15.7441 5.61833 14.0166 5.3825C13.4474 3.70667 11.8641 2.5 9.99823 2.5Z" stroke="#684BFE" stroke-width="1.5" stroke-linecap="round" stroke-linejoin="round"/>
    <path d="M10 12.418V15.2088" stroke="#684BFE" stroke-width="1.5" stroke-linecap="round" stroke-linejoin="round"/>
  </g>
  <defs>
    <clipPath id="clip0_4418_25316">
      <rect width="20" height="20" fill="white"/>
    </clipPath>
  </defs>
</svg>