<svg width="48" height="48" viewBox="0 0 48 48" fill="none" xmlns="http://www.w3.org/2000/svg">
<g clip-path="url(#clip0_14488_31598)">
<path d="M21.8479 9.77881L17.7031 6.70321C19.7931 5.91121 22.0503 5.45801 24.4153 5.45801C33.2747 5.45801 40.6909 11.5454 42.7699 19.758" stroke="#684BFE" stroke-width="2" stroke-linecap="round" stroke-linejoin="round"/>
<path d="M13.023 33.946L12.4312 39.0742C10.702 37.6618 9.17963 35.9348 7.99603 33.8844C3.56743 26.213 5.13163 16.7464 11.2036 10.8394" stroke="#684BFE" stroke-width="2" stroke-linecap="round" stroke-linejoin="round"/>
<path d="M38.3604 29.4999L43.097 27.4473C42.7384 29.6517 42.0036 31.8319 40.82 33.8823C36.3892 41.5537 27.4088 44.9351 19.2578 42.6251" stroke="#684BFE" stroke-width="2" stroke-linecap="round" stroke-linejoin="round"/>
<path d="M29.9649 18.8316C33.0398 21.9065 33.0398 26.8919 29.9649 29.9668C26.8899 33.0417 21.9045 33.0417 18.8296 29.9668C15.7547 26.8919 15.7547 21.9065 18.8296 18.8316C21.9045 15.7567 26.8899 15.7567 29.9649 18.8316Z" stroke="white" stroke-width="2" stroke-linecap="round" stroke-linejoin="round"/>
</g>
<defs>
<clipPath id="clip0_14488_31598">
<rect width="48" height="48" fill="white"/>
</clipPath>
</defs>
</svg>
