<?xml version="1.0" encoding="UTF-8"?>
<svg xmlns="http://www.w3.org/2000/svg" width="49" height="48" viewBox="0 0 49 48" fill="none">
  <g clip-path="url(#clip0_15764_50796)">
    <path d="M48.5 0H0.5V48H48.5V0Z" fill="#232F3E"></path>
    <path d="M16.7577 21.1272C16.7481 21.4781 16.7933 21.8283 16.8914 22.1661C16.9991 22.4559 17.1289 22.7376 17.2796 23.009C17.3335 23.0886 17.3628 23.1813 17.3642 23.2764C17.3642 23.3937 17.2931 23.5103 17.1338 23.6276L16.3709 24.1178C16.2788 24.1821 16.169 24.2188 16.0553 24.2233C15.9174 24.2145 15.788 24.156 15.6927 24.0596C15.5299 23.8905 15.3842 23.7067 15.2576 23.5108C15.1221 23.2865 14.9967 23.0578 14.8815 22.8252C13.9384 23.8991 12.7518 24.4361 11.3219 24.4361C10.3059 24.4361 9.49405 24.1569 8.90468 23.5959C8.3153 23.0351 8.0096 22.2882 8.0096 21.3535C8.0096 20.3619 8.37218 19.5541 9.11084 18.9486C9.84952 18.343 10.8263 18.0345 12.0726 18.0345C12.5009 18.0381 12.9284 18.0695 13.3523 18.1286C13.8009 18.1868 14.2623 18.2807 14.7443 18.3857V17.5313C14.7443 16.6431 14.5517 16.0225 14.1756 15.6631C13.7995 15.3039 13.1355 15.1263 12.2041 15.1263C11.7632 15.1257 11.3237 15.1764 10.8953 15.2772C10.4503 15.3797 10.0133 15.5126 9.58788 15.6748C9.4493 15.7345 9.30682 15.7854 9.16132 15.8271C9.09893 15.8465 9.03415 15.8579 8.96866 15.8607C8.79875 15.8607 8.71414 15.7434 8.71414 15.4994V14.9274C8.71414 14.7402 8.73831 14.5996 8.79873 14.516C8.89041 14.4098 9.00688 14.3262 9.13858 14.2718C9.62362 14.0395 10.1352 13.8628 10.6628 13.7452C11.2801 13.5928 11.9153 13.5186 12.5525 13.5244C13.9936 13.5244 15.0458 13.8405 15.7239 14.4707C16.3901 15.0996 16.7279 16.0583 16.7279 17.3426V21.1272H16.7577ZM11.8437 22.9034C12.2684 22.8987 12.6896 22.8276 13.0907 22.6928C13.535 22.5438 13.9313 22.2853 14.2403 21.9433C14.4357 21.7276 14.5769 21.4714 14.6526 21.1944C14.7353 20.8619 14.7762 20.5209 14.7742 20.1789V19.6886C14.4068 19.6022 14.0346 19.5359 13.6594 19.4897C13.2821 19.4441 12.9022 19.4211 12.5219 19.4211C11.7107 19.4211 11.1178 19.5734 10.7169 19.8896C10.3159 20.2056 10.1261 20.6493 10.1261 21.2328C10.1261 21.7815 10.2683 22.193 10.5732 22.4672C10.8626 22.7663 11.2856 22.9034 11.8437 22.9034ZM21.5658 24.1644C21.3476 24.1644 21.2018 24.1295 21.1045 24.0471C21.007 23.9786 20.9223 23.8133 20.8499 23.5925L18.0061 14.5647C17.9507 14.4132 17.9139 14.256 17.8967 14.0963C17.8967 13.9091 17.9941 13.8035 18.1861 13.8035H19.3733C19.6022 13.8035 19.76 13.8398 19.8433 13.9207C19.9419 13.9893 20.0146 14.1546 20.0857 14.3774L22.121 22.1079L24.0107 14.3774C24.0711 14.1436 24.1444 13.9914 24.2396 13.9207C24.3853 13.8345 24.5548 13.7936 24.7252 13.8035H25.6957C25.9261 13.8035 26.0839 13.8398 26.1812 13.9207C26.2785 14.0017 26.3631 14.1546 26.4101 14.3774L28.3226 22.2012L30.417 14.3774C30.4881 14.1436 30.5749 13.9914 30.6595 13.9207C30.7999 13.8347 30.9647 13.7936 31.1307 13.8035H32.2575C32.4503 13.8035 32.5611 13.8988 32.5611 14.0963C32.5578 14.1592 32.5493 14.2219 32.5356 14.2835C32.5167 14.3834 32.4884 14.4814 32.451 14.5763L29.5348 23.6028C29.4637 23.8367 29.3769 23.9875 29.2802 24.0575C29.1437 24.142 28.983 24.183 28.8209 24.1748H27.7751C27.5462 24.1748 27.3884 24.1398 27.2895 24.0575C27.1907 23.9751 27.1089 23.8236 27.062 23.5892L25.1845 16.0582L23.3189 23.5775C23.2586 23.8113 23.1868 23.9636 23.0915 24.0458C22.9963 24.1281 22.8227 24.1631 22.6059 24.1631L21.5658 24.1644ZM37.1204 24.4806C36.4928 24.4811 35.8672 24.4109 35.2564 24.2714C34.6514 24.1343 34.1794 23.9786 33.8644 23.8031C33.6703 23.6996 33.5379 23.5823 33.4896 23.4767C33.443 23.3732 33.4187 23.2617 33.4185 23.1489V22.5536C33.4185 22.3095 33.5161 22.1922 33.6959 22.1922C33.7701 22.1924 33.8438 22.2042 33.9142 22.2272C33.9853 22.2506 34.0961 22.2957 34.2176 22.3445C34.6449 22.5272 35.0915 22.665 35.5493 22.7559C36.0236 22.8479 36.5065 22.8939 36.9904 22.893C37.7518 22.893 38.3461 22.7641 38.757 22.5069C38.9543 22.3917 39.1163 22.2279 39.2265 22.0326C39.3368 21.8372 39.3914 21.6171 39.3848 21.3947C39.3893 21.2448 39.363 21.0956 39.3075 20.9555C39.2521 20.8155 39.1684 20.6874 39.0612 20.5787C38.843 20.3579 38.4306 20.159 37.8371 19.9718L36.0824 19.4451C35.198 19.1776 34.5447 18.7806 34.1459 18.2561C33.7556 17.7714 33.5424 17.1759 33.5395 16.5623C33.5306 16.1102 33.6436 15.6636 33.8672 15.2661C34.0831 14.8894 34.3805 14.562 34.7394 14.3061C35.1164 14.03 35.5435 13.8242 35.9986 13.6992C36.4943 13.5613 37.0084 13.4943 37.5242 13.5004C37.7954 13.4985 38.0665 13.514 38.3354 13.547C38.6128 13.582 38.8666 13.6286 39.1211 13.6759C39.3635 13.7342 39.5945 13.7932 39.8114 13.8618C39.9884 13.9145 40.1592 13.9851 40.3211 14.0723C40.4641 14.1418 40.5886 14.2419 40.6852 14.3651C40.7631 14.4787 40.8008 14.6137 40.7924 14.7498V15.2984C40.7924 15.5439 40.695 15.6727 40.5131 15.6727C40.3523 15.656 40.1963 15.6094 40.0538 15.5356C39.3224 15.2241 38.5298 15.069 37.7304 15.081C37.0401 15.081 36.4942 15.1845 36.1194 15.4074C35.7447 15.6303 35.5506 15.9677 35.5506 16.4463C35.5471 16.6016 35.5775 16.7559 35.6404 16.8988C35.7031 17.0419 35.7966 17.1705 35.9147 17.2761C36.1558 17.4983 36.6036 17.7212 37.2449 17.9201L38.9647 18.4439C39.8356 18.7134 40.4661 19.0878 40.8409 19.5659C41.21 20.0355 41.4059 20.6106 41.3975 21.2C41.4032 21.6689 41.2957 22.1325 41.0833 22.5543C40.868 22.9542 40.5663 23.3049 40.1989 23.5829C39.7991 23.8829 39.3427 24.105 38.8552 24.2372C38.2931 24.4026 37.7081 24.4847 37.1204 24.4806ZM39.409 30.1564C35.4277 32.9947 29.6385 34.5 24.6641 34.5C17.6904 34.5 11.4086 32.0128 6.66095 27.8784C6.28628 27.552 6.62469 27.1077 7.0733 27.3648C12.2056 30.2367 18.5379 31.9771 25.0871 31.9771C29.507 31.9771 34.3598 31.0892 38.8281 29.2677C39.4943 28.9743 40.063 29.6868 39.4097 30.1551L39.409 30.1564ZM41.0682 28.3338C40.5585 27.705 37.7013 28.0307 36.4059 28.1829C36.0192 28.2296 35.9588 27.9018 36.3107 27.6562C38.5858 26.116 42.3274 26.559 42.7625 27.0728C43.1975 27.5994 42.6409 31.2071 40.5103 32.9345C40.1838 33.204 39.8703 33.0633 40.0126 32.7136C40.4996 31.5567 41.5766 28.9536 41.0682 28.3338Z" fill="white"></path>
  </g>
  <defs>
    <clipPath id="clip0_15764_50796">
      <rect x="0.5" width="48" height="48" rx="4" fill="white"></rect>
    </clipPath>
  </defs>
</svg>
