<svg width="52" height="47" viewBox="0 0 52 47" fill="none" xmlns="http://www.w3.org/2000/svg">
<path d="M1.73112 0.313615C1.48845 0.310485 1.24804 0.360512 1.02676 0.460183C0.805488 0.559854 0.608713 0.706753 0.450253 0.890567C0.291793 1.07438 0.17549 1.29065 0.109509 1.5242C0.0435281 1.75774 0.0294692 2.0029 0.0683193 2.24246L7.12689 45.0927C7.21484 45.6171 7.48473 46.0937 7.88917 46.4389C8.29361 46.784 8.80674 46.9756 9.33841 46.98H43.2013C43.5998 46.9851 43.987 46.8469 44.2922 46.5906C44.5974 46.3342 44.8003 45.9767 44.8641 45.5833L51.9226 2.25077C51.9615 2.01122 51.9474 1.76606 51.8814 1.53251C51.8155 1.29897 51.6992 1.08269 51.5407 0.898881C51.3822 0.715068 51.1855 0.568168 50.9642 0.468497C50.7429 0.368826 50.5025 0.318799 50.2598 0.321929L1.73112 0.313615ZM31.4536 31.2832H20.6454L17.7189 15.9938H34.0725L31.4536 31.2832Z" fill="#2684FF"/>
<path d="M49.6694 15.9951H34.064L31.4451 31.2845H20.637L7.875 46.4326C8.2795 46.7824 8.79521 46.9769 9.32995 46.9813H43.2011C43.5997 46.9865 43.9868 46.8483 44.292 46.5919C44.5972 46.3355 44.8002 45.978 44.8639 45.5846L49.6694 15.9951Z" fill="url(#paint0_linear_7347_13391)"/>
<defs>
<linearGradient id="paint0_linear_7347_13391" x1="53.2777" y1="20.2768" x2="27.4877" y2="40.405" gradientUnits="userSpaceOnUse">
<stop offset="0.18" stop-color="#0052CC"/>
<stop offset="1" stop-color="#2684FF"/>
</linearGradient>
</defs>
</svg>
