<?xml version="1.0" encoding="UTF-8"?>
<svg xmlns="http://www.w3.org/2000/svg" width="20" height="20" viewBox="0 0 20 20" fill="none">
  <g clip-path="url(#clip0_1556_7718)">
    <path d="M13.3346 6.66602V4.16602L15.8346 1.66602L16.668 3.33268L18.3346 4.16602L15.8346 6.66602H13.3346ZM13.3346 6.66602L10.0013 9.99935M18.3346 9.99935C18.3346 14.6018 14.6038 18.3327 10.0013 18.3327C5.3988 18.3327 1.66797 14.6018 1.66797 9.99935C1.66797 5.39685 5.3988 1.66602 10.0013 1.66602M14.168 9.99935C14.168 10.8234 13.9236 11.629 13.4658 12.3142C13.0079 12.9994 12.3572 13.5335 11.5958 13.8488C10.8345 14.1642 9.99668 14.2467 9.18843 14.086C8.38017 13.9252 7.63774 13.5283 7.05502 12.9456C6.4723 12.3629 6.07547 11.6205 5.9147 10.8122C5.75392 10.004 5.83644 9.16619 6.1518 8.40483C6.46717 7.64348 7.00122 6.99273 7.68643 6.53489C8.37163 6.07705 9.17721 5.83268 10.0013 5.83268" stroke="#684BFE" stroke-width="1.5" stroke-linecap="round" stroke-linejoin="round"></path>
  </g>
  <defs>
    <clipPath id="clip0_1556_7718">
      <rect width="20" height="20" fill="white"></rect>
    </clipPath>
  </defs>
</svg>
