<?xml version="1.0" encoding="UTF-8"?>
<svg xmlns="http://www.w3.org/2000/svg" width="20" height="20" viewBox="0 0 20 20" fill="none">
  <path d="M13.3346 2.89C13.9606 3.20025 14.4875 3.67921 14.8559 4.27288C15.2242 4.86656 15.4194 5.55133 15.4194 6.25C15.4194 6.94867 15.2242 7.63344 14.8559 8.22712C14.4875 8.82079 13.9606 9.29975 13.3346 9.61M15.0013 13.9717C16.2613 14.5417 17.3946 15.4708 18.3346 16.6667M1.66797 16.6667C3.28964 14.6025 5.49297 13.3333 7.91797 13.3333C10.343 13.3333 12.5455 14.6025 14.168 16.6667M11.668 6.25C11.668 6.74246 11.571 7.23009 11.3825 7.68506C11.1941 8.14003 10.9178 8.55343 10.5696 8.90165C10.2214 9.24987 9.808 9.52609 9.35303 9.71455C8.89806 9.903 8.41043 10 7.91797 10C7.42551 10 6.93788 9.903 6.48291 9.71455C6.02793 9.52609 5.61454 9.24987 5.26632 8.90165C4.9181 8.55343 4.64188 8.14003 4.45342 7.68506C4.26497 7.23009 4.16797 6.74246 4.16797 6.25C4.16797 5.25544 4.56306 4.30161 5.26632 3.59835C5.96958 2.89509 6.92341 2.5 7.91797 2.5C8.91253 2.5 9.86636 2.89509 10.5696 3.59835C11.2729 4.30161 11.668 5.25544 11.668 6.25Z" stroke="#684BFE" stroke-width="1.5" stroke-linecap="round" stroke-linejoin="round"></path>
</svg>
