<svg width="50" height="48" viewBox="0 0 50 48" fill="none" xmlns="http://www.w3.org/2000/svg">
<path d="M33.4724 35.2265V39.2932C33.4724 40.3717 33.044 41.4061 32.2813 42.1687C31.5187 42.9314 30.4843 43.3598 29.4058 43.3598H11.1057C10.0272 43.3598 8.99281 42.9314 8.23016 42.1687C7.46751 41.4061 7.03906 40.3717 7.03906 39.2932V10.8264C7.03906 9.74789 7.46751 8.71352 8.23016 7.95087C8.99281 7.18822 10.0272 6.75977 11.1057 6.75977H29.4058C30.4843 6.75977 31.5187 7.18822 32.2813 7.95087C33.044 8.71352 33.4724 9.74789 33.4724 10.8264V16.9265" stroke="white" stroke-width="2" stroke-linecap="round" stroke-linejoin="round"/>
<path d="M35.5156 16.9858V35.1696" stroke="white" stroke-width="2" stroke-linecap="round" stroke-linejoin="round"/>
<path d="M34.5016 35.2234C39.555 35.2234 43.6516 31.1268 43.6516 26.0734C43.6516 21.0199 39.555 16.9233 34.5016 16.9233C29.4482 16.9233 25.3516 21.0199 25.3516 26.0734C25.3516 31.1268 29.4482 35.2234 34.5016 35.2234Z" stroke="#05E5AD" stroke-width="2" stroke-linecap="round" stroke-linejoin="round"/>
<path d="M45.6742 37.2567L40.9609 32.5435" stroke="#05E5AD" stroke-width="2" stroke-linecap="round" stroke-linejoin="round"/>
</svg>
