<svg xmlns="http://www.w3.org/2000/svg" width="20" height="20" viewBox="0 0 20 20" fill="none">
  <path d="M18.3307 7.5H1.66406M11.6641 14.5833L13.7474 12.5L11.6641 10.4167M8.33073 10.4167L6.2474 12.5L8.33073 14.5833M1.66406 6.5V13.5C1.66406 14.9 1.66406 15.6 1.93656 16.135C2.17624 16.6054 2.55868 16.9878 3.02906 17.2275C3.56406 17.5 4.26406 17.5 5.66406 17.5H14.3307C15.7307 17.5 16.4307 17.5 16.9657 17.2275C17.4361 16.9878 17.8185 16.6054 18.0582 16.135C18.3307 15.6 18.3307 14.9 18.3307 13.5V6.5C18.3307 5.1 18.3307 4.4 18.0582 3.865C17.8185 3.39462 17.4361 3.01218 16.9657 2.7725C16.4307 2.5 15.7307 2.5 14.3307 2.5H5.66406C4.26406 2.5 3.56406 2.5 3.02906 2.7725C2.55868 3.01218 2.17624 3.39462 1.93656 3.865C1.66406 4.4 1.66406 5.1 1.66406 6.5Z" stroke="#684BFE" stroke-width="1.5" stroke-linecap="round" stroke-linejoin="round"/>
</svg>