<?xml version="1.0" encoding="UTF-8"?>
<svg xmlns="http://www.w3.org/2000/svg" width="33" height="32" viewBox="0 0 33 32" fill="none">
  <g clip-path="url(#clip0_4212_24086)">
    <mask id="mask0_4212_24086" style="mask-type:luminance" maskUnits="userSpaceOnUse" x="0" y="7" width="33" height="18">
      <path d="M0.463867 16.0005C0.463867 20.7119 7.64357 24.5312 16.4998 24.5312C25.3561 24.5312 32.5359 20.7119 32.5359 16.0005C32.5359 11.2892 25.3561 7.46973 16.4998 7.46973C7.64357 7.46973 0.463867 11.2892 0.463867 16.0005Z" fill="white"></path>
    </mask>
    <g mask="url(#mask0_4212_24086)">
      <path d="M0.463867 16.0005C0.463867 20.7119 7.64357 24.5312 16.4998 24.5312C25.3561 24.5312 32.5359 20.7119 32.5359 16.0005C32.5359 11.2892 25.3561 7.46973 16.4998 7.46973C7.64357 7.46973 0.463867 11.2892 0.463867 16.0005Z" fill="url(#paint0_radial_4212_24086)"></path>
    </g>
    <mask id="mask1_4212_24086" style="mask-type:luminance" maskUnits="userSpaceOnUse" x="-1" y="6" width="35" height="20">
      <path d="M-0.204102 6.49766H33.2042V25.502H-0.204102V6.49766Z" fill="white"></path>
    </mask>
    <g mask="url(#mask1_4212_24086)">
      <path d="M16.4999 23.8965C25.0102 23.8965 31.9095 20.3607 31.9095 15.9991C31.9095 11.6375 25.0102 8.10169 16.4999 8.10169C7.98954 8.10169 1.09033 11.6375 1.09033 15.9991C1.09033 20.3607 7.98954 23.8965 16.4999 23.8965Z" fill="#777BB3"></path>
    </g>
    <mask id="mask2_4212_24086" style="mask-type:luminance" maskUnits="userSpaceOnUse" x="-1" y="6" width="35" height="20">
      <path d="M-0.204102 6.49766H33.2042V25.502H-0.204102V6.49766Z" fill="white"></path>
    </mask>
    <g mask="url(#mask2_4212_24086)">
      <path d="M9.17636 16.9792C9.87614 16.9792 10.3985 16.8487 10.7291 16.5915C11.0561 16.3368 11.282 15.8957 11.4003 15.2803C11.5107 14.7052 11.4687 14.3036 11.2754 14.0868C11.0778 13.8655 10.6506 13.7532 10.0056 13.7532H8.88729L8.26732 16.9792H9.17636ZM5.51868 20.9531C5.46677 20.9531 5.41747 20.9297 5.38447 20.8891C5.35141 20.8485 5.33801 20.7952 5.34793 20.7436L6.99096 12.1945C7.00686 12.1119 7.07849 12.0522 7.16178 12.0522H10.7029C11.8158 12.0522 12.6442 12.3578 13.1649 12.9606C13.6883 13.5666 13.85 14.4136 13.6453 15.4781C13.562 15.9118 13.4187 16.3146 13.2195 16.6752C13.0201 17.0362 12.7564 17.3703 12.4359 17.6683C12.0521 18.0314 11.6178 18.2948 11.1462 18.4498C10.682 18.6027 10.0859 18.6802 9.37438 18.6802H7.94049L7.53101 20.8107C7.51511 20.8934 7.44354 20.9531 7.36025 20.9531H5.51868Z" fill="black"></path>
      <path d="M9.03091 13.929H10.0058C10.7842 13.929 11.0546 14.1017 11.1465 14.2047C11.2989 14.3756 11.3277 14.736 11.2297 15.2468C11.1196 15.8187 10.9156 16.2242 10.6231 16.4519C10.3237 16.685 9.837 16.8031 9.17655 16.8031H8.47857L9.03091 13.929ZM10.7031 11.876H7.1619C6.99532 11.876 6.85212 11.9955 6.82034 12.1608L5.1773 20.7099C5.15746 20.813 5.18426 20.9197 5.25032 21.0009C5.31644 21.082 5.41493 21.1289 5.51886 21.1289H7.36038C7.52701 21.1289 7.67022 21.0095 7.702 20.8441L8.08411 18.856H9.37456C10.1043 18.856 10.7187 18.7755 11.2004 18.6169C11.6957 18.4541 12.1515 18.1781 12.5549 17.7966C12.8885 17.4862 13.1633 17.1378 13.3715 16.761C13.5798 16.384 13.7295 15.9636 13.8163 15.5115C14.0318 14.3909 13.8567 13.4936 13.2961 12.8447C12.7409 12.2019 11.8685 11.876 10.7031 11.876ZM8.05638 17.155H9.17655C9.91901 17.155 10.472 17.0136 10.8354 16.7307C11.1988 16.4478 11.444 15.9755 11.5713 15.3138C11.6932 14.6784 11.6377 14.2301 11.4048 13.9689C11.1716 13.7077 10.7054 13.577 10.0058 13.577H8.74404L8.05638 17.155ZM10.7031 12.228C11.7684 12.228 12.5456 12.5107 13.034 13.0762C13.5225 13.6417 13.6696 14.431 13.4747 15.4444C13.3945 15.8618 13.2588 16.2435 13.0678 16.5893C12.8766 16.9353 12.6269 17.2517 12.3183 17.5386C11.9506 17.8866 11.5421 18.1346 11.0926 18.2823C10.6431 18.4304 10.0706 18.5041 9.37456 18.5041H7.79718L7.36038 20.777H5.51886L7.1619 12.228H10.7031Z" fill="white"></path>
      <path d="M17.8676 18.6797C17.8157 18.6797 17.7664 18.6562 17.7334 18.6156C17.7003 18.5751 17.6869 18.5218 17.6968 18.4702L18.4236 14.6876C18.4928 14.3278 18.4757 14.0696 18.3757 13.9605C18.3144 13.8938 18.1304 13.782 17.5864 13.782H16.2697L15.3559 18.5373C15.34 18.62 15.2684 18.6797 15.1851 18.6797H13.3581C13.3061 18.6797 13.2569 18.6562 13.2238 18.6156C13.1908 18.5751 13.1774 18.5217 13.1873 18.4702L14.8303 9.92111C14.8462 9.83847 14.9178 9.77876 15.0011 9.77876H16.8281C16.8801 9.77876 16.9294 9.80222 16.9624 9.84275C16.9955 9.88334 17.0089 9.93666 16.999 9.98827L16.6025 12.0516H18.019C19.0981 12.0516 19.8298 12.244 20.256 12.6398C20.6904 13.0436 20.8259 13.6892 20.6589 14.559L19.8945 18.5373C19.8786 18.62 19.807 18.6797 19.7236 18.6797H17.8676Z" fill="black"></path>
      <path d="M16.8283 9.60261H15.0013C14.8347 9.60261 14.6915 9.72203 14.6597 9.88738L13.0167 18.4364C12.9968 18.5396 13.0236 18.6463 13.0897 18.7274C13.1559 18.8085 13.2543 18.8555 13.3583 18.8555H15.1853C15.3519 18.8555 15.4951 18.736 15.5269 18.5707L16.4133 13.9578H17.5866C18.1297 13.9578 18.2437 14.0751 18.2482 14.0801C18.2812 14.116 18.3245 14.2819 18.253 14.6538L17.5262 18.4364C17.5064 18.5396 17.5332 18.6463 17.5993 18.7274C17.6654 18.8085 17.7639 18.8555 17.8678 18.8555H19.7238C19.8904 18.8555 20.0337 18.736 20.0654 18.5707L20.8298 14.5924C21.0092 13.6586 20.8558 12.958 20.3739 12.5101C19.9141 12.0831 19.1438 11.8755 18.0191 11.8755H16.8137L17.17 10.0217C17.1897 9.91852 17.163 9.81177 17.0969 9.73071C17.0307 9.64959 16.9323 9.60261 16.8283 9.60261ZM16.8283 9.95454L16.3915 12.2274H18.0191C19.0432 12.2274 19.7496 12.4082 20.1384 12.7693C20.5272 13.1306 20.6437 13.716 20.4883 14.5253L19.7238 18.5035H17.8678L18.5946 14.721C18.6773 14.2907 18.6469 13.9972 18.5033 13.8407C18.3597 13.6842 18.0541 13.6058 17.5866 13.6058H16.1264L15.1853 18.5035H13.3583L15.0013 9.95454H16.8283Z" fill="white"></path>
      <path d="M23.5499 16.9792C24.2497 16.9792 24.7721 16.8487 25.1026 16.5915C25.4296 16.3369 25.6555 15.8958 25.7739 15.2803C25.8843 14.7052 25.8422 14.3036 25.6489 14.0868C25.4513 13.8655 25.0241 13.7532 24.3791 13.7532H23.2608L22.6409 16.9792H23.5499ZM19.8923 20.9531C19.8404 20.9531 19.7911 20.9297 19.7581 20.8891C19.725 20.8485 19.7115 20.7952 19.7215 20.7436L21.3645 12.1945C21.3804 12.1119 21.452 12.0522 21.5354 12.0522H25.0765C26.1894 12.0522 27.0177 12.3578 27.5385 12.9606C28.0619 13.5665 28.2235 14.4135 28.0189 15.4781C27.9355 15.9118 27.7923 16.3146 27.593 16.6752C27.3936 17.0362 27.13 17.3703 26.8094 17.6683C26.4257 18.0314 25.9914 18.2948 25.5197 18.4498C25.0555 18.6027 24.4594 18.6802 23.7479 18.6802H22.314L21.9047 20.8107C21.8887 20.8934 21.8171 20.9531 21.7338 20.9531H19.8923Z" fill="black"></path>
      <path d="M23.4044 13.929H24.3793C25.1577 13.929 25.4281 14.1017 25.52 14.2047C25.6724 14.3756 25.7012 14.736 25.6032 15.2467C25.4931 15.8187 25.289 16.2242 24.9966 16.4519C24.6972 16.685 24.2105 16.8031 23.55 16.8031H22.8521L23.4044 13.929ZM25.0766 11.876H21.5354C21.3689 11.876 21.2257 11.9955 21.1939 12.1608L19.5508 20.7099C19.531 20.813 19.5578 20.9197 19.6239 21.0009C19.69 21.082 19.7885 21.1289 19.8924 21.1289H21.7339C21.9005 21.1289 22.0438 21.0095 22.0755 20.8441L22.4576 18.856H23.748C24.4778 18.856 25.0921 18.7755 25.5738 18.6169C26.0692 18.4541 26.5251 18.1781 26.9285 17.7965C27.2621 17.4862 27.5368 17.1378 27.745 16.761C27.9533 16.384 28.1029 15.9636 28.1898 15.5115C28.4052 14.3909 28.2302 13.4936 27.6696 12.8446C27.1144 12.2019 26.242 11.876 25.0766 11.876ZM22.4299 17.155H23.55C24.2925 17.155 24.8455 17.0136 25.2089 16.7307C25.5724 16.4478 25.8174 15.9755 25.9448 15.3138C26.0667 14.6784 26.0112 14.2301 25.7783 13.9689C25.5451 13.7077 25.0789 13.577 24.3793 13.577H23.1175L22.4299 17.155ZM25.0766 12.228C26.1419 12.228 26.919 12.5107 27.4075 13.0762C27.896 13.6417 28.043 14.431 27.8481 15.4444C27.7679 15.8618 27.6323 16.2435 27.4413 16.5893C27.25 16.9353 27.0004 17.2517 26.6918 17.5386C26.3241 17.8866 25.9156 18.1346 25.4661 18.2823C25.0166 18.4304 24.444 18.5041 23.748 18.5041H22.1707L21.7339 20.777H19.8924L21.5354 12.228H25.0766Z" fill="white"></path>
    </g>
  </g>
  <defs>
    <radialGradient id="paint0_radial_4212_24086" cx="0" cy="0" r="1" gradientUnits="userSpaceOnUse" gradientTransform="translate(10.0919 10.4689) scale(21.0575 21.2952)">
      <stop stop-color="#AEB2D5"></stop>
      <stop offset="0.3" stop-color="#AEB2D5"></stop>
      <stop offset="0.75" stop-color="#484C89"></stop>
      <stop offset="1" stop-color="#484C89"></stop>
    </radialGradient>
    <clipPath id="clip0_4212_24086">
      <rect width="33" height="18" fill="white" transform="translate(0 7)"></rect>
    </clipPath>
  </defs>
</svg>
