<?xml version="1.0" encoding="UTF-8"?>
<svg xmlns="http://www.w3.org/2000/svg" width="33" height="32" viewBox="0 0 33 32" fill="none">
  <g clip-path="url(#clip0_4212_24137)">
    <path d="M30.9495 9.3836C30.9493 8.84693 30.8282 8.37271 30.5834 7.96571C30.3429 7.56549 29.9828 7.23004 29.4998 6.96482C25.5125 4.78493 21.5213 2.61171 17.5353 0.429597C16.4607 -0.158625 15.4188 -0.13718 14.3521 0.459486C12.765 1.34693 4.81914 5.66326 2.45137 6.9636C1.47625 7.49882 1.00176 8.31793 1.00152 9.3826C1 13.7665 1.00152 18.1503 1 22.5343C1 23.0592 1.11613 23.5242 1.35016 23.925C1.59074 24.3374 1.9559 24.682 2.45008 24.9533C4.81797 26.2536 12.7649 30.5696 14.3516 31.4573C15.4187 32.0543 16.4607 32.0756 17.5356 31.4872C21.5218 29.3049 25.5132 27.1318 29.5011 24.9519C29.9952 24.6808 30.3604 24.3359 30.601 23.9239C30.8346 23.523 30.951 23.058 30.951 22.533C30.951 22.533 30.951 13.7676 30.9495 9.3836Z" fill="#A179DC"></path>
    <path d="M16.0213 15.916L1.3501 23.9253C1.59068 24.3377 1.95584 24.6823 2.45002 24.9536C4.81791 26.2539 12.7649 30.5699 14.3516 31.4576C15.4187 32.0546 16.4606 32.0759 17.5356 31.4875C21.5217 29.3052 25.5131 27.1321 29.501 24.9522C29.9952 24.6811 30.3603 24.3362 30.6009 23.9242L16.0213 15.916Z" fill="#280068"></path>
    <path d="M30.9496 9.38273C30.9494 8.84607 30.8284 8.37184 30.5836 7.96484L16.0215 15.9148L30.6011 23.9231C30.8348 23.5222 30.9509 23.0572 30.9512 22.5322C30.9512 22.5322 30.9512 13.7667 30.9496 9.38273Z" fill="#390091"></path>
    <path d="M24.6594 12.9219V14.419H26.2384V12.9219H27.0279V14.419H28.6068V15.1675H27.0279V16.6646H28.6068V17.4131H27.0279V18.9102H26.2384V17.4131H24.6594V18.9102H23.87V17.4131H22.291V16.6646H23.87V15.1675H22.291V14.419H23.87V12.9219H24.6594ZM26.2384 15.1675H24.6594V16.6646H26.2384V15.1675Z" fill="white"></path>
    <path d="M16.0533 5.40234C20.1717 5.40234 23.7674 7.52304 25.6933 10.6752L25.6746 10.6449L20.829 13.2903C19.8743 11.7576 18.1242 10.7234 16.1165 10.7021L16.0533 10.7017C12.9917 10.7017 10.5096 13.055 10.5096 15.9578C10.5096 16.9071 10.7765 17.797 11.2407 18.5656C12.1963 20.1473 13.9926 21.2141 16.0533 21.2141C18.1267 21.2141 19.9332 20.1337 20.8839 18.5351L20.8608 18.5735L25.6991 21.231C23.7943 24.3565 20.2478 26.4707 16.1773 26.5128L16.0533 26.5135C11.9219 26.5135 8.31595 24.3797 6.39487 21.2108C5.45702 19.6638 4.92041 17.8703 4.92041 15.9578C4.92041 10.1283 9.90466 5.40234 16.0533 5.40234Z" fill="white"></path>
  </g>
  <defs>
    <clipPath id="clip0_4212_24137">
      <rect width="30" height="32" fill="white" transform="translate(1)"></rect>
    </clipPath>
  </defs>
</svg>
