<?xml version="1.0" encoding="UTF-8"?>
<svg xmlns="http://www.w3.org/2000/svg" width="20" height="20" viewBox="0 0 20 20" fill="none">
  <path d="M10 12.5C10.663 12.5 11.2989 12.2366 11.7678 11.7678C12.2366 11.2989 12.5 10.663 12.5 10C12.5 9.33696 12.2366 8.70107 11.7678 8.23223C11.2989 7.76339 10.663 7.5 10 7.5C9.33696 7.5 8.70107 7.76339 8.23223 8.23223C7.76339 8.70107 7.5 9.33696 7.5 10C7.5 10.663 7.76339 11.2989 8.23223 11.7678C8.70107 12.2366 9.33696 12.5 10 12.5Z" stroke="#684BFE" stroke-width="1.5" stroke-linecap="round" stroke-linejoin="round"></path>
  <path d="M7.74196 16.1417L8.22862 17.2376C8.37356 17.5634 8.60987 17.8403 8.90894 18.0346C9.208 18.2288 9.55699 18.3323 9.91362 18.3323C10.2703 18.3323 10.6192 18.2288 10.9183 18.0346C11.2174 17.8403 11.4537 17.5634 11.5986 17.2376L12.0861 16.1417C12.2602 15.7522 12.553 15.4276 12.9228 15.2146C13.2925 15.0016 13.7201 14.9111 14.1445 14.9559L15.3361 15.0826C15.6909 15.1203 16.049 15.0543 16.367 14.8926C16.6849 14.7308 16.9492 14.4803 17.1275 14.1713C17.3059 13.8623 17.3908 13.5082 17.3719 13.152C17.3531 12.7957 17.2312 12.4526 17.0211 12.1642L16.3153 11.1942C16.0641 10.8466 15.9298 10.4281 15.932 9.99924C15.932 9.57174 16.0678 9.15424 16.3195 8.80841L17.0253 7.83924C17.2354 7.55082 17.3573 7.20761 17.3762 6.85126C17.3951 6.49491 17.3101 6.14074 17.1316 5.83174C16.9531 5.52274 16.6887 5.2722 16.3706 5.11052C16.0525 4.94884 15.6943 4.88297 15.3395 4.92091L14.1478 5.04757C13.7222 5.09234 13.2935 5.00133 12.9228 4.78757C12.5537 4.5731 12.2619 4.24725 12.0895 3.85674L11.5995 2.7609C11.4549 2.43452 11.2187 2.15713 10.9195 1.96242C10.6203 1.76771 10.271 1.66406 9.91404 1.66406C9.55707 1.66406 9.20778 1.76771 8.90859 1.96242C8.6094 2.15713 8.37318 2.43452 8.22862 2.7609L7.74196 3.85757C7.56946 4.24757 7.27696 4.57424 6.90862 4.78841C6.53779 5.00174 6.10862 5.09257 5.68362 5.04841L4.48779 4.92174C4.13303 4.88398 3.77494 4.94999 3.45695 5.11174C3.13897 5.2735 2.87476 5.52405 2.69637 5.83301C2.51798 6.14197 2.43308 6.49606 2.45197 6.85232C2.47086 7.20858 2.59273 7.55171 2.80279 7.84007L3.50862 8.80924C3.76024 9.15531 3.89578 9.57219 3.89578 10.0001C3.89578 10.428 3.76024 10.8448 3.50862 11.1909L2.80279 12.1601C2.64562 12.3756 2.53716 12.6227 2.4849 12.8843C2.43264 13.1459 2.43784 13.4158 2.50013 13.6752C2.56242 13.9345 2.68032 14.1773 2.84567 14.3866C3.01102 14.596 3.21988 14.7669 3.45779 14.8876C3.77529 15.0501 4.13279 15.1159 4.48779 15.0792L5.67946 14.9517C6.10499 14.9075 6.53362 14.9989 6.90406 15.2129C7.2745 15.427 7.56778 15.7526 7.74196 16.1434V16.1417Z" stroke="#684BFE" stroke-width="1.5" stroke-linecap="round" stroke-linejoin="round"></path>
</svg>
