<svg width="23" height="20" viewBox="0 0 23 20" fill="none" xmlns="http://www.w3.org/2000/svg">
<g id="Group">
<path id="Vector" d="M22.7946 2.89961C21.9474 3.29961 21.1002 3.59961 20.1589 3.69961C21.1002 3.09961 21.8533 2.09961 22.2298 0.999609C21.2885 1.59961 20.3472 1.99961 19.3117 2.19961C18.4646 1.19961 17.2409 0.599609 15.923 0.599609C13.3815 0.599609 11.3106 2.79961 11.3106 5.49961C11.3106 5.89961 11.3106 6.29961 11.4047 6.59961C7.45122 6.39961 4.0625 4.39961 1.80335 1.39961C1.3327 2.19961 1.14444 2.99961 1.14444 3.89961C1.14444 5.59961 1.99162 7.09961 3.21532 7.99961C2.46227 7.99961 1.70922 7.79961 1.14444 7.39961C1.14444 7.39961 1.14444 7.39961 1.14444 7.49961C1.14444 9.89961 2.74466 11.8996 4.81555 12.2996C4.43902 12.3996 4.0625 12.4996 3.59184 12.4996C3.30945 12.4996 3.02706 12.4996 2.74466 12.3996C3.30945 14.3996 5.00381 15.7996 7.0747 15.7996C5.47447 17.0996 3.49771 17.8996 1.3327 17.8996C0.956174 17.8996 0.579649 17.8996 0.203125 17.7996C2.27401 19.1996 4.72142 19.9996 7.26296 19.9996C15.8289 19.9996 20.4413 12.4996 20.4413 5.99961C20.4413 5.79961 20.4413 5.59961 20.4413 5.39961C21.3826 4.69961 22.1357 3.79961 22.7946 2.89961Z" fill="#03A9F5"/>
</g>
</svg>
