<svg width="33" height="32" viewBox="0 0 33 32" fill="none" xmlns="http://www.w3.org/2000/svg">
<g opacity="0.6" clip-path="url(#clip0_3302_20947)">
<mask id="mask0_3302_20947" style="mask-type:luminance" maskUnits="userSpaceOnUse" x="0" y="0" width="33" height="32">
<path d="M32.8525 0H0.852539V32H32.8525V0Z" fill="white"/>
</mask>
<g mask="url(#mask0_3302_20947)">
<path d="M29.039 12.377L32.8524 20.8336L26.3257 32.0003L22.3057 22.2403L29.039 12.377Z" fill="url(#paint0_linear_3302_20947)"/>
<path d="M22.3058 22.2402L26.3258 32.0002L16.2124 28.5236L22.3058 22.2402Z" fill="#B74AF7"/>
<path d="M23.3959 9.03667L21.3225 0H9.82587L0.852539 13.7267L3.44921 20.0333L0.852539 25.79L19.4359 9.98L23.3959 9.03667Z" fill="url(#paint1_linear_3302_20947)"/>
<path d="M32.8525 6.79297L19.4359 9.97963L0.852539 25.7896L12.8392 31.9996L22.3059 22.2396L32.8525 6.79297Z" fill="url(#paint2_linear_3302_20947)"/>
<path d="M6.85254 6H26.8525V26H6.85254V6Z" fill="black"/>
<path d="M8.72942 22.2504H16.2294V23.5004H8.72942V22.2504ZM8.16604 12.7704V12.7471C8.16223 11.6063 8.61899 10.5122 9.43287 9.71274C10.2467 8.91329 11.3488 8.47618 12.4894 8.50044C13.6767 8.43786 14.8413 8.84359 15.7327 9.63044L14.5894 11.0104C14.0097 10.4561 13.2346 10.153 12.4327 10.1671C11.126 10.1671 10.1043 11.2876 10.0639 12.6501L10.0627 12.7571C10.0627 14.2381 11.0599 15.3311 12.4788 15.3725L12.5627 15.3738C13.1696 15.3916 13.7668 15.2178 14.2694 14.8771V13.6904H12.4427V12.1238H16.0194V15.7038C15.0417 16.5517 13.7902 17.017 12.496 17.0138C9.93275 17.0138 8.16604 15.2104 8.16604 12.7704ZM16.786 12.7704V12.7471C16.79 11.5958 17.2594 10.495 18.0875 9.6952C18.9156 8.89535 20.032 8.46443 21.1827 8.50044C23.6892 8.50044 25.4996 10.3425 25.5516 12.6388L25.5527 12.7638C25.5541 13.9179 25.0876 15.0234 24.2596 15.8275C23.4612 16.6029 22.3925 17.0342 21.2828 17.0324L21.1594 17.0304C18.6127 17.0138 16.786 15.1171 16.786 12.7704ZM23.656 12.7704V12.7471C23.6768 12.0712 23.4231 11.4156 22.9528 10.9296C22.4825 10.4436 21.8356 10.1686 21.1594 10.1671C20.4881 10.1648 19.8449 10.4362 19.3782 10.9187C18.9348 11.377 18.6871 11.9882 18.6844 12.6233L18.686 12.7471C18.6626 13.4256 18.9153 14.0847 19.3866 14.5735C19.8578 15.0623 20.5071 15.339 21.186 15.3404C21.8591 15.3419 22.5036 15.0683 22.97 14.583C23.4364 14.0977 23.6842 13.4429 23.656 12.7704Z" fill="white"/>
</g>
</g>
<defs>
<linearGradient id="paint0_linear_3302_20947" x1="687.81" y1="597.377" x2="-44.0703" y2="1216.81" gradientUnits="userSpaceOnUse">
<stop stop-color="#087CFA"/>
<stop offset="0.02" stop-color="#0D7BFA"/>
<stop offset="0.37" stop-color="#5566F9"/>
<stop offset="0.66" stop-color="#8A57F8"/>
<stop offset="0.88" stop-color="#AB4EF7"/>
<stop offset="1" stop-color="#B74AF7"/>
</linearGradient>
<linearGradient id="paint1_linear_3302_20947" x1="1108.28" y1="992" x2="1789.84" y2="216.539" gradientUnits="userSpaceOnUse">
<stop stop-color="#087CFA"/>
<stop offset="0.02" stop-color="#0D7BFA"/>
<stop offset="0.37" stop-color="#5566F9"/>
<stop offset="0.66" stop-color="#8A57F8"/>
<stop offset="0.88" stop-color="#AB4EF7"/>
<stop offset="1" stop-color="#B74AF7"/>
</linearGradient>
<linearGradient id="paint2_linear_3302_20947" x1="445.519" y1="1798.05" x2="2497.83" y2="479.244" gradientUnits="userSpaceOnUse">
<stop stop-color="#087CFA"/>
<stop offset="0.1" stop-color="#1598D3"/>
<stop offset="0.22" stop-color="#23B6AA"/>
<stop offset="0.35" stop-color="#2DCC8B"/>
<stop offset="0.46" stop-color="#35DD74"/>
<stop offset="0.57" stop-color="#39E767"/>
<stop offset="0.67" stop-color="#3BEA62"/>
</linearGradient>
<clipPath id="clip0_3302_20947">
<rect width="33" height="32" fill="white"/>
</clipPath>
</defs>
</svg>
