<svg width="87" height="32" viewBox="0 0 87 32" fill="none" xmlns="http://www.w3.org/2000/svg">
<g clip-path="url(#clip0_4244_24425)">
<mask id="mask0_4244_24425" style="mask-type:luminance" maskUnits="userSpaceOnUse" x="0" y="0" width="87" height="32">
<path d="M86.3981 0H0.703125V32H86.3981V0Z" fill="white"/>
</mask>
<g mask="url(#mask0_4244_24425)">
<path d="M7.1747 9.68431C7.00781 9.68431 6.96609 9.60086 7.04953 9.4757L7.92567 8.34923C8.00911 8.22408 8.21772 8.14062 8.38461 8.14062H23.279C23.4459 8.14062 23.4876 8.26579 23.4041 8.39096L22.6949 9.4757C22.6115 9.60086 22.4029 9.72603 22.2777 9.72603L7.1747 9.68431Z" fill="#00ACD7"/>
<path d="M0.870009 13.5241C0.703125 13.5241 0.661404 13.4407 0.744845 13.3156L1.62099 12.189C1.70443 12.0639 1.91304 11.9805 2.07992 11.9805H21.1047C21.2716 11.9805 21.355 12.1056 21.3133 12.2308L20.9795 13.232C20.9378 13.399 20.7709 13.4824 20.6041 13.4824L0.870009 13.5241Z" fill="#00ACD7"/>
<path d="M10.9716 17.3563C10.8047 17.3563 10.763 17.231 10.8464 17.1059L11.4305 16.0629C11.5139 15.9378 11.6808 15.8125 11.8477 15.8125H20.1919C20.3588 15.8125 20.4423 15.9378 20.4423 16.1046L20.3588 17.1059C20.3588 17.2727 20.1919 17.398 20.0667 17.398L10.9716 17.3563Z" fill="#00ACD7"/>
<path d="M54.2787 8.9309C51.6504 9.59843 49.8563 10.0991 47.2696 10.7666C46.6438 10.9335 46.602 10.9752 46.0597 10.3494C45.4339 9.64015 44.9749 9.18122 44.0988 8.76402C41.4704 7.47066 38.9254 7.84615 36.5473 9.38982C33.7102 11.2255 32.25 13.9374 32.2917 17.3168C32.3334 20.6545 34.6282 23.4081 37.9241 23.867C40.7611 24.2425 43.1393 23.2412 45.0166 21.1134C45.3922 20.6545 45.7259 20.1538 46.1432 19.5698C44.6412 19.5698 42.7637 19.5698 38.0909 19.5698C37.2148 19.5698 37.0062 19.0274 37.2982 18.3181C37.8406 17.0248 38.842 14.8553 39.426 13.7705C39.5513 13.5202 39.8433 13.103 40.4691 13.103C42.5969 13.103 50.4404 13.103 55.6555 13.103C55.5721 14.2294 55.5721 15.356 55.4052 16.4824C54.9462 19.4864 53.8198 22.2398 51.9841 24.6597C48.9802 28.6232 45.0584 31.0848 40.0936 31.7523C36.005 32.2947 32.2083 31.5019 28.8707 28.9987C25.7833 26.6624 24.031 23.5749 23.5721 19.7366C23.0297 15.189 24.3648 11.1004 27.1184 7.51238C30.0805 3.63233 34.0024 1.17079 38.8003 0.29465C42.722 -0.414607 46.4769 0.0443232 49.8563 2.33898C52.0675 3.79922 53.6529 5.80182 54.696 8.22164C54.9462 8.59713 54.7794 8.80573 54.2787 8.9309Z" fill="#00ACD7"/>
<path d="M68.0912 32.003C64.2947 31.9195 60.8318 30.8349 57.9114 28.3315C55.4498 26.2038 53.9061 23.4919 53.4054 20.2794C52.6545 15.5649 53.9478 11.3928 56.7848 7.67966C59.8304 3.67443 63.5019 1.58839 68.4667 0.712249C72.7222 -0.0387293 76.7275 0.378481 80.3572 2.84002C83.6532 5.09295 85.6975 8.13858 86.2398 12.1438C86.9491 17.7761 85.322 22.3655 81.442 26.2872C78.6884 29.0825 75.309 30.8349 71.429 31.6275C70.3024 31.8361 69.1759 31.8778 68.0912 32.003ZM78.0209 15.1477C77.9791 14.6054 77.9791 14.1881 77.8957 13.771C77.1447 9.64054 73.348 7.30416 69.3846 8.22202C65.5045 9.09817 63.0013 11.5597 62.0834 15.4815C61.3324 18.7357 62.9179 22.0317 65.9218 23.3667C68.2164 24.368 70.511 24.2429 72.7222 23.1165C76.0182 21.4058 77.8123 18.7357 78.0209 15.1477Z" fill="#00ACD7"/>
</g>
</g>
<defs>
<clipPath id="clip0_4244_24425">
<rect width="86.8571" height="32" fill="white"/>
</clipPath>
</defs>
</svg>
