<?xml version="1.0" encoding="UTF-8"?>
<svg xmlns="http://www.w3.org/2000/svg" width="25" height="32" viewBox="0 0 25 32" fill="none">
  <g clip-path="url(#clip0_4212_24153)">
    <mask id="mask0_4212_24153" style="mask-type:luminance" maskUnits="userSpaceOnUse" x="0" y="0" width="25" height="32">
      <path d="M24.8526 0H0.319336V32H24.8526V0Z" fill="white"></path>
    </mask>
    <g mask="url(#mask0_4212_24153)">
      <path d="M8.23121 24.7383C8.23121 24.7383 6.96636 25.4481 9.13136 25.6883C11.7542 25.9771 13.0947 25.9357 15.9851 25.4078C15.9851 25.4078 16.745 25.8676 17.8062 26.2659C11.3268 28.9459 3.14193 26.1106 8.23121 24.7383Z" fill="#5382A1"></path>
      <path d="M7.43962 21.2402C7.43962 21.2402 6.02097 22.2537 8.18757 22.4699C10.9893 22.7489 13.202 22.7717 17.0307 22.0602C17.0307 22.0602 17.5603 22.5783 18.393 22.8617C10.5589 25.0724 1.83317 23.036 7.43962 21.2402Z" fill="#5382A1"></path>
      <path d="M14.1138 15.3078C15.7104 17.0817 13.6944 18.678 13.6944 18.678C13.6944 18.678 17.7483 16.6584 15.8865 14.1293C14.1476 11.7708 12.8142 10.599 20.033 6.55859C20.033 6.55859 8.70183 9.28972 14.1138 15.3078Z" fill="#E76F00"></path>
      <path d="M22.6837 27.3249C22.6837 27.3249 23.6197 28.0691 21.6528 28.645C17.9128 29.7384 6.08637 30.0686 2.80104 28.6885C1.62005 28.1927 3.83474 27.5046 4.5314 27.3602C5.25794 27.2082 5.67314 27.2365 5.67314 27.2365C4.35976 26.3436 -2.81602 28.9898 2.0282 29.7476C15.2391 31.8152 26.1104 28.8165 22.6837 27.3249Z" fill="#5382A1"></path>
      <path d="M8.83936 17.6165C8.83936 17.6165 2.82369 18.9954 6.70906 19.4962C8.34958 19.7081 11.6199 19.6602 14.6661 19.4139C17.1557 19.2112 19.6555 18.7803 19.6555 18.7803C19.6555 18.7803 18.7776 19.1431 18.1425 19.5616C12.0337 21.1121 0.232704 20.3908 3.63008 18.8048C6.50325 17.4645 8.83936 17.6165 8.83936 17.6165Z" fill="#5382A1"></path>
      <path d="M19.6302 23.4385C25.8401 20.3243 22.9689 17.3316 20.9648 17.7348C20.4736 17.8335 20.2546 17.919 20.2546 17.919C20.2546 17.919 20.437 17.6433 20.7853 17.524C24.7499 16.1788 27.799 21.4913 19.5054 23.5954C19.5054 23.5954 19.6015 23.5126 19.6302 23.4385Z" fill="#5382A1"></path>
      <path d="M15.8864 0.0351562C15.8864 0.0351562 19.3255 3.35526 12.6246 8.46065C7.25109 12.556 11.3992 14.8911 12.6223 17.5591C9.48576 14.8279 7.18391 12.4237 8.72817 10.1861C10.9947 6.90146 17.274 5.30894 15.8864 0.0351562Z" fill="#E76F00"></path>
      <path d="M9.44995 31.8774C15.4106 32.2456 24.564 31.6731 24.7808 28.9512C24.7808 28.9512 24.364 29.983 19.8545 30.8025C14.767 31.7265 8.49217 31.6186 4.77051 31.0264C4.77051 31.0264 5.53238 31.6349 9.44995 31.8774Z" fill="#5382A1"></path>
    </g>
  </g>
  <defs>
    <clipPath id="clip0_4212_24153">
      <rect width="25" height="32" fill="white"></rect>
    </clipPath>
  </defs>
</svg>
