<svg width="50" height="47" viewBox="0 0 50 47" fill="none" xmlns="http://www.w3.org/2000/svg">
<path d="M48.4135 18.7848L48.3454 18.6107L41.7504 1.39904C41.6162 1.0617 41.3786 0.775537 41.0717 0.581603C40.7646 0.390964 40.4064 0.299146 40.0455 0.318546C39.6845 0.337947 39.3382 0.467632 39.0533 0.690091C38.7716 0.918936 38.5672 1.22903 38.468 1.57817L34.015 15.2022H15.9833L11.5303 1.57817C11.4337 1.22713 11.2289 0.91548 10.945 0.687567C10.6601 0.465108 10.3138 0.335423 9.95284 0.316023C9.5919 0.296622 9.2337 0.38844 8.9266 0.579079C8.62038 0.773796 8.383 1.05971 8.24792 1.39652L1.64028 18.6006L1.57468 18.7747C0.625295 21.2553 0.508109 23.9773 1.24079 26.5303C1.97347 29.0833 3.5163 31.3289 5.63665 32.9285L5.65936 32.9462L5.71991 32.9891L15.7664 40.5126L20.7366 44.2743L23.7642 46.5601C24.1183 46.829 24.5507 46.9746 24.9954 46.9746C25.44 46.9746 25.8724 46.829 26.2266 46.5601L29.2541 44.2743L34.2244 40.5126L44.3314 32.9437L44.3566 32.9235C46.4722 31.3236 48.0114 29.0803 48.743 26.5307C49.4746 23.9812 49.3589 21.263 48.4135 18.7848Z" fill="#E24329"/>
<path d="M48.4363 18.7669L48.3682 18.5928C45.1547 19.2524 42.1265 20.6136 39.5 22.5791L25.0156 33.5312C29.948 37.2627 34.2421 40.5047 34.2421 40.5047L44.3491 32.9358L44.3743 32.9156C46.493 31.3158 48.0346 29.0711 48.7672 26.5193C49.4998 23.9676 49.3836 21.2469 48.4363 18.7669Z" fill="#FC6D26"/>
<path d="M15.7578 40.5189L20.7281 44.2806L23.7556 46.5664C24.1098 46.8353 24.5422 46.9809 24.9868 46.9809C25.4315 46.9809 25.8639 46.8353 26.218 46.5664L29.2456 44.2806L34.2158 40.5189C34.2158 40.5189 29.9167 37.2668 24.9843 33.5454C20.0519 37.2668 15.7578 40.5189 15.7578 40.5189Z" fill="#FCA326"/>
<path d="M10.506 22.5891C7.88157 20.6196 4.85404 19.2549 1.64028 18.5928L1.57468 18.7669C0.625295 21.2475 0.508109 23.9695 1.24079 26.5225C1.97347 29.0755 3.5163 31.3211 5.63665 32.9207L5.65936 32.9384L5.71991 32.9812L15.7664 40.5047C15.7664 40.5047 20.0554 37.2627 24.9928 33.5312L10.506 22.5891Z" fill="#FC6D26"/>
</svg>
