<?xml version="1.0" encoding="UTF-8"?>
<svg xmlns="http://www.w3.org/2000/svg" width="64" height="64" viewBox="0 0 64 64" fill="none">
  <g filter="url(#filter0_b_5816_13243)">
    <rect width="64" height="64" rx="15.7599" fill="#F8F6FF"></rect>
  </g>
  <path fill-rule="evenodd" clip-rule="evenodd" d="M32.2846 16C23.2796 16 16 23.3333 16 32.4056C16 39.6576 20.6643 45.7962 27.135 47.9689C27.944 48.1322 28.2403 47.6159 28.2403 47.1815C28.2403 46.8012 28.2136 45.4975 28.2136 44.1392C23.6836 45.1172 22.7403 42.1836 22.7403 42.1836C22.0123 40.2822 20.9336 39.7936 20.9336 39.7936C19.451 38.7886 21.0416 38.7886 21.0416 38.7886C22.6863 38.8972 23.5493 40.4726 23.5493 40.4726C25.005 42.9712 27.3506 42.2652 28.2943 41.8306C28.4289 40.7712 28.8606 40.0379 29.3189 39.6306C25.706 39.2502 21.9046 37.8379 21.9046 31.5363C21.9046 29.7436 22.5513 28.2769 23.576 27.1363C23.4143 26.729 22.848 25.0446 23.738 22.7903C23.738 22.7903 25.113 22.3556 28.2133 24.4743C29.5406 24.1152 30.9095 23.9325 32.2846 23.931C33.6596 23.931 35.0613 24.1213 36.3556 24.4743C39.4562 22.3556 40.8312 22.7903 40.8312 22.7903C41.7212 25.0446 41.1546 26.729 40.9929 27.1363C42.0446 28.2769 42.6646 29.7436 42.6646 31.5363C42.6646 37.8379 38.8632 39.2229 35.2233 39.6306C35.8166 40.1466 36.3286 41.1242 36.3286 42.6726C36.3286 44.8725 36.3019 46.6382 36.3019 47.1812C36.3019 47.6159 36.5986 48.1322 37.4072 47.9692C43.8779 45.7959 48.5422 39.6576 48.5422 32.4056C48.5689 23.3333 41.2626 16 32.2846 16Z" fill="#24292F"></path>
  <defs>
    <filter id="filter0_b_5816_13243" x="-31.5198" y="-31.5198" width="127.04" height="127.04" color-interpolation-filters="sRGB">
      <feFlood flood-opacity="0" result="BackgroundImageFix"></feFlood>
      <feGaussianBlur in="BackgroundImageFix" stdDeviation="15.7599"></feGaussianBlur>
      <feComposite in2="SourceAlpha" operator="in" result="effect1_backgroundBlur_5816_13243"></feComposite>
      <feBlend mode="normal" in="SourceGraphic" in2="effect1_backgroundBlur_5816_13243" result="shape"></feBlend>
    </filter>
  </defs>
</svg>
