<?xml version="1.0" encoding="UTF-8"?>
<svg xmlns="http://www.w3.org/2000/svg" width="33" height="32" viewBox="0 0 33 32" fill="none">
  <g clip-path="url(#clip0_4212_24132)">
    <path d="M32.9977 8.86336C32.9958 8.54153 32.9921 8.21987 32.9829 7.89766C32.9636 7.19679 32.9209 6.48956 32.7924 5.79617C32.662 5.09201 32.4489 4.43726 32.1131 3.79759C31.7835 3.1694 31.3525 2.59455 30.8384 2.09605C30.3245 1.59755 29.7316 1.17971 29.0835 0.859875C28.4244 0.5346 27.7491 0.328023 27.0236 0.20162C26.3082 0.0766716 25.5788 0.0355071 24.8555 0.0165412C24.5234 0.00781264 24.1916 0.00414878 23.8596 0.00215521C23.4656 0 23.0712 0 22.6773 0H13.9417H10.3228C9.92843 0 9.53454 0 9.14059 0.00220909C8.80848 0.00420266 8.47632 0.00786652 8.14472 0.0165951C7.96391 0.0213366 7.78272 0.0274789 7.60141 0.0359381C7.05755 0.0613696 6.51285 0.107976 5.97655 0.201674C5.43241 0.296503 4.91644 0.436376 4.41448 0.637619C4.24717 0.704646 4.08137 0.77857 3.91657 0.859875C3.43049 1.09975 2.97542 1.39474 2.56153 1.73753C2.42356 1.85181 2.29015 1.97137 2.16169 2.096C1.6475 2.5945 1.21654 3.16935 0.886879 3.79754C0.55105 4.4372 0.33824 5.09196 0.207775 5.79612C0.0794222 6.4895 0.036749 7.19673 0.0173016 7.89761C0.0081891 8.21981 0.00435517 8.54148 0.00218818 8.86331C-0.000312208 9.24553 2.11761e-05 9.62781 2.11761e-05 10.0099V15.2266V21.9899C2.11761e-05 22.3724 -0.000367773 22.7543 0.00218818 23.1368C0.00435517 23.4586 0.0081891 23.7803 0.0173016 24.1019C0.036749 24.8032 0.0793667 25.5106 0.207775 26.2036C0.33824 26.9076 0.55105 27.5629 0.886879 28.2024C1.21654 28.8308 1.6475 29.4055 2.16169 29.9038C2.67549 30.4025 3.26847 30.8203 3.91662 31.1403C4.57578 31.4657 5.25105 31.672 5.97672 31.7984C6.69171 31.9232 7.4216 31.9646 8.14477 31.9834C8.47638 31.992 8.80854 31.9958 9.14065 31.9976C9.5346 32.0004 9.92849 32 10.3228 32H22.6773C23.0712 32 23.4656 32.0004 23.8596 31.9976C24.1916 31.9958 24.5233 31.992 24.8554 31.9834C25.5788 31.9646 26.3081 31.9231 27.0236 31.7984C27.7491 31.672 28.4244 31.4656 29.0835 31.1403C29.7316 30.8203 30.3244 30.4025 30.8384 29.9038C31.3524 29.4054 31.7835 28.8308 32.1131 28.2024C32.4489 27.5629 32.662 26.9076 32.7923 26.2036C32.9208 25.5106 32.9635 24.8032 32.9829 24.1019C32.992 23.7803 32.9956 23.4587 32.9976 23.1368C33.0002 22.7543 33 22.3724 33 21.9899V10.0099C33 9.62781 33.0002 9.24553 32.9977 8.86336Z" fill="#F05138"></path>
    <path d="M26.1483 19.7527C26.1476 19.7518 26.1469 19.7511 26.146 19.7501C26.1825 19.6297 26.2202 19.51 26.2521 19.3865C27.6218 14.0949 24.279 7.83889 18.6223 4.54492C21.1012 7.80355 22.1972 11.7505 21.2234 15.2022C21.1366 15.51 21.0322 15.8055 20.9168 16.0927C20.7915 16.0129 20.6337 15.9223 20.4218 15.809C20.4218 15.809 14.7949 12.4401 8.69623 6.48116C8.5362 6.32475 11.9483 11.2102 15.8206 15.1774C13.9962 14.1845 8.91187 10.5973 5.69315 7.74067C6.0886 8.38017 6.55895 8.99597 7.07598 9.58882C9.76389 12.8943 13.2693 16.9728 17.4689 20.1046C14.5182 21.8556 10.3488 21.9917 6.19757 20.1064C5.1708 19.6398 4.20554 19.0768 3.31201 18.4371C5.06923 21.1627 7.77559 23.5142 11.0695 24.887C14.9976 26.524 18.9038 26.413 21.8131 24.9139L21.8109 24.9171C21.8241 24.909 21.841 24.9001 21.8548 24.8918C21.9743 24.8295 22.0928 24.7661 22.2088 24.6992C23.6066 23.9956 26.3676 23.2818 27.8496 26.0778C28.2125 26.7621 28.9837 23.1358 26.1483 19.7527Z" fill="white"></path>
  </g>
  <defs>
    <clipPath id="clip0_4212_24132">
      <rect width="33" height="32" fill="white"></rect>
    </clipPath>
  </defs>
</svg>
