<?xml version="1.0" encoding="UTF-8"?>
<svg xmlns="http://www.w3.org/2000/svg" width="20" height="20" viewBox="0 0 20 20" fill="none">
  <g clip-path="url(#clip0_1044_5461)">
    <path d="M1.6665 18.3336L3.71984 16.2803" stroke="#684BFE" stroke-width="1.5" stroke-miterlimit="10" stroke-linecap="square"></path>
    <path d="M4.97006 9.13672L3.72006 10.3867C2.93856 11.1682 2.49951 12.2282 2.49951 13.3334C2.49951 14.4386 2.93856 15.4985 3.72006 16.2801C4.50157 17.0616 5.56151 17.5006 6.66673 17.5006C7.77194 17.5006 8.83189 17.0616 9.61339 16.2801L10.8634 15.0301L4.97006 9.13672Z" stroke="#684BFE" stroke-width="1.5" stroke-miterlimit="10" stroke-linecap="square"></path>
    <path d="M18.3331 1.66699L16.2798 3.72033" stroke="#684BFE" stroke-width="1.5" stroke-miterlimit="10" stroke-linecap="square"></path>
    <path d="M15.0301 10.8639L16.2801 9.61388C17.0616 8.83238 17.5006 7.77243 17.5006 6.66722C17.5006 5.562 17.0616 4.50205 16.2801 3.72055C15.4985 2.93904 14.4386 2.5 13.3334 2.5C12.2282 2.5 11.1682 2.93904 10.3867 3.72055L9.13672 4.97055L15.0301 10.8639Z" stroke="#684BFE" stroke-width="1.5" stroke-miterlimit="10" stroke-linecap="square"></path>
    <path d="M8.33317 9.16699L6.6665 10.8337" stroke="#684BFE" stroke-width="1.5" stroke-miterlimit="10" stroke-linecap="square"></path>
    <path d="M10.8332 11.667L9.1665 13.3337" stroke="#684BFE" stroke-width="1.5" stroke-miterlimit="10" stroke-linecap="square"></path>
  </g>
  <defs>
    <clipPath id="clip0_1044_5461">
      <rect width="20" height="20" fill="white"></rect>
    </clipPath>
  </defs>
</svg>
