<svg width="449" height="247" viewBox="0 0 449 247" fill="none" xmlns="http://www.w3.org/2000/svg">
<g filter="url(#filter0_b_7630_18216)">
<g clip-path="url(#clip0_7630_18216)">
<rect x="0.5" y="0.34375" width="448" height="246" rx="16" fill="#272471" fill-opacity="0.32"/>
<mask id="path-3-inside-1_7630_18216" fill="white">
<path d="M0.5 8.34375C0.5 3.92547 4.08172 0.34375 8.5 0.34375H440.5C444.918 0.34375 448.5 3.92547 448.5 8.34375V56.3438H0.5V8.34375Z"/>
</mask>
<path d="M0.5 8.34375C0.5 3.92547 4.08172 0.34375 8.5 0.34375H440.5C444.918 0.34375 448.5 3.92547 448.5 8.34375V56.3438H0.5V8.34375Z" fill="#333474"/>
<path d="M0.5 0.34375H448.5H0.5ZM448.5 57.3438H0.5V55.3438H448.5V57.3438ZM0.5 56.3438V0.34375V56.3438ZM448.5 0.34375V56.3438V0.34375Z" fill="url(#paint0_radial_7630_18216)" mask="url(#path-3-inside-1_7630_18216)"/>
<path d="M0.5 0.34375H448.5H0.5ZM448.5 57.3438H0.5V55.3438H448.5V57.3438ZM0.5 56.3438V0.34375V56.3438ZM448.5 0.34375V56.3438V0.34375Z" fill="url(#paint1_radial_7630_18216)" mask="url(#path-3-inside-1_7630_18216)"/>
<path d="M0.5 0.34375H448.5H0.5ZM448.5 57.3438H0.5V55.3438H448.5V57.3438ZM0.5 56.3438V0.34375V56.3438ZM448.5 0.34375V56.3438V0.34375Z" fill="url(#paint2_radial_7630_18216)" mask="url(#path-3-inside-1_7630_18216)"/>
<path d="M0.5 0.34375H448.5H0.5ZM448.5 57.3438H0.5V55.3438H448.5V57.3438ZM0.5 56.3438V0.34375V56.3438ZM448.5 0.34375V56.3438V0.34375Z" fill="url(#paint3_radial_7630_18216)" mask="url(#path-3-inside-1_7630_18216)"/>
<path d="M0.5 0.34375H448.5H0.5ZM448.5 57.3438H0.5V55.3438H448.5V57.3438ZM0.5 56.3438V0.34375V56.3438ZM448.5 0.34375V56.3438V0.34375Z" fill="url(#paint4_radial_7630_18216)" fill-opacity="0.5" mask="url(#path-3-inside-1_7630_18216)"/>
<path d="M0.5 0.34375H448.5H0.5ZM448.5 57.3438H0.5V55.3438H448.5V57.3438ZM0.5 56.3438V0.34375V56.3438ZM448.5 0.34375V56.3438V0.34375Z" fill="#27236F" mask="url(#path-3-inside-1_7630_18216)"/>
<path d="M167.086 20.4271V25.4271V27.0937L169.586 25.4271H173.753C174.213 25.4271 174.586 25.0537 174.586 24.5937V20.4271C174.586 19.9671 174.213 19.5938 173.753 19.5938H167.919C167.459 19.5938 167.086 19.9671 167.086 20.4271Z" stroke="white" stroke-width="1.5" stroke-linecap="round" stroke-linejoin="round"/>
<path d="M163.75 27.9268H157.917C156.996 27.9268 156.25 28.6726 156.25 29.5934V36.2601C156.25 37.1809 156.996 37.9268 157.917 37.9268H169.583C170.504 37.9268 171.25 37.1809 171.25 36.2601V29.5934" stroke="white" stroke-width="1.5" stroke-linecap="round" stroke-linejoin="round"/>
<path d="M160.414 24.5944V22.9277" stroke="white" stroke-width="1.5" stroke-linecap="round" stroke-linejoin="round"/>
<path d="M160.419 22.9264C160.88 22.9264 161.253 22.5533 161.253 22.0931C161.253 21.6329 160.88 21.2598 160.419 21.2598C159.959 21.2598 159.586 21.6329 159.586 22.0931C159.586 22.5533 159.959 22.9264 160.419 22.9264Z" stroke="white" stroke-width="1.5" stroke-linecap="round" stroke-linejoin="round"/>
<path d="M160.836 32.9277C161.526 32.9277 162.086 32.3681 162.086 31.6777C162.086 30.9874 161.526 30.4277 160.836 30.4277C160.146 30.4277 159.586 30.9874 159.586 31.6777C159.586 32.3681 160.146 32.9277 160.836 32.9277Z" fill="white"/>
<path d="M166.664 32.9277C167.354 32.9277 167.914 32.3681 167.914 31.6777C167.914 30.9874 167.354 30.4277 166.664 30.4277C165.974 30.4277 165.414 30.9874 165.414 31.6777C165.414 32.3681 165.974 32.9277 166.664 32.9277Z" fill="white"/>
<path d="M191.738 29.0437C191.738 25.3537 194.618 22.5097 198.254 22.5097C199.352 22.5097 200.468 22.7977 201.458 23.3557V26.2717C200.504 25.5517 199.514 25.1557 198.344 25.1557C196.148 25.1557 194.528 26.8657 194.528 29.0437C194.528 31.1857 196.076 32.9137 198.344 32.9137C199.496 32.9137 200.486 32.5357 201.476 31.8337V34.7317C200.378 35.3438 199.226 35.5778 198.218 35.5778C194.402 35.5778 191.738 32.7877 191.738 29.0437ZM215.918 29.0437C215.918 32.6797 212.984 35.5778 209.33 35.5778C205.676 35.5778 202.742 32.6797 202.742 29.0437C202.742 25.4077 205.676 22.5097 209.33 22.5097C212.984 22.5097 215.918 25.4077 215.918 29.0437ZM213.146 29.0437C213.146 26.8657 211.472 25.1377 209.33 25.1377C207.188 25.1377 205.514 26.8657 205.514 29.0437C205.514 31.2217 207.188 32.9497 209.33 32.9497C211.472 32.9497 213.146 31.2217 213.146 29.0437ZM228.67 29.0437C228.67 32.5897 225.79 35.3438 222.262 35.3438H217.996V22.7437H222.262C225.79 22.7437 228.67 25.4977 228.67 29.0437ZM225.898 29.0437C225.898 26.9557 224.278 25.2817 222.19 25.2817H220.696V32.8057H222.19C224.278 32.8057 225.898 31.1317 225.898 29.0437ZM230.74 22.7437H233.458V35.3438H230.74V22.7437ZM241.015 35.5778C237.865 35.5778 235.957 33.5257 235.957 30.3397V22.7437H238.693V30.1957C238.693 31.8877 239.521 32.9497 241.015 32.9497C242.509 32.9497 243.337 31.8877 243.337 30.1957V22.7437H246.073V30.3397C246.073 33.5257 244.165 35.5778 241.015 35.5778ZM254.414 32.0317L251.21 26.9917V35.3438H248.582V22.7437H251.408L255.206 28.7377L258.986 22.7437H261.74V35.3438H259.112V26.9557L255.89 32.0317H254.414ZM268.29 22.7437H270.684L275.742 35.3438H272.916L271.854 32.6257H267.048L265.986 35.3438H263.214L268.29 22.7437ZM269.442 26.1817L267.876 30.3037H271.044L269.442 26.1817ZM274.697 25.2637V22.7437H284.057V25.2637H280.745V35.3438H278.027V25.2637H274.697ZM285.707 35.3438V22.7437H293.123V25.1917H288.407V27.7477H292.709V30.1237H288.407V32.8957H293.159V35.3438H285.707Z" fill="white"/>
<path d="M136.026 86.7437C136.626 86.7437 137.172 86.8277 137.664 86.9957C138.168 87.1517 138.6 87.3857 138.96 87.6977C139.32 88.0097 139.596 88.3937 139.788 88.8497C139.992 89.2937 140.094 89.8037 140.094 90.3797C140.094 90.9557 139.992 91.4717 139.788 91.9277C139.596 92.3717 139.32 92.7497 138.96 93.0617C138.6 93.3617 138.168 93.5957 137.664 93.7637C137.172 93.9197 136.626 93.9977 136.026 93.9977H133.722V99.3438H132.12V86.7437H136.026ZM133.722 92.5217H136.026C136.746 92.5217 137.334 92.3357 137.79 91.9637C138.246 91.5917 138.474 91.0637 138.474 90.3797C138.474 89.6837 138.246 89.1497 137.79 88.7777C137.334 88.4057 136.746 88.2197 136.026 88.2197H133.722V92.5217ZM143.543 86.7437V99.3438H141.995V86.7437H143.543ZM151.464 93.5657C151.464 93.0137 151.278 92.5817 150.906 92.2697C150.546 91.9577 150.042 91.8017 149.394 91.8017C148.794 91.8017 148.26 91.9157 147.792 92.1437C147.336 92.3717 146.88 92.6957 146.424 93.1157V91.4957C146.82 91.1717 147.258 90.9077 147.738 90.7037C148.23 90.4997 148.794 90.3977 149.43 90.3977C150.558 90.3977 151.428 90.6917 152.04 91.2797C152.664 91.8557 152.976 92.6537 152.976 93.6737V99.3438H151.518V98.1917C151.17 98.6357 150.744 98.9717 150.24 99.1997C149.736 99.4278 149.196 99.5418 148.62 99.5418C148.236 99.5418 147.882 99.4758 147.558 99.3438C147.234 99.2237 146.952 99.0557 146.712 98.8397C146.484 98.6117 146.304 98.3477 146.172 98.0477C146.04 97.7357 145.974 97.3997 145.974 97.0397C145.974 95.4797 146.946 94.5377 148.89 94.2137L151.464 93.7817V93.5657ZM147.522 96.9497C147.522 97.3217 147.648 97.6217 147.9 97.8497C148.164 98.0657 148.5 98.1737 148.908 98.1737C149.28 98.1737 149.622 98.1197 149.934 98.0117C150.258 97.8917 150.534 97.7297 150.762 97.5257C150.99 97.3097 151.164 97.0637 151.284 96.7877C151.416 96.4997 151.482 96.1877 151.482 95.8517V95.1137L149.142 95.5277C148.614 95.6237 148.212 95.7917 147.936 96.0317C147.66 96.2597 147.522 96.5657 147.522 96.9497ZM157.254 99.3438H155.706V90.5957H157.254V91.8557C157.53 91.4237 157.896 91.0757 158.352 90.8117C158.82 90.5357 159.384 90.3977 160.044 90.3977C161.172 90.3977 162.042 90.7457 162.654 91.4417C163.266 92.1257 163.572 93.0497 163.572 94.2137V99.3438H162.024V94.3937C162.024 93.6017 161.826 92.9777 161.43 92.5217C161.046 92.0657 160.476 91.8377 159.72 91.8377C158.964 91.8377 158.364 92.1017 157.92 92.6297C157.476 93.1577 157.254 93.8717 157.254 94.7717V99.3438ZM165.676 96.9317C166.072 97.2917 166.516 97.5857 167.008 97.8137C167.5 98.0417 168.016 98.1558 168.556 98.1558C168.772 98.1558 168.982 98.1377 169.186 98.1017C169.39 98.0537 169.57 97.9817 169.726 97.8857C169.882 97.7897 170.008 97.6697 170.104 97.5257C170.2 97.3697 170.248 97.1777 170.248 96.9497C170.248 96.7217 170.194 96.5297 170.086 96.3737C169.99 96.2177 169.852 96.0857 169.672 95.9777C169.504 95.8697 169.3 95.7797 169.06 95.7077C168.832 95.6357 168.58 95.5697 168.304 95.5097C167.992 95.4377 167.674 95.3537 167.35 95.2577C167.038 95.1497 166.756 95.0057 166.504 94.8257C166.252 94.6337 166.048 94.3937 165.892 94.1057C165.736 93.8177 165.658 93.4637 165.658 93.0437C165.658 92.5997 165.742 92.2157 165.91 91.8917C166.09 91.5557 166.318 91.2797 166.594 91.0637C166.882 90.8357 167.206 90.6677 167.566 90.5597C167.938 90.4517 168.322 90.3977 168.718 90.3977C169.186 90.3977 169.648 90.4697 170.104 90.6137C170.56 90.7457 170.98 90.9437 171.364 91.2077V92.8457C170.98 92.5337 170.566 92.2757 170.122 92.0717C169.678 91.8677 169.222 91.7657 168.754 91.7657C168.574 91.7657 168.388 91.7837 168.196 91.8197C168.004 91.8557 167.83 91.9217 167.674 92.0177C167.53 92.1017 167.41 92.2157 167.314 92.3597C167.218 92.4917 167.17 92.6597 167.17 92.8637C167.17 93.2597 167.338 93.5597 167.674 93.7637C168.01 93.9557 168.43 94.1177 168.934 94.2497C169.342 94.3457 169.72 94.4597 170.068 94.5918C170.416 94.7237 170.716 94.8917 170.968 95.0957C171.22 95.2877 171.418 95.5277 171.562 95.8157C171.706 96.0917 171.778 96.4277 171.778 96.8237C171.778 97.2677 171.688 97.6637 171.508 98.0117C171.34 98.3477 171.106 98.6297 170.806 98.8577C170.518 99.0857 170.176 99.2537 169.78 99.3618C169.384 99.4818 168.97 99.5418 168.538 99.5418C168.058 99.5418 167.566 99.4698 167.062 99.3257C166.558 99.1817 166.096 98.9537 165.676 98.6417V96.9317ZM188.77 92.9717L186.304 96.1937L189.49 99.3438H187.276L185.332 97.3997C184.672 98.1437 183.988 98.6897 183.28 99.0377C182.572 99.3738 181.816 99.5418 181.012 99.5418C180.508 99.5418 180.04 99.4638 179.608 99.3077C179.188 99.1397 178.822 98.9117 178.51 98.6237C178.21 98.3357 177.976 97.9937 177.808 97.5977C177.64 97.2017 177.556 96.7697 177.556 96.3017C177.556 95.5457 177.76 94.8617 178.168 94.2497C178.588 93.6257 179.266 93.0077 180.202 92.3957C179.698 91.8797 179.332 91.3937 179.104 90.9377C178.876 90.4697 178.762 89.9897 178.762 89.4977C178.762 89.0777 178.84 88.6877 178.996 88.3277C179.152 87.9677 179.368 87.6557 179.644 87.3917C179.932 87.1157 180.262 86.9057 180.634 86.7617C181.018 86.6057 181.426 86.5277 181.858 86.5277C182.278 86.5277 182.674 86.5997 183.046 86.7437C183.418 86.8877 183.736 87.0857 184 87.3377C184.276 87.5897 184.492 87.8897 184.648 88.2377C184.804 88.5857 184.882 88.9577 184.882 89.3537C184.882 89.9777 184.708 90.5417 184.36 91.0457C184.012 91.5497 183.436 92.0837 182.632 92.6477L185.224 95.2037L186.88 92.9717H188.77ZM181.21 98.0657C182.218 98.0657 183.196 97.5197 184.144 96.4277L184.198 96.3737L181.246 93.4397C181.018 93.5837 180.778 93.7517 180.526 93.9437C180.286 94.1237 180.064 94.3277 179.86 94.5557C179.656 94.7837 179.488 95.0357 179.356 95.3117C179.224 95.5877 179.158 95.8817 179.158 96.1937C179.158 96.4577 179.212 96.7037 179.32 96.9317C179.428 97.1597 179.572 97.3577 179.752 97.5257C179.932 97.6937 180.148 97.8257 180.4 97.9217C180.652 98.0177 180.922 98.0657 181.21 98.0657ZM180.328 89.4617C180.328 89.7857 180.424 90.1217 180.616 90.4697C180.82 90.8057 181.138 91.1897 181.57 91.6217C182.758 90.8417 183.352 90.0977 183.352 89.3897C183.352 89.1977 183.31 89.0117 183.226 88.8317C183.154 88.6517 183.046 88.4957 182.902 88.3637C182.77 88.2197 182.608 88.1117 182.416 88.0397C182.236 87.9557 182.038 87.9137 181.822 87.9137C181.618 87.9137 181.42 87.9557 181.228 88.0397C181.048 88.1237 180.892 88.2377 180.76 88.3817C180.628 88.5137 180.52 88.6757 180.436 88.8677C180.364 89.0477 180.328 89.2457 180.328 89.4617ZM205.962 97.9397C205.398 98.3837 204.738 98.7617 203.982 99.0737C203.226 99.3858 202.338 99.5418 201.318 99.5418C200.37 99.5418 199.506 99.3738 198.726 99.0377C197.946 98.7017 197.274 98.2457 196.71 97.6697C196.146 97.0817 195.708 96.3917 195.396 95.5997C195.084 94.8077 194.928 93.9557 194.928 93.0437C194.928 92.1317 195.09 91.2797 195.414 90.4877C195.75 89.6957 196.206 89.0057 196.782 88.4177C197.358 87.8297 198.036 87.3677 198.816 87.0317C199.596 86.6957 200.442 86.5277 201.354 86.5277C202.134 86.5277 202.884 86.6477 203.604 86.8877C204.336 87.1157 205.026 87.4577 205.674 87.9137V89.7317C204.954 89.1677 204.234 88.7477 203.514 88.4717C202.806 88.1957 202.074 88.0577 201.318 88.0577C200.634 88.0577 199.998 88.1897 199.41 88.4537C198.834 88.7057 198.336 89.0597 197.916 89.5157C197.496 89.9597 197.166 90.4877 196.926 91.0997C196.686 91.6997 196.566 92.3477 196.566 93.0437C196.566 93.7277 196.674 94.3697 196.89 94.9697C197.118 95.5697 197.436 96.0977 197.844 96.5537C198.264 96.9977 198.768 97.3517 199.356 97.6157C199.956 97.8797 200.622 98.0117 201.354 98.0117C202.002 98.0117 202.572 97.9337 203.064 97.7777C203.556 97.6217 203.994 97.4057 204.378 97.1297V94.2137H201.048V92.7017H205.962V97.9397ZM216.03 98.4257C215.538 98.7737 215.004 99.0497 214.428 99.2537C213.852 99.4458 213.258 99.5418 212.646 99.5418C211.95 99.5418 211.32 99.4278 210.756 99.1997C210.192 98.9597 209.706 98.6357 209.298 98.2277C208.902 97.8077 208.596 97.3217 208.38 96.7697C208.164 96.2177 208.056 95.6177 208.056 94.9697C208.056 94.3217 208.164 93.7217 208.38 93.1697C208.596 92.6057 208.89 92.1197 209.262 91.7117C209.646 91.3037 210.102 90.9857 210.63 90.7577C211.158 90.5177 211.74 90.3977 212.376 90.3977C212.988 90.3977 213.546 90.5177 214.05 90.7577C214.554 90.9857 214.986 91.3037 215.346 91.7117C215.718 92.1197 216 92.5997 216.192 93.1517C216.396 93.6917 216.498 94.2737 216.498 94.8977C216.498 94.9937 216.492 95.0777 216.48 95.1497C216.48 95.2097 216.48 95.2637 216.48 95.3117C216.468 95.3597 216.462 95.4077 216.462 95.4557H209.604C209.64 95.8157 209.736 96.1637 209.892 96.4997C210.06 96.8237 210.276 97.1057 210.54 97.3457C210.816 97.5857 211.14 97.7777 211.512 97.9217C211.884 98.0657 212.298 98.1377 212.754 98.1377C213.87 98.1377 214.962 97.6757 216.03 96.7517V98.4257ZM214.932 94.1777C214.896 93.8297 214.806 93.5117 214.662 93.2237C214.53 92.9237 214.35 92.6657 214.122 92.4497C213.906 92.2337 213.642 92.0657 213.33 91.9457C213.03 91.8137 212.7 91.7477 212.34 91.7477C211.98 91.7477 211.638 91.8197 211.314 91.9637C211.002 92.1077 210.726 92.2937 210.486 92.5217C210.246 92.7497 210.048 93.0077 209.892 93.2957C209.748 93.5837 209.664 93.8777 209.64 94.1777H214.932ZM220.201 99.3438H218.653V90.5957H220.201V91.8557C220.477 91.4237 220.843 91.0757 221.299 90.8117C221.767 90.5357 222.331 90.3977 222.991 90.3977C224.119 90.3977 224.989 90.7457 225.601 91.4417C226.213 92.1257 226.519 93.0497 226.519 94.2137V99.3438H224.971V94.3937C224.971 93.6017 224.773 92.9777 224.377 92.5217C223.993 92.0657 223.423 91.8377 222.667 91.8377C221.911 91.8377 221.311 92.1017 220.867 92.6297C220.423 93.1577 220.201 93.8717 220.201 94.7717V99.3438ZM236.614 98.4257C236.122 98.7737 235.588 99.0497 235.012 99.2537C234.436 99.4458 233.842 99.5418 233.23 99.5418C232.534 99.5418 231.904 99.4278 231.34 99.1997C230.776 98.9597 230.29 98.6357 229.882 98.2277C229.486 97.8077 229.18 97.3217 228.964 96.7697C228.748 96.2177 228.64 95.6177 228.64 94.9697C228.64 94.3217 228.748 93.7217 228.964 93.1697C229.18 92.6057 229.474 92.1197 229.846 91.7117C230.23 91.3037 230.686 90.9857 231.214 90.7577C231.742 90.5177 232.324 90.3977 232.96 90.3977C233.572 90.3977 234.13 90.5177 234.634 90.7577C235.138 90.9857 235.57 91.3037 235.93 91.7117C236.302 92.1197 236.584 92.5997 236.776 93.1517C236.98 93.6917 237.082 94.2737 237.082 94.8977C237.082 94.9937 237.076 95.0777 237.064 95.1497C237.064 95.2097 237.064 95.2637 237.064 95.3117C237.052 95.3597 237.046 95.4077 237.046 95.4557H230.188C230.224 95.8157 230.32 96.1637 230.476 96.4997C230.644 96.8237 230.86 97.1057 231.124 97.3457C231.4 97.5857 231.724 97.7777 232.096 97.9217C232.468 98.0657 232.882 98.1377 233.338 98.1377C234.454 98.1377 235.546 97.6757 236.614 96.7517V98.4257ZM235.516 94.1777C235.48 93.8297 235.39 93.5117 235.246 93.2237C235.114 92.9237 234.934 92.6657 234.706 92.4497C234.49 92.2337 234.226 92.0657 233.914 91.9457C233.614 91.8137 233.284 91.7477 232.924 91.7477C232.564 91.7477 232.222 91.8197 231.898 91.9637C231.586 92.1077 231.31 92.2937 231.07 92.5217C230.83 92.7497 230.632 93.0077 230.476 93.2957C230.332 93.5837 230.248 93.8777 230.224 94.1777H235.516ZM243.809 92.0357C243.785 92.0357 243.749 92.0297 243.701 92.0177C243.665 92.0177 243.617 92.0177 243.557 92.0177C243.497 92.0057 243.437 91.9997 243.377 91.9997C242.561 91.9997 241.919 92.2937 241.451 92.8817C240.995 93.4697 240.767 94.2377 240.767 95.1857V99.3438H239.237V90.5957H240.749V92.1437C240.845 91.8917 240.983 91.6637 241.163 91.4597C241.355 91.2437 241.571 91.0637 241.811 90.9197C242.051 90.7757 242.309 90.6617 242.585 90.5777C242.861 90.4937 243.143 90.4517 243.431 90.4517C243.491 90.4517 243.539 90.4577 243.575 90.4697C243.623 90.4697 243.665 90.4697 243.701 90.4697C243.749 90.4817 243.785 90.4877 243.809 90.4877V92.0357ZM250.763 93.5657C250.763 93.0137 250.577 92.5817 250.205 92.2697C249.845 91.9577 249.341 91.8017 248.693 91.8017C248.093 91.8017 247.559 91.9157 247.091 92.1437C246.635 92.3717 246.179 92.6957 245.723 93.1157V91.4957C246.119 91.1717 246.557 90.9077 247.037 90.7037C247.529 90.4997 248.093 90.3977 248.729 90.3977C249.857 90.3977 250.727 90.6917 251.339 91.2797C251.963 91.8557 252.275 92.6537 252.275 93.6737V99.3438H250.817V98.1917C250.469 98.6357 250.043 98.9717 249.539 99.1997C249.035 99.4278 248.495 99.5418 247.919 99.5418C247.535 99.5418 247.181 99.4758 246.857 99.3438C246.533 99.2237 246.251 99.0557 246.011 98.8397C245.783 98.6117 245.603 98.3477 245.471 98.0477C245.339 97.7357 245.273 97.3997 245.273 97.0397C245.273 95.4797 246.245 94.5377 248.189 94.2137L250.763 93.7817V93.5657ZM246.821 96.9497C246.821 97.3217 246.947 97.6217 247.199 97.8497C247.463 98.0657 247.799 98.1737 248.207 98.1737C248.579 98.1737 248.921 98.1197 249.233 98.0117C249.557 97.8917 249.833 97.7297 250.061 97.5257C250.289 97.3097 250.463 97.0637 250.583 96.7877C250.715 96.4997 250.781 96.1877 250.781 95.8517V95.1137L248.441 95.5277C247.913 95.6237 247.511 95.7917 247.235 96.0317C246.959 96.2597 246.821 96.5657 246.821 96.9497ZM256.753 88.5437H256.807V90.5957H259.255V91.9817H256.807V96.6077C256.807 97.1237 256.921 97.5017 257.149 97.7417C257.389 97.9817 257.761 98.1017 258.265 98.1017C258.433 98.1017 258.607 98.0837 258.787 98.0477C258.967 97.9997 259.123 97.9277 259.255 97.8317V99.2717C259.099 99.3557 258.907 99.4218 258.679 99.4698C258.463 99.5178 258.205 99.5418 257.905 99.5418C257.077 99.5418 256.429 99.3018 255.961 98.8217C255.493 98.3417 255.259 97.6757 255.259 96.8237V91.9817H253.747V91.7837L256.753 88.5437ZM268.571 98.4257C268.079 98.7737 267.545 99.0497 266.969 99.2537C266.393 99.4458 265.799 99.5418 265.187 99.5418C264.491 99.5418 263.861 99.4278 263.297 99.1997C262.733 98.9597 262.247 98.6357 261.839 98.2277C261.443 97.8077 261.137 97.3217 260.921 96.7697C260.705 96.2177 260.597 95.6177 260.597 94.9697C260.597 94.3217 260.705 93.7217 260.921 93.1697C261.137 92.6057 261.431 92.1197 261.803 91.7117C262.187 91.3037 262.643 90.9857 263.171 90.7577C263.699 90.5177 264.281 90.3977 264.917 90.3977C265.529 90.3977 266.087 90.5177 266.591 90.7577C267.095 90.9857 267.527 91.3037 267.887 91.7117C268.259 92.1197 268.541 92.5997 268.733 93.1517C268.937 93.6917 269.039 94.2737 269.039 94.8977C269.039 94.9937 269.033 95.0777 269.021 95.1497C269.021 95.2097 269.021 95.2637 269.021 95.3117C269.009 95.3597 269.003 95.4077 269.003 95.4557H262.145C262.181 95.8157 262.277 96.1637 262.433 96.4997C262.601 96.8237 262.817 97.1057 263.081 97.3457C263.357 97.5857 263.681 97.7777 264.053 97.9217C264.425 98.0657 264.839 98.1377 265.295 98.1377C266.411 98.1377 267.503 97.6757 268.571 96.7517V98.4257ZM267.473 94.1777C267.437 93.8297 267.347 93.5117 267.203 93.2237C267.071 92.9237 266.891 92.6657 266.663 92.4497C266.447 92.2337 266.183 92.0657 265.871 91.9457C265.571 91.8137 265.241 91.7477 264.881 91.7477C264.521 91.7477 264.179 91.8197 263.855 91.9637C263.543 92.1077 263.267 92.2937 263.027 92.5217C262.787 92.7497 262.589 93.0077 262.433 93.2957C262.289 93.5837 262.205 93.8777 262.181 94.1777H267.473ZM275.102 93.0437C275.102 92.1317 275.264 91.2797 275.588 90.4877C275.924 89.6957 276.38 89.0057 276.956 88.4177C277.544 87.8297 278.228 87.3677 279.008 87.0317C279.8 86.6957 280.646 86.5277 281.546 86.5277C282.866 86.5277 284.096 86.9057 285.236 87.6617V89.4437C284.024 88.5317 282.782 88.0757 281.51 88.0757C280.838 88.0757 280.214 88.2077 279.638 88.4717C279.062 88.7237 278.558 89.0717 278.126 89.5157C277.706 89.9597 277.37 90.4877 277.118 91.0997C276.878 91.6997 276.758 92.3477 276.758 93.0437C276.758 93.7277 276.878 94.3757 277.118 94.9877C277.37 95.5877 277.706 96.1097 278.126 96.5537C278.558 96.9977 279.062 97.3517 279.638 97.6157C280.214 97.8677 280.838 97.9937 281.51 97.9937C282.782 97.9937 284.036 97.5497 285.272 96.6617V98.4437C284.096 99.1758 282.848 99.5418 281.528 99.5418C280.628 99.5418 279.788 99.3738 279.008 99.0377C278.228 98.7017 277.544 98.2457 276.956 97.6697C276.38 97.0817 275.924 96.3917 275.588 95.5997C275.264 94.8077 275.102 93.9557 275.102 93.0437ZM291.536 90.3977C292.196 90.3977 292.802 90.5177 293.354 90.7577C293.918 90.9977 294.404 91.3277 294.812 91.7477C295.22 92.1557 295.538 92.6357 295.766 93.1877C295.994 93.7397 296.108 94.3337 296.108 94.9697C296.108 95.6057 295.994 96.1997 295.766 96.7517C295.538 97.3037 295.22 97.7897 294.812 98.2097C294.404 98.6177 293.918 98.9417 293.354 99.1817C292.802 99.4218 292.196 99.5418 291.536 99.5418C290.876 99.5418 290.264 99.4218 289.7 99.1817C289.148 98.9417 288.668 98.6177 288.26 98.2097C287.852 97.7897 287.534 97.3037 287.306 96.7517C287.078 96.1997 286.964 95.6057 286.964 94.9697C286.964 94.3337 287.078 93.7397 287.306 93.1877C287.534 92.6357 287.852 92.1557 288.26 91.7477C288.668 91.3277 289.148 90.9977 289.7 90.7577C290.264 90.5177 290.876 90.3977 291.536 90.3977ZM291.536 91.8197C291.104 91.8197 290.702 91.9037 290.33 92.0717C289.97 92.2277 289.652 92.4497 289.376 92.7377C289.112 93.0257 288.902 93.3617 288.746 93.7457C288.602 94.1297 288.53 94.5377 288.53 94.9697C288.53 95.4017 288.602 95.8097 288.746 96.1937C288.902 96.5777 289.112 96.9137 289.376 97.2017C289.652 97.4897 289.97 97.7177 290.33 97.8857C290.702 98.0417 291.104 98.1197 291.536 98.1197C291.968 98.1197 292.364 98.0417 292.724 97.8857C293.096 97.7177 293.414 97.4897 293.678 97.2017C293.954 96.9137 294.164 96.5777 294.308 96.1937C294.464 95.8097 294.542 95.4017 294.542 94.9697C294.542 94.5377 294.464 94.1297 294.308 93.7457C294.164 93.3617 293.954 93.0257 293.678 92.7377C293.414 92.4497 293.096 92.2277 292.724 92.0717C292.364 91.9037 291.968 91.8197 291.536 91.8197ZM306.828 86.7437V99.3438H305.298V97.9577C304.986 98.4377 304.554 98.8217 304.002 99.1097C303.45 99.3978 302.85 99.5418 302.202 99.5418C301.578 99.5418 300.996 99.4278 300.456 99.1997C299.928 98.9597 299.466 98.6357 299.07 98.2277C298.674 97.8197 298.362 97.3397 298.134 96.7877C297.918 96.2237 297.81 95.6177 297.81 94.9697C297.81 94.3217 297.918 93.7217 298.134 93.1697C298.362 92.6177 298.674 92.1377 299.07 91.7297C299.466 91.3097 299.928 90.9857 300.456 90.7577C300.996 90.5177 301.578 90.3977 302.202 90.3977C302.85 90.3977 303.444 90.5297 303.984 90.7937C304.536 91.0577 304.974 91.4297 305.298 91.9097V86.7437H306.828ZM305.388 94.9697C305.388 94.5257 305.31 94.1117 305.154 93.7277C305.01 93.3437 304.8 93.0137 304.524 92.7377C304.26 92.4497 303.942 92.2277 303.57 92.0717C303.21 91.9037 302.814 91.8197 302.382 91.8197C301.95 91.8197 301.548 91.9037 301.176 92.0717C300.816 92.2277 300.498 92.4497 300.222 92.7377C299.958 93.0137 299.748 93.3437 299.592 93.7277C299.448 94.1117 299.376 94.5257 299.376 94.9697C299.376 95.4137 299.448 95.8277 299.592 96.2117C299.748 96.5957 299.958 96.9317 300.222 97.2197C300.498 97.4957 300.816 97.7177 301.176 97.8857C301.548 98.0417 301.95 98.1197 302.382 98.1197C302.814 98.1197 303.21 98.0417 303.57 97.8857C303.942 97.7177 304.26 97.4957 304.524 97.2197C304.8 96.9317 305.01 96.5957 305.154 96.2117C305.31 95.8277 305.388 95.4137 305.388 94.9697ZM317.052 98.4257C316.56 98.7737 316.026 99.0497 315.45 99.2537C314.874 99.4458 314.28 99.5418 313.668 99.5418C312.972 99.5418 312.342 99.4278 311.778 99.1997C311.214 98.9597 310.728 98.6357 310.32 98.2277C309.924 97.8077 309.618 97.3217 309.402 96.7697C309.186 96.2177 309.078 95.6177 309.078 94.9697C309.078 94.3217 309.186 93.7217 309.402 93.1697C309.618 92.6057 309.912 92.1197 310.284 91.7117C310.668 91.3037 311.124 90.9857 311.652 90.7577C312.18 90.5177 312.762 90.3977 313.398 90.3977C314.01 90.3977 314.568 90.5177 315.072 90.7577C315.576 90.9857 316.008 91.3037 316.368 91.7117C316.74 92.1197 317.022 92.5997 317.214 93.1517C317.418 93.6917 317.52 94.2737 317.52 94.8977C317.52 94.9937 317.514 95.0777 317.502 95.1497C317.502 95.2097 317.502 95.2637 317.502 95.3117C317.49 95.3597 317.484 95.4077 317.484 95.4557H310.626C310.662 95.8157 310.758 96.1637 310.914 96.4997C311.082 96.8237 311.298 97.1057 311.562 97.3457C311.838 97.5857 312.162 97.7777 312.534 97.9217C312.906 98.0657 313.32 98.1377 313.776 98.1377C314.892 98.1377 315.984 97.6757 317.052 96.7517V98.4257ZM315.954 94.1777C315.918 93.8297 315.828 93.5117 315.684 93.2237C315.552 92.9237 315.372 92.6657 315.144 92.4497C314.928 92.2337 314.664 92.0657 314.352 91.9457C314.052 91.8137 313.722 91.7477 313.362 91.7477C313.002 91.7477 312.66 91.8197 312.336 91.9637C312.024 92.1077 311.748 92.2937 311.508 92.5217C311.268 92.7497 311.07 93.0077 310.914 93.2957C310.77 93.5837 310.686 93.8777 310.662 94.1777H315.954Z" fill="#D9D9E0"/>
<path opacity="0.08" d="M24.5 122.344H424.5" stroke="white"/>
<path d="M140.86 144.744H149.824V146.22H146.152V157.344H144.532V146.22H140.86V144.744ZM157.528 156.426C157.036 156.774 156.502 157.05 155.926 157.254C155.35 157.446 154.756 157.542 154.144 157.542C153.448 157.542 152.818 157.428 152.254 157.2C151.69 156.96 151.204 156.636 150.796 156.228C150.4 155.808 150.094 155.322 149.878 154.77C149.662 154.218 149.554 153.618 149.554 152.97C149.554 152.322 149.662 151.722 149.878 151.17C150.094 150.606 150.388 150.12 150.76 149.712C151.144 149.304 151.6 148.986 152.128 148.758C152.656 148.518 153.238 148.398 153.874 148.398C154.486 148.398 155.044 148.518 155.548 148.758C156.052 148.986 156.484 149.304 156.844 149.712C157.216 150.12 157.498 150.6 157.69 151.152C157.894 151.692 157.996 152.274 157.996 152.898C157.996 152.994 157.99 153.078 157.978 153.15C157.978 153.21 157.978 153.264 157.978 153.312C157.966 153.36 157.96 153.408 157.96 153.456H151.102C151.138 153.816 151.234 154.164 151.39 154.5C151.558 154.824 151.774 155.106 152.038 155.346C152.314 155.586 152.638 155.778 153.01 155.922C153.382 156.066 153.796 156.138 154.252 156.138C155.368 156.138 156.46 155.676 157.528 154.752V156.426ZM156.43 152.178C156.394 151.83 156.304 151.512 156.16 151.224C156.028 150.924 155.848 150.666 155.62 150.45C155.404 150.234 155.14 150.066 154.828 149.946C154.528 149.814 154.198 149.748 153.838 149.748C153.478 149.748 153.136 149.82 152.812 149.964C152.5 150.108 152.224 150.294 151.984 150.522C151.744 150.75 151.546 151.008 151.39 151.296C151.246 151.584 151.162 151.878 151.138 152.178H156.43ZM159.645 154.932C160.041 155.292 160.485 155.586 160.977 155.814C161.469 156.042 161.985 156.156 162.525 156.156C162.741 156.156 162.951 156.138 163.155 156.102C163.359 156.054 163.539 155.982 163.695 155.886C163.851 155.79 163.977 155.67 164.073 155.526C164.169 155.37 164.217 155.178 164.217 154.95C164.217 154.722 164.163 154.53 164.055 154.374C163.959 154.218 163.821 154.086 163.641 153.978C163.473 153.87 163.269 153.78 163.029 153.708C162.801 153.636 162.549 153.57 162.273 153.51C161.961 153.438 161.643 153.354 161.319 153.258C161.007 153.15 160.725 153.006 160.473 152.826C160.221 152.634 160.017 152.394 159.861 152.106C159.705 151.818 159.627 151.464 159.627 151.044C159.627 150.6 159.711 150.216 159.879 149.892C160.059 149.556 160.287 149.28 160.563 149.064C160.851 148.836 161.175 148.668 161.535 148.56C161.907 148.452 162.291 148.398 162.687 148.398C163.155 148.398 163.617 148.47 164.073 148.614C164.529 148.746 164.949 148.944 165.333 149.208V150.846C164.949 150.534 164.535 150.276 164.091 150.072C163.647 149.868 163.191 149.766 162.723 149.766C162.543 149.766 162.357 149.784 162.165 149.82C161.973 149.856 161.799 149.922 161.643 150.018C161.499 150.102 161.379 150.216 161.283 150.36C161.187 150.492 161.139 150.66 161.139 150.864C161.139 151.26 161.307 151.56 161.643 151.764C161.979 151.956 162.399 152.118 162.903 152.25C163.311 152.346 163.689 152.46 164.037 152.592C164.385 152.724 164.685 152.892 164.937 153.096C165.189 153.288 165.387 153.528 165.531 153.816C165.675 154.092 165.747 154.428 165.747 154.824C165.747 155.268 165.657 155.664 165.477 156.012C165.309 156.348 165.075 156.63 164.775 156.858C164.487 157.086 164.145 157.254 163.749 157.362C163.353 157.482 162.939 157.542 162.507 157.542C162.027 157.542 161.535 157.47 161.031 157.326C160.527 157.182 160.065 156.954 159.645 156.642V154.932ZM169.669 146.544H169.723V148.596H172.171V149.982H169.723V154.608C169.723 155.124 169.837 155.502 170.065 155.742C170.305 155.982 170.677 156.102 171.181 156.102C171.349 156.102 171.523 156.084 171.703 156.048C171.883 156 172.039 155.928 172.171 155.832V157.272C172.015 157.356 171.823 157.422 171.595 157.47C171.379 157.518 171.121 157.542 170.821 157.542C169.993 157.542 169.345 157.302 168.877 156.822C168.409 156.342 168.175 155.676 168.175 154.824V149.982H166.663V149.784L169.669 146.544ZM178.301 151.62C178.301 151.14 178.391 150.702 178.571 150.306C178.751 149.91 178.997 149.574 179.309 149.298C179.621 149.01 179.981 148.788 180.389 148.632C180.797 148.476 181.229 148.398 181.685 148.398C182.081 148.398 182.477 148.464 182.873 148.596H185.879V149.928H184.583C184.739 150.168 184.859 150.432 184.943 150.72C185.027 151.008 185.069 151.308 185.069 151.62C185.069 152.1 184.979 152.538 184.799 152.934C184.619 153.33 184.373 153.666 184.061 153.942C183.749 154.218 183.389 154.434 182.981 154.59C182.573 154.746 182.141 154.824 181.685 154.824C181.157 154.824 180.653 154.722 180.173 154.518C179.873 154.614 179.669 154.74 179.561 154.896C179.453 155.04 179.399 155.196 179.399 155.364C179.399 155.628 179.507 155.814 179.723 155.922C179.939 156.03 180.221 156.084 180.569 156.084H182.999C183.935 156.084 184.679 156.276 185.231 156.66C185.783 157.044 186.059 157.596 186.059 158.316C186.059 158.82 185.933 159.258 185.681 159.63C185.429 160.014 185.093 160.326 184.673 160.566C184.265 160.818 183.785 161.004 183.233 161.124C182.693 161.244 182.129 161.304 181.541 161.304C180.977 161.304 180.455 161.256 179.975 161.16C179.507 161.064 179.099 160.914 178.751 160.71C178.403 160.518 178.127 160.266 177.923 159.954C177.731 159.642 177.635 159.27 177.635 158.838C177.635 158.418 177.749 158.046 177.977 157.722C178.217 157.41 178.475 157.164 178.751 156.984C178.511 156.816 178.331 156.612 178.211 156.372C178.103 156.12 178.049 155.856 178.049 155.58C178.049 155.34 178.079 155.13 178.139 154.95C178.211 154.758 178.301 154.596 178.409 154.464C178.517 154.32 178.637 154.2 178.769 154.104C178.901 153.996 179.033 153.9 179.165 153.816C178.889 153.54 178.673 153.222 178.517 152.862C178.373 152.49 178.301 152.076 178.301 151.62ZM184.619 158.46C184.619 158.076 184.451 157.812 184.115 157.668C183.791 157.524 183.299 157.452 182.639 157.452H180.479C180.371 157.452 180.269 157.446 180.173 157.434C180.089 157.434 179.999 157.428 179.903 157.416C179.339 157.716 179.057 158.13 179.057 158.658C179.057 158.91 179.123 159.126 179.255 159.306C179.387 159.486 179.567 159.63 179.795 159.738C180.023 159.858 180.287 159.942 180.587 159.99C180.899 160.05 181.229 160.08 181.577 160.08C182.021 160.08 182.429 160.044 182.801 159.972C183.173 159.9 183.491 159.792 183.755 159.648C184.031 159.516 184.241 159.348 184.385 159.144C184.541 158.952 184.619 158.724 184.619 158.46ZM179.723 151.62C179.723 152.196 179.909 152.664 180.281 153.024C180.665 153.372 181.133 153.546 181.685 153.546C182.237 153.546 182.699 153.372 183.071 153.024C183.455 152.664 183.647 152.196 183.647 151.62C183.647 151.056 183.455 150.594 183.071 150.234C182.699 149.874 182.237 149.694 181.685 149.694C181.133 149.694 180.665 149.874 180.281 150.234C179.909 150.594 179.723 151.056 179.723 151.62ZM195.022 156.426C194.53 156.774 193.996 157.05 193.42 157.254C192.844 157.446 192.25 157.542 191.638 157.542C190.942 157.542 190.312 157.428 189.748 157.2C189.184 156.96 188.698 156.636 188.29 156.228C187.894 155.808 187.588 155.322 187.372 154.77C187.156 154.218 187.048 153.618 187.048 152.97C187.048 152.322 187.156 151.722 187.372 151.17C187.588 150.606 187.882 150.12 188.254 149.712C188.638 149.304 189.094 148.986 189.622 148.758C190.15 148.518 190.732 148.398 191.368 148.398C191.98 148.398 192.538 148.518 193.042 148.758C193.546 148.986 193.978 149.304 194.338 149.712C194.71 150.12 194.992 150.6 195.184 151.152C195.388 151.692 195.49 152.274 195.49 152.898C195.49 152.994 195.484 153.078 195.472 153.15C195.472 153.21 195.472 153.264 195.472 153.312C195.46 153.36 195.454 153.408 195.454 153.456H188.596C188.632 153.816 188.728 154.164 188.884 154.5C189.052 154.824 189.268 155.106 189.532 155.346C189.808 155.586 190.132 155.778 190.504 155.922C190.876 156.066 191.29 156.138 191.746 156.138C192.862 156.138 193.954 155.676 195.022 154.752V156.426ZM193.924 152.178C193.888 151.83 193.798 151.512 193.654 151.224C193.522 150.924 193.342 150.666 193.114 150.45C192.898 150.234 192.634 150.066 192.322 149.946C192.022 149.814 191.692 149.748 191.332 149.748C190.972 149.748 190.63 149.82 190.306 149.964C189.994 150.108 189.718 150.294 189.478 150.522C189.238 150.75 189.04 151.008 188.884 151.296C188.74 151.584 188.656 151.878 188.632 152.178H193.924ZM199.193 157.344H197.645V148.596H199.193V149.856C199.469 149.424 199.835 149.076 200.291 148.812C200.759 148.536 201.323 148.398 201.983 148.398C203.111 148.398 203.981 148.746 204.593 149.442C205.205 150.126 205.511 151.05 205.511 152.214V157.344H203.963V152.394C203.963 151.602 203.765 150.978 203.369 150.522C202.985 150.066 202.415 149.838 201.659 149.838C200.903 149.838 200.303 150.102 199.859 150.63C199.415 151.158 199.193 151.872 199.193 152.772V157.344ZM215.606 156.426C215.114 156.774 214.58 157.05 214.004 157.254C213.428 157.446 212.834 157.542 212.222 157.542C211.526 157.542 210.896 157.428 210.332 157.2C209.768 156.96 209.282 156.636 208.874 156.228C208.478 155.808 208.172 155.322 207.956 154.77C207.74 154.218 207.632 153.618 207.632 152.97C207.632 152.322 207.74 151.722 207.956 151.17C208.172 150.606 208.466 150.12 208.838 149.712C209.222 149.304 209.678 148.986 210.206 148.758C210.734 148.518 211.316 148.398 211.952 148.398C212.564 148.398 213.122 148.518 213.626 148.758C214.13 148.986 214.562 149.304 214.922 149.712C215.294 150.12 215.576 150.6 215.768 151.152C215.972 151.692 216.074 152.274 216.074 152.898C216.074 152.994 216.068 153.078 216.056 153.15C216.056 153.21 216.056 153.264 216.056 153.312C216.044 153.36 216.038 153.408 216.038 153.456H209.18C209.216 153.816 209.312 154.164 209.468 154.5C209.636 154.824 209.852 155.106 210.116 155.346C210.392 155.586 210.716 155.778 211.088 155.922C211.46 156.066 211.874 156.138 212.33 156.138C213.446 156.138 214.538 155.676 215.606 154.752V156.426ZM214.508 152.178C214.472 151.83 214.382 151.512 214.238 151.224C214.106 150.924 213.926 150.666 213.698 150.45C213.482 150.234 213.218 150.066 212.906 149.946C212.606 149.814 212.276 149.748 211.916 149.748C211.556 149.748 211.214 149.82 210.89 149.964C210.578 150.108 210.302 150.294 210.062 150.522C209.822 150.75 209.624 151.008 209.468 151.296C209.324 151.584 209.24 151.878 209.216 152.178H214.508ZM222.801 150.036C222.777 150.036 222.741 150.03 222.693 150.018C222.657 150.018 222.609 150.018 222.549 150.018C222.489 150.006 222.429 150 222.369 150C221.553 150 220.911 150.294 220.443 150.882C219.987 151.47 219.759 152.238 219.759 153.186V157.344H218.229V148.596H219.741V150.144C219.837 149.892 219.975 149.664 220.155 149.46C220.347 149.244 220.563 149.064 220.803 148.92C221.043 148.776 221.301 148.662 221.577 148.578C221.853 148.494 222.135 148.452 222.423 148.452C222.483 148.452 222.531 148.458 222.567 148.47C222.615 148.47 222.657 148.47 222.693 148.47C222.741 148.482 222.777 148.488 222.801 148.488V150.036ZM229.755 151.566C229.755 151.014 229.569 150.582 229.197 150.27C228.837 149.958 228.333 149.802 227.685 149.802C227.085 149.802 226.551 149.916 226.083 150.144C225.627 150.372 225.171 150.696 224.715 151.116V149.496C225.111 149.172 225.549 148.908 226.029 148.704C226.521 148.5 227.085 148.398 227.721 148.398C228.849 148.398 229.719 148.692 230.331 149.28C230.955 149.856 231.267 150.654 231.267 151.674V157.344H229.809V156.192C229.461 156.636 229.035 156.972 228.531 157.2C228.027 157.428 227.487 157.542 226.911 157.542C226.527 157.542 226.173 157.476 225.849 157.344C225.525 157.224 225.243 157.056 225.003 156.84C224.775 156.612 224.595 156.348 224.463 156.048C224.331 155.736 224.265 155.4 224.265 155.04C224.265 153.48 225.237 152.538 227.181 152.214L229.755 151.782V151.566ZM225.813 154.95C225.813 155.322 225.939 155.622 226.191 155.85C226.455 156.066 226.791 156.174 227.199 156.174C227.571 156.174 227.913 156.12 228.225 156.012C228.549 155.892 228.825 155.73 229.053 155.526C229.281 155.31 229.455 155.064 229.575 154.788C229.707 154.5 229.773 154.188 229.773 153.852V153.114L227.433 153.528C226.905 153.624 226.503 153.792 226.227 154.032C225.951 154.26 225.813 154.566 225.813 154.95ZM235.745 146.544H235.799V148.596H238.247V149.982H235.799V154.608C235.799 155.124 235.913 155.502 236.141 155.742C236.381 155.982 236.753 156.102 237.257 156.102C237.425 156.102 237.599 156.084 237.779 156.048C237.959 156 238.115 155.928 238.247 155.832V157.272C238.091 157.356 237.899 157.422 237.671 157.47C237.455 157.518 237.197 157.542 236.897 157.542C236.069 157.542 235.421 157.302 234.953 156.822C234.485 156.342 234.251 155.676 234.251 154.824V149.982H232.739V149.784L235.745 146.544ZM242.213 146.004C242.213 146.292 242.111 146.538 241.907 146.742C241.703 146.946 241.457 147.048 241.169 147.048C240.881 147.048 240.635 146.946 240.431 146.742C240.227 146.538 240.125 146.292 240.125 146.004C240.125 145.716 240.227 145.47 240.431 145.266C240.635 145.062 240.881 144.96 241.169 144.96C241.457 144.96 241.703 145.062 241.907 145.266C242.111 145.47 242.213 145.716 242.213 146.004ZM241.943 148.596V157.344H240.395V148.596H241.943ZM248.767 148.398C249.427 148.398 250.033 148.518 250.585 148.758C251.149 148.998 251.635 149.328 252.043 149.748C252.451 150.156 252.769 150.636 252.997 151.188C253.225 151.74 253.339 152.334 253.339 152.97C253.339 153.606 253.225 154.2 252.997 154.752C252.769 155.304 252.451 155.79 252.043 156.21C251.635 156.618 251.149 156.942 250.585 157.182C250.033 157.422 249.427 157.542 248.767 157.542C248.107 157.542 247.495 157.422 246.931 157.182C246.379 156.942 245.899 156.618 245.491 156.21C245.083 155.79 244.765 155.304 244.537 154.752C244.309 154.2 244.195 153.606 244.195 152.97C244.195 152.334 244.309 151.74 244.537 151.188C244.765 150.636 245.083 150.156 245.491 149.748C245.899 149.328 246.379 148.998 246.931 148.758C247.495 148.518 248.107 148.398 248.767 148.398ZM248.767 149.82C248.335 149.82 247.933 149.904 247.561 150.072C247.201 150.228 246.883 150.45 246.607 150.738C246.343 151.026 246.133 151.362 245.977 151.746C245.833 152.13 245.761 152.538 245.761 152.97C245.761 153.402 245.833 153.81 245.977 154.194C246.133 154.578 246.343 154.914 246.607 155.202C246.883 155.49 247.201 155.718 247.561 155.886C247.933 156.042 248.335 156.12 248.767 156.12C249.199 156.12 249.595 156.042 249.955 155.886C250.327 155.718 250.645 155.49 250.909 155.202C251.185 154.914 251.395 154.578 251.539 154.194C251.695 153.81 251.773 153.402 251.773 152.97C251.773 152.538 251.695 152.13 251.539 151.746C251.395 151.362 251.185 151.026 250.909 150.738C250.645 150.45 250.327 150.228 249.955 150.072C249.595 149.904 249.199 149.82 248.767 149.82ZM257.131 157.344H255.583V148.596H257.131V149.856C257.407 149.424 257.773 149.076 258.229 148.812C258.697 148.536 259.261 148.398 259.921 148.398C261.049 148.398 261.919 148.746 262.531 149.442C263.143 150.126 263.449 151.05 263.449 152.214V157.344H261.901V152.394C261.901 151.602 261.703 150.978 261.307 150.522C260.923 150.066 260.353 149.838 259.597 149.838C258.841 149.838 258.241 150.102 257.797 150.63C257.353 151.158 257.131 151.872 257.131 152.772V157.344ZM270.018 154.932C270.414 155.292 270.858 155.586 271.35 155.814C271.842 156.042 272.358 156.156 272.898 156.156C273.114 156.156 273.324 156.138 273.528 156.102C273.732 156.054 273.912 155.982 274.068 155.886C274.224 155.79 274.35 155.67 274.446 155.526C274.542 155.37 274.59 155.178 274.59 154.95C274.59 154.722 274.536 154.53 274.428 154.374C274.332 154.218 274.194 154.086 274.014 153.978C273.846 153.87 273.642 153.78 273.402 153.708C273.174 153.636 272.922 153.57 272.646 153.51C272.334 153.438 272.016 153.354 271.692 153.258C271.38 153.15 271.098 153.006 270.846 152.826C270.594 152.634 270.39 152.394 270.234 152.106C270.078 151.818 270 151.464 270 151.044C270 150.6 270.084 150.216 270.252 149.892C270.432 149.556 270.66 149.28 270.936 149.064C271.224 148.836 271.548 148.668 271.908 148.56C272.28 148.452 272.664 148.398 273.06 148.398C273.528 148.398 273.99 148.47 274.446 148.614C274.902 148.746 275.322 148.944 275.706 149.208V150.846C275.322 150.534 274.908 150.276 274.464 150.072C274.02 149.868 273.564 149.766 273.096 149.766C272.916 149.766 272.73 149.784 272.538 149.82C272.346 149.856 272.172 149.922 272.016 150.018C271.872 150.102 271.752 150.216 271.656 150.36C271.56 150.492 271.512 150.66 271.512 150.864C271.512 151.26 271.68 151.56 272.016 151.764C272.352 151.956 272.772 152.118 273.276 152.25C273.684 152.346 274.062 152.46 274.41 152.592C274.758 152.724 275.058 152.892 275.31 153.096C275.562 153.288 275.76 153.528 275.904 153.816C276.048 154.092 276.12 154.428 276.12 154.824C276.12 155.268 276.03 155.664 275.85 156.012C275.682 156.348 275.448 156.63 275.148 156.858C274.86 157.086 274.518 157.254 274.122 157.362C273.726 157.482 273.312 157.542 272.88 157.542C272.4 157.542 271.908 157.47 271.404 157.326C270.9 157.182 270.438 156.954 270.018 156.642V154.932ZM284.344 148.596H285.892V157.344H284.344V156.084C284.068 156.516 283.702 156.87 283.246 157.146C282.79 157.41 282.232 157.542 281.572 157.542C280.456 157.542 279.592 157.2 278.98 156.516C278.38 155.82 278.08 154.89 278.08 153.726V148.596H279.628V153.546C279.628 154.338 279.82 154.962 280.204 155.418C280.588 155.874 281.152 156.102 281.896 156.102C282.64 156.102 283.234 155.838 283.678 155.31C284.122 154.782 284.344 154.068 284.344 153.168V148.596ZM290.852 146.004C290.852 146.292 290.75 146.538 290.546 146.742C290.342 146.946 290.096 147.048 289.808 147.048C289.52 147.048 289.274 146.946 289.07 146.742C288.866 146.538 288.764 146.292 288.764 146.004C288.764 145.716 288.866 145.47 289.07 145.266C289.274 145.062 289.52 144.96 289.808 144.96C290.096 144.96 290.342 145.062 290.546 145.266C290.75 145.47 290.852 145.716 290.852 146.004ZM290.582 148.596V157.344H289.034V148.596H290.582ZM295.299 146.544H295.353V148.596H297.801V149.982H295.353V154.608C295.353 155.124 295.467 155.502 295.695 155.742C295.935 155.982 296.307 156.102 296.811 156.102C296.979 156.102 297.153 156.084 297.333 156.048C297.513 156 297.669 155.928 297.801 155.832V157.272C297.645 157.356 297.453 157.422 297.225 157.47C297.009 157.518 296.751 157.542 296.451 157.542C295.623 157.542 294.975 157.302 294.507 156.822C294.039 156.342 293.805 155.676 293.805 154.824V149.982H292.293V149.784L295.299 146.544ZM307.118 156.426C306.626 156.774 306.092 157.05 305.516 157.254C304.94 157.446 304.346 157.542 303.734 157.542C303.038 157.542 302.408 157.428 301.844 157.2C301.28 156.96 300.794 156.636 300.386 156.228C299.99 155.808 299.684 155.322 299.468 154.77C299.252 154.218 299.144 153.618 299.144 152.97C299.144 152.322 299.252 151.722 299.468 151.17C299.684 150.606 299.978 150.12 300.35 149.712C300.734 149.304 301.19 148.986 301.718 148.758C302.246 148.518 302.828 148.398 303.464 148.398C304.076 148.398 304.634 148.518 305.138 148.758C305.642 148.986 306.074 149.304 306.434 149.712C306.806 150.12 307.088 150.6 307.28 151.152C307.484 151.692 307.586 152.274 307.586 152.898C307.586 152.994 307.58 153.078 307.568 153.15C307.568 153.21 307.568 153.264 307.568 153.312C307.556 153.36 307.55 153.408 307.55 153.456H300.692C300.728 153.816 300.824 154.164 300.98 154.5C301.148 154.824 301.364 155.106 301.628 155.346C301.904 155.586 302.228 155.778 302.6 155.922C302.972 156.066 303.386 156.138 303.842 156.138C304.958 156.138 306.05 155.676 307.118 154.752V156.426ZM306.02 152.178C305.984 151.83 305.894 151.512 305.75 151.224C305.618 150.924 305.438 150.666 305.21 150.45C304.994 150.234 304.73 150.066 304.418 149.946C304.118 149.814 303.788 149.748 303.428 149.748C303.068 149.748 302.726 149.82 302.402 149.964C302.09 150.108 301.814 150.294 301.574 150.522C301.334 150.75 301.136 151.008 300.98 151.296C300.836 151.584 300.752 151.878 300.728 152.178H306.02Z" fill="#D9D9E0"/>
<path opacity="0.08" d="M24.5 180.344H424.5" stroke="white"/>
<path d="M135.522 202.744V215.344H133.92V202.744H135.522ZM140.122 215.344H138.574V206.596H140.122V207.856C140.398 207.424 140.764 207.076 141.22 206.812C141.688 206.536 142.252 206.398 142.912 206.398C144.04 206.398 144.91 206.746 145.522 207.442C146.134 208.126 146.44 209.05 146.44 210.214V215.344H144.892V210.394C144.892 209.602 144.694 208.978 144.298 208.522C143.914 208.066 143.344 207.838 142.588 207.838C141.832 207.838 141.232 208.102 140.788 208.63C140.344 209.158 140.122 209.872 140.122 210.772V215.344ZM148.562 210.97C148.562 210.334 148.67 209.74 148.886 209.188C149.114 208.624 149.432 208.138 149.84 207.73C150.248 207.31 150.728 206.986 151.28 206.758C151.844 206.518 152.462 206.398 153.134 206.398C154.046 206.398 154.874 206.65 155.618 207.154V208.72C154.85 208.132 154.046 207.838 153.206 207.838C152.762 207.838 152.348 207.922 151.964 208.09C151.592 208.246 151.268 208.468 150.992 208.756C150.728 209.032 150.518 209.362 150.362 209.746C150.206 210.118 150.128 210.526 150.128 210.97C150.128 211.402 150.206 211.81 150.362 212.194C150.518 212.578 150.728 212.914 150.992 213.202C151.268 213.478 151.592 213.7 151.964 213.868C152.348 214.024 152.762 214.102 153.206 214.102C153.662 214.102 154.1 214.018 154.52 213.85C154.94 213.67 155.324 213.466 155.672 213.238V214.804C155.288 215.044 154.886 215.224 154.466 215.344C154.046 215.476 153.608 215.542 153.152 215.542C152.468 215.542 151.844 215.428 151.28 215.2C150.716 214.96 150.23 214.636 149.822 214.228C149.426 213.808 149.114 213.322 148.886 212.77C148.67 212.218 148.562 211.618 148.562 210.97ZM162.447 208.036C162.423 208.036 162.387 208.03 162.339 208.018C162.303 208.018 162.255 208.018 162.195 208.018C162.135 208.006 162.075 208 162.015 208C161.199 208 160.557 208.294 160.089 208.882C159.633 209.47 159.405 210.238 159.405 211.186V215.344H157.875V206.596H159.387V208.144C159.483 207.892 159.621 207.664 159.801 207.46C159.993 207.244 160.209 207.064 160.449 206.92C160.689 206.776 160.947 206.662 161.223 206.578C161.499 206.494 161.781 206.452 162.069 206.452C162.129 206.452 162.177 206.458 162.213 206.47C162.261 206.47 162.303 206.47 162.339 206.47C162.387 206.482 162.423 206.488 162.447 206.488V208.036ZM171.354 214.426C170.862 214.774 170.328 215.05 169.752 215.254C169.176 215.446 168.582 215.542 167.97 215.542C167.274 215.542 166.644 215.428 166.08 215.2C165.516 214.96 165.03 214.636 164.622 214.228C164.226 213.808 163.92 213.322 163.704 212.77C163.488 212.218 163.38 211.618 163.38 210.97C163.38 210.322 163.488 209.722 163.704 209.17C163.92 208.606 164.214 208.12 164.586 207.712C164.97 207.304 165.426 206.986 165.954 206.758C166.482 206.518 167.064 206.398 167.7 206.398C168.312 206.398 168.87 206.518 169.374 206.758C169.878 206.986 170.31 207.304 170.67 207.712C171.042 208.12 171.324 208.6 171.516 209.152C171.72 209.692 171.822 210.274 171.822 210.898C171.822 210.994 171.816 211.078 171.804 211.15C171.804 211.21 171.804 211.264 171.804 211.312C171.792 211.36 171.786 211.408 171.786 211.456H164.928C164.964 211.816 165.06 212.164 165.216 212.5C165.384 212.824 165.6 213.106 165.864 213.346C166.14 213.586 166.464 213.778 166.836 213.922C167.208 214.066 167.622 214.138 168.078 214.138C169.194 214.138 170.286 213.676 171.354 212.752V214.426ZM170.256 210.178C170.22 209.83 170.13 209.512 169.986 209.224C169.854 208.924 169.674 208.666 169.446 208.45C169.23 208.234 168.966 208.066 168.654 207.946C168.354 207.814 168.024 207.748 167.664 207.748C167.304 207.748 166.962 207.82 166.638 207.964C166.326 208.108 166.05 208.294 165.81 208.522C165.57 208.75 165.372 209.008 165.216 209.296C165.072 209.584 164.988 209.878 164.964 210.178H170.256ZM178.964 209.566C178.964 209.014 178.778 208.582 178.406 208.27C178.046 207.958 177.542 207.802 176.894 207.802C176.294 207.802 175.76 207.916 175.292 208.144C174.836 208.372 174.38 208.696 173.924 209.116V207.496C174.32 207.172 174.758 206.908 175.238 206.704C175.73 206.5 176.294 206.398 176.93 206.398C178.058 206.398 178.928 206.692 179.54 207.28C180.164 207.856 180.476 208.654 180.476 209.674V215.344H179.018V214.192C178.67 214.636 178.244 214.972 177.74 215.2C177.236 215.428 176.696 215.542 176.12 215.542C175.736 215.542 175.382 215.476 175.058 215.344C174.734 215.224 174.452 215.056 174.212 214.84C173.984 214.612 173.804 214.348 173.672 214.048C173.54 213.736 173.474 213.4 173.474 213.04C173.474 211.48 174.446 210.538 176.39 210.214L178.964 209.782V209.566ZM175.022 212.95C175.022 213.322 175.148 213.622 175.4 213.85C175.664 214.066 176 214.174 176.408 214.174C176.78 214.174 177.122 214.12 177.434 214.012C177.758 213.892 178.034 213.73 178.262 213.526C178.49 213.31 178.664 213.064 178.784 212.788C178.916 212.5 178.982 212.188 178.982 211.852V211.114L176.642 211.528C176.114 211.624 175.712 211.792 175.436 212.032C175.16 212.26 175.022 212.566 175.022 212.95ZM182.558 212.932C182.954 213.292 183.398 213.586 183.89 213.814C184.382 214.042 184.898 214.156 185.438 214.156C185.654 214.156 185.864 214.138 186.068 214.102C186.272 214.054 186.452 213.982 186.608 213.886C186.764 213.79 186.89 213.67 186.986 213.526C187.082 213.37 187.13 213.178 187.13 212.95C187.13 212.722 187.076 212.53 186.968 212.374C186.872 212.218 186.734 212.086 186.554 211.978C186.386 211.87 186.182 211.78 185.942 211.708C185.714 211.636 185.462 211.57 185.186 211.51C184.874 211.438 184.556 211.354 184.232 211.258C183.92 211.15 183.638 211.006 183.386 210.826C183.134 210.634 182.93 210.394 182.774 210.106C182.618 209.818 182.54 209.464 182.54 209.044C182.54 208.6 182.624 208.216 182.792 207.892C182.972 207.556 183.2 207.28 183.476 207.064C183.764 206.836 184.088 206.668 184.448 206.56C184.82 206.452 185.204 206.398 185.6 206.398C186.068 206.398 186.53 206.47 186.986 206.614C187.442 206.746 187.862 206.944 188.246 207.208V208.846C187.862 208.534 187.448 208.276 187.004 208.072C186.56 207.868 186.104 207.766 185.636 207.766C185.456 207.766 185.27 207.784 185.078 207.82C184.886 207.856 184.712 207.922 184.556 208.018C184.412 208.102 184.292 208.216 184.196 208.36C184.1 208.492 184.052 208.66 184.052 208.864C184.052 209.26 184.22 209.56 184.556 209.764C184.892 209.956 185.312 210.118 185.816 210.25C186.224 210.346 186.602 210.46 186.95 210.592C187.298 210.724 187.598 210.892 187.85 211.096C188.102 211.288 188.3 211.528 188.444 211.816C188.588 212.092 188.66 212.428 188.66 212.824C188.66 213.268 188.57 213.664 188.39 214.012C188.222 214.348 187.988 214.63 187.688 214.858C187.4 215.086 187.058 215.254 186.662 215.362C186.266 215.482 185.852 215.542 185.42 215.542C184.94 215.542 184.448 215.47 183.944 215.326C183.44 215.182 182.978 214.954 182.558 214.642V212.932ZM198.231 214.426C197.739 214.774 197.205 215.05 196.629 215.254C196.053 215.446 195.459 215.542 194.847 215.542C194.151 215.542 193.521 215.428 192.957 215.2C192.393 214.96 191.907 214.636 191.499 214.228C191.103 213.808 190.797 213.322 190.581 212.77C190.365 212.218 190.257 211.618 190.257 210.97C190.257 210.322 190.365 209.722 190.581 209.17C190.797 208.606 191.091 208.12 191.463 207.712C191.847 207.304 192.303 206.986 192.831 206.758C193.359 206.518 193.941 206.398 194.577 206.398C195.189 206.398 195.747 206.518 196.251 206.758C196.755 206.986 197.187 207.304 197.547 207.712C197.919 208.12 198.201 208.6 198.393 209.152C198.597 209.692 198.699 210.274 198.699 210.898C198.699 210.994 198.693 211.078 198.681 211.15C198.681 211.21 198.681 211.264 198.681 211.312C198.669 211.36 198.663 211.408 198.663 211.456H191.805C191.841 211.816 191.937 212.164 192.093 212.5C192.261 212.824 192.477 213.106 192.741 213.346C193.017 213.586 193.341 213.778 193.713 213.922C194.085 214.066 194.499 214.138 194.955 214.138C196.071 214.138 197.163 213.676 198.231 212.752V214.426ZM197.133 210.178C197.097 209.83 197.007 209.512 196.863 209.224C196.731 208.924 196.551 208.666 196.323 208.45C196.107 208.234 195.843 208.066 195.531 207.946C195.231 207.814 194.901 207.748 194.541 207.748C194.181 207.748 193.839 207.82 193.515 207.964C193.203 208.108 192.927 208.294 192.687 208.522C192.447 208.75 192.249 209.008 192.093 209.296C191.949 209.584 191.865 209.878 191.841 210.178H197.133ZM204.186 202.744H213.15V204.22H209.478V215.344H207.858V204.22H204.186V202.744ZM220.854 214.426C220.362 214.774 219.828 215.05 219.252 215.254C218.676 215.446 218.082 215.542 217.47 215.542C216.774 215.542 216.144 215.428 215.58 215.2C215.016 214.96 214.53 214.636 214.122 214.228C213.726 213.808 213.42 213.322 213.204 212.77C212.988 212.218 212.88 211.618 212.88 210.97C212.88 210.322 212.988 209.722 213.204 209.17C213.42 208.606 213.714 208.12 214.086 207.712C214.47 207.304 214.926 206.986 215.454 206.758C215.982 206.518 216.564 206.398 217.2 206.398C217.812 206.398 218.37 206.518 218.874 206.758C219.378 206.986 219.81 207.304 220.17 207.712C220.542 208.12 220.824 208.6 221.016 209.152C221.22 209.692 221.322 210.274 221.322 210.898C221.322 210.994 221.316 211.078 221.304 211.15C221.304 211.21 221.304 211.264 221.304 211.312C221.292 211.36 221.286 211.408 221.286 211.456H214.428C214.464 211.816 214.56 212.164 214.716 212.5C214.884 212.824 215.1 213.106 215.364 213.346C215.64 213.586 215.964 213.778 216.336 213.922C216.708 214.066 217.122 214.138 217.578 214.138C218.694 214.138 219.786 213.676 220.854 212.752V214.426ZM219.756 210.178C219.72 209.83 219.63 209.512 219.486 209.224C219.354 208.924 219.174 208.666 218.946 208.45C218.73 208.234 218.466 208.066 218.154 207.946C217.854 207.814 217.524 207.748 217.164 207.748C216.804 207.748 216.462 207.82 216.138 207.964C215.826 208.108 215.55 208.294 215.31 208.522C215.07 208.75 214.872 209.008 214.716 209.296C214.572 209.584 214.488 209.878 214.464 210.178H219.756ZM222.971 212.932C223.367 213.292 223.811 213.586 224.303 213.814C224.795 214.042 225.311 214.156 225.851 214.156C226.067 214.156 226.277 214.138 226.481 214.102C226.685 214.054 226.865 213.982 227.021 213.886C227.177 213.79 227.303 213.67 227.399 213.526C227.495 213.37 227.543 213.178 227.543 212.95C227.543 212.722 227.489 212.53 227.381 212.374C227.285 212.218 227.147 212.086 226.967 211.978C226.799 211.87 226.595 211.78 226.355 211.708C226.127 211.636 225.875 211.57 225.599 211.51C225.287 211.438 224.969 211.354 224.645 211.258C224.333 211.15 224.051 211.006 223.799 210.826C223.547 210.634 223.343 210.394 223.187 210.106C223.031 209.818 222.953 209.464 222.953 209.044C222.953 208.6 223.037 208.216 223.205 207.892C223.385 207.556 223.613 207.28 223.889 207.064C224.177 206.836 224.501 206.668 224.861 206.56C225.233 206.452 225.617 206.398 226.013 206.398C226.481 206.398 226.943 206.47 227.399 206.614C227.855 206.746 228.275 206.944 228.659 207.208V208.846C228.275 208.534 227.861 208.276 227.417 208.072C226.973 207.868 226.517 207.766 226.049 207.766C225.869 207.766 225.683 207.784 225.491 207.82C225.299 207.856 225.125 207.922 224.969 208.018C224.825 208.102 224.705 208.216 224.609 208.36C224.513 208.492 224.465 208.66 224.465 208.864C224.465 209.26 224.633 209.56 224.969 209.764C225.305 209.956 225.725 210.118 226.229 210.25C226.637 210.346 227.015 210.46 227.363 210.592C227.711 210.724 228.011 210.892 228.263 211.096C228.515 211.288 228.713 211.528 228.857 211.816C229.001 212.092 229.073 212.428 229.073 212.824C229.073 213.268 228.983 213.664 228.803 214.012C228.635 214.348 228.401 214.63 228.101 214.858C227.813 215.086 227.471 215.254 227.075 215.362C226.679 215.482 226.265 215.542 225.833 215.542C225.353 215.542 224.861 215.47 224.357 215.326C223.853 215.182 223.391 214.954 222.971 214.642V212.932ZM232.994 204.544H233.048V206.596H235.496V207.982H233.048V212.608C233.048 213.124 233.162 213.502 233.39 213.742C233.63 213.982 234.002 214.102 234.506 214.102C234.674 214.102 234.848 214.084 235.028 214.048C235.208 214 235.364 213.928 235.496 213.832V215.272C235.34 215.356 235.148 215.422 234.92 215.47C234.704 215.518 234.446 215.542 234.146 215.542C233.318 215.542 232.67 215.302 232.202 214.822C231.734 214.342 231.5 213.676 231.5 212.824V207.982H229.988V207.784L232.994 204.544ZM241.465 209.044C241.465 208.132 241.627 207.28 241.951 206.488C242.287 205.696 242.743 205.006 243.319 204.418C243.907 203.83 244.591 203.368 245.371 203.032C246.163 202.696 247.009 202.528 247.909 202.528C249.229 202.528 250.459 202.906 251.599 203.662V205.444C250.387 204.532 249.145 204.076 247.873 204.076C247.201 204.076 246.577 204.208 246.001 204.472C245.425 204.724 244.921 205.072 244.489 205.516C244.069 205.96 243.733 206.488 243.481 207.1C243.241 207.7 243.121 208.348 243.121 209.044C243.121 209.728 243.241 210.376 243.481 210.988C243.733 211.588 244.069 212.11 244.489 212.554C244.921 212.998 245.425 213.352 246.001 213.616C246.577 213.868 247.201 213.994 247.873 213.994C249.145 213.994 250.399 213.55 251.635 212.662V214.444C250.459 215.176 249.211 215.542 247.891 215.542C246.991 215.542 246.151 215.374 245.371 215.038C244.591 214.702 243.907 214.246 243.319 213.67C242.743 213.082 242.287 212.392 241.951 211.6C241.627 210.808 241.465 209.956 241.465 209.044ZM257.899 206.398C258.559 206.398 259.165 206.518 259.717 206.758C260.281 206.998 260.767 207.328 261.175 207.748C261.583 208.156 261.901 208.636 262.129 209.188C262.357 209.74 262.471 210.334 262.471 210.97C262.471 211.606 262.357 212.2 262.129 212.752C261.901 213.304 261.583 213.79 261.175 214.21C260.767 214.618 260.281 214.942 259.717 215.182C259.165 215.422 258.559 215.542 257.899 215.542C257.239 215.542 256.627 215.422 256.063 215.182C255.511 214.942 255.031 214.618 254.623 214.21C254.215 213.79 253.897 213.304 253.669 212.752C253.441 212.2 253.327 211.606 253.327 210.97C253.327 210.334 253.441 209.74 253.669 209.188C253.897 208.636 254.215 208.156 254.623 207.748C255.031 207.328 255.511 206.998 256.063 206.758C256.627 206.518 257.239 206.398 257.899 206.398ZM257.899 207.82C257.467 207.82 257.065 207.904 256.693 208.072C256.333 208.228 256.015 208.45 255.739 208.738C255.475 209.026 255.265 209.362 255.109 209.746C254.965 210.13 254.893 210.538 254.893 210.97C254.893 211.402 254.965 211.81 255.109 212.194C255.265 212.578 255.475 212.914 255.739 213.202C256.015 213.49 256.333 213.718 256.693 213.886C257.065 214.042 257.467 214.12 257.899 214.12C258.331 214.12 258.727 214.042 259.087 213.886C259.459 213.718 259.777 213.49 260.041 213.202C260.317 212.914 260.527 212.578 260.671 212.194C260.827 211.81 260.905 211.402 260.905 210.97C260.905 210.538 260.827 210.13 260.671 209.746C260.527 209.362 260.317 209.026 260.041 208.738C259.777 208.45 259.459 208.228 259.087 208.072C258.727 207.904 258.331 207.82 257.899 207.82ZM266.989 215.344L263.335 206.596H264.991L267.637 213.22L270.283 206.596H271.903L268.249 215.344H266.989ZM280.743 214.426C280.251 214.774 279.717 215.05 279.141 215.254C278.565 215.446 277.971 215.542 277.359 215.542C276.663 215.542 276.033 215.428 275.469 215.2C274.905 214.96 274.419 214.636 274.011 214.228C273.615 213.808 273.309 213.322 273.093 212.77C272.877 212.218 272.769 211.618 272.769 210.97C272.769 210.322 272.877 209.722 273.093 209.17C273.309 208.606 273.603 208.12 273.975 207.712C274.359 207.304 274.815 206.986 275.343 206.758C275.871 206.518 276.453 206.398 277.089 206.398C277.701 206.398 278.259 206.518 278.763 206.758C279.267 206.986 279.699 207.304 280.059 207.712C280.431 208.12 280.713 208.6 280.905 209.152C281.109 209.692 281.211 210.274 281.211 210.898C281.211 210.994 281.205 211.078 281.193 211.15C281.193 211.21 281.193 211.264 281.193 211.312C281.181 211.36 281.175 211.408 281.175 211.456H274.317C274.353 211.816 274.449 212.164 274.605 212.5C274.773 212.824 274.989 213.106 275.253 213.346C275.529 213.586 275.853 213.778 276.225 213.922C276.597 214.066 277.011 214.138 277.467 214.138C278.583 214.138 279.675 213.676 280.743 212.752V214.426ZM279.645 210.178C279.609 209.83 279.519 209.512 279.375 209.224C279.243 208.924 279.063 208.666 278.835 208.45C278.619 208.234 278.355 208.066 278.043 207.946C277.743 207.814 277.413 207.748 277.053 207.748C276.693 207.748 276.351 207.82 276.027 207.964C275.715 208.108 275.439 208.294 275.199 208.522C274.959 208.75 274.761 209.008 274.605 209.296C274.461 209.584 274.377 209.878 274.353 210.178H279.645ZM287.937 208.036C287.913 208.036 287.877 208.03 287.829 208.018C287.793 208.018 287.745 208.018 287.685 208.018C287.625 208.006 287.565 208 287.505 208C286.689 208 286.047 208.294 285.579 208.882C285.123 209.47 284.895 210.238 284.895 211.186V215.344H283.365V206.596H284.877V208.144C284.973 207.892 285.111 207.664 285.291 207.46C285.483 207.244 285.699 207.064 285.939 206.92C286.179 206.776 286.437 206.662 286.713 206.578C286.989 206.494 287.271 206.452 287.559 206.452C287.619 206.452 287.667 206.458 287.703 206.47C287.751 206.47 287.793 206.47 287.829 206.47C287.877 206.482 287.913 206.488 287.937 206.488V208.036ZM294.892 209.566C294.892 209.014 294.706 208.582 294.334 208.27C293.974 207.958 293.47 207.802 292.822 207.802C292.222 207.802 291.688 207.916 291.22 208.144C290.764 208.372 290.308 208.696 289.852 209.116V207.496C290.248 207.172 290.686 206.908 291.166 206.704C291.658 206.5 292.222 206.398 292.858 206.398C293.986 206.398 294.856 206.692 295.468 207.28C296.092 207.856 296.404 208.654 296.404 209.674V215.344H294.946V214.192C294.598 214.636 294.172 214.972 293.668 215.2C293.164 215.428 292.624 215.542 292.048 215.542C291.664 215.542 291.31 215.476 290.986 215.344C290.662 215.224 290.38 215.056 290.14 214.84C289.912 214.612 289.732 214.348 289.6 214.048C289.468 213.736 289.402 213.4 289.402 213.04C289.402 211.48 290.374 210.538 292.318 210.214L294.892 209.782V209.566ZM290.95 212.95C290.95 213.322 291.076 213.622 291.328 213.85C291.592 214.066 291.928 214.174 292.336 214.174C292.708 214.174 293.05 214.12 293.362 214.012C293.686 213.892 293.962 213.73 294.19 213.526C294.418 213.31 294.592 213.064 294.712 212.788C294.844 212.5 294.91 212.188 294.91 211.852V211.114L292.57 211.528C292.042 211.624 291.64 211.792 291.364 212.032C291.088 212.26 290.95 212.566 290.95 212.95ZM298.791 209.62C298.791 209.14 298.881 208.702 299.061 208.306C299.241 207.91 299.487 207.574 299.799 207.298C300.111 207.01 300.471 206.788 300.879 206.632C301.287 206.476 301.719 206.398 302.175 206.398C302.571 206.398 302.967 206.464 303.363 206.596H306.369V207.928H305.073C305.229 208.168 305.349 208.432 305.433 208.72C305.517 209.008 305.559 209.308 305.559 209.62C305.559 210.1 305.469 210.538 305.289 210.934C305.109 211.33 304.863 211.666 304.551 211.942C304.239 212.218 303.879 212.434 303.471 212.59C303.063 212.746 302.631 212.824 302.175 212.824C301.647 212.824 301.143 212.722 300.663 212.518C300.363 212.614 300.159 212.74 300.051 212.896C299.943 213.04 299.889 213.196 299.889 213.364C299.889 213.628 299.997 213.814 300.213 213.922C300.429 214.03 300.711 214.084 301.059 214.084H303.489C304.425 214.084 305.169 214.276 305.721 214.66C306.273 215.044 306.549 215.596 306.549 216.316C306.549 216.82 306.423 217.258 306.171 217.63C305.919 218.014 305.583 218.326 305.163 218.566C304.755 218.818 304.275 219.004 303.723 219.124C303.183 219.244 302.619 219.304 302.031 219.304C301.467 219.304 300.945 219.256 300.465 219.16C299.997 219.064 299.589 218.914 299.241 218.71C298.893 218.518 298.617 218.266 298.413 217.954C298.221 217.642 298.125 217.27 298.125 216.838C298.125 216.418 298.239 216.046 298.467 215.722C298.707 215.41 298.965 215.164 299.241 214.984C299.001 214.816 298.821 214.612 298.701 214.372C298.593 214.12 298.539 213.856 298.539 213.58C298.539 213.34 298.569 213.13 298.629 212.95C298.701 212.758 298.791 212.596 298.899 212.464C299.007 212.32 299.127 212.2 299.259 212.104C299.391 211.996 299.523 211.9 299.655 211.816C299.379 211.54 299.163 211.222 299.007 210.862C298.863 210.49 298.791 210.076 298.791 209.62ZM305.109 216.46C305.109 216.076 304.941 215.812 304.605 215.668C304.281 215.524 303.789 215.452 303.129 215.452H300.969C300.861 215.452 300.759 215.446 300.663 215.434C300.579 215.434 300.489 215.428 300.393 215.416C299.829 215.716 299.547 216.13 299.547 216.658C299.547 216.91 299.613 217.126 299.745 217.306C299.877 217.486 300.057 217.63 300.285 217.738C300.513 217.858 300.777 217.942 301.077 217.99C301.389 218.05 301.719 218.08 302.067 218.08C302.511 218.08 302.919 218.044 303.291 217.972C303.663 217.9 303.981 217.792 304.245 217.648C304.521 217.516 304.731 217.348 304.875 217.144C305.031 216.952 305.109 216.724 305.109 216.46ZM300.213 209.62C300.213 210.196 300.399 210.664 300.771 211.024C301.155 211.372 301.623 211.546 302.175 211.546C302.727 211.546 303.189 211.372 303.561 211.024C303.945 210.664 304.137 210.196 304.137 209.62C304.137 209.056 303.945 208.594 303.561 208.234C303.189 207.874 302.727 207.694 302.175 207.694C301.623 207.694 301.155 207.874 300.771 208.234C300.399 208.594 300.213 209.056 300.213 209.62ZM315.512 214.426C315.02 214.774 314.486 215.05 313.91 215.254C313.334 215.446 312.74 215.542 312.128 215.542C311.432 215.542 310.802 215.428 310.238 215.2C309.674 214.96 309.188 214.636 308.78 214.228C308.384 213.808 308.078 213.322 307.862 212.77C307.646 212.218 307.538 211.618 307.538 210.97C307.538 210.322 307.646 209.722 307.862 209.17C308.078 208.606 308.372 208.12 308.744 207.712C309.128 207.304 309.584 206.986 310.112 206.758C310.64 206.518 311.222 206.398 311.858 206.398C312.47 206.398 313.028 206.518 313.532 206.758C314.036 206.986 314.468 207.304 314.828 207.712C315.2 208.12 315.482 208.6 315.674 209.152C315.878 209.692 315.98 210.274 315.98 210.898C315.98 210.994 315.974 211.078 315.962 211.15C315.962 211.21 315.962 211.264 315.962 211.312C315.95 211.36 315.944 211.408 315.944 211.456H309.086C309.122 211.816 309.218 212.164 309.374 212.5C309.542 212.824 309.758 213.106 310.022 213.346C310.298 213.586 310.622 213.778 310.994 213.922C311.366 214.066 311.78 214.138 312.236 214.138C313.352 214.138 314.444 213.676 315.512 212.752V214.426ZM314.414 210.178C314.378 209.83 314.288 209.512 314.144 209.224C314.012 208.924 313.832 208.666 313.604 208.45C313.388 208.234 313.124 208.066 312.812 207.946C312.512 207.814 312.182 207.748 311.822 207.748C311.462 207.748 311.12 207.82 310.796 207.964C310.484 208.108 310.208 208.294 309.968 208.522C309.728 208.75 309.53 209.008 309.374 209.296C309.23 209.584 309.146 209.878 309.122 210.178H314.414Z" fill="#D9D9E0"/>
</g>
<rect x="1" y="0.84375" width="447" height="245" rx="15.5" stroke="url(#paint5_radial_7630_18216)"/>
<rect x="1" y="0.84375" width="447" height="245" rx="15.5" stroke="url(#paint6_radial_7630_18216)"/>
<rect x="1" y="0.84375" width="447" height="245" rx="15.5" stroke="url(#paint7_radial_7630_18216)"/>
<rect x="1" y="0.84375" width="447" height="245" rx="15.5" stroke="url(#paint8_radial_7630_18216)"/>
<rect x="1" y="0.84375" width="447" height="245" rx="15.5" stroke="url(#paint9_radial_7630_18216)" stroke-opacity="0.5"/>
<rect x="1" y="0.84375" width="447" height="245" rx="15.5" stroke="url(#paint10_radial_7630_18216)" stroke-opacity="0.5"/>
</g>
<defs>
<filter id="filter0_b_7630_18216" x="-26" y="-26.1562" width="501" height="299" filterUnits="userSpaceOnUse" color-interpolation-filters="sRGB">
<feFlood flood-opacity="0" result="BackgroundImageFix"/>
<feGaussianBlur in="BackgroundImageFix" stdDeviation="13.25"/>
<feComposite in2="SourceAlpha" operator="in" result="effect1_backgroundBlur_7630_18216"/>
<feBlend mode="normal" in="SourceGraphic" in2="effect1_backgroundBlur_7630_18216" result="shape"/>
</filter>
<radialGradient id="paint0_radial_7630_18216" cx="0" cy="0" r="1" gradientUnits="userSpaceOnUse" gradientTransform="translate(239.306 60.9765) rotate(-178.845) scale(229.775 14.7386)">
<stop stop-color="#6348FE"/>
<stop offset="1" stop-color="#6348FE" stop-opacity="0"/>
</radialGradient>
<radialGradient id="paint1_radial_7630_18216" cx="0" cy="0" r="1" gradientUnits="userSpaceOnUse" gradientTransform="translate(448.5 6.55465) rotate(161.344) scale(161.059 32.2587)">
<stop stop-color="#6348FE"/>
<stop offset="1" stop-color="#6348FE" stop-opacity="0"/>
</radialGradient>
<radialGradient id="paint2_radial_7630_18216" cx="0" cy="0" r="1" gradientUnits="userSpaceOnUse" gradientTransform="translate(0.500002 2.07466) rotate(9.663) scale(111.916 44.924)">
<stop stop-color="#6447FF"/>
<stop offset="1" stop-color="#6447FF" stop-opacity="0"/>
</radialGradient>
<radialGradient id="paint3_radial_7630_18216" cx="0" cy="0" r="1" gradientUnits="userSpaceOnUse" gradientTransform="translate(0.5 0.34375) scale(108.45 21.9598)">
<stop stop-color="white" stop-opacity="0.81"/>
<stop offset="1" stop-color="white" stop-opacity="0.19"/>
</radialGradient>
<radialGradient id="paint4_radial_7630_18216" cx="0" cy="0" r="1" gradientUnits="userSpaceOnUse" gradientTransform="translate(448.633 0.34375) rotate(90) scale(22.456 94.9516)">
<stop stop-opacity="0.5"/>
<stop offset="1" stop-opacity="0"/>
</radialGradient>
<radialGradient id="paint5_radial_7630_18216" cx="0" cy="0" r="1" gradientUnits="userSpaceOnUse" gradientTransform="translate(239.306 266.695) rotate(-174.938) scale(230.628 64.5049)">
<stop stop-color="#6348FE"/>
<stop offset="1" stop-color="#6348FE" stop-opacity="0"/>
</radialGradient>
<radialGradient id="paint6_radial_7630_18216" cx="0" cy="0" r="1" gradientUnits="userSpaceOnUse" gradientTransform="translate(448.5 27.6274) rotate(123.99) scale(272.959 83.6148)">
<stop stop-color="#6348FE"/>
<stop offset="1" stop-color="#6348FE" stop-opacity="0"/>
</radialGradient>
<radialGradient id="paint7_radial_7630_18216" cx="0" cy="0" r="1" gradientUnits="userSpaceOnUse" gradientTransform="translate(0.500002 7.94739) rotate(36.7952) scale(137.776 160.304)">
<stop stop-color="#6447FF"/>
<stop offset="1" stop-color="#6447FF" stop-opacity="0"/>
</radialGradient>
<radialGradient id="paint8_radial_7630_18216" cx="0" cy="0" r="1" gradientUnits="userSpaceOnUse" gradientTransform="translate(0.5 0.34375) scale(108.45 96.4664)">
<stop stop-color="white" stop-opacity="0.81"/>
<stop offset="1" stop-color="white" stop-opacity="0.19"/>
</radialGradient>
<radialGradient id="paint9_radial_7630_18216" cx="0" cy="0" r="1" gradientUnits="userSpaceOnUse" gradientTransform="translate(448.633 0.343751) rotate(90) scale(98.646 94.9516)">
<stop stop-opacity="0.5"/>
<stop offset="1" stop-opacity="0"/>
</radialGradient>
<radialGradient id="paint10_radial_7630_18216" cx="0" cy="0" r="1" gradientUnits="userSpaceOnUse" gradientTransform="translate(0.499995 212.519) rotate(68.2851) scale(109.226 192.819)">
<stop stop-opacity="0.5"/>
<stop offset="1" stop-opacity="0"/>
</radialGradient>
<clipPath id="clip0_7630_18216">
<rect x="0.5" y="0.34375" width="448" height="246" rx="16" fill="white"/>
</clipPath>
</defs>
</svg>
