<svg width="48" height="48" viewBox="0 0 48 48" fill="none" xmlns="http://www.w3.org/2000/svg">
<path fill-rule="evenodd" clip-rule="evenodd" d="M24.0075 0.219727C10.8227 0.219727 0.164062 10.9569 0.164062 24.2403C0.164062 34.8584 6.9934 43.8464 16.4675 47.0275C17.652 47.2667 18.0859 46.5107 18.0859 45.8748C18.0859 45.3179 18.0469 43.4091 18.0469 41.4203C11.4142 42.8522 10.033 38.5569 10.033 38.5569C8.9671 35.773 7.38775 35.0575 7.38775 35.0575C5.21689 33.586 7.54588 33.586 7.54588 33.586C9.95394 33.7451 11.2175 36.0517 11.2175 36.0517C13.3488 39.7101 16.7833 38.6764 18.165 38.04C18.3621 36.489 18.9942 35.4153 19.6652 34.8189C14.3752 34.262 8.80945 32.1941 8.80945 22.9674C8.80945 20.3427 9.75628 18.1953 11.2566 16.5251C11.0199 15.9287 10.1906 13.4626 11.4938 10.1619C11.4938 10.1619 13.507 9.52546 18.0464 12.6275C19.9898 12.1017 21.9941 11.8343 24.0075 11.832C26.0207 11.832 28.073 12.1107 29.9681 12.6275C34.5079 9.52546 36.5212 10.1619 36.5212 10.1619C37.8243 13.4626 36.9946 15.9287 36.7579 16.5251C38.2977 18.1953 39.2055 20.3427 39.2055 22.9674C39.2055 32.1941 33.6397 34.222 28.3101 34.8189C29.1789 35.5744 29.9285 37.0058 29.9285 39.2728C29.9285 42.494 29.8895 45.0792 29.8895 45.8743C29.8895 46.5107 30.3239 47.2667 31.5079 47.028C40.982 43.8459 47.8113 34.8584 47.8113 24.2403C47.8504 10.9569 37.1527 0.219727 24.0075 0.219727Z" fill="white"/>
</svg>
