<?xml version="1.0" encoding="UTF-8"?>
<svg xmlns="http://www.w3.org/2000/svg" width="32" height="32" viewBox="0 0 32 32" fill="none">
  <g clip-path="url(#clip0_1416_6034)">
    <path d="M8.09961 24.9492L0.349609 18.8492L4.19961 11.6992L15.2496 15.9992L8.09961 24.9492Z" fill="url(#paint0_linear_1416_6034)"></path>
    <path d="M32.0002 8.55L31.4002 27.05L19.1002 32L11.7002 27.2L22.5002 16L17.8002 5.6L22.0502 0.5L32.0002 8.55Z" fill="url(#paint1_linear_1416_6034)"></path>
    <path d="M31.9998 8.55L22.2498 20.05L17.7998 5.6L22.0498 0.5L31.9998 8.55Z" fill="url(#paint2_linear_1416_6034)"></path>
    <path d="M15.4 26.55L2.6 31.2L4.65 24L7.3 15.1L0 12.65L4.65 0L14.65 1.2L24.55 12.5L15.4 26.55Z" fill="url(#paint3_linear_1416_6034)"></path>
    <path d="M6 6H26V26H6V6Z" fill="black"></path>
    <path d="M7.90039 22.25H15.4004V23.5H7.90039V22.25ZM13.2504 10.1V8.6H9.15039V10.1H10.3004V15.35H9.15039V16.9H13.2504V15.35H12.1004V10.1H13.2504ZM17.2504 17C16.6796 17.0257 16.1116 16.9053 15.6004 16.65C15.1821 16.4193 14.8094 16.1143 14.5004 15.75L15.6504 14.45C15.858 14.6781 16.0932 14.8797 16.3504 15.05C16.5924 15.1919 16.8701 15.2613 17.1504 15.25C17.3022 15.2616 17.4545 15.2358 17.594 15.1747C17.7335 15.1137 17.8559 15.0194 17.9504 14.9C18.182 14.6017 18.2894 14.2256 18.2504 13.85V8.5H20.1004V13.9C20.1194 14.3422 20.0514 14.7839 19.9004 15.2C19.7685 15.6221 19.5269 16.0017 19.2004 16.3C18.6337 16.7207 17.9552 16.9643 17.2504 17Z" fill="white"></path>
  </g>
  <defs>
    <linearGradient id="paint0_linear_1416_6034" x1="0.349609" y1="674.199" x2="1487.35" y2="674.199" gradientUnits="userSpaceOnUse">
      <stop offset="0.26" stop-color="#F97A12"></stop>
      <stop offset="0.46" stop-color="#B07B58"></stop>
      <stop offset="0.72" stop-color="#577BAE"></stop>
      <stop offset="0.91" stop-color="#1E7CE5"></stop>
      <stop offset="1" stop-color="#087CFA"></stop>
    </linearGradient>
    <linearGradient id="paint1_linear_1416_6034" x1="18.7037" y1="1088.51" x2="2644.84" y2="1691.86" gradientUnits="userSpaceOnUse">
      <stop stop-color="#F97A12"></stop>
      <stop offset="0.07" stop-color="#CB7A3E"></stop>
      <stop offset="0.15" stop-color="#9E7B6A"></stop>
      <stop offset="0.24" stop-color="#757B91"></stop>
      <stop offset="0.33" stop-color="#537BB1"></stop>
      <stop offset="0.43" stop-color="#387CCC"></stop>
      <stop offset="0.54" stop-color="#237CE0"></stop>
      <stop offset="0.66" stop-color="#147CEF"></stop>
      <stop offset="0.79" stop-color="#0B7CF7"></stop>
      <stop offset="1" stop-color="#087CFA"></stop>
    </linearGradient>
    <linearGradient id="paint2_linear_1416_6034" x1="1127.8" y1="1911.49" x2="9.37139" y2="147.377" gradientUnits="userSpaceOnUse">
      <stop stop-color="#FE315D"></stop>
      <stop offset="0.08" stop-color="#CB417E"></stop>
      <stop offset="0.16" stop-color="#9E4E9B"></stop>
      <stop offset="0.25" stop-color="#755BB4"></stop>
      <stop offset="0.34" stop-color="#5365CA"></stop>
      <stop offset="0.44" stop-color="#386DDB"></stop>
      <stop offset="0.54" stop-color="#2374E9"></stop>
      <stop offset="0.66" stop-color="#1478F3"></stop>
      <stop offset="0.79" stop-color="#0B7BF8"></stop>
      <stop offset="1" stop-color="#087CFA"></stop>
    </linearGradient>
    <linearGradient id="paint3_linear_1416_6034" x1="491" y1="751.514" x2="3183.99" y2="3509.78" gradientUnits="userSpaceOnUse">
      <stop stop-color="#FE315D"></stop>
      <stop offset="0.04" stop-color="#F63462"></stop>
      <stop offset="0.1" stop-color="#DF3A71"></stop>
      <stop offset="0.17" stop-color="#C24383"></stop>
      <stop offset="0.29" stop-color="#AD4A91"></stop>
      <stop offset="0.55" stop-color="#755BB4"></stop>
      <stop offset="0.92" stop-color="#1D76ED"></stop>
      <stop offset="1" stop-color="#087CFA"></stop>
    </linearGradient>
    <clipPath id="clip0_1416_6034">
      <rect width="32" height="32" fill="white"></rect>
    </clipPath>
  </defs>
</svg>
