<?xml version="1.0" encoding="UTF-8"?>
<svg xmlns="http://www.w3.org/2000/svg" width="33" height="32" viewBox="0 0 33 32" fill="none">
  <g clip-path="url(#clip0_14725_36843)">
    <mask id="mask0_14725_36843" style="mask-type:luminance" maskUnits="userSpaceOnUse" x="0" y="0" width="33" height="32">
      <path d="M33 0H0V32H33V0Z" fill="white"></path>
    </mask>
    <g mask="url(#mask0_14725_36843)">
      <mask id="mask1_14725_36843" style="mask-type:luminance" maskUnits="userSpaceOnUse" x="0" y="0" width="33" height="32">
        <path d="M32.8515 0H0.851562V32H32.8515V0Z" fill="white"></path>
      </mask>
      <g mask="url(#mask1_14725_36843)">
        <path d="M29.038 12.3789L32.8514 20.8355L26.3247 32.0022L22.3047 22.2422L29.038 12.3789Z" fill="url(#paint0_linear_14725_36843)"></path>
        <path d="M22.3043 22.2383L26.3243 31.9983L16.2109 28.5217L22.3043 22.2383Z" fill="#B74AF7"></path>
        <path d="M23.3949 9.03667L21.3215 0H9.82489L0.851562 13.7267L3.44823 20.0333L0.851562 25.79L19.4349 9.98L23.3949 9.03667Z" fill="url(#paint1_linear_14725_36843)"></path>
        <path d="M32.8515 6.79297L19.4349 9.97963L0.851562 25.7896L12.8382 31.9996L22.3049 22.2396L32.8515 6.79297Z" fill="url(#paint2_linear_14725_36843)"></path>
        <path d="M6.85156 6H26.8515V26H6.85156V6Z" fill="black"></path>
        <path d="M8.72747 22.2524H16.2274V23.5024H8.72747V22.2524ZM8.16409 12.7724V12.7491C8.16028 11.6083 8.61704 10.5142 9.43092 9.71469C10.2447 8.91524 11.3468 8.47813 12.4874 8.50239C13.6747 8.43981 14.8393 8.84554 15.7307 9.63239L14.5874 11.0124C14.0077 10.4581 13.2326 10.155 12.4307 10.1691C11.124 10.1691 10.1023 11.2896 10.0619 12.6521L10.0607 12.7591C10.0607 14.2401 11.0579 15.3331 12.4768 15.3745L12.5607 15.3758C13.1676 15.3936 13.7648 15.2198 14.2674 14.8791V13.6924H12.4407V12.1258H16.0174V15.7058C15.0397 16.5537 13.7882 17.019 12.494 17.0158C9.9308 17.0158 8.16409 15.2124 8.16409 12.7724ZM16.784 12.7724V12.7491C16.788 11.5978 17.2574 10.497 18.0855 9.69715C18.9136 8.8973 20.03 8.46638 21.1807 8.50239C23.6872 8.50239 25.4976 10.3445 25.5496 12.6408L25.5507 12.7658C25.5521 13.9199 25.0856 15.0254 24.2576 15.8295C23.4592 16.6049 22.3905 17.0362 21.2808 17.0344L21.1574 17.0324C18.6107 17.0158 16.784 15.1191 16.784 12.7724ZM23.654 12.7724V12.7491C23.6748 12.0732 23.4211 11.4176 22.9508 10.9316C22.4805 10.4456 21.8336 10.1706 21.1574 10.1691C20.4861 10.1668 19.8429 10.4382 19.3762 10.9207C18.9328 11.379 18.6851 11.9902 18.6824 12.6253L18.684 12.7491C18.6606 13.4276 18.9133 14.0867 19.3846 14.5755C19.8558 15.0643 20.5051 15.341 21.184 15.3424C21.8571 15.3439 22.5016 15.0703 22.968 14.585C23.4344 14.0997 23.6822 13.4449 23.654 12.7724Z" fill="white"></path>
      </g>
    </g>
  </g>
  <defs>
    <linearGradient id="paint0_linear_14725_36843" x1="687.809" y1="597.379" x2="-44.0713" y2="1216.81" gradientUnits="userSpaceOnUse">
      <stop stop-color="#087CFA"></stop>
      <stop offset="0.02" stop-color="#0D7BFA"></stop>
      <stop offset="0.37" stop-color="#5566F9"></stop>
      <stop offset="0.66" stop-color="#8A57F8"></stop>
      <stop offset="0.88" stop-color="#AB4EF7"></stop>
      <stop offset="1" stop-color="#B74AF7"></stop>
    </linearGradient>
    <linearGradient id="paint1_linear_14725_36843" x1="1108.28" y1="992" x2="1789.84" y2="216.539" gradientUnits="userSpaceOnUse">
      <stop stop-color="#087CFA"></stop>
      <stop offset="0.02" stop-color="#0D7BFA"></stop>
      <stop offset="0.37" stop-color="#5566F9"></stop>
      <stop offset="0.66" stop-color="#8A57F8"></stop>
      <stop offset="0.88" stop-color="#AB4EF7"></stop>
      <stop offset="1" stop-color="#B74AF7"></stop>
    </linearGradient>
    <linearGradient id="paint2_linear_14725_36843" x1="445.518" y1="1798.05" x2="2497.83" y2="479.244" gradientUnits="userSpaceOnUse">
      <stop stop-color="#087CFA"></stop>
      <stop offset="0.1" stop-color="#1598D3"></stop>
      <stop offset="0.22" stop-color="#23B6AA"></stop>
      <stop offset="0.35" stop-color="#2DCC8B"></stop>
      <stop offset="0.46" stop-color="#35DD74"></stop>
      <stop offset="0.57" stop-color="#39E767"></stop>
      <stop offset="0.67" stop-color="#3BEA62"></stop>
    </linearGradient>
    <clipPath id="clip0_14725_36843">
      <rect width="33" height="32" fill="white"></rect>
    </clipPath>
  </defs>
</svg>
