<svg width="130" height="32" viewBox="0 0 130 32" fill="none" xmlns="http://www.w3.org/2000/svg">
<path d="M79.2247 24.657H79.1817C79.2032 24.657 79.2032 24.6785 79.2247 24.6785H79.2463L79.2247 24.657ZM79.2247 24.6785C79.0524 24.6785 78.6002 24.7646 78.1265 24.7646C76.6406 24.7646 76.1238 24.0755 76.1238 23.1711V17.1846H79.1601C79.3324 17.1846 79.4616 17.0338 79.4616 16.8185V13.5668C79.4616 13.3945 79.3109 13.2438 79.1601 13.2438H76.1238V9.19537C76.1238 9.04463 76.0161 8.95849 75.8438 8.95849H71.7093C71.537 8.95849 71.4509 9.06616 71.4509 9.19537V13.3515C71.4509 13.3515 69.362 13.8683 69.2328 13.8898C69.0821 13.9329 68.996 14.0621 68.996 14.2128V16.8185C68.996 17.0338 69.1467 17.1846 69.319 17.1846H71.4293V23.4726C71.4293 28.1455 74.681 28.6193 76.899 28.6193C77.9111 28.6193 79.1386 28.2962 79.3324 28.1886C79.4401 28.1455 79.5047 28.0163 79.5047 27.8871V25.023C79.5047 24.8508 79.397 24.7216 79.2247 24.6785ZM124.576 20.4793C124.576 17.0123 123.176 16.5601 121.712 16.7108C120.57 16.7754 119.645 17.3569 119.645 17.3569V24.0971C119.645 24.0971 120.57 24.7431 121.97 24.7862C123.93 24.8292 124.576 24.1186 124.576 20.4793ZM129.227 20.1778C129.227 26.7458 127.095 28.6193 123.391 28.6193C120.247 28.6193 118.568 27.0257 118.568 27.0257C118.568 27.0257 118.503 27.9086 118.396 28.0163C118.331 28.124 118.245 28.167 118.116 28.167H115.295C115.101 28.167 114.929 28.0163 114.929 27.844L114.972 6.58972C114.972 6.41745 115.122 6.26671 115.295 6.26671H119.365C119.537 6.26671 119.688 6.41745 119.688 6.58972V13.8037C119.688 13.8037 121.26 12.7916 123.564 12.7916L123.542 12.7485C125.825 12.7485 129.227 13.6099 129.227 20.1778ZM112.538 13.2653H108.511C108.296 13.2653 108.188 13.4161 108.188 13.6314V24.0325C108.188 24.0325 107.133 24.7646 105.69 24.7646C104.269 24.7646 103.838 24.1186 103.838 22.6758V13.5884C103.838 13.4161 103.688 13.2653 103.515 13.2653H99.4238C99.2516 13.2653 99.1008 13.4161 99.1008 13.5884V23.3864C99.1008 27.5856 101.448 28.6408 104.678 28.6408C107.348 28.6408 109.502 27.1765 109.502 27.1765C109.502 27.1765 109.61 27.9302 109.653 28.0378C109.696 28.124 109.825 28.2101 109.954 28.2101H112.517C112.732 28.2101 112.84 28.0594 112.84 27.8871L112.883 13.5884C112.904 13.4161 112.732 13.2653 112.538 13.2653ZM67.1871 13.2438H63.1171C62.9448 13.2438 62.7941 13.4161 62.7941 13.6314V27.6718C62.7941 28.0594 63.0525 28.1886 63.3755 28.1886H67.0579C67.4455 28.1886 67.5316 28.0163 67.5316 27.6718V13.5668C67.5101 13.3945 67.3594 13.2438 67.1871 13.2438ZM65.1629 6.762C63.6985 6.762 62.5141 7.92485 62.5141 9.41071C62.5141 10.875 63.677 12.0594 65.1629 12.0594C66.6056 12.0594 67.7685 10.8966 67.7685 9.41071C67.7685 7.94638 66.6056 6.762 65.1629 6.762ZM96.7321 6.28825H92.6836C92.5114 6.28825 92.3606 6.43899 92.3606 6.61126V14.4282H86.0295V6.61126C86.0295 6.43899 85.8788 6.28825 85.7065 6.28825H81.6366C81.4643 6.28825 81.3135 6.43899 81.3135 6.61126V27.8656C81.3135 28.0378 81.4858 28.1886 81.6366 28.1886H85.7065C85.8788 28.1886 86.0295 28.0378 86.0295 27.8656V18.7781H92.3606L92.3175 27.8656C92.3175 28.0378 92.4683 28.1886 92.6406 28.1886H96.7105C96.8828 28.1886 97.0335 28.0378 97.0335 27.8656V6.61126C97.0551 6.43899 96.9043 6.28825 96.7321 6.28825ZM60.6191 15.6987V26.6812C60.6191 26.7458 60.5976 26.8965 60.5115 26.9181C60.5115 26.9181 58.1212 28.6193 54.1804 28.6193C49.4213 28.6193 43.7578 27.1334 43.7578 17.2922C43.7578 7.4511 48.6892 5.42688 53.5128 5.44841C57.6905 5.44841 59.3701 6.39591 59.6286 6.56819C59.6932 6.67586 59.7362 6.74047 59.7362 6.8266L58.961 10.2505C58.961 10.4228 58.7887 10.6382 58.5734 10.5736C57.8843 10.3582 56.8506 9.94907 54.4173 9.94907C51.5963 9.94907 48.5815 10.7458 48.5815 17.0984C48.5815 23.4295 51.4455 24.1832 53.5128 24.1832C55.2786 24.1832 55.9031 23.9679 55.9031 23.9679V19.5749H53.0821C52.8668 19.5749 52.7161 19.4241 52.7161 19.2519V15.7202C52.7161 15.548 52.8668 15.3972 53.0821 15.3972H60.253C60.4684 15.3757 60.6191 15.5264 60.6191 15.6987Z" fill="#24292E"/>
<path fill-rule="evenodd" clip-rule="evenodd" d="M16.4091 0C7.34318 0 0 7.34318 0 16.4091C0 23.6661 4.69447 29.8034 11.2193 31.9784C12.0376 32.1076 12.3607 31.6338 12.3607 31.2031C12.3607 30.8155 12.3391 29.5235 12.3391 28.1453C8.22608 28.899 7.14937 27.1332 6.82636 26.2287C6.63255 25.755 5.83578 24.2906 5.14669 23.903C4.56526 23.6015 3.74696 22.8263 5.12515 22.8048C6.41721 22.7832 7.34318 23.9892 7.64466 24.4844C9.13052 26.9609 11.4778 26.2718 12.4253 25.8411C12.576 24.7859 13.0067 24.0538 13.4804 23.6446C9.84115 23.2355 6.00806 21.8142 6.00806 15.5477C6.00806 13.7604 6.65408 12.2745 7.68773 11.1332C7.51545 10.7241 6.95556 9.04438 7.86 6.78329C7.86 6.78329 9.23819 6.35261 12.3822 8.46296C13.6958 8.09688 15.0955 7.90307 16.4737 7.90307C17.8734 7.90307 19.2516 8.09688 20.5652 8.46296C23.7092 6.33107 25.0659 6.78329 25.0659 6.78329C25.9703 9.04438 25.3889 10.7241 25.2381 11.1332C26.2933 12.2745 26.9178 13.7389 26.9178 15.5477C26.9178 21.8357 23.0847 23.2355 19.4239 23.6446C20.0269 24.1614 20.5437 25.1305 20.5437 26.6809C20.5437 28.8774 20.5221 30.6432 20.5221 31.1816C20.5221 31.6123 20.8236 32.1291 21.6419 31.9568C28.3175 29.6957 32.8182 23.4293 32.8182 16.3876C32.8182 7.34318 25.475 0 16.4091 0Z" fill="#24292E"/>
</svg>
