<svg xmlns="http://www.w3.org/2000/svg" width="64" height="63" viewBox="0 0 64 63" fill="none">
  <path fill-rule="evenodd" clip-rule="evenodd" d="M31.9047 0C14.2622 0 0 14.3673 0 32.1417C0 46.3497 9.13828 58.3765 21.8155 62.6331C23.4005 62.9531 23.9811 61.9415 23.9811 61.0906C23.9811 60.3455 23.9288 57.7913 23.9288 55.1301C15.0537 57.0462 13.2056 51.2986 13.2056 51.2986C11.7793 47.5736 9.66596 46.6162 9.66596 46.6162C6.76114 44.6472 9.87755 44.6472 9.87755 44.6472C13.0998 44.8601 14.7905 47.9464 14.7905 47.9464C17.6425 52.8418 22.238 51.4586 24.0869 50.607C24.3507 48.5316 25.1964 47.0949 26.0944 46.2968C19.0158 45.5517 11.5683 42.7847 11.5683 30.4385C11.5683 26.9264 12.8353 24.0529 14.8428 21.8181C14.526 21.0201 13.4165 17.7202 15.1602 13.3035C15.1602 13.3035 17.854 12.4519 23.9282 16.6028C26.5287 15.8992 29.2106 15.5413 31.9047 15.5383C34.5985 15.5383 37.3447 15.9112 39.8805 16.6028C45.9553 12.4519 48.6491 13.3035 48.6491 13.3035C50.3928 17.7202 49.2826 21.0201 48.9659 21.8181C51.0263 24.0529 52.241 26.9264 52.241 30.4385C52.241 42.7847 44.7935 45.4981 37.662 46.2968C38.8245 47.3078 39.8276 49.2232 39.8276 52.2566C39.8276 56.5669 39.7753 60.0261 39.7753 61.09C39.7753 61.9415 40.3566 62.9531 41.9409 62.6338C54.6181 58.3758 63.7564 46.3497 63.7564 32.1417C63.8087 14.3673 49.4942 0 31.9047 0Z" fill="white"/>
</svg>