<?xml version="1.0" encoding="UTF-8"?>
<svg xmlns="http://www.w3.org/2000/svg" width="109" height="90" viewBox="0 0 109 90" fill="none">
  <g clip-path="url(#clip0_4203_24149)">
    <path d="M34.7518 57.4068C34.1354 57.4068 33.5189 57.2526 32.9795 56.9444C32.4402 56.6362 31.9778 56.1739 31.6696 55.6345L17.4145 30.8229C17.1063 30.2835 16.9521 29.667 16.9521 29.0506C16.9521 28.4342 17.1063 27.8177 17.4145 27.2783L31.6696 2.54374C31.9778 2.00436 32.4402 1.54203 32.9795 1.23381C33.5189 0.925594 34.1354 0.771484 34.7518 0.771484H63.3391C63.9556 0.771484 64.572 0.925594 65.1114 1.23381C65.6508 1.54203 66.1131 2.00436 66.4213 2.54374L80.6765 27.2783C80.9847 27.8177 81.1388 28.4342 81.1388 29.0506C81.1388 29.667 80.9847 30.2835 80.6765 30.8229L66.4213 55.5574C66.1131 56.0968 65.6508 56.5592 65.1114 56.8674C64.572 57.1756 63.9556 57.3297 63.3391 57.3297L34.7518 57.4068Z" fill="#2916FC"></path>
    <path d="M63.3392 1.46404C63.8786 1.46404 64.3409 1.61815 64.7262 1.84932C65.1885 2.08048 65.4967 2.46575 65.7279 2.85103L79.983 27.5856C80.2142 28.0479 80.3683 28.5103 80.3683 28.9726C80.3683 29.4349 80.2142 29.9743 79.983 30.3596L65.8049 55.2483C65.5738 55.7106 65.1885 56.0188 64.7262 56.25C64.2638 56.4812 63.8015 56.6353 63.3392 56.6353H34.7518C34.2125 56.6353 33.7501 56.4812 33.3649 56.25C32.9025 56.0188 32.5943 55.6336 32.3631 55.2483L18.031 30.5137C17.7998 30.0514 17.6457 29.589 17.6457 29.1267C17.6457 28.6644 17.7998 28.125 18.031 27.7397L32.2861 2.92808C32.5173 2.46575 32.9025 2.15753 33.2878 1.84932C33.7501 1.61815 34.2125 1.46404 34.6748 1.46404C34.7518 1.46404 63.3392 1.46404 63.3392 1.46404ZM63.3392 0H34.7518C33.9813 0 33.2878 0.231164 32.5943 0.616438C31.9779 1.00171 31.4385 1.5411 31.0532 2.15753L16.7981 26.8921C16.4128 27.5086 16.1816 28.2791 16.1816 29.0497C16.1816 29.8202 16.4128 30.5908 16.7981 31.2072L31.0532 55.9418C31.4385 56.5582 31.9779 57.1747 32.5943 57.5599C33.2107 57.9452 33.9813 58.1764 34.7518 58.1764H63.3392C64.1097 58.1764 64.8032 57.9452 65.4967 57.5599C66.1902 57.1747 66.7296 56.6353 67.1149 55.9418L81.37 31.2072C81.7553 30.5908 81.9864 29.8202 81.9864 29.0497C81.9864 28.2791 81.7553 27.5086 81.37 26.8921L67.1149 2.15753C66.7296 1.46404 66.1902 0.924658 65.4967 0.616438C64.8803 0.231164 64.1097 0 63.3392 0Z" fill="white"></path>
    <path d="M47.3887 14.3321V42.8424C47.3887 43.2277 47.2346 43.6129 46.9264 43.8441C46.6182 44.1523 46.31 44.3064 45.9247 44.3064H40.4538C40.0685 44.3064 39.6832 44.1523 39.4521 43.8441C39.1439 43.5359 38.9897 43.2277 38.9897 42.8424V14.3321C38.9897 13.9468 39.1439 13.5616 39.4521 13.2533C39.7603 12.9451 40.0685 12.791 40.4538 12.791H45.9247C46.31 12.791 46.6952 12.9451 46.9264 13.2533C47.2346 13.5616 47.3887 13.9468 47.3887 14.3321ZM62.4915 15.1797L55.0942 26.1215C54.9401 26.3527 54.863 26.5838 54.863 26.892C54.863 27.2003 54.9401 27.4314 55.0942 27.6626L63.5702 42.0718C63.7243 42.303 63.7243 42.5342 63.8014 42.8424C63.8014 43.0735 63.7243 43.3818 63.6473 43.6129C63.5702 43.8441 63.3391 43.9982 63.1079 44.1523C62.8767 44.3064 62.6456 44.3835 62.4144 44.3835H56.25C56.0189 44.3835 55.7106 44.3064 55.4795 44.2294C55.2483 44.0753 55.0942 43.9212 54.9401 43.69L46.4641 28.4331C46.31 28.202 46.31 27.9708 46.31 27.6626C46.31 27.4314 46.387 27.1232 46.5411 26.892L54.9401 13.6386C55.0942 13.4075 55.2483 13.2533 55.4795 13.1763C55.7106 13.0992 55.9418 13.0222 56.173 13.0222H61.3356C61.5668 13.0222 61.875 13.0992 62.1062 13.2533C62.3373 13.4075 62.4915 13.5616 62.6456 13.7927C62.7997 14.0239 62.7997 14.2551 62.7997 14.5633C62.7226 14.7174 62.6456 14.9486 62.4915 15.1797Z" fill="white"></path>
    <path opacity="0.68" d="M62.029 44.3064H56.7893L56.481 43.6899L54.9399 40.993L57.6369 36.3697L58.7927 34.4434L63.3389 42.1488C63.493 42.38 63.493 42.6112 63.493 42.9194C63.493 43.2276 63.416 43.4588 63.3389 43.6899C63.1848 43.9211 63.0307 44.0752 62.7995 44.2293C62.5684 44.3064 62.2601 44.3834 62.029 44.3064Z" fill="white"></path>
    <path d="M79.8289 34.2117L68.9641 53.0131H63.185L57.8682 43.8435L56.3271 41.1466L59.0241 36.5233L61.2587 32.6706L63.2621 29.2031H76.9778L79.8289 34.2117Z" fill="url(#paint0_linear_4203_24149)"></path>
    <path opacity="0.68" d="M62.1061 44.3845H56.8664L56.5582 43.7681L55.0171 41.0711L57.714 36.4479L58.8698 34.5215L63.4161 42.227C63.5702 42.4581 63.5702 42.6893 63.5702 42.9975C63.5702 43.3057 63.4931 43.5369 63.4161 43.7681C63.262 43.9992 63.1078 44.1533 62.8767 44.3074C62.5685 44.3074 62.3373 44.3845 62.1061 44.3845Z" fill="white"></path>
    <path d="M88.8441 39.607C88.767 39.2987 88.6129 38.9905 88.4588 38.6823L82.4485 28.357L81.755 27.2011L81.2927 26.3535C81.0615 25.9683 80.8304 25.6601 80.5221 25.3518C79.5975 24.5042 78.4417 23.9648 77.1317 23.9648H62.9537C62.2602 23.9648 61.5667 24.119 60.9502 24.4272C60.3338 24.7354 59.7944 25.1207 59.3321 25.66C59.178 25.8912 58.9468 26.1224 58.7927 26.3535L55.9417 31.285L51.6266 38.6823C51.6266 38.6823 51.6266 38.7594 51.5495 38.7594C51.1643 39.4529 50.9331 40.3005 50.9331 41.071C50.9331 41.9186 51.1643 42.6892 51.5495 43.3827L58.6386 55.7114C59.0239 56.4049 59.5632 56.9443 60.1797 57.3296C60.7961 57.7148 61.5667 58.0231 62.3372 58.0231H76.9776C77.1317 58.0231 77.2858 58.0231 77.44 58.0231L82.5256 66.1138C82.8338 66.5761 83.2961 66.8844 83.8355 67.0385C84.3749 67.1926 84.9143 67.0385 85.3766 66.8073L85.6848 66.6532C86.1471 66.345 86.4554 65.8827 86.6095 65.3433C86.7636 64.8039 86.6095 64.2645 86.3783 63.8022L81.2156 55.6344L88.3047 43.3827C88.6129 42.8433 88.8441 42.1498 88.9211 41.5333C88.9982 40.9169 89.0752 40.3005 88.8441 39.607ZM82.2174 43.7679L76.9006 52.9374H63.1848V52.8604L57.9451 43.7679L56.404 41.071L59.1009 36.4477L61.3355 32.595L63.2619 29.2046H77.0547L79.9057 34.1361L83.8355 40.994L82.2174 43.7679Z" fill="#0C162D"></path>
    <path d="M0.539384 85.9156C0.385274 85.9156 0.308219 85.8386 0.15411 85.7615C0.0770548 85.6844 0 85.5303 0 85.3762V71.6605C0 71.5064 0.0770548 71.3523 0.15411 71.2752C0.231164 71.1981 0.385274 71.1211 0.539384 71.1211H2.3887C2.54281 71.1211 2.69692 71.1981 2.77397 71.2752C2.85103 71.3523 2.92808 71.5064 2.92808 71.6605V76.592L7.70548 71.5064C7.85959 71.2752 8.16781 71.1211 8.55308 71.1211H10.6336C10.7106 71.1211 10.8647 71.1981 10.9418 71.2752C11.0188 71.3523 11.0959 71.4293 11.0959 71.5834C11.0959 71.6605 11.0959 71.7375 11.0188 71.8146L5.16267 78.2101L11.4041 85.2221C11.4812 85.2992 11.4812 85.3762 11.4812 85.5303C11.4812 85.6844 11.4041 85.7615 11.3271 85.8386C11.25 85.9156 11.1729 85.9927 11.0188 85.9927H8.8613C8.47603 85.9927 8.24486 85.8386 8.0137 85.6074L2.85103 79.9824V85.4533C2.85103 85.6074 2.77397 85.7615 2.69692 85.8386C2.61986 85.9156 2.46575 85.9927 2.31164 85.9927C2.3887 85.9156 0.539384 85.9156 0.539384 85.9156Z" fill="#2916FC"></path>
    <path d="M16.6438 86.1465C15.3338 86.1465 14.3321 85.6842 13.5616 84.8366C12.791 83.989 12.4058 82.8331 12.4058 81.3691V75.4359C12.4058 75.2818 12.4828 75.2047 12.5599 75.0506C12.6369 74.9735 12.791 74.8965 12.9451 74.8965H14.7945C14.9486 74.8965 15.1027 74.9735 15.1797 75.0506C15.2568 75.1277 15.3338 75.2818 15.3338 75.4359V81.292C15.3338 83.0643 16.1044 83.9119 17.6455 83.9119C18.416 83.9119 18.9554 83.6807 19.4177 83.2184C19.8801 82.7561 20.1112 82.1396 20.1112 81.292V75.4359C20.1112 75.2818 20.1883 75.2047 20.2653 75.0506C20.3424 74.9735 20.4965 74.8965 20.6506 74.8965H22.4999C22.654 74.8965 22.8082 74.9735 22.8852 75.0506C22.9623 75.1277 23.0393 75.2818 23.0393 75.4359V85.453C23.0393 85.6071 22.9623 85.6842 22.8852 85.8383C22.8082 85.9153 22.654 85.9924 22.4999 85.9924H20.8047C20.6506 85.9924 20.5736 85.9153 20.4195 85.8383C20.3424 85.7612 20.2653 85.6071 20.2653 85.453V84.6054C19.4177 85.6071 18.1849 86.1465 16.6438 86.1465Z" fill="#2916FC"></path>
    <path d="M31.5926 86.1475C30.1286 86.1475 28.9727 85.6081 28.2022 84.6834V85.454C28.2022 85.6081 28.1251 85.6851 28.0481 85.8393C27.971 85.9163 27.8169 85.9934 27.6628 85.9934H25.9676C25.8135 85.9934 25.7364 85.9163 25.5823 85.8393C25.5053 85.7622 25.4282 85.6081 25.4282 85.454V71.43C25.4282 71.2759 25.5053 71.1218 25.5823 71.0447C25.6594 70.9677 25.8135 70.8906 25.9676 70.8906H27.7399C27.894 70.8906 28.0481 70.9677 28.1251 71.0447C28.2022 71.1218 28.2793 71.2759 28.2793 71.43V76.1304C29.0498 75.2057 30.2056 74.7434 31.5156 74.7434C32.8255 74.7434 34.0584 75.2057 34.8289 76.1304C35.5995 77.055 35.9847 78.2879 36.0618 79.7519C36.0618 79.906 36.0618 80.1372 36.0618 80.4454C36.0618 80.7536 36.0618 80.9848 36.0618 81.1389C35.9847 82.68 35.5995 83.9129 34.8289 84.8375C34.1354 85.6851 33.0566 86.1475 31.5926 86.1475ZM30.8221 83.9129C32.3632 83.9129 33.1337 82.9882 33.2878 81.0619C33.2878 80.9077 33.2878 80.6766 33.2878 80.4454C33.2878 80.2143 33.2878 79.9831 33.2878 79.829C33.2108 77.9797 32.3632 76.978 30.8221 76.978C30.0515 76.978 29.4351 77.2091 28.9727 77.7485C28.5875 78.2108 28.3563 78.8273 28.2793 79.5208V80.3684V81.216C28.3563 81.9865 28.5104 82.603 28.9727 83.1423C29.4351 83.6817 29.9745 83.9129 30.8221 83.9129Z" fill="#2916FC"></path>
    <path d="M43.3047 86.1472C41.7636 86.1472 40.4536 85.6848 39.529 84.7602C38.6043 83.8355 38.142 82.5256 38.0649 80.9075V80.3681V79.8287C38.142 78.2105 38.6043 76.9777 39.529 76.053C40.4536 75.1283 41.6865 74.666 43.3047 74.666C44.9999 74.666 46.2327 75.2054 47.1574 76.2071C48.0821 77.2088 48.5444 78.5958 48.5444 80.291V80.7533C48.5444 80.9075 48.4673 80.9845 48.3903 81.1386C48.3132 81.2157 48.1591 81.2927 48.005 81.2927H40.916V81.4468C40.916 82.2174 41.1471 82.9109 41.5324 83.4503C41.9177 83.9896 42.5341 84.2208 43.2276 84.2208C44.0752 84.2208 44.7687 83.9126 45.231 83.2191C45.3851 83.065 45.4622 82.9879 45.5393 82.9109C45.6163 82.8338 45.7704 82.8338 45.9245 82.8338H47.7738C47.928 82.8338 48.005 82.9109 48.0821 82.9879C48.1591 83.065 48.2362 83.142 48.2362 83.2962C48.2362 83.6044 48.005 84.0667 47.6197 84.529C47.2345 84.9914 46.618 85.3766 45.9245 85.6848C45.154 85.9931 44.3064 86.1472 43.3047 86.1472ZM45.6934 79.4434C45.6934 78.5188 45.4622 77.9023 45.0769 77.3629C44.6917 76.8235 44.0752 76.5924 43.3817 76.5924C42.6882 76.5924 42.0718 76.8235 41.6865 77.3629C41.3012 77.9023 41.0701 78.5188 41.0701 79.3664V79.4434H45.6934Z" fill="#2916FC"></path>
    <path d="M55.0171 86.1463C53.9383 86.1463 53.0907 85.9922 52.3201 85.684C51.6266 85.3757 51.0873 84.9905 50.702 84.5281C50.3938 84.0658 50.1626 83.6805 50.1626 83.3723C50.1626 83.2182 50.2397 83.1412 50.3167 83.0641C50.3938 82.9871 50.5479 82.91 50.6249 82.91H52.3972C52.5513 82.91 52.6284 82.9871 52.7054 83.0641C52.7825 83.1412 52.9366 83.2182 53.1677 83.4494C53.3989 83.6805 53.7071 83.8347 54.0153 83.9888C54.3236 84.1429 54.7088 84.1429 55.0941 84.1429C55.6335 84.1429 56.0958 83.9888 56.4811 83.8347C56.8664 83.6805 57.0205 83.2953 57.0205 82.91C57.0205 82.6018 56.9434 82.3706 56.7893 82.2165C56.6352 82.0624 56.327 81.9083 55.9417 81.7542C55.4794 81.6001 54.8629 81.446 54.0153 81.2918C52.7825 81.0607 51.9349 80.6754 51.3184 80.136C50.779 79.5966 50.4708 78.9031 50.4708 78.0555C50.4708 77.5162 50.6249 76.9768 51.0102 76.4374C51.3184 75.898 51.8578 75.5127 52.5513 75.2045C53.2448 74.8963 54.0153 74.7422 55.0171 74.7422C56.0188 74.7422 56.7893 74.8963 57.4828 75.2045C58.1763 75.5127 58.7157 75.821 59.0239 76.2833C59.4092 76.6686 59.5633 77.0538 59.5633 77.3621C59.5633 77.5162 59.4862 77.5932 59.4092 77.6703C59.3321 77.7473 59.2551 77.8244 59.101 77.8244H57.5599C57.4057 77.8244 57.3287 77.7473 57.1746 77.6703C57.0975 77.5932 56.9434 77.4391 56.7123 77.285C56.4811 77.0538 56.2499 76.8997 55.9417 76.8227C55.6335 76.6686 55.3253 76.6686 54.94 76.6686C54.4006 76.6686 54.0153 76.8227 53.7071 76.9768C53.3989 77.2079 53.2448 77.5162 53.2448 77.9014C53.2448 78.1326 53.3218 78.3638 53.476 78.5179C53.6301 78.672 53.8612 78.8261 54.3236 78.9802C54.7088 79.1343 55.3253 79.2884 56.1729 79.4425C57.5599 79.6737 58.4845 80.136 59.101 80.6754C59.7174 81.2148 60.0256 81.9083 60.0256 82.7559C60.0256 83.7576 59.5633 84.5281 58.7157 85.1446C57.791 85.8381 56.5581 86.1463 55.0171 86.1463Z" fill="#2916FC"></path>
    <path d="M66.9604 86.1481C65.4193 86.1481 64.1094 85.6857 63.1847 84.8381C62.2601 83.9905 61.7978 82.7577 61.7207 81.2166V80.369V79.5213C61.7978 77.9802 62.2601 76.8244 63.1847 75.8998C64.1094 75.0522 65.3423 74.5898 66.9604 74.5898C68.0392 74.5898 69.0409 74.821 69.8115 75.2063C70.582 75.5916 71.1984 76.1309 71.5067 76.6703C71.8919 77.2097 72.1231 77.7491 72.1231 78.2885C72.1231 78.4426 72.046 78.5196 71.969 78.6737C71.8919 78.7508 71.7378 78.8279 71.5837 78.8279H69.7344C69.5803 78.8279 69.5032 78.8279 69.4262 78.7508C69.3491 78.6737 69.2721 78.5967 69.195 78.4426C68.9639 77.9032 68.7327 77.5179 68.3474 77.2868C68.0392 77.0556 67.5769 76.9015 67.0375 76.9015C66.344 76.9015 65.7276 77.1326 65.3423 77.595C64.957 78.0573 64.7258 78.7508 64.6488 79.6755V80.446V81.1395C64.7258 82.9888 65.4964 83.9135 67.0375 83.9135C67.5769 83.9135 68.0392 83.7594 68.3474 83.5282C68.6556 83.297 68.9639 82.9118 69.195 82.3724C69.2721 82.2183 69.3491 82.1412 69.4262 82.0642C69.5032 81.9871 69.6573 81.9871 69.7344 81.9871H71.5837C71.7378 81.9871 71.8149 82.0642 71.969 82.1412C72.1231 82.2183 72.1231 82.3724 72.1231 82.5265C72.1231 82.9888 71.8919 83.5282 71.5067 84.1446C71.1214 84.684 70.582 85.2234 69.8115 85.6087C69.0409 85.9169 68.1163 86.1481 66.9604 86.1481Z" fill="#2916FC"></path>
    <path d="M77.5172 86.1463C76.8237 86.1463 76.1302 85.9922 75.5138 85.684C74.8973 85.3757 74.435 84.9905 74.1268 84.5281C73.8186 84.0658 73.5874 83.5264 73.5874 82.91C73.5874 81.9853 73.9727 81.2148 74.7432 80.5984C75.5138 79.9819 76.5925 79.5966 77.9795 79.3655L80.9076 78.9031V78.4408C80.9076 77.8244 80.7535 77.3621 80.4453 77.0538C80.1371 76.7456 79.5977 76.5915 78.9042 76.5915C78.4419 76.5915 78.0566 76.6686 77.7484 76.8997C77.4401 77.0538 77.209 77.2079 77.0549 77.4391C76.9008 77.5932 76.7466 77.7473 76.7466 77.8244C76.6696 77.9785 76.5925 78.0555 76.4384 78.0555H74.7432C74.5891 78.0555 74.5121 77.9785 74.435 77.9014C74.3579 77.8244 74.2809 77.6703 74.2809 77.5932C74.2809 77.2079 74.435 76.8227 74.8203 76.3603C75.1285 75.898 75.6679 75.5127 76.3614 75.2045C77.0549 74.8963 77.9025 74.7422 78.9042 74.7422C80.5994 74.7422 81.8323 75.1275 82.6028 75.898C83.3734 76.6686 83.7586 77.5932 83.7586 78.8261V85.4528C83.7586 85.6069 83.6816 85.684 83.6045 85.8381C83.5275 85.9151 83.3734 85.9922 83.2193 85.9922H81.524C81.3699 85.9922 81.2929 85.9151 81.1388 85.8381C81.0617 85.761 80.9847 85.6069 80.9847 85.4528V84.6052C80.6764 85.0675 80.2141 85.4528 79.6747 85.761C79.0583 85.9922 78.3648 86.1463 77.5172 86.1463ZM78.2877 84.1429C79.0583 84.1429 79.6747 83.9117 80.2141 83.3723C80.6764 82.8329 80.9847 82.1394 80.9847 81.1377V80.6754L78.8271 80.9836C77.9795 81.1377 77.3631 81.2918 76.9778 81.6001C76.5925 81.9083 76.3614 82.2165 76.3614 82.6018C76.3614 83.0641 76.5155 83.3723 76.9778 83.6805C77.286 83.9888 77.7484 84.1429 78.2877 84.1429Z" fill="#2916FC"></path>
    <path d="M85.8392 89.999C85.6851 89.999 85.608 89.922 85.4539 89.8449C85.3769 89.7679 85.2998 89.6138 85.2998 89.4597V75.4357C85.2998 75.2816 85.3769 75.1275 85.4539 75.0504C85.531 74.9734 85.6851 74.8963 85.8392 74.8963H87.5344C87.6885 74.8963 87.8426 74.9734 87.9197 75.0504C87.9967 75.1275 88.0738 75.2816 88.0738 75.4357V76.2833C88.8443 75.2045 90.0001 74.7422 91.4642 74.7422C92.9282 74.7422 94.007 75.2045 94.7775 76.1292C95.5481 77.0538 95.9334 78.2097 96.0104 79.7507C96.0104 79.9049 96.0104 80.136 96.0104 80.5213C96.0104 80.9066 96.0104 81.1377 96.0104 81.2918C95.9334 82.7559 95.5481 83.9888 94.7775 84.9134C94.007 85.8381 92.9282 86.3004 91.4642 86.3004C90.0001 86.3004 88.9214 85.761 88.2279 84.8364V89.6138C88.2279 89.7679 88.1508 89.922 88.0738 89.999C87.9967 90.0761 87.8426 90.1531 87.6885 90.1531H85.8392V89.999ZM90.6166 83.9117C92.1577 83.9117 93.0053 82.987 93.0823 81.0607C93.0823 80.9066 93.0823 80.6754 93.0823 80.4442C93.0823 80.2131 93.0823 79.9819 93.0823 79.8278C93.0053 77.9785 92.1577 76.9768 90.6166 76.9768C89.769 76.9768 89.1525 77.2079 88.7673 77.7473C88.382 78.2867 88.1508 78.9031 88.0738 79.6737V80.4442V81.2918C88.0738 81.9853 88.3049 82.6018 88.7673 83.1412C89.2296 83.6035 89.846 83.8347 90.6166 83.9117Z" fill="#2916FC"></path>
    <path d="M102.868 86.1472C101.327 86.1472 100.017 85.6848 99.0925 84.7602C98.1678 83.8355 97.7055 82.5256 97.6284 80.9075V80.3681V79.8287C97.7055 78.2105 98.1678 76.9777 99.0925 76.053C100.017 75.1283 101.25 74.666 102.868 74.666C104.563 74.666 105.873 75.2054 106.721 76.2071C107.646 77.2088 108.108 78.5958 108.108 80.291V80.7533C108.108 80.9075 108.031 80.9845 107.954 81.1386C107.877 81.2157 107.723 81.2927 107.568 81.2927H100.479V81.4468C100.479 82.2174 100.711 82.9109 101.096 83.4503C101.481 83.9896 102.098 84.2208 102.791 84.2208C103.639 84.2208 104.332 83.9126 104.795 83.2191C104.949 83.065 105.026 82.9879 105.103 82.9109C105.18 82.8338 105.334 82.8338 105.488 82.8338H107.337C107.491 82.8338 107.568 82.9109 107.646 82.9879C107.723 83.065 107.8 83.142 107.8 83.2962C107.8 83.6044 107.568 84.0667 107.183 84.529C106.798 84.9914 106.181 85.3766 105.488 85.6848C104.717 85.9931 103.87 86.1472 102.868 86.1472ZM105.257 79.4434C105.257 78.5188 105.026 77.9023 104.64 77.3629C104.255 76.8235 103.639 76.5924 102.945 76.5924C102.252 76.5924 101.635 76.8235 101.25 77.3629C100.865 77.9023 100.634 78.5188 100.634 79.3664V79.4434H105.257Z" fill="#2916FC"></path>
  </g>
  <defs>
    <linearGradient id="paint0_linear_4203_24149" x1="56.3271" y1="41.0773" x2="79.8289" y2="41.0773" gradientUnits="userSpaceOnUse">
      <stop stop-color="#FF7879"></stop>
      <stop offset="0.21" stop-color="#FC777B"></stop>
      <stop offset="0.36" stop-color="#F27281"></stop>
      <stop offset="0.5" stop-color="#E26B8A"></stop>
      <stop offset="0.63" stop-color="#CB6098"></stop>
      <stop offset="0.75" stop-color="#AE52AA"></stop>
      <stop offset="0.86" stop-color="#8A41C0"></stop>
      <stop offset="0.98" stop-color="#602EDA"></stop>
      <stop offset="1" stop-color="#5529E0"></stop>
    </linearGradient>
    <clipPath id="clip0_4203_24149">
      <rect width="108.108" height="90" fill="white"></rect>
    </clipPath>
  </defs>
</svg>
