<?xml version="1.0" encoding="UTF-8"?>
<svg xmlns="http://www.w3.org/2000/svg" width="190" height="36" viewBox="0 0 190 36" fill="none">
  <g clip-path="url(#clip0_1832_3270)">
    <path d="M132.71 7.39887C129.798 7.39887 127.718 8.36968 126.697 10.2059L126.148 11.1953V7.87808H121.403V28.0894H126.394V16.0659C126.394 13.1927 127.993 11.5444 130.785 11.5444C133.445 11.5444 134.97 13.1473 134.97 15.9461V28.0894H139.961V15.0765C139.961 10.272 137.25 7.39887 132.71 7.39887ZM108.516 7.39887C102.63 7.39887 98.9719 10.9785 98.9719 16.7455V19.5835C98.9719 25.1254 102.662 28.5707 108.599 28.5707C112.569 28.5707 115.352 27.1496 117.104 24.2331L114.009 22.5001C112.715 24.1835 110.649 25.2245 108.599 25.2245C105.593 25.2245 103.797 23.4151 103.797 20.3829V19.5794H117.733V16.2249C117.733 10.8545 114.115 7.39887 108.516 7.39887ZM113.193 16.3096H103.797V15.8263C103.797 12.4966 105.473 10.6624 108.516 10.6624C111.446 10.6624 113.193 12.4718 113.193 15.5041V16.3096ZM189.499 4.55049V0.683786H172.246V4.55049H178.296V24.2248H172.246V28.0894H189.499V24.2248H183.45V4.55049H189.499ZM58.6691 0.124023C50.961 0.124023 46.1717 4.80868 46.1717 12.3479V16.4253C46.1717 23.9666 50.9589 28.6492 58.6691 28.6492C66.3793 28.6492 71.1664 23.9666 71.1664 16.4253V12.3479C71.1643 4.80868 66.375 0.124023 58.6691 0.124023ZM66.0107 16.7042C66.0107 21.711 63.3354 24.5842 58.6691 24.5842C54.0027 24.5842 51.3253 21.711 51.3253 16.7042V12.0691C51.3253 7.06219 54.0006 4.18902 58.6669 4.18902C63.3333 4.18902 66.0086 7.06219 66.0086 12.0691L66.0107 16.7042ZM86.8346 7.4092C84.2166 7.4092 81.948 8.46469 80.7681 10.2369L80.2301 11.0425V7.87808H75.4875V35.0441H80.4758V25.2059L81.0117 25.9784C82.1344 27.5999 84.3267 28.5707 86.8749 28.5707C91.1769 28.5707 95.5171 25.8277 95.5171 19.7033V16.2621C95.5171 11.8522 92.8418 7.39887 86.8325 7.39887L86.8346 7.4092ZM90.5288 19.472C90.5288 22.7293 88.58 24.7536 85.4451 24.7536C82.522 24.7536 80.4801 22.6157 80.4801 19.5525V16.5162C80.4801 13.4055 82.5389 11.2346 85.4853 11.2346C88.5991 11.2346 90.533 13.2588 90.533 16.5162L90.5288 19.472ZM153.75 0.694114L143.678 28.0894H148.741L150.668 22.215H162.244L162.263 22.2729L164.17 28.0894H169.239L159.158 0.683786L153.75 0.694114ZM151.914 18.3587L156.455 4.48852L160.952 18.3421L151.914 18.3587ZM33.2101 14.4139C33.6105 13.2381 33.749 11.9925 33.6163 10.7603C33.4837 9.52817 33.0829 8.3378 32.4408 7.26874C30.4874 3.95334 26.5615 2.24782 22.7276 3.04904C21.666 1.89751 20.3123 1.03865 18.8026 0.55872C17.2928 0.0787894 15.6802 -0.00531483 14.1265 0.314854C12.5729 0.635023 11.133 1.34819 9.9515 2.38274C8.76997 3.41728 7.8884 4.73678 7.39531 6.2087C6.15041 6.45767 4.97434 6.96288 3.94571 7.69057C2.91707 8.41826 2.05956 9.35166 1.43049 10.4284C-0.544088 13.7384 -0.0958794 17.9139 2.53872 20.7537C2.13686 21.9289 1.997 23.1743 2.12851 24.4065C2.26001 25.6388 2.65985 26.8294 3.30127 27.8988C5.25679 31.2154 9.18518 32.9207 13.0214 32.1185C13.8649 33.0446 14.9013 33.7847 16.0614 34.2891C17.2215 34.7936 18.4786 35.0509 19.7488 35.0439C23.6785 35.0474 27.1604 32.5735 28.3605 28.9245C29.6053 28.6752 30.7811 28.1698 31.8097 27.4421C32.8383 26.7145 33.6959 25.7813 34.3253 24.7048C36.2762 21.4006 35.8261 17.2476 33.2101 14.4139ZM19.7486 32.7586C18.18 32.7611 16.6606 32.225 15.4567 31.2443L15.6685 31.1272L22.7982 27.1141C22.9756 27.0126 23.1229 26.8678 23.2256 26.6941C23.3283 26.5203 23.3829 26.3234 23.384 26.1228V16.3206L26.3982 18.0209C26.4131 18.0283 26.426 18.039 26.4358 18.0521C26.4456 18.0653 26.4521 18.0805 26.4548 18.0965V26.2193C26.4469 29.8278 23.4491 32.7512 19.7486 32.7588V32.7586ZM5.3341 26.7561C4.54747 25.4316 4.265 23.879 4.53639 22.3714L4.74821 22.4953L11.8848 26.5083C12.0614 26.6093 12.2625 26.6626 12.4672 26.6626C12.672 26.6626 12.873 26.6093 13.0496 26.5083L21.7674 21.6073V25.001C21.7666 25.0186 21.7617 25.0357 21.7532 25.0511C21.7446 25.0666 21.7326 25.0799 21.7181 25.0903L14.4968 29.1517C11.2877 30.9543 7.18794 29.8825 5.3341 26.7561ZM3.45632 11.6126C4.24844 10.2794 5.49874 9.2626 6.98586 8.7421V17.0022C6.98318 17.2018 7.03548 17.3984 7.1373 17.5716C7.23913 17.7448 7.38675 17.8881 7.56477 17.9866L16.2402 22.8671L13.2261 24.5675C13.2097 24.5759 13.1916 24.5803 13.1731 24.5803C13.1546 24.5803 13.1364 24.5759 13.1201 24.5675L5.913 20.5128C2.7103 18.7028 1.61202 14.7078 3.45632 11.5781V11.6126ZM28.2194 17.2226L19.5158 12.294L22.5228 10.6007C22.5391 10.5922 22.5573 10.5878 22.5757 10.5878C22.5942 10.5878 22.6124 10.5922 22.6287 10.6007L29.836 14.6619C30.938 15.2821 31.8362 16.195 32.426 17.2943C33.0158 18.3935 33.2728 19.6337 33.167 20.87C33.0611 22.1063 32.5968 23.2878 31.8283 24.2764C31.0597 25.2651 30.0186 26.0202 28.8265 26.4535V18.193C28.8203 17.9938 28.7611 17.7995 28.6546 17.6294C28.5482 17.4592 28.3982 17.319 28.2194 17.2224V17.2226ZM31.2194 12.824L31.0076 12.7001L23.8852 8.65266C23.7076 8.55099 23.5053 8.4974 23.2993 8.4974C23.0933 8.4974 22.8911 8.55099 22.7134 8.65266L14.0026 13.5534V10.1597C14.0008 10.1425 14.0038 10.1251 14.0112 10.1094C14.0187 10.0937 14.0303 10.0802 14.0449 10.0704L21.2521 6.01578C22.3567 5.39524 23.6197 5.09424 24.8933 5.14797C26.1669 5.2017 27.3985 5.60796 28.4441 6.31921C29.4896 7.03047 30.3059 8.01732 30.7974 9.16435C31.2888 10.3114 31.4352 11.5712 31.2194 12.7963V12.8238V12.824ZM12.3578 18.8401L9.34362 17.1468C9.32856 17.1379 9.31569 17.1259 9.30592 17.1116C9.29614 17.0973 9.28971 17.0811 9.28707 17.0642V8.96208C9.28875 7.7192 9.65324 6.50248 10.3379 5.45416C11.0226 4.40583 11.9991 3.56924 13.1534 3.04218C14.3077 2.51512 15.592 2.31938 16.8561 2.47784C18.1203 2.6363 19.3121 3.14242 20.2921 3.93702L20.0803 4.05414L12.9507 8.06728C12.7733 8.16877 12.626 8.31352 12.5232 8.48731C12.4205 8.6611 12.3659 8.85795 12.3648 9.05854L12.3578 18.8401ZM13.9956 15.3983L17.878 13.2163L21.7674 15.3983V19.7624L17.892 21.9446L14.0028 19.7624L13.9958 15.3983H13.9956Z" fill="white"></path>
  </g>
  <defs>
    <clipPath id="clip0_1832_3270">
      <rect width="189.366" height="35.1143" fill="white" transform="translate(0.207031 0.124023)"></rect>
    </clipPath>
  </defs>
</svg>
