<svg width="400" height="144" viewBox="0 0 400 144" fill="none" xmlns="http://www.w3.org/2000/svg">
<path d="M257.598 62.2497C253.167 62.2497 250.002 63.751 248.449 66.5906L247.614 68.1206V62.9908H240.395V94.2454H247.988V75.6523C247.988 71.2093 250.421 68.6604 254.669 68.6604C258.717 68.6604 261.037 71.139 261.037 75.4671V94.2454H268.63V74.1223C268.63 66.6928 264.505 62.2497 257.598 62.2497ZM220.788 62.2497C211.832 62.2497 206.267 67.7852 206.267 76.7032V81.0919C206.267 89.6618 211.881 94.9896 220.914 94.9896C226.953 94.9896 231.188 92.792 233.853 88.2819L229.145 85.602C227.176 88.2053 224.034 89.8151 220.914 89.8151C216.341 89.8151 213.608 87.017 213.608 82.3281V81.0855H234.81V75.8983C234.81 67.5935 229.306 62.2497 220.788 62.2497ZM227.904 76.0292H213.608V75.2818C213.608 70.1329 216.157 67.2965 220.788 67.2965C225.245 67.2965 227.904 70.0945 227.904 74.7835V76.0292ZM344 57.845V51.8656H317.751V57.845H326.955V88.2691H317.751V94.2454H344V88.2691H334.796V57.845H344ZM144.948 51C133.22 51 125.933 58.2443 125.933 69.9029V76.2081C125.933 87.8699 133.217 95.111 144.948 95.111C156.678 95.111 163.962 87.8699 163.962 76.2081V69.9029C163.958 58.2443 156.672 51 144.948 51ZM156.118 76.6393C156.118 84.3819 152.047 88.8249 144.948 88.8249C137.848 88.8249 133.774 84.3819 133.774 76.6393V69.4717C133.774 61.7291 137.845 57.2861 144.944 57.2861C152.044 57.2861 156.114 61.7291 156.114 69.4717L156.118 76.6393ZM187.8 62.2657C183.817 62.2657 180.365 63.8979 178.57 66.6385L177.752 67.8842V62.9908H170.536V105H178.126V89.7864L178.941 90.981C180.649 93.4883 183.985 94.9896 187.862 94.9896C194.407 94.9896 201.01 90.7478 201.01 81.2772V75.9558C201.01 69.1363 196.94 62.2497 187.797 62.2497L187.8 62.2657ZM193.421 80.9194C193.421 85.9566 190.456 89.0868 185.686 89.0868C181.239 89.0868 178.132 85.7809 178.132 81.044V76.3486C178.132 71.5383 181.265 68.1812 185.747 68.1812C190.485 68.1812 193.427 71.3115 193.427 76.3486L193.421 80.9194ZM289.61 51.8816L274.286 94.2454H281.988L284.921 85.1612H302.533L302.562 85.2507L305.462 94.2454H313.174L297.837 51.8656L289.61 51.8816ZM286.816 79.1978L293.725 57.7492L300.567 79.1722L286.816 79.1978ZM106.213 73.0976C106.822 71.2794 107.033 69.3533 106.831 67.4479C106.629 65.5425 106.019 63.7017 105.042 62.0485C102.07 56.9216 96.0973 54.2842 90.2641 55.5232C88.6489 53.7425 86.5894 52.4144 84.2923 51.6722C81.9953 50.9301 79.5417 50.8 77.178 51.2951C74.8142 51.7902 72.6235 52.893 70.8258 54.4928C69.0282 56.0927 67.6869 58.1331 66.9367 60.4093C65.0426 60.7943 63.2533 61.5755 61.6882 62.7008C60.1232 63.8261 58.8185 65.2695 57.8614 66.9346C54.8572 72.0532 55.5391 78.5101 59.5476 82.9014C58.9362 84.7188 58.7234 86.6447 58.9234 88.5502C59.1235 90.4557 59.7319 92.2968 60.7078 93.9505C63.683 99.0794 69.6599 101.716 75.4966 100.476C76.7799 101.908 78.3567 103.052 80.1217 103.833C81.8868 104.613 83.7994 105.011 85.732 105C91.7108 105.005 97.0084 101.18 98.8344 95.5367C100.728 95.1511 102.517 94.3696 104.082 93.2444C105.647 92.1192 106.952 90.6761 107.91 89.0115C110.878 83.9018 110.193 77.4797 106.213 73.0976ZM85.7317 101.466C83.3451 101.47 81.0334 100.641 79.2018 99.1241L79.524 98.943L90.3715 92.7371C90.6414 92.5801 90.8655 92.3563 91.0218 92.0876C91.1781 91.8188 91.2612 91.5144 91.2629 91.2042V76.0462L95.8488 78.6756C95.8714 78.687 95.891 78.7035 95.906 78.7238C95.9209 78.7441 95.9308 78.7676 95.9349 78.7925V91.3534C95.9229 96.9335 91.3618 101.454 85.7317 101.466V101.466ZM63.8006 92.1835C62.6038 90.1353 62.174 87.7343 62.5869 85.403L62.9092 85.5947L73.7673 91.8003C74.0359 91.9565 74.3418 92.0389 74.6534 92.0389C74.9649 92.0389 75.2708 91.9565 75.5394 91.8003L88.8033 84.2215V89.4695C88.802 89.4966 88.7946 89.5231 88.7816 89.547C88.7686 89.5708 88.7503 89.5915 88.7282 89.6075L77.7412 95.8881C72.8588 98.6756 66.6212 97.0182 63.8006 92.1835ZM60.9437 68.7658C62.1488 66.7042 64.0511 65.1318 66.3137 64.3269V77.1002C66.3096 77.4089 66.3892 77.7129 66.5441 77.9807C66.699 78.2485 66.9237 78.4701 67.1945 78.6225L80.3939 86.1696L75.8079 88.799C75.7831 88.8121 75.7554 88.8189 75.7273 88.8189C75.6992 88.8189 75.6716 88.8121 75.6468 88.799L64.6814 82.529C59.8086 79.7299 58.1376 73.5522 60.9437 68.7124V68.7658ZM98.6197 77.441L85.3775 69.8195L89.9525 67.201C89.9773 67.1879 90.005 67.1811 90.0331 67.1811C90.0612 67.1811 90.0888 67.1879 90.1136 67.201L101.079 73.4813C102.756 74.4402 104.123 75.852 105.02 77.5519C105.917 79.2517 106.308 81.1695 106.147 83.0813C105.986 84.9931 105.28 86.8201 104.11 88.349C102.941 89.8778 101.357 91.0455 99.5434 91.7156V78.9416C99.5339 78.6336 99.4438 78.3332 99.2819 78.0701C99.1199 77.8069 98.8918 77.5901 98.6197 77.4407V77.441ZM103.184 70.6391L102.862 70.4475L92.0254 64.1886C91.7551 64.0314 91.4473 63.9485 91.134 63.9485C90.8206 63.9485 90.5128 64.0314 90.2425 64.1886L76.9894 71.767V66.519C76.9866 66.4924 76.9912 66.4655 77.0025 66.4413C77.0139 66.417 77.0316 66.3962 77.0538 66.381L88.0192 60.1109C89.6998 59.1513 91.6214 58.6859 93.5592 58.769C95.4969 58.8521 97.3708 59.4803 98.9615 60.5802C100.552 61.68 101.794 63.2061 102.542 64.9798C103.29 66.7536 103.512 68.7017 103.184 70.5963V70.6388V70.6391ZM74.4869 79.9424L69.9009 77.3238C69.878 77.3101 69.8584 77.2915 69.8436 77.2694C69.8287 77.2473 69.8189 77.2223 69.8149 77.196V64.6671C69.8175 62.7451 70.372 60.8636 71.4137 59.2424C72.4554 57.6213 73.9412 56.3276 75.6974 55.5126C77.4536 54.6976 79.4076 54.3949 81.3309 54.6399C83.2543 54.885 85.0675 55.6676 86.5586 56.8964L86.2364 57.0775L75.3889 63.2834C75.119 63.4403 74.8949 63.6641 74.7386 63.9329C74.5823 64.2016 74.4992 64.506 74.4975 64.8162L74.4869 79.9424ZM76.9787 74.62L82.8857 71.2457L88.8033 74.62V81.3685L82.9069 84.7431L76.9897 81.3685L76.979 74.62H76.9787Z" fill="white"/>
</svg>
