<?xml version="1.0" encoding="UTF-8"?>
<svg xmlns="http://www.w3.org/2000/svg" width="32" height="32" viewBox="0 0 32 32" fill="none">
  <g clip-path="url(#clip0_1416_6001)">
    <mask id="mask0_1416_6001" style="mask-type:luminance" maskUnits="userSpaceOnUse" x="0" y="0" width="32" height="32">
      <path d="M32 0H0V32H32V0Z" fill="white"></path>
    </mask>
    <g mask="url(#mask0_1416_6001)">
      <path d="M22.4456 5.0293L31.7713 12.8464L28.4342 19.6579L22.7656 18.1036H17.9199L22.4456 5.0293Z" fill="url(#paint0_linear_1416_6001)"></path>
      <path d="M13.0286 10.1029L11.2 19.6571L11.0171 22.9486L6.49143 24.9143L0 25.6L1.96571 4.89143L13.6686 0L20.8914 4.75429L13.0286 10.1029Z" fill="url(#paint1_linear_1416_6001)"></path>
      <path d="M13.0286 10.1035L13.8971 28.5721L10.9714 32.0007L0 25.6007L9.00571 12.1607L13.0286 10.1035Z" fill="url(#paint2_linear_1416_6001)"></path>
      <path d="M25.0969 8.73143H13.9883L23.8169 0L25.0969 8.73143Z" fill="url(#paint3_linear_1416_6001)"></path>
      <path d="M32.0001 28.6171L22.2172 31.9543L9.23438 28.2971L13.0287 10.1029L14.5372 8.73143L22.4458 8L21.7144 15.9543L28.0229 13.5314L32.0001 28.6171Z" fill="url(#paint4_linear_1416_6001)"></path>
      <path d="M25.8745 6.125H6.12598V25.8736H25.8745V6.125Z" fill="black"></path>
      <path d="M15.4057 22.1699H8V23.4042H15.4057V22.1699Z" fill="white"></path>
      <path d="M7.90918 8.73047H11.2463C13.212 8.73047 14.4006 9.87333 14.4006 11.5648V11.6105C14.4006 13.4848 12.9378 14.4905 11.1092 14.4905H9.73775V16.9133H7.95489V8.73047H7.90918ZM11.1549 12.8448C12.0692 12.8448 12.572 12.2962 12.572 11.6105V11.5648C12.572 10.7419 12.0235 10.3305 11.1092 10.3305H9.73775V12.8448H11.1549Z" fill="white"></path>
      <path d="M15.1318 12.8452C15.1318 10.5138 16.869 8.59375 19.3833 8.59375C20.9376 8.59375 21.8518 9.09661 22.629 9.87375L21.4861 11.1995C20.8461 10.6052 20.2061 10.2852 19.3833 10.2852C18.0118 10.2852 17.0061 11.428 17.0061 12.8452V12.7995C17.0061 14.2166 17.9661 15.3595 19.3833 15.3595C20.2976 15.3595 20.8918 14.9938 21.5318 14.3995L22.6747 15.5423C21.8518 16.4566 20.8918 17.0052 19.3376 17.0052C16.9147 17.0509 15.1318 15.1766 15.1318 12.8452Z" fill="white"></path>
    </g>
  </g>
  <defs>
    <linearGradient id="paint0_linear_1416_6001" x1="11.4278" y1="12.3647" x2="30.4715" y2="12.3647" gradientUnits="userSpaceOnUse">
      <stop stop-color="#21D789"></stop>
      <stop offset="1" stop-color="#07C3F2"></stop>
    </linearGradient>
    <linearGradient id="paint1_linear_1416_6001" x1="-11.2272" y1="27.0083" x2="27.9861" y2="-1.93888" gradientUnits="userSpaceOnUse">
      <stop offset="0.0107527" stop-color="#FCF84A"></stop>
      <stop offset="0.1116" stop-color="#A7EB62"></stop>
      <stop offset="0.2056" stop-color="#5FE077"></stop>
      <stop offset="0.2727" stop-color="#32DA84"></stop>
      <stop offset="0.3065" stop-color="#21D789"></stop>
      <stop offset="0.5768" stop-color="#21D789"></stop>
      <stop offset="0.5968" stop-color="#21D789"></stop>
      <stop offset="0.686" stop-color="#20D68C"></stop>
      <stop offset="0.7627" stop-color="#1ED497"></stop>
      <stop offset="0.8348" stop-color="#19D1A9"></stop>
      <stop offset="0.904" stop-color="#13CCC2"></stop>
      <stop offset="0.9707" stop-color="#0BC6E1"></stop>
      <stop offset="1" stop-color="#07C3F2"></stop>
    </linearGradient>
    <linearGradient id="paint2_linear_1416_6001" x1="4.26519" y1="35.4994" x2="10.8054" y2="14.9766" gradientUnits="userSpaceOnUse">
      <stop stop-color="#21D789"></stop>
      <stop offset="0.1638" stop-color="#24D788"></stop>
      <stop offset="0.3047" stop-color="#2FD886"></stop>
      <stop offset="0.4371" stop-color="#41DA82"></stop>
      <stop offset="0.5644" stop-color="#5ADC7D"></stop>
      <stop offset="0.6881" stop-color="#7AE077"></stop>
      <stop offset="0.809" stop-color="#A1E36E"></stop>
      <stop offset="0.9254" stop-color="#CFE865"></stop>
      <stop offset="1" stop-color="#F1EB5E"></stop>
    </linearGradient>
    <linearGradient id="paint3_linear_1416_6001" x1="12.9256" y1="17.6563" x2="27.158" y2="-1.47922" gradientUnits="userSpaceOnUse">
      <stop stop-color="#21D789"></stop>
      <stop offset="0.0608105" stop-color="#24D788"></stop>
      <stop offset="0.1131" stop-color="#2FD886"></stop>
      <stop offset="0.1622" stop-color="#41DA82"></stop>
      <stop offset="0.2094" stop-color="#5ADD7D"></stop>
      <stop offset="0.2548" stop-color="#79E077"></stop>
      <stop offset="0.2581" stop-color="#7CE076"></stop>
      <stop offset="0.4986" stop-color="#8CE173"></stop>
      <stop offset="0.9247" stop-color="#B2E56B"></stop>
    </linearGradient>
    <linearGradient id="paint4_linear_1416_6001" x1="34.6923" y1="20.0912" x2="6.01512" y2="19.8257" gradientUnits="userSpaceOnUse">
      <stop offset="0.3871" stop-color="#FCF84A"></stop>
      <stop offset="0.5358" stop-color="#ECF451"></stop>
      <stop offset="0.8259" stop-color="#C2E964"></stop>
      <stop offset="0.9247" stop-color="#B2E56B"></stop>
    </linearGradient>
    <clipPath id="clip0_1416_6001">
      <rect width="32" height="32" fill="white"></rect>
    </clipPath>
  </defs>
</svg>
