<?xml version="1.0" encoding="UTF-8"?>
<svg xmlns="http://www.w3.org/2000/svg" width="33" height="32" viewBox="0 0 33 32" fill="none">
  <g clip-path="url(#clip0_1416_5998)">
    <path d="M15.9271 0.00976562C7.79129 0.00976562 8.29928 3.53792 8.29928 3.53792L8.30831 7.1932H16.0721V8.29061H5.22464C5.22464 8.29061 0.0185547 7.70018 0.0185547 15.9091C0.0185547 24.1183 4.56255 23.8272 4.56255 23.8272H7.2744V20.0178C7.2744 20.0178 7.1282 15.4738 11.7459 15.4738H19.4462C19.4462 15.4738 23.7725 15.5437 23.7725 11.2926V4.26363C23.7725 4.26363 24.4295 0.00976562 15.9271 0.00976562ZM11.6461 2.46787C11.8296 2.4677 12.0113 2.50372 12.1808 2.57385C12.3503 2.64398 12.5044 2.74686 12.6341 2.87659C12.7638 3.00631 12.8667 3.16035 12.9368 3.32988C13.007 3.49941 13.043 3.68111 13.0428 3.86457C13.043 4.04804 13.007 4.22973 12.9368 4.39927C12.8667 4.5688 12.7638 4.72283 12.6341 4.85256C12.5044 4.98229 12.3503 5.08517 12.1808 5.1553C12.0113 5.22543 11.8296 5.26144 11.6461 5.26128C11.4626 5.26144 11.2809 5.22543 11.1114 5.1553C10.9419 5.08517 10.7878 4.98229 10.6581 4.85256C10.5284 4.72283 10.4255 4.5688 10.3554 4.39927C10.2852 4.22973 10.2492 4.04804 10.2494 3.86457C10.2492 3.68111 10.2852 3.49941 10.3554 3.32988C10.4255 3.16035 10.5284 3.00631 10.6581 2.87659C10.7878 2.74686 10.9419 2.64398 11.1114 2.57385C11.2809 2.50372 11.4626 2.4677 11.6461 2.46787Z" fill="url(#paint0_linear_1416_5998)"></path>
    <path d="M16.1581 31.891C24.2939 31.891 23.7859 28.3628 23.7859 28.3628L23.7768 24.7076H16.0129V23.6102H26.8604C26.8604 23.6102 32.0665 24.2007 32.0665 15.9915C32.0665 7.78241 27.5225 8.07354 27.5225 8.07354H24.8106V11.8828C24.8106 11.8828 24.9568 16.4268 20.3392 16.4268H12.6388C12.6388 16.4268 8.31255 16.3569 8.31255 20.6081V27.6372C8.31255 27.6372 7.65561 31.891 16.1579 31.891H16.1581ZM20.439 29.4331C20.2556 29.4333 20.0739 29.3973 19.9044 29.3271C19.7348 29.257 19.5808 29.1541 19.4511 29.0244C19.3213 28.8947 19.2185 28.7406 19.1483 28.5711C19.0782 28.4016 19.0422 28.2199 19.0423 28.0364C19.0422 27.8529 19.0782 27.6712 19.1483 27.5017C19.2184 27.3321 19.3213 27.1781 19.451 27.0483C19.5807 26.9186 19.7348 26.8157 19.9043 26.7456C20.0739 26.6754 20.2556 26.6394 20.439 26.6396C20.6225 26.6394 20.8042 26.6754 20.9737 26.7455C21.1433 26.8157 21.2973 26.9186 21.427 27.0483C21.5568 27.178 21.6596 27.3321 21.7298 27.5016C21.7999 27.6711 21.8359 27.8528 21.8358 28.0363C21.8359 28.2197 21.7999 28.4014 21.7298 28.571C21.6596 28.7405 21.5568 28.8945 21.427 29.0243C21.2973 29.154 21.1433 29.2569 20.9737 29.327C20.8042 29.3971 20.6225 29.4333 20.439 29.4331Z" fill="url(#paint1_linear_1416_5998)"></path>
  </g>
  <defs>
    <linearGradient id="paint0_linear_1416_5998" x1="307.998" y1="286.763" x2="1896.2" y2="1859.12" gradientUnits="userSpaceOnUse">
      <stop stop-color="#387EB8"></stop>
      <stop offset="1" stop-color="#366994"></stop>
    </linearGradient>
    <linearGradient id="paint1_linear_1416_5998" x1="462.891" y1="498.237" x2="2168.43" y2="2110.54" gradientUnits="userSpaceOnUse">
      <stop stop-color="#FFE052"></stop>
      <stop offset="1" stop-color="#FFC331"></stop>
    </linearGradient>
    <clipPath id="clip0_1416_5998">
      <rect width="32.1285" height="32" fill="white"></rect>
    </clipPath>
  </defs>
</svg>
