<?xml version="1.0" encoding="UTF-8"?>
<svg xmlns="http://www.w3.org/2000/svg" width="140" height="45" viewBox="0 0 140 45" fill="none">
  <path d="M12.8435 20.4211C11.1893 19.5338 10.3337 18.7669 10.3337 17.7169C10.3337 16.386 11.4957 15.5261 13.3823 15.5261C14.7827 15.5565 16.1639 15.8585 17.4491 16.4155L18.9744 11.7804C18.9744 11.7804 17.5759 10.6987 13.4773 10.6987C7.76052 10.6987 3.78876 13.9733 3.78876 18.5747C3.78876 21.1774 5.63098 23.1802 8.107 24.6084C10.1077 25.7703 10.8112 26.5393 10.8112 27.752C10.8112 28.9646 9.82669 29.9766 7.95278 29.9766C5.19156 29.9766 2.58667 28.5484 2.58667 28.5484L0.968384 33.1836C0.968384 33.1836 3.38313 34.8019 7.41616 34.8019C13.2893 34.8019 17.5146 31.9118 17.5146 26.6893C17.5463 23.8626 15.4167 21.8936 12.8668 20.4L12.8435 20.4211ZM36.2812 10.6713C33.3911 10.6713 31.1052 12.0381 29.356 14.1487L29.2588 14.117L31.7686 0.98479H25.23L18.8773 34.4279H25.4201L27.6109 22.9943C28.4687 18.6761 30.7017 16.0057 32.7869 16.0057C34.2446 16.0057 34.8193 16.9902 34.8193 18.4204C34.8193 19.3922 34.7221 20.3577 34.534 21.3105L32.058 34.3962H38.6009L41.1741 20.8753C41.4551 19.4746 41.6177 18.0528 41.6494 16.6289C41.6177 12.9445 39.6804 10.722 36.2833 10.722L36.2812 10.6713ZM56.4147 10.6713C48.5388 10.6713 43.329 17.7866 43.329 25.671C43.329 30.754 46.4726 34.8188 52.35 34.8188C60.0759 34.8188 65.3089 27.8935 65.3089 19.819C65.3089 15.1184 62.5477 10.6713 56.4252 10.6713H56.4147ZM53.2035 29.8224C50.9789 29.8224 50.0282 27.921 50.0282 25.5759C50.0282 21.8281 51.9591 15.6993 55.5253 15.6993C57.8428 15.6993 58.6161 17.7 58.6161 19.6394C58.6076 23.664 56.6724 29.8224 53.2077 29.8224H53.2035ZM82.041 10.6713C77.6045 10.6713 75.1158 14.5332 75.1158 14.5332H75.0186L75.4052 11.0558H69.6103L68.2793 19.7282L63.7371 43.6771H70.2504L72.063 33.9885H72.1898C72.1898 33.9885 73.5208 34.8462 76.0348 34.8462C83.7206 34.8462 88.7381 26.9703 88.7381 19.0099C88.7698 14.6261 86.8072 10.6903 82.0368 10.6903L82.041 10.6713ZM75.7834 29.9174C74.7961 29.9371 73.8352 29.5978 73.0792 28.9625L74.1609 22.8316C74.9341 18.7648 77.051 16.0331 79.3369 16.0331C81.3375 16.0331 81.9396 17.8754 81.9396 19.6246C81.9502 23.8858 79.4467 29.9195 75.7918 29.9195L75.7834 29.9174ZM98.114 1.27C97.1126 1.26366 96.1493 1.66083 95.4458 2.3728C94.7422 3.08476 94.3514 4.05024 94.3894 5.05163C94.3894 6.98258 95.6296 8.32622 97.4802 8.32622H97.5774C98.0823 8.34629 98.5858 8.26266 99.0571 8.08052C99.5284 7.89837 99.9573 7.62157 100.317 7.2672C100.678 6.91283 100.961 6.4884 101.151 6.02013C101.341 5.55187 101.432 5.04969 101.42 4.5446C101.42 2.64322 100.148 1.27 98.1457 1.27H98.114ZM88.9747 34.3645H95.5176L99.9626 11.1889H93.3965M116.636 11.1572H112.066L112.29 10.0755C112.676 7.85088 114.005 5.85021 116.152 5.85021C116.863 5.85047 117.57 5.95729 118.25 6.1671L119.513 1.04817C119.513 1.04817 118.351 0.477756 115.955 0.477756C113.624 0.419781 111.348 1.19676 109.539 2.66857C107.315 4.56995 106.265 7.30371 105.736 10.0692L105.525 11.1508H102.477L101.522 16.0733H104.57L101.093 34.3688H107.659L111.136 16.0733H115.649L116.536 11.1508L116.636 11.1572ZM132.392 11.1889L126.451 27.133H126.354L124.735 11.1889H117.84L121.78 32.4674C121.875 32.8311 121.829 33.2171 121.653 33.5491C120.797 35.1272 119.578 36.4772 118.095 37.4891C116.959 38.2708 115.719 38.8919 114.411 39.3314L116.224 44.8876C118.62 44.2461 120.821 43.0201 122.627 41.3194C125.612 38.5222 128.373 34.204 131.204 28.3266L139.207 11.1762H132.39L132.392 11.1889Z" fill="white"></path>
</svg>
