<?xml version="1.0" encoding="UTF-8"?>
<svg xmlns="http://www.w3.org/2000/svg" width="109" height="57" viewBox="0 0 109 57" fill="none">
  <path fill-rule="evenodd" clip-rule="evenodd" d="M47.8869 38.6191C45.713 38.6191 43.9496 38.245 42.4402 37.5222L42.899 34.0509C44.493 34.8339 46.2923 35.208 47.8022 35.208C48.9011 35.208 49.6259 34.8339 49.6259 34.1715C49.6259 32.2667 42.754 32.725 42.754 27.7469C42.754 24.565 45.6766 22.8894 49.336 22.8894C51.1597 22.8894 53.0432 23.3835 54.2632 23.8173L53.768 27.2284C52.4878 26.7348 50.7493 26.2765 49.2996 26.2765C48.406 26.2765 47.6812 26.5898 47.6812 27.1681C47.6812 29.049 54.698 28.6749 54.698 33.5329C54.698 36.7626 51.8237 38.6191 47.8864 38.6191H47.8869ZM66.8837 38.2933V29.6995C66.8837 27.735 66.0139 26.8065 64.3596 26.8065C63.5501 26.8065 62.7047 27.0356 62.1254 27.3853V38.2933H57.0283V23.3955L62.0163 22.986L61.8957 25.4208H62.0646C63.1396 23.9743 64.9633 22.8774 67.1372 22.8774C69.7455 22.8774 72.0041 24.4923 72.0041 28.3132V38.2933H66.8837ZM100.566 38.2933L96.484 31.2063H96.0735V38.2933H90.9765V20.6474L96.0735 12.6927V29.157C97.0877 27.9153 100.506 23.2027 100.506 23.2027H106.798L100.831 29.5072L107.003 38.3063H100.565V38.2938L100.566 38.2933ZM84.3706 23.251L82.2819 30.0492C81.8709 31.3268 81.4724 33.6768 81.4724 33.6768C81.4724 33.6768 81.158 31.2421 80.7237 29.9645L78.4895 23.251H72.7767L78.9846 38.2933C78.1393 40.2942 76.8346 41.9818 75.0956 41.9818C74.7818 41.9818 74.4679 41.9698 74.1655 41.9334L72.1371 45.0675C72.7767 45.4291 73.9967 45.8027 75.4458 45.8027C79.2138 45.8027 81.7379 42.7528 83.5013 38.2455L89.4193 23.251H84.3706Z" fill="white"></path>
  <path fill-rule="evenodd" clip-rule="evenodd" d="M15.4103 15.7764L15.7584 16.35C16.6884 16.0903 17.8523 15.8585 19.0395 15.8585C20.2309 15.8585 21.4005 16.0913 22.3347 16.3516L22.6843 15.7775L23.0558 13.1796C20.3854 13.0231 17.708 13.0241 15.0377 13.1827L15.4103 15.7764Z" fill="white"></path>
  <path fill-rule="evenodd" clip-rule="evenodd" d="M26.6929 35.7282H19.0141V22.7928L11.223 35.3499L10.0114 48.2443L18.8946 54.6278L19.0146 54.714L28.0989 48.1985L26.6934 35.7287L26.6929 35.7282Z" fill="white"></path>
  <path fill-rule="evenodd" clip-rule="evenodd" d="M22.3347 16.3516L22.6843 15.778L23.0558 13.1801C21.8089 13.1074 20.4813 13.0637 19.0707 13.0637H19.0483V15.859C20.2377 15.8601 21.4031 16.0918 22.3347 16.3516ZM32.1838 14.4261C32.4732 15.379 32.6529 16.2311 32.6529 16.88V17.2344L30.7783 22.3158C31.7385 31.1112 31.3083 32.2174 31.1446 32.6362C31.0495 32.8825 30.7664 33.6099 28.9484 36.0311L30.1075 46.7822L35.5174 42.903V15.3618C35.5174 15.3618 34.3587 14.9212 32.1838 14.4261Z" fill="white"></path>
  <path fill-rule="evenodd" clip-rule="evenodd" d="M28.1347 48.172L26.7318 35.7281H19.0525V54.686L28.1347 48.1725V48.172Z" fill="white"></path>
  <path fill-rule="evenodd" clip-rule="evenodd" d="M10.0114 48.2443L19.0141 54.714V22.7928L11.223 35.3499L10.0114 48.2443Z" fill="white"></path>
  <path fill-rule="evenodd" clip-rule="evenodd" d="M22.8885 44.5688C22.8885 46.7022 20.8964 47.76 19.0686 47.76C17.2412 47.76 15.2086 46.7022 15.2086 44.5688" fill="white"></path>
  <path fill-rule="evenodd" clip-rule="evenodd" d="M21.7689 43.3592C21.7689 45.862 20.4216 46.5328 19.0484 46.5328C17.6756 46.5328 16.3284 45.862 16.3284 43.3597" fill="white"></path>
  <path fill-rule="evenodd" clip-rule="evenodd" d="M19.0483 45.6723C17.5816 45.6723 16.8677 44.5952 16.8677 42.3818H17.5675C17.5675 44.9735 18.5677 44.9735 19.0483 44.9735C19.5295 44.9735 20.5297 44.9735 20.5297 42.3818H21.229C21.229 44.5952 20.5156 45.6723 19.0483 45.6723Z" fill="white"></path>
  <path fill-rule="evenodd" clip-rule="evenodd" d="M30.6949 16.88C30.6949 14.1808 26.1346 5.68781 26.1346 5.68781L24.5914 16.4586L23.2067 18.7328L19.0569 18.9012L19.0408 18.9349V18.9012L14.8899 18.7328L13.5057 16.4586L11.9626 5.68781C11.9626 5.68781 7.40173 14.1808 7.40173 16.8795L9.32884 22.0664C9.32884 22.0664 8.3562 30.7787 8.80043 31.9192C9.24311 33.0602 12.3169 36.8754 12.3169 36.8754C12.3169 36.8754 12.3081 40.0828 13.1498 42.3881C13.7504 44.0352 15.0733 44.7028 16.34 44.7028C18.2806 44.7028 19.0403 42.9222 19.0403 42.9222C19.0403 42.9222 19.8175 44.7028 21.7576 44.7028C23.0249 44.7028 24.3467 44.0362 24.9484 42.3886C25.789 40.0833 25.7807 36.8754 25.7807 36.8754C25.7807 36.8754 28.8545 33.0602 29.2983 31.9192C29.7415 30.7782 28.7688 22.0664 28.7688 22.0664L30.6949 16.88Z" fill="white"></path>
  <path fill-rule="evenodd" clip-rule="evenodd" d="M19.0483 18.9183L19.0405 18.9349V18.9017L14.8902 18.7328L13.506 16.4586L11.9629 5.68781C11.9629 5.68781 7.40149 14.1808 7.40149 16.88L9.32756 22.0669C9.32756 22.0669 8.35595 30.7787 8.79915 31.9197C9.24235 33.0602 12.3156 36.8754 12.3156 36.8754C12.3156 36.8754 12.3073 40.0828 13.1485 42.3886C13.7497 44.0357 15.073 44.7034 16.3387 44.7034C18.2804 44.7034 19.0395 42.9222 19.0395 42.9222L19.0483 42.9404V18.9183Z" fill="white"></path>
  <path fill-rule="evenodd" clip-rule="evenodd" d="M28.8107 22.5771C28.4574 21.8372 28.9598 20.0863 28.9598 20.0863C26.0798 17.1335 25.3591 10.976 25.3591 10.976C24.8219 12.9161 23.6528 18.6367 23.6528 18.6367C23.6528 18.6367 21.5033 17.8365 19.0582 17.8323H19.04C18.9055 17.8329 18.7735 17.8365 18.641 17.8407V41.9792L18.8239 42.2467V42.1148H18.9366V42.2467L18.9377 42.1148H19.1611V42.2467V42.1148H19.2749V42.2467L21.2654 39.3387L21.6982 31.174L24.1766 34.0016L27.3704 34.9347C27.3704 34.9347 28.5649 34.0826 28.5649 34.0863C29.072 33.3755 29.2404 32.7707 29.363 32.4564C29.8067 31.3143 28.8107 22.5771 28.8107 22.5771Z" fill="white"></path>
  <path fill-rule="evenodd" clip-rule="evenodd" d="M19.0712 17.8324L19.0624 17.8319C16.6162 17.836 14.4667 18.6362 14.4667 18.6362C14.4667 18.6362 13.2977 12.9156 12.7599 10.9755C12.7599 10.9755 12.0403 17.133 9.15926 20.0858C9.15926 20.0858 9.66221 21.8368 9.30889 22.5766C9.30889 22.5766 8.31287 31.3144 8.75658 32.4548C8.87868 32.7692 9.04859 33.374 9.55517 34.0842C9.55517 34.0811 10.7502 34.9332 10.7502 34.9332L13.943 34.0001L16.4214 31.1725L16.8552 39.3377L18.8452 42.2452V42.1133H18.959V42.2452V42.1133H19.0707V17.8319L19.0712 17.8324Z" fill="white"></path>
  <path fill-rule="evenodd" clip-rule="evenodd" d="M24.8426 28.0421H21.1121V28.0815C21.1121 29.3831 22.2385 30.4378 23.5598 30.4378C24.8816 30.4378 26.008 29.3831 26.008 28.0815V28.0421H24.8426Z" fill="white"></path>
  <path fill-rule="evenodd" clip-rule="evenodd" d="M22.0447 28.0421V28.0815C22.0447 28.4526 22.1921 28.8085 22.4545 29.0709C22.7169 29.3333 23.0728 29.4808 23.4439 29.4808C23.815 29.4808 24.1709 29.3333 24.4333 29.0709C24.6957 28.8085 24.8431 28.4526 24.8431 28.0815V28.0421H22.0447Z" fill="white"></path>
  <path fill-rule="evenodd" clip-rule="evenodd" d="M23.8757 28.0421H23.22C23.2137 28.0421 23.208 28.0452 23.2023 28.0467C23.2839 28.0639 23.3286 28.2478 23.3114 28.3704C23.2985 28.4592 23.2541 28.5403 23.1864 28.5992C23.1187 28.658 23.0322 28.6906 22.9425 28.691C22.9955 28.9357 23.1955 29.1326 23.4605 29.1701C23.5409 29.182 23.6229 29.1779 23.7017 29.158C23.7805 29.1382 23.8546 29.103 23.9198 29.0544C23.985 29.0058 24.0399 28.9449 24.0815 28.875C24.123 28.8052 24.1504 28.7278 24.1619 28.6474C24.1962 28.398 24.0762 28.0421 23.8757 28.0421Z" fill="white"></path>
  <path fill-rule="evenodd" clip-rule="evenodd" d="M15.8379 28.0421H12.1073V28.0815C12.1073 29.3831 13.2343 30.4378 14.5555 30.4378C15.8768 30.4378 17.0038 29.3831 17.0038 28.0815V28.0421H15.8379Z" fill="white"></path>
  <path fill-rule="evenodd" clip-rule="evenodd" d="M13.0404 28.0421V28.0815C13.0404 28.4525 13.1878 28.8083 13.4501 29.0706C13.7124 29.3329 14.0681 29.4802 14.4391 29.4802C14.8101 29.4802 15.1658 29.3329 15.4281 29.0706C15.6904 28.8083 15.8378 28.4525 15.8378 28.0815V28.0421H13.0404Z" fill="white"></path>
  <path fill-rule="evenodd" clip-rule="evenodd" d="M14.871 28.0421H14.2147C14.2095 28.0421 14.2028 28.0452 14.1976 28.0467C14.2786 28.0639 14.3233 28.2478 14.3067 28.3704C14.2938 28.4594 14.2494 28.5408 14.1814 28.5996C14.1135 28.6585 14.0267 28.6909 13.9368 28.691C13.9908 28.9357 14.1908 29.1326 14.4558 29.1701C14.5362 29.1819 14.618 29.1777 14.6968 29.1579C14.7755 29.138 14.8495 29.1027 14.9146 29.0542C14.9797 29.0056 15.0345 28.9447 15.076 28.8749C15.1174 28.805 15.1447 28.7277 15.1562 28.6474C15.1915 28.398 15.0715 28.0421 14.871 28.0421Z" fill="white"></path>
  <path fill-rule="evenodd" clip-rule="evenodd" d="M24.5615 26.9312C24.7179 26.7597 26.0475 25.2524 24.269 25.2524C22.662 25.2524 21.5059 26.5477 21.1993 26.9307H24.561L24.5615 26.9312Z" fill="white"></path>
  <path fill-rule="evenodd" clip-rule="evenodd" d="M16.89 26.9312C16.584 26.5477 15.4279 25.2524 13.8204 25.2524C12.0429 25.2524 13.3725 26.7592 13.5284 26.9307H16.89V26.9312Z" fill="white"></path>
  <path fill-rule="evenodd" clip-rule="evenodd" d="M11.2495 27.3895H18.0529V28.0285H11.2495V27.3895Z" fill="white"></path>
  <path fill-rule="evenodd" clip-rule="evenodd" d="M31.6044 16.9023C31.6044 14.0514 27.4219 6.16059 26.9444 5.27004L25.6075 2.76984L23.6923 16.1604L22.808 17.6147C21.9549 17.3284 20.5021 16.9288 19.0395 16.9288C17.579 16.9288 16.1361 17.3268 15.2861 17.6136L14.4018 16.1599L13.7294 11.466C13.7305 11.4584 13.7312 11.4508 13.7315 11.4431L13.7263 11.4426L12.4835 2.76984L11.1186 5.27004C10.64 6.16059 6.42419 14.0509 6.42419 16.9023V17.0696L8.35442 22.2056C8.04579 25.0062 7.45659 31.0894 7.91954 32.2782C8.2079 33.0212 9.31824 34.5565 10.2571 35.7869L8.99246 47.5605L10.733 48.7877L11.6537 40.223C11.7857 41.0559 11.9811 41.9355 12.2705 42.73C12.67 43.8247 13.3756 44.654 14.2792 45.146C14.3327 47.7668 16.7716 49.1805 19.0686 49.1805C21.3475 49.1805 23.7656 47.7657 23.8186 45.1434C24.7201 44.6524 25.4251 43.8237 25.8242 42.73C26.1255 41.9038 26.323 40.9832 26.4549 40.1217L27.3808 48.7171L29.1214 47.4462L27.8604 35.751C28.792 34.5264 29.881 33.0139 30.1668 32.2787C30.6292 31.0899 30.0161 25.0062 29.708 22.2062L31.6044 17.0696V16.9023ZM8.34039 16.7506C8.44639 15.2719 9.98641 11.7284 11.4553 8.74237L11.847 11.4727C11.6974 12.4937 11.0152 16.4971 9.18419 19.0206L8.34039 16.7501V16.7506ZM19.0686 47.3168C18.0451 47.3168 16.5892 46.8606 16.2271 45.6521C16.2645 45.6531 16.3008 45.6562 16.3388 45.6562C16.5362 45.6562 16.7217 45.638 16.9009 45.6126C17.4205 46.3348 18.2295 46.5567 19.0489 46.5567C19.8698 46.5567 20.6803 46.3369 21.2004 45.6136C21.3787 45.638 21.5621 45.6562 21.7579 45.6562C21.7969 45.6562 21.8338 45.6531 21.8723 45.6521C21.5137 46.8606 20.0776 47.3168 19.0686 47.3168ZM17.8876 45.3299C18.1249 45.2251 18.3503 45.0952 18.56 44.9423C18.7413 44.9953 18.9153 44.9953 19.0484 44.9953C19.1814 44.9953 19.3533 44.9969 19.5331 44.9434C19.7436 45.0952 19.9693 45.2247 20.2065 45.3299C19.8942 45.5637 19.5092 45.6947 19.0494 45.6947C18.587 45.6947 18.2004 45.5648 17.8876 45.3299ZM28.4288 31.6043C28.1586 32.2974 26.2933 34.7747 25.0541 36.3127L24.8474 36.5709L24.8484 36.8998C24.8484 36.9294 24.8474 39.9663 24.0721 42.0914C23.5115 43.6273 22.2666 43.793 21.7579 43.793C20.4704 43.793 19.915 42.6136 19.8953 42.5715L19.8215 41.4669H18.2565L18.1859 42.5653C18.1635 42.6151 17.6216 43.7899 16.3403 43.7899C15.8306 43.7899 14.5862 43.6257 14.0251 42.0899C13.2525 39.9726 13.2488 36.9294 13.2488 36.8988L13.2499 36.5699L13.0431 36.3127C11.8049 34.7758 9.93913 32.2984 9.67571 31.6219C9.46528 30.8904 9.81287 26.1581 10.2556 22.1927L10.2795 21.9724L9.9303 21.0335C11.1305 19.7771 11.9722 18.048 12.5526 16.402L12.6098 16.8026L14.515 19.9304L15.2591 19.6109C15.2778 19.6031 17.1867 18.7915 19.0411 18.7915C20.883 18.7915 22.8236 19.6036 22.8418 19.6119L23.5848 19.9283L25.488 16.802L25.5628 16.2799C26.1375 17.942 26.9781 19.7018 28.1841 20.9862L27.8183 21.9718L27.8427 22.1916C28.2849 26.1581 28.6325 30.8904 28.4288 31.6043ZM28.9338 18.9666C26.9558 16.1889 26.3354 11.6728 26.2814 11.2602L26.6425 8.74289C28.1113 11.7284 29.6524 15.2719 29.7579 16.7506L28.9338 18.9666Z" fill="white"></path>
  <path fill-rule="evenodd" clip-rule="evenodd" d="M21.2441 38.2673H16.8677C16.8677 38.2673 16.2795 39.2919 16.2795 39.6245C16.2795 40.6117 18.973 42.1839 18.973 42.1839C18.973 42.1839 21.8177 40.5649 21.8177 39.6245C21.8177 39.1761 21.2441 38.2673 21.2441 38.2673Z" fill="white"></path>
  <path fill-rule="evenodd" clip-rule="evenodd" d="M20.4002 41.2773C20.156 40.845 19.8411 40.766 19.6967 41.0996C19.5528 41.4331 19.6349 42.054 19.8786 42.4853C20.1228 42.9176 20.4381 42.9965 20.5821 42.663C20.727 42.3299 20.6444 41.7085 20.4002 41.2773Z" fill="white"></path>
  <path fill-rule="evenodd" clip-rule="evenodd" d="M17.6969 41.2773C17.4527 41.7085 17.3711 42.3299 17.5151 42.663C17.659 42.9965 17.9733 42.9176 18.2186 42.4853C18.4628 42.054 18.5443 41.4331 18.4004 41.0996C18.256 40.766 17.9411 40.845 17.6969 41.2773Z" fill="white"></path>
  <path fill-rule="evenodd" clip-rule="evenodd" d="M9.16911 36.0659C7.32201 33.615 7.03728 32.8829 6.94064 32.6351C6.53641 31.5944 6.65124 28.1241 7.28356 22.3173L5.37516 17.2374V16.88C5.37516 16.2372 5.55181 15.394 5.84174 14.4468C3.71667 14.9331 2.57983 15.3612 2.57983 15.3612V42.903L8.01305 46.7988L9.16911 36.0659Z" fill="white"></path>
</svg>
