<svg width="400" height="144" viewBox="0 0 400 144" fill="none" xmlns="http://www.w3.org/2000/svg">
<path d="M332.552 67.893L332.281 69.7008C332.281 70.0624 332.102 70.3336 332.011 70.424C331.832 70.6049 331.562 70.6048 331.293 70.5145C331.112 70.5145 330.843 70.424 330.483 70.424C330.123 70.424 329.764 70.3336 329.495 70.3336C328.415 70.3336 327.336 70.424 326.347 70.6952C325.358 70.9664 324.549 71.3279 323.919 71.8703V91.666C323.919 92.0276 323.829 92.2988 323.65 92.4796C323.469 92.6604 323.2 92.7508 322.84 92.7508H320.593C320.233 92.7508 319.963 92.6604 319.784 92.4796C319.603 92.2988 319.513 92.0276 319.513 91.666V67.9835C319.513 67.6219 319.603 67.3507 319.784 67.17C319.963 66.9891 320.233 66.8988 320.593 66.8988H322.21C322.57 66.8988 322.84 66.9891 323.02 67.17C323.2 67.3507 323.29 67.6219 323.38 67.9835L323.56 69.4297C324.549 68.345 325.627 67.6219 326.796 67.2603C327.966 66.8988 329.135 66.6277 330.303 66.718C330.573 66.718 330.933 66.718 331.202 66.8084C331.472 66.8084 331.653 66.8988 331.832 66.8988C332.192 66.9891 332.371 67.0795 332.461 67.2603C332.641 67.2603 332.641 67.5316 332.552 67.893ZM304.858 69.7913C303.06 69.8817 301.711 70.3336 300.721 71.2375C299.733 72.1414 299.013 73.1358 298.653 74.2205C298.203 75.3052 298.024 76.2091 298.024 76.8418H310.612C310.612 76.5707 310.703 76.2091 310.703 75.9379C310.703 73.9494 310.162 72.503 309.173 71.4184C308.094 70.3336 306.656 69.7913 304.858 69.7913ZM305.486 93.5643C301.351 93.5643 298.294 92.3892 296.405 90.0391C294.427 87.6888 293.438 84.254 293.528 79.8247C293.528 77.4746 293.888 75.3052 294.697 73.3166C295.506 71.2375 296.676 69.6105 298.384 68.345C300.092 67.0795 302.161 66.4468 304.768 66.3564C308.185 66.3564 310.792 67.2603 312.501 68.9778C314.209 70.6952 315.018 73.1358 315.018 76.2091C315.018 76.8418 315.018 77.3842 314.927 77.9265C314.838 78.4689 314.838 78.8305 314.748 79.1017C314.658 79.4632 314.569 79.7344 314.388 79.9152C314.209 80.0959 313.939 80.1863 313.579 80.1863H297.935C297.935 83.7116 298.744 86.2426 300.361 87.7792C301.98 89.3159 304.228 90.0391 307.105 89.9486C308.094 89.9486 309.084 89.8582 310.072 89.6775C311.061 89.4966 311.87 89.3159 312.59 89.0447C312.95 88.9543 313.219 88.9543 313.4 89.0447C313.579 89.1352 313.669 89.4063 313.759 89.6775L314.028 91.2141C314.119 91.5757 314.028 91.8469 313.939 92.0276C313.759 92.2085 313.579 92.3892 313.219 92.4796C312.141 92.8412 311.061 93.1124 309.802 93.2931C308.454 93.4739 307.016 93.5643 305.486 93.5643ZM272.848 71.3279V91.8469C272.848 92.2085 272.758 92.4796 272.578 92.6604C272.399 92.8412 272.128 92.9315 271.768 92.9315H269.521C269.161 92.9315 268.892 92.8412 268.712 92.6604C268.532 92.4796 268.443 92.2085 268.443 91.8469V70.1529C268.443 69.4297 268.712 68.8874 269.431 68.6162C270.869 67.9835 272.578 67.4411 274.467 66.9891C276.354 66.5372 278.243 66.3564 280.131 66.2661C281.929 66.2661 283.458 66.4468 284.807 66.8988C286.155 67.3507 287.235 68.2546 287.953 69.5201C288.673 70.7856 289.122 72.6839 289.122 75.034V91.7565C289.122 92.1181 289.033 92.3892 288.852 92.5699C288.673 92.7508 288.403 92.8412 288.044 92.8412H285.886C285.526 92.8412 285.256 92.7508 285.077 92.5699C284.896 92.3892 284.807 92.1181 284.807 91.7565V75.8475C284.807 73.4069 284.268 71.78 283.278 71.0568C282.289 70.2433 281.03 69.8817 279.502 69.9721C278.333 69.9721 277.164 70.0624 275.905 70.3336C275.006 70.5145 273.837 70.8761 272.848 71.3279ZM263.946 90.1294L264.217 91.3046C264.306 91.666 264.306 91.9372 264.127 92.2085C264.036 92.3892 263.767 92.5699 263.407 92.7508C262.868 92.9315 262.238 93.1124 261.609 93.2027C260.979 93.2931 260.17 93.3836 259.271 93.3836C256.484 93.3836 254.686 92.8412 253.696 91.7565C252.797 90.6718 252.348 88.7736 252.348 86.2426V70.424H250.46C250.1 70.424 249.83 70.3336 249.651 70.1529C249.47 69.9721 249.38 69.7008 249.38 69.3394V67.9835C249.38 67.6219 249.47 67.3507 249.651 67.17C249.83 66.9891 250.1 66.8988 250.46 66.8988H252.348V60.8426C252.348 60.481 252.437 60.2098 252.618 60.029C252.797 59.8482 253.067 59.7578 253.427 59.7578H255.675C256.035 59.7578 256.303 59.8482 256.484 60.029C256.663 60.2098 256.753 60.481 256.753 60.8426V66.8988H264.127C264.485 66.8988 264.756 66.9891 264.845 67.17C264.936 67.3507 265.026 67.6219 264.936 67.9835L264.666 69.3394C264.576 69.7008 264.485 69.9721 264.306 70.1529C264.127 70.3336 263.857 70.424 263.497 70.424H256.753V86.7849C256.663 87.6888 256.844 88.412 257.113 89.0447C257.383 89.6775 258.192 89.9486 259.541 89.9486C260.17 89.9486 260.8 89.8582 261.339 89.7679C261.878 89.6775 262.419 89.587 262.958 89.4063C263.318 89.3159 263.586 89.3159 263.767 89.4063C263.946 89.4967 263.857 89.7679 263.946 90.1294ZM245.964 67.893L245.695 69.7008C245.695 70.0624 245.514 70.3336 245.424 70.424C245.244 70.6049 244.975 70.6048 244.705 70.5145C244.525 70.5145 244.255 70.424 243.895 70.424C243.535 70.424 243.177 70.3336 242.907 70.3336C241.827 70.3336 240.749 70.424 239.76 70.6952C238.77 70.9664 237.961 71.3279 237.332 71.8703V91.666C237.332 92.0276 237.242 92.2988 237.062 92.4796C236.883 92.6604 236.612 92.7508 236.252 92.7508H234.005C233.645 92.7508 233.376 92.6604 233.196 92.4796C233.016 92.2988 232.927 92.0276 232.927 91.666V67.9835C232.927 67.6219 233.016 67.3507 233.196 67.17C233.376 66.9891 233.645 66.8988 234.005 66.8988H235.624C235.984 66.8988 236.252 66.9891 236.433 67.17C236.612 67.3507 236.702 67.6219 236.793 67.9835L236.972 69.4297C237.961 68.345 239.04 67.6219 240.21 67.2603C241.378 66.8988 242.547 66.6277 243.716 66.718C243.986 66.718 244.345 66.718 244.615 66.8084C244.885 66.8084 245.065 66.8988 245.244 66.8988C245.604 66.9891 245.784 67.0795 245.874 67.2603C245.964 67.2603 245.964 67.5316 245.964 67.893ZM223.395 89.4063V81.8134C222.766 81.6326 222.046 81.4518 221.237 81.3614C220.428 81.2711 219.709 81.1807 218.9 81.1807C217.191 81.1807 215.662 81.5423 214.314 82.2653C212.965 82.9885 212.335 84.3443 212.246 86.1523C212.335 87.8697 212.965 88.9543 214.224 89.4967C215.483 90.0391 216.832 90.3102 218.361 90.3102C219.26 90.3102 220.159 90.2198 221.058 90.0391C221.957 89.8582 222.766 89.6775 223.395 89.4063ZM227.711 75.6668V90.6718C227.711 91.0333 227.621 91.3046 227.442 91.4853C227.261 91.666 226.992 91.8469 226.632 91.9372C225.913 92.2085 224.654 92.4796 222.945 92.8412C221.237 93.2027 219.349 93.3836 217.281 93.3836C215.752 93.3836 214.224 93.2027 212.786 92.7508C211.347 92.2988 210.177 91.5757 209.278 90.491C208.379 89.4063 207.93 87.9601 207.84 86.1523C207.84 84.0731 208.379 82.5365 209.278 81.3614C210.268 80.1863 211.436 79.3729 212.965 78.9208C214.494 78.4689 216.022 78.1978 217.731 78.1978C218.81 78.1978 219.799 78.2881 220.698 78.4689C221.686 78.6497 222.496 78.8305 223.305 79.0113V75.8475C223.395 74.0397 223.036 72.5934 222.317 71.6895C221.597 70.6952 220.159 70.2433 218.001 70.2433C216.921 70.2433 215.752 70.3336 214.584 70.6048C213.415 70.7856 212.335 71.0568 211.436 71.3279C211.078 71.4184 210.807 71.4184 210.627 71.3279C210.448 71.2375 210.268 70.9664 210.177 70.6048L209.908 69.249C209.819 68.8874 209.819 68.6162 209.819 68.4355C209.908 68.2546 210.088 68.0739 210.448 67.9835C211.527 67.6219 212.876 67.2603 214.403 66.9891C215.932 66.718 217.371 66.5372 218.63 66.5372C221.867 66.5372 224.115 67.2603 225.553 68.7969C226.992 70.1529 227.711 72.503 227.711 75.6668ZM205.052 79.4632C205.052 81.9942 204.694 84.4347 203.974 86.6041C203.254 88.7736 201.995 90.491 200.197 91.8469C198.399 93.2027 195.971 93.8354 192.914 93.9259C192.015 93.9259 191.027 93.8354 190.128 93.6547C189.227 93.4739 188.328 93.2027 187.519 92.9315V103.236C187.519 103.598 187.429 103.869 187.25 104.05C187.069 104.231 186.8 104.321 186.441 104.321H184.283C183.923 104.321 183.653 104.231 183.473 104.05C183.294 103.869 183.203 103.598 183.203 103.236V69.6105C183.203 69.249 183.294 68.9778 183.384 68.7066C183.563 68.4355 183.744 68.2546 184.102 68.1643C185.542 67.7123 187.069 67.2603 188.869 66.9891C190.577 66.6277 192.285 66.5372 193.994 66.4468C196.061 66.4468 197.86 66.8084 199.478 67.5316C201.096 68.2546 202.355 69.6105 203.344 71.5088C204.513 73.4974 204.963 76.1187 205.052 79.4632ZM187.519 70.9664V89.0447C188.328 89.4063 189.227 89.6775 190.217 89.8582C191.206 90.0391 192.195 90.1294 193.094 90.1294C195.881 90.0391 197.86 88.9543 199.028 86.9657C200.197 84.9771 200.736 82.4462 200.647 79.4632C200.647 75.7572 199.927 73.2262 198.669 71.8703C197.411 70.5145 195.702 69.8817 193.724 69.8817C192.825 69.8817 191.836 69.9721 190.756 70.1529C189.678 70.3336 188.598 70.6048 187.519 70.9664ZM334.978 90.6718L335.519 89.1352C335.608 88.7736 335.788 88.5927 335.968 88.5024C336.148 88.412 336.418 88.412 336.778 88.5927C337.406 88.7736 338.126 89.0447 339.115 89.2255C340.104 89.4063 341.183 89.587 342.442 89.587C344.24 89.587 345.499 89.1352 346.398 88.412C347.207 87.6888 347.657 86.8753 347.657 85.881C347.567 84.4347 346.937 83.3501 345.678 82.6269C344.419 81.9037 343.071 81.3614 341.452 80.8191C339.835 80.2768 338.395 79.5536 337.227 78.4689C335.968 77.4746 335.338 75.9379 335.249 73.7685C335.249 71.4184 336.058 69.5201 337.677 68.1643C339.294 66.8084 341.452 66.0852 344.24 66.0852C345.678 66.0852 346.937 66.2661 348.017 66.5372C349.005 66.8084 349.725 66.9891 349.994 67.0795C350.354 67.17 350.534 67.3507 350.624 67.6219C350.714 67.893 350.714 68.1643 350.624 68.4355L350.264 69.7008C350.174 70.0624 350.085 70.2433 349.815 70.3336C349.635 70.424 349.365 70.424 349.095 70.424C348.826 70.3336 348.196 70.2433 347.387 70.0624C346.577 69.8817 345.589 69.7913 344.51 69.7913C343.16 69.7913 341.992 69.9721 340.913 70.5145C339.924 71.0568 339.385 71.9607 339.294 73.3166C339.385 74.7629 340.014 75.7572 341.273 76.4803C342.532 77.113 343.97 77.7458 345.589 78.2881C347.207 78.8305 348.645 79.5536 349.904 80.5479C351.163 81.5423 351.793 83.0789 351.883 85.1579C351.883 87.3273 351.074 89.2255 349.544 90.7621C348.017 92.3892 345.589 93.2027 342.261 93.2931C340.823 93.2931 339.475 93.1124 338.305 92.8412C337.136 92.5699 336.148 92.2085 335.428 91.8469C335.159 91.666 334.978 91.4853 334.889 91.3046C334.889 91.2141 334.889 90.943 334.978 90.6718Z" fill="white"/>
<path d="M96.9726 88.3238C89.4197 95.7359 83.4855 101.34 75.8428 101.34C60.5573 101.34 58.3095 76.1209 57.5002 59.76C53.9037 58.4041 49.6777 56.5058 48.8685 55.8731C47.25 54.6077 47.9693 52.7999 50.397 53.1614C51.2962 53.2518 54.8927 53.975 57.5002 54.0653C57.4103 41.2298 60.0178 30.1115 60.6472 28.7556C61.0069 27.9421 61.4564 27.1286 63.4346 27.1286C67.4807 27.1286 73.6848 30.2923 75.0335 31.4674C76.2923 32.5521 76.9217 33.1849 76.1125 34.9927C74.494 38.6083 72.6957 47.6474 71.9764 53.8845C78.0905 53.7941 84.5644 51.896 85.9131 51.444C87.3518 50.9919 88.0711 51.7151 88.3408 52.7095C88.7005 54.3364 88.161 60.8447 85.5535 62.3813C84.2047 63.1948 81.9569 64.2796 71.3471 63.0141C70.358 79.2846 73.3252 87.6006 75.5731 91.0355C76.9217 93.2049 77.7309 94.4704 80.2486 93.5665C84.2047 92.2106 91.8475 86.5159 95.444 82.4483C94.0954 75.217 93.1063 69.9742 93.2861 56.5963C93.5558 38.7892 96.3432 28.846 97.6919 24.5072C98.8608 20.1684 100.659 19.4453 102.367 19.4453C104.885 19.4453 119.451 22.0667 120.98 36.4389C121.789 43.6702 116.214 60.2119 107.582 74.6746C108.571 81.7252 110.28 87.6006 110.999 89.77C112.348 94.0184 114.146 94.5607 117.023 92.8433C121.789 90.1316 126.554 82.358 126.554 82.358C122.688 70.3358 124.127 58.9464 125.835 57.229C126.554 56.4155 127.094 56.4155 128.083 56.5058C129.971 56.777 132.309 57.4098 134.467 58.3137C135.815 58.8561 137.074 59.4889 138.153 60.3023C139.502 61.2967 139.862 62.2909 139.862 63.8276C139.862 65.7258 138.333 70.1551 136.895 73.861C136.445 81.1828 140.851 89.8604 143.278 92.7529C144.537 94.1992 145.346 94.1088 146.695 92.7529C156.226 83.2619 156.316 67.8048 153.439 60.9351C153.259 60.4831 153.079 60.2119 152.45 60.0312C150.382 59.308 149.932 57.7713 151.371 57.229C153.529 56.4155 159.463 56.5058 165.217 59.76C177.536 66.6297 158.204 101.34 144.627 101.34C138.873 101.34 132.848 96.5494 128.892 88.5045C123.407 95.9166 118.642 101.34 111.808 101.34C105.874 101.34 100.299 97.2726 96.9726 88.3238ZM112.438 33.7272C112.168 32.4617 111.179 32.2809 110.55 33.456C108.751 36.8005 106.144 48.3706 106.593 65.8163C111.449 54.8789 113.517 38.1564 112.438 33.7272Z" fill="white"/>
</svg>
