<?xml version="1.0" encoding="UTF-8"?>
<svg xmlns="http://www.w3.org/2000/svg" width="160" height="45" viewBox="0 0 160 45" fill="none">
  <path d="M149.336 25.8265L149.195 26.7725C149.195 26.9617 149.101 27.1035 149.053 27.1509C148.959 27.2455 148.817 27.2454 148.676 27.1982C148.581 27.1982 148.44 27.1509 148.251 27.1509C148.062 27.1509 147.873 27.1035 147.732 27.1035C147.166 27.1035 146.599 27.1509 146.08 27.2927C145.561 27.4346 145.136 27.6238 144.806 27.9076V38.2659C144.806 38.4551 144.759 38.597 144.665 38.6916C144.57 38.7862 144.429 38.8335 144.24 38.8335H143.06C142.871 38.8335 142.73 38.7862 142.636 38.6916C142.541 38.597 142.494 38.4551 142.494 38.2659V25.8738C142.494 25.6846 142.541 25.5427 142.636 25.4482C142.73 25.3535 142.871 25.3063 143.06 25.3063H143.909C144.098 25.3063 144.24 25.3535 144.334 25.4482C144.429 25.5427 144.476 25.6846 144.523 25.8738L144.618 26.6306C145.136 26.063 145.702 25.6846 146.316 25.4954C146.93 25.3063 147.543 25.1644 148.156 25.2116C148.298 25.2116 148.487 25.2116 148.628 25.259C148.77 25.259 148.865 25.3063 148.959 25.3063C149.148 25.3535 149.242 25.4008 149.289 25.4954C149.384 25.4954 149.384 25.6374 149.336 25.8265ZM134.802 26.8198C133.859 26.8671 133.151 27.1035 132.631 27.5765C132.112 28.0495 131.735 28.5698 131.546 29.1374C131.31 29.705 131.216 30.1779 131.216 30.509H137.822C137.822 30.3671 137.87 30.1779 137.87 30.036C137.87 28.9955 137.586 28.2387 137.067 27.6712C136.501 27.1035 135.746 26.8198 134.802 26.8198ZM135.132 39.2591C132.962 39.2591 131.358 38.6443 130.366 37.4145C129.328 36.1847 128.809 34.3875 128.856 32.0698C128.856 30.8401 129.045 29.705 129.47 28.6644C129.894 27.5765 130.508 26.7252 131.405 26.063C132.301 25.4008 133.387 25.0697 134.755 25.0224C136.548 25.0224 137.917 25.4954 138.813 26.3941C139.71 27.2927 140.135 28.5698 140.135 30.1779C140.135 30.509 140.135 30.7928 140.087 31.0766C140.04 31.3604 140.04 31.5496 139.993 31.6915C139.946 31.8806 139.899 32.0226 139.804 32.1172C139.71 32.2117 139.568 32.259 139.379 32.259H131.169C131.169 34.1036 131.594 35.428 132.442 36.2321C133.292 37.0361 134.471 37.4145 135.982 37.3672C136.501 37.3672 137.02 37.3199 137.539 37.2253C138.058 37.1307 138.483 37.0361 138.86 36.8942C139.049 36.8469 139.19 36.8469 139.285 36.8942C139.379 36.9416 139.426 37.0835 139.474 37.2253L139.615 38.0294C139.663 38.2186 139.615 38.3605 139.568 38.4551C139.474 38.5497 139.379 38.6443 139.19 38.6916C138.624 38.8808 138.058 39.0227 137.397 39.1173C136.689 39.2118 135.935 39.2591 135.132 39.2591ZM118.003 27.6238V38.3605C118.003 38.5497 117.956 38.6916 117.861 38.7862C117.767 38.8808 117.625 38.928 117.436 38.928H116.257C116.068 38.928 115.927 38.8808 115.832 38.7862C115.738 38.6916 115.691 38.5497 115.691 38.3605V27.009C115.691 26.6306 115.832 26.3468 116.21 26.2049C116.964 25.8738 117.861 25.59 118.852 25.3535C119.843 25.1171 120.834 25.0224 121.825 24.9752C122.769 24.9752 123.571 25.0697 124.279 25.3063C124.987 25.5427 125.553 26.0157 125.93 26.6779C126.308 27.3401 126.544 28.3333 126.544 29.5631V38.3132C126.544 38.5024 126.497 38.6443 126.402 38.7388C126.308 38.8335 126.166 38.8808 125.978 38.8808H124.846C124.657 38.8808 124.515 38.8335 124.421 38.7388C124.326 38.6443 124.279 38.5024 124.279 38.3132V29.9887C124.279 28.7117 123.996 27.8604 123.476 27.482C122.958 27.0563 122.297 26.8671 121.495 26.9144C120.881 26.9144 120.268 26.9617 119.607 27.1035C119.135 27.1982 118.522 27.3874 118.003 27.6238ZM113.331 37.4618L113.473 38.0767C113.52 38.2659 113.52 38.4078 113.426 38.5497C113.378 38.6443 113.237 38.7388 113.048 38.8335C112.765 38.928 112.434 39.0227 112.104 39.0699C111.774 39.1173 111.349 39.1646 110.877 39.1646C109.415 39.1646 108.471 38.8808 107.951 38.3132C107.48 37.7456 107.244 36.7524 107.244 35.428V27.1509H106.253C106.064 27.1509 105.922 27.1035 105.828 27.009C105.734 26.9144 105.686 26.7725 105.686 26.5833V25.8738C105.686 25.6846 105.734 25.5427 105.828 25.4482C105.922 25.3535 106.064 25.3063 106.253 25.3063H107.244V22.1373C107.244 21.9481 107.291 21.8062 107.386 21.7116C107.48 21.617 107.621 21.5697 107.81 21.5697H108.99C109.179 21.5697 109.32 21.617 109.415 21.7116C109.509 21.8062 109.556 21.9481 109.556 22.1373V25.3063H113.426C113.614 25.3063 113.756 25.3535 113.803 25.4482C113.851 25.5427 113.898 25.6846 113.851 25.8738L113.709 26.5833C113.662 26.7725 113.614 26.9144 113.52 27.009C113.426 27.1035 113.284 27.1509 113.095 27.1509H109.556V35.7118C109.509 36.1848 109.604 36.5632 109.745 36.8942C109.886 37.2253 110.311 37.3672 111.019 37.3672C111.349 37.3672 111.68 37.3199 111.963 37.2727C112.246 37.2253 112.529 37.178 112.812 37.0835C113.001 37.0361 113.142 37.0361 113.237 37.0835C113.331 37.1308 113.284 37.2727 113.331 37.4618ZM103.893 25.8265L103.752 26.7725C103.752 26.9617 103.657 27.1035 103.61 27.1509C103.516 27.2455 103.374 27.2454 103.233 27.1982C103.139 27.1982 102.997 27.1509 102.808 27.1509C102.619 27.1509 102.431 27.1035 102.289 27.1035C101.722 27.1035 101.156 27.1509 100.638 27.2927C100.118 27.4346 99.6933 27.6238 99.3633 27.9076V38.2659C99.3633 38.4551 99.3162 38.597 99.2215 38.6916C99.1274 38.7862 98.9855 38.8335 98.7967 38.8335H97.6171C97.4283 38.8335 97.2871 38.7862 97.1924 38.6916C97.0983 38.597 97.0512 38.4551 97.0512 38.2659V25.8738C97.0512 25.6846 97.0983 25.5427 97.1924 25.4482C97.2871 25.3535 97.4283 25.3063 97.6171 25.3063H98.4667C98.6556 25.3063 98.7967 25.3535 98.8915 25.4482C98.9856 25.5427 99.0326 25.6846 99.0803 25.8738L99.1744 26.6306C99.6933 26.063 100.26 25.6846 100.874 25.4954C101.486 25.3063 102.1 25.1644 102.714 25.2116C102.856 25.2116 103.044 25.2116 103.186 25.259C103.327 25.259 103.421 25.3063 103.516 25.3063C103.704 25.3535 103.799 25.4008 103.846 25.4954C103.893 25.4954 103.893 25.6374 103.893 25.8265ZM92.0487 37.0835V33.1104C91.7187 33.0158 91.341 32.9212 90.9162 32.8739C90.4915 32.8267 90.1144 32.7793 89.6896 32.7793C88.793 32.7793 87.9906 32.9685 87.2828 33.3469C86.5751 33.7253 86.2444 34.4347 86.1974 35.3808C86.2444 36.2794 86.5751 36.8469 87.2358 37.1308C87.8965 37.4145 88.6042 37.5564 89.4067 37.5564C89.8785 37.5564 90.3503 37.5091 90.8221 37.4145C91.294 37.3199 91.7187 37.2253 92.0487 37.0835ZM94.3137 29.8942V37.7456C94.3137 37.9348 94.2667 38.0767 94.1726 38.1713C94.0778 38.2659 93.9367 38.3605 93.7478 38.4077C93.3701 38.5497 92.7094 38.6916 91.8128 38.8808C90.9162 39.0699 89.9255 39.1646 88.8401 39.1646C88.0376 39.1646 87.2358 39.0699 86.481 38.8335C85.7255 38.597 85.1119 38.2186 84.6401 37.651C84.1683 37.0835 83.9324 36.3267 83.8853 35.3808C83.8853 34.2928 84.1683 33.4888 84.6401 32.8739C85.1596 32.259 85.7726 31.8334 86.5751 31.5969C87.3776 31.3604 88.1794 31.2185 89.076 31.2185C89.6426 31.2185 90.1615 31.2658 90.6333 31.3604C91.1521 31.455 91.5769 31.5496 92.0017 31.6442V29.9887C92.0487 29.0428 91.8606 28.286 91.4828 27.813C91.1051 27.2927 90.3503 27.0563 89.2178 27.0563C88.6512 27.0563 88.0376 27.1035 87.4246 27.2454C86.811 27.3401 86.2444 27.482 85.7726 27.6238C85.5844 27.6712 85.4426 27.6712 85.3478 27.6238C85.2537 27.5765 85.1596 27.4346 85.1119 27.2454L84.9708 26.536C84.9237 26.3468 84.9237 26.2049 84.9237 26.1103C84.9708 26.0157 85.0649 25.9211 85.2537 25.8738C85.8203 25.6846 86.5281 25.4954 87.3299 25.3535C88.1324 25.2116 88.8871 25.1171 89.5478 25.1171C91.2469 25.1171 92.4265 25.4954 93.1812 26.2995C93.9367 27.009 94.3137 28.2387 94.3137 29.8942ZM82.4221 31.8806C82.4221 33.205 82.234 34.482 81.8562 35.6172C81.4785 36.7524 80.8178 37.651 79.8742 38.3605C78.9306 39.0699 77.6562 39.401 76.0519 39.4483C75.5801 39.4483 75.0612 39.401 74.5894 39.3065C74.1169 39.2118 73.6451 39.0699 73.2203 38.928V44.32C73.2203 44.5092 73.1733 44.6511 73.0792 44.7457C72.9844 44.8403 72.8433 44.8876 72.6544 44.8876H71.5219C71.3331 44.8876 71.1912 44.8403 71.0971 44.7457C71.003 44.6511 70.9553 44.5092 70.9553 44.32V26.7252C70.9553 26.536 71.003 26.3941 71.0501 26.2522C71.1442 26.1103 71.239 26.0157 71.4271 25.9685C72.1826 25.7319 72.9844 25.4954 73.9287 25.3535C74.8253 25.1644 75.7219 25.1171 76.6185 25.0697C77.7033 25.0697 78.6476 25.259 79.4965 25.6374C80.346 26.0157 81.0067 26.7252 81.5255 27.7185C82.1392 28.759 82.3751 30.1306 82.4221 31.8806ZM73.2203 27.4346V36.8942C73.6451 37.0835 74.1169 37.2253 74.6365 37.3199C75.1553 37.4145 75.6742 37.4618 76.146 37.4618C77.6092 37.4145 78.6476 36.8469 79.2606 35.8064C79.8742 34.7658 80.1571 33.4415 80.1101 31.8806C80.1101 29.9415 79.7324 28.6171 79.0724 27.9076C78.4117 27.1982 77.5151 26.8671 76.4767 26.8671C76.0049 26.8671 75.486 26.9144 74.9194 27.009C74.3535 27.1035 73.7869 27.2454 73.2203 27.4346ZM150.61 37.7456L150.894 36.9416C150.941 36.7524 151.035 36.6577 151.13 36.6105C151.224 36.5632 151.366 36.5632 151.554 36.6577C151.884 36.7524 152.262 36.8943 152.781 36.9888C153.3 37.0835 153.866 37.178 154.527 37.178C155.471 37.178 156.131 36.9416 156.603 36.5632C157.028 36.1848 157.264 35.7591 157.264 35.2388C157.217 34.482 156.886 33.9145 156.226 33.5361C155.565 33.1577 154.857 32.8739 154.008 32.5901C153.159 32.3064 152.403 31.928 151.79 31.3604C151.13 30.8401 150.799 30.036 150.752 28.9009C150.752 27.6712 151.177 26.6779 152.026 25.9685C152.875 25.259 154.008 24.8805 155.471 24.8805C156.226 24.8805 156.886 24.9752 157.453 25.1171C157.972 25.259 158.349 25.3535 158.491 25.4008C158.679 25.4482 158.774 25.5427 158.821 25.6846C158.868 25.8265 158.868 25.9685 158.821 26.1103L158.632 26.7725C158.585 26.9617 158.538 27.0563 158.396 27.1035C158.302 27.1509 158.161 27.1509 158.019 27.1509C157.878 27.1035 157.547 27.0563 157.122 26.9617C156.697 26.8671 156.179 26.8198 155.613 26.8198C154.904 26.8198 154.291 26.9144 153.725 27.1982C153.206 27.482 152.923 27.9549 152.875 28.6644C152.923 29.4212 153.253 29.9415 153.914 30.3198C154.574 30.6509 155.329 30.982 156.179 31.2658C157.028 31.5496 157.783 31.928 158.444 32.4483C159.104 32.9685 159.435 33.7726 159.482 34.8605C159.482 35.9956 159.057 36.9888 158.255 37.7929C157.453 38.6443 156.179 39.0699 154.432 39.1173C153.678 39.1173 152.97 39.0227 152.356 38.8808C151.743 38.7388 151.224 38.5497 150.846 38.3605C150.705 38.2659 150.61 38.1713 150.563 38.0767C150.563 38.0294 150.563 37.8875 150.61 37.7456Z" fill="white"></path>
  <path d="M25.7018 36.5158C21.7379 40.3942 18.6235 43.3267 14.6125 43.3267C6.59034 43.3267 5.41062 30.1305 4.98592 21.5696C3.09837 20.8601 0.880493 19.8669 0.455793 19.5358C-0.393606 18.8737 -0.0160956 17.9277 1.258 18.1168C1.72989 18.1642 3.61745 18.5426 4.98592 18.5898C4.93873 11.8736 6.30721 6.05589 6.63753 5.34642C6.8263 4.92074 7.0622 4.49506 8.10041 4.49506C10.2239 4.49506 13.4799 6.15049 14.1878 6.76536C14.8484 7.33294 15.1787 7.66403 14.754 8.60998C13.9046 10.5019 12.9608 15.2317 12.5833 18.4953C15.7921 18.4479 19.1898 17.4547 19.8976 17.2182C20.6526 16.9817 21.0301 17.3601 21.1717 17.8804C21.3605 18.7317 21.0773 22.1372 19.7088 22.9413C19.001 23.3669 17.8213 23.9345 12.253 23.2723C11.734 31.786 13.2912 36.1374 14.4709 37.9347C15.1787 39.0699 15.6034 39.732 16.9247 39.2591C19.001 38.5496 23.012 35.5698 24.8996 33.4414C24.1918 29.6576 23.6727 26.9143 23.7671 19.9142C23.9086 10.5965 25.3715 5.39372 26.0793 3.12342C26.6928 0.853115 27.6365 0.474731 28.5331 0.474731C29.8544 0.474731 37.499 1.84637 38.3013 9.36673C38.7259 13.1505 35.8002 21.8061 31.2701 29.3738C31.7892 33.063 32.6858 36.1374 33.0633 37.2725C33.7711 39.4955 34.7149 39.7793 36.2249 38.8807C38.7259 37.4617 41.227 33.3941 41.227 33.3941C39.1979 27.1035 39.9528 21.1439 40.8494 20.2453C41.227 19.8196 41.5101 19.8196 42.0292 19.8669C43.0201 20.0088 44.247 20.3398 45.3796 20.8128C46.0874 21.0967 46.748 21.4278 47.3143 21.8534C48.0222 22.3737 48.2109 22.8939 48.2109 23.698C48.2109 24.6913 47.4087 27.0089 46.6537 28.9481C46.4177 32.7792 48.73 37.3198 50.0041 38.8333C50.6648 39.5902 51.0894 39.5428 51.7972 38.8333C56.7993 33.8671 56.8465 25.7791 55.3364 22.1845C55.2421 21.948 55.1476 21.8061 54.8174 21.7115C53.732 21.3331 53.4961 20.529 54.251 20.2453C55.3836 19.8196 58.4981 19.8669 61.5181 21.5696C67.983 25.1643 57.8374 43.3267 50.7119 43.3267C47.6918 43.3267 44.5302 40.8199 42.4539 36.6103C39.5753 40.4888 37.0743 43.3267 33.488 43.3267C30.3735 43.3267 27.4478 41.1983 25.7018 36.5158ZM33.8183 7.9478C33.6767 7.28564 33.1576 7.19104 32.8274 7.80591C31.8836 9.55594 30.5151 15.6101 30.751 24.7386C33.2993 19.0155 34.3846 10.2654 33.8183 7.9478Z" fill="white"></path>
</svg>
