<svg width="15" height="18" viewBox="0 0 15 18" fill="none" xmlns="http://www.w3.org/2000/svg"><path d="M7.5 0C3.77231 0 0.75 3.02231 0.75 6.75C0.75 8.21784 1.23122 9.56475 2.03109 10.6678C2.04544 10.6943 2.04769 10.7238 2.064 10.7491L6.564 17.4991C6.77269 17.8121 7.12425 18 7.5 18C7.87575 18 8.22731 17.8121 8.436 17.4991L12.936 10.7491C12.9526 10.7238 12.9546 10.6943 12.9689 10.6678C13.7688 9.56475 14.25 8.21784 14.25 6.75C14.25 3.02231 11.2277 0 7.5 0ZM7.5 9C6.25744 9 5.25 7.99256 5.25 6.75C5.25 5.50744 6.25744 4.5 7.5 4.5C8.74256 4.5 9.75 5.50744 9.75 6.75C9.75 7.99256 8.74256 9 7.5 9Z" fill="#86AE4B"/></svg>