<svg width="19" height="16" viewBox="0 0 19 16" fill="none" xmlns="http://www.w3.org/2000/svg"><path fill-rule="evenodd" clip-rule="evenodd" d="M4.14662 0.899994H14.8534C15.2427 0.899985 15.5786 0.899976 15.8566 0.918942C16.1493 0.93892 16.4421 0.982851 16.7314 1.10266C17.3838 1.37289 17.9021 1.89122 18.1723 2.5436C18.2921 2.83286 18.336 3.12566 18.3561 3.41838C18.375 3.6964 18.375 4.0323 18.375 4.4216V11.5784C18.375 11.9677 18.375 12.3036 18.3561 12.5816C18.336 12.8743 18.2921 13.1671 18.1723 13.4564C17.9021 14.1087 17.3838 14.6271 16.7314 14.8973C16.4421 15.0171 16.1493 15.061 15.8566 15.0811C15.5786 15.1 15.2427 15.1 14.8534 15.1H4.14661C3.75731 15.1 3.42141 15.1 3.14339 15.0811C2.85066 15.061 2.55787 15.0171 2.26861 14.8973C1.61622 14.6271 1.0979 14.1087 0.82767 13.4564C0.707857 13.1671 0.663926 12.8743 0.643948 12.5816C0.624983 12.3036 0.624992 11.9677 0.625 11.5784V4.42161C0.624992 4.03231 0.624983 3.6964 0.643948 3.41838C0.663926 3.12566 0.707857 2.83286 0.82767 2.5436C1.0979 1.89122 1.61622 1.37289 2.26861 1.10266C2.55787 0.982851 2.85066 0.93892 3.14339 0.918942C3.42141 0.899976 3.75732 0.899985 4.14662 0.899994ZM2.68174 2.92152C3.00451 2.55264 3.5652 2.51526 3.93408 2.83803L8.91558 7.19681C9.25017 7.48959 9.74983 7.48959 10.0844 7.19681L15.066 2.83803C15.4348 2.51526 15.9955 2.55264 16.3182 2.92152C16.641 3.2904 16.6036 3.85108 16.2348 4.17385L11.2533 8.53267C10.2494 9.41103 8.7506 9.41103 7.74674 8.53267L2.76523 4.17385C2.39635 3.85108 2.35897 3.2904 2.68174 2.92152Z" fill="white"/></svg>