<svg width="22" height="20" viewBox="0 0 22 20" fill="none" xmlns="http://www.w3.org/2000/svg">
<path d="M6.32764 14.6693C-0.275077 8.06553 0.0408629 3.07133 3.06151 0.806379L3.73074 0.307919C3.9015 0.182287 4.09574 0.0922325 4.30196 0.0431002C4.50818 -0.00603206 4.72217 -0.0132412 4.93122 0.0219003C5.14028 0.0570418 5.34015 0.133818 5.51897 0.247673C5.69779 0.361529 5.85192 0.510144 5.97221 0.684699L7.65758 3.10975C7.88311 3.43431 7.98062 3.8308 7.93136 4.22294C7.88209 4.61507 7.68953 4.97513 7.39074 5.23381L5.76834 6.63633C5.36274 6.98749 5.16422 7.52011 5.34674 8.02497C5.68402 8.96425 6.50269 10.6219 8.43889 12.557C10.3751 14.4932 12.0316 15.3119 12.9709 15.6502C13.4769 15.8317 14.0095 15.6342 14.3606 15.2276L15.7632 13.6073C16.0218 13.3085 16.3819 13.1159 16.774 13.0667C17.1662 13.0174 17.5627 13.1149 17.8872 13.3404L20.3165 15.0269C20.4909 15.1468 20.6394 15.3005 20.7533 15.4789C20.8671 15.6573 20.9439 15.8568 20.9791 16.0655C21.0144 16.2742 21.0073 16.4878 20.9584 16.6937C20.9095 16.8996 20.8197 17.0936 20.6944 17.2641L20.1927 17.9397C17.9288 20.9582 12.9325 21.2731 6.32764 14.6693Z" fill="white"/>
</svg>
