<svg width="18" height="14" viewBox="0 0 18 14" fill="none" xmlns="http://www.w3.org/2000/svg">
    <g clip-path="url(#clip0_1328_17)">
    <path d="M17.6239 2.11229C17.4169 1.28085 16.8069 0.626027 16.0325 0.403805C14.6288 0 9 0 9 0C9 0 3.37127 0 1.96752 0.403805C1.19308 0.626063 0.583143 1.28085 0.376127 2.11229C0 3.61934 0 6.76364 0 6.76364C0 6.76364 0 9.90795 0.376127 11.415C0.583143 12.2464 1.19308 12.874 1.96752 13.0962C3.37127 13.5 9 13.5 9 13.5C9 13.5 14.6287 13.5 16.0325 13.0962C16.8069 12.874 17.4169 12.2464 17.6239 11.415C18 9.90795 18 6.76364 18 6.76364C18 6.76364 18 3.61934 17.6239 2.11229ZM7.15908 9.61843V3.90885L11.8636 6.76371L7.15908 9.61843Z" fill="#1E4397"/>
    </g>
    <defs>
    <clipPath id="clip0_1328_17">
    <rect width="18" height="13.5" fill="white"/>
    </clipPath>
    </defs>
    </svg>
    