<svg width="19" height="19" viewBox="0 0 19 19" fill="none" xmlns="http://www.w3.org/2000/svg">
<path d="M18.4574 13.4258L14.301 11.6445C14.1235 11.5689 13.9262 11.5529 13.7388 11.5991C13.5513 11.6453 13.384 11.7511 13.262 11.9006L11.4213 14.1495C8.53256 12.7875 6.20779 10.4627 4.84578 7.57395L7.09464 5.73329C7.24445 5.61145 7.35048 5.44412 7.39668 5.25663C7.44288 5.06914 7.42674 4.8717 7.3507 4.69421L5.56942 0.537886C5.48597 0.34655 5.33836 0.19033 5.15206 0.0961647C4.96576 0.00199922 4.75245 -0.02421 4.54889 0.0220565L0.689453 0.912697C0.493204 0.958015 0.31811 1.06851 0.192748 1.22616C0.067387 1.3838 -0.000838665 1.57929 -0.000793435 1.7807C-0.000793435 11.2994 7.71438 18.9998 17.2183 18.9998C17.4197 18.9999 17.6153 18.9317 17.773 18.8063C17.9307 18.681 18.0413 18.5058 18.0866 18.3095L18.9773 14.4501C19.0232 14.2455 18.9965 14.0314 18.9016 13.8444C18.8067 13.6575 18.6496 13.5095 18.4574 13.4258Z" fill="#1E4397"/>
</svg>
