<svg width="18" height="18" viewBox="0 0 30 30" fill="none" xmlns="http://www.w3.org/2000/svg">
<g clip-path="url(#clip0_368_46)">
<path d="M6.98298 9.65137H0.960433C0.693143 9.65137 0.476562 9.86804 0.476562 10.1352V29.4831C0.476562 29.7504 0.693143 29.967 0.960433 29.967H6.98298C7.25027 29.967 7.46685 29.7504 7.46685 29.4831V10.1352C7.46685 9.86804 7.25027 9.65137 6.98298 9.65137Z" fill="#7CE3E2"/>
<path d="M3.97413 0.0332031C1.78277 0.0332031 0 1.81404 0 4.00298C0 6.19288 1.78277 7.9744 3.97413 7.9744C6.16374 7.9744 7.94506 6.19278 7.94506 4.00298C7.94516 1.81404 6.16374 0.0332031 3.97413 0.0332031Z" fill="#7CE3E2"/>
<path d="M22.3023 9.17041C19.8834 9.17041 18.0953 10.2102 17.0108 11.3918V10.1352C17.0108 9.86796 16.7942 9.65128 16.5269 9.65128H10.7593C10.492 9.65128 10.2754 9.86796 10.2754 10.1352V29.483C10.2754 29.7503 10.492 29.9669 10.7593 29.9669H16.7686C17.0359 29.9669 17.2525 29.7503 17.2525 29.483V19.9103C17.2525 16.6845 18.1287 15.4278 20.3774 15.4278C22.8263 15.4278 23.0209 17.4425 23.0209 20.0763V29.4831C23.0209 29.7504 23.2375 29.967 23.5048 29.967H29.5164C29.7837 29.967 30.0003 29.7504 30.0003 29.4831V18.8705C30.0003 14.0739 29.0857 9.17041 22.3023 9.17041Z" fill="#7CE3E2"/>
</g>
<defs>
<clipPath id="clip0_368_46">
<rect width="30" height="30" fill="white"/>
</clipPath>
</defs>
</svg>
