<svg width="15" height="15" viewBox="0 0 15 15" fill="none" xmlns="http://www.w3.org/2000/svg">
<path d="M11.8171 8.35646L1.20742 8.37138C0.968663 8.37138 0.767113 8.28921 0.602769 8.12487C0.438425 7.96052 0.356453 7.75917 0.356851 7.52081C0.356851 7.28206 0.439023 7.08051 0.603366 6.91616C0.76771 6.75182 0.96906 6.66985 1.20742 6.67025L11.8171 6.68517L7.28077 2.14881C7.11165 1.97969 7.0271 1.78052 7.0271 1.55132C7.0271 1.32211 7.11165 1.12335 7.28077 0.955026C7.44989 0.785907 7.64905 0.701348 7.87826 0.701348C8.10747 0.701348 8.30623 0.785907 8.47455 0.955026L14.4435 6.92393C14.6126 7.09304 14.6971 7.29221 14.6971 7.52141C14.6971 7.75062 14.6126 7.94938 14.4435 8.1177L8.47455 14.0866C8.30544 14.2557 8.10627 14.3403 7.87707 14.3403C7.64786 14.3403 7.4491 14.2557 7.28077 14.0866C7.11165 13.9175 7.0271 13.7183 7.0271 13.4891C7.0271 13.2599 7.11166 13.0611 7.28077 12.8928L11.8171 8.35646Z" fill="#0F3D8B"/>
</svg>
