<svg width="892" height="721" viewBox="0 0 892 721" fill="none" xmlns="http://www.w3.org/2000/svg">
<circle cx="291.5" cy="291.5" r="291.5" fill="#E8F7FF"/>
<path d="M828.129 694.589C847.297 686.505 868.874 670.821 864.146 641.775C855.931 591.315 808.557 595.965 808.557 595.965C818.17 591.979 871.421 568.875 887.397 514.702C897.54 480.307 890.067 442.172 873.322 418.52C799.785 314.653 468.667 378.831 431.124 496.907C428.679 504.598 419.394 539.995 434.191 571.285C455.353 616.039 509.748 626.825 509.748 626.825C467.449 637.407 475.954 679.246 506.297 697.654C479.8 699.765 462.758 702.432 461.25 705.608C461.055 706.016 460.893 706.639 460.943 707.228C461.945 718.99 565.851 722.028 670.204 719.815C757.463 717.964 891.083 711.464 891.03 703.557C891.012 701.182 878.942 698.059 828.129 694.589Z" fill="#F8FCFF"/>
<path d="M721.559 510.055C721.559 510.055 712.338 598.521 717.954 612.141C723.57 625.761 740.505 619.235 740.76 611.6C741.014 603.965 761.029 520.005 761.029 520.005L721.559 510.055Z" fill="#FF8B6A"/>
<path d="M733.04 698.435C733.712 697.083 734.443 688.805 735.384 683.504C746.221 622.482 741.075 611.613 741.075 611.613C740.373 603.904 733.304 598.544 726.338 599.651C720.079 600.645 715.887 601.525 716.361 608.423C716.309 608.481 722.064 674.331 721.241 687.371C720.624 697.134 718.721 697.723 718.229 697.709C719.441 697.884 732.398 699.721 733.04 698.435Z" fill="#FF8B6A"/>
<path d="M761.619 519.646L721.13 509.441L721.071 510.004C720.998 510.702 713.824 580.076 716.103 605.008C715.857 606.003 715.783 607.132 715.873 608.457L715.902 608.454C715.898 608.869 715.979 609.852 716.191 612.43C719.681 654.789 721.215 679.993 720.752 687.339C720.703 688.098 720.647 688.777 720.585 689.422C723.468 690.019 726.381 690.467 729.317 690.582C731.185 690.656 733.037 690.601 734.873 690.424C735.186 688.041 735.508 685.617 735.868 683.59C746.239 625.192 742.049 612.686 741.557 611.489C741.521 611.115 741.464 610.721 741.383 610.291C743.131 597.266 761.324 520.887 761.507 520.116L761.619 519.646Z" fill="#105F9A"/>
<path d="M735.447 696.613C735.008 694.843 734.363 693.106 733.615 693.545C732.361 694.279 731.385 695.496 730.147 696.282C727.355 698.053 723.293 696.771 720.813 694.957C719.21 693.785 717.669 694.924 716.209 695.678C714.652 696.481 713.076 697.245 711.493 697.998C709.492 698.951 707.483 699.886 705.461 700.798C705.461 700.798 702.316 701.731 701.818 702.344C701.447 702.802 700.977 705.246 701.108 705.503C701.238 705.761 704.568 707.995 708.445 708.737C712.39 709.491 719.708 709.013 722.618 708.16C724.494 707.611 726.411 707.19 728.313 706.738C730.615 706.19 734.729 706.148 735.799 703.617C736.706 701.47 735.98 698.764 735.447 696.613Z" fill="#381905"/>
<path d="M735.785 511.154C735.785 511.154 746.424 599.462 754.922 611.496C763.421 623.529 778.485 613.409 777.039 605.907C775.592 598.405 776.479 512.097 776.479 512.097L735.785 511.154Z" fill="#FF8B6A"/>
<path d="M788.78 692.294C789.137 690.827 788.012 682.593 787.755 677.215C784.78 615.31 777.351 605.853 777.351 605.853C774.956 598.492 766.874 594.833 760.328 597.46C754.445 599.819 750.554 601.608 752.546 608.227C752.509 608.296 772.733 671.227 774.823 684.124C776.388 693.779 774.664 694.776 774.18 694.873C775.397 694.774 788.44 693.692 788.78 692.294Z" fill="#FF8B6A"/>
<path d="M774.675 686.552C779.448 686.362 784.225 685.534 788.823 684.455C788.588 681.94 788.347 679.356 788.243 677.193C785.396 617.945 778.536 606.683 777.791 605.628C777.671 605.271 777.528 604.9 777.356 604.5C776.17 591.413 776.959 512.899 776.969 512.106L776.974 511.622L735.23 510.656L735.299 511.218C735.383 511.915 743.781 581.153 751.535 604.957C751.516 605.981 751.694 607.099 752.077 608.371L752.104 608.363C752.192 608.766 752.488 609.706 753.264 612.161C766.069 652.696 773.16 676.935 774.339 684.205C774.475 685.056 774.586 685.835 774.675 686.552Z" fill="#105F9A"/>
<path d="M790.72 689.981C789.899 688.353 788.886 686.804 788.253 687.397C787.193 688.39 786.512 689.793 785.479 690.835C783.15 693.181 778.905 692.833 776.083 691.613C774.26 690.825 773.011 692.279 771.755 693.337C770.415 694.466 769.046 695.56 767.672 696.645C765.932 698.018 764.18 699.377 762.411 700.712C762.411 700.712 759.551 702.321 759.203 703.028C758.943 703.558 759.028 706.043 759.212 706.267C759.397 706.49 763.138 707.929 767.084 707.791C771.099 707.65 778.126 705.56 780.775 704.084C782.483 703.133 784.259 702.295 786.012 701.433C788.134 700.388 792.138 699.434 792.618 696.73C793.026 694.439 791.718 691.961 790.72 689.981Z" fill="#381905"/>
<path d="M735.875 535.742L737.403 548.15C737.544 549.296 738.553 550.135 739.705 550.064L752.073 608.368" stroke="#381905" stroke-width="0.5429" stroke-miterlimit="10" stroke-linecap="round" stroke-linejoin="round"/>
<path d="M750.165 538.672C750.125 540.712 751.22 542.739 752.949 543.823C754.678 544.907 756.98 545.009 758.798 544.082" stroke="#381905" stroke-width="0.5429" stroke-miterlimit="10" stroke-linecap="round" stroke-linejoin="round"/>
<path d="M723.922 538.219C723.813 540.646 721.696 542.817 719.273 542.989" stroke="#381905" stroke-width="0.5429" stroke-miterlimit="10" stroke-linecap="round" stroke-linejoin="round"/>
<path d="M798.338 480.816C795.722 477.462 796.342 472.619 799.72 470.034L826.614 451.482L838.927 442.988L845.242 449.421C844.692 449.978 839.985 454.661 833.849 460.487C825.951 467.986 815.684 477.379 808.846 482.314C805.51 484.72 800.868 484.058 798.338 480.816Z" fill="#FF8B6A"/>
<path d="M730.328 413.09C738.314 415.117 733.38 433.663 729.066 441.685C724.668 452.634 711.024 471.813 706.275 479.961C704.03 483.813 698.944 484.97 695.232 482.345C692.014 480.07 691.222 475.609 693.111 472.15C697.992 463.213 716.855 409.67 730.328 413.09Z" fill="#FF8B6A"/>
<path d="M665.675 476.925L697.367 468.982C701.539 468.153 705.586 470.885 706.377 475.063C707.142 479.104 704.574 483.029 700.562 483.943C692.34 485.819 678.506 487.326 667.66 488.304C659.231 489.064 652.608 489.507 651.825 489.552L651.164 480.561L665.675 476.925Z" fill="#FF8B6A"/>
<path d="M772.209 414.663C764.286 416.923 769.761 435.315 774.309 443.209C779.026 454.023 793.226 472.796 798.212 480.802C800.568 484.585 805.686 485.593 809.319 482.859C812.469 480.49 813.13 476.009 811.14 472.608C806 463.816 785.577 410.849 772.209 414.663Z" fill="#FF8B6A"/>
<path d="M660.138 477.807L656.996 478.246L658.986 489.554L661.672 489.311L663.049 484.473L660.138 477.807Z" fill="white"/>
<path d="M734.139 415.906C733.366 414.15 732.125 413.043 730.449 412.617C719.415 409.814 705.654 442.043 697.434 461.302C696.068 464.503 694.881 467.284 693.941 469.337L660.137 477.809C660.321 478.738 660.495 479.671 660.633 480.617C661.052 483.5 661.355 486.408 661.671 489.313C663.523 489.162 665.547 488.991 667.703 488.796C678.12 487.857 692.295 486.335 700.67 484.423C701.388 484.259 702.091 483.992 702.705 483.653C704.401 482.97 705.783 481.78 706.697 480.21C708.154 477.71 710.434 474.196 713.075 470.124C719.037 460.931 726.458 449.49 729.496 441.92C733.111 435.195 736.846 422.063 734.139 415.906Z" fill="#105F9A"/>
<path d="M829.112 449.163L833.429 446.781L838.735 455.805L835.977 459.138L829.112 460.022L828.527 453.402L829.112 449.163Z" fill="white"/>
<path d="M829.109 449.162L807.505 464.065L806.502 461.897C797.72 442.885 783.015 411.056 772.074 414.194C770.41 414.667 769.203 415.81 768.481 417.589C765.955 423.824 770.07 436.839 773.858 443.407C777.141 450.934 784.894 462.155 791.124 471.169C793.884 475.159 796.265 478.606 797.793 481.06C798.997 482.993 800.972 484.342 803.212 484.76C803.719 484.854 804.226 484.9 804.728 484.9C806.476 484.9 808.17 484.335 809.61 483.251C810.504 482.579 811.234 481.725 811.775 480.714C818.645 475.349 827.744 466.953 834.182 460.841C834.802 460.253 835.392 459.689 835.972 459.135C835.416 458.077 834.843 457.03 834.258 455.99C832.617 453.663 830.896 451.386 829.109 449.162Z" fill="#105F9A"/>
<path d="M717.762 526.902C739.231 527.44 761.748 535.09 782.006 528.944C780.665 517.424 779.829 506.595 779.336 493.672C778.325 467.217 779.628 443.078 782.055 421.794C784.662 413.38 762.422 407.741 748.633 407.766C734.846 407.79 720.294 411.465 720.273 419.276C720.542 440.654 720.377 462.784 719.682 485.617C719.235 500.313 718.583 512.841 717.762 526.902Z" fill="#105F9A"/>
<path d="M717.762 429.693C717.762 429.693 720.84 453.936 719.273 470.124" stroke="#381905" stroke-width="0.5429" stroke-miterlimit="10" stroke-linecap="round" stroke-linejoin="round"/>
<path d="M780.868 433.477C780.868 433.477 779.225 463.499 779.141 487.474" stroke="#381905" stroke-width="0.5429" stroke-miterlimit="10" stroke-linecap="round" stroke-linejoin="round"/>
<path d="M753.5 407.313C728.826 405.416 723.275 429.511 746.949 470.121C746.949 470.121 792.565 410.317 753.5 407.313Z" fill="white"/>
<path d="M747.855 416.492L751.456 415.662L754.583 417.597L752.292 420.881L749.351 420.619L747.855 416.492Z" fill="#381905"/>
<path d="M769.223 424.256C769.115 434.104 760.514 450.022 746.949 470.123C746.949 470.123 772.253 443.669 774.58 435.856L771.364 432.452C771.364 432.452 778.031 429.929 778.553 428.728C779.076 427.528 770.463 410.119 756.535 407.4" stroke="#381905" stroke-width="0.5429" stroke-miterlimit="10" stroke-linecap="round" stroke-linejoin="round"/>
<path d="M732.208 421.118C730.573 430.83 734.261 448.264 746.949 470.123C746.949 470.123 726.721 439.612 725.812 431.51L729.58 428.728C729.58 428.728 723.463 425.066 723.162 423.793C722.86 422.519 735.244 406.185 749.196 407.212" stroke="#381905" stroke-width="0.5429" stroke-miterlimit="10" stroke-linecap="round" stroke-linejoin="round"/>
<path d="M747.014 409.188C740.528 411.061 735.242 419.36 735.242 419.36L751.453 415.661C752.1 415.406 765.117 422.957 765.117 422.957C765.117 422.957 763.741 413.024 757.952 409.542" stroke="#381905" stroke-width="0.5429" stroke-miterlimit="10" stroke-linecap="round" stroke-linejoin="round"/>
<path d="M836.208 445.793C836.242 445.189 836.538 444.675 836.95 444.204C837.634 443.087 839.416 441.843 841.242 440.198C843.193 438.44 845.545 436.284 845.912 436.235C850.126 435.665 848.057 439.082 847.561 441.051C853.623 440.579 859.896 441.026 860.169 441.208C860.966 441.741 860.74 443.178 860.846 443.737C860.94 444.238 861.86 443.82 862.029 445.152C861.964 445.881 861.797 446.602 861.536 447.316C861.113 447.869 860.559 448.062 860.309 448.028C859.904 447.973 860.399 449.496 859.773 450.348C859.741 450.384 859.699 450.414 859.666 450.45C858.966 451.176 857.571 450.732 857.09 450.837C856.68 450.926 857.281 452.378 855.432 453.444C853.03 454.51 850.022 455.11 846.347 454.888C834.641 454.177 835.905 451.169 836.208 445.793Z" fill="#FF8B6A"/>
<path d="M653.162 481.018C652.709 480.618 652.135 480.467 651.511 480.427C650.236 480.127 648.099 480.519 645.644 480.658C643.023 480.807 639.836 480.964 639.542 481.19C636.174 483.784 640.056 484.719 641.804 485.749C637.206 489.725 633.11 494.5 633.047 494.821C632.863 495.763 634.045 496.613 634.369 497.081C634.659 497.501 633.714 497.861 634.542 498.917C635.106 499.384 635.735 499.773 636.426 500.089C637.117 500.176 637.645 499.919 637.794 499.718C638.04 499.39 638.774 500.813 639.819 500.969C639.868 500.972 639.92 500.962 639.967 500.964C640.976 500.977 641.641 499.674 642.054 499.405C642.405 499.177 643.015 500.625 645.072 500.06C647.521 499.102 650.063 497.386 652.49 494.617C660.222 485.801 657.197 484.583 653.162 481.018Z" fill="#FF8B6A"/>
<path d="M727.634 529.004L725.332 528.947C726.131 529.056 726.894 529.066 727.634 529.004Z" fill="white"/>
<path d="M746.84 474.715C746.947 471.855 746.952 470.123 746.952 470.123C746.952 470.123 746.861 471.854 746.84 474.715Z" fill="white"/>
<path d="M760.56 526.904C747.784 516.769 746.746 486.345 746.836 474.715C746.388 486.66 744.139 518.385 732.904 526.904C731.33 528.099 729.58 528.839 727.633 529.003C732.119 530.464 738.223 531.948 745.555 532.324C754.607 532.788 762.103 531.383 767.228 529.996C765.774 529.591 763.09 528.91 760.56 526.904Z" fill="white"/>
<path d="M752.291 420.881C752.066 420.725 751.604 420.451 750.956 420.372C750.193 420.278 749.601 420.505 749.349 420.618C748.362 425.466 747.443 430.435 746.541 435.517C745.928 438.965 745.141 451.449 744.371 465.542C745.193 467.048 746.04 468.569 746.947 470.123C746.947 470.123 748.866 467.608 751.577 463.587C751.965 441.356 752.291 420.881 752.291 420.881Z" fill="#381905"/>
<path d="M742.041 510.124C741.924 512.047 741.825 513.494 741.746 514.325C743.068 516.884 744.505 519.51 746.084 522.218C746.084 522.218 747.916 519.815 750.53 515.952C750.58 514.345 750.637 512.119 750.7 509.422C747.179 496.92 746.78 482.062 746.839 474.711C746.557 482.245 745.557 497.64 742.041 510.124Z" fill="#381905"/>
<path d="M746.84 474.711C746.947 471.851 746.952 470.119 746.952 470.119C746.952 470.119 746.861 471.85 746.84 474.711Z" fill="#381905"/>
<path d="M717.762 526.903C717.762 526.903 745.922 546.299 746.95 470.123C746.95 470.123 743.041 544.246 782.006 528.944" stroke="#381905" stroke-width="0.5429" stroke-miterlimit="10" stroke-linecap="round" stroke-linejoin="round"/>
<path d="M740.799 365.256C740.616 365.619 727.192 365.517 732.579 380.325C734.123 384.57 748.281 372.458 746.732 371.883C745.183 371.308 740.799 365.256 740.799 365.256Z" fill="#381905"/>
<path d="M747.978 410.996C747.918 411.53 748.061 412.07 748.399 412.488C748.672 412.823 749.031 413.194 749.501 413.535C750.319 414.131 751.115 414.382 751.595 414.495C751.595 414.495 753.732 414.183 755.109 413.366C755.641 413.052 755.969 412.494 756.042 411.882C756.799 405.605 758.324 397.797 759.014 391.654L749.696 395.697L747.978 410.996Z" fill="#FF8B6A"/>
<path d="M748.105 409.878L749.698 395.7L757.305 393.965C755.795 399.219 752.443 406.636 748.105 409.878Z" fill="#381905"/>
<path d="M759.1 390.192C759.1 390.192 757.321 395.639 755.95 397.389C752.162 402.224 744.583 406.398 738.503 404.039C731.201 401.205 729.245 374.921 733.615 370.632C743.735 360.703 765.227 365.811 759.1 390.192Z" fill="#FF8B6A"/>
<path d="M732.982 385.141C733.358 385.266 733.502 385.721 733.537 386.115C733.581 386.603 733.513 387.21 733.027 387.465C732.664 387.656 732.296 387.559 732.095 387.214C731.749 386.621 731.964 384.803 732.982 385.141Z" fill="#381905"/>
<path d="M744.822 386.136C745.198 386.261 745.342 386.716 745.378 387.11C745.421 387.599 745.353 388.205 744.867 388.459C744.504 388.65 744.136 388.553 743.936 388.207C743.589 387.615 743.803 385.796 744.822 386.136Z" fill="#381905"/>
<path d="M763 389.779C758.716 391.43 755.107 389.923 755.201 389.016C755.482 386.331 759.712 381.447 757.455 379.113C756.039 377.646 753.03 379.265 751.719 377.517C750.741 376.212 752.05 374.765 751.573 373.404C749.861 368.516 729.027 372.696 727.971 369.268C727.53 367.839 730.733 365.7 733.16 364.078C737.307 361.309 744.107 356.767 752.994 358.313C754.876 358.64 761.619 359.846 766.14 365.923C767.076 367.182 770.57 372.042 769.599 378.724C768.642 385.339 763.99 389.029 763 389.779Z" fill="#381905"/>
<path d="M738.085 385.111C738.085 385.111 738.389 388.449 737.692 388.624C736.993 388.801 735.555 388.046 735.433 388.37C735.312 388.695 736.193 389.894 737.345 390.194" stroke="#381905" stroke-width="0.5429" stroke-miterlimit="10" stroke-linecap="round" stroke-linejoin="round"/>
<path d="M757.882 387.841C756.808 390.017 757.276 392.445 758.93 393.261C760.584 394.079 762.796 392.976 763.872 390.802C764.948 388.625 764.478 386.198 762.824 385.382C761.169 384.563 758.956 385.665 757.882 387.841Z" fill="#FF8B6A"/>
<path d="M737.387 394.545C737.886 394.806 738.618 395.115 739.537 395.245C741.465 395.517 742.674 394.773 742.823 395.06C743.037 395.469 741.097 397.957 739.182 397.309C738.176 396.969 737.455 395.857 737.387 394.545Z" fill="#381905"/>
<path d="M733.195 381.527C733.631 381.48 734.652 381.548 734.563 382.218C734.47 382.905 733.568 383.034 733.035 383.159C732.069 383.384 731.157 383.801 730.178 383.981C730.095 383.997 730.008 384.008 729.927 383.982C729.34 383.793 730.7 382.634 730.911 382.483C731.465 382.09 732.366 381.616 733.195 381.527Z" fill="#381905"/>
<path d="M745.429 383.237C745.005 383.13 743.984 383.058 743.98 383.734C743.977 384.428 744.854 384.679 745.364 384.875C746.291 385.23 747.137 385.768 748.081 386.08C748.162 386.106 748.247 386.131 748.329 386.116C748.937 386.009 747.748 384.676 747.56 384.497C747.067 384.031 746.238 383.439 745.429 383.237Z" fill="#381905"/>
<path d="M762.651 388.531C761.907 388.318 761.063 388.492 760.465 388.983C759.867 389.474 759.53 390.266 759.593 391.037C759.709 390.65 760.209 390.436 760.567 390.619C760.927 390.802 761.045 391.335 760.797 391.654" stroke="#381905" stroke-width="0.5429" stroke-miterlimit="10" stroke-linecap="round" stroke-linejoin="round"/>
<path d="M579.049 485.97C582.71 483.804 587.434 485.04 589.565 488.721L604.524 517.766L611.373 531.064L604.183 536.505C603.7 535.886 599.659 530.62 594.666 523.789C588.24 514.997 580.239 503.613 576.219 496.199C574.258 492.584 575.509 488.065 579.049 485.97Z" fill="#E87578"/>
<path d="M609.331 528.887C609.926 528.999 610.397 529.359 610.812 529.826C611.831 530.647 612.837 532.574 614.236 534.594C615.73 536.754 617.567 539.364 617.569 539.732C617.595 543.985 614.469 541.497 612.581 540.753C612.272 546.824 611.028 552.991 610.812 553.237C610.182 553.96 608.785 553.553 608.218 553.584C607.709 553.613 608.006 554.579 606.664 554.576C605.95 554.417 605.256 554.161 604.58 553.809C604.086 553.318 603.966 552.745 604.031 552.503C604.138 552.108 602.565 552.403 601.798 551.674C601.766 551.638 601.742 551.591 601.711 551.555C601.081 550.768 601.7 549.441 601.657 548.951C601.622 548.535 600.105 548.945 599.284 546.975C598.534 544.455 598.323 541.396 599.015 537.78C601.217 526.261 604.039 527.899 609.331 528.887Z" fill="#E87578"/>
<path d="M610.812 529.832C610.812 529.832 617.203 538.04 617.799 540.144C618.395 542.247 616.278 543.592 612.583 540.761C612.583 540.761 612.042 547.104 611.639 549.342" stroke="#381905" stroke-width="0.5429" stroke-miterlimit="10" stroke-linecap="round" stroke-linejoin="round"/>
<path d="M608.691 524.782L591.806 491.997C591.852 490.142 591.941 488.22 592.067 486.258C589.783 486.29 587.485 486.613 585.293 487.12C581.788 487.93 578.288 489.236 575.137 491.025C575.347 494.098 575.594 496.072 575.791 496.435C577.788 500.116 580.766 504.776 584.011 509.564C587.415 514.589 591.113 519.756 594.274 524.08C595.935 526.352 597.479 528.434 598.838 530.254C602.155 528.504 605.426 526.652 608.691 524.782Z" fill="#EEBC22"/>
<path d="M594.65 510.191C594.65 510.191 607.924 598.141 602.938 612.004C597.952 625.867 580.737 620.126 580.131 612.509C579.526 604.894 555.676 521.942 555.676 521.942L594.65 510.191Z" fill="#E87578"/>
<path d="M591.834 698.902C591.1 697.583 589.99 689.347 588.805 684.096C575.179 623.636 579.821 612.542 579.821 612.542C580.168 604.808 586.983 599.129 593.992 599.917C600.29 600.623 604.517 601.31 604.362 608.221C604.417 608.277 601.69 674.322 603.113 687.31C604.177 697.034 606.105 697.536 606.596 697.499C605.394 697.727 592.534 700.159 591.834 698.902Z" fill="#E87578"/>
<path d="M555.074 521.614L595.052 509.561L595.136 510.12C595.241 510.813 605.593 579.785 604.461 604.795C604.752 605.778 604.879 606.903 604.85 608.23L604.82 608.228C604.843 608.641 604.807 609.628 604.713 612.214C603.173 654.688 602.797 679.936 603.597 687.253C603.68 688.008 603.769 688.684 603.86 689.325C601.008 690.056 598.117 690.634 595.189 690.886C593.328 691.044 591.474 691.075 589.632 690.983C589.21 688.615 588.776 686.209 588.324 684.202C575.282 626.341 578.894 613.656 579.332 612.438C579.351 612.062 579.39 611.666 579.45 611.234C577.105 598.302 555.426 522.839 555.207 522.077L555.074 521.614Z" fill="#381905"/>
<path d="M589.343 697.191C589.702 695.402 590.265 693.639 591.033 694.043C592.32 694.718 593.35 695.888 594.624 696.617C597.494 698.259 601.492 696.791 603.887 694.864C605.435 693.62 607.026 694.687 608.518 695.373C610.109 696.104 611.721 696.794 613.335 697.474C615.378 698.335 617.428 699.176 619.489 699.994C619.489 699.994 622.674 700.781 623.198 701.371C623.59 701.812 624.172 704.231 624.052 704.495C623.933 704.759 620.711 707.144 616.871 708.063C612.964 708.998 605.634 708.855 602.687 708.137C600.786 707.676 598.853 707.342 596.933 706.977C594.609 706.537 590.495 706.683 589.313 704.203C588.31 702.1 588.911 699.365 589.343 697.191Z" fill="#381905"/>
<path d="M580.496 511.938C580.496 511.938 573.923 600.64 565.985 613.052C558.047 625.463 542.534 616.044 543.634 608.484C544.735 600.924 539.887 514.747 539.887 514.747L580.496 511.938Z" fill="#E87578"/>
<path d="M535.873 695.319C535.448 693.87 536.195 685.592 536.205 680.209C536.333 618.233 543.323 608.445 543.323 608.445C545.377 600.982 553.283 596.957 559.942 599.279C565.927 601.366 569.895 602.973 568.21 609.678C568.251 609.745 550.938 673.539 549.443 686.519C548.323 696.236 550.091 697.153 550.578 697.226C549.355 697.183 536.276 696.699 535.873 695.319Z" fill="#E87578"/>
<path d="M543.496 514.447C543.319 514.839 543.151 515.234 542.977 515.626C541.564 520.674 540.531 525.807 540.279 531.053C541.542 554.944 543.671 597.704 543.253 607.092C543.099 607.498 542.974 607.876 542.87 608.239C542.175 609.328 535.838 620.893 535.715 680.209C535.71 682.374 535.589 684.968 535.469 687.491C540.112 688.357 544.923 688.965 549.7 688.936C549.755 688.216 549.829 687.432 549.93 686.573C550.774 679.258 556.743 654.717 567.674 613.638C568.336 611.149 568.589 610.198 568.657 609.79L568.686 609.796C569.01 608.51 569.137 607.383 569.07 606.361C575.725 582.225 580.934 512.676 580.986 511.976L581.028 511.412L543.496 514.447Z" fill="#381905"/>
<path d="M533.825 693.103C534.57 691.439 535.512 689.845 536.171 690.409C537.276 691.353 538.02 692.722 539.101 693.716C541.534 695.953 545.758 695.41 548.523 694.062C550.306 693.192 551.622 694.587 552.925 695.585C554.315 696.652 555.733 697.682 557.157 698.703C558.957 699.994 560.77 701.271 562.6 702.525C562.6 702.525 565.531 704.001 565.911 704.691C566.195 705.208 566.226 707.695 566.051 707.927C565.877 708.159 562.206 709.769 558.257 709.812C554.241 709.855 547.124 708.089 544.41 706.736C542.66 705.865 540.849 705.109 539.057 704.328C536.889 703.382 532.846 702.613 532.242 699.933C531.727 697.661 532.918 695.127 533.825 693.103Z" fill="#381905"/>
<path d="M536.562 608.443L536.559 608.441L536.562 608.443Z" fill="#022670"/>
<path d="M538.844 421.15C538.844 421.15 517.482 430.315 517.482 448.533C517.482 448.533 508.258 449.455 508.258 464.678C508.258 479.899 509.682 523.53 512.911 526.759C516.141 529.988 523.981 526.759 523.981 526.759C523.981 526.759 527.27 531.324 531.716 531.324C536.162 531.324 545.004 530.139 545.004 530.139C545.004 530.139 538.844 424.255 538.844 422.703" fill="#8041E4"/>
<path d="M581.994 461.803C576.377 439.738 567.41 424.804 559.504 420.348C550.212 415.108 545.353 413.151 537.308 421.534C523.288 436.149 535.467 490.641 536.315 545.841C536.453 554.754 603.09 540.773 603.168 541.398C601.702 527.391 588.478 487.267 581.994 461.803Z" fill="#EEBC22"/>
<path d="M580.656 482.297C581.223 478.081 585.121 475.139 589.331 475.748L621.398 482.004L636.079 484.868L635.896 493.882C635.112 493.877 628.474 493.787 620.017 493.474C609.135 493.07 595.241 492.296 586.931 490.859C582.877 490.154 580.105 486.374 580.656 482.297Z" fill="#E87578"/>
<path d="M633.106 485.124C633.561 484.725 634.136 484.578 634.76 484.542C636.037 484.251 638.172 484.656 640.626 484.81C643.246 484.975 646.433 485.15 646.724 485.377C650.078 487.992 646.19 488.903 644.435 489.923C649.009 493.927 653.077 498.726 653.137 499.047C653.314 499.99 652.13 500.834 651.802 501.299C651.509 501.716 652.452 502.082 651.618 503.134C651.05 503.597 650.419 503.981 649.725 504.295C649.033 504.38 648.508 504.117 648.359 503.916C648.116 503.587 647.372 505.005 646.326 505.154C646.277 505.156 646.225 505.146 646.178 505.149C645.169 505.156 644.511 503.85 644.101 503.578C643.751 503.347 643.134 504.791 641.079 504.216C638.637 503.244 636.105 501.512 633.694 498.73C626.017 489.865 629.049 488.664 633.106 485.124Z" fill="#E87578"/>
<path d="M634.758 484.545C634.758 484.545 645.16 484.615 647.181 485.451C649.201 486.287 648.945 488.782 644.433 489.928C644.433 489.928 649.076 494.283 650.582 495.987" stroke="#381905" stroke-width="0.5429" stroke-miterlimit="10" stroke-linecap="round" stroke-linejoin="round"/>
<path d="M629.482 483.08L593.287 476.019C590.041 473.327 586.691 470.306 583.319 466.919C575.023 458.586 568.735 450.19 563.992 442.717C558.703 437.211 547.467 426.198 540.661 430.309C539.018 431.302 537.575 431.542 536.398 432.811C523.081 447.171 584.095 490.862 586.846 491.339C590.973 492.053 596.476 492.601 602.244 493.022C608.297 493.463 614.644 493.763 619.997 493.962C622.808 494.066 625.399 494.143 627.671 494.203C628.356 490.517 628.928 486.802 629.482 483.08Z" fill="#EEBC22"/>
<path d="M537.309 431.899C537.309 431.899 544.333 417.534 560.581 440.222C576.829 462.911 593.288 476.016 593.288 476.016L629.484 483.077" stroke="#381905" stroke-width="0.5429" stroke-miterlimit="10" stroke-linecap="round" stroke-linejoin="round"/>
<path d="M611.036 493.563C608.849 493.369 584.518 494.202 575.145 487.119C567.696 481.492 541.992 448.547 541.992 448.547" stroke="#381905" stroke-width="0.5429" stroke-miterlimit="10" stroke-linecap="round" stroke-linejoin="round"/>
<path d="M550.221 373.508C550.453 373.842 563.726 371.823 560.508 387.248C559.586 391.67 543.843 381.705 545.294 380.914C546.745 380.125 550.221 373.508 550.221 373.508Z" fill="#381905"/>
<path d="M551.185 417.212C546.389 417.904 544.162 416.547 543.312 418.853C541.484 423.81 555.517 428.708 559.607 428.837C563.695 428.967 554.349 416.755 551.185 417.212Z" fill="#E87578"/>
<path d="M551.368 417.922C551.35 417.987 550.678 418.656 549.947 419.369C548.52 420.766 546.397 421.308 544.538 420.581C544.135 420.424 543.779 420.223 543.519 419.97C541.893 413.738 540.267 407.505 538.641 401.273L547.288 402.286L551.368 417.922Z" fill="#E87578"/>
<path d="M550.891 416.091L547.289 402.286L539.512 401.654C541.757 406.642 546.134 413.502 550.891 416.091Z" fill="#381905"/>
<path d="M537.666 399.236C538.766 401.366 540.095 403.23 540.095 403.23C540.502 403.633 540.944 404.169 541.338 404.858C542 406.013 546.541 410.641 552.924 410.446C553.939 410.416 557.137 410.275 559.957 408.045C559.957 408.045 561.397 406.906 562.465 405.192C565 401.118 565.978 392.338 561.859 384.434C560.209 381.268 555.575 372.376 547.069 372.499C540.187 372.598 534.184 378.549 533.144 384.348C532.331 388.897 534.584 393.263 537.666 399.236Z" fill="#E87578"/>
<path d="M562.18 389.821C562.359 390.48 562.161 391.109 561.738 391.224C561.315 391.339 560.827 390.896 560.648 390.235C560.469 389.576 560.667 388.947 561.09 388.832C561.513 388.719 562.001 389.161 562.18 389.821Z" fill="#381905"/>
<path d="M551.657 394.727C551.835 395.386 551.637 396.015 551.215 396.13C550.792 396.245 550.304 395.803 550.124 395.142C549.946 394.482 550.144 393.853 550.566 393.738C550.989 393.625 551.479 394.067 551.657 394.727Z" fill="#381905"/>
<path d="M533.275 398.33C536.059 398.291 539.74 397.567 540.692 397.369C540.805 397.346 540.857 397.223 540.797 397.126C540.392 396.473 539.202 394.261 540.011 391.907C540.455 390.613 541.208 390.721 541.518 389.529C542.202 386.892 538.874 384.989 539.373 383.047C539.646 381.983 540.982 381.811 545.366 380.348C551.872 378.178 553.56 376.992 554.307 376.417C554.65 376.153 558.719 373.021 558.113 371.574C556.787 368.416 531.545 369.388 527.83 381.818C525.612 389.242 532.172 397.053 533.275 398.33Z" fill="#381905"/>
<path d="M557.266 390.148C557.266 390.148 558.001 392.611 558.158 393.569C558.275 394.279 560.437 393.467 560.602 393.771C560.769 394.076 559.668 395.069 558.747 395.818" stroke="#381905" stroke-width="0.5429" stroke-miterlimit="10" stroke-linecap="round" stroke-linejoin="round"/>
<path d="M539.706 397.919C541.081 399.919 540.963 402.388 539.443 403.433C537.923 404.478 535.575 403.704 534.201 401.704C532.826 399.705 532.944 397.235 534.464 396.19C535.982 395.145 538.33 395.918 539.706 397.919Z" fill="#E87578"/>
<path d="M559.504 384.983C559.532 385.367 560.901 385.548 561.442 385.59C561.988 385.634 563.362 385.668 563.451 385.289C563.531 384.954 562.593 384.297 561.617 384.2C560.577 384.098 559.478 384.631 559.504 384.983Z" fill="#381905"/>
<path d="M551.487 388.898C551.669 389.17 550.703 390.306 549.232 391.288C547.761 392.27 546.34 392.724 546.158 392.451C545.977 392.179 546.774 390.789 548.245 389.807C549.715 388.827 551.304 388.626 551.487 388.898Z" fill="#381905"/>
<path d="M561.002 399.998C561.002 399.998 555.143 401.304 554.974 401.716C554.806 402.127 556.936 403.534 558.054 403.274C559.919 402.84 562.338 400.027 561.002 399.998Z" fill="#381905"/>
<path d="M535.531 398.33C536.649 398.596 537.633 399.383 538.138 400.415C537.915 400.234 537.571 400.224 537.338 400.389C537.105 400.556 537.001 400.885 537.1 401.154" stroke="#381905" stroke-width="0.5429" stroke-miterlimit="10" stroke-linecap="round" stroke-linejoin="round"/>
<path d="M594.242 492.768L603.167 541.399" stroke="#381905" stroke-width="0.5429" stroke-miterlimit="10" stroke-linecap="round" stroke-linejoin="round"/>
<path d="M547.291 455.244C547.291 455.244 547.435 497.822 531.82 520.443L533.238 528.19C533.238 528.19 550.117 508.806 553.422 462.848" fill="#8041E4"/>
<path d="M527.375 423.019C527.375 423.019 510.833 412.743 509.681 420.903C508.527 429.063 525.549 430.459 525.549 430.459C542.44 415.831 549.208 428.839 549.208 428.839L555.679 434.155C548.821 406.976 527.375 423.019 527.375 423.019ZM513.776 420.903C517.175 420.161 520.79 421.967 522.932 423.345C524.789 424.539 523.961 427.476 521.754 427.403C517.279 427.253 509.947 421.737 513.776 420.903Z" fill="#8041E4"/>
</svg>
