<svg width="104" height="96" viewBox="0 0 104 96" fill="none" xmlns="http://www.w3.org/2000/svg">
<path d="M38.7674 53.4215C34.8147 53.4128 30.9531 52.2327 27.6708 50.0303C24.3884 47.828 21.8325 44.7023 20.3258 41.0479C18.8192 37.3936 18.4295 33.3746 19.206 29.4989C19.9824 25.6232 21.8902 22.0646 24.6883 19.2726C27.4864 16.4807 31.0492 14.5807 34.9267 13.8128C38.8041 13.0448 42.8221 13.4433 46.4731 14.958C50.1242 16.4726 53.2444 19.0354 55.4395 22.3226C57.6346 25.6098 58.8062 29.4738 58.8062 33.4266C58.8016 38.7289 56.6937 43.8129 52.9452 47.5631C49.1967 51.3132 44.1137 53.4233 38.8113 53.4303M38.8113 16.7627C35.5086 16.7627 32.28 17.7421 29.5338 19.577C26.7877 21.4119 24.6473 24.02 23.3834 27.0713C22.1195 30.1227 21.7888 33.4803 22.4331 36.7196C23.0775 39.9588 24.6679 42.9343 27.0033 45.2697C29.3387 47.6051 32.3142 49.1956 35.5535 49.8399C38.7928 50.4843 42.1504 50.1536 45.2018 48.8897C48.2531 47.6258 50.8611 45.4854 52.6961 42.7392C54.531 39.9931 55.5104 36.7645 55.5104 33.4618C55.5104 29.0329 53.751 24.7854 50.6193 21.6538C47.4877 18.5221 43.2402 16.7627 38.8113 16.7627Z" fill="#FFA811"/>
<path d="M43.9094 44.5622C43.4671 44.5606 43.0436 44.3835 42.7317 44.07L38.5129 39.8426L34.2943 44.07C33.9713 44.3615 33.5517 44.5228 33.1166 44.5228C32.6815 44.5228 32.2618 44.3615 31.9388 44.07L27.6147 39.7459C27.3034 39.433 27.1286 39.0095 27.1286 38.5681C27.1286 38.1267 27.3034 37.7033 27.6147 37.3904L31.8334 33.1716L27.6147 28.9442C27.4595 28.7899 27.3363 28.6064 27.2523 28.4042C27.1683 28.2021 27.125 27.9854 27.125 27.7665C27.125 27.5476 27.1683 27.3308 27.2523 27.1287C27.3363 26.9266 27.4595 26.7431 27.6147 26.5887L31.9388 22.2646C32.2517 21.9533 32.6752 21.7785 33.1166 21.7785C33.5579 21.7785 33.9813 21.9533 34.2943 22.2646L38.5129 26.4833L42.7317 22.2646C43.0547 21.9731 43.4743 21.8117 43.9094 21.8117C44.3445 21.8117 44.7641 21.9731 45.0871 22.2646L49.4113 26.5887C49.5665 26.7431 49.6896 26.9266 49.7736 27.1287C49.8577 27.3308 49.9009 27.5476 49.9009 27.7665C49.9009 27.9854 49.8577 28.2021 49.7736 28.4042C49.6896 28.6064 49.5665 28.7899 49.4113 28.9442L45.1926 33.1716L49.4113 37.3904C49.7226 37.7033 49.8973 38.1267 49.8973 38.5681C49.8973 39.0095 49.7226 39.433 49.4113 39.7459L45.0871 44.07C44.7752 44.3835 44.3516 44.5606 43.9094 44.5622ZM38.5129 35.8259C38.9552 35.8276 39.3788 36.0046 39.6907 36.3182L43.9094 40.5456L45.8694 38.5857L41.6506 34.3669C41.4954 34.2126 41.3723 34.0291 41.2882 33.827C41.2042 33.6248 41.161 33.4081 41.161 33.1892C41.161 32.9704 41.2042 32.7536 41.2882 32.5515C41.3723 32.3494 41.4954 32.1659 41.6506 32.0116L45.8694 27.784L43.9094 25.8241L39.6907 30.0428C39.3677 30.3343 38.948 30.4957 38.5129 30.4957C38.0779 30.4957 37.6582 30.3343 37.3353 30.0428L33.1166 25.8241L31.1566 27.784L35.3753 32.0116C35.5305 32.1659 35.6537 32.3494 35.7377 32.5515C35.8217 32.7536 35.865 32.9704 35.865 33.1892C35.865 33.4081 35.8217 33.6248 35.7377 33.827C35.6537 34.0291 35.5305 34.2126 35.3753 34.3669L31.1566 38.5857L33.1166 40.5456L37.3353 36.3182C37.6472 36.0046 38.0707 35.8276 38.5129 35.8259Z" fill="#FFA811"/>
<path d="M77.0958 95.09H0.429688V0.0899658H77.0958V54.8541C77.0652 55.2749 76.8764 55.6686 76.5675 55.9559C76.2585 56.2432 75.8522 56.4029 75.4303 56.4029C75.0084 56.4029 74.6021 56.2432 74.2931 55.9559C73.9841 55.6686 73.7954 55.2749 73.7648 54.8541V3.40342H3.76948V91.7677H73.7472V78.4348C73.7778 78.014 73.9666 77.6204 74.2756 77.3331C74.5845 77.0457 74.9908 76.886 75.4127 76.886C75.8347 76.886 76.241 77.0457 76.5499 77.3331C76.8589 77.6204 77.0476 78.014 77.0782 78.4348L77.0958 95.09Z" fill="#15416F"/>
<path d="M62.0922 76.7562H15.4316C15.2027 76.7729 14.9728 76.7422 14.7564 76.666C14.5399 76.5898 14.3414 76.4698 14.1734 76.3136C14.0053 76.1573 13.8713 75.968 13.7796 75.7576C13.688 75.5472 13.6406 75.3202 13.6406 75.0907C13.6406 74.8612 13.688 74.6342 13.7796 74.4238C13.8713 74.2134 14.0053 74.0241 14.1734 73.8678C14.3414 73.7116 14.5399 73.5916 14.7564 73.5154C14.9728 73.4392 15.2027 73.4085 15.4316 73.4252H62.0922C62.3211 73.4085 62.551 73.4392 62.7675 73.5154C62.984 73.5916 63.1824 73.7116 63.3505 73.8678C63.5185 74.0241 63.6526 74.2134 63.7442 74.4238C63.8359 74.6342 63.8832 74.8612 63.8832 75.0907C63.8832 75.3202 63.8359 75.5472 63.7442 75.7576C63.6526 75.968 63.5185 76.1573 63.3505 76.3136C63.1824 76.4698 62.984 76.5898 62.7675 76.666C62.551 76.7422 62.3211 76.7729 62.0922 76.7562Z" fill="#15416F"/>
<path d="M55.4302 65.0932H15.4317C15.0108 65.0626 14.6172 64.8738 14.3299 64.5648C14.0425 64.2558 13.8828 63.8496 13.8828 63.4277C13.8828 63.0057 14.0425 62.5994 14.3299 62.2904C14.6172 61.9815 15.0108 61.7927 15.4317 61.7621H55.4302C55.851 61.7927 56.2447 61.9815 56.532 62.2904C56.8193 62.5994 56.979 63.0057 56.979 63.4277C56.979 63.8496 56.8193 64.2558 56.532 64.5648C56.2447 64.8738 55.851 65.0626 55.4302 65.0932Z" fill="#15416F"/>
<path d="M71.525 74.515C71.3066 74.5158 71.0901 74.4736 70.888 74.3906C70.6859 74.3077 70.5022 74.1856 70.3473 74.0315L63.2634 67.0004C62.9521 66.6875 62.7773 66.2641 62.7773 65.8227C62.7773 65.3813 62.9521 64.9579 63.2634 64.645L93.8402 33.9451C94.1521 33.6315 94.5757 33.4546 95.0179 33.453C95.2364 33.4521 95.4529 33.4944 95.655 33.5773C95.8571 33.6602 96.0408 33.7822 96.1956 33.9363L103.28 40.9675C103.591 41.2804 103.766 41.7039 103.766 42.1453C103.766 42.5866 103.591 43.01 103.28 43.3229L72.7027 74.0228C72.3908 74.3364 71.9673 74.5133 71.525 74.515ZM66.7966 65.7875L71.525 70.4897L99.7552 42.1541L95.0355 37.4519L66.7966 65.7875Z" fill="#15416F"/>
<path d="M62.0943 76.8879C61.8418 76.8871 61.5928 76.8291 61.366 76.7181C61.1391 76.6072 60.9404 76.4463 60.7847 76.2475C60.6291 76.0487 60.5206 75.8172 60.4673 75.5704C60.414 75.3236 60.4174 75.0678 60.4772 74.8225L62.815 65.3919C62.8865 65.1059 63.0323 64.8438 63.2379 64.6325C63.4434 64.4211 63.7012 64.2679 63.9851 64.1884C64.269 64.1089 64.5689 64.1061 64.8543 64.1801C65.1397 64.2541 65.4004 64.4023 65.6099 64.6097L72.6938 71.6409C72.9013 71.8492 73.0501 72.1087 73.1251 72.393C73.2002 72.6773 73.1988 72.9763 73.1213 73.2599C73.0437 73.5435 72.8926 73.8016 72.6833 74.0081C72.4739 74.2146 72.2138 74.3621 71.9292 74.4358L62.5074 76.8088C62.3754 76.8429 62.2396 76.8607 62.1031 76.8616M65.3551 69.0218L64.397 72.9066L68.273 71.931L65.3551 69.0218Z" fill="#15416F"/>
</svg>
