<svg width="120" height="96" viewBox="0 0 120 96" fill="none" xmlns="http://www.w3.org/2000/svg">
<path d="M44.0566 23.8265C43.8552 23.8278 43.6555 23.7892 43.4691 23.713C43.2827 23.6369 43.1132 23.5246 42.9703 23.3827C42.8275 23.2407 42.7141 23.0719 42.6367 22.8859C42.5594 22.7 42.5196 22.5006 42.5196 22.2992V2.37708C42.5183 2.17487 42.5571 1.97446 42.6339 1.78738C42.7107 1.60031 42.8238 1.43028 42.9668 1.28729C43.1098 1.1443 43.2798 1.03116 43.4668 0.954377C43.6539 0.877598 43.8544 0.838689 44.0566 0.839998H99.2318C99.6169 0.870906 99.9763 1.04583 100.238 1.32975C100.5 1.61366 100.646 1.98579 100.646 2.37215C100.646 2.75851 100.5 3.13076 100.238 3.41467C99.9763 3.69858 99.6169 3.87339 99.2318 3.9043H45.5936V22.2894C45.5936 22.4899 45.5541 22.6885 45.4773 22.8738C45.4006 23.0591 45.2881 23.2275 45.1463 23.3693C45.0045 23.5111 44.8361 23.6236 44.6509 23.7003C44.4656 23.777 44.267 23.8166 44.0664 23.8166" fill="#15416F"/>
<path d="M44.0576 82.056C43.8562 82.0573 43.6565 82.0187 43.4701 81.9426C43.2837 81.8664 43.1142 81.7541 42.9713 81.6122C42.8284 81.4702 42.7151 81.3015 42.6377 81.1156C42.5604 80.9296 42.5205 80.7301 42.5206 80.5288V66.735C42.5036 66.5234 42.5306 66.3107 42.5999 66.1101C42.6692 65.9096 42.7792 65.7256 42.9232 65.5696C43.0671 65.4137 43.2417 65.2892 43.4361 65.2041C43.6305 65.119 43.8404 65.0751 44.0526 65.0751C44.2648 65.0751 44.4747 65.119 44.6691 65.2041C44.8635 65.2892 45.0382 65.4137 45.1821 65.5696C45.326 65.7256 45.4361 65.9096 45.5054 66.1101C45.5747 66.3107 45.6017 66.5234 45.5847 66.735V80.5288C45.5847 80.9338 45.4238 81.3223 45.1374 81.6087C44.851 81.8951 44.4626 82.056 44.0576 82.056Z" fill="#15416F"/>
<path d="M117.609 89.7115H83.9032C83.4969 89.7115 83.1072 89.5501 82.8198 89.2628C82.5325 88.9755 82.3711 88.5857 82.3711 88.1794C82.3711 87.773 82.5325 87.3834 82.8198 87.0961C83.1072 86.8088 83.4969 86.6473 83.9032 86.6473H116.082V20.7622C116.065 20.5507 116.092 20.3379 116.162 20.1373C116.231 19.9367 116.341 19.7527 116.485 19.5968C116.629 19.4409 116.803 19.3164 116.998 19.2313C117.192 19.1462 117.402 19.1022 117.614 19.1022C117.826 19.1022 118.036 19.1462 118.231 19.2313C118.425 19.3164 118.6 19.4409 118.744 19.5968C118.888 19.7527 118.998 19.9367 119.067 20.1373C119.136 20.3379 119.163 20.5507 119.146 20.7622V88.1843C119.146 88.5893 118.985 88.9778 118.699 89.2642C118.413 89.5506 118.024 89.7115 117.619 89.7115" fill="#15416F"/>
<path d="M103.811 65.5822H57.8485C57.4422 65.5822 57.0525 65.4208 56.7652 65.1335C56.4778 64.8462 56.3164 64.4564 56.3164 64.0501C56.3164 63.6438 56.4778 63.2541 56.7652 62.9668C57.0525 62.6795 57.4422 62.5181 57.8485 62.5181H103.811C104.218 62.5181 104.607 62.6795 104.895 62.9668C105.182 63.2541 105.344 63.6438 105.344 64.0501C105.344 64.4564 105.182 64.8462 104.895 65.1335C104.607 65.4208 104.218 65.5822 103.811 65.5822Z" fill="#15416F"/>
<path d="M103.811 76.2724H57.8485C57.4422 76.2724 57.0525 76.111 56.7652 75.8237C56.4778 75.5364 56.3164 75.1466 56.3164 74.7403C56.3164 74.3339 56.4778 73.9443 56.7652 73.657C57.0525 73.3697 57.4422 73.2083 57.8485 73.2083H103.811C104.218 73.2083 104.607 73.3697 104.895 73.657C105.182 73.9443 105.344 74.3339 105.344 74.7403C105.344 75.1466 105.182 75.5364 104.895 75.8237C104.607 76.111 104.218 76.2724 103.811 76.2724Z" fill="#15416F"/>
<path d="M117.608 22.2992H99.2225C99.0211 22.2992 98.8217 22.2594 98.6358 22.182C98.4499 22.1047 98.2811 21.9913 98.1391 21.8484C97.9972 21.7055 97.8849 21.5361 97.8087 21.3496C97.7326 21.1632 97.694 20.9636 97.6953 20.7622V2.37702C97.6938 2.07383 97.7825 1.777 97.9502 1.5244C98.1179 1.27181 98.357 1.07488 98.637 0.958643C98.917 0.842406 99.2253 0.812104 99.5226 0.871686C99.8199 0.931269 100.093 1.07807 100.306 1.29324L118.691 19.6784C118.907 19.892 119.053 20.1649 119.113 20.4621C119.173 20.7594 119.142 21.0677 119.026 21.3477C118.91 21.6277 118.713 21.8668 118.46 22.0345C118.208 22.2022 117.911 22.2909 117.608 22.2893M100.75 19.2251H113.913L100.76 6.07178L100.75 19.2251Z" fill="#15416F"/>
<path d="M46.41 57.9563C46.1536 57.9566 45.9012 57.8927 45.6757 57.7706C45.4503 57.6484 45.259 57.4716 45.1193 57.2566L31.4831 36.2507C31.3009 35.9107 31.2532 35.5147 31.3494 35.1412C31.4455 34.7677 31.6786 34.444 32.0024 34.2343C32.3262 34.0247 32.7169 33.9445 33.0971 34.0095C33.4772 34.0746 33.8191 34.2802 34.0547 34.5855L46.8632 54.291L59.5732 46.0442L46.7647 26.3388C46.5825 25.9989 46.5347 25.6029 46.6309 25.2294C46.7271 24.8559 46.9602 24.5322 47.2839 24.3226C47.6077 24.1129 47.9985 24.0326 48.3786 24.0976C48.7588 24.1627 49.1006 24.3684 49.3362 24.6737L62.9724 45.6797C63.1918 46.0211 63.2673 46.4354 63.1824 46.8323C63.0975 47.2291 62.8591 47.5763 62.5192 47.798L47.2475 57.7198C46.998 57.8811 46.7071 57.9667 46.41 57.9661" fill="#FFA811"/>
<path d="M31.1958 37.7484C30.7499 37.75 30.3108 37.6399 29.9184 37.4282C29.526 37.2165 29.1928 36.91 28.9493 36.5365L27.7079 34.625C27.3247 34.0299 27.1926 33.3074 27.3402 32.6152C27.4879 31.9229 27.9034 31.3172 28.4961 30.9303L45.6793 19.7672C46.2744 19.384 46.9969 19.2518 47.6892 19.3995C48.3814 19.5472 48.9871 19.9626 49.374 20.5553L50.6154 22.4668C50.9986 23.0619 51.1308 23.7845 50.9831 24.4767C50.8354 25.1689 50.4199 25.7746 49.8272 26.1616L46.3689 28.3982C46.2001 28.5075 46.0114 28.5825 45.8135 28.6189C45.6157 28.6553 45.4126 28.6523 45.2159 28.6102C45.0192 28.5681 44.8327 28.4878 44.6671 28.3736C44.5014 28.2595 44.3599 28.1137 44.2506 27.9449C44.1413 27.776 44.0663 27.5873 44.0299 27.3894C43.9935 27.1916 43.9964 26.9886 44.0385 26.7919C44.0806 26.5952 44.161 26.4086 44.2752 26.243C44.3893 26.0774 44.535 25.936 44.7038 25.8266L47.8271 23.8068L47.0192 22.5554L30.4962 33.2851L31.3041 34.5364L38.7232 29.6888C39.061 29.5031 39.4562 29.4512 39.8305 29.5432C40.2048 29.6351 40.5308 29.8645 40.744 30.1855C40.9573 30.5066 41.0421 30.896 40.9817 31.2766C40.9213 31.6573 40.7201 32.0015 40.4179 32.2407L32.6441 37.3247C32.2134 37.6062 31.7103 37.7569 31.1958 37.7582" fill="#FFA811"/>
<path d="M47.3089 62.5772C46.863 62.5788 46.4239 62.4688 46.0315 62.2572C45.6391 62.0455 45.3059 61.7388 45.0625 61.3653L43.821 59.454C43.63 59.1597 43.4989 58.8306 43.4351 58.4855C43.3713 58.1405 43.3762 57.7863 43.4494 57.4431C43.5226 57.1 43.6627 56.7747 43.8617 56.4858C44.0607 56.1968 44.3148 55.9499 44.6092 55.7592L61.7924 44.6059C62.3875 44.2227 63.11 44.0905 63.8023 44.2382C64.4945 44.3859 65.1002 44.8015 65.4872 45.3941L66.7286 47.3055C66.9196 47.5998 67.0507 47.9289 67.1145 48.2739C67.1783 48.6189 67.1734 48.9731 67.1002 49.3162C67.027 49.6593 66.8869 49.9847 66.6879 50.2737C66.4889 50.5627 66.2349 50.8095 65.9404 51.0003L48.7572 62.1536C48.3265 62.4351 47.8234 62.5857 47.3089 62.5871M46.6487 58.1238L47.4567 59.3751L63.9797 48.6454L63.1718 47.3941L46.6487 58.1238Z" fill="#FFA811"/>
<path d="M28.0868 60.1337C27.6411 60.1345 27.2023 60.024 26.81 59.8124C26.4178 59.6008 26.0845 59.2947 25.8403 58.9219L22.1259 53.1875C21.7427 52.5924 21.6105 51.8699 21.7582 51.1777C21.9059 50.4854 22.3214 49.8797 22.9141 49.4928L26.7369 47.01C27.3321 46.6268 28.0546 46.4946 28.7468 46.6423C29.4391 46.79 30.0448 47.2054 30.4317 47.7981L34.1462 53.5325C34.3372 53.8268 34.4683 54.1558 34.5321 54.5008C34.5959 54.8458 34.591 55.2 34.5178 55.5432C34.4446 55.8863 34.3045 56.2116 34.1055 56.5005C33.9065 56.7895 33.6525 57.0365 33.358 57.2272L29.545 59.71C29.1143 59.9916 28.6112 60.1422 28.0966 60.1436M24.9142 51.8574L28.205 56.9217L31.3677 54.8724L28.0769 49.8081L24.9142 51.8574Z" fill="#FFA811"/>
<path d="M32.8552 55.8969C32.6004 55.8956 32.35 55.831 32.1265 55.7089C31.9029 55.5868 31.7131 55.411 31.5743 55.1974L27.8599 49.4632C27.6849 49.1927 27.5992 48.874 27.6152 48.5523C27.6311 48.2305 27.7477 47.9218 27.9486 47.6699L34.6779 39.2262C34.8328 39.041 35.0276 38.8934 35.2478 38.7944C35.4679 38.6954 35.7077 38.6476 35.949 38.6547C36.1921 38.6663 36.4289 38.7359 36.6397 38.8576C36.8505 38.9793 37.0292 39.1496 37.1608 39.3543L44.5996 50.813C44.7326 51.0161 44.8152 51.2479 44.8407 51.4893C44.8662 51.7307 44.8337 51.9746 44.7461 52.201C44.6584 52.4273 44.5181 52.6295 44.3367 52.7908C44.1553 52.9521 43.9381 53.0678 43.703 53.1284L33.2493 55.8477C33.1218 55.864 32.9926 55.864 32.865 55.8477M31.0325 48.6749L33.5153 52.6259L40.8458 50.7243L35.7223 42.8421L31.0325 48.6749Z" fill="#FFA811"/>
<path d="M5.22724 73.1787C4.87626 73.1794 4.52619 73.1431 4.18285 73.0703C3.21997 72.8753 2.33737 72.3968 1.64847 71.6964C0.959574 70.996 0.495848 70.1055 0.316844 69.1395C0.137839 68.1736 0.25174 67.1761 0.643925 66.2754C1.03611 65.3746 1.68866 64.6117 2.51774 64.0846L22.568 51.0692C22.9094 50.8498 23.3237 50.7743 23.7206 50.8592C24.1174 50.9441 24.4646 51.1825 24.6864 51.5224L28.4008 57.2468C28.5108 57.4154 28.5863 57.6042 28.623 57.8022C28.6597 58.0001 28.6569 58.2034 28.6148 58.4003C28.5727 58.5972 28.492 58.7837 28.3775 58.9493C28.263 59.1149 28.1169 59.2562 27.9476 59.3651L7.89731 72.3806C7.09984 72.8999 6.16902 73.1771 5.21737 73.1787M22.9523 54.4585L4.2321 66.6463C3.81436 66.9184 3.52163 67.3451 3.41819 67.8328C3.31474 68.3205 3.40904 68.8292 3.68035 69.2474C3.95241 69.6652 4.37911 69.9579 4.86678 70.0613C5.35445 70.1648 5.86323 70.0706 6.28145 69.7992L25.0016 57.6212L22.9523 54.4585Z" fill="#FFA811"/>
<path d="M73.1712 89.7115H39.4256C39.2242 89.7115 39.0248 89.6717 38.8389 89.5944C38.653 89.517 38.4842 89.4036 38.3422 89.2607C38.2003 89.1179 38.088 88.9484 38.0119 88.762C37.9357 88.5755 37.8972 88.3758 37.8985 88.1744V86.3025C37.9011 84.7694 38.5112 83.2998 39.5953 82.2158C40.6794 81.1317 42.1489 80.5216 43.682 80.519H68.8852C70.4183 80.5216 71.8879 81.1317 72.972 82.2158C74.056 83.2998 74.6662 84.7694 74.6688 86.3025V88.1744C74.6688 88.5821 74.5069 88.9731 74.2186 89.2613C73.9304 89.5496 73.5394 89.7115 73.1318 89.7115M40.9528 86.6473H71.5947V86.3025C71.5947 85.5813 71.3082 84.8896 70.7983 84.3796C70.2883 83.8696 69.5966 83.5832 68.8754 83.5832H43.7116C42.9904 83.5832 42.2987 83.8696 41.7887 84.3796C41.2787 84.8896 40.9922 85.5813 40.9922 86.3025L40.9528 86.6473Z" fill="#FFA811"/>
<path d="M77.7699 95.8399H34.8613C34.4536 95.8399 34.0627 95.678 33.7744 95.3898C33.4862 95.1015 33.3243 94.7106 33.3243 94.303V88.1745C33.3229 87.9723 33.3618 87.7719 33.4386 87.5848C33.5154 87.3977 33.6285 87.2278 33.7715 87.0848C33.9145 86.9419 34.0845 86.8286 34.2715 86.7518C34.4586 86.675 34.6591 86.6362 34.8613 86.6375H77.76C77.9622 86.6362 78.1627 86.675 78.3497 86.7518C78.5368 86.8286 78.7068 86.9419 78.8498 87.0848C78.9928 87.2278 79.1059 87.3977 79.1827 87.5848C79.2595 87.7719 79.2983 87.9723 79.297 88.1745V94.303C79.2983 94.5052 79.2595 94.7056 79.1827 94.8927C79.1059 95.0798 78.9928 95.2497 78.8498 95.3927C78.7068 95.5356 78.5368 95.6489 78.3497 95.7257C78.1627 95.8025 77.9622 95.8413 77.76 95.8399M36.3786 92.7758H76.2131V89.7116H36.3983L36.3786 92.7758Z" fill="#FFA811"/>
<path d="M82.3617 95.8399H30.2704C29.864 95.8399 29.4743 95.6785 29.187 95.3912C28.8997 95.1039 28.7383 94.7142 28.7383 94.3079C28.7383 93.9016 28.8997 93.5118 29.187 93.2245C29.4743 92.9372 29.864 92.7758 30.2704 92.7758H82.3715C82.7779 92.7758 83.1676 92.9372 83.4549 93.2245C83.7422 93.5118 83.9036 93.9016 83.9036 94.3079C83.9036 94.7142 83.7422 95.1039 83.4549 95.3912C83.1676 95.6785 82.7779 95.8399 82.3715 95.8399" fill="#FFA811"/>
<path d="M81.9377 32.9993V26.1517C83.1208 26.4376 84.2229 26.9903 85.1596 27.7675C85.4409 28.0271 85.8114 28.1683 86.1941 28.1617C86.3947 28.1643 86.5938 28.1273 86.78 28.053C86.9663 27.9786 87.1361 27.8683 87.2798 27.7283C87.4234 27.5884 87.5381 27.4214 87.6172 27.2371C87.6964 27.0528 87.7384 26.8547 87.741 26.6542C87.7328 26.3948 87.6623 26.1411 87.5354 25.9147C87.4085 25.6884 87.2289 25.4959 87.0119 25.3536C85.5603 24.21 83.8348 23.4662 82.0067 23.1959V22.6835C82.0067 22.2889 81.85 21.9105 81.5709 21.6315C81.2919 21.3525 80.9135 21.1957 80.5189 21.1957C80.1269 21.2009 79.7525 21.3596 79.4761 21.6377C79.1998 21.9159 79.0436 22.2914 79.041 22.6835V23.0974C75.366 23.4816 72.7648 25.9645 72.7648 29.2257C72.7648 32.487 74.6664 34.3589 79.1001 35.4526V42.4776C77.3945 42.1408 75.8234 41.3159 74.5777 40.1032C74.2912 39.8223 73.905 39.6664 73.5038 39.6696C73.1878 39.6716 72.8804 39.7722 72.6243 39.9574C72.3683 40.1425 72.1764 40.4029 72.0755 40.7024C71.9746 41.0018 71.9697 41.3253 72.0615 41.6276C72.1533 41.93 72.3372 42.1961 72.5875 42.3889C74.3845 44.0214 76.6351 45.0694 79.041 45.3941V47.069C79.041 47.4609 79.1967 47.8369 79.4739 48.114C79.7511 48.3912 80.127 48.5469 80.5189 48.5469C80.9109 48.5469 81.2868 48.3912 81.564 48.114C81.8411 47.8369 81.9968 47.4609 81.9968 47.069V45.4531C85.8 45.059 88.3913 42.5663 88.3913 39.2164C88.3913 35.8665 86.4207 34.0732 81.9377 33.019M81.9377 36.1325C85.061 36.9995 85.3369 38.103 85.3369 39.3346C85.3369 41.049 84.0068 42.2905 81.9377 42.5663V36.1325ZM75.8093 29.1174C75.8093 27.5311 77.1493 26.2995 79.0903 26.0039V32.3294C76.0754 31.4328 75.8093 30.3588 75.8093 29.1174Z" fill="#15416F"/>
</svg>
