<svg width="105" height="95" viewBox="0 0 105 95" fill="none" xmlns="http://www.w3.org/2000/svg">
<path d="M59.0892 94.31C50.9719 94.3499 42.8862 93.2975 35.0496 91.181C20.0188 86.8608 13.7135 89.4226 13.6473 89.4509C13.2609 89.6162 12.825 89.6225 12.4339 89.4686C12.0428 89.3147 11.7282 89.0128 11.5582 88.6285C11.3885 88.2459 11.3768 87.8119 11.5255 87.4207C11.6742 87.0294 11.9713 86.7127 12.3522 86.5394C12.6452 86.407 19.565 83.4198 35.9381 88.1276C47.8871 91.6537 82.7982 96.229 100.731 75.3467C100.05 74.7606 97.3373 73.8341 92.8848 75.6775C91.35 76.2418 89.8613 76.9245 88.4323 77.7195C84.4903 79.7803 80.0094 82.1247 72.2577 81.5764C72.0492 81.5621 71.8455 81.5069 71.6583 81.4139C71.471 81.3209 71.3039 81.1919 71.1666 81.0344C71.0292 80.8768 70.9243 80.6937 70.8576 80.4956C70.791 80.2974 70.764 80.088 70.7782 79.8795C70.7925 79.6709 70.8478 79.4672 70.9408 79.28C71.0338 79.0928 71.1628 78.9258 71.3204 78.7884C71.4779 78.651 71.661 78.546 71.8592 78.4794C72.0573 78.4127 72.2666 78.3858 72.4752 78.4001C79.3288 78.8822 83.2047 76.8498 86.9482 74.893C88.4886 74.0337 90.0943 73.2971 91.7504 72.6903C97.4224 70.3269 102.149 71.4992 103.567 73.8247C103.938 74.3937 104.092 75.0768 104.002 75.7499C103.912 76.423 103.583 77.0414 103.075 77.4926C91.7315 90.7272 74.0822 94.31 59.0798 94.31" fill="#15416F"/>
<path d="M58.9648 84.0342C51.8181 84.0342 46.288 82.6067 42.4689 79.7613C42.3013 79.6372 42.1597 79.4813 42.0524 79.3025C41.9451 79.1237 41.874 78.9254 41.8433 78.7192C41.8126 78.5129 41.8229 78.3025 41.8734 78.1002C41.924 77.8978 42.0139 77.7074 42.138 77.5398C42.2622 77.3722 42.4181 77.2308 42.597 77.1234C42.7758 77.0161 42.974 76.9451 43.1803 76.9143C43.3866 76.8836 43.5968 76.8938 43.7992 76.9444C44.0015 76.9949 44.1919 77.0848 44.3595 77.209C48.9255 80.6027 56.9892 81.6426 67.6809 80.2152C69.0894 80.0261 70.895 79.5061 71.4622 78.0975C71.6218 77.632 71.6603 77.1337 71.5743 76.6492C71.4883 76.1646 71.2806 75.7099 70.9706 75.3278C70.687 74.9874 70.3939 74.8267 70.2521 74.8551C70.1103 74.8835 69.7133 74.8551 69.0421 74.9496C65.4687 75.2616 57.112 75.9989 54.0113 71.4897C43.2818 58.6899 36.05 59.2004 32.1364 59.4746C31.5881 59.4746 31.1155 59.5407 30.6996 59.5407C28.7131 59.4811 26.7492 59.9753 25.0276 60.9681C22.7966 62.0742 20.0079 63.4639 12.9557 63.9649C12.5345 63.995 12.1185 63.8565 11.7994 63.5799C11.4803 63.3034 11.2841 62.9114 11.254 62.4902C11.224 62.069 11.3624 61.6531 11.639 61.3339C11.9156 61.0148 12.3076 60.8187 12.7288 60.7886C19.1571 60.3348 21.5204 59.1531 23.6096 58.1227C25.7827 56.9025 28.246 56.2948 30.7373 56.3644C31.0871 56.3644 31.4936 56.3644 31.9568 56.2983C36.1068 56.0147 44.7377 55.4097 56.5354 69.5329L56.6393 69.6747C58.6529 72.6998 66.2912 72.0286 68.7963 71.8112L69.855 71.7355C70.5443 71.6703 71.2388 71.784 71.8714 72.0655C72.5039 72.347 73.0533 72.7869 73.4663 73.3426C74.1317 74.1655 74.5693 75.1487 74.7352 76.1939C74.9011 77.2391 74.7895 78.3096 74.4116 79.2981C73.9011 80.5837 72.4075 82.8243 68.1062 83.4009C65.077 83.8226 62.0232 84.0436 58.9648 84.0626" fill="#15416F"/>
<path d="M12.1239 95H1.59294C1.17048 95 0.765272 94.8322 0.466549 94.5335C0.167826 94.2347 0 93.8296 0 93.4072C0 92.9847 0.167826 92.5795 0.466549 92.2808C0.765272 91.9821 1.17048 91.8143 1.59294 91.8143H10.5263V58.8885H1.59294C1.17048 58.8885 0.765272 58.7206 0.466549 58.4219C0.167826 58.1232 0 57.718 0 57.2955C0 56.8731 0.167826 56.468 0.466549 56.1692C0.765272 55.8705 1.17048 55.7027 1.59294 55.7027H12.1239C12.5451 55.7027 12.949 55.87 13.2469 56.1679C13.5447 56.4657 13.712 56.8697 13.712 57.2909V93.4119C13.712 93.8331 13.5447 94.237 13.2469 94.5348C12.949 94.8327 12.5451 95 12.1239 95Z" fill="#15416F"/>
<path d="M73.2214 77.7478C72.8558 77.7497 72.5006 77.6254 72.2161 77.3958C71.9315 77.1663 71.7348 76.8456 71.6593 76.4879C71.5837 76.1301 71.634 75.7572 71.8014 75.4322C71.9689 75.1072 72.2434 74.8499 72.5785 74.7038L87.5053 68.1338C89.5222 67.173 91.8328 67.0306 93.9524 67.7368C94.5149 67.942 95.0302 68.2589 95.4672 68.6682C95.9042 69.0776 96.2539 69.5711 96.4954 70.119C96.7343 70.7259 96.8426 71.3763 96.8133 72.0278C96.784 72.6793 96.6176 73.3174 96.3252 73.9003C96.1484 74.2839 95.8265 74.5816 95.4303 74.7278C95.0341 74.8741 94.596 74.8569 94.2124 74.6802C93.8288 74.5034 93.5311 74.1816 93.3849 73.7854C93.2386 73.3892 93.2558 72.951 93.4325 72.5674C93.5323 72.3856 93.5945 72.1858 93.6156 71.9796C93.6367 71.7733 93.6163 71.565 93.5554 71.3668C93.4738 71.2092 93.3615 71.0695 93.2252 70.9559C93.0888 70.8422 92.931 70.757 92.7613 70.7051C91.4335 70.3203 90.0097 70.4485 88.772 71.0643L73.8453 77.6343C73.6425 77.7225 73.4236 77.7675 73.2025 77.7667" fill="#15416F"/>
<path d="M79.2904 74.9591C78.9896 74.9603 78.6948 74.8761 78.44 74.7162C78.1852 74.5563 77.9811 74.3274 77.8514 74.056C77.7216 73.7847 77.6716 73.4821 77.7071 73.1834C77.7426 72.8847 77.8623 72.6023 78.052 72.3689C78.3134 72.1206 78.507 71.8096 78.6145 71.4655C78.722 71.1214 78.74 70.7556 78.6665 70.4027C78.586 70.246 78.4751 70.1068 78.3404 69.9933C78.2057 69.8797 78.0499 69.7939 77.8818 69.7409C76.5518 69.3469 75.1216 69.4754 73.8831 70.1001L63.4089 74.6567C63.2171 74.7398 63.0108 74.7844 62.8018 74.7879C62.5928 74.7913 62.3851 74.7536 62.1906 74.6767C61.9962 74.5999 61.8187 74.4855 61.6685 74.3401C61.5182 74.1948 61.3982 74.0213 61.315 73.8295C61.2318 73.6377 61.1873 73.4313 61.1838 73.2223C61.1804 73.0133 61.2181 72.8056 61.2949 72.6111C61.3717 72.4167 61.4861 72.2393 61.6314 72.0891C61.7768 71.9388 61.9504 71.8187 62.1422 71.7355L72.6164 67.1696C74.6333 66.2087 76.9439 66.0664 79.0635 66.7725C79.626 66.9778 80.1413 67.2946 80.5783 67.704C81.0153 68.1134 81.365 68.6068 81.6065 69.1548C81.9267 70.0348 81.9974 70.9862 81.8105 71.9038C81.6237 72.8214 81.1866 73.6694 80.5477 74.3541C80.3995 74.5403 80.2112 74.6905 79.9967 74.7936C79.7823 74.8968 79.5472 74.9501 79.3093 74.9497" fill="#15416F"/>
<path d="M30.1897 37.0513C29.875 37.0521 29.5672 36.9594 29.3053 36.7849C29.0434 36.6104 28.8393 36.3622 28.7187 36.0715C28.5982 35.7808 28.5668 35.4608 28.6284 35.1523C28.69 34.8437 28.8418 34.5604 29.0647 34.3383L62.917 0.467011C63.0646 0.318952 63.2399 0.201555 63.433 0.121397C63.626 0.04124 63.8329 0 64.0419 0C64.2509 0 64.4579 0.04124 64.651 0.121397C64.844 0.201555 65.0194 0.318952 65.1669 0.467011L99.0286 34.3288C99.1763 34.4765 99.2936 34.6518 99.3735 34.8448C99.4535 35.0379 99.4946 35.2448 99.4946 35.4537C99.4946 35.6626 99.4535 35.8695 99.3735 36.0625C99.2936 36.2555 99.1763 36.431 99.0286 36.5787C98.8809 36.7264 98.7056 36.8435 98.5125 36.9235C98.3195 37.0034 98.1126 37.0447 97.9037 37.0447C97.6948 37.0447 97.4879 37.0034 97.2949 36.9235C97.1019 36.8435 96.9264 36.7264 96.7787 36.5787L64.0419 3.8419L31.2958 36.5881C31.1479 36.7355 30.9724 36.8522 30.7794 36.9317C30.5864 37.0112 30.3795 37.0519 30.1708 37.0513" fill="#FFA811"/>
<path d="M91.1552 30.2733C90.734 30.2733 90.33 30.1059 90.0322 29.8081C89.7344 29.5103 89.567 29.1064 89.567 28.6852V17.7666H85.8898C85.4674 17.7666 85.0621 17.5987 84.7634 17.3C84.4647 17.0013 84.2969 16.5961 84.2969 16.1736C84.2969 15.7512 84.4647 15.3461 84.7634 15.0474C85.0621 14.7486 85.4674 14.5808 85.8898 14.5808H91.1552C91.5765 14.5808 91.9805 14.7481 92.2783 15.046C92.5761 15.3438 92.7435 15.7478 92.7435 16.169V28.6379C92.7435 29.0591 92.5761 29.4631 92.2783 29.7609C91.9805 30.0587 91.5765 30.2261 91.1552 30.2261" fill="#FFA811"/>
<path d="M91.1538 63.3882C90.7326 63.3882 90.3286 63.2209 90.0308 62.9231C89.7329 62.6252 89.5656 62.2212 89.5656 61.8V38.3748L64.0417 12.8509L38.5178 38.3748V51.2597C38.5178 51.6821 38.3501 52.0872 38.0514 52.386C37.7526 52.6847 37.3474 52.8525 36.925 52.8525C36.5025 52.8525 36.0973 52.6847 35.7986 52.386C35.4999 52.0872 35.332 51.6821 35.332 51.2597V37.7225C35.332 37.3011 35.4986 36.8968 35.7953 36.5976L62.8884 9.50442C63.036 9.35636 63.2113 9.23885 63.4044 9.15869C63.5974 9.07853 63.8044 9.03729 64.0134 9.03729C64.2224 9.03729 64.4293 9.07853 64.6224 9.15869C64.8154 9.23885 64.9908 9.35636 65.1383 9.50442L92.2315 36.5976C92.5282 36.8968 92.6947 37.3011 92.6947 37.7225V61.8C92.6947 62.2212 92.5274 62.6252 92.2295 62.9231C91.9317 63.2209 91.5277 63.3882 91.1065 63.3882" fill="#FFA811"/>
<path d="M72.5206 63.3882C72.0994 63.3882 71.6954 63.2209 71.3976 62.9231C71.0998 62.6252 70.9324 62.2212 70.9324 61.8V49.5107H57.1779V61.8C57.1779 62.2225 57.0101 62.6277 56.7114 62.9264C56.4127 63.2251 56.0075 63.3929 55.585 63.3929C55.1626 63.3929 54.7573 63.2251 54.4586 62.9264C54.1599 62.6277 53.9922 62.2225 53.9922 61.8V47.8848C53.9922 47.6762 54.0332 47.4697 54.113 47.277C54.1928 47.0843 54.3098 46.9093 54.4572 46.7619C54.6047 46.6144 54.7798 46.4973 54.9725 46.4175C55.1652 46.3377 55.3717 46.2967 55.5803 46.2967H72.5112C72.9324 46.2967 73.3363 46.464 73.6341 46.7619C73.9319 47.0597 74.0993 47.4636 74.0993 47.8848V61.8C74.0993 62.2212 73.9319 62.6252 73.6341 62.9231C73.3363 63.2209 72.9324 63.3882 72.5112 63.3882" fill="#FFA811"/>
</svg>
