<svg width="32" height="29" viewBox="0 0 32 29" fill="none" xmlns="http://www.w3.org/2000/svg">
<path d="M31.955 9.14234V13.0723C31.955 17.3123 30.295 21.2923 27.275 24.2823C24.295 27.2323 20.355 28.8523 16.165 28.8523H16.015C7.395 28.7623 0.375 21.6023 0.375 12.8723V9.14234C0.375 8.60234 0.825 8.15234 1.365 8.15234H3.585C4.125 8.15234 4.575 8.59234 4.575 9.14234V12.8923C4.575 19.2823 9.695 24.5623 15.985 24.6523C19.115 24.7023 22.055 23.5223 24.295 21.3223C26.525 19.1223 27.755 16.1923 27.755 13.0723V9.14234C27.755 8.60234 28.195 8.15234 28.745 8.15234H30.965C31.505 8.15234 31.955 8.59234 31.955 9.14234Z" fill="#62BFFA"/>
<path d="M11.8867 1.99012C12.1267 3.42012 10.8967 4.65012 9.46668 4.41012C8.59668 4.27012 7.89668 3.57012 7.75668 2.70012C7.51668 1.27012 8.74668 0.040118 10.1767 0.280118C11.0467 0.420118 11.7467 1.12012 11.8867 1.99012Z" fill="#62BFFA"/>
<path d="M24.582 1.99012C24.822 3.42012 23.592 4.65012 22.162 4.41012C21.292 4.27012 20.592 3.57012 20.452 2.70012C20.212 1.27012 21.442 0.040118 22.872 0.280118C23.742 0.420118 24.432 1.12012 24.582 1.99012Z" fill="#62BFFA"/>
</svg>
