<svg width="18" height="18" viewBox="0 0 18 18" fill="none" xmlns="http://www.w3.org/2000/svg">
<path d="M5.27324 9.05883H7.13027V16.7344C7.13027 16.8859 7.25258 17.0086 7.40352 17.0086H10.5522C10.7031 17.0086 10.8254 16.8859 10.8254 16.7344V9.09498H12.9602C13.099 9.09498 13.2158 8.99041 13.2317 8.85198L13.5559 6.02623C13.5648 5.94848 13.5403 5.87063 13.4885 5.81231C13.4366 5.75392 13.3624 5.72052 13.2845 5.72052H10.8255V3.9492C10.8255 3.41524 11.1119 3.14446 11.6767 3.14446C11.7572 3.14446 13.2845 3.14446 13.2845 3.14446C13.4354 3.14446 13.5578 3.02162 13.5578 2.87013V0.276364C13.5578 0.124822 13.4354 0.00203083 13.2845 0.00203083H11.0688C11.0531 0.00126212 11.0184 0 10.9673 0C10.5828 0 9.2465 0.0757716 8.1909 1.05076C7.0213 2.13119 7.18388 3.42484 7.22274 3.64913V5.72046H5.27324C5.1223 5.72046 5 5.84325 5 5.99479V8.78443C5 8.93597 5.1223 9.05883 5.27324 9.05883Z" fill="#002A73"/>
</svg>