<svg width="20" height="20" viewBox="0 0 20 20" fill="none" xmlns="http://www.w3.org/2000/svg">
<g clip-path="url(#clip0_265_2551)">
<path fill-rule="evenodd" clip-rule="evenodd" d="M10.0004 0.416992C7.62639 0.418224 5.33025 1.25904 3.52253 2.78909C1.71482 4.31915 0.513395 6.43867 0.133096 8.76866C-0.247203 11.0986 0.218415 13.4872 1.4467 15.5071C2.67499 17.5271 4.58584 19.0468 6.83758 19.7945C7.33436 19.8867 7.52147 19.5788 7.52147 19.317C7.52147 19.0552 7.51153 18.2962 7.50822 17.4663C4.72631 18.0673 4.13846 16.2924 4.13846 16.2924C3.68475 15.1399 3.02901 14.8369 3.02901 14.8369C2.12157 14.2211 3.0969 14.2326 3.0969 14.2326C4.10204 14.3034 4.63027 15.2584 4.63027 15.2584C5.52115 16.7781 6.97006 16.3385 7.53969 16.0816C7.6291 15.4379 7.88909 14.9999 8.17556 14.7513C5.95333 14.501 3.61851 13.6481 3.61851 9.83818C3.60473 8.85008 3.97349 7.89454 4.64849 7.16923C4.54582 6.91896 4.20304 5.90802 4.74618 4.53485C4.74618 4.53485 5.58573 4.26812 7.49664 5.55403C9.1357 5.10835 10.865 5.10835 12.5041 5.55403C14.4133 4.26812 15.2512 4.53485 15.2512 4.53485C15.796 5.90473 15.4533 6.91567 15.3506 7.16923C16.0277 7.89465 16.3972 8.85187 16.3822 9.84147C16.3822 13.6597 14.0424 14.501 11.8169 14.7464C12.1746 15.0559 12.4942 15.6601 12.4942 16.5888C12.4942 17.9191 12.4826 18.9893 12.4826 19.317C12.4826 19.5821 12.663 19.8916 13.1698 19.7945C15.4218 19.0467 17.3328 17.5267 18.5611 15.5064C19.7893 13.4861 20.2547 11.0972 19.874 8.76704C19.4932 6.43683 18.2912 4.31729 16.4829 2.7875C14.6746 1.25771 12.3779 0.417443 10.0037 0.416992H10.0004Z" fill="#191717"/>
<path d="M3.78827 14.6935C3.76674 14.7429 3.68726 14.7577 3.62268 14.7232C3.5581 14.6886 3.51008 14.6244 3.53327 14.5733C3.55645 14.5223 3.63428 14.5091 3.69886 14.5437C3.76344 14.5783 3.81311 14.6441 3.78827 14.6935Z" fill="#191717"/>
<path d="M4.19334 15.1433C4.15905 15.1604 4.11982 15.1652 4.08236 15.1568C4.0449 15.1484 4.01155 15.1273 3.98801 15.0972C3.92343 15.028 3.91018 14.9325 3.95985 14.8897C4.00953 14.8469 4.09896 14.8667 4.16354 14.9358C4.22812 15.005 4.24302 15.1005 4.19334 15.1433Z" fill="#191717"/>
<path d="M4.58673 15.7138C4.52546 15.7566 4.42113 15.7138 4.36318 15.6282C4.34715 15.6129 4.33441 15.5944 4.3257 15.5741C4.31699 15.5537 4.3125 15.5318 4.3125 15.5097C4.3125 15.4875 4.31699 15.4656 4.3257 15.4453C4.33441 15.4249 4.34715 15.4065 4.36318 15.3911C4.42444 15.35 4.52877 15.3911 4.58673 15.4751C4.64468 15.5591 4.64634 15.671 4.58673 15.7138Z" fill="#191717"/>
<path d="M5.12168 16.2674C5.06704 16.3283 4.95609 16.3118 4.86502 16.2295C4.77394 16.1472 4.75241 16.0352 4.80706 15.9759C4.8617 15.9167 4.97265 15.9331 5.06703 16.0138C5.16142 16.0945 5.17964 16.2081 5.12168 16.2674Z" fill="#191717"/>
<path d="M5.87246 16.5903C5.84762 16.6677 5.73502 16.7023 5.62242 16.6694C5.50982 16.6364 5.4353 16.5442 5.45683 16.4652C5.47836 16.3862 5.59262 16.3499 5.70687 16.3862C5.82113 16.4224 5.89399 16.5096 5.87246 16.5903Z" fill="#191717"/>
<path d="M6.69059 16.6459C6.69059 16.7266 6.59787 16.7957 6.47864 16.7974C6.35942 16.799 6.26172 16.7332 6.26172 16.6525C6.26172 16.5718 6.35444 16.5027 6.47367 16.501C6.59289 16.4994 6.69059 16.5636 6.69059 16.6459Z" fill="#191717"/>
<path d="M7.45068 16.5189C7.46559 16.5996 7.38279 16.6836 7.26357 16.7033C7.14434 16.7231 7.04002 16.6754 7.02512 16.5963C7.01021 16.5173 7.09632 16.4317 7.21223 16.4103C7.32815 16.3889 7.43578 16.4383 7.45068 16.5189Z" fill="#191717"/>
</g>
<defs>
<clipPath id="clip0_265_2551">
<rect width="20" height="20" fill="white"/>
</clipPath>
</defs>
</svg>
