<svg width="21" height="20" viewBox="0 0 21 20" fill="none" xmlns="http://www.w3.org/2000/svg">
<g clip-path="url(#clip0_265_2548)">
<path d="M20.3042 10.2302C20.3042 9.55044 20.2491 8.86699 20.1315 8.19824H10.6992V12.0491H16.1007C15.8765 13.291 15.1563 14.3897 14.1018 15.0878V17.5864H17.3243C19.2166 15.8448 20.3042 13.2726 20.3042 10.2302Z" fill="#4285F4"/>
<path d="M10.7019 20.0008C13.3989 20.0008 15.6734 19.1152 17.3306 17.5867L14.1081 15.088C13.2115 15.698 12.0541 16.0434 10.7056 16.0434C8.09669 16.0434 5.88468 14.2833 5.091 11.917H1.76562V14.4928C3.46322 17.8696 6.92087 20.0008 10.7019 20.0008Z" fill="#34A853"/>
<path d="M5.08467 11.9172C4.66578 10.6753 4.66578 9.33044 5.08467 8.08848V5.5127H1.76297C0.344635 8.33834 0.344635 11.6674 1.76297 14.493L5.08467 11.9172Z" fill="#FBBC04"/>
<path d="M10.7019 3.95805C12.1276 3.936 13.5055 4.47247 14.538 5.45722L17.393 2.60218C15.5852 0.904587 13.1858 -0.0287217 10.7019 0.000673888C6.92087 0.000673888 3.46322 2.13185 1.76562 5.51234L5.08732 8.08813C5.87733 5.71811 8.09302 3.95805 10.7019 3.95805Z" fill="#EA4335"/>
</g>
<defs>
<clipPath id="clip0_265_2548">
<rect width="20" height="20" fill="white" transform="translate(0.5)"/>
</clipPath>
</defs>
</svg>
