<svg width="18" height="18" viewBox="0 0 18 18" fill="none" xmlns="http://www.w3.org/2000/svg">
<path d="M4.18594 5.72461H0.784964C0.634023 5.72461 0.511719 5.84745 0.511719 5.99894V16.9683C0.511719 17.1198 0.634023 17.2427 0.784964 17.2427H4.18594C4.33687 17.2427 4.45918 17.1198 4.45918 16.9683V5.99894C4.45918 5.84745 4.33687 5.72461 4.18594 5.72461Z" fill="#002A73"/>
<path d="M2.4825 0.273438C1.24503 0.273438 0.238281 1.28309 0.238281 2.52413C0.238281 3.7657 1.24503 4.77575 2.4825 4.77575C3.71898 4.77575 4.72491 3.76565 4.72491 2.52413C4.72496 1.28309 3.71898 0.273438 2.4825 0.273438Z" fill="#002A73"/>
<path d="M12.8308 5.45312C11.4648 5.45312 10.455 6.04267 9.84258 6.71253V6.00009C9.84258 5.8486 9.72027 5.72575 9.56934 5.72575H6.31231C6.16137 5.72575 6.03906 5.8486 6.03906 6.00009V16.9695C6.03906 17.121 6.16137 17.2438 6.31231 17.2438H9.70585C9.85679 17.2438 9.97909 17.121 9.97909 16.9695V11.5422C9.97909 9.7133 10.4739 9.00081 11.7437 9.00081C13.1267 9.00081 13.2366 10.143 13.2366 11.6363V16.9696C13.2366 17.1211 13.3589 17.2439 13.5098 17.2439H16.9046C17.0556 17.2439 17.1779 17.1211 17.1779 16.9696V10.9526C17.1779 8.23316 16.6614 5.45312 12.8308 5.45312Z" fill="#002A73"/>
</svg>