<svg width="149" height="70" viewBox="0 0 149 70" fill="none" xmlns="http://www.w3.org/2000/svg">
<path d="M0.232666 35V70H4.14568H8.05869V53.3786V36.7411L8.72949 36.854C10.2947 37.1119 15.8048 37.7568 17.8013 37.918C18.9832 38.0147 19.9734 38.1115 19.9894 38.1437C20.0213 38.1598 22.2254 42.3837 24.9086 47.5104C27.5918 52.637 30.6423 58.4247 31.6805 60.3915C32.7186 62.3584 34.2679 65.3086 35.1463 66.9853L36.7115 70H45.2243H53.7371V57.4413V44.8825L55.3023 43.1253C56.1488 42.158 58.6882 39.2883 60.9242 36.7411C63.1603 34.1939 65.0289 32.1142 65.0768 32.1142C65.1247 32.1142 65.5879 32.8881 66.115 33.8392C66.6261 34.8065 67.3448 36.1285 67.7121 36.7895C68.0795 37.4505 68.8301 38.8369 69.3891 39.8526C69.9481 40.8683 70.7786 42.3998 71.2418 43.2381C71.689 44.0765 73.0626 46.5753 74.2604 48.8001C77.5186 54.7812 78.3012 56.2322 79.1317 57.7476C79.547 58.5053 80.3615 59.9885 80.9365 61.0525C81.5115 62.1165 82.4059 63.7448 82.917 64.6799C83.428 65.6149 84.2745 67.1948 84.8016 68.1944L85.7599 70H102.37C121.552 70 121.68 69.9839 126.072 68.5491C132.301 66.5177 137.699 62.4551 141.852 56.6997C146.276 50.5412 148.767 42.4965 148.767 34.2906C148.767 28.4546 147.617 23.328 145.254 18.5721C141.037 10.076 133.131 4.04652 122.846 1.48318C117.591 0.177338 117.256 0.145088 105.612 0.0806046L95.2629 0V34.9516C95.2629 57.5058 95.215 69.8549 95.1032 69.7421C95.0233 69.6614 94.5282 68.8231 94.0171 67.9042C92.6116 65.3731 87.7403 56.5707 86.1592 53.7172C85.3925 52.3468 83.5398 48.9613 82.0066 46.2206C80.4893 43.4638 78.2533 39.4496 77.0554 37.2731C75.8576 35.0967 73.957 31.6628 72.823 29.6154C71.689 27.5841 70.7786 25.8429 70.7786 25.7462C70.7786 25.6333 72.823 23.2473 75.3145 20.4261C77.8061 17.6048 80.4574 14.59 81.208 13.7356C81.9587 12.865 84.8655 9.56011 87.6605 6.38415C90.4715 3.2082 92.8672 0.467522 92.995 0.306305C93.2186 0.0483627 93.1706 0.0322418 92.1325 0.0322418H91.0145L88.8743 2.72455C85.3287 7.19023 82.0864 11.0755 79.3713 14.1386C77.9658 15.7347 74.1486 20.0553 70.9064 23.731C67.6642 27.4067 64.3581 31.1469 63.5755 32.0336C62.7769 32.9364 60.2534 35.79 57.9695 38.3855L53.8169 43.1092L53.769 21.5707L53.7371 0.0322418H49.8241H45.9111V34.871C45.9111 59.9079 45.8632 69.6937 45.7354 69.6453C45.6396 69.6131 44.7132 68.0009 43.691 66.0502C42.6529 64.0995 40.896 60.7623 39.778 58.6343C38.644 56.5062 37.2386 53.8623 36.6476 52.7499C36.0567 51.6375 34.188 48.123 32.495 44.9309C30.8021 41.7388 29.141 38.6112 28.8056 37.9664L28.1827 36.8217L29.0292 36.5316C32.9422 35.2257 37.2226 32.082 39.4746 28.8577C42.03 25.1819 43.148 20.3616 42.5571 15.5735C41.5828 7.77061 36.1206 2.8374 26.2502 0.854439C22.8802 0.177338 22.2893 0.145088 11.1412 0.0806046L0.232666 0.0161209V35ZM19.7179 1.54767C23.2955 2.17641 26.1384 3.25656 28.2466 4.772C28.8056 5.17503 29.7959 6.09396 30.4826 6.81944C33.3894 9.94703 34.779 15.0092 34.2679 20.6679C33.8526 25.3432 32.4471 28.6803 29.716 31.5983C28.2786 33.1138 26.5856 34.3229 24.2378 35.4675L22.3531 36.3865L18.2006 36.3703C14.5591 36.3703 11.78 36.2252 8.90517 35.8867L8.05869 35.79V18.4592V1.12851L13.1376 1.20911C16.843 1.25748 18.5999 1.35421 19.7179 1.54767ZM114.413 1.4187C118.086 1.95071 121.105 2.90189 124.171 4.4818C127.238 6.0456 129.298 7.60939 131.822 10.2856C134.473 13.0746 136.565 16.573 138.035 20.6034C141.261 29.4703 141.42 42.3998 138.434 51.4602C136.98 55.8936 134.968 59.2791 132.093 62.1971C128.915 65.4053 125.752 67.1948 120.929 68.5007L119.3 68.9521H111.234H103.169L103.121 35.0484L103.089 1.16075H107.896C111.41 1.16075 113.167 1.22524 114.413 1.4187Z" fill="#E5E4E2"/>
<path d="M106 35L111.549 33.4313C116.117 32.1399 119.679 28.6601 120.975 24.2207L122.5 19L123.89 24.0702C125.15 28.6681 128.831 32.2729 133.56 33.541L139 35L133.996 36.1523C128.957 37.3127 125.01 41.1087 123.773 45.9856L122.5 51L120.942 45.5518C119.593 40.8362 115.7 37.2089 110.787 36.0901L106 35Z" fill="#E5E4E2"/>
</svg>
