<svg width="800" height="378" viewBox="0 0 800 378" fill="none" xmlns="http://www.w3.org/2000/svg">
<path opacity="0.09" d="M0 188.662V377.162H21.0743H42.1487V287.644V198.039L45.7614 198.647C54.1912 200.036 83.8673 203.509 94.6195 204.377C100.985 204.898 106.318 205.419 106.404 205.593C106.576 205.68 118.446 228.428 132.897 256.039C147.348 283.65 163.778 314.82 169.369 325.413C174.96 336.006 183.304 351.895 188.035 360.925L196.464 377.162H242.312H288.159V309.524V241.886L296.589 232.422C301.148 227.213 314.825 211.757 326.867 198.039C338.91 184.32 348.974 173.12 349.232 173.12C349.49 173.12 351.985 177.287 354.823 182.41C357.576 187.62 361.447 194.739 363.425 198.299C365.403 201.859 369.446 209.326 372.457 214.796C375.467 220.266 379.94 228.515 382.435 233.03C384.843 237.545 392.241 251.003 398.692 262.985C416.24 295.198 420.455 303.012 424.928 311.174C427.164 315.254 431.551 323.242 434.648 328.973C437.744 334.704 442.561 343.473 445.314 348.509C448.066 353.545 452.625 362.054 455.464 367.437L460.625 377.162H550.083C653.391 377.162 654.079 377.075 677.734 369.347C711.281 358.407 740.355 336.527 762.719 305.53C786.546 272.362 799.965 229.036 799.965 184.841C799.965 153.41 793.772 125.799 781.041 100.186C758.332 54.4281 715.754 21.955 660.358 8.14966C632.058 1.1167 630.252 0.943054 567.545 0.595764L511.805 0.161621V188.401C511.805 309.871 511.547 376.38 510.945 375.772C510.515 375.338 507.849 370.823 505.096 365.874C497.527 352.242 471.291 304.835 462.775 289.467C458.647 282.087 448.668 263.853 440.411 249.093C432.239 234.245 420.197 212.626 413.745 200.904C407.294 189.183 397.058 170.689 390.951 159.662C384.843 148.721 379.94 139.344 379.94 138.823C379.94 138.216 390.951 125.365 404.369 110.171C417.788 94.976 432.067 78.7395 436.11 74.1377C440.153 69.449 455.808 51.6497 470.861 34.5449C486 17.4401 498.903 2.6796 499.591 1.81131C500.795 0.422089 500.537 0.335266 494.946 0.335266H488.925L477.398 14.8353C458.302 38.8862 440.841 59.8113 426.218 76.3083C418.648 84.9041 398.09 108.174 380.628 127.97C363.167 147.766 345.361 167.91 341.146 172.686C336.845 177.548 323.255 192.916 310.954 206.895L288.589 232.335L288.331 116.335L288.159 0.335266H267.085H246.011V187.967C246.011 322.808 245.753 375.512 245.065 375.251C244.548 375.078 239.559 366.395 234.054 355.889C228.463 345.383 219.001 327.41 212.98 315.949C206.873 304.488 199.303 290.248 196.12 284.257C192.938 278.266 182.874 259.338 173.756 242.147C164.638 224.955 155.692 208.111 153.886 204.638L150.531 198.473L155.09 196.91C176.164 189.877 199.217 172.946 211.346 155.581C225.108 135.784 231.13 109.823 227.947 84.0359C222.7 42.0119 193.282 15.4431 140.123 4.76343C121.973 1.1167 118.79 0.943054 58.7501 0.595764L0 0.248444V188.662ZM104.942 8.49695C124.21 11.8832 139.521 17.7005 150.875 25.8622C153.886 28.0329 159.219 32.982 162.918 36.8892C178.573 53.7335 186.056 80.9969 183.304 111.473C181.067 136.653 173.498 154.626 158.789 170.341C151.047 178.503 141.929 185.015 129.285 191.18L119.135 196.129L96.7699 196.042C77.1579 196.042 62.1908 195.26 46.7076 193.437L42.1487 192.916V99.5778V6.23947L69.5023 6.67358C89.4584 6.93408 98.9204 7.45505 104.942 8.49695ZM614.941 7.80234C634.725 10.6676 650.982 15.7904 667.498 24.2993C684.013 32.7215 695.109 41.1436 708.7 55.5568C722.979 70.5778 734.247 89.4191 742.161 111.126C759.537 158.88 760.397 228.515 744.311 277.311C736.484 301.189 725.646 319.422 710.162 335.138C693.045 352.416 676.013 362.054 650.036 369.087L641.262 371.518H597.823H554.384L554.126 188.922L553.954 6.41312H579.846C598.769 6.41312 608.231 6.76044 614.941 7.80234Z" fill="#16336B"/>
<path opacity="0.09" d="M569.273 199.973L598.434 191.472C622.44 184.473 641.155 165.615 647.97 141.556L655.983 113.263L663.287 140.741C669.911 165.658 689.252 185.194 714.102 192.066L742.693 199.973L716.396 206.218C689.914 212.507 669.174 233.079 662.671 259.509L655.983 286.683L647.794 257.158C640.706 231.602 620.249 211.944 594.431 205.881L569.273 199.973Z" fill="#16336B"/>
</svg>
