<svg width="1196" height="1144" viewBox="0 0 1196 1144" fill="none" xmlns="http://www.w3.org/2000/svg">
<mask id="mask0_2619_4823" style="mask-type:alpha" maskUnits="userSpaceOnUse" x="46" y="20" width="1103" height="1103">
<path d="M46.7051 936.504L196.283 759.821C319.418 614.374 359.043 415.798 301.162 234.23L233.094 20.705L395.085 164.62C541.985 295.128 747.08 337.94 933.923 277.096L1148.89 207.093L1008.02 357.391C866.166 508.742 820.878 726.723 890.707 922.055L962.504 1122.89L786.272 969.682C633.736 837.073 421.032 798.184 231.443 868.24L46.7051 936.504Z" fill="#C4C4C4"/>
</mask>
<g mask="url(#mask0_2619_4823)">
<g filter="url(#filter0_f_2619_4823)">
<rect x="291.234" y="66" width="284.361" height="284.361" transform="rotate(30.0124 291.234 66)" fill="#001AFF"/>
</g>
<g filter="url(#filter1_f_2619_4823)">
<circle cx="869.5" cy="386.5" r="201.5" fill="#00C2FF"/>
</g>
<g filter="url(#filter2_f_2619_4823)">
<path d="M348.5 413L414.17 615.113H626.684L454.757 740.025L520.427 942.137L348.5 817.225L176.573 942.137L242.243 740.025L70.316 615.113H282.83L348.5 413Z" fill="#DB00FF"/>
</g>
<g filter="url(#filter3_f_2619_4823)">
<path d="M863.775 552.49L846.945 933.8L525.136 728.57L863.775 552.49Z" fill="#00FFA3"/>
</g>
</g>
<defs>
<filter id="filter0_f_2619_4823" x="-251" y="-334" width="1188.47" height="1188.47" filterUnits="userSpaceOnUse" color-interpolation-filters="sRGB">
<feFlood flood-opacity="0" result="BackgroundImageFix"/>
<feBlend mode="normal" in="SourceGraphic" in2="BackgroundImageFix" result="shape"/>
<feGaussianBlur stdDeviation="200" result="effect1_foregroundBlur_2619_4823"/>
</filter>
<filter id="filter1_f_2619_4823" x="268" y="-215" width="1203" height="1203" filterUnits="userSpaceOnUse" color-interpolation-filters="sRGB">
<feFlood flood-opacity="0" result="BackgroundImageFix"/>
<feBlend mode="normal" in="SourceGraphic" in2="BackgroundImageFix" result="shape"/>
<feGaussianBlur stdDeviation="200" result="effect1_foregroundBlur_2619_4823"/>
</filter>
<filter id="filter2_f_2619_4823" x="-329.684" y="13" width="1356.37" height="1329.14" filterUnits="userSpaceOnUse" color-interpolation-filters="sRGB">
<feFlood flood-opacity="0" result="BackgroundImageFix"/>
<feBlend mode="normal" in="SourceGraphic" in2="BackgroundImageFix" result="shape"/>
<feGaussianBlur stdDeviation="200" result="effect1_foregroundBlur_2619_4823"/>
</filter>
<filter id="filter3_f_2619_4823" x="125.137" y="152.49" width="1138.64" height="1181.31" filterUnits="userSpaceOnUse" color-interpolation-filters="sRGB">
<feFlood flood-opacity="0" result="BackgroundImageFix"/>
<feBlend mode="normal" in="SourceGraphic" in2="BackgroundImageFix" result="shape"/>
<feGaussianBlur stdDeviation="200" result="effect1_foregroundBlur_2619_4823"/>
</filter>
</defs>
</svg>
