<svg width="75" height="36" viewBox="0 0 75 36" fill="none" xmlns="http://www.w3.org/2000/svg">
<path d="M0 18V35.5H1.9565H3.91301V27.1893V18.8706L4.24841 18.927C5.03101 19.056 7.78609 19.3784 8.7843 19.459C9.37525 19.5074 9.87036 19.5557 9.87835 19.5719C9.89432 19.5799 10.9964 21.6918 12.338 24.2552C13.6796 26.8185 15.2048 29.7123 15.7239 30.6958C16.243 31.6792 17.0176 33.1543 17.4568 33.9926L18.2394 35.5H22.4958H26.7522V29.2206V22.9413L27.5348 22.0626C27.958 21.579 29.2278 20.1442 30.3458 18.8706C31.4638 17.597 32.3981 16.5571 32.4221 16.5571C32.446 16.5571 32.6776 16.944 32.9411 17.4196C33.1967 17.9033 33.556 18.5643 33.7397 18.8947C33.9234 19.2252 34.2987 19.9185 34.5782 20.4263C34.8577 20.9341 35.273 21.6999 35.5046 22.1191C35.7282 22.5382 36.4149 23.7877 37.0139 24.9C38.643 27.8906 39.0343 28.6161 39.4495 29.3738C39.6571 29.7526 40.0644 30.4942 40.3519 31.0263C40.6394 31.5583 41.0866 32.3724 41.3421 32.8399C41.5977 33.3075 42.0209 34.0974 42.2844 34.5972L42.7636 35.5H51.0687C60.6596 35.5 60.7235 35.4919 62.9196 34.7745C66.034 33.7589 68.7332 31.7275 70.8095 28.8498C73.0215 25.7706 74.2673 21.7483 74.2673 17.6453C74.2673 14.7273 73.6923 12.164 72.5104 9.78604C70.4022 5.538 66.4493 2.52326 61.3065 1.24159C58.6791 0.588669 58.5114 0.572544 52.6898 0.540302L47.5151 0.5V17.9758C47.5151 29.2529 47.4911 35.4275 47.4352 35.371C47.3953 35.3307 47.1478 34.9116 46.8922 34.4521C46.1895 33.1865 43.7538 28.7854 42.9632 27.3586C42.5799 26.6734 41.6536 24.9807 40.8869 23.6103C40.1283 22.2319 39.0103 20.2248 38.4114 19.1366C37.8124 18.0484 36.8621 16.3314 36.2951 15.3077C35.7282 14.292 35.273 13.4215 35.273 13.3731C35.273 13.3167 36.2951 12.1237 37.5409 10.713C38.7867 9.30239 40.1123 7.79502 40.4877 7.3678C40.863 6.93252 42.3164 5.28005 43.7139 3.69208C45.1194 2.1041 46.3172 0.733761 46.3811 0.653152C46.4929 0.524181 46.469 0.516121 45.9499 0.516121H45.3909L44.3208 1.86227C42.548 4.09512 40.9269 6.03777 39.5693 7.56932C38.8666 8.36734 36.958 10.5276 35.3369 12.3655C33.7158 14.2034 32.0627 16.0735 31.6714 16.5168C31.2721 16.9682 30.0104 18.395 28.8684 19.6928L26.7921 22.0546L26.7682 11.2854L26.7522 0.516121H24.7957H22.8392V17.9355C22.8392 30.4539 22.8152 35.3468 22.7513 35.3227C22.7034 35.3065 22.2403 34.5005 21.7292 33.5251C21.2101 32.5497 20.3317 30.8812 19.7727 29.8171C19.2057 28.7531 18.5029 27.4311 18.2075 26.8749C17.912 26.3187 16.9777 24.5615 16.1312 22.9655C15.2847 21.3694 14.4542 19.8056 14.2865 19.4832L13.975 18.9109L14.3983 18.7658C16.3548 18.1129 18.495 16.541 19.6209 14.9288C20.8987 13.091 21.4577 10.6808 21.1622 8.28673C20.6751 4.38531 17.9439 1.9187 13.0088 0.927219C11.3238 0.588669 11.0283 0.572544 5.45425 0.540302L0 0.50806V18ZM9.74259 1.27383C11.5314 1.58821 12.9529 2.12828 14.007 2.886C14.2865 3.08752 14.7816 3.54698 15.125 3.90972C16.5784 5.47351 17.2731 8.0046 17.0176 10.8339C16.81 13.1716 16.1072 14.8402 14.7417 16.2992C14.0229 17.0569 13.1765 17.6614 12.0026 18.2338L11.0602 18.6932L8.98395 18.6852C7.1632 18.6852 5.77368 18.6126 4.33625 18.4433L3.91301 18.395V9.72962V1.06425L6.45247 1.10456C8.30516 1.12874 9.18359 1.1771 9.74259 1.27383ZM57.09 1.20935C58.9267 1.47536 60.436 1.95094 61.9693 2.7409C63.5025 3.5228 64.5327 4.3047 65.7944 5.64279C67.1201 7.03731 68.1662 8.7865 68.9009 10.8017C70.514 15.2351 70.5939 21.6999 69.1005 26.2301C68.3738 28.4468 67.3676 30.1396 65.9302 31.5986C64.341 33.2027 62.7599 34.0974 60.3482 34.7503L59.5336 34.976H55.5008H51.468L51.4441 18.0242L51.4281 1.08038H53.8318C55.5887 1.08038 56.4671 1.11262 57.09 1.20935Z" fill="#16346C"/>
<path d="M55.3623 18.9546L57.2884 18.3931C58.874 17.9308 60.1102 16.6852 60.5603 15.0961L61.0896 13.2273L61.572 15.0422C62.0095 16.688 63.287 17.9784 64.9284 18.4323L66.8168 18.9546L65.0799 19.367C63.3307 19.7824 61.9608 21.1412 61.5313 22.8869L61.0896 24.6818L60.5487 22.7316C60.0805 21.0437 58.7293 19.7453 57.024 19.3448L55.3623 18.9546Z" fill="#16346C"/>
</svg>
