<svg width="107" height="50" viewBox="0 0 107 50" fill="none" xmlns="http://www.w3.org/2000/svg">
<path d="M0 25V50H2.79501H5.59001V38.1276V26.2437L6.06916 26.3243C7.18716 26.5085 11.123 26.9691 12.549 27.0843C13.3932 27.1534 14.1005 27.2225 14.1119 27.2455C14.1347 27.257 15.7091 30.2741 17.6257 33.936C19.5422 37.5979 21.7212 41.7319 22.4627 43.1368C23.2043 44.5417 24.3108 46.649 24.9383 47.8466L26.0563 50H32.1369H38.2174V41.0295V32.059L39.3354 30.8038C39.9401 30.1129 41.754 28.0631 43.3511 26.2437C44.9483 24.4242 46.283 22.9387 46.3172 22.9387C46.3515 22.9387 46.6823 23.4915 47.0588 24.1709C47.4238 24.8618 47.9372 25.8061 48.1996 26.2782C48.462 26.7503 48.9982 27.7407 49.3975 28.4661C49.7967 29.1916 50.39 30.2856 50.7208 30.8844C51.0402 31.4832 52.0213 33.2681 52.8769 34.8572C55.2042 39.1294 55.7632 40.1658 56.3564 41.2483C56.6531 41.7895 57.2349 42.8489 57.6456 43.6089C58.0563 44.369 58.6951 45.532 59.0602 46.1999C59.4252 46.8678 60.0299 47.9963 60.4064 48.7103L61.0908 50H72.9554C86.6566 50 86.7479 49.9885 89.8851 48.9636C94.3343 47.5127 98.1903 44.6108 101.156 40.4998C104.316 36.1009 106.096 30.3547 106.096 24.4933C106.096 20.3247 105.275 16.6628 103.586 13.2658C100.575 7.19714 94.9275 2.89037 87.5807 1.05942C83.8274 0.126667 83.5878 0.103638 75.2712 0.0575752L67.8787 0V24.9655C67.8787 41.0755 67.8445 49.8964 67.7646 49.8158C67.7076 49.7582 67.3539 49.1594 66.9889 48.503C65.985 46.6951 62.5055 40.4076 61.376 38.3694C60.8285 37.3906 59.5051 34.9724 58.4099 33.0147C57.3261 31.0456 55.729 28.1783 54.8734 26.6237C54.0178 25.0691 52.6602 22.6163 51.8502 21.1538C51.0402 19.7029 50.39 18.4592 50.39 18.3901C50.39 18.3095 51.8502 16.6053 53.6299 14.59C55.4096 12.5748 57.3033 10.4215 57.8395 9.81115C58.3757 9.18931 60.452 6.82865 62.4484 4.56011C64.4563 2.29157 66.1675 0.333946 66.2588 0.218792C66.4185 0.0345459 66.3842 0.0230293 65.6427 0.0230293H64.8441L63.3154 1.94611C60.7828 5.13588 58.467 7.9111 56.5276 10.099C55.5236 11.2391 52.7971 14.3252 50.4812 16.9507C48.1654 19.5762 45.8039 22.2478 45.2449 22.8812C44.6745 23.526 42.872 25.5643 41.2406 27.4182L38.2745 30.7923L38.2402 15.4076L38.2174 0.0230293H35.4224H32.6274V24.9079C32.6274 42.7913 32.5932 49.7812 32.5019 49.7467C32.4335 49.7236 31.7718 48.5721 31.0417 47.1787C30.3001 45.7854 29.0452 43.4017 28.2467 41.8816C27.4367 40.3616 26.4328 38.4731 26.0107 37.6785C25.5886 36.8839 24.2538 34.3736 23.0445 32.0935C21.8353 29.8134 20.6488 27.5795 20.4092 27.1188L19.9643 26.3012L20.569 26.094C23.364 25.1612 26.4214 22.9157 28.0299 20.6126C29.8552 17.9871 30.6538 14.544 30.2317 11.1239C29.5358 5.55043 25.6342 2.02671 18.5839 0.610317C16.1768 0.126667 15.7547 0.103638 7.79179 0.0575752L0 0.0115128V25ZM13.918 1.10548C16.4734 1.55458 18.5041 2.32611 20.01 3.40857C20.4092 3.69645 21.1166 4.35283 21.6071 4.87103C23.6834 7.10502 24.6759 10.7209 24.3108 14.7628C24.0142 18.1023 23.0103 20.486 21.0595 22.5702C20.0328 23.6527 18.8235 24.5164 17.1465 25.3339L15.8003 25.9903L12.8342 25.9788C10.2331 25.9788 8.24812 25.8752 6.19465 25.6333L5.59001 25.5643V13.1852V0.80608L9.21782 0.863655C11.8645 0.898201 13.1194 0.967293 13.918 1.10548ZM81.5571 1.01336C84.181 1.39336 86.3372 2.07278 88.5275 3.20129C90.7179 4.31828 92.1896 5.43528 93.9921 7.34684C95.8858 9.33901 97.3803 11.8379 98.4298 14.7167C100.734 21.0502 100.848 30.2856 98.715 36.7573C97.6769 39.924 96.2395 42.3422 94.186 44.4265C91.9158 46.7181 89.6569 47.9963 86.2117 48.9291L85.048 49.2515H79.2869H73.5258L73.4915 25.0345L73.4687 0.829109H76.9026C79.4124 0.829109 80.6673 0.875172 81.5571 1.01336Z" fill="#16346C"/>
<path d="M75.5 26.5L79.3675 25.3725C82.5513 24.4443 85.0334 21.9432 85.9372 18.7524L87 15L87.9687 18.6442C88.8471 21.949 91.4123 24.5399 94.7081 25.4514L98.5 26.5L95.0123 27.3282C91.5001 28.1623 88.7495 30.8907 87.8869 34.3959L87 38L85.9139 34.0841C84.9739 30.6948 82.2606 28.0877 78.8365 27.2835L75.5 26.5Z" fill="#16346C"/>
</svg>
