<svg width="149" height="70" viewBox="0 0 149 70" fill="none" xmlns="http://www.w3.org/2000/svg">
<path d="M0.232422 35V70H4.14543H8.05844V53.3786V36.7411L8.72924 36.854C10.2944 37.1119 15.8046 37.7568 17.801 37.918C18.9829 38.0147 19.9732 38.1115 19.9891 38.1437C20.0211 38.1598 22.2251 42.3837 24.9083 47.5104C27.5915 52.637 30.6421 58.4247 31.6802 60.3915C32.7184 62.3584 34.2676 65.3086 35.1461 66.9853L36.7113 70H45.224H53.7368V57.4413V44.8825L55.302 43.1253C56.1485 42.158 58.688 39.2883 60.924 36.7411C63.16 34.1939 65.0287 32.1142 65.0766 32.1142C65.1245 32.1142 65.5877 32.8881 66.1147 33.8392C66.6258 34.8065 67.3445 36.1285 67.7119 36.7895C68.0792 37.4505 68.8299 38.8369 69.3889 39.8526C69.9479 40.8683 70.7784 42.3998 71.2416 43.2381C71.6888 44.0765 73.0623 46.5753 74.2602 48.8001C77.5184 54.7812 78.301 56.2322 79.1315 57.7476C79.5467 58.5053 80.3613 59.9885 80.9363 61.0525C81.5112 62.1165 82.4056 63.7448 82.9167 64.6799C83.4278 65.6149 84.2743 67.1948 84.8013 68.1944L85.7596 70H102.37C121.552 70 121.679 69.9839 126.072 68.5491C132.3 66.5177 137.699 62.4551 141.851 56.6997C146.276 50.5412 148.767 42.4965 148.767 34.2906C148.767 28.4546 147.617 23.328 145.253 18.5721C141.037 10.076 133.131 4.04652 122.845 1.48318C117.591 0.177338 117.255 0.145088 105.612 0.0806046L95.2627 0V34.9516C95.2627 57.5058 95.2147 69.8549 95.1029 69.7421C95.0231 69.6614 94.528 68.8231 94.0169 67.9042C92.6114 65.3731 87.7401 56.5707 86.1589 53.7172C85.3923 52.3468 83.5396 48.9613 82.0063 46.2206C80.4891 43.4638 78.253 39.4496 77.0552 37.2731C75.8573 35.0967 73.9567 31.6628 72.8227 29.6154C71.6888 27.5841 70.7784 25.8429 70.7784 25.7462C70.7784 25.6333 72.8227 23.2473 75.3143 20.4261C77.8058 17.6048 80.4571 14.59 81.2078 13.7356C81.9584 12.865 84.8652 9.56011 87.6602 6.38415C90.4712 3.2082 92.8669 0.467522 92.9947 0.306305C93.2183 0.0483627 93.1704 0.0322418 92.1323 0.0322418H91.0143L88.8741 2.72455C85.3284 7.19023 82.0862 11.0755 79.371 14.1386C77.9656 15.7347 74.1484 20.0553 70.9062 23.731C67.664 27.4067 64.3579 31.1469 63.5753 32.0336C62.7767 32.9364 60.2532 35.79 57.9693 38.3855L53.8167 43.1092L53.7688 21.5707L53.7368 0.0322418H49.8238H45.9108V34.871C45.9108 59.9079 45.8629 69.6937 45.7351 69.6453C45.6393 69.6131 44.713 68.0009 43.6908 66.0502C42.6526 64.0995 40.8958 60.7623 39.7778 58.6343C38.6438 56.5062 37.2383 53.8623 36.6474 52.7499C36.0564 51.6375 34.1878 48.123 32.4948 44.9309C30.8018 41.7388 29.1408 38.6112 28.8054 37.9664L28.1825 36.8217L29.029 36.5316C32.942 35.2257 37.2223 32.082 39.4743 28.8577C42.0298 25.1819 43.1478 20.3616 42.5568 15.5735C41.5826 7.77061 36.1203 2.8374 26.2499 0.854439C22.88 0.177338 22.289 0.145088 11.1409 0.0806046L0.232422 0.0161209V35ZM19.7176 1.54767C23.2952 2.17641 26.1381 3.25656 28.2464 4.772C28.8054 5.17503 29.7956 6.09396 30.4824 6.81944C33.3892 9.94703 34.7787 15.0092 34.2676 20.6679C33.8524 25.3432 32.4469 28.6803 29.7158 31.5983C28.2783 33.1138 26.5853 34.3229 24.2375 35.4675L22.3529 36.3865L18.2003 36.3703C14.5588 36.3703 11.7798 36.2252 8.90493 35.8867L8.05844 35.79V18.4592V1.12851L13.1374 1.20911C16.8427 1.25748 18.5996 1.35421 19.7176 1.54767ZM114.412 1.4187C118.086 1.95071 121.104 2.90189 124.171 4.4818C127.238 6.0456 129.298 7.60939 131.821 10.2856C134.473 13.0746 136.565 16.573 138.034 20.6034C141.26 29.4703 141.42 42.3998 138.434 51.4602C136.98 55.8936 134.968 59.2791 132.093 62.1971C128.915 65.4053 125.752 67.1948 120.929 68.5007L119.3 68.9521H111.234H103.169L103.121 35.0484L103.089 1.16075H107.896C111.41 1.16075 113.167 1.22524 114.412 1.4187Z" fill="#E5E4E2"/>
<path d="M110.959 36.9091L114.812 35.7861C117.983 34.8616 120.455 32.3703 121.355 29.1921L122.414 25.4546L123.379 29.0844C124.254 32.3761 126.809 34.9568 130.092 35.8646L133.869 36.9091L130.395 37.7341C126.896 38.5648 124.157 41.2824 123.297 44.7739L122.414 48.3637L121.332 44.4633C120.396 41.0873 117.693 38.4905 114.283 37.6896L110.959 36.9091Z" fill="#E5E4E2"/>
</svg>
