<svg width="208" height="435" viewBox="0 0 208 435" fill="none" xmlns="http://www.w3.org/2000/svg">
<g opacity="0.2">
<path d="M102.091 434.266L204.184 435L204.266 423.579L204.348 412.158L155.864 411.81L107.334 411.461L107.677 409.505C108.462 404.942 110.459 388.873 110.971 383.049C111.278 379.602 111.581 376.714 111.675 376.668C111.723 376.575 124.09 370.23 139.1 362.506C154.11 354.782 171.056 346 176.815 343.011C182.574 340.022 191.212 335.562 196.121 333.033L204.948 328.528L205.126 303.682L205.304 278.835L168.672 278.572L132.039 278.309L126.946 273.703C124.142 271.212 115.825 263.74 108.441 257.16C101.058 250.581 95.031 245.083 95.032 244.943C95.033 244.803 97.2999 243.468 100.085 241.949C102.918 240.478 106.789 238.408 108.725 237.349C110.66 236.291 114.72 234.129 117.695 232.519C120.669 230.909 125.154 228.517 127.609 227.182C130.063 225.895 137.381 221.938 143.896 218.489C161.41 209.104 165.659 206.85 170.097 204.458C172.316 203.262 176.659 200.916 179.775 199.26C182.891 197.604 187.659 195.027 190.397 193.555C193.135 192.083 197.762 189.646 200.688 188.128L205.975 185.369L206.323 136.888C206.725 80.9017 206.681 80.5284 202.587 67.6788C196.793 49.4558 185.055 33.6143 168.354 21.3734C150.483 8.33156 127.07 0.890785 103.134 0.718783C86.1103 0.596456 71.1321 3.84536 57.2101 10.6449C32.3393 22.7736 14.5862 45.7223 6.89364 75.6896C2.97449 90.999 2.87341 91.9773 2.44142 125.959L1.98949 156.165L103.941 156.898C169.729 157.37 205.75 157.769 205.419 158.093C205.182 158.324 202.726 159.752 200.035 161.224C192.622 165.274 166.844 179.307 158.488 183.862C154.475 186.071 144.56 191.408 136.534 195.825C128.461 200.196 116.705 206.638 110.331 210.089C103.958 213.54 93.9013 219.015 87.9053 222.282C81.9563 225.549 76.8585 228.17 76.5763 228.168C76.2472 228.165 69.3302 222.148 61.1529 214.817C52.9757 207.486 44.2374 199.684 41.7608 197.475C39.2372 195.266 29.6578 186.713 20.4523 178.488C11.2472 170.217 3.30304 163.167 2.83547 162.791C2.08774 162.133 2.03971 162.272 2.01797 165.303L1.99455 168.566L9.80297 174.869C22.7548 185.311 34.02 194.856 42.898 202.845C47.5241 206.98 60.0469 218.212 70.7008 227.752C81.3547 237.293 92.1954 247.021 94.7654 249.323C97.3821 251.673 105.653 259.098 113.176 265.819L126.868 278.038L64.0404 277.727L1.21367 277.368L1.1317 288.789L1.04973 300.21L102.672 300.941C175.702 301.465 204.246 301.81 204.102 302.182C204.006 302.461 199.284 305.131 193.573 308.074C187.861 311.063 178.09 316.121 171.859 319.34C165.628 322.605 157.886 326.651 154.629 328.353C151.372 330.054 141.081 335.435 131.735 340.309C122.388 345.184 113.23 349.966 111.342 350.932L107.991 352.726L107.162 350.249C103.435 338.801 94.3544 326.242 84.9965 319.601C74.3282 312.065 60.291 308.701 46.3121 310.326C23.5313 313.006 9.02707 328.845 3.03617 357.613C0.990504 367.434 0.884072 369.159 0.462454 401.695L0.0458387 433.533L102.091 434.266ZM4.92142 376.693C6.83037 366.264 10.0406 357.989 14.5052 351.868C15.6925 350.244 18.3937 347.373 20.5243 345.384C29.7081 336.966 44.5032 333.016 60.9985 334.626C74.6272 335.936 84.332 340.109 92.7864 348.141C97.1767 352.368 100.668 357.335 103.958 364.212L106.599 369.732L106.465 381.852C106.388 392.48 105.907 400.588 104.859 408.972L104.559 411.441L54.007 411.078L3.45454 410.714L3.79606 395.892C4.01474 385.078 4.3337 379.952 4.92142 376.693ZM6.52888 100.302C8.15767 89.591 10.9954 80.8005 15.6681 71.8833C20.2939 62.9657 24.8985 56.9849 32.7576 49.6756C40.9485 41.9958 51.1969 35.9623 62.9841 31.7581C88.9157 22.5275 126.633 22.3323 152.999 31.2395C165.901 35.5745 175.734 41.5191 184.185 49.9713C193.477 59.3152 198.631 68.5827 202.339 82.6883L203.621 87.4526L203.452 110.994L203.283 134.535L104.388 133.964L5.53926 133.347L5.63997 119.316C5.71357 109.06 5.93848 103.934 6.52888 100.302Z" fill="white"/>
</g>
<path d="M57 79.5L72.9745 74.843C86.1248 71.0092 96.377 60.6783 100.11 47.499L104.5 32L108.501 47.0522C112.129 60.7022 122.725 71.404 136.338 75.1686L152 79.5L137.594 82.921C123.087 86.3659 111.726 97.6354 108.163 112.114L104.5 127L100.014 110.826C96.1312 96.8263 84.9243 86.0578 70.7812 82.7364L57 79.5Z" fill="white"/>
</svg>
