<svg width="785" height="118" viewBox="0 0 785 118" fill="none" xmlns="http://www.w3.org/2000/svg">
<path d="M1 59H0V60H1V59ZM779 59H780V58H779V59ZM779 118L784.773 108H773.227L779 118ZM0 0V0.983333H2V0H0ZM0 2.95V4.91667H2V2.95H0ZM0 6.88333V8.85H2V6.88333H0ZM0 10.8167V12.7833H2V10.8167H0ZM0 14.75V16.7167H2V14.75H0ZM0 18.6833V20.65H2V18.6833H0ZM0 22.6167V24.5833H2V22.6167H0ZM0 26.55V28.5167H2V26.55H0ZM0 30.4833V32.45H2V30.4833H0ZM0 34.4167V36.3833H2V34.4167H0ZM0 38.35V40.3167H2V38.35H0ZM0 42.2833V44.25H2V42.2833H0ZM0 46.2167V48.1833H2V46.2167H0ZM0 50.15V52.1167H2V50.15H0ZM0 54.0833V56.05H2V54.0833H0ZM0 58.0167V59H2V58.0167H0ZM1 60H1.99744V58H1V60ZM3.99231 60H5.98718V58H3.99231V60ZM7.98205 60H9.97692V58H7.98205V60ZM11.9718 60H13.9667V58H11.9718V60ZM15.9615 60H17.9564V58H15.9615V60ZM19.9513 60H21.9462V58H19.9513V60ZM23.941 60H25.9359V58H23.941V60ZM27.9308 60H29.9256V58H27.9308V60ZM31.9205 60H33.9154V58H31.9205V60ZM35.9103 60H37.9051V58H35.9103V60ZM39.9 60H41.8949V58H39.9V60ZM43.8897 60H45.8846V58H43.8897V60ZM47.8795 60H49.8744V58H47.8795V60ZM51.8692 60H53.8641V58H51.8692V60ZM55.859 60H57.8539V58H55.859V60ZM59.8487 60H61.8436V58H59.8487V60ZM63.8385 60H65.8334V58H63.8385V60ZM67.8282 60H69.8231V58H67.8282V60ZM71.818 60H73.8128V58H71.818V60ZM75.8077 60H77.8026V58H75.8077V60ZM79.7975 60H81.7923V58H79.7975V60ZM83.7872 60H85.7821V58H83.7872V60ZM87.777 60H89.7718V58H87.777V60ZM91.7667 60H93.7616V58H91.7667V60ZM95.7564 60H97.7513V58H95.7564V60ZM99.7462 60H101.741V58H99.7462V60ZM103.736 60H105.731V58H103.736V60ZM107.726 60H109.721V58H107.726V60ZM111.715 60H113.71V58H111.715V60ZM115.705 60H117.7V58H115.705V60ZM119.695 60H121.69V58H119.695V60ZM123.685 60H125.68V58H123.685V60ZM127.674 60H129.669V58H127.674V60ZM131.664 60H133.659V58H131.664V60ZM135.654 60H137.649V58H135.654V60ZM139.644 60H141.639V58H139.644V60ZM143.633 60H145.628V58H143.633V60ZM147.623 60H149.618V58H147.623V60ZM151.613 60H153.608V58H151.613V60ZM155.603 60H157.598V58H155.603V60ZM159.592 60H161.587V58H159.592V60ZM163.582 60H165.577V58H163.582V60ZM167.572 60H169.567V58H167.572V60ZM171.562 60H173.557V58H171.562V60ZM175.551 60H177.546V58H175.551V60ZM179.541 60H181.536V58H179.541V60ZM183.531 60H185.526V58H183.531V60ZM187.521 60H189.515V58H187.521V60ZM191.51 60H193.505V58H191.51V60ZM195.5 60H197.495V58H195.5V60ZM199.49 60H201.485V58H199.49V60ZM203.48 60H205.474V58H203.48V60ZM207.469 60H209.464V58H207.469V60ZM211.459 60H213.454V58H211.459V60ZM215.449 60H217.444V58H215.449V60ZM219.439 60H221.433V58H219.439V60ZM223.428 60H225.423V58H223.428V60ZM227.418 60H229.413V58H227.418V60ZM231.408 60H233.403V58H231.408V60ZM235.398 60H237.392V58H235.398V60ZM239.387 60H241.382V58H239.387V60ZM243.377 60H245.372V58H243.377V60ZM247.367 60H249.362V58H247.367V60ZM251.357 60H253.351V58H251.357V60ZM255.346 60H257.341V58H255.346V60ZM259.336 60H261.331V58H259.336V60ZM263.326 60H265.321V58H263.326V60ZM267.316 60H269.31V58H267.316V60ZM271.305 60H273.3V58H271.305V60ZM275.295 60H277.29V58H275.295V60ZM279.285 60H281.28V58H279.285V60ZM283.275 60H285.269V58H283.275V60ZM287.264 60H289.259V58H287.264V60ZM291.254 60H293.249V58H291.254V60ZM295.244 60H297.239V58H295.244V60ZM299.233 60H301.228V58H299.233V60ZM303.223 60H305.218V58H303.223V60ZM307.213 60H309.208V58H307.213V60ZM311.203 60H313.198V58H311.203V60ZM315.192 60H317.187V58H315.192V60ZM319.182 60H321.177V58H319.182V60ZM323.172 60H325.167V58H323.172V60ZM327.162 60H329.157V58H327.162V60ZM331.151 60H333.146V58H331.151V60ZM335.141 60H337.136V58H335.141V60ZM339.131 60H341.126V58H339.131V60ZM343.121 60H345.116V58H343.121V60ZM347.11 60H349.105V58H347.11V60ZM351.1 60H353.095V58H351.1V60ZM355.09 60H357.085V58H355.09V60ZM359.08 60H361.075V58H359.08V60ZM363.069 60H365.064V58H363.069V60ZM367.059 60H369.054V58H367.059V60ZM371.049 60H373.044V58H371.049V60ZM375.039 60H377.034V58H375.039V60ZM379.028 60H381.023V58H379.028V60ZM383.018 60H385.013V58H383.018V60ZM387.008 60H389.003V58H387.008V60ZM390.998 60H392.993V58H390.998V60ZM394.987 60H396.982V58H394.987V60ZM398.977 60H400.972V58H398.977V60ZM402.967 60H404.962V58H402.967V60ZM406.957 60H408.952V58H406.957V60ZM410.946 60H412.941V58H410.946V60ZM414.936 60H416.931V58H414.936V60ZM418.926 60H420.921V58H418.926V60ZM422.916 60H424.911V58H422.916V60ZM426.905 60H428.9V58H426.905V60ZM430.895 60H432.89V58H430.895V60ZM434.885 60H436.88V58H434.885V60ZM438.875 60H440.869V58H438.875V60ZM442.864 60H444.859V58H442.864V60ZM446.854 60H448.849V58H446.854V60ZM450.844 60H452.839V58H450.844V60ZM454.834 60H456.828V58H454.834V60ZM458.823 60H460.818V58H458.823V60ZM462.813 60H464.808V58H462.813V60ZM466.803 60H468.798V58H466.803V60ZM470.793 60H472.787V58H470.793V60ZM474.782 60H476.777V58H474.782V60ZM478.772 60H480.767V58H478.772V60ZM482.762 60H484.757V58H482.762V60ZM486.752 60H488.746V58H486.752V60ZM490.741 60H492.736V58H490.741V60ZM494.731 60H496.726V58H494.731V60ZM498.721 60H500.716V58H498.721V60ZM502.711 60H504.705V58H502.711V60ZM506.7 60H508.695V58H506.7V60ZM510.69 60H512.685V58H510.69V60ZM514.68 60H516.675V58H514.68V60ZM518.669 60H520.664V58H518.669V60ZM522.659 60H524.654V58H522.659V60ZM526.649 60H528.644V58H526.649V60ZM530.639 60H532.634V58H530.639V60ZM534.628 60H536.623V58H534.628V60ZM538.618 60H540.613V58H538.618V60ZM542.608 60H544.603V58H542.608V60ZM546.598 60H548.593V58H546.598V60ZM550.588 60H552.582V58H550.588V60ZM554.577 60H556.572V58H554.577V60ZM558.567 60H560.562V58H558.567V60ZM562.557 60H564.552V58H562.557V60ZM566.546 60H568.541V58H566.546V60ZM570.536 60H572.531V58H570.536V60ZM574.526 60H576.521V58H574.526V60ZM578.516 60H580.511V58H578.516V60ZM582.505 60H584.5V58H582.505V60ZM586.495 60H588.49V58H586.495V60ZM590.485 60H592.48V58H590.485V60ZM594.475 60H596.47V58H594.475V60ZM598.464 60H600.459V58H598.464V60ZM602.454 60H604.449V58H602.454V60ZM606.444 60H608.439V58H606.444V60ZM610.434 60H612.429V58H610.434V60ZM614.423 60H616.418V58H614.423V60ZM618.413 60H620.408V58H618.413V60ZM622.403 60H624.398V58H622.403V60ZM626.393 60H628.388V58H626.393V60ZM630.382 60H632.377V58H630.382V60ZM634.372 60H636.367V58H634.372V60ZM638.362 60H640.357V58H638.362V60ZM642.352 60H644.346V58H642.352V60ZM646.341 60H648.336V58H646.341V60ZM650.331 60H652.326V58H650.331V60ZM654.321 60H656.316V58H654.321V60ZM658.311 60H660.306V58H658.311V60ZM662.3 60H664.295V58H662.3V60ZM666.29 60H668.285V58H666.29V60ZM670.28 60H672.275V58H670.28V60ZM674.27 60H676.264V58H674.27V60ZM678.259 60H680.254V58H678.259V60ZM682.249 60H684.244V58H682.249V60ZM686.239 60H688.234V58H686.239V60ZM690.229 60H692.223V58H690.229V60ZM694.218 60H696.213V58H694.218V60ZM698.208 60H700.203V58H698.208V60ZM702.198 60H704.193V58H702.198V60ZM706.188 60H708.182V58H706.188V60ZM710.177 60H712.172V58H710.177V60ZM714.167 60H716.162V58H714.167V60ZM718.157 60H720.152V58H718.157V60ZM722.147 60H724.141V58H722.147V60ZM726.136 60H728.131V58H726.136V60ZM730.126 60H732.121V58H730.126V60ZM734.116 60H736.111V58H734.116V60ZM738.106 60H740.1V58H738.106V60ZM742.095 60H744.09V58H742.095V60ZM746.085 60H748.08V58H746.085V60ZM750.075 60H752.07V58H750.075V60ZM754.065 60H756.059V58H754.065V60ZM758.054 60H760.049V58H758.054V60ZM762.044 60H764.039V58H762.044V60ZM766.034 60H768.029V58H766.034V60ZM770.023 60H772.018V58H770.023V60ZM774.013 60H776.008V58H774.013V60ZM778.003 60H779V58H778.003V60ZM778 59V59.9833H780V59H778ZM778 61.95V63.9167H780V61.95H778ZM778 65.8833V67.85H780V65.8833H778ZM778 69.8167V71.7833H780V69.8167H778ZM778 73.75V75.7167H780V73.75H778ZM778 77.6833V79.65H780V77.6833H778ZM778 81.6167V83.5833H780V81.6167H778ZM778 85.55V87.5167H780V85.55H778ZM778 89.4833V91.45H780V89.4833H778ZM778 93.4167V95.3833H780V93.4167H778ZM778 97.35V99.3167H780V97.35H778ZM778 101.283V103.25H780V101.283H778ZM778 105.217V107.183H780V105.217H778ZM778 109.15V111.117H780V109.15H778ZM778 113.083V115.05H780V113.083H778Z" fill="#16346C"/>
</svg>
