<svg width="24" height="24" viewBox="0 0 24 24" fill="none" xmlns="http://www.w3.org/2000/svg">
<g opacity="0.7">
<path d="M19.5394 7.16382H20.2373C20.6243 7.16382 20.9351 7.46769 20.9351 7.84619V19.4465C20.9351 20.0116 20.4662 20.4701 19.8883 20.4701H1.04675C0.468859 20.4701 0 20.0116 0 19.4465V7.84619C0 7.46769 0.310755 7.16382 0.697836 7.16382H1.39567C1.78275 7.16382 2.09351 7.46769 2.09351 7.84619V17.7406H4.53594V7.84619C4.53594 7.46769 4.84669 7.16382 5.23377 7.16382H5.93161C6.31869 7.16382 6.62945 7.46769 6.62945 7.84619V17.7406H9.42079V7.84619C9.42079 7.46769 9.73155 7.16382 10.1186 7.16382H10.8165C11.2035 7.16382 11.5143 7.46769 11.5143 7.84619V17.7406H13.9567V7.84619C13.9567 7.46769 14.2675 7.16382 14.6546 7.16382H15.3524C15.7395 7.16382 16.0502 7.46769 16.0502 7.84619V17.7406H18.8416V7.84619C18.8416 7.46769 19.1523 7.16382 19.5394 7.16382Z" fill="#121C22"/>
<path d="M6.28034 2.04579V1.84321L6.73284 2.28568C6.79826 2.35499 6.89094 2.38697 6.97817 2.38697C7.0654 2.38697 7.15809 2.35499 7.22351 2.28568C7.3598 2.15241 7.3598 1.93917 7.22351 1.80589L6.17675 0.78233C6.04046 0.649054 5.82238 0.649054 5.68609 0.78233L4.63933 1.80589C4.50304 1.93917 4.50304 2.15241 4.63933 2.28568C4.77563 2.41896 4.9937 2.41896 5.13 2.28568L5.5825 1.84321V2.04579C5.5825 2.52025 5.40804 2.80812 5.22813 3.11733C5.05912 3.39987 4.88466 3.69308 4.88466 4.09291C4.88466 4.49273 5.05912 4.78594 5.22813 5.06849C5.40804 5.37769 5.5825 5.66556 5.5825 6.14002C5.5825 6.32661 5.7406 6.48121 5.93142 6.48121C6.12223 6.48121 6.28034 6.32661 6.28034 6.14002C6.28034 5.48431 6.02955 5.06315 5.83329 4.7273C5.69154 4.49273 5.5825 4.30615 5.5825 4.09291C5.5825 3.87966 5.69154 3.69308 5.83329 3.45851C6.02955 3.12266 6.28034 2.7015 6.28034 2.04579Z" fill="#121C22"/>
<path d="M15.3521 2.04579V1.84321L15.8046 2.28568C15.87 2.35499 15.9627 2.38697 16.05 2.38697C16.1372 2.38697 16.2299 2.35499 16.2953 2.28568C16.4316 2.15241 16.4316 1.93917 16.2953 1.80589L15.2485 0.78233C15.1122 0.649054 14.8942 0.649054 14.7579 0.78233L13.7111 1.80589C13.5748 1.93917 13.5748 2.15241 13.7111 2.28568C13.8474 2.41896 14.0655 2.41896 14.2018 2.28568L14.6543 1.84321V2.04579C14.6543 2.52025 14.4798 2.80812 14.2999 3.11733C14.1309 3.39987 13.9564 3.69308 13.9564 4.09291C13.9564 4.49273 14.1309 4.78594 14.2999 5.06849C14.4798 5.37769 14.6543 5.66556 14.6543 6.14002C14.6543 6.32661 14.8124 6.48121 15.0032 6.48121C15.194 6.48121 15.3521 6.32661 15.3521 6.14002C15.3521 5.48431 15.1013 5.06315 14.9051 4.7273C14.7633 4.49273 14.6543 4.30615 14.6543 4.09291C14.6543 3.87966 14.7633 3.69308 14.9051 3.45851C15.1013 3.12266 15.3521 2.7015 15.3521 2.04579Z" fill="#121C22"/>
<path d="M10.816 1.36341V1.16083L11.2685 1.60331C11.3339 1.67261 11.4266 1.7046 11.5138 1.7046C11.601 1.7046 11.6937 1.67261 11.7592 1.60331C11.8954 1.47003 11.8954 1.25679 11.7592 1.12352L10.7124 0.099957C10.5761 -0.033319 10.358 -0.033319 10.2217 0.099957L9.17498 1.12352C9.03868 1.25679 9.03868 1.47003 9.17498 1.60331C9.31127 1.73659 9.52935 1.73659 9.66564 1.60331L10.1181 1.16083V1.36341C10.1181 1.83788 9.94369 2.12575 9.76378 2.43495C9.59477 2.7175 9.42031 3.0107 9.42031 3.41053C9.42031 3.81036 9.59477 4.10357 9.76378 4.38611C9.94369 4.69531 10.1181 4.98319 10.1181 5.45765C10.1181 5.64424 10.2762 5.79884 10.4671 5.79884C10.6579 5.79884 10.816 5.64424 10.816 5.45765C10.816 4.80193 10.5652 4.38078 10.3689 4.04493C10.2272 3.81036 10.1181 3.62377 10.1181 3.41053C10.1181 3.19729 10.2272 3.0107 10.3689 2.77614C10.5652 2.44028 10.816 2.01913 10.816 1.36341Z" fill="#121C22"/>
</g>
</svg>
