<svg width="20" height="20" viewBox="0 0 20 20" fill="none" xmlns="http://www.w3.org/2000/svg">
<rect x="0.75" y="0.75" width="18.5" height="18.5" stroke="#EE5D24" stroke-width="1.5"/>
<path d="M9.06224 13.9884C8.66571 14.3758 8.00486 14.3758 7.60833 13.9884L4.43607 10.889C4.03954 10.5015 4.03954 9.85576 4.43607 9.59747C4.8326 9.21002 5.49345 9.21002 5.88997 9.59747L8.40135 12.0512L9.06224 12.6969C9.32659 13.0843 9.32659 13.6009 9.06224 13.9884Z" fill="#EE5D24"/>
<path d="M15.2681 7.91862L9.05589 13.9888C8.65936 14.3763 7.99848 14.3763 7.73412 13.9888L7.07324 13.3431L8.52715 11.9223L13.9463 6.49786C14.3429 6.11041 15.0038 6.11041 15.2681 6.49786C15.6646 6.8853 15.6646 7.53117 15.2681 7.91862Z" fill="#EE5D24"/>
</svg>
