<svg width="25" height="25" viewBox="0 0 25 25" fill="none" xmlns="http://www.w3.org/2000/svg">
<g opacity="0.7" clip-path="url(#clip0_969_1430)">
<path d="M2.22413 22.0563H5.19024C5.44952 22.0563 5.66086 21.8436 5.66086 21.5842V18.6069C5.66086 18.3475 5.44952 18.1349 5.19024 18.1349H2.22413C1.96485 18.1349 1.75352 18.3475 1.75352 18.6069V21.5842C1.75352 21.8436 1.96485 22.0563 2.22413 22.0563ZM2.69534 19.0795H4.71963V21.1122H2.69534V19.0795Z" fill="#121C22" stroke="#121C22" stroke-width="0.2"/>
<path d="M9.02607 15.3267L9.18436 15.1582H8.95319H7.93414H7.89112L7.86154 15.1894L6.83413 16.2742H1.50011L6.00276 11.7184L6.03164 11.6892V11.6481V10.6064V10.3627L5.86046 10.5362L5.93164 10.6064L5.86039 10.5363L5.86019 10.5365L5.8594 10.5373L5.85624 10.5405L5.84376 10.5531L5.79509 10.6024L5.61034 10.7896L4.95078 11.4578C4.40486 12.0108 3.67677 12.7481 2.9481 13.4854C2.21942 14.2227 1.49019 14.9599 0.941985 15.5129C0.667869 15.7893 0.439078 16.0196 0.278262 16.1808C0.19783 16.2614 0.134532 16.3246 0.0911098 16.3676C0.0758862 16.3826 0.0632293 16.3951 0.0531978 16.4049H0.0512681L0.021956 16.4343C-0.0542175 16.5108 -0.1 16.6303 -0.1 16.7463V23.073C-0.1 23.5375 0.278366 23.917 0.74182 23.917V23.817L0.741893 23.917H0.742114H0.742481H0.742994H0.743653H0.744456H0.745404H0.746495H0.747729H0.749106H0.750624H0.752284H0.754085H0.756025H0.758106H0.760325H0.762683H0.765178H0.767811H0.770581H0.773487H0.776528H0.779704H0.783015H0.78646H0.790037H0.793748H0.797591H0.801565H0.80567H0.809905H0.814271H0.818765H0.823389H0.82814H0.833019H0.838025H0.843157H0.848415H0.853798H0.859306H0.864938H0.870693H0.876571H0.882572H0.888694H0.894938H0.901302H0.907786H0.91439H0.921112H0.927953H0.934912H0.941987H0.94918H0.956488H0.963912H0.971451H0.979104H0.98687H0.99475H1.00274H1.01085H1.01906H1.02739H1.03583H1.04437H1.05303H1.06179H1.07066H1.07964H1.08873H1.09792H1.10722H1.11662H1.12613H1.13574H1.14546H1.15528H1.1652H1.17522H1.18534H1.19557H1.20589H1.21631H1.22683H1.23745H1.24817H1.25898H1.26989H1.2809H1.292H1.3032H1.31449H1.32587H1.33735H1.34892H1.36058H1.37234H1.38418H1.39611H1.40814H1.42025H1.43245H1.44474H1.45711H1.46958H1.48212H1.49476H1.50748H1.52028H1.53317H1.54614H1.55919H1.57233H1.58554H1.59884H1.61222H1.62568H1.63922H1.65283H1.66652H1.6803H1.69414H1.70807H1.72207H1.73614H1.75029H1.76452H1.77882H1.79319H1.80763H1.82214H1.83673H1.85139H1.86611H1.88091H1.89577H1.9107H1.9257H1.94077H1.95591H1.97111H1.98637H2.0017H2.0171H2.03256H2.04808H2.06366H2.07931H2.09501H2.11078H2.12661H2.1425H2.15845H2.17445H2.19052H2.20664H2.22281H2.23905H2.25534H2.27168H2.28808H2.30453H2.32104H2.3376H2.35421H2.37087H2.38759H2.40435H2.42117H2.43803H2.45494H2.4719H2.48891H2.50596H2.52307H2.54021H2.55741H2.57464H2.59192H2.60925H2.62662H2.64403H2.66148H2.67897H2.69651H2.71408H2.7317H2.74935H2.76704H2.78477H2.80253H2.82034H2.83818H2.85605H2.87396H2.8919H2.90988H2.92789H2.94594H2.96401H2.98212H3.00026H3.01842H3.03662H3.05485H3.0731H3.09139H3.1097H3.12804H3.1464H3.16479H3.18321H3.20165H3.22011H3.2386H3.25711H3.27564H3.29419H3.31277H3.33136H3.34998H3.36861H3.38727H3.40594H3.42463H3.44334H3.46206H3.4808H3.49955H3.51832H3.53711H3.55591H3.57472H3.59354H3.61237H3.63122H3.65008H3.66894H3.68782H3.70671H3.7256H3.7445H3.76341H3.78233H3.80125H3.82018H3.83911H3.85805H3.87699H3.89594H3.91489H3.93384H3.95279H3.97174H3.99069H4.00965H4.0286H4.04755H4.0665H4.08544H4.10439H4.12333H4.14226H4.16119H4.18012H4.19904H4.21795H4.23686H4.25575H4.27464H4.29353H4.3124H4.33126H4.35011H4.36895H4.38778H4.4066H4.4254H4.44419H4.46297H4.48173H4.50048H4.51921H4.53792H4.55662H4.5753H4.59397H4.61261H4.63124H4.64984H4.66843H4.68699H4.70553H4.72406H4.74255H4.76103H4.77948H4.79791H4.81631H4.83469H4.85304H4.87136H4.88966H4.90793H4.92617H4.94438H4.96256H4.98072H4.99884H5.01693H5.03499H5.05301H5.07101H5.08897H5.10689H5.12479H5.14264H5.16046H5.17825H5.19599H5.2137H5.23137H5.24901H5.2666H5.28415H5.30167H5.31914H5.33657H5.35396H5.37131H5.38861H5.40587H5.42308H5.44025H5.45738H5.47445H5.49148H5.50847H5.5254H5.54229H5.55913H5.57592H5.59266H5.60934H5.62598H5.64256H5.6591H5.67558H5.692H5.70837H5.72469H5.74095H5.75715H5.7733H5.78939H5.80543H5.8214H5.83732H5.85318H5.86898H5.88471H5.90039H5.916H5.93156H5.94704H5.96247H5.97783H5.99313H6.00836H6.02353H6.03863H6.05366H6.06863H6.08352H6.09835H6.11311H6.1278H6.14242H6.15697H6.17145H6.18586H6.20019H6.21445H6.22864H6.24275H6.25678H6.27075H6.28463H6.29844H6.31217H6.32583H6.3394H6.3529H6.36631H6.37965H6.39291H6.40608H6.41918H6.43219H6.44511H6.45796H6.47072H6.48339H6.49598H6.50849H6.52091H6.53324H6.54548H6.55764H6.5697H6.58168H6.59357H6.60537H6.61707H6.62869H6.64021H6.65164H6.66298H6.67422H6.68537H6.69642H6.70738H6.71824H6.729H6.73967H6.75024H6.76071H6.77108H6.78135H6.79152H6.8016H6.81156H6.82143H6.8312H6.84086H6.85042H6.85987H6.86922H6.87847H6.8876H6.89664H6.90556H6.91438H6.92309H6.93169H6.94018H6.94856H6.95683H6.96498H6.97303H6.98097H6.98879H6.9965H7.00409H7.01157H7.01894H7.02618H7.03332H7.04033H7.04723H7.05401H7.06067H7.06721H7.07364H7.07994H7.08612H7.09218H7.09812H7.10393H7.10963H7.11519H7.12064H7.12596H7.13115H7.13622H7.14116H7.14597H7.15066H7.15522H7.15964H7.16394H7.16811H7.17215H7.17606H7.17983H7.18347H7.18698H7.19036H7.1936H7.19671H7.19968H7.20252H7.20522H7.20778H7.2102H7.21249H7.21464H7.21665H7.21852H7.22024H7.22183H7.22328H7.22458H7.22574H7.22676H7.22763H7.22836H7.22895H7.22938H7.22968C7.36816 23.917 7.50969 23.8497 7.58614 23.7488L8.97503 22.0573L8.99775 22.0296V21.9938V20.8215V20.5401L8.82017 20.7584L7.51469 22.3633V16.9353L9.02607 15.3267ZM6.57346 22.973H0.84182V17.2189H6.57346V22.973Z" fill="#121C22" stroke="#121C22" stroke-width="0.2"/>
<path d="M13.9019 14.6135C14.0414 14.6135 14.1822 14.5459 14.2589 14.4453L20.5042 6.79995C20.5043 6.79988 20.5043 6.7998 20.5044 6.79973C20.7048 6.55723 20.8423 6.16257 20.8423 5.84279V0.744629C20.8423 0.280241 20.4641 -0.1 20.0005 -0.1H14.4027C14.2392 -0.1 14.0549 -0.0593381 13.8854 0.00977495C13.7168 0.0784824 13.5551 0.17845 13.4402 0.303638L6.69461 7.11228L6.69396 7.11163L6.68577 7.1225C6.62281 7.20611 6.57285 7.30141 6.57285 7.42462V13.7695C6.57285 14.2339 6.95117 14.6135 7.41409 14.6135V14.5135L7.41416 14.6135H7.41438H7.41475H7.41526H7.41592H7.41672H7.41767H7.41876H7.42H7.42137H7.42289H7.42455H7.42635H7.42829H7.43037H7.43259H7.43495H7.43745H7.44008H7.44285H7.44576H7.4488H7.45198H7.45529H7.45873H7.46231H7.46602H7.46986H7.47384H7.47794H7.48218H7.48654H7.49104H7.49566H7.50042H7.50529H7.5103H7.51543H7.52069H7.52608H7.53158H7.53722H7.54297H7.54885H7.55485H7.56097H7.56722H7.57358H7.58007H7.58667H7.5934H7.60024H7.6072H7.61427H7.62147H7.62877H7.6362H7.64374H7.65139H7.65916H7.66704H7.67503H7.68314H7.69135H7.69968H7.70812H7.71667H7.72532H7.73409H7.74296H7.75194H7.76103H7.77022H7.77952H7.78892H7.79843H7.80805H7.81776H7.82758H7.8375H7.84752H7.85765H7.86787H7.8782H7.88862H7.89914H7.90976H7.92048H7.93129H7.94221H7.95321H7.96432H7.97551H7.98681H7.99819H8.00967H8.02124H8.0329H8.04466H8.0565H8.06844H8.08046H8.09257H8.10477H8.11706H8.12944H8.1419H8.15445H8.16709H8.17981H8.19261H8.2055H8.21847H8.23153H8.24466H8.25788H8.27118H8.28456H8.29802H8.31156H8.32517H8.33887H8.35264H8.36649H8.38042H8.39442H8.40849H8.42264H8.43687H8.45117H8.46554H8.47998H8.4945H8.50909H8.52374H8.53847H8.55327H8.56813H8.58307H8.59807H8.61314H8.62827H8.64347H8.65874H8.67407H8.68947H8.70493H8.72045H8.73603H8.75168H8.76739H8.78316H8.79899H8.81488H8.83083H8.84683H8.8629H8.87902H8.8952H8.91143H8.92772H8.94407H8.96047H8.97692H8.99343H9.00999H9.0266H9.04327H9.05998H9.07675H9.09356H9.11043H9.12734H9.1443H9.16131H9.17837H9.19547H9.21262H9.22981H9.24705H9.26433H9.28166H9.29903H9.31644H9.33389H9.35139H9.36892H9.3865H9.40411H9.42177H9.43946H9.45719H9.47496H9.49276H9.5106H9.52848H9.54639H9.56433H9.58231H9.60032H9.61837H9.63644H9.65455H9.67269H9.69086H9.70906H9.72729H9.74554H9.76383H9.78214H9.80048H9.81884H9.83723H9.85565H9.87409H9.89256H9.91104H9.92956H9.94809H9.96664H9.98522H10.0038H10.0224H10.0411H10.0597H10.0784H10.0971H10.1158H10.1345H10.1533H10.172H10.1908H10.2096H10.2284H10.2472H10.266H10.2848H10.3037H10.3225H10.3414H10.3603H10.3792H10.3981H10.417H10.4359H10.4548H10.4737H10.4927H10.5116H10.5305H10.5495H10.5684H10.5874H10.6063H10.6253H10.6442H10.6632H10.6821H10.7011H10.72H10.739H10.7579H10.7769H10.7958H10.8148H10.8337H10.8526H10.8715H10.8904H10.9094H10.9283H10.9471H10.966H10.9849H11.0038H11.0226H11.0415H11.0603H11.0791H11.0979H11.1167H11.1355H11.1542H11.173H11.1917H11.2104H11.2291H11.2478H11.2665H11.2851H11.3037H11.3224H11.3409H11.3595H11.378H11.3966H11.4151H11.4335H11.452H11.4704H11.4888H11.5072H11.5256H11.5439H11.5622H11.5804H11.5987H11.6169H11.6351H11.6532H11.6714H11.6894H11.7075H11.7255H11.7435H11.7615H11.7794H11.7973H11.8152H11.833H11.8508H11.8685H11.8862H11.9039H11.9215H11.9391H11.9567H11.9742H11.9917H12.0091H12.0265H12.0438H12.0611H12.0784H12.0956H12.1128H12.1299H12.147H12.164H12.181H12.1979H12.2148H12.2317H12.2484H12.2652H12.2819H12.2985H12.3151H12.3316H12.3481H12.3645H12.3809H12.3972H12.4135H12.4297H12.4458H12.4619H12.478H12.4939H12.5098H12.5257H12.5415H12.5572H12.5729H12.5885H12.6041H12.6196H12.635H12.6504H12.6656H12.6809H12.696H12.7111H12.7262H12.7411H12.756H12.7709H12.7856H12.8003H12.8149H12.8295H12.844H12.8584H12.8727H12.887H12.9011H12.9153H12.9293H12.9433H12.9571H12.9709H12.9847H12.9983H13.0119H13.0254H13.0388H13.0522H13.0654H13.0786H13.0917H13.1047H13.1176H13.1305H13.1432H13.1559H13.1685H13.181H13.1934H13.2057H13.218H13.2301H13.2422H13.2542H13.2661H13.2779H13.2896H13.3012H13.3127H13.3241H13.3355H13.3467H13.3578H13.3689H13.3798H13.3907H13.4015H13.4121H13.4227H13.4332H13.4435H13.4538H13.464H13.4741H13.484H13.4939H13.5037H13.5133H13.5229H13.5323H13.5417H13.5509H13.5601H13.5691H13.578H13.5868H13.5955H13.6041H13.6126H13.621H13.6293H13.6374H13.6455H13.6534H13.6612H13.6689H13.6765H13.684H13.6914H13.6986H13.7057H13.7127H13.7196H13.7264H13.7331H13.7396H13.746H13.7523H13.7585H13.7646H13.7705H13.7763H13.782H13.7876H13.793H13.7983H13.8035H13.8086H13.8135H13.8183H13.823H13.8276H13.832H13.8363H13.8405H13.8445H13.8484H13.8522H13.8558H13.8593H13.8627H13.8659H13.869H13.872H13.8748H13.8775H13.8801H13.8825H13.8848H13.8869H13.889H13.8908H13.8925H13.8941H13.8956H13.8969H13.898H13.899H13.8999H13.9006H13.9012H13.9017H13.9019ZM19.9192 5.82405C19.9192 5.86374 19.9047 5.93532 19.8782 6.0129C19.8518 6.09021 19.8194 6.15626 19.793 6.1896C19.7929 6.18975 19.7928 6.1899 19.7927 6.19004L14.1875 13.0429V7.63122L19.9192 1.53651V5.82405ZM11.2933 3.82139H14.0875C14.3467 3.82139 14.5582 3.60939 14.5582 3.34937C14.5582 3.09003 14.3468 2.87735 14.0875 2.87735H12.2336L12.7756 2.3333H13.7169C13.9763 2.3333 14.1875 2.12052 14.1875 1.86069C14.1875 1.60136 13.9762 1.38867 13.7169 1.38867H13.698L14.121 0.964015C14.1442 0.940768 14.1947 0.909725 14.259 0.883951C14.3227 0.858395 14.3836 0.844629 14.4214 0.844629H19.2872L13.5069 6.97076H8.17336L11.2933 3.82139ZM7.51409 7.91539H13.2457V13.6695H7.51409V7.91539Z" fill="#121C22" stroke="#121C22" stroke-width="0.2"/>
<path d="M11.8636 8.8314H8.89747C8.63819 8.8314 8.42686 9.04408 8.42686 9.30342V12.2808C8.42686 12.5401 8.63819 12.7528 8.89747 12.7528H11.8636C12.1229 12.7528 12.3342 12.5401 12.3342 12.2808V9.30342C12.3342 9.04408 12.1229 8.8314 11.8636 8.8314ZM11.3924 11.8087H9.36809V9.77603H11.3924V11.8087Z" fill="#121C22" stroke="#121C22" stroke-width="0.2"/>
<path d="M11.8639 22.0563H14.8294C15.0894 22.0563 15.3 21.8435 15.3 21.5842V18.6069C15.3 18.3477 15.0894 18.1349 14.8294 18.1349H11.8639C11.6041 18.1349 11.3927 18.3474 11.3927 18.6069V21.5842C11.3927 21.8437 11.6041 22.0563 11.8639 22.0563ZM12.3345 19.0795H14.3588V21.1122H12.3345V19.0795Z" fill="#121C22" stroke="#121C22" stroke-width="0.2"/>
<path d="M19.2963 9.20347H19.2491L19.2191 9.23999L18.6074 9.98462L18.4731 10.1481H18.6847H22.253L16.4727 16.2742H11.1402L12.0826 15.3288L12.2527 15.1582H12.0118H10.9735H10.9319L10.9026 15.1876L9.6793 16.4155C9.58723 16.508 9.53867 16.6262 9.53867 16.7462V23.073C9.53867 23.5375 9.91704 23.917 10.3805 23.917V23.817L10.3806 23.917H10.3808H10.3812H10.3817H10.3823H10.3831H10.3841H10.3852H10.3864H10.3878H10.3893H10.391H10.3928H10.3947H10.3968H10.399H10.4014H10.4039H10.4065H10.4093H10.4122H10.4152H10.4184H10.4217H10.4251H10.4287H10.4324H10.4363H10.4402H10.4443H10.4486H10.4529H10.4574H10.4621H10.4668H10.4717H10.4767H10.4818H10.4871H10.4925H10.498H10.5036H10.5094H10.5152H10.5212H10.5274H10.5336H10.54H10.5465H10.5531H10.5598H10.5666H10.5736H10.5807H10.5879H10.5952H10.6026H10.6101H10.6178H10.6255H10.6334H10.6414H10.6495H10.6577H10.6661H10.6745H10.683H10.6917H10.7005H10.7093H10.7183H10.7274H10.7366H10.7459H10.7553H10.7648H10.7744H10.7841H10.7939H10.8039H10.8139H10.824H10.8342H10.8446H10.855H10.8655H10.8761H10.8868H10.8977H10.9086H10.9196H10.9307H10.9419H10.9532H10.9645H10.976H10.9876H10.9993H11.011H11.0229H11.0348H11.0468H11.0589H11.0711H11.0834H11.0958H11.1082H11.1208H11.1334H11.1461H11.159H11.1718H11.1848H11.1979H11.211H11.2242H11.2375H11.2509H11.2643H11.2779H11.2915H11.3052H11.319H11.3328H11.3467H11.3607H11.3748H11.389H11.4032H11.4175H11.4319H11.4463H11.4608H11.4754H11.4901H11.5048H11.5196H11.5344H11.5494H11.5644H11.5794H11.5946H11.6098H11.625H11.6404H11.6558H11.6712H11.6867H11.7023H11.718H11.7337H11.7495H11.7653H11.7812H11.7971H11.8131H11.8292H11.8453H11.8615H11.8777H11.894H11.9104H11.9268H11.9432H11.9597H11.9763H11.9929H12.0095H12.0263H12.043H12.0598H12.0767H12.0936H12.1106H12.1276H12.1446H12.1617H12.1789H12.1961H12.2133H12.2306H12.2479H12.2653H12.2827H12.3002H12.3176H12.3352H12.3528H12.3704H12.388H12.4057H12.4234H12.4412H12.459H12.4768H12.4947H12.5126H12.5306H12.5486H12.5666H12.5846H12.6027H12.6208H12.6389H12.6571H12.6753H12.6935H12.7118H12.7301H12.7484H12.7667H12.7851H12.8035H12.8219H12.8403H12.8588H12.8773H12.8958H12.9143H12.9329H12.9514H12.97H12.9887H13.0073H13.0259H13.0446H13.0633H13.082H13.1007H13.1195H13.1382H13.157H13.1758H13.1946H13.2134H13.2322H13.251H13.2699H13.2887H13.3076H13.3265H13.3454H13.3643H13.3832H13.4021H13.421H13.4399H13.4589H13.4778H13.4967H13.5157H13.5346H13.5536H13.5725H13.5915H13.6104H13.6294H13.6483H13.6673H13.6862H13.7052H13.7241H13.7431H13.762H13.7809H13.7999H13.8188H13.8377H13.8566H13.8755H13.8944H13.9133H13.9322H13.9511H13.9699H13.9888H14.0076H14.0265H14.0453H14.0641H14.0829H14.1016H14.1204H14.1391H14.1579H14.1766H14.1953H14.214H14.2326H14.2513H14.2699H14.2885H14.3071H14.3257H14.3442H14.3627H14.3812H14.3997H14.4182H14.4366H14.455H14.4734H14.4917H14.51H14.5283H14.5466H14.5648H14.5831H14.6012H14.6194H14.6375H14.6556H14.6737H14.6917H14.7097H14.7276H14.7456H14.7635H14.7813H14.7991H14.8169H14.8347H14.8524H14.87H14.8877H14.9053H14.9228H14.9403H14.9578H14.9752H14.9926H15.01H15.0273H15.0445H15.0618H15.0789H15.096H15.1131H15.1302H15.1471H15.1641H15.181H15.1978H15.2146H15.2313H15.248H15.2647H15.2812H15.2978H15.3142H15.3307H15.347H15.3634H15.3796H15.3958H15.412H15.4281H15.4441H15.4601H15.476H15.4918H15.5076H15.5234H15.5391H15.5547H15.5702H15.5857H15.6011H15.6165H15.6318H15.647H15.6622H15.6773H15.6923H15.7073H15.7222H15.737H15.7518H15.7665H15.7811H15.7956H15.8101H15.8245H15.8389H15.8531H15.8673H15.8814H15.8955H15.9094H15.9233H15.9371H15.9508H15.9645H15.9781H15.9916H16.005H16.0183H16.0316H16.0448H16.0578H16.0709H16.0838H16.0966H16.1094H16.1221H16.1347H16.1472H16.1596H16.1719H16.1842H16.1963H16.2084H16.2204H16.2322H16.244H16.2557H16.2674H16.2789H16.2903H16.3016H16.3129H16.324H16.3351H16.346H16.3569H16.3677H16.3783H16.3889H16.3994H16.4098H16.42H16.4302H16.4403H16.4502H16.4601H16.4699H16.4795H16.4891H16.4985H16.5079H16.5171H16.5263H16.5353H16.5442H16.553H16.5618H16.5704H16.5788H16.5872H16.5955H16.6037H16.6117H16.6196H16.6275H16.6352H16.6428H16.6502H16.6576H16.6649H16.672H16.679H16.6859H16.6927H16.6993H16.7059H16.7123H16.7186H16.7248H16.7309H16.7368H16.7426H16.7483H16.7539H16.7593H16.7646H16.7698H16.7749H16.7798H16.7846H16.7893H16.7939H16.7983H16.8026H16.8068H16.8108H16.8147H16.8185H16.8221H16.8257H16.829H16.8323H16.8354H16.8384H16.8412H16.8439H16.8464H16.8489H16.8512H16.8533H16.8553H16.8572H16.8589H16.8605H16.8619H16.8633H16.8644H16.8654H16.8663H16.867H16.8676H16.8681H16.8683C17.0069 23.917 17.1485 23.8496 17.2249 23.7486L23.4699 16.1035C23.47 16.1035 23.4701 16.1034 23.4701 16.1033C23.6713 15.8606 23.8081 15.4659 23.8081 15.1463V10.0503C23.8281 9.58263 23.4469 9.20347 22.9856 9.20347H19.2963ZM16.2121 22.973H10.4805V17.2189H16.2121V22.973ZM22.8856 15.1275C22.8856 15.1672 22.8711 15.2388 22.8446 15.3164C22.8182 15.3937 22.7858 15.4597 22.7595 15.4931C22.7593 15.4932 22.7592 15.4934 22.7591 15.4935L17.1534 22.3463V16.9353L22.8856 10.84V15.1275Z" fill="#121C22" stroke="#121C22" stroke-width="0.2"/>
</g>
<defs>
<clipPath id="clip0_969_1430">
<rect width="25" height="25" fill="white"/>
</clipPath>
</defs>
</svg>
