<svg width="24" height="24" viewBox="0 0 24 24" fill="none" xmlns="http://www.w3.org/2000/svg">
<g opacity="0.7">
<path d="M12.0035 1.00861L12.0045 1.00885C12.1461 1.04219 12.2549 1.17228 12.2549 1.33406V8.00074V9.00074H13.2549H18.5433C18.6468 9.00074 18.7521 9.05463 18.8167 9.15702C18.8751 9.25565 18.8808 9.38206 18.8288 9.48781C18.8287 9.48794 18.8286 9.48808 18.8286 9.48821L12.2187 22.8196L12.2185 22.82C12.1618 22.9346 12.0513 23 11.9323 23C11.905 23 11.8815 22.9974 11.8572 22.9918C11.7194 22.9584 11.6102 22.829 11.6102 22.6668V16.0269V15.0269H10.6102H5.32175C5.21569 15.0269 5.1112 14.9708 5.05064 14.872L5.05065 14.872L5.04762 14.8671C4.99108 14.7761 4.98171 14.6531 5.03661 14.5415C5.03666 14.5414 5.03672 14.5413 5.03677 14.5412L11.6467 1.18334L11.6467 1.18334L11.6479 1.18082C11.7166 1.04101 11.8638 0.97553 12.0035 1.00861Z" stroke="#121C22" stroke-width="2"/>
</g>
</svg>
