<svg width="27" height="26" viewBox="0 0 27 26" fill="none" xmlns="http://www.w3.org/2000/svg">
<g opacity="0.7">
<path d="M10.4389 11.115H16.3957C17.2621 11.115 17.9645 10.4102 17.9645 9.54357V1.37686C17.9645 1.08671 17.7283 0.85 17.4386 0.85H9.39601C9.10628 0.85 8.87002 1.08671 8.87002 1.37686V9.54357C8.87002 10.4102 9.5725 11.115 10.4389 11.115ZM9.92634 9.54357V1.90372H16.916V9.54357C16.916 9.8309 16.6851 10.0613 16.4 10.0613H10.4424C10.1565 10.0613 9.92634 9.83103 9.92634 9.54357Z" fill="#121C22" stroke="#121C22" stroke-width="0.3"/>
<path d="M5.73438 0.864648H5.58437V1.01465V1.93509V2.08509H5.73438H21.0727H21.2227V1.93509V1.01465V0.864648H21.0727H5.73438Z" fill="#121C22" stroke="#121C22" stroke-width="0.3"/>
<path d="M6.19375 1.90372H20.6446C20.935 1.90372 21.1715 1.66723 21.1715 1.37686C21.1715 1.08648 20.935 0.85 20.6446 0.85H6.19375C5.90338 0.85 5.66689 1.08648 5.66689 1.37686C5.66689 1.66723 5.90338 1.90372 6.19375 1.90372Z" fill="#121C22" stroke="#121C22" stroke-width="0.3"/>
<path d="M11.4017 14.8845L11.4016 14.8846L11.4028 14.8873C11.5798 15.3012 11.9168 15.8809 12.2815 16.3583C12.464 16.5971 12.6572 16.8154 12.8448 16.9756C13.0256 17.1299 13.2284 17.2543 13.4268 17.2543C13.5342 17.2543 13.6393 17.2148 13.7353 17.1602C13.8326 17.1049 13.9309 17.028 14.0274 16.9389C14.2204 16.7609 14.4198 16.5213 14.6053 16.2689C14.9757 15.7648 15.3068 15.1869 15.4348 14.8915L15.435 14.8915L15.4376 14.8845C15.4606 14.8234 15.4767 14.7558 15.4767 14.6808V10.5883C15.4767 10.2981 15.2404 10.0614 14.9507 10.0614H11.8872C11.5975 10.0614 11.3612 10.2981 11.3612 10.5883V14.6808C11.3612 14.7513 11.3769 14.8232 11.4017 14.8845ZM13.4121 16.0679C13.1404 15.7793 12.7008 15.1941 12.4141 14.5692V11.1108H14.4247V14.565C14.1684 15.1073 13.6985 15.7476 13.4121 16.0679Z" fill="#121C22" stroke="#121C22" stroke-width="0.3"/>
<path d="M24.9394 16.3764H20.2547L18.2128 20.0197L18.2128 20.0197C18.1182 20.1882 17.9438 20.2882 17.7546 20.2882H17.7541L9.08336 20.2578C9.08326 20.2578 9.08317 20.2578 9.08308 20.2578L9.08283 20.2578L9.08336 20.1078C8.9479 20.1078 8.82372 20.0332 8.75599 19.9159L24.9394 16.3764ZM24.9394 16.3764V24.0963H1.89851V16.3798L24.9394 16.3764ZM25.0477 25.1501H25.41L25.3554 25.0954C25.7191 24.9718 25.9845 24.6373 25.9845 24.2351V16.2342C25.9845 15.7278 25.558 15.3227 25.0443 15.3227H19.9445C19.7553 15.3227 19.5809 15.4227 19.4863 15.5912L19.4863 15.5912L17.4446 19.2342L9.39069 19.2045L7.39005 15.5976C7.38991 15.5973 7.38977 15.597 7.38963 15.5968C7.29928 15.4304 7.11969 15.3261 6.93075 15.3261H1.79019C1.27598 15.3261 0.85 15.7275 0.85 16.2377V24.2385C0.85 24.7448 1.27553 25.1501 1.79019 25.1501H25.0477Z" fill="#121C22" stroke="#121C22" stroke-width="0.3"/>
<path d="M16.9166 14.4233L16.9166 14.4233L17.5016 14.1423L17.6332 14.2143L17.6332 14.2143C17.6333 14.2142 17.6333 14.2142 17.6333 14.2142L18.7325 12.205L18.7325 12.205L18.7333 12.2035C18.8701 11.9469 18.7753 11.6312 18.5242 11.4899L18.5243 11.4899L18.521 11.4882C18.2651 11.3524 17.9449 11.4447 17.8066 11.7001C17.8066 11.7002 17.8065 11.7003 17.8064 11.7004L16.7083 13.7083L16.7083 13.7082L16.7074 13.7099C16.5709 13.9672 16.6655 14.282 16.9166 14.4233Z" fill="#121C22" stroke="#121C22" stroke-width="0.3"/>
<path d="M17.8743 14.9937L17.8743 14.9937L17.8746 14.994C17.9409 15.0709 18.0272 15.1242 18.1203 15.1518V15.178H18.2703C18.3995 15.178 18.519 15.1293 18.6154 15.048L18.6154 15.048L18.6172 15.0464L20.4603 13.4412C20.6822 13.2505 20.7022 12.918 20.5142 12.6987C20.3231 12.4757 19.9912 12.4577 19.7716 12.6449L19.7716 12.6448L19.7704 12.6459L17.9274 14.2511C17.7052 14.442 17.6856 14.7737 17.8743 14.9937Z" fill="#121C22" stroke="#121C22" stroke-width="0.3"/>
<path d="M9.7311 14.4877H9.8811V14.4632C9.90861 14.4552 9.93594 14.4446 9.96275 14.4313C10.221 14.3037 10.3318 13.9882 10.1997 13.7246C10.1996 13.7245 10.1995 13.7243 10.1994 13.7242L9.20648 11.7166L9.20649 11.7166L9.20581 11.7152C9.07652 11.4602 8.76273 11.3463 8.50144 11.4786C8.2428 11.6057 8.13302 11.9222 8.2648 12.1851C8.26488 12.1853 8.26495 12.1854 8.26503 12.1856L9.25799 14.1932L9.25811 14.1934C9.35206 14.3826 9.53635 14.4877 9.7311 14.4877Z" fill="#121C22" stroke="#121C22" stroke-width="0.3"/>
<path d="M9.11475 15.0134L9.11477 15.0134L9.11633 15.0118C9.31665 14.8054 9.31152 14.4685 9.1012 14.2676C9.10111 14.2675 9.10102 14.2674 9.10093 14.2674L7.43498 12.663C7.43485 12.6629 7.43471 12.6628 7.43458 12.6626C7.22843 12.4618 6.89163 12.4664 6.69139 12.6778C6.49076 12.8843 6.49617 13.2208 6.70726 13.4215L8.37315 15.0258C8.47506 15.1271 8.60781 15.1737 8.73777 15.1737C8.87692 15.1737 9.01261 15.1155 9.11475 15.0134Z" fill="#121C22" stroke="#121C22" stroke-width="0.3"/>
<path d="M11.7363 0.864648H11.5863V1.01465V7.93704V8.08704H11.7363H12.8478H12.9978V7.93704V1.01465V0.864648H12.8478H11.7363Z" fill="#121C22" stroke="#121C22" stroke-width="0.3"/>
<path d="M11.7973 7.51601C11.7973 7.80638 12.0337 8.04286 12.3241 8.04286C12.6139 8.04286 12.8501 7.80616 12.8501 7.51601V1.37686C12.8501 1.08671 12.6139 0.85 12.3241 0.85C12.0337 0.85 11.7973 1.08648 11.7973 1.37686V7.51601Z" fill="#121C22" stroke="#121C22" stroke-width="0.3"/>
<path d="M13.959 0.864648H13.809V1.01465V7.93704V8.08704H13.959H15.0705H15.2205V7.93704V1.01465V0.864648H15.0705H13.959Z" fill="#121C22" stroke="#121C22" stroke-width="0.3"/>
<path d="M13.9877 7.51601C13.9877 7.80616 14.224 8.04286 14.5137 8.04286C14.8041 8.04286 15.0405 7.80638 15.0405 7.51601V1.37686C15.0405 1.08648 14.8041 0.85 14.5137 0.85C14.224 0.85 13.9877 1.08671 13.9877 1.37686V7.51601Z" fill="#121C22" stroke="#121C22" stroke-width="0.3"/>
</g>
</svg>
