<svg width="28" height="25" viewBox="0 0 28 25" fill="none" xmlns="http://www.w3.org/2000/svg">
<g opacity="0.7">
<path d="M26.4022 14.9624V23.9262H14.7442V23.3978C14.7442 23.1495 14.9452 22.949 15.1907 22.949H24.0258C24.8003 22.949 25.4292 22.3161 25.4292 21.5403V15.4111C25.4292 15.1635 25.6303 14.9624 25.8757 14.9624H26.4022ZM14.316 24.7854H26.8311C27.068 24.7854 27.2593 24.5926 27.2593 24.3561V14.5325C27.2593 14.296 27.068 14.1032 26.8311 14.1032H25.8757C25.1564 14.1032 24.5721 14.6906 24.5721 15.4111V21.5403C24.5721 21.8435 24.3262 22.0898 24.0258 22.0898H15.1907C14.4715 22.0898 13.8871 22.6765 13.8871 23.3978V24.3561C13.8871 24.5928 14.0786 24.7854 14.316 24.7854Z" fill="#1E1E1E" stroke="#121C22" stroke-width="0.3"/>
<path d="M13.5677 0.611313L13.5677 0.61131C13.4868 0.530101 13.3775 0.485498 13.2645 0.485498H12.3098C11.5906 0.485498 11.0062 1.07218 11.0062 1.79347V7.92258C11.0062 8.22551 10.7605 8.47145 10.4593 8.47145H1.6248C0.904848 8.47145 0.321191 9.0589 0.321191 9.77942V10.7378C0.321191 10.8508 0.365042 10.9605 0.446548 11.0415C0.446686 11.0417 0.446824 11.0418 0.446962 11.042L14.0126 24.6597C14.0967 24.7441 14.2072 24.7855 14.3164 24.7855C14.4252 24.7855 14.5356 24.744 14.6196 24.6597L14.6199 24.6594C14.7859 24.4917 14.7863 24.2201 14.6196 24.0527L1.17831 10.5606V9.77942C1.17831 9.53162 1.37887 9.33067 1.6248 9.33067H10.4593C11.2342 9.33067 11.8633 8.69853 11.8633 7.92258V1.79347C11.8633 1.5449 12.0639 1.34407 12.3098 1.34407H13.0867L26.5278 14.8367L26.5281 14.837C26.6954 15.0039 26.9669 15.0044 27.134 14.8367C27.3011 14.669 27.3015 14.3969 27.1337 14.2294C27.1337 14.2294 27.1337 14.2294 27.1337 14.2294L13.5677 0.611313Z" fill="#1E1E1E" stroke="#121C22" stroke-width="0.3"/>
<path d="M24.6984 15.7154L24.699 15.7161C24.782 15.7984 24.8911 15.8412 25.0015 15.8412C25.1111 15.8412 25.2209 15.7985 25.304 15.7161L25.305 15.7151C25.4711 15.5473 25.4711 15.2759 25.305 15.1081L25.3046 15.1078L18.8105 8.58974C18.8105 8.58968 18.8104 8.58962 18.8103 8.58956C18.6432 8.421 18.3714 8.42147 18.2041 8.58926C18.0364 8.75674 18.0369 9.02872 18.2039 9.19637L24.6984 15.7154Z" fill="#1E1E1E" stroke="#121C22" stroke-width="0.3"/>
<path d="M11.7381 1.49006L11.7381 1.49006L17.6653 7.44033C17.6653 7.44038 17.6654 7.44043 17.6654 7.44047L17.6656 7.44066L17.5593 7.54652C17.6683 7.6552 17.6683 7.83239 17.5593 7.94173L11.7381 1.49006ZM11.7381 1.49006C11.5705 1.32187 11.2987 1.32187 11.1312 1.49006L11.1312 1.49006C10.964 1.65793 10.964 1.92913 11.1312 2.097L17.0593 8.0476C17.1433 8.13187 17.2537 8.17341 17.3625 8.17341C17.4714 8.17341 17.5822 8.13219 17.6659 8.04726L11.7381 1.49006Z" fill="#1E1E1E" stroke="#121C22" stroke-width="0.3"/>
<path d="M4.38786 11.6743L4.38786 11.6743L4.38754 11.6746C4.2203 11.8425 4.2203 12.1144 4.38754 12.2822L14.8881 22.8226C14.9714 22.9062 15.0815 22.949 15.1912 22.949C15.3017 22.949 15.4109 22.9062 15.494 22.8229C15.6619 22.6554 15.6614 22.3833 15.4944 22.2156L4.9938 11.6746L4.9938 11.6746L4.99347 11.6743C4.82599 11.5072 4.55534 11.5072 4.38786 11.6743Z" fill="#1E1E1E" stroke="#121C22" stroke-width="0.3"/>
<path d="M3.24299 11.1336C3.32681 11.2177 3.43646 11.2594 3.54611 11.2594C3.65577 11.2594 3.76542 11.2177 3.84924 11.1336C4.01623 10.9659 4.01677 10.694 3.84915 10.5265C3.84907 10.5264 3.849 10.5264 3.84892 10.5263L1.92788 8.59797C1.76061 8.43006 1.48879 8.42949 1.32162 8.59797C1.1541 8.76546 1.15466 9.03732 1.32162 9.20491L3.24299 11.1336Z" fill="#1E1E1E" stroke="#121C22" stroke-width="0.3"/>
<path d="M11.3455 8.41647L24.9125 22.0349C25.0208 22.1436 25.0208 22.3207 24.9125 22.4301C24.8581 22.4848 24.7866 22.5118 24.715 22.5118C24.6442 22.5118 24.5726 22.4848 24.5188 22.4301L11.3455 8.41647ZM24.4123 22.5357C24.4959 22.6204 24.6066 22.6618 24.715 22.6618C24.8243 22.6618 24.9347 22.6203 25.0188 22.536L25.0191 22.5356C25.1851 22.368 25.1856 22.0964 25.0188 21.929L11.4518 8.31061L11.4518 8.31061L11.4515 8.31029C11.284 8.14319 11.0133 8.14319 10.8459 8.31029L10.8459 8.31029L10.8455 8.31061C10.6783 8.47848 10.6783 8.75034 10.8455 8.91821L10.8456 8.91821L24.4119 22.5353C24.412 22.5354 24.4122 22.5356 24.4123 22.5357Z" fill="#1E1E1E" stroke="#121C22" stroke-width="0.3"/>
</g>
</svg>
