<svg width="21" height="25" viewBox="0 0 21 25" fill="none" xmlns="http://www.w3.org/2000/svg">
<g opacity="0.7">
<mask id="path-1-outside-1_1034_1541" maskUnits="userSpaceOnUse" x="0" y="0" width="21" height="25" fill="black">
<rect fill="white" width="21" height="25"/>
<path d="M1.37488 23.9375H8.96708C8.9903 23.9367 9.01353 23.935 9.03675 23.93C9.05002 23.9267 9.06412 23.9226 9.07739 23.9176C9.08734 23.9151 9.09647 23.9126 9.10642 23.9093C9.12135 23.9018 9.13628 23.8944 9.15038 23.8852C9.15701 23.8819 9.16448 23.8786 9.17111 23.8745C9.19185 23.8604 9.21092 23.8446 9.22834 23.8272L20.7361 12.2996C20.8091 12.2257 20.8455 12.1378 20.8455 12.0342V10.0785C20.8455 10.0727 20.8431 10.0668 20.8431 10.061C20.8414 10.0428 20.8389 10.0245 20.8348 10.0063C20.8314 9.98806 20.8273 9.96981 20.8215 9.95156C20.819 9.94659 20.819 9.94078 20.8173 9.93498C20.8124 9.92419 20.8041 9.91507 20.7991 9.90429C20.7908 9.88687 20.7809 9.87028 20.7692 9.85452C20.7585 9.84043 20.7469 9.82716 20.7336 9.81471C20.7211 9.80144 20.7079 9.78983 20.6938 9.77822C20.678 9.76744 20.6614 9.75749 20.644 9.74919C20.6332 9.74339 20.6241 9.73592 20.6133 9.73095C20.6075 9.72846 20.6017 9.72846 20.5959 9.7268C20.5793 9.72099 20.5611 9.71602 20.5437 9.71353C20.5246 9.70855 20.5055 9.70606 20.4864 9.70441C20.4806 9.70441 20.4756 9.70192 20.4698 9.70192H18.0273V6.30475L20.7361 3.591C20.8091 3.51719 20.8455 3.42927 20.8455 3.3256V1.37488C20.8455 1.36908 20.8431 1.3641 20.8431 1.35829C20.8414 1.33922 20.8389 1.32097 20.8348 1.30273C20.8314 1.28448 20.8273 1.26623 20.8215 1.24882C20.819 1.24301 20.819 1.2372 20.8165 1.2314C20.8124 1.22062 20.8041 1.21149 20.7991 1.20154C20.79 1.18412 20.78 1.16754 20.7692 1.15095C20.7469 1.12358 20.722 1.0987 20.6946 1.0763C20.6788 1.06552 20.6623 1.05557 20.6448 1.04728C20.6349 1.04064 20.6241 1.034 20.6141 1.02903C20.6083 1.02654 20.6025 1.02654 20.5967 1.02405C20.5793 1.01825 20.5619 1.0141 20.5437 1.01078C20.5254 1.00664 20.5063 1.00415 20.4881 1.00249C20.4814 1.00249 20.4765 1 20.4707 1H12.8826C12.7789 1 12.691 1.03649 12.618 1.11031L1.10948 12.6379C1.08626 12.662 1.06635 12.6885 1.05059 12.7184C1.04645 12.725 1.04313 12.7317 1.03981 12.7383C1.02488 12.7673 1.0141 12.798 1.00746 12.8295V12.8337C1.00249 12.8569 1.00083 12.8801 1 12.9033V14.859C1 14.9088 1.00995 14.9569 1.02903 15.0025C1.0481 15.049 1.07464 15.0888 1.11031 15.1244C1.14514 15.1593 1.18578 15.1866 1.2314 15.2057C1.27701 15.2248 1.32512 15.2339 1.37488 15.2339H3.81825V18.6278L1.11031 21.3407C1.07464 21.3764 1.04728 21.4178 1.0282 21.4643L1.02654 21.4701C1.00912 21.514 1 21.5596 1 21.6069V23.5626C1 23.6124 1.00995 23.6605 1.02903 23.7061C1.0481 23.7517 1.07464 23.7924 1.11031 23.8272C1.14514 23.8629 1.18578 23.8894 1.2314 23.9085C1.27701 23.9275 1.32512 23.9375 1.37488 23.9375ZM20.0966 11.8791L9.33782 22.6569V21.762L20.0966 10.9841V11.8791ZM17.2784 9.92336L17.1034 10.0984L14.2818 12.9257C14.247 12.9606 14.2212 13.0012 14.203 13.0468C14.1847 13.0924 14.1756 13.1406 14.1765 13.1895C14.1765 13.2384 14.1864 13.2857 14.2055 13.3313C14.2246 13.3769 14.2511 13.4167 14.2859 13.4516C14.3208 13.4864 14.3606 13.5129 14.4062 13.532C14.451 13.5511 14.4983 13.5611 14.5472 13.5611C14.597 13.5619 14.6442 13.5528 14.6898 13.5345C14.7355 13.5163 14.7753 13.4906 14.8109 13.4557L17.8075 10.4533H19.5666L8.80784 21.2312H7.04871L11.432 16.8404C11.4677 16.8056 11.4942 16.765 11.5133 16.7185C11.5324 16.6729 11.5415 16.6248 11.5415 16.575C11.5415 16.5253 11.5324 16.478 11.5133 16.4316C11.4942 16.3859 11.4669 16.3453 11.432 16.3105C11.3972 16.2748 11.3565 16.2474 11.3109 16.2292C11.2645 16.2101 11.2172 16.2002 11.1674 16.2002C11.1177 16.2002 11.0696 16.2101 11.024 16.2292C10.9783 16.2483 10.9377 16.2748 10.9029 16.3105L6.51956 20.7012V15.2323H8.96293C8.96625 15.2323 8.96874 15.2323 8.97123 15.2323C8.99279 15.2323 9.01436 15.2298 9.03592 15.2265C9.05002 15.2231 9.06329 15.219 9.07656 15.214C9.08568 15.2107 9.09564 15.209 9.10476 15.2049C9.11969 15.1983 9.13462 15.1908 9.14789 15.1825C9.15452 15.1784 9.16199 15.175 9.16862 15.1709C9.18936 15.1576 9.20843 15.1419 9.22585 15.1244L17.2784 7.05535V9.92336ZM20.0966 3.17133L17.3912 5.88094L17.3878 5.88342L9.33782 13.9517V13.0568L20.0966 2.27974V3.17133ZM13.0377 1.74894H19.5666L8.80784 12.5268H2.27808L13.0377 1.74894ZM1.74894 14.4825V13.2766H8.58888V14.4825H6.14468C6.09492 14.4825 6.04764 14.4916 6.0012 14.5107C5.95558 14.5298 5.91494 14.5571 5.88011 14.592C5.84527 14.6276 5.8179 14.6675 5.79883 14.7139C5.77975 14.7595 5.77063 14.8076 5.77063 14.8574V21.6069C5.77063 21.6144 5.77229 21.6219 5.77229 21.6293C5.77312 21.6376 5.77395 21.6467 5.77478 21.6542C5.77726 21.6716 5.78058 21.6882 5.78473 21.7048C5.78722 21.7123 5.7897 21.7197 5.79219 21.7272C5.79468 21.7347 5.79551 21.7405 5.798 21.7471V21.7496C5.80795 21.7711 5.81873 21.7919 5.832 21.8118V21.8143C5.83615 21.8209 5.84278 21.8275 5.84776 21.8342C5.85357 21.8408 5.85771 21.8466 5.86269 21.8524C5.87347 21.864 5.88425 21.8748 5.8967 21.8856C5.9025 21.8906 5.90831 21.8956 5.91411 21.9005C5.92075 21.9055 5.92738 21.9121 5.93402 21.9171L5.93651 21.9179C5.95641 21.9312 5.97715 21.942 5.99871 21.9511C6.00534 21.9536 6.01198 21.9553 6.01861 21.9569H6.0211L6.0435 21.9644C6.05262 21.966 6.06008 21.9694 6.06838 21.971C6.09326 21.976 6.11731 21.9785 6.14219 21.9793H8.58888V23.1844H1.74894V21.9793H4.19314C4.24207 21.9793 4.29017 21.9694 4.33579 21.9503C4.38224 21.9312 4.42205 21.9038 4.45771 21.869C4.49254 21.8342 4.51991 21.7935 4.53899 21.7471C4.55807 21.7015 4.56719 21.6534 4.56719 21.6036V18.8741C4.59124 18.7986 4.59124 18.724 4.56719 18.6485V14.8574C4.56719 14.8076 4.55807 14.7595 4.53899 14.7139C4.51991 14.6675 4.49254 14.6276 4.45771 14.592C4.42205 14.5571 4.38224 14.5298 4.33579 14.5107C4.29017 14.4916 4.24207 14.4825 4.19314 14.4825H1.74894ZM3.81825 21.2312H2.27808L3.81825 19.6886V21.2312Z"/>
<path d="M11.7737 16.3213C11.8235 16.3213 11.8716 16.3122 11.9172 16.2931C11.9628 16.274 12.0035 16.2466 12.0383 16.2118C12.074 16.1761 12.1005 16.1355 12.1196 16.0899C12.1386 16.0443 12.1486 15.9962 12.1486 15.9464C12.1486 15.8427 12.1113 15.7548 12.0383 15.681C12.0026 15.6478 11.962 15.6213 11.9164 15.6039C11.8708 15.5856 11.8235 15.5765 11.7737 15.5765C11.7248 15.5765 11.6775 15.5856 11.6319 15.6039C11.5863 15.6213 11.5448 15.6478 11.5091 15.681C11.4917 15.6976 11.476 15.7158 11.4619 15.7366C11.4494 15.7589 11.437 15.7789 11.427 15.8012C11.4179 15.8236 11.4113 15.8477 11.4071 15.8717C11.3806 16.0028 11.4146 16.1164 11.5091 16.2118C11.5821 16.2856 11.67 16.3221 11.7737 16.3213Z"/>
<path d="M12.6504 15.2887C12.6711 15.302 12.6927 15.3136 12.7151 15.3235C12.7383 15.3318 12.7615 15.3385 12.7847 15.3434C12.8328 15.3542 12.8818 15.3542 12.9299 15.3434C12.9531 15.3385 12.9763 15.3318 12.9996 15.3235C13.0219 15.3136 13.0435 15.302 13.0642 15.2887C13.085 15.2746 13.1041 15.2588 13.1223 15.2414C13.1953 15.1684 13.2318 15.0797 13.2318 14.976C13.231 14.8732 13.1945 14.7844 13.1223 14.7114C13.1041 14.694 13.085 14.6783 13.0642 14.6633C13.0443 14.6501 13.0228 14.6393 12.9996 14.631C12.9772 14.621 12.9539 14.6136 12.9299 14.6086C12.8818 14.5986 12.8328 14.5986 12.7847 14.6086C12.7607 14.6136 12.7375 14.621 12.7151 14.631C12.6919 14.6393 12.6703 14.6501 12.6504 14.6633C12.6297 14.6774 12.6106 14.6932 12.5923 14.7114C12.5202 14.7844 12.4837 14.8732 12.4828 14.976C12.4828 15.0797 12.5193 15.1684 12.5923 15.2414C12.6106 15.2588 12.6297 15.2746 12.6504 15.2887Z"/>
<path d="M13.5262 14.1358C13.5354 14.159 13.547 14.1806 13.5611 14.2013C13.5743 14.2212 13.5893 14.2395 13.6059 14.2561C13.7012 14.3515 13.814 14.3855 13.9459 14.3581C13.97 14.3539 13.9932 14.3473 14.0156 14.3382C14.038 14.3291 14.0587 14.3175 14.0778 14.3034C14.0993 14.2901 14.1184 14.2743 14.1358 14.2561C14.1524 14.2387 14.1682 14.2204 14.1831 14.2013C14.1956 14.1781 14.208 14.1582 14.218 14.1358C14.2279 14.1134 14.2329 14.0885 14.2379 14.0661C14.2428 14.0413 14.2453 14.0164 14.2453 13.9907C14.2453 13.9666 14.2428 13.9426 14.2379 13.9185C14.2329 13.8961 14.2254 13.8712 14.218 13.848C14.208 13.8256 14.1964 13.8041 14.1831 13.7833C14.1682 13.7634 14.1524 13.7435 14.1358 13.7261C14.1184 13.7079 14.0993 13.6929 14.0778 13.6805C14.0587 13.6664 14.038 13.6548 14.0156 13.6456C13.9932 13.6357 13.97 13.6282 13.9459 13.6233C13.8149 13.5984 13.7021 13.6332 13.6059 13.7261C13.5893 13.7435 13.5743 13.7626 13.5611 13.7833C13.5461 13.8032 13.5345 13.8248 13.5262 13.848C13.4839 13.9442 13.4839 14.0404 13.5262 14.1358Z"/>
</mask>
<path d="M1.37488 23.9375H8.96708C8.9903 23.9367 9.01353 23.935 9.03675 23.93C9.05002 23.9267 9.06412 23.9226 9.07739 23.9176C9.08734 23.9151 9.09647 23.9126 9.10642 23.9093C9.12135 23.9018 9.13628 23.8944 9.15038 23.8852C9.15701 23.8819 9.16448 23.8786 9.17111 23.8745C9.19185 23.8604 9.21092 23.8446 9.22834 23.8272L20.7361 12.2996C20.8091 12.2257 20.8455 12.1378 20.8455 12.0342V10.0785C20.8455 10.0727 20.8431 10.0668 20.8431 10.061C20.8414 10.0428 20.8389 10.0245 20.8348 10.0063C20.8314 9.98806 20.8273 9.96981 20.8215 9.95156C20.819 9.94659 20.819 9.94078 20.8173 9.93498C20.8124 9.92419 20.8041 9.91507 20.7991 9.90429C20.7908 9.88687 20.7809 9.87028 20.7692 9.85452C20.7585 9.84043 20.7469 9.82716 20.7336 9.81471C20.7211 9.80144 20.7079 9.78983 20.6938 9.77822C20.678 9.76744 20.6614 9.75749 20.644 9.74919C20.6332 9.74339 20.6241 9.73592 20.6133 9.73095C20.6075 9.72846 20.6017 9.72846 20.5959 9.7268C20.5793 9.72099 20.5611 9.71602 20.5437 9.71353C20.5246 9.70855 20.5055 9.70606 20.4864 9.70441C20.4806 9.70441 20.4756 9.70192 20.4698 9.70192H18.0273V6.30475L20.7361 3.591C20.8091 3.51719 20.8455 3.42927 20.8455 3.3256V1.37488C20.8455 1.36908 20.8431 1.3641 20.8431 1.35829C20.8414 1.33922 20.8389 1.32097 20.8348 1.30273C20.8314 1.28448 20.8273 1.26623 20.8215 1.24882C20.819 1.24301 20.819 1.2372 20.8165 1.2314C20.8124 1.22062 20.8041 1.21149 20.7991 1.20154C20.79 1.18412 20.78 1.16754 20.7692 1.15095C20.7469 1.12358 20.722 1.0987 20.6946 1.0763C20.6788 1.06552 20.6623 1.05557 20.6448 1.04728C20.6349 1.04064 20.6241 1.034 20.6141 1.02903C20.6083 1.02654 20.6025 1.02654 20.5967 1.02405C20.5793 1.01825 20.5619 1.0141 20.5437 1.01078C20.5254 1.00664 20.5063 1.00415 20.4881 1.00249C20.4814 1.00249 20.4765 1 20.4707 1H12.8826C12.7789 1 12.691 1.03649 12.618 1.11031L1.10948 12.6379C1.08626 12.662 1.06635 12.6885 1.05059 12.7184C1.04645 12.725 1.04313 12.7317 1.03981 12.7383C1.02488 12.7673 1.0141 12.798 1.00746 12.8295V12.8337C1.00249 12.8569 1.00083 12.8801 1 12.9033V14.859C1 14.9088 1.00995 14.9569 1.02903 15.0025C1.0481 15.049 1.07464 15.0888 1.11031 15.1244C1.14514 15.1593 1.18578 15.1866 1.2314 15.2057C1.27701 15.2248 1.32512 15.2339 1.37488 15.2339H3.81825V18.6278L1.11031 21.3407C1.07464 21.3764 1.04728 21.4178 1.0282 21.4643L1.02654 21.4701C1.00912 21.514 1 21.5596 1 21.6069V23.5626C1 23.6124 1.00995 23.6605 1.02903 23.7061C1.0481 23.7517 1.07464 23.7924 1.11031 23.8272C1.14514 23.8629 1.18578 23.8894 1.2314 23.9085C1.27701 23.9275 1.32512 23.9375 1.37488 23.9375ZM20.0966 11.8791L9.33782 22.6569V21.762L20.0966 10.9841V11.8791ZM17.2784 9.92336L17.1034 10.0984L14.2818 12.9257C14.247 12.9606 14.2212 13.0012 14.203 13.0468C14.1847 13.0924 14.1756 13.1406 14.1765 13.1895C14.1765 13.2384 14.1864 13.2857 14.2055 13.3313C14.2246 13.3769 14.2511 13.4167 14.2859 13.4516C14.3208 13.4864 14.3606 13.5129 14.4062 13.532C14.451 13.5511 14.4983 13.5611 14.5472 13.5611C14.597 13.5619 14.6442 13.5528 14.6898 13.5345C14.7355 13.5163 14.7753 13.4906 14.8109 13.4557L17.8075 10.4533H19.5666L8.80784 21.2312H7.04871L11.432 16.8404C11.4677 16.8056 11.4942 16.765 11.5133 16.7185C11.5324 16.6729 11.5415 16.6248 11.5415 16.575C11.5415 16.5253 11.5324 16.478 11.5133 16.4316C11.4942 16.3859 11.4669 16.3453 11.432 16.3105C11.3972 16.2748 11.3565 16.2474 11.3109 16.2292C11.2645 16.2101 11.2172 16.2002 11.1674 16.2002C11.1177 16.2002 11.0696 16.2101 11.024 16.2292C10.9783 16.2483 10.9377 16.2748 10.9029 16.3105L6.51956 20.7012V15.2323H8.96293C8.96625 15.2323 8.96874 15.2323 8.97123 15.2323C8.99279 15.2323 9.01436 15.2298 9.03592 15.2265C9.05002 15.2231 9.06329 15.219 9.07656 15.214C9.08568 15.2107 9.09564 15.209 9.10476 15.2049C9.11969 15.1983 9.13462 15.1908 9.14789 15.1825C9.15452 15.1784 9.16199 15.175 9.16862 15.1709C9.18936 15.1576 9.20843 15.1419 9.22585 15.1244L17.2784 7.05535V9.92336ZM20.0966 3.17133L17.3912 5.88094L17.3878 5.88342L9.33782 13.9517V13.0568L20.0966 2.27974V3.17133ZM13.0377 1.74894H19.5666L8.80784 12.5268H2.27808L13.0377 1.74894ZM1.74894 14.4825V13.2766H8.58888V14.4825H6.14468C6.09492 14.4825 6.04764 14.4916 6.0012 14.5107C5.95558 14.5298 5.91494 14.5571 5.88011 14.592C5.84527 14.6276 5.8179 14.6675 5.79883 14.7139C5.77975 14.7595 5.77063 14.8076 5.77063 14.8574V21.6069C5.77063 21.6144 5.77229 21.6219 5.77229 21.6293C5.77312 21.6376 5.77395 21.6467 5.77478 21.6542C5.77726 21.6716 5.78058 21.6882 5.78473 21.7048C5.78722 21.7123 5.7897 21.7197 5.79219 21.7272C5.79468 21.7347 5.79551 21.7405 5.798 21.7471V21.7496C5.80795 21.7711 5.81873 21.7919 5.832 21.8118V21.8143C5.83615 21.8209 5.84278 21.8275 5.84776 21.8342C5.85357 21.8408 5.85771 21.8466 5.86269 21.8524C5.87347 21.864 5.88425 21.8748 5.8967 21.8856C5.9025 21.8906 5.90831 21.8956 5.91411 21.9005C5.92075 21.9055 5.92738 21.9121 5.93402 21.9171L5.93651 21.9179C5.95641 21.9312 5.97715 21.942 5.99871 21.9511C6.00534 21.9536 6.01198 21.9553 6.01861 21.9569H6.0211L6.0435 21.9644C6.05262 21.966 6.06008 21.9694 6.06838 21.971C6.09326 21.976 6.11731 21.9785 6.14219 21.9793H8.58888V23.1844H1.74894V21.9793H4.19314C4.24207 21.9793 4.29017 21.9694 4.33579 21.9503C4.38224 21.9312 4.42205 21.9038 4.45771 21.869C4.49254 21.8342 4.51991 21.7935 4.53899 21.7471C4.55807 21.7015 4.56719 21.6534 4.56719 21.6036V18.8741C4.59124 18.7986 4.59124 18.724 4.56719 18.6485V14.8574C4.56719 14.8076 4.55807 14.7595 4.53899 14.7139C4.51991 14.6675 4.49254 14.6276 4.45771 14.592C4.42205 14.5571 4.38224 14.5298 4.33579 14.5107C4.29017 14.4916 4.24207 14.4825 4.19314 14.4825H1.74894ZM3.81825 21.2312H2.27808L3.81825 19.6886V21.2312Z" fill="#121C22"/>
<path d="M11.7737 16.3213C11.8235 16.3213 11.8716 16.3122 11.9172 16.2931C11.9628 16.274 12.0035 16.2466 12.0383 16.2118C12.074 16.1761 12.1005 16.1355 12.1196 16.0899C12.1386 16.0443 12.1486 15.9962 12.1486 15.9464C12.1486 15.8427 12.1113 15.7548 12.0383 15.681C12.0026 15.6478 11.962 15.6213 11.9164 15.6039C11.8708 15.5856 11.8235 15.5765 11.7737 15.5765C11.7248 15.5765 11.6775 15.5856 11.6319 15.6039C11.5863 15.6213 11.5448 15.6478 11.5091 15.681C11.4917 15.6976 11.476 15.7158 11.4619 15.7366C11.4494 15.7589 11.437 15.7789 11.427 15.8012C11.4179 15.8236 11.4113 15.8477 11.4071 15.8717C11.3806 16.0028 11.4146 16.1164 11.5091 16.2118C11.5821 16.2856 11.67 16.3221 11.7737 16.3213Z" fill="#121C22"/>
<path d="M12.6504 15.2887C12.6711 15.302 12.6927 15.3136 12.7151 15.3235C12.7383 15.3318 12.7615 15.3385 12.7847 15.3434C12.8328 15.3542 12.8818 15.3542 12.9299 15.3434C12.9531 15.3385 12.9763 15.3318 12.9996 15.3235C13.0219 15.3136 13.0435 15.302 13.0642 15.2887C13.085 15.2746 13.1041 15.2588 13.1223 15.2414C13.1953 15.1684 13.2318 15.0797 13.2318 14.976C13.231 14.8732 13.1945 14.7844 13.1223 14.7114C13.1041 14.694 13.085 14.6783 13.0642 14.6633C13.0443 14.6501 13.0228 14.6393 12.9996 14.631C12.9772 14.621 12.9539 14.6136 12.9299 14.6086C12.8818 14.5986 12.8328 14.5986 12.7847 14.6086C12.7607 14.6136 12.7375 14.621 12.7151 14.631C12.6919 14.6393 12.6703 14.6501 12.6504 14.6633C12.6297 14.6774 12.6106 14.6932 12.5923 14.7114C12.5202 14.7844 12.4837 14.8732 12.4828 14.976C12.4828 15.0797 12.5193 15.1684 12.5923 15.2414C12.6106 15.2588 12.6297 15.2746 12.6504 15.2887Z" fill="#121C22"/>
<path d="M13.5262 14.1358C13.5354 14.159 13.547 14.1806 13.5611 14.2013C13.5743 14.2212 13.5893 14.2395 13.6059 14.2561C13.7012 14.3515 13.814 14.3855 13.9459 14.3581C13.97 14.3539 13.9932 14.3473 14.0156 14.3382C14.038 14.3291 14.0587 14.3175 14.0778 14.3034C14.0993 14.2901 14.1184 14.2743 14.1358 14.2561C14.1524 14.2387 14.1682 14.2204 14.1831 14.2013C14.1956 14.1781 14.208 14.1582 14.218 14.1358C14.2279 14.1134 14.2329 14.0885 14.2379 14.0661C14.2428 14.0413 14.2453 14.0164 14.2453 13.9907C14.2453 13.9666 14.2428 13.9426 14.2379 13.9185C14.2329 13.8961 14.2254 13.8712 14.218 13.848C14.208 13.8256 14.1964 13.8041 14.1831 13.7833C14.1682 13.7634 14.1524 13.7435 14.1358 13.7261C14.1184 13.7079 14.0993 13.6929 14.0778 13.6805C14.0587 13.6664 14.038 13.6548 14.0156 13.6456C13.9932 13.6357 13.97 13.6282 13.9459 13.6233C13.8149 13.5984 13.7021 13.6332 13.6059 13.7261C13.5893 13.7435 13.5743 13.7626 13.5611 13.7833C13.5461 13.8032 13.5345 13.8248 13.5262 13.848C13.4839 13.9442 13.4839 14.0404 13.5262 14.1358Z" fill="#121C22"/>
<path d="M1.37488 23.9375H8.96708C8.9903 23.9367 9.01353 23.935 9.03675 23.93C9.05002 23.9267 9.06412 23.9226 9.07739 23.9176C9.08734 23.9151 9.09647 23.9126 9.10642 23.9093C9.12135 23.9018 9.13628 23.8944 9.15038 23.8852C9.15701 23.8819 9.16448 23.8786 9.17111 23.8745C9.19185 23.8604 9.21092 23.8446 9.22834 23.8272L20.7361 12.2996C20.8091 12.2257 20.8455 12.1378 20.8455 12.0342V10.0785C20.8455 10.0727 20.8431 10.0668 20.8431 10.061C20.8414 10.0428 20.8389 10.0245 20.8348 10.0063C20.8314 9.98806 20.8273 9.96981 20.8215 9.95156C20.819 9.94659 20.819 9.94078 20.8173 9.93498C20.8124 9.92419 20.8041 9.91507 20.7991 9.90429C20.7908 9.88687 20.7809 9.87028 20.7692 9.85452C20.7585 9.84043 20.7469 9.82716 20.7336 9.81471C20.7211 9.80144 20.7079 9.78983 20.6938 9.77822C20.678 9.76744 20.6614 9.75749 20.644 9.74919C20.6332 9.74339 20.6241 9.73592 20.6133 9.73095C20.6075 9.72846 20.6017 9.72846 20.5959 9.7268C20.5793 9.72099 20.5611 9.71602 20.5437 9.71353C20.5246 9.70855 20.5055 9.70606 20.4864 9.70441C20.4806 9.70441 20.4756 9.70192 20.4698 9.70192H18.0273V6.30475L20.7361 3.591C20.8091 3.51719 20.8455 3.42927 20.8455 3.3256V1.37488C20.8455 1.36908 20.8431 1.3641 20.8431 1.35829C20.8414 1.33922 20.8389 1.32097 20.8348 1.30273C20.8314 1.28448 20.8273 1.26623 20.8215 1.24882C20.819 1.24301 20.819 1.2372 20.8165 1.2314C20.8124 1.22062 20.8041 1.21149 20.7991 1.20154C20.79 1.18412 20.78 1.16754 20.7692 1.15095C20.7469 1.12358 20.722 1.0987 20.6946 1.0763C20.6788 1.06552 20.6623 1.05557 20.6448 1.04728C20.6349 1.04064 20.6241 1.034 20.6141 1.02903C20.6083 1.02654 20.6025 1.02654 20.5967 1.02405C20.5793 1.01825 20.5619 1.0141 20.5437 1.01078C20.5254 1.00664 20.5063 1.00415 20.4881 1.00249C20.4814 1.00249 20.4765 1 20.4707 1H12.8826C12.7789 1 12.691 1.03649 12.618 1.11031L1.10948 12.6379C1.08626 12.662 1.06635 12.6885 1.05059 12.7184C1.04645 12.725 1.04313 12.7317 1.03981 12.7383C1.02488 12.7673 1.0141 12.798 1.00746 12.8295V12.8337C1.00249 12.8569 1.00083 12.8801 1 12.9033V14.859C1 14.9088 1.00995 14.9569 1.02903 15.0025C1.0481 15.049 1.07464 15.0888 1.11031 15.1244C1.14514 15.1593 1.18578 15.1866 1.2314 15.2057C1.27701 15.2248 1.32512 15.2339 1.37488 15.2339H3.81825V18.6278L1.11031 21.3407C1.07464 21.3764 1.04728 21.4178 1.0282 21.4643L1.02654 21.4701C1.00912 21.514 1 21.5596 1 21.6069V23.5626C1 23.6124 1.00995 23.6605 1.02903 23.7061C1.0481 23.7517 1.07464 23.7924 1.11031 23.8272C1.14514 23.8629 1.18578 23.8894 1.2314 23.9085C1.27701 23.9275 1.32512 23.9375 1.37488 23.9375ZM20.0966 11.8791L9.33782 22.6569V21.762L20.0966 10.9841V11.8791ZM17.2784 9.92336L17.1034 10.0984L14.2818 12.9257C14.247 12.9606 14.2212 13.0012 14.203 13.0468C14.1847 13.0924 14.1756 13.1406 14.1765 13.1895C14.1765 13.2384 14.1864 13.2857 14.2055 13.3313C14.2246 13.3769 14.2511 13.4167 14.2859 13.4516C14.3208 13.4864 14.3606 13.5129 14.4062 13.532C14.451 13.5511 14.4983 13.5611 14.5472 13.5611C14.597 13.5619 14.6442 13.5528 14.6898 13.5345C14.7355 13.5163 14.7753 13.4906 14.8109 13.4557L17.8075 10.4533H19.5666L8.80784 21.2312H7.04871L11.432 16.8404C11.4677 16.8056 11.4942 16.765 11.5133 16.7185C11.5324 16.6729 11.5415 16.6248 11.5415 16.575C11.5415 16.5253 11.5324 16.478 11.5133 16.4316C11.4942 16.3859 11.4669 16.3453 11.432 16.3105C11.3972 16.2748 11.3565 16.2474 11.3109 16.2292C11.2645 16.2101 11.2172 16.2002 11.1674 16.2002C11.1177 16.2002 11.0696 16.2101 11.024 16.2292C10.9783 16.2483 10.9377 16.2748 10.9029 16.3105L6.51956 20.7012V15.2323H8.96293C8.96625 15.2323 8.96874 15.2323 8.97123 15.2323C8.99279 15.2323 9.01436 15.2298 9.03592 15.2265C9.05002 15.2231 9.06329 15.219 9.07656 15.214C9.08568 15.2107 9.09564 15.209 9.10476 15.2049C9.11969 15.1983 9.13462 15.1908 9.14789 15.1825C9.15452 15.1784 9.16199 15.175 9.16862 15.1709C9.18936 15.1576 9.20843 15.1419 9.22585 15.1244L17.2784 7.05535V9.92336ZM20.0966 3.17133L17.3912 5.88094L17.3878 5.88342L9.33782 13.9517V13.0568L20.0966 2.27974V3.17133ZM13.0377 1.74894H19.5666L8.80784 12.5268H2.27808L13.0377 1.74894ZM1.74894 14.4825V13.2766H8.58888V14.4825H6.14468C6.09492 14.4825 6.04764 14.4916 6.0012 14.5107C5.95558 14.5298 5.91494 14.5571 5.88011 14.592C5.84527 14.6276 5.8179 14.6675 5.79883 14.7139C5.77975 14.7595 5.77063 14.8076 5.77063 14.8574V21.6069C5.77063 21.6144 5.77229 21.6219 5.77229 21.6293C5.77312 21.6376 5.77395 21.6467 5.77478 21.6542C5.77726 21.6716 5.78058 21.6882 5.78473 21.7048C5.78722 21.7123 5.7897 21.7197 5.79219 21.7272C5.79468 21.7347 5.79551 21.7405 5.798 21.7471V21.7496C5.80795 21.7711 5.81873 21.7919 5.832 21.8118V21.8143C5.83615 21.8209 5.84278 21.8275 5.84776 21.8342C5.85357 21.8408 5.85771 21.8466 5.86269 21.8524C5.87347 21.864 5.88425 21.8748 5.8967 21.8856C5.9025 21.8906 5.90831 21.8956 5.91411 21.9005C5.92075 21.9055 5.92738 21.9121 5.93402 21.9171L5.93651 21.9179C5.95641 21.9312 5.97715 21.942 5.99871 21.9511C6.00534 21.9536 6.01198 21.9553 6.01861 21.9569H6.0211L6.0435 21.9644C6.05262 21.966 6.06008 21.9694 6.06838 21.971C6.09326 21.976 6.11731 21.9785 6.14219 21.9793H8.58888V23.1844H1.74894V21.9793H4.19314C4.24207 21.9793 4.29017 21.9694 4.33579 21.9503C4.38224 21.9312 4.42205 21.9038 4.45771 21.869C4.49254 21.8342 4.51991 21.7935 4.53899 21.7471C4.55807 21.7015 4.56719 21.6534 4.56719 21.6036V18.8741C4.59124 18.7986 4.59124 18.724 4.56719 18.6485V14.8574C4.56719 14.8076 4.55807 14.7595 4.53899 14.7139C4.51991 14.6675 4.49254 14.6276 4.45771 14.592C4.42205 14.5571 4.38224 14.5298 4.33579 14.5107C4.29017 14.4916 4.24207 14.4825 4.19314 14.4825H1.74894ZM3.81825 21.2312H2.27808L3.81825 19.6886V21.2312Z" stroke="#121C22" stroke-width="0.2" mask="url(#path-1-outside-1_1034_1541)"/>
<path d="M11.7737 16.3213C11.8235 16.3213 11.8716 16.3122 11.9172 16.2931C11.9628 16.274 12.0035 16.2466 12.0383 16.2118C12.074 16.1761 12.1005 16.1355 12.1196 16.0899C12.1386 16.0443 12.1486 15.9962 12.1486 15.9464C12.1486 15.8427 12.1113 15.7548 12.0383 15.681C12.0026 15.6478 11.962 15.6213 11.9164 15.6039C11.8708 15.5856 11.8235 15.5765 11.7737 15.5765C11.7248 15.5765 11.6775 15.5856 11.6319 15.6039C11.5863 15.6213 11.5448 15.6478 11.5091 15.681C11.4917 15.6976 11.476 15.7158 11.4619 15.7366C11.4494 15.7589 11.437 15.7789 11.427 15.8012C11.4179 15.8236 11.4113 15.8477 11.4071 15.8717C11.3806 16.0028 11.4146 16.1164 11.5091 16.2118C11.5821 16.2856 11.67 16.3221 11.7737 16.3213Z" stroke="#121C22" stroke-width="0.2" mask="url(#path-1-outside-1_1034_1541)"/>
<path d="M12.6504 15.2887C12.6711 15.302 12.6927 15.3136 12.7151 15.3235C12.7383 15.3318 12.7615 15.3385 12.7847 15.3434C12.8328 15.3542 12.8818 15.3542 12.9299 15.3434C12.9531 15.3385 12.9763 15.3318 12.9996 15.3235C13.0219 15.3136 13.0435 15.302 13.0642 15.2887C13.085 15.2746 13.1041 15.2588 13.1223 15.2414C13.1953 15.1684 13.2318 15.0797 13.2318 14.976C13.231 14.8732 13.1945 14.7844 13.1223 14.7114C13.1041 14.694 13.085 14.6783 13.0642 14.6633C13.0443 14.6501 13.0228 14.6393 12.9996 14.631C12.9772 14.621 12.9539 14.6136 12.9299 14.6086C12.8818 14.5986 12.8328 14.5986 12.7847 14.6086C12.7607 14.6136 12.7375 14.621 12.7151 14.631C12.6919 14.6393 12.6703 14.6501 12.6504 14.6633C12.6297 14.6774 12.6106 14.6932 12.5923 14.7114C12.5202 14.7844 12.4837 14.8732 12.4828 14.976C12.4828 15.0797 12.5193 15.1684 12.5923 15.2414C12.6106 15.2588 12.6297 15.2746 12.6504 15.2887Z" stroke="#121C22" stroke-width="0.2" mask="url(#path-1-outside-1_1034_1541)"/>
<path d="M13.5262 14.1358C13.5354 14.159 13.547 14.1806 13.5611 14.2013C13.5743 14.2212 13.5893 14.2395 13.6059 14.2561C13.7012 14.3515 13.814 14.3855 13.9459 14.3581C13.97 14.3539 13.9932 14.3473 14.0156 14.3382C14.038 14.3291 14.0587 14.3175 14.0778 14.3034C14.0993 14.2901 14.1184 14.2743 14.1358 14.2561C14.1524 14.2387 14.1682 14.2204 14.1831 14.2013C14.1956 14.1781 14.208 14.1582 14.218 14.1358C14.2279 14.1134 14.2329 14.0885 14.2379 14.0661C14.2428 14.0413 14.2453 14.0164 14.2453 13.9907C14.2453 13.9666 14.2428 13.9426 14.2379 13.9185C14.2329 13.8961 14.2254 13.8712 14.218 13.848C14.208 13.8256 14.1964 13.8041 14.1831 13.7833C14.1682 13.7634 14.1524 13.7435 14.1358 13.7261C14.1184 13.7079 14.0993 13.6929 14.0778 13.6805C14.0587 13.6664 14.038 13.6548 14.0156 13.6456C13.9932 13.6357 13.97 13.6282 13.9459 13.6233C13.8149 13.5984 13.7021 13.6332 13.6059 13.7261C13.5893 13.7435 13.5743 13.7626 13.5611 13.7833C13.5461 13.8032 13.5345 13.8248 13.5262 13.848C13.4839 13.9442 13.4839 14.0404 13.5262 14.1358Z" stroke="#121C22" stroke-width="0.2" mask="url(#path-1-outside-1_1034_1541)"/>
</g>
</svg>
