<svg width="25" height="24" viewBox="0 0 25 24" fill="none" xmlns="http://www.w3.org/2000/svg">
<g opacity="0.7">
<path d="M6.69238 3.8869H18.013C19.361 3.89098 20.6525 4.44305 21.6057 5.42253C22.5588 6.40202 23.096 7.72931 23.1 9.11451V14.3209C23.0965 15.614 22.5951 16.8531 21.7053 17.7675C20.8156 18.6819 19.6098 19.1972 18.3514 19.2007H17.3664L18.1503 21.0766C18.1925 21.1642 18.2144 21.2608 18.2142 21.3586C18.2142 21.5287 18.1484 21.6919 18.0314 21.8121C17.9143 21.9324 17.7556 22 17.5901 22H8.35232C8.28052 21.9994 8.20934 21.9863 8.14177 21.9614C7.98651 21.9042 7.8597 21.786 7.7892 21.6327C7.7187 21.4795 7.71028 21.3038 7.7658 21.1442L8.44255 19.2123H6.69238C6.4215 19.2121 6.15333 19.1569 5.9033 19.0498C5.65326 18.9427 5.4263 18.7859 5.23547 18.5883C4.84978 18.1908 4.63284 17.6525 4.63203 17.0912V16.4208H2.76343C2.6256 16.4205 2.48918 16.3923 2.36199 16.3378C2.2348 16.2832 2.11934 16.2034 2.02224 16.1029C1.92513 16.0024 1.84829 15.8832 1.79612 15.7521C1.74394 15.621 1.71747 15.4806 1.71821 15.339V12.5706H0V10.517H1.71821V7.74868C1.71871 7.46397 1.82899 7.19106 2.0249 6.98974C2.22081 6.78841 2.48637 6.67508 2.76343 6.67457H4.62827V6.01001C4.62958 5.44835 4.84721 4.91007 5.23359 4.51282C5.61969 4.11623 6.14273 3.89262 6.68862 3.89076L6.69238 3.8869ZM4.62451 15.1303V7.95732H2.96645V15.1303H4.62451ZM5.87651 7.10924C5.89763 7.176 5.90842 7.24575 5.90847 7.31595V15.7717C5.90857 15.8413 5.89778 15.9104 5.87651 15.9765V17.0776C5.87611 17.1876 5.89682 17.2966 5.93746 17.3984C5.97811 17.5002 6.03789 17.5927 6.11338 17.6707C6.18852 17.7489 6.27812 17.8109 6.3769 17.8531C6.47569 17.8952 6.58167 17.9166 6.68862 17.9161H17.3889V5.16579H6.69238C6.58556 5.16499 6.47966 5.1861 6.38088 5.2279C6.2821 5.2697 6.19244 5.33134 6.11714 5.4092C6.04165 5.4872 5.98187 5.57973 5.94122 5.6815C5.90058 5.78327 5.87987 5.89228 5.88027 6.00228V7.10924H5.87651ZM10.5273 0H15.3887C15.783 0.00353034 16.1602 0.166067 16.439 0.452604C16.7179 0.739141 16.876 1.12675 16.8795 1.53196C16.876 1.93717 16.7179 2.32479 16.439 2.61132C16.1602 2.89786 15.783 3.0604 15.3887 3.06393H10.5273C10.133 3.0604 9.75585 2.89786 9.47702 2.61132C9.19819 2.32479 9.04003 1.93717 9.0366 1.53196C9.04003 1.12675 9.19819 0.739141 9.47702 0.452604C9.75585 0.166067 10.133 0.00353034 10.5273 0ZM16.0091 19.2007H9.76411L9.23586 20.7172H16.6426L16.0091 19.2007ZM8.37488 15.7601C8.20935 15.7601 8.0506 15.6925 7.93356 15.5722C7.81651 15.452 7.75076 15.2888 7.75076 15.1187C7.75076 14.9486 7.81651 14.7855 7.93356 14.6652C8.0506 14.5449 8.20935 14.4773 8.37488 14.4773H15.1425C15.308 14.4773 15.4667 14.5449 15.5838 14.6652C15.7008 14.7855 15.7666 14.9486 15.7666 15.1187C15.7666 15.2888 15.7008 15.452 15.5838 15.5722C15.4667 15.6925 15.308 15.7601 15.1425 15.7601H8.37488ZM8.37488 12.2557C8.20935 12.2557 8.0506 12.1881 7.93356 12.0679C7.81651 11.9476 7.75076 11.7844 7.75076 11.6143C7.75076 11.4442 7.81651 11.2811 7.93356 11.1608C8.0506 11.0405 8.20935 10.973 8.37488 10.973H15.1425C15.308 10.973 15.4667 11.0405 15.5838 11.1608C15.7008 11.2811 15.7666 11.4442 15.7666 11.6143C15.7666 11.7844 15.7008 11.9476 15.5838 12.0679C15.4667 12.1881 15.308 12.2557 15.1425 12.2557H8.37488ZM8.37488 8.74939C8.20935 8.74939 8.0506 8.68181 7.93356 8.56153C7.81651 8.44125 7.75076 8.27811 7.75076 8.10801C7.75076 7.93791 7.81651 7.77477 7.93356 7.65449C8.0506 7.53421 8.20935 7.46663 8.37488 7.46663H15.1425C15.308 7.46663 15.4667 7.53421 15.5838 7.65449C15.7008 7.77477 15.7666 7.93791 15.7666 8.10801C15.7666 8.27811 15.7008 8.44125 15.5838 8.56153C15.4667 8.68181 15.308 8.74939 15.1425 8.74939H8.37488ZM18.6372 5.21602V17.9064C19.5121 17.8296 20.3273 17.419 20.9222 16.7554C21.5172 16.0917 21.8488 15.2232 21.8518 14.3209V9.11451C21.8498 8.17935 21.526 7.27505 20.9377 6.56159C20.3494 5.84813 19.5345 5.3715 18.6372 5.21602Z" fill="#121C22"/>
</g>
</svg>
