<svg width="619" height="212" viewBox="0 0 619 212" fill="none" xmlns="http://www.w3.org/2000/svg">
<g clip-path="url(#clip0_221_2321)">
<path d="M1075.29 136C1056.14 136 1038.14 128.936 1024.56 116.059C1017.16 109.05 1011.72 100.845 1008.28 92.0975C1004.9 83.5126 996.184 77.8074 986.497 77.8074H986.038C976.179 77.8074 967.179 83.2409 963.453 91.8258C960.3 99.0523 955.657 105.736 949.638 111.495C937.371 123.123 921.092 129.48 903.78 129.48C886.469 129.48 870.189 123.068 857.922 111.495C853.05 106.877 849.095 101.606 846.057 95.9553C840.382 85.197 829.49 77.8618 816.822 77.8618H812.007C800.37 77.8618 789.078 83.4583 783.747 93.2928C781.11 98.183 777.613 102.801 773.257 106.931C762.308 117.309 747.748 123.014 732.271 123.014C716.794 123.014 702.234 117.309 691.286 106.931C688.419 104.214 685.897 101.226 683.776 98.1286C674.719 84.9796 658.44 77.9161 641.874 77.9161H641.415C625.25 77.9161 610.919 85.9577 601.003 98.02C599.741 99.5414 598.423 101.008 596.933 102.367C587.245 111.495 574.462 116.548 560.762 116.548C547.062 116.548 534.279 111.495 524.592 102.367C523.101 100.954 521.783 99.5414 520.522 98.02C509.401 84.5993 491.402 77.9161 473.403 77.9161H466.868C449.212 77.9161 433.105 85.686 420.723 97.5853C420.666 97.6396 420.608 97.694 420.551 97.7483C412.182 105.681 401.061 110.028 389.253 110.028C377.445 110.028 366.324 105.681 357.955 97.7483C349.586 89.8154 345 79.2745 345 68.0815C345 56.8885 349.586 46.3476 357.955 38.4147C366.324 30.4818 377.445 26.135 389.253 26.135C401.061 26.135 412.182 30.4818 420.551 38.4147C420.608 38.469 420.666 38.5234 420.723 38.5777C433.105 50.477 449.27 58.2469 466.868 58.2469H473.403C491.402 58.2469 509.401 51.5637 520.522 38.143C521.783 36.6217 523.101 35.2089 524.592 33.7962C534.279 24.668 547.062 19.6149 560.762 19.6149C574.462 19.6149 587.245 24.668 596.933 33.7962C598.423 35.2089 599.741 36.676 601.003 38.143C610.919 50.2054 625.307 58.2469 641.415 58.2469H641.874C658.44 58.2469 674.719 51.1834 683.776 38.0344C685.897 34.9373 688.419 31.9489 691.286 29.2321C702.234 18.8542 716.794 13.149 732.271 13.149C747.748 13.149 762.308 18.8542 773.314 29.2865C777.671 33.4159 781.11 37.98 783.804 42.8702C789.135 52.7048 800.428 58.3012 812.064 58.3012H816.937C829.605 58.3012 840.496 50.9117 846.171 40.2078C849.152 34.5569 853.165 29.2865 858.037 24.668C870.304 13.0404 886.584 6.62885 903.895 6.62885C921.206 6.62885 937.486 13.0404 949.753 24.668C955.829 30.4275 960.472 37.165 963.625 44.5002C967.294 52.9764 976.236 58.3556 985.866 58.3556C995.955 58.3556 1004.95 52.4331 1008.57 43.4678C1012.18 34.5026 1017.39 26.9501 1024.62 20.1039C1038.09 7.06352 1056.09 0 1075.29 0C1098.1 0 1119.31 10.0519 1133.24 27.8738C1151.59 51.3464 1151.59 84.5993 1133.24 108.072C1119.31 125.948 1098.1 136 1075.23 136H1075.29Z" fill="url(#paint0_linear_221_2321)"/>
<path d="M833.379 279C814.257 279 796.28 271.936 782.712 259.059C775.326 252.05 769.887 243.845 766.452 235.097C763.075 226.513 754.372 220.807 744.697 220.807H744.239C734.392 220.807 725.403 226.241 721.682 234.826C718.533 242.052 713.896 248.736 707.885 254.495C695.633 266.123 679.373 272.48 662.084 272.48C644.794 272.48 628.535 266.068 616.283 254.495C611.416 249.877 607.466 244.606 604.432 238.955C598.764 228.197 587.886 220.862 575.234 220.862H570.425C558.803 220.862 547.524 226.458 542.2 236.293C539.566 241.183 536.074 245.801 531.723 249.931C520.788 260.309 506.246 266.014 490.788 266.014C475.331 266.014 460.789 260.309 449.854 249.931C446.991 247.214 444.472 244.226 442.354 241.129C433.308 227.98 417.049 220.916 400.503 220.916H400.045C383.901 220.916 369.588 228.958 359.683 241.02C358.424 242.541 357.107 244.008 355.619 245.367C345.943 254.495 333.176 259.548 319.493 259.548C305.81 259.548 293.043 254.495 283.368 245.367C281.879 243.954 280.562 242.541 279.303 241.02C268.196 227.599 250.219 220.916 232.242 220.916H225.716C208.083 220.916 191.995 228.686 179.629 240.585C179.572 240.64 179.514 240.694 179.457 240.748C171.098 248.681 159.992 253.028 148.198 253.028C136.404 253.028 125.297 248.681 116.939 240.748C108.58 232.815 104 222.274 104 211.081C104 199.889 108.58 189.348 116.939 181.415C125.297 173.482 136.404 169.135 148.198 169.135C159.992 169.135 171.098 173.482 179.457 181.415C179.514 181.469 179.572 181.523 179.629 181.578C191.995 193.477 208.14 201.247 225.716 201.247H232.242C250.219 201.247 268.196 194.564 279.303 181.143C280.562 179.622 281.879 178.209 283.368 176.796C293.043 167.668 305.81 162.615 319.493 162.615C333.176 162.615 345.943 167.668 355.619 176.796C357.107 178.209 358.424 179.676 359.683 181.143C369.588 193.205 383.958 201.247 400.045 201.247H400.503C417.049 201.247 433.308 194.183 442.354 181.034C444.472 177.937 446.991 174.949 449.854 172.232C460.789 161.854 475.331 156.149 490.788 156.149C506.246 156.149 520.788 161.854 531.78 172.286C536.131 176.416 539.566 180.98 542.257 185.87C547.581 195.705 558.86 201.301 570.482 201.301H575.348C588.001 201.301 598.878 193.912 604.546 183.208C607.523 177.557 611.531 172.286 616.397 167.668C628.649 156.04 644.908 149.629 662.198 149.629C679.488 149.629 695.747 156.04 707.999 167.668C714.068 173.427 718.705 180.165 721.854 187.5C725.518 195.976 734.449 201.356 744.067 201.356C754.143 201.356 763.132 195.433 766.739 186.468C770.345 177.503 775.555 169.95 782.769 163.104C796.223 150.064 814.2 143 833.379 143C856.165 143 877.348 153.052 891.26 170.874C909.58 194.346 909.58 227.599 891.26 251.072C877.348 268.948 856.165 279 833.322 279H833.379Z" fill="url(#paint1_linear_221_2321)"/>
</g>
<defs>
<linearGradient id="paint0_linear_221_2321" x1="334.515" y1="68.0146" x2="1364.63" y2="67.4552" gradientUnits="userSpaceOnUse">
<stop stop-color="white"/>
<stop offset="1" stop-color="#E1E8F0"/>
</linearGradient>
<linearGradient id="paint1_linear_221_2321" x1="93.5281" y1="211.015" x2="1122.36" y2="210.457" gradientUnits="userSpaceOnUse">
<stop stop-color="white"/>
<stop offset="1" stop-color="#C7D7E7"/>
</linearGradient>
<clipPath id="clip0_221_2321">
<rect width="626" height="212" fill="white" transform="matrix(-1 0 0 1 626 0)"/>
</clipPath>
</defs>
</svg>
