<svg xmlns="http://www.w3.org/2000/svg" width="32" height="32" viewBox="0 0 32 32" fill="none">
    <path d="M16.25 10.5V16.25L20.5 20.5" stroke="#3FE0D0" stroke-width="2" stroke-linecap="round" stroke-linejoin="round"/>
    <path d="M2.76 10.9225C4.08419 7.56169 6.61445 4.81567 9.85596 3.22151C13.0975 1.62734 16.8171 1.29969 20.2874 2.30264C23.7576 3.30558 26.729 5.56697 28.6203 8.64457C30.5117 11.7222 31.1869 15.3946 30.5141 18.9437C29.8412 22.4928 27.8687 25.6633 24.9821 27.8351C22.0956 30.0069 18.5028 31.0238 14.9062 30.687C11.3096 30.3502 7.96803 28.6839 5.53493 26.0139C3.10182 23.3439 1.7522 19.8623 1.75 16.25" stroke="#3FE0D0" stroke-width="2" stroke-linecap="round" stroke-linejoin="round"/>
    <path d="M2.5 4L2.75 10.9255L9 8.5" stroke="#3FE0D0" stroke-width="2" stroke-linecap="round" stroke-linejoin="round"/>
</svg>