<svg width="34" height="34" viewBox="0 0 34 34" fill="none" xmlns="http://www.w3.org/2000/svg">
<path d="M30.2062 13.0278C29.1939 13.0278 28.2447 13.428 27.5293 14.1466C27.4213 14.2558 27.3178 14.374 27.2279 14.4923C26.4901 15.4428 25.4283 16.0795 24.2361 16.0795H24.2046C22.9763 16.0795 21.7706 15.5201 21.1003 14.4786C20.9428 14.233 20.7538 13.9965 20.5424 13.7828C19.7325 12.9641 18.6528 12.5139 17.5055 12.5139C16.3583 12.5139 15.2785 12.9641 14.4687 13.7828C14.1493 14.1057 13.8884 14.4695 13.6949 14.8606C13.299 15.6383 12.4667 16.0795 11.6029 16.0795H11.2429C10.3027 16.0795 9.49736 15.4973 9.07895 14.6514C8.854 14.2012 8.56157 13.7873 8.20165 13.4235C7.29286 12.5048 6.08712 12 4.80491 12C3.5227 12 2.31697 12.5048 1.40818 13.4235C0.499383 14.3422 0 15.561 0 16.8571C0 18.1533 0.499383 19.3721 1.40818 20.2908C2.31697 21.2095 3.5227 21.7143 4.80491 21.7143C6.08712 21.7143 7.29286 21.2095 8.20165 20.2908C8.56157 19.927 8.8585 19.5131 9.07895 19.0629C9.50186 18.217 10.3071 17.6348 11.2429 17.6348H11.6029C12.4667 17.6348 13.3035 18.076 13.6949 18.8537C13.8929 19.2402 14.1493 19.6041 14.4687 19.927C15.2785 20.7456 16.3583 21.2004 17.5055 21.2004C18.6528 21.2004 19.7325 20.7501 20.5424 19.927C20.7583 19.7087 20.9428 19.4767 21.1003 19.2312C21.7706 18.1897 22.9763 17.6348 24.2046 17.6348H24.2405C25.4372 17.6348 26.499 18.2715 27.2323 19.222C27.3224 19.3403 27.4258 19.454 27.5338 19.5631C28.2491 20.2862 29.1984 20.6865 30.2107 20.6865C31.4569 20.6865 32.6086 20.0816 33.342 19.0174C34.2238 17.7303 34.2193 15.9612 33.3285 14.6787C32.5862 13.6236 31.4434 13.0278 30.2062 13.0278Z" fill="#3FE0D0"/>
</svg>
