<svg xmlns="http://www.w3.org/2000/svg" width="32" height="32" viewBox="0 0 32 32" fill="none">
  <path d="M21 16H11V23H21V16Z" stroke="#65E6D9" stroke-width="2" stroke-miterlimit="10" stroke-linecap="square"/>
  <path d="M13 16V13C13 12.2044 13.3161 11.4413 13.8787 10.8787C14.4413 10.3161 15.2044 10 16 10C16.7956 10 17.5587 10.3161 18.1213 10.8787C18.6839 11.4413 19 12.2044 19 13V16" stroke="#65E6D9" stroke-width="2" stroke-miterlimit="10" stroke-linecap="square"/>
  <path d="M28 19C28 22.1826 26.7357 25.2348 24.4853 27.4853C22.2348 29.7357 19.1826 31 16 31C12.8174 31 9.76516 29.7357 7.51472 27.4853C5.26428 25.2348 4 22.1826 4 19V5L16 2L28 5V19Z" stroke="#65E6D9" stroke-width="2" stroke-miterlimit="10" stroke-linecap="square"/>
</svg>