<?xml version="1.0" encoding="UTF-8"?>
<svg xmlns="http://www.w3.org/2000/svg" width="558" height="326" viewBox="0 0 558 326" fill="none">
  <rect x="0.5" y="0.5" width="557" height="325" rx="19.5" fill="#F5F8FB"></rect>
  <rect x="0.5" y="0.5" width="557" height="325" rx="19.5" stroke="#F5F8FB"></rect>
  <g clip-path="url(#clip0_489_20633)">
    <path d="M533.22 48H24V278H533.22V48Z" fill="#F5F8FB"></path>
    <path d="M278.01 132.15C279.998 132.15 281.61 130.538 281.61 128.55C281.61 126.562 279.998 124.95 278.01 124.95C276.022 124.95 274.41 126.562 274.41 128.55C274.41 130.538 276.022 132.15 278.01 132.15Z" fill="#D9DEE2"></path>
    <path d="M113.59 81.18C114.993 81.18 116.13 80.0428 116.13 78.64C116.13 77.2372 114.993 76.1 113.59 76.1C112.187 76.1 111.05 77.2372 111.05 78.64C111.05 80.0428 112.187 81.18 113.59 81.18Z" fill="#D9DEE2"></path>
    <path d="M127.91 128.55C128.915 128.55 129.73 127.735 129.73 126.73C129.73 125.725 128.915 124.91 127.91 124.91C126.905 124.91 126.09 125.725 126.09 126.73C126.09 127.735 126.905 128.55 127.91 128.55Z" stroke="url(#paint0_radial_489_20633)" stroke-miterlimit="10"></path>
    <path d="M279.83 77.92C280.835 77.92 281.65 77.1052 281.65 76.1C281.65 75.0949 280.835 74.28 279.83 74.28C278.825 74.28 278.01 75.0949 278.01 76.1C278.01 77.1052 278.825 77.92 279.83 77.92Z" stroke="url(#paint1_radial_489_20633)" stroke-miterlimit="10"></path>
    <path d="M307.11 210.012C307.193 180.272 265.636 156.046 214.291 155.903C162.945 155.759 121.254 179.752 121.171 209.493C121.088 239.233 162.644 263.459 213.99 263.602C265.336 263.746 307.027 239.753 307.11 210.012Z" fill="#D7DAE0"></path>
    <path d="M293.743 210.012C293.826 180.272 252.269 156.046 200.924 155.903C149.578 155.759 107.887 179.752 107.804 209.493C107.721 239.233 149.277 263.459 200.623 263.602C251.969 263.746 293.66 239.752 293.743 210.012Z" fill="#BDC0C9"></path>
    <path d="M293.75 182.67L293.68 206.14C293.68 219.83 284.68 233.51 266.68 243.95C230.49 264.95 171.68 264.95 135.2 243.95C116.87 233.37 107.72 219.48 107.76 205.61L107.83 182.14C107.83 196.01 116.94 209.9 135.27 220.48C171.69 241.48 230.56 241.48 266.74 220.48C284.71 210 293.71 196.36 293.75 182.67Z" fill="#D9DEE2"></path>
    <path d="M293.743 182.656C293.826 152.915 252.269 128.69 200.923 128.546C149.578 128.403 107.887 152.396 107.803 182.136C107.72 211.877 149.277 236.102 200.623 236.246C251.968 236.389 293.66 212.396 293.743 182.656Z" fill="white"></path>
    <path d="M273.663 182.6C273.728 159.282 241.147 140.289 200.891 140.176C160.635 140.064 127.949 158.875 127.884 182.192C127.818 205.51 160.399 224.503 200.655 224.616C240.911 224.728 273.598 205.917 273.663 182.6Z" fill="#7B80E5"></path>
    <path d="M255.463 182.549C255.512 165.052 231.066 150.8 200.862 150.716C170.657 150.632 146.132 164.747 146.083 182.243C146.034 199.74 170.48 213.992 200.685 214.076C230.889 214.16 255.414 200.045 255.463 182.549Z" stroke="white" stroke-miterlimit="10"></path>
    <path opacity="0.5" d="M255.47 103.23C255.47 95.12 250.04 87.01 239.33 80.83C217.9 68.45 183.27 68.45 161.98 80.83C151.34 87.01 146.05 95.12 146.09 103.23V182.4C146.09 190.51 151.52 198.62 162.24 204.8C183.66 217.17 218.24 217.17 239.58 204.8C250.22 198.62 255.52 190.51 255.47 182.4V103.23Z" fill="url(#paint2_linear_489_20633)"></path>
    <path d="M149.07 162.55C177.44 146.06 223.6 146.06 252.16 162.55C264.29 169.55 271.27 178.4 273.16 187.55C275.71 175.1 268.72 162.11 252.16 152.55C223.6 136.06 177.44 136.06 149.07 152.55C132.75 162.03 125.89 174.9 128.42 187.27C130.27 178.23 137.14 169.48 149.07 162.55Z" fill="#3C40B7"></path>
    <path d="M190.43 259.36C196.668 259.775 202.925 259.825 209.17 259.51V236C202.925 236.312 196.668 236.258 190.43 235.84V259.36Z" fill="#F5F5F5"></path>
    <path d="M146.09 104.76V182.4" stroke="white" stroke-miterlimit="10"></path>
    <path d="M255.47 104.76V182.4" stroke="white" stroke-miterlimit="10"></path>
    <path d="M255.473 103.378C255.522 85.8813 231.076 71.6294 200.872 71.545C170.667 71.4607 146.142 85.5759 146.093 103.072C146.044 120.569 170.49 134.82 200.695 134.905C230.899 134.989 255.424 120.874 255.473 103.378Z" stroke="white" stroke-miterlimit="10"></path>
    <path d="M218.24 160.54C224.166 160.54 228.97 155.736 228.97 149.81C228.97 143.884 224.166 139.08 218.24 139.08C212.314 139.08 207.51 143.884 207.51 149.81C207.51 155.736 212.314 160.54 218.24 160.54Z" fill="url(#paint3_radial_489_20633)"></path>
    <path d="M200.75 193.15C204.942 193.15 208.34 189.752 208.34 185.56C208.34 181.368 204.942 177.97 200.75 177.97C196.558 177.97 193.16 181.368 193.16 185.56C193.16 189.752 196.558 193.15 200.75 193.15Z" fill="url(#paint4_radial_489_20633)"></path>
    <path d="M239.7 110C241.832 110 243.56 108.272 243.56 106.14C243.56 104.008 241.832 102.28 239.7 102.28C237.568 102.28 235.84 104.008 235.84 106.14C235.84 108.272 237.568 110 239.7 110Z" fill="url(#paint5_radial_489_20633)"></path>
    <path opacity="0.7" d="M188.19 170.41C176.35 170.41 164.5 167.78 155.43 162.55C146.36 157.32 141.79 150.44 141.75 143.55V177.82C141.75 184.69 146.35 191.56 155.43 196.82C164.51 202.08 176.35 204.67 188.19 204.68V170.41Z" fill="#F5F8FB"></path>
    <path d="M188.19 170.41C176.35 170.41 164.5 167.78 155.43 162.55C146.36 157.32 141.79 150.44 141.75 143.55V177.82C141.75 184.69 146.35 191.56 155.43 196.82C164.51 202.08 176.35 204.67 188.19 204.68V170.41Z" stroke="white" stroke-miterlimit="10"></path>
    <path opacity="0.7" d="M263.56 113.44C263.56 122.73 257.56 132.02 245.32 139.11C236.674 143.913 227.221 147.092 217.43 148.49V195C227.221 193.602 236.674 190.423 245.32 185.62C257.54 178.52 263.62 169.21 263.56 159.91V113.44Z" fill="#F5F8FB"></path>
    <path d="M263.56 113.44C263.56 122.73 257.56 132.02 245.32 139.11C236.674 143.913 227.221 147.092 217.43 148.49V195C227.221 193.602 236.674 190.423 245.32 185.62C257.54 178.52 263.62 169.21 263.56 159.91V113.44Z" stroke="white" stroke-miterlimit="10"></path>
    <path d="M160.78 142.81C163.094 142.81 164.97 140.934 164.97 138.62C164.97 136.306 163.094 134.43 160.78 134.43C158.466 134.43 156.59 136.306 156.59 138.62C156.59 140.934 158.466 142.81 160.78 142.81Z" fill="url(#paint6_radial_489_20633)"></path>
    <path d="M142.35 182.14C142.35 182.14 147.57 179.61 155.24 186.53C162.91 193.45 164.02 176.29 171.35 181.69C178.68 187.09 177.49 172.85 188.19 174.16" stroke="white" stroke-miterlimit="10"></path>
    <path d="M226.24 175.14C230.987 173.905 235.62 172.269 240.09 170.25" stroke="white" stroke-miterlimit="10" stroke-linecap="round"></path>
    <path d="M226.24 170.14C226.24 170.14 243.1 166.06 252.63 157.47" stroke="white" stroke-miterlimit="10" stroke-linecap="round"></path>
    <path d="M226.24 165.14C226.24 165.14 243.1 161.06 252.63 152.47" stroke="white" stroke-miterlimit="10" stroke-linecap="round"></path>
    <path d="M221.27 103.63C219.523 102.617 219.433 101.657 221 100.75C221.761 100.295 222.636 100.067 223.522 100.094C224.408 100.12 225.268 100.4 226 100.9C227.76 101.9 227.85 102.9 226.29 103.78C225.563 104.206 224.733 104.424 223.89 104.41C222.963 104.388 222.058 104.119 221.27 103.63Z" fill="white"></path>
    <path d="M211.44 94.12L196.56 112.25L191.28 109.25L195.07 105.11L186.64 100.24L179.5 102.4L174.21 99.4L205.45 90.7L211.44 94.12ZM192 98.53L198 102C201.41 98.22 203.33 96.09 203.79 95.6C204.25 95.11 204.61 94.73 204.91 94.46C203.223 95.04 198.91 96.3933 191.97 98.52" fill="white"></path>
    <path d="M199.09 113.72L216.66 103.51L221.49 106.29L203.92 116.5L199.09 113.72Z" fill="white"></path>
    <path d="M458.68 140.48C467.68 145.66 467.68 154.04 458.78 159.21L401 192.77C392.09 197.95 377.63 197.95 368.66 192.77L310.54 159.21C301.59 154.05 301.54 145.67 310.45 140.49L368.19 106.93C377.09 101.76 391.57 101.76 400.52 106.93L458.68 140.48Z" fill="#BDC0C9"></path>
    <path d="M458.78 149.79L401 183.34L400.78 190.53L458.56 157C462.98 154.43 465.19 151.07 465.2 147.7L465.43 140.52C465.42 143.86 463.13 146.26 458.78 149.79Z" fill="#D9DEE2"></path>
    <path d="M310.58 149.79C306.08 147.19 303.83 143.79 303.84 140.37L303.61 147.55C303.61 150.96 305.85 154.37 310.35 156.97L368.48 190.53L368.7 183.34L310.58 149.79Z" fill="#D9DEE2"></path>
    <path d="M458.68 131.05C467.68 136.23 467.68 144.62 458.78 149.79L401 183.34C392.09 188.52 377.63 188.52 368.66 183.34L310.54 149.79C301.59 144.62 301.54 136.24 310.45 131.06L368.19 97.51C377.09 92.34 391.57 92.33 400.52 97.51L458.68 131.05Z" fill="white"></path>
    <path d="M401 183.34L400.78 190.53C391.87 195.71 377.4 195.71 368.44 190.53L368.66 183.34C377.67 188.52 392.13 188.52 401 183.34Z" fill="#F5F5F5"></path>
    <path d="M435.49 133.05C441.65 136.6 441.67 142.37 435.57 145.92L395.9 169C389.79 172.56 379.9 172.56 373.69 169L333.77 146C327.62 142.45 327.59 136.69 333.71 133.13L373.37 110.13C379.48 106.58 389.42 106.57 395.57 110.13L435.49 133.05Z" stroke="#D9DEE2" stroke-miterlimit="10"></path>
    <path d="M424.21 122.82L394.21 140.25L394.09 163.38L424.1 146C426.39 144.66 427.54 142.92 427.55 141.17L427.66 118C427.66 119.73 426.47 121 424.21 122.82Z" fill="#1F96A1"></path>
    <path d="M347.22 122.82C344.88 121.47 343.71 119.69 343.72 117.92L343.6 141.06C343.6 142.83 344.77 144.6 347.11 145.95L377.3 163.38L377.41 140.25L347.22 122.82Z" fill="#1F96A1"></path>
    <path d="M424.16 113.08C428.82 115.77 428.83 120.08 424.16 122.82L394.16 140.25C389.53 142.94 382.01 142.94 377.35 140.25L347.22 122.82C342.57 120.13 342.55 115.82 347.22 113.09L377.22 95.66C381.84 92.97 389.37 92.97 394.02 95.66L424.16 113.08Z" fill="white"></path>
    <path d="M394.22 140.25L394.1 163.38C389.47 166.07 381.96 166.07 377.3 163.38L377.41 140.25C382.07 142.94 389.59 142.94 394.22 140.25Z" fill="#2DC0BF"></path>
    <path d="M424.21 96.82L394.21 114.25L394.09 137.38L424.1 120C426.39 118.66 427.54 116.92 427.55 115.17L427.66 92C427.66 93.73 426.47 95 424.21 96.82Z" fill="#3C40B7"></path>
    <path d="M347.22 96.82C344.88 95.47 343.71 93.69 343.72 91.92L343.6 115.06C343.6 116.83 344.77 118.6 347.11 119.95L377.3 137.38L377.41 114.25L347.22 96.82Z" fill="#3C40B7"></path>
    <path d="M424.16 87.08C428.82 89.77 428.83 94.13 424.16 96.82L394.16 114.25C389.53 116.94 382.01 116.94 377.35 114.25L347.22 96.82C342.57 94.13 342.55 89.82 347.22 87.09L377.22 69.66C381.84 66.97 389.37 66.97 394.02 69.66L424.16 87.08Z" fill="white"></path>
    <path d="M394.22 114.25L394.1 137.38C389.47 140.07 381.96 140.07 377.3 137.38L377.41 114.25C382.07 116.94 389.59 116.94 394.22 114.25Z" fill="#7B80E5"></path>
    <path d="M349.9 109.11C350.237 109.329 350.517 109.624 350.719 109.972C350.92 110.319 351.037 110.709 351.06 111.11C351.06 111.85 350.53 112.11 349.89 111.77C349.554 111.551 349.275 111.256 349.075 110.908C348.875 110.56 348.76 110.17 348.74 109.77C348.74 109 349.26 108.74 349.9 109.11Z" fill="white"></path>
    <path d="M355.06 112.58C355.396 112.799 355.676 113.094 355.876 113.442C356.075 113.79 356.19 114.18 356.21 114.58C356.21 115.32 355.69 115.58 355.05 115.25C354.713 115.033 354.432 114.738 354.232 114.39C354.032 114.042 353.918 113.651 353.9 113.25C353.9 112.51 354.42 112.22 355.06 112.58Z" fill="#3FE0D0"></path>
    <path d="M349.9 134.92C350.237 135.139 350.517 135.434 350.719 135.782C350.92 136.129 351.037 136.519 351.06 136.92C351.06 137.66 350.53 137.92 349.89 137.58C349.553 137.362 349.273 137.067 349.073 136.719C348.873 136.371 348.759 135.981 348.74 135.58C348.74 134.85 349.26 134.55 349.9 134.92Z" fill="white"></path>
    <path d="M355.06 138.4C355.398 138.617 355.679 138.912 355.879 139.26C356.079 139.608 356.193 139.999 356.21 140.4C356.21 141.15 355.69 141.4 355.05 141.07C354.713 140.853 354.432 140.558 354.232 140.21C354.032 139.862 353.918 139.471 353.9 139.07C353.9 138.32 354.42 138 355.06 138.4Z" fill="white"></path>
    <path d="M387 89.15L383.09 93.91L381.69 93.11L382.69 92.02L380.48 90.74L378.6 91.32L377.21 90.52L385.42 88.24L387 89.15ZM381.9 90.3L383.48 91.22L385 89.54L385.29 89.24C384.86 89.39 383.72 89.75 381.9 90.3Z" fill="#9499FA"></path>
    <path d="M381.18 86.71C381.18 87.33 380.74 87.9 379.81 88.45C378.862 89.0083 377.78 89.2954 376.68 89.28C375.522 89.2324 374.396 88.8881 373.41 88.28L371.7 87.28L377.7 83.77L379.6 84.87C380.63 85.49 381.15 86.09 381.18 86.71ZM374.59 87.77C375.173 88.1226 375.845 88.3022 376.527 88.2881C377.208 88.2739 377.872 88.0665 378.44 87.69C379.74 86.94 379.82 86.23 378.66 85.56L377.98 85.17L374.05 87.45L374.59 87.77Z" fill="#9499FA"></path>
    <path d="M393.9 93.15L392.83 93.77L391.19 92.82L386.21 95.71L384.93 94.96L389.9 92.07L388.25 91.12L389.32 90.5L393.9 93.15Z" fill="#9499FA"></path>
    <path d="M397.82 95.38L393.91 100.15L392.52 99.35L393.52 98.26L391.3 97L389.42 97.58L388.03 96.78L396.24 94.49L397.82 95.38ZM392.7 96.54L394.28 97.46C395.17 96.46 395.69 95.91 395.81 95.78L396.1 95.48C395.66 95.63 394.52 95.98 392.7 96.54Z" fill="#9499FA"></path>
    <path opacity="0.5" d="M282.17 235.94L307.23 250.41C309.758 251.876 312.628 252.649 315.55 252.649C318.472 252.649 321.342 251.876 323.87 250.41L446.14 179C446.617 178.723 447.014 178.326 447.289 177.847C447.565 177.369 447.71 176.827 447.71 176.275C447.71 175.723 447.565 175.181 447.289 174.703C447.014 174.224 446.617 173.827 446.14 173.55L439.44 169.7" stroke="#D5D8E2" stroke-miterlimit="10"></path>
    <path d="M411.5 200.17C412.124 200.17 412.63 199.664 412.63 199.04C412.63 198.416 412.124 197.91 411.5 197.91C410.876 197.91 410.37 198.416 410.37 199.04C410.37 199.664 410.876 200.17 411.5 200.17Z" fill="url(#paint7_radial_489_20633)"></path>
    <path d="M407.07 203.91C408.235 203.91 409.18 202.965 409.18 201.8C409.18 200.635 408.235 199.69 407.07 199.69C405.905 199.69 404.96 200.635 404.96 201.8C404.96 202.965 405.905 203.91 407.07 203.91Z" fill="url(#paint8_radial_489_20633)"></path>
    <path d="M351.45 235.41C352.074 235.41 352.58 234.904 352.58 234.28C352.58 233.656 352.074 233.15 351.45 233.15C350.826 233.15 350.32 233.656 350.32 234.28C350.32 234.904 350.826 235.41 351.45 235.41Z" fill="url(#paint9_radial_489_20633)"></path>
    <path d="M347.02 239.15C348.185 239.15 349.13 238.205 349.13 237.04C349.13 235.875 348.185 234.93 347.02 234.93C345.855 234.93 344.91 235.875 344.91 237.04C344.91 238.205 345.855 239.15 347.02 239.15Z" fill="url(#paint10_radial_489_20633)"></path>
  </g>
  <defs>
    <radialGradient id="paint0_radial_489_20633" cx="0" cy="0" r="1" gradientUnits="userSpaceOnUse" gradientTransform="translate(127.91 126.73) scale(2.32 2.32)">
      <stop stop-color="#9499FA"></stop>
      <stop offset="1" stop-color="#5257D5"></stop>
    </radialGradient>
    <radialGradient id="paint1_radial_489_20633" cx="0" cy="0" r="1" gradientUnits="userSpaceOnUse" gradientTransform="translate(279.83 76.1) scale(2.32)">
      <stop stop-color="#9499FA"></stop>
      <stop offset="1" stop-color="#5257D5"></stop>
    </radialGradient>
    <linearGradient id="paint2_linear_489_20633" x1="200.78" y1="214.08" x2="200.78" y2="71.55" gradientUnits="userSpaceOnUse">
      <stop stop-color="white"></stop>
      <stop offset="1" stop-color="#A5A7E9"></stop>
    </linearGradient>
    <radialGradient id="paint3_radial_489_20633" cx="0" cy="0" r="1" gradientUnits="userSpaceOnUse" gradientTransform="translate(213.61 145.76) scale(13.53 13.53)">
      <stop stop-color="#9499FA"></stop>
      <stop offset="1" stop-color="#5257D5"></stop>
    </radialGradient>
    <radialGradient id="paint4_radial_489_20633" cx="0" cy="0" r="1" gradientUnits="userSpaceOnUse" gradientTransform="translate(197.48 182.69) scale(9.57)">
      <stop stop-color="#6CECD4"></stop>
      <stop offset="1" stop-color="#2DC0BF"></stop>
    </radialGradient>
    <radialGradient id="paint5_radial_489_20633" cx="0" cy="0" r="1" gradientUnits="userSpaceOnUse" gradientTransform="translate(238.04 104.68) scale(4.86)">
      <stop stop-color="#6CECD4"></stop>
      <stop offset="1" stop-color="#2DC0BF"></stop>
    </radialGradient>
    <radialGradient id="paint6_radial_489_20633" cx="0" cy="0" r="1" gradientUnits="userSpaceOnUse" gradientTransform="translate(158.97 137.04) scale(5.29 5.29)">
      <stop stop-color="#9499FA"></stop>
      <stop offset="1" stop-color="#5257D5"></stop>
    </radialGradient>
    <radialGradient id="paint7_radial_489_20633" cx="0" cy="0" r="1" gradientUnits="userSpaceOnUse" gradientTransform="translate(411.01 198.61) scale(1.42001 1.42)">
      <stop stop-color="#6CECD4"></stop>
      <stop offset="1" stop-color="#2DC0BF"></stop>
    </radialGradient>
    <radialGradient id="paint8_radial_489_20633" cx="0" cy="0" r="1" gradientUnits="userSpaceOnUse" gradientTransform="translate(406.16 201) scale(2.66)">
      <stop stop-color="#6CECD4"></stop>
      <stop offset="1" stop-color="#2DC0BF"></stop>
    </radialGradient>
    <radialGradient id="paint9_radial_489_20633" cx="0" cy="0" r="1" gradientUnits="userSpaceOnUse" gradientTransform="translate(350.97 233.85) scale(1.41999 1.42001)">
      <stop stop-color="#9499FA"></stop>
      <stop offset="1" stop-color="#5257D5"></stop>
    </radialGradient>
    <radialGradient id="paint10_radial_489_20633" cx="0" cy="0" r="1" gradientUnits="userSpaceOnUse" gradientTransform="translate(346.11 236.25) scale(2.66)">
      <stop stop-color="#9499FA"></stop>
      <stop offset="1" stop-color="#5257D5"></stop>
    </radialGradient>
    <clipPath id="clip0_489_20633">
      <rect width="510" height="230" fill="white" transform="translate(24 48)"></rect>
    </clipPath>
  </defs>
</svg>
