<?xml version="1.0" encoding="UTF-8"?>
<svg xmlns="http://www.w3.org/2000/svg" width="558" height="326" viewBox="0 0 558 326" fill="none">
  <rect x="0.5" y="0.5" width="557" height="325" rx="19.5" fill="#F5F8FB"></rect>
  <rect x="0.5" y="0.5" width="557" height="325" rx="19.5" stroke="#F5F8FB"></rect>
  <g clip-path="url(#clip0_51_16800)">
    <path d="M533.22 48H24V278H533.22V48Z" fill="#F5F8FB"></path>
    <path d="M371.75 199C380.92 204.29 380.96 212.88 371.86 218.16L312.78 252.5C303.67 257.79 288.87 257.79 279.69 252.5L220.23 218.2C211.07 212.91 211.03 204.33 220.14 199.04L279.21 164.71C288.31 159.42 303.13 159.41 312.29 164.71L371.75 199Z" fill="#D7DAE0"></path>
    <path d="M358.75 199C367.92 204.29 367.96 212.88 358.86 218.16L299.78 252.5C290.67 257.79 275.87 257.79 266.69 252.5L207.23 218.2C198.07 212.91 198.03 204.33 207.14 199.04L266.21 164.71C275.31 159.42 290.13 159.41 299.29 164.71L358.75 199Z" fill="#BDC0C9"></path>
    <path d="M358.861 201.41L299.781 235.74L299.551 250.47L358.631 216.14C363.151 213.51 365.421 210.07 365.431 206.63L365.661 191.89C365.651 195.34 363.381 198.78 358.861 201.41Z" fill="#D9DEE2"></path>
    <path d="M207.23 201.41C202.62 198.75 200.32 195.26 200.33 191.77L200.1 206.51C200.1 209.99 202.39 213.51 207 216.14L266.46 250.47L266.69 235.74L207.23 201.41Z" fill="#D9DEE2"></path>
    <path d="M358.75 182.24C367.92 187.54 367.96 196.12 358.86 201.41L299.78 235.74C290.67 241.04 275.87 241.04 266.69 235.74L207.23 201.41C198.07 196.12 198.03 187.55 207.14 182.25L266.21 147.92C275.31 142.63 290.13 142.62 299.29 147.92L358.75 182.24Z" fill="white"></path>
    <path d="M282.75 148C287.807 147.9 292.808 149.076 297.29 151.42L356.75 185.76C359.86 187.55 361.65 189.76 361.66 191.91C361.67 194.06 359.91 196.22 356.85 198L297.77 232.33C293.256 234.589 288.278 235.765 283.23 235.765C278.182 235.765 273.204 234.589 268.69 232.33L209.23 198C206.12 196.21 204.34 194 204.33 191.86C204.32 189.72 206.09 187.55 209.15 185.77L268.22 151.44C272.694 149.081 277.694 147.898 282.75 148Z" stroke="#D9DEE2" stroke-miterlimit="10"></path>
    <path d="M299.781 235.74L299.551 250.47C290.441 255.77 275.641 255.77 266.461 250.47L266.691 235.74C275.871 241 290.671 241 299.781 235.74Z" fill="#F5F5F5"></path>
    <path d="M309.221 175.81C323.741 184.19 323.821 197.81 309.401 206.15C294.981 214.49 271.531 214.53 257.011 206.15C242.491 197.77 242.431 184.15 256.851 175.81C271.271 167.47 294.711 167.43 309.221 175.81Z" fill="#F5F8FB"></path>
    <path d="M256.849 179.81C271.269 171.43 294.709 171.43 309.219 179.81C315.639 183.51 319.219 188.23 319.999 193.06C320.999 186.9 317.399 180.53 309.219 175.81C294.709 167.43 271.219 167.43 256.849 175.81C248.849 180.49 245.269 186.81 246.239 192.9C246.999 188.12 250.549 183.47 256.849 179.81Z" fill="#D9DEE2"></path>
    <path d="M333 175.23C297.64 188.5 249.83 186.15 218.69 168.17C182.85 147.48 182.69 113.94 218.29 93.2499C253.89 72.5599 311.76 72.5599 347.6 93.2499C373.7 108.32 380.9 130.25 369.13 148.99" stroke="#D5D8E2" stroke-miterlimit="10" stroke-dasharray="6 6"></path>
    <path d="M309.221 110.54C323.741 118.92 323.821 132.54 309.401 140.88C294.981 149.22 271.531 149.26 257.011 140.88C242.491 132.5 242.431 118.88 256.851 110.54C271.271 102.2 294.711 102.16 309.221 110.54Z" fill="#7B80E5"></path>
    <path d="M320.16 125.71C320.16 131.2 316.61 136.71 309.4 140.88C305.582 143.046 301.464 144.633 297.18 145.59C293.766 146.385 290.29 146.88 286.79 147.07C285.61 147.13 284.43 147.17 283.24 147.17C273.76 147.17 264.24 145.07 257.01 140.88C249.78 136.69 246.15 131.26 246.09 125.8C246.09 125.8 246.09 130.8 246.09 131.87C246.19 137.31 249.83 142.74 257.02 146.87C271.54 155.25 295.02 155.25 309.41 146.87C316.74 142.62 320.31 137.02 320.16 131.44C320.13 130.56 320.16 125.71 320.16 125.71Z" fill="#5257D5"></path>
    <path d="M353.269 175.23C359.195 175.23 363.999 170.426 363.999 164.5C363.999 158.574 359.195 153.77 353.269 153.77C347.343 153.77 342.539 158.574 342.539 164.5C342.539 170.426 347.343 175.23 353.269 175.23Z" fill="url(#paint0_radial_51_16800)"></path>
    <path d="M202.199 115.07C208.125 115.07 212.929 110.266 212.929 104.34C212.929 98.414 208.125 93.61 202.199 93.61C196.273 93.61 191.469 98.414 191.469 104.34C191.469 110.266 196.273 115.07 202.199 115.07Z" fill="url(#paint1_radial_51_16800)"></path>
    <path d="M219.731 171C221.719 171 223.331 169.388 223.331 167.4C223.331 165.412 221.719 163.8 219.731 163.8C217.743 163.8 216.131 165.412 216.131 167.4C216.131 169.388 217.743 171 219.731 171Z" fill="url(#paint2_radial_51_16800)"></path>
    <path d="M402.8 94.17C403.783 94.17 404.58 93.3731 404.58 92.39C404.58 91.4069 403.783 90.61 402.8 90.61C401.816 90.61 401.02 91.4069 401.02 92.39C401.02 93.3731 401.816 94.17 402.8 94.17Z" fill="#D9DEE2"></path>
    <path d="M336.2 200.26C338.188 200.26 339.8 198.648 339.8 196.66C339.8 194.672 338.188 193.06 336.2 193.06C334.211 193.06 332.6 194.672 332.6 196.66C332.6 198.648 334.211 200.26 336.2 200.26Z" fill="#D9DEE2"></path>
    <path d="M165.741 165.25C166.874 165.25 167.791 164.332 167.791 163.2C167.791 162.068 166.874 161.15 165.741 161.15C164.609 161.15 163.691 162.068 163.691 163.2C163.691 164.332 164.609 165.25 165.741 165.25Z" fill="#D9DEE2"></path>
    <path d="M332.6 90.62C334.588 90.62 336.2 89.0083 336.2 87.02C336.2 85.0318 334.588 83.42 332.6 83.42C330.612 83.42 329 85.0318 329 87.02C329 89.0083 330.612 90.62 332.6 90.62Z" fill="url(#paint3_radial_51_16800)"></path>
    <path d="M320.159 125.71C320.159 131.2 316.609 136.71 309.399 140.88C305.581 143.046 301.463 144.633 297.179 145.59C293.765 146.385 290.289 146.88 286.789 147.07C285.609 147.13 284.429 147.17 283.239 147.17H283.119V153.17C292.649 153.17 302.119 151.1 309.399 146.89C316.679 142.68 320.299 137 320.149 131.45C320.149 130.56 320.149 125.71 320.149 125.71H320.159Z" fill="#3C40B7"></path>
    <path d="M165.74 104.26H191.47" stroke="#44C8C2" stroke-miterlimit="10" stroke-dasharray="6 6"></path>
    <path d="M363.99 164.5H389.73" stroke="#5257D4" stroke-miterlimit="10" stroke-dasharray="6 6"></path>
    <path d="M145.83 123C156.18 123 164.57 114.61 164.57 104.26C164.57 93.9102 156.18 85.52 145.83 85.52C135.48 85.52 127.09 93.9102 127.09 104.26C127.09 114.61 135.48 123 145.83 123Z" fill="white"></path>
    <path d="M161.41 104.26C161.41 104.26 154.41 111.96 145.83 111.96C137.25 111.96 130.26 104.26 130.26 104.26C130.26 104.26 137.26 96.55 145.83 96.55C154.4 96.55 161.41 104.26 161.41 104.26Z" fill="#D9DEE2"></path>
    <path d="M145.83 110.08C149.044 110.08 151.65 107.474 151.65 104.26C151.65 101.046 149.044 98.4399 145.83 98.4399C142.615 98.4399 140.01 101.046 140.01 104.26C140.01 107.474 142.615 110.08 145.83 110.08Z" fill="url(#paint4_radial_51_16800)"></path>
    <path d="M145.831 106.95C147.316 106.95 148.521 105.746 148.521 104.26C148.521 102.774 147.316 101.57 145.831 101.57C144.345 101.57 143.141 102.774 143.141 104.26C143.141 105.746 144.345 106.95 145.831 106.95Z" fill="#04353B"></path>
    <path d="M408.631 183.24C418.98 183.24 427.371 174.85 427.371 164.5C427.371 154.15 418.98 145.76 408.631 145.76C398.281 145.76 389.891 154.15 389.891 164.5C389.891 174.85 398.281 183.24 408.631 183.24Z" stroke="#3C40B7" stroke-miterlimit="10"></path>
    <path d="M424.201 164.5C424.201 164.5 417.201 172.21 408.631 172.21C400.061 172.21 393.051 164.5 393.051 164.5C393.051 164.5 400.051 156.8 408.631 156.8C417.211 156.8 424.201 164.5 424.201 164.5Z" fill="#D9DEE2"></path>
    <g opacity="0.4">
      <path d="M408.629 170.32C411.843 170.32 414.449 167.714 414.449 164.5C414.449 161.286 411.843 158.68 408.629 158.68C405.414 158.68 402.809 161.286 402.809 164.5C402.809 167.714 405.414 170.32 408.629 170.32Z" fill="url(#paint5_radial_51_16800)"></path>
      <path d="M408.629 167.19C410.115 167.19 411.319 165.986 411.319 164.5C411.319 163.014 410.115 161.81 408.629 161.81C407.144 161.81 405.939 163.014 405.939 164.5C405.939 165.986 407.144 167.19 408.629 167.19Z" fill="#04353B"></path>
    </g>
    <path d="M421.61 151.3L395.52 177.93" stroke="#3C40B7" stroke-miterlimit="10"></path>
    <path d="M306.139 90.49L298.449 95L298.359 123.88L306.059 119.41C306.259 119.323 306.431 119.184 306.559 119.009C306.688 118.833 306.767 118.626 306.789 118.41L306.869 89.53C306.838 89.7383 306.754 89.9353 306.627 90.103C306.499 90.2708 306.332 90.4038 306.139 90.49Z" fill="#D9DEE2"></path>
    <path d="M287.131 90.4901C286.923 90.3993 286.745 90.2535 286.614 90.0684C286.484 89.8833 286.407 89.666 286.391 89.4401L286.301 118.33C286.328 118.548 286.411 118.754 286.543 118.93C286.675 119.105 286.85 119.243 287.051 119.33L294.791 123.8L294.871 95.0001L287.131 90.4901Z" fill="#D9DEE2"></path>
    <path d="M306.131 88.42C306.349 88.492 306.538 88.6307 306.672 88.8165C306.807 89.0023 306.879 89.2258 306.879 89.4551C306.879 89.6843 306.807 89.9078 306.672 90.0936C306.538 90.2794 306.349 90.4181 306.131 90.4901L298.451 95C297.895 95.2781 297.282 95.4229 296.661 95.4229C296.04 95.4229 295.427 95.2781 294.871 95L287.131 90.53C286.913 90.4581 286.724 90.3194 286.589 90.1336C286.455 89.9478 286.383 89.7243 286.383 89.495C286.383 89.2658 286.455 89.0423 286.589 88.8565C286.724 88.6707 286.913 88.532 287.131 88.46L294.811 84C295.364 83.719 295.976 83.5725 296.596 83.5725C297.216 83.5725 297.828 83.719 298.381 84L306.131 88.42Z" fill="white"></path>
    <path d="M298.451 95L298.361 123.88C297.808 124.161 297.196 124.308 296.576 124.308C295.956 124.308 295.344 124.161 294.791 123.88L294.871 95C295.427 95.2781 296.04 95.4229 296.661 95.4229C297.282 95.4229 297.895 95.2781 298.451 95Z" fill="#F5F5F5"></path>
    <path d="M291.999 109.34L284.309 113.81L284.219 132.35L291.919 127.88C292.118 127.793 292.29 127.654 292.419 127.479C292.547 127.303 292.626 127.096 292.649 126.88L292.729 108.34C292.703 108.555 292.623 108.761 292.495 108.936C292.367 109.111 292.196 109.25 291.999 109.34Z" fill="#D9DEE2"></path>
    <path d="M272.939 109.34C272.733 109.247 272.556 109.101 272.426 108.916C272.295 108.732 272.217 108.515 272.199 108.29L272.109 126.84C272.137 127.057 272.22 127.264 272.352 127.439C272.483 127.615 272.658 127.753 272.859 127.84L280.599 132.31L280.679 113.77L272.939 109.34Z" fill="#D9DEE2"></path>
    <path d="M291.94 107.27C292.157 107.342 292.347 107.481 292.481 107.666C292.616 107.852 292.688 108.076 292.688 108.305C292.688 108.534 292.616 108.758 292.481 108.944C292.347 109.129 292.157 109.268 291.94 109.34L284.25 113.81C283.694 114.088 283.081 114.233 282.46 114.233C281.838 114.233 281.226 114.088 280.67 113.81L272.93 109.34C272.712 109.268 272.523 109.129 272.388 108.944C272.254 108.758 272.182 108.534 272.182 108.305C272.182 108.076 272.254 107.852 272.388 107.666C272.523 107.481 272.712 107.342 272.93 107.27L280.62 102.8C281.171 102.514 281.784 102.365 282.405 102.365C283.026 102.365 283.638 102.514 284.19 102.8L291.94 107.27Z" fill="white"></path>
    <path d="M284.26 113.81L284.17 132.35C283.617 132.631 283.005 132.777 282.385 132.777C281.764 132.777 281.153 132.631 280.6 132.35L280.68 113.81C281.235 114.088 281.848 114.233 282.47 114.233C283.091 114.233 283.704 114.088 284.26 113.81Z" fill="#F5F5F5"></path>
    <path d="M277.438 126.71L269.748 131.18L269.668 140.86L277.358 136.39C277.557 136.302 277.729 136.163 277.857 135.988C277.985 135.812 278.065 135.606 278.088 135.39L278.178 125.71C278.151 125.926 278.068 126.132 277.939 126.307C277.809 126.482 277.637 126.621 277.438 126.71Z" fill="#D9DEE2"></path>
    <path d="M258.439 126.71C258.239 126.621 258.065 126.483 257.934 126.308C257.803 126.133 257.718 125.927 257.689 125.71L257.609 135.39C257.638 135.606 257.72 135.811 257.85 135.986C257.979 136.161 258.151 136.3 258.349 136.39L266.099 140.86L266.179 131.18L258.439 126.71Z" fill="#D9DEE2"></path>
    <path d="M277.43 124.64C277.647 124.712 277.837 124.851 277.971 125.036C278.106 125.222 278.178 125.446 278.178 125.675C278.178 125.904 278.106 126.128 277.971 126.314C277.837 126.499 277.647 126.638 277.43 126.71L269.74 131.18C269.187 131.461 268.575 131.608 267.955 131.608C267.334 131.608 266.723 131.461 266.17 131.18L258.43 126.71C258.212 126.638 258.023 126.499 257.888 126.314C257.754 126.128 257.682 125.904 257.682 125.675C257.682 125.446 257.754 125.222 257.888 125.036C258.023 124.851 258.212 124.712 258.43 124.64L266.13 120.17C266.683 119.889 267.294 119.742 267.915 119.742C268.535 119.742 269.147 119.889 269.7 120.17L277.43 124.64Z" fill="white"></path>
    <path d="M269.75 131.18L269.67 140.86C269.117 141.141 268.505 141.287 267.885 141.287C267.264 141.287 266.653 141.141 266.1 140.86L266.18 131.18C266.733 131.461 267.344 131.607 267.965 131.607C268.585 131.607 269.197 131.461 269.75 131.18Z" fill="#F5F5F5"></path>
    <path d="M344.56 121.56C345.565 121.56 346.38 120.745 346.38 119.74C346.38 118.735 345.565 117.92 344.56 117.92C343.555 117.92 342.74 118.735 342.74 119.74C342.74 120.745 343.555 121.56 344.56 121.56Z" stroke="url(#paint6_radial_51_16800)" stroke-miterlimit="10"></path>
  </g>
  <defs>
    <radialGradient id="paint0_radial_51_16800" cx="0" cy="0" r="1" gradientUnits="userSpaceOnUse" gradientTransform="translate(348.639 160.45) scale(13.53 13.53)">
      <stop stop-color="#9499FA"></stop>
      <stop offset="1" stop-color="#5257D5"></stop>
    </radialGradient>
    <radialGradient id="paint1_radial_51_16800" cx="0" cy="0" r="1" gradientUnits="userSpaceOnUse" gradientTransform="translate(197.569 100.28) scale(13.53 13.53)">
      <stop stop-color="#6CECD4"></stop>
      <stop offset="1" stop-color="#2DC0BF"></stop>
    </radialGradient>
    <radialGradient id="paint2_radial_51_16800" cx="0" cy="0" r="1" gradientUnits="userSpaceOnUse" gradientTransform="translate(218.171 166.05) scale(4.53)">
      <stop stop-color="#6CECD4"></stop>
      <stop offset="1" stop-color="#2DC0BF"></stop>
    </radialGradient>
    <radialGradient id="paint3_radial_51_16800" cx="0" cy="0" r="1" gradientUnits="userSpaceOnUse" gradientTransform="translate(331.05 85.66) scale(4.53001 4.53)">
      <stop stop-color="#9499FA"></stop>
      <stop offset="1" stop-color="#5257D5"></stop>
    </radialGradient>
    <radialGradient id="paint4_radial_51_16800" cx="0" cy="0" r="1" gradientUnits="userSpaceOnUse" gradientTransform="translate(145.83 104.26) scale(5.82 5.82)">
      <stop stop-color="#6CECD4"></stop>
      <stop offset="1" stop-color="#2DC0BF"></stop>
    </radialGradient>
    <radialGradient id="paint5_radial_51_16800" cx="0" cy="0" r="1" gradientUnits="userSpaceOnUse" gradientTransform="translate(408.629 164.5) scale(5.82001 5.82)">
      <stop stop-color="#9499FA"></stop>
      <stop offset="1" stop-color="#5257D5"></stop>
    </radialGradient>
    <radialGradient id="paint6_radial_51_16800" cx="0" cy="0" r="1" gradientUnits="userSpaceOnUse" gradientTransform="translate(344.56 119.74) scale(2.32001 2.32)">
      <stop stop-color="#9499FA"></stop>
      <stop offset="1" stop-color="#5257D5"></stop>
    </radialGradient>
    <clipPath id="clip0_51_16800">
      <rect width="510" height="230" fill="white" transform="translate(24 48)"></rect>
    </clipPath>
  </defs>
</svg>
