<?xml version="1.0" encoding="UTF-8"?>
<svg xmlns="http://www.w3.org/2000/svg" width="558" height="326" viewBox="0 0 558 326" fill="none">
  <rect x="0.5" y="0.5" width="557" height="325" rx="19.5" fill="#F5F8FB"></rect>
  <rect x="0.5" y="0.5" width="557" height="325" rx="19.5" stroke="#F5F8FB"></rect>
  <g clip-path="url(#clip0_489_20880)">
    <path d="M533.22 51.1299H24V281.13H533.22V51.1299Z" fill="#F5F8FB"></path>
    <g opacity="0.5">
      <path d="M351.61 213.61L282.59 253.71L213.13 213.61L282.14 173.5L351.61 213.61Z" stroke="#BDC0C9" stroke-miterlimit="10"></path>
    </g>
    <g opacity="0.5">
      <path opacity="0.2" d="M371.09 213.61L282.66 265L193.64 213.61L282.08 162.21L371.09 213.61Z" stroke="#BDC0C9" stroke-miterlimit="10"></path>
    </g>
    <g opacity="0.5">
      <path opacity="0.2" d="M351.61 197.59V109.63L282.14 69.52V157.48L351.61 197.59Z" fill="#5257D5"></path>
    </g>
    <path d="M336.11 168.6C341.384 168.6 345.66 164.324 345.66 159.05C345.66 153.776 341.384 149.5 336.11 149.5C330.836 149.5 326.56 153.776 326.56 159.05C326.56 164.324 330.836 168.6 336.11 168.6Z" fill="url(#paint0_radial_489_20880)"></path>
    <path d="M229.34 159.85C231.477 159.85 233.21 158.117 233.21 155.98C233.21 153.843 231.477 152.11 229.34 152.11C227.203 152.11 225.47 153.843 225.47 155.98C225.47 158.117 227.203 159.85 229.34 159.85Z" fill="url(#paint1_radial_489_20880)"></path>
    <path d="M214.84 79.8199C215.922 79.8199 216.8 78.9424 216.8 77.8599C216.8 76.7774 215.922 75.8999 214.84 75.8999C213.757 75.8999 212.88 76.7774 212.88 77.8599C212.88 78.9424 213.757 79.8199 214.84 79.8199Z" stroke="url(#paint2_radial_489_20880)" stroke-miterlimit="10"></path>
    <path d="M351.61 109.63L282.59 149.74L213.13 109.63L282.14 69.52L351.61 109.63Z" stroke="#5257D5" stroke-linecap="round" stroke-linejoin="round"></path>
    <g opacity="0.5">
      <path d="M351.61 197.59L282.59 237.69L213.13 197.59L282.14 157.48L351.61 197.59Z" fill="#5257D5"></path>
    </g>
    <path d="M351.61 109.63L351.36 197.27L282.35 237.37L282.59 149.74L351.61 109.63Z" stroke="#5257D5" stroke-linecap="round" stroke-linejoin="round"></path>
    <path d="M282.59 149.74L282.35 237.37L212.88 197.27L213.13 109.63L282.59 149.74Z" stroke="#5257D5" stroke-linecap="round" stroke-linejoin="round"></path>
    <path d="M320.19 127.92L282.56 149.78L244.69 127.92L282.31 106.05L320.19 127.92Z" stroke="#5257D5" stroke-linecap="round" stroke-linejoin="round"></path>
    <path d="M289.38 117.65L289.32 149.32C289.321 150.974 288.887 152.6 288.063 154.034C287.238 155.468 286.051 156.659 284.62 157.49L252.94 176C252.537 176.239 252.078 176.366 251.609 176.37C251.141 176.373 250.68 176.252 250.273 176.02C249.867 175.787 249.529 175.45 249.295 175.045C249.061 174.639 248.938 174.179 248.94 173.71L249 140.14C249 139.286 249.225 138.446 249.651 137.705C250.077 136.965 250.691 136.349 251.43 135.92L286 115.73C286.338 115.523 286.726 115.41 287.123 115.403C287.52 115.397 287.911 115.496 288.257 115.693C288.602 115.889 288.888 116.174 289.086 116.518C289.283 116.862 289.385 117.253 289.38 117.65Z" fill="#F5F8FB" stroke="#D9DEE2" stroke-miterlimit="10"></path>
    <path d="M295.88 121.27L295.83 152.94C295.824 154.593 295.387 156.215 294.563 157.648C293.739 159.081 292.556 160.274 291.13 161.11L259.44 179.6C259.037 179.839 258.578 179.966 258.109 179.97C257.641 179.973 257.18 179.852 256.773 179.619C256.367 179.387 256.029 179.05 255.795 178.645C255.561 178.239 255.438 177.778 255.44 177.31V143.76C255.455 142.892 255.7 142.043 256.15 141.3C256.6 140.557 257.238 139.946 258 139.53L292.59 119.34C292.927 119.158 293.306 119.065 293.689 119.072C294.073 119.079 294.448 119.184 294.779 119.378C295.109 119.572 295.384 119.848 295.577 120.18C295.77 120.511 295.874 120.887 295.88 121.27Z" fill="#F5F8FB" stroke="#D9DEE2" stroke-miterlimit="10"></path>
    <path d="M302.39 124.88L302.33 156.55C302.331 158.204 301.898 159.83 301.073 161.264C300.248 162.698 299.061 163.889 297.63 164.72L266 183.21C265.597 183.449 265.138 183.576 264.669 183.58C264.201 183.583 263.74 183.462 263.333 183.23C262.927 182.997 262.589 182.66 262.355 182.255C262.121 181.849 261.998 181.389 262 180.92V147.37C262 146.516 262.225 145.676 262.651 144.935C263.077 144.195 263.691 143.579 264.43 143.15L299 123C299.336 122.795 299.721 122.683 300.115 122.675C300.508 122.667 300.897 122.763 301.242 122.954C301.586 123.145 301.874 123.424 302.075 123.762C302.277 124.101 302.386 124.486 302.39 124.88Z" fill="#F5F8FB" stroke="#D9DEE2" stroke-miterlimit="10"></path>
    <path d="M308.89 128.5L308.84 160.17C308.834 161.823 308.398 163.446 307.573 164.878C306.749 166.311 305.566 167.504 304.14 168.34L272.45 186.83C272.047 187.069 271.588 187.196 271.119 187.2C270.651 187.203 270.19 187.082 269.783 186.849C269.377 186.617 269.039 186.28 268.805 185.875C268.571 185.469 268.448 185.008 268.45 184.54L268.5 150.99C268.509 150.128 268.745 149.283 269.184 148.541C269.623 147.798 270.249 147.184 271 146.76L305.59 126.58C305.926 126.393 306.306 126.296 306.691 126.3C307.076 126.303 307.454 126.407 307.786 126.601C308.119 126.794 308.396 127.071 308.59 127.404C308.783 127.737 308.887 128.115 308.89 128.5Z" fill="#F5F8FB" stroke="#D9DEE2" stroke-miterlimit="10"></path>
    <path d="M315.4 132.11L315.34 163.79C315.339 165.443 314.905 167.066 314.08 168.498C313.255 169.93 312.069 171.12 310.64 171.95L279 190.45C278.596 190.686 278.136 190.811 277.668 190.812C277.2 190.814 276.74 190.691 276.334 190.458C275.928 190.225 275.591 189.889 275.357 189.483C275.123 189.078 275 188.618 275 188.15V154.6C275.002 153.746 275.227 152.907 275.654 152.167C276.08 151.427 276.692 150.811 277.43 150.38L312.02 130.19C312.359 129.986 312.746 129.876 313.142 129.871C313.538 129.866 313.927 129.966 314.271 130.162C314.616 130.357 314.901 130.641 315.1 130.983C315.298 131.325 315.402 131.714 315.4 132.11Z" fill="#F5F8FB" stroke="#D9DEE2" stroke-miterlimit="10"></path>
    <path d="M320.19 127.92L320.05 175.7L282.42 197.56L282.56 149.78L320.19 127.92Z" stroke="#5257D5" stroke-linecap="round" stroke-linejoin="round"></path>
    <path d="M282.56 149.78L282.42 197.56L244.55 175.7L244.69 127.92L282.56 149.78Z" stroke="#5257D5" stroke-linecap="round" stroke-linejoin="round"></path>
    <path d="M282.35 71.2401C283.295 71.2401 284.06 70.4745 284.06 69.5301C284.06 68.5857 283.295 67.8201 282.35 67.8201C281.406 67.8201 280.64 68.5857 280.64 69.5301C280.64 70.4745 281.406 71.2401 282.35 71.2401Z" fill="#F5F8FB" stroke="#5257D5" stroke-linecap="round" stroke-linejoin="round"></path>
    <path d="M282.35 239.08C283.295 239.08 284.06 238.314 284.06 237.37C284.06 236.425 283.295 235.66 282.35 235.66C281.406 235.66 280.64 236.425 280.64 237.37C280.64 238.314 281.406 239.08 282.35 239.08Z" fill="#F5F8FB" stroke="#5257D5" stroke-linecap="round" stroke-linejoin="round"></path>
    <path d="M351.36 111.39C352.304 111.39 353.07 110.624 353.07 109.68C353.07 108.736 352.304 107.97 351.36 107.97C350.415 107.97 349.65 108.736 349.65 109.68C349.65 110.624 350.415 111.39 351.36 111.39Z" fill="#F5F8FB" stroke="#5257D5" stroke-linecap="round" stroke-linejoin="round"></path>
    <path d="M213.13 111.34C214.074 111.34 214.84 110.574 214.84 109.63C214.84 108.686 214.074 107.92 213.13 107.92C212.186 107.92 211.42 108.686 211.42 109.63C211.42 110.574 212.186 111.34 213.13 111.34Z" fill="#F5F8FB" stroke="#5257D5" stroke-linecap="round" stroke-linejoin="round"></path>
    <path d="M351.36 199.3C352.304 199.3 353.07 198.534 353.07 197.59C353.07 196.645 352.304 195.88 351.36 195.88C350.415 195.88 349.65 196.645 349.65 197.59C349.65 198.534 350.415 199.3 351.36 199.3Z" fill="#F5F8FB" stroke="#5257D5" stroke-linecap="round" stroke-linejoin="round"></path>
    <path d="M213.13 199.25C214.074 199.25 214.84 198.484 214.84 197.54C214.84 196.596 214.074 195.83 213.13 195.83C212.186 195.83 211.42 196.596 211.42 197.54C211.42 198.484 212.186 199.25 213.13 199.25Z" fill="#F5F8FB" stroke="#5257D5" stroke-linecap="round" stroke-linejoin="round"></path>
    <path d="M330.18 177.38L324 181L323.93 204.4L330.16 200.78C330.325 200.709 330.469 200.594 330.574 200.448C330.68 200.302 330.744 200.13 330.76 199.95L330.83 176.55C330.81 176.735 330.738 176.911 330.623 177.058C330.508 177.204 330.355 177.316 330.18 177.38Z" fill="#D9DEE2"></path>
    <path d="M314.79 177.38C314.621 177.309 314.475 177.194 314.367 177.045C314.26 176.897 314.195 176.722 314.18 176.54L314.11 199.94C314.125 200.122 314.19 200.297 314.297 200.445C314.405 200.594 314.551 200.709 314.72 200.78L321 204.4L321.07 181L314.79 177.38Z" fill="#D9DEE2"></path>
    <path d="M330.17 175.71C330.97 176.17 330.98 176.92 330.17 177.38L324 181C323.553 181.231 323.058 181.352 322.555 181.352C322.052 181.352 321.556 181.231 321.11 181L314.84 177.38C314.665 177.322 314.512 177.21 314.404 177.06C314.296 176.91 314.238 176.73 314.238 176.545C314.238 176.36 314.296 176.18 314.404 176.03C314.512 175.88 314.665 175.768 314.84 175.71L321.07 172.09C321.517 171.859 322.012 171.738 322.515 171.738C323.018 171.738 323.513 171.859 323.96 172.09L330.17 175.71Z" fill="white"></path>
    <path d="M324 181L323.93 204.4C323.483 204.631 322.988 204.752 322.485 204.752C321.982 204.752 321.486 204.631 321.04 204.4L321.11 181C321.556 181.231 322.052 181.352 322.555 181.352C323.058 181.352 323.553 181.231 324 181Z" fill="#F5F5F5"></path>
    <path d="M318.69 192.65L312.46 196.27L312.39 211.27L318.62 207.64C318.786 207.568 318.929 207.454 319.034 207.307C319.14 207.161 319.204 206.989 319.22 206.81L319.28 191.81C319.267 191.99 319.205 192.163 319.101 192.311C318.997 192.459 318.855 192.576 318.69 192.65Z" fill="#D9DEE2"></path>
    <path d="M303.29 192.65C303.123 192.578 302.979 192.461 302.873 192.313C302.768 192.165 302.704 191.991 302.69 191.81L302.62 206.81C302.634 206.991 302.698 207.165 302.803 207.313C302.909 207.461 303.053 207.578 303.22 207.65L309.5 211.28L309.56 196.28L303.29 192.65Z" fill="#D9DEE2"></path>
    <path d="M318.68 191C318.855 191.058 319.008 191.17 319.116 191.32C319.224 191.47 319.282 191.65 319.282 191.835C319.282 192.02 319.224 192.2 319.116 192.35C319.008 192.5 318.855 192.612 318.68 192.67L312.45 196.29C312.002 196.521 311.505 196.642 311 196.642C310.495 196.642 309.998 196.521 309.55 196.29L303.28 192.67C302.48 192.21 302.47 191.46 303.28 191L309.51 187.38C309.958 187.148 310.455 187.028 310.96 187.028C311.465 187.028 311.962 187.148 312.41 187.38L318.68 191Z" fill="white"></path>
    <path d="M312.46 196.27L312.39 211.27C311.942 211.497 311.447 211.615 310.945 211.615C310.443 211.615 309.948 211.497 309.5 211.27L309.56 196.27C310.008 196.502 310.505 196.622 311.01 196.622C311.515 196.622 312.012 196.502 312.46 196.27Z" fill="#F5F5F5"></path>
    <path d="M306.93 206.72L300.7 210.35L300.64 218.19L306.87 214.57C307.034 214.497 307.175 214.382 307.279 214.236C307.382 214.09 307.445 213.918 307.46 213.74L307.53 205.89C307.514 206.069 307.45 206.241 307.344 206.388C307.239 206.534 307.096 206.648 306.93 206.72Z" fill="#D9DEE2"></path>
    <path d="M291.54 206.72C291.371 206.649 291.225 206.533 291.118 206.385C291.01 206.237 290.945 206.062 290.93 205.88L290.87 213.72C290.883 213.903 290.945 214.079 291.051 214.229C291.157 214.379 291.302 214.497 291.47 214.57L297.74 218.19L297.81 210.35L291.54 206.72Z" fill="#D9DEE2"></path>
    <path d="M306.93 205.05C307.105 205.108 307.258 205.22 307.366 205.37C307.474 205.52 307.532 205.7 307.532 205.885C307.532 206.07 307.474 206.25 307.366 206.4C307.258 206.549 307.105 206.662 306.93 206.72L300.7 210.35C300.252 210.577 299.757 210.695 299.255 210.695C298.753 210.695 298.258 210.577 297.81 210.35L291.54 206.72C290.74 206.26 290.73 205.51 291.54 205.05L297.77 201.43C298.217 201.198 298.712 201.078 299.215 201.078C299.718 201.078 300.214 201.198 300.66 201.43L306.93 205.05Z" fill="white"></path>
    <path d="M300.7 210.35L300.64 218.19C300.191 218.417 299.694 218.535 299.19 218.535C298.687 218.535 298.19 218.417 297.74 218.19L297.81 210.35C298.258 210.577 298.753 210.695 299.255 210.695C299.757 210.695 300.252 210.577 300.7 210.35Z" fill="#F5F5F5"></path>
    <path d="M282.59 166.13C291.774 166.13 299.22 158.685 299.22 149.5C299.22 140.316 291.774 132.87 282.59 132.87C273.405 132.87 265.96 140.316 265.96 149.5C265.96 158.685 273.405 166.13 282.59 166.13Z" fill="#5257D5"></path>
    <path fill-rule="evenodd" clip-rule="evenodd" d="M286.51 148V144.63C286.537 144.099 286.455 143.568 286.271 143.07C286.086 142.572 285.802 142.116 285.436 141.731C285.07 141.346 284.629 141.039 284.141 140.83C283.652 140.62 283.126 140.512 282.595 140.512C282.063 140.512 281.538 140.62 281.049 140.83C280.561 141.039 280.12 141.346 279.754 141.731C279.388 142.116 279.104 142.572 278.919 143.07C278.734 143.568 278.653 144.099 278.68 144.63V148H278.59C278.205 148 277.837 148.153 277.565 148.425C277.293 148.697 277.14 149.065 277.14 149.45V155.64C277.14 156.024 277.293 156.393 277.565 156.665C277.837 156.937 278.205 157.09 278.59 157.09H286.59C286.974 157.09 287.343 156.937 287.615 156.665C287.887 156.393 288.04 156.024 288.04 155.64V149.45C288.04 149.067 287.888 148.7 287.619 148.428C287.349 148.156 286.983 148.003 286.6 148H286.51ZM285.05 148V144.63C285.071 144.294 285.024 143.958 284.91 143.641C284.796 143.325 284.619 143.035 284.389 142.79C284.159 142.545 283.881 142.349 283.572 142.216C283.264 142.082 282.931 142.013 282.595 142.013C282.259 142.013 281.926 142.082 281.617 142.216C281.309 142.349 281.031 142.545 280.801 142.79C280.571 143.035 280.393 143.325 280.28 143.641C280.166 143.958 280.118 144.294 280.14 144.63V148H285.05ZM283.05 152.44C283.213 152.332 283.338 152.175 283.405 151.991C283.471 151.807 283.477 151.606 283.421 151.419C283.365 151.231 283.25 151.067 283.093 150.95C282.936 150.833 282.746 150.77 282.55 150.77C282.355 150.772 282.166 150.837 282.011 150.955C281.855 151.072 281.742 151.237 281.687 151.424C281.632 151.611 281.639 151.81 281.706 151.993C281.773 152.176 281.897 152.333 282.06 152.44L281.66 153.96C281.644 154.004 281.64 154.051 281.647 154.097C281.655 154.142 281.674 154.186 281.703 154.222C281.732 154.258 281.771 154.286 281.814 154.303C281.857 154.32 281.904 154.326 281.95 154.32H283.16C283.206 154.326 283.253 154.32 283.296 154.303C283.339 154.286 283.377 154.258 283.406 154.222C283.436 154.186 283.455 154.142 283.463 154.097C283.47 154.051 283.466 154.004 283.45 153.96L283.05 152.44Z" fill="#F5F8FB"></path>
    <path d="M302.36 162C300.367 163.302 298.693 165.036 297.462 167.074C296.231 169.111 295.475 171.4 295.25 173.77L309.52 165.53C309.25 161.41 306.15 159.82 302.36 162Z" fill="#3FE0D0"></path>
    <path d="M302.34 153.54C301.434 154.13 300.68 154.926 300.14 155.863C299.599 156.799 299.288 157.85 299.23 158.93C299.23 160.93 300.64 161.71 302.36 160.72C303.268 160.132 304.023 159.336 304.563 158.399C305.104 157.462 305.415 156.41 305.47 155.33C305.47 153.35 304.07 152.55 302.34 153.54Z" fill="#FFC8A8"></path>
  </g>
  <defs>
    <radialGradient id="paint0_radial_489_20880" cx="0" cy="0" r="1" gradientUnits="userSpaceOnUse" gradientTransform="translate(331.99 155.44) scale(12.05 12.05)">
      <stop stop-color="#9499FA"></stop>
      <stop offset="1" stop-color="#5257D5"></stop>
    </radialGradient>
    <radialGradient id="paint1_radial_489_20880" cx="0" cy="0" r="1" gradientUnits="userSpaceOnUse" gradientTransform="translate(227.67 154.51) scale(4.87 4.87)">
      <stop stop-color="#6CECD4"></stop>
      <stop offset="1" stop-color="#2DC0BF"></stop>
    </radialGradient>
    <radialGradient id="paint2_radial_489_20880" cx="0" cy="0" r="1" gradientUnits="userSpaceOnUse" gradientTransform="translate(214.84 77.8599) scale(2.46 2.46)">
      <stop stop-color="#9499FA"></stop>
      <stop offset="1" stop-color="#5257D5"></stop>
    </radialGradient>
    <clipPath id="clip0_489_20880">
      <rect width="510" height="230" fill="white" transform="translate(24 48)"></rect>
    </clipPath>
  </defs>
</svg>
