<?xml version="1.0" encoding="UTF-8"?>
<svg xmlns="http://www.w3.org/2000/svg" width="69" height="43" viewBox="0 0 69 43" fill="none">
  <path d="M19.578 9.5455V12.512H22.4595V27.149L9.56499 9.5455H3.29199V12.512H6.13949V30.1495H3.29199V33.116H12.659V30.1495H9.78599V15.725L22.6125 33.116H26.106V12.512H29.013V9.5455H19.578Z" fill="#002B31"></path>
  <path d="M55.0318 9.5455V12.3335H57.6073L52.9833 18.5725L48.2998 12.3335H50.8413V9.5455H41.4743V12.512H44.1348L50.8073 21.0885L43.7098 30.1495H40.9473V33.116H50.4418V30.3025H47.8748L52.9833 23.5365L58.1598 30.3025H55.3718V33.116H64.8323V30.1495H62.1718L55.1253 21.0885L61.8658 12.512H64.4668V9.5455H55.0318Z" fill="#002B31"></path>
  <path d="M40.6409 5.13399C41.2189 5.13399 41.7969 5.26149 42.3239 5.49949C42.6894 4.70049 43.0634 3.85049 43.3948 3.05149C42.8764 2.77949 41.6523 2.49899 40.4878 2.49899C36.7563 2.49899 34.3933 4.82799 33.8749 8.71249L32.4044 19.805H29.7098L28.7579 22.8395H32.0048L30.5089 34.1955C30.2369 36.3715 29.0724 37.536 27.1769 37.536C26.5819 37.536 25.9869 37.4255 25.4344 37.196C25.0944 37.995 24.7884 38.8535 24.4229 39.678C25.0009 39.95 26.3184 40.137 27.2364 40.137C30.8489 40.137 33.3564 37.961 33.8834 33.9235L35.3539 22.8395H38.0823L39.0259 19.8135H35.8128L37.3089 8.45749C37.5809 6.33249 38.7199 5.14249 40.6409 5.13399Z" fill="#002B31"></path>
</svg>
