<svg width="527" height="326" viewBox="0 0 527 326" fill="none" xmlns="http://www.w3.org/2000/svg">
<path d="M462.589 206.233C481.613 217.22 481.689 235.034 462.816 245.945L340.22 317.237C321.309 328.224 290.599 328.224 271.575 317.237L148.184 246.002C129.274 235.033 129.084 217.239 147.995 206.29L270.572 135.054C289.483 124.067 320.193 124.048 339.198 135.054L462.589 206.233Z" fill="#D7DAE0"/>
<path d="M435.601 206.233C454.644 217.22 454.719 235.033 435.828 245.945L313.25 317.18C294.34 328.167 263.629 328.167 244.587 317.18L121.196 245.945C102.191 234.977 102.096 217.182 121.007 206.233L243.603 134.997C262.514 124.01 293.224 123.991 312.229 134.997L435.601 206.233Z" fill="#BDC0C9"/>
<path d="M435.601 171.4C454.644 182.387 454.719 200.201 435.828 211.112L313.25 282.404C294.34 293.391 263.629 293.391 244.587 282.404L121.196 211.112C102.191 200.144 102.096 182.349 121.007 171.4L243.603 100.164C262.514 89.1773 293.224 89.1584 312.229 100.164L435.601 171.4Z" fill="white"/>
<path d="M279.181 42.979C285.63 46.7611 285.648 52.7179 279.181 56.4432L237.748 80.6297C234.15 82.4658 230.168 83.4231 226.128 83.4231C222.088 83.4231 218.106 82.4658 214.507 80.6297L172.715 56.5189C166.286 52.7368 166.248 46.78 172.715 43.0546L214.318 18.9249C217.918 17.0932 221.9 16.1384 225.939 16.1384C229.978 16.1384 233.959 17.0932 237.559 18.9249L279.181 42.979Z" fill="url(#paint0_linear_443_1177)"/>
<path d="M279.181 42.979C285.63 46.7611 285.648 52.7179 279.181 56.4432L237.748 80.6297C234.15 82.4658 230.168 83.4231 226.128 83.4231C222.088 83.4231 218.106 82.4658 214.507 80.6297L172.715 56.5189C166.286 52.7368 166.248 46.78 172.715 43.0546L214.318 18.9249C217.918 17.0932 221.9 16.1384 225.939 16.1384C229.978 16.1384 233.959 17.0932 237.559 18.9249L279.181 42.979Z" stroke="white" stroke-miterlimit="10"/>
<path d="M435.835 211.112L313.258 282.404L312.785 312.982L435.363 241.747C444.818 236.282 449.451 229.152 449.47 221.985L449.943 191.407C449.905 198.574 445.215 205.704 435.835 211.112Z" fill="#D9DEE2"/>
<path d="M121.198 211.112C111.648 205.59 106.864 198.347 106.883 191.105L106.41 221.683C106.41 228.926 111.176 236.168 120.725 241.69L244.116 312.926L244.589 282.348L121.198 211.112Z" fill="#D9DEE2"/>
<path d="M225.943 62.3814C237.15 62.3814 246.234 53.2968 246.234 42.0905C246.234 30.8841 237.15 21.7996 225.943 21.7996C214.737 21.7996 205.652 30.8841 205.652 42.0905C205.652 53.2968 214.737 62.3814 225.943 62.3814Z" fill="url(#paint1_radial_443_1177)"/>
<path d="M277.816 100.24C289.162 100.24 300.168 102.831 308.073 107.35L431.464 178.586C437.931 182.368 441.637 186.963 441.637 191.351C441.637 195.738 438.007 200.295 431.672 203.983L309.075 275.218C301.303 279.757 290.316 282.348 278.97 282.348C267.623 282.348 256.599 279.738 248.713 275.218L125.322 203.983C118.874 200.201 115.167 195.605 115.149 191.218C115.13 186.831 118.798 182.292 125.152 178.586L247.73 107.35C255.502 102.831 266.489 100.24 277.854 100.24" stroke="#D9DEE2" stroke-miterlimit="10"/>
<path d="M313.254 282.404L312.781 312.982C293.871 323.969 263.141 323.969 244.117 312.982L244.59 282.404C263.633 293.391 294.343 293.391 313.254 282.404Z" fill="#F5F5F5"/>
<path d="M306.996 164.668C318.021 158.352 335.835 158.427 346.708 164.838C357.582 171.249 357.601 181.555 346.557 187.89L278.479 226.921C267.455 233.237 249.641 233.162 238.768 226.751C227.894 220.34 227.913 210.034 238.938 203.718L306.996 164.668Z" fill="#D9DEE2"/>
<path d="M333.506 91.806L265.428 130.856C254.422 137.172 236.608 137.097 225.716 130.686C220.27 127.49 217.547 123.33 217.566 119.169L217.301 213.911C217.301 218.052 220.005 222.231 225.451 225.408C236.4 231.819 254.195 231.895 265.163 225.597L333.241 186.528C338.763 183.351 341.542 179.172 341.561 174.993L341.826 80.2517C341.807 84.412 339.027 88.629 333.506 91.806Z" fill="#3C40B7"/>
<path d="M293.888 68.6028C304.913 62.2867 322.726 62.3623 333.6 68.7541C344.473 75.1458 344.473 85.4898 333.449 91.8059L265.371 130.856C254.365 137.172 236.551 137.096 225.659 130.686C214.767 124.275 214.786 113.969 225.81 107.653L293.888 68.6028Z" fill="#7B80E5"/>
<path d="M305.979 132.955C302.197 130.78 297.034 131.064 291.305 134.411C279.958 140.992 270.673 156.952 270.711 170.057C270.711 176.562 273.037 181.139 276.725 183.294L285.499 188.4C281.811 186.245 279.504 181.668 279.486 175.163C279.486 162.058 288.676 146.079 300.079 139.498C305.752 136.189 311.009 135.886 314.753 138.061L305.979 132.955Z" fill="#F5F8FB"/>
<path d="M300.076 139.498C311.422 132.917 320.745 138.212 320.877 151.317C321.009 164.422 311.706 180.363 300.303 186.944C288.9 193.525 279.614 188.268 279.501 175.163C279.388 162.058 288.673 146.079 300.076 139.498Z" fill="white"/>
<path d="M300.247 154.948C303.311 153.17 305.807 154.589 305.826 158.106C305.665 161.078 304.436 163.892 302.365 166.029V171.873C302.325 172.593 302.115 173.293 301.754 173.918C301.393 174.542 300.889 175.072 300.285 175.466C299.131 176.128 298.205 175.598 298.186 174.274V168.431C296.144 168.658 294.706 167.202 294.688 164.536C294.794 162.613 295.353 160.742 296.319 159.076C297.286 157.41 298.631 155.996 300.247 154.948Z" fill="#3C40B7"/>
<path d="M267.338 119.374C267.357 112.711 258.051 107.283 246.552 107.251C235.053 107.219 225.716 112.594 225.698 119.258C225.679 125.921 234.986 131.349 246.484 131.381C257.983 131.413 267.32 126.037 267.338 119.374Z" fill="white"/>
<path d="M333.26 80.3286C333.279 73.6653 323.972 68.2377 312.474 68.2056C300.975 68.1735 291.638 73.5491 291.62 80.2123C291.601 86.8755 300.908 92.3031 312.406 92.3352C323.905 92.3674 333.242 86.9918 333.26 80.3286Z" fill="#3C40B7"/>
<path d="M297.69 77.9823C305.783 73.2736 318.964 73.2736 327.133 77.9823C329.49 79.1872 331.418 81.0888 332.655 83.4285C334.546 79.4006 332.655 74.9188 327.228 71.7608C319.058 67.0521 305.878 67.0521 297.784 71.7608C292.376 74.8999 290.617 79.325 292.451 83.3529C293.61 81.0714 295.438 79.1979 297.69 77.9823Z" fill="#5257D4"/>
<path d="M305.729 5.25247C299.745 1.78023 292.944 -0.0327928 286.026 0.000449025C279.109 0.0336909 272.325 1.91199 266.376 5.44157C256.404 11.3132 248.134 19.6817 242.38 29.7226C236.627 39.7634 233.589 51.1301 233.566 62.7024C233.566 62.7024 233.566 115.652 233.793 116.276C232.923 118.696 234.096 121.325 237.348 123.197C240.21 124.652 243.375 125.41 246.586 125.41C249.797 125.41 252.962 124.652 255.824 123.197C259.039 121.306 260.192 118.715 259.303 116.295C259.455 115.671 259.549 62.7024 259.549 62.7024C259.559 55.6607 261.407 48.7436 264.909 42.6347C268.412 36.5257 273.447 31.4363 279.519 27.8694C281.525 26.6889 283.807 26.0583 286.134 26.0411C288.462 26.0239 290.753 26.6207 292.776 27.7714C294.799 28.9221 296.483 30.586 297.659 32.5952C298.834 34.6045 299.458 36.888 299.469 39.2156V63.2508C299.469 66.6964 300.838 70.0008 303.274 72.4372C305.711 74.8736 309.015 76.2423 312.461 76.2423C315.906 76.2423 319.211 74.8736 321.647 72.4372C324.083 70.0008 325.452 66.6964 325.452 63.2508V39.2913C325.491 32.3758 323.683 25.5753 320.216 19.5917C316.749 13.608 311.747 8.65799 305.729 5.25247Z" fill="#DDDFFC"/>
<path opacity="0.5" d="M246.562 135.47C239.26 135.764 232.013 134.099 225.571 130.648C220.125 127.452 217.402 123.292 217.421 119.131L217.156 213.873C217.156 218.014 219.86 222.193 225.307 225.37C231.828 228.864 239.171 230.536 246.562 230.211V135.47Z" fill="#7B80E5"/>
<path d="M193.038 151.222C204.157 157.633 204.195 168.034 193.17 174.444L121.557 216.047C110.513 222.477 92.5669 222.477 81.4475 216.047L9.3609 174.444C-1.73953 168.034 -1.79626 157.652 9.24744 151.222L80.8613 109.619C91.8861 103.209 109.851 103.209 120.951 109.619L193.038 151.222Z" fill="url(#paint2_linear_443_1177)"/>
<path d="M193.038 151.222C204.157 157.633 204.195 168.034 193.17 174.444L121.557 216.047C110.513 222.477 92.5669 222.477 81.4475 216.047L9.3609 174.444C-1.73953 168.034 -1.79626 157.652 9.24744 151.222L80.8613 109.619C91.8861 103.209 109.851 103.209 120.951 109.619L193.038 151.222Z" stroke="white" stroke-miterlimit="10"/>
<path d="M123.749 92.9784C113.764 87.2107 105.727 73.2358 105.727 61.7194C105.727 56.0462 107.751 52.0183 111.003 50.1273L81.7487 67.1467C78.4961 69.0377 76.4916 73.0467 76.4727 78.7388C76.4727 90.2174 84.5096 104.192 94.4943 109.96C99.5245 112.872 104.082 113.137 107.372 111.227L136.608 94.2075C133.317 96.1553 128.779 95.8906 123.749 92.9784Z" fill="#1F96A1"/>
<path opacity="0.2" d="M123.75 92.9783C119.333 90.2641 115.569 86.6097 112.725 82.275L83.5273 99.2944C86.352 103.61 90.0978 107.246 94.4954 109.941C99.5256 112.853 104.083 113.118 107.373 111.208L136.609 94.1885C133.319 96.1552 128.78 95.8905 123.75 92.9783Z" fill="#F5F8FB"/>
<path d="M94.7034 39.0266C117.982 52.4719 136.798 85.0546 136.722 111.813C136.571 161.945 96.4432 170.908 94.3819 171.4C92.2829 168.639 52.3062 116.125 52.4575 63.0618C52.4764 36.2846 71.4057 25.4867 94.7034 39.0266ZM94.4954 110.073C104.48 115.746 112.612 111.208 112.63 99.7291C112.649 88.2505 104.612 74.2757 94.6088 68.508C84.6052 62.7403 76.5115 67.3734 76.4737 78.852C76.4359 90.3307 84.5107 104.305 94.4954 110.073Z" fill="#2DC0BF"/>
<path d="M123.938 22.0073C112.232 15.2374 101.605 14.6134 93.9459 19.0762L64.6914 36.0956C72.369 31.6328 82.9778 32.3135 94.7023 39.0267C117.981 52.4721 136.797 85.0548 136.721 111.813C136.721 143.242 120.837 158.522 108.545 165.67L137.799 148.651C150.091 141.502 165.881 126.223 165.957 94.7937C166.033 67.9597 147.217 35.377 123.938 22.0073Z" fill="#1F96A1"/>
<g opacity="0.2">
<path d="M93.9537 19.0006L64.6992 36.02C72.3769 31.5571 82.9856 32.2379 94.7101 38.9511C96.3553 39.8966 97.9627 40.9745 99.5701 42.1091L128.825 25.0897C127.217 23.9551 125.61 22.8772 123.946 21.9317C112.24 15.1617 101.612 14.5377 93.9537 19.0006Z" fill="#F5F8FB"/>
</g>
<path d="M517.483 106.896C528.603 113.307 528.641 123.708 517.616 130.118L446.002 171.721C434.958 178.151 417.012 178.151 405.893 171.721L333.806 130.118C322.706 123.727 322.649 113.326 333.693 106.896L405.307 65.2933C416.331 58.8827 434.296 58.8638 445.397 65.2933L517.483 106.896Z" fill="url(#paint3_linear_443_1177)"/>
<path d="M517.483 106.896C528.603 113.307 528.641 123.708 517.616 130.118L446.002 171.721C434.958 178.151 417.012 178.151 405.893 171.721L333.806 130.118C322.706 123.727 322.649 113.326 333.693 106.896L405.307 65.2933C416.331 58.8827 434.296 58.8638 445.397 65.2933L517.483 106.896Z" stroke="white" stroke-miterlimit="10"/>
<path d="M485.622 77.2448L445.059 100.826L370.59 57.8238L411.153 34.2424L485.622 77.2448Z" fill="#3FE0D0"/>
<path opacity="0.5" d="M449.014 67.6235C449.033 60.9603 439.726 55.5326 428.228 55.5005C416.729 55.4684 407.392 60.844 407.374 67.5072C407.355 74.1704 416.661 79.5981 428.16 79.6302C439.659 79.6623 448.996 74.2867 449.014 67.6235Z" fill="white"/>
<path d="M485.625 77.2449L485.493 128.001L444.93 151.563L445.062 100.826L485.625 77.2449Z" fill="#1F96A1"/>
<path d="M445.062 100.826L444.93 151.563L370.441 108.56L370.593 57.8237L445.062 100.826Z" fill="#2DC0BF"/>
<path d="M416.811 84.6011L416.66 135.338L398.695 124.786L398.847 74.0491L416.811 84.6011Z" fill="#1F96A1"/>
<path d="M416.809 84.601L457.599 61.0764L439.634 50.5244L398.844 74.049L416.809 84.601Z" fill="#2DC0BF"/>
<path opacity="0.5" d="M397.883 49.7113L406.222 54.5145" stroke="white" stroke-width="2" stroke-miterlimit="10" stroke-linecap="round"/>
<path opacity="0.5" d="M450.012 79.533L458.332 84.3362" stroke="white" stroke-width="2" stroke-miterlimit="10" stroke-linecap="round"/>
<path d="M396.064 265.385C404.025 269.98 404.044 277.431 396.159 282.026L344.892 311.81C340.446 314.084 335.524 315.27 330.53 315.27C325.536 315.27 320.613 314.084 316.167 311.81L264.58 282.026C256.637 277.431 256.581 269.999 264.58 265.404L315.751 235.695C320.197 233.431 325.115 232.25 330.104 232.25C335.094 232.25 340.012 233.431 344.457 235.695L396.064 265.385Z" fill="url(#paint4_linear_443_1177)"/>
<path d="M396.064 265.385C404.025 269.98 404.044 277.431 396.159 282.026L344.892 311.81C340.446 314.084 335.524 315.27 330.53 315.27C325.536 315.27 320.613 314.084 316.167 311.81L264.58 282.026C256.637 277.431 256.581 269.999 264.58 265.404L315.751 235.695C320.197 233.431 325.115 232.25 330.104 232.25C335.094 232.25 340.012 233.431 344.457 235.695L396.064 265.385Z" stroke="white" stroke-miterlimit="10"/>
<path d="M370.437 19.3975C374.197 19.3975 377.244 16.3496 377.244 12.5897C377.244 8.82993 374.197 5.78198 370.437 5.78198C366.677 5.78198 363.629 8.82993 363.629 12.5897C363.629 16.3496 366.677 19.3975 370.437 19.3975Z" fill="#D9DEE2"/>
<path d="M192.246 103.171C194.147 103.171 195.688 101.63 195.688 99.7293C195.688 97.8285 194.147 96.2876 192.246 96.2876C190.346 96.2876 188.805 97.8285 188.805 99.7293C188.805 101.63 190.346 103.171 192.246 103.171Z" stroke="url(#paint5_radial_443_1177)" stroke-miterlimit="10"/>
<path d="M498.957 198.309C500.858 198.309 502.399 196.769 502.399 194.868C502.399 192.967 500.858 191.426 498.957 191.426C497.057 191.426 495.516 192.967 495.516 194.868C495.516 196.769 497.057 198.309 498.957 198.309Z" stroke="url(#paint6_radial_443_1177)" stroke-miterlimit="10"/>
<path d="M300.266 296.209C300.266 296.209 303.197 252.828 320.311 260.941C336.744 268.732 327.78 223.65 346.142 206.403C370.726 183.389 365.45 254.984 365.45 254.984L300.266 296.209Z" fill="#7B80E5"/>
<defs>
<linearGradient id="paint0_linear_443_1177" x1="225.948" y1="83.3528" x2="225.948" y2="16.0694" gradientUnits="userSpaceOnUse">
<stop stop-color="#7B80E5"/>
<stop offset="0.16" stop-color="#979BEA" stop-opacity="0.91"/>
<stop offset="0.51" stop-color="#CACEF3" stop-opacity="0.74"/>
<stop offset="0.8" stop-color="#EAEDF9" stop-opacity="0.64"/>
<stop offset="1" stop-color="#F5F8FB" stop-opacity="0.6"/>
</linearGradient>
<radialGradient id="paint1_radial_443_1177" cx="0" cy="0" r="1" gradientUnits="userSpaceOnUse" gradientTransform="translate(217.207 34.4128) scale(25.5858 25.5858)">
<stop stop-color="#9499FA"/>
<stop offset="1" stop-color="#5257D5"/>
</radialGradient>
<linearGradient id="paint2_linear_443_1177" x1="1.00249" y1="162.833" x2="201.415" y2="162.833" gradientUnits="userSpaceOnUse">
<stop stop-color="#F5F8FB" stop-opacity="0.6"/>
<stop offset="0.19" stop-color="#E5F6F7" stop-opacity="0.63"/>
<stop offset="0.47" stop-color="#B9F0ED" stop-opacity="0.73"/>
<stop offset="0.8" stop-color="#71E7DC" stop-opacity="0.89"/>
<stop offset="1" stop-color="#3FE0D0"/>
</linearGradient>
<linearGradient id="paint3_linear_443_1177" x1="325.448" y1="118.507" x2="525.861" y2="118.507" gradientUnits="userSpaceOnUse">
<stop stop-color="#3FE0D0"/>
<stop offset="0.2" stop-color="#71E7DC" stop-opacity="0.89"/>
<stop offset="0.53" stop-color="#B9F0ED" stop-opacity="0.73"/>
<stop offset="0.81" stop-color="#E5F6F7" stop-opacity="0.63"/>
<stop offset="1" stop-color="#F5F8FB" stop-opacity="0.6"/>
</linearGradient>
<linearGradient id="paint4_linear_443_1177" x1="330.312" y1="315.271" x2="330.312" y2="232.159" gradientUnits="userSpaceOnUse">
<stop stop-color="#F5F8FB" stop-opacity="0.6"/>
<stop offset="0.2" stop-color="#EAEDF9" stop-opacity="0.64"/>
<stop offset="0.49" stop-color="#CACEF3" stop-opacity="0.74"/>
<stop offset="0.84" stop-color="#979BEA" stop-opacity="0.91"/>
<stop offset="1" stop-color="#7B80E5"/>
</linearGradient>
<radialGradient id="paint5_radial_443_1177" cx="0" cy="0" r="1" gradientUnits="userSpaceOnUse" gradientTransform="translate(192.246 99.7293) scale(4.38724 4.38722)">
<stop stop-color="#9499FA"/>
<stop offset="1" stop-color="#5257D5"/>
</radialGradient>
<radialGradient id="paint6_radial_443_1177" cx="0" cy="0" r="1" gradientUnits="userSpaceOnUse" gradientTransform="translate(498.957 194.868) scale(4.38724 4.38722)">
<stop stop-color="#9499FA"/>
<stop offset="1" stop-color="#5257D5"/>
</radialGradient>
</defs>
</svg>
