<svg width="571" height="460" viewBox="0 0 571 460" fill="none" xmlns="http://www.w3.org/2000/svg">
<rect width="571" height="460" rx="20" fill="#F5F8FB"/>
<path d="M450.5 243C450.5 337.165 374.165 413.5 280 413.5C185.835 413.5 109.5 337.165 109.5 243C109.5 148.835 185.835 72.5 280 72.5C374.165 72.5 450.5 148.835 450.5 243Z" fill="#F5F8FB" stroke="#F5F8FB"/>
<path d="M340.759 150.741C342.762 150.741 344.385 149.118 344.385 147.115C344.385 145.112 342.762 143.489 340.759 143.489C338.756 143.489 337.133 145.112 337.133 147.115C337.133 149.118 338.756 150.741 340.759 150.741Z" stroke="url(#paint0_radial_453_914)" stroke-width="2" stroke-miterlimit="10"/>
<path d="M150.427 227.065C152.43 227.065 154.053 225.442 154.053 223.439C154.053 221.436 152.43 219.812 150.427 219.812C148.424 219.812 146.801 221.436 146.801 223.439C146.801 225.442 148.424 227.065 150.427 227.065Z" stroke="url(#paint1_radial_453_914)" stroke-width="2" stroke-miterlimit="10"/>
<path d="M422.469 197.216L407.042 206.179L391.516 197.216L406.943 188.252L422.469 197.216Z" fill="white"/>
<path d="M422.473 197.216L422.423 215.938L406.996 224.902L407.046 206.179L422.473 197.216Z" fill="#BDC0C9"/>
<path d="M407.046 206.179L406.997 224.902L391.465 215.938L391.52 197.216L407.046 206.179Z" fill="#D9DEE2"/>
<g opacity="0.5">
<path d="M420.326 295.447C420.442 253.947 362.454 220.143 290.806 219.943C219.158 219.742 160.982 253.223 160.866 294.723C160.75 336.223 218.738 370.027 290.386 370.227C362.034 370.427 420.21 336.947 420.326 295.447Z" fill="#D7DAE0"/>
</g>
<path d="M409.963 295.447C410.079 253.947 352.091 220.143 280.443 219.943C208.795 219.743 150.619 253.223 150.503 294.723C150.387 336.223 208.375 370.027 280.023 370.227C351.671 370.427 409.847 336.947 409.963 295.447Z" fill="#BDC0C9"/>
<path d="M409.975 279.368L409.882 290.076C409.826 309.185 397.27 328.265 372.183 342.843C321.691 372.184 239.55 372.184 188.72 342.843C163.143 328.078 150.371 308.693 150.426 289.336L150.52 278.656C150.465 298.013 163.215 317.398 188.814 332.162C239.638 361.51 321.785 361.51 372.277 332.162C397.347 317.558 409.92 298.477 409.975 279.368Z" fill="#D9DEE2"/>
<path d="M409.963 279.351C410.079 237.852 352.091 204.047 280.443 203.847C208.795 203.647 150.619 237.127 150.503 278.627C150.387 320.127 208.375 353.931 280.023 354.132C351.671 354.332 409.847 320.851 409.963 279.351Z" fill="white"/>
<path d="M357.845 332.195L380.618 319.329C381.054 319.085 381.418 318.729 381.673 318.299C381.928 317.869 382.064 317.379 382.069 316.879C382.074 316.379 381.948 315.887 381.702 315.452C381.456 315.017 381.099 314.654 380.668 314.401L355.168 299.305" fill="#D7DAE0"/>
<path d="M293.858 240.621L293.648 244.882" stroke="#FFAB59" stroke-miterlimit="10"/>
<path d="M292.784 240.627L292.574 244.882" stroke="#2DC0BF" stroke-miterlimit="10"/>
<path d="M291.671 240.45L291.461 244.711" stroke="#5257D4" stroke-miterlimit="10"/>
<path d="M314.488 205.688L420.689 144.493" stroke="#5257D4" stroke-width="11" stroke-miterlimit="10"/>
<path d="M292.656 241.189C292.656 241.189 293.468 216.666 314.486 205.688" stroke="#5257D4" stroke-width="11" stroke-miterlimit="10"/>
<path d="M265.805 364.319C274.507 364.892 283.235 364.96 291.945 364.523V353.848C283.235 354.282 274.507 354.21 265.805 353.633V364.319Z" fill="#F5F5F5"/>
<path d="M351.879 192.563L201.522 105.752C196.599 102.909 192.592 105.2 192.575 110.852L192.238 229.361C192.238 235.024 196.201 241.924 201.13 244.766L351.487 331.572C356.416 334.42 360.423 332.124 360.44 326.466L360.777 207.968C360.793 202.316 356.808 195.405 351.879 192.563ZM276.394 267.761C256.999 256.562 241.373 229.499 241.439 207.212C241.505 184.924 257.225 175.966 276.621 187.165C296.016 198.364 311.642 225.42 311.576 247.708C311.509 269.996 295.784 278.954 276.394 267.761Z" fill="#DDDFFC"/>
<path d="M351.88 192.563L201.523 105.752C196.6 102.91 192.592 105.2 192.576 110.852L192.57 120.418L360.772 217.561V207.996C360.794 202.316 356.809 195.406 351.88 192.563Z" fill="#2DC0BF"/>
<path d="M357.718 189.169L207.367 102.363C204.889 100.928 202.637 100.796 201.014 101.739L195.18 105.134C196.802 104.19 199.043 104.323 201.527 105.752L351.884 192.563C356.813 195.406 360.798 202.305 360.782 207.968L360.445 326.466C360.445 329.281 359.446 331.263 357.845 332.196L363.679 328.801C365.28 327.874 366.273 325.892 366.285 323.077L366.616 204.579C366.632 198.916 362.653 192.017 357.718 189.169Z" fill="#BDC0FA"/>
<path d="M201.63 118.241C202.17 117.927 202.168 116.916 201.626 115.982C201.083 115.049 200.205 114.547 199.665 114.861C199.125 115.175 199.127 116.186 199.67 117.119C200.213 118.053 201.09 118.555 201.63 118.241Z" fill="#1F96A1"/>
<path d="M210.997 122.964C211.54 122.648 211.538 121.632 210.992 120.694C210.447 119.755 209.565 119.25 209.022 119.566C208.479 119.881 208.481 120.898 209.026 121.836C209.572 122.774 210.454 123.279 210.997 122.964Z" fill="#1F96A1"/>
<path d="M218.852 127.694C219.395 127.379 219.393 126.362 218.848 125.424C218.303 124.486 217.421 123.981 216.878 124.296C216.335 124.612 216.337 125.628 216.882 126.567C217.427 127.505 218.309 128.01 218.852 127.694Z" fill="#1F96A1"/>
<path d="M282.68 264.962C263.284 253.763 247.658 226.706 247.724 204.418C247.752 194.174 251.097 186.756 256.583 182.804C247.459 184.824 241.476 193.49 241.438 207.211C241.371 229.499 256.997 256.561 276.393 267.76C286.88 273.804 296.263 273.964 302.715 269.322C297.03 270.581 290.125 269.262 282.68 264.962Z" fill="#BDC0FA"/>
<path d="M287.035 253.04L290.833 254.966" stroke="#FFAB59" stroke-miterlimit="10"/>
<path d="M286.598 254.022L290.401 255.949" stroke="#2DC0BF" stroke-miterlimit="10"/>
<path d="M285.984 254.966L289.787 256.898" stroke="#5257D4" stroke-miterlimit="10"/>
<path d="M366.59 214.083V204.579C366.59 198.916 362.627 192.016 357.692 189.168L207.363 102.363C204.885 100.928 202.633 100.795 201.01 101.739L195.176 105.134C196.799 104.19 199.039 104.322 201.523 105.752L351.88 192.563C356.809 195.405 360.794 202.305 360.778 207.968V217.472L366.59 214.083Z" fill="#1F96A1"/>
<path d="M126.277 315.758L216.472 263.323C216.472 263.323 254.391 236.564 286.752 254.144" stroke="#5257D4" stroke-width="11" stroke-miterlimit="10"/>
<path d="M280.894 243L275.363 240.45" stroke="#5257D4" stroke-miterlimit="10"/>
<path d="M282.743 239.672L280.242 232.861" stroke="#5257D4" stroke-miterlimit="10"/>
<path d="M286.752 240.627L286.598 237.238" stroke="#5257D4" stroke-miterlimit="10"/>
<path d="M238.854 170.855C239.564 171.317 240.154 171.94 240.577 172.674C241 173.408 241.244 174.231 241.288 175.077C241.288 176.633 240.185 177.252 238.838 176.473L225.95 169.033C225.24 168.572 224.65 167.95 224.227 167.217C223.804 166.484 223.56 165.661 223.516 164.816C223.516 163.265 224.62 162.636 225.966 163.414L238.854 170.855Z" fill="#BDC0FA"/>
<path d="M248.513 166.991C249.225 167.452 249.816 168.075 250.241 168.809C250.665 169.543 250.909 170.367 250.953 171.214C250.953 172.765 249.849 173.388 248.497 172.61L225.977 159.606C225.268 159.145 224.677 158.522 224.254 157.79C223.831 157.057 223.587 156.234 223.543 155.389C223.543 153.838 224.647 153.209 225.994 153.987L248.513 166.991Z" fill="#BDC0FA"/>
<path d="M218.784 162.492C219.656 164.733 218.552 166.273 216.803 165.252L203.644 157.652C201.894 156.642 200.813 153.838 201.69 152.607L208.314 143.301C208.755 142.688 209.522 142.694 210.29 143.135C211.191 143.713 211.88 144.57 212.249 145.575L218.784 162.492Z" fill="#BDC0FA"/>
<path d="M210.919 156.879C211.08 157.153 211.163 157.466 211.156 157.784C211.156 158.104 211.073 158.303 210.913 158.397C210.753 158.491 210.527 158.447 210.24 158.281C209.96 158.123 209.725 157.897 209.555 157.624C209.394 157.35 209.31 157.037 209.313 156.719C209.313 156.382 209.395 156.167 209.555 156.09C209.715 156.013 209.942 156.051 210.245 156.228C210.522 156.384 210.753 156.608 210.919 156.879Z" fill="#5257D4"/>
<path d="M210.233 155.19C210.046 155.067 209.89 154.904 209.773 154.713C209.657 154.522 209.584 154.308 209.559 154.086L209.388 149.853C209.36 149.268 209.758 149.019 210.249 149.301C210.509 149.468 210.723 149.697 210.874 149.966C211.025 150.235 211.108 150.538 211.116 150.846L210.911 154.859C210.906 155.245 210.613 155.4 210.233 155.19Z" fill="#5257D4"/>
<path d="M318.239 284.49C318.703 284.779 319.084 285.185 319.343 285.666C319.961 286.726 319.956 287.874 319.343 288.221L317.069 289.524L319.326 293.437C319.945 294.503 319.939 295.645 319.326 295.998C319.149 296.078 318.953 296.11 318.759 296.089C318.565 296.069 318.38 295.998 318.223 295.882C317.761 295.592 317.382 295.19 317.119 294.712L314.861 290.799L312.587 292.096C312.409 292.176 312.213 292.207 312.02 292.187C311.826 292.167 311.641 292.095 311.483 291.98C311.022 291.69 310.642 291.287 310.379 290.81C309.767 289.745 309.772 288.602 310.379 288.249L312.648 286.952L310.39 283.039C309.778 281.979 309.783 280.831 310.39 280.478C310.568 280.398 310.764 280.366 310.958 280.387C311.152 280.407 311.337 280.478 311.494 280.593C311.957 280.885 312.337 281.289 312.598 281.769L314.85 285.671L317.124 284.38C317.304 284.301 317.501 284.27 317.696 284.29C317.891 284.309 318.078 284.378 318.239 284.49Z" fill="#7B80E5"/>
<path d="M339.741 303.875C340.452 304.336 341.044 304.959 341.468 305.693C341.892 306.427 342.137 307.251 342.181 308.097C342.181 309.654 341.077 310.272 339.73 309.494L326.842 302.053C326.131 301.593 325.54 300.971 325.116 300.238C324.692 299.505 324.447 298.682 324.402 297.836C324.402 296.285 325.506 295.656 326.859 296.434L339.741 303.875Z" fill="#BDC0FA"/>
<path d="M349.409 300.011C350.119 300.473 350.709 301.097 351.132 301.83C351.555 302.564 351.799 303.388 351.843 304.233C351.843 305.784 350.74 306.408 349.393 305.63L326.873 292.626C326.164 292.167 325.573 291.546 325.149 290.815C324.725 290.084 324.48 289.264 324.434 288.42C324.434 286.869 325.537 286.212 326.89 287.018L349.409 300.011Z" fill="#BDC0FA"/>
<path d="M209.234 197.392C212.744 199.418 215.582 204.336 215.57 208.376L215.521 226.524C215.521 230.559 212.651 232.187 209.14 230.162L181.118 213.984C177.607 211.958 174.77 207.04 174.781 203L174.836 184.852C174.836 180.817 177.701 179.189 181.212 181.215L209.234 197.392Z" stroke="#BDC0FA" stroke-width="2" stroke-miterlimit="10"/>
<path d="M374.427 242.636C379.24 245.396 383.126 252.152 383.115 257.682L383.043 282.553C383.043 288.073 379.113 290.319 374.3 287.521L335.901 265.349C331.11 262.595 327.202 255.855 327.246 250.336L327.318 225.465C327.318 219.945 331.248 217.704 336.056 220.497L374.427 242.636Z" stroke="#BDC0FA" stroke-width="2" stroke-miterlimit="10"/>
<defs>
<radialGradient id="paint0_radial_453_914" cx="0" cy="0" r="1" gradientUnits="userSpaceOnUse" gradientTransform="translate(340.759 147.115) scale(4.17828 4.17827)">
<stop stop-color="#9499FA"/>
<stop offset="1" stop-color="#5257D5"/>
</radialGradient>
<radialGradient id="paint1_radial_453_914" cx="0" cy="0" r="1" gradientUnits="userSpaceOnUse" gradientTransform="translate(150.427 223.439) scale(4.17827)">
<stop stop-color="#9499FA"/>
<stop offset="1" stop-color="#5257D5"/>
</radialGradient>
</defs>
</svg>
