<svg width="592" height="330" viewBox="0 0 592 330" fill="none" xmlns="http://www.w3.org/2000/svg">
<g clip-path="url(#clip0_932_4382)">
<path d="M688.855 -62.6232C677.849 -56.2378 670.005 -45.9623 666.752 -33.7555C666.728 -33.6664 666.704 -33.5775 666.681 -33.4884C661.935 -15.1428 651.335 1.17563 634.967 10.6718L628.928 14.1755C612.165 23.9008 591.666 27.056 573.719 19.9175C571.683 19.14 569.624 18.4518 567.452 17.8288C553.28 14.0747 538.526 16.081 525.827 23.4486C513.127 30.8163 504.096 42.685 500.287 56.7956C499.717 58.934 499.269 61.1521 498.991 63.2723C496.567 80.4208 487.825 96.0387 472.868 104.716L472.473 104.945C457.064 113.885 437.916 115.729 422.019 107.703C418.278 105.805 414.208 104.25 410.018 103.14C393.974 98.8905 377.191 101.17 362.798 109.52C348.406 117.87 338.097 131.308 333.855 147.403C332.169 153.729 331.511 160.137 331.863 166.335C332.488 178.853 325.161 190.411 314.381 196.665L309.922 199.252C298.126 206.096 283.838 204.743 272.418 197.283C266.359 193.341 259.715 190.341 252.584 188.452C234.579 183.683 215.823 186.203 199.737 195.536C183.652 204.868 172.155 219.899 167.358 237.898C164.96 246.897 164.495 255.979 165.704 264.694C167.1 275.032 161.933 285.11 152.902 290.349L152.846 290.382C143.477 295.818 131.756 294.859 123.301 288.089C115.245 281.615 105.734 276.663 95.1265 273.853C75.249 268.588 54.4644 271.382 36.6854 281.697C15.4635 294.009 1.45457 315.243 -1.35863 340.301C-5.06415 373.183 13.8011 405.7 44.1861 418.804C67.3032 428.743 92.6901 427.12 113.856 414.841C131.635 404.526 144.376 387.869 149.672 368C152.569 357.129 152.949 346.213 151.196 335.78C149.453 325.493 154.32 315.288 163.35 310.048L163.802 309.786C173.002 304.449 184.461 304.956 192.865 311.38C199.798 316.698 207.791 320.722 216.793 323.107C234.799 327.876 253.555 325.356 269.64 316.024C285.726 306.691 297.28 291.627 302.02 273.662C303.919 266.534 304.669 259.244 304.198 252.06C303.422 238.5 309.34 225.425 321.08 218.614L325.595 215.995C336.432 209.708 350.102 209.084 360.603 215.871C365.865 219.221 371.698 221.863 378.027 223.539C394.072 227.789 410.887 225.566 425.279 217.215C439.672 208.865 449.981 195.427 454.223 179.333C455.362 175.056 456.009 170.839 456.219 166.65C457.141 148.866 468.279 133.215 483.687 124.275L484.139 124.013C499.152 115.303 517.05 115.465 533.083 121.906C535.118 122.683 537.21 123.428 539.349 123.995C553.522 127.749 568.276 125.742 580.975 118.375C593.674 111.007 602.706 99.1386 606.515 85.028C607.084 82.8895 607.509 80.7602 607.811 78.5509C610.522 59.4277 623.436 43.198 640.199 33.4726L646.295 29.9361C662.719 20.4072 682.09 19.3376 700.372 24.3231C700.461 24.3467 700.55 24.3702 700.639 24.3938C712.94 27.652 725.721 25.8863 736.671 19.5337C747.677 13.1484 755.52 2.87296 758.774 -9.33383C762.051 -21.6297 760.301 -34.3985 753.958 -45.3314C747.582 -56.3207 737.309 -64.1452 725.097 -67.3798C712.675 -70.718 699.861 -69.0085 688.855 -62.6232Z" fill="url(#paint0_linear_932_4382)"/>
</g>
<defs>
<linearGradient id="paint0_linear_932_4382" x1="469" y1="95.0005" x2="-11.1657" y2="423.258" gradientUnits="userSpaceOnUse">
<stop stop-color="#7177F8" stop-opacity="0.5"/>
<stop offset="1" stop-color="#3FE0D0"/>
</linearGradient>
<clipPath id="clip0_932_4382">
<rect width="592" height="330" fill="white"/>
</clipPath>
</defs>
</svg>
