<svg width="533" height="260" viewBox="0 0 533 260" fill="none" xmlns="http://www.w3.org/2000/svg">
<path d="M690.855 -62.6232C679.849 -56.2379 672.005 -45.9624 668.752 -33.7556C668.728 -33.6665 668.704 -33.5776 668.681 -33.4885C663.935 -15.1429 653.335 1.17556 636.967 10.6717L630.928 14.1754C614.165 23.9008 593.666 27.0559 575.719 19.9175C573.683 19.1399 571.624 18.4517 569.452 17.8287C555.28 14.0747 540.526 16.0809 527.827 23.4486C515.127 30.8163 506.096 42.6849 502.287 56.7956C501.717 58.934 501.269 61.1521 500.991 63.2722C498.567 80.4207 489.825 96.0387 474.868 104.716L474.473 104.945C459.064 113.885 439.916 115.729 424.019 107.702C420.278 105.805 416.208 104.25 412.018 103.14C395.974 98.8905 379.191 101.17 364.798 109.52C350.406 117.87 340.097 131.308 335.855 147.403C334.169 153.729 333.511 160.137 333.863 166.335C334.488 178.853 327.161 190.411 316.381 196.665L311.922 199.252C300.126 206.096 285.838 204.743 274.418 197.283C268.359 193.341 261.715 190.341 254.584 188.452C236.579 183.683 217.823 186.203 201.737 195.536C185.652 204.868 174.155 219.899 169.358 237.898C166.96 246.897 166.495 255.979 167.704 264.693C169.1 275.032 163.933 285.11 154.902 290.349L154.846 290.382C145.477 295.818 133.756 294.859 125.301 288.089C117.245 281.615 107.734 276.663 97.1265 273.853C77.249 268.588 56.4644 271.382 38.6854 281.697C17.4635 294.009 3.45457 315.243 0.641366 340.301C-3.06415 373.183 15.8011 405.7 46.1861 418.804C69.3032 428.743 94.6901 427.12 115.856 414.841C133.635 404.526 146.376 387.869 151.672 368C154.569 357.129 154.949 346.212 153.196 335.78C151.453 325.493 156.32 315.288 165.35 310.048L165.802 309.786C175.002 304.449 186.461 304.956 194.865 311.38C201.798 316.698 209.791 320.722 218.793 323.107C236.799 327.876 255.554 325.356 271.64 316.024C287.726 306.691 299.28 291.627 304.02 273.662C305.919 266.534 306.669 259.244 306.198 252.06C305.422 238.5 311.34 225.425 323.08 218.614L327.595 215.995C338.432 209.708 352.102 209.083 362.603 215.871C367.865 219.221 373.698 221.863 380.027 223.539C396.072 227.789 412.887 225.565 427.279 217.215C441.672 208.865 451.981 195.427 456.223 179.333C457.362 175.056 458.009 170.839 458.219 166.65C459.141 148.866 470.279 133.215 485.687 124.275L486.139 124.013C501.152 115.303 519.05 115.465 535.083 121.906C537.118 122.683 539.21 123.428 541.349 123.995C555.522 127.749 570.276 125.742 582.975 118.375C595.674 111.007 604.706 99.1385 608.515 85.0279C609.084 82.8895 609.509 80.7601 609.811 78.5509C612.522 59.4277 625.436 43.1979 642.199 33.4726L648.295 29.9361C664.719 20.4072 684.09 19.3375 702.372 24.3231C702.461 24.3467 702.55 24.3701 702.639 24.3937C714.94 27.6519 727.721 25.8862 738.671 19.5336C749.677 13.1483 757.52 2.8729 760.774 -9.3339C764.051 -21.6298 762.301 -34.3985 755.958 -45.3315C749.582 -56.3208 739.309 -64.1453 727.097 -67.3799C714.675 -70.718 701.861 -69.0085 690.855 -62.6232Z" fill="url(#paint0_linear_525_6370)"/>
<defs>
<linearGradient id="paint0_linear_525_6370" x1="471" y1="95.0004" x2="-9.16568" y2="423.258" gradientUnits="userSpaceOnUse">
<stop stop-color="#7177F8" stop-opacity="0.5"/>
<stop offset="1" stop-color="#3FE0D0"/>
</linearGradient>
</defs>
</svg>
