<svg width="1920" height="372" viewBox="0 0 1920 372" fill="none" xmlns="http://www.w3.org/2000/svg">
<g clip-path="url(#clip0_108_916)">
<g clip-path="url(#clip1_108_916)">
<g opacity="0.06">
<mask id="mask0_108_916" style="mask-type:luminance" maskUnits="userSpaceOnUse" x="-20" y="-171" width="1971" height="771">
<path d="M1951 -171H-20V600H1951V-171Z" fill="white"/>
</mask>
<g mask="url(#mask0_108_916)">
<path d="M-645.94 276.721L751.542 1076.2" stroke="#ffffff" stroke-width="1.44048" stroke-miterlimit="10"/>
<path d="M-511.5 205.82L885.996 1005.29" stroke="#ffffff" stroke-width="1.44048" stroke-miterlimit="10"/>
<path d="M-425.346 108.746L972.136 908.227" stroke="#ffffff" stroke-width="1.44048" stroke-miterlimit="10"/>
<path d="M-290.904 37.8459L1106.59 837.313" stroke="#ffffff" stroke-width="1.44048" stroke-miterlimit="10"/>
<path d="M-192.305 -50.9597L1177.68 732.762" stroke="#ffffff" stroke-width="1.44048" stroke-miterlimit="10"/>
<path d="M-63.1084 -124.871L1312.12 661.862" stroke="#ffffff" stroke-width="1.44048" stroke-miterlimit="10"/>
<path d="M64.8652 -198.076L1499.93 622.897" stroke="#ffffff" stroke-width="1.44048" stroke-miterlimit="10"/>
<path d="M966.504 169.909L1685.71 581.354" stroke="#ffffff" stroke-width="1.44048" stroke-miterlimit="10"/>
<path d="M1092.36 95.5515L1720.54 454.923" stroke="#ffffff" stroke-width="1.44048" stroke-miterlimit="10"/>
<path d="M1221.56 21.6405L1854.98 384.008" stroke="#ffffff" stroke-width="1.44048" stroke-miterlimit="10"/>
<path d="M1348.48 -50.9597L1926.07 279.458" stroke="#ffffff" stroke-width="1.44048" stroke-miterlimit="10"/>
<path d="M1477.67 -124.871L2060.52 208.557" stroke="#ffffff" stroke-width="1.44048" stroke-miterlimit="10"/>
<path d="M2060.52 276.721L663.023 1076.2" stroke="#ffffff" stroke-width="1.44048" stroke-miterlimit="10"/>
<path d="M1926.07 205.82L528.57 1005.29" stroke="#ffffff" stroke-width="1.44048" stroke-miterlimit="10"/>
<path d="M1839.92 108.746L442.428 908.227" stroke="#ffffff" stroke-width="1.44048" stroke-miterlimit="10"/>
<path d="M1705.47 37.8459L307.975 837.313" stroke="#ffffff" stroke-width="1.44048" stroke-miterlimit="10"/>
<path d="M1606.87 -50.9597L236.887 732.762" stroke="#ffffff" stroke-width="1.44048" stroke-miterlimit="10"/>
<path d="M1477.67 -124.871L102.446 661.862" stroke="#ffffff" stroke-width="1.44048" stroke-miterlimit="10"/>
<path d="M720.931 161.626L-85.3633 622.897" stroke="#ffffff" stroke-width="1.44048" stroke-miterlimit="10"/>
<path d="M577.646 95.7821L-219.818 551.982" stroke="#ffffff" stroke-width="1.44048" stroke-miterlimit="10"/>
<path d="M450.179 22.3464L-305.958 454.923" stroke="#ffffff" stroke-width="1.44048" stroke-miterlimit="10"/>
<path d="M320.982 -51.5647L-440.413 384.008" stroke="#ffffff" stroke-width="1.44048" stroke-miterlimit="10"/>
<path d="M195.617 -125.058L-511.5 279.458" stroke="#ffffff" stroke-width="1.44048" stroke-miterlimit="10"/>
<path d="M64.8646 -198.076L-645.94 208.557" stroke="#ffffff" stroke-width="1.44048" stroke-miterlimit="10"/>
</g>
</g>
<path d="M134.497 294.323C139.752 291.512 145.654 290.131 151.61 290.319C154.889 290.33 158.152 290.766 161.319 291.615C164.376 292.473 167.643 292.16 170.481 290.737C172.8 289.383 173.563 287.351 172.324 285.536C171.269 284.125 170.688 282.415 170.668 280.653C170.668 277.211 172.987 273.998 177.136 271.607C181.892 269.071 187.234 267.833 192.621 268.02C194.885 268.039 197.143 268.276 199.362 268.726C203.24 269.629 207.31 269.166 210.886 267.415L212.024 266.753C214.804 265.154 216.101 262.748 214.905 260.53C214.294 259.465 213.976 258.257 213.983 257.029C213.983 253.947 216.043 251.08 219.745 248.948C223.988 246.665 228.758 245.542 233.574 245.693C234.913 245.706 236.251 245.802 237.578 245.981C242.781 246.703 248.079 245.749 252.703 243.258C256.65 240.982 258.062 237.77 257.414 234.615C257.324 234.214 257.285 233.802 257.298 233.391C257.298 230.683 259.113 228.148 262.383 226.261C266.128 224.25 270.335 223.256 274.584 223.38C275.304 223.38 276.025 223.38 276.673 223.481C282.333 223.947 288.005 222.734 292.979 219.995L294.535 219.101C298.741 216.667 300.642 213.34 300.628 209.753C300.628 207.362 302.227 205.172 305.05 203.53C308.363 201.773 312.078 200.914 315.825 201.038C319.514 200.994 323.149 201.918 326.369 203.717C329.164 205.403 330.691 207.621 330.691 209.983C330.691 212.346 329.121 214.521 326.369 216.149C323.12 217.879 319.476 218.733 315.796 218.626C309.775 218.525 303.956 219.577 299.735 222.011L298.15 222.933C293.829 225.425 291.222 228.911 291.913 232.469C292.004 232.871 292.052 233.282 292.057 233.694C292.057 236.387 290.242 238.923 286.972 240.81C283.227 242.819 279.02 243.812 274.771 243.69C274.066 243.69 273.331 243.69 272.683 243.59C267.295 243.143 261.85 243.907 257.99 246.125C253.899 248.502 251.781 251.887 252.919 255.041C253.189 255.8 253.326 256.599 253.323 257.404C253.323 260.487 251.263 263.353 247.561 265.499C243.309 267.77 238.536 268.888 233.718 268.74C231.74 268.713 229.768 268.51 227.826 268.135C224.203 267.408 220.44 267.963 217.181 269.706L216.014 270.368C212.989 272.126 212.255 274.69 213.565 277.138C214.276 278.342 214.645 279.717 214.631 281.114C214.631 284.557 212.327 287.784 208.178 290.175C203.421 292.712 198.082 293.959 192.693 293.79C189.924 293.77 187.167 293.417 184.482 292.739C181.478 291.955 178.291 292.315 175.537 293.747C173.088 295.188 172.411 297.161 173.765 298.976C175.117 300.633 175.863 302.701 175.882 304.839C175.882 308.642 173.318 312.2 168.68 314.836C163.235 317.99 155.716 319.402 147.836 318.639C137.566 317.63 129.24 312.618 127.67 306.553C126.474 301.915 129.038 297.478 134.497 294.323Z" fill="url(#paint0_linear_108_916)"/>
<path d="M1092.33 388.099C1097.61 385.274 1103.54 383.893 1109.53 384.094C1112.81 384.106 1116.07 384.541 1119.24 385.391C1122.3 386.251 1125.57 385.933 1128.4 384.498C1130.72 383.158 1131.5 381.112 1130.24 379.312C1129.19 377.901 1128.61 376.191 1128.59 374.429C1128.59 370.986 1130.91 367.774 1135.05 365.382C1139.81 362.842 1145.14 361.59 1150.53 361.752C1152.79 361.776 1155.05 362.017 1157.27 362.473C1161.14 363.376 1165.21 362.913 1168.79 361.162L1169.93 360.499C1172.71 358.886 1174 356.495 1172.81 354.276C1172.2 353.209 1171.89 352.003 1171.89 350.776C1171.89 347.693 1173.95 344.827 1177.65 342.68C1181.9 340.41 1186.66 339.292 1191.48 339.439C1192.82 339.453 1194.15 339.549 1195.48 339.728C1200.69 340.449 1205.98 339.496 1210.61 337.005C1214.55 334.715 1215.97 331.517 1215.33 328.362C1215.24 327.961 1215.2 327.55 1215.2 327.138C1215.2 324.43 1217.03 321.894 1220.3 320.007C1224.04 317.992 1228.24 316.998 1232.49 317.126C1233.21 317.126 1233.93 317.126 1234.58 317.227C1240.24 317.694 1245.91 316.481 1250.88 313.741L1252.44 312.848C1256.66 310.414 1258.56 307 1258.55 303.499C1258.55 301.108 1260.13 298.919 1262.95 297.277C1266.23 295.556 1269.89 294.707 1273.59 294.813C1277.27 294.768 1280.91 295.692 1284.13 297.493C1286.92 299.178 1288.45 301.396 1288.45 303.759C1288.45 306.121 1286.87 308.296 1284.04 309.924C1280.8 311.656 1277.16 312.506 1273.48 312.387C1267.45 312.301 1261.63 313.352 1257.41 315.787L1255.82 316.694C1251.5 319.186 1248.9 322.687 1249.6 326.245C1249.68 326.643 1249.73 327.048 1249.75 327.455C1249.75 330.163 1247.92 332.698 1244.65 334.657C1240.9 336.668 1236.69 337.661 1232.45 337.538C1231.74 337.538 1231 337.538 1230.37 337.437C1224.97 336.991 1219.52 337.754 1215.66 339.972C1211.57 342.335 1209.46 345.734 1210.59 348.889C1210.88 349.644 1211.01 350.445 1211 351.251C1211 354.334 1208.94 357.201 1205.23 359.347C1200.98 361.611 1196.21 362.728 1191.39 362.588C1189.41 362.559 1187.44 362.357 1185.5 361.983C1181.88 361.259 1178.12 361.808 1174.85 363.539L1173.7 364.216C1170.66 365.973 1169.93 368.537 1171.24 370.986C1171.95 372.189 1172.32 373.564 1172.31 374.962C1172.31 378.404 1170 381.617 1165.85 384.022C1161.09 386.541 1155.75 387.768 1150.37 387.58C1147.6 387.56 1144.84 387.207 1142.16 386.529C1139.15 385.745 1135.96 386.105 1133.21 387.537C1130.76 388.977 1130.08 390.951 1131.44 392.766C1132.79 394.423 1133.54 396.491 1133.56 398.629C1133.56 402.417 1130.99 405.99 1126.35 408.626C1120.91 411.766 1113.32 413.192 1105.51 412.429C1095.24 411.42 1086.91 406.407 1085.34 400.343C1084.31 395.69 1086.87 391.239 1092.33 388.099Z" fill="url(#paint1_linear_108_916)"/>
<path d="M1223.49 191.416C1225.54 191.42 1227.56 191.956 1229.35 192.971L1270.14 216.321C1270.91 216.761 1271.55 217.397 1272 218.163C1272.44 218.93 1272.68 219.8 1272.68 220.686C1272.68 221.572 1272.44 222.443 1272 223.209C1271.55 223.976 1270.91 224.611 1270.14 225.051L1229.33 248.43C1227.55 249.453 1225.53 249.992 1223.47 249.992C1221.41 249.992 1219.39 249.453 1217.61 248.43L1176.77 225.065C1176 224.623 1175.36 223.987 1174.92 223.219C1174.47 222.451 1174.24 221.58 1174.24 220.693C1174.24 219.806 1174.47 218.935 1174.92 218.168C1175.36 217.4 1176 216.763 1176.77 216.321L1217.57 192.971C1219.35 191.958 1221.37 191.422 1223.43 191.416M1223.43 189.975C1221.12 189.978 1218.86 190.584 1216.86 191.732L1176.01 215.083C1175.02 215.653 1174.2 216.473 1173.63 217.46C1173.06 218.448 1172.76 219.568 1172.76 220.708C1172.76 221.848 1173.06 222.968 1173.63 223.955C1174.2 224.942 1175.02 225.762 1176.01 226.333L1216.85 249.697C1218.85 250.845 1221.12 251.448 1223.43 251.448C1225.74 251.448 1228.01 250.845 1230.01 249.697L1270.86 226.246C1271.85 225.681 1272.68 224.864 1273.25 223.877C1273.82 222.89 1274.13 221.769 1274.13 220.628C1274.13 219.487 1273.82 218.367 1273.25 217.38C1272.68 216.394 1271.85 215.576 1270.86 215.011L1230.07 191.675C1228.07 190.526 1225.8 189.92 1223.49 189.917L1223.43 189.975Z" fill="rgba(255,255,255,0.2)"/>
<path d="M-19.9072 291.601L193.802 169.909L140.001 139.141" stroke="rgba(255,255,255,0.2)" stroke-width="1.44048" stroke-linecap="round" stroke-linejoin="round"/>
<path d="M1578.95 226.102L1479.2 169.045L1333.48 250.648" stroke="rgba(255,255,255,0.2)" stroke-width="1.44048" stroke-linecap="round" stroke-linejoin="round"/>
</g>
</g>
<defs>
<linearGradient id="paint0_linear_108_916" x1="127.353" y1="259.939" x2="330.619" y2="259.939" gradientUnits="userSpaceOnUse">
<stop stop-color="#002B31" stop-opacity="0"/>
<stop offset="0.1" stop-color="#ffffff" stop-opacity="0.03"/>
<stop offset="0.24" stop-color="#ffffff" stop-opacity="0.12"/>
<stop offset="0.41" stop-color="#ffffff" stop-opacity="0.27"/>
<stop offset="0.6" stop-color="#ffffff" stop-opacity="0.48"/>
<stop offset="0.81" stop-color="#ffffff" stop-opacity="0.74"/>
<stop offset="1" stop-color="#ffffff"/>
</linearGradient>
<linearGradient id="paint1_linear_108_916" x1="1085.2" y1="353.7" x2="1288.47" y2="353.7" gradientUnits="userSpaceOnUse">
<stop stop-color="#3FE0D0"/>
<stop offset="0.19" stop-color="#ffffff" stop-opacity="0.74"/>
<stop offset="0.4" stop-color="#ffffff" stop-opacity="0.48"/>
<stop offset="0.59" stop-color="#ffffff" stop-opacity="0.27"/>
<stop offset="0.76" stop-color="#ffffff" stop-opacity="0.12"/>
<stop offset="0.9" stop-color="#ffffff" stop-opacity="0.03"/>
<stop offset="1" stop-color="#ffffff" stop-opacity="0"/>
</linearGradient>
<clipPath id="clip0_108_916">
<rect width="1920" height="372" fill="white"/>
</clipPath>
<clipPath id="clip1_108_916">
<rect width="1927" height="479" fill="white" transform="translate(-1 -107)"/>
</clipPath>
</defs>
</svg>
