<svg width="246" height="50" viewBox="0 0 246 50" fill="none" xmlns="http://www.w3.org/2000/svg">
<path d="M58.8633 14.9241H63.0785V35.0877H58.8633V14.9241Z" fill="black"/>
<path d="M66.084 20.1111H70.168V22.5674H70.2515C71.0206 20.8504 72.5588 19.801 74.8184 19.801C78.1154 19.801 79.9875 21.9116 79.9875 25.4173V35.0877H75.9095V26.2579C75.9095 24.3024 74.9854 23.1815 73.155 23.1815C71.3246 23.1815 70.174 24.523 70.174 26.4785V35.0877H66.0899L66.084 20.1111Z" fill="black"/>
<path d="M82.2949 25C82.2949 18.5013 86.0153 14.5902 91.8939 14.5902C96.7887 14.5902 100.294 17.6726 100.688 21.9534V22.0786H96.58L96.5204 21.8401C96.3346 20.7645 95.7587 19.7951 94.9029 19.1175C94.0471 18.4399 92.9715 18.1016 91.8819 18.1674C88.6564 18.1674 86.5876 20.7609 86.5876 24.9821C86.5876 29.2271 88.6564 31.8563 91.8819 31.8563C92.9897 31.9051 94.077 31.5471 94.9391 30.8498C95.8011 30.1525 96.3784 29.1639 96.5622 28.0704L96.592 27.9273H100.7V28.0823C100.306 32.3691 96.7708 35.4336 91.8939 35.4336C85.9974 35.4395 82.2949 31.4986 82.2949 25Z" fill="black"/>
<path d="M102.967 20.1111H107.045V22.7224H107.128C107.575 20.8802 108.792 19.801 110.539 19.801C110.941 19.8007 111.342 19.8529 111.731 19.956V23.5333C111.253 23.3739 110.75 23.2992 110.246 23.3127C108.237 23.3127 107.063 24.5051 107.063 26.6932V35.0758H102.985L102.967 20.1111Z" fill="black"/>
<path d="M112.338 27.6292C112.338 22.8596 115.146 19.819 119.534 19.819C123.922 19.819 126.689 22.8 126.689 27.3252V28.5832H116.374C116.416 30.968 117.716 32.3691 119.796 32.3691C121.478 32.3691 122.497 31.445 122.777 30.5805L122.807 30.497H126.551L126.51 30.652C126.045 32.858 123.982 35.4217 119.701 35.4217C115.122 35.3978 112.338 32.4168 112.338 27.6292ZM116.404 25.9897H122.766C122.509 23.9208 121.299 22.8477 119.606 22.8477C117.912 22.8477 116.672 23.9924 116.404 25.9897Z" fill="black"/>
<path d="M128.199 30.8011C128.199 28.0764 130.31 26.4846 134.03 26.2461L137.733 26.0195V25.1013C137.733 23.7718 136.862 22.949 135.27 22.949C133.678 22.949 132.826 23.6585 132.629 24.6244V24.7496H128.897V24.5826C129.123 21.8162 131.496 19.813 135.455 19.813C139.414 19.813 141.828 21.8103 141.828 24.8271V35.0997H137.75V32.8639H137.667C137.228 33.6417 136.584 34.2839 135.805 34.7202C135.026 35.1566 134.142 35.3704 133.249 35.3382C130.226 35.3203 128.199 33.4422 128.199 30.8011ZM134.561 32.3512C136.391 32.3512 137.733 31.1588 137.733 29.6086V28.5355L134.644 28.7322C133.064 28.8276 132.259 29.5013 132.259 30.5626C132.241 31.6954 133.148 32.3393 134.561 32.3393V32.3512Z" fill="black"/>
<path d="M145.497 30.8965V23.1816H143.416V20.1112H145.497V16.4504H149.617V20.1112H152.359V23.1816H149.617V30.4494C149.617 31.8445 150.249 32.3214 151.477 32.3214C151.772 32.3171 152.067 32.2932 152.359 32.2499V35.2309C151.706 35.3343 151.047 35.3861 150.386 35.3859C147.041 35.3979 145.497 34.128 145.497 30.8965Z" fill="black"/>
<path d="M154.556 16.057C154.544 15.6228 154.662 15.1949 154.894 14.8282C155.127 14.4615 155.464 14.1725 155.862 13.9984C156.26 13.8242 156.7 13.7727 157.128 13.8506C157.555 13.9284 157.949 14.132 158.26 14.4352C158.571 14.7385 158.785 15.1277 158.873 15.5529C158.962 15.9781 158.921 16.4201 158.757 16.8222C158.593 17.2243 158.312 17.5683 157.952 17.8101C157.591 18.0519 157.166 18.1805 156.732 18.1795C156.449 18.1842 156.168 18.1329 155.906 18.0286C155.643 17.9243 155.404 17.769 155.201 17.5716C154.999 17.3743 154.838 17.1389 154.727 16.8789C154.616 16.6189 154.558 16.3396 154.556 16.057V16.057ZM154.693 20.1112H158.771V35.0878H154.693V20.1112Z" fill="black"/>
<path d="M160.268 20.1111H164.632L167.762 31.4807H167.845L170.934 20.1111H175.191L170.051 35.0878H165.455L160.268 20.1111Z" fill="black"/>
<path d="M175.555 27.6292C175.555 22.8596 178.363 19.819 182.751 19.819C187.139 19.819 189.905 22.8 189.905 27.3252V28.5832H179.591C179.633 30.968 180.932 32.3691 183.019 32.3691C184.695 32.3691 185.714 31.445 186 30.5805L186.03 30.497H189.774L189.732 30.652C189.273 32.858 187.205 35.4217 182.924 35.4217C178.339 35.3978 175.555 32.4168 175.555 27.6292ZM179.621 25.9897H185.982C185.732 23.9208 184.516 22.8477 182.822 22.8477C181.129 22.8477 179.889 23.9924 179.621 25.9897Z" fill="black"/>
<path d="M242.203 17.142C244.139 17.142 245.709 15.5724 245.709 13.6363C245.709 11.7002 244.139 10.1306 242.203 10.1306C240.267 10.1306 238.697 11.7002 238.697 13.6363C238.697 15.5724 240.267 17.142 242.203 17.142Z" fill="#FEE500"/>
<path d="M240.703 13.0818H240.053V12.7003H241.788V13.0818H241.15V14.9062H240.691L240.703 13.0818Z" fill="black"/>
<path d="M242.055 12.7003H242.591L243.217 14.2861L243.843 12.7003H244.38V14.9062H243.969V13.4097L243.372 14.9062H243.08L242.484 13.4097V14.9062H242.073L242.055 12.7003Z" fill="black"/>
<path d="M191.262 14.9241H193.259L197.719 32.214H197.76L202.649 14.9241H204.563L209.452 32.214H209.494L213.953 14.9241H215.951L210.406 35.0877H208.617L203.627 18.0661H203.585L198.595 35.0877H196.806L191.262 14.9241Z" fill="#212539"/>
<path d="M215.898 27.8618C215.898 23.3068 218.468 20.3019 222.355 20.3019C226.243 20.3019 228.681 23.2114 228.681 27.5577V28.2791H217.771C217.824 31.749 219.684 33.7165 222.54 33.7165C224.681 33.7165 226.159 32.6433 226.636 31.0634L226.666 30.9382H228.496L228.466 31.0753C227.966 33.5615 225.646 35.368 222.504 35.368C218.426 35.3561 215.898 32.4645 215.898 27.8618ZM217.794 26.8005H226.827C226.612 23.6287 224.824 21.9414 222.337 21.9414C219.851 21.9414 218.021 23.7122 217.794 26.8005Z" fill="#212539"/>
<path d="M233.181 32.0173H233.139V35.0877H231.279V14.9241H233.139V23.587H233.181C233.578 22.5979 234.266 21.7528 235.154 21.164C236.042 20.5751 237.088 20.2702 238.154 20.2899C241.79 20.2899 244.289 23.271 244.289 27.8081C244.289 32.3512 241.802 35.3441 238.142 35.3441C237.074 35.3641 236.025 35.0558 235.138 34.4609C234.251 33.8659 233.568 33.013 233.181 32.0173V32.0173ZM242.387 27.8439C242.387 24.2666 240.598 21.9772 237.79 21.9772C235.083 21.9772 233.128 24.362 233.128 27.8439C233.128 31.3555 235.053 33.7284 237.79 33.7284C240.526 33.7284 242.387 31.4151 242.387 27.82V27.8439Z" fill="#212539"/>
<path d="M156.699 19C158.632 19 160.199 17.433 160.199 15.5C160.199 13.567 158.632 12 156.699 12C154.766 12 153.199 13.567 153.199 15.5C153.199 17.433 154.766 19 156.699 19Z" fill="#308FCE"/>
<path d="M155.5 18C157.433 18 159 16.433 159 14.5C159 12.567 157.433 11 155.5 11C153.567 11 152 12.567 152 14.5C152 16.433 153.567 18 155.5 18Z" stroke="#FCE13F" stroke-width="0.75" stroke-miterlimit="10"/>
<path fill-rule="evenodd" clip-rule="evenodd" d="M0 47C0 47 0.0894274 26.3832 0.0894274 25H0.0655831C0.0655833 20.6486 1.35601 16.3948 3.77367 12.7768C6.19132 9.15883 9.62761 6.33905 13.6479 4.6741C17.6683 3.00915 22.092 2.57381 26.3598 3.42317C30.6275 4.27253 34.5476 6.36843 37.6241 9.44578C40.7006 12.5231 42.7954 16.4437 43.6436 20.7117C43.774 21.3677 43.874 22.0273 43.9439 22.6887L21.1726 22.788L21.1924 27.3191L43.9534 27.2198C43.7382 29.3413 43.2146 31.4318 42.3893 33.4232C40.7232 37.443 37.9025 40.8786 34.2838 43.2952C30.6652 45.7119 26.4111 47.0012 22.0596 47H0ZM44.0506 25.8144C44.073 25.2082 44.0704 24.6008 44.0426 23.9936L44.0506 25.8144Z" fill="#0693E3"/>
</svg>