<svg width="72" height="90" viewBox="0 0 72 90" fill="none" xmlns="http://www.w3.org/2000/svg">
<path d="M6.44487 13.0685C8.16169 13.0685 9.7804 12.3874 10.9958 11.1525C11.6607 10.4769 12.1458 9.68509 12.4564 8.84339C12.7617 8.0183 13.541 7.47009 14.4076 7.47009H14.4512C15.3396 7.47009 16.1462 7.99062 16.4787 8.81571C16.7621 9.51344 17.1763 10.1558 17.7214 10.704C18.8223 11.8226 20.283 12.4372 21.8363 12.4372C23.3896 12.4372 24.8502 11.8226 25.9512 10.704C26.3872 10.261 26.7469 9.75154 27.014 9.20887C27.5263 8.17889 28.5019 7.47009 29.6355 7.47009H30.0715C31.118 7.47009 32.1317 8.00724 32.6059 8.95415C32.8457 9.42484 33.1563 9.86783 33.5433 10.261C34.5243 11.2577 35.8324 11.8115 37.2222 11.8115C38.612 11.8115 39.92 11.2633 40.9011 10.261C41.1627 9.99519 41.3862 9.71278 41.5769 9.41375C42.389 8.14567 43.8496 7.47009 45.3376 7.47009H45.3757C46.8255 7.47009 48.1117 8.24535 49.0001 9.40269C49.1146 9.54666 49.2345 9.69062 49.3653 9.82352C50.2318 10.704 51.3818 11.1858 52.6081 11.1858C53.8344 11.1858 54.9844 10.6985 55.851 9.818C55.9818 9.6851 56.1017 9.54666 56.2162 9.40269C57.2136 8.11245 58.8268 7.47009 60.4455 7.47009H61.0342C62.6202 7.47009 64.0645 8.21766 65.1763 9.36392C65.1818 9.36946 65.1872 9.37499 65.1927 9.38053C65.9448 10.1447 66.9422 10.56 67.9995 10.56C69.0623 10.56 70.0597 10.1392 70.8064 9.38053C71.5585 8.61635 71.9673 7.603 71.9673 6.52872C71.9673 5.44891 71.5531 4.43553 70.8064 3.67689C70.0543 2.91272 69.0569 2.49742 67.9995 2.49742C66.9367 2.49742 65.9393 2.91825 65.1927 3.67689C65.1872 3.68243 65.1818 3.68798 65.1763 3.69352C64.0645 4.83978 62.6147 5.58734 61.0342 5.58734H60.4455C58.8268 5.58734 57.2136 4.94499 56.2162 3.65475C56.1017 3.51078 55.9818 3.37234 55.851 3.2339C54.9844 2.35344 53.8344 1.87168 52.6081 1.87168C51.3818 1.87168 50.2318 2.35897 49.3653 3.2339C49.2345 3.3668 49.1091 3.51078 49.0001 3.65475C48.1063 4.81209 46.82 5.58734 45.3757 5.58734H45.3376C43.8496 5.58734 42.389 4.90622 41.5769 3.64367C41.3862 3.34464 41.1572 3.05669 40.9011 2.79643C39.92 1.79968 38.612 1.24594 37.2222 1.24594C35.8324 1.24594 34.5243 1.79414 33.5433 2.79643C33.1563 3.18959 32.8402 3.6326 32.6059 4.10329C32.1263 5.0502 31.118 5.58734 30.0715 5.58734H29.6355C28.4964 5.58734 27.5208 4.87855 27.0085 3.84857C26.736 3.30036 26.3817 2.79644 25.9457 2.35344C24.8448 1.23486 23.3841 0.620198 21.8308 0.620198C20.2775 0.620198 18.8168 1.23486 17.7159 2.35344C17.1709 2.90719 16.7512 3.55508 16.4678 4.25834C16.1408 5.07235 15.3396 5.59288 14.4676 5.59288H14.4621C13.5574 5.59288 12.7508 5.02251 12.4237 4.1642C12.1131 3.34465 11.6335 2.57493 10.9849 1.91597C9.7695 0.681108 8.15079 0 6.43398 0C4.3847 0 2.48802 0.963523 1.23447 2.68015C-0.411491 4.93945 -0.411491 8.13458 1.23447 10.3939C2.49892 12.0994 4.40104 13.0685 6.44487 13.0685Z" fill="#3FE0D0"/>
<path d="M6.44415 28.6998C8.16096 28.6998 9.77968 28.0187 10.9951 26.7838C11.66 26.1082 12.1451 25.3164 12.4557 24.4747C12.7609 23.6496 13.5403 23.1014 14.4069 23.1014H14.4505C15.3389 23.1014 16.1455 23.6219 16.478 24.447C16.7614 25.1447 17.1756 25.7871 17.7206 26.3353C18.8216 27.4538 20.2822 28.0685 21.8355 28.0685C23.3888 28.0685 24.8495 27.4538 25.9504 26.3353C26.3865 25.8923 26.7462 25.3828 27.0132 24.8401C27.5256 23.8102 28.5011 23.1014 29.6348 23.1014H30.0381C31.1009 23.1014 32.1255 23.644 32.616 24.602C32.8559 25.0727 33.1665 25.5102 33.548 25.8923C34.5291 26.889 35.8371 27.4428 37.2269 27.4428C38.6167 27.4428 39.9248 26.8945 40.9058 25.8923C41.1565 25.6375 41.38 25.3551 41.5762 25.0561C42.3992 23.7769 43.8762 23.0958 45.375 23.0958H45.3859C46.8356 23.0958 48.1219 23.8711 49.0103 25.0284C49.1247 25.1724 49.2446 25.3164 49.3754 25.4493C50.242 26.3297 51.392 26.8115 52.6183 26.8115C53.8446 26.8115 54.9946 26.3242 55.8612 25.4493C55.992 25.3164 56.1119 25.1779 56.2264 25.0284C57.2237 23.7382 58.837 23.0958 60.4557 23.0958H61.0443C62.6303 23.0958 64.0747 23.8434 65.1865 24.9896C65.1919 24.9952 65.1974 25.0007 65.2028 25.0063C65.955 25.7704 66.9524 26.1857 68.0097 26.1857C69.3559 26.1857 70.5985 25.5102 71.367 24.3141C72.1955 23.0238 72.1954 21.2851 71.3725 19.9893C70.604 18.7932 69.3614 18.1121 68.0097 18.1121C66.9469 18.1121 65.9495 18.5329 65.2028 19.2916C65.1974 19.2971 65.1919 19.3026 65.1865 19.3082C64.0747 20.4544 62.6249 21.202 61.0443 21.202H60.4612C58.8424 21.202 57.2292 20.5596 56.2318 19.2694C56.1173 19.1254 55.9974 18.987 55.8666 18.8486C55.0001 17.9681 53.8501 17.4863 52.6238 17.4863C51.3975 17.4863 50.2475 17.9736 49.3809 18.8486C49.2501 18.9815 49.1247 19.1254 49.0157 19.2694C48.1219 20.4267 46.8356 21.202 45.3913 21.202H45.3859C43.8816 21.202 42.4046 20.5209 41.5816 19.2417C41.3909 18.9427 41.1674 18.6658 40.9113 18.4056C39.9302 17.4088 38.6222 16.8551 37.2324 16.8551C35.8426 16.8551 34.5345 17.4033 33.5535 18.4056C33.172 18.7932 32.8613 19.2251 32.6215 19.6958C32.131 20.6538 31.1063 21.1965 30.0435 21.1965H29.6457C28.5066 21.1965 27.531 20.4877 27.0241 19.4577C26.7516 18.9095 26.3974 18.4056 25.9613 17.9626C24.8604 16.844 23.3997 16.2293 21.8464 16.2293C20.2931 16.2293 18.8325 16.844 17.7315 17.9626C17.1865 18.5163 16.7668 19.1642 16.4834 19.8675C16.1564 20.6815 15.3552 21.202 14.4832 21.202H14.4778C13.573 21.202 12.7664 20.6316 12.4394 19.7733C12.1287 18.9538 11.6491 18.1841 11.0005 17.5251C9.78512 16.2902 8.16642 15.6091 6.4496 15.6091C4.40032 15.6091 2.50364 16.5727 1.2501 18.2893C-0.395866 20.5486 -0.395866 23.7437 1.2501 26.003C2.49819 27.7362 4.40032 28.6998 6.44415 28.6998Z" fill="#3FE0D0"/>
<path d="M6.44687 44.3377C8.16369 44.3377 9.7824 43.6566 10.9978 42.4218C11.6409 41.7683 12.126 40.9986 12.4421 40.1625C12.7637 39.3041 13.5703 38.7393 14.475 38.7393C15.3416 38.7393 16.1428 39.2543 16.4753 40.0683C16.7587 40.7716 17.1783 41.4195 17.7234 41.9732C18.8243 43.0918 20.285 43.7064 21.8383 43.7064C23.3916 43.7064 24.8522 43.0918 25.9532 41.9732C26.3892 41.5302 26.7489 41.0208 27.016 40.4781C27.5283 39.4481 28.5039 38.7393 29.6375 38.7393H30.0408C31.1036 38.7393 32.1283 39.282 32.6188 40.24C32.8586 40.7107 33.1693 41.1481 33.5508 41.5302C34.5318 42.527 35.8399 43.0807 37.2297 43.0807C38.6195 43.0807 39.9275 42.5325 40.9086 41.5302C41.1593 41.2755 41.3827 40.9931 41.5789 40.694C42.4019 39.4204 43.8789 38.7338 45.3777 38.7338H45.3886C46.8384 38.7338 48.1246 39.509 49.013 40.6664C49.1275 40.8103 49.2474 40.9543 49.3782 41.0872C50.2448 41.9677 51.3948 42.4495 52.621 42.4495C53.8473 42.4495 54.9973 41.9621 55.8639 41.0872C55.9947 40.9543 56.1146 40.8159 56.2291 40.6664C57.2265 39.3761 58.8397 38.7338 60.4585 38.7338H61.0471C62.6331 38.7338 64.0774 39.4814 65.1892 40.6221C65.1947 40.6276 65.2001 40.6331 65.2056 40.6387C65.9577 41.4029 66.9551 41.8182 68.0124 41.8182C69.3586 41.8182 70.6013 41.1426 71.3698 39.9465C72.1982 38.6563 72.1982 36.9175 71.3752 35.6217C70.6067 34.4256 69.3641 33.7445 68.0124 33.7445C66.9497 33.7445 65.9523 34.1653 65.2056 34.924C65.2001 34.9295 65.1947 34.9351 65.1892 34.9406C64.0774 36.0869 62.6276 36.8344 61.0471 36.8344H60.4639C58.8452 36.8344 57.2319 36.1921 56.2345 34.9018C56.1201 34.7579 56.0002 34.6194 55.8694 34.481C55.0028 33.6005 53.8528 33.1187 52.6265 33.1187C51.4002 33.1187 50.2502 33.6061 49.3836 34.481C49.2528 34.6139 49.1275 34.7579 49.0185 34.9018C48.1246 36.0592 46.8384 36.8344 45.3941 36.8344H45.3886C43.8844 36.8344 42.4128 36.1533 41.5844 34.8742C41.3936 34.5751 41.1702 34.2982 40.9194 34.038C39.9384 33.0412 38.6304 32.4875 37.2406 32.4875C35.8508 32.4875 34.5427 33.0357 33.5617 34.038C33.1801 34.4256 32.8695 34.8575 32.6297 35.3282C32.1392 36.2862 31.1145 36.8289 30.0517 36.8289H29.6539C28.5148 36.8289 27.5392 36.1201 27.0269 35.0846C26.7544 34.5364 26.4001 34.0324 25.9641 33.5894C24.8631 32.4709 23.4025 31.8562 21.8492 31.8562C20.2959 31.8562 18.8352 32.4709 17.7343 33.5894C17.1892 34.1432 16.7696 34.7911 16.4862 35.4944C16.1591 36.3084 15.358 36.8289 14.4859 36.8289C13.5812 36.8289 12.7746 36.264 12.453 35.4057C12.1369 34.5696 11.6518 33.7999 11.0032 33.1465C9.78785 31.9116 8.16915 31.2305 6.45233 31.2305C4.73551 31.2305 3.1168 31.9116 1.9014 33.1465C0.686004 34.3813 0.015625 36.0259 0.015625 37.7703C0.015625 39.5146 0.686004 41.1592 1.9014 42.3941C3.11135 43.6566 4.73006 44.3377 6.44687 44.3377Z" fill="#3FE0D0"/>
<path d="M68.0277 49.4048C66.9649 49.4048 65.9675 49.8257 65.2208 50.5843C65.2154 50.5898 65.2099 50.5954 65.2045 50.6009C64.0926 51.7472 62.6429 52.4948 61.0623 52.4948H60.4791C58.8604 52.4948 57.2472 51.8524 56.2498 50.5621C56.1353 50.4182 56.0154 50.2798 55.8846 50.1413C55.018 49.2609 53.868 48.7791 52.6417 48.7791C51.4155 48.7791 50.2655 49.2664 49.3989 50.1413C49.2681 50.2742 49.1427 50.4182 49.0337 50.5621C48.1399 51.7195 46.8536 52.4948 45.4093 52.4948H45.3712C43.8833 52.4948 42.4226 51.8136 41.6105 50.5455C41.4198 50.2465 41.1909 49.9585 40.9347 49.6983C39.9537 48.7015 38.6456 48.1533 37.2558 48.1533C35.866 48.1533 34.558 48.7015 33.5769 49.7038C33.19 50.097 32.8738 50.54 32.6395 51.0107C32.1599 51.9576 31.1461 52.4948 30.1051 52.4948H29.6746C28.5355 52.4948 27.5599 51.7859 27.0476 50.7504C26.7751 50.2022 26.4208 49.6983 25.9848 49.2553C24.8838 48.1367 23.4232 47.5221 21.8699 47.5221C20.3166 47.5221 18.8559 48.1367 17.755 49.2553C17.2045 49.8146 16.7903 50.4625 16.5123 51.1547C16.1798 51.9742 15.3841 52.4948 14.5121 52.4948H14.5066C13.6019 52.4948 12.7953 51.9244 12.4683 51.0661C12.1576 50.2465 11.678 49.4768 11.0294 48.8178C9.81401 47.583 8.1953 46.9019 6.47849 46.9019C4.42921 46.9019 2.52708 47.8654 1.27353 49.5876C-0.372428 51.8469 -0.372428 55.042 1.27353 57.3013C2.52708 59.0179 4.4292 59.9814 6.47303 59.9814C8.18985 59.9814 9.80856 59.3003 11.024 58.0655C11.6889 57.3899 12.1739 56.6036 12.4846 55.7619C12.7898 54.9312 13.5692 54.3886 14.4412 54.3886H14.4848C15.3732 54.3886 16.1799 54.9146 16.5178 55.7453C16.7957 56.4319 17.2045 57.0687 17.755 57.628C18.8559 58.7466 20.3166 59.3612 21.8699 59.3612C23.4232 59.3612 24.8893 58.7466 25.9848 57.628C26.4208 57.185 26.7805 56.6811 27.0476 56.1329C27.5599 55.1029 28.5355 54.3941 29.6691 54.3941H30.1051C31.1516 54.3941 32.1653 54.9312 32.6395 55.8782C32.8793 56.3488 33.19 56.7918 33.5769 57.185C34.558 58.1817 35.866 58.7355 37.2558 58.7355C38.6456 58.7355 39.9537 58.1873 40.9347 57.185C41.1963 56.9192 41.4198 56.6368 41.6105 56.3377C42.4226 55.0697 43.8833 54.3941 45.3712 54.3941H45.4148C46.8645 54.3941 48.1508 55.1694 49.0392 56.3267C49.1536 56.4707 49.2735 56.6146 49.4043 56.7475C50.2709 57.628 51.4209 58.1098 52.6472 58.1098C53.8735 58.1098 55.0235 57.6225 55.8901 56.7475C56.0209 56.6146 56.1408 56.4762 56.2552 56.3267C57.2526 55.0365 58.8659 54.3941 60.4846 54.3941H61.0732C62.6592 54.3941 64.1035 55.1417 65.2154 56.2879C65.2208 56.2935 65.2263 56.299 65.2317 56.3045C65.9839 57.0687 66.9812 57.484 68.0386 57.484C69.1014 57.484 70.0988 57.0632 70.8454 56.3045C71.5976 55.5403 72.0063 54.527 72.0063 53.4527C72.0063 52.3729 71.5921 51.3595 70.8454 50.6009C70.0879 49.8257 69.0905 49.4048 68.0277 49.4048Z" fill="#3FE0D0"/>
<path d="M52.6318 64.417C51.4055 64.417 50.2555 64.9043 49.3889 65.7792C49.2581 65.9121 49.1327 66.0561 49.0237 66.2001C48.1299 67.3574 46.8436 68.1327 45.3993 68.1327H45.3612C43.8733 68.1327 42.4126 67.4516 41.6005 66.1835C41.4098 65.8844 41.1809 65.5965 40.9247 65.3362C39.9437 64.3395 38.6356 63.7913 37.2458 63.7913C35.856 63.7913 34.548 64.3395 33.5669 65.3362C33.18 65.7294 32.8638 66.1724 32.6295 66.6486C32.1499 67.5955 31.1416 68.1327 30.0951 68.1327H29.6591C28.52 68.1327 27.5444 67.4239 27.0376 66.3939C26.7651 65.8457 26.4108 65.3418 25.9748 64.8988C24.8738 63.7802 23.4132 63.1655 21.8599 63.1655C20.3066 63.1655 18.8459 63.7802 17.745 64.8988C16.644 66.0173 16.0391 67.5014 16.0391 69.0796C16.0391 70.6578 16.644 72.1418 17.745 73.2604C18.8459 74.379 20.3066 74.9936 21.8599 74.9936C23.4132 74.9936 24.8738 74.379 25.9748 73.2604C26.4108 72.8174 26.7705 72.3135 27.0376 71.7653C27.5499 70.7353 28.5255 70.0265 29.6591 70.0265H30.0951C31.1416 70.0265 32.1553 70.5636 32.6295 71.5105C32.8693 71.9812 33.18 72.4242 33.5669 72.8174C34.548 73.8141 35.856 74.3679 37.2458 74.3679C38.6356 74.3679 39.9437 73.8197 40.9247 72.8174C41.1863 72.5516 41.4098 72.2692 41.6005 71.9702C42.4126 70.7021 43.8733 70.0265 45.3612 70.0265H45.4048C46.8545 70.0265 48.1408 70.8017 49.0292 71.9591C49.1382 72.1031 49.2635 72.2415 49.3943 72.3744C50.2609 73.2549 51.4109 73.7422 52.6372 73.7422C54.1469 73.7422 55.5422 73.0057 56.4306 71.7099C57.4988 70.1428 57.4933 67.9887 56.4142 66.4271C55.5149 65.1424 54.1306 64.417 52.6318 64.417Z" fill="#3FE0D0"/>
<path d="M37.2425 79.429C35.8527 79.429 34.5446 79.9772 33.5636 80.9794C31.5361 83.0394 31.5361 86.3951 33.5636 88.4551C34.5446 89.4518 35.8527 90.0001 37.2425 90.0001C38.6323 90.0001 39.9403 89.4518 40.9214 88.4551C42.9488 86.3951 42.9488 83.0394 40.9214 80.9794C39.9403 79.9772 38.6323 79.429 37.2425 79.429Z" fill="#3FE0D0"/>
</svg>
