<svg width="100" height="100" viewBox="0 0 100 100" fill="none" xmlns="http://www.w3.org/2000/svg">
<rect width="100" height="100" fill="#7177F8"/>
<path d="M30.3614 28.7117C31.5242 28.7117 32.6206 28.2577 33.4437 27.4345C33.8941 26.9842 34.2226 26.4563 34.433 25.8952C34.6435 25.3341 35.1676 24.9797 35.7546 24.9797H35.7841C36.3858 24.9797 36.9321 25.3267 37.1573 25.8767C37.3493 26.3419 37.6298 26.7701 37.9989 27.1355C38.7446 27.8812 39.7339 28.2909 40.786 28.2909C41.838 28.2909 42.8273 27.8812 43.573 27.1355C43.8683 26.8402 44.1119 26.5006 44.2928 26.1388C44.6398 25.4522 45.3006 24.9797 46.0684 24.9797H46.3637C47.0725 24.9797 47.7591 25.3378 48.0802 25.969C48.2426 26.2828 48.453 26.5781 48.7151 26.8402C49.3796 27.5047 50.2655 27.8738 51.2068 27.8738C52.1482 27.8738 53.0341 27.5083 53.6985 26.8402C53.8757 26.663 54.0271 26.4747 54.1563 26.2754C54.7063 25.4301 55.6956 24.9797 56.7034 24.9797H56.7292C57.7111 24.9797 58.5823 25.4965 59.184 26.268C59.2615 26.364 59.3427 26.46 59.4313 26.5486C60.0183 27.1355 60.7971 27.4567 61.6277 27.4567C62.4583 27.4567 63.2372 27.1318 63.8241 26.5449C63.9127 26.4563 63.9939 26.364 64.0714 26.268C64.747 25.4079 65.8396 24.9797 66.936 24.9797H67.3346C68.4088 24.9797 69.3871 25.4781 70.1401 26.2422C70.1438 26.2459 70.1475 26.2496 70.1512 26.2533C70.6606 26.7627 71.3361 27.0395 72.0523 27.0395C72.7684 27.0395 73.4476 26.759 73.9534 26.2533C74.4628 25.7438 74.7396 25.0683 74.7396 24.3522C74.7396 23.636 74.4591 22.9568 73.9534 22.4511C73.4439 21.9417 72.7684 21.6648 72.0523 21.6648C71.3361 21.6648 70.6569 21.9454 70.1512 22.4511C70.1475 22.4548 70.1438 22.4585 70.1401 22.4622C69.3871 23.2263 68.4052 23.7246 67.3346 23.7246H66.936C65.8396 23.7246 64.747 23.2964 64.0714 22.4363C63.9939 22.3404 63.9127 22.2481 63.8241 22.1558C63.2372 21.5689 62.4583 21.2477 61.6277 21.2477C60.7971 21.2477 60.0183 21.5725 59.4313 22.1558C59.3427 22.2444 59.2578 22.3404 59.184 22.4363C58.5786 23.2078 57.7074 23.7246 56.7292 23.7246H56.7034C55.6956 23.7246 54.7063 23.2706 54.1563 22.429C54.0271 22.2296 53.872 22.0377 53.6985 21.8642C53.0341 21.1997 52.1482 20.8306 51.2068 20.8306C50.2655 20.8306 49.3796 21.196 48.7151 21.8642C48.453 22.1263 48.2389 22.4216 48.0802 22.7353C47.7554 23.3666 47.0725 23.7246 46.3637 23.7246H46.0684C45.2969 23.7246 44.6361 23.2521 44.2891 22.5655C44.1046 22.2001 43.8646 21.8642 43.5693 21.5689C42.8236 20.8232 41.8343 20.4134 40.7823 20.4134C39.7302 20.4134 38.7409 20.8232 37.9953 21.5689C37.6261 21.938 37.3419 22.3699 37.1499 22.8387C36.9284 23.3813 36.3858 23.7283 35.7952 23.7283C35.1824 23.7283 34.6361 23.3481 34.4146 22.7759C34.1931 22.2038 33.8793 21.7165 33.4401 21.2772C32.6169 20.454 31.5205 20 30.3577 20C28.9697 20 27.6851 20.6423 26.8361 21.7866C25.7213 23.2927 25.7213 25.4227 26.8361 26.9288C27.6851 28.0768 28.9734 28.7191 30.3614 28.7191V28.7117Z" fill="#3FE0D0"/>
<path d="M30.3618 39.1359C31.5246 39.1359 32.621 38.6819 33.4442 37.8587C33.8945 37.4084 34.2231 36.8805 34.4335 36.3194C34.6402 35.7694 35.1681 35.4039 35.755 35.4039H35.7845C36.3862 35.4039 36.9326 35.7509 37.1577 36.3009C37.3497 36.766 37.6302 37.1943 37.9994 37.5597C38.745 38.3054 39.7343 38.7151 40.7864 38.7151C41.8385 38.7151 42.8278 38.3054 43.5734 37.5597C43.8687 37.2644 44.1124 36.9248 44.2933 36.563C44.6402 35.8764 45.301 35.4039 46.0688 35.4039H46.342C47.0618 35.4039 47.7558 35.7657 48.088 36.4043C48.2505 36.7181 48.4609 37.0097 48.7193 37.2644C49.3837 37.9288 50.2697 38.298 51.211 38.298C52.1523 38.298 53.0382 37.9325 53.7027 37.2644C53.8725 37.0946 54.0238 36.9063 54.1567 36.707C54.7141 35.8543 55.7145 35.4002 56.7296 35.4002H56.737C57.7189 35.4002 58.5901 35.917 59.1918 36.6885C59.2693 36.7845 59.3505 36.8805 59.4391 36.9691C60.0261 37.556 60.805 37.8772 61.6355 37.8772C62.4661 37.8772 63.245 37.5523 63.8319 36.9691C63.9205 36.8805 64.0017 36.7882 64.0792 36.6885C64.7548 35.8284 65.8474 35.4002 66.9438 35.4002H67.3425C68.4167 35.4002 69.3949 35.8986 70.1479 36.6627C70.1479 36.6627 70.1553 36.6701 70.159 36.6738C70.6684 37.1832 71.344 37.46 72.0601 37.46C72.9719 37.46 73.8135 37.0097 74.334 36.2123C74.8951 35.3522 74.8951 34.1931 74.334 33.3293C73.8135 32.532 72.9719 32.0779 72.0564 32.0779C71.3366 32.0779 70.661 32.3585 70.1553 32.8642C70.1553 32.8642 70.1479 32.8716 70.1443 32.8753C69.3912 33.6394 68.4093 34.1378 67.3388 34.1378H66.9438C65.8474 34.1378 64.7548 33.7096 64.0792 32.8495C64.0017 32.7535 63.9205 32.6612 63.8319 32.5689C63.245 31.982 62.4661 31.6608 61.6355 31.6608C60.805 31.6608 60.0261 31.9857 59.4391 32.5689C59.3505 32.6575 59.2656 32.7535 59.1918 32.8495C58.5864 33.621 57.7152 34.1378 56.737 34.1378H56.7333C55.7145 34.1378 54.7141 33.6837 54.1567 32.831C54.0275 32.6317 53.8762 32.4471 53.7027 32.2736C53.0382 31.6091 52.1523 31.24 51.211 31.24C50.2697 31.24 49.3837 31.6054 48.7193 32.2736C48.4609 32.532 48.2505 32.8199 48.088 33.1337C47.7558 33.7723 47.0618 34.1341 46.342 34.1341H46.0725C45.301 34.1341 44.6402 33.6616 44.2969 32.975C44.1124 32.6095 43.8724 32.2736 43.5771 31.9783C42.8314 31.2326 41.8421 30.8229 40.7901 30.8229C39.738 30.8229 38.7487 31.2326 38.0031 31.9783C37.6339 32.3474 37.3497 32.7793 37.1577 33.2481C36.9363 33.7908 36.3936 34.1378 35.803 34.1378C35.1902 34.1378 34.6439 33.7575 34.4224 33.1854C34.2009 32.6132 33.8871 32.1259 33.4479 31.6867C32.6247 30.8635 31.5283 30.4094 30.3655 30.4094C28.9776 30.4094 27.6929 31.0517 26.8439 32.1961C25.7291 33.7022 25.7291 35.8321 26.8439 37.3382C27.6929 38.4862 28.9812 39.1286 30.3692 39.1286L30.3618 39.1359Z" fill="#3FE0D0"/>
<path d="M30.3625 49.564C31.5253 49.564 32.6216 49.11 33.4448 48.2868C33.8804 47.8512 34.209 47.3381 34.4231 46.7807C34.6372 46.2233 35.1872 45.832 35.8 45.832C36.3869 45.832 36.9295 46.1753 37.1547 46.7179C37.3467 47.1867 37.6309 47.6186 38 47.9878C38.7457 48.7334 39.735 49.1432 40.7871 49.1432C41.8391 49.1432 42.8284 48.7334 43.5741 47.9878C43.8694 47.6925 44.113 47.3528 44.2939 46.9911C44.6409 46.3045 45.3017 45.832 46.0695 45.832H46.3426C47.0625 45.832 47.7565 46.1937 48.0887 46.8324C48.2511 47.1461 48.4615 47.4377 48.7199 47.6925C49.3844 48.3569 50.2703 48.7261 51.2116 48.7261C52.1529 48.7261 53.0389 48.3606 53.7033 47.6925C53.8731 47.5226 54.0245 47.3344 54.1574 47.135C54.7148 46.2823 55.7151 45.8283 56.7303 45.8283H56.7377C57.7196 45.8283 58.5908 46.3451 59.1925 47.1166C59.27 47.2126 59.3512 47.3085 59.4398 47.3971C60.0267 47.9841 60.8056 48.3052 61.6362 48.3052C62.4668 48.3052 63.2456 47.9804 63.8326 47.3971C63.9212 47.3085 64.0024 47.2163 64.0799 47.1166C64.7554 46.2565 65.8481 45.8283 66.9444 45.8283H67.3431C68.4173 45.8283 69.3955 46.3266 70.1486 47.0871C70.1523 47.0908 70.156 47.0944 70.1597 47.0981C70.6691 47.6076 71.3446 47.8844 72.0607 47.8844C72.9725 47.8844 73.8142 47.4341 74.3347 46.6367C74.8958 45.7766 74.8958 44.6175 74.3347 43.7537C73.8142 42.9564 72.9725 42.5023 72.0571 42.5023C71.3372 42.5023 70.6617 42.7829 70.156 43.2886C70.156 43.2886 70.1486 43.296 70.1449 43.2997C69.3919 44.0638 68.4099 44.5621 67.3394 44.5621H66.9444C65.8481 44.5621 64.7554 44.1339 64.0799 43.2738C64.0024 43.1779 63.9212 43.0856 63.8326 42.9933C63.2456 42.4063 62.4668 42.0852 61.6362 42.0852C60.8056 42.0852 60.0267 42.41 59.4398 42.9933C59.3512 43.0819 59.2663 43.1779 59.1925 43.2738C58.5871 44.0453 57.7159 44.5621 56.7377 44.5621H56.734C55.7152 44.5621 54.7185 44.1081 54.1574 43.2554C54.0282 43.056 53.8768 42.8715 53.707 42.698C53.0426 42.0335 52.1566 41.6644 51.2153 41.6644C50.274 41.6644 49.3881 42.0298 48.7236 42.698C48.4652 42.9564 48.2548 43.2443 48.0924 43.5581C47.7601 44.1967 47.0662 44.5584 46.3463 44.5584H46.0769C45.3054 44.5584 44.6446 44.0859 44.2976 43.3956C44.113 43.0302 43.8731 42.6943 43.5778 42.399C42.8321 41.6533 41.8428 41.2435 40.7908 41.2435C39.7387 41.2435 38.7494 41.6533 38.0037 42.399C37.6346 42.7681 37.3503 43.2 37.1584 43.6688C36.9369 44.2114 36.3943 44.5584 35.8036 44.5584C35.1909 44.5584 34.6445 44.1819 34.4267 43.6097C34.2126 43.0523 33.8841 42.5392 33.4448 42.1036C32.6216 41.2805 31.5253 40.8264 30.3625 40.8264C29.1997 40.8264 28.1033 41.2805 27.2802 42.1036C26.457 42.9268 26.0029 44.0232 26.0029 45.186C26.0029 46.3488 26.457 47.4451 27.2802 48.2683C28.1033 49.0915 29.1997 49.5455 30.3625 49.5455V49.564Z" fill="#3FE0D0"/>
<path d="M72.0595 52.938C71.3397 52.938 70.6642 53.2186 70.1585 53.7243C70.1585 53.7243 70.1511 53.7317 70.1474 53.7354C69.3943 54.4995 68.4124 54.9979 67.3419 54.9979H66.9469C65.8506 54.9979 64.7579 54.5697 64.0824 53.7096C64.0049 53.6136 63.9237 53.5213 63.8351 53.429C63.2481 52.8421 62.4692 52.5209 61.6387 52.5209C60.8081 52.5209 60.0292 52.8458 59.4423 53.429C59.3537 53.5176 59.2688 53.6136 59.195 53.7096C58.5896 54.4811 57.7184 54.9979 56.7402 54.9979H56.7143C55.7066 54.9979 54.7173 54.5438 54.1672 53.6985C54.038 53.4991 53.883 53.3072 53.7095 53.1337C53.045 52.4692 52.1591 52.1038 51.2178 52.1038C50.2765 52.1038 49.3905 52.4692 48.7261 53.1374C48.464 53.3995 48.2499 53.6948 48.0912 54.0086C47.7663 54.6398 47.0834 54.9979 46.3747 54.9979H46.083C45.3115 54.9979 44.6508 54.5254 44.3038 53.8351C44.1192 53.4696 43.8793 53.1337 43.5839 52.8384C42.8383 52.0927 41.849 51.683 40.7969 51.683C39.7449 51.683 38.7556 52.0927 38.0099 52.8384C37.6371 53.2112 37.3565 53.6431 37.1683 54.1045C36.9431 54.6509 36.4041 54.9979 35.8135 54.9979C35.2007 54.9979 34.6544 54.6176 34.4329 54.0455C34.2114 53.4733 33.8977 52.986 33.4584 52.5468C32.6352 51.7236 31.5389 51.2695 30.3761 51.2695C28.9881 51.2695 27.6998 51.9118 26.8508 53.0599C25.7359 54.566 25.7359 56.6959 26.8508 58.202C27.6998 59.3464 28.9881 59.9887 30.3724 59.9887C31.5352 59.9887 32.6315 59.5346 33.4547 58.7114C33.9051 58.2611 34.2336 57.7369 34.444 57.1758C34.6544 56.6147 35.1786 56.2603 35.7692 56.2603H35.7987C36.4004 56.2603 36.9468 56.611 37.1756 57.1647C37.3639 57.6225 37.6408 58.047 38.0136 58.4198C38.7593 59.1655 39.7486 59.5752 40.8006 59.5752C41.8527 59.5752 42.8457 59.1655 43.5876 58.4198C43.883 58.1245 44.1266 57.7886 44.3075 57.4231C44.6545 56.7365 45.3152 56.264 46.083 56.264H46.3784C47.0871 56.264 47.7737 56.6221 48.0949 57.2533C48.2573 57.5671 48.4677 57.8624 48.7298 58.1245C49.3942 58.7889 50.2802 59.1581 51.2215 59.1581C52.1628 59.1581 53.0487 58.7926 53.7132 58.1245C53.8904 57.9473 54.0417 57.759 54.1709 57.5597C54.721 56.7144 55.7103 56.264 56.718 56.264H56.7475C57.7295 56.264 58.6006 56.7808 59.2023 57.5523C59.2799 57.6483 59.3611 57.7443 59.4497 57.8329C60.0366 58.4198 60.8155 58.741 61.6461 58.741C62.4766 58.741 63.2555 58.4161 63.8424 57.8329C63.931 57.7443 64.0122 57.652 64.0898 57.5523C64.7653 56.6922 65.858 56.264 66.9543 56.264H67.353C68.4272 56.264 69.4054 56.7624 70.1585 57.5265C70.1585 57.5265 70.1658 57.5339 70.1695 57.5376C70.6789 58.047 71.3545 58.3238 72.0706 58.3238C72.7867 58.3238 73.466 58.0433 73.9717 57.5376C74.4811 57.0281 74.758 56.3526 74.758 55.6365C74.758 54.9203 74.4774 54.2411 73.9717 53.7354C73.4623 53.226 72.7867 52.9491 72.0706 52.9491L72.0595 52.938Z" fill="#3FE0D0"/>
<path d="M61.6348 62.9456C60.8042 62.9456 60.0253 63.2704 59.4384 63.8537C59.3498 63.9423 59.2649 64.0382 59.191 64.1342C58.5856 64.9057 57.7145 65.4225 56.7362 65.4225H56.7104C55.7027 65.4225 54.7133 64.9685 54.1633 64.1231C54.0341 63.9238 53.8791 63.7319 53.7056 63.5584C53.0411 62.8939 52.1552 62.5285 51.2139 62.5285C50.2726 62.5285 49.3866 62.8939 48.7222 63.5584C48.4601 63.8205 48.246 64.1158 48.0873 64.4332C47.7624 65.0645 47.0795 65.4225 46.3707 65.4225H46.0754C45.3039 65.4225 44.6432 64.95 44.2999 64.2634C44.1153 63.898 43.8754 63.5621 43.58 63.2667C42.8344 62.5211 41.8451 62.1113 40.793 62.1113C39.741 62.1113 38.7517 62.5211 38.006 63.2667C37.2603 64.0124 36.8506 65.0017 36.8506 66.0538C36.8506 67.1058 37.2603 68.0951 38.006 68.8408C38.7517 69.5864 39.741 69.9962 40.793 69.9962C41.8451 69.9962 42.8344 69.5864 43.58 68.8408C43.8754 68.5455 44.119 68.2095 44.2999 67.8441C44.6469 67.1575 45.3076 66.685 46.0754 66.685H46.3707C47.0795 66.685 47.7661 67.0431 48.0873 67.6743C48.2497 67.9881 48.4601 68.2834 48.7222 68.5455C49.3866 69.2099 50.2726 69.5791 51.2139 69.5791C52.1552 69.5791 53.0411 69.2136 53.7056 68.5455C53.8828 68.3683 54.0341 68.18 54.1633 67.9807C54.7133 67.1353 55.7027 66.685 56.7104 66.685H56.7399C57.7219 66.685 58.593 67.2018 59.1947 67.9733C59.2686 68.0693 59.3535 68.1616 59.4421 68.2502C60.029 68.8371 60.8079 69.1619 61.6384 69.1619C62.661 69.1619 63.606 68.671 64.2077 67.8072C64.9312 66.7625 64.9275 65.3266 64.1966 64.2856C63.5912 63.4292 62.6536 62.9456 61.6384 62.9456H61.6348Z" fill="#3FE0D0"/>
<path d="M51.2101 72.9531C50.2688 72.9531 49.3828 73.3186 48.7184 73.9867C47.3452 75.3599 47.3452 77.5969 48.7184 78.9701C49.3828 79.6346 50.2688 80 51.2101 80C52.1514 80 53.0373 79.6346 53.7018 78.9701C55.075 77.5969 55.075 75.3599 53.7018 73.9867C53.0373 73.3223 52.1514 72.9531 51.2101 72.9531Z" fill="#3FE0D0"/>
</svg>
