<svg width="125" height="22" viewBox="0 0 125 22" fill="none" xmlns="http://www.w3.org/2000/svg">
<path d="M11.7595 1.62819C11.5746 1.53994 11.3723 1.49414 11.1674 1.49414C10.9625 1.49414 10.7601 1.53994 10.5752 1.62819C10.2516 1.78219 10.0738 2.04985 9.98395 2.19652C9.8826 2.37058 9.78871 2.54888 9.70254 2.73094L7.72529 6.73402L3.30514 7.38027C3.09706 7.41052 2.88347 7.44169 2.70931 7.48385C2.54248 7.52419 2.23264 7.61127 1.98606 7.8716C1.84529 8.02024 1.73948 8.19844 1.67636 8.39319C1.61324 8.58793 1.59441 8.79432 1.62123 8.99727C1.66798 9.35202 1.86873 9.60502 1.97964 9.73519C2.09606 9.87086 2.25006 10.0212 2.40131 10.1679L5.59863 13.2818L4.84422 17.6809C4.80673 17.8788 4.77768 18.0782 4.75714 18.2785C4.7443 18.4499 4.73055 18.7717 4.90197 19.087C4.99973 19.267 5.13648 19.4229 5.30221 19.5433C5.46794 19.6637 5.65847 19.7455 5.85988 19.7828C6.21188 19.8479 6.51438 19.736 6.67296 19.67C6.83796 19.6013 7.02863 19.5014 7.21471 19.4033L11.1674 17.3252L15.1182 19.4033C15.3052 19.5014 15.4959 19.6013 15.6609 19.6691C15.8204 19.736 16.1219 19.8479 16.4739 19.7828C16.6754 19.7454 16.866 19.6634 17.0318 19.5429C17.1975 19.4223 17.3342 19.2663 17.4318 19.0861C17.6033 18.7717 17.5895 18.4499 17.5767 18.2785C17.5561 18.0782 17.5271 17.8788 17.4896 17.6809L16.7361 13.2818L19.9325 10.1679C20.0838 10.0212 20.2378 9.87086 20.3542 9.73519C20.466 9.60502 20.6658 9.35202 20.7117 8.99727C20.7386 8.79438 20.7199 8.58804 20.657 8.3933C20.594 8.19856 20.4884 8.02032 20.3478 7.8716C20.1003 7.61127 19.7913 7.52327 19.6236 7.48385C19.4503 7.44169 19.2368 7.41052 19.0287 7.38027L14.6085 6.73402L12.634 2.73185C12.5475 2.55009 12.4533 2.3721 12.3517 2.19835C12.2619 2.05169 12.084 1.7831 11.7604 1.6291L11.7595 1.62819Z" fill="#05E5AD"/>
<path d="M37.4236 1.62819C37.2387 1.53994 37.0363 1.49414 36.8314 1.49414C36.6265 1.49414 36.4242 1.53994 36.2393 1.62819C35.9157 1.78219 35.7378 2.04985 35.648 2.19652C35.5467 2.37058 35.4528 2.54888 35.3666 2.73094L33.3894 6.73402L28.9692 7.38027C28.7611 7.41052 28.5475 7.44169 28.3734 7.48385C28.2065 7.52419 27.8967 7.61127 27.6501 7.8716C27.5093 8.02024 27.4035 8.19844 27.3404 8.39319C27.2773 8.58793 27.2585 8.79432 27.2853 8.99727C27.332 9.35202 27.5328 9.60502 27.6437 9.73519C27.7601 9.87086 27.9141 10.0212 28.0654 10.1679L31.2627 13.2818L30.5083 17.6809C30.4708 17.8788 30.4417 18.0782 30.4212 18.2785C30.4084 18.4499 30.3946 18.7717 30.566 19.087C30.6638 19.267 30.8005 19.4229 30.9663 19.5433C31.132 19.6637 31.3225 19.7455 31.5239 19.7828C31.8759 19.8479 32.1784 19.736 32.337 19.67C32.502 19.6013 32.6927 19.5014 32.8788 19.4033L36.8314 17.3252L40.7823 19.4033C40.9692 19.5014 41.1599 19.6013 41.3249 19.6691C41.4844 19.736 41.786 19.8479 42.138 19.7828C42.3395 19.7454 42.5301 19.6634 42.6958 19.5429C42.8616 19.4223 42.9983 19.2663 43.0959 19.0861C43.2673 18.7717 43.2536 18.4499 43.2407 18.2785C43.2202 18.0782 43.1911 17.8788 43.1537 17.6809L42.4002 13.2818L45.5966 10.1679C45.7478 10.0212 45.9018 9.87086 46.0182 9.73519C46.1301 9.60502 46.3299 9.35202 46.3757 8.99727C46.4027 8.79438 46.384 8.58804 46.321 8.3933C46.2581 8.19856 46.1524 8.02032 46.0118 7.8716C45.7643 7.61127 45.4554 7.52327 45.2877 7.48385C45.1144 7.44169 44.9008 7.41052 44.6927 7.38027L40.2726 6.73402L38.2981 2.73185C38.2116 2.55009 38.1174 2.3721 38.0158 2.19835C37.9259 2.05169 37.7481 1.7831 37.4245 1.6291L37.4236 1.62819Z" fill="#05E5AD"/>
<path d="M63.0916 1.62819C62.9066 1.53994 62.7043 1.49414 62.4994 1.49414C62.2945 1.49414 62.0922 1.53994 61.9072 1.62819C61.5837 1.78219 61.4058 2.04985 61.316 2.19652C61.2146 2.37058 61.1207 2.54888 61.0346 2.73094L59.0573 6.73402L54.6372 7.38027C54.4291 7.41052 54.2155 7.44169 54.0413 7.48385C53.8745 7.52419 53.5647 7.61127 53.3181 7.87161C53.1773 8.02024 53.0715 8.19844 53.0084 8.39319C52.9453 8.58793 52.9264 8.79432 52.9533 8.99727C53 9.35202 53.2008 9.60502 53.3117 9.73519C53.4281 9.87086 53.5821 10.0212 53.7333 10.1679L56.9307 13.2818L56.1763 17.6809C56.1388 17.8788 56.1097 18.0782 56.0892 18.2785C56.0763 18.4499 56.0626 18.7717 56.234 19.087C56.3318 19.267 56.4685 19.4229 56.6342 19.5433C56.8 19.6637 56.9905 19.7455 57.1919 19.7828C57.5439 19.8479 57.8464 19.736 58.005 19.67C58.17 19.6013 58.3607 19.5014 58.5467 19.4033L62.4994 17.3252L66.4502 19.4033C66.6372 19.5014 66.8279 19.6013 66.9929 19.6691C67.1524 19.736 67.454 19.8479 67.806 19.7828C68.0075 19.7454 68.198 19.6634 68.3638 19.5429C68.5295 19.4223 68.6662 19.2663 68.7639 19.0861C68.9353 18.7717 68.9215 18.4499 68.9087 18.2785C68.8882 18.0782 68.8591 17.8788 68.8216 17.6809L68.0681 13.2818L71.2645 10.1679C71.4158 10.0212 71.5698 9.87086 71.6862 9.73519C71.798 9.60502 71.9979 9.35202 72.0437 8.99727C72.0706 8.79438 72.052 8.58804 71.989 8.3933C71.926 8.19856 71.8204 8.02032 71.6798 7.87161C71.4323 7.61127 71.1234 7.52327 70.9556 7.48385C70.7824 7.44169 70.5688 7.41052 70.3607 7.38027L65.9406 6.73402L63.9661 2.73185C63.8796 2.55009 63.7854 2.3721 63.6837 2.19835C63.5939 2.05169 63.4161 1.7831 63.0925 1.6291L63.0916 1.62819Z" fill="#05E5AD"/>
<path d="M88.7595 1.62819C88.5746 1.53994 88.3723 1.49414 88.1674 1.49414C87.9625 1.49414 87.7601 1.53994 87.5752 1.62819C87.2516 1.78219 87.0738 2.04985 86.984 2.19652C86.8826 2.37058 86.7887 2.54888 86.7025 2.73094L84.7253 6.73402L80.3051 7.38027C80.0971 7.41052 79.8835 7.44169 79.7093 7.48385C79.5425 7.52419 79.2326 7.61127 78.9861 7.8716C78.8453 8.02024 78.7395 8.19844 78.6764 8.39319C78.6132 8.58793 78.5944 8.79432 78.6212 8.99727C78.668 9.35202 78.8687 9.60502 78.9796 9.73519C79.0961 9.87086 79.2501 10.0212 79.4013 10.1679L82.5986 13.2818L81.8442 17.6809C81.8067 17.8788 81.7777 18.0782 81.7571 18.2785C81.7443 18.4499 81.7306 18.7717 81.902 19.087C81.9997 19.267 82.1365 19.4229 82.3022 19.5433C82.4679 19.6637 82.6585 19.7455 82.8599 19.7828C83.2119 19.8479 83.5144 19.736 83.673 19.67C83.838 19.6013 84.0286 19.5014 84.2147 19.4033L88.1674 17.3252L92.1182 19.4033C92.3052 19.5014 92.4959 19.6013 92.6609 19.6691C92.8204 19.736 93.1219 19.8479 93.4739 19.7828C93.6754 19.7454 93.866 19.6634 94.0318 19.5429C94.1975 19.4223 94.3342 19.2663 94.4318 19.0861C94.6033 18.7717 94.5895 18.4499 94.5767 18.2785C94.5561 18.0782 94.5271 17.8788 94.4896 17.6809L93.7361 13.2818L96.9325 10.1679C97.0838 10.0212 97.2378 9.87086 97.3542 9.73519C97.466 9.60502 97.6658 9.35202 97.7117 8.99727C97.7386 8.79438 97.7199 8.58804 97.657 8.3933C97.594 8.19856 97.4884 8.02032 97.3478 7.8716C97.1003 7.61127 96.7913 7.52327 96.6236 7.48385C96.4503 7.44169 96.2368 7.41052 96.0287 7.38027L91.6085 6.73402L89.634 2.73185C89.5475 2.55009 89.4533 2.3721 89.3517 2.19835C89.2619 2.05169 89.084 1.7831 88.7604 1.6291L88.7595 1.62819Z" fill="#05E5AD"/>
<path d="M114.424 1.62819C114.239 1.53994 114.036 1.49414 113.831 1.49414C113.627 1.49414 113.424 1.53994 113.239 1.62819C112.916 1.78219 112.738 2.04985 112.648 2.19652C112.547 2.37058 112.453 2.54888 112.367 2.73094L110.389 6.73402L105.969 7.38027C105.761 7.41052 105.548 7.44169 105.373 7.48385C105.207 7.52419 104.897 7.61127 104.65 7.8716C104.509 8.02024 104.404 8.19844 104.34 8.39319C104.277 8.58793 104.258 8.79432 104.285 8.99727C104.332 9.35202 104.533 9.60502 104.644 9.73519C104.76 9.87086 104.914 10.0212 105.065 10.1679L108.263 13.2818L107.508 17.6809C107.471 17.8788 107.442 18.0782 107.421 18.2785C107.408 18.4499 107.395 18.7717 107.566 19.087C107.664 19.267 107.801 19.4229 107.966 19.5433C108.132 19.6637 108.323 19.7455 108.524 19.7828C108.876 19.8479 109.178 19.736 109.337 19.67C109.502 19.6013 109.693 19.5014 109.879 19.4033L113.831 17.3252L117.782 19.4033C117.969 19.5014 118.16 19.6013 118.325 19.6691C118.484 19.736 118.786 19.8479 119.138 19.7828C119.339 19.7454 119.53 19.6634 119.696 19.5429C119.862 19.4223 119.998 19.2663 120.096 19.0861C120.267 18.7717 120.254 18.4499 120.241 18.2785C120.22 18.0782 120.191 17.8788 120.154 17.6809L119.4 13.2818L122.597 10.1679C122.748 10.0212 122.902 9.87086 123.018 9.73519C123.13 9.60502 123.33 9.35202 123.376 8.99727C123.403 8.79438 123.384 8.58804 123.321 8.3933C123.258 8.19856 123.152 8.02032 123.012 7.8716C122.764 7.61127 122.455 7.52327 122.288 7.48385C122.114 7.44169 121.901 7.41052 121.693 7.38027L117.273 6.73402L115.298 2.73185C115.212 2.55009 115.117 2.3721 115.016 2.19835C114.926 2.05169 114.748 1.7831 114.425 1.6291L114.424 1.62819Z" fill="#05E5AD"/>
</svg>
