<?xml version="1.0" encoding="UTF-8"?> <svg xmlns="http://www.w3.org/2000/svg" width="173" height="15" viewBox="0 0 173 15" fill="none"><path fill-rule="evenodd" clip-rule="evenodd" d="M9.6638 1.71498C9.6638 1.57591 8.76754 1.2514 7.98717 1.11232C7.03682 0.942339 5.04341 0.926887 4.33258 1.08142C2.231 1.545 1.03341 2.68078 0.399841 4.81327C-0.133281 6.59807 -0.133281 9.40275 0.399841 11.1335C0.824794 12.5242 1.69015 13.5905 2.87229 14.1699C4.71118 15.0739 7.47723 15.0894 9.45519 14.1931C9.51909 14.1642 9.57759 14.1396 9.63113 14.1171L9.63115 14.1171C9.77458 14.0569 9.88246 14.0116 9.96352 13.9371C10.2094 13.7112 10.2087 13.2167 10.2055 11.2223V11.2219V11.2213V11.2208V11.2202V11.2195C10.2051 10.9725 10.2046 10.7025 10.2046 10.4072C10.2046 8.59148 10.1737 7.06165 10.1428 7.00757C10.0888 6.93803 9.56336 6.91485 7.7631 6.9303L5.45291 6.95348V8.15107V9.34867L6.38008 9.3873L7.30725 9.42593L7.33043 10.6699C7.34588 11.7361 7.33043 11.9293 7.22226 12.0143C7.02137 12.1843 5.32156 12.1688 4.81935 11.9911C3.94626 11.682 3.3127 10.8321 3.06545 9.60364C2.9032 8.81554 2.9032 7.0462 3.05772 6.28128C3.36678 4.82872 4.10852 4.00199 5.35247 3.7393C5.9474 3.60795 7.80174 3.69294 8.44303 3.87837C8.72891 3.96336 8.99933 4.00972 9.05341 3.97882C9.12295 3.93246 9.65608 1.96223 9.6638 1.71498ZM94.886 1.86951C94.886 1.39047 94.8629 1.2823 94.7547 1.23594C94.6774 1.20504 93.8893 1.16641 92.9931 1.15095C91.1387 1.12005 90.567 1.19731 89.6707 1.61454C88.3804 2.20947 87.9323 3.01301 87.9323 4.76691V5.59363L87.4919 5.71726C87.2446 5.78679 86.8506 5.90269 86.6188 5.97995C86.217 6.1113 86.1938 6.12676 86.1938 6.38173V6.64443L87.0669 6.6676L87.9323 6.69078V10.5849V14.4867H88.5504H89.1685V10.5849V6.68306H91.4014H93.6421L93.6653 10.0209C93.6885 13.2273 93.6962 13.3819 93.8507 13.7141C94.1289 14.3167 94.662 14.6413 95.3728 14.6413H95.6664L95.6432 14.1622C95.6201 13.6986 95.6123 13.6832 95.3728 13.6214L95.3344 13.6115C95.2538 13.5909 95.1877 13.574 95.1335 13.5388C94.8856 13.378 94.8857 12.835 94.886 9.81024L94.886 9.44911V5.67862H92.0273H89.1685V4.72828C89.1685 3.97882 89.1994 3.72384 89.3153 3.4766C89.5857 2.88167 90.227 2.49535 91.2469 2.30991C92.1741 2.14766 93.3562 2.17856 94.6388 2.3949L94.886 2.44126V1.86951ZM62.2188 12.4933C62.1879 12.5242 61.3303 10.0131 60.3104 6.90712L58.4561 1.27458H57.7839C57.4053 1.27458 57.1039 1.29003 57.1039 1.30548C57.1039 1.33639 61.4462 13.8223 61.6316 14.309L61.7552 14.6413H62.2034C62.6206 14.6413 62.6592 14.6258 62.7288 14.4249C62.7449 14.3764 62.9359 13.8292 63.2421 12.9518C63.6671 11.7342 64.314 9.88076 65.0235 7.84202C65.6304 6.09809 66.1877 4.50121 66.5965 3.32956L66.5983 3.32453L66.5999 3.32001C67.0115 2.14049 67.2719 1.39442 67.2796 1.36729C67.3105 1.29776 67.1483 1.27458 66.6306 1.27458H65.9429L64.104 6.85304C63.0919 9.92815 62.242 12.4624 62.2188 12.4933ZM113.738 14.4867V7.88065V1.27458H113.12H112.502V3.7393V6.21175L112.062 5.97995C111.343 5.61681 110.733 5.50092 109.798 5.53955C108.794 5.58591 108.268 5.77907 107.704 6.27356C107.202 6.72941 106.986 7.0771 106.746 7.81884C106.507 8.54512 106.406 9.73499 106.491 10.9171C106.553 11.8211 106.8 12.7251 107.125 13.235C107.411 13.6909 108.06 14.2318 108.546 14.4172C109.103 14.6258 110.316 14.7031 110.942 14.564C111.189 14.5176 111.699 14.3245 112.093 14.139L112.804 13.8068L112.935 14.1468C113.059 14.479 113.074 14.4867 113.399 14.4867H113.738ZM127.584 5.24594C127.592 3.26799 126.665 1.99313 124.81 1.45228C124.44 1.34411 123.914 1.32094 121.758 1.29003L119.147 1.26685V7.87292V14.4867H119.765H120.383V11.8675V9.24822L122.299 9.20959C124.393 9.16323 124.841 9.0937 125.691 8.67647C126.232 8.41377 126.912 7.7493 127.175 7.23936C127.445 6.70624 127.576 6.07267 127.584 5.24594ZM25.7347 3.99427C25.7347 2.2481 25.7115 1.59136 25.642 1.52182C25.5338 1.41365 23.1387 1.39047 22.9687 1.49091C22.8914 1.545 22.876 2.90485 22.8914 8.04291L22.9146 14.5254H24.3053H25.6961L25.7347 11.7439L25.7734 8.96235L27.6431 8.93917L29.5207 8.92371L29.5361 11.7207L29.5593 14.5254H30.95H32.3408V7.99655V1.46774L31.035 1.44456C30.1388 1.4291 29.6984 1.45228 29.6288 1.51409C29.5438 1.58363 29.5207 2.05494 29.5207 3.98654V6.374H27.6277H25.7347V3.99427ZM46.0552 3.76248C46.0552 2.19402 46.032 1.59136 45.9625 1.52182C45.8311 1.39047 43.2814 1.39047 43.235 1.52182C43.2119 1.57591 43.2041 4.52739 43.2119 8.07381L43.235 14.5254H44.2317H45.2284L45.3057 14.2936C45.3443 14.1622 45.3907 14.0463 45.4062 14.0386C45.4139 14.0231 45.7152 14.1545 46.0706 14.3245C47.3378 14.9426 48.8058 15.0198 49.9261 14.5176C51.2319 13.9304 51.8345 12.3079 51.7495 9.57273C51.7032 7.78793 51.425 6.9303 50.6601 6.18084C50.0729 5.61681 49.5784 5.43138 48.5276 5.39275C47.6932 5.36184 47.0364 5.47774 46.3488 5.78679L46.0552 5.91042V3.76248ZM14.3924 2.58034C14.2224 2.2481 14.0988 2.12448 13.7665 1.9545C13.0093 1.55272 12.1981 1.73816 11.7113 2.41808C11.3945 2.88167 11.3482 3.56159 11.6109 4.05608C11.8813 4.55057 12.3062 4.82872 12.878 4.8828C13.272 4.91371 13.3879 4.89053 13.7588 4.69737C14.0988 4.51966 14.2224 4.39604 14.3924 4.06381C14.5314 3.80111 14.6087 3.53068 14.6087 3.32207C14.6087 3.11346 14.5314 2.84303 14.3924 2.58034ZM84.5249 2.78895C84.4631 2.62669 84.3318 2.42581 84.2236 2.34854C83.6132 1.90041 82.8329 2.31764 82.8329 3.09028C82.8329 3.49205 83.2424 3.90155 83.6364 3.90155C84.0382 3.90155 84.3318 3.72384 84.494 3.38388C84.6177 3.12891 84.6177 3.0671 84.5249 2.78895ZM145.958 5.67862V4.28787C145.958 2.88167 145.95 2.84303 145.687 2.93575C145.649 2.9512 145.409 3.02074 145.169 3.09028L144.721 3.2139V4.40377V5.59363L144.281 5.71726C144.034 5.78679 143.64 5.90269 143.408 5.97995C143.006 6.1113 142.983 6.12676 142.983 6.38173V6.64443L143.856 6.6676L144.721 6.69078V9.56501C144.721 12.6401 144.76 13.0342 145.115 13.5827C145.564 14.2627 146.452 14.6413 147.626 14.6413H148.353V14.1468V13.6523L147.673 13.6214C146.599 13.575 146.182 13.2814 146.035 12.4856C145.996 12.2538 145.958 10.863 145.958 9.37957V6.68306L147.333 6.6676L148.7 6.64443L148.724 6.15766L148.747 5.67862H147.348H145.958ZM19.6309 5.59363L19.6154 4.34196L19.5922 3.09028L18.2247 3.0671C16.8571 3.05165 16.8494 3.05165 16.8107 3.22163C16.7875 3.32207 16.7644 3.91701 16.7489 4.5583L16.7335 5.70953L16.1231 5.84861C15.7831 5.92587 15.4663 6.02631 15.4045 6.07267C15.2654 6.19629 15.2577 7.78793 15.4045 7.90383C15.4586 7.95019 15.7908 7.99655 16.1463 8.012L16.7798 8.03518V9.85088C16.7644 12.671 16.9266 13.4437 17.6761 14.1004C18.3637 14.7031 19.654 14.9658 20.813 14.7494C20.8663 14.7392 20.9166 14.7297 20.9639 14.7209C21.3246 14.6531 21.5146 14.6173 21.6126 14.5028C21.7216 14.3753 21.7164 14.1501 21.7054 13.6739L21.7054 13.6738L21.7054 13.6734L21.7054 13.6728C21.7041 13.6179 21.7028 13.5596 21.7015 13.4977L21.6784 12.5165L20.9444 12.4779C19.6309 12.4006 19.6309 12.4006 19.6309 9.89724V8.00427L20.6198 7.98109L21.6011 7.95791V6.79895V5.63999L20.6198 5.61681L19.6309 5.59363ZM74.3879 9.55728C74.2952 7.29344 73.7775 6.21175 72.5645 5.74816C72.2245 5.61681 71.9232 5.57045 71.2046 5.555C70.2697 5.53182 69.8216 5.59363 69.2189 5.85633C68.8481 6.01086 68.2145 6.60579 67.9673 7.02302C67.156 8.40605 67.156 11.7593 67.9673 13.1423C68.2222 13.575 68.8481 14.1468 69.2576 14.3245C70.2774 14.7649 72.1936 14.7494 73.5766 14.2858L73.9475 14.1622V13.6214C73.9475 13.1346 73.932 13.0882 73.8161 13.1346C72.804 13.5209 70.996 13.6755 70.2156 13.4514C69.3194 13.1887 68.7399 12.3388 68.6395 11.1489L68.5931 10.6235H71.5137H74.4343L74.3879 9.55728ZM81.3648 6.13448C81.3648 5.66317 81.3494 5.61681 81.1949 5.57045C81.0944 5.54728 80.6849 5.53182 80.2831 5.53182C79.2555 5.53955 78.5138 5.74044 77.7952 6.18857C77.4476 6.40491 77.4089 6.38945 77.2698 5.9645C77.1849 5.69408 77.1694 5.67862 76.8372 5.67862H76.4972V10.0827V14.4867H77.1153H77.7334V10.8167V7.15437L77.9498 7.03847C78.5292 6.73714 79.0701 6.64443 80.2291 6.64443H81.3648V6.13448ZM104.521 9.55728C104.428 7.29344 103.91 6.21175 102.697 5.74816C102.357 5.61681 102.056 5.57045 101.338 5.555C100.403 5.53182 99.9546 5.59363 99.3519 5.85633C98.981 6.01086 98.3475 6.60579 98.1002 7.02302C97.289 8.40605 97.289 11.7593 98.1002 13.1423C98.3552 13.575 98.981 14.1468 99.3905 14.3245C100.41 14.7649 102.327 14.7494 103.71 14.2858L104.08 14.1622V13.6214C104.08 13.1346 104.065 13.0882 103.949 13.1346C102.937 13.5209 101.129 13.6755 100.349 13.4514C99.4524 13.1887 98.8729 12.3388 98.7724 11.1489L98.7261 10.6235H101.647H104.567L104.521 9.55728ZM135.002 7.06165C134.7 6.31992 134.159 5.87951 133.232 5.63999C132.614 5.47774 131.115 5.49319 130.265 5.67862C129.284 5.87951 129.269 5.89496 129.269 6.4899C129.269 6.76805 129.284 6.99211 129.299 6.99211C129.323 6.99211 129.639 6.91485 130.018 6.82213C130.551 6.69078 130.93 6.65215 131.78 6.64443C132.792 6.64443 132.885 6.65988 133.201 6.83758C133.781 7.16209 133.974 7.57159 133.982 8.46786V8.90826L133.503 8.95462C133.249 8.97638 132.709 9.01175 132.254 9.04157L132.253 9.04161L132.166 9.04734C130.636 9.13233 129.809 9.3873 129.23 9.96678C128.674 10.5308 128.442 11.373 128.573 12.3388C128.674 13.0264 128.936 13.5287 129.408 13.9536C129.918 14.4095 130.373 14.5717 131.301 14.6181C132.251 14.6722 132.8 14.5563 133.642 14.139L134.283 13.8145L134.391 14.1313C134.492 14.4404 134.507 14.4481 134.862 14.4713L135.226 14.4945L135.202 10.9944L135.202 10.9678C135.179 7.55578 135.179 7.4855 135.002 7.06165ZM142.326 6.13448C142.326 5.66317 142.311 5.61681 142.156 5.57045C142.056 5.54728 141.646 5.53182 141.244 5.53182C140.217 5.53955 139.475 5.74044 138.757 6.18857C138.409 6.40491 138.37 6.38945 138.231 5.9645C138.146 5.69408 138.131 5.67862 137.799 5.67862H137.459V10.0827V14.4867H138.077H138.695V10.8167V7.15437L138.911 7.03847C139.491 6.73714 140.031 6.64443 141.19 6.64443H142.326V6.13448ZM156.473 6.46672C156.187 6.0804 155.67 5.76362 155.082 5.63227C154.549 5.50092 153.375 5.50864 152.911 5.63227C152.456 5.76362 151.884 6.01859 151.59 6.2272C151.327 6.41263 151.273 6.38173 151.134 5.9645C151.049 5.69408 151.034 5.67862 150.702 5.67862H150.362V10.0827V14.4867H150.98H151.598V10.8167V7.15437L151.814 7.0462C152.417 6.73714 152.873 6.64443 153.8 6.64443C154.928 6.64443 155.245 6.76032 155.523 7.30117C155.693 7.64113 155.693 7.67204 155.693 11.0639V14.4867H156.311H156.929V11.0253C156.929 7.22391 156.914 7.08483 156.473 6.46672ZM166.023 9.55728C165.93 7.29344 165.413 6.21175 164.2 5.74816C163.86 5.61681 163.558 5.57045 162.84 5.555C161.503 5.51637 160.846 5.70953 160.182 6.33537C159.463 7.00757 159.123 7.8652 159.031 9.25595C158.923 10.8785 159.131 12.3465 159.602 13.1423C159.857 13.575 160.483 14.1468 160.893 14.3245C161.913 14.7649 163.829 14.7494 165.212 14.2858L165.583 14.1622V13.6214C165.583 13.1346 165.567 13.0882 165.451 13.1346C164.439 13.5209 162.631 13.6755 161.851 13.4514C160.955 13.1887 160.375 12.3388 160.275 11.1489L160.228 10.6235H163.149H166.069L166.023 9.55728ZM173 6.13448C173 5.66317 172.985 5.61681 172.83 5.57045C172.73 5.54728 172.32 5.53182 171.918 5.53182C170.891 5.53955 170.149 5.74044 169.43 6.18857C169.083 6.40491 169.044 6.38945 168.905 5.9645C168.82 5.69408 168.805 5.67862 168.472 5.67862H168.132V10.0827V14.4867H168.75H169.369V10.8167V7.15437L169.585 7.03847C170.164 6.73714 170.705 6.64443 171.864 6.64443H173V6.13448ZM14.3769 14.4172C14.4928 14.1854 14.4851 5.8177 14.3615 5.69408C14.2996 5.63227 13.8747 5.60136 12.9707 5.60136C11.7731 5.60136 11.6727 5.60909 11.5954 5.74816C11.549 5.84861 11.5181 7.34753 11.5181 10.0827C11.5181 12.8178 11.549 14.3167 11.5954 14.4172C11.6727 14.5563 11.7731 14.564 12.9862 14.564C14.1992 14.564 14.2996 14.5563 14.3769 14.4172ZM36.4744 5.69408L36.3045 5.64772C36.0958 5.59363 33.8475 5.59363 33.7161 5.65545C33.5693 5.70953 33.577 12.2847 33.7238 12.8255C33.9324 13.6291 34.4269 14.2627 35.0296 14.5176C35.4777 14.7031 36.3663 14.873 36.8839 14.873C37.5098 14.873 38.6996 14.5717 39.3332 14.2627C39.6036 14.1313 39.8277 14.0309 39.8277 14.0386C39.8354 14.054 39.874 14.1622 39.9204 14.2936L39.9899 14.5254L40.9403 14.5485L41.8829 14.5717V10.129C41.8829 6.15766 41.8675 5.69408 41.7593 5.64772C41.6048 5.58591 39.3796 5.58591 39.225 5.64772C39.1169 5.68635 39.1014 6.04177 39.1014 8.84645C39.1014 9.09448 39.1017 9.3238 39.1019 9.53591V9.54012V9.54406V9.54774V9.55117V9.55438C39.1043 11.534 39.1048 12.0035 38.8763 12.1861C38.8052 12.2428 38.712 12.2719 38.5899 12.31L38.5898 12.31C38.5476 12.3231 38.5018 12.3374 38.4524 12.3542C38.2438 12.4238 37.8497 12.4779 37.5716 12.4779C36.9689 12.4779 36.6753 12.3002 36.5517 11.8752C36.5053 11.7052 36.4744 10.4226 36.4744 8.64556V5.69408ZM84.5483 13.5388C84.3004 13.378 84.3005 12.8351 84.3008 9.8105L84.3009 9.44911V5.67862H83.675H83.0569L83.0801 9.51865C83.1033 13.0496 83.1187 13.3896 83.2501 13.6909C83.5051 14.2936 84.0768 14.6413 84.7876 14.6413H85.0812L85.0581 14.1622C85.0349 13.6986 85.0272 13.6832 84.7876 13.6214L84.7492 13.6115C84.6686 13.5909 84.6025 13.574 84.5483 13.5388ZM108.175 7.5563C108.415 7.13908 108.879 6.79139 109.358 6.68322C110.068 6.51324 111.374 6.65232 112.139 6.98455L112.502 7.13908V10.0828V13.0266L112.139 13.1811C111.513 13.4516 110.756 13.5752 109.976 13.5365C109.373 13.5134 109.211 13.4747 108.855 13.2738C108.036 12.8103 107.712 11.914 107.712 10.0828C107.712 8.82343 107.835 8.15124 108.175 7.5563ZM120.383 5.21488V8.07365H122.122C123.111 8.07365 124.03 8.03502 124.262 7.98866C125.436 7.74142 126.101 6.99968 126.248 5.77891C126.379 4.72812 126.101 3.68505 125.552 3.13648C124.942 2.52609 124.146 2.35611 121.758 2.35611H120.383V5.21488ZM46.0397 8.09714C46.0706 8.05078 46.3024 7.93488 46.5574 7.84989C46.8896 7.73399 47.16 7.68764 47.5232 7.71082C48.1413 7.73399 48.4349 7.91943 48.6976 8.44482C48.8521 8.76161 48.8753 8.94704 48.8985 9.90511C48.9371 11.265 48.8444 11.7749 48.489 12.1612L48.234 12.4394H47.4691C46.851 12.4394 46.6424 12.4085 46.3488 12.2694L45.9779 12.0994V10.1446C45.9779 9.07066 46.0088 8.15122 46.0397 8.09714ZM70.2234 6.71425C69.2885 6.96149 68.7476 7.76504 68.6394 9.04762L68.5931 9.61938H70.8956H73.1903L73.1362 8.97809C73.0203 7.57961 72.6804 6.96922 71.8691 6.7297C71.3746 6.5829 70.7333 6.57517 70.2234 6.71425ZM98.7724 9.04762C98.8806 7.76504 99.4214 6.96149 100.356 6.71425C100.866 6.57517 101.508 6.5829 102.002 6.7297C102.813 6.96922 103.153 7.57961 103.269 8.97809L103.323 9.61938H101.029H98.7261L98.7724 9.04762ZM132.235 9.96657C131.092 10.0825 130.597 10.237 130.265 10.5847C129.925 10.9246 129.825 11.2337 129.817 11.8904C129.802 12.9644 130.288 13.4589 131.409 13.5362C132.135 13.5825 132.846 13.4357 133.518 13.0958L133.982 12.864V11.3573V9.85067L133.58 9.8584C133.356 9.86612 132.745 9.91248 132.235 9.96657ZM160.275 9.04762C160.383 7.76504 160.924 6.96149 161.859 6.71425C162.368 6.57517 163.01 6.5829 163.504 6.7297C164.316 6.96922 164.655 7.57961 164.771 8.97809L164.825 9.61938H162.531H160.228L160.275 9.04762Z" fill="white"></path></svg> 