<svg width="40" height="40" viewBox="0 0 40 40" fill="none" xmlns="http://www.w3.org/2000/svg">
<path d="M37.5 21.25C34.4937 21.25 32.5362 23.4412 30.805 25.965C29.6337 23.4512 28.0462 21.25 25 21.25C24.31 21.25 23.75 21.8088 23.75 22.5C23.75 23.1912 24.31 23.75 25 23.75C26.9612 23.75 27.95 25.5238 29.1587 28.4663C27.3125 31.2813 25.455 33.75 22.5 33.75C21.81 33.75 21.25 34.3088 21.25 35C21.25 35.6912 21.81 36.25 22.5 36.25C26.105 36.25 28.4138 33.885 30.3038 31.2275C31.4888 33.8663 33.0787 36.25 36.25 36.25C36.94 36.25 37.5 35.6912 37.5 35C37.5 34.3088 36.94 33.75 36.25 33.75C34.2238 33.75 33.2363 31.8575 31.9688 28.735C33.72 26.0338 35.2712 23.75 37.5 23.75C38.19 23.75 38.75 23.1912 38.75 22.5C38.75 21.8088 38.19 21.25 37.5 21.25Z" fill="#212121"/>
<path d="M11.25 37.5H11.2388C10.7175 37.495 10.2538 37.1662 10.075 36.6775L5.375 23.75H1.25C0.56 23.75 0 23.1912 0 22.5C0 21.8088 0.56 21.25 1.25 21.25H6.25C6.775 21.25 7.245 21.5788 7.425 22.0725L11.2825 32.6825L22.5825 3.30125C22.7687 2.81875 23.2325 2.5 23.75 2.5H38.75C39.44 2.5 40 3.05875 40 3.75C40 4.44125 39.44 5 38.75 5H24.6087L12.4175 36.6987C12.2312 37.1812 11.7675 37.5 11.25 37.5Z" fill="#212121"/>
</svg>
