<svg width="16" height="16" viewBox="0 0 16 16" fill="none" xmlns="http://www.w3.org/2000/svg">
<g clip-path="url(#clip0_924_4695)">
<path d="M4.5 3C3.673 3 3 2.327 3 1.5C3 1.224 2.776 1 2.5 1C2.224 1 2 1.224 2 1.5C2 2.327 1.327 3 0.5 3C0.224 3 0 3.224 0 3.5C0 3.776 0.224 4 0.5 4C1.327 4 2 4.673 2 5.5C2 5.776 2.224 6 2.5 6C2.776 6 3 5.776 3 5.5C3 4.673 3.673 4 4.5 4C4.776 4 5 3.776 5 3.5C5 3.224 4.776 3 4.5 3Z" fill="#12D3DD"/>
<path d="M14.5 13C13.673 13 13 12.327 13 11.5C13 11.224 12.776 11 12.5 11C12.224 11 12 11.224 12 11.5C12 12.327 11.327 13 10.5 13C10.224 13 10 13.224 10 13.5C10 13.776 10.224 14 10.5 14C11.327 14 12 14.673 12 15.5C12 15.776 12.224 16 12.5 16C12.776 16 13 15.776 13 15.5C13 14.673 13.673 14 14.5 14C14.776 14 15 13.776 15 13.5C15 13.224 14.776 13 14.5 13Z" fill="#12D3DD"/>
<path d="M8.32501 7.675L7.26301 7.323L0.293006 14.293C-0.0979941 14.684 -0.0979941 15.316 0.293006 15.707C0.488006 15.902 0.744006 16 1.00001 16C1.25601 16 1.51201 15.902 1.70701 15.707L8.67701 8.738L8.32501 7.675Z" fill="#12D3DD"/>
<path d="M10.819 9.39203C10.794 9.39203 10.769 9.39003 10.744 9.38603C10.567 9.35803 10.421 9.23403 10.365 9.06403L9.513 6.48703L6.936 5.63503C6.767 5.57903 6.642 5.43203 6.614 5.25603C6.586 5.08003 6.659 4.90203 6.803 4.79603L8.991 3.19003L9.005 0.476027C9.005 0.298027 9.107 0.134027 9.266 0.0530269C9.426 -0.0289731 9.617 -0.0129731 9.762 0.0900269L11.966 1.67403L14.552 0.849027C14.722 0.796027 14.909 0.840027 15.035 0.967027C15.161 1.09403 15.207 1.28003 15.152 1.45103L14.326 4.03603L15.911 6.24103C16.015 6.38703 16.03 6.57803 15.948 6.73703C15.867 6.89703 15.703 6.99703 15.525 6.99803L12.811 7.01203L11.205 9.19903C11.114 9.32303 10.971 9.39403 10.82 9.39403L10.819 9.39203Z" fill="#12D3DD"/>
</g>
<defs>
<clipPath id="clip0_924_4695">
<rect width="16" height="16" fill="white"/>
</clipPath>
</defs>
</svg>
