<svg width="96" height="96" viewBox="0 0 96 96" fill="none" xmlns="http://www.w3.org/2000/svg">
<rect width="96" height="96" rx="24" fill="#EBEDF0"/>
<path d="M46 51H35C34.448 51 34 50.552 34 50V34C34 33.448 34.448 33 35 33H46C46.552 33 47 33.448 47 34V50C47 50.552 46.552 51 46 51Z" fill="#090A0C"/>
<path d="M46 63H35C34.448 63 34 62.552 34 62V54C34 53.448 34.448 53 35 53H46C46.552 53 47 53.448 47 54V62C47 62.552 46.552 63 46 63Z" fill="#090A0C"/>
<path d="M61 43H50C49.448 43 49 42.552 49 42V34C49 33.448 49.448 33 50 33H61C61.552 33 62 33.448 62 34V42C62 42.552 61.552 43 61 43Z" fill="#090A0C"/>
<path d="M61 63H50C49.448 63 49 62.552 49 62V46C49 45.448 49.448 45 50 45H61C61.552 45 62 45.448 62 46V62C62 62.552 61.552 63 61 63Z" fill="#090A0C"/>
</svg>
