<svg width="40" height="40" viewBox="0 0 40 40" fill="none" xmlns="http://www.w3.org/2000/svg">
<g clip-path="url(#clip0_747_5774)">
<path d="M7.5 37.5H5.625C3.9025 37.5 2.5 36.0988 2.5 34.375V25.6425C2.5 24.6513 2.21 23.6925 1.66 22.8687L0.21 20.6938C-0.07 20.2738 -0.07 19.7275 0.21 19.3075L1.66 17.1325C2.20875 16.3088 2.5 15.35 2.5 14.3588V5.625C2.5 3.90125 3.9025 2.5 5.625 2.5H7.5C8.19 2.5 8.75 3.05875 8.75 3.75C8.75 4.44125 8.19 5 7.5 5H5.625C5.28 5 5 5.28125 5 5.625V14.3575C5 15.8425 4.56375 17.2825 3.74 18.5175L2.75125 20L3.74 21.4825C4.56375 22.7175 5 24.1575 5 25.6425V34.375C5 34.7188 5.28 35 5.625 35H7.5C8.19 35 8.75 35.5588 8.75 36.25C8.75 36.9412 8.19 37.5 7.5 37.5Z" fill="#212121"/>
<path d="M34.375 37.5H32.5C31.81 37.5 31.25 36.9412 31.25 36.25C31.25 35.5588 31.81 35 32.5 35H34.375C34.72 35 35 34.7188 35 34.375V25.6425C35 24.1575 35.4362 22.7175 36.26 21.4825L37.2487 20L36.26 18.5175C35.4362 17.2825 35 15.8425 35 14.3575V5.625C35 5.28125 34.72 5 34.375 5H32.5C31.81 5 31.25 4.44125 31.25 3.75C31.25 3.05875 31.81 2.5 32.5 2.5H34.375C36.0975 2.5 37.5 3.90125 37.5 5.625V14.3575C37.5 15.3488 37.79 16.3075 38.34 17.1313L39.79 19.3062C40.07 19.7262 40.07 20.2725 39.79 20.6925L38.34 22.8675C37.7913 23.6912 37.5 24.65 37.5 25.6413V34.3738C37.5 36.0975 36.0975 37.5 34.375 37.5Z" fill="#212121"/>
<path d="M15 18.75C14.31 18.75 13.75 18.1912 13.75 17.5V10H12.5C11.81 10 11.25 9.44125 11.25 8.75C11.25 8.05875 11.81 7.5 12.5 7.5H15C15.69 7.5 16.25 8.05875 16.25 8.75V17.5C16.25 18.1912 15.69 18.75 15 18.75Z" fill="#212121"/>
<path d="M27.5 32.5C26.81 32.5 26.25 31.9412 26.25 31.25V23.75H25C24.31 23.75 23.75 23.1912 23.75 22.5C23.75 21.8088 24.31 21.25 25 21.25H27.5C28.19 21.25 28.75 21.8088 28.75 22.5V31.25C28.75 31.9412 28.19 32.5 27.5 32.5Z" fill="#212121"/>
<path d="M15.625 21.25C13.2088 21.25 11.25 23.2088 11.25 25.625V28.125C11.25 30.5413 13.2088 32.5 15.625 32.5C18.0412 32.5 20 30.5413 20 28.125V25.625C20 23.2088 18.0412 21.25 15.625 21.25ZM17.5 28.125C17.5 29.1588 16.6588 30 15.625 30C14.5912 30 13.75 29.1588 13.75 28.125V25.625C13.75 24.5912 14.5912 23.75 15.625 23.75C16.6588 23.75 17.5 24.5912 17.5 25.625V28.125Z" fill="#212121"/>
<path d="M24.375 7.5C21.9588 7.5 20 9.45875 20 11.875V14.375C20 16.7913 21.9588 18.75 24.375 18.75C26.7912 18.75 28.75 16.7913 28.75 14.375V11.875C28.75 9.45875 26.7912 7.5 24.375 7.5ZM26.25 14.375C26.25 15.4088 25.4088 16.25 24.375 16.25C23.3412 16.25 22.5 15.4088 22.5 14.375V11.875C22.5 10.8412 23.3412 10 24.375 10C25.4088 10 26.25 10.8412 26.25 11.875V14.375Z" fill="#212121"/>
</g>
<defs>
<clipPath id="clip0_747_5774">
<rect width="40" height="40" fill="white"/>
</clipPath>
</defs>
</svg>
