<?xml version="1.0" encoding="UTF-8"?>
<svg xmlns="http://www.w3.org/2000/svg" width="16" height="16" viewBox="0 0 16 16" fill="none">
  <path d="M8 10C9.10457 10 10 9.10457 10 8C10 6.89543 9.10457 6 8 6C6.89543 6 6 6.89543 6 8C6 9.10457 6.89543 10 8 10Z" fill="white"></path>
  <path d="M2 5.28885V7.99985C2 8.26506 2.10536 8.51942 2.2929 8.70695C2.48043 8.89449 2.73479 8.99985 3 8.99985C3.26522 8.99985 3.51957 8.89449 3.70711 8.70695C3.89465 8.51942 4 8.26506 4 7.99985V5.28885C4.5264 5.05911 4.95765 4.65512 5.22122 4.14482C5.48479 3.63451 5.56461 3.04902 5.44727 2.48678C5.32992 1.92455 5.02257 1.41986 4.57688 1.05759C4.13119 0.695321 3.57435 0.497559 3 0.497559C2.42565 0.497559 1.86882 0.695321 1.42313 1.05759C0.977441 1.41986 0.670083 1.92455 0.552738 2.48678C0.435392 3.04902 0.515217 3.63451 0.778788 4.14482C1.04236 4.65512 1.4736 5.05911 2 5.28885Z" fill="white"></path>
  <path d="M14 10.711V8C14 7.73478 13.8946 7.48043 13.7071 7.29289C13.5196 7.10536 13.2652 7 13 7C12.7348 7 12.4804 7.10536 12.2929 7.29289C12.1054 7.48043 12 7.73478 12 8V10.711C11.4736 10.9407 11.0424 11.3447 10.7788 11.855C10.5152 12.3653 10.4354 12.9508 10.5527 13.5131C10.6701 14.0753 10.9774 14.58 11.4231 14.9423C11.8688 15.3045 12.4257 15.5023 13 15.5023C13.5744 15.5023 14.1312 15.3045 14.5769 14.9423C15.0226 14.58 15.3299 14.0753 15.4473 13.5131C15.5646 12.9508 15.4848 12.3653 15.2212 11.855C14.9576 11.3447 14.5264 10.9407 14 10.711Z" fill="white"></path>
  <path d="M8 4H10.711C10.9407 4.5264 11.3447 4.95765 11.855 5.22122C12.3653 5.48479 12.9508 5.56461 13.5131 5.44727C14.0753 5.32992 14.58 5.02257 14.9423 4.57688C15.3045 4.13119 15.5023 3.57435 15.5023 3C15.5023 2.42565 15.3045 1.86882 14.9423 1.42313C14.58 0.977441 14.0753 0.670083 13.5131 0.552738C12.9508 0.435392 12.3653 0.515217 11.855 0.778788C11.3447 1.04236 10.9407 1.4736 10.711 2H8C7.73478 2 7.48043 2.10536 7.29289 2.2929C7.10536 2.48043 7 2.73479 7 3C7 3.26522 7.10536 3.51957 7.29289 3.70711C7.48043 3.89465 7.73478 4 8 4Z" fill="white"></path>
  <path d="M7.99985 12H5.28885C5.05911 11.4736 4.65512 11.0424 4.14482 10.7788C3.63451 10.5152 3.04902 10.4354 2.48678 10.5527C1.92455 10.6701 1.41986 10.9774 1.05759 11.4231C0.695321 11.8688 0.497559 12.4257 0.497559 13C0.497559 13.5744 0.695321 14.1312 1.05759 14.5769C1.41986 15.0226 1.92455 15.3299 2.48678 15.4473C3.04902 15.5646 3.63451 15.4848 4.14482 15.2212C4.65512 14.9576 5.05911 14.5264 5.28885 14H7.99985C8.26506 14 8.51942 13.8946 8.70695 13.7071C8.89449 13.5196 8.99985 13.2652 8.99985 13C8.99985 12.7348 8.89449 12.4804 8.70695 12.2929C8.51942 12.1054 8.26506 12 7.99985 12Z" fill="white"></path>
</svg>
