<svg width="16" height="16" viewBox="0 0 16 16" fill="none" xmlns="http://www.w3.org/2000/svg">
<g clip-path="url(#clip0_701_5256)">
<path d="M6.34809 8.90115C6.57409 8.37515 9.14309 5.46715 10.2371 4.24215C10.3961 4.06315 10.6621 4.02315 10.8661 4.14615C11.0721 4.26915 11.1611 4.52115 11.0791 4.74615C11.0081 4.94315 9.32509 9.57115 9.10409 10.0852C8.86009 10.6522 8.30509 10.9932 7.72309 10.9932C7.52609 10.9932 7.32509 10.9542 7.13309 10.8712C6.37409 10.5442 6.02109 9.66115 6.34709 8.90115H6.34809Z" fill="#12D3DD"/>
<path d="M8 0C12.411 0 16 3.589 16 8C16 12.411 12.411 16 8 16C3.589 16 0 12.411 0 8C0 3.589 3.589 0 8 0ZM4.777 9C4.556 10.33 5.25 11.693 6.542 12.249C6.919 12.411 7.317 12.493 7.725 12.493C8.926 12.493 10.009 11.781 10.483 10.679C10.568 10.481 10.821 9.808 11.12 9H13.91C13.965 8.674 14 8.341 14 8C14 4.691 11.309 2 8 2C4.691 2 2 4.691 2 8C2 8.341 2.035 8.674 2.09 9H4.777Z" fill="#12D3DD"/>
</g>
<defs>
<clipPath id="clip0_701_5256">
<rect width="16" height="16" fill="white" transform="matrix(-1 0 0 1 16 0)"/>
</clipPath>
</defs>
</svg>
