<svg width="96" height="96" viewBox="0 0 96 96" fill="none" xmlns="http://www.w3.org/2000/svg">
<rect width="96" height="96" rx="24" fill="#EBEDF0"/>
<g clip-path="url(#clip0_699_4890)">
<path d="M51 49H45C44.448 49 44 49.448 44 50V63C44 63.552 44.448 64 45 64H51C51.552 64 52 63.552 52 63V50C52 49.448 51.552 49 51 49Z" fill="#090A0C"/>
<path d="M39 55H33C32.448 55 32 55.448 32 56V63C32 63.552 32.448 64 33 64H39C39.552 64 40 63.552 40 63V56C40 55.448 39.552 55 39 55Z" fill="#090A0C"/>
<path d="M63 43H57C56.448 43 56 43.448 56 44V63C56 63.552 56.448 64 57 64H63C63.552 64 64 63.552 64 63V44C64 43.448 63.552 43 63 43Z" fill="#090A0C"/>
<path d="M48 44C48.256 44 48.512 43.902 48.707 43.707L57 35.414V40H59V33C59 32.448 58.552 32 58 32H51V34H55.586L48 41.586L43.707 37.293C43.316 36.902 42.684 36.902 42.293 37.293L37.293 42.293L38.707 43.707L43 39.414L47.293 43.707C47.488 43.902 47.744 44 48 44Z" fill="#090A0C"/>
</g>
<defs>
<clipPath id="clip0_699_4890">
<rect width="32" height="32" fill="white" transform="translate(32 32)"/>
</clipPath>
</defs>
</svg>
