<svg width="61" height="60" viewBox="0 0 61 60" fill="none" xmlns="http://www.w3.org/2000/svg">
<g filter="url(#filter0_i_1_13722)">
<rect x="0.233398" width="60" height="60" rx="8" fill="url(#paint0_linear_1_13722)"/>
<rect x="0.733398" y="0.5" width="59" height="59" rx="7.5" stroke="url(#paint1_linear_1_13722)"/>
<path d="M30.4417 31.0417C31.5923 31.0417 32.5251 30.1089 32.5251 28.9583C32.5251 27.8077 31.5923 26.875 30.4417 26.875C29.2911 26.875 28.3584 27.8077 28.3584 28.9583C28.3584 30.1089 29.2911 31.0417 30.4417 31.0417Z" stroke="white" stroke-width="1.5" stroke-miterlimit="10" stroke-linecap="square"/>
<path d="M34.9439 36.3768C34.1383 34.7001 32.4273 33.542 30.4422 33.542C28.4571 33.542 26.7461 34.7001 25.9404 36.3768" stroke="white" stroke-width="1.5" stroke-miterlimit="10"/>
<path d="M30.442 21.4585L38.0197 25.8335V34.5835L30.442 38.9585L22.8643 34.5835V25.8335L30.442 21.4585Z" stroke="white" stroke-width="1.5" stroke-miterlimit="10"/>
</g>
<defs>
<filter id="filter0_i_1_13722" x="0.233398" y="0" width="60" height="64" filterUnits="userSpaceOnUse" color-interpolation-filters="sRGB">
<feFlood flood-opacity="0" result="BackgroundImageFix"/>
<feBlend mode="normal" in="SourceGraphic" in2="BackgroundImageFix" result="shape"/>
<feColorMatrix in="SourceAlpha" type="matrix" values="0 0 0 0 0 0 0 0 0 0 0 0 0 0 0 0 0 0 127 0" result="hardAlpha"/>
<feOffset dy="4"/>
<feGaussianBlur stdDeviation="4"/>
<feComposite in2="hardAlpha" operator="arithmetic" k2="-1" k3="1"/>
<feColorMatrix type="matrix" values="0 0 0 0 0.496486 0 0 0 0 0.528316 0 0 0 0 0.599933 0 0 0 0.5 0"/>
<feBlend mode="normal" in2="shape" result="effect1_innerShadow_1_13722"/>
</filter>
<linearGradient id="paint0_linear_1_13722" x1="30.2334" y1="0" x2="30.2334" y2="60" gradientUnits="userSpaceOnUse">
<stop stop-color="#6F8499" stop-opacity="0.3"/>
<stop offset="1" stop-color="#202535"/>
</linearGradient>
<linearGradient id="paint1_linear_1_13722" x1="30.2334" y1="0" x2="30.2334" y2="60" gradientUnits="userSpaceOnUse">
<stop stop-color="#57616E"/>
<stop offset="1" stop-color="#1A1E29"/>
</linearGradient>
</defs>
</svg>
