<svg width="16" height="16" viewBox="0 0 16 16" fill="none" xmlns="http://www.w3.org/2000/svg">
<path d="M6.34901 8.90091C6.57501 8.37491 9.14401 5.46691 10.238 4.24191C10.397 4.06291 10.663 4.02291 10.867 4.14591C11.073 4.26891 11.162 4.52091 11.08 4.74591C11.009 4.94291 9.32601 9.57091 9.10501 10.0849C8.86101 10.6519 8.30601 10.9929 7.72401 10.9929C7.52701 10.9929 7.32601 10.9539 7.13401 10.8709C6.37501 10.5439 6.02201 9.66091 6.34801 8.90091H6.34901Z" fill="#12D3DD"/>
<path d="M8 0C12.411 0 16 3.589 16 8C16 12.411 12.411 16 8 16C3.589 16 0 12.411 0 8C0 3.589 3.589 0 8 0ZM4.777 9C4.556 10.33 5.25 11.693 6.542 12.249C6.919 12.411 7.317 12.493 7.725 12.493C8.926 12.493 10.009 11.781 10.483 10.679C10.568 10.481 10.821 9.808 11.12 9H13.91C13.965 8.674 14 8.341 14 8C14 4.691 11.309 2 8 2C4.691 2 2 4.691 2 8C2 8.341 2.035 8.674 2.09 9H4.777Z" fill="#12D3DD"/>
</svg>
