<?xml version="1.0" encoding="UTF-8"?>
<svg xmlns="http://www.w3.org/2000/svg" width="16" height="16" viewBox="0 0 16 16" fill="none">
  <path d="M6.5 2C5.673 2 5 1.327 5 0.5C5 0.224 4.776 0 4.5 0C4.224 0 4 0.224 4 0.5C4 1.327 3.327 2 2.5 2C2.224 2 2 2.224 2 2.5C2 2.776 2.224 3 2.5 3C3.327 3 4 3.673 4 4.5C4 4.776 4.224 5 4.5 5C4.776 5 5 4.776 5 4.5C5 3.673 5.673 3 6.5 3C6.776 3 7 2.776 7 2.5C7 2.224 6.776 2 6.5 2Z" fill="white"></path>
  <path d="M11.5 3C12.327 3 13 3.673 13 4.5C13 4.776 13.224 5 13.5 5C13.776 5 14 4.776 14 4.5C14 3.673 14.673 3 15.5 3C15.776 3 16 2.776 16 2.5C16 2.224 15.776 2 15.5 2C14.673 2 14 1.327 14 0.5C14 0.224 13.776 0 13.5 0C13.224 0 13 0.224 13 0.5C13 1.327 12.327 2 11.5 2C11.224 2 11 2.224 11 2.5C11 2.776 11.224 3 11.5 3Z" fill="white"></path>
  <path d="M15.5 10.9932C14.673 10.9932 14 10.3202 14 9.49316C14 9.21716 13.776 8.99316 13.5 8.99316C13.224 8.99316 13 9.21716 13 9.49316C13 10.3202 12.327 10.9932 11.5 10.9932C11.224 10.9932 11 11.2172 11 11.4932C11 11.7692 11.224 11.9932 11.5 11.9932C12.327 11.9932 13 12.6662 13 13.4932C13 13.7692 13.224 13.9932 13.5 13.9932C13.776 13.9932 14 13.7692 14 13.4932C14 12.6662 14.673 11.9932 15.5 11.9932C15.776 11.9932 16 11.7692 16 11.4932C16 11.2172 15.776 10.9932 15.5 10.9932Z" fill="white"></path>
  <path d="M10.7082 6.29325L9.70822 5.29325C9.31722 4.90225 8.68522 4.90225 8.29422 5.29325L6.32422 7.26325L8.73822 9.67725L10.7082 7.70725C11.0992 7.31625 11.0992 6.68425 10.7082 6.29325Z" fill="white"></path>
  <path d="M5.26325 8.32324L0.29325 13.2932C-0.09775 13.6842 -0.09775 14.3162 0.29325 14.7072L1.29325 15.7072C1.48825 15.9022 1.74425 16.0002 2.00025 16.0002C2.25625 16.0002 2.51225 15.9022 2.70725 15.7072L7.67725 10.7372L5.26325 8.32324Z" fill="white"></path>
</svg>
