<svg width="96" height="96" viewBox="0 0 96 96" fill="none" xmlns="http://www.w3.org/2000/svg">
<g filter="url(#filter0_i_522_11856)">
<rect width="96" height="96" rx="24" fill="url(#paint0_linear_522_11856)"/>
<rect x="0.5" y="0.5" width="95" height="95" rx="23.5" stroke="url(#paint1_linear_522_11856)"/>
<g clip-path="url(#clip0_522_11856)">
<path d="M62.735 52.7L59.5 50.318C59.808 48.7874 59.808 47.2107 59.5 45.68L62.735 43.3C62.9319 43.1545 63.0686 42.9417 63.1191 42.7021C63.1696 42.4625 63.1304 42.2127 63.009 42L60.7 38C60.5771 37.7865 60.3797 37.6259 60.1458 37.549C59.9118 37.472 59.6576 37.4842 59.432 37.583L55.747 39.2C54.5811 38.1692 53.2212 37.3815 51.747 36.883L51.3 32.89C51.2729 32.6452 51.1564 32.4189 50.9728 32.2547C50.7891 32.0904 50.5514 31.9998 50.305 32H45.7C45.4528 31.9985 45.2138 32.0886 45.0291 32.253C44.8444 32.4174 44.7272 32.6443 44.7 32.89L44.256 36.89C42.7818 37.3885 41.4219 38.1762 40.256 39.207L36.564 37.586C36.3392 37.488 36.0862 37.4761 35.8532 37.5524C35.6201 37.6287 35.4233 37.788 35.3 38L32.991 42C32.8696 42.2127 32.8304 42.4625 32.8809 42.7021C32.9314 42.9417 33.0681 43.1545 33.265 43.3L36.5 45.682C36.192 47.2134 36.192 48.7907 36.5 50.322L33.266 52.7C33.0689 52.8454 32.932 53.0581 32.8814 53.2977C32.8307 53.5374 32.8697 53.7873 32.991 54L35.3 58C35.423 58.2131 35.6203 58.3733 35.854 58.45C36.0878 58.5268 36.3416 58.5147 36.567 58.416L40.253 56.8C41.4189 57.8308 42.7788 58.6185 44.253 59.117L44.697 63.117C44.7258 63.362 44.8442 63.5877 45.0294 63.7506C45.2145 63.9136 45.4533 64.0025 45.7 64H50.31C50.5562 64 50.7937 63.9092 50.9771 63.745C51.1605 63.5808 51.2769 63.3547 51.304 63.11L51.748 59.11C53.2223 58.6123 54.5823 57.8249 55.748 56.794L59.437 58.412C59.6615 58.5099 59.914 58.522 60.1468 58.4461C60.3796 58.3701 60.5764 58.2114 60.7 58L63 54C63.1224 53.7884 63.163 53.5393 63.1141 53.2997C63.0653 53.0602 62.9304 52.8469 62.735 52.7ZM48 53C47.0111 53 46.0444 52.7068 45.2221 52.1574C44.3999 51.608 43.759 50.8271 43.3806 49.9134C43.0022 48.9998 42.9031 47.9945 43.0961 47.0246C43.289 46.0547 43.7652 45.1637 44.4645 44.4645C45.1637 43.7652 46.0546 43.289 47.0245 43.0961C47.9945 42.9032 48.9998 43.0022 49.9134 43.3806C50.827 43.7591 51.6079 44.3999 52.1573 45.2222C52.7068 46.0444 53 47.0111 53 48C53 49.3261 52.4732 50.5979 51.5355 51.5356C50.5979 52.4732 49.3261 53 48 53Z" fill="white"/>
</g>
</g>
<defs>
<filter id="filter0_i_522_11856" x="0" y="0" width="96" height="100" filterUnits="userSpaceOnUse" color-interpolation-filters="sRGB">
<feFlood flood-opacity="0" result="BackgroundImageFix"/>
<feBlend mode="normal" in="SourceGraphic" in2="BackgroundImageFix" result="shape"/>
<feColorMatrix in="SourceAlpha" type="matrix" values="0 0 0 0 0 0 0 0 0 0 0 0 0 0 0 0 0 0 127 0" result="hardAlpha"/>
<feOffset dy="4"/>
<feGaussianBlur stdDeviation="4"/>
<feComposite in2="hardAlpha" operator="arithmetic" k2="-1" k3="1"/>
<feColorMatrix type="matrix" values="0 0 0 0 0.496486 0 0 0 0 0.528316 0 0 0 0 0.599933 0 0 0 0.5 0"/>
<feBlend mode="normal" in2="shape" result="effect1_innerShadow_522_11856"/>
</filter>
<linearGradient id="paint0_linear_522_11856" x1="48" y1="0" x2="48" y2="96" gradientUnits="userSpaceOnUse">
<stop stop-color="#6F8499" stop-opacity="0.3"/>
<stop offset="1" stop-color="#202535"/>
</linearGradient>
<linearGradient id="paint1_linear_522_11856" x1="48" y1="0" x2="48" y2="96" gradientUnits="userSpaceOnUse">
<stop stop-color="#57616E"/>
<stop offset="1" stop-color="#1A1E29"/>
</linearGradient>
<clipPath id="clip0_522_11856">
<rect width="32" height="32" fill="white" transform="translate(32 32)"/>
</clipPath>
</defs>
</svg>
