<svg width="96" height="96" viewBox="0 0 96 96" fill="none" xmlns="http://www.w3.org/2000/svg">
<g filter="url(#filter0_i_522_11890)">
<rect width="96" height="96" rx="24" fill="url(#paint0_linear_522_11890)"/>
<rect x="0.5" y="0.5" width="95" height="95" rx="23.5" stroke="url(#paint1_linear_522_11890)"/>
<g clip-path="url(#clip0_522_11890)">
<path d="M63 54H47C46.448 54 46 53.552 46 53V47C46 46.448 46.448 46 47 46H63C63.552 46 64 46.448 64 47V53C64 53.552 63.552 54 63 54Z" fill="white"/>
<path d="M63 64H47C46.448 64 46 63.552 46 63V57C46 56.448 46.448 56 47 56H63C63.552 56 64 56.448 64 57V63C64 63.552 63.552 64 63 64Z" fill="white"/>
<path d="M39 52L32 32L52 39L43 43L39 52Z" fill="white"/>
</g>
</g>
<defs>
<filter id="filter0_i_522_11890" x="0" y="0" width="96" height="100" filterUnits="userSpaceOnUse" color-interpolation-filters="sRGB">
<feFlood flood-opacity="0" result="BackgroundImageFix"/>
<feBlend mode="normal" in="SourceGraphic" in2="BackgroundImageFix" result="shape"/>
<feColorMatrix in="SourceAlpha" type="matrix" values="0 0 0 0 0 0 0 0 0 0 0 0 0 0 0 0 0 0 127 0" result="hardAlpha"/>
<feOffset dy="4"/>
<feGaussianBlur stdDeviation="4"/>
<feComposite in2="hardAlpha" operator="arithmetic" k2="-1" k3="1"/>
<feColorMatrix type="matrix" values="0 0 0 0 0.496486 0 0 0 0 0.528316 0 0 0 0 0.599933 0 0 0 0.5 0"/>
<feBlend mode="normal" in2="shape" result="effect1_innerShadow_522_11890"/>
</filter>
<linearGradient id="paint0_linear_522_11890" x1="48" y1="0" x2="48" y2="96" gradientUnits="userSpaceOnUse">
<stop stop-color="#6F8499" stop-opacity="0.3"/>
<stop offset="1" stop-color="#202535"/>
</linearGradient>
<linearGradient id="paint1_linear_522_11890" x1="48" y1="0" x2="48" y2="96" gradientUnits="userSpaceOnUse">
<stop stop-color="#57616E"/>
<stop offset="1" stop-color="#1A1E29"/>
</linearGradient>
<clipPath id="clip0_522_11890">
<rect width="32" height="32" fill="white" transform="translate(32 32)"/>
</clipPath>
</defs>
</svg>
