<svg width="96" height="96" viewBox="0 0 96 96" fill="none" xmlns="http://www.w3.org/2000/svg">
<rect width="96" height="96" rx="24" fill="#EBEDF0"/>
<g clip-path="url(#clip0_699_4921)">
<path d="M63 54H47C46.448 54 46 53.552 46 53V47C46 46.448 46.448 46 47 46H63C63.552 46 64 46.448 64 47V53C64 53.552 63.552 54 63 54Z" fill="#090A0C"/>
<path d="M63 64H47C46.448 64 46 63.552 46 63V57C46 56.448 46.448 56 47 56H63C63.552 56 64 56.448 64 57V63C64 63.552 63.552 64 63 64Z" fill="#090A0C"/>
<path d="M39 52L32 32L52 39L43 43L39 52Z" fill="#090A0C"/>
</g>
<defs>
<clipPath id="clip0_699_4921">
<rect width="32" height="32" fill="white" transform="translate(32 32)"/>
</clipPath>
</defs>
</svg>
