<svg width="40" height="40" viewBox="0 0 40 40" fill="none" xmlns="http://www.w3.org/2000/svg">
<path d="M38.75 15V31.25C38.75 33.3212 37.0712 35 35 35H5C2.92875 35 1.25 33.3212 1.25 31.25V8.75C1.25 6.67875 2.92875 5 5 5H22.5" stroke="#212121" stroke-width="2" stroke-miterlimit="10" stroke-linecap="square"/>
<path d="M10 28.75L23.75 15L31.25 28.75H10Z" stroke="#212121" stroke-width="2" stroke-miterlimit="10" stroke-linecap="square"/>
<path d="M10.625 17.5C12.3509 17.5 13.75 16.1009 13.75 14.375C13.75 12.6491 12.3509 11.25 10.625 11.25C8.89911 11.25 7.5 12.6491 7.5 14.375C7.5 16.1009 8.89911 17.5 10.625 17.5Z" stroke="#212121" stroke-width="2" stroke-miterlimit="10" stroke-linecap="square"/>
<path d="M38.75 8.75C35.2988 8.75 32.5 11.5488 32.5 15C32.5 11.5488 29.7012 8.75 26.25 8.75C29.7012 8.75 32.5 5.95125 32.5 2.5C32.5 5.95125 35.2988 8.75 38.75 8.75Z" stroke="#212121" stroke-width="2" stroke-miterlimit="10" stroke-linecap="square"/>
</svg>
