<svg width="16" height="16" viewBox="0 0 16 16" fill="none" xmlns="http://www.w3.org/2000/svg">
<g clip-path="url(#clip0_701_5261)">
<path d="M15 0H1C0.734784 0 0.48043 0.105357 0.292893 0.292893C0.105357 0.48043 0 0.734784 0 1L0 15C0 15.2652 0.105357 15.5196 0.292893 15.7071C0.48043 15.8946 0.734784 16 1 16H15C15.2652 16 15.5196 15.8946 15.7071 15.7071C15.8946 15.5196 16 15.2652 16 15V1C16 0.734784 15.8946 0.48043 15.7071 0.292893C15.5196 0.105357 15.2652 0 15 0ZM2.293 11.293L5.586 8L2.293 4.707L3.707 3.293L8.414 8L3.707 12.707L2.293 11.293ZM13 13H8V11H13V13ZM13 9H10V7H13V9ZM13 5H8V3H13V5Z" fill="#12D3DD"/>
</g>
<defs>
<clipPath id="clip0_701_5261">
<rect width="16" height="16" fill="white"/>
</clipPath>
</defs>
</svg>
