<svg width="486" height="435" viewBox="0 0 486 435" fill="none" xmlns="http://www.w3.org/2000/svg">
<g clip-path="url(#clip0_1009_1759)">
<rect width="486" height="435" rx="24" fill="#06E7CC"/>
<mask id="mask0_1009_1759" style="mask-type:alpha" maskUnits="userSpaceOnUse" x="0" y="0" width="486" height="435">
<rect width="486" height="435" rx="24" fill="url(#paint0_linear_1009_1759)"/>
</mask>
<g mask="url(#mask0_1009_1759)">
<g filter="url(#filter0_f_1009_1759)">
<path d="M1103 -85.4999C1120.5 -107 1228.5 -148 1232.5 -152C1221.67 -176.167 1197.6 -226.7 1188 -235.5C1176 -246.5 1088 -297 1062.5 -313C1037 -329 934.5 -352 876.5 -374.5C818.5 -397 596 -371.5 430.5 -374.5C298.1 -376.9 171.333 -258.5 124.5 -199V-53.9999C124.5 -40.4999 120.5 48.0001 113.5 130.5C106.5 213 102 385.5 87 477.5C72 569.5 85 774.5 87 795C88.6 811.4 175.333 801.833 218.5 795C244 762 298.9 704.1 314.5 736.5C334 777 329.5 741 373.5 719.5C417.5 698 417.5 699 452 678.5C486.5 658 466.5 670.5 477.5 664C488.5 657.5 516.5 694.5 551.5 694.5H568.5L577 706L612.5 734.5C621.333 734.833 642.1 734 654.5 728C670 720.5 696 722 708.5 716C721 710 821.5 623.5 852 569.5C882.5 515.5 859 558 859 489C857.5 463.5 854.001 467.5 846.001 453C838.001 438.5 846.001 444 846.001 430.5V403V366.5C846.001 355.5 866.501 278.5 887.001 207C902.501 181.5 895.001 198 918.501 177.5C942.001 157 936.001 161.5 963.501 130.5C991.001 99.5001 987.001 107 1009 84.5001C1031 62.0001 1020.5 72.5001 1035.5 48.0001C1050.5 23.5001 1051 11.5001 1062.5 -16.4999C1074 -44.4999 1085.5 -63.9999 1103 -85.4999Z" fill="#0371EE" fill-opacity="0.37"/>
</g>
<g filter="url(#filter1_f_1009_1759)">
<path d="M-263.315 -240.5C-272.516 -246.9 -293.482 -271.167 -302.815 -282.5H-200.815L196.685 -297.5L648.685 -270C658.685 -230 678.685 -145.3 678.685 -126.5C678.685 -103 697.685 20.5 695.685 56.5C693.685 92.5 685.685 91 678.685 113.5C671.685 136 655.185 168.5 643.685 211.5C632.185 254.5 630.685 265.5 618.185 300C605.685 334.5 591.685 347 568.185 384C544.685 421 558.185 392 534.685 406.5C511.185 421 518.185 406.5 513.185 412.5C508.185 418.5 496.685 417.5 473.185 417.5C449.685 417.5 447.685 415.5 368.185 417.5C288.685 419.5 316.716 460.932 268.185 446C235.685 436 142.685 441 147.185 369.5C149.334 335.344 167.185 354 185.685 340C204.185 326 210.185 318.5 226.685 300C243.185 281.5 235.685 291 243.685 265.5C251.686 240 246.685 249 268.185 199C281.185 178.5 279.685 188 279.685 175.5C279.685 163 290.685 164.5 298.185 151C305.685 137.5 299.185 139 298.185 113.5C297.185 88 289.685 70.5 279.685 49C269.685 27.5 257.185 21.5 235.685 7.5C214.185 -6.5 188.685 -15 147.185 -26.5C105.685 -38 65.1845 -46.5 22.6845 -60C-19.8155 -73.5 -43.8155 -81.5 -74.3155 -95.5C-104.815 -109.5 -103.815 -114 -115.315 -126.5C-126.815 -139 -129.315 -144.5 -153.815 -167C-178.315 -189.5 -251.815 -232.5 -263.315 -240.5Z" fill="#027BAF"/>
</g>
<g opacity="0.62" filter="url(#filter2_f_1009_1759)">
<path d="M255.185 -125.5C250.385 -128.3 224.518 -131.333 212.185 -132.5C206.351 -132.5 193.685 -134.3 189.685 -141.5C184.685 -150.5 175.685 -168 172.685 -207C169.685 -246 174.685 -221 202.185 -251C229.685 -281 268.185 -270 293.685 -276.5C319.184 -283 405.185 -274 466.185 -282.5C527.185 -291 582.685 -283.5 606.185 -282.5C629.685 -281.5 668.184 -265 692.684 -251C717.184 -237 708.184 -212 709.184 -189.5C710.184 -167 683.684 -125.5 662.184 -90.4998C640.684 -55.4998 643.684 -12.9998 646.684 17.5002C649.684 48.0002 617.184 99.0002 611.184 116.5C605.184 134 557.184 136 526.684 127.5C496.184 119 503.184 114.5 497.684 99.0002C492.184 83.5002 490.684 82.0002 477.684 71.5002C464.684 61.0002 465.185 65.5002 433.685 71.5002C417.185 65.0002 405.185 66.5002 414.185 1.00021C423.185 -17.4998 416.185 -16.9998 405.185 -47.4998C394.185 -77.9998 394.685 -57.9998 387.685 -63.9998C380.685 -69.9998 357.185 -68.9998 346.685 -71.9998C336.185 -74.9998 317.185 -77.4998 312.185 -84.4998C307.185 -91.4998 296.685 -103 293.685 -107C290.685 -111 261.185 -122 255.185 -125.5Z" fill="white"/>
</g>
<path d="M387 205L195 -35H-80L-188 653L598 454L387 205Z" fill="url(#paint1_linear_1009_1759)"/>
<path d="M251.412 388.888L-52.6357 343.953L-253.976 531.268L135.58 1108.55L575.5 427.471L251.412 388.888Z" fill="url(#paint2_linear_1009_1759)"/>
</g>
<g filter="url(#filter3_dd_1009_1759)">
<rect x="40" y="89" width="405" height="257" rx="16" fill="white" shape-rendering="crispEdges"/>
<rect x="56.5" y="75.5" width="372" height="284" rx="15.5" fill="white"/>
<rect x="56.5" y="75.5" width="372" height="284" rx="15.5" stroke="#C8D0D9"/>
<rect x="80" y="99" width="40" height="40" rx="8" fill="#090A0C"/>
<g clip-path="url(#clip1_1009_1759)">
<path d="M100 111L95 117H98V126C98 126.6 98.4 127 99 127H101C101.6 127 102 126.6 102 126V117H105L100 111Z" fill="white"/>
<path d="M95 122H93C92.4 122 92 122.4 92 123V126C92 126.6 92.4 127 93 127H95C95.6 127 96 126.6 96 126V123C96 122.4 95.6 122 95 122Z" fill="white"/>
<path d="M107 119H105C104.4 119 104 119.4 104 120V126C104 126.6 104.4 127 105 127H107C107.6 127 108 126.6 108 126V120C108 119.4 107.6 119 107 119Z" fill="white"/>
</g>
<path d="M142.19 126.26C141.423 126.26 140.687 126.14 139.98 125.9C139.273 125.66 138.657 125.317 138.13 124.87C137.603 124.417 137.227 123.88 137 123.26L138.95 122.53C139.063 122.85 139.28 123.137 139.6 123.39C139.927 123.637 140.313 123.83 140.76 123.97C141.213 124.11 141.69 124.18 142.19 124.18C142.723 124.18 143.223 124.093 143.69 123.92C144.163 123.747 144.543 123.507 144.83 123.2C145.123 122.893 145.27 122.533 145.27 122.12C145.27 121.693 145.117 121.343 144.81 121.07C144.51 120.797 144.123 120.58 143.65 120.42C143.183 120.26 142.697 120.14 142.19 120.06C141.21 119.9 140.33 119.667 139.55 119.36C138.777 119.053 138.163 118.623 137.71 118.07C137.263 117.517 137.04 116.797 137.04 115.91C137.04 115.077 137.277 114.35 137.75 113.73C138.23 113.11 138.86 112.63 139.64 112.29C140.427 111.943 141.277 111.77 142.19 111.77C142.943 111.77 143.67 111.89 144.37 112.13C145.077 112.363 145.697 112.707 146.23 113.16C146.77 113.607 147.157 114.15 147.39 114.79L145.42 115.5C145.307 115.173 145.09 114.89 144.77 114.65C144.45 114.403 144.063 114.21 143.61 114.07C143.163 113.93 142.69 113.86 142.19 113.86C141.657 113.853 141.157 113.94 140.69 114.12C140.23 114.293 139.853 114.533 139.56 114.84C139.267 115.147 139.12 115.503 139.12 115.91C139.12 116.41 139.257 116.79 139.53 117.05C139.803 117.31 140.17 117.503 140.63 117.63C141.097 117.75 141.617 117.86 142.19 117.96C143.11 118.107 143.96 118.35 144.74 118.69C145.527 119.03 146.157 119.483 146.63 120.05C147.11 120.61 147.35 121.3 147.35 122.12C147.35 122.947 147.11 123.673 146.63 124.3C146.157 124.92 145.527 125.403 144.74 125.75C143.96 126.09 143.11 126.26 142.19 126.26ZM157.128 116H159.208V126H157.118L157.038 124.55C156.745 125.063 156.348 125.477 155.848 125.79C155.348 126.103 154.758 126.26 154.078 126.26C153.345 126.26 152.655 126.123 152.008 125.85C151.362 125.57 150.792 125.183 150.298 124.69C149.812 124.197 149.432 123.63 149.158 122.99C148.885 122.343 148.748 121.65 148.748 120.91C148.748 120.197 148.882 119.527 149.148 118.9C149.415 118.267 149.785 117.713 150.258 117.24C150.732 116.767 151.278 116.397 151.898 116.13C152.525 115.857 153.195 115.72 153.908 115.72C154.635 115.72 155.275 115.887 155.828 116.22C156.388 116.547 156.852 116.967 157.218 117.48L157.128 116ZM154.028 124.25C154.615 124.25 155.128 124.107 155.568 123.82C156.008 123.527 156.348 123.133 156.588 122.64C156.835 122.147 156.958 121.6 156.958 121C156.958 120.393 156.835 119.843 156.588 119.35C156.342 118.857 155.998 118.467 155.558 118.18C155.125 117.887 154.615 117.74 154.028 117.74C153.448 117.74 152.918 117.887 152.438 118.18C151.958 118.473 151.578 118.867 151.298 119.36C151.018 119.853 150.878 120.4 150.878 121C150.878 121.607 151.022 122.157 151.308 122.65C151.602 123.137 151.985 123.527 152.458 123.82C152.938 124.107 153.462 124.25 154.028 124.25ZM166.553 126H163.883L160.233 115.98H162.453L165.213 123.6L167.983 115.98H170.193L166.553 126ZM171.751 116H173.831V126H171.751V116ZM172.811 114.55C172.491 114.55 172.224 114.447 172.011 114.24C171.797 114.033 171.691 113.773 171.691 113.46C171.691 113.153 171.797 112.897 172.011 112.69C172.224 112.477 172.487 112.37 172.801 112.37C173.107 112.37 173.367 112.477 173.581 112.69C173.794 112.897 173.901 113.153 173.901 113.46C173.901 113.773 173.794 114.033 173.581 114.24C173.374 114.447 173.117 114.55 172.811 114.55ZM185.165 119.73V126H183.085V120.24C183.085 119.793 182.975 119.387 182.755 119.02C182.542 118.653 182.252 118.363 181.885 118.15C181.525 117.93 181.118 117.82 180.665 117.82C180.225 117.82 179.822 117.93 179.455 118.15C179.088 118.363 178.795 118.653 178.575 119.02C178.355 119.387 178.245 119.793 178.245 120.24V126H176.165V116H178.245V117.06C178.592 116.647 179.018 116.32 179.525 116.08C180.032 115.84 180.578 115.72 181.165 115.72C181.905 115.72 182.578 115.9 183.185 116.26C183.792 116.62 184.272 117.103 184.625 117.71C184.985 118.317 185.165 118.99 185.165 119.73ZM194.576 116H196.656V126.26C196.656 126.947 196.509 127.58 196.216 128.16C195.929 128.74 195.539 129.24 195.046 129.66C194.552 130.087 193.986 130.417 193.346 130.65C192.712 130.883 192.049 131 191.356 131C190.656 131 189.982 130.85 189.336 130.55C188.689 130.257 188.119 129.857 187.626 129.35C187.139 128.843 186.776 128.27 186.536 127.63L188.446 126.77C188.579 127.183 188.792 127.55 189.086 127.87C189.386 128.19 189.732 128.443 190.126 128.63C190.526 128.817 190.936 128.91 191.356 128.91C191.769 128.91 192.166 128.843 192.546 128.71C192.932 128.583 193.276 128.403 193.576 128.17C193.882 127.937 194.126 127.657 194.306 127.33C194.486 127.003 194.576 126.647 194.576 126.26V124.57C194.249 125.077 193.829 125.487 193.316 125.8C192.802 126.107 192.206 126.26 191.526 126.26C190.819 126.26 190.152 126.123 189.526 125.85C188.899 125.577 188.349 125.2 187.876 124.72C187.402 124.233 187.032 123.673 186.766 123.04C186.499 122.407 186.366 121.727 186.366 121C186.366 120.273 186.499 119.593 186.766 118.96C187.032 118.32 187.402 117.76 187.876 117.28C188.349 116.793 188.899 116.413 189.526 116.14C190.152 115.867 190.819 115.73 191.526 115.73C192.206 115.73 192.802 115.887 193.316 116.2C193.829 116.507 194.249 116.917 194.576 117.43V116ZM191.546 124.25C192.126 124.25 192.632 124.103 193.066 123.81C193.499 123.51 193.836 123.113 194.076 122.62C194.316 122.127 194.436 121.587 194.436 121C194.436 120.4 194.312 119.857 194.066 119.37C193.826 118.877 193.489 118.483 193.056 118.19C192.622 117.89 192.119 117.74 191.546 117.74C190.986 117.74 190.472 117.887 190.006 118.18C189.546 118.473 189.179 118.867 188.906 119.36C188.632 119.853 188.496 120.4 188.496 121C188.496 121.6 188.632 122.147 188.906 122.64C189.186 123.133 189.556 123.527 190.016 123.82C190.482 124.107 190.992 124.25 191.546 124.25ZM202.055 126.19C201.529 126.157 201.015 126.05 200.515 125.87C200.015 125.69 199.575 125.447 199.195 125.14C198.822 124.827 198.542 124.46 198.355 124.04L200.125 123.28C200.212 123.46 200.362 123.637 200.575 123.81C200.795 123.983 201.052 124.127 201.345 124.24C201.639 124.347 201.945 124.4 202.265 124.4C202.579 124.4 202.869 124.357 203.135 124.27C203.409 124.177 203.632 124.037 203.805 123.85C203.979 123.663 204.065 123.44 204.065 123.18C204.065 122.887 203.965 122.66 203.765 122.5C203.572 122.333 203.329 122.207 203.035 122.12C202.742 122.033 202.449 121.95 202.155 121.87C201.502 121.723 200.902 121.523 200.355 121.27C199.815 121.01 199.385 120.68 199.065 120.28C198.745 119.873 198.585 119.377 198.585 118.79C198.585 118.15 198.759 117.597 199.105 117.13C199.452 116.657 199.905 116.293 200.465 116.04C201.032 115.787 201.635 115.66 202.275 115.66C203.075 115.66 203.809 115.83 204.475 116.17C205.142 116.51 205.652 116.977 206.005 117.57L204.355 118.55C204.255 118.35 204.105 118.17 203.905 118.01C203.705 117.85 203.479 117.723 203.225 117.63C202.972 117.53 202.709 117.473 202.435 117.46C202.095 117.447 201.779 117.487 201.485 117.58C201.199 117.667 200.969 117.807 200.795 118C200.622 118.193 200.535 118.44 200.535 118.74C200.535 119.033 200.639 119.253 200.845 119.4C201.052 119.54 201.312 119.653 201.625 119.74C201.945 119.827 202.272 119.923 202.605 120.03C203.199 120.217 203.755 120.447 204.275 120.72C204.795 120.987 205.215 121.317 205.535 121.71C205.855 122.103 206.009 122.583 205.995 123.15C205.995 123.777 205.805 124.327 205.425 124.8C205.052 125.273 204.565 125.633 203.965 125.88C203.365 126.127 202.729 126.23 202.055 126.19ZM217.333 126H215.263L211.913 116H213.952L216.312 123.02L218.653 116H220.753L223.093 123.02L225.443 116H227.483L224.143 126H222.053L219.693 118.93L217.333 126ZM229.055 116H231.135V126H229.055V116ZM230.115 114.55C229.795 114.55 229.529 114.447 229.315 114.24C229.102 114.033 228.995 113.773 228.995 113.46C228.995 113.153 229.102 112.897 229.315 112.69C229.529 112.477 229.792 112.37 230.105 112.37C230.412 112.37 230.672 112.477 230.885 112.69C231.099 112.897 231.205 113.153 231.205 113.46C231.205 113.773 231.099 114.033 230.885 114.24C230.679 114.447 230.422 114.55 230.115 114.55ZM238.808 118.08H236.708L236.698 126H234.618L234.628 118.08H233.038V116H234.628L234.618 112.86H236.698L236.708 116H238.808V118.08ZM249.598 119.73V126H247.518V120.24C247.518 119.793 247.408 119.387 247.188 119.02C246.975 118.653 246.685 118.363 246.318 118.15C245.958 117.93 245.552 117.82 245.098 117.82C244.658 117.82 244.255 117.93 243.888 118.15C243.522 118.363 243.228 118.653 243.008 119.02C242.788 119.387 242.678 119.793 242.678 120.24V126H240.598V111H242.678V117.06C243.025 116.647 243.452 116.32 243.958 116.08C244.465 115.84 245.012 115.72 245.598 115.72C246.338 115.72 247.012 115.9 247.618 116.26C248.225 116.62 248.705 117.103 249.058 117.71C249.418 118.317 249.598 118.99 249.598 119.73ZM262.889 126.26C261.916 126.26 261.009 126.073 260.169 125.7C259.336 125.32 258.606 124.797 257.979 124.13C257.359 123.457 256.873 122.68 256.519 121.8C256.173 120.92 255.999 119.983 255.999 118.99C255.999 117.943 256.186 116.98 256.559 116.1C256.933 115.22 257.443 114.457 258.089 113.81C258.736 113.157 259.473 112.65 260.299 112.29C261.133 111.93 262.006 111.75 262.919 111.75C263.953 111.75 264.946 111.99 265.899 112.47C266.853 112.95 267.683 113.67 268.389 114.63L266.529 115.64C266.049 115.04 265.489 114.587 264.849 114.28C264.216 113.973 263.566 113.82 262.899 113.82C262.253 113.82 261.639 113.953 261.059 114.22C260.479 114.48 259.966 114.847 259.519 115.32C259.073 115.787 258.719 116.337 258.459 116.97C258.206 117.597 258.079 118.28 258.079 119.02C258.079 119.733 258.203 120.403 258.449 121.03C258.703 121.657 259.049 122.207 259.489 122.68C259.936 123.147 260.449 123.513 261.029 123.78C261.616 124.047 262.243 124.18 262.909 124.18C263.403 124.18 263.876 124.1 264.329 123.94C264.783 123.78 265.203 123.553 265.589 123.26C265.983 122.96 266.326 122.603 266.619 122.19C266.913 121.777 267.146 121.317 267.319 120.81H264.349V118.97H269.759C269.773 119.97 269.599 120.91 269.239 121.79C268.886 122.67 268.393 123.447 267.759 124.12C267.133 124.787 266.403 125.31 265.569 125.69C264.736 126.07 263.843 126.26 262.889 126.26ZM275.916 126.26C274.996 126.26 274.156 126.023 273.396 125.55C272.643 125.077 272.04 124.443 271.586 123.65C271.14 122.85 270.916 121.967 270.916 121C270.916 120.267 271.046 119.583 271.306 118.95C271.566 118.31 271.923 117.75 272.376 117.27C272.836 116.783 273.37 116.403 273.976 116.13C274.583 115.857 275.23 115.72 275.916 115.72C276.683 115.72 277.386 115.88 278.026 116.2C278.666 116.513 279.213 116.95 279.666 117.51C280.12 118.063 280.453 118.703 280.666 119.43C280.88 120.15 280.943 120.917 280.856 121.73H273.146C273.233 122.19 273.4 122.607 273.646 122.98C273.9 123.347 274.22 123.637 274.606 123.85C275 124.063 275.436 124.173 275.916 124.18C276.423 124.18 276.883 124.053 277.296 123.8C277.716 123.547 278.06 123.197 278.326 122.75L280.436 123.24C280.036 124.127 279.433 124.853 278.626 125.42C277.82 125.98 276.916 126.26 275.916 126.26ZM273.076 120.14H278.756C278.69 119.66 278.52 119.227 278.246 118.84C277.98 118.447 277.643 118.137 277.236 117.91C276.836 117.677 276.396 117.56 275.916 117.56C275.443 117.56 275.003 117.673 274.596 117.9C274.196 118.127 273.863 118.437 273.596 118.83C273.336 119.217 273.163 119.653 273.076 120.14ZM291.513 119.73V126H289.433V120.24C289.433 119.793 289.323 119.387 289.103 119.02C288.889 118.653 288.599 118.363 288.233 118.15C287.873 117.93 287.466 117.82 287.013 117.82C286.573 117.82 286.169 117.93 285.803 118.15C285.436 118.363 285.143 118.653 284.923 119.02C284.703 119.387 284.593 119.793 284.593 120.24V126H282.513V116H284.593V117.06C284.939 116.647 285.366 116.32 285.873 116.08C286.379 115.84 286.926 115.72 287.513 115.72C288.253 115.72 288.926 115.9 289.533 116.26C290.139 116.62 290.619 117.103 290.973 117.71C291.333 118.317 291.513 118.99 291.513 119.73ZM298.199 112H300.629L305.719 126H303.519L302.549 123.34H296.279L295.319 126H293.109L298.199 112ZM297.049 121.26H301.779L299.409 114.76L297.049 121.26ZM307.793 126V112H309.873V126H307.793Z" fill="#090A0C"/>
<path d="M83.648 175.12C83.072 175.12 82.576 175.024 82.16 174.832C81.752 174.64 81.436 174.364 81.212 174.004C80.988 173.644 80.872 173.216 80.864 172.72H81.944C81.944 173.16 82.092 173.508 82.388 173.764C82.692 174.02 83.112 174.148 83.648 174.148C84.152 174.148 84.544 174.024 84.824 173.776C85.112 173.528 85.256 173.184 85.256 172.744C85.256 172.392 85.16 172.084 84.968 171.82C84.784 171.556 84.516 171.372 84.164 171.268L82.976 170.896C82.376 170.712 81.912 170.404 81.584 169.972C81.264 169.54 81.104 169.032 81.104 168.448C81.104 167.976 81.208 167.568 81.416 167.224C81.632 166.872 81.932 166.6 82.316 166.408C82.7 166.208 83.152 166.108 83.672 166.108C84.44 166.108 85.056 166.324 85.52 166.756C85.984 167.18 86.22 167.748 86.228 168.46H85.148C85.148 168.028 85.016 167.692 84.752 167.452C84.496 167.204 84.132 167.08 83.66 167.08C83.196 167.08 82.832 167.192 82.568 167.416C82.312 167.64 82.184 167.952 82.184 168.352C82.184 168.712 82.28 169.024 82.472 169.288C82.664 169.552 82.94 169.74 83.3 169.852L84.5 170.236C85.084 170.42 85.536 170.732 85.856 171.172C86.176 171.612 86.336 172.128 86.336 172.72C86.336 173.2 86.224 173.62 86 173.98C85.776 174.34 85.46 174.62 85.052 174.82C84.652 175.02 84.184 175.12 83.648 175.12ZM88.9953 175L91.2753 166.24H92.7273L94.9953 175H93.9033L93.3273 172.672H90.6753L90.0993 175H88.9953ZM90.8913 171.76H93.0993L92.4273 169.06C92.2993 168.548 92.1993 168.12 92.1273 167.776C92.0553 167.432 92.0113 167.208 91.9953 167.104C91.9793 167.208 91.9353 167.432 91.8633 167.776C91.7913 168.12 91.6913 168.544 91.5633 169.048L90.8913 171.76ZM99.6466 175L97.3906 166.24H98.5066L99.9946 172.192C100.099 172.608 100.187 172.996 100.259 173.356C100.331 173.708 100.383 173.976 100.415 174.16C100.447 173.976 100.495 173.708 100.559 173.356C100.631 172.996 100.719 172.608 100.823 172.192L102.299 166.24H103.391L101.123 175H99.6466ZM106.446 175V174.016H108.234V167.224H106.446V166.24H111.126V167.224H109.338V174.016H111.126V175H106.446ZM114.661 175V166.24H116.101L118.777 173.74C118.761 173.54 118.741 173.296 118.717 173.008C118.701 172.712 118.685 172.404 118.669 172.084C118.661 171.756 118.657 171.448 118.657 171.16V166.24H119.701V175H118.261L115.597 167.5C115.613 167.692 115.629 167.936 115.645 168.232C115.661 168.52 115.673 168.828 115.681 169.156C115.697 169.476 115.705 169.784 115.705 170.08V175H114.661ZM125.625 175.12C125.097 175.12 124.637 175.02 124.245 174.82C123.861 174.62 123.561 174.332 123.345 173.956C123.137 173.572 123.033 173.12 123.033 172.6V168.64C123.033 168.112 123.137 167.66 123.345 167.284C123.561 166.908 123.861 166.62 124.245 166.42C124.637 166.22 125.097 166.12 125.625 166.12C126.153 166.12 126.609 166.224 126.993 166.432C127.377 166.632 127.673 166.92 127.881 167.296C128.089 167.672 128.193 168.12 128.193 168.64H127.113C127.113 168.144 126.981 167.764 126.717 167.5C126.461 167.228 126.097 167.092 125.625 167.092C125.153 167.092 124.781 167.224 124.509 167.488C124.245 167.752 124.113 168.132 124.113 168.628V172.6C124.113 173.096 124.245 173.48 124.509 173.752C124.781 174.024 125.153 174.16 125.625 174.16C126.097 174.16 126.461 174.024 126.717 173.752C126.981 173.48 127.113 173.096 127.113 172.6V171.52H125.337V170.536H128.193V172.6C128.193 173.112 128.089 173.56 127.881 173.944C127.673 174.32 127.377 174.612 126.993 174.82C126.609 175.02 126.153 175.12 125.625 175.12ZM134.02 175.12C133.444 175.12 132.948 175.024 132.532 174.832C132.124 174.64 131.808 174.364 131.584 174.004C131.36 173.644 131.244 173.216 131.236 172.72H132.316C132.316 173.16 132.464 173.508 132.76 173.764C133.064 174.02 133.484 174.148 134.02 174.148C134.524 174.148 134.916 174.024 135.196 173.776C135.484 173.528 135.628 173.184 135.628 172.744C135.628 172.392 135.532 172.084 135.34 171.82C135.156 171.556 134.888 171.372 134.536 171.268L133.348 170.896C132.748 170.712 132.284 170.404 131.956 169.972C131.636 169.54 131.476 169.032 131.476 168.448C131.476 167.976 131.58 167.568 131.788 167.224C132.004 166.872 132.304 166.6 132.688 166.408C133.072 166.208 133.524 166.108 134.044 166.108C134.812 166.108 135.428 166.324 135.892 166.756C136.356 167.18 136.592 167.748 136.6 168.46H135.52C135.52 168.028 135.388 167.692 135.124 167.452C134.868 167.204 134.504 167.08 134.032 167.08C133.568 167.08 133.204 167.192 132.94 167.416C132.684 167.64 132.556 167.952 132.556 168.352C132.556 168.712 132.652 169.024 132.844 169.288C133.036 169.552 133.312 169.74 133.672 169.852L134.872 170.236C135.456 170.42 135.908 170.732 136.228 171.172C136.548 171.612 136.708 172.128 136.708 172.72C136.708 173.2 136.596 173.62 136.372 173.98C136.148 174.34 135.832 174.62 135.424 174.82C135.024 175.02 134.556 175.12 134.02 175.12ZM152.982 176.44C151.846 176.16 150.962 175.608 150.33 174.784C149.698 173.96 149.382 172.952 149.382 171.76V169.6C149.382 168.816 149.526 168.108 149.814 167.476C150.11 166.836 150.526 166.296 151.062 165.856C151.606 165.416 152.246 165.104 152.982 164.92V165.94C152.47 166.06 152.026 166.292 151.65 166.636C151.274 166.972 150.982 167.392 150.774 167.896C150.566 168.4 150.462 168.968 150.462 169.6V171.76C150.462 172.376 150.562 172.936 150.762 173.44C150.97 173.944 151.262 174.364 151.638 174.7C152.022 175.028 152.47 175.252 152.982 175.372V176.44ZM159.206 175.12C158.678 175.12 158.218 175.02 157.826 174.82C157.442 174.62 157.142 174.332 156.926 173.956C156.718 173.572 156.614 173.12 156.614 172.6V168.64C156.614 168.112 156.718 167.66 156.926 167.284C157.142 166.908 157.442 166.62 157.826 166.42C158.218 166.22 158.678 166.12 159.206 166.12C159.734 166.12 160.19 166.224 160.574 166.432C160.958 166.632 161.254 166.92 161.462 167.296C161.67 167.672 161.774 168.12 161.774 168.64H160.694C160.694 168.144 160.562 167.764 160.298 167.5C160.042 167.228 159.678 167.092 159.206 167.092C158.734 167.092 158.362 167.224 158.09 167.488C157.826 167.752 157.694 168.132 157.694 168.628V172.6C157.694 173.096 157.826 173.48 158.09 173.752C158.362 174.024 158.734 174.16 159.206 174.16C159.678 174.16 160.042 174.024 160.298 173.752C160.562 173.48 160.694 173.096 160.694 172.6V171.52H158.918V170.536H161.774V172.6C161.774 173.112 161.67 173.56 161.462 173.944C161.254 174.32 160.958 174.612 160.574 174.82C160.19 175.02 159.734 175.12 159.206 175.12ZM167.553 175.12C167.025 175.12 166.569 175.02 166.185 174.82C165.809 174.62 165.517 174.332 165.309 173.956C165.109 173.572 165.009 173.12 165.009 172.6V168.64C165.009 168.112 165.109 167.66 165.309 167.284C165.517 166.908 165.809 166.62 166.185 166.42C166.569 166.22 167.025 166.12 167.553 166.12C168.081 166.12 168.533 166.22 168.909 166.42C169.293 166.62 169.585 166.908 169.785 167.284C169.993 167.66 170.097 168.108 170.097 168.628V172.6C170.097 173.12 169.993 173.572 169.785 173.956C169.585 174.332 169.293 174.62 168.909 174.82C168.533 175.02 168.081 175.12 167.553 175.12ZM167.553 174.148C168.025 174.148 168.385 174.016 168.633 173.752C168.889 173.48 169.017 173.096 169.017 172.6V168.64C169.017 168.144 168.889 167.764 168.633 167.5C168.385 167.228 168.025 167.092 167.553 167.092C167.089 167.092 166.729 167.228 166.473 167.5C166.217 167.764 166.089 168.144 166.089 168.64V172.6C166.089 173.096 166.217 173.48 166.473 173.752C166.729 174.016 167.089 174.148 167.553 174.148ZM172.948 175L175.228 166.24H176.68L178.948 175H177.856L177.28 172.672H174.628L174.052 175H172.948ZM174.844 171.76H177.052L176.38 169.06C176.252 168.548 176.152 168.12 176.08 167.776C176.008 167.432 175.964 167.208 175.948 167.104C175.932 167.208 175.888 167.432 175.816 167.776C175.744 168.12 175.644 168.544 175.516 169.048L174.844 171.76ZM182.124 175V166.24H183.204V174.016H187.164V175H182.124ZM200.834 176.68V175.108C200.082 175.044 199.49 174.804 199.058 174.388C198.634 173.964 198.414 173.408 198.398 172.72H199.478C199.478 173.112 199.594 173.432 199.826 173.68C200.066 173.928 200.402 174.08 200.834 174.136V170.992L200.51 170.896C199.91 170.712 199.446 170.404 199.118 169.972C198.798 169.54 198.638 169.032 198.638 168.448C198.638 167.808 198.834 167.28 199.226 166.864C199.626 166.448 200.162 166.208 200.834 166.144V164.56H201.554V166.132C202.218 166.196 202.75 166.436 203.15 166.852C203.55 167.268 203.754 167.804 203.762 168.46H202.682C202.682 168.084 202.582 167.78 202.382 167.548C202.19 167.308 201.914 167.16 201.554 167.104V170.08L202.034 170.236C202.618 170.42 203.07 170.732 203.39 171.172C203.71 171.612 203.87 172.128 203.87 172.72C203.87 173.376 203.658 173.92 203.234 174.352C202.818 174.784 202.258 175.036 201.554 175.108V176.68H200.834ZM201.554 174.136C201.946 174.072 202.25 173.92 202.466 173.68C202.682 173.44 202.79 173.128 202.79 172.744C202.79 172.392 202.694 172.084 202.502 171.82C202.318 171.556 202.05 171.372 201.698 171.268L201.554 171.22V174.136ZM200.834 170.332V167.104C200.482 167.16 200.206 167.296 200.006 167.512C199.814 167.728 199.718 168.008 199.718 168.352C199.718 168.768 199.846 169.12 200.102 169.408C200.358 169.688 200.726 169.864 201.206 169.936L200.834 170.332ZM210.85 175V173.08H206.89V171.388L210.358 166.24H211.534L207.97 171.616V172.096H210.85V169.96H211.93V175H210.85ZM217.925 175.12C217.389 175.12 216.921 175.016 216.521 174.808C216.129 174.592 215.825 174.292 215.609 173.908C215.393 173.516 215.285 173.06 215.285 172.54V168.7C215.285 168.172 215.393 167.716 215.609 167.332C215.825 166.948 216.129 166.652 216.521 166.444C216.921 166.228 217.389 166.12 217.925 166.12C218.469 166.12 218.937 166.228 219.329 166.444C219.721 166.652 220.025 166.948 220.241 167.332C220.457 167.716 220.565 168.172 220.565 168.7V172.54C220.565 173.06 220.457 173.516 220.241 173.908C220.025 174.292 219.717 174.592 219.317 174.808C218.925 175.016 218.461 175.12 217.925 175.12ZM217.925 174.196C218.405 174.196 218.789 174.044 219.077 173.74C219.373 173.428 219.521 173.028 219.521 172.54V168.7C219.521 168.212 219.373 167.816 219.077 167.512C218.789 167.2 218.405 167.044 217.925 167.044C217.445 167.044 217.057 167.2 216.761 167.512C216.473 167.816 216.329 168.212 216.329 168.7V172.54C216.329 173.028 216.473 173.428 216.761 173.74C217.057 174.044 217.445 174.196 217.925 174.196ZM217.925 171.328C217.709 171.328 217.533 171.26 217.397 171.124C217.269 170.988 217.205 170.808 217.205 170.584C217.205 170.368 217.269 170.196 217.397 170.068C217.533 169.932 217.709 169.864 217.925 169.864C218.141 169.864 218.313 169.932 218.441 170.068C218.577 170.196 218.645 170.368 218.645 170.584C218.645 170.808 218.577 170.988 218.441 171.124C218.313 171.26 218.141 171.328 217.925 171.328ZM223.824 175V166.24H224.904V169.996H226.2L228.144 166.24H229.32L227.148 170.452L229.44 175H228.204L226.164 170.944H224.904V175H223.824ZM232.496 176.44V175.372C233.016 175.252 233.464 175.028 233.84 174.7C234.216 174.364 234.504 173.944 234.704 173.44C234.912 172.936 235.016 172.376 235.016 171.76V169.6C235.016 168.968 234.912 168.4 234.704 167.896C234.496 167.392 234.204 166.972 233.828 166.636C233.452 166.292 233.008 166.06 232.496 165.94V164.92C233.24 165.104 233.88 165.416 234.416 165.856C234.952 166.296 235.364 166.836 235.652 167.476C235.948 168.108 236.096 168.816 236.096 169.6V171.76C236.096 172.952 235.78 173.96 235.148 174.784C234.516 175.608 233.632 176.16 232.496 176.44Z" fill="#65717F"/>
<path d="M373.08 175V174.016H375.456V167.14L373.08 168.916V167.716L375.06 166.24H376.536V174.016H378.48V175H373.08ZM383.995 175.12C383.459 175.12 382.991 175.016 382.591 174.808C382.199 174.592 381.895 174.292 381.679 173.908C381.463 173.516 381.355 173.06 381.355 172.54V168.7C381.355 168.172 381.463 167.716 381.679 167.332C381.895 166.948 382.199 166.652 382.591 166.444C382.991 166.228 383.459 166.12 383.995 166.12C384.539 166.12 385.007 166.228 385.399 166.444C385.791 166.652 386.095 166.948 386.311 167.332C386.527 167.716 386.635 168.172 386.635 168.7V172.54C386.635 173.06 386.527 173.516 386.311 173.908C386.095 174.292 385.787 174.592 385.387 174.808C384.995 175.016 384.531 175.12 383.995 175.12ZM383.995 174.196C384.475 174.196 384.859 174.044 385.147 173.74C385.443 173.428 385.591 173.028 385.591 172.54V168.7C385.591 168.212 385.443 167.816 385.147 167.512C384.859 167.2 384.475 167.044 383.995 167.044C383.515 167.044 383.127 167.2 382.831 167.512C382.543 167.816 382.399 168.212 382.399 168.7V172.54C382.399 173.028 382.543 173.428 382.831 173.74C383.127 174.044 383.515 174.196 383.995 174.196ZM383.995 171.328C383.779 171.328 383.603 171.26 383.467 171.124C383.339 170.988 383.275 170.808 383.275 170.584C383.275 170.368 383.339 170.196 383.467 170.068C383.603 169.932 383.779 169.864 383.995 169.864C384.211 169.864 384.383 169.932 384.511 170.068C384.647 170.196 384.715 170.368 384.715 170.584C384.715 170.808 384.647 170.988 384.511 171.124C384.383 171.26 384.211 171.328 383.995 171.328ZM392.391 175.12C391.855 175.12 391.387 175.016 390.987 174.808C390.595 174.592 390.291 174.292 390.075 173.908C389.859 173.516 389.751 173.06 389.751 172.54V168.7C389.751 168.172 389.859 167.716 390.075 167.332C390.291 166.948 390.595 166.652 390.987 166.444C391.387 166.228 391.855 166.12 392.391 166.12C392.935 166.12 393.403 166.228 393.795 166.444C394.187 166.652 394.491 166.948 394.707 167.332C394.923 167.716 395.031 168.172 395.031 168.7V172.54C395.031 173.06 394.923 173.516 394.707 173.908C394.491 174.292 394.183 174.592 393.783 174.808C393.391 175.016 392.927 175.12 392.391 175.12ZM392.391 174.196C392.871 174.196 393.255 174.044 393.543 173.74C393.839 173.428 393.987 173.028 393.987 172.54V168.7C393.987 168.212 393.839 167.816 393.543 167.512C393.255 167.2 392.871 167.044 392.391 167.044C391.911 167.044 391.523 167.2 391.227 167.512C390.939 167.816 390.795 168.212 390.795 168.7V172.54C390.795 173.028 390.939 173.428 391.227 173.74C391.523 174.044 391.911 174.196 392.391 174.196ZM392.391 171.328C392.175 171.328 391.999 171.26 391.863 171.124C391.735 170.988 391.671 170.808 391.671 170.584C391.671 170.368 391.735 170.196 391.863 170.068C391.999 169.932 392.175 169.864 392.391 169.864C392.607 169.864 392.779 169.932 392.907 170.068C393.043 170.196 393.111 170.368 393.111 170.584C393.111 170.808 393.043 170.988 392.907 171.124C392.779 171.26 392.607 171.328 392.391 171.328ZM397.354 175L403.33 166.24H404.218L398.242 175H397.354ZM402.526 175.06C402.022 175.06 401.618 174.916 401.314 174.628C401.01 174.34 400.858 173.944 400.858 173.44V172.66C400.858 172.156 401.01 171.76 401.314 171.472C401.618 171.184 402.022 171.04 402.526 171.04C403.03 171.04 403.434 171.184 403.738 171.472C404.042 171.76 404.194 172.156 404.194 172.66V173.44C404.194 173.944 404.042 174.34 403.738 174.628C403.434 174.916 403.03 175.06 402.526 175.06ZM402.526 174.232C403.046 174.232 403.306 173.968 403.306 173.44V172.66C403.306 172.124 403.046 171.856 402.526 171.856C402.006 171.856 401.746 172.124 401.746 172.66V173.44C401.746 173.968 402.006 174.232 402.526 174.232ZM399.046 170.2C398.542 170.2 398.138 170.056 397.834 169.768C397.53 169.48 397.378 169.084 397.378 168.58V167.8C397.378 167.296 397.53 166.9 397.834 166.612C398.138 166.324 398.542 166.18 399.046 166.18C399.55 166.18 399.954 166.324 400.258 166.612C400.562 166.9 400.714 167.296 400.714 167.8V168.58C400.714 169.084 400.562 169.48 400.258 169.768C399.954 170.056 399.55 170.2 399.046 170.2ZM399.046 169.384C399.566 169.384 399.826 169.116 399.826 168.58V167.8C399.826 167.264 399.566 166.996 399.046 166.996C398.79 166.996 398.594 167.064 398.458 167.2C398.33 167.328 398.266 167.528 398.266 167.8V168.58C398.266 168.852 398.33 169.056 398.458 169.192C398.594 169.32 398.79 169.384 399.046 169.384Z" fill="#65717F"/>
<rect x="120" y="203" width="285" height="53" rx="4" fill="url(#paint3_linear_1009_1759)"/>
<rect x="80" y="203" width="32" height="53" rx="4" fill="#EBEDF0"/>
<rect x="80" y="280" width="16" height="16" rx="4" fill="#0371EE"/>
<path d="M110.672 300.36V297.216C109.168 297.104 107.984 296.632 107.12 295.8C106.272 294.952 105.832 293.84 105.8 292.464H107.72C107.72 293.312 107.976 294.008 108.488 294.552C109.016 295.08 109.744 295.4 110.672 295.512V288.84L110.024 288.648C108.824 288.296 107.896 287.696 107.24 286.848C106.6 285.984 106.28 284.976 106.28 283.824C106.28 282.544 106.672 281.496 107.456 280.68C108.256 279.864 109.328 279.4 110.672 279.288V276.12H111.968V279.264C113.296 279.376 114.36 279.848 115.16 280.68C115.96 281.512 116.36 282.584 116.36 283.896H114.464C114.464 283.08 114.24 282.416 113.792 281.904C113.36 281.392 112.752 281.08 111.968 280.968V287.256L112.856 287.544C114.04 287.912 114.96 288.536 115.616 289.416C116.272 290.296 116.6 291.328 116.6 292.512C116.6 293.824 116.176 294.904 115.328 295.752C114.496 296.6 113.376 297.088 111.968 297.216V300.36H110.672ZM111.968 295.512C112.832 295.384 113.496 295.072 113.96 294.576C114.44 294.064 114.68 293.392 114.68 292.56C114.68 291.792 114.472 291.128 114.056 290.568C113.64 289.992 113.056 289.592 112.304 289.368L111.968 289.272V295.512ZM110.672 287.544V280.968C109.888 281.08 109.28 281.368 108.848 281.832C108.416 282.296 108.2 282.904 108.2 283.656C108.2 284.488 108.448 285.2 108.944 285.792C109.456 286.384 110.176 286.768 111.104 286.944L110.672 287.544ZM125.327 297.24C124.303 297.24 123.399 297.032 122.615 296.616C121.847 296.2 121.247 295.624 120.815 294.888C120.399 294.136 120.191 293.264 120.191 292.272H122.111C122.111 293.296 122.399 294.096 122.975 294.672C123.551 295.248 124.343 295.536 125.351 295.536C126.375 295.536 127.167 295.24 127.727 294.648C128.303 294.04 128.591 293.248 128.591 292.272V290.88C128.591 289.84 128.303 289.04 127.727 288.48C127.167 287.904 126.375 287.616 125.351 287.616H123.695V285.744L128.111 281.208H120.887V279.48H130.031V281.376L125.375 286.176V285.936C126.943 285.936 128.191 286.384 129.119 287.28C130.047 288.16 130.511 289.36 130.511 290.88V292.272C130.511 293.264 130.295 294.136 129.863 294.888C129.431 295.624 128.823 296.2 128.039 296.616C127.271 297.032 126.367 297.24 125.327 297.24ZM137.437 297L142.429 288.96L142.333 288.888C142.045 289.288 141.629 289.624 141.085 289.896C140.541 290.152 139.917 290.28 139.213 290.28C138.269 290.28 137.445 290.056 136.741 289.608C136.037 289.16 135.493 288.528 135.109 287.712C134.725 286.896 134.533 285.944 134.533 284.856C134.533 283.72 134.757 282.736 135.205 281.904C135.653 281.072 136.285 280.424 137.101 279.96C137.933 279.48 138.885 279.24 139.957 279.24C141.061 279.24 142.021 279.48 142.837 279.96C143.669 280.424 144.309 281.072 144.757 281.904C145.205 282.736 145.429 283.72 145.429 284.856C145.429 285.688 145.309 286.52 145.069 287.352C144.845 288.168 144.493 288.96 144.013 289.728L139.549 297H137.437ZM139.981 288.696C141.053 288.696 141.909 288.344 142.549 287.64C143.205 286.936 143.533 286 143.533 284.832C143.549 283.664 143.229 282.728 142.573 282.024C141.917 281.304 141.053 280.944 139.981 280.944C138.909 280.944 138.045 281.304 137.389 282.024C136.749 282.728 136.429 283.672 136.429 284.856C136.429 286.008 136.749 286.936 137.389 287.64C138.045 288.344 138.909 288.696 139.981 288.696ZM168.763 297.24C167.739 297.24 166.851 297.04 166.099 296.64C165.363 296.24 164.795 295.672 164.395 294.936C164.011 294.184 163.819 293.296 163.819 292.272V284.208C163.819 283.184 164.011 282.304 164.395 281.568C164.795 280.816 165.363 280.24 166.099 279.84C166.851 279.44 167.739 279.24 168.763 279.24C169.787 279.24 170.667 279.44 171.403 279.84C172.155 280.24 172.723 280.816 173.107 281.568C173.507 282.304 173.707 283.184 173.707 284.208V292.272C173.707 293.296 173.507 294.184 173.107 294.936C172.723 295.672 172.155 296.24 171.403 296.64C170.667 297.04 169.787 297.24 168.763 297.24ZM168.763 295.56C169.755 295.56 170.507 295.28 171.019 294.72C171.547 294.144 171.811 293.328 171.811 292.272V284.208C171.811 283.152 171.547 282.344 171.019 281.784C170.491 281.208 169.739 280.92 168.763 280.92C167.787 280.92 167.035 281.208 166.507 281.784C165.979 282.344 165.715 283.152 165.715 284.208V292.272C165.715 293.328 165.979 294.144 166.507 294.72C167.035 295.28 167.787 295.56 168.763 295.56ZM163.939 292.368L172.003 284.04L173.587 284.112L165.523 292.44L163.939 292.368ZM183.153 297.24C182.129 297.24 181.241 297.04 180.489 296.64C179.753 296.24 179.185 295.672 178.785 294.936C178.401 294.184 178.209 293.296 178.209 292.272V284.208C178.209 283.184 178.401 282.304 178.785 281.568C179.185 280.816 179.753 280.24 180.489 279.84C181.241 279.44 182.129 279.24 183.153 279.24C184.177 279.24 185.057 279.44 185.793 279.84C186.545 280.24 187.113 280.816 187.497 281.568C187.897 282.304 188.097 283.184 188.097 284.208V292.272C188.097 293.296 187.897 294.184 187.497 294.936C187.113 295.672 186.545 296.24 185.793 296.64C185.057 297.04 184.177 297.24 183.153 297.24ZM183.153 295.56C184.145 295.56 184.897 295.28 185.409 294.72C185.937 294.144 186.201 293.328 186.201 292.272V284.208C186.201 283.152 185.937 282.344 185.409 281.784C184.881 281.208 184.129 280.92 183.153 280.92C182.177 280.92 181.425 281.208 180.897 281.784C180.369 282.344 180.105 283.152 180.105 284.208V292.272C180.105 293.328 180.369 294.144 180.897 294.72C181.425 295.28 182.177 295.56 183.153 295.56ZM178.329 292.368L186.393 284.04L187.977 284.112L179.913 292.44L178.329 292.368ZM197.544 297.24C196.52 297.24 195.632 297.04 194.88 296.64C194.144 296.24 193.576 295.672 193.176 294.936C192.792 294.184 192.6 293.296 192.6 292.272V284.208C192.6 283.184 192.792 282.304 193.176 281.568C193.576 280.816 194.144 280.24 194.88 279.84C195.632 279.44 196.52 279.24 197.544 279.24C198.568 279.24 199.448 279.44 200.184 279.84C200.936 280.24 201.504 280.816 201.888 281.568C202.288 282.304 202.488 283.184 202.488 284.208V292.272C202.488 293.296 202.288 294.184 201.888 294.936C201.504 295.672 200.936 296.24 200.184 296.64C199.448 297.04 198.568 297.24 197.544 297.24ZM197.544 295.56C198.536 295.56 199.288 295.28 199.8 294.72C200.328 294.144 200.592 293.328 200.592 292.272V284.208C200.592 283.152 200.328 282.344 199.8 281.784C199.272 281.208 198.52 280.92 197.544 280.92C196.568 280.92 195.816 281.208 195.288 281.784C194.76 282.344 194.496 283.152 194.496 284.208V292.272C194.496 293.328 194.76 294.144 195.288 294.72C195.816 295.28 196.568 295.56 197.544 295.56ZM192.72 292.368L200.784 284.04L202.368 284.112L194.304 292.44L192.72 292.368Z" fill="#090A0C"/>
<path d="M83.648 328.12C83.072 328.12 82.576 328.024 82.16 327.832C81.752 327.64 81.436 327.364 81.212 327.004C80.988 326.644 80.872 326.216 80.864 325.72H81.944C81.944 326.16 82.092 326.508 82.388 326.764C82.692 327.02 83.112 327.148 83.648 327.148C84.152 327.148 84.544 327.024 84.824 326.776C85.112 326.528 85.256 326.184 85.256 325.744C85.256 325.392 85.16 325.084 84.968 324.82C84.784 324.556 84.516 324.372 84.164 324.268L82.976 323.896C82.376 323.712 81.912 323.404 81.584 322.972C81.264 322.54 81.104 322.032 81.104 321.448C81.104 320.976 81.208 320.568 81.416 320.224C81.632 319.872 81.932 319.6 82.316 319.408C82.7 319.208 83.152 319.108 83.672 319.108C84.44 319.108 85.056 319.324 85.52 319.756C85.984 320.18 86.22 320.748 86.228 321.46H85.148C85.148 321.028 85.016 320.692 84.752 320.452C84.496 320.204 84.132 320.08 83.66 320.08C83.196 320.08 82.832 320.192 82.568 320.416C82.312 320.64 82.184 320.952 82.184 321.352C82.184 321.712 82.28 322.024 82.472 322.288C82.664 322.552 82.94 322.74 83.3 322.852L84.5 323.236C85.084 323.42 85.536 323.732 85.856 324.172C86.176 324.612 86.336 325.128 86.336 325.72C86.336 326.2 86.224 326.62 86 326.98C85.776 327.34 85.46 327.62 85.052 327.82C84.652 328.02 84.184 328.12 83.648 328.12ZM88.9953 328L91.2753 319.24H92.7273L94.9953 328H93.9033L93.3273 325.672H90.6753L90.0993 328H88.9953ZM90.8913 324.76H93.0993L92.4273 322.06C92.2993 321.548 92.1993 321.12 92.1273 320.776C92.0553 320.432 92.0113 320.208 91.9953 320.104C91.9793 320.208 91.9353 320.432 91.8633 320.776C91.7913 321.12 91.6913 321.544 91.5633 322.048L90.8913 324.76ZM99.6466 328L97.3906 319.24H98.5066L99.9946 325.192C100.099 325.608 100.187 325.996 100.259 326.356C100.331 326.708 100.383 326.976 100.415 327.16C100.447 326.976 100.495 326.708 100.559 326.356C100.631 325.996 100.719 325.608 100.823 325.192L102.299 319.24H103.391L101.123 328H99.6466ZM106.446 328V327.016H108.234V320.224H106.446V319.24H111.126V320.224H109.338V327.016H111.126V328H106.446ZM114.661 328V319.24H116.101L118.777 326.74C118.761 326.54 118.741 326.296 118.717 326.008C118.701 325.712 118.685 325.404 118.669 325.084C118.661 324.756 118.657 324.448 118.657 324.16V319.24H119.701V328H118.261L115.597 320.5C115.613 320.692 115.629 320.936 115.645 321.232C115.661 321.52 115.673 321.828 115.681 322.156C115.697 322.476 115.705 322.784 115.705 323.08V328H114.661ZM125.625 328.12C125.097 328.12 124.637 328.02 124.245 327.82C123.861 327.62 123.561 327.332 123.345 326.956C123.137 326.572 123.033 326.12 123.033 325.6V321.64C123.033 321.112 123.137 320.66 123.345 320.284C123.561 319.908 123.861 319.62 124.245 319.42C124.637 319.22 125.097 319.12 125.625 319.12C126.153 319.12 126.609 319.224 126.993 319.432C127.377 319.632 127.673 319.92 127.881 320.296C128.089 320.672 128.193 321.12 128.193 321.64H127.113C127.113 321.144 126.981 320.764 126.717 320.5C126.461 320.228 126.097 320.092 125.625 320.092C125.153 320.092 124.781 320.224 124.509 320.488C124.245 320.752 124.113 321.132 124.113 321.628V325.6C124.113 326.096 124.245 326.48 124.509 326.752C124.781 327.024 125.153 327.16 125.625 327.16C126.097 327.16 126.461 327.024 126.717 326.752C126.981 326.48 127.113 326.096 127.113 325.6V324.52H125.337V323.536H128.193V325.6C128.193 326.112 128.089 326.56 127.881 326.944C127.673 327.32 127.377 327.612 126.993 327.82C126.609 328.02 126.153 328.12 125.625 328.12ZM134.02 328.12C133.444 328.12 132.948 328.024 132.532 327.832C132.124 327.64 131.808 327.364 131.584 327.004C131.36 326.644 131.244 326.216 131.236 325.72H132.316C132.316 326.16 132.464 326.508 132.76 326.764C133.064 327.02 133.484 327.148 134.02 327.148C134.524 327.148 134.916 327.024 135.196 326.776C135.484 326.528 135.628 326.184 135.628 325.744C135.628 325.392 135.532 325.084 135.34 324.82C135.156 324.556 134.888 324.372 134.536 324.268L133.348 323.896C132.748 323.712 132.284 323.404 131.956 322.972C131.636 322.54 131.476 322.032 131.476 321.448C131.476 320.976 131.58 320.568 131.788 320.224C132.004 319.872 132.304 319.6 132.688 319.408C133.072 319.208 133.524 319.108 134.044 319.108C134.812 319.108 135.428 319.324 135.892 319.756C136.356 320.18 136.592 320.748 136.6 321.46H135.52C135.52 321.028 135.388 320.692 135.124 320.452C134.868 320.204 134.504 320.08 134.032 320.08C133.568 320.08 133.204 320.192 132.94 320.416C132.684 320.64 132.556 320.952 132.556 321.352C132.556 321.712 132.652 322.024 132.844 322.288C133.036 322.552 133.312 322.74 133.672 322.852L134.872 323.236C135.456 323.42 135.908 323.732 136.228 324.172C136.548 324.612 136.708 325.128 136.708 325.72C136.708 326.2 136.596 326.62 136.372 326.98C136.148 327.34 135.832 327.62 135.424 327.82C135.024 328.02 134.556 328.12 134.02 328.12ZM148.47 328L147.462 319.24H148.494L149.154 325.72C149.17 325.896 149.186 326.08 149.202 326.272C149.218 326.456 149.23 326.632 149.238 326.8C149.254 326.968 149.262 327.108 149.262 327.22C149.278 327.108 149.29 326.968 149.298 326.8C149.314 326.632 149.33 326.456 149.346 326.272C149.37 326.08 149.394 325.896 149.418 325.72L150.234 319.24H151.35L152.094 325.72C152.118 325.896 152.138 326.08 152.154 326.272C152.178 326.456 152.198 326.632 152.214 326.8C152.238 326.968 152.254 327.108 152.262 327.22C152.27 327.108 152.278 326.968 152.286 326.8C152.302 326.632 152.318 326.456 152.334 326.272C152.358 326.08 152.378 325.896 152.394 325.72L153.078 319.24H154.062L153.03 328H151.674L150.93 321.4C150.914 321.216 150.894 321.036 150.87 320.86C150.854 320.684 150.838 320.52 150.822 320.368C150.806 320.216 150.794 320.092 150.786 319.996C150.778 320.092 150.762 320.216 150.738 320.368C150.722 320.52 150.706 320.684 150.69 320.86C150.674 321.036 150.654 321.216 150.63 321.4L149.826 328H148.47ZM156.818 328V327.016H158.606V320.224H156.818V319.24H161.498V320.224H159.71V327.016H161.498V328H156.818ZM167.013 328V320.212H164.613V319.228H170.493V320.212H168.093V328H167.013ZM173.464 328V319.24H174.544V322.984H177.352V319.24H178.432V328H177.352V323.968H174.544V328H173.464ZM192.787 328.12C192.259 328.12 191.799 328.02 191.407 327.82C191.023 327.62 190.723 327.332 190.507 326.956C190.299 326.572 190.195 326.12 190.195 325.6V321.64C190.195 321.112 190.299 320.66 190.507 320.284C190.723 319.908 191.023 319.62 191.407 319.42C191.799 319.22 192.259 319.12 192.787 319.12C193.315 319.12 193.771 319.224 194.155 319.432C194.539 319.632 194.835 319.92 195.043 320.296C195.251 320.672 195.355 321.12 195.355 321.64H194.275C194.275 321.144 194.143 320.764 193.879 320.5C193.623 320.228 193.259 320.092 192.787 320.092C192.315 320.092 191.943 320.224 191.671 320.488C191.407 320.752 191.275 321.132 191.275 321.628V325.6C191.275 326.096 191.407 326.48 191.671 326.752C191.943 327.024 192.315 327.16 192.787 327.16C193.259 327.16 193.623 327.024 193.879 326.752C194.143 326.48 194.275 326.096 194.275 325.6V324.52H192.499V323.536H195.355V325.6C195.355 326.112 195.251 326.56 195.043 326.944C194.835 327.32 194.539 327.612 194.155 327.82C193.771 328.02 193.315 328.12 192.787 328.12ZM198.734 328V319.24H203.774V320.224H199.802V322.936H203.354V323.908H199.802V327.016H203.774V328H198.734ZM207.01 328V319.24H208.45L211.126 326.74C211.11 326.54 211.09 326.296 211.066 326.008C211.05 325.712 211.034 325.404 211.018 325.084C211.01 324.756 211.006 324.448 211.006 324.16V319.24H212.05V328H210.61L207.946 320.5C207.962 320.692 207.978 320.936 207.994 321.232C208.01 321.52 208.022 321.828 208.03 322.156C208.046 322.476 208.054 322.784 208.054 323.08V328H207.01ZM214.925 328L217.205 319.24H218.657L220.925 328H219.833L219.257 325.672H216.605L216.029 328H214.925ZM216.821 324.76H219.029L218.357 322.06C218.229 321.548 218.129 321.12 218.057 320.776C217.985 320.432 217.941 320.208 217.925 320.104C217.909 320.208 217.865 320.432 217.793 320.776C217.721 321.12 217.621 321.544 217.493 322.048L216.821 324.76ZM223.98 328V327.016H225.768V320.224H223.98V319.24H228.66V320.224H226.872V327.016H228.66V328H223.98Z" fill="#65717F"/>
<rect x="271" y="280" width="16" height="16" rx="4" fill="#EBEDF0"/>
<path d="M301.672 300.36V297.216C300.168 297.104 298.984 296.632 298.12 295.8C297.272 294.952 296.832 293.84 296.8 292.464H298.72C298.72 293.312 298.976 294.008 299.488 294.552C300.016 295.08 300.744 295.4 301.672 295.512V288.84L301.024 288.648C299.824 288.296 298.896 287.696 298.24 286.848C297.6 285.984 297.28 284.976 297.28 283.824C297.28 282.544 297.672 281.496 298.456 280.68C299.256 279.864 300.328 279.4 301.672 279.288V276.12H302.968V279.264C304.296 279.376 305.36 279.848 306.16 280.68C306.96 281.512 307.36 282.584 307.36 283.896H305.464C305.464 283.08 305.24 282.416 304.792 281.904C304.36 281.392 303.752 281.08 302.968 280.968V287.256L303.856 287.544C305.04 287.912 305.96 288.536 306.616 289.416C307.272 290.296 307.6 291.328 307.6 292.512C307.6 293.824 307.176 294.904 306.328 295.752C305.496 296.6 304.376 297.088 302.968 297.216V300.36H301.672ZM302.968 295.512C303.832 295.384 304.496 295.072 304.96 294.576C305.44 294.064 305.68 293.392 305.68 292.56C305.68 291.792 305.472 291.128 305.056 290.568C304.64 289.992 304.056 289.592 303.304 289.368L302.968 289.272V295.512ZM301.672 287.544V280.968C300.888 281.08 300.28 281.368 299.848 281.832C299.416 282.296 299.2 282.904 299.2 283.656C299.2 284.488 299.448 285.2 299.944 285.792C300.456 286.384 301.176 286.768 302.104 286.944L301.672 287.544ZM311.623 297V295.272H316.423V281.088L311.671 284.616V282.504L315.751 279.48H318.319V295.272H322.279V297H311.623ZM345.372 297.24C344.348 297.24 343.46 297.04 342.708 296.64C341.972 296.24 341.404 295.672 341.004 294.936C340.62 294.184 340.428 293.296 340.428 292.272V284.208C340.428 283.184 340.62 282.304 341.004 281.568C341.404 280.816 341.972 280.24 342.708 279.84C343.46 279.44 344.348 279.24 345.372 279.24C346.396 279.24 347.276 279.44 348.012 279.84C348.764 280.24 349.332 280.816 349.716 281.568C350.116 282.304 350.316 283.184 350.316 284.208V292.272C350.316 293.296 350.116 294.184 349.716 294.936C349.332 295.672 348.764 296.24 348.012 296.64C347.276 297.04 346.396 297.24 345.372 297.24ZM345.372 295.56C346.364 295.56 347.116 295.28 347.628 294.72C348.156 294.144 348.42 293.328 348.42 292.272V284.208C348.42 283.152 348.156 282.344 347.628 281.784C347.1 281.208 346.348 280.92 345.372 280.92C344.396 280.92 343.644 281.208 343.116 281.784C342.588 282.344 342.324 283.152 342.324 284.208V292.272C342.324 293.328 342.588 294.144 343.116 294.72C343.644 295.28 344.396 295.56 345.372 295.56ZM340.548 292.368L348.612 284.04L350.196 284.112L342.132 292.44L340.548 292.368ZM359.763 297.24C358.739 297.24 357.851 297.04 357.099 296.64C356.363 296.24 355.795 295.672 355.395 294.936C355.011 294.184 354.819 293.296 354.819 292.272V284.208C354.819 283.184 355.011 282.304 355.395 281.568C355.795 280.816 356.363 280.24 357.099 279.84C357.851 279.44 358.739 279.24 359.763 279.24C360.787 279.24 361.667 279.44 362.403 279.84C363.155 280.24 363.723 280.816 364.107 281.568C364.507 282.304 364.707 283.184 364.707 284.208V292.272C364.707 293.296 364.507 294.184 364.107 294.936C363.723 295.672 363.155 296.24 362.403 296.64C361.667 297.04 360.787 297.24 359.763 297.24ZM359.763 295.56C360.755 295.56 361.507 295.28 362.019 294.72C362.547 294.144 362.811 293.328 362.811 292.272V284.208C362.811 283.152 362.547 282.344 362.019 281.784C361.491 281.208 360.739 280.92 359.763 280.92C358.787 280.92 358.035 281.208 357.507 281.784C356.979 282.344 356.715 283.152 356.715 284.208V292.272C356.715 293.328 356.979 294.144 357.507 294.72C358.035 295.28 358.787 295.56 359.763 295.56ZM354.939 292.368L363.003 284.04L364.587 284.112L356.523 292.44L354.939 292.368ZM374.153 297.24C373.129 297.24 372.241 297.04 371.489 296.64C370.753 296.24 370.185 295.672 369.785 294.936C369.401 294.184 369.209 293.296 369.209 292.272V284.208C369.209 283.184 369.401 282.304 369.785 281.568C370.185 280.816 370.753 280.24 371.489 279.84C372.241 279.44 373.129 279.24 374.153 279.24C375.177 279.24 376.057 279.44 376.793 279.84C377.545 280.24 378.113 280.816 378.497 281.568C378.897 282.304 379.097 283.184 379.097 284.208V292.272C379.097 293.296 378.897 294.184 378.497 294.936C378.113 295.672 377.545 296.24 376.793 296.64C376.057 297.04 375.177 297.24 374.153 297.24ZM374.153 295.56C375.145 295.56 375.897 295.28 376.409 294.72C376.937 294.144 377.201 293.328 377.201 292.272V284.208C377.201 283.152 376.937 282.344 376.409 281.784C375.881 281.208 375.129 280.92 374.153 280.92C373.177 280.92 372.425 281.208 371.897 281.784C371.369 282.344 371.105 283.152 371.105 284.208V292.272C371.105 293.328 371.369 294.144 371.897 294.72C372.425 295.28 373.177 295.56 374.153 295.56ZM369.329 292.368L377.393 284.04L378.977 284.112L370.913 292.44L369.329 292.368Z" fill="#090A0C"/>
<path d="M274.6 328.12C274.072 328.12 273.616 328.02 273.232 327.82C272.856 327.62 272.564 327.332 272.356 326.956C272.156 326.572 272.056 326.12 272.056 325.6V321.64C272.056 321.112 272.156 320.66 272.356 320.284C272.564 319.908 272.856 319.62 273.232 319.42C273.616 319.22 274.072 319.12 274.6 319.12C275.128 319.12 275.58 319.22 275.956 319.42C276.34 319.62 276.632 319.908 276.832 320.284C277.04 320.66 277.144 321.108 277.144 321.628V325.6C277.144 326.12 277.04 326.572 276.832 326.956C276.632 327.332 276.34 327.62 275.956 327.82C275.58 328.02 275.128 328.12 274.6 328.12ZM274.6 327.148C275.072 327.148 275.432 327.016 275.68 326.752C275.936 326.48 276.064 326.096 276.064 325.6V321.64C276.064 321.144 275.936 320.764 275.68 320.5C275.432 320.228 275.072 320.092 274.6 320.092C274.136 320.092 273.776 320.228 273.52 320.5C273.264 320.764 273.136 321.144 273.136 321.64V325.6C273.136 326.096 273.264 326.48 273.52 326.752C273.776 327.016 274.136 327.148 274.6 327.148ZM282.455 328V320.212H280.055V319.228H285.935V320.212H283.535V328H282.455ZM288.907 328V319.24H289.987V322.984H292.795V319.24H293.875V328H292.795V323.968H289.987V328H288.907ZM297.386 328V319.24H302.426V320.224H298.454V322.936H302.006V323.908H298.454V327.016H302.426V328H297.386ZM305.685 328V319.24H308.397C308.917 319.24 309.373 319.348 309.765 319.564C310.157 319.772 310.461 320.064 310.677 320.44C310.893 320.816 311.001 321.256 311.001 321.76C311.001 322.352 310.845 322.86 310.533 323.284C310.229 323.708 309.813 324 309.285 324.16L311.121 328H309.849L308.169 324.28H306.765V328H305.685ZM306.765 323.308H308.397C308.845 323.308 309.205 323.168 309.477 322.888C309.749 322.6 309.885 322.224 309.885 321.76C309.885 321.288 309.749 320.912 309.477 320.632C309.205 320.352 308.845 320.212 308.397 320.212H306.765V323.308ZM325.02 328.12C324.444 328.12 323.948 328.024 323.532 327.832C323.124 327.64 322.808 327.364 322.584 327.004C322.36 326.644 322.244 326.216 322.236 325.72H323.316C323.316 326.16 323.464 326.508 323.76 326.764C324.064 327.02 324.484 327.148 325.02 327.148C325.524 327.148 325.916 327.024 326.196 326.776C326.484 326.528 326.628 326.184 326.628 325.744C326.628 325.392 326.532 325.084 326.34 324.82C326.156 324.556 325.888 324.372 325.536 324.268L324.348 323.896C323.748 323.712 323.284 323.404 322.956 322.972C322.636 322.54 322.476 322.032 322.476 321.448C322.476 320.976 322.58 320.568 322.788 320.224C323.004 319.872 323.304 319.6 323.688 319.408C324.072 319.208 324.524 319.108 325.044 319.108C325.812 319.108 326.428 319.324 326.892 319.756C327.356 320.18 327.592 320.748 327.6 321.46H326.52C326.52 321.028 326.388 320.692 326.124 320.452C325.868 320.204 325.504 320.08 325.032 320.08C324.568 320.08 324.204 320.192 323.94 320.416C323.684 320.64 323.556 320.952 323.556 321.352C323.556 321.712 323.652 322.024 323.844 322.288C324.036 322.552 324.312 322.74 324.672 322.852L325.872 323.236C326.456 323.42 326.908 323.732 327.228 324.172C327.548 324.612 327.708 325.128 327.708 325.72C327.708 326.2 327.596 326.62 327.372 326.98C327.148 327.34 326.832 327.62 326.424 327.82C326.024 328.02 325.556 328.12 325.02 328.12ZM330.367 328L332.647 319.24H334.099L336.367 328H335.275L334.699 325.672H332.047L331.471 328H330.367ZM332.263 324.76H334.471L333.799 322.06C333.671 321.548 333.571 321.12 333.499 320.776C333.427 320.432 333.383 320.208 333.367 320.104C333.351 320.208 333.307 320.432 333.235 320.776C333.163 321.12 333.063 321.544 332.935 322.048L332.263 324.76ZM341.018 328L338.762 319.24H339.878L341.366 325.192C341.47 325.608 341.558 325.996 341.63 326.356C341.702 326.708 341.754 326.976 341.786 327.16C341.818 326.976 341.866 326.708 341.93 326.356C342.002 325.996 342.09 325.608 342.194 325.192L343.67 319.24H344.762L342.494 328H341.018ZM347.818 328V327.016H349.606V320.224H347.818V319.24H352.498V320.224H350.71V327.016H352.498V328H347.818ZM356.033 328V319.24H357.473L360.149 326.74C360.133 326.54 360.113 326.296 360.089 326.008C360.073 325.712 360.057 325.404 360.041 325.084C360.033 324.756 360.029 324.448 360.029 324.16V319.24H361.073V328H359.633L356.969 320.5C356.985 320.692 357.001 320.936 357.017 321.232C357.033 321.52 357.045 321.828 357.053 322.156C357.069 322.476 357.077 322.784 357.077 323.08V328H356.033ZM366.996 328.12C366.468 328.12 366.008 328.02 365.616 327.82C365.232 327.62 364.932 327.332 364.716 326.956C364.508 326.572 364.404 326.12 364.404 325.6V321.64C364.404 321.112 364.508 320.66 364.716 320.284C364.932 319.908 365.232 319.62 365.616 319.42C366.008 319.22 366.468 319.12 366.996 319.12C367.524 319.12 367.98 319.224 368.364 319.432C368.748 319.632 369.044 319.92 369.252 320.296C369.46 320.672 369.564 321.12 369.564 321.64H368.484C368.484 321.144 368.352 320.764 368.088 320.5C367.832 320.228 367.468 320.092 366.996 320.092C366.524 320.092 366.152 320.224 365.88 320.488C365.616 320.752 365.484 321.132 365.484 321.628V325.6C365.484 326.096 365.616 326.48 365.88 326.752C366.152 327.024 366.524 327.16 366.996 327.16C367.468 327.16 367.832 327.024 368.088 326.752C368.352 326.48 368.484 326.096 368.484 325.6V324.52H366.708V323.536H369.564V325.6C369.564 326.112 369.46 326.56 369.252 326.944C369.044 327.32 368.748 327.612 368.364 327.82C367.98 328.02 367.524 328.12 366.996 328.12ZM375.392 328.12C374.816 328.12 374.32 328.024 373.904 327.832C373.496 327.64 373.18 327.364 372.956 327.004C372.732 326.644 372.616 326.216 372.608 325.72H373.688C373.688 326.16 373.836 326.508 374.132 326.764C374.436 327.02 374.856 327.148 375.392 327.148C375.896 327.148 376.288 327.024 376.568 326.776C376.856 326.528 377 326.184 377 325.744C377 325.392 376.904 325.084 376.712 324.82C376.528 324.556 376.26 324.372 375.908 324.268L374.72 323.896C374.12 323.712 373.656 323.404 373.328 322.972C373.008 322.54 372.848 322.032 372.848 321.448C372.848 320.976 372.952 320.568 373.16 320.224C373.376 319.872 373.676 319.6 374.06 319.408C374.444 319.208 374.896 319.108 375.416 319.108C376.184 319.108 376.8 319.324 377.264 319.756C377.728 320.18 377.964 320.748 377.972 321.46H376.892C376.892 321.028 376.76 320.692 376.496 320.452C376.24 320.204 375.876 320.08 375.404 320.08C374.94 320.08 374.576 320.192 374.312 320.416C374.056 320.64 373.928 320.952 373.928 321.352C373.928 321.712 374.024 322.024 374.216 322.288C374.408 322.552 374.684 322.74 375.044 322.852L376.244 323.236C376.828 323.42 377.28 323.732 377.6 324.172C377.92 324.612 378.08 325.128 378.08 325.72C378.08 326.2 377.968 326.62 377.744 326.98C377.52 327.34 377.204 327.62 376.796 327.82C376.396 328.02 375.928 328.12 375.392 328.12Z" fill="#65717F"/>
</g>
</g>
<defs>
<filter id="filter0_f_1009_1759" x="-70.6338" y="-534.366" width="1453.63" height="1488.92" filterUnits="userSpaceOnUse" color-interpolation-filters="sRGB">
<feFlood flood-opacity="0" result="BackgroundImageFix"/>
<feBlend mode="normal" in="SourceGraphic" in2="BackgroundImageFix" result="shape"/>
<feGaussianBlur stdDeviation="75.25" result="effect1_foregroundBlur_1009_1759"/>
</filter>
<filter id="filter1_f_1009_1759" x="-509.515" y="-504.2" width="1412.05" height="1160.14" filterUnits="userSpaceOnUse" color-interpolation-filters="sRGB">
<feFlood flood-opacity="0" result="BackgroundImageFix"/>
<feBlend mode="normal" in="SourceGraphic" in2="BackgroundImageFix" result="shape"/>
<feGaussianBlur stdDeviation="103.35" result="effect1_foregroundBlur_1009_1759"/>
</filter>
<filter id="filter2_f_1009_1759" x="4.51846" y="-453.91" width="872.882" height="753.68" filterUnits="userSpaceOnUse" color-interpolation-filters="sRGB">
<feFlood flood-opacity="0" result="BackgroundImageFix"/>
<feBlend mode="normal" in="SourceGraphic" in2="BackgroundImageFix" result="shape"/>
<feGaussianBlur stdDeviation="83.7" result="effect1_foregroundBlur_1009_1759"/>
</filter>
<filter id="filter3_dd_1009_1759" x="28" y="71" width="429" height="309" filterUnits="userSpaceOnUse" color-interpolation-filters="sRGB">
<feFlood flood-opacity="0" result="BackgroundImageFix"/>
<feColorMatrix in="SourceAlpha" type="matrix" values="0 0 0 0 0 0 0 0 0 0 0 0 0 0 0 0 0 0 127 0" result="hardAlpha"/>
<feOffset dy="8"/>
<feGaussianBlur stdDeviation="6"/>
<feComposite in2="hardAlpha" operator="out"/>
<feColorMatrix type="matrix" values="0 0 0 0 0.113601 0 0 0 0 0.127069 0 0 0 0 0.147271 0 0 0 0.05 0"/>
<feBlend mode="normal" in2="BackgroundImageFix" result="effect1_dropShadow_1009_1759"/>
<feColorMatrix in="SourceAlpha" type="matrix" values="0 0 0 0 0 0 0 0 0 0 0 0 0 0 0 0 0 0 127 0" result="hardAlpha"/>
<feOffset dy="2"/>
<feComposite in2="hardAlpha" operator="out"/>
<feColorMatrix type="matrix" values="0 0 0 0 0.881835 0 0 0 0 0.886784 0 0 0 0 0.89668 0 0 0 1 0"/>
<feBlend mode="normal" in2="effect1_dropShadow_1009_1759" result="effect2_dropShadow_1009_1759"/>
<feBlend mode="normal" in="SourceGraphic" in2="effect2_dropShadow_1009_1759" result="shape"/>
</filter>
<linearGradient id="paint0_linear_1009_1759" x1="476" y1="15" x2="174" y2="414" gradientUnits="userSpaceOnUse">
<stop stop-color="#0371EE"/>
<stop offset="1" stop-color="#0A1E37"/>
</linearGradient>
<linearGradient id="paint1_linear_1009_1759" x1="387" y1="136" x2="-111" y2="646" gradientUnits="userSpaceOnUse">
<stop stop-color="#0A1B23" stop-opacity="0.12"/>
<stop offset="1" stop-color="#259AB2" stop-opacity="0"/>
</linearGradient>
<linearGradient id="paint2_linear_1009_1759" x1="204.413" y1="338.37" x2="187.188" y2="1050.98" gradientUnits="userSpaceOnUse">
<stop stop-color="#0A1B23" stop-opacity="0.18"/>
<stop offset="1" stop-color="#259AB2" stop-opacity="0"/>
</linearGradient>
<linearGradient id="paint3_linear_1009_1759" x1="120" y1="229.5" x2="405" y2="229.5" gradientUnits="userSpaceOnUse">
<stop stop-color="#0371EE"/>
<stop offset="1" stop-color="#AB58EC"/>
</linearGradient>
<clipPath id="clip0_1009_1759">
<rect width="486" height="435" fill="white"/>
</clipPath>
<clipPath id="clip1_1009_1759">
<rect width="16" height="16" fill="white" transform="translate(92 111)"/>
</clipPath>
</defs>
</svg>
