<svg width="486" height="435" viewBox="0 0 486 435" fill="none" xmlns="http://www.w3.org/2000/svg">
<g clip-path="url(#clip0_1009_2241)">
<rect width="486" height="435" rx="24" fill="#2694BE"/>
<mask id="mask0_1009_2241" style="mask-type:alpha" maskUnits="userSpaceOnUse" x="0" y="0" width="486" height="435">
<rect width="486" height="435" rx="24" fill="url(#paint0_linear_1009_2241)"/>
</mask>
<g mask="url(#mask0_1009_2241)">
<g filter="url(#filter0_f_1009_2241)">
<path d="M1103 -85.4999C1120.5 -107 1228.5 -148 1232.5 -152C1221.67 -176.167 1197.6 -226.7 1188 -235.5C1176 -246.5 1088 -297 1062.5 -313C1037 -329 934.5 -352 876.5 -374.5C818.5 -397 596 -371.5 430.5 -374.5C298.1 -376.9 171.333 -258.5 124.5 -199V-53.9999C124.5 -40.4999 120.5 48.0001 113.5 130.5C106.5 213 102 385.5 87 477.5C72 569.5 85 774.5 87 795C88.6 811.4 175.333 801.833 218.5 795C244 762 298.9 704.1 314.5 736.5C334 777 329.5 741 373.5 719.5C417.5 698 417.5 699 452 678.5C486.5 658 466.5 670.5 477.5 664C488.5 657.5 516.5 694.5 551.5 694.5H568.5L577 706L612.5 734.5C621.333 734.833 642.1 734 654.5 728C670 720.5 696 722 708.5 716C721 710 821.5 623.5 852 569.5C882.5 515.5 859 558 859 489C857.5 463.5 854.001 467.5 846.001 453C838.001 438.5 846.001 444 846.001 430.5V403V366.5C846.001 355.5 866.501 278.5 887.001 207C902.501 181.5 895.001 198 918.501 177.5C942.001 157 936.001 161.5 963.501 130.5C991.001 99.5001 987.001 107 1009 84.5001C1031 62.0001 1020.5 72.5001 1035.5 48.0001C1050.5 23.5001 1051 11.5001 1062.5 -16.4999C1074 -44.4999 1085.5 -63.9999 1103 -85.4999Z" fill="#0371EE" fill-opacity="0.37"/>
</g>
<g filter="url(#filter1_f_1009_2241)">
<path d="M-263.315 -240.5C-272.516 -246.9 -293.482 -271.167 -302.815 -282.5H-200.815L196.685 -297.5L648.685 -270C658.685 -230 678.685 -145.3 678.685 -126.5C678.685 -103 697.685 20.5 695.685 56.5C693.685 92.5 685.685 91 678.685 113.5C671.685 136 655.185 168.5 643.685 211.5C632.185 254.5 630.685 265.5 618.185 300C605.685 334.5 591.685 347 568.185 384C544.685 421 558.185 392 534.685 406.5C511.185 421 518.185 406.5 513.185 412.5C508.185 418.5 496.685 417.5 473.185 417.5C449.685 417.5 447.685 415.5 368.185 417.5C288.685 419.5 316.716 460.932 268.185 446C235.685 436 142.685 441 147.185 369.5C149.334 335.344 167.185 354 185.685 340C204.185 326 210.185 318.5 226.685 300C243.185 281.5 235.685 291 243.685 265.5C251.686 240 246.685 249 268.185 199C281.185 178.5 279.685 188 279.685 175.5C279.685 163 290.685 164.5 298.185 151C305.685 137.5 299.185 139 298.185 113.5C297.185 88 289.685 70.5 279.685 49C269.685 27.5 257.185 21.5 235.685 7.5C214.185 -6.5 188.685 -15 147.185 -26.5C105.685 -38 65.1845 -46.5 22.6845 -60C-19.8155 -73.5 -43.8155 -81.5 -74.3155 -95.5C-104.815 -109.5 -103.815 -114 -115.315 -126.5C-126.815 -139 -129.315 -144.5 -153.815 -167C-178.315 -189.5 -251.815 -232.5 -263.315 -240.5Z" fill="#C2D263"/>
</g>
<g opacity="0.62" filter="url(#filter2_f_1009_2241)">
<path d="M255.185 -125.5C250.385 -128.3 224.518 -131.333 212.185 -132.5C206.351 -132.5 193.685 -134.3 189.685 -141.5C184.685 -150.5 175.685 -168 172.685 -207C169.685 -246 174.685 -221 202.185 -251C229.685 -281 268.185 -270 293.685 -276.5C319.184 -283 405.185 -274 466.185 -282.5C527.185 -291 582.685 -283.5 606.185 -282.5C629.685 -281.5 668.184 -265 692.684 -251C717.184 -237 708.184 -212 709.184 -189.5C710.184 -167 683.684 -125.5 662.184 -90.4998C640.684 -55.4998 643.684 -12.9998 646.684 17.5002C649.684 48.0002 617.184 99.0002 611.184 116.5C605.184 134 557.184 136 526.684 127.5C496.184 119 503.184 114.5 497.684 99.0002C492.184 83.5002 490.684 82.0002 477.684 71.5002C464.684 61.0002 465.185 65.5002 433.685 71.5002C417.185 65.0002 405.185 66.5002 414.185 1.00021C423.185 -17.4998 416.185 -16.9998 405.185 -47.4998C394.185 -77.9998 394.685 -57.9998 387.685 -63.9998C380.685 -69.9998 357.185 -68.9998 346.685 -71.9998C336.185 -74.9998 317.185 -77.4998 312.185 -84.4998C307.185 -91.4998 296.685 -103 293.685 -107C290.685 -111 261.185 -122 255.185 -125.5Z" fill="white"/>
</g>
<path d="M387 205L195 -35H-80L-188 653L598 454L387 205Z" fill="url(#paint1_linear_1009_2241)"/>
<path d="M251.412 388.888L-52.6357 343.953L-253.976 531.268L135.58 1108.55L575.5 427.471L251.412 388.888Z" fill="url(#paint2_linear_1009_2241)"/>
</g>
<path d="M443 434.5H443.5V434V72C443.5 62.8873 436.113 55.5 427 55.5H58C48.8873 55.5 41.5 62.8873 41.5 72V434V434.5H42H443Z" fill="white" stroke="#C8D0D9"/>
<rect x="42" y="408.069" width="401" height="0.997361" fill="#EBEDF0"/>
<rect x="42" y="336.259" width="401" height="0.997361" fill="#EBEDF0"/>
<rect x="42" y="264.448" width="401" height="0.997361" fill="#EBEDF0"/>
<rect x="42" y="192.638" width="401" height="0.997361" fill="#EBEDF0"/>
<path d="M219 103.895C219 99.4763 222.582 95.8945 227 95.8945H259C263.418 95.8945 267 99.4763 267 103.895V434H219V103.895Z" fill="#0371EE"/>
<mask id="mask1_1009_2241" style="mask-type:alpha" maskUnits="userSpaceOnUse" x="219" y="95" width="48" height="339">
<path d="M219 103.895C219 99.4763 222.582 95.8945 227 95.8945H259C263.418 95.8945 267 99.4763 267 103.895V434H219V103.895Z" fill="#0371EE"/>
</mask>
<g mask="url(#mask1_1009_2241)">
<g filter="url(#filter3_f_1009_2241)">
<path d="M296.689 252.4L205.689 252.4L45.405 -181.187L453.671 -215.282L296.689 252.4Z" fill="url(#paint3_linear_1009_2241)"/>
</g>
<g filter="url(#filter4_f_1009_2241)">
<path d="M252.355 221.529L233.445 218.161L177.999 68.3374L300.999 68.3374L252.355 221.529Z" fill="url(#paint4_linear_1009_2241)"/>
</g>
<path opacity="0.25" d="M226 150.252H260C264.142 150.252 267.5 153.61 267.5 157.752V460.429H218.5V157.752C218.5 153.61 221.858 150.252 226 150.252Z" stroke="white"/>
<path opacity="0.25" d="M226 125.318H260C264.142 125.318 267.5 128.676 267.5 132.818V444.471H218.5V132.818C218.5 128.676 221.858 125.318 226 125.318Z" stroke="white"/>
<path opacity="0.25" d="M226 113.35H260C264.142 113.35 267.5 116.707 267.5 120.85V436.492H218.5V120.85C218.5 116.707 221.858 113.35 226 113.35Z" stroke="white"/>
<path opacity="0.25" d="M226 105.371H260C264.142 105.371 267.5 108.728 267.5 112.871V442.476H218.5V112.871C218.5 108.728 221.858 105.371 226 105.371Z" stroke="white"/>
<path opacity="0.25" d="M226 100.384H260C264.142 100.384 267.5 103.742 267.5 107.884V438.487H218.5V107.884C218.5 103.742 221.858 100.384 226 100.384Z" stroke="white"/>
<path opacity="0.25" d="M226 97.3918H260C264.142 97.3918 267.5 100.75 267.5 104.892V436.492H218.5V104.892C218.5 100.75 221.858 97.3918 226 97.3918Z" stroke="white"/>
</g>
<path d="M147 319.324C147 314.906 150.582 311.324 155 311.324H187C191.418 311.324 195 314.906 195 319.324V434H147V319.324Z" fill="#F5F1E8"/>
<path d="M291 351.24C291 346.822 294.582 343.24 299 343.24H331C335.418 343.24 339 346.822 339 351.24V434H291V351.24Z" fill="#EBEDF0"/>
<path d="M363 391.135C363 386.716 366.582 383.135 371 383.135H403C407.418 383.135 411 386.716 411 391.135V434H363V391.135Z" fill="#E8F1EF"/>
<path d="M75 247.514C75 243.096 78.5817 239.514 83 239.514H115C119.418 239.514 123 243.096 123 247.514V434H75V247.514Z" fill="#EFE3EF"/>
<g filter="url(#filter5_b_1009_2241)">
<ellipse cx="243" cy="304.343" rx="68" ry="67.8206" fill="white" fill-opacity="0.01"/>
<ellipse cx="243" cy="304.343" rx="68" ry="67.8206" fill="#A0B3C9" fill-opacity="0.19"/>
</g>
<g filter="url(#filter6_i_1009_2241)">
<ellipse cx="243" cy="304.343" rx="52" ry="51.8628" fill="#090A0C"/>
</g>
<g clip-path="url(#clip1_1009_2241)">
<path d="M234.855 292.297V323H223.047V300.485L219 299.572V288.716L234.855 292.297Z" fill="white"/>
<path d="M250.926 289.63V323H239.118V292.297L250.926 289.63Z" fill="white"/>
<path d="M267 286V323H255.192V288.667L267 286Z" fill="white"/>
</g>
<circle cx="70" cy="79.9473" r="4" fill="#090A0C"/>
<circle cx="86" cy="79.9473" r="4" fill="#090A0C"/>
<circle cx="102" cy="79.9473" r="4" fill="#090A0C"/>
<rect x="284" y="124.818" width="111" height="29" rx="7.12891" fill="#090A0C"/>
<path d="M298.82 143.818V140.758L296.096 135.442H297.848L298.82 137.458L299.576 139.174H299.66L300.428 137.458L301.412 135.442H303.104L300.38 140.758V143.818H298.82ZM306.795 143.962C306.251 143.962 305.779 143.866 305.379 143.674C304.979 143.474 304.647 143.19 304.383 142.822C304.127 142.454 303.935 142.002 303.807 141.466C303.687 140.93 303.627 140.318 303.627 139.63C303.627 138.95 303.687 138.342 303.807 137.806C303.935 137.262 304.127 136.806 304.383 136.438C304.647 136.07 304.979 135.79 305.379 135.598C305.779 135.398 306.251 135.298 306.795 135.298C307.883 135.298 308.683 135.678 309.195 136.438C309.707 137.198 309.963 138.262 309.963 139.63C309.963 140.998 309.707 142.062 309.195 142.822C308.683 143.582 307.883 143.962 306.795 143.962ZM306.795 142.678C307.075 142.678 307.311 142.626 307.503 142.522C307.695 142.41 307.847 142.254 307.959 142.054C308.079 141.854 308.163 141.61 308.211 141.322C308.267 141.026 308.295 140.698 308.295 140.338V138.91C308.295 138.19 308.183 137.622 307.959 137.206C307.743 136.79 307.355 136.582 306.795 136.582C306.235 136.582 305.843 136.79 305.619 137.206C305.403 137.622 305.295 138.19 305.295 138.91V140.35C305.295 141.07 305.403 141.638 305.619 142.054C305.843 142.47 306.235 142.678 306.795 142.678ZM312.707 135.442V140.662C312.707 140.974 312.715 141.254 312.731 141.502C312.755 141.75 312.807 141.962 312.887 142.138C312.975 142.306 313.103 142.438 313.271 142.534C313.447 142.63 313.687 142.678 313.991 142.678C314.295 142.678 314.531 142.63 314.699 142.534C314.875 142.438 315.003 142.306 315.083 142.138C315.171 141.962 315.223 141.75 315.239 141.502C315.263 141.254 315.275 140.974 315.275 140.662V135.442H316.847V140.422C316.847 141.014 316.811 141.53 316.739 141.97C316.667 142.41 316.527 142.778 316.319 143.074C316.111 143.37 315.819 143.594 315.443 143.746C315.075 143.89 314.591 143.962 313.991 143.962C313.391 143.962 312.903 143.89 312.527 143.746C312.159 143.594 311.871 143.37 311.663 143.074C311.455 142.778 311.315 142.41 311.243 141.97C311.171 141.53 311.135 141.014 311.135 140.422V135.442H312.707ZM320.118 143.818H318.546V135.442H321.726C322.542 135.442 323.166 135.674 323.598 136.138C324.03 136.602 324.246 137.234 324.246 138.034C324.246 138.65 324.102 139.17 323.814 139.594C323.534 140.01 323.13 140.274 322.602 140.386L324.39 143.818H322.662L321.066 140.566H320.118V143.818ZM321.402 139.342C321.826 139.342 322.13 139.258 322.314 139.09C322.498 138.914 322.59 138.638 322.59 138.262V137.806C322.59 137.43 322.498 137.158 322.314 136.99C322.13 136.814 321.826 136.726 321.402 136.726H320.118V139.342H321.402ZM335.793 143.962C334.697 143.962 333.885 143.586 333.357 142.834C332.837 142.082 332.577 141.014 332.577 139.63C332.577 138.254 332.837 137.19 333.357 136.438C333.885 135.678 334.697 135.298 335.793 135.298C336.209 135.298 336.573 135.354 336.885 135.466C337.205 135.578 337.481 135.734 337.713 135.934C337.945 136.126 338.137 136.362 338.289 136.642C338.441 136.914 338.561 137.214 338.649 137.542L337.209 137.95C337.153 137.758 337.089 137.578 337.017 137.41C336.945 137.242 336.853 137.098 336.741 136.978C336.637 136.85 336.505 136.754 336.345 136.69C336.185 136.618 335.993 136.582 335.769 136.582C335.225 136.582 334.833 136.79 334.593 137.206C334.361 137.622 334.245 138.19 334.245 138.91V140.35C334.245 141.07 334.361 141.638 334.593 142.054C334.833 142.47 335.225 142.678 335.769 142.678C335.993 142.678 336.185 142.646 336.345 142.582C336.505 142.51 336.637 142.414 336.741 142.294C336.853 142.166 336.945 142.018 337.017 141.85C337.089 141.682 337.153 141.502 337.209 141.31L338.649 141.718C338.561 142.046 338.441 142.35 338.289 142.63C338.137 142.902 337.945 143.138 337.713 143.338C337.481 143.53 337.205 143.682 336.885 143.794C336.573 143.906 336.209 143.962 335.793 143.962ZM342.772 143.962C342.228 143.962 341.756 143.866 341.356 143.674C340.956 143.474 340.624 143.19 340.36 142.822C340.104 142.454 339.912 142.002 339.784 141.466C339.664 140.93 339.604 140.318 339.604 139.63C339.604 138.95 339.664 138.342 339.784 137.806C339.912 137.262 340.104 136.806 340.36 136.438C340.624 136.07 340.956 135.79 341.356 135.598C341.756 135.398 342.228 135.298 342.772 135.298C343.86 135.298 344.66 135.678 345.172 136.438C345.684 137.198 345.94 138.262 345.94 139.63C345.94 140.998 345.684 142.062 345.172 142.822C344.66 143.582 343.86 143.962 342.772 143.962ZM342.772 142.678C343.052 142.678 343.288 142.626 343.48 142.522C343.672 142.41 343.824 142.254 343.936 142.054C344.056 141.854 344.14 141.61 344.188 141.322C344.244 141.026 344.272 140.698 344.272 140.338V138.91C344.272 138.19 344.16 137.622 343.936 137.206C343.72 136.79 343.332 136.582 342.772 136.582C342.212 136.582 341.82 136.79 341.596 137.206C341.38 137.622 341.272 138.19 341.272 138.91V140.35C341.272 141.07 341.38 141.638 341.596 142.054C341.82 142.47 342.212 142.678 342.772 142.678ZM351.623 139.942L351.695 137.518H351.587L349.967 141.826L348.347 137.518H348.239L348.311 139.942V143.818H346.943V135.442H348.815L349.979 138.526H350.063L351.239 135.442H352.991V143.818H351.623V139.942ZM354.523 143.818V135.442H357.703C358.519 135.442 359.143 135.674 359.575 136.138C360.007 136.602 360.223 137.234 360.223 138.034C360.223 138.834 360.007 139.466 359.575 139.93C359.143 140.394 358.519 140.626 357.703 140.626H356.095V143.818H354.523ZM356.095 139.342H357.379C357.803 139.342 358.107 139.258 358.291 139.09C358.475 138.914 358.567 138.638 358.567 138.262V137.806C358.567 137.43 358.475 137.158 358.291 136.99C358.107 136.814 357.803 136.726 357.379 136.726H356.095V139.342ZM366.146 143.818L365.558 141.694H363.074L362.498 143.818H360.914L363.266 135.442H365.45L367.814 143.818H366.146ZM364.37 136.99H364.274L363.35 140.41H365.294L364.37 136.99ZM370.221 137.806H370.101V143.818H368.757V135.442H370.689L372.885 141.454H373.005V135.442H374.349V143.818H372.417L370.221 137.806ZM377.968 143.818V140.758L375.244 135.442H376.996L377.968 137.458L378.724 139.174H378.808L379.576 137.458L380.56 135.442H382.252L379.528 140.758V143.818H377.968Z" fill="white"/>
<g clip-path="url(#clip2_1009_2241)">
<path d="M275 116L280.333 132L283.889 124.889L291 121.333L275 116Z" fill="#090A0C"/>
</g>
<rect x="84" y="364.185" width="96" height="29" rx="7.12891" fill="#DD2B04"/>
<path d="M99.816 383.329C98.72 383.329 97.908 382.953 97.38 382.201C96.86 381.449 96.6 380.381 96.6 378.997C96.6 377.621 96.86 376.557 97.38 375.805C97.908 375.045 98.72 374.665 99.816 374.665C100.232 374.665 100.596 374.721 100.908 374.833C101.228 374.945 101.504 375.101 101.736 375.301C101.968 375.493 102.16 375.729 102.312 376.009C102.464 376.281 102.584 376.581 102.672 376.909L101.232 377.317C101.176 377.125 101.112 376.945 101.04 376.777C100.968 376.609 100.876 376.465 100.764 376.345C100.66 376.217 100.528 376.121 100.368 376.057C100.208 375.985 100.016 375.949 99.792 375.949C99.248 375.949 98.856 376.157 98.616 376.573C98.384 376.989 98.268 377.557 98.268 378.277V379.717C98.268 380.437 98.384 381.005 98.616 381.421C98.856 381.837 99.248 382.045 99.792 382.045C100.016 382.045 100.208 382.013 100.368 381.949C100.528 381.877 100.66 381.781 100.764 381.661C100.876 381.533 100.968 381.385 101.04 381.217C101.112 381.049 101.176 380.869 101.232 380.677L102.672 381.085C102.584 381.413 102.464 381.717 102.312 381.997C102.16 382.269 101.968 382.505 101.736 382.705C101.504 382.897 101.228 383.049 100.908 383.161C100.596 383.273 100.232 383.329 99.816 383.329ZM106.795 383.329C106.251 383.329 105.779 383.233 105.379 383.041C104.979 382.841 104.647 382.557 104.383 382.189C104.127 381.821 103.935 381.369 103.807 380.833C103.687 380.297 103.627 379.685 103.627 378.997C103.627 378.317 103.687 377.709 103.807 377.173C103.935 376.629 104.127 376.173 104.383 375.805C104.647 375.437 104.979 375.157 105.379 374.965C105.779 374.765 106.251 374.665 106.795 374.665C107.883 374.665 108.683 375.045 109.195 375.805C109.707 376.565 109.963 377.629 109.963 378.997C109.963 380.365 109.707 381.429 109.195 382.189C108.683 382.949 107.883 383.329 106.795 383.329ZM106.795 382.045C107.075 382.045 107.311 381.993 107.503 381.889C107.695 381.777 107.847 381.621 107.959 381.421C108.079 381.221 108.163 380.977 108.211 380.689C108.267 380.393 108.295 380.065 108.295 379.705V378.277C108.295 377.557 108.183 376.989 107.959 376.573C107.743 376.157 107.355 375.949 106.795 375.949C106.235 375.949 105.843 376.157 105.619 376.573C105.403 376.989 105.295 377.557 105.295 378.277V379.717C105.295 380.437 105.403 381.005 105.619 381.421C105.843 381.837 106.235 382.045 106.795 382.045ZM115.647 379.309L115.719 376.885H115.611L113.991 381.193L112.371 376.885H112.263L112.335 379.309V383.185H110.967V374.809H112.839L114.003 377.893H114.087L115.263 374.809H117.015V383.185H115.647V379.309ZM118.546 383.185V374.809H121.726C122.542 374.809 123.166 375.041 123.598 375.505C124.03 375.969 124.246 376.601 124.246 377.401C124.246 378.201 124.03 378.833 123.598 379.297C123.166 379.761 122.542 379.993 121.726 379.993H120.118V383.185H118.546ZM120.118 378.709H121.402C121.826 378.709 122.13 378.625 122.314 378.457C122.498 378.281 122.59 378.005 122.59 377.629V377.173C122.59 376.797 122.498 376.525 122.314 376.357C122.13 376.181 121.826 376.093 121.402 376.093H120.118V378.709ZM130.169 383.185L129.581 381.061H127.097L126.521 383.185H124.937L127.289 374.809H129.473L131.837 383.185H130.169ZM128.393 376.357H128.297L127.373 379.777H129.317L128.393 376.357ZM134.245 377.173H134.125V383.185H132.781V374.809H134.713L136.909 380.821H137.029V374.809H138.373V383.185H136.441L134.245 377.173ZM141.992 383.185V380.125L139.268 374.809H141.02L141.992 376.825L142.748 378.541H142.832L143.6 376.825L144.584 374.809H146.276L143.552 380.125V383.185H141.992ZM155.075 380.773H153.695V379.621H155.291L155.495 378.373H154.151V377.221H155.711L156.131 374.809H157.379L155.903 383.185H154.655L155.075 380.773ZM158.423 374.809H159.671L159.251 377.221H160.631V378.373H159.035L158.831 379.621H160.174V380.773H158.615L158.195 383.185H156.947L158.423 374.809ZM167.358 383.185H161.454V381.721L164.142 379.429C164.59 379.045 164.922 378.697 165.138 378.385C165.354 378.065 165.462 377.725 165.462 377.365V377.245C165.462 376.845 165.35 376.541 165.126 376.333C164.902 376.125 164.59 376.021 164.19 376.021C163.75 376.021 163.414 376.141 163.182 376.381C162.95 376.621 162.782 376.917 162.678 377.269L161.31 376.753C161.398 376.481 161.522 376.221 161.682 375.973C161.85 375.717 162.054 375.493 162.294 375.301C162.542 375.109 162.834 374.957 163.17 374.845C163.506 374.725 163.89 374.665 164.322 374.665C164.77 374.665 165.166 374.729 165.51 374.857C165.862 374.977 166.158 375.149 166.398 375.373C166.638 375.589 166.818 375.849 166.938 376.153C167.066 376.457 167.13 376.789 167.13 377.149C167.13 377.493 167.074 377.809 166.962 378.097C166.858 378.385 166.71 378.661 166.518 378.925C166.326 379.181 166.098 379.429 165.834 379.669C165.578 379.909 165.298 380.149 164.994 380.389L163.17 381.865H167.358V383.185Z" fill="white"/>
<g clip-path="url(#clip3_1009_2241)">
<path d="M75 356L80.3333 372L83.8889 364.889L91 361.333L75 356Z" fill="#DD2B04"/>
</g>
<rect x="364" y="332.269" width="96" height="29" rx="7.12891" fill="#9433F1"/>
<path d="M379.816 351.413C378.72 351.413 377.908 351.037 377.38 350.285C376.86 349.533 376.6 348.465 376.6 347.081C376.6 345.705 376.86 344.641 377.38 343.889C377.908 343.129 378.72 342.749 379.816 342.749C380.232 342.749 380.596 342.805 380.908 342.917C381.228 343.029 381.504 343.185 381.736 343.385C381.968 343.577 382.16 343.813 382.312 344.093C382.464 344.365 382.584 344.665 382.672 344.993L381.232 345.401C381.176 345.209 381.112 345.029 381.04 344.861C380.968 344.693 380.876 344.549 380.764 344.429C380.66 344.301 380.528 344.205 380.368 344.141C380.208 344.069 380.016 344.033 379.792 344.033C379.248 344.033 378.856 344.241 378.616 344.657C378.384 345.073 378.268 345.641 378.268 346.361V347.801C378.268 348.521 378.384 349.089 378.616 349.505C378.856 349.921 379.248 350.129 379.792 350.129C380.016 350.129 380.208 350.097 380.368 350.033C380.528 349.961 380.66 349.865 380.764 349.745C380.876 349.617 380.968 349.469 381.04 349.301C381.112 349.133 381.176 348.953 381.232 348.761L382.672 349.169C382.584 349.497 382.464 349.801 382.312 350.081C382.16 350.353 381.968 350.589 381.736 350.789C381.504 350.981 381.228 351.133 380.908 351.245C380.596 351.357 380.232 351.413 379.816 351.413ZM386.795 351.413C386.251 351.413 385.779 351.317 385.379 351.125C384.979 350.925 384.647 350.641 384.383 350.273C384.127 349.905 383.935 349.453 383.807 348.917C383.687 348.381 383.627 347.769 383.627 347.081C383.627 346.401 383.687 345.793 383.807 345.257C383.935 344.713 384.127 344.257 384.383 343.889C384.647 343.521 384.979 343.241 385.379 343.049C385.779 342.849 386.251 342.749 386.795 342.749C387.883 342.749 388.683 343.129 389.195 343.889C389.707 344.649 389.963 345.713 389.963 347.081C389.963 348.449 389.707 349.513 389.195 350.273C388.683 351.033 387.883 351.413 386.795 351.413ZM386.795 350.129C387.075 350.129 387.311 350.077 387.503 349.973C387.695 349.861 387.847 349.705 387.959 349.505C388.079 349.305 388.163 349.061 388.211 348.773C388.267 348.477 388.295 348.149 388.295 347.789V346.361C388.295 345.641 388.183 345.073 387.959 344.657C387.743 344.241 387.355 344.033 386.795 344.033C386.235 344.033 385.843 344.241 385.619 344.657C385.403 345.073 385.295 345.641 385.295 346.361V347.801C385.295 348.521 385.403 349.089 385.619 349.505C385.843 349.921 386.235 350.129 386.795 350.129ZM395.647 347.393L395.719 344.969H395.611L393.991 349.277L392.371 344.969H392.263L392.335 347.393V351.269H390.967V342.893H392.839L394.003 345.977H394.087L395.263 342.893H397.015V351.269H395.647V347.393ZM398.546 351.269V342.893H401.726C402.542 342.893 403.166 343.125 403.598 343.589C404.03 344.053 404.246 344.685 404.246 345.485C404.246 346.285 404.03 346.917 403.598 347.381C403.166 347.845 402.542 348.077 401.726 348.077H400.118V351.269H398.546ZM400.118 346.793H401.402C401.826 346.793 402.13 346.709 402.314 346.541C402.498 346.365 402.59 346.089 402.59 345.713V345.257C402.59 344.881 402.498 344.609 402.314 344.441C402.13 344.265 401.826 344.177 401.402 344.177H400.118V346.793ZM410.169 351.269L409.581 349.145H407.097L406.521 351.269H404.937L407.289 342.893H409.473L411.837 351.269H410.169ZM408.393 344.441H408.297L407.373 347.861H409.317L408.393 344.441ZM414.245 345.257H414.125V351.269H412.781V342.893H414.713L416.909 348.905H417.029V342.893H418.373V351.269H416.441L414.245 345.257ZM421.992 351.269V348.209L419.268 342.893H421.02L421.992 344.909L422.748 346.625H422.832L423.6 344.909L424.584 342.893H426.276L423.552 348.209V351.269H421.992ZM435.075 348.857H433.695V347.705H435.291L435.495 346.457H434.151V345.305H435.711L436.131 342.893H437.379L435.903 351.269H434.655L435.075 348.857ZM438.423 342.893H439.671L439.251 345.305H440.631V346.457H439.035L438.831 347.705H440.174V348.857H438.615L438.195 351.269H436.947L438.423 342.893ZM444.97 351.269V349.649H441.094V348.305L444.514 342.893H446.47V348.425H447.598V349.649H446.47V351.269H444.97ZM442.378 348.425H444.97V344.429H444.874L442.378 348.425Z" fill="white"/>
<g clip-path="url(#clip4_1009_2241)">
<path d="M355 324L360.333 340L363.889 332.889L371 329.333L355 324Z" fill="#9433F1"/>
</g>
</g>
<defs>
<filter id="filter0_f_1009_2241" x="-70.6338" y="-534.366" width="1453.63" height="1488.92" filterUnits="userSpaceOnUse" color-interpolation-filters="sRGB">
<feFlood flood-opacity="0" result="BackgroundImageFix"/>
<feBlend mode="normal" in="SourceGraphic" in2="BackgroundImageFix" result="shape"/>
<feGaussianBlur stdDeviation="75.25" result="effect1_foregroundBlur_1009_2241"/>
</filter>
<filter id="filter1_f_1009_2241" x="-509.515" y="-504.2" width="1412.05" height="1160.14" filterUnits="userSpaceOnUse" color-interpolation-filters="sRGB">
<feFlood flood-opacity="0" result="BackgroundImageFix"/>
<feBlend mode="normal" in="SourceGraphic" in2="BackgroundImageFix" result="shape"/>
<feGaussianBlur stdDeviation="103.35" result="effect1_foregroundBlur_1009_2241"/>
</filter>
<filter id="filter2_f_1009_2241" x="4.51846" y="-453.91" width="872.882" height="753.679" filterUnits="userSpaceOnUse" color-interpolation-filters="sRGB">
<feFlood flood-opacity="0" result="BackgroundImageFix"/>
<feBlend mode="normal" in="SourceGraphic" in2="BackgroundImageFix" result="shape"/>
<feGaussianBlur stdDeviation="83.7" result="effect1_foregroundBlur_1009_2241"/>
</filter>
<filter id="filter3_f_1009_2241" x="-38.295" y="-298.982" width="575.666" height="635.083" filterUnits="userSpaceOnUse" color-interpolation-filters="sRGB">
<feFlood flood-opacity="0" result="BackgroundImageFix"/>
<feBlend mode="normal" in="SourceGraphic" in2="BackgroundImageFix" result="shape"/>
<feGaussianBlur stdDeviation="41.85" result="effect1_foregroundBlur_1009_2241"/>
</filter>
<filter id="filter4_f_1009_2241" x="139.299" y="29.6374" width="200.4" height="230.591" filterUnits="userSpaceOnUse" color-interpolation-filters="sRGB">
<feFlood flood-opacity="0" result="BackgroundImageFix"/>
<feBlend mode="normal" in="SourceGraphic" in2="BackgroundImageFix" result="shape"/>
<feGaussianBlur stdDeviation="19.35" result="effect1_foregroundBlur_1009_2241"/>
</filter>
<filter id="filter5_b_1009_2241" x="140.6" y="202.122" width="204.8" height="204.441" filterUnits="userSpaceOnUse" color-interpolation-filters="sRGB">
<feFlood flood-opacity="0" result="BackgroundImageFix"/>
<feGaussianBlur in="BackgroundImageFix" stdDeviation="17.2"/>
<feComposite in2="SourceAlpha" operator="in" result="effect1_backgroundBlur_1009_2241"/>
<feBlend mode="normal" in="SourceGraphic" in2="effect1_backgroundBlur_1009_2241" result="shape"/>
</filter>
<filter id="filter6_i_1009_2241" x="191" y="252.48" width="104" height="107.726" filterUnits="userSpaceOnUse" color-interpolation-filters="sRGB">
<feFlood flood-opacity="0" result="BackgroundImageFix"/>
<feBlend mode="normal" in="SourceGraphic" in2="BackgroundImageFix" result="shape"/>
<feColorMatrix in="SourceAlpha" type="matrix" values="0 0 0 0 0 0 0 0 0 0 0 0 0 0 0 0 0 0 127 0" result="hardAlpha"/>
<feOffset dy="4"/>
<feGaussianBlur stdDeviation="4"/>
<feComposite in2="hardAlpha" operator="arithmetic" k2="-1" k3="1"/>
<feColorMatrix type="matrix" values="0 0 0 0 0.496486 0 0 0 0 0.528316 0 0 0 0 0.599933 0 0 0 0.5 0"/>
<feBlend mode="normal" in2="shape" result="effect1_innerShadow_1009_2241"/>
</filter>
<linearGradient id="paint0_linear_1009_2241" x1="476" y1="15" x2="174" y2="414" gradientUnits="userSpaceOnUse">
<stop stop-color="#0371EE"/>
<stop offset="1" stop-color="#0A1E37"/>
</linearGradient>
<linearGradient id="paint1_linear_1009_2241" x1="387" y1="136" x2="-111" y2="646" gradientUnits="userSpaceOnUse">
<stop stop-color="#0A1B23" stop-opacity="0.12"/>
<stop offset="1" stop-color="#259AB2" stop-opacity="0"/>
</linearGradient>
<linearGradient id="paint2_linear_1009_2241" x1="204.413" y1="338.37" x2="187.188" y2="1050.98" gradientUnits="userSpaceOnUse">
<stop stop-color="#0A1B23" stop-opacity="0.18"/>
<stop offset="1" stop-color="#259AB2" stop-opacity="0"/>
</linearGradient>
<linearGradient id="paint3_linear_1009_2241" x1="251.189" y1="252.401" x2="251.189" y2="-139.563" gradientUnits="userSpaceOnUse">
<stop stop-color="#03A8EE"/>
<stop offset="1" stop-color="#012855" stop-opacity="0"/>
</linearGradient>
<linearGradient id="paint4_linear_1009_2241" x1="250.189" y1="243.422" x2="250.189" y2="-128.594" gradientUnits="userSpaceOnUse">
<stop stop-color="white"/>
<stop offset="0.24" stop-color="white"/>
<stop offset="0.5" stop-color="#0399EE" stop-opacity="0.06"/>
<stop offset="0.6" stop-color="#055785" stop-opacity="0"/>
</linearGradient>
<clipPath id="clip0_1009_2241">
<rect width="486" height="435" fill="white"/>
</clipPath>
<clipPath id="clip1_1009_2241">
<rect width="48" height="36.9024" fill="white" transform="translate(219 285.393)"/>
</clipPath>
<clipPath id="clip2_1009_2241">
<rect width="16" height="15.9578" fill="white" transform="translate(275 115.842)"/>
</clipPath>
<clipPath id="clip3_1009_2241">
<rect width="16" height="15.9578" fill="white" transform="translate(75 355.208)"/>
</clipPath>
<clipPath id="clip4_1009_2241">
<rect width="16" height="15.9578" fill="white" transform="translate(355 323.293)"/>
</clipPath>
</defs>
</svg>
