<svg width="181" height="72" viewBox="0 0 181 72" fill="none" xmlns="http://www.w3.org/2000/svg">
<path fill-rule="evenodd" clip-rule="evenodd" d="M83.3765 25.7522C83.0361 25.7522 82.8851 25.9543 82.7588 26.2436C74.811 44.4973 74.1441 45.9402 74.1441 45.9402C78.6479 45.9402 78.6479 45.9402 78.6479 45.9402C79.5852 43.6502 79.5852 43.6502 79.5852 43.6502C86.371 43.6502 86.371 43.6502 86.371 43.6502C87.3119 45.9402 87.3118 45.9402 87.3118 45.9402C92.609 45.9402 92.6091 45.9402 92.6091 45.9402C92.6091 45.9402 92.1562 45.0027 83.9943 26.2436C83.8679 25.9543 83.7171 25.7522 83.3765 25.7522ZM81.0175 40.1577C82.9728 35.3791 82.9728 35.3791 82.9728 35.3791C84.9352 40.1577 84.9352 40.1577 84.9352 40.1577H81.0175ZM105.875 36.7699C107.423 35.8497 108.596 34.2428 108.596 31.9389C108.596 30.1299 107.869 28.6381 106.605 27.6309C105.324 26.6062 103.843 26.0519 100.813 26.0519C94.3327 26.0519 94.3327 26.0519 94.3327 26.0519C94.3327 45.9402 94.3327 45.9402 94.3327 45.9402C99.121 45.9402 99.121 45.9402 99.121 45.9402C99.121 38.5369 99.121 38.5369 99.121 38.5369C100.606 38.5369 100.606 38.5369 100.606 38.5369C102.221 38.5369 103.035 39.1469 103.713 40.7607C104.285 42.127 104.689 43.7478 105.215 45.9402C110.555 45.9402 110.555 45.9402 110.555 45.9402C109.796 43.6851 109.417 42.6184 108.848 41.0292C108.069 38.8543 107.125 37.5157 105.875 36.7699ZM102.814 34.33C102.235 34.7726 101.487 34.912 100.143 34.912C99.121 34.912 99.121 34.912 99.121 34.912C99.121 34.912 99.1105 29.6106 99.121 29.6106C100.143 29.6106 100.143 29.6106 100.143 29.6106C101.547 29.6106 102.245 29.764 102.81 30.1892C103.456 30.6771 103.744 31.4091 103.744 32.2561C103.744 33.1798 103.421 33.8594 102.814 34.33ZM63.4019 34.4799C55.2683 26.4004 55.2683 26.4004 55.2683 26.4004C55.0226 26.16 54.7769 25.9891 54.3906 25.9891C54.3906 45.9402 54.3906 45.9402 54.3906 45.9402C58.5716 45.9402 58.5716 45.9402 58.5716 45.9402C58.5716 36.4003 58.5716 36.4003 58.5716 36.4003C63.4019 41.1964 63.4019 41.1964 63.4019 41.1964C68.2358 36.4003 68.2358 36.4003 68.2358 36.4003C68.2358 45.9402 68.2358 45.9402 68.2358 45.9402C72.4168 45.9402 72.4169 45.9402 72.4169 45.9402C72.4169 25.9891 72.4169 25.9891 72.4169 25.9891C72.0308 25.9891 71.7851 26.16 71.5394 26.4004L63.4019 34.4799ZM125.463 36.0169C123.329 34.0024 119.457 33.6573 117.927 32.4722C117.326 32.0086 117.112 31.3255 117.309 30.6736C117.551 29.8651 118.362 29.3352 119.552 29.3352C121.191 29.3352 122.662 30.0777 123.68 31.2801C126.415 28.4395 126.415 28.4395 126.415 28.4395C124.804 26.7386 122.23 25.7139 119.52 25.7139C116.361 25.7139 113.977 27.23 112.914 29.6489C112.089 31.5276 112.373 33.4865 113.388 34.8946C115.35 37.6204 119.492 37.7039 121.286 39.1016C121.925 39.6001 122.283 40.4052 121.9 41.2731C121.57 42.0329 120.738 42.5488 119.376 42.5836C117.488 42.629 115.803 41.7506 114.563 40.2135C111.825 43.0576 111.825 43.0576 111.825 43.0576C113.637 45.2362 116.333 46.2853 119.59 46.2853C122.757 46.2853 125.537 45.0619 126.671 42.4546C127.665 40.1752 127.306 37.7528 125.463 36.0169Z" fill="#1E242A"/>
</svg>
