<?xml version="1.0" encoding="UTF-8"?>
<svg xmlns="http://www.w3.org/2000/svg" width="65" height="20" viewBox="0 0 65 20" fill="none">
  <path d="M60.4747 7.17711H58.2071C57.4602 7.17368 56.7375 7.44264 56.1739 7.93382C55.6103 8.425 55.2442 9.10487 55.1438 9.84664C54.8581 11.4879 55.7707 12.5162 57.2769 12.5162H59.5446L60.4747 7.17711ZM61.7252 0H65L63.4592 8.84654L62.8199 12.5185L62.3322 15.3192L62.2787 15.6255H56.08C53.22 15.6255 51.2999 13.1093 51.8677 9.84895C52.4355 6.5886 55.2324 4.07197 58.09 4.07197H61.0131L61.7252 0Z" fill="white"></path>
  <path d="M30.5404 12.8226H32.8081C33.555 12.8261 34.2776 12.5571 34.8413 12.0659C35.4049 11.5747 35.771 10.8949 35.8713 10.1531C36.1571 8.51185 35.2445 7.48358 33.7382 7.48358H31.4701L30.5404 12.8226ZM29.2905 20.0021H26.0166L26.7255 15.9319L26.7789 15.6257L26.8144 15.4201L28.6207 5.0501L28.6844 4.68517L28.7378 4.37891H34.9362C37.7961 4.37891 39.7158 6.89507 39.148 10.1554C38.5801 13.4158 35.7833 15.9324 32.9257 15.9324H29.9989L29.2905 20.0021Z" fill="white"></path>
  <path d="M48.6546 4.6709L45.436 11.369L44.1787 4.6709H40.5762L43.1034 15.1107C42.3903 16.4457 41.586 16.927 40.0576 16.927L39.5239 19.9906C42.554 20.1439 44.7373 18.765 46.5657 15.2862L52.1478 4.6709H48.6546Z" fill="white"></path>
  <path d="M8.95136 15.6235H12.7069L10.4332 9.99989C11.3371 9.59336 12.133 8.97952 12.7567 8.2079C13.3803 7.43629 13.8141 6.52853 14.0232 5.55791C14.5302 2.64771 12.6018 0.306152 9.69803 0.306152H2.66775L0 15.6235H3.49325C4.19199 11.6117 4.89073 7.60013 5.58947 3.58867H9.12604C10.0866 3.58867 10.724 4.44187 10.5295 5.55837C10.4555 6.07541 10.2083 6.55188 9.82864 6.90968C9.44894 7.26748 8.95921 7.48536 8.43975 7.5276H5.65722L8.95136 15.6235Z" fill="white"></path>
  <path d="M21.7718 12.823H19.5042C17.9974 12.823 17.0853 11.7947 17.3711 10.1535C17.4714 9.4117 17.8375 8.73183 18.4011 8.24065C18.9648 7.74947 19.6874 7.48051 20.4343 7.48394H22.702L21.7718 12.823ZM20.32 4.37695C17.4596 4.37695 14.6637 6.89312 14.0977 10.1535C13.5317 13.4138 15.4495 15.9304 18.3099 15.9304H24.506L24.5594 15.6242L25.0475 12.8235L25.9777 7.4844L26.4653 4.68368L26.5188 4.37741L20.32 4.37695Z" fill="white"></path>
</svg>
