<svg width="182" height="72" viewBox="0 0 182 72" fill="none" xmlns="http://www.w3.org/2000/svg">
<path d="M162.077 43.0521H142.839V42.4036H162.077V43.0521ZM152.491 39.4204L154.316 37.6693L155.034 38.3828L153.077 40.0041C152.947 40.1986 152.816 40.5229 152.686 40.7174H151.252C151.482 40.1431 151.926 39.6788 152.491 39.4204ZM146.361 28.3956C146.295 28.3956 144.86 28.7847 144.86 28.7847C144.525 28.9168 144.199 29.0684 143.883 29.2387C143.557 29.4332 143.23 29.7574 143.23 29.952L144.534 30.2762C144.714 30.0658 144.909 29.8706 145.121 29.6926L145.447 29.5629L146.49 28.4604C146.556 28.3956 146.556 28.3307 146.327 28.3956H146.361ZM155.164 31.8975C154.37 31.0351 153.63 30.1254 152.947 29.1737C153.438 27.9614 153.618 26.6463 153.469 25.3476C153.203 24.8694 152.896 24.4139 152.555 23.9856C152.425 23.7911 151.839 23.1426 151.578 23.1426C151.512 23.1426 151.447 23.1426 151.447 23.2074L151.512 23.9208C150.665 24.4396 149.686 25.0881 148.838 25.7366C148.821 25.9979 148.843 26.26 148.904 26.5149C149.041 26.6252 149.195 26.7129 149.361 26.7743C149.941 26.635 150.529 26.5267 151.121 26.4501L150.012 28.0714L148.708 28.9792L147.143 28.4604C147.013 28.4604 146.947 28.4604 146.882 28.5252L145.708 29.7574C145.668 29.7883 145.636 29.8276 145.614 29.8725C145.591 29.9174 145.579 29.9666 145.578 30.0169L145.513 31.3787V31.8327C145.491 32.3669 145.653 32.8927 145.969 33.3243L146.687 32.2218C146.54 31.9802 146.43 31.7179 146.361 31.4437V30.2762L147.077 29.7574L149.035 31.1193C149.331 31.6701 149.681 32.1913 150.078 32.6758C150.947 33.4315 151.885 34.1046 152.882 34.6862C152.965 35.1943 153.096 35.6937 153.273 36.1778L155.621 38.5773L154.251 40.3283C153.988 40.4667 153.764 40.671 153.604 40.9212C153.445 41.1714 153.353 41.4589 153.339 41.755H154.969L155.164 40.8471L157.12 38.707C157.251 38.5773 157.251 38.5124 157.186 38.3828L156.664 36.5668C157.159 36.0065 157.456 35.3006 157.512 34.5565C157.512 32.8055 155.751 32.3515 155.164 31.8651V31.8975ZM158.099 34.751C157.979 34.3292 157.826 33.9172 157.643 33.5188C157.643 33.5188 157.707 33.454 157.902 33.5188C158.099 33.5837 159.076 34.297 159.076 34.297C159.599 35.0105 159.924 38.1233 159.924 39.2258C159.353 38.9882 158.824 38.6597 158.36 38.2531L158.099 34.751ZM108.146 34.0377C108.146 32.8703 107.755 31.9624 106.777 31.9624C105.799 31.9624 105.342 32.8703 105.342 34.0377V41.755H106.516V42.9872H99.9296V41.755H101.168V31.1193H99.9296V29.9196H105.081V31.93H105.146C105.436 31.2568 105.918 30.683 106.532 30.2796C107.147 29.8761 107.867 29.6608 108.603 29.6601C109.415 29.6118 110.216 29.8628 110.854 30.3653C111.492 30.8678 111.921 31.5866 112.059 32.3839C112.186 33.0904 112.251 33.8064 112.255 34.5241V41.7875H113.82V43.0196H108.081L108.146 34.0052M81.4745 34.0052C81.4745 32.8379 81.0832 31.93 80.105 31.93C79.1268 31.93 78.6705 32.8379 78.6705 34.0052V41.7226H79.8442V42.9548H73.2578V41.7226H74.4968V31.1193H73.2578V29.9196H78.4096V31.93H78.4747C78.7644 31.2568 79.2463 30.683 79.8605 30.2796C80.4749 29.8761 81.1948 29.6608 81.931 29.6601C82.7432 29.6118 83.5448 29.8628 84.1824 30.3653C84.8202 30.8678 85.249 31.5866 85.3872 32.3839C85.5141 33.0904 85.5796 33.8064 85.5828 34.5241V41.7875H87.148V43.0196H81.4092L81.4745 34.0052ZM119.493 31.0869V40.7498C119.483 40.8631 119.498 40.977 119.537 41.0838C119.576 41.1905 119.639 41.2876 119.719 41.368C119.8 41.4483 119.898 41.51 120.005 41.5489C120.112 41.5878 120.227 41.6029 120.341 41.5928C120.606 41.5863 120.87 41.5426 121.123 41.4632V42.6305C120.338 43.0285 119.459 43.2077 118.58 43.1493C116.559 43.1493 115.32 42.1765 115.32 40.0365V31.1193H113.95V30.2762C115.515 29.0441 117.341 27.6174 118.776 26.4501H119.558V29.9196H121.547V31.0869H119.493ZM37.2608 23.1426C37.2608 23.1426 40.4562 26.3203 41.8909 27.9416V29.1737C40.0368 27.4869 37.6216 26.5399 35.1088 26.5149C29.1744 26.5149 25.4574 30.9897 25.4574 36.502C25.4574 42.0144 28.9788 46.4243 35.1088 46.4243C36.3879 46.435 37.6557 46.1844 38.8335 45.688C40.0113 45.1916 41.074 44.46 41.956 43.5385V44.7058C40.1301 47.2349 36.7391 48.8563 32.5003 48.8563C24.9357 48.9211 19.7188 43.4736 19.7188 36.5344C19.7306 34.8808 20.0712 33.2457 20.721 31.7234C21.3708 30.2011 22.3169 28.8217 23.5048 27.6644C24.6928 26.5072 26.099 25.5949 27.6429 24.9802C29.1867 24.3657 30.8375 24.0607 32.5003 24.0829C34.1187 24.0878 35.7259 24.3506 37.2608 24.8612V23.1426ZM97.9732 39.5501C97.6232 39.962 97.182 40.2877 96.6841 40.5014C96.1862 40.7152 95.6453 40.8114 95.1038 40.7822C93.93 40.7822 92.0388 40.1337 91.9737 37.0858H99.0165C99.0165 36.8263 99.0818 36.3723 99.0818 36.1129C99.0818 32.4164 97.5818 29.6926 93.604 29.6926C89.626 29.6926 87.6045 32.7407 87.6045 36.502C87.6045 40.2634 89.626 43.2467 93.604 43.2467C94.6697 43.3032 95.7284 43.0438 96.6456 42.5012C97.5628 41.9585 98.2972 41.1571 98.7558 40.1986L97.9732 39.5501ZM91.9084 35.7886C91.9084 32.3515 92.1693 31.0545 93.3431 31.0545C94.5169 31.0545 94.7778 32.2867 94.8429 35.7886H91.9084ZM33.8046 36.4371C33.8046 32.4164 34.1958 30.6654 35.5653 30.6654C36.9347 30.6654 37.3259 32.4164 37.3259 36.4371C37.3259 40.4579 36.9347 42.2089 35.5653 42.2089C34.1958 42.2089 33.8046 40.4579 33.8046 36.4371ZM28.9137 36.502C28.9137 40.4579 31.3264 43.7006 35.5653 43.7006C39.8041 43.7006 42.2169 40.4579 42.2169 36.502C42.2169 32.546 39.8041 29.2711 35.5653 29.2711C31.3264 29.2711 28.9137 32.5136 28.9137 36.4696M51.477 34.0052C51.477 32.8379 51.0857 31.93 50.1075 31.93C49.1293 31.93 48.6728 32.8379 48.6728 34.0052V41.7226H49.8141V42.9548H43.2603V41.7226H44.4993V31.1193H43.2603V29.9196H48.412V31.93H48.4772C48.7669 31.2568 49.2486 30.683 49.863 30.2796C50.4774 29.8761 51.1972 29.6608 51.9335 29.6601C52.7457 29.6118 53.5473 29.8628 54.1849 30.3653C54.8225 30.8678 55.2515 31.5866 55.3897 32.3839C55.5165 33.0904 55.5821 33.8064 55.5853 34.5241V41.7875H57.1505V43.0196H51.4117V34.0377L51.477 34.0052ZM66.4105 26.4175C66.4105 27.585 67.4539 28.3631 68.9539 28.3631C70.4537 28.3631 71.497 27.585 71.497 26.4175C71.497 25.2502 70.4537 24.472 68.9539 24.472C67.4539 24.472 66.4105 25.315 66.4105 26.4175ZM62.8239 31.0869V40.7498C62.8139 40.8631 62.8291 40.977 62.8681 41.0838C62.9072 41.1905 62.9693 41.2876 63.0502 41.368C63.131 41.4483 63.2284 41.51 63.3357 41.5489C63.4432 41.5878 63.5579 41.6029 63.6716 41.5928C63.9373 41.5863 64.2007 41.5426 64.4542 41.4632V42.6305C63.669 43.0285 62.7902 43.2077 61.9109 43.1493C59.8894 43.1493 58.6503 42.1765 58.6503 40.0365V31.1193H57.2809V30.2762C58.8459 29.0441 60.6718 27.6174 62.1065 26.4501H62.8565V29.9196H64.4868V31.0869H62.8239ZM139.774 41.7875H141.404V43.0196H135.601V26.3203H134.166V25.0881H139.806V41.8199L139.774 41.7875ZM128.623 36.5344C128.365 36.3316 128.037 36.2382 127.71 36.275C126.471 36.275 126.21 37.5072 126.21 38.7394C126.21 39.9715 126.601 40.9443 127.645 40.9443C127.827 40.9619 128.011 40.9357 128.181 40.8681C128.351 40.8003 128.503 40.6931 128.623 40.5553V36.5344ZM128.753 41.4632C128.379 42.0327 127.866 42.4981 127.261 42.8157C126.657 43.1334 125.981 43.2928 125.297 43.2791C123.145 43.2791 121.841 41.4632 121.841 39.2582C121.841 36.6642 123.732 34.978 126.732 34.978C127.372 34.9553 128.012 35.0431 128.623 35.2374V34.3944C128.651 34.0723 128.607 33.7481 128.496 33.4444C128.384 33.1407 128.208 32.8649 127.978 32.6363C127.748 32.4077 127.471 32.2319 127.165 32.1211C126.86 32.0103 126.534 31.9672 126.21 31.9948C125.621 31.996 125.041 32.1381 124.519 32.409C123.997 32.6799 123.548 33.0716 123.21 33.5513L122.493 32.6434C123.041 31.7507 123.806 31.0096 124.718 30.4883C125.629 29.9669 126.658 29.6821 127.71 29.6601C130.905 29.6601 132.796 31.5409 132.796 34.3944V41.7875H134.166V43.0196H128.818L128.753 41.4632ZM65.6931 43.0196V41.7875H66.8671V31.1193H65.6931V29.9196H71.0407V41.7875H72.2796V43.0196H65.6931Z" fill="#1E242A"/>
</svg>
