<svg width="318" height="55" viewBox="0 0 318 55" fill="none" xmlns="http://www.w3.org/2000/svg">
<g clip-path="url(#clip0_2507_2391)">
<path d="M45.3641 32.7894C49.5102 37.0201 50.0795 43.529 46.9087 48.4106C43.2504 54.0247 35.6896 55.5704 30.08 51.9093C29.3483 51.421 28.6978 50.8516 28.0475 50.2819C26.3402 48.5733 25.2021 46.3767 24.7143 43.9358C24.2265 41.495 24.4704 39.0541 25.3646 36.776C26.259 34.498 27.8849 32.6267 29.8361 31.2434C34.7952 27.9891 41.2991 28.64 45.3641 32.7894ZM36.7464 1.05859C31.7873 1.05859 27.3158 4.06895 25.446 8.70651C24.5516 10.9846 24.3077 13.4255 24.7955 15.8663C26.0151 22.4566 32.3564 26.85 39.0228 25.6296C42.2748 25.0602 45.1202 23.1075 46.99 20.3412C50.2419 15.4595 49.5917 8.95061 45.4453 4.71984C43.0877 2.36036 39.9984 1.05859 36.7464 1.05859ZM85.2003 41.495C78.4525 41.495 73.3307 36.4507 73.3307 27.4195C73.3307 18.3885 78.4525 13.3441 85.2003 13.3441C92.3546 13.3441 95.8505 17.7376 96.9073 22.9448H103.98C103.005 15.6222 97.3951 7.56746 85.3628 7.56746C73.6559 7.56746 66.2577 16.1917 66.2577 27.4195C66.2577 39.0541 73.8185 47.2717 85.3628 47.2717C97.5576 47.2717 103.33 39.1355 104.062 31.8131H97.0698C95.8505 37.1828 92.3546 41.495 85.2003 41.495ZM12.2756 1.05859C9.83667 1.05859 7.47901 1.79084 5.44655 3.17398C-0.244334 6.99794 -1.7077 14.8086 2.11332 20.5039C2.51981 21.1548 3.00759 21.7242 3.5767 22.2939C7.07252 25.7923 12.3569 26.85 16.9096 24.9787C19.186 24.0025 21.1372 22.4566 22.438 20.4225C25.6899 15.4595 24.9582 8.95061 20.812 4.8012C18.6169 2.36036 15.5276 1.05859 12.2756 1.05859ZM231.943 24.4093H231.863L221.863 8.5438H214.22V8.78789L228.366 30.5113V46.4579H235.114V30.5113L249.26 8.78789V8.46244H241.945L231.943 24.4093ZM317.307 13.995V8.46244H291.129V46.5394H317.307V41.0068H297.795V29.8604H315.518V24.4905H297.795V13.995H317.307ZM279.34 37.5084H279.26L262.919 8.46244H253.325V46.6208H260.073V15.5408H260.154L277.47 46.6208H286.008V8.46244H279.423L279.34 37.5084ZM127.638 8.46244L143.003 46.2953V46.5394H135.524L131.947 36.9387H114.793L111.297 46.5394H104.224V46.2953L119.427 8.46244H127.638ZM129.915 31.7317L123.248 14.1577H123.167L116.663 31.7317H129.915ZM167.474 29.9416L178.206 46.2953V46.5394H170.238L159.995 30.0231H153.654V46.5394H146.906V8.46244H165.035C172.108 8.46244 177.311 12.6119 177.311 19.2835C177.311 25.3041 173.003 29.0468 167.474 29.9416ZM164.06 24.8973C168.043 24.8973 170.32 22.9448 170.32 19.5275C170.32 16.1104 168.125 14.1577 164.06 14.1577H153.735V24.9787H164.06V24.8973ZM213.571 36.2878C213.571 42.1459 209.018 46.6208 200.644 46.6208H183.815V8.46244H200.644C208.205 8.46244 212.513 12.6932 212.513 18.063C212.513 22.0498 209.993 25.5482 206.254 26.85V26.9314C210.562 27.9891 213.571 31.8131 213.571 36.2878ZM190.401 24.4905H199.831C203.571 24.4905 205.929 22.4566 205.929 19.2021C205.929 15.9476 203.652 13.995 199.831 13.995H190.401V24.4905ZM206.498 35.4742C206.498 31.9758 204.14 29.6163 199.912 29.6163H190.401V41.0882H199.912C204.14 41.0882 206.498 38.9728 206.498 35.4742Z" fill="#B9C1CC"/>
</g>
<defs>
<clipPath id="clip0_2507_2391">
<rect width="317.308" height="55" fill="white"/>
</clipPath>
</defs>
</svg>
