<svg width="150" height="26" viewBox="0 0 150 26" fill="none" xmlns="http://www.w3.org/2000/svg">
<path d="M21.445 15.5C23.405 17.5 23.6741 20.5769 22.1752 22.8846C20.4458 25.5385 16.8716 26.2692 14.2198 24.5385C13.8739 24.3077 13.5664 24.0385 13.259 23.7692C12.4519 22.9615 11.9139 21.9231 11.6833 20.7692C11.4527 19.6154 11.568 18.4615 11.9907 17.3846C12.4135 16.3077 13.1821 15.4231 14.1045 14.7692C16.4488 13.2308 19.5234 13.5385 21.445 15.5ZM17.3712 0.5C15.0269 0.5 12.9131 1.92308 12.0292 4.11538C11.6064 5.19231 11.4911 6.34615 11.7217 7.5C12.2982 10.6154 15.2959 12.6923 18.4473 12.1154C19.9846 11.8462 21.3297 10.9231 22.2136 9.61539C23.7509 7.30769 23.4435 4.23077 21.4834 2.23077C20.3689 1.11538 18.9085 0.5 17.3712 0.5ZM40.2767 19.6154C37.0868 19.6154 34.6656 17.2308 34.6656 12.9615C34.6656 8.69231 37.0868 6.30769 40.2767 6.30769C43.6587 6.30769 45.3113 8.38462 45.8109 10.8462H49.1545C48.6933 7.38462 46.0415 3.57692 40.3535 3.57692C34.8193 3.57692 31.322 7.65385 31.322 12.9615C31.322 18.4615 34.8962 22.3462 40.3535 22.3462C46.1183 22.3462 48.847 18.5 49.1929 15.0385H45.8877C45.3113 17.5769 43.6587 19.6154 40.2767 19.6154ZM5.80319 0.5C4.65023 0.5 3.5357 0.846154 2.5749 1.5C-0.115335 3.30769 -0.80711 7 0.999193 9.69231C1.19135 10 1.42194 10.2692 1.69097 10.5385C3.34354 12.1923 5.84162 12.6923 7.99381 11.8077C9.06991 11.3462 9.99228 10.6154 10.6072 9.65385C12.1445 7.30769 11.7986 4.23077 9.83855 2.26923C8.80088 1.11538 7.34047 0.5 5.80319 0.5ZM109.646 11.5385H109.608L104.881 4.03846H101.268V4.15385L107.955 14.4231V21.9615H111.145V14.4231L117.832 4.15385V4H114.374L109.646 11.5385ZM150 6.61538V4H137.625V22H150V19.3846H140.776V14.1154H149.154V11.5769H140.776V6.61538H150ZM132.052 17.7308H132.014L124.289 4H119.754V22.0385H122.944V7.34615H122.982L131.168 22.0385H135.204V4H132.091L132.052 17.7308ZM60.3382 4L67.6018 21.8846V22H64.0661L62.3751 17.4615H54.2659L52.6133 22H49.2698V21.8846L56.4565 4H60.3382ZM61.4143 15L58.2628 6.69231H58.2244L55.1498 15H61.4143ZM79.1698 14.1538L84.2429 21.8846V22H80.4765L75.6341 14.1923H72.6364V22H69.4465V4H78.0169C81.3605 4 83.8201 5.96154 83.8201 9.11539C83.8201 11.9615 81.7832 13.7308 79.1698 14.1538ZM77.5557 11.7692C79.4389 11.7692 80.515 10.8462 80.515 9.23077C80.515 7.61539 79.4773 6.69231 77.5557 6.69231H72.6748V11.8077H77.5557V11.7692ZM100.961 17.1538C100.961 19.9231 98.8086 22.0385 94.8501 22.0385H86.8947V4H94.8501C98.4243 4 100.461 6 100.461 8.53846C100.461 10.4231 99.2698 12.0769 97.5019 12.6923V12.7308C99.5388 13.2308 100.961 15.0385 100.961 17.1538ZM90.0077 11.5769H94.4658C96.2336 11.5769 97.3482 10.6154 97.3482 9.07692C97.3482 7.53846 96.2721 6.61538 94.4658 6.61538H90.0077V11.5769ZM97.6172 16.7692C97.6172 15.1154 96.5027 14 94.5042 14H90.0077V19.4231H94.5042C96.5027 19.4231 97.6172 18.4231 97.6172 16.7692Z" fill="#090A0C"/>
</svg>
