<svg width="181" height="72" viewBox="0 0 181 72" fill="none" xmlns="http://www.w3.org/2000/svg">
<path d="M48.7918 27C46.8131 27 44.5649 27.3723 42.6655 28.2272C40.8929 29.0208 39.4492 30.295 39.4492 32.4076C39.4465 33.5141 39.8667 34.5797 40.6236 35.3858C40.6363 35.3976 40.6492 35.4096 40.6623 35.4217C41.178 35.9 42.0167 36.678 44.1238 37.1406C45.0895 37.3452 47.1541 37.6744 49.2105 37.8912C49.4302 37.9144 49.6492 37.9373 49.8661 37.9599C51.6791 38.1495 53.3473 38.3238 54.0766 38.5194C54.1018 38.5257 54.1277 38.5322 54.1541 38.5389C54.8095 38.7037 55.8186 38.9577 55.8186 40.1372C55.8186 41.2988 54.7885 41.6904 54.5087 41.7968C54.493 41.8027 54.4794 41.808 54.4688 41.8122C54.4579 41.8166 54.4434 41.8226 54.4254 41.8301C54.1147 41.9593 52.7526 42.526 50.409 42.526C48.7665 42.4804 47.1389 42.2 45.5755 41.6935C44.6505 41.3619 43.6807 40.9266 42.7759 39.8199C42.4107 39.2989 42.2081 38.681 42.1938 38.0447H39.9477V44.3442H42.443V43.4915C42.4427 43.4282 42.4592 43.366 42.4908 43.3112C42.5224 43.2564 42.568 43.2112 42.6229 43.1799C42.6778 43.1487 42.74 43.1326 42.8031 43.1335C42.8663 43.1343 42.928 43.1519 42.9821 43.1846C44.1577 43.6971 45.3805 44.0929 46.6331 44.3668C46.7082 44.3825 46.7818 44.3979 46.8542 44.4131C48.0436 44.6628 48.8854 44.8394 50.4213 44.8394C52.1408 44.8721 53.8545 44.6297 55.4978 44.1213C56.5889 43.8218 57.6128 43.3156 58.5138 42.6302C59.0206 42.2403 59.4302 41.738 59.7106 41.1628C59.9908 40.5876 60.1342 39.955 60.1292 39.315C60.1379 38.0988 59.6694 36.9279 58.8247 36.0544C58.3549 35.5978 57.8106 35.2251 57.2153 34.9521C56.5754 34.6627 55.9111 34.4307 55.2304 34.2589C53.9358 33.9418 51.0278 33.5451 49.6375 33.4058C49.4132 33.3827 49.1638 33.358 48.8983 33.3318C47.4371 33.1876 45.4933 32.9957 44.6382 32.7309C44.3319 32.6346 43.7068 32.3384 43.7068 31.6122C43.7068 31.0949 43.9927 30.6571 44.5565 30.3031C45.4528 29.7409 47.2623 29.3909 49.149 29.3909C50.9755 29.3688 52.787 29.723 54.4708 30.4318C54.9232 30.6293 55.3486 30.8836 55.7368 31.1889C56.3697 31.7303 56.8079 32.4644 56.9844 33.279H59.0002V27.7957H56.754V28.4316C56.754 28.6363 56.5496 28.9063 56.1412 28.6834C55.1281 28.1556 52.2817 27.0145 48.7918 27Z" fill="#1E242A"/>
<path d="M117.109 30.0064V28.0065L128.116 28.0062V30.0022H126.789C126.483 30.0022 126.278 30.2944 126.54 30.6157C126.54 30.6157 130.244 35.054 130.278 35.1012C130.314 35.148 130.344 35.1582 130.391 35.1153C130.438 35.0724 134.187 30.6565 134.217 30.6157C134.26 30.5575 134.287 30.4877 134.292 30.4146C134.299 30.3416 134.283 30.2685 134.249 30.2038C134.215 30.1391 134.163 30.0858 134.099 30.0499C134.034 30.0141 133.963 29.9974 133.889 30.0019H132.527V28.0059H141.552V30.0062H139.536C138.805 30.0062 138.514 30.141 137.957 30.7632L131.882 37.7046C131.823 37.7907 131.797 37.8953 131.808 37.9991V41.1573C131.81 41.3022 131.825 41.4467 131.853 41.5888C131.892 41.6806 131.951 41.7626 132.025 41.829C132.1 41.8954 132.188 41.9447 132.283 41.9732C132.467 41.9975 132.651 42.0092 132.835 42.0082H134.896V44.0085H123.947V42.0082L125.899 42.0106C126.084 42.0108 126.27 41.9991 126.454 41.9759C126.55 41.9471 126.638 41.8977 126.713 41.8313C126.788 41.7649 126.847 41.683 126.887 41.5912C126.915 41.4492 126.93 41.3046 126.93 41.1597V37.9997C126.93 37.8931 126.93 37.8913 126.795 37.7234C126.661 37.5558 121.045 31.1784 120.789 30.892C120.471 30.5445 119.911 30.0064 119.06 30.0064H117.109Z" fill="#1E242A"/>
<path d="M90.2539 30.0066V28.0068H98.1034L109.082 37.9284L108.969 31.2484C108.957 30.3709 108.798 30.0048 107.851 30.0048H105.788V28.0068H115.181V30.0048H113.166C112.202 30.0048 112.145 30.3156 112.128 31.2484L112.298 44.0132H109.082L96.4354 32.7108V40.7306C96.4453 41.6042 96.4863 42.0148 97.3829 42.0148H99.6289V44.0129H90.4209V42.0148H92.5778C93.3523 42.0148 93.3509 41.3016 93.3497 40.7486V40.7472C93.3497 40.7264 93.3497 40.706 93.3497 40.6856V31.3241C93.3497 30.7106 93.2636 30.0066 92.0017 30.0066H90.2539Z" fill="#1E242A"/>
<path fill-rule="evenodd" clip-rule="evenodd" d="M66.4034 30.1616C68.527 28.229 72.2847 27.002 75.8236 27.002C79.7382 27.002 82.8727 27.9899 85.2683 30.1662C86.0746 30.9042 86.7164 31.8044 87.152 32.8076C87.5876 33.811 87.8069 34.895 87.796 35.989C87.7906 37.084 87.5638 38.1667 87.1294 39.1716C86.695 40.1767 86.0619 41.0831 85.2683 41.8364C83.0361 43.9082 79.5319 45.0004 75.8236 45.0004C72.1214 45.0004 68.6904 43.8959 66.4031 41.8364C65.5853 41.1005 64.9335 40.198 64.4917 39.1896C64.0497 38.1812 63.8278 37.0901 63.8404 35.989C63.8378 34.8923 64.0646 33.8071 64.5059 32.8035C64.9474 31.7999 65.5937 30.9 66.4034 30.1616ZM80.8795 31.2768C79.6238 30.0391 77.7595 29.3416 75.8236 29.3416C73.8878 29.3416 72.015 30.033 70.7593 31.2768C69.5481 32.4774 68.9214 34.1769 68.9214 35.9807C68.9032 36.8476 69.0562 37.7093 69.3716 38.5166C69.687 39.324 70.1585 40.0608 70.7593 40.685C72.015 41.9387 73.8755 42.6321 75.8236 42.6321C77.786 42.6321 79.6076 41.9533 80.8799 40.685C82.1519 39.4171 82.7294 37.879 82.7294 35.9807C82.7294 34.1687 82.0945 32.4752 80.8795 31.2768Z" fill="#1E242A"/>
</svg>
