<svg width="124" height="29" viewBox="0 0 124 29" fill="none" xmlns="http://www.w3.org/2000/svg">
<g clip-path="url(#clip0_1_4516)">
<path d="M0 22.4848H7.43301V21.7047H6.87485C5.78842 21.7047 5.52679 21.4119 5.52679 20.3417V10.6643C6.2843 9.39718 7.30343 8.5852 8.58671 8.5852C10.1989 8.5852 11.1856 9.75396 11.1856 11.9635V20.3441C11.1856 21.4168 10.9215 21.7071 9.86998 21.7071H9.27694V22.4872H16.5455V21.7071H16.0198C14.9333 21.7071 14.6717 21.4144 14.6717 20.3441V11.6043C14.6717 11.3115 14.6717 11.0187 14.6393 10.7283C15.3619 9.42916 16.4483 8.5852 17.7315 8.5852C19.3438 8.5852 20.3306 9.75396 20.3306 11.9635V20.3441C20.3306 21.4168 20.0664 21.7071 19.0149 21.7071H18.4218V22.4872H25.6904V21.7071H25.197C24.0782 21.7071 23.8165 21.4144 23.8165 20.3441V11.6043C23.8165 8.32438 21.9427 6.50605 19.2118 6.50605C17.1734 6.50605 15.3968 7.61083 14.4424 9.81793C13.8843 7.67481 12.2397 6.50605 10.0668 6.50605C8.12573 6.50605 6.44875 7.54441 5.52679 9.62355V6.89482H0V7.67481H0.657832C1.77665 7.67481 2.03828 7.96761 2.03828 9.03794V20.3417C2.03828 21.4144 1.77415 21.7047 0.657832 21.7047H0V22.4848ZM30.0635 4.2965C31.2471 4.2965 32.2338 3.32213 32.2338 2.15338C32.2338 0.984623 31.2471 0.0102539 30.0635 0.0102539C28.8799 0.0102539 27.8932 0.984623 27.8932 2.15338C27.8932 3.32213 28.8799 4.2965 30.0635 4.2965ZM26.3806 22.4848H33.6815V21.7047H33.1882C32.1017 21.7047 31.84 21.4119 31.84 20.3417V6.89482H26.3133V7.67481H26.9711C28.0899 7.67481 28.3516 7.96761 28.3516 9.03794V20.3417C28.3516 21.4144 28.0874 21.7047 26.9711 21.7047H26.3781V22.4848H26.3806ZM39.0115 13.3267H41.117C40.5912 13.0019 40.3945 12.5467 40.1303 11.7027L39.3403 8.81157C38.979 7.51241 38.6826 6.89482 37.2348 6.89482H34.2099V7.67481H34.6384C35.5254 7.67481 35.6251 7.9996 35.8893 8.97397L36.5795 11.5083C36.9408 12.7435 37.5015 13.3267 39.014 13.3267H39.0115ZM43.8805 13.3267H45.986C47.4985 13.3267 48.0242 12.741 48.3881 11.5083L49.0784 8.97397C49.3424 7.9996 49.472 7.67481 50.3292 7.67481H50.7578V6.89482H47.7652C46.2849 6.89482 45.9885 7.48042 45.6595 8.81157L44.8697 11.7027C44.6055 12.5787 44.4061 13.0019 43.8805 13.3267ZM41.117 16.0554H43.8805V13.3267H41.117V16.0554ZM34.2099 22.4872H37.2348C38.6826 22.4872 38.979 21.8696 39.3403 20.5705L40.1303 17.6794C40.3945 16.8353 40.5912 16.3802 41.117 16.0554H39.0115C37.499 16.0554 36.9383 16.641 36.577 17.8738L35.8868 20.4081C35.6227 21.3825 35.5254 21.7071 34.6359 21.7071H34.2074V22.4872H34.2099ZM47.7602 22.4872H50.7528V21.7071H50.3243C49.4695 21.7071 49.3374 21.3825 49.0734 20.4081L48.3832 17.8738C48.0217 16.6386 47.496 16.0554 45.981 16.0554H43.8805C44.4061 16.3802 44.598 16.8034 44.8622 17.6794L45.652 20.5705C45.981 21.9016 46.2775 22.4872 47.7577 22.4872H47.7602ZM51.1814 28.9831H58.8113V28.203H58.0213C56.9698 28.203 56.7056 27.9102 56.7056 26.8398V20.6369C57.66 22.0344 59.2722 22.8785 61.1785 22.8785C64.7641 22.8785 67.6248 19.7609 67.6248 14.3699C67.6248 9.49805 64.9286 6.51098 61.4401 6.51098C59.4018 6.51098 57.69 7.67972 56.7031 9.75887V6.89975H51.1764V7.67972H51.8342C52.9207 7.67972 53.2146 7.97253 53.2146 9.04286V26.8374C53.2146 27.9102 52.9182 28.2005 51.8342 28.2005H51.1764V28.9806L51.1814 28.9831ZM60.1942 8.52123C62.3321 8.52123 64.0765 10.502 64.0765 14.4314C64.0765 18.7177 62.4641 21.0576 60.2615 21.0576C58.8461 21.0576 57.5977 20.3096 56.7081 19.0105V10.9547C57.5629 9.36274 58.7813 8.51878 60.1942 8.51878V8.52123ZM72.8251 22.8121C74.963 22.8121 76.6724 21.8057 77.9556 19.5321V19.8889C77.9556 21.8376 79.2065 22.6816 81.2772 22.6816C81.9026 22.6816 82.6926 22.6177 83.2183 22.4552V21.6433C82.9541 21.7071 82.7573 21.7417 82.5605 21.7417C81.7382 21.7417 81.4741 21.2545 81.4741 20.4744V12.1579C81.4741 8.32438 79.3037 6.50605 75.6532 6.50605C73.2187 6.50605 70.8516 7.61083 69.339 8.77959L69.8648 9.68998C71.4447 8.61719 72.9895 8.00205 74.6665 8.00205C76.8368 8.00205 77.9556 9.17082 77.9556 11.8995V12.6131L73.909 14.1731C70.2261 15.6666 68.8756 17.0642 68.8756 19.1754C68.8756 21.2864 70.388 22.8121 72.8225 22.8121H72.8251ZM72.3316 18.3289C72.3316 16.705 73.286 15.5361 75.2271 14.6922L77.9581 13.5235V18.5897C76.939 19.9872 75.7555 20.7992 74.4721 20.7992C73.1889 20.7992 72.3341 19.9233 72.3341 18.3313L72.3316 18.3289ZM83.8762 22.4872H91.3765V21.7071H90.7511C89.6646 21.7071 89.4029 21.4144 89.4029 20.3441V10.6963C90.1604 9.39718 91.2767 8.5852 92.5924 8.5852C94.3018 8.5852 95.3882 9.75396 95.3882 11.9635V20.3441C95.3882 21.4168 95.1242 21.7071 94.0725 21.7071H93.4471V22.4872H100.913V21.7071H100.255C99.1358 21.7071 98.8743 21.4144 98.8743 20.3441V11.6043C98.8743 8.32438 96.9007 6.50605 94.105 6.50605C92.0667 6.50605 90.3548 7.54441 89.4004 9.62355V6.89482H83.8737V7.67481H84.5315C85.6503 7.67481 85.912 7.96761 85.912 9.03794V20.3417C85.912 21.4144 85.6478 21.7047 84.5315 21.7047H83.8737V22.4848L83.8762 22.4872ZM109.464 22.876C111.635 22.876 113.676 21.9016 115.156 20.7328L114.662 20.0193C113.347 20.9617 111.866 21.3825 110.486 21.3825C107.132 21.3825 105.159 19.045 105.159 14.4979V13.9123H115.552C115.487 9.52759 112.756 6.5405 108.777 6.5405C104.797 6.5405 101.605 10.0812 101.605 14.7587C101.605 19.8913 104.566 22.8785 109.467 22.8785L109.464 22.876ZM108.807 7.35001C110.78 7.35001 111.996 9.46115 112.195 13.0338H105.223C105.52 9.42916 106.9 7.35001 108.809 7.35001H108.807ZM116.272 22.4848H123.902V21.7047H123.144C122.058 21.7047 121.796 21.4119 121.796 20.3417V0.399018H116.269V1.17901H116.927C118.014 1.17901 118.308 1.47181 118.308 2.54214V20.3417C118.308 21.4144 118.011 21.7047 116.927 21.7047H116.269V22.4848H116.272Z" fill="white"/>
</g>
<defs>
<clipPath id="clip0_1_4516">
<rect width="124" height="29" fill="white"/>
</clipPath>
</defs>
</svg>
