<svg width="180" height="72" viewBox="0 0 180 72" fill="none" xmlns="http://www.w3.org/2000/svg">
<path d="M55.3008 31.4189H60.3088V43.4591H63.5051V31.4189H68.513V28.542H55.3008V31.4189Z" fill="#1E242A"/>
<path d="M49.6519 38.984L42.9392 28.542H39.3164V43.4591H42.4064V33.0171L49.1192 43.4591H52.7418V28.542H49.6519V38.984Z" fill="#1E242A"/>
<path d="M81.2992 34.4875H74.2669V28.542H71.0703V43.4591H74.2669V37.3644H81.2992V43.4591H84.4957V28.542H81.2992V34.4875Z" fill="#1E242A"/>
<path d="M27.6174 28.542L21.6719 43.4591H24.9963L26.2122 40.3265H32.4324L33.6482 43.4591H36.9725L31.027 28.542H27.6174ZM27.2875 37.5562L29.3222 32.3139L31.357 37.5562H27.2875Z" fill="#1E242A"/>
<path d="M110.985 28.2861C106.68 28.2861 103.633 31.4827 103.633 36.0217C103.633 40.5182 106.68 43.7147 110.985 43.7147C115.268 43.7147 118.294 40.5182 118.294 36.0217C118.294 31.4827 115.268 28.2861 110.985 28.2861ZM110.985 40.7313C108.47 40.7313 106.936 38.9412 106.936 36.0217C106.936 33.0596 108.47 31.2696 110.985 31.2696C113.478 31.2696 114.991 33.0596 114.991 36.0217C114.991 38.9412 113.478 40.7313 110.985 40.7313Z" fill="#1E242A"/>
<path d="M155.671 38.4511C155.117 39.9002 154.009 40.7313 152.497 40.7313C149.982 40.7313 148.448 38.9412 148.448 36.0217C148.448 33.0596 149.982 31.2696 152.497 31.2696C154.009 31.2696 155.117 32.1007 155.671 33.5497H159.061C158.23 30.3532 155.736 28.2861 152.497 28.2861C148.192 28.2861 145.145 31.4827 145.145 36.0217C145.145 40.5182 148.192 43.7147 152.497 43.7147C155.756 43.7147 158.249 41.6263 159.081 38.4511H155.671Z" fill="#1E242A"/>
<path d="M135.297 28.542L141.242 43.4591H144.503L138.557 28.542H135.297Z" fill="#1E242A"/>
<path d="M128.565 28.542H121.277V43.4591H124.474V38.0463H128.565C131.954 38.0463 134.021 36.2563 134.021 33.2942C134.021 30.332 131.954 28.542 128.565 28.542ZM128.416 35.1695H124.474V31.4189H128.416C129.993 31.4189 130.824 32.0582 130.824 33.2942C130.824 34.5301 129.993 35.1695 128.416 35.1695Z" fill="#1E242A"/>
<path d="M101.181 33.0811C101.181 30.2681 99.1139 28.542 95.7254 28.542H88.4375V43.4591H91.6339V37.6201H95.1926L98.3893 43.4591H101.927L98.3871 37.1754C100.164 36.4924 101.181 35.0542 101.181 33.0811ZM91.6339 31.4188H95.5763C97.1532 31.4188 97.9843 31.9942 97.9843 33.0811C97.9843 34.1679 97.1532 34.7433 95.5763 34.7433H91.6339V31.4188Z" fill="#1E242A"/>
</svg>
