<svg width="182" height="72" viewBox="0 0 182 72" fill="none" xmlns="http://www.w3.org/2000/svg">
<path fill-rule="evenodd" clip-rule="evenodd" d="M47.1 18C42.1377 18 38.1141 22.0292 38.1141 27.0001C33.1517 27.0001 29.1289 31.0294 29.1289 35.9996C29.1289 40.9713 33.1517 44.9997 38.1141 44.9997C38.1141 49.9716 42.1377 54 47.1 54C52.064 54 56.0861 49.9716 56.0861 44.9997C61.0492 44.9997 65.0729 40.9713 65.0729 35.9996C65.0729 31.0294 61.0492 27.0001 56.0861 27.0001C56.0861 22.0292 52.064 18 47.1 18ZM47.1 35.9996C42.1377 35.9996 38.1141 40.0296 38.1141 44.9997H56.0861C56.0861 40.0296 52.064 35.9996 47.1 35.9996ZM47.1 35.9996C52.064 35.9996 56.0861 31.9712 56.0861 27.0001H38.1141C38.1141 31.9712 42.1377 35.9996 47.1 35.9996Z" fill="#1E242A"/>
<path d="M135.337 44.4772C127.981 48.0632 121 42.7019 121 36.002C121 28.2194 130.023 24.7472 135.337 27.9019V31.9118C133.888 30.5213 132.607 30.0506 130.717 30.1581C126.873 30.3777 124.886 33.1943 124.831 36.1558C124.75 40.612 129.677 44.5925 135.337 40.6211V44.4772Z" fill="#1E242A"/>
<path d="M87.5464 27H93.1146V44.9988H88.9884V32.8951L83.71 44.9988L78.1547 32.88V44.9988H74.3047V27H79.808L83.7756 36.316L87.5464 27Z" fill="#1E242A"/>
<path d="M95.168 27V44.9988H105.537V41.9475H99.1877V37.3684H105.274V34.2882H99.1877V30.1587H105.537V27H95.168Z" fill="#1E242A"/>
<path d="M137.035 44.9985H140.857V27.1729H137.035V44.9985Z" fill="#1E242A"/>
<path d="M151.427 27.2119L145.652 35.3465L152.268 44.9984H147.884L141.242 35.3312L146.964 27.2119H151.427Z" fill="#1E242A"/>
<path fill-rule="evenodd" clip-rule="evenodd" d="M107.324 26.999V44.9979H111.358V35.3281L118.026 44.9979H122.325L117.047 37.4403C119.493 36.5137 120.287 34.4593 120.287 32.4058C120.287 30.3538 118.567 26.999 114.401 26.999H107.324ZM111.358 29.9942H113.119C116.095 29.9942 116.254 31.9434 116.254 32.6711C116.254 34.0617 115.076 35.2459 113.556 35.2459H111.358V29.9942Z" fill="#1E242A"/>
</svg>
