<svg width="104" height="28" viewBox="0 0 104 28" fill="none" xmlns="http://www.w3.org/2000/svg">
<path d="M21.5608 22.9596C14.9266 27.475 6.77231 26.6936 3.27091 21.5226C-0.231396 16.3503 2.05491 8.46158 8.68925 3.94601C15.3234 -0.569462 23.4777 0.211918 26.9791 5.38291C30.4814 10.5554 28.195 18.444 21.5608 22.9596Z" stroke="white"/>
<path fill-rule="evenodd" clip-rule="evenodd" d="M19.8243 11.1023C19.8033 11.203 19.6553 11.1937 19.6468 11.0914C19.534 9.73652 18.8969 7.47692 14.53 7.73667C14.411 7.74372 14.3828 7.6661 14.4987 7.63746C16.469 7.14982 18.7655 7.43364 19.4684 7.61961C19.6457 7.66662 19.4568 8.17781 19.4866 8.35631C19.5804 8.91763 20.0955 9.80127 19.8243 11.1023ZM13.9435 5.14011C13.5448 5.0903 13.251 4.82142 13.2876 4.53946C13.324 4.25761 13.6766 4.06967 14.0752 4.11938C14.4739 4.1693 14.7673 4.43818 14.7312 4.72003C14.6948 5.00199 14.3421 5.18992 13.9435 5.14011ZM15.8586 4.95498C15.9176 4.7713 16.1762 4.68796 16.4361 4.76901C16.696 4.85016 16.8587 5.06477 16.7995 5.24845C16.7403 5.43224 16.4818 5.51547 16.222 5.43442C15.962 5.35337 15.7993 5.13876 15.8586 4.95498ZM9.35833 4.97781C7.64537 4.9749 6.89416 6.39351 6.41139 7.07904C6.34075 6.97786 4.89748 4.88929 5.50783 4.28853C6.10078 3.70501 8.2669 4.36419 9.40272 4.76652C9.5227 4.80907 9.48569 4.97802 9.35833 4.97781ZM5.66134 10.1198C5.31004 10.7149 4.71277 11.0186 4.3273 10.7982C3.94184 10.5778 3.91433 9.91656 4.26542 9.32142C4.61672 8.72627 5.2142 8.42252 5.59956 8.64293C5.98502 8.86346 6.01264 9.52461 5.66134 10.1198ZM3.92097 13.1538C3.82197 13.6759 3.4675 14.0488 3.12938 13.9866C2.79105 13.9245 2.59726 13.4508 2.69626 12.9286C2.79537 12.4065 3.14973 12.0336 3.48806 12.0957C3.82618 12.1579 4.02018 12.6316 3.92097 13.1538ZM2.89933 16.324C2.69215 16.3139 2.5359 16.0754 2.55035 15.7916C2.56479 15.5076 2.74434 15.2858 2.95152 15.2959C3.15869 15.3062 3.31505 15.5446 3.3006 15.8285C3.28626 16.1125 3.1064 16.3343 2.89933 16.324ZM21.9359 10.8709C22.0862 10.8651 22.9052 10.7104 22.9052 10.7104C22.9062 10.7104 22.9079 10.7101 22.9074 10.7099C22.8583 10.6819 21.2872 9.76391 20.8007 7.14712C20.7154 6.68854 20.5542 6.21605 20.2045 5.90161C16.0283 2.14589 10.0254 3.49258 9.70531 3.86928C7.82745 3.43675 5.33113 2.77799 4.64244 3.73624C4.22672 4.31437 4.7931 5.2167 5.10824 6.308C5.13291 6.39548 5.22981 6.68138 5.12754 6.78235C-3.53553 15.8101 2.67043 29.5031 16.6098 25.8236C16.2268 25.9089 15.5946 25.9719 15.1854 25.9719C12.2179 25.9719 10.1531 23.6972 10.1531 20.7763C10.1531 19.7532 10.449 18.7985 10.9602 17.9891C9.73589 18.9349 8.93671 20.3821 8.84277 21.9933C8.79564 21.7804 8.75726 21.564 8.73354 21.3422C8.40269 18.2614 10.5153 15.5027 13.5079 14.9701C14.3789 14.7272 15.4699 14.7563 16.7943 15.1566C17.6372 15.411 19.1953 16.2375 20.2918 16.0589C20.6834 15.9951 20.9895 15.6326 21.3493 14.7484C21.3493 14.7484 21.684 14.019 21.6835 14.0195C21.126 14.794 17.8616 14.2716 18.483 13.1183C19.1044 11.9652 21.0445 15.155 22.0218 12.932C22.0218 12.9319 22.0218 12.9321 22.0218 12.932L22.3495 12.0473C22.4155 11.869 22.3673 11.6648 22.2191 11.5432C21.7527 11.1606 21.8231 10.9012 21.9359 10.8709Z" fill="white"/>
<path fill-rule="evenodd" clip-rule="evenodd" d="M9.35805 4.97771C7.64509 4.97481 6.89388 6.39341 6.4111 7.07895C6.34046 6.97777 4.8972 4.88919 5.50755 4.28844C6.1005 3.70491 8.26661 4.36409 9.40244 4.76643C9.52242 4.80897 9.48541 4.97792 9.35805 4.97771Z" fill="#000102"/>
<path fill-rule="evenodd" clip-rule="evenodd" d="M67.2742 10.1463C67.2742 9.93095 67.4132 9.81348 67.6321 9.81348H69.9803C70.199 9.81348 70.3184 9.93095 70.3184 10.1463V19.018C70.3184 22.4261 68.8661 23.9535 65.6027 23.9535C63.9114 23.9535 62.7178 23.6401 61.643 22.8763C61.4444 22.7588 61.4241 22.5823 61.5439 22.4062L62.598 20.8201C62.7178 20.6435 62.8567 20.6046 63.0559 20.7022C63.6926 21.0746 64.5284 21.3682 65.4632 21.3682C66.6573 21.3682 67.3536 20.918 67.3339 19.4687C66.7766 19.6253 66.16 19.7428 65.5233 19.7428C63.1155 19.7428 61.2852 18.2152 61.2852 15.5518V10.1463C61.2852 9.93095 61.4241 9.81348 61.643 9.81348H63.9912C64.21 9.81348 64.3292 9.93095 64.3292 10.1463V15.4931C64.3292 16.6485 64.9659 17.1578 65.9807 17.1578C66.4582 17.1578 66.9757 17.04 67.2742 16.8833V10.1463Z" fill="white"/>
<path fill-rule="evenodd" clip-rule="evenodd" d="M40.8425 11.3953C40.8425 10.3597 40.1159 9.60728 39.029 9.60728H37.0168V13.1834H39.029C40.1159 13.1834 40.8425 12.431 40.8425 11.3953ZM43.6176 11.3953C43.6176 13.8515 41.691 15.6803 39.149 15.6803H37.0168V19.5702H34.2778V7.11035H39.149C41.6878 7.11035 43.6176 8.93565 43.6176 11.3953Z" fill="white"/>
<path fill-rule="evenodd" clip-rule="evenodd" d="M40.8425 11.3953C40.8425 10.3597 40.1159 9.60728 39.029 9.60728H37.0168V13.1834H39.029C40.1159 13.1834 40.8425 12.431 40.8425 11.3953ZM43.6176 11.3953C43.6176 13.8515 41.691 15.6803 39.149 15.6803H37.0168V19.5702H34.2778V7.11035H39.149C41.6878 7.11035 43.6176 8.93565 43.6176 11.3953Z" stroke="white" stroke-width="0.5582"/>
<path fill-rule="evenodd" clip-rule="evenodd" d="M44.9443 19.5699H47.5848V7.02051H44.9443V19.5699Z" fill="white"/>
<path fill-rule="evenodd" clip-rule="evenodd" d="M44.9443 19.5699H47.5848V7.02051H44.9443V19.5699Z" stroke="white" stroke-width="0.5582"/>
<path fill-rule="evenodd" clip-rule="evenodd" d="M57.0567 14.7498C57.0567 13.2399 55.9319 12.1152 54.3983 12.1152C52.8643 12.1152 51.7364 13.243 51.7364 14.7498C51.7364 16.2566 52.8643 17.3844 54.3983 17.3844C55.9319 17.3844 57.0567 16.2597 57.0567 14.7498ZM59.6445 9.94389V19.5557H57.5744L57.3477 18.6959C56.5091 19.4184 55.415 19.8422 54.1831 19.8422C51.2454 19.8422 49.0601 17.6595 49.0601 14.7498C49.0601 11.8516 51.2454 9.68652 54.1831 9.68652C55.4365 9.68652 56.5473 10.1212 57.3914 10.8622L57.6737 9.94347L59.6445 9.94389Z" fill="white"/>
<path fill-rule="evenodd" clip-rule="evenodd" d="M57.0567 14.7498C57.0567 13.2399 55.9319 12.1152 54.3983 12.1152C52.8643 12.1152 51.7364 13.243 51.7364 14.7498C51.7364 16.2566 52.8643 17.3844 54.3983 17.3844C55.9319 17.3844 57.0567 16.2597 57.0567 14.7498ZM59.6445 9.94389V19.5557H57.5744L57.3477 18.6959C56.5091 19.4184 55.415 19.8422 54.1831 19.8422C51.2454 19.8422 49.0601 17.6595 49.0601 14.7498C49.0601 11.8516 51.2454 9.68652 54.1831 9.68652C55.4365 9.68652 56.5473 10.1212 57.3914 10.8622L57.6737 9.94347L59.6445 9.94389Z" stroke="white" stroke-width="0.5582"/>
<path fill-rule="evenodd" clip-rule="evenodd" d="M77.3207 17.2558V19.5699H75.445C73.2964 19.5699 71.9761 18.2706 71.9761 16.1377V9.93843L73.9398 7.62549H74.5718V9.95804H77.2665V12.047H74.6164V15.793C74.6164 16.7219 75.1589 17.2558 76.1206 17.2558H77.3207Z" fill="white"/>
<path fill-rule="evenodd" clip-rule="evenodd" d="M77.3207 17.2558V19.5699H75.445C73.2964 19.5699 71.9761 18.2706 71.9761 16.1377V9.93843L73.9398 7.62549H74.5718V9.95804H77.2665V12.047H74.6164V15.793C74.6164 16.7219 75.1589 17.2558 76.1206 17.2558H77.3207Z" stroke="white" stroke-width="0.5582"/>
<path fill-rule="evenodd" clip-rule="evenodd" d="M79.4185 19.5703H82.0589V9.9585H79.4185V19.5703Z" fill="white"/>
<path fill-rule="evenodd" clip-rule="evenodd" d="M79.4185 19.5703H82.0589V9.9585H79.4185V19.5703Z" stroke="white" stroke-width="0.5582"/>
<path fill-rule="evenodd" clip-rule="evenodd" d="M89.8967 19.57L86.7713 14.9716V19.57H84.1309V7.19629H86.7713V14.229L89.7026 9.95816H92.7441L89.4408 14.5354L93.096 19.57H89.8967Z" fill="white"/>
<path fill-rule="evenodd" clip-rule="evenodd" d="M89.8967 19.57L86.7713 14.9716V19.57H84.1309V7.19629H86.7713V14.229L89.7026 9.95816H92.7441L89.4408 14.5354L93.096 19.57H89.8967Z" stroke="white" stroke-width="0.5582"/>
<path fill-rule="evenodd" clip-rule="evenodd" d="M100.765 14.7498C100.765 13.2399 99.64 12.1152 98.1063 12.1152C96.5723 12.1152 95.4444 13.243 95.4444 14.7498C95.4444 16.2566 96.5723 17.3844 98.1063 17.3844C99.64 17.3844 100.765 16.2597 100.765 14.7498ZM103.353 9.94389V19.5557H101.282L101.056 18.6959C100.217 19.4184 99.123 19.8422 97.8911 19.8422C94.9534 19.8422 92.7681 17.6595 92.7681 14.7498C92.7681 11.8516 94.9534 9.68652 97.8911 9.68652C99.1446 9.68652 100.255 10.1212 101.1 10.8622L101.382 9.94347L103.353 9.94389Z" fill="white"/>
<path fill-rule="evenodd" clip-rule="evenodd" d="M100.765 14.7498C100.765 13.2399 99.64 12.1152 98.1063 12.1152C96.5723 12.1152 95.4444 13.243 95.4444 14.7498C95.4444 16.2566 96.5723 17.3844 98.1063 17.3844C99.64 17.3844 100.765 16.2597 100.765 14.7498ZM103.353 9.94389V19.5557H101.282L101.056 18.6959C100.217 19.4184 99.123 19.8422 97.8911 19.8422C94.9534 19.8422 92.7681 17.6595 92.7681 14.7498C92.7681 11.8516 94.9534 9.68652 97.8911 9.68652C99.1446 9.68652 100.255 10.1212 101.1 10.8622L101.382 9.94347L103.353 9.94389Z" stroke="white" stroke-width="0.5582"/>
<path fill-rule="evenodd" clip-rule="evenodd" d="M81.5814 8.45753C80.6461 9.08246 79.4727 8.9872 78.9607 8.24479C78.4487 7.50238 78.7916 6.39386 79.7269 5.76882C80.6622 5.14389 81.8356 5.23915 82.3477 5.98166C82.8597 6.72407 82.5167 7.8326 81.5814 8.45753Z" fill="white"/>
<path d="M1.70813 25.7597C1.97105 25.7597 2.22774 25.8275 2.4782 25.9631C2.72867 26.0973 2.92378 26.2903 3.06354 26.5422C3.2033 26.7927 3.27318 27.0542 3.27318 27.3268C3.27318 27.5966 3.204 27.8561 3.06562 28.1052C2.92862 28.3543 2.73558 28.548 2.4865 28.6864C2.23881 28.8234 1.97935 28.8919 1.70813 28.8919C1.4369 28.8919 1.17675 28.8234 0.927673 28.6864C0.679976 28.548 0.486938 28.3543 0.34856 28.1052C0.210182 27.8561 0.140993 27.5966 0.140993 27.3268C0.140993 27.0542 0.210874 26.7927 0.350636 26.5422C0.491782 26.2903 0.687587 26.0973 0.938051 25.9631C1.18852 25.8275 1.44521 25.7597 1.70813 25.7597ZM1.70813 26.0191C1.4881 26.0191 1.27362 26.0759 1.06467 26.1893C0.8571 26.3014 0.694506 26.4626 0.576884 26.673C0.459263 26.8819 0.400452 27.0999 0.400452 27.3268C0.400452 27.5524 0.457879 27.7689 0.572733 27.9765C0.688971 28.1827 0.850873 28.3439 1.05844 28.4601C1.26601 28.575 1.48257 28.6324 1.70813 28.6324C1.93368 28.6324 2.15024 28.575 2.35781 28.4601C2.56538 28.3439 2.72659 28.1827 2.84144 27.9765C2.9563 27.7689 3.01373 27.5524 3.01373 27.3268C3.01373 27.0999 2.95491 26.8819 2.83729 26.673C2.72106 26.4626 2.55846 26.3014 2.34951 26.1893C2.14056 26.0759 1.92676 26.0191 1.70813 26.0191ZM2.21044 27.58L2.46575 27.6548C2.42423 27.8277 2.33567 27.9661 2.20006 28.0699C2.06583 28.1723 1.90255 28.2235 1.7102 28.2235C1.46666 28.2235 1.26878 28.1446 1.11656 27.9869C0.964343 27.8291 0.888235 27.6105 0.888235 27.3309C0.888235 27.1483 0.92283 26.9898 0.992019 26.8556C1.06121 26.72 1.15946 26.6183 1.28676 26.5505C1.41546 26.4813 1.56214 26.4467 1.72681 26.4467C1.91085 26.4467 2.06376 26.491 2.18553 26.5796C2.3073 26.6667 2.39033 26.7857 2.43461 26.9366L2.18761 26.9968C2.14609 26.8944 2.08452 26.8162 2.00287 26.7622C1.92261 26.7069 1.82782 26.6792 1.7185 26.6792C1.55937 26.6792 1.42791 26.7359 1.32413 26.8494C1.22173 26.9629 1.17053 27.1255 1.17053 27.3372C1.17053 27.5489 1.21896 27.7094 1.31582 27.8187C1.41407 27.9267 1.54069 27.9806 1.69567 27.9806C1.82021 27.9806 1.92953 27.9447 2.02363 27.8727C2.11773 27.8007 2.18 27.7032 2.21044 27.58Z" fill="black"/>
</svg>
