<svg width="181" height="72" viewBox="0 0 181 72" fill="none" xmlns="http://www.w3.org/2000/svg">
<mask id="mask0_747_6179" style="mask-type:luminance" maskUnits="userSpaceOnUse" x="31" y="0" width="119" height="72">
<path d="M149.743 0H31.457V72H149.743V0Z" fill="white"/>
</mask>
<g mask="url(#mask0_747_6179)">
<path fill-rule="evenodd" clip-rule="evenodd" d="M54.7033 35.8987C54.7033 28.6053 51.5774 25.0596 45.918 25.0596H37.8828V46.9418H45.918C52.5876 46.8909 54.7033 42.2314 54.7033 35.8987ZM44.2004 28.505C48.9484 28.505 49.4057 31.9468 49.4057 36.3544C49.4057 41.1669 47.7869 43.3946 45.0065 43.3946H43.1376V28.505H44.2004Z" fill="#1E242A"/>
<path fill-rule="evenodd" clip-rule="evenodd" d="M68.5809 35.4939C69.678 35.1627 70.6407 34.49 71.329 33.5737C72.0172 32.6575 72.3949 31.5453 72.4073 30.3995C72.4073 29.9437 72.3119 25.0674 66.1599 25.0674H57.0039V46.9416H64.7394C66.7879 46.9416 73.1723 46.9416 73.1723 40.7896C73.1723 39.2525 72.5455 36.3599 68.5809 35.4939ZM62.2077 33.7218V28.4426H63.8638C66.2167 28.4426 67.1513 29.264 67.1513 31.075C67.1513 32.5141 66.1223 33.7218 64.2931 33.7218H62.2077ZM67.9005 40.5833C67.9005 43.3945 65.1944 43.3945 64.361 43.3945H62.2077V37.7717H64.5041C67.2341 37.7717 67.9005 39.3647 67.9005 40.5833Z" fill="#1E242A"/>
<path fill-rule="evenodd" clip-rule="evenodd" d="M76.1017 19.6374C75.5198 19.4005 74.8966 19.2811 74.2683 19.2863H36.1116C35.4832 19.2811 34.8601 19.4005 34.2781 19.6374C33.6961 19.8742 33.1668 20.2241 32.7207 20.6665C32.2745 21.1091 31.9204 21.6354 31.6787 22.2154C31.437 22.7954 31.3126 23.4175 31.3125 24.0459V47.904C31.3116 48.535 31.435 49.1601 31.6757 49.7433C31.9164 50.3267 32.2697 50.8569 32.7154 51.3037C33.161 51.7503 33.6903 52.1049 34.2731 52.347C34.8558 52.5891 35.4805 52.7141 36.1116 52.7147H74.2683C74.8993 52.7141 75.524 52.5891 76.1068 52.347C76.6895 52.1049 77.2189 51.7503 77.6645 51.3037C78.1101 50.8569 78.4634 50.3267 78.7041 49.7433C78.9448 49.16 79.0682 48.535 79.0673 47.904V24.0459C79.0673 23.4175 78.9429 22.7954 78.7012 22.2154C78.4594 21.6354 78.1054 21.1091 77.6592 20.6665C77.2131 20.2241 76.6837 19.8742 76.1017 19.6374ZM75.5812 47.904C75.5878 48.0809 75.5589 48.2572 75.4959 48.4226C75.433 48.588 75.3375 48.739 75.2149 48.8667C75.0925 48.9945 74.9456 49.0962 74.7829 49.166C74.6203 49.2357 74.4453 49.2721 74.2683 49.2727H36.1116C35.9346 49.2721 35.7596 49.2357 35.597 49.166C35.4343 49.0962 35.2874 48.9945 35.1649 48.8667C35.0424 48.739 34.9469 48.588 34.8839 48.4226C34.821 48.2572 34.792 48.0809 34.7987 47.904V24.0459C34.7921 23.8692 34.8211 23.6928 34.884 23.5276C34.947 23.3623 35.0425 23.2113 35.1651 23.0838C35.2876 22.9562 35.4345 22.8545 35.5971 22.785C35.7597 22.7154 35.9347 22.6793 36.1116 22.6788H74.2683C74.4452 22.6793 74.6202 22.7154 74.7828 22.785C74.9453 22.8545 75.0923 22.9562 75.2148 23.0838C75.3373 23.2113 75.4329 23.3623 75.4959 23.5276C75.5588 23.6928 75.5878 23.8692 75.5812 24.0459V47.904Z" fill="#1E242A"/>
<path d="M94.8083 30.4385C96.1809 30.4412 97.5396 30.7146 98.8066 31.243V28.0945C97.4877 27.6208 96.0945 27.3871 94.6933 27.4053C92.3495 27.4053 90.3962 28.0489 88.9716 29.2894C87.2022 30.8293 86.375 33.0352 86.375 36.2293C86.375 38.9406 86.9495 40.8942 88.1443 42.3184C89.546 43.9731 91.775 44.8461 94.5555 44.8461C96.0531 44.8624 97.5358 44.5486 98.8984 43.927V40.9856C97.5944 41.527 96.1971 41.8077 94.7852 41.8129C91.8439 41.8129 90.649 40.2044 90.649 36.2064C90.649 32.047 91.798 30.4385 94.8083 30.4385Z" fill="#1E242A"/>
<path fill-rule="evenodd" clip-rule="evenodd" d="M108.182 42.7789C107.194 44.2032 105.999 44.8696 104.413 44.8696C102.161 44.8696 100.852 43.5601 100.852 41.2852C100.852 39.3778 101.702 38.2977 103.609 37.8384C104.758 37.5395 105.493 37.4704 108.044 37.3556V36.6892C108.044 35.2878 107.492 34.759 106.045 34.759C104.85 34.759 103.931 34.92 101.817 35.5402V32.6912C103.285 32.167 104.831 31.8951 106.389 31.8867C110.181 31.8867 111.743 33.2887 111.743 36.6664V41.7217C111.743 42.2529 111.767 42.655 111.825 42.9664C111.844 43.0657 111.866 43.1557 111.892 43.2379C111.914 43.3064 111.938 43.3693 111.965 43.4272C112.051 43.6109 112.167 43.747 112.318 43.8585V44.5021H108.733L108.182 42.7789ZM108.044 39.0789C107.21 39.0746 106.378 39.1596 105.562 39.3322C104.758 39.5615 104.459 39.9753 104.459 40.9406C104.459 41.9517 104.873 42.3882 105.838 42.3882C106.253 42.3779 106.661 42.2856 107.04 42.1157C107.419 41.946 107.76 41.7026 108.044 41.4V39.0789Z" fill="#1E242A"/>
<path d="M114.707 32.6675C116.178 32.6217 117.097 32.3686 117.556 31.9092H118.407V34.2303C119.579 32.8283 120.842 32.0929 122.336 31.9782V35.3561C121.002 35.4138 119.681 35.6456 118.407 36.0453V44.5017H114.707V32.6675Z" fill="#1E242A"/>
<path fill-rule="evenodd" clip-rule="evenodd" d="M135.525 44.0418C135.525 47.6039 133.341 49.3962 128.953 49.3962C127.377 49.3877 125.812 49.1401 124.311 48.6606V45.7194C125.706 46.2548 127.183 46.5425 128.677 46.5695C130.929 46.5695 131.825 45.8345 131.825 43.95V42.7096C130.767 43.7191 129.358 44.2793 127.895 44.2718C124.977 44.2718 123.438 42.204 123.438 38.2511C123.438 34.2992 125.207 32.001 128.263 32.001C129.826 32.001 130.998 32.5294 132.261 33.7936L132.813 32.2771H135.525V44.0418ZM131.825 35.5398C131.15 35.0953 130.358 34.8631 129.55 34.8733C127.941 34.8733 127.275 35.9077 127.275 38.4121C127.275 40.8711 127.872 41.7903 129.481 41.7903C130.262 41.7903 130.837 41.5833 131.825 40.9396V35.5398Z" fill="#1E242A"/>
<path fill-rule="evenodd" clip-rule="evenodd" d="M149.887 38.3896C149.887 42.5719 147.704 44.8696 143.729 44.8696C139.707 44.8696 137.57 42.5719 137.57 38.2977C137.57 34.1844 139.776 31.8867 143.729 31.8867C147.704 31.8867 149.887 34.1844 149.887 38.3896ZM141.775 35.6325C141.49 36.4986 141.373 37.4107 141.431 38.3206C141.431 39.9753 141.569 40.8025 141.913 41.3542C142.021 41.5361 142.157 41.6984 142.315 41.8351C142.428 41.9325 142.552 42.0169 142.686 42.0859C143.007 42.2529 143.368 42.3257 143.729 42.2962C143.909 42.3097 144.088 42.2986 144.263 42.2636C144.484 42.2197 144.697 42.1382 144.892 42.0211C145.242 41.8108 145.518 41.4978 145.682 41.1243C145.912 40.5959 146.026 39.7687 146.026 38.3667C146.026 36.7812 145.889 35.9538 145.544 35.4026C145.36 35.0906 145.093 34.8369 144.772 34.6704C144.451 34.5039 144.089 34.4311 143.729 34.4601C143.322 34.4293 142.915 34.5259 142.566 34.7357C142.216 34.9456 141.94 35.259 141.775 35.6325Z" fill="#1E242A"/>
</g>
</svg>
