<?xml version="1.0" encoding="UTF-8"?> <svg xmlns="http://www.w3.org/2000/svg" width="140" height="60" viewBox="0 0 140 60" fill="none"><path d="M78.4933 35.9365H77.6862V33.9884C77.6862 33.2833 77.4508 32.9308 76.98 32.9308C76.7434 32.9308 76.544 33.0329 76.3816 33.2369C76.2193 33.441 76.1381 33.702 76.1381 34.0197V35.9365H75.3275V30.6626H76.1381V32.9656H76.152C76.421 32.5157 76.806 32.2907 77.307 32.2907C78.0978 32.2907 78.4933 32.7743 78.4933 33.7414V35.9365Z" fill="white"></path><path d="M74.6317 35.8985C74.474 35.9773 74.2665 36.0168 74.009 36.0168C73.3179 36.0168 72.9723 35.6851 72.9723 35.0218V33.0076H72.3774V32.3744H72.9723V31.5499L73.7794 31.3203V32.3744H74.6317V33.0076H73.7794V34.7887C73.7794 34.9998 73.8177 35.1505 73.8942 35.241C73.9708 35.3314 74.0983 35.3766 74.2769 35.3766C74.4137 35.3766 74.532 35.3372 74.6317 35.2584V35.8985Z" fill="white"></path><path d="M71.2955 31.6264C71.1633 31.6264 71.0497 31.5835 70.9546 31.4977C70.8618 31.4119 70.8154 31.3029 70.8154 31.1707C70.8154 31.0385 70.8618 30.9283 70.9546 30.8402C71.0497 30.7521 71.1633 30.708 71.2955 30.708C71.4323 30.708 71.5483 30.7521 71.6434 30.8402C71.7385 30.9283 71.786 31.0385 71.786 31.1707C71.786 31.2959 71.7385 31.4038 71.6434 31.4942C71.5483 31.5824 71.4323 31.6264 71.2955 31.6264ZM71.6956 35.9367H70.8885V32.3744H71.6956V35.9367Z" fill="white"></path><path d="M70.2867 32.374L69.236 35.9364H68.3907L67.7436 33.522C67.7181 33.4293 67.7019 33.3249 67.6949 33.2089H67.681C67.6764 33.2878 67.6555 33.3898 67.6184 33.5151L66.9157 35.9364H66.0877L65.0406 32.374H65.8755L66.5225 34.9414C66.5434 35.0179 66.5573 35.12 66.5643 35.2476H66.5886C66.5956 35.1501 66.6142 35.0458 66.6443 34.9345L67.3644 32.374H68.1228L68.7629 34.9519C68.7838 35.033 68.7989 35.1351 68.8082 35.258H68.8325C68.8371 35.1722 68.8545 35.0701 68.8847 34.9519L69.5178 32.374H70.2867Z" fill="white"></path><path d="M62.9637 33.143C62.8663 33.0664 62.726 33.0282 62.5427 33.0282C62.3039 33.0282 62.1044 33.136 61.9444 33.3517C61.7844 33.5674 61.7043 33.8608 61.7043 34.2318V35.9365H60.8972V32.3741H61.7043V33.1082H61.7183C61.7971 32.8577 61.9177 32.6629 62.0801 32.5237C62.2447 32.3823 62.4279 32.3115 62.6297 32.3115C62.7758 32.3115 62.8871 32.3336 62.9637 32.3776V33.143Z" fill="white"></path><path d="M60.1284 34.3744H57.7002C57.7095 34.7037 57.8103 34.9576 58.0028 35.1362C58.1977 35.3148 58.4644 35.4041 58.803 35.4041C59.1833 35.4041 59.5324 35.2905 59.8501 35.0632V35.7137C59.5254 35.9178 59.0964 36.0199 58.5629 36.0199C58.0388 36.0199 57.6271 35.8587 57.3279 35.5363C57.0311 35.2116 56.8827 34.7559 56.8827 34.1691C56.8827 33.6148 57.0462 33.1637 57.3732 32.8158C57.7025 32.4656 58.1107 32.2905 58.5977 32.2905C59.0848 32.2905 59.4616 32.4471 59.7284 32.7602C59.9951 33.0733 60.1284 33.5081 60.1284 34.0647V34.3744ZM59.3492 33.8038C59.3468 33.5139 59.2784 33.289 59.1439 33.1289C59.0094 32.9666 58.8239 32.8854 58.5873 32.8854C58.3554 32.8854 58.1582 32.9701 57.9959 33.1394C57.8359 33.3087 57.7373 33.5302 57.7002 33.8038H59.3492Z" fill="white"></path><path d="M56.1243 35.9364H55.3172V33.9291C55.3172 33.2634 55.0818 32.9306 54.611 32.9306C54.3651 32.9306 54.1622 33.0234 54.0022 33.2089C53.8422 33.3922 53.7621 33.6241 53.7621 33.9047V35.9364H52.9516V32.374H53.7621V32.9654H53.7761C54.0428 32.5155 54.4278 32.2905 54.931 32.2905C55.3183 32.2905 55.614 32.4169 55.8181 32.6697C56.0222 32.9202 56.1243 33.2832 56.1243 33.7586V35.9364Z" fill="white"></path><path d="M52.2558 35.8985C52.0981 35.9773 51.8905 36.0168 51.6331 36.0168C50.9419 36.0168 50.5964 35.6851 50.5964 35.0218V33.0076H50.0015V32.3744H50.5964V31.5499L51.4035 31.3203V32.3744H52.2558V33.0076H51.4035V34.7887C51.4035 34.9998 51.4417 35.1505 51.5183 35.241C51.5948 35.3314 51.7224 35.3766 51.9009 35.3766C52.0378 35.3766 52.1561 35.3372 52.2558 35.2584V35.8985Z" fill="white"></path><path d="M49.5979 33.143C49.5005 33.0664 49.3602 33.0282 49.177 33.0282C48.9381 33.0282 48.7387 33.136 48.5786 33.3517C48.4186 33.5674 48.3386 33.8608 48.3386 34.2318V35.9365H47.5315V32.3741H48.3386V33.1082H48.3525C48.4314 32.8577 48.552 32.6629 48.7143 32.5237C48.879 32.3823 49.0622 32.3115 49.264 32.3115C49.4101 32.3115 49.5214 32.3336 49.5979 32.3776V33.143Z" fill="white"></path><path d="M46.5435 35.9364H45.7608V35.3797H45.7468C45.501 35.8065 45.1404 36.0199 44.6649 36.0199C44.3147 36.0199 44.0399 35.9248 43.8404 35.7346C43.6433 35.5444 43.5447 35.2928 43.5447 34.9797C43.5447 34.3071 43.932 33.9151 44.7067 33.8038L45.7642 33.6542C45.7642 33.1463 45.523 32.8924 45.0406 32.8924C44.6162 32.8924 44.2336 33.0385 43.8926 33.3307V32.6245C44.2683 32.4019 44.702 32.2905 45.1937 32.2905C46.0936 32.2905 46.5435 32.7335 46.5435 33.6194V35.9364ZM45.7642 34.1865L45.0163 34.2909C44.7844 34.321 44.6093 34.3778 44.491 34.4613C44.375 34.5425 44.317 34.6863 44.317 34.8927C44.317 35.0435 44.3704 35.1675 44.4771 35.2649C44.5861 35.36 44.731 35.4076 44.9119 35.4076C45.1578 35.4076 45.3607 35.3218 45.5207 35.1501C45.6831 34.9762 45.7642 34.7582 45.7642 34.4961V34.1865Z" fill="white"></path><path d="M40.4207 35.4111H40.4068V37.5749H39.5997V32.374H40.4068V33.0002H40.4207C40.6967 32.5271 41.1003 32.2905 41.6314 32.2905C42.0836 32.2905 42.4362 32.4494 42.6889 32.7671C42.9417 33.0849 43.0681 33.5116 43.0681 34.0473C43.0681 34.6411 42.9255 35.1165 42.6402 35.4737C42.355 35.8308 41.9653 36.0094 41.4713 36.0094C41.0168 36.0094 40.6666 35.81 40.4207 35.4111ZM40.3999 34.0056V34.4474C40.3999 34.7072 40.4822 34.9275 40.6469 35.1084C40.8138 35.2893 41.0249 35.3797 41.28 35.3797C41.5792 35.3797 41.8134 35.2638 41.9827 35.0319C42.1544 34.7976 42.2402 34.4718 42.2402 34.0543C42.2402 33.7041 42.1602 33.4304 42.0001 33.2333C41.8424 33.0338 41.6279 32.9341 41.3566 32.9341C41.069 32.9341 40.837 33.0362 40.6608 33.2403C40.4868 33.4443 40.3999 33.6995 40.3999 34.0056Z" fill="white"></path><path d="M34.9589 36.0199C34.4093 36.0199 33.9698 35.854 33.6405 35.5224C33.3134 35.1884 33.1499 34.7466 33.1499 34.1969C33.1499 33.5986 33.3204 33.1312 33.6613 32.795C34.0046 32.4587 34.4661 32.2905 35.0459 32.2905C35.6025 32.2905 36.0362 32.454 36.347 32.781C36.6578 33.1081 36.8132 33.5615 36.8132 34.1413C36.8132 34.7095 36.645 35.1652 36.3087 35.5085C35.9748 35.8494 35.5248 36.0199 34.9589 36.0199ZM34.9972 32.9341C34.6818 32.9341 34.4325 33.0443 34.2492 33.2646C34.066 33.4849 33.9744 33.7888 33.9744 34.1761C33.9744 34.5495 34.0672 34.844 34.2527 35.0597C34.4383 35.2731 34.6864 35.3797 34.9972 35.3797C35.3149 35.3797 35.5585 35.2742 35.7278 35.0632C35.8994 34.8521 35.9852 34.5518 35.9852 34.1621C35.9852 33.7702 35.8994 33.4675 35.7278 33.2542C35.5585 33.0408 35.3149 32.9341 34.9972 32.9341Z" fill="white"></path><path d="M32.7255 35.8985C32.5678 35.9773 32.3602 36.0168 32.1028 36.0168C31.4117 36.0168 31.0661 35.6851 31.0661 35.0218V33.0076H30.4712V32.3744H31.0661V31.5499L31.8732 31.3203V32.3744H32.7255V33.0076H31.8732V34.7887C31.8732 34.9998 31.9115 35.1505 31.988 35.241C32.0645 35.3314 32.1921 35.3766 32.3707 35.3766C32.5075 35.3766 32.6258 35.3372 32.7255 35.2584V35.8985Z" fill="white"></path><path d="M27.8308 35.9365H27.0237V35.3312H27.0098C26.75 35.7904 26.3499 36.02 25.8096 36.02C25.3712 36.02 25.0199 35.8612 24.7555 35.5434C24.4934 35.2234 24.3624 34.7885 24.3624 34.2389C24.3624 33.6498 24.5073 33.1778 24.7972 32.823C25.0894 32.4681 25.4779 32.2907 25.9626 32.2907C26.4427 32.2907 26.7918 32.4832 27.0098 32.8682H27.0237V30.6626H27.8308V35.9365ZM27.0341 34.3084V33.8423C27.0341 33.5895 26.9518 33.3749 26.7871 33.1987C26.6225 33.0224 26.4126 32.9343 26.1575 32.9343C25.856 32.9343 25.6182 33.0468 25.4443 33.2717C25.2727 33.4967 25.1869 33.8086 25.1869 34.2075C25.1869 34.5693 25.2692 34.8558 25.4339 35.0668C25.6008 35.2756 25.8246 35.3799 26.1053 35.3799C26.3813 35.3799 26.6051 35.279 26.7767 35.0773C26.9483 34.8732 27.0341 34.6169 27.0341 34.3084Z" fill="white"></path><path d="M23.5379 35.9364H22.7308V35.3728H22.7169C22.4826 35.8042 22.1185 36.0199 21.6245 36.0199C20.7826 36.0199 20.3617 35.5143 20.3617 34.5031V32.374H21.1688V34.4196C21.1688 35.0597 21.4158 35.3797 21.9098 35.3797C22.1487 35.3797 22.3446 35.2916 22.4977 35.1154C22.6531 34.9391 22.7308 34.7083 22.7308 34.4231V32.374H23.5379V35.9364Z" fill="white"></path><path d="M17.7526 36.0199C17.2029 36.0199 16.7634 35.854 16.4341 35.5224C16.1071 35.1884 15.9436 34.7466 15.9436 34.1969C15.9436 33.5986 16.114 33.1312 16.455 32.795C16.7982 32.4587 17.2597 32.2905 17.8395 32.2905C18.3962 32.2905 18.8299 32.454 19.1406 32.781C19.4514 33.1081 19.6068 33.5615 19.6068 34.1413C19.6068 34.7095 19.4387 35.1652 19.1024 35.5085C18.7684 35.8494 18.3185 36.0199 17.7526 36.0199ZM17.7908 32.9341C17.4754 32.9341 17.2261 33.0443 17.0429 33.2646C16.8597 33.4849 16.7681 33.7888 16.7681 34.1761C16.7681 34.5495 16.8608 34.844 17.0464 35.0597C17.2319 35.2731 17.4801 35.3797 17.7908 35.3797C18.1086 35.3797 18.3521 35.2742 18.5214 35.0632C18.693 34.8521 18.7788 34.5518 18.7788 34.1621C18.7788 33.7702 18.693 33.4675 18.5214 33.2542C18.3521 33.0408 18.1086 32.9341 17.7908 32.9341Z" fill="white"></path><path d="M15.6653 33.143C15.5678 33.0664 15.4275 33.0282 15.2443 33.0282C15.0054 33.0282 14.806 33.136 14.6459 33.3517C14.4859 33.5674 14.4059 33.8608 14.4059 34.2318V35.9365H13.5988V32.3741H14.4059V33.1082H14.4198C14.4987 32.8577 14.6193 32.6629 14.7816 32.5237C14.9463 32.3823 15.1295 32.3115 15.3313 32.3115C15.4774 32.3115 15.5887 32.3336 15.6653 32.3776V33.143Z" fill="white"></path><path d="M10.3461 34.1274V35.9364H9.52161V30.9478H11.0349C11.6078 30.9478 12.0519 31.0811 12.3673 31.3478C12.6827 31.6145 12.8404 31.9902 12.8404 32.475C12.8404 32.9597 12.6758 33.3563 12.3464 33.6647C12.0171 33.9732 11.5718 34.1274 11.0106 34.1274H10.3461ZM10.3461 31.6296V33.4525H10.8818C11.2367 33.4525 11.5069 33.3702 11.6924 33.2055C11.8779 33.0409 11.9707 32.8089 11.9707 32.5098C11.9707 31.923 11.6298 31.6296 10.9479 31.6296H10.3461Z" fill="white"></path><path d="M127.606 50.1414V48.8325C128.134 49.2343 128.716 49.4352 129.353 49.4352C130.206 49.4352 130.632 49.1836 130.632 48.6803C130.632 48.5383 130.595 48.4185 130.522 48.3211C130.449 48.2197 130.35 48.1304 130.224 48.0533C130.102 47.9762 129.956 47.9072 129.786 47.8463C129.619 47.7854 129.433 47.7164 129.226 47.6393C128.97 47.5378 128.738 47.4303 128.531 47.3166C128.329 47.203 128.158 47.0751 128.02 46.9331C127.886 46.787 127.785 46.6226 127.716 46.44C127.647 46.2573 127.612 46.0442 127.612 45.8007C127.612 45.5004 127.683 45.2366 127.825 45.0093C127.967 44.7779 128.158 44.5851 128.398 44.4309C128.637 44.2726 128.909 44.1549 129.213 44.0778C129.518 43.9966 129.832 43.9561 130.157 43.9561C130.733 43.9561 131.249 44.0433 131.703 44.2178V45.4537C131.265 45.1534 130.762 45.0032 130.194 45.0032C130.015 45.0032 129.853 45.0215 129.706 45.058C129.564 45.0945 129.443 45.1452 129.341 45.2102C129.24 45.2751 129.161 45.3543 129.104 45.4476C129.047 45.5369 129.019 45.6363 129.019 45.7459C129.019 45.8799 129.047 45.9935 129.104 46.0868C129.161 46.1802 129.244 46.2634 129.353 46.3365C129.467 46.4055 129.601 46.4704 129.755 46.5313C129.913 46.5881 130.094 46.651 130.297 46.72C130.565 46.8296 130.804 46.9412 131.015 47.0548C131.23 47.1685 131.413 47.2984 131.563 47.4445C131.713 47.5865 131.829 47.7529 131.91 47.9437C131.991 48.1304 132.032 48.3536 132.032 48.6134C132.032 48.9299 131.959 49.2059 131.813 49.4413C131.667 49.6767 131.472 49.8715 131.228 50.0258C130.985 50.18 130.703 50.2936 130.382 50.3667C130.066 50.4438 129.731 50.4824 129.378 50.4824C128.696 50.4824 128.105 50.3687 127.606 50.1414Z" fill="white"></path><path d="M121.92 49.417H121.896V53.2037H120.483V44.1022H121.896V45.198H121.92C122.403 44.37 123.109 43.9561 124.039 43.9561C124.83 43.9561 125.447 44.2341 125.889 44.7901C126.332 45.3461 126.553 46.0929 126.553 47.0305C126.553 48.0695 126.303 48.9015 125.804 49.5266C125.305 50.1516 124.623 50.4641 123.758 50.4641C122.963 50.4641 122.35 50.1151 121.92 49.417ZM121.883 46.9574V47.7306C121.883 48.1852 122.027 48.5707 122.316 48.8873C122.608 49.2039 122.977 49.3622 123.424 49.3622C123.947 49.3622 124.357 49.1593 124.653 48.7534C124.954 48.3435 125.104 47.7732 125.104 47.0427C125.104 46.4298 124.964 45.9509 124.684 45.6059C124.408 45.2569 124.032 45.0823 123.558 45.0823C123.054 45.0823 122.648 45.2609 122.34 45.6181C122.036 45.9752 121.883 46.4217 121.883 46.9574Z" fill="white"></path><path d="M118.639 50.3361H117.226V49.3499H117.202C116.792 50.1048 116.155 50.4823 115.29 50.4823C113.817 50.4823 113.08 49.5975 113.08 47.8279V44.1021H114.493V47.6818C114.493 48.802 114.925 49.3621 115.789 49.3621C116.207 49.3621 116.55 49.2078 116.818 48.8994C117.09 48.5909 117.226 48.1871 117.226 47.6879V44.1021H118.639V50.3361Z" fill="white"></path><path d="M111.984 50.2691C111.708 50.4071 111.345 50.4761 110.895 50.4761C109.685 50.4761 109.08 49.8957 109.08 48.7349V45.21H108.039V44.102H109.08V42.6591L110.493 42.2573V44.102H111.984V45.21H110.493V48.327C110.493 48.6964 110.56 48.9602 110.694 49.1185C110.828 49.2768 111.051 49.3559 111.363 49.3559C111.603 49.3559 111.81 49.2869 111.984 49.1489V50.2691Z" fill="white"></path><path d="M107.333 45.4477C107.163 45.3138 106.917 45.2468 106.596 45.2468C106.178 45.2468 105.829 45.4355 105.549 45.813C105.269 46.1904 105.129 46.7039 105.129 47.3532V50.3364H103.717V44.1023H105.129V45.3868H105.154C105.292 44.9485 105.503 44.6076 105.787 44.364C106.075 44.1165 106.396 43.9927 106.749 43.9927C107.004 43.9927 107.199 44.0312 107.333 44.1083V45.4477Z" fill="white"></path><path d="M101.988 50.3363H100.618V49.3622H100.594C100.164 50.109 99.5324 50.4824 98.7004 50.4824C98.0875 50.4824 97.6065 50.316 97.2575 49.9832C96.9125 49.6504 96.74 49.21 96.74 48.6621C96.74 47.4851 97.4178 46.7991 98.7734 46.6043L100.624 46.3425C100.624 45.4537 100.202 45.0093 99.3579 45.0093C98.6151 45.0093 97.9454 45.265 97.3488 45.7764V44.5405C98.0063 44.1509 98.7653 43.9561 99.6257 43.9561C101.2 43.9561 101.988 44.7313 101.988 46.2817V50.3363ZM100.624 47.274L99.3152 47.4566C98.9094 47.5094 98.6029 47.6088 98.396 47.755C98.193 47.897 98.0916 48.1486 98.0916 48.5099C98.0916 48.7737 98.1849 48.9908 98.3716 49.1613C98.5624 49.3277 98.816 49.4109 99.1326 49.4109C99.5628 49.4109 99.918 49.2607 100.198 48.9604C100.482 48.656 100.624 48.2745 100.624 47.8158V47.274Z" fill="white"></path><path d="M95.9851 50.2691C95.7091 50.4071 95.3459 50.4761 94.8954 50.4761C93.6859 50.4761 93.0811 49.8957 93.0811 48.7349V45.21H92.0401V44.102H93.0811V42.6591L94.4936 42.2573V44.102H95.9851V45.21H94.4936V48.327C94.4936 48.6964 94.5605 48.9602 94.6945 49.1185C94.8284 49.2768 95.0516 49.3559 95.3641 49.3559C95.6036 49.3559 95.8106 49.2869 95.9851 49.1489V50.2691Z" fill="white"></path><path d="M86.0252 49.9892V48.4977C86.1591 48.6194 86.3174 48.729 86.5 48.8264C86.6867 48.9238 86.8836 49.007 87.0906 49.076C87.2976 49.141 87.5045 49.1917 87.7115 49.2282C87.9185 49.2648 88.1093 49.283 88.2838 49.283C88.8926 49.283 89.3451 49.1816 89.6414 48.9786C89.9418 48.7757 90.0919 48.4814 90.0919 48.0959C90.0919 47.8889 90.0412 47.7103 89.9397 47.5601C89.8423 47.4059 89.7043 47.2659 89.5258 47.1401C89.3472 47.0142 89.1361 46.8945 88.8926 46.7809C88.6531 46.6632 88.3954 46.5414 88.1194 46.4156C87.8231 46.2573 87.5472 46.097 87.2915 45.9346C87.0358 45.7723 86.8125 45.5937 86.6218 45.3989C86.4351 45.2 86.2869 44.9768 86.1774 44.7292C86.0718 44.4816 86.0191 44.1914 86.0191 43.8586C86.0191 43.4487 86.1104 43.0936 86.293 42.7932C86.4797 42.4888 86.7232 42.2392 87.0236 42.0444C87.328 41.8455 87.673 41.6994 88.0585 41.6061C88.4441 41.5087 88.8378 41.46 89.2396 41.46C90.1528 41.46 90.8184 41.5635 91.2365 41.7704V43.2011C90.7413 42.844 90.1041 42.6654 89.3249 42.6654C89.1097 42.6654 88.8946 42.6857 88.6795 42.7263C88.4685 42.7668 88.2777 42.8338 88.1073 42.9272C87.9408 43.0205 87.8049 43.1402 87.6994 43.2864C87.5938 43.4325 87.5411 43.609 87.5411 43.816C87.5411 44.0108 87.5817 44.1793 87.6628 44.3213C87.744 44.4634 87.8617 44.5932 88.0159 44.7109C88.1742 44.8286 88.365 44.9443 88.5882 45.058C88.8155 45.1675 89.0773 45.2873 89.3736 45.4172C89.678 45.5754 89.9641 45.7418 90.232 45.9164C90.5039 46.0909 90.7413 46.2837 90.9443 46.4947C91.1512 46.7058 91.3136 46.9412 91.4313 47.2009C91.5531 47.4566 91.6139 47.7488 91.6139 48.0776C91.6139 48.52 91.5246 48.8934 91.3461 49.1978C91.1675 49.5022 90.926 49.7498 90.6216 49.9405C90.3212 50.1313 89.9742 50.2693 89.5805 50.3545C89.1869 50.4397 88.7708 50.4824 88.3325 50.4824C88.1864 50.4824 88.0058 50.4702 87.7907 50.4458C87.5796 50.4255 87.3625 50.3931 87.1393 50.3484C86.916 50.3078 86.705 50.2571 86.5061 50.1962C86.3072 50.1353 86.1469 50.0663 86.0252 49.9892Z" fill="white"></path><path d="M81.8366 45.4477C81.6662 45.3138 81.4206 45.2468 81.1 45.2468C80.6819 45.2468 80.3329 45.4355 80.0528 45.813C79.7728 46.1904 79.6328 46.7039 79.6328 47.3532V50.3364H78.2204V44.1023H79.6328V45.3868H79.6571C79.7951 44.9485 80.0062 44.6076 80.2903 44.364C80.5784 44.1165 80.8991 43.9927 81.2522 43.9927C81.5079 43.9927 81.7027 44.0312 81.8366 44.1083V45.4477Z" fill="white"></path><path d="M73.5326 50.4824C72.5707 50.4824 71.8016 50.1922 71.2253 49.6118C70.653 49.0273 70.3669 48.2542 70.3669 47.2923C70.3669 46.2451 70.6652 45.4273 71.2618 44.8388C71.8625 44.2503 72.6701 43.9561 73.6848 43.9561C74.6589 43.9561 75.4178 44.2422 75.9617 44.8145C76.5056 45.3867 76.7775 46.1802 76.7775 47.1949C76.7775 48.1892 76.4833 48.9868 75.8947 49.5874C75.3103 50.1841 74.5229 50.4824 73.5326 50.4824ZM73.5996 45.0823C73.0476 45.0823 72.6113 45.2751 72.2907 45.6607C71.97 46.0463 71.8097 46.5779 71.8097 47.2557C71.8097 47.9092 71.9721 48.4246 72.2967 48.8021C72.6214 49.1755 73.0557 49.3622 73.5996 49.3622C74.1556 49.3622 74.5818 49.1775 74.8781 48.8082C75.1784 48.4388 75.3286 47.9132 75.3286 47.2314C75.3286 46.5455 75.1784 46.0158 74.8781 45.6424C74.5818 45.269 74.1556 45.0823 73.5996 45.0823Z" fill="white"></path><path d="M69.9955 42.2574C69.8048 42.1479 69.5876 42.0931 69.3441 42.0931C68.6582 42.0931 68.3152 42.4807 68.3152 43.2559V44.1021H69.7642V45.2101H68.3213V50.3362H66.9089V45.2101H65.8435V44.1021H66.9089V43.0915C66.9089 42.434 67.124 41.9165 67.5542 41.5391C67.9844 41.1576 68.5222 40.9668 69.1675 40.9668C69.5166 40.9668 69.7926 41.0054 69.9955 41.0825V42.2574Z" fill="white"></path><path d="M61.8193 50.2691C61.5434 50.4071 61.1801 50.4761 60.7296 50.4761C59.5201 50.4761 58.9154 49.8957 58.9154 48.7349V45.21H57.8743V44.102H58.9154V42.6591L60.3278 42.2573V44.102H61.8193V45.21H60.3278V48.327C60.3278 48.6964 60.3948 48.9602 60.5287 49.1185C60.6626 49.2768 60.8859 49.3559 61.1984 49.3559C61.4378 49.3559 61.6448 49.2869 61.8193 49.1489V50.2691Z" fill="white"></path><path d="M57.5273 42.2574C57.3366 42.1479 57.1194 42.0931 56.8759 42.0931C56.19 42.0931 55.847 42.4807 55.847 43.2559V44.1021H57.296V45.2101H55.8531V50.3362H54.4407V45.2101H53.3753V44.1021H54.4407V43.0915C54.4407 42.434 54.6558 41.9165 55.086 41.5391C55.5162 41.1576 56.054 40.9668 56.6993 40.9668C57.0484 40.9668 57.3244 41.0054 57.5273 41.0825V42.2574Z" fill="white"></path><path d="M49.5216 50.4824C48.5597 50.4824 47.7906 50.1922 47.2142 49.6118C46.642 49.0273 46.3558 48.2542 46.3558 47.2923C46.3558 46.2451 46.6541 45.4273 47.2508 44.8388C47.8515 44.2503 48.6591 43.9561 49.6738 43.9561C50.6479 43.9561 51.4068 44.2422 51.9507 44.8145C52.4946 45.3867 52.7665 46.1802 52.7665 47.1949C52.7665 48.1892 52.4722 48.9868 51.8837 49.5874C51.2993 50.1841 50.5119 50.4824 49.5216 50.4824ZM49.5886 45.0823C49.0366 45.0823 48.6003 45.2751 48.2796 45.6607C47.959 46.0463 47.7987 46.5779 47.7987 47.2557C47.7987 47.9092 47.961 48.4246 48.2857 48.8021C48.6104 49.1755 49.0447 49.3622 49.5886 49.3622C50.1446 49.3622 50.5707 49.1775 50.867 48.8082C51.1674 48.4388 51.3175 47.9132 51.3175 47.2314C51.3175 46.5455 51.1674 46.0158 50.867 45.6424C50.5707 45.269 50.1446 45.0823 49.5886 45.0823Z" fill="white"></path><path d="M40.9862 50.1414V48.8325C41.5139 49.2343 42.0963 49.4352 42.7335 49.4352C43.5858 49.4352 44.012 49.1836 44.012 48.6803C44.012 48.5383 43.9754 48.4185 43.9024 48.3211C43.8293 48.2197 43.7299 48.1304 43.6041 48.0533C43.4823 47.9762 43.3362 47.9072 43.1657 47.8463C42.9993 47.7854 42.8126 47.7164 42.6056 47.6393C42.3499 47.5378 42.1186 47.4303 41.9116 47.3166C41.7087 47.203 41.5382 47.0751 41.4002 46.9331C41.2663 46.787 41.1648 46.6226 41.0958 46.44C41.0268 46.2573 40.9923 46.0442 40.9923 45.8007C40.9923 45.5004 41.0633 45.2366 41.2054 45.0093C41.3475 44.7779 41.5382 44.5851 41.7777 44.4309C42.0171 44.2726 42.2891 44.1549 42.5935 44.0778C42.8979 43.9966 43.2124 43.9561 43.5371 43.9561C44.1134 43.9561 44.6289 44.0433 45.0835 44.2178V45.4537C44.6451 45.1534 44.1418 45.0032 43.5736 45.0032C43.3951 45.0032 43.2327 45.0215 43.0866 45.058C42.9445 45.0945 42.8228 45.1452 42.7213 45.2102C42.6198 45.2751 42.5407 45.3543 42.4839 45.4476C42.4271 45.5369 42.3986 45.6363 42.3986 45.7459C42.3986 45.8799 42.4271 45.9935 42.4839 46.0868C42.5407 46.1802 42.6239 46.2634 42.7335 46.3365C42.8471 46.4055 42.9811 46.4704 43.1353 46.5313C43.2936 46.5881 43.4742 46.651 43.6771 46.72C43.945 46.8296 44.1845 46.9412 44.3955 47.0548C44.6106 47.1685 44.7933 47.2984 44.9434 47.4445C45.0936 47.5865 45.2093 47.7529 45.2904 47.9437C45.3716 48.1304 45.4122 48.3536 45.4122 48.6134C45.4122 48.9299 45.3391 49.2059 45.193 49.4413C45.0469 49.6767 44.8521 49.8715 44.6086 50.0258C44.3651 50.18 44.083 50.2936 43.7624 50.3667C43.4458 50.4438 43.1109 50.4824 42.7578 50.4824C42.076 50.4824 41.4855 50.3687 40.9862 50.1414Z" fill="white"></path><path d="M36.6881 50.4824C35.7262 50.4824 34.9571 50.1922 34.3808 49.6118C33.8085 49.0273 33.5224 48.2542 33.5224 47.2923C33.5224 46.2451 33.8207 45.4273 34.4173 44.8388C35.018 44.2503 35.8257 43.9561 36.8403 43.9561C37.8144 43.9561 38.5734 44.2422 39.1172 44.8145C39.6611 45.3867 39.933 46.1802 39.933 47.1949C39.933 48.1892 39.6388 48.9868 39.0503 49.5874C38.4658 50.1841 37.6784 50.4824 36.6881 50.4824ZM36.7551 45.0823C36.2031 45.0823 35.7668 45.2751 35.4462 45.6607C35.1255 46.0463 34.9652 46.5779 34.9652 47.2557C34.9652 47.9092 35.1276 48.4246 35.4523 48.8021C35.777 49.1755 36.2112 49.3622 36.7551 49.3622C37.3111 49.3622 37.7373 49.1775 38.0336 48.8082C38.3339 48.4388 38.4841 47.9132 38.4841 47.2314C38.4841 46.5455 38.3339 46.0158 38.0336 45.6424C37.7373 45.269 37.3111 45.0823 36.7551 45.0823Z" fill="white"></path><path d="M33.0353 45.4477C32.8649 45.3138 32.6193 45.2468 32.2987 45.2468C31.8806 45.2468 31.5316 45.4355 31.2516 45.813C30.9715 46.1904 30.8315 46.7039 30.8315 47.3532V50.3364H29.4191V44.1023H30.8315V45.3868H30.8558C30.9938 44.9485 31.2049 44.6076 31.489 44.364C31.7771 44.1165 32.0978 43.9927 32.4509 43.9927C32.7066 43.9927 32.9014 44.0312 33.0353 44.1083V45.4477Z" fill="white"></path><path d="M28.0127 50.0501C27.5135 50.3383 26.923 50.4824 26.2411 50.4824C25.3158 50.4824 24.569 50.1942 24.0008 49.6179C23.4325 49.0375 23.1484 48.2866 23.1484 47.3653C23.1484 46.3385 23.4528 45.5146 24.0616 44.8936C24.6745 44.2686 25.4923 43.9561 26.5151 43.9561C27.0833 43.9561 27.5845 44.0555 28.0188 44.2544V45.5694C27.5845 45.2447 27.1219 45.0823 26.6308 45.0823C26.0341 45.0823 25.5451 45.2853 25.1636 45.6911C24.782 46.0929 24.5913 46.6206 24.5913 47.274C24.5913 47.9193 24.7699 48.4287 25.127 48.8021C25.4883 49.1755 25.9712 49.3622 26.576 49.3622C27.0833 49.3622 27.5622 49.1816 28.0127 48.8204V50.0501Z" fill="white"></path><path d="M20.9994 42.7933C20.768 42.7933 20.5692 42.7182 20.4028 42.568C20.2404 42.4178 20.1592 42.2271 20.1592 41.9957C20.1592 41.7644 20.2404 41.5716 20.4028 41.4174C20.5692 41.2631 20.768 41.186 20.9994 41.186C21.2388 41.186 21.4418 41.2631 21.6082 41.4174C21.7746 41.5716 21.8578 41.7644 21.8578 41.9957C21.8578 42.2149 21.7746 42.4036 21.6082 42.5619C21.4418 42.7161 21.2388 42.7933 20.9994 42.7933ZM21.6995 50.3363H20.2871V44.1022H21.6995V50.3363Z" fill="white"></path><path d="M18.2902 50.3361H16.8535V44.6865C16.8535 44.2238 16.8819 43.6576 16.9387 42.9879H16.9143C16.8251 43.3694 16.7459 43.6434 16.6769 43.8098L14.0713 50.3361H13.0728L10.4611 43.8585C10.388 43.6678 10.3109 43.3776 10.2297 42.9879H10.2054C10.2379 43.337 10.2541 43.9072 10.2541 44.6987V50.3361H8.91473V41.606H10.9542L13.2494 47.42C13.4239 47.8664 13.5375 48.1992 13.5903 48.4184H13.6207C13.7709 47.9598 13.8927 47.6189 13.986 47.3956L16.3238 41.606H18.2902V50.3361Z" fill="white"></path><rect x="0.5" y="0.5" width="139" height="58.8473" rx="5.19975" stroke="white"></rect><g clip-path="url(#clip0_1387_109)"><path d="M26.2393 10.6868V16.0303H25.3134V11.8372H25.3011L23.6467 16.0303H23.0294L21.3381 11.8372H21.3257V16.0303H20.4738V10.6868H21.8072L23.3381 14.645H23.3628L24.9801 10.6868H26.2393ZM27.0048 11.095C27.0048 10.9466 27.0542 10.8229 27.1653 10.7239C27.2764 10.625 27.3998 10.5755 27.548 10.5755C27.7085 10.5755 27.8443 10.625 27.943 10.7239C28.0418 10.8229 28.1035 10.9466 28.1035 11.095C28.1035 11.2434 28.0542 11.3671 27.943 11.4661C27.8319 11.565 27.7085 11.6145 27.548 11.6145C27.3875 11.6145 27.264 11.565 27.1653 11.4661C27.0665 11.3548 27.0048 11.2311 27.0048 11.095ZM28.0048 12.1959V16.0303H27.1035V12.1959H28.0048ZM30.7332 15.3748C30.869 15.3748 31.0172 15.35 31.1776 15.2758C31.3381 15.214 31.4863 15.1274 31.6221 15.0284V15.8695C31.4739 15.9561 31.3135 16.018 31.1283 16.0551C30.9431 16.0922 30.7455 16.1169 30.5233 16.1169C29.9554 16.1169 29.4986 15.9438 29.1529 15.5851C28.7949 15.2263 28.6221 14.7687 28.6221 14.2244C28.6221 13.606 28.8073 13.0988 29.1653 12.703C29.5233 12.3072 30.0295 12.1093 30.6962 12.1093C30.869 12.1093 31.0418 12.134 31.2023 12.1711C31.3752 12.2082 31.511 12.2701 31.6097 12.3196V13.1854C31.4739 13.0865 31.3258 12.9999 31.19 12.9504C31.0418 12.9009 30.8937 12.8638 30.7455 12.8638C30.3875 12.8638 30.1036 12.9751 29.8813 13.2102C29.6591 13.4452 29.5603 13.7544 29.5603 14.1502C29.5603 14.5337 29.6715 14.8429 29.8813 15.0532C30.0912 15.2634 30.3752 15.3748 30.7332 15.3748ZM34.1777 12.134C34.2517 12.134 34.3135 12.134 34.3752 12.1464C34.4369 12.1588 34.4863 12.1711 34.5234 12.1835V13.0988C34.474 13.0617 34.4122 13.0246 34.3135 12.9999C34.2147 12.9751 34.1159 12.9504 33.9801 12.9504C33.7579 12.9504 33.5727 13.0494 33.4246 13.2349C33.2764 13.4204 33.19 13.7049 33.19 14.1007V16.0303H32.2888V12.1959H33.19V12.802H33.2024C33.2888 12.5917 33.4122 12.4309 33.5727 12.3072C33.7456 12.1959 33.9431 12.134 34.1777 12.134ZM34.5727 14.175C34.5727 13.5441 34.7579 13.037 35.1036 12.6659C35.4616 12.2948 35.9555 12.1093 36.5851 12.1093C37.1777 12.1093 37.6468 12.2825 37.9802 12.6412C38.3135 12.9999 38.4864 13.4823 38.4864 14.0884C38.4864 14.7068 38.3012 15.2016 37.9555 15.5727C37.5975 15.9438 37.116 16.1293 36.4987 16.1293C35.9061 16.1293 35.4369 15.9561 35.0913 15.6098C34.7456 15.2511 34.5727 14.7687 34.5727 14.175ZM35.511 14.1378C35.511 14.5337 35.5974 14.8429 35.7826 15.0532C35.9678 15.2634 36.2271 15.3748 36.5604 15.3748C36.8814 15.3748 37.1407 15.2758 37.3135 15.0532C37.4863 14.8429 37.5728 14.5337 37.5728 14.1131C37.5728 13.7049 37.4863 13.3957 37.3135 13.173C37.1407 12.9628 36.8814 12.8514 36.5728 12.8514C36.2394 12.8514 35.9925 12.9628 35.8073 13.1854C35.5974 13.4204 35.511 13.7297 35.511 14.1378ZM39.832 13.2102C39.832 13.3338 39.8691 13.4452 39.9555 13.5194C40.0419 13.5936 40.2148 13.6802 40.4987 13.7915C40.8567 13.9399 41.116 14.1007 41.2518 14.2739C41.4 14.4594 41.474 14.6697 41.474 14.9295C41.474 15.2882 41.3382 15.5727 41.0543 15.7953C40.7827 16.018 40.4 16.1169 39.9308 16.1169C39.7703 16.1169 39.5975 16.0922 39.3999 16.0551C39.2024 16.018 39.0419 15.9685 38.9061 15.9067V15.0161C39.0666 15.1274 39.2518 15.2263 39.437 15.2882C39.6222 15.35 39.795 15.3871 39.9555 15.3871C40.153 15.3871 40.3135 15.3624 40.4 15.3006C40.4987 15.2387 40.5481 15.1521 40.5481 15.0161C40.5481 14.8924 40.4987 14.7934 40.4 14.6945C40.3012 14.6079 40.1037 14.5089 39.832 14.3976C39.4987 14.2615 39.2641 14.1007 39.1283 13.9276C38.9925 13.7544 38.9185 13.5318 38.9185 13.2596C38.9185 12.9133 39.0543 12.6288 39.3259 12.4062C39.5975 12.1835 39.9555 12.0722 40.3876 12.0722C40.5234 12.0722 40.6716 12.0846 40.8321 12.1217C40.9925 12.1588 41.1407 12.1959 41.2518 12.233V13.1112C41.1284 13.037 40.9925 12.9628 40.8321 12.9009C40.6716 12.8391 40.5111 12.8143 40.3629 12.8143C40.1901 12.8143 40.0543 12.8514 39.9678 12.9133C39.8814 12.9999 39.832 13.0865 39.832 13.2102ZM41.8568 14.175C41.8568 13.5441 42.0419 13.037 42.3876 12.6659C42.7457 12.2948 43.2395 12.1093 43.8691 12.1093C44.4617 12.1093 44.9309 12.2825 45.2642 12.6412C45.5975 12.9999 45.7704 13.4823 45.7704 14.0884C45.7704 14.7068 45.5852 15.2016 45.2395 15.5727C44.8815 15.9438 44.4 16.1293 43.7827 16.1293C43.1901 16.1293 42.721 15.9561 42.3753 15.6098C42.0419 15.2511 41.8568 14.7687 41.8568 14.175ZM42.795 14.1378C42.795 14.5337 42.8815 14.8429 43.0666 15.0532C43.2518 15.2634 43.5111 15.3748 43.8444 15.3748C44.1654 15.3748 44.4247 15.2758 44.5975 15.0532C44.7704 14.8429 44.8568 14.5337 44.8568 14.1131C44.8568 13.7049 44.7704 13.3957 44.5975 13.173C44.4247 12.9628 44.1654 12.8514 43.8568 12.8514C43.5234 12.8514 43.2765 12.9628 43.0913 13.1854C42.8938 13.4204 42.795 13.7297 42.795 14.1378ZM48.7704 12.938H47.4247V16.0303H46.5111V12.938H45.8691V12.1959H46.5111V11.664C46.5111 11.2682 46.6469 10.9342 46.9062 10.6745C47.1654 10.4147 47.4988 10.291 47.9062 10.291C48.0173 10.291 48.1161 10.3034 48.2025 10.3034C48.2889 10.3034 48.363 10.3281 48.4247 10.3529V11.1321C48.4 11.1198 48.3383 11.095 48.2642 11.0703C48.1901 11.0455 48.1037 11.0332 48.005 11.0332C47.8198 11.0332 47.6716 11.095 47.5729 11.2063C47.4741 11.3177 47.4247 11.5032 47.4247 11.7258V12.1835H48.7704V11.3177L49.6716 11.0455V12.1835H50.5852V12.9257H49.6716V14.7192C49.6716 14.9542 49.721 15.115 49.7951 15.214C49.8815 15.3129 50.0173 15.3624 50.2025 15.3624C50.2519 15.3624 50.3136 15.35 50.3877 15.3253C50.4618 15.3006 50.5235 15.2758 50.5729 15.2387V15.9809C50.5112 16.018 50.4247 16.0427 50.2889 16.0675C50.1531 16.0922 50.0297 16.1046 49.8939 16.1046C49.5111 16.1046 49.2272 16.0056 49.042 15.8077C48.8568 15.6098 48.7581 15.3006 48.7581 14.8924L48.7704 12.938Z" fill="white"></path><path d="M13.1281 8.90625H8.90585V13.1365H13.1281V8.90625Z" fill="#F25022"></path><path d="M17.7948 8.90625H13.5726V13.1365H17.7948V8.90625Z" fill="#7FBA00"></path><path d="M13.1281 13.582H8.90585V17.8123H13.1281V13.582Z" fill="#00A4EF"></path><path d="M17.7948 13.582H13.5726V17.8123H17.7948V13.582Z" fill="#FFB900"></path></g><defs><clipPath id="clip0_1387_109"><rect width="41.6794" height="8.90585" fill="white" transform="translate(8.90585 8.90625)"></rect></clipPath></defs></svg> 