<?xml version="1.0" encoding="UTF-8"?> <svg xmlns="http://www.w3.org/2000/svg" width="108" height="39" viewBox="0 0 108 39" fill="none"><g clip-path="url(#clip0_1387_73)"><path d="M35.8306 10.7868V17.2158H37.6808H39.5309V12.2219V7.2279H41.358C43.37 7.2279 43.7979 7.34271 44.4108 7.98561C45.0814 8.69739 45.1277 8.9844 45.1739 13.2781L45.2086 17.2158H47.001H48.7818V13.1059C48.7818 8.62851 48.7008 7.93969 48.1226 6.79165C47.7526 6.06839 47.0588 5.40253 46.2378 4.98923C45.1277 4.4267 44.457 4.35781 39.9704 4.35781H35.8306V10.7868Z" fill="white"></path><path d="M49.3599 4.38077C49.3599 4.40374 50.2966 7.28531 51.4298 10.7868L53.4997 17.1584L56.1477 17.1929L58.7958 17.2158L60.8541 10.9361C61.9873 7.46899 62.9471 4.57594 62.9702 4.49558C63.0164 4.39225 62.6002 4.35781 61.1316 4.35781H59.2467L57.755 9.35177C56.934 12.0956 56.2402 14.3228 56.2055 14.2998C56.1824 14.2654 55.5233 12.0382 54.7485 9.32881L53.3493 4.41522L51.3489 4.38077C50.2619 4.36929 49.3599 4.36929 49.3599 4.38077Z" fill="white"></path><path d="M64.5081 10.7868V17.2158H66.3583H68.2085V10.7868V4.35781H66.3583H64.5081V10.7868Z" fill="white"></path><path d="M70.4055 10.7863V17.2383L74.4875 17.1809C78.7891 17.1235 79.2979 17.0661 80.327 16.538C82.1194 15.6196 82.9288 13.8401 82.9173 10.8437C82.9173 9.23647 82.686 8.06547 82.2003 7.10112C81.8303 6.38934 80.8705 5.43647 80.1767 5.09206C78.8932 4.47212 78.6156 4.43768 74.3718 4.39176L70.4055 4.33435V10.7863ZM77.6443 7.57182C78.8353 8.15731 79.3441 9.11018 79.3441 10.7863C79.3441 12.4625 78.8353 13.4153 77.6443 14.0008C76.9389 14.3452 76.7655 14.3797 75.4935 14.4371L74.1059 14.4945V10.7863V7.07816L75.4935 7.13556C76.7655 7.19296 76.9389 7.2274 77.6443 7.57182Z" fill="white"></path><path d="M84.6287 10.7868V17.2158H86.4788H88.329V10.7868V4.35781H86.4788H84.6287V10.7868Z" fill="white"></path><path d="M92.3762 10.6378C91.0117 14.0819 89.8785 16.975 89.8554 17.0668C89.8207 17.1931 90.1445 17.216 91.6362 17.1931L93.4516 17.1586L93.6598 16.5272C93.787 16.1828 93.9604 15.6777 94.0645 15.4021L94.2495 14.92L97.2676 14.9429L100.274 14.9774L100.644 16.068L101.014 17.1586L102.945 17.1931C104.784 17.216 104.876 17.216 104.842 17.0094C104.819 16.8946 103.685 14.0015 102.321 10.5804L99.8347 4.35804H97.3485L94.8624 4.36952L92.3762 10.6378ZM98.4586 9.91453C98.9906 11.3725 99.43 12.5895 99.43 12.6469C99.43 12.6928 98.4355 12.7387 97.2213 12.7387C95.4984 12.7387 95.0243 12.7043 95.059 12.5895C96.9207 7.60698 97.2792 6.74595 97.3832 7.01C97.441 7.15924 97.9151 8.468 98.4586 9.91453Z" fill="white"></path><path d="M106.31 15.4243C105.616 15.7228 105.466 16.6757 106.01 17.2267C106.622 17.8352 107.721 17.6171 107.975 16.8364C108.299 15.8491 107.282 14.9881 106.31 15.4243ZM107.397 15.8147C107.559 15.9409 107.663 16.1476 107.663 16.3887C107.675 16.8479 107.501 17.066 107.305 16.8249C107.189 16.6986 107.189 16.6068 107.305 16.4346C107.536 16.0672 107.363 15.8376 106.831 15.8376H106.368V16.469C106.368 16.9512 106.403 17.1005 106.542 17.1005C106.657 17.1005 106.715 16.9857 106.715 16.779L106.727 16.469L106.9 16.779C106.993 16.9627 107.131 17.1005 107.212 17.1005C107.432 17.1005 107.027 17.3301 106.796 17.3301C106.68 17.3301 106.461 17.2038 106.31 17.0431C105.547 16.2968 106.576 15.1373 107.397 15.8147ZM107.062 16.182C107.062 16.2394 106.981 16.2968 106.888 16.2968C106.796 16.2968 106.715 16.2394 106.715 16.182C106.715 16.1131 106.796 16.0672 106.888 16.0672C106.981 16.0672 107.062 16.1131 107.062 16.182Z" fill="white"></path><path d="M13.0274 30.0051C11.605 30.5331 11.2003 31.3368 11.2003 33.6902C11.2003 35.8256 11.501 36.5718 12.5995 37.1918C13.3511 37.6165 14.5191 37.605 15.2707 37.1573C15.8257 36.8359 16.3114 36.1815 16.4617 35.5501C16.5427 35.2516 16.5195 35.2401 16.1379 35.2401C15.7795 35.2401 15.7101 35.2975 15.4673 35.7682C14.8081 37.0425 12.9695 37.077 12.3335 35.8141C12.0329 35.2286 12.0329 32.1519 12.3335 31.5664C12.9695 30.3035 14.8081 30.338 15.4673 31.6123C15.7101 32.083 15.7795 32.1404 16.1379 32.1404C16.5195 32.1404 16.5427 32.1289 16.4617 31.8189C16.3114 31.2105 15.8257 30.5446 15.3054 30.2347C14.6694 29.8673 13.6634 29.764 13.0274 30.0051Z" fill="white"></path><path d="M41.4158 30.0512C40.8261 30.2808 40.3057 30.74 40.0282 31.2452C39.8663 31.5551 39.82 31.9684 39.7853 33.415C39.7391 35.5388 39.8316 35.9866 40.4676 36.6754C41.8668 38.1793 44.5379 37.5364 44.9542 35.5847C45.1161 34.827 45.1161 32.5539 44.9542 31.7733C44.8502 31.2796 44.723 31.0615 44.2835 30.6367C43.4741 29.8675 42.4218 29.6494 41.4158 30.0512ZM43.3585 30.9122C44.0523 31.3715 44.1563 31.7388 44.1563 33.6905C44.1563 35.1026 44.1217 35.4814 43.9482 35.8144C43.3469 37.0083 41.7396 37.0542 40.8723 35.8947C40.6526 35.5962 40.6295 35.4125 40.6295 33.6905C40.6295 31.9684 40.6526 31.7847 40.8723 31.4863C41.5083 30.6367 42.5721 30.3841 43.3585 30.9122Z" fill="white"></path><path d="M72.3251 29.982C72.0591 30.0624 71.6544 30.315 71.3306 30.6364C70.8796 31.0612 70.7524 31.2793 70.6484 31.773C70.4865 32.5536 70.4865 34.8267 70.6484 35.5844C71.1225 37.7772 74.3718 38.2134 75.505 36.2388C75.771 35.7796 75.7826 35.6648 75.7826 33.6902C75.7826 31.727 75.771 31.6008 75.505 31.1415C74.8922 30.0854 73.6549 29.6376 72.3251 29.982ZM74.1059 30.9005C74.9269 31.463 74.9731 31.6008 74.9731 33.6902C74.9731 35.4122 74.95 35.5959 74.7303 35.8944C73.863 37.0539 72.2557 37.008 71.6544 35.8141C71.4809 35.4811 71.4463 35.1023 71.4463 33.6902C71.4463 31.7385 71.5503 31.3712 72.2441 30.9119C72.7761 30.556 73.5855 30.556 74.1059 30.9005Z" fill="white"></path><path d="M79.3094 29.9475C78.4191 30.2345 77.8293 30.7626 77.5518 31.5318C77.4593 31.8188 77.4015 32.5535 77.4015 33.6901C77.4015 34.8266 77.4593 35.5614 77.5518 35.8484C78.13 37.4671 80.2345 38.0296 81.7031 36.9734C82.3853 36.4913 82.6744 35.791 82.7554 34.5396L82.8132 33.5179H81.4024H80.0033V33.8623V34.2067H80.9283H81.8534V34.8037C81.8534 35.9861 81.1596 36.7324 80.0726 36.7324C79.402 36.7324 78.8585 36.4568 78.5347 35.9632C78.3497 35.6991 78.3265 35.3892 78.3265 33.6901C78.3265 31.8302 78.3381 31.7154 78.5925 31.3595C78.951 30.8659 79.4135 30.6478 80.0958 30.6478C80.8127 30.6478 81.3562 30.9922 81.68 31.658C81.8881 32.0828 81.9575 32.1402 82.3044 32.1402C82.6744 32.1402 82.686 32.1287 82.6166 31.7614C82.5125 31.2103 81.9691 30.51 81.414 30.2115C80.8821 29.913 79.8067 29.7867 79.3094 29.9475Z" fill="white"></path><path d="M1.02443 33.6898V37.4209H1.48697H1.94951V33.6898V29.9587H1.48697H1.02443V33.6898Z" fill="white"></path><path d="M3.79967 33.6898V37.4209H4.26222H4.72476V34.4704V31.5085L6.69055 34.4704C8.63323 37.4094 8.64479 37.4209 9.06108 37.4209H9.4658V33.6898V29.9587H9.06108H8.65635V32.9091V35.871L6.66743 32.9091L4.69007 29.9587H4.23909H3.79967V33.6898Z" fill="white"></path><path d="M18.1384 33.6898V37.4209H20.509H22.8795V37.0765V36.7321H20.9137H18.9479V35.4118V34.0916H20.6246H22.3013V33.6898V33.288H20.6246H18.9479V31.9677V30.6475H20.9137H22.8795V30.3031V29.9587H20.509H18.1384V33.6898Z" fill="white"></path><path d="M24.3827 33.6898V37.4209H24.8453H25.3078V35.9399V34.4704L26.6261 34.413C28.1409 34.3442 28.6034 34.172 29.17 33.4831C29.7482 32.7714 29.7135 31.4741 29.1007 30.6934C28.615 30.0964 28.0946 29.9587 26.152 29.9587H24.3827V33.6898ZM28.164 30.946C28.3375 31.0723 28.5687 31.4052 28.6612 31.6578C28.8116 32.0825 28.8116 32.1973 28.6612 32.6221C28.3721 33.4143 28.0368 33.5635 26.5682 33.6094L25.3078 33.6553V32.1399V30.6245L26.5682 30.6704C27.6321 30.7049 27.898 30.7508 28.164 30.946Z" fill="white"></path><path d="M30.5114 30.3031V30.6475H31.6099H32.7085V34.0342V37.4209H33.1132H33.5179V34.0342V30.6475H34.6164H35.715V30.3031V29.9587H33.1132H30.5114V30.3031Z" fill="white"></path><path d="M37.1026 33.6898V37.4209H37.5651H38.0277V33.6898V29.9587H37.5651H37.1026V33.6898Z" fill="white"></path><path d="M46.816 33.6898V37.4209H47.2207H47.6254L47.6485 34.4704L47.6832 31.52L49.6375 34.4704L51.6033 37.4209H52.0427H52.4821V33.6898V29.9587H52.0196H51.557L51.5339 32.8402L51.4992 35.7333L49.5565 32.8402C47.6485 29.9931 47.6254 29.9587 47.2207 29.9587H46.816V33.6898Z" fill="white"></path><path d="M57.2231 33.6898V37.4209H57.6279H58.0326V35.9399V34.4704L59.3393 34.413C61.3282 34.3212 61.9873 33.9423 62.3342 32.668C62.6002 31.6807 62.1376 30.636 61.2357 30.1997C60.7963 29.9931 60.5187 29.9587 58.9808 29.9587H57.2231V33.6898ZM60.6922 30.8312C61.2472 31.0493 61.5016 31.4626 61.5016 32.1285C61.5016 33.265 61.0738 33.552 59.3393 33.6094L58.0326 33.6553V32.1514V30.6475H59.1311C59.8712 30.6475 60.38 30.7049 60.6922 30.8312Z" fill="white"></path><path d="M63.93 33.6898V37.4209H64.3347H64.7394V35.7562V34.0801L65.6298 34.1146L66.5086 34.149L67.3759 35.7792L68.2316 37.4209H68.6826C68.9254 37.4209 69.1335 37.3865 69.1335 37.3405C69.1335 37.3061 68.7751 36.5828 68.3241 35.7448C67.8847 34.8952 67.5147 34.172 67.5147 34.1146C67.5147 34.0686 67.6997 33.9538 67.9194 33.8735C68.1391 33.7931 68.4629 33.5405 68.6363 33.3224C68.9254 32.955 68.9601 32.8058 68.9601 32.0366C68.9601 31.3019 68.9138 31.1067 68.6826 30.7738C68.1969 30.0964 67.6997 29.9587 65.6992 29.9587H63.93V33.6898ZM67.6419 30.9115C68.4744 31.4626 68.3588 32.8632 67.4568 33.242C67.2024 33.3454 66.6358 33.4028 65.8958 33.4028H64.7394V32.0136V30.6245L66.0461 30.6704C67.029 30.7049 67.4106 30.7623 67.6419 30.9115Z" fill="white"></path><path d="M84.3974 33.6898V37.4209H84.8599H85.3225V35.7562V34.0916H86.1897H87.057L87.8896 35.7562L88.7337 37.4209H89.2194C89.4969 37.4209 89.7166 37.3979 89.7166 37.375C89.7166 37.352 89.335 36.5943 88.8609 35.7103L88.0052 34.0801L88.3637 33.9309C89.9132 33.265 90.0404 30.9919 88.5603 30.2227C88.0977 29.9816 87.9243 29.9587 86.2244 29.9587H84.3974V33.6898ZM87.8318 30.7738C88.595 31.0608 88.9419 31.7496 88.6759 32.5303C88.4562 33.1846 88.1093 33.3339 86.6292 33.3798L85.3225 33.4257V32.0366V30.6475H86.4095C87.0108 30.6475 87.6467 30.7049 87.8318 30.7738Z" fill="white"></path><path d="M93.6135 30.039C93.5788 30.0849 92.966 31.7037 92.2606 33.6324C91.5437 35.5611 90.9308 37.2028 90.9077 37.2717C90.8614 37.375 90.9886 37.4209 91.3124 37.4209H91.7865L92.0409 36.6173L92.3069 35.8022L93.972 35.8366L95.6371 35.871L95.9262 36.6402C96.2153 37.4209 96.2153 37.4209 96.6663 37.4209H97.1173L96.8282 36.6402C96.6663 36.2155 96.0534 34.5508 95.4521 32.9436C94.3767 30.039 94.3652 30.0161 94.0183 29.9816C93.8332 29.9587 93.6482 29.9931 93.6135 30.039ZM94.7005 33.1387L95.3481 34.9526L94.6658 34.9871C94.2958 35.01 93.6945 35.01 93.3129 34.9871L92.6306 34.9526L93.2782 33.1387C93.6367 32.1514 93.9604 31.3363 93.9951 31.3363C94.0298 31.3363 94.3536 32.1514 94.7005 33.1387Z" fill="white"></path><path d="M98.3893 33.6783V37.4209H98.8518H99.3143L99.3375 34.7115L99.3722 31.9907L100.355 34.1375L101.338 36.2843L101.731 36.2499C102.113 36.2155 102.124 36.204 103.061 34.149L103.998 32.0825L104.032 34.7575L104.055 37.4209H104.518H104.98V33.6898V29.9587H104.541H104.09L102.957 32.4843C102.332 33.8849 101.789 35.0445 101.754 35.0559C101.72 35.0789 101.153 33.9538 100.517 32.5647L99.3375 30.0161L98.8634 29.9816L98.3893 29.9472V33.6783Z" fill="white"></path><path d="M12.2041 6.74703V4.98703C12.3802 4.97617 12.5563 4.9653 12.7323 4.9653C17.6188 4.81321 20.8215 9.11542 20.8215 9.11542C20.8215 9.11542 17.3657 13.8522 13.6568 13.8522C13.1616 13.8522 12.6773 13.7762 12.2151 13.6241V8.27888C14.119 8.50703 14.5042 9.33271 15.6378 11.2122L18.1801 9.10456C18.1801 9.10456 16.3202 6.70357 13.1946 6.70357C12.8644 6.69271 12.5342 6.71444 12.2041 6.74703ZM12.2041 0.923828V3.55296L12.7323 3.52037C19.5228 3.29222 23.9581 9.01764 23.9581 9.01764C23.9581 9.01764 18.8735 15.1233 13.5798 15.1233C13.1175 15.1233 12.6663 15.0799 12.2151 15.0038V16.6334C12.5893 16.6769 12.9745 16.7095 13.3487 16.7095C18.2792 16.7095 21.845 14.2216 25.3008 11.2883C25.8731 11.7446 28.2173 12.8418 28.7015 13.3199C25.4218 16.0359 17.7729 18.2196 13.4367 18.2196C13.0185 18.2196 12.6223 18.1979 12.2261 18.1544V20.4468H30.9577V0.923828L12.2041 0.923828ZM12.2041 13.6241V15.0147C7.64774 14.2107 6.3821 9.52826 6.3821 9.52826C6.3821 9.52826 8.57222 7.13814 12.2041 6.74703V8.26802H12.1931C10.2891 8.03987 8.79233 9.79986 8.79233 9.79986C8.79233 9.79986 9.63976 12.7658 12.2041 13.6241ZM4.11494 9.33271C4.11494 9.33271 6.81132 5.39987 12.2151 4.98703V3.55296C6.22802 4.03098 1.05537 9.02851 1.05537 9.02851C1.05537 9.02851 3.98287 17.3939 12.2041 18.1544V16.6334C6.17299 15.8947 4.11494 9.33271 4.11494 9.33271Z" fill="#76B900"></path></g><defs><clipPath id="clip0_1387_73"><rect width="108" height="38" fill="white" transform="translate(0 0.923828)"></rect></clipPath></defs></svg> 