<?xml version="1.0" encoding="UTF-8"?> <svg xmlns="http://www.w3.org/2000/svg" width="108" height="52" viewBox="0 0 108 52" fill="none"><g clip-path="url(#clip0_1458_9296)"><path d="M49.0252 21.1292C48.4039 18.3226 47.3116 15.7114 45.7483 13.2971C43.69 10.1173 41.0345 7.55298 37.7801 5.62267C33.9975 3.37914 29.895 2.26373 25.4958 2.26075C22.7443 2.25871 20.0704 2.71426 17.4734 3.63226C14.4619 4.69651 11.7666 6.29681 9.40023 8.43379C6.09119 11.4219 3.76245 15.0495 2.45528 19.3192C1.67804 21.8579 1.33532 24.4569 1.42367 27.1125C1.47467 28.6538 1.66329 30.1771 1.99989 31.6816C2.08808 32.0763 2.19777 32.4666 2.2993 32.8653C2.37886 32.8501 2.42013 32.8454 2.45936 32.8342C4.26319 32.3161 6.06608 31.7954 7.87101 31.2807C8.051 31.2292 8.03374 31.1338 7.99655 30.9941C7.35191 28.5926 7.19624 26.1609 7.53943 23.6966C7.8889 21.1874 8.72624 18.8536 10.0579 16.7003C11.3472 14.6155 12.9924 12.8604 14.9927 11.4392C17.8593 9.40279 21.0551 8.29805 24.5587 8.10535C26.7589 7.98452 28.9147 8.26745 31.0189 8.94018C33.7393 9.80969 36.1189 11.2454 38.163 13.2305C39.9659 14.9811 41.3408 17.0283 42.2955 19.3555C43.1666 21.4791 43.6057 23.6914 43.6408 25.9828C43.6694 27.7098 43.4455 29.4318 42.9764 31.0941C42.9239 31.2807 42.9744 31.348 43.1498 31.4006C44.9079 31.9232 46.6647 32.4504 48.4201 32.9821C48.6007 33.0367 48.669 32.9933 48.7204 32.8077C49.0911 31.473 49.3447 30.1085 49.4784 28.7297C49.7262 26.1721 49.5804 23.6368 49.025 21.1292H49.0252ZM47.1085 26.4067C47.1162 26.45 47.0362 26.5465 46.9902 26.551C46.9397 26.5556 46.8499 26.4923 46.8327 26.4404C46.6908 26.0161 46.6557 25.9855 46.21 25.9828C46.0319 25.9819 45.8519 25.9966 45.6765 25.9737C45.6132 25.9655 45.5613 25.8681 45.5042 25.8115C45.5638 25.7686 45.6225 25.6906 45.6837 25.6886C46.0477 25.6754 46.4129 25.6748 46.7776 25.6804C46.8703 25.682 46.9628 25.7212 47.0555 25.7432C47.031 25.8334 47.007 25.9236 46.9836 26.0089C47.0265 26.1364 47.0845 26.2684 47.1085 26.4067ZM47.0362 24.3474C47.0403 24.8359 46.6939 25.1838 46.2032 25.1831C45.7127 25.1827 45.3843 24.8465 45.3811 24.3412C45.3781 23.848 45.7209 23.4997 46.208 23.5008C46.6899 23.5022 47.0321 23.8516 47.0362 24.3474ZM9.61537 10.6043C9.68426 10.5987 9.76131 10.693 9.89532 10.7854C9.75974 10.8782 9.675 10.9797 9.61647 10.9664C9.53785 10.948 9.47979 10.8415 9.41247 10.7726C9.47916 10.7125 9.5435 10.6105 9.61537 10.6043ZM3.18168 25.7774C3.42491 25.7774 3.66877 25.7763 3.91247 25.7779C4.37053 25.7808 4.82843 25.786 5.28649 25.7885C5.40324 25.789 5.53443 25.7937 5.50226 25.9513C5.49002 26.0114 5.37107 26.0916 5.3003 26.092C4.66429 26.0986 4.02828 26.0839 3.39227 26.0875C3.16034 26.0889 3.11091 25.9905 3.18168 25.7774ZM5.58386 28.7531C5.28288 28.6477 4.98049 28.5446 4.68061 28.436C4.24221 28.2781 3.80511 28.1165 3.36936 27.9514C3.17509 27.8775 3.12205 27.6562 3.28462 27.5699C3.9936 27.1941 4.71074 26.8341 5.43651 26.4622C5.55891 26.7152 5.47888 26.8738 5.25385 26.933C4.96009 27.01 4.91568 27.1941 4.96919 27.4491C4.98143 27.5067 4.99273 27.5679 4.98755 27.6256C4.95554 28.0147 5.02176 28.3254 5.49206 28.3997C5.56236 28.411 5.60724 28.5808 5.66436 28.6777C5.63737 28.7028 5.61085 28.7282 5.58386 28.7531ZM4.80599 25.1618C3.86414 25.3994 3.06399 24.6942 3.21683 23.7551C3.26077 23.4854 3.39133 23.2641 3.65308 23.0928C3.74566 23.2125 3.8814 23.2886 3.72275 23.4436C3.47136 23.6894 3.4133 23.9929 3.5561 24.308C3.70659 24.64 3.98701 24.8302 4.3506 24.8665C4.74338 24.9052 5.07229 24.7762 5.28492 24.4269C5.46758 24.127 5.42615 23.8093 5.16817 23.4058C5.30846 23.1595 5.37829 23.1544 5.5247 23.389C5.85722 23.9215 5.69339 24.9379 4.80599 25.1618ZM5.61038 22.7709C4.9653 22.6307 4.3189 22.4966 3.67128 22.3686C3.52142 22.3389 3.46979 22.2768 3.50965 22.1258C3.5765 21.8722 3.61212 21.6091 3.6989 21.3633C3.8213 21.0149 4.07473 20.8803 4.4118 20.9406C4.7484 21.0007 4.94126 21.2429 4.94534 21.6795C4.92808 21.7702 4.90187 21.9289 4.86719 22.0855C4.83565 22.2283 4.87394 22.3058 5.03102 22.3303C5.2482 22.3638 5.46554 22.4067 5.67613 22.469C5.73937 22.4878 5.82097 22.5828 5.82254 22.6449C5.82615 22.7704 5.73937 22.799 5.61038 22.7709ZM6.45337 19.4584C6.1254 19.4299 5.9724 19.5833 5.93317 19.892C5.92298 19.9678 5.90006 20.0414 5.86538 20.1096C5.69967 20.431 5.7163 20.6942 6.06216 20.893C6.23258 20.9909 6.16887 21.1328 6.05604 21.2955C5.83839 21.1113 5.62607 20.9369 5.42019 20.7559C5.02443 20.4086 4.62961 20.0602 4.24248 19.7037C4.19352 19.6583 4.15727 19.5452 4.17971 19.4906C4.20843 19.4217 4.2996 19.3412 4.37116 19.3335C5.13098 19.2535 5.89237 19.1866 6.65329 19.1177C6.67573 19.1157 6.70021 19.1295 6.73442 19.1392C6.75011 19.3478 6.66851 19.4772 6.45337 19.4584ZM7.69008 17.2149C7.59012 17.444 7.39993 17.6383 7.2281 17.828C7.18934 17.8708 7.0139 17.8656 6.97969 17.8219C6.90123 17.7199 6.91755 17.6056 7.06741 17.5399C7.27549 17.4485 7.42849 17.2817 7.41829 17.0544C7.41217 16.9166 7.32539 16.7513 7.22198 16.658C7.09189 16.5412 6.93638 16.6198 6.81555 16.7366C6.69974 16.8483 6.5844 16.9615 6.4631 17.0666C6.18864 17.3042 5.95561 17.3434 5.69857 17.2026C5.41768 17.0487 5.31568 16.834 5.35334 16.477C5.39257 16.1087 5.64553 15.8129 5.99076 15.7411C6.08915 15.8839 6.09841 15.9736 5.92501 16.1042C5.7888 16.2067 5.69747 16.4102 5.65981 16.5841C5.64051 16.6743 5.7593 16.8345 5.85769 16.8962C5.92956 16.9415 6.09135 16.91 6.17546 16.8549C6.32234 16.7595 6.44019 16.6198 6.57122 16.4995C6.85525 16.2398 7.14556 16.196 7.42755 16.3692C7.71001 16.5433 7.84057 16.8712 7.69008 17.2149ZM8.1144 16.0176C7.77325 16.1108 7.32696 15.9174 7.15356 15.6012C6.96541 15.2581 7.02661 14.8761 7.31362 14.6037C7.5443 14.3849 7.98494 14.3518 8.2266 14.5568C8.27148 14.5944 8.27556 14.7399 8.24041 14.8031C8.08082 15.0898 7.9002 15.3652 7.71472 15.6651C8.12664 15.8038 8.45916 15.562 8.44127 15.1692C8.43531 15.0393 8.4193 14.9072 8.58768 14.924C8.63978 14.9291 8.71071 15.0817 8.71526 15.1694C8.73409 15.5498 8.46073 15.9228 8.1144 16.0176ZM9.08089 14.5456C8.7261 14.3011 8.37863 14.0462 8.03892 13.7811C8.00534 13.7546 8.04096 13.5705 8.04912 13.5705C8.26442 13.5623 8.2266 13.3905 8.26285 13.2629C8.34084 12.9886 8.43625 12.9569 8.63664 13.1468C8.39953 13.5816 8.42558 13.6986 8.82181 13.9999C8.96304 14.1075 9.11463 14.2029 9.24456 14.3222C9.28693 14.3609 9.2772 14.4568 9.29101 14.5268C9.22008 14.5343 9.1253 14.5762 9.08089 14.5456ZM10.1585 13.3073C9.65209 13.1573 9.15229 12.9857 8.63978 12.8187C8.72232 12.5995 8.82432 12.5367 9.00855 12.604C9.31612 12.7167 9.62808 12.8152 9.98304 12.8764C9.82847 12.5924 9.68065 12.3046 9.51745 12.0251C9.42016 11.8585 9.44087 11.7442 9.64848 11.6447C9.88983 12.1037 10.134 12.5546 10.3631 13.0136C10.4303 13.1492 10.2916 13.3466 10.1585 13.3073ZM10.9852 12.3118C10.6512 12.0119 10.3305 11.6973 10.0138 11.3785C9.98618 11.351 9.99591 11.2474 10.0264 11.2112C10.0585 11.1724 10.1676 11.1377 10.1896 11.1588C10.5298 11.4773 10.8618 11.8053 11.1939 12.1323C11.2102 12.148 11.2127 12.1772 11.2458 12.2604C11.1501 12.2812 11.0233 12.346 10.9852 12.3118ZM12.4423 10.972C12.3673 11.3591 11.9104 11.6345 11.5003 11.5534C11.0903 11.4729 10.7695 11.0393 10.8215 10.637C10.8792 10.1938 11.2505 9.8847 11.6926 9.92503C11.7374 10.0973 11.6758 10.1651 11.5187 10.2065C11.2519 10.2769 11.0944 10.4926 11.1097 10.7181C11.1259 10.9593 11.3698 11.2203 11.6135 11.2571C11.8716 11.2964 12.0654 11.1643 12.1847 10.8961C12.2129 10.8333 12.3041 10.7988 12.3667 10.7508C12.3938 10.8245 12.4555 10.9058 12.4423 10.972ZM13.7876 9.87513C13.7071 10.2193 13.3057 10.4972 12.941 10.4809C12.5872 10.4652 12.2521 10.1545 12.176 9.77203C12.1042 9.40954 12.2628 9.08612 12.6019 8.90393C12.8993 8.74434 13.2108 8.81009 13.4801 9.07121C13.6138 9.20083 13.6331 9.28902 13.4617 9.4064C13.1924 9.59094 12.9376 9.79714 12.6724 9.99737C12.9589 10.2734 13.2863 10.2197 13.475 9.89694C13.4959 9.86085 13.498 9.80922 13.526 9.7827C13.5893 9.72307 13.6637 9.67458 13.7332 9.62154C13.7536 9.70628 13.8055 9.79918 13.7876 9.87513ZM15.6997 8.70197C15.0291 8.69993 14.442 8.09719 14.4475 7.41677C14.4538 6.74263 15.0275 6.19638 15.7272 6.19795C16.4111 6.19952 16.9625 6.77527 16.9625 7.48817C16.963 8.13846 16.3744 8.70354 15.6997 8.70197ZM17.9952 6.25758C17.6596 6.52529 17.628 6.60438 17.7703 7.00124C17.833 7.17605 17.9227 7.34239 17.9764 7.51987C17.9932 7.57589 17.9315 7.65608 17.9055 7.72481C17.8397 7.69076 17.7382 7.6724 17.7146 7.61967C17.5423 7.23317 17.3832 6.84055 17.2271 6.44746C17.2103 6.40446 17.2282 6.30356 17.2495 6.29681C17.3286 6.2739 17.4159 6.27955 17.5296 6.27233C17.628 6.19183 17.7382 6.08716 17.8642 6.0087C17.8982 5.98736 18.0145 6.0302 18.034 6.07147C18.0564 6.11886 18.036 6.22541 17.9952 6.25758ZM20.13 7.71257C19.8215 7.95329 19.467 8.00539 19.0953 7.89774C19.0458 7.88362 19.0234 7.77691 18.9882 7.7132C19.0596 7.67852 19.1295 7.61873 19.2029 7.61324C19.3829 7.5999 19.5772 7.65341 19.744 7.60508C20.0923 7.50355 20.1871 7.19959 20.0117 6.86142C19.5364 7.23019 19.1345 7.28213 18.802 7.01803C18.5266 6.79865 18.4109 6.33463 18.5537 6.02455C18.7276 5.64715 19.1136 5.49368 19.569 5.59458C19.6619 5.51926 19.7261 5.43091 19.8031 5.41867C19.846 5.41145 19.9348 5.52271 19.9586 5.59505C20.0974 6.01325 20.2315 6.43349 20.3503 6.85781C20.4401 7.17762 20.4176 7.48864 20.13 7.71257ZM21.8513 6.49877C21.5922 6.5799 21.3862 6.66919 21.171 6.70434C20.9292 6.7442 20.7685 6.60438 20.6916 6.37637C20.6141 6.14648 20.7141 5.96523 20.8966 5.85068C21.0511 5.75323 21.2368 5.70521 21.4091 5.63742C21.4709 5.61294 21.5346 5.59411 21.6056 5.5701C21.5498 5.3355 21.4015 5.26724 21.2026 5.32169C21.0833 5.35433 20.9807 5.44315 20.863 5.48552C20.7982 5.50906 20.7175 5.48803 20.6447 5.48756C20.6549 5.42165 20.6406 5.33142 20.6788 5.2947C20.9072 5.07595 21.1888 4.98305 21.4984 5.04833C21.7681 5.10545 21.8615 5.33236 21.9145 5.57528C21.9793 5.87249 22.041 6.17033 22.1185 6.53722C22.0294 6.52454 21.9403 6.51172 21.8513 6.49877ZM23.8346 6.28975C23.7802 6.23059 23.6889 6.17802 23.6771 6.1118C23.6363 5.87861 23.6266 5.63993 23.5975 5.40439C23.5644 5.13197 23.4298 4.98917 23.2283 4.9989C23.0014 5.0102 22.8142 5.18611 22.8142 5.43201C22.8142 5.67681 22.8652 5.92098 22.8703 6.16578C22.8718 6.24424 22.8004 6.32427 22.7622 6.40352C22.702 6.33965 22.6 6.28316 22.5893 6.21176C22.5286 5.81788 22.4862 5.42118 22.4481 5.02448C22.4429 4.97285 22.4914 4.87148 22.5199 4.86944C22.6 4.86426 22.6827 4.89894 22.7831 4.92248C22.8729 4.87148 22.9626 4.80416 23.0641 4.76634C23.4368 4.62762 23.7836 4.81436 23.8546 5.204C23.9076 5.49572 23.9382 5.79199 23.9581 6.08779C23.9627 6.1526 23.8781 6.22243 23.8346 6.28975ZM24.5869 3.88004C24.6506 3.94532 24.7567 4.00448 24.7665 4.07682C24.7757 4.14461 24.6833 4.22684 24.5967 4.36399C24.4967 4.23531 24.3881 4.15434 24.3993 4.09675C24.4151 4.01515 24.5201 3.95144 24.5869 3.88004ZM24.7991 6.04793C24.7925 6.11839 24.7145 6.18163 24.669 6.24848C24.6191 6.18728 24.5314 6.12922 24.5262 6.06488C24.4958 5.68481 24.4793 5.30375 24.4768 4.92248C24.4763 4.83978 24.5486 4.69965 24.6105 4.68584C24.7746 4.64818 24.7628 4.79741 24.7655 4.90506C24.7696 5.09117 24.7665 5.27791 24.7665 5.46449H24.8052C24.8052 5.65892 24.817 5.85476 24.7991 6.04793ZM26.301 6.00164C26.3724 6.00713 26.4392 6.07916 26.5081 6.12043C26.4372 6.1617 26.3674 6.23655 26.2955 6.23812C26.016 6.24377 25.7355 6.23059 25.4564 6.2138C25.38 6.20909 25.247 6.173 25.2429 6.13879C25.2331 6.05876 25.2658 5.95566 25.3173 5.88991C25.5249 5.62157 25.7467 5.36422 25.9619 5.10137C25.9977 5.05806 26.0262 5.0091 26.0793 4.93205C25.8787 4.91793 25.71 4.9184 25.5457 4.88968C25.455 4.87399 25.3723 4.81028 25.2857 4.76791C25.3748 4.73213 25.4632 4.66999 25.5539 4.66544C25.7992 4.6532 26.046 4.66073 26.2924 4.66889C26.529 4.67674 26.5831 4.77874 26.4393 4.96987C26.2608 5.20698 26.0634 5.42981 25.8753 5.65986C25.8064 5.74397 25.7406 5.83075 25.686 5.99599C25.891 5.99599 26.097 5.98532 26.301 6.00164ZM28.2544 5.44299C28.2392 5.67166 28.2181 5.89991 28.1911 6.12749C28.1805 6.21317 28.1422 6.2954 28.1166 6.37904C28.0228 6.34938 27.9289 6.32035 27.9065 6.31313C27.6236 6.31313 27.3955 6.34844 27.1843 6.30356C26.9585 6.25554 26.8305 6.06943 26.8488 5.82557C26.8661 5.59662 27.0039 5.44001 27.2242 5.39921C27.4624 5.35496 27.7077 5.35135 27.9504 5.32985C27.9468 5.07344 27.8137 4.96108 27.5236 4.9898C27.4327 4.99843 27.3461 5.05304 27.2557 5.05806C27.1945 5.0612 27.1308 5.01365 27.0687 4.9887C27.0961 4.92954 27.1079 4.83931 27.1537 4.8164C27.4368 4.67454 27.731 4.67407 28.0105 4.82142C28.26 4.95245 28.2723 5.19772 28.2544 5.44299ZM29.6151 6.43161C29.5156 6.51368 29.4534 6.60689 29.3789 6.61819C29.1239 6.65648 28.9092 6.53251 28.875 6.3373C28.8567 6.23153 28.8694 6.11729 28.8843 6.0098C28.9204 5.75072 28.9663 5.49258 29.0117 5.21263C28.9235 5.18862 28.8592 5.18501 28.8133 5.15394C28.7714 5.12585 28.7231 5.06575 28.7272 5.02495C28.7313 4.98572 28.8036 4.91824 28.8383 4.92295C29.025 4.94586 29.0958 4.86536 29.1209 4.68835C29.1284 4.63421 29.2243 4.59247 29.28 4.54508C29.3213 4.61177 29.409 4.68992 29.3957 4.74343C29.3473 4.94586 29.4131 5.02432 29.614 5.04378C29.6722 5.04943 29.7221 5.13919 29.7758 5.19019C29.7044 5.2233 29.6257 5.29423 29.5636 5.28199C29.3687 5.24276 29.2739 5.29266 29.2662 5.50121C29.2621 5.60996 29.23 5.71808 29.2096 5.82604C29.127 6.27594 29.1264 6.2761 29.6151 6.43161ZM30.4918 5.39058C30.4057 5.80621 30.3086 6.21948 30.2005 6.62996C30.1867 6.68143 30.0858 6.7351 30.0231 6.73855C29.9838 6.74059 29.9399 6.64926 29.9175 6.62274C30.0226 6.16013 30.1117 5.74507 30.2178 5.33393C30.2307 5.28403 30.3357 5.25798 30.398 5.22079C30.4306 5.27791 30.5014 5.34272 30.4918 5.39058ZM30.5244 4.81781C30.4504 4.80714 30.3898 4.70514 30.3229 4.643C30.3923 4.57458 30.4535 4.4696 30.5346 4.45124C30.5902 4.43837 30.6727 4.54649 30.8028 4.64598C30.6693 4.73386 30.5897 4.82707 30.5244 4.81781ZM31.6642 7.20304C31.1904 7.18939 30.8114 6.82925 30.813 6.39426C30.8151 5.89901 31.1675 5.5304 31.6311 5.53856C32.1381 5.54719 32.52 5.9067 32.5128 6.36774C32.5057 6.84259 32.1258 7.21622 31.6642 7.20304ZM33.9419 7.96208C33.9265 7.99566 33.7986 8.01449 33.7563 7.98797C33.7155 7.96208 33.6869 7.85694 33.7057 7.80594C33.7905 7.57495 33.895 7.35149 33.9898 7.12458C34.0999 6.86142 34.0638 6.69571 33.8761 6.59324C33.6721 6.48151 33.4335 6.53518 33.3043 6.75848C33.1819 6.97001 33.1003 7.20524 32.9953 7.4276C32.952 7.51987 32.9341 7.65859 32.7678 7.58609C32.6046 7.51532 32.6857 7.40924 32.7256 7.31226C32.8745 6.95134 33.0285 6.59261 33.1764 6.23106C33.2458 6.06127 33.3825 6.071 33.4344 6.1923C33.4961 6.3362 33.5731 6.29995 33.6706 6.29587C34.0745 6.27704 34.3637 6.52121 34.359 6.99041C34.2504 7.24949 34.1035 7.60916 33.9419 7.96208ZM36.9015 9.25387C37.0294 9.24524 37.1427 9.25481 37.1314 9.39761C37.1268 9.45834 37.009 9.54449 36.9314 9.55877C36.498 9.64037 35.9712 9.35383 35.7457 8.93202C35.507 8.48479 35.5871 7.90543 35.9427 7.5092C36.2655 7.14859 36.6673 7.01034 37.1365 7.12317C37.5394 7.21999 37.8413 7.45004 37.9668 7.8662C37.9786 7.90543 37.9811 7.94717 37.9882 7.9875C37.9689 8.01763 37.9489 8.04776 37.9296 8.07773C37.8363 8.02673 37.7021 7.99927 37.6567 7.92081C37.4088 7.49021 37.1381 7.32921 36.7428 7.41332C36.3088 7.50559 35.9778 7.87169 35.9472 8.29366C35.9023 8.90409 36.2859 9.29514 36.9015 9.25387ZM38.3703 10.7329C37.9168 10.7282 37.5001 10.3285 37.5037 9.90118C37.5078 9.41189 37.8816 9.03763 38.3565 9.04626C38.5794 9.04998 38.7917 9.14174 38.9472 9.30151C39.1027 9.46127 39.1886 9.67606 39.1863 9.89898C39.1822 10.3621 38.8144 10.7374 38.3703 10.7329ZM39.5936 12.1144C39.8497 11.8483 40.0431 11.6484 40.2353 11.4469C40.3817 11.2934 40.5157 11.1316 40.3557 10.914C40.2022 10.7048 39.9522 10.666 39.7294 10.8593C39.507 11.0521 39.3259 11.2925 39.1092 11.5315L38.8486 11.322C39.1918 10.9563 39.5131 10.6095 39.8411 10.2698C39.8722 10.2371 39.9798 10.2204 39.9921 10.2376C40.0451 10.3131 40.0762 10.4044 40.1215 10.5039C40.6168 10.613 40.8886 10.9872 40.6601 11.3499C40.4602 11.6677 40.1716 11.9313 39.9064 12.2036C39.8788 12.2327 39.7466 12.1604 39.5936 12.1144ZM40.9437 13.1349C40.8666 13.3094 40.7693 13.315 40.6422 13.209C40.3511 12.9662 40.3321 12.752 40.5994 12.4837C40.7666 12.3158 40.9575 12.172 41.1222 12.0027C41.1701 11.9533 41.2002 11.8395 41.1767 11.7789C41.142 11.6892 41.0232 11.6069 41.1655 11.5341C41.2125 11.5101 41.3113 11.5845 41.3848 11.6182C41.4144 11.6314 41.4389 11.6549 41.4598 11.6697C41.6282 11.6422 41.7628 11.2526 41.9555 11.6437C41.9203 11.681 41.8907 11.7237 41.851 11.7513C41.6939 11.8605 41.652 11.9686 41.8229 12.1083C41.9525 12.2139 41.9412 12.3175 41.7918 12.3959C41.7689 12.3883 41.749 12.3878 41.7377 12.3776C41.4573 12.1171 41.4573 12.1165 41.1569 12.3787C41.093 12.4342 41.0284 12.4893 40.9656 12.5464C40.6653 12.8193 40.6637 12.8422 40.9437 13.1349ZM41.3104 13.7056C41.2548 13.7378 41.1574 13.6975 41.0788 13.6899C41.0951 13.6209 41.0875 13.5236 41.1313 13.4869C41.45 13.22 41.7742 12.96 42.1039 12.707C42.1473 12.6734 42.2631 12.6536 42.2748 12.6718C42.3222 12.7468 42.3426 12.8397 42.3768 12.9365C42.4915 13.0105 42.619 13.0773 42.7246 13.1696C42.7567 13.1978 42.7542 13.3221 42.721 13.3543C42.6833 13.3904 42.5741 13.4021 42.5292 13.3731C42.1382 13.1192 42.0688 13.1192 41.6955 13.4134C41.5679 13.5129 41.4486 13.6256 41.3104 13.7056ZM41.9662 14.6707C41.9632 14.2172 42.3544 13.8398 42.8209 13.8459C43.2525 13.8509 43.6401 14.2666 43.6416 14.7251C43.643 15.1688 43.2642 15.54 42.8057 15.5437C42.337 15.5473 41.9698 15.1655 41.9662 14.6707ZM43.18 16.3821C42.9943 16.4904 42.9005 16.4571 42.8608 16.2189C43.5691 15.8181 44.2822 15.4142 44.991 15.0128C45.1807 15.1637 45.1594 15.2607 44.9727 15.3643C44.3714 15.697 43.7738 16.0363 43.18 16.3821ZM44.8115 17.8806C44.7646 17.8361 44.6331 17.8504 44.5535 17.8779C44.3611 17.9432 44.1811 18.0438 43.9878 18.105C43.9252 18.1247 43.8379 18.0692 43.762 18.0483C43.7951 17.9697 43.8083 17.8438 43.8649 17.8194C44.4803 17.5542 45.0999 17.2988 45.7234 17.0533C45.7796 17.0308 45.9111 17.0609 45.9278 17.1002C46.0498 17.3878 46.1814 17.6775 46.2508 17.9799C46.3247 18.3028 46.2003 18.5184 45.9534 18.644C45.6932 18.7761 45.4036 18.7326 45.1807 18.5232C45.1506 18.4951 45.1363 18.4502 45.0925 18.3752C44.8248 18.7399 44.6004 19.0448 44.3652 19.365C44.2067 19.2127 44.17 19.0801 44.301 18.9112C44.478 18.6837 44.6351 18.4405 44.8171 18.2172C44.9207 18.0911 44.9058 17.9697 44.8115 17.8806ZM45.0823 20.6962C45.2104 20.8032 45.2746 20.8848 45.117 21.0262C44.7167 20.9487 44.51 20.3821 44.6152 20.0015C44.7147 19.64 45.118 19.3942 45.5377 19.4416C45.9428 19.4874 46.2431 19.824 46.2502 20.2388C46.2563 20.5972 45.9829 20.8855 45.5362 20.9655C45.4199 20.5938 45.3027 20.2168 45.1848 19.8394C44.7942 20.0022 44.7478 20.4152 45.0823 20.6962ZM45.1762 21.8626C44.9359 21.9089 44.707 21.9635 44.4744 21.9905C44.4107 21.9977 44.3373 21.9207 44.2684 21.8819C44.3203 21.8228 44.3643 21.7244 44.4264 21.711C45.0395 21.5811 45.6551 21.4612 46.2717 21.349C46.3562 21.3337 46.4854 21.349 46.5323 21.4036C46.57 21.4474 46.5149 21.5714 46.4965 21.6881C46.8025 22.0809 46.8356 22.4557 46.5736 22.7908C46.342 23.0866 45.8911 23.1866 45.5352 23.0218C45.1481 22.8418 45.0425 22.5143 45.1762 21.8626ZM46.7969 29.1867C46.7475 29.2352 46.6572 29.2423 46.5858 29.2688C46.5797 29.1801 46.5573 29.0888 46.572 29.0036C46.5929 28.8843 46.6597 28.7721 46.671 28.6532C46.6756 28.6037 46.5965 28.5212 46.5389 28.5008C46.5011 28.487 46.4104 28.5446 46.3834 28.5926C46.3175 28.7098 46.2732 28.8399 46.2232 28.9659C46.1318 29.1949 45.9632 29.3014 45.7218 29.2617C45.4838 29.2223 45.3475 29.0689 45.3292 28.8272C45.3042 28.5017 45.3419 28.1989 45.678 28.0183C45.8131 28.132 45.8641 28.2345 45.7107 28.3743C45.6531 28.4263 45.5949 28.5267 45.6055 28.5951C45.6239 28.715 45.6948 28.8266 45.7433 28.9419C45.8326 28.871 45.9412 28.8139 46.006 28.7246C46.0788 28.6241 46.1008 28.4886 46.1651 28.3798C46.3277 28.1039 46.7123 28.1075 46.8801 28.3798C47.0219 28.6099 46.9893 28.9979 46.7969 29.1867ZM47.3524 27.4262C47.0861 27.3822 47.0371 27.5352 47.0203 27.7469C47.0167 27.7893 46.9367 27.8256 46.8918 27.8643C46.8556 27.8163 46.7806 27.7603 46.7887 27.722C46.8617 27.387 46.6455 27.387 46.4206 27.3859C46.3018 27.3854 46.1828 27.3761 46.0645 27.37C45.8478 27.3589 45.6663 27.3829 45.6878 27.6755C45.6907 27.7163 45.6112 27.802 45.5796 27.7975C45.528 27.7898 45.4597 27.7347 45.4414 27.6842C45.324 27.3625 45.5198 27.0773 45.8666 27.0733C46.1121 27.0701 46.3583 27.1043 46.6037 27.1003C46.6724 27.0993 46.747 27.03 46.8066 26.9774C46.8662 26.9248 46.9097 26.8545 46.9607 26.7922C46.9988 26.8661 47.0382 26.9402 47.075 27.0151C47.0856 27.037 47.0881 27.0626 47.1008 27.11C47.1978 27.1232 47.2896 27.1177 47.3626 27.1513C47.4156 27.1757 47.4687 27.2512 47.4737 27.3083C47.4773 27.3455 47.3885 27.4318 47.3524 27.4262Z" fill="white"></path><path d="M48.2008 33.3028C46.4852 32.7883 44.7681 32.2783 43.055 31.7555C42.8408 31.6903 42.7576 31.7367 42.6887 31.9437C41.7203 34.8559 40.1178 37.3676 37.8698 39.455C34.5818 42.5079 30.6792 44.1184 26.2046 44.3255C24.1166 44.4219 22.0704 44.1372 20.0744 43.5075C16.6685 42.4329 13.832 40.5092 11.5465 37.772C10.0768 36.011 8.98697 34.0347 8.28474 31.8499C8.21318 31.6286 8.12907 31.5842 7.90577 31.6499C6.13866 32.1697 4.36778 32.6776 2.59706 33.184C2.41707 33.2355 2.39871 33.3232 2.45897 33.4819C2.794 34.3622 3.07552 35.2664 3.46218 36.1232C5.88256 41.4852 9.74177 45.4725 15.0202 48.0679C18.3148 49.6876 21.8161 50.4501 25.4829 50.4306C25.924 50.4306 26.3662 50.4485 26.8068 50.4277C29.139 50.317 31.4041 49.858 33.6011 49.0711C37.2419 47.7675 40.3928 45.7051 43.0443 42.8939C45.5238 40.2649 47.3308 37.2289 48.4462 33.7863C48.5671 33.4136 48.57 33.413 48.2008 33.3028ZM8.43664 38.5374C8.15512 38.7258 7.88992 38.9021 7.60589 39.0919L7.36611 38.7394C7.75481 38.4697 8.1286 38.2096 8.50302 37.9499C8.73354 37.7903 8.96045 37.6251 9.19819 37.4773C9.25264 37.4431 9.38681 37.4365 9.41129 37.4701C9.6994 37.8669 9.97323 38.2738 10.2624 38.6945L9.96005 38.9057L9.29799 37.9719C9.23993 37.9918 9.21388 37.9959 9.19285 38.0086C8.73244 38.2824 8.73307 38.282 9.03844 38.7262C9.1486 38.8863 9.25515 39.0485 9.3741 39.226L9.07202 39.435C8.85641 39.1311 8.65288 38.8434 8.43664 38.5374ZM8.82518 40.4541C8.82628 40.0069 9.20729 39.6259 9.65499 39.6243C10.1686 39.6227 10.6143 40.0874 10.6092 40.6193C10.6045 41.0686 10.2212 41.444 9.77331 41.4369C9.27304 41.4292 8.82408 40.9636 8.82518 40.4541ZM10.3445 42.3767C10.2339 42.2754 10.1477 42.1967 10.0421 42.1004C10.442 41.726 10.8286 41.3639 11.2264 40.9922C11.2952 41.0691 11.5261 41.1085 11.4176 41.2976C11.6023 41.4159 11.7691 41.5138 11.9174 41.6342C11.9302 41.6444 11.8216 41.8041 11.751 41.9259C11.6766 41.8658 11.6272 41.8306 11.5828 41.7898C11.3473 41.5736 11.1503 41.5689 10.9152 41.7928C10.7265 41.9723 10.5496 42.1661 10.3445 42.3767ZM13.1853 44.7594C13.066 44.6651 12.9695 44.5892 12.8553 44.4994C13.04 44.2617 13.2134 44.044 13.381 43.8217C13.5763 43.5635 13.5784 43.4116 13.397 43.2677C13.2128 43.122 13.0155 43.1642 12.8288 43.3967C12.6543 43.6136 12.4856 43.8349 12.2984 44.0735L11.9786 43.8231C12.1658 43.5769 12.3396 43.3412 12.5212 43.1107C12.6533 42.9429 12.7467 42.7797 12.5421 42.6027C12.3718 42.4553 12.1556 42.4783 11.9842 42.6786C11.792 42.903 11.615 43.1403 11.4187 43.3876L11.0943 43.1397L12.1132 41.825L12.4484 42.2502C12.8768 42.306 13.0379 42.4426 13.118 42.867C13.3254 42.9275 13.5167 42.9495 13.6713 43.0363C13.9895 43.2137 14.0675 43.5284 13.8646 43.8435C13.6637 44.1556 13.4237 44.4428 13.1853 44.7594ZM14.7391 45.2751C14.9646 45.2721 15.0703 45.3456 15.0768 45.5659C14.6897 45.728 14.2048 45.5378 13.9773 45.1375C13.7701 44.7733 13.8717 44.2954 14.2098 44.0409C14.5424 43.7904 15.0845 43.8476 15.4001 44.1664C15.6827 44.4514 15.6791 44.8855 15.3747 45.271C15.0141 45.06 14.6638 44.8553 14.3139 44.6504C14.14 44.9498 14.3617 45.2807 14.7391 45.2751ZM16.1116 45.706C16.0565 45.8209 15.9903 45.931 15.9454 46.0498C15.8852 46.2085 15.8076 46.2548 15.6404 46.1758C15.4685 46.0947 15.5016 45.9957 15.5644 45.8698C15.7684 45.4607 15.9694 45.0502 16.2034 44.5754C16.3473 44.7019 16.4636 44.8043 16.5563 44.8855C16.7492 44.9441 16.9348 44.9947 17.1103 45.0691C17.1209 45.0736 17.052 45.2665 17.02 45.373C16.4636 45.166 16.3498 45.2114 16.1116 45.706ZM16.7777 46.696C17.1098 45.9066 17.4356 45.1307 17.7737 44.3276L18.1568 44.48L17.1587 46.852C17.0266 46.798 16.919 46.7536 16.7777 46.696ZM19.3715 46.4191C19.0172 46.8296 18.6643 47.2417 18.3062 47.6492C17.9864 48.0128 17.6912 48.0388 17.2607 47.7324C17.3066 47.6369 17.3458 47.5542 17.3933 47.4554C17.5953 47.5359 17.8084 47.6553 17.9716 47.4339C18.0491 47.3289 18.1175 47.1836 18.1135 47.0592C18.1006 46.6362 18.0523 46.2146 18.021 45.7917C18.014 45.6933 18.0201 45.5938 18.0201 45.4945C18.3052 45.4985 18.4485 45.6128 18.4454 45.9066C18.4428 46.1895 18.4771 46.473 18.4954 46.7566L18.5648 46.7817C18.7397 46.57 18.9329 46.3706 19.0854 46.1432C19.2497 45.8978 19.4241 45.881 19.6714 46.06C19.5714 46.1799 19.473 46.3007 19.3715 46.4191ZM22.252 47.6059C22.1801 47.9139 21.9609 48.1 21.615 48.1316C21.178 48.1719 20.794 48.0699 20.5094 47.7099C20.7211 47.4416 20.7782 47.4386 21.0214 47.6191C21.1137 47.6875 21.2295 47.743 21.3417 47.7619C21.5253 47.7929 21.7084 47.7573 21.7905 47.561C21.8741 47.3611 21.7379 47.2401 21.5921 47.1442C21.4437 47.0469 21.2816 46.9699 21.1311 46.8745C20.9123 46.7357 20.7995 46.5358 20.8312 46.2731C20.8643 45.9968 21.0117 45.8039 21.278 45.708C21.7155 45.55 22.2592 45.6917 22.5056 46.0473C22.4086 46.1217 22.3112 46.1972 22.2343 46.2559C22.0466 46.1727 21.8864 46.0784 21.7134 46.0315C21.5462 45.9861 21.385 46.0446 21.3136 46.2207C21.2408 46.4012 21.36 46.5088 21.4958 46.5934C21.6325 46.6786 21.7787 46.748 21.916 46.8321C22.2327 47.0265 22.3322 47.2616 22.252 47.6059ZM24.3287 48.1127C24.2743 47.9393 24.1865 47.8602 24.0059 47.8634C23.8876 47.865 23.7683 47.8507 23.6514 47.8303C23.3236 47.7732 23.065 47.8027 22.9442 48.1918C22.8651 48.4457 22.6259 48.2791 22.4281 48.3122C22.4525 48.2336 22.4601 48.1775 22.4857 48.1311C22.8447 47.4763 23.2083 46.8245 23.5648 46.1681C23.6326 46.0432 23.7051 45.9784 23.8601 45.9886C24.0157 45.9993 24.0809 46.0727 24.1279 46.2069C24.3686 46.8953 24.6154 47.5819 24.8586 48.2698C24.8801 48.331 24.8892 48.3963 24.9046 48.4611C24.4797 48.511 24.4517 48.5024 24.3287 48.1127ZM26.356 48.4391C25.9149 48.6055 25.4115 48.5167 25.1229 48.1882C25.212 48.098 25.3038 48.0057 25.3956 47.9128C25.4044 47.9414 25.4135 47.9695 25.4222 47.998C25.6216 48.0449 25.8206 48.1225 26.0214 48.1286C26.1928 48.1336 26.3555 48.0357 26.3755 47.8282C26.3943 47.6297 26.256 47.5406 26.096 47.4828C25.9129 47.4171 25.718 47.3779 25.542 47.2972C25.0984 47.0943 25.0203 46.5567 25.3759 46.2248C25.7098 45.9131 26.3764 45.8998 26.7665 46.2212L26.5376 46.4624C26.2948 46.4282 26.0949 46.3629 25.9067 46.3874C25.7996 46.4012 25.667 46.5481 25.6323 46.6618C25.6114 46.7307 25.7358 46.8867 25.8308 46.9382C25.9919 47.0254 26.1826 47.0571 26.3585 47.1197C26.6946 47.2401 26.8374 47.4359 26.8349 47.7614C26.8324 48.0928 26.6717 48.3203 26.356 48.4391ZM29.6277 46.1609C29.4824 46.7271 29.2941 47.2825 29.1569 47.85C29.083 48.1556 28.9101 48.2433 28.5882 48.2183C28.7995 47.512 29.0044 46.825 29.2268 46.0809L28.0263 46.2731L27.9488 45.9172C28.5093 45.8182 29.0468 45.7229 29.6343 45.6189C29.6338 45.8223 29.6685 46.0013 29.6277 46.1609ZM31.9864 46.9769C31.939 47.3758 31.7019 47.6256 31.3393 47.7032C30.9526 47.7863 30.6125 47.644 30.4034 47.2963C30.1984 46.9551 30.0856 46.5843 30.0851 46.1834C30.0842 45.7076 30.2927 45.3975 30.6874 45.2898C31.1092 45.1747 31.4667 45.3215 31.6972 45.7325C31.913 46.116 32.0394 46.5317 31.9864 46.9769ZM34.6772 46.0702C34.4997 45.9392 34.3294 45.7928 34.1356 45.6924C34.0459 45.6459 33.9076 45.6933 33.7913 45.6978C33.7964 45.7815 33.78 45.8733 33.8097 45.9467C33.9031 46.1813 34.0137 46.4089 34.1279 46.6628C33.9978 46.7255 33.8867 46.779 33.7413 46.8495C33.4047 46.1167 33.0748 45.3986 32.7265 44.6391C33.1222 44.4779 33.4808 44.3061 33.8555 44.1862C34.1968 44.0771 34.46 44.1898 34.6114 44.4392C34.7873 44.7288 34.7583 44.9824 34.518 45.2751C34.4976 45.3 34.4824 45.3297 34.4437 45.3893C34.7767 45.6137 35.0892 45.8243 35.4106 46.0412C35.0382 46.3089 35.0006 46.3084 34.6772 46.0702ZM36.0517 45.623C35.6069 45.6341 35.2484 45.3456 35.1867 44.9267C35.1209 44.4815 35.3891 44.0665 35.8313 43.9287C36.2389 43.8017 36.5907 43.9853 36.8176 44.4636L35.7486 45.1171C35.9996 45.3909 36.3638 45.3429 36.5331 45.0069C36.6412 44.7916 36.7672 44.8075 36.9386 44.8743C36.8855 45.2878 36.4984 45.6117 36.0517 45.623ZM37.8396 44.4122L38.3537 45.1507C38.0631 45.4424 38.0615 45.4399 37.8376 45.1343C37.4368 44.5881 37.0313 44.0454 36.5836 43.4416L37.0202 43.2698C37.3323 42.8006 37.656 42.5925 38.0549 42.6879C38.4487 42.7822 38.7399 43.1505 38.744 43.559C38.749 44.0128 38.5328 44.2235 37.8396 44.4122ZM39.4192 43.1204C38.9657 43.1285 38.5731 42.7439 38.569 42.2885C38.5645 41.7817 39.0357 41.3134 39.5492 41.3145C39.9771 41.3155 40.3754 41.7153 40.381 42.1503C40.3876 42.6358 39.9159 43.1118 39.4192 43.1204ZM42.4745 40.1909C42.2338 40.5366 42.0003 40.579 41.6606 40.3281C41.4638 40.1828 41.275 40.0262 41.0522 39.8503C40.8839 40.0518 40.7309 40.2204 40.5952 40.4015C40.4488 40.5974 40.4932 40.7876 40.6595 40.9498C40.8595 41.1446 41.0664 41.3322 41.2904 41.5414L41.0154 41.8393C40.6371 41.4986 40.2708 41.1731 39.9118 40.8392C39.8771 40.807 39.8588 40.7014 39.8837 40.6708C39.9669 40.5683 40.0383 40.4072 40.2806 40.5591C40.1536 40.0838 40.6085 39.964 40.7477 39.6299C40.6453 39.537 40.5417 39.4432 40.4182 39.3316C40.5014 39.227 40.5779 39.1317 40.66 39.0286C40.7931 39.1209 40.9089 39.2015 41.0343 39.2888C41.1353 39.175 41.2235 39.0746 41.3307 38.9536C41.4112 39.0154 41.4878 39.073 41.579 39.1424C41.4908 39.2673 41.4148 39.3759 41.3128 39.5203C41.5295 39.6871 41.7254 39.8824 41.9604 39.9976C42.0538 40.0436 42.2344 39.9124 42.365 39.8328C42.6194 39.9083 42.6352 39.9604 42.4745 40.1909ZM43.3313 38.7863C43.2977 39.1505 43.0167 39.4933 42.6261 39.6125C42.5964 39.5146 42.5674 39.4167 42.5465 39.3473C42.7097 39.2045 42.851 39.1093 42.9484 38.9812C42.9906 38.9257 42.9428 38.8006 42.9356 38.7074C42.8499 38.7181 42.749 38.7047 42.6821 38.7455C42.576 38.8108 42.4955 38.9169 42.3981 38.9991C42.2358 39.1363 42.0549 39.1913 41.8591 39.0751C41.6591 38.9567 41.6005 38.7691 41.6356 38.5487C41.6897 38.2085 41.9808 37.9118 42.2986 37.8715C42.37 38.0494 42.3593 38.1886 42.1578 38.2835C42.0901 38.3151 42.0309 38.4019 42.0053 38.4762C41.9849 38.5354 41.9992 38.6421 42.04 38.6762C42.0778 38.7079 42.1889 38.6936 42.2394 38.6589C42.3639 38.5721 42.4679 38.4565 42.5883 38.3631C42.7479 38.2391 42.9199 38.2019 43.109 38.3105C43.2982 38.4191 43.3497 38.585 43.3313 38.7863Z" fill="white"></path><path d="M20.951 28.3438C17.6151 28.3101 16.7293 31.6026 17.8563 33.6524C18.8448 35.4501 21.7094 35.8506 23.2858 34.4076C24.4013 33.3872 24.6103 32.0974 24.2472 30.6944C23.8652 29.221 22.6045 28.3438 20.951 28.3438ZM21.9277 33.9212C20.5879 34.6137 19.0211 33.8564 18.7346 32.3774C18.5515 31.4319 18.7208 30.5704 19.4971 29.9319C20.1896 29.3627 20.9877 29.3011 21.8007 29.6315C22.5886 29.9518 22.9824 30.5903 23.1007 31.4136C23.1175 31.5308 23.1201 31.6502 23.1283 31.7516C23.0966 32.6926 22.7951 33.4724 21.9277 33.9212ZM14.83 34.0517C14.2491 34.2741 13.7112 34.1812 13.2393 33.7707C13.1459 33.6896 13.0782 33.5794 12.9685 33.4463L12.0684 34.4668C12.1332 34.5101 12.2443 34.5749 12.3433 34.654C13.2214 35.3573 14.6551 35.4945 15.6393 34.9493C16.385 34.5362 16.693 33.8732 16.6609 33.0393C16.6314 32.2749 16.2218 31.7771 15.5409 31.4798C15.37 31.4052 15.1905 31.3517 15.0177 31.2819C14.626 31.1237 14.2231 30.9861 13.8497 30.7923C13.578 30.6511 13.5045 30.3567 13.585 30.0615C13.6745 29.7356 13.9491 29.5193 14.3364 29.4683C14.882 29.3965 15.363 29.5264 15.7229 29.9181C15.979 29.6789 16.2157 29.4515 16.46 29.2317C16.6384 29.071 16.5931 28.9599 16.4099 28.8425C15.3965 28.1938 14.3409 28.1663 13.284 28.6854C12.5697 29.0363 12.2509 29.6626 12.2826 30.4623C12.3136 31.2427 12.735 31.7352 13.4306 32.0245C13.6106 32.0995 13.7967 32.16 13.9794 32.2285C14.2813 32.3416 14.5882 32.4436 14.8831 32.5727C15.2048 32.7135 15.4001 32.9649 15.3859 33.329C15.3721 33.6916 15.1538 33.9278 14.83 34.0517ZM36.4479 34.0001C36.8544 33.6146 37.2791 33.2464 37.6642 32.8405C38.3594 32.1065 38.9474 31.3134 38.8769 30.2186C38.825 29.4076 38.4623 28.79 37.7005 28.4916C36.6146 28.0669 35.5823 28.2657 34.6206 28.8894C34.567 28.9241 34.5022 29.0241 34.5175 29.0669C34.621 29.3571 34.745 29.6406 34.8699 29.9452C34.9878 29.8712 35.0657 29.8217 35.1444 29.7732C35.488 29.5606 35.8496 29.4067 36.2617 29.3822C36.887 29.3448 37.3353 29.5973 37.4888 30.1125C37.5862 30.4389 37.579 30.7796 37.4219 31.0824C37.2511 31.4114 37.0767 31.7577 36.8263 32.0234C36.1515 32.7394 35.4574 33.4423 34.7251 34.0987C34.4043 34.3857 34.3048 34.679 34.34 35.0738C34.3538 35.2262 34.4038 35.2783 34.5553 35.2778C35.9833 35.2737 37.4108 35.2737 38.8388 35.2772C38.9964 35.2778 39.0489 35.213 39.0448 35.0641C39.0387 34.8519 39.0331 34.6386 39.0469 34.4271C39.0605 34.2149 38.9785 34.1476 38.7683 34.1506C38.0543 34.1608 37.3403 34.1552 36.6268 34.1542C36.5382 34.1542 36.4493 34.1456 36.3167 34.1388C36.382 34.069 36.4132 34.0328 36.4479 34.0001ZM27.5571 29.6646C28.3573 29.2949 29.1228 29.3484 29.7971 29.9835C29.8433 30.0273 29.9775 30.04 30.0296 30.0053C30.2962 29.8264 30.5498 29.627 30.8185 29.4271C30.6405 29.1124 30.206 28.7636 29.7869 28.5861C28.1395 27.8889 25.2601 28.5569 25.0514 31.5047C24.8118 34.8922 28.0518 35.8703 29.9501 34.9661C30.3667 34.7678 30.7242 34.4919 30.9853 34.0706C30.7124 33.8758 30.4513 33.7024 30.2065 33.5086C30.0521 33.3862 29.9551 33.4019 29.8286 33.5504C28.9902 34.5327 27.5633 34.217 26.92 33.4862C26.4565 32.9588 26.2815 32.3325 26.3137 31.6475C26.3556 30.7592 26.7262 30.0488 27.5571 29.6646ZM23.853 17.9802C24.9158 17.5502 26.0169 17.7898 26.7962 18.6115C26.8456 18.6636 26.9706 18.715 27.015 18.689C27.1874 18.5881 27.3409 18.4555 27.5188 18.3213C27.4307 18.21 27.3674 18.1214 27.296 18.0403C26.3295 16.9514 24.5532 16.804 23.4082 17.341C22.4214 17.8041 21.7762 18.5595 21.6713 19.6788C21.555 20.9157 21.9644 21.9525 23.0651 22.5793C24.2784 23.2708 25.54 23.2193 26.7538 22.5334C27.0394 22.3723 27.269 22.1112 27.5546 21.8704C27.3622 21.7215 27.2235 21.6266 27.0997 21.5148C26.9767 21.4042 26.891 21.4241 26.7819 21.5393C26.0924 22.2631 25.2413 22.4523 24.2854 22.2748C23.3099 22.0933 22.5376 21.2675 22.4465 20.3139C22.347 19.279 22.8967 18.3671 23.853 17.9802ZM13.3787 22.9331C13.6392 22.9331 13.8334 22.9229 14.0258 22.9363C14.194 22.948 14.2863 22.8878 14.3597 22.7332C14.5904 22.2508 14.8432 21.7791 15.0748 21.297C15.1478 21.1461 15.2391 21.0855 15.4078 21.0875C16.0704 21.0957 16.7329 21.0977 17.3954 21.0864C17.579 21.0835 17.6682 21.1569 17.7436 21.3124C17.9685 21.7788 18.2024 22.2408 18.4454 22.698C18.495 22.7909 18.5943 22.9046 18.6847 22.9179C18.8994 22.9501 19.1222 22.9281 19.4119 22.9281C18.4057 20.889 17.4281 18.9088 16.4162 16.8596C15.391 18.9098 14.3977 20.8958 13.3787 22.9331ZM17.2617 20.3491H15.5553C15.8389 19.7885 16.1087 19.2545 16.3784 18.7205L16.4555 18.7266C16.7175 19.2541 16.9797 19.7808 17.2617 20.3491ZM32.1522 22.9352C32.3414 22.9501 32.4434 22.8735 32.5244 22.7057C32.7535 22.232 33.0074 21.7698 33.2323 21.2941C33.3068 21.137 33.3961 21.088 33.5627 21.0896C34.2253 21.0971 34.8883 21.0971 35.5508 21.088C35.7181 21.086 35.8099 21.139 35.8849 21.292C36.1225 21.7805 36.3734 22.2626 36.63 22.742C36.6712 22.8195 36.763 22.9122 36.8401 22.9204C37.0568 22.9449 37.2782 22.929 37.5679 22.929L34.5732 16.8682L31.534 22.9322C31.7845 22.9322 31.969 22.9209 32.1522 22.9352ZM34.5696 18.6532L35.4248 20.3516H33.7091C33.9988 19.7793 34.2676 19.2489 34.5696 18.6532ZM30.9145 17.1941C30.2284 17.1513 29.5384 17.1737 28.851 17.1518C28.6204 17.1442 28.5633 17.2319 28.5658 17.4487C28.576 18.3152 28.5699 19.1822 28.5699 20.0492C28.5699 20.8478 28.5665 21.647 28.571 22.4456C28.574 22.9694 28.4828 22.924 29.0636 22.9363C29.2707 22.9403 29.3478 22.8746 29.3446 22.6604C29.334 21.9804 29.3462 21.3006 29.3376 20.6209C29.3349 20.4153 29.4029 20.3393 29.6144 20.3348C30.1067 20.324 30.6013 20.3153 31.0888 20.2552C31.7008 20.1797 32.1889 19.8865 32.3915 19.2652C32.7383 18.2014 32.0793 17.2671 30.9145 17.1941ZM30.9721 19.5514C30.4927 19.6029 30.0072 19.6013 29.5242 19.6034C29.4634 19.6038 29.3564 19.4916 29.3498 19.4238C29.3279 19.1969 29.3417 18.9664 29.3417 18.7368C29.3421 18.5247 29.3451 18.312 29.341 18.0999C29.3385 17.9561 29.387 17.8745 29.5461 17.8811C30.0122 17.9 30.48 17.8938 30.944 17.9357C31.3735 17.9745 31.6657 18.3141 31.6728 18.716C31.6795 19.1387 31.403 19.505 30.9721 19.5514ZM20.4049 22.9337C20.6094 22.9403 20.6655 22.8664 20.664 22.6706C20.6558 21.8045 20.6604 20.9386 20.6604 20.0726H20.6624C20.6624 19.198 20.6547 18.3233 20.6676 17.4491C20.671 17.2104 20.5885 17.1223 20.3605 17.1513C20.3355 17.1544 20.3095 17.1513 20.2841 17.1513C19.8883 17.1503 19.8883 17.1503 19.8883 17.5339C19.8883 19.1643 19.8852 20.7943 19.8897 22.4247C19.8913 23.0081 19.7974 22.9149 20.4049 22.9337ZM13.7443 25.7612H37.2121V25.7438H13.7434C13.7438 25.7494 13.7443 25.7555 13.7443 25.7612ZM15.7154 6.49793C15.2049 6.48868 14.7954 6.8722 14.7827 7.37262C14.7688 7.90036 15.2106 8.38384 15.7129 8.39152C16.2132 8.39921 16.6243 8.00032 16.6304 7.50161C16.637 6.97435 16.2111 6.50704 15.7154 6.49793ZM19.372 5.80951C19.064 5.79978 18.8096 6.03893 18.8085 6.33881C18.8076 6.64073 19.0554 6.9075 19.3389 6.90797C19.6327 6.90844 19.8827 6.66568 19.8779 6.38369C19.8739 6.097 19.6281 5.81752 19.372 5.80936V5.80951ZM45.379 18.2728C45.4473 18.3508 45.6417 18.3968 45.7324 18.3549C45.8344 18.308 45.9512 18.1397 45.9416 18.0357C45.9217 17.8188 45.8227 17.6093 45.7492 17.3741C45.5284 17.467 45.355 17.5318 45.1903 17.6148C45.1465 17.6368 45.0944 17.7306 45.1087 17.7649C45.1848 17.9419 45.2555 18.1321 45.379 18.2728ZM3.68866 27.6951L3.69117 27.7665L4.72341 28.1179L4.65813 27.2314C4.33518 27.3864 4.01202 27.541 3.68866 27.6951ZM4.6506 19.6804L5.46597 20.3806L5.73588 19.5331L4.66629 19.6009C4.66081 19.6273 4.65558 19.6538 4.6506 19.6804ZM46.4648 22.2467C46.4551 21.9545 46.2052 21.7086 45.9231 21.7138C45.6075 21.7193 45.3331 21.984 45.3448 22.2728C45.3566 22.5691 45.5947 22.7862 45.9018 22.7817C46.2175 22.7771 46.4745 22.5328 46.4648 22.2467ZM4.28795 21.2624C4.04268 21.2594 3.81969 21.5511 3.85233 21.9387C3.87838 22.2463 4.21043 22.1717 4.38273 22.1774C4.722 22.188 4.53573 21.8362 4.63836 21.7057C4.6495 21.4271 4.50968 21.265 4.28795 21.2624ZM12.6433 9.20596C12.4479 9.34515 12.3929 9.52671 12.4942 9.80415C12.7469 9.61348 12.9752 9.44056 13.2145 9.26009C13.011 9.05044 12.8285 9.07383 12.6433 9.20596ZM45.9509 20.146C45.9207 19.8926 45.782 19.7722 45.4332 19.7319L45.6821 20.5866C45.9422 20.5152 45.9743 20.3439 45.9509 20.146ZM7.42186 14.8996C7.25238 15.1271 7.27278 15.301 7.49216 15.5163C7.64579 15.2735 7.79612 15.0358 7.96199 14.7742C7.70291 14.6361 7.54583 14.7328 7.42186 14.8996ZM42.825 14.1536C42.5317 14.1552 42.2334 14.4386 42.2359 14.714C42.2379 14.9889 42.4838 15.2357 42.7561 15.2357C43.0738 15.2362 43.3472 14.9889 43.3543 14.6951C43.3615 14.4142 43.1054 14.1525 42.825 14.1536ZM27.6372 5.5498C27.3343 5.59374 27.1466 5.69982 27.1629 5.86208C27.1818 6.0507 27.325 6.10468 27.4903 6.1119C27.7153 6.12163 27.9615 5.92924 27.9177 5.74564C27.8973 5.6631 27.7346 5.61414 27.6372 5.5498ZM21.5641 5.86914C21.2959 5.84717 20.9853 6.0405 20.9879 6.21688C20.9904 6.38479 21.1001 6.44944 21.254 6.45352C21.4927 6.4598 21.6994 6.26286 21.6973 5.9746C21.6722 5.95372 21.6212 5.87369 21.5641 5.86914ZM31.6647 5.81249C31.3837 5.80983 31.1343 6.06844 31.119 6.37804C31.1052 6.66616 31.3398 6.91096 31.6396 6.92068C31.9334 6.93041 32.1854 6.68357 32.1977 6.37459C32.2099 6.06498 31.9728 5.815 31.6647 5.81249ZM38.3549 9.32584C38.0697 9.33244 37.7923 9.6309 37.8011 9.92105C37.8092 10.2056 38.0744 10.4515 38.3569 10.4361C38.6425 10.4209 38.9133 10.1225 38.9047 9.83271C38.897 9.58492 38.6103 9.31972 38.3549 9.32584ZM45.6493 24.3566C45.654 24.661 45.8748 24.8706 46.1914 24.8706C46.5203 24.8711 46.7556 24.6524 46.756 24.3448C46.7565 24.0338 46.5183 23.8083 46.1966 23.8144C45.8723 23.8205 45.6447 24.046 45.6493 24.3566ZM33.9152 44.4898L33.3093 44.8504C33.4154 45.0222 33.4843 45.2783 33.6363 45.3452C33.827 45.4288 34.2681 45.0381 34.2728 44.8586C34.2763 44.6852 34.1264 44.5394 33.9152 44.4898ZM23.7607 46.5697L23.3373 47.4555L24.1213 47.5096C24.0177 47.1685 23.9284 46.8747 23.8398 46.5814C23.8135 46.5772 23.7871 46.5733 23.7607 46.5697ZM30.8164 45.6491C30.5906 45.7129 30.4626 45.8914 30.4993 46.1111C30.5528 46.432 30.6364 46.7533 30.7552 47.0556C30.8343 47.2567 31.0118 47.4031 31.2663 47.3285C31.5263 47.2521 31.5744 47.0389 31.6426 46.7839C31.5249 46.479 31.4234 46.1668 31.2836 45.872C31.1995 45.694 31.0276 45.5895 30.8164 45.6491ZM37.8224 43.0747C37.5495 43.0792 37.3063 43.3347 37.3149 43.6071C37.3236 43.8764 37.569 44.1078 37.8326 44.0956C38.0947 44.0834 38.3354 43.8324 38.3313 43.5765C38.3268 43.3086 38.0851 43.07 37.8224 43.0747ZM39.4692 41.7079C39.209 41.7124 38.9647 41.9577 38.9606 42.2174C38.9565 42.4887 39.1856 42.7206 39.4583 42.7222C39.7271 42.7238 39.9724 42.4948 39.9817 42.2331C39.9914 41.9577 39.743 41.7027 39.4692 41.7079ZM9.73836 40.0176C9.47206 40.0049 9.22318 40.2334 9.21251 40.5002C9.20184 40.7709 9.44711 41.0351 9.71482 41.0413C9.96935 41.0469 10.2264 40.8021 10.2366 40.544C10.2463 40.3037 9.98708 40.0299 9.73836 40.0176ZM35.7589 44.2894C35.5397 44.4052 35.481 44.5832 35.5861 44.8576C35.8395 44.7042 36.0737 44.5623 36.3235 44.4113C36.144 44.1829 35.9558 44.186 35.7589 44.2894ZM15.2385 44.6001C15.1866 44.4573 15.0719 44.317 14.9474 44.2268C14.7958 44.1171 14.6271 44.169 14.4359 44.3676L15.0381 44.7352C15.207 44.8377 15.2861 44.7286 15.2385 44.6001Z" fill="white"></path><path d="M93.8431 18.4236V16.4556C94.1631 16.2316 94.5525 15.9436 95.0111 15.5916C95.4698 15.2343 95.9471 14.8423 96.4431 14.4156C96.9391 13.9836 97.4005 13.5463 97.8271 13.1036C98.2591 12.661 98.6085 12.2423 98.8751 11.8476C99.1471 11.453 99.2831 11.1143 99.2831 10.8316C99.2831 10.5383 99.2111 10.269 99.0671 10.0236C98.9231 9.77829 98.7311 9.58363 98.4911 9.43963C98.2511 9.29563 97.9845 9.22363 97.6911 9.22363C97.3978 9.22363 97.1285 9.29563 96.8831 9.43963C96.6431 9.58363 96.4485 9.77829 96.2991 10.0236C96.1551 10.269 96.0831 10.5383 96.0831 10.8316H93.8751C93.8751 10.1116 94.0485 9.46363 94.3951 8.88763C94.7471 8.31163 95.2111 7.85563 95.7871 7.51963C96.3685 7.18363 97.0031 7.01562 97.6911 7.01562C98.3898 7.01562 99.0271 7.18629 99.6031 7.52763C100.179 7.86896 100.638 8.33029 100.979 8.91163C101.32 9.48763 101.491 10.1276 101.491 10.8316C101.491 11.1943 101.435 11.5463 101.323 11.8876C101.216 12.229 101.059 12.5703 100.851 12.9116C100.643 13.2476 100.39 13.5916 100.091 13.9436C99.7978 14.2903 99.4645 14.653 99.0911 15.0316C98.7231 15.405 98.3258 15.7996 97.8991 16.2156H101.523V18.4236H93.8431Z" fill="white"></path><path d="M84.1596 18.6316C83.4023 18.6316 82.6903 18.4823 82.0236 18.1836C81.357 17.8796 80.7703 17.461 80.2636 16.9276C79.7623 16.3943 79.3676 15.7783 79.0796 15.0796C78.797 14.3756 78.6556 13.6236 78.6556 12.8236C78.6556 12.0183 78.797 11.2663 79.0796 10.5676C79.3676 9.86363 79.7623 9.24763 80.2636 8.71963C80.7703 8.18629 81.357 7.77029 82.0236 7.47163C82.6903 7.16763 83.4023 7.01562 84.1596 7.01562C85.0663 7.01562 85.901 7.22629 86.6636 7.64762C87.4263 8.06363 88.0583 8.62096 88.5596 9.31963L86.5916 10.3836C86.293 10.0316 85.933 9.75163 85.5116 9.54363C85.0903 9.33029 84.6396 9.22363 84.1596 9.22363C83.7063 9.22363 83.2796 9.31696 82.8796 9.50363C82.4796 9.69029 82.1276 9.94896 81.8236 10.2796C81.525 10.6103 81.2903 10.9916 81.1196 11.4236C80.949 11.8556 80.8636 12.3223 80.8636 12.8236C80.8636 13.3196 80.949 13.7863 81.1196 14.2236C81.2903 14.6556 81.525 15.037 81.8236 15.3676C82.1276 15.693 82.4796 15.9516 82.8796 16.1436C83.2796 16.3303 83.7063 16.4236 84.1596 16.4236C84.645 16.4236 85.0956 16.317 85.5116 16.1036C85.933 15.8903 86.293 15.6076 86.5916 15.2556L88.5596 16.3276C88.0583 17.021 87.4263 17.5783 86.6636 17.9996C85.901 18.421 85.0663 18.6316 84.1596 18.6316Z" fill="white"></path><path d="M72.0038 18.6316C71.2464 18.6316 70.5344 18.4823 69.8678 18.1836C69.2011 17.8796 68.6144 17.461 68.1078 16.9276C67.6011 16.3943 67.2038 15.7783 66.9158 15.0796C66.6278 14.3756 66.4838 13.6236 66.4838 12.8236C66.4838 12.0236 66.6278 11.2743 66.9158 10.5756C67.2038 9.87163 67.6011 9.25296 68.1078 8.71963C68.6144 8.18629 69.2011 7.77029 69.8678 7.47163C70.5344 7.16763 71.2464 7.01562 72.0038 7.01562C72.7664 7.01562 73.4811 7.16763 74.1478 7.47163C74.8144 7.77029 75.4011 8.18629 75.9078 8.71963C76.4144 9.25296 76.8091 9.87163 77.0918 10.5756C77.3798 11.2743 77.5238 12.0236 77.5238 12.8236C77.5238 13.6236 77.3798 14.3756 77.0918 15.0796C76.8091 15.7783 76.4144 16.3943 75.9078 16.9276C75.4011 17.461 74.8144 17.8796 74.1478 18.1836C73.4811 18.4823 72.7664 18.6316 72.0038 18.6316ZM72.0038 16.4236C72.4571 16.4236 72.8838 16.3303 73.2838 16.1436C73.6838 15.9516 74.0358 15.6903 74.3398 15.3596C74.6438 15.029 74.8811 14.6476 75.0518 14.2156C75.2278 13.7836 75.3158 13.3196 75.3158 12.8236C75.3158 12.3276 75.2278 11.8636 75.0518 11.4316C74.8811 10.9943 74.6438 10.613 74.3398 10.2876C74.0358 9.95696 73.6838 9.69829 73.2838 9.51163C72.8838 9.31963 72.4571 9.22363 72.0038 9.22363C71.5504 9.22363 71.1238 9.31963 70.7238 9.51163C70.3238 9.69829 69.9718 9.95696 69.6678 10.2876C69.3638 10.6183 69.1238 10.9996 68.9478 11.4316C68.7771 11.8636 68.6918 12.3276 68.6918 12.8236C68.6918 13.3196 68.7771 13.7863 68.9478 14.2236C69.1238 14.6556 69.3638 15.037 69.6678 15.3676C69.9718 15.693 70.3238 15.9516 70.7238 16.1436C71.1238 16.3303 71.5504 16.4236 72.0038 16.4236Z" fill="white"></path><path d="M61.032 18.6314C60.4027 18.6314 59.8 18.5328 59.224 18.3354C58.6533 18.1381 58.152 17.8528 57.72 17.4794C57.2933 17.1061 56.9867 16.6634 56.8 16.1514L58.872 15.3834C58.936 15.5648 59.0693 15.7354 59.272 15.8954C59.4747 16.0501 59.728 16.1781 60.032 16.2794C60.336 16.3754 60.6693 16.4234 61.032 16.4234C61.3787 16.4234 61.704 16.3728 62.008 16.2714C62.3173 16.1648 62.5653 16.0181 62.752 15.8314C62.944 15.6448 63.04 15.4261 63.04 15.1754C63.04 14.9248 62.9413 14.7168 62.744 14.5514C62.5467 14.3861 62.2933 14.2554 61.984 14.1594C61.6747 14.0581 61.3573 13.9808 61.032 13.9274C60.2267 13.8101 59.504 13.6208 58.864 13.3594C58.2293 13.0928 57.728 12.7274 57.36 12.2634C56.992 11.7941 56.808 11.1994 56.808 10.4794C56.808 9.7861 57.0027 9.18077 57.392 8.66344C57.7867 8.1461 58.304 7.74344 58.944 7.45544C59.5893 7.16744 60.2853 7.02344 61.032 7.02344C61.6507 7.02344 62.248 7.1221 62.824 7.31944C63.4 7.51677 63.9013 7.8021 64.328 8.17544C64.76 8.54877 65.0693 8.99677 65.256 9.51944L63.184 10.2714C63.12 10.0901 62.9867 9.9221 62.784 9.76744C62.5813 9.61277 62.328 9.48744 62.024 9.39144C61.72 9.29544 61.3893 9.24744 61.032 9.24744C60.6907 9.2421 60.3653 9.29277 60.056 9.39944C59.752 9.5061 59.5013 9.65277 59.304 9.83944C59.112 10.0261 59.016 10.2394 59.016 10.4794C59.016 10.7941 59.1067 11.0314 59.288 11.1914C59.4747 11.3514 59.72 11.4661 60.024 11.5354C60.328 11.6048 60.664 11.6661 61.032 11.7194C61.7893 11.8314 62.488 12.0314 63.128 12.3194C63.768 12.6021 64.28 12.9808 64.664 13.4554C65.0533 13.9248 65.248 14.4981 65.248 15.1754C65.248 15.8688 65.0533 16.4741 64.664 16.9914C64.2747 17.5088 63.76 17.9114 63.12 18.1994C62.48 18.4874 61.784 18.6314 61.032 18.6314Z" fill="white"></path><path d="M98.9213 34.4236V32.2796C99.2199 32.093 99.5933 31.8343 100.041 31.5036C100.489 31.1676 100.959 30.7916 101.449 30.3756C101.945 29.9596 102.407 29.5383 102.833 29.1116C103.265 28.6796 103.617 28.2716 103.889 27.8876C104.161 27.4983 104.297 27.1703 104.297 26.9036C104.297 26.6316 104.231 26.3836 104.097 26.1596C103.964 25.9303 103.785 25.749 103.561 25.6156C103.343 25.4823 103.097 25.4156 102.825 25.4156C102.553 25.4156 102.305 25.4823 102.081 25.6156C101.857 25.749 101.676 25.9303 101.537 26.1596C101.404 26.3836 101.337 26.6316 101.337 26.9036H98.9373C98.9373 26.1676 99.1159 25.5063 99.4733 24.9196C99.8306 24.333 100.303 23.869 100.889 23.5276C101.481 23.1863 102.127 23.0156 102.825 23.0156C103.535 23.0156 104.183 23.189 104.769 23.5356C105.356 23.8823 105.823 24.3516 106.169 24.9436C106.521 25.5303 106.697 26.1836 106.697 26.9036C106.697 27.261 106.649 27.6023 106.553 27.9276C106.457 28.2476 106.316 28.565 106.129 28.8796C105.948 29.189 105.721 29.5063 105.449 29.8316C105.177 30.157 104.863 30.501 104.505 30.8636C104.153 31.221 103.764 31.6076 103.337 32.0236H106.697V34.4236H98.9213Z" fill="white"></path><path d="M86.5069 34.4236V23.2236H93.6429V25.6236H88.9069V27.2236H92.5549V29.6236H88.9069V32.0236H93.6429V34.4236H86.5069Z" fill="white"></path><path d="M77.6163 34.4236V23.2236H81.8403C82.4536 23.2236 83.0083 23.381 83.5043 23.6956C84.0056 24.005 84.4029 24.421 84.6963 24.9436C84.9896 25.461 85.1363 26.029 85.1363 26.6476C85.1363 27.277 84.9843 27.8503 84.6803 28.3676C84.3816 28.885 83.9816 29.2983 83.4803 29.6076C82.9789 29.917 82.4323 30.0716 81.8403 30.0716H80.0163V34.4236H77.6163ZM80.0163 27.6716H81.5683C81.7816 27.6716 81.9763 27.6183 82.1523 27.5116C82.3283 27.3996 82.4696 27.253 82.5763 27.0716C82.6829 26.8903 82.7363 26.6903 82.7363 26.4716C82.7363 26.253 82.6829 26.053 82.5763 25.8716C82.4696 25.6903 82.3283 25.5463 82.1523 25.4396C81.9763 25.3276 81.7816 25.2716 81.5683 25.2716H80.0163V27.6716Z" fill="white"></path><path d="M73.9021 23.2236H76.7341L72.8461 29.3836V34.4236H70.4461V29.3836L66.5581 23.2236H69.3901L71.6461 26.7756L73.9021 23.2236Z" fill="white"></path><path d="M65.44 23.2236V25.6236H62.24V34.4236H59.84V25.6236H56.64V23.2236H65.44Z" fill="white"></path><path d="M96.5024 46.4238V39.4238H98.8174C99.3007 39.4238 99.7541 39.5155 100.177 39.6988C100.601 39.8788 100.972 40.1305 101.292 40.4538C101.612 40.7738 101.862 41.1455 102.042 41.5688C102.226 41.9888 102.317 42.4405 102.317 42.9238C102.317 43.4072 102.226 43.8605 102.042 44.2838C101.862 44.7038 101.612 45.0755 101.292 45.3988C100.972 45.7188 100.601 45.9705 100.177 46.1538C99.7541 46.3338 99.3007 46.4238 98.8174 46.4238H96.5024ZM97.5424 45.3838H98.8174C99.1574 45.3838 99.4741 45.3205 99.7674 45.1938C100.064 45.0672 100.326 44.8905 100.552 44.6638C100.782 44.4372 100.961 44.1755 101.087 43.8788C101.214 43.5822 101.277 43.2638 101.277 42.9238C101.277 42.5838 101.214 42.2655 101.087 41.9688C100.961 41.6722 100.782 41.4105 100.552 41.1838C100.326 40.9572 100.064 40.7805 99.7674 40.6538C99.4741 40.5272 99.1574 40.4638 98.8174 40.4638H97.5424V45.3838Z" fill="white"></path><path d="M91.0141 46.4238V39.4238H95.3591V40.4638H92.0541V42.1538H94.7141V43.1938H92.0541V45.3838H95.3591V46.4238H91.0141Z" fill="white"></path><path d="M88.625 46.4238V39.4238H89.665V46.4238H88.625Z" fill="white"></path><path d="M83.6118 46.4238V39.4238H87.7368V40.4638H84.6518V42.1538H87.2568V43.1938H84.6518V46.4238H83.6118Z" fill="white"></path><path d="M81.2227 46.4238V39.4238H82.2627V46.4238H81.2227Z" fill="white"></path><path d="M80.0689 39.4238V40.4638H77.8389V46.4238H76.7989V40.4638H74.5739V39.4238H80.0689Z" fill="white"></path><path d="M69.061 46.4238V39.4238H71.636C72.016 39.4238 72.3576 39.5172 72.661 39.7038C72.9643 39.8905 73.2043 40.1422 73.381 40.4588C73.561 40.7722 73.651 41.1222 73.651 41.5088C73.651 41.8355 73.5893 42.1338 73.466 42.4038C73.346 42.6738 73.176 42.9038 72.956 43.0938C72.7393 43.2838 72.491 43.4205 72.211 43.5038L73.901 46.4238H72.696L71.056 43.5988H70.101V46.4238H69.061ZM70.101 42.5588H71.526C71.726 42.5588 71.9076 42.5088 72.071 42.4088C72.2376 42.3088 72.3693 42.1755 72.466 42.0088C72.5626 41.8422 72.611 41.6538 72.611 41.4438C72.611 41.2338 72.5626 41.0455 72.466 40.8788C72.3693 40.7088 72.2376 40.5755 72.071 40.4788C71.9076 40.3788 71.726 40.3288 71.526 40.3288H70.101V42.5588Z" fill="white"></path><path d="M63.5727 46.4238V39.4238H67.9177V40.4638H64.6127V42.1538H67.2727V43.1938H64.6127V45.3838H67.9177V46.4238H63.5727Z" fill="white"></path><path d="M59.84 46.5539C59.3667 46.5539 58.9217 46.4606 58.505 46.2739C58.0884 46.0839 57.7217 45.8239 57.405 45.4939C57.0917 45.1606 56.845 44.7739 56.665 44.3339C56.4884 43.8939 56.4 43.4239 56.4 42.9239C56.4 42.4239 56.4884 41.9539 56.665 41.5139C56.845 41.0739 57.0917 40.6889 57.405 40.3589C57.7217 40.0256 58.0884 39.7656 58.505 39.5789C58.9217 39.3889 59.3667 39.2939 59.84 39.2939C60.4067 39.2939 60.9284 39.4256 61.405 39.6889C61.8817 39.9523 62.2767 40.3023 62.59 40.7389L61.665 41.2339C61.4484 40.9606 61.18 40.7423 60.86 40.5789C60.54 40.4156 60.2 40.3339 59.84 40.3339C59.5067 40.3339 59.195 40.4023 58.905 40.5389C58.615 40.6756 58.36 40.8623 58.14 41.0989C57.92 41.3356 57.7484 41.6106 57.625 41.9239C57.5017 42.2373 57.44 42.5706 57.44 42.9239C57.44 43.2806 57.5017 43.6156 57.625 43.9289C57.7484 44.2389 57.92 44.5139 58.14 44.7539C58.3634 44.9906 58.62 45.1773 58.91 45.3139C59.2 45.4473 59.51 45.5139 59.84 45.5139C60.2067 45.5139 60.5484 45.4323 60.865 45.2689C61.185 45.1023 61.4517 44.8823 61.665 44.6089L62.59 45.1139C62.2767 45.5506 61.8817 45.9006 61.405 46.1639C60.9284 46.4239 60.4067 46.5539 59.84 46.5539Z" fill="white"></path></g><defs><clipPath id="clip0_1458_9296"><rect width="108" height="51" fill="white" transform="translate(0 0.423828)"></rect></clipPath></defs></svg> 