<svg width="17" height="17" viewBox="0 0 17 17" fill="none" xmlns="http://www.w3.org/2000/svg">
<path d="M3.95447 5.40674H0.74244C0.599885 5.40674 0.484375 5.52276 0.484375 5.66583V16.0258C0.484375 16.1689 0.599885 16.2849 0.74244 16.2849H3.95447C4.09702 16.2849 4.21253 16.1689 4.21253 16.0258V5.66583C4.21253 5.52276 4.09702 5.40674 3.95447 5.40674Z" fill="#3CACE4"/>
<path d="M2.3461 0.258057C1.17738 0.258057 0.226562 1.21162 0.226562 2.38371C0.226562 3.55631 1.17738 4.51024 2.3461 4.51024C3.51389 4.51024 4.46393 3.55626 4.46393 2.38371C4.46398 1.21162 3.51389 0.258057 2.3461 0.258057Z" fill="#3CACE4"/>
<path d="M12.1175 5.15015C10.8274 5.15015 9.87376 5.70694 9.29533 6.33959V5.66673C9.29533 5.52365 9.17982 5.40763 9.03727 5.40763H5.96119C5.81863 5.40763 5.70312 5.52365 5.70312 5.66673V16.0267C5.70312 16.1698 5.81863 16.2858 5.96119 16.2858H9.1662C9.30875 16.2858 9.42426 16.1698 9.42426 16.0267V10.9009C9.42426 9.17365 9.89156 8.50074 11.0908 8.50074C12.397 8.50074 12.5008 9.57949 12.5008 10.9898V16.0268C12.5008 16.1699 12.6163 16.2859 12.7588 16.2859H15.965C16.1076 16.2859 16.2231 16.1699 16.2231 16.0268V10.3441C16.2231 7.77574 15.7353 5.15015 12.1175 5.15015Z" fill="#3CACE4"/>
</svg>
