<svg width="22" height="22" viewBox="0 0 22 22" fill="none" xmlns="http://www.w3.org/2000/svg">
<path d="M15.9107 6.87796L6.48261 16.3061C6.16048 16.6282 5.62623 16.6282 5.3041 16.3061C4.98197 15.9839 4.98197 15.4497 5.3041 15.1275L14.7322 5.69945C15.0543 5.37732 15.5886 5.37732 15.9107 5.69945C16.2328 6.02158 16.2328 6.55584 15.9107 6.87796Z" fill="#292D32"/>
<path d="M15.9107 16.3064C15.5886 16.6285 15.0543 16.6285 14.7322 16.3064L5.3041 6.87832C4.98197 6.55619 4.98197 6.02193 5.3041 5.69981C5.62623 5.37768 6.16048 5.37768 6.48261 5.69981L15.9107 15.1279C16.2328 15.45 16.2328 15.9843 15.9107 16.3064Z" fill="#292D32"/>
</svg>