<svg width="55" height="62" viewBox="0 0 55 62" fill="none" xmlns="http://www.w3.org/2000/svg">
<path d="M26.3911 0.935845C24.1661 1.41793 22.4108 2.18432 20.2599 3.64294C18.8384 4.59475 17.1697 5.95448 16.601 6.62198C13.9063 9.7988 13.2388 14.7185 14.7963 20.0091C15.0312 20.8373 15.3155 21.9869 15.4144 22.5679C15.7481 24.5951 16.7123 27.0797 17.9484 29.0822C18.517 30.0217 19.7408 31.6657 20.124 31.9995L20.3712 32.222L19.9756 33.112C19.7531 33.6064 19.5183 34.1379 19.4565 34.2986C19.2711 34.7313 15.5627 36.3259 14.1041 36.5978C8.92476 37.562 3.93085 39.5521 1.80473 41.4928C0.988893 42.2345 0.556252 42.9144 0.234862 43.9651C0.0123612 44.6696 0 45.2383 0 53.1123C0 61.3449 0 61.5056 0.247223 61.7528C0.494446 62 0.65514 62 27.4912 62H54.5004L54.7599 61.6662C55.0195 61.3449 55.0195 61.3201 54.9824 52.8651L54.9454 44.3853L54.5004 43.4583C53.9194 42.2716 53.3508 41.6164 52.2012 40.8377C49.7166 39.1689 45.8599 37.7227 41.5953 36.8574C40.3592 36.5978 39.5434 36.3382 38.0724 35.7202C37.0217 35.2752 36.0451 34.8302 35.8968 34.7436C35.7608 34.6571 35.5754 34.3357 35.4889 34.0514C35.4024 33.7547 35.1181 33.112 34.8708 32.6299L34.4011 31.7646L34.8832 31.1589C36.4407 29.2182 37.9364 26.165 38.5545 23.6557C38.7522 22.8893 38.9747 22.3577 39.3703 21.752C40.5941 19.8979 41.1627 17.9695 41.2492 15.3984C41.3234 13.2847 41.1379 11.9496 40.4704 9.97186C39.6422 7.49962 38.4309 5.596 36.5643 3.84072C35.0686 2.43155 33.4617 1.54154 31.4468 0.985291C30.2601 0.676262 27.7261 0.639177 26.3911 0.935845ZM30.8782 2.926C34.3764 3.816 37.2936 6.5849 38.5174 10.1696C38.7399 10.8371 38.9871 11.7642 39.0613 12.2463C39.2467 13.3959 39.2467 15.4973 39.0613 16.5727C38.8882 17.5493 38.7028 18.019 38.6904 17.4627C38.6781 16.3008 37.6521 12.9385 36.7003 10.9731C35.6249 8.73574 35.3529 8.64921 33.8449 10.0213C31.4839 12.1721 29.1353 13.2847 26.1439 13.6802C24.6358 13.878 22.522 13.7544 20.8286 13.3588C19.2834 13.0127 18.4429 12.9633 17.936 13.2352C17.3922 13.5072 16.6258 14.459 16.3538 15.1759L16.0942 15.831L16.0077 15.349C15.8717 14.6444 16.0324 12.6295 16.3167 11.4923C16.4527 10.9608 16.7988 10.046 17.0708 9.46505C17.491 8.61213 17.7877 8.21657 18.653 7.36365C21.0758 4.96559 24.4998 3.07433 27.1327 2.67877C28.1216 2.51807 29.7162 2.62933 30.8782 2.926ZM35.9463 14.1005C36.8115 16.684 37.2071 19.7001 36.9599 21.6779C36.4902 25.411 34.5124 29.144 31.4839 32.0489C29.5432 33.8907 27.825 34.7313 26.5147 34.4346C23.5233 33.7671 19.6172 29.416 18.072 25.0401C17.4416 23.223 17.2562 22.1723 17.2562 20.4047C17.2685 17.8336 17.8248 15.5838 18.5788 15.1017C18.8508 14.9163 18.9373 14.9163 19.6666 15.1388C21.7062 15.7692 24.6605 15.9547 26.9473 15.5838C28.4678 15.3366 30.4579 14.6567 31.7311 13.9645C32.7447 13.4083 34.6236 12.0856 34.7967 11.8013C34.9326 11.6035 35.4642 12.679 35.9463 14.1005ZM33.5853 34.5088C33.8078 35.0403 33.9808 35.5718 33.9808 35.6707C33.9932 35.8561 31.4344 37.5867 28.9622 39.07L27.5654 39.8982L26.1809 39.07C23.8076 37.6485 21.1376 35.8685 21.1376 35.6954C21.1376 35.4729 21.6073 34.1627 21.7433 34.0267C21.8051 33.9649 22.213 34.1874 22.7569 34.5953C24.5122 35.9056 26.1191 36.4989 27.5654 36.3753C29.0611 36.2517 30.7546 35.4111 32.3244 34.002C32.6706 33.7053 32.9919 33.4704 33.0661 33.4952C33.1279 33.5075 33.3628 33.9649 33.5853 34.5088ZM17.9855 40.7017C17.9979 44.5584 18.1709 46.1901 18.9126 49.0826C19.4441 51.1716 20.0004 52.6797 20.9522 54.5833C21.5949 55.8565 22.7816 57.7601 23.5109 58.6996C23.7087 58.9468 23.82 59.1569 23.7458 59.1569C23.5233 59.1569 20.742 57.2286 19.2711 56.0419C18.4799 55.4115 17.2067 54.3361 16.4527 53.6686C15.2413 52.5932 15.093 52.4201 15.2413 52.247C16.0448 51.32 17.4416 49.4287 17.5034 49.1938C17.5529 49.0208 17.5034 48.7736 17.3922 48.6005C17.182 48.2915 17.009 48.2544 14.6974 47.8959L13.7456 47.7476L13.6714 47.3026C13.4242 45.8316 13.6962 43.6189 14.3513 41.7524C14.7592 40.5905 15.7481 38.625 16.0571 38.3284C16.1684 38.2418 16.6505 37.9946 17.1202 37.7845C17.6023 37.5743 17.9855 37.4136 17.9855 37.4013C17.9855 37.4013 17.9855 38.8846 17.9855 40.7017ZM38.505 38.007C39.0613 38.2418 39.1849 38.3655 39.704 39.2925C40.9154 41.431 41.3975 43.0133 41.4964 45.1394C41.5335 45.9676 41.5335 46.8947 41.4841 47.1913L41.3975 47.7352L39.7906 47.9948C38.505 48.2049 38.1095 48.3162 37.8746 48.5387C37.3307 49.0579 37.4296 49.3051 39.0242 51.2334L40.0378 52.4572L38.6657 53.6686C37.924 54.3484 36.6508 55.4115 35.8597 56.0419C34.3888 57.2286 31.6075 59.1569 31.385 59.1569C31.3108 59.1569 31.4221 58.9468 31.6199 58.6996C31.8176 58.44 32.3244 57.6983 32.7571 57.0555C35.9092 52.247 37.4049 46.3508 37.17 39.6016L37.0958 37.4013L37.4914 37.5743C37.7139 37.6609 38.1713 37.8586 38.505 38.007ZM23.3997 39.5645C24.8089 40.4421 25.9584 41.2085 25.9584 41.2456C25.9584 41.2827 25.3898 41.9131 24.6852 42.6548L23.3997 44.0021L22.9547 43.3964C22.2625 42.4446 21.5579 41.0231 21.0758 39.5892C20.6431 38.3036 20.5566 37.8339 20.742 37.9205C20.7915 37.9328 21.9905 38.6745 23.3997 39.5645ZM34.4876 38.0811C34.4876 38.18 34.3146 38.8105 34.1044 39.4656C33.6842 40.8006 32.8683 42.4446 32.1761 43.3964L31.7311 44.0021L30.4455 42.6548C29.741 41.9131 29.1723 41.2827 29.1723 41.2456C29.1723 41.1591 34.2404 37.9328 34.4011 37.9081C34.4506 37.8957 34.4876 37.9823 34.4876 38.0811ZM13.4737 38.9464C13.4737 38.9835 13.3253 39.3049 13.1523 39.651C12.6949 40.5534 12.0398 42.6177 11.8667 43.7302C11.6689 44.9787 11.7678 47.7352 12.0521 48.6252C12.287 49.3916 12.5589 49.5523 13.8198 49.7006C14.2401 49.7501 14.6109 49.8243 14.648 49.8861C14.6727 49.9355 14.3142 50.4794 13.8445 51.1098C13.2759 51.8515 12.9792 52.3583 12.9792 52.5808C12.9792 52.9516 13.6344 53.6315 16.1313 55.8071C17.4787 56.9814 20.2229 59.1322 21.3848 59.9233C21.6815 60.1211 21.1499 60.1335 11.842 60.1335L1.97779 60.1458V52.6673C1.97779 45.3248 1.97779 45.1888 2.24973 44.4842C2.73182 43.1739 4.25224 42.012 7.05822 40.8253C9.1967 39.9106 13.4737 38.6621 13.4737 38.9464ZM42.9303 39.1442C47.0466 40.1702 50.5324 41.7153 51.991 43.1492C52.4237 43.5819 52.708 44.0021 52.8811 44.4842C53.153 45.1888 53.153 45.3248 53.153 52.6673V60.1458H43.3877C38.0229 60.1458 33.6224 60.1211 33.6224 60.0964C33.6224 60.0593 34.1044 59.7008 34.7101 59.2929C36.861 57.8096 41.7436 53.6191 42.1021 52.9393C42.3617 52.4572 42.2505 52.21 41.2739 51.0109C40.8042 50.4423 40.4457 49.9355 40.4828 49.8861C40.5199 49.8366 40.8907 49.7501 41.311 49.7006C42.4359 49.577 42.8438 49.3793 42.9921 48.8724C43.3135 47.8712 43.4124 46.8576 43.3506 45.3372C43.2641 43.2358 42.918 41.9131 41.6942 39.033C41.6077 38.8352 41.756 38.8475 42.9303 39.1442ZM21.1747 44.2494C21.4466 44.6573 21.9658 45.2877 22.3119 45.6462C22.8311 46.1777 23.0165 46.3013 23.375 46.3013C23.7582 46.3137 23.9559 46.153 25.6741 44.3606L27.5654 42.4076L29.4443 44.3606C31.1378 46.1035 31.3726 46.3013 31.7435 46.3013C32.4604 46.3013 33.8078 44.8056 34.8214 42.8773L35.254 42.0367L35.1799 43.211C34.7349 49.3298 32.9301 53.9529 29.0487 58.8232C28.0598 60.0593 27.9733 60.1458 27.553 60.1458C27.1327 60.1458 27.0462 60.0717 26.0821 58.8355C22.2377 53.9158 20.3836 49.1567 19.9633 43.1492L19.8891 42.0367L20.2723 42.766C20.4948 43.1739 20.8904 43.8414 21.1747 44.2494Z" fill="black"/>
</svg>
