<svg width="50" height="50" viewBox="0 0 50 50" fill="none" xmlns="http://www.w3.org/2000/svg">
<path d="M25 0C11.225 0 0 11.225 0 25C0 38.775 11.225 50 25 50C38.775 50 50 38.775 50 25C50 11.225 38.775 0 25 0ZM31.975 26.325L23.15 35.15C22.775 35.525 22.3 35.7 21.825 35.7C21.35 35.7 20.875 35.525 20.5 35.15C19.775 34.425 19.775 33.225 20.5 32.5L28 25L20.5 17.5C19.775 16.775 19.775 15.575 20.5 14.85C21.225 14.125 22.425 14.125 23.15 14.85L31.975 23.675C32.725 24.4 32.725 25.6 31.975 26.325Z" fill="#FED200"/>
</svg>
