<svg width="50" height="50" viewBox="0 0 50 50" fill="none" xmlns="http://www.w3.org/2000/svg">
<g clip-path="url(#clip0_1069_10)">
<path d="M25 0C38.775 0 50 11.225 50 25C50 38.775 38.775 50 25 50C11.225 50 0 38.775 0 25C0 11.225 11.225 0 25 0ZM18.025 26.325L26.85 35.15C27.225 35.525 27.7 35.7 28.175 35.7C28.65 35.7 29.125 35.525 29.5 35.15C30.225 34.425 30.225 33.225 29.5 32.5L22 25L29.5 17.5C30.225 16.775 30.225 15.575 29.5 14.85C28.775 14.125 27.575 14.125 26.85 14.85L18.025 23.675C17.275 24.4 17.275 25.6 18.025 26.325Z" fill="#FED200"/>
</g>
<defs>
<clipPath id="clip0_1069_10">
<rect width="50" height="50" fill="white" transform="matrix(-1 0 0 1 50 0)"/>
</clipPath>
</defs>
</svg>
