<svg width="50" height="51" viewBox="0 0 50 51" fill="none" xmlns="http://www.w3.org/2000/svg">
<path fill-rule="evenodd" clip-rule="evenodd" d="M49.101 43.3204C47.5576 48.0104 41.511 50.3494 37.191 49.9594C31.291 49.4261 24.871 46.2967 19.9977 42.85C12.8343 37.7834 6.12432 29.946 2.21432 21.6293C-0.549015 15.7527 -1.16901 8.52733 2.94099 3.17067C4.46099 1.19067 6.10432 0.133191 8.57432 0.00985777C12.001 -0.156809 12.481 1.80353 13.6577 4.85686C14.5343 7.1402 15.7043 9.46936 16.3576 11.836C17.581 16.2527 13.3043 16.4373 12.7643 20.0473C12.4277 22.324 15.1877 25.3771 16.4343 27.0004C18.8777 30.1804 21.8143 32.9232 25.1276 35.0099C27.0243 36.2065 30.0876 38.3629 32.261 37.1729C35.6076 35.3396 35.291 29.6965 39.971 31.6065C42.3943 32.5932 44.741 34.0171 47.0543 35.2638C50.631 37.1871 50.4643 39.1804 49.101 43.3204C50.121 40.2271 48.081 46.4137 49.101 43.3204Z" fill="#001F7E"/>
</svg>
