<svg width="48" height="50" viewBox="0 0 48 50" fill="none" xmlns="http://www.w3.org/2000/svg">
<path d="M25.5221 17.3698L23.0704 17.1042C22.735 17.0679 22.4513 16.8473 22.3225 16.5354C22.3209 16.5317 22.3194 16.5279 22.3179 16.5242C22.1886 16.2124 22.2331 15.8559 22.4447 15.5929L23.9906 13.6708C24.2821 13.3085 24.2538 12.7846 23.925 12.4557L21.0311 9.56072C20.7023 9.23179 20.1788 9.20349 19.8164 9.4951L17.8943 11.0422C17.6321 11.2533 17.2766 11.2981 16.9654 11.17C16.962 11.1686 16.9586 11.1672 16.9552 11.1658C16.6423 11.0374 16.4209 10.7531 16.3846 10.4167L16.1189 7.96297C16.0689 7.50049 15.6787 7.15009 15.2137 7.15009H11.1212C10.6562 7.15009 10.2659 7.50049 10.2159 7.96297L9.95031 10.4167C9.91392 10.753 9.69245 11.0374 9.37958 11.1658C9.37617 11.1672 9.37276 11.1686 9.36945 11.17C9.05824 11.2982 8.70281 11.2533 8.44061 11.0422L6.51826 9.4951C6.15601 9.20349 5.63235 9.23179 5.30364 9.56072L2.4098 12.4557C2.08099 12.7846 2.05271 13.3085 2.3442 13.6708L3.89012 15.5929C4.10164 15.856 4.14614 16.2124 4.01689 16.5242C4.01532 16.5279 4.01384 16.5317 4.01228 16.5354C3.88339 16.8473 3.59982 17.0679 3.26438 17.1042L0.812571 17.3698C0.350272 17.4199 0 17.8103 0 18.2754V22.3695C0 22.8347 0.350272 23.2251 0.812571 23.2751L3.26429 23.5407C3.59973 23.577 3.88339 23.7976 4.01219 24.1095C4.01375 24.1132 4.01523 24.117 4.01679 24.1206C4.14605 24.4324 4.10155 24.789 3.89002 25.052L2.34411 26.9741C2.05262 27.3365 2.0809 27.8604 2.40971 28.1893L5.30355 31.0842C5.63235 31.4132 6.15601 31.4415 6.51826 31.1499L8.44042 29.6027C8.70262 29.3916 9.05805 29.3468 9.36926 29.475C9.37267 29.4764 9.37608 29.4777 9.37949 29.4791C9.69236 29.6076 9.91374 29.8918 9.95013 30.2282L10.2157 32.682C10.2658 33.1445 10.656 33.4949 11.121 33.4949H15.2135C15.6785 33.4949 16.0687 33.1445 16.1188 32.682L16.3844 30.2282C16.4208 29.8919 16.6421 29.6076 16.955 29.4791C16.9584 29.4777 16.9618 29.4764 16.9651 29.475C17.2764 29.3468 17.6318 29.3916 17.8941 29.6027L19.8162 31.1499C20.1785 31.4415 20.7021 31.4132 21.031 31.0842L23.9248 28.1893C24.2536 27.8604 24.2818 27.3365 23.9904 26.9741L22.4445 25.052C22.2329 24.7891 22.1884 24.4325 22.3177 24.1206C22.3192 24.117 22.3207 24.1133 22.3223 24.1095C22.4512 23.7976 22.7348 23.577 23.0702 23.5407L25.5219 23.2751C25.9841 23.225 26.3345 22.8346 26.3345 22.3695V18.2754C26.3347 17.8103 25.9844 17.4199 25.5221 17.3698ZM13.1673 24.4292C10.9002 24.4292 9.0622 22.5905 9.0622 20.3225C9.0622 18.0544 10.9002 16.2158 13.1673 16.2158C15.4345 16.2158 17.2725 18.0544 17.2725 20.3225C17.2725 22.5905 15.4345 24.4292 13.1673 24.4292Z" fill="#001F7E"/>
<path d="M46.7526 13.2646L45.0695 11.935C44.8014 11.7232 44.6526 11.3985 44.6524 11.0567C44.6524 11.0531 44.6524 11.0495 44.6524 11.0458C44.6518 10.7032 44.8008 10.3777 45.0695 10.1654L46.7526 8.8357C47.1381 8.53119 47.2744 8.00761 47.0865 7.5537L46.3472 5.76812C46.1592 5.31412 45.6927 5.0404 45.205 5.09772L43.0749 5.34804C42.7348 5.38804 42.3994 5.26325 42.1577 5.02058C42.1552 5.018 42.1527 5.01542 42.1501 5.01293C41.9085 4.77109 41.7843 4.43617 41.8242 4.09673L42.0744 1.966C42.1317 1.47809 41.858 1.01137 41.4043 0.823356L39.6194 0.083835C39.1657 -0.104179 38.6423 0.0322234 38.3379 0.417744L37.0087 2.10139C36.7969 2.36968 36.4723 2.51852 36.1307 2.51871C36.127 2.51871 36.1234 2.51871 36.1198 2.51871C35.7775 2.51926 35.4521 2.37023 35.2398 2.10139L33.9106 0.417652C33.6062 0.0320391 33.0827 -0.104363 32.629 0.0836507L30.8441 0.823264C30.3904 1.01128 30.1166 1.478 30.174 1.966L30.4242 4.09683C30.4642 4.437 30.3394 4.77257 30.0968 5.01441C30.0943 5.01699 30.0917 5.01957 30.0891 5.02215C29.8474 5.2638 29.5127 5.38804 29.1733 5.34813L27.0433 5.09782C26.5555 5.04049 26.0891 5.31431 25.9011 5.76821L25.1618 7.55379C24.9739 8.0077 25.1102 8.53137 25.4957 8.83588L27.1787 10.1655C27.4469 10.3774 27.5956 10.702 27.5958 11.0438C27.5958 11.0475 27.5958 11.0511 27.5958 11.0547C27.5965 11.3973 27.4474 11.7228 27.1787 11.9351L25.4956 13.2648C25.1101 13.5693 24.9738 14.0929 25.1618 14.5468L25.901 16.3324C26.089 16.7863 26.5555 17.0601 27.0432 17.0028L29.1733 16.7525C29.5134 16.7125 29.8488 16.8373 30.0906 17.0799C30.0932 17.0825 30.0956 17.0851 30.0982 17.0876C30.3398 17.3294 30.464 17.6642 30.4241 18.0038L30.1739 20.1346C30.1166 20.6226 30.3903 21.0892 30.844 21.2772L32.6289 22.0169C33.0826 22.2049 33.606 22.0685 33.9105 21.6829L35.2396 19.9992C35.4514 19.7309 35.7759 19.5821 36.1176 19.5819C36.1212 19.5819 36.1248 19.5819 36.1285 19.5819C36.4708 19.5812 36.7963 19.7304 37.0085 19.9992L38.3377 21.6829C38.6421 22.0686 39.1655 22.205 39.6193 22.0169L41.4042 21.2773C41.8579 21.0893 42.1316 20.6226 42.0743 20.1347L41.8241 18.0039C41.7841 17.6637 41.9089 17.328 42.1515 17.0863C42.154 17.0837 42.1566 17.0811 42.1592 17.0786C42.4009 16.8371 42.7356 16.7127 43.075 16.7526L45.205 17.003C45.6929 17.0603 46.1593 16.7865 46.3473 16.3326L47.0866 14.547C47.2743 14.0928 47.1381 13.5691 46.7526 13.2646ZM37.2154 14.2313C35.5033 14.9408 33.5404 14.1275 32.8312 12.4146C32.122 10.7017 32.9351 8.73819 34.6472 8.02871C36.3594 7.31924 38.3222 8.13258 39.0314 9.84544C39.7406 11.5582 38.9275 13.5219 37.2154 14.2313Z" fill="#001F7E"/>
<path d="M45.2604 41.164L43.5773 39.8344C43.3092 39.6226 43.1604 39.2979 43.1602 38.9561C43.1602 38.9525 43.1602 38.9489 43.1602 38.9452C43.1596 38.6026 43.3086 38.2771 43.5773 38.0648L45.2604 36.7351C45.6459 36.4306 45.7822 35.907 45.5943 35.4531L44.855 33.6675C44.667 33.2135 44.2005 32.9398 43.7128 32.9971L41.5828 33.2475C41.2426 33.2875 40.9072 33.1627 40.6655 32.92C40.663 32.9174 40.6605 32.9148 40.6579 32.9123C40.4163 32.6705 40.2921 32.3356 40.332 31.9961L40.5822 29.8654C40.6396 29.3775 40.3658 28.9108 39.9121 28.7228L38.1272 27.9832C37.6735 27.7952 37.1501 27.9316 36.8457 28.3172L35.5165 30.0008C35.3047 30.2691 34.9801 30.4179 34.6385 30.4181C34.6348 30.4181 34.6312 30.4181 34.6276 30.4181C34.2853 30.4187 33.9599 30.2696 33.7476 30.0008L32.4184 28.3171C32.114 27.9315 31.5905 27.7951 31.1368 27.9831L29.3519 28.7227C28.8982 28.9107 28.6245 29.3774 28.6818 29.8654L28.932 31.9962C28.972 32.3364 28.8472 32.672 28.6047 32.9138C28.6021 32.9164 28.5995 32.919 28.5969 32.9216C28.3552 33.1632 28.0205 33.2875 27.6811 33.2475L25.5512 32.9972C25.0633 32.9399 24.5969 33.2137 24.4089 33.6676L23.6696 35.4532C23.4817 35.9071 23.618 36.4308 24.0035 36.7353L25.6865 38.0649C25.9547 38.2768 26.1035 38.6014 26.1036 38.9433C26.1036 38.9469 26.1036 38.9505 26.1036 38.9541C26.1043 39.2967 25.9552 39.6222 25.6865 39.8345L24.0034 41.1642C23.6179 41.4687 23.4816 41.9923 23.6696 42.4462L24.4089 44.2318C24.5968 44.6857 25.0633 44.9595 25.5511 44.9022L27.6812 44.6519C28.0212 44.6119 28.3566 44.7367 28.5984 44.9793C28.601 44.9819 28.6035 44.9845 28.606 44.987C28.8476 45.2288 28.9718 45.5637 28.9319 45.9032L28.6817 48.034C28.6244 48.522 28.8981 48.9886 29.3518 49.1767L31.1367 49.9163C31.5904 50.1043 32.1138 49.9679 32.4183 49.5823L33.7474 47.8986C33.9592 47.6303 34.2837 47.4815 34.6254 47.4813C34.629 47.4813 34.6326 47.4813 34.6363 47.4813C34.9786 47.4807 35.3041 47.6298 35.5163 47.8986L36.8455 49.5824C37.1499 49.968 37.6733 50.1044 38.1271 49.9164L39.912 49.1767C40.3657 48.9887 40.6395 48.522 40.5822 48.0341L40.3319 45.9033C40.292 45.5631 40.4167 45.2274 40.6593 44.9857C40.6618 44.9831 40.6644 44.9805 40.667 44.978C40.9088 44.7365 41.2435 44.6122 41.5829 44.6521L43.7129 44.9024C44.2007 44.9597 44.6671 44.6859 44.8551 44.232L45.5944 42.4464C45.7822 41.9922 45.6459 41.4685 45.2604 41.164ZM35.7232 42.1307C34.0111 42.8402 32.0482 42.0269 31.339 40.314C30.6298 38.6011 31.4429 36.6376 33.1551 35.9281C34.8672 35.2186 36.83 36.032 37.5393 37.7449C38.2484 39.4576 37.4353 41.4214 35.7232 42.1307Z" fill="#001F7E"/>
</svg>
