<svg width="50" height="50" viewBox="0 0 50 50" fill="none" xmlns="http://www.w3.org/2000/svg">
<g clip-path="url(#clip0_704_1814)">
<path d="M20.8333 0C15.1124 0 10.4167 4.69642 10.4167 10.4146C10.4167 13.4996 11.7852 16.2857 13.9424 18.1989C5.79814 21.2142 0 29.4072 0 38.8897C5.23888e-05 39.6261 0.292817 40.3324 0.813901 40.8532C1.33499 41.374 2.04171 41.6666 2.77865 41.6667H16.1449C16.6912 39.6484 17.5661 37.7709 18.7192 36.1128H5.77718C7.00608 28.3116 13.3236 22.515 20.8333 22.515C21.8741 22.515 22.8907 22.63 23.8753 22.8426C24.2134 19.4495 26.6192 16.6356 29.8022 15.6833C30.7206 14.1344 31.25 12.3323 31.25 10.4146C31.25 4.69642 26.5542 0 20.8333 0ZM20.8333 5.55387C23.5492 5.55387 25.6927 7.69623 25.6927 10.4146C25.6927 13.1329 23.5492 15.2756 20.8333 15.2756C18.1175 15.2756 15.9738 13.1329 15.9738 10.4146C15.9738 7.69623 18.1175 5.55387 20.8333 5.55387Z" fill="#001F7E"/>
<path d="M33.3337 16.6667C28.7569 16.6667 25.0003 20.4238 25.0003 24.9984C25.0003 27.4664 26.0951 29.6952 27.8209 31.2258C21.3055 33.638 16.667 40.1925 16.667 47.7784C16.667 48.3676 16.9013 48.9326 17.3181 49.3492C17.735 49.7659 18.3003 49.9999 18.8899 50H33.3337H47.7773C48.3669 50 48.9323 49.7659 49.3492 49.3493C49.766 48.9327 50.0003 48.3676 50.0003 47.7784C50.0003 40.1925 45.3619 33.638 38.8466 31.2258C40.5723 29.6952 41.667 27.4664 41.667 24.9984C41.667 20.4238 37.9104 16.6667 33.3337 16.6667ZM33.3337 21.1098C35.5063 21.1098 37.2211 22.8237 37.2211 24.9984C37.2211 27.173 35.5063 28.8871 33.3337 28.8871C31.161 28.8871 29.4461 27.173 29.4461 24.9984C29.4461 22.8237 31.161 21.1098 33.3337 21.1098ZM33.3337 34.6786C39.3415 34.6786 44.3955 39.3159 45.3786 45.5568H33.3337H21.2887C22.2719 39.3159 27.3258 34.6786 33.3337 34.6786Z" fill="#001F7E"/>
</g>
<defs>
<clipPath id="clip0_704_1814">
<rect width="50" height="50" fill="white"/>
</clipPath>
</defs>
</svg>
