<svg width="50" height="50" viewBox="0 0 50 50" fill="none" xmlns="http://www.w3.org/2000/svg">
<g clip-path="url(#clip0_704_1790)">
<path d="M48.0347 15.2683C46.1356 10.7802 42.9674 6.96563 38.9784 4.2709C34.9902 1.5752 30.1721 -0.00078096 24.9996 2.90327e-07C21.5519 2.90327e-07 18.2598 0.7 15.2682 1.96523C10.7794 3.86436 6.96494 7.03184 4.27002 11.0215C1.57441 15.009 -0.00156134 19.8271 1.16076e-06 24.9996C-0.000780089 28.4481 0.69922 31.7395 1.96533 34.7318C3.86358 39.2199 7.03184 43.0344 11.0208 45.7292C15.009 48.4248 19.8272 50.0008 24.9996 50C28.4474 50 31.7395 49.3 34.731 48.0347C39.2198 46.1356 43.0335 42.9681 45.7291 38.9784C48.4248 34.991 50 30.1729 50 24.9996C50 21.5519 49.3 18.2605 48.0347 15.2683ZM36.5498 34.2996C35.7128 35.7447 36.3848 37.7551 35.3523 39.0633C34.2833 40.383 33.7397 40.0614 32.9798 41.8297C32.8965 42.0602 31.5401 44.9466 31.2014 44.0877C31.4996 44.8547 31.164 45.617 30.1899 45.677C29.4136 45.7229 29.9719 46.1722 29.7306 46.4828C28.7674 46.6947 27.7809 46.8449 26.7741 46.9243C26.0976 44.4537 25.7253 41.5923 25.7424 40.7747C25.8047 37.6024 25.097 38.8873 23.4368 36.5421C22.3024 34.9295 21.2972 33.1434 21.3563 31.0994C21.3478 31.4646 23.6346 25.9152 21.9839 26.9734C19.9788 28.2598 19.6098 25.5509 17.678 25.2978C16.6915 25.1671 16.9788 24.1486 15.8724 24.323C14.8788 24.4787 13.7498 23.1605 13.0133 22.6638C12.5298 22.3149 11.6873 17.6229 10.9779 17.6898C9.96494 17.7272 11.7199 20.9173 11.3524 21.024C10.5964 21.1657 9.2711 16.5228 9.29609 16.1404C9.33418 14.907 9.21504 14.2117 10.0312 13.1862C10.348 12.7735 12.1521 11.1867 11.9621 10.6175C11.6391 9.62471 11.8057 8.46689 11.2878 7.80195C11.7449 7.43682 12.2159 7.08799 12.7025 6.75928C13.7094 6.07881 14.7776 5.48232 15.8935 4.97393C16.0235 4.97002 16.1535 4.96455 16.2812 4.95059C17.2778 4.85322 18.2955 4.46631 19.3077 4.61973C20.6423 4.81582 22.0897 5.39053 23.4952 5.28076C24.7893 5.18965 28.4403 4.01621 29.5499 4.96299C30.0396 5.3835 24.0379 7.08408 23.8472 7.89687C23.7498 8.42637 25.4099 8.37969 25.5531 8.39287C27.2218 8.52988 25.139 9.90186 26.1637 10.1977C27.7373 10.5776 28.8725 4.6959 30.1876 7.77148C30.7249 9.04688 32.571 6.93682 32.7797 8.51035C32.9899 10.1657 34.5791 10.7256 31.6561 10.9405C28.9145 11.1632 31.1811 12.3786 29.3918 13.1682C27.6804 13.9219 26.1152 14.2528 24.8547 15.8016C23.4329 17.5581 23.2967 17.4997 22.7384 19.7477C22.4308 20.9747 20.8167 18.8842 21.4326 18.1172C21.2192 18.3803 19.3287 17.5215 19.141 17.9622C18.7743 18.8124 17.7776 18.3563 16.9943 18.8771C16.0039 19.532 15.0337 21.6545 16.0249 22.6496C16.8184 23.4407 19.5498 20.9031 19.6985 21.7697C19.8153 22.4324 18.7299 22.9026 18.8483 23.5653C19.0189 24.5246 20.6913 23.2904 20.6905 24.0356C20.6913 24.5137 20.6119 26.5117 22.0843 26.0118C22.8777 25.7409 22.9563 26.3093 23.4523 26.1901C24.132 26.0258 24.4357 25.1195 25.237 25.2378C26.1907 25.3771 27.2599 25.86 28.1739 26.1294C29.6596 26.5692 29.5934 27.8104 31.2465 28.065C32.8979 28.3251 32.2377 29.8544 32.0344 30.721C32.1296 31.502 38.9753 30.3488 36.5498 34.2996ZM43.0382 12.4153C43.1052 12.5111 43.1752 12.6062 43.2399 12.7034C43.6315 13.2812 43.9929 13.8815 44.3276 14.4981C44.1867 14.5464 44.0536 14.5854 43.9516 14.597C43.5202 14.6515 42.8202 14.2746 42.7128 14.1127C42.6263 13.9835 42.9168 12.8639 43.0382 12.4153ZM46.9944 25.1203C46.8722 25.0518 46.7391 25.0151 46.5903 25.0455C46.0515 25.1529 44.0053 25.6918 43.2516 25.5835C42.4971 25.4753 40.1284 23.2142 40.1284 22.6754C40.1284 22.1373 40.2359 20.0903 40.4508 19.7672C40.6665 19.444 41.8508 17.9678 42.2821 17.3223C42.7127 16.6753 43.359 15.8148 43.8978 15.7066C44.0652 15.6731 44.4227 15.6078 44.8571 15.5275C46.2274 18.3961 46.996 21.6048 46.9968 24.9996C46.9968 25.0401 46.9944 25.079 46.9944 25.1203Z" fill="#001F7E"/>
</g>
<defs>
<clipPath id="clip0_704_1790">
<rect width="50" height="50" fill="white"/>
</clipPath>
</defs>
</svg>
