<svg width="46" height="45" viewBox="0 0 46 45" fill="none" xmlns="http://www.w3.org/2000/svg">
<path d="M13.6673 0.0507164C13.157 0.18267 12.6116 0.481763 12.207 0.833638C11.8199 1.18551 11.3273 1.97723 11.2129 2.45226L11.1601 2.68098L10.0781 2.71617C9.05769 2.74256 8.96972 2.76015 8.67942 2.98008C8.10763 3.41112 8.06364 3.61345 8.09883 5.68072C8.12522 7.704 8.14281 7.74798 8.7322 8.18782C8.96972 8.37256 9.05769 8.37256 14.415 8.37256C19.7723 8.37256 19.8602 8.37256 20.0978 8.18782C20.696 7.73918 20.7047 7.72159 20.7047 5.57515C20.7047 3.65743 20.7047 3.61345 20.4936 3.32315C20.1505 2.84812 19.7107 2.69858 18.6199 2.69858H17.6698L17.617 2.45226C17.5027 1.96843 17.0101 1.18551 16.5966 0.807247C16.3591 0.596122 15.9368 0.332216 15.6641 0.226654C15.1275 0.0243254 14.1071 -0.0636435 13.6673 0.0507164ZM15.2683 1.58137C15.585 1.74851 15.9808 2.13558 16.1392 2.45226C16.2095 2.58422 16.2975 2.93609 16.3415 3.23518C16.4559 4.07089 16.5262 4.10607 18.0745 4.10607H19.3412V5.55756V7.00904H14.415H9.48874V5.55756V4.10607H10.7643C12.0134 4.10607 12.0574 4.09728 12.2598 3.88615C12.4093 3.7454 12.4797 3.57826 12.4797 3.38473C12.4797 2.52264 13.0515 1.72212 13.852 1.46701C14.1951 1.35265 14.9516 1.42303 15.2683 1.58137Z" fill="#FED200"/>
<path d="M1.39604 5.01213C0.9386 5.16168 0.226053 5.90941 0.0940996 6.39324C0.00613088 6.70113 -0.0114629 10.7741 0.00613088 24.8667L0.0325215 42.9442L0.270037 43.3929C0.621912 44.0615 0.885818 44.3342 1.5016 44.6684L2.0558 44.9675H14.4154H26.775L27.3292 44.6684C27.945 44.3342 28.2177 44.0527 28.5608 43.3929C28.7807 42.9706 28.7895 42.8563 28.8247 41.5104L28.8599 40.0853H28.552C28.3848 40.0853 28.0682 40.0589 27.8482 40.0325L27.4436 39.9709L27.4172 41.3432C27.3908 42.8387 27.3468 42.953 26.7838 43.3753C26.5463 43.56 26.5287 43.56 14.4154 43.56C2.30211 43.56 2.28452 43.56 2.04701 43.3753C1.91505 43.2785 1.72152 43.085 1.62476 42.953L1.44002 42.7155L1.41363 24.7259L1.39604 6.73632L1.60716 6.52519C1.80949 6.32286 1.88866 6.30527 2.66279 6.30527H3.50729L3.52488 23.4504L3.55127 40.6043L3.73601 40.8418C3.83277 40.9737 4.0263 41.1673 4.15826 41.264C4.39577 41.4488 4.43975 41.4488 14.4154 41.4488C24.3911 41.4488 24.435 41.4488 24.6726 41.264C25.13 40.9298 25.2708 40.6483 25.3059 40.0149L25.3411 39.4167L24.6286 39.1L23.916 38.7745V39.4343V40.0853H14.4154H4.91479V23.1953V6.30527H5.79447H6.67416V5.60152V4.89777L4.19344 4.90657C2.64519 4.91536 1.58957 4.95055 1.39604 5.01213Z" fill="#FED200"/>
<path d="M22.1562 5.60135V6.3051H23.0359H23.9156V12.9467C23.9156 16.5974 23.9332 19.5884 23.9508 19.5884C23.9684 19.5884 24.2851 19.4476 24.6546 19.2805L25.3231 18.9638V12.6388V6.3051H26.1588C26.933 6.3051 27.0209 6.32269 27.2145 6.52502L27.4344 6.73615V12.5949V18.4448L27.6367 18.4096C27.7423 18.3832 28.059 18.3392 28.3405 18.3128L28.8419 18.2601V12.4893C28.8419 8.2844 28.8155 6.63058 28.7363 6.37547C28.6835 6.18194 28.4636 5.83007 28.2525 5.60135C27.6543 4.93279 27.4784 4.8976 24.6018 4.8976H22.1562V5.60135Z" fill="#FED200"/>
<path d="M6.54414 12.1552C6.40339 12.2871 6.32422 12.4719 6.32422 12.639C6.32422 12.8062 6.40339 12.9909 6.54414 13.1229L6.75527 13.3428H11.2505H15.7457L15.9568 13.1229C16.0975 12.9909 16.1767 12.8062 16.1767 12.639C16.1767 12.4719 16.0975 12.2871 15.9568 12.1552L15.7457 11.9353H11.2505H6.75527L6.54414 12.1552Z" fill="#FED200"/>
<path d="M21.3387 12.4807C21.2331 12.5951 20.89 12.9909 20.5821 13.3604C20.2742 13.7387 19.9927 14.0465 19.9575 14.0465C19.9224 14.0465 19.7464 13.9234 19.5617 13.7826C19.1482 13.4572 18.7964 13.4396 18.5061 13.7387C18.2422 13.9938 18.2158 14.3896 18.4445 14.6447C18.7348 14.9702 19.7024 15.718 19.9136 15.7707C20.0279 15.7971 20.1951 15.7971 20.2918 15.7707C20.3886 15.7355 20.9252 15.155 21.4882 14.4776C22.6142 13.1229 22.7022 12.9118 22.2887 12.5071C22.016 12.2256 21.6026 12.2168 21.3387 12.4807Z" fill="#FED200"/>
<path d="M8.65352 14.9701C8.51277 15.1021 8.43359 15.2868 8.43359 15.454C8.43359 15.6211 8.51277 15.8058 8.65352 15.9378L8.86464 16.1577H12.3042H15.7438L15.9549 15.9378C16.0957 15.8058 16.1748 15.6211 16.1748 15.454C16.1748 15.2868 16.0957 15.1021 15.9549 14.9701L15.7438 14.7502H12.3042H8.86464L8.65352 14.9701Z" fill="#FED200"/>
<path d="M6.54414 19.8964C6.40339 20.0284 6.32422 20.2131 6.32422 20.3802C6.32422 20.5474 6.40339 20.7321 6.54414 20.8641L6.75527 21.084H11.2505H15.7457L15.9568 20.8641C16.0975 20.7321 16.1767 20.5474 16.1767 20.3802C16.1767 20.2131 16.0975 20.0284 15.9568 19.8964L15.7457 19.6765H11.2505H6.75527L6.54414 19.8964Z" fill="#FED200"/>
<path d="M28.0067 19.7733C24.3032 20.2395 21.1451 22.9577 20.0895 26.582C19.1043 29.9952 20.1159 33.6371 22.7286 36.109C24.5231 37.798 26.7399 38.6777 29.2207 38.6777C30.6282 38.6777 32.1676 38.3522 33.1353 37.8508L33.408 37.7101L35.8887 40.7978C38.519 44.0614 38.8356 44.3781 39.8297 44.7564C41.2636 45.293 42.9262 44.9235 43.9554 43.8415C44.4744 43.2873 44.712 42.8387 44.9055 42.0821C45.0814 41.4048 45.0286 40.4987 44.7735 39.8125C44.3953 38.8185 44.0786 38.5018 40.8149 35.8715L37.7272 33.3908L37.868 33.1181C38.3694 32.1505 38.6949 30.611 38.6949 29.2035C38.6949 26.7668 37.8064 24.4972 36.1702 22.7554C35.2905 21.8141 34.534 21.2599 33.3728 20.6881C31.6398 19.8348 29.898 19.5357 28.0067 19.7733ZM31.2615 21.3479C34.2789 22.1572 36.4957 24.5236 37.1554 27.6201C37.3314 28.4118 37.3226 29.9776 37.1466 30.8309C36.5045 33.9538 33.9622 36.4961 30.8481 37.1295C30.074 37.2878 28.5873 37.3142 27.822 37.1735C26.5376 36.9535 25.1741 36.329 24.1361 35.5021C20.9164 32.9422 20.1599 28.2358 22.4207 24.8051C23.6522 22.9313 25.5964 21.6294 27.7692 21.2159C28.7016 21.04 30.3379 21.1016 31.2615 21.3479ZM42.7678 39.2847C43.3133 39.7949 43.5772 40.4459 43.5772 41.2288C43.5772 41.9678 43.4012 42.4076 42.9086 42.8914C42.4336 43.3753 41.9849 43.5512 41.246 43.5512C40.7006 43.56 40.4983 43.516 40.1024 43.3225C39.4778 43.0146 39.3811 42.909 36.8212 39.7158L34.6659 37.0239L35.3169 36.4873C35.6688 36.1882 36.2054 35.6516 36.5045 35.2997L37.0411 34.64L39.7329 36.804C41.2196 37.9916 42.5831 39.1088 42.7678 39.2847Z" fill="#FED200"/>
<path d="M32.7831 25.7463C32.7039 25.7991 31.5603 26.9778 30.232 28.3677C28.9125 29.7576 27.8129 30.9012 27.7777 30.9188C27.7513 30.9276 27.2851 30.4878 26.7573 29.9336C26.2294 29.3794 25.6928 28.878 25.5785 28.8252C25.1034 28.6141 24.5229 29.1155 24.6724 29.6169C24.7164 29.7664 25.3234 30.479 26.0975 31.2883C27.2939 32.5375 27.4786 32.6958 27.7249 32.6958C27.8833 32.6958 28.068 32.643 28.1384 32.5814C28.2967 32.4583 32.9415 27.5672 33.4429 26.9954C33.8036 26.582 33.8651 26.2301 33.6188 25.931C33.4341 25.7199 32.9942 25.6143 32.7831 25.7463Z" fill="#FED200"/>
<path d="M21.3386 20.222C21.2331 20.3363 20.89 20.7322 20.5821 21.1017C20.2742 21.4799 19.9927 21.7878 19.9575 21.7878C19.9224 21.7878 19.7464 21.6647 19.5617 21.5239C19.1482 21.1984 18.7964 21.1808 18.5061 21.4799C18.2422 21.735 18.2158 22.1309 18.4445 22.386C18.7084 22.6851 19.7024 23.4592 19.8256 23.4592C19.8872 23.4592 20.0191 23.3273 20.1071 23.1689C20.4502 22.6059 21.3738 21.5415 21.928 21.0753C22.2447 20.8114 22.4998 20.5651 22.4998 20.5299C22.5086 20.4947 22.4119 20.3627 22.2887 20.2484C22.016 19.9669 21.6026 19.9581 21.3386 20.222Z" fill="#FED200"/>
<path d="M10.7668 22.7113C10.626 22.8433 10.5469 23.028 10.5469 23.1952C10.5469 23.3623 10.626 23.5471 10.7668 23.679L10.9779 23.8989H13.3619H15.7458L15.957 23.679C16.0977 23.5471 16.1769 23.3623 16.1769 23.1952C16.1769 23.028 16.0977 22.8433 15.957 22.7113L15.7458 22.4914H13.3619H10.9779L10.7668 22.7113Z" fill="#FED200"/>
<path d="M6.54414 26.934C6.40339 27.066 6.32422 27.2507 6.32422 27.4178C6.32422 27.585 6.40339 27.7697 6.54414 27.9017L6.75527 28.1216H11.2505H15.7457L15.9568 27.9017C16.0975 27.7697 16.1767 27.585 16.1767 27.4178C16.1767 27.2507 16.0975 27.066 15.9568 26.934L15.7457 26.7141H11.2505H6.75527L6.54414 26.934Z" fill="#FED200"/>
<path d="M8.65352 29.7489C8.51277 29.8809 8.43359 30.0656 8.43359 30.2328C8.43359 30.3999 8.51277 30.5846 8.65352 30.7166L8.86464 30.9365H12.3042H15.7438L15.9549 30.7166C16.0957 30.5846 16.1748 30.3999 16.1748 30.2328C16.1748 30.0656 16.0957 29.8809 15.9549 29.7489L15.7438 29.529H12.3042H8.86464L8.65352 29.7489Z" fill="#FED200"/>
<path d="M6.54414 33.9714C6.40339 34.1033 6.32422 34.288 6.32422 34.4552C6.32422 34.6223 6.40339 34.8071 6.54414 34.939L6.75527 35.1589H11.2505H15.7457L15.9568 34.939C16.0975 34.8071 16.1767 34.6223 16.1767 34.4552C16.1767 34.288 16.0975 34.1033 15.9568 33.9714L15.7457 33.7514H11.2505H6.75527L6.54414 33.9714Z" fill="#FED200"/>
<path d="M18.5047 33.9626C18.1264 34.3408 18.1968 34.6487 18.8302 35.2997L19.3668 35.8627L18.8302 36.4257C18.2056 37.0767 18.1264 37.3846 18.5047 37.754C18.8742 38.1323 19.1821 38.0531 19.833 37.4285L20.396 36.8919L20.959 37.4285C21.5484 38.0003 21.8563 38.1059 22.1906 37.8596C22.3313 37.754 22.2698 37.6661 21.5132 36.9183C20.6687 36.065 20.1673 35.3877 19.6043 34.3672C19.3316 33.8658 19.2612 33.7954 19.0149 33.769C18.8038 33.7514 18.6718 33.7954 18.5047 33.9626Z" fill="#FED200"/>
<path d="M12.173 36.7865C12.0323 36.9185 11.9531 37.1032 11.9531 37.2704C11.9531 37.4375 12.0323 37.6222 12.173 37.7542C12.3842 37.9741 12.4018 37.9741 14.0644 37.9741C15.727 37.9741 15.7446 37.9741 15.9557 37.7542C16.0965 37.6222 16.1756 37.4375 16.1756 37.2704C16.1756 37.1032 16.0965 36.9185 15.9557 36.7865C15.7446 36.5666 15.727 36.5666 14.0644 36.5666C12.4018 36.5666 12.3842 36.5666 12.173 36.7865Z" fill="#FED200"/>
</svg>
