<svg width="40" height="63" viewBox="0 0 40 63" fill="none" xmlns="http://www.w3.org/2000/svg">
<path d="M16.5231 4.98345C7.9709 7.66217 0.917752 9.89853 0.868602 9.94768C0.647423 10.1689 1.31096 11.84 1.58129 11.7417C2.51515 11.4222 30.4083 2.74709 30.8998 2.62421L31.4896 2.47676V6.67915V10.8815H32.4726H33.4556V5.76986C33.4556 0.535299 33.3819 0.043791 32.4972 0.0929418C32.276 0.0929418 25.1 2.30473 16.5231 4.98345Z" fill="black"/>
<path d="M28.3539 4.34501C27.2971 4.71364 27.248 4.78737 27.5675 5.67208C27.8624 6.5568 27.9115 6.5568 28.9929 6.18817C29.8284 5.89326 29.8776 5.69666 29.4352 4.71364C29.1649 4.09926 29.0912 4.07468 28.3539 4.34501Z" fill="black"/>
<path d="M18.2401 7.68749C14.6767 8.89169 11.7031 9.92386 11.6539 9.99758C11.5802 10.0713 11.6539 10.4891 11.8014 10.956L12.0963 11.8162L18.7808 9.60438C22.4671 8.3756 25.539 7.29429 25.6619 7.22056C25.9077 6.97481 25.367 5.47571 25.0229 5.50028C24.8509 5.50028 21.8036 6.50787 18.2401 7.68749Z" fill="black"/>
<path d="M0.313336 14.1257C-0.104445 14.5434 -0.104445 62.2689 0.313336 62.6867C0.731118 63.1044 38.6264 63.1044 39.0442 62.6867C39.462 62.2689 39.462 14.5434 39.0442 14.1257C38.6264 13.7079 0.731118 13.7079 0.313336 14.1257ZM37.3731 38.4062V61.0155H19.6788H1.98446V38.4062V15.7968H19.6788H37.3731V38.4062Z" fill="black"/>
<path d="M16.8566 18.9911C12.3101 19.9741 8.27976 23.1443 6.38745 27.2238C5.30613 29.5339 4.9375 31.1805 4.9375 33.4906C4.9375 35.8252 5.30613 37.4472 6.4366 39.8556C7.19844 41.5021 7.76367 42.264 9.28735 43.7876C11.4746 45.9503 13.3669 47.0316 16.1439 47.7443C18.5523 48.3587 20.8132 48.3587 23.2216 47.7443C25.9986 47.0316 27.8909 45.9503 30.0781 43.7876C32.978 40.9123 34.428 37.4472 34.428 33.4168C34.428 29.7059 33.0272 26.2654 30.3976 23.4884C27.5469 20.4656 24.3521 18.9911 20.2971 18.8436C18.9455 18.7945 17.3972 18.8682 16.8566 18.9911ZM17.471 21.08C17.471 21.1537 17.0286 22.0876 16.4879 23.1689C15.3329 25.4544 14.3499 28.6738 14.1287 30.9101L13.9567 32.5075H10.4424H6.92811L7.05098 31.6966C7.9357 26.7569 10.9585 23.0952 15.5541 21.4486C16.8811 20.9571 17.471 20.8588 17.471 21.08ZM25.2859 22.0876C28.9477 23.857 31.7001 27.5925 32.2899 31.5737L32.4374 32.5075H28.9231H25.4088L25.2614 31.0822C25.0156 28.7229 24.1555 25.8722 23.0004 23.4638C22.386 22.1859 21.8945 21.1046 21.8945 21.0308C21.8945 20.7605 23.6148 21.3012 25.2859 22.0876ZM21.1327 23.9553C22.386 26.5603 22.9758 28.3789 23.3199 31.0084L23.5411 32.5075H19.6827H15.8244L16.0456 31.0084C16.1439 30.1729 16.4142 28.8212 16.6108 27.9857C17.0286 26.3883 19.3387 21.4486 19.6827 21.4486C19.8056 21.4486 20.4446 22.5791 21.1327 23.9553ZM14.1041 36.1201C14.3745 38.8726 15.7998 43.0995 17.1269 45.1393L17.7659 46.0977L16.832 45.9257C16.2913 45.8274 15.0626 45.3605 14.0796 44.8935C10.4424 43.1487 7.66537 39.4132 7.07556 35.3829L6.92811 34.4736H10.4424H13.9567L14.1041 36.1201ZM23.3199 36.1201C23.197 37.0294 22.7792 38.7497 22.4106 39.9047C21.6979 42.0919 20.076 45.2867 19.6827 45.2867C19.2895 45.2867 17.6676 42.0919 16.9549 39.9047C16.5862 38.7497 16.1685 37.0294 16.0456 36.1201L15.8244 34.4736H19.6827H23.5411L23.3199 36.1201ZM32.2899 35.3829C31.7001 39.4132 28.9231 43.1487 25.2859 44.8935C24.3029 45.3605 23.0496 45.8274 22.5335 45.9257L21.5751 46.0977L22.1403 45.3113C23.4674 43.4436 25.0156 38.7988 25.2859 35.8744L25.4088 34.4736H28.9231H32.4374L32.2899 35.3829Z" fill="black"/>
<path d="M10.8359 53.1508V54.1338H18.2086H25.5812V53.1508V52.1678H18.2086H10.8359V53.1508Z" fill="black"/>
<path d="M27.5508 53.1508V54.1338H28.5338H29.5168V53.1508V52.1678H28.5338H27.5508V53.1508Z" fill="black"/>
<path d="M10.8359 57.0829V58.0659H11.819H12.802V57.0829V56.0999H11.819H10.8359V57.0829Z" fill="black"/>
<path d="M14.7695 57.0829V58.0659H22.1422H29.5148V57.0829V56.0999H22.1422H14.7695V57.0829Z" fill="black"/>
</svg>
