<svg width="77" height="58" viewBox="0 0 77 58" fill="none" xmlns="http://www.w3.org/2000/svg">
<path d="M12.3807 17.7871L12.3808 17.787C12.5553 17.3565 12.7546 17.0758 12.9844 16.8985C13.2 16.7322 13.5238 16.5938 14.076 16.5938H24.7554C25.4708 16.5938 25.8567 16.7474 26.0883 16.9149C26.3238 17.0853 26.5169 17.3544 26.691 17.8065L31.7372 30.9117C31.7372 30.9117 31.7372 30.9117 31.7372 30.9117C32.1116 31.8844 31.6245 32.9821 30.6526 33.3569C30.4316 33.4418 30.2033 33.484 29.9718 33.484C29.948 33.484 29.9232 33.4835 29.897 33.4824L29.896 33.4824C29.1411 33.4519 28.4783 32.977 28.2067 32.2715L27.6756 30.8923L25.7424 31.2516V54.8155C25.7424 56.0191 24.7615 57 23.5576 57C22.3537 57 21.3728 56.0191 21.3728 54.8155V38.982V37.982H20.3728H18.9717H17.9717V38.982V54.8155C17.9717 56.0191 16.9908 57 15.7872 57C14.5833 57 13.6024 56.0191 13.6024 54.8155V46.5657V45.5726L12.6092 45.5658L1.64078 45.4905H1.64056C1.46969 45.4894 1.31139 45.4235 1.18706 45.2977C1.06267 45.1715 0.998826 45.0122 1.00002 44.8413L1.00002 44.8412L1.05276 37.1658C1.05276 37.1657 1.05276 37.1657 1.05276 37.1657C1.05523 36.8151 1.34518 36.5265 1.6949 36.5251C1.69579 36.5251 1.69668 36.5251 1.69756 36.5251L3.94708 36.5405L5.0283 36.5478L4.99704 36.1096L5.06562 36.548L5.91542 36.5538L10.3761 36.5843L11.2244 36.5901L11.3007 36.1469L11.2626 36.59L12.3444 36.5978L12.4642 36.5987L13.4715 36.6061V35.5987V30.285L11.5448 29.9091L10.606 32.2228L10.6058 32.2233C10.5908 32.2604 10.5728 32.3004 10.5513 32.3445L10.2666 32.928L10.279 32.9429L9.62954 33.2352C9.39953 33.3387 9.15146 33.3975 8.89534 33.4032L8.89114 33.4033C8.87815 33.4036 8.86508 33.4038 8.85221 33.4038C8.60931 33.4038 8.37138 33.3575 8.14168 33.2644C7.9164 33.1728 7.71577 33.0412 7.54463 32.8774L7.03622 32.3908L7.05079 32.3825L6.97401 31.7278C6.93757 31.417 6.97846 31.1007 7.1004 30.8001C7.10041 30.8 7.10042 30.8 7.10044 30.8L12.3807 17.7871Z" stroke="black" stroke-width="2"/>
<path d="M13.6055 7.28865V7.28861C13.6055 3.82169 16.4268 1 19.8922 1C23.3589 1 26.181 3.82196 26.181 7.28861C26.181 10.7553 23.3589 13.5772 19.8922 13.5772C16.4266 13.5772 13.6053 10.7555 13.6055 7.28865Z" stroke="black" stroke-width="2"/>
<path d="M71.5444 36.0964L71.4729 36.5478L70.6248 36.5537L66.1641 36.5843L65.3158 36.5902L65.2378 36.1374L65.2762 36.5896L64.196 36.5977L64.0796 36.5986L63.0721 36.6061V35.5986V30.3379L64.9987 29.962L65.9035 32.1922C65.9036 32.1923 65.9036 32.1924 65.9036 32.1924C65.9216 32.2366 65.9439 32.2848 65.972 32.3399L66.2716 32.9274L66.2626 32.9382L66.9062 33.2166C67.1281 33.3126 67.3674 33.3671 67.615 33.3728L67.6188 33.3729C67.6316 33.3733 67.6447 33.3734 67.6576 33.3734C67.9002 33.3734 68.1382 33.3271 68.3681 33.2341L71.5444 36.0964ZM71.5444 36.0964L71.5123 36.5476L72.5934 36.5403L74.8316 36.5251C74.8325 36.5251 74.8333 36.5251 74.8342 36.5251C75.1997 36.5264 75.4853 36.8194 75.4877 37.1655C75.4877 37.1656 75.4877 37.1656 75.4877 37.1656L75.5404 44.8407L71.5444 36.0964ZM69.4619 32.3739L69.4538 32.3693L69.5346 31.7057C69.5729 31.391 69.5324 31.0717 69.4098 30.7698L69.4097 30.7696L64.1293 17.7568L64.1292 17.7566C63.978 17.3838 63.7654 17.0924 63.4966 16.8943C63.2362 16.7026 62.8662 16.5557 62.3161 16.5557H51.766C51.1047 16.5557 50.7192 16.7005 50.4744 16.8721C50.2273 17.0453 50.0223 17.3167 49.8492 17.7512L49.8491 17.7513L44.6502 30.7966L44.6502 30.7967C44.2643 31.7648 44.7387 32.8684 45.7066 33.2546C45.9333 33.3446 46.1683 33.3894 46.4077 33.3894C46.4283 33.3894 46.4445 33.3892 46.4579 33.3888L46.461 33.3887C47.2166 33.3669 47.8849 32.8995 48.1646 32.1977L48.1646 32.1976L48.8656 30.4385L50.7946 30.81L50.7616 54.8153C50.7616 54.8155 50.7616 54.8158 50.7616 54.816C50.7619 56.0192 51.7427 56.9999 52.9464 56.9999C54.1503 56.9999 55.1312 56.0189 55.1312 54.8153V38.3873V37.3873H56.1312H57.5688H58.5688V38.3873V54.8152C58.5688 56.0188 59.5497 56.9997 60.7533 56.9997C61.9572 56.9997 62.9381 56.0187 62.9381 54.8152V46.5654V45.5723L63.9312 45.5655L74.8995 45.4902H74.8998C75.071 45.4891 75.2294 45.423 75.3537 45.297C75.4775 45.1714 75.5415 45.0122 75.5404 44.8409L69.4619 32.3739ZM69.4619 32.3739L68.9609 32.8507C68.7901 33.0133 68.5911 33.1435 68.3684 33.2339L69.4619 32.3739Z" stroke="black" stroke-width="2"/>
<path d="M62.9388 7.28861C62.9388 10.7555 60.1174 13.5772 56.652 13.5772C53.1853 13.5772 50.3633 10.7553 50.3633 7.28861C50.3633 3.82196 53.1853 1 56.652 1C60.1174 1 62.9388 3.82169 62.9388 7.28861Z" stroke="black" stroke-width="2"/>
<path d="M39.3819 16.5993L39.3765 15.6046H38.3819H32.3692C32.1995 15.6046 32.0624 15.4673 32.0625 15.2981V15.2977C32.0625 15.1281 32.1998 14.9909 32.3693 14.9909H38.3681H39.3735L39.3681 13.9855L39.365 13.419L42.666 15.2756L39.385 17.1677L39.3819 16.5993Z" stroke="black" stroke-width="2"/>
<mask id="path-6-inside-1_704_2067" fill="white">
<path d="M44.6587 22.165C44.6587 21.4432 44.0737 20.8582 43.3518 20.8582H37.3388L37.3323 19.6463C37.3301 19.2548 37.1095 18.9917 36.7833 18.9917C36.6579 18.9917 36.5267 19.0306 36.3936 19.1074L31.9716 21.6575C31.7345 21.7941 31.6045 21.985 31.6055 22.195C31.6065 22.4049 31.7386 22.5944 31.9773 22.7286L36.4265 25.231C36.558 25.3049 36.6874 25.3426 36.8108 25.3426C36.9548 25.3426 37.0825 25.2911 37.1794 25.1936C37.298 25.0743 37.3602 24.8975 37.359 24.6822L37.3525 23.4721H43.3516C44.0735 23.4718 44.6587 22.8869 44.6587 22.165Z"/>
</mask>
<path d="M37.3388 20.8582L35.3388 20.869L35.3496 22.8582H37.3388V20.8582ZM37.3323 19.6463L39.3322 19.6355L39.3322 19.6351L37.3323 19.6463ZM36.3936 19.1074L35.3949 17.3746L35.3945 17.3748L36.3936 19.1074ZM31.9716 21.6575L32.9698 23.3906L32.9708 23.39L31.9716 21.6575ZM31.9773 22.7286L32.9577 20.9854L32.9577 20.9854L31.9773 22.7286ZM36.4265 25.231L37.4069 23.4878L37.4069 23.4878L36.4265 25.231ZM37.1794 25.1936L38.5979 26.6036L38.5979 26.6035L37.1794 25.1936ZM37.359 24.6822L39.359 24.6714V24.6714L37.359 24.6822ZM37.3525 23.4721V21.4721H35.3416L35.3525 23.4829L37.3525 23.4721ZM43.3516 23.4721V25.4721H43.3524L43.3516 23.4721ZM46.6587 22.165C46.6587 20.3386 45.1783 18.8582 43.3518 18.8582V22.8582C42.9691 22.8582 42.6587 22.5477 42.6587 22.165H46.6587ZM43.3518 18.8582H37.3388V22.8582H43.3518V18.8582ZM39.3388 20.8474L39.3322 19.6355L35.3323 19.6571L35.3388 20.869L39.3388 20.8474ZM39.3322 19.6351C39.3291 19.0788 39.169 18.4323 38.7119 17.8872C38.2292 17.3116 37.5278 16.9917 36.7833 16.9917V20.9917C36.3651 20.9917 35.937 20.8034 35.6468 20.4572C35.382 20.1415 35.3332 19.8223 35.3323 19.6574L39.3322 19.6351ZM36.7833 16.9917C36.2364 16.9917 35.7637 17.162 35.3949 17.3746L37.3924 20.8401C37.2898 20.8993 37.0795 20.9917 36.7833 20.9917V16.9917ZM35.3945 17.3748L30.9725 19.9249L32.9708 23.39L37.3928 20.8399L35.3945 17.3748ZM30.9734 19.9244C30.3307 20.2946 29.5999 21.0562 29.6055 22.2046L33.6055 22.1853C33.609 22.9138 33.1383 23.2935 32.9698 23.3906L30.9734 19.9244ZM29.6055 22.2046C29.6111 23.3551 30.3516 24.109 30.9969 24.4719L32.9577 20.9854C33.1255 21.0798 33.6019 21.4547 33.6055 22.1853L29.6055 22.2046ZM30.9969 24.4718L35.4461 26.9742L37.4069 23.4878L32.9577 20.9854L30.9969 24.4718ZM35.446 26.9742C35.81 27.1789 36.2747 27.3426 36.8108 27.3426V23.3426C37.1002 23.3426 37.3059 23.431 37.4069 23.4878L35.446 26.9742ZM36.8108 27.3426C37.4565 27.3426 38.1044 27.1 38.5979 26.6036L35.761 23.7836C36.0606 23.4822 36.453 23.3426 36.8108 23.3426V27.3426ZM38.5979 26.6035C39.1884 26.0095 39.3622 25.2636 39.359 24.6714L35.359 24.693C35.3582 24.5314 35.4076 24.1392 35.7609 23.7837L38.5979 26.6035ZM39.359 24.6714L39.3524 23.4613L35.3525 23.4829L35.359 24.693L39.359 24.6714ZM37.3525 25.4721H43.3516V21.4721H37.3525V25.4721ZM43.3524 25.4721C45.1777 25.4714 46.6587 23.992 46.6587 22.165H42.6587C42.6587 21.7817 42.9694 21.4723 43.3507 21.4721L43.3524 25.4721Z" fill="black" mask="url(#path-6-inside-1_704_2067)"/>
</svg>
