<svg width="15" height="8" viewBox="0 0 15 8" fill="none" xmlns="http://www.w3.org/2000/svg">
<path d="M0.330173 0.725289C0.541647 0.540086 0.828428 0.436044 1.12745 0.436044C1.42648 0.436044 1.71326 0.540086 1.92473 0.725289L7.50681 5.61541L13.0889 0.725289C13.3016 0.545334 13.5864 0.445759 13.8821 0.44801C14.1778 0.450261 14.4606 0.554158 14.6697 0.737323C14.8788 0.920488 14.9974 1.16827 15 1.42729C15.0025 1.68632 14.8889 1.93586 14.6834 2.12218L8.30409 7.71076C8.09261 7.89596 7.80583 8 7.50681 8C7.20778 8 6.921 7.89596 6.70953 7.71076L0.330173 2.12218C0.118763 1.93693 0 1.68569 0 1.42374C0 1.16178 0.118763 0.910548 0.330173 0.725289Z" fill="#684BFE"/>
</svg>
