<svg width="16" height="16" viewBox="0 0 16 16" fill="none" xmlns="http://www.w3.org/2000/svg">
<path d="M12 1.33333C12 0.979711 11.8595 0.640573 11.6095 0.390524C11.3594 0.140476 11.0203 0 10.6667 0L1.33333 0C0.979711 0 0.640573 0.140476 0.390524 0.390524C0.140476 0.640573 0 0.979711 0 1.33333L0 12C0 12.3536 0.140476 12.6928 0.390524 12.9428C0.640573 13.1929 0.979711 13.3333 1.33333 13.3333H6V6C6 5.64638 6.14048 5.30724 6.39052 5.05719C6.64057 4.80714 6.97971 4.66667 7.33333 4.66667H12V1.33333Z" fill="#684BFE"/>
<path d="M15.3333 6.66602H8.66667C8.29848 6.66602 8 6.96449 8 7.33268V15.3327C8 15.7009 8.29848 15.9993 8.66667 15.9993H15.3333C15.7015 15.9993 16 15.7009 16 15.3327V7.33268C16 6.96449 15.7015 6.66602 15.3333 6.66602Z" fill="#684BFE"/>
</svg>
