<svg width="24" height="24" viewBox="0 0 24 24" fill="none" xmlns="http://www.w3.org/2000/svg">
<path d="M18.9995 4C19.2859 4 19.5242 4.09504 19.7142 4.28512C19.9043 4.4752 19.9994 4.71344 19.9994 4.99984C19.9994 5.28112 19.903 5.51808 19.7104 5.71072L13.4133 11.9997L19.7104 18.2886C19.903 18.4813 19.9994 18.7182 19.9994 18.9995C19.9994 19.2859 19.9043 19.5242 19.7142 19.7142C19.5242 19.9043 19.2859 19.9994 18.9995 19.9994C18.7182 19.9994 18.4813 19.903 18.2886 19.7104L11.9997 13.4133L5.71072 19.7104C5.51808 19.903 5.28112 19.9994 4.99984 19.9994C4.71344 19.9994 4.4752 19.9043 4.28512 19.7142C4.09504 19.5242 4 19.2859 4 18.9995C4 18.7182 4.09632 18.4813 4.28896 18.2886L10.5861 11.9997L4.28896 5.71072C4.09632 5.51808 4 5.28112 4 4.99984C4 4.71344 4.09504 4.4752 4.28512 4.28512C4.4752 4.09504 4.71344 4 4.99984 4C5.28112 4 5.51808 4.09632 5.71072 4.28896L11.9997 10.5861L18.2886 4.28896C18.4813 4.09632 18.7182 4 18.9995 4Z" fill="#7962FE"/>
</svg>
