 <svg xmlns="http://www.w3.org/2000/svg" width="13" height="14" viewBox="0 0 13 14" fill="none"><g clip-path="url(#clip0_4271_24681)"><path d="M11.375 5.91537H1.625M8.66667 1.58203V3.7487M4.33333 1.58203V3.7487M4.225 12.4154H8.775C9.685 12.4154 10.14 12.4154 10.4878 12.2382C10.7935 12.0824 11.0421 11.8339 11.1979 11.5281C11.375 11.1804 11.375 10.7254 11.375 9.81537V5.26537C11.375 4.35537 11.375 3.90036 11.1979 3.55261C11.0421 3.24687 10.7935 2.99828 10.4878 2.84249C10.14 2.66536 9.685 2.66536 8.775 2.66536H4.225C3.315 2.66536 2.86 2.66536 2.51225 2.84249C2.2065 2.99828 1.95792 3.24687 1.80212 3.55261C1.625 3.90036 1.625 4.35537 1.625 5.26537V9.81537C1.625 10.7254 1.625 11.1804 1.80212 11.5281C1.95792 11.8339 2.2065 12.0824 2.51225 12.2382C2.86 12.4154 3.315 12.4154 4.225 12.4154Z" stroke="white" stroke-width="1.5" stroke-linecap="round" stroke-linejoin="round"/></g><defs><clipPath id="clip0_4271_24681"><rect width="13" height="13" fill="white" transform="translate(0 0.5)"/></clipPath></defs></svg>