<svg width="40" height="40" viewBox="0 0 40 40" fill="none" xmlns="http://www.w3.org/2000/svg">
<path d="M30 21.666V23.3327" stroke="white" stroke-width="2" stroke-linecap="round" stroke-linejoin="round"/>
<path d="M20 20V30" stroke="white" stroke-width="2" stroke-linecap="round" stroke-linejoin="round"/>
<path d="M11.3917 14.9277C10.4811 16.4628 10.0004 18.2146 10 19.9994V23.3327" stroke="white" stroke-width="2" stroke-linecap="round" stroke-linejoin="round"/>
<path d="M29.4164 16.6671C28.928 15.2755 28.1369 14.0097 27.1002 12.9609C26.0635 11.912 24.807 11.1062 23.4212 10.6016C22.0355 10.0971 20.5551 9.90623 19.0867 10.0429C17.6183 10.1796 16.1985 10.6404 14.9297 11.3921" stroke="white" stroke-width="2" stroke-linecap="round" stroke-linejoin="round"/>
<path d="M25 28.3327V20.2827C25.0284 18.9662 24.5555 17.6881 23.677 16.7072C22.7985 15.7262 21.58 15.1158 20.2683 14.9994C19.5895 14.9629 18.9104 15.0652 18.2724 15.3001C17.6345 15.535 17.0511 15.8975 16.558 16.3655C16.0649 16.8335 15.6725 17.3971 15.4046 18.0219C15.1367 18.6467 14.999 19.3196 15 19.9994V21.6661" stroke="white" stroke-width="2" stroke-linecap="round" stroke-linejoin="round"/>
<path d="M15 26.666V28.3327" stroke="white" stroke-width="2" stroke-linecap="round" stroke-linejoin="round"/>
<path d="M26.6667 5H13.3333C8.73096 5 5 8.73096 5 13.3333V26.6667C5 31.269 8.73096 35 13.3333 35H26.6667C31.269 35 35 31.269 35 26.6667V13.3333C35 8.73096 31.269 5 26.6667 5Z" stroke="white" stroke-width="2" stroke-linecap="round" stroke-linejoin="round"/>
</svg>
