<svg width="64" height="64" viewBox="0 0 64 64" fill="none" xmlns="http://www.w3.org/2000/svg">
<g filter="url(#filter0_b_5896_29419)">
<rect width="64" height="64" rx="15.7599" fill="#F8F6FF"/>
</g>
<g opacity="0.8">
<path d="M47.8774 28.6675L47.8307 28.5481L43.3079 16.7445C43.2158 16.5131 43.0529 16.3169 42.8424 16.1839C42.6318 16.0531 42.3862 15.9902 42.1386 16.0035C41.8911 16.0168 41.6536 16.1057 41.4582 16.2583C41.265 16.4152 41.1249 16.6279 41.0568 16.8673L38.003 26.2106H25.637L22.5831 16.8673C22.5169 16.6266 22.3764 16.4128 22.1817 16.2565C21.9863 16.104 21.7489 16.0151 21.5013 16.0017C21.2538 15.9884 21.0081 16.0514 20.7975 16.1821C20.5875 16.3157 20.4247 16.5118 20.3321 16.7427L15.8006 28.5412L15.7556 28.6606C15.1046 30.3617 15.0242 32.2285 15.5267 33.9793C16.0291 35.7301 17.0872 37.2702 18.5413 38.3672L18.5569 38.3793L18.5984 38.4087L25.4882 43.5682L28.8968 46.148L30.973 47.7156C31.2159 47.9 31.5124 47.9998 31.8174 47.9998C32.1223 47.9998 32.4189 47.9 32.6617 47.7156L34.738 46.148L38.1466 43.5682L45.0779 38.3776L45.0952 38.3637C46.546 37.2665 47.6016 35.7281 48.1033 33.9796C48.605 32.2311 48.5257 30.367 47.8774 28.6675Z" fill="#E24329"/>
<path d="M47.8907 28.6536L47.844 28.5342C45.6402 28.9865 43.5635 29.92 41.7622 31.2679L31.829 38.7789C35.2116 41.3379 38.1564 43.5612 38.1564 43.5612L45.0877 38.3705L45.105 38.3567C46.558 37.2595 47.6152 35.7201 48.1176 33.9701C48.62 32.2202 48.5404 30.3544 47.8907 28.6536Z" fill="#FC6D26"/>
<path d="M25.4852 43.5695L28.8938 46.1492L30.9701 47.7168C31.2129 47.9012 31.5095 48.0011 31.8144 48.0011C32.1193 48.0011 32.4159 47.9012 32.6588 47.7168L34.735 46.1492L38.1436 43.5695C38.1436 43.5695 35.1953 41.3392 31.8127 38.7871C28.4301 41.3392 25.4852 43.5695 25.4852 43.5695Z" fill="#FCA326"/>
<path d="M21.8807 31.2749C20.0809 29.9242 18.0046 28.9882 15.8006 28.5342L15.7556 28.6536C15.1046 30.3547 15.0242 32.2215 15.5267 33.9723C16.0291 35.7231 17.0872 37.2632 18.5413 38.3602L18.5569 38.3723L18.5984 38.4017L25.4882 43.5612C25.4882 43.5612 28.4296 41.3379 31.8157 38.7789L21.8807 31.2749Z" fill="#FC6D26"/>
</g>
<defs>
<filter id="filter0_b_5896_29419" x="-31.5198" y="-31.5198" width="127.04" height="127.04" filterUnits="userSpaceOnUse" color-interpolation-filters="sRGB">
<feFlood flood-opacity="0" result="BackgroundImageFix"/>
<feGaussianBlur in="BackgroundImageFix" stdDeviation="15.7599"/>
<feComposite in2="SourceAlpha" operator="in" result="effect1_backgroundBlur_5896_29419"/>
<feBlend mode="normal" in="SourceGraphic" in2="effect1_backgroundBlur_5896_29419" result="shape"/>
</filter>
</defs>
</svg>
