<svg width="24" height="24" viewBox="0 0 24 24" fill="none" xmlns="http://www.w3.org/2000/svg">
<g id="Location">
<path id="Vector" d="M12 13.168C12.663 13.168 13.2989 12.9046 13.7678 12.4357C14.2366 11.9669 14.5 11.331 14.5 10.668C14.5 10.0049 14.2366 9.36904 13.7678 8.9002C13.2989 8.43136 12.663 8.16797 12 8.16797C11.337 8.16797 10.7011 8.43136 10.2322 8.9002C9.76339 9.36904 9.5 10.0049 9.5 10.668C9.5 11.331 9.76339 11.9669 10.2322 12.4357C10.7011 12.9046 11.337 13.168 12 13.168Z" stroke="#684BFE" stroke-width="1.5" stroke-linecap="round" stroke-linejoin="round"/>
<path id="Vector_2" d="M11.9987 20.6667C15.332 17.3333 18.6654 14.3483 18.6654 10.6667C18.6654 8.89856 17.963 7.20286 16.7127 5.95262C15.4625 4.70238 13.7668 4 11.9987 4C10.2306 4 8.5349 4.70238 7.28465 5.95262C6.03441 7.20286 5.33203 8.89856 5.33203 10.6667C5.33203 14.3483 8.66536 17.3333 11.9987 20.6667Z" stroke="#684BFE" stroke-width="1.5" stroke-linecap="round" stroke-linejoin="round"/>
</g>
</svg>
