<svg width="64" height="64" viewBox="0 0 64 64" fill="none" xmlns="http://www.w3.org/2000/svg">
<circle cx="32" cy="32" r="32" fill="#F2F0FF"/>
<path fill-rule="evenodd" clip-rule="evenodd" d="M29.6665 24.3359L29.6965 24.3559L38.4873 30.2176C38.7415 30.3867 38.9773 30.5442 39.1581 30.6901C39.3473 30.8426 39.5706 31.0542 39.699 31.3634C39.7829 31.5657 39.826 31.7827 39.826 32.0017C39.826 32.2208 39.7829 32.4377 39.699 32.6401C39.5706 32.9492 39.3473 33.1609 39.1581 33.3134C38.9773 33.4592 38.7415 33.6167 38.4873 33.7859L29.6665 39.6659C29.3556 39.8726 29.0765 40.0592 28.839 40.1884C28.6015 40.3167 28.2756 40.4634 27.8956 40.4409C27.6552 40.4265 27.4208 40.3603 27.2084 40.2466C26.9961 40.133 26.8109 39.9746 26.6656 39.7826C26.4356 39.4792 26.3773 39.1259 26.3523 38.8576C26.3281 38.5884 26.3281 38.2526 26.3281 37.8792V26.1592V26.1234C26.3281 25.7492 26.3281 25.4134 26.3531 25.1442C26.3773 24.8759 26.4365 24.5234 26.6656 24.2192C26.8109 24.0271 26.9961 23.8688 27.2084 23.7552C27.4208 23.6415 27.6552 23.5752 27.8956 23.5609C28.2756 23.5384 28.6015 23.6859 28.839 23.8142C29.0765 23.9426 29.3556 24.1292 29.6665 24.3359Z" fill="#684BFE"/>
</svg>
