<svg width="64" height="64" viewBox="0 0 64 64" fill="none" xmlns="http://www.w3.org/2000/svg">
<g filter="url(#filter0_b_5896_29411)">
<rect width="64" height="64" rx="15.7599" fill="#F8F6FF"/>
</g>
<path d="M16.1077 17.2852C15.9507 17.2832 15.7952 17.3156 15.6521 17.3801C15.5089 17.4445 15.3816 17.5396 15.2791 17.6585C15.1766 17.7774 15.1014 17.9173 15.0587 18.0684C15.016 18.2194 15.0069 18.378 15.0321 18.533L19.5982 46.2525C19.6551 46.5917 19.8297 46.9 20.0913 47.1233C20.3529 47.3466 20.6849 47.4705 21.0288 47.4734H42.9344C43.1923 47.4767 43.4427 47.3873 43.6401 47.2215C43.8376 47.0556 43.9689 46.8244 44.0101 46.5698L48.5762 18.5384C48.6014 18.3834 48.5923 18.2248 48.5496 18.0737C48.5069 17.9227 48.4317 17.7828 48.3292 17.6639C48.2266 17.5449 48.0994 17.4499 47.9562 17.3854C47.8131 17.321 47.6576 17.2886 47.5006 17.2906L16.1077 17.2852ZM35.335 37.3192H28.3432L26.4501 27.4286H37.0291L35.335 37.3192Z" fill="#2684FF"/>
<path d="M47.1224 27.4297H37.0274L35.3333 37.3203H28.3416L20.0859 47.1195C20.3476 47.3457 20.6812 47.4716 21.0271 47.4744H42.9381C43.196 47.4778 43.4464 47.3883 43.6438 47.2225C43.8413 47.0567 43.9725 46.8254 44.0138 46.5709L47.1224 27.4297Z" fill="url(#paint0_linear_5896_29411)"/>
<defs>
<filter id="filter0_b_5896_29411" x="-31.5198" y="-31.5198" width="127.04" height="127.04" filterUnits="userSpaceOnUse" color-interpolation-filters="sRGB">
<feFlood flood-opacity="0" result="BackgroundImageFix"/>
<feGaussianBlur in="BackgroundImageFix" stdDeviation="15.7599"/>
<feComposite in2="SourceAlpha" operator="in" result="effect1_backgroundBlur_5896_29411"/>
<feBlend mode="normal" in="SourceGraphic" in2="effect1_backgroundBlur_5896_29411" result="shape"/>
</filter>
<linearGradient id="paint0_linear_5896_29411" x1="49.4566" y1="30.1995" x2="32.7732" y2="43.2202" gradientUnits="userSpaceOnUse">
<stop offset="0.18" stop-color="#0052CC"/>
<stop offset="1" stop-color="#2684FF"/>
</linearGradient>
</defs>
</svg>
