<svg width="32" height="32" viewBox="0 0 32 32" fill="none" xmlns="http://www.w3.org/2000/svg">
<g clip-path="url(#clip0_1416_6015)">
<path d="M0 0H32V32H0V0Z" fill="#F0DB4F"/>
<path d="M29.3815 24.3689C29.1473 22.9088 28.1952 21.683 25.3754 20.5393C24.3959 20.0891 23.3039 19.7667 22.9784 19.0244C22.8628 18.5925 22.8476 18.3492 22.9206 18.0876C23.1305 17.2389 24.1434 16.9742 24.9465 17.2176C25.4636 17.391 25.9533 17.7895 26.2484 18.4252C27.6294 17.5309 27.6263 17.537 28.5906 16.9226C28.2377 16.375 28.0492 16.1225 27.818 15.8883C26.9876 14.9606 25.856 14.483 24.0461 14.5195C23.7328 14.5591 23.4165 14.6016 23.1031 14.6412C22.1998 14.8693 21.3389 15.3439 20.8339 15.9796C19.3191 17.6982 19.7511 20.7066 21.5944 21.9446C23.4104 23.3074 26.0781 23.6176 26.4187 24.8921C26.7503 26.4526 25.272 26.9575 23.8028 26.7781C22.7199 26.553 22.1176 26.0024 21.4666 25.0017C20.2682 25.6952 20.2682 25.6952 19.0363 26.4039C19.3283 27.0427 19.6355 27.3317 20.1252 27.8853C22.4431 30.2366 28.2438 30.121 29.2842 26.5621C29.3267 26.4404 29.6066 25.6252 29.3815 24.3689ZM17.3967 14.7081H14.4035C14.4035 17.2936 14.3914 19.8609 14.3914 22.4465C14.3914 24.0921 14.4766 25.6009 14.2089 26.0632C13.7709 26.9727 12.6363 26.8602 12.1191 26.6837C11.5929 26.4252 11.3252 26.0571 11.015 25.537C10.9298 25.3879 10.8659 25.2723 10.8446 25.2632C10.0325 25.759 9.2233 26.2579 8.41113 26.7537C8.81573 27.5841 9.41189 28.305 10.1754 28.7735C11.3161 29.4579 12.8492 29.6678 14.4522 29.2997C15.4956 28.9955 16.3959 28.3659 16.8674 27.4077C17.5488 26.1514 17.4028 24.6305 17.3967 22.9484C17.4119 20.2047 17.3967 17.4609 17.3967 14.7081Z" fill="#323330"/>
</g>
<defs>
<clipPath id="clip0_1416_6015">
<rect width="32" height="32" fill="white"/>
</clipPath>
</defs>
</svg>
