<svg width="21" height="20" viewBox="0 0 21 20" fill="none" xmlns="http://www.w3.org/2000/svg">
<path d="M10.3359 10.8359C10.999 10.8359 11.6349 10.5725 12.1037 10.1037C12.5725 9.63486 12.8359 8.99898 12.8359 8.33594C12.8359 7.6729 12.5725 7.03701 12.1037 6.56817C11.6349 6.09933 10.999 5.83594 10.3359 5.83594C9.6729 5.83594 9.03701 6.09933 8.56817 6.56817C8.09933 7.03701 7.83594 7.6729 7.83594 8.33594C7.83594 8.99898 8.09933 9.63486 8.56817 10.1037C9.03701 10.5725 9.6729 10.8359 10.3359 10.8359Z" stroke="#684BFE" stroke-width="1.5" stroke-linecap="round" stroke-linejoin="round"/>
<path d="M10.3346 18.3346C13.668 15.0013 17.0013 12.0163 17.0013 8.33464C17.0013 6.56653 16.2989 4.87083 15.0487 3.62059C13.7984 2.37035 12.1027 1.66797 10.3346 1.66797C8.56653 1.66797 6.87083 2.37035 5.62059 3.62059C4.37035 4.87083 3.66797 6.56653 3.66797 8.33464C3.66797 12.0163 7.0013 15.0013 10.3346 18.3346Z" stroke="#684BFE" stroke-width="1.5" stroke-linecap="round" stroke-linejoin="round"/>
</svg>
