<svg width="68" height="41" viewBox="0 0 68 41" fill="none" xmlns="http://www.w3.org/2000/svg">
<g clip-path="url(#clip0_6156_866)">
<path d="M19.6479 15.0938C19.6479 15.907 19.7358 16.5664 19.8897 17.0499C20.0655 17.5334 20.2853 18.0609 20.593 18.6323C20.7029 18.8081 20.7468 18.9839 20.7468 19.1378C20.7468 19.3576 20.615 19.5774 20.3292 19.7971L18.9446 20.7202C18.7468 20.8521 18.549 20.918 18.3732 20.918C18.1534 20.918 17.9336 20.8081 17.7139 20.6103C17.4062 20.2806 17.1424 19.929 16.9226 19.5774C16.7029 19.2037 16.4831 18.7861 16.2413 18.2806C14.527 20.3026 12.3732 21.3136 9.77979 21.3136C7.93364 21.3136 6.46111 20.7861 5.38419 19.7312C4.30726 18.6763 3.75781 17.2697 3.75781 15.5114C3.75781 13.6433 4.41715 12.1268 5.75781 10.9839C7.09847 9.84109 8.87869 9.26966 11.1424 9.26966C11.8897 9.26966 12.6589 9.33559 13.4721 9.44548C14.2853 9.55537 15.1205 9.7312 15.9996 9.929V8.3246C15.9996 6.65427 15.6479 5.48944 14.9666 4.80812C14.2633 4.1268 13.0765 3.79713 11.3842 3.79713C10.615 3.79713 9.82375 3.88504 9.01056 4.08285C8.19737 4.28065 7.40616 4.52241 6.63693 4.8301C6.28529 4.98395 6.02155 5.07186 5.8677 5.11581C5.71386 5.15977 5.60397 5.18175 5.51605 5.18175C5.20836 5.18175 5.05452 4.96197 5.05452 4.50043V3.42351C5.05452 3.07186 5.09847 2.80812 5.20836 2.65428C5.31825 2.50043 5.51605 2.34658 5.82375 2.19274C6.59298 1.79713 7.51605 1.46746 8.59298 1.20373C9.6699 0.918012 10.8128 0.786144 12.0215 0.786144C14.6369 0.786144 16.549 1.37955 17.7798 2.56636C18.9886 3.75318 19.604 5.55537 19.604 7.97296V15.0938H19.6479ZM10.7248 18.4345C11.4501 18.4345 12.1974 18.3026 12.9886 18.0389C13.7798 17.7752 14.4831 17.2916 15.0765 16.6323C15.4281 16.2147 15.6919 15.7532 15.8237 15.2257C15.9556 14.6982 16.0435 14.0609 16.0435 13.3136V12.3905C15.4062 12.2367 14.7248 12.1048 14.0215 12.0169C13.3183 11.929 12.6369 11.885 11.9556 11.885C10.4831 11.885 9.40616 12.1708 8.68089 12.7642C7.95561 13.3576 7.60397 14.1927 7.60397 15.2916C7.60397 16.3246 7.8677 17.0938 8.41715 17.6213C8.94463 18.1708 9.71386 18.4345 10.7248 18.4345ZM28.3732 20.8081C27.9776 20.8081 27.7139 20.7422 27.538 20.5883C27.3622 20.4565 27.2084 20.1488 27.0765 19.7312L21.9117 2.74219C21.7798 2.30263 21.7139 2.01691 21.7139 1.86307C21.7139 1.51142 21.8897 1.31362 22.2413 1.31362H24.3952C24.8128 1.31362 25.0985 1.37955 25.2523 1.5334C25.4281 1.66526 25.56 1.97296 25.6919 2.39054L29.3842 16.94L32.8128 2.39054C32.9226 1.95098 33.0545 1.66526 33.2303 1.5334C33.4062 1.40153 33.7139 1.31362 34.1095 1.31362H35.8677C36.2853 1.31362 36.571 1.37955 36.7468 1.5334C36.9226 1.66526 37.0765 1.97296 37.1644 2.39054L40.6369 17.1158L44.4391 2.39054C44.571 1.95098 44.7248 1.66526 44.8787 1.5334C45.0545 1.40153 45.3402 1.31362 45.7358 1.31362H47.7798C48.1314 1.31362 48.3292 1.48944 48.3292 1.86307C48.3292 1.97296 48.3073 2.08285 48.2853 2.21472C48.2633 2.34658 48.2193 2.52241 48.1314 2.76417L42.8347 19.7532C42.7029 20.1927 42.549 20.4785 42.3732 20.6103C42.1974 20.7422 41.9117 20.8301 41.538 20.8301H39.6479C39.2303 20.8301 38.9446 20.7642 38.7688 20.6103C38.593 20.4565 38.4391 20.1708 38.3512 19.7312L34.9446 5.55537L31.56 19.7092C31.4501 20.1488 31.3183 20.4345 31.1424 20.5883C30.9666 20.7422 30.6589 20.8081 30.2633 20.8081H28.3732ZM56.615 21.4015C55.4721 21.4015 54.3292 21.2697 53.2303 21.0059C52.1314 20.7422 51.2743 20.4565 50.7029 20.1268C50.3512 19.929 50.1095 19.7092 50.0215 19.5114C49.9336 19.3136 49.8897 19.0938 49.8897 18.896V17.7752C49.8897 17.3136 50.0655 17.0938 50.3952 17.0938C50.527 17.0938 50.6589 17.1158 50.7908 17.1598C50.9226 17.2037 51.1204 17.2916 51.3402 17.3796C52.0875 17.7092 52.9007 17.973 53.7578 18.1488C54.6369 18.3246 55.4941 18.4125 56.3732 18.4125C57.7578 18.4125 58.8347 18.1708 59.582 17.6872C60.3292 17.2037 60.7248 16.5004 60.7248 15.5993C60.7248 14.9839 60.527 14.4785 60.1314 14.0609C59.7358 13.6433 58.9886 13.2697 57.9117 12.918L54.7248 11.929C53.1204 11.4235 51.9336 10.6763 51.2084 9.68724C50.4831 8.72021 50.1095 7.64329 50.1095 6.50043C50.1095 5.57735 50.3073 4.76417 50.7029 4.06087C51.0985 3.35757 51.6259 2.74219 52.2853 2.25867C52.9446 1.75318 53.6919 1.37955 54.571 1.11581C55.4501 0.852078 56.3732 0.742188 57.3402 0.742188C57.8237 0.742188 58.3292 0.764166 58.8128 0.8301C59.3183 0.896034 59.7798 0.983946 60.2413 1.07186C60.6809 1.18175 61.0985 1.29164 61.4941 1.42351C61.8897 1.55537 62.1974 1.68724 62.4172 1.81911C62.7248 1.99493 62.9446 2.17076 63.0765 2.36856C63.2084 2.54439 63.2743 2.78614 63.2743 3.09384V4.1268C63.2743 4.58834 63.0985 4.8301 62.7688 4.8301C62.593 4.8301 62.3073 4.74219 61.9336 4.56636C60.6809 3.99493 59.2743 3.70922 57.7139 3.70922C56.4611 3.70922 55.4721 3.90702 54.7908 4.3246C54.1095 4.74219 53.7578 5.37955 53.7578 6.28065C53.7578 6.89603 53.9776 7.42351 54.4172 7.84109C54.8567 8.25867 55.6699 8.67625 56.8347 9.04988L59.9556 10.0389C61.538 10.5444 62.6809 11.2477 63.3622 12.1488C64.0435 13.0499 64.3732 14.0828 64.3732 15.2257C64.3732 16.1708 64.1754 17.0279 63.8018 17.7752C63.4062 18.5224 62.8787 19.1817 62.1974 19.7092C61.5161 20.2587 60.7029 20.6543 59.7578 20.94C58.7688 21.2477 57.7358 21.4015 56.615 21.4015Z" fill="white"/>
<path fill-rule="evenodd" clip-rule="evenodd" d="M60.7706 32.0847C53.5399 37.4253 43.0344 40.2605 34.0014 40.2605C21.3421 40.2605 9.93548 35.5792 1.32009 27.7989C0.638776 27.1836 1.25416 26.3484 2.06735 26.8319C11.386 32.2385 22.8805 35.5132 34.7706 35.5132C42.7926 35.5132 51.6058 33.8429 59.7157 30.4143C60.9245 29.8649 61.9575 31.2055 60.7706 32.0847Z" fill="white"/>
<path fill-rule="evenodd" clip-rule="evenodd" d="M63.7805 28.6553C62.8575 27.4685 57.6706 28.0839 55.319 28.3696C54.6157 28.4575 54.5058 27.8421 55.1432 27.3806C59.275 24.4795 66.0663 25.3147 66.8575 26.2817C67.6487 27.2707 66.6377 34.0619 62.7696 37.3147C62.1761 37.8202 61.6047 37.5564 61.8685 36.8971C62.7476 34.7213 64.7036 29.8202 63.7805 28.6553Z" fill="white"/>
</g>
<defs>
<clipPath id="clip0_6156_866">
<rect width="66.8132" height="40" fill="white" transform="translate(0.660156 0.5)"/>
</clipPath>
</defs>
</svg>
