<?xml version="1.0" encoding="UTF-8"?>
<svg xmlns="http://www.w3.org/2000/svg" width="63" height="57" viewBox="0 0 63 57" fill="none">
  <path d="M2.02579 0.000166346C1.73392 -0.00359816 1.44475 0.0565735 1.1786 0.176457C0.912455 0.296341 0.675775 0.473031 0.48518 0.69412C0.294586 0.91521 0.154697 1.17534 0.0753356 1.45625C-0.00402565 1.73715 -0.0209356 2.03203 0.025793 2.32017L8.51579 53.8602C8.62157 54.4909 8.9462 55.0641 9.43266 55.4793C9.91912 55.8944 10.5363 56.1249 11.1758 56.1302H51.9058C52.3852 56.1363 52.8508 55.9701 53.2179 55.6617C53.585 55.3534 53.8291 54.9234 53.9058 54.4502L62.3958 2.33017C62.4425 2.04203 62.4256 1.74715 62.3462 1.46625C62.2669 1.18534 62.127 0.92521 61.9364 0.704121C61.7458 0.483031 61.5091 0.306341 61.243 0.186458C60.9768 0.0665737 60.6877 0.00640159 60.3958 0.0101661L2.02579 0.000166346ZM37.7758 37.2502H24.7758L21.2558 18.8602H40.9258L37.7758 37.2502Z" fill="white"></path>
  <path d="M59.6958 18.8594H40.9258L37.7758 37.2494H24.7758L9.42578 55.4694C9.91231 55.8901 10.5326 56.124 11.1758 56.1294H51.9158C52.3952 56.1355 52.8608 55.9693 53.2279 55.6609C53.595 55.3526 53.8391 54.9226 53.9158 54.4494L59.6958 18.8594Z" fill="white"></path>
</svg>
