<?xml version="1.0" encoding="UTF-8"?>
<svg xmlns="http://www.w3.org/2000/svg" width="64" height="62" viewBox="0 0 64 62" fill="none">
  <path d="M62.9371 24.3984L62.8471 24.1684L54.1359 1.4339C53.9587 0.988317 53.6448 0.610326 53.2395 0.354163C52.8338 0.102351 52.3607 -0.018929 51.8839 0.00669672C51.4072 0.0323224 50.9497 0.20362 50.5734 0.497462C50.2013 0.799739 49.9313 1.20934 49.8003 1.67051L43.9184 19.6662H20.1008L14.2188 1.67051C14.0913 1.20682 13.8207 0.795174 13.4457 0.494128C13.0694 0.200287 12.612 0.0289892 12.1352 0.00336348C11.6584 -0.0222622 11.1853 0.0990182 10.7797 0.350829C10.3752 0.608027 10.0616 0.985688 9.88321 1.43057L1.15531 24.1551L1.06866 24.3851C-0.185359 27.6616 -0.340148 31.2571 0.627636 34.6293C1.59542 38.0015 3.63331 40.9677 6.43404 43.0806L6.46403 43.1039L6.54401 43.1605L19.8142 53.0981L26.3792 58.067L30.3783 61.0862C30.8461 61.4414 31.4172 61.6337 32.0046 61.6337C32.5919 61.6337 33.1631 61.4414 33.6308 61.0862L37.6299 58.067L44.195 53.0981L57.5451 43.1006L57.5784 43.0739C60.3729 40.9606 62.406 37.9975 63.3723 34.6298C64.3386 31.2621 64.1859 27.6718 62.9371 24.3984Z" fill="white"></path>
</svg>
