<svg xmlns="http://www.w3.org/2000/svg" width="52" height="41" viewBox="0 0 52 41" fill="none">
  <path d="M23.9106 38.3638C30.5454 37.1918 36.0254 36.2219 36.0884 36.2086L36.2028 36.1843L29.9389 28.7335C26.4937 24.6356 23.6749 21.2669 23.6749 21.2474C23.6749 21.2107 30.143 3.39903 30.1793 3.33566C30.1915 3.31448 34.5932 10.9139 40.8494 21.7572C46.7065 31.9089 51.5354 40.279 51.5803 40.3574L51.6619 40.5L31.7546 40.4974L11.8472 40.4949L23.9106 38.3638ZM0.0195312 36.0917C0.0195312 36.0812 2.97108 30.9576 6.57852 24.7058L13.1375 13.339L20.7812 6.92437C24.9853 3.39632 28.4363 0.505417 28.4501 0.500145C28.464 0.494874 28.4087 0.634066 28.3272 0.809462C28.2458 0.984858 24.5108 8.99606 20.0272 18.6121L11.8752 36.0959L5.94739 36.1033C2.68707 36.1074 0.0195312 36.1022 0.0195312 36.0917Z" fill="white"/>
</svg>