<svg width="16" height="16" viewBox="0 0 16 16" fill="none" xmlns="http://www.w3.org/2000/svg">
<g clip-path="url(#clip0_1883_8118)">
<path d="M10 8C10 6.89543 9.10457 6 8 6C6.89543 6 6 6.89543 6 8C6 9.10457 6.89543 10 8 10C9.10457 10 10 9.10457 10 8Z" fill="#684BFE"/>
<path d="M10 14C10 12.8954 9.10457 12 8 12C6.89543 12 6 12.8954 6 14C6 15.1046 6.89543 16 8 16C9.10457 16 10 15.1046 10 14Z" fill="#684BFE"/>
<path d="M10 2C10 0.89543 9.10457 -1.35705e-07 8 -8.74228e-08C6.89543 -3.91405e-08 6 0.895431 6 2C6 3.10457 6.89543 4 8 4C9.10457 4 10 3.10457 10 2Z" fill="#684BFE"/>
</g>
<defs>
<clipPath id="clip0_1883_8118">
<rect width="16" height="16" fill="white" transform="translate(0 16) rotate(-90)"/>
</clipPath>
</defs>
</svg>
