<svg width="40" height="40" viewBox="0 0 40 40" fill="none" xmlns="http://www.w3.org/2000/svg">
<g clip-path="url(#clip0_3531_23209)">
<path d="M13.3281 20.834C13.3281 24.0098 17.2859 26.3685 19.1059 27.2855C19.3809 27.4269 19.6856 27.5007 19.9948 27.5007C20.304 27.5007 20.6087 27.4269 20.8837 27.2855C22.7037 26.3685 26.6615 24.0148 26.6615 20.834V16.3225C26.6557 16.1107 26.571 15.9087 26.4242 15.756C26.2773 15.6034 26.0787 15.511 25.8673 15.497C24.0962 15.3546 22.4005 14.7178 20.9734 13.6591C20.6908 13.448 20.3476 13.334 19.9948 13.334C19.6421 13.334 19.2988 13.448 19.0162 13.6591C17.5891 14.7178 15.8935 15.3546 14.1223 15.497C13.91 15.5084 13.7099 15.6 13.5625 15.7532C13.4151 15.9064 13.3313 16.1099 13.3281 16.3224V20.834Z" stroke="white" stroke-width="2" stroke-linecap="round" stroke-linejoin="round"/>
<path d="M9.39062 9.39341C11.4884 7.29562 14.1612 5.86701 17.0709 5.28823C19.9806 4.70945 22.9966 5.0065 25.7375 6.14181C28.4784 7.27713 30.8211 9.19971 32.4693 11.6665C34.1175 14.1332 34.9972 17.0333 34.9972 20C34.9972 22.9667 34.1175 25.8668 32.4693 28.3336C30.8211 30.8003 28.4784 32.7229 25.7375 33.8582C22.9966 34.9935 19.9806 35.2906 17.0709 34.7118C14.1612 34.133 11.4884 32.7044 9.39062 30.6066" stroke="white" stroke-width="2" stroke-linecap="round" stroke-linejoin="round"/>
<path d="M7.5 15H5" stroke="white" stroke-width="2" stroke-linecap="round" stroke-linejoin="round"/>
<path d="M7.5 25H5" stroke="white" stroke-width="2" stroke-linecap="round" stroke-linejoin="round"/>
<path d="M6.66146 20H3.32812" stroke="white" stroke-width="2" stroke-linecap="round" stroke-linejoin="round"/>
</g>
<defs>
<clipPath id="clip0_3531_23209">
<rect width="40" height="40" fill="white"/>
</clipPath>
</defs>
</svg>
