<svg width="14" height="14" viewBox="0 0 14 14" fill="none" xmlns="http://www.w3.org/2000/svg">
<path d="M13.4325 4.616L9.32294 4.01881L7.48727 0.297569C7.4339 0.206947 7.3578 0.13183 7.2665 0.0796404C7.1752 0.0274521 7.07186 0 6.96669 0C6.86153 0 6.75817 0.0274521 6.66688 0.0796404C6.57557 0.13183 6.49948 0.206947 6.44611 0.297569L4.60696 4.01881L0.497447 4.616C0.390279 4.63148 0.289574 4.67662 0.20672 4.74632C0.123866 4.81604 0.0621663 4.90753 0.0285964 5.01048C-0.00497356 5.11343 -0.00907483 5.22371 0.0167563 5.32886C0.0425874 5.43401 0.0973206 5.52984 0.174768 5.60551L3.1491 8.50381L2.44744 12.597C2.42916 12.7038 2.4411 12.8135 2.48191 12.9139C2.52272 13.0142 2.59078 13.101 2.67839 13.1647C2.766 13.2283 2.86966 13.2662 2.97767 13.274C3.08567 13.2817 3.1937 13.2592 3.28954 13.2087L6.96495 11.2767L10.6403 13.2087C10.7361 13.2592 10.8442 13.2817 10.9522 13.274C11.0603 13.2662 11.1639 13.2283 11.2515 13.1647C11.3391 13.101 11.4072 13.0142 11.448 12.9139C11.4888 12.8135 11.5007 12.7038 11.4825 12.597L10.7808 8.50381L13.7551 5.60551C13.8326 5.52991 13.8873 5.43418 13.9131 5.32912C13.9391 5.22404 13.9351 5.11383 13.9017 5.01092C13.8682 4.908 13.8066 4.81649 13.7239 4.74671C13.6412 4.67693 13.5407 4.63165 13.4336 4.616H13.4325Z" fill="#FFC062"/>
</svg>