<svg width="13" height="14" viewBox="0 0 13 14" fill="none" xmlns="http://www.w3.org/2000/svg">
<g clip-path="url(#clip0_2896_19610)">
<path d="M12.537 5.12663L8.70141 4.56925L6.98812 1.09609C6.93831 1.01151 6.86728 0.9414 6.78207 0.89269C6.69685 0.843981 6.6004 0.818359 6.50224 0.818359C6.40409 0.818359 6.30763 0.843981 6.22242 0.89269C6.1372 0.9414 6.06618 1.01151 6.01637 1.09609L4.29983 4.56925L0.464284 5.12663C0.36426 5.14107 0.270269 5.1832 0.192939 5.24826C0.115608 5.31333 0.0580219 5.39872 0.02669 5.49481C-0.00464199 5.59089 -0.00846984 5.69382 0.0156392 5.79196C0.0397482 5.8901 0.0908326 5.97954 0.163117 6.05017L2.93916 8.75525L2.28428 12.5756C2.26722 12.6752 2.27836 12.7776 2.31645 12.8713C2.35454 12.9649 2.41806 13.046 2.49983 13.1054C2.5816 13.1648 2.67835 13.2001 2.77916 13.2074C2.87996 13.2146 2.98079 13.1936 3.07024 13.1465L6.50062 11.3433L9.93099 13.1465C10.0204 13.1936 10.1213 13.2146 10.2221 13.2074C10.3229 13.2001 10.4196 13.1648 10.5014 13.1054C10.5832 13.046 10.6467 12.9649 10.6848 12.8713C10.7229 12.7776 10.734 12.6752 10.717 12.5756L10.0621 8.75525L12.8381 6.05017C12.9104 5.97961 12.9615 5.89026 12.9856 5.7922C13.0098 5.69413 13.0061 5.59127 12.9749 5.49522C12.9437 5.39916 12.8862 5.31375 12.809 5.24862C12.7318 5.18349 12.638 5.14123 12.538 5.12663H12.537Z" fill="#FFC062"/>
</g>
<defs>
<clipPath id="clip0_2896_19610">
<rect width="13" height="13" fill="white" transform="translate(0 0.5)"/>
</clipPath>
</defs>
</svg>
