<svg width="33" height="32" viewBox="0 0 33 32" fill="none" xmlns="http://www.w3.org/2000/svg">
<g clip-path="url(#clip0_1416_6048)">
<path d="M0.128906 0H32.1289V32H0.128906V0Z" fill="#017ACB"/>
<path d="M15.4935 11.8493H17.0285V14.4993H12.8785V26.2893L12.7685 26.3193C12.6185 26.3593 10.6435 26.3593 10.2185 26.3143L9.87852 26.2843V14.4993H5.72852V11.8493L7.04352 11.8343C7.76352 11.8243 9.61352 11.8243 11.1535 11.8343C12.6935 11.8443 14.6435 11.8493 15.4935 11.8493ZM27.2085 25.0393C26.5985 25.6843 25.9435 26.0443 24.8535 26.3393C24.3785 26.4693 24.2985 26.4743 23.2285 26.4693C22.1585 26.4643 22.0735 26.4643 21.5535 26.3293C20.2085 25.9843 19.1235 25.3093 18.3835 24.3543C18.1735 24.0843 17.8285 23.5243 17.8285 23.4543C17.8285 23.4343 17.8785 23.3893 17.9435 23.3593C18.0085 23.3293 18.1435 23.2443 18.2535 23.1793C18.3635 23.1143 18.5635 22.9943 18.6985 22.9243C18.8335 22.8543 19.2235 22.6243 19.5635 22.4193C19.9035 22.2143 20.2135 22.0493 20.2485 22.0493C20.2835 22.0493 20.3485 22.1193 20.3985 22.2043C20.6985 22.7093 21.3985 23.3543 21.8935 23.5743C22.1985 23.7043 22.8735 23.8493 23.1985 23.8493C23.4985 23.8493 24.0485 23.7193 24.3435 23.5843C24.6585 23.4393 24.8185 23.2943 25.0085 23.0043C25.1385 22.7993 25.1535 22.7443 25.1485 22.3543C25.1485 21.9943 25.1285 21.8943 25.0285 21.7293C24.7485 21.2693 24.3685 21.0293 22.8285 20.3493C21.2385 19.6443 20.5235 19.2243 19.9435 18.6593C19.5135 18.2393 19.4285 18.1243 19.1585 17.5993C18.8085 16.9243 18.7635 16.7043 18.7585 15.6993C18.7535 14.9943 18.7685 14.7643 18.8435 14.5243C18.9485 14.1643 19.2885 13.4693 19.4435 13.2943C19.7635 12.9193 19.8785 12.8043 20.1035 12.6193C20.7835 12.0593 21.8435 11.6893 22.8585 11.6543C22.9735 11.6543 23.3535 11.6743 23.7085 11.6993C24.7285 11.7843 25.4235 12.0343 26.0935 12.5693C26.5985 12.9693 27.3635 13.9093 27.2885 14.0343C27.2385 14.1093 25.2435 15.4393 25.1135 15.4793C25.0335 15.5043 24.9785 15.4743 24.8685 15.3443C24.1885 14.5293 23.9135 14.3543 23.2535 14.3143C22.7835 14.2843 22.5335 14.3393 22.2185 14.5493C21.8885 14.7693 21.7285 15.1043 21.7285 15.5693C21.7335 16.2493 21.9935 16.5693 22.9535 17.0443C23.5735 17.3493 24.1035 17.5993 24.1435 17.5993C24.2035 17.5993 25.4885 18.2393 25.8235 18.4393C27.3835 19.3543 28.0185 20.2943 28.1835 21.9143C28.3035 23.1343 27.9585 24.2493 27.2085 25.0393Z" fill="white"/>
</g>
<defs>
<clipPath id="clip0_1416_6048">
<rect width="32" height="32" fill="white" transform="translate(0.128906)"/>
</clipPath>
</defs>
</svg>
