<svg width="32" height="32" viewBox="0 0 32 32" fill="none" xmlns="http://www.w3.org/2000/svg">
<g clip-path="url(#clip0_1416_6018)">
<mask id="mask0_1416_6018" style="mask-type:luminance" maskUnits="userSpaceOnUse" x="0" y="0" width="32" height="32">
<path d="M32 0H0V32H32V0Z" fill="white"/>
</mask>
<g mask="url(#mask0_1416_6018)">
<mask id="mask1_1416_6018" style="mask-type:alpha" maskUnits="userSpaceOnUse" x="0" y="0" width="32" height="32">
<path fill-rule="evenodd" clip-rule="evenodd" d="M22.6918 31.781C23.1958 31.9773 23.7705 31.9648 24.2792 31.72L30.8675 28.5498C31.5597 28.2167 32 27.5161 32 26.7474V5.25177C32 4.48313 31.5598 3.78249 30.8675 3.44937L24.2792 0.279113C23.6116 -0.0421297 22.8303 0.0365548 22.2443 0.462536C22.1606 0.523387 22.0809 0.591329 22.0061 0.666203L9.39363 12.1728L3.8999 8.00258C3.38848 7.61439 2.67316 7.6462 2.19819 8.07826L0.43617 9.68108C-0.144817 10.2096 -0.145482 11.1236 0.43473 11.653L5.19907 15.9995L0.43473 20.3461C-0.145482 20.8755 -0.144817 21.7895 0.43617 22.318L2.19819 23.9208C2.67316 24.3529 3.38848 24.3847 3.8999 23.9965L9.39363 19.8263L22.0061 31.3329C22.2056 31.5325 22.4399 31.6828 22.6918 31.781ZM24.0049 8.73516L14.4349 15.9995L24.0049 23.2639V8.73516Z" fill="white"/>
</mask>
<g mask="url(#mask1_1416_6018)">
<path d="M30.8676 3.45403L24.2741 0.279422C23.5109 -0.0880394 22.5989 0.0669635 21.9999 0.665914L0.415464 20.3459C-0.165103 20.8752 -0.164436 21.7892 0.416904 22.3177L2.17999 23.9205C2.65526 24.3526 3.37102 24.3844 3.88273 23.9962L29.8754 4.27762C30.7474 3.61608 31.9999 4.23803 31.9999 5.33259V5.25605C31.9999 4.48773 31.5598 3.78734 30.8676 3.45403Z" fill="#0065A9"/>
<g filter="url(#filter0_d_1416_6018)">
<path d="M30.8676 28.5457L24.2741 31.7203C23.5109 32.0878 22.5989 31.9327 21.9999 31.3338L0.415464 11.6539C-0.165103 11.1245 -0.164436 10.2105 0.416904 9.68199L2.17999 8.07918C2.65526 7.64711 3.37102 7.61531 3.88273 8.0035L29.8754 27.7221C30.7474 28.3836 31.9999 27.7617 31.9999 26.6671V26.7437C31.9999 27.512 31.5598 28.2124 30.8676 28.5457Z" fill="#007ACC"/>
</g>
<g filter="url(#filter1_d_1416_6018)">
<path d="M24.2745 31.72C23.5111 32.0872 22.599 31.9319 22 31.3329C22.738 32.0709 24 31.5482 24 30.5044V1.49463C24 0.450876 22.738 -0.0718429 22 0.666204C22.599 0.0671997 23.5111 -0.0880221 24.2745 0.279113L30.8668 3.44937C31.5595 3.78249 32 4.48313 32 5.25177V26.7474C32 27.5161 31.5595 28.2167 30.8668 28.5498L24.2745 31.72Z" fill="#1F9CF0"/>
</g>
<g style="mix-blend-mode:overlay" opacity="0.25">
<path fill-rule="evenodd" clip-rule="evenodd" d="M22.6723 31.781C23.1763 31.9773 23.751 31.9647 24.2597 31.72L30.8479 28.5498C31.5402 28.2167 31.9805 27.5161 31.9805 26.7474V5.25179C31.9805 4.48312 31.5402 3.78247 30.848 3.44936L24.2597 0.279114C23.5921 -0.0421297 22.8107 0.0365548 22.2248 0.462533C22.1411 0.523387 22.0614 0.59133 21.9865 0.666203L9.37409 12.1728L3.88037 8.0026C3.36897 7.61438 2.65363 7.64622 2.17865 8.07825L0.416639 9.68107C-0.164348 10.2096 -0.165014 11.1236 0.415199 11.6529L5.17953 15.9995L0.415199 20.3462C-0.165014 20.8755 -0.164348 21.7895 0.416639 22.318L2.17865 23.9208C2.65363 24.3529 3.36897 24.3847 3.88037 23.9965L9.37409 19.8263L21.9865 31.3329C22.1861 31.5325 22.4203 31.6829 22.6723 31.781ZM23.9853 8.73518L14.4154 15.9995L23.9853 23.2639V8.73518Z" fill="url(#paint0_linear_1416_6018)"/>
</g>
</g>
</g>
</g>
<defs>
<filter id="filter0_d_1416_6018" x="-8.35287" y="-0.600918" width="48.6862" height="40.8522" filterUnits="userSpaceOnUse" color-interpolation-filters="sRGB">
<feFlood flood-opacity="0" result="BackgroundImageFix"/>
<feColorMatrix in="SourceAlpha" type="matrix" values="0 0 0 0 0 0 0 0 0 0 0 0 0 0 0 0 0 0 127 0" result="hardAlpha"/>
<feOffset/>
<feGaussianBlur stdDeviation="4.16667"/>
<feColorMatrix type="matrix" values="0 0 0 0 0 0 0 0 0 0 0 0 0 0 0 0 0 0 0.25 0"/>
<feBlend mode="overlay" in2="BackgroundImageFix" result="effect1_dropShadow_1416_6018"/>
<feBlend mode="normal" in="SourceGraphic" in2="effect1_dropShadow_1416_6018" result="shape"/>
</filter>
<filter id="filter1_d_1416_6018" x="13.6667" y="-8.25131" width="26.6667" height="48.5026" filterUnits="userSpaceOnUse" color-interpolation-filters="sRGB">
<feFlood flood-opacity="0" result="BackgroundImageFix"/>
<feColorMatrix in="SourceAlpha" type="matrix" values="0 0 0 0 0 0 0 0 0 0 0 0 0 0 0 0 0 0 127 0" result="hardAlpha"/>
<feOffset/>
<feGaussianBlur stdDeviation="4.16667"/>
<feColorMatrix type="matrix" values="0 0 0 0 0 0 0 0 0 0 0 0 0 0 0 0 0 0 0.25 0"/>
<feBlend mode="overlay" in2="BackgroundImageFix" result="effect1_dropShadow_1416_6018"/>
<feBlend mode="normal" in="SourceGraphic" in2="effect1_dropShadow_1416_6018" result="shape"/>
</filter>
<linearGradient id="paint0_linear_1416_6018" x1="15.9805" y1="0.082031" x2="15.9805" y2="31.9171" gradientUnits="userSpaceOnUse">
<stop stop-color="white"/>
<stop offset="1" stop-color="white" stop-opacity="0"/>
</linearGradient>
<clipPath id="clip0_1416_6018">
<rect width="32" height="32" fill="white"/>
</clipPath>
</defs>
</svg>
