<svg width="32" height="32" viewBox="0 0 32 32" fill="none" xmlns="http://www.w3.org/2000/svg">
<g clip-path="url(#clip0_1416_6051)">
<path d="M4.3 28.9008L0 3.35078L8 0.0507812L13.05 3.05078L17.75 0.550781L27.45 4.30078L22 32.0008L4.3 28.9008Z" fill="url(#paint0_linear_1416_6051)"/>
<path d="M31.9998 10.85L27.8498 0.65L20.3998 0L8.7998 11.1L11.8998 25.45L17.7498 29.5L31.9998 21.05L28.4998 14.5L31.9998 10.85Z" fill="url(#paint1_linear_1416_6051)"/>
<path d="M25.5996 9.3L28.4996 14.5L31.9996 10.85L29.4496 4.5L25.5996 9.3Z" fill="url(#paint2_linear_1416_6051)"/>
<path d="M6 6H26V26H6V6Z" fill="black"/>
<path d="M7.9002 22.2493H15.4002V23.4993H7.9002V22.2493ZM17.7002 15.6993L18.7502 14.3993C19.5002 14.9993 20.2502 15.3993 21.2002 15.3993C21.9502 15.3993 22.4002 15.0993 22.4002 14.5993C22.4002 14.1493 22.1002 13.8993 20.7502 13.5493C19.1002 13.0993 18.0502 12.6493 18.0502 10.9993V10.9493C18.0502 9.44926 19.2502 8.44926 20.9002 8.44926C22.0063 8.44461 23.0814 8.81472 23.9502 9.49926L23.0002 10.8993C22.3965 10.4275 21.6647 10.1487 20.9002 10.0993C20.2502 10.0993 19.8502 10.3993 19.8502 10.8493C19.8502 11.3993 20.2002 11.5993 21.6002 11.9493C23.2502 12.3993 24.2002 12.9993 24.2002 14.4493C24.2002 16.0993 22.9502 17.0493 21.2002 17.0493C19.9157 17.002 18.6837 16.5269 17.7002 15.6993ZM16.1002 8.59926L14.8502 13.3993L13.4502 8.59926H12.0502L10.6502 13.3993L9.4002 8.59926H7.4502L9.8502 16.8993H11.4002L12.7502 12.0993L14.1002 16.8993H15.6502L18.0502 8.59926H16.1002Z" fill="white"/>
</g>
<defs>
<linearGradient id="paint0_linear_1416_6051" x1="11.4475" y1="0.665781" x2="19.73" y2="30.4783" gradientUnits="userSpaceOnUse">
<stop offset="0.28" stop-color="#00CDD7"/>
<stop offset="0.94" stop-color="#2086D7"/>
</linearGradient>
<linearGradient id="paint1_linear_1416_6051" x1="14.0173" y1="4.4625" x2="28.0273" y2="25.005" gradientUnits="userSpaceOnUse">
<stop offset="0.14" stop-color="#FFF045"/>
<stop offset="0.37" stop-color="#00CDD7"/>
</linearGradient>
<linearGradient id="paint2_linear_1416_6051" x1="27.9271" y1="6.9825" x2="29.7671" y2="13.5" gradientUnits="userSpaceOnUse">
<stop offset="0.28" stop-color="#00CDD7"/>
<stop offset="0.94" stop-color="#2086D7"/>
</linearGradient>
<clipPath id="clip0_1416_6051">
<rect width="32" height="32" fill="white"/>
</clipPath>
</defs>
</svg>
