<svg width="24" height="24" viewBox="0 0 24 24" fill="none" xmlns="http://www.w3.org/2000/svg">
<path d="M2.17505 17.5238C2.43639 17.5779 2.70633 17.5747 2.96631 17.5145C3.22629 17.4542 3.47014 17.3384 3.68109 17.175C3.89205 17.0115 4.0651 16.8043 4.18836 16.5676C4.31161 16.3309 4.38214 16.0704 4.3951 15.8038C4.43234 15.1289 4.65886 14.478 5.04874 13.9258C5.43861 13.3736 5.97608 12.9423 6.59964 12.6813C7.22319 12.4203 7.90764 12.3401 8.57463 12.4499C9.24163 12.5597 9.86423 12.8551 10.3712 13.3023C10.8781 13.7495 11.2489 14.3303 11.4412 14.9784C11.6334 15.6265 11.6393 16.3156 11.4581 16.9668C11.277 17.6181 10.9162 18.2052 10.4169 18.661C9.91768 19.1167 9.30022 19.4227 8.63519 19.5439C8.18062 19.6102 7.7627 19.8309 7.4517 20.169C7.14069 20.5071 6.95555 20.9419 6.92739 21.4004C6.89924 21.8589 7.02978 22.3132 7.29707 22.6868C7.56437 23.0604 7.95213 23.3306 8.39519 23.452C9.56026 23.8171 10.7743 24.0019 11.9953 24C12.2913 24 12.5873 23.9893 12.8833 23.968C15.4028 23.7821 17.7994 22.8058 19.7316 21.1781C21.6637 19.5505 23.0329 17.3546 23.6441 14.9032C24.2552 12.4519 24.0772 9.87023 23.1352 7.52603C22.1933 5.18183 20.5355 3.19471 18.3982 1.84778C16.2608 0.500858 13.7529 -0.137157 11.2317 0.0246439C8.71052 0.186445 6.30472 1.13981 4.35707 2.7489C2.40942 4.35799 1.01928 6.54072 0.384714 8.98609C-0.249848 11.4315 -0.0964592 14.0147 0.823025 16.3678C0.933887 16.6581 1.11571 16.916 1.35189 17.1179C1.58806 17.3199 1.87107 17.4594 2.17505 17.5238ZM0.795025 11.3717C0.925513 9.04218 1.78025 6.81155 3.23988 4.99132C4.6995 3.17109 6.69114 1.85213 8.93668 1.21863C11.1822 0.585129 13.5695 0.668717 15.7653 1.45772C17.961 2.24672 19.8555 3.70175 21.1843 5.61961C22.513 7.53748 23.2096 9.82242 23.1769 12.1554C23.1441 14.4883 22.3836 16.7528 21.0015 18.6326C19.6194 20.5124 17.6848 21.9137 15.4678 22.6407C13.2508 23.3677 10.8621 23.3843 8.63519 22.688C8.36025 22.6223 8.11733 22.4616 7.94923 22.2344C7.78114 22.0071 7.69867 21.7278 7.71636 21.4457C7.73406 21.1635 7.85077 20.8967 8.04594 20.6922C8.24111 20.4878 8.5022 20.3587 8.78319 20.3279C9.59566 20.1787 10.3497 19.8039 10.9591 19.2462C11.5685 18.6886 12.0086 17.9706 12.2291 17.1745C12.4496 16.3785 12.4415 15.5364 12.2058 14.7447C11.9701 13.953 11.5163 13.2436 10.8964 12.6978C10.2764 12.1519 9.51527 11.7915 8.7001 11.658C7.88493 11.5244 7.04862 11.623 6.28686 11.9425C5.5251 12.2619 4.86865 12.7894 4.39262 13.4645C3.91659 14.1396 3.6402 14.935 3.59508 15.7598C3.58282 16.0213 3.47459 16.2691 3.29108 16.4558C3.16849 16.5811 3.01612 16.6733 2.84821 16.7236C2.68031 16.774 2.50237 16.781 2.33106 16.7438C2.15742 16.7087 1.99553 16.63 1.86052 16.5153C1.72551 16.4006 1.62178 16.2535 1.55904 16.0878C0.966801 14.5894 0.706153 12.9805 0.795025 11.3717Z" fill="#293FCC"/>
<path d="M17.195 8.79961C17.6697 8.79961 18.1337 8.65885 18.5284 8.39513C18.9231 8.13141 19.2307 7.75658 19.4123 7.31802C19.594 6.87947 19.6415 6.3969 19.5489 5.93134C19.4563 5.46577 19.2277 5.03812 18.8921 4.70247C18.5564 4.36682 18.1288 4.13824 17.6632 4.04563C17.1976 3.95302 16.7151 4.00055 16.2765 4.18221C15.838 4.36386 15.4631 4.67148 15.1994 5.06617C14.9357 5.46085 14.7949 5.92488 14.7949 6.39956C14.7949 7.0361 15.0478 7.64656 15.4979 8.09666C15.948 8.54675 16.5584 8.79961 17.195 8.79961ZM17.195 4.79953C17.5114 4.79953 17.8208 4.89337 18.0839 5.06918C18.347 5.245 18.5521 5.49489 18.6732 5.78726C18.7943 6.07963 18.826 6.40134 18.7643 6.71171C18.7025 7.02209 18.5501 7.30719 18.3264 7.53096C18.1026 7.75473 17.8175 7.90712 17.5071 7.96885C17.1967 8.03059 16.875 7.99891 16.5827 7.8778C16.2903 7.7567 16.0404 7.55162 15.8646 7.28849C15.6888 7.02537 15.5949 6.71602 15.5949 6.39956C15.5949 5.97521 15.7635 5.56823 16.0636 5.26817C16.3636 4.9681 16.7706 4.79953 17.195 4.79953Z" fill="#293FCC"/>
<path d="M17.2357 12.1757C17.1802 12.8096 17.3787 13.4395 17.7875 13.9271C18.1963 14.4146 18.782 14.7199 19.4158 14.7758H19.6278C20.0932 14.774 20.5481 14.637 20.937 14.3813C21.326 14.1257 21.6322 13.7625 21.8184 13.3359C22.0046 12.9093 22.0627 12.4378 21.9857 11.9788C21.9087 11.5198 21.7 11.093 21.3848 10.7506C21.0696 10.4081 20.6617 10.1646 20.2106 10.0498C19.7595 9.93505 19.2848 9.9539 18.8443 10.1041C18.4038 10.2543 18.0164 10.5293 17.7294 10.8957C17.4423 11.2621 17.2681 11.7041 17.2277 12.1677L17.2357 12.1757ZM19.6358 10.7837C20.012 10.7843 20.376 10.9174 20.6638 11.1596C20.9517 11.4019 21.1449 11.7379 21.2096 12.1085C21.2743 12.4791 21.2064 12.8607 21.0177 13.1862C20.829 13.5117 20.5317 13.7603 20.1779 13.8883C19.8241 14.0163 19.4365 14.0156 19.0833 13.8862C18.73 13.7568 18.4336 13.5071 18.2461 13.1809C18.0587 12.8547 17.9922 12.4729 18.0583 12.1025C18.1245 11.7321 18.319 11.3969 18.6077 11.1557C18.8962 10.9224 19.2568 10.7965 19.6278 10.7997L19.6358 10.7837Z" fill="#293FCC"/>
<path d="M16.191 20.4559C16.3297 20.4801 16.4702 20.4921 16.611 20.4919C17.2292 20.4904 17.8231 20.2504 18.2687 19.8218C18.7144 19.3933 18.9774 18.8093 19.0031 18.1916C19.0288 17.5738 18.8151 16.97 18.4065 16.5059C17.998 16.0419 17.4261 15.7534 16.8101 15.7006C16.1941 15.6478 15.5815 15.8348 15.0999 16.2225C14.6183 16.6103 14.305 17.1689 14.2252 17.782C14.1453 18.3951 14.3052 19.0154 14.6714 19.5135C15.0376 20.0116 15.582 20.3492 16.191 20.4559ZM15.0309 17.8159C15.0963 17.4517 15.2858 17.1214 15.5673 16.8813C15.8487 16.6411 16.2047 16.5059 16.5746 16.4987C16.9445 16.4915 17.3055 16.6127 17.5961 16.8417C17.8867 17.0707 18.089 17.3933 18.1685 17.7547C18.248 18.116 18.1998 18.4937 18.0321 18.8236C17.8645 19.1534 17.5877 19.4149 17.2489 19.5636C16.9101 19.7123 16.5302 19.739 16.174 19.6391C15.8177 19.5393 15.5071 19.319 15.2949 19.0159C15.174 18.8431 15.0885 18.6482 15.0432 18.4422C14.9978 18.2363 14.9937 18.0234 15.0309 17.8159Z" fill="#293FCC"/>
<path d="M9.50259 6.25563C9.86731 6.55946 10.3139 6.74831 10.786 6.79829C11.258 6.84828 11.7343 6.75716 12.1546 6.53646C12.5749 6.31577 12.9202 5.9754 13.1471 5.5584C13.3739 5.14141 13.472 4.66652 13.4289 4.19379C13.3858 3.72105 13.2035 3.27171 12.905 2.90258C12.6066 2.53345 12.2054 2.26112 11.7521 2.12002C11.2989 1.97892 10.814 1.97539 10.3588 2.10987C9.90352 2.24436 9.49838 2.51082 9.19458 2.87556C8.78722 3.36464 8.59082 3.99551 8.64858 4.62939C8.70634 5.26327 9.01354 5.84824 9.50259 6.25563ZM9.8186 3.38757C9.95399 3.22668 10.1198 3.09405 10.3065 2.99727C10.4932 2.90049 10.6971 2.84147 10.9066 2.82356H11.0506C11.4147 2.824 11.7677 2.9486 12.0514 3.17677C12.3352 3.40494 12.5326 3.72305 12.6111 4.07856C12.6896 4.43407 12.6445 4.80573 12.4833 5.13216C12.322 5.45859 12.0543 5.72027 11.7243 5.874C11.3942 6.02773 11.0217 6.06431 10.668 5.97769C10.3144 5.89108 10.0009 5.68645 9.77927 5.39761C9.55764 5.10876 9.44114 4.75297 9.44902 4.38897C9.4569 4.02498 9.58868 3.67456 9.8226 3.39557L9.8186 3.38757Z" fill="#293FCC"/>
<path d="M4.19858 9.81572C4.60053 10.098 5.07942 10.2502 5.57061 10.2517C5.71273 10.2521 5.85461 10.2401 5.99462 10.2157C6.54164 10.1202 7.0386 9.83793 7.40083 9.41703C7.76305 8.99614 7.96812 8.46266 7.98109 7.90751C7.99406 7.35236 7.81412 6.80989 7.47194 6.37255C7.12976 5.9352 6.64651 5.63004 6.10455 5.50906C5.56259 5.38809 4.99544 5.45879 4.49977 5.70912C4.00409 5.95944 3.61055 6.3739 3.38622 6.88187C3.16188 7.38984 3.12063 7.95988 3.26949 8.49486C3.41835 9.02983 3.74811 9.49664 4.20258 9.81572H4.19858ZM5.2986 6.27565C5.61031 6.22185 5.93098 6.26165 6.22008 6.39002C6.50918 6.51839 6.75374 6.72957 6.92287 6.99688C7.092 7.26419 7.1781 7.57563 7.17029 7.89185C7.16249 8.20808 7.06113 8.51489 6.87902 8.77353C6.69691 9.03217 6.44222 9.23103 6.14714 9.34498C5.85206 9.45893 5.52982 9.48286 5.22115 9.41374C4.91247 9.34463 4.6312 9.18557 4.41289 8.95667C4.19457 8.72777 4.04901 8.43929 3.99458 8.12769C3.95837 7.92044 3.9634 7.70808 4.00937 7.50277C4.05534 7.29746 4.14135 7.10324 4.26247 6.93121C4.3836 6.75918 4.53746 6.61273 4.71525 6.50024C4.89305 6.38775 5.09128 6.31143 5.2986 6.27565Z" fill="#293FCC"/>
</svg>
