<svg width="24" height="24" viewBox="0 0 24 24" fill="none" xmlns="http://www.w3.org/2000/svg">
<path d="M5.37931 12.6967C8.34537 12.6967 10.7586 10.2974 10.7586 7.34836C10.7586 4.39937 8.34537 2 5.37931 2C2.41325 2 0 4.39937 0 7.34836C0 10.2974 2.41325 12.6967 5.37931 12.6967ZM9.42854 5.2913H8.75593C7.30406 5.2913 6.08829 4.22777 5.84634 2.84658C7.41155 3.00593 8.74103 3.95898 9.42854 5.2913ZM4.91228 2.84658C4.67033 4.22777 3.45456 5.2913 2.00269 5.2913H1.33008C2.0176 3.95898 3.34707 3.00593 4.91228 2.84658ZM1.00402 6.11413H2.00269C3.474 6.11413 4.75266 5.25559 5.37931 4.02301C6.00596 5.25559 7.28462 6.11413 8.75593 6.11413H9.7546C9.86694 6.50711 9.93104 6.92008 9.93104 7.34836C9.93104 9.84376 7.88914 11.8739 5.37931 11.8739C2.86948 11.8739 0.827586 9.84376 0.827586 7.34836C0.827586 6.92008 0.891686 6.50711 1.00402 6.11413Z" fill="#293FCC"/>
<path d="M18.6215 2C15.6554 2 13.2422 4.39937 13.2422 7.34836C13.2422 10.2974 15.6554 12.6967 18.6215 12.6967C21.5876 12.6967 24.0008 10.2974 24.0008 7.34836C24.0008 4.39937 21.5876 2 18.6215 2ZM18.6215 11.8739C16.1117 11.8739 14.0698 9.84376 14.0698 7.34836C14.0698 4.85297 16.1117 2.82283 18.6215 2.82283C21.1313 2.82283 23.1732 4.85297 23.1732 7.34836C23.1732 9.84376 21.1313 11.8739 18.6215 11.8739Z" fill="#293FCC"/>
<path d="M5.37897 10.2283C5.93178 10.2283 6.45144 10.0141 6.8418 9.62563C7.00343 9.46493 7.00343 9.20418 6.8418 9.04387C6.68016 8.88316 6.41831 8.88316 6.25667 9.04387C5.78792 9.50992 4.97003 9.50992 4.50128 9.04387C4.33964 8.88316 4.07779 8.88316 3.91615 9.04387C3.75451 9.20418 3.75451 9.46493 3.91615 9.62563C4.30651 10.0141 4.82617 10.2283 5.37897 10.2283Z" fill="#293FCC"/>
<path d="M19.4487 6.93695C19.1297 6.93695 18.8413 7.0606 18.6212 7.25797C18.401 7.0606 18.1127 6.93695 17.7936 6.93695C16.6528 6.93695 15.7246 7.85982 15.7246 8.99401V9.81684C15.7246 9.98317 15.8252 10.1334 15.98 10.1969C16.0313 10.2182 16.0851 10.2283 16.1384 10.2283C16.2459 10.2283 16.3518 10.1865 16.431 10.1077L16.7736 9.76702C17.0084 9.53399 17.32 9.40543 17.6517 9.40543H17.7936C18.1127 9.40543 18.401 9.28178 18.6212 9.08441C18.8413 9.28178 19.1297 9.40543 19.4487 9.40543H19.5906C19.9223 9.40543 20.2339 9.53399 20.4687 9.76702L20.8114 10.1077C20.8906 10.1865 20.9964 10.2283 21.1039 10.2283C21.1573 10.2283 21.211 10.2182 21.2623 10.1969C21.4171 10.1334 21.5177 9.98317 21.5177 9.81684V8.99401C21.5177 7.85982 20.5895 6.93695 19.4487 6.93695ZM17.7936 8.5826H17.6517C17.2581 8.5826 16.8815 8.69108 16.5562 8.89357C16.608 8.25998 17.143 7.75978 17.7936 7.75978C18.0219 7.75978 18.2074 7.94419 18.2074 8.17119C18.2074 8.39819 18.0219 8.5826 17.7936 8.5826ZM19.5906 8.5826H19.4487C19.2204 8.5826 19.035 8.39819 19.035 8.17119C19.035 7.94419 19.2204 7.75978 19.4487 7.75978C20.0993 7.75978 20.6344 8.25998 20.6861 8.89357C20.3608 8.69108 19.9842 8.5826 19.5906 8.5826Z" fill="#293FCC"/>
<path d="M8.22744 15.5148C9.24818 14.0089 11.0698 13.2592 12.8628 13.6011C13.0875 13.6441 13.2342 13.8599 13.1913 14.0828C13.1481 14.3058 12.9339 14.4473 12.7068 14.4095C11.2343 14.1266 9.74845 14.7434 8.91359 15.9748C8.35756 16.794 8.15592 17.7803 8.34584 18.7514C8.53576 19.7229 9.09422 20.5622 9.91858 21.1146C10.7425 21.6675 11.7334 21.8683 12.7113 21.6791C13.6884 21.4903 14.5325 20.935 15.0882 20.1154C15.9238 18.884 15.9392 17.2813 15.127 16.0322C15.0029 15.8414 15.0579 15.5867 15.2498 15.4633C15.4421 15.34 15.6979 15.3954 15.822 15.5855C15.9065 15.7154 15.9734 15.8523 16.0433 15.988H21.9319C22.1606 15.988 22.3457 16.1721 22.3457 16.3995V19.6908C22.3457 19.9182 22.1606 20.1022 21.9319 20.1022H16.0468C15.9639 20.2632 15.8779 20.4232 15.7743 20.5759C15.095 21.5775 14.0634 22.2561 12.8693 22.4867C12.5763 22.5433 12.2825 22.5714 11.9908 22.5714C11.0929 22.5714 10.216 22.3067 9.45548 21.7968C8.80873 21.3632 8.31447 20.7746 7.96877 20.1022H4.72394L4.84517 20.2227C5.0068 20.3834 5.0068 20.6438 4.84517 20.8045C4.76435 20.8848 4.65847 20.925 4.5526 20.925C4.44673 20.925 4.34086 20.8848 4.26004 20.8045L1.77728 18.336C1.61564 18.1753 1.61564 17.9149 1.77728 17.7542L4.26004 15.2857C4.42167 15.125 4.68353 15.125 4.84517 15.2857C5.0068 15.4465 5.0068 15.7068 4.84517 15.8675L4.72394 15.988H7.96973C8.05226 15.8287 8.1251 15.6655 8.22744 15.5148ZM21.5181 19.2793V16.8109H16.3796C16.6103 17.6188 16.6048 18.4731 16.3744 19.2793H21.5181ZM3.89635 16.8109L2.65497 18.0451L3.89635 19.2793H7.64458C7.60912 19.1549 7.55871 19.0369 7.53361 18.9085C7.39455 18.1983 7.44713 17.4867 7.64125 16.8109H3.89635Z" fill="#293FCC"/>
<path d="M12.0003 15.988C12.229 15.988 12.4141 16.172 12.4141 16.3994V18.045C12.4141 18.1543 12.3704 18.2588 12.2928 18.3359L11.4652 19.1587C11.3844 19.2391 11.2786 19.2793 11.1727 19.2793C11.0668 19.2793 10.9609 19.2391 10.8801 19.1587C10.7185 18.998 10.7185 18.7377 10.8801 18.577L11.5865 17.8747V16.3994C11.5865 16.172 11.7716 15.988 12.0003 15.988Z" fill="#293FCC"/>
<path d="M14.0833 14.9753C13.8938 14.8483 13.8438 14.5926 13.9716 14.4042C14.0994 14.2158 14.3566 14.1662 14.5461 14.2932C14.7355 14.4202 14.7855 14.676 14.6577 14.8643C14.5299 15.0527 14.2727 15.1024 14.0833 14.9753Z" fill="#293FCC"/>
</svg>
