<svg width="24" height="24" viewBox="0 0 24 24" fill="none" xmlns="http://www.w3.org/2000/svg">
<path d="M11.1863 21.94C11.1855 21.733 11.185 21.4754 11.185 21.1971C11.185 20.8154 11.1841 20.5059 11.1824 20.2914C11.1816 20.1844 11.1806 20.0993 11.1794 20.0402C11.1788 20.0112 11.1781 19.985 11.1772 19.9644C11.1768 19.9554 11.176 19.9403 11.1745 19.9243L11.1745 19.9242C11.174 19.9184 11.1721 19.8982 11.1675 19.8737C11.1665 19.8683 11.1634 19.8519 11.1571 19.8297L11.1228 19.3948L10.6617 19.3938L8.52677 19.3892L8.5222 17.2356L8.52115 16.7377L8.02327 16.7366L5.86961 16.7321L5.86504 14.5691L5.86398 14.0712L5.3661 14.0701L3.2135 14.0655V13.2697C3.2135 12.841 3.21279 12.5158 3.21126 12.2974C3.21049 12.1886 3.20951 12.1041 3.20824 12.0458C3.20762 12.0175 3.20685 11.9909 3.20574 11.9696C3.20527 11.9605 3.20431 11.9433 3.20223 11.9246C3.20162 11.9191 3.19958 11.9006 3.19475 11.8768V11.428H2.69475H0.5V7.08643L2.69939 7.08184L3.1973 7.0808L3.19834 6.58289L3.20293 4.3918L5.36593 4.38723L5.86382 4.38618L5.86487 3.88829L5.86944 1.73569H10.2017V3.88339V4.38339H10.7017H11.6343V5.43416L12.5987 5.6195L12.6818 5.41135C12.6818 5.4112 12.6819 5.41106 12.6819 5.41091C12.8806 4.91612 13.0691 4.55217 13.3345 4.1471C13.5659 3.79387 13.7948 3.50897 14.0984 3.19931L11.1863 21.94ZM11.1863 21.94C11.2662 21.9399 11.3524 21.9397 11.4421 21.9393L11.4425 21.9393L12.0217 21.9371C12.2819 21.7335 12.7357 21.3662 13.1031 21.0609L13.1033 21.0607C14.3583 20.019 15.4491 19.0462 16.5868 17.9541C17.153 17.4101 18.0414 16.5068 18.5585 15.9481L18.5585 15.948C19.9258 14.4713 21.0763 13.0049 21.8614 11.7451C22.8897 10.0948 23.406 8.71191 23.4935 7.51117L23.4937 7.50915C23.4993 7.43631 23.5016 7.28931 23.4988 7.10472L11.1863 21.94ZM16.9303 1.62037C17.3083 1.53905 17.5708 1.50893 17.9545 1.50112L15.6707 2.0582C16.0847 1.85423 16.4807 1.71682 16.93 1.62042L16.9303 1.62037ZM23.385 6.19238C23.476 6.60198 23.4929 6.7418 23.4988 7.10406L17.9548 1.50112C18.8221 1.484 19.6153 1.66306 20.3809 2.048L20.3812 2.04816C21.2925 2.50551 22.0306 3.20011 22.5905 4.13861L22.5905 4.13866C22.9391 4.72282 23.2181 5.43886 23.385 6.19208L23.385 6.19238ZM14.0984 3.19925C14.5826 2.70552 15.0618 2.35835 15.6706 2.05823L14.0984 3.19925Z" stroke="#293FCC"/>
</svg>
