<svg width="25" height="26" viewBox="0 0 25 26" fill="none" xmlns="http://www.w3.org/2000/svg">
<path d="M3.57221 7.36653V12.4598M9.93874 1V6.09322M20.1252 18.8263V23.9195M1.0256 9.91314H6.11882M7.39213 3.54661H12.4854M17.5786 21.3729H22.6718M15.032 7.36653L18.6334 10.968M22.0563 3.22334L22.7766 3.94363C23.2808 4.44788 23.5329 4.70001 23.6274 4.99074C23.7106 5.24647 23.7106 5.52195 23.6274 5.77769C23.5329 6.06842 23.2808 6.32055 22.7766 6.82479L5.51461 24.0868C5.01036 24.591 4.75823 24.8432 4.4675 24.9376C4.21177 25.0208 3.93629 25.0208 3.68056 24.9376C3.38982 24.8432 3.1377 24.591 2.63345 24.0868L1.91316 23.3665C1.4089 22.8623 1.15678 22.6102 1.06232 22.3193C0.979226 22.0637 0.979226 21.7882 1.06232 21.5324C1.15678 21.2417 1.4089 20.9896 1.91316 20.4854L19.1752 3.22334C19.6794 2.71909 19.9315 2.46696 20.2222 2.3725C20.478 2.28941 20.7534 2.28941 21.0092 2.3725C21.2999 2.46696 21.5521 2.71909 22.0563 3.22334Z" stroke="#293FCC" stroke-linecap="round" stroke-linejoin="round"/>
</svg>
