<svg width="24" height="24" viewBox="0 0 24 24" fill="none" xmlns="http://www.w3.org/2000/svg">
<path d="M22.8 4H20H16.8H13.6H10.4H7.2H4H1.2C0.538281 4 0 4.54789 0 5.22143V19.0643C0 19.7378 0.538281 20.2857 1.2 20.2857H4H7.2H10.4H13.6H16.8H20H22.8C23.4617 20.2857 24 19.7378 24 19.0643V5.22143C24 4.54789 23.4617 4 22.8 4ZM0.8 15.4V8.88571H11.6V15.4H0.8ZM12.4 8.88571H23.2V15.4H12.4V8.88571ZM19.6 4.81429V6.44286H17.2V4.81429H19.6ZM13.2 4.81429V6.44286H10.8V4.81429H13.2ZM6.8 4.81429V6.44286H4.4V4.81429H6.8ZM1.2 4.81429H3.6V6.85C3.6 7.07484 3.7791 7.25714 4 7.25714H7.2C7.4209 7.25714 7.6 7.07484 7.6 6.85V4.81429H10V6.85C10 7.07484 10.1791 7.25714 10.4 7.25714H13.6C13.8209 7.25714 14 7.07484 14 6.85V4.81429H16.4V6.85C16.4 7.07484 16.5791 7.25714 16.8 7.25714H20C20.2209 7.25714 20.4 7.07484 20.4 6.85V4.81429H22.8C23.0205 4.81429 23.2 4.99698 23.2 5.22143V8.07143H0.8V5.22143C0.8 4.99698 0.979492 4.81429 1.2 4.81429ZM4.4 19.4714V17.8429H6.8V19.4714H4.4ZM10.8 19.4714V17.8429H13.2V19.4714H10.8ZM17.2 19.4714V17.8429H19.6V19.4714H17.2ZM22.8 19.4714H20.4V17.4357C20.4 17.2109 20.2209 17.0286 20 17.0286H16.8C16.5791 17.0286 16.4 17.2109 16.4 17.4357V19.4714H14V17.4357C14 17.2109 13.8209 17.0286 13.6 17.0286H10.4C10.1791 17.0286 10 17.2109 10 17.4357V19.4714H7.6V17.4357C7.6 17.2109 7.4209 17.0286 7.2 17.0286H4C3.7791 17.0286 3.6 17.2109 3.6 17.4357V19.4714H1.2C0.979492 19.4714 0.8 19.2887 0.8 19.0643V16.2143H23.2V19.0643C23.2 19.2887 23.0205 19.4714 22.8 19.4714Z" fill="#293FCC"/>
<path d="M6.39961 9.29285C4.85566 9.29285 3.59961 10.5713 3.59961 12.1428C3.59961 13.7144 4.85566 14.9928 6.39961 14.9928C7.94355 14.9928 9.19961 13.7144 9.19961 12.1428C9.19961 10.5713 7.94355 9.29285 6.39961 9.29285ZM6.39961 14.1786C5.29688 14.1786 4.39961 13.2653 4.39961 12.1428C4.39961 11.0204 5.29688 10.1071 6.39961 10.1071C7.50234 10.1071 8.39961 11.0204 8.39961 12.1428C8.39961 13.2653 7.50234 14.1786 6.39961 14.1786Z" fill="#293FCC"/>
<path d="M5.59922 11.7357C5.62715 11.7357 5.65117 11.7315 5.6791 11.7276C5.70312 11.7234 5.72715 11.7152 5.75117 11.7031C5.7752 11.695 5.79922 11.6826 5.82324 11.6663C5.84316 11.6502 5.86309 11.6339 5.8832 11.6176C5.95508 11.5403 5.99922 11.4343 5.99922 11.3286C5.99922 11.2226 5.95508 11.1168 5.8832 11.0395C5.86309 11.0232 5.84316 11.0069 5.82324 10.9906C5.79922 10.9743 5.7752 10.962 5.75117 10.9538C5.72715 10.9417 5.70312 10.9335 5.6791 10.9296C5.54707 10.9009 5.40723 10.9459 5.31523 11.0395C5.24316 11.1168 5.19922 11.2226 5.19922 11.3286C5.19922 11.4343 5.24316 11.5403 5.31523 11.6176C5.39121 11.6908 5.49512 11.7357 5.59922 11.7357Z" fill="#293FCC"/>
<path d="M6.9168 11.0395C6.84473 11.1169 6.80078 11.2226 6.80078 11.3286C6.80078 11.4343 6.84473 11.5403 6.9168 11.6176C6.99277 11.6908 7.09668 11.7357 7.20078 11.7357C7.30469 11.7357 7.40879 11.6908 7.48477 11.6176C7.55664 11.5403 7.60078 11.4343 7.60078 11.3286C7.60078 11.2226 7.55664 11.1169 7.48477 11.0395C7.33672 10.8888 7.06875 10.8888 6.9168 11.0395Z" fill="#293FCC"/>
<path d="M6.89128 12.4937C6.61823 12.8289 6.18034 12.8289 5.9073 12.4937C5.76647 12.3205 5.51413 12.2967 5.34401 12.44C5.1739 12.5836 5.15026 12.8402 5.29128 13.0134C5.58249 13.371 5.97605 13.5678 6.39929 13.5678C6.82253 13.5678 7.21608 13.371 7.5073 13.0134C7.64831 12.8402 7.62468 12.5836 7.45456 12.44C7.28503 12.2969 7.03249 12.3203 6.89128 12.4937Z" fill="#293FCC"/>
<path d="M17.6008 9.29285C16.0568 9.29285 14.8008 10.5713 14.8008 12.1428C14.8008 13.7144 16.0568 14.9928 17.6008 14.9928C19.1447 14.9928 20.4008 13.7144 20.4008 12.1428C20.4008 10.5713 19.1447 9.29285 17.6008 9.29285ZM17.6008 14.1786C16.498 14.1786 15.6008 13.2653 15.6008 12.1428C15.6008 11.0204 16.498 10.1071 17.6008 10.1071C18.7035 10.1071 19.6008 11.0204 19.6008 12.1428C19.6008 13.2653 18.7035 14.1786 17.6008 14.1786Z" fill="#293FCC"/>
<path d="M16.5164 11.6176C16.5924 11.6908 16.6963 11.7357 16.8004 11.7357C16.9043 11.7357 17.0084 11.6908 17.0844 11.6176C17.1203 11.5769 17.1482 11.5322 17.1684 11.4833C17.1924 11.4343 17.2004 11.3815 17.2004 11.3286C17.2004 11.2226 17.1562 11.1169 17.0844 11.0395C16.9322 10.8888 16.6643 10.8888 16.5164 11.0395C16.4803 11.0801 16.4523 11.1208 16.4322 11.1737C16.4123 11.2226 16.4004 11.2755 16.4004 11.3286C16.4004 11.3815 16.4123 11.4343 16.4322 11.4833C16.4523 11.5322 16.4803 11.5769 16.5164 11.6176Z" fill="#293FCC"/>
<path d="M18.684 11.0395C18.5719 10.9254 18.3959 10.8888 18.2479 10.9539C18.2 10.9743 18.1559 11.0028 18.116 11.0395C18.0799 11.0801 18.052 11.125 18.0318 11.1737C18.0119 11.2226 18 11.2755 18 11.3286C18 11.4344 18.0439 11.5403 18.116 11.6176C18.1559 11.6542 18.2 11.6827 18.2479 11.7031C18.2959 11.7276 18.3479 11.7357 18.4 11.7357C18.5039 11.7357 18.608 11.6908 18.684 11.6176C18.7 11.5972 18.7199 11.5769 18.7318 11.5566C18.7479 11.5322 18.76 11.5077 18.768 11.4833C18.7799 11.4588 18.7879 11.4344 18.792 11.4099C18.7959 11.3815 18.8 11.357 18.8 11.3286C18.8 11.2755 18.792 11.2226 18.768 11.1737C18.7479 11.125 18.7199 11.0801 18.684 11.0395Z" fill="#293FCC"/>
<path d="M17.6005 12.3464C17.1772 12.3464 16.7837 12.5432 16.4925 12.9009C16.3514 13.074 16.3751 13.3307 16.5452 13.4742C16.7153 13.6179 16.9678 13.5943 17.1085 13.4205C17.3815 13.0853 17.8194 13.0853 18.0925 13.4205C18.1716 13.5177 18.2856 13.5678 18.4007 13.5678C18.4907 13.5678 18.5811 13.5372 18.6557 13.4742C18.8258 13.3307 18.8495 13.074 18.7085 12.9009C18.4173 12.5432 18.0237 12.3464 17.6005 12.3464Z" fill="#293FCC"/>
</svg>
