<svg width="49" height="62" viewBox="0 0 49 62" fill="none" xmlns="http://www.w3.org/2000/svg">
<path d="M23.8825 21.8032L19.7367 29.3563C19.3969 29.9747 19.3689 30.717 19.6476 31.3696L23.0413 39.2934C23.4929 40.3484 22.4726 41.3685 21.417 40.9167L13.4936 37.5238C12.8412 37.2444 12.0987 37.273 11.4804 37.6124L3.92726 41.758C2.81841 42.3666 1.54516 41.0934 2.15376 39.9845L6.29942 32.4314C6.63879 31.8131 6.66738 31.0706 6.388 30.4182L2.99504 22.4943C2.54327 21.4393 3.56334 20.4192 4.61843 20.871L12.5422 24.264C13.1947 24.5434 13.9366 24.5148 14.555 24.1753L22.109 20.0297C23.2174 19.4211 24.4905 20.6944 23.8825 21.8032Z" fill="url(#paint0_linear_1000_1767)" stroke="white"/>
<path d="M15.0626 3.74046L13.5873 6.5157C13.2731 7.1068 13.2597 7.81226 13.5353 8.4275L15.0315 11.7669C15.4625 12.7297 14.5374 13.6548 13.575 13.2234L10.2355 11.7271C9.6204 11.4516 8.91494 11.4649 8.32384 11.7791L5.5486 13.2541C4.55702 13.781 3.41036 12.6345 3.93743 11.6429L5.41238 8.86766C5.72657 8.27656 5.73994 7.5711 5.46438 6.95586L3.96809 3.61646C3.53673 2.65367 4.46182 1.7286 5.42461 2.15995L8.764 3.65624C9.37924 3.9318 10.0847 3.91843 10.6758 3.60424L13.451 2.12929C14.4421 1.60232 15.5889 2.74888 15.0626 3.74046Z" fill="#00CDEE" stroke="white"/>
<path d="M47.1775 50.357L45.7024 53.1323C45.3885 53.7234 45.375 54.4288 45.6506 55.0441L47.1465 58.3835C47.5774 59.3463 46.6523 60.2713 45.6899 59.84L42.3501 58.3437C41.7348 58.0681 41.0293 58.0815 40.4389 58.3957L37.6636 59.8706C36.6722 60.3976 35.5255 59.2511 36.0528 58.2595L37.5269 55.4842C37.8418 54.8931 37.8553 54.1877 37.5797 53.5724L36.0828 50.233C35.6518 49.2703 36.5769 48.3452 37.5393 48.7765L40.8791 50.2728C41.4945 50.5484 42.1999 50.535 42.7904 50.2208L45.5656 48.7459C46.557 48.2189 47.7038 49.3655 47.1775 50.357Z" fill="#293FCC" stroke="white"/>
<path d="M45.2764 17.5094L38.7729 30.4617C38.4434 31.1174 38.4548 31.8951 38.777 32.5676L45.1635 45.8875C45.7208 47.0511 44.6258 48.1468 43.4625 47.5889L30.1426 41.203C29.4692 40.8805 28.6923 40.8689 28.0366 41.1981L15.0844 47.7023C14.5219 47.9846 13.8964 47.8198 13.4604 47.3837C13.0243 46.9477 12.8595 46.3223 13.1417 45.7602L19.6456 32.8079C19.975 32.1522 19.9636 31.3745 19.6414 30.702L13.2552 17.382C12.6973 16.2186 13.793 15.1229 14.957 15.6807L28.2769 22.0667C28.9492 22.3892 29.7272 22.4008 30.3829 22.0715L43.3351 15.5673C43.8965 15.285 44.5222 15.4498 44.9584 15.8858C45.3945 16.322 45.5592 16.9473 45.2764 17.5094Z" fill="#293FCC" stroke="white"/>
<defs>
<linearGradient id="paint0_linear_1000_1767" x1="21.6169" y1="22.2949" x2="4.77713" y2="39.1345" gradientUnits="userSpaceOnUse">
<stop stop-color="#293FCC"/>
<stop offset="1" stop-color="#00CDEE"/>
</linearGradient>
</defs>
</svg>
