<svg width="44" height="44" viewBox="0 0 44 44" fill="none" xmlns="http://www.w3.org/2000/svg">
<path d="M21.5059 15.4733L18.561 20.8335C18.3196 21.2724 18.2998 21.7992 18.4977 22.2623L20.9084 27.8856C21.2293 28.6344 20.5044 29.3583 19.7546 29.0377L14.1262 26.6298C13.6628 26.4315 13.1354 26.4518 12.6961 26.6927L7.33079 29.6347C6.54311 30.0667 5.63866 29.1631 6.07098 28.3761L9.01585 23.0159C9.25692 22.577 9.27723 22.0501 9.07877 21.5871L6.66858 15.9637C6.34767 15.215 7.07228 14.4911 7.82176 14.8117L13.4504 17.2196C13.9139 17.4179 14.4409 17.3976 14.8802 17.1567L20.2461 14.2147C21.0335 13.7828 21.9379 14.6864 21.5059 15.4733Z" fill="url(#paint0_linear_1136_689)" stroke="white"/>
<path d="M15.2412 2.65458L14.1932 4.62411C13.97 5.0436 13.9605 5.54425 14.1562 5.98087L15.2191 8.35077C15.5253 9.03403 14.8681 9.69054 14.1845 9.38442L11.8123 8.32254C11.3753 8.12698 10.8742 8.13646 10.4543 8.35944L8.48293 9.40618C7.77856 9.78016 6.96403 8.96647 7.33844 8.26277L8.38616 6.29324C8.60935 5.87375 8.61885 5.3731 8.42311 4.93648L7.36021 2.56658C7.0538 1.88332 7.71093 1.22681 8.39485 1.53293L10.767 2.59481C11.204 2.79037 11.7051 2.78089 12.125 2.55791L14.0964 1.51117C14.8004 1.13719 15.615 1.95088 15.2412 2.65458Z" fill="#00CDEE" stroke="white"/>
<path d="M38.0535 35.7373L37.0056 37.7069C36.7826 38.1264 36.7731 38.627 36.9688 39.0636L38.0314 41.4335C38.3375 42.1168 37.6804 42.7733 36.9968 42.4672L34.6243 41.4053C34.1872 41.2097 33.6861 41.2192 33.2667 41.4422L31.2953 42.4889C30.591 42.8629 29.7764 42.0492 30.151 41.3455L31.1981 39.376C31.4218 38.9565 31.4314 38.4559 31.2357 38.0192L30.1723 35.6493C29.8662 34.9661 30.5233 34.3096 31.207 34.6157L33.5794 35.6776C34.0165 35.8731 34.5176 35.8636 34.9371 35.6407L36.9085 34.5939C37.6127 34.22 38.4273 35.0336 38.0535 35.7373Z" fill="#293FCC" stroke="white"/>
<path d="M36.7015 12.4261L32.0817 21.618C31.8477 22.0834 31.8558 22.6353 32.0847 23.1126L36.6213 32.5654C37.0172 33.3911 36.2394 34.1687 35.413 33.7728L25.9512 29.2409C25.4729 29.012 24.921 29.0038 24.4552 29.2374L15.2547 33.8533C14.8551 34.0537 14.4108 33.9367 14.101 33.6272C13.7912 33.3178 13.6742 32.874 13.8747 32.475L18.4947 23.2831C18.7287 22.8178 18.7206 22.2659 18.4917 21.7886L13.9553 12.3357C13.559 11.51 14.3373 10.7324 15.1642 11.1283L24.6259 15.6603C25.1035 15.8891 25.6562 15.8974 26.122 15.6637L35.3225 11.0478C35.7213 10.8475 36.1658 10.9644 36.4756 11.2739C36.7854 11.5834 36.9024 12.0272 36.7015 12.4261Z" fill="#293FCC" stroke="white"/>
<defs>
<linearGradient id="paint0_linear_1136_689" x1="19.8966" y1="15.8222" x2="7.94581" y2="27.7842" gradientUnits="userSpaceOnUse">
<stop stop-color="#293FCC"/>
<stop offset="1" stop-color="#00CDEE"/>
</linearGradient>
</defs>
</svg>
