<svg width="18" height="18" viewBox="0 0 18 18" fill="none" xmlns="http://www.w3.org/2000/svg">
<g clip-path="url(#clip0_853_7896)">
<path d="M0 0H8.56286C8.56286 2.85429 8.56286 5.70857 8.56286 8.56286H0V0Z" fill="#F25022"/>
<path d="M9.4375 0H18.0004C18.0004 2.85429 18.0004 5.70857 18.0004 8.56286H9.43801C9.43801 5.70857 9.43801 2.85429 9.43801 0H9.4375Z" fill="#80BA01"/>
<path d="M0 9.43665C2.85429 9.43665 5.70857 9.43665 8.56286 9.43665C8.56286 12.2909 8.56286 15.145 8.56286 17.999H0V9.43665Z" fill="#02A4EF"/>
<path d="M9.43801 9.43768C12.292 9.43768 15.1461 9.43768 18.0004 9.43768V18.0005H9.4375C9.4375 15.1463 9.4375 12.2921 9.4375 9.4382L9.43801 9.43768Z" fill="#FFB902"/>
</g>
<defs>
<clipPath id="clip0_853_7896">
<rect width="18" height="18" fill="white"/>
</clipPath>
</defs>
</svg>
