<svg width="1440" height="2546" viewBox="0 0 1440 2546" fill="none" xmlns="http://www.w3.org/2000/svg">
<g opacity="0.41" filter="url(#filter0_f_7347_12966)">
<path d="M1789 1273.33C1789 987.07 1662.58 728.669 1459.54 545.103C1267.52 371.499 1006.96 264.827 720 264.827C129.608 264.827 -349 716.348 -349 1273.33C-349 1559.58 -222.581 1817.99 -19.5392 2001.55C172.483 2175.16 433.037 2281.83 720 2281.83C1310.39 2281.83 1789 1830.31 1789 1273.33Z" fill="#6447FF" fill-opacity="0.5"/>
<path d="M1789 1273.33C1789 987.07 1662.58 728.669 1459.54 545.103C1267.52 371.499 1006.96 264.827 720 264.827C129.608 264.827 -349 716.348 -349 1273.33C-349 1559.58 -222.581 1817.99 -19.5392 2001.55C172.483 2175.16 433.037 2281.83 720 2281.83C1310.39 2281.83 1789 1830.31 1789 1273.33Z" fill="url(#paint0_radial_7347_12966)"/>
<path d="M1789 1273.33C1789 987.07 1662.58 728.669 1459.54 545.103C1267.52 371.499 1006.96 264.827 720 264.827C129.608 264.827 -349 716.348 -349 1273.33C-349 1559.58 -222.581 1817.99 -19.5392 2001.55C172.483 2175.16 433.037 2281.83 720 2281.83C1310.39 2281.83 1789 1830.31 1789 1273.33Z" fill="url(#paint1_radial_7347_12966)"/>
<path d="M1789 1273.33C1789 987.07 1662.58 728.669 1459.54 545.103C1267.52 371.499 1006.96 264.827 720 264.827C129.608 264.827 -349 716.348 -349 1273.33C-349 1559.58 -222.581 1817.99 -19.5392 2001.55C172.483 2175.16 433.037 2281.83 720 2281.83C1310.39 2281.83 1789 1830.31 1789 1273.33Z" fill="url(#paint2_radial_7347_12966)"/>
</g>
<defs>
<filter id="filter0_f_7347_12966" x="-613" y="0.827148" width="2666" height="2545" filterUnits="userSpaceOnUse" color-interpolation-filters="sRGB">
<feFlood flood-opacity="0" result="BackgroundImageFix"/>
<feBlend mode="normal" in="SourceGraphic" in2="BackgroundImageFix" result="shape"/>
<feGaussianBlur stdDeviation="132" result="effect1_foregroundBlur_7347_12966"/>
</filter>
<radialGradient id="paint0_radial_7347_12966" cx="0" cy="0" r="1" gradientUnits="userSpaceOnUse" gradientTransform="translate(1788.96 727.615) rotate(158.49) scale(1151.12 4429.62)">
<stop stop-color="#FF6B9C"/>
<stop offset="1" stop-color="#6447FF" stop-opacity="0"/>
</radialGradient>
<radialGradient id="paint1_radial_7347_12966" cx="0" cy="0" r="1" gradientUnits="userSpaceOnUse" gradientTransform="translate(155.512 2087.37) rotate(-55.7493) scale(1068.02 1733.05)">
<stop stop-color="white"/>
<stop offset="1" stop-color="#6447FF" stop-opacity="0"/>
</radialGradient>
<radialGradient id="paint2_radial_7347_12966" cx="0" cy="0" r="1" gradientUnits="userSpaceOnUse" gradientTransform="translate(-81.9653 1315.96) rotate(5.51837) scale(1783.32 1720.32)">
<stop stop-color="#05E5AD"/>
<stop offset="0.43087" stop-color="#05E5AD" stop-opacity="0.5"/>
<stop offset="1" stop-color="#6447FF" stop-opacity="0"/>
</radialGradient>
</defs>
</svg>
