<svg width="1435" height="859" viewBox="0 0 1435 859" fill="none" xmlns="http://www.w3.org/2000/svg">
<g clip-path="url(#clip0_5152_28669)">
<g opacity="0.41" filter="url(#filter0_f_5152_28669)">
<path d="M-425.417 -38.3017C-422.236 84.0037 -365.341 193.002 -276.536 269.176C-192.549 341.215 -80.0213 383.896 42.6067 380.706C294.9 374.145 494.406 175.91 488.217 -62.064C485.036 -184.369 428.141 -293.368 339.336 -369.542C255.349 -441.581 142.821 -484.261 20.1932 -481.072C-232.1 -474.51 -431.606 -276.275 -425.417 -38.3017Z" fill="#6447FF" fill-opacity="0.5"/>
<path d="M-425.417 -38.3017C-422.236 84.0037 -365.341 193.002 -276.536 269.176C-192.549 341.215 -80.0213 383.896 42.6067 380.706C294.9 374.145 494.406 175.91 488.217 -62.064C485.036 -184.369 428.141 -293.368 339.336 -369.542C255.349 -441.581 142.821 -484.261 20.1932 -481.072C-232.1 -474.51 -431.606 -276.275 -425.417 -38.3017Z" fill="url(#paint0_radial_5152_28669)"/>
</g>
<g opacity="0.5" filter="url(#filter1_f_5152_28669)">
<rect x="119.803" y="695" width="124.023" height="145.102" transform="rotate(61.7368 119.803 695)"/>
</g>
</g>
<defs>
<filter id="filter0_f_5152_28669" x="-555.979" y="-611.661" width="1174.76" height="1122.96" filterUnits="userSpaceOnUse" color-interpolation-filters="sRGB">
<feFlood flood-opacity="0" result="BackgroundImageFix"/>
<feBlend mode="normal" in="SourceGraphic" in2="BackgroundImageFix" result="shape"/>
<feGaussianBlur stdDeviation="65.211" result="effect1_foregroundBlur_5152_28669"/>
</filter>
<filter id="filter1_f_5152_28669" x="-34" y="669" width="238.531" height="229.946" filterUnits="userSpaceOnUse" color-interpolation-filters="sRGB">
<feFlood flood-opacity="0" result="BackgroundImageFix"/>
<feBlend mode="normal" in="SourceGraphic" in2="BackgroundImageFix" result="shape"/>
<feGaussianBlur stdDeviation="13" result="effect1_foregroundBlur_5152_28669"/>
</filter>
<radialGradient id="paint0_radial_5152_28669" cx="0" cy="0" r="1" gradientUnits="userSpaceOnUse" gradientTransform="translate(373.631 -77.3101) rotate(138.054) scale(485.279 468.055)">
<stop stop-color="#05E5AD"/>
<stop offset="0.43087" stop-color="#05E5AD" stop-opacity="0.5"/>
<stop offset="1" stop-color="#6447FF" stop-opacity="0"/>
</radialGradient>
<clipPath id="clip0_5152_28669">
<rect width="1434.03" height="859" fill="white"/>
</clipPath>
</defs>
</svg>
