<svg width="3484" height="1513" viewBox="0 0 3484 1513" fill="none" xmlns="http://www.w3.org/2000/svg">
<g opacity="0.2" filter="url(#filter0_f_14155_37355)">
<path d="M1219.68 625.7C1127.79 639.261 990.287 631.481 933.021 625.896C830.509 631.436 612.091 646.471 558.518 662.292C491.553 682.068 498.042 689.624 507.81 737.653C517.578 785.682 678.605 838.771 782.2 900.335C885.794 961.899 1327.16 993.177 1425.67 1008.09C1524.18 1023.01 2302.18 961.58 2467.83 942.659C2633.47 923.737 2900.53 754.094 2970.54 715.461C3040.55 676.829 2782.48 643.121 2366.84 582.738C1951.19 522.354 2202.77 548.506 2059.8 557.177C1916.84 565.849 1872.89 547.255 1660.41 552.379C1447.94 557.502 1561.74 551.524 1464.7 570.906C1367.66 590.287 1334.55 608.75 1219.68 625.7Z" fill="#05E5AD"/>
</g>
<g filter="url(#filter1_f_14155_37355)">
<path d="M1240.97 558.659C1155.09 568.902 1031.38 558.704 980.263 552.324C886.1 555.033 684.92 563.744 633.506 576.913C569.238 593.375 573.85 600.394 574.539 644.29C575.228 688.186 712.599 740.12 796.299 798.455C879.998 856.791 1276.01 895.259 1363.05 911.06C1450.08 926.862 2168.03 888.676 2321.88 875.233C2475.73 861.79 2747.51 713.595 2817.77 680.055C2888.02 646.515 2659.1 610.001 2291.44 545.651C1923.78 481.3 2148.09 510.795 2016.61 515.433C1885.13 520.071 1848.33 502.164 1654.25 501.996C1460.17 501.829 1564.66 498.978 1473.12 514.398C1381.57 529.818 1348.31 545.854 1240.97 558.659Z" fill="#7304AD" fill-opacity="0.35"/>
</g>
<defs>
<filter id="filter0_f_14155_37355" x="0.125854" y="42.4546" width="3483.44" height="1469.56" filterUnits="userSpaceOnUse" color-interpolation-filters="sRGB">
<feFlood flood-opacity="0" result="BackgroundImageFix"/>
<feBlend mode="normal" in="SourceGraphic" in2="BackgroundImageFix" result="shape"/>
<feGaussianBlur stdDeviation="250.803" result="effect1_foregroundBlur_14155_37355"/>
</filter>
<filter id="filter1_f_14155_37355" x="72.5978" y="0.0775146" width="3259.42" height="1416.36" filterUnits="userSpaceOnUse" color-interpolation-filters="sRGB">
<feFlood flood-opacity="0" result="BackgroundImageFix"/>
<feBlend mode="normal" in="SourceGraphic" in2="BackgroundImageFix" result="shape"/>
<feGaussianBlur stdDeviation="250.803" result="effect1_foregroundBlur_14155_37355"/>
</filter>
</defs>
</svg>
