<svg width="152" height="129" viewBox="0 0 152 129" fill="none" xmlns="http://www.w3.org/2000/svg">
<g filter="url(#filter0_f_1_2)">
<g filter="url(#filter1_iii_1_2)">
<path d="M135.137 91.2068C138.702 80.7214 134.672 68.7922 125.317 58.1106C116.47 48.0087 102.86 39.0228 86.4076 33.4294C52.559 21.9217 19.4965 29.1318 12.5603 49.5337C8.99551 60.0192 13.0255 71.9484 22.3804 82.6299C31.2275 92.7318 44.8373 101.718 61.2895 107.311C95.1381 118.819 128.201 111.609 135.137 91.2068Z" fill="#1BDBB3"/>
<path d="M135.137 91.2068C138.702 80.7214 134.672 68.7922 125.317 58.1106C116.47 48.0087 102.86 39.0228 86.4076 33.4294C52.559 21.9217 19.4965 29.1318 12.5603 49.5337C8.99551 60.0192 13.0255 71.9484 22.3804 82.6299C31.2275 92.7318 44.8373 101.718 61.2895 107.311C95.1381 118.819 128.201 111.609 135.137 91.2068Z" fill="black" fill-opacity="0.2"/>
<path d="M135.137 91.2068C138.702 80.7214 134.672 68.7922 125.317 58.1106C116.47 48.0087 102.86 39.0228 86.4076 33.4294C52.559 21.9217 19.4965 29.1318 12.5603 49.5337C8.99551 60.0192 13.0255 71.9484 22.3804 82.6299C31.2275 92.7318 44.8373 101.718 61.2895 107.311C95.1381 118.819 128.201 111.609 135.137 91.2068Z" fill="url(#paint0_radial_1_2)"/>
<path d="M135.137 91.2068C138.702 80.7214 134.672 68.7922 125.317 58.1106C116.47 48.0087 102.86 39.0228 86.4076 33.4294C52.559 21.9217 19.4965 29.1318 12.5603 49.5337C8.99551 60.0192 13.0255 71.9484 22.3804 82.6299C31.2275 92.7318 44.8373 101.718 61.2895 107.311C95.1381 118.819 128.201 111.609 135.137 91.2068Z" fill="url(#paint1_radial_1_2)"/>
<path d="M135.137 91.2068C138.702 80.7214 134.672 68.7922 125.317 58.1106C116.47 48.0087 102.86 39.0228 86.4076 33.4294C52.559 21.9217 19.4965 29.1318 12.5603 49.5337C8.99551 60.0192 13.0255 71.9484 22.3804 82.6299C31.2275 92.7318 44.8373 101.718 61.2895 107.311C95.1381 118.819 128.201 111.609 135.137 91.2068Z" fill="url(#paint2_radial_1_2)"/>
</g>
<g filter="url(#filter2_iii_1_2)">
<path d="M139.418 78.6141C142.983 68.1286 138.953 56.1994 129.598 45.5178C120.751 35.416 107.141 26.43 90.6888 20.8367C56.8403 9.32893 23.7777 16.5391 16.8416 36.9409C13.2768 47.4264 17.3068 59.3556 26.6616 70.0372C35.5088 80.139 49.1185 89.125 65.5708 94.7183C99.4193 106.226 132.482 99.0159 139.418 78.6141Z" fill="#1BDBB3"/>
<path d="M139.418 78.6141C142.983 68.1286 138.953 56.1994 129.598 45.5178C120.751 35.416 107.141 26.43 90.6888 20.8367C56.8403 9.32893 23.7777 16.5391 16.8416 36.9409C13.2768 47.4264 17.3068 59.3556 26.6616 70.0372C35.5088 80.139 49.1185 89.125 65.5708 94.7183C99.4193 106.226 132.482 99.0159 139.418 78.6141Z" fill="url(#paint3_radial_1_2)"/>
<path d="M139.418 78.6141C142.983 68.1286 138.953 56.1994 129.598 45.5178C120.751 35.416 107.141 26.43 90.6888 20.8367C56.8403 9.32893 23.7777 16.5391 16.8416 36.9409C13.2768 47.4264 17.3068 59.3556 26.6616 70.0372C35.5088 80.139 49.1185 89.125 65.5708 94.7183C99.4193 106.226 132.482 99.0159 139.418 78.6141Z" fill="url(#paint4_radial_1_2)"/>
</g>
<path d="M61.2885 107.312C44.8362 101.719 31.2265 92.7329 22.3793 82.6311L26.6608 70.0376C35.508 80.1395 49.1177 89.1254 65.5699 94.7188L61.2885 107.312Z" fill="#1BDBB3"/>
<path d="M61.2885 107.312C44.8362 101.719 31.2265 92.7329 22.3793 82.6311L26.6608 70.0376C35.508 80.1395 49.1177 89.1254 65.5699 94.7188L61.2885 107.312Z" fill="black" fill-opacity="0.2"/>
<path d="M61.2885 107.312C44.8362 101.719 31.2265 92.7329 22.3793 82.6311L26.6608 70.0376C35.508 80.1395 49.1177 89.1254 65.5699 94.7188L61.2885 107.312Z" fill="url(#paint5_radial_1_2)"/>
<path d="M61.2885 107.312C44.8362 101.719 31.2265 92.7329 22.3793 82.6311L26.6608 70.0376C35.508 80.1395 49.1177 89.1254 65.5699 94.7188L61.2885 107.312Z" fill="url(#paint6_radial_1_2)"/>
<path d="M61.2885 107.312C44.8362 101.719 31.2265 92.7329 22.3793 82.6311L26.6608 70.0376C35.508 80.1395 49.1177 89.1254 65.5699 94.7188L61.2885 107.312Z" fill="url(#paint7_radial_1_2)"/>
<path d="M135.137 91.2072C128.2 111.609 95.1379 118.819 61.2894 107.311L65.5709 94.718C99.4194 106.226 132.482 99.0156 139.418 78.6137L135.137 91.2072Z" fill="#1BDBB3"/>
<path d="M135.137 91.2072C128.2 111.609 95.1379 118.819 61.2894 107.311L65.5709 94.718C99.4194 106.226 132.482 99.0156 139.418 78.6137L135.137 91.2072Z" fill="black" fill-opacity="0.2"/>
<path d="M135.137 91.2072C128.2 111.609 95.1379 118.819 61.2894 107.311L65.5709 94.718C99.4194 106.226 132.482 99.0156 139.418 78.6137L135.137 91.2072Z" fill="url(#paint8_radial_1_2)"/>
<path d="M135.137 91.2072C128.2 111.609 95.1379 118.819 61.2894 107.311L65.5709 94.718C99.4194 106.226 132.482 99.0156 139.418 78.6137L135.137 91.2072Z" fill="url(#paint9_radial_1_2)"/>
<path d="M135.137 91.2072C128.2 111.609 95.1379 118.819 61.2894 107.311L65.5709 94.718C99.4194 106.226 132.482 99.0156 139.418 78.6137L135.137 91.2072Z" fill="url(#paint10_radial_1_2)"/>
<path d="M22.3793 82.6316C13.0244 71.9501 8.99444 60.0209 12.5593 49.5354L16.8407 36.9419C13.2759 47.4274 17.3059 59.3566 26.6608 70.0382L22.3793 82.6316Z" fill="#1BDBB3"/>
<path d="M22.3793 82.6316C13.0244 71.9501 8.99444 60.0209 12.5593 49.5354L16.8407 36.9419C13.2759 47.4274 17.3059 59.3566 26.6608 70.0382L22.3793 82.6316Z" fill="black" fill-opacity="0.2"/>
<path d="M22.3793 82.6316C13.0244 71.9501 8.99444 60.0209 12.5593 49.5354L16.8407 36.9419C13.2759 47.4274 17.3059 59.3566 26.6608 70.0382L22.3793 82.6316Z" fill="url(#paint11_radial_1_2)"/>
<path d="M22.3793 82.6316C13.0244 71.9501 8.99444 60.0209 12.5593 49.5354L16.8407 36.9419C13.2759 47.4274 17.3059 59.3566 26.6608 70.0382L22.3793 82.6316Z" fill="url(#paint12_radial_1_2)"/>
<path d="M22.3793 82.6316C13.0244 71.9501 8.99444 60.0209 12.5593 49.5354L16.8407 36.9419C13.2759 47.4274 17.3059 59.3566 26.6608 70.0382L22.3793 82.6316Z" fill="url(#paint13_radial_1_2)"/>
<path d="M135.137 91.2079C142.073 70.8061 120.256 44.9383 86.4078 33.4305C69.9556 27.8371 53.6891 26.6658 40.5181 29.2821C26.5913 32.0484 16.1255 39.0494 12.5606 49.5348L16.8421 36.9414C20.4069 26.4559 30.8728 19.4549 44.7996 16.6886C57.9706 14.0724 74.2371 15.2437 90.6893 20.8371C124.538 32.3448 146.355 58.2126 139.419 78.6145L135.137 91.2079Z" fill="#684BFE"/>
<path d="M135.137 91.2079C142.073 70.8061 120.256 44.9383 86.4078 33.4305C69.9556 27.8371 53.6891 26.6658 40.5181 29.2821C26.5913 32.0484 16.1255 39.0494 12.5606 49.5348L16.8421 36.9414C20.4069 26.4559 30.8728 19.4549 44.7996 16.6886C57.9706 14.0724 74.2371 15.2437 90.6893 20.8371C124.538 32.3448 146.355 58.2126 139.419 78.6145L135.137 91.2079Z" fill="url(#paint14_radial_1_2)"/>
<path d="M135.137 91.2079C142.073 70.8061 120.256 44.9383 86.4078 33.4305C69.9556 27.8371 53.6891 26.6658 40.5181 29.2821C26.5913 32.0484 16.1255 39.0494 12.5606 49.5348L16.8421 36.9414C20.4069 26.4559 30.8728 19.4549 44.7996 16.6886C57.9706 14.0724 74.2371 15.2437 90.6893 20.8371C124.538 32.3448 146.355 58.2126 139.419 78.6145L135.137 91.2079Z" fill="url(#paint15_radial_1_2)"/>
<path d="M135.137 91.2079C142.073 70.8061 120.256 44.9383 86.4078 33.4305C69.9556 27.8371 53.6891 26.6658 40.5181 29.2821C26.5913 32.0484 16.1255 39.0494 12.5606 49.5348L16.8421 36.9414C20.4069 26.4559 30.8728 19.4549 44.7996 16.6886C57.9706 14.0724 74.2371 15.2437 90.6893 20.8371C124.538 32.3448 146.355 58.2126 139.419 78.6145L135.137 91.2079Z" fill="url(#paint16_linear_1_2)"/>
</g>
<defs>
<filter id="filter0_f_1_2" x="5.27333" y="9.35789" width="141.431" height="109.432" filterUnits="userSpaceOnUse" color-interpolation-filters="sRGB">
<feFlood flood-opacity="0" result="BackgroundImageFix"/>
<feBlend mode="normal" in="SourceGraphic" in2="BackgroundImageFix" result="shape"/>
<feGaussianBlur stdDeviation="3" result="effect1_foregroundBlur_1_2"/>
</filter>
<filter id="filter1_iii_1_2" x="4.52109" y="26.8251" width="148.785" height="85.9648" filterUnits="userSpaceOnUse" color-interpolation-filters="sRGB">
<feFlood flood-opacity="0" result="BackgroundImageFix"/>
<feBlend mode="normal" in="SourceGraphic" in2="BackgroundImageFix" result="shape"/>
<feColorMatrix in="SourceAlpha" type="matrix" values="0 0 0 0 0 0 0 0 0 0 0 0 0 0 0 0 0 0 127 0" result="hardAlpha"/>
<feOffset dx="-6.7533" dy="-1.12555"/>
<feGaussianBlur stdDeviation="5.62775"/>
<feComposite in2="hardAlpha" operator="arithmetic" k2="-1" k3="1"/>
<feColorMatrix type="matrix" values="0 0 0 0 1 0 0 0 0 1 0 0 0 0 1 0 0 0 0.7 0"/>
<feBlend mode="overlay" in2="shape" result="effect1_innerShadow_1_2"/>
<feColorMatrix in="SourceAlpha" type="matrix" values="0 0 0 0 0 0 0 0 0 0 0 0 0 0 0 0 0 0 127 0" result="hardAlpha"/>
<feOffset dx="16.8832" dy="-1.12555"/>
<feGaussianBlur stdDeviation="11.2555"/>
<feComposite in2="hardAlpha" operator="arithmetic" k2="-1" k3="1"/>
<feColorMatrix type="matrix" values="0 0 0 0 0.152941 0 0 0 0 0.113725 0 0 0 0 0.658824 0 0 0 1 0"/>
<feBlend mode="overlay" in2="effect1_innerShadow_1_2" result="effect2_innerShadow_1_2"/>
<feColorMatrix in="SourceAlpha" type="matrix" values="0 0 0 0 0 0 0 0 0 0 0 0 0 0 0 0 0 0 127 0" result="hardAlpha"/>
<feOffset dx="3.37665" dy="-1.12555"/>
<feGaussianBlur stdDeviation="1.12555"/>
<feComposite in2="hardAlpha" operator="arithmetic" k2="-1" k3="1"/>
<feColorMatrix type="matrix" values="0 0 0 0 1 0 0 0 0 1 0 0 0 0 1 0 0 0 1 0"/>
<feBlend mode="overlay" in2="effect2_innerShadow_1_2" result="effect3_innerShadow_1_2"/>
</filter>
<filter id="filter2_iii_1_2" x="8.80234" y="14.2323" width="148.785" height="85.9648" filterUnits="userSpaceOnUse" color-interpolation-filters="sRGB">
<feFlood flood-opacity="0" result="BackgroundImageFix"/>
<feBlend mode="normal" in="SourceGraphic" in2="BackgroundImageFix" result="shape"/>
<feColorMatrix in="SourceAlpha" type="matrix" values="0 0 0 0 0 0 0 0 0 0 0 0 0 0 0 0 0 0 127 0" result="hardAlpha"/>
<feOffset dx="-6.7533" dy="-1.12555"/>
<feGaussianBlur stdDeviation="5.62775"/>
<feComposite in2="hardAlpha" operator="arithmetic" k2="-1" k3="1"/>
<feColorMatrix type="matrix" values="0 0 0 0 1 0 0 0 0 1 0 0 0 0 1 0 0 0 0.7 0"/>
<feBlend mode="overlay" in2="shape" result="effect1_innerShadow_1_2"/>
<feColorMatrix in="SourceAlpha" type="matrix" values="0 0 0 0 0 0 0 0 0 0 0 0 0 0 0 0 0 0 127 0" result="hardAlpha"/>
<feOffset dx="16.8832" dy="-1.12555"/>
<feGaussianBlur stdDeviation="11.2555"/>
<feComposite in2="hardAlpha" operator="arithmetic" k2="-1" k3="1"/>
<feColorMatrix type="matrix" values="0 0 0 0 0.152941 0 0 0 0 0.113725 0 0 0 0 0.658824 0 0 0 1 0"/>
<feBlend mode="overlay" in2="effect1_innerShadow_1_2" result="effect2_innerShadow_1_2"/>
<feColorMatrix in="SourceAlpha" type="matrix" values="0 0 0 0 0 0 0 0 0 0 0 0 0 0 0 0 0 0 127 0" result="hardAlpha"/>
<feOffset dx="3.37665" dy="-1.12555"/>
<feGaussianBlur stdDeviation="1.12555"/>
<feComposite in2="hardAlpha" operator="arithmetic" k2="-1" k3="1"/>
<feColorMatrix type="matrix" values="0 0 0 0 1 0 0 0 0 1 0 0 0 0 1 0 0 0 1 0"/>
<feBlend mode="overlay" in2="effect2_innerShadow_1_2" result="effect3_innerShadow_1_2"/>
</filter>
<radialGradient id="paint0_radial_1_2" cx="0" cy="0" r="1" gradientUnits="userSpaceOnUse" gradientTransform="translate(97.5285 112.293) rotate(-86.0382) scale(57.2214 173.854)">
<stop stop-color="#05E5AD"/>
<stop offset="1" stop-color="#6447FF" stop-opacity="0"/>
</radialGradient>
<radialGradient id="paint1_radial_1_2" cx="0" cy="0" r="1" gradientUnits="userSpaceOnUse" gradientTransform="translate(34.186 27.2481) rotate(24.6184) scale(120.783 74.1224)">
<stop stop-color="#FF6B9C"/>
<stop offset="1" stop-color="#6447FF" stop-opacity="0"/>
</radialGradient>
<radialGradient id="paint2_radial_1_2" cx="0" cy="0" r="1" gradientUnits="userSpaceOnUse" gradientTransform="translate(134.448 65.6843) rotate(177.139) scale(57.716 95.7561)">
<stop stop-color="white"/>
<stop offset="1" stop-color="#6447FF" stop-opacity="0"/>
</radialGradient>
<radialGradient id="paint3_radial_1_2" cx="0" cy="0" r="1" gradientUnits="userSpaceOnUse" gradientTransform="translate(38.4672 14.6554) rotate(24.6184) scale(120.783 74.1224)">
<stop stop-color="#FAFAFF"/>
<stop offset="1" stop-color="#6447FF" stop-opacity="0"/>
</radialGradient>
<radialGradient id="paint4_radial_1_2" cx="0" cy="0" r="1" gradientUnits="userSpaceOnUse" gradientTransform="translate(138.729 53.0915) rotate(177.139) scale(57.716 95.7561)">
<stop stop-color="white"/>
<stop offset="1" stop-color="#6447FF" stop-opacity="0"/>
</radialGradient>
<radialGradient id="paint5_radial_1_2" cx="0" cy="0" r="1" gradientUnits="userSpaceOnUse" gradientTransform="translate(52.5422 102.068) rotate(-87.6954) scale(17.8489 59.6513)">
<stop stop-color="#05E5AD"/>
<stop offset="1" stop-color="#6447FF" stop-opacity="0"/>
</radialGradient>
<radialGradient id="paint6_radial_1_2" cx="0" cy="0" r="1" gradientUnits="userSpaceOnUse" gradientTransform="translate(29.9257 74.7283) rotate(24.0058) scale(41.7358 22.9581)">
<stop stop-color="#FF6B9C"/>
<stop offset="1" stop-color="#6447FF" stop-opacity="0"/>
</radialGradient>
<radialGradient id="paint7_radial_1_2" cx="0" cy="0" r="1" gradientUnits="userSpaceOnUse" gradientTransform="translate(64.6548 87.8812) rotate(179.24) scale(19.691 30.039)">
<stop stop-color="white"/>
<stop offset="1" stop-color="#6447FF" stop-opacity="0"/>
</radialGradient>
<radialGradient id="paint8_radial_1_2" cx="0" cy="0" r="1" gradientUnits="userSpaceOnUse" gradientTransform="translate(110.434 119.099) rotate(-82.3815) scale(37.8036 88.2163)">
<stop stop-color="#05E5AD"/>
<stop offset="1" stop-color="#6447FF" stop-opacity="0"/>
</radialGradient>
<radialGradient id="paint9_radial_1_2" cx="0" cy="0" r="1" gradientUnits="userSpaceOnUse" gradientTransform="translate(82.062 66.8731) rotate(26.5884) scale(60.6406 49.4915)">
<stop stop-color="#FF6B9C"/>
<stop offset="1" stop-color="#6447FF" stop-opacity="0"/>
</radialGradient>
<radialGradient id="paint10_radial_1_2" cx="0" cy="0" r="1" gradientUnits="userSpaceOnUse" gradientTransform="translate(131.967 86.7557) rotate(170.767) scale(30.3834 60.977)">
<stop stop-color="white"/>
<stop offset="1" stop-color="#6447FF" stop-opacity="0"/>
</radialGradient>
<radialGradient id="paint11_radial_1_2" cx="0" cy="0" r="1" gradientUnits="userSpaceOnUse" gradientTransform="translate(19.3633 77.7057) rotate(-75.6083) scale(29.4883 27.6306)">
<stop stop-color="#05E5AD"/>
<stop offset="1" stop-color="#6447FF" stop-opacity="0"/>
</radialGradient>
<radialGradient id="paint12_radial_1_2" cx="0" cy="0" r="1" gradientUnits="userSpaceOnUse" gradientTransform="translate(16.9069 43.1154) rotate(38.2136) scale(19.6347 37.3446)">
<stop stop-color="#FF6B9C"/>
<stop offset="1" stop-color="#6447FF" stop-opacity="0"/>
</radialGradient>
<radialGradient id="paint13_radial_1_2" cx="0" cy="0" r="1" gradientUnits="userSpaceOnUse" gradientTransform="translate(31.8567 50.5097) rotate(144.939) scale(14.0105 32.3077)">
<stop stop-color="white"/>
<stop offset="1" stop-color="#6447FF" stop-opacity="0"/>
</radialGradient>
<radialGradient id="paint14_radial_1_2" cx="0" cy="0" r="1" gradientUnits="userSpaceOnUse" gradientTransform="translate(41.346 54.4008) rotate(-49.694) scale(39.8707 167.285)">
<stop stop-color="#05E5AD"/>
<stop offset="1" stop-color="#6447FF" stop-opacity="0"/>
</radialGradient>
<radialGradient id="paint15_radial_1_2" cx="0" cy="0" r="1" gradientUnits="userSpaceOnUse" gradientTransform="translate(140.035 49.7367) rotate(-156.089) scale(62.2 25.7388)">
<stop stop-color="#05E5AD"/>
<stop offset="1" stop-color="#6447FF" stop-opacity="0"/>
</radialGradient>
<linearGradient id="paint16_linear_1_2" x1="31.9526" y1="28.5827" x2="90.6893" y2="20.8371" gradientUnits="userSpaceOnUse">
<stop stop-color="#1E0F71" stop-opacity="0.34"/>
<stop offset="1" stop-color="white" stop-opacity="0"/>
</linearGradient>
</defs>
</svg>
