<svg width="240" height="203" viewBox="0 0 240 203" fill="none" xmlns="http://www.w3.org/2000/svg">
<g filter="url(#filter0_f_703_4302)">
<g filter="url(#filter1_iii_703_4302)">
<path d="M213.285 143.951C218.911 127.402 212.551 108.575 197.786 91.716C183.823 75.7723 162.342 61.5899 136.376 52.7619C82.9532 34.5994 30.771 45.9791 19.8237 78.1791C14.1974 94.7282 20.5579 113.556 35.3226 130.415C49.286 146.358 70.7661 160.541 96.7325 169.369C150.155 187.531 202.338 176.151 213.285 143.951Z" fill="#1BDBB3"/>
<path d="M213.285 143.951C218.911 127.402 212.551 108.575 197.786 91.716C183.823 75.7723 162.342 61.5899 136.376 52.7619C82.9532 34.5994 30.771 45.9791 19.8237 78.1791C14.1974 94.7282 20.5579 113.556 35.3226 130.415C49.286 146.358 70.7661 160.541 96.7325 169.369C150.155 187.531 202.338 176.151 213.285 143.951Z" fill="black" fill-opacity="0.2"/>
<path d="M213.285 143.951C218.911 127.402 212.551 108.575 197.786 91.716C183.823 75.7723 162.342 61.5899 136.376 52.7619C82.9532 34.5994 30.771 45.9791 19.8237 78.1791C14.1974 94.7282 20.5579 113.556 35.3226 130.415C49.286 146.358 70.7661 160.541 96.7325 169.369C150.155 187.531 202.338 176.151 213.285 143.951Z" fill="url(#paint0_radial_703_4302)"/>
<path d="M213.285 143.951C218.911 127.402 212.551 108.575 197.786 91.716C183.823 75.7723 162.342 61.5899 136.376 52.7619C82.9532 34.5994 30.771 45.9791 19.8237 78.1791C14.1974 94.7282 20.5579 113.556 35.3226 130.415C49.286 146.358 70.7661 160.541 96.7325 169.369C150.155 187.531 202.338 176.151 213.285 143.951Z" fill="url(#paint1_radial_703_4302)"/>
<path d="M213.285 143.951C218.911 127.402 212.551 108.575 197.786 91.716C183.823 75.7723 162.342 61.5899 136.376 52.7619C82.9532 34.5994 30.771 45.9791 19.8237 78.1791C14.1974 94.7282 20.5579 113.556 35.3226 130.415C49.286 146.358 70.7661 160.541 96.7325 169.369C150.155 187.531 202.338 176.151 213.285 143.951Z" fill="url(#paint2_radial_703_4302)"/>
</g>
<g filter="url(#filter2_iii_703_4302)">
<path d="M220.042 124.076C225.668 107.527 219.307 88.6995 204.543 71.841C190.579 55.8973 169.099 41.7149 143.133 32.8869C89.71 14.7244 37.5278 26.1041 26.5806 58.3041C20.9543 74.8532 27.3148 93.6809 42.0794 110.54C56.0428 126.483 77.5229 140.666 103.489 149.494C156.912 167.656 209.094 156.276 220.042 124.076Z" fill="#1BDBB3"/>
<path d="M220.042 124.076C225.668 107.527 219.307 88.6995 204.543 71.841C190.579 55.8973 169.099 41.7149 143.133 32.8869C89.71 14.7244 37.5278 26.1041 26.5806 58.3041C20.9543 74.8532 27.3148 93.6809 42.0794 110.54C56.0428 126.483 77.5229 140.666 103.489 149.494C156.912 167.656 209.094 156.276 220.042 124.076Z" fill="url(#paint3_radial_703_4302)"/>
<path d="M220.042 124.076C225.668 107.527 219.307 88.6995 204.543 71.841C190.579 55.8973 169.099 41.7149 143.133 32.8869C89.71 14.7244 37.5278 26.1041 26.5806 58.3041C20.9543 74.8532 27.3148 93.6809 42.0794 110.54C56.0428 126.483 77.5229 140.666 103.489 149.494C156.912 167.656 209.094 156.276 220.042 124.076Z" fill="url(#paint4_radial_703_4302)"/>
</g>
<path d="M96.7311 169.371C70.7647 160.543 49.2846 146.361 35.3212 130.417L42.0786 110.541C56.042 126.484 77.5221 140.667 103.489 149.495L96.7311 169.371Z" fill="#1BDBB3"/>
<path d="M96.7311 169.371C70.7647 160.543 49.2846 146.361 35.3212 130.417L42.0786 110.541C56.042 126.484 77.5221 140.667 103.489 149.495L96.7311 169.371Z" fill="black" fill-opacity="0.2"/>
<path d="M96.7311 169.371C70.7647 160.543 49.2846 146.361 35.3212 130.417L42.0786 110.541C56.042 126.484 77.5221 140.667 103.489 149.495L96.7311 169.371Z" fill="url(#paint5_radial_703_4302)"/>
<path d="M96.7311 169.371C70.7647 160.543 49.2846 146.361 35.3212 130.417L42.0786 110.541C56.042 126.484 77.5221 140.667 103.489 149.495L96.7311 169.371Z" fill="url(#paint6_radial_703_4302)"/>
<path d="M96.7311 169.371C70.7647 160.543 49.2846 146.361 35.3212 130.417L42.0786 110.541C56.042 126.484 77.5221 140.667 103.489 149.495L96.7311 169.371Z" fill="url(#paint7_radial_703_4302)"/>
<path d="M213.285 143.952C202.337 176.152 150.155 187.532 96.7324 169.369L103.49 149.493C156.913 167.656 209.095 156.276 220.042 124.076L213.285 143.952Z" fill="#1BDBB3"/>
<path d="M213.285 143.952C202.337 176.152 150.155 187.532 96.7324 169.369L103.49 149.493C156.913 167.656 209.095 156.276 220.042 124.076L213.285 143.952Z" fill="black" fill-opacity="0.2"/>
<path d="M213.285 143.952C202.337 176.152 150.155 187.532 96.7324 169.369L103.49 149.493C156.913 167.656 209.095 156.276 220.042 124.076L213.285 143.952Z" fill="url(#paint8_radial_703_4302)"/>
<path d="M213.285 143.952C202.337 176.152 150.155 187.532 96.7324 169.369L103.49 149.493C156.913 167.656 209.095 156.276 220.042 124.076L213.285 143.952Z" fill="url(#paint9_radial_703_4302)"/>
<path d="M213.285 143.952C202.337 176.152 150.155 187.532 96.7324 169.369L103.49 149.493C156.913 167.656 209.095 156.276 220.042 124.076L213.285 143.952Z" fill="url(#paint10_radial_703_4302)"/>
<path d="M35.3207 130.418C20.556 113.559 14.1955 94.7312 19.8218 78.1822L26.5792 58.3061C20.9529 74.8551 27.3135 93.6829 42.0781 110.541L35.3207 130.418Z" fill="#1BDBB3"/>
<path d="M35.3207 130.418C20.556 113.559 14.1955 94.7312 19.8218 78.1822L26.5792 58.3061C20.9529 74.8551 27.3135 93.6829 42.0781 110.541L35.3207 130.418Z" fill="black" fill-opacity="0.2"/>
<path d="M35.3207 130.418C20.556 113.559 14.1955 94.7312 19.8218 78.1822L26.5792 58.3061C20.9529 74.8551 27.3135 93.6829 42.0781 110.541L35.3207 130.418Z" fill="url(#paint11_radial_703_4302)"/>
<path d="M35.3207 130.418C20.556 113.559 14.1955 94.7312 19.8218 78.1822L26.5792 58.3061C20.9529 74.8551 27.3135 93.6829 42.0781 110.541L35.3207 130.418Z" fill="url(#paint12_radial_703_4302)"/>
<path d="M35.3207 130.418C20.556 113.559 14.1955 94.7312 19.8218 78.1822L26.5792 58.3061C20.9529 74.8551 27.3135 93.6829 42.0781 110.541L35.3207 130.418Z" fill="url(#paint13_radial_703_4302)"/>
<path d="M213.285 143.953C224.232 111.753 189.799 70.9262 136.376 52.7637C110.41 43.9357 84.7368 42.0871 63.9492 46.2162C41.9687 50.5823 25.4506 61.6319 19.8243 78.1809L26.5817 58.3048C32.208 41.7557 48.7261 30.7062 70.7066 26.3401C91.4942 22.2109 117.168 24.0596 143.134 32.8876C196.557 51.0501 230.99 91.877 220.043 124.077L213.285 143.953Z" fill="#684BFE"/>
<path d="M213.285 143.953C224.232 111.753 189.799 70.9262 136.376 52.7637C110.41 43.9357 84.7368 42.0871 63.9492 46.2162C41.9687 50.5823 25.4506 61.6319 19.8243 78.1809L26.5817 58.3048C32.208 41.7557 48.7261 30.7062 70.7066 26.3401C91.4942 22.2109 117.168 24.0596 143.134 32.8876C196.557 51.0501 230.99 91.877 220.043 124.077L213.285 143.953Z" fill="url(#paint14_radial_703_4302)"/>
<path d="M213.285 143.953C224.232 111.753 189.799 70.9262 136.376 52.7637C110.41 43.9357 84.7368 42.0871 63.9492 46.2162C41.9687 50.5823 25.4506 61.6319 19.8243 78.1809L26.5817 58.3048C32.208 41.7557 48.7261 30.7062 70.7066 26.3401C91.4942 22.2109 117.168 24.0596 143.134 32.8876C196.557 51.0501 230.99 91.877 220.043 124.077L213.285 143.953Z" fill="url(#paint15_radial_703_4302)"/>
<path d="M213.285 143.953C224.232 111.753 189.799 70.9262 136.376 52.7637C110.41 43.9357 84.7368 42.0871 63.9492 46.2162C41.9687 50.5823 25.4506 61.6319 19.8243 78.1809L26.5817 58.3048C32.208 41.7557 48.7261 30.7062 70.7066 26.3401C91.4942 22.2109 117.168 24.0596 143.134 32.8876C196.557 51.0501 230.99 91.877 220.043 124.077L213.285 143.953Z" fill="url(#paint16_linear_703_4302)"/>
</g>
<defs>
<filter id="filter0_f_703_4302" x="13.792" y="20.2402" width="212.28" height="161.776" filterUnits="userSpaceOnUse" color-interpolation-filters="sRGB">
<feFlood flood-opacity="0" result="BackgroundImageFix"/>
<feBlend mode="normal" in="SourceGraphic" in2="BackgroundImageFix" result="shape"/>
<feGaussianBlur stdDeviation="2" result="effect1_foregroundBlur_703_4302"/>
</filter>
<filter id="filter1_iii_703_4302" x="11.0406" y="42.9897" width="221.157" height="135.026" filterUnits="userSpaceOnUse" color-interpolation-filters="sRGB">
<feFlood flood-opacity="0" result="BackgroundImageFix"/>
<feBlend mode="normal" in="SourceGraphic" in2="BackgroundImageFix" result="shape"/>
<feColorMatrix in="SourceAlpha" type="matrix" values="0 0 0 0 0 0 0 0 0 0 0 0 0 0 0 0 0 0 127 0" result="hardAlpha"/>
<feOffset dx="-6.7533" dy="-1.12555"/>
<feGaussianBlur stdDeviation="5.62775"/>
<feComposite in2="hardAlpha" operator="arithmetic" k2="-1" k3="1"/>
<feColorMatrix type="matrix" values="0 0 0 0 1 0 0 0 0 1 0 0 0 0 1 0 0 0 0.7 0"/>
<feBlend mode="overlay" in2="shape" result="effect1_innerShadow_703_4302"/>
<feColorMatrix in="SourceAlpha" type="matrix" values="0 0 0 0 0 0 0 0 0 0 0 0 0 0 0 0 0 0 127 0" result="hardAlpha"/>
<feOffset dx="16.8832" dy="-1.12555"/>
<feGaussianBlur stdDeviation="11.2555"/>
<feComposite in2="hardAlpha" operator="arithmetic" k2="-1" k3="1"/>
<feColorMatrix type="matrix" values="0 0 0 0 0.152941 0 0 0 0 0.113725 0 0 0 0 0.658824 0 0 0 1 0"/>
<feBlend mode="overlay" in2="effect1_innerShadow_703_4302" result="effect2_innerShadow_703_4302"/>
<feColorMatrix in="SourceAlpha" type="matrix" values="0 0 0 0 0 0 0 0 0 0 0 0 0 0 0 0 0 0 127 0" result="hardAlpha"/>
<feOffset dx="3.37665" dy="-1.12555"/>
<feGaussianBlur stdDeviation="1.12555"/>
<feComposite in2="hardAlpha" operator="arithmetic" k2="-1" k3="1"/>
<feColorMatrix type="matrix" values="0 0 0 0 1 0 0 0 0 1 0 0 0 0 1 0 0 0 1 0"/>
<feBlend mode="overlay" in2="effect2_innerShadow_703_4302" result="effect3_innerShadow_703_4302"/>
</filter>
<filter id="filter2_iii_703_4302" x="17.7975" y="23.1147" width="221.157" height="135.026" filterUnits="userSpaceOnUse" color-interpolation-filters="sRGB">
<feFlood flood-opacity="0" result="BackgroundImageFix"/>
<feBlend mode="normal" in="SourceGraphic" in2="BackgroundImageFix" result="shape"/>
<feColorMatrix in="SourceAlpha" type="matrix" values="0 0 0 0 0 0 0 0 0 0 0 0 0 0 0 0 0 0 127 0" result="hardAlpha"/>
<feOffset dx="-6.7533" dy="-1.12555"/>
<feGaussianBlur stdDeviation="5.62775"/>
<feComposite in2="hardAlpha" operator="arithmetic" k2="-1" k3="1"/>
<feColorMatrix type="matrix" values="0 0 0 0 1 0 0 0 0 1 0 0 0 0 1 0 0 0 0.7 0"/>
<feBlend mode="overlay" in2="shape" result="effect1_innerShadow_703_4302"/>
<feColorMatrix in="SourceAlpha" type="matrix" values="0 0 0 0 0 0 0 0 0 0 0 0 0 0 0 0 0 0 127 0" result="hardAlpha"/>
<feOffset dx="16.8832" dy="-1.12555"/>
<feGaussianBlur stdDeviation="11.2555"/>
<feComposite in2="hardAlpha" operator="arithmetic" k2="-1" k3="1"/>
<feColorMatrix type="matrix" values="0 0 0 0 0.152941 0 0 0 0 0.113725 0 0 0 0 0.658824 0 0 0 1 0"/>
<feBlend mode="overlay" in2="effect1_innerShadow_703_4302" result="effect2_innerShadow_703_4302"/>
<feColorMatrix in="SourceAlpha" type="matrix" values="0 0 0 0 0 0 0 0 0 0 0 0 0 0 0 0 0 0 127 0" result="hardAlpha"/>
<feOffset dx="3.37665" dy="-1.12555"/>
<feGaussianBlur stdDeviation="1.12555"/>
<feComposite in2="hardAlpha" operator="arithmetic" k2="-1" k3="1"/>
<feColorMatrix type="matrix" values="0 0 0 0 1 0 0 0 0 1 0 0 0 0 1 0 0 0 1 0"/>
<feBlend mode="overlay" in2="effect2_innerShadow_703_4302" result="effect3_innerShadow_703_4302"/>
</filter>
<radialGradient id="paint0_radial_703_4302" cx="0" cy="0" r="1" gradientUnits="userSpaceOnUse" gradientTransform="translate(153.928 177.231) rotate(-86.0382) scale(90.3119 274.391)">
<stop stop-color="#05E5AD"/>
<stop offset="1" stop-color="#6447FF" stop-opacity="0"/>
</radialGradient>
<radialGradient id="paint1_radial_703_4302" cx="0" cy="0" r="1" gradientUnits="userSpaceOnUse" gradientTransform="translate(53.9552 43.0061) rotate(24.6184) scale(190.63 116.987)">
<stop stop-color="#FF6B9C"/>
<stop offset="1" stop-color="#6447FF" stop-opacity="0"/>
</radialGradient>
<radialGradient id="paint2_radial_703_4302" cx="0" cy="0" r="1" gradientUnits="userSpaceOnUse" gradientTransform="translate(212.197 103.669) rotate(177.139) scale(91.0925 151.131)">
<stop stop-color="white"/>
<stop offset="1" stop-color="#6447FF" stop-opacity="0"/>
</radialGradient>
<radialGradient id="paint3_radial_703_4302" cx="0" cy="0" r="1" gradientUnits="userSpaceOnUse" gradientTransform="translate(60.7121 23.1311) rotate(24.6184) scale(190.63 116.987)">
<stop stop-color="#FAFAFF"/>
<stop offset="1" stop-color="#6447FF" stop-opacity="0"/>
</radialGradient>
<radialGradient id="paint4_radial_703_4302" cx="0" cy="0" r="1" gradientUnits="userSpaceOnUse" gradientTransform="translate(218.954 83.7944) rotate(177.139) scale(91.0925 151.131)">
<stop stop-color="white"/>
<stop offset="1" stop-color="#6447FF" stop-opacity="0"/>
</radialGradient>
<radialGradient id="paint5_radial_703_4302" cx="0" cy="0" r="1" gradientUnits="userSpaceOnUse" gradientTransform="translate(82.927 161.094) rotate(-87.6954) scale(28.1708 94.1469)">
<stop stop-color="#05E5AD"/>
<stop offset="1" stop-color="#6447FF" stop-opacity="0"/>
</radialGradient>
<radialGradient id="paint6_radial_703_4302" cx="0" cy="0" r="1" gradientUnits="userSpaceOnUse" gradientTransform="translate(47.2315 117.944) rotate(24.0058) scale(65.8712 36.2345)">
<stop stop-color="#FF6B9C"/>
<stop offset="1" stop-color="#6447FF" stop-opacity="0"/>
</radialGradient>
<radialGradient id="paint7_radial_703_4302" cx="0" cy="0" r="1" gradientUnits="userSpaceOnUse" gradientTransform="translate(102.044 138.703) rotate(179.24) scale(31.078 47.4101)">
<stop stop-color="white"/>
<stop offset="1" stop-color="#6447FF" stop-opacity="0"/>
</radialGradient>
<radialGradient id="paint8_radial_703_4302" cx="0" cy="0" r="1" gradientUnits="userSpaceOnUse" gradientTransform="translate(174.297 187.974) rotate(-82.3815) scale(59.665 139.231)">
<stop stop-color="#05E5AD"/>
<stop offset="1" stop-color="#6447FF" stop-opacity="0"/>
</radialGradient>
<radialGradient id="paint9_radial_703_4302" cx="0" cy="0" r="1" gradientUnits="userSpaceOnUse" gradientTransform="translate(129.518 105.546) rotate(26.5884) scale(95.7084 78.1119)">
<stop stop-color="#FF6B9C"/>
<stop offset="1" stop-color="#6447FF" stop-opacity="0"/>
</radialGradient>
<radialGradient id="paint10_radial_703_4302" cx="0" cy="0" r="1" gradientUnits="userSpaceOnUse" gradientTransform="translate(208.282 136.926) rotate(170.767) scale(47.9537 96.2393)">
<stop stop-color="white"/>
<stop offset="1" stop-color="#6447FF" stop-opacity="0"/>
</radialGradient>
<radialGradient id="paint11_radial_703_4302" cx="0" cy="0" r="1" gradientUnits="userSpaceOnUse" gradientTransform="translate(30.5606 122.643) rotate(-75.6083) scale(46.5411 43.609)">
<stop stop-color="#05E5AD"/>
<stop offset="1" stop-color="#6447FF" stop-opacity="0"/>
</radialGradient>
<radialGradient id="paint12_radial_703_4302" cx="0" cy="0" r="1" gradientUnits="userSpaceOnUse" gradientTransform="translate(26.6836 68.0495) rotate(38.2136) scale(30.9893 58.9406)">
<stop stop-color="#FF6B9C"/>
<stop offset="1" stop-color="#6447FF" stop-opacity="0"/>
</radialGradient>
<radialGradient id="paint13_radial_703_4302" cx="0" cy="0" r="1" gradientUnits="userSpaceOnUse" gradientTransform="translate(50.2788 79.7199) rotate(144.939) scale(22.1126 50.9908)">
<stop stop-color="white"/>
<stop offset="1" stop-color="#6447FF" stop-opacity="0"/>
</radialGradient>
<radialGradient id="paint14_radial_703_4302" cx="0" cy="0" r="1" gradientUnits="userSpaceOnUse" gradientTransform="translate(65.2558 85.8608) rotate(-49.694) scale(62.9275 264.024)">
<stop stop-color="#05E5AD"/>
<stop offset="1" stop-color="#6447FF" stop-opacity="0"/>
</radialGradient>
<radialGradient id="paint15_radial_703_4302" cx="0" cy="0" r="1" gradientUnits="userSpaceOnUse" gradientTransform="translate(221.016 78.4996) rotate(-156.089) scale(98.1696 40.6232)">
<stop stop-color="#05E5AD"/>
<stop offset="1" stop-color="#6447FF" stop-opacity="0"/>
</radialGradient>
<linearGradient id="paint16_linear_703_4302" x1="50.4303" y1="45.1124" x2="143.134" y2="32.8876" gradientUnits="userSpaceOnUse">
<stop stop-color="#1E0F71" stop-opacity="0.34"/>
<stop offset="1" stop-color="white" stop-opacity="0"/>
</linearGradient>
</defs>
</svg>
