<svg width="124" height="105" viewBox="0 0 124 105" fill="none" xmlns="http://www.w3.org/2000/svg">
<g filter="url(#filter0_f_8_2)">
<g filter="url(#filter1_iii_8_2)">
<path d="M112.674 41.1105C109.92 32.4772 101.636 26.6441 90.5591 24.256C80.0832 21.9974 67.1087 22.82 53.9498 27.2691C26.8767 36.4226 9.27442 57.4605 14.634 74.2585C17.3885 82.8917 25.6721 88.7248 36.7492 91.113C47.2251 93.3716 60.1995 92.549 73.3585 88.0999C100.432 78.9463 118.034 57.9084 112.674 41.1105Z" fill="#1BDBB3"/>
<path d="M112.674 41.1105C109.92 32.4772 101.636 26.6441 90.5591 24.256C80.0832 21.9974 67.1087 22.82 53.9498 27.2691C26.8767 36.4226 9.27442 57.4605 14.634 74.2585C17.3885 82.8917 25.6721 88.7248 36.7492 91.113C47.2251 93.3716 60.1995 92.549 73.3585 88.0999C100.432 78.9463 118.034 57.9084 112.674 41.1105Z" fill="black" fill-opacity="0.2"/>
<path d="M112.674 41.1105C109.92 32.4772 101.636 26.6441 90.5591 24.256C80.0832 21.9974 67.1087 22.82 53.9498 27.2691C26.8767 36.4226 9.27442 57.4605 14.634 74.2585C17.3885 82.8917 25.6721 88.7248 36.7492 91.113C47.2251 93.3716 60.1995 92.549 73.3585 88.0999C100.432 78.9463 118.034 57.9084 112.674 41.1105Z" fill="url(#paint0_radial_8_2)"/>
<path d="M112.674 41.1105C109.92 32.4772 101.636 26.6441 90.5591 24.256C80.0832 21.9974 67.1087 22.82 53.9498 27.2691C26.8767 36.4226 9.27442 57.4605 14.634 74.2585C17.3885 82.8917 25.6721 88.7248 36.7492 91.113C47.2251 93.3716 60.1995 92.549 73.3585 88.0999C100.432 78.9463 118.034 57.9084 112.674 41.1105Z" fill="url(#paint1_radial_8_2)"/>
<path d="M112.674 41.1105C109.92 32.4772 101.636 26.6441 90.5591 24.256C80.0832 21.9974 67.1087 22.82 53.9498 27.2691C26.8767 36.4226 9.27442 57.4605 14.634 74.2585C17.3885 82.8917 25.6721 88.7248 36.7492 91.113C47.2251 93.3716 60.1995 92.549 73.3585 88.0999C100.432 78.9463 118.034 57.9084 112.674 41.1105Z" fill="url(#paint2_radial_8_2)"/>
</g>
<g filter="url(#filter2_iii_8_2)">
<path d="M109.366 30.7423C106.611 22.1091 98.3276 16.276 87.2505 13.8878C76.7746 11.6292 63.8002 12.4518 50.6412 16.9009C23.5681 26.0545 5.96583 47.0923 11.3254 63.8903C14.0799 72.5235 22.3635 78.3566 33.4406 80.7448C43.9165 83.0034 56.8909 82.1808 70.0499 77.7317C97.123 68.5781 114.725 47.5403 109.366 30.7423Z" fill="#1BDBB3"/>
<path d="M109.366 30.7423C106.611 22.1091 98.3276 16.276 87.2505 13.8878C76.7746 11.6292 63.8002 12.4518 50.6412 16.9009C23.5681 26.0545 5.96583 47.0923 11.3254 63.8903C14.0799 72.5235 22.3635 78.3566 33.4406 80.7448C43.9165 83.0034 56.8909 82.1808 70.0499 77.7317C97.123 68.5781 114.725 47.5403 109.366 30.7423Z" fill="url(#paint3_radial_8_2)"/>
<path d="M109.366 30.7423C106.611 22.1091 98.3276 16.276 87.2505 13.8878C76.7746 11.6292 63.8002 12.4518 50.6412 16.9009C23.5681 26.0545 5.96583 47.0923 11.3254 63.8903C14.0799 72.5235 22.3635 78.3566 33.4406 80.7448C43.9165 83.0034 56.8909 82.1808 70.0499 77.7317C97.123 68.5781 114.725 47.5403 109.366 30.7423Z" fill="url(#paint4_radial_8_2)"/>
</g>
<path d="M73.3601 88.1005C60.2011 92.5496 47.2267 93.3722 36.7508 91.1136L33.4425 80.7447C43.9184 83.0033 56.8928 82.1807 70.0518 77.7316L73.3601 88.1005Z" fill="#1BDBB3"/>
<path d="M73.3601 88.1005C60.2011 92.5496 47.2267 93.3722 36.7508 91.1136L33.4425 80.7447C43.9184 83.0033 56.8928 82.1807 70.0518 77.7316L73.3601 88.1005Z" fill="black" fill-opacity="0.2"/>
<path d="M73.3601 88.1005C60.2011 92.5496 47.2267 93.3722 36.7508 91.1136L33.4425 80.7447C43.9184 83.0033 56.8928 82.1807 70.0518 77.7316L73.3601 88.1005Z" fill="url(#paint5_radial_8_2)"/>
<path d="M73.3601 88.1005C60.2011 92.5496 47.2267 93.3722 36.7508 91.1136L33.4425 80.7447C43.9184 83.0033 56.8928 82.1807 70.0518 77.7316L73.3601 88.1005Z" fill="url(#paint6_radial_8_2)"/>
<path d="M73.3601 88.1005C60.2011 92.5496 47.2267 93.3722 36.7508 91.1136L33.4425 80.7447C43.9184 83.0033 56.8928 82.1807 70.0518 77.7316L73.3601 88.1005Z" fill="url(#paint7_radial_8_2)"/>
<path d="M112.674 41.1112C118.033 57.9092 100.431 78.9471 73.3579 88.1006L70.0496 77.7317C97.1227 68.5782 114.725 47.5403 109.365 30.7424L112.674 41.1112Z" fill="#1BDBB3"/>
<path d="M112.674 41.1112C118.033 57.9092 100.431 78.9471 73.3579 88.1006L70.0496 77.7317C97.1227 68.5782 114.725 47.5403 109.365 30.7424L112.674 41.1112Z" fill="black" fill-opacity="0.2"/>
<path d="M112.674 41.1112C118.033 57.9092 100.431 78.9471 73.3579 88.1006L70.0496 77.7317C97.1227 68.5782 114.725 47.5403 109.365 30.7424L112.674 41.1112Z" fill="url(#paint8_radial_8_2)"/>
<path d="M112.674 41.1112C118.033 57.9092 100.431 78.9471 73.3579 88.1006L70.0496 77.7317C97.1227 68.5782 114.725 47.5403 109.365 30.7424L112.674 41.1112Z" fill="url(#paint9_radial_8_2)"/>
<path d="M112.674 41.1112C118.033 57.9092 100.431 78.9471 73.3579 88.1006L70.0496 77.7317C97.1227 68.5782 114.725 47.5403 109.365 30.7424L112.674 41.1112Z" fill="url(#paint10_radial_8_2)"/>
<path d="M36.7489 91.1156C25.6718 88.7275 17.3882 82.8944 14.6337 74.2611L11.3254 63.8922C14.0799 72.5255 22.3635 78.3586 33.4406 80.7468L36.7489 91.1156Z" fill="#1BDBB3"/>
<path d="M36.7489 91.1156C25.6718 88.7275 17.3882 82.8944 14.6337 74.2611L11.3254 63.8922C14.0799 72.5255 22.3635 78.3586 33.4406 80.7468L36.7489 91.1156Z" fill="black" fill-opacity="0.2"/>
<path d="M36.7489 91.1156C25.6718 88.7275 17.3882 82.8944 14.6337 74.2611L11.3254 63.8922C14.0799 72.5255 22.3635 78.3586 33.4406 80.7468L36.7489 91.1156Z" fill="url(#paint11_radial_8_2)"/>
<path d="M36.7489 91.1156C25.6718 88.7275 17.3882 82.8944 14.6337 74.2611L11.3254 63.8922C14.0799 72.5255 22.3635 78.3586 33.4406 80.7468L36.7489 91.1156Z" fill="url(#paint12_radial_8_2)"/>
<path d="M36.7489 91.1156C25.6718 88.7275 17.3882 82.8944 14.6337 74.2611L11.3254 63.8922C14.0799 72.5255 22.3635 78.3586 33.4406 80.7468L36.7489 91.1156Z" fill="url(#paint13_radial_8_2)"/>
<path d="M112.674 41.1104C107.315 24.3124 81.0229 18.1154 53.9498 27.269C40.7908 31.7181 29.8693 38.9749 22.7345 47.1878C15.1902 55.872 11.8796 65.6251 14.6341 74.2583L11.3258 63.8895C8.57125 55.2562 11.8819 45.5031 19.4262 36.8189C26.561 28.606 37.4825 21.3492 50.6415 16.9001C77.7146 7.74654 104.006 13.9435 109.366 30.7415L112.674 41.1104Z" fill="#684BFE"/>
<path d="M112.674 41.1104C107.315 24.3124 81.0229 18.1154 53.9498 27.269C40.7908 31.7181 29.8693 38.9749 22.7345 47.1878C15.1902 55.872 11.8796 65.6251 14.6341 74.2583L11.3258 63.8895C8.57125 55.2562 11.8819 45.5031 19.4262 36.8189C26.561 28.606 37.4825 21.3492 50.6415 16.9001C77.7146 7.74654 104.006 13.9435 109.366 30.7415L112.674 41.1104Z" fill="url(#paint14_radial_8_2)"/>
<path d="M112.674 41.1104C107.315 24.3124 81.0229 18.1154 53.9498 27.269C40.7908 31.7181 29.8693 38.9749 22.7345 47.1878C15.1902 55.872 11.8796 65.6251 14.6341 74.2583L11.3258 63.8895C8.57125 55.2562 11.8819 45.5031 19.4262 36.8189C26.561 28.606 37.4825 21.3492 50.6415 16.9001C77.7146 7.74654 104.006 13.9435 109.366 30.7415L112.674 41.1104Z" fill="url(#paint15_radial_8_2)"/>
<path d="M112.674 41.1104C107.315 24.3124 81.0229 18.1154 53.9498 27.269C40.7908 31.7181 29.8693 38.9749 22.7345 47.1878C15.1902 55.872 11.8796 65.6251 14.6341 74.2583L11.3258 63.8895C8.57125 55.2562 11.8819 45.5031 19.4262 36.8189C26.561 28.606 37.4825 21.3492 50.6415 16.9001C77.7146 7.74654 104.006 13.9435 109.366 30.7415L112.674 41.1104Z" fill="url(#paint16_linear_8_2)"/>
</g>
<defs>
<filter id="filter0_f_8_2" x="4.36453" y="6.6709" width="115.271" height="91.6588" filterUnits="userSpaceOnUse" color-interpolation-filters="sRGB">
<feFlood flood-opacity="0" result="BackgroundImageFix"/>
<feBlend mode="normal" in="SourceGraphic" in2="BackgroundImageFix" result="shape"/>
<feGaussianBlur stdDeviation="3" result="effect1_foregroundBlur_8_2"/>
</filter>
<filter id="filter1_iii_8_2" x="6.91983" y="21.9143" width="123.599" height="70.4147" filterUnits="userSpaceOnUse" color-interpolation-filters="sRGB">
<feFlood flood-opacity="0" result="BackgroundImageFix"/>
<feBlend mode="normal" in="SourceGraphic" in2="BackgroundImageFix" result="shape"/>
<feColorMatrix in="SourceAlpha" type="matrix" values="0 0 0 0 0 0 0 0 0 0 0 0 0 0 0 0 0 0 127 0" result="hardAlpha"/>
<feOffset dx="-6.7533" dy="-1.12555"/>
<feGaussianBlur stdDeviation="5.62775"/>
<feComposite in2="hardAlpha" operator="arithmetic" k2="-1" k3="1"/>
<feColorMatrix type="matrix" values="0 0 0 0 1 0 0 0 0 1 0 0 0 0 1 0 0 0 0.7 0"/>
<feBlend mode="overlay" in2="shape" result="effect1_innerShadow_8_2"/>
<feColorMatrix in="SourceAlpha" type="matrix" values="0 0 0 0 0 0 0 0 0 0 0 0 0 0 0 0 0 0 127 0" result="hardAlpha"/>
<feOffset dx="16.8832" dy="-1.12555"/>
<feGaussianBlur stdDeviation="11.2555"/>
<feComposite in2="hardAlpha" operator="arithmetic" k2="-1" k3="1"/>
<feColorMatrix type="matrix" values="0 0 0 0 0.152941 0 0 0 0 0.113725 0 0 0 0 0.658824 0 0 0 1 0"/>
<feBlend mode="overlay" in2="effect1_innerShadow_8_2" result="effect2_innerShadow_8_2"/>
<feColorMatrix in="SourceAlpha" type="matrix" values="0 0 0 0 0 0 0 0 0 0 0 0 0 0 0 0 0 0 127 0" result="hardAlpha"/>
<feOffset dx="3.37665" dy="-1.12555"/>
<feGaussianBlur stdDeviation="1.12555"/>
<feComposite in2="hardAlpha" operator="arithmetic" k2="-1" k3="1"/>
<feColorMatrix type="matrix" values="0 0 0 0 1 0 0 0 0 1 0 0 0 0 1 0 0 0 1 0"/>
<feBlend mode="overlay" in2="effect2_innerShadow_8_2" result="effect3_innerShadow_8_2"/>
</filter>
<filter id="filter2_iii_8_2" x="3.61123" y="11.5462" width="123.599" height="70.4147" filterUnits="userSpaceOnUse" color-interpolation-filters="sRGB">
<feFlood flood-opacity="0" result="BackgroundImageFix"/>
<feBlend mode="normal" in="SourceGraphic" in2="BackgroundImageFix" result="shape"/>
<feColorMatrix in="SourceAlpha" type="matrix" values="0 0 0 0 0 0 0 0 0 0 0 0 0 0 0 0 0 0 127 0" result="hardAlpha"/>
<feOffset dx="-6.7533" dy="-1.12555"/>
<feGaussianBlur stdDeviation="5.62775"/>
<feComposite in2="hardAlpha" operator="arithmetic" k2="-1" k3="1"/>
<feColorMatrix type="matrix" values="0 0 0 0 1 0 0 0 0 1 0 0 0 0 1 0 0 0 0.7 0"/>
<feBlend mode="overlay" in2="shape" result="effect1_innerShadow_8_2"/>
<feColorMatrix in="SourceAlpha" type="matrix" values="0 0 0 0 0 0 0 0 0 0 0 0 0 0 0 0 0 0 127 0" result="hardAlpha"/>
<feOffset dx="16.8832" dy="-1.12555"/>
<feGaussianBlur stdDeviation="11.2555"/>
<feComposite in2="hardAlpha" operator="arithmetic" k2="-1" k3="1"/>
<feColorMatrix type="matrix" values="0 0 0 0 0.152941 0 0 0 0 0.113725 0 0 0 0 0.658824 0 0 0 1 0"/>
<feBlend mode="overlay" in2="effect1_innerShadow_8_2" result="effect2_innerShadow_8_2"/>
<feColorMatrix in="SourceAlpha" type="matrix" values="0 0 0 0 0 0 0 0 0 0 0 0 0 0 0 0 0 0 127 0" result="hardAlpha"/>
<feOffset dx="3.37665" dy="-1.12555"/>
<feGaussianBlur stdDeviation="1.12555"/>
<feComposite in2="hardAlpha" operator="arithmetic" k2="-1" k3="1"/>
<feColorMatrix type="matrix" values="0 0 0 0 1 0 0 0 0 1 0 0 0 0 1 0 0 0 1 0"/>
<feBlend mode="overlay" in2="effect2_innerShadow_8_2" result="effect3_innerShadow_8_2"/>
</filter>
<radialGradient id="paint0_radial_8_2" cx="0" cy="0" r="1" gradientUnits="userSpaceOnUse" gradientTransform="translate(98.8265 73.4883) rotate(-122.244) scale(46.5566 139.744)">
<stop stop-color="#05E5AD"/>
<stop offset="1" stop-color="#6447FF" stop-opacity="0"/>
</radialGradient>
<radialGradient id="paint1_radial_8_2" cx="0" cy="0" r="1" gradientUnits="userSpaceOnUse" gradientTransform="translate(17.7275 48.9788) rotate(-12.6923) scale(96.4027 60.735)">
<stop stop-color="#FF6B9C"/>
<stop offset="1" stop-color="#6447FF" stop-opacity="0"/>
</radialGradient>
<radialGradient id="paint2_radial_8_2" cx="0" cy="0" r="1" gradientUnits="userSpaceOnUse" gradientTransform="translate(100.004 24.7169) rotate(139.361) scale(46.5628 77.624)">
<stop stop-color="white"/>
<stop offset="1" stop-color="#6447FF" stop-opacity="0"/>
</radialGradient>
<radialGradient id="paint3_radial_8_2" cx="0" cy="0" r="1" gradientUnits="userSpaceOnUse" gradientTransform="translate(14.4189 38.6106) rotate(-12.6923) scale(96.4027 60.735)">
<stop stop-color="#FAFAFF"/>
<stop offset="1" stop-color="#6447FF" stop-opacity="0"/>
</radialGradient>
<radialGradient id="paint4_radial_8_2" cx="0" cy="0" r="1" gradientUnits="userSpaceOnUse" gradientTransform="translate(96.6956 14.3487) rotate(139.361) scale(46.5628 77.624)">
<stop stop-color="white"/>
<stop offset="1" stop-color="#6447FF" stop-opacity="0"/>
</radialGradient>
<radialGradient id="paint5_radial_8_2" cx="0" cy="0" r="1" gradientUnits="userSpaceOnUse" gradientTransform="translate(65.2764 88.9769) rotate(-123.882) scale(14.5112 47.9847)">
<stop stop-color="#05E5AD"/>
<stop offset="1" stop-color="#6447FF" stop-opacity="0"/>
</radialGradient>
<radialGradient id="paint6_radial_8_2" cx="0" cy="0" r="1" gradientUnits="userSpaceOnUse" gradientTransform="translate(37.7698 82.2095) rotate(-13.3212) scale(33.3159 18.809)">
<stop stop-color="#FF6B9C"/>
<stop offset="1" stop-color="#6447FF" stop-opacity="0"/>
</radialGradient>
<radialGradient id="paint7_radial_8_2" cx="0" cy="0" r="1" gradientUnits="userSpaceOnUse" gradientTransform="translate(66.1922 73.7001) rotate(141.474) scale(15.8693 24.3763)">
<stop stop-color="white"/>
<stop offset="1" stop-color="#6447FF" stop-opacity="0"/>
</radialGradient>
<radialGradient id="paint8_radial_8_2" cx="0" cy="0" r="1" gradientUnits="userSpaceOnUse" gradientTransform="translate(110.307 71.5846) rotate(-118.637) scale(30.8076 70.7942)">
<stop stop-color="#05E5AD"/>
<stop offset="1" stop-color="#6447FF" stop-opacity="0"/>
</radialGradient>
<radialGradient id="paint9_radial_8_2" cx="0" cy="0" r="1" gradientUnits="userSpaceOnUse" gradientTransform="translate(67.2087 51.3401) rotate(-10.6691) scale(48.381 40.5688)">
<stop stop-color="#FF6B9C"/>
<stop offset="1" stop-color="#6447FF" stop-opacity="0"/>
</radialGradient>
<radialGradient id="paint10_radial_8_2" cx="0" cy="0" r="1" gradientUnits="userSpaceOnUse" gradientTransform="translate(108.522 39.7563) rotate(132.978) scale(24.5909 49.2719)">
<stop stop-color="white"/>
<stop offset="1" stop-color="#6447FF" stop-opacity="0"/>
</radialGradient>
<radialGradient id="paint11_radial_8_2" cx="0" cy="0" r="1" gradientUnits="userSpaceOnUse" gradientTransform="translate(32.4673 89.3739) rotate(-111.985) scale(24.0947 22.1152)">
<stop stop-color="#05E5AD"/>
<stop offset="1" stop-color="#6447FF" stop-opacity="0"/>
</radialGradient>
<radialGradient id="paint12_radial_8_2" cx="0" cy="0" r="1" gradientUnits="userSpaceOnUse" gradientTransform="translate(14.326 67.9071) rotate(1.29111) scale(15.6503 30.641)">
<stop stop-color="#FF6B9C"/>
<stop offset="1" stop-color="#6447FF" stop-opacity="0"/>
</radialGradient>
<radialGradient id="paint13_radial_8_2" cx="0" cy="0" r="1" gradientUnits="userSpaceOnUse" gradientTransform="translate(27.3912 65.3799) rotate(107.497) scale(11.4648 25.8206)">
<stop stop-color="white"/>
<stop offset="1" stop-color="#6447FF" stop-opacity="0"/>
</radialGradient>
<radialGradient id="paint14_radial_8_2" cx="0" cy="0" r="1" gradientUnits="userSpaceOnUse" gradientTransform="translate(35.2994 63.248) rotate(-86.7488) scale(32.711 133.35)">
<stop stop-color="#05E5AD"/>
<stop offset="1" stop-color="#6447FF" stop-opacity="0"/>
</radialGradient>
<radialGradient id="paint15_radial_8_2" cx="0" cy="0" r="1" gradientUnits="userSpaceOnUse" gradientTransform="translate(95.9195 11.5041) rotate(166.581) scale(49.6526 21.0867)">
<stop stop-color="#05E5AD"/>
<stop offset="1" stop-color="#6447FF" stop-opacity="0"/>
</radialGradient>
<linearGradient id="paint16_linear_8_2" x1="16.9439" y1="50.9548" x2="51.5995" y2="17.9047" gradientUnits="userSpaceOnUse">
<stop stop-color="#1E0F71" stop-opacity="0.34"/>
<stop offset="1" stop-color="white" stop-opacity="0"/>
</linearGradient>
</defs>
</svg>
