<svg width="190" height="34" viewBox="0 0 190 34" fill="none" xmlns="http://www.w3.org/2000/svg">
<g clip-path="url(#clip0_781_41)">
<path d="M39.8723 22.3029C39.8723 29.2589 44.8089 33.9711 51.6302 33.9711C53.56 33.9711 55.5346 33.5223 57.3297 32.535V26.3419C55.9385 27.3292 54.2331 28.0472 52.4829 28.0472C49.0273 28.0472 46.4693 25.6239 46.4693 22.3029C46.4693 18.9371 49.0722 16.5586 52.4829 16.5586C54.1883 16.5586 55.759 17.0971 57.2848 18.1742V12.026C55.6692 11.0835 53.6497 10.6348 51.72 10.6348C44.764 10.6348 39.8723 15.6162 39.8723 22.3029Z" fill="white"/>
<path d="M58.3582 22.3029C58.3582 28.8999 63.5191 33.9711 70.3854 33.9711C77.2516 33.9711 82.4126 28.8999 82.4126 22.3029C82.4126 15.7059 77.2516 10.6348 70.3854 10.6348C63.5191 10.6348 58.3582 15.7059 58.3582 22.3029ZM64.8206 22.3029C64.8206 19.1166 67.3337 16.6035 70.3854 16.6035C73.4371 16.6035 75.9502 19.1166 75.9502 22.3029C75.9502 25.4892 73.4371 28.0024 70.3854 28.0024C67.3337 28.0024 64.8206 25.4892 64.8206 22.3029Z" fill="white"/>
<path d="M101.46 1.97363V14.0905C99.9347 11.8018 97.1971 10.6798 94.2801 10.6798C88.3114 10.6798 83.7788 15.751 83.7788 22.3031C83.7788 28.9001 88.3114 33.9264 94.2801 33.9264C97.1971 33.9264 99.9347 32.6698 101.46 30.4259V33.3879H107.968V1.97363H101.46ZM90.286 22.3031C90.286 19.1168 92.7991 16.5588 95.9854 16.5588C99.1717 16.5588 101.685 19.1168 101.685 22.3031C101.685 25.4894 99.1717 28.0474 95.9854 28.0474C92.7991 28.0474 90.286 25.4894 90.286 22.3031Z" fill="white"/>
<path d="M117.558 33.3882V11.2188H111.006V33.3882H117.558Z" fill="white"/>
<path d="M135.034 22.9317C135.034 26.0731 133.418 27.958 130.905 27.958C128.437 27.958 127.001 26.2526 127.001 23.3356V11.2188H120.449V24.9063C120.449 30.4711 123.545 33.9716 128.571 33.9716C131.488 33.9716 133.732 32.6701 135.034 30.5609V33.3882H141.586V11.2188H135.034V22.9317Z" fill="white"/>
<path d="M151.177 21.54C151.177 18.4883 152.703 16.6035 155.037 16.6035C157.281 16.6035 158.537 18.2639 158.537 21.0912V33.3877H165.089V21.4054C165.134 18.4435 166.66 16.6035 168.904 16.6035C171.193 16.6035 172.449 18.2639 172.449 21.0015V33.3877H179.001V19.4756C179.001 14.0903 176.129 10.6348 171.058 10.6348C167.827 10.6348 165.314 12.1606 163.923 14.4942C162.711 12.0708 160.422 10.6348 157.415 10.6348C154.498 10.6348 152.344 11.9811 151.177 14.0006V11.2182H144.625V33.3877H151.177V21.54Z" fill="white"/>
<path d="M184.701 2.28463V3.20372C184.213 2.47132 183.337 2.1123 182.403 2.1123C180.493 2.1123 179.043 3.73507 179.043 5.83175C179.043 7.94279 180.493 9.5512 182.403 9.5512C183.337 9.5512 184.213 9.14909 184.701 8.43106V9.37887H186.755V2.28463H184.701ZM181.125 5.83175C181.125 4.81213 181.929 3.99357 182.949 3.99357C183.969 3.99357 184.773 4.81213 184.773 5.83175C184.773 6.85137 183.969 7.66993 182.949 7.66993C181.929 7.66993 181.125 6.85137 181.125 5.83175Z" fill="white"/>
<path d="M190.269 9.37827V2.28403H188.172V9.37827H190.269ZM190.441 0.230434C190.441 -0.430163 189.896 -0.990234 189.221 -0.990234C188.546 -0.990234 188 -0.430163 188 0.230434C188 0.891031 188.546 1.45111 189.221 1.45111C189.896 1.45111 190.441 0.891031 190.441 0.230434Z" fill="white"/>
<path d="M114.282 1.92773C116.391 1.92773 118.096 3.67795 118.096 5.74232C118.096 7.80668 116.391 9.5569 114.282 9.5569C112.173 9.5569 110.467 7.80668 110.467 5.74232C110.467 3.67795 112.173 1.92773 114.282 1.92773Z" fill="white"/>
<path d="M11.5999 10.79C13.2655 10.79 14.8457 11.1424 16.2771 11.7749C13.1057 13.574 10.893 17.6493 10.893 22.3899C10.893 27.1306 13.1079 31.2059 16.2771 33.0049C14.8457 33.6375 13.2655 33.9898 11.5999 33.9898C5.1937 33.9898 0 28.7961 0 22.3899C0 15.9837 5.1937 10.79 11.5999 10.79Z" fill="#05E5AD"/>
<path d="M11.5999 10.79C13.2655 10.79 14.8457 11.1424 16.2771 11.7749C13.1057 13.574 10.893 17.6493 10.893 22.3899C10.893 27.1306 13.1079 31.2059 16.2771 33.0049C14.8457 33.6375 13.2655 33.9898 11.5999 33.9898C5.1937 33.9898 0 28.7961 0 22.3899C0 15.9837 5.1937 10.79 11.5999 10.79Z" fill="url(#paint0_radial_781_41)"/>
<path d="M20.7479 15.2614C19.5747 13.76 18.0427 12.5541 16.2764 11.7749C17.3905 11.1424 18.6205 10.79 19.914 10.79C21.1353 10.79 22.3018 11.1052 23.3633 11.6698C22.3259 12.4424 21.4263 13.69 20.7457 15.2614H20.7479Z" fill="url(#paint1_radial_781_41)"/>
<path d="M20.7457 29.5186C21.4264 31.0901 22.3259 32.3354 23.3633 33.1102C22.2996 33.6771 21.1353 33.9901 19.914 33.9901C18.6183 33.9901 17.3883 33.6377 16.2764 33.0052C18.0405 32.226 19.5747 31.02 20.7479 29.5186H20.7457Z" fill="url(#paint2_radial_781_41)"/>
<path d="M10.8921 22.3894C10.8921 17.6487 13.107 13.5734 16.2762 11.7744C18.0403 12.5535 19.5745 13.7595 20.7476 15.2609C19.8941 17.2285 19.3863 19.7017 19.3863 22.3894C19.3863 25.0771 19.8963 27.5503 20.7476 29.5179C19.5745 31.0193 18.0425 32.2252 16.2762 33.0044C13.1048 31.2053 10.8921 27.13 10.8921 22.3894Z" fill="#7962FE"/>
<path d="M27.7747 28.0791C28.103 29.8279 28.5779 31.2943 29.1513 32.3295C28.1818 33.3823 27.0459 33.9885 25.829 33.9885C24.9557 33.9885 24.124 33.6756 23.3645 33.1087C25.2358 32.1129 26.7876 30.3291 27.7747 28.0813V28.0791Z" fill="url(#paint3_radial_781_41)"/>
<path d="M23.3645 11.6698C24.124 11.103 24.9557 10.79 25.829 10.79C27.0437 10.79 28.1796 11.3963 29.1513 12.449C28.5801 13.4842 28.1052 14.9506 27.7747 16.6994C26.7876 14.4516 25.2358 12.6679 23.3645 11.672V11.6698Z" fill="url(#paint4_radial_781_41)"/>
<path d="M20.748 29.5174C22.2823 27.5498 23.1993 25.0766 23.1993 22.389C23.1993 19.7013 22.2823 17.2281 20.748 15.2605C21.4287 13.6912 22.3282 12.4437 23.3657 11.6689C25.237 12.6647 26.7888 14.4485 27.7758 16.6962C27.4585 18.3771 27.279 20.3185 27.279 22.3868C27.279 24.4551 27.4607 26.3964 27.7758 28.0773C26.7888 30.3251 25.237 32.1088 23.3657 33.1047C22.3282 32.3321 21.4287 31.0845 20.748 29.5131V29.5174Z" fill="#7962FE"/>
<path d="M20.7473 29.5187C19.8937 27.5511 19.386 25.0779 19.386 22.3902C19.386 19.7025 19.8959 17.2293 20.7473 15.2617C22.2816 17.2293 23.1986 19.7025 23.1986 22.3902C23.1986 25.0779 22.2816 27.5511 20.7473 29.5187Z" fill="#321BB2"/>
<path d="M29.1509 12.449C29.733 11.3963 30.4137 10.79 31.1447 10.79C33.2809 10.79 35.0121 15.9837 35.0121 22.3899C35.0121 28.7961 33.2809 33.9898 31.1447 33.9898C30.4159 33.9898 29.733 33.3836 29.1509 32.3308C31.0222 30.2998 32.2741 26.6097 32.2741 22.3899C32.2741 18.1702 31.0222 14.4779 29.1509 12.449Z" fill="#05E6AD"/>
<path d="M29.1509 12.449C29.733 11.3963 30.4137 10.79 31.1447 10.79C33.2809 10.79 35.0121 15.9837 35.0121 22.3899C35.0121 28.7961 33.2809 33.9898 31.1447 33.9898C30.4159 33.9898 29.733 33.3836 29.1509 32.3308C31.0222 30.2998 32.2741 26.6097 32.2741 22.3899C32.2741 18.1702 31.0222 14.4779 29.1509 12.449Z" fill="url(#paint5_radial_781_41)"/>
<path d="M28.9371 22.3902C28.9371 20.3219 28.5147 18.3805 27.7749 16.6996C28.1032 14.9509 28.5781 13.4845 29.1516 12.4492C31.0229 14.4781 32.2748 18.1726 32.2748 22.3902C32.2748 26.6077 31.0229 30.3022 29.1516 32.3311C28.5803 31.2958 28.1054 29.8294 27.7749 28.0807C28.5125 26.3998 28.9371 24.4584 28.9371 22.3902Z" fill="#7962FE"/>
<path d="M27.7751 28.0802C27.4578 26.3993 27.2783 24.458 27.2783 22.3897C27.2783 20.3214 27.4599 18.3801 27.7751 16.6992C28.5127 18.3801 28.9373 20.3214 28.9373 22.3897C28.9373 24.458 28.5149 26.3993 27.7751 28.0802Z" fill="#321BB2"/>
</g>
<defs>
<radialGradient id="paint0_radial_781_41" cx="0" cy="0" r="1" gradientUnits="userSpaceOnUse" gradientTransform="translate(16.2848 22.422) rotate(-179.2) scale(12.8504 18.7437)">
<stop stop-color="#6447FF"/>
<stop offset="0.0666667" stop-color="#6348FE"/>
<stop offset="0.133333" stop-color="#614DFC"/>
<stop offset="0.2" stop-color="#5C54F8"/>
<stop offset="0.266667" stop-color="#565EF3"/>
<stop offset="0.333333" stop-color="#4E6CEC"/>
<stop offset="0.4" stop-color="#447BE4"/>
<stop offset="0.466667" stop-color="#3A8DDB"/>
<stop offset="0.533333" stop-color="#2F9FD1"/>
<stop offset="0.6" stop-color="#25B1C8"/>
<stop offset="0.666667" stop-color="#1BC0C0"/>
<stop offset="0.733333" stop-color="#13CEB9"/>
<stop offset="0.8" stop-color="#0DD8B4"/>
<stop offset="0.866667" stop-color="#08DFB0"/>
<stop offset="0.933333" stop-color="#06E4AE"/>
<stop offset="1" stop-color="#05E5AD"/>
</radialGradient>
<radialGradient id="paint1_radial_781_41" cx="0" cy="0" r="1" gradientUnits="userSpaceOnUse" gradientTransform="translate(24.7048 13.8986) rotate(-164.055) scale(7.14657 7.34712)">
<stop stop-color="#6447FF"/>
<stop offset="0.0666667" stop-color="#6348FE"/>
<stop offset="0.133333" stop-color="#614DFC"/>
<stop offset="0.2" stop-color="#5C54F8"/>
<stop offset="0.266667" stop-color="#565EF3"/>
<stop offset="0.333333" stop-color="#4E6CEC"/>
<stop offset="0.4" stop-color="#447BE4"/>
<stop offset="0.466667" stop-color="#3A8DDB"/>
<stop offset="0.533333" stop-color="#2F9FD1"/>
<stop offset="0.6" stop-color="#25B1C8"/>
<stop offset="0.666667" stop-color="#1BC0C0"/>
<stop offset="0.733333" stop-color="#13CEB9"/>
<stop offset="0.8" stop-color="#0DD8B4"/>
<stop offset="0.866667" stop-color="#08DFB0"/>
<stop offset="0.933333" stop-color="#06E4AE"/>
<stop offset="1" stop-color="#05E5AD"/>
</radialGradient>
<radialGradient id="paint2_radial_781_41" cx="0" cy="0" r="1" gradientUnits="userSpaceOnUse" gradientTransform="translate(24.7048 32.6272) rotate(-164.055) scale(7.14657 7.34712)">
<stop stop-color="#6447FF"/>
<stop offset="0.0666667" stop-color="#6348FE"/>
<stop offset="0.133333" stop-color="#614DFC"/>
<stop offset="0.2" stop-color="#5C54F8"/>
<stop offset="0.266667" stop-color="#565EF3"/>
<stop offset="0.333333" stop-color="#4E6CEC"/>
<stop offset="0.4" stop-color="#447BE4"/>
<stop offset="0.466667" stop-color="#3A8DDB"/>
<stop offset="0.533333" stop-color="#2F9FD1"/>
<stop offset="0.6" stop-color="#25B1C8"/>
<stop offset="0.666667" stop-color="#1BC0C0"/>
<stop offset="0.733333" stop-color="#13CEB9"/>
<stop offset="0.8" stop-color="#0DD8B4"/>
<stop offset="0.866667" stop-color="#08DFB0"/>
<stop offset="0.933333" stop-color="#06E4AE"/>
<stop offset="1" stop-color="#05E5AD"/>
</radialGradient>
<radialGradient id="paint3_radial_781_41" cx="0" cy="0" r="1" gradientUnits="userSpaceOnUse" gradientTransform="translate(30.9223 32.333) rotate(-156.448) scale(6.85787 10.1681)">
<stop stop-color="#6447FF"/>
<stop offset="0.0666667" stop-color="#6348FE"/>
<stop offset="0.133333" stop-color="#614DFC"/>
<stop offset="0.2" stop-color="#5C54F8"/>
<stop offset="0.266667" stop-color="#565EF3"/>
<stop offset="0.333333" stop-color="#4E6CEC"/>
<stop offset="0.4" stop-color="#447BE4"/>
<stop offset="0.466667" stop-color="#3A8DDB"/>
<stop offset="0.533333" stop-color="#2F9FD1"/>
<stop offset="0.6" stop-color="#25B1C8"/>
<stop offset="0.666667" stop-color="#1BC0C0"/>
<stop offset="0.733333" stop-color="#13CEB9"/>
<stop offset="0.8" stop-color="#0DD8B4"/>
<stop offset="0.866667" stop-color="#08DFB0"/>
<stop offset="0.933333" stop-color="#06E4AE"/>
<stop offset="1" stop-color="#05E5AD"/>
</radialGradient>
<radialGradient id="paint4_radial_781_41" cx="0" cy="0" r="1" gradientUnits="userSpaceOnUse" gradientTransform="translate(30.9223 15.0438) rotate(-156.448) scale(6.85787 10.1681)">
<stop stop-color="#6447FF"/>
<stop offset="0.0666667" stop-color="#6348FE"/>
<stop offset="0.133333" stop-color="#614DFC"/>
<stop offset="0.2" stop-color="#5C54F8"/>
<stop offset="0.266667" stop-color="#565EF3"/>
<stop offset="0.333333" stop-color="#4E6CEC"/>
<stop offset="0.4" stop-color="#447BE4"/>
<stop offset="0.466667" stop-color="#3A8DDB"/>
<stop offset="0.533333" stop-color="#2F9FD1"/>
<stop offset="0.6" stop-color="#25B1C8"/>
<stop offset="0.666667" stop-color="#1BC0C0"/>
<stop offset="0.733333" stop-color="#13CEB9"/>
<stop offset="0.8" stop-color="#0DD8B4"/>
<stop offset="0.866667" stop-color="#08DFB0"/>
<stop offset="0.933333" stop-color="#06E4AE"/>
<stop offset="1" stop-color="#05E5AD"/>
</radialGradient>
<radialGradient id="paint5_radial_781_41" cx="0" cy="0" r="1" gradientUnits="userSpaceOnUse" gradientTransform="translate(31.4127 22.2427) scale(4.09024 20.1767)">
<stop stop-color="#05E5AD"/>
<stop offset="0.32" stop-color="#05E5AD" stop-opacity="0"/>
<stop offset="0.902778" stop-color="#6447FF"/>
</radialGradient>
<clipPath id="clip0_781_41">
<rect width="190" height="34" fill="white"/>
</clipPath>
</defs>
</svg>
