<?xml version="1.0" encoding="UTF-8"?>
<svg width="456px" height="126px" viewBox="0 0 456 126" version="1.1" xmlns="http://www.w3.org/2000/svg" xmlns:xlink="http://www.w3.org/1999/xlink">
    <title>Group</title>
    <g id="Page-1" stroke="none" stroke-width="1" fill="none" fill-rule="evenodd">
        <g id="Group" fill-rule="nonzero">
            <path d="M181.99,96.55 C163.54,96.55 148.53,81.54 148.53,63.09 C148.53,44.64 163.54,29.63 181.99,29.63 C200.44,29.63 215.45,44.64 215.45,63.09 C215.45,81.54 200.44,96.55 181.99,96.55 Z M181.99,43.83 C171.37,43.83 162.73,52.47 162.73,63.09 C162.73,73.71 171.37,82.35 181.99,82.35 C192.61,82.35 201.25,73.71 201.25,63.09 C201.25,52.47 192.61,43.83 181.99,43.83 Z" id="Shape" fill="#7968FA"></path>
            <path d="M261.96,96.55 C243.51,96.55 228.5,81.54 228.5,63.09 C228.5,44.64 243.51,29.63 261.96,29.63 C280.41,29.63 295.42,44.64 295.42,63.09 C295.42,81.54 280.41,96.55 261.96,96.55 Z M261.96,43.83 C251.34,43.83 242.7,52.47 242.7,63.09 C242.7,73.71 251.34,82.35 261.96,82.35 C272.58,82.35 281.22,73.71 281.22,63.09 C281.22,52.47 272.58,43.83 261.96,43.83 Z" id="Shape" fill="#7968FA"></path>
            <path d="M341.93,96.55 C323.48,96.55 308.47,81.54 308.47,63.09 C308.47,44.64 323.48,29.63 341.93,29.63 C360.38,29.63 375.39,44.64 375.39,63.09 C375.39,81.54 360.38,96.55 341.93,96.55 Z M341.93,43.83 C331.31,43.83 322.67,52.47 322.67,63.09 C322.67,73.71 331.31,82.35 341.93,82.35 C352.55,82.35 361.19,73.71 361.19,63.09 C361.19,52.47 352.55,43.83 341.93,43.83 Z" id="Shape" fill="#7968FA"></path>
            <path d="M421.91,96.55 C403.46,96.55 388.45,81.54 388.45,63.09 C388.45,44.64 403.46,29.63 421.91,29.63 C440.36,29.63 455.37,44.64 455.37,63.09 C455.37,81.54 440.36,96.55 421.91,96.55 Z M421.91,43.83 C411.29,43.83 402.65,52.47 402.65,63.09 C402.65,73.71 411.29,82.35 421.91,82.35 C432.53,82.35 441.17,73.71 441.17,63.09 C441.17,52.47 432.53,43.83 421.91,43.83 Z" id="Shape" fill="#7968FA"></path>
            <rect id="Rectangle" fill="#7968FA" x="201.25" y="22.81" width="14.2" height="102.93"></rect>
            <rect id="Rectangle" fill="#7968FA" x="361.19" y="0" width="14.2" height="102.93"></rect>
            <path d="M109.77,63.1 C109.77,85.72 102.66,104.06 93.88,104.06 C90.28,104.06 86.99,100.97 84.3,95.75 C91.12,88.29 95.52,76.45 95.52,63.11 C95.52,49.77 91.12,37.9 84.3,30.44 C86.98,25.22 90.28,22.14 93.88,22.14 C102.66,22.14 109.77,40.47 109.77,63.11" id="Path" fill="#5AE3AE"></path>
            <path d="M95.53,63.11 C95.53,76.46 91.13,88.3 84.3,95.75 C80.49,88.29 78.02,76.45 78.02,63.11 C78.02,49.77 80.49,37.9 84.3,30.44 C91.13,37.9 95.53,49.76 95.53,63.11" id="Path" fill="#7968FA"></path>
            <path d="M55.38,100.26 C50.39,102.68 44.86,104.05 39,104.05 C17.46,104.05 0,85.71 0,63.09 C0,40.47 17.46,22.12 39,22.12 C44.86,22.12 50.39,23.48 55.38,25.91 C45.69,32.38 38.95,46.6 38.95,63.1 C38.95,79.6 45.68,93.8 55.38,100.27" id="Path" fill="#5AE3AE"></path>
            <path d="M78.02,63.11 C78.02,79.59 68.75,93.81 55.37,100.28 C45.68,93.81 38.94,79.59 38.94,63.11 C38.94,46.63 45.67,32.4 55.37,25.92 C68.74,32.41 78.02,46.61 78.02,63.11" id="Path" fill="#7968FA"></path>
            <path d="M84.31,95.74 C79.58,100.96 73.67,104.05 67.25,104.05 C63.01,104.05 58.98,102.7 55.38,100.26 C68.75,93.78 78.03,79.56 78.03,63.09 C78.03,76.44 80.5,88.28 84.31,95.73" id="Path" fill="#5AE3AE"></path>
            <path d="M84.31,30.43 C80.5,37.89 78.03,49.75 78.03,63.1 C78.03,46.6 68.76,32.4 55.38,25.91 C58.98,23.46 63.01,22.11 67.25,22.11 C73.68,22.11 79.58,25.2 84.31,30.42" id="Path" fill="#5AE3AE"></path>
        </g>
    </g>
</svg>