<?xml version="1.0" encoding="UTF-8"?><svg id="Layer_1" xmlns="http://www.w3.org/2000/svg" viewBox="0 0 455.37 125.74"><defs><style>.cls-1{fill:#fff;stroke-width:0px;}</style></defs><path class="cls-1" d="m181.99,96.55c-18.45,0-33.46-15.01-33.46-33.46s15.01-33.46,33.46-33.46,33.46,15.01,33.46,33.46-15.01,33.46-33.46,33.46Zm0-52.72c-10.62,0-19.26,8.64-19.26,19.26s8.64,19.26,19.26,19.26,19.26-8.64,19.26-19.26-8.64-19.26-19.26-19.26Z"/><path class="cls-1" d="m261.96,96.55c-18.45,0-33.46-15.01-33.46-33.46s15.01-33.46,33.46-33.46,33.46,15.01,33.46,33.46-15.01,33.46-33.46,33.46Zm0-52.72c-10.62,0-19.26,8.64-19.26,19.26s8.64,19.26,19.26,19.26,19.26-8.64,19.26-19.26-8.64-19.26-19.26-19.26Z"/><path class="cls-1" d="m341.93,96.55c-18.45,0-33.46-15.01-33.46-33.46s15.01-33.46,33.46-33.46,33.46,15.01,33.46,33.46-15.01,33.46-33.46,33.46Zm0-52.72c-10.62,0-19.26,8.64-19.26,19.26s8.64,19.26,19.26,19.26,19.26-8.64,19.26-19.26-8.64-19.26-19.26-19.26Z"/><path class="cls-1" d="m421.91,96.55c-18.45,0-33.46-15.01-33.46-33.46s15.01-33.46,33.46-33.46,33.46,15.01,33.46,33.46-15.01,33.46-33.46,33.46Zm0-52.72c-10.62,0-19.26,8.64-19.26,19.26s8.64,19.26,19.26,19.26,19.26-8.64,19.26-19.26-8.64-19.26-19.26-19.26Z"/><rect class="cls-1" x="201.25" y="22.81" width="14.2" height="102.93"/><rect class="cls-1" x="361.19" width="14.2" height="102.93"/><path class="cls-1" d="m109.77,63.1c0,22.62-7.11,40.96-15.89,40.96-3.6,0-6.89-3.09-9.58-8.31,6.82-7.46,11.22-19.3,11.22-32.64s-4.4-25.21-11.22-32.67c2.68-5.22,5.98-8.3,9.58-8.3,8.78,0,15.89,18.33,15.89,40.97"/><path class="cls-1" d="m55.38,100.26c-4.99,2.42-10.52,3.79-16.38,3.79C17.46,104.05,0,85.71,0,63.09S17.46,22.12,39,22.12c5.86,0,11.39,1.36,16.38,3.79-9.69,6.47-16.43,20.69-16.43,37.19s6.73,30.7,16.43,37.17"/><path class="cls-1" d="m84.31,95.74c-4.73,5.22-10.64,8.31-17.06,8.31-4.24,0-8.27-1.35-11.87-3.79,13.37-6.48,22.65-20.7,22.65-37.17,0,13.35,2.47,25.19,6.28,32.64"/><path class="cls-1" d="m84.31,30.43c-3.81,7.46-6.28,19.32-6.28,32.67,0-16.5-9.27-30.7-22.65-37.19,3.6-2.45,7.63-3.8,11.87-3.8,6.43,0,12.33,3.09,17.06,8.31"/></svg>