<svg xmlns="http://www.w3.org/2000/svg" width="27" height="22" viewBox="0 0 27 22" fill="none">
  <path d="M22.8716 2.46684C21.0976 1.65324 19.2249 1.07605 17.3013 0.75C17.038 1.22142 16.7999 1.70644 16.5877 2.20304C14.5387 1.89372 12.4549 1.89372 10.4058 2.20304C10.1936 1.70649 9.95539 1.22147 9.69227 0.75C7.76737 1.0788 5.89343 1.65737 4.11772 2.4711C0.592475 7.69609 -0.363163 12.7913 0.114656 17.8142C2.17913 19.3422 4.48986 20.5043 6.9464 21.25C7.49954 20.5047 7.989 19.7141 8.40959 18.8864C7.61075 18.5875 6.83972 18.2188 6.10544 17.7844C6.29869 17.644 6.4877 17.4993 6.67033 17.3589C8.80692 18.3655 11.1389 18.8874 13.5 18.8874C15.861 18.8874 18.193 18.3655 20.3296 17.3589C20.5143 17.51 20.7033 17.6546 20.8945 17.7844C20.1588 18.2195 19.3863 18.5889 18.5861 18.8885C19.0061 19.7158 19.4956 20.5058 20.0493 21.25C22.5079 20.5073 24.8204 19.3458 26.8853 17.8163C27.4459 11.9914 25.9275 6.94297 22.8716 2.46684ZM9.01483 14.7251C7.68331 14.7251 6.58326 13.5146 6.58326 12.0254C6.58326 10.5362 7.64508 9.31507 9.01058 9.31507C10.3761 9.31507 11.4676 10.5362 11.4443 12.0254C11.4209 13.5146 10.3718 14.7251 9.01483 14.7251ZM17.9851 14.7251C16.6514 14.7251 15.5556 13.5146 15.5556 12.0254C15.5556 10.5362 16.6175 9.31507 17.9851 9.31507C19.3527 9.31507 20.4358 10.5362 20.4124 12.0254C20.389 13.5146 19.3421 14.7251 17.9851 14.7251Z" fill="#684BFE"></path>
</svg>
