<svg width="1440" height="891" viewBox="0 0 1440 891" fill="none" xmlns="http://www.w3.org/2000/svg">
<g clip-path="url(#clip0_911_49)">
<g opacity="0.41" filter="url(#filter0_f_911_49)">
<path d="M1940.79 699.337C1937.18 560.411 1859.23 436.947 1736.96 350.98C1621.32 269.677 1466.04 221.911 1296.51 226.321C947.71 235.392 670.654 461.877 677.684 732.188C681.298 871.113 759.246 994.577 881.518 1080.55C997.154 1161.85 1152.43 1209.61 1321.97 1205.2C1670.76 1196.13 1947.82 969.648 1940.79 699.337Z" fill="#6447FF" fill-opacity="0.5"/>
<path d="M1940.79 699.337C1937.18 560.411 1859.23 436.947 1736.96 350.98C1621.32 269.677 1466.04 221.911 1296.51 226.321C947.71 235.392 670.654 461.877 677.684 732.188C681.298 871.113 759.246 994.577 881.518 1080.55C997.154 1161.85 1152.43 1209.61 1321.97 1205.2C1670.76 1196.13 1947.82 969.648 1940.79 699.337Z" fill="url(#paint0_radial_911_49)"/>
</g>
</g>
<defs>
<filter id="filter0_f_911_49" x="547.133" y="95.6178" width="1524.21" height="1240.29" filterUnits="userSpaceOnUse" color-interpolation-filters="sRGB">
<feFlood flood-opacity="0" result="BackgroundImageFix"/>
<feBlend mode="normal" in="SourceGraphic" in2="BackgroundImageFix" result="shape"/>
<feGaussianBlur stdDeviation="65.211" result="effect1_foregroundBlur_911_49"/>
</filter>
<radialGradient id="paint0_radial_911_49" cx="0" cy="0" r="1" gradientUnits="userSpaceOnUse" gradientTransform="translate(835.983 748.774) rotate(-36.5063) scale(623.321 572.242)">
<stop stop-color="#05E5AD"/>
<stop offset="0.43087" stop-color="#05E5AD" stop-opacity="0.5"/>
<stop offset="1" stop-color="#6447FF" stop-opacity="0"/>
</radialGradient>
<clipPath id="clip0_911_49">
<rect width="1440" height="891" fill="white"/>
</clipPath>
</defs>
</svg>
