<svg width="974" height="949" viewBox="0 0 974 949" fill="none" xmlns="http://www.w3.org/2000/svg">
<g opacity="0.41" filter="url(#filter0_f_1430_6689)">
<path d="M710 474.5C710 414.751 683.628 360.816 641.272 322.501C601.215 286.265 546.862 264 487 264C363.841 264 264 358.244 264 474.5C264 534.249 290.372 588.184 332.728 626.499C372.785 662.735 427.138 685 487 685C610.16 685 710 590.756 710 474.5Z" fill="#6447FF" fill-opacity="0.5"/>
<path d="M710 474.5C710 414.751 683.628 360.816 641.272 322.501C601.215 286.265 546.862 264 487 264C363.841 264 264 358.244 264 474.5C264 534.249 290.372 588.184 332.728 626.499C372.785 662.735 427.138 685 487 685C610.16 685 710 590.756 710 474.5Z" fill="url(#paint0_radial_1430_6689)"/>
<path d="M710 474.5C710 414.751 683.628 360.816 641.272 322.501C601.215 286.265 546.862 264 487 264C363.841 264 264 358.244 264 474.5C264 534.249 290.372 588.184 332.728 626.499C372.785 662.735 427.138 685 487 685C610.16 685 710 590.756 710 474.5Z" fill="url(#paint1_radial_1430_6689)"/>
<path d="M710 474.5C710 414.751 683.628 360.816 641.272 322.501C601.215 286.265 546.862 264 487 264C363.841 264 264 358.244 264 474.5C264 534.249 290.372 588.184 332.728 626.499C372.785 662.735 427.138 685 487 685C610.16 685 710 590.756 710 474.5Z" fill="url(#paint2_radial_1430_6689)"/>
</g>
<defs>
<filter id="filter0_f_1430_6689" x="0" y="0" width="974" height="949" filterUnits="userSpaceOnUse" color-interpolation-filters="sRGB">
<feFlood flood-opacity="0" result="BackgroundImageFix"/>
<feBlend mode="normal" in="SourceGraphic" in2="BackgroundImageFix" result="shape"/>
<feGaussianBlur stdDeviation="132" result="effect1_foregroundBlur_1430_6689"/>
</filter>
<radialGradient id="paint0_radial_1430_6689" cx="0" cy="0" r="1" gradientUnits="userSpaceOnUse" gradientTransform="translate(709.991 360.596) rotate(158.479) scale(240.15 924.505)">
<stop stop-color="#FF6B9C"/>
<stop offset="1" stop-color="#6447FF" stop-opacity="0"/>
</radialGradient>
<radialGradient id="paint1_radial_1430_6689" cx="0" cy="0" r="1" gradientUnits="userSpaceOnUse" gradientTransform="translate(369.244 644.412) rotate(-55.7646) scale(222.883 361.59)">
<stop stop-color="white"/>
<stop offset="1" stop-color="#6447FF" stop-opacity="0"/>
</radialGradient>
<radialGradient id="paint2_radial_1430_6689" cx="0" cy="0" r="1" gradientUnits="userSpaceOnUse" gradientTransform="translate(319.705 483.398) rotate(5.52151) scale(372.014 359.072)">
<stop stop-color="#05E5AD"/>
<stop offset="0.43087" stop-color="#05E5AD" stop-opacity="0.5"/>
<stop offset="1" stop-color="#6447FF" stop-opacity="0"/>
</radialGradient>
</defs>
</svg>
