<svg width="40" height="40" viewBox="0 0 40 40" fill="none" xmlns="http://www.w3.org/2000/svg">
<g clip-path="url(#clip0_240_6)">
<path d="M0 0H40V40H0V0Z" fill="black"/>
<path d="M3.4502 32.5H18.4502V35H3.4502V32.5Z" fill="white"/>
<path d="M3.28125 10.5323L4.44536 9.43331C4.76205 9.81514 5.06011 10.0387 5.46988 10.0387C5.91691 10.0387 6.20571 9.73137 6.20571 9.126V5H8.00325V9.13526C8.00325 9.95486 7.79834 10.5323 7.36062 10.9701C6.93205 11.3986 6.31754 11.6313 5.57239 11.6313C4.43611 11.6313 3.74691 11.1563 3.28125 10.5323Z" fill="white"/>
<path d="M8.42285 5H13.6664V6.52743H10.2111V7.524H13.3404V8.94897H10.2111V9.9828H13.713V11.5195H8.42285V5Z" fill="white"/>
<path d="M16.0285 6.58331H14.082V5H19.7912V6.58331H17.8354V11.5195H16.0285V6.58331Z" fill="white"/>
<path d="M7.98488 16.1543C8.56236 15.9029 8.99059 15.4558 8.99059 14.7014V14.6828C8.99523 14.4867 8.96052 14.2917 8.88852 14.1093C8.81652 13.9269 8.70869 13.7608 8.57139 13.6208C8.18956 13.2482 7.61208 13.0433 6.79248 13.0433H3.44922V19.5629H6.81139C8.3667 19.5629 9.27945 18.8829 9.27945 17.7653V17.7467C9.2795 16.8619 8.77659 16.4149 7.98488 16.1543ZM5.20945 14.4965H6.3923C6.92316 14.4965 7.2119 14.6921 7.2119 15.0553V15.074C7.2119 15.4558 6.89522 15.6421 6.34573 15.6421H5.20945V14.4963V14.4965ZM7.4727 17.5141C7.4727 17.896 7.16533 18.1102 6.60653 18.1102H5.20945V16.9086H6.5879C7.19328 16.9086 7.4727 17.1414 7.4727 17.4954V17.514V17.5141Z" fill="white"/>
<path d="M19.1889 12.9968H17.4475L15.0115 18.7793L13.9924 17.2904C14.8027 16.9457 15.3335 16.2847 15.3335 15.2787V15.26C15.3335 14.6174 15.138 14.1237 14.7564 13.7419C14.3186 13.3041 13.6294 13.0434 12.6328 13.0434H9.5498V19.5629H11.3566V17.5886H12.1576L13.4708 19.5631H16.5717L17.0375 18.3896H19.5614L20.0271 19.5631H21.9642L19.1889 12.9968ZM13.5264 15.3997C13.5264 15.8747 13.1632 16.1728 12.5578 16.1728H11.3567V14.5987H12.5489C13.145 14.5987 13.5268 14.8595 13.5268 15.3811V15.3997H13.5264ZM17.5685 16.9829L18.3044 15.1388L19.0308 16.9829H17.5685Z" fill="white"/>
<path d="M22.1787 13.0433H23.9855V19.5629H22.1787V13.0433Z" fill="white"/>
<path d="M24.4316 13.0433H26.1174L28.7997 16.4894V13.0433H30.5879V19.5629H29.0139L26.2199 15.9865V19.5629H24.4316V13.0433Z" fill="white"/>
<path d="M30.7012 18.5943L31.7069 17.3928C32.3588 17.9051 33.0669 18.1752 33.8212 18.1752C34.3148 18.1752 34.5755 18.0075 34.5755 17.7281V17.7095C34.5755 17.4301 34.3612 17.2904 33.4669 17.0762C32.0791 16.7595 31.008 16.3683 31.008 15.0365V15.0179C31.008 13.8071 31.9673 12.9316 33.532 12.9316C34.6406 12.9316 35.5065 13.2297 36.2143 13.7978L35.3114 15.0737C34.7153 14.6451 34.0634 14.4311 33.4859 14.4311C33.0482 14.4311 32.834 14.6082 32.834 14.8502V14.8686C32.834 15.1666 33.0575 15.2971 33.9703 15.5019C35.4604 15.8276 36.3918 16.3122 36.3918 17.5322V17.5508C36.3918 18.8827 35.3393 19.6743 33.756 19.6743C32.6011 19.6746 31.5115 19.3114 30.7012 18.5943Z" fill="white"/>
</g>
<defs>
<clipPath id="clip0_240_6">
<rect width="40" height="40" fill="white"/>
</clipPath>
</defs>
</svg>
