<svg width="42" height="42" viewBox="0 0 42 42" fill="none" xmlns="http://www.w3.org/2000/svg">
<g clip-path="url(#clip0_3410_21496)">
<mask id="mask0_3410_21496" style="mask-type:luminance" maskUnits="userSpaceOnUse" x="0" y="0" width="42" height="42">
<path d="M42 0H0V42H42V0Z" fill="white"/>
</mask>
<g mask="url(#mask0_3410_21496)">
<mask id="mask1_3410_21496" style="mask-type:luminance" maskUnits="userSpaceOnUse" x="0" y="0" width="42" height="42">
<path d="M42 0H0V42H42V0Z" fill="white"/>
</mask>
<g mask="url(#mask1_3410_21496)">
<mask id="mask2_3410_21496" style="mask-type:alpha" maskUnits="userSpaceOnUse" x="0" y="0" width="42" height="42">
<path fill-rule="evenodd" clip-rule="evenodd" d="M29.783 41.7123C30.4445 41.97 31.1988 41.9536 31.8664 41.6323L40.5136 37.4714C41.4221 37.0342 42 36.1146 42 35.1057V6.8927C42 5.88386 41.4222 4.96427 40.5136 4.52705L31.8664 0.366092C30.9902 -0.0555394 29.9648 0.0477341 29.1956 0.606834C29.0858 0.686701 28.9812 0.775875 28.883 0.874147L12.3291 15.9766L5.11862 10.5031C4.44738 9.99364 3.50852 10.0354 2.88512 10.6025L0.572473 12.7062C-0.190072 13.3999 -0.190945 14.5995 0.570583 15.2943L6.82378 20.9991L0.570583 26.704C-0.190945 27.3988 -0.190072 28.5985 0.572473 29.2921L2.88512 31.3958C3.50852 31.9629 4.44738 32.0047 5.11862 31.4952L12.3291 26.0218L28.883 41.1242C29.1448 41.3862 29.4524 41.5834 29.783 41.7123ZM31.5064 11.4647L18.9458 20.9991L31.5064 30.5336V11.4647Z" fill="white"/>
</mask>
<g mask="url(#mask2_3410_21496)">
<path d="M40.514 4.53317L31.86 0.366497C30.8583 -0.115796 29.6613 0.0876454 28.8751 0.873768L0.545541 26.7037C-0.216453 27.3985 -0.215578 28.5981 0.547431 29.2917L2.86148 31.3954C3.48527 31.9625 4.42471 32.0043 5.09633 31.4948L39.2117 5.61413C40.3562 4.74586 42.0001 5.56217 42.0001 6.99878V6.89832C42.0001 5.8899 41.4225 4.97064 40.514 4.53317Z" fill="#0065A9"/>
<g filter="url(#filter0_d_3410_21496)">
<path d="M40.514 37.4659L31.86 41.6325C30.8583 42.1149 29.6613 41.9113 28.8751 41.1252L0.545541 15.2954C-0.216453 14.6005 -0.215578 13.4009 0.547431 12.7072L2.86148 10.6036C3.48527 10.0365 4.42471 9.99473 5.09633 10.5042L39.2117 36.3849C40.3562 37.2531 42.0001 36.4369 42.0001 35.0002V35.1007C42.0001 36.1091 41.4225 37.0284 40.514 37.4659Z" fill="#007ACC"/>
</g>
<g filter="url(#filter1_d_3410_21496)">
<path d="M31.8603 41.6323C30.8583 42.1142 29.6612 41.9104 28.875 41.1242C29.8436 42.0928 31.5 41.4068 31.5 40.0368V1.96146C31.5 0.591531 29.8436 -0.0945379 28.875 0.874149C29.6612 0.0879555 30.8583 -0.115773 31.8603 0.366092L40.5127 4.52705C41.4218 4.96427 42 5.88386 42 6.8927V35.1057C42 36.1146 41.4218 37.0342 40.5127 37.4714L31.8603 41.6323Z" fill="#1F9CF0"/>
</g>
<g style="mix-blend-mode:overlay" opacity="0.25">
<path fill-rule="evenodd" clip-rule="evenodd" d="M29.7576 41.7123C30.4191 41.97 31.1734 41.9534 31.8411 41.6323L40.4881 37.4714C41.3968 37.0342 41.9746 36.1146 41.9746 35.1057V6.89273C41.9746 5.88385 41.3968 4.96425 40.4882 4.52704L31.8411 0.366093C30.9649 -0.0555394 29.9393 0.047734 29.1703 0.60683C29.0604 0.686701 28.9558 0.775877 28.8575 0.874147L12.3037 15.9766L5.09323 10.5032C4.42202 9.99363 3.48313 10.0354 2.85972 10.6025L0.547083 12.7062C-0.215462 13.3999 -0.216337 14.5995 0.545193 15.2942L6.79838 20.9991L0.545193 26.7041C-0.216337 27.3989 -0.215462 28.5985 0.547083 29.2921L2.85972 31.3958C3.48313 31.9629 4.42202 32.0047 5.09323 31.4952L12.3037 26.0218L28.8575 41.1242C29.1195 41.3862 29.4269 41.5836 29.7576 41.7123ZM31.481 11.4647L18.9205 20.9991L31.481 30.5336V11.4647Z" fill="url(#paint0_linear_3410_21496)"/>
</g>
</g>
</g>
</g>
</g>
<defs>
<filter id="filter0_d_3410_21496" x="-8.35873" y="1.8151" width="58.6921" height="48.4108" filterUnits="userSpaceOnUse" color-interpolation-filters="sRGB">
<feFlood flood-opacity="0" result="BackgroundImageFix"/>
<feColorMatrix in="SourceAlpha" type="matrix" values="0 0 0 0 0 0 0 0 0 0 0 0 0 0 0 0 0 0 127 0" result="hardAlpha"/>
<feOffset/>
<feGaussianBlur stdDeviation="4.16667"/>
<feColorMatrix type="matrix" values="0 0 0 0 0 0 0 0 0 0 0 0 0 0 0 0 0 0 0.25 0"/>
<feBlend mode="overlay" in2="BackgroundImageFix" result="effect1_dropShadow_3410_21496"/>
<feBlend mode="normal" in="SourceGraphic" in2="effect1_dropShadow_3410_21496" result="shape"/>
</filter>
<filter id="filter1_d_3410_21496" x="20.5417" y="-8.22592" width="29.7917" height="58.4499" filterUnits="userSpaceOnUse" color-interpolation-filters="sRGB">
<feFlood flood-opacity="0" result="BackgroundImageFix"/>
<feColorMatrix in="SourceAlpha" type="matrix" values="0 0 0 0 0 0 0 0 0 0 0 0 0 0 0 0 0 0 127 0" result="hardAlpha"/>
<feOffset/>
<feGaussianBlur stdDeviation="4.16667"/>
<feColorMatrix type="matrix" values="0 0 0 0 0 0 0 0 0 0 0 0 0 0 0 0 0 0 0.25 0"/>
<feBlend mode="overlay" in2="BackgroundImageFix" result="effect1_dropShadow_3410_21496"/>
<feBlend mode="normal" in="SourceGraphic" in2="effect1_dropShadow_3410_21496" result="shape"/>
</filter>
<linearGradient id="paint0_linear_3410_21496" x1="20.9746" y1="0.107422" x2="20.9746" y2="41.8909" gradientUnits="userSpaceOnUse">
<stop stop-color="white"/>
<stop offset="1" stop-color="white" stop-opacity="0"/>
</linearGradient>
<clipPath id="clip0_3410_21496">
<rect width="42" height="42" fill="white"/>
</clipPath>
</defs>
</svg>
