<svg width="171" height="47" viewBox="0 0 171 47" fill="none" xmlns="http://www.w3.org/2000/svg">
<path d="M35.7031 37.071L35.8652 36.8438H36.5785L38.1022 43.4022H38.2644L39.8854 37.6554H40.7607L42.3818 43.4022H42.5439L44.0676 36.8438H44.7809L44.943 37.071L43.2571 44.2139H41.7334L40.3393 39.084L38.9452 44.1814H37.389L35.7031 37.071Z" fill="#1A1E3B"/>
<path d="M46.5635 42.5914V40.2538C46.5635 39.1823 47.1146 38.6953 48.1197 38.6953H49.5137C50.5836 38.6953 51.0699 39.2473 51.0699 40.2538V41.7797H47.4388V42.6888C47.4388 43.1758 47.6982 43.4356 48.1845 43.4356H50.9403V43.8576L50.5188 44.1823H48.1845C47.1146 44.2148 46.5635 43.6628 46.5635 42.5914ZM47.4388 41.0005H50.2918V40.1239C50.2918 39.6369 50.0325 39.3771 49.5462 39.3771H48.1521C47.6658 39.3771 47.4064 39.6369 47.4064 40.1239V41.0005H47.4388Z" fill="#1A1E3B"/>
<path d="M53.5986 44.2138V36.3242H54.474V38.6619H56.5813C57.6512 38.6619 58.1375 39.2138 58.1375 40.2203V42.558C58.1375 43.6294 57.5864 44.1164 56.5813 44.1164H53.5986V44.2138ZM54.4416 43.4346H56.5489C57.0352 43.4346 57.2946 43.1749 57.2946 42.6879V40.1554C57.2946 39.6684 57.0352 39.4086 56.5489 39.4086H54.4416V43.4346Z" fill="#1A1E3B"/>
<path d="M63.4219 37.6554V36.8438H69.1927V37.6554H66.7612V44.2139H65.8534V37.6554H63.4219Z" fill="#1A1E3B"/>
<path d="M70.6523 42.5914V40.2538C70.6523 39.1823 71.2035 38.6953 72.2085 38.6953H73.6026C74.6725 38.6953 75.1588 39.2473 75.1588 40.2538V41.7797H71.4304V42.6888C71.4304 43.1758 71.6898 43.4356 72.1761 43.4356H74.9319V43.8576L74.5104 44.1823H72.1761C71.2035 44.2148 70.6523 43.6628 70.6523 42.5914ZM71.5277 41.0005H74.3807V40.1239C74.3807 39.6369 74.1213 39.3771 73.635 39.3771H72.2409C71.7546 39.3771 71.4953 39.6369 71.4953 40.1239V41.0005H71.5277Z" fill="#1A1E3B"/>
<path d="M77.5576 42.5914V40.2538C77.5576 39.1823 78.1088 38.6953 79.1138 38.6953H81.2211L81.6426 39.02V39.4421H79.1462C78.6599 39.4421 78.4006 39.7018 78.4006 40.1888V42.7213C78.4006 43.2083 78.6599 43.468 79.1462 43.468H81.6426V43.8901L81.2211 44.2148H79.1138C78.1088 44.2148 77.5576 43.6628 77.5576 42.5914Z" fill="#1A1E3B"/>
<path d="M83.8799 44.2138V36.3242H84.7552V38.6619H86.8626C87.9325 38.6619 88.4188 39.2138 88.4188 40.2203V44.1814H87.5434V40.1879C87.5434 39.7008 87.2841 39.4411 86.7977 39.4411H84.6904V44.2138H83.8799Z" fill="#1A1E3B"/>
<path d="M90.9473 44.2133V38.6289H93.9299C94.9998 38.6289 95.4861 39.1809 95.4861 40.1873V44.1484H94.6108V40.1549C94.6108 39.6679 94.3514 39.4081 93.8651 39.4081H91.7578V44.1809H90.9473V44.2133Z" fill="#1A1E3B"/>
<path d="M97.918 42.5914V40.2538C97.918 39.1823 98.4691 38.6953 99.4742 38.6953H100.998C102.068 38.6953 102.554 39.2473 102.554 40.2538V42.5914C102.554 43.6628 102.003 44.1498 100.998 44.1498H99.4742C98.4691 44.2148 97.918 43.6628 97.918 42.5914ZM98.7933 42.6888C98.7933 43.1758 99.0527 43.4356 99.539 43.4356H101.063C101.549 43.4356 101.808 43.1758 101.808 42.6888V40.1563C101.808 39.6693 101.549 39.4096 101.063 39.4096H99.539C99.0527 39.4096 98.7933 39.6693 98.7933 40.1563V42.6888Z" fill="#1A1E3B"/>
<path d="M105.019 42.6871V36.291H105.894V42.7196C105.894 43.2066 106.153 43.4664 106.64 43.4664V44.2131C105.537 44.2456 105.019 43.7261 105.019 42.6871Z" fill="#1A1E3B"/>
<path d="M108.584 42.5914V40.2538C108.584 39.1823 109.135 38.6953 110.14 38.6953H111.664C112.734 38.6953 113.22 39.2473 113.22 40.2538V42.5914C113.22 43.6628 112.669 44.1498 111.664 44.1498H110.14C109.103 44.2148 108.584 43.6628 108.584 42.5914ZM109.427 42.6888C109.427 43.1758 109.686 43.4356 110.173 43.4356H111.696C112.183 43.4356 112.442 43.1758 112.442 42.6888V40.1563C112.442 39.6693 112.183 39.4096 111.696 39.4096H110.173C109.686 39.4096 109.427 39.6693 109.427 40.1563V42.6888Z" fill="#1A1E3B"/>
<path d="M115.652 42.5914V40.2538C115.652 39.1823 116.204 38.6953 117.209 38.6953H120.191V44.7667C120.191 45.8382 119.64 46.3252 118.635 46.3252H116.495L116.074 46.0005V45.5784H118.603C119.089 45.5784 119.348 45.3187 119.348 44.8317V44.1823H117.241C116.171 44.2148 115.652 43.6628 115.652 42.5914ZM116.495 42.6888C116.495 43.1758 116.755 43.4356 117.241 43.4356H119.348V39.3771H117.241C116.755 39.3771 116.495 39.6369 116.495 40.1239V42.6888Z" fill="#1A1E3B"/>
<path d="M122.72 37.6557V36.6816H123.627V37.6557H122.72ZM122.785 44.2141V38.6297H123.66V44.1492H122.785V44.2141Z" fill="#1A1E3B"/>
<path d="M126.06 42.5914V40.2538C126.06 39.1823 126.611 38.6953 127.616 38.6953H129.01C130.08 38.6953 130.566 39.2473 130.566 40.2538V41.7797H126.87V42.6888C126.87 43.1758 127.129 43.4356 127.616 43.4356H130.372V43.8576L129.95 44.1823H127.616C126.611 44.2148 126.06 43.6628 126.06 42.5914ZM126.935 41.0005H129.788V40.1239C129.788 39.6369 129.529 39.3771 129.042 39.3771H127.648C127.162 39.3771 126.903 39.6369 126.903 40.1239V41.0005H126.935Z" fill="#1A1E3B"/>
<path d="M132.868 43.8894V43.4673H135.299C135.785 43.4673 136.045 43.2076 136.045 42.7205C136.045 42.2335 135.818 41.9738 135.396 41.8439L134.1 41.6167C133.224 41.4543 132.803 41.0322 132.803 40.2206C132.803 39.1816 133.354 38.6621 134.359 38.6621H136.142L136.564 38.9868V39.4089H134.391C133.905 39.4089 133.646 39.6686 133.646 40.1556C133.646 40.5777 133.873 40.805 134.294 40.9024L135.591 41.1296C136.466 41.292 136.888 41.779 136.888 42.6556C136.888 43.6946 136.337 44.2141 135.332 44.2141H133.289L132.868 43.8894Z" fill="#1A1E3B"/>
<path d="M156.113 12.4283L153.13 15.6102L156.113 18.792L156.178 18.8569V19.4413L156.113 19.5063L155.692 19.9283L151.898 15.9348C151.801 15.8374 151.736 15.7076 151.736 15.5452C151.736 15.4478 151.801 15.318 151.898 15.1556L155.692 11.1621L156.113 11.5842L156.178 11.6491V12.2335L156.113 12.4283Z" fill="#1A1E3B"/>
<path d="M164.315 15.6419C164.315 15.7393 164.25 15.8692 164.153 16.0315L160.36 20.025L159.938 19.603V18.8887L162.921 15.7069L159.938 12.525V11.8108L160.36 11.3887L164.153 15.3497C164.25 15.4146 164.315 15.5121 164.315 15.6419Z" fill="#1A1E3B"/>
<path d="M0.688477 23.7908V1.19336H4.1899V24.1804C4.1899 26.0635 5.16252 27.0375 7.04292 27.0375H16.1207C18.0011 27.0375 18.9737 26.0635 18.9737 24.1804V1.19336H22.4751V23.7908C22.4751 28.0765 20.303 30.2193 16.0559 30.2193H7.10776C2.82824 30.2843 0.688477 28.1089 0.688477 23.7908Z" fill="#1A1E3B"/>
<path d="M28.376 38.6613V8.36914H40.1447C44.3593 8.36914 46.4667 10.4795 46.4667 14.7003V23.9536C46.4667 28.1743 44.3593 30.2847 40.1447 30.2847H31.7153V38.6613H28.376ZM31.7477 27.2977H40.1771C42.1223 27.2977 43.1598 26.3237 43.1598 24.3107V14.2458C43.1598 12.2977 42.1872 11.2588 40.1771 11.2588H31.7477V27.2977Z" fill="#1A1E3B"/>
<path d="M52.2053 30.2843V1.19336H56.0957L71.3658 24.7648V1.19336H74.8673V30.2843H70.9768L55.7391 6.6479V30.2193H52.1729V30.2843H52.2053Z" fill="#1A1E3B"/>
<path d="M80.6699 23.9548V14.6691C80.6699 10.4483 82.7773 8.33789 86.9919 8.33789H92.4386C96.6533 8.33789 98.7606 10.4483 98.7606 14.6691V20.7405H84.0092V24.3768C84.0092 26.3249 84.9819 27.3639 86.9919 27.3639H97.8853V29.0522L96.1994 30.2859H86.9919C82.7773 30.2859 80.6699 28.1755 80.6699 23.9548ZM84.0092 17.7859H95.3565V14.2794C95.3565 12.3314 94.3839 11.2924 92.3738 11.2924H86.9271C84.9819 11.2924 83.9444 12.2665 83.9444 14.2794V17.7859H84.0092Z" fill="#1A1E3B"/>
<path d="M103.008 29.6366L110.724 19.0846L103.267 8.98724L103.527 8.33789H106.671L112.669 16.6171L118.667 8.40282H121.812L122.071 9.05218L114.614 19.1496L122.33 29.7015L122.071 30.3509H118.926L112.669 21.6496L106.412 30.3509H103.267L103.008 29.6366Z" fill="#1A1E3B"/>
<path d="M126.837 23.9531V1.19336H130.176V8.36868H138.184V11.3557H130.176V24.4401C130.176 26.3882 131.149 27.4271 133.159 27.4271H138.606V29.1154L136.92 30.3492H133.127C128.944 30.2843 126.837 28.1739 126.837 23.9531Z" fill="#1A1E3B"/>
<path d="M157.507 29.7333L146.484 17.9475C144.96 16.4216 145.187 14.7982 146.386 13.3372L154.491 4.47352L155.788 5.86962V7.55793L148.429 15.6748L157.993 25.9346L167.557 15.6748L155.853 3.07741L157.896 0.804688L169.599 13.3372C170.994 14.8631 171.058 16.4216 169.535 17.8826L158.512 29.6683L157.96 30.2527L157.507 29.7333Z" fill="#3589BF"/>
</svg>
