<svg width="2512" height="1987" viewBox="0 0 2512 1987" fill="none" xmlns="http://www.w3.org/2000/svg">
<g filter="url(#filter0_f_13902_35704)">
<path d="M706.138 905.017C678.946 879.156 664.776 828.418 661.089 806.283C639.812 773.321 591.425 704.477 568.095 692.795C538.933 678.192 532.811 683.67 488.969 707.636C445.126 731.602 420.177 809.88 378.233 871.995C336.289 934.11 375.819 1099.67 377.146 1140.03C378.474 1180.38 558.264 1422.23 602.062 1471.21C645.86 1520.2 847.912 1539.5 895.363 1547.06C942.815 1554.63 934.268 1451.21 926.259 1282.04C918.25 1112.86 932.919 1210.8 902.353 1165.23C871.786 1119.67 882.472 1096.54 844.379 1025.5C806.286 954.452 829.743 991.116 796.247 965.978C762.751 940.84 740.128 937.343 706.138 905.017Z" fill="#700895" fill-opacity="0.15"/>
</g>
<g opacity="0.2" filter="url(#filter1_f_13902_35704)">
<path d="M1638.43 1188.68C1704.19 1162.09 1802.61 1177.34 1843.59 1188.3C1916.96 1177.43 2073.28 1147.94 2111.62 1116.91C2159.55 1078.13 2154.9 1063.31 2147.91 969.111C2140.92 874.913 2025.67 770.791 1951.53 650.046C1877.39 529.301 1561.51 467.958 1491 438.704C1420.5 409.45 863.686 529.928 745.137 567.038C626.587 604.148 435.455 936.865 385.349 1012.64C335.244 1088.41 519.939 1154.51 817.415 1272.94C1114.89 1391.37 934.84 1340.08 1037.16 1323.07C1139.48 1306.07 1170.93 1342.53 1323 1332.49C1475.06 1322.44 1393.62 1334.16 1463.07 1296.15C1532.52 1258.14 1556.22 1221.93 1638.43 1188.68Z" fill="#05E5AD"/>
</g>
<g filter="url(#filter2_f_13902_35704)">
<path d="M1623.19 1320.17C1684.65 1300.08 1773.19 1320.08 1809.78 1332.59C1877.17 1327.28 2021.16 1310.19 2057.95 1284.37C2103.95 1252.08 2100.65 1238.31 2100.15 1152.22C2099.66 1066.13 2001.35 964.273 1941.44 849.86C1881.54 735.447 1598.11 660.001 1535.82 629.011C1473.53 598.02 959.703 672.912 849.592 699.278C739.481 725.643 544.965 1016.3 494.686 1082.08C444.406 1147.86 608.241 1219.47 871.374 1345.68C1134.51 1471.89 973.972 1414.04 1068.07 1404.95C1162.17 1395.85 1188.51 1430.97 1327.41 1431.3C1466.31 1431.63 1391.53 1437.22 1457.04 1406.98C1522.56 1376.73 1546.37 1345.28 1623.19 1320.17Z" fill="#7304AD" fill-opacity="0.35"/>
</g>
<defs>
<filter id="filter0_f_13902_35704" x="0.00109863" y="325.754" width="1291.52" height="1580.7" filterUnits="userSpaceOnUse" color-interpolation-filters="sRGB">
<feFlood flood-opacity="0" result="BackgroundImageFix"/>
<feBlend mode="normal" in="SourceGraphic" in2="BackgroundImageFix" result="shape"/>
<feGaussianBlur stdDeviation="179.499" result="effect1_foregroundBlur_13902_35704"/>
</filter>
<filter id="filter1_f_13902_35704" x="18.1776" y="75.1728" width="2493.08" height="1632.62" filterUnits="userSpaceOnUse" color-interpolation-filters="sRGB">
<feFlood flood-opacity="0" result="BackgroundImageFix"/>
<feBlend mode="normal" in="SourceGraphic" in2="BackgroundImageFix" result="shape"/>
<feGaussianBlur stdDeviation="179.499" result="effect1_foregroundBlur_13902_35704"/>
</filter>
<filter id="filter2_f_13902_35704" x="126.638" y="262.626" width="2332.75" height="1528.28" filterUnits="userSpaceOnUse" color-interpolation-filters="sRGB">
<feFlood flood-opacity="0" result="BackgroundImageFix"/>
<feBlend mode="normal" in="SourceGraphic" in2="BackgroundImageFix" result="shape"/>
<feGaussianBlur stdDeviation="179.499" result="effect1_foregroundBlur_13902_35704"/>
</filter>
</defs>
</svg>
