<svg width="251" height="53" viewBox="0 0 251 53" fill="none" xmlns="http://www.w3.org/2000/svg">
<path d="M63.0073 37.0378V15.2197H65.5215V23.2736H65.7346C65.9192 22.9895 66.1749 22.6273 66.5016 22.187C66.8354 21.7395 67.3113 21.3418 67.9292 20.9938C68.5542 20.6387 69.3993 20.4611 70.4647 20.4611C71.8425 20.4611 73.057 20.8056 74.1081 21.4945C75.1593 22.1834 75.9796 23.16 76.5691 24.4242C77.1586 25.6884 77.4533 27.1799 77.4533 28.8986C77.4533 30.6316 77.1586 32.1337 76.5691 33.405C75.9796 34.6692 75.1628 35.6493 74.1188 36.3454C73.0748 37.0343 71.8709 37.3788 70.5073 37.3788C69.4561 37.3788 68.6145 37.2047 67.9824 36.8567C67.3503 36.5016 66.8638 36.1003 66.5229 35.6529C66.182 35.1984 65.9192 34.8219 65.7346 34.5236H65.4363V37.0378H63.0073ZM65.4789 28.856C65.4789 30.0918 65.66 31.182 66.0222 32.1266C66.3844 33.0641 66.9135 33.7992 67.6096 34.3319C68.3056 34.8574 69.1578 35.1202 70.1664 35.1202C71.2175 35.1202 72.0946 34.8432 72.7978 34.2893C73.508 33.7282 74.0407 32.9753 74.3958 32.0307C74.758 31.079 74.9391 30.0208 74.9391 28.856C74.9391 27.7055 74.7615 26.6685 74.4064 25.7452C74.0584 24.8148 73.5293 24.0797 72.8191 23.54C72.1159 22.9931 71.2317 22.7197 70.1664 22.7197C69.1436 22.7197 68.2843 22.9789 67.5882 23.4974C66.8922 24.0087 66.3667 24.7261 66.0115 25.6493C65.6564 26.5655 65.4789 27.6344 65.4789 28.856ZM88.16 37.3788C86.5833 37.3788 85.2232 37.0307 84.0797 36.3347C82.9434 35.6316 82.0662 34.6515 81.4483 33.3944C80.8375 32.1302 80.5321 30.66 80.5321 28.9839C80.5321 27.3077 80.8375 25.8305 81.4483 24.552C82.0662 23.2665 82.9256 22.2651 84.0265 21.5478C85.1344 20.8234 86.427 20.4611 87.9043 20.4611C88.7566 20.4611 89.5982 20.6032 90.4292 20.8873C91.2601 21.1714 92.0165 21.633 92.6983 22.2722C93.3801 22.9043 93.9235 23.7424 94.3283 24.7864C94.7331 25.8305 94.9355 27.116 94.9355 28.643V29.7083H82.3219V27.535H92.3787C92.3787 26.6117 92.1941 25.7878 91.8248 25.0634C91.4625 24.339 90.9441 23.7672 90.2694 23.3482C89.6017 22.9292 88.8134 22.7197 87.9043 22.7197C86.9029 22.7197 86.0364 22.9682 85.3049 23.4654C84.5804 23.9555 84.0229 24.5947 83.6323 25.383C83.2417 26.1714 83.0463 27.0165 83.0463 27.9185V29.3674C83.0463 30.6032 83.2594 31.6508 83.6855 32.5101C84.1188 33.3624 84.7189 34.0123 85.486 34.4597C86.253 34.9001 87.1444 35.1202 88.16 35.1202C88.8205 35.1202 89.4171 35.0279 89.9498 34.8432C90.4895 34.6515 90.9547 34.3674 91.3453 33.991C91.736 33.6074 92.0378 33.1316 92.2509 32.5634L94.6799 33.2452C94.4242 34.0691 93.9945 34.7935 93.3908 35.4185C92.7871 36.0364 92.0414 36.5194 91.1536 36.8674C90.2658 37.2083 89.2679 37.3788 88.16 37.3788ZM103.575 37.4214C102.539 37.4214 101.597 37.2261 100.752 36.8354C99.9071 36.4377 99.236 35.866 98.7388 35.1202C98.2417 34.3674 97.9931 33.4583 97.9931 32.393C97.9931 31.4555 98.1777 30.6955 98.5471 30.1131C98.9164 29.5236 99.41 29.062 100.028 28.7282C100.646 28.3944 101.328 28.1458 102.073 27.9824C102.826 27.812 103.583 27.677 104.343 27.5776C105.337 27.4498 106.143 27.3539 106.761 27.29C107.386 27.2189 107.84 27.1018 108.124 26.9384C108.416 26.7751 108.561 26.491 108.561 26.0861V26.0009C108.561 24.9498 108.274 24.133 107.698 23.5506C107.13 22.9682 106.267 22.677 105.11 22.677C103.909 22.677 102.968 22.9398 102.286 23.4654C101.605 23.991 101.125 24.552 100.848 25.1486L98.4618 24.2964C98.888 23.302 99.4561 22.5279 100.166 21.9739C100.884 21.4128 101.665 21.0222 102.51 20.802C103.362 20.5748 104.2 20.4611 105.024 20.4611C105.55 20.4611 106.154 20.5251 106.835 20.6529C107.524 20.7736 108.188 21.0258 108.828 21.4093C109.474 21.7928 110.01 22.3716 110.436 23.1458C110.862 23.9199 111.075 24.9569 111.075 26.2566V37.0378H108.561V34.8219H108.433C108.263 35.177 107.979 35.557 107.581 35.9618C107.183 36.3667 106.654 36.7111 105.994 36.9952C105.333 37.2793 104.527 37.4214 103.575 37.4214ZM103.959 35.1628C104.953 35.1628 105.791 34.9675 106.473 34.5769C107.162 34.1863 107.681 33.682 108.029 33.0641C108.384 32.4462 108.561 31.7964 108.561 31.1145V28.8134C108.455 28.9413 108.22 29.0584 107.858 29.165C107.503 29.2644 107.091 29.3532 106.622 29.4313C106.161 29.5023 105.71 29.5663 105.269 29.6231C104.836 29.6728 104.485 29.7154 104.215 29.7509C103.561 29.8361 102.95 29.9746 102.382 30.1664C101.821 30.3511 101.367 30.6316 101.019 31.008C100.678 31.3773 100.507 31.8816 100.507 32.5208C100.507 33.3944 100.83 34.0549 101.477 34.5023C102.13 34.9427 102.958 35.1628 103.959 35.1628ZM127.255 24.339L124.997 24.9782C124.855 24.6018 124.645 24.236 124.368 23.8809C124.098 23.5187 123.729 23.2204 123.26 22.986C122.792 22.7516 122.191 22.6344 121.46 22.6344C120.458 22.6344 119.624 22.8653 118.956 23.3269C118.296 23.7814 117.966 24.3603 117.966 25.0634C117.966 25.6884 118.193 26.182 118.647 26.5442C119.102 26.9064 119.812 27.2083 120.778 27.4498L123.207 28.0464C124.67 28.4015 125.76 28.9448 126.478 29.6763C127.195 30.4008 127.554 31.3347 127.554 32.4782C127.554 33.4157 127.284 34.2538 126.744 34.9924C126.211 35.731 125.466 36.3134 124.507 36.7395C123.548 37.1657 122.433 37.3788 121.162 37.3788C119.493 37.3788 118.111 37.0165 117.017 36.2921C115.924 35.5677 115.231 34.5094 114.94 33.1174L117.326 32.5208C117.554 33.4015 117.983 34.062 118.615 34.5023C119.255 34.9427 120.089 35.1628 121.119 35.1628C122.291 35.1628 123.221 34.9143 123.91 34.4171C124.606 33.9128 124.954 33.3091 124.954 32.606C124.954 32.0378 124.755 31.562 124.358 31.1785C123.96 30.7878 123.349 30.4966 122.525 30.3049L119.798 29.6657C118.299 29.3106 117.199 28.7601 116.495 28.0144C115.799 27.2616 115.451 26.3205 115.451 25.1913C115.451 24.268 115.711 23.4512 116.229 22.741C116.755 22.0307 117.468 21.4732 118.37 21.0684C119.279 20.6636 120.309 20.4611 121.46 20.4611C123.079 20.4611 124.35 20.8163 125.274 21.5265C126.204 22.2367 126.865 23.1742 127.255 24.339ZM138.455 20.6742V22.8049H129.975V20.6742H138.455ZM132.446 16.7538H134.96V32.3503C134.96 33.0606 135.063 33.5932 135.269 33.9484C135.482 34.2964 135.752 34.5307 136.079 34.6515C136.413 34.7651 136.764 34.8219 137.134 34.8219C137.411 34.8219 137.638 34.8077 137.816 34.7793C137.993 34.7438 138.135 34.7154 138.242 34.6941L138.753 36.9526C138.583 37.0165 138.345 37.0805 138.039 37.1444C137.734 37.2154 137.347 37.2509 136.878 37.2509C136.168 37.2509 135.472 37.0982 134.79 36.7928C134.115 36.4874 133.554 36.0222 133.107 35.3972C132.666 34.7722 132.446 33.9839 132.446 33.0322V16.7538ZM142.237 37.0378V20.6742H144.751V37.0378H142.237ZM143.515 17.9469C143.025 17.9469 142.602 17.78 142.247 17.4462C141.899 17.1124 141.725 16.7111 141.725 16.2424C141.725 15.7736 141.899 15.3724 142.247 15.0386C142.602 14.7047 143.025 14.5378 143.515 14.5378C144.005 14.5378 144.424 14.7047 144.772 15.0386C145.127 15.3724 145.305 15.7736 145.305 16.2424C145.305 16.7111 145.127 17.1124 144.772 17.4462C144.424 17.78 144.005 17.9469 143.515 17.9469ZM151.87 27.1941V37.0378H149.356V20.6742H151.785V23.231H151.998C152.381 22.4001 152.964 21.7324 153.745 21.2282C154.526 20.7168 155.535 20.4611 156.771 20.4611C157.879 20.4611 158.848 20.6884 159.679 21.143C160.51 21.5904 161.156 22.2722 161.618 23.1884C162.08 24.0975 162.31 25.2481 162.31 26.6401V37.0378H159.796V26.8106C159.796 25.5251 159.462 24.5236 158.795 23.8063C158.127 23.0819 157.211 22.7197 156.046 22.7197C155.244 22.7197 154.526 22.8937 153.894 23.2417C153.269 23.5897 152.776 24.0975 152.413 24.7651C152.051 25.4327 151.87 26.2424 151.87 27.1941ZM178.496 24.339L176.237 24.9782C176.095 24.6018 175.885 24.236 175.608 23.8809C175.339 23.5187 174.969 23.2204 174.501 22.986C174.032 22.7516 173.432 22.6344 172.7 22.6344C171.699 22.6344 170.864 22.8653 170.197 23.3269C169.536 23.7814 169.206 24.3603 169.206 25.0634C169.206 25.6884 169.433 26.182 169.888 26.5442C170.342 26.9064 171.052 27.2083 172.018 27.4498L174.447 28.0464C175.91 28.4015 177.001 28.9448 177.718 29.6763C178.435 30.4008 178.794 31.3347 178.794 32.4782C178.794 33.4157 178.524 34.2538 177.984 34.9924C177.452 35.731 176.706 36.3134 175.747 36.7395C174.788 37.1657 173.673 37.3788 172.402 37.3788C170.733 37.3788 169.351 37.0165 168.258 36.2921C167.164 35.5677 166.471 34.5094 166.18 33.1174L168.567 32.5208C168.794 33.4015 169.224 34.062 169.856 34.5023C170.495 34.9427 171.329 35.1628 172.359 35.1628C173.531 35.1628 174.461 34.9143 175.15 34.4171C175.846 33.9128 176.194 33.3091 176.194 32.606C176.194 32.0378 175.996 31.562 175.598 31.1785C175.2 30.7878 174.589 30.4966 173.765 30.3049L171.038 29.6657C169.54 29.3106 168.439 28.7601 167.736 28.0144C167.04 27.2616 166.692 26.3205 166.692 25.1913C166.692 24.268 166.951 23.4512 167.469 22.741C167.995 22.0307 168.709 21.4732 169.611 21.0684C170.52 20.6636 171.55 20.4611 172.7 20.4611C174.319 20.4611 175.591 20.8163 176.514 21.5265C177.444 22.2367 178.105 23.1742 178.496 24.339ZM182.578 37.0378V20.6742H185.093V37.0378H182.578ZM183.857 17.9469C183.367 17.9469 182.944 17.78 182.589 17.4462C182.241 17.1124 182.067 16.7111 182.067 16.2424C182.067 15.7736 182.241 15.3724 182.589 15.0386C182.944 14.7047 183.367 14.5378 183.857 14.5378C184.347 14.5378 184.766 14.7047 185.114 15.0386C185.469 15.3724 185.647 15.7736 185.647 16.2424C185.647 16.7111 185.469 17.1124 185.114 17.4462C184.766 17.78 184.347 17.9469 183.857 17.9469ZM196.303 43.5151C195.088 43.5151 194.044 43.3589 193.171 43.0464C192.297 42.741 191.569 42.3361 190.987 41.8319C190.411 41.3347 189.953 40.802 189.612 40.2339L191.615 38.8276C191.843 39.1259 192.13 39.4668 192.478 39.8503C192.826 40.241 193.302 40.5783 193.906 40.8624C194.517 41.1536 195.316 41.2992 196.303 41.2992C197.624 41.2992 198.714 40.9796 199.573 40.3404C200.433 39.7012 200.862 38.6998 200.862 37.3361V34.0123H200.649C200.465 34.3106 200.202 34.6799 199.861 35.1202C199.527 35.5535 199.044 35.9405 198.412 36.2814C197.787 36.6153 196.942 36.7822 195.877 36.7822C194.556 36.7822 193.369 36.4697 192.318 35.8447C191.274 35.2197 190.447 34.3106 189.836 33.1174C189.232 31.9242 188.931 30.4753 188.931 28.7708C188.931 27.0947 189.225 25.6351 189.815 24.3922C190.404 23.1422 191.225 22.1763 192.276 21.4945C193.327 20.8056 194.541 20.4611 195.919 20.4611C196.985 20.4611 197.83 20.6387 198.455 20.9938C199.087 21.3418 199.57 21.7395 199.904 22.187C200.244 22.6273 200.507 22.9895 200.692 23.2736H200.948V20.6742H203.377V37.5066C203.377 38.9128 203.057 40.0563 202.418 40.937C201.786 41.8248 200.933 42.4746 199.861 42.8866C198.796 43.3056 197.61 43.5151 196.303 43.5151ZM196.218 34.5236C197.226 34.5236 198.078 34.2928 198.774 33.8312C199.47 33.3695 199.999 32.7055 200.362 31.839C200.724 30.9725 200.905 29.9356 200.905 28.7282C200.905 27.5492 200.727 26.5087 200.372 25.6067C200.017 24.7047 199.492 23.9981 198.796 23.4867C198.1 22.9753 197.24 22.7197 196.218 22.7197C195.152 22.7197 194.264 22.9895 193.554 23.5293C192.851 24.0691 192.322 24.7935 191.967 25.7026C191.619 26.6117 191.445 27.6202 191.445 28.7282C191.445 29.8645 191.622 30.8695 191.977 31.7431C192.34 32.6096 192.872 33.2914 193.575 33.7886C194.286 34.2786 195.166 34.5236 196.218 34.5236ZM210.493 27.1941V37.0378H207.979V15.2197H210.493V23.231H210.706C211.09 22.3859 211.665 21.7147 212.432 21.2175C213.206 20.7133 214.236 20.4611 215.521 20.4611C216.637 20.4611 217.613 20.6849 218.451 21.1323C219.289 21.5726 219.939 22.2509 220.401 23.1671C220.869 24.0762 221.104 25.2339 221.104 26.6401V37.0378H218.59V26.8106C218.59 25.5109 218.252 24.5059 217.578 23.7957C216.91 23.0783 215.983 22.7197 214.797 22.7197C213.973 22.7197 213.235 22.8937 212.581 23.2417C211.935 23.5897 211.423 24.0975 211.047 24.7651C210.678 25.4327 210.493 26.2424 210.493 27.1941ZM232.82 20.6742V22.8049H224.34V20.6742H232.82ZM226.811 16.7538H229.326V32.3503C229.326 33.0606 229.429 33.5932 229.635 33.9484C229.848 34.2964 230.118 34.5307 230.444 34.6515C230.778 34.7651 231.13 34.8219 231.499 34.8219C231.776 34.8219 232.003 34.8077 232.181 34.7793C232.358 34.7438 232.5 34.7154 232.607 34.6941L233.118 36.9526C232.948 37.0165 232.71 37.0805 232.404 37.1444C232.099 37.2154 231.712 37.2509 231.243 37.2509C230.533 37.2509 229.837 37.0982 229.155 36.7928C228.48 36.4874 227.919 36.0222 227.472 35.3972C227.032 34.7722 226.811 33.9839 226.811 33.0322V16.7538ZM247.9 24.339L245.641 24.9782C245.499 24.6018 245.29 24.236 245.013 23.8809C244.743 23.5187 244.374 23.2204 243.905 22.986C243.436 22.7516 242.836 22.6344 242.104 22.6344C241.103 22.6344 240.268 22.8653 239.601 23.3269C238.94 23.7814 238.61 24.3603 238.61 25.0634C238.61 25.6884 238.837 26.182 239.292 26.5442C239.746 26.9064 240.457 27.2083 241.423 27.4498L243.852 28.0464C245.315 28.4015 246.405 28.9448 247.122 29.6763C247.839 30.4008 248.198 31.3347 248.198 32.4782C248.198 33.4157 247.928 34.2538 247.388 34.9924C246.856 35.731 246.11 36.3134 245.151 36.7395C244.192 37.1657 243.077 37.3788 241.806 37.3788C240.137 37.3788 238.756 37.0165 237.662 36.2921C236.568 35.5677 235.876 34.5094 235.585 33.1174L237.971 32.5208C238.198 33.4015 238.628 34.062 239.26 34.5023C239.899 34.9427 240.734 35.1628 241.763 35.1628C242.935 35.1628 243.866 34.9143 244.555 34.4171C245.251 33.9128 245.599 33.3091 245.599 32.606C245.599 32.0378 245.4 31.562 245.002 31.1785C244.604 30.7878 243.994 30.4966 243.17 30.3049L240.442 29.6657C238.944 29.3106 237.843 28.7601 237.14 28.0144C236.444 27.2616 236.096 26.3205 236.096 25.1913C236.096 24.268 236.355 23.4512 236.874 22.741C237.399 22.0307 238.113 21.4732 239.015 21.0684C239.924 20.6636 240.954 20.4611 242.104 20.4611C243.724 20.4611 244.995 20.8163 245.918 21.5265C246.849 22.2367 247.509 23.1742 247.9 24.339Z" fill="white"/>
<path d="M45.6356 8.98414L30.5852 24.0379L26.2974 19.7501L24.2369 17.6896L21.963 15.4157L21.8197 15.2724C21.3138 14.7666 20.6278 14.4825 19.9125 14.4825C19.1972 14.4825 18.5112 14.7666 18.0054 15.2724L17.8487 15.4257L13.6176 19.6568L1.14119 32.1332C1.01115 32.2636 0.907057 32.4174 0.83445 32.5867C0.820946 32.5499 0.810896 32.5119 0.804438 32.4733C0.306329 30.5298 0.0377655 28.5346 0.00424185 26.5285C-0.252489 12.2883 11.177 0.362 25.4172 0.0452543C29.2377 -0.0460931 33.0311 0.707819 36.5263 2.2531C40.0215 3.79838 43.132 6.09685 45.6356 8.98414Z" fill="white"/>
<path d="M49.13 14.1322L34.9064 28.359L32.8426 30.4195L31.679 31.5831C31.4125 31.8462 31.0532 31.9937 30.6787 31.9937C30.3043 31.9937 29.9449 31.8462 29.6785 31.5831L17.7422 19.6468L19.9127 17.4763L22.1866 19.7502L24.2505 21.8107L29.3684 26.9287C29.5298 27.0906 29.7215 27.219 29.9327 27.3067C30.1438 27.3943 30.3701 27.4394 30.5987 27.4394C30.8273 27.4394 31.0537 27.3943 31.2648 27.3067C31.4759 27.219 31.6676 27.0906 31.829 26.9287L32.6592 26.0985L47.4329 11.3081C48.0586 12.2121 48.6255 13.1554 49.13 14.1322Z" fill="white"/>
<path d="M17.9412 23.9812L3.27091 38.6515C2.71671 37.6556 2.22886 36.6242 1.81055 35.564L3.17089 34.2037C3.1355 34.2387 3.09761 34.271 3.05752 34.3004L15.674 21.6873L17.9412 23.9812Z" fill="white"/>
<path d="M19.894 17.4693L17.7227 19.6406L17.7297 19.6477L19.9011 17.4763L19.894 17.4693Z" fill="white"/>
<path d="M15.6681 21.7073L3.15829 34.2171C3.1229 34.2521 3.08501 34.2844 3.04492 34.3138L15.6614 21.7007L15.6681 21.7073Z" fill="white"/>
<path d="M19.894 17.4693L17.7227 19.6406L17.7297 19.6477L19.9011 17.4763L19.894 17.4693Z" fill="white"/>
<path d="M52.0011 26.5384C51.7377 40.3018 40.5849 51.5979 26.8248 52.0247C22.554 52.16 18.3157 51.2408 14.4845 49.3485C10.6534 47.4562 7.3476 44.6491 4.85938 41.1754L20.0065 26.0316L28.6253 34.6504C28.8944 34.92 29.214 35.1338 29.5659 35.2797C29.9177 35.4257 30.2949 35.5008 30.6758 35.5008C31.0567 35.5008 31.4339 35.4257 31.7857 35.2797C32.1376 35.1338 32.4572 34.92 32.7263 34.6504L34.8968 32.4765L36.9573 30.416L50.3807 16.9927C51.515 20.0447 52.0647 23.283 52.0011 26.5384Z" fill="white"/>
<path d="M15.6681 21.7073L3.15829 34.2171C3.1229 34.2521 3.08501 34.2844 3.04492 34.3138L15.6614 21.7007L15.6681 21.7073Z" fill="white"/>
<path d="M19.894 17.4693L17.7227 19.6406L17.7297 19.6477L19.9011 17.4763L19.894 17.4693Z" fill="white"/>
<path d="M0.808025 32.4467L1.14144 32.1133C1.0114 32.2436 0.907306 32.3975 0.834699 32.5667C0.821195 32.5299 0.811145 32.492 0.804688 32.4534L0.808025 32.4467Z" fill="white"/>
<path d="M15.6681 21.7073L3.15829 34.2171C3.1229 34.2521 3.08501 34.2844 3.04492 34.3138L15.6614 21.7007L15.6681 21.7073Z" fill="white"/>
<path d="M19.894 17.4693L17.7227 19.6406L17.7297 19.6477L19.9011 17.4763L19.894 17.4693Z" fill="white"/>
</svg>
