<svg width="251" height="52" viewBox="0 0 251 52" fill="none" xmlns="http://www.w3.org/2000/svg">
<path d="M62.2615 37V15.1818H66.7999V23.3849H66.9384C67.1373 22.9446 67.4249 22.4972 67.8013 22.0426C68.1848 21.581 68.682 21.1974 69.2928 20.892C69.9107 20.5795 70.6777 20.4233 71.5939 20.4233C72.7871 20.4233 73.888 20.7358 74.8965 21.3608C75.905 21.9787 76.7111 22.9126 77.3148 24.1626C77.9185 25.4055 78.2203 26.9645 78.2203 28.8395C78.2203 30.6648 77.9256 32.206 77.3361 33.4631C76.7537 34.7131 75.9583 35.6612 74.9498 36.3075C73.9483 36.9467 72.8262 37.2663 71.5833 37.2663C70.7026 37.2663 69.9533 37.1207 69.3354 36.8295C68.7246 36.5384 68.2239 36.1726 67.8333 35.7322C67.4426 35.2848 67.1444 34.8338 66.9384 34.3793H66.736V37H62.2615ZM66.704 28.8182C66.704 29.7912 66.839 30.6399 67.1088 31.3643C67.3787 32.0888 67.7694 32.6534 68.2807 33.0582C68.7921 33.456 69.4135 33.6548 70.1451 33.6548C70.8837 33.6548 71.5087 33.4524 72.0201 33.0476C72.5314 32.6357 72.9185 32.0675 73.1813 31.343C73.4512 30.6115 73.5861 29.7699 73.5861 28.8182C73.5861 27.8736 73.4547 27.0426 73.1919 26.3253C72.9292 25.608 72.5421 25.0469 72.0307 24.642C71.5194 24.2372 70.8908 24.0348 70.1451 24.0348C69.4064 24.0348 68.7814 24.2301 68.2701 24.6207C67.7658 25.0114 67.3787 25.5653 67.1088 26.2827C66.839 27 66.704 27.8452 66.704 28.8182ZM88.706 37.3196C87.0227 37.3196 85.5739 36.9787 84.3594 36.2969C83.152 35.608 82.2216 34.6349 81.5682 33.3778C80.9148 32.1136 80.5881 30.6186 80.5881 28.8928C80.5881 27.2095 80.9148 25.7322 81.5682 24.4609C82.2216 23.1896 83.1413 22.1989 84.3274 21.4886C85.5206 20.7784 86.9197 20.4233 88.5249 20.4233C89.6044 20.4233 90.6094 20.5973 91.5398 20.9453C92.4773 21.2862 93.294 21.8011 93.9901 22.4901C94.6932 23.179 95.2401 24.0455 95.6307 25.0895C96.0213 26.1264 96.2166 27.3409 96.2166 28.733V29.9794H82.3991V27.1669H91.9446C91.9446 26.5135 91.8026 25.9347 91.5185 25.4304C91.2344 24.9261 90.8402 24.532 90.3359 24.2479C89.8388 23.9567 89.2599 23.8111 88.5994 23.8111C87.9105 23.8111 87.2997 23.9709 86.767 24.2905C86.2415 24.603 85.8295 25.0256 85.5312 25.5582C85.233 26.0838 85.0803 26.6697 85.0732 27.3161V29.9901C85.0732 30.7997 85.2223 31.4993 85.5206 32.0888C85.826 32.6783 86.2557 33.1328 86.8097 33.4524C87.3636 33.772 88.0206 33.9318 88.7805 33.9318C89.2848 33.9318 89.7464 33.8608 90.1655 33.7188C90.5845 33.5767 90.9432 33.3636 91.2415 33.0795C91.5398 32.7955 91.767 32.4474 91.9233 32.0355L96.1207 32.3125C95.9077 33.321 95.4709 34.2017 94.8104 34.9545C94.157 35.7003 93.3118 36.2827 92.2749 36.7017C91.245 37.1136 90.0554 37.3196 88.706 37.3196ZM103.844 37.3089C102.8 37.3089 101.87 37.1278 101.053 36.7656C100.237 36.3963 99.5902 35.853 99.1143 35.1357C98.6456 34.4112 98.4112 33.5092 98.4112 32.4297C98.4112 31.5206 98.5781 30.7571 98.9119 30.1392C99.2457 29.5213 99.7003 29.0241 100.276 28.6477C100.851 28.2713 101.504 27.9872 102.236 27.7955C102.974 27.6037 103.749 27.4688 104.558 27.3906C105.51 27.2912 106.277 27.1989 106.859 27.1136C107.442 27.0213 107.864 26.8864 108.127 26.7088C108.39 26.5312 108.521 26.2685 108.521 25.9205V25.8565C108.521 25.1818 108.308 24.6598 107.882 24.2905C107.463 23.9212 106.866 23.7365 106.092 23.7365C105.276 23.7365 104.626 23.9176 104.143 24.2798C103.66 24.6349 103.34 25.0824 103.184 25.6222L98.9865 25.2812C99.1996 24.2869 99.6186 23.4276 100.244 22.7031C100.869 21.9716 101.675 21.4105 102.662 21.0199C103.656 20.6222 104.807 20.4233 106.114 20.4233C107.023 20.4233 107.893 20.5298 108.724 20.7429C109.562 20.956 110.304 21.2862 110.95 21.7337C111.604 22.1811 112.119 22.7564 112.495 23.4595C112.871 24.1555 113.06 24.9901 113.06 25.9631V37H108.756V34.7308H108.628C108.365 35.2422 108.013 35.6932 107.573 36.0838C107.133 36.4673 106.604 36.7692 105.986 36.9893C105.368 37.2024 104.654 37.3089 103.844 37.3089ZM105.144 34.1768C105.812 34.1768 106.401 34.0455 106.913 33.7827C107.424 33.5128 107.825 33.1506 108.116 32.696C108.408 32.2415 108.553 31.7266 108.553 31.1513V29.4148C108.411 29.5071 108.216 29.5923 107.967 29.6705C107.726 29.7415 107.452 29.8089 107.147 29.8729C106.842 29.9297 106.536 29.983 106.231 30.0327C105.925 30.0753 105.648 30.1143 105.4 30.1499C104.867 30.228 104.402 30.3523 104.004 30.5227C103.607 30.6932 103.298 30.924 103.077 31.2152C102.857 31.4993 102.747 31.8544 102.747 32.2805C102.747 32.8984 102.971 33.3707 103.418 33.6974C103.873 34.017 104.448 34.1768 105.144 34.1768ZM130.196 25.3026L126.041 25.5582C125.97 25.2031 125.817 24.8835 125.583 24.5994C125.348 24.3082 125.039 24.0774 124.656 23.907C124.279 23.7294 123.828 23.6406 123.303 23.6406C122.6 23.6406 122.007 23.7898 121.524 24.0881C121.041 24.3793 120.799 24.7699 120.799 25.2599C120.799 25.6506 120.956 25.9808 121.268 26.2507C121.581 26.5206 122.117 26.7372 122.877 26.9006L125.838 27.4972C127.429 27.8239 128.615 28.3494 129.397 29.0739C130.178 29.7983 130.569 30.75 130.569 31.929C130.569 33.0014 130.252 33.9425 129.62 34.7521C128.995 35.5618 128.136 36.1939 127.042 36.6484C125.956 37.0959 124.702 37.3196 123.282 37.3196C121.115 37.3196 119.39 36.8686 118.104 35.9666C116.826 35.0575 116.076 33.8217 115.856 32.2592L120.32 32.0249C120.455 32.6854 120.782 33.1896 121.3 33.5376C121.819 33.8786 122.483 34.049 123.292 34.049C124.088 34.049 124.727 33.8963 125.21 33.5909C125.7 33.2784 125.949 32.8771 125.956 32.3871C125.949 31.9751 125.775 31.6378 125.434 31.375C125.093 31.1051 124.567 30.8991 123.857 30.7571L121.023 30.1925C119.425 29.8729 118.235 29.3189 117.454 28.5305C116.68 27.7422 116.293 26.7372 116.293 25.5156C116.293 24.4645 116.577 23.5589 117.145 22.799C117.721 22.0391 118.527 21.4531 119.564 21.0412C120.608 20.6293 121.829 20.4233 123.228 20.4233C125.295 20.4233 126.922 20.8601 128.108 21.7337C129.301 22.6072 129.997 23.7969 130.196 25.3026ZM141.033 20.6364V22.767H132.553V20.6364H141.033ZM135.024 16.7159H137.539V32.3125C137.539 33.0227 137.642 33.5554 137.847 33.9105C138.061 34.2585 138.33 34.4929 138.657 34.6136C138.991 34.7273 139.343 34.7841 139.712 34.7841C139.989 34.7841 140.216 34.7699 140.394 34.7415C140.571 34.706 140.713 34.6776 140.82 34.6562L141.331 36.9148C141.161 36.9787 140.923 37.0426 140.617 37.1065C140.312 37.1776 139.925 37.2131 139.456 37.2131C138.746 37.2131 138.05 37.0604 137.368 36.755C136.693 36.4496 136.132 35.9844 135.685 35.3594C135.244 34.7344 135.024 33.946 135.024 32.9943V16.7159ZM144.815 37V20.6364H147.329V37H144.815ZM146.093 17.9091C145.603 17.9091 145.181 17.7422 144.825 17.4084C144.477 17.0746 144.303 16.6733 144.303 16.2045C144.303 15.7358 144.477 15.3345 144.825 15.0007C145.181 14.6669 145.603 14.5 146.093 14.5C146.583 14.5 147.002 14.6669 147.35 15.0007C147.705 15.3345 147.883 15.7358 147.883 16.2045C147.883 16.6733 147.705 17.0746 147.35 17.4084C147.002 17.7422 146.583 17.9091 146.093 17.9091ZM154.448 27.1562V37H151.934V20.6364H154.363V23.1932H154.576C154.96 22.3622 155.542 21.6946 156.323 21.1903C157.104 20.679 158.113 20.4233 159.349 20.4233C160.457 20.4233 161.426 20.6506 162.257 21.1051C163.088 21.5526 163.734 22.2344 164.196 23.1506C164.658 24.0597 164.888 25.2102 164.888 26.6023V37H162.374V26.7727C162.374 25.4872 162.04 24.4858 161.373 23.7685C160.705 23.044 159.789 22.6818 158.624 22.6818C157.822 22.6818 157.104 22.8558 156.472 23.2038C155.847 23.5518 155.354 24.0597 154.991 24.7273C154.629 25.3949 154.448 26.2045 154.448 27.1562ZM181.074 24.3011L178.815 24.9403C178.673 24.5639 178.464 24.1982 178.187 23.843C177.917 23.4808 177.547 23.1825 177.079 22.9482C176.61 22.7138 176.01 22.5966 175.278 22.5966C174.277 22.5966 173.442 22.8274 172.775 23.2891C172.114 23.7436 171.784 24.3224 171.784 25.0256C171.784 25.6506 172.011 26.1442 172.466 26.5064C172.92 26.8686 173.631 27.1705 174.596 27.4119L177.025 28.0085C178.488 28.3636 179.579 28.907 180.296 29.6385C181.013 30.3629 181.372 31.2969 181.372 32.4403C181.372 33.3778 181.102 34.2159 180.562 34.9545C180.03 35.6932 179.284 36.2756 178.325 36.7017C177.366 37.1278 176.251 37.3409 174.98 37.3409C173.311 37.3409 171.93 36.9787 170.836 36.2543C169.742 35.5298 169.05 34.4716 168.758 33.0795L171.145 32.483C171.372 33.3636 171.802 34.0241 172.434 34.4645C173.073 34.9048 173.907 35.125 174.937 35.125C176.109 35.125 177.04 34.8764 177.729 34.3793C178.425 33.875 178.773 33.2713 178.773 32.5682C178.773 32 178.574 31.5241 178.176 31.1406C177.778 30.75 177.167 30.4588 176.344 30.267L173.616 29.6278C172.118 29.2727 171.017 28.7223 170.314 27.9766C169.618 27.2237 169.27 26.2827 169.27 25.1534C169.27 24.2301 169.529 23.4134 170.047 22.7031C170.573 21.9929 171.287 21.4354 172.189 21.0305C173.098 20.6257 174.128 20.4233 175.278 20.4233C176.898 20.4233 178.169 20.7784 179.092 21.4886C180.023 22.1989 180.683 23.1364 181.074 24.3011ZM185.157 37V20.6364H187.671V37H185.157ZM186.435 17.9091C185.945 17.9091 185.522 17.7422 185.167 17.4084C184.819 17.0746 184.645 16.6733 184.645 16.2045C184.645 15.7358 184.819 15.3345 185.167 15.0007C185.522 14.6669 185.945 14.5 186.435 14.5C186.925 14.5 187.344 14.6669 187.692 15.0007C188.047 15.3345 188.225 15.7358 188.225 16.2045C188.225 16.6733 188.047 17.0746 187.692 17.4084C187.344 17.7422 186.925 17.9091 186.435 17.9091ZM198.881 43.4773C197.666 43.4773 196.622 43.321 195.749 43.0085C194.875 42.7031 194.147 42.2983 193.565 41.794C192.99 41.2969 192.531 40.7642 192.191 40.196L194.193 38.7898C194.421 39.0881 194.708 39.429 195.056 39.8125C195.404 40.2031 195.88 40.5405 196.484 40.8246C197.095 41.1158 197.894 41.2614 198.881 41.2614C200.202 41.2614 201.292 40.9418 202.151 40.3026C203.011 39.6634 203.441 38.6619 203.441 37.2983V33.9744H203.227C203.043 34.2727 202.78 34.642 202.439 35.0824C202.105 35.5156 201.622 35.9027 200.99 36.2436C200.365 36.5774 199.52 36.7443 198.455 36.7443C197.134 36.7443 195.948 36.4318 194.896 35.8068C193.852 35.1818 193.025 34.2727 192.414 33.0795C191.811 31.8864 191.509 30.4375 191.509 28.733C191.509 27.0568 191.803 25.5973 192.393 24.3544C192.982 23.1044 193.803 22.1385 194.854 21.4567C195.905 20.7678 197.119 20.4233 198.497 20.4233C199.563 20.4233 200.408 20.6009 201.033 20.956C201.665 21.304 202.148 21.7017 202.482 22.1491C202.823 22.5895 203.085 22.9517 203.27 23.2358H203.526V20.6364H205.955V37.4688C205.955 38.875 205.635 40.0185 204.996 40.8991C204.364 41.7869 203.512 42.4368 202.439 42.8487C201.374 43.2678 200.188 43.4773 198.881 43.4773ZM198.796 34.4858C199.804 34.4858 200.656 34.255 201.352 33.7933C202.048 33.3317 202.578 32.6676 202.94 31.8011C203.302 30.9347 203.483 29.8977 203.483 28.6903C203.483 27.5114 203.306 26.4709 202.95 25.5689C202.595 24.6669 202.07 23.9602 201.374 23.4489C200.678 22.9375 199.818 22.6818 198.796 22.6818C197.73 22.6818 196.843 22.9517 196.132 23.4915C195.429 24.0312 194.9 24.7557 194.545 25.6648C194.197 26.5739 194.023 27.5824 194.023 28.6903C194.023 29.8267 194.2 30.8317 194.556 31.7053C194.918 32.5717 195.45 33.2536 196.154 33.7507C196.864 34.2408 197.744 34.4858 198.796 34.4858ZM213.071 27.1562V37H210.557V15.1818H213.071V23.1932H213.284C213.668 22.348 214.243 21.6768 215.01 21.1797C215.784 20.6754 216.814 20.4233 218.1 20.4233C219.215 20.4233 220.191 20.647 221.029 21.0945C221.867 21.5348 222.517 22.2131 222.979 23.1293C223.448 24.0384 223.682 25.196 223.682 26.6023V37H221.168V26.7727C221.168 25.473 220.83 24.468 220.156 23.7578C219.488 23.0405 218.561 22.6818 217.375 22.6818C216.551 22.6818 215.813 22.8558 215.159 23.2038C214.513 23.5518 214.002 24.0597 213.625 24.7273C213.256 25.3949 213.071 26.2045 213.071 27.1562ZM235.398 20.6364V22.767H226.918V20.6364H235.398ZM229.39 16.7159H231.904V32.3125C231.904 33.0227 232.007 33.5554 232.213 33.9105C232.426 34.2585 232.696 34.4929 233.022 34.6136C233.356 34.7273 233.708 34.7841 234.077 34.7841C234.354 34.7841 234.581 34.7699 234.759 34.7415C234.936 34.706 235.078 34.6776 235.185 34.6562L235.696 36.9148C235.526 36.9787 235.288 37.0426 234.983 37.1065C234.677 37.1776 234.29 37.2131 233.821 37.2131C233.111 37.2131 232.415 37.0604 231.733 36.755C231.059 36.4496 230.498 35.9844 230.05 35.3594C229.61 34.7344 229.39 33.946 229.39 32.9943V16.7159ZM250.478 24.3011L248.219 24.9403C248.077 24.5639 247.868 24.1982 247.591 23.843C247.321 23.4808 246.952 23.1825 246.483 22.9482C246.014 22.7138 245.414 22.5966 244.683 22.5966C243.681 22.5966 242.847 22.8274 242.179 23.2891C241.518 23.7436 241.188 24.3224 241.188 25.0256C241.188 25.6506 241.415 26.1442 241.87 26.5064C242.325 26.8686 243.035 27.1705 244.001 27.4119L246.43 28.0085C247.893 28.3636 248.983 28.907 249.7 29.6385C250.418 30.3629 250.776 31.2969 250.776 32.4403C250.776 33.3778 250.506 34.2159 249.967 34.9545C249.434 35.6932 248.688 36.2756 247.729 36.7017C246.771 37.1278 245.656 37.3409 244.384 37.3409C242.715 37.3409 241.334 36.9787 240.24 36.2543C239.146 35.5298 238.454 34.4716 238.163 33.0795L240.549 32.483C240.776 33.3636 241.206 34.0241 241.838 34.4645C242.477 34.9048 243.312 35.125 244.342 35.125C245.513 35.125 246.444 34.8764 247.133 34.3793C247.829 33.875 248.177 33.2713 248.177 32.5682C248.177 32 247.978 31.5241 247.58 31.1406C247.183 30.75 246.572 30.4588 245.748 30.267L243.021 29.6278C241.522 29.2727 240.421 28.7223 239.718 27.9766C239.022 27.2237 238.674 26.2827 238.674 25.1534C238.674 24.2301 238.933 23.4134 239.452 22.7031C239.977 21.9929 240.691 21.4354 241.593 21.0305C242.502 20.6257 243.532 20.4233 244.683 20.4233C246.302 20.4233 247.573 20.7784 248.496 21.4886C249.427 22.1989 250.087 23.1364 250.478 24.3011Z" fill="black"/>
<path d="M45.6355 8.94628L30.5851 24L26.2974 19.7123L24.2369 17.6518L21.963 15.3779L21.8196 15.2345C21.3138 14.7288 20.6278 14.4446 19.9125 14.4446C19.1972 14.4446 18.5112 14.7288 18.0053 15.2345L17.8486 15.3879L13.6176 19.6189L1.14119 32.0953C1.01115 32.2257 0.907055 32.3796 0.834448 32.5488C0.820944 32.512 0.810894 32.474 0.804437 32.4354C0.306329 30.4919 0.0377655 28.4967 0.00424184 26.4906C-0.252488 12.2504 11.177 0.324157 25.4172 0.00741242C29.2376 -0.0839348 33.031 0.669981 36.5262 2.21526C40.0214 3.76053 43.132 6.05899 45.6355 8.94628Z" fill="black"/>
<path d="M49.1299 14.0943L34.9064 28.3211L32.8426 30.3816L31.679 31.5453C31.4125 31.8083 31.0531 31.9558 30.6787 31.9558C30.3043 31.9558 29.9449 31.8083 29.6785 31.5453L17.7422 19.609L19.9127 17.4385L22.1866 19.7123L24.2505 21.7729L29.3684 26.8908C29.5298 27.0527 29.7215 27.1811 29.9326 27.2688C30.1438 27.3564 30.3701 27.4016 30.5987 27.4016C30.8273 27.4016 31.0536 27.3564 31.2648 27.2688C31.4759 27.1811 31.6676 27.0527 31.829 26.8908L32.6592 26.0606L47.4328 11.2703C48.0585 12.1742 48.6254 13.1175 49.1299 14.0943Z" fill="black"/>
<path d="M17.9412 23.9433L3.27091 38.6136C2.7167 37.6177 2.22886 36.5863 1.81055 35.5262L3.17088 34.1658C3.13549 34.2008 3.09761 34.2331 3.05752 34.2625L15.674 21.6494L17.9412 23.9433Z" fill="black"/>
<path d="M19.8921 17.4292L17.7207 19.6006L17.7278 19.6077L19.8991 17.4363L19.8921 17.4292Z" fill="black"/>
<path d="M15.668 21.6695L3.15829 34.1793C3.1229 34.2142 3.08501 34.2465 3.04492 34.276L15.6614 21.6628L15.668 21.6695Z" fill="black"/>
<path d="M19.8921 17.4292L17.7207 19.6006L17.7278 19.6077L19.8991 17.4363L19.8921 17.4292Z" fill="black"/>
<path d="M52.001 26.5006C51.7376 40.264 40.5849 51.5601 26.8248 51.9869C22.5543 52.1225 18.3161 51.2039 14.485 49.3122C10.654 47.4205 7.34797 44.614 4.85938 41.1409L20.0064 25.9971L28.6252 34.6159C28.8943 34.8855 29.214 35.0994 29.5658 35.2453C29.9177 35.3912 30.2948 35.4663 30.6757 35.4663C31.0566 35.4663 31.4338 35.3912 31.7857 35.2453C32.1375 35.0994 32.4571 34.8855 32.7263 34.6159L34.8968 32.4421L36.9573 30.3816L50.3806 16.9583C51.5145 20.0092 52.0642 23.2463 52.001 26.5006Z" fill="black"/>
<path d="M15.668 21.6695L3.15829 34.1793C3.1229 34.2142 3.08501 34.2465 3.04492 34.276L15.6614 21.6628L15.668 21.6695Z" fill="black"/>
<path d="M19.8921 17.4292L17.7207 19.6006L17.7278 19.6077L19.8991 17.4363L19.8921 17.4292Z" fill="black"/>
<path d="M0.808025 32.4086L1.14144 32.0752C1.0114 32.2056 0.907306 32.3594 0.834699 32.5286C0.821194 32.4919 0.811145 32.4539 0.804688 32.4153L0.808025 32.4086Z" fill="black"/>
<path d="M15.668 21.6695L3.15829 34.1793C3.1229 34.2142 3.08501 34.2465 3.04492 34.276L15.6614 21.6628L15.668 21.6695Z" fill="black"/>
<path d="M19.8921 17.4292L17.7207 19.6006L17.7278 19.6077L19.8991 17.4363L19.8921 17.4292Z" fill="black"/>
</svg>
