<svg width="472" height="212" viewBox="0 0 472 212" fill="none" xmlns="http://www.w3.org/2000/svg">
<g clip-path="url(#clip0_51_18979)">
<path d="M921.289 136C902.144 136 884.144 128.936 870.559 116.059C863.164 109.05 857.719 100.845 854.279 92.0975C850.897 83.5126 842.184 77.8074 832.497 77.8074H832.038C822.179 77.8074 813.179 83.2409 809.453 91.8258C806.3 99.0523 801.657 105.736 795.638 111.495C783.371 123.123 767.092 129.48 749.78 129.48C732.469 129.48 716.189 123.068 703.922 111.495C699.05 106.877 695.095 101.606 692.057 95.9553C686.382 85.197 675.49 77.8618 662.822 77.8618H658.007C646.37 77.8618 635.078 83.4583 629.747 93.2928C627.11 98.183 623.613 102.801 619.257 106.931C608.308 117.309 593.748 123.014 578.271 123.014C562.794 123.014 548.234 117.309 537.286 106.931C534.419 104.214 531.897 101.226 529.776 98.1286C520.719 84.9796 504.44 77.9161 487.874 77.9161H487.415C471.25 77.9161 456.919 85.9577 447.003 98.02C445.741 99.5414 444.423 101.008 442.933 102.367C433.245 111.495 420.462 116.548 406.762 116.548C393.062 116.548 380.279 111.495 370.592 102.367C369.101 100.954 367.783 99.5414 366.522 98.02C355.401 84.5993 337.402 77.9161 319.403 77.9161H312.868C295.212 77.9161 279.105 85.686 266.723 97.5853C266.666 97.6396 266.608 97.694 266.551 97.7483C258.182 105.681 247.061 110.028 235.253 110.028C223.445 110.028 212.324 105.681 203.955 97.7483C195.586 89.8154 191 79.2745 191 68.0815C191 56.8885 195.586 46.3476 203.955 38.4147C212.324 30.4818 223.445 26.135 235.253 26.135C247.061 26.135 258.182 30.4818 266.551 38.4147C266.608 38.469 266.666 38.5234 266.723 38.5777C279.105 50.477 295.27 58.2469 312.868 58.2469H319.403C337.402 58.2469 355.401 51.5637 366.522 38.143C367.783 36.6217 369.101 35.2089 370.592 33.7962C380.279 24.668 393.062 19.6149 406.762 19.6149C420.462 19.6149 433.245 24.668 442.933 33.7962C444.423 35.2089 445.741 36.676 447.003 38.143C456.919 50.2054 471.307 58.2469 487.415 58.2469H487.874C504.44 58.2469 520.719 51.1834 529.776 38.0344C531.897 34.9373 534.419 31.9489 537.286 29.2321C548.234 18.8542 562.794 13.149 578.271 13.149C593.748 13.149 608.308 18.8542 619.314 29.2865C623.671 33.4159 627.11 37.98 629.804 42.8702C635.135 52.7048 646.428 58.3012 658.064 58.3012H662.937C675.605 58.3012 686.496 50.9117 692.171 40.2078C695.152 34.5569 699.165 29.2865 704.037 24.668C716.304 13.0404 732.584 6.62885 749.895 6.62885C767.206 6.62885 783.486 13.0404 795.753 24.668C801.829 30.4275 806.472 37.165 809.625 44.5002C813.294 52.9764 822.236 58.3556 831.866 58.3556C841.955 58.3556 850.955 52.4331 854.566 43.4678C858.177 34.5026 863.394 26.9501 870.616 20.1039C884.087 7.06352 902.086 0 921.289 0C944.104 0 965.313 10.0519 979.243 27.8738C997.586 51.3464 997.586 84.5993 979.243 108.072C965.313 125.948 944.104 136 921.232 136H921.289Z" fill="url(#paint0_linear_51_18979)"/>
<path d="M729.379 280C710.257 280 692.28 272.936 678.712 260.059C671.326 253.05 665.887 244.845 662.452 236.097C659.075 227.513 650.372 221.807 640.697 221.807H640.239C630.392 221.807 621.403 227.241 617.682 235.826C614.533 243.052 609.896 249.736 603.885 255.495C591.633 267.123 575.373 273.48 558.084 273.48C540.794 273.48 524.535 267.068 512.283 255.495C507.416 250.877 503.466 245.606 500.432 239.955C494.764 229.197 483.886 221.862 471.234 221.862H466.425C454.803 221.862 443.524 227.458 438.2 237.293C435.566 242.183 432.074 246.801 427.723 250.931C416.788 261.309 402.246 267.014 386.788 267.014C371.331 267.014 356.789 261.309 345.854 250.931C342.991 248.214 340.472 245.226 338.354 242.129C329.308 228.98 313.049 221.916 296.503 221.916H296.045C279.901 221.916 265.588 229.958 255.683 242.02C254.424 243.541 253.107 245.008 251.619 246.367C241.943 255.495 229.176 260.548 215.493 260.548C201.81 260.548 189.043 255.495 179.368 246.367C177.879 244.954 176.562 243.541 175.303 242.02C164.196 228.599 146.219 221.916 128.242 221.916H121.716C104.083 221.916 87.995 229.686 75.6288 241.585C75.5715 241.64 75.5142 241.694 75.457 241.748C67.0983 249.681 55.9916 254.028 44.1979 254.028C32.4042 254.028 21.2975 249.681 12.9388 241.748C4.58017 233.815 3.15195e-05 223.274 3.15195e-05 212.082C3.15195e-05 200.889 4.58017 190.348 12.9388 182.415C21.2975 174.482 32.4042 170.135 44.1979 170.135C55.9916 170.135 67.0983 174.482 75.457 182.415C75.5142 182.469 75.5715 182.523 75.6288 182.578C87.995 194.477 104.14 202.247 121.716 202.247H128.242C146.219 202.247 164.196 195.564 175.303 182.143C176.562 180.622 177.879 179.209 179.368 177.796C189.043 168.668 201.81 163.615 215.493 163.615C229.176 163.615 241.943 168.668 251.619 177.796C253.107 179.209 254.424 180.676 255.683 182.143C265.588 194.205 279.958 202.247 296.045 202.247H296.503C313.049 202.247 329.308 195.183 338.354 182.034C340.472 178.937 342.991 175.949 345.854 173.232C356.789 162.854 371.331 157.149 386.788 157.149C402.246 157.149 416.788 162.854 427.78 173.286C432.131 177.416 435.566 181.98 438.257 186.87C443.581 196.705 454.86 202.301 466.482 202.301H471.348C484.001 202.301 494.878 194.912 500.546 184.208C503.523 178.557 507.531 173.286 512.397 168.668C524.649 157.04 540.908 150.629 558.198 150.629C575.488 150.629 591.747 157.04 603.999 168.668C610.068 174.427 614.705 181.165 617.854 188.5C621.518 196.976 630.449 202.356 640.067 202.356C650.143 202.356 659.132 196.433 662.739 187.468C666.345 178.503 671.555 170.95 678.769 164.104C692.223 151.064 710.2 144 729.379 144C752.165 144 773.348 154.052 787.26 171.874C805.58 195.346 805.58 228.599 787.26 252.072C773.348 269.948 752.165 280 729.322 280H729.379Z" fill="url(#paint1_linear_51_18979)"/>
</g>
<defs>
<linearGradient id="paint0_linear_51_18979" x1="180.515" y1="68.0146" x2="1210.63" y2="67.4552" gradientUnits="userSpaceOnUse">
<stop stop-color="#F1FAF9"/>
<stop offset="1" stop-color="#3FE0D0" stop-opacity="0.63"/>
</linearGradient>
<linearGradient id="paint1_linear_51_18979" x1="-10.4719" y1="212.015" x2="1018.36" y2="211.457" gradientUnits="userSpaceOnUse">
<stop stop-color="#F1FAF9"/>
<stop offset="1" stop-color="#3FE0D0" stop-opacity="0.63"/>
</linearGradient>
<clipPath id="clip0_51_18979">
<rect width="472" height="212" fill="white" transform="matrix(-1 0 0 1 472 0)"/>
</clipPath>
</defs>
</svg>
