<svg width="1440" height="848" viewBox="0 0 1440 848" fill="none" xmlns="http://www.w3.org/2000/svg">
<rect width="1440" height="848" fill="#002B31"/>
<g clip-path="url(#clip0_394_945)">
<g opacity="0.06">
<mask id="mask0_394_945" style="mask-type:luminance" maskUnits="userSpaceOnUse" x="-748" y="167" width="2433" height="962">
<path d="M1684.27 167.218H-747.027V1128.72H1684.27V167.218Z" fill="white"/>
</mask>
<g mask="url(#mask0_394_945)">
<path d="M-1131.41 749.339L506.582 1686.28" stroke="#E0E4E8" stroke-width="1.44048" stroke-miterlimit="10"/>
<path d="M-973.828 666.249L664.181 1603.17" stroke="#E0E4E8" stroke-width="1.44048" stroke-miterlimit="10"/>
<path d="M-872.852 552.485L765.141 1489.42" stroke="#E0E4E8" stroke-width="1.44048" stroke-miterlimit="10"/>
<path d="M-715.273 469.395L922.736 1406.31" stroke="#E0E4E8" stroke-width="1.44048" stroke-miterlimit="10"/>
<path d="M-599.703 365.321L1006.06 1283.79" stroke="#E0E4E8" stroke-width="1.44048" stroke-miterlimit="10"/>
<path d="M-448.273 278.703L1163.63 1200.7" stroke="#E0E4E8" stroke-width="1.44048" stroke-miterlimit="10"/>
<path d="M-298.273 192.911L1383.77 1155.03" stroke="#E0E4E8" stroke-width="1.44048" stroke-miterlimit="10"/>
<path d="M758.543 624.164L1601.52 1106.35" stroke="#E0E4E8" stroke-width="1.44048" stroke-miterlimit="10"/>
<path d="M906.059 537.022L1642.35 958.179" stroke="#E0E4E8" stroke-width="1.44048" stroke-miterlimit="10"/>
<path d="M1057.49 450.403L1799.92 875.072" stroke="#E0E4E8" stroke-width="1.44048" stroke-miterlimit="10"/>
<path d="M1206.25 365.321L1883.25 752.547" stroke="#E0E4E8" stroke-width="1.44048" stroke-miterlimit="10"/>
<path d="M1357.69 278.702L2040.84 669.456" stroke="#E0E4E8" stroke-width="1.44048" stroke-miterlimit="10"/>
<path d="M2040.84 749.339L402.828 1686.28" stroke="#E0E4E8" stroke-width="1.44048" stroke-miterlimit="10"/>
<path d="M1883.24 666.249L245.234 1603.17" stroke="#E0E4E8" stroke-width="1.44048" stroke-miterlimit="10"/>
<path d="M1782.28 552.485L144.273 1489.42" stroke="#E0E4E8" stroke-width="1.44048" stroke-miterlimit="10"/>
<path d="M1624.68 469.395L-13.3281 1406.31" stroke="#E0E4E8" stroke-width="1.44048" stroke-miterlimit="10"/>
<path d="M1509.11 365.321L-96.6484 1283.79" stroke="#E0E4E8" stroke-width="1.44048" stroke-miterlimit="10"/>
<path d="M1357.68 278.703L-254.227 1200.7" stroke="#E0E4E8" stroke-width="1.44048" stroke-miterlimit="10"/>
<path d="M470.704 614.457L-474.355 1155.03" stroke="#E0E4E8" stroke-width="1.44048" stroke-miterlimit="10"/>
<path d="M302.757 537.292L-631.953 1071.93" stroke="#E0E4E8" stroke-width="1.44048" stroke-miterlimit="10"/>
<path d="M153.356 451.231L-732.914 958.179" stroke="#E0E4E8" stroke-width="1.44048" stroke-miterlimit="10"/>
<path d="M1.92111 364.612L-890.512 875.072" stroke="#E0E4E8" stroke-width="1.44048" stroke-miterlimit="10"/>
</g>
</g>
<path d="M-216.655 769.968C-210.495 766.674 -203.578 765.056 -196.597 765.275C-192.754 765.289 -188.929 765.799 -185.217 766.795C-181.634 767.8 -177.805 767.433 -174.479 765.765C-171.76 764.178 -170.866 761.798 -172.318 759.671C-173.555 758.017 -174.235 756.013 -174.259 753.948C-174.259 749.913 -171.541 746.149 -166.678 743.346C-161.103 740.374 -154.843 738.924 -148.528 739.143C-145.874 739.165 -143.228 739.442 -140.626 739.97C-136.082 741.029 -131.31 740.486 -127.119 738.434L-125.785 737.657C-122.527 735.784 -121.007 732.964 -122.409 730.365C-123.125 729.117 -123.497 727.701 -123.489 726.262C-123.489 722.65 -121.075 719.29 -116.736 716.792C-111.763 714.116 -106.172 712.8 -100.527 712.977C-98.9572 712.993 -97.3896 713.105 -95.8335 713.314C-89.7352 714.16 -83.526 713.043 -78.1054 710.124C-73.4792 707.457 -71.8245 703.692 -72.5843 699.995C-72.6893 699.524 -72.7347 699.042 -72.7194 698.56C-72.7194 695.386 -70.592 692.415 -66.7594 690.204C-62.3699 687.847 -57.4389 686.683 -52.4587 686.828C-51.6145 686.828 -50.7703 686.828 -50.0105 686.946C-43.3765 687.492 -36.7285 686.071 -30.8979 682.86L-29.0745 681.814C-24.1444 678.961 -21.9157 675.061 -21.9326 670.858C-21.9326 668.055 -20.0585 665.489 -16.7492 663.565C-12.8667 661.506 -8.51257 660.499 -4.12006 660.644C0.203293 660.593 4.46458 661.676 8.23898 663.784C11.5145 665.759 13.3042 668.359 13.3042 671.128C13.3042 673.896 11.4638 676.445 8.23898 678.353C4.43073 680.382 0.159332 681.382 -4.15381 681.257C-11.2113 681.138 -18.0324 682.371 -22.9794 685.224L-24.8366 686.304C-29.9018 689.225 -32.9578 693.31 -32.1474 697.48C-32.0413 697.951 -31.9847 698.432 -31.9785 698.915C-31.9785 702.071 -34.1059 705.043 -37.9385 707.254C-42.3289 709.608 -47.2593 710.772 -52.2392 710.63C-53.0665 710.63 -53.9276 710.63 -54.6874 710.512C-61.002 709.989 -67.384 710.883 -71.9089 713.483C-76.704 716.269 -79.1859 720.236 -77.8521 723.933C-77.5356 724.821 -77.3756 725.758 -77.3794 726.701C-77.3794 730.314 -79.7938 733.673 -84.1329 736.189C-89.1169 738.85 -94.7109 740.159 -100.358 739.987C-102.677 739.955 -104.987 739.717 -107.264 739.278C-111.51 738.426 -115.921 739.076 -119.741 741.118L-121.109 741.895C-124.654 743.954 -125.515 746.959 -123.979 749.829C-123.146 751.239 -122.714 752.85 -122.73 754.488C-122.73 758.523 -125.431 762.304 -130.294 765.107C-135.869 768.08 -142.127 769.541 -148.444 769.344C-151.689 769.32 -154.921 768.906 -158.068 768.111C-161.588 767.193 -165.325 767.615 -168.552 769.293C-171.423 770.981 -172.216 773.294 -170.629 775.421C-169.045 777.363 -168.169 779.786 -168.147 782.292C-168.147 786.749 -171.153 790.918 -176.589 794.008C-182.971 797.705 -191.785 799.359 -201.02 798.464C-213.058 797.283 -222.817 791.408 -224.658 784.301C-226.059 778.865 -223.054 773.666 -216.655 769.968Z" fill="url(#paint0_linear_394_945)"/>
<path d="M231.271 732.255C233.798 732.255 235.846 730.207 235.846 727.681C235.846 725.154 233.798 723.106 231.271 723.106C228.744 723.106 226.695 725.154 226.695 727.681C226.695 730.207 228.744 732.255 231.271 732.255Z" fill="white"/>
<path d="M578.223 591.11C579.323 591.11 580.215 590.218 580.215 589.118C580.215 588.018 579.323 587.126 578.223 587.126C577.122 587.126 576.23 588.018 576.23 589.118C576.23 590.218 577.122 591.11 578.223 591.11Z" fill="white"/>
<path d="M361.008 635.457C362.108 635.457 363 634.566 363 633.465C363 632.365 362.108 631.473 361.008 631.473C359.908 631.473 359.016 632.365 359.016 633.465C359.016 634.566 359.908 635.457 361.008 635.457Z" fill="white"/>
<path d="M1357.45 668.756C1359.86 668.761 1362.23 669.389 1364.33 670.579L1412.14 697.944C1413.04 698.459 1413.79 699.204 1414.31 700.102C1414.84 701 1415.11 702.02 1415.11 703.059C1415.11 704.097 1414.84 705.117 1414.31 706.016C1413.79 706.914 1413.04 707.658 1412.14 708.174L1364.31 735.572C1362.22 736.772 1359.85 737.403 1357.44 737.403C1355.03 737.403 1352.66 736.772 1350.57 735.572L1302.7 708.191C1301.8 707.673 1301.05 706.927 1300.53 706.027C1300.01 705.128 1299.73 704.107 1299.73 703.067C1299.73 702.028 1300.01 701.007 1300.53 700.107C1301.05 699.208 1301.8 698.461 1302.7 697.944L1350.52 670.579C1352.61 669.391 1354.98 668.763 1357.39 668.756M1357.39 667.068C1354.68 667.071 1352.03 667.781 1349.69 669.127L1301.81 696.492C1300.65 697.16 1299.69 698.121 1299.02 699.278C1298.35 700.436 1298 701.748 1298 703.084C1298 704.42 1298.35 705.732 1299.02 706.89C1299.69 708.047 1300.65 709.008 1301.81 709.676L1349.67 737.058C1352.02 738.402 1354.68 739.109 1357.39 739.109C1360.09 739.109 1362.75 738.402 1365.1 737.058L1412.99 709.575C1414.15 708.912 1415.11 707.954 1415.78 706.798C1416.46 705.642 1416.81 704.328 1416.81 702.991C1416.81 701.654 1416.46 700.341 1415.78 699.184C1415.11 698.028 1414.15 697.07 1412.99 696.407L1365.17 669.06C1362.82 667.713 1360.16 667.003 1357.45 667L1357.39 667.068Z" fill="#2F6368"/>
<path d="M1464 511.433L1359.97 452L1208 537" stroke="#2F6368" stroke-width="1.44048" stroke-linecap="round" stroke-linejoin="round"/>
</g>
<rect width="436" height="848" fill="url(#paint1_linear_394_945)"/>
<path d="M455.001 781.927C458.663 779.961 462.778 779 466.928 779.14C469.202 779.148 471.465 779.451 473.661 780.043C475.781 780.642 478.048 780.42 480.014 779.421C481.622 778.489 482.161 777.065 481.292 775.812C480.56 774.83 480.158 773.64 480.143 772.414C480.143 770.018 481.752 767.782 484.628 766.118C487.923 764.35 491.622 763.479 495.357 763.592C496.927 763.608 498.493 763.776 500.031 764.093C502.72 764.722 505.543 764.399 508.022 763.181L508.812 762.72C510.739 761.597 511.638 759.933 510.809 758.389C510.39 757.646 510.17 756.807 510.17 755.953C510.17 753.807 511.598 751.813 514.166 750.319C517.111 748.739 520.417 747.961 523.755 748.063C524.684 748.073 525.611 748.14 526.532 748.264C530.14 748.766 533.813 748.102 537.02 746.369C539.757 744.775 540.736 742.55 540.296 740.354C540.232 740.075 540.201 739.789 540.207 739.502C540.207 737.617 541.475 735.853 543.743 734.54C546.335 733.137 549.25 732.445 552.193 732.535C552.693 732.535 553.192 732.535 553.642 732.605C557.567 732.929 561.5 732.086 564.949 730.179L566.028 729.557C568.955 727.863 570.273 725.487 570.263 723.051C570.263 721.387 571.362 719.863 573.32 718.72C575.589 717.523 578.128 716.932 580.692 717.006C583.249 716.975 585.771 717.618 588.003 718.871C589.941 720.044 591 721.588 591 723.232C591 724.876 589.901 726.389 587.943 727.522C585.695 728.728 583.17 729.319 580.622 729.236C576.436 729.176 572.401 729.908 569.474 731.602L568.375 732.234C565.379 733.968 563.571 736.404 564.06 738.88C564.117 739.158 564.151 739.439 564.16 739.723C564.16 741.607 562.891 743.372 560.624 744.735C558.027 746.134 555.11 746.826 552.163 746.74C551.674 746.74 551.164 746.74 550.725 746.67C546.979 746.359 543.203 746.89 540.526 748.434C537.689 750.078 536.221 752.444 537.01 754.64C537.207 755.165 537.302 755.723 537.29 756.284C537.29 758.429 535.861 760.424 533.294 761.918C530.344 763.493 527.036 764.27 523.695 764.173C522.323 764.153 520.956 764.012 519.609 763.752C517.098 763.248 514.49 763.631 512.228 764.835L511.429 765.306C509.321 766.529 508.812 768.313 509.721 770.018C510.213 770.855 510.469 771.812 510.46 772.785C510.46 775.18 508.861 777.416 505.985 779.09C502.682 780.843 498.98 781.697 495.247 781.566C493.326 781.552 491.415 781.306 489.553 780.835C487.47 780.289 485.26 780.539 483.35 781.536C481.652 782.539 481.182 783.912 482.121 785.175C483.059 786.328 483.576 787.767 483.59 789.255C483.59 791.892 481.812 794.378 478.595 796.213C474.819 798.398 469.555 799.391 464.141 798.859C457.019 798.158 451.246 794.669 450.157 790.448C449.438 787.21 451.216 784.113 455.001 781.927Z" fill="url(#paint2_linear_394_945)"/>
<defs>
<linearGradient id="paint0_linear_394_945" x1="-225.029" y1="729.673" x2="13.2197" y2="729.673" gradientUnits="userSpaceOnUse">
<stop stop-color="#002B31" stop-opacity="0"/>
<stop offset="0.1" stop-color="#023136" stop-opacity="0.03"/>
<stop offset="0.24" stop-color="#084145" stop-opacity="0.12"/>
<stop offset="0.41" stop-color="#115C5C" stop-opacity="0.27"/>
<stop offset="0.6" stop-color="#1E827D" stop-opacity="0.48"/>
<stop offset="0.81" stop-color="#2FB1A7" stop-opacity="0.74"/>
<stop offset="1" stop-color="#3FE0D0"/>
</linearGradient>
<linearGradient id="paint1_linear_394_945" x1="232.856" y1="392" x2="410.307" y2="381.942" gradientUnits="userSpaceOnUse">
<stop stop-color="#002B31"/>
<stop offset="1" stop-color="#002B31" stop-opacity="0"/>
</linearGradient>
<linearGradient id="paint2_linear_394_945" x1="450.057" y1="757.988" x2="591.01" y2="757.988" gradientUnits="userSpaceOnUse">
<stop stop-color="#3FE0D0"/>
<stop offset="0.19" stop-color="#2FB1A7" stop-opacity="0.74"/>
<stop offset="0.4" stop-color="#1E827D" stop-opacity="0.48"/>
<stop offset="0.59" stop-color="#115C5C" stop-opacity="0.27"/>
<stop offset="0.76" stop-color="#084145" stop-opacity="0.12"/>
<stop offset="0.9" stop-color="#023136" stop-opacity="0.03"/>
<stop offset="1" stop-color="#002B31" stop-opacity="0"/>
</linearGradient>
<clipPath id="clip0_394_945">
<rect width="1689" height="668" fill="white" transform="translate(-202 193)"/>
</clipPath>
</defs>
</svg>
