<svg xmlns="http://www.w3.org/2000/svg" width="89" height="80" viewBox="0 0 89 80" fill="none">
  <path d="M85.5161 51.3835C90.09 54.0236 90.1068 58.3004 85.5721 60.9125L56.1388 78.0198C51.5986 80.6598 44.2276 80.6598 39.6537 78.0198L10.0298 60.9349C5.46714 58.3004 5.44472 54.0292 9.98499 51.4059L39.4183 34.2986C43.9474 31.6641 51.3295 31.6585 55.8922 34.2986L85.5161 51.3835Z" fill="#D8E5E1"/>
  <path d="M79.0377 51.3835C83.606 54.0236 83.6228 58.3004 79.0882 60.9125L49.6605 78.0198C45.1202 80.6598 37.7437 80.6598 33.1754 78.0198L3.55147 60.9349C-1.01122 58.3004 -1.03925 54.0292 3.50663 51.4059L32.9399 34.2986C37.4746 31.6641 44.8568 31.6585 49.4194 34.2986L79.0377 51.3835Z" fill="#BDC0FA"/>
  <path d="M79.0884 52.5719L49.6607 69.6736L49.543 77.0165L78.9763 59.9092C81.2184 58.6032 82.3394 56.888 82.3394 55.1671L82.4571 47.8298C82.474 49.545 81.3417 51.2603 79.0884 52.5719Z" fill="#DDDFFC"/>
  <path d="M3.55375 52.5718C1.25558 51.2433 0.112106 49.5057 0.117711 47.7681L0 55.111C0 56.8486 1.12106 58.5863 3.43603 59.9091L33.0599 77.0164L33.1776 69.6735L3.55375 52.5718Z" fill="#DDDFFC"/>
  <path d="M79.0377 43.0206C83.606 45.6607 83.6228 49.9375 79.0882 52.5496L49.6605 69.6513C45.1202 72.2914 37.7437 72.2914 33.1754 69.6513L3.55147 52.572C-1.01122 49.9375 -1.03925 45.6663 3.50663 43.043L32.9399 25.9245C37.4746 23.29 44.8568 23.2844 49.4194 25.9245L79.0377 43.0206Z" fill="white"/>
  <path d="M71.8378 43.9342C75.5373 46.0698 75.5485 49.5394 71.8826 51.6582L48.077 65.5033C44.4056 67.6333 38.436 67.6333 34.7365 65.5033L10.7515 51.675C7.06324 49.545 7.04082 46.0698 10.7179 43.951L34.5347 30.0947C38.2005 27.9647 44.1758 27.9591 47.8696 30.0947L71.8378 43.9342Z" fill="white" stroke="#DDDFFC" stroke-miterlimit="10"/>
  <path d="M37.5019 54.0574C37.5159 54.2681 37.4587 54.4773 37.3394 54.6516C37.1815 54.8664 36.9787 55.0442 36.7452 55.1729C36.4658 55.3326 36.1632 55.4479 35.8484 55.5148C35.5118 55.5892 35.1672 55.6212 34.8226 55.6101C34.4664 55.6038 34.1124 55.5529 33.7688 55.4587C33.423 55.3701 33.0911 55.2343 32.7823 55.0552C32.5146 54.9131 32.2752 54.7231 32.076 54.4946C31.9293 54.3212 31.8358 54.109 31.807 53.8837C31.7921 53.6729 31.8495 53.4633 31.9695 53.2895C32.1289 53.076 32.3313 52.8984 32.5637 52.7682C32.8448 52.6108 33.1468 52.4938 33.4605 52.4207C33.7972 52.3463 34.1418 52.3143 34.4863 52.3254C34.8425 52.3368 35.1961 52.3894 35.5401 52.4823C35.887 52.5729 36.2206 52.7086 36.5322 52.8859C36.7987 53.0274 37.0364 53.2175 37.2329 53.4464C37.3766 53.6218 37.4696 53.8331 37.5019 54.0574Z" fill="#DDDFFC"/>
  <path d="M51.8376 49.8142C51.4306 50.3518 50.9125 50.7954 50.3185 51.1147C49.8493 51.3886 49.3462 51.5997 48.8219 51.7424C48.2896 51.8853 47.7456 51.981 47.1964 52.0283C46.6359 52.0732 46.0305 52.0956 45.3915 52.0844L43.3736 52.0451C43.0003 52.0216 42.6259 52.0216 42.2526 52.0451C41.9393 52.0651 41.6282 52.1101 41.3221 52.1797C41.0308 52.2493 40.7458 52.3431 40.4701 52.4599C40.1724 52.5828 39.8823 52.7232 39.6013 52.8803L36.4062 51.0362C36.8606 50.7678 37.3283 50.5227 37.8076 50.3019C38.2485 50.1019 38.7038 49.9352 39.1697 49.803C39.6326 49.6771 40.105 49.589 40.5822 49.5396C41.1037 49.4883 41.6284 49.477 42.1517 49.5059C42.9748 49.5598 43.8005 49.5598 44.6236 49.5059C45.2317 49.4782 45.8257 49.3134 46.3612 49.0239C46.9217 48.6876 47.2412 48.3681 47.2693 48.071C47.2973 47.7739 47.0675 47.5105 46.5854 47.2078C46.3786 47.089 46.1559 47.0003 45.924 46.9443C45.6616 46.8814 45.3922 46.8531 45.1225 46.8602C44.8192 46.8645 44.5178 46.9079 44.2256 46.9892C43.8874 47.0795 43.5617 47.2113 43.2559 47.3815L39.4835 45.2011C40.279 44.74 41.1413 44.4053 42.0396 44.209C42.8904 44.0302 43.7611 43.9642 44.6292 44.0128C45.4829 44.0656 46.3266 44.2256 47.1404 44.4892C47.9513 44.7558 48.7327 45.1052 49.4721 45.5318C50.1733 45.9161 50.8167 46.3973 51.3835 46.9611C51.7902 47.3479 52.0714 47.8478 52.1907 48.3961C52.2296 48.6441 52.2184 48.8973 52.1578 49.1409C52.0971 49.3845 51.9882 49.6135 51.8376 49.8142Z" fill="#DDDFFC"/>
  <path d="M9.32496 50.5876C9.74631 50.1833 10.2149 49.8313 10.7207 49.5394L34.5375 35.6999C38.2033 33.5699 44.1786 33.5643 47.8724 35.6999L71.8406 49.545C72.3636 49.8426 72.8475 50.2041 73.2812 50.6212C75.456 48.5192 74.9627 45.7502 71.8406 43.9397L47.8724 30.0947C44.1786 27.9647 38.2033 27.9703 34.5375 30.0947L10.7207 43.9341C7.60974 45.7446 7.16132 48.4912 9.32496 50.5876Z" fill="#DDDFFC"/>
  <path d="M49.6653 69.6733L49.5476 77.0163C45.0073 79.6507 37.6364 79.6507 33.0625 77.0163L33.1802 69.6733C37.7485 72.3134 45.1251 72.3134 49.6653 69.6733Z" fill="#F5F5F5"/>
  <path d="M71.8846 23.1272L48.1014 36.9498L48.0117 42.8802L71.7893 29.0632C73.611 28.0038 74.5247 26.6193 74.5303 25.2292L74.62 19.2988C74.6144 20.6889 73.7063 22.0734 71.8846 23.1272Z" fill="#5257D4"/>
  <path d="M10.8465 23.1327C8.99672 22.0621 8.04383 20.6552 8.07185 19.2483L7.97656 25.1843C7.97656 26.5856 8.90143 27.9869 10.7792 29.0631L34.7137 42.8801L34.809 36.9498L10.8465 23.1327Z" fill="#5257D4"/>
  <path d="M71.8416 15.4145C75.5355 17.5445 75.5467 21.0198 71.8864 23.1274L48.1032 36.95C44.4374 39.08 38.479 39.08 34.7851 36.95L10.845 23.133C7.1623 21.003 7.13988 17.5277 10.8113 15.4201L34.5889 1.5975C38.2548 -0.532501 44.2188 -0.532501 47.907 1.5975L71.8416 15.4145Z" fill="#989DF2"/>
  <path d="M48.1048 36.95L48.0151 42.8803C44.3437 45.0159 38.3853 45.0159 34.6914 42.8803L34.7867 36.95C38.4806 39.08 44.439 39.08 48.1048 36.95Z" fill="#7B80E5"/>
  <path d="M40.4399 21.8661L37.3906 20.1004L47.9566 13.4077L51.9643 15.7227L40.4399 21.8661Z" fill="#5257D4"/>
  <path d="M38.126 23.6486C37.9798 23.8615 37.7884 24.0395 37.5655 24.1699C37.2852 24.3278 36.9829 24.443 36.6687 24.5118C36.3338 24.5855 35.9913 24.6194 35.6485 24.6127C35.2907 24.599 34.9355 24.5463 34.5891 24.4558C34.2436 24.3661 33.9118 24.2304 33.6026 24.0522C33.3335 23.9122 33.0937 23.7219 32.8963 23.4917C32.7487 23.3193 32.6568 23.1063 32.6329 22.8807C32.6127 22.6694 32.6705 22.4581 32.7954 22.2865C32.9397 22.072 33.1315 21.8936 33.3559 21.7652C33.6351 21.605 33.9378 21.4896 34.2528 21.4233C34.5885 21.3434 34.9338 21.3113 35.2785 21.328C35.6329 21.334 35.9851 21.3848 36.3267 21.4794C36.6761 21.5679 37.0118 21.7037 37.3245 21.8829C37.592 22.0229 37.8299 22.2132 38.0251 22.4435C38.1753 22.6277 38.2688 22.8517 38.2942 23.0881C38.3061 23.2889 38.2465 23.4875 38.126 23.6486Z" fill="#5257D4"/>
</svg>