<svg xmlns="http://www.w3.org/2000/svg" width="32" height="32" viewBox="0 0 32 32" fill="none">
  <path d="M20.0667 12H7.33333C6.44928 12 5.60143 11.6488 4.97631 11.0237C4.35119 10.3986 4 9.55072 4 8.66667C4 7.78261 4.35119 6.93477 4.97631 6.30964C5.60143 5.68452 6.44928 5.33333 7.33333 5.33333H20.0667M11.9333 26.6667H24.6667C25.5507 26.6667 26.3986 26.3155 27.0237 25.6904C27.6488 25.0652 28 24.2174 28 23.3333C28 22.4493 27.6488 21.6014 27.0237 20.9763C26.3986 20.3512 25.5507 20 24.6667 20H11.9333M4 23.3333C4 23.9462 4.12071 24.553 4.35523 25.1192C4.58975 25.6854 4.9335 26.1998 5.36684 26.6332C5.80018 27.0665 6.31462 27.4102 6.88081 27.6448C7.447 27.8793 8.05383 28 8.66667 28C9.2795 28 9.88634 27.8793 10.4525 27.6448C11.0187 27.4102 11.5332 27.0665 11.9665 26.6332C12.3998 26.1998 12.7436 25.6854 12.9781 25.1192C13.2126 24.553 13.3333 23.9462 13.3333 23.3333C13.3333 22.0957 12.8417 20.9087 11.9665 20.0335C11.0913 19.1583 9.90434 18.6667 8.66667 18.6667C7.42899 18.6667 6.24201 19.1583 5.36684 20.0335C4.49167 20.9087 4 22.0957 4 23.3333ZM28 8.66667C28 9.90434 27.5083 11.0913 26.6332 11.9665C25.758 12.8417 24.571 13.3333 23.3333 13.3333C22.0957 13.3333 20.9087 12.8417 20.0335 11.9665C19.1583 11.0913 18.6667 9.90434 18.6667 8.66667C18.6667 7.42899 19.1583 6.24201 20.0335 5.36684C20.9087 4.49167 22.0957 4 23.3333 4C24.571 4 25.758 4.49167 26.6332 5.36684C27.5083 6.24201 28 7.42899 28 8.66667Z" stroke="#65E6D9" stroke-width="2" stroke-linecap="round" stroke-linejoin="round"/>
</svg>