<?xml version="1.0" encoding="UTF-8"?>
<svg xmlns="http://www.w3.org/2000/svg" width="72" height="29" viewBox="0 0 72 29" fill="none">
  <g clip-path="url(#clip0_51_222)">
    <path d="M0.643555 0.948195H5.78292V6.08712H0.643555V0.948195ZM5.65489 27.7218V9.19607H0.771582V27.7035H5.65489V27.7218ZM37.9908 27.9047V23.3693C37.2775 23.3693 36.674 23.3327 36.235 23.2595C35.7229 23.1864 35.3388 23.0035 35.0828 22.7475C34.8267 22.4914 34.6621 22.1257 34.5707 21.6319C34.4975 21.1747 34.4609 20.5712 34.4609 19.8397V13.384H37.9908V9.19607H34.4609V1.99061H29.5776V19.8945C29.5776 21.4124 29.7056 22.6926 29.9617 23.7167C30.2177 24.7226 30.6567 25.5455 31.2603 26.1673C31.8638 26.7891 32.6685 27.228 33.6379 27.5023C34.6255 27.7767 35.8692 27.9047 37.3507 27.9047H37.9908ZM65.9372 27.7218V0.564148H61.0539V27.7218H65.9372ZM24.8772 11.0249C23.5238 9.56183 21.6217 8.83031 19.2074 8.83031C18.0369 8.83031 16.9578 9.06806 16.0068 9.54354C15.0374 10.019 14.2327 10.6774 13.5743 11.5186L13.3182 11.8661V9.19607H8.50806V27.7035H13.3548V17.8463V18.1938C13.4097 16.4564 13.8303 15.1762 14.6351 14.3533C15.4947 13.4755 16.5372 13.0365 17.726 13.0365C19.1343 13.0365 20.2134 13.4755 20.9267 14.3167C21.6217 15.158 21.9875 16.3467 21.9875 17.8646V27.7035H26.9073V17.2062C26.9256 14.5727 26.2306 12.4879 24.8772 11.0249ZM58.53 18.4315C58.53 17.0965 58.2922 15.8529 57.8349 14.6825C57.3594 13.5303 56.701 12.5062 55.878 11.6284C55.0367 10.7505 54.0307 10.0739 52.8602 9.58012C51.6897 9.08634 50.3911 8.8486 48.9828 8.8486C47.6477 8.8486 46.3857 9.10463 45.2152 9.59841C44.0446 10.1105 43.0204 10.7871 42.1608 11.6467C41.3012 12.5062 40.6062 13.5303 40.1124 14.7008C39.6003 15.8712 39.3625 17.1331 39.3625 18.4681C39.3625 19.8031 39.6003 21.065 40.0758 22.2354C40.5513 23.4058 41.2281 24.43 42.0694 25.2895C42.9107 26.149 43.9532 26.844 45.1603 27.3377C46.3674 27.8498 47.7025 28.1058 49.1291 28.1058C53.2626 28.1058 55.8231 26.2222 57.3594 24.4665L53.8478 21.7965C53.1162 22.6743 51.3605 23.863 49.1657 23.863C47.794 23.863 46.66 23.5521 45.8004 22.9121C44.9408 22.2903 44.3556 21.4124 44.0446 20.3334L43.9898 20.1689H58.53V18.4315ZM44.0263 16.7307C44.0263 15.3774 45.581 13.0183 48.9279 13C52.2749 13 53.8478 15.3591 53.8478 16.7124L44.0263 16.7307ZM71.4972 25.3809C71.4058 25.1615 71.2778 24.9786 71.1132 24.814C70.9486 24.6494 70.7657 24.5214 70.5462 24.43C70.3267 24.3385 70.0889 24.2837 69.8512 24.2837C69.5951 24.2837 69.3756 24.3385 69.1562 24.43C68.9367 24.5214 68.7538 24.6494 68.5892 24.814C68.4246 24.9786 68.2966 25.1615 68.2051 25.3809C68.1137 25.6004 68.0588 25.8381 68.0588 26.0759C68.0588 26.3319 68.1137 26.5514 68.2051 26.7708C68.2966 26.9903 68.4246 27.1731 68.5892 27.3377C68.7538 27.5023 68.9367 27.6304 69.1562 27.7218C69.3756 27.8132 69.6134 27.8681 69.8512 27.8681C70.1072 27.8681 70.3267 27.8132 70.5462 27.7218C70.7657 27.6304 70.9486 27.5023 71.1132 27.3377C71.2778 27.1731 71.4058 26.9903 71.4972 26.7708C71.5887 26.5514 71.6436 26.3136 71.6436 26.0759C71.6436 25.8381 71.5887 25.6004 71.4972 25.3809ZM71.2046 26.6611C71.1314 26.844 71.0217 27.0086 70.8937 27.1366C70.7657 27.2646 70.6011 27.3743 70.4182 27.4475C70.2353 27.5206 70.0524 27.5572 69.8329 27.5572C69.6317 27.5572 69.4305 27.5206 69.2476 27.4475C69.0647 27.3743 68.9001 27.2646 68.7721 27.1366C68.6441 27.0086 68.5343 26.844 68.4612 26.6611C68.388 26.4782 68.3514 26.2953 68.3514 26.0759C68.3514 25.8747 68.388 25.6735 68.4612 25.4907C68.5343 25.3078 68.6441 25.1432 68.7721 25.0152C68.9001 24.8872 69.0647 24.7774 69.2476 24.7043C69.4305 24.6311 69.6134 24.5945 69.8329 24.5945C70.0341 24.5945 70.2353 24.6311 70.4182 24.7043C70.6011 24.7774 70.7657 24.8872 70.8937 25.0152C71.0217 25.1432 71.1314 25.3078 71.2046 25.4907C71.2778 25.6735 71.3143 25.8564 71.3143 26.0759C71.3143 26.2953 71.2778 26.4782 71.2046 26.6611ZM70.1804 26.2405C70.3267 26.2222 70.4364 26.1673 70.5279 26.0759C70.6193 25.9844 70.6742 25.8564 70.6742 25.6735C70.6742 25.4724 70.6193 25.3261 70.4913 25.2163C70.3816 25.1066 70.1804 25.0517 69.9426 25.0517H69.1379V27.1183H69.522V26.277H69.7963L70.3084 27.1183H70.7108L70.1804 26.2405ZM69.9792 25.9296H69.522V25.3444H69.9792C70.0341 25.3444 70.0889 25.3626 70.1438 25.3809C70.1987 25.3992 70.2353 25.4358 70.2535 25.4724C70.2901 25.5089 70.2901 25.5638 70.2901 25.637C70.2901 25.7101 70.2718 25.765 70.2535 25.8016C70.217 25.8381 70.1804 25.8747 70.1438 25.893C70.0889 25.9113 70.0341 25.9296 69.9792 25.9296Z" fill="#002B31"></path>
  </g>
  <defs>
    <clipPath id="clip0_51_222">
      <rect width="71" height="28" fill="white" transform="translate(0.643555 0.334991)"></rect>
    </clipPath>
  </defs>
</svg>
