<?xml version="1.0" encoding="UTF-8"?>
<svg xmlns="http://www.w3.org/2000/svg" width="564" height="565" viewBox="0 0 564 565" fill="none">
  <path d="M490.099 290.734C487.53 289.359 484.644 288.685 481.732 288.777C480.13 288.783 478.535 288.996 476.988 289.411C475.495 289.83 473.899 289.677 472.512 288.982C471.379 288.32 471.006 287.328 471.619 286.441C472.133 285.751 472.413 284.915 472.421 284.055C472.421 282.373 471.288 280.811 469.261 279.636C466.94 278.396 464.333 277.787 461.703 277.869C460.597 277.879 459.494 277.995 458.409 278.214C456.515 278.655 454.526 278.429 452.779 277.574L452.216 277.25C450.858 276.469 450.225 275.294 450.809 274.21C451.107 273.689 451.263 273.099 451.259 272.5C451.259 271.001 450.253 269.593 448.444 268.552C446.37 267.44 444.041 266.891 441.688 266.961C441.034 266.968 440.38 267.015 439.732 267.102C437.19 267.454 434.602 266.989 432.342 265.772C430.421 264.66 429.725 263.091 430.041 261.549C430.087 261.353 430.109 261.152 430.105 260.951C430.105 259.628 429.211 258.389 427.613 257.468C425.784 256.485 423.728 256 421.652 256.06C421.301 256.06 420.949 256.06 420.639 256.109C417.872 256.338 415.098 255.745 412.666 254.406L411.906 253.97C409.851 252.781 408.922 251.155 408.929 249.403C408.929 248.234 408.148 247.165 406.768 246.362C405.169 245.521 403.38 245.106 401.575 245.159C399.775 245.137 398.001 245.588 396.43 246.468C395.058 247.291 394.319 248.375 394.319 249.529C394.319 250.683 395.086 251.746 396.465 252.541C398.053 253.387 399.833 253.804 401.631 253.752C404.572 253.703 407.416 254.216 409.478 255.406L410.252 255.856C412.363 257.074 413.637 258.777 413.299 260.515C413.255 260.711 413.231 260.912 413.229 261.113C413.229 262.429 414.122 263.668 415.72 264.59C417.547 265.571 419.6 266.056 421.674 265.997C422.018 265.997 422.377 265.997 422.694 265.948C425.326 265.73 427.986 266.103 429.872 267.186C431.871 268.348 432.905 269.966 432.349 271.543C432.218 271.913 432.151 272.304 432.152 272.697C432.152 274.203 433.159 275.603 434.967 276.652C437.045 277.761 439.377 278.307 441.73 278.235C442.697 278.222 443.66 278.123 444.609 277.94C446.379 277.584 448.217 277.856 449.81 278.707L450.38 279.03C451.857 279.889 452.216 281.142 451.576 282.338C451.229 282.926 451.049 283.598 451.055 284.28C451.055 285.962 452.181 287.539 454.208 288.707C456.532 289.946 459.141 290.555 461.773 290.473C463.126 290.467 464.474 290.295 465.785 289.96C467.252 289.577 468.809 289.753 470.155 290.452C471.351 291.156 471.682 292.127 471.021 293.007C470.364 293.819 470 294.827 469.986 295.871C469.986 297.729 471.239 299.467 473.505 300.755C476.158 302.296 479.839 302.986 483.681 302.613C488.699 302.121 492.766 299.679 493.533 296.709C494.019 294.464 492.766 292.275 490.099 290.734Z" fill="url(#paint0_linear_690_1054)"></path>
  <path d="M160.048 315.379C162.606 315.328 165.137 315.926 167.402 317.118L197.48 334.472C199.056 335.38 199.964 336.52 199.964 337.59C199.964 338.659 199.077 339.764 197.529 340.665L167.662 358.027C165.378 359.168 162.861 359.762 160.308 359.762C157.755 359.762 155.237 359.168 152.954 358.027L122.882 340.665C121.306 339.757 120.405 338.624 120.405 337.554C120.405 336.485 121.292 335.373 122.84 334.479L152.714 317.118C154.974 315.924 157.5 315.325 160.055 315.379" stroke="#C5E1DE" stroke-miterlimit="10"></path>
  <path d="M354.36 200.647C356.918 200.597 359.447 201.192 361.714 202.378L391.778 219.74C393.355 220.647 394.256 221.788 394.263 222.85C394.27 223.913 393.376 225.032 391.828 225.933L361.953 243.294C359.671 244.435 357.154 245.029 354.603 245.029C352.051 245.029 349.534 244.435 347.252 243.294L317.188 225.926C315.612 225.018 314.711 223.892 314.711 222.822C314.711 221.752 315.597 220.64 317.146 219.74L347.013 202.385C349.275 201.192 351.803 200.594 354.36 200.647Z" stroke="#C5E1DE" stroke-miterlimit="10"></path>
  <path d="M285.315 165.424L302.627 155.325C305.655 153.56 309.089 152.611 312.593 152.57C316.098 152.529 319.553 153.399 322.621 155.093L439.014 218.987C440.499 219.808 441.737 221.012 442.602 222.472C443.466 223.932 443.925 225.596 443.932 227.293C443.938 228.99 443.492 230.658 442.638 232.125C441.785 233.592 440.556 234.804 439.077 235.637L353.515 283.788" stroke="url(#paint1_linear_690_1054)" stroke-width="14" stroke-miterlimit="10" stroke-linecap="round"></path>
  <path d="M250.704 350.06L195.207 382.158C188.588 386.008 181.073 388.052 173.416 388.086C165.758 388.119 158.227 386.141 151.574 382.348L46.1666 323.937C44.832 323.176 43.7192 322.08 42.9382 320.756C42.1573 319.433 41.7353 317.929 41.714 316.393C41.6927 314.857 42.0727 313.342 42.8166 311.998C43.5605 310.653 44.6425 309.527 45.9554 308.729L61.4379 299.299" stroke="url(#paint2_linear_690_1054)" stroke-width="14" stroke-miterlimit="10" stroke-linecap="round"></path>
  <path d="M563.43 233.815L357.59 110.56C356.634 109.985 355.844 109.171 355.299 108.197C354.754 107.223 354.473 106.124 354.484 105.009C354.494 103.893 354.796 102.799 355.36 101.836C355.923 100.873 356.728 100.074 357.696 99.518L529.34 1" stroke="#C5E1DE" stroke-miterlimit="10"></path>
  <path d="M1 397.922L277.539 564" stroke="#C5E1DE" stroke-miterlimit="10"></path>
  <path d="M291.269 1L168.317 72.4517C161.829 76.223 154.462 78.2183 146.958 78.2368C139.454 78.2554 132.077 76.2964 125.571 72.5573L1.13379 1" stroke="#C5E1DE" stroke-miterlimit="10"></path>
  <path d="M369.265 460.436C366.001 458.694 362.338 457.833 358.639 457.938C356.599 457.948 354.57 458.223 352.601 458.754C350.695 459.283 348.661 459.085 346.893 458.198C345.486 457.36 344.972 456.087 345.746 454.968C346.401 454.088 346.763 453.024 346.781 451.928C346.781 449.816 345.331 447.789 342.755 446.298C339.795 444.72 336.474 443.944 333.121 444.046C331.714 444.059 330.312 444.207 328.934 444.489C326.407 445.003 323.62 444.763 321.734 443.673L321.03 443.257C319.299 442.258 318.497 440.766 319.229 439.387C319.604 438.723 319.8 437.974 319.799 437.212C319.799 435.291 318.518 433.51 316.21 432.173C313.567 430.759 310.599 430.062 307.603 430.154C306.767 430.16 305.932 430.221 305.105 430.337C301.867 430.783 298.571 430.187 295.695 428.633C293.239 427.226 292.367 425.227 292.761 423.243C292.819 422.991 292.845 422.734 292.838 422.476C292.838 420.794 291.705 419.217 289.664 418.042C287.335 416.794 284.719 416.18 282.078 416.262C281.627 416.262 281.212 416.261 280.783 416.325C277.259 416.618 273.727 415.867 270.628 414.164L269.664 413.601C267.039 412.088 265.856 409.97 265.864 407.788C265.864 406.296 264.878 404.931 263.119 403.918C261.082 402.841 258.8 402.312 256.497 402.384C254.204 402.354 251.944 402.929 249.945 404.051C248.206 405.093 247.242 406.479 247.249 407.943C247.256 409.407 248.228 410.758 249.987 411.786C252.005 412.865 254.272 413.394 256.56 413.32C260.311 413.264 263.935 413.918 266.56 415.431L267.545 416.001C270.227 417.556 271.859 419.724 271.423 421.941C271.369 422.191 271.338 422.445 271.332 422.701C271.332 424.383 272.472 425.959 274.506 427.134C276.837 428.382 279.456 428.996 282.099 428.915C282.535 428.915 282.965 428.915 283.394 428.852C286.744 428.577 290.136 429.049 292.543 430.435C295.097 431.906 296.413 433.954 295.702 435.981C295.531 436.452 295.446 436.95 295.449 437.451C295.449 439.373 296.737 441.153 299.045 442.49C301.691 443.903 304.661 444.597 307.659 444.503C308.89 444.489 310.117 444.364 311.326 444.13C313.579 443.676 315.92 444.02 317.948 445.101L318.652 445.516C320.538 446.607 321.002 448.24 320.179 449.739C319.742 450.491 319.513 451.346 319.517 452.216C319.517 454.327 320.925 456.361 323.529 457.846C326.49 459.427 329.815 460.204 333.17 460.098C334.893 460.089 336.609 459.872 338.279 459.451C340.148 458.965 342.13 459.185 343.846 460.07C345.366 460.95 345.795 462.181 344.951 463.328C344.11 464.358 343.645 465.644 343.635 466.974C343.635 469.338 345.232 471.555 348.083 473.202C351.468 475.158 356.19 476.017 361.046 475.567C367.443 474.933 372.622 471.823 373.565 468.043C374.255 465.158 372.665 462.392 369.265 460.436Z" fill="url(#paint3_linear_690_1054)"></path>
  <path d="M156.092 268.58C162.954 272.542 162.975 278.96 156.177 282.915L111.995 308.595C105.176 312.557 94.1059 312.557 87.2443 308.595L42.7744 282.915C35.9269 278.96 35.8917 272.549 42.704 268.594L86.8854 242.914C93.6907 238.959 104.775 238.952 111.622 242.914L156.092 268.58Z" fill="#D7DAE0"></path>
  <path d="M146.374 268.58C153.235 272.542 153.256 278.96 146.451 282.915L102.27 308.595C95.4573 312.557 84.3873 312.557 77.5257 308.595L33.0558 282.915C26.2013 278.96 26.1661 272.549 32.9854 268.594L77.1387 242.914C83.9439 238.959 95.021 238.952 101.875 242.914L146.374 268.58Z" fill="#BDC0C9"></path>
  <path d="M146.451 270.36L102.269 296.04L102.101 307.061L146.282 281.381C149.66 279.418 151.356 276.842 151.363 274.266L151.539 263.245C151.525 265.821 149.836 268.425 146.451 270.36Z" fill="#D9DEE2"></path>
  <path d="M33.0559 270.36C29.6075 268.376 27.8903 265.765 27.8974 263.154L27.7214 274.174C27.7214 276.785 29.4386 279.396 32.8799 281.381L77.3499 307.061L77.5258 296.04L33.0559 270.36Z" fill="#D9DEE2"></path>
  <path d="M146.374 256.032C153.235 259.987 153.256 266.405 146.451 270.36L102.27 296.04C95.4573 300.002 84.3873 300.002 77.5257 296.04L33.0558 270.36C26.2013 266.412 26.1661 259.994 32.9854 256.039L77.1387 230.359C83.9439 226.404 95.021 226.397 101.875 230.359L146.374 256.032Z" fill="white"></path>
  <path d="M109.004 268.425H116.443C117.545 268.425 118.628 268.142 119.589 267.602L143.235 254.23L138.309 251.415L109.004 268.425Z" fill="#E8ECEF"></path>
  <path d="M89.5317 230.38C93.6205 230.38 97.5826 231.316 100.405 232.942L144.875 258.622C147.204 259.966 148.541 261.641 148.541 263.224C148.541 264.808 147.239 266.447 144.952 267.778L100.771 293.45C97.9556 295.083 94.0075 296.019 89.9117 296.019C85.8159 296.019 81.8467 295.083 79.0176 293.45L34.5477 267.77C32.2253 266.426 30.8882 264.751 30.8882 263.175C30.8882 261.599 32.1972 259.952 34.4843 258.622L78.6658 232.949C81.4808 231.316 85.4288 230.38 89.5317 230.38Z" stroke="#D9DEE2" stroke-miterlimit="10"></path>
  <path d="M102.27 296.04L102.101 307.061C95.2814 311.016 84.2114 311.016 77.3499 307.061L77.5258 296.04C84.3874 300.002 95.4362 300.002 102.27 296.04Z" fill="#F5F5F5"></path>
  <path d="M91.1716 243.906C80.4816 250.078 71.7622 264.66 71.0725 277.151L111.39 253.878C110.63 242.224 101.862 237.734 91.1716 243.906Z" fill="#2DC0BF"></path>
  <path d="M85.3303 240.514C90.9603 237.27 96.0344 236.996 99.708 239.107L105.542 242.499C101.868 240.388 96.7874 240.662 91.1715 243.906C80.4815 250.078 71.762 264.66 71.0724 277.152L65.2383 273.759C65.928 261.268 74.6404 246.686 85.3303 240.514Z" fill="#1F96A1"></path>
  <path d="M85.267 216.629C87.716 215.221 89.9328 215.08 91.5374 216.016L97.3785 219.409C95.774 218.473 93.5501 218.606 91.1011 220.021C86.2382 222.836 82.3042 229.641 82.3183 235.243C82.3183 238.016 83.3106 239.972 84.887 240.873L79.0529 237.481C77.4694 236.559 76.4912 234.603 76.4771 231.851C76.4349 226.249 80.397 219.437 85.267 216.629Z" fill="#E5AF9C"></path>
  <path d="M91.1012 220.021C86.2383 222.836 82.3043 229.641 82.3184 235.243C82.3325 240.845 86.2875 243.09 91.1575 240.275C96.0274 237.46 99.9614 230.647 99.9473 225.053C99.9333 219.458 95.9711 217.213 91.1012 220.021Z" fill="#FFC8A8"></path>
  <path d="M106.183 266.785L106.07 225.862L104.064 224.701L104.184 265.624C104.147 265.969 104.204 266.317 104.347 266.633C104.491 266.948 104.716 267.22 105 267.419L107.006 268.587C106.722 268.386 106.496 268.113 106.351 267.797C106.207 267.481 106.148 267.131 106.183 266.785Z" fill="#D9DEE2"></path>
  <path d="M157.042 191.716C156.723 191.565 156.369 191.503 156.017 191.536C155.665 191.57 155.329 191.698 155.044 191.906L106.865 219.866L108.871 221.027L157.049 193.096C157.335 192.888 157.671 192.76 158.022 192.726C158.373 192.691 158.727 192.751 159.048 192.898L157.042 191.716Z" fill="#D9DEE2"></path>
  <path d="M157.05 193.074C158.598 192.181 159.865 192.898 159.865 194.679L159.984 235.609C159.93 236.582 159.647 237.528 159.158 238.371C158.668 239.213 157.987 239.928 157.169 240.458L109.005 268.425C107.456 269.319 106.19 268.601 106.19 266.82L106.077 225.897C106.13 224.923 106.413 223.976 106.902 223.132C107.391 222.288 108.073 221.571 108.892 221.041L157.05 193.074Z" fill="white"></path>
  <path d="M157.05 193.074C158.598 192.181 159.865 192.898 159.865 194.679L159.984 235.609C159.93 236.582 159.647 237.528 159.158 238.371C158.668 239.213 157.987 239.928 157.169 240.458L109.005 268.425C107.456 269.319 106.19 268.601 106.19 266.82L106.077 225.897C106.13 224.923 106.413 223.976 106.902 223.132C107.391 222.288 108.073 221.571 108.892 221.041L157.05 193.074Z" fill="white"></path>
  <path d="M106.07 225.862L104.064 224.701C104.117 223.727 104.399 222.779 104.889 221.935C105.378 221.091 106.06 220.375 106.879 219.845L108.885 221.006C108.066 221.536 107.384 222.253 106.895 223.096C106.406 223.94 106.123 224.888 106.07 225.862Z" fill="white"></path>
  <path d="M119.701 228.564L119.73 237.727L117.879 238.797L117.858 232.027L116.042 233.688L116.035 232.076L119.533 228.663L119.701 228.564Z" fill="#2DC0BF"></path>
  <path d="M127.443 226.13C127.599 226.647 127.67 227.187 127.654 227.727V229.402C127.658 230.02 127.589 230.637 127.45 231.239C127.33 231.772 127.14 232.288 126.887 232.773C126.655 233.218 126.361 233.628 126.014 233.99C125.684 234.334 125.307 234.63 124.895 234.87C124.549 235.084 124.164 235.227 123.762 235.292C123.451 235.341 123.134 235.268 122.875 235.088C122.601 234.863 122.402 234.558 122.305 234.216C122.149 233.696 122.078 233.154 122.094 232.611V230.936C122.089 230.321 122.155 229.707 122.291 229.106C122.412 228.57 122.604 228.052 122.861 227.565C123.091 227.119 123.385 226.708 123.734 226.348C124.065 226 124.444 225.701 124.86 225.461C125.205 225.251 125.587 225.11 125.986 225.046C126.295 224.995 126.611 225.069 126.866 225.25C127.144 225.476 127.346 225.784 127.443 226.13ZM125.817 230.718V228.522C125.824 228.225 125.8 227.928 125.747 227.636C125.72 227.458 125.658 227.288 125.564 227.136C125.529 227.087 125.484 227.047 125.432 227.019C125.379 226.991 125.321 226.975 125.261 226.974C125.123 226.982 124.99 227.026 124.874 227.101C124.726 227.186 124.593 227.296 124.48 227.424C124.356 227.576 124.258 227.747 124.191 227.931C124.105 228.158 124.046 228.394 124.015 228.635C123.97 228.954 123.949 229.276 123.952 229.599V231.83C123.947 232.134 123.968 232.438 124.015 232.738C124.039 232.917 124.104 233.088 124.205 233.237C124.238 233.287 124.281 233.327 124.333 233.355C124.385 233.383 124.442 233.399 124.501 233.399C124.642 233.389 124.777 233.343 124.895 233.266C125.041 233.183 125.172 233.076 125.282 232.949C125.405 232.799 125.502 232.63 125.571 232.449C125.66 232.223 125.721 231.987 125.754 231.745C125.799 231.421 125.821 231.094 125.817 230.767" fill="#2DC0BF"></path>
  <path d="M136.732 220.767C136.889 221.282 136.96 221.819 136.943 222.358V224.039C136.949 224.657 136.883 225.274 136.746 225.876C136.623 226.41 136.432 226.926 136.176 227.41C135.942 227.854 135.648 228.264 135.303 228.628C134.972 228.973 134.593 229.27 134.178 229.508C133.834 229.722 133.451 229.866 133.051 229.93C132.898 229.955 132.741 229.95 132.59 229.914C132.439 229.877 132.297 229.811 132.172 229.719C131.889 229.501 131.684 229.197 131.588 228.853C131.437 228.332 131.369 227.791 131.384 227.249V225.567C131.378 224.951 131.445 224.337 131.581 223.737C131.704 223.204 131.893 222.689 132.144 222.203C132.379 221.758 132.675 221.348 133.023 220.985C133.356 220.639 133.735 220.341 134.149 220.098C134.495 219.89 134.877 219.749 135.275 219.683C135.586 219.635 135.904 219.708 136.162 219.887C136.44 220.113 136.64 220.421 136.732 220.767ZM135.106 225.356V223.16C135.11 222.863 135.086 222.566 135.036 222.273C135.011 222.094 134.946 221.924 134.846 221.773C134.815 221.725 134.772 221.685 134.722 221.656C134.672 221.628 134.615 221.613 134.558 221.612C134.417 221.619 134.281 221.662 134.163 221.738C134.015 221.824 133.882 221.933 133.769 222.062C133.647 222.212 133.549 222.381 133.481 222.562C133.398 222.79 133.339 223.025 133.305 223.265C133.26 223.582 133.239 223.902 133.242 224.222V226.425C133.234 226.727 133.258 227.029 133.312 227.326C133.332 227.506 133.392 227.679 133.488 227.833C133.522 227.882 133.567 227.922 133.62 227.95C133.672 227.978 133.731 227.993 133.79 227.995C133.931 227.984 134.066 227.938 134.185 227.861C134.329 227.776 134.46 227.669 134.572 227.544C134.694 227.394 134.792 227.226 134.86 227.045C134.945 226.817 135.007 226.581 135.043 226.341C135.089 226.017 135.11 225.69 135.106 225.363" fill="#2DC0BF"></path>
  <path d="M143.228 217.051C143.381 217.57 143.452 218.108 143.439 218.649V220.324C143.449 220.942 143.383 221.558 143.242 222.16C143.122 222.694 142.933 223.21 142.679 223.695C142.445 224.138 142.151 224.548 141.807 224.912C141.476 225.256 141.1 225.552 140.688 225.792C140.341 226.006 139.956 226.149 139.555 226.214C139.244 226.262 138.926 226.189 138.668 226.01C138.393 225.784 138.194 225.48 138.098 225.137C137.941 224.617 137.87 224.075 137.887 223.533V221.858C137.881 221.242 137.947 220.628 138.084 220.028C138.205 219.491 138.397 218.973 138.654 218.487C138.886 218.042 139.18 217.632 139.526 217.269C139.858 216.922 140.237 216.623 140.652 216.383C140.997 216.173 141.38 216.032 141.778 215.967C142.087 215.917 142.403 215.99 142.658 216.171C142.934 216.399 143.133 216.706 143.228 217.051ZM141.602 221.64V219.444C141.606 219.147 141.582 218.85 141.532 218.557C141.5 218.382 141.438 218.213 141.349 218.058C141.315 218.009 141.27 217.969 141.217 217.94C141.165 217.912 141.106 217.897 141.046 217.896C140.909 217.904 140.775 217.948 140.659 218.022C140.511 218.108 140.378 218.217 140.265 218.346C140.141 218.498 140.044 218.669 139.977 218.853C139.891 219.08 139.829 219.316 139.794 219.557C139.755 219.876 139.736 220.198 139.738 220.521V222.681C139.732 222.985 139.753 223.289 139.801 223.589C139.824 223.768 139.889 223.939 139.991 224.089C140.023 224.138 140.067 224.178 140.118 224.206C140.17 224.235 140.228 224.25 140.286 224.251C140.427 224.24 140.562 224.194 140.681 224.117C140.827 224.034 140.958 223.927 141.068 223.8C141.19 223.65 141.288 223.481 141.356 223.3C141.445 223.074 141.506 222.838 141.539 222.597C141.585 222.273 141.606 221.946 141.602 221.618" fill="#2DC0BF"></path>
  <path d="M149.723 213.265C149.879 213.783 149.951 214.322 149.935 214.863V216.538C149.941 217.155 149.874 217.772 149.738 218.374C149.615 218.908 149.423 219.424 149.167 219.909C148.936 220.354 148.642 220.764 148.295 221.126C147.964 221.472 147.585 221.768 147.169 222.006C146.826 222.221 146.443 222.365 146.043 222.428C145.732 222.477 145.414 222.404 145.156 222.224C144.881 221.998 144.682 221.694 144.586 221.351C144.43 220.831 144.358 220.289 144.375 219.747V218.072C144.369 217.456 144.436 216.842 144.572 216.242C144.693 215.705 144.885 215.187 145.142 214.701C145.374 214.256 145.668 213.846 146.015 213.483C146.346 213.136 146.725 212.837 147.141 212.597C147.485 212.386 147.868 212.245 148.267 212.181C148.575 212.131 148.891 212.204 149.146 212.385C149.429 212.608 149.632 212.917 149.723 213.265ZM148.091 217.861V215.644C148.1 215.347 148.078 215.05 148.027 214.757C148.004 214.58 147.939 214.411 147.837 214.264C147.807 214.213 147.764 214.171 147.712 214.141C147.66 214.111 147.601 214.096 147.542 214.096C147.404 214.103 147.27 214.147 147.155 214.222C147.005 214.306 146.872 214.416 146.761 214.546C146.637 214.697 146.539 214.869 146.472 215.053C146.385 215.279 146.326 215.516 146.296 215.756C146.251 216.076 146.23 216.398 146.233 216.721V218.916C146.231 219.22 146.252 219.524 146.296 219.824C146.32 220.003 146.385 220.174 146.486 220.324C146.518 220.373 146.562 220.413 146.614 220.442C146.665 220.47 146.723 220.485 146.782 220.486C146.921 220.475 147.056 220.432 147.176 220.359C147.322 220.273 147.453 220.164 147.563 220.035C147.685 219.885 147.783 219.717 147.851 219.536C147.937 219.308 147.999 219.072 148.034 218.832C148.081 218.51 148.1 218.185 148.091 217.861Z" fill="#2DC0BF"></path>
  <path d="M118.66 243.745C118.739 243.7 118.821 243.662 118.906 243.632C118.963 243.603 119.025 243.587 119.089 243.583V244.287C118.934 244.337 118.785 244.405 118.646 244.491C118.424 244.617 118.22 244.773 118.041 244.955C117.864 245.136 117.707 245.334 117.569 245.546C117.432 245.769 117.317 246.005 117.224 246.25C117.131 246.492 117.058 246.742 117.006 246.996V251.676L116.352 252.049V245.244L116.999 244.871V245.947C117.146 245.496 117.365 245.07 117.646 244.688C117.915 244.306 118.26 243.985 118.66 243.745Z" fill="black"></path>
  <path d="M124.515 243.941L120.293 246.383V246.524C120.29 246.854 120.343 247.182 120.448 247.495C120.527 247.737 120.673 247.952 120.87 248.115C121.053 248.255 121.279 248.329 121.51 248.326C121.805 248.303 122.09 248.209 122.341 248.051C122.687 247.852 122.998 247.598 123.263 247.298C123.547 246.956 123.784 246.578 123.966 246.172L124.374 246.292C124.276 246.51 124.163 246.728 124.037 246.953C123.902 247.18 123.751 247.396 123.586 247.601C123.408 247.813 123.213 248.011 123.002 248.192C122.786 248.387 122.55 248.559 122.298 248.706C121.975 248.908 121.609 249.034 121.229 249.072C120.931 249.104 120.632 249.029 120.384 248.861C120.132 248.688 119.938 248.442 119.828 248.157C119.689 247.764 119.622 247.349 119.631 246.932V246.609C119.629 246.088 119.698 245.569 119.835 245.067C119.963 244.579 120.148 244.106 120.384 243.66C120.61 243.245 120.879 242.856 121.186 242.499C121.475 242.179 121.81 241.904 122.179 241.682C122.483 241.492 122.828 241.374 123.185 241.338C123.45 241.319 123.712 241.396 123.924 241.556C124.134 241.746 124.289 241.989 124.374 242.259C124.486 242.636 124.538 243.028 124.529 243.421L124.515 243.941ZM120.518 244.645C120.412 244.991 120.341 245.347 120.307 245.708L123.826 243.653V243.568C123.828 243.312 123.788 243.058 123.706 242.815C123.645 242.617 123.533 242.437 123.382 242.295C123.238 242.168 123.053 242.098 122.861 242.098C122.611 242.117 122.37 242.196 122.158 242.33C121.896 242.484 121.659 242.676 121.454 242.9C121.234 243.138 121.045 243.403 120.891 243.688C120.727 243.993 120.595 244.313 120.497 244.645" fill="black"></path>
  <path d="M127.97 238.361C128.243 238.194 128.543 238.08 128.857 238.023C129.094 237.978 129.338 238.002 129.561 238.093C129.773 238.196 129.944 238.367 130.047 238.579C130.181 238.855 130.251 239.158 130.251 239.466L129.624 239.831C129.619 239.604 129.564 239.381 129.462 239.177C129.387 239.024 129.263 238.9 129.111 238.825C128.947 238.753 128.766 238.731 128.59 238.762C128.369 238.807 128.158 238.888 127.963 239.001C127.638 239.184 127.348 239.422 127.105 239.705C126.869 239.991 126.675 240.308 126.528 240.648C126.379 240.991 126.27 241.35 126.204 241.718C126.14 242.08 126.108 242.447 126.106 242.815V243.09C126.102 243.421 126.137 243.752 126.211 244.075C126.26 244.333 126.371 244.574 126.535 244.779C126.608 244.862 126.698 244.93 126.798 244.977C126.899 245.024 127.008 245.05 127.119 245.053C127.428 245.044 127.729 244.946 127.985 244.772C128.2 244.648 128.401 244.499 128.583 244.328C128.778 244.148 128.951 243.945 129.096 243.723C129.247 243.503 129.372 243.267 129.469 243.019C129.562 242.769 129.617 242.505 129.631 242.238L130.258 241.879C130.24 242.225 130.171 242.567 130.054 242.893C129.79 243.595 129.377 244.231 128.843 244.758C128.587 245.015 128.299 245.237 127.985 245.419C127.658 245.634 127.283 245.762 126.894 245.792C126.604 245.807 126.32 245.711 126.099 245.525C125.866 245.307 125.698 245.03 125.613 244.723C125.498 244.317 125.444 243.898 125.451 243.477V243.217C125.448 242.743 125.5 242.271 125.606 241.809C125.707 241.341 125.865 240.887 126.077 240.458C126.291 240.032 126.559 239.634 126.873 239.276C127.185 238.912 127.556 238.602 127.97 238.361Z" fill="black"></path>
  <path d="M136.31 235.602C136.445 236.01 136.51 236.439 136.5 236.869V237.08C136.502 237.578 136.44 238.075 136.317 238.558C136.2 239.047 136.023 239.52 135.789 239.965C135.567 240.397 135.288 240.798 134.959 241.155C134.645 241.504 134.279 241.803 133.875 242.041C133.542 242.248 133.167 242.375 132.777 242.414C132.479 242.439 132.182 242.356 131.94 242.182C131.69 241.981 131.504 241.712 131.405 241.408C131.27 241.002 131.203 240.576 131.208 240.148V239.937C131.209 239.439 131.272 238.942 131.398 238.459C131.517 237.971 131.694 237.498 131.926 237.052C132.152 236.621 132.431 236.219 132.756 235.855C133.068 235.507 133.434 235.21 133.84 234.976C134.171 234.766 134.547 234.636 134.938 234.596C135.236 234.565 135.535 234.648 135.775 234.828C136.027 235.027 136.213 235.296 136.31 235.602ZM135.845 237.453V237.249C135.852 236.918 135.807 236.588 135.712 236.271C135.648 236.007 135.517 235.765 135.332 235.567C135.158 235.41 134.933 235.322 134.698 235.321C134.393 235.327 134.095 235.42 133.84 235.588C133.518 235.769 133.231 236.007 132.995 236.292C132.751 236.587 132.543 236.911 132.376 237.256C132.208 237.613 132.08 237.989 131.996 238.375C131.91 238.744 131.867 239.122 131.869 239.501V239.712C131.863 240.048 131.908 240.382 132.003 240.704C132.073 240.954 132.206 241.182 132.39 241.366C132.56 241.525 132.783 241.616 133.016 241.619C133.32 241.608 133.615 241.513 133.868 241.345C134.191 241.162 134.479 240.924 134.719 240.641C134.965 240.344 135.173 240.018 135.339 239.67C135.508 239.318 135.636 238.947 135.719 238.565C135.809 238.189 135.852 237.804 135.845 237.418" fill="black"></path>
  <path d="M140.167 231.323C140.244 231.274 140.326 231.234 140.413 231.204C140.473 231.176 140.537 231.159 140.603 231.154V231.858C140.45 231.917 140.302 231.987 140.16 232.069C139.94 232.193 139.739 232.347 139.562 232.527C139.381 232.704 139.223 232.903 139.09 233.118C138.95 233.339 138.835 233.575 138.745 233.822C138.652 234.064 138.579 234.313 138.527 234.568V239.248L137.873 239.621V232.815L138.513 232.442V233.519C138.667 233.069 138.887 232.644 139.167 232.259C139.429 231.879 139.77 231.56 140.167 231.323Z" fill="black"></path>
  <path d="M145.36 225.588L146.014 225.208V234.877L145.409 235.229V234.342C145.215 234.771 144.964 235.171 144.663 235.532C144.352 235.895 143.981 236.202 143.565 236.439C143.276 236.636 142.937 236.746 142.587 236.756C142.324 236.751 142.072 236.645 141.883 236.46C141.658 236.23 141.5 235.943 141.426 235.63C141.311 235.203 141.256 234.763 141.264 234.321V234.187C141.259 233.677 141.308 233.167 141.412 232.667C141.515 232.203 141.666 231.75 141.862 231.316C142.046 230.911 142.282 230.532 142.566 230.19C142.839 229.878 143.159 229.612 143.516 229.402C143.836 229.185 144.213 229.068 144.6 229.064C144.744 229.071 144.886 229.107 145.016 229.171C145.145 229.235 145.26 229.326 145.353 229.437L145.36 225.588ZM145.36 233.498V230.303C145.299 230.17 145.218 230.046 145.121 229.937C145.024 229.835 144.903 229.76 144.769 229.719C144.61 229.676 144.442 229.676 144.283 229.719C144.058 229.763 143.843 229.849 143.65 229.972C143.346 230.154 143.081 230.393 142.869 230.676C142.646 230.951 142.464 231.257 142.327 231.583C142.179 231.929 142.073 232.29 142.01 232.66C141.939 233.045 141.906 233.437 141.912 233.828V233.941C141.907 234.293 141.943 234.645 142.017 234.99C142.07 235.244 142.178 235.485 142.334 235.693C142.471 235.853 142.666 235.952 142.876 235.968C143.154 235.974 143.427 235.892 143.657 235.736C143.871 235.612 144.072 235.466 144.255 235.299C144.433 235.137 144.596 234.958 144.741 234.764C144.88 234.574 145.002 234.371 145.107 234.159C145.207 233.951 145.294 233.737 145.367 233.519" fill="black"></path>
  <path d="M149.73 225.799C150.016 225.625 150.327 225.497 150.652 225.419C150.883 225.356 151.126 225.356 151.356 225.419C151.54 225.498 151.69 225.64 151.778 225.82C151.888 226.038 151.941 226.28 151.933 226.524L151.279 226.904C151.279 226.745 151.243 226.589 151.173 226.446C151.108 226.324 151.004 226.228 150.877 226.172C150.718 226.131 150.551 226.131 150.392 226.172C150.161 226.221 149.939 226.309 149.737 226.432C149.501 226.568 149.281 226.731 149.083 226.918C148.919 227.079 148.77 227.256 148.639 227.446C148.535 227.611 148.45 227.788 148.386 227.973C148.339 228.129 148.313 228.29 148.309 228.452C148.306 228.579 148.327 228.706 148.372 228.825C148.393 228.876 148.425 228.922 148.467 228.959C148.508 228.995 148.558 229.022 148.611 229.036C148.769 229.074 148.933 229.074 149.09 229.036C149.364 228.987 149.634 228.918 149.899 228.832C150.203 228.739 150.514 228.668 150.828 228.621C151.042 228.581 151.263 228.598 151.469 228.67C151.632 228.73 151.767 228.848 151.849 229.001C151.943 229.206 151.986 229.43 151.975 229.655C151.974 229.948 151.922 230.239 151.82 230.514C151.714 230.816 151.568 231.103 151.384 231.366C151.182 231.655 150.946 231.92 150.68 232.154C150.404 232.405 150.102 232.626 149.78 232.815C149.471 233.004 149.133 233.139 148.78 233.216C148.55 233.281 148.307 233.281 148.076 233.216C147.979 233.184 147.889 233.132 147.812 233.064C147.735 232.997 147.672 232.914 147.626 232.822C147.514 232.605 147.461 232.363 147.471 232.119L148.133 231.739C148.126 231.944 148.19 232.145 148.316 232.309C148.418 232.419 148.559 232.487 148.71 232.499C148.886 232.518 149.064 232.496 149.231 232.435C149.428 232.366 149.619 232.279 149.801 232.175C150.035 232.038 150.254 231.878 150.455 231.696C150.632 231.529 150.793 231.346 150.934 231.147C151.056 230.976 151.156 230.789 151.229 230.591C151.288 230.424 151.319 230.248 151.321 230.071C151.326 229.941 151.305 229.812 151.257 229.691C151.214 229.578 151.132 229.486 151.025 229.43C150.871 229.369 150.704 229.347 150.54 229.367C150.265 229.39 149.995 229.452 149.737 229.55C149.451 229.651 149.157 229.729 148.858 229.782C148.642 229.825 148.419 229.825 148.203 229.782C148.12 229.762 148.042 229.726 147.973 229.675C147.904 229.624 147.846 229.56 147.802 229.487C147.699 229.287 147.651 229.063 147.661 228.839C147.665 228.565 147.715 228.294 147.809 228.037C147.908 227.743 148.045 227.464 148.217 227.206C148.409 226.925 148.628 226.663 148.872 226.425C149.132 226.183 149.42 225.973 149.73 225.799Z" fill="black"></path>
  <path d="M157.366 184.165C152.496 186.98 148.562 193.785 148.576 199.38C148.591 204.975 152.517 207.199 157.366 204.419C162.215 201.639 166.17 194.799 166.149 189.204C166.128 183.609 162.201 181.35 157.366 184.165Z" fill="#2DC0BF"></path>
  <path d="M157.865 191.399L157.873 194.334L160.3 192.934V193.637L157.873 195.038L157.887 198.071L157.225 198.451L157.211 195.418L154.839 196.79V196.086L157.211 194.714L157.204 191.786L157.865 191.399Z" fill="#F5F8FB"></path>
  <path d="M323.324 174.51C330.186 178.472 330.207 184.89 323.402 188.845L279.22 214.518C272.408 218.48 261.338 218.48 254.476 214.518L210.007 188.845C203.159 184.89 203.117 178.479 209.936 174.517L254.118 148.844C260.923 144.889 272 144.882 278.854 148.844L323.324 174.51Z" fill="#D7DAE0"></path>
  <path d="M313.599 174.51C320.46 178.472 320.489 184.89 313.683 188.845L269.502 214.518C262.683 218.48 251.613 218.48 244.751 214.518L200.295 188.845C193.448 184.89 193.412 178.479 200.225 174.517L244.406 148.844C251.211 144.889 262.295 144.882 269.143 148.844L313.599 174.51Z" fill="#BDC0C9"></path>
  <path d="M313.683 176.29L269.502 201.963L269.326 212.983L313.507 187.311C316.892 185.347 318.588 182.771 318.595 180.189L318.764 169.175C318.757 171.751 317.061 174.326 313.683 176.29Z" fill="#D9DEE2"></path>
  <path d="M200.295 176.29C196.854 174.298 195.129 171.687 195.136 169.083L194.968 180.104C194.968 182.708 196.678 185.319 200.126 187.311L244.596 212.983L244.765 201.963L200.295 176.29Z" fill="#D9DEE2"></path>
  <path d="M313.599 161.955C320.46 165.917 320.489 172.335 313.683 176.29L269.502 201.963C262.683 205.925 251.613 205.925 244.751 201.963L200.295 176.29C193.448 172.335 193.412 165.924 200.225 161.962L244.406 136.289C251.211 132.334 262.295 132.327 269.143 136.289L313.599 161.955Z" fill="white"></path>
  <path d="M276.236 174.32H283.668C284.771 174.319 285.854 174.033 286.814 173.489L310.46 160.118L305.533 157.303L276.236 174.32Z" fill="#E8ECEF"></path>
  <path d="M256.757 136.31C260.853 136.31 264.815 137.246 267.637 138.872L312.107 164.545C314.436 165.889 315.773 167.571 315.773 169.154C315.773 170.738 314.464 172.377 312.177 173.7L267.996 199.38C265.181 201.006 261.233 201.942 257.144 201.942C253.055 201.942 249.079 201.006 246.25 199.373L201.78 173.7C199.45 172.356 198.12 170.681 198.113 169.105C198.106 167.528 199.422 165.882 201.717 164.552L245.898 138.872C248.713 137.246 252.661 136.31 256.757 136.31Z" stroke="#D9DEE2" stroke-miterlimit="10"></path>
  <path d="M269.502 201.963L269.326 212.984C262.514 216.946 251.444 216.946 244.582 212.984L244.751 201.963C251.613 205.925 262.682 205.925 269.502 201.963Z" fill="#F5F5F5"></path>
  <path d="M258.396 149.836C247.706 156.008 239.001 170.604 238.297 183.074L278.608 159.801C277.855 148.154 269.086 143.664 258.396 149.836Z" fill="#5257D5"></path>
  <path d="M252.562 146.444C258.192 143.2 263.259 142.925 266.933 145.037L272.774 148.429C269.1 146.317 264.012 146.592 258.396 149.836C247.706 156.008 239.001 170.604 238.297 183.074L232.456 179.682C233.153 167.198 241.872 152.616 252.562 146.444Z" fill="#3C40B7"></path>
  <path d="M252.492 122.559C254.941 121.151 257.165 121.01 258.77 121.939L264.604 125.331C262.999 124.402 260.782 124.536 258.333 125.951C253.463 128.766 249.529 135.571 249.55 141.166C249.55 143.981 250.536 145.902 252.119 146.796L246.278 143.404C244.702 142.489 243.716 140.532 243.709 137.774C243.695 132.179 247.629 125.367 252.492 122.559Z" fill="#E5AF9C"></path>
  <path d="M258.333 125.951C253.463 128.766 249.53 135.571 249.551 141.166C249.572 146.761 253.52 149.013 258.39 146.205C263.26 143.397 267.194 136.584 267.18 130.99C267.165 125.395 263.203 123.136 258.333 125.951Z" fill="#FFC8A8"></path>
  <path d="M273.415 172.715L273.302 131.792L271.296 130.624L271.409 171.547C271.375 171.893 271.433 172.242 271.578 172.559C271.722 172.875 271.948 173.148 272.232 173.348L274.231 174.51C273.948 174.31 273.724 174.038 273.58 173.723C273.437 173.407 273.38 173.06 273.415 172.715Z" fill="#D9DEE2"></path>
  <path d="M324.275 97.639C323.953 97.4913 323.597 97.4316 323.245 97.4662C322.893 97.5009 322.556 97.6285 322.269 97.8361L274.097 125.768L276.103 126.936L324.275 99.0043C324.561 98.8002 324.896 98.6757 325.246 98.6436C325.596 98.6114 325.948 98.6728 326.266 98.8213L324.275 97.639Z" fill="#D9DEE2"></path>
  <path d="M324.275 99.0043C325.83 98.1035 327.09 98.8214 327.09 100.609L327.202 141.532C327.15 142.505 326.868 143.452 326.379 144.295C325.889 145.138 325.207 145.853 324.387 146.381L276.216 174.32C274.66 175.213 273.401 174.496 273.401 172.715L273.288 131.792C273.339 130.818 273.621 129.869 274.11 129.025C274.6 128.18 275.283 127.465 276.103 126.936L324.275 99.0043Z" fill="white"></path>
  <path d="M324.275 99.0043C325.83 98.1035 327.09 98.8214 327.09 100.609L327.202 141.532C327.15 142.505 326.868 143.452 326.379 144.295C325.889 145.138 325.207 145.853 324.387 146.381L276.216 174.32C274.66 175.213 273.401 174.496 273.401 172.715L273.288 131.792C273.339 130.818 273.621 129.869 274.11 129.025C274.6 128.18 275.283 127.465 276.103 126.936L324.275 99.0043Z" fill="white"></path>
  <path d="M273.302 131.792L271.296 130.624C271.348 129.649 271.63 128.701 272.119 127.857C272.609 127.013 273.291 126.297 274.111 125.768L276.117 126.936C275.297 127.465 274.614 128.18 274.124 129.025C273.635 129.869 273.353 130.818 273.302 131.792Z" fill="white"></path>
  <path d="M290.924 134.508C291.088 134.978 291.165 135.475 291.149 135.972V136.676C291.152 137.81 290.929 138.933 290.494 139.981C290.059 141.028 289.421 141.979 288.616 142.777C288.12 143.268 287.564 143.693 286.962 144.044L286.821 144.129V142.454L286.941 142.383C287.257 142.2 287.556 141.988 287.834 141.75C288.099 141.529 288.335 141.276 288.538 140.997C288.74 140.722 288.906 140.421 289.031 140.103C289.161 139.767 289.244 139.414 289.277 139.055C289.103 139.343 288.897 139.612 288.665 139.857C288.463 140.086 288.225 140.281 287.961 140.434C287.663 140.624 287.326 140.744 286.976 140.786C286.725 140.807 286.475 140.737 286.272 140.589C286.046 140.408 285.882 140.162 285.801 139.885C285.678 139.506 285.621 139.108 285.632 138.71C285.627 138.233 285.694 137.759 285.829 137.302C286.106 136.337 286.605 135.451 287.285 134.712C287.608 134.353 287.986 134.047 288.404 133.805C288.732 133.603 289.099 133.476 289.481 133.432C289.794 133.4 290.109 133.474 290.375 133.643C290.639 133.871 290.83 134.172 290.924 134.508ZM289.305 137.527V136.655C289.357 136.251 289.264 135.843 289.045 135.501C288.876 135.318 288.641 135.318 288.341 135.501C288.187 135.594 288.055 135.718 287.954 135.867C287.838 136.035 287.744 136.217 287.673 136.409C287.59 136.613 287.529 136.825 287.49 137.042C287.454 137.246 287.435 137.454 287.433 137.661C287.43 137.858 287.451 138.054 287.497 138.245C287.526 138.388 287.592 138.521 287.687 138.632C287.726 138.678 287.775 138.715 287.829 138.741C287.884 138.768 287.943 138.784 288.003 138.787C288.159 138.783 288.311 138.734 288.44 138.646C288.653 138.528 288.837 138.364 288.981 138.168C289.117 137.977 289.226 137.769 289.305 137.549" fill="#5257D5"></path>
  <path d="M300.227 129.139C300.387 129.612 300.463 130.11 300.453 130.61V131.313C300.457 132.101 300.35 132.885 300.136 133.643C299.93 134.368 299.632 135.063 299.249 135.712C298.88 136.332 298.433 136.902 297.919 137.408C297.427 137.904 296.871 138.332 296.265 138.682L296.124 138.766V137.063L296.237 137C296.558 136.82 296.86 136.607 297.138 136.366C297.401 136.143 297.637 135.89 297.842 135.613C298.041 135.336 298.207 135.036 298.334 134.719C298.465 134.383 298.548 134.03 298.581 133.671C298.406 133.96 298.201 134.229 297.968 134.473C297.767 134.702 297.529 134.897 297.265 135.05C296.967 135.241 296.63 135.361 296.279 135.402C296.017 135.432 295.753 135.361 295.54 135.205C295.318 135.021 295.154 134.777 295.069 134.501C294.946 134.122 294.889 133.724 294.9 133.326C294.9 132.849 294.968 132.375 295.104 131.918C295.235 131.428 295.427 130.955 295.674 130.511C295.917 130.075 296.21 129.669 296.547 129.301C296.872 128.943 297.249 128.637 297.666 128.393C297.996 128.191 298.365 128.064 298.749 128.02C299.061 127.982 299.375 128.057 299.636 128.231C299.927 128.461 300.135 128.78 300.227 129.139ZM298.609 132.165V131.285C298.65 130.884 298.555 130.48 298.341 130.138C298.172 129.955 297.94 129.948 297.638 130.138C297.48 130.229 297.346 130.354 297.243 130.504C297.127 130.673 297.03 130.855 296.955 131.046C296.878 131.252 296.819 131.463 296.779 131.679C296.74 131.883 296.721 132.091 296.723 132.299C296.72 132.495 296.741 132.691 296.786 132.883C296.816 133.026 296.881 133.159 296.976 133.27C297.055 133.36 297.166 133.415 297.286 133.425C297.444 133.421 297.598 133.372 297.729 133.284C297.942 133.165 298.127 133.002 298.271 132.805C298.406 132.614 298.515 132.406 298.595 132.186" fill="#5257D5"></path>
  <path d="M306.709 125.395C306.873 125.865 306.949 126.361 306.934 126.858V127.562C306.937 128.696 306.714 129.82 306.279 130.867C305.845 131.915 305.206 132.865 304.401 133.664C303.906 134.156 303.35 134.581 302.747 134.93L302.606 135.015V133.312L302.719 133.249C303.035 133.065 303.335 132.853 303.612 132.615C303.877 132.394 304.113 132.141 304.316 131.862C304.518 131.587 304.684 131.286 304.809 130.968C304.939 130.632 305.022 130.279 305.055 129.92C304.883 130.21 304.678 130.48 304.443 130.722C304.241 130.951 304.003 131.146 303.739 131.299C303.443 131.488 303.109 131.608 302.761 131.651C302.494 131.68 302.226 131.61 302.008 131.454C301.79 131.268 301.629 131.024 301.543 130.75C301.421 130.371 301.364 129.973 301.375 129.575C301.374 129.099 301.44 128.625 301.572 128.167C301.849 127.203 302.348 126.316 303.028 125.578C303.35 125.219 303.725 124.913 304.14 124.67C304.471 124.469 304.84 124.342 305.224 124.297C305.535 124.259 305.85 124.334 306.111 124.508C306.399 124.733 306.608 125.043 306.709 125.395ZM305.09 128.421V127.541C305.141 127.138 305.048 126.73 304.83 126.387C304.661 126.204 304.426 126.204 304.126 126.387C303.973 126.48 303.841 126.605 303.739 126.753C303.623 126.921 303.529 127.103 303.458 127.295C303.375 127.499 303.314 127.711 303.275 127.928C303.239 128.133 303.221 128.34 303.218 128.547C303.215 128.744 303.236 128.94 303.282 129.132C303.311 129.275 303.377 129.408 303.472 129.519C303.512 129.564 303.56 129.601 303.615 129.628C303.669 129.654 303.728 129.67 303.788 129.673C303.944 129.67 304.096 129.621 304.225 129.533C304.439 129.416 304.624 129.252 304.767 129.054C304.9 128.865 305.009 128.659 305.09 128.442" fill="#5257D5"></path>
  <path d="M313.205 121.644C313.368 122.114 313.445 122.61 313.43 123.108V123.811C313.441 124.599 313.334 125.384 313.113 126.141C312.713 127.569 311.949 128.868 310.896 129.913C310.401 130.403 309.845 130.829 309.243 131.18L309.102 131.264V129.568L309.221 129.498C309.538 129.314 309.837 129.102 310.115 128.864C310.381 128.645 310.618 128.392 310.819 128.111C311.022 127.837 311.188 127.536 311.312 127.218C311.441 126.88 311.526 126.528 311.565 126.169C311.384 126.455 311.176 126.723 310.946 126.971C310.742 127.2 310.504 127.397 310.242 127.555C309.943 127.741 309.606 127.859 309.257 127.9C308.994 127.93 308.73 127.859 308.518 127.703C308.292 127.523 308.127 127.277 308.046 126.999C307.924 126.62 307.867 126.223 307.877 125.824C307.879 125.348 307.948 124.874 308.081 124.417C308.213 123.926 308.404 123.453 308.651 123.009C308.896 122.573 309.192 122.166 309.531 121.799C309.854 121.444 310.229 121.141 310.643 120.898C310.972 120.692 311.342 120.562 311.727 120.518C312.04 120.486 312.355 120.561 312.621 120.729C312.907 120.964 313.112 121.285 313.205 121.644ZM311.586 124.663V123.79C311.634 123.388 311.544 122.981 311.333 122.636C311.157 122.453 310.924 122.446 310.629 122.636C310.474 122.727 310.342 122.852 310.242 123.002C310.128 123.175 310.031 123.359 309.953 123.551C309.875 123.753 309.818 123.963 309.784 124.177C309.743 124.384 309.722 124.593 309.721 124.804C309.719 125 309.74 125.196 309.784 125.388C309.816 125.528 309.881 125.659 309.974 125.768C310.014 125.813 310.063 125.85 310.117 125.877C310.172 125.904 310.231 125.919 310.291 125.923C310.446 125.918 310.596 125.871 310.727 125.789C310.941 125.668 311.125 125.502 311.269 125.303C311.407 125.114 311.516 124.905 311.593 124.684" fill="#5257D5"></path>
  <path d="M285.871 149.667L286.117 149.555C286.175 149.528 286.237 149.511 286.3 149.505V150.209C286.149 150.264 286.003 150.332 285.864 150.413C285.643 150.544 285.437 150.7 285.252 150.878C285.079 151.062 284.922 151.26 284.78 151.469C284.646 151.692 284.533 151.928 284.442 152.173C284.345 152.414 284.27 152.664 284.217 152.919V157.591L283.57 157.964V151.159L284.21 150.793V151.863C284.363 151.414 284.581 150.989 284.857 150.603C285.13 150.227 285.475 149.909 285.871 149.667Z" fill="black"></path>
  <path d="M291.782 149.871L287.56 152.306V152.454C287.552 152.782 287.602 153.108 287.707 153.418C287.79 153.659 287.935 153.873 288.13 154.038C288.312 154.18 288.539 154.255 288.77 154.249C289.065 154.231 289.35 154.139 289.6 153.981C289.948 153.778 290.262 153.522 290.529 153.221C290.813 152.879 291.049 152.5 291.233 152.095L291.641 152.215C291.542 152.443 291.427 152.664 291.297 152.876C291.164 153.106 291.014 153.325 290.846 153.531C290.668 153.742 290.475 153.939 290.269 154.122C290.049 154.313 289.814 154.485 289.565 154.636C289.241 154.836 288.875 154.961 288.496 155.002C288.199 155.028 287.902 154.957 287.651 154.798C287.399 154.608 287.209 154.348 287.102 154.052C286.959 153.659 286.89 153.244 286.898 152.827V152.56C286.895 152.037 286.964 151.516 287.102 151.011C287.231 150.523 287.415 150.051 287.651 149.604C287.871 149.184 288.143 148.794 288.46 148.443C288.736 148.125 289.062 147.854 289.425 147.64C289.726 147.449 290.068 147.331 290.424 147.296C290.69 147.27 290.956 147.351 291.163 147.521C291.383 147.703 291.543 147.949 291.62 148.225C291.732 148.601 291.786 148.993 291.782 149.386V149.871ZM287.778 150.575C287.678 150.922 287.61 151.278 287.574 151.638L291.092 149.583V149.491C291.086 149.233 291.043 148.977 290.966 148.731C290.908 148.533 290.799 148.353 290.649 148.21C290.503 148.083 290.315 148.013 290.121 148.013C289.87 148.036 289.628 148.12 289.418 148.26C289.155 148.406 288.917 148.594 288.714 148.816C288.494 149.054 288.305 149.319 288.151 149.604C287.985 149.908 287.85 150.229 287.75 150.561" fill="black"></path>
  <path d="M295.203 144.283C295.472 144.116 295.771 144.002 296.083 143.946C296.319 143.899 296.565 143.926 296.786 144.023C296.998 144.125 297.171 144.293 297.279 144.502C297.411 144.779 297.48 145.081 297.483 145.388L296.85 145.754C296.848 145.53 296.795 145.308 296.695 145.107C296.619 144.95 296.493 144.823 296.336 144.748C296.175 144.675 295.995 144.655 295.822 144.692C295.6 144.731 295.388 144.812 295.196 144.931C294.867 145.111 294.574 145.35 294.33 145.635C294.097 145.925 293.903 146.244 293.753 146.585C293.602 146.927 293.493 147.286 293.429 147.654C293.366 148.015 293.333 148.38 293.331 148.745V149.013C293.331 149.346 293.366 149.679 293.436 150.005C293.482 150.263 293.594 150.506 293.76 150.709C293.832 150.793 293.922 150.862 294.023 150.909C294.123 150.956 294.233 150.982 294.344 150.983C294.655 150.976 294.958 150.881 295.217 150.709C295.432 150.583 295.632 150.434 295.815 150.265C296.003 150.08 296.173 149.878 296.322 149.66C296.472 149.441 296.595 149.205 296.688 148.956C296.786 148.705 296.843 148.438 296.857 148.168L297.49 147.809C297.473 148.156 297.401 148.498 297.279 148.823C297.152 149.171 296.987 149.503 296.786 149.815C296.583 150.132 296.347 150.427 296.083 150.695C295.827 150.948 295.541 151.167 295.231 151.349C294.903 151.565 294.525 151.693 294.133 151.722C293.844 151.742 293.559 151.649 293.338 151.462C293.105 151.244 292.937 150.966 292.852 150.659C292.738 150.254 292.684 149.835 292.69 149.414V149.146C292.691 148.673 292.743 148.201 292.845 147.739C292.951 147.271 293.111 146.818 293.324 146.388C293.533 145.962 293.798 145.567 294.112 145.212C294.42 144.843 294.789 144.529 295.203 144.283Z" fill="black"></path>
  <path d="M303.542 141.532C303.672 141.941 303.733 142.369 303.725 142.798V143.01C303.724 143.505 303.662 143.999 303.542 144.48C303.421 144.969 303.244 145.441 303.014 145.888C302.787 146.319 302.508 146.72 302.184 147.084C301.869 147.433 301.501 147.73 301.093 147.964C300.764 148.175 300.391 148.305 300.002 148.344C299.705 148.366 299.409 148.284 299.165 148.112C298.909 147.912 298.72 147.64 298.623 147.331C298.486 146.925 298.422 146.499 298.433 146.071V145.867C298.435 145.366 298.496 144.868 298.616 144.382C298.738 143.893 298.918 143.421 299.151 142.974C299.372 142.54 299.652 142.138 299.981 141.778C300.293 141.431 300.656 141.135 301.058 140.898C301.393 140.69 301.77 140.56 302.163 140.518C302.461 140.495 302.759 140.58 303 140.758C303.256 140.954 303.445 141.224 303.542 141.532ZM303.078 143.383V143.157C303.08 142.824 303.035 142.493 302.944 142.172C302.874 141.92 302.74 141.69 302.557 141.504C302.386 141.345 302.163 141.255 301.93 141.25C301.624 141.26 301.327 141.355 301.072 141.525C300.75 141.705 300.463 141.944 300.227 142.228C299.978 142.526 299.767 142.855 299.601 143.207C299.437 143.561 299.309 143.931 299.221 144.312C299.139 144.684 299.096 145.063 299.094 145.445V145.656C299.092 145.989 299.137 146.321 299.228 146.641C299.296 146.894 299.43 147.124 299.615 147.31C299.787 147.466 300.009 147.554 300.241 147.556C300.547 147.549 300.845 147.457 301.1 147.288C301.421 147.105 301.707 146.867 301.945 146.585C302.195 146.294 302.404 145.969 302.564 145.621C302.902 144.918 303.078 144.148 303.078 143.369" fill="black"></path>
  <path d="M307.391 137.246C307.471 137.2 307.553 137.16 307.638 137.126C307.698 137.1 307.762 137.083 307.828 137.077V137.781C307.673 137.836 307.525 137.907 307.384 137.992C307.164 138.118 306.96 138.272 306.779 138.449C306.603 138.63 306.445 138.828 306.308 139.04C306.171 139.264 306.056 139.499 305.963 139.744C305.871 139.987 305.798 140.236 305.745 140.49V145.163L305.09 145.543V138.738L305.738 138.365V139.442C305.893 138.99 306.114 138.563 306.392 138.175C306.658 137.8 306.999 137.484 307.391 137.246Z" fill="black"></path>
  <path d="M312.592 131.511L313.24 131.13V140.8L312.627 141.152V140.265C312.433 140.695 312.179 141.095 311.874 141.455C311.565 141.819 311.193 142.127 310.777 142.362C310.496 142.546 310.169 142.648 309.834 142.658C309.57 142.652 309.319 142.546 309.13 142.362C308.909 142.129 308.751 141.843 308.672 141.532C308.557 141.103 308.502 140.66 308.511 140.216V140.089C308.504 139.576 308.556 139.064 308.665 138.562C308.762 138.096 308.913 137.642 309.116 137.211C309.299 136.81 309.536 136.436 309.82 136.099C310.089 135.777 310.413 135.506 310.777 135.297C311.099 135.085 311.475 134.968 311.86 134.959C312.004 134.967 312.144 135.004 312.272 135.069C312.4 135.133 312.514 135.222 312.606 135.332L312.592 131.511ZM312.592 139.421V136.226C312.531 136.094 312.451 135.973 312.353 135.867C312.256 135.763 312.135 135.686 312.001 135.642C311.842 135.602 311.675 135.602 311.516 135.642C311.291 135.688 311.077 135.774 310.882 135.895C310.581 136.079 310.316 136.318 310.101 136.599C309.881 136.876 309.699 137.181 309.559 137.506C309.416 137.853 309.31 138.214 309.242 138.583C309.178 138.969 309.145 139.36 309.144 139.751V139.885C309.143 140.24 309.178 140.593 309.25 140.941C309.303 141.197 309.413 141.438 309.573 141.645C309.64 141.725 309.723 141.792 309.816 141.84C309.909 141.888 310.011 141.917 310.115 141.926C310.39 141.926 310.659 141.845 310.889 141.694C311.105 141.566 311.307 141.417 311.494 141.25C311.67 141.088 311.831 140.908 311.973 140.716C312.116 140.528 312.239 140.325 312.339 140.11C312.444 139.904 312.534 139.69 312.606 139.47" fill="black"></path>
  <path d="M316.956 131.722C317.244 131.547 317.557 131.419 317.885 131.342C318.114 131.271 318.359 131.271 318.588 131.342C318.779 131.412 318.935 131.553 319.025 131.736C319.128 131.956 319.179 132.196 319.173 132.439L318.518 132.812C318.522 132.653 318.486 132.496 318.413 132.355C318.353 132.231 318.247 132.135 318.117 132.088C317.961 132.04 317.794 132.04 317.638 132.088C317.404 132.133 317.179 132.221 316.977 132.348C316.741 132.479 316.524 132.64 316.329 132.826C316.161 132.987 316.012 133.166 315.886 133.361C315.778 133.525 315.692 133.702 315.633 133.889C315.581 134.041 315.555 134.2 315.555 134.361C315.552 134.49 315.574 134.619 315.619 134.741C315.639 134.791 315.671 134.836 315.711 134.872C315.751 134.909 315.799 134.936 315.851 134.952C316.011 134.989 316.177 134.989 316.336 134.952C316.611 134.908 316.882 134.842 317.146 134.755C317.447 134.659 317.755 134.586 318.068 134.537C318.284 134.504 318.506 134.521 318.715 134.586C318.879 134.647 319.015 134.768 319.095 134.924C319.183 135.128 319.223 135.349 319.215 135.571C319.213 135.863 319.163 136.154 319.067 136.43C318.96 136.732 318.813 137.018 318.631 137.281C318.424 137.568 318.188 137.832 317.927 138.069C317.65 138.32 317.348 138.542 317.026 138.731C316.717 138.92 316.38 139.058 316.027 139.139C315.793 139.187 315.551 139.175 315.323 139.104C315.13 139.035 314.971 138.894 314.88 138.71C314.764 138.494 314.711 138.25 314.725 138.006L315.379 137.626C315.379 137.831 315.443 138.03 315.562 138.196C315.662 138.311 315.804 138.382 315.956 138.393C316.135 138.409 316.316 138.385 316.484 138.323C316.681 138.258 316.87 138.171 317.047 138.062C317.284 137.93 317.504 137.769 317.702 137.584C317.882 137.418 318.045 137.234 318.187 137.035C318.308 136.863 318.405 136.676 318.476 136.479C318.541 136.313 318.574 136.136 318.574 135.958C318.576 135.831 318.555 135.705 318.511 135.585C318.467 135.471 318.382 135.378 318.272 135.325C318.119 135.259 317.951 135.237 317.786 135.261C317.515 135.285 317.247 135.344 316.991 135.437C316.702 135.539 316.406 135.617 316.104 135.67C315.89 135.712 315.671 135.712 315.457 135.67C315.369 135.66 315.283 135.632 315.206 135.589C315.128 135.545 315.061 135.487 315.006 135.416C314.907 135.218 314.861 134.997 314.873 134.776C314.872 134.514 314.917 134.255 315.006 134.009C315.107 133.713 315.247 133.431 315.422 133.171C315.609 132.889 315.829 132.629 316.076 132.397C316.341 132.138 316.637 131.911 316.956 131.722Z" fill="black"></path>
  <path d="M324.556 90.0876C319.693 92.9026 315.759 99.7079 315.773 105.31C315.787 110.912 319.749 113.157 324.612 110.349C329.475 107.541 333.416 100.721 333.402 95.1335C333.388 89.5457 329.426 87.2796 324.556 90.0876Z" fill="#5257D5"></path>
  <path d="M326.012 99.3209L326.02 99.9613L323.395 101.474V100.834L326.012 99.3209Z" fill="#F5F8FB"></path>
  <path d="M429.457 311.72C441.118 318.455 441.16 329.363 429.598 336.084L354.515 379.716C349.152 382.827 342.248 384.502 335.218 384.734C327.054 385.001 310.361 384.734 310.361 384.734L236.89 336.084C225.25 329.363 225.187 318.49 236.77 311.734L311.853 268.101C323.416 261.381 342.248 261.374 353.888 268.101L429.457 311.72Z" fill="#D7DAE0"></path>
  <path d="M408.344 311.72C420.005 318.455 420.048 329.363 408.485 336.084L333.402 379.716C321.818 386.444 303.007 386.444 291.346 379.716L215.777 336.084C204.137 329.363 204.074 318.49 215.658 311.734L290.741 268.101C302.303 261.381 321.136 261.374 332.776 268.101L408.344 311.72Z" fill="#BDC0C9"></path>
  <path d="M408.485 286.181L333.402 329.813L333.107 376.69L408.19 333.057C413.939 329.722 416.818 325.316 416.832 320.96L417.12 274.055C417.113 278.467 414.235 282.838 408.485 286.181Z" fill="#D9DEE2"></path>
  <path d="M215.777 286.181C209.922 282.803 206.994 278.362 207.009 273.935L206.72 320.812C206.72 325.239 209.626 329.679 215.482 333.057L291.057 376.69L291.346 329.813L215.777 286.181Z" fill="#D9DEE2"></path>
  <path d="M408.344 261.824C420.005 268.552 420.048 279.46 408.485 286.181L333.402 329.813C321.818 336.541 303.007 336.541 291.346 329.813L215.777 286.181C204.137 279.46 204.074 268.587 215.658 261.831L290.741 218.198C302.303 211.478 321.136 211.463 332.776 218.198L408.344 261.824Z" fill="white"></path>
  <path d="M248.508 272.049L298.003 243.28C305.632 238.853 318.046 238.846 325.717 243.28L375.528 272.042C377.674 273.163 379.432 274.905 380.574 277.039C382.432 273.211 380.757 268.918 375.528 265.899L325.703 237.136C318.032 232.703 305.618 232.71 297.989 237.136L248.494 265.899C243.329 268.897 241.689 273.154 243.533 276.962C244.665 274.865 246.398 273.155 248.508 272.049Z" fill="#D9DEE2"></path>
  <path d="M375.529 265.899C383.214 270.339 383.27 277.524 375.62 281.958L326.133 310.72C318.497 315.161 306.097 315.161 298.405 310.72L248.586 281.958C240.908 277.532 240.845 270.346 248.509 265.906L298.004 237.143C305.632 232.71 318.047 232.703 325.717 237.143L375.529 265.899Z" fill="url(#paint4_linear_690_1054)"></path>
  <path d="M333.402 329.813L333.107 376.69C321.523 383.425 302.712 383.425 291.058 376.69L291.346 329.813C303.042 336.541 321.819 336.541 333.402 329.813Z" fill="#F5F5F5"></path>
  <path d="M277.56 357.872L224.265 327.237C223.218 326.637 222.349 325.77 221.745 324.726C221.141 323.682 220.823 322.497 220.823 321.291V303.542C220.822 303.181 220.916 302.825 221.096 302.512C221.275 302.198 221.535 301.938 221.847 301.757C222.16 301.575 222.515 301.48 222.876 301.479C223.238 301.479 223.593 301.574 223.906 301.755L277.201 332.389C278.248 332.988 279.118 333.854 279.722 334.899C280.326 335.943 280.644 337.129 280.642 338.335V356.084C280.643 356.445 280.549 356.801 280.37 357.114C280.19 357.428 279.931 357.688 279.618 357.87C279.305 358.051 278.95 358.147 278.589 358.147C278.228 358.147 277.873 358.052 277.56 357.872Z" fill="#2DC0BF"></path>
  <path d="M279.762 356.548L226.467 325.914C225.42 325.315 224.55 324.449 223.946 323.404C223.341 322.36 223.024 321.174 223.026 319.967V302.205C223.028 301.965 223.071 301.727 223.153 301.501C222.862 301.462 222.566 301.485 222.285 301.57C222.004 301.655 221.745 301.799 221.524 301.992C221.303 302.185 221.127 302.424 221.006 302.691C220.885 302.958 220.823 303.249 220.823 303.542V321.291C220.823 322.497 221.141 323.682 221.745 324.726C222.349 325.77 223.218 326.637 224.265 327.237L277.56 357.871C277.819 358.02 278.108 358.11 278.406 358.136C278.704 358.162 279.004 358.122 279.285 358.02C279.566 357.919 279.822 357.757 280.034 357.547C280.247 357.336 280.411 357.082 280.515 356.802C280.251 356.766 279.995 356.68 279.762 356.548Z" fill="#1F96A1"></path>
  <path d="M346.175 357.872L399.456 327.237C400.501 326.636 401.369 325.769 401.974 324.725C402.578 323.681 402.896 322.497 402.897 321.291V303.542C402.899 303.181 402.805 302.825 402.625 302.512C402.445 302.198 402.186 301.938 401.873 301.757C401.561 301.575 401.206 301.48 400.844 301.479C400.483 301.479 400.128 301.574 399.815 301.755L346.534 332.389C345.488 332.99 344.619 333.856 344.014 334.9C343.41 335.944 343.092 337.129 343.093 338.335V356.084C343.091 356.445 343.185 356.801 343.365 357.114C343.545 357.428 343.804 357.688 344.117 357.87C344.429 358.051 344.784 358.147 345.146 358.147C345.507 358.147 345.862 358.052 346.175 357.872Z" fill="#5257D5"></path>
  <path d="M343.973 356.548L397.275 325.914C398.321 325.313 399.19 324.447 399.794 323.403C400.398 322.359 400.716 321.174 400.716 319.967V302.205C400.715 301.964 400.669 301.725 400.582 301.501C400.873 301.462 401.169 301.485 401.451 301.57C401.732 301.655 401.992 301.798 402.213 301.992C402.434 302.185 402.612 302.423 402.733 302.691C402.855 302.958 402.918 303.248 402.919 303.542V321.29C402.918 322.497 402.599 323.681 401.995 324.725C401.391 325.769 400.523 326.635 399.477 327.237L346.175 357.871C345.916 358.02 345.628 358.11 345.331 358.136C345.033 358.161 344.734 358.122 344.453 358.02C344.172 357.918 343.917 357.757 343.705 357.546C343.494 357.336 343.33 357.082 343.227 356.802C343.49 356.768 343.743 356.681 343.973 356.548Z" fill="#3C40B7"></path>
  <path d="M349.63 338.371C349.863 338.19 350.136 338.066 350.426 338.01C350.715 337.954 351.014 337.966 351.298 338.047C351.706 338.237 351.91 338.681 351.903 339.391V339.427L351.101 339.891C351.101 339.391 350.967 339.075 350.714 338.934C350.461 338.793 350.102 338.849 349.644 339.117C349.144 339.42 348.753 339.873 348.525 340.412C348.258 340.987 348.119 341.614 348.117 342.249V343.522C348.089 343.773 348.112 344.026 348.183 344.268C348.254 344.51 348.373 344.735 348.533 344.93C348.814 345.204 349.18 345.197 349.651 344.93C350.096 344.683 350.466 344.321 350.721 343.881C350.973 343.455 351.105 342.969 351.101 342.474L351.903 342.009C351.9 342.724 351.689 343.423 351.298 344.022C350.898 344.699 350.328 345.259 349.644 345.648C349.408 345.84 349.119 345.956 348.815 345.982C348.511 346.007 348.206 345.939 347.941 345.788C347.697 345.566 347.509 345.288 347.394 344.979C347.279 344.669 347.24 344.336 347.28 344.008V342.741C347.284 341.853 347.509 340.98 347.934 340.201C348.314 339.442 348.903 338.807 349.63 338.371Z" fill="#F5F8FB"></path>
  <path d="M356.225 337.139C356.431 337.348 356.588 337.601 356.684 337.879C356.781 338.156 356.813 338.452 356.781 338.744V338.856C356.781 339.636 356.593 340.404 356.232 341.094C355.905 341.768 355.386 342.329 354.74 342.706C354.113 343.072 353.607 343.114 353.241 342.826C353.032 342.618 352.873 342.366 352.777 342.088C352.68 341.81 352.649 341.513 352.685 341.221V341.116C352.679 340.336 352.865 339.568 353.227 338.878C353.553 338.204 354.069 337.642 354.712 337.259C355.352 336.893 355.824 336.851 356.225 337.139ZM355.943 339.335V339.229C355.979 338.807 355.87 338.385 355.634 338.033C355.422 337.787 355.12 337.78 354.719 338.033C354.306 338.277 353.988 338.654 353.818 339.103C353.614 339.593 353.511 340.12 353.515 340.651V340.764C353.48 341.188 353.589 341.612 353.825 341.967C354.029 342.206 354.332 342.213 354.74 341.967C355.15 341.72 355.467 341.344 355.641 340.897C355.847 340.405 355.95 339.876 355.943 339.342" fill="#F5F8FB"></path>
  <path d="M362.643 332.684C363.107 332.417 363.473 332.382 363.748 332.593C363.91 332.786 364.029 333.011 364.1 333.254C364.17 333.496 364.189 333.75 364.156 334V337.146L363.326 337.624V334.472C363.326 333.951 363.241 333.627 363.086 333.508C362.931 333.388 362.699 333.402 362.383 333.585C362.085 333.747 361.841 333.992 361.679 334.289C361.501 334.612 361.393 334.969 361.362 335.337V335.372V338.715L360.525 339.194V336.041C360.525 335.541 360.44 335.232 360.278 335.091C360.116 334.95 359.891 334.978 359.575 335.147C359.331 335.284 359.118 335.468 358.948 335.689C358.784 335.901 358.656 336.139 358.568 336.393V340.285L357.731 340.77V335.506L358.477 335.077L358.54 335.738C358.683 335.406 358.875 335.098 359.11 334.824C359.335 334.559 359.604 334.335 359.905 334.162C360.135 334.002 360.414 333.927 360.694 333.951C360.808 333.973 360.915 334.026 361.002 334.104C361.088 334.182 361.152 334.282 361.186 334.394C361.325 334.019 361.517 333.666 361.756 333.346C362.004 333.067 362.305 332.842 362.643 332.684Z" fill="#F5F8FB"></path>
  <path d="M368.786 329.911C369.16 330.423 369.33 331.055 369.265 331.685V331.762C369.28 332.494 369.118 333.218 368.794 333.874C368.519 334.479 368.064 334.985 367.492 335.323C367.266 335.467 367.011 335.559 366.746 335.591C366.549 335.606 366.354 335.543 366.204 335.415V337.984L365.373 338.469V331.185L366.014 330.819L366.14 331.425C366.283 331.098 366.472 330.795 366.703 330.524C366.921 330.264 367.183 330.044 367.477 329.876C368.033 329.574 368.491 329.574 368.786 329.911ZM368.435 332.269V332.163C368.47 331.711 368.359 331.26 368.118 330.876C367.921 330.601 367.618 330.587 367.217 330.819C366.979 330.954 366.771 331.136 366.605 331.354C366.433 331.587 366.296 331.843 366.197 332.114V334.655C366.242 334.727 366.303 334.787 366.374 334.833C366.446 334.878 366.528 334.906 366.612 334.915C366.832 334.926 367.05 334.865 367.231 334.739C367.632 334.508 367.946 334.152 368.125 333.726C368.331 333.268 368.434 332.771 368.428 332.269" fill="#F5F8FB"></path>
  <path d="M373.987 326.224V331.488L373.241 331.917L373.178 331.171C373.046 331.521 372.861 331.849 372.629 332.142C372.417 332.425 372.152 332.664 371.848 332.846C371.348 333.135 370.954 333.177 370.68 332.973C370.405 332.769 370.258 332.269 370.25 331.509V328.406L371.081 327.92V331.038C371.081 331.593 371.151 331.938 371.299 332.065C371.447 332.192 371.665 332.171 372.003 331.995C372.276 331.831 372.515 331.616 372.707 331.361C372.9 331.11 373.048 330.826 373.143 330.524V326.731L373.987 326.224Z" fill="#F5F8FB"></path>
  <path d="M376.359 323.592V324.852L377.225 324.352V325.056L376.359 325.563V328.751C376.359 328.997 376.408 329.145 376.5 329.194C376.557 329.216 376.618 329.222 376.679 329.214C376.739 329.205 376.796 329.181 376.845 329.145C376.902 329.11 376.957 329.07 377.007 329.025L377.154 328.898L377.274 329.489C377.191 329.598 377.099 329.699 377 329.792C376.889 329.888 376.768 329.973 376.641 330.045C376.303 330.242 376.028 330.285 375.831 330.165C375.634 330.045 375.529 329.729 375.529 329.229V326.041L374.825 326.463V325.76L375.529 325.344V324.078L376.359 323.592Z" fill="#F5F8FB"></path>
  <path d="M381.715 326.519C381.726 326.677 381.757 326.833 381.806 326.984L380.948 327.477C380.948 327.336 380.898 327.209 380.884 327.09C380.873 326.972 380.873 326.855 380.884 326.738C380.724 327.09 380.521 327.421 380.279 327.723C380.057 328.007 379.782 328.246 379.47 328.427C378.991 328.708 378.632 328.779 378.379 328.638C378.125 328.497 378.006 328.187 378.006 327.695C378.019 327.156 378.204 326.636 378.534 326.21C378.911 325.699 379.39 325.272 379.941 324.957L380.849 324.429V323.909C380.865 323.797 380.85 323.684 380.805 323.581C380.761 323.477 380.688 323.389 380.596 323.324C380.477 323.285 380.351 323.276 380.228 323.298C380.105 323.32 379.989 323.373 379.892 323.451C379.628 323.6 379.403 323.81 379.237 324.063C379.086 324.268 378.998 324.513 378.984 324.767L378.196 325.232C378.209 324.755 378.372 324.295 378.66 323.916C378.981 323.411 379.421 322.993 379.941 322.698C380.118 322.565 380.322 322.473 380.538 322.427C380.754 322.381 380.978 322.382 381.194 322.431C381.511 322.543 381.672 322.895 381.672 323.465V325.992C381.676 326.168 381.69 326.345 381.715 326.519ZM380.856 325.949V325.091L379.92 325.633C379.597 325.82 379.322 326.08 379.118 326.393C378.937 326.644 378.832 326.942 378.815 327.251C378.815 327.486 378.878 327.634 379.005 327.695C379.139 327.758 379.322 327.695 379.575 327.568C380.177 327.192 380.632 326.621 380.863 325.949" fill="#F5F8FB"></path>
  <path d="M384.037 319.158V320.418L384.903 319.918V320.622L384.037 321.129V324.317C384.037 324.563 384.086 324.711 384.178 324.76C384.236 324.782 384.299 324.789 384.36 324.78C384.422 324.771 384.48 324.748 384.53 324.711C384.585 324.676 384.637 324.636 384.685 324.591L384.839 324.464L384.952 325.049C384.871 325.161 384.779 325.265 384.678 325.358C384.568 325.457 384.448 325.542 384.319 325.612C383.981 325.809 383.713 325.851 383.509 325.731C383.305 325.612 383.207 325.295 383.207 324.795V321.607L382.503 322.03V321.326L383.207 320.911V319.644L384.037 319.158Z" fill="#F5F8FB"></path>
  <path d="M385.867 317.04L386.697 316.562V317.547L385.867 318.025V317.04Z" fill="#F5F8FB"></path>
  <path d="M385.888 324.627L385.874 319.363L386.704 318.884L386.718 324.148L385.888 324.627Z" fill="#F5F8FB"></path>
  <path d="M391.335 316.864C391.543 317.074 391.702 317.327 391.799 317.606C391.897 317.885 391.93 318.182 391.898 318.476V318.581C391.9 319.361 391.712 320.129 391.349 320.819C391.02 321.491 390.502 322.052 389.857 322.431C389.224 322.797 388.724 322.839 388.358 322.55C388.149 322.343 387.99 322.091 387.892 321.813C387.795 321.535 387.762 321.239 387.795 320.946V320.84C387.796 320.062 387.982 319.295 388.337 318.602C388.668 317.928 389.189 317.366 389.836 316.984C390.469 316.618 390.969 316.576 391.335 316.864ZM391.061 319.067V318.954C391.096 318.531 390.984 318.108 390.744 317.758C390.54 317.512 390.237 317.505 389.836 317.758C389.422 318.004 389.104 318.384 388.935 318.835C388.728 319.327 388.623 319.856 388.626 320.39V320.503C388.59 320.926 388.702 321.349 388.942 321.699C389.149 321.948 389.451 321.948 389.85 321.699C390.262 321.455 390.581 321.081 390.758 320.636C390.963 320.144 391.066 319.615 391.061 319.081" fill="#F5F8FB"></path>
  <path d="M395.065 313.965C395.557 313.676 395.937 313.627 396.219 313.796C396.5 313.965 396.62 314.408 396.627 315.105V318.391L395.797 318.87V315.576C395.797 315.112 395.719 314.823 395.557 314.725C395.396 314.626 395.156 314.661 394.854 314.851C394.606 314.996 394.386 315.184 394.206 315.407C394.023 315.63 393.878 315.882 393.777 316.153V320.059L392.947 320.538V315.273L393.693 314.844L393.756 315.597C393.896 315.243 394.088 314.911 394.326 314.612C394.531 314.353 394.781 314.134 395.065 313.965Z" fill="#F5F8FB"></path>
  <path d="M228.881 312.733L239.74 318.975" stroke="#F5F8FB" stroke-miterlimit="10" stroke-linecap="round"></path>
  <path opacity="0.4" d="M228.881 316.632L235.729 320.566" stroke="#F5F8FB" stroke-miterlimit="10" stroke-linecap="round"></path>
  <path opacity="0.4" d="M228.881 320.58L239.74 326.822" stroke="#F5F8FB" stroke-miterlimit="10" stroke-linecap="round"></path>
  <path opacity="0.4" d="M252.626 335.985C252.626 335.985 253.604 330.123 259.797 337.055C264.456 342.276 266.687 333.733 271.986 334.838C277.285 335.943 277.166 350.06 277.166 350.06L252.626 335.985Z" fill="#F5F8FB"></path>
  <path d="M535.653 403.812C543.338 408.253 543.394 415.445 535.744 419.872L486.242 448.641C478.607 453.075 466.207 453.075 458.522 448.641L408.696 419.872C401.025 415.445 400.955 408.26 408.619 403.819L458.12 375.057C465.742 370.623 478.156 370.616 485.827 375.057L535.653 403.812Z" fill="#3C40B7"></path>
  <path d="M408.697 419.872L413.025 422.37L458.121 396.17C465.743 391.736 478.157 391.729 485.828 396.17L531.339 422.441L535.745 419.879C543.366 415.452 543.338 408.26 535.653 403.819L485.828 375.057C478.157 370.624 465.743 370.631 458.121 375.057L408.605 403.819C400.983 408.26 401.026 415.445 408.697 419.872Z" fill="#5257D5"></path>
  <path d="M415.748 379.969L396.937 376.978L407.085 374.508L410.765 369.047L415.748 379.969Z" fill="#5257D5"></path>
  <g opacity="0.5">
    <path d="M399.695 370.75L387.197 368.758L393.939 367.119L396.381 363.494L399.695 370.75Z" fill="#5257D5"></path>
  </g>
  <path d="M446.34 411.209L446.22 384.361L444.221 383.2L444.334 410.048C444.299 410.393 444.356 410.742 444.5 411.058C444.643 411.375 444.868 411.648 445.15 411.849L447.156 413.011C446.873 412.809 446.648 412.537 446.504 412.22C446.361 411.904 446.304 411.555 446.34 411.209Z" fill="#D9DEE2"></path>
  <path d="M497.2 350.215C496.878 350.067 496.523 350.007 496.17 350.042C495.818 350.077 495.481 350.204 495.194 350.412L447.022 378.344L449.028 379.512L497.2 351.573C497.485 351.365 497.821 351.238 498.172 351.203C498.524 351.168 498.878 351.228 499.198 351.376L497.2 350.215Z" fill="#D9DEE2"></path>
  <path d="M497.2 351.573C498.748 350.679 500.015 351.397 500.015 353.185L500.127 380.033C500.075 381.006 499.793 381.953 499.304 382.796C498.814 383.639 498.132 384.354 497.312 384.881L449.141 412.813C447.585 413.714 446.326 412.996 446.326 411.209L446.206 384.361C446.26 383.388 446.543 382.441 447.032 381.599C447.521 380.756 448.203 380.041 449.021 379.512L497.2 351.573Z" fill="white"></path>
  <path d="M497.2 351.573C498.748 350.679 500.015 351.397 500.015 353.185L500.127 380.033C500.075 381.006 499.793 381.953 499.304 382.796C498.814 383.639 498.132 384.354 497.312 384.881L449.141 412.813C447.585 413.714 446.326 412.996 446.326 411.209L446.206 384.361C446.26 383.388 446.543 382.441 447.032 381.599C447.521 380.756 448.203 380.041 449.021 379.512L497.2 351.573Z" fill="white"></path>
  <path d="M446.22 384.361L444.221 383.199C444.272 382.225 444.554 381.276 445.044 380.432C445.533 379.588 446.216 378.872 447.036 378.344L449.042 379.512C448.223 380.04 447.54 380.755 447.049 381.597C446.559 382.44 446.275 383.387 446.22 384.361Z" fill="white"></path>
  <path d="M462.618 385.677C462.796 386.238 462.879 386.826 462.864 387.415V387.886C462.87 388.562 462.792 389.236 462.632 389.892C462.482 390.515 462.257 391.117 461.963 391.687C461.682 392.223 461.335 392.722 460.929 393.172C460.537 393.6 460.081 393.966 459.578 394.255C459.172 394.513 458.712 394.672 458.233 394.72C457.862 394.756 457.49 394.659 457.185 394.445C456.854 394.189 456.608 393.838 456.481 393.439C456.304 392.88 456.221 392.295 456.235 391.708V391.236C456.219 389.909 456.533 388.598 457.15 387.422C457.427 386.879 457.777 386.377 458.191 385.93C458.576 385.5 459.028 385.134 459.528 384.846C459.938 384.59 460.4 384.429 460.879 384.375C461.252 384.336 461.625 384.437 461.928 384.656C462.252 384.923 462.491 385.277 462.618 385.677ZM461.478 388.689V388.21C461.488 387.777 461.443 387.344 461.344 386.922C461.285 386.638 461.154 386.374 460.964 386.155C460.887 386.073 460.793 386.008 460.689 385.965C460.584 385.923 460.471 385.903 460.359 385.909C460.069 385.924 459.787 386.013 459.542 386.169C459.239 386.356 458.97 386.594 458.747 386.873C458.503 387.158 458.299 387.475 458.142 387.816C457.969 388.204 457.842 388.61 457.762 389.027C457.671 389.49 457.626 389.962 457.628 390.434V390.877C457.624 391.308 457.671 391.738 457.769 392.158C457.833 392.444 457.966 392.709 458.156 392.932C458.237 393.013 458.334 393.076 458.44 393.119C458.547 393.161 458.661 393.181 458.775 393.179C459.06 393.161 459.336 393.072 459.578 392.918C460.21 392.543 460.704 391.973 460.985 391.293C461.329 390.459 461.495 389.562 461.471 388.661" fill="#5257D5"></path>
  <path d="M468.987 381.883V388.689L467.734 389.392L467.72 388.766C467.531 389.125 467.294 389.456 467.016 389.751C466.73 390.054 466.4 390.312 466.038 390.518C465.792 390.668 465.523 390.778 465.243 390.842C465.031 390.888 464.81 390.853 464.623 390.744C464.43 390.613 464.288 390.419 464.222 390.195C464.112 389.847 464.062 389.483 464.074 389.118V384.712L465.412 383.945V388.358C465.401 388.551 465.427 388.745 465.489 388.928C465.521 389.041 465.594 389.139 465.693 389.202C465.791 389.238 465.898 389.238 465.996 389.202C466.12 389.175 466.239 389.127 466.348 389.062C466.666 388.881 466.947 388.642 467.178 388.358C467.387 388.103 467.547 387.812 467.649 387.499V382.573L468.987 381.883Z" fill="#5257D5"></path>
  <path d="M472.006 378.477V380.138L473.054 379.533V380.666L472.013 381.264V385.064C472.01 385.184 472.026 385.303 472.062 385.416C472.07 385.45 472.085 385.482 472.107 385.509C472.129 385.535 472.157 385.557 472.189 385.571C472.252 385.595 472.322 385.595 472.386 385.571C472.471 385.541 472.554 385.504 472.632 385.458L472.9 385.283L473.097 385.128V386.31L472.724 386.62C472.564 386.745 472.394 386.858 472.217 386.957C472.027 387.073 471.82 387.158 471.605 387.211C471.443 387.252 471.272 387.237 471.119 387.169C470.968 387.074 470.853 386.93 470.795 386.76C470.707 386.495 470.666 386.216 470.676 385.937V382.045L469.698 382.608V381.475L470.669 380.912V379.251L472.006 378.477Z" fill="#5257D5"></path>
  <path d="M479.114 377.963C479.225 378.395 479.279 378.84 479.275 379.286V379.42C479.272 379.914 479.223 380.406 479.128 380.891C479.033 381.357 478.884 381.811 478.684 382.242C478.502 382.652 478.265 383.036 477.98 383.382C477.706 383.714 477.375 383.995 477.002 384.213C476.732 384.385 476.427 384.496 476.108 384.536C475.873 384.565 475.636 384.507 475.44 384.375V387.605L474.11 388.372V378.949L475.341 378.245L475.391 378.906C475.58 378.544 475.817 378.208 476.094 377.907C476.357 377.61 476.666 377.358 477.009 377.161C477.311 376.974 477.654 376.863 478.009 376.837C478.273 376.84 478.526 376.946 478.712 377.133C478.916 377.37 479.055 377.656 479.114 377.963ZM477.945 380.187V380.054C477.948 379.779 477.92 379.505 477.861 379.237C477.824 379.032 477.743 378.837 477.622 378.667C477.57 378.603 477.506 378.55 477.434 378.511C477.361 378.472 477.281 378.449 477.199 378.442C476.977 378.439 476.759 378.502 476.573 378.625C476.299 378.785 476.06 378.998 475.869 379.251C475.68 379.502 475.528 379.78 475.419 380.075V383.136C475.469 383.216 475.534 383.286 475.612 383.34C475.689 383.395 475.777 383.433 475.869 383.453C476.12 383.463 476.367 383.392 476.573 383.249C476.813 383.11 477.023 382.926 477.192 382.707C477.364 382.492 477.506 382.255 477.615 382.003C477.721 381.727 477.801 381.442 477.854 381.151C477.902 380.851 477.925 380.548 477.924 380.244" fill="#5257D5"></path>
  <path d="M485.264 372.481V379.294L484.005 379.997V379.343C483.813 379.702 483.576 380.035 483.301 380.335C483.02 380.641 482.692 380.9 482.33 381.102C482.084 381.251 481.815 381.358 481.534 381.419C481.324 381.467 481.103 381.434 480.915 381.328C480.723 381.192 480.582 380.997 480.514 380.772C480.406 380.426 480.356 380.064 480.366 379.702V375.296L481.703 374.522V378.942C481.693 379.135 481.719 379.328 481.781 379.512C481.815 379.624 481.887 379.721 481.985 379.786C482.078 379.835 482.186 379.847 482.287 379.822C482.412 379.791 482.531 379.741 482.639 379.674C482.959 379.495 483.241 379.256 483.47 378.97C483.678 378.714 483.84 378.423 483.948 378.111V373.22L485.264 372.481Z" fill="#5257D5"></path>
  <path d="M488.283 369.061V370.715L489.332 370.11V371.243L488.283 371.848V375.648C488.28 375.768 488.297 375.887 488.333 376C488.341 376.034 488.357 376.065 488.379 376.092C488.401 376.118 488.428 376.14 488.459 376.155C488.521 376.176 488.588 376.176 488.649 376.155C488.738 376.124 488.823 376.084 488.903 376.035C488.996 375.986 489.085 375.929 489.17 375.867L489.367 375.712V376.894L489.001 377.204C488.841 377.329 488.672 377.442 488.495 377.541C488.306 377.655 488.102 377.741 487.889 377.795C487.725 377.839 487.55 377.821 487.397 377.746C487.242 377.658 487.126 377.514 487.073 377.344C486.988 377.076 486.947 376.796 486.953 376.514V372.622L485.975 373.185V372.052L486.946 371.489V369.835L488.283 369.061Z" fill="#5257D5"></path>
  <path d="M472.175 399.224V451.963" stroke="white" stroke-width="4" stroke-miterlimit="10"></path>
  <path d="M298.968 281.747C299.605 281.918 300.216 282.176 300.783 282.514L301.114 282.711C301.599 282.989 302.027 283.356 302.374 283.795C302.639 284.126 302.792 284.532 302.81 284.956C302.811 285.369 302.675 285.77 302.423 286.096C302.103 286.519 301.695 286.867 301.227 287.117L298.637 288.609L290.713 283.851L293.281 282.366C293.835 282.046 294.432 281.809 295.055 281.663C295.693 281.513 296.348 281.444 297.004 281.458C297.668 281.474 298.327 281.571 298.968 281.747ZM299.151 283.858L298.806 283.654C298.149 283.238 297.409 282.969 296.638 282.866C295.985 282.795 295.326 282.935 294.759 283.267L294.112 283.64L299.094 286.631L299.763 286.244C300.312 285.927 300.537 285.54 300.467 285.16C300.396 284.78 299.939 284.323 299.172 283.858" fill="#F5F8FB"></path>
  <path d="M305.646 277.13C306.097 277.238 306.529 277.414 306.927 277.651C307.259 277.836 307.545 278.094 307.764 278.404C307.925 278.652 307.992 278.949 307.954 279.242C307.891 279.571 307.732 279.875 307.497 280.114C307.173 280.457 306.798 280.747 306.385 280.973L305.125 281.677L307.814 283.295L305.857 284.428L297.968 279.685L301.149 277.841C301.618 277.572 302.12 277.364 302.641 277.222C303.143 277.082 303.661 277.007 304.182 276.997C304.674 276.977 305.166 277.022 305.646 277.13ZM305.358 279.08C305.252 278.962 305.129 278.862 304.992 278.784C304.825 278.686 304.648 278.606 304.464 278.545C304.27 278.48 304.069 278.439 303.866 278.425C303.434 278.39 303.001 278.488 302.627 278.707L301.36 279.411L303.648 280.818L304.907 280.114C305.076 280.029 305.226 279.912 305.351 279.77C305.434 279.676 305.481 279.557 305.484 279.432C305.481 279.314 305.436 279.202 305.358 279.115" fill="#F5F8FB"></path>
  <path d="M312.585 275.695L314.007 276.546L310.713 278.454L309.292 277.595L312.585 275.695Z" fill="#F5F8FB"></path>
  <path d="M329.785 268.425C329.928 268.62 330.028 268.843 330.081 269.079C330.133 269.316 330.135 269.56 330.088 269.797L332.389 269.671L332.199 270.951L329.116 271.12C328.973 271.228 328.822 271.327 328.666 271.416C328.141 271.717 327.574 271.938 326.984 272.07C326.368 272.212 325.736 272.269 325.105 272.239C323.748 272.181 322.427 271.784 321.263 271.085L320.939 270.895C320.408 270.603 319.932 270.223 319.531 269.769C319.249 269.444 319.07 269.042 319.018 268.615C318.988 268.22 319.103 267.827 319.341 267.51C319.644 267.103 320.033 266.769 320.481 266.532C321.004 266.232 321.568 266.014 322.156 265.884C322.772 265.743 323.404 265.686 324.035 265.715C324.698 265.742 325.356 265.851 325.992 266.039C326.654 266.232 327.288 266.511 327.878 266.87L328.202 267.06C328.826 267.389 329.367 267.856 329.785 268.425ZM326.266 268.186L325.935 267.989C325.27 267.564 324.525 267.277 323.747 267.144C323.15 267.035 322.534 267.134 322.002 267.426C321.488 267.721 321.298 268.073 321.46 268.46C321.786 269.027 322.277 269.481 322.867 269.762L323.198 269.959C323.864 270.385 324.608 270.675 325.387 270.811C325.993 270.925 326.621 270.823 327.16 270.522C327.653 270.234 327.864 269.896 327.674 269.495C327.348 268.926 326.857 268.469 326.266 268.186Z" fill="#F5F8FB"></path>
  <path d="M313.261 270.705C313.704 270.451 314.177 270.253 314.668 270.114C315.127 269.981 315.599 269.898 316.076 269.868C316.548 269.843 317.021 269.881 317.483 269.98C317.921 270.07 318.34 270.234 318.722 270.466L316.808 271.571C316.655 271.48 316.492 271.409 316.322 271.36C316.15 271.311 315.973 271.287 315.794 271.289C315.607 271.289 315.42 271.312 315.238 271.36C315.042 271.412 314.855 271.493 314.682 271.599C314.526 271.679 314.383 271.783 314.26 271.909C314.174 271.992 314.115 272.1 314.091 272.218C314.079 272.264 314.076 272.313 314.083 272.36C314.091 272.407 314.108 272.452 314.133 272.493C314.191 272.586 314.27 272.664 314.366 272.718C314.495 272.793 314.639 272.838 314.788 272.852C314.975 272.873 315.164 272.873 315.351 272.852C315.588 272.825 315.822 272.785 316.055 272.732C316.315 272.669 316.59 272.598 316.885 272.507C317.448 272.345 317.969 272.218 318.469 272.12C318.933 272.031 319.404 271.981 319.876 271.972C320.29 271.966 320.703 272.009 321.108 272.099C321.487 272.19 321.85 272.34 322.184 272.542C322.476 272.711 322.719 272.954 322.888 273.246C322.957 273.36 323.001 273.487 323.019 273.618C323.038 273.75 323.029 273.884 322.994 274.013C322.895 274.315 322.724 274.588 322.494 274.808C322.172 275.114 321.812 275.379 321.424 275.596C321.141 275.759 320.847 275.902 320.545 276.026C320.224 276.155 319.895 276.264 319.559 276.349C319.214 276.432 318.864 276.493 318.511 276.532C318.155 276.567 317.797 276.567 317.441 276.532C317.088 276.505 316.738 276.439 316.4 276.335C316.056 276.236 315.727 276.092 315.421 275.906L317.343 274.794C317.562 274.925 317.799 275.025 318.046 275.09C318.259 275.151 318.48 275.175 318.701 275.16C318.924 275.151 319.145 275.109 319.355 275.033C319.586 274.954 319.808 274.85 320.017 274.724C320.166 274.645 320.302 274.543 320.418 274.421C320.489 274.337 320.542 274.238 320.573 274.132C320.579 274.041 320.557 273.95 320.509 273.872C320.44 273.788 320.357 273.716 320.263 273.661C320.141 273.59 320.011 273.534 319.876 273.492C319.718 273.448 319.554 273.432 319.39 273.443C319.154 273.453 318.918 273.484 318.687 273.534C318.412 273.584 318.081 273.668 317.687 273.781C317.293 273.893 316.751 274.027 316.28 274.132C315.816 274.23 315.346 274.294 314.872 274.322C314.435 274.347 313.995 274.321 313.563 274.245C313.154 274.177 312.76 274.034 312.402 273.823C312.103 273.664 311.857 273.419 311.698 273.119C311.58 272.873 311.557 272.592 311.635 272.331C311.746 272.014 311.929 271.727 312.17 271.493C312.495 271.181 312.862 270.915 313.261 270.705Z" fill="#F5F8FB"></path>
  <path d="M326.998 262.9L333.459 266.778L336.801 264.843L338.272 265.729L333.001 268.77L325.077 264.005L326.998 262.9Z" fill="#F5F8FB"></path>
  <defs>
    <linearGradient id="paint0_linear_690_1054" x1="493.59" y1="273.935" x2="394.284" y2="273.935" gradientUnits="userSpaceOnUse">
      <stop stop-color="#9499FA"></stop>
      <stop offset="0.03" stop-color="#989DFA" stop-opacity="0.95"></stop>
      <stop offset="0.24" stop-color="#B4B9FA" stop-opacity="0.67"></stop>
      <stop offset="0.44" stop-color="#CBCFFB" stop-opacity="0.43"></stop>
      <stop offset="0.62" stop-color="#DDE1FB" stop-opacity="0.24"></stop>
      <stop offset="0.78" stop-color="#EAEDFB" stop-opacity="0.11"></stop>
      <stop offset="0.91" stop-color="#F2F5FB" stop-opacity="0.03"></stop>
      <stop offset="1" stop-color="#F5F8FB" stop-opacity="0"></stop>
    </linearGradient>
    <linearGradient id="paint1_linear_690_1054" x1="280.389" y1="218.177" x2="448.859" y2="218.177" gradientUnits="userSpaceOnUse">
      <stop stop-color="#5257D5" stop-opacity="0.2"></stop>
      <stop offset="0.12" stop-color="#5257D5" stop-opacity="0.23"></stop>
      <stop offset="0.29" stop-color="#5257D5" stop-opacity="0.33"></stop>
      <stop offset="0.49" stop-color="#5257D5" stop-opacity="0.49"></stop>
      <stop offset="0.73" stop-color="#5257D5" stop-opacity="0.7"></stop>
      <stop offset="0.98" stop-color="#5257D5" stop-opacity="0.98"></stop>
      <stop offset="1" stop-color="#5257D5"></stop>
    </linearGradient>
    <linearGradient id="paint2_linear_690_1054" x1="36.7504" y1="343.712" x2="255.631" y2="343.712" gradientUnits="userSpaceOnUse">
      <stop stop-color="#2DC0BF" stop-opacity="0.2"></stop>
      <stop offset="0.11" stop-color="#2EC1C0" stop-opacity="0.23"></stop>
      <stop offset="0.27" stop-color="#30C5C2" stop-opacity="0.32"></stop>
      <stop offset="0.47" stop-color="#33CBC5" stop-opacity="0.46"></stop>
      <stop offset="0.69" stop-color="#37D3C9" stop-opacity="0.66"></stop>
      <stop offset="0.93" stop-color="#3DDDCE" stop-opacity="0.92"></stop>
      <stop offset="1" stop-color="#3FE0D0"></stop>
    </linearGradient>
    <linearGradient id="paint3_linear_690_1054" x1="373.713" y1="439.035" x2="247.214" y2="439.035" gradientUnits="userSpaceOnUse">
      <stop stop-color="#3FE0D0"></stop>
      <stop offset="0.19" stop-color="#6EE6DB" stop-opacity="0.74"></stop>
      <stop offset="0.4" stop-color="#9EECE6" stop-opacity="0.48"></stop>
      <stop offset="0.59" stop-color="#C3F1EF" stop-opacity="0.27"></stop>
      <stop offset="0.76" stop-color="#DEF5F6" stop-opacity="0.12"></stop>
      <stop offset="0.9" stop-color="#EFF7FA" stop-opacity="0.03"></stop>
      <stop offset="1" stop-color="#F5F8FB" stop-opacity="0"></stop>
    </linearGradient>
    <linearGradient id="paint4_linear_690_1054" x1="242.802" y1="273.935" x2="381.328" y2="273.935" gradientUnits="userSpaceOnUse">
      <stop stop-color="#2DC0BF"></stop>
      <stop offset="1" stop-color="#5257D5"></stop>
    </linearGradient>
  </defs>
</svg>
