<svg xmlns="http://www.w3.org/2000/svg" width="112" height="96" viewBox="0 0 112 96" fill="none">
  <path d="M106.875 60.2357C112.591 63.5352 112.612 68.8804 106.945 72.1449L70.1592 93.5254C64.4848 96.8249 55.2727 96.8249 49.5563 93.5254L12.5327 72.1729C6.83025 68.8804 6.80223 63.5422 12.4766 60.2637L49.2621 38.8832C54.9224 35.5906 64.1486 35.5836 69.851 38.8832L106.875 60.2357Z" fill="#D8E5E1"/>
  <path d="M98.7796 60.2357C104.489 63.5352 104.51 68.8804 98.8426 72.1449L62.0642 93.5254C56.3898 96.8249 47.1707 96.8249 41.4613 93.5254L4.43764 72.1729C-1.26477 68.8804 -1.29979 63.5422 4.3816 60.2637L41.167 38.8832C46.8344 35.5906 56.0605 35.5836 61.7629 38.8832L98.7796 60.2357Z" fill="#BDC0FA"/>
  <path d="M98.8474 61.7208L62.069 83.0943L61.9219 92.2714L98.7073 70.8909C101.509 69.2586 102.911 67.1149 102.911 64.9643L103.058 55.7942C103.079 57.9378 101.664 60.0815 98.8474 61.7208Z" fill="#DDDFFC"/>
  <path d="M4.44143 61.7209C1.56921 60.0606 0.140109 57.889 0.147114 55.7173L0 64.8944C0 67.0661 1.40108 69.2377 4.29432 70.891L41.3179 92.2715L41.4651 83.0944L4.44143 61.7209Z" fill="#DDDFFC"/>
  <path d="M98.7796 49.7836C104.489 53.0832 104.51 58.4283 98.8426 61.6928L62.0642 83.0663C56.3898 86.3659 47.1707 86.3659 41.4613 83.0663L4.43764 61.7209C-1.26477 58.4283 -1.29979 53.0902 4.3816 49.8116L41.167 28.4171C46.8344 25.1246 56.0605 25.1176 61.7629 28.4171L98.7796 49.7836Z" fill="white"/>
  <path d="M31.875 70.8559H45.5215C48.5097 70.8555 51.4443 70.0626 54.0261 68.5582L92.4859 46.1408L72.2262 34.4558L31.875 70.8559Z" fill="#DDDFFC"/>
  <path d="M51.4606 28.4313C54.6089 28.3561 57.725 29.0791 60.5186 30.533L97.5422 51.9065C99.4827 53.0274 100.597 54.4214 100.597 55.7385C100.597 57.0555 99.5107 58.4215 97.6052 59.5284L60.7848 80.9159C58.0014 82.3805 54.8923 83.1156 51.7478 83.0526C48.6038 83.1104 45.4959 82.3756 42.7108 80.9159L5.68017 59.5634C3.74667 58.4425 2.63281 57.0485 2.63281 55.7385C2.63281 54.4284 3.72566 53.0554 5.63113 51.9415L42.4166 30.568C45.2044 29.1124 48.3165 28.3892 51.4606 28.4664" stroke="#BDC0FA" stroke-miterlimit="10"/>
  <path d="M62.0704 83.0942L61.9232 92.2713C56.2489 95.5639 47.0367 95.5639 41.3203 92.2713L41.4674 83.0942C47.1768 86.3938 56.396 86.3938 62.0704 83.0942Z" fill="#F5F5F5"/>
  <path d="M71.7036 8.45859C74.1135 7.05751 76.068 8.19239 76.075 10.9595L76.1941 40.7466C76.1139 42.2541 75.6787 43.7214 74.9239 45.0289C74.1692 46.3364 73.1162 47.447 71.8507 48.2704L33.7273 70.2604C31.3244 71.6614 29.3629 70.5336 29.3559 67.7664L29.2578 37.9794C29.3422 36.4741 29.7809 35.01 30.5381 33.7062C31.2952 32.4025 32.3495 31.2959 33.6152 30.4766L71.7036 8.45859Z" fill="#7B80E5"/>
  <path d="M72.3633 6.73541C71.5717 6.28006 70.4719 6.3431 69.2599 7.04365L31.1715 29.0336C29.9057 29.8566 28.8524 30.9671 28.0975 32.2747C27.3427 33.5823 26.9077 35.0498 26.8281 36.5575L26.9122 66.3515C26.9122 67.7176 27.4026 68.6843 28.1872 69.1537L30.6251 70.5548C29.8475 70.0994 29.3571 69.1537 29.3571 67.7526L29.259 37.9796C29.3434 36.4742 29.7821 35.0101 30.5392 33.7064C31.2964 32.4026 32.3507 31.2961 33.6164 30.4768L71.7048 8.47976C72.9168 7.77921 74.0096 7.71617 74.8012 8.17852L72.3633 6.73541Z" fill="#5257D4"/>
  <path d="M74.7966 8.15749L72.3587 6.7564L55.1815 0.388481C53.8498 -0.101969 52.3915 -0.128795 51.0427 0.312345C49.6938 0.753485 48.5333 1.63679 47.7487 2.81936L29.5346 28.6553C27.7902 31.1326 26.8531 34.088 26.8516 37.1179L29.2614 37.9795L48.4282 43.9692C49.8649 44.4208 51.4096 44.3915 52.8281 43.8858C54.2465 43.3801 55.4614 42.4256 56.2883 41.167L76.0646 10.9737C76.0716 9.57959 75.5882 8.61284 74.7966 8.15749Z" fill="#5257D4"/>
  <path d="M53.4654 43.6189V15.4852C53.4674 14.9924 53.3394 14.5077 53.0942 14.0802C52.8491 13.6527 52.4955 13.2973 52.0692 13.0501C51.6429 12.8028 51.1589 12.6724 50.6661 12.6719C50.1732 12.6714 49.689 12.8009 49.2622 13.0473L32.8275 22.4065C31.7436 23.0174 30.8419 23.906 30.2152 24.9809C29.5886 26.0557 29.2594 27.2781 29.2617 28.5223V37.9796L49.2832 44.1724C50.7009 44.4295 52.1635 44.236 53.4654 43.6189Z" fill="#3FE0D1"/>
  <path d="M68.1552 16.8233L51.7205 26.1895C50.6434 26.8065 49.7484 27.6969 49.1259 28.7708C48.5035 29.8447 48.1757 31.064 48.1758 32.3053V43.8852L48.449 43.9693C49.8856 44.4209 51.4303 44.3916 52.8488 43.8859C54.2673 43.3802 55.4821 42.4257 56.3091 41.1671L71.777 17.5519C71.3644 17.0119 70.7695 16.6402 70.1032 16.5062C69.4369 16.3722 68.7446 16.4849 68.1552 16.8233Z" fill="white"/>
  <path d="M37.2188 30.4278L46.3678 25.2158" stroke="white" stroke-width="2" stroke-miterlimit="10" stroke-linecap="round"/>
  <path d="M37.2188 33.9864L41.7933 31.3804" stroke="white" stroke-width="2" stroke-miterlimit="10" stroke-linecap="round"/>
  <path d="M53.4648 32.9078L62.6209 27.6958" stroke="#7B80E5" stroke-width="2" stroke-miterlimit="10" stroke-linecap="round"/>
  <path d="M53.4648 36.4734L58.0464 33.8604" stroke="#DDDFFC" stroke-width="2" stroke-miterlimit="10" stroke-linecap="round"/>
</svg>