<svg width="21" height="22" viewBox="0 0 21 22" fill="none" xmlns="http://www.w3.org/2000/svg">
<path d="M0 10.625C0 4.8418 4.67578 0.125 10.5 0.125C16.2832 0.125 21 4.8418 21 10.625C21 16.4492 16.2832 21.125 10.5 21.125C4.67578 21.125 0 16.4492 0 10.625ZM15.2168 8.82031C15.668 8.36914 15.668 7.67188 15.2168 7.2207C14.7656 6.76953 14.0684 6.76953 13.6172 7.2207L9.1875 11.6504L7.3418 9.8457C6.89062 9.39453 6.19336 9.39453 5.74219 9.8457C5.29102 10.2969 5.29102 10.9941 5.74219 11.4453L8.36719 14.0703C8.81836 14.5215 9.51562 14.5215 9.9668 14.0703L15.2168 8.82031Z" fill="black"/>
</svg>
