<svg width="19" height="19" viewBox="0 0 19 19" fill="none" xmlns="http://www.w3.org/2000/svg">
<path d="M17.8607 13.2667L15.9993 11.7596C15.3688 11.2472 14.4681 11.2167 13.8077 11.6993L12.0363 12.9954C11.7962 13.1763 11.4662 13.1461 11.2558 12.9351L8.34361 10.2826L5.67163 7.32875C5.46148 7.11776 5.43146 6.78619 5.61159 6.54506L6.90254 4.76669C7.3829 4.10357 7.35288 3.19932 6.8425 2.56634L5.34139 0.697543C4.6809 -0.146429 3.41997 -0.206712 2.66941 0.546834L1.04821 2.17449C0.687946 2.5362 0.507812 3.04861 0.507812 3.53088C0.717968 7.35889 2.45926 11.0061 5.01115 13.5681C7.56303 16.1302 11.1657 17.8784 15.0085 18.0894C15.5189 18.1195 15.9993 17.9082 16.3595 17.5465L17.9807 15.9192C18.7913 15.1958 18.7013 13.9298 17.8607 13.2667Z" fill="white"/>
</svg>
