<svg width="21" height="21" viewBox="0 0 21 21" fill="none" xmlns="http://www.w3.org/2000/svg">
<path d="M10.1153 0.787109C15.621 0.787109 20.0842 5.26426 20.0842 10.7871C20.0842 16.31 15.621 20.7871 10.1153 20.7871C4.60969 20.7871 0.146484 16.31 0.146484 10.7871C0.146484 5.26426 4.60969 0.787109 10.1153 0.787109ZM10.1153 2.03711C5.29789 2.03711 1.39259 5.95462 1.39259 10.7871C1.39259 15.6196 5.29789 19.5371 10.1153 19.5371C14.9328 19.5371 18.8381 15.6196 18.8381 10.7871C18.8381 5.95462 14.9328 2.03711 10.1153 2.03711ZM14.4188 7.59517C14.6621 7.83924 14.6621 8.23497 14.4188 8.47905L8.93596 13.9791C8.69264 14.2231 8.29815 14.2231 8.05483 13.9791L5.81184 11.7291C5.56852 11.485 5.56852 11.0892 5.81184 10.8452C6.05516 10.6011 6.44965 10.6011 6.69297 10.8452L8.49539 12.6532L13.5377 7.59517C13.781 7.35109 14.1755 7.35109 14.4188 7.59517Z" fill="#1E4397"/>
</svg>
