<svg width="9" height="17" viewBox="0 0 9 17" fill="none" xmlns="http://www.w3.org/2000/svg">
<path d="M0.343557 8.79555H2.20058V16.0447C2.20058 16.1878 2.32289 16.3037 2.47383 16.3037H5.62248C5.77342 16.3037 5.89573 16.1878 5.89573 16.0447V8.82969H8.03053C8.16934 8.82969 8.28613 8.73093 8.30198 8.60019L8.62621 5.93143C8.63512 5.858 8.61058 5.78447 8.55877 5.72939C8.50691 5.67425 8.4327 5.6427 8.35482 5.6427H5.89584V3.96979C5.89584 3.46549 6.1822 3.20976 6.74705 3.20976C6.82755 3.20976 8.35482 3.20976 8.35482 3.20976C8.50576 3.20976 8.62807 3.09374 8.62807 2.95067V0.501C8.62807 0.357877 8.50576 0.241908 8.35482 0.241908H6.13908C6.12345 0.241182 6.08875 0.23999 6.0376 0.23999C5.65314 0.23999 4.31681 0.311552 3.26121 1.23237C2.09161 2.25278 2.25419 3.47456 2.29305 3.68639V5.64265H0.343557C0.192617 5.64265 0.0703125 5.75862 0.0703125 5.90174V8.5364C0.0703125 8.67952 0.192617 8.79555 0.343557 8.79555Z" fill="#3CACE4"/>
</svg>
