<svg width="15" height="19" viewBox="0 0 15 19" fill="none" xmlns="http://www.w3.org/2000/svg">
<path d="M7.49398 0.37085C6.55618 0.371236 5.6277 0.557568 4.76182 0.919151C3.89594 1.28073 3.10972 1.81045 2.44827 2.47788C1.78683 3.14532 1.26319 3.93734 0.907413 4.80849C0.551638 5.67963 0.370731 6.61274 0.375076 7.55426C0.375076 12.5179 5.475 17.0689 7.04398 18.2737C7.17569 18.3828 7.34117 18.4426 7.51198 18.4426C7.68279 18.4426 7.84826 18.3828 7.97997 18.2737C9.55195 17.0327 14.6099 12.5179 14.6099 7.55426C14.6142 6.61299 14.4334 5.68013 14.0778 4.80918C13.7222 3.93824 13.1989 3.14635 12.5377 2.47895C11.8766 1.81155 11.0907 1.28178 10.2252 0.920017C9.35968 0.558257 8.43151 0.371632 7.49398 0.37085V0.37085ZM7.49398 10.524C6.90064 10.524 6.32063 10.3474 5.82729 10.0164C5.33395 9.68545 4.94944 9.21505 4.72238 8.6647C4.49532 8.11435 4.43591 7.50875 4.55166 6.9245C4.66742 6.34024 4.95313 5.80357 5.37269 5.38235C5.79224 4.96113 6.32678 4.67427 6.90871 4.55805C7.49065 4.44184 8.09384 4.50148 8.64201 4.72945C9.19018 4.95741 9.65871 5.34346 9.98835 5.83876C10.318 6.33407 10.4939 6.91639 10.4939 7.51209C10.4939 8.3109 10.1779 9.07699 9.61527 9.64184C9.05266 10.2067 8.28961 10.524 7.49398 10.524V10.524Z" fill="white"/>
</svg>
