<svg width="21" height="19" viewBox="0 0 21 19" fill="none" xmlns="http://www.w3.org/2000/svg">
<path d="M19.8817 11.0244C19.5545 10.5704 19.4029 10.0159 19.4035 9.45561C19.4036 9.45236 19.4036 9.4491 19.4036 9.4458C19.4036 4.45543 15.3741 0.409912 10.4036 0.409912C9.31619 0.409912 8.27429 0.604211 7.30948 0.959297C6.78753 1.15138 6.21574 1.18829 5.68062 1.03695C5.20794 0.903274 4.70301 0.84689 4.17992 0.883034C1.98262 1.03484 0.213665 2.8428 0.0998011 5.05113C0.0454407 6.10519 0.360289 7.08298 0.925391 7.8672C1.25253 8.32116 1.40414 8.87561 1.40348 9.43594C1.40348 9.43919 1.40348 9.44244 1.40348 9.44575C1.40348 14.4361 5.43289 18.4816 10.4035 18.4816C11.4909 18.4816 12.5328 18.2873 13.4976 17.9323C14.0195 17.7402 14.5913 17.7033 15.1264 17.8546C15.5991 17.9883 16.104 18.0447 16.6271 18.0085C18.8244 17.8567 20.5933 16.0488 20.7073 13.8405C20.7616 12.7865 20.4468 11.8086 19.8817 11.0244ZM10.733 7.82584C12.5477 8.2591 15.29 8.91382 15.29 11.9465C15.29 13.4405 14.5572 14.5802 13.2265 15.1555C12.2769 15.5661 11.2022 15.6215 10.2761 15.6215C7.43024 15.6215 5.63279 13.3998 5.55765 13.3052C5.0916 12.7184 5.18752 11.8632 5.77211 11.3953C6.35655 10.9272 7.20832 11.0237 7.67447 11.6104C7.67864 11.6155 8.75356 12.8549 10.2761 12.9034C12.1096 12.9618 12.5284 12.4141 12.5826 11.9466C12.6488 11.3756 12.1429 10.9565 10.1065 10.4703C8.38044 10.0581 5.7717 9.43532 5.7717 6.64228C5.7717 5.77251 6.12404 2.9346 10.6581 2.9346C13.5211 2.9346 15.211 5.19767 15.2815 5.29402C15.7243 5.89881 15.5951 6.74953 14.9927 7.19404C14.3929 7.63665 13.5509 7.50999 13.1064 6.91254C13.0745 6.87138 12.1072 5.79089 10.6581 5.65277C9.56166 5.54821 8.47908 5.94517 8.47908 6.53158C8.47908 7.15289 8.78997 7.36191 10.733 7.82584Z" fill="white"/>
</svg>
