<svg width="512" height="512" viewBox="0 0 512 512" fill="none" xmlns="http://www.w3.org/2000/svg">
<path fill-rule="evenodd" clip-rule="evenodd" d="M327.114 149.572C306.064 135.507 281.315 128 256 128V0C306.632 0 356.127 15.0141 398.227 43.1439C440.326 71.2733 473.138 111.255 492.513 158.033C511.889 204.811 516.959 256.283 507.081 305.944C497.204 355.602 472.822 401.218 437.02 437.019C401.218 472.821 355.603 497.203 305.943 507.081C256.285 516.959 204.811 511.888 158.033 492.513C111.255 473.137 71.2733 440.325 43.1438 398.226C15.0142 356.127 0 306.631 0 256H128C128 281.317 135.507 306.063 149.572 327.113C163.637 348.162 183.627 364.568 207.017 374.257C230.405 383.945 256.141 386.479 280.972 381.54C305.802 376.602 328.608 364.41 346.511 346.511C364.41 328.609 376.601 305.801 381.54 280.971C386.48 256.143 383.945 230.405 374.258 207.016C364.568 183.627 348.163 163.636 327.114 149.572Z" fill="#007DFC"/>
<path fill-rule="evenodd" clip-rule="evenodd" d="M128 6.76471e-05C128 16.8093 124.689 33.4539 118.257 48.9836C111.824 64.5133 102.396 78.6238 90.5097 90.5097C78.624 102.396 64.5134 111.824 48.9836 118.257C33.4538 124.689 16.8092 128 5.59501e-06 128L0 256C33.6183 256 66.9077 249.379 97.9672 236.513C129.027 223.649 157.248 204.791 181.019 181.019C204.791 157.248 223.647 129.027 236.513 97.967C249.379 66.9076 256 33.6183 256 0L128 6.76471e-05Z" fill="#007DFC"/>
</svg>
