<svg width="18" height="18" viewBox="0 0 18 18" fill="none" xmlns="http://www.w3.org/2000/svg">
<path d="M5.48438 0.09375C2.5155 0.09375 0.09375 2.5155 0.09375 5.48438V12.5156C0.09375 15.4841 2.51541 17.9062 5.48438 17.9062H12.5156C15.4842 17.9062 17.9062 15.4842 17.9062 12.5156V5.48438C17.9062 2.51541 15.4841 0.09375 12.5156 0.09375H5.48438ZM5.48438 1.5H12.5156C14.724 1.5 16.5 3.27553 16.5 5.48438V12.5156C16.5 14.7239 14.7239 16.5 12.5156 16.5H5.48438C3.27553 16.5 1.5 14.724 1.5 12.5156V5.48438C1.5 3.27544 3.27544 1.5 5.48438 1.5ZM13.6875 3.375C13.1695 3.375 12.75 3.79453 12.75 4.3125C12.75 4.83047 13.1695 5.25 13.6875 5.25C14.2055 5.25 14.625 4.83047 14.625 4.3125C14.625 3.79453 14.2055 3.375 13.6875 3.375ZM9 4.3125C6.41961 4.3125 4.3125 6.41961 4.3125 9C4.3125 11.5804 6.41961 13.6875 9 13.6875C11.5804 13.6875 13.6875 11.5804 13.6875 9C13.6875 6.41961 11.5804 4.3125 9 4.3125ZM9 5.71875C10.8202 5.71875 12.2812 7.17976 12.2812 9C12.2812 10.8202 10.8202 12.2812 9 12.2812C7.17976 12.2812 5.71875 10.8202 5.71875 9C5.71875 7.17976 7.17976 5.71875 9 5.71875Z" fill="#002A73"/>
</svg>