<svg width="18" height="18" viewBox="0 0 18 18" fill="none" xmlns="http://www.w3.org/2000/svg">
<path d="M16.1498 6.2386C16.1612 6.3807 16.1612 6.5229 16.1612 6.665C16.1612 11 12.4492 15.995 5.66505 15.995C3.57491 15.995 1.63326 15.4568 0 14.5229C0.296966 14.5533 0.582469 14.5635 0.890865 14.5635C2.61551 14.5635 4.203 14.0457 5.47087 13.1625C3.84896 13.132 2.48985 12.1878 2.02157 10.8884C2.25 10.9188 2.47838 10.9391 2.71834 10.9391C3.04954 10.9391 3.38074 10.8985 3.6891 10.8274C1.99874 10.5228 0.730935 9.2031 0.730935 7.6091V7.5685C1.22203 7.8122 1.79315 7.9645 2.39839 7.9848C1.40478 7.3959 0.753795 6.3909 0.753795 5.2538C0.753795 4.6447 0.936495 4.0863 1.25631 3.599C3.07237 5.5888 5.80208 6.8883 8.86298 7.0305C8.80583 6.7868 8.77162 6.533 8.77162 6.2792C8.77162 4.4721 10.4163 3 12.4606 3C13.5228 3 14.4822 3.3959 15.1561 4.0355C15.9899 3.8934 16.7894 3.6193 17.4975 3.2437C17.2233 4.0051 16.6409 4.6447 15.8757 5.0508C16.6181 4.9797 17.3376 4.7969 18 4.5432C17.4976 5.1929 16.8694 5.7715 16.1498 6.2386Z" fill="#002A73"/>
</svg>