<svg width="836" height="186" viewBox="0 0 836 186" fill="none" xmlns="http://www.w3.org/2000/svg">
<g clip-path="url(#clip0_587_7182)">
<g opacity="0.06">
<mask id="mask0_587_7182" style="mask-type:luminance" maskUnits="userSpaceOnUse" x="0" y="-850" width="5224" height="2271">
<path d="M5223.25 -849.095H0V1420.06H5223.25V-849.095Z" fill="white"/>
</mask>
<g mask="url(#mask0_587_7182)">
<path d="M-270.305 60.1458L3248.66 2271.33" stroke="#E0E4E8" stroke-width="1.44048" stroke-miterlimit="10"/>
<path d="M68.2285 -135.949L3587.23 2075.2" stroke="#E0E4E8" stroke-width="1.44048" stroke-miterlimit="10"/>
<path d="M316.51 -381.566L3766.23 1786.04" stroke="#E0E4E8" stroke-width="1.44048" stroke-miterlimit="10"/>
<path d="M641.836 -585.988L4104.76 1589.94" stroke="#E0E4E8" stroke-width="1.44048" stroke-miterlimit="10"/>
<path d="M2255.3 24.2893L247.229 1286.04" stroke="#E0E4E8" stroke-width="1.44048" stroke-miterlimit="10"/>
<path d="M1934.33 -178.818L30.3223 1017.59" stroke="#E0E4E8" stroke-width="1.44048" stroke-miterlimit="10"/>
<path d="M1609 -383.24L-308.246 821.458" stroke="#E0E4E8" stroke-width="1.44048" stroke-miterlimit="10"/>
<path d="M1293.32 -586.506L-487.248 532.296" stroke="#E0E4E8" stroke-width="1.44048" stroke-miterlimit="10"/>
<path d="M964.08 -788.458L-825.778 336.201" stroke="#E0E4E8" stroke-width="1.44048" stroke-miterlimit="10"/>
</g>
</g>
<path d="M750.619 565.882L1288.76 229.309L1153.28 144.209" stroke="#2F6368" stroke-width="1.44048" stroke-linecap="round" stroke-linejoin="round"/>
<g opacity="0.06">
<mask id="mask1_587_7182" style="mask-type:luminance" maskUnits="userSpaceOnUse" x="0" y="-850" width="5224" height="2271">
<path d="M5223.25 -849.095H0V1420.06H5223.25V-849.095Z" fill="white"/>
</mask>
<g mask="url(#mask1_587_7182)">
<path d="M-270.305 60.1458L3248.66 2271.33" stroke="#E0E4E8" stroke-width="1.44048" stroke-miterlimit="10"/>
<path d="M68.2285 -135.949L3587.23 2075.2" stroke="#E0E4E8" stroke-width="1.44048" stroke-miterlimit="10"/>
<path d="M316.51 -381.566L3766.23 1786.04" stroke="#E0E4E8" stroke-width="1.44048" stroke-miterlimit="10"/>
<path d="M641.836 -585.988L4104.76 1589.94" stroke="#E0E4E8" stroke-width="1.44048" stroke-miterlimit="10"/>
<path d="M2255.3 24.2893L247.229 1286.04" stroke="#E0E4E8" stroke-width="1.44048" stroke-miterlimit="10"/>
<path d="M1934.33 -178.818L30.3223 1017.59" stroke="#E0E4E8" stroke-width="1.44048" stroke-miterlimit="10"/>
<path d="M1609 -383.24L-308.246 821.458" stroke="#E0E4E8" stroke-width="1.44048" stroke-miterlimit="10"/>
<path d="M1293.32 -586.506L-487.248 532.296" stroke="#E0E4E8" stroke-width="1.44048" stroke-miterlimit="10"/>
<path d="M964.08 -788.458L-825.778 336.201" stroke="#E0E4E8" stroke-width="1.44048" stroke-miterlimit="10"/>
</g>
</g>
<path d="M750.619 565.882L1288.76 229.309L1153.28 144.209" stroke="#2F6368" stroke-width="1.44048" stroke-linecap="round" stroke-linejoin="round"/>
<g opacity="0.06">
<mask id="mask2_587_7182" style="mask-type:luminance" maskUnits="userSpaceOnUse" x="0" y="-850" width="5224" height="2271">
<path d="M5223.25 -849.095H0V1420.06H5223.25V-849.095Z" fill="white"/>
</mask>
<g mask="url(#mask2_587_7182)">
<path d="M-270.305 60.1458L3248.66 2271.33" stroke="#E0E4E8" stroke-width="1.44048" stroke-miterlimit="10"/>
<path d="M68.2285 -135.949L3587.23 2075.2" stroke="#E0E4E8" stroke-width="1.44048" stroke-miterlimit="10"/>
<path d="M316.51 -381.566L3766.23 1786.04" stroke="#E0E4E8" stroke-width="1.44048" stroke-miterlimit="10"/>
<path d="M641.836 -585.988L4104.76 1589.94" stroke="#E0E4E8" stroke-width="1.44048" stroke-miterlimit="10"/>
<path d="M2255.3 24.2893L247.229 1286.04" stroke="#E0E4E8" stroke-width="1.44048" stroke-miterlimit="10"/>
<path d="M1934.33 -178.818L30.3223 1017.59" stroke="#E0E4E8" stroke-width="1.44048" stroke-miterlimit="10"/>
<path d="M1609 -383.24L-308.246 821.458" stroke="#E0E4E8" stroke-width="1.44048" stroke-miterlimit="10"/>
<path d="M1293.32 -586.506L-487.248 532.296" stroke="#E0E4E8" stroke-width="1.44048" stroke-miterlimit="10"/>
<path d="M964.08 -788.458L-825.778 336.201" stroke="#E0E4E8" stroke-width="1.44048" stroke-miterlimit="10"/>
</g>
</g>
<path d="M750.619 565.882L1288.76 229.309L1153.28 144.209" stroke="#2F6368" stroke-width="1.44048" stroke-linecap="round" stroke-linejoin="round"/>
</g>
<defs>
<clipPath id="clip0_587_7182">
<rect width="836" height="186" fill="white"/>
</clipPath>
</defs>
</svg>
