<svg xmlns="http://www.w3.org/2000/svg" xmlns:xlink="http://www.w3.org/1999/xlink" width="32" height="32" viewBox="0 0 32 32">
  <defs>
    <clipPath id="clip-path">
      <rect id="Rectangle_3830" data-name="Rectangle 3830" width="32" height="32" transform="translate(0 0)" fill="#fff"/>
    </clipPath>
    <linearGradient id="linear-gradient" x1="1" y1="0.064" x2="0.299" y2="0.738" gradientUnits="objectBoundingBox">
      <stop offset="0" stop-color="#5e43f7"/>
      <stop offset="1" stop-color="#3d2d87"/>
    </linearGradient>
    <linearGradient id="linear-gradient-2" x1="0.74" y1="0.247" x2="0.172" y2="0.852" gradientUnits="objectBoundingBox">
      <stop offset="0" stop-color="#f0990c"/>
      <stop offset="1" stop-color="#f76d43"/>
    </linearGradient>
    <linearGradient id="linear-gradient-3" x1="1" y1="0.064" x2="0.299" y2="0.738" gradientUnits="objectBoundingBox">
      <stop offset="0" stop-color="#5e43f7"/>
      <stop offset="1" stop-color="#4c30cb"/>
    </linearGradient>
  </defs>
  <g id="Group_4185" data-name="Group 4185" clip-path="url(#clip-path)">
    <g id="Group_4260" data-name="Group 4260" transform="translate(4 7.999)">
      <path id="Path_3704" data-name="Path 3704" d="M16.222,76.434a4.153,4.153,0,0,0-1.453-6.065,5.137,5.137,0,0,0-6.682,1.319,4.051,4.051,0,0,0,0,4.746,5.433,5.433,0,0,0-3.34,4.875v1.874a.481.481,0,0,0,.5.456H19.06a.481.481,0,0,0,.5-.456V81.309A5.436,5.436,0,0,0,16.222,76.434Z" transform="translate(-4.746 -69.672)" opacity="0.68" fill="url(#linear-gradient)"/>
      <path id="Path_3705" data-name="Path 3705" d="M83.145,76.436a4.153,4.153,0,0,0-1.454-6.064,5.137,5.137,0,0,0-6.682,1.32,4.05,4.05,0,0,0,0,4.745A5.436,5.436,0,0,0,71.67,81.31v1.874a.481.481,0,0,0,.5.456h13.81a.481.481,0,0,0,.5-.456V81.31A5.433,5.433,0,0,0,83.145,76.436Z" transform="translate(-62.999 -69.673)" fill="url(#linear-gradient-2)"/>
      <path id="Path_3706" data-name="Path 3706" d="M49.7,81.431a4.153,4.153,0,0,0-1.454-6.064,5.138,5.138,0,0,0-6.682,1.319,4.05,4.05,0,0,0,0,4.745,5.436,5.436,0,0,0-3.339,4.875v1.874a.481.481,0,0,0,.5.456h13.81a.481.481,0,0,0,.5-.456V86.306A5.433,5.433,0,0,0,49.7,81.431Z" transform="translate(-33.885 -73.234)" fill="url(#linear-gradient-3)"/>
    </g>
  </g>
</svg>
