<svg xmlns="http://www.w3.org/2000/svg" xmlns:xlink="http://www.w3.org/1999/xlink" width="32" height="32" viewBox="0 0 32 32">
  <defs>
    <clipPath id="clip-path">
      <rect id="Rectangle_3830" data-name="Rectangle 3830" width="32" height="32" transform="translate(39 172)" fill="#fff"/>
    </clipPath>
    <linearGradient id="linear-gradient" x1="0.74" y1="0.247" x2="0.172" y2="0.852" gradientUnits="objectBoundingBox">
      <stop offset="0" stop-color="#f0990c"/>
      <stop offset="1" stop-color="#f76d43"/>
    </linearGradient>
    <linearGradient id="linear-gradient-2" x1="0.5" x2="0.5" y2="1" gradientUnits="objectBoundingBox">
      <stop offset="0" stop-color="#5e43f7"/>
      <stop offset="1" stop-color="#3c2d83"/>
    </linearGradient>
  </defs>
  <g id="Blog" transform="translate(-46 -369)">
    <g id="Group_4195" data-name="Group 4195" transform="translate(-126.463 196.096)">
      <g id="Group_4191" data-name="Group 4191" transform="translate(179.649 182)">
        <rect id="Rectangle_3831" data-name="Rectangle 3831" width="2.747" height="13.736" rx="1.127" transform="translate(14.881)" fill="url(#linear-gradient)"/>
        <path id="Path_3647" data-name="Path 3647" d="M193.094,183.623l-10.3,2.9a.229.229,0,0,0-.167.22v5.465h0v1.82a1.526,1.526,0,0,0,1.275,1.505l3.358.56a1.549,1.549,0,0,0,.252.021,1.526,1.526,0,0,0,1.525-1.526v-.642l4.06,1.1a.229.229,0,0,0,.289-.221V183.843A.228.228,0,0,0,193.094,183.623Zm-5.432,10.962a.149.149,0,0,1-.054.116.146.146,0,0,1-.123.034h0l-3.359-.56a.151.151,0,0,1-.127-.15v-1.447l3.663.993Zm-6.41-7.7h-.687a.916.916,0,0,0-.915.916V191a.915.915,0,0,0,.915.915h.687a.229.229,0,0,0,.228-.229v-4.579A.229.229,0,0,0,181.252,186.882Z" transform="translate(-179.649 -182.303)" fill="url(#linear-gradient-2)"/>
      </g>
    </g>
  </g>
</svg>
