<svg xmlns="http://www.w3.org/2000/svg" xmlns:xlink="http://www.w3.org/1999/xlink" width="32" height="32" viewBox="0 0 32 32">
  <defs>
    <clipPath id="clip-path">
      <rect id="Rectangle_3830" data-name="Rectangle 3830" width="32" height="32" transform="translate(0)" fill="#fff"/>
    </clipPath>
    <linearGradient id="linear-gradient" x1="1" y1="0.064" x2="0.299" y2="0.738" gradientUnits="objectBoundingBox">
      <stop offset="0" stop-color="#5e43f7"/>
      <stop offset="1" stop-color="#3d2d87"/>
    </linearGradient>
    <linearGradient id="linear-gradient-2" x1="0.74" y1="0.247" x2="0.172" y2="0.852" gradientUnits="objectBoundingBox">
      <stop offset="0" stop-color="#f0990c"/>
      <stop offset="1" stop-color="#f76d43"/>
    </linearGradient>
  </defs>
  <g id="Careers" transform="translate(-50 -373)">
    <g id="Group_4182" data-name="Group 4182" transform="translate(56.494 379.495)">
      <g id="Group_4179" data-name="Group 4179">
        <g id="Group_4178" data-name="Group 4178">
          <path id="Path_3643" data-name="Path 3643" d="M56.27,105.13l-2.383.387A9.765,9.765,0,0,0,47.9,108.6l-2.671,2.926-3.639-.213a.55.55,0,0,0-.49.243l-1.831,2.734a.55.55,0,0,0,.23.807l2.583,1.174,3.951,3.95,1.175,2.585a.55.55,0,0,0,.806.231l2.775-1.841a.55.55,0,0,0,.245-.5l-.243-3.637,2.914-2.66a9.766,9.766,0,0,0,3.08-5.981l.387-2.383A.79.79,0,0,0,56.27,105.13Zm-4.39,7.634a1.652,1.652,0,1,1,0-2.336A1.653,1.653,0,0,1,51.88,112.764Z" transform="translate(-38.09 -105.12)" fill="url(#linear-gradient)"/>
          <path id="Path_3644" data-name="Path 3644" d="M43.462,130.777l-2.931-2.931a.208.208,0,0,0-.293,0c-.159.154-.378.37-.456.448a9.41,9.41,0,0,0-2.662,5.9,9.41,9.41,0,0,0,5.9-2.662c.078-.078.294-.3.448-.456A.208.208,0,0,0,43.462,130.777Z" transform="translate(-37.12 -115.091)" fill="url(#linear-gradient-2)"/>
        </g>
      </g>
    </g>
  </g>
</svg>
