<svg xmlns="http://www.w3.org/2000/svg" xmlns:xlink="http://www.w3.org/1999/xlink" width="32" height="32" viewBox="0 0 32 32">
  <defs>
    <clipPath id="clip-path">
      <rect id="Rectangle_3829" data-name="Rectangle 3829" width="32" height="32" transform="translate(39 172)" fill="#fff"/>
    </clipPath>
    <linearGradient id="linear-gradient" x1="0.74" y1="0.247" x2="0.172" y2="0.852" gradientUnits="objectBoundingBox">
      <stop offset="0" stop-color="#f0990c"/>
      <stop offset="1" stop-color="#f76d43"/>
    </linearGradient>
    <linearGradient id="linear-gradient-2" x1="0.5" x2="0.5" y2="1" gradientUnits="objectBoundingBox">
      <stop offset="0" stop-color="#5e43f7"/>
      <stop offset="1" stop-color="#3c2d83"/>
    </linearGradient>
  </defs>
  <g id="Case_study" data-name="Case study" transform="translate(-39 -172)" clip-path="url(#clip-path)">
    <g id="Group_4181" data-name="Group 4181" transform="translate(-59.698 -131.557)">
      <g id="Group_4176" data-name="Group 4176" transform="translate(103.25 311.5)">
        <path id="Path_3641" data-name="Path 3641" d="M104.375,320.5a1.125,1.125,0,0,0-1.125,1.125v9.563a1.125,1.125,0,1,0,2.25,0v-9.563A1.125,1.125,0,0,0,104.375,320.5Z" transform="translate(-103.25 -316.728)" fill="url(#linear-gradient)"/>
        <path id="Path_3642" data-name="Path 3642" d="M125.072,311.5h-14.3a1.049,1.049,0,0,0-1.021,1.075v14.51h14.3a2.1,2.1,0,0,0,2.043-2.15v-12.36A1.049,1.049,0,0,0,125.072,311.5Zm-6.129,3.117a.515.515,0,0,1,.511-.52h3.064a.515.515,0,0,1,.511.52v3.117a.515.515,0,0,1-.511.52h-3.064a.515.515,0,0,1-.511-.52Zm-5.874.13h3.064a.649.649,0,0,1,0,1.3H113.07a.649.649,0,0,1,0-1.3Zm0,2.6h3.064a.649.649,0,0,1,0,1.3H113.07a.649.649,0,0,1,0-1.3Zm9.7,6.494h-9.7a.649.649,0,0,1,0-1.3h9.7a.649.649,0,0,1,0,1.3Zm0-2.6h-9.7a.649.649,0,0,1,0-1.3h9.7a.649.649,0,0,1,0,1.3Z" transform="translate(-106.094 -311.5)" fill="url(#linear-gradient-2)"/>
      </g>
    </g>
  </g>
</svg>
