<svg id="Icon_ionic-ios-close-circle-outline" data-name="Icon ionic-ios-close-circle-outline" xmlns="http://www.w3.org/2000/svg" width="24" height="24" viewBox="0 0 24 24">
  <path id="Path_3491" data-name="Path 3491" d="M21.1,19.832l-2.963-2.963L21.1,13.906a.9.9,0,0,0-1.271-1.271L16.87,15.6l-2.963-2.963a.9.9,0,1,0-1.271,1.271L15.6,16.869l-2.963,2.963a.869.869,0,0,0,0,1.271.893.893,0,0,0,1.271,0L16.87,18.14,19.833,21.1a.9.9,0,0,0,1.271,0A.893.893,0,0,0,21.1,19.832Z" transform="translate(-4.87 -4.869)" fill="#1c163a"/>
  <path id="Path_3492" data-name="Path 3492" d="M15.375,4.99a10.381,10.381,0,1,1-7.344,3.04,10.316,10.316,0,0,1,7.344-3.04m0-1.615a12,12,0,1,0,12,12,12,12,0,0,0-12-12Z" transform="translate(-3.375 -3.375)" fill="#1c163a"/>
</svg>
