<svg xmlns="http://www.w3.org/2000/svg" xmlns:xlink="http://www.w3.org/1999/xlink" width="32" height="32" viewBox="0 0 32 32">
  <defs>
    <clipPath id="clip-path">
      <rect id="Rectangle_3830" data-name="Rectangle 3830" width="32" height="32" transform="translate(39 172)" fill="#fff"/>
    </clipPath>
    <linearGradient id="linear-gradient" x1="0.74" y1="0.247" x2="0.172" y2="0.852" gradientUnits="objectBoundingBox">
      <stop offset="0" stop-color="#f0990c"/>
      <stop offset="1" stop-color="#f76d43"/>
    </linearGradient>
    <linearGradient id="linear-gradient-2" x1="0.5" x2="0.5" y2="1" gradientUnits="objectBoundingBox">
      <stop offset="0" stop-color="#5e43f7"/>
      <stop offset="1" stop-color="#3c2d83"/>
    </linearGradient>
  </defs>
  <g id="Company" transform="translate(-46 -369)">
    <g id="Group_4189" data-name="Group 4189" transform="translate(-322.5 203.807)">
      <g id="Group_4188" data-name="Group 4188" transform="translate(375.5 172.817)">
        <path id="Path_3645" data-name="Path 3645" d="M392.031,172.817h-5.393a1.729,1.729,0,0,0-1.519,1.88v1.382h1.519V174.7h5.393v1.382h1.52V174.7A1.729,1.729,0,0,0,392.031,172.817Z" transform="translate(-380.335 -172.817)" fill="url(#linear-gradient)"/>
        <path id="Path_3646" data-name="Path 3646" d="M385.211,189.474v.316a.712.712,0,0,1-1.421,0v-.316h-6.395a3.218,3.218,0,0,1-.947-.143v3.056a.923.923,0,0,0,.947.9h14.211a.923.923,0,0,0,.947-.9v-3.056a3.218,3.218,0,0,1-.947.143Zm7.342-8.291H376.447a.923.923,0,0,0-.947.9v4.482a1.846,1.846,0,0,0,1.895,1.793h6.395v-.527a.712.712,0,0,1,1.421,0v.527h6.395a1.846,1.846,0,0,0,1.895-1.793v-4.482A.923.923,0,0,0,392.553,181.183Z" transform="translate(-375.5 -176.531)" fill="url(#linear-gradient-2)"/>
      </g>
    </g>
  </g>
</svg>
