<svg xmlns="http://www.w3.org/2000/svg" xmlns:xlink="http://www.w3.org/1999/xlink" width="32" height="32" viewBox="0 0 32 32">
  <defs>
    <clipPath id="clip-path">
      <rect id="Rectangle_3830" data-name="Rectangle 3830" width="32" height="32" transform="translate(39 172)" fill="#fff"/>
    </clipPath>
    <linearGradient id="linear-gradient" x1="0.5" x2="0.5" y2="1" gradientUnits="objectBoundingBox">
      <stop offset="0" stop-color="#5e43f7"/>
      <stop offset="1" stop-color="#3c2d83"/>
    </linearGradient>
    <linearGradient id="linear-gradient-2" x1="0.74" y1="0.247" x2="0.172" y2="0.852" gradientUnits="objectBoundingBox">
      <stop offset="0" stop-color="#f0990c"/>
      <stop offset="1" stop-color="#f76d43"/>
    </linearGradient>
  </defs>
  <g id="Contact_us" data-name="Contact us" transform="translate(-46 -369)">
    <g id="Group_4198" data-name="Group 4198" transform="translate(-185.394 -0.203)">
      <g id="Group_4197" data-name="Group 4197" transform="translate(238.803 376.783)">
        <path id="Path_3648" data-name="Path 3648" d="M265.227,396.92l-.855-2.566a.568.568,0,0,1,.038-.441,6.691,6.691,0,0,0-3.8-9.4,7.979,7.979,0,0,1,.471,4.534,7.845,7.845,0,0,1-6.3,6.237,8.2,8.2,0,0,1-1.239.12,6.686,6.686,0,0,0,7.945,1.423.568.568,0,0,1,.438-.036l2.576.858A.577.577,0,0,0,265.227,396.92Z" transform="translate(-246.536 -380.839)" fill="url(#linear-gradient)"/>
        <rect id="Rectangle_3849" data-name="Rectangle 3849" width="8" height="6" rx="1.127" transform="translate(2.591 4.421)" fill="url(#linear-gradient-2)"/>
        <path id="Path_3649" data-name="Path 3649" d="M244.321,376.9a6.689,6.689,0,0,0-4.669,9.628.568.568,0,0,1,.038.441l-.855,2.566a.577.577,0,0,0,.73.729l2.576-.858a.567.567,0,0,1,.438.036,6.7,6.7,0,1,0,1.743-12.542Zm1.7,8.656H242.7a.594.594,0,1,1,0-1.188h3.327a.594.594,0,1,1,0,1.188Zm2.376-2.376h-5.7a.594.594,0,1,1,0-1.188h5.7a.594.594,0,1,1,0,1.188Z" transform="translate(-238.803 -376.783)" fill="url(#linear-gradient)"/>
      </g>
    </g>
  </g>
</svg>
