<svg xmlns="http://www.w3.org/2000/svg" xmlns:xlink="http://www.w3.org/1999/xlink" width="32" height="32" viewBox="0 0 32 32">
  <defs>
    <clipPath id="clip-path">
      <rect id="Rectangle_3809" data-name="Rectangle 3809" width="32" height="32" transform="translate(321.832 92.139)" fill="#fff"/>
    </clipPath>
    <linearGradient id="linear-gradient" x1="0.5" x2="0.5" y2="1" gradientUnits="objectBoundingBox">
      <stop offset="0" stop-color="#5e43f7"/>
      <stop offset="1" stop-color="#3c2d83"/>
    </linearGradient>
    <linearGradient id="linear-gradient-3" x1="0.591" y1="0.314" x2="0.171" y2="0.889" gradientUnits="objectBoundingBox">
      <stop offset="0" stop-color="#f0990c"/>
      <stop offset="1" stop-color="#f76d43"/>
    </linearGradient>
  </defs>
  <g id="Industries" transform="translate(-321.832 -92.139)">
    <g id="Mask_Group_266" data-name="Mask Group 266" clip-path="url(#clip-path)">
      <g id="Group_4237" data-name="Group 4237" transform="translate(3.383 -51.309)">
        <path id="Path_3675" data-name="Path 3675" d="M349.341,150.6h-6.034l-10.745,10.745,6.953,6.953,10.745-10.745-.023-6.061A.9.9,0,0,0,349.341,150.6Zm-3.506,5.689a1.264,1.264,0,1,1,1.264-1.264A1.264,1.264,0,0,1,345.836,156.288Z" transform="translate(-5.698)" fill-rule="evenodd" fill="url(#linear-gradient)"/>
        <path id="Path_3676" data-name="Path 3676" d="M352.2,154.6l-4.153,0-9.481,9.481,5.057,5.057,9.481-9.481-.008-4.16A.9.9,0,0,0,352.2,154.6Zm-2.257,4.422a1.264,1.264,0,1,1,1.264-1.264A1.264,1.264,0,0,1,349.94,159.025Z" transform="translate(-9.802 -2.737)" fill-rule="evenodd" fill="url(#linear-gradient)"/>
        <path id="Path_3677" data-name="Path 3677" d="M332.779,168.3h-1.264l-6.953-6.953L335.307,150.6h1.264l-10.745,10.745Z" transform="translate(-0.227 -0.001)" fill-rule="evenodd" fill="url(#linear-gradient-3)"/>
      </g>
    </g>
  </g>
</svg>
