<svg xmlns="http://www.w3.org/2000/svg" xmlns:xlink="http://www.w3.org/1999/xlink" width="32" height="32" viewBox="0 0 32 32">
  <defs>
    <clipPath id="clip-path">
      <rect id="Rectangle_3809" data-name="Rectangle 3809" width="32" height="32" transform="translate(321.832 92.139)" fill="#fff"/>
    </clipPath>
    <linearGradient id="linear-gradient" x1="0.74" y1="0.247" x2="0.172" y2="0.852" gradientUnits="objectBoundingBox">
      <stop offset="0" stop-color="#f0990c"/>
      <stop offset="0.729" stop-color="#f0990c"/>
      <stop offset="1" stop-color="#f76d43"/>
    </linearGradient>
    <linearGradient id="linear-gradient-2" x1="0.5" x2="0.5" y2="1" gradientUnits="objectBoundingBox">
      <stop offset="0" stop-color="#5133dd"/>
      <stop offset="1" stop-color="#221a50"/>
    </linearGradient>
  </defs>
  <g id="Platform" transform="translate(-321.832 -92.139)">
    <g id="Mask_Group_266" data-name="Mask Group 266" clip-path="url(#clip-path)">
      <g id="Group_4199" data-name="Group 4199" transform="translate(347.373 120.421) rotate(180)" style="mix-blend-mode: multiply;isolation: isolate">
        <path id="Subtraction_1" data-name="Subtraction 1" d="M2430.077-5433.976h0l-8.421-4.861a.38.38,0,0,0-.192-.052.38.38,0,0,0-.192.052l-8.357,4.855-1-.576a.38.38,0,0,1-.191-.331.381.381,0,0,1,.19-.333l9.356-5.436a.381.381,0,0,1,.193-.053.385.385,0,0,1,.191.051l9.42,5.438a.381.381,0,0,1,.191.333.378.378,0,0,1-.191.331l-1,.58Z" transform="translate(-2411.726 5443.709)" stroke="rgba(0,0,0,0)" stroke-miterlimit="10" stroke-width="1" fill="url(#linear-gradient)"/>
        <path id="Subtraction_2" data-name="Subtraction 2" d="M2430.077-5433.976h0l-8.421-4.861a.38.38,0,0,0-.192-.052.38.38,0,0,0-.192.052l-8.357,4.855-1-.576a.38.38,0,0,1-.191-.331.381.381,0,0,1,.19-.333l9.356-5.436a.381.381,0,0,1,.193-.053.385.385,0,0,1,.191.051l9.42,5.438a.381.381,0,0,1,.191.333.378.378,0,0,1-.191.331l-1,.58Z" transform="translate(-2411.726 5447.327)" fill="#503ac7" stroke="rgba(0,0,0,0)" stroke-miterlimit="10" stroke-width="1"/>
        <path id="Path_3632" data-name="Path 3632" d="M347.455,103l-9.355,5.437a.383.383,0,0,1-.384,0L328.3,103a.383.383,0,0,1,0-.663l9.355-5.437a.383.383,0,0,1,.384,0l9.42,5.439A.383.383,0,0,1,347.455,103Z" transform="translate(-328.105 -86.208)" fill="url(#linear-gradient-2)"/>
      </g>
    </g>
  </g>
</svg>
