<svg xmlns="http://www.w3.org/2000/svg" xmlns:xlink="http://www.w3.org/1999/xlink" width="32" height="32" viewBox="0 0 32 32">
  <defs>
    <linearGradient id="linear-gradient" x1="0.591" y1="0.314" x2="0.171" y2="0.889" gradientUnits="objectBoundingBox">
      <stop offset="0" stop-color="#f0990c"/>
      <stop offset="1" stop-color="#f76d43"/>
    </linearGradient>
    <clipPath id="clip-path">
      <rect id="Rectangle_3929" data-name="Rectangle 3929" width="32" height="32" transform="translate(321.832 92.139)" fill="#fff"/>
    </clipPath>
    <linearGradient id="linear-gradient-2" x1="1" x2="0" y2="0.952" gradientUnits="objectBoundingBox">
      <stop offset="0" stop-color="#5133dd"/>
      <stop offset="1" stop-color="#221a50"/>
    </linearGradient>
    <linearGradient id="linear-gradient-3" x2="-0.83" y2="1.607" xlink:href="#linear-gradient-2"/>
  </defs>
  <g id="Ranking_Surveys" data-name="Ranking &amp; Surveys" transform="translate(-72.354 -163.035)">
    <g id="Group_4415" data-name="Group 4415" transform="translate(0 -2)">
      <rect id="Rectangle_3928" data-name="Rectangle 3928" width="13" height="15" rx="1" transform="translate(81.354 172.035)" fill="url(#linear-gradient)"/>
      <g id="Group_4417" data-name="Group 4417" transform="translate(79.021 168.798)">
        <path id="Path_3949" data-name="Path 3949" d="M396.563,128.826l-1.042-6.841-.338.029a4.747,4.747,0,0,0-1.016.149,4.3,4.3,0,0,0-.772.535,3.838,3.838,0,0,1-5.681,0,4.233,4.233,0,0,0-.773-.535,4.711,4.711,0,0,0-1.016-.149l-.23-.02-1.132,6.994a.631.631,0,0,0,.924.617l4.839-2.327a.68.68,0,0,1,.574-.006l4.749,2.172A.63.63,0,0,0,396.563,128.826Z" transform="translate(-381.63 -104.36)" fill="url(#linear-gradient-2)"/>
        <path id="Path_3870" data-name="Path 3870" d="M398.745,108.339c-.51-1.253-.1-3.168-1.023-4.112s-2.806-.523-4.034-1.043c-1.185-.5-2.212-2.17-3.575-2.17s-2.39,1.669-3.575,2.17c-1.228.519-3.108.1-4.034,1.042s-.514,2.86-1.023,4.112c-.492,1.208-2.13,2.255-2.13,3.644s1.638,2.436,2.13,3.644c.509,1.252.1,3.167,1.023,4.112s2.805.523,4.034,1.043c1.185.5,2.212,2.17,3.575,2.17s2.39-1.67,3.575-2.17c1.228-.52,3.109-.1,4.034-1.043s.513-2.86,1.022-4.112c.492-1.208,2.13-2.255,2.13-3.644S399.236,109.547,398.745,108.339Zm-8.633,9.812a6.17,6.17,0,1,1,6.052-6.169A6.112,6.112,0,0,1,390.113,118.151Z" transform="translate(-381.189 -101.888)" fill="url(#linear-gradient-3)"/>
        <g id="Group_4427" data-name="Group 4427">
          <path id="Path_3948" data-name="Path 3948" d="M389.363,115.367l-.368,2c-.127.691.31.987.975.66l1.925-.943,1.925.943c.666.326,1.1.031.975-.66l-.367-2,1.557-1.414c.539-.489.372-.967-.371-1.068l-2.154-.292-.963-1.818c-.334-.629-.872-.629-1.205,0l-.963,1.818-2.153.292c-.744.1-.911.579-.372,1.068Z" transform="translate(-382.972 -104.136)" fill="url(#linear-gradient-2)"/>
        </g>
      </g>
    </g>
  </g>
</svg>
