<svg xmlns="http://www.w3.org/2000/svg" xmlns:xlink="http://www.w3.org/1999/xlink" width="32" height="32" viewBox="0 0 32 32">
  <defs>
    <clipPath id="clip-path">
      <rect id="Rectangle_3929" data-name="Rectangle 3929" width="32" height="32" transform="translate(321.832 92.139)" fill="#fff"/>
    </clipPath>
    <linearGradient id="linear-gradient" x1="0.5" x2="0.5" y2="1" gradientUnits="objectBoundingBox">
      <stop offset="0" stop-color="#f0990c"/>
      <stop offset="1" stop-color="#f76d43"/>
    </linearGradient>
    <linearGradient id="linear-gradient-2" x1="0.5" x2="0.5" y2="1" gradientUnits="objectBoundingBox">
      <stop offset="0" stop-color="#5e43f7"/>
      <stop offset="1" stop-color="#3d2d87"/>
    </linearGradient>
  </defs>
  <g id="Similarity_Comparison" data-name="Similarity &amp; Comparison" transform="translate(-72.354 -163.035)">
    <g id="Group_4415" data-name="Group 4415" transform="translate(0 -2)">
      <g id="animation" transform="translate(76.354 169.035)">
        <path id="Path_3878" data-name="Path 3878" d="M22,13v8a1,1,0,0,1-1,1H13a1,1,0,0,1-1-1V13a1,1,0,0,1,1-1h8A1,1,0,0,1,22,13Z" fill="url(#linear-gradient)"/>
        <path id="Path_3879" data-name="Path 3879" d="M7,6A1,1,0,0,0,6,7v9a1,1,0,0,0,1,1h3V10.5a.5.5,0,0,1,.5-.5H17V7a1,1,0,0,0-1-1Z" fill="url(#linear-gradient-2)"/>
        <path id="Path_3880" data-name="Path 3880" d="M3,13H4V4.5A.5.5,0,0,1,4.5,4H13V3a1,1,0,0,0-1-1H3A1,1,0,0,0,2,3v9a1,1,0,0,0,1,1Z" fill="url(#linear-gradient-2)"/>
      </g>
    </g>
  </g>
</svg>
