<svg xmlns="http://www.w3.org/2000/svg" width="124" height="33.086" viewBox="0 0 124 33.086">
  <g id="Tasq_Logo_Dark" data-name="Tasq Logo Dark" transform="translate(-415.034 -659.015)">
    <path id="Path_3313" data-name="Path 3313" d="M426.144,685.345h-3.153a4.615,4.615,0,0,1-3.359-1.389,4.521,4.521,0,0,1-1.408-3.34V670.388H416.61a1.536,1.536,0,0,1-1.116-.451,1.581,1.581,0,0,1,1.116-2.7h1.652v-3.866a1.559,1.559,0,0,1,2.674-1.108,1.5,1.5,0,0,1,.479,1.108v3.866h6.343a1.573,1.573,0,0,1,1.107,2.693,1.532,1.532,0,0,1-1.107.46h-6.381v10.228a1.5,1.5,0,0,0,.479,1.107,1.565,1.565,0,0,0,1.135.469h3.078a1.657,1.657,0,0,0,1.67-1.361,1.618,1.618,0,0,1,1.6-1.36,1.5,1.5,0,0,1,1.136.46,1.6,1.6,0,0,1,.441,1.154,4.184,4.184,0,0,1-1.342,2.843A4.509,4.509,0,0,1,426.144,685.345Z" fill="#181944"/>
    <path id="Path_3314" data-name="Path 3314" d="M438.974,673.972h6.175a6.957,6.957,0,0,1,1.463.225l-.037-2.233A1.569,1.569,0,0,0,445,670.388h-5.986a1.577,1.577,0,1,1,0-3.153H445a4.553,4.553,0,0,1,3.332,1.37,4.752,4.752,0,0,1,1.435,3.359l.394,11.8a1.5,1.5,0,0,1-.469,1.117,1.528,1.528,0,0,1-1.107.46,1.574,1.574,0,0,1-1.145-.46,1.5,1.5,0,0,1-.469-1.117l-2.665,1.577h-5.33a4.743,4.743,0,0,1-4.767-4.767v-1.839a4.775,4.775,0,0,1,4.767-4.767Zm7.882,6.137-.093-1.333a1.6,1.6,0,0,0-.47-1.126,1.5,1.5,0,0,0-1.107-.45h-6.212a1.57,1.57,0,0,0-1.576,1.576v1.764a1.6,1.6,0,0,0,1.576,1.577h4.448Z" fill="#181944"/>
    <path id="Path_3315" data-name="Path 3315" d="M458.7,667.235h7.225a4.73,4.73,0,0,1,2.984,1,2.69,2.69,0,0,1,1.3,1.961,1.425,1.425,0,0,1-.479,1.107,1.546,1.546,0,0,1-1.06.432,1.832,1.832,0,0,1-1.37-.676,1.774,1.774,0,0,0-1.295-.675h-7.131q-1.051,0-1.051.882a1.013,1.013,0,0,0,.694.938l8.389,3.716A4.771,4.771,0,0,1,469,677.735a4.945,4.945,0,0,1,.817,2.768,4.626,4.626,0,0,1-1.436,3.434,4.529,4.529,0,0,1-3.256,1.408h-6.381a5.232,5.232,0,0,1-3.068-.995q-1.418-.994-1.417-1.933a1.538,1.538,0,0,1,.46-1.1,1.576,1.576,0,0,1,1.191-.478,1.927,1.927,0,0,1,1.286.675,2.7,2.7,0,0,0,1.98.676h5.874a1.483,1.483,0,0,0,1.163-.535,1.808,1.808,0,0,0,.47-1.229,1.591,1.591,0,0,0-1.051-1.539l-8.464-3.81a4.176,4.176,0,0,1-1.877-1.576,3.874,3.874,0,0,1-.657-2.1,4.117,4.117,0,0,1,1.173-2.928A3.837,3.837,0,0,1,458.7,667.235Z" fill="#181944"/>
    <path id="Path_3316" data-name="Path 3316" d="M487.03,690.487v-7.413l-1.2.995a5.135,5.135,0,0,1-3.3,1.276h-2.12a4.718,4.718,0,0,1-3.135-1.07l-1.463-1.239a3.979,3.979,0,0,1-1.079-1.51,4.651,4.651,0,0,1-.423-1.868V673.09a4.341,4.341,0,0,1,1.389-3.472l1.145-.995a5.087,5.087,0,0,1,3.528-1.426h2.308q1.99,0,4.354,2.233v-.656a1.577,1.577,0,1,1,3.153,0v21.713a1.574,1.574,0,0,1-.46,1.145,1.563,1.563,0,0,1-2.233,0A1.578,1.578,0,0,1,487.03,690.487Zm-6.775-8.333h2.2a1.926,1.926,0,0,0,1.239-.337l2.834-2.421a1.875,1.875,0,0,0,.506-1.464V674.31a1.65,1.65,0,0,0-.656-1.22l-2.384-2.121a1.774,1.774,0,0,0-1.276-.581h-2.571a1.328,1.328,0,0,0-.92.356l-1.182,1.032a1.5,1.5,0,0,0-.582,1.145v6.662a1.648,1.648,0,0,0,.657,1.22l1.032.92A1.721,1.721,0,0,0,480.255,682.154Z" fill="#181944"/>
    <path id="Path_3317" data-name="Path 3317" d="M511.015,673.972h6.174a6.955,6.955,0,0,1,1.464.225l-.038-2.233a1.569,1.569,0,0,0-1.576-1.576h-5.987a1.577,1.577,0,1,1,0-3.153h5.987a4.552,4.552,0,0,1,3.331,1.37,4.753,4.753,0,0,1,1.436,3.359l.394,11.8a1.508,1.508,0,0,1-.469,1.117,1.529,1.529,0,0,1-1.108.46,1.57,1.57,0,0,1-1.144-.46,1.5,1.5,0,0,1-.47-1.117l-2.665,1.577h-5.329a4.743,4.743,0,0,1-4.767-4.767v-1.839a4.773,4.773,0,0,1,4.767-4.767Zm7.882,6.137-.094-1.333a1.6,1.6,0,0,0-.469-1.126,1.508,1.508,0,0,0-1.108-.45h-6.211a1.571,1.571,0,0,0-1.577,1.576v1.764a1.6,1.6,0,0,0,1.577,1.577h4.447Z" fill="#181944"/>
    <path id="Path_3318" data-name="Path 3318" d="M537.457,685.307h-9.608a1.572,1.572,0,0,1-1.117-2.683,1.506,1.506,0,0,1,1.117-.47h3.228V670.388h-3.191a1.5,1.5,0,0,1-1.116-.47,1.527,1.527,0,0,1-.46-1.107,1.58,1.58,0,0,1,.46-1.135,1.489,1.489,0,0,1,1.116-.479h4.8a1.49,1.49,0,0,1,1.116.479,1.58,1.58,0,0,1,.46,1.135v13.343h3.153a1.584,1.584,0,0,1,1.135.46,1.493,1.493,0,0,1,.479,1.117,1.509,1.509,0,0,1-.469,1.117A1.532,1.532,0,0,1,537.457,685.307Z" fill="#181944"/>
    <path id="Path_3319" data-name="Path 3319" d="M531.039,659.015h1.652a1.569,1.569,0,0,1,1.576,1.576v1.351a1.583,1.583,0,0,1-.46,1.136,1.49,1.49,0,0,1-1.116.478H531a1.585,1.585,0,0,1-1.576-1.576l.038-1.389a1.567,1.567,0,0,1,1.576-1.576Z" fill="#fb9d00"/>
    <path id="Path_3320" data-name="Path 3320" d="M497.484,682.117h1.652a1.571,1.571,0,0,1,1.576,1.576v1.352a1.582,1.582,0,0,1-.46,1.135,1.49,1.49,0,0,1-1.116.479h-1.689a1.585,1.585,0,0,1-1.577-1.577l.038-1.389a1.569,1.569,0,0,1,1.576-1.576Z" fill="#fb9d00"/>
  </g>
</svg>
