<svg xmlns="http://www.w3.org/2000/svg" width="124" height="33.087" viewBox="0 0 124 33.087">
  <g id="Tasq_Logo_White" data-name="Tasq Logo White" transform="translate(-415.034 -622.617)">
    <g id="Group_2828" data-name="Group 2828">
      <path id="Path_3321" data-name="Path 3321" d="M426.144,648.947h-3.153a4.618,4.618,0,0,1-3.359-1.388,4.524,4.524,0,0,1-1.408-3.341V633.99H416.61a1.535,1.535,0,0,1-1.116-.45,1.582,1.582,0,0,1,1.116-2.7h1.652v-3.866a1.559,1.559,0,0,1,2.674-1.107,1.5,1.5,0,0,1,.479,1.107v3.866h6.343a1.6,1.6,0,0,1,1.576,1.577,1.5,1.5,0,0,1-.469,1.116,1.528,1.528,0,0,1-1.107.46h-6.381v10.228a1.5,1.5,0,0,0,.479,1.107,1.566,1.566,0,0,0,1.135.47h3.078a1.657,1.657,0,0,0,1.67-1.361,1.619,1.619,0,0,1,1.6-1.361,1.507,1.507,0,0,1,1.136.46,1.6,1.6,0,0,1,.441,1.154,4.182,4.182,0,0,1-1.342,2.843A4.51,4.51,0,0,1,426.144,648.947Z" fill="#fff"/>
      <path id="Path_3322" data-name="Path 3322" d="M438.974,637.575h6.175a6.96,6.96,0,0,1,1.463.225l-.037-2.234A1.571,1.571,0,0,0,445,633.99h-5.986a1.577,1.577,0,1,1,0-3.153H445a4.557,4.557,0,0,1,3.332,1.37,4.753,4.753,0,0,1,1.435,3.359l.394,11.8a1.505,1.505,0,0,1-.469,1.117,1.531,1.531,0,0,1-1.107.459,1.577,1.577,0,0,1-1.145-.459,1.505,1.505,0,0,1-.469-1.117l-2.665,1.576h-5.33a4.741,4.741,0,0,1-4.767-4.766v-1.84a4.775,4.775,0,0,1,4.767-4.766Zm7.882,6.136-.093-1.332a1.594,1.594,0,0,0-.47-1.126,1.506,1.506,0,0,0-1.107-.451h-6.212a1.571,1.571,0,0,0-1.576,1.577v1.764a1.6,1.6,0,0,0,1.576,1.576h4.448Z" fill="#fff"/>
      <path id="Path_3323" data-name="Path 3323" d="M458.7,630.837h7.225a4.736,4.736,0,0,1,2.984,1,2.691,2.691,0,0,1,1.3,1.961,1.425,1.425,0,0,1-.479,1.108,1.549,1.549,0,0,1-1.06.431,1.834,1.834,0,0,1-1.37-.675,1.772,1.772,0,0,0-1.295-.676h-7.131q-1.051,0-1.051.882a1.011,1.011,0,0,0,.694.938l8.389,3.716A4.777,4.777,0,0,1,469,641.337a4.945,4.945,0,0,1,.817,2.768,4.629,4.629,0,0,1-1.436,3.435,4.532,4.532,0,0,1-3.256,1.407h-6.381a5.231,5.231,0,0,1-3.068-.994q-1.418-.995-1.417-1.933a1.538,1.538,0,0,1,.46-1.1,1.577,1.577,0,0,1,1.191-.479,1.924,1.924,0,0,1,1.286.676,2.706,2.706,0,0,0,1.98.676h5.874a1.486,1.486,0,0,0,1.163-.535,1.812,1.812,0,0,0,.47-1.23,1.588,1.588,0,0,0-1.051-1.538l-8.464-3.81a4.172,4.172,0,0,1-1.877-1.577,3.872,3.872,0,0,1-.657-2.1,4.115,4.115,0,0,1,1.173-2.927A3.834,3.834,0,0,1,458.7,630.837Z" fill="#fff"/>
      <path id="Path_3324" data-name="Path 3324" d="M487.03,654.09v-7.413l-1.2.994a5.13,5.13,0,0,1-3.3,1.276h-2.12a4.717,4.717,0,0,1-3.135-1.069l-1.463-1.239a3.982,3.982,0,0,1-1.079-1.511,4.642,4.642,0,0,1-.423-1.867v-6.568a4.339,4.339,0,0,1,1.389-3.472l1.145-.995a5.083,5.083,0,0,1,3.528-1.426h2.308q1.99,0,4.354,2.233v-.657a1.577,1.577,0,1,1,3.153,0V654.09a1.57,1.57,0,0,1-.46,1.144,1.561,1.561,0,0,1-2.233,0A1.574,1.574,0,0,1,487.03,654.09Zm-6.775-8.333h2.2a1.926,1.926,0,0,0,1.239-.338L486.524,643a1.872,1.872,0,0,0,.506-1.464v-3.622a1.649,1.649,0,0,0-.656-1.219l-2.384-2.121a1.775,1.775,0,0,0-1.276-.582h-2.571a1.329,1.329,0,0,0-.92.357l-1.182,1.032a1.494,1.494,0,0,0-.582,1.145v6.662a1.65,1.65,0,0,0,.657,1.22l1.032.919A1.723,1.723,0,0,0,480.255,645.757Z" fill="#fff"/>
      <path id="Path_3325" data-name="Path 3325" d="M511.015,637.575h6.174a6.958,6.958,0,0,1,1.464.225l-.038-2.234a1.571,1.571,0,0,0-1.576-1.576h-5.987a1.577,1.577,0,1,1,0-3.153h5.987a4.556,4.556,0,0,1,3.331,1.37,4.754,4.754,0,0,1,1.436,3.359l.394,11.8a1.509,1.509,0,0,1-.469,1.117,1.532,1.532,0,0,1-1.108.459,1.573,1.573,0,0,1-1.144-.459,1.506,1.506,0,0,1-.47-1.117l-2.665,1.576h-5.329a4.741,4.741,0,0,1-4.767-4.766v-1.84a4.773,4.773,0,0,1,4.767-4.766Zm7.882,6.136-.094-1.332a1.6,1.6,0,0,0-.469-1.126,1.509,1.509,0,0,0-1.108-.451h-6.211a1.571,1.571,0,0,0-1.577,1.577v1.764a1.6,1.6,0,0,0,1.577,1.576h4.447Z" fill="#fff"/>
      <path id="Path_3326" data-name="Path 3326" d="M537.457,648.91h-9.608a1.576,1.576,0,0,1,0-3.153h3.228V633.99h-3.191a1.5,1.5,0,0,1-1.116-.469,1.528,1.528,0,0,1-.46-1.107,1.583,1.583,0,0,1,.46-1.136,1.488,1.488,0,0,1,1.116-.478h4.8a1.49,1.49,0,0,1,1.116.478,1.583,1.583,0,0,1,.46,1.136v13.343h3.153a1.58,1.58,0,0,1,1.135.46,1.49,1.49,0,0,1,.479,1.116,1.508,1.508,0,0,1-.469,1.117A1.529,1.529,0,0,1,537.457,648.91Z" fill="#fff"/>
      <path id="Path_3327" data-name="Path 3327" d="M531.039,622.617h1.652a1.571,1.571,0,0,1,1.576,1.577v1.351a1.58,1.58,0,0,1-.46,1.135,1.49,1.49,0,0,1-1.116.479H531a1.5,1.5,0,0,1-1.135-.488,1.483,1.483,0,0,1-.441-1.089l.038-1.388a1.569,1.569,0,0,1,1.576-1.577Z" fill="#fb9d00"/>
      <path id="Path_3328" data-name="Path 3328" d="M497.484,645.719h1.652a1.571,1.571,0,0,1,1.576,1.577v1.351a1.584,1.584,0,0,1-.46,1.136,1.49,1.49,0,0,1-1.116.478h-1.689a1.5,1.5,0,0,1-1.136-.488,1.482,1.482,0,0,1-.441-1.088l.038-1.389a1.569,1.569,0,0,1,1.576-1.577Z" fill="#fb9d00"/>
    </g>
  </g>
</svg>
