<svg xmlns="http://www.w3.org/2000/svg" xmlns:xlink="http://www.w3.org/1999/xlink" width="32" height="32" viewBox="0 0 32 32">
  <defs>
    <linearGradient id="linear-gradient" x1="0.5" x2="0.5" y2="0.88" gradientUnits="objectBoundingBox">
      <stop offset="0" stop-color="#5e43f7"/>
      <stop offset="1" stop-color="#5b4c9d"/>
    </linearGradient>
    <linearGradient id="linear-gradient-2" x1="0.5" x2="0.5" y2="0.88" gradientUnits="objectBoundingBox">
      <stop offset="0" stop-color="#5e43f7"/>
      <stop offset="1" stop-color="#3d2d87"/>
    </linearGradient>
    <linearGradient id="linear-gradient-3" x1="0.5" x2="0.5" y2="1" gradientUnits="objectBoundingBox">
      <stop offset="0" stop-color="#f0990c"/>
      <stop offset="1" stop-color="#f76d43"/>
    </linearGradient>
  </defs>
  <g id="Retail" transform="translate(-0.464 0.104)">
    <rect id="Rectangle_3852" data-name="Rectangle 3852" width="32" height="32" transform="translate(0.463 -0.104)" fill="none"/>
    <g id="Group_4254" data-name="Group 4254" transform="translate(6.208 6.847)">
      <rect id="Rectangle_3853" data-name="Rectangle 3853" width="19.649" height="2.807" rx="1" transform="translate(0 7.018)" fill="url(#linear-gradient)"/>
      <path id="Path_3698" data-name="Path 3698" d="M5.207,42.081a1.58,1.58,0,0,0,1.559,1.367H19.048a1.58,1.58,0,0,0,1.559-1.367L21.684,34H4.13Zm11.167-6.226a.311.311,0,0,1,.312-.28h1.89a.322.322,0,0,1,.236.1.316.316,0,0,1,.076.246l-.63,5.669a.311.311,0,0,1-.312.28h-1.89a.322.322,0,0,1-.236-.1.316.316,0,0,1-.076-.246Zm-4.727.035a.316.316,0,0,1,.315-.315h1.89a.316.316,0,0,1,.315.315v5.669a.316.316,0,0,1-.315.315h-1.89a.316.316,0,0,1-.315-.315ZM7,35.679a.322.322,0,0,1,.236-.1h1.89a.311.311,0,0,1,.312.28l.63,5.669a.316.316,0,0,1-.076.246.322.322,0,0,1-.236.1H7.868a.311.311,0,0,1-.312-.28l-.63-5.669A.316.316,0,0,1,7,35.679Z" transform="translate(-3.082 -23.546)" fill="url(#linear-gradient-2)"/>
      <rect id="Rectangle_3855" data-name="Rectangle 3855" width="7.018" height="2.807" rx="1" transform="translate(6.316 0)" stroke="rgba(0,0,0,0)" stroke-miterlimit="10" stroke-width="1" fill="url(#linear-gradient-3)"/>
      <path id="Path_3699" data-name="Path 3699" d="M47.115,4.157,47.738,8.3h1.908l-.661-4.421A2.192,2.192,0,0,0,46.806,2H46V3.89h.806A.312.312,0,0,1,47.115,4.157Z" transform="translate(-31.766 -1.623)" stroke="rgba(0,0,0,0)" stroke-miterlimit="10" stroke-width="1" fill="url(#linear-gradient-3)"/>
      <path id="Path_3700" data-name="Path 3700" d="M8.952,4.157a.312.312,0,0,1,.309-.268h.806V2H9.261A2.192,2.192,0,0,0,7.081,3.877L6.42,8.3H8.328Z" transform="translate(-4.651 -1.623)" stroke="rgba(0,0,0,0)" stroke-miterlimit="10" stroke-width="1" fill="url(#linear-gradient-3)"/>
    </g>
  </g>
</svg>
