<svg xmlns="http://www.w3.org/2000/svg" xmlns:xlink="http://www.w3.org/1999/xlink" width="32" height="32" viewBox="0 0 32 32">
  <defs>
    <clipPath id="clip-path">
      <rect id="Rectangle_3852" data-name="Rectangle 3852" width="32" height="32" transform="translate(0.464 0.364)" fill="none"/>
    </clipPath>
    <linearGradient id="linear-gradient" x1="0.5" x2="0.5" y2="1" gradientUnits="objectBoundingBox">
      <stop offset="0" stop-color="#f0990c"/>
      <stop offset="1" stop-color="#f76d43"/>
    </linearGradient>
    <linearGradient id="linear-gradient-3" x1="0.5" x2="0.5" y2="0.88" gradientUnits="objectBoundingBox">
      <stop offset="0" stop-color="#5e43f7"/>
      <stop offset="1" stop-color="#3d2d87"/>
    </linearGradient>
  </defs>
  <g id="Autonomous_vehicle_" data-name="Autonomous vehicle  " transform="translate(-0.464 -0.364)">
    <g id="Mask_Group_271" data-name="Mask Group 271" clip-path="url(#clip-path)">
      <g id="Group_4278" data-name="Group 4278" transform="translate(-0.138)">
        <rect id="Rectangle_3857" data-name="Rectangle 3857" width="6" height="4" transform="translate(5.602 16.364)" stroke="rgba(0,0,0,0)" stroke-miterlimit="10" stroke-width="1" fill="url(#linear-gradient)"/>
        <rect id="Rectangle_3858" data-name="Rectangle 3858" width="6" height="4" transform="translate(21.602 16.364)" stroke="rgba(0,0,0,0)" stroke-miterlimit="10" stroke-width="1" fill="url(#linear-gradient)"/>
      </g>
      <path id="Path_3734" data-name="Path 3734" d="M96.209,103.313a2.365,2.365,0,0,1,1.581-.606h3.01V102a4.656,4.656,0,0,0-.26-1.4l-1.39-2.63h1.134a.364.364,0,0,0,.363-.363c0-.2-.034-1.044-.234-1.044H99L97.758,93.3a2.263,2.263,0,0,0-1.964-1.358H83.806A2.279,2.279,0,0,0,81.834,93.3l-1.242,3.266H79.187a.364.364,0,0,0-.363.363c0,.2.034,1.044.234,1.044h1.128l-1.13,2.628A4.814,4.814,0,0,0,78.8,102v.7h3.01a2.372,2.372,0,0,1,2.37,2.372H78.8v3.435h.484v.861a1.666,1.666,0,0,0,1.666,1.666h0a1.666,1.666,0,0,0,1.666-1.666v-.861H96.985v.861a1.666,1.666,0,0,0,3.332,0v-.861h.483v-3.435H95.42A2.369,2.369,0,0,1,96.209,103.313ZM81.2,98.212l.391-1.025.261-.684,1.08-2.836a1.471,1.471,0,0,1,1.219-.837h11.3a1.453,1.453,0,0,1,1.211.837l1.08,2.836.261.684.391,1.025Z" transform="translate(-73.336 -85.577)" fill="url(#linear-gradient-3)"/>
    </g>
  </g>
</svg>
