<svg xmlns="http://www.w3.org/2000/svg" xmlns:xlink="http://www.w3.org/1999/xlink" width="32" height="32" viewBox="0 0 32 32">
  <defs>
    <linearGradient id="linear-gradient" x1="0.5" x2="0.5" y2="0.88" gradientUnits="objectBoundingBox">
      <stop offset="0" stop-color="#5e43f7"/>
      <stop offset="1" stop-color="#3d2d87"/>
    </linearGradient>
    <linearGradient id="linear-gradient-5" x1="0.74" y1="0.247" x2="0.172" y2="0.852" gradientUnits="objectBoundingBox">
      <stop offset="0" stop-color="#f0990c"/>
      <stop offset="1" stop-color="#f76d43"/>
    </linearGradient>
  </defs>
  <g id="DRone" transform="translate(-0.464 0.395)">
    <g id="Group_4244" data-name="Group 4244" transform="translate(5.279 6)">
      <path id="Path_3680" data-name="Path 3680" d="M13.042,16.716a5.139,5.139,0,0,1,1.2,1.933,4.328,4.328,0,1,1,4.406-4.389,5.167,5.167,0,0,1-1.935-1.219l-.55-.549a2.6,2.6,0,1,0-3.674,3.673Z" transform="translate(-10 -9.998)" fill="url(#linear-gradient)"/>
      <path id="Path_3681" data-name="Path 3681" d="M58.633,13.042a5.147,5.147,0,0,1-1.933,1.2,4.328,4.328,0,1,1,4.39,4.405,5.145,5.145,0,0,1,1.219-1.935l.549-.552a2.6,2.6,0,0,0-3.674-3.673Z" transform="translate(-44.568 -9.999)" fill="url(#linear-gradient)"/>
      <path id="Path_3682" data-name="Path 3682" d="M62.3,58.631A5.138,5.138,0,0,1,61.1,56.7a4.328,4.328,0,1,1-4.406,4.391,5.148,5.148,0,0,1,1.936,1.219l.55.548a2.6,2.6,0,1,0,3.674-3.674Z" transform="translate(-44.563 -44.566)" fill="url(#linear-gradient)"/>
      <path id="Path_3683" data-name="Path 3683" d="M16.717,62.3a5.14,5.14,0,0,1,1.933-1.2,4.328,4.328,0,1,1-4.39-4.407,5.17,5.17,0,0,1-1.219,1.936l-.549.55a2.6,2.6,0,0,0,3.674,3.674Z" transform="translate(-10 -44.562)" fill="url(#linear-gradient)"/>
      <path id="Path_3684" data-name="Path 3684" d="M35.36,34.137a6.927,6.927,0,0,1,0-9.8l1.163-1.164L35.3,21.953l-1.163,1.162a6.927,6.927,0,0,1-9.8,0l-1.164-1.162L21.95,23.177l1.163,1.164a6.927,6.927,0,0,1,0,9.793L21.95,35.3l1.224,1.224,1.164-1.162a6.926,6.926,0,0,1,9.8,0L35.3,36.525,36.523,35.3Z" transform="translate(-18.845 -18.847)" fill="url(#linear-gradient-5)"/>
    </g>
    <rect id="Rectangle_3850" data-name="Rectangle 3850" width="32" height="32" transform="translate(0.463 -0.395)" fill="none"/>
  </g>
</svg>
