<svg xmlns="http://www.w3.org/2000/svg" xmlns:xlink="http://www.w3.org/1999/xlink" width="32" height="32" viewBox="0 0 32 32">
  <defs>
    <linearGradient id="linear-gradient" x1="0.5" x2="0.5" y2="1" gradientUnits="objectBoundingBox">
      <stop offset="0" stop-color="#5e43f7"/>
      <stop offset="0.695" stop-color="#2e2077"/>
      <stop offset="1" stop-color="#3d2d87"/>
    </linearGradient>
    <linearGradient id="linear-gradient-2" x1="0.5" x2="0.5" y2="1" gradientUnits="objectBoundingBox">
      <stop offset="0" stop-color="#f0990c"/>
      <stop offset="1" stop-color="#f76d43"/>
    </linearGradient>
  </defs>
  <g id="Agriculture" transform="translate(0 0.53)">
    <path id="Path_3711" data-name="Path 3711" d="M0,0H31.138V31.138H0Z" fill="none"/>
    <g id="Group_4269" data-name="Group 4269" transform="translate(0 -0.53)">
      <path id="Path_3711-2" data-name="Path 3711" d="M0,0H32V32H0Z" fill="none"/>
      <g id="Group_4267" data-name="Group 4267" transform="translate(7.717 3.491)">
        <g id="Group_4266" data-name="Group 4266" transform="translate(0)">
          <path id="Path_3716" data-name="Path 3716" d="M697.271,375.225a5.728,5.728,0,0,0-2.025-4.153s-.694-.556-1.018-.776l-1.018.776a5.742,5.742,0,0,0-2.027,4.146c0,.02,0,.039,0,.059s0,.039,0,.059a5.733,5.733,0,0,0,2.056,4.144V394.4h1.779V379.663l.229-.181a5.728,5.728,0,0,0,2.025-4.153c0-.017,0-.035,0-.052S697.271,375.242,697.271,375.225Z" transform="translate(-686.05 -370.296)" fill="url(#linear-gradient)"/>
          <g id="Group_4268" data-name="Group 4268" transform="translate(0 7.97)">
            <path id="Path_3715" data-name="Path 3715" d="M779.4,471.912a4.465,4.465,0,0,0-3.283,1.192l-.032.032-.032.032a4.483,4.483,0,0,0-1.175,3.392l.088.836c.286.048.944.106.944.106a4.455,4.455,0,0,0,3.286-1.2l.028-.028.028-.028a4.455,4.455,0,0,0,1.2-3.286s-.058-.658-.106-.944Z" transform="translate(-764.569 -471.911)" fill="url(#linear-gradient-2)"/>
            <path id="Path_3721" data-name="Path 3721" d="M779.4,471.912a4.465,4.465,0,0,0-3.283,1.192l-.032.032-.032.032a4.483,4.483,0,0,0-1.175,3.392l.088.836c.286.048.944.106.944.106a4.455,4.455,0,0,0,3.286-1.2l.028-.028.028-.028a4.455,4.455,0,0,0,1.2-3.286s-.058-.658-.106-.944Z" transform="translate(-764.915 -465.01)" fill="url(#linear-gradient-2)"/>
            <path id="Path_3719" data-name="Path 3719" d="M775.921,471.912A4.465,4.465,0,0,1,779.2,473.1l.032.032.032.032a4.483,4.483,0,0,1,1.175,3.392l-.089.836c-.286.048-.944.106-.944.106a4.455,4.455,0,0,1-3.286-1.2l-.028-.028-.028-.028a4.454,4.454,0,0,1-1.2-3.286s.058-.658.106-.944Z" transform="translate(-774.87 -471.911)" fill="url(#linear-gradient-2)"/>
            <path id="Path_3720" data-name="Path 3720" d="M775.921,471.912A4.465,4.465,0,0,1,779.2,473.1l.032.032.032.032a4.483,4.483,0,0,1,1.175,3.392l-.089.836c-.286.048-.944.106-.944.106a4.455,4.455,0,0,1-3.286-1.2l-.028-.028-.028-.028a4.454,4.454,0,0,1-1.2-3.286s.058-.658.106-.944Z" transform="translate(-774.456 -465.01)" fill="url(#linear-gradient-2)"/>
          </g>
        </g>
      </g>
    </g>
  </g>
</svg>
