<svg xmlns="http://www.w3.org/2000/svg" xmlns:xlink="http://www.w3.org/1999/xlink" width="32" height="32" viewBox="0 0 32 32">
  <defs>
    <linearGradient id="linear-gradient" x1="0.5" x2="0.5" y2="0.88" gradientUnits="objectBoundingBox">
      <stop offset="0" stop-color="#5e43f7"/>
      <stop offset="1" stop-color="#3d2d87"/>
    </linearGradient>
    <linearGradient id="linear-gradient-3" x1="0.74" y1="0.247" x2="0.172" y2="0.852" gradientUnits="objectBoundingBox">
      <stop offset="0" stop-color="#f0990c"/>
      <stop offset="1" stop-color="#f76d43"/>
    </linearGradient>
  </defs>
  <g id="Sport" transform="translate(-0.464 0.459)">
    <rect id="Rectangle_3850" data-name="Rectangle 3850" width="32" height="32" transform="translate(0.463 -0.459)" fill="none"/>
    <g id="Group_4253" data-name="Group 4253" transform="translate(6.623 7.216)">
      <path id="Path_3690" data-name="Path 3690" d="M5.179,4.48A9.321,9.321,0,0,0,2,11.49a9.122,9.122,0,0,0,.326,2.433,12.4,12.4,0,0,0,3.906-.438A14.046,14.046,0,0,1,5.179,4.48Z" transform="translate(-2 -2.168)" fill="url(#linear-gradient)"/>
      <path id="Path_3691" data-name="Path 3691" d="M10.462,11.172A12.227,12.227,0,0,1,9.026,2.41a7.331,7.331,0,0,0-.988.354H8.029a11.6,11.6,0,0,0,.28,9.881A9.819,9.819,0,0,0,10.462,11.172Z" transform="translate(-2.342 -2.028)" fill="url(#linear-gradient)"/>
      <path id="Path_3692" data-name="Path 3692" d="M14.269,14.088a10.227,10.227,0,0,0-2.6-.988A12.281,12.281,0,0,1,3.13,16.372a8.9,8.9,0,0,0,.746,1.2C9.543,18.255,12.349,16.064,14.269,14.088Z" transform="translate(-2.077 -2.753)" fill="url(#linear-gradient-3)"/>
      <path id="Path_3693" data-name="Path 3693" d="M16.044,15.29A12.938,12.938,0,0,1,6.1,19.727H6.07A9.312,9.312,0,0,0,18.645,18.32,12.141,12.141,0,0,0,16.044,15.29Z" transform="translate(-2.276 -2.902)" fill="url(#linear-gradient-3)"/>
      <path id="Path_3694" data-name="Path 3694" d="M21.246,11.294A9.337,9.337,0,0,0,11.925,2c-.224,0-.447.009-.662.028a12.008,12.008,0,0,0-.345,3.7C14.171,5.747,17.546,6.148,21.246,11.294Z" transform="translate(-2.603 -2)" fill="url(#linear-gradient-3)"/>
      <path id="Path_3695" data-name="Path 3695" d="M11.26,8.01a10.844,10.844,0,0,0,1.286,2.908,12.192,12.192,0,0,1,7.588,5.267,8.973,8.973,0,0,0,.736-1.743C17.375,8.672,14.439,8.057,11.26,8.01Z" transform="translate(-2.628 -2.408)" fill="url(#linear-gradient-3)"/>
    </g>
  </g>
</svg>
