<svg xmlns="http://www.w3.org/2000/svg" xmlns:xlink="http://www.w3.org/1999/xlink" width="32" height="32" viewBox="0 0 32 32">
  <defs>
    <clipPath id="clip-path">
      <rect id="Rectangle_3846" data-name="Rectangle 3846" width="32" height="32" transform="translate(46 239)" fill="#fff"/>
    </clipPath>
    <clipPath id="clip-path-2">
      <rect id="Rectangle_3848" data-name="Rectangle 3848" width="26" height="26" transform="translate(0.146 0.146)" fill="none"/>
    </clipPath>
    <linearGradient id="linear-gradient" x1="0.74" y1="0.247" x2="0.172" y2="0.852" gradientUnits="objectBoundingBox">
      <stop offset="0" stop-color="#f0990c"/>
      <stop offset="1" stop-color="#f76d43"/>
    </linearGradient>
    <linearGradient id="linear-gradient-2" x1="0.5" x2="0.5" y2="1" gradientUnits="objectBoundingBox">
      <stop offset="0" stop-color="#5e43f7"/>
      <stop offset="1" stop-color="#3c2d83"/>
    </linearGradient>
  </defs>
  <g id="Why_Tasq" data-name="Why Tasq" transform="translate(-46 -239)" clip-path="url(#clip-path)">
    <g id="Group_4239" data-name="Group 4239" transform="translate(-365.646 -262.646)">
      <g id="Group_4243" data-name="Group 4243" transform="translate(414.5 504.5)">
        <g id="Group_4242" data-name="Group 4242" clip-path="url(#clip-path-2)">
          <g id="Mask_Group_262" data-name="Mask Group 262" transform="translate(6.144 4.694)">
            <g id="Group_4228" data-name="Group 4228">
              <g id="Group_4206" data-name="Group 4206">
                <circle id="Ellipse_1002" data-name="Ellipse 1002" cx="7.004" cy="7.004" r="7.004" fill="url(#linear-gradient)"/>
              </g>
              <g id="Group_4228-2" data-name="Group 4228-2" transform="translate(0.972 1.325)">
                <g id="Group_4229" data-name="Group 4229">
                  <path id="Path_3661" data-name="Path 3661" d="M430.044,522.668h-6.032v-1.416a6.031,6.031,0,1,1,6.032,0Zm-4.82-1.205h3.622v-.944l.334-.165a4.82,4.82,0,1,0-4.288,0l.334.165Z" transform="translate(-420.995 -509.995)" fill="none"/>
                  <path id="Rectangle_3835" data-name="Rectangle 3835" d="M424.35,522.115h4.827a.6.6,0,0,1,.6.6h0a.6.6,0,0,1-.6.6h-4.826a.6.6,0,0,1-.6-.6h0A.6.6,0,0,1,424.35,522.115Z" transform="translate(-420.732 -508.837)" fill="url(#linear-gradient-2)"/>
                  <path id="Rectangle_3838" data-name="Rectangle 3838" d="M424.35,523.824h4.827a.6.6,0,0,1,.6.6h0a.6.6,0,0,1-.6.6h-4.826a.6.6,0,0,1-.6-.6h0A.6.6,0,0,1,424.35,523.824Z" transform="translate(-420.732 -508.674)" fill="url(#linear-gradient-2)"/>
                </g>
              </g>
            </g>
          </g>
        </g>
      </g>
      <g id="Group_4231" data-name="Group 4231" transform="translate(417.314 505.759)">
        <g id="Group_4230" data-name="Group 4230">
          <path id="Line_49" data-name="Line 49" d="M426.564,508.023a.477.477,0,0,1-.477-.475v-1.423a.476.476,0,0,1,.477-.475h0a.475.475,0,0,1,.478.473v1.425a.476.476,0,0,1-.477.475Z" transform="translate(-416.208 -505.649)" fill="url(#linear-gradient-2)"/>
          <path id="Line_50" data-name="Line 50" d="M424.6,508.282a.476.476,0,0,1-.459-.353l-.374-1.374a.476.476,0,0,1,.337-.583h0a.477.477,0,0,1,.583.336l.367,1.378a.476.476,0,0,1-.342.58A.436.436,0,0,1,424.6,508.282Z" transform="translate(-416.431 -505.62)" fill="url(#linear-gradient-2)"/>
          <path id="Line_51" data-name="Line 51" d="M422.766,509.039a.472.472,0,0,1-.412-.237l-.712-1.232a.476.476,0,0,1,.824-.477l.712,1.232a.478.478,0,0,1-.175.651A.483.483,0,0,1,422.766,509.039Z" transform="translate(-416.638 -505.534)" fill="url(#linear-gradient-2)"/>
          <path id="Line_52" data-name="Line 52" d="M421.194,510.248a.475.475,0,0,1-.34-.139l-1.006-1.007a.475.475,0,0,1,0-.673h0a.475.475,0,0,1,.673,0h0l1.006,1.006a.477.477,0,0,1-.333.813Z" transform="translate(-416.817 -505.397)" fill="url(#linear-gradient-2)"/>
          <path id="Line_53" data-name="Line 53" d="M419.984,511.821a.477.477,0,0,1-.238-.064l-1.232-.712a.476.476,0,0,1,.477-.824l1.232.712a.476.476,0,0,1-.239.887Z" transform="translate(-416.954 -505.218)" fill="url(#linear-gradient-2)"/>
          <path id="Line_54" data-name="Line 54" d="M419.226,513.653a.473.473,0,0,1-.124-.016l-1.375-.369a.476.476,0,0,1,.246-.919l1.379.369a.476.476,0,0,1-.124.936Z" transform="translate(-417.04 -505.011)" fill="url(#linear-gradient-2)"/>
          <path id="Line_55" data-name="Line 55" d="M418.967,515.621h-1.423a.475.475,0,0,1-.475-.475v0a.476.476,0,0,1,.475-.477h1.423a.477.477,0,0,1,.477.477h0a.476.476,0,0,1-.474.478Z" transform="translate(-417.069 -504.788)" fill="url(#linear-gradient-2)"/>
          <path id="Line_56" data-name="Line 56" d="M417.85,517.985a.477.477,0,0,1-.123-.937h0l1.378-.367a.475.475,0,0,1,.247.918l-1.379.369A.467.467,0,0,1,417.85,517.985Z" transform="translate(-417.04 -504.597)" fill="url(#linear-gradient-2)"/>
          <path id="Line_57" data-name="Line 57" d="M418.752,520.19a.476.476,0,0,1-.239-.887l1.233-.712a.476.476,0,0,1,.477.824l-1.233.712A.477.477,0,0,1,418.752,520.19Z" transform="translate(-416.954 -504.419)" fill="url(#linear-gradient-2)"/>
          <path id="Line_58" data-name="Line 58" d="M434.48,520.19a.477.477,0,0,1-.238-.064l-1.232-.712a.476.476,0,0,1,.477-.824l1.232.712a.476.476,0,0,1-.239.887Z" transform="translate(-415.569 -504.419)" fill="url(#linear-gradient-2)"/>
          <path id="Line_59" data-name="Line 59" d="M435.394,517.986a.427.427,0,0,1-.124-.018L433.9,517.6a.476.476,0,0,1,.245-.92h0l1.378.368a.476.476,0,0,1-.123.936Z" transform="translate(-415.496 -504.597)" fill="url(#linear-gradient-2)"/>
          <path id="Line_60" data-name="Line 60" d="M435.705,515.621h-1.422a.476.476,0,0,1-.477-.475v0a.477.477,0,0,1,.477-.477h1.422a.476.476,0,0,1,.475.477h0a.475.475,0,0,1-.473.478Z" transform="translate(-415.47 -504.788)" fill="url(#linear-gradient-2)"/>
          <path id="Line_61" data-name="Line 61" d="M434.018,513.654a.476.476,0,0,1-.122-.937h0l1.378-.368a.475.475,0,1,1,.247.918l-1.378.369A.476.476,0,0,1,434.018,513.654Z" transform="translate(-415.496 -505.011)" fill="url(#linear-gradient-2)"/>
          <path id="Line_62" data-name="Line 62" d="M433.248,511.822a.477.477,0,0,1-.239-.888l1.232-.712a.477.477,0,0,1,.651.173h0a.476.476,0,0,1-.173.65l-1.233.712A.49.49,0,0,1,433.248,511.822Z" transform="translate(-415.569 -505.218)" fill="url(#linear-gradient-2)"/>
          <path id="Line_63" data-name="Line 63" d="M432.022,510.249a.476.476,0,0,1-.336-.813h0l1-1.006a.476.476,0,0,1,.674,0h0a.475.475,0,0,1,0,.673h0l-1.006,1.007A.479.479,0,0,1,432.022,510.249Z" transform="translate(-415.686 -505.397)" fill="url(#linear-gradient-2)"/>
          <path id="Line_64" data-name="Line 64" d="M430.422,509.04a.465.465,0,0,1-.238-.062.475.475,0,0,1-.174-.65h0l.711-1.232a.476.476,0,0,1,.824.477l-.711,1.232A.472.472,0,0,1,430.422,509.04Z" transform="translate(-415.839 -505.534)" fill="url(#linear-gradient-2)"/>
          <path id="Line_65" data-name="Line 65" d="M428.562,508.283a.475.475,0,0,1-.459-.6l.367-1.378a.476.476,0,0,1,.919.249l-.368,1.379A.476.476,0,0,1,428.562,508.283Z" transform="translate(-416.017 -505.62)" fill="url(#linear-gradient-2)"/>
        </g>
      </g>
    </g>
  </g>
</svg>
