<svg width="40" height="40" viewBox="0 0 40 40" fill="none" xmlns="http://www.w3.org/2000/svg"><path d="M17.9361 10.0003C17.7026 9.99193 17.503 10.1835 17.503 10.4252V12.0763C17.503 12.3097 17.6864 12.4931 17.9198 12.4931V12.5094C23.1135 12.7095 27.2905 16.8865 27.4906 22.0802H27.5069C27.5069 22.3136 27.6903 22.497 27.9237 22.497H29.5748C29.8165 22.497 30.0081 22.2974 29.9997 22.0639C29.7746 15.5114 24.4886 10.2254 17.9361 10.0003ZM17.9361 14.1686C17.7026 14.1602 17.503 14.3601 17.503 14.5935V16.2446C17.503 16.478 17.6864 16.6614 17.9198 16.6614V16.6858C20.8126 16.8776 23.1224 19.1874 23.3142 22.0802H23.3386C23.3386 22.3136 23.522 22.497 23.7554 22.497H25.4065C25.6399 22.497 25.8398 22.2974 25.8314 22.0639C25.6063 17.8123 22.1877 14.3937 17.9361 14.1686ZM10.4168 14.9941C10.1834 14.9941 10 15.1775 10 15.4109V24.5812C10 27.5657 12.4343 30 15.4188 30C18.4033 30 20.8376 27.5657 20.8376 24.5812C20.8376 21.5967 18.4033 19.1624 15.4188 19.1624C15.1854 19.1624 15.002 19.3458 15.002 19.5792V22.0802C15.002 22.3136 15.1854 22.497 15.4188 22.497C16.5693 22.497 17.503 23.4307 17.503 24.5812C17.503 25.7317 16.5693 26.6654 15.4188 26.6654C14.2683 26.6654 13.3346 25.7317 13.3346 24.5812V15.4109C13.3346 15.1775 13.1512 14.9941 12.9178 14.9941H10.4168Z" fill="#0A93BA"></path></svg>