<svg width="40" height="40" viewBox="0 0 40 40" fill="none" xmlns="http://www.w3.org/2000/svg">
<rect width="40" height="40" rx="20" fill="#BCBCC0"/>
<path d="M15.8053 10C12.6082 10 10 12.6082 10 15.8053V24.2007C10 27.3918 12.6082 30 15.8053 30H24.2007C27.3918 30 30 27.3918 30 24.1947V15.8053C30 12.6082 27.3918 10 24.1947 10H15.8053ZM15.8053 11.5385H24.1947C26.5625 11.5385 28.4615 13.4375 28.4615 15.8053V24.1947C28.4615 26.5625 26.5625 28.4615 24.2007 28.4615H15.8053C13.4375 28.4615 11.5385 26.5625 11.5385 24.2007V15.8053C11.5385 13.4375 13.4375 11.5385 15.8053 11.5385ZM26.1538 13.0769C25.7272 13.0769 25.3846 13.4195 25.3846 13.8462C25.3846 14.2728 25.7272 14.6154 26.1538 14.6154C26.5805 14.6154 26.9231 14.2728 26.9231 13.8462C26.9231 13.4195 26.5805 13.0769 26.1538 13.0769ZM20 14.6154C17.0373 14.6154 14.6154 17.0373 14.6154 20C14.6154 22.9627 17.0373 25.3846 20 25.3846C22.9627 25.3846 25.3846 22.9627 25.3846 20C25.3846 17.0373 22.9627 14.6154 20 14.6154ZM20 16.1538C22.1334 16.1538 23.8462 17.8666 23.8462 20C23.8462 22.1334 22.1334 23.8462 20 23.8462C17.8666 23.8462 16.1538 22.1334 16.1538 20C16.1538 17.8666 17.8666 16.1538 20 16.1538Z" fill="white"/>
</svg>
