<svg width="40" height="40" viewBox="0 0 40 40" fill="none" xmlns="http://www.w3.org/2000/svg">
<rect width="40" height="40" rx="20" fill="#BCBCC0"/>
<path d="M26.6667 10H13.3333C11.4925 10 10 11.4925 10 13.3333V26.6667C10 28.5075 11.4925 30 13.3333 30H26.6667C28.5075 30 30 28.5075 30 26.6667V13.3333C30 11.4925 28.5075 10 26.6667 10ZM16.6667 26.25H14.5833V17.9167H16.6667V26.25ZM16.6787 16.2538C16.4092 16.5288 16.0575 16.6667 15.625 16.6667C15.1975 16.6667 14.8479 16.5246 14.5754 16.2404C14.3029 15.9562 14.1667 15.6075 14.1667 15.195C14.1667 14.77 14.3029 14.4233 14.5754 14.1542C14.8479 13.8846 15.1975 13.75 15.625 13.75C16.0575 13.75 16.4092 13.8846 16.6787 14.1537C16.9483 14.4229 17.0833 14.77 17.0833 15.195C17.0833 15.6258 16.9483 15.9788 16.6787 16.2538ZM26.25 26.25H24.1667V21.6196C24.1667 20.3283 23.4225 19.5833 22.5 19.5833C22.0554 19.5833 21.5525 19.8533 21.2646 20.1954C20.9767 20.5375 20.8333 20.9713 20.8333 21.4975V26.25H18.75V17.9167H20.8333V19.235H20.8658C21.4792 18.2204 22.3713 17.7167 23.5433 17.7133C25.2083 17.7083 26.25 18.9583 26.25 21.1475V26.25Z" fill="white"/>
</svg>
