<svg width="98" height="17" viewBox="0 0 98 17" fill="none" xmlns="http://www.w3.org/2000/svg">
<g clip-path="url(#clip0_1130_62)">
<path fill-rule="evenodd" clip-rule="evenodd" d="M2.66189 16.9329C2.61543 16.9305 2.5545 16.9279 2.48257 16.9248L2.48247 16.9248C2.2501 16.9148 1.90291 16.8998 1.55716 16.8732C0.439994 16.7837 -0.0974426 16.1422 0.0145233 15.0705C0.10548 14.207 0.233632 13.3478 0.361748 12.4889L0.36175 12.4888C0.450919 11.891 0.54007 11.2933 0.616651 10.6943C0.661437 10.3388 0.815701 10.2418 1.15409 10.1821C3.15206 9.84146 3.46058 10.1374 3.1645 12.1489C3.06995 12.7954 2.9754 13.4444 2.8908 14.0933C2.85846 14.3469 2.87339 14.608 3.19187 14.6702C3.54269 14.7398 3.75916 14.5409 3.80643 14.2226C4.03037 12.768 4.23937 11.3085 4.44091 9.85141C4.5056 9.37898 4.24435 9.1552 3.79648 9.1726C3.18689 9.19747 2.92812 8.93142 3.11473 8.36201C3.16945 8.1958 3.17167 7.99524 3.1739 7.79375C3.17936 7.29898 3.18489 6.79868 3.96816 6.78808C4.80666 6.77813 5.02313 6.35046 5.10524 5.65922C5.20228 4.84615 5.33166 4.03804 5.47348 3.23243C5.53569 2.87935 5.57052 2.53621 5.12266 2.47654C4.77183 2.4293 4.63498 2.71275 4.58771 3.02108C4.5581 3.21104 4.52728 3.40076 4.49646 3.59047L4.49646 3.59048C4.42884 4.00664 4.36124 4.42273 4.30655 4.84117C4.22693 5.4429 3.99304 5.74376 3.28393 5.74625C3.24263 5.74653 3.20227 5.74683 3.16284 5.74712C2.3346 5.75328 1.91425 5.7564 1.71881 5.5483C1.5174 5.33384 1.55485 4.89506 1.63089 4.00408L1.63181 3.99329C1.92292 0.556983 3.88854 -0.698685 7.26245 0.370497C7.9442 0.58682 8.35971 1.00455 8.33732 1.68833C8.2776 3.36421 8.15817 5.0376 7.61825 6.64635C7.53117 6.90743 7.36446 7.171 7.1679 7.36245C7.12443 7.40474 7.07967 7.44593 7.03557 7.4865C6.69846 7.79668 6.40004 8.07125 7.01612 8.52861C7.17536 8.64796 7.25498 8.98612 7.23508 9.21239C7.20888 9.50871 7.18478 9.80554 7.16066 10.1025C7.0061 12.0054 6.85124 13.9121 6.14528 15.7145C5.73722 16.7563 5.0928 16.9354 2.66189 16.9304V16.9329ZM12.4897 0.315782C16.1821 0.315782 16.2368 0.363024 15.7865 4.09273C15.5999 5.63434 15.3809 7.17596 15.0724 8.69519C14.6967 10.5402 14.1841 10.9927 12.2906 10.9529C11.2481 10.9305 10.9396 11.3308 10.8426 12.2459C10.7867 12.7716 10.6989 13.295 10.6111 13.8183L10.6111 13.8184C10.4955 14.5078 10.3799 15.197 10.3375 15.891C10.2877 16.7215 9.97419 16.9751 9.20287 16.8782C8.91922 16.8434 8.62314 16.8483 8.337 16.8782C7.61793 16.9478 7.35419 16.821 7.49353 15.9532C8.0953 12.2376 8.63933 8.51385 9.18338 4.78986L9.18338 4.78984C9.30742 3.9408 9.43146 3.09176 9.55619 2.2428L9.56067 2.21216C9.83729 0.323215 9.83765 0.320755 11.7457 0.320755H12.4897V0.315782ZM11.4282 8.22264L11.4281 8.22268C11.3796 8.50408 11.3299 8.79216 11.798 8.79216C12.3329 8.79216 12.4449 8.37941 12.5046 7.95173C12.5587 7.56426 12.6122 7.17664 12.6658 6.78897L12.6659 6.78807C12.8244 5.6411 12.983 4.4938 13.154 3.34928L13.1631 3.2914C13.2211 2.92355 13.2769 2.56979 12.7733 2.4989C12.2875 2.43098 12.2692 2.75312 12.2523 3.04874C12.2482 3.12104 12.2442 3.19176 12.2334 3.25479C12.0299 4.45095 11.8388 5.64847 11.6478 6.84533L11.6478 6.84534L11.6475 6.84688C11.5817 7.2592 11.5159 7.67144 11.4497 8.08352V8.086C11.444 8.1305 11.4361 8.17648 11.4282 8.22264ZM19.2441 16.0017C19.2459 15.891 19.2478 15.7804 19.2503 15.6697L19.2528 15.6673C19.1154 15.5741 19.1514 15.3831 19.1871 15.1937C19.2419 14.9029 19.2959 14.6158 18.7203 14.6926C17.7151 14.8268 17.6753 14.327 17.7947 13.5513C18.4068 9.55053 18.994 5.54483 19.5638 1.53913C19.578 1.43883 19.6212 1.32649 19.6655 1.21127C19.8067 0.843773 19.9592 0.446993 19.2204 0.318269C17.5932 0.0348117 16.9438 0.300864 16.7995 1.28302C16.6903 2.02136 16.5815 2.75969 16.4727 3.49799C15.9438 7.08593 15.415 10.673 14.8537 14.2549C14.6465 15.578 14.5343 16.2319 14.81 16.555C15.0803 16.8719 15.7236 16.8707 17.0159 16.8707C17.1435 16.8707 17.2718 16.8657 17.4001 16.8607C17.6871 16.8496 17.974 16.8385 18.2525 16.8831C18.6844 16.9526 18.8969 16.7137 19.1165 16.4668C19.1563 16.4221 19.1963 16.3771 19.2378 16.3336C19.2403 16.223 19.2422 16.1123 19.2441 16.0017Z" fill="#B67B49"/>
<path fill-rule="evenodd" clip-rule="evenodd" d="M92.8068 16.9837C92.8923 16.9893 92.9726 16.9947 93.046 17L93.0485 16.9975C95.9173 17.005 96.4398 16.5798 96.9026 13.9093C96.9491 13.6386 96.9785 13.3637 97.0079 13.0891V13.0891V13.089V13.089V13.0889V13.0888V13.0888V13.0887V13.0887V13.0886V13.0885C97.0573 12.6271 97.1066 12.1666 97.236 11.7287C97.9004 9.49086 97.4077 7.80503 95.1037 6.8552C94.7206 6.69607 94.3448 6.4325 94.3996 5.94764C94.5165 4.93316 94.6608 3.92116 94.8375 2.91663C94.8873 2.6456 95.0888 2.36712 95.457 2.47901C95.7581 2.57101 95.7457 2.84949 95.7158 3.09317C95.6713 3.44665 95.621 3.79908 95.5708 4.15143L95.5707 4.152L95.5706 4.15255L95.5706 4.1531C95.5113 4.56853 95.4521 4.98385 95.4023 5.40061C95.3976 5.43777 95.3905 5.47739 95.3831 5.51798L95.3831 5.51808L95.3831 5.51819L95.3831 5.51829C95.3398 5.75743 95.2905 6.03042 95.7009 6.03466C95.8887 6.03655 96.0796 6.04594 96.2711 6.05535C96.8356 6.08309 97.4043 6.11103 97.9078 5.94764C98.235 5.84174 98.2331 5.49804 98.2312 5.13701C98.23 4.91316 98.2288 4.68265 98.3059 4.49803C98.3468 4.40132 98.3635 4.29532 98.3801 4.18968L98.3801 4.18956L98.388 4.13997C98.9802 0.49232 97.97 -0.455025 94.2403 0.248646C94.2034 0.255561 94.1671 0.26675 94.1305 0.278003C94.0881 0.291028 94.0455 0.304138 94.0015 0.310808C92.9689 0.472428 92.3966 1.11891 92.2125 2.08615C91.9438 3.491 91.7124 4.90332 91.5034 6.31812C91.3591 7.30525 91.7423 8.06362 92.6355 8.57087C92.9465 8.74715 93.2431 8.94651 93.5402 9.14622L93.5404 9.14634L93.5405 9.14642C93.7211 9.26778 93.9018 9.38926 94.0861 9.50578C94.3772 9.68978 94.6758 9.91356 94.631 10.2666C94.4618 11.6044 94.2503 12.9346 94.0363 14.2649C93.9866 14.5682 93.8049 14.8194 93.4491 14.7448C93.1331 14.6752 93.1605 14.3743 93.1879 14.1406C93.2382 13.6941 93.2958 13.2486 93.3534 12.803L93.3536 12.8021L93.3536 12.8018C93.4269 12.2353 93.5001 11.6686 93.5586 11.0996C93.5679 11.0076 93.6028 10.8959 93.6388 10.7806C93.7479 10.4315 93.8677 10.0484 93.3197 10.0727C93.0985 10.0822 92.8459 10.0323 92.5882 9.98147C91.9042 9.84643 91.1844 9.70431 90.9187 10.6471C90.533 12.0146 90.3962 13.4593 90.2618 14.8815C90.1225 16.366 90.5305 16.7737 92.0334 16.9229C92.3029 16.9502 92.5737 16.9682 92.8068 16.9837ZM40.0238 11.1319C40.2029 10.1647 40.0785 9.34415 39.138 8.64794C39.9193 8.33713 40.2776 7.83984 40.4567 7.23314C40.9792 5.4578 41.2405 3.64268 41.1957 1.79026C41.1708 0.805616 40.489 0.432646 39.6381 0.38043C39.041 0.343133 38.4419 0.338782 37.8429 0.33443C37.2439 0.330079 36.6449 0.325728 36.0477 0.288431C35.2689 0.241188 35.0027 0.489835 34.8908 1.2855C34.2364 5.98245 33.5223 10.6694 32.7982 15.3564L32.7787 15.4817L32.7787 15.4817L32.7787 15.4817L32.7787 15.4817L32.7787 15.4817L32.7787 15.4817L32.7787 15.4817L32.7787 15.4818L32.7787 15.4818L32.7787 15.4818C32.6747 16.149 32.6237 16.476 32.7634 16.6488C32.8977 16.815 33.208 16.8387 33.8166 16.8854L33.8172 16.8854L33.8193 16.8856C33.8992 16.8917 33.9842 16.8982 34.0746 16.9055C35.2217 16.9975 35.5501 16.5276 35.6571 15.5305C35.8213 13.9839 36.0477 12.4448 36.3115 10.9131C36.3229 10.8462 36.3223 10.7607 36.3217 10.6695C36.3194 10.3438 36.3166 9.94511 36.8589 10.0578C37.3309 10.1563 37.2599 10.5571 37.1977 10.9084C37.1861 10.9738 37.1748 11.0374 37.1674 11.0971C36.9882 12.5169 36.8066 13.9367 36.5827 15.349L36.5705 15.4257C36.4591 16.125 36.4036 16.4736 36.5521 16.656C36.6998 16.8373 37.049 16.8544 37.7453 16.8886L37.9362 16.898C38.8743 16.9453 39.2201 16.6469 39.3196 15.7394C39.4888 14.1953 39.7401 12.6586 40.0238 11.1319ZM36.8688 7.03863C36.8873 6.93796 36.9058 6.83729 36.8837 6.75325V6.75076C36.9381 6.38793 36.9927 6.02551 37.0472 5.66333L37.0475 5.66141L37.0477 5.66006C37.1802 4.77988 37.3125 3.90109 37.4411 3.02106C37.4884 2.70279 37.6078 2.47404 37.9785 2.51382C38.3418 2.5536 38.4463 2.78733 38.4015 3.11555C38.3543 3.45344 38.3082 3.79169 38.262 4.13C38.1329 5.07629 38.0038 6.02314 37.8516 6.9646C37.7994 7.30027 37.5431 7.57627 37.1599 7.52406C36.7889 7.47473 36.8288 7.25666 36.8688 7.03863ZM43.7812 16.9925C40.8949 17.0547 40.5118 16.6395 40.8626 13.8273C40.8943 13.5752 40.9318 13.3231 40.9693 13.0709L40.9694 13.0707V13.0707V13.0706V13.0706V13.0706V13.0706V13.0706V13.0706V13.0705V13.0705C41.0525 12.512 41.1356 11.9531 41.1562 11.393C41.1935 10.3561 41.5344 9.89366 42.7038 9.98566C42.7927 9.99263 42.8764 9.9989 42.9553 10.0048C43.5779 10.0514 43.899 10.0754 44.0369 10.2468C44.1837 10.4294 44.1225 10.7794 43.996 11.5023L43.9877 11.5497C43.8687 12.2347 43.771 12.9247 43.6733 13.6143L43.6733 13.6144L43.6732 13.6156L43.673 13.6168L43.6728 13.618L43.6726 13.6192L43.6725 13.6204L43.6723 13.6216L43.6721 13.6228C43.6497 13.7814 43.6272 13.9399 43.6045 14.0983C43.5597 14.3991 43.5796 14.7249 43.9529 14.7647C44.3037 14.8044 44.4505 14.5086 44.5002 14.2102C44.6678 13.1831 44.8269 12.1527 44.986 11.1231L44.986 11.123L44.986 11.1229L44.986 11.1228L44.986 11.1226L44.9861 11.1225L44.9861 11.1224L44.9861 11.1223L44.9861 11.1222L44.9861 11.1221L45.0899 10.4506C45.1671 9.9608 44.866 9.70966 44.4903 9.48091C43.928 9.14026 43.3756 8.78221 42.8282 8.41421C42.1938 7.98903 41.8678 7.33757 41.9474 6.62395C42.1166 5.12213 42.358 3.62776 42.6441 2.14334C42.8606 1.02194 43.6045 0.415239 44.764 0.221295C48.3021 -0.370485 49.1605 0.377942 48.8296 3.84408C48.8222 3.92582 48.8184 4.00757 48.8147 4.089C48.811 4.17106 48.8072 4.2528 48.7997 4.33392C48.6554 5.93272 47.6079 6.58168 46.0976 6.04958C45.7382 5.92233 45.7823 5.70189 45.824 5.49317C45.8328 5.44903 45.8415 5.40541 45.8463 5.36331C45.9359 4.63229 46.0553 3.90624 46.1822 3.18019C46.237 2.87187 46.2469 2.56355 45.9036 2.46409C45.5527 2.36215 45.3786 2.61825 45.3263 2.93155C45.2952 3.1147 45.2637 3.29785 45.2321 3.48103L45.2321 3.48117L45.2321 3.4813L45.232 3.48143L45.232 3.48157L45.232 3.4817L45.232 3.48183L45.232 3.48197L45.2319 3.4821L45.2319 3.48224C45.0969 4.26607 44.9618 5.05051 44.861 5.83823C44.782 6.44938 45.2264 6.70079 45.6461 6.93825L45.6462 6.93827L45.6463 6.93836C45.7286 6.9849 45.8099 7.0309 45.8861 7.07898C48.0533 8.43659 48.1429 8.6181 47.7398 11.1717C47.659 11.6862 47.5875 12.2032 47.5159 12.7203L47.5159 12.7205C47.464 13.0955 47.412 13.4705 47.3566 13.8447C46.9635 16.5077 46.4758 16.9353 43.7837 16.9925H43.7812ZM67.0526 0.177197C66.9499 0.179354 66.8471 0.181512 66.7443 0.181512L66.7344 0.183999C64.1816 0.166594 63.5919 0.574375 63.1241 2.73014C63.0182 3.21997 62.9524 3.71757 62.8866 4.21547C62.8612 4.40755 62.8358 4.59968 62.8081 4.79143C62.6752 5.70061 62.5412 6.60961 62.4072 7.51858L62.4072 7.51869V7.51873L62.4072 7.51879L62.4072 7.51885L62.4072 7.51894L62.4072 7.51902L62.4072 7.51911L62.4071 7.5192C62.0519 9.92866 61.6967 12.3379 61.3625 14.7497C61.156 16.2416 61.5666 16.7414 62.9823 16.9155C63.8482 17.0199 64.7115 16.9776 65.5799 16.9204C66.7866 16.8409 67.4958 16.2441 67.7147 15.0904C67.9362 13.9242 68.1476 12.7581 68.3119 11.5845C68.3392 11.3895 68.3649 11.2159 68.3878 11.0613C68.4927 10.3533 68.5384 10.0447 68.4069 9.91279C68.3053 9.81091 68.098 9.81446 67.7306 9.82075C67.4949 9.82478 67.1933 9.82994 66.8115 9.80913C66.0725 9.76934 65.6819 9.91853 65.6371 10.7788C65.5999 11.5039 65.4652 12.2227 65.3306 12.9414L65.3306 12.9415L65.3306 12.9415L65.3306 12.9416L65.3305 12.9416L65.3305 12.9417L65.3305 12.9417L65.3305 12.9418L65.3305 12.9418C65.2763 13.231 65.2222 13.5202 65.1743 13.8099C65.1665 13.8576 65.1597 13.9077 65.1527 13.9588C65.1017 14.3307 65.0435 14.7547 64.5623 14.7C64.0519 14.6404 64.1373 14.2355 64.2088 13.8961C64.2237 13.8251 64.2381 13.757 64.2463 13.6955C64.4802 11.955 64.7414 10.2144 65.0151 8.47886C65.1925 7.36173 65.3802 6.24553 65.5679 5.12969L65.5679 5.12964L65.5679 5.12956L65.5679 5.12951L65.5681 5.12862L65.5682 5.12771L65.5684 5.12679L65.5685 5.12587L65.5687 5.12496L65.5688 5.12404L65.569 5.12309L65.5691 5.12237C65.6864 4.42515 65.8036 3.72808 65.9183 3.03101C65.9681 2.73014 66.0626 2.41934 66.4184 2.45415C66.8613 2.4989 66.8613 2.8296 66.7891 3.19511C66.7045 3.62607 66.6366 4.059 66.5687 4.49204L66.5686 4.49247L66.5685 4.4929L66.5685 4.49332L66.5684 4.49375L66.5683 4.49416L66.5683 4.49457L66.5682 4.49498L66.5681 4.49538C66.5285 4.74831 66.4888 5.00128 66.4458 5.25391C66.3662 5.72883 66.4284 5.97996 67.0404 6.0272L67.1201 6.03344C69.1727 6.19414 69.1735 6.1942 69.4265 4.08527C69.4529 3.86191 69.4888 3.6397 69.5247 3.41774C69.5803 3.07385 69.6358 2.73057 69.6555 2.38453C69.7475 0.788211 69.327 0.318268 67.7346 0.186485C67.5082 0.167629 67.2806 0.172409 67.0526 0.177197ZM19.7956 15.6697C20.2341 14.8888 20.3222 14.0307 20.4101 13.1754C20.4414 12.8706 20.4726 12.5662 20.5197 12.2658C21.0845 8.6753 21.6095 5.07737 22.0922 1.47199C22.2216 0.512212 22.5948 0.174052 23.5826 0.275998C24.2597 0.3461 24.9433 0.345215 25.6272 0.34433C26.0591 0.343771 26.4911 0.343212 26.9217 0.360538C28.0413 0.405294 28.5837 1.0294 28.4867 2.12096C28.2777 4.48062 27.994 6.83531 27.4516 9.14524C27.1232 10.5426 26.4912 11.03 24.7993 10.9454C23.6622 10.8883 23.4009 11.3806 23.2964 12.3006C23.2261 12.9226 23.1363 13.5423 23.0466 14.1619C22.949 14.8352 22.8515 15.5085 22.7789 16.1844C22.7242 16.7066 22.4978 16.9975 22.0101 16.8533C21.754 16.7781 21.4678 16.8288 21.1822 16.8795C20.6465 16.9745 20.1127 17.0691 19.7832 16.3311L19.7832 16.331C19.7882 16.1097 19.7932 15.8885 19.7956 15.6673V15.6697ZM25.5606 3.39403C25.7199 2.93403 25.7199 2.61825 25.277 2.51879C24.8135 2.41427 24.7678 2.7228 24.7191 3.05193L24.7122 3.09814C24.6142 3.75353 24.5116 4.40852 24.4091 5.06359C24.2591 6.02145 24.1092 6.9795 23.9732 7.9393C23.9636 8.00866 23.9329 8.08938 23.901 8.17313C23.8004 8.43763 23.6882 8.73233 24.1947 8.79465C24.7221 8.85929 24.8988 8.44157 24.956 8.01141C25.1194 6.80815 25.274 5.60344 25.4221 4.44926L25.4221 4.44923C25.4681 4.09129 25.5134 3.73821 25.5582 3.39155L25.5606 3.39403ZM48.4693 15.5007C48.2777 16.6494 48.3723 17.1566 49.681 16.821H49.6835C50.9326 17.2437 51.1988 16.5052 51.3033 15.4683C51.3542 14.9576 51.4427 14.4507 51.5311 13.9443L51.5311 13.9442C51.6329 13.3608 51.7346 12.7781 51.7785 12.1912C51.8482 11.2811 52.1443 10.938 53.1296 10.9579C54.9136 10.9952 55.6103 10.57 55.8939 9.12535C56.3492 6.8005 56.6652 4.44581 56.9539 2.09361C57.0758 1.09902 56.5284 0.432644 55.4635 0.375455C54.974 0.350153 54.4827 0.348542 53.9915 0.346931C53.3242 0.344743 52.6571 0.342555 51.995 0.280969C50.9749 0.18897 50.6713 0.589292 50.5395 1.54658C49.9025 6.20374 49.2357 10.8609 48.4693 15.5007ZM54.0668 3.2056C54.0586 3.29689 54.0502 3.39157 54.0502 3.48603H54.0527C53.9854 3.90822 53.916 4.33905 53.8457 4.77605L53.8452 4.77874C53.6712 5.85939 53.4912 6.97767 53.3212 8.09595C53.259 8.5087 53.0898 8.85432 52.6419 8.79713C52.1579 8.73328 52.2554 8.42404 52.3412 8.15173C52.3657 8.07408 52.3893 7.99943 52.3981 7.93433C52.5308 6.93668 52.6813 5.94114 52.832 4.94497L52.832 4.94493L52.832 4.94488L52.832 4.94484L52.832 4.9448L52.832 4.94475L52.832 4.94471C52.913 4.40908 52.9941 3.87326 53.0724 3.33684C53.0821 3.27027 53.0875 3.20007 53.0928 3.12983C53.1188 2.78819 53.145 2.44534 53.6795 2.51133C54.1238 2.56634 54.0974 2.86195 54.0668 3.2056ZM82.5264 6.90727C82.3904 7.7164 82.2504 8.54835 81.8697 9.38455C81.4886 8.97943 81.5433 8.67862 81.5899 8.42174L81.5927 8.40676C82.0064 6.14781 82.1641 3.86416 82.3218 1.57929L82.3466 1.22085L82.35 1.17179C82.3848 0.673402 82.424 0.113979 81.6773 0.328212C81.4712 0.387391 81.2112 0.331387 80.95 0.275101C80.3879 0.154018 79.8198 0.0316257 79.7689 1.05177C79.6354 3.7509 79.5176 6.45003 79.3999 9.14916C79.2982 11.4802 79.1965 13.8112 79.0846 16.1422C79.0548 16.7663 79.2837 16.9329 79.856 16.8831C80.264 16.8458 80.6895 16.8235 81.0926 16.8856C81.9858 17.0199 82.354 16.6618 82.573 15.7916C83.1912 13.3202 83.83 10.8541 84.4688 8.38777L84.4689 8.3876L84.4689 8.38742L84.469 8.38724L84.469 8.38706L84.4691 8.3868L84.4691 8.38664C85.0693 6.06932 85.6696 3.75185 86.2529 1.42972C86.2715 1.35605 86.3244 1.25707 86.3821 1.14896C86.5717 0.793632 86.8141 0.339566 86.0663 0.360536C85.87 0.365803 85.6432 0.313723 85.4092 0.26C84.7594 0.110817 84.0544 -0.0510364 83.7947 0.967235C83.5981 1.73804 83.442 2.51941 83.2858 3.30079C83.1297 4.08216 82.9736 4.86353 82.777 5.63434C82.6706 6.05027 82.5991 6.47552 82.5264 6.90727ZM58.7845 14.5981C58.8709 14.6121 58.9428 14.6205 59.0045 14.6277C59.1186 14.6411 59.1974 14.6503 59.2668 14.6826C59.3954 14.7419 59.5795 14.7139 59.7622 14.6861C60.131 14.6299 60.4946 14.5745 60.3865 15.2396C60.3649 15.3736 60.3591 15.5253 60.3532 15.6815V15.6816C60.3282 16.337 60.3002 17.0707 59.0926 16.898C58.284 16.7812 57.4355 16.8185 56.6169 16.8931C55.7934 16.9677 55.6491 16.6618 55.766 15.9258C56.2154 13.1067 56.6413 10.2826 57.0672 7.45894L57.0676 7.45577L57.0681 7.4526L57.0686 7.44943L57.069 7.44679C57.1612 6.83514 57.2535 6.22351 57.346 5.61196C57.39 5.32066 57.4348 5.02945 57.4795 4.73827L57.4796 4.73723L57.4798 4.73618L57.4799 4.73542L57.48 4.73466C57.6649 3.53079 57.8498 2.32726 57.9879 1.11891C58.0576 0.494808 58.2915 0.26108 58.916 0.293404C59.2464 0.309128 59.5786 0.302313 59.9105 0.295504C60.3659 0.286161 60.8207 0.27683 61.2697 0.325728C61.3952 0.33997 61.5536 0.310163 61.7156 0.2797C62.1191 0.203791 62.5444 0.12381 62.5337 0.711131C62.5319 0.816108 62.5372 0.933017 62.5428 1.0555C62.5756 1.77727 62.6173 2.6927 61.2623 2.50139C60.7273 2.42431 60.5557 2.72766 60.4959 3.21749C60.3889 4.11014 60.2621 5.00526 60.0705 5.88299C59.9262 6.53693 60.0804 6.7806 60.7796 6.75823C60.8371 6.75633 60.9104 6.74464 60.9899 6.73197C61.3268 6.67829 61.7744 6.60698 61.5932 7.18838C61.5396 7.35858 61.5493 7.57604 61.5592 7.79755C61.5832 8.33652 61.6083 8.89951 60.7248 8.86427C59.7669 8.82697 59.5604 9.20988 59.4733 10.0503C59.367 11.1025 59.191 12.1487 59.0113 13.2169L59.0113 13.217L59.0113 13.217L59.0113 13.2171L59.0113 13.2172C58.9347 13.6728 58.8574 14.1323 58.7845 14.5981ZM29.3523 16.8732C27.1951 16.8732 27.1727 16.8707 27.4837 14.7199C27.7685 12.7493 28.0613 10.7796 28.3542 8.80977L28.3542 8.80969L28.3542 8.80963L28.3542 8.80957C28.7342 6.25353 29.1142 3.69736 29.4767 1.1388C29.5737 0.447565 29.8748 0.251134 30.5267 0.288431C30.8422 0.306419 31.16 0.298741 31.4774 0.291074C31.9058 0.280724 32.3334 0.270392 32.7536 0.323242C32.8798 0.339276 33.0405 0.308399 33.2052 0.276755C33.6279 0.195537 34.0768 0.109271 34.0375 0.798158C34.0309 0.909239 34.0343 1.0357 34.0378 1.16851C34.0558 1.84729 34.0781 2.6919 32.8108 2.49642C32.1937 2.40193 32.042 2.78982 31.9823 3.29706C31.9676 3.42386 31.9539 3.55117 31.9401 3.67865V3.67866C31.8792 4.24365 31.8179 4.81217 31.6737 5.35586C31.4199 6.31066 31.41 6.96958 32.7163 6.74331C33.0994 6.67617 33.3084 6.94223 33.1144 7.25552C32.9996 7.4403 33.0051 7.70187 33.0106 7.96008C33.0207 8.43501 33.0306 8.89855 32.2908 8.85183C31.1299 8.77825 31.056 9.40629 30.9611 10.2133L30.9571 10.2467C30.8178 11.4228 30.6387 12.5965 30.4247 13.7601C30.3077 14.3991 30.3451 14.7846 31.1562 14.6901C31.5369 14.6453 32.1639 14.5906 31.8902 15.2396C31.8164 15.4148 31.8231 15.6347 31.8298 15.8558C31.844 16.3281 31.8585 16.8057 31.089 16.8632C30.6932 16.8923 30.2951 16.8849 29.8962 16.8774L29.896 16.8774C29.7157 16.8741 29.5352 16.8707 29.3548 16.8707L29.3523 16.8732ZM85.0747 13.6353C84.9167 14.7104 84.7582 15.7893 84.5993 16.8732L84.6018 16.8757C85.0012 16.8757 85.3997 16.8811 85.7974 16.8865H85.7974H85.7975C86.7227 16.899 87.6434 16.9114 88.5604 16.8558C89.2185 16.8146 89.2227 16.3562 89.2268 15.907C89.2284 15.7329 89.2299 15.5602 89.2696 15.4136C89.3467 15.1327 89.4711 14.6453 88.9287 14.705C87.5734 14.8521 87.7229 14.162 87.8844 13.4166C87.9058 13.3176 87.9275 13.2177 87.9459 13.1186C88.1225 12.1514 88.2718 11.1792 88.3788 10.2045C88.4684 9.36653 88.6027 8.78967 89.7373 8.84686C90.4308 8.88371 90.438 8.39064 90.4451 7.90323C90.448 7.69991 90.4509 7.49757 90.5037 7.33509C90.6281 6.95714 90.4912 6.66125 90.0284 6.74331C88.8168 6.95544 88.9335 6.23764 89.0505 5.51857L89.0655 5.42548C89.102 5.19428 89.1464 4.96372 89.1909 4.73323L89.1909 4.73303L89.1909 4.73293C89.2707 4.31901 89.3505 3.9053 89.384 3.48852C89.4437 2.7575 89.695 2.34723 90.5186 2.48896C91.0063 2.5735 91.2128 2.36463 91.3297 1.84745L91.3383 1.80972C91.6758 0.317981 91.6796 0.300863 90.0807 0.300863C89.8886 0.300863 89.6958 0.307739 89.5032 0.314608C89.072 0.329984 88.6417 0.345331 88.2221 0.283458C87.2417 0.139243 86.9631 0.601726 86.8411 1.46205C86.2696 5.50314 85.6763 9.54112 85.0747 13.6353ZM73.1511 0.300862C73.3137 0.300862 73.477 0.295624 73.6404 0.290386C74.0167 0.278317 74.393 0.266248 74.7609 0.318267C74.8645 0.33277 74.9971 0.313366 75.1334 0.293419C75.5112 0.238129 75.9176 0.178662 75.8134 0.825507C75.79 0.972867 75.7972 1.1476 75.8048 1.32792C75.8292 1.91437 75.8561 2.56005 74.838 2.51631C74.1862 2.48906 74.1343 2.84172 74.0626 3.32857L74.0617 3.33435C73.8162 5.00057 73.5625 6.666 73.3088 8.33143C72.9222 10.8686 72.5357 13.4058 72.1782 15.9457C72.0027 17.1966 71.295 17.0475 70.6208 16.9055C70.3582 16.8502 70.1007 16.796 69.8817 16.8259C69.0797 16.9347 69.247 16.3585 69.3674 15.944C69.3957 15.8466 69.4214 15.7582 69.4313 15.6896C69.8838 12.4988 70.3743 9.3125 70.8647 6.12602L70.8648 6.12555L70.8656 6.12073C71.0031 5.2268 71.1407 4.33285 71.2775 3.43879C71.2879 3.37032 71.3046 3.29776 71.3215 3.2247C71.4058 2.85993 71.493 2.48234 70.8048 2.5362C70.1379 2.58841 70.0086 2.24528 70.1504 1.71566C70.1886 1.57291 70.1945 1.40925 70.2005 1.24503C70.2176 0.768517 70.235 0.28728 71.0436 0.298375C71.5115 0.305007 71.9804 0.302795 72.449 0.300584C72.6832 0.29948 72.9173 0.298375 73.1511 0.298375V0.300862ZM74.5853 12.7225C74.3776 14.0994 74.1689 15.4822 73.9596 16.8732V16.8782C74.2597 16.8782 74.54 16.8773 74.8073 16.8764C75.3066 16.8748 75.7609 16.8733 76.2163 16.8782C76.587 16.8831 76.811 16.8011 76.8757 16.3585C77.1892 14.2038 77.5082 12.0501 77.8272 9.89649C78.25 7.0423 78.6728 4.18833 79.0826 1.33275C79.0902 1.2798 79.1021 1.21897 79.115 1.15393C79.1954 0.74554 79.3085 0.1712 78.5552 0.340645C78.324 0.392489 78.0475 0.331889 77.7681 0.270665C77.1363 0.132216 76.4899 -0.00942413 76.3208 1.1388C75.7529 4.98503 75.1727 8.82991 74.5853 12.7225Z" fill="#183D62"/>
</g>
<defs>
<clipPath id="clip0_1130_62">
<rect width="98" height="17" fill="white"/>
</clipPath>
</defs>
</svg>
