<svg width="40" height="40" viewBox="0 0 40 40" fill="none" xmlns="http://www.w3.org/2000/svg">
<rect width="40" height="40" rx="20" fill="#BCBCC0"/>
<path d="M32.6117 12.3674C31.7058 12.7697 30.7327 13.0404 29.7114 13.1625C30.7545 12.5377 31.5544 11.5486 31.9311 10.3692C30.9561 10.9475 29.8751 11.3678 28.7241 11.595C27.8031 10.6134 26.4912 10 25.0391 10C22.2506 10 19.9902 12.2613 19.9902 15.049C19.9902 15.4446 20.0356 15.8308 20.1208 16.1991C15.9247 15.9889 12.2046 13.9784 9.71329 10.9229C9.27976 11.6688 9.03081 12.5359 9.03081 13.4625C9.03081 15.2137 9.92153 16.7594 11.2761 17.6643C10.4488 17.6378 9.66974 17.4107 8.98916 17.033C8.98916 17.0548 8.98916 17.0746 8.98916 17.0964C8.98916 19.5433 10.729 21.5841 13.0395 22.0469C12.6164 22.1624 12.1696 22.224 11.7086 22.224C11.384 22.224 11.0669 22.1918 10.7592 22.134C11.402 24.1398 13.2667 25.6004 15.476 25.6411C13.7485 26.9956 11.5714 27.803 9.20498 27.803C8.79796 27.803 8.39566 27.7794 8 27.732C10.2348 29.1642 12.8881 30 15.7401 30C25.0278 30 30.1052 22.3063 30.1052 15.634C30.1052 15.4153 30.1004 15.1976 30.091 14.9808C31.0782 14.2681 31.9349 13.3792 32.6117 12.3674Z" fill="white"/>
</svg>
