<svg width="40" height="40" viewBox="0 0 40 40" fill="none" xmlns="http://www.w3.org/2000/svg">
<path d="M40 20C40 8.9543 31.0457 0 20 0C8.9543 0 0 8.9543 0 20C0 31.0457 8.9543 40 20 40C31.0457 40 40 31.0457 40 20Z" fill="#BCBCC0"/>
<path d="M32.8329 14.1952C32.8329 11.9687 31.1519 10.1776 29.0747 10.1776C26.261 10.0495 23.3915 10 20.459 10H19.5449C16.6195 10 13.7449 10.0495 10.9313 10.1781C8.85914 10.1781 7.17807 11.9791 7.17807 14.2056C7.0511 15.9665 6.99726 17.7279 7.00031 19.4894C6.99523 21.2508 7.05279 23.0138 7.17299 24.7785C7.17299 27.005 8.85406 28.811 10.9262 28.811C13.882 28.9446 16.9141 29.0039 19.9969 28.999C23.0848 29.0089 26.1083 28.9462 29.0675 28.811C31.1448 28.811 32.8258 27.005 32.8258 24.7785C32.9477 23.0122 33.0036 21.2508 32.9985 19.4844C33.01 17.723 32.9548 15.9599 32.8329 14.1952ZM17.5134 24.3431V14.6207L24.8776 19.4795L17.5134 24.3431Z" fill="white"/>
</svg>
