<svg width="20" height="20" viewBox="0 0 20 20" fill="none" xmlns="http://www.w3.org/2000/svg">
<g clip-path="url(#clip0_87_2116)">
<path d="M12.5533 10C12.5533 10.505 12.4035 10.9986 12.123 11.4184C11.8425 11.8382 11.4438 12.1655 10.9773 12.3587C10.5108 12.5519 9.99743 12.6025 9.5022 12.504C9.00697 12.4055 8.55207 12.1623 8.19502 11.8053C7.83798 11.4482 7.59483 10.9933 7.49632 10.4981C7.39781 10.0029 7.44837 9.48953 7.6416 9.02303C7.83483 8.55653 8.16206 8.15781 8.5819 7.87728C9.00173 7.59675 9.49533 7.44702 10.0003 7.44702C10.6774 7.44702 11.3267 7.716 11.8055 8.19478C12.2843 8.67356 12.5533 9.32292 12.5533 10Z" stroke="#292D32" stroke-width="1.5" stroke-linecap="round" stroke-linejoin="round"/>
<path d="M1.70117 10.7289V9.27092C1.70249 8.85326 1.86913 8.45312 2.16464 8.15798C2.46016 7.86284 2.86051 7.69671 3.27817 7.69592C4.77817 7.69592 5.39417 6.63492 4.63917 5.33492C4.43154 4.97342 4.37599 4.54425 4.48476 4.14181C4.59353 3.73936 4.8577 3.3966 5.21917 3.18892L6.65517 2.36892C6.97251 2.18493 7.34985 2.13424 7.70449 2.22796C8.05913 2.32168 8.36216 2.55217 8.54717 2.86892L8.63817 3.02592C9.38517 4.32592 10.6132 4.32592 11.3682 3.02592L11.4602 2.86592C11.6452 2.54917 11.9482 2.31868 12.3029 2.22496C12.6575 2.13124 13.0348 2.18193 13.3522 2.36592L14.7882 3.18592C14.9672 3.28867 15.1243 3.42569 15.2504 3.58915C15.3765 3.7526 15.4692 3.9393 15.5232 4.13858C15.5771 4.33786 15.5913 4.54581 15.5649 4.75057C15.5384 4.95532 15.4719 5.15286 15.3692 5.33192C14.6142 6.63192 15.2282 7.69292 16.7302 7.69292C17.1473 7.69529 17.5466 7.86253 17.8409 8.15815C18.1352 8.45377 18.3007 8.85378 18.3012 9.27092V10.7289C18.2996 11.1464 18.1328 11.5463 17.8373 11.8412C17.5419 12.1361 17.1417 12.3021 16.7242 12.3029C15.2242 12.3029 14.6082 13.3639 15.3632 14.6639C15.4662 14.8429 15.5329 15.0405 15.5595 15.2453C15.586 15.4501 15.5719 15.6581 15.518 15.8575C15.464 16.0568 15.3712 16.2436 15.245 16.407C15.1187 16.5704 14.9614 16.7074 14.7822 16.8099L13.3462 17.6299C13.0288 17.8139 12.6515 17.8646 12.2969 17.7709C11.9422 17.6772 11.6392 17.4467 11.4542 17.1299L11.3682 16.9789C10.6212 15.6789 9.39317 15.6789 8.63817 16.9789L8.54717 17.1359C8.36216 17.4527 8.05913 17.6832 7.70449 17.7769C7.34985 17.8706 6.97251 17.8199 6.65517 17.6359L5.21917 16.8159C5.04011 16.7132 4.88303 16.5761 4.75693 16.4127C4.63082 16.2492 4.53814 16.0625 4.48419 15.8633C4.43024 15.664 4.41607 15.456 4.44249 15.2513C4.46891 15.0465 4.5354 14.849 4.63817 14.6699C5.39317 13.3699 4.77917 12.3089 3.27717 12.3089C2.85882 12.3079 2.45797 12.1409 2.16253 11.8447C1.86709 11.5485 1.70117 11.1473 1.70117 10.7289Z" stroke="#292D32" stroke-width="1.5" stroke-linecap="round" stroke-linejoin="round"/>
</g>
<defs>
<clipPath id="clip0_87_2116">
<rect width="20" height="20" fill="white"/>
</clipPath>
</defs>
</svg>
