<svg width="24" height="24" viewBox="0 0 24 24" fill="none" xmlns="http://www.w3.org/2000/svg">
<g clip-path="url(#clip0_87_2065)">
<path d="M12.0209 2.90991C10.4296 2.90991 8.9035 3.54205 7.77828 4.66727C6.65306 5.79249 6.02092 7.31861 6.02092 8.90991V11.7999C5.98892 12.5208 5.79404 13.2251 5.45092 13.8599L4.30092 15.7699C4.12918 16.0224 4.0202 16.3123 3.98302 16.6154C3.94585 16.9186 3.98155 17.2262 4.08717 17.5127C4.1928 17.7993 4.36529 18.0565 4.5903 18.263C4.81532 18.4695 5.08637 18.6193 5.38092 18.6999C9.68706 20.1399 14.3448 20.1399 18.6509 18.6999C18.9354 18.6051 19.1948 18.4475 19.4101 18.2388C19.6254 18.0301 19.7911 17.7757 19.8948 17.4943C19.9985 17.213 20.0376 16.912 20.0092 16.6135C19.9809 16.315 19.8857 16.0267 19.7309 15.7699L18.5809 13.8599C18.2454 13.2226 18.0542 12.5193 18.0209 11.7999V8.90991C18.0162 7.32007 17.3825 5.79671 16.2583 4.67252C15.1341 3.54833 13.6108 2.91466 12.0209 2.90991Z" stroke="#292D32" stroke-width="1.5" stroke-linecap="round"/>
<path d="M13.8699 3.20017C13.5559 3.10766 13.2348 3.04077 12.9099 3.00017C11.9925 2.87842 11.0599 2.94649 10.1699 3.20017C10.3161 2.82864 10.5707 2.50971 10.9007 2.28493C11.2307 2.06016 11.6207 1.93994 12.0199 1.93994C12.4192 1.93994 12.8092 2.06016 13.1392 2.28493C13.4691 2.50971 13.7238 2.82864 13.8699 3.20017Z" stroke="#292D32" stroke-width="1.5" stroke-linecap="round" stroke-linejoin="round"/>
<path d="M15.0195 19.0601C15.0172 19.855 14.7003 20.6167 14.1382 21.1788C13.5761 21.7409 12.8145 22.0577 12.0195 22.0601C11.2244 22.0582 10.4623 21.7418 9.89953 21.1801C9.33778 20.6173 9.02143 19.8552 9.01953 19.0601" stroke="#292D32" stroke-width="1.5"/>
</g>
<defs>
<clipPath id="clip0_87_2065">
<rect width="24" height="24" fill="white"/>
</clipPath>
</defs>
</svg>
