<svg width="18" height="18" viewBox="0 0 18 18" fill="none" xmlns="http://www.w3.org/2000/svg">
<path d="M7.49609 8.25V6L11.2461 9L7.49609 12V9.75H0.746094V8.25H7.49609ZM1.83944 11.25H3.43223C4.32231 13.4488 6.47806 15 8.99609 15C12.3098 15 14.9961 12.3137 14.9961 9C14.9961 5.68629 12.3098 3 8.99609 3C6.47806 3 4.32231 4.55113 3.43223 6.75H1.83944C2.79515 3.70717 5.63786 1.5 8.99609 1.5C13.1382 1.5 16.4961 4.85786 16.4961 9C16.4961 13.1421 13.1382 16.5 8.99609 16.5C5.63786 16.5 2.79515 14.2928 1.83944 11.25Z" fill="#F20000"/>
</svg>
