<svg width="85" height="85" viewBox="0 0 85 85" fill="none" xmlns="http://www.w3.org/2000/svg">
<path d="M49.0542 32.8854L26.0486 65.5529C22.7357 70.2573 26.1059 76.7367 31.8658 76.7367H77.8769C83.6368 76.7367 87.007 70.2573 83.6941 65.553L60.6885 32.8854C57.8563 28.8637 51.8864 28.8637 49.0542 32.8854Z" fill="url(#paint0_linear_2823_589)"/>
<g clip-path="url(#clip0_2823_589)">
<g filter="url(#filter0_bi_2823_589)">
<path d="M30.479 8.82617C22.6151 8.82617 15.0734 11.9501 9.51238 17.5104C3.95185 23.071 0.828125 30.6132 0.828125 38.4771C0.828125 46.341 3.9521 53.8827 9.51238 59.4437C15.0729 65.0043 22.6151 68.128 30.479 68.128C38.343 68.128 45.8847 65.004 51.4457 59.4437C57.0062 53.8832 60.13 46.341 60.13 38.4771C60.13 30.6132 57.006 23.0715 51.4457 17.5104C45.8852 11.9499 38.343 8.82617 30.479 8.82617V8.82617ZM21.48 48.4783L18.5153 51.443L5.54993 38.4772L18.5158 25.5113L21.4805 28.476L11.4792 38.4773L21.48 48.4783ZM28.0007 55.0075L23.9668 53.8668L32.9614 21.9515L36.9953 23.0837L28.0007 55.0075ZM42.4466 51.4432L39.4819 48.4785L49.4704 38.4772L39.4819 28.476L42.4466 25.5113L55.4125 38.4771L42.4466 51.4432Z" fill="#B186F4" fill-opacity="0.2"/>
<path d="M30.479 9.32617C22.7477 9.32617 15.3332 12.3975 9.86594 17.864C9.86593 17.864 9.86592 17.864 9.86591 17.864M30.479 9.32617L9.86591 17.864M30.479 9.32617C38.2104 9.32617 45.6254 12.3972 51.0921 17.864C56.5587 23.3313 59.63 30.7458 59.63 38.4771C59.63 46.2084 56.5589 53.6234 51.0922 59.0902C45.6249 64.5567 38.2103 67.628 30.479 67.628C22.7477 67.628 15.3327 64.557 9.86596 59.0902M30.479 9.32617L9.86596 59.0902M9.86591 17.864C4.39917 23.3308 1.32812 30.7458 1.32812 38.4771C1.32812 46.2084 4.39941 53.6229 9.86596 59.0902M9.86591 17.864L9.86596 59.0902M21.8335 48.8319L22.1871 48.4783L21.8335 48.1248L12.1863 38.4773L21.834 28.8296L22.1876 28.476L21.834 28.1225L18.8693 25.1578L18.5158 24.8042L18.1622 25.1578L5.19638 38.1236L4.84283 38.4772L5.19637 38.8307L18.1617 51.7966L18.5153 52.1502L18.8688 51.7966L21.8335 48.8319ZM27.8647 55.4886L28.3463 55.6248L28.482 55.1431L37.4766 23.2193L37.6123 22.7376L37.1304 22.6023L33.0965 21.4701L32.6156 21.3352L32.4801 21.8159L23.4855 53.7312L23.35 54.212L23.8307 54.3479L27.8647 55.4886ZM42.0931 51.7967L42.4466 52.1503L42.8002 51.7967L55.7661 38.8307L56.1196 38.4771L55.7661 38.1236L42.8002 25.1577L42.4466 24.8042L42.0931 25.1577L39.1284 28.1224L38.7751 28.4758L39.1282 28.8293L48.7637 38.4772L39.1282 48.1252L38.7751 48.4787L39.1284 48.832L42.0931 51.7967Z" stroke="url(#paint1_linear_2823_589)"/>
</g>
</g>
<defs>
<filter id="filter0_bi_2823_589" x="-9.17188" y="-1.17383" width="79.3047" height="79.3027" filterUnits="userSpaceOnUse" color-interpolation-filters="sRGB">
<feFlood flood-opacity="0" result="BackgroundImageFix"/>
<feGaussianBlur in="BackgroundImageFix" stdDeviation="5"/>
<feComposite in2="SourceAlpha" operator="in" result="effect1_backgroundBlur_2823_589"/>
<feBlend mode="normal" in="SourceGraphic" in2="effect1_backgroundBlur_2823_589" result="shape"/>
<feColorMatrix in="SourceAlpha" type="matrix" values="0 0 0 0 0 0 0 0 0 0 0 0 0 0 0 0 0 0 127 0" result="hardAlpha"/>
<feOffset dx="4" dy="4"/>
<feGaussianBlur stdDeviation="2"/>
<feComposite in2="hardAlpha" operator="arithmetic" k2="-1" k3="1"/>
<feColorMatrix type="matrix" values="0 0 0 0 1 0 0 0 0 1 0 0 0 0 1 0 0 0 0.25 0"/>
<feBlend mode="normal" in2="shape" result="effect2_innerShadow_2823_589"/>
</filter>
<linearGradient id="paint0_linear_2823_589" x1="91.5695" y1="76.7365" x2="18.1722" y2="76.7365" gradientUnits="userSpaceOnUse">
<stop stop-color="#C29BFF"/>
<stop offset="1" stop-color="#7B45CF"/>
</linearGradient>
<linearGradient id="paint1_linear_2823_589" x1="18.9392" y1="9.18428" x2="59.4456" y2="68.2394" gradientUnits="userSpaceOnUse">
<stop stop-color="white"/>
<stop offset="0.5" stop-color="white" stop-opacity="0"/>
<stop offset="1" stop-color="white"/>
</linearGradient>
<clipPath id="clip0_2823_589">
<rect width="61" height="61" fill="white" transform="translate(0 8)"/>
</clipPath>
</defs>
</svg>
