<svg width="570" height="370" viewBox="0 0 570 370" fill="none" xmlns="http://www.w3.org/2000/svg">
<g clip-path="url(#clip0_6513_6247)">
<rect width="570" height="370" fill="#FAFBFC"/>
<line x1="387.345" y1="89.3616" x2="186.345" y2="281.362" stroke="#9D60FB" stroke-dasharray="5 5"/>
<line y1="-0.5" x2="277.966" y2="-0.5" transform="matrix(0.72311 0.690732 0.690732 -0.72311 186 89)" stroke="#9D60FB" stroke-dasharray="5 5"/>
<circle cx="286.5" cy="185.5" r="43.5" fill="#FAFBFC"/>
<circle cx="285" cy="185" r="138" stroke="#DFDFE7" stroke-width="2" stroke-dasharray="9 9"/>
<circle cx="184" cy="81" r="50" fill="#FAFBFC"/>
<circle cx="184" cy="289" r="50" fill="#FAFBFC"/>
<circle cx="386" cy="289" r="50" fill="#FAFBFC"/>
<circle cx="386" cy="81" r="50" fill="#FAFBFC"/>
<circle cx="201" cy="65" r="10" fill="url(#paint0_linear_6513_6247)"/>
<circle cx="205" cy="100" r="14" fill="url(#paint1_linear_6513_6247)"/>
<circle cx="161.5" cy="84.5" r="17.5" fill="url(#paint2_linear_6513_6247)"/>
<g clip-path="url(#clip1_6513_6247)">
<g filter="url(#filter0_bi_6513_6247)">
<path d="M206.509 69.7717C200.551 65.6019 192.479 66.3348 187.341 71.4317C186.252 72.5165 185.294 73.8901 184.515 75.4781L183.048 78.5044L179.316 86.3407L177.023 91.0297C176.68 91.7489 176.247 92.3611 175.833 92.7772C173.595 94.961 170.148 95.2538 167.564 93.4922C164.892 91.6235 164.043 87.9868 165.613 85.1283C166.514 83.5123 168.041 82.3889 169.799 81.9789C170.95 81.7103 172.187 81.8053 173.344 82.1103C173.96 82.286 174.558 82.6578 175.185 83.1508L176.294 84.0076L180.098 76.2294C178.785 75.2606 177.423 74.5187 176.068 74.0617C169.205 71.7647 161.641 74.6795 158.144 81.0553C154.522 87.7162 156.515 96.2616 162.697 100.571C166.295 103.119 170.677 103.822 174.677 102.888C177.344 102.266 179.78 100.931 181.851 98.8503C182.94 97.7655 183.897 96.3919 184.677 94.8039L186.144 91.7775L189.937 83.9271L192.23 79.2381C192.573 78.5188 193.005 77.9066 193.42 77.4905C195.658 75.3068 199.105 75.014 201.689 76.7756C204.361 78.6443 205.21 82.2809 203.64 85.1394C202.102 87.8626 198.882 89.1252 195.908 88.1575C195.292 87.9818 194.694 87.61 194.068 87.117L192.916 86.2278L189.072 94.0881C190.396 95.0698 191.77 95.8199 193.138 96.2809C200.001 98.5781 207.565 95.6631 211.062 89.2876C214.684 82.6267 212.69 74.0813 206.509 69.7719L206.509 69.7717Z" fill="#B186F4" fill-opacity="0.4"/>
<path d="M187.693 71.7863C192.632 66.8868 200.375 66.1596 206.123 70.1129L206.223 70.1821C212.193 74.3442 214.124 82.6088 210.623 89.048C207.243 95.2088 199.932 98.0275 193.298 95.8071C192.102 95.404 190.89 94.7662 189.706 93.9299L193.096 86.9983L193.759 87.5098C193.759 87.5103 193.76 87.5108 193.76 87.5113C194.403 88.0167 195.058 88.4329 195.762 88.6357C198.961 89.6722 202.423 88.3119 204.075 85.3853L204.075 85.3853L204.078 85.3801C205.771 82.2978 204.857 78.3808 201.975 76.3658L201.975 76.3658L201.97 76.3624C199.191 74.4676 195.48 74.7818 193.07 77.1326L193.07 77.1326L193.065 77.1378C192.606 77.599 192.143 78.2588 191.779 79.0204C191.779 79.0212 191.779 79.0219 191.778 79.0226L189.487 83.7074L189.486 83.7096L185.694 91.5595L185.694 91.56L184.229 94.5834C184.228 94.5838 184.228 94.5842 184.228 94.5845C183.469 96.1303 182.542 97.4562 181.498 98.4961L181.497 98.4976C179.491 100.513 177.138 101.801 174.563 102.402C170.695 103.304 166.461 102.623 162.986 100.163L162.983 100.161C157.012 95.9987 155.082 87.7341 158.583 81.2949C161.963 75.1338 169.273 72.3153 175.908 74.5356C177.092 74.9347 178.291 75.5645 179.464 76.3886L176.115 83.2371L175.494 82.7579C175.493 82.7575 175.493 82.757 175.492 82.7565C174.847 82.249 174.189 81.8313 173.481 81.6295L173.481 81.6294L173.472 81.6268C172.259 81.3072 170.937 81.2 169.685 81.492C167.793 81.9334 166.147 83.1435 165.176 84.8849L165.175 84.8877C163.482 87.9699 164.396 91.887 167.278 93.902L167.278 93.902L167.282 93.9053C170.062 95.8002 173.773 95.486 176.182 93.1351L176.182 93.1352L176.187 93.13C176.647 92.6688 177.109 92.0089 177.473 91.2473C177.474 91.2466 177.474 91.2459 177.474 91.2452L179.765 86.5604L179.765 86.5604L179.768 86.5557L183.498 78.7225L183.499 78.7194L184.963 75.6985C184.964 75.6981 184.964 75.6978 184.964 75.6974C185.723 74.1519 186.65 72.8261 187.693 71.7863Z" stroke="url(#paint3_linear_6513_6247)"/>
</g>
</g>
<circle cx="379" cy="62" r="10" fill="url(#paint4_linear_6513_6247)"/>
<circle cx="405" cy="82" r="14" fill="url(#paint5_linear_6513_6247)"/>
<circle cx="367.5" cy="96.5" r="17.5" fill="url(#paint6_linear_6513_6247)"/>
<g filter="url(#filter1_bi_6513_6247)">
<path d="M388.469 88.4688V89.25C388.469 90.5391 387.414 91.5938 386.125 91.5938H385.344V92.375C385.344 93.6719 384.297 94.7188 383 94.7188C381.703 94.7188 380.656 93.6719 380.656 92.375V91.5938H379.875C378.586 91.5938 377.531 90.5391 377.531 89.25V88.4688H365.031C363.828 88.4688 362.734 88.0078 361.906 87.2656V100.187C361.906 101.047 362.609 101.75 363.469 101.75H402.531C403.391 101.75 404.094 101.047 404.094 100.187V87.2656C403.266 88.0078 402.172 88.4688 400.969 88.4688H388.469Z" fill="#B186F4" fill-opacity="0.4"/>
<path d="M388.969 89.25V88.9688H400.969C401.929 88.9688 402.826 88.7036 403.594 88.2492V100.187C403.594 100.771 403.114 101.25 402.531 101.25H363.469C362.886 101.25 362.406 100.771 362.406 100.187V88.2492C363.174 88.7036 364.071 88.9688 365.031 88.9688H377.031V89.25C377.031 90.8152 378.31 92.0938 379.875 92.0938H380.156V92.375C380.156 93.948 381.427 95.2188 383 95.2188C384.573 95.2188 385.844 93.948 385.844 92.375V92.0938H386.125C387.69 92.0938 388.969 90.8152 388.969 89.25Z" stroke="url(#paint7_linear_6513_6247)"/>
</g>
<g filter="url(#filter2_bi_6513_6247)">
<path d="M402.533 72.0625H392.377V68.9375C392.377 66.3516 390.275 64.25 387.689 64.25H378.314C375.729 64.25 373.627 66.3516 373.627 68.9375V72.0625H363.471C362.611 72.0625 361.908 72.7656 361.908 73.625V83.7813C361.908 85.5 363.314 86.9063 365.033 86.9063H377.533V84.5625C377.533 83.2734 378.588 82.2188 379.877 82.2188H386.127C387.416 82.2188 388.471 83.2734 388.471 84.5625V86.9063H400.971C402.689 86.9063 404.096 85.5 404.096 83.7813V73.625C404.096 72.7656 403.393 72.0625 402.533 72.0625ZM376.752 72.0625V68.9375C376.752 68.0781 377.455 67.375 378.314 67.375H387.689C388.549 67.375 389.252 68.0781 389.252 68.9375V72.0625H376.752Z" fill="#B186F4" fill-opacity="0.4"/>
<path d="M391.877 72.0625V72.5625H392.377H402.533C403.116 72.5625 403.596 73.0418 403.596 73.625V83.7812C403.596 85.2239 402.413 86.4062 400.971 86.4062H388.971V84.5625C388.971 82.9973 387.692 81.7188 386.127 81.7188H379.877C378.312 81.7188 377.033 82.9973 377.033 84.5625V86.4062H365.033C363.591 86.4062 362.408 85.2239 362.408 83.7812V73.625C362.408 73.0418 362.887 72.5625 363.471 72.5625H373.627H374.127V72.0625V68.9375C374.127 66.6277 376.005 64.75 378.314 64.75H387.689C389.999 64.75 391.877 66.6277 391.877 68.9375V72.0625ZM376.252 72.0625V72.5625H376.752H389.252H389.752V72.0625V68.9375C389.752 67.802 388.825 66.875 387.689 66.875H378.314C377.179 66.875 376.252 67.802 376.252 68.9375V72.0625Z" stroke="url(#paint8_linear_6513_6247)"/>
</g>
<g filter="url(#filter3_bi_6513_6247)">
<path d="M379.875 83.7812H386.125C386.556 83.7812 386.906 84.2127 386.906 84.5625V89.25C386.906 89.6815 386.556 90.0313 386.125 90.0313H379.875C379.444 90.0313 379.094 89.5998 379.094 89.25V84.5625C379.094 84.131 379.444 83.7812 379.875 83.7812Z" fill="#B186F4" fill-opacity="0.4"/>
<path d="M379.875 84.2812H386.125C386.17 84.2812 386.241 84.3055 386.312 84.3817C386.387 84.4628 386.406 84.5414 386.406 84.5625V89.25C386.406 89.4053 386.28 89.5312 386.125 89.5312H379.875C379.83 89.5312 379.759 89.507 379.688 89.4308C379.613 89.3497 379.594 89.2711 379.594 89.25V84.5625C379.594 84.4072 379.72 84.2812 379.875 84.2812Z" stroke="url(#paint9_linear_6513_6247)"/>
</g>
<circle cx="383" cy="256" r="10" fill="url(#paint10_linear_6513_6247)"/>
<circle cx="369" cy="292" r="14" fill="url(#paint11_linear_6513_6247)"/>
<circle cx="414" cy="272" r="10" fill="url(#paint12_linear_6513_6247)"/>
<g filter="url(#filter4_bi_6513_6247)">
<path d="M390 259.086C383.658 259.086 377.575 261.606 373.09 266.09C368.605 270.575 366.086 276.658 366.086 283C366.086 289.343 368.606 295.425 373.09 299.91C377.575 304.395 383.658 306.915 390 306.915C396.343 306.915 402.425 304.395 406.91 299.91C411.395 295.426 413.915 289.343 413.915 283C413.915 276.658 411.395 270.575 406.91 266.09C402.426 261.605 396.343 259.086 390 259.086V259.086ZM382.742 291.067L380.351 293.458L369.894 283L380.352 272.543L382.743 274.934L374.676 283L382.742 291.067ZM388.001 296.332L384.748 295.412L392.002 269.672L395.256 270.585L388.001 296.332ZM399.652 293.458L397.261 291.067L405.317 283L397.261 274.934L399.652 272.543L410.11 283L399.652 293.458Z" fill="#B186F4" fill-opacity="0.4"/>
<path d="M373.444 266.444C377.835 262.053 383.79 259.586 390 259.586C396.21 259.586 402.166 262.053 406.557 266.444C410.948 270.835 413.415 276.79 413.415 283C413.415 289.21 410.948 295.166 406.557 299.557C402.165 303.948 396.21 306.415 390 306.415C383.79 306.415 377.835 303.948 373.444 299.557C369.053 295.165 366.586 289.21 366.586 283C366.586 276.79 369.053 270.835 373.444 266.444ZM383.096 291.42L383.449 291.067L383.096 290.713L375.383 283L383.096 275.288L383.45 274.934L383.096 274.581L380.705 272.189L380.352 271.836L379.998 272.189L369.541 282.647L369.187 283L369.541 283.354L379.998 293.811L380.351 294.165L380.705 293.811L383.096 291.42ZM387.865 296.814L388.347 296.95L388.483 296.468L395.737 270.721L395.873 270.239L395.391 270.104L392.137 269.191L391.657 269.056L391.521 269.536L384.267 295.277L384.131 295.758L384.612 295.894L387.865 296.814ZM399.299 293.811L399.652 294.165L400.006 293.811L410.463 283.354L410.817 283L410.463 282.647L400.006 272.189L399.652 271.836L399.299 272.189L396.908 274.58L396.554 274.934L396.908 275.287L404.611 283L396.908 290.713L396.554 291.067L396.908 291.42L399.299 293.811Z" stroke="url(#paint13_linear_6513_6247)"/>
</g>
<circle cx="192" cy="256" r="6" fill="url(#paint14_linear_6513_6247)"/>
<circle cx="206" cy="290" r="9" fill="url(#paint15_linear_6513_6247)"/>
<circle cx="166.5" cy="288.5" r="17.5" fill="url(#paint16_linear_6513_6247)"/>
<g clip-path="url(#clip2_6513_6247)">
<g filter="url(#filter5_bi_6513_6247)">
<path d="M193.375 285.453C193.375 290.609 189.156 294.828 184 294.828C178.766 294.828 174.625 290.609 174.625 285.453H163.219V288.031C163.219 288.344 163.453 288.734 163.766 288.812L168.687 289.984C169 291 169.39 291.937 169.859 292.797L167.203 297.015C167.047 297.328 167.047 297.719 167.281 297.953L171.265 301.937C171.5 302.172 171.89 302.25 172.203 302.015L176.344 299.437C177.281 299.906 178.297 300.375 179.312 300.687L180.406 305.453C180.484 305.766 180.797 306 181.109 306H186.734C187.047 306 187.437 305.766 187.437 305.453L188.531 300.687C189.547 300.375 190.562 299.984 191.5 299.437L195.64 302.015C195.953 302.172 196.344 302.172 196.578 301.937L200.562 297.953C200.797 297.719 200.875 297.328 200.64 297.015L198.14 292.719C198.609 291.859 199 290.922 199.312 289.906L204.234 288.734C204.546 288.656 204.781 288.344 204.781 287.953V285.375H193.375L193.375 285.453Z" fill="#B186F4" fill-opacity="0.4"/>
<path d="M193.866 285.875H204.281V287.953C204.281 288.15 204.171 288.234 204.114 288.249C204.114 288.249 204.113 288.249 204.113 288.249L199.196 289.42L198.918 289.486L198.834 289.759C198.531 290.746 198.153 291.652 197.701 292.479L197.567 292.727L197.708 292.97L200.208 297.267L200.223 297.292L200.24 297.315C200.277 297.364 200.286 297.411 200.281 297.455C200.275 297.505 200.249 297.559 200.209 297.599L196.224 301.584C196.21 301.598 196.177 301.62 196.109 301.624C196.043 301.628 195.961 301.613 195.882 301.577L191.764 299.013L191.508 298.854L191.248 299.005C190.355 299.526 189.379 299.903 188.384 300.209L188.108 300.294L188.044 300.575L186.95 305.341L186.937 305.396V305.416C186.931 305.422 186.923 305.429 186.912 305.437C186.887 305.455 186.854 305.472 186.818 305.484C186.781 305.496 186.752 305.5 186.734 305.5H181.109C181.021 305.5 180.915 305.418 180.892 305.335L179.8 300.575L179.735 300.294L179.459 300.209C178.484 299.909 177.498 299.456 176.567 298.99L176.317 298.865L176.079 299.013L171.939 301.591L171.92 301.602L171.903 301.615C171.854 301.652 171.808 301.661 171.763 301.656C171.713 301.65 171.66 301.624 171.619 301.584L167.635 297.599C167.62 297.585 167.599 297.552 167.595 297.484C167.591 297.418 167.605 297.337 167.641 297.258L170.282 293.063L170.439 292.815L170.298 292.557C169.847 291.73 169.469 290.823 169.165 289.837L169.081 289.564L168.803 289.498L163.887 288.327C163.887 288.327 163.887 288.327 163.887 288.327C163.882 288.325 163.841 288.307 163.791 288.232C163.739 288.154 163.719 288.073 163.719 288.031V285.953H174.137C174.395 291.153 178.657 295.328 184 295.328C189.291 295.328 193.643 291.114 193.866 285.875Z" stroke="url(#paint17_linear_6513_6247)"/>
</g>
<g filter="url(#filter6_bi_6513_6247)">
<path d="M203.767 260.453C203.298 260.375 202.829 260.297 202.439 260.219V257.719C202.439 257.094 201.97 256.625 201.423 256.547C199.236 256.156 197.283 256 195.486 256C190.954 256 187.204 257.172 184.002 259.594C180.798 257.172 177.048 256 172.517 256C170.72 256 168.767 256.156 166.658 256.547C166.033 256.625 165.643 257.172 165.643 257.719V260.219C165.174 260.297 164.705 260.375 164.236 260.453C163.689 260.531 163.299 261 163.299 261.547V282.25C163.299 282.563 163.455 282.953 163.689 283.11C163.924 283.344 164.314 283.422 164.627 283.344C166.971 282.953 169.002 282.719 170.877 282.719C175.877 282.719 179.939 284.047 183.221 286.86C183.299 286.938 183.455 287.016 183.533 287.016C183.611 287.016 183.689 287.094 183.768 287.094H184.236C184.314 287.094 184.393 287.016 184.471 287.016C184.549 286.938 184.705 286.938 184.783 286.86C188.064 284.047 192.127 282.719 197.127 282.719C199.002 282.719 201.033 282.875 203.377 283.344C203.689 283.422 204.08 283.266 204.314 283.11C204.549 282.875 204.705 282.563 204.705 282.25V261.547C204.705 261 204.314 260.531 203.767 260.453ZM185.251 261.703C188.064 259.516 191.423 258.422 195.564 258.422C196.97 258.422 198.376 258.5 200.017 258.734V277.25C198.454 277.016 196.97 276.938 195.564 276.938C191.579 276.938 188.22 277.797 185.251 279.672V261.703ZM168.064 258.812C169.626 258.578 171.11 258.5 172.517 258.5C176.658 258.5 180.017 259.594 182.829 261.781V279.828C179.939 278.031 176.501 277.094 172.517 277.094C171.111 277.094 169.704 277.172 168.064 277.406V258.812Z" fill="#B186F4" fill-opacity="0.4"/>
<path d="M179.704 264.437C175.719 261.39 170.329 262.562 170.25 262.562C169.938 262.64 169.547 262.406 169.469 262.094C169.391 261.781 169.625 261.39 169.938 261.312C170.172 261.234 175.954 259.984 180.484 263.422C180.797 263.656 180.797 264.047 180.641 264.281C180.406 264.594 180.016 264.672 179.704 264.437Z" fill="#B186F4" fill-opacity="0.4"/>
<path d="M179.704 268.5C175.719 265.453 170.329 266.625 170.25 266.625C169.938 266.703 169.547 266.469 169.469 266.156C169.391 265.844 169.625 265.453 169.938 265.375C170.172 265.297 175.954 264.047 180.484 267.484C180.797 267.719 180.797 268.109 180.641 268.344C180.406 268.656 180.016 268.734 179.704 268.5Z" fill="#B186F4" fill-opacity="0.4"/>
<path d="M179.704 272.562C175.719 269.515 170.329 270.687 170.25 270.687C169.938 270.765 169.547 270.531 169.469 270.219C169.391 269.906 169.625 269.515 169.938 269.437C170.172 269.359 175.954 268.109 180.484 271.547C180.797 271.781 180.797 272.172 180.641 272.406C180.406 272.719 180.016 272.719 179.704 272.562Z" fill="#B186F4" fill-opacity="0.4"/>
<path d="M179.704 276.546C175.719 273.5 170.329 274.671 170.25 274.671C169.938 274.75 169.547 274.515 169.469 274.203C169.391 273.89 169.625 273.5 169.938 273.421C170.172 273.343 175.954 272.093 180.484 275.531C180.797 275.765 180.797 276.156 180.641 276.39C180.406 276.703 180.016 276.781 179.704 276.546Z" fill="#B186F4" fill-opacity="0.4"/>
<path d="M187.907 264.594C188.063 264.594 188.141 264.515 188.297 264.437C192.282 261.39 197.672 262.562 197.75 262.562C198.063 262.64 198.454 262.406 198.532 262.094C198.61 261.781 198.375 261.39 198.063 261.312C197.829 261.234 192.047 259.984 187.516 263.422C187.204 263.656 187.204 264.047 187.36 264.281C187.516 264.515 187.672 264.594 187.907 264.594Z" fill="#B186F4" fill-opacity="0.4"/>
<path d="M188.297 268.5C192.281 265.453 197.672 266.625 197.75 266.625C198.063 266.703 198.453 266.469 198.532 266.156C198.61 265.844 198.375 265.453 198.063 265.375C197.828 265.297 192.047 264.047 187.516 267.484C187.204 267.719 187.204 268.109 187.36 268.344C187.594 268.656 187.984 268.734 188.297 268.5Z" fill="#B186F4" fill-opacity="0.4"/>
<path d="M188.297 272.562C192.281 269.515 197.672 270.687 197.75 270.687C198.063 270.765 198.453 270.531 198.532 270.219C198.61 269.906 198.375 269.515 198.063 269.437C197.828 269.359 192.047 268.109 187.516 271.547C187.204 271.781 187.204 272.172 187.36 272.406C187.594 272.719 187.984 272.719 188.297 272.562Z" fill="#B186F4" fill-opacity="0.4"/>
<path d="M188.297 276.546C192.281 273.5 197.672 274.671 197.75 274.671C198.063 274.75 198.453 274.515 198.532 274.203C198.61 273.89 198.375 273.5 198.063 273.421C197.828 273.343 192.047 272.093 187.516 275.531C187.204 275.765 187.204 276.156 187.36 276.39C187.594 276.703 187.984 276.781 188.297 276.546Z" fill="#B186F4" fill-opacity="0.4"/>
<path d="M197.812 262.062L197.871 262.077C197.872 262.077 197.881 262.079 197.898 262.075C197.919 262.071 197.945 262.062 197.972 262.046C197.998 262.03 198.019 262.011 198.032 261.995C198.043 261.982 198.046 261.974 198.047 261.972C198.047 261.97 198.048 261.962 198.045 261.946C198.041 261.925 198.031 261.899 198.015 261.872C197.999 261.846 197.98 261.825 197.964 261.812C197.95 261.8 197.941 261.797 197.941 261.797L197.923 261.793L197.905 261.787C197.907 261.787 197.904 261.787 197.897 261.785C197.872 261.779 197.788 261.759 197.638 261.731C197.459 261.698 197.208 261.658 196.896 261.622C196.273 261.55 195.415 261.496 194.427 261.548C192.447 261.652 189.978 262.182 187.819 263.82L187.816 263.822C187.793 263.839 187.78 263.856 187.773 263.868C187.766 263.882 187.761 263.897 187.759 263.913C187.754 263.952 187.766 263.988 187.776 264.004C187.819 264.067 187.842 264.085 187.847 264.088C187.847 264.088 187.847 264.088 187.847 264.088L197.812 262.062ZM197.812 262.062H197.79M197.812 262.062H197.79M197.79 262.062L197.761 262.057C197.716 262.049 197.649 262.038 197.564 262.024C197.395 261.997 197.154 261.962 196.854 261.93C196.256 261.865 195.424 261.812 194.465 261.858C192.564 261.948 190.124 262.427 188.029 264.013C187.995 264.031 187.965 264.048 187.942 264.062C187.913 264.078 187.898 264.087 187.887 264.093L197.79 262.062ZM203.685 260.946L203.685 260.946L203.696 260.948C203.989 260.99 204.205 261.24 204.205 261.547V282.25C204.205 282.389 204.136 282.564 203.995 282.72C203.921 282.764 203.829 282.807 203.734 282.835C203.616 282.87 203.537 282.869 203.498 282.859L203.487 282.856L203.475 282.854C201.096 282.378 199.032 282.219 197.127 282.219C192.044 282.219 187.867 283.569 184.483 286.459C184.479 286.46 184.474 286.462 184.469 286.463L184.464 286.465C184.438 286.474 184.386 286.491 184.335 286.514C184.314 286.524 184.291 286.535 184.265 286.55C184.255 286.553 184.245 286.557 184.237 286.56C184.206 286.571 184.178 286.584 184.158 286.594H183.846C183.826 286.584 183.798 286.571 183.767 286.56C183.728 286.545 183.671 286.527 183.6 286.519C183.59 286.514 183.58 286.509 183.573 286.504C183.572 286.503 183.57 286.502 183.569 286.501L183.561 286.492L183.546 286.48C180.157 283.575 175.972 282.219 170.877 282.219C168.962 282.219 166.9 282.458 164.545 282.851L164.525 282.854L164.506 282.859C164.334 282.902 164.133 282.846 164.043 282.756L164.008 282.721L163.967 282.694C163.967 282.694 163.967 282.693 163.966 282.693L163.964 282.691C163.962 282.69 163.959 282.687 163.956 282.684C163.949 282.677 163.94 282.667 163.93 282.653C163.908 282.625 163.885 282.586 163.864 282.538C163.821 282.438 163.799 282.33 163.799 282.25V261.547C163.799 261.24 164.015 260.99 164.307 260.948L164.307 260.948L164.319 260.946L165.022 260.829L165.725 260.712L166.143 260.642V260.219V257.719C166.143 257.39 166.378 257.086 166.72 257.043L166.735 257.041L166.749 257.039C168.827 256.654 170.75 256.5 172.517 256.5C176.954 256.5 180.595 257.645 183.7 259.993L184.002 260.221L184.303 259.993C187.408 257.645 191.048 256.5 195.486 256.5C197.253 256.5 199.176 256.654 201.335 257.039L201.344 257.041L201.352 257.042C201.672 257.087 201.939 257.361 201.939 257.719V260.219V260.629L202.341 260.709C202.739 260.789 203.214 260.868 203.679 260.945L203.685 260.946ZM184.944 261.308L184.751 261.459V261.703V279.672V280.579L185.518 280.095C188.393 278.279 191.656 277.438 195.564 277.438C196.951 277.438 198.41 277.515 199.943 277.745L200.517 277.831V277.25V258.734V258.301L200.088 258.239C198.421 258.001 196.991 257.922 195.564 257.922C191.327 257.922 187.856 259.044 184.944 261.308ZM167.989 258.318L167.564 258.382V258.812V277.406V277.983L168.134 277.901C169.749 277.67 171.131 277.594 172.517 277.594C176.42 277.594 179.764 278.511 182.565 280.253L183.329 280.727V279.828V261.781V261.537L183.136 261.387C180.225 259.122 176.754 258 172.517 258C171.092 258 169.582 258.079 167.989 258.318ZM170.239 262.057L170.211 262.062H170.189L170.129 262.077C170.129 262.077 170.121 262.079 170.103 262.075C170.082 262.071 170.056 262.062 170.029 262.046C170.002 262.03 169.982 262.011 169.968 261.995C169.958 261.982 169.955 261.974 169.954 261.972C169.954 261.97 169.953 261.962 169.956 261.946C169.96 261.925 169.97 261.899 169.986 261.872C170.002 261.846 170.02 261.825 170.037 261.812C170.051 261.8 170.06 261.797 170.06 261.797L170.078 261.793L170.096 261.787C170.094 261.787 170.097 261.787 170.104 261.785C170.129 261.779 170.212 261.759 170.363 261.731C170.542 261.698 170.793 261.658 171.105 261.622C171.728 261.55 172.586 261.496 173.574 261.548C175.554 261.652 178.023 262.182 180.182 263.82L180.184 263.822C180.208 263.839 180.221 263.856 180.228 263.868C180.235 263.882 180.24 263.897 180.242 263.913C180.246 263.947 180.238 263.977 180.229 263.995C180.184 264.049 180.141 264.067 180.115 264.072C180.09 264.076 180.054 264.075 180.005 264.038C177.903 262.432 175.446 261.948 173.536 261.858C172.577 261.812 171.745 261.865 171.147 261.93C170.847 261.962 170.606 261.997 170.436 262.024C170.352 262.038 170.285 262.049 170.239 262.057ZM170.239 266.12L170.211 266.125H170.189L170.129 266.14C170.129 266.14 170.12 266.141 170.103 266.138C170.082 266.134 170.056 266.124 170.029 266.108C170.002 266.092 169.982 266.074 169.968 266.057C169.958 266.045 169.955 266.037 169.954 266.035C169.954 266.033 169.953 266.024 169.956 266.008C169.96 265.988 169.97 265.961 169.986 265.935C170.002 265.908 170.02 265.888 170.037 265.874C170.051 265.862 170.06 265.86 170.06 265.86L170.078 265.855L170.096 265.849C170.094 265.85 170.097 265.849 170.104 265.848C170.129 265.841 170.212 265.822 170.363 265.794C170.542 265.761 170.793 265.721 171.105 265.685C171.728 265.613 172.586 265.558 173.574 265.61C175.554 265.715 178.023 266.244 180.182 267.883L180.184 267.884C180.208 267.902 180.221 267.918 180.228 267.931C180.235 267.944 180.24 267.959 180.242 267.976C180.246 268.009 180.238 268.04 180.229 268.058C180.184 268.112 180.141 268.13 180.115 268.134C180.09 268.139 180.054 268.137 180.005 268.101C177.903 266.494 175.446 266.011 173.536 265.92C172.577 265.875 171.745 265.928 171.147 265.992C170.847 266.024 170.606 266.06 170.436 266.087C170.352 266.1 170.285 266.112 170.239 266.12ZM170.239 270.182L170.211 270.187H170.189L170.129 270.202C170.129 270.202 170.121 270.204 170.103 270.2C170.082 270.196 170.056 270.187 170.029 270.171C170.002 270.155 169.982 270.136 169.968 270.12C169.958 270.107 169.955 270.099 169.954 270.097C169.954 270.095 169.953 270.087 169.956 270.071C169.96 270.05 169.97 270.024 169.986 269.997C170.002 269.971 170.02 269.95 170.037 269.937C170.051 269.925 170.06 269.922 170.06 269.922L170.078 269.918L170.096 269.912C170.094 269.912 170.097 269.912 170.104 269.91C170.129 269.904 170.212 269.884 170.363 269.856C170.542 269.823 170.793 269.783 171.105 269.747C171.728 269.675 172.586 269.621 173.574 269.673C175.554 269.777 178.023 270.307 180.182 271.945L180.184 271.947C180.208 271.964 180.221 271.981 180.228 271.993C180.235 272.007 180.24 272.021 180.242 272.038C180.246 272.071 180.239 272.101 180.23 272.119C180.204 272.148 180.178 272.159 180.143 272.163C180.099 272.169 180.035 272.161 179.963 272.131C177.87 270.55 175.434 270.073 173.536 269.983C172.577 269.937 171.745 269.99 171.147 270.055C170.847 270.087 170.606 270.122 170.436 270.149C170.352 270.163 170.285 270.174 170.239 270.182ZM170.239 274.167L170.211 274.171H170.189L170.129 274.186C170.129 274.186 170.121 274.188 170.103 274.184C170.082 274.18 170.056 274.171 170.029 274.155C170.002 274.139 169.982 274.12 169.968 274.104C169.958 274.091 169.955 274.083 169.954 274.081C169.954 274.079 169.953 274.071 169.956 274.055C169.96 274.034 169.97 274.008 169.986 273.981C170.002 273.955 170.02 273.934 170.037 273.921C170.051 273.909 170.059 273.907 170.059 273.906L170.078 273.902L170.096 273.896C170.094 273.896 170.097 273.896 170.104 273.894C170.129 273.888 170.212 273.868 170.363 273.84C170.542 273.807 170.793 273.767 171.105 273.731C171.728 273.66 172.586 273.605 173.574 273.657C175.554 273.761 178.023 274.291 180.182 275.929L180.184 275.931C180.208 275.949 180.221 275.965 180.228 275.978C180.235 275.991 180.24 276.006 180.242 276.023C180.246 276.056 180.238 276.086 180.229 276.104C180.184 276.159 180.141 276.176 180.115 276.181C180.09 276.185 180.054 276.184 180.005 276.148C177.903 274.541 175.446 274.057 173.536 273.967C172.577 273.922 171.745 273.974 171.147 274.039C170.847 274.071 170.606 274.106 170.436 274.133C170.352 274.147 170.285 274.159 170.239 274.167ZM197.871 266.14L197.871 266.14L197.812 266.125H197.79L197.761 266.12C197.716 266.112 197.649 266.1 197.564 266.087C197.395 266.06 197.153 266.024 196.854 265.992C196.256 265.928 195.424 265.875 194.465 265.92C192.554 266.011 190.098 266.494 187.996 268.101C187.946 268.137 187.91 268.139 187.886 268.134C187.86 268.13 187.816 268.112 187.771 268.058C187.762 268.04 187.754 268.009 187.758 267.976C187.76 267.959 187.765 267.944 187.773 267.931C187.78 267.918 187.792 267.902 187.816 267.884L187.818 267.883C189.978 266.244 192.447 265.715 194.427 265.61C195.415 265.558 196.273 265.613 196.896 265.685C197.207 265.721 197.459 265.761 197.637 265.794C197.788 265.822 197.872 265.841 197.897 265.848C197.904 265.849 197.906 265.85 197.905 265.849L197.923 265.855L197.941 265.86C197.941 265.86 197.949 265.862 197.964 265.874C197.98 265.888 197.999 265.908 198.015 265.935C198.031 265.961 198.04 265.988 198.044 266.008C198.047 266.024 198.047 266.033 198.046 266.035C198.046 266.037 198.042 266.045 198.032 266.057C198.019 266.074 197.998 266.092 197.972 266.108C197.945 266.124 197.919 266.134 197.898 266.138C197.88 266.141 197.872 266.14 197.871 266.14ZM197.871 270.202L197.871 270.202L197.812 270.187H197.79L197.761 270.182C197.716 270.174 197.649 270.163 197.564 270.149C197.395 270.122 197.153 270.087 196.854 270.055C196.256 269.99 195.424 269.937 194.465 269.983C192.567 270.073 190.131 270.55 188.038 272.131C187.965 272.161 187.902 272.169 187.858 272.163C187.823 272.159 187.796 272.148 187.771 272.119C187.762 272.101 187.754 272.071 187.758 272.038C187.76 272.021 187.765 272.007 187.773 271.993C187.78 271.981 187.792 271.964 187.816 271.947L187.818 271.945C189.978 270.307 192.447 269.777 194.427 269.673C195.415 269.621 196.273 269.675 196.896 269.747C197.207 269.783 197.459 269.823 197.637 269.856C197.788 269.884 197.872 269.904 197.897 269.91C197.904 269.912 197.906 269.912 197.905 269.912L197.923 269.918L197.941 269.922C197.942 269.922 197.95 269.925 197.964 269.937C197.98 269.95 197.999 269.971 198.015 269.997C198.031 270.024 198.04 270.05 198.044 270.071C198.047 270.087 198.047 270.095 198.046 270.097C198.046 270.099 198.042 270.107 198.032 270.12C198.019 270.136 197.998 270.155 197.972 270.171C197.945 270.187 197.919 270.196 197.898 270.2C197.88 270.204 197.872 270.202 197.871 270.202ZM197.871 274.186L197.812 274.171H197.79L197.761 274.167C197.716 274.159 197.649 274.147 197.564 274.133C197.395 274.106 197.153 274.071 196.854 274.039C196.256 273.974 195.424 273.922 194.465 273.967C192.554 274.057 190.098 274.541 187.996 276.148C187.946 276.184 187.91 276.185 187.886 276.181C187.86 276.176 187.816 276.159 187.771 276.104C187.762 276.086 187.754 276.056 187.758 276.023C187.76 276.006 187.765 275.991 187.773 275.978C187.78 275.965 187.792 275.949 187.816 275.931L187.818 275.929C189.978 274.291 192.447 273.761 194.427 273.657C195.415 273.605 196.273 273.66 196.896 273.731C197.207 273.767 197.459 273.807 197.637 273.84C197.788 273.868 197.872 273.888 197.897 273.894C197.904 273.896 197.906 273.896 197.905 273.896L197.923 273.902L197.941 273.906C197.942 273.907 197.95 273.91 197.964 273.921C197.98 273.934 197.999 273.955 198.015 273.981C198.031 274.008 198.04 274.034 198.044 274.055C198.047 274.071 198.047 274.079 198.046 274.081C198.046 274.083 198.042 274.091 198.032 274.104C198.019 274.12 197.998 274.139 197.972 274.155C197.945 274.171 197.919 274.18 197.898 274.184C197.88 274.188 197.871 274.186 197.871 274.186ZM187.847 264.088C187.845 264.088 187.845 264.087 187.845 264.087C187.845 264.087 187.845 264.087 187.847 264.088Z" stroke="url(#paint18_linear_6513_6247)"/>
</g>
</g>
<path d="M81.0692 272.228V282H79.1092V275.644L76.4912 282H75.0072L72.3752 275.644V282H70.4152V272.228H72.6412L75.7492 279.494L78.8572 272.228H81.0692ZM82.503 278.094C82.503 277.31 82.657 276.615 82.965 276.008C83.2823 275.401 83.707 274.935 84.239 274.608C84.7803 274.281 85.3823 274.118 86.045 274.118C86.6237 274.118 87.1277 274.235 87.557 274.468C87.9957 274.701 88.3457 274.995 88.607 275.35V274.244H90.581V282H88.607V280.866C88.355 281.23 88.005 281.533 87.557 281.776C87.1183 282.009 86.6097 282.126 86.031 282.126C85.3777 282.126 84.7803 281.958 84.239 281.622C83.707 281.286 83.2823 280.815 82.965 280.208C82.657 279.592 82.503 278.887 82.503 278.094ZM88.607 278.122C88.607 277.646 88.5137 277.24 88.327 276.904C88.1403 276.559 87.8883 276.297 87.571 276.12C87.2537 275.933 86.913 275.84 86.549 275.84C86.185 275.84 85.849 275.929 85.541 276.106C85.233 276.283 84.981 276.545 84.785 276.89C84.5983 277.226 84.505 277.627 84.505 278.094C84.505 278.561 84.5983 278.971 84.785 279.326C84.981 279.671 85.233 279.937 85.541 280.124C85.8583 280.311 86.1943 280.404 86.549 280.404C86.913 280.404 87.2537 280.315 87.571 280.138C87.8883 279.951 88.1403 279.69 88.327 279.354C88.5137 279.009 88.607 278.598 88.607 278.122ZM91.9913 278.122C91.9913 277.319 92.1546 276.619 92.4813 276.022C92.808 275.415 93.2606 274.949 93.8393 274.622C94.418 274.286 95.0806 274.118 95.8273 274.118C96.7886 274.118 97.582 274.361 98.2073 274.846C98.842 275.322 99.2666 275.994 99.4813 276.862H97.3673C97.2553 276.526 97.064 276.265 96.7933 276.078C96.532 275.882 96.2053 275.784 95.8133 275.784C95.2533 275.784 94.81 275.989 94.4833 276.4C94.1566 276.801 93.9933 277.375 93.9933 278.122C93.9933 278.859 94.1566 279.433 94.4833 279.844C94.81 280.245 95.2533 280.446 95.8133 280.446C96.6066 280.446 97.1246 280.091 97.3673 279.382H99.4813C99.2666 280.222 98.842 280.889 98.2073 281.384C97.5726 281.879 96.7793 282.126 95.8273 282.126C95.0806 282.126 94.418 281.963 93.8393 281.636C93.2606 281.3 92.808 280.833 92.4813 280.236C92.1546 279.629 91.9913 278.925 91.9913 278.122ZM105.285 274.132C105.873 274.132 106.396 274.263 106.853 274.524C107.311 274.776 107.665 275.154 107.917 275.658C108.179 276.153 108.309 276.75 108.309 277.45V282H106.349V277.716C106.349 277.1 106.195 276.629 105.887 276.302C105.579 275.966 105.159 275.798 104.627 275.798C104.086 275.798 103.657 275.966 103.339 276.302C103.031 276.629 102.877 277.1 102.877 277.716V282H100.917V271.64H102.877V275.21C103.129 274.874 103.465 274.613 103.885 274.426C104.305 274.23 104.772 274.132 105.285 274.132ZM111.167 273.32C110.822 273.32 110.532 273.213 110.299 272.998C110.075 272.774 109.963 272.499 109.963 272.172C109.963 271.845 110.075 271.575 110.299 271.36C110.532 271.136 110.822 271.024 111.167 271.024C111.512 271.024 111.797 271.136 112.021 271.36C112.254 271.575 112.371 271.845 112.371 272.172C112.371 272.499 112.254 272.774 112.021 272.998C111.797 273.213 111.512 273.32 111.167 273.32ZM112.133 274.244V282H110.173V274.244H112.133ZM118.368 274.132C119.292 274.132 120.038 274.426 120.608 275.014C121.177 275.593 121.462 276.405 121.462 277.45V282H119.502V277.716C119.502 277.1 119.348 276.629 119.04 276.302C118.732 275.966 118.312 275.798 117.78 275.798C117.238 275.798 116.809 275.966 116.492 276.302C116.184 276.629 116.03 277.1 116.03 277.716V282H114.07V274.244H116.03V275.21C116.291 274.874 116.622 274.613 117.024 274.426C117.434 274.23 117.882 274.132 118.368 274.132ZM130.535 277.954C130.535 278.234 130.517 278.486 130.479 278.71H124.809C124.856 279.27 125.052 279.709 125.397 280.026C125.743 280.343 126.167 280.502 126.671 280.502C127.399 280.502 127.917 280.189 128.225 279.564H130.339C130.115 280.311 129.686 280.927 129.051 281.412C128.417 281.888 127.637 282.126 126.713 282.126C125.967 282.126 125.295 281.963 124.697 281.636C124.109 281.3 123.647 280.829 123.311 280.222C122.985 279.615 122.821 278.915 122.821 278.122C122.821 277.319 122.985 276.615 123.311 276.008C123.638 275.401 124.095 274.935 124.683 274.608C125.271 274.281 125.948 274.118 126.713 274.118C127.451 274.118 128.109 274.277 128.687 274.594C129.275 274.911 129.728 275.364 130.045 275.952C130.372 276.531 130.535 277.198 130.535 277.954ZM128.505 277.394C128.496 276.89 128.314 276.489 127.959 276.19C127.605 275.882 127.171 275.728 126.657 275.728C126.172 275.728 125.761 275.877 125.425 276.176C125.099 276.465 124.898 276.871 124.823 277.394H128.505ZM71.8147 298.446H75.0347V300H69.8547V290.228H71.8147V298.446ZM83.4905 295.954C83.4905 296.234 83.4718 296.486 83.4345 296.71H77.7645C77.8111 297.27 78.0071 297.709 78.3525 298.026C78.6978 298.343 79.1225 298.502 79.6265 298.502C80.3545 298.502 80.8725 298.189 81.1805 297.564H83.2945C83.0705 298.311 82.6411 298.927 82.0065 299.412C81.3718 299.888 80.5925 300.126 79.6685 300.126C78.9218 300.126 78.2498 299.963 77.6525 299.636C77.0645 299.3 76.6025 298.829 76.2665 298.222C75.9398 297.615 75.7765 296.915 75.7765 296.122C75.7765 295.319 75.9398 294.615 76.2665 294.008C76.5931 293.401 77.0505 292.935 77.6385 292.608C78.2265 292.281 78.9031 292.118 79.6685 292.118C80.4058 292.118 81.0638 292.277 81.6425 292.594C82.2305 292.911 82.6831 293.364 83.0005 293.952C83.3271 294.531 83.4905 295.198 83.4905 295.954ZM81.4605 295.394C81.4511 294.89 81.2691 294.489 80.9145 294.19C80.5598 293.882 80.1258 293.728 79.6125 293.728C79.1271 293.728 78.7165 293.877 78.3805 294.176C78.0538 294.465 77.8531 294.871 77.7785 295.394H81.4605ZM84.4171 296.094C84.4171 295.31 84.5711 294.615 84.8791 294.008C85.1964 293.401 85.6211 292.935 86.1531 292.608C86.6944 292.281 87.2964 292.118 87.9591 292.118C88.5377 292.118 89.0417 292.235 89.4711 292.468C89.9097 292.701 90.2597 292.995 90.5211 293.35V292.244H92.4951V300H90.5211V298.866C90.2691 299.23 89.9191 299.533 89.4711 299.776C89.0324 300.009 88.5237 300.126 87.9451 300.126C87.2917 300.126 86.6944 299.958 86.1531 299.622C85.6211 299.286 85.1964 298.815 84.8791 298.208C84.5711 297.592 84.4171 296.887 84.4171 296.094ZM90.5211 296.122C90.5211 295.646 90.4277 295.24 90.2411 294.904C90.0544 294.559 89.8024 294.297 89.4851 294.12C89.1677 293.933 88.8271 293.84 88.4631 293.84C88.0991 293.84 87.7631 293.929 87.4551 294.106C87.1471 294.283 86.8951 294.545 86.6991 294.89C86.5124 295.226 86.4191 295.627 86.4191 296.094C86.4191 296.561 86.5124 296.971 86.6991 297.326C86.8951 297.671 87.1471 297.937 87.4551 298.124C87.7724 298.311 88.1084 298.404 88.4631 298.404C88.8271 298.404 89.1677 298.315 89.4851 298.138C89.8024 297.951 90.0544 297.69 90.2411 297.354C90.4277 297.009 90.5211 296.598 90.5211 296.122ZM96.3694 293.448C96.6214 293.037 96.948 292.715 97.3494 292.482C97.76 292.249 98.2267 292.132 98.7494 292.132V294.19H98.2314C97.6154 294.19 97.1487 294.335 96.8314 294.624C96.5234 294.913 96.3694 295.417 96.3694 296.136V300H94.4094V292.244H96.3694V293.448ZM104.368 292.132C105.292 292.132 106.038 292.426 106.608 293.014C107.177 293.593 107.462 294.405 107.462 295.45V300H105.502V295.716C105.502 295.1 105.348 294.629 105.04 294.302C104.732 293.966 104.312 293.798 103.78 293.798C103.238 293.798 102.809 293.966 102.492 294.302C102.184 294.629 102.03 295.1 102.03 295.716V300H100.07V292.244H102.03V293.21C102.291 292.874 102.622 292.613 103.024 292.426C103.434 292.23 103.882 292.132 104.368 292.132ZM110.319 291.32C109.974 291.32 109.685 291.213 109.451 290.998C109.227 290.774 109.115 290.499 109.115 290.172C109.115 289.845 109.227 289.575 109.451 289.36C109.685 289.136 109.974 289.024 110.319 289.024C110.665 289.024 110.949 289.136 111.173 289.36C111.407 289.575 111.523 289.845 111.523 290.172C111.523 290.499 111.407 290.774 111.173 290.998C110.949 291.213 110.665 291.32 110.319 291.32ZM111.285 292.244V300H109.325V292.244H111.285ZM117.52 292.132C118.444 292.132 119.191 292.426 119.76 293.014C120.329 293.593 120.614 294.405 120.614 295.45V300H118.654V295.716C118.654 295.1 118.5 294.629 118.192 294.302C117.884 293.966 117.464 293.798 116.932 293.798C116.391 293.798 115.961 293.966 115.644 294.302C115.336 294.629 115.182 295.1 115.182 295.716V300H113.222V292.244H115.182V293.21C115.443 292.874 115.775 292.613 116.176 292.426C116.587 292.23 117.035 292.132 117.52 292.132ZM125.516 292.118C126.094 292.118 126.603 292.235 127.042 292.468C127.48 292.692 127.826 292.986 128.078 293.35V292.244H130.052V300.056C130.052 300.775 129.907 301.414 129.618 301.974C129.328 302.543 128.894 302.991 128.316 303.318C127.737 303.654 127.037 303.822 126.216 303.822C125.114 303.822 124.209 303.565 123.5 303.052C122.8 302.539 122.403 301.839 122.31 300.952H124.256C124.358 301.307 124.578 301.587 124.914 301.792C125.259 302.007 125.674 302.114 126.16 302.114C126.729 302.114 127.191 301.941 127.546 301.596C127.9 301.26 128.078 300.747 128.078 300.056V298.852C127.826 299.216 127.476 299.519 127.028 299.762C126.589 300.005 126.085 300.126 125.516 300.126C124.862 300.126 124.265 299.958 123.724 299.622C123.182 299.286 122.753 298.815 122.436 298.208C122.128 297.592 121.974 296.887 121.974 296.094C121.974 295.31 122.128 294.615 122.436 294.008C122.753 293.401 123.178 292.935 123.71 292.608C124.251 292.281 124.853 292.118 125.516 292.118ZM128.078 296.122C128.078 295.646 127.984 295.24 127.798 294.904C127.611 294.559 127.359 294.297 127.042 294.12C126.724 293.933 126.384 293.84 126.02 293.84C125.656 293.84 125.32 293.929 125.012 294.106C124.704 294.283 124.452 294.545 124.256 294.89C124.069 295.226 123.976 295.627 123.976 296.094C123.976 296.561 124.069 296.971 124.256 297.326C124.452 297.671 124.704 297.937 125.012 298.124C125.329 298.311 125.665 298.404 126.02 298.404C126.384 298.404 126.724 298.315 127.042 298.138C127.359 297.951 127.611 297.69 127.798 297.354C127.984 297.009 128.078 296.598 128.078 296.122Z" fill="#303245"/>
<path d="M72.216 70.228C73.2427 70.228 74.1433 70.4287 74.918 70.83C75.702 71.2313 76.304 71.8053 76.724 72.552C77.1533 73.2893 77.368 74.148 77.368 75.128C77.368 76.108 77.1533 76.9667 76.724 77.704C76.304 78.432 75.702 78.9967 74.918 79.398C74.1433 79.7993 73.2427 80 72.216 80H68.8V70.228H72.216ZM72.146 78.334C73.1727 78.334 73.966 78.054 74.526 77.494C75.086 76.934 75.366 76.1453 75.366 75.128C75.366 74.1107 75.086 73.3173 74.526 72.748C73.966 72.1693 73.1727 71.88 72.146 71.88H70.76V78.334H72.146ZM86.0451 75.954C86.0451 76.234 86.0265 76.486 85.9891 76.71H80.3191C80.3658 77.27 80.5618 77.7087 80.9071 78.026C81.2525 78.3433 81.6771 78.502 82.1811 78.502C82.9091 78.502 83.4271 78.1893 83.7351 77.564H85.8491C85.6251 78.3107 85.1958 78.9267 84.5611 79.412C83.9265 79.888 83.1471 80.126 82.2231 80.126C81.4765 80.126 80.8045 79.9627 80.2071 79.636C79.6191 79.3 79.1571 78.8287 78.8211 78.222C78.4945 77.6153 78.3311 76.9153 78.3311 76.122C78.3311 75.3193 78.4945 74.6147 78.8211 74.008C79.1478 73.4013 79.6051 72.9347 80.1931 72.608C80.7811 72.2813 81.4578 72.118 82.2231 72.118C82.9605 72.118 83.6185 72.2767 84.1971 72.594C84.7851 72.9113 85.2378 73.364 85.5551 73.952C85.8818 74.5307 86.0451 75.198 86.0451 75.954ZM84.0151 75.394C84.0058 74.89 83.8238 74.4887 83.4691 74.19C83.1145 73.882 82.6805 73.728 82.1671 73.728C81.6818 73.728 81.2711 73.8773 80.9351 74.176C80.6085 74.4653 80.4078 74.8713 80.3331 75.394H84.0151ZM90.7098 78.194L92.6698 72.244H94.7558L91.8858 80H89.5058L86.6498 72.244H88.7498L90.7098 78.194ZM100.393 80.098C99.478 80.098 98.638 79.8833 97.8726 79.454C97.1073 79.0247 96.5006 78.432 96.0526 77.676C95.6046 76.9107 95.3806 76.0473 95.3806 75.086C95.3806 74.134 95.6046 73.28 96.0526 72.524C96.5006 71.7587 97.1073 71.1613 97.8726 70.732C98.638 70.3027 99.478 70.088 100.393 70.088C101.317 70.088 102.157 70.3027 102.913 70.732C103.678 71.1613 104.28 71.7587 104.719 72.524C105.167 73.28 105.391 74.134 105.391 75.086C105.391 76.0473 105.167 76.9107 104.719 77.676C104.28 78.432 103.678 79.0247 102.913 79.454C102.147 79.8833 101.307 80.098 100.393 80.098ZM100.393 78.348C100.981 78.348 101.499 78.2173 101.947 77.956C102.395 77.6853 102.745 77.3027 102.997 76.808C103.249 76.3133 103.375 75.7393 103.375 75.086C103.375 74.4327 103.249 73.8633 102.997 73.378C102.745 72.8833 102.395 72.5053 101.947 72.244C101.499 71.9827 100.981 71.852 100.393 71.852C99.8046 71.852 99.282 71.9827 98.8246 72.244C98.3766 72.5053 98.0266 72.8833 97.7746 73.378C97.5226 73.8633 97.3966 74.4327 97.3966 75.086C97.3966 75.7393 97.5226 76.3133 97.7746 76.808C98.0266 77.3027 98.3766 77.6853 98.8246 77.956C99.282 78.2173 99.8046 78.348 100.393 78.348ZM108.809 73.364C109.061 73.0093 109.406 72.7153 109.845 72.482C110.293 72.2393 110.801 72.118 111.371 72.118C112.033 72.118 112.631 72.2813 113.163 72.608C113.704 72.9347 114.129 73.4013 114.437 74.008C114.754 74.6053 114.913 75.3007 114.913 76.094C114.913 76.8873 114.754 77.592 114.437 78.208C114.129 78.8147 113.704 79.286 113.163 79.622C112.631 79.958 112.033 80.126 111.371 80.126C110.801 80.126 110.297 80.0093 109.859 79.776C109.429 79.5427 109.079 79.2487 108.809 78.894V83.696H106.849V72.244H108.809V73.364ZM112.911 76.094C112.911 75.6273 112.813 75.226 112.617 74.89C112.43 74.5447 112.178 74.2833 111.861 74.106C111.553 73.9287 111.217 73.84 110.853 73.84C110.498 73.84 110.162 73.9333 109.845 74.12C109.537 74.2973 109.285 74.5587 109.089 74.904C108.902 75.2493 108.809 75.6553 108.809 76.122C108.809 76.5887 108.902 76.9947 109.089 77.34C109.285 77.6853 109.537 77.9513 109.845 78.138C110.162 78.3153 110.498 78.404 110.853 78.404C111.217 78.404 111.553 78.3107 111.861 78.124C112.178 77.9373 112.43 77.6713 112.617 77.326C112.813 76.9807 112.911 76.57 112.911 76.094ZM119.305 80.126C118.67 80.126 118.101 80.014 117.597 79.79C117.093 79.5567 116.692 79.244 116.393 78.852C116.104 78.46 115.945 78.026 115.917 77.55H117.891C117.928 77.8487 118.073 78.096 118.325 78.292C118.586 78.488 118.908 78.586 119.291 78.586C119.664 78.586 119.954 78.5113 120.159 78.362C120.374 78.2127 120.481 78.0213 120.481 77.788C120.481 77.536 120.35 77.3493 120.089 77.228C119.837 77.0973 119.431 76.9573 118.871 76.808C118.292 76.668 117.816 76.5233 117.443 76.374C117.079 76.2247 116.762 75.996 116.491 75.688C116.23 75.38 116.099 74.9647 116.099 74.442C116.099 74.0127 116.22 73.6207 116.463 73.266C116.715 72.9113 117.07 72.6313 117.527 72.426C117.994 72.2207 118.54 72.118 119.165 72.118C120.089 72.118 120.826 72.3513 121.377 72.818C121.928 73.2753 122.231 73.896 122.287 74.68H120.411C120.383 74.372 120.252 74.1293 120.019 73.952C119.795 73.7653 119.492 73.672 119.109 73.672C118.754 73.672 118.479 73.7373 118.283 73.868C118.096 73.9987 118.003 74.1807 118.003 74.414C118.003 74.6753 118.134 74.876 118.395 75.016C118.656 75.1467 119.062 75.282 119.613 75.422C120.173 75.562 120.635 75.7067 120.999 75.856C121.363 76.0053 121.676 76.2387 121.937 76.556C122.208 76.864 122.348 77.2747 122.357 77.788C122.357 78.236 122.231 78.6373 121.979 78.992C121.736 79.3467 121.382 79.6267 120.915 79.832C120.458 80.028 119.921 80.126 119.305 80.126Z" fill="#303245"/>
<path d="M442.51 66.988C443.061 67.0907 443.513 67.366 443.868 67.814C444.223 68.262 444.4 68.7753 444.4 69.354C444.4 69.8767 444.269 70.3387 444.008 70.74C443.756 71.132 443.387 71.44 442.902 71.664C442.417 71.888 441.843 72 441.18 72H436.966V62.228H440.998C441.661 62.228 442.23 62.3353 442.706 62.55C443.191 62.7647 443.555 63.0633 443.798 63.446C444.05 63.8287 444.176 64.2627 444.176 64.748C444.176 65.3173 444.022 65.7933 443.714 66.176C443.415 66.5587 443.014 66.8293 442.51 66.988ZM438.926 66.26H440.718C441.185 66.26 441.544 66.1573 441.796 65.952C442.048 65.7373 442.174 65.434 442.174 65.042C442.174 64.65 442.048 64.3467 441.796 64.132C441.544 63.9173 441.185 63.81 440.718 63.81H438.926V66.26ZM440.9 70.404C441.376 70.404 441.745 70.292 442.006 70.068C442.277 69.844 442.412 69.5267 442.412 69.116C442.412 68.696 442.272 68.3693 441.992 68.136C441.712 67.8933 441.334 67.772 440.858 67.772H438.926V70.404H440.9ZM453.284 64.244V72H451.31V71.02C451.058 71.356 450.727 71.622 450.316 71.818C449.915 72.0047 449.476 72.098 449 72.098C448.393 72.098 447.857 71.972 447.39 71.72C446.923 71.4587 446.555 71.0807 446.284 70.586C446.023 70.082 445.892 69.4847 445.892 68.794V64.244H447.852V68.514C447.852 69.13 448.006 69.606 448.314 69.942C448.622 70.2687 449.042 70.432 449.574 70.432C450.115 70.432 450.54 70.2687 450.848 69.942C451.156 69.606 451.31 69.13 451.31 68.514V64.244H453.284ZM458.186 72.126C457.551 72.126 456.982 72.014 456.478 71.79C455.974 71.5567 455.573 71.244 455.274 70.852C454.985 70.46 454.826 70.026 454.798 69.55H456.772C456.809 69.8487 456.954 70.096 457.206 70.292C457.467 70.488 457.789 70.586 458.172 70.586C458.545 70.586 458.835 70.5113 459.04 70.362C459.255 70.2127 459.362 70.0213 459.362 69.788C459.362 69.536 459.231 69.3493 458.97 69.228C458.718 69.0973 458.312 68.9573 457.752 68.808C457.173 68.668 456.697 68.5233 456.324 68.374C455.96 68.2247 455.643 67.996 455.372 67.688C455.111 67.38 454.98 66.9647 454.98 66.442C454.98 66.0127 455.101 65.6207 455.344 65.266C455.596 64.9113 455.951 64.6313 456.408 64.426C456.875 64.2207 457.421 64.118 458.046 64.118C458.97 64.118 459.707 64.3513 460.258 64.818C460.809 65.2753 461.112 65.896 461.168 66.68H459.292C459.264 66.372 459.133 66.1293 458.9 65.952C458.676 65.7653 458.373 65.672 457.99 65.672C457.635 65.672 457.36 65.7373 457.164 65.868C456.977 65.9987 456.884 66.1807 456.884 66.414C456.884 66.6753 457.015 66.876 457.276 67.016C457.537 67.1467 457.943 67.282 458.494 67.422C459.054 67.562 459.516 67.7067 459.88 67.856C460.244 68.0053 460.557 68.2387 460.818 68.556C461.089 68.864 461.229 69.2747 461.238 69.788C461.238 70.236 461.112 70.6373 460.86 70.992C460.617 71.3467 460.263 71.6267 459.796 71.832C459.339 72.028 458.802 72.126 458.186 72.126ZM463.841 63.32C463.496 63.32 463.206 63.2127 462.973 62.998C462.749 62.774 462.637 62.4987 462.637 62.172C462.637 61.8453 462.749 61.5747 462.973 61.36C463.206 61.136 463.496 61.024 463.841 61.024C464.186 61.024 464.471 61.136 464.695 61.36C464.928 61.5747 465.045 61.8453 465.045 62.172C465.045 62.4987 464.928 62.774 464.695 62.998C464.471 63.2127 464.186 63.32 463.841 63.32ZM464.807 64.244V72H462.847V64.244H464.807ZM471.041 64.132C471.965 64.132 472.712 64.426 473.281 65.014C473.851 65.5927 474.135 66.4047 474.135 67.45V72H472.175V67.716C472.175 67.1 472.021 66.6287 471.713 66.302C471.405 65.966 470.985 65.798 470.453 65.798C469.912 65.798 469.483 65.966 469.165 66.302C468.857 66.6287 468.703 67.1 468.703 67.716V72H466.743V64.244H468.703V65.21C468.965 64.874 469.296 64.6127 469.697 64.426C470.108 64.23 470.556 64.132 471.041 64.132ZM483.209 67.954C483.209 68.234 483.191 68.486 483.153 68.71H477.483C477.53 69.27 477.726 69.7087 478.071 70.026C478.417 70.3433 478.841 70.502 479.345 70.502C480.073 70.502 480.591 70.1893 480.899 69.564H483.013C482.789 70.3107 482.36 70.9267 481.725 71.412C481.091 71.888 480.311 72.126 479.387 72.126C478.641 72.126 477.969 71.9627 477.371 71.636C476.783 71.3 476.321 70.8287 475.985 70.222C475.659 69.6153 475.495 68.9153 475.495 68.122C475.495 67.3193 475.659 66.6147 475.985 66.008C476.312 65.4013 476.769 64.9347 477.357 64.608C477.945 64.2813 478.622 64.118 479.387 64.118C480.125 64.118 480.783 64.2767 481.361 64.594C481.949 64.9113 482.402 65.364 482.719 65.952C483.046 66.5307 483.209 67.198 483.209 67.954ZM481.179 67.394C481.17 66.89 480.988 66.4887 480.633 66.19C480.279 65.882 479.845 65.728 479.331 65.728C478.846 65.728 478.435 65.8773 478.099 66.176C477.773 66.4653 477.572 66.8713 477.497 67.394H481.179ZM487.608 72.126C486.973 72.126 486.404 72.014 485.9 71.79C485.396 71.5567 484.994 71.244 484.696 70.852C484.406 70.46 484.248 70.026 484.22 69.55H486.194C486.231 69.8487 486.376 70.096 486.628 70.292C486.889 70.488 487.211 70.586 487.594 70.586C487.967 70.586 488.256 70.5113 488.462 70.362C488.676 70.2127 488.784 70.0213 488.784 69.788C488.784 69.536 488.653 69.3493 488.392 69.228C488.14 69.0973 487.734 68.9573 487.174 68.808C486.595 68.668 486.119 68.5233 485.746 68.374C485.382 68.2247 485.064 67.996 484.794 67.688C484.532 67.38 484.402 66.9647 484.402 66.442C484.402 66.0127 484.523 65.6207 484.766 65.266C485.018 64.9113 485.372 64.6313 485.83 64.426C486.296 64.2207 486.842 64.118 487.468 64.118C488.392 64.118 489.129 64.3513 489.68 64.818C490.23 65.2753 490.534 65.896 490.59 66.68H488.714C488.686 66.372 488.555 66.1293 488.322 65.952C488.098 65.7653 487.794 65.672 487.412 65.672C487.057 65.672 486.782 65.7373 486.586 65.868C486.399 65.9987 486.306 66.1807 486.306 66.414C486.306 66.6753 486.436 66.876 486.698 67.016C486.959 67.1467 487.365 67.282 487.916 67.422C488.476 67.562 488.938 67.7067 489.302 67.856C489.666 68.0053 489.978 68.2387 490.24 68.556C490.51 68.864 490.65 69.2747 490.66 69.788C490.66 70.236 490.534 70.6373 490.282 70.992C490.039 71.3467 489.684 71.6267 489.218 71.832C488.76 72.028 488.224 72.126 487.608 72.126ZM495.237 72.126C494.602 72.126 494.033 72.014 493.529 71.79C493.025 71.5567 492.623 71.244 492.325 70.852C492.035 70.46 491.877 70.026 491.849 69.55H493.823C493.86 69.8487 494.005 70.096 494.257 70.292C494.518 70.488 494.84 70.586 495.223 70.586C495.596 70.586 495.885 70.5113 496.091 70.362C496.305 70.2127 496.413 70.0213 496.413 69.788C496.413 69.536 496.282 69.3493 496.021 69.228C495.769 69.0973 495.363 68.9573 494.803 68.808C494.224 68.668 493.748 68.5233 493.375 68.374C493.011 68.2247 492.693 67.996 492.423 67.688C492.161 67.38 492.031 66.9647 492.031 66.442C492.031 66.0127 492.152 65.6207 492.395 65.266C492.647 64.9113 493.001 64.6313 493.459 64.426C493.925 64.2207 494.471 64.118 495.097 64.118C496.021 64.118 496.758 64.3513 497.309 64.818C497.859 65.2753 498.163 65.896 498.219 66.68H496.343C496.315 66.372 496.184 66.1293 495.951 65.952C495.727 65.7653 495.423 65.672 495.041 65.672C494.686 65.672 494.411 65.7373 494.215 65.868C494.028 65.9987 493.935 66.1807 493.935 66.414C493.935 66.6753 494.065 66.876 494.327 67.016C494.588 67.1467 494.994 67.282 495.545 67.422C496.105 67.562 496.567 67.7067 496.931 67.856C497.295 68.0053 497.607 68.2387 497.869 68.556C498.139 68.864 498.279 69.2747 498.289 69.788C498.289 70.236 498.163 70.6373 497.911 70.992C497.668 71.3467 497.313 71.6267 496.847 71.832C496.389 72.028 495.853 72.126 495.237 72.126ZM436.49 85.1C436.49 84.1387 436.705 83.28 437.134 82.524C437.573 81.7587 438.165 81.166 438.912 80.746C439.668 80.3167 440.513 80.102 441.446 80.102C442.538 80.102 443.495 80.382 444.316 80.942C445.137 81.502 445.711 82.2767 446.038 83.266H443.784C443.56 82.7993 443.243 82.4493 442.832 82.216C442.431 81.9827 441.964 81.866 441.432 81.866C440.863 81.866 440.354 82.0013 439.906 82.272C439.467 82.5333 439.122 82.9067 438.87 83.392C438.627 83.8773 438.506 84.4467 438.506 85.1C438.506 85.744 438.627 86.3133 438.87 86.808C439.122 87.2933 439.467 87.6713 439.906 87.942C440.354 88.2033 440.863 88.334 441.432 88.334C441.964 88.334 442.431 88.2173 442.832 87.984C443.243 87.7413 443.56 87.3867 443.784 86.92H446.038C445.711 87.9187 445.137 88.698 444.316 89.258C443.504 89.8087 442.547 90.084 441.446 90.084C440.513 90.084 439.668 89.874 438.912 89.454C438.165 89.0247 437.573 88.432 437.134 87.676C436.705 86.92 436.49 86.0613 436.49 85.1ZM451.156 90.126C450.409 90.126 449.737 89.9627 449.14 89.636C448.543 89.3 448.071 88.8287 447.726 88.222C447.39 87.6153 447.222 86.9153 447.222 86.122C447.222 85.3287 447.395 84.6287 447.74 84.022C448.095 83.4153 448.575 82.9487 449.182 82.622C449.789 82.286 450.465 82.118 451.212 82.118C451.959 82.118 452.635 82.286 453.242 82.622C453.849 82.9487 454.325 83.4153 454.67 84.022C455.025 84.6287 455.202 85.3287 455.202 86.122C455.202 86.9153 455.02 87.6153 454.656 88.222C454.301 88.8287 453.816 89.3 453.2 89.636C452.593 89.9627 451.912 90.126 451.156 90.126ZM451.156 88.418C451.511 88.418 451.842 88.334 452.15 88.166C452.467 87.9887 452.719 87.7273 452.906 87.382C453.093 87.0367 453.186 86.6167 453.186 86.122C453.186 85.3847 452.99 84.82 452.598 84.428C452.215 84.0267 451.744 83.826 451.184 83.826C450.624 83.826 450.153 84.0267 449.77 84.428C449.397 84.82 449.21 85.3847 449.21 86.122C449.21 86.8593 449.392 87.4287 449.756 87.83C450.129 88.222 450.596 88.418 451.156 88.418ZM460.938 82.132C461.862 82.132 462.608 82.426 463.178 83.014C463.747 83.5927 464.032 84.4047 464.032 85.45V90H462.072V85.716C462.072 85.1 461.918 84.6287 461.61 84.302C461.302 83.966 460.882 83.798 460.35 83.798C459.808 83.798 459.379 83.966 459.062 84.302C458.754 84.6287 458.6 85.1 458.6 85.716V90H456.64V82.244H458.6V83.21C458.861 82.874 459.192 82.6127 459.594 82.426C460.004 82.23 460.452 82.132 460.938 82.132ZM468.178 83.854V87.606C468.178 87.8673 468.238 88.0587 468.36 88.18C468.49 88.292 468.705 88.348 469.004 88.348H469.914V90H468.682C467.03 90 466.204 89.1973 466.204 87.592V83.854H465.28V82.244H466.204V80.326H468.178V82.244H469.914V83.854H468.178ZM478.533 85.954C478.533 86.234 478.515 86.486 478.477 86.71H472.807C472.854 87.27 473.05 87.7087 473.395 88.026C473.741 88.3433 474.165 88.502 474.669 88.502C475.397 88.502 475.915 88.1893 476.223 87.564H478.337C478.113 88.3107 477.684 88.9267 477.049 89.412C476.415 89.888 475.635 90.126 474.711 90.126C473.965 90.126 473.293 89.9627 472.695 89.636C472.107 89.3 471.645 88.8287 471.309 88.222C470.983 87.6153 470.819 86.9153 470.819 86.122C470.819 85.3193 470.983 84.6147 471.309 84.008C471.636 83.4013 472.093 82.9347 472.681 82.608C473.269 82.2813 473.946 82.118 474.711 82.118C475.449 82.118 476.107 82.2767 476.685 82.594C477.273 82.9113 477.726 83.364 478.043 83.952C478.37 84.5307 478.533 85.198 478.533 85.954ZM476.503 85.394C476.494 84.89 476.312 84.4887 475.957 84.19C475.603 83.882 475.169 83.728 474.655 83.728C474.17 83.728 473.759 83.8773 473.423 84.176C473.097 84.4653 472.896 84.8713 472.821 85.394H476.503ZM484.248 90L482.652 87.592L481.238 90H479.138L481.672 86.108L479.11 82.244H481.322L482.904 84.638L484.332 82.244H486.432L483.884 86.108L486.46 90H484.248ZM489.807 83.854V87.606C489.807 87.8673 489.867 88.0587 489.989 88.18C490.119 88.292 490.334 88.348 490.633 88.348H491.543V90H490.311C488.659 90 487.833 89.1973 487.833 87.592V83.854H486.909V82.244H487.833V80.326H489.807V82.244H491.543V83.854H489.807Z" fill="#303245"/>
<path d="M440.926 290.81V293.26H444.216V294.814H440.926V297.404H444.636V299H438.966V289.214H444.636V290.81H440.926ZM450.715 291.132C451.639 291.132 452.386 291.426 452.955 292.014C453.525 292.593 453.809 293.405 453.809 294.45V299H451.849V294.716C451.849 294.1 451.695 293.629 451.387 293.302C451.079 292.966 450.659 292.798 450.127 292.798C449.586 292.798 449.157 292.966 448.839 293.302C448.531 293.629 448.377 294.1 448.377 294.716V299H446.417V291.244H448.377V292.21C448.639 291.874 448.97 291.613 449.371 291.426C449.782 291.23 450.23 291.132 450.715 291.132ZM458.711 291.118C459.29 291.118 459.798 291.235 460.237 291.468C460.676 291.692 461.021 291.986 461.273 292.35V291.244H463.247V299.056C463.247 299.775 463.102 300.414 462.813 300.974C462.524 301.543 462.09 301.991 461.511 302.318C460.932 302.654 460.232 302.822 459.411 302.822C458.31 302.822 457.404 302.565 456.695 302.052C455.995 301.539 455.598 300.839 455.505 299.952H457.451C457.554 300.307 457.773 300.587 458.109 300.792C458.454 301.007 458.87 301.114 459.355 301.114C459.924 301.114 460.386 300.941 460.741 300.596C461.096 300.26 461.273 299.747 461.273 299.056V297.852C461.021 298.216 460.671 298.519 460.223 298.762C459.784 299.005 459.28 299.126 458.711 299.126C458.058 299.126 457.46 298.958 456.919 298.622C456.378 298.286 455.948 297.815 455.631 297.208C455.323 296.592 455.169 295.887 455.169 295.094C455.169 294.31 455.323 293.615 455.631 293.008C455.948 292.401 456.373 291.935 456.905 291.608C457.446 291.281 458.048 291.118 458.711 291.118ZM461.273 295.122C461.273 294.646 461.18 294.24 460.993 293.904C460.806 293.559 460.554 293.297 460.237 293.12C459.92 292.933 459.579 292.84 459.215 292.84C458.851 292.84 458.515 292.929 458.207 293.106C457.899 293.283 457.647 293.545 457.451 293.89C457.264 294.226 457.171 294.627 457.171 295.094C457.171 295.561 457.264 295.971 457.451 296.326C457.647 296.671 457.899 296.937 458.207 297.124C458.524 297.311 458.86 297.404 459.215 297.404C459.579 297.404 459.92 297.315 460.237 297.138C460.554 296.951 460.806 296.69 460.993 296.354C461.18 296.009 461.273 295.598 461.273 295.122ZM466.155 290.32C465.81 290.32 465.521 290.213 465.287 289.998C465.063 289.774 464.951 289.499 464.951 289.172C464.951 288.845 465.063 288.575 465.287 288.36C465.521 288.136 465.81 288.024 466.155 288.024C466.501 288.024 466.785 288.136 467.009 288.36C467.243 288.575 467.359 288.845 467.359 289.172C467.359 289.499 467.243 289.774 467.009 289.998C466.785 290.213 466.501 290.32 466.155 290.32ZM467.121 291.244V299H465.161V291.244H467.121ZM473.356 291.132C474.28 291.132 475.026 291.426 475.596 292.014C476.165 292.593 476.45 293.405 476.45 294.45V299H474.49V294.716C474.49 294.1 474.336 293.629 474.028 293.302C473.72 292.966 473.3 292.798 472.768 292.798C472.226 292.798 471.797 292.966 471.48 293.302C471.172 293.629 471.018 294.1 471.018 294.716V299H469.058V291.244H471.018V292.21C471.279 291.874 471.61 291.613 472.012 291.426C472.422 291.23 472.87 291.132 473.356 291.132ZM485.524 294.954C485.524 295.234 485.505 295.486 485.468 295.71H479.798C479.844 296.27 480.04 296.709 480.386 297.026C480.731 297.343 481.156 297.502 481.66 297.502C482.388 297.502 482.906 297.189 483.214 296.564H485.328C485.104 297.311 484.674 297.927 484.04 298.412C483.405 298.888 482.626 299.126 481.702 299.126C480.955 299.126 480.283 298.963 479.686 298.636C479.098 298.3 478.636 297.829 478.3 297.222C477.973 296.615 477.81 295.915 477.81 295.122C477.81 294.319 477.973 293.615 478.3 293.008C478.626 292.401 479.084 291.935 479.672 291.608C480.26 291.281 480.936 291.118 481.702 291.118C482.439 291.118 483.097 291.277 483.676 291.594C484.264 291.911 484.716 292.364 485.034 292.952C485.36 293.531 485.524 294.198 485.524 294.954ZM483.494 294.394C483.484 293.89 483.302 293.489 482.948 293.19C482.593 292.882 482.159 292.728 481.646 292.728C481.16 292.728 480.75 292.877 480.414 293.176C480.087 293.465 479.886 293.871 479.812 294.394H483.494ZM494.164 294.954C494.164 295.234 494.146 295.486 494.108 295.71H488.438C488.485 296.27 488.681 296.709 489.026 297.026C489.372 297.343 489.796 297.502 490.3 297.502C491.028 297.502 491.546 297.189 491.854 296.564H493.968C493.744 297.311 493.315 297.927 492.68 298.412C492.046 298.888 491.266 299.126 490.342 299.126C489.596 299.126 488.924 298.963 488.326 298.636C487.738 298.3 487.276 297.829 486.94 297.222C486.614 296.615 486.45 295.915 486.45 295.122C486.45 294.319 486.614 293.615 486.94 293.008C487.267 292.401 487.724 291.935 488.312 291.608C488.9 291.281 489.577 291.118 490.342 291.118C491.08 291.118 491.738 291.277 492.316 291.594C492.904 291.911 493.357 292.364 493.674 292.952C494.001 293.531 494.164 294.198 494.164 294.954ZM492.134 294.394C492.125 293.89 491.943 293.489 491.588 293.19C491.234 292.882 490.8 292.728 490.286 292.728C489.801 292.728 489.39 292.877 489.054 293.176C488.728 293.465 488.527 293.871 488.452 294.394H492.134ZM497.555 292.448C497.807 292.037 498.134 291.715 498.535 291.482C498.946 291.249 499.412 291.132 499.935 291.132V293.19H499.417C498.801 293.19 498.334 293.335 498.017 293.624C497.709 293.913 497.555 294.417 497.555 295.136V299H495.595V291.244H497.555V292.448ZM502.249 290.32C501.904 290.32 501.614 290.213 501.381 289.998C501.157 289.774 501.045 289.499 501.045 289.172C501.045 288.845 501.157 288.575 501.381 288.36C501.614 288.136 501.904 288.024 502.249 288.024C502.594 288.024 502.879 288.136 503.103 288.36C503.336 288.575 503.453 288.845 503.453 289.172C503.453 289.499 503.336 289.774 503.103 289.998C502.879 290.213 502.594 290.32 502.249 290.32ZM503.215 291.244V299H501.255V291.244H503.215ZM509.45 291.132C510.374 291.132 511.12 291.426 511.69 292.014C512.259 292.593 512.544 293.405 512.544 294.45V299H510.584V294.716C510.584 294.1 510.43 293.629 510.122 293.302C509.814 292.966 509.394 292.798 508.862 292.798C508.32 292.798 507.891 292.966 507.574 293.302C507.266 293.629 507.112 294.1 507.112 294.716V299H505.152V291.244H507.112V292.21C507.373 291.874 507.704 291.613 508.106 291.426C508.516 291.23 508.964 291.132 509.45 291.132ZM517.445 291.118C518.024 291.118 518.533 291.235 518.971 291.468C519.41 291.692 519.755 291.986 520.007 292.35V291.244H521.981V299.056C521.981 299.775 521.837 300.414 521.547 300.974C521.258 301.543 520.824 301.991 520.245 302.318C519.667 302.654 518.967 302.822 518.145 302.822C517.044 302.822 516.139 302.565 515.429 302.052C514.729 301.539 514.333 300.839 514.239 299.952H516.185C516.288 300.307 516.507 300.587 516.843 300.792C517.189 301.007 517.604 301.114 518.089 301.114C518.659 301.114 519.121 300.941 519.475 300.596C519.83 300.26 520.007 299.747 520.007 299.056V297.852C519.755 298.216 519.405 298.519 518.957 298.762C518.519 299.005 518.015 299.126 517.445 299.126C516.792 299.126 516.195 298.958 515.653 298.622C515.112 298.286 514.683 297.815 514.365 297.208C514.057 296.592 513.903 295.887 513.903 295.094C513.903 294.31 514.057 293.615 514.365 293.008C514.683 292.401 515.107 291.935 515.639 291.608C516.181 291.281 516.783 291.118 517.445 291.118ZM520.007 295.122C520.007 294.646 519.914 294.24 519.727 293.904C519.541 293.559 519.289 293.297 518.971 293.12C518.654 292.933 518.313 292.84 517.949 292.84C517.585 292.84 517.249 292.929 516.941 293.106C516.633 293.283 516.381 293.545 516.185 293.89C515.999 294.226 515.905 294.627 515.905 295.094C515.905 295.561 515.999 295.971 516.185 296.326C516.381 296.671 516.633 296.937 516.941 297.124C517.259 297.311 517.595 297.404 517.949 297.404C518.313 297.404 518.654 297.315 518.971 297.138C519.289 296.951 519.541 296.69 519.727 296.354C519.914 296.009 520.007 295.598 520.007 295.122Z" fill="#303245"/>
<path d="M271.211 183.538L271.25 183.589C271.77 176.017 278.161 170.033 285.977 170.033C285.981 170.033 285.985 170.033 285.985 170.033C285.989 170.033 285.993 170.033 285.993 170.033C289.974 170.033 293.588 171.588 296.242 174.113V158.916C293.073 157.683 289.615 157 285.997 157C270.534 157 258 169.346 258 184.578C258 194.461 263.28 203.126 271.211 207.994V183.538Z" fill="#00E6FF"/>
<path d="M300.766 161.148V185.619L300.726 185.569C300.211 193.14 293.816 199.125 286 199.125C285.996 199.125 285.992 199.125 285.992 199.125C285.988 199.125 285.984 199.125 285.984 199.125C282.003 199.125 278.388 197.57 275.734 195.045V210.238C278.916 211.475 282.377 212.162 286.004 212.162C301.467 212.162 314 199.816 314 184.584C314 174.685 308.708 166.016 300.766 161.148Z" fill="#007AFF"/>
<path d="M294.548 179.003C294.458 179.472 294.292 179.934 294.036 180.368C292.812 182.459 290.103 183.173 287.98 181.966C285.858 180.76 285.133 178.092 286.358 176.001C286.693 175.431 287.142 174.965 287.653 174.612C287.118 174.527 286.567 174.48 286.004 174.48C280.341 174.48 275.754 178.999 275.754 184.577C275.754 190.154 280.345 194.673 286.004 194.673C291.662 194.673 296.253 190.154 296.253 184.577C296.253 182.517 295.627 180.601 294.548 179.003Z" fill="#9D60FB"/>
</g>
<defs>
<filter id="filter0_bi_6513_6247" x="146.341" y="57.0703" width="76.5244" height="56.2109" filterUnits="userSpaceOnUse" color-interpolation-filters="sRGB">
<feFlood flood-opacity="0" result="BackgroundImageFix"/>
<feGaussianBlur in="BackgroundImageFix" stdDeviation="5"/>
<feComposite in2="SourceAlpha" operator="in" result="effect1_backgroundBlur_6513_6247"/>
<feBlend mode="normal" in="SourceGraphic" in2="effect1_backgroundBlur_6513_6247" result="shape"/>
<feColorMatrix in="SourceAlpha" type="matrix" values="0 0 0 0 0 0 0 0 0 0 0 0 0 0 0 0 0 0 127 0" result="hardAlpha"/>
<feOffset dx="2" dy="2"/>
<feGaussianBlur stdDeviation="2"/>
<feComposite in2="hardAlpha" operator="arithmetic" k2="-1" k3="1"/>
<feColorMatrix type="matrix" values="0 0 0 0 1 0 0 0 0 1 0 0 0 0 1 0 0 0 0.25 0"/>
<feBlend mode="normal" in2="shape" result="effect2_innerShadow_6513_6247"/>
</filter>
<filter id="filter1_bi_6513_6247" x="351.906" y="77.2656" width="62.1875" height="34.4844" filterUnits="userSpaceOnUse" color-interpolation-filters="sRGB">
<feFlood flood-opacity="0" result="BackgroundImageFix"/>
<feGaussianBlur in="BackgroundImageFix" stdDeviation="5"/>
<feComposite in2="SourceAlpha" operator="in" result="effect1_backgroundBlur_6513_6247"/>
<feBlend mode="normal" in="SourceGraphic" in2="effect1_backgroundBlur_6513_6247" result="shape"/>
<feColorMatrix in="SourceAlpha" type="matrix" values="0 0 0 0 0 0 0 0 0 0 0 0 0 0 0 0 0 0 127 0" result="hardAlpha"/>
<feOffset dx="2" dy="2"/>
<feGaussianBlur stdDeviation="2"/>
<feComposite in2="hardAlpha" operator="arithmetic" k2="-1" k3="1"/>
<feColorMatrix type="matrix" values="0 0 0 0 1 0 0 0 0 1 0 0 0 0 1 0 0 0 0.25 0"/>
<feBlend mode="normal" in2="shape" result="effect2_innerShadow_6513_6247"/>
</filter>
<filter id="filter2_bi_6513_6247" x="351.908" y="54.25" width="62.1875" height="42.6562" filterUnits="userSpaceOnUse" color-interpolation-filters="sRGB">
<feFlood flood-opacity="0" result="BackgroundImageFix"/>
<feGaussianBlur in="BackgroundImageFix" stdDeviation="5"/>
<feComposite in2="SourceAlpha" operator="in" result="effect1_backgroundBlur_6513_6247"/>
<feBlend mode="normal" in="SourceGraphic" in2="effect1_backgroundBlur_6513_6247" result="shape"/>
<feColorMatrix in="SourceAlpha" type="matrix" values="0 0 0 0 0 0 0 0 0 0 0 0 0 0 0 0 0 0 127 0" result="hardAlpha"/>
<feOffset dx="2" dy="2"/>
<feGaussianBlur stdDeviation="2"/>
<feComposite in2="hardAlpha" operator="arithmetic" k2="-1" k3="1"/>
<feColorMatrix type="matrix" values="0 0 0 0 1 0 0 0 0 1 0 0 0 0 1 0 0 0 0.25 0"/>
<feBlend mode="normal" in2="shape" result="effect2_innerShadow_6513_6247"/>
</filter>
<filter id="filter3_bi_6513_6247" x="369.094" y="73.7812" width="27.8125" height="26.25" filterUnits="userSpaceOnUse" color-interpolation-filters="sRGB">
<feFlood flood-opacity="0" result="BackgroundImageFix"/>
<feGaussianBlur in="BackgroundImageFix" stdDeviation="5"/>
<feComposite in2="SourceAlpha" operator="in" result="effect1_backgroundBlur_6513_6247"/>
<feBlend mode="normal" in="SourceGraphic" in2="effect1_backgroundBlur_6513_6247" result="shape"/>
<feColorMatrix in="SourceAlpha" type="matrix" values="0 0 0 0 0 0 0 0 0 0 0 0 0 0 0 0 0 0 127 0" result="hardAlpha"/>
<feOffset dx="2" dy="2"/>
<feGaussianBlur stdDeviation="2"/>
<feComposite in2="hardAlpha" operator="arithmetic" k2="-1" k3="1"/>
<feColorMatrix type="matrix" values="0 0 0 0 1 0 0 0 0 1 0 0 0 0 1 0 0 0 0.25 0"/>
<feBlend mode="normal" in2="shape" result="effect2_innerShadow_6513_6247"/>
</filter>
<filter id="filter4_bi_6513_6247" x="356.086" y="249.086" width="67.8281" height="67.8281" filterUnits="userSpaceOnUse" color-interpolation-filters="sRGB">
<feFlood flood-opacity="0" result="BackgroundImageFix"/>
<feGaussianBlur in="BackgroundImageFix" stdDeviation="5"/>
<feComposite in2="SourceAlpha" operator="in" result="effect1_backgroundBlur_6513_6247"/>
<feBlend mode="normal" in="SourceGraphic" in2="effect1_backgroundBlur_6513_6247" result="shape"/>
<feColorMatrix in="SourceAlpha" type="matrix" values="0 0 0 0 0 0 0 0 0 0 0 0 0 0 0 0 0 0 127 0" result="hardAlpha"/>
<feOffset dx="4" dy="4"/>
<feGaussianBlur stdDeviation="2"/>
<feComposite in2="hardAlpha" operator="arithmetic" k2="-1" k3="1"/>
<feColorMatrix type="matrix" values="0 0 0 0 1 0 0 0 0 1 0 0 0 0 1 0 0 0 0.25 0"/>
<feBlend mode="normal" in2="shape" result="effect2_innerShadow_6513_6247"/>
</filter>
<filter id="filter5_bi_6513_6247" x="153.219" y="275.375" width="61.5625" height="40.625" filterUnits="userSpaceOnUse" color-interpolation-filters="sRGB">
<feFlood flood-opacity="0" result="BackgroundImageFix"/>
<feGaussianBlur in="BackgroundImageFix" stdDeviation="5"/>
<feComposite in2="SourceAlpha" operator="in" result="effect1_backgroundBlur_6513_6247"/>
<feBlend mode="normal" in="SourceGraphic" in2="effect1_backgroundBlur_6513_6247" result="shape"/>
<feColorMatrix in="SourceAlpha" type="matrix" values="0 0 0 0 0 0 0 0 0 0 0 0 0 0 0 0 0 0 127 0" result="hardAlpha"/>
<feOffset dx="2" dy="2"/>
<feGaussianBlur stdDeviation="2"/>
<feComposite in2="hardAlpha" operator="arithmetic" k2="-1" k3="1"/>
<feColorMatrix type="matrix" values="0 0 0 0 1 0 0 0 0 1 0 0 0 0 1 0 0 0 0.25 0"/>
<feBlend mode="normal" in2="shape" result="effect2_innerShadow_6513_6247"/>
</filter>
<filter id="filter6_bi_6513_6247" x="153.299" y="246" width="61.4062" height="51.0938" filterUnits="userSpaceOnUse" color-interpolation-filters="sRGB">
<feFlood flood-opacity="0" result="BackgroundImageFix"/>
<feGaussianBlur in="BackgroundImageFix" stdDeviation="5"/>
<feComposite in2="SourceAlpha" operator="in" result="effect1_backgroundBlur_6513_6247"/>
<feBlend mode="normal" in="SourceGraphic" in2="effect1_backgroundBlur_6513_6247" result="shape"/>
<feColorMatrix in="SourceAlpha" type="matrix" values="0 0 0 0 0 0 0 0 0 0 0 0 0 0 0 0 0 0 127 0" result="hardAlpha"/>
<feOffset dx="2" dy="2"/>
<feGaussianBlur stdDeviation="2"/>
<feComposite in2="hardAlpha" operator="arithmetic" k2="-1" k3="1"/>
<feColorMatrix type="matrix" values="0 0 0 0 1 0 0 0 0 1 0 0 0 0 1 0 0 0 0.25 0"/>
<feBlend mode="normal" in2="shape" result="effect2_innerShadow_6513_6247"/>
</filter>
<linearGradient id="paint0_linear_6513_6247" x1="213.18" y1="74.9999" x2="188.819" y2="74.9999" gradientUnits="userSpaceOnUse">
<stop stop-color="#C29BFF"/>
<stop offset="1" stop-color="#7B45CF"/>
</linearGradient>
<linearGradient id="paint1_linear_6513_6247" x1="222.052" y1="114" x2="187.947" y2="114" gradientUnits="userSpaceOnUse">
<stop stop-color="#C29BFF"/>
<stop offset="1" stop-color="#7B45CF"/>
</linearGradient>
<linearGradient id="paint2_linear_6513_6247" x1="182.816" y1="102" x2="140.184" y2="102" gradientUnits="userSpaceOnUse">
<stop stop-color="#C29BFF"/>
<stop offset="1" stop-color="#7B45CF"/>
</linearGradient>
<linearGradient id="paint3_linear_6513_6247" x1="170.393" y1="73.276" x2="192.846" y2="107.975" gradientUnits="userSpaceOnUse">
<stop stop-color="white"/>
<stop offset="0.5" stop-color="white" stop-opacity="0"/>
<stop offset="1" stop-color="white"/>
</linearGradient>
<linearGradient id="paint4_linear_6513_6247" x1="391.18" y1="71.9999" x2="366.819" y2="71.9999" gradientUnits="userSpaceOnUse">
<stop stop-color="#C29BFF"/>
<stop offset="1" stop-color="#7B45CF"/>
</linearGradient>
<linearGradient id="paint5_linear_6513_6247" x1="422.052" y1="95.9999" x2="387.947" y2="95.9999" gradientUnits="userSpaceOnUse">
<stop stop-color="#C29BFF"/>
<stop offset="1" stop-color="#7B45CF"/>
</linearGradient>
<linearGradient id="paint6_linear_6513_6247" x1="388.816" y1="114" x2="346.184" y2="114" gradientUnits="userSpaceOnUse">
<stop stop-color="#C29BFF"/>
<stop offset="1" stop-color="#7B45CF"/>
</linearGradient>
<linearGradient id="paint7_linear_6513_6247" x1="374.791" y1="87.3531" x2="379.523" y2="107.449" gradientUnits="userSpaceOnUse">
<stop stop-color="white"/>
<stop offset="0.5" stop-color="white" stop-opacity="0"/>
<stop offset="1" stop-color="white"/>
</linearGradient>
<linearGradient id="paint8_linear_6513_6247" x1="374.792" y1="64.3868" x2="385.553" y2="93.5997" gradientUnits="userSpaceOnUse">
<stop stop-color="white"/>
<stop offset="0.5" stop-color="white" stop-opacity="0"/>
<stop offset="1" stop-color="white"/>
</linearGradient>
<linearGradient id="paint9_linear_6513_6247" x1="381.48" y1="83.819" x2="385.34" y2="90.8532" gradientUnits="userSpaceOnUse">
<stop stop-color="white"/>
<stop offset="0.5" stop-color="white" stop-opacity="0"/>
<stop offset="1" stop-color="white"/>
</linearGradient>
<linearGradient id="paint10_linear_6513_6247" x1="395.18" y1="266" x2="370.819" y2="266" gradientUnits="userSpaceOnUse">
<stop stop-color="#C29BFF"/>
<stop offset="1" stop-color="#7B45CF"/>
</linearGradient>
<linearGradient id="paint11_linear_6513_6247" x1="386.052" y1="306" x2="351.947" y2="306" gradientUnits="userSpaceOnUse">
<stop stop-color="#C29BFF"/>
<stop offset="1" stop-color="#7B45CF"/>
</linearGradient>
<linearGradient id="paint12_linear_6513_6247" x1="426.18" y1="282" x2="401.819" y2="282" gradientUnits="userSpaceOnUse">
<stop stop-color="#C29BFF"/>
<stop offset="1" stop-color="#7B45CF"/>
</linearGradient>
<linearGradient id="paint13_linear_6513_6247" x1="380.693" y1="259.375" x2="413.363" y2="307.004" gradientUnits="userSpaceOnUse">
<stop stop-color="white"/>
<stop offset="0.5" stop-color="white" stop-opacity="0"/>
<stop offset="1" stop-color="white"/>
</linearGradient>
<linearGradient id="paint14_linear_6513_6247" x1="199.308" y1="262" x2="184.692" y2="262" gradientUnits="userSpaceOnUse">
<stop stop-color="#C29BFF"/>
<stop offset="1" stop-color="#7B45CF"/>
</linearGradient>
<linearGradient id="paint15_linear_6513_6247" x1="216.962" y1="299" x2="195.037" y2="299" gradientUnits="userSpaceOnUse">
<stop stop-color="#C29BFF"/>
<stop offset="1" stop-color="#7B45CF"/>
</linearGradient>
<linearGradient id="paint16_linear_6513_6247" x1="187.816" y1="306" x2="145.184" y2="306" gradientUnits="userSpaceOnUse">
<stop stop-color="#C29BFF"/>
<stop offset="1" stop-color="#7B45CF"/>
</linearGradient>
<linearGradient id="paint17_linear_6513_6247" x1="175.912" y1="285.5" x2="185.125" y2="312.566" gradientUnits="userSpaceOnUse">
<stop stop-color="white"/>
<stop offset="0.5" stop-color="white" stop-opacity="0"/>
<stop offset="1" stop-color="white"/>
</linearGradient>
<linearGradient id="paint18_linear_6513_6247" x1="175.945" y1="256.188" x2="194.48" y2="292.173" gradientUnits="userSpaceOnUse">
<stop stop-color="white"/>
<stop offset="0.5" stop-color="white" stop-opacity="0"/>
<stop offset="1" stop-color="white"/>
</linearGradient>
<clipPath id="clip0_6513_6247">
<rect width="570" height="370" fill="white"/>
</clipPath>
<clipPath id="clip1_6513_6247">
<rect width="63" height="63" fill="white" transform="translate(146.667 60.9805) rotate(-13.1323)"/>
</clipPath>
<clipPath id="clip2_6513_6247">
<rect width="50" height="50" fill="white" transform="translate(159 256)"/>
</clipPath>
</defs>
</svg>
