<svg width="85" height="85" viewBox="0 0 85 85" fill="none" xmlns="http://www.w3.org/2000/svg">
<circle cx="17.5" cy="37.5" r="15.5" fill="url(#paint0_linear_2815_478)"/>
<circle cx="34.5" cy="63.5" r="8.5" fill="url(#paint1_linear_2815_478)"/>
<circle cx="70" cy="20" r="12" fill="url(#paint2_linear_2815_478)"/>
<g filter="url(#filter0_bi_2815_478)">
<mask id="path-4-inside-1_2815_478" fill="white">
<path fill-rule="evenodd" clip-rule="evenodd" d="M59.4112 33.6653C61.3056 38.5477 61.3239 43.7207 59.8302 48.3474L57.8078 52.8645C55.4032 56.9084 51.6693 60.2237 46.9332 62.0635C35.6218 66.4539 22.9068 60.8611 18.5172 49.5676C14.1275 38.2741 19.6837 25.5599 30.9951 21.1694C42.3065 16.779 55.003 22.3531 59.4112 33.6653ZM61.1421 57.3462L69.4846 65.6164L69.485 65.6159C71.4887 67.5832 71.5069 70.7892 69.5578 72.7929C67.5723 74.8148 64.33 74.8513 62.308 72.8476L54.2748 64.8875C53.3458 64.0495 53.273 62.6287 54.1109 61.6997L54.202 61.6086L52.6172 60.0967C54.2201 58.8216 55.6592 57.3826 56.916 55.7979L58.3368 57.1458C59.1748 56.5629 60.3406 56.6176 61.1421 57.3462Z"/>
</mask>
<path fill-rule="evenodd" clip-rule="evenodd" d="M59.4112 33.6653C61.3056 38.5477 61.3239 43.7207 59.8302 48.3474L57.8078 52.8645C55.4032 56.9084 51.6693 60.2237 46.9332 62.0635C35.6218 66.4539 22.9068 60.8611 18.5172 49.5676C14.1275 38.2741 19.6837 25.5599 30.9951 21.1694C42.3065 16.779 55.003 22.3531 59.4112 33.6653ZM61.1421 57.3462L69.4846 65.6164L69.485 65.6159C71.4887 67.5832 71.5069 70.7892 69.5578 72.7929C67.5723 74.8148 64.33 74.8513 62.308 72.8476L54.2748 64.8875C53.3458 64.0495 53.273 62.6287 54.1109 61.6997L54.202 61.6086L52.6172 60.0967C54.2201 58.8216 55.6592 57.3826 56.916 55.7979L58.3368 57.1458C59.1748 56.5629 60.3406 56.6176 61.1421 57.3462Z" fill="#B186F4" fill-opacity="0.2"/>
<path d="M59.8302 48.3474L60.7429 48.756L60.7651 48.7064L60.7818 48.6546L59.8302 48.3474ZM59.4112 33.6653L60.3435 33.3036L60.3429 33.3022L59.4112 33.6653ZM57.8078 52.8645L58.6673 53.3756L58.6969 53.3259L58.7205 53.2731L57.8078 52.8645ZM46.9332 62.0635L47.2951 62.9957L47.2953 62.9956L46.9332 62.0635ZM18.5172 49.5676L19.4492 49.2053L18.5172 49.5676ZM30.9951 21.1694L30.6333 20.2372L30.6333 20.2372L30.9951 21.1694ZM69.4846 65.6164L68.7805 66.3266L69.5751 67.1142L70.269 66.2366L69.4846 65.6164ZM61.1421 57.3462L61.8461 56.636L61.8308 56.6208L61.8148 56.6063L61.1421 57.3462ZM69.485 65.6159L70.1856 64.9024L69.3911 64.1223L68.7005 64.9957L69.485 65.6159ZM69.5578 72.7929L70.2713 73.4936L70.2746 73.4902L69.5578 72.7929ZM62.308 72.8476L63.0119 72.1372L63.0119 72.1372L62.308 72.8476ZM54.2748 64.8875L54.9787 64.1771L54.9621 64.1606L54.9446 64.1449L54.2748 64.8875ZM54.1109 61.6997L53.4038 60.9926L53.3856 61.0108L53.3683 61.0299L54.1109 61.6997ZM54.202 61.6086L54.9091 62.3157L55.6331 61.5918L54.8923 60.8851L54.202 61.6086ZM52.6172 60.0967L51.9947 59.3141L51.0968 60.0283L51.9269 60.8203L52.6172 60.0967ZM56.916 55.7979L57.6043 55.0724L56.8116 54.3203L56.1325 55.1765L56.916 55.7979ZM58.3368 57.1458L57.6486 57.8713L58.2394 58.4318L58.9079 57.9668L58.3368 57.1458ZM60.7818 48.6546C62.343 43.8187 62.3245 38.4091 60.3435 33.3036L58.4789 34.027C60.2867 38.6862 60.3047 43.6226 58.8785 48.0402L60.7818 48.6546ZM58.7205 53.2731L60.7429 48.756L58.9174 47.9388L56.8951 52.4559L58.7205 53.2731ZM47.2953 62.9956C52.2473 61.072 56.1528 57.6043 58.6673 53.3756L56.9483 52.3534C54.6535 56.2126 51.0914 59.3754 46.5711 61.1313L47.2953 62.9956ZM17.5851 49.9299C22.1752 61.7391 35.47 67.5855 47.2951 62.9957L46.5714 61.1312C35.7736 65.3223 23.6384 59.9832 19.4492 49.2053L17.5851 49.9299ZM30.6333 20.2372C18.8042 24.8286 12.9964 38.1241 17.5851 49.9299L19.4492 49.2053C15.2587 38.424 20.5633 26.2911 31.357 22.1017L30.6333 20.2372ZM60.3429 33.3022C55.7341 21.4753 42.4584 15.6474 30.6333 20.2372L31.357 22.1017C42.1547 17.9107 54.2718 23.231 58.4794 34.0284L60.3429 33.3022ZM70.1886 64.9062L61.8461 56.636L60.4381 58.0564L68.7805 66.3266L70.1886 64.9062ZM68.7005 64.9957L68.7002 64.9962L70.269 66.2366L70.2694 66.2362L68.7005 64.9957ZM70.2746 73.4902C72.6039 71.0956 72.5857 67.2589 70.1856 64.9024L68.7844 66.3295C70.3917 67.9076 70.4098 70.4828 68.841 72.0956L70.2746 73.4902ZM61.6041 73.5579C64.0221 75.9541 67.9001 75.9083 70.2713 73.4936L68.8443 72.0922C67.2445 73.7214 64.6378 73.7485 63.0119 72.1372L61.6041 73.5579ZM53.571 65.5978L61.6041 73.5579L63.0119 72.1372L54.9787 64.1771L53.571 65.5978ZM53.3683 61.0299C52.1607 62.3688 52.2657 64.4219 53.6051 65.63L54.9446 64.1449C54.4259 63.677 54.3853 62.8886 54.8535 62.3694L53.3683 61.0299ZM53.4949 60.9015L53.4038 60.9926L54.818 62.4068L54.9091 62.3157L53.4949 60.9015ZM51.9269 60.8203L53.5117 62.3322L54.8923 60.8851L53.3075 59.3732L51.9269 60.8203ZM56.1325 55.1765C54.9236 56.7008 53.5387 58.0858 51.9947 59.3141L53.2397 60.8793C54.9015 59.5574 56.3947 58.0645 57.6995 56.4192L56.1325 55.1765ZM59.0251 56.4204L57.6043 55.0724L56.2278 56.5233L57.6486 57.8713L59.0251 56.4204ZM61.8148 56.6063C60.6672 55.563 58.9853 55.4766 57.7658 56.3249L58.9079 57.9668C59.3644 57.6492 60.0141 57.6722 60.4694 58.0861L61.8148 56.6063Z" fill="url(#paint3_linear_2815_478)" mask="url(#path-4-inside-1_2815_478)"/>
</g>
<defs>
<filter id="filter0_bi_2815_478" x="7.01562" y="9.66992" width="73.9844" height="74.6602" filterUnits="userSpaceOnUse" color-interpolation-filters="sRGB">
<feFlood flood-opacity="0" result="BackgroundImageFix"/>
<feGaussianBlur in="BackgroundImageFix" stdDeviation="5"/>
<feComposite in2="SourceAlpha" operator="in" result="effect1_backgroundBlur_2815_478"/>
<feBlend mode="normal" in="SourceGraphic" in2="effect1_backgroundBlur_2815_478" result="shape"/>
<feColorMatrix in="SourceAlpha" type="matrix" values="0 0 0 0 0 0 0 0 0 0 0 0 0 0 0 0 0 0 127 0" result="hardAlpha"/>
<feOffset dx="4" dy="4"/>
<feGaussianBlur stdDeviation="2"/>
<feComposite in2="hardAlpha" operator="arithmetic" k2="-1" k3="1"/>
<feColorMatrix type="matrix" values="0 0 0 0 1 0 0 0 0 1 0 0 0 0 1 0 0 0 0.25 0"/>
<feBlend mode="normal" in2="shape" result="effect2_innerShadow_2815_478"/>
</filter>
<linearGradient id="paint0_linear_2815_478" x1="2" y1="22" x2="33" y2="53" gradientUnits="userSpaceOnUse">
<stop stop-color="#C29BFF"/>
<stop offset="1" stop-color="#7B45CF"/>
</linearGradient>
<linearGradient id="paint1_linear_2815_478" x1="26" y1="55" x2="43" y2="72" gradientUnits="userSpaceOnUse">
<stop stop-color="#C29BFF"/>
<stop offset="1" stop-color="#7B45CF"/>
</linearGradient>
<linearGradient id="paint2_linear_2815_478" x1="58" y1="8" x2="82" y2="32" gradientUnits="userSpaceOnUse">
<stop stop-color="#C29BFF"/>
<stop offset="1" stop-color="#7B45CF"/>
</linearGradient>
<linearGradient id="paint3_linear_2815_478" x1="33.5039" y1="20" x2="71.0039" y2="74" gradientUnits="userSpaceOnUse">
<stop stop-color="white"/>
<stop offset="0.5" stop-color="white" stop-opacity="0"/>
<stop offset="1" stop-color="white"/>
</linearGradient>
</defs>
</svg>
