<svg width="341" height="105" viewBox="0 0 341 105" fill="none" xmlns="http://www.w3.org/2000/svg">
<path d="M23.5913 48.6468L23.6616 48.7372C24.5898 35.1438 36.0022 24.3986 49.96 24.3986C49.9671 24.3986 49.9741 24.3986 49.9741 24.3986C49.9811 24.3986 49.9881 24.3986 49.9881 24.3986C57.0972 24.3986 63.5525 27.1911 68.2914 31.7246V4.44015C62.6311 2.22564 56.4573 1 49.9952 1C22.3818 1 0 23.166 0 50.513C0 68.257 9.42951 83.8142 23.5913 92.5537V48.6468Z" fill="#00E6FF"/>
<path d="M76.3644 8.45691V52.3919L76.2938 52.3014C75.3729 65.8947 63.9538 76.6398 49.9956 76.6398C49.9886 76.6398 49.9815 76.6398 49.9815 76.6398C49.9745 76.6398 49.9675 76.6398 49.9675 76.6398C42.8584 76.6398 36.4034 73.8479 31.6641 69.314V96.5915C37.3456 98.8132 43.5265 100.046 50.0027 100.046C77.6161 100.046 99.9975 77.8799 99.9975 50.5326C99.9975 32.7608 90.5473 17.1965 76.3644 8.45691Z" fill="#007AFF"/>
<path d="M65.2693 40.5034C65.1073 41.3461 64.8124 42.1747 64.3548 42.9547C62.1683 46.7083 57.3305 47.9896 53.5404 45.8238C49.7503 43.6581 48.4565 38.8669 50.6433 35.1134C51.2411 34.0897 52.0426 33.2541 52.9568 32.6203C52.0005 32.4671 51.016 32.3835 50.0105 32.3835C39.8989 32.3835 31.707 40.4965 31.707 50.5105C31.707 60.5245 39.9059 68.6375 50.0105 68.6375C60.115 68.6375 68.3141 60.5245 68.3141 50.5105C68.3141 46.8127 67.196 43.3726 65.2693 40.5034Z" fill="#9D60FB"/>
<rect x="236" width="105" height="105" rx="20" fill="#232F3F"/>
<g clip-path="url(#clip0_357_669)">
<path d="M270.438 49.608C270.438 50.6448 270.551 51.4855 270.749 52.1019C270.975 52.7184 271.258 53.391 271.654 54.1195C271.796 54.3437 271.852 54.5679 271.852 54.764C271.852 55.0443 271.682 55.3245 271.315 55.6047L269.532 56.7816C269.278 56.9497 269.023 57.0338 268.797 57.0338C268.514 57.0338 268.231 56.8937 267.948 56.6415C267.552 56.2212 267.213 55.7728 266.93 55.3245C266.647 54.8481 266.364 54.3157 266.053 53.6712C263.846 56.2492 261.074 57.5382 257.736 57.5382C255.359 57.5382 253.464 56.8657 252.078 55.5206C250.692 54.1756 249.984 52.3822 249.984 50.1404C249.984 47.7585 250.833 45.825 252.559 44.3679C254.284 42.9107 256.576 42.1822 259.49 42.1822C260.451 42.1822 261.442 42.2662 262.488 42.4063C263.535 42.5464 264.61 42.7706 265.742 43.0228V40.9772C265.742 38.8475 265.289 37.3624 264.412 36.4937C263.507 35.625 261.979 35.2047 259.801 35.2047C258.811 35.2047 257.792 35.3168 256.746 35.569C255.699 35.8212 254.68 36.1294 253.69 36.5217C253.238 36.7179 252.898 36.83 252.7 36.886C252.502 36.942 252.361 36.9701 252.248 36.9701C251.851 36.9701 251.653 36.6899 251.653 36.1014V34.7283C251.653 34.28 251.71 33.9437 251.851 33.7475C251.993 33.5514 252.248 33.3552 252.644 33.1591C253.634 32.6547 254.822 32.2344 256.208 31.8981C257.594 31.5338 259.065 31.3657 260.621 31.3657C263.988 31.3657 266.449 32.1223 268.033 33.6355C269.589 35.1486 270.381 37.4464 270.381 40.5289V49.608H270.438ZM258.952 53.8673C259.886 53.8673 260.848 53.6992 261.866 53.3629C262.884 53.0267 263.79 52.4102 264.553 51.5695C265.006 51.0371 265.346 50.4486 265.515 49.7761C265.685 49.1036 265.798 48.291 265.798 47.3382V46.1613C264.978 45.9651 264.101 45.797 263.196 45.6849C262.29 45.5728 261.413 45.5168 260.536 45.5168C258.641 45.5168 257.255 45.8811 256.321 46.6377C255.388 47.3942 254.935 48.4591 254.935 49.8602C254.935 51.1772 255.275 52.158 255.982 52.8305C256.661 53.5311 257.651 53.8673 258.952 53.8673ZM281.669 56.8937C281.159 56.8937 280.82 56.8096 280.594 56.6135C280.367 56.4454 280.169 56.053 280 55.5206L273.351 33.8596C273.182 33.2992 273.097 32.9349 273.097 32.7388C273.097 32.2904 273.323 32.0382 273.776 32.0382H276.548C277.086 32.0382 277.453 32.1223 277.651 32.3184C277.878 32.4866 278.048 32.8789 278.217 33.4113L282.97 51.9618L287.383 33.4113C287.525 32.8508 287.694 32.4866 287.921 32.3184C288.147 32.1503 288.543 32.0382 289.052 32.0382H291.315C291.853 32.0382 292.221 32.1223 292.447 32.3184C292.673 32.4866 292.871 32.8789 292.984 33.4113L297.454 52.186L302.348 33.4113C302.518 32.8508 302.716 32.4866 302.914 32.3184C303.14 32.1503 303.508 32.0382 304.017 32.0382H306.648C307.101 32.0382 307.355 32.2624 307.355 32.7388C307.355 32.8789 307.327 33.019 307.299 33.1871C307.271 33.3552 307.214 33.5794 307.101 33.8877L300.283 55.5486C300.113 56.1091 299.915 56.4734 299.689 56.6415C299.463 56.8096 299.095 56.9217 298.614 56.9217H296.181C295.644 56.9217 295.276 56.8377 295.05 56.6415C294.823 56.4454 294.625 56.0811 294.512 55.5206L290.127 37.4464L285.771 55.4926C285.629 56.053 285.459 56.4173 285.233 56.6135C285.007 56.8096 284.611 56.8937 284.101 56.8937H281.669ZM318.021 57.6503C316.55 57.6503 315.078 57.4822 313.664 57.1459C312.25 56.8096 311.146 56.4454 310.411 56.025C309.958 55.7728 309.647 55.4926 309.534 55.2404C309.421 54.9882 309.364 54.708 309.364 54.4558V53.0267C309.364 52.4382 309.59 52.158 310.015 52.158C310.184 52.158 310.354 52.186 310.524 52.2421C310.694 52.2981 310.948 52.4102 311.231 52.5223C312.193 52.9426 313.24 53.2789 314.343 53.503C315.475 53.7272 316.578 53.8393 317.709 53.8393C319.492 53.8393 320.878 53.5311 321.84 52.9146C322.801 52.2981 323.311 51.4014 323.311 50.2525C323.311 49.4679 323.056 48.8234 322.547 48.291C322.038 47.7585 321.076 47.2822 319.69 46.8338L315.588 45.5728C313.523 44.9283 311.995 43.9756 311.061 42.7146C310.128 41.4816 309.647 40.1085 309.647 38.6514C309.647 37.4745 309.901 36.4377 310.411 35.541C310.92 34.6442 311.599 33.8596 312.448 33.2431C313.296 32.5986 314.258 32.1223 315.39 31.786C316.521 31.4497 317.709 31.3096 318.954 31.3096C319.576 31.3096 320.227 31.3377 320.85 31.4217C321.5 31.5058 322.094 31.6179 322.688 31.73C323.254 31.8701 323.792 32.0102 324.301 32.1783C324.81 32.3464 325.206 32.5146 325.489 32.6827C325.885 32.9069 326.168 33.1311 326.338 33.3833C326.507 33.6074 326.592 33.9157 326.592 34.308V35.625C326.592 36.2135 326.366 36.5217 325.942 36.5217C325.715 36.5217 325.348 36.4096 324.867 36.1855C323.254 35.4569 321.444 35.0926 319.435 35.0926C317.823 35.0926 316.55 35.3448 315.673 35.8772C314.796 36.4096 314.343 37.2223 314.343 38.3712C314.343 39.1558 314.626 39.8283 315.192 40.3607C315.757 40.8932 316.804 41.4256 318.303 41.9019L322.321 43.1629C324.357 43.8074 325.828 44.7041 326.705 45.853C327.582 47.0019 328.007 48.319 328.007 49.7761C328.007 50.9811 327.752 52.0739 327.271 53.0267C326.762 53.9794 326.083 54.8201 325.206 55.4926C324.329 56.1932 323.282 56.6975 322.066 57.0618C320.793 57.4541 319.463 57.6503 318.021 57.6503Z" fill="white"/>
<path fill-rule="evenodd" clip-rule="evenodd" d="M323.369 71.2697C314.061 78.079 300.539 81.6939 288.912 81.6939C272.617 81.6939 257.935 75.7252 246.846 65.8054C245.969 65.0208 246.761 63.956 247.807 64.5725C259.802 71.4659 274.598 75.6411 289.902 75.6411C300.228 75.6411 311.572 73.5115 322.011 69.14C323.567 68.4395 324.896 70.1488 323.369 71.2697Z" fill="#FF9900"/>
<path fill-rule="evenodd" clip-rule="evenodd" d="M327.245 66.8985C326.057 65.3853 319.381 66.1699 316.354 66.5342C315.448 66.6463 315.307 65.8616 316.127 65.2732C321.446 61.5743 330.187 62.6391 331.206 63.8721C332.224 65.1331 330.923 73.7919 325.944 77.9391C325.18 78.5836 324.444 78.2474 324.784 77.4067C325.915 74.6325 328.433 68.3836 327.245 66.8985Z" fill="#FF9900"/>
</g>
<path d="M152.5 37L180 64.5" stroke="black" stroke-width="3.33333"/>
<path d="M180 37L152.5 64.5" stroke="black" stroke-width="3.33333"/>
<defs>
<clipPath id="clip0_357_669">
<rect width="86" height="51" fill="white" transform="translate(246 31)"/>
</clipPath>
</defs>
</svg>
