<svg width="20" height="20" viewBox="0 0 20 20" fill="none" xmlns="http://www.w3.org/2000/svg">
<path d="M6.68952 15.1422C6.68952 15.2192 6.59677 15.2809 6.47984 15.2809C6.34677 15.2924 6.25403 15.2308 6.25403 15.1422C6.25403 15.0651 6.34677 15.0035 6.46371 15.0035C6.58468 14.9919 6.68952 15.0536 6.68952 15.1422ZM5.43548 14.9688C5.40726 15.0459 5.4879 15.1345 5.60887 15.1576C5.71371 15.1961 5.83468 15.1576 5.85887 15.0805C5.88306 15.0035 5.80645 14.9149 5.68548 14.8802C5.58065 14.8532 5.46371 14.8918 5.43548 14.9688ZM7.21774 14.9033C7.10081 14.9303 7.02016 15.0035 7.03226 15.0921C7.04435 15.1691 7.14919 15.2192 7.27016 15.1923C7.3871 15.1653 7.46774 15.0921 7.45564 15.015C7.44355 14.9418 7.33468 14.8918 7.21774 14.9033ZM9.87097 0.140625C4.27823 0.140625 0 4.19728 0 9.54067C0 13.8131 2.81452 17.4691 6.83468 18.7558C7.35081 18.8444 7.53226 18.5401 7.53226 18.2896C7.53226 18.0508 7.52016 16.7332 7.52016 15.9242C7.52016 15.9242 4.69758 16.5021 4.10484 14.7762C4.10484 14.7762 3.64516 13.6551 2.98387 13.3662C2.98387 13.3662 2.06048 12.7613 3.04839 12.7729C3.04839 12.7729 4.05242 12.8499 4.60484 13.7668C5.4879 15.2539 6.96774 14.8263 7.54435 14.572C7.6371 13.9556 7.89919 13.528 8.18952 13.2737C5.93548 13.0349 3.66129 12.7228 3.66129 9.01673C3.66129 7.9573 3.96774 7.42566 4.6129 6.74762C4.50806 6.49721 4.16532 5.46475 4.71774 4.13179C5.56048 3.88138 7.5 5.17196 7.5 5.17196C8.30645 4.95622 9.17339 4.8445 10.0323 4.8445C10.8911 4.8445 11.7581 4.95622 12.5645 5.17196C12.5645 5.17196 14.504 3.87753 15.3468 4.13179C15.8992 5.4686 15.5565 6.49721 15.4516 6.74762C16.0968 7.42951 16.4919 7.96115 16.4919 9.01673C16.4919 12.7344 14.1169 13.031 11.8629 13.2737C12.2339 13.5781 12.5484 14.1559 12.5484 15.0613C12.5484 16.3596 12.5363 17.966 12.5363 18.2819C12.5363 18.5324 12.7218 18.8367 13.2339 18.7481C17.2661 17.4691 20 13.8131 20 9.54067C20 4.19728 15.4637 0.140625 9.87097 0.140625ZM3.91935 13.4278C3.86694 13.4663 3.87903 13.5549 3.94758 13.6281C4.0121 13.6898 4.10484 13.7168 4.15726 13.6667C4.20968 13.6281 4.19758 13.5395 4.12903 13.4663C4.06452 13.4047 3.97177 13.3777 3.91935 13.4278ZM3.48387 13.1158C3.45565 13.1658 3.49597 13.2275 3.57661 13.266C3.64113 13.3045 3.72177 13.293 3.75 13.239C3.77823 13.189 3.7379 13.1273 3.65726 13.0888C3.57661 13.0657 3.5121 13.0772 3.48387 13.1158ZM4.79032 14.4872C4.72581 14.5373 4.75 14.6529 4.84274 14.7261C4.93548 14.8147 5.05242 14.8263 5.10484 14.7646C5.15726 14.7145 5.13306 14.599 5.05242 14.5258C4.96371 14.4372 4.84274 14.4256 4.79032 14.4872ZM4.33065 13.9209C4.26613 13.9595 4.26613 14.0596 4.33065 14.1482C4.39516 14.2368 4.50403 14.2754 4.55645 14.2368C4.62097 14.1868 4.62097 14.0866 4.55645 13.998C4.5 13.9094 4.39516 13.8709 4.33065 13.9209Z" fill="#0C111D"/>
</svg>