<svg width="130" height="130" viewBox="0 0 130 130" fill="none" xmlns="http://www.w3.org/2000/svg">
<path d="M0 30C0 13.4315 13.4315 0 30 0H100C116.569 0 130 13.4315 130 30V100C130 116.569 116.569 130 100 130H30C13.4315 130 0 116.569 0 100V30Z" fill="white"/>
<path d="M44.7418 74.2108C44.7418 78.2796 41.4431 81.5783 37.3743 81.5783C33.3027 81.5783 30.0039 78.2796 30.0039 74.2108C30.0039 70.1421 33.3027 66.8433 37.3714 66.8433H44.7389L44.7418 74.2108Z" fill="#9D60FB"/>
<path d="M48.4258 74.2105C48.4258 70.1419 51.7244 66.8433 55.7929 66.8433C59.8615 66.8433 63.1601 70.1419 63.1601 74.2105V92.6313C63.1601 96.6999 59.8615 99.9985 55.7929 99.9985C51.7244 99.9985 48.4258 96.6999 48.4258 92.6313V74.2105Z" fill="#9D60FB"/>
<path d="M55.7933 44.7396C51.7245 44.7396 48.4258 41.4409 48.4258 37.3721C48.4258 33.3005 51.7245 30.0017 55.7933 30.0017C59.862 30.0017 63.1608 33.3005 63.1608 37.3692V44.7367L55.7933 44.7396Z" fill="#9D60FB"/>
<path d="M55.7919 48.4225C59.8604 48.4225 63.159 51.7211 63.159 55.7897C63.159 59.8583 59.8604 63.1569 55.7919 63.1569H37.3711C33.3025 63.1569 30.0039 59.8583 30.0039 55.7897C30.0039 51.7211 33.3025 48.4225 37.3711 48.4225H55.7919Z" fill="#9D60FB"/>
<path d="M85.2617 55.79C85.2617 51.7212 88.5605 48.4225 92.6292 48.4225C96.7009 48.4225 99.9996 51.7212 99.9996 55.79C99.9996 59.8587 96.7009 63.1575 92.6321 63.1575H85.2646L85.2617 55.79Z" fill="#9D60FB"/>
<path d="M81.5781 55.7897C81.5781 59.8582 78.2795 63.1568 74.2109 63.1568C70.1423 63.1568 66.8438 59.8582 66.8438 55.7897V37.3689C66.8438 33.3003 70.1423 30.0017 74.2109 30.0017C78.2795 30.0017 81.5781 33.3003 81.5781 37.3689V55.7897Z" fill="#9D60FB"/>
<path d="M74.2113 85.2614C78.28 85.2614 81.5788 88.5601 81.5788 92.6288C81.5788 96.6976 78.28 99.9964 74.2113 99.9964C70.1425 99.9964 66.8438 96.6976 66.8438 92.6288V85.2614H74.2113Z" fill="#9D60FB"/>
<path d="M74.2109 81.5777C70.1423 81.5777 66.8438 78.2791 66.8438 74.2105C66.8438 70.142 70.1423 66.8434 74.2109 66.8434H92.6317C96.7003 66.8434 99.9989 70.142 99.9989 74.2105C99.9989 78.2791 96.7003 81.5777 92.6317 81.5777H74.2109Z" fill="#9D60FB"/>
</svg>
