<svg width="130" height="130" viewBox="0 0 130 130" fill="none" xmlns="http://www.w3.org/2000/svg">
<path d="M0 30C0 13.4315 13.4315 0 30 0H100C116.569 0 130 13.4315 130 30V100C130 116.569 116.569 130 100 130H30C13.4315 130 0 116.569 0 100V30Z" fill="white"/>
<path d="M34.1562 66.1603V92.5942C34.1562 95.0261 36.1344 96.9998 38.5619 96.9998H60.5902V66.1603H34.1562Z" fill="#9D60FB"/>
<path d="M95.8309 48.5378H81.8914C82.8915 47.8549 83.7506 47.1764 84.3497 46.5685C87.9051 42.9955 87.9051 37.18 84.3497 33.607C80.8957 30.1266 74.8776 30.1354 71.428 33.607C69.5159 35.5235 64.4494 43.3259 65.1499 48.5378H64.8327C65.5288 43.3259 60.4623 35.5235 58.5546 33.607C55.1006 30.1354 49.0825 30.1354 45.6329 33.607C42.0819 37.18 42.0819 42.9955 45.6285 46.5685C46.232 47.1764 47.0911 47.8549 48.0912 48.5378H34.1517C31.7242 48.5378 29.7461 50.5159 29.7461 52.9434V59.5519C29.7461 60.7679 30.733 61.7547 31.9489 61.7547H60.5856V52.9434H69.3969V61.7547H98.0337C99.2496 61.7547 100.237 60.7679 100.237 59.5519V52.9434C100.237 50.5159 98.2628 48.5378 95.8309 48.5378ZM60.3257 48.3924C60.3257 48.3924 60.1407 48.5378 59.5107 48.5378C56.4664 48.5378 50.6553 45.3745 48.7565 43.4625C46.9105 41.6033 46.9105 38.5722 48.7565 36.713C49.6508 35.8143 50.8359 35.3208 52.096 35.3208C53.3516 35.3208 54.5367 35.8143 55.431 36.713C58.4004 39.7001 61.3522 47.3306 60.3257 48.3924ZM70.4675 48.5378C69.8419 48.5378 69.6569 48.3968 69.6569 48.3924C68.6304 47.3306 71.5822 39.7001 74.5516 36.713C76.327 34.9199 79.433 34.9111 81.2261 36.713C83.0765 38.5722 83.0765 41.6033 81.2261 43.4625C79.3273 45.3745 73.5162 48.5378 70.4675 48.5378Z" fill="#9D60FB"/>
<path d="M69.4023 66.1603V96.9998H91.4306C93.8625 96.9998 95.8362 95.0261 95.8362 92.5942V66.1603H69.4023Z" fill="#9D60FB"/>
</svg>
