<svg width="100" height="100" viewBox="0 0 100 100" fill="none" xmlns="http://www.w3.org/2000/svg">
<path d="M0 30C0 13.4315 13.4315 0 30 0H70C86.5685 0 100 13.4315 100 30V70C100 86.5685 86.5685 100 70 100H30C13.4315 100 0 86.5685 0 70V30Z" fill="#F6F6F6" fill-opacity="0.968627"/>
<g clip-path="url(#clip0_357_429)">
<path d="M36.8755 35.0525C37.379 35.556 37.379 36.3721 36.8755 36.8755C36.6238 37.1272 36.2939 37.2531 35.9641 37.2531C35.6343 37.2531 35.3043 37.1273 35.0526 36.8755L30.1856 32.0086C29.6821 31.5052 29.6821 30.6891 30.1856 30.1856C30.6889 29.6822 31.5051 29.6822 32.0086 30.1856L36.8755 35.0525ZM35.0525 48.1383L30.1856 53.0053C29.6821 53.5087 29.6821 54.3249 30.1856 54.8283C30.4373 55.08 30.7672 55.2059 31.097 55.2059C31.4268 55.2059 31.7568 55.0801 32.0085 54.8283L36.8755 49.9613C37.3789 49.4579 37.3789 48.6418 36.8755 48.1383C36.3721 47.6349 35.556 47.6349 35.0525 48.1383ZM49.0498 37.2531C49.3797 37.2531 49.7096 37.1273 49.9612 36.8755L54.8282 32.0086C55.3316 31.5051 55.3316 30.689 54.8282 30.1856C54.3249 29.6821 53.5087 29.6821 53.0052 30.1856L48.1383 35.0525C47.6348 35.556 47.6348 36.3721 48.1383 36.8755C48.39 37.1272 48.72 37.2531 49.0498 37.2531ZM34.181 43.796C34.8929 43.796 35.47 43.2188 35.47 42.5069C35.47 41.795 34.8929 41.2179 34.181 41.2179H29.9766C29.2647 41.2179 28.6875 41.795 28.6875 42.5069C28.6875 43.2188 29.2647 43.796 29.9766 43.796H34.181ZM42.5069 35.47C43.2188 35.47 43.796 34.8929 43.796 34.181V29.9766C43.796 29.2647 43.2188 28.6875 42.5069 28.6875C41.795 28.6875 41.2179 29.2647 41.2179 29.9766V34.181C41.2179 34.8929 41.795 35.47 42.5069 35.47ZM70.245 48.3229L43.0048 41.017C42.3857 40.8496 41.798 40.9864 41.3922 41.3922C40.9858 41.7985 40.8493 42.3857 41.0167 43.001L48.323 70.2447C48.4924 70.8782 49.0981 71.3124 49.8044 71.3124C49.8185 71.3124 49.8327 71.3122 49.8469 71.3119C50.4507 71.2971 50.9549 70.9411 51.2676 70.3069L55.0828 62.483L61.9359 69.3361C62.1707 69.571 62.5517 69.571 62.7866 69.3361L69.3362 62.7865C69.5711 62.5515 69.5711 62.1706 69.3362 61.9358L62.4831 55.0827L70.308 51.267C70.9406 50.9572 71.2971 50.4527 71.312 49.8468C71.3298 49.1217 70.8911 48.4952 70.245 48.3229Z" fill="#303245"/>
</g>
<defs>
<clipPath id="clip0_357_429">
<rect width="44" height="44" fill="white" transform="translate(28 28)"/>
</clipPath>
</defs>
</svg>
