<svg width="101" height="100" viewBox="0 0 101 100" fill="none" xmlns="http://www.w3.org/2000/svg">
<path d="M0.333496 30C0.333496 13.4315 13.765 0 30.3335 0H70.3335C86.902 0 100.333 13.4315 100.333 30V70C100.333 86.5685 86.902 100 70.3335 100H30.3335C13.765 100 0.333496 86.5685 0.333496 70V30Z" fill="#F6F6F6" fill-opacity="0.968627"/>
<path d="M41.3101 60.4145V63.5071L37.0224 65.8892C36.432 65.4118 35.6814 65.125 34.8647 65.125C32.9693 65.125 31.4272 66.6671 31.4272 68.5625C31.4272 70.4579 32.9693 72 34.8647 72C36.7602 72 38.3022 70.4579 38.3022 68.5625C38.3022 68.4201 38.2925 68.28 38.2756 68.1422L43.2251 65.3924C43.6344 65.1651 43.8882 64.7337 43.8882 64.2656V59.4961L43.2748 59.8642C42.6808 60.2205 42.002 60.4101 41.3101 60.4145Z" fill="#303245"/>
<path d="M51.6226 65.3767V63.2344H49.0444V65.3767C47.7861 65.8878 46.896 67.1228 46.896 68.5625C46.896 70.4579 48.4381 72 50.3335 72C52.2289 72 53.771 70.4579 53.771 68.5625C53.771 67.1228 52.881 65.8878 51.6226 65.3767Z" fill="#303245"/>
<path d="M65.8022 65.125C64.9856 65.125 64.235 65.4118 63.6446 65.8892L59.3569 63.5071V60.4145C58.665 60.41 57.9861 60.2205 57.3923 59.8642L56.7788 59.4961V64.2656C56.7788 64.7337 57.0326 65.1651 57.4419 65.3924L62.3914 68.1422C62.3745 68.28 62.3647 68.4201 62.3647 68.5625C62.3647 70.4579 63.9068 72 65.8022 72C67.6977 72 69.2397 70.4579 69.2397 68.5625C69.2397 66.6671 67.6977 65.125 65.8022 65.125Z" fill="#303245"/>
<path d="M60.2935 57.4596L63.465 54.288C63.8833 53.8698 63.9632 53.2205 63.6589 52.7133L62.4809 50.7499C62.8799 49.9954 63.2082 49.2008 63.4615 48.3772L65.6852 47.8213C66.259 47.6779 66.6616 47.1623 66.6616 46.5707V42.0855C66.6616 41.494 66.259 40.9784 65.6852 40.8349L63.4615 40.279C63.2082 39.4555 62.8798 38.6608 62.4808 37.9063L63.6589 35.9429C63.9632 35.4357 63.8833 34.7864 63.465 34.3681L60.2936 31.1966C59.8753 30.7784 59.2261 30.6984 58.7188 31.0027L56.7553 32.1808C56.0008 31.7818 55.2062 31.4534 54.3827 31.2001L53.8268 28.9764C53.6833 28.4025 53.1676 28 52.5761 28H48.0909C47.4994 28 46.9837 28.4025 46.8403 28.9764L46.2844 31.2001C45.461 31.4533 44.6663 31.7819 43.9118 32.1808L41.9482 31.0027C41.441 30.6984 40.7918 30.7784 40.3736 31.1966L37.2021 34.3681C36.7838 34.7864 36.7039 35.4357 37.0082 35.9429L38.1862 37.9063C37.7872 38.6608 37.4589 39.4555 37.2056 40.279L34.9819 40.8349C34.4079 40.9784 34.0054 41.494 34.0054 42.0855V46.5707C34.0054 47.1623 34.4079 47.6779 34.9818 47.8213L37.2055 48.3772C37.4588 49.2008 37.7872 49.9954 38.1861 50.7499L37.0081 52.7133C36.7038 53.2205 36.7837 53.8698 37.202 54.288L40.3735 57.4596C40.7918 57.8779 41.441 57.9578 41.9482 57.6535L43.9116 56.4755C44.6663 56.8745 45.4609 57.2029 46.2843 57.4562L46.8402 59.6799C46.9837 60.2537 47.4993 60.6563 48.0908 60.6563H52.576C53.1675 60.6563 53.6832 60.2538 53.8266 59.6799L54.3825 57.4562C55.2059 57.203 56.0006 56.8745 56.7552 56.4755L58.7186 57.6535C59.226 57.9578 59.8752 57.8779 60.2935 57.4596ZM50.3335 50.3438C47.0112 50.3438 44.3179 47.6505 44.3179 44.3281C44.3179 41.0058 47.0112 38.3125 50.3335 38.3125C53.6558 38.3125 56.3491 41.0058 56.3491 44.3281C56.3491 47.6505 53.6558 50.3438 50.3335 50.3438Z" fill="#303245"/>
</svg>
