<svg width="101" height="100" viewBox="0 0 101 100" fill="none" xmlns="http://www.w3.org/2000/svg">
<path d="M0.666504 30C0.666504 13.4315 14.098 0 30.6665 0H70.6665C87.235 0 100.667 13.4315 100.667 30V70C100.667 86.5685 87.235 100 70.6665 100H30.6665C14.098 100 0.666504 86.5685 0.666504 70V30Z" fill="#F6F6F6" fill-opacity="0.968627"/>
<path d="M64.5781 33.653L55.2452 30.7058C53.764 30.238 52.2199 30 50.6665 30C49.1131 30 47.569 30.238 46.0878 30.7058L36.7549 33.653C34.8048 34.2688 33.479 36.0778 33.479 38.1229V54.3252C33.479 57.3041 34.8946 60.1056 37.2928 61.8727L46.4359 68.6097C47.6616 69.5128 49.1441 70 50.6665 70C52.1889 70 53.6714 69.5128 54.8971 68.6097L64.0403 61.8727C66.4384 60.1056 67.854 57.3041 67.854 54.3252V38.1229C67.854 36.0778 66.5282 34.2688 64.5781 33.653ZM57.8481 47.7903L50.1141 55.5243C49.1988 56.4396 47.7148 56.4396 46.7996 55.5243L43.4849 52.2098C42.5696 51.2945 42.5696 49.8105 43.4849 48.8952C44.4003 47.9799 45.8842 47.9799 46.7995 48.8952L48.4567 50.5525L54.5335 44.4758C55.4488 43.5605 56.9328 43.5605 57.848 44.4758C58.7634 45.391 58.7634 46.875 57.8481 47.7903Z" fill="#303245"/>
</svg>
