<svg width="48" height="48" viewBox="0 0 48 48" fill="none" xmlns="http://www.w3.org/2000/svg">
<g clip-path="url(#clip0_357_416)">
<path d="M44.6807 19.2946C44.0646 18.881 43.5081 18.3848 43.0269 17.8198C43.0627 17.0331 43.2208 16.2568 43.4956 15.519C44.0122 13.77 44.6557 11.5933 43.4156 9.89009C42.1666 8.17331 39.8849 8.11568 38.0518 8.06883C37.2807 8.09961 36.5093 8.0167 35.7623 7.8227C35.3516 7.17847 35.038 6.47732 34.8317 5.74168C34.22 3.99979 33.4581 1.83177 31.4176 1.16865C29.4376 0.525134 27.6606 1.74776 26.0938 2.82291C25.4642 3.32564 24.7573 3.72303 24.0006 3.99971C23.2434 3.72334 22.5361 3.32588 21.9064 2.82291C20.3395 1.74681 18.5621 0.528047 16.5826 1.16865C14.5426 1.83177 13.7809 3.99869 13.1686 5.74098C12.9626 6.47291 12.6525 7.17147 12.2477 7.81514C11.4983 8.01505 10.7231 8.10032 9.94824 8.06812C8.11524 8.11489 5.83353 8.1726 4.58453 9.8893C3.3445 11.5935 3.98786 13.7702 4.50453 15.5193C4.77617 16.2533 4.9357 17.024 4.97766 17.8055C4.49863 18.3785 3.94007 18.88 3.31899 19.2947C1.84 20.4226 0 21.8268 0 23.9997C0 26.1726 1.84 27.5768 3.31931 28.7048C3.93542 29.1185 4.49193 29.6147 4.97309 30.1797C4.93735 30.9664 4.77924 31.7425 4.50437 32.4805C3.98778 34.2294 3.34435 36.4063 4.58437 38.1094C5.83337 39.8261 8.11509 39.8838 9.94816 39.9307C10.7193 39.8999 11.4907 39.9828 12.2377 40.1768C12.6484 40.8211 12.962 41.5223 13.1683 42.2578C13.7807 44.0001 14.5424 46.1678 16.5828 46.8311C16.9443 46.9496 17.3224 47.0099 17.7029 47.0098C19.2385 47.0098 20.6409 46.0459 21.9065 45.1769C22.5362 44.674 23.2431 44.2765 23.9999 43.9997C24.7571 44.2761 25.4643 44.6736 26.0942 45.1765C27.661 46.2526 29.438 47.4705 31.4179 46.8308C33.4579 46.1677 34.2196 44.0008 34.832 42.2585C35.038 41.5265 35.3481 40.828 35.7529 40.1843C36.5022 39.9844 37.2775 39.8991 38.0523 39.9313C39.8853 39.8846 42.167 39.8268 43.416 38.1101C44.656 36.406 44.0127 34.2292 43.496 32.4802C43.2244 31.7462 43.0649 30.9755 43.0229 30.194C43.5019 29.621 44.0605 29.1194 44.6816 28.7047C46.1599 27.5768 47.9999 26.1726 47.9999 23.9997C48 21.8268 46.16 20.4226 44.6807 19.2946ZM32.9141 20.4138L22.9141 30.4138C22.1333 31.1948 20.8673 31.195 20.0863 30.4143C20.0862 30.4141 20.086 30.4139 20.0858 30.4138L15.0858 25.4138C14.2949 24.6427 14.2788 23.3764 15.0499 22.5855C15.821 21.7946 17.0872 21.7786 17.8781 22.5496C17.8903 22.5614 17.9022 22.5734 17.914 22.5855L21.4999 26.1715L30.0859 17.5855C30.857 16.7946 32.1232 16.7786 32.9141 17.5497C33.705 18.3208 33.721 19.587 32.9499 20.3779C32.9381 20.3901 32.9262 20.402 32.9141 20.4138Z" fill="#FF9900"/>
</g>
<defs>
<clipPath id="clip0_357_416">
<rect width="48" height="48" fill="white"/>
</clipPath>
</defs>
</svg>
