<svg width="130" height="130" viewBox="0 0 130 130" fill="none" xmlns="http://www.w3.org/2000/svg">
<path d="M0 30C0 13.4315 13.4315 0 30 0H100C116.569 0 130 13.4315 130 30V100C130 116.569 116.569 130 100 130H30C13.4315 130 0 116.569 0 100V30Z" fill="white"/>
<g clip-path="url(#clip0_0_1)">
<path d="M44.3962 66.4543C44.2258 65.9517 44.1388 65.4245 44.1387 64.8937C44.2504 63.3449 44.9686 61.9025 46.1373 60.8799C47.306 59.8573 48.8309 59.337 50.3809 59.4318C51.9309 59.337 53.4558 59.8573 54.6245 60.8799C55.7932 61.9025 56.5114 63.3449 56.6231 64.8937C56.623 65.4245 56.536 65.9517 56.3656 66.4543H64.4259V57.1362C64.4259 56.7068 64.5435 56.2855 64.7661 55.9182C64.9887 55.551 65.3076 55.2517 65.6883 55.0529C66.0583 54.8569 66.4748 54.766 66.8928 54.7902C67.3107 54.8144 67.714 54.9528 68.0588 55.1902C68.3647 55.4095 68.7312 55.5283 69.1075 55.5304C70.3762 55.5304 71.4483 54.101 71.4483 52.4093C71.4483 50.7177 70.3762 49.2882 69.1075 49.2882C68.7317 49.2904 68.3655 49.408 68.0588 49.6253C67.7137 49.8627 67.3102 50.0011 66.892 50.0253C66.4738 50.0495 66.057 49.9587 65.6868 49.7626C65.3059 49.5646 64.9869 49.2657 64.7645 48.8985C64.5421 48.5314 64.425 48.1101 64.4259 47.6809V38.3644H42.5781C40.9226 38.3644 39.3349 39.022 38.1642 40.1927C36.9936 41.3633 36.3359 42.951 36.3359 44.6066V66.4543H44.3962Z" fill="#9D60FB"/>
<path d="M71.4486 45.1138C71.8514 44.7681 72.3079 44.4904 72.8 44.2914C74.2786 43.8156 75.8851 43.942 77.2711 44.6432C78.657 45.3444 79.7106 46.5637 80.2033 48.0368C80.8715 49.4385 80.96 51.0472 80.4496 52.5138C79.9392 53.9805 78.8711 55.1867 77.477 55.8707C76.9845 56.0683 76.4633 56.1848 75.9336 56.2156L78.9533 63.6891L87.5925 60.1981C87.9903 60.0365 88.4249 59.9874 88.8488 60.0562C89.2727 60.125 89.6695 60.3091 89.9957 60.5883C90.316 60.8581 90.5562 61.2105 90.6905 61.6072C90.8247 62.0039 90.8478 62.4297 90.7573 62.8386C90.6698 63.202 90.697 63.5837 90.8353 63.931C91.2708 64.4842 91.8741 64.8811 92.5545 65.062C93.2349 65.2428 93.9556 65.1979 94.6083 64.934C95.261 64.67 95.8104 64.2013 96.1737 63.5983C96.5371 62.9952 96.6949 62.2905 96.6234 61.5901C96.4801 61.2424 96.2333 60.9471 95.9165 60.7443C95.5667 60.5135 95.2871 60.191 95.1082 59.812C94.9293 59.4331 94.858 59.0122 94.9021 58.5955C94.9433 58.1684 95.101 57.7609 95.358 57.4175C95.6151 57.074 95.9616 56.8078 96.3597 56.6479L105 53.1632L96.8169 32.9025C96.5099 32.1422 96.0562 31.4499 95.4816 30.865C94.907 30.2801 94.2227 29.8141 93.468 29.4937C92.7133 29.1733 91.9028 29.0047 91.0829 28.9976C90.263 28.9904 89.4497 29.1449 88.6895 29.4522L68.4336 37.6419L71.4486 45.1138Z" fill="#9D60FB"/>
<path d="M87.5756 69.5754C87.746 70.0781 87.833 70.6052 87.8331 71.136C87.7213 72.6849 87.0032 74.1272 85.8345 75.1498C84.6658 76.1724 83.1409 76.6928 81.5909 76.5979C80.0409 76.6928 78.516 76.1724 77.3473 75.1498C76.1786 74.1272 75.4604 72.6849 75.3487 71.136C75.3488 70.6052 75.4357 70.0781 75.6062 69.5754H67.5459V78.8919C67.5468 79.3212 67.4297 79.7424 67.2073 80.1096C66.9849 80.4767 66.6658 80.7757 66.285 80.9737C65.9154 81.1702 65.4989 81.2616 65.081 81.2379C64.6631 81.2143 64.2596 81.0765 63.9145 80.8395C63.608 80.6203 63.2411 80.5014 62.8643 80.4993C61.5955 80.4993 60.5234 81.9288 60.5234 83.6204C60.5234 85.312 61.5955 86.7415 62.8643 86.7415C63.2418 86.7392 63.6093 86.6197 63.9161 86.3997C64.2609 86.1636 64.6636 86.0262 65.0809 86.0023C65.4981 85.9783 65.9139 86.0688 66.2834 86.264C66.6642 86.4626 66.9833 86.7618 67.2059 87.1292C67.4285 87.4965 67.5461 87.9178 67.5459 88.3473V97.6654H89.3936C91.0492 97.6654 92.6369 97.0077 93.8075 95.8371C94.9782 94.6664 95.6358 93.0787 95.6358 91.4232V69.5754H87.5756Z" fill="#9D60FB"/>
<path d="M64.4259 89.6051C63.9232 89.7756 63.3961 89.8625 62.8653 89.8626C61.3164 89.7509 59.8741 89.0327 58.8515 87.864C57.8289 86.6953 57.3085 85.1704 57.4034 83.6204C57.3085 82.0704 57.8289 80.5455 58.8515 79.3768C59.8741 78.2081 61.3164 77.49 62.8653 77.3782C63.3961 77.3783 63.9232 77.4653 64.4259 77.6357V69.5755H55.1094C54.6801 69.5764 54.2589 69.4592 53.8917 69.2368C53.5246 69.0144 53.2256 68.6954 53.0276 68.3145C52.8311 67.9449 52.7397 67.5285 52.7634 67.1105C52.787 66.6926 52.9248 66.2891 53.1618 65.9441C53.381 65.6376 53.4999 65.2706 53.502 64.8938C53.502 63.6251 52.0725 62.553 50.3809 62.553C48.6893 62.553 47.2598 63.6251 47.2598 64.8938C47.2621 65.2713 47.3815 65.6388 47.6016 65.9456C47.8382 66.2902 47.9759 66.693 47.9998 67.1103C48.0238 67.5277 47.933 67.9436 47.7373 68.313C47.5387 68.6938 47.2395 69.0128 46.8721 69.2354C46.5048 69.458 46.0835 69.5756 45.654 69.5755H36.3359V91.4232C36.3359 93.0787 36.9936 94.6664 38.1642 95.8371C39.3349 97.0077 40.9226 97.6654 42.5781 97.6654H64.4259V89.6051Z" fill="#9D60FB"/>
</g>
<defs>
<clipPath id="clip0_0_1">
<rect width="80" height="80" fill="white" transform="translate(25 25)"/>
</clipPath>
</defs>
</svg>
