<svg width="570" height="570" viewBox="0 0 570 570" fill="none" xmlns="http://www.w3.org/2000/svg">
<rect x="35" width="500" height="570" rx="30" fill="url(#paint0_linear_6641_6193)"/>
<rect x="6.5" y="45.5" width="214.254" height="354" rx="9.5" fill="white" stroke="#E8E8E8"/>
<path d="M72.616 318.24C71.464 318.24 70.4774 317.989 69.656 317.488C68.8347 316.981 68.2027 316.277 67.76 315.376C67.3227 314.475 67.104 313.429 67.104 312.24C67.104 311.051 67.3227 310.005 67.76 309.104C68.2027 308.203 68.8347 307.501 69.656 307C70.4774 306.493 71.464 306.24 72.616 306.24C73.944 306.24 75.0507 306.573 75.936 307.24C76.8214 307.901 77.4427 308.795 77.8 309.92L75.856 310.456C75.632 309.704 75.2507 309.117 74.712 308.696C74.1734 308.269 73.4747 308.056 72.616 308.056C71.8427 308.056 71.1974 308.229 70.68 308.576C70.168 308.923 69.7814 309.411 69.52 310.04C69.264 310.664 69.1334 311.397 69.128 312.24C69.128 313.083 69.256 313.819 69.512 314.448C69.7734 315.072 70.1627 315.557 70.68 315.904C71.1974 316.251 71.8427 316.424 72.616 316.424C73.4747 316.424 74.1734 316.211 74.712 315.784C75.2507 315.357 75.632 314.771 75.856 314.024L77.8 314.56C77.4427 315.685 76.8214 316.581 75.936 317.248C75.0507 317.909 73.944 318.24 72.616 318.24ZM83.3725 318.24C82.5085 318.24 81.7539 318.045 81.1085 317.656C80.4632 317.267 79.9619 316.731 79.6045 316.048C79.2525 315.36 79.0765 314.571 79.0765 313.68C79.0765 312.773 79.2579 311.979 79.6205 311.296C79.9832 310.613 80.4872 310.08 81.1325 309.696C81.7779 309.312 82.5245 309.12 83.3725 309.12C84.2419 309.12 84.9992 309.315 85.6445 309.704C86.2899 310.093 86.7912 310.632 87.1485 311.32C87.5059 312.003 87.6845 312.789 87.6845 313.68C87.6845 314.576 87.5032 315.368 87.1405 316.056C86.7832 316.739 86.2819 317.275 85.6365 317.664C84.9912 318.048 84.2365 318.24 83.3725 318.24ZM83.3725 316.432C84.1405 316.432 84.7112 316.176 85.0845 315.664C85.4579 315.152 85.6445 314.491 85.6445 313.68C85.6445 312.843 85.4552 312.176 85.0765 311.68C84.6979 311.179 84.1299 310.928 83.3725 310.928C82.8552 310.928 82.4285 311.045 82.0925 311.28C81.7619 311.509 81.5165 311.832 81.3565 312.248C81.1965 312.659 81.1165 313.136 81.1165 313.68C81.1165 314.517 81.3059 315.187 81.6845 315.688C82.0685 316.184 82.6312 316.432 83.3725 316.432ZM99.8231 318V312.752C99.8231 312.16 99.6765 311.699 99.3831 311.368C99.0898 311.032 98.6925 310.864 98.1911 310.864C97.8818 310.864 97.6045 310.936 97.3591 311.08C97.1138 311.219 96.9191 311.427 96.7751 311.704C96.6311 311.976 96.5591 312.301 96.5591 312.68L95.7031 312.176C95.6978 311.579 95.8311 311.053 96.1031 310.6C96.3805 310.141 96.7538 309.784 97.2231 309.528C97.6925 309.272 98.2151 309.144 98.7911 309.144C99.7458 309.144 100.476 309.432 100.983 310.008C101.495 310.579 101.751 311.331 101.751 312.264V318H99.8231ZM89.4311 318V309.36H91.1351V312.04H91.3751V318H89.4311ZM94.6391 318V312.776C94.6391 312.173 94.4925 311.704 94.1991 311.368C93.9058 311.032 93.5058 310.864 92.9991 310.864C92.5085 310.864 92.1138 311.032 91.8151 311.368C91.5218 311.704 91.3751 312.141 91.3751 312.68L90.5111 312.104C90.5111 311.544 90.6498 311.04 90.9271 310.592C91.2045 310.144 91.5778 309.792 92.0471 309.536C92.5218 309.275 93.0525 309.144 93.6391 309.144C94.2845 309.144 94.8231 309.283 95.2551 309.56C95.6925 309.832 96.0178 310.205 96.2311 310.68C96.4498 311.149 96.5591 311.68 96.5591 312.272V318H94.6391ZM107.99 318.24C107.147 318.24 106.44 318.04 105.87 317.64C105.299 317.24 104.87 316.696 104.582 316.008C104.294 315.315 104.15 314.539 104.15 313.68C104.15 312.811 104.294 312.032 104.582 311.344C104.87 310.656 105.291 310.115 105.846 309.72C106.406 309.32 107.096 309.12 107.918 309.12C108.734 309.12 109.44 309.32 110.038 309.72C110.64 310.115 111.107 310.656 111.438 311.344C111.768 312.027 111.934 312.805 111.934 313.68C111.934 314.544 111.771 315.32 111.446 316.008C111.12 316.696 110.662 317.24 110.07 317.64C109.478 318.04 108.784 318.24 107.99 318.24ZM103.822 321.84V309.36H105.526V315.424H105.766V321.84H103.822ZM107.694 316.512C108.195 316.512 108.608 316.387 108.934 316.136C109.259 315.885 109.499 315.547 109.654 315.12C109.814 314.688 109.894 314.208 109.894 313.68C109.894 313.157 109.814 312.683 109.654 312.256C109.494 311.824 109.246 311.483 108.91 311.232C108.574 310.976 108.147 310.848 107.63 310.848C107.139 310.848 106.739 310.968 106.43 311.208C106.12 311.443 105.891 311.773 105.742 312.2C105.598 312.621 105.526 313.115 105.526 313.68C105.526 314.24 105.598 314.733 105.742 315.16C105.891 315.587 106.123 315.92 106.438 316.16C106.758 316.395 107.176 316.512 107.694 316.512ZM113.857 318V306.24H115.785V318H113.857ZM118.342 308.048V306.28H120.27V308.048H118.342ZM118.342 318V309.36H120.27V318H118.342ZM125.082 318.24C124.458 318.24 123.93 318.123 123.498 317.888C123.066 317.648 122.738 317.331 122.514 316.936C122.295 316.541 122.186 316.107 122.186 315.632C122.186 315.216 122.255 314.843 122.394 314.512C122.533 314.176 122.746 313.888 123.034 313.648C123.322 313.403 123.695 313.203 124.154 313.048C124.501 312.936 124.906 312.835 125.37 312.744C125.839 312.653 126.346 312.571 126.89 312.496C127.439 312.416 128.013 312.331 128.61 312.24L127.922 312.632C127.927 312.035 127.794 311.595 127.522 311.312C127.25 311.029 126.791 310.888 126.146 310.888C125.757 310.888 125.381 310.979 125.018 311.16C124.655 311.341 124.402 311.653 124.258 312.096L122.498 311.544C122.711 310.813 123.117 310.227 123.714 309.784C124.317 309.341 125.127 309.12 126.146 309.12C126.914 309.12 127.589 309.245 128.17 309.496C128.757 309.747 129.191 310.157 129.474 310.728C129.629 311.032 129.722 311.344 129.754 311.664C129.786 311.979 129.802 312.323 129.802 312.696V318H128.114V316.128L128.394 316.432C128.005 317.056 127.549 317.515 127.026 317.808C126.509 318.096 125.861 318.24 125.082 318.24ZM125.466 316.704C125.903 316.704 126.277 316.627 126.586 316.472C126.895 316.317 127.141 316.128 127.322 315.904C127.509 315.68 127.634 315.469 127.698 315.272C127.799 315.027 127.855 314.747 127.866 314.432C127.882 314.112 127.89 313.853 127.89 313.656L128.482 313.832C127.901 313.923 127.402 314.003 126.986 314.072C126.57 314.141 126.213 314.208 125.914 314.272C125.615 314.331 125.351 314.397 125.122 314.472C124.898 314.552 124.709 314.645 124.554 314.752C124.399 314.859 124.279 314.981 124.194 315.12C124.114 315.259 124.074 315.421 124.074 315.608C124.074 315.821 124.127 316.011 124.234 316.176C124.341 316.336 124.495 316.464 124.698 316.56C124.906 316.656 125.162 316.704 125.466 316.704ZM137.861 318V313.84C137.861 313.568 137.842 313.267 137.805 312.936C137.767 312.605 137.679 312.288 137.541 311.984C137.407 311.675 137.205 311.421 136.933 311.224C136.666 311.027 136.303 310.928 135.845 310.928C135.599 310.928 135.357 310.968 135.117 311.048C134.877 311.128 134.658 311.267 134.461 311.464C134.269 311.656 134.114 311.923 133.997 312.264C133.879 312.6 133.821 313.032 133.821 313.56L132.677 313.072C132.677 312.336 132.818 311.669 133.101 311.072C133.389 310.475 133.81 310 134.365 309.648C134.919 309.291 135.602 309.112 136.413 309.112C137.053 309.112 137.581 309.219 137.997 309.432C138.413 309.645 138.743 309.917 138.989 310.248C139.234 310.579 139.415 310.931 139.533 311.304C139.65 311.677 139.725 312.032 139.757 312.368C139.794 312.699 139.813 312.968 139.813 313.176V318H137.861ZM131.869 318V309.36H133.589V312.04H133.821V318H131.869ZM145.512 318.24C144.621 318.24 143.861 318.043 143.232 317.648C142.602 317.248 142.12 316.704 141.784 316.016C141.453 315.328 141.285 314.549 141.28 313.68C141.285 312.795 141.458 312.011 141.8 311.328C142.146 310.64 142.637 310.101 143.272 309.712C143.906 309.317 144.661 309.12 145.536 309.12C146.517 309.12 147.346 309.368 148.024 309.864C148.706 310.355 149.152 311.027 149.36 311.88L147.44 312.4C147.29 311.936 147.042 311.576 146.696 311.32C146.349 311.059 145.954 310.928 145.512 310.928C145.01 310.928 144.597 311.048 144.272 311.288C143.946 311.523 143.706 311.848 143.552 312.264C143.397 312.68 143.32 313.152 143.32 313.68C143.32 314.501 143.504 315.165 143.872 315.672C144.24 316.179 144.786 316.432 145.512 316.432C146.024 316.432 146.426 316.315 146.72 316.08C147.018 315.845 147.242 315.507 147.392 315.064L149.36 315.504C149.093 316.384 148.626 317.061 147.96 317.536C147.293 318.005 146.477 318.24 145.512 318.24ZM154.656 318.24C153.782 318.24 153.014 318.051 152.352 317.672C151.691 317.293 151.174 316.768 150.8 316.096C150.432 315.424 150.248 314.651 150.248 313.776C150.248 312.832 150.43 312.013 150.792 311.32C151.155 310.621 151.659 310.08 152.304 309.696C152.95 309.312 153.696 309.12 154.544 309.12C155.44 309.12 156.2 309.331 156.824 309.752C157.454 310.168 157.92 310.757 158.224 311.52C158.528 312.283 158.643 313.181 158.568 314.216H156.656V313.512C156.651 312.573 156.486 311.888 156.16 311.456C155.835 311.024 155.323 310.808 154.624 310.808C153.835 310.808 153.248 311.053 152.864 311.544C152.48 312.029 152.288 312.741 152.288 313.68C152.288 314.555 152.48 315.232 152.864 315.712C153.248 316.192 153.808 316.432 154.544 316.432C155.019 316.432 155.427 316.328 155.768 316.12C156.115 315.907 156.382 315.6 156.568 315.2L158.472 315.776C158.142 316.555 157.63 317.16 156.936 317.592C156.248 318.024 155.488 318.24 154.656 318.24ZM151.68 314.216V312.76H157.624V314.216H151.68Z" fill="#9D60FB"/>
<path d="M113 104.5C121.788 104.5 130.446 106.625 138.235 110.695C146.025 114.764 152.715 120.656 157.734 127.87C162.754 135.083 165.955 143.404 167.064 152.122C168.173 160.84 167.158 169.697 164.104 177.937" stroke="#D5D5DE" stroke-width="21"/>
<path d="M160.673 185.41C156.154 193.567 149.618 200.429 141.69 205.337C133.761 210.246 124.706 213.039 115.389 213.448C106.073 213.856 96.8079 211.868 88.4798 207.672C80.1518 203.477 73.0395 197.215 67.8234 189.485C62.6074 181.755 59.4619 172.816 58.688 163.523C57.9141 154.23 59.5376 144.894 63.4033 136.408C67.2689 127.921 73.2473 120.569 80.7667 115.054C88.2861 109.539 97.0948 106.045 106.35 104.907" stroke="#9D60FB" stroke-width="21"/>
<rect x="60.5" y="261.5" width="21" height="21" rx="2.9375" stroke="#D5D5DE"/>
<path d="M75.0192 268.122C75.0191 268.122 75.0192 268.122 75.0192 268.122C76.1275 268.094 76.6818 269.424 75.892 270.2L70.2393 275.853C69.8928 276.199 69.311 276.199 68.9646 275.853L66.0967 272.971C64.9052 271.835 66.6648 270.075 67.8008 271.267L69.3941 272.86C69.505 272.971 69.6989 272.971 69.8236 272.86L74.1879 268.496C74.4095 268.26 74.7005 268.135 75.0191 268.122C75.0192 268.122 75.0192 268.122 75.0192 268.122V268.122Z" fill="#9D60FB"/>
<rect x="144.5" y="261.5" width="21" height="21" rx="2.9375" stroke="#D5D5DE"/>
<path d="M159.019 268.122C159.019 268.122 159.019 268.122 159.019 268.122C160.128 268.094 160.682 269.424 159.892 270.2L154.239 275.853C153.893 276.199 153.311 276.199 152.965 275.853L150.097 272.971C148.905 271.835 150.665 270.075 151.801 271.267L153.394 272.86C153.505 272.971 153.699 272.971 153.824 272.86L158.188 268.496C158.41 268.26 158.7 268.135 159.019 268.122C159.019 268.122 159.019 268.122 159.019 268.122V268.122Z" fill="#9D60FB"/>
<rect x="97.5" y="143.5" width="31" height="31" rx="4.5" stroke="#D5D5DE"/>
<path d="M118.845 153.356C118.845 153.356 118.845 153.356 118.845 153.356C120.458 153.316 121.264 155.25 120.115 156.379L111.893 164.601C111.389 165.105 110.543 165.105 110.039 164.601L105.867 160.409C104.134 158.757 106.693 156.197 108.346 157.931L110.663 160.248C110.825 160.409 111.107 160.409 111.288 160.248L117.636 153.9C117.959 153.558 118.382 153.376 118.845 153.356C118.845 153.356 118.845 153.356 118.845 153.356V153.356Z" fill="#9D60FB"/>
<rect x="97.5" y="255.5" width="31" height="31" rx="4.5" stroke="#D5D5DE"/>
<path d="M118.845 265.356C118.845 265.356 118.845 265.356 118.845 265.356C120.458 265.316 121.264 267.25 120.115 268.379L111.893 276.601C111.389 277.105 110.543 277.105 110.039 276.601L105.867 272.409C104.134 270.757 106.693 268.197 108.346 269.931L110.663 272.248C110.825 272.409 111.107 272.409 111.288 272.248L117.636 265.9C117.959 265.558 118.382 265.376 118.845 265.356C118.845 265.356 118.845 265.356 118.845 265.356V265.356Z" fill="#9D60FB"/>
<rect x="474.579" y="352.5" width="182.698" height="328.079" rx="9.5" transform="rotate(90 474.579 352.5)" fill="white" stroke="#E8E8E8"/>
<path d="M284.802 407.699V397.619H286.265V406.32H290.829V407.699H284.802ZM294.152 407.909C293.592 407.909 293.123 407.807 292.745 407.601C292.367 407.391 292.08 407.116 291.884 406.775C291.693 406.43 291.597 406.052 291.597 405.641C291.597 405.259 291.665 404.923 291.8 404.633C291.935 404.344 292.136 404.099 292.402 403.898C292.668 403.693 292.995 403.527 293.382 403.401C293.718 403.303 294.098 403.217 294.523 403.142C294.948 403.068 295.393 402.998 295.86 402.932C296.331 402.867 296.798 402.802 297.26 402.736L296.728 403.03C296.737 402.438 296.611 401.999 296.35 401.714C296.093 401.425 295.65 401.28 295.02 401.28C294.623 401.28 294.259 401.374 293.928 401.56C293.597 401.742 293.366 402.046 293.235 402.47L291.87 402.05C292.057 401.402 292.411 400.886 292.934 400.503C293.461 400.121 294.161 399.929 295.034 399.929C295.711 399.929 296.299 400.046 296.798 400.279C297.302 400.508 297.671 400.872 297.904 401.371C298.025 401.619 298.1 401.88 298.128 402.155C298.156 402.431 298.17 402.727 298.17 403.044V407.699H296.875V405.97L297.127 406.194C296.814 406.773 296.415 407.205 295.93 407.489C295.449 407.769 294.857 407.909 294.152 407.909ZM294.411 406.712C294.826 406.712 295.183 406.64 295.482 406.495C295.781 406.346 296.021 406.157 296.203 405.928C296.385 405.7 296.504 405.462 296.56 405.214C296.639 404.99 296.684 404.738 296.693 404.458C296.707 404.178 296.714 403.954 296.714 403.786L297.19 403.961C296.728 404.031 296.308 404.094 295.93 404.15C295.552 404.206 295.209 404.262 294.901 404.318C294.598 404.37 294.327 404.433 294.089 404.507C293.888 404.577 293.709 404.661 293.55 404.759C293.396 404.857 293.272 404.976 293.179 405.116C293.09 405.256 293.046 405.427 293.046 405.627C293.046 405.823 293.095 406.005 293.193 406.173C293.291 406.337 293.44 406.467 293.641 406.565C293.842 406.663 294.098 406.712 294.411 406.712ZM304.314 407.699C303.838 407.793 303.371 407.832 302.914 407.818C302.456 407.804 302.048 407.716 301.689 407.552C301.329 407.389 301.059 407.132 300.877 406.782C300.713 406.47 300.625 406.152 300.611 405.83C300.601 405.504 300.597 405.135 300.597 404.724V398.039H302.067V404.654C302.067 404.958 302.069 405.221 302.074 405.445C302.083 405.669 302.132 405.858 302.221 406.012C302.389 406.302 302.655 406.467 303.019 406.509C303.387 406.547 303.819 406.53 304.314 406.46V407.699ZM299.148 401.315V400.139H304.314V401.315H299.148ZM308.919 407.909C308.168 407.909 307.507 407.746 306.938 407.419C306.373 407.088 305.932 406.628 305.615 406.04C305.302 405.448 305.146 404.762 305.146 403.982C305.146 403.156 305.3 402.44 305.608 401.833C305.921 401.227 306.355 400.758 306.91 400.426C307.465 400.095 308.112 399.929 308.849 399.929C309.619 399.929 310.275 400.109 310.816 400.468C311.357 400.823 311.761 401.329 312.027 401.987C312.298 402.645 312.405 403.427 312.349 404.332H310.886V403.8C310.877 402.923 310.709 402.274 310.382 401.854C310.06 401.434 309.568 401.224 308.905 401.224C308.172 401.224 307.622 401.455 307.253 401.917C306.884 402.379 306.7 403.047 306.7 403.919C306.7 404.75 306.884 405.394 307.253 405.851C307.622 406.304 308.154 406.53 308.849 406.53C309.306 406.53 309.701 406.428 310.032 406.222C310.368 406.012 310.629 405.714 310.816 405.326L312.251 405.781C311.957 406.458 311.511 406.983 310.914 407.356C310.317 407.725 309.652 407.909 308.919 407.909ZM306.224 404.332V403.191H311.621V404.332H306.224ZM319.02 407.699V403.982C319.02 403.688 318.995 403.387 318.943 403.079C318.897 402.767 318.803 402.477 318.663 402.211C318.528 401.945 318.334 401.731 318.082 401.567C317.835 401.404 317.511 401.322 317.109 401.322C316.848 401.322 316.601 401.367 316.367 401.455C316.134 401.539 315.929 401.677 315.751 401.868C315.579 402.06 315.441 402.312 315.338 402.624C315.24 402.937 315.191 403.317 315.191 403.765L314.281 403.422C314.281 402.736 314.41 402.132 314.666 401.609C314.923 401.082 315.292 400.671 315.772 400.377C316.253 400.083 316.834 399.936 317.515 399.936C318.038 399.936 318.477 400.02 318.831 400.188C319.186 400.356 319.473 400.578 319.692 400.853C319.916 401.124 320.087 401.42 320.203 401.742C320.32 402.064 320.399 402.379 320.441 402.687C320.483 402.995 320.504 403.266 320.504 403.499V407.699H319.02ZM313.707 407.699V400.139H315.016V402.323H315.191V407.699H313.707ZM325.466 407.909C324.691 407.909 324.033 407.737 323.492 407.391C322.951 407.046 322.535 406.572 322.246 405.97C321.961 405.368 321.817 404.685 321.812 403.919C321.817 403.14 321.966 402.452 322.26 401.854C322.554 401.252 322.974 400.781 323.52 400.44C324.066 400.1 324.722 399.929 325.487 399.929C326.313 399.929 327.018 400.135 327.601 400.545C328.189 400.956 328.576 401.518 328.763 402.232L327.307 402.652C327.162 402.228 326.924 401.899 326.593 401.665C326.266 401.427 325.891 401.308 325.466 401.308C324.985 401.308 324.591 401.423 324.283 401.651C323.975 401.875 323.746 402.183 323.597 402.575C323.448 402.967 323.371 403.415 323.366 403.919C323.371 404.699 323.548 405.329 323.898 405.809C324.253 406.29 324.775 406.53 325.466 406.53C325.937 406.53 326.318 406.423 326.607 406.208C326.901 405.989 327.125 405.676 327.279 405.27L328.763 405.62C328.516 406.358 328.107 406.925 327.538 407.321C326.969 407.713 326.278 407.909 325.466 407.909ZM330.938 411.059L332.401 407.076L332.422 408.252L329.125 400.139H330.651L333.115 406.404H332.667L335.019 400.139H336.503L332.331 411.059H330.938Z" fill="#7D7E8E"/>
<path d="M179.65 414.199C179.65 411.162 182.113 408.699 185.15 408.699V408.699C188.188 408.699 190.65 411.162 190.65 414.199V535.699H179.65V414.199Z" fill="#EEEEEE"/>
<path d="M200.65 458.199C200.65 455.162 203.113 452.699 206.15 452.699V452.699C209.188 452.699 211.65 455.162 211.65 458.199V535.699H200.65V458.199Z" fill="#EEEEEE"/>
<path d="M221.65 391.199C221.65 388.162 224.113 385.699 227.15 385.699V385.699C230.188 385.699 232.65 388.162 232.65 391.199V535.699H221.65V391.199Z" fill="#9D60FB"/>
<path d="M242.65 458.199C242.65 455.162 245.113 452.699 248.15 452.699V452.699C251.188 452.699 253.65 455.162 253.65 458.199V535.699H242.65V458.199Z" fill="#EEEEEE"/>
<path d="M263.65 487.199C263.65 484.162 266.113 481.699 269.15 481.699V481.699C272.188 481.699 274.65 484.162 274.65 487.199V535.699H263.65V487.199Z" fill="#EEEEEE"/>
<path d="M284.65 458.199C284.65 455.162 287.113 452.699 290.15 452.699V452.699C293.188 452.699 295.65 455.162 295.65 458.199V535.699H284.65V458.199Z" fill="#EEEEEE"/>
<path d="M305.65 443.199C305.65 440.162 308.113 437.699 311.15 437.699V437.699C314.188 437.699 316.65 440.162 316.65 443.199V535.699H305.65V443.199Z" fill="#EEEEEE"/>
<path d="M326.65 487.199C326.65 484.162 329.113 481.699 332.15 481.699V481.699C335.188 481.699 337.65 484.162 337.65 487.199V535.699H326.65V487.199Z" fill="#EEEEEE"/>
<path d="M347.65 458.199C347.65 455.162 350.113 452.699 353.15 452.699V452.699C356.188 452.699 358.65 455.162 358.65 458.199V535.699H347.65V458.199Z" fill="#EEEEEE"/>
<path d="M368.65 405.199C368.65 402.162 371.113 399.699 374.15 399.699V399.699C377.188 399.699 379.65 402.162 379.65 405.199V535.699H368.65V405.199Z" fill="#9D60FB"/>
<path d="M389.65 433.199C389.65 430.162 392.113 427.699 395.15 427.699V427.699C398.188 427.699 400.65 430.162 400.65 433.199V535.699H389.65V433.199Z" fill="#EEEEEE"/>
<path d="M410.65 385.199C410.65 382.162 413.113 379.699 416.15 379.699V379.699C419.188 379.699 421.65 382.162 421.65 385.199V535.699H410.65V385.199Z" fill="#9D60FB"/>
<path d="M431.65 414.199C431.65 411.162 434.113 408.699 437.15 408.699V408.699C440.188 408.699 442.65 411.162 442.65 414.199V535.699H431.65V414.199Z" fill="#EEEEEE"/>
<rect x="562.928" y="77.5" width="156.778" height="156.778" rx="9.5" transform="rotate(90 562.928 77.5)" fill="white" stroke="#E8E8E8"/>
<path d="M470.036 201V190.92H473.193C473.286 190.92 473.459 190.922 473.711 190.927C473.967 190.932 474.212 190.95 474.446 190.983C475.234 191.081 475.897 191.363 476.434 191.83C476.975 192.297 477.383 192.889 477.659 193.608C477.934 194.322 478.072 195.106 478.072 195.96C478.072 196.819 477.934 197.607 477.659 198.326C477.383 199.04 476.975 199.63 476.434 200.097C475.897 200.559 475.234 200.839 474.446 200.937C474.212 200.97 473.967 200.988 473.711 200.993C473.459 200.998 473.286 201 473.193 201H470.036ZM471.534 199.607H473.193C473.351 199.607 473.54 199.602 473.76 199.593C473.979 199.584 474.173 199.565 474.341 199.537C474.854 199.439 475.269 199.217 475.587 198.872C475.909 198.522 476.144 198.093 476.294 197.584C476.443 197.075 476.518 196.534 476.518 195.96C476.518 195.367 476.441 194.819 476.287 194.315C476.133 193.806 475.895 193.382 475.573 193.041C475.255 192.696 474.845 192.476 474.341 192.383C474.173 192.35 473.977 192.332 473.753 192.327C473.533 192.318 473.347 192.313 473.193 192.313H471.534V199.607ZM479.702 201V193.44H481.004V195.274L480.822 195.036C480.915 194.793 481.036 194.572 481.186 194.371C481.335 194.166 481.508 193.998 481.704 193.867C481.895 193.727 482.107 193.62 482.341 193.545C482.579 193.466 482.821 193.419 483.069 193.405C483.316 193.386 483.554 193.398 483.783 193.44V194.812C483.535 194.747 483.26 194.728 482.957 194.756C482.658 194.784 482.383 194.88 482.131 195.043C481.893 195.197 481.704 195.384 481.564 195.603C481.428 195.822 481.33 196.067 481.27 196.338C481.209 196.604 481.179 196.886 481.179 197.185V201H479.702ZM485.256 192.201V190.78H486.719V192.201H485.256ZM485.256 201V193.44H486.719V201H485.256ZM489.514 201V193.174C489.514 192.983 489.521 192.78 489.535 192.565C489.549 192.346 489.588 192.131 489.654 191.921C489.724 191.706 489.838 191.51 489.997 191.333C490.188 191.123 490.398 190.974 490.627 190.885C490.855 190.796 491.082 190.745 491.306 190.731C491.534 190.717 491.744 190.71 491.936 190.71H492.888V191.914H492.006C491.66 191.914 491.401 192 491.229 192.173C491.061 192.341 490.977 192.581 490.977 192.894V201H489.514ZM488.261 194.616V193.44H492.888V194.616H488.261ZM498.328 201C497.852 201.093 497.386 201.133 496.928 201.119C496.471 201.105 496.063 201.016 495.703 200.853C495.344 200.69 495.073 200.433 494.891 200.083C494.728 199.77 494.639 199.453 494.625 199.131C494.616 198.804 494.611 198.436 494.611 198.025V191.34H496.081V197.955C496.081 198.258 496.084 198.522 496.088 198.746C496.098 198.97 496.147 199.159 496.235 199.313C496.403 199.602 496.669 199.768 497.033 199.81C497.402 199.847 497.834 199.831 498.328 199.761V201ZM493.162 194.616V193.44H498.328V194.616H493.162Z" fill="#7D7E8E"/>
<path d="M438.512 163.301C438.402 164.122 438.979 164.877 439.8 164.986C440.621 165.096 441.376 164.519 441.486 163.698L438.512 163.301ZM462.344 140.653L462.73 142.102L462.344 140.653ZM529.999 115.129L512.68 115.36L521.539 130.243L529.999 115.129ZM441.486 163.698C441.517 163.468 441.7 162.947 442.186 162.097C442.647 161.292 443.3 160.325 444.111 159.243C445.732 157.082 447.917 154.553 450.279 152.094C452.641 149.635 455.152 147.275 457.414 145.444C459.744 143.559 461.613 142.4 462.73 142.102L461.957 139.204C460.156 139.684 457.845 141.236 455.527 143.112C453.142 145.041 450.539 147.493 448.116 150.016C445.692 152.539 443.422 155.162 441.711 157.443C440.857 158.582 440.125 159.658 439.582 160.608C439.064 161.514 438.625 162.461 438.512 163.301L441.486 163.698ZM462.73 142.102C466.054 141.216 469.653 141.611 473.906 142.086C478.072 142.55 482.752 143.069 487.793 142.128L487.242 139.179C482.7 140.027 478.441 139.573 474.239 139.104C470.124 138.645 465.928 138.145 461.957 139.204L462.73 142.102ZM487.793 142.128C490.356 141.649 492.201 140.875 493.685 139.841C495.151 138.821 496.185 137.599 497.156 136.405C499.057 134.068 500.997 131.463 506.197 128.928L504.883 126.231C499.069 129.066 496.789 132.102 494.829 134.512C493.869 135.692 493.062 136.62 491.971 137.379C490.898 138.126 489.471 138.762 487.242 139.179L487.793 142.128ZM506.197 128.928C511.417 126.383 515.298 124.983 518.985 123.415L517.811 120.654C514.288 122.152 510.19 123.644 504.883 126.231L506.197 128.928Z" fill="#9D60FB"/>
<line x1="438.499" y1="111.668" x2="438.499" y2="165.335" stroke="#D5D5DE"/>
<line x1="437.999" y1="164.836" x2="529.999" y2="164.836" stroke="#D5D5DE"/>
<g filter="url(#filter0_d_6641_6193)">
<rect x="423.936" y="147.588" width="184.348" height="184.348" rx="11.1706" transform="rotate(90 423.936 147.588)" fill="white" stroke="#E8E8E8" stroke-width="1.17586"/>
<path d="M282.192 293.168V281.315H286.983C287.098 281.315 287.241 281.321 287.411 281.332C287.581 281.337 287.743 281.354 287.896 281.381C288.555 281.485 289.104 281.71 289.543 282.056C289.987 282.402 290.319 282.838 290.538 283.365C290.758 283.892 290.868 284.473 290.868 285.11C290.868 285.752 290.758 286.336 290.538 286.863C290.319 287.39 289.987 287.826 289.543 288.172C289.104 288.517 288.555 288.742 287.896 288.847C287.743 288.869 287.578 288.885 287.402 288.896C287.232 288.907 287.092 288.913 286.983 288.913H283.913V293.168H282.192ZM283.913 287.283H286.917C287.027 287.283 287.147 287.277 287.279 287.266C287.416 287.255 287.545 287.236 287.666 287.209C288.017 287.126 288.3 286.976 288.514 286.756C288.728 286.531 288.881 286.273 288.975 285.982C289.068 285.691 289.115 285.401 289.115 285.11C289.115 284.819 289.068 284.531 288.975 284.246C288.881 283.955 288.728 283.7 288.514 283.48C288.3 283.255 288.017 283.101 287.666 283.019C287.545 282.986 287.416 282.964 287.279 282.953C287.147 282.942 287.027 282.937 286.917 282.937H283.913V287.283ZM296.343 293.415C295.46 293.415 294.683 293.223 294.014 292.839C293.35 292.449 292.831 291.909 292.458 291.217C292.091 290.52 291.907 289.714 291.907 288.797C291.907 287.826 292.088 286.984 292.45 286.27C292.818 285.557 293.328 285.006 293.981 284.616C294.634 284.226 295.394 284.032 296.261 284.032C297.166 284.032 297.937 284.243 298.574 284.665C299.21 285.082 299.685 285.678 299.998 286.451C300.316 287.225 300.442 288.144 300.376 289.209H298.656V288.583C298.645 287.552 298.448 286.789 298.064 286.295C297.685 285.801 297.106 285.554 296.327 285.554C295.465 285.554 294.818 285.826 294.384 286.369C293.951 286.912 293.734 287.697 293.734 288.723C293.734 289.7 293.951 290.457 294.384 290.995C294.818 291.527 295.443 291.793 296.261 291.793C296.799 291.793 297.262 291.673 297.652 291.431C298.047 291.184 298.354 290.833 298.574 290.378L300.261 290.913C299.916 291.708 299.391 292.326 298.689 292.765C297.987 293.198 297.205 293.415 296.343 293.415ZM293.174 289.209V287.867H299.52V289.209H293.174ZM302.223 293.168V284.278H303.754V286.435L303.54 286.155C303.65 285.87 303.793 285.609 303.968 285.373C304.144 285.132 304.347 284.934 304.577 284.781C304.802 284.616 305.052 284.49 305.326 284.402C305.606 284.309 305.891 284.254 306.182 284.237C306.473 284.215 306.753 284.229 307.022 284.278V285.892C306.731 285.815 306.407 285.793 306.051 285.826C305.699 285.859 305.376 285.971 305.079 286.163C304.799 286.344 304.577 286.564 304.413 286.822C304.253 287.08 304.138 287.368 304.067 287.686C303.996 287.999 303.96 288.331 303.96 288.682V293.168H302.223ZM309.404 293.168V283.966C309.404 283.741 309.412 283.502 309.429 283.25C309.445 282.992 309.492 282.739 309.569 282.492C309.651 282.24 309.786 282.009 309.972 281.801C310.197 281.554 310.444 281.378 310.713 281.274C310.982 281.17 311.248 281.11 311.511 281.093C311.78 281.077 312.027 281.068 312.252 281.068H313.372V282.484H312.334C311.928 282.484 311.624 282.586 311.421 282.789C311.223 282.986 311.124 283.269 311.124 283.636V293.168H309.404ZM307.931 285.661V284.278H313.372V285.661H307.931ZM318.221 293.415C317.332 293.415 316.561 293.215 315.908 292.814C315.255 292.413 314.75 291.862 314.394 291.16C314.042 290.452 313.867 289.637 313.867 288.715C313.867 287.788 314.048 286.973 314.41 286.27C314.772 285.563 315.28 285.014 315.933 284.624C316.586 284.229 317.349 284.032 318.221 284.032C319.11 284.032 319.881 284.232 320.534 284.632C321.187 285.033 321.692 285.584 322.048 286.287C322.405 286.989 322.583 287.799 322.583 288.715C322.583 289.642 322.402 290.46 322.04 291.168C321.684 291.87 321.179 292.422 320.526 292.822C319.873 293.217 319.104 293.415 318.221 293.415ZM318.221 291.793C319.072 291.793 319.705 291.508 320.122 290.937C320.545 290.361 320.756 289.62 320.756 288.715C320.756 287.788 320.542 287.047 320.114 286.493C319.692 285.933 319.061 285.653 318.221 285.653C317.645 285.653 317.17 285.785 316.797 286.048C316.424 286.306 316.147 286.665 315.966 287.126C315.785 287.582 315.694 288.111 315.694 288.715C315.694 289.648 315.908 290.394 316.336 290.954C316.764 291.514 317.392 291.793 318.221 291.793ZM324.392 293.168V284.278H325.923V286.435L325.709 286.155C325.819 285.87 325.962 285.609 326.137 285.373C326.313 285.132 326.516 284.934 326.746 284.781C326.971 284.616 327.221 284.49 327.495 284.402C327.775 284.309 328.06 284.254 328.351 284.237C328.642 284.215 328.922 284.229 329.191 284.278V285.892C328.9 285.815 328.576 285.793 328.22 285.826C327.868 285.859 327.545 285.971 327.248 286.163C326.968 286.344 326.746 286.564 326.582 286.822C326.423 287.08 326.307 287.368 326.236 287.686C326.165 287.999 326.129 288.331 326.129 288.682V293.168H324.392ZM341.409 293.168L341.417 287.629C341.417 286.986 341.253 286.487 340.924 286.13C340.594 285.768 340.161 285.587 339.623 285.587C339.294 285.587 338.992 285.664 338.718 285.818C338.449 285.966 338.229 286.191 338.059 286.493C337.895 286.789 337.812 287.162 337.812 287.612L336.981 287.192C336.97 286.567 337.102 286.018 337.376 285.546C337.656 285.074 338.035 284.709 338.512 284.451C338.989 284.188 339.524 284.056 340.117 284.056C341.077 284.056 341.821 284.344 342.348 284.921C342.874 285.497 343.138 286.262 343.138 287.217L343.13 293.168H341.409ZM330.75 293.168V284.278H332.281V286.847H332.479V293.168H330.75ZM336.084 293.168L336.092 287.661C336.092 287.014 335.927 286.506 335.598 286.139C335.274 285.771 334.838 285.587 334.289 285.587C333.746 285.587 333.307 285.774 332.972 286.147C332.643 286.52 332.479 287.008 332.479 287.612L331.656 287.085C331.656 286.504 331.795 285.985 332.075 285.53C332.355 285.074 332.734 284.715 333.211 284.451C333.689 284.188 334.229 284.056 334.833 284.056C335.464 284.056 336.001 284.191 336.446 284.46C336.89 284.723 337.228 285.093 337.458 285.571C337.694 286.048 337.812 286.602 337.812 287.233L337.804 293.168H336.084ZM347.786 293.415C347.127 293.415 346.576 293.294 346.131 293.053C345.687 292.806 345.349 292.482 345.119 292.081C344.894 291.675 344.781 291.231 344.781 290.748C344.781 290.298 344.861 289.903 345.02 289.563C345.179 289.223 345.415 288.934 345.728 288.699C346.041 288.457 346.425 288.262 346.88 288.114C347.275 287.999 347.722 287.897 348.222 287.81C348.721 287.722 349.245 287.639 349.794 287.563C350.348 287.486 350.897 287.409 351.44 287.332L350.815 287.678C350.826 286.981 350.677 286.465 350.37 286.13C350.068 285.79 349.547 285.62 348.806 285.62C348.34 285.62 347.912 285.73 347.522 285.949C347.133 286.163 346.861 286.52 346.707 287.019L345.102 286.526C345.322 285.763 345.739 285.156 346.353 284.707C346.973 284.257 347.797 284.032 348.823 284.032C349.618 284.032 350.31 284.169 350.897 284.443C351.49 284.712 351.923 285.14 352.197 285.727C352.34 286.018 352.428 286.325 352.461 286.649C352.494 286.973 352.51 287.321 352.51 287.694V293.168H350.987V291.135L351.284 291.398C350.916 292.079 350.447 292.586 349.876 292.921C349.311 293.25 348.614 293.415 347.786 293.415ZM348.09 292.007C348.578 292.007 348.998 291.922 349.349 291.752C349.701 291.577 349.983 291.354 350.197 291.086C350.411 290.817 350.551 290.537 350.617 290.246C350.71 289.983 350.762 289.686 350.773 289.357C350.79 289.028 350.798 288.764 350.798 288.567L351.358 288.773C350.815 288.855 350.321 288.929 349.876 288.995C349.432 289.061 349.028 289.127 348.666 289.192C348.31 289.253 347.991 289.327 347.712 289.415C347.476 289.497 347.264 289.596 347.078 289.711C346.897 289.826 346.751 289.966 346.641 290.131C346.537 290.295 346.485 290.496 346.485 290.732C346.485 290.962 346.543 291.176 346.658 291.374C346.773 291.566 346.949 291.719 347.185 291.835C347.421 291.95 347.722 292.007 348.09 292.007ZM360.887 293.168V288.797C360.887 288.452 360.856 288.098 360.796 287.736C360.741 287.368 360.631 287.028 360.467 286.715C360.308 286.402 360.08 286.15 359.784 285.958C359.493 285.766 359.111 285.67 358.64 285.67C358.332 285.67 358.041 285.722 357.767 285.826C357.493 285.925 357.251 286.087 357.043 286.312C356.84 286.537 356.678 286.833 356.557 287.2C356.442 287.568 356.384 288.015 356.384 288.542L355.314 288.139C355.314 287.332 355.465 286.622 355.767 286.007C356.069 285.387 356.502 284.904 357.067 284.558C357.633 284.213 358.316 284.04 359.117 284.04C359.732 284.04 360.247 284.139 360.664 284.336C361.081 284.534 361.419 284.794 361.677 285.118C361.94 285.436 362.14 285.785 362.278 286.163C362.415 286.542 362.508 286.912 362.558 287.275C362.607 287.637 362.632 287.955 362.632 288.229V293.168H360.887ZM354.639 293.168V284.278H356.178V286.847H356.384V293.168H354.639ZM368.466 293.415C367.555 293.415 366.781 293.212 366.145 292.806C365.508 292.4 365.02 291.843 364.679 291.135C364.345 290.427 364.175 289.623 364.169 288.723C364.175 287.807 364.35 286.997 364.696 286.295C365.042 285.587 365.535 285.033 366.177 284.632C366.82 284.232 367.59 284.032 368.49 284.032C369.462 284.032 370.29 284.273 370.976 284.756C371.668 285.239 372.123 285.9 372.343 286.74L370.63 287.233C370.46 286.734 370.18 286.347 369.791 286.073C369.407 285.793 368.965 285.653 368.466 285.653C367.901 285.653 367.437 285.788 367.075 286.056C366.713 286.32 366.444 286.682 366.268 287.143C366.092 287.604 366.002 288.131 365.996 288.723C366.002 289.64 366.21 290.38 366.622 290.946C367.039 291.511 367.654 291.793 368.466 291.793C369.02 291.793 369.467 291.667 369.807 291.415C370.153 291.157 370.416 290.789 370.598 290.312L372.343 290.723C372.052 291.59 371.572 292.257 370.902 292.723C370.233 293.184 369.42 293.415 368.466 293.415ZM377.721 293.415C376.837 293.415 376.061 293.223 375.391 292.839C374.727 292.449 374.209 291.909 373.836 291.217C373.468 290.52 373.284 289.714 373.284 288.797C373.284 287.826 373.465 286.984 373.828 286.27C374.195 285.557 374.706 285.006 375.359 284.616C376.012 284.226 376.772 284.032 377.639 284.032C378.544 284.032 379.315 284.243 379.951 284.665C380.588 285.082 381.063 285.678 381.375 286.451C381.694 287.225 381.82 288.144 381.754 289.209H380.034V288.583C380.023 287.552 379.825 286.789 379.441 286.295C379.062 285.801 378.484 285.554 377.704 285.554C376.843 285.554 376.195 285.826 375.762 286.369C375.328 286.912 375.112 287.697 375.112 288.723C375.112 289.7 375.328 290.457 375.762 290.995C376.195 291.527 376.821 291.793 377.639 291.793C378.176 291.793 378.64 291.673 379.03 291.431C379.425 291.184 379.732 290.833 379.951 290.378L381.639 290.913C381.293 291.708 380.769 292.326 380.067 292.765C379.364 293.198 378.582 293.415 377.721 293.415ZM374.552 289.209V287.867H380.898V289.209H374.552Z" fill="#7D7E8E"/>
<path d="M327.741 208.68C323.697 208.68 319.762 209.99 316.526 212.414C313.289 214.839 310.926 218.246 309.789 222.127C308.652 226.008 308.803 230.152 310.22 233.94C311.636 237.727 314.242 240.954 317.646 243.136C321.051 245.318 325.07 246.338 329.103 246.044C333.136 245.749 336.965 244.156 340.017 241.502C343.068 238.849 345.177 235.278 346.029 231.325C346.88 227.372 346.427 223.249 344.739 219.575L327.741 227.386L327.741 208.68Z" fill="#D5D5DE"/>
<path d="M331.482 178.75C339.6 178.75 347.537 181.151 354.293 185.65C361.05 190.15 366.325 196.547 369.455 204.037L331.482 219.905L331.482 178.75Z" fill="#9D60FB"/>
</g>
<path d="M89.1017 173.687C89.1017 200.52 110.854 222.272 137.687 222.272C164.52 222.272 186.273 200.52 186.273 173.687C186.273 146.854 164.52 125.101 137.687 125.101C110.854 125.101 89.1017 146.854 89.1017 173.687Z" stroke="#303245" stroke-width="6.20241"/>
<line x1="6.20241" y1="-6.20241" x2="81.8174" y2="-6.20241" transform="matrix(-0.695265 -0.718753 -0.718754 0.695264 227 274.578)" stroke="#303245" stroke-width="12.4048" stroke-linecap="round"/>
<line x1="2.06747" y1="-2.06747" x2="16.3551" y2="-2.06747" transform="matrix(-0.695796 -0.71824 -0.718241 0.695795 191.854 232.816)" stroke="#FAFBFC" stroke-width="4.13494" stroke-linecap="round"/>
<mask id="mask0_6641_6193" style="mask-type:alpha" maskUnits="userSpaceOnUse" x="92" y="128" width="91" height="91">
<ellipse cx="45.3124" cy="45.3124" rx="45.3124" ry="45.3124" transform="matrix(-1 0 0 1 183 128.375)" fill="#303245"/>
</mask>
<g mask="url(#mask0_6641_6193)">
<circle opacity="0.3" cx="48.5301" cy="48.5301" r="48.5301" transform="matrix(-1 0 0 1 186.021 124.961)" fill="white"/>
</g>
<rect width="570" height="130" transform="matrix(1 0 0 -1 0 543)" fill="url(#paint1_linear_6641_6193)"/>
<defs>
<filter id="filter0_d_6641_6193" x="179" y="102" width="305.524" height="305.523" filterUnits="userSpaceOnUse" color-interpolation-filters="sRGB">
<feFlood flood-opacity="0" result="BackgroundImageFix"/>
<feColorMatrix in="SourceAlpha" type="matrix" values="0 0 0 0 0 0 0 0 0 0 0 0 0 0 0 0 0 0 127 0" result="hardAlpha"/>
<feMorphology radius="10" operator="dilate" in="SourceAlpha" result="effect1_dropShadow_6641_6193"/>
<feOffset dy="15"/>
<feGaussianBlur stdDeviation="25"/>
<feComposite in2="hardAlpha" operator="out"/>
<feColorMatrix type="matrix" values="0 0 0 0 0.484221 0 0 0 0 0.54857 0 0 0 0 0.584766 0 0 0 0.25 0"/>
<feBlend mode="normal" in2="BackgroundImageFix" result="effect1_dropShadow_6641_6193"/>
<feBlend mode="normal" in="SourceGraphic" in2="effect1_dropShadow_6641_6193" result="shape"/>
</filter>
<linearGradient id="paint0_linear_6641_6193" x1="285" y1="0" x2="285" y2="570" gradientUnits="userSpaceOnUse">
<stop stop-color="#F6F6F7"/>
<stop offset="1" stop-color="#F6F6F7" stop-opacity="0"/>
</linearGradient>
<linearGradient id="paint1_linear_6641_6193" x1="285" y1="0" x2="285" y2="130" gradientUnits="userSpaceOnUse">
<stop stop-color="white"/>
<stop offset="1" stop-color="white" stop-opacity="0"/>
</linearGradient>
</defs>
</svg>
