<?xml version="1.0" encoding="UTF-8"?>
<svg xmlns="http://www.w3.org/2000/svg" width="546" height="570" viewBox="0 0 546 570" fill="none">
  <rect x="23" width="500" height="570" rx="30" fill="url(#paint0_linear_6542_6133)"></rect>
  <path d="M274 228L274 172" stroke="url(#paint1_linear_6542_6133)" stroke-width="3"></path>
  <path d="M336 278L394 255" stroke="url(#paint2_linear_6542_6133)" stroke-width="3"></path>
  <path d="M209 278L151 255" stroke="url(#paint3_linear_6542_6133)" stroke-width="3"></path>
  <path d="M233 348L195 396" stroke="url(#paint4_linear_6542_6133)" stroke-width="3"></path>
  <path d="M313 348L351 396" stroke="url(#paint5_linear_6542_6133)" stroke-width="3"></path>
  <circle cx="82" cy="233" r="77.5" fill="white" stroke="#E8E8E8"></circle>
  <circle cx="273" cy="94" r="77.5" fill="white" stroke="#E8E8E8"></circle>
  <circle cx="464" cy="233" r="77.5" fill="white" stroke="#E8E8E8"></circle>
  <circle cx="155" cy="458" r="77.5" fill="white" stroke="#E8E8E8"></circle>
  <circle cx="391" cy="458" r="77.5" fill="white" stroke="#E8E8E8"></circle>
  <path d="M353.944 476.27C352.648 476.27 351.544 475.988 350.632 475.424C349.72 474.854 349.021 474.062 348.535 473.048C348.055 472.034 347.815 470.858 347.815 469.52C347.815 468.182 348.055 467.006 348.535 465.992C349.021 464.978 349.72 464.189 350.632 463.625C351.544 463.055 352.648 462.77 353.944 462.77C355.438 462.77 356.674 463.148 357.652 463.904C358.636 464.66 359.32 465.677 359.704 466.955L357.796 467.468C357.544 466.562 357.094 465.851 356.446 465.335C355.804 464.819 354.97 464.561 353.944 464.561C353.026 464.561 352.261 464.768 351.649 465.182C351.037 465.596 350.575 466.175 350.263 466.919C349.957 467.663 349.804 468.53 349.804 469.52C349.798 470.51 349.948 471.377 350.254 472.121C350.566 472.865 351.028 473.444 351.64 473.858C352.258 474.272 353.026 474.479 353.944 474.479C354.97 474.479 355.804 474.221 356.446 473.705C357.094 473.183 357.544 472.472 357.796 471.572L359.704 472.085C359.32 473.363 358.636 474.38 357.652 475.136C356.674 475.892 355.438 476.27 353.944 476.27ZM365.905 476.27C364.933 476.27 364.09 476.051 363.376 475.613C362.662 475.175 362.11 474.572 361.72 473.804C361.336 473.03 361.144 472.139 361.144 471.131C361.144 470.117 361.342 469.226 361.738 468.458C362.134 467.684 362.689 467.084 363.403 466.658C364.117 466.226 364.951 466.01 365.905 466.01C366.877 466.01 367.72 466.229 368.434 466.667C369.148 467.105 369.7 467.708 370.09 468.476C370.48 469.244 370.675 470.129 370.675 471.131C370.675 472.145 370.477 473.039 370.081 473.813C369.691 474.581 369.139 475.184 368.425 475.622C367.711 476.054 366.871 476.27 365.905 476.27ZM365.905 474.497C366.835 474.497 367.528 474.185 367.984 473.561C368.446 472.931 368.677 472.121 368.677 471.131C368.677 470.117 368.443 469.307 367.975 468.701C367.513 468.089 366.823 467.783 365.905 467.783C365.275 467.783 364.756 467.927 364.348 468.215C363.94 468.497 363.637 468.89 363.439 469.394C363.241 469.892 363.142 470.471 363.142 471.131C363.142 472.151 363.376 472.967 363.844 473.579C364.312 474.191 364.999 474.497 365.905 474.497ZM379.475 476V471.221C379.475 470.843 379.442 470.456 379.376 470.06C379.316 469.658 379.196 469.286 379.016 468.944C378.842 468.602 378.593 468.326 378.269 468.116C377.951 467.906 377.534 467.801 377.018 467.801C376.682 467.801 376.364 467.858 376.064 467.972C375.764 468.08 375.5 468.257 375.272 468.503C375.05 468.749 374.873 469.073 374.741 469.475C374.615 469.877 374.552 470.366 374.552 470.942L373.382 470.501C373.382 469.619 373.547 468.842 373.877 468.17C374.207 467.492 374.681 466.964 375.299 466.586C375.917 466.208 376.664 466.019 377.54 466.019C378.212 466.019 378.776 466.127 379.232 466.343C379.688 466.559 380.057 466.844 380.339 467.198C380.627 467.546 380.846 467.927 380.996 468.341C381.146 468.755 381.248 469.16 381.302 469.556C381.356 469.952 381.383 470.3 381.383 470.6V476H379.475ZM372.644 476V466.28H374.327V469.088H374.552V476H372.644ZM384.618 476V465.938C384.618 465.692 384.627 465.431 384.645 465.155C384.663 464.873 384.714 464.597 384.798 464.327C384.888 464.051 385.035 463.799 385.239 463.571C385.485 463.301 385.755 463.109 386.049 462.995C386.343 462.881 386.634 462.815 386.922 462.797C387.216 462.779 387.486 462.77 387.732 462.77H388.956V464.318H387.822C387.378 464.318 387.045 464.429 386.823 464.651C386.607 464.867 386.499 465.176 386.499 465.578V476H384.618ZM383.007 467.792V466.28H388.956V467.792H383.007ZM390.846 464.687V462.86H392.727V464.687H390.846ZM390.846 476V466.28H392.727V476H390.846ZM399.439 480.59C398.917 480.59 398.41 480.509 397.918 480.347C397.432 480.185 396.988 479.945 396.586 479.627C396.184 479.315 395.851 478.928 395.587 478.466L397.324 477.584C397.534 477.998 397.834 478.301 398.224 478.493C398.614 478.685 399.025 478.781 399.457 478.781C399.991 478.781 400.447 478.685 400.825 478.493C401.203 478.307 401.488 478.025 401.68 477.647C401.878 477.269 401.974 476.801 401.968 476.243V473.525H402.193V466.28H403.858V476.261C403.858 476.519 403.849 476.765 403.831 476.999C403.813 477.233 403.78 477.467 403.732 477.701C403.594 478.355 403.33 478.895 402.94 479.321C402.556 479.747 402.064 480.065 401.464 480.275C400.87 480.485 400.195 480.59 399.439 480.59ZM399.295 476.27C398.389 476.27 397.606 476.045 396.946 475.595C396.292 475.145 395.785 474.533 395.425 473.759C395.071 472.979 394.894 472.103 394.894 471.131C394.894 470.153 395.074 469.28 395.434 468.512C395.794 467.738 396.304 467.129 396.964 466.685C397.63 466.235 398.419 466.01 399.331 466.01C400.249 466.01 401.02 466.235 401.644 466.685C402.274 467.129 402.748 467.738 403.066 468.512C403.39 469.286 403.552 470.159 403.552 471.131C403.552 472.103 403.39 472.976 403.066 473.75C402.742 474.524 402.265 475.139 401.635 475.595C401.005 476.045 400.225 476.27 399.295 476.27ZM399.556 474.569C400.174 474.569 400.678 474.422 401.068 474.128C401.458 473.834 401.743 473.429 401.923 472.913C402.103 472.397 402.193 471.803 402.193 471.131C402.193 470.459 402.1 469.865 401.914 469.349C401.734 468.833 401.452 468.431 401.068 468.143C400.69 467.855 400.207 467.711 399.619 467.711C398.995 467.711 398.482 467.864 398.08 468.17C397.678 468.476 397.378 468.887 397.18 469.403C396.988 469.919 396.892 470.495 396.892 471.131C396.892 471.773 396.988 472.355 397.18 472.877C397.378 473.393 397.672 473.804 398.062 474.11C398.458 474.416 398.956 474.569 399.556 474.569ZM410.048 476.261C409.376 476.261 408.812 476.153 408.356 475.937C407.9 475.721 407.528 475.439 407.24 475.091C406.958 474.737 406.742 474.353 406.592 473.939C406.442 473.525 406.34 473.12 406.286 472.724C406.232 472.328 406.205 471.98 406.205 471.68V466.28H408.113V471.059C408.113 471.437 408.143 471.827 408.203 472.229C408.269 472.625 408.389 472.994 408.563 473.336C408.743 473.678 408.992 473.954 409.31 474.164C409.634 474.374 410.054 474.479 410.57 474.479C410.906 474.479 411.224 474.425 411.524 474.317C411.824 474.203 412.085 474.023 412.307 473.777C412.535 473.531 412.712 473.207 412.838 472.805C412.97 472.403 413.036 471.914 413.036 471.338L414.206 471.779C414.206 472.661 414.041 473.441 413.711 474.119C413.381 474.791 412.907 475.316 412.289 475.694C411.671 476.072 410.924 476.261 410.048 476.261ZM413.261 476V473.192H413.036V466.28H414.935V476H413.261ZM417.459 476V466.28H419.133V468.638L418.899 468.332C419.019 468.02 419.175 467.735 419.367 467.477C419.559 467.213 419.781 466.997 420.033 466.829C420.279 466.649 420.552 466.511 420.852 466.415C421.158 466.313 421.47 466.253 421.788 466.235C422.106 466.211 422.412 466.226 422.706 466.28V468.044C422.388 467.96 422.034 467.936 421.644 467.972C421.26 468.008 420.906 468.131 420.582 468.341C420.276 468.539 420.033 468.779 419.853 469.061C419.679 469.343 419.553 469.658 419.475 470.006C419.397 470.348 419.358 470.711 419.358 471.095V476H417.459ZM428.555 476.27C427.589 476.27 426.74 476.06 426.008 475.64C425.282 475.214 424.715 474.623 424.307 473.867C423.905 473.105 423.704 472.223 423.704 471.221C423.704 470.159 423.902 469.238 424.298 468.458C424.7 467.678 425.258 467.075 425.972 466.649C426.686 466.223 427.517 466.01 428.465 466.01C429.455 466.01 430.298 466.241 430.994 466.703C431.69 467.159 432.209 467.81 432.551 468.656C432.899 469.502 433.037 470.507 432.965 471.671H431.084V470.987C431.072 469.859 430.856 469.025 430.436 468.485C430.022 467.945 429.389 467.675 428.537 467.675C427.595 467.675 426.887 467.972 426.413 468.566C425.939 469.16 425.702 470.018 425.702 471.14C425.702 472.208 425.939 473.036 426.413 473.624C426.887 474.206 427.571 474.497 428.465 474.497C429.053 474.497 429.56 474.365 429.986 474.101C430.418 473.831 430.754 473.447 430.994 472.949L432.839 473.534C432.461 474.404 431.888 475.079 431.12 475.559C430.352 476.033 429.497 476.27 428.555 476.27ZM425.09 471.671V470.204H432.029V471.671H425.09ZM374.828 498V485.04H376.709V496.227H382.577V498H374.828ZM384.285 498V485.04H386.166V496.227H392.034V498H384.285ZM393.562 498V485.04H395.263L399.961 494.787L404.632 485.04H406.351V497.991H404.569V489.126L400.384 498H399.529L395.335 489.126V498H393.562Z" fill="#7D7E8E"></path>
  <path d="M390 440.5C392.485 440.5 394.5 438.485 394.5 436C394.5 433.515 392.485 431.5 390 431.5C387.515 431.5 385.5 433.515 385.5 436C385.5 438.485 387.515 440.5 390 440.5Z" stroke="#9D60FB" stroke-width="3" stroke-linecap="round" stroke-linejoin="round"></path>
  <path d="M400.091 440.091C399.909 440.502 399.855 440.958 399.935 441.401C400.016 441.843 400.227 442.251 400.541 442.573L400.623 442.655C400.876 442.908 401.077 443.209 401.215 443.54C401.352 443.871 401.423 444.226 401.423 444.584C401.423 444.942 401.352 445.297 401.215 445.628C401.077 445.96 400.876 446.26 400.623 446.514C400.369 446.767 400.069 446.968 399.738 447.106C399.406 447.243 399.052 447.314 398.693 447.314C398.335 447.314 397.98 447.243 397.649 447.106C397.318 446.968 397.017 446.767 396.764 446.514L396.682 446.432C396.36 446.117 395.952 445.907 395.51 445.826C395.068 445.746 394.611 445.8 394.2 445.982C393.797 446.155 393.453 446.442 393.21 446.808C392.968 447.173 392.838 447.602 392.836 448.041V448.273C392.836 448.996 392.549 449.69 392.038 450.201C391.526 450.713 390.832 451 390.109 451C389.386 451 388.692 450.713 388.181 450.201C387.669 449.69 387.382 448.996 387.382 448.273V448.15C387.371 447.699 387.225 447.261 386.963 446.894C386.7 446.526 386.333 446.247 385.909 446.091C385.498 445.909 385.042 445.855 384.599 445.935C384.157 446.016 383.749 446.227 383.427 446.541L383.345 446.623C383.092 446.876 382.791 447.077 382.46 447.215C382.129 447.352 381.774 447.423 381.416 447.423C381.058 447.423 380.703 447.352 380.372 447.215C380.04 447.077 379.74 446.876 379.486 446.623C379.233 446.369 379.032 446.069 378.894 445.738C378.757 445.406 378.686 445.052 378.686 444.693C378.686 444.335 378.757 443.98 378.894 443.649C379.032 443.318 379.233 443.017 379.486 442.764L379.568 442.682C379.883 442.36 380.093 441.952 380.174 441.51C380.254 441.068 380.2 440.611 380.018 440.2C379.845 439.797 379.558 439.453 379.192 439.21C378.827 438.968 378.398 438.838 377.959 438.836H377.727C377.004 438.836 376.31 438.549 375.799 438.038C375.287 437.526 375 436.832 375 436.109C375 435.386 375.287 434.692 375.799 434.181C376.31 433.669 377.004 433.382 377.727 433.382H377.85C378.301 433.371 378.739 433.225 379.106 432.963C379.474 432.7 379.753 432.333 379.909 431.909C380.091 431.498 380.145 431.042 380.065 430.599C379.984 430.157 379.773 429.749 379.459 429.427L379.377 429.345C379.124 429.092 378.923 428.791 378.785 428.46C378.648 428.129 378.577 427.774 378.577 427.416C378.577 427.058 378.648 426.703 378.785 426.372C378.923 426.04 379.124 425.74 379.377 425.486C379.631 425.233 379.931 425.032 380.262 424.894C380.594 424.757 380.948 424.686 381.307 424.686C381.665 424.686 382.02 424.757 382.351 424.894C382.682 425.032 382.983 425.233 383.236 425.486L383.318 425.568C383.64 425.883 384.048 426.093 384.49 426.174C384.932 426.254 385.389 426.2 385.8 426.018H385.909C386.312 425.845 386.656 425.558 386.899 425.192C387.141 424.827 387.271 424.398 387.273 423.959V423.727C387.273 423.004 387.56 422.31 388.072 421.799C388.583 421.287 389.277 421 390 421C390.723 421 391.417 421.287 391.928 421.799C392.44 422.31 392.727 423.004 392.727 423.727V423.85C392.729 424.289 392.859 424.718 393.101 425.083C393.344 425.449 393.688 425.736 394.091 425.909C394.502 426.091 394.958 426.145 395.401 426.065C395.843 425.984 396.251 425.773 396.573 425.459L396.655 425.377C396.908 425.124 397.209 424.923 397.54 424.785C397.871 424.648 398.226 424.577 398.584 424.577C398.942 424.577 399.297 424.648 399.628 424.785C399.96 424.923 400.26 425.124 400.514 425.377C400.767 425.631 400.968 425.931 401.106 426.262C401.243 426.594 401.314 426.948 401.314 427.307C401.314 427.665 401.243 428.02 401.106 428.351C400.968 428.682 400.767 428.983 400.514 429.236L400.432 429.318C400.117 429.64 399.907 430.048 399.826 430.49C399.746 430.932 399.8 431.389 399.982 431.8V431.909C400.155 432.312 400.442 432.656 400.808 432.899C401.173 433.141 401.602 433.271 402.041 433.273H402.273C402.996 433.273 403.69 433.56 404.201 434.072C404.713 434.583 405 435.277 405 436C405 436.723 404.713 437.417 404.201 437.928C403.69 438.44 402.996 438.727 402.273 438.727H402.15C401.711 438.729 401.282 438.859 400.917 439.101C400.551 439.344 400.264 439.688 400.091 440.091Z" stroke="#9D60FB" stroke-width="3" stroke-linecap="round" stroke-linejoin="round"></path>
  <path d="M106.835 476L111.047 463.04H113.756L117.968 476H116.015L112.136 464.174H112.622L108.788 476H106.835ZM109.022 473.075V471.311H115.79V473.075H109.022ZM124.145 476.27C123.215 476.27 122.435 476.045 121.805 475.595C121.175 475.139 120.698 474.524 120.374 473.75C120.05 472.976 119.888 472.103 119.888 471.131C119.888 470.159 120.047 469.286 120.365 468.512C120.689 467.738 121.163 467.129 121.787 466.685C122.417 466.235 123.191 466.01 124.109 466.01C125.021 466.01 125.807 466.235 126.467 466.685C127.133 467.129 127.646 467.738 128.006 468.512C128.366 469.28 128.546 470.153 128.546 471.131C128.546 472.103 128.366 472.979 128.006 473.759C127.652 474.533 127.145 475.145 126.485 475.595C125.831 476.045 125.051 476.27 124.145 476.27ZM119.573 480.32V466.28H121.247V473.273H121.463V480.32H119.573ZM123.884 474.569C124.484 474.569 124.979 474.416 125.369 474.11C125.765 473.804 126.059 473.393 126.251 472.877C126.449 472.355 126.548 471.773 126.548 471.131C126.548 470.495 126.449 469.919 126.251 469.403C126.059 468.887 125.762 468.476 125.36 468.17C124.958 467.864 124.445 467.711 123.821 467.711C123.233 467.711 122.747 467.855 122.363 468.143C121.985 468.431 121.703 468.833 121.517 469.349C121.337 469.865 121.247 470.459 121.247 471.131C121.247 471.803 121.337 472.397 121.517 472.913C121.697 473.429 121.982 473.834 122.372 474.128C122.762 474.422 123.266 474.569 123.884 474.569ZM135.096 476.27C134.166 476.27 133.386 476.045 132.756 475.595C132.126 475.139 131.649 474.524 131.325 473.75C131.001 472.976 130.839 472.103 130.839 471.131C130.839 470.159 130.998 469.286 131.316 468.512C131.64 467.738 132.114 467.129 132.738 466.685C133.368 466.235 134.142 466.01 135.06 466.01C135.972 466.01 136.758 466.235 137.418 466.685C138.084 467.129 138.597 467.738 138.957 468.512C139.317 469.28 139.497 470.153 139.497 471.131C139.497 472.103 139.317 472.979 138.957 473.759C138.603 474.533 138.096 475.145 137.436 475.595C136.782 476.045 136.002 476.27 135.096 476.27ZM130.524 480.32V466.28H132.198V473.273H132.414V480.32H130.524ZM134.835 474.569C135.435 474.569 135.93 474.416 136.32 474.11C136.716 473.804 137.01 473.393 137.202 472.877C137.4 472.355 137.499 471.773 137.499 471.131C137.499 470.495 137.4 469.919 137.202 469.403C137.01 468.887 136.713 468.476 136.311 468.17C135.909 467.864 135.396 467.711 134.772 467.711C134.184 467.711 133.698 467.855 133.314 468.143C132.936 468.431 132.654 468.833 132.468 469.349C132.288 469.865 132.198 470.459 132.198 471.131C132.198 471.803 132.288 472.397 132.468 472.913C132.648 473.429 132.933 473.834 133.323 474.128C133.713 474.422 134.217 474.569 134.835 474.569ZM141.665 476V462.77H143.546V476H141.665ZM146.428 464.687V462.86H148.309V464.687H146.428ZM146.428 476V466.28H148.309V476H146.428ZM155.17 476.27C154.174 476.27 153.328 476.048 152.632 475.604C151.936 475.16 151.402 474.551 151.03 473.777C150.664 473.003 150.478 472.124 150.472 471.14C150.478 470.138 150.67 469.253 151.048 468.485C151.426 467.711 151.966 467.105 152.668 466.667C153.37 466.229 154.213 466.01 155.197 466.01C156.259 466.01 157.165 466.274 157.915 466.802C158.671 467.33 159.169 468.053 159.409 468.971L157.537 469.511C157.351 468.965 157.045 468.542 156.619 468.242C156.199 467.936 155.716 467.783 155.17 467.783C154.552 467.783 154.045 467.93 153.649 468.224C153.253 468.512 152.959 468.908 152.767 469.412C152.575 469.916 152.476 470.492 152.47 471.14C152.476 472.142 152.704 472.952 153.154 473.57C153.61 474.188 154.282 474.497 155.17 474.497C155.776 474.497 156.265 474.359 156.637 474.083C157.015 473.801 157.303 473.399 157.501 472.877L159.409 473.327C159.091 474.275 158.566 475.004 157.834 475.514C157.102 476.018 156.214 476.27 155.17 476.27ZM163.864 476.27C163.144 476.27 162.541 476.138 162.055 475.874C161.569 475.604 161.2 475.25 160.948 474.812C160.702 474.368 160.579 473.882 160.579 473.354C160.579 472.862 160.666 472.43 160.84 472.058C161.014 471.686 161.272 471.371 161.614 471.113C161.956 470.849 162.376 470.636 162.874 470.474C163.306 470.348 163.795 470.237 164.341 470.141C164.887 470.045 165.46 469.955 166.06 469.871C166.666 469.787 167.266 469.703 167.86 469.619L167.176 469.997C167.188 469.235 167.026 468.671 166.69 468.305C166.36 467.933 165.79 467.747 164.98 467.747C164.47 467.747 164.002 467.867 163.576 468.107C163.15 468.341 162.853 468.731 162.685 469.277L160.93 468.737C161.17 467.903 161.626 467.24 162.298 466.748C162.976 466.256 163.876 466.01 164.998 466.01C165.868 466.01 166.624 466.16 167.266 466.46C167.914 466.754 168.388 467.222 168.688 467.864C168.844 468.182 168.94 468.518 168.976 468.872C169.012 469.226 169.03 469.607 169.03 470.015V476H167.365V473.777L167.689 474.065C167.287 474.809 166.774 475.364 166.15 475.73C165.532 476.09 164.77 476.27 163.864 476.27ZM164.197 474.731C164.731 474.731 165.19 474.638 165.574 474.452C165.958 474.26 166.267 474.017 166.501 473.723C166.735 473.429 166.888 473.123 166.96 472.805C167.062 472.517 167.119 472.193 167.131 471.833C167.149 471.473 167.158 471.185 167.158 470.969L167.77 471.194C167.176 471.284 166.636 471.365 166.15 471.437C165.664 471.509 165.223 471.581 164.827 471.653C164.437 471.719 164.089 471.8 163.783 471.896C163.525 471.986 163.294 472.094 163.09 472.22C162.892 472.346 162.733 472.499 162.613 472.679C162.499 472.859 162.442 473.078 162.442 473.336C162.442 473.588 162.505 473.822 162.631 474.038C162.757 474.248 162.949 474.416 163.207 474.542C163.465 474.668 163.795 474.731 164.197 474.731ZM176.929 476C176.317 476.12 175.717 476.171 175.129 476.153C174.541 476.135 174.016 476.021 173.554 475.811C173.092 475.601 172.744 475.271 172.51 474.821C172.3 474.419 172.186 474.011 172.168 473.597C172.156 473.177 172.15 472.703 172.15 472.175V463.58H174.04V472.085C174.04 472.475 174.043 472.814 174.049 473.102C174.061 473.39 174.124 473.633 174.238 473.831C174.454 474.203 174.796 474.416 175.264 474.47C175.738 474.518 176.293 474.497 176.929 474.407V476ZM170.287 467.792V466.28H176.929V467.792H170.287ZM179.159 464.687V462.86H181.04V464.687H179.159ZM179.159 476V466.28H181.04V476H179.159ZM187.963 476.27C186.991 476.27 186.148 476.051 185.434 475.613C184.72 475.175 184.168 474.572 183.778 473.804C183.394 473.03 183.202 472.139 183.202 471.131C183.202 470.117 183.4 469.226 183.796 468.458C184.192 467.684 184.747 467.084 185.461 466.658C186.175 466.226 187.009 466.01 187.963 466.01C188.935 466.01 189.778 466.229 190.492 466.667C191.206 467.105 191.758 467.708 192.148 468.476C192.538 469.244 192.733 470.129 192.733 471.131C192.733 472.145 192.535 473.039 192.139 473.813C191.749 474.581 191.197 475.184 190.483 475.622C189.769 476.054 188.929 476.27 187.963 476.27ZM187.963 474.497C188.893 474.497 189.586 474.185 190.042 473.561C190.504 472.931 190.735 472.121 190.735 471.131C190.735 470.117 190.501 469.307 190.033 468.701C189.571 468.089 188.881 467.783 187.963 467.783C187.333 467.783 186.814 467.927 186.406 468.215C185.998 468.497 185.695 468.89 185.497 469.394C185.299 469.892 185.2 470.471 185.2 471.131C185.2 472.151 185.434 472.967 185.902 473.579C186.37 474.191 187.057 474.497 187.963 474.497ZM201.533 476V471.221C201.533 470.843 201.5 470.456 201.434 470.06C201.374 469.658 201.254 469.286 201.074 468.944C200.9 468.602 200.651 468.326 200.327 468.116C200.009 467.906 199.592 467.801 199.076 467.801C198.74 467.801 198.422 467.858 198.122 467.972C197.822 468.08 197.558 468.257 197.33 468.503C197.108 468.749 196.931 469.073 196.799 469.475C196.673 469.877 196.61 470.366 196.61 470.942L195.44 470.501C195.44 469.619 195.605 468.842 195.935 468.17C196.265 467.492 196.739 466.964 197.357 466.586C197.975 466.208 198.722 466.019 199.598 466.019C200.27 466.019 200.834 466.127 201.29 466.343C201.746 466.559 202.115 466.844 202.397 467.198C202.685 467.546 202.904 467.927 203.054 468.341C203.204 468.755 203.306 469.16 203.36 469.556C203.414 469.952 203.441 470.3 203.441 470.6V476H201.533ZM194.702 476V466.28H196.385V469.088H196.61V476H194.702ZM108.917 498V485.04H110.798V498H108.917ZM120.322 498V493.221C120.322 492.843 120.289 492.456 120.223 492.06C120.163 491.658 120.043 491.286 119.863 490.944C119.689 490.602 119.44 490.326 119.116 490.116C118.798 489.906 118.381 489.801 117.865 489.801C117.529 489.801 117.211 489.858 116.911 489.972C116.611 490.08 116.347 490.257 116.119 490.503C115.897 490.749 115.72 491.073 115.588 491.475C115.462 491.877 115.399 492.366 115.399 492.942L114.229 492.501C114.229 491.619 114.394 490.842 114.724 490.17C115.054 489.492 115.528 488.964 116.146 488.586C116.764 488.208 117.511 488.019 118.387 488.019C119.059 488.019 119.623 488.127 120.079 488.343C120.535 488.559 120.904 488.844 121.186 489.198C121.474 489.546 121.693 489.927 121.843 490.341C121.993 490.755 122.095 491.16 122.149 491.556C122.203 491.952 122.23 492.3 122.23 492.6V498H120.322ZM113.491 498V488.28H115.174V491.088H115.399V498H113.491ZM130.136 498C129.524 498.12 128.924 498.171 128.336 498.153C127.748 498.135 127.223 498.021 126.761 497.811C126.299 497.601 125.951 497.271 125.717 496.821C125.507 496.419 125.393 496.011 125.375 495.597C125.363 495.177 125.357 494.703 125.357 494.175V485.58H127.247V494.085C127.247 494.475 127.25 494.814 127.256 495.102C127.268 495.39 127.331 495.633 127.445 495.831C127.661 496.203 128.003 496.416 128.471 496.47C128.945 496.518 129.5 496.497 130.136 496.407V498ZM123.494 489.792V488.28H130.136V489.792H123.494ZM136.057 498.27C135.091 498.27 134.242 498.06 133.51 497.64C132.784 497.214 132.217 496.623 131.809 495.867C131.407 495.105 131.206 494.223 131.206 493.221C131.206 492.159 131.404 491.238 131.8 490.458C132.202 489.678 132.76 489.075 133.474 488.649C134.188 488.223 135.019 488.01 135.967 488.01C136.957 488.01 137.8 488.241 138.496 488.703C139.192 489.159 139.711 489.81 140.053 490.656C140.401 491.502 140.539 492.507 140.467 493.671H138.586V492.987C138.574 491.859 138.358 491.025 137.938 490.485C137.524 489.945 136.891 489.675 136.039 489.675C135.097 489.675 134.389 489.972 133.915 490.566C133.441 491.16 133.204 492.018 133.204 493.14C133.204 494.208 133.441 495.036 133.915 495.624C134.389 496.206 135.073 496.497 135.967 496.497C136.555 496.497 137.062 496.365 137.488 496.101C137.92 495.831 138.256 495.447 138.496 494.949L140.341 495.534C139.963 496.404 139.39 497.079 138.622 497.559C137.854 498.033 136.999 498.27 136.057 498.27ZM132.592 493.671V492.204H139.531V493.671H132.592ZM146.492 502.59C145.97 502.59 145.463 502.509 144.971 502.347C144.485 502.185 144.041 501.945 143.639 501.627C143.237 501.315 142.904 500.928 142.64 500.466L144.377 499.584C144.587 499.998 144.887 500.301 145.277 500.493C145.667 500.685 146.078 500.781 146.51 500.781C147.044 500.781 147.5 500.685 147.878 500.493C148.256 500.307 148.541 500.025 148.733 499.647C148.931 499.269 149.027 498.801 149.021 498.243V495.525H149.246V488.28H150.911V498.261C150.911 498.519 150.902 498.765 150.884 498.999C150.866 499.233 150.833 499.467 150.785 499.701C150.647 500.355 150.383 500.895 149.993 501.321C149.609 501.747 149.117 502.065 148.517 502.275C147.923 502.485 147.248 502.59 146.492 502.59ZM146.348 498.27C145.442 498.27 144.659 498.045 143.999 497.595C143.345 497.145 142.838 496.533 142.478 495.759C142.124 494.979 141.947 494.103 141.947 493.131C141.947 492.153 142.127 491.28 142.487 490.512C142.847 489.738 143.357 489.129 144.017 488.685C144.683 488.235 145.472 488.01 146.384 488.01C147.302 488.01 148.073 488.235 148.697 488.685C149.327 489.129 149.801 489.738 150.119 490.512C150.443 491.286 150.605 492.159 150.605 493.131C150.605 494.103 150.443 494.976 150.119 495.75C149.795 496.524 149.318 497.139 148.688 497.595C148.058 498.045 147.278 498.27 146.348 498.27ZM146.609 496.569C147.227 496.569 147.731 496.422 148.121 496.128C148.511 495.834 148.796 495.429 148.976 494.913C149.156 494.397 149.246 493.803 149.246 493.131C149.246 492.459 149.153 491.865 148.967 491.349C148.787 490.833 148.505 490.431 148.121 490.143C147.743 489.855 147.26 489.711 146.672 489.711C146.048 489.711 145.535 489.864 145.133 490.17C144.731 490.476 144.431 490.887 144.233 491.403C144.041 491.919 143.945 492.495 143.945 493.131C143.945 493.773 144.041 494.355 144.233 494.877C144.431 495.393 144.725 495.804 145.115 496.11C145.511 496.416 146.009 496.569 146.609 496.569ZM153.438 498V488.28H155.112V490.638L154.878 490.332C154.998 490.02 155.154 489.735 155.346 489.477C155.538 489.213 155.76 488.997 156.012 488.829C156.258 488.649 156.531 488.511 156.831 488.415C157.137 488.313 157.449 488.253 157.767 488.235C158.085 488.211 158.391 488.226 158.685 488.28V490.044C158.367 489.96 158.013 489.936 157.623 489.972C157.239 490.008 156.885 490.131 156.561 490.341C156.255 490.539 156.012 490.779 155.832 491.061C155.658 491.343 155.532 491.658 155.454 492.006C155.376 492.348 155.337 492.711 155.337 493.095V498H153.438ZM162.862 498.27C162.142 498.27 161.539 498.138 161.053 497.874C160.567 497.604 160.198 497.25 159.946 496.812C159.7 496.368 159.577 495.882 159.577 495.354C159.577 494.862 159.664 494.43 159.838 494.058C160.012 493.686 160.27 493.371 160.612 493.113C160.954 492.849 161.374 492.636 161.872 492.474C162.304 492.348 162.793 492.237 163.339 492.141C163.885 492.045 164.458 491.955 165.058 491.871C165.664 491.787 166.264 491.703 166.858 491.619L166.174 491.997C166.186 491.235 166.024 490.671 165.688 490.305C165.358 489.933 164.788 489.747 163.978 489.747C163.468 489.747 163 489.867 162.574 490.107C162.148 490.341 161.851 490.731 161.683 491.277L159.928 490.737C160.168 489.903 160.624 489.24 161.296 488.748C161.974 488.256 162.874 488.01 163.996 488.01C164.866 488.01 165.622 488.16 166.264 488.46C166.912 488.754 167.386 489.222 167.686 489.864C167.842 490.182 167.938 490.518 167.974 490.872C168.01 491.226 168.028 491.607 168.028 492.015V498H166.363V495.777L166.687 496.065C166.285 496.809 165.772 497.364 165.148 497.73C164.53 498.09 163.768 498.27 162.862 498.27ZM163.195 496.731C163.729 496.731 164.188 496.638 164.572 496.452C164.956 496.26 165.265 496.017 165.499 495.723C165.733 495.429 165.886 495.123 165.958 494.805C166.06 494.517 166.117 494.193 166.129 493.833C166.147 493.473 166.156 493.185 166.156 492.969L166.768 493.194C166.174 493.284 165.634 493.365 165.148 493.437C164.662 493.509 164.221 493.581 163.825 493.653C163.435 493.719 163.087 493.8 162.781 493.896C162.523 493.986 162.292 494.094 162.088 494.22C161.89 494.346 161.731 494.499 161.611 494.679C161.497 494.859 161.44 495.078 161.44 495.336C161.44 495.588 161.503 495.822 161.629 496.038C161.755 496.248 161.947 496.416 162.205 496.542C162.463 496.668 162.793 496.731 163.195 496.731ZM175.927 498C175.315 498.12 174.715 498.171 174.127 498.153C173.539 498.135 173.014 498.021 172.552 497.811C172.09 497.601 171.742 497.271 171.508 496.821C171.298 496.419 171.184 496.011 171.166 495.597C171.154 495.177 171.148 494.703 171.148 494.175V485.58H173.038V494.085C173.038 494.475 173.041 494.814 173.047 495.102C173.059 495.39 173.122 495.633 173.236 495.831C173.452 496.203 173.794 496.416 174.262 496.47C174.736 496.518 175.291 496.497 175.927 496.407V498ZM169.285 489.792V488.28H175.927V489.792H169.285ZM178.157 486.687V484.86H180.038V486.687H178.157ZM178.157 498V488.28H180.038V498H178.157ZM186.961 498.27C185.989 498.27 185.146 498.051 184.432 497.613C183.718 497.175 183.166 496.572 182.776 495.804C182.392 495.03 182.2 494.139 182.2 493.131C182.2 492.117 182.398 491.226 182.794 490.458C183.19 489.684 183.745 489.084 184.459 488.658C185.173 488.226 186.007 488.01 186.961 488.01C187.933 488.01 188.776 488.229 189.49 488.667C190.204 489.105 190.756 489.708 191.146 490.476C191.536 491.244 191.731 492.129 191.731 493.131C191.731 494.145 191.533 495.039 191.137 495.813C190.747 496.581 190.195 497.184 189.481 497.622C188.767 498.054 187.927 498.27 186.961 498.27ZM186.961 496.497C187.891 496.497 188.584 496.185 189.04 495.561C189.502 494.931 189.733 494.121 189.733 493.131C189.733 492.117 189.499 491.307 189.031 490.701C188.569 490.089 187.879 489.783 186.961 489.783C186.331 489.783 185.812 489.927 185.404 490.215C184.996 490.497 184.693 490.89 184.495 491.394C184.297 491.892 184.198 492.471 184.198 493.131C184.198 494.151 184.432 494.967 184.9 495.579C185.368 496.191 186.055 496.497 186.961 496.497ZM200.531 498V493.221C200.531 492.843 200.498 492.456 200.432 492.06C200.372 491.658 200.252 491.286 200.072 490.944C199.898 490.602 199.649 490.326 199.325 490.116C199.007 489.906 198.59 489.801 198.074 489.801C197.738 489.801 197.42 489.858 197.12 489.972C196.82 490.08 196.556 490.257 196.328 490.503C196.106 490.749 195.929 491.073 195.797 491.475C195.671 491.877 195.608 492.366 195.608 492.942L194.438 492.501C194.438 491.619 194.603 490.842 194.933 490.17C195.263 489.492 195.737 488.964 196.355 488.586C196.973 488.208 197.72 488.019 198.596 488.019C199.268 488.019 199.832 488.127 200.288 488.343C200.744 488.559 201.113 488.844 201.395 489.198C201.683 489.546 201.902 489.927 202.052 490.341C202.202 490.755 202.304 491.16 202.358 491.556C202.412 491.952 202.439 492.3 202.439 492.6V498H200.531ZM193.7 498V488.28H195.383V491.088H195.608V498H193.7Z" fill="#7D7E8E"></path>
  <path d="M152 437.502C152.644 438.363 153.466 439.076 154.41 439.591C155.354 440.107 156.398 440.414 157.47 440.49C158.543 440.567 159.62 440.412 160.627 440.037C161.635 439.661 162.55 439.073 163.31 438.312L167.81 433.812C169.176 432.397 169.932 430.503 169.915 428.536C169.898 426.57 169.11 424.689 167.719 423.298C166.328 421.908 164.447 421.119 162.481 421.102C160.514 421.085 158.62 421.841 157.205 423.207L154.625 425.772M158 434.502C157.356 433.641 156.534 432.928 155.59 432.412C154.647 431.897 153.603 431.59 152.53 431.513C151.458 431.437 150.381 431.591 149.373 431.967C148.366 432.343 147.451 432.931 146.69 433.692L142.19 438.192C140.824 439.606 140.068 441.501 140.085 443.467C140.102 445.434 140.891 447.315 142.282 448.706C143.672 450.096 145.553 450.885 147.52 450.902C149.486 450.919 151.381 450.163 152.795 448.797L155.36 446.232" stroke="#9D60FB" stroke-width="3" stroke-linecap="round" stroke-linejoin="round"></path>
  <path d="M49.6506 262V249.04H51.3516L56.0496 258.787L60.7206 249.04H62.4396V261.991H60.6576V253.126L56.4726 262H55.6176L51.4236 253.126V262H49.6506ZM69.1822 262.27C68.2102 262.27 67.3672 262.051 66.6532 261.613C65.9392 261.175 65.3872 260.572 64.9972 259.804C64.6132 259.03 64.4212 258.139 64.4212 257.131C64.4212 256.117 64.6192 255.226 65.0152 254.458C65.4112 253.684 65.9662 253.084 66.6802 252.658C67.3942 252.226 68.2282 252.01 69.1822 252.01C70.1542 252.01 70.9972 252.229 71.7112 252.667C72.4252 253.105 72.9772 253.708 73.3672 254.476C73.7572 255.244 73.9522 256.129 73.9522 257.131C73.9522 258.145 73.7542 259.039 73.3582 259.813C72.9682 260.581 72.4162 261.184 71.7022 261.622C70.9882 262.054 70.1482 262.27 69.1822 262.27ZM69.1822 260.497C70.1122 260.497 70.8052 260.185 71.2612 259.561C71.7232 258.931 71.9542 258.121 71.9542 257.131C71.9542 256.117 71.7202 255.307 71.2522 254.701C70.7902 254.089 70.1002 253.783 69.1822 253.783C68.5522 253.783 68.0332 253.927 67.6252 254.215C67.2172 254.497 66.9142 254.89 66.7162 255.394C66.5182 255.892 66.4192 256.471 66.4192 257.131C66.4192 258.151 66.6532 258.967 67.1212 259.579C67.5892 260.191 68.2762 260.497 69.1822 260.497ZM82.7519 262V257.221C82.7519 256.843 82.7189 256.456 82.6529 256.06C82.5929 255.658 82.4729 255.286 82.2929 254.944C82.1189 254.602 81.8699 254.326 81.5459 254.116C81.2279 253.906 80.8109 253.801 80.2949 253.801C79.9589 253.801 79.6409 253.858 79.3409 253.972C79.0409 254.08 78.7769 254.257 78.5489 254.503C78.3269 254.749 78.1499 255.073 78.0179 255.475C77.8919 255.877 77.8289 256.366 77.8289 256.942L76.6589 256.501C76.6589 255.619 76.8239 254.842 77.1539 254.17C77.4839 253.492 77.9579 252.964 78.5759 252.586C79.1939 252.208 79.9409 252.019 80.8169 252.019C81.4889 252.019 82.0529 252.127 82.5089 252.343C82.9649 252.559 83.3339 252.844 83.6159 253.198C83.9039 253.546 84.1229 253.927 84.2729 254.341C84.4229 254.755 84.5249 255.16 84.5789 255.556C84.6329 255.952 84.6599 256.3 84.6599 256.6V262H82.7519ZM75.9209 262V252.28H77.6039V255.088H77.8289V262H75.9209ZM87.1841 250.687V248.86H89.0651V250.687H87.1841ZM87.1841 262V252.28H89.0651V262H87.1841ZM97.3298 262C96.7178 262.12 96.1178 262.171 95.5298 262.153C94.9418 262.135 94.4168 262.021 93.9548 261.811C93.4928 261.601 93.1448 261.271 92.9108 260.821C92.7008 260.419 92.5868 260.011 92.5688 259.597C92.5568 259.177 92.5508 258.703 92.5508 258.175V249.58H94.4408V258.085C94.4408 258.475 94.4438 258.814 94.4498 259.102C94.4618 259.39 94.5248 259.633 94.6388 259.831C94.8548 260.203 95.1968 260.416 95.6648 260.47C96.1388 260.518 96.6938 260.497 97.3298 260.407V262ZM90.6878 253.792V252.28H97.3298V253.792H90.6878ZM103.161 262.27C102.189 262.27 101.346 262.051 100.632 261.613C99.9177 261.175 99.3657 260.572 98.9757 259.804C98.5917 259.03 98.3997 258.139 98.3997 257.131C98.3997 256.117 98.5977 255.226 98.9937 254.458C99.3897 253.684 99.9447 253.084 100.659 252.658C101.373 252.226 102.207 252.01 103.161 252.01C104.133 252.01 104.976 252.229 105.69 252.667C106.404 253.105 106.956 253.708 107.346 254.476C107.736 255.244 107.931 256.129 107.931 257.131C107.931 258.145 107.733 259.039 107.337 259.813C106.947 260.581 106.395 261.184 105.681 261.622C104.967 262.054 104.127 262.27 103.161 262.27ZM103.161 260.497C104.091 260.497 104.784 260.185 105.24 259.561C105.702 258.931 105.933 258.121 105.933 257.131C105.933 256.117 105.699 255.307 105.231 254.701C104.769 254.089 104.079 253.783 103.161 253.783C102.531 253.783 102.012 253.927 101.604 254.215C101.196 254.497 100.893 254.89 100.695 255.394C100.497 255.892 100.398 256.471 100.398 257.131C100.398 258.151 100.632 258.967 101.1 259.579C101.568 260.191 102.255 260.497 103.161 260.497ZM109.908 262V252.28H111.582V254.638L111.348 254.332C111.468 254.02 111.624 253.735 111.816 253.477C112.008 253.213 112.23 252.997 112.482 252.829C112.728 252.649 113.001 252.511 113.301 252.415C113.607 252.313 113.919 252.253 114.237 252.235C114.555 252.211 114.861 252.226 115.155 252.28V254.044C114.837 253.96 114.483 253.936 114.093 253.972C113.709 254.008 113.355 254.131 113.031 254.341C112.725 254.539 112.482 254.779 112.302 255.061C112.128 255.343 112.002 255.658 111.924 256.006C111.846 256.348 111.807 256.711 111.807 257.095V262H109.908Z" fill="#7D7E8E"></path>
  <path d="M97 219H91L86.5 232.5L77.5 205.5L73 219H67" stroke="#9D60FB" stroke-width="3" stroke-linecap="round" stroke-linejoin="round"></path>
  <path d="M255.574 122V109.04H260.812C260.938 109.04 261.094 109.046 261.28 109.058C261.466 109.064 261.643 109.082 261.811 109.112C262.531 109.226 263.131 109.472 263.611 109.85C264.097 110.228 264.46 110.705 264.7 111.281C264.94 111.857 265.06 112.493 265.06 113.189C265.06 113.891 264.94 114.53 264.7 115.106C264.46 115.682 264.097 116.159 263.611 116.537C263.131 116.915 262.531 117.161 261.811 117.275C261.643 117.299 261.463 117.317 261.271 117.329C261.085 117.341 260.932 117.347 260.812 117.347H257.455V122H255.574ZM257.455 115.565H260.74C260.86 115.565 260.992 115.559 261.136 115.547C261.286 115.535 261.427 115.514 261.559 115.484C261.943 115.394 262.252 115.229 262.486 114.989C262.72 114.743 262.888 114.461 262.99 114.143C263.092 113.825 263.143 113.507 263.143 113.189C263.143 112.871 263.092 112.556 262.99 112.244C262.888 111.926 262.72 111.647 262.486 111.407C262.252 111.161 261.943 110.993 261.559 110.903C261.427 110.867 261.286 110.843 261.136 110.831C260.992 110.819 260.86 110.813 260.74 110.813H257.455V115.565ZM267.04 122V108.77H268.921V122H267.04ZM274.368 122.27C273.648 122.27 273.045 122.138 272.559 121.874C272.073 121.604 271.704 121.25 271.452 120.812C271.206 120.368 271.083 119.882 271.083 119.354C271.083 118.862 271.17 118.43 271.344 118.058C271.518 117.686 271.776 117.371 272.118 117.113C272.46 116.849 272.88 116.636 273.378 116.474C273.81 116.348 274.299 116.237 274.845 116.141C275.391 116.045 275.964 115.955 276.564 115.871C277.17 115.787 277.77 115.703 278.364 115.619L277.68 115.997C277.692 115.235 277.53 114.671 277.194 114.305C276.864 113.933 276.294 113.747 275.484 113.747C274.974 113.747 274.506 113.867 274.08 114.107C273.654 114.341 273.357 114.731 273.189 115.277L271.434 114.737C271.674 113.903 272.13 113.24 272.802 112.748C273.48 112.256 274.38 112.01 275.502 112.01C276.372 112.01 277.128 112.16 277.77 112.46C278.418 112.754 278.892 113.222 279.192 113.864C279.348 114.182 279.444 114.518 279.48 114.872C279.516 115.226 279.534 115.607 279.534 116.015V122H277.869V119.777L278.193 120.065C277.791 120.809 277.278 121.364 276.654 121.73C276.036 122.09 275.274 122.27 274.368 122.27ZM274.701 120.731C275.235 120.731 275.694 120.638 276.078 120.452C276.462 120.26 276.771 120.017 277.005 119.723C277.239 119.429 277.392 119.123 277.464 118.805C277.566 118.517 277.623 118.193 277.635 117.833C277.653 117.473 277.662 117.185 277.662 116.969L278.274 117.194C277.68 117.284 277.14 117.365 276.654 117.437C276.168 117.509 275.727 117.581 275.331 117.653C274.941 117.719 274.593 117.8 274.287 117.896C274.029 117.986 273.798 118.094 273.594 118.22C273.396 118.346 273.237 118.499 273.117 118.679C273.003 118.859 272.946 119.078 272.946 119.336C272.946 119.588 273.009 119.822 273.135 120.038C273.261 120.248 273.453 120.416 273.711 120.542C273.969 120.668 274.299 120.731 274.701 120.731ZM288.693 122V117.221C288.693 116.843 288.66 116.456 288.594 116.06C288.534 115.658 288.414 115.286 288.234 114.944C288.06 114.602 287.811 114.326 287.487 114.116C287.169 113.906 286.752 113.801 286.236 113.801C285.9 113.801 285.582 113.858 285.282 113.972C284.982 114.08 284.718 114.257 284.49 114.503C284.268 114.749 284.091 115.073 283.959 115.475C283.833 115.877 283.77 116.366 283.77 116.942L282.6 116.501C282.6 115.619 282.765 114.842 283.095 114.17C283.425 113.492 283.899 112.964 284.517 112.586C285.135 112.208 285.882 112.019 286.758 112.019C287.43 112.019 287.994 112.127 288.45 112.343C288.906 112.559 289.275 112.844 289.557 113.198C289.845 113.546 290.064 113.927 290.214 114.341C290.364 114.755 290.466 115.16 290.52 115.556C290.574 115.952 290.601 116.3 290.601 116.6V122H288.693ZM281.862 122V112.28H283.545V115.088H283.77V122H281.862Z" fill="#7D7E8E"></path>
  <path d="M269.625 92.1278L271.834 93.3553C272.26 93.5916 272.473 93.7098 272.698 93.7561C272.897 93.7971 273.103 93.7971 273.302 93.7561C273.527 93.7098 273.74 93.5916 274.166 93.3553L276.375 92.1278M262.875 88.3778L260.734 87.1886C260.285 86.939 260.061 86.8142 259.897 86.6367C259.752 86.4797 259.643 86.2936 259.576 86.0908C259.5 85.8616 259.5 85.6046 259.5 85.0906V82.7528M259.5 75.2528V72.915C259.5 72.401 259.5 72.144 259.576 71.9148C259.643 71.7121 259.752 71.526 259.897 71.3689C260.061 71.1914 260.285 71.0666 260.734 70.817L262.875 69.6278M269.625 65.8778L271.834 64.6503C272.26 64.414 272.473 64.2958 272.698 64.2495C272.897 64.2085 273.103 64.2085 273.302 64.2495C273.527 64.2958 273.74 64.414 274.166 64.6503L276.375 65.8778M283.125 69.6278L285.266 70.817C285.715 71.0666 285.939 71.1914 286.103 71.3689C286.248 71.5259 286.357 71.7121 286.424 71.9148C286.5 72.144 286.5 72.401 286.5 72.915V75.2528M286.5 82.7528V85.0906C286.5 85.6046 286.5 85.8616 286.424 86.0908C286.357 86.2936 286.248 86.4797 286.103 86.6367C285.939 86.8142 285.715 86.939 285.266 87.1886L283.125 88.3778M269.625 77.1278L273 79.0028M273 79.0028L276.375 77.1278M273 79.0028V82.7528M259.5 71.5028L262.875 73.3778M283.125 73.3778L286.5 71.5028M273 90.2528V94.0028" stroke="#9D60FB" stroke-width="3" stroke-linecap="round" stroke-linejoin="round"></path>
  <path d="M443.123 251.27C442.193 251.27 441.353 251.111 440.603 250.793C439.859 250.469 439.244 250.01 438.758 249.416C438.278 248.816 437.966 248.105 437.822 247.283L439.784 246.986C439.982 247.778 440.396 248.396 441.026 248.84C441.656 249.278 442.391 249.497 443.231 249.497C443.753 249.497 444.233 249.416 444.671 249.254C445.109 249.086 445.46 248.849 445.724 248.543C445.994 248.231 446.129 247.859 446.129 247.427C446.129 247.193 446.087 246.986 446.003 246.806C445.925 246.626 445.814 246.47 445.67 246.338C445.532 246.2 445.361 246.083 445.157 245.987C444.959 245.885 444.74 245.798 444.5 245.726L441.179 244.745C440.855 244.649 440.525 244.526 440.189 244.376C439.853 244.22 439.544 244.019 439.262 243.773C438.986 243.521 438.761 243.212 438.587 242.846C438.413 242.474 438.326 242.024 438.326 241.496C438.326 240.698 438.53 240.023 438.938 239.471C439.352 238.913 439.91 238.493 440.612 238.211C441.314 237.923 442.1 237.779 442.97 237.779C443.846 237.791 444.629 237.947 445.319 238.247C446.015 238.547 446.591 238.979 447.047 239.543C447.509 240.101 447.827 240.779 448.001 241.577L445.985 241.919C445.895 241.433 445.703 241.016 445.409 240.668C445.115 240.314 444.755 240.044 444.329 239.858C443.903 239.666 443.441 239.567 442.943 239.561C442.463 239.549 442.022 239.621 441.62 239.777C441.224 239.933 440.906 240.152 440.666 240.434C440.432 240.716 440.315 241.04 440.315 241.406C440.315 241.766 440.42 242.057 440.63 242.279C440.84 242.501 441.098 242.678 441.404 242.81C441.716 242.936 442.025 243.041 442.331 243.125L444.725 243.8C445.025 243.884 445.364 243.998 445.742 244.142C446.126 244.28 446.495 244.475 446.849 244.727C447.209 244.979 447.506 245.315 447.74 245.735C447.974 246.149 448.091 246.671 448.091 247.301C448.091 247.955 447.959 248.531 447.695 249.029C447.431 249.521 447.068 249.935 446.606 250.271C446.15 250.601 445.622 250.85 445.022 251.018C444.422 251.186 443.789 251.27 443.123 251.27ZM454.32 251.27C453.354 251.27 452.505 251.06 451.773 250.64C451.047 250.214 450.48 249.623 450.072 248.867C449.67 248.105 449.469 247.223 449.469 246.221C449.469 245.159 449.667 244.238 450.063 243.458C450.465 242.678 451.023 242.075 451.737 241.649C452.451 241.223 453.282 241.01 454.23 241.01C455.22 241.01 456.063 241.241 456.759 241.703C457.455 242.159 457.974 242.81 458.316 243.656C458.664 244.502 458.802 245.507 458.73 246.671H456.849V245.987C456.837 244.859 456.621 244.025 456.201 243.485C455.787 242.945 455.154 242.675 454.302 242.675C453.36 242.675 452.652 242.972 452.178 243.566C451.704 244.16 451.467 245.018 451.467 246.14C451.467 247.208 451.704 248.036 452.178 248.624C452.652 249.206 453.336 249.497 454.23 249.497C454.818 249.497 455.325 249.365 455.751 249.101C456.183 248.831 456.519 248.447 456.759 247.949L458.604 248.534C458.226 249.404 457.653 250.079 456.885 250.559C456.117 251.033 455.262 251.27 454.32 251.27ZM450.855 246.671V245.204H457.794V246.671H450.855ZM460.929 251V237.77H462.81V251H460.929ZM469.824 251.27C468.858 251.27 468.009 251.06 467.277 250.64C466.551 250.214 465.984 249.623 465.576 248.867C465.174 248.105 464.973 247.223 464.973 246.221C464.973 245.159 465.171 244.238 465.567 243.458C465.969 242.678 466.527 242.075 467.241 241.649C467.955 241.223 468.786 241.01 469.734 241.01C470.724 241.01 471.567 241.241 472.263 241.703C472.959 242.159 473.478 242.81 473.82 243.656C474.168 244.502 474.306 245.507 474.234 246.671H472.353V245.987C472.341 244.859 472.125 244.025 471.705 243.485C471.291 242.945 470.658 242.675 469.806 242.675C468.864 242.675 468.156 242.972 467.682 243.566C467.208 244.16 466.971 245.018 466.971 246.14C466.971 247.208 467.208 248.036 467.682 248.624C468.156 249.206 468.84 249.497 469.734 249.497C470.322 249.497 470.829 249.365 471.255 249.101C471.687 248.831 472.023 248.447 472.263 247.949L474.108 248.534C473.73 249.404 473.157 250.079 472.389 250.559C471.621 251.033 470.766 251.27 469.824 251.27ZM466.359 246.671V245.204H473.298V246.671H466.359ZM480.411 251.27C479.415 251.27 478.569 251.048 477.873 250.604C477.177 250.16 476.643 249.551 476.271 248.777C475.905 248.003 475.719 247.124 475.713 246.14C475.719 245.138 475.911 244.253 476.289 243.485C476.667 242.711 477.207 242.105 477.909 241.667C478.611 241.229 479.454 241.01 480.438 241.01C481.5 241.01 482.406 241.274 483.156 241.802C483.912 242.33 484.41 243.053 484.65 243.971L482.778 244.511C482.592 243.965 482.286 243.542 481.86 243.242C481.44 242.936 480.957 242.783 480.411 242.783C479.793 242.783 479.286 242.93 478.89 243.224C478.494 243.512 478.2 243.908 478.008 244.412C477.816 244.916 477.717 245.492 477.711 246.14C477.717 247.142 477.945 247.952 478.395 248.57C478.851 249.188 479.523 249.497 480.411 249.497C481.017 249.497 481.506 249.359 481.878 249.083C482.256 248.801 482.544 248.399 482.742 247.877L484.65 248.327C484.332 249.275 483.807 250.004 483.075 250.514C482.343 251.018 481.455 251.27 480.411 251.27ZM492.046 251C491.434 251.12 490.834 251.171 490.246 251.153C489.658 251.135 489.133 251.021 488.671 250.811C488.209 250.601 487.861 250.271 487.627 249.821C487.417 249.419 487.303 249.011 487.285 248.597C487.273 248.177 487.267 247.703 487.267 247.175V238.58H489.157V247.085C489.157 247.475 489.16 247.814 489.166 248.102C489.178 248.39 489.241 248.633 489.355 248.831C489.571 249.203 489.913 249.416 490.381 249.47C490.855 249.518 491.41 249.497 492.046 249.407V251ZM485.404 242.792V241.28H492.046V242.792H485.404ZM449.328 273V260.04H451.209V271.227H457.077V273H449.328ZM458.785 273V260.04H460.666V271.227H466.534V273H458.785ZM468.062 273V260.04H469.763L474.461 269.787L479.132 260.04H480.851V272.991H479.069V264.126L474.884 273H474.029L469.835 264.126V273H468.062Z" fill="#7D7E8E"></path>
  <path d="M460.5 196V199M469.5 196V199M460.5 223V226M469.5 223V226M477 206.5H480M477 214H480M450 206.5H453M450 214H453M460.2 223H469.8C472.32 223 473.58 223 474.543 222.51C475.39 222.078 476.078 221.39 476.51 220.543C477 219.58 477 218.32 477 215.8V206.2C477 203.68 477 202.42 476.51 201.457C476.078 200.61 475.39 199.922 474.543 199.49C473.58 199 472.32 199 469.8 199H460.2C457.68 199 456.42 199 455.457 199.49C454.61 199.922 453.922 200.61 453.49 201.457C453 202.42 453 203.68 453 206.2V215.8C453 218.32 453 219.58 453.49 220.543C453.922 221.39 454.61 222.078 455.457 222.51C456.42 223 457.68 223 460.2 223ZM462.9 215.5H467.1C467.94 215.5 468.36 215.5 468.681 215.337C468.963 215.193 469.193 214.963 469.337 214.681C469.5 214.36 469.5 213.94 469.5 213.1V208.9C469.5 208.06 469.5 207.64 469.337 207.319C469.193 207.037 468.963 206.807 468.681 206.663C468.36 206.5 467.94 206.5 467.1 206.5H462.9C462.06 206.5 461.64 206.5 461.319 206.663C461.037 206.807 460.807 207.037 460.663 207.319C460.5 207.64 460.5 208.06 460.5 208.9V213.1C460.5 213.94 460.5 214.36 460.663 214.681C460.807 214.963 461.037 215.193 461.319 215.337C461.64 215.5 462.06 215.5 462.9 215.5Z" stroke="#9D60FB" stroke-width="3" stroke-linecap="round" stroke-linejoin="round"></path>
  <path d="M231.621 292.47L231.716 292.594C232.966 273.99 248.339 259.284 267.14 259.284C267.149 259.284 267.159 259.284 267.159 259.284C267.168 259.284 267.178 259.284 267.178 259.284C276.754 259.284 285.449 263.106 291.832 269.311V231.97C284.208 228.939 275.892 227.262 267.187 227.262C229.992 227.262 199.844 257.598 199.844 295.024C199.844 319.308 212.546 340.599 231.621 352.56V292.47Z" fill="#00E6FF"></path>
  <path d="M302.713 237.457V297.585L302.618 297.462C301.378 316.065 285.996 330.77 267.195 330.77C267.185 330.77 267.176 330.77 267.176 330.77C267.167 330.77 267.157 330.77 267.157 330.77C257.581 330.77 248.886 326.949 242.502 320.744V358.076C250.155 361.116 258.481 362.803 267.204 362.803C304.399 362.803 334.547 332.468 334.547 295.041C334.547 270.719 321.818 249.418 302.713 237.457Z" fill="#007AFF"></path>
  <path d="M287.758 281.328C287.54 282.481 287.142 283.615 286.526 284.682C283.581 289.819 277.064 291.573 271.959 288.609C266.854 285.645 265.111 279.088 268.057 273.951C268.862 272.55 269.942 271.406 271.173 270.539C269.885 270.329 268.559 270.215 267.204 270.215C253.584 270.215 242.55 281.318 242.55 295.023C242.55 308.728 253.594 319.831 267.204 319.831C280.815 319.831 291.859 308.728 291.859 295.023C291.859 289.962 290.353 285.254 287.758 281.328Z" fill="#9D60FB"></path>
  <path d="M420.544 158.5L416.148 141.746L403.837 153.93L420.544 158.5ZM447.685 394.5L462.339 385.268L447.016 377.192L447.685 394.5ZM232.902 492L246.265 503.02L249.127 485.938L232.902 492ZM73.8657 322.5L67.8622 338.747L84.9341 335.823L73.8657 322.5ZM186 113.753L168.695 113.031L176.723 128.379L186 113.753ZM348.76 110.387C371.613 119.776 392.34 133.285 410.015 149.992L412.076 147.812C394.137 130.856 373.099 117.143 349.9 107.613L348.76 110.387ZM471.953 309.89C470.06 335.549 463.314 359.856 452.63 381.9L455.33 383.209C466.176 360.831 473.023 336.155 474.945 310.11L471.953 309.89ZM320.147 488.897C305.032 492.559 289.244 494.5 273 494.5V497.5C289.484 497.5 305.509 495.53 320.853 491.812L320.147 488.897ZM273 494.5C263.985 494.5 255.111 493.902 246.414 492.744L246.018 495.718C254.846 496.893 263.852 497.5 273 497.5V494.5ZM103.774 400.704C91.4464 381.011 82.4619 359.013 77.614 335.503L74.6758 336.109C79.5973 359.975 88.718 382.306 101.231 402.296L103.774 400.704ZM120.645 166.198C135.848 148.234 154.17 132.994 174.775 121.316L173.296 118.706C152.381 130.56 133.785 146.028 118.355 164.26L120.645 166.198Z" fill="#D9D9D9"></path>
  <defs>
    <linearGradient id="paint0_linear_6542_6133" x1="273" y1="0" x2="273" y2="570" gradientUnits="userSpaceOnUse">
      <stop stop-color="#F6F6F7"></stop>
      <stop offset="1" stop-color="#F6F6F7" stop-opacity="0"></stop>
    </linearGradient>
    <linearGradient id="paint1_linear_6542_6133" x1="274.5" y1="172" x2="274.5" y2="228" gradientUnits="userSpaceOnUse">
      <stop stop-color="#9D60FB" stop-opacity="0"></stop>
      <stop offset="0.49" stop-color="#9D60FB"></stop>
      <stop offset="1" stop-color="#9D60FB" stop-opacity="0"></stop>
    </linearGradient>
    <linearGradient id="paint2_linear_6542_6133" x1="394.184" y1="255.465" x2="336.184" y2="278.465" gradientUnits="userSpaceOnUse">
      <stop stop-color="#9D60FB" stop-opacity="0"></stop>
      <stop offset="0.49" stop-color="#9D60FB"></stop>
      <stop offset="1" stop-color="#9D60FB" stop-opacity="0"></stop>
    </linearGradient>
    <linearGradient id="paint3_linear_6542_6133" x1="150.816" y1="255.465" x2="208.816" y2="278.465" gradientUnits="userSpaceOnUse">
      <stop stop-color="#9D60FB" stop-opacity="0"></stop>
      <stop offset="0.49" stop-color="#9D60FB"></stop>
      <stop offset="1" stop-color="#9D60FB" stop-opacity="0"></stop>
    </linearGradient>
    <linearGradient id="paint4_linear_6542_6133" x1="194.608" y1="395.69" x2="232.608" y2="347.69" gradientUnits="userSpaceOnUse">
      <stop stop-color="#9D60FB" stop-opacity="0"></stop>
      <stop offset="0.49" stop-color="#9D60FB"></stop>
      <stop offset="1" stop-color="#9D60FB" stop-opacity="0"></stop>
    </linearGradient>
    <linearGradient id="paint5_linear_6542_6133" x1="351.392" y1="395.69" x2="313.392" y2="347.69" gradientUnits="userSpaceOnUse">
      <stop stop-color="#9D60FB" stop-opacity="0"></stop>
      <stop offset="0.49" stop-color="#9D60FB"></stop>
      <stop offset="1" stop-color="#9D60FB" stop-opacity="0"></stop>
    </linearGradient>
  </defs>
</svg>
