<?xml version="1.0" encoding="UTF-8"?>
<svg xmlns="http://www.w3.org/2000/svg" width="558" height="570" viewBox="0 0 558 570" fill="none">
  <rect x="29" width="500" height="570" rx="30" fill="url(#paint0_linear_6542_6248)"></rect>
  <rect x="0.5" y="45.5" width="214.254" height="354" rx="9.5" fill="white" stroke="#E8E8E8"></rect>
  <path d="M66.616 318.24C65.464 318.24 64.4774 317.989 63.656 317.488C62.8347 316.981 62.2027 316.277 61.76 315.376C61.3227 314.475 61.104 313.429 61.104 312.24C61.104 311.051 61.3227 310.005 61.76 309.104C62.2027 308.203 62.8347 307.501 63.656 307C64.4774 306.493 65.464 306.24 66.616 306.24C67.944 306.24 69.0507 306.573 69.936 307.24C70.8214 307.901 71.4427 308.795 71.8 309.92L69.856 310.456C69.632 309.704 69.2507 309.117 68.712 308.696C68.1734 308.269 67.4747 308.056 66.616 308.056C65.8427 308.056 65.1974 308.229 64.68 308.576C64.168 308.923 63.7814 309.411 63.52 310.04C63.264 310.664 63.1334 311.397 63.128 312.24C63.128 313.083 63.256 313.819 63.512 314.448C63.7734 315.072 64.1627 315.557 64.68 315.904C65.1974 316.251 65.8427 316.424 66.616 316.424C67.4747 316.424 68.1734 316.211 68.712 315.784C69.2507 315.357 69.632 314.771 69.856 314.024L71.8 314.56C71.4427 315.685 70.8214 316.581 69.936 317.248C69.0507 317.909 67.944 318.24 66.616 318.24ZM77.3725 318.24C76.5085 318.24 75.7539 318.045 75.1085 317.656C74.4632 317.267 73.9619 316.731 73.6045 316.048C73.2525 315.36 73.0765 314.571 73.0765 313.68C73.0765 312.773 73.2579 311.979 73.6205 311.296C73.9832 310.613 74.4872 310.08 75.1325 309.696C75.7779 309.312 76.5245 309.12 77.3725 309.12C78.2419 309.12 78.9992 309.315 79.6445 309.704C80.2899 310.093 80.7912 310.632 81.1485 311.32C81.5059 312.003 81.6845 312.789 81.6845 313.68C81.6845 314.576 81.5032 315.368 81.1405 316.056C80.7832 316.739 80.2819 317.275 79.6365 317.664C78.9912 318.048 78.2365 318.24 77.3725 318.24ZM77.3725 316.432C78.1405 316.432 78.7112 316.176 79.0845 315.664C79.4579 315.152 79.6445 314.491 79.6445 313.68C79.6445 312.843 79.4552 312.176 79.0765 311.68C78.6979 311.179 78.1299 310.928 77.3725 310.928C76.8552 310.928 76.4285 311.045 76.0925 311.28C75.7619 311.509 75.5165 311.832 75.3565 312.248C75.1965 312.659 75.1165 313.136 75.1165 313.68C75.1165 314.517 75.3059 315.187 75.6845 315.688C76.0685 316.184 76.6312 316.432 77.3725 316.432ZM93.8231 318V312.752C93.8231 312.16 93.6765 311.699 93.3831 311.368C93.0898 311.032 92.6925 310.864 92.1911 310.864C91.8818 310.864 91.6045 310.936 91.3591 311.08C91.1138 311.219 90.9191 311.427 90.7751 311.704C90.6311 311.976 90.5591 312.301 90.5591 312.68L89.7031 312.176C89.6978 311.579 89.8311 311.053 90.1031 310.6C90.3805 310.141 90.7538 309.784 91.2231 309.528C91.6925 309.272 92.2151 309.144 92.7911 309.144C93.7458 309.144 94.4765 309.432 94.9831 310.008C95.4951 310.579 95.7511 311.331 95.7511 312.264V318H93.8231ZM83.4311 318V309.36H85.1351V312.04H85.3751V318H83.4311ZM88.6391 318V312.776C88.6391 312.173 88.4925 311.704 88.1991 311.368C87.9058 311.032 87.5058 310.864 86.9991 310.864C86.5085 310.864 86.1138 311.032 85.8151 311.368C85.5218 311.704 85.3751 312.141 85.3751 312.68L84.5111 312.104C84.5111 311.544 84.6498 311.04 84.9271 310.592C85.2045 310.144 85.5778 309.792 86.0471 309.536C86.5218 309.275 87.0525 309.144 87.6391 309.144C88.2845 309.144 88.8231 309.283 89.2551 309.56C89.6925 309.832 90.0178 310.205 90.2311 310.68C90.4498 311.149 90.5591 311.68 90.5591 312.272V318H88.6391ZM101.99 318.24C101.147 318.24 100.44 318.04 99.8698 317.64C99.2991 317.24 98.8698 316.696 98.5818 316.008C98.2938 315.315 98.1498 314.539 98.1498 313.68C98.1498 312.811 98.2938 312.032 98.5818 311.344C98.8698 310.656 99.2911 310.115 99.8458 309.72C100.406 309.32 101.096 309.12 101.918 309.12C102.734 309.12 103.44 309.32 104.038 309.72C104.64 310.115 105.107 310.656 105.438 311.344C105.768 312.027 105.934 312.805 105.934 313.68C105.934 314.544 105.771 315.32 105.446 316.008C105.12 316.696 104.662 317.24 104.07 317.64C103.478 318.04 102.784 318.24 101.99 318.24ZM97.8218 321.84V309.36H99.5258V315.424H99.7658V321.84H97.8218ZM101.694 316.512C102.195 316.512 102.608 316.387 102.934 316.136C103.259 315.885 103.499 315.547 103.654 315.12C103.814 314.688 103.894 314.208 103.894 313.68C103.894 313.157 103.814 312.683 103.654 312.256C103.494 311.824 103.246 311.483 102.91 311.232C102.574 310.976 102.147 310.848 101.63 310.848C101.139 310.848 100.739 310.968 100.43 311.208C100.12 311.443 99.8911 311.773 99.7418 312.2C99.5978 312.621 99.5258 313.115 99.5258 313.68C99.5258 314.24 99.5978 314.733 99.7418 315.16C99.8911 315.587 100.123 315.92 100.438 316.16C100.758 316.395 101.176 316.512 101.694 316.512ZM107.857 318V306.24H109.785V318H107.857ZM112.342 308.048V306.28H114.27V308.048H112.342ZM112.342 318V309.36H114.27V318H112.342ZM119.082 318.24C118.458 318.24 117.93 318.123 117.498 317.888C117.066 317.648 116.738 317.331 116.514 316.936C116.295 316.541 116.186 316.107 116.186 315.632C116.186 315.216 116.255 314.843 116.394 314.512C116.533 314.176 116.746 313.888 117.034 313.648C117.322 313.403 117.695 313.203 118.154 313.048C118.501 312.936 118.906 312.835 119.37 312.744C119.839 312.653 120.346 312.571 120.89 312.496C121.439 312.416 122.013 312.331 122.61 312.24L121.922 312.632C121.927 312.035 121.794 311.595 121.522 311.312C121.25 311.029 120.791 310.888 120.146 310.888C119.757 310.888 119.381 310.979 119.018 311.16C118.655 311.341 118.402 311.653 118.258 312.096L116.498 311.544C116.711 310.813 117.117 310.227 117.714 309.784C118.317 309.341 119.127 309.12 120.146 309.12C120.914 309.12 121.589 309.245 122.17 309.496C122.757 309.747 123.191 310.157 123.474 310.728C123.629 311.032 123.722 311.344 123.754 311.664C123.786 311.979 123.802 312.323 123.802 312.696V318H122.114V316.128L122.394 316.432C122.005 317.056 121.549 317.515 121.026 317.808C120.509 318.096 119.861 318.24 119.082 318.24ZM119.466 316.704C119.903 316.704 120.277 316.627 120.586 316.472C120.895 316.317 121.141 316.128 121.322 315.904C121.509 315.68 121.634 315.469 121.698 315.272C121.799 315.027 121.855 314.747 121.866 314.432C121.882 314.112 121.89 313.853 121.89 313.656L122.482 313.832C121.901 313.923 121.402 314.003 120.986 314.072C120.57 314.141 120.213 314.208 119.914 314.272C119.615 314.331 119.351 314.397 119.122 314.472C118.898 314.552 118.709 314.645 118.554 314.752C118.399 314.859 118.279 314.981 118.194 315.12C118.114 315.259 118.074 315.421 118.074 315.608C118.074 315.821 118.127 316.011 118.234 316.176C118.341 316.336 118.495 316.464 118.698 316.56C118.906 316.656 119.162 316.704 119.466 316.704ZM131.861 318V313.84C131.861 313.568 131.842 313.267 131.805 312.936C131.767 312.605 131.679 312.288 131.541 311.984C131.407 311.675 131.205 311.421 130.933 311.224C130.666 311.027 130.303 310.928 129.845 310.928C129.599 310.928 129.357 310.968 129.117 311.048C128.877 311.128 128.658 311.267 128.461 311.464C128.269 311.656 128.114 311.923 127.997 312.264C127.879 312.6 127.821 313.032 127.821 313.56L126.677 313.072C126.677 312.336 126.818 311.669 127.101 311.072C127.389 310.475 127.81 310 128.365 309.648C128.919 309.291 129.602 309.112 130.413 309.112C131.053 309.112 131.581 309.219 131.997 309.432C132.413 309.645 132.743 309.917 132.989 310.248C133.234 310.579 133.415 310.931 133.533 311.304C133.65 311.677 133.725 312.032 133.757 312.368C133.794 312.699 133.813 312.968 133.813 313.176V318H131.861ZM125.869 318V309.36H127.589V312.04H127.821V318H125.869ZM139.512 318.24C138.621 318.24 137.861 318.043 137.232 317.648C136.602 317.248 136.12 316.704 135.784 316.016C135.453 315.328 135.285 314.549 135.28 313.68C135.285 312.795 135.458 312.011 135.8 311.328C136.146 310.64 136.637 310.101 137.272 309.712C137.906 309.317 138.661 309.12 139.536 309.12C140.517 309.12 141.346 309.368 142.024 309.864C142.706 310.355 143.152 311.027 143.36 311.88L141.44 312.4C141.29 311.936 141.042 311.576 140.696 311.32C140.349 311.059 139.954 310.928 139.512 310.928C139.01 310.928 138.597 311.048 138.272 311.288C137.946 311.523 137.706 311.848 137.552 312.264C137.397 312.68 137.32 313.152 137.32 313.68C137.32 314.501 137.504 315.165 137.872 315.672C138.24 316.179 138.786 316.432 139.512 316.432C140.024 316.432 140.426 316.315 140.72 316.08C141.018 315.845 141.242 315.507 141.392 315.064L143.36 315.504C143.093 316.384 142.626 317.061 141.96 317.536C141.293 318.005 140.477 318.24 139.512 318.24ZM148.656 318.24C147.782 318.24 147.014 318.051 146.352 317.672C145.691 317.293 145.174 316.768 144.8 316.096C144.432 315.424 144.248 314.651 144.248 313.776C144.248 312.832 144.43 312.013 144.792 311.32C145.155 310.621 145.659 310.08 146.304 309.696C146.95 309.312 147.696 309.12 148.544 309.12C149.44 309.12 150.2 309.331 150.824 309.752C151.454 310.168 151.92 310.757 152.224 311.52C152.528 312.283 152.643 313.181 152.568 314.216H150.656V313.512C150.651 312.573 150.486 311.888 150.16 311.456C149.835 311.024 149.323 310.808 148.624 310.808C147.835 310.808 147.248 311.053 146.864 311.544C146.48 312.029 146.288 312.741 146.288 313.68C146.288 314.555 146.48 315.232 146.864 315.712C147.248 316.192 147.808 316.432 148.544 316.432C149.019 316.432 149.427 316.328 149.768 316.12C150.115 315.907 150.382 315.6 150.568 315.2L152.472 315.776C152.142 316.555 151.63 317.16 150.936 317.592C150.248 318.024 149.488 318.24 148.656 318.24ZM145.68 314.216V312.76H151.624V314.216H145.68Z" fill="#9D60FB"></path>
  <path d="M107 104.5C115.788 104.5 124.446 106.625 132.235 110.695C140.025 114.764 146.715 120.656 151.734 127.87C156.754 135.083 159.955 143.404 161.064 152.122C162.173 160.84 161.158 169.697 158.104 177.937" stroke="#D5D5DE" stroke-width="21"></path>
  <path d="M154.673 185.41C150.154 193.567 143.618 200.429 135.69 205.337C127.761 210.246 118.706 213.039 109.389 213.448C100.073 213.856 90.8079 211.868 82.4798 207.672C74.1518 203.477 67.0395 197.215 61.8234 189.485C56.6074 181.755 53.4619 172.816 52.688 163.523C51.9141 154.23 53.5376 144.894 57.4033 136.408C61.2689 127.921 67.2473 120.569 74.7667 115.054C82.2861 109.539 91.0948 106.045 100.35 104.907" stroke="#9D60FB" stroke-width="21"></path>
  <rect x="54.5" y="261.5" width="21" height="21" rx="2.9375" stroke="#D5D5DE"></rect>
  <path d="M69.0187 268.122C69.0187 268.122 69.0187 268.122 69.0187 268.122C70.127 268.094 70.6813 269.424 69.8915 270.2L64.2388 275.853C63.8924 276.199 63.3105 276.199 62.9641 275.853L60.0962 272.971C58.9047 271.835 60.6643 270.075 61.8004 271.267L63.3936 272.86C63.5045 272.971 63.6984 272.971 63.8231 272.86L68.1874 268.496C68.409 268.26 68.7 268.135 69.0187 268.122C69.0187 268.122 69.0187 268.122 69.0187 268.122V268.122Z" fill="#9D60FB"></path>
  <rect x="138.5" y="261.5" width="21" height="21" rx="2.9375" stroke="#D5D5DE"></rect>
  <path d="M153.019 268.122C153.019 268.122 153.019 268.122 153.019 268.122C154.127 268.094 154.681 269.424 153.891 270.2L148.239 275.853C147.892 276.199 147.31 276.199 146.964 275.853L144.096 272.971C142.905 271.835 144.664 270.075 145.8 271.267L147.394 272.86C147.504 272.971 147.698 272.971 147.823 272.86L152.187 268.496C152.409 268.26 152.7 268.135 153.019 268.122C153.019 268.122 153.019 268.122 153.019 268.122V268.122Z" fill="#9D60FB"></path>
  <rect x="91.5" y="143.5" width="31" height="31" rx="4.5" stroke="#D5D5DE"></rect>
  <path d="M112.845 153.356C112.845 153.356 112.845 153.356 112.845 153.356C114.458 153.316 115.264 155.25 114.115 156.379L105.893 164.601C105.389 165.105 104.543 165.105 104.039 164.601L99.8672 160.409C98.1341 158.757 100.693 156.197 102.346 157.931L104.663 160.248C104.825 160.409 105.107 160.409 105.288 160.248L111.636 153.9C111.959 153.558 112.382 153.376 112.845 153.356C112.845 153.356 112.845 153.356 112.845 153.356V153.356Z" fill="#9D60FB"></path>
  <rect x="91.5" y="255.5" width="31" height="31" rx="4.5" stroke="#D5D5DE"></rect>
  <path d="M112.845 265.356C112.845 265.356 112.845 265.356 112.845 265.356C114.458 265.316 115.264 267.25 114.115 268.379L105.893 276.601C105.389 277.105 104.543 277.105 104.039 276.601L99.8672 272.409C98.1341 270.757 100.693 268.197 102.346 269.931L104.663 272.248C104.825 272.409 105.107 272.409 105.288 272.248L111.636 265.9C111.959 265.558 112.382 265.376 112.845 265.356C112.845 265.356 112.845 265.356 112.845 265.356V265.356Z" fill="#9D60FB"></path>
  <rect x="468.579" y="352.5" width="182.698" height="328.079" rx="9.5" transform="rotate(90 468.579 352.5)" fill="white" stroke="#E8E8E8"></rect>
  <path d="M278.802 407.699V397.619H280.265V406.32H284.829V407.699H278.802ZM288.152 407.909C287.592 407.909 287.123 407.807 286.745 407.601C286.367 407.391 286.08 407.116 285.884 406.775C285.693 406.43 285.597 406.052 285.597 405.641C285.597 405.259 285.665 404.923 285.8 404.633C285.935 404.344 286.136 404.099 286.402 403.898C286.668 403.693 286.995 403.527 287.382 403.401C287.718 403.303 288.098 403.217 288.523 403.142C288.948 403.068 289.393 402.998 289.86 402.932C290.331 402.867 290.798 402.802 291.26 402.736L290.728 403.03C290.737 402.438 290.611 401.999 290.35 401.714C290.093 401.425 289.65 401.28 289.02 401.28C288.623 401.28 288.259 401.374 287.928 401.56C287.597 401.742 287.366 402.046 287.235 402.47L285.87 402.05C286.057 401.402 286.411 400.886 286.934 400.503C287.461 400.121 288.161 399.929 289.034 399.929C289.711 399.929 290.299 400.046 290.798 400.279C291.302 400.508 291.671 400.872 291.904 401.371C292.025 401.619 292.1 401.88 292.128 402.155C292.156 402.431 292.17 402.727 292.17 403.044V407.699H290.875V405.97L291.127 406.194C290.814 406.773 290.415 407.205 289.93 407.489C289.449 407.769 288.857 407.909 288.152 407.909ZM288.411 406.712C288.826 406.712 289.183 406.64 289.482 406.495C289.781 406.346 290.021 406.157 290.203 405.928C290.385 405.7 290.504 405.462 290.56 405.214C290.639 404.99 290.684 404.738 290.693 404.458C290.707 404.178 290.714 403.954 290.714 403.786L291.19 403.961C290.728 404.031 290.308 404.094 289.93 404.15C289.552 404.206 289.209 404.262 288.901 404.318C288.598 404.37 288.327 404.433 288.089 404.507C287.888 404.577 287.709 404.661 287.55 404.759C287.396 404.857 287.272 404.976 287.179 405.116C287.09 405.256 287.046 405.427 287.046 405.627C287.046 405.823 287.095 406.005 287.193 406.173C287.291 406.337 287.44 406.467 287.641 406.565C287.842 406.663 288.098 406.712 288.411 406.712ZM298.314 407.699C297.838 407.793 297.371 407.832 296.914 407.818C296.456 407.804 296.048 407.716 295.689 407.552C295.329 407.389 295.059 407.132 294.877 406.782C294.713 406.47 294.625 406.152 294.611 405.83C294.601 405.504 294.597 405.135 294.597 404.724V398.039H296.067V404.654C296.067 404.958 296.069 405.221 296.074 405.445C296.083 405.669 296.132 405.858 296.221 406.012C296.389 406.302 296.655 406.467 297.019 406.509C297.387 406.547 297.819 406.53 298.314 406.46V407.699ZM293.148 401.315V400.139H298.314V401.315H293.148ZM302.919 407.909C302.168 407.909 301.507 407.746 300.938 407.419C300.373 407.088 299.932 406.628 299.615 406.04C299.302 405.448 299.146 404.762 299.146 403.982C299.146 403.156 299.3 402.44 299.608 401.833C299.921 401.227 300.355 400.758 300.91 400.426C301.465 400.095 302.112 399.929 302.849 399.929C303.619 399.929 304.275 400.109 304.816 400.468C305.357 400.823 305.761 401.329 306.027 401.987C306.298 402.645 306.405 403.427 306.349 404.332H304.886V403.8C304.877 402.923 304.709 402.274 304.382 401.854C304.06 401.434 303.568 401.224 302.905 401.224C302.172 401.224 301.622 401.455 301.253 401.917C300.884 402.379 300.7 403.047 300.7 403.919C300.7 404.75 300.884 405.394 301.253 405.851C301.622 406.304 302.154 406.53 302.849 406.53C303.306 406.53 303.701 406.428 304.032 406.222C304.368 406.012 304.629 405.714 304.816 405.326L306.251 405.781C305.957 406.458 305.511 406.983 304.914 407.356C304.317 407.725 303.652 407.909 302.919 407.909ZM300.224 404.332V403.191H305.621V404.332H300.224ZM313.02 407.699V403.982C313.02 403.688 312.995 403.387 312.943 403.079C312.897 402.767 312.803 402.477 312.663 402.211C312.528 401.945 312.334 401.731 312.082 401.567C311.835 401.404 311.511 401.322 311.109 401.322C310.848 401.322 310.601 401.367 310.367 401.455C310.134 401.539 309.929 401.677 309.751 401.868C309.579 402.06 309.441 402.312 309.338 402.624C309.24 402.937 309.191 403.317 309.191 403.765L308.281 403.422C308.281 402.736 308.41 402.132 308.666 401.609C308.923 401.082 309.292 400.671 309.772 400.377C310.253 400.083 310.834 399.936 311.515 399.936C312.038 399.936 312.477 400.02 312.831 400.188C313.186 400.356 313.473 400.578 313.692 400.853C313.916 401.124 314.087 401.42 314.203 401.742C314.32 402.064 314.399 402.379 314.441 402.687C314.483 402.995 314.504 403.266 314.504 403.499V407.699H313.02ZM307.707 407.699V400.139H309.016V402.323H309.191V407.699H307.707ZM319.466 407.909C318.691 407.909 318.033 407.737 317.492 407.391C316.951 407.046 316.535 406.572 316.246 405.97C315.961 405.368 315.817 404.685 315.812 403.919C315.817 403.14 315.966 402.452 316.26 401.854C316.554 401.252 316.974 400.781 317.52 400.44C318.066 400.1 318.722 399.929 319.487 399.929C320.313 399.929 321.018 400.135 321.601 400.545C322.189 400.956 322.576 401.518 322.763 402.232L321.307 402.652C321.162 402.228 320.924 401.899 320.593 401.665C320.266 401.427 319.891 401.308 319.466 401.308C318.985 401.308 318.591 401.423 318.283 401.651C317.975 401.875 317.746 402.183 317.597 402.575C317.448 402.967 317.371 403.415 317.366 403.919C317.371 404.699 317.548 405.329 317.898 405.809C318.253 406.29 318.775 406.53 319.466 406.53C319.937 406.53 320.318 406.423 320.607 406.208C320.901 405.989 321.125 405.676 321.279 405.27L322.763 405.62C322.516 406.358 322.107 406.925 321.538 407.321C320.969 407.713 320.278 407.909 319.466 407.909ZM324.938 411.059L326.401 407.076L326.422 408.252L323.125 400.139H324.651L327.115 406.404H326.667L329.019 400.139H330.503L326.331 411.059H324.938Z" fill="#7D7E8E"></path>
  <path d="M173.65 414.199C173.65 411.162 176.113 408.699 179.15 408.699V408.699C182.188 408.699 184.65 411.162 184.65 414.199V535.699H173.65V414.199Z" fill="#EEEEEE"></path>
  <path d="M194.65 458.199C194.65 455.162 197.113 452.699 200.15 452.699V452.699C203.188 452.699 205.65 455.162 205.65 458.199V535.699H194.65V458.199Z" fill="#EEEEEE"></path>
  <path d="M215.65 391.199C215.65 388.162 218.113 385.699 221.15 385.699V385.699C224.188 385.699 226.65 388.162 226.65 391.199V535.699H215.65V391.199Z" fill="#9D60FB"></path>
  <path d="M236.65 458.199C236.65 455.162 239.113 452.699 242.15 452.699V452.699C245.188 452.699 247.65 455.162 247.65 458.199V535.699H236.65V458.199Z" fill="#EEEEEE"></path>
  <path d="M257.65 487.199C257.65 484.162 260.113 481.699 263.15 481.699V481.699C266.188 481.699 268.65 484.162 268.65 487.199V535.699H257.65V487.199Z" fill="#EEEEEE"></path>
  <path d="M278.65 458.199C278.65 455.162 281.113 452.699 284.15 452.699V452.699C287.188 452.699 289.65 455.162 289.65 458.199V535.699H278.65V458.199Z" fill="#EEEEEE"></path>
  <path d="M299.65 443.199C299.65 440.162 302.113 437.699 305.15 437.699V437.699C308.188 437.699 310.65 440.162 310.65 443.199V535.699H299.65V443.199Z" fill="#EEEEEE"></path>
  <path d="M320.65 487.199C320.65 484.162 323.113 481.699 326.15 481.699V481.699C329.188 481.699 331.65 484.162 331.65 487.199V535.699H320.65V487.199Z" fill="#EEEEEE"></path>
  <path d="M341.65 458.199C341.65 455.162 344.113 452.699 347.15 452.699V452.699C350.188 452.699 352.65 455.162 352.65 458.199V535.699H341.65V458.199Z" fill="#EEEEEE"></path>
  <path d="M362.65 405.199C362.65 402.162 365.113 399.699 368.15 399.699V399.699C371.188 399.699 373.65 402.162 373.65 405.199V535.699H362.65V405.199Z" fill="#9D60FB"></path>
  <path d="M383.65 433.199C383.65 430.162 386.113 427.699 389.15 427.699V427.699C392.188 427.699 394.65 430.162 394.65 433.199V535.699H383.65V433.199Z" fill="#EEEEEE"></path>
  <path d="M404.65 385.199C404.65 382.162 407.113 379.699 410.15 379.699V379.699C413.188 379.699 415.65 382.162 415.65 385.199V535.699H404.65V385.199Z" fill="#9D60FB"></path>
  <path d="M425.65 414.199C425.65 411.162 428.113 408.699 431.15 408.699V408.699C434.188 408.699 436.65 411.162 436.65 414.199V535.699H425.65V414.199Z" fill="#EEEEEE"></path>
  <rect x="556.929" y="77.5" width="156.778" height="156.778" rx="9.5" transform="rotate(90 556.929 77.5)" fill="white" stroke="#E8E8E8"></rect>
  <path d="M464.037 201V190.92H467.194C467.287 190.92 467.46 190.922 467.712 190.927C467.968 190.932 468.213 190.95 468.447 190.983C469.235 191.081 469.898 191.363 470.435 191.83C470.976 192.297 471.384 192.889 471.66 193.608C471.935 194.322 472.073 195.106 472.073 195.96C472.073 196.819 471.935 197.607 471.66 198.326C471.384 199.04 470.976 199.63 470.435 200.097C469.898 200.559 469.235 200.839 468.447 200.937C468.213 200.97 467.968 200.988 467.712 200.993C467.46 200.998 467.287 201 467.194 201H464.037ZM465.535 199.607H467.194C467.352 199.607 467.541 199.602 467.761 199.593C467.98 199.584 468.174 199.565 468.342 199.537C468.855 199.439 469.27 199.217 469.588 198.872C469.91 198.522 470.145 198.093 470.295 197.584C470.444 197.075 470.519 196.534 470.519 195.96C470.519 195.367 470.442 194.819 470.288 194.315C470.134 193.806 469.896 193.382 469.574 193.041C469.256 192.696 468.846 192.476 468.342 192.383C468.174 192.35 467.978 192.332 467.754 192.327C467.534 192.318 467.348 192.313 467.194 192.313H465.535V199.607ZM473.703 201V193.44H475.005V195.274L474.823 195.036C474.916 194.793 475.037 194.572 475.187 194.371C475.336 194.166 475.509 193.998 475.705 193.867C475.896 193.727 476.108 193.62 476.342 193.545C476.58 193.466 476.822 193.419 477.07 193.405C477.317 193.386 477.555 193.398 477.784 193.44V194.812C477.536 194.747 477.261 194.728 476.958 194.756C476.659 194.784 476.384 194.88 476.132 195.043C475.894 195.197 475.705 195.384 475.565 195.603C475.429 195.822 475.331 196.067 475.271 196.338C475.21 196.604 475.18 196.886 475.18 197.185V201H473.703ZM479.257 192.201V190.78H480.72V192.201H479.257ZM479.257 201V193.44H480.72V201H479.257ZM483.515 201V193.174C483.515 192.983 483.522 192.78 483.536 192.565C483.55 192.346 483.589 192.131 483.655 191.921C483.725 191.706 483.839 191.51 483.998 191.333C484.189 191.123 484.399 190.974 484.628 190.885C484.856 190.796 485.083 190.745 485.307 190.731C485.535 190.717 485.745 190.71 485.937 190.71H486.889V191.914H486.007C485.661 191.914 485.402 192 485.23 192.173C485.062 192.341 484.978 192.581 484.978 192.894V201H483.515ZM482.262 194.616V193.44H486.889V194.616H482.262ZM492.329 201C491.853 201.093 491.387 201.133 490.929 201.119C490.472 201.105 490.064 201.016 489.704 200.853C489.345 200.69 489.074 200.433 488.892 200.083C488.729 199.77 488.64 199.453 488.626 199.131C488.617 198.804 488.612 198.436 488.612 198.025V191.34H490.082V197.955C490.082 198.258 490.085 198.522 490.089 198.746C490.099 198.97 490.148 199.159 490.236 199.313C490.404 199.602 490.67 199.768 491.034 199.81C491.403 199.847 491.835 199.831 492.329 199.761V201ZM487.163 194.616V193.44H492.329V194.616H487.163Z" fill="#7D7E8E"></path>
  <path d="M432.513 163.301C432.403 164.122 432.98 164.877 433.801 164.986C434.622 165.096 435.377 164.519 435.487 163.698L432.513 163.301ZM456.345 140.653L456.731 142.102L456.345 140.653ZM524 115.129L506.681 115.36L515.54 130.243L524 115.129ZM435.487 163.698C435.518 163.468 435.701 162.947 436.187 162.097C436.648 161.292 437.301 160.325 438.112 159.243C439.733 157.082 441.918 154.553 444.28 152.094C446.642 149.635 449.153 147.275 451.415 145.444C453.744 143.559 455.614 142.4 456.731 142.102L455.958 139.204C454.157 139.684 451.846 141.236 449.528 143.112C447.143 145.041 444.54 147.493 442.117 150.016C439.693 152.539 437.423 155.162 435.712 157.443C434.858 158.582 434.126 159.658 433.583 160.608C433.065 161.514 432.626 162.461 432.513 163.301L435.487 163.698ZM456.731 142.102C460.055 141.216 463.654 141.611 467.907 142.086C472.073 142.55 476.753 143.069 481.794 142.128L481.243 139.179C476.701 140.027 472.441 139.573 468.24 139.104C464.125 138.645 459.929 138.145 455.958 139.204L456.731 142.102ZM481.794 142.128C484.357 141.649 486.201 140.875 487.686 139.841C489.152 138.821 490.186 137.599 491.157 136.405C493.058 134.068 494.998 131.463 500.198 128.928L498.884 126.231C493.07 129.066 490.79 132.102 488.83 134.512C487.87 135.692 487.063 136.62 485.972 137.379C484.899 138.126 483.472 138.762 481.243 139.179L481.794 142.128ZM500.198 128.928C505.418 126.383 509.298 124.983 512.986 123.415L511.812 120.654C508.289 122.152 504.191 123.644 498.884 126.231L500.198 128.928Z" fill="#9D60FB"></path>
  <line x1="432.5" y1="111.668" x2="432.5" y2="165.335" stroke="#D5D5DE"></line>
  <line x1="432" y1="164.836" x2="524" y2="164.836" stroke="#D5D5DE"></line>
  <g filter="url(#filter0_d_6542_6248)">
    <rect x="417.936" y="147.588" width="184.348" height="184.348" rx="11.1706" transform="rotate(90 417.936 147.588)" fill="white" stroke="#E8E8E8" stroke-width="1.17586"></rect>
    <path d="M276.192 293.168V281.315H280.983C281.098 281.315 281.241 281.321 281.411 281.332C281.581 281.337 281.743 281.354 281.896 281.381C282.555 281.485 283.104 281.71 283.543 282.056C283.987 282.402 284.319 282.838 284.538 283.365C284.758 283.892 284.868 284.473 284.868 285.11C284.868 285.752 284.758 286.336 284.538 286.863C284.319 287.39 283.987 287.826 283.543 288.172C283.104 288.517 282.555 288.742 281.896 288.847C281.743 288.869 281.578 288.885 281.402 288.896C281.232 288.907 281.092 288.913 280.983 288.913H277.913V293.168H276.192ZM277.913 287.283H280.917C281.027 287.283 281.147 287.277 281.279 287.266C281.416 287.255 281.545 287.236 281.666 287.209C282.017 287.126 282.3 286.976 282.514 286.756C282.728 286.531 282.881 286.273 282.975 285.982C283.068 285.691 283.115 285.401 283.115 285.11C283.115 284.819 283.068 284.531 282.975 284.246C282.881 283.955 282.728 283.7 282.514 283.48C282.3 283.255 282.017 283.101 281.666 283.019C281.545 282.986 281.416 282.964 281.279 282.953C281.147 282.942 281.027 282.937 280.917 282.937H277.913V287.283ZM290.343 293.415C289.46 293.415 288.683 293.223 288.014 292.839C287.35 292.449 286.831 291.909 286.458 291.217C286.091 290.52 285.907 289.714 285.907 288.797C285.907 287.826 286.088 286.984 286.45 286.27C286.818 285.557 287.328 285.006 287.981 284.616C288.634 284.226 289.394 284.032 290.261 284.032C291.166 284.032 291.937 284.243 292.574 284.665C293.21 285.082 293.685 285.678 293.998 286.451C294.316 287.225 294.442 288.144 294.376 289.209H292.656V288.583C292.645 287.552 292.448 286.789 292.064 286.295C291.685 285.801 291.106 285.554 290.327 285.554C289.465 285.554 288.818 285.826 288.384 286.369C287.951 286.912 287.734 287.697 287.734 288.723C287.734 289.7 287.951 290.457 288.384 290.995C288.818 291.527 289.443 291.793 290.261 291.793C290.799 291.793 291.262 291.673 291.652 291.431C292.047 291.184 292.354 290.833 292.574 290.378L294.261 290.913C293.916 291.708 293.391 292.326 292.689 292.765C291.987 293.198 291.205 293.415 290.343 293.415ZM287.174 289.209V287.867H293.52V289.209H287.174ZM296.223 293.168V284.278H297.754V286.435L297.54 286.155C297.65 285.87 297.793 285.609 297.968 285.373C298.144 285.132 298.347 284.934 298.577 284.781C298.802 284.616 299.052 284.49 299.326 284.402C299.606 284.309 299.891 284.254 300.182 284.237C300.473 284.215 300.753 284.229 301.022 284.278V285.892C300.731 285.815 300.407 285.793 300.051 285.826C299.699 285.859 299.376 285.971 299.079 286.163C298.799 286.344 298.577 286.564 298.413 286.822C298.253 287.08 298.138 287.368 298.067 287.686C297.996 287.999 297.96 288.331 297.96 288.682V293.168H296.223ZM303.404 293.168V283.966C303.404 283.741 303.412 283.502 303.429 283.25C303.445 282.992 303.492 282.739 303.569 282.492C303.651 282.24 303.786 282.009 303.972 281.801C304.197 281.554 304.444 281.378 304.713 281.274C304.982 281.17 305.248 281.11 305.511 281.093C305.78 281.077 306.027 281.068 306.252 281.068H307.372V282.484H306.334C305.928 282.484 305.624 282.586 305.421 282.789C305.223 282.986 305.124 283.269 305.124 283.636V293.168H303.404ZM301.931 285.661V284.278H307.372V285.661H301.931ZM312.221 293.415C311.332 293.415 310.561 293.215 309.908 292.814C309.255 292.413 308.75 291.862 308.394 291.16C308.042 290.452 307.867 289.637 307.867 288.715C307.867 287.788 308.048 286.973 308.41 286.27C308.772 285.563 309.28 285.014 309.933 284.624C310.586 284.229 311.349 284.032 312.221 284.032C313.11 284.032 313.881 284.232 314.534 284.632C315.187 285.033 315.692 285.584 316.048 286.287C316.405 286.989 316.583 287.799 316.583 288.715C316.583 289.642 316.402 290.46 316.04 291.168C315.684 291.87 315.179 292.422 314.526 292.822C313.873 293.217 313.104 293.415 312.221 293.415ZM312.221 291.793C313.072 291.793 313.705 291.508 314.122 290.937C314.545 290.361 314.756 289.62 314.756 288.715C314.756 287.788 314.542 287.047 314.114 286.493C313.692 285.933 313.061 285.653 312.221 285.653C311.645 285.653 311.17 285.785 310.797 286.048C310.424 286.306 310.147 286.665 309.966 287.126C309.785 287.582 309.694 288.111 309.694 288.715C309.694 289.648 309.908 290.394 310.336 290.954C310.764 291.514 311.392 291.793 312.221 291.793ZM318.392 293.168V284.278H319.923V286.435L319.709 286.155C319.819 285.87 319.962 285.609 320.137 285.373C320.313 285.132 320.516 284.934 320.746 284.781C320.971 284.616 321.221 284.49 321.495 284.402C321.775 284.309 322.06 284.254 322.351 284.237C322.642 284.215 322.922 284.229 323.191 284.278V285.892C322.9 285.815 322.576 285.793 322.22 285.826C321.868 285.859 321.545 285.971 321.248 286.163C320.968 286.344 320.746 286.564 320.582 286.822C320.423 287.08 320.307 287.368 320.236 287.686C320.165 287.999 320.129 288.331 320.129 288.682V293.168H318.392ZM335.409 293.168L335.417 287.629C335.417 286.986 335.253 286.487 334.924 286.13C334.594 285.768 334.161 285.587 333.623 285.587C333.294 285.587 332.992 285.664 332.718 285.818C332.449 285.966 332.229 286.191 332.059 286.493C331.895 286.789 331.812 287.162 331.812 287.612L330.981 287.192C330.97 286.567 331.102 286.018 331.376 285.546C331.656 285.074 332.035 284.709 332.512 284.451C332.989 284.188 333.524 284.056 334.117 284.056C335.077 284.056 335.821 284.344 336.348 284.921C336.874 285.497 337.138 286.262 337.138 287.217L337.13 293.168H335.409ZM324.75 293.168V284.278H326.281V286.847H326.479V293.168H324.75ZM330.084 293.168L330.092 287.661C330.092 287.014 329.927 286.506 329.598 286.139C329.274 285.771 328.838 285.587 328.289 285.587C327.746 285.587 327.307 285.774 326.972 286.147C326.643 286.52 326.479 287.008 326.479 287.612L325.656 287.085C325.656 286.504 325.795 285.985 326.075 285.53C326.355 285.074 326.734 284.715 327.211 284.451C327.689 284.188 328.229 284.056 328.833 284.056C329.464 284.056 330.001 284.191 330.446 284.46C330.89 284.723 331.228 285.093 331.458 285.571C331.694 286.048 331.812 286.602 331.812 287.233L331.804 293.168H330.084ZM341.786 293.415C341.127 293.415 340.576 293.294 340.131 293.053C339.687 292.806 339.349 292.482 339.119 292.081C338.894 291.675 338.781 291.231 338.781 290.748C338.781 290.298 338.861 289.903 339.02 289.563C339.179 289.223 339.415 288.934 339.728 288.699C340.041 288.457 340.425 288.262 340.88 288.114C341.275 287.999 341.722 287.897 342.222 287.81C342.721 287.722 343.245 287.639 343.794 287.563C344.348 287.486 344.897 287.409 345.44 287.332L344.815 287.678C344.826 286.981 344.677 286.465 344.37 286.13C344.068 285.79 343.547 285.62 342.806 285.62C342.34 285.62 341.912 285.73 341.522 285.949C341.133 286.163 340.861 286.52 340.707 287.019L339.102 286.526C339.322 285.763 339.739 285.156 340.353 284.707C340.973 284.257 341.797 284.032 342.823 284.032C343.618 284.032 344.31 284.169 344.897 284.443C345.49 284.712 345.923 285.14 346.197 285.727C346.34 286.018 346.428 286.325 346.461 286.649C346.494 286.973 346.51 287.321 346.51 287.694V293.168H344.987V291.135L345.284 291.398C344.916 292.079 344.447 292.586 343.876 292.921C343.311 293.25 342.614 293.415 341.786 293.415ZM342.09 292.007C342.578 292.007 342.998 291.922 343.349 291.752C343.701 291.577 343.983 291.354 344.197 291.086C344.411 290.817 344.551 290.537 344.617 290.246C344.71 289.983 344.762 289.686 344.773 289.357C344.79 289.028 344.798 288.764 344.798 288.567L345.358 288.773C344.815 288.855 344.321 288.929 343.876 288.995C343.432 289.061 343.028 289.127 342.666 289.192C342.31 289.253 341.991 289.327 341.712 289.415C341.476 289.497 341.264 289.596 341.078 289.711C340.897 289.826 340.751 289.966 340.641 290.131C340.537 290.295 340.485 290.496 340.485 290.732C340.485 290.962 340.543 291.176 340.658 291.374C340.773 291.566 340.949 291.719 341.185 291.835C341.421 291.95 341.722 292.007 342.09 292.007ZM354.887 293.168V288.797C354.887 288.452 354.856 288.098 354.796 287.736C354.741 287.368 354.631 287.028 354.467 286.715C354.308 286.402 354.08 286.15 353.784 285.958C353.493 285.766 353.111 285.67 352.64 285.67C352.332 285.67 352.041 285.722 351.767 285.826C351.493 285.925 351.251 286.087 351.043 286.312C350.84 286.537 350.678 286.833 350.557 287.2C350.442 287.568 350.384 288.015 350.384 288.542L349.314 288.139C349.314 287.332 349.465 286.622 349.767 286.007C350.069 285.387 350.502 284.904 351.067 284.558C351.633 284.213 352.316 284.04 353.117 284.04C353.732 284.04 354.247 284.139 354.664 284.336C355.081 284.534 355.419 284.794 355.677 285.118C355.94 285.436 356.14 285.785 356.278 286.163C356.415 286.542 356.508 286.912 356.558 287.275C356.607 287.637 356.632 287.955 356.632 288.229V293.168H354.887ZM348.639 293.168V284.278H350.178V286.847H350.384V293.168H348.639ZM362.466 293.415C361.555 293.415 360.781 293.212 360.145 292.806C359.508 292.4 359.02 291.843 358.679 291.135C358.345 290.427 358.175 289.623 358.169 288.723C358.175 287.807 358.35 286.997 358.696 286.295C359.042 285.587 359.535 285.033 360.177 284.632C360.82 284.232 361.59 284.032 362.49 284.032C363.462 284.032 364.29 284.273 364.976 284.756C365.668 285.239 366.123 285.9 366.343 286.74L364.63 287.233C364.46 286.734 364.18 286.347 363.791 286.073C363.407 285.793 362.965 285.653 362.466 285.653C361.901 285.653 361.437 285.788 361.075 286.056C360.713 286.32 360.444 286.682 360.268 287.143C360.092 287.604 360.002 288.131 359.996 288.723C360.002 289.64 360.21 290.38 360.622 290.946C361.039 291.511 361.654 291.793 362.466 291.793C363.02 291.793 363.467 291.667 363.807 291.415C364.153 291.157 364.416 290.789 364.598 290.312L366.343 290.723C366.052 291.59 365.572 292.257 364.902 292.723C364.233 293.184 363.42 293.415 362.466 293.415ZM371.721 293.415C370.837 293.415 370.061 293.223 369.391 292.839C368.727 292.449 368.209 291.909 367.836 291.217C367.468 290.52 367.284 289.714 367.284 288.797C367.284 287.826 367.465 286.984 367.828 286.27C368.195 285.557 368.706 285.006 369.359 284.616C370.012 284.226 370.772 284.032 371.639 284.032C372.544 284.032 373.315 284.243 373.951 284.665C374.588 285.082 375.063 285.678 375.375 286.451C375.694 287.225 375.82 288.144 375.754 289.209H374.034V288.583C374.023 287.552 373.825 286.789 373.441 286.295C373.062 285.801 372.484 285.554 371.704 285.554C370.843 285.554 370.195 285.826 369.762 286.369C369.328 286.912 369.112 287.697 369.112 288.723C369.112 289.7 369.328 290.457 369.762 290.995C370.195 291.527 370.821 291.793 371.639 291.793C372.176 291.793 372.64 291.673 373.03 291.431C373.425 291.184 373.732 290.833 373.951 290.378L375.639 290.913C375.293 291.708 374.769 292.326 374.067 292.765C373.364 293.198 372.582 293.415 371.721 293.415ZM368.552 289.209V287.867H374.898V289.209H368.552Z" fill="#7D7E8E"></path>
    <path d="M321.741 208.68C317.697 208.68 313.762 209.99 310.526 212.414C307.289 214.839 304.926 218.246 303.789 222.127C302.652 226.008 302.803 230.152 304.22 233.94C305.636 237.727 308.242 240.954 311.646 243.136C315.051 245.318 319.07 246.338 323.103 246.044C327.136 245.749 330.965 244.156 334.017 241.502C337.068 238.849 339.177 235.278 340.029 231.325C340.88 227.372 340.427 223.249 338.739 219.575L321.741 227.386L321.741 208.68Z" fill="#D5D5DE"></path>
    <path d="M325.482 178.75C333.6 178.75 341.537 181.151 348.293 185.65C355.05 190.15 360.325 196.547 363.455 204.037L325.482 219.905L325.482 178.75Z" fill="#9D60FB"></path>
  </g>
  <path d="M83.1012 173.687C83.1012 200.52 104.854 222.272 131.687 222.272C158.52 222.272 180.272 200.52 180.272 173.687C180.272 146.854 158.52 125.101 131.687 125.101C104.854 125.101 83.1012 146.854 83.1012 173.687Z" stroke="#303245" stroke-width="6.20241"></path>
  <line x1="6.20241" y1="-6.20241" x2="81.8174" y2="-6.20241" transform="matrix(-0.695265 -0.718753 -0.718754 0.695264 221 274.578)" stroke="#303245" stroke-width="12.4048" stroke-linecap="round"></line>
  <line x1="2.06747" y1="-2.06747" x2="16.3551" y2="-2.06747" transform="matrix(-0.695796 -0.71824 -0.718241 0.695795 185.853 232.816)" stroke="#FAFBFC" stroke-width="4.13494" stroke-linecap="round"></line>
  <mask id="mask0_6542_6248" style="mask-type:alpha" maskUnits="userSpaceOnUse" x="86" y="128" width="91" height="91">
    <ellipse cx="45.3124" cy="45.3124" rx="45.3124" ry="45.3124" transform="matrix(-1 0 0 1 177 128.375)" fill="#303245"></ellipse>
  </mask>
  <g mask="url(#mask0_6542_6248)">
    <circle opacity="0.3" cx="48.5301" cy="48.5301" r="48.5301" transform="matrix(-1 0 0 1 180.022 124.961)" fill="white"></circle>
  </g>
  <rect width="557" height="130" transform="matrix(1 0 0 -1 0 543)" fill="url(#paint1_linear_6542_6248)"></rect>
  <defs>
    <filter id="filter0_d_6542_6248" x="173" y="102" width="305.524" height="305.523" color-interpolation-filters="sRGB">
      <feFlood flood-opacity="0" result="BackgroundImageFix"></feFlood>
      <feColorMatrix in="SourceAlpha" type="matrix" values="0 0 0 0 0 0 0 0 0 0 0 0 0 0 0 0 0 0 127 0" result="hardAlpha"></feColorMatrix>
      <feMorphology radius="10" operator="dilate" in="SourceAlpha" result="effect1_dropShadow_6542_6248"></feMorphology>
      <feOffset dy="15"></feOffset>
      <feGaussianBlur stdDeviation="25"></feGaussianBlur>
      <feComposite in2="hardAlpha" operator="out"></feComposite>
      <feColorMatrix type="matrix" values="0 0 0 0 0.484221 0 0 0 0 0.54857 0 0 0 0 0.584766 0 0 0 0.25 0"></feColorMatrix>
      <feBlend mode="normal" in2="BackgroundImageFix" result="effect1_dropShadow_6542_6248"></feBlend>
      <feBlend mode="normal" in="SourceGraphic" in2="effect1_dropShadow_6542_6248" result="shape"></feBlend>
    </filter>
    <linearGradient id="paint0_linear_6542_6248" x1="279" y1="0" x2="279" y2="570" gradientUnits="userSpaceOnUse">
      <stop stop-color="#F6F6F7"></stop>
      <stop offset="1" stop-color="#F6F6F7" stop-opacity="0"></stop>
    </linearGradient>
    <linearGradient id="paint1_linear_6542_6248" x1="278.5" y1="0" x2="278.5" y2="130" gradientUnits="userSpaceOnUse">
      <stop stop-color="white"></stop>
      <stop offset="1" stop-color="white" stop-opacity="0"></stop>
    </linearGradient>
  </defs>
</svg>
