<svg width="36" height="36" viewBox="0 0 36 36" fill="none" xmlns="http://www.w3.org/2000/svg">
<path d="M18 22.5V25.5M9 31.5H27C27.7956 31.5 28.5587 31.1839 29.1213 30.6213C29.6839 30.0587 30 29.2956 30 28.5V19.5C30 18.7044 29.6839 17.9413 29.1213 17.3787C28.5587 16.8161 27.7956 16.5 27 16.5H9C8.20435 16.5 7.44129 16.8161 6.87868 17.3787C6.31607 17.9413 6 18.7044 6 19.5V28.5C6 29.2956 6.31607 30.0587 6.87868 30.6213C7.44129 31.1839 8.20435 31.5 9 31.5ZM24 16.5V10.5C24 8.9087 23.3679 7.38258 22.2426 6.25736C21.1174 5.13214 19.5913 4.5 18 4.5C16.4087 4.5 14.8826 5.13214 13.7574 6.25736C12.6321 7.38258 12 8.9087 12 10.5V16.5H24Z" stroke="#9D60FB" stroke-width="3" stroke-linecap="round" stroke-linejoin="round"/>
</svg>
