<svg width="147" height="50" viewBox="0 0 147 50" fill="none" xmlns="http://www.w3.org/2000/svg">
<g clip-path="url(#clip0_6355_2563)">
<g clip-path="url(#clip1_6355_2563)">
<path d="M42.3789 25.0177C42.3789 36.6249 33.1844 46.0355 21.8437 46.0355C10.5017 46.0355 1.30859 36.6249 1.30859 25.0177C1.30859 13.4091 10.5024 4 21.8437 4C33.1844 4 42.3789 13.4098 42.3789 25.0177Z" fill="#303245"/>
<path d="M24.5812 25.0167H18.7633V18.7114H24.5812C24.9857 18.7114 25.3862 18.7929 25.7599 18.9513C26.1336 19.1098 26.4732 19.342 26.7592 19.6348C27.0452 19.9275 27.2722 20.2751 27.427 20.6575C27.5818 21.04 27.6614 21.45 27.6614 21.864C27.6614 22.278 27.5818 22.688 27.427 23.0705C27.2722 23.453 27.0452 23.8005 26.7592 24.0933C26.4732 24.386 26.1336 24.6183 25.7599 24.7767C25.3862 24.9351 24.9857 25.0167 24.5812 25.0167ZM24.5812 14.5078H14.6562V35.5255H18.7633V29.2202H24.5812C28.5505 29.2202 31.7684 25.9267 31.7684 21.864C31.7684 17.8014 28.5505 14.5078 24.5812 14.5078Z" fill="white"/>
<path d="M63.951 22.4489C63.951 21.2923 63.0829 20.5915 61.9551 20.5915H58.9317V24.2847H61.9558C63.0837 24.2847 63.951 23.5839 63.951 22.4489ZM56.0684 32.0233V18.0117H62.3575C65.2818 18.0117 66.8732 20.0344 66.8732 22.4489C66.8732 24.8425 65.2615 26.8645 62.3575 26.8645H58.9317V32.0233H56.0684ZM68.6163 32.0233V21.8084H71.1748V23.1497C71.8806 22.2828 73.071 21.5612 74.2811 21.5612V24.1194C74.0985 24.0784 73.8773 24.0583 73.5753 24.0583C72.7283 24.0583 71.5983 24.5528 71.1748 25.194V32.0233H68.6163ZM82.894 26.7818C82.894 25.2342 82.0049 23.8929 80.3925 23.8929C78.7989 23.8929 77.9134 25.2342 77.9134 26.7825C77.9134 28.3502 78.7989 29.6915 80.3925 29.6915C82.0049 29.6915 82.894 28.3502 82.894 26.7818ZM75.2509 26.7818C75.2509 23.9555 77.1865 21.5612 80.3925 21.5612C83.6188 21.5612 85.5543 23.9548 85.5543 26.7818C85.5543 29.6088 83.6188 32.0233 80.3925 32.0233C77.1865 32.0233 75.2509 29.6088 75.2509 26.7818ZM94.1701 28.5565V25.0279C93.7466 24.3666 92.8196 23.8929 91.9719 23.8929C90.5013 23.8929 89.4928 25.0689 89.4928 26.7825C89.4928 28.5148 90.5013 29.6915 91.9719 29.6915C92.8196 29.6915 93.7466 29.2178 94.1701 28.5565ZM94.1701 32.0233V30.4966C93.4032 31.4864 92.3561 32.0233 91.1657 32.0233C88.7266 32.0233 86.8515 30.1257 86.8515 26.7818C86.8515 23.5429 88.6866 21.5612 91.1657 21.5612C92.3146 21.5612 93.4032 22.0571 94.1701 23.0879V18.0117H96.7504V32.0233H94.1701ZM105.871 32.0233V30.5167C105.206 31.2599 104.037 32.0233 102.443 32.0233C100.307 32.0233 99.299 30.8265 99.299 28.8865V21.8084H101.858V27.855C101.858 29.2379 102.564 29.6915 103.653 29.6915C104.64 29.6915 105.427 29.1344 105.871 28.5558V21.8084H108.431V32.0233H105.871ZM110.354 26.7818C110.354 23.7283 112.531 21.5612 115.516 21.5612C117.512 21.5612 118.721 22.4489 119.367 23.3567L117.692 24.9654C117.23 24.2638 116.524 23.8929 115.637 23.8929C114.084 23.8929 112.996 25.0488 112.996 26.7825C112.996 28.5148 114.084 29.6915 115.637 29.6915C116.524 29.6915 117.23 29.2789 117.692 28.5975L119.367 30.2076C118.721 31.1155 117.512 32.0233 115.516 32.0233C112.531 32.0233 110.354 29.8568 110.354 26.7818ZM121.568 29.2789V24.0992H119.956V21.8084H121.568V19.0842H124.13V21.8084H126.104V24.0992H124.13V28.5774C124.13 29.2171 124.451 29.6915 125.016 29.6915C125.398 29.6915 125.763 29.547 125.902 29.3824L126.448 31.3828C126.065 31.7351 125.379 32.0233 124.31 32.0233C122.516 32.0233 121.568 31.0745 121.568 29.2789ZM142.505 32.0233V25.9767H136.154V32.0233H133.292V18.0117H136.154V23.4178H142.505V18.0124H145.388V32.0233H142.505ZM154.551 32.0233V30.5167C153.886 31.2599 152.717 32.0233 151.124 32.0233C148.987 32.0233 147.979 30.8265 147.979 28.8865V21.8084H150.538V27.855C150.538 29.2379 151.244 29.6915 152.333 29.6915C153.321 29.6915 154.108 29.1344 154.551 28.5558V21.8084H157.112V32.0233H154.551ZM166.229 32.0233V25.751C166.229 24.3681 165.525 23.8937 164.435 23.8937C163.427 23.8937 162.662 24.4716 162.217 25.0495V32.024H159.658V21.8084H162.217V23.0879C162.843 22.3454 164.052 21.5612 165.625 21.5612C167.782 21.5612 168.81 22.7989 168.81 24.7383V32.0233H166.229ZM171.861 29.2789V24.0992H170.25V21.8084H171.862V19.0842H174.423V21.8084H176.398V24.0992H174.423V28.5774C174.423 29.2171 174.745 29.6915 175.309 29.6915C175.692 29.6915 176.057 29.547 176.197 29.3824L176.741 31.3828C176.359 31.7351 175.672 32.0233 174.604 32.0233C172.809 32.0233 171.861 31.0745 171.861 29.2789Z" fill="#303245"/>
</g>
</g>
<defs>
<clipPath id="clip0_6355_2563">
<rect width="147" height="50" fill="white"/>
</clipPath>
<clipPath id="clip1_6355_2563">
<rect width="147" height="43" fill="white" transform="translate(1 4)"/>
</clipPath>
</defs>
</svg>
