<svg width="133" height="50" viewBox="0 0 133 50" fill="none" xmlns="http://www.w3.org/2000/svg">
<g clip-path="url(#clip0_6355_2563)">
<path fill-rule="evenodd" clip-rule="evenodd" d="M47.514 15.4264V29.9349H51.0853H54.6567V24.3546C54.6567 20.6717 54.6567 18.6629 54.6567 18.4397C54.7682 17.8817 54.88 17.3237 55.2147 16.8772C55.6611 16.096 56.4423 15.7612 57.3352 15.8728C58.5628 15.9845 59.344 16.6541 59.5672 18.1049C59.5672 18.3281 59.5672 20.5601 59.5672 24.1314V29.8233H63.1385H66.7098V23.127C66.7098 17.4353 66.7098 16.3192 66.5982 15.7612C66.3751 13.7524 65.7055 12.1899 64.4777 11.0739C63.4734 10.0694 62.2457 9.51142 60.7948 9.28821C60.2368 9.17661 58.6744 9.28821 58.228 9.39982C56.8888 9.73462 55.8843 10.181 54.9915 11.1855L54.4335 11.6319V6.27492V0.917969H50.8622H47.2909V15.4264H47.514ZM123.404 1.14118C123.181 1.58759 115.927 19.1093 115.927 19.1093C115.927 19.1093 117.824 19.1093 120.168 19.1093H124.409L128.203 10.0694C130.324 5.04729 131.997 0.917969 131.997 0.917969C131.997 0.917969 130.1 0.917969 127.757 0.917969H123.516L123.404 1.14118ZM31.8897 9.39982C30.3272 9.62303 29.0996 10.0694 27.8719 10.8507C25.4167 12.4131 23.8542 15.0916 23.4077 18.2164C23.1846 19.6674 23.2961 21.453 23.631 22.7922C24.5238 26.252 26.8675 28.9304 29.8807 29.9349C30.9968 30.2696 31.4432 30.3812 32.7825 30.3812C33.7869 30.3812 34.1217 30.3812 34.4565 30.2696C35.9073 29.9349 36.9118 29.3768 37.8046 28.4839L38.251 28.0376V28.9304V29.8233H41.7107H45.1705V19.7789V9.73463H41.7107H38.251V10.6274V11.5203L37.9163 11.1855C37.135 10.2926 36.0189 9.73462 34.5681 9.39982C34.1217 9.28821 33.8985 9.28821 33.0056 9.28821C32.4476 9.39982 32.0013 9.39982 31.8897 9.39982ZM77.4238 9.39982C75.5265 9.62303 73.5176 10.5158 72.0668 11.6319C69.2767 13.9755 67.8259 17.6584 68.3839 21.453C68.9419 25.6939 71.9552 28.9304 76.1961 30.0464C77.0889 30.2696 77.9818 30.3812 79.0978 30.3812C81.1067 30.3812 82.5574 30.0464 84.1199 29.2652C87.2448 27.7027 89.2536 24.9126 89.7001 21.453C89.8117 20.5601 89.8117 19.1093 89.7001 18.328C89.4769 16.6541 88.8073 14.98 87.8028 13.6408C87.3564 13.0827 86.4636 12.0783 85.9056 11.6319C84.3431 10.4043 82.5574 9.62303 80.5486 9.39982C79.7675 9.28821 78.2049 9.28821 77.4238 9.39982ZM100.191 9.39982C98.2935 9.62303 96.3963 10.4043 94.9455 11.6319C94.3874 12.0783 93.383 13.0827 93.0482 13.6408C92.0438 14.98 91.4857 16.6541 91.151 18.328C91.0393 19.1093 91.0393 20.6717 91.151 21.453C91.8206 25.9171 95.0571 29.3768 99.5213 30.2696C100.414 30.4929 100.86 30.4929 101.865 30.4929C103.762 30.4929 105.436 30.158 106.999 29.2652C111.128 27.1447 113.36 22.4574 112.356 17.6584C111.463 13.1943 107.891 9.95783 103.316 9.39982C102.535 9.28821 100.972 9.28821 100.191 9.39982ZM0.305908 9.84622C0.305908 9.84622 2.20317 14.422 4.54683 20.0021C6.8905 25.5822 8.78776 30.158 8.78776 30.158C8.78776 30.158 8.11814 31.8321 7.22531 33.8409C6.33248 35.8499 5.66287 37.4122 5.66287 37.5238C5.66287 37.6354 7.33692 37.5238 9.45738 37.5238H13.2519L18.9436 23.7967C22.0685 16.2076 24.6355 10.0694 24.6355 9.95783C24.6355 9.95783 23.8542 9.84622 20.8409 9.95783H17.0464L14.7027 15.7612C13.6982 18.886 12.6939 21.5646 12.6939 21.5646C12.6939 21.5646 11.6894 18.886 10.3502 15.7612L8.11814 9.95783H4.21202C2.09156 9.84622 0.305908 9.84622 0.305908 9.84622ZM35.3493 15.8728C36.8002 16.2076 37.9161 17.3237 38.3626 18.7745C38.4742 19.3325 38.4742 20.337 38.3626 20.895C38.0278 22.3458 36.9118 23.4618 35.4609 23.7967C34.903 23.9083 33.8985 23.9083 33.3405 23.7967C32.1128 23.4618 30.9968 22.5691 30.5504 21.453C29.9923 20.2254 30.2156 18.6629 30.8852 17.5468C31.8897 16.096 33.5636 15.538 35.3493 15.8728ZM79.879 15.9845C81.4415 16.2076 82.6692 17.4353 83.0039 18.9978C83.1155 19.5558 83.1155 20.4485 83.0039 21.0066C82.6692 22.4574 81.5531 23.4618 80.2139 23.9083C79.7675 24.0199 78.5398 24.0199 78.0934 23.9083C76.9773 23.5734 76.0846 22.7922 75.5265 21.7878C75.1917 21.1181 75.1917 20.7834 75.1917 20.0021C75.1917 19.3325 75.3032 18.9978 75.5265 18.4397C75.8613 17.7701 76.3077 17.1004 76.9773 16.6541C77.6469 15.9845 78.763 15.7612 79.879 15.9845ZM102.534 15.9845C103.874 16.2076 104.99 17.1004 105.436 18.328C105.659 18.886 105.771 19.2209 105.771 19.8905C105.771 20.6717 105.659 21.0066 105.436 21.6762C104.99 22.6806 103.985 23.4618 102.869 23.7967C102.423 23.9083 101.195 23.9083 100.749 23.7967C99.4096 23.4618 98.2935 22.3458 97.9588 20.895C97.8472 20.337 97.8472 19.3325 97.9588 18.7745C98.4052 16.9888 99.9676 15.7612 101.753 15.7612C101.977 15.8728 102.311 15.8728 102.534 15.9845ZM117.713 20.895C115.592 21.1181 114.03 22.6806 113.583 24.6895C113.472 25.2475 113.472 26.252 113.583 26.81C114.03 28.5956 115.369 29.8233 117.155 30.2696C117.378 30.2696 117.824 30.3812 118.159 30.3812C119.498 30.3812 120.614 29.9349 121.507 29.042C122.512 28.0376 122.846 27.0331 122.846 25.6939C122.846 24.0199 122.065 22.5691 120.726 21.7878C119.833 21.0066 118.605 20.7834 117.713 20.895ZM58.8976 31.8321C57.4468 32.2785 56.7772 33.9525 57.5584 35.1801C57.7815 35.515 58.228 35.9614 58.5628 36.073C58.8976 36.1846 58.8976 36.1846 59.5672 36.1846C60.1252 36.1846 60.2368 36.1846 60.5717 36.073C61.0181 35.8499 61.4646 35.4034 61.6877 34.957C62.2457 33.8409 61.6877 32.5017 60.5717 31.9437C60.2368 31.7205 60.1252 31.7205 59.6789 31.7205C59.2325 31.7205 59.1209 31.7205 58.8976 31.8321ZM52.871 31.9437C50.9738 32.2785 49.7461 33.5062 49.1881 35.515C49.0765 35.8499 49.0765 36.1846 49.0765 36.631V37.4122H48.2953H47.514V39.0863V40.7604H48.2953H49.0765V44.778V48.7958H51.1969H53.3175V44.778V40.7604H54.7682H56.2192V39.0863V37.4122H54.7682H53.3175V37.0775C53.429 36.2962 53.7639 35.7381 54.4335 35.6266C54.88 35.515 55.5496 35.515 55.9959 35.7381C56.2192 35.8499 56.3307 35.8497 56.3307 35.8497C56.3307 35.8497 56.3307 35.0685 56.3307 34.0642V32.2785L55.9959 32.1668C55.5496 31.9437 54.9915 31.9437 54.2103 31.9437C53.6523 31.8321 53.2059 31.9437 52.871 31.9437ZM69.8347 37.1891C68.9419 37.4122 68.2723 37.8587 67.8259 38.4167L67.6027 38.7514V38.0818V37.4122H65.4822H63.3618V43.1041V48.7958H65.4822H67.6027V45.6709C67.6027 43.8852 67.6027 42.4343 67.6027 42.2112C67.7143 41.7647 67.9375 41.3184 68.1607 41.0951C68.7188 40.6487 69.7231 40.7604 70.1696 41.3184C70.5043 41.7647 70.5043 41.7647 70.5043 45.336V48.6842H72.6248H74.7452V44.8896C74.7452 40.872 74.7453 40.4255 74.5221 39.6443C74.2989 38.9747 74.0756 38.4167 73.5176 37.9703C73.0713 37.5238 72.6248 37.1891 71.9552 37.0775C71.3972 37.0775 70.2811 37.0775 69.8347 37.1891ZM80.4371 37.0775C79.7674 37.1891 78.763 37.5238 78.2049 37.9703C76.9773 38.863 76.1961 40.2024 75.8613 41.8763C75.7497 42.546 75.7497 43.7737 75.8613 44.4433C76.0846 45.4476 76.4193 46.4521 76.9773 47.1217C77.7585 48.1262 78.763 48.7958 79.9906 49.0189C80.6602 49.1305 81.7763 49.1306 82.3343 48.9074C83.0039 48.6842 83.4503 48.4609 84.0084 48.0146L84.4548 47.5681V48.1262V48.6842H86.5752H88.6957V42.9924V37.3006H86.5752H84.4548V37.8587V38.4167L84.1199 38.3051C83.5619 37.7471 82.7807 37.3006 81.8878 37.1891C81.5531 37.0775 80.7719 37.0775 80.4371 37.0775ZM96.6196 37.1891C95.8382 37.3006 95.0571 37.8587 94.6106 38.4167L94.3874 38.6399V37.9703V37.3006H92.2671H90.1465V42.9924V48.6842H92.2671H94.3874V45.4476C94.3874 41.988 94.3874 41.988 94.6106 41.43C94.8339 40.9835 95.2802 40.7604 95.7267 40.7604C96.1731 40.7604 96.3963 40.872 96.7311 41.0951C97.1776 41.5416 97.1776 41.43 97.1776 45.2245V48.5726H99.298H101.419V44.4433C101.419 40.3139 101.419 40.3139 101.307 39.8675C101.195 39.6443 101.084 39.1979 100.972 38.863C100.749 38.4167 100.637 38.3051 100.302 37.9703C99.856 37.5238 99.5213 37.3006 99.0748 37.0775C98.2935 37.0775 97.4007 36.9658 96.6196 37.1891ZM107.668 37.1891C105.771 37.5238 104.32 38.4167 103.427 39.9791C103.204 40.4255 102.981 40.9835 102.758 41.5416C102.646 42.0996 102.646 42.2112 102.646 43.1041C102.646 44.1084 102.646 44.4433 102.981 45.2245C103.65 47.1217 105.213 48.5726 107.333 49.0189C107.668 49.1305 108.003 49.1305 108.784 49.1305C109.9 49.1305 110.347 49.0189 111.128 48.6842L111.574 48.4609V46.5637V44.6664L111.24 44.8896C110.682 45.2245 110.347 45.336 109.677 45.336C109.007 45.336 108.673 45.336 108.226 45.1129C107.78 44.8896 107.445 44.5549 107.222 44.1084C107.11 43.7737 107.11 43.7737 107.11 43.2156C107.11 42.7692 107.11 42.6576 107.222 42.3228C107.557 41.43 108.338 40.9835 109.454 40.872C110.235 40.872 110.57 40.872 111.686 41.43C111.686 41.43 111.686 40.5371 111.686 39.5328V37.6354L111.351 37.5238C110.124 37.0775 108.784 36.9658 107.668 37.1891ZM117.266 37.1891C114.03 37.7471 112.021 40.5371 112.244 43.7737C112.356 44.8896 112.69 45.8941 113.248 46.6753C114.03 47.9029 115.257 48.6842 116.82 49.0189C117.489 49.1305 119.275 49.1305 120.056 49.0189C121.172 48.7958 122.177 48.2378 122.958 47.4566C123.293 47.1217 123.851 46.3405 123.851 46.3405C123.851 46.3405 123.07 46.0056 122.065 45.6709L120.279 45.0013L120.056 45.2245C119.721 45.5593 119.498 45.6709 119.052 45.7825C117.824 46.1172 116.597 45.4476 116.373 44.3317V44.1084H120.279H124.185V43.1041C124.185 42.4343 124.185 41.988 124.074 41.7647C123.851 40.4255 123.293 39.5328 122.512 38.6399C121.73 37.8587 120.837 37.4122 119.61 37.1891C119.163 37.0775 117.824 37.0775 117.266 37.1891ZM57.4468 43.1041V48.7958H59.5672H61.6877V43.1041V37.4122H59.5672H57.4468V43.1041ZM118.94 40.3139C119.275 40.4255 119.387 40.5371 119.721 40.7604C119.945 40.9835 120.168 41.2067 120.168 41.5416V41.7647H118.271C116.15 41.7647 116.262 41.7647 116.485 41.3184C116.82 40.5371 117.824 40.0908 118.94 40.3139ZM82.8923 40.872C83.4503 40.9835 84.12 41.5416 84.3431 42.0996C84.9011 43.3272 84.3431 44.778 83.0039 45.2245C82.5575 45.336 81.8878 45.336 81.4415 45.2245C80.7718 45.0013 80.1022 44.4433 79.9906 43.7737C79.879 43.4388 79.879 43.3272 79.879 42.9924C79.879 42.546 79.879 42.4343 80.1022 42.0996C80.5486 41.0951 81.6647 40.6487 82.8923 40.872Z" fill="#303245"/>
</g>
<defs>
<clipPath id="clip0_6355_2563">
<rect width="132.89" height="50" fill="white"/>
</clipPath>
</defs>
</svg>
