<svg width="25" height="20" viewBox="0 0 25 20" fill="none" xmlns="http://www.w3.org/2000/svg">
<path d="M21.1314 1.60563C19.521 0.892019 17.8213 0.356808 16.032 0H15.9425C15.7636 0.356808 15.4952 0.892019 15.3163 1.33803C13.3481 1.07042 11.4694 1.07042 9.59069 1.33803C9.41176 0.892019 9.14338 0.446009 8.96445 0H8.87499C7.08573 0.267606 5.38594 0.802817 3.77561 1.60563C0.554959 6.42253 -0.339668 11.1502 0.107645 15.7887V15.8779C2.25475 17.4836 4.31239 18.3756 6.37003 19H6.4595C6.90681 18.3756 7.35412 17.662 7.71197 16.9484V16.8592C6.99627 16.5916 6.37003 16.3239 5.74379 15.9671C5.65433 15.9671 5.65433 15.8779 5.74379 15.8779C5.83326 15.7887 6.01218 15.6995 6.10164 15.6103H6.19111C10.3064 17.4836 14.6901 17.4836 18.8053 15.6103H18.8948C18.9843 15.6995 19.1632 15.7887 19.2527 15.8779C19.3421 15.8779 19.2527 15.9671 19.2527 15.9671C18.6264 16.3239 18.0002 16.6808 17.2845 16.8592C17.2845 16.8592 17.195 16.9484 17.2845 16.9484C17.6423 17.662 18.0896 18.3756 18.537 19H18.6264C20.6841 18.3756 22.7417 17.3944 24.8888 15.8779V15.7887C25.4256 10.4366 23.9942 5.79812 21.1314 1.60563ZM8.33821 13.0235C7.08573 13.0235 6.10164 11.8639 6.10164 10.5258C6.10164 9.18779 7.08573 8.02817 8.33821 8.02817C9.59069 8.02817 10.5748 9.18779 10.5748 10.5258C10.5748 11.8639 9.59069 13.0235 8.33821 13.0235ZM16.6582 13.0235C15.4058 13.0235 14.4217 11.8639 14.4217 10.5258C14.4217 9.18779 15.4058 8.02817 16.6582 8.02817C17.9107 8.02817 18.8948 9.18779 18.8948 10.5258C18.8948 11.8639 17.9107 13.0235 16.6582 13.0235Z" fill="white"/>
</svg>
