<svg width="241" height="50" viewBox="0 0 241 50" fill="none" xmlns="http://www.w3.org/2000/svg">
<g clip-path="url(#clip0_6355_2563)">
<g clip-path="url(#clip1_6355_2563)">
<path d="M44.957 19.7984H67.4027V8.35547H44.957V19.7984Z" fill="#303245"/>
<path d="M0.105957 8.35547V19.7984H11.3088V42.6841H22.5115V19.7984H33.7545V8.35547H0.105957Z" fill="#303245"/>
<path d="M33.7544 42.6845H67.4028V31.2417H44.9572V19.7988H33.7544V42.6845Z" fill="#303245"/>
<path d="M96.0101 16.998H79.5259V21.7592H85.0474V36.683H90.4887V21.7592H96.0101V16.998Z" fill="#303245"/>
<path d="M102.212 21.5996C98.3307 21.5996 95.45 24.2003 95.45 29.3217C95.45 33.8427 97.8906 37.0036 102.332 37.0036C104.652 37.0036 106.533 36.4033 108.333 35.3231L106.413 32.0823C104.932 32.8425 103.892 33.1225 102.572 33.1225C101.211 33.1225 100.251 32.4024 100.051 30.7619H108.733C108.773 30.5219 108.773 30.2018 108.773 29.7617C108.813 24.2804 106.293 21.5996 102.212 21.5996ZM100.131 27.6012C100.291 26.1208 100.931 25.3606 102.092 25.3606C103.572 25.3606 104.092 26.1208 104.332 27.6012H100.131Z" fill="#303245"/>
<path d="M118.415 32.8826C117.055 32.8826 116.335 31.6822 116.335 29.3217C116.335 27.001 116.975 25.6807 118.295 25.6807C119.376 25.6807 119.856 26.2809 120.576 27.6012L124.057 24.9605C122.776 22.88 121.176 21.5996 118.376 21.5996C113.654 21.5996 111.334 24.7204 111.334 29.2416C111.334 34.2029 113.934 36.9636 118.256 36.9636C120.856 36.9636 122.457 35.9633 124.176 33.4427L120.976 30.922C120.016 32.3623 119.376 32.8826 118.415 32.8826Z" fill="#303245"/>
<path d="M135.859 21.5966C134.1 21.5966 133.059 22.1968 132.139 22.8769V16.1953L127.058 18.2358V36.7205H132.139V28.2784C132.139 26.4378 132.779 25.9177 133.86 25.9177C134.899 25.9177 135.54 26.4378 135.54 28.3184V36.7205H140.622V27.6782C140.622 23.7972 139.061 21.5966 135.859 21.5966Z" fill="#303245"/>
<path d="M152.824 32.2417C150.464 32.2417 149.504 29.841 149.504 26.8403C149.504 23.7195 150.503 21.4389 152.784 21.4389C154.584 21.4389 155.265 22.5993 155.945 24.4397L160.907 22.4792C159.546 18.7583 157.626 16.6777 152.784 16.6777C147.503 16.6777 143.782 20.5188 143.782 26.8403C143.782 32.6817 146.903 37.0028 152.745 37.0028C157.425 37.0028 159.626 34.4822 160.946 31.9215L156.345 29.481C155.265 31.3214 154.545 32.2417 152.824 32.2417Z" fill="#303245"/>
<path d="M169.108 23.0001V21.9197H164.026V36.6834H169.108V28.6415C169.108 26.841 169.868 26.2408 171.109 26.2408C172.109 26.2408 172.829 26.7609 173.469 27.4811L174.67 22.2399C174.069 21.8797 173.349 21.5996 172.269 21.5996C170.948 21.5997 169.948 22.1598 169.108 23.0001Z" fill="#303245"/>
<path d="M185.513 30.3601C185.513 32.2005 184.872 32.7207 183.832 32.7207C182.792 32.7207 182.152 32.2005 182.152 30.3201V21.918H177.071V30.9602C177.071 34.8413 178.631 37.0018 181.872 37.0018C183.592 37.0018 184.673 36.4016 185.552 35.7214V36.7217H190.633V21.958H185.552V30.3601" fill="#303245"/>
<path d="M203.077 21.5996C201.316 21.5996 200.276 22.1999 199.356 22.88V21.8797H194.274V36.6434H199.356V28.2013C199.356 26.3609 199.996 25.8408 201.076 25.8408C202.117 25.8408 202.757 26.3609 202.757 28.2413V36.6434H207.838V27.6012C207.838 23.8002 206.318 21.5996 203.077 21.5996Z" fill="#303245"/>
<path d="M217.92 32.8826C216.56 32.8826 215.84 31.6822 215.84 29.3217C215.84 27.001 216.48 25.6807 217.761 25.6807C218.841 25.6807 219.32 26.2809 220.041 27.6012L223.522 24.9605C222.242 22.88 220.641 21.5996 217.84 21.5996C213.12 21.5996 210.799 24.7204 210.799 29.2416C210.799 34.2029 213.4 36.9636 217.721 36.9636C220.321 36.9636 221.921 35.9633 223.642 33.4427L220.442 30.922C219.561 32.3623 218.881 32.8826 217.92 32.8826Z" fill="#303245"/>
<path d="M235.366 21.5966C233.605 21.5966 232.565 22.1968 231.644 22.8769V16.1953L226.563 18.2358V36.7205H231.644V28.2784C231.644 26.4378 232.285 25.9177 233.365 25.9177C234.404 25.9177 235.045 26.4378 235.045 28.3184V36.7205H240.127V27.6782C240.167 23.7972 238.606 21.5966 235.366 21.5966Z" fill="#303245"/>
</g>
</g>
<defs>
<clipPath id="clip0_6355_2563">
<rect width="240.33" height="50" fill="white"/>
</clipPath>
<clipPath id="clip1_6355_2563">
<rect width="240.333" height="35" fill="white" transform="translate(0 8)"/>
</clipPath>
</defs>
</svg>
