<svg width="252" height="50" viewBox="0 0 252 50" fill="none" xmlns="http://www.w3.org/2000/svg">
<g clip-path="url(#clip0_6355_2563)">
<g clip-path="url(#clip1_6355_2563)">
<path fill-rule="evenodd" clip-rule="evenodd" d="M11.178 6.80001L0.909424 12.6782V25.0159V37.3533L11.2289 43.2428C16.9044 46.482 21.7481 49.1323 21.9926 49.1323C22.2376 49.1323 27.09 46.4654 32.776 43.2058L43.1143 37.2794V24.9783V12.677L32.7949 6.78758C27.1194 3.54835 22.244 0.903386 21.961 0.910169C21.678 0.916576 16.8259 3.56719 11.178 6.80001ZM28.4466 22.5658C30.7102 28.3689 32.5627 33.1592 32.5627 33.2112C32.5631 33.2632 31.5879 33.3039 30.3962 33.3024L28.2295 33.2994L25.2918 25.4772C23.6759 21.1749 22.2135 17.4277 22.0416 17.15C21.7386 16.6602 21.4274 17.3878 16.8218 29.3487L15.3706 33.117L13.2273 33.23C12.0485 33.2923 11.0838 33.2319 11.0838 33.0963C11.0838 32.9607 12.965 28.1115 15.2644 22.3212L19.4453 11.7934L21.8882 11.9038L24.3309 12.0146L28.4466 22.5658Z" fill="#303245"/>
<path opacity="0.3" d="M43.1142 33.9529V37.3443L25.3246 47.44L11.0837 33.1991L24.2728 12.2852L43.1142 31.1266V33.9529Z" fill="white"/>
<path fill-rule="evenodd" clip-rule="evenodd" d="M15.2643 22.3911C12.9648 28.1815 11.0837 33.0305 11.0837 33.1662C11.0837 33.3019 12.0484 33.3621 13.2272 33.3L15.3706 33.1869L16.8217 29.4186C21.4273 17.4577 21.7386 16.73 22.0416 17.2199C22.2134 17.4976 23.6758 21.2449 25.2917 25.5471L28.2294 33.3692L30.3962 33.3724C31.5878 33.3739 32.5631 33.3331 32.5627 33.2811C32.5627 33.2291 30.7102 28.4389 28.4466 22.6357L24.3308 12.0845L21.8882 11.9737L19.4452 11.8633L15.2643 22.3911Z" fill="white"/>
<path fill-rule="evenodd" clip-rule="evenodd" d="M158.075 23.4872C156.536 27.3712 155.048 31.1082 154.765 31.7922L154.254 33.035L156.568 32.9227L158.883 32.81L160.964 27.2393C162.11 24.1753 163.093 21.7165 163.149 21.7753C163.206 21.8337 164.181 24.3407 165.319 27.346L167.384 32.81L169.7 32.9227L172.015 33.035L171.504 31.7922C171.223 31.1082 169.733 27.3712 168.194 23.4872L165.395 16.4255H163.135H160.874L158.075 23.4872ZM176.889 24.8966V33.3752H178.763H180.638L180.741 27.8521L180.845 22.3292L183.86 27.843L186.875 33.3567L189.23 33.3662L191.585 33.3752V24.8966V16.418H189.711H187.836L187.733 21.9761L187.629 27.5343L184.686 21.9761L181.745 16.418H179.316H176.889V24.8966ZM204.108 16.774C199.953 17.4501 197.823 21.4143 198.538 27.1387C198.815 29.3616 199.826 31.1542 201.503 32.3985C202.449 33.1001 203.184 33.2 208.191 33.3082L213.818 33.4295V28.3152V23.2008H209.485H205.151V24.8966V26.5923H207.6H210.05V28.2881V29.9837H207.631C206.301 29.9837 204.938 29.8782 204.603 29.7497C202.76 29.0428 202.008 23.4322 203.489 21.4475C204.506 20.0856 205.288 19.8923 209.955 19.8471L213.818 19.8093V18.1137V16.418L209.768 16.465C207.539 16.491 204.991 16.6301 204.108 16.774ZM220.978 22.9242C220.978 28.5055 221.076 29.6126 221.666 30.7141C222.788 32.8043 224.316 33.3752 228.791 33.3752H232.66V31.6795V29.9837H229.456C224.724 29.9837 224.746 30.0196 224.746 22.4472V16.418H222.861H220.978V22.9242ZM242.88 16.7955C241.089 17.2183 239.781 18.2892 238.698 20.2197C237.348 22.6232 237.344 27.1056 238.689 29.7953C240.113 32.6423 241.826 33.3752 247.059 33.3752H251.124V31.6795V29.9837H247.939C246.186 29.9837 244.34 29.7953 243.835 29.5655C242.993 29.1815 242.08 27.8223 242.08 26.9515C242.08 26.7438 243.988 26.5923 246.603 26.5923H251.124V25.085V23.5777H246.603C242.375 23.5777 242.08 23.5298 242.08 22.8451C242.08 22.442 242.489 21.6366 242.989 21.0552C243.849 20.0551 244.094 19.9906 247.511 19.8671L251.124 19.7367V18.0771V16.418L247.639 16.4563C245.721 16.4778 243.58 16.6305 242.88 16.7955ZM70.2461 18.8673V20.5631H71.9418H73.6376V18.8673V17.1716H71.9418H70.2461V18.8673ZM80.7974 25.2735V33.3752H82.6815H84.5656V25.2735V17.1716H82.6815H80.7974V25.2735ZM91.7254 18.8673V20.5631H93.4211H95.1168V18.8673V17.1716H93.4211H91.7254V18.8673ZM53.1802 22.0748C51.979 23.02 51.5886 24.6776 52.1602 26.4092C52.7451 28.1813 54.1412 28.8533 57.2387 28.8533C59.1262 28.8533 59.7717 28.9923 59.9417 29.4347C60.0646 29.7547 60.0506 30.1303 59.9112 30.2702C59.7713 30.4096 57.9701 30.5916 55.9077 30.6745L52.1583 30.8252V32.1001V33.3752H56.8856C61.4027 33.3752 61.6545 33.3342 62.5381 32.4501C63.2672 31.7213 63.4632 31.1361 63.4632 29.6898C63.4632 27.0005 62.5388 26.2667 58.7147 25.9201C56.4402 25.714 55.7382 25.5168 55.7382 25.085C55.7382 24.6287 56.4455 24.499 59.4122 24.412L63.0863 24.3042V22.8105V21.3167H58.6153C54.7057 21.3167 54.0228 21.4121 53.1802 22.0748ZM70.2461 27.346V33.3752H71.9418H73.6376V27.346V21.3167H71.9418H70.2461V27.346ZM91.7254 27.346V33.3752H93.4211H95.1168V27.346V21.3167H93.4211H91.7254V27.346ZM104.55 21.977C102.713 22.9036 101.774 24.7063 101.776 27.3C101.778 29.8496 102.607 31.6211 104.273 32.6366C105.251 33.2332 106.174 33.3726 109.154 33.3737L112.828 33.3752V32.1106V30.8463L109.942 30.6281C106.456 30.3643 105.497 29.662 105.497 27.3742C105.497 24.9327 106.361 24.3313 109.872 24.3313H112.828V22.824V21.3167L109.342 21.3175C106.774 21.3178 105.513 21.4912 104.55 21.977ZM122.021 21.8552C120.001 22.7347 119.047 24.5152 119.046 27.4112C119.046 29.3638 119.219 30.1586 119.822 30.9677C121.349 33.0146 122.429 33.5305 125.193 33.5305C129.48 33.5305 131.67 31.4836 131.669 27.4775C131.668 23.5927 129.369 21.3066 125.49 21.3313C124.225 21.3397 122.664 21.5752 122.021 21.8552ZM137.321 27.346V33.3752H139.206H141.09V28.8533V24.3313H142.773C144.993 24.3313 145.235 24.8491 145.235 29.5821V33.3752H146.931H148.626V28.8345C148.626 21.8503 148.118 21.3167 141.449 21.3167H137.321V27.346ZM126.908 24.7357C127.741 25.3906 127.901 25.8161 127.901 27.3735C127.901 29.5681 126.994 30.7375 125.29 30.7375C122.83 30.7375 121.653 26.7762 123.55 24.8796C124.68 23.7495 125.604 23.71 126.908 24.7357Z" fill="#303245"/>
</g>
</g>
<defs>
<clipPath id="clip0_6355_2563">
<rect width="251.25" height="50" fill="white"/>
</clipPath>
<clipPath id="clip1_6355_2563">
<rect width="251.25" height="50" fill="white"/>
</clipPath>
</defs>
</svg>
