<svg width="222" height="50" viewBox="0 0 222 50" fill="none" xmlns="http://www.w3.org/2000/svg">
<g clip-path="url(#clip0_6355_2563)">
<path d="M155.119 11.2324C157.905 11.3078 161.28 11.4262 163.316 13.4928C164.52 14.8858 165.174 16.6534 165.161 18.4764C165.196 19.2723 165.061 20.0666 164.763 20.8081C164.465 21.5497 164.013 22.2221 163.433 22.7819C162.609 23.4954 161.669 24.0684 160.653 24.4773C161.901 24.7563 163.059 25.3353 164.021 26.1618C165.294 27.5591 165.973 29.3779 165.921 31.2476C165.944 32.1245 165.785 32.9969 165.455 33.8124C165.125 34.628 164.63 35.3701 164 35.9945C161.798 38.1849 158.901 38.2225 155.741 38.2979H143.039V32.7761L145.511 32.8138V16.7166L143.039 16.7542V11.2324H155.119ZM152.708 22.12C154.943 22.1577 155.256 22.1577 155.806 22.0446C156.429 21.9149 156.984 21.5729 157.371 21.0797C157.759 20.5866 157.954 19.9747 157.921 19.3537C157.951 18.8568 157.841 18.3614 157.601 17.9224C157.361 17.4835 157.001 17.1182 156.561 16.8673C155.934 16.5605 155.543 16.5605 152.756 16.5228L152.708 22.12ZM152.708 32.7761H154.91C156.435 32.7761 158.593 32.7384 158.593 30.1713C158.625 29.6195 158.48 29.0718 158.178 28.6046C157.876 28.1375 157.431 27.7745 156.908 27.5664C156.241 27.2974 155.928 27.2974 152.751 27.2974L152.708 32.7761Z" fill="#303245"/>
<path d="M186.656 31.4728C186.38 32.8937 186.023 34.7719 184.223 36.4564C182.421 38.1409 179.818 38.7599 177.279 38.7599C171.868 38.7599 167.121 36.1928 167.121 28.4482C167.095 27.0992 167.281 25.7543 167.671 24.4603C169.049 19.8964 172.853 18.002 177.031 18.002C180.17 18.002 182.719 19.0783 184.189 20.5314C187.174 23.3677 187.019 27.9692 186.975 29.7344H174.57C174.57 31.2683 174.615 33.9862 177.159 33.9862C179.278 33.9862 179.554 32.2263 179.674 31.4943L186.656 31.4728ZM179.685 25.951C179.715 25.4198 179.648 24.8878 179.488 24.3795C179.318 23.9313 179.005 23.5483 178.595 23.2868C178.186 23.0252 177.701 22.8989 177.214 22.9264C174.856 22.9264 174.78 25.1492 174.78 25.951H179.685Z" fill="#303245"/>
<path d="M207.715 32.7749V38.2966H199.241L199.088 35.9986C198.476 36.8931 197.638 37.6175 196.655 38.1013C195.671 38.5851 194.576 38.8119 193.478 38.7595C189.828 38.7595 187.553 36.6499 187.553 32.8125C187.51 31.7748 187.74 30.7435 188.223 29.818C188.704 28.8925 189.423 28.1036 190.306 27.5275C192.894 25.8 196.913 25.9506 198.895 25.9883C198.946 25.2863 198.921 24.5808 198.818 23.884C198.761 23.4699 198.549 23.0914 198.221 22.8219C197.895 22.5524 197.478 22.4111 197.05 22.4255C196.803 22.4222 196.556 22.4683 196.328 22.5608C196.099 22.6533 195.891 22.7904 195.719 22.9638C195.49 23.2265 195.318 23.5315 195.211 23.8605C195.105 24.1896 195.068 24.5363 195.101 24.8796H188.258C188.258 23.7668 188.498 22.6665 188.963 21.6505C190.416 18.7766 194.105 17.9316 196.93 17.9316C199.594 17.9316 202.655 18.6959 204.34 20.3858C205.871 21.8766 206.025 23.6149 206.025 25.0626V32.7749H207.715ZM198.906 29.4811C198.169 29.3941 197.421 29.4471 196.704 29.6373C196.16 29.779 195.683 30.1004 195.354 30.5466C195.025 30.993 194.864 31.5368 194.898 32.086C194.898 33.4261 195.608 34.158 196.665 34.158C197.019 34.1625 197.368 34.0765 197.676 33.9084C197.986 33.7404 198.245 33.4961 198.428 33.2C198.746 32.6508 198.909 32.0285 198.9 31.3971L198.906 29.4811Z" fill="#303245"/>
<path d="M217.598 12.2285V18.4392H220.853V23.9395H217.598V31.092C217.636 31.8185 217.714 33.3148 219.596 33.3148C219.958 33.3175 220.316 33.2535 220.654 33.1264V38.1854C219.248 38.4771 217.818 38.6446 216.381 38.6859C214.108 38.6859 212.379 38.0669 211.514 37.2274C210.413 36.151 210.38 34.7355 210.38 33.6215V23.9395H208.613V18.4392H210.93V13.7139L217.598 12.2285Z" fill="#303245"/>
<path d="M0.323975 11.2324H12.2109V16.7542L9.77738 16.7166L13.8131 32.2056L18.1681 16.7166L15.7401 16.7542V11.2324H26.6415V16.7542L24.7971 16.7166L17.9314 38.2979H8.99005L2.04728 16.7166L0.323975 16.7542V11.2324Z" fill="#303245"/>
<path d="M43.6601 31.4728C43.3848 32.8937 43.0325 34.7719 41.2321 36.4564C39.4317 38.1409 36.8275 38.7599 34.2893 38.7599C28.8771 38.7599 24.1312 36.1928 24.1312 28.4482C24.103 27.099 24.2887 25.7538 24.6817 24.4603C26.0527 19.8964 29.8572 18.002 34.0416 18.002C37.1798 18.002 39.729 19.0783 41.1991 20.5314C44.1832 23.3677 44.0235 27.9692 43.985 29.7344H31.5805C31.5805 31.2683 31.619 33.9862 34.1682 33.9862C36.288 33.9862 36.5632 32.2263 36.6788 31.4943L43.6601 31.4728ZM36.6788 25.951C36.7075 25.4203 36.6423 24.8887 36.4861 24.3795C36.3158 23.9304 36.0023 23.5467 35.5918 23.285C35.1815 23.0234 34.6958 22.8977 34.2067 22.9264C31.8557 22.9264 31.7787 25.1492 31.7787 25.951H36.6788Z" fill="#303245"/>
<path d="M65.6226 32.776H67.313V38.2978H58.3275V26.6299C58.3516 26.1406 58.2996 25.6508 58.1734 25.1768C58.0359 24.8545 57.7994 24.582 57.4966 24.3969C57.1938 24.2118 56.8396 24.1233 56.4831 24.1434C56.206 24.1435 55.9316 24.1978 55.6764 24.3031C55.421 24.4085 55.1899 24.5629 54.9965 24.7569C54.2918 25.4459 54.2478 26.3231 54.2093 27.4479V32.8298H55.5856V38.2978H45.3064V32.776H46.9582V23.9389H45.3064V18.4386H53.3504L53.5816 21.4686C53.8909 20.8671 54.3024 20.3212 54.7984 19.854C55.4778 19.2093 56.2821 18.7038 57.1644 18.3674C58.0465 18.0309 58.9886 17.8704 59.9353 17.895C62.055 17.895 63.4699 18.6647 64.2133 19.4343C65.5456 20.7367 65.5841 22.3459 65.6226 23.7398V32.776Z" fill="#303245"/>
<path d="M77.036 12.2285V18.4392H80.2899V23.9395H77.036V31.092C77.0745 31.8185 77.1517 33.3148 79.0345 33.3148C79.3978 33.3179 79.7583 33.254 80.0972 33.1264V38.1854C78.6894 38.4771 77.2577 38.6446 75.8192 38.6859C73.5453 38.6859 71.822 38.0669 70.9577 37.2274C69.8564 36.151 69.8179 34.7355 69.8179 33.6215V23.9395H68.0505V18.4392H70.3685V13.7139L77.036 12.2285Z" fill="#303245"/>
<path d="M90.4094 18.4395V30.0589C90.4094 30.8609 90.4866 32.7014 92.3309 32.7014C94.1753 32.7014 94.2524 30.7101 94.2524 29.6769V23.9398L92.7659 23.9774V18.4395H101.575V32.8145L103.26 32.7768V38.2986H94.8967V36.0759C94.2202 37.0466 93.2612 37.7966 92.1437 38.2286C91.1568 38.6098 90.1051 38.8051 89.0439 38.8045C88.2563 38.8423 87.4688 38.726 86.7277 38.4626C85.9865 38.1993 85.3064 37.794 84.7274 37.2706C83.1968 35.8175 83.1198 33.8963 83.0757 32.061V23.9398L81.4241 23.9774V18.4395H90.4094Z" fill="#303245"/>
<path d="M112.961 21.8897C113.275 20.8133 114.018 18.2139 117.916 18.2139C118.566 18.2033 119.214 18.2794 119.843 18.4399V24.8066C119.277 24.6755 118.697 24.6104 118.114 24.6129C116.857 24.5598 115.624 24.9709 114.662 25.7646C113.721 26.6849 113.682 27.7183 113.682 29.532L113.605 32.7611H115.995V38.299H104.84V32.7773H106.525V23.9401H104.84V18.4399H112.724L112.961 21.8897Z" fill="#303245"/>
<path d="M140.881 31.4728C140.611 32.8937 140.259 34.7719 138.452 36.4564C136.647 38.1409 134.049 38.7599 131.51 38.7599C126.097 38.7599 121.352 36.1928 121.352 28.4482C121.324 27.099 121.509 25.7538 121.902 24.4603C123.273 19.8964 127.077 18.002 131.235 18.002C134.372 18.002 136.922 19.0783 138.392 20.5314C141.371 23.3677 141.216 27.9692 141.179 29.7344H128.806C128.806 31.2683 128.845 33.9862 131.389 33.9862C133.509 33.9862 133.784 32.2263 133.905 31.4943L140.881 31.4728ZM133.905 25.951C133.935 25.4198 133.867 24.8878 133.707 24.3795C133.539 23.9303 133.226 23.5463 132.816 23.2845C132.406 23.0228 131.921 22.8972 131.432 22.9264C129.076 22.9264 129 25.1492 129 25.951H133.905Z" fill="#303245"/>
</g>
<defs>
<clipPath id="clip0_6355_2563">
<rect width="221.25" height="50" fill="white"/>
</clipPath>
</defs>
</svg>
