<svg width="85" height="85" viewBox="0 0 85 85" fill="none" xmlns="http://www.w3.org/2000/svg">
<g clip-path="url(#clip0_186_3532)">
<ellipse cx="13.8767" cy="56.8228" rx="13.8767" ry="13.8608" fill="#9D60FB"/>
<ellipse cx="65.6833" cy="25.4052" rx="19.4274" ry="19.4052" fill="#9D60FB"/>
<ellipse cx="68.4582" cy="67.9115" rx="9.25114" ry="9.24056" fill="#9D60FB"/>
<g filter="url(#filter0_bi_186_3532)">
<path d="M63.3242 19.6854C59.4918 19.6854 56.3676 22.8059 56.3676 26.6341C56.3676 28.188 56.8735 29.6156 57.7462 30.7779L48.0201 40.4929C46.5909 39.3685 44.7822 38.6989 42.8344 38.6989C42.1514 38.6989 41.4811 38.7874 40.836 38.939L38.7491 32.1676C41.4178 31.1948 43.3403 28.6302 43.3403 25.6362C43.3403 21.8082 40.2162 18.6875 36.3837 18.6875C32.5511 18.6875 29.4271 21.808 29.4271 25.6362C29.4271 29.4643 32.5511 32.5848 36.3837 32.5848C36.5102 32.5848 36.6366 32.5848 36.7631 32.5722L38.9512 39.6594C36.5734 40.9101 34.8532 43.26 34.4991 46.0394L26.6192 46.6711C25.7718 43.7906 23.103 41.6808 19.941 41.6808C16.1086 41.6808 12.9844 44.8013 12.9844 48.6295C12.9844 52.4577 16.1085 55.5782 19.941 55.5782C23.7607 55.5782 26.8723 52.4829 26.8976 48.6802L34.4738 48.0738C34.9544 52.2555 38.5211 55.5275 42.834 55.5275C44.238 55.5275 45.566 55.1738 46.7296 54.5674L52.0671 62.8173C50.815 64.068 50.0434 65.7988 50.0434 67.7065C50.0434 71.5345 53.1675 74.6551 57 74.6551C60.8326 74.6551 63.9567 71.5346 63.9567 67.7065C63.9567 63.8783 60.8326 60.7578 57 60.7578C55.7985 60.7578 54.6728 61.061 53.6863 61.5916L48.3994 53.4048C50.1448 51.8635 51.2452 49.6148 51.2452 47.1132C51.2452 45.155 50.5748 43.3611 49.4492 41.9334L59.1753 32.2184C60.3389 33.0775 61.7681 33.5955 63.3238 33.5955C67.1562 33.5955 70.2804 30.475 70.2804 26.6468C70.2804 22.8187 67.1564 19.6858 63.3238 19.6858L63.3242 19.6854Z" fill="#B186F4" fill-opacity="0.2"/>
<path d="M56.8676 26.6341C56.8676 23.1056 59.73 20.2229 63.2553 20.1858H63.3238C66.8796 20.1858 69.7804 23.0942 69.7804 26.6468C69.7804 30.1983 66.8806 33.0955 63.3238 33.0955C61.8816 33.0955 60.5553 32.6158 59.4722 31.8162L59.1262 31.5607L58.8219 31.8647L49.0958 41.5797L48.7812 41.8939L49.0565 42.243C50.1153 43.5858 50.7452 45.2716 50.7452 47.1132C50.7452 49.4648 49.7114 51.5791 48.0684 53.03L47.746 53.3147L47.9793 53.676L53.2662 61.8629L53.5166 62.2506L53.9231 62.032C54.8393 61.5392 55.8838 61.2578 57 61.2578C60.557 61.2578 63.4567 64.155 63.4567 67.7065C63.4567 71.2579 60.557 74.1551 57 74.1551C53.4431 74.1551 50.5434 71.2578 50.5434 67.7065C50.5434 65.9362 51.2588 64.3313 52.4205 63.171L52.7066 62.8852L52.4869 62.5457L47.1494 54.2958L46.9022 53.9136L46.4986 54.124C45.4024 54.6952 44.1533 55.0275 42.834 55.0275C38.779 55.0275 35.4225 51.9498 34.9705 48.0167L34.9153 47.5368L34.4339 47.5754L26.8577 48.1818L26.4007 48.2183L26.3976 48.6768C26.3741 52.2044 23.4862 55.0782 19.941 55.0782C16.3841 55.0782 13.4844 52.181 13.4844 48.6295C13.4844 45.078 16.3842 42.1808 19.941 42.1808C22.8752 42.1808 25.353 44.1387 26.1395 46.8122L26.2542 47.202L26.6591 47.1695L34.5391 46.5378L34.9438 46.5054L34.9951 46.1026C35.3278 43.4915 36.9447 41.2798 39.184 40.1019L39.5515 39.9086L39.429 39.5119L37.2409 32.4247L37.1203 32.034L36.7134 32.0747C36.6158 32.0844 36.5143 32.0848 36.3837 32.0848C32.8267 32.0848 29.9271 29.1876 29.9271 25.6362C29.9271 22.0847 32.8267 19.1875 36.3837 19.1875C39.9406 19.1875 42.8403 22.0848 42.8403 25.6362C42.8403 28.4114 41.0575 30.794 38.5778 31.6979L38.1313 31.8607L38.2713 32.3149L40.3582 39.0862L40.4957 39.5326L40.9504 39.4257C41.5627 39.2818 42.1945 39.1989 42.8344 39.1989C44.6663 39.1989 46.3669 39.8285 47.7109 40.8858L48.0596 41.1601L48.3734 40.8466L58.0996 31.1316L58.4067 30.8248L58.146 30.4777C57.3366 29.3996 56.8676 28.0768 56.8676 26.6341Z" stroke="url(#paint0_linear_186_3532)"/>
</g>
</g>
<defs>
<filter id="filter0_bi_186_3532" x="2.98438" y="8.6875" width="77.2969" height="75.9678" filterUnits="userSpaceOnUse" color-interpolation-filters="sRGB">
<feFlood flood-opacity="0" result="BackgroundImageFix"/>
<feGaussianBlur in="BackgroundImageFix" stdDeviation="5"/>
<feComposite in2="SourceAlpha" operator="in" result="effect1_backgroundBlur_186_3532"/>
<feBlend mode="normal" in="SourceGraphic" in2="effect1_backgroundBlur_186_3532" result="shape"/>
<feColorMatrix in="SourceAlpha" type="matrix" values="0 0 0 0 0 0 0 0 0 0 0 0 0 0 0 0 0 0 127 0" result="hardAlpha"/>
<feOffset dx="4" dy="4"/>
<feGaussianBlur stdDeviation="2"/>
<feComposite in2="hardAlpha" operator="arithmetic" k2="-1" k3="1"/>
<feColorMatrix type="matrix" values="0 0 0 0 1 0 0 0 0 1 0 0 0 0 1 0 0 0 0.25 0"/>
<feBlend mode="normal" in2="shape" result="effect2_innerShadow_186_3532"/>
</filter>
<linearGradient id="paint0_linear_186_3532" x1="30.4829" y1="19.0255" x2="68.3812" y2="75.5897" gradientUnits="userSpaceOnUse">
<stop stop-color="white"/>
<stop offset="0.5" stop-color="white" stop-opacity="0"/>
<stop offset="1" stop-color="white"/>
</linearGradient>
<clipPath id="clip0_186_3532">
<rect width="85" height="85" fill="white"/>
</clipPath>
</defs>
</svg>
