<svg width="100" height="100" viewBox="0 0 100 100" fill="none" xmlns="http://www.w3.org/2000/svg">
<ellipse cx="19" cy="62.936" rx="15" ry="14.9828" fill="#9D60FB"/>
<ellipse cx="75" cy="28.976" rx="21" ry="20.976" fill="#9D60FB"/>
<ellipse cx="78" cy="74.9222" rx="10" ry="9.98856" fill="#9D60FB"/>
<g filter="url(#filter0_bi_6383_4732)">
<path d="M72.4499 22.7935C68.3073 22.7935 64.9301 26.1666 64.9301 30.3047C64.9301 31.9844 65.477 33.5275 66.4204 34.7839L55.907 45.2853C54.3621 44.0699 52.407 43.3461 50.3015 43.3461C49.5632 43.3461 48.8386 43.4417 48.1413 43.6056L45.8855 36.2862C48.7702 35.2346 50.8483 32.4624 50.8483 29.226C50.8483 25.0881 47.4714 21.7148 43.3286 21.7148C39.1858 21.7148 35.8088 25.088 35.8088 29.226C35.8088 33.364 39.1858 36.7371 43.3286 36.7371C43.4653 36.7371 43.602 36.7371 43.7387 36.7235L46.104 44.3844C43.5337 45.7363 41.6743 48.2764 41.2915 51.2808L32.7737 51.9637C31.8576 48.85 28.9729 46.5694 25.5549 46.5694C21.4123 46.5694 18.0352 49.9426 18.0352 54.0806C18.0352 58.2186 21.4121 61.5917 25.5549 61.5917C29.6838 61.5917 33.0472 58.246 33.0747 54.1354L41.2641 53.4799C41.7836 58.0001 45.6391 61.537 50.3011 61.537C51.8187 61.537 53.2542 61.1546 54.512 60.4991L60.2816 69.4168C58.928 70.7688 58.0941 72.6397 58.0941 74.7018C58.0941 78.8397 61.471 82.2129 65.6138 82.2129C69.7566 82.2129 73.1336 78.8398 73.1336 74.7018C73.1336 70.5638 69.7566 67.1906 65.6138 67.1906C64.315 67.1906 63.0982 67.5184 62.0318 68.092L56.3169 59.2424C58.2037 57.5764 59.3931 55.1456 59.3931 52.4416C59.3931 50.3248 58.6685 48.3857 57.4517 46.8425L67.9651 36.3411C69.2229 37.2697 70.7678 37.8296 72.4495 37.8296C76.5921 37.8296 79.9692 34.4565 79.9692 30.3185C79.9692 26.1804 76.5923 22.7939 72.4495 22.7939L72.4499 22.7935Z" fill="#B186F4" fill-opacity="0.2"/>
<path d="M65.4301 30.3047C65.4301 26.4682 68.5424 23.3341 72.3752 23.2939H72.4495C76.3155 23.2939 79.4692 26.456 79.4692 30.3185C79.4692 34.1798 76.3165 37.3296 72.4495 37.3296C70.8813 37.3296 69.4393 36.808 68.2621 35.9388L67.9161 35.6834L67.6118 35.9873L57.0983 46.4887L56.7838 46.8029L57.0591 47.1521C58.209 48.6105 58.8931 50.4414 58.8931 52.4416C58.8931 54.9956 57.7703 57.292 55.986 58.8676L55.6636 59.1524L55.8969 59.5137L61.6118 68.3632L61.8621 68.751L62.2686 68.5323C63.2647 67.9966 64.4003 67.6906 65.6138 67.6906C69.481 67.6906 72.6336 70.8404 72.6336 74.7018C72.6336 78.5632 69.481 81.7129 65.6138 81.7129C61.7466 81.7129 58.5941 78.563 58.5941 74.7018C58.5941 72.7771 59.3719 71.0321 60.6349 69.7706L60.921 69.4848L60.7014 69.1452L54.9318 60.2275L54.6846 59.8454L54.281 60.0557C53.0906 60.676 51.734 61.037 50.3011 61.037C45.8969 61.037 42.2518 57.6944 41.7608 53.4228L41.7057 52.9429L41.2242 52.9815L33.0348 53.637L32.5777 53.6735L32.5747 54.132C32.5491 57.9674 29.4093 61.0917 25.5549 61.0917C21.6877 61.0917 18.5352 57.942 18.5352 54.0806C18.5352 50.2192 21.6879 47.0694 25.5549 47.0694C28.7451 47.0694 31.4389 49.198 32.294 52.1048L32.4086 52.4945L32.8136 52.4621L41.3314 51.7792L41.7362 51.7468L41.7875 51.344C42.1488 48.5079 43.9049 46.106 46.3368 44.8269L46.7042 44.6336L46.5817 44.2369L44.2165 36.576L44.0959 36.1853L43.6891 36.226C43.5812 36.2367 43.4694 36.2371 43.3286 36.2371C39.4614 36.2371 36.3088 33.0874 36.3088 29.226C36.3088 25.3646 39.4614 22.2148 43.3286 22.2148C47.1958 22.2148 50.3483 25.3648 50.3483 29.226C50.3483 32.2436 48.4099 34.8338 45.7142 35.8164L45.2676 35.9792L45.4076 36.4334L47.6635 43.7529L47.8011 44.1992L48.2557 44.0924C48.9202 43.9362 49.6063 43.8461 50.3015 43.8461C52.2911 43.8461 54.138 44.5299 55.5978 45.6783L55.9464 45.9526L56.2603 45.6391L66.7737 35.1377L67.0809 34.8309L66.8202 34.4837C65.9401 33.3115 65.4301 31.8732 65.4301 30.3047Z" stroke="url(#paint0_linear_6383_4732)"/>
</g>
<defs>
<filter id="filter0_bi_6383_4732" x="8.03516" y="11.7148" width="81.9341" height="80.5" filterUnits="userSpaceOnUse" color-interpolation-filters="sRGB">
<feFlood flood-opacity="0" result="BackgroundImageFix"/>
<feGaussianBlur in="BackgroundImageFix" stdDeviation="5"/>
<feComposite in2="SourceAlpha" operator="in" result="effect1_backgroundBlur_6383_4732"/>
<feBlend mode="normal" in="SourceGraphic" in2="effect1_backgroundBlur_6383_4732" result="shape"/>
<feColorMatrix in="SourceAlpha" type="matrix" values="0 0 0 0 0 0 0 0 0 0 0 0 0 0 0 0 0 0 127 0" result="hardAlpha"/>
<feOffset dx="4" dy="4"/>
<feGaussianBlur stdDeviation="2"/>
<feComposite in2="hardAlpha" operator="arithmetic" k2="-1" k3="1"/>
<feColorMatrix type="matrix" values="0 0 0 0 1 0 0 0 0 1 0 0 0 0 1 0 0 0 0.25 0"/>
<feBlend mode="normal" in2="shape" result="effect2_innerShadow_6383_4732"/>
</filter>
<linearGradient id="paint0_linear_6383_4732" x1="36.9501" y1="22.0802" x2="77.9163" y2="83.2232" gradientUnits="userSpaceOnUse">
<stop stop-color="white"/>
<stop offset="0.5" stop-color="white" stop-opacity="0"/>
<stop offset="1" stop-color="white"/>
</linearGradient>
</defs>
</svg>
