<svg width="100" height="100" viewBox="0 0 100 100" fill="none" xmlns="http://www.w3.org/2000/svg">
<path d="M58.4182 41.1535L34.3659 75.3074C30.9022 80.2258 34.4257 87 40.4477 87H88.5523C94.5743 87 98.0978 80.2258 94.6341 75.3074L70.5818 41.1535C67.6208 36.9488 61.3792 36.9488 58.4182 41.1535Z" fill="url(#paint0_linear_6484_7397)"/>
<g filter="url(#filter0_bi_6484_7397)">
<path d="M39 16C30.7783 16 22.8934 19.2661 17.0794 25.0794C11.2658 30.8929 8 38.7783 8 47C8 55.2217 11.2661 63.1066 17.0794 68.9206C22.8929 74.7341 30.7783 78 39 78C47.2217 78 55.1066 74.7339 60.9206 68.9206C66.7341 63.1071 70 55.2217 70 47C70 38.7783 66.7339 30.8934 60.9206 25.0794C55.1071 19.2658 47.2217 16 39 16V16ZM29.5915 57.4563L26.4919 60.5559L12.9366 47.0001L26.4924 33.4443L29.592 36.5439L19.1357 47.0002L29.5915 57.4563ZM36.4089 64.2825L32.1914 63.0899L41.5953 29.7226L45.8128 30.9062L36.4089 64.2825ZM51.5121 60.556L48.4125 57.4565L58.8554 47.0002L48.4125 36.5439L51.5121 33.4443L65.0679 47L51.5121 60.556Z" fill="#B186F4" fill-opacity="0.2"/>
<path d="M17.4329 25.4329C23.1532 19.7134 30.9109 16.5 39 16.5C47.0891 16.5 54.8473 19.7132 60.5671 25.4329C66.2866 31.1532 69.5 38.9109 69.5 47C69.5 55.0891 66.2868 62.8473 60.5671 68.567C54.8468 74.2866 47.0891 77.5 39 77.5C30.9109 77.5 23.1527 74.2868 17.433 68.5671C11.7134 62.8468 8.5 55.0891 8.5 47C8.5 38.9109 11.7132 31.1527 17.4329 25.4329ZM29.9451 57.8099L30.2986 57.4563L29.9451 57.1027L19.8428 47.0002L29.9456 36.8975L30.2991 36.5439L29.9456 36.1904L26.846 33.0908L26.4924 32.7372L26.1389 33.0908L12.5831 46.6465L12.2295 47.0001L12.5831 47.3536L26.1384 60.9094L26.4919 61.263L26.8455 60.9094L29.9451 57.8099ZM36.2729 64.7636L36.7545 64.8998L36.8902 64.4181L46.294 31.0418L46.4298 30.5601L45.9479 30.4248L41.7304 29.2412L41.2495 29.1062L41.114 29.5869L31.7102 62.9543L31.5747 63.4351L32.0554 63.5711L36.2729 64.7636ZM51.1586 60.9096L51.5121 61.2632L51.8657 60.9096L65.4215 47.3536L65.775 47L65.4215 46.6465L51.8657 33.0907L51.5121 32.7372L51.1586 33.0907L48.059 36.1903L47.7057 36.5436L48.0588 36.8972L58.1487 47.0002L48.0588 57.1031L47.7057 57.4567L48.059 57.81L51.1586 60.9096Z" stroke="url(#paint1_linear_6484_7397)"/>
</g>
<defs>
<filter id="filter0_bi_6484_7397" x="-2" y="6" width="82" height="82" filterUnits="userSpaceOnUse" color-interpolation-filters="sRGB">
<feFlood flood-opacity="0" result="BackgroundImageFix"/>
<feGaussianBlur in="BackgroundImageFix" stdDeviation="5"/>
<feComposite in2="SourceAlpha" operator="in" result="effect1_backgroundBlur_6484_7397"/>
<feBlend mode="normal" in="SourceGraphic" in2="effect1_backgroundBlur_6484_7397" result="shape"/>
<feColorMatrix in="SourceAlpha" type="matrix" values="0 0 0 0 0 0 0 0 0 0 0 0 0 0 0 0 0 0 127 0" result="hardAlpha"/>
<feOffset dx="4" dy="4"/>
<feGaussianBlur stdDeviation="2"/>
<feComposite in2="hardAlpha" operator="arithmetic" k2="-1" k3="1"/>
<feColorMatrix type="matrix" values="0 0 0 0 1 0 0 0 0 1 0 0 0 0 1 0 0 0 0.25 0"/>
<feBlend mode="normal" in2="shape" result="effect2_innerShadow_6484_7397"/>
</filter>
<linearGradient id="paint0_linear_6484_7397" x1="102.868" y1="86.9998" x2="26.1311" y2="86.9998" gradientUnits="userSpaceOnUse">
<stop stop-color="#C29BFF"/>
<stop offset="1" stop-color="#7B45CF"/>
</linearGradient>
<linearGradient id="paint1_linear_6484_7397" x1="26.9351" y1="16.3744" x2="69.2845" y2="78.1164" gradientUnits="userSpaceOnUse">
<stop stop-color="white"/>
<stop offset="0.5" stop-color="white" stop-opacity="0"/>
<stop offset="1" stop-color="white"/>
</linearGradient>
</defs>
</svg>
