<svg width="570" height="370" viewBox="0 0 570 370" fill="none" xmlns="http://www.w3.org/2000/svg">
<g clip-path="url(#clip0_6513_6296)">
<rect width="570" height="370" fill="#FAFBFC"/>
<line x1="54" y1="292.5" x2="518" y2="292.5" stroke="#DFDFE7" stroke-width="5"/>
<line x1="54" y1="255.441" x2="518" y2="255.441" stroke="#DFDFE7"/>
<line x1="54" y1="216.383" x2="518" y2="216.383" stroke="#DFDFE7"/>
<line x1="54" y1="177.324" x2="518" y2="177.324" stroke="#DFDFE7"/>
<line x1="54" y1="138.266" x2="518" y2="138.266" stroke="#DFDFE7"/>
<line x1="54" y1="99.207" x2="518" y2="99.207" stroke="#DFDFE7"/>
<line x1="54" y1="60.1484" x2="518" y2="60.1484" stroke="#DFDFE7"/>
<path d="M53.5 175.941L123.5 185.441L151.5 162.441L216.5 195.441L260.5 185.441L306 258.941H445L513.5 264.941" stroke="url(#paint0_linear_6513_6296)" stroke-width="2"/>
<path d="M54.432 308.8V307.252H57.324V316H55.596V308.8H54.432ZM59.5117 314.104C60.2797 313.464 60.8917 312.932 61.3477 312.508C61.8037 312.076 62.1837 311.628 62.4877 311.164C62.7917 310.7 62.9437 310.244 62.9437 309.796C62.9437 309.388 62.8477 309.068 62.6557 308.836C62.4637 308.604 62.1677 308.488 61.7677 308.488C61.3677 308.488 61.0597 308.624 60.8437 308.896C60.6277 309.16 60.5157 309.524 60.5077 309.988H58.8757C58.9077 309.028 59.1917 308.3 59.7277 307.804C60.2717 307.308 60.9597 307.06 61.7917 307.06C62.7037 307.06 63.4037 307.304 63.8917 307.792C64.3797 308.272 64.6237 308.908 64.6237 309.7C64.6237 310.324 64.4557 310.92 64.1197 311.488C63.7837 312.056 63.3997 312.552 62.9677 312.976C62.5357 313.392 61.9717 313.896 61.2757 314.488H64.8157V315.88H58.8877V314.632L59.5117 314.104ZM75.0337 310.216C75.0337 310.664 74.9257 311.084 74.7097 311.476C74.5017 311.868 74.1697 312.184 73.7137 312.424C73.2657 312.664 72.6977 312.784 72.0097 312.784H70.6057V316H68.9257V307.624H72.0097C72.6577 307.624 73.2097 307.736 73.6657 307.96C74.1217 308.184 74.4617 308.492 74.6857 308.884C74.9177 309.276 75.0337 309.72 75.0337 310.216ZM71.9377 311.428C72.4017 311.428 72.7457 311.324 72.9697 311.116C73.1937 310.9 73.3057 310.6 73.3057 310.216C73.3057 309.4 72.8497 308.992 71.9377 308.992H70.6057V311.428H71.9377ZM85.3584 307.624V316H83.6784V310.552L81.4344 316H80.1624L77.9064 310.552V316H76.2264V307.624H78.1344L80.7984 313.852L83.4624 307.624H85.3584Z" fill="#303245"/>
<path d="M167.182 308.8V307.252H170.074V316H168.346V308.8H167.182ZM180.893 310.216C180.893 310.664 180.785 311.084 180.569 311.476C180.361 311.868 180.029 312.184 179.573 312.424C179.125 312.664 178.557 312.784 177.869 312.784H176.465V316H174.785V307.624H177.869C178.517 307.624 179.069 307.736 179.525 307.96C179.981 308.184 180.321 308.492 180.545 308.884C180.777 309.276 180.893 309.72 180.893 310.216ZM177.797 311.428C178.261 311.428 178.605 311.324 178.829 311.116C179.053 310.9 179.165 310.6 179.165 310.216C179.165 309.4 178.709 308.992 177.797 308.992H176.465V311.428H177.797ZM191.218 307.624V316H189.538V310.552L187.294 316H186.022L183.766 310.552V316H182.086V307.624H183.994L186.658 313.852L189.322 307.624H191.218Z" fill="#303245"/>
<path d="M273.664 314.104C274.432 313.464 275.044 312.932 275.5 312.508C275.956 312.076 276.336 311.628 276.64 311.164C276.944 310.7 277.096 310.244 277.096 309.796C277.096 309.388 277 309.068 276.808 308.836C276.616 308.604 276.32 308.488 275.92 308.488C275.52 308.488 275.212 308.624 274.996 308.896C274.78 309.16 274.668 309.524 274.66 309.988H273.028C273.06 309.028 273.344 308.3 273.88 307.804C274.424 307.308 275.112 307.06 275.944 307.06C276.856 307.06 277.556 307.304 278.044 307.792C278.532 308.272 278.776 308.908 278.776 309.7C278.776 310.324 278.608 310.92 278.272 311.488C277.936 312.056 277.552 312.552 277.12 312.976C276.688 313.392 276.124 313.896 275.428 314.488H278.968V315.88H273.04V314.632L273.664 314.104ZM289.186 310.216C289.186 310.664 289.078 311.084 288.862 311.476C288.654 311.868 288.322 312.184 287.866 312.424C287.418 312.664 286.85 312.784 286.162 312.784H284.758V316H283.078V307.624H286.162C286.81 307.624 287.362 307.736 287.818 307.96C288.274 308.184 288.614 308.492 288.838 308.884C289.07 309.276 289.186 309.72 289.186 310.216ZM286.09 311.428C286.554 311.428 286.898 311.324 287.122 311.116C287.346 310.9 287.458 310.6 287.458 310.216C287.458 309.4 287.002 308.992 286.09 308.992H284.758V311.428H286.09ZM299.511 307.624V316H297.831V310.552L295.587 316H294.315L292.059 310.552V316H290.379V307.624H292.287L294.951 313.852L297.615 307.624H299.511Z" fill="#303245"/>
<path d="M380.91 309.556C380.95 308.756 381.23 308.14 381.75 307.708C382.278 307.268 382.97 307.048 383.826 307.048C384.41 307.048 384.91 307.152 385.326 307.36C385.742 307.56 386.054 307.836 386.262 308.188C386.478 308.532 386.586 308.924 386.586 309.364C386.586 309.868 386.454 310.296 386.19 310.648C385.934 310.992 385.626 311.224 385.266 311.344V311.392C385.73 311.536 386.09 311.792 386.346 312.16C386.61 312.528 386.742 313 386.742 313.576C386.742 314.056 386.63 314.484 386.406 314.86C386.19 315.236 385.866 315.532 385.434 315.748C385.01 315.956 384.498 316.06 383.898 316.06C382.994 316.06 382.258 315.832 381.69 315.376C381.122 314.92 380.822 314.248 380.79 313.36H382.422C382.438 313.752 382.57 314.068 382.818 314.308C383.074 314.54 383.422 314.656 383.862 314.656C384.27 314.656 384.582 314.544 384.798 314.32C385.022 314.088 385.134 313.792 385.134 313.432C385.134 312.952 384.982 312.608 384.678 312.4C384.374 312.192 383.902 312.088 383.262 312.088H382.914V310.708H383.262C384.398 310.708 384.966 310.328 384.966 309.568C384.966 309.224 384.862 308.956 384.654 308.764C384.454 308.572 384.162 308.476 383.778 308.476C383.402 308.476 383.11 308.58 382.902 308.788C382.702 308.988 382.586 309.244 382.554 309.556H380.91ZM397.229 310.216C397.229 310.664 397.121 311.084 396.905 311.476C396.697 311.868 396.365 312.184 395.909 312.424C395.461 312.664 394.893 312.784 394.205 312.784H392.801V316H391.121V307.624H394.205C394.853 307.624 395.405 307.736 395.861 307.96C396.317 308.184 396.657 308.492 396.881 308.884C397.113 309.276 397.229 309.72 397.229 310.216ZM394.133 311.428C394.597 311.428 394.941 311.324 395.165 311.116C395.389 310.9 395.501 310.6 395.501 310.216C395.501 309.4 395.045 308.992 394.133 308.992H392.801V311.428H394.133ZM407.554 307.624V316H405.874V310.552L403.63 316H402.358L400.102 310.552V316H398.422V307.624H400.33L402.994 313.852L405.658 307.624H407.554Z" fill="#303245"/>
<path d="M489.564 314.296V312.976L493.488 307.36H495.444V312.832H496.5V314.296H495.444V316H493.764V314.296H489.564ZM493.872 309.16L491.412 312.832H493.872V309.16ZM506.729 310.216C506.729 310.664 506.621 311.084 506.405 311.476C506.197 311.868 505.865 312.184 505.409 312.424C504.961 312.664 504.393 312.784 503.705 312.784H502.301V316H500.621V307.624H503.705C504.353 307.624 504.905 307.736 505.361 307.96C505.817 308.184 506.157 308.492 506.381 308.884C506.613 309.276 506.729 309.72 506.729 310.216ZM503.633 311.428C504.097 311.428 504.441 311.324 504.665 311.116C504.889 310.9 505.001 310.6 505.001 310.216C505.001 309.4 504.545 308.992 503.633 308.992H502.301V311.428H503.633ZM517.054 307.624V316H515.374V310.552L513.13 316H511.858L509.602 310.552V316H507.922V307.624H509.83L512.494 313.852L515.158 307.624H517.054Z" fill="#303245"/>
<line x1="284" y1="289.941" x2="284" y2="184.941" stroke="#DFDFE7" stroke-width="2" stroke-dasharray="5 5"/>
<path fill-rule="evenodd" clip-rule="evenodd" d="M280.863 161.578C282.24 159.13 285.763 159.13 287.139 161.578L297.183 179.434C298.533 181.834 296.799 184.798 294.048 184.798H273.955C271.201 184.798 269.467 181.836 270.817 179.434L280.863 161.578ZM285.801 179.4C285.801 179.877 285.611 180.335 285.274 180.672C284.936 181.01 284.478 181.2 284.001 181.2C283.523 181.2 283.066 181.01 282.728 180.672C282.39 180.335 282.201 179.877 282.201 179.4C282.201 178.922 282.39 178.464 282.728 178.127C283.066 177.789 283.523 177.6 284.001 177.6C284.478 177.6 284.936 177.789 285.274 178.127C285.611 178.464 285.801 178.922 285.801 179.4ZM284.001 165C283.523 165 283.066 165.189 282.728 165.527C282.39 165.864 282.201 166.322 282.201 166.8V172.2C282.201 172.677 282.39 173.135 282.728 173.472C283.066 173.81 283.523 174 284.001 174C284.478 174 284.936 173.81 285.274 173.472C285.611 173.135 285.801 172.677 285.801 172.2V166.8C285.801 166.322 285.611 165.864 285.274 165.527C284.936 165.189 284.478 165 284.001 165Z" fill="#ED484A"/>
<path d="M253.31 116.959C250.306 117.307 247.564 118.833 245.686 121.203C243.808 123.573 242.948 126.591 243.296 129.594L244.079 136.362L242.9 137.852C242.667 138.147 242.526 138.503 242.496 138.878C242.466 139.252 242.547 139.627 242.73 139.955C242.912 140.283 243.188 140.55 243.522 140.722C243.856 140.893 244.233 140.962 244.607 140.919L267.255 138.298C267.628 138.253 267.979 138.1 268.265 137.857C268.55 137.613 268.757 137.291 268.86 136.93C268.963 136.569 268.957 136.186 268.842 135.829C268.727 135.471 268.51 135.156 268.216 134.922L266.728 133.741L265.945 126.973C265.597 123.97 264.071 121.228 261.701 119.35C259.332 117.472 256.313 116.612 253.31 116.959ZM256.805 147.158C255.303 147.332 253.794 146.902 252.609 145.963C251.424 145.024 250.661 143.653 250.487 142.151L261.812 140.84C261.985 142.342 261.556 143.851 260.617 145.036C259.678 146.221 258.306 146.984 256.805 147.158Z" fill="#9D60FB"/>
<g clip-path="url(#clip1_6513_6296)">
<path d="M325.935 124.817C322.438 123.318 318.488 123.269 314.955 124.682C311.422 126.095 308.595 128.853 307.096 132.351L303.717 140.232L301.498 141.121C301.059 141.297 300.682 141.599 300.415 141.988C300.147 142.378 300.002 142.838 299.996 143.311C299.99 143.784 300.124 144.247 300.382 144.644C300.639 145.04 301.009 145.351 301.443 145.538L327.816 156.844C328.251 157.028 328.731 157.081 329.195 156.993C329.659 156.906 330.087 156.684 330.425 156.354C330.763 156.024 330.995 155.602 331.094 155.14C331.192 154.678 331.152 154.197 330.978 153.758L330.091 151.538L333.469 143.657C334.969 140.159 335.017 136.21 333.604 132.676C332.191 129.143 329.433 126.316 325.935 124.817ZM310.861 159.982C309.112 159.232 307.733 157.819 307.027 156.052C306.32 154.286 306.344 152.311 307.094 150.562L320.281 156.215C319.531 157.964 318.118 159.343 316.351 160.049C314.585 160.756 312.61 160.732 310.861 159.982Z" fill="#9D60FB"/>
</g>
<path d="M284.127 100.417C282.044 99.9712 279.87 100.371 278.082 101.529C276.295 102.686 275.04 104.507 274.594 106.589L273.59 111.282L272.467 112.01C272.245 112.154 272.071 112.36 271.966 112.603C271.862 112.846 271.831 113.115 271.879 113.375C271.927 113.635 272.051 113.875 272.235 114.065C272.419 114.255 272.656 114.386 272.914 114.441L288.619 117.802C288.878 117.856 289.147 117.833 289.392 117.735C289.637 117.637 289.848 117.469 289.998 117.251C290.148 117.033 290.231 116.776 290.235 116.512C290.239 116.248 290.165 115.988 290.022 115.766L289.295 114.642L290.299 109.949C290.745 107.867 290.345 105.692 289.187 103.905C288.03 102.117 286.209 100.862 284.127 100.417ZM279.647 121.356C278.605 121.134 277.695 120.506 277.116 119.612C276.538 118.719 276.338 117.631 276.56 116.59L284.413 118.27C284.19 119.312 283.563 120.222 282.669 120.8C281.775 121.379 280.688 121.579 279.647 121.356Z" fill="#9D60FB"/>
</g>
<defs>
<linearGradient id="paint0_linear_6513_6296" x1="514" y1="264.941" x2="54" y2="176.941" gradientUnits="userSpaceOnUse">
<stop stop-color="#9D60FB"/>
<stop offset="0.36532" stop-color="#9D60FB" stop-opacity="0.76"/>
<stop offset="1" stop-color="#9D60FB" stop-opacity="0.25"/>
</linearGradient>
<clipPath id="clip0_6513_6296">
<rect width="570" height="370" fill="white"/>
</clipPath>
<clipPath id="clip1_6513_6296">
<rect width="47.8248" height="47.8248" fill="white" transform="translate(305.843 111) rotate(23.2038)"/>
</clipPath>
</defs>
</svg>
