<svg width="100" height="100" viewBox="0 0 100 100" fill="none" xmlns="http://www.w3.org/2000/svg">
<circle cx="40" cy="32" r="11" fill="#9D60FB"/>
<ellipse cx="68.5" cy="76" rx="15.5" ry="15" fill="#9D60FB"/>
<circle cx="21" cy="59" r="19" fill="#9D60FB"/>
<g filter="url(#filter0_bi_6383_4765)">
<path d="M29.6132 53.1016H44.3065C45.4658 53.1016 46.4056 54.2609 46.4056 55.2006V59.3987C46.4056 60.558 45.4658 61.4978 44.3065 61.4978H29.6132C28.4539 61.4978 27.5142 60.3385 27.5142 59.3987V55.2006C27.5142 54.0413 28.4539 53.1016 29.6132 53.1016Z" fill="#B186F4" fill-opacity="0.2"/>
<path d="M29.6132 53.6016H44.3065C44.7155 53.6016 45.1156 53.8078 45.4251 54.1397C45.7392 54.4765 45.9056 54.8846 45.9056 55.2006V59.3987C45.9056 60.2819 45.1897 60.9978 44.3065 60.9978H29.6132C29.2042 60.9978 28.8042 60.7915 28.4946 60.4596C28.1805 60.1228 28.0142 59.7147 28.0142 59.3987V55.2006C28.0142 54.3175 28.7301 53.6016 29.6132 53.6016Z" stroke="url(#paint0_linear_6383_4765)"/>
</g>
<g filter="url(#filter1_bi_6383_4765)">
<path d="M29.6132 63.5977H44.3065C45.4658 63.5977 46.4056 64.7569 46.4056 65.6967V69.8948C46.4056 71.0541 45.4658 71.9938 44.3065 71.9938H29.6132C28.4539 71.9938 27.5142 70.8346 27.5142 69.8948V65.6967C27.5142 64.5374 28.4539 63.5977 29.6132 63.5977Z" fill="#B186F4" fill-opacity="0.2"/>
<path d="M29.6132 64.0977H44.3065C44.7155 64.0977 45.1156 64.3039 45.4251 64.6358C45.7392 64.9726 45.9056 65.3807 45.9056 65.6967V69.8948C45.9056 70.7779 45.1897 71.4938 44.3065 71.4938H29.6132C29.2042 71.4938 28.8042 71.2876 28.4946 70.9557C28.1805 70.6189 28.0142 70.2108 28.0142 69.8948V65.6967C28.0142 64.8136 28.7301 64.0977 29.6132 64.0977Z" stroke="url(#paint1_linear_6383_4765)"/>
</g>
<g filter="url(#filter2_bi_6383_4765)">
<path d="M29.6132 74.0898H44.3065C45.4658 74.0898 46.4056 75.2491 46.4056 76.1889V80.387C46.4056 81.5463 45.4658 82.486 44.3065 82.486H29.6132C28.4539 82.486 27.5142 81.3267 27.5142 80.387V76.1889C27.5142 75.0296 28.4539 74.0898 29.6132 74.0898Z" fill="#B186F4" fill-opacity="0.2"/>
<path d="M29.6132 74.5898H44.3065C44.7155 74.5898 45.1156 74.7961 45.4251 75.128C45.7392 75.4648 45.9056 75.8729 45.9056 76.1889V80.387C45.9056 81.2701 45.1897 81.986 44.3065 81.986H29.6132C29.2042 81.986 28.8042 81.7798 28.4946 81.4479C28.1805 81.1111 28.0142 80.703 28.0142 80.387V76.1889C28.0142 75.3057 28.7301 74.5898 29.6132 74.5898Z" stroke="url(#paint2_linear_6383_4765)"/>
</g>
<g filter="url(#filter3_bi_6383_4765)">
<path d="M88.3866 19.5156H36.9599C36.4036 19.5172 35.8708 19.7389 35.4775 20.1322C35.0841 20.5256 34.8624 21.0585 34.8608 21.6147V46.0013C34.8608 48.7628 37.0994 51.0013 39.8608 51.0013H44.3066C45.4202 51.0011 46.4881 51.4432 47.2754 52.2306C48.0627 53.0179 48.5049 54.0859 48.5047 55.1994V59.3975C48.5057 61.2845 48.5057 63.8077 48.5047 65.6947V69.8928C48.505 70.5955 48.3286 71.2784 48.0018 71.8831C47.6267 72.5771 47.6262 73.5051 48.0004 74.1995C48.2828 74.7237 48.7846 75.1404 49.38 75.1404H88.3867C88.9429 75.1389 89.4758 74.9172 89.8691 74.5238C90.2624 74.1304 90.4842 73.5976 90.4857 73.0414V21.6147C90.4842 21.0584 90.2625 20.5256 89.8691 20.1322C89.4757 19.7389 88.9428 19.5172 88.3866 19.5156Z" fill="#B186F4" fill-opacity="0.2"/>
<path d="M36.9606 20.0156C36.5368 20.017 36.1308 20.1859 35.831 20.4858C35.5312 20.7856 35.3622 21.1916 35.3608 21.6154V46.0013C35.3608 48.4866 37.3756 50.5013 39.8608 50.5013H44.3065C44.3065 50.5013 44.3065 50.5013 44.3066 50.5013C45.5527 50.5011 46.7478 50.9959 47.629 51.8771C48.5101 52.7582 49.0049 53.9533 49.0047 55.1994C49.0047 55.1995 49.0047 55.1995 49.0047 55.1995V59.3973C49.0057 61.2844 49.0057 63.8078 49.0047 65.695V69.8925V69.8928L36.9606 20.0156ZM36.9606 20.0156H88.3858H36.9606Z" stroke="url(#paint3_linear_6383_4765)"/>
</g>
<path d="M53.9569 54.628C53.5627 55.0148 53.5566 55.648 53.9434 56.0422C54.3302 56.4364 54.9633 56.4424 55.3576 56.0557L53.9569 54.628ZM83.4287 27.1133L72.2472 29.9955L80.334 38.2379L83.4287 27.1133ZM55.3576 56.0557L77.7047 34.1302L76.304 32.7025L53.9569 54.628L55.3576 56.0557Z" fill="#9E6FE7"/>
<defs>
<filter id="filter0_bi_6383_4765" x="17.5142" y="43.1016" width="38.8916" height="28.3945" filterUnits="userSpaceOnUse" color-interpolation-filters="sRGB">
<feFlood flood-opacity="0" result="BackgroundImageFix"/>
<feGaussianBlur in="BackgroundImageFix" stdDeviation="5"/>
<feComposite in2="SourceAlpha" operator="in" result="effect1_backgroundBlur_6383_4765"/>
<feBlend mode="normal" in="SourceGraphic" in2="effect1_backgroundBlur_6383_4765" result="shape"/>
<feColorMatrix in="SourceAlpha" type="matrix" values="0 0 0 0 0 0 0 0 0 0 0 0 0 0 0 0 0 0 127 0" result="hardAlpha"/>
<feOffset dx="4" dy="4"/>
<feGaussianBlur stdDeviation="2"/>
<feComposite in2="hardAlpha" operator="arithmetic" k2="-1" k3="1"/>
<feColorMatrix type="matrix" values="0 0 0 0 1 0 0 0 0 1 0 0 0 0 1 0 0 0 0.25 0"/>
<feBlend mode="normal" in2="shape" result="effect2_innerShadow_6383_4765"/>
</filter>
<filter id="filter1_bi_6383_4765" x="17.5142" y="53.5977" width="38.8916" height="28.3945" filterUnits="userSpaceOnUse" color-interpolation-filters="sRGB">
<feFlood flood-opacity="0" result="BackgroundImageFix"/>
<feGaussianBlur in="BackgroundImageFix" stdDeviation="5"/>
<feComposite in2="SourceAlpha" operator="in" result="effect1_backgroundBlur_6383_4765"/>
<feBlend mode="normal" in="SourceGraphic" in2="effect1_backgroundBlur_6383_4765" result="shape"/>
<feColorMatrix in="SourceAlpha" type="matrix" values="0 0 0 0 0 0 0 0 0 0 0 0 0 0 0 0 0 0 127 0" result="hardAlpha"/>
<feOffset dx="4" dy="4"/>
<feGaussianBlur stdDeviation="2"/>
<feComposite in2="hardAlpha" operator="arithmetic" k2="-1" k3="1"/>
<feColorMatrix type="matrix" values="0 0 0 0 1 0 0 0 0 1 0 0 0 0 1 0 0 0 0.25 0"/>
<feBlend mode="normal" in2="shape" result="effect2_innerShadow_6383_4765"/>
</filter>
<filter id="filter2_bi_6383_4765" x="17.5142" y="64.0898" width="38.8916" height="28.3945" filterUnits="userSpaceOnUse" color-interpolation-filters="sRGB">
<feFlood flood-opacity="0" result="BackgroundImageFix"/>
<feGaussianBlur in="BackgroundImageFix" stdDeviation="5"/>
<feComposite in2="SourceAlpha" operator="in" result="effect1_backgroundBlur_6383_4765"/>
<feBlend mode="normal" in="SourceGraphic" in2="effect1_backgroundBlur_6383_4765" result="shape"/>
<feColorMatrix in="SourceAlpha" type="matrix" values="0 0 0 0 0 0 0 0 0 0 0 0 0 0 0 0 0 0 127 0" result="hardAlpha"/>
<feOffset dx="4" dy="4"/>
<feGaussianBlur stdDeviation="2"/>
<feComposite in2="hardAlpha" operator="arithmetic" k2="-1" k3="1"/>
<feColorMatrix type="matrix" values="0 0 0 0 1 0 0 0 0 1 0 0 0 0 1 0 0 0 0.25 0"/>
<feBlend mode="normal" in2="shape" result="effect2_innerShadow_6383_4765"/>
</filter>
<filter id="filter3_bi_6383_4765" x="24.8608" y="9.51562" width="75.625" height="75.625" filterUnits="userSpaceOnUse" color-interpolation-filters="sRGB">
<feFlood flood-opacity="0" result="BackgroundImageFix"/>
<feGaussianBlur in="BackgroundImageFix" stdDeviation="5"/>
<feComposite in2="SourceAlpha" operator="in" result="effect1_backgroundBlur_6383_4765"/>
<feBlend mode="normal" in="SourceGraphic" in2="effect1_backgroundBlur_6383_4765" result="shape"/>
<feColorMatrix in="SourceAlpha" type="matrix" values="0 0 0 0 0 0 0 0 0 0 0 0 0 0 0 0 0 0 127 0" result="hardAlpha"/>
<feOffset dx="4" dy="4"/>
<feGaussianBlur stdDeviation="2"/>
<feComposite in2="hardAlpha" operator="arithmetic" k2="-1" k3="1"/>
<feColorMatrix type="matrix" values="0 0 0 0 1 0 0 0 0 1 0 0 0 0 1 0 0 0 0.25 0"/>
<feBlend mode="normal" in2="shape" result="effect2_innerShadow_6383_4765"/>
</filter>
<linearGradient id="paint0_linear_6383_4765" x1="33.2837" y1="53.1523" x2="36.7131" y2="64.4018" gradientUnits="userSpaceOnUse">
<stop stop-color="white"/>
<stop offset="0.5" stop-color="white" stop-opacity="0"/>
<stop offset="1" stop-color="white"/>
</linearGradient>
<linearGradient id="paint1_linear_6383_4765" x1="33.2837" y1="63.6484" x2="36.7131" y2="74.8979" gradientUnits="userSpaceOnUse">
<stop stop-color="white"/>
<stop offset="0.5" stop-color="white" stop-opacity="0"/>
<stop offset="1" stop-color="white"/>
</linearGradient>
<linearGradient id="paint2_linear_6383_4765" x1="33.2837" y1="74.1405" x2="36.7131" y2="85.3901" gradientUnits="userSpaceOnUse">
<stop stop-color="white"/>
<stop offset="0.5" stop-color="white" stop-opacity="0"/>
<stop offset="1" stop-color="white"/>
</linearGradient>
<linearGradient id="paint3_linear_6383_4765" x1="51.849" y1="19.8515" x2="89.8437" y2="75.2449" gradientUnits="userSpaceOnUse">
<stop stop-color="white"/>
<stop offset="0.5" stop-color="white" stop-opacity="0"/>
<stop offset="1" stop-color="white"/>
</linearGradient>
</defs>
</svg>