<svg width="111" height="100" viewBox="0 0 111 100" fill="none" xmlns="http://www.w3.org/2000/svg">
<path d="M72.4934 43.1535L48.4411 77.3074C44.9774 82.2258 48.5009 89 54.5229 89H102.627C108.649 89 112.173 82.2258 108.709 77.3074L84.657 43.1535C81.696 38.9488 75.4544 38.9488 72.4934 43.1535Z" fill="#9D60FB"/>
<path d="M33.9886 29.7772L43.5332 16.5339C44.9077 14.6267 43.5094 12 41.1197 12L22.0306 12C19.641 12 18.2427 14.6267 19.6172 16.5339L29.1618 29.7772C30.3368 31.4076 32.8136 31.4076 33.9886 29.7772Z" fill="#9D60FB"/>
<g filter="url(#filter0_bi_6383_4756)">
<path d="M68.695 38.25H68.1349V31.88C68.1351 21.87 60.0149 13.75 50.0749 13.75C40.1349 13.75 32.0149 21.87 32.0149 31.81V38.18H31.4548C27.1149 38.18 23.7548 41.9601 24.2448 46.23L27.3249 73.67C27.7448 77.3801 30.8249 80.18 34.5349 80.18H65.7549C69.465 80.18 72.6149 77.38 72.9649 73.67L75.975 46.3C76.4649 41.9601 73.0351 38.25 68.695 38.25ZM52.315 59.32L53.2251 67.58C53.365 68.63 52.5251 69.5401 51.4751 69.5401H48.815C47.765 69.5401 46.9251 68.63 47.065 67.58L47.9751 59.32C46.0852 58.4801 44.7552 56.5899 44.7552 54.3501C44.7552 51.3399 47.2052 48.8899 50.2153 48.8899C53.2254 48.8899 55.6754 51.3399 55.6754 54.3501C55.5353 56.5899 54.2052 58.4801 52.3151 59.32H52.315ZM58.965 38.25H41.185V31.88C41.185 26.98 45.1749 22.99 50.075 22.99C54.9751 22.99 58.965 26.9799 58.965 31.88V38.25Z" fill="#B186F4" fill-opacity="0.2"/>
<path d="M67.6349 38.25V38.75H68.1349H68.695C72.7463 38.75 75.9335 42.2099 75.4781 46.2439L75.478 46.2453L72.4679 73.6153L72.4678 73.6153L72.4671 73.623C72.1418 77.0706 69.2127 79.68 65.7549 79.68H34.5349C31.0851 79.68 28.2139 77.077 27.8217 73.6142C27.8217 73.6141 27.8217 73.6139 27.8217 73.6138L24.7417 46.1742L24.7415 46.173C24.2857 42.2008 27.4127 38.68 31.4548 38.68H32.0149H32.5149V38.18V31.81C32.5149 22.1461 40.411 14.25 50.0749 14.25C59.7375 14.25 67.6351 22.1449 67.6349 31.88V38.25ZM52.8507 59.6166C54.7373 58.6332 56.0313 56.6689 56.1744 54.3813L56.1754 54.3657V54.3501C56.1754 51.0638 53.5015 48.3899 50.2153 48.3899C46.929 48.3899 44.2552 51.0638 44.2552 54.3501C44.2552 56.6613 45.554 58.6331 47.4394 59.6164L46.5686 67.52C46.3908 68.882 47.4798 70.0401 48.815 70.0401H51.4751C52.8103 70.0401 53.8994 68.882 53.7215 67.52L52.8507 59.6166ZM58.965 38.75H59.465V38.25V31.88C59.465 26.7037 55.2512 22.49 50.075 22.49C44.8987 22.49 40.685 26.7039 40.685 31.88V38.25V38.75H41.185H58.965Z" stroke="url(#paint0_linear_6383_4756)"/>
</g>
<path d="M26.6238 59.1257L11.7363 65.8225C9.59243 66.7869 9.48997 69.7608 11.5595 70.9556L28.0911 80.5002C30.1607 81.695 32.6849 80.1193 32.4482 77.7805L30.804 61.5391C30.6016 59.5397 28.4566 58.3012 26.6238 59.1257Z" fill="#9D60FB"/>
<defs>
<filter id="filter0_bi_6383_4756" x="14.1973" y="3.75" width="71.8242" height="86.4297" filterUnits="userSpaceOnUse" color-interpolation-filters="sRGB">
<feFlood flood-opacity="0" result="BackgroundImageFix"/>
<feGaussianBlur in="BackgroundImageFix" stdDeviation="5"/>
<feComposite in2="SourceAlpha" operator="in" result="effect1_backgroundBlur_6383_4756"/>
<feBlend mode="normal" in="SourceGraphic" in2="effect1_backgroundBlur_6383_4756" result="shape"/>
<feColorMatrix in="SourceAlpha" type="matrix" values="0 0 0 0 0 0 0 0 0 0 0 0 0 0 0 0 0 0 127 0" result="hardAlpha"/>
<feOffset dx="4" dy="4"/>
<feGaussianBlur stdDeviation="2"/>
<feComposite in2="hardAlpha" operator="arithmetic" k2="-1" k3="1"/>
<feColorMatrix type="matrix" values="0 0 0 0 1 0 0 0 0 1 0 0 0 0 1 0 0 0 0.25 0"/>
<feBlend mode="normal" in2="shape" result="effect2_innerShadow_6383_4756"/>
</filter>
<linearGradient id="paint0_linear_6383_4756" x1="40.0247" y1="14.1512" x2="88.263" y2="69.0161" gradientUnits="userSpaceOnUse">
<stop stop-color="white"/>
<stop offset="0.5" stop-color="white" stop-opacity="0"/>
<stop offset="1" stop-color="white"/>
</linearGradient>
</defs>
</svg>