<svg width="107" height="100" viewBox="0 0 107 100" fill="none" xmlns="http://www.w3.org/2000/svg">
<g clip-path="url(#clip0_6383_4741)">
<path d="M85.8391 82.5732C85.843 82.4887 85.8456 82.4034 85.8456 82.3179C85.8458 79.1976 83.3139 76.668 80.1908 76.668C77.9292 76.668 75.9786 77.9951 75.0742 79.9119C74.5719 79.5537 73.9513 79.3415 73.2794 79.3415C71.6076 79.3415 70.2525 80.6516 70.2525 82.2675C70.2525 82.5074 70.2831 82.7405 70.3394 82.9634C68.4324 83.3693 67 85.0939 67 87.1606C67 89.5289 68.881 91.3348 71.2013 91.3348H84.9795C87.1999 91.3348 89 89.4386 89 86.959C89 84.809 87.6463 83.0129 85.8391 82.5733L85.8391 82.5732Z" fill="#9D60FB"/>
</g>
<g clip-path="url(#clip1_6383_4741)">
<path d="M30.2592 73.3579C30.265 73.231 30.2688 73.1032 30.2688 72.975C30.2692 68.2945 26.4714 64.5 21.7867 64.5C18.3943 64.5 15.4683 66.4906 14.1118 69.3658C13.3583 68.8285 12.4274 68.5102 11.4196 68.5102C8.91189 68.5102 6.87931 70.4754 6.87931 72.8992C6.87931 73.2591 6.92507 73.6088 7.00961 73.9432C4.14906 74.5519 2.00049 77.1389 2.00049 80.239C2.00049 83.7915 4.82199 86.5002 8.30239 86.5002H28.9697C32.3003 86.5002 35.0005 83.6559 35.0005 79.9365C35.0005 76.7116 32.97 74.0174 30.2592 73.358L30.2592 73.3579Z" fill="#9D60FB"/>
</g>
<g clip-path="url(#clip2_6383_4741)">
<path d="M104.701 33.5263C104.704 33.4687 104.706 33.4106 104.706 33.3522C104.706 31.2247 102.865 29.5 100.593 29.5C98.9485 29.5 97.5299 30.4048 96.8721 31.7117C96.5068 31.4675 96.0555 31.3228 95.5668 31.3228C94.351 31.3228 93.3655 32.2161 93.3655 33.3178C93.3655 33.4814 93.3877 33.6403 93.4287 33.7924C92.0417 34.0691 91 35.245 91 36.6541C91 38.2689 92.368 39.5001 94.0555 39.5001H104.076C105.691 39.5001 107 38.2072 107 36.5166C107 35.0507 106.016 33.8261 104.701 33.5263L104.701 33.5263Z" fill="#9D60FB"/>
</g>
<path d="M71.5616 31.636C71.6771 30.943 71.7285 30.2116 71.7285 29.4544C71.7285 22.1265 65.7865 16.1719 58.4588 16.1719C54.3777 16.1719 50.6176 17.9813 48.1151 21.0999C46.1774 19.483 43.7132 18.5847 41.1595 18.5847C35.1664 18.5847 30.2768 23.4613 30.2768 29.4545C30.2768 29.7881 30.3024 30.1217 30.3282 30.4425C23.3084 30.8017 17.7002 36.6151 17.7002 43.725C17.7002 47.4722 19.266 51.0144 22.0252 53.5169V47.5494C22.0252 45.4319 23.7577 43.6994 25.8752 43.6994H71.1383C73.2558 43.6994 74.9883 45.4319 74.9883 47.5494V53.5169C77.7475 51.0144 79.3003 47.4724 79.3003 43.725C79.3003 38.4892 76.233 33.7664 71.5618 31.636H71.5616ZM41.1722 26.2844C39.4142 26.2844 37.9894 27.7088 37.9894 29.4544C37.9894 30.1602 37.4119 30.7377 36.7061 30.7377C35.9872 30.7377 35.4227 30.1602 35.4227 29.4544C35.4227 26.2844 38.0022 23.7177 41.1722 23.7177C41.878 23.7177 42.4555 24.2952 42.4555 25.0011C42.4555 25.7069 41.878 26.2844 41.1722 26.2844Z" fill="#9D60FB"/>
<g filter="url(#filter0_bi_6383_4741)">
<path d="M25.8746 61.2165H71.1378C71.8436 61.2165 72.4211 60.639 72.4211 59.9331V47.549C72.4211 46.8304 71.8436 46.2656 71.1378 46.2656H25.8746C25.1688 46.2656 24.5913 46.8303 24.5913 47.549V59.9331C24.5913 60.639 25.1686 61.2165 25.8746 61.2165ZM64.1821 50.8471C64.1821 50.1413 64.7596 49.5638 65.4655 49.5638C66.1841 49.5638 66.7488 50.1413 66.7488 50.8471V56.6349C66.7488 57.3407 66.1841 57.9182 65.4655 57.9182C64.7596 57.9182 64.1821 57.3407 64.1821 56.6349V50.8471ZM59.4208 50.8471C59.4208 50.1413 59.9983 49.5638 60.7041 49.5638C61.4227 49.5638 61.9874 50.1413 61.9874 50.8471V56.6349C61.9874 57.3407 61.4227 57.9182 60.7041 57.9182C59.9983 57.9182 59.4208 57.3407 59.4208 56.6349V50.8471ZM40.8895 52.4513H55.5579C56.2638 52.4513 56.8413 53.0288 56.8413 53.7346C56.8413 54.4532 56.2638 55.018 55.5579 55.018H40.8895C40.1836 55.018 39.6061 54.4532 39.6061 53.7346C39.6061 53.0288 40.1836 52.4513 40.8895 52.4513ZM32.7788 51.168C34.2032 51.168 35.3455 52.323 35.3455 53.7346C35.3455 55.1591 34.2032 56.3013 32.7788 56.3013C31.3671 56.3013 30.2121 55.1591 30.2121 53.7346C30.2121 52.323 31.3671 51.168 32.7788 51.168Z" fill="#B186F4" fill-opacity="0.2"/>
<path d="M71.1378 60.7165H25.8746C25.4448 60.7165 25.0913 60.3629 25.0913 59.9331V47.549C25.0913 47.1097 25.4417 46.7656 25.8746 46.7656H71.1378C71.5708 46.7656 71.9211 47.1097 71.9211 47.549V59.9331C71.9211 60.3628 71.5675 60.7165 71.1378 60.7165ZM65.4655 49.0638C64.4835 49.0638 63.6821 49.8652 63.6821 50.8471V56.6349C63.6821 57.6169 64.4835 58.4182 65.4655 58.4182C66.4635 58.4182 67.2488 57.6136 67.2488 56.6349V50.8471C67.2488 49.8684 66.4635 49.0638 65.4655 49.0638ZM60.7041 49.0638C59.7221 49.0638 58.9208 49.8651 58.9208 50.8471V56.6349C58.9208 57.6169 59.7221 58.4182 60.7041 58.4182C61.7021 58.4182 62.4874 57.6136 62.4874 56.6349V50.8471C62.4874 49.8684 61.7021 49.0638 60.7041 49.0638ZM55.5579 51.9513H40.8895C39.9075 51.9513 39.1061 52.7527 39.1061 53.7346C39.1061 54.7326 39.9107 55.518 40.8895 55.518H55.5579C56.5367 55.518 57.3413 54.7326 57.3413 53.7346C57.3413 52.7527 56.5399 51.9513 55.5579 51.9513ZM35.8455 53.7346C35.8455 52.0484 34.481 50.668 32.7788 50.668C31.091 50.668 29.7121 52.0468 29.7121 53.7346C29.7121 55.4368 31.0926 56.8013 32.7788 56.8013C34.4794 56.8013 35.8455 55.4352 35.8455 53.7346Z" stroke="url(#paint0_linear_6383_4741)"/>
</g>
<g filter="url(#filter1_bi_6383_4741)">
<path d="M24.5913 77.5425C24.5913 78.2483 25.1688 78.8258 25.8746 78.8258H71.1378C71.8436 78.8258 72.4211 78.2483 72.4211 77.5425V65.1583C72.4211 64.4525 71.8436 63.875 71.1378 63.875H25.8746C25.1688 63.875 24.5913 64.4525 24.5913 65.1583V77.5425ZM64.1821 68.4565C64.1821 67.7507 64.7596 67.1732 65.4655 67.1732C66.1841 67.1732 66.7488 67.7507 66.7488 68.4565V74.2443C66.7488 74.9501 66.1841 75.5276 65.4655 75.5276C64.7596 75.5276 64.1821 74.9501 64.1821 74.2443V68.4565ZM59.4208 68.4565C59.4208 67.7507 59.9983 67.1732 60.7041 67.1732C61.4227 67.1732 61.9874 67.7507 61.9874 68.4565V74.2443C61.9874 74.9501 61.4227 75.5276 60.7041 75.5276C59.9983 75.5276 59.4208 74.9501 59.4208 74.2443V68.4565ZM40.8895 70.0607H55.5579C56.2638 70.0607 56.8413 70.6382 56.8413 71.344C56.8413 72.0629 56.2638 72.6273 55.5579 72.6273H40.8895C40.1836 72.6273 39.6061 72.0629 39.6061 71.344C39.6061 70.6382 40.1836 70.0607 40.8895 70.0607ZM32.7788 68.7773C34.2032 68.7773 35.3455 69.9323 35.3455 71.344C35.3455 72.7684 34.2032 73.9107 32.7788 73.9107C31.3671 73.9107 30.2121 72.7684 30.2121 71.344C30.2121 69.9326 31.3671 68.7773 32.7788 68.7773Z" fill="#B186F4" fill-opacity="0.2"/>
<path d="M25.8746 78.3258C25.445 78.3258 25.0913 77.9722 25.0913 77.5425V65.1583C25.0913 64.7286 25.445 64.375 25.8746 64.375H71.1378C71.5675 64.375 71.9211 64.7286 71.9211 65.1583V77.5425C71.9211 77.9722 71.5675 78.3258 71.1378 78.3258H25.8746ZM65.4655 66.6732C64.4835 66.6732 63.6821 67.4745 63.6821 68.4565V74.2443C63.6821 75.2262 64.4835 76.0276 65.4655 76.0276C66.4635 76.0276 67.2488 75.223 67.2488 74.2443V68.4565C67.2488 67.4778 66.4635 66.6732 65.4655 66.6732ZM60.7041 66.6732C59.7221 66.6732 58.9208 67.4745 58.9208 68.4565V74.2443C58.9208 75.2262 59.7221 76.0276 60.7041 76.0276C61.7021 76.0276 62.4874 75.223 62.4874 74.2443V68.4565C62.4874 67.4778 61.7021 66.6732 60.7041 66.6732ZM55.5579 69.5607H40.8895C39.9075 69.5607 39.1061 70.362 39.1061 71.344C39.1061 72.3423 39.9108 73.1273 40.8895 73.1273H55.5579C56.5366 73.1273 57.3413 72.3423 57.3413 71.344C57.3413 70.362 56.5399 69.5607 55.5579 69.5607ZM35.8455 71.344C35.8455 69.6578 34.481 68.2773 32.7788 68.2773C31.0909 68.2773 29.7121 69.6565 29.7121 71.344C29.7121 73.0462 31.0926 74.4107 32.7788 74.4107C34.4794 74.4107 35.8455 73.0446 35.8455 71.344Z" stroke="url(#paint1_linear_6383_4741)"/>
</g>
<defs>
<filter id="filter0_bi_6383_4741" x="14.5913" y="36.2656" width="67.8296" height="34.9492" filterUnits="userSpaceOnUse" color-interpolation-filters="sRGB">
<feFlood flood-opacity="0" result="BackgroundImageFix"/>
<feGaussianBlur in="BackgroundImageFix" stdDeviation="5"/>
<feComposite in2="SourceAlpha" operator="in" result="effect1_backgroundBlur_6383_4741"/>
<feBlend mode="normal" in="SourceGraphic" in2="effect1_backgroundBlur_6383_4741" result="shape"/>
<feColorMatrix in="SourceAlpha" type="matrix" values="0 0 0 0 0 0 0 0 0 0 0 0 0 0 0 0 0 0 127 0" result="hardAlpha"/>
<feOffset dx="4" dy="4"/>
<feGaussianBlur stdDeviation="2"/>
<feComposite in2="hardAlpha" operator="arithmetic" k2="-1" k3="1"/>
<feColorMatrix type="matrix" values="0 0 0 0 1 0 0 0 0 1 0 0 0 0 1 0 0 0 0.25 0"/>
<feBlend mode="normal" in2="shape" result="effect2_innerShadow_6383_4741"/>
</filter>
<filter id="filter1_bi_6383_4741" x="14.5913" y="53.875" width="67.8296" height="34.9492" filterUnits="userSpaceOnUse" color-interpolation-filters="sRGB">
<feFlood flood-opacity="0" result="BackgroundImageFix"/>
<feGaussianBlur in="BackgroundImageFix" stdDeviation="5"/>
<feComposite in2="SourceAlpha" operator="in" result="effect1_backgroundBlur_6383_4741"/>
<feBlend mode="normal" in="SourceGraphic" in2="effect1_backgroundBlur_6383_4741" result="shape"/>
<feColorMatrix in="SourceAlpha" type="matrix" values="0 0 0 0 0 0 0 0 0 0 0 0 0 0 0 0 0 0 127 0" result="hardAlpha"/>
<feOffset dx="4" dy="4"/>
<feGaussianBlur stdDeviation="2"/>
<feComposite in2="hardAlpha" operator="arithmetic" k2="-1" k3="1"/>
<feColorMatrix type="matrix" values="0 0 0 0 1 0 0 0 0 1 0 0 0 0 1 0 0 0 0.25 0"/>
<feBlend mode="normal" in2="shape" result="effect2_innerShadow_6383_4741"/>
</filter>
<linearGradient id="paint0_linear_6383_4741" x1="39.1988" y1="46.3559" x2="43.6865" y2="67.287" gradientUnits="userSpaceOnUse">
<stop stop-color="white"/>
<stop offset="0.5" stop-color="white" stop-opacity="0"/>
<stop offset="1" stop-color="white"/>
</linearGradient>
<linearGradient id="paint1_linear_6383_4741" x1="39.1988" y1="63.9653" x2="43.6865" y2="84.8964" gradientUnits="userSpaceOnUse">
<stop stop-color="white"/>
<stop offset="0.5" stop-color="white" stop-opacity="0"/>
<stop offset="1" stop-color="white"/>
</linearGradient>
<clipPath id="clip0_6383_4741">
<rect width="22" height="22" fill="white" transform="translate(67 73)"/>
</clipPath>
<clipPath id="clip1_6383_4741">
<rect width="33" height="33" fill="white" transform="translate(2 59)"/>
</clipPath>
<clipPath id="clip2_6383_4741">
<rect width="16" height="15" fill="white" transform="translate(91 27)"/>
</clipPath>
</defs>
</svg>