<svg width="36" height="36" viewBox="0 0 36 36" fill="none" xmlns="http://www.w3.org/2000/svg">
<path d="M16.5 24L10.5 18M10.5 18L16.5 12M10.5 18H31.5M24 24V25.5C24 26.6935 23.5259 27.8381 22.682 28.682C21.8381 29.5259 20.6935 30 19.5 30H9C7.80653 30 6.66193 29.5259 5.81802 28.682C4.97411 27.8381 4.5 26.6935 4.5 25.5V10.5C4.5 9.30653 4.97411 8.16193 5.81802 7.31802C6.66193 6.47411 7.80653 6 9 6H19.5C20.6935 6 21.8381 6.47411 22.682 7.31802C23.5259 8.16193 24 9.30653 24 10.5V12" stroke="#9D60FB" stroke-width="3" stroke-linecap="round" stroke-linejoin="round"/>
</svg>
