<svg width="85" height="85" viewBox="0 0 85 85" fill="none" xmlns="http://www.w3.org/2000/svg">
<g clip-path="url(#clip0_1551_2)">
<path d="M24.8339 18.081L1.33448 51.4498C-2.0496 56.2551 1.39296 62.8736 7.27651 62.8736H54.2752C60.1588 62.8736 63.6013 56.2551 60.2172 51.4498L36.7178 18.081C33.8249 13.973 27.7268 13.973 24.8339 18.081Z" fill="url(#paint0_linear_1551_2)"/>
<g filter="url(#filter0_i_1551_2)">
<path d="M79.5499 34.541H37.5384C34.8404 34.541 32.6533 36.7281 32.6533 39.4261V65.8054C32.6533 68.5033 34.8404 70.6904 37.5384 70.6904H79.5499C82.2478 70.6904 84.4349 68.5033 84.4349 65.8054V39.4261C84.4349 36.7281 82.2478 34.541 79.5499 34.541Z" fill="#B186F4" fill-opacity="0.2"/>
<path d="M79.5496 35.0293H37.5382C35.11 35.0293 33.1416 36.9977 33.1416 39.4258V65.8052C33.1416 68.2333 35.11 70.2017 37.5382 70.2017H79.5496C81.9778 70.2017 83.9462 68.2333 83.9462 65.8052V39.4258C83.9462 36.9977 81.9778 35.0293 79.5496 35.0293Z" stroke="url(#paint1_linear_1551_2)"/>
</g>
<path d="M48.2857 50.6603L48.6418 49.7505L48.098 49.5376L47.6529 49.9159L48.2857 50.6603ZM59.5214 55.0568L59.1653 55.9666L59.8224 56.2238L60.2731 55.6809L59.5214 55.0568ZM81.0156 29.166L70.4348 33.0801L79.1149 40.2864L81.0156 29.166ZM39.1483 59.7093L48.9185 51.4047L47.6529 49.9159L37.8828 58.2205L39.1483 59.7093ZM47.9297 51.5701L59.1653 55.9666L59.8774 54.147L48.6418 49.7505L47.9297 51.5701ZM60.2731 55.6809L76.1507 36.5555L74.6473 35.3074L58.7697 54.4327L60.2731 55.6809Z" fill="#9E6FE7"/>
<path opacity="0.3" d="M38.5156 62.3848H78.5731" stroke="white"/>
</g>
<defs>
<filter id="filter0_i_1551_2" x="32.6416" y="34.5293" width="55.8047" height="40.1719" filterUnits="userSpaceOnUse" color-interpolation-filters="sRGB">
<feFlood flood-opacity="0" result="BackgroundImageFix"/>
<feBlend mode="normal" in="SourceGraphic" in2="BackgroundImageFix" result="shape"/>
<feColorMatrix in="SourceAlpha" type="matrix" values="0 0 0 0 0 0 0 0 0 0 0 0 0 0 0 0 0 0 127 0" result="hardAlpha"/>
<feOffset dx="4" dy="4"/>
<feGaussianBlur stdDeviation="2"/>
<feComposite in2="hardAlpha" operator="arithmetic" k2="-1" k3="1"/>
<feColorMatrix type="matrix" values="0 0 0 0 1 0 0 0 0 1 0 0 0 0 1 0 0 0 0.25 0"/>
<feBlend mode="normal" in2="shape" result="effect1_innerShadow_1551_2"/>
</filter>
<linearGradient id="paint0_linear_1551_2" x1="68.2617" y1="62.8734" x2="-6.71104" y2="62.8734" gradientUnits="userSpaceOnUse">
<stop stop-color="#C29BFF"/>
<stop offset="1" stop-color="#7B45CF"/>
</linearGradient>
<linearGradient id="paint1_linear_1551_2" x1="48.4674" y1="34.7591" x2="69.0872" y2="77.8209" gradientUnits="userSpaceOnUse">
<stop stop-color="white"/>
<stop offset="0.5" stop-color="white" stop-opacity="0"/>
<stop offset="1" stop-color="white"/>
</linearGradient>
<clipPath id="clip0_1551_2">
<rect width="85" height="55.6897" fill="white" transform="translate(0 15)"/>
</clipPath>
</defs>
</svg>
