<svg width="64" height="64" viewBox="0 0 64 64" fill="none" xmlns="http://www.w3.org/2000/svg">
<g clip-path="url(#clip0_406:404)">
<path d="M32.0368 35.1936L23.6501 30.7604L9.09188 23.066C9.07848 23.0528 9.05201 23.0528 9.03862 23.0528C8.50711 22.8002 7.9622 23.3319 8.16154 23.8634L15.5795 42.783L15.5808 42.787C15.5888 42.8057 15.5955 42.8242 15.6035 42.8428C15.9079 43.5485 16.5722 43.9843 17.2953 44.1557C17.3563 44.1691 17.4 44.1811 17.4734 44.1958C17.5466 44.212 17.6488 44.2342 17.7365 44.2409C17.7509 44.2422 17.7642 44.2422 17.7789 44.2434H17.7896C17.8001 44.2449 17.8108 44.2449 17.8215 44.2462H17.836C17.8454 44.2474 17.8559 44.2474 17.8654 44.2474H17.8826C17.8933 44.2489 17.9038 44.2489 17.9145 44.2489C27.309 45.2731 36.7871 45.2731 46.1817 44.2489C46.2946 44.2489 46.4049 44.2434 46.5111 44.2329L46.6122 44.221C46.6162 44.2195 46.6215 44.2195 46.6255 44.2183C46.6481 44.2155 46.6706 44.2116 46.6933 44.2076C46.7264 44.2036 46.7598 44.197 46.7929 44.1903C46.8594 44.1757 46.8896 44.1651 46.9798 44.1341C47.0699 44.1031 47.2197 44.0489 47.3133 44.0038C47.407 43.9586 47.4719 43.9153 47.5504 43.8661C47.6473 43.8054 47.7417 43.7407 47.8333 43.6722C47.8736 43.6413 47.9012 43.6215 47.9304 43.5936L47.9145 43.5844L32.0368 35.1936Z" fill="#FF4B4B"/>
<path d="M55.0059 23.0662H54.9926L40.429 30.7605L48.5247 42.8178L55.9241 23.8635V23.8369C56.1102 23.2787 55.5388 22.7738 55.0059 23.0662" fill="#7D353B"/>
<path d="M32.813 19.4076C32.4408 18.864 31.6302 18.864 31.2714 19.4076L23.6501 30.7605L32.0368 35.1937L47.9306 43.5935C48.0304 43.4958 48.1105 43.4006 48.195 43.3C48.3187 43.1491 48.429 42.9877 48.5246 42.8176L40.4289 30.7605L32.813 19.4076V19.4076Z" fill="#BD4043"/>
</g>
<defs>
<clipPath id="clip0_406:404">
<rect width="48" height="26.3123" fill="white" transform="translate(8 19)"/>
</clipPath>
</defs>
</svg>
