<svg width="53" height="52" viewBox="0 0 53 52" fill="none" xmlns="http://www.w3.org/2000/svg">
<path d="M16.0234 25.6013C16.0234 20.3232 20.3183 16.043 25.6201 16.043C30.9201 16.043 35.2167 20.3214 35.2167 25.6013C35.2167 30.883 30.9219 35.1614 25.6219 35.1614C20.3201 35.1614 16.0234 30.8812 16.0234 25.6031" fill="#7D7E8E"/>
<path d="M25.6175 0.11303C11.4866 0.11303 0.03125 11.5245 0.03125 25.6024C0.03125 36.1695 6.43694 45.1905 15.7375 49.1161C16.3916 49.391 17.0984 49.5173 17.8072 49.4858C18.5159 49.4544 19.2089 49.2661 19.836 48.9344C20.4631 48.6028 21.0088 48.136 21.4337 47.5679C21.8586 46.9998 22.1521 46.3445 22.2931 45.6492C22.5104 44.5653 22.345 43.4397 21.8251 42.4642C21.3052 41.4887 20.463 40.7237 19.4421 40.2998V40.298C13.6779 37.8911 9.62607 32.2201 9.62607 25.6024C9.62607 16.8026 16.7847 9.66947 25.6193 9.66947C34.4538 9.66947 41.6143 16.8026 41.6143 25.6024C41.6143 32.2182 37.5626 37.8911 31.7965 40.2962V40.2998C30.7755 40.7241 29.9332 41.4895 29.4136 42.4655C28.8939 43.4415 28.7291 44.5676 28.9471 45.6516C29.1652 46.7356 29.7526 47.7103 30.6092 48.4095C31.4658 49.1086 32.5385 49.4888 33.6442 49.4853C34.28 49.4814 34.9091 49.3554 35.4974 49.1143C44.798 45.1886 51.2055 36.1658 51.2055 25.6006C51.2055 11.5208 39.7484 0.109375 25.6175 0.109375" fill="#7D7E8E"/>
</svg>
