<svg width="110" height="38" viewBox="0 0 110 38" fill="none" xmlns="http://www.w3.org/2000/svg">
<g clip-path="url(#clip0_438_357)">
<path d="M6.25037 26.9351C6.70947 28.1534 7.34508 29.1951 8.15732 30.0602C8.96956 30.9254 9.93182 31.5876 11.0441 32.0466C12.1565 32.5058 13.366 32.7352 14.6726 32.7352C15.9439 32.7352 17.1356 32.4968 18.2481 32.0201C19.3605 31.5433 20.3315 30.8724 21.1613 30.0072C21.9912 29.142 22.6356 28.1092 23.0948 26.9085C23.5538 25.7079 23.7834 24.3661 23.7834 22.8828V0H29.3452V37.0786H23.8364V33.6356C22.6004 34.9421 21.1436 35.9486 19.4664 36.655C17.7889 37.3612 15.9792 37.7143 14.037 37.7143C12.0593 37.7143 10.2143 37.37 8.50155 36.6814C6.78893 35.9928 5.30569 35.0128 4.05216 33.7416C2.79865 32.4703 1.80978 30.9432 1.08592 29.1597C0.361933 27.3765 0 25.3902 0 23.2006V0H5.56179V22.8828C5.56179 24.3661 5.79128 25.7167 6.25037 26.9351Z" fill="#17181D"/>
<path d="M38.9331 0V13.5072C40.169 12.2713 41.5992 11.2914 43.2236 10.5674C44.8479 9.84346 46.6136 9.48153 48.5205 9.48153C50.4982 9.48153 52.3518 9.85224 54.0823 10.5938C55.8126 11.3354 57.3133 12.3418 58.5846 13.6132C59.856 14.8845 60.8624 16.3851 61.6039 18.1156C62.3456 19.8459 62.7163 21.6823 62.7163 23.6244C62.7163 25.5665 62.3456 27.3941 61.6039 29.1066C60.8624 30.8193 59.856 32.3114 58.5846 33.5825C57.3133 34.8538 55.8126 35.8603 54.0823 36.6019C52.3518 37.3434 50.498 37.7141 48.5205 37.7141C46.6136 37.7141 44.8391 37.3522 43.1972 36.6283C41.555 35.9043 40.1161 34.9244 38.8801 33.6884V37.0785H33.5832V0H38.9331ZM39.5422 27.2794C40.0188 28.4094 40.681 29.3981 41.5286 30.2456C42.3761 31.0932 43.3648 31.7642 44.4948 32.2586C45.6249 32.753 46.8432 33.0002 48.1498 33.0002C49.4211 33.0002 50.6217 32.753 51.7517 32.2586C52.8816 31.7642 53.8615 31.0932 54.6915 30.2456C55.5214 29.3983 56.1834 28.4094 56.6778 27.2794C57.1722 26.1494 57.4194 24.931 57.4194 23.6244C57.4194 22.3179 57.1722 21.0906 56.6778 19.943C56.1834 18.7954 55.5214 17.7978 54.6915 16.9502C53.8617 16.1029 52.8817 15.4406 51.7517 14.964C50.6215 14.4873 49.421 14.2488 48.1498 14.2488C46.8785 14.2488 45.678 14.4872 44.548 14.964C43.4179 15.4408 42.4292 16.1029 41.5816 16.9502C40.7341 17.7978 40.0631 18.7954 39.5687 19.943C39.0744 21.0906 38.8272 22.3179 38.8272 23.6244C38.827 24.931 39.0654 26.1494 39.5422 27.2794Z" fill="#17181D"/>
<path d="M65.7333 18.1684C66.4395 16.4733 67.4108 14.9814 68.6466 13.6924C69.8824 12.4035 71.348 11.3883 73.0431 10.6467C74.7381 9.90516 76.5745 9.53442 78.5519 9.53442C80.4941 9.53442 82.2951 9.88757 83.9548 10.5937C85.6146 11.3 87.0447 12.28 88.2453 13.5336C89.446 14.7871 90.382 16.2704 91.0527 17.9831C91.7237 19.6958 92.0592 21.5586 92.0592 23.5714V25.3195H70.0769C70.2535 26.4141 70.6066 27.4294 71.1362 28.365C71.6661 29.3008 72.328 30.1131 73.1225 30.8017C73.9172 31.4903 74.8176 32.0288 75.8241 32.4171C76.8304 32.8056 77.8985 33 79.0287 33C82.2423 33 84.8378 31.6756 86.8153 29.0271L90.6821 31.8874C89.3401 33.6884 87.6805 35.101 85.703 36.1251C83.7254 37.149 81.5007 37.6611 79.0289 37.6611C77.0159 37.6611 75.1357 37.3079 73.3876 36.6017C71.6395 35.8955 70.1211 34.9066 68.8322 33.6353C67.5433 32.364 66.5282 30.8721 65.7864 29.1594C65.0449 27.4469 64.6742 25.5839 64.6742 23.5712C64.6739 21.6643 65.0271 19.8633 65.7333 18.1684ZM73.1756 16.076C71.6747 17.3295 70.6772 18.9981 70.1828 21.0816H86.6564C86.1973 18.9981 85.2173 17.3295 83.7164 16.076C82.2157 14.8224 80.4589 14.1956 78.446 14.1956C76.4332 14.1956 74.6763 14.8224 73.1756 16.076Z" fill="#17181D"/>
<path d="M102.07 16.6853C100.94 17.9213 100.375 19.5986 100.375 21.7175V37.0787H95.0254V10.0642H100.322V13.4013C100.993 12.3066 101.867 11.4414 102.944 10.8058C104.021 10.17 105.301 9.85217 106.785 9.85217H108.639V14.8313H106.414C104.648 14.8314 103.2 15.4494 102.07 16.6853Z" fill="#17181D"/>
</g>
<defs>
<clipPath id="clip0_438_357">
<rect width="110" height="37.7143" fill="white"/>
</clipPath>
</defs>
</svg>
