<svg width="49" height="56" viewBox="0 0 49 56" fill="none" xmlns="http://www.w3.org/2000/svg">
<path fill-rule="evenodd" clip-rule="evenodd" d="M34.4837 54.3459L34.3604 6.94233C34.0411 6.62304 33.4183 6.71946 33.1749 6.79059L31.5532 7.29323C31.353 6.63451 31.0932 5.9954 30.7771 5.38381C29.6264 3.18672 27.9446 2.02494 25.9087 2.02178H25.9024C25.7664 2.02178 25.6321 2.03443 25.4961 2.04549L25.4803 2.04707C25.4215 1.97456 25.3603 1.90392 25.297 1.83527C24.4118 0.886882 23.2738 0.423753 21.9112 0.463269C19.2842 0.53914 16.6682 2.43907 14.5454 5.81375C13.0517 8.18946 11.9184 11.1721 11.5944 13.4814L6.42092 15.0858C4.89876 15.5647 4.85134 15.6122 4.6506 17.049C4.50044 18.1364 0.515625 48.9891 0.515625 48.9891L33.9115 54.7711L34.4837 54.3443V54.3459ZM23.5425 2.63033C23.0983 2.33791 22.5783 2.20198 21.9618 2.21462C17.9059 2.33159 14.3684 8.67472 13.4659 12.9013L17.3511 11.6969L18.045 11.4819C18.5539 8.79801 19.8311 6.01291 21.5019 4.22046C22.086 3.57817 22.7756 3.0404 23.5409 2.63033H23.5425ZM19.9655 10.886L25.542 9.15682C25.5594 7.70262 25.4013 5.55294 24.6742 4.03552C23.8997 4.35481 23.2485 4.91436 22.7806 5.41543C21.5271 6.76372 20.5045 8.82014 19.967 10.886H19.9655ZM27.2886 8.61623L29.8809 7.81169C29.4667 6.46498 28.4836 4.20781 26.4904 3.82846C27.11 5.42965 27.2696 7.28375 27.2886 8.61623Z" fill="#A5A6B6"/>
<path d="M41.9613 10.4679C41.7621 10.4521 37.9021 10.392 37.9021 10.392C37.9021 10.392 34.6728 7.25292 34.3535 6.93205C34.2299 6.81796 34.0733 6.74601 33.9062 6.72656V54.7623L48.377 51.16C48.377 51.16 42.4717 11.184 42.4338 10.9105C42.4155 10.7944 42.3589 10.6877 42.273 10.6075C42.187 10.5273 42.0767 10.4781 41.9596 10.4679H41.9613Z" fill="#7D7E8E"/>
<path d="M25.8845 17.928L24.2027 24.2253C24.2027 24.2253 22.3281 23.3701 20.1041 23.5108C16.8448 23.7163 16.81 25.7759 16.8432 26.2927C17.0202 29.1063 24.4192 29.7227 24.835 36.3188C25.1621 41.508 22.0862 45.0597 17.6541 45.3379C12.3352 45.6746 9.40625 42.5323 9.40625 42.5323L10.5333 37.7303C10.5333 37.7303 13.4812 39.9574 15.8395 39.8073C17.3822 39.7108 17.9323 38.4558 17.877 37.5675C17.6446 33.8956 11.6192 34.1106 11.2382 28.0757C10.919 22.9939 14.2494 17.8489 21.601 17.3842C24.4335 17.204 25.8845 17.9295 25.8845 17.9295" fill="white"/>
</svg>
