<svg width="34" height="42" viewBox="0 0 34 42" fill="none" xmlns="http://www.w3.org/2000/svg">
<g clip-path="url(#clip0_423_404)">
<path d="M28.0638 39.6114C25.8971 41.7817 23.5065 41.4434 21.2278 40.4201C18.8052 39.3762 16.5905 39.3102 14.0321 40.4201C10.8459 41.8395 9.15489 41.4269 7.23601 39.6114C-3.59764 28.0996 -1.99857 10.5637 10.3142 9.90347C13.3004 10.0685 15.3912 11.6076 17.1502 11.7355C19.7646 11.1867 22.2672 9.61465 25.0656 9.821C28.4276 10.1015 30.9421 11.4714 32.6211 13.9347C25.7051 18.2258 27.3442 27.6333 33.6965 30.274C32.4253 33.7193 30.7942 37.1234 28.0598 39.6403L28.0638 39.6114ZM16.9103 9.77968C16.5865 4.66334 20.6042 0.454724 25.2255 0.0421143C25.8611 5.94243 20.0285 10.3573 16.9103 9.77968Z" fill="#808495"/>
</g>
<defs>
<clipPath id="clip0_423_404">
<rect width="34" height="41.8462" fill="white"/>
</clipPath>
</defs>
</svg>
