<svg width="65" height="22" viewBox="0 0 65 22" fill="none" xmlns="http://www.w3.org/2000/svg">
<g clip-path="url(#clip0_423_407)">
<path d="M9.69298 9.69358H5.70175V10.8334H9.69298V15.3953H3.42105L1.14035 13.1146V1.14038H5.70175V5.13161H9.69298V9.69358Z" fill="white"/>
<path d="M26.7982 15.3953H13.114L10.8333 13.1146V5.13159H15.3947V10.8333H16.5351V5.13159H21.0965V10.8333H22.2368V5.13159H26.7982V15.3953Z" fill="white"/>
<path d="M32.5 5.13159H27.9386V15.3947H32.5V5.13159Z" fill="white"/>
<path d="M32.5 1.14038H27.9386V3.99126H32.5V1.14038Z" fill="white"/>
<path d="M42.1929 9.69358H38.2017V10.8334H42.1929V15.3953H35.921L33.6404 13.1146V1.14038H38.2017V5.13161H42.1929V9.69358Z" fill="white"/>
<path d="M52.4561 9.69357H47.8947V10.8333H52.4561V15.3953H45.614L43.3333 13.1146V7.41286L45.614 5.13159H52.4561V9.69357Z" fill="white"/>
<path d="M63.8597 15.3953H59.2983V9.69358H58.1579V15.3953H53.5965V1.14038H58.1579V5.13161H61.579L63.8597 7.41288V15.3953Z" fill="white"/>
<path d="M62.1491 3.99123H59.2982V0H53.0383L50.1595 3.99123H45.0439L43.3333 5.70175V3.99123H39.3421V0H26.7982V3.99123H9.15132L6.27193 0H0V13.6842L7.98246 21.6667H15.9649V19.386L18.2456 21.6667H33.6404V19.386L35.9211 21.6667H43.3333V19.386L45.614 21.6667H59.8684L65 16.5351V6.84211L62.1491 3.99123ZM9.69298 9.69298H5.70175V10.8333H9.69298V15.3947H3.42105L1.14035 13.114V1.14035H5.70175V5.13158H9.69298V9.69298ZM26.7982 15.3947H13.114L10.8333 13.114V5.13158H15.3947V10.8333H16.5351V5.13158H21.0965V10.8333H22.2368V5.13158H26.7982V15.3947ZM32.5 15.3947H27.9386V5.13158H32.5V15.3947ZM32.5 3.99123H27.9386V1.14035H32.5V3.99123ZM42.193 9.69298H38.2018V10.8333H42.193V15.3947H35.9211L33.6404 13.114V1.14035H38.2018V5.13158H42.193V9.69298ZM52.4561 9.69298H47.8947V10.8333H52.4561V15.3947H45.614L43.3333 13.114V7.41228L45.614 5.13158H52.4561V9.69298ZM63.8596 15.3947H59.2982V9.69298H58.1579V15.3947H53.5965V1.14035H58.1579V5.13158H61.5789L63.8596 7.41228V15.3947Z" fill="#9146FF"/>
</g>
<defs>
<clipPath id="clip0_423_407">
<rect width="65" height="21.6667" fill="white"/>
</clipPath>
</defs>
</svg>
