<svg width="49" height="56" viewBox="0 0 49 56" fill="none" xmlns="http://www.w3.org/2000/svg">
<path fill-rule="evenodd" clip-rule="evenodd" d="M34.4802 54.3458L34.3569 6.94221C34.0376 6.62292 33.4148 6.71934 33.1714 6.79047L31.5497 7.29311C31.3495 6.63439 31.0897 5.99528 30.7736 5.38369C29.6229 3.1866 27.9411 2.02482 25.9052 2.02166H25.8989C25.7629 2.02166 25.6286 2.03431 25.4926 2.04537L25.4768 2.04695C25.418 1.97444 25.3568 1.9038 25.2935 1.83515C24.4083 0.886759 23.2703 0.42363 21.9077 0.463146C19.2807 0.539017 16.6647 2.43895 14.5419 5.81363C13.0482 8.18934 11.9149 11.172 11.5909 13.4813L6.41742 15.0857C4.89526 15.5646 4.84784 15.6121 4.6471 17.0489C4.49694 18.1363 0.512129 48.989 0.512129 48.989L33.908 54.771L34.4802 54.3442V54.3458ZM23.539 2.63021C23.0948 2.33779 22.5748 2.20186 21.9583 2.2145C17.9024 2.33147 14.3649 8.6746 13.4624 12.9012L17.3476 11.6968L18.0415 11.4818C18.5504 8.79789 19.8276 6.01279 21.4984 4.22034C22.0825 3.57805 22.7721 3.04028 23.5374 2.63021H23.539ZM19.962 10.8859L25.5385 9.1567C25.5559 7.7025 25.3978 5.55282 24.6707 4.0354C23.8962 4.35469 23.245 4.91424 22.7771 5.41531C21.5236 6.7636 20.501 8.82002 19.9635 10.8859H19.962ZM27.2851 8.61611L29.8774 7.81157C29.4632 6.46486 28.4801 4.20769 26.4869 3.82834C27.1065 5.42953 27.2661 7.28363 27.2851 8.61611V8.61611Z" fill="#95BF47"/>
<path d="M41.963 10.4686C41.7638 10.4528 37.9039 10.3927 37.9039 10.3927C37.9039 10.3927 34.6746 7.25359 34.3553 6.93272C34.2317 6.81863 34.0751 6.74668 33.908 6.72723V54.763L48.3788 51.1607C48.3788 51.1607 42.4735 11.1847 42.4356 10.9112C42.4173 10.7951 42.3607 10.6884 42.2748 10.6082C42.1888 10.528 42.0785 10.4788 41.9614 10.4686H41.963Z" fill="#5E8E3E"/>
<path d="M25.8878 17.9277L24.206 24.225C24.206 24.225 22.3314 23.3698 20.1074 23.5105C16.8481 23.716 16.8133 25.7756 16.8465 26.2924C17.0235 29.106 24.4225 29.7224 24.8383 36.3185C25.1654 41.5077 22.0895 45.0594 17.6574 45.3376C12.3385 45.6743 9.40958 42.532 9.40958 42.532L10.5366 37.73C10.5366 37.73 13.4845 39.9571 15.8428 39.807C17.3855 39.7105 17.9356 38.4555 17.8803 37.5672C17.6479 33.8953 11.6225 34.1103 11.2415 28.0754C10.9223 22.9936 14.2527 17.8486 21.6043 17.3839C24.4368 17.2037 25.8878 17.9292 25.8878 17.9292" fill="white"/>
</svg>
