<svg width="49" height="49" viewBox="0 0 49 49" fill="none" xmlns="http://www.w3.org/2000/svg">
<path fill-rule="evenodd" clip-rule="evenodd" d="M13.5219 49H5.85315L7.9715 39.6211C10.4565 40.2951 12.9698 40.6323 15.3578 40.7496L13.5219 49ZM47.5501 17.7242C46.4154 23.1457 44.9138 29.4586 44.0695 30.8164C41.2911 35.2832 14.7315 44.0813 0 33.7901C8.42454 32.2258 35.6738 26.6251 47.5501 17.7242ZM19.0755 26.7706C18.5386 26.92 17.9983 27.069 17.4516 27.2189C14.6892 27.972 12.0325 28.638 9.61223 29.2086C7.10549 27.61 3.76766 24.5733 3.67836 22.7689C3.68132 22.749 3.68454 22.7341 3.68788 22.7145C4.11623 21.6331 7.4637 18.2254 13.2438 16.1594C15.5747 15.3243 18.532 14.6285 21.9627 14.5852L19.0755 26.7706ZM48.8195 12.3822C49.018 12.8319 49.0148 13.1347 48.9851 13.3332H48.982C48.9757 13.3812 48.9657 13.4281 48.9562 13.475C48.8162 14.0383 48.3506 14.658 47.6578 15.1928C45.6309 16.7498 42.9593 18.3068 39.6992 19.8297V19.7872C39.6826 18.2825 38.6836 17.1565 36.3706 16.0357C21.2435 8.70137 8.81451 15.1877 4.37644 19.0154C5.76227 13.2297 7.61046 6.92679 8.76567 5.98017C14.8956 0.951018 23.2608 -1.04115 31.7146 0.520057C39.6702 1.98726 46.2229 6.53379 48.8195 12.3822Z" fill="black"/>
</svg>
