<svg width="116" height="49" viewBox="0 0 116 49" fill="none" xmlns="http://www.w3.org/2000/svg">
<path d="M41.4619 27.9362C41.6327 32.5048 45.3441 33.9402 49.2728 33.9402C52.2544 33.9402 56.2918 33.2147 56.2918 29.3098C56.2918 25.3432 51.5711 24.6795 46.8038 23.5374C42.083 22.3952 37.3157 20.7129 37.3157 14.7706C37.3157 8.51968 43.1079 5.94214 48.1548 5.94214C54.5682 5.94214 59.6771 8.10296 60.0653 15.6658H55.2825C54.9408 11.6992 51.6798 10.4336 48.543 10.4336C45.6702 10.4336 42.3625 11.2824 42.3625 14.4002C42.3625 18.0581 47.4249 18.6601 51.8661 19.8022C56.649 20.9444 61.3698 22.6267 61.3698 28.6307C61.3698 36.0238 54.9098 38.4161 49.0088 38.4161C42.4868 38.4161 36.9896 35.5916 36.7101 27.9053L41.4619 27.9362Z" fill="#0378CD"/>
<path d="M81.8056 26.9177C81.8056 29.7422 79.2123 33.9403 72.9232 33.9403C70.0037 33.9403 67.3017 32.7365 67.3017 29.3718C67.3017 25.5903 70.0037 24.3864 73.1406 23.7845C76.3395 23.1826 79.9422 23.1208 81.7901 21.6854V26.9177H81.8056ZM89.57 33.6471C88.9489 33.894 88.4985 33.9403 88.1103 33.9403C86.5885 33.9403 86.5885 32.8599 86.5885 30.4522V14.493C86.5885 7.22339 80.9205 5.95776 75.6873 5.95776C69.2273 5.95776 63.6525 8.65879 63.373 16.3451H68.1558C68.3888 11.7765 71.3548 10.4646 75.4078 10.4646C78.4359 10.4646 81.8677 11.19 81.8677 15.6351C81.8677 19.4783 77.3799 19.1233 72.0846 20.2037C67.1465 21.2224 62.2549 22.7195 62.2549 29.7576C62.2549 35.9468 66.5874 38.4626 71.8672 38.4626C75.9047 38.4626 79.4452 36.9655 82.0851 33.6625C82.0851 37.0272 83.6691 38.4626 86.1382 38.4626C87.66 38.4626 88.7159 38.1694 89.57 37.6292V33.6471Z" fill="#0378CD"/>
<path d="M93.9957 27.9362C94.1665 32.5048 97.8779 33.9402 101.807 33.9402C104.788 33.9402 108.826 33.2147 108.826 29.3098C108.826 25.3432 104.105 24.6795 99.3221 23.5374C94.6013 22.3952 89.8185 20.7129 89.8185 14.7706C89.8185 8.51968 95.6107 5.94214 100.658 5.94214C107.071 5.94214 112.18 8.10296 112.568 15.6658H107.785C107.444 11.6992 104.183 10.4336 101.046 10.4336C98.173 10.4336 94.8653 11.2824 94.8653 14.4002C94.8653 18.0581 99.9277 18.6601 104.369 19.8022C109.152 20.9444 113.873 22.6267 113.873 28.6307C113.873 36.0238 107.413 38.4161 101.512 38.4161C94.9896 38.4161 89.4768 35.5916 89.1973 27.9053L93.9957 27.9362Z" fill="#0378CD"/>
<path d="M21.3366 15.1719L20.5446 14.215C19.4421 12.9031 17.6407 12.9185 16.3208 13.9989C14.9853 15.0948 14.5971 16.9006 15.6996 18.2279C15.6996 18.2279 15.8394 18.3823 16.0568 18.6601" fill="#0378CD"/>
<path d="M16.0257 18.6447C18.5569 21.6698 21.9577 25.7291 21.9577 25.7291C26.1971 30.8379 24.3026 37.1505 18.5569 40.7313C13.4945 43.8954 4.19279 42.7687 0.993866 37.5827C3.47847 44.8677 11.8019 49.6215 21.0105 47.3372C28.9923 45.3616 37.9213 35.1441 28.1692 23.383L20.9018 14.6626" fill="#0378CD"/>
<path d="M16.8022 29.5877C14.3486 26.6398 11.336 23.0436 11.336 23.0436C7.09666 17.9348 8.99118 11.6221 14.7368 8.04131C19.7992 4.87726 29.1009 6.00397 32.2999 11.1899C29.8153 3.90489 21.4918 -0.848909 12.2677 1.43538C4.30148 3.42642 -4.62757 13.6286 5.12451 25.405L12.0348 33.7087" fill="#0378CD"/>
<path d="M10.9478 32.4277L12.5939 34.4033C13.6964 35.7152 15.4977 35.6998 16.8177 34.6194C18.1532 33.5236 18.5414 31.7177 17.4388 30.3904C17.4388 30.3904 16.7866 29.6187 15.8549 28.4919" fill="#0378CD"/>
<path d="M111.931 37.6446C111.931 36.7802 112.584 36.1165 113.438 36.1165C114.261 36.1165 114.929 36.7648 114.929 37.6446C114.929 38.5243 114.261 39.1726 113.438 39.1726C112.584 39.188 111.931 38.5398 111.931 37.6446ZM113.438 39.4813C114.447 39.4813 115.301 38.7095 115.301 37.6446C115.301 36.595 114.447 35.8079 113.438 35.8079C112.428 35.8079 111.559 36.5796 111.559 37.6446C111.559 38.7095 112.413 39.4813 113.438 39.4813ZM113.034 37.7989H113.407L113.966 38.725H114.323L113.717 37.7989C114.028 37.768 114.276 37.5983 114.276 37.2124C114.276 36.7957 114.028 36.6105 113.531 36.6105H112.723V38.725H113.05L113.034 37.7989ZM113.034 37.5211V36.8574H113.469C113.702 36.8574 113.935 36.9037 113.935 37.1661C113.935 37.4902 113.702 37.5056 113.422 37.5056H113.034V37.5211Z" fill="#0378CD"/>
<path d="M33.4956 37.6446C33.4956 36.7802 34.1478 36.1165 35.0019 36.1165C35.8404 36.1165 36.4926 36.7648 36.4926 37.6446C36.4926 38.5243 35.8249 39.1726 35.0019 39.1726C34.1478 39.188 33.4956 38.5398 33.4956 37.6446ZM35.0019 39.4813C36.0112 39.4813 36.8653 38.7095 36.8653 37.6446C36.8653 36.595 36.0112 35.8079 35.0019 35.8079C33.9925 35.8079 33.1229 36.5796 33.1229 37.6446C33.1229 38.7095 33.9925 39.4813 35.0019 39.4813ZM34.6137 37.7989H34.9863L35.5454 38.725H35.9025L35.2969 37.7989C35.6075 37.768 35.856 37.5983 35.856 37.2124C35.856 36.7957 35.6075 36.6105 35.095 36.6105H34.2876V38.725H34.6137V37.7989ZM34.6137 37.5211V36.8574H35.0485C35.2814 36.8574 35.5143 36.9037 35.5143 37.1661C35.5143 37.4902 35.2814 37.5056 35.0019 37.5056H34.6137V37.5211Z" fill="#0378CD"/>
</svg>
