<svg width="66" height="22" viewBox="0 0 66 22" fill="none" xmlns="http://www.w3.org/2000/svg">
<g clip-path="url(#clip0_423_418)">
<path d="M42.9782 0.0330811C38.2966 0.0330811 34.113 2.45963 34.113 6.94286C34.113 12.0843 41.5329 12.4394 41.5329 15.0223C41.5329 16.1099 40.2865 17.0834 38.1578 17.0834C35.1368 17.0834 32.8789 15.7231 32.8789 15.7231L31.9128 20.2471C31.9128 20.2471 34.5139 21.3962 37.9672 21.3962C43.0856 21.3962 47.1132 18.8505 47.1132 14.2906C47.1132 8.85778 39.6624 8.51322 39.6624 6.11585C39.6624 5.26391 40.6856 4.33044 42.8082 4.33044C45.2031 4.33044 47.157 5.31976 47.157 5.31976L48.1026 0.950263C48.1026 0.950263 45.9765 0.0330811 42.9782 0.0330811V0.0330811ZM0.146349 0.362855L0.0329895 1.0224C0.0329895 1.0224 2.00253 1.38286 3.77643 2.10189C6.06047 2.92641 6.22317 3.4064 6.60784 4.89723L10.7996 21.0561H16.4186L25.0751 0.362855H19.469L13.9066 14.4323L11.6369 2.50638C11.4287 1.14147 10.3743 0.362855 9.08371 0.362855H0.146349V0.362855ZM27.3294 0.362855L22.9316 21.0561H28.2775L32.6599 0.362855H27.3294V0.362855ZM57.1456 0.362855C55.8565 0.362855 55.1735 1.05301 54.6723 2.25905L46.8402 21.0561H52.4463L53.5309 17.9233H60.3608L61.0204 21.0561H65.967L61.6516 0.362855H57.1456V0.362855ZM57.8747 5.95354L59.5364 13.7187H55.0845L57.8747 5.95354V5.95354Z" fill="#1434CB"/>
</g>
<defs>
<clipPath id="clip0_423_418">
<rect width="66" height="21.4291" fill="white"/>
</clipPath>
</defs>
</svg>
