<svg width="63" height="45" viewBox="0 0 63 45" fill="none" xmlns="http://www.w3.org/2000/svg">
<g clip-path="url(#clip0_364:616)">
<mask id="mask0_364:616" style="mask-type:alpha" maskUnits="userSpaceOnUse" x="0" y="0" width="63" height="45">
<path d="M0.0138474 0.115356H62.8071V44.0631H0.0138474V0.115356Z" fill="white"/>
</mask>
<g mask="url(#mask0_364:616)">
<path fill-rule="evenodd" clip-rule="evenodd" d="M26.1365 4.91005C28.1619 2.7999 30.9822 1.49051 34.101 1.49051C38.2468 1.49051 41.8643 3.80236 43.7901 7.23482C45.5132 6.46487 47.3796 6.06804 49.2669 6.07036C56.7448 6.07036 62.8071 12.1855 62.8071 19.7294C62.8071 27.2732 56.7448 33.3886 49.2669 33.3886C48.3538 33.3886 47.4621 33.2967 46.5995 33.1227C44.9035 36.1479 41.6705 38.1923 37.9606 38.1923C36.4601 38.1944 34.9789 37.8534 33.6302 37.1956C31.911 41.2407 27.9039 44.0769 23.2352 44.0769C18.3722 44.0769 14.2276 41.0003 12.6378 36.6854C11.9293 36.8349 11.2071 36.91 10.4829 36.9097C4.69315 36.9097 0 32.1674 0 26.3176C0 22.3968 2.10831 18.9738 5.24192 17.1427C4.578 15.6139 4.23636 13.9646 4.23831 12.2979C4.23831 5.56982 9.69992 0.115356 16.437 0.115356C20.3924 0.115356 23.9077 1.99566 26.1365 4.91005" fill="#00A1E0"/>
<path fill-rule="evenodd" clip-rule="evenodd" d="M9.09692 22.9128C9.05746 23.0158 9.111 23.0372 9.12369 23.0555C9.24161 23.1408 9.36138 23.2027 9.48231 23.2721C10.1227 23.6111 10.728 23.7106 11.3603 23.7106C12.6487 23.7106 13.449 23.0257 13.449 21.9226V21.9009C13.449 20.8809 12.5455 20.5103 11.6988 20.2428L11.5883 20.2071C10.9498 19.9998 10.3987 19.8205 10.3987 19.3998V19.3784C10.3987 19.0181 10.7208 18.7535 11.22 18.7535C11.775 18.7535 12.4327 18.9378 12.8568 19.1721C12.8568 19.1721 12.9819 19.2528 13.0274 19.1321C13.0521 19.0668 13.2665 18.4895 13.2893 18.4269C13.3138 18.3593 13.2708 18.3083 13.2268 18.282C12.7424 17.9868 12.0734 17.7861 11.3808 17.7861L11.2523 17.7865C10.0731 17.7865 9.24969 18.4996 9.24969 19.5201V19.542C9.24969 20.6174 10.158 20.967 11.0088 21.21L11.1455 21.2525C11.7651 21.4426 12.3002 21.6069 12.3002 22.0428V22.0645C12.3002 22.4638 11.9525 22.7603 11.3924 22.7603C11.1752 22.7603 10.482 22.7566 9.73292 22.2828C9.64223 22.23 9.59054 22.1919 9.52061 22.1492C9.48369 22.1268 9.39138 22.0865 9.35123 22.2074L9.09692 22.9128V22.9128ZM27.9577 22.9128C27.9182 23.0158 27.9718 23.0372 27.9849 23.0555C28.1024 23.1408 28.2224 23.2027 28.3431 23.2721C28.9837 23.6111 29.589 23.7106 30.2211 23.7106C31.5095 23.7106 32.31 23.0257 32.31 21.9226V21.9009C32.31 20.8809 31.4068 20.5103 30.5598 20.2428L30.4493 20.2071C29.8108 19.9998 29.2595 19.8205 29.2595 19.3998V19.3784C29.2595 19.0181 29.5818 18.7535 30.0812 18.7535C30.636 18.7535 31.2935 18.9378 31.7176 19.1721C31.7176 19.1721 31.8427 19.2528 31.8884 19.1321C31.9128 19.0668 32.1275 18.4895 32.1501 18.4269C32.1748 18.3593 32.1316 18.3083 32.0878 18.282C31.6032 17.9868 30.9344 17.7861 30.2418 17.7861L30.1131 17.7865C28.9341 17.7865 28.1107 18.4996 28.1107 19.5201V19.542C28.1107 20.6174 29.0188 20.967 29.8698 21.21L30.0062 21.2525C30.6261 21.4426 31.1612 21.6069 31.1612 22.0428V22.0645C31.1612 22.4638 30.8132 22.7603 30.2536 22.7603C30.036 22.7603 29.3428 22.7566 28.5939 22.2828C28.5032 22.23 28.4502 22.1935 28.3814 22.1492C28.3581 22.1345 28.2494 22.092 28.2122 22.2074L27.9577 22.9128V22.9128ZM40.8335 20.7519C40.8335 21.375 40.7172 21.867 40.4887 22.2138C40.2616 22.5577 39.9189 22.725 39.441 22.725C38.9631 22.725 38.6222 22.5579 38.3988 22.2143C38.1734 21.8672 38.0589 21.375 38.0589 20.7519C38.0589 20.1293 38.1734 19.6389 38.3988 19.2955C38.6222 18.9551 38.9631 18.7899 39.441 18.7899C39.9189 18.7899 40.2616 18.9554 40.4887 19.2958C40.7176 19.6389 40.8335 20.1293 40.8335 20.7519ZM41.9093 19.5965C41.8034 19.239 41.6388 18.9245 41.4198 18.6621C41.2004 18.399 40.9228 18.1874 40.5937 18.0341C40.2651 17.8807 39.8774 17.8029 39.441 17.8029C39.0046 17.8029 38.6167 17.8807 38.2878 18.0341C37.9592 18.1874 37.6814 18.399 37.4619 18.6625C37.2432 18.9254 37.0782 19.2395 36.9727 19.5965C36.8677 19.9511 36.8144 20.34 36.8144 20.7519C36.8144 21.1641 36.8677 21.5531 36.9727 21.9074C37.0782 22.2641 37.2427 22.5785 37.4622 22.8418C37.6816 23.1053 37.9602 23.3151 38.2883 23.4646C38.6174 23.6141 39.0051 23.6903 39.441 23.6903C39.8772 23.6903 40.2644 23.6141 40.5932 23.4646C40.9218 23.3151 41.1999 23.1053 41.4198 22.8418C41.6388 22.5794 41.8034 22.2646 41.9093 21.9074C42.0141 21.5525 42.0674 21.1636 42.0674 20.7519C42.0674 20.3405 42.0141 19.9514 41.9093 19.5965V19.5965ZM50.7402 22.5581C50.7048 22.4536 50.6028 22.4931 50.6028 22.4931C50.4466 22.5528 50.2805 22.6082 50.1028 22.6359C49.9237 22.6641 49.7255 22.6781 49.5134 22.6781C48.9935 22.6781 48.5792 22.5233 48.2836 22.2173C47.9866 21.9111 47.8198 21.4163 47.8216 20.7471C47.8232 20.1388 47.9705 19.6805 48.2345 19.3311C48.4962 18.984 48.8958 18.8058 49.4273 18.8058C49.8711 18.8058 50.2096 18.8573 50.5643 18.9685C50.5643 18.9685 50.6485 19.0052 50.6889 18.8942C50.7833 18.6328 50.853 18.4468 50.9536 18.1595C50.9822 18.0775 50.9121 18.0429 50.8865 18.033C50.7471 17.9785 50.4178 17.8892 50.1692 17.8516C49.9368 17.8161 49.6652 17.7976 49.3622 17.7976C48.9106 17.7976 48.5079 17.8749 48.1636 18.0281C47.82 18.1811 47.5285 18.3925 47.2975 18.6554C47.0665 18.9187 46.8907 19.2332 46.7744 19.59C46.6578 19.9449 46.599 20.3345 46.599 20.7475C46.599 21.6395 46.8397 22.3601 47.3144 22.8881C47.7907 23.418 48.5052 23.6871 49.4377 23.6871C49.9885 23.6871 50.5537 23.5756 50.9608 23.4155C50.9608 23.4155 51.0383 23.3781 51.0046 23.2876L50.7402 22.5581V22.5581ZM52.6218 20.1545C52.6733 19.8081 52.7682 19.5203 52.9161 19.2955C53.1392 18.9551 53.4789 18.7675 53.9568 18.7675C54.435 18.7675 54.75 18.9554 54.9771 19.2958C55.1271 19.5208 55.1926 19.8205 55.2182 20.1549L52.6218 20.1545V20.1545ZM56.2424 19.3936C56.1508 19.0488 55.9251 18.7006 55.7767 18.5414C55.5425 18.2889 55.3131 18.1121 55.0853 18.0145C54.7557 17.8744 54.4011 17.8025 54.0429 17.8029C53.5885 17.8029 53.1757 17.8798 52.8408 18.0367C52.5055 18.1941 52.2238 18.4091 52.0029 18.6764C51.7816 18.9434 51.6157 19.2611 51.5098 19.6216C51.4036 19.98 51.3501 20.3707 51.3501 20.7833C51.3501 21.2028 51.4057 21.594 51.5151 21.9457C51.6256 22.3004 51.8031 22.6117 52.0426 22.8708C52.2819 23.1309 52.59 23.3349 52.9581 23.4771C53.3243 23.619 53.7692 23.6926 54.2795 23.691C55.3313 23.6875 55.8845 23.4531 56.1129 23.3268C56.1533 23.3042 56.1914 23.2652 56.1438 23.1528L55.9057 22.4864C55.8692 22.3869 55.7686 22.4229 55.7686 22.4229C55.5076 22.5203 55.1382 22.6941 54.2742 22.6922C53.7097 22.6913 53.2915 22.5245 53.0287 22.2639C52.7598 21.9974 52.6278 21.606 52.6055 21.0531L56.2452 21.0558C56.2452 21.0558 56.3412 21.0549 56.3511 20.9612C56.355 20.9225 56.4759 20.2135 56.2424 19.3936V19.3936ZM23.4667 20.1545C23.5182 19.8081 23.6132 19.5203 23.7609 19.2955C23.9843 18.9551 24.3235 18.7675 24.8019 18.7675C25.2801 18.7675 25.5951 18.9554 25.8222 19.2958C25.9719 19.5208 26.0375 19.8205 26.0631 20.1549L23.4667 20.1545V20.1545ZM27.0872 19.3936C26.9958 19.0488 26.7699 18.7006 26.6218 18.5414C26.3875 18.2889 26.1584 18.1121 25.9304 18.0145C25.6007 17.8745 25.2462 17.8025 24.888 17.8029C24.4336 17.8029 24.0208 17.8798 23.6859 18.0367C23.3506 18.1941 23.0688 18.4091 22.8475 18.6764C22.6267 18.9434 22.4608 19.2611 22.3544 19.6216C22.2485 19.98 22.1952 20.3707 22.1952 20.7833C22.1952 21.2028 22.2503 21.594 22.3604 21.9457C22.4707 22.3004 22.6484 22.6117 22.8875 22.8708C23.127 23.1309 23.4348 23.3349 23.8029 23.4771C24.1694 23.619 24.6138 23.6926 25.1245 23.691C26.1762 23.6875 26.7295 23.4531 26.958 23.3268C26.9982 23.3042 27.0365 23.2652 26.9887 23.1528L26.7508 22.4864C26.7141 22.3869 26.6135 22.4229 26.6135 22.4229C26.3527 22.5203 25.9832 22.6941 25.119 22.6922C24.5548 22.6913 24.1364 22.5245 23.8735 22.2639C23.6049 21.9974 23.4727 21.606 23.4503 21.0531L27.0902 21.0558C27.0902 21.0558 27.1862 21.0549 27.1962 20.9612C27.2001 20.9225 27.321 20.2135 27.0872 19.3936V19.3936ZM15.5982 22.5383C15.4553 22.4243 15.4355 22.3964 15.3882 22.3223C15.3159 22.2108 15.279 22.0521 15.279 21.8488C15.279 21.5291 15.3852 21.2988 15.6039 21.1442C15.6016 21.1447 15.9178 20.8715 16.6597 20.8811C16.9907 20.887 17.3209 20.9152 17.6481 20.9654V22.62H17.6485C17.6485 22.62 17.1858 22.7195 16.665 22.7508C15.9247 22.7954 15.5958 22.5376 15.5982 22.5383V22.5383ZM17.0467 19.98C16.899 19.9691 16.7077 19.9638 16.4783 19.9638C16.1665 19.9638 15.8649 20.0026 15.5818 20.0788C15.2975 20.1554 15.0418 20.274 14.8218 20.4311C14.6021 20.5882 14.4213 20.7936 14.2936 21.0316C14.1646 21.2718 14.0988 21.5541 14.0988 21.8705C14.0988 22.1933 14.1549 22.473 14.2657 22.7015C14.3741 22.928 14.5372 23.1239 14.7404 23.2715C14.9428 23.4187 15.1925 23.5267 15.4821 23.5927C15.768 23.658 16.092 23.691 16.446 23.691C16.8198 23.691 17.1916 23.6596 17.5518 23.5989C17.8587 23.546 18.1644 23.4866 18.4687 23.4208C18.5901 23.3928 18.7239 23.3561 18.7239 23.3561C18.8139 23.3333 18.807 23.2371 18.807 23.2371L18.8049 19.908C18.8049 19.1778 18.6102 18.6369 18.2264 18.3009C17.8445 17.9665 17.2821 17.7976 16.5545 17.7976C16.2812 17.7976 15.8423 17.8345 15.5788 17.8874C15.5788 17.8874 14.784 18.0415 14.4568 18.2979C14.4568 18.2979 14.3848 18.3422 14.424 18.4426L14.6818 19.1349C14.7138 19.2247 14.8013 19.194 14.8013 19.194C14.8013 19.194 14.8288 19.1831 14.8611 19.164C15.5612 18.7832 16.4472 18.7945 16.4472 18.7945C16.8404 18.7945 17.1434 18.8741 17.3469 19.0299C17.5456 19.1825 17.6465 19.4121 17.6465 19.8974V20.0513C17.3342 20.0061 17.0467 19.98 17.0467 19.98V19.98ZM46.4086 18.1045C46.4139 18.0924 46.4166 18.0793 46.4167 18.066C46.4168 18.0528 46.4142 18.0396 46.4091 18.0274C46.404 18.0152 46.3965 18.0041 46.387 17.9948C46.3775 17.9856 46.3663 17.9783 46.3539 17.9735C46.2918 17.9499 45.9824 17.8846 45.7438 17.8698C45.2862 17.8412 45.0325 17.9183 44.805 18.0208C44.5793 18.1225 44.3294 18.2871 44.19 18.4747L44.1895 18.0307C44.1895 17.9698 44.1464 17.9206 44.085 17.9206H43.1518C43.0913 17.9206 43.0475 17.9698 43.0475 18.0307V23.4611C43.0475 23.4904 43.0592 23.5185 43.0799 23.5392C43.1006 23.56 43.1287 23.5716 43.158 23.5717H44.1145C44.1438 23.5716 44.1719 23.56 44.1926 23.5392C44.2132 23.5185 44.2248 23.4904 44.2248 23.4611V20.7485C44.2248 20.3841 44.265 20.0211 44.3451 19.7928C44.424 19.5669 44.5313 19.3869 44.6642 19.2575C44.7902 19.1325 44.9444 19.0397 45.1138 18.987C45.2725 18.9414 45.4369 18.9183 45.6021 18.9182C45.7925 18.9182 46.002 18.9671 46.002 18.9671C46.0722 18.975 46.1112 18.9321 46.1349 18.8688C46.1975 18.7025 46.3747 18.2038 46.4086 18.1045" fill="#FFFFFE"/>
<path fill-rule="evenodd" clip-rule="evenodd" d="M37.431 15.588C37.3129 15.5523 37.1928 15.5238 37.0712 15.5026C36.9078 15.4753 36.7422 15.4625 36.5765 15.4643C35.9181 15.4643 35.3991 15.6503 35.0347 16.0177C34.6728 16.3823 34.4266 16.9377 34.3032 17.6686L34.2586 17.9153H33.4322C33.4322 17.9153 33.3314 17.9111 33.3102 18.0212L33.1745 18.7781C33.165 18.8506 33.1962 18.8958 33.2931 18.8954H34.0975L33.2813 23.4514C33.2174 23.8184 33.1442 24.1202 33.0632 24.3489C32.9834 24.5746 32.9054 24.7437 32.8094 24.8665C32.7164 24.9854 32.6282 25.0728 32.4762 25.1238C32.3506 25.166 32.2062 25.1854 32.0478 25.1854C31.9597 25.1854 31.8425 25.1707 31.7559 25.1534C31.6694 25.1363 31.6244 25.1169 31.5595 25.0897C31.5595 25.0897 31.4652 25.0537 31.428 25.1483C31.3978 25.2256 31.1834 25.8152 31.158 25.8881C31.1322 25.9601 31.1684 26.0169 31.2141 26.0333C31.3212 26.0716 31.4008 26.096 31.5466 26.1304C31.7492 26.1782 31.92 26.1812 32.0799 26.1812C32.415 26.1812 32.7203 26.1341 32.9735 26.0427C33.2282 25.9507 33.45 25.7903 33.6462 25.5731C33.8582 25.3389 33.9916 25.0936 34.1192 24.759C34.2455 24.4274 34.353 24.0157 34.4391 23.5359L35.2592 18.8954H36.4583C36.4583 18.8954 36.5594 18.899 36.5804 18.7894L36.7161 18.0325C36.7255 17.96 36.6946 17.9148 36.5972 17.9153H35.4335C35.4392 17.889 35.4921 17.4796 35.6257 17.0942C35.6827 16.9297 35.79 16.797 35.8809 16.7058C35.9658 16.619 36.0704 16.5539 36.1858 16.5161C36.3122 16.477 36.4441 16.458 36.5765 16.4598C36.6861 16.4598 36.7936 16.473 36.8755 16.49C36.9884 16.514 37.0322 16.5267 37.0618 16.5355C37.1804 16.5717 37.1963 16.5367 37.2196 16.4792L37.4979 15.7149C37.5265 15.6327 37.4568 15.5981 37.431 15.588V15.588ZM21.1678 23.4611C21.1678 23.522 21.1244 23.5717 21.0635 23.5717H20.0982C20.037 23.5717 19.9936 23.522 19.9936 23.4611V15.6916C19.9936 15.6309 20.037 15.5817 20.0982 15.5817H21.0635C21.1244 15.5817 21.1678 15.6309 21.1678 15.6916V23.4611" fill="#FFFFFE"/>
</g>
</g>
<defs>
<clipPath id="clip0_364:616">
<rect width="63" height="44.0769" fill="white"/>
</clipPath>
</defs>
</svg>
