<svg width="63" height="46" viewBox="0 0 63 46" fill="none" xmlns="http://www.w3.org/2000/svg">
<g clip-path="url(#clip0_4877_26286)">
<mask id="mask0_4877_26286" style="mask-type:luminance" maskUnits="userSpaceOnUse" x="0" y="0" width="63" height="45">
<path d="M63 0.5H0V44.5769H63V0.5Z" fill="white"/>
</mask>
<g mask="url(#mask0_4877_26286)">
<mask id="mask1_4877_26286" style="mask-type:alpha" maskUnits="userSpaceOnUse" x="0" y="0" width="63" height="45">
<path d="M0.015625 0.617188H62.8089V44.5649H0.015625V0.617188Z" fill="white"/>
</mask>
<g mask="url(#mask1_4877_26286)">
<path fill-rule="evenodd" clip-rule="evenodd" d="M26.1365 5.41188C28.1619 3.30173 30.9822 1.99234 34.101 1.99234C38.2468 1.99234 41.8643 4.30419 43.7901 7.73665C45.5132 6.9667 47.3796 6.56987 49.2669 6.57219C56.7448 6.57219 62.8071 12.6873 62.8071 20.2312C62.8071 27.775 56.7448 33.8904 49.2669 33.8904C48.3538 33.8904 47.4621 33.7985 46.5995 33.6245C44.9035 36.6497 41.6705 38.6941 37.9606 38.6941C36.4601 38.6962 34.9789 38.3552 33.6302 37.6974C31.911 41.7425 27.9039 44.5787 23.2352 44.5787C18.3722 44.5787 14.2276 41.5021 12.6378 37.1872C11.9293 37.3367 11.2071 37.4118 10.4829 37.4115C4.69315 37.4115 0 32.6692 0 26.8194C0 22.8986 2.10831 19.4756 5.24192 17.6445C4.578 16.1157 4.23636 14.4664 4.23831 12.7997C4.23831 6.07165 9.69992 0.617188 16.437 0.617188C20.3924 0.617188 23.9077 2.49749 26.1365 5.41188Z" fill="#7D7E8E"/>
<path fill-rule="evenodd" clip-rule="evenodd" d="M9.0924 23.4158C9.05294 23.5188 9.10648 23.5402 9.11917 23.5585C9.23709 23.6438 9.35686 23.7057 9.47779 23.7751C10.1182 24.1141 10.7235 24.2136 11.3558 24.2136C12.6442 24.2136 13.4445 23.5287 13.4445 22.4256V22.4039C13.4445 21.3839 12.541 21.0133 11.6943 20.7458L11.5838 20.7101C10.9453 20.5028 10.3942 20.3235 10.3942 19.9028V19.8814C10.3942 19.5211 10.7163 19.2565 11.2155 19.2565C11.7705 19.2565 12.4282 19.4408 12.8523 19.6751C12.8523 19.6751 12.9774 19.7558 13.0229 19.6351C13.0476 19.5698 13.262 18.9925 13.2848 18.9299C13.3093 18.8623 13.2663 18.8113 13.2223 18.785C12.7379 18.4898 12.0689 18.2891 11.3763 18.2891L11.2478 18.2895C10.0686 18.2895 9.24517 19.0026 9.24517 20.0231V20.045C9.24517 21.1204 10.1535 21.47 11.0043 21.713L11.141 21.7555C11.7606 21.9456 12.2957 22.1099 12.2957 22.5458V22.5675C12.2957 22.9668 11.948 23.2633 11.3879 23.2633C11.1707 23.2633 10.4775 23.2596 9.7284 22.7858C9.63771 22.733 9.58602 22.6949 9.51609 22.6522C9.47917 22.6298 9.38686 22.5895 9.34671 22.7104L9.0924 23.4158ZM27.9532 23.4158C27.9137 23.5188 27.9673 23.5402 27.9804 23.5585C28.0979 23.6438 28.2179 23.7057 28.3386 23.7751C28.9792 24.1141 29.5845 24.2136 30.2166 24.2136C31.505 24.2136 32.3055 23.5287 32.3055 22.4256V22.4039C32.3055 21.3839 31.4023 21.0133 30.5553 20.7458L30.4448 20.7101C29.8063 20.5028 29.255 20.3235 29.255 19.9028V19.8814C29.255 19.5211 29.5773 19.2565 30.0767 19.2565C30.6315 19.2565 31.289 19.4408 31.7131 19.6751C31.7131 19.6751 31.8382 19.7558 31.8839 19.6351C31.9083 19.5698 32.123 18.9925 32.1456 18.9299C32.1703 18.8623 32.1271 18.8113 32.0833 18.785C31.5987 18.4898 30.9299 18.2891 30.2373 18.2891L30.1086 18.2895C28.9296 18.2895 28.1062 19.0026 28.1062 20.0231V20.045C28.1062 21.1204 29.0143 21.47 29.8653 21.713L30.0017 21.7555C30.6216 21.9456 31.1567 22.1099 31.1567 22.5458V22.5675C31.1567 22.9668 30.8087 23.2633 30.2491 23.2633C30.0315 23.2633 29.3383 23.2596 28.5894 22.7858C28.4987 22.733 28.4457 22.6965 28.3769 22.6522C28.3536 22.6375 28.2449 22.595 28.2077 22.7104L27.9532 23.4158ZM40.829 21.2549C40.829 21.878 40.7127 22.37 40.4842 22.7168C40.2571 23.0607 39.9144 23.228 39.4365 23.228C38.9586 23.228 38.6177 23.0609 38.3943 22.7173C38.1689 22.3702 38.0544 21.878 38.0544 21.2549C38.0544 20.6323 38.1689 20.1419 38.3943 19.7985C38.6177 19.4581 38.9586 19.2929 39.4365 19.2929C39.9144 19.2929 40.2571 19.4584 40.4842 19.7988C40.7131 20.1419 40.829 20.6323 40.829 21.2549ZM41.9048 20.0995C41.7989 19.742 41.6343 19.4275 41.4153 19.1651C41.1959 18.902 40.9183 18.6904 40.5892 18.5371C40.2606 18.3837 39.8729 18.3059 39.4365 18.3059C39.0001 18.3059 38.6122 18.3837 38.2833 18.5371C37.9547 18.6904 37.6769 18.902 37.4574 19.1655C37.2387 19.4284 37.0737 19.7425 36.9682 20.0995C36.8632 20.4541 36.8099 20.843 36.8099 21.2549C36.8099 21.6671 36.8632 22.0561 36.9682 22.4104C37.0737 22.7671 37.2382 23.0815 37.4577 23.3448C37.6771 23.6083 37.9557 23.8181 38.2838 23.9676C38.6129 24.1171 39.0006 24.1933 39.4365 24.1933C39.8727 24.1933 40.2599 24.1171 40.5887 23.9676C40.9173 23.8181 41.1954 23.6083 41.4153 23.3448C41.6343 23.0824 41.7989 22.7676 41.9048 22.4104C42.0096 22.0555 42.0629 21.6666 42.0629 21.2549C42.0629 20.8435 42.0096 20.4544 41.9048 20.0995ZM50.7357 23.0611C50.7003 22.9566 50.5983 22.9961 50.5983 22.9961C50.4421 23.0558 50.276 23.1112 50.0983 23.1389C49.9192 23.1671 49.721 23.1811 49.5089 23.1811C48.989 23.1811 48.5747 23.0263 48.2791 22.7203C47.9821 22.4141 47.8153 21.9193 47.8171 21.2501C47.8187 20.6418 47.966 20.1835 48.23 19.8341C48.4917 19.487 48.8913 19.3088 49.4228 19.3088C49.8666 19.3088 50.2051 19.3603 50.5598 19.4715C50.5598 19.4715 50.644 19.5082 50.6844 19.3972C50.7788 19.1358 50.8485 18.9498 50.9491 18.6625C50.9777 18.5805 50.9076 18.5459 50.882 18.536C50.7426 18.4815 50.4133 18.3922 50.1647 18.3546C49.9323 18.3191 49.6607 18.3006 49.3577 18.3006C48.9061 18.3006 48.5034 18.3779 48.1591 18.5311C47.8155 18.6841 47.524 18.8955 47.293 19.1584C47.062 19.4217 46.8862 19.7362 46.7699 20.093C46.6533 20.4479 46.5945 20.8375 46.5945 21.2505C46.5945 22.1425 46.8352 22.8631 47.3099 23.3911C47.7862 23.921 48.5007 24.1901 49.4332 24.1901C49.984 24.1901 50.5492 24.0786 50.9563 23.9185C50.9563 23.9185 51.0338 23.8811 51.0001 23.7906L50.7357 23.0611ZM52.6173 20.6575C52.6688 20.3111 52.7637 20.0233 52.9116 19.7985C53.1347 19.4581 53.4744 19.2705 53.9523 19.2705C54.4305 19.2705 54.7455 19.4584 54.9726 19.7988C55.1226 20.0238 55.1881 20.3235 55.2137 20.6579L52.6173 20.6575ZM56.2379 19.8966C56.1463 19.5518 55.9206 19.2036 55.7722 19.0444C55.538 18.7919 55.3086 18.6151 55.0808 18.5175C54.7512 18.3774 54.3966 18.3055 54.0384 18.3059C53.584 18.3059 53.1712 18.3828 52.8363 18.5397C52.501 18.6971 52.2193 18.9121 51.9984 19.1794C51.7771 19.4464 51.6112 19.7641 51.5053 20.1246C51.3991 20.483 51.3456 20.8737 51.3456 21.2863C51.3456 21.7058 51.4012 22.097 51.5106 22.4487C51.6211 22.8034 51.7986 23.1147 52.0381 23.3738C52.2774 23.6339 52.5855 23.8379 52.9536 23.9801C53.3198 24.122 53.7647 24.1956 54.275 24.194C55.3268 24.1905 55.88 23.9561 56.1084 23.8298C56.1488 23.8072 56.1869 23.7682 56.1393 23.6558L55.9012 22.9894C55.8647 22.8899 55.7641 22.9259 55.7641 22.9259C55.5031 23.0233 55.1337 23.1971 54.2697 23.1952C53.7052 23.1943 53.287 23.0275 53.0242 22.7669C52.7553 22.5004 52.6233 22.109 52.601 21.5561L56.2407 21.5588C56.2407 21.5588 56.3367 21.5579 56.3466 21.4642C56.3505 21.4255 56.4714 20.7165 56.2379 19.8966ZM23.4622 20.6575C23.5137 20.3111 23.6087 20.0233 23.7564 19.7985C23.9798 19.4581 24.319 19.2705 24.7974 19.2705C25.2756 19.2705 25.5906 19.4584 25.8177 19.7988C25.9674 20.0238 26.033 20.3235 26.0586 20.6579L23.4622 20.6575ZM27.0827 19.8966C26.9913 19.5518 26.7654 19.2036 26.6173 19.0444C26.383 18.7919 26.1539 18.6151 25.9259 18.5175C25.5962 18.3775 25.2417 18.3055 24.8835 18.3059C24.4291 18.3059 24.0163 18.3828 23.6814 18.5397C23.3461 18.6971 23.0643 18.9121 22.843 19.1794C22.6222 19.4464 22.4563 19.7641 22.3499 20.1246C22.244 20.483 22.1907 20.8737 22.1907 21.2863C22.1907 21.7058 22.2458 22.097 22.3559 22.4487C22.4662 22.8034 22.6439 23.1147 22.883 23.3738C23.1225 23.6339 23.4303 23.8379 23.7984 23.9801C24.1649 24.122 24.6093 24.1956 25.12 24.194C26.1717 24.1905 26.725 23.9561 26.9535 23.8298C26.9937 23.8072 27.032 23.7682 26.9842 23.6558L26.7463 22.9894C26.7096 22.8899 26.609 22.9259 26.609 22.9259C26.3482 23.0233 25.9787 23.1971 25.1145 23.1952C24.5503 23.1943 24.1319 23.0275 23.869 22.7669C23.6004 22.5004 23.4682 22.109 23.4458 21.5561L27.0857 21.5588C27.0857 21.5588 27.1817 21.5579 27.1917 21.4642C27.1956 21.4255 27.3165 20.7165 27.0827 19.8966ZM15.5937 23.0413C15.4508 22.9273 15.431 22.8994 15.3837 22.8253C15.3114 22.7138 15.2745 22.5551 15.2745 22.3518C15.2745 22.0321 15.3807 21.8018 15.5994 21.6472C15.5971 21.6477 15.9133 21.3745 16.6552 21.3841C16.9862 21.39 17.3164 21.4182 17.6436 21.4684V23.123C17.6436 23.123 17.1813 23.2225 16.6605 23.2538C15.9202 23.2984 15.5913 23.0406 15.5937 23.0413ZM17.0422 20.483C16.8945 20.4721 16.7032 20.4668 16.4738 20.4668C16.162 20.4668 15.8604 20.5056 15.5773 20.5818C15.293 20.6584 15.0373 20.777 14.8173 20.9341C14.5976 21.0912 14.4168 21.2966 14.2891 21.5346C14.1601 21.7748 14.0943 22.0571 14.0943 22.3735C14.0943 22.6963 14.1504 22.976 14.2612 23.2045C14.3696 23.431 14.5327 23.6269 14.7359 23.7745C14.9383 23.9217 15.188 24.0297 15.4776 24.0957C15.7635 24.161 16.0875 24.194 16.4415 24.194C16.8153 24.194 17.1871 24.1626 17.5473 24.1019C17.8542 24.049 18.1599 23.9896 18.4642 23.9238C18.5856 23.8958 18.7194 23.8591 18.7194 23.8591C18.8094 23.8363 18.8025 23.7401 18.8025 23.7401L18.8004 20.411C18.8004 19.6808 18.6057 19.1399 18.2219 18.8039C17.84 18.4695 17.2776 18.3006 16.55 18.3006C16.2767 18.3006 15.8378 18.3375 15.5743 18.3904C15.5743 18.3904 14.7795 18.5445 14.4523 18.8009C14.4523 18.8009 14.3803 18.8452 14.4195 18.9456L14.6773 19.6379C14.7093 19.7277 14.7968 19.697 14.7968 19.697C14.7968 19.697 14.8243 19.6861 14.8566 19.667C15.5567 19.2862 16.4427 19.2975 16.4427 19.2975C16.8359 19.2975 17.1389 19.3771 17.3424 19.5329C17.5411 19.6855 17.642 19.9151 17.642 20.4004V20.5543C17.3297 20.5091 17.0422 20.483 17.0422 20.483ZM46.4041 18.6075C46.4094 18.5954 46.4121 18.5823 46.4122 18.569C46.4123 18.5558 46.4097 18.5426 46.4046 18.5304C46.3995 18.5182 46.392 18.5071 46.3825 18.4978C46.373 18.4886 46.3618 18.4813 46.3494 18.4765C46.2873 18.4529 45.9779 18.3876 45.7393 18.3728C45.2817 18.3442 45.028 18.4213 44.8005 18.5238C44.5748 18.6255 44.3249 18.7901 44.1855 18.9777L44.185 18.5337C44.185 18.4728 44.1419 18.4236 44.0805 18.4236H43.1473C43.0868 18.4236 43.043 18.4728 43.043 18.5337V23.9641C43.043 23.9934 43.0547 24.0215 43.0754 24.0422C43.0961 24.063 43.1242 24.0746 43.1535 24.0747H44.11C44.1393 24.0746 44.1674 24.063 44.1881 24.0422C44.2087 24.0215 44.2203 23.9934 44.2203 23.9641V21.2515C44.2203 20.8871 44.2605 20.5241 44.3406 20.2958C44.4195 20.0699 44.5268 19.8899 44.6597 19.7605C44.7857 19.6355 44.9399 19.5427 45.1093 19.49C45.268 19.4444 45.4324 19.4213 45.5976 19.4212C45.788 19.4212 45.9975 19.4701 45.9975 19.4701C46.0677 19.478 46.1067 19.4351 46.1304 19.3718C46.193 19.2055 46.3702 18.7068 46.4041 18.6075Z" fill="#FFFFFE"/>
<path fill-rule="evenodd" clip-rule="evenodd" d="M37.4296 16.0887C37.3115 16.053 37.1914 16.0245 37.0698 16.0033C36.9064 15.976 36.7408 15.9632 36.5751 15.965C35.9167 15.965 35.3977 16.151 35.0333 16.5184C34.6714 16.883 34.4252 17.4384 34.3018 18.1693L34.2572 18.416H33.4308C33.4308 18.416 33.33 18.4118 33.3088 18.5219L33.1731 19.2788C33.1636 19.3513 33.1948 19.3965 33.2917 19.3961H34.0961L33.2799 23.9521C33.216 24.3191 33.1428 24.6209 33.0618 24.8496C32.982 25.0753 32.904 25.2444 32.808 25.3672C32.715 25.4861 32.6268 25.5735 32.4748 25.6245C32.3492 25.6667 32.2048 25.6861 32.0464 25.6861C31.9583 25.6861 31.8411 25.6714 31.7545 25.6541C31.668 25.637 31.623 25.6176 31.5581 25.5904C31.5581 25.5904 31.4638 25.5544 31.4266 25.649C31.3964 25.7263 31.182 26.3159 31.1566 26.3888C31.1308 26.4608 31.167 26.5176 31.2127 26.534C31.3198 26.5723 31.3994 26.5967 31.5452 26.6311C31.7478 26.6789 31.9186 26.6819 32.0785 26.6819C32.4136 26.6819 32.7189 26.6348 32.9721 26.5434C33.2268 26.4514 33.4486 26.291 33.6448 26.0738C33.8568 25.8396 33.9902 25.5943 34.1178 25.2597C34.2441 24.9281 34.3516 24.5164 34.4377 24.0366L35.2578 19.3961H36.4569C36.4569 19.3961 36.558 19.3997 36.579 19.2901L36.7147 18.5332C36.7241 18.4607 36.6932 18.4155 36.5958 18.416H35.4321C35.4378 18.3897 35.4907 17.9803 35.6243 17.5949C35.6813 17.4304 35.7886 17.2977 35.8795 17.2065C35.9644 17.1197 36.069 17.0546 36.1844 17.0168C36.3108 16.9777 36.4427 16.9587 36.5751 16.9605C36.6847 16.9605 36.7922 16.9737 36.8741 16.9907C36.987 17.0147 37.0308 17.0274 37.0604 17.0362C37.179 17.0724 37.1949 17.0374 37.2182 16.9799L37.4965 16.2156C37.5251 16.1334 37.4554 16.0988 37.4296 16.0887ZM21.1664 23.9618C21.1664 24.0227 21.123 24.0724 21.0621 24.0724H20.0968C20.0356 24.0724 19.9922 24.0227 19.9922 23.9618V16.1923C19.9922 16.1316 20.0356 16.0824 20.0968 16.0824H21.0621C21.123 16.0824 21.1664 16.1316 21.1664 16.1923V23.9618Z" fill="#FFFFFE"/>
</g>
</g>
</g>
<defs>
<clipPath id="clip0_4877_26286">
<rect width="63" height="45" fill="white" transform="translate(0 0.5)"/>
</clipPath>
</defs>
</svg>
