<svg width="73" height="57" viewBox="0 0 73 57" fill="none" xmlns="http://www.w3.org/2000/svg">
<g clip-path="url(#clip0_423_392)">
<path fill-rule="evenodd" clip-rule="evenodd" d="M30.3556 42.9499L30.3571 56.6133H34.2151V42.9503H30.3556V42.9499ZM0 42.9316V56.6133H3.89309V46.2243L6.90909 46.2254C7.90809 46.2254 8.61948 46.474 9.10091 46.9875C9.71156 47.6379 9.96049 48.6866 9.96049 50.6054V56.6133H13.7324V49.0541C13.7324 43.6591 10.2934 42.9313 6.9288 42.9313H0V42.9316ZM36.5686 42.9503V56.6133H42.8276C46.1623 56.6133 47.2503 56.0585 48.4275 54.8153C49.2597 53.9422 49.7973 52.026 49.7973 49.932C49.7973 48.0117 49.3422 46.298 48.5483 45.2311C47.1186 43.3233 45.0589 42.9503 41.9845 42.9503H36.5686V42.9503ZM40.3964 45.925H42.0557C44.4625 45.925 46.0196 47.0061 46.0196 49.8108C46.0196 52.6162 44.4625 53.6969 42.0557 53.6969H40.3964V45.9254V45.925ZM24.7919 42.9503L21.5715 53.7791L18.4854 42.951L14.32 42.9503L18.7271 56.6133H24.2889L28.7306 42.9503H24.7923H24.7919ZM51.5928 56.6133H55.4523V42.9513L51.592 42.9503L51.5928 56.6133V56.6133ZM62.4103 42.955L57.0218 56.6085H60.8269L61.6795 54.1952H68.0561L68.8627 56.6085H72.9945L67.5648 42.9539L62.4103 42.9554V42.955ZM64.9153 45.4461L67.2527 51.8424H62.5041L64.9153 45.4461Z" fill="#1A1919"/>
<path fill-rule="evenodd" clip-rule="evenodd" d="M25.254 10.9449V7.66241C25.5764 7.63954 25.8992 7.62299 26.2223 7.61277C35.1999 7.33063 41.0899 15.3267 41.0899 15.3267C41.0899 15.3267 34.7286 24.1619 27.9079 24.1619C26.9253 24.1619 26.0464 24.0038 25.254 23.7377V13.7842C28.7489 14.2061 29.4515 15.7501 31.5531 19.2526L36.2262 15.3124C36.2262 15.3124 32.8153 10.8383 27.0647 10.8383C26.4388 10.8383 25.8409 10.8821 25.254 10.9449V10.9449ZM25.254 0.101805V5.00485C25.5759 4.9793 25.8986 4.95886 26.2223 4.94718C38.7071 4.5267 46.8408 15.1862 46.8408 15.1862C46.8408 15.1862 37.4979 26.5464 27.7652 26.5464C26.8735 26.5464 26.0387 26.4643 25.254 26.3252V29.3558C25.9248 29.4412 26.6198 29.4916 27.3454 29.4916C36.4029 29.4916 42.9528 24.8663 49.2958 19.3917C50.3466 20.2337 54.6522 22.2821 55.5373 23.1797C49.5064 28.2283 35.4521 32.2974 27.4845 32.2974C26.7396 32.2946 25.9952 32.2558 25.254 32.1813V36.4408H59.6793V0.10144H25.2543L25.254 0.101805ZM25.254 23.7377V26.3256C16.8765 24.8316 14.5515 16.1238 14.5515 16.1238C14.5515 16.1238 18.5738 11.6672 25.254 10.9449V13.7842C25.2489 13.7842 25.2452 13.7827 25.2408 13.7827C21.7354 13.3615 18.9964 16.637 18.9964 16.637C18.9964 16.637 20.5309 22.1507 25.254 23.7377ZM10.3751 15.7461C10.3751 15.7461 15.3399 8.41942 25.254 7.66205V5.00485C14.2733 5.88596 4.76434 15.1858 4.76434 15.1858C4.76434 15.1858 10.1496 30.756 25.2543 32.1813V29.3562C14.17 27.9612 10.3751 15.7461 10.3751 15.7461Z" fill="#76B900"/>
</g>
<defs>
<clipPath id="clip0_423_392">
<rect width="73" height="56.94" fill="white"/>
</clipPath>
</defs>
</svg>
