<svg width="53" height="52" viewBox="0 0 53 52" fill="none" xmlns="http://www.w3.org/2000/svg">
<path d="M16.0224 25.6009C16.0224 20.3228 20.3173 16.0426 25.6191 16.0426C30.9191 16.0426 35.2157 20.321 35.2157 25.6009C35.2157 30.8826 30.9209 35.161 25.6209 35.161C20.3191 35.161 16.0224 30.8808 16.0224 25.6027" fill="black"/>
<path d="M25.6173 0.113335C11.4864 0.113335 0.0310669 11.5248 0.0310669 25.6027C0.0310669 36.1698 6.43676 45.1908 15.7373 49.1164C16.3914 49.3913 17.0982 49.5176 17.807 49.4861C18.5157 49.4547 19.2087 49.2664 19.8358 48.9347C20.4629 48.6031 21.0086 48.1363 21.4335 47.5682C21.8584 47.0001 22.1519 46.3448 22.2929 45.6495C22.5102 44.5656 22.3448 43.44 21.8249 42.4645C21.305 41.489 20.4628 40.724 19.4419 40.3001V40.2983C13.6777 37.8914 9.62589 32.2204 9.62589 25.6027C9.62589 16.8029 16.7845 9.66978 25.6191 9.66978C34.4536 9.66978 41.6141 16.8029 41.6141 25.6027C41.6141 32.2185 37.5624 37.8914 31.7963 40.2965V40.3001C30.7753 40.7244 29.933 41.4898 29.4134 42.4658C28.8937 43.4418 28.7289 44.5679 28.9469 45.6519C29.165 46.7359 29.7524 47.7106 30.609 48.4098C31.4656 49.1089 32.5383 49.4891 33.644 49.4856C34.2798 49.4817 34.9089 49.3557 35.4972 49.1146C44.7978 45.1889 51.2053 36.1661 51.2053 25.6009C51.2053 11.5211 39.7482 0.10968 25.6173 0.10968" fill="black"/>
</svg>
