<svg width="83" height="34" viewBox="0 0 83 34" fill="none" xmlns="http://www.w3.org/2000/svg">
<g clip-path="url(#clip0_356:404)">
<path d="M0 0V2.27146H16.1558V0H0ZM18.4448 0V2.27146H41.4676C41.4676 2.27146 39.1159 0 36.0013 0H18.4448ZM45.9839 0V2.27146H59.9124L59.0856 0H45.9839ZM69.8983 0L69.0716 2.27146H82.8736V0H69.8983ZM0 4.41744V6.6889H16.1558V4.41744H0ZM18.4448 4.42066V6.6889H44.1391C44.1391 6.68891 43.839 4.94069 43.3156 4.42066H18.4448ZM45.9839 4.42066V6.6889H61.4395L60.6743 4.42066H45.9839ZM68.2448 4.42066L67.4797 6.6889H82.8736V4.42066H68.2448ZM4.64281 8.83489V11.1096H11.6395V8.83489H4.64281ZM23.0876 8.83489V11.1096H30.0843V8.83489H23.0876ZM36.8896 8.83489V11.1096H43.8863C43.8863 11.1096 44.3304 9.9083 44.3304 8.83489H36.8896ZM50.6268 8.83489V11.1096H63.0314L62.2046 8.83489H50.6268ZM66.721 8.83489L65.891 11.1096H78.3572V8.83489H66.721ZM4.64281 13.2555V15.527H11.6395V13.2555H4.64281ZM23.0876 13.2555V15.527H40.9586C40.9586 15.527 42.4535 14.3615 42.9298 13.2555H23.0876ZM50.6268 13.2555V15.527H57.6234V14.2626L58.0676 15.527H70.8839L71.3605 14.2626V15.527H78.3572V13.2555H65.2231L64.526 15.1795L63.8257 13.2555H50.6268ZM4.64281 17.673V19.9445H11.6395V17.673H4.64281ZM23.0876 17.673V19.9445H42.9298C42.4534 18.8421 40.9586 17.673 40.9586 17.673H23.0876ZM50.6268 17.673V19.9445H57.6234V17.673H50.6268ZM58.8943 17.673L59.7405 19.9445H69.3504L70.1545 17.673H58.8943ZM71.3605 17.673V19.9445H78.3572V17.673H71.3605ZM4.64281 22.0904V24.3619H11.6395V22.0904H4.64281ZM23.0876 22.0904V24.3619H30.0843V22.0904H23.0876ZM36.8896 22.0904V24.3619H44.3304C44.3304 23.2899 43.8863 22.0904 43.8863 22.0904H36.8896ZM50.6268 22.0904V24.3619H57.6234V22.0904H50.6268ZM60.483 22.0904L61.3033 24.3619H67.7455L68.5723 22.0904H60.483ZM71.3605 22.0904V24.3619H78.3572V22.0904H71.3605ZM0.126445 26.5079V28.7826H16.2823V26.5079H0.126445ZM18.4448 26.5079V28.7826H43.3156C43.839 28.2617 44.1391 26.5079 44.1391 26.5079H18.4448ZM46.1104 26.5079V28.7826H57.6234V26.5079H46.1104ZM62.0749 26.5079L62.9179 28.7826H66.1957L66.9868 26.5079H62.0749ZM71.3605 26.5079V28.7826H83V26.5079H71.3605ZM0.126445 30.9285V33.2H16.2823V30.9285H0.126445ZM18.4448 30.9285V33.1968H36.0013C39.1159 33.1968 41.4676 30.9285 41.4676 30.9285H18.4448ZM46.1104 30.9285V33.2H57.6234V30.9285H46.1104ZM63.6733 30.9285L64.4839 33.1936L64.6233 33.1968L65.4468 30.9285H63.6733ZM71.3605 30.9285V33.2H83V30.9285H71.3605Z" fill="#1F70C1"/>
</g>
<defs>
<clipPath id="clip0_356:404">
<rect width="83" height="33.2324" fill="white"/>
</clipPath>
</defs>
</svg>
