<svg width="155" height="37" viewBox="0 0 155 37" fill="none" xmlns="http://www.w3.org/2000/svg">
<g clip-path="url(#clip0_1303_372)">
<path d="M47.3734 24.2021V13.0517H50.1076V14.9101H50.2145C50.4423 14.312 50.7983 13.8136 51.2825 13.4148C51.7809 13.0018 52.4645 12.7954 53.3331 12.7954C54.4866 12.7954 55.3696 13.1728 55.9819 13.9275C56.5943 14.6823 56.9004 15.7574 56.9004 17.153V24.2021H54.1662V17.4307C54.1662 16.6332 54.0238 16.0351 53.739 15.6364C53.4542 15.2376 52.9843 15.0383 52.3291 15.0383C52.0444 15.0383 51.7667 15.081 51.4961 15.1665C51.2398 15.2376 51.0048 15.3515 50.7912 15.5083C50.5918 15.6506 50.428 15.8357 50.2999 16.0636C50.1718 16.2772 50.1076 16.5336 50.1076 16.8326V24.2021H47.3734Z" fill="black"/>
<path d="M63.7977 24.4584C62.9717 24.4584 62.2311 24.3232 61.5761 24.0525C60.9353 23.7678 60.387 23.3762 59.9313 22.8778C59.4898 22.3651 59.1481 21.7527 58.906 21.0407C58.6639 20.3144 58.5428 19.5027 58.5428 18.6055C58.5428 17.7227 58.6568 16.9252 58.8846 16.2131C59.1268 15.5011 59.4684 14.8958 59.9099 14.3974C60.3514 13.8848 60.8926 13.4931 61.5334 13.2226C62.1742 12.9378 62.9005 12.7954 63.7122 12.7954C64.5809 12.7954 65.3356 12.9449 65.9765 13.244C66.6173 13.543 67.1442 13.9488 67.5571 14.4615C67.9701 14.9743 68.2763 15.5723 68.4757 16.2558C68.6892 16.9252 68.7961 17.6443 68.7961 18.4133V19.3105H61.3839V19.5882C61.3839 20.3998 61.6117 21.055 62.0674 21.5534C62.5231 22.0375 63.1996 22.2796 64.0966 22.2796C64.7802 22.2796 65.3356 22.1372 65.7628 21.8525C66.2043 21.5676 66.5959 21.2044 66.9377 20.763L68.4116 22.4078C67.9559 23.0486 67.3294 23.5541 66.5319 23.9244C65.7486 24.2805 64.8372 24.4584 63.7977 24.4584ZM63.7549 14.846C63.0286 14.846 62.4519 15.0881 62.0247 15.5723C61.5975 16.0565 61.3839 16.683 61.3839 17.4521V17.6229H65.9551V17.4307C65.9551 16.6617 65.7628 16.0423 65.3783 15.5723C65.008 15.0881 64.4669 14.846 63.7549 14.846Z" fill="black"/>
<path d="M70.5608 13.0517H73.295V14.8887H73.3806C73.5799 14.2479 73.9573 13.7424 74.5126 13.3721C75.068 12.9876 75.716 12.7954 76.4565 12.7954C77.8805 12.7954 78.9629 13.3009 79.7033 14.312C80.4581 15.3088 80.8355 16.74 80.8355 18.6055C80.8355 20.4854 80.4581 21.9308 79.7033 22.9418C78.9629 23.9529 77.8805 24.4584 76.4565 24.4584C75.716 24.4584 75.068 24.2662 74.5126 23.8817C73.9715 23.4972 73.5941 22.9845 73.3806 22.3438H73.295V28.4743H70.5608V13.0517ZM75.5806 22.1942C76.2927 22.1942 76.8694 21.9592 77.3109 21.4893C77.7524 21.0194 77.9732 20.3856 77.9732 19.5882V17.6656C77.9732 16.8682 77.7524 16.2345 77.3109 15.7645C76.8694 15.2803 76.2927 15.0383 75.5806 15.0383C74.9256 15.0383 74.3774 15.202 73.9359 15.5296C73.5087 15.8571 73.295 16.2914 73.295 16.8326V20.3785C73.295 20.9624 73.5087 21.411 73.9359 21.7242C74.3774 22.0375 74.9256 22.1942 75.5806 22.1942Z" fill="black"/>
<path d="M86.0849 24.2021C85.1451 24.2021 84.4259 23.96 83.9274 23.4758C83.4433 22.9774 83.2011 22.2724 83.2011 21.361V15.2305H81.5564V13.0516H82.4109C82.8238 13.0516 83.1015 12.9591 83.2438 12.774C83.4006 12.5746 83.4789 12.2827 83.4789 11.8982V9.99707H85.9353V13.0516H88.2209V15.2305H85.9353V22.0233H88.0501V24.2021H86.0849Z" fill="black"/>
<path d="M96.6163 22.3438H96.5095C96.4099 22.6286 96.2745 22.8992 96.1037 23.1555C95.947 23.3976 95.7405 23.6183 95.4841 23.8177C95.2421 24.017 94.943 24.1738 94.5871 24.2877C94.2453 24.4015 93.8465 24.4585 93.3908 24.4585C92.2373 24.4585 91.3544 24.0811 90.7421 23.3264C90.1297 22.5716 89.8235 21.4965 89.8235 20.1009V13.0518H92.5577V19.8232C92.5577 20.5922 92.7072 21.1832 93.0063 21.5962C93.3054 21.9949 93.7825 22.1942 94.4375 22.1942C94.7081 22.1942 94.9715 22.1586 95.2279 22.0875C95.4985 22.0163 95.7334 21.9095 95.9327 21.767C96.1321 21.6104 96.2959 21.4253 96.4241 21.2116C96.5523 20.9839 96.6163 20.7204 96.6163 20.4213V13.0518H99.3505V24.2022H96.6163V22.3438Z" fill="black"/>
<path d="M101.869 24.2021V13.0517H104.603V14.9101H104.71C104.938 14.312 105.294 13.8136 105.778 13.4148C106.276 13.0018 106.96 12.7954 107.828 12.7954C108.982 12.7954 109.865 13.1728 110.477 13.9275C111.09 14.6823 111.396 15.7574 111.396 17.153V24.2021H108.662V17.4307C108.662 16.6332 108.519 16.0351 108.234 15.6364C107.949 15.2376 107.48 15.0383 106.825 15.0383C106.54 15.0383 106.262 15.081 105.991 15.1665C105.735 15.2376 105.5 15.3515 105.286 15.5083C105.087 15.6506 104.923 15.8357 104.795 16.0636C104.667 16.2772 104.603 16.5336 104.603 16.8326V24.2021H101.869Z" fill="black"/>
<path d="M118.293 24.4584C117.467 24.4584 116.726 24.3232 116.071 24.0525C115.43 23.7678 114.883 23.3762 114.427 22.8778C113.985 22.3651 113.643 21.7527 113.401 21.0407C113.159 20.3144 113.038 19.5027 113.038 18.6055C113.038 17.7227 113.152 16.9252 113.38 16.2131C113.622 15.5011 113.964 14.8958 114.405 14.3974C114.847 13.8848 115.388 13.4931 116.028 13.2226C116.669 12.9378 117.396 12.7954 118.208 12.7954C119.077 12.7954 119.831 12.9449 120.472 13.244C121.112 13.543 121.639 13.9488 122.053 14.4615C122.465 14.9743 122.771 15.5723 122.971 16.2558C123.185 16.9252 123.292 17.6443 123.292 18.4133V19.3105H115.879V19.5882C115.879 20.3998 116.106 21.055 116.562 21.5534C117.018 22.0375 117.694 22.2796 118.592 22.2796C119.275 22.2796 119.831 22.1372 120.258 21.8525C120.699 21.5676 121.092 21.2044 121.433 20.763L122.907 22.4078C122.451 23.0486 121.824 23.5541 121.027 23.9244C120.244 24.2805 119.333 24.4584 118.293 24.4584ZM118.25 14.846C117.524 14.846 116.947 15.0881 116.52 15.5723C116.093 16.0565 115.879 16.683 115.879 17.4521V17.6229H120.45V17.4307C120.45 16.6617 120.258 16.0423 119.874 15.5723C119.504 15.0881 118.962 14.846 118.25 14.846Z" fill="black"/>
<path d="M126.325 24.4372C125.741 24.4372 125.307 24.2948 125.022 24.01C124.751 23.711 124.615 23.3336 124.615 22.8779V22.4934C124.615 22.0377 124.751 21.6603 125.022 21.3612C125.307 21.0622 125.741 20.9126 126.325 20.9126C126.922 20.9126 127.357 21.0622 127.627 21.3612C127.898 21.6603 128.033 22.0377 128.033 22.4934V22.8779C128.033 23.3336 127.898 23.711 127.627 24.01C127.357 24.2948 126.922 24.4372 126.325 24.4372Z" fill="black"/>
<path d="M138.751 24.2021C138.153 24.2021 137.676 24.0312 137.32 23.6895C136.978 23.3335 136.764 22.8635 136.679 22.2796H136.55C136.366 23.0059 135.988 23.5541 135.418 23.9244C134.849 24.2805 134.144 24.4584 133.303 24.4584C132.164 24.4584 131.288 24.1594 130.676 23.5613C130.065 22.9632 129.758 22.1657 129.758 21.1689C129.758 20.0154 130.171 19.161 130.997 18.6055C131.822 18.0359 132.998 17.7512 134.522 17.7512H136.423V16.9394C136.423 16.3128 136.259 15.8286 135.932 15.4869C135.603 15.1451 135.077 14.9743 134.351 14.9743C133.71 14.9743 133.19 15.1166 132.791 15.4014C132.407 15.672 132.08 15.9995 131.809 16.3841L130.185 14.9314C130.598 14.2906 131.146 13.778 131.83 13.3935C132.514 12.9947 133.418 12.7954 134.542 12.7954C136.052 12.7954 137.199 13.1372 137.982 13.8207C138.765 14.5043 139.157 15.4869 139.157 16.7685V22.0233H140.267V24.2021H138.751ZM134.222 22.4719C134.835 22.4719 135.354 22.3366 135.781 22.066C136.209 21.7954 136.423 21.3968 136.423 20.8698V19.3959H134.671C133.247 19.3959 132.535 19.8516 132.535 20.763V21.1261C132.535 21.5818 132.678 21.9236 132.962 22.1514C133.261 22.3651 133.681 22.4719 134.222 22.4719Z" fill="black"/>
<path d="M143.206 11.4282C142.637 11.4282 142.225 11.3001 141.967 11.0438C141.725 10.7874 141.605 10.4599 141.605 10.0612V9.63393C141.605 9.23521 141.725 8.90766 141.967 8.65134C142.225 8.395 142.637 8.26685 143.206 8.26685C143.762 8.26685 144.168 8.395 144.424 8.65134C144.68 8.90766 144.809 9.23521 144.809 9.63393V10.0612C144.809 10.4599 144.68 10.7874 144.424 11.0438C144.168 11.3001 143.762 11.4282 143.206 11.4282ZM141.84 13.0516H144.574V24.2021H141.84V13.0516Z" fill="black"/>
<path d="M36.7845 18.3704C36.7845 28.5161 28.5501 36.7407 18.3923 36.7407C8.23449 36.7407 0 28.5161 0 18.3704C0 8.22469 8.23449 0 18.3923 0C28.5501 0 36.7845 8.22469 36.7845 18.3704Z" fill="#5B69C2"/>
<path fill-rule="evenodd" clip-rule="evenodd" d="M21.9644 10.2615C22.458 10.2615 22.8674 10.39 23.21 10.6599C23.5368 10.9172 23.8046 11.3077 24.018 11.8587C24.4854 13.0766 24.8621 14.3001 25.1398 15.4936C25.4815 16.9686 25.7797 18.4642 26.069 19.9157C26.2162 20.6542 26.3647 21.3923 26.516 22.1299C26.5684 22.3882 26.6688 22.8531 26.7529 23.0877C26.8736 23.3491 27.0242 23.4484 27.1384 23.4685C27.3191 23.5001 27.4566 23.3775 27.5014 23.3341C27.7932 23.013 27.7472 22.5256 27.8256 22.128C27.9892 21.2744 28.1499 20.4151 28.308 19.5585L28.5154 18.442C28.5869 18.0608 28.73 17.7934 28.9392 17.6185C29.1504 17.4418 29.4347 17.3531 29.8126 17.3629C30.0914 17.3681 30.3425 17.4963 30.532 17.6891C30.7362 17.8965 30.8653 18.177 30.8846 18.4393C30.9158 18.8791 30.8613 19.2653 30.7363 19.8693C30.6454 20.3153 30.5597 20.7834 30.4702 21.2511C30.2472 22.4143 30.0021 23.5933 29.5835 24.5936C29.3168 25.2315 28.8801 25.7668 28.3909 26.0708C27.8115 26.4306 27.2537 26.5467 26.744 26.4424C26.2346 26.3384 25.7656 26.0125 25.3703 25.4539C24.8433 24.7072 24.4759 23.794 24.1927 22.488C23.9136 21.2137 23.6468 19.9167 23.3834 18.6363C23.3429 18.4392 23.3024 18.2424 23.2618 18.0457C23.0794 17.1523 22.882 16.2611 22.7104 15.3657C22.5354 14.4883 22.3869 13.9005 22.2287 13.5334C22.164 13.3828 22.1007 13.2736 22.0292 13.2041C21.9253 13.1029 21.7636 13.1258 21.6658 13.2259C21.5909 13.3026 21.5252 13.427 21.4742 13.6166C21.4119 13.785 21.1842 14.7496 21.1442 14.9412C20.9798 15.7408 20.8236 16.5421 20.6648 17.3428C20.4262 18.5463 20.1926 19.7291 20.1926 19.7291C19.8651 21.3574 19.526 23.0376 18.9242 24.5727C18.6883 25.1751 18.3428 25.6552 17.9305 25.9816C17.5068 26.3168 17.0122 26.4922 16.4861 26.476C15.8265 26.4632 15.2312 26.116 14.8577 25.5172C14.571 25.0573 14.1839 24.3391 13.9676 23.5233C13.6069 22.1634 13.3037 20.7518 13.0086 19.3782C12.9175 18.9457 12.8249 18.5216 12.7323 18.0978C12.5683 17.3512 12.4127 16.6045 12.2542 15.8383C12.2213 15.6773 12.1721 15.4397 12.1229 15.1888C12.0372 14.7634 11.9634 14.3332 11.8574 13.912C11.8014 13.6927 11.7444 13.4576 11.6101 13.2711C11.4907 13.1054 11.3225 13.1047 11.1942 13.2623C11.0589 13.4282 10.989 13.6706 10.9462 13.8093C10.8512 14.0586 10.4421 16.0357 10.3722 16.4168C10.2326 17.1728 10.0876 17.9561 9.92356 18.7175C9.84448 19.0853 9.64583 19.3767 9.3701 19.5469C9.0683 19.7323 8.69999 19.7671 8.33029 19.6343C8.08895 19.5491 7.88062 19.3724 7.73941 19.1494C7.59888 18.9274 7.52587 18.6612 7.54742 18.4016C7.60535 17.6911 7.72925 16.9253 7.95279 15.9204C8.31436 14.2818 8.74019 12.9879 9.2894 11.8478C9.52104 11.3431 9.848 11.0116 10.1806 10.7929C10.8033 10.3833 11.449 10.3725 11.5421 10.3729C11.9369 10.3881 12.3526 10.5073 12.7186 10.7863C13.0178 11.0145 13.2857 11.3503 13.4735 11.83C13.9384 13.0157 14.3152 14.2233 14.5931 15.4172C14.9492 16.9492 15.2526 18.4922 15.5618 20.0341C15.6994 20.7206 15.8372 21.4074 15.9776 22.0942C16.0626 22.4934 16.1624 23.0718 16.4551 23.3628C16.7166 23.6225 16.9431 23.2899 17.0378 23.0614C17.2149 22.6371 17.2667 22.108 17.358 21.6578C17.7445 19.7454 18.091 17.8252 18.5048 15.9184C18.8308 14.4154 19.151 13.0758 19.7589 11.8792C20.0065 11.3916 20.2948 10.958 20.6894 10.6641C21.0243 10.4145 21.435 10.2615 21.9644 10.2615Z" fill="black"/>
<path fill-rule="evenodd" clip-rule="evenodd" d="M7.30984 23.1782C7.81017 23.1782 8.25649 23.3803 8.5817 23.7042C8.91137 24.0324 9.11622 24.4861 9.12418 24.98C9.13224 25.438 8.94326 25.8957 8.61832 26.2444C8.28819 26.6037 7.83575 26.8263 7.36436 26.8368C6.85573 26.856 6.40224 26.6304 6.06486 26.2855C5.72685 25.9396 5.53219 25.475 5.53219 25.0063C5.53415 24.5081 5.73295 24.052 6.0552 23.72C6.37563 23.3898 6.81767 23.1824 7.30984 23.1782Z" fill="black"/>
</g>
<defs>
<clipPath id="clip0_1303_372">
<rect width="155" height="36.7407" fill="white"/>
</clipPath>
</defs>
</svg>
