<svg width="211" height="48" viewBox="0 0 211 48" fill="none" xmlns="http://www.w3.org/2000/svg">
<g clip-path="url(#clip0_609_927)">
<path d="M172.958 35.3787C171.641 35.3787 170.532 34.3422 170.532 33.0293C170.532 31.7164 171.572 30.6108 172.888 30.6108C174.205 30.6108 175.314 31.6473 175.314 32.9602C175.314 34.3422 174.274 35.3787 172.958 35.3787Z" fill="black"/>
<path d="M208.713 12.0232C207.466 12.0232 206.427 11.0558 206.427 9.812C206.427 8.56822 207.397 7.53174 208.713 7.53174C209.961 7.53174 211 8.56822 211 9.812C211 11.0558 209.961 12.0232 208.713 12.0232Z" fill="black"/>
<path d="M89.8049 19.9697L79.8266 31.7164H88.4883C89.3891 31.7164 90.1514 32.4765 90.1514 33.3748C90.1514 34.3422 89.3891 35.1023 88.4883 35.1023H75.9461C74.976 35.0332 74.2831 34.2731 74.2138 33.3057C74.2138 32.822 74.3524 32.4074 74.6988 32.0619L84.6079 20.3151H75.9461C74.976 20.3151 74.2138 19.5551 74.2138 18.5877C74.2138 17.6203 74.976 16.9293 75.9461 16.9293H88.2804C89.3199 16.8602 90.2207 17.6894 90.2207 18.7259V18.795C90.2207 19.2787 90.0821 19.6933 89.8049 19.9697ZM112.81 25.9812C112.741 26.7413 112.118 27.3632 111.286 27.2941H98.2588C98.4667 30.1272 100.892 32.3383 103.802 32.2001C105.881 32.2001 107.821 31.3709 109.276 29.9199C109.554 29.6435 109.9 29.5053 110.316 29.5744C110.87 29.5744 111.355 29.8508 111.632 30.2654C111.84 30.5418 111.979 30.8873 111.979 31.2328C111.979 31.7164 111.771 32.2001 111.425 32.5456C109.346 34.5495 106.574 35.7242 103.733 35.7242C98.3974 35.7242 94.1011 31.44 94.1011 26.1885C94.1011 26.1885 94.1011 26.1885 94.1011 26.1194C94.0318 20.8679 98.1895 16.5838 103.456 16.5147C103.525 16.5147 103.525 16.5147 103.594 16.5147C108.861 16.4456 112.81 20.5915 112.81 25.9812ZM108.653 24.392C108.306 21.7662 106.089 19.8315 103.456 19.8315C100.823 19.7624 98.5359 21.7662 98.2588 24.392H108.653ZM125.907 24.3229C122.72 23.2864 121.68 23.01 121.68 21.6971C121.68 20.3842 123.066 19.8315 125.283 19.8315C126.946 19.8315 128.61 20.246 130.065 20.937C130.273 21.0061 130.48 21.0752 130.619 21.0752C131.312 21.0752 132.005 20.6606 132.213 19.9697C132.282 19.7624 132.351 19.5551 132.351 19.4169C132.351 18.7259 131.936 18.104 131.243 17.8967C129.302 16.9293 127.154 16.4456 124.937 16.4456C120.849 16.4456 117.73 18.4495 117.73 21.4898C117.73 24.1156 119.601 25.7049 123.135 26.8795C127.432 28.3306 128.54 28.8143 128.54 30.0581C128.54 31.7164 126.323 32.2692 124.244 32.2692C122.442 32.2692 120.641 31.7164 119.047 30.8182C118.77 30.68 118.493 30.5418 118.215 30.5418C117.592 30.5418 117.107 30.9564 116.899 31.5091C116.83 31.7164 116.76 31.9237 116.76 32.131C116.76 32.822 117.176 33.3748 117.8 33.7203C119.878 34.895 122.165 35.5169 124.521 35.586C129.58 35.586 132.421 33.0984 132.421 29.989C132.421 26.8795 129.718 25.5667 125.907 24.3229ZM148.22 16.9984H144.686V10.9868C144.547 10.0194 143.854 9.32844 142.884 9.19025C141.775 9.05205 140.736 9.81213 140.528 10.9868V16.9984H137.479C136.578 16.9984 135.816 17.7585 135.816 18.6568C135.816 19.5551 136.509 20.3151 137.479 20.3842H140.528V33.513C140.667 34.4804 141.36 35.1714 142.33 35.3096C143.438 35.4478 144.478 34.6877 144.686 33.513V20.3842H148.22C149.19 20.3842 149.883 19.6242 149.883 18.6568C149.883 17.7585 149.121 16.9984 148.22 16.9984ZM168.454 16.722C168.246 16.6529 168.038 16.5838 167.899 16.5838C167.206 16.5838 166.513 16.9984 166.236 17.6894L161.108 29.1598L155.911 17.6894C155.634 16.9984 154.941 16.5838 154.179 16.5838C153.971 16.5838 153.694 16.6529 153.486 16.722C152.793 16.9984 152.308 17.6894 152.377 18.4495C152.377 19.3478 158.337 32.2001 158.96 33.5821C157.713 36.4152 155.426 38.6954 152.585 40.0083C151.892 40.2847 151.477 40.9066 151.477 41.5976C151.477 42.5649 152.239 43.325 153.14 43.325C153.347 43.325 153.625 43.2559 153.832 43.1868C158.059 41.5285 161.108 38.1426 162.841 34.204L169.562 19.2096C169.701 19.0023 169.77 18.7259 169.701 18.4495C169.701 17.6203 169.216 16.9293 168.454 16.722ZM200.537 25.3594C200.537 25.5667 200.537 25.843 200.537 26.0503L200.467 33.513C200.467 34.5495 199.636 35.4478 198.596 35.4478C198.596 35.4478 198.596 35.4478 198.527 35.4478C197.418 35.4478 196.587 34.5495 196.587 33.513V32.6838C195.686 34.1349 193.261 35.6551 190.489 35.6551C185.292 35.586 181.134 31.2328 181.204 26.0503C181.204 20.7297 185.569 16.4456 190.835 16.4456C190.835 16.4456 190.835 16.4456 190.905 16.4456C196.032 16.2383 200.398 20.246 200.537 25.3594ZM196.448 26.0503C196.448 22.8027 194.3 20.1079 190.905 20.1079C187.509 20.1079 185.361 22.8027 185.361 26.0503C185.361 29.298 187.579 31.9928 190.905 31.9928C194.231 31.9928 196.448 29.298 196.448 26.0503ZM208.713 16.5838C208.713 16.5838 208.644 16.5838 208.713 16.5838C207.535 16.5838 206.634 17.5512 206.704 18.6568V33.4439C206.704 33.4439 206.704 33.4439 206.704 33.513C206.704 34.6186 207.605 35.5169 208.713 35.5169C209.822 35.5169 210.792 34.6186 210.792 33.4439V18.6568C210.792 17.4821 209.822 16.5838 208.713 16.5838Z" fill="black"/>
<path d="M32.776 2.14196C32.6374 2.07287 32.5681 2.00377 32.4296 2.00377C30.2121 1.31278 27.8562 0.967285 25.4309 0.967285C12.4036 0.967285 1.87093 11.5394 1.87093 24.4609C1.87093 37.4514 12.4729 47.9544 25.4309 47.9544C38.3888 47.9544 48.9908 37.3823 48.9908 24.4609C48.9908 14.0961 42.2 5.25141 32.776 2.14196ZM31.7366 44.4304L26.7475 40.7682L31.6673 37.175V44.4304H31.7366ZM25.6388 39.939L19.4023 35.3094V29.7124L25.4309 25.29L31.6673 29.8506V35.5167L25.6388 39.939ZM19.4023 37.0368L24.4608 40.7682L19.4023 44.4304V37.0368ZM6.44433 27.4321V35.9313C4.5041 32.7527 3.32611 29.0214 3.25681 25.0137L6.44433 27.4321ZM3.25681 23.3553C3.46469 19.4858 4.64269 15.8926 6.58292 12.7832L6.44433 25.7046L3.46469 23.4935C3.3954 23.4244 3.32611 23.4244 3.25681 23.3553ZM7.83021 28.4686L13.2351 32.4763L7.76092 36.415L7.83021 28.4686ZM7.83021 26.7411L7.89951 12.5068L18.0164 19.9003V29.0214L14.4131 31.6471L7.83021 26.7411ZM31.7366 13.1978V19.0712L25.5002 23.6317L19.4023 19.1403V4.21493L31.7366 13.1978ZM33.1225 14.2342L35.7557 16.169L33.1225 18.1038V14.2342ZM31.7366 20.7295V28.1231L26.6782 24.4609L31.7366 20.7295ZM24.3222 24.4609L19.4716 27.9849V20.8677L24.3222 24.4609ZM18.0164 30.6798V34.2729L15.5911 32.4763L18.0164 30.6798ZM33.1225 30.8179L35.6171 32.6145L33.1225 34.4111V30.8179ZM33.1225 29.1596V19.7621L36.9337 16.9982L43.1008 21.4896V27.2248L36.7258 31.7853L33.1225 29.1596ZM44.4174 20.7295L44.3481 12.9905C46.1498 15.9617 47.3278 19.4167 47.5356 23.0789L44.4174 20.7295ZM46.9813 24.3227L44.4174 26.1883V22.457L46.9813 24.3227ZM43.0315 19.7621L38.1117 16.169L43.0315 12.5759V19.7621ZM43.0315 28.8832L43.1008 36.415L37.9038 32.6145L43.0315 28.8832ZM44.4174 27.9158L47.5356 25.6355C47.3278 29.2978 46.219 32.8218 44.4174 35.7931V27.9158ZM42.8929 10.9175L36.8644 15.2707L33.0532 12.5068V3.73124C37.003 5.18231 40.3984 7.66987 42.8929 10.9175ZM31.7366 3.24754V11.4703L20.0259 2.97115C21.7583 2.55656 23.5599 2.34926 25.3616 2.34926C27.579 2.34926 29.7271 2.69475 31.7366 3.24754ZM18.0164 3.59304V18.1729L7.9688 10.8484C10.5327 7.53167 13.9974 5.04411 18.0164 3.59304ZM7.89951 38.0733L14.4131 33.3746L18.0164 36.0695V45.3978C13.9974 43.9467 10.4634 41.3901 7.89951 38.0733ZM19.8181 45.8815L25.6388 41.6665L31.2516 45.8815C29.3806 46.3652 27.4404 46.6416 25.4309 46.6416C23.4906 46.6416 21.6197 46.3652 19.8181 45.8815ZM33.1225 45.2596V36.2077L36.7951 33.5128L42.9622 38.0042C40.3984 41.2519 37.003 43.8085 33.1225 45.2596Z" fill="black"/>
<path d="M34.7855 45.5362C34.7855 46.7109 33.8154 47.7473 32.6374 47.7473C31.4594 47.7473 30.42 46.78 30.42 45.6053C30.42 44.4306 31.3901 43.3941 32.5681 43.3941C33.8154 43.325 34.7855 44.2924 34.7855 45.5362Z" fill="black"/>
<path d="M35.3399 2.62575C35.3399 4.07683 34.1619 5.32061 32.6374 5.32061C31.1823 5.32061 29.935 4.14593 29.935 2.62575C30.0043 1.17468 31.1823 0 32.6374 0C34.0926 0 35.3399 1.17468 35.3399 2.62575Z" fill="black"/>
<path d="M5.33563 24.1155C5.33563 25.5666 4.15764 26.7413 2.63317 26.7413C1.178 26.8104 0 25.5666 0 24.1155C0 22.6644 1.178 21.4897 2.70246 21.4897C4.15764 21.4897 5.33563 22.6644 5.33563 24.1155Z" fill="black"/>
<path d="M22.1048 20.1768C22.1048 21.6279 20.9268 22.8716 19.4716 22.8716C18.0164 22.8716 16.7691 21.697 16.7691 20.2459C16.7691 18.7948 17.9471 17.551 19.4023 17.551C20.8575 17.551 22.1048 18.7257 22.1048 20.1768Z" fill="black"/>
</g>
<defs>
<clipPath id="clip0_609_927">
<rect width="211" height="47.9545" fill="white"/>
</clipPath>
</defs>
</svg>
