<?xml version="1.0" encoding="UTF-8"?> <!-- Generator: Adobe Illustrator 25.2.1, SVG Export Plug-In . SVG Version: 6.00 Build 0) --> <svg xmlns="http://www.w3.org/2000/svg" xmlns:xlink="http://www.w3.org/1999/xlink" version="1.1" id="Layer_1" x="0px" y="0px" viewBox="0 0 383.7 152.4" style="enable-background:new 0 0 383.7 152.4;" xml:space="preserve"> <style type="text/css"> .st0{fill-rule:evenodd;clip-rule:evenodd;fill:#ffffff;} .st1{fill:#ffffff;} .st2{fill:#ffffff;} .st3{fill-rule:evenodd;clip-rule:evenodd;fill:#ffffff;} .st4{fill:#ffffff;} </style> <path class="st0" d="M54.2,14.7c0,0.1,0,0.2-0.1,0.3c-1.8-2.6-23.2-2.6-25,0C29,14.9,29,14.8,29,14.7c0-1,9.7-7.4,12.6-9.4 C43.8,6.8,54.2,13.7,54.2,14.7L54.2,14.7z"></path> <path class="st1" d="M89.2,131.4c-31.8,18.4-48.9-2.3-67.4-8.3C47.2,121.5,53.3,131.8,89.2,131.4L89.2,131.4z"></path> <path class="st2" d="M130,109.6C89.3,149.7,53.9,99,7.1,122.4c9.8-11.9,21.9-16.5,34.8-17.5c2.1-17.5,0.1-36.2-3.9-42.3h4.4h2.4h0.5 v-3.9c0-1.7-1.6-3.1-3.6-3.1l0,0c-0.8,0-1.6,0.2-2.2,0.7c-2.9-4.8-6.3-7.8-10-9.6c-0.2,3.6-0.7,32.4-0.9,55.5 c-2.1,0.9-4.4,2.1-7,3.6c4.3-28.1,4.7-56.9,4.3-62.1c7.9-1.9,15.5-1.7,23.5-0.7c1.8,0.2,3.6,0.5,5.5,0.8c0-2.7-1.6-4.8-5.8-6.1 c-5.1-1.5-14-1.6-28.5,0.5c15.2-5.8,9.4-5,3.8-3.5c0.1-0.9,0.7-1.7,1.8-2.3V31l0,0c0-1.5,6.9-2.7,15.5-2.7c0.7,0,1.4,0,2.1,0 c7.5,0.2,13.4,1.3,13.4,2.7v0.6c0.4,0.1,0.7,0.2,0.9,0.3c0.3,0.5,0.6,1.1,0.9,1.6c1.6,0.7,3.1,1.4,4.7,2c0,7.1,0.9,7.7-6,9.4 c-0.3,4.8-0.2,33.6,4.6,60.7C86.5,108.9,111.5,117.4,130,109.6L130,109.6z"></path> <polygon class="st2" points="79.1,101.3 69.9,101.3 69.9,40.6 79.1,40.6 79.1,101.3 "></polygon> <path class="st2" d="M102.1,102.1c-4.1,0-7.6-1.4-10.4-4.3c-2.9-2.8-4.3-6.3-4.3-10.2V54.4c0-4,1.4-7.5,4.3-10.3 c2.9-2.8,6.3-4.2,10.4-4.2c4.1,0,7.6,1.4,10.4,4.3c2.8,2.8,4.3,6.3,4.3,10.3v6.9h-9.6v-7.1c0-1.4-0.5-2.7-1.6-3.7 c-1-1-2.3-1.5-3.8-1.5c-1.5,0-2.7,0.5-3.8,1.5c-1,1-1.5,2.3-1.5,3.7v33.3c0,1.5,0.5,2.7,1.5,3.7c1,1,2.3,1.5,3.8,1.5 c1.5,0,2.7-0.5,3.8-1.5c1-1,1.6-2.3,1.6-3.7v-12H102v-9.2h14.8v21.2c0,4-1.4,7.5-4.3,10.3C109.6,100.7,106.1,102.1,102.1,102.1 L102.1,102.1z"></path> <polygon class="st2" points="134.1,75.6 134.1,101.3 124.8,101.3 124.8,40.6 134.1,40.6 134.1,66.3 145.2,66.3 145.2,40.6 154.6,40.6 154.6,101.3 145.2,101.3 145.2,75.6 134.1,75.6 "></polygon> <polygon class="st2" points="171.9,49.7 162,49.7 162,40.6 191,40.6 191,49.7 181.2,49.7 181.2,101.3 171.9,101.3 171.9,49.7 "></polygon> <polygon class="st1" points="207.8,75.6 207.8,101.3 198.5,101.3 198.5,40.6 207.8,40.6 207.8,66.3 218.9,66.3 218.9,40.6 228.2,40.6 228.2,101.3 218.9,101.3 218.9,75.6 207.8,75.6 "></polygon> <path class="st1" d="M251.1,39.8c4.1,0,7.6,1.4,10.4,4.3c2.9,2.8,4.3,6.3,4.3,10.3v33.2c0,4.1-1.4,7.5-4.3,10.3 c-2.9,2.8-6.3,4.2-10.4,4.2c-4.1,0-7.6-1.4-10.4-4.3c-2.8-2.8-4.3-6.3-4.3-10.3V54.3c0-4,1.4-7.5,4.3-10.3 C243.6,41.2,247.1,39.8,251.1,39.8L251.1,39.8z M256.1,54.1c0-1.5-0.5-2.7-1.5-3.7c-1-1-2.3-1.5-3.8-1.5c-1.5,0-2.7,0.5-3.8,1.5 c-1,1-1.6,2.3-1.6,3.7v33.3c0,1.5,0.5,2.7,1.6,3.7c1,1,2.3,1.5,3.8,1.5c1.5,0,2.7-0.5,3.8-1.5c1-1,1.5-2.3,1.5-3.7V54.1L256.1,54.1z "></path> <path class="st1" d="M288.6,102c-4.1,0-7.6-1.4-10.4-4.2c-2.8-2.8-4.3-6.2-4.3-10.2v-47h9.1v46.9c0,1.5,0.5,2.7,1.6,3.7 c1,1,2.3,1.5,3.8,1.5s2.7-0.5,3.8-1.5c1-1,1.5-2.3,1.5-3.7V40.6h9.7v47c0,4.1-1.4,7.5-4.3,10.3C296.1,100.6,292.7,102,288.6,102 L288.6,102z"></path> <path class="st1" d="M341.7,86.2c0.1,4.2-1,7.9-3.3,10.9c-1.5,2-3.6,3.5-6.4,4.3c-1.5,0.5-3.2,0.7-5.1,0.7c-3.6,0-6.6-0.9-9-2.7 c-2-1.5-3.6-3.4-4.7-5.9c-1.2-2.5-1.8-5.4-2-8.6l8.8-0.6c0.4,3.5,1.3,6.1,2.8,7.7c1.1,1.2,2.4,1.8,3.8,1.7c2-0.1,3.7-1,4.9-3 c0.6-0.9,0.9-2.3,0.9-4c0-2.5-1.2-5-3.5-7.5c-1.8-1.7-4.6-4.3-8.2-7.7c-3.1-2.9-5.3-5.6-6.5-7.9c-1.4-2.6-2.1-5.5-2.1-8.5 c0-5.5,1.9-9.7,5.6-12.6c2.3-1.7,5.2-2.6,8.6-2.6c3.3,0,6.1,0.7,8.5,2.2c1.8,1.1,3.3,2.7,4.4,4.8c1.1,2,1.8,4.4,2,7l-8.9,1.6 c-0.3-2.5-1-4.4-2.2-5.8c-0.9-1-2.1-1.5-3.7-1.5c-1.7,0-3,0.7-3.9,2.2c-0.7,1.2-1.1,2.7-1.1,4.5c0,2.8,1.2,5.6,3.6,8.5 c0.9,1.1,2.3,2.4,4.1,3.9c2.2,1.8,3.6,3,4.3,3.7c2.3,2.3,4.1,4.5,5.3,6.7c0.6,1,1.1,2,1.4,2.9C341.2,82.5,341.6,84.5,341.7,86.2 L341.7,86.2z"></path> <polygon class="st1" points="349.4,101.3 349.4,40.5 375.8,40.5 375.8,49.7 358.6,49.7 358.6,66.3 371.2,66.3 371.2,75.5 358.6,75.5 358.6,92.1 375.8,92.1 375.8,101.3 349.4,101.3 "></polygon> <path class="st3" d="M43.7,26.5v-6c-0.7,0-1.4,0-2.2,0c-0.7,0-1.4,0-2.2,0v6c0.7,0,1.5,0,2.2,0C42.3,26.5,43,26.5,43.7,26.5 L43.7,26.5z M90.1,13.3l-32.4,7.3v4.7L90.3,33L90.1,13.3L90.1,13.3z M29,17.1c0,0.3,0.3,0.6,0.9,0.8v9.4l0.4-0.1 c1.3-0.2,2.6-0.4,3.9-0.5v-7.9c2.1,0.3,4.6,0.4,7.4,0.4c0.7,0,1.5,0,2.2,0c1.9-0.1,3.7-0.2,5.2-0.4v7.9c1.3,0.1,2.7,0.3,4,0.5 l0.4,0.1v-9.4c0.6-0.3,0.9-0.5,0.9-0.8c0-1-4.9-1.5-10.4-1.6C36.8,15.4,29,15.9,29,17.1L29,17.1z"></path> <path class="st1" d="M212.3,122.8h-2.9v-12.6h4.9c0.5,0,0.9,0.1,1.3,0.2c0.4,0.1,0.8,0.3,1.1,0.5c0.3,0.2,0.6,0.5,0.9,0.7 c0.2,0.3,0.5,0.6,0.6,0.9c0.2,0.3,0.3,0.7,0.4,1c0.1,0.3,0.1,0.7,0.1,1c0,0.3,0,0.7-0.1,1c-0.1,0.3-0.2,0.7-0.3,1 c-0.2,0.3-0.4,0.6-0.6,0.9c-0.3,0.3-0.6,0.6-0.9,0.8l3.4,4.5h-2.4h-0.1c-0.1,0-0.1,0-0.3,0c-0.1,0-0.3-0.1-0.4-0.1 c-0.2-0.1-0.3-0.2-0.5-0.3c-0.2-0.1-0.3-0.3-0.5-0.5l-2.1-2.9h-1.6V122.8L212.3,122.8z M214.5,116.1c0.2,0,0.3,0,0.5-0.1 c0.2-0.1,0.3-0.2,0.4-0.3c0.1-0.1,0.2-0.3,0.3-0.5c0.1-0.2,0.1-0.4,0.1-0.5c0-0.2,0-0.4-0.1-0.5c-0.1-0.2-0.2-0.3-0.3-0.5 c-0.1-0.1-0.3-0.3-0.4-0.3c-0.2-0.1-0.3-0.1-0.5-0.1h-2.2v3H214.5L214.5,116.1z M235.4,122.8H227v-12.6h8.4v2.7h-5.5v2.2h4.5v2.7 h-4.5v2.3h5.5V122.8L235.4,122.8z M245.4,116.5c0,0.5,0.1,0.9,0.3,1.4c0.2,0.4,0.5,0.8,0.8,1.1c0.3,0.3,0.7,0.6,1.1,0.8 c0.4,0.2,0.9,0.3,1.4,0.3c0.4,0,0.7-0.1,1.1-0.2c0.3-0.1,0.6-0.3,0.9-0.5c0.3-0.2,0.7-0.3,1.1-0.3c0.3,0,0.6,0,0.8,0.1 c0.2,0.1,0.4,0.2,0.6,0.4l0.7,0.7c-0.4,0.4-0.7,0.7-1.2,1c-0.4,0.3-0.8,0.6-1.3,0.8c-0.4,0.2-0.9,0.4-1.3,0.5 c-0.5,0.1-0.9,0.2-1.4,0.2c-0.6,0-1.2-0.1-1.7-0.2c-0.6-0.2-1.1-0.4-1.5-0.6c-0.5-0.3-0.9-0.6-1.3-1c-0.4-0.4-0.7-0.8-1-1.3 c-0.3-0.5-0.5-1-0.7-1.5c-0.2-0.5-0.2-1.1-0.2-1.7c0-0.6,0.1-1.2,0.2-1.7c0.2-0.6,0.4-1.1,0.7-1.5c0.3-0.5,0.6-0.9,1-1.3 c0.4-0.4,0.8-0.7,1.3-1c0.5-0.3,1-0.5,1.5-0.6c0.6-0.2,1.1-0.2,1.7-0.2c0.5,0,0.9,0.1,1.4,0.2c0.5,0.1,0.9,0.3,1.3,0.5 c0.4,0.2,0.9,0.5,1.3,0.8c0.4,0.3,0.8,0.7,1.2,1l-0.7,0.7c-0.2,0.2-0.4,0.3-0.6,0.4c-0.2,0.1-0.5,0.2-0.8,0.2 c-0.4,0-0.7-0.1-1.1-0.3c-0.3-0.2-0.6-0.4-0.9-0.5c-0.3-0.1-0.7-0.2-1.1-0.2c-0.5,0-0.9,0.1-1.4,0.3c-0.4,0.2-0.8,0.4-1.1,0.8 c-0.3,0.3-0.6,0.7-0.8,1.1C245.5,115.6,245.4,116,245.4,116.5L245.4,116.5z M264.9,122.8H262v-12.6h4.9c0.5,0,0.9,0.1,1.3,0.2 c0.4,0.1,0.8,0.3,1.1,0.5c0.3,0.2,0.6,0.5,0.9,0.7c0.2,0.3,0.5,0.6,0.6,0.9c0.2,0.3,0.3,0.7,0.4,1c0.1,0.3,0.1,0.7,0.1,1 c0,0.3,0,0.7-0.1,1c-0.1,0.3-0.2,0.7-0.3,1c-0.2,0.3-0.4,0.6-0.6,0.9c-0.3,0.3-0.6,0.6-0.9,0.8l3.4,4.5h-2.4h-0.1 c-0.1,0-0.1,0-0.3,0c-0.1,0-0.3-0.1-0.4-0.1c-0.2-0.1-0.3-0.2-0.5-0.3c-0.2-0.1-0.3-0.3-0.5-0.5l-2.1-2.9h-1.6V122.8L264.9,122.8z M267.1,116.1c0.2,0,0.3,0,0.5-0.1c0.2-0.1,0.3-0.2,0.4-0.3c0.1-0.1,0.2-0.3,0.3-0.5c0.1-0.2,0.1-0.4,0.1-0.5c0-0.2,0-0.4-0.1-0.5 c-0.1-0.2-0.2-0.3-0.3-0.5c-0.1-0.1-0.3-0.3-0.4-0.3c-0.2-0.1-0.3-0.1-0.5-0.1h-2.2v3H267.1L267.1,116.1z M282.4,117.7 c0,0.3,0.1,0.6,0.2,0.9c0.1,0.3,0.3,0.5,0.5,0.7c0.2,0.2,0.5,0.4,0.7,0.5c0.3,0.1,0.6,0.2,0.9,0.2c0.3,0,0.6-0.1,0.9-0.2 c0.3-0.1,0.5-0.3,0.8-0.5c0.2-0.2,0.4-0.5,0.5-0.7c0.1-0.3,0.2-0.6,0.2-0.9v-7.5h2.9v7.5c0,0.7-0.1,1.4-0.4,2 c-0.3,0.6-0.7,1.2-1.1,1.6c-0.5,0.5-1,0.8-1.7,1.1c-0.6,0.3-1.3,0.4-2,0.4c-0.5,0-0.9-0.1-1.4-0.2c-0.4-0.1-0.9-0.3-1.2-0.5 c-0.4-0.2-0.7-0.5-1.1-0.8c-0.3-0.3-0.6-0.7-0.8-1.1c-0.2-0.4-0.4-0.8-0.5-1.2c-0.1-0.4-0.2-0.9-0.2-1.4v-7.5h2.9V117.7L282.4,117.7 z M301.4,122.8h-2.9v-12.6h2.9V122.8L301.4,122.8z M309,112.9v-2.7h9.9v2.7h-3.5v9.9h-2.9v-9.9H309L309,112.9z M334.7,122.8h-8.4 v-12.6h8.4v2.7h-5.5v2.2h4.5v2.7h-4.5v2.3h5.5V122.8L334.7,122.8z M345.6,122.8h-2.9v-12.6h4.9c0.5,0,0.9,0.1,1.3,0.2 c0.4,0.1,0.8,0.3,1.1,0.5c0.3,0.2,0.6,0.5,0.9,0.7c0.2,0.3,0.5,0.6,0.6,0.9c0.2,0.3,0.3,0.7,0.4,1c0.1,0.3,0.1,0.7,0.1,1 c0,0.3,0,0.7-0.1,1c-0.1,0.3-0.2,0.7-0.3,1c-0.2,0.3-0.4,0.6-0.6,0.9c-0.3,0.3-0.6,0.6-0.9,0.8l3.4,4.5H351h-0.1c-0.1,0-0.1,0-0.3,0 c-0.1,0-0.3-0.1-0.4-0.1c-0.2-0.1-0.3-0.2-0.5-0.3c-0.2-0.1-0.3-0.3-0.5-0.5l-2.1-2.9h-1.6V122.8L345.6,122.8z M347.8,116.1 c0.2,0,0.3,0,0.5-0.1c0.2-0.1,0.3-0.2,0.4-0.3c0.1-0.1,0.2-0.3,0.3-0.5c0.1-0.2,0.1-0.4,0.1-0.5c0-0.2,0-0.4-0.1-0.5 c-0.1-0.2-0.2-0.3-0.3-0.5c-0.1-0.1-0.3-0.3-0.4-0.3c-0.2-0.1-0.3-0.1-0.5-0.1h-2.2v3H347.8L347.8,116.1z M364.1,113 c-0.2,0-0.3,0-0.4,0c-0.1,0-0.3,0.1-0.4,0.1c-0.1,0.1-0.2,0.1-0.3,0.2c-0.1,0.1-0.1,0.2-0.1,0.3c0,0.2,0,0.3,0.1,0.4 c0.1,0.1,0.2,0.2,0.4,0.3c0.2,0.1,0.4,0.2,0.7,0.2c0.3,0.1,0.6,0.2,1,0.3c0.5,0.2,0.9,0.4,1.3,0.6c0.4,0.2,0.7,0.5,1,0.8 c0.3,0.3,0.5,0.7,0.7,1.1c0.2,0.4,0.2,0.8,0.2,1.3c0,0.6-0.1,1.2-0.4,1.7c-0.3,0.5-0.6,0.9-1,1.3c-0.4,0.4-0.9,0.6-1.5,0.8 c-0.6,0.2-1.1,0.3-1.7,0.3c-0.5,0-1-0.1-1.5-0.2c-0.5-0.2-0.9-0.4-1.3-0.6c-0.4-0.3-0.7-0.6-1-1c-0.3-0.4-0.5-0.8-0.7-1.2l0.9-0.5 c0.1-0.1,0.3-0.1,0.5-0.2c0.2,0,0.3-0.1,0.5-0.1c0.3,0,0.5,0.1,0.7,0.2c0.2,0.1,0.4,0.2,0.6,0.3c0.2,0.1,0.4,0.2,0.6,0.3 c0.2,0.1,0.4,0.2,0.7,0.2c0.2,0,0.4,0,0.6-0.1c0.2-0.1,0.4-0.1,0.6-0.2c0.2-0.1,0.3-0.2,0.4-0.4c0.1-0.2,0.2-0.3,0.2-0.5 c0-0.2-0.1-0.4-0.2-0.5c-0.1-0.1-0.3-0.2-0.4-0.3c-0.2-0.1-0.4-0.2-0.6-0.3c-0.2-0.1-0.5-0.2-0.8-0.3c-0.4-0.2-0.9-0.3-1.3-0.5 c-0.4-0.2-0.8-0.4-1.1-0.7c-0.3-0.3-0.6-0.6-0.8-1c-0.2-0.4-0.3-0.9-0.3-1.5c0-0.6,0.1-1.1,0.3-1.5c0.2-0.4,0.5-0.8,0.9-1.1 c0.4-0.3,0.8-0.5,1.3-0.7c0.5-0.2,1-0.2,1.5-0.2c0.4,0,0.7,0.1,1.1,0.2c0.4,0.1,0.7,0.3,1,0.5c0.3,0.2,0.6,0.4,0.9,0.7 c0.3,0.3,0.5,0.5,0.7,0.8L367,113c-0.2,0.2-0.4,0.3-0.5,0.3c-0.2,0.1-0.4,0.1-0.6,0.1c-0.2,0-0.4,0-0.5-0.1c-0.1,0-0.3-0.1-0.4-0.2 c-0.1-0.1-0.2-0.1-0.4-0.2C364.4,113,364.3,113,364.1,113L364.1,113z"></path> <g> <g> <path class="st4" d="M133.7,141c-0.1-1.3-0.2-2.8-0.1-4h0c-0.3,1.1-0.7,2.2-1.2,3.5l-1.6,4.5h-0.9l-1.5-4.4 c-0.4-1.3-0.8-2.5-1.1-3.6h0c0,1.2-0.1,2.7-0.2,4.1l-0.2,4h-1.1l0.6-9.3h1.5l1.6,4.5c0.4,1.1,0.7,2.2,0.9,3.1h0 c0.2-0.9,0.6-2,1-3.1l1.6-4.5h1.5l0.6,9.3h-1.2L133.7,141z"></path> <path class="st4" d="M137.5,141.9c0,1.6,1.1,2.3,2.3,2.3c0.9,0,1.4-0.2,1.8-0.3l0.2,0.9c-0.4,0.2-1.2,0.4-2.2,0.4 c-2,0-3.3-1.3-3.3-3.4c0-2,1.2-3.6,3.1-3.6c2.2,0,2.8,1.9,2.8,3.1c0,0.2,0,0.4,0,0.6H137.5z M141,141.1c0-0.8-0.3-2-1.7-2 c-1.2,0-1.8,1.1-1.9,2H141z"></path> <path class="st4" d="M143.6,140.2c0-0.7,0-1.3-0.1-1.8h1.1l0.1,1.1h0c0.4-0.6,1-1.2,2.1-1.2c0.9,0,1.6,0.5,1.9,1.3h0 c0.2-0.4,0.5-0.7,0.7-0.9c0.4-0.3,0.8-0.5,1.5-0.5c0.9,0,2.2,0.6,2.2,2.9v3.9h-1.2v-3.8c0-1.3-0.5-2-1.4-2c-0.7,0-1.2,0.5-1.4,1.1 c-0.1,0.2-0.1,0.4-0.1,0.6v4.1h-1.2v-4c0-1.1-0.5-1.8-1.4-1.8c-0.8,0-1.3,0.6-1.5,1.2c-0.1,0.2-0.1,0.4-0.1,0.6v4h-1.2V140.2z"></path> <path class="st4" d="M154.9,145.1c0-0.5,0.1-1.1,0.1-1.7v-8h1.2v4.2h0c0.4-0.7,1.2-1.2,2.3-1.2c1.6,0,2.8,1.4,2.8,3.4 c0,2.4-1.5,3.6-3,3.6c-1,0-1.7-0.4-2.2-1.3h0l-0.1,1.1H154.9z M156.1,142.4c0,0.2,0,0.3,0.1,0.4c0.2,0.8,0.9,1.4,1.8,1.4 c1.3,0,2-1,2-2.6c0-1.3-0.7-2.5-2-2.5c-0.8,0-1.6,0.6-1.8,1.5c0,0.1-0.1,0.3-0.1,0.5V142.4z"></path> <path class="st4" d="M163.3,141.9c0,1.6,1.1,2.3,2.3,2.3c0.9,0,1.4-0.2,1.8-0.3l0.2,0.9c-0.4,0.2-1.2,0.4-2.2,0.4 c-2,0-3.3-1.3-3.3-3.4c0-2,1.2-3.6,3.1-3.6c2.2,0,2.8,1.9,2.8,3.1c0,0.2,0,0.4,0,0.6H163.3z M166.9,141.1c0-0.8-0.3-2-1.7-2 c-1.2,0-1.8,1.1-1.9,2H166.9z"></path> <path class="st4" d="M169.4,140.5c0-0.8,0-1.5-0.1-2.1h1.1l0,1.3h0.1c0.3-0.9,1-1.5,1.8-1.5c0.1,0,0.2,0,0.3,0v1.1 c-0.1,0-0.2,0-0.4,0c-0.9,0-1.5,0.6-1.6,1.6c0,0.2-0.1,0.4-0.1,0.6v3.5h-1.2V140.5z"></path> <path class="st4" d="M182.6,141.7c0,2.5-1.7,3.5-3.3,3.5c-1.8,0-3.2-1.3-3.2-3.4c0-2.2,1.5-3.5,3.3-3.5 C181.3,138.3,182.6,139.6,182.6,141.7z M177.3,141.7c0,1.5,0.8,2.6,2,2.6c1.2,0,2-1.1,2-2.6c0-1.1-0.6-2.6-2-2.6 S177.3,140.5,177.3,141.7z"></path> <path class="st4" d="M184.1,145.1v-5.7h-0.9v-0.9h0.9v-0.3c0-0.9,0.2-1.8,0.8-2.3c0.5-0.4,1.1-0.6,1.6-0.6c0.4,0,0.8,0.1,1,0.2 l-0.2,0.9c-0.2-0.1-0.4-0.2-0.8-0.2c-1,0-1.3,0.9-1.3,1.9v0.4h1.6v0.9h-1.6v5.7H184.1z"></path> <path class="st4" d="M190.5,143.6c0.5,0.3,1.3,0.6,2.1,0.6c1.2,0,1.9-0.6,1.9-1.6c0-0.9-0.5-1.4-1.7-1.8c-1.5-0.5-2.4-1.3-2.4-2.6 c0-1.4,1.2-2.5,3-2.5c0.9,0,1.6,0.2,2,0.5l-0.3,1c-0.3-0.2-0.9-0.4-1.8-0.4c-1.3,0-1.7,0.8-1.7,1.4c0,0.9,0.6,1.3,1.8,1.8 c1.6,0.6,2.4,1.4,2.4,2.7c0,1.4-1.1,2.7-3.2,2.7c-0.9,0-1.9-0.3-2.4-0.6L190.5,143.6z"></path> <path class="st4" d="M201,145.1l-0.1-0.8h0c-0.4,0.5-1.1,1-2,1c-1.3,0-2-0.9-2-1.9c0-1.6,1.4-2.5,4-2.5v-0.1 c0-0.5-0.2-1.5-1.5-1.5c-0.6,0-1.3,0.2-1.7,0.5l-0.3-0.8c0.6-0.4,1.3-0.6,2.2-0.6c2,0,2.5,1.4,2.5,2.7v2.5c0,0.6,0,1.1,0.1,1.6 H201z M200.9,141.7c-1.3,0-2.8,0.2-2.8,1.5c0,0.8,0.5,1.2,1.1,1.2c0.9,0,1.4-0.5,1.6-1.1c0-0.1,0.1-0.3,0.1-0.4V141.7z"></path> <path class="st4" d="M203.9,140.2c0-0.7,0-1.3-0.1-1.8h1.1l0.1,1.1h0c0.3-0.6,1.1-1.3,2.2-1.3c0.9,0,2.4,0.5,2.4,2.8v4h-1.2v-3.8 c0-1.1-0.4-2-1.5-2c-0.8,0-1.4,0.6-1.6,1.2c-0.1,0.2-0.1,0.4-0.1,0.6v4h-1.2V140.2z"></path> <path class="st4" d="M211.5,145.1v-5.7h-0.9v-0.9h0.9v-0.3c0-0.9,0.2-1.8,0.8-2.3c0.5-0.4,1.1-0.6,1.6-0.6c0.4,0,0.8,0.1,1,0.2 l-0.2,0.9c-0.2-0.1-0.4-0.2-0.8-0.2c-1,0-1.3,0.9-1.3,1.9v0.4h1.6v0.9h-1.6v5.7H211.5z"></path> <path class="st4" d="M221.1,141.7c0,2.5-1.7,3.5-3.3,3.5c-1.8,0-3.2-1.3-3.2-3.4c0-2.2,1.5-3.5,3.3-3.5 C219.8,138.3,221.1,139.6,221.1,141.7z M215.8,141.7c0,1.5,0.8,2.6,2,2.6c1.2,0,2-1.1,2-2.6c0-1.1-0.6-2.6-2-2.6 C216.4,139.2,215.8,140.5,215.8,141.7z"></path> <path class="st4" d="M222.5,140.5c0-0.8,0-1.5-0.1-2.1h1.1l0,1.3h0.1c0.3-0.9,1-1.5,1.8-1.5c0.1,0,0.2,0,0.3,0v1.1 c-0.1,0-0.2,0-0.4,0c-0.9,0-1.5,0.6-1.6,1.6c0,0.2-0.1,0.4-0.1,0.6v3.5h-1.2V140.5z"></path> <path class="st4" d="M232.5,135.3v8c0,0.6,0,1.3,0.1,1.7h-1.1l-0.1-1.2h0c-0.4,0.7-1.2,1.3-2.3,1.3c-1.6,0-2.8-1.4-2.8-3.4 c0-2.2,1.4-3.6,3-3.6c1,0,1.7,0.5,2,1h0v-4H232.5z M231.3,141.1c0-0.2,0-0.4-0.1-0.5c-0.2-0.8-0.8-1.4-1.7-1.4c-1.3,0-2,1.1-2,2.6 c0,1.3,0.7,2.5,2,2.5c0.8,0,1.6-0.5,1.8-1.4c0-0.2,0.1-0.3,0.1-0.5V141.1z"></path> <path class="st4" d="M237.2,135.9c0.6-0.1,1.5-0.2,2.3-0.2c1.3,0,2.1,0.2,2.7,0.8c0.5,0.4,0.7,1,0.7,1.8c0,1.2-0.8,2-1.7,2.4v0 c0.7,0.2,1.1,0.9,1.4,1.9c0.3,1.3,0.5,2.2,0.7,2.5H242c-0.2-0.3-0.4-1.1-0.6-2.2c-0.3-1.3-0.8-1.8-1.9-1.8h-1.1v4h-1.2V135.9z M238.4,140.1h1.2c1.3,0,2.1-0.7,2.1-1.8c0-1.2-0.9-1.7-2.1-1.7c-0.6,0-1,0.1-1.2,0.1V140.1z"></path> <path class="st4" d="M250.5,141.7c0,2.5-1.7,3.5-3.3,3.5c-1.8,0-3.2-1.3-3.2-3.4c0-2.2,1.5-3.5,3.3-3.5 C249.2,138.3,250.5,139.6,250.5,141.7z M245.2,141.7c0,1.5,0.8,2.6,2,2.6c1.2,0,2-1.1,2-2.6c0-1.1-0.6-2.6-2-2.6 C245.9,139.2,245.2,140.5,245.2,141.7z"></path> <path class="st4" d="M251.7,143.8c0.4,0.2,1,0.5,1.6,0.5c0.9,0,1.3-0.4,1.3-1c0-0.6-0.3-0.9-1.2-1.2c-1.2-0.4-1.8-1.1-1.8-1.9 c0-1.1,0.9-2,2.3-2c0.7,0,1.3,0.2,1.6,0.4l-0.3,0.9c-0.3-0.2-0.7-0.4-1.4-0.4c-0.7,0-1.1,0.4-1.1,0.9c0,0.5,0.4,0.8,1.3,1.1 c1.2,0.4,1.7,1,1.7,2c0,1.2-0.9,2-2.5,2c-0.7,0-1.4-0.2-1.9-0.5L251.7,143.8z"></path> <path class="st4" d="M257.9,141.9c0,1.6,1.1,2.3,2.3,2.3c0.9,0,1.4-0.2,1.8-0.3l0.2,0.9c-0.4,0.2-1.2,0.4-2.2,0.4 c-2,0-3.3-1.3-3.3-3.4c0-2,1.2-3.6,3.1-3.6c2.2,0,2.7,1.9,2.7,3.1c0,0.2,0,0.4,0,0.6H257.9z M261.5,141.1c0-0.8-0.3-2-1.7-2 c-1.2,0-1.8,1.1-1.9,2H261.5z"></path> <path class="st4" d="M268.3,142.1l-1,2.9h-1.2l3.1-9.3h1.4l3.2,9.3h-1.3l-1-2.9H268.3z M271.4,141.2l-0.9-2.7 c-0.2-0.6-0.3-1.2-0.5-1.7h0c-0.1,0.5-0.3,1.1-0.5,1.7l-0.9,2.7H271.4z"></path> <path class="st4" d="M274.8,143.8c0.4,0.2,1,0.5,1.6,0.5c0.9,0,1.3-0.4,1.3-1c0-0.6-0.3-0.9-1.2-1.2c-1.2-0.4-1.8-1.1-1.8-1.9 c0-1.1,0.9-2,2.3-2c0.7,0,1.3,0.2,1.6,0.4l-0.3,0.9c-0.3-0.2-0.7-0.4-1.4-0.4c-0.7,0-1.1,0.4-1.1,0.9c0,0.5,0.4,0.8,1.3,1.1 c1.2,0.4,1.7,1,1.7,2c0,1.2-0.9,2-2.5,2c-0.7,0-1.4-0.2-1.9-0.5L274.8,143.8z"></path> <path class="st4" d="M280.2,143.8c0.4,0.2,1,0.5,1.6,0.5c0.9,0,1.3-0.4,1.3-1c0-0.6-0.3-0.9-1.2-1.2c-1.2-0.4-1.8-1.1-1.8-1.9 c0-1.1,0.9-2,2.3-2c0.7,0,1.3,0.2,1.6,0.4l-0.3,0.9c-0.3-0.2-0.7-0.4-1.4-0.4c-0.7,0-1.1,0.4-1.1,0.9c0,0.5,0.4,0.8,1.3,1.1 c1.2,0.4,1.7,1,1.7,2c0,1.2-0.9,2-2.5,2c-0.7,0-1.4-0.2-1.9-0.5L280.2,143.8z"></path> <path class="st4" d="M291.7,141.7c0,2.5-1.7,3.5-3.3,3.5c-1.8,0-3.2-1.3-3.2-3.4c0-2.2,1.5-3.5,3.3-3.5 C290.4,138.3,291.7,139.6,291.7,141.7z M286.4,141.7c0,1.5,0.8,2.6,2,2.6c1.2,0,2-1.1,2-2.6c0-1.1-0.6-2.6-2-2.6 C287,139.2,286.4,140.5,286.4,141.7z"></path> <path class="st4" d="M297.8,144.8c-0.3,0.2-1,0.4-1.9,0.4c-2,0-3.3-1.4-3.3-3.4c0-2,1.4-3.5,3.6-3.5c0.7,0,1.3,0.2,1.7,0.3 l-0.3,0.9c-0.3-0.2-0.7-0.3-1.4-0.3c-1.5,0-2.4,1.1-2.4,2.5c0,1.5,1,2.5,2.3,2.5c0.7,0,1.1-0.2,1.5-0.3L297.8,144.8z"></path> <path class="st4" d="M300.4,136.5c0,0.4-0.3,0.7-0.8,0.7c-0.4,0-0.7-0.3-0.7-0.7c0-0.4,0.3-0.8,0.8-0.8 C300.2,135.8,300.4,136.1,300.4,136.5z M299.1,145.1v-6.7h1.2v6.7H299.1z"></path> <path class="st4" d="M305.9,145.1l-0.1-0.8h0c-0.4,0.5-1.1,1-2,1c-1.3,0-2-0.9-2-1.9c0-1.6,1.4-2.5,4-2.5v-0.1 c0-0.5-0.2-1.5-1.5-1.5c-0.6,0-1.3,0.2-1.7,0.5l-0.3-0.8c0.6-0.4,1.3-0.6,2.2-0.6c2,0,2.5,1.4,2.5,2.7v2.5c0,0.6,0,1.1,0.1,1.6 H305.9z M305.7,141.7c-1.3,0-2.8,0.2-2.8,1.5c0,0.8,0.5,1.2,1.1,1.2c0.9,0,1.4-0.5,1.6-1.1c0-0.1,0.1-0.3,0.1-0.4V141.7z"></path> <path class="st4" d="M310.1,136.5v1.9h1.7v0.9h-1.7v3.6c0,0.8,0.2,1.3,0.9,1.3c0.3,0,0.5,0,0.7-0.1l0.1,0.9 c-0.2,0.1-0.6,0.2-1.1,0.2c-0.6,0-1-0.2-1.3-0.5c-0.3-0.4-0.5-0.9-0.5-1.7v-3.6h-1v-0.9h1v-1.6L310.1,136.5z"></path> <path class="st4" d="M313.7,141.9c0,1.6,1.1,2.3,2.3,2.3c0.9,0,1.4-0.2,1.8-0.3l0.2,0.9c-0.4,0.2-1.2,0.4-2.2,0.4 c-2,0-3.3-1.3-3.3-3.4c0-2,1.2-3.6,3.1-3.6c2.2,0,2.7,1.9,2.7,3.1c0,0.2,0,0.4,0,0.6H313.7z M317.2,141.1c0-0.8-0.3-2-1.7-2 c-1.2,0-1.8,1.1-1.9,2H317.2z"></path> <path class="st4" d="M319.6,143.8c0.4,0.2,1,0.5,1.6,0.5c0.9,0,1.3-0.4,1.3-1c0-0.6-0.3-0.9-1.2-1.2c-1.2-0.4-1.8-1.1-1.8-1.9 c0-1.1,0.9-2,2.3-2c0.7,0,1.3,0.2,1.6,0.4l-0.3,0.9c-0.3-0.2-0.7-0.4-1.4-0.4c-0.7,0-1.1,0.4-1.1,0.9c0,0.5,0.4,0.8,1.3,1.1 c1.2,0.4,1.7,1,1.7,2c0,1.2-0.9,2-2.5,2c-0.7,0-1.4-0.2-1.9-0.5L319.6,143.8z"></path> <path class="st4" d="M327.1,136.3c0,0.7-0.6,1.3-1.3,1.3c-0.8,0-1.4-0.6-1.4-1.3c0-0.7,0.6-1.3,1.4-1.3 C326.5,135,327.1,135.6,327.1,136.3z M324.7,136.3c0,0.6,0.4,1,1,1c0.6,0,1-0.5,1-1c0-0.6-0.4-1.1-1-1.1 C325.2,135.3,324.7,135.7,324.7,136.3z M325.5,137h-0.3v-1.3c0.1,0,0.3,0,0.5,0c0.2,0,0.4,0,0.5,0.1c0.1,0.1,0.1,0.2,0.1,0.3 c0,0.1-0.1,0.3-0.3,0.3v0c0.1,0,0.2,0.1,0.2,0.3c0,0.2,0.1,0.3,0.1,0.3h-0.3c0,0-0.1-0.2-0.1-0.3c0-0.1-0.1-0.2-0.3-0.2h-0.1V137z M325.5,136.2h0.1c0.2,0,0.3-0.1,0.3-0.2c0-0.1-0.1-0.2-0.3-0.2c-0.1,0-0.1,0-0.2,0V136.2z"></path> <path class="st4" d="M331.2,145.1v-9.3h1.3l3,4.7c0.7,1.1,1.2,2.1,1.7,3l0,0c-0.1-1.2-0.1-2.4-0.1-3.8v-3.9h1.1v9.3h-1.2l-2.9-4.7 c-0.6-1-1.3-2.1-1.7-3.1l0,0c0.1,1.2,0.1,2.3,0.1,3.8v4H331.2z"></path> <path class="st4" d="M340.7,141.9c0,1.6,1.1,2.3,2.3,2.3c0.9,0,1.4-0.2,1.8-0.3l0.2,0.9c-0.4,0.2-1.2,0.4-2.2,0.4 c-2,0-3.3-1.3-3.3-3.4c0-2,1.2-3.6,3.1-3.6c2.2,0,2.7,1.9,2.7,3.1c0,0.2,0,0.4,0,0.6H340.7z M344.3,141.1c0-0.8-0.3-2-1.7-2 c-1.2,0-1.8,1.1-1.9,2H344.3z"></path> <path class="st4" d="M348.3,136.5v1.9h1.7v0.9h-1.7v3.6c0,0.8,0.2,1.3,0.9,1.3c0.3,0,0.5,0,0.7-0.1l0.1,0.9 c-0.2,0.1-0.6,0.2-1.1,0.2c-0.6,0-1-0.2-1.3-0.5c-0.3-0.4-0.5-0.9-0.5-1.7v-3.6h-1v-0.9h1v-1.6L348.3,136.5z"></path> <path class="st4" d="M351.9,138.4l0.9,3.4c0.2,0.7,0.4,1.4,0.5,2.1h0c0.2-0.7,0.4-1.4,0.6-2.1l1.1-3.4h1l1,3.3 c0.2,0.8,0.4,1.5,0.6,2.2h0c0.1-0.7,0.3-1.4,0.5-2.2l0.9-3.3h1.2l-2.1,6.7H357l-1-3.2c-0.2-0.7-0.4-1.4-0.6-2.2h0 c-0.2,0.8-0.4,1.5-0.6,2.2l-1.1,3.2h-1.1l-2-6.7H351.9z"></path> <path class="st4" d="M367.3,141.7c0,2.5-1.7,3.5-3.3,3.5c-1.8,0-3.2-1.3-3.2-3.4c0-2.2,1.5-3.5,3.3-3.5 C366,138.3,367.3,139.6,367.3,141.7z M362,141.7c0,1.5,0.8,2.6,2,2.6c1.2,0,2-1.1,2-2.6c0-1.1-0.6-2.6-2-2.6 C362.6,139.2,362,140.5,362,141.7z"></path> <path class="st4" d="M368.7,140.5c0-0.8,0-1.5-0.1-2.1h1.1l0,1.3h0.1c0.3-0.9,1-1.5,1.8-1.5c0.1,0,0.2,0,0.3,0v1.1 c-0.1,0-0.2,0-0.4,0c-0.9,0-1.5,0.6-1.6,1.6c0,0.2-0.1,0.4-0.1,0.6v3.5h-1.2V140.5z"></path> <path class="st4" d="M374.3,141.5L374.3,141.5c0.2-0.2,0.4-0.5,0.6-0.8l2-2.3h1.5l-2.6,2.7l2.9,3.9h-1.5l-2.3-3.2l-0.6,0.7v2.5 h-1.2v-9.8h1.2V141.5z"></path> </g> </g> </svg> 