<svg width="225" height="334" viewBox="0 0 225 334" fill="none" xmlns="http://www.w3.org/2000/svg">
<g clip-path="url(#clip0_240_4096)">
<path d="M225 0H0V333H225V0Z" fill="#E4E2F3"/>
<path d="M225 245.098H0V333.468H225V245.098Z" fill="#6C65A6"/>
<path d="M60 35.8442C59.4982 65.5933 15.7944 65.5887 15.2969 35.8433C15.7987 6.09528 59.5026 6.09982 60 35.8442Z" fill="#8378D8"/>
<path d="M56.6849 35.8442C56.2575 61.1815 19.035 61.1776 18.6113 35.8435C19.0387 10.507 56.2612 10.511 56.6849 35.8442Z" fill="#CAC4FF"/>
<path d="M37.649 36.7944C37.6218 37.4737 30.5506 29.9024 30.4389 29.888C30.0724 29.5168 30.0724 28.9152 30.4389 28.5441C30.8051 28.173 31.3996 28.173 31.7658 28.5441L36.7101 33.5502V21.8703C36.7101 21.3456 37.1304 20.9202 37.6487 20.9202C38.167 20.9202 38.5873 21.3457 38.5873 21.8703V35.8443C38.5964 36.3571 38.1536 36.8032 37.649 36.7944Z" fill="#8378D8"/>
<path d="M207.059 272.403H22.2617V276.426H207.059V272.403Z" fill="#392D99"/>
<path d="M207.059 272.403H22.2617L37.1746 241.239H192.146L207.059 272.403Z" fill="#09004F"/>
<path d="M189.929 244.145H39.3466C39.2243 244.145 39.125 244.047 39.125 243.926C39.125 243.805 39.2243 243.707 39.3466 243.707H189.929C190.051 243.707 190.15 243.805 190.15 243.926C190.15 244.047 190.051 244.145 189.929 244.145Z" fill="#392D99"/>
<path d="M191.652 248.475H37.5654C37.443 248.475 37.3438 248.377 37.3438 248.256C37.3438 248.136 37.443 248.038 37.5654 248.038H191.652C191.774 248.038 191.874 248.136 191.874 248.256C191.874 248.377 191.774 248.475 191.652 248.475Z" fill="#392D99"/>
<path d="M194.3 253.596H35.3036C35.1813 253.596 35.082 253.498 35.082 253.377C35.082 253.256 35.1813 253.159 35.3036 253.159H194.3C194.423 253.159 194.522 253.256 194.522 253.377C194.522 253.498 194.423 253.596 194.3 253.596Z" fill="#392D99"/>
<path d="M199.617 266.2H29.8701C29.7477 266.2 29.6484 266.102 29.6484 265.982C29.6484 265.861 29.7477 265.763 29.8701 265.763H199.617C199.74 265.763 199.839 265.861 199.839 265.982C199.839 266.102 199.74 266.2 199.617 266.2Z" fill="#392D99"/>
<path d="M196.676 259.451H32.5927C32.4703 259.451 32.3711 259.353 32.3711 259.233C32.3711 259.112 32.4703 259.014 32.5927 259.014H196.676C196.798 259.014 196.897 259.112 196.897 259.233C196.897 259.353 196.798 259.451 196.676 259.451Z" fill="#392D99"/>
<path d="M129.594 172.285H105.172V213.516H129.594V172.285Z" fill="#09004F"/>
<path d="M140.657 214.056H94.1118C91.7276 214.056 89.7949 212.15 89.7949 209.798C89.7949 207.446 91.7276 205.539 94.1118 205.539H140.657C143.041 205.539 144.973 207.446 144.973 209.798C144.974 212.15 143.041 214.056 140.657 214.056Z" fill="#09004F"/>
<path d="M206.268 195.781L206.268 91.9256L28.5007 91.9256L28.5007 195.781L206.268 195.781Z" fill="#09004F"/>
<path d="M200.063 97.644H34.7031V190.062H200.063V97.644Z" fill="#BCB4FF"/>
<path d="M195.861 101.192H38.9062V186.515H195.861V101.192Z" fill="white"/>
<path d="M191.721 105.294H106.213V161.074H191.721V105.294Z" fill="#B3ABF3"/>
<path d="M191.721 160.611H106.213V167.655H191.721V160.611Z" fill="#09004F"/>
<path d="M186.763 164.619H163.394C163.12 164.619 162.898 164.401 162.898 164.133C162.898 163.865 163.12 163.648 163.394 163.648H186.763C187.037 163.648 187.259 163.865 187.259 164.133C187.259 164.402 187.037 164.619 186.763 164.619Z" fill="#C4BEF8"/>
<path d="M163.394 164.619H114.146C113.872 164.619 113.65 164.401 113.65 164.133C113.65 163.865 113.872 163.648 114.146 163.648H163.394C163.668 163.648 163.89 163.865 163.89 164.133C163.89 164.402 163.668 164.619 163.394 164.619Z" fill="#B8AFFC"/>
<path d="M163.394 165.688C164.271 165.688 164.981 164.992 164.981 164.133C164.981 163.274 164.271 162.578 163.394 162.578C162.517 162.578 161.807 163.274 161.807 164.133C161.807 164.992 162.517 165.688 163.394 165.688Z" fill="#7167C7"/>
<path d="M109.187 166.198C108.913 166.198 108.691 165.981 108.691 165.712V162.554C108.691 162.286 108.913 162.069 109.187 162.069C109.461 162.069 109.683 162.286 109.683 162.554V165.712C109.683 165.981 109.461 166.198 109.187 166.198Z" fill="#C4BEF8"/>
<path d="M110.976 166.198C110.702 166.198 110.48 165.981 110.48 165.712V162.554C110.48 162.286 110.702 162.069 110.976 162.069C111.25 162.069 111.472 162.286 111.472 162.554V165.712C111.472 165.981 111.25 166.198 110.976 166.198Z" fill="#C4BEF8"/>
<path d="M191.721 105.251H106.098V160.545H191.721V105.251Z" fill="#D7D2FF"/>
<path d="M149.339 124.189C151.983 124.189 154.126 122.074 154.126 119.466C154.126 116.859 151.983 114.744 149.339 114.744C146.696 114.744 144.553 116.859 144.553 119.466C144.553 122.074 146.696 124.189 149.339 124.189Z" fill="#FBB03B"/>
<path d="M133.397 146.499C133.397 146.499 162.127 136.565 191.72 142.543V160.545H131L133.397 146.499Z" fill="#A299E8"/>
<path d="M133.398 146.499C133.398 146.499 159.092 144.87 177.477 160.611L162.576 160.545L133.398 146.499Z" fill="#8075DE"/>
<path d="M106.098 142.543C106.098 142.543 144.124 143.492 162.576 160.545H106.098V142.543Z" fill="#A6ABEB"/>
<path d="M184.753 125.369C185.442 122.772 183.096 121.524 182.043 120.845C180.433 119.807 179.576 118.738 178.962 116.323C177.819 111.825 173.42 112.264 173.222 118.628C173.073 123.396 168.874 123.14 169.644 127.564C170.428 130.515 167.888 130.663 168.479 133.36C168.972 135.615 173.669 137.401 176.582 137.401C182.137 137.401 186.16 135.66 186.518 132.931C186.963 129.544 183.969 128.32 184.753 125.369Z" fill="#8075DE"/>
<path d="M179.248 123.779C179.139 123.672 178.962 123.672 178.852 123.779L177.05 125.558V121.388C177.05 121.236 176.924 121.112 176.77 121.112C176.615 121.112 176.49 121.236 176.49 121.388V131.649L175.105 130.282C174.996 130.174 174.818 130.174 174.709 130.282C174.6 130.39 174.6 130.565 174.709 130.673L176.49 132.43V144.654C176.49 144.807 176.615 144.93 176.77 144.93C176.924 144.93 177.05 144.807 177.05 144.654V126.34L179.248 124.17C179.357 124.062 179.357 123.887 179.248 123.779Z" fill="#3B679B"/>
<path d="M100.89 145.607H43.5039V183.813H100.89V145.607Z" fill="#B3ABF3"/>
<path d="M100.891 140.179H50.5723V142.841H100.891V140.179Z" fill="#B3ABF3"/>
<path d="M97.5669 149.466H53.6074V152.128H97.5669V149.466Z" fill="white"/>
<path d="M67.2419 149.466H53.6074V152.128H67.2419V149.466Z" fill="#7167C7"/>
<path d="M97.5669 156.43H53.6074V159.093H97.5669V156.43Z" fill="white"/>
<path d="M83.7922 156.43H53.6074V159.093H83.7922V156.43Z" fill="#7167C7"/>
<path d="M97.5669 163.288H53.6074V165.95H97.5669V163.288Z" fill="#7167C7"/>
<path d="M97.5669 170.194H53.6074V172.857H97.5669V170.194Z" fill="white"/>
<path d="M58.415 170.194H53.6074V172.857H58.415V170.194Z" fill="#7167C7"/>
<path d="M97.5669 177.076H53.6074V179.739H97.5669V177.076Z" fill="white"/>
<path d="M90.5821 177.076H53.6074V179.739H90.5821V177.076Z" fill="#7167C7"/>
<path d="M100.891 116.894H50.5723V119.556H100.891V116.894Z" fill="#B3ABF3"/>
<path d="M100.891 122.715H50.5723V125.377H100.891V122.715Z" fill="#B3ABF3"/>
<path d="M100.891 134.357H50.5723V137.02H100.891V134.357Z" fill="#B3ABF3"/>
<path d="M100.891 128.536H50.5723V131.198H100.891V128.536Z" fill="#B3ABF3"/>
<path d="M52.1216 105.251H43.5039V113.752H52.1216V105.251Z" fill="#7167C7"/>
<path d="M50.5725 176.283H46.2637V180.533H50.5725V176.283Z" fill="#7167C7"/>
<path d="M50.5725 169.401H46.2637V173.651H50.5725V169.401Z" fill="#7167C7"/>
<path d="M50.5725 162.518H46.2637V166.769H50.5725V162.518Z" fill="#7167C7"/>
<path d="M50.5725 155.636H46.2637V159.887H50.5725V155.636Z" fill="#7167C7"/>
<path d="M50.5725 148.672H46.2637V152.922H50.5725V148.672Z" fill="#7167C7"/>
<path d="M68.3794 105.251H59.7617V113.752H68.3794V105.251Z" fill="#B3ABF3"/>
<path d="M84.6353 105.251H76.0176V113.752H84.6353V105.251Z" fill="#7167C7"/>
<path d="M100.891 105.251H92.2734V113.752H100.891V105.251Z" fill="#B3ABF3"/>
<path d="M191.721 181.348H106.213V183.812H191.721V181.348Z" fill="#B3ABF3"/>
<path d="M191.721 169.82H106.213V172.285H191.721V169.82Z" fill="#B3ABF3"/>
<path d="M191.721 177.505H106.213V179.97H191.721V177.505Z" fill="#B3ABF3"/>
<path d="M191.721 173.663H106.213V176.127H191.721V173.663Z" fill="#B3ABF3"/>
<path d="M179.559 169.82H151.551V172.285H179.559V169.82Z" fill="#B8AFFC"/>
<path d="M186.825 173.663H138.971V176.127H186.825V173.663Z" fill="#B8AFFC"/>
<path d="M158.874 181.348H121.787V183.812H158.874V181.348Z" fill="#B8AFFC"/>
<path d="M131.071 177.505H109.188V179.97H131.071V177.505Z" fill="#B8AFFC"/>
<path d="M175.801 117.663V118.034C170.591 117.91 166.953 119.829 164.798 121.49C163.06 122.831 161.987 124.219 161.52 124.895H160.863V125.844H161.825V124.895H161.789C162.284 124.198 163.315 122.912 164.935 121.663C167.062 120.023 170.653 118.128 175.801 118.253V118.612H176.763V117.663H175.801V117.663Z" fill="#3B679B"/>
<path d="M116.395 130.593C115.705 127.996 118.052 126.748 119.104 126.069C120.715 125.03 121.572 123.962 122.186 121.547C123.329 117.048 127.728 117.488 127.926 123.851C128.075 128.62 132.274 128.363 131.504 132.788C130.72 135.739 133.26 135.886 132.669 138.584C132.176 140.839 127.479 142.625 124.566 142.625C119.011 142.625 114.988 140.884 114.629 138.155C114.184 134.768 117.178 133.544 116.395 130.593Z" fill="#8075DE"/>
<path d="M121.9 129.003C122.01 128.895 122.187 128.895 122.296 129.003L124.099 130.782V126.612C124.099 126.459 124.224 126.336 124.379 126.336C124.533 126.336 124.659 126.459 124.659 126.612V136.873L126.043 135.506C126.153 135.398 126.33 135.398 126.439 135.506C126.549 135.613 126.549 135.788 126.439 135.896L124.659 137.654V149.878C124.659 150.03 124.533 150.154 124.379 150.154C124.224 150.154 124.099 150.03 124.099 149.878V131.564L121.9 129.394C121.791 129.286 121.791 129.111 121.9 129.003Z" fill="#3B679B"/>
<path d="M139.627 130.119C139.161 129.443 138.088 128.055 136.349 126.714C134.194 125.052 130.556 123.133 125.347 123.258V122.886H124.385V123.835H125.347V123.477C130.491 123.351 134.079 125.243 136.205 126.88C137.828 128.13 138.862 129.42 139.358 130.119H139.323V131.068H140.284V130.119H139.627Z" fill="#3B679B"/>
<path d="M149.34 113.913C149.186 113.913 149.062 113.79 149.062 113.639V109.676C149.062 109.525 149.186 109.403 149.34 109.403C149.493 109.403 149.617 109.525 149.617 109.676V113.639C149.617 113.79 149.492 113.913 149.34 113.913Z" fill="#FBB03B"/>
<path d="M149.34 129.489C149.186 129.489 149.062 129.367 149.062 129.216V125.253C149.062 125.102 149.186 124.98 149.34 124.98C149.493 124.98 149.617 125.102 149.617 125.253V129.216C149.617 129.367 149.492 129.489 149.34 129.489Z" fill="#FBB03B"/>
<path d="M159.216 119.74H155.199C155.046 119.74 154.922 119.617 154.922 119.466C154.922 119.315 155.046 119.193 155.199 119.193H159.216C159.369 119.193 159.493 119.315 159.493 119.466C159.493 119.617 159.369 119.74 159.216 119.74Z" fill="#FBB03B"/>
<path d="M143.458 119.74H139.441C139.288 119.74 139.164 119.617 139.164 119.466C139.164 119.315 139.288 119.193 139.441 119.193H143.458C143.611 119.193 143.735 119.315 143.735 119.466C143.735 119.617 143.611 119.74 143.458 119.74Z" fill="#FBB03B"/>
<path d="M145.17 115.627C145.1 115.627 145.029 115.6 144.975 115.547L142.134 112.745C142.026 112.639 142.026 112.466 142.134 112.359C142.242 112.252 142.417 112.252 142.526 112.359L145.366 115.161C145.475 115.267 145.475 115.44 145.366 115.547C145.312 115.6 145.241 115.627 145.17 115.627Z" fill="#FBB03B"/>
<path d="M153.496 115.627C153.425 115.627 153.354 115.6 153.3 115.547C153.192 115.44 153.192 115.267 153.3 115.161L156.141 112.359C156.249 112.252 156.424 112.252 156.532 112.359C156.641 112.466 156.641 112.639 156.532 112.745L153.692 115.547C153.638 115.6 153.567 115.627 153.496 115.627Z" fill="#FBB03B"/>
<path d="M142.33 126.642C142.259 126.642 142.188 126.616 142.134 126.562C142.026 126.456 142.026 126.283 142.134 126.176L144.975 123.374C145.083 123.268 145.258 123.268 145.366 123.374C145.475 123.481 145.475 123.654 145.366 123.761L142.526 126.562C142.472 126.616 142.401 126.642 142.33 126.642Z" fill="#FBB03B"/>
<path d="M156.337 126.642C156.266 126.642 156.195 126.616 156.141 126.562L153.3 123.761C153.192 123.654 153.192 123.481 153.3 123.374C153.408 123.268 153.584 123.268 153.692 123.374L156.532 126.176C156.641 126.283 156.641 126.456 156.532 126.562C156.478 126.616 156.408 126.642 156.337 126.642Z" fill="#FBB03B"/>
<path d="M151.29 117.641C151.248 117.597 151.178 117.595 151.134 117.637C151.089 117.678 151.087 117.747 151.13 117.791C151.566 118.245 151.807 118.84 151.807 119.467C151.807 120.809 150.7 121.901 149.339 121.901C147.979 121.901 146.872 120.809 146.872 119.467C146.872 118.724 147.219 118.027 147.796 117.569L147.725 118.265L149.339 116.923L147.238 116.718L147.757 117.323C147.069 117.819 146.65 118.616 146.65 119.466C146.65 120.929 147.857 122.119 149.339 122.119C150.822 122.119 152.029 120.929 152.029 119.466C152.029 118.784 151.766 118.136 151.29 117.641Z" fill="#3B679B"/>
<path d="M145.328 149.638C144.637 149.638 143.833 149.263 143.627 149.16C143.491 149.093 143.436 148.929 143.504 148.794C143.573 148.659 143.739 148.605 143.876 148.672C144.444 148.953 145.418 149.249 145.707 148.992C145.768 148.939 145.769 148.875 145.654 148.608C145.57 148.41 145.465 148.164 145.633 147.951C145.797 147.744 146.114 147.705 146.804 147.809C146.955 147.832 147.059 147.972 147.036 148.121C147.013 148.27 146.872 148.372 146.72 148.349C146.393 148.3 146.217 148.296 146.126 148.302C146.138 148.334 146.153 148.368 146.165 148.396C146.265 148.63 146.452 149.067 146.078 149.399C145.881 149.573 145.614 149.638 145.328 149.638Z" fill="white"/>
<path d="M151.797 152.141C151.021 152.141 149.971 151.89 149.213 151.503C149.077 151.434 149.023 151.269 149.093 151.135C149.164 151.001 149.33 150.949 149.467 151.018C150.52 151.554 151.815 151.662 152.228 151.562C152.203 151.54 152.17 151.514 152.127 151.484C151.518 151.064 150.988 150.374 151.262 149.852C151.547 149.308 152.514 149.323 154.133 149.897C154.277 149.948 154.352 150.104 154.3 150.246C154.249 150.388 154.09 150.462 153.946 150.411C152.015 149.727 151.756 150.1 151.754 150.104C151.694 150.217 151.884 150.65 152.444 151.037C152.951 151.386 152.88 151.679 152.792 151.822C152.656 152.044 152.279 152.141 151.797 152.141Z" fill="white"/>
<path d="M157.491 155.888C157.442 155.888 157.393 155.876 157.348 155.849C156.968 155.623 155.076 154.448 155.161 153.507C155.182 153.278 155.313 153.17 155.39 153.126C155.707 152.945 156.173 153.157 156.878 153.479C157.627 153.82 158.56 154.244 159.167 154.069C159.237 154.049 159.273 154.03 159.291 154.019C159.239 153.831 158.692 153.387 158.392 153.144C157.793 152.657 157.424 152.341 157.399 152.012C157.39 151.889 157.429 151.776 157.512 151.686C158.013 151.136 160.187 151.792 161.437 152.232C161.581 152.283 161.657 152.439 161.605 152.581C161.554 152.723 161.396 152.797 161.251 152.747C159.816 152.242 158.365 151.927 157.984 152.028C158.102 152.2 158.497 152.52 158.745 152.722C159.382 153.24 159.933 153.688 159.839 154.14C159.794 154.355 159.62 154.508 159.323 154.594C158.516 154.826 157.479 154.354 156.646 153.975C156.328 153.83 155.907 153.638 155.716 153.609C155.776 154.078 156.871 154.928 157.634 155.381C157.765 155.459 157.807 155.627 157.728 155.756C157.676 155.841 157.585 155.888 157.491 155.888Z" fill="white"/>
<path d="M164.337 159.606C163.097 159.606 161.113 157.975 160.682 157.608C160.566 157.509 160.553 157.337 160.653 157.223C160.753 157.108 160.928 157.096 161.044 157.194C162.146 158.133 163.962 159.32 164.549 159.02C164.561 159.013 164.57 159.008 164.576 159.004C164.546 158.83 164.054 158.377 163.756 158.102C162.98 157.388 162.015 156.498 162.693 155.766C163.403 154.999 164.501 155.933 165.47 156.758C165.99 157.2 166.7 157.806 166.984 157.75C166.94 157.517 166.422 156.893 166.136 156.549C165.503 155.787 165.151 155.338 165.26 154.978C165.314 154.801 165.441 154.669 165.619 154.608C166.153 154.422 167.281 154.911 168.97 156.06C169.096 156.145 169.128 156.316 169.041 156.44C168.954 156.564 168.781 156.595 168.655 156.51C166.671 155.159 165.914 155.055 165.796 155.126C165.824 155.311 166.286 155.867 166.565 156.203C167.245 157.022 167.654 157.544 167.513 157.954C167.48 158.049 167.385 158.219 167.116 158.281C166.565 158.409 165.889 157.836 165.108 157.171C164.369 156.543 163.449 155.76 163.102 156.134C162.793 156.467 163.537 157.153 164.134 157.703C164.721 158.244 165.185 158.671 165.126 159.09C165.109 159.213 165.039 159.384 164.804 159.505C164.667 159.575 164.509 159.606 164.337 159.606Z" fill="white"/>
<path d="M47.8128 139.385H43.5039V143.636H47.8128V139.385Z" fill="#7167C7"/>
<path d="M46.9998 141.51L44.5391 140.109V142.911L46.9998 141.51Z" fill="#B3ABF3"/>
<path d="M47.8128 133.564H43.5039V137.814H47.8128V133.564Z" fill="#7167C7"/>
<path d="M46.9998 135.689L44.5391 134.287V137.09L46.9998 135.689Z" fill="#B3ABF3"/>
<path d="M47.8128 127.742H43.5039V131.993H47.8128V127.742Z" fill="#7167C7"/>
<path d="M46.9998 129.867L44.5391 128.466V131.268L46.9998 129.867Z" fill="#B3ABF3"/>
<path d="M47.8128 116.1H43.5039V120.35H47.8128V116.1Z" fill="#7167C7"/>
<path d="M46.9998 118.225L44.5391 116.824V119.626L46.9998 118.225Z" fill="#B3ABF3"/>
<path d="M47.8128 121.921H43.5039V126.172H47.8128V121.921Z" fill="#7167C7"/>
<path d="M46.9998 124.046L44.5391 122.645V125.447L46.9998 124.046Z" fill="#B3ABF3"/>
<path d="M70.9795 115.958H70.0742V120.492H70.9795V115.958Z" fill="#7167C7"/>
<path d="M92.3096 133.422H91.4043V137.956H92.3096V133.422Z" fill="#7167C7"/>
<path d="M76.9229 121.779H76.0176V126.314H76.9229V121.779Z" fill="#7167C7"/>
<path d="M68.1475 139.243H67.2422V143.777H68.1475V139.243Z" fill="#7167C7"/>
<path d="M58.7588 127.6H57.8535V132.135H58.7588V127.6Z" fill="#7167C7"/>
<path d="M185.477 297.095C181.821 294.732 178.632 291.65 176.199 288.067C175.915 287.591 175.42 286.855 175.177 286.36C174.546 285.454 174.115 284.032 175.363 283.411C176.483 282.805 177.385 283.769 177.925 284.636C180.542 287.985 184.124 290.605 187.994 292.388C192.067 293.76 188.974 299.584 185.477 297.095Z" fill="#F69D85"/>
<path d="M180.08 287.06C179.326 282.639 177.591 278.39 175.288 274.517C174.111 272.537 176.2 271.145 177.572 272.837C179.473 275.184 181.472 278.644 182.507 280.212C184.298 282.992 184.417 283.035 185.436 286.184C186.514 290.031 180.319 291.049 180.08 287.06Z" fill="#F69D85"/>
<path d="M189.551 289.665C190.395 282.333 188.765 280.639 187.8 276.255C187.306 274.014 189.303 273.494 190.425 275.349C191.307 276.81 192.759 280.537 193.284 282.333C194.48 286.425 194.892 290.975 194.886 294.281C194.723 298.268 188.567 293.534 189.551 289.665Z" fill="#F69D85"/>
<path d="M187.085 288.717C187.432 284.247 185.612 280.174 184.323 275.868C183.663 273.666 185.906 272.822 186.867 274.771C187.696 276.451 189.415 280.922 190.34 283.931C191.309 287.083 191.021 286.294 191.241 289.593C191.348 293.583 186.342 292.646 187.085 288.717Z" fill="#F69D85"/>
<path d="M184.447 288.467C184.325 283.986 182.441 280.957 180.476 275.521C179.694 273.359 181.815 272.331 182.975 274.172C183.974 275.759 185.446 278.57 186.43 281.022C187.66 284.085 188.309 285.213 188.873 288.472C189.395 292.429 184.118 292.45 184.447 288.467Z" fill="#F69D85"/>
<path d="M180.285 288.527L182.792 295.162L189.107 317.493C189.107 317.493 199.215 317.384 204.522 312.154C204.522 312.154 196.282 296.217 192.403 288.224L180.285 288.527Z" fill="#F69D85"/>
<path d="M215.874 333.197H210.559L191.014 317.373L188.495 315.332L185.286 312.734L181.557 309.714L182.519 299.629L182.702 297.706L182.905 295.569C182.905 295.569 182.971 295.509 183.1 295.405C183.519 295.071 184.611 294.285 186.275 293.682C187.087 293.389 188.037 293.138 189.111 293.006C189.437 292.966 189.773 292.937 190.122 292.92H190.123C191.532 292.855 193.126 293 194.88 293.493C194.929 293.506 194.979 293.521 195.028 293.535C195.028 293.535 195.029 293.536 195.031 293.539C195.043 293.553 195.084 293.602 195.151 293.682C195.522 294.129 196.712 295.577 198.347 297.706C204.405 305.594 216.582 322.839 215.874 333.197Z" fill="#B8AFFC"/>
<path d="M48.4482 297.095C52.104 294.732 55.2927 291.65 57.7259 288.067C58.0104 287.591 58.5049 286.855 58.7477 286.36C59.3793 285.454 59.8099 284.032 58.5619 283.411C57.4419 282.805 56.5396 283.769 56.0001 284.636C53.3834 287.985 49.8007 290.605 45.9309 292.388C41.8586 293.76 44.9509 299.584 48.4482 297.095Z" fill="#F69D85"/>
<path d="M53.8451 287.06C54.5996 282.639 56.3346 278.39 58.6374 274.517C59.8147 272.537 57.7252 271.145 56.3537 272.837C54.452 275.184 52.4536 278.644 51.4181 280.212C49.6277 282.992 49.5086 283.035 48.489 286.184C47.4116 290.031 53.6063 291.049 53.8451 287.06Z" fill="#F69D85"/>
<path d="M44.3747 289.665C43.53 282.333 45.16 280.639 46.1257 276.255C46.6194 274.014 44.6221 273.494 43.5007 275.349C42.618 276.81 41.1662 280.537 40.6413 282.333C39.4451 286.425 39.0336 290.975 39.0391 294.281C39.2019 298.268 45.3581 293.534 44.3747 289.665Z" fill="#F69D85"/>
<path d="M46.8421 288.717C46.4952 284.247 48.3147 280.174 49.6042 275.868C50.2635 273.666 48.021 272.822 47.0597 274.771C46.2309 276.451 44.5117 280.922 43.5865 283.931C42.6173 287.083 42.906 286.294 42.6853 289.593C42.5788 293.583 47.5844 292.646 46.8421 288.717Z" fill="#F69D85"/>
<path d="M50.6657 286.179C50.7871 281.698 52.6713 278.669 54.637 273.233C55.4188 271.071 53.2973 270.044 52.1378 271.884C51.138 273.472 49.6664 276.282 48.6822 278.734C47.4529 281.797 46.8035 282.925 46.2395 286.184C45.7172 290.142 50.9939 290.163 50.6657 286.179Z" fill="#F69D85"/>
<path d="M53.6408 288.527L51.1341 295.162L44.8186 317.493C44.8186 317.493 34.7112 317.384 29.4043 312.154C29.4043 312.154 37.6438 296.217 41.5225 288.224L53.6408 288.527Z" fill="#F69D85"/>
<path d="M52.28 309.714L50.7957 310.603L25.9542 325.481L13.0745 333.196C10.4845 321.857 38.656 294.017 38.656 294.017C46.1937 291.83 51.1341 295.162 51.1341 295.162L51.8598 304.379L52.28 309.714Z" fill="#B8AFFC"/>
<path d="M185.287 312.735L181.557 309.714L182.702 297.706C182.702 297.706 195.614 307.711 204.062 316.443C209.332 321.891 196.034 317.105 185.287 312.735Z" fill="#6251E2"/>
<path d="M51.8595 304.379C51.5226 306.357 51.1611 308.472 50.7954 310.603C49.248 319.626 47.6318 328.894 47.52 328.931C47.3822 328.976 33.701 328.278 25.954 325.481C21.3893 323.835 18.884 321.459 22.4204 318.079C31.96 308.963 51.134 295.162 51.134 295.162L51.8595 304.379Z" fill="#6251E2"/>
<path d="M105.888 267.923C105.888 267.923 105.449 269.458 104.665 272.046C103.239 276.745 100.673 284.919 97.5238 293.682C97.0452 295.013 96.5536 296.358 96.05 297.706C91.1415 310.852 85.14 324.326 79.8568 328.753C79.6552 328.922 79.4546 329.08 79.2554 329.221C77.7207 330.313 75.5678 331.698 72.9614 333.197H13.0732V333.191C13.0732 333.189 13.0732 333.189 13.0732 333.189C13.0028 327.867 16.9004 321.993 22.4199 318.079C24.5525 316.567 27.0526 314.826 30.0016 312.705C35.0616 309.068 41.4414 304.318 49.5482 297.706C49.9205 297.402 50.2965 297.095 50.676 296.783C50.8586 296.633 51.0412 296.483 51.2249 296.331C52.2619 295.478 53.3252 294.595 54.4173 293.682C56.4496 291.981 58.5786 290.171 60.8091 288.246C76.9569 274.311 91.9125 269.929 99.882 268.552C103.539 267.92 105.725 267.921 105.88 267.923C105.886 267.923 105.888 267.923 105.888 267.923Z" fill="#B8AFFC"/>
<path d="M215.665 333.197H151.536C150.742 332.739 150.021 332.296 149.38 331.878C149.032 331.649 148.708 331.427 148.41 331.215C142.823 327.235 136.408 312.122 131.31 297.706C130.833 296.356 130.366 295.011 129.914 293.682C126.943 284.968 124.546 276.936 123.217 272.332C122.487 269.798 122.08 268.302 122.08 268.302C122.08 268.302 122.082 268.302 122.088 268.302C122.242 268.303 124.443 268.328 128.22 269.038C136.069 270.513 150.722 274.942 167.929 288.246C170.399 290.156 172.729 291.967 174.928 293.682C176.727 295.085 178.439 296.425 180.069 297.706C180.907 298.363 181.722 299.005 182.518 299.63C183.191 300.16 183.85 300.677 184.493 301.186L184.494 301.187C191.657 306.831 197.069 311.142 201.399 314.441C202.335 315.155 203.22 315.821 204.061 316.443C204.85 317.027 205.601 317.571 206.318 318.079C211.842 321.995 215.739 327.873 215.665 333.197Z" fill="#B8AFFC"/>
<path d="M79.8584 328.754C79.6567 328.922 79.4561 329.08 79.2569 329.221C77.7222 330.313 75.5694 331.698 72.963 333.197H67.3516C71.6716 319.526 78.3666 302.858 78.3666 302.858V302.865L79.8584 328.754Z" fill="#202577"/>
<path d="M157.618 333.197H151.537C150.743 332.739 150.022 332.296 149.382 331.878L147.695 301.607C147.697 301.61 147.697 301.611 147.697 301.612C147.804 301.93 153.502 318.868 157.618 333.197Z" fill="#202577"/>
<path d="M121.218 254.107H106.773V270.931H121.218V254.107Z" fill="#F99370"/>
<path d="M153.863 333.197H71.6895C73.7278 322.806 75.9892 312.257 78.3665 302.865C78.8128 301.101 79.2627 299.379 79.7162 297.706C80.0885 296.33 80.4645 294.986 80.8416 293.682C84.016 282.697 87.3205 274.423 90.514 271.742C93.2278 270.366 96.4763 269.366 100.022 268.702C101.903 268.349 103.868 268.092 105.881 267.923C105.884 267.923 105.886 267.922 105.89 267.922C105.89 267.922 105.89 267.922 105.891 267.922C106.185 267.897 106.479 267.874 106.775 267.853C106.821 267.85 106.866 267.847 106.911 267.844H106.913C111.45 267.532 116.201 267.657 120.77 268.149C120.921 268.165 121.071 268.182 121.22 268.198C121.508 268.231 121.794 268.265 122.081 268.301C122.083 268.302 122.087 268.302 122.09 268.302C124.105 268.552 126.076 268.875 127.97 269.262C127.971 269.262 127.971 269.262 127.971 269.262C131.958 270.079 135.598 271.186 138.569 272.527C140.856 275.694 143.357 283.511 145.852 293.682C146.173 294.986 146.493 296.329 146.813 297.706C147.107 298.978 147.402 300.28 147.696 301.607C147.697 301.61 147.697 301.611 147.697 301.612C149.844 311.299 151.947 322.322 153.863 333.197Z" fill="#B8AFFC"/>
<path d="M106.58 267.738C117.206 271.193 121.427 267.747 121.427 267.747L121.386 267.738L121.219 263.374C121.219 263.374 116.94 265.761 106.774 263.374L106.58 267.738Z" fill="#103663"/>
<path d="M121.382 260.73C108.948 265.639 97.4629 262.732 91.2502 256.421C81.1569 246.285 92.3156 234.241 92.663 223.469C92.8994 220.565 92.791 218.48 92.791 218.48C134.913 223.13 123.608 260.55 121.382 260.73Z" fill="#F99370"/>
<path d="M122.08 259.221V268.301C122.08 268.301 115.222 273.218 105.891 267.922V253.863L122.08 259.221Z" fill="#F99370"/>
<path d="M113.778 257.595C111.597 257.325 103.02 255.992 102.28 251.557C101.541 247.119 100.621 245.315 100.621 245.315L96.1992 237.921C97.2869 231.122 92.8056 223.704 92.6643 223.475C92.6621 223.47 92.6621 223.47 92.6621 223.47C92.8986 220.565 92.7901 218.48 92.7901 218.48C93.8304 218.648 94.8397 218.83 95.8181 219.026L102.887 223.681L110.782 231.507C110.782 231.507 115.956 257.863 113.778 257.595Z" fill="#E57D61"/>
<path d="M98.1548 235.55C98.1548 235.55 97.6906 225.953 92.8081 220.607C82.3548 209.16 93.511 204.09 101.222 202.986C108.933 201.881 136.489 210.065 132.76 223.277C132.76 223.277 142.389 226.735 133.088 247.985C129.845 255.394 122.08 259.969 122.08 259.969C122.08 259.969 118.48 258.051 113.777 257.596C110.389 257.268 105.079 254.803 104.591 251.479C103.75 245.75 101.93 238.039 98.1548 235.55Z" fill="#662948"/>
<path d="M103.353 241.069C102.159 244.494 98.9251 246.503 96.1282 245.555C93.3314 244.608 92.0311 241.063 93.2241 237.639C94.417 234.214 97.6515 232.205 100.448 233.153C103.245 234.1 104.545 237.644 103.353 241.069Z" fill="#F99370"/>
<path d="M97.1225 235.576C97.2389 235.548 99.9975 234.867 101.308 236.4C101.641 236.789 101.834 237.285 101.905 237.871C101.905 237.872 101.905 237.874 101.905 237.875C101.912 237.93 101.924 237.979 101.929 238.036C101.929 238.037 101.929 238.038 101.929 238.038C101.929 238.039 101.929 238.039 101.929 238.039C102.009 239.124 101.667 240.519 100.902 242.216C100.816 242.405 100.605 242.502 100.407 242.454C100.383 242.448 100.359 242.44 100.335 242.43C100.119 242.335 100.021 242.084 100.117 241.871C100.739 240.496 101.053 239.354 101.075 238.466C98.566 238.598 96.9945 241.159 96.9788 241.186C96.8807 241.353 96.6851 241.429 96.5045 241.385C96.4665 241.376 96.4286 241.36 96.3919 241.339C96.1864 241.223 96.1172 240.964 96.2352 240.761C96.3117 240.633 98.0309 237.768 100.978 237.596C100.906 237.345 100.804 237.123 100.653 236.946C99.6911 235.82 97.3576 236.391 97.3361 236.396C97.1035 236.453 96.8735 236.316 96.8138 236.09C96.7553 235.865 96.8934 235.635 97.1225 235.576Z" fill="#C16256"/>
<path d="M99.8828 268.552C99.8828 268.552 104.457 273.81 113.226 274.388C121.996 274.966 128.221 269.038 128.221 269.038C128.221 269.038 125.093 267.777 122.08 268.301C122.08 268.301 118.643 270.053 113.985 270.053C109.327 270.053 105.89 267.922 105.89 267.922C105.89 267.922 103.84 266.979 99.8828 268.552Z" fill="#6251E2"/>
<path d="M177.857 333.197H48.5977C49.3423 330.586 50.2487 328.042 51.3058 325.577C61.2729 302.331 84.6045 286.021 111.799 286.021H114.654C144.733 286.021 170.088 305.975 177.857 333.197Z" fill="#202577"/>
<path d="M173.614 333.197H52.8398C63.5316 311.728 85.9158 296.952 111.799 296.952H114.655C140.538 296.952 162.924 311.728 173.614 333.197Z" fill="#171A57"/>
<path d="M136.11 39L139.391 34.614L136.314 30.5H137.946L140.139 33.713L142.315 30.5H143.947L140.87 34.614L144.168 39H142.536L140.139 35.532L137.725 39H136.11ZM148.502 39.136C147.641 39.136 146.893 38.9433 146.258 38.558C145.623 38.1613 145.136 37.6287 144.796 36.96C144.456 36.2913 144.286 35.5547 144.286 34.75C144.286 33.934 144.456 33.1973 144.796 32.54C145.136 31.8713 145.623 31.3443 146.258 30.959C146.893 30.5623 147.641 30.364 148.502 30.364C149.375 30.364 150.123 30.5623 150.746 30.959C151.381 31.3443 151.868 31.8713 152.208 32.54C152.548 33.1973 152.718 33.934 152.718 34.75C152.718 35.5547 152.548 36.2913 152.208 36.96C151.868 37.6287 151.381 38.1613 150.746 38.558C150.123 38.9433 149.375 39.136 148.502 39.136ZM148.502 37.98C149.137 37.98 149.669 37.8327 150.1 37.538C150.542 37.2433 150.876 36.8523 151.103 36.365C151.33 35.8663 151.443 35.328 151.443 34.75C151.443 34.1607 151.33 33.6223 151.103 33.135C150.876 32.6477 150.542 32.2567 150.1 31.962C149.669 31.6673 149.137 31.52 148.502 31.52C147.879 31.52 147.346 31.6673 146.904 31.962C146.462 32.2567 146.128 32.6477 145.901 33.135C145.674 33.6223 145.561 34.1607 145.561 34.75C145.561 35.328 145.674 35.8663 145.901 36.365C146.128 36.8523 146.462 37.2433 146.904 37.538C147.346 37.8327 147.879 37.98 148.502 37.98ZM157.928 39.136C157.067 39.136 156.319 38.9433 155.684 38.558C155.049 38.1613 154.562 37.6287 154.222 36.96C153.882 36.2913 153.712 35.5547 153.712 34.75C153.712 33.934 153.882 33.1973 154.222 32.54C154.562 31.8713 155.049 31.3443 155.684 30.959C156.319 30.5623 157.067 30.364 157.928 30.364C158.801 30.364 159.549 30.5623 160.172 30.959C160.807 31.3443 161.294 31.8713 161.634 32.54C161.974 33.1973 162.144 33.934 162.144 34.75C162.144 35.5547 161.974 36.2913 161.634 36.96C161.294 37.6287 160.807 38.1613 160.172 38.558C159.549 38.9433 158.801 39.136 157.928 39.136ZM157.928 37.98C158.563 37.98 159.095 37.8327 159.526 37.538C159.968 37.2433 160.302 36.8523 160.529 36.365C160.756 35.8663 160.869 35.328 160.869 34.75C160.869 34.1607 160.756 33.6223 160.529 33.135C160.302 32.6477 159.968 32.2567 159.526 31.962C159.095 31.6673 158.563 31.52 157.928 31.52C157.305 31.52 156.772 31.6673 156.33 31.962C155.888 32.2567 155.554 32.6477 155.327 33.135C155.1 33.6223 154.987 34.1607 154.987 34.75C154.987 35.328 155.1 35.8663 155.327 36.365C155.554 36.8523 155.888 37.2433 156.33 37.538C156.772 37.8327 157.305 37.98 157.928 37.98ZM163.665 39V30.5H164.94V31.792C165.132 31.452 165.438 31.129 165.858 30.823C166.277 30.517 166.832 30.364 167.524 30.364C168.09 30.364 168.612 30.517 169.088 30.823C169.575 31.1177 169.955 31.537 170.227 32.081C170.34 31.8883 170.516 31.656 170.754 31.384C171.003 31.112 171.326 30.874 171.723 30.67C172.119 30.466 172.595 30.364 173.151 30.364C173.695 30.364 174.205 30.5057 174.681 30.789C175.157 31.0723 175.542 31.4803 175.837 32.013C176.143 32.5343 176.296 33.152 176.296 33.866V39H175.021V33.9C175.021 33.186 174.817 32.6137 174.409 32.183C174.012 31.741 173.513 31.52 172.913 31.52C172.289 31.52 171.751 31.7297 171.298 32.149C170.844 32.5683 170.618 33.1577 170.618 33.917V39H169.343V33.9C169.343 33.186 169.139 32.6137 168.731 32.183C168.334 31.741 167.835 31.52 167.235 31.52C166.611 31.52 166.073 31.7297 165.62 32.149C165.166 32.5683 164.94 33.1577 164.94 33.917V39H163.665ZM178.202 29.072V27.406H179.579V29.072H178.202ZM178.253 39V30.5H179.528V39H178.253ZM182.148 39V31.622H180.686V30.5H182.148V29.752C182.148 28.8227 182.425 28.1257 182.981 27.661C183.547 27.1963 184.318 26.964 185.293 26.964H185.395V28.171H185.225C184.635 28.171 184.188 28.307 183.882 28.579C183.576 28.8397 183.423 29.2647 183.423 29.854V30.5H185.395V31.622H183.423V39H182.148ZM187.497 42.366L189.044 38.881L185.576 30.5H186.987L189.724 37.47L192.512 30.5H193.906L188.874 42.366H187.497Z" fill="#0B0757"/>
<path d="M111.578 39.1694L107.156 43.6232C105.935 44.8535 105.935 46.8476 107.156 48.0779C108.377 49.3073 110.356 49.3073 111.578 48.0779L120.423 39.1694C121.644 37.9391 121.644 35.945 120.423 34.7146L111.578 25.8061C110.356 24.5758 108.377 24.5758 107.156 25.8061C105.935 27.0364 105.935 29.0305 107.156 30.2608L111.578 34.7146C112.8 35.945 112.8 37.9391 111.578 39.1694Z" fill="#00CDEE"/>
<path d="M107.03 37.7879L105.348 39.4811C104.884 39.9485 104.884 40.7069 105.348 41.1743C105.811 41.6418 106.565 41.6418 107.03 41.1743L110.391 37.7879C110.855 37.3204 110.855 36.562 110.391 36.0946L107.03 32.7081C106.565 32.2407 105.811 32.2407 105.348 32.7081C104.884 33.1755 104.884 33.934 105.348 34.4014L107.03 36.0946C107.492 36.562 107.492 37.3204 107.03 37.7879Z" fill="#84E9FD"/>
<path d="M118.915 40.6952L114.509 36.2566C113.289 35.0263 113.289 33.0322 114.509 31.8019L116.024 30.2761L120.43 34.7147C121.041 35.3289 121.346 36.1357 121.346 36.9416C121.346 37.7484 121.041 38.5533 120.43 39.1694L118.915 40.6952Z" fill="#0B0757"/>
<path d="M124.309 30.8313L128.731 26.3766C129.954 25.1471 129.954 23.1521 128.731 21.9227C127.51 20.6924 125.53 20.6924 124.309 21.9227L115.464 30.8313C114.244 32.0607 114.244 34.0557 115.464 35.2851L124.309 44.1937C125.53 45.424 127.51 45.424 128.731 44.1937C129.954 42.9642 129.954 40.9692 128.731 39.7398L124.309 35.2851C123.089 34.0557 123.089 32.0607 124.309 30.8313Z" fill="#293FCC"/>
<path d="M128.863 32.2119L130.544 30.5187C131.008 30.0513 131.008 29.2929 130.544 28.8254C130.08 28.358 129.327 28.358 128.863 28.8254L125.501 32.2119C125.036 32.6793 125.036 33.4378 125.501 33.9052L128.863 37.2916C129.327 37.7591 130.08 37.7591 130.544 37.2916C131.008 36.8242 131.008 36.0658 130.544 35.5984L128.863 33.9052C128.399 33.4378 128.399 32.6793 128.863 32.2119Z" fill="#8F9DF9"/>
<path d="M200.954 35.104C200.322 35.104 199.767 34.9567 199.29 34.662C198.822 34.3587 198.458 33.9513 198.198 33.44C197.938 32.9287 197.808 32.3653 197.808 31.75C197.808 31.126 197.938 30.5627 198.198 30.06C198.458 29.5487 198.822 29.1457 199.29 28.851C199.767 28.5477 200.322 28.396 200.954 28.396C201.492 28.396 201.951 28.5 202.332 28.708C202.722 28.916 203.039 29.1977 203.281 29.553V28.5H204.256V35H203.281V33.96C203.039 34.3067 202.722 34.584 202.332 34.792C201.951 35 201.492 35.104 200.954 35.104ZM201.084 34.22C201.57 34.22 201.977 34.1073 202.306 33.882C202.644 33.6567 202.9 33.3577 203.073 32.985C203.247 32.6037 203.333 32.192 203.333 31.75C203.333 31.2993 203.247 30.8877 203.073 30.515C202.9 30.1423 202.644 29.8433 202.306 29.618C201.977 29.3927 201.57 29.28 201.084 29.28C200.608 29.28 200.196 29.3927 199.849 29.618C199.503 29.8433 199.238 30.1423 199.056 30.515C198.874 30.8877 198.783 31.2993 198.783 31.75C198.783 32.192 198.874 32.6037 199.056 32.985C199.238 33.3577 199.503 33.6567 199.849 33.882C200.196 34.1073 200.608 34.22 201.084 34.22ZM205.774 27.408V26.134H206.827V27.408H205.774ZM205.813 35V28.5H206.788V35H205.813Z" fill="#293FCC"/>
</g>
<defs>
<clipPath id="clip0_240_4096">
<rect width="225" height="334" rx="5" fill="white"/>
</clipPath>
</defs>
</svg>
