<svg width="148" height="40" viewBox="0 0 148 40" fill="none" xmlns="http://www.w3.org/2000/svg">
<g clip-path="url(#clip0_1002_1991)">
<path d="M15.1798 13.77L12.3713 18.8866C12.1412 19.3055 12.1222 19.8084 12.311 20.2504L14.6099 25.6181C14.9159 26.3329 14.2247 27.0239 13.5096 26.7179L8.14215 24.4194C7.70018 24.2301 7.19723 24.2495 6.77836 24.4794L1.66172 27.2878C0.910567 27.7 0.0480418 26.8375 0.460322 26.0864L3.26867 20.9697C3.49857 20.5508 3.51794 20.0479 3.32868 19.6059L1.03022 14.2381C0.724184 13.5235 1.4152 12.8325 2.12993 13.1385L7.49765 15.437C7.93969 15.6262 8.44222 15.6068 8.86116 15.3769L13.9784 12.5686C14.7292 12.1563 15.5917 13.0188 15.1798 13.77Z" fill="url(#paint0_linear_1002_1991)" stroke="white"/>
<path d="M9.20447 1.53388L8.20503 3.41388C7.99219 3.8143 7.98314 4.29219 8.1698 4.70897L9.18342 6.97114C9.47535 7.62335 8.84868 8.25002 8.19675 7.95781L5.9345 6.94419C5.5178 6.75753 5.03991 6.76658 4.63949 6.97942L2.75949 7.97858C2.08777 8.33556 1.311 7.55886 1.66805 6.88714L2.66721 5.00714C2.88005 4.60672 2.8891 4.12882 2.70244 3.71205L1.68882 1.44988C1.39661 0.797666 2.02328 0.171 2.67549 0.463211L4.93766 1.47682C5.35443 1.66349 5.83233 1.65444 6.23275 1.4416L8.11275 0.442439C8.78412 0.0854565 9.56096 0.862158 9.20447 1.53388Z" fill="#00CDEE" stroke="white"/>
<path d="M30.9582 33.1129L29.9589 34.9929C29.7462 35.3933 29.7371 35.8712 29.9238 36.2879L30.9371 38.5501C31.229 39.2023 30.6024 39.829 29.9504 39.5368L27.688 38.5232C27.2711 38.3365 26.7932 38.3456 26.3932 38.5584L24.5132 39.5576C23.8417 39.9145 23.0648 39.1378 23.422 38.4661L24.4206 36.5861C24.6339 36.1857 24.6431 35.7078 24.4564 35.291L23.4424 33.0289C23.1504 32.3766 23.7771 31.75 24.429 32.0422L26.6915 33.0558C27.1083 33.2425 27.5862 33.2334 27.9862 33.0206L29.8662 32.0214C30.5378 31.6644 31.3146 32.4411 30.9582 33.1129Z" fill="#293FCC" stroke="white"/>
<path d="M29.67 10.8613L25.2644 19.6354C25.0412 20.0796 25.0489 20.6064 25.2672 21.062L29.5935 30.0851C29.971 30.8733 29.2293 31.6156 28.4412 31.2377L19.418 26.9117C18.9619 26.6933 18.4356 26.6854 17.9914 26.9084L9.21734 31.3145C8.83629 31.5058 8.41257 31.3941 8.1172 31.0987C7.82176 30.8033 7.71011 30.3797 7.90134 29.9989L12.3072 21.2248C12.5303 20.7806 12.5226 20.2538 12.3044 19.7982L7.97818 10.775C7.60029 9.98682 8.34253 9.24458 9.13103 9.62247L18.1542 13.9484C18.6096 14.1669 19.1366 14.1747 19.5808 13.9517L28.3549 9.54563C28.7352 9.3544 29.1591 9.46605 29.4545 9.76142C29.75 10.0569 29.8616 10.4805 29.67 10.8613Z" fill="#293FCC" stroke="white"/>
<path d="M38.5957 29.2135L44.8589 20.8168L38.9852 12.9409H42.1003L46.2869 19.092L50.4406 12.9409H53.5564L47.682 20.8168L53.9782 29.2135H50.8624L46.2869 22.5743L41.6785 29.2135H38.5957Z" fill="#090F4E"/>
<path d="M62.2528 29.4739C60.6086 29.4739 59.1812 29.105 57.9693 28.3673C56.7581 27.6079 55.8275 26.5882 55.1784 25.308C54.5293 24.028 54.2051 22.6177 54.2051 21.0772C54.2051 19.5151 54.5293 18.1048 55.1784 16.8464C55.8275 15.5662 56.7581 14.5573 57.9693 13.8196C59.1812 13.0603 60.6086 12.6805 62.2528 12.6805C63.9188 12.6805 65.3468 13.0603 66.537 13.8196C67.7482 14.5573 68.6788 15.5662 69.3279 16.8464C69.977 18.1048 70.3012 19.5151 70.3012 21.0772C70.3012 22.6177 69.977 24.028 69.3279 25.308C68.6788 26.5882 67.7482 27.6079 66.537 28.3673C65.3468 29.105 63.9188 29.4739 62.2528 29.4739ZM62.2528 27.2608C63.4647 27.2608 64.4816 26.9787 65.3033 26.4146C66.1475 25.8505 66.7854 25.1019 67.2184 24.169C67.6507 23.2144 67.8675 22.1838 67.8675 21.0772C67.8675 19.949 67.6507 18.9184 67.2184 17.9854C66.7854 17.0525 66.1475 16.3039 65.3033 15.7398C64.4816 15.1757 63.4647 14.8936 62.2528 14.8936C61.0633 14.8936 60.0465 15.1757 59.2023 15.7398C58.3588 16.3039 57.7209 17.0525 57.2879 17.9854C56.8549 18.9184 56.6388 19.949 56.6388 21.0772C56.6388 22.1838 56.8549 23.2144 57.2879 24.169C57.7209 25.1019 58.3588 25.8505 59.2023 26.4146C60.0465 26.9787 61.0633 27.2608 62.2528 27.2608Z" fill="#090F4E"/>
<path d="M80.2457 29.4739C78.6015 29.4739 77.1734 29.105 75.9622 28.3673C74.7503 27.6079 73.8197 26.5882 73.1713 25.308C72.5222 24.028 72.1973 22.6177 72.1973 21.0772C72.1973 19.5151 72.5222 18.1048 73.1713 16.8464C73.8197 15.5662 74.7503 14.5573 75.9622 13.8196C77.1734 13.0603 78.6015 12.6805 80.2457 12.6805C81.9117 12.6805 83.3397 13.0603 84.5292 13.8196C85.7411 14.5573 86.671 15.5662 87.3201 16.8464C87.9692 18.1048 88.2941 19.5151 88.2941 21.0772C88.2941 22.6177 87.9692 24.028 87.3201 25.308C86.671 26.5882 85.7411 27.6079 84.5292 28.3673C83.3397 29.105 81.9117 29.4739 80.2457 29.4739ZM80.2457 27.2608C81.4569 27.2608 82.4738 26.9787 83.2962 26.4146C84.1397 25.8505 84.7783 25.1019 85.2106 24.169C85.6436 23.2144 85.8597 22.1838 85.8597 21.0772C85.8597 19.949 85.6436 18.9184 85.2106 17.9854C84.7783 17.0525 84.1397 16.3039 83.2962 15.7398C82.4738 15.1757 81.4569 14.8936 80.2457 14.8936C79.0555 14.8936 78.0387 15.1757 77.1952 15.7398C76.3517 16.3039 75.7131 17.0525 75.2808 17.9854C74.8478 18.9184 74.6317 19.949 74.6317 21.0772C74.6317 22.1838 74.8478 23.2144 75.2808 24.169C75.7131 25.1019 76.3517 25.8505 77.1952 26.4146C78.0387 26.9787 79.0555 27.2608 80.2457 27.2608Z" fill="#090F4E"/>
<path d="M91.1973 29.2135V12.9409H93.6316V15.4144C93.9994 14.7634 94.5832 14.1451 95.3839 13.5593C96.1846 12.9735 97.2443 12.6805 98.5643 12.6805C99.6457 12.6805 100.641 12.9735 101.55 13.5593C102.48 14.1234 103.205 14.9262 103.724 15.9676C103.94 15.5988 104.276 15.154 104.73 14.6332C105.206 14.1125 105.823 13.6569 106.58 13.2664C107.337 12.8758 108.246 12.6805 109.306 12.6805C110.345 12.6805 111.318 12.9518 112.227 13.4942C113.136 14.0366 113.871 14.8177 114.433 15.8375C115.018 16.8355 115.31 18.0179 115.31 19.3848V29.2135H112.876V19.4499C112.876 18.0831 112.486 16.9873 111.707 16.1629C110.95 15.3167 109.998 14.8936 108.851 14.8936C107.662 14.8936 106.634 15.295 105.768 16.0978C104.903 16.9006 104.47 18.0288 104.47 19.4825V29.2135H102.037V19.4499C102.037 18.0831 101.647 16.9873 100.868 16.1629C100.111 15.3167 99.1594 14.8936 98.0127 14.8936C96.8225 14.8936 95.7952 15.295 94.9292 16.0978C94.0639 16.9006 93.6316 18.0288 93.6316 19.4825V29.2135H91.1973Z" fill="#090F4E"/>
<path d="M119.047 29.2135V12.9409H121.481V29.2135H119.047Z" fill="#090F4E"/>
<path d="M125.377 29.2135V12.9409H127.811V15.4794C128.395 14.6984 129.109 14.0366 129.953 13.4942C130.797 12.9518 131.878 12.6805 133.198 12.6805C134.323 12.6805 135.372 12.9518 136.346 13.4942C137.341 14.0149 138.142 14.8069 138.747 15.87C139.375 16.9114 139.689 18.2024 139.689 19.7429V29.2135H137.255V19.8079C137.255 18.3325 136.832 17.1501 135.989 16.2605C135.145 15.3492 134.053 14.8936 132.711 14.8936C131.803 14.8936 130.98 15.0998 130.245 15.512C129.51 15.9242 128.915 16.51 128.46 17.2695C128.027 18.0071 127.811 18.8641 127.811 19.8405V29.2135H125.377Z" fill="#090F4E"/>
<mask id="mask0_1002_1991" style="mask-type:luminance" maskUnits="userSpaceOnUse" x="37" y="11" width="104" height="20">
<path d="M140.351 11.9788H37.8945V30.2244H140.351V11.9788Z" fill="white"/>
<path d="M38.5957 29.2135L44.8589 20.8168L38.9852 12.9409H42.1003L46.2869 19.092L50.4406 12.9409H53.5564L47.682 20.8168L53.9782 29.2135H50.8624L46.2869 22.5743L41.6785 29.2135H38.5957Z" fill="black"/>
<path d="M62.2508 29.4739C60.6066 29.4739 59.1793 29.105 57.9673 28.3673C56.7561 27.6079 55.8256 26.5882 55.1765 25.308C54.5273 24.028 54.2031 22.6177 54.2031 21.0772C54.2031 19.5151 54.5273 18.1048 55.1765 16.8464C55.8256 15.5662 56.7561 14.5573 57.9673 13.8196C59.1793 13.0603 60.6066 12.6805 62.2508 12.6805C63.9168 12.6805 65.3449 13.0603 66.5351 13.8196C67.7463 14.5573 68.6768 15.5662 69.3259 16.8464C69.9751 18.1048 70.2993 19.5151 70.2993 21.0772C70.2993 22.6177 69.9751 24.028 69.3259 25.308C68.6768 26.5882 67.7463 27.6079 66.5351 28.3673C65.3449 29.105 63.9168 29.4739 62.2508 29.4739ZM62.2508 27.2608C63.4628 27.2608 64.4796 26.9787 65.3014 26.4146C66.1456 25.8505 66.7835 25.1019 67.2165 24.169C67.6487 23.2144 67.8656 22.1838 67.8656 21.0772C67.8656 19.949 67.6487 18.9184 67.2165 17.9854C66.7835 17.0525 66.1456 16.3039 65.3014 15.7398C64.4796 15.1757 63.4628 14.8936 62.2508 14.8936C61.0614 14.8936 60.0445 15.1757 59.2003 15.7398C58.3568 16.3039 57.7189 17.0525 57.2859 17.9854C56.853 18.9184 56.6368 19.949 56.6368 21.0772C56.6368 22.1838 56.853 23.2144 57.2859 24.169C57.7189 25.1019 58.3568 25.8505 59.2003 26.4146C60.0445 26.9787 61.0614 27.2608 62.2508 27.2608Z" fill="black"/>
<path d="M80.2457 29.4739C78.6015 29.4739 77.1734 29.105 75.9622 28.3673C74.7503 27.6079 73.8197 26.5882 73.1713 25.308C72.5222 24.028 72.1973 22.6177 72.1973 21.0772C72.1973 19.5151 72.5222 18.1048 73.1713 16.8464C73.8197 15.5662 74.7503 14.5573 75.9622 13.8196C77.1734 13.0603 78.6015 12.6805 80.2457 12.6805C81.9117 12.6805 83.3397 13.0603 84.5292 13.8196C85.7411 14.5573 86.671 15.5662 87.3201 16.8464C87.9692 18.1048 88.2941 19.5151 88.2941 21.0772C88.2941 22.6177 87.9692 24.028 87.3201 25.308C86.671 26.5882 85.7411 27.6079 84.5292 28.3673C83.3397 29.105 81.9117 29.4739 80.2457 29.4739ZM80.2457 27.2608C81.4569 27.2608 82.4738 26.9787 83.2962 26.4146C84.1397 25.8505 84.7783 25.1019 85.2106 24.169C85.6436 23.2144 85.8597 22.1838 85.8597 21.0772C85.8597 19.949 85.6436 18.9184 85.2106 17.9854C84.7783 17.0525 84.1397 16.3039 83.2962 15.7398C82.4738 15.1757 81.4569 14.8936 80.2457 14.8936C79.0555 14.8936 78.0387 15.1757 77.1952 15.7398C76.3517 16.3039 75.7131 17.0525 75.2808 17.9854C74.8478 18.9184 74.6317 19.949 74.6317 21.0772C74.6317 22.1838 74.8478 23.2144 75.2808 24.169C75.7131 25.1019 76.3517 25.8505 77.1952 26.4146C78.0387 26.9787 79.0555 27.2608 80.2457 27.2608Z" fill="black"/>
<path d="M91.1953 29.2135V12.9409H93.6297V15.4144C93.9974 14.7634 94.5813 14.1451 95.382 13.5593C96.1827 12.9735 97.2423 12.6805 98.5623 12.6805C99.6437 12.6805 100.64 12.9735 101.548 13.5593C102.478 14.1234 103.203 14.9262 103.722 15.9676C103.938 15.5988 104.274 15.154 104.728 14.6332C105.204 14.1125 105.821 13.6569 106.578 13.2664C107.335 12.8758 108.244 12.6805 109.304 12.6805C110.343 12.6805 111.316 12.9518 112.225 13.4942C113.134 14.0366 113.869 14.8177 114.431 15.8375C115.016 16.8355 115.308 18.0179 115.308 19.3848V29.2135H112.874V19.4499C112.874 18.0831 112.484 16.9873 111.705 16.1629C110.948 15.3167 109.996 14.8936 108.849 14.8936C107.66 14.8936 106.632 15.295 105.767 16.0978C104.901 16.9006 104.468 18.0288 104.468 19.4825V29.2135H102.035V19.4499C102.035 18.0831 101.645 16.9873 100.866 16.1629C100.109 15.3167 99.1574 14.8936 98.0108 14.8936C96.8206 14.8936 95.7932 15.295 94.9272 16.0978C94.062 16.9006 93.6297 18.0288 93.6297 19.4825V29.2135H91.1953Z" fill="black"/>
<path d="M119.047 29.2135V12.9409H121.481V29.2135H119.047Z" fill="black"/>
<path d="M125.377 29.2135V12.9409H127.811V15.4794C128.395 14.6984 129.109 14.0366 129.953 13.4942C130.797 12.9518 131.878 12.6805 133.198 12.6805C134.323 12.6805 135.372 12.9518 136.346 13.4942C137.341 14.0149 138.142 14.8069 138.747 15.87C139.375 16.9114 139.689 18.2024 139.689 19.7429V29.2135H137.255V19.8079C137.255 18.3325 136.832 17.1501 135.989 16.2605C135.145 15.3492 134.053 14.8936 132.711 14.8936C131.803 14.8936 130.98 15.0998 130.245 15.512C129.51 15.9242 128.915 16.51 128.46 17.2695C128.027 18.0071 127.811 18.8641 127.811 19.8405V29.2135H125.377Z" fill="black"/>
</mask>
<g mask="url(#mask0_1002_1991)">
<path d="M38.5957 29.2135L44.8589 20.8168L38.9852 12.9409H42.1003L46.2869 19.092L50.4406 12.9409H53.5564L47.682 20.8168L53.9782 29.2135H50.8624L46.2869 22.5743L41.6785 29.2135H38.5957Z" stroke="#090F4E"/>
</g>
<mask id="mask1_1002_1991" style="mask-type:luminance" maskUnits="userSpaceOnUse" x="37" y="11" width="104" height="20">
<path d="M140.351 11.9788H37.8945V30.2244H140.351V11.9788Z" fill="white"/>
<path d="M38.5957 29.2135L44.8589 20.8168L38.9852 12.9409H42.1003L46.2869 19.092L50.4406 12.9409H53.5564L47.682 20.8168L53.9782 29.2135H50.8624L46.2869 22.5743L41.6785 29.2135H38.5957Z" fill="black"/>
<path d="M62.2508 29.4739C60.6066 29.4739 59.1793 29.105 57.9673 28.3673C56.7561 27.6079 55.8256 26.5882 55.1765 25.308C54.5273 24.028 54.2031 22.6177 54.2031 21.0772C54.2031 19.5151 54.5273 18.1048 55.1765 16.8464C55.8256 15.5662 56.7561 14.5573 57.9673 13.8196C59.1793 13.0603 60.6066 12.6805 62.2508 12.6805C63.9168 12.6805 65.3449 13.0603 66.5351 13.8196C67.7463 14.5573 68.6768 15.5662 69.3259 16.8464C69.9751 18.1048 70.2993 19.5151 70.2993 21.0772C70.2993 22.6177 69.9751 24.028 69.3259 25.308C68.6768 26.5882 67.7463 27.6079 66.5351 28.3673C65.3449 29.105 63.9168 29.4739 62.2508 29.4739ZM62.2508 27.2608C63.4628 27.2608 64.4796 26.9787 65.3014 26.4146C66.1456 25.8505 66.7835 25.1019 67.2165 24.169C67.6487 23.2144 67.8656 22.1838 67.8656 21.0772C67.8656 19.949 67.6487 18.9184 67.2165 17.9854C66.7835 17.0525 66.1456 16.3039 65.3014 15.7398C64.4796 15.1757 63.4628 14.8936 62.2508 14.8936C61.0614 14.8936 60.0445 15.1757 59.2003 15.7398C58.3568 16.3039 57.7189 17.0525 57.2859 17.9854C56.853 18.9184 56.6368 19.949 56.6368 21.0772C56.6368 22.1838 56.853 23.2144 57.2859 24.169C57.7189 25.1019 58.3568 25.8505 59.2003 26.4146C60.0445 26.9787 61.0614 27.2608 62.2508 27.2608Z" fill="black"/>
<path d="M80.2457 29.4739C78.6015 29.4739 77.1734 29.105 75.9622 28.3673C74.7503 27.6079 73.8197 26.5882 73.1713 25.308C72.5222 24.028 72.1973 22.6177 72.1973 21.0772C72.1973 19.5151 72.5222 18.1048 73.1713 16.8464C73.8197 15.5662 74.7503 14.5573 75.9622 13.8196C77.1734 13.0603 78.6015 12.6805 80.2457 12.6805C81.9117 12.6805 83.3397 13.0603 84.5292 13.8196C85.7411 14.5573 86.671 15.5662 87.3201 16.8464C87.9692 18.1048 88.2941 19.5151 88.2941 21.0772C88.2941 22.6177 87.9692 24.028 87.3201 25.308C86.671 26.5882 85.7411 27.6079 84.5292 28.3673C83.3397 29.105 81.9117 29.4739 80.2457 29.4739ZM80.2457 27.2608C81.4569 27.2608 82.4738 26.9787 83.2962 26.4146C84.1397 25.8505 84.7783 25.1019 85.2106 24.169C85.6436 23.2144 85.8597 22.1838 85.8597 21.0772C85.8597 19.949 85.6436 18.9184 85.2106 17.9854C84.7783 17.0525 84.1397 16.3039 83.2962 15.7398C82.4738 15.1757 81.4569 14.8936 80.2457 14.8936C79.0555 14.8936 78.0387 15.1757 77.1952 15.7398C76.3517 16.3039 75.7131 17.0525 75.2808 17.9854C74.8478 18.9184 74.6317 19.949 74.6317 21.0772C74.6317 22.1838 74.8478 23.2144 75.2808 24.169C75.7131 25.1019 76.3517 25.8505 77.1952 26.4146C78.0387 26.9787 79.0555 27.2608 80.2457 27.2608Z" fill="black"/>
<path d="M91.1953 29.2135V12.9409H93.6297V15.4144C93.9974 14.7634 94.5813 14.1451 95.382 13.5593C96.1827 12.9735 97.2423 12.6805 98.5623 12.6805C99.6437 12.6805 100.64 12.9735 101.548 13.5593C102.478 14.1234 103.203 14.9262 103.722 15.9676C103.938 15.5988 104.274 15.154 104.728 14.6332C105.204 14.1125 105.821 13.6569 106.578 13.2664C107.335 12.8758 108.244 12.6805 109.304 12.6805C110.343 12.6805 111.316 12.9518 112.225 13.4942C113.134 14.0366 113.869 14.8177 114.431 15.8375C115.016 16.8355 115.308 18.0179 115.308 19.3848V29.2135H112.874V19.4499C112.874 18.0831 112.484 16.9873 111.705 16.1629C110.948 15.3167 109.996 14.8936 108.849 14.8936C107.66 14.8936 106.632 15.295 105.767 16.0978C104.901 16.9006 104.468 18.0288 104.468 19.4825V29.2135H102.035V19.4499C102.035 18.0831 101.645 16.9873 100.866 16.1629C100.109 15.3167 99.1574 14.8936 98.0108 14.8936C96.8206 14.8936 95.7932 15.295 94.9272 16.0978C94.062 16.9006 93.6297 18.0288 93.6297 19.4825V29.2135H91.1953Z" fill="black"/>
<path d="M119.047 29.2135V12.9409H121.481V29.2135H119.047Z" fill="black"/>
<path d="M125.377 29.2135V12.9409H127.811V15.4794C128.395 14.6984 129.109 14.0366 129.953 13.4942C130.797 12.9518 131.878 12.6805 133.198 12.6805C134.323 12.6805 135.372 12.9518 136.346 13.4942C137.341 14.0149 138.142 14.8069 138.747 15.87C139.375 16.9114 139.689 18.2024 139.689 19.7429V29.2135H137.255V19.8079C137.255 18.3325 136.832 17.1501 135.989 16.2605C135.145 15.3492 134.053 14.8936 132.711 14.8936C131.803 14.8936 130.98 15.0998 130.245 15.512C129.51 15.9242 128.915 16.51 128.46 17.2695C128.027 18.0071 127.811 18.8641 127.811 19.8405V29.2135H125.377Z" fill="black"/>
</mask>
<g mask="url(#mask1_1002_1991)">
<path d="M62.2508 29.4739C60.6066 29.4739 59.1793 29.105 57.9673 28.3673C56.7561 27.6079 55.8256 26.5882 55.1765 25.308C54.5273 24.028 54.2031 22.6177 54.2031 21.0772C54.2031 19.5151 54.5273 18.1048 55.1765 16.8464C55.8256 15.5662 56.7561 14.5573 57.9673 13.8196C59.1793 13.0603 60.6066 12.6805 62.2508 12.6805C63.9168 12.6805 65.3449 13.0603 66.5351 13.8196C67.7463 14.5573 68.6768 15.5662 69.3259 16.8464C69.9751 18.1048 70.2993 19.5151 70.2993 21.0772C70.2993 22.6177 69.9751 24.028 69.3259 25.308C68.6768 26.5882 67.7463 27.6079 66.5351 28.3673C65.3449 29.105 63.9168 29.4739 62.2508 29.4739ZM62.2508 27.2608C63.4628 27.2608 64.4796 26.9787 65.3014 26.4146C66.1456 25.8505 66.7835 25.1019 67.2165 24.169C67.6487 23.2144 67.8656 22.1838 67.8656 21.0772C67.8656 19.949 67.6487 18.9184 67.2165 17.9854C66.7835 17.0525 66.1456 16.3039 65.3014 15.7398C64.4796 15.1757 63.4628 14.8936 62.2508 14.8936C61.0614 14.8936 60.0445 15.1757 59.2003 15.7398C58.3568 16.3039 57.7189 17.0525 57.2859 17.9854C56.853 18.9184 56.6368 19.949 56.6368 21.0772C56.6368 22.1838 56.853 23.2144 57.2859 24.169C57.7189 25.1019 58.3568 25.8505 59.2003 26.4146C60.0445 26.9787 61.0614 27.2608 62.2508 27.2608Z" stroke="#090F4E"/>
</g>
<mask id="mask2_1002_1991" style="mask-type:luminance" maskUnits="userSpaceOnUse" x="37" y="11" width="104" height="20">
<path d="M140.351 11.9788H37.8945V30.2244H140.351V11.9788Z" fill="white"/>
<path d="M38.5957 29.2135L44.8589 20.8168L38.9852 12.9409H42.1003L46.2869 19.092L50.4406 12.9409H53.5564L47.682 20.8168L53.9782 29.2135H50.8624L46.2869 22.5743L41.6785 29.2135H38.5957Z" fill="black"/>
<path d="M62.2508 29.4739C60.6066 29.4739 59.1793 29.105 57.9673 28.3673C56.7561 27.6079 55.8256 26.5882 55.1765 25.308C54.5273 24.028 54.2031 22.6177 54.2031 21.0772C54.2031 19.5151 54.5273 18.1048 55.1765 16.8464C55.8256 15.5662 56.7561 14.5573 57.9673 13.8196C59.1793 13.0603 60.6066 12.6805 62.2508 12.6805C63.9168 12.6805 65.3449 13.0603 66.5351 13.8196C67.7463 14.5573 68.6768 15.5662 69.3259 16.8464C69.9751 18.1048 70.2993 19.5151 70.2993 21.0772C70.2993 22.6177 69.9751 24.028 69.3259 25.308C68.6768 26.5882 67.7463 27.6079 66.5351 28.3673C65.3449 29.105 63.9168 29.4739 62.2508 29.4739ZM62.2508 27.2608C63.4628 27.2608 64.4796 26.9787 65.3014 26.4146C66.1456 25.8505 66.7835 25.1019 67.2165 24.169C67.6487 23.2144 67.8656 22.1838 67.8656 21.0772C67.8656 19.949 67.6487 18.9184 67.2165 17.9854C66.7835 17.0525 66.1456 16.3039 65.3014 15.7398C64.4796 15.1757 63.4628 14.8936 62.2508 14.8936C61.0614 14.8936 60.0445 15.1757 59.2003 15.7398C58.3568 16.3039 57.7189 17.0525 57.2859 17.9854C56.853 18.9184 56.6368 19.949 56.6368 21.0772C56.6368 22.1838 56.853 23.2144 57.2859 24.169C57.7189 25.1019 58.3568 25.8505 59.2003 26.4146C60.0445 26.9787 61.0614 27.2608 62.2508 27.2608Z" fill="black"/>
<path d="M80.2457 29.4739C78.6015 29.4739 77.1734 29.105 75.9622 28.3673C74.7503 27.6079 73.8197 26.5882 73.1713 25.308C72.5222 24.028 72.1973 22.6177 72.1973 21.0772C72.1973 19.5151 72.5222 18.1048 73.1713 16.8464C73.8197 15.5662 74.7503 14.5573 75.9622 13.8196C77.1734 13.0603 78.6015 12.6805 80.2457 12.6805C81.9117 12.6805 83.3397 13.0603 84.5292 13.8196C85.7411 14.5573 86.671 15.5662 87.3201 16.8464C87.9692 18.1048 88.2941 19.5151 88.2941 21.0772C88.2941 22.6177 87.9692 24.028 87.3201 25.308C86.671 26.5882 85.7411 27.6079 84.5292 28.3673C83.3397 29.105 81.9117 29.4739 80.2457 29.4739ZM80.2457 27.2608C81.4569 27.2608 82.4738 26.9787 83.2962 26.4146C84.1397 25.8505 84.7783 25.1019 85.2106 24.169C85.6436 23.2144 85.8597 22.1838 85.8597 21.0772C85.8597 19.949 85.6436 18.9184 85.2106 17.9854C84.7783 17.0525 84.1397 16.3039 83.2962 15.7398C82.4738 15.1757 81.4569 14.8936 80.2457 14.8936C79.0555 14.8936 78.0387 15.1757 77.1952 15.7398C76.3517 16.3039 75.7131 17.0525 75.2808 17.9854C74.8478 18.9184 74.6317 19.949 74.6317 21.0772C74.6317 22.1838 74.8478 23.2144 75.2808 24.169C75.7131 25.1019 76.3517 25.8505 77.1952 26.4146C78.0387 26.9787 79.0555 27.2608 80.2457 27.2608Z" fill="black"/>
<path d="M91.1953 29.2135V12.9409H93.6297V15.4144C93.9974 14.7634 94.5813 14.1451 95.382 13.5593C96.1827 12.9735 97.2423 12.6805 98.5623 12.6805C99.6437 12.6805 100.64 12.9735 101.548 13.5593C102.478 14.1234 103.203 14.9262 103.722 15.9676C103.938 15.5988 104.274 15.154 104.728 14.6332C105.204 14.1125 105.821 13.6569 106.578 13.2664C107.335 12.8758 108.244 12.6805 109.304 12.6805C110.343 12.6805 111.316 12.9518 112.225 13.4942C113.134 14.0366 113.869 14.8177 114.431 15.8375C115.016 16.8355 115.308 18.0179 115.308 19.3848V29.2135H112.874V19.4499C112.874 18.0831 112.484 16.9873 111.705 16.1629C110.948 15.3167 109.996 14.8936 108.849 14.8936C107.66 14.8936 106.632 15.295 105.767 16.0978C104.901 16.9006 104.468 18.0288 104.468 19.4825V29.2135H102.035V19.4499C102.035 18.0831 101.645 16.9873 100.866 16.1629C100.109 15.3167 99.1574 14.8936 98.0108 14.8936C96.8206 14.8936 95.7932 15.295 94.9272 16.0978C94.062 16.9006 93.6297 18.0288 93.6297 19.4825V29.2135H91.1953Z" fill="black"/>
<path d="M119.047 29.2135V12.9409H121.481V29.2135H119.047Z" fill="black"/>
<path d="M125.377 29.2135V12.9409H127.811V15.4794C128.395 14.6984 129.109 14.0366 129.953 13.4942C130.797 12.9518 131.878 12.6805 133.198 12.6805C134.323 12.6805 135.372 12.9518 136.346 13.4942C137.341 14.0149 138.142 14.8069 138.747 15.87C139.375 16.9114 139.689 18.2024 139.689 19.7429V29.2135H137.255V19.8079C137.255 18.3325 136.832 17.1501 135.989 16.2605C135.145 15.3492 134.053 14.8936 132.711 14.8936C131.803 14.8936 130.98 15.0998 130.245 15.512C129.51 15.9242 128.915 16.51 128.46 17.2695C128.027 18.0071 127.811 18.8641 127.811 19.8405V29.2135H125.377Z" fill="black"/>
</mask>
<g mask="url(#mask2_1002_1991)">
<path d="M80.2457 29.4739C78.6015 29.4739 77.1734 29.105 75.9622 28.3673C74.7503 27.6079 73.8197 26.5882 73.1713 25.308C72.5222 24.028 72.1973 22.6177 72.1973 21.0772C72.1973 19.5151 72.5222 18.1048 73.1713 16.8464C73.8197 15.5662 74.7503 14.5573 75.9622 13.8196C77.1734 13.0603 78.6015 12.6805 80.2457 12.6805C81.9117 12.6805 83.3397 13.0603 84.5292 13.8196C85.7411 14.5573 86.671 15.5662 87.3201 16.8464C87.9692 18.1048 88.2941 19.5151 88.2941 21.0772C88.2941 22.6177 87.9692 24.028 87.3201 25.308C86.671 26.5882 85.7411 27.6079 84.5292 28.3673C83.3397 29.105 81.9117 29.4739 80.2457 29.4739ZM80.2457 27.2608C81.4569 27.2608 82.4738 26.9787 83.2962 26.4146C84.1397 25.8505 84.7783 25.1019 85.2106 24.169C85.6436 23.2144 85.8597 22.1838 85.8597 21.0772C85.8597 19.949 85.6436 18.9184 85.2106 17.9854C84.7783 17.0525 84.1397 16.3039 83.2962 15.7398C82.4738 15.1757 81.4569 14.8936 80.2457 14.8936C79.0555 14.8936 78.0387 15.1757 77.1952 15.7398C76.3517 16.3039 75.7131 17.0525 75.2808 17.9854C74.8478 18.9184 74.6317 19.949 74.6317 21.0772C74.6317 22.1838 74.8478 23.2144 75.2808 24.169C75.7131 25.1019 76.3517 25.8505 77.1952 26.4146C78.0387 26.9787 79.0555 27.2608 80.2457 27.2608Z" stroke="#090F4E"/>
</g>
<mask id="mask3_1002_1991" style="mask-type:luminance" maskUnits="userSpaceOnUse" x="37" y="11" width="104" height="20">
<path d="M140.351 11.9788H37.8945V30.2244H140.351V11.9788Z" fill="white"/>
<path d="M38.5957 29.2135L44.8589 20.8168L38.9852 12.9409H42.1003L46.2869 19.092L50.4406 12.9409H53.5564L47.682 20.8168L53.9782 29.2135H50.8624L46.2869 22.5743L41.6785 29.2135H38.5957Z" fill="black"/>
<path d="M62.2508 29.4739C60.6066 29.4739 59.1793 29.105 57.9673 28.3673C56.7561 27.6079 55.8256 26.5882 55.1765 25.308C54.5273 24.028 54.2031 22.6177 54.2031 21.0772C54.2031 19.5151 54.5273 18.1048 55.1765 16.8464C55.8256 15.5662 56.7561 14.5573 57.9673 13.8196C59.1793 13.0603 60.6066 12.6805 62.2508 12.6805C63.9168 12.6805 65.3449 13.0603 66.5351 13.8196C67.7463 14.5573 68.6768 15.5662 69.3259 16.8464C69.9751 18.1048 70.2993 19.5151 70.2993 21.0772C70.2993 22.6177 69.9751 24.028 69.3259 25.308C68.6768 26.5882 67.7463 27.6079 66.5351 28.3673C65.3449 29.105 63.9168 29.4739 62.2508 29.4739ZM62.2508 27.2608C63.4628 27.2608 64.4796 26.9787 65.3014 26.4146C66.1456 25.8505 66.7835 25.1019 67.2165 24.169C67.6487 23.2144 67.8656 22.1838 67.8656 21.0772C67.8656 19.949 67.6487 18.9184 67.2165 17.9854C66.7835 17.0525 66.1456 16.3039 65.3014 15.7398C64.4796 15.1757 63.4628 14.8936 62.2508 14.8936C61.0614 14.8936 60.0445 15.1757 59.2003 15.7398C58.3568 16.3039 57.7189 17.0525 57.2859 17.9854C56.853 18.9184 56.6368 19.949 56.6368 21.0772C56.6368 22.1838 56.853 23.2144 57.2859 24.169C57.7189 25.1019 58.3568 25.8505 59.2003 26.4146C60.0445 26.9787 61.0614 27.2608 62.2508 27.2608Z" fill="black"/>
<path d="M80.2457 29.4739C78.6015 29.4739 77.1734 29.105 75.9622 28.3673C74.7503 27.6079 73.8197 26.5882 73.1713 25.308C72.5222 24.028 72.1973 22.6177 72.1973 21.0772C72.1973 19.5151 72.5222 18.1048 73.1713 16.8464C73.8197 15.5662 74.7503 14.5573 75.9622 13.8196C77.1734 13.0603 78.6015 12.6805 80.2457 12.6805C81.9117 12.6805 83.3397 13.0603 84.5292 13.8196C85.7411 14.5573 86.671 15.5662 87.3201 16.8464C87.9692 18.1048 88.2941 19.5151 88.2941 21.0772C88.2941 22.6177 87.9692 24.028 87.3201 25.308C86.671 26.5882 85.7411 27.6079 84.5292 28.3673C83.3397 29.105 81.9117 29.4739 80.2457 29.4739ZM80.2457 27.2608C81.4569 27.2608 82.4738 26.9787 83.2962 26.4146C84.1397 25.8505 84.7783 25.1019 85.2106 24.169C85.6436 23.2144 85.8597 22.1838 85.8597 21.0772C85.8597 19.949 85.6436 18.9184 85.2106 17.9854C84.7783 17.0525 84.1397 16.3039 83.2962 15.7398C82.4738 15.1757 81.4569 14.8936 80.2457 14.8936C79.0555 14.8936 78.0387 15.1757 77.1952 15.7398C76.3517 16.3039 75.7131 17.0525 75.2808 17.9854C74.8478 18.9184 74.6317 19.949 74.6317 21.0772C74.6317 22.1838 74.8478 23.2144 75.2808 24.169C75.7131 25.1019 76.3517 25.8505 77.1952 26.4146C78.0387 26.9787 79.0555 27.2608 80.2457 27.2608Z" fill="black"/>
<path d="M91.1953 29.2135V12.9409H93.6297V15.4144C93.9974 14.7634 94.5813 14.1451 95.382 13.5593C96.1827 12.9735 97.2423 12.6805 98.5623 12.6805C99.6437 12.6805 100.64 12.9735 101.548 13.5593C102.478 14.1234 103.203 14.9262 103.722 15.9676C103.938 15.5988 104.274 15.154 104.728 14.6332C105.204 14.1125 105.821 13.6569 106.578 13.2664C107.335 12.8758 108.244 12.6805 109.304 12.6805C110.343 12.6805 111.316 12.9518 112.225 13.4942C113.134 14.0366 113.869 14.8177 114.431 15.8375C115.016 16.8355 115.308 18.0179 115.308 19.3848V29.2135H112.874V19.4499C112.874 18.0831 112.484 16.9873 111.705 16.1629C110.948 15.3167 109.996 14.8936 108.849 14.8936C107.66 14.8936 106.632 15.295 105.767 16.0978C104.901 16.9006 104.468 18.0288 104.468 19.4825V29.2135H102.035V19.4499C102.035 18.0831 101.645 16.9873 100.866 16.1629C100.109 15.3167 99.1574 14.8936 98.0108 14.8936C96.8206 14.8936 95.7932 15.295 94.9272 16.0978C94.062 16.9006 93.6297 18.0288 93.6297 19.4825V29.2135H91.1953Z" fill="black"/>
<path d="M119.047 29.2135V12.9409H121.481V29.2135H119.047Z" fill="black"/>
<path d="M125.377 29.2135V12.9409H127.811V15.4794C128.395 14.6984 129.109 14.0366 129.953 13.4942C130.797 12.9518 131.878 12.6805 133.198 12.6805C134.323 12.6805 135.372 12.9518 136.346 13.4942C137.341 14.0149 138.142 14.8069 138.747 15.87C139.375 16.9114 139.689 18.2024 139.689 19.7429V29.2135H137.255V19.8079C137.255 18.3325 136.832 17.1501 135.989 16.2605C135.145 15.3492 134.053 14.8936 132.711 14.8936C131.803 14.8936 130.98 15.0998 130.245 15.512C129.51 15.9242 128.915 16.51 128.46 17.2695C128.027 18.0071 127.811 18.8641 127.811 19.8405V29.2135H125.377Z" fill="black"/>
</mask>
<g mask="url(#mask3_1002_1991)">
<path d="M91.1953 29.2135V12.9409H93.6297V15.4144C93.9974 14.7634 94.5813 14.1451 95.382 13.5593C96.1827 12.9735 97.2423 12.6805 98.5623 12.6805C99.6437 12.6805 100.64 12.9735 101.548 13.5593C102.478 14.1234 103.203 14.9262 103.722 15.9676C103.938 15.5988 104.274 15.154 104.728 14.6332C105.204 14.1125 105.821 13.6569 106.578 13.2664C107.335 12.8758 108.244 12.6805 109.304 12.6805C110.343 12.6805 111.316 12.9518 112.225 13.4942C113.134 14.0366 113.869 14.8177 114.431 15.8375C115.016 16.8355 115.308 18.0179 115.308 19.3848V29.2135H112.874V19.4499C112.874 18.0831 112.484 16.9873 111.705 16.1629C110.948 15.3167 109.996 14.8936 108.849 14.8936C107.66 14.8936 106.632 15.295 105.767 16.0978C104.901 16.9006 104.468 18.0288 104.468 19.4825V29.2135H102.035V19.4499C102.035 18.0831 101.645 16.9873 100.866 16.1629C100.109 15.3167 99.1574 14.8936 98.0108 14.8936C96.8206 14.8936 95.7932 15.295 94.9272 16.0978C94.062 16.9006 93.6297 18.0288 93.6297 19.4825V29.2135H91.1953Z" stroke="#090F4E"/>
</g>
<mask id="mask4_1002_1991" style="mask-type:luminance" maskUnits="userSpaceOnUse" x="37" y="11" width="104" height="20">
<path d="M140.351 11.9788H37.8945V30.2244H140.351V11.9788Z" fill="white"/>
<path d="M38.5957 29.2135L44.8589 20.8168L38.9852 12.9409H42.1003L46.2869 19.092L50.4406 12.9409H53.5564L47.682 20.8168L53.9782 29.2135H50.8624L46.2869 22.5743L41.6785 29.2135H38.5957Z" fill="black"/>
<path d="M62.2508 29.4739C60.6066 29.4739 59.1793 29.105 57.9673 28.3673C56.7561 27.6079 55.8256 26.5882 55.1765 25.308C54.5273 24.028 54.2031 22.6177 54.2031 21.0772C54.2031 19.5151 54.5273 18.1048 55.1765 16.8464C55.8256 15.5662 56.7561 14.5573 57.9673 13.8196C59.1793 13.0603 60.6066 12.6805 62.2508 12.6805C63.9168 12.6805 65.3449 13.0603 66.5351 13.8196C67.7463 14.5573 68.6768 15.5662 69.3259 16.8464C69.9751 18.1048 70.2993 19.5151 70.2993 21.0772C70.2993 22.6177 69.9751 24.028 69.3259 25.308C68.6768 26.5882 67.7463 27.6079 66.5351 28.3673C65.3449 29.105 63.9168 29.4739 62.2508 29.4739ZM62.2508 27.2608C63.4628 27.2608 64.4796 26.9787 65.3014 26.4146C66.1456 25.8505 66.7835 25.1019 67.2165 24.169C67.6487 23.2144 67.8656 22.1838 67.8656 21.0772C67.8656 19.949 67.6487 18.9184 67.2165 17.9854C66.7835 17.0525 66.1456 16.3039 65.3014 15.7398C64.4796 15.1757 63.4628 14.8936 62.2508 14.8936C61.0614 14.8936 60.0445 15.1757 59.2003 15.7398C58.3568 16.3039 57.7189 17.0525 57.2859 17.9854C56.853 18.9184 56.6368 19.949 56.6368 21.0772C56.6368 22.1838 56.853 23.2144 57.2859 24.169C57.7189 25.1019 58.3568 25.8505 59.2003 26.4146C60.0445 26.9787 61.0614 27.2608 62.2508 27.2608Z" fill="black"/>
<path d="M80.2457 29.4739C78.6015 29.4739 77.1734 29.105 75.9622 28.3673C74.7503 27.6079 73.8197 26.5882 73.1713 25.308C72.5222 24.028 72.1973 22.6177 72.1973 21.0772C72.1973 19.5151 72.5222 18.1048 73.1713 16.8464C73.8197 15.5662 74.7503 14.5573 75.9622 13.8196C77.1734 13.0603 78.6015 12.6805 80.2457 12.6805C81.9117 12.6805 83.3397 13.0603 84.5292 13.8196C85.7411 14.5573 86.671 15.5662 87.3201 16.8464C87.9692 18.1048 88.2941 19.5151 88.2941 21.0772C88.2941 22.6177 87.9692 24.028 87.3201 25.308C86.671 26.5882 85.7411 27.6079 84.5292 28.3673C83.3397 29.105 81.9117 29.4739 80.2457 29.4739ZM80.2457 27.2608C81.4569 27.2608 82.4738 26.9787 83.2962 26.4146C84.1397 25.8505 84.7783 25.1019 85.2106 24.169C85.6436 23.2144 85.8597 22.1838 85.8597 21.0772C85.8597 19.949 85.6436 18.9184 85.2106 17.9854C84.7783 17.0525 84.1397 16.3039 83.2962 15.7398C82.4738 15.1757 81.4569 14.8936 80.2457 14.8936C79.0555 14.8936 78.0387 15.1757 77.1952 15.7398C76.3517 16.3039 75.7131 17.0525 75.2808 17.9854C74.8478 18.9184 74.6317 19.949 74.6317 21.0772C74.6317 22.1838 74.8478 23.2144 75.2808 24.169C75.7131 25.1019 76.3517 25.8505 77.1952 26.4146C78.0387 26.9787 79.0555 27.2608 80.2457 27.2608Z" fill="black"/>
<path d="M91.1953 29.2135V12.9409H93.6297V15.4144C93.9974 14.7634 94.5813 14.1451 95.382 13.5593C96.1827 12.9735 97.2423 12.6805 98.5623 12.6805C99.6437 12.6805 100.64 12.9735 101.548 13.5593C102.478 14.1234 103.203 14.9262 103.722 15.9676C103.938 15.5988 104.274 15.154 104.728 14.6332C105.204 14.1125 105.821 13.6569 106.578 13.2664C107.335 12.8758 108.244 12.6805 109.304 12.6805C110.343 12.6805 111.316 12.9518 112.225 13.4942C113.134 14.0366 113.869 14.8177 114.431 15.8375C115.016 16.8355 115.308 18.0179 115.308 19.3848V29.2135H112.874V19.4499C112.874 18.0831 112.484 16.9873 111.705 16.1629C110.948 15.3167 109.996 14.8936 108.849 14.8936C107.66 14.8936 106.632 15.295 105.767 16.0978C104.901 16.9006 104.468 18.0288 104.468 19.4825V29.2135H102.035V19.4499C102.035 18.0831 101.645 16.9873 100.866 16.1629C100.109 15.3167 99.1574 14.8936 98.0108 14.8936C96.8206 14.8936 95.7932 15.295 94.9272 16.0978C94.062 16.9006 93.6297 18.0288 93.6297 19.4825V29.2135H91.1953Z" fill="black"/>
<path d="M119.047 29.2135V12.9409H121.481V29.2135H119.047Z" fill="black"/>
<path d="M125.377 29.2135V12.9409H127.811V15.4794C128.395 14.6984 129.109 14.0366 129.953 13.4942C130.797 12.9518 131.878 12.6805 133.198 12.6805C134.323 12.6805 135.372 12.9518 136.346 13.4942C137.341 14.0149 138.142 14.8069 138.747 15.87C139.375 16.9114 139.689 18.2024 139.689 19.7429V29.2135H137.255V19.8079C137.255 18.3325 136.832 17.1501 135.989 16.2605C135.145 15.3492 134.053 14.8936 132.711 14.8936C131.803 14.8936 130.98 15.0998 130.245 15.512C129.51 15.9242 128.915 16.51 128.46 17.2695C128.027 18.0071 127.811 18.8641 127.811 19.8405V29.2135H125.377Z" fill="black"/>
</mask>
<g mask="url(#mask4_1002_1991)">
<path d="M119.047 29.2135V12.9409H121.481V29.2135H119.047Z" stroke="#090F4E"/>
</g>
<mask id="mask5_1002_1991" style="mask-type:luminance" maskUnits="userSpaceOnUse" x="37" y="11" width="104" height="20">
<path d="M140.351 11.9788H37.8945V30.2244H140.351V11.9788Z" fill="white"/>
<path d="M38.5957 29.2135L44.8589 20.8168L38.9852 12.9409H42.1003L46.2869 19.092L50.4406 12.9409H53.5564L47.682 20.8168L53.9782 29.2135H50.8624L46.2869 22.5743L41.6785 29.2135H38.5957Z" fill="black"/>
<path d="M62.2508 29.4739C60.6066 29.4739 59.1793 29.105 57.9673 28.3673C56.7561 27.6079 55.8256 26.5882 55.1765 25.308C54.5273 24.028 54.2031 22.6177 54.2031 21.0772C54.2031 19.5151 54.5273 18.1048 55.1765 16.8464C55.8256 15.5662 56.7561 14.5573 57.9673 13.8196C59.1793 13.0603 60.6066 12.6805 62.2508 12.6805C63.9168 12.6805 65.3449 13.0603 66.5351 13.8196C67.7463 14.5573 68.6768 15.5662 69.3259 16.8464C69.9751 18.1048 70.2993 19.5151 70.2993 21.0772C70.2993 22.6177 69.9751 24.028 69.3259 25.308C68.6768 26.5882 67.7463 27.6079 66.5351 28.3673C65.3449 29.105 63.9168 29.4739 62.2508 29.4739ZM62.2508 27.2608C63.4628 27.2608 64.4796 26.9787 65.3014 26.4146C66.1456 25.8505 66.7835 25.1019 67.2165 24.169C67.6487 23.2144 67.8656 22.1838 67.8656 21.0772C67.8656 19.949 67.6487 18.9184 67.2165 17.9854C66.7835 17.0525 66.1456 16.3039 65.3014 15.7398C64.4796 15.1757 63.4628 14.8936 62.2508 14.8936C61.0614 14.8936 60.0445 15.1757 59.2003 15.7398C58.3568 16.3039 57.7189 17.0525 57.2859 17.9854C56.853 18.9184 56.6368 19.949 56.6368 21.0772C56.6368 22.1838 56.853 23.2144 57.2859 24.169C57.7189 25.1019 58.3568 25.8505 59.2003 26.4146C60.0445 26.9787 61.0614 27.2608 62.2508 27.2608Z" fill="black"/>
<path d="M80.2457 29.4739C78.6015 29.4739 77.1734 29.105 75.9622 28.3673C74.7503 27.6079 73.8197 26.5882 73.1713 25.308C72.5222 24.028 72.1973 22.6177 72.1973 21.0772C72.1973 19.5151 72.5222 18.1048 73.1713 16.8464C73.8197 15.5662 74.7503 14.5573 75.9622 13.8196C77.1734 13.0603 78.6015 12.6805 80.2457 12.6805C81.9117 12.6805 83.3397 13.0603 84.5292 13.8196C85.7411 14.5573 86.671 15.5662 87.3201 16.8464C87.9692 18.1048 88.2941 19.5151 88.2941 21.0772C88.2941 22.6177 87.9692 24.028 87.3201 25.308C86.671 26.5882 85.7411 27.6079 84.5292 28.3673C83.3397 29.105 81.9117 29.4739 80.2457 29.4739ZM80.2457 27.2608C81.4569 27.2608 82.4738 26.9787 83.2962 26.4146C84.1397 25.8505 84.7783 25.1019 85.2106 24.169C85.6436 23.2144 85.8597 22.1838 85.8597 21.0772C85.8597 19.949 85.6436 18.9184 85.2106 17.9854C84.7783 17.0525 84.1397 16.3039 83.2962 15.7398C82.4738 15.1757 81.4569 14.8936 80.2457 14.8936C79.0555 14.8936 78.0387 15.1757 77.1952 15.7398C76.3517 16.3039 75.7131 17.0525 75.2808 17.9854C74.8478 18.9184 74.6317 19.949 74.6317 21.0772C74.6317 22.1838 74.8478 23.2144 75.2808 24.169C75.7131 25.1019 76.3517 25.8505 77.1952 26.4146C78.0387 26.9787 79.0555 27.2608 80.2457 27.2608Z" fill="black"/>
<path d="M91.1953 29.2135V12.9409H93.6297V15.4144C93.9974 14.7634 94.5813 14.1451 95.382 13.5593C96.1827 12.9735 97.2423 12.6805 98.5623 12.6805C99.6437 12.6805 100.64 12.9735 101.548 13.5593C102.478 14.1234 103.203 14.9262 103.722 15.9676C103.938 15.5988 104.274 15.154 104.728 14.6332C105.204 14.1125 105.821 13.6569 106.578 13.2664C107.335 12.8758 108.244 12.6805 109.304 12.6805C110.343 12.6805 111.316 12.9518 112.225 13.4942C113.134 14.0366 113.869 14.8177 114.431 15.8375C115.016 16.8355 115.308 18.0179 115.308 19.3848V29.2135H112.874V19.4499C112.874 18.0831 112.484 16.9873 111.705 16.1629C110.948 15.3167 109.996 14.8936 108.849 14.8936C107.66 14.8936 106.632 15.295 105.767 16.0978C104.901 16.9006 104.468 18.0288 104.468 19.4825V29.2135H102.035V19.4499C102.035 18.0831 101.645 16.9873 100.866 16.1629C100.109 15.3167 99.1574 14.8936 98.0108 14.8936C96.8206 14.8936 95.7932 15.295 94.9272 16.0978C94.062 16.9006 93.6297 18.0288 93.6297 19.4825V29.2135H91.1953Z" fill="black"/>
<path d="M119.047 29.2135V12.9409H121.481V29.2135H119.047Z" fill="black"/>
<path d="M125.377 29.2135V12.9409H127.811V15.4794C128.395 14.6984 129.109 14.0366 129.953 13.4942C130.797 12.9518 131.878 12.6805 133.198 12.6805C134.323 12.6805 135.372 12.9518 136.346 13.4942C137.341 14.0149 138.142 14.8069 138.747 15.87C139.375 16.9114 139.689 18.2024 139.689 19.7429V29.2135H137.255V19.8079C137.255 18.3325 136.832 17.1501 135.989 16.2605C135.145 15.3492 134.053 14.8936 132.711 14.8936C131.803 14.8936 130.98 15.0998 130.245 15.512C129.51 15.9242 128.915 16.51 128.46 17.2695C128.027 18.0071 127.811 18.8641 127.811 19.8405V29.2135H125.377Z" fill="black"/>
</mask>
<g mask="url(#mask5_1002_1991)">
<path d="M125.377 29.2135V12.9409H127.811V15.4794C128.395 14.6984 129.109 14.0366 129.953 13.4942C130.797 12.9518 131.878 12.6805 133.198 12.6805C134.323 12.6805 135.372 12.9518 136.346 13.4942C137.341 14.0149 138.142 14.8069 138.747 15.87C139.375 16.9114 139.689 18.2024 139.689 19.7429V29.2135H137.255V19.8079C137.255 18.3325 136.832 17.1501 135.989 16.2605C135.145 15.3492 134.053 14.8936 132.711 14.8936C131.803 14.8936 130.98 15.0998 130.245 15.512C129.51 15.9242 128.915 16.51 128.46 17.2695C128.027 18.0071 127.811 18.8641 127.811 19.8405V29.2135H125.377Z" stroke="#090F4E"/>
</g>
<path d="M146.885 9.14182C147.102 9.54905 146.64 10.0107 146.233 9.79432L145.45 9.37796C145.324 9.31137 145.172 9.30751 145.038 9.36765L144.096 9.78996C143.702 9.96666 143.315 9.58 143.492 9.18568L143.913 8.24309C143.974 8.10891 143.97 7.95726 143.904 7.83186L143.487 7.04856C143.271 6.64133 143.732 6.17965 144.139 6.39607L144.923 6.81235C145.048 6.87902 145.2 6.88281 145.334 6.82274L146.277 6.40042C146.671 6.22372 147.057 6.61039 146.881 7.0047L146.459 7.9473C146.398 8.08147 146.403 8.23312 146.469 8.35853L146.885 9.14182Z" fill="#293FCC"/>
<path d="M122.074 9.14182C122.291 9.54905 121.829 10.0107 121.422 9.79432L120.639 9.37796C120.514 9.31137 120.362 9.30751 120.227 9.36765L119.285 9.78996C118.891 9.96666 118.504 9.58 118.681 9.18568L119.103 8.24309C119.164 8.10891 119.159 7.95726 119.093 7.83186L118.677 7.04856C118.46 6.64133 118.921 6.17965 119.329 6.39607L120.112 6.81235C120.238 6.87902 120.389 6.88281 120.524 6.82274L121.466 6.40042C121.86 6.22372 122.247 6.61039 122.07 7.0047L121.648 7.9473C121.588 8.08147 121.592 8.23312 121.658 8.35853L122.074 9.14182Z" fill="#293FCC"/>
<path d="M143.684 29.1229V29.2984H143.859H146.293H146.468V29.1229V12.9599V12.7844H146.293H143.859H143.684V12.9599V29.1229Z" fill="#090F4E" stroke="#090F4E" stroke-width="0.5"/>
</g>
<defs>
<linearGradient id="paint0_linear_1002_1991" x1="13.645" y1="14.1031" x2="2.23744" y2="25.5106" gradientUnits="userSpaceOnUse">
<stop stop-color="#293FCC"/>
<stop offset="1" stop-color="#00CDEE"/>
</linearGradient>
<clipPath id="clip0_1002_1991">
<rect width="147.368" height="40" fill="white"/>
</clipPath>
</defs>
</svg>
