<svg width="448" height="246" viewBox="0 0 448 246" fill="none" xmlns="http://www.w3.org/2000/svg">
<mask id="mask0_1_71" style="mask-type:luminance" maskUnits="userSpaceOnUse" x="0" y="0" width="448" height="246">
<path d="M432 0H16C7.16344 0 0 7.16344 0 16V230C0 238.837 7.16344 246 16 246H432C440.837 246 448 238.837 448 230V16C448 7.16344 440.837 0 432 0Z" fill="white"/>
</mask>
<g mask="url(#mask0_1_71)">
<path d="M432 0H16C7.16344 0 0 7.16344 0 16V230C0 238.837 7.16344 246 16 246H432C440.837 246 448 238.837 448 230V16C448 7.16344 440.837 0 432 0Z" fill="#272471" fill-opacity="0.32"/>
<path d="M0 8C0 3.58172 3.5817 0 8 0H440C444.418 0 448 3.58172 448 8V56H0V8Z" fill="#333474"/>
<mask id="mask1_1_71" style="mask-type:luminance" maskUnits="userSpaceOnUse" x="0" y="0" width="448" height="56">
<path d="M0 8C0 3.58172 3.5817 0 8 0H440C444.418 0 448 3.58172 448 8V56H0V8Z" fill="white"/>
</mask>
<g mask="url(#mask1_1_71)">
<path d="M448 57H0V55H448V57Z" fill="url(#paint0_radial_1_71)"/>
</g>
<mask id="mask2_1_71" style="mask-type:luminance" maskUnits="userSpaceOnUse" x="0" y="0" width="448" height="56">
<path d="M0 8C0 3.58172 3.5817 0 8 0H440C444.418 0 448 3.58172 448 8V56H0V8Z" fill="white"/>
</mask>
<g mask="url(#mask2_1_71)">
<path d="M448 57H0V55H448V57Z" fill="url(#paint1_radial_1_71)"/>
</g>
<mask id="mask3_1_71" style="mask-type:luminance" maskUnits="userSpaceOnUse" x="0" y="0" width="448" height="56">
<path d="M0 8C0 3.58172 3.5817 0 8 0H440C444.418 0 448 3.58172 448 8V56H0V8Z" fill="white"/>
</mask>
<g mask="url(#mask3_1_71)">
<path d="M448 57H0V55H448V57Z" fill="url(#paint2_radial_1_71)"/>
</g>
<mask id="mask4_1_71" style="mask-type:luminance" maskUnits="userSpaceOnUse" x="0" y="0" width="448" height="56">
<path d="M0 8C0 3.58172 3.5817 0 8 0H440C444.418 0 448 3.58172 448 8V56H0V8Z" fill="white"/>
</mask>
<g mask="url(#mask4_1_71)">
<path d="M448 57H0V55H448V57Z" fill="url(#paint3_radial_1_71)"/>
</g>
<mask id="mask5_1_71" style="mask-type:luminance" maskUnits="userSpaceOnUse" x="0" y="0" width="448" height="56">
<path d="M0 8C0 3.58172 3.5817 0 8 0H440C444.418 0 448 3.58172 448 8V56H0V8Z" fill="white"/>
</mask>
<g mask="url(#mask5_1_71)">
<path d="M448 57H0V55H448V57Z" fill="url(#paint4_radial_1_71)" fill-opacity="0.5"/>
</g>
<mask id="mask6_1_71" style="mask-type:luminance" maskUnits="userSpaceOnUse" x="0" y="0" width="448" height="56">
<path d="M0 8C0 3.58172 3.5817 0 8 0H440C444.418 0 448 3.58172 448 8V56H0V8Z" fill="white"/>
</mask>
<g mask="url(#mask6_1_71)">
<path d="M448 57H0V55H448V57Z" fill="#27236F"/>
</g>
<path d="M166.586 20.0833V25.0833V26.75L169.086 25.0833H173.253C173.713 25.0833 174.086 24.71 174.086 24.25V20.0833C174.086 19.6233 173.713 19.25 173.253 19.25H167.419C166.959 19.25 166.586 19.6233 166.586 20.0833Z" stroke="white" stroke-width="1.5" stroke-linecap="round" stroke-linejoin="round"/>
<path d="M163.25 27.583H157.417C156.496 27.583 155.75 28.3288 155.75 29.2497V35.9163C155.75 36.8372 156.496 37.583 157.417 37.583H169.083C170.004 37.583 170.75 36.8372 170.75 35.9163V29.2497" stroke="white" stroke-width="1.5" stroke-linecap="round" stroke-linejoin="round"/>
<path d="M159.914 24.2507V22.584" stroke="white" stroke-width="1.5" stroke-linecap="round" stroke-linejoin="round"/>
<path d="M159.919 22.5827C160.38 22.5827 160.753 22.2096 160.753 21.7493C160.753 21.2891 160.38 20.916 159.919 20.916C159.459 20.916 159.086 21.2891 159.086 21.7493C159.086 22.2096 159.459 22.5827 159.919 22.5827Z" stroke="white" stroke-width="1.5" stroke-linecap="round" stroke-linejoin="round"/>
<path d="M160.336 32.584C161.026 32.584 161.586 32.0243 161.586 31.334C161.586 30.6436 161.026 30.084 160.336 30.084C159.646 30.084 159.086 30.6436 159.086 31.334C159.086 32.0243 159.646 32.584 160.336 32.584Z" fill="white"/>
<path d="M166.164 32.584C166.854 32.584 167.414 32.0243 167.414 31.334C167.414 30.6436 166.854 30.084 166.164 30.084C165.474 30.084 164.914 30.6436 164.914 31.334C164.914 32.0243 165.474 32.584 166.164 32.584Z" fill="white"/>
<path d="M191.238 28.7C191.238 25.01 194.118 22.166 197.754 22.166C198.852 22.166 199.968 22.454 200.958 23.012V25.928C200.004 25.208 199.014 24.812 197.844 24.812C195.648 24.812 194.028 26.522 194.028 28.7C194.028 30.842 195.576 32.57 197.844 32.57C198.996 32.57 199.986 32.192 200.976 31.49V34.388C199.878 35 198.726 35.234 197.718 35.234C193.902 35.234 191.238 32.444 191.238 28.7ZM215.418 28.7C215.418 32.336 212.484 35.234 208.83 35.234C205.176 35.234 202.242 32.336 202.242 28.7C202.242 25.064 205.176 22.166 208.83 22.166C212.484 22.166 215.418 25.064 215.418 28.7ZM212.646 28.7C212.646 26.522 210.972 24.794 208.83 24.794C206.688 24.794 205.014 26.522 205.014 28.7C205.014 30.878 206.688 32.606 208.83 32.606C210.972 32.606 212.646 30.878 212.646 28.7ZM228.17 28.7C228.17 32.246 225.29 35 221.762 35H217.496V22.4H221.762C225.29 22.4 228.17 25.154 228.17 28.7ZM225.398 28.7C225.398 26.612 223.778 24.938 221.69 24.938H220.196V32.462H221.69C223.778 32.462 225.398 30.788 225.398 28.7ZM230.24 22.4H232.958V35H230.24V22.4ZM240.515 35.234C237.365 35.234 235.457 33.182 235.457 29.996V22.4H238.193V29.852C238.193 31.544 239.021 32.606 240.515 32.606C242.009 32.606 242.837 31.544 242.837 29.852V22.4H245.573V29.996C245.573 33.182 243.665 35.234 240.515 35.234ZM253.914 31.688L250.71 26.648V35H248.082V22.4H250.908L254.706 28.394L258.486 22.4H261.24V35H258.612V26.612L255.39 31.688H253.914ZM267.79 22.4H270.184L275.242 35H272.416L271.354 32.282H266.548L265.486 35H262.714L267.79 22.4ZM268.942 25.838L267.376 29.96H270.544L268.942 25.838ZM274.197 24.92V22.4H283.557V24.92H280.245V35H277.527V24.92H274.197ZM285.207 35V22.4H292.623V24.848H287.907V27.404H292.209V29.78H287.907V32.552H292.659V35H285.207Z" fill="white"/>
<path d="M135.526 86.4C136.126 86.4 136.672 86.484 137.164 86.652C137.668 86.808 138.1 87.042 138.46 87.354C138.82 87.666 139.096 88.05 139.288 88.506C139.492 88.95 139.594 89.46 139.594 90.036C139.594 90.612 139.492 91.128 139.288 91.584C139.096 92.028 138.82 92.406 138.46 92.718C138.1 93.018 137.668 93.252 137.164 93.42C136.672 93.576 136.126 93.654 135.526 93.654H133.222V99H131.62V86.4H135.526ZM133.222 92.178H135.526C136.246 92.178 136.834 91.992 137.29 91.62C137.746 91.248 137.974 90.72 137.974 90.036C137.974 89.34 137.746 88.806 137.29 88.434C136.834 88.062 136.246 87.876 135.526 87.876H133.222V92.178ZM143.043 86.4V99H141.495V86.4H143.043ZM150.964 93.222C150.964 92.67 150.778 92.238 150.406 91.926C150.046 91.614 149.542 91.458 148.894 91.458C148.294 91.458 147.76 91.572 147.292 91.8C146.836 92.028 146.38 92.352 145.924 92.772V91.152C146.32 90.828 146.758 90.564 147.238 90.36C147.73 90.156 148.294 90.054 148.93 90.054C150.058 90.054 150.928 90.348 151.54 90.936C152.164 91.512 152.476 92.31 152.476 93.33V99H151.018V97.848C150.67 98.292 150.244 98.628 149.74 98.856C149.236 99.084 148.696 99.198 148.12 99.198C147.736 99.198 147.382 99.132 147.058 99C146.734 98.88 146.452 98.712 146.212 98.496C145.984 98.268 145.804 98.004 145.672 97.704C145.54 97.392 145.474 97.056 145.474 96.696C145.474 95.136 146.446 94.194 148.39 93.87L150.964 93.438V93.222ZM147.022 96.606C147.022 96.978 147.148 97.278 147.4 97.506C147.664 97.722 148 97.83 148.408 97.83C148.78 97.83 149.122 97.776 149.434 97.668C149.758 97.548 150.034 97.386 150.262 97.182C150.49 96.966 150.664 96.72 150.784 96.444C150.916 96.156 150.982 95.844 150.982 95.508V94.77L148.642 95.184C148.114 95.28 147.712 95.448 147.436 95.688C147.16 95.916 147.022 96.222 147.022 96.606ZM156.754 99H155.206V90.252H156.754V91.512C157.03 91.08 157.396 90.732 157.852 90.468C158.32 90.192 158.884 90.054 159.544 90.054C160.672 90.054 161.542 90.402 162.154 91.098C162.766 91.782 163.072 92.706 163.072 93.87V99H161.524V94.05C161.524 93.258 161.326 92.634 160.93 92.178C160.546 91.722 159.976 91.494 159.22 91.494C158.464 91.494 157.864 91.758 157.42 92.286C156.976 92.814 156.754 93.528 156.754 94.428V99ZM165.176 96.588C165.572 96.948 166.016 97.242 166.508 97.47C167 97.698 167.516 97.812 168.056 97.812C168.272 97.812 168.482 97.794 168.686 97.758C168.89 97.71 169.07 97.638 169.226 97.542C169.382 97.446 169.508 97.326 169.604 97.182C169.7 97.026 169.748 96.834 169.748 96.606C169.748 96.378 169.694 96.186 169.586 96.03C169.49 95.874 169.352 95.742 169.172 95.634C169.004 95.526 168.8 95.436 168.56 95.364C168.332 95.292 168.08 95.226 167.804 95.166C167.492 95.094 167.174 95.01 166.85 94.914C166.538 94.806 166.256 94.662 166.004 94.482C165.752 94.29 165.548 94.05 165.392 93.762C165.236 93.474 165.158 93.12 165.158 92.7C165.158 92.256 165.242 91.872 165.41 91.548C165.59 91.212 165.818 90.936 166.094 90.72C166.382 90.492 166.706 90.324 167.066 90.216C167.438 90.108 167.822 90.054 168.218 90.054C168.686 90.054 169.148 90.126 169.604 90.27C170.06 90.402 170.48 90.6 170.864 90.864V92.502C170.48 92.19 170.066 91.932 169.622 91.728C169.178 91.524 168.722 91.422 168.254 91.422C168.074 91.422 167.888 91.44 167.696 91.476C167.504 91.512 167.33 91.578 167.174 91.674C167.03 91.758 166.91 91.872 166.814 92.016C166.718 92.148 166.67 92.316 166.67 92.52C166.67 92.916 166.838 93.216 167.174 93.42C167.51 93.612 167.93 93.774 168.434 93.906C168.842 94.002 169.22 94.116 169.568 94.248C169.916 94.38 170.216 94.548 170.468 94.752C170.72 94.944 170.918 95.184 171.062 95.472C171.206 95.748 171.278 96.084 171.278 96.48C171.278 96.924 171.188 97.32 171.008 97.668C170.84 98.004 170.606 98.286 170.306 98.514C170.018 98.742 169.676 98.91 169.28 99.018C168.884 99.138 168.47 99.198 168.038 99.198C167.558 99.198 167.066 99.126 166.562 98.982C166.058 98.838 165.596 98.61 165.176 98.298V96.588ZM188.27 92.628L185.804 95.85L188.99 99H186.776L184.832 97.056C184.172 97.8 183.488 98.346 182.78 98.694C182.072 99.03 181.316 99.198 180.512 99.198C180.008 99.198 179.54 99.12 179.108 98.964C178.688 98.796 178.322 98.568 178.01 98.28C177.71 97.992 177.476 97.65 177.308 97.254C177.14 96.858 177.056 96.426 177.056 95.958C177.056 95.202 177.26 94.518 177.668 93.906C178.088 93.282 178.766 92.664 179.702 92.052C179.198 91.536 178.832 91.05 178.604 90.594C178.376 90.126 178.262 89.646 178.262 89.154C178.262 88.734 178.34 88.344 178.496 87.984C178.652 87.624 178.868 87.312 179.144 87.048C179.432 86.772 179.762 86.562 180.134 86.418C180.518 86.262 180.926 86.184 181.358 86.184C181.778 86.184 182.174 86.256 182.546 86.4C182.918 86.544 183.236 86.742 183.5 86.994C183.776 87.246 183.992 87.546 184.148 87.894C184.304 88.242 184.382 88.614 184.382 89.01C184.382 89.634 184.208 90.198 183.86 90.702C183.512 91.206 182.936 91.74 182.132 92.304L184.724 94.86L186.38 92.628H188.27ZM180.71 97.722C181.718 97.722 182.696 97.176 183.644 96.084L183.698 96.03L180.746 93.096C180.518 93.24 180.278 93.408 180.026 93.6C179.786 93.78 179.564 93.984 179.36 94.212C179.156 94.44 178.988 94.692 178.856 94.968C178.724 95.244 178.658 95.538 178.658 95.85C178.658 96.114 178.712 96.36 178.82 96.588C178.928 96.816 179.072 97.014 179.252 97.182C179.432 97.35 179.648 97.482 179.9 97.578C180.152 97.674 180.422 97.722 180.71 97.722ZM179.828 89.118C179.828 89.442 179.924 89.778 180.116 90.126C180.32 90.462 180.638 90.846 181.07 91.278C182.258 90.498 182.852 89.754 182.852 89.046C182.852 88.854 182.81 88.668 182.726 88.488C182.654 88.308 182.546 88.152 182.402 88.02C182.27 87.876 182.108 87.768 181.916 87.696C181.736 87.612 181.538 87.57 181.322 87.57C181.118 87.57 180.92 87.612 180.728 87.696C180.548 87.78 180.392 87.894 180.26 88.038C180.128 88.17 180.02 88.332 179.936 88.524C179.864 88.704 179.828 88.902 179.828 89.118ZM205.462 97.596C204.898 98.04 204.238 98.418 203.482 98.73C202.726 99.042 201.838 99.198 200.818 99.198C199.87 99.198 199.006 99.03 198.226 98.694C197.446 98.358 196.774 97.902 196.21 97.326C195.646 96.738 195.208 96.048 194.896 95.256C194.584 94.464 194.428 93.612 194.428 92.7C194.428 91.788 194.59 90.936 194.914 90.144C195.25 89.352 195.706 88.662 196.282 88.074C196.858 87.486 197.536 87.024 198.316 86.688C199.096 86.352 199.942 86.184 200.854 86.184C201.634 86.184 202.384 86.304 203.104 86.544C203.836 86.772 204.526 87.114 205.174 87.57V89.388C204.454 88.824 203.734 88.404 203.014 88.128C202.306 87.852 201.574 87.714 200.818 87.714C200.134 87.714 199.498 87.846 198.91 88.11C198.334 88.362 197.836 88.716 197.416 89.172C196.996 89.616 196.666 90.144 196.426 90.756C196.186 91.356 196.066 92.004 196.066 92.7C196.066 93.384 196.174 94.026 196.39 94.626C196.618 95.226 196.936 95.754 197.344 96.21C197.764 96.654 198.268 97.008 198.856 97.272C199.456 97.536 200.122 97.668 200.854 97.668C201.502 97.668 202.072 97.59 202.564 97.434C203.056 97.278 203.494 97.062 203.878 96.786V93.87H200.548V92.358H205.462V97.596ZM215.53 98.082C215.038 98.43 214.504 98.706 213.928 98.91C213.352 99.102 212.758 99.198 212.146 99.198C211.45 99.198 210.82 99.084 210.256 98.856C209.692 98.616 209.206 98.292 208.798 97.884C208.402 97.464 208.096 96.978 207.88 96.426C207.664 95.874 207.556 95.274 207.556 94.626C207.556 93.978 207.664 93.378 207.88 92.826C208.096 92.262 208.39 91.776 208.762 91.368C209.146 90.96 209.602 90.642 210.13 90.414C210.658 90.174 211.24 90.054 211.876 90.054C212.488 90.054 213.046 90.174 213.55 90.414C214.054 90.642 214.486 90.96 214.846 91.368C215.218 91.776 215.5 92.256 215.692 92.808C215.896 93.348 215.998 93.93 215.998 94.554C215.998 94.65 215.992 94.734 215.98 94.806C215.98 94.866 215.98 94.92 215.98 94.968C215.968 95.016 215.962 95.064 215.962 95.112H209.104C209.14 95.472 209.236 95.82 209.392 96.156C209.56 96.48 209.776 96.762 210.04 97.002C210.316 97.242 210.64 97.434 211.012 97.578C211.384 97.722 211.798 97.794 212.254 97.794C213.37 97.794 214.462 97.332 215.53 96.408V98.082ZM214.432 93.834C214.396 93.486 214.306 93.168 214.162 92.88C214.03 92.58 213.85 92.322 213.622 92.106C213.406 91.89 213.142 91.722 212.83 91.602C212.53 91.47 212.2 91.404 211.84 91.404C211.48 91.404 211.138 91.476 210.814 91.62C210.502 91.764 210.226 91.95 209.986 92.178C209.746 92.406 209.548 92.664 209.392 92.952C209.248 93.24 209.164 93.534 209.14 93.834H214.432ZM219.701 99H218.153V90.252H219.701V91.512C219.977 91.08 220.343 90.732 220.799 90.468C221.267 90.192 221.831 90.054 222.491 90.054C223.619 90.054 224.489 90.402 225.101 91.098C225.713 91.782 226.019 92.706 226.019 93.87V99H224.471V94.05C224.471 93.258 224.273 92.634 223.877 92.178C223.493 91.722 222.923 91.494 222.167 91.494C221.411 91.494 220.811 91.758 220.367 92.286C219.923 92.814 219.701 93.528 219.701 94.428V99ZM236.114 98.082C235.622 98.43 235.088 98.706 234.512 98.91C233.936 99.102 233.342 99.198 232.73 99.198C232.034 99.198 231.404 99.084 230.84 98.856C230.276 98.616 229.79 98.292 229.382 97.884C228.986 97.464 228.68 96.978 228.464 96.426C228.248 95.874 228.14 95.274 228.14 94.626C228.14 93.978 228.248 93.378 228.464 92.826C228.68 92.262 228.974 91.776 229.346 91.368C229.73 90.96 230.186 90.642 230.714 90.414C231.242 90.174 231.824 90.054 232.46 90.054C233.072 90.054 233.63 90.174 234.134 90.414C234.638 90.642 235.07 90.96 235.43 91.368C235.802 91.776 236.084 92.256 236.276 92.808C236.48 93.348 236.582 93.93 236.582 94.554C236.582 94.65 236.576 94.734 236.564 94.806C236.564 94.866 236.564 94.92 236.564 94.968C236.552 95.016 236.546 95.064 236.546 95.112H229.688C229.724 95.472 229.82 95.82 229.976 96.156C230.144 96.48 230.36 96.762 230.624 97.002C230.9 97.242 231.224 97.434 231.596 97.578C231.968 97.722 232.382 97.794 232.838 97.794C233.954 97.794 235.046 97.332 236.114 96.408V98.082ZM235.016 93.834C234.98 93.486 234.89 93.168 234.746 92.88C234.614 92.58 234.434 92.322 234.206 92.106C233.99 91.89 233.726 91.722 233.414 91.602C233.114 91.47 232.784 91.404 232.424 91.404C232.064 91.404 231.722 91.476 231.398 91.62C231.086 91.764 230.81 91.95 230.57 92.178C230.33 92.406 230.132 92.664 229.976 92.952C229.832 93.24 229.748 93.534 229.724 93.834H235.016ZM243.309 91.692C243.285 91.692 243.249 91.686 243.201 91.674C243.165 91.674 243.117 91.674 243.057 91.674C242.997 91.662 242.937 91.656 242.877 91.656C242.061 91.656 241.419 91.95 240.951 92.538C240.495 93.126 240.267 93.894 240.267 94.842V99H238.737V90.252H240.249V91.8C240.345 91.548 240.483 91.32 240.663 91.116C240.855 90.9 241.071 90.72 241.311 90.576C241.551 90.432 241.809 90.318 242.085 90.234C242.361 90.15 242.643 90.108 242.931 90.108C242.991 90.108 243.039 90.114 243.075 90.126C243.123 90.126 243.165 90.126 243.201 90.126C243.249 90.138 243.285 90.144 243.309 90.144V91.692ZM250.263 93.222C250.263 92.67 250.077 92.238 249.705 91.926C249.345 91.614 248.841 91.458 248.193 91.458C247.593 91.458 247.059 91.572 246.591 91.8C246.135 92.028 245.679 92.352 245.223 92.772V91.152C245.619 90.828 246.057 90.564 246.537 90.36C247.029 90.156 247.593 90.054 248.229 90.054C249.357 90.054 250.227 90.348 250.839 90.936C251.463 91.512 251.775 92.31 251.775 93.33V99H250.317V97.848C249.969 98.292 249.543 98.628 249.039 98.856C248.535 99.084 247.995 99.198 247.419 99.198C247.035 99.198 246.681 99.132 246.357 99C246.033 98.88 245.751 98.712 245.511 98.496C245.283 98.268 245.103 98.004 244.971 97.704C244.839 97.392 244.773 97.056 244.773 96.696C244.773 95.136 245.745 94.194 247.689 93.87L250.263 93.438V93.222ZM246.321 96.606C246.321 96.978 246.447 97.278 246.699 97.506C246.963 97.722 247.299 97.83 247.707 97.83C248.079 97.83 248.421 97.776 248.733 97.668C249.057 97.548 249.333 97.386 249.561 97.182C249.789 96.966 249.963 96.72 250.083 96.444C250.215 96.156 250.281 95.844 250.281 95.508V94.77L247.941 95.184C247.413 95.28 247.011 95.448 246.735 95.688C246.459 95.916 246.321 96.222 246.321 96.606ZM256.253 88.2H256.307V90.252H258.755V91.638H256.307V96.264C256.307 96.78 256.421 97.158 256.649 97.398C256.889 97.638 257.261 97.758 257.765 97.758C257.933 97.758 258.107 97.74 258.287 97.704C258.467 97.656 258.623 97.584 258.755 97.488V98.928C258.599 99.012 258.407 99.078 258.179 99.126C257.963 99.174 257.705 99.198 257.405 99.198C256.577 99.198 255.929 98.958 255.461 98.478C254.993 97.998 254.759 97.332 254.759 96.48V91.638H253.247V91.44L256.253 88.2ZM268.071 98.082C267.579 98.43 267.045 98.706 266.469 98.91C265.893 99.102 265.299 99.198 264.687 99.198C263.991 99.198 263.361 99.084 262.797 98.856C262.233 98.616 261.747 98.292 261.339 97.884C260.943 97.464 260.637 96.978 260.421 96.426C260.205 95.874 260.097 95.274 260.097 94.626C260.097 93.978 260.205 93.378 260.421 92.826C260.637 92.262 260.931 91.776 261.303 91.368C261.687 90.96 262.143 90.642 262.671 90.414C263.199 90.174 263.781 90.054 264.417 90.054C265.029 90.054 265.587 90.174 266.091 90.414C266.595 90.642 267.027 90.96 267.387 91.368C267.759 91.776 268.041 92.256 268.233 92.808C268.437 93.348 268.539 93.93 268.539 94.554C268.539 94.65 268.533 94.734 268.521 94.806C268.521 94.866 268.521 94.92 268.521 94.968C268.509 95.016 268.503 95.064 268.503 95.112H261.645C261.681 95.472 261.777 95.82 261.933 96.156C262.101 96.48 262.317 96.762 262.581 97.002C262.857 97.242 263.181 97.434 263.553 97.578C263.925 97.722 264.339 97.794 264.795 97.794C265.911 97.794 267.003 97.332 268.071 96.408V98.082ZM266.973 93.834C266.937 93.486 266.847 93.168 266.703 92.88C266.571 92.58 266.391 92.322 266.163 92.106C265.947 91.89 265.683 91.722 265.371 91.602C265.071 91.47 264.741 91.404 264.381 91.404C264.021 91.404 263.679 91.476 263.355 91.62C263.043 91.764 262.767 91.95 262.527 92.178C262.287 92.406 262.089 92.664 261.933 92.952C261.789 93.24 261.705 93.534 261.681 93.834H266.973ZM274.602 92.7C274.602 91.788 274.764 90.936 275.088 90.144C275.424 89.352 275.88 88.662 276.456 88.074C277.044 87.486 277.728 87.024 278.508 86.688C279.3 86.352 280.146 86.184 281.046 86.184C282.366 86.184 283.596 86.562 284.736 87.318V89.1C283.524 88.188 282.282 87.732 281.01 87.732C280.338 87.732 279.714 87.864 279.138 88.128C278.562 88.38 278.058 88.728 277.626 89.172C277.206 89.616 276.87 90.144 276.618 90.756C276.378 91.356 276.258 92.004 276.258 92.7C276.258 93.384 276.378 94.032 276.618 94.644C276.87 95.244 277.206 95.766 277.626 96.21C278.058 96.654 278.562 97.008 279.138 97.272C279.714 97.524 280.338 97.65 281.01 97.65C282.282 97.65 283.536 97.206 284.772 96.318V98.1C283.596 98.832 282.348 99.198 281.028 99.198C280.128 99.198 279.288 99.03 278.508 98.694C277.728 98.358 277.044 97.902 276.456 97.326C275.88 96.738 275.424 96.048 275.088 95.256C274.764 94.464 274.602 93.612 274.602 92.7ZM291.036 90.054C291.696 90.054 292.302 90.174 292.854 90.414C293.418 90.654 293.904 90.984 294.312 91.404C294.72 91.812 295.038 92.292 295.266 92.844C295.494 93.396 295.608 93.99 295.608 94.626C295.608 95.262 295.494 95.856 295.266 96.408C295.038 96.96 294.72 97.446 294.312 97.866C293.904 98.274 293.418 98.598 292.854 98.838C292.302 99.078 291.696 99.198 291.036 99.198C290.376 99.198 289.764 99.078 289.2 98.838C288.648 98.598 288.168 98.274 287.76 97.866C287.352 97.446 287.034 96.96 286.806 96.408C286.578 95.856 286.464 95.262 286.464 94.626C286.464 93.99 286.578 93.396 286.806 92.844C287.034 92.292 287.352 91.812 287.76 91.404C288.168 90.984 288.648 90.654 289.2 90.414C289.764 90.174 290.376 90.054 291.036 90.054ZM291.036 91.476C290.604 91.476 290.202 91.56 289.83 91.728C289.47 91.884 289.152 92.106 288.876 92.394C288.612 92.682 288.402 93.018 288.246 93.402C288.102 93.786 288.03 94.194 288.03 94.626C288.03 95.058 288.102 95.466 288.246 95.85C288.402 96.234 288.612 96.57 288.876 96.858C289.152 97.146 289.47 97.374 289.83 97.542C290.202 97.698 290.604 97.776 291.036 97.776C291.468 97.776 291.864 97.698 292.224 97.542C292.596 97.374 292.914 97.146 293.178 96.858C293.454 96.57 293.664 96.234 293.808 95.85C293.964 95.466 294.042 95.058 294.042 94.626C294.042 94.194 293.964 93.786 293.808 93.402C293.664 93.018 293.454 92.682 293.178 92.394C292.914 92.106 292.596 91.884 292.224 91.728C291.864 91.56 291.468 91.476 291.036 91.476ZM306.328 86.4V99H304.798V97.614C304.486 98.094 304.054 98.478 303.502 98.766C302.95 99.054 302.35 99.198 301.702 99.198C301.078 99.198 300.496 99.084 299.956 98.856C299.428 98.616 298.966 98.292 298.57 97.884C298.174 97.476 297.862 96.996 297.634 96.444C297.418 95.88 297.31 95.274 297.31 94.626C297.31 93.978 297.418 93.378 297.634 92.826C297.862 92.274 298.174 91.794 298.57 91.386C298.966 90.966 299.428 90.642 299.956 90.414C300.496 90.174 301.078 90.054 301.702 90.054C302.35 90.054 302.944 90.186 303.484 90.45C304.036 90.714 304.474 91.086 304.798 91.566V86.4H306.328ZM304.888 94.626C304.888 94.182 304.81 93.768 304.654 93.384C304.51 93 304.3 92.67 304.024 92.394C303.76 92.106 303.442 91.884 303.07 91.728C302.71 91.56 302.314 91.476 301.882 91.476C301.45 91.476 301.048 91.56 300.676 91.728C300.316 91.884 299.998 92.106 299.722 92.394C299.458 92.67 299.248 93 299.092 93.384C298.948 93.768 298.876 94.182 298.876 94.626C298.876 95.07 298.948 95.484 299.092 95.868C299.248 96.252 299.458 96.588 299.722 96.876C299.998 97.152 300.316 97.374 300.676 97.542C301.048 97.698 301.45 97.776 301.882 97.776C302.314 97.776 302.71 97.698 303.07 97.542C303.442 97.374 303.76 97.152 304.024 96.876C304.3 96.588 304.51 96.252 304.654 95.868C304.81 95.484 304.888 95.07 304.888 94.626ZM316.552 98.082C316.06 98.43 315.526 98.706 314.95 98.91C314.374 99.102 313.78 99.198 313.168 99.198C312.472 99.198 311.842 99.084 311.278 98.856C310.714 98.616 310.228 98.292 309.82 97.884C309.424 97.464 309.118 96.978 308.902 96.426C308.686 95.874 308.578 95.274 308.578 94.626C308.578 93.978 308.686 93.378 308.902 92.826C309.118 92.262 309.412 91.776 309.784 91.368C310.168 90.96 310.624 90.642 311.152 90.414C311.68 90.174 312.262 90.054 312.898 90.054C313.51 90.054 314.068 90.174 314.572 90.414C315.076 90.642 315.508 90.96 315.868 91.368C316.24 91.776 316.522 92.256 316.714 92.808C316.918 93.348 317.02 93.93 317.02 94.554C317.02 94.65 317.014 94.734 317.002 94.806C317.002 94.866 317.002 94.92 317.002 94.968C316.99 95.016 316.984 95.064 316.984 95.112H310.126C310.162 95.472 310.258 95.82 310.414 96.156C310.582 96.48 310.798 96.762 311.062 97.002C311.338 97.242 311.662 97.434 312.034 97.578C312.406 97.722 312.82 97.794 313.276 97.794C314.392 97.794 315.484 97.332 316.552 96.408V98.082ZM315.454 93.834C315.418 93.486 315.328 93.168 315.184 92.88C315.052 92.58 314.872 92.322 314.644 92.106C314.428 91.89 314.164 91.722 313.852 91.602C313.552 91.47 313.222 91.404 312.862 91.404C312.502 91.404 312.16 91.476 311.836 91.62C311.524 91.764 311.248 91.95 311.008 92.178C310.768 92.406 310.57 92.664 310.414 92.952C310.27 93.24 310.186 93.534 310.162 93.834H315.454Z" fill="#D9D9E0"/>
<path opacity="0.08" d="M24 122H424" stroke="white"/>
<path d="M140.36 144.4H149.324V145.876H145.652V157H144.032V145.876H140.36V144.4ZM157.028 156.082C156.536 156.43 156.002 156.706 155.426 156.91C154.85 157.102 154.256 157.198 153.644 157.198C152.948 157.198 152.318 157.084 151.754 156.856C151.19 156.616 150.704 156.292 150.296 155.884C149.9 155.464 149.594 154.978 149.378 154.426C149.162 153.874 149.054 153.274 149.054 152.626C149.054 151.978 149.162 151.378 149.378 150.826C149.594 150.262 149.888 149.776 150.26 149.368C150.644 148.96 151.1 148.642 151.628 148.414C152.156 148.174 152.738 148.054 153.374 148.054C153.986 148.054 154.544 148.174 155.048 148.414C155.552 148.642 155.984 148.96 156.344 149.368C156.716 149.776 156.998 150.256 157.19 150.808C157.394 151.348 157.496 151.93 157.496 152.554C157.496 152.65 157.49 152.734 157.478 152.806C157.478 152.866 157.478 152.92 157.478 152.968C157.466 153.016 157.46 153.064 157.46 153.112H150.602C150.638 153.472 150.734 153.82 150.89 154.156C151.058 154.48 151.274 154.762 151.538 155.002C151.814 155.242 152.138 155.434 152.51 155.578C152.882 155.722 153.296 155.794 153.752 155.794C154.868 155.794 155.96 155.332 157.028 154.408V156.082ZM155.93 151.834C155.894 151.486 155.804 151.168 155.66 150.88C155.528 150.58 155.348 150.322 155.12 150.106C154.904 149.89 154.64 149.722 154.328 149.602C154.028 149.47 153.698 149.404 153.338 149.404C152.978 149.404 152.636 149.476 152.312 149.62C152 149.764 151.724 149.95 151.484 150.178C151.244 150.406 151.046 150.664 150.89 150.952C150.746 151.24 150.662 151.534 150.638 151.834H155.93ZM159.145 154.588C159.541 154.948 159.985 155.242 160.477 155.47C160.969 155.698 161.485 155.812 162.025 155.812C162.241 155.812 162.451 155.794 162.655 155.758C162.859 155.71 163.039 155.638 163.195 155.542C163.351 155.446 163.477 155.326 163.573 155.182C163.669 155.026 163.717 154.834 163.717 154.606C163.717 154.378 163.663 154.186 163.555 154.03C163.459 153.874 163.321 153.742 163.141 153.634C162.973 153.526 162.769 153.436 162.529 153.364C162.301 153.292 162.049 153.226 161.773 153.166C161.461 153.094 161.143 153.01 160.819 152.914C160.507 152.806 160.225 152.662 159.973 152.482C159.721 152.29 159.517 152.05 159.361 151.762C159.205 151.474 159.127 151.12 159.127 150.7C159.127 150.256 159.211 149.872 159.379 149.548C159.559 149.212 159.787 148.936 160.063 148.72C160.351 148.492 160.675 148.324 161.035 148.216C161.407 148.108 161.791 148.054 162.187 148.054C162.655 148.054 163.117 148.126 163.573 148.27C164.029 148.402 164.449 148.6 164.833 148.864V150.502C164.449 150.19 164.035 149.932 163.591 149.728C163.147 149.524 162.691 149.422 162.223 149.422C162.043 149.422 161.857 149.44 161.665 149.476C161.473 149.512 161.299 149.578 161.143 149.674C160.999 149.758 160.879 149.872 160.783 150.016C160.687 150.148 160.639 150.316 160.639 150.52C160.639 150.916 160.807 151.216 161.143 151.42C161.479 151.612 161.899 151.774 162.403 151.906C162.811 152.002 163.189 152.116 163.537 152.248C163.885 152.38 164.185 152.548 164.437 152.752C164.689 152.944 164.887 153.184 165.031 153.472C165.175 153.748 165.247 154.084 165.247 154.48C165.247 154.924 165.157 155.32 164.977 155.668C164.809 156.004 164.575 156.286 164.275 156.514C163.987 156.742 163.645 156.91 163.249 157.018C162.853 157.138 162.439 157.198 162.007 157.198C161.527 157.198 161.035 157.126 160.531 156.982C160.027 156.838 159.565 156.61 159.145 156.298V154.588ZM169.169 146.2H169.223V148.252H171.671V149.638H169.223V154.264C169.223 154.78 169.337 155.158 169.565 155.398C169.805 155.638 170.177 155.758 170.681 155.758C170.849 155.758 171.023 155.74 171.203 155.704C171.383 155.656 171.539 155.584 171.671 155.488V156.928C171.515 157.012 171.323 157.078 171.095 157.126C170.879 157.174 170.621 157.198 170.321 157.198C169.493 157.198 168.845 156.958 168.377 156.478C167.909 155.998 167.675 155.332 167.675 154.48V149.638H166.163V149.44L169.169 146.2ZM177.801 151.276C177.801 150.796 177.891 150.358 178.071 149.962C178.251 149.566 178.497 149.23 178.809 148.954C179.121 148.666 179.481 148.444 179.889 148.288C180.297 148.132 180.729 148.054 181.185 148.054C181.581 148.054 181.977 148.12 182.373 148.252H185.379V149.584H184.083C184.239 149.824 184.359 150.088 184.443 150.376C184.527 150.664 184.569 150.964 184.569 151.276C184.569 151.756 184.479 152.194 184.299 152.59C184.119 152.986 183.873 153.322 183.561 153.598C183.249 153.874 182.889 154.09 182.481 154.246C182.073 154.402 181.641 154.48 181.185 154.48C180.657 154.48 180.153 154.378 179.673 154.174C179.373 154.27 179.169 154.396 179.061 154.552C178.953 154.696 178.899 154.852 178.899 155.02C178.899 155.284 179.007 155.47 179.223 155.578C179.439 155.686 179.721 155.74 180.069 155.74H182.499C183.435 155.74 184.179 155.932 184.731 156.316C185.283 156.7 185.559 157.252 185.559 157.972C185.559 158.476 185.433 158.914 185.181 159.286C184.929 159.67 184.593 159.982 184.173 160.222C183.765 160.474 183.285 160.66 182.733 160.78C182.193 160.9 181.629 160.96 181.041 160.96C180.477 160.96 179.955 160.912 179.475 160.816C179.007 160.72 178.599 160.57 178.251 160.366C177.903 160.174 177.627 159.922 177.423 159.61C177.231 159.298 177.135 158.926 177.135 158.494C177.135 158.074 177.249 157.702 177.477 157.378C177.717 157.066 177.975 156.82 178.251 156.64C178.011 156.472 177.831 156.268 177.711 156.028C177.603 155.776 177.549 155.512 177.549 155.236C177.549 154.996 177.579 154.786 177.639 154.606C177.711 154.414 177.801 154.252 177.909 154.12C178.017 153.976 178.137 153.856 178.269 153.76C178.401 153.652 178.533 153.556 178.665 153.472C178.389 153.196 178.173 152.878 178.017 152.518C177.873 152.146 177.801 151.732 177.801 151.276ZM184.119 158.116C184.119 157.732 183.951 157.468 183.615 157.324C183.291 157.18 182.799 157.108 182.139 157.108H179.979C179.871 157.108 179.769 157.102 179.673 157.09C179.589 157.09 179.499 157.084 179.403 157.072C178.839 157.372 178.557 157.786 178.557 158.314C178.557 158.566 178.623 158.782 178.755 158.962C178.887 159.142 179.067 159.286 179.295 159.394C179.523 159.514 179.787 159.598 180.087 159.646C180.399 159.706 180.729 159.736 181.077 159.736C181.521 159.736 181.929 159.7 182.301 159.628C182.673 159.556 182.991 159.448 183.255 159.304C183.531 159.172 183.741 159.004 183.885 158.8C184.041 158.608 184.119 158.38 184.119 158.116ZM179.223 151.276C179.223 151.852 179.409 152.32 179.781 152.68C180.165 153.028 180.633 153.202 181.185 153.202C181.737 153.202 182.199 153.028 182.571 152.68C182.955 152.32 183.147 151.852 183.147 151.276C183.147 150.712 182.955 150.25 182.571 149.89C182.199 149.53 181.737 149.35 181.185 149.35C180.633 149.35 180.165 149.53 179.781 149.89C179.409 150.25 179.223 150.712 179.223 151.276ZM194.522 156.082C194.03 156.43 193.496 156.706 192.92 156.91C192.344 157.102 191.75 157.198 191.138 157.198C190.442 157.198 189.812 157.084 189.248 156.856C188.684 156.616 188.198 156.292 187.79 155.884C187.394 155.464 187.088 154.978 186.872 154.426C186.656 153.874 186.548 153.274 186.548 152.626C186.548 151.978 186.656 151.378 186.872 150.826C187.088 150.262 187.382 149.776 187.754 149.368C188.138 148.96 188.594 148.642 189.122 148.414C189.65 148.174 190.232 148.054 190.868 148.054C191.48 148.054 192.038 148.174 192.542 148.414C193.046 148.642 193.478 148.96 193.838 149.368C194.21 149.776 194.492 150.256 194.684 150.808C194.888 151.348 194.99 151.93 194.99 152.554C194.99 152.65 194.984 152.734 194.972 152.806C194.972 152.866 194.972 152.92 194.972 152.968C194.96 153.016 194.954 153.064 194.954 153.112H188.096C188.132 153.472 188.228 153.82 188.384 154.156C188.552 154.48 188.768 154.762 189.032 155.002C189.308 155.242 189.632 155.434 190.004 155.578C190.376 155.722 190.79 155.794 191.246 155.794C192.362 155.794 193.454 155.332 194.522 154.408V156.082ZM193.424 151.834C193.388 151.486 193.298 151.168 193.154 150.88C193.022 150.58 192.842 150.322 192.614 150.106C192.398 149.89 192.134 149.722 191.822 149.602C191.522 149.47 191.192 149.404 190.832 149.404C190.472 149.404 190.13 149.476 189.806 149.62C189.494 149.764 189.218 149.95 188.978 150.178C188.738 150.406 188.54 150.664 188.384 150.952C188.24 151.24 188.156 151.534 188.132 151.834H193.424ZM198.693 157H197.145V148.252H198.693V149.512C198.969 149.08 199.335 148.732 199.791 148.468C200.259 148.192 200.823 148.054 201.483 148.054C202.611 148.054 203.481 148.402 204.093 149.098C204.705 149.782 205.011 150.706 205.011 151.87V157H203.463V152.05C203.463 151.258 203.265 150.634 202.869 150.178C202.485 149.722 201.915 149.494 201.159 149.494C200.403 149.494 199.803 149.758 199.359 150.286C198.915 150.814 198.693 151.528 198.693 152.428V157ZM215.106 156.082C214.614 156.43 214.08 156.706 213.504 156.91C212.928 157.102 212.334 157.198 211.722 157.198C211.026 157.198 210.396 157.084 209.832 156.856C209.268 156.616 208.782 156.292 208.374 155.884C207.978 155.464 207.672 154.978 207.456 154.426C207.24 153.874 207.132 153.274 207.132 152.626C207.132 151.978 207.24 151.378 207.456 150.826C207.672 150.262 207.966 149.776 208.338 149.368C208.722 148.96 209.178 148.642 209.706 148.414C210.234 148.174 210.816 148.054 211.452 148.054C212.064 148.054 212.622 148.174 213.126 148.414C213.63 148.642 214.062 148.96 214.422 149.368C214.794 149.776 215.076 150.256 215.268 150.808C215.472 151.348 215.574 151.93 215.574 152.554C215.574 152.65 215.568 152.734 215.556 152.806C215.556 152.866 215.556 152.92 215.556 152.968C215.544 153.016 215.538 153.064 215.538 153.112H208.68C208.716 153.472 208.812 153.82 208.968 154.156C209.136 154.48 209.352 154.762 209.616 155.002C209.892 155.242 210.216 155.434 210.588 155.578C210.96 155.722 211.374 155.794 211.83 155.794C212.946 155.794 214.038 155.332 215.106 154.408V156.082ZM214.008 151.834C213.972 151.486 213.882 151.168 213.738 150.88C213.606 150.58 213.426 150.322 213.198 150.106C212.982 149.89 212.718 149.722 212.406 149.602C212.106 149.47 211.776 149.404 211.416 149.404C211.056 149.404 210.714 149.476 210.39 149.62C210.078 149.764 209.802 149.95 209.562 150.178C209.322 150.406 209.124 150.664 208.968 150.952C208.824 151.24 208.74 151.534 208.716 151.834H214.008ZM222.301 149.692C222.277 149.692 222.241 149.686 222.193 149.674C222.157 149.674 222.109 149.674 222.049 149.674C221.989 149.662 221.929 149.656 221.869 149.656C221.053 149.656 220.411 149.95 219.943 150.538C219.487 151.126 219.259 151.894 219.259 152.842V157H217.729V148.252H219.241V149.8C219.337 149.548 219.475 149.32 219.655 149.116C219.847 148.9 220.063 148.72 220.303 148.576C220.543 148.432 220.801 148.318 221.077 148.234C221.353 148.15 221.635 148.108 221.923 148.108C221.983 148.108 222.031 148.114 222.067 148.126C222.115 148.126 222.157 148.126 222.193 148.126C222.241 148.138 222.277 148.144 222.301 148.144V149.692ZM229.255 151.222C229.255 150.67 229.069 150.238 228.697 149.926C228.337 149.614 227.833 149.458 227.185 149.458C226.585 149.458 226.051 149.572 225.583 149.8C225.127 150.028 224.671 150.352 224.215 150.772V149.152C224.611 148.828 225.049 148.564 225.529 148.36C226.021 148.156 226.585 148.054 227.221 148.054C228.349 148.054 229.219 148.348 229.831 148.936C230.455 149.512 230.767 150.31 230.767 151.33V157H229.309V155.848C228.961 156.292 228.535 156.628 228.031 156.856C227.527 157.084 226.987 157.198 226.411 157.198C226.027 157.198 225.673 157.132 225.349 157C225.025 156.88 224.743 156.712 224.503 156.496C224.275 156.268 224.095 156.004 223.963 155.704C223.831 155.392 223.765 155.056 223.765 154.696C223.765 153.136 224.737 152.194 226.681 151.87L229.255 151.438V151.222ZM225.313 154.606C225.313 154.978 225.439 155.278 225.691 155.506C225.955 155.722 226.291 155.83 226.699 155.83C227.071 155.83 227.413 155.776 227.725 155.668C228.049 155.548 228.325 155.386 228.553 155.182C228.781 154.966 228.955 154.72 229.075 154.444C229.207 154.156 229.273 153.844 229.273 153.508V152.77L226.933 153.184C226.405 153.28 226.003 153.448 225.727 153.688C225.451 153.916 225.313 154.222 225.313 154.606ZM235.245 146.2H235.299V148.252H237.747V149.638H235.299V154.264C235.299 154.78 235.413 155.158 235.641 155.398C235.881 155.638 236.253 155.758 236.757 155.758C236.925 155.758 237.099 155.74 237.279 155.704C237.459 155.656 237.615 155.584 237.747 155.488V156.928C237.591 157.012 237.399 157.078 237.171 157.126C236.955 157.174 236.697 157.198 236.397 157.198C235.569 157.198 234.921 156.958 234.453 156.478C233.985 155.998 233.751 155.332 233.751 154.48V149.638H232.239V149.44L235.245 146.2ZM241.713 145.66C241.713 145.948 241.611 146.194 241.407 146.398C241.203 146.602 240.957 146.704 240.669 146.704C240.381 146.704 240.135 146.602 239.931 146.398C239.727 146.194 239.625 145.948 239.625 145.66C239.625 145.372 239.727 145.126 239.931 144.922C240.135 144.718 240.381 144.616 240.669 144.616C240.957 144.616 241.203 144.718 241.407 144.922C241.611 145.126 241.713 145.372 241.713 145.66ZM241.443 148.252V157H239.895V148.252H241.443ZM248.267 148.054C248.927 148.054 249.533 148.174 250.085 148.414C250.649 148.654 251.135 148.984 251.543 149.404C251.951 149.812 252.269 150.292 252.497 150.844C252.725 151.396 252.839 151.99 252.839 152.626C252.839 153.262 252.725 153.856 252.497 154.408C252.269 154.96 251.951 155.446 251.543 155.866C251.135 156.274 250.649 156.598 250.085 156.838C249.533 157.078 248.927 157.198 248.267 157.198C247.607 157.198 246.995 157.078 246.431 156.838C245.879 156.598 245.399 156.274 244.991 155.866C244.583 155.446 244.265 154.96 244.037 154.408C243.809 153.856 243.695 153.262 243.695 152.626C243.695 151.99 243.809 151.396 244.037 150.844C244.265 150.292 244.583 149.812 244.991 149.404C245.399 148.984 245.879 148.654 246.431 148.414C246.995 148.174 247.607 148.054 248.267 148.054ZM248.267 149.476C247.835 149.476 247.433 149.56 247.061 149.728C246.701 149.884 246.383 150.106 246.107 150.394C245.843 150.682 245.633 151.018 245.477 151.402C245.333 151.786 245.261 152.194 245.261 152.626C245.261 153.058 245.333 153.466 245.477 153.85C245.633 154.234 245.843 154.57 246.107 154.858C246.383 155.146 246.701 155.374 247.061 155.542C247.433 155.698 247.835 155.776 248.267 155.776C248.699 155.776 249.095 155.698 249.455 155.542C249.827 155.374 250.145 155.146 250.409 154.858C250.685 154.57 250.895 154.234 251.039 153.85C251.195 153.466 251.273 153.058 251.273 152.626C251.273 152.194 251.195 151.786 251.039 151.402C250.895 151.018 250.685 150.682 250.409 150.394C250.145 150.106 249.827 149.884 249.455 149.728C249.095 149.56 248.699 149.476 248.267 149.476ZM256.631 157H255.083V148.252H256.631V149.512C256.907 149.08 257.273 148.732 257.729 148.468C258.197 148.192 258.761 148.054 259.421 148.054C260.549 148.054 261.419 148.402 262.031 149.098C262.643 149.782 262.949 150.706 262.949 151.87V157H261.401V152.05C261.401 151.258 261.203 150.634 260.807 150.178C260.423 149.722 259.853 149.494 259.097 149.494C258.341 149.494 257.741 149.758 257.297 150.286C256.853 150.814 256.631 151.528 256.631 152.428V157ZM269.518 154.588C269.914 154.948 270.358 155.242 270.85 155.47C271.342 155.698 271.858 155.812 272.398 155.812C272.614 155.812 272.824 155.794 273.028 155.758C273.232 155.71 273.412 155.638 273.568 155.542C273.724 155.446 273.85 155.326 273.946 155.182C274.042 155.026 274.09 154.834 274.09 154.606C274.09 154.378 274.036 154.186 273.928 154.03C273.832 153.874 273.694 153.742 273.514 153.634C273.346 153.526 273.142 153.436 272.902 153.364C272.674 153.292 272.422 153.226 272.146 153.166C271.834 153.094 271.516 153.01 271.192 152.914C270.88 152.806 270.598 152.662 270.346 152.482C270.094 152.29 269.89 152.05 269.734 151.762C269.578 151.474 269.5 151.12 269.5 150.7C269.5 150.256 269.584 149.872 269.752 149.548C269.932 149.212 270.16 148.936 270.436 148.72C270.724 148.492 271.048 148.324 271.408 148.216C271.78 148.108 272.164 148.054 272.56 148.054C273.028 148.054 273.49 148.126 273.946 148.27C274.402 148.402 274.822 148.6 275.206 148.864V150.502C274.822 150.19 274.408 149.932 273.964 149.728C273.52 149.524 273.064 149.422 272.596 149.422C272.416 149.422 272.23 149.44 272.038 149.476C271.846 149.512 271.672 149.578 271.516 149.674C271.372 149.758 271.252 149.872 271.156 150.016C271.06 150.148 271.012 150.316 271.012 150.52C271.012 150.916 271.18 151.216 271.516 151.42C271.852 151.612 272.272 151.774 272.776 151.906C273.184 152.002 273.562 152.116 273.91 152.248C274.258 152.38 274.558 152.548 274.81 152.752C275.062 152.944 275.26 153.184 275.404 153.472C275.548 153.748 275.62 154.084 275.62 154.48C275.62 154.924 275.53 155.32 275.35 155.668C275.182 156.004 274.948 156.286 274.648 156.514C274.36 156.742 274.018 156.91 273.622 157.018C273.226 157.138 272.812 157.198 272.38 157.198C271.9 157.198 271.408 157.126 270.904 156.982C270.4 156.838 269.938 156.61 269.518 156.298V154.588ZM283.844 148.252H285.392V157H283.844V155.74C283.568 156.172 283.202 156.526 282.746 156.802C282.29 157.066 281.732 157.198 281.072 157.198C279.956 157.198 279.092 156.856 278.48 156.172C277.88 155.476 277.58 154.546 277.58 153.382V148.252H279.128V153.202C279.128 153.994 279.32 154.618 279.704 155.074C280.088 155.53 280.652 155.758 281.396 155.758C282.14 155.758 282.734 155.494 283.178 154.966C283.622 154.438 283.844 153.724 283.844 152.824V148.252ZM290.352 145.66C290.352 145.948 290.25 146.194 290.046 146.398C289.842 146.602 289.596 146.704 289.308 146.704C289.02 146.704 288.774 146.602 288.57 146.398C288.366 146.194 288.264 145.948 288.264 145.66C288.264 145.372 288.366 145.126 288.57 144.922C288.774 144.718 289.02 144.616 289.308 144.616C289.596 144.616 289.842 144.718 290.046 144.922C290.25 145.126 290.352 145.372 290.352 145.66ZM290.082 148.252V157H288.534V148.252H290.082ZM294.799 146.2H294.853V148.252H297.301V149.638H294.853V154.264C294.853 154.78 294.967 155.158 295.195 155.398C295.435 155.638 295.807 155.758 296.311 155.758C296.479 155.758 296.653 155.74 296.833 155.704C297.013 155.656 297.169 155.584 297.301 155.488V156.928C297.145 157.012 296.953 157.078 296.725 157.126C296.509 157.174 296.251 157.198 295.951 157.198C295.123 157.198 294.475 156.958 294.007 156.478C293.539 155.998 293.305 155.332 293.305 154.48V149.638H291.793V149.44L294.799 146.2ZM306.618 156.082C306.126 156.43 305.592 156.706 305.016 156.91C304.44 157.102 303.846 157.198 303.234 157.198C302.538 157.198 301.908 157.084 301.344 156.856C300.78 156.616 300.294 156.292 299.886 155.884C299.49 155.464 299.184 154.978 298.968 154.426C298.752 153.874 298.644 153.274 298.644 152.626C298.644 151.978 298.752 151.378 298.968 150.826C299.184 150.262 299.478 149.776 299.85 149.368C300.234 148.96 300.69 148.642 301.218 148.414C301.746 148.174 302.328 148.054 302.964 148.054C303.576 148.054 304.134 148.174 304.638 148.414C305.142 148.642 305.574 148.96 305.934 149.368C306.306 149.776 306.588 150.256 306.78 150.808C306.984 151.348 307.086 151.93 307.086 152.554C307.086 152.65 307.08 152.734 307.068 152.806C307.068 152.866 307.068 152.92 307.068 152.968C307.056 153.016 307.05 153.064 307.05 153.112H300.192C300.228 153.472 300.324 153.82 300.48 154.156C300.648 154.48 300.864 154.762 301.128 155.002C301.404 155.242 301.728 155.434 302.1 155.578C302.472 155.722 302.886 155.794 303.342 155.794C304.458 155.794 305.55 155.332 306.618 154.408V156.082ZM305.52 151.834C305.484 151.486 305.394 151.168 305.25 150.88C305.118 150.58 304.938 150.322 304.71 150.106C304.494 149.89 304.23 149.722 303.918 149.602C303.618 149.47 303.288 149.404 302.928 149.404C302.568 149.404 302.226 149.476 301.902 149.62C301.59 149.764 301.314 149.95 301.074 150.178C300.834 150.406 300.636 150.664 300.48 150.952C300.336 151.24 300.252 151.534 300.228 151.834H305.52Z" fill="#D9D9E0"/>
<path opacity="0.08" d="M24 180H424" stroke="white"/>
<path d="M135.022 202.4V215H133.42V202.4H135.022ZM139.622 215H138.074V206.252H139.622V207.512C139.898 207.08 140.264 206.732 140.72 206.468C141.188 206.192 141.752 206.054 142.412 206.054C143.54 206.054 144.41 206.402 145.022 207.098C145.634 207.782 145.94 208.706 145.94 209.87V215H144.392V210.05C144.392 209.258 144.194 208.634 143.798 208.178C143.414 207.722 142.844 207.494 142.088 207.494C141.332 207.494 140.732 207.758 140.288 208.286C139.844 208.814 139.622 209.528 139.622 210.428V215ZM148.062 210.626C148.062 209.99 148.17 209.396 148.386 208.844C148.614 208.28 148.932 207.794 149.34 207.386C149.748 206.966 150.228 206.642 150.78 206.414C151.344 206.174 151.962 206.054 152.634 206.054C153.546 206.054 154.374 206.306 155.118 206.81V208.376C154.35 207.788 153.546 207.494 152.706 207.494C152.262 207.494 151.848 207.578 151.464 207.746C151.092 207.902 150.768 208.124 150.492 208.412C150.228 208.688 150.018 209.018 149.862 209.402C149.706 209.774 149.628 210.182 149.628 210.626C149.628 211.058 149.706 211.466 149.862 211.85C150.018 212.234 150.228 212.57 150.492 212.858C150.768 213.134 151.092 213.356 151.464 213.524C151.848 213.68 152.262 213.758 152.706 213.758C153.162 213.758 153.6 213.674 154.02 213.506C154.44 213.326 154.824 213.122 155.172 212.894V214.46C154.788 214.7 154.386 214.88 153.966 215C153.546 215.132 153.108 215.198 152.652 215.198C151.968 215.198 151.344 215.084 150.78 214.856C150.216 214.616 149.73 214.292 149.322 213.884C148.926 213.464 148.614 212.978 148.386 212.426C148.17 211.874 148.062 211.274 148.062 210.626ZM161.947 207.692C161.923 207.692 161.887 207.686 161.839 207.674C161.803 207.674 161.755 207.674 161.695 207.674C161.635 207.662 161.575 207.656 161.515 207.656C160.699 207.656 160.057 207.95 159.589 208.538C159.133 209.126 158.905 209.894 158.905 210.842V215H157.375V206.252H158.887V207.8C158.983 207.548 159.121 207.32 159.301 207.116C159.493 206.9 159.709 206.72 159.949 206.576C160.189 206.432 160.447 206.318 160.723 206.234C160.999 206.15 161.281 206.108 161.569 206.108C161.629 206.108 161.677 206.114 161.713 206.126C161.761 206.126 161.803 206.126 161.839 206.126C161.887 206.138 161.923 206.144 161.947 206.144V207.692ZM170.854 214.082C170.362 214.43 169.828 214.706 169.252 214.91C168.676 215.102 168.082 215.198 167.47 215.198C166.774 215.198 166.144 215.084 165.58 214.856C165.016 214.616 164.53 214.292 164.122 213.884C163.726 213.464 163.42 212.978 163.204 212.426C162.988 211.874 162.88 211.274 162.88 210.626C162.88 209.978 162.988 209.378 163.204 208.826C163.42 208.262 163.714 207.776 164.086 207.368C164.47 206.96 164.926 206.642 165.454 206.414C165.982 206.174 166.564 206.054 167.2 206.054C167.812 206.054 168.37 206.174 168.874 206.414C169.378 206.642 169.81 206.96 170.17 207.368C170.542 207.776 170.824 208.256 171.016 208.808C171.22 209.348 171.322 209.93 171.322 210.554C171.322 210.65 171.316 210.734 171.304 210.806C171.304 210.866 171.304 210.92 171.304 210.968C171.292 211.016 171.286 211.064 171.286 211.112H164.428C164.464 211.472 164.56 211.82 164.716 212.156C164.884 212.48 165.1 212.762 165.364 213.002C165.64 213.242 165.964 213.434 166.336 213.578C166.708 213.722 167.122 213.794 167.578 213.794C168.694 213.794 169.786 213.332 170.854 212.408V214.082ZM169.756 209.834C169.72 209.486 169.63 209.168 169.486 208.88C169.354 208.58 169.174 208.322 168.946 208.106C168.73 207.89 168.466 207.722 168.154 207.602C167.854 207.47 167.524 207.404 167.164 207.404C166.804 207.404 166.462 207.476 166.138 207.62C165.826 207.764 165.55 207.95 165.31 208.178C165.07 208.406 164.872 208.664 164.716 208.952C164.572 209.24 164.488 209.534 164.464 209.834H169.756ZM178.464 209.222C178.464 208.67 178.278 208.238 177.906 207.926C177.546 207.614 177.042 207.458 176.394 207.458C175.794 207.458 175.26 207.572 174.792 207.8C174.336 208.028 173.88 208.352 173.424 208.772V207.152C173.82 206.828 174.258 206.564 174.738 206.36C175.23 206.156 175.794 206.054 176.43 206.054C177.558 206.054 178.428 206.348 179.04 206.936C179.664 207.512 179.976 208.31 179.976 209.33V215H178.518V213.848C178.17 214.292 177.744 214.628 177.24 214.856C176.736 215.084 176.196 215.198 175.62 215.198C175.236 215.198 174.882 215.132 174.558 215C174.234 214.88 173.952 214.712 173.712 214.496C173.484 214.268 173.304 214.004 173.172 213.704C173.04 213.392 172.974 213.056 172.974 212.696C172.974 211.136 173.946 210.194 175.89 209.87L178.464 209.438V209.222ZM174.522 212.606C174.522 212.978 174.648 213.278 174.9 213.506C175.164 213.722 175.5 213.83 175.908 213.83C176.28 213.83 176.622 213.776 176.934 213.668C177.258 213.548 177.534 213.386 177.762 213.182C177.99 212.966 178.164 212.72 178.284 212.444C178.416 212.156 178.482 211.844 178.482 211.508V210.77L176.142 211.184C175.614 211.28 175.212 211.448 174.936 211.688C174.66 211.916 174.522 212.222 174.522 212.606ZM182.058 212.588C182.454 212.948 182.898 213.242 183.39 213.47C183.882 213.698 184.398 213.812 184.938 213.812C185.154 213.812 185.364 213.794 185.568 213.758C185.772 213.71 185.952 213.638 186.108 213.542C186.264 213.446 186.39 213.326 186.486 213.182C186.582 213.026 186.63 212.834 186.63 212.606C186.63 212.378 186.576 212.186 186.468 212.03C186.372 211.874 186.234 211.742 186.054 211.634C185.886 211.526 185.682 211.436 185.442 211.364C185.214 211.292 184.962 211.226 184.686 211.166C184.374 211.094 184.056 211.01 183.732 210.914C183.42 210.806 183.138 210.662 182.886 210.482C182.634 210.29 182.43 210.05 182.274 209.762C182.118 209.474 182.04 209.12 182.04 208.7C182.04 208.256 182.124 207.872 182.292 207.548C182.472 207.212 182.7 206.936 182.976 206.72C183.264 206.492 183.588 206.324 183.948 206.216C184.32 206.108 184.704 206.054 185.1 206.054C185.568 206.054 186.03 206.126 186.486 206.27C186.942 206.402 187.362 206.6 187.746 206.864V208.502C187.362 208.19 186.948 207.932 186.504 207.728C186.06 207.524 185.604 207.422 185.136 207.422C184.956 207.422 184.77 207.44 184.578 207.476C184.386 207.512 184.212 207.578 184.056 207.674C183.912 207.758 183.792 207.872 183.696 208.016C183.6 208.148 183.552 208.316 183.552 208.52C183.552 208.916 183.72 209.216 184.056 209.42C184.392 209.612 184.812 209.774 185.316 209.906C185.724 210.002 186.102 210.116 186.45 210.248C186.798 210.38 187.098 210.548 187.35 210.752C187.602 210.944 187.8 211.184 187.944 211.472C188.088 211.748 188.16 212.084 188.16 212.48C188.16 212.924 188.07 213.32 187.89 213.668C187.722 214.004 187.488 214.286 187.188 214.514C186.9 214.742 186.558 214.91 186.162 215.018C185.766 215.138 185.352 215.198 184.92 215.198C184.44 215.198 183.948 215.126 183.444 214.982C182.94 214.838 182.478 214.61 182.058 214.298V212.588ZM197.731 214.082C197.239 214.43 196.705 214.706 196.129 214.91C195.553 215.102 194.959 215.198 194.347 215.198C193.651 215.198 193.021 215.084 192.457 214.856C191.893 214.616 191.407 214.292 190.999 213.884C190.603 213.464 190.297 212.978 190.081 212.426C189.865 211.874 189.757 211.274 189.757 210.626C189.757 209.978 189.865 209.378 190.081 208.826C190.297 208.262 190.591 207.776 190.963 207.368C191.347 206.96 191.803 206.642 192.331 206.414C192.859 206.174 193.441 206.054 194.077 206.054C194.689 206.054 195.247 206.174 195.751 206.414C196.255 206.642 196.687 206.96 197.047 207.368C197.419 207.776 197.701 208.256 197.893 208.808C198.097 209.348 198.199 209.93 198.199 210.554C198.199 210.65 198.193 210.734 198.181 210.806C198.181 210.866 198.181 210.92 198.181 210.968C198.169 211.016 198.163 211.064 198.163 211.112H191.305C191.341 211.472 191.437 211.82 191.593 212.156C191.761 212.48 191.977 212.762 192.241 213.002C192.517 213.242 192.841 213.434 193.213 213.578C193.585 213.722 193.999 213.794 194.455 213.794C195.571 213.794 196.663 213.332 197.731 212.408V214.082ZM196.633 209.834C196.597 209.486 196.507 209.168 196.363 208.88C196.231 208.58 196.051 208.322 195.823 208.106C195.607 207.89 195.343 207.722 195.031 207.602C194.731 207.47 194.401 207.404 194.041 207.404C193.681 207.404 193.339 207.476 193.015 207.62C192.703 207.764 192.427 207.95 192.187 208.178C191.947 208.406 191.749 208.664 191.593 208.952C191.449 209.24 191.365 209.534 191.341 209.834H196.633ZM203.686 202.4H212.65V203.876H208.978V215H207.358V203.876H203.686V202.4ZM220.354 214.082C219.862 214.43 219.328 214.706 218.752 214.91C218.176 215.102 217.582 215.198 216.97 215.198C216.274 215.198 215.644 215.084 215.08 214.856C214.516 214.616 214.03 214.292 213.622 213.884C213.226 213.464 212.92 212.978 212.704 212.426C212.488 211.874 212.38 211.274 212.38 210.626C212.38 209.978 212.488 209.378 212.704 208.826C212.92 208.262 213.214 207.776 213.586 207.368C213.97 206.96 214.426 206.642 214.954 206.414C215.482 206.174 216.064 206.054 216.7 206.054C217.312 206.054 217.87 206.174 218.374 206.414C218.878 206.642 219.31 206.96 219.67 207.368C220.042 207.776 220.324 208.256 220.516 208.808C220.72 209.348 220.822 209.93 220.822 210.554C220.822 210.65 220.816 210.734 220.804 210.806C220.804 210.866 220.804 210.92 220.804 210.968C220.792 211.016 220.786 211.064 220.786 211.112H213.928C213.964 211.472 214.06 211.82 214.216 212.156C214.384 212.48 214.6 212.762 214.864 213.002C215.14 213.242 215.464 213.434 215.836 213.578C216.208 213.722 216.622 213.794 217.078 213.794C218.194 213.794 219.286 213.332 220.354 212.408V214.082ZM219.256 209.834C219.22 209.486 219.13 209.168 218.986 208.88C218.854 208.58 218.674 208.322 218.446 208.106C218.23 207.89 217.966 207.722 217.654 207.602C217.354 207.47 217.024 207.404 216.664 207.404C216.304 207.404 215.962 207.476 215.638 207.62C215.326 207.764 215.05 207.95 214.81 208.178C214.57 208.406 214.372 208.664 214.216 208.952C214.072 209.24 213.988 209.534 213.964 209.834H219.256ZM222.471 212.588C222.867 212.948 223.311 213.242 223.803 213.47C224.295 213.698 224.811 213.812 225.351 213.812C225.567 213.812 225.777 213.794 225.981 213.758C226.185 213.71 226.365 213.638 226.521 213.542C226.677 213.446 226.803 213.326 226.899 213.182C226.995 213.026 227.043 212.834 227.043 212.606C227.043 212.378 226.989 212.186 226.881 212.03C226.785 211.874 226.647 211.742 226.467 211.634C226.299 211.526 226.095 211.436 225.855 211.364C225.627 211.292 225.375 211.226 225.099 211.166C224.787 211.094 224.469 211.01 224.145 210.914C223.833 210.806 223.551 210.662 223.299 210.482C223.047 210.29 222.843 210.05 222.687 209.762C222.531 209.474 222.453 209.12 222.453 208.7C222.453 208.256 222.537 207.872 222.705 207.548C222.885 207.212 223.113 206.936 223.389 206.72C223.677 206.492 224.001 206.324 224.361 206.216C224.733 206.108 225.117 206.054 225.513 206.054C225.981 206.054 226.443 206.126 226.899 206.27C227.355 206.402 227.775 206.6 228.159 206.864V208.502C227.775 208.19 227.361 207.932 226.917 207.728C226.473 207.524 226.017 207.422 225.549 207.422C225.369 207.422 225.183 207.44 224.991 207.476C224.799 207.512 224.625 207.578 224.469 207.674C224.325 207.758 224.205 207.872 224.109 208.016C224.013 208.148 223.965 208.316 223.965 208.52C223.965 208.916 224.133 209.216 224.469 209.42C224.805 209.612 225.225 209.774 225.729 209.906C226.137 210.002 226.515 210.116 226.863 210.248C227.211 210.38 227.511 210.548 227.763 210.752C228.015 210.944 228.213 211.184 228.357 211.472C228.501 211.748 228.573 212.084 228.573 212.48C228.573 212.924 228.483 213.32 228.303 213.668C228.135 214.004 227.901 214.286 227.601 214.514C227.313 214.742 226.971 214.91 226.575 215.018C226.179 215.138 225.765 215.198 225.333 215.198C224.853 215.198 224.361 215.126 223.857 214.982C223.353 214.838 222.891 214.61 222.471 214.298V212.588ZM232.494 204.2H232.548V206.252H234.996V207.638H232.548V212.264C232.548 212.78 232.662 213.158 232.89 213.398C233.13 213.638 233.502 213.758 234.006 213.758C234.174 213.758 234.348 213.74 234.528 213.704C234.708 213.656 234.864 213.584 234.996 213.488V214.928C234.84 215.012 234.648 215.078 234.42 215.126C234.204 215.174 233.946 215.198 233.646 215.198C232.818 215.198 232.17 214.958 231.702 214.478C231.234 213.998 231 213.332 231 212.48V207.638H229.488V207.44L232.494 204.2ZM240.965 208.7C240.965 207.788 241.127 206.936 241.451 206.144C241.787 205.352 242.243 204.662 242.819 204.074C243.407 203.486 244.091 203.024 244.871 202.688C245.663 202.352 246.509 202.184 247.409 202.184C248.729 202.184 249.959 202.562 251.099 203.318V205.1C249.887 204.188 248.645 203.732 247.373 203.732C246.701 203.732 246.077 203.864 245.501 204.128C244.925 204.38 244.421 204.728 243.989 205.172C243.569 205.616 243.233 206.144 242.981 206.756C242.741 207.356 242.621 208.004 242.621 208.7C242.621 209.384 242.741 210.032 242.981 210.644C243.233 211.244 243.569 211.766 243.989 212.21C244.421 212.654 244.925 213.008 245.501 213.272C246.077 213.524 246.701 213.65 247.373 213.65C248.645 213.65 249.899 213.206 251.135 212.318V214.1C249.959 214.832 248.711 215.198 247.391 215.198C246.491 215.198 245.651 215.03 244.871 214.694C244.091 214.358 243.407 213.902 242.819 213.326C242.243 212.738 241.787 212.048 241.451 211.256C241.127 210.464 240.965 209.612 240.965 208.7ZM257.399 206.054C258.059 206.054 258.665 206.174 259.217 206.414C259.781 206.654 260.267 206.984 260.675 207.404C261.083 207.812 261.401 208.292 261.629 208.844C261.857 209.396 261.971 209.99 261.971 210.626C261.971 211.262 261.857 211.856 261.629 212.408C261.401 212.96 261.083 213.446 260.675 213.866C260.267 214.274 259.781 214.598 259.217 214.838C258.665 215.078 258.059 215.198 257.399 215.198C256.739 215.198 256.127 215.078 255.563 214.838C255.011 214.598 254.531 214.274 254.123 213.866C253.715 213.446 253.397 212.96 253.169 212.408C252.941 211.856 252.827 211.262 252.827 210.626C252.827 209.99 252.941 209.396 253.169 208.844C253.397 208.292 253.715 207.812 254.123 207.404C254.531 206.984 255.011 206.654 255.563 206.414C256.127 206.174 256.739 206.054 257.399 206.054ZM257.399 207.476C256.967 207.476 256.565 207.56 256.193 207.728C255.833 207.884 255.515 208.106 255.239 208.394C254.975 208.682 254.765 209.018 254.609 209.402C254.465 209.786 254.393 210.194 254.393 210.626C254.393 211.058 254.465 211.466 254.609 211.85C254.765 212.234 254.975 212.57 255.239 212.858C255.515 213.146 255.833 213.374 256.193 213.542C256.565 213.698 256.967 213.776 257.399 213.776C257.831 213.776 258.227 213.698 258.587 213.542C258.959 213.374 259.277 213.146 259.541 212.858C259.817 212.57 260.027 212.234 260.171 211.85C260.327 211.466 260.405 211.058 260.405 210.626C260.405 210.194 260.327 209.786 260.171 209.402C260.027 209.018 259.817 208.682 259.541 208.394C259.277 208.106 258.959 207.884 258.587 207.728C258.227 207.56 257.831 207.476 257.399 207.476ZM266.489 215L262.835 206.252H264.491L267.137 212.876L269.783 206.252H271.403L267.749 215H266.489ZM280.243 214.082C279.751 214.43 279.217 214.706 278.641 214.91C278.065 215.102 277.471 215.198 276.859 215.198C276.163 215.198 275.533 215.084 274.969 214.856C274.405 214.616 273.919 214.292 273.511 213.884C273.115 213.464 272.809 212.978 272.593 212.426C272.377 211.874 272.269 211.274 272.269 210.626C272.269 209.978 272.377 209.378 272.593 208.826C272.809 208.262 273.103 207.776 273.475 207.368C273.859 206.96 274.315 206.642 274.843 206.414C275.371 206.174 275.953 206.054 276.589 206.054C277.201 206.054 277.759 206.174 278.263 206.414C278.767 206.642 279.199 206.96 279.559 207.368C279.931 207.776 280.213 208.256 280.405 208.808C280.609 209.348 280.711 209.93 280.711 210.554C280.711 210.65 280.705 210.734 280.693 210.806C280.693 210.866 280.693 210.92 280.693 210.968C280.681 211.016 280.675 211.064 280.675 211.112H273.817C273.853 211.472 273.949 211.82 274.105 212.156C274.273 212.48 274.489 212.762 274.753 213.002C275.029 213.242 275.353 213.434 275.725 213.578C276.097 213.722 276.511 213.794 276.967 213.794C278.083 213.794 279.175 213.332 280.243 212.408V214.082ZM279.145 209.834C279.109 209.486 279.019 209.168 278.875 208.88C278.743 208.58 278.563 208.322 278.335 208.106C278.119 207.89 277.855 207.722 277.543 207.602C277.243 207.47 276.913 207.404 276.553 207.404C276.193 207.404 275.851 207.476 275.527 207.62C275.215 207.764 274.939 207.95 274.699 208.178C274.459 208.406 274.261 208.664 274.105 208.952C273.961 209.24 273.877 209.534 273.853 209.834H279.145ZM287.437 207.692C287.413 207.692 287.377 207.686 287.329 207.674C287.293 207.674 287.245 207.674 287.185 207.674C287.125 207.662 287.065 207.656 287.005 207.656C286.189 207.656 285.547 207.95 285.079 208.538C284.623 209.126 284.395 209.894 284.395 210.842V215H282.865V206.252H284.377V207.8C284.473 207.548 284.611 207.32 284.791 207.116C284.983 206.9 285.199 206.72 285.439 206.576C285.679 206.432 285.937 206.318 286.213 206.234C286.489 206.15 286.771 206.108 287.059 206.108C287.119 206.108 287.167 206.114 287.203 206.126C287.251 206.126 287.293 206.126 287.329 206.126C287.377 206.138 287.413 206.144 287.437 206.144V207.692ZM294.392 209.222C294.392 208.67 294.206 208.238 293.834 207.926C293.474 207.614 292.97 207.458 292.322 207.458C291.722 207.458 291.188 207.572 290.72 207.8C290.264 208.028 289.808 208.352 289.352 208.772V207.152C289.748 206.828 290.186 206.564 290.666 206.36C291.158 206.156 291.722 206.054 292.358 206.054C293.486 206.054 294.356 206.348 294.968 206.936C295.592 207.512 295.904 208.31 295.904 209.33V215H294.446V213.848C294.098 214.292 293.672 214.628 293.168 214.856C292.664 215.084 292.124 215.198 291.548 215.198C291.164 215.198 290.81 215.132 290.486 215C290.162 214.88 289.88 214.712 289.64 214.496C289.412 214.268 289.232 214.004 289.1 213.704C288.968 213.392 288.902 213.056 288.902 212.696C288.902 211.136 289.874 210.194 291.818 209.87L294.392 209.438V209.222ZM290.45 212.606C290.45 212.978 290.576 213.278 290.828 213.506C291.092 213.722 291.428 213.83 291.836 213.83C292.208 213.83 292.55 213.776 292.862 213.668C293.186 213.548 293.462 213.386 293.69 213.182C293.918 212.966 294.092 212.72 294.212 212.444C294.344 212.156 294.41 211.844 294.41 211.508V210.77L292.07 211.184C291.542 211.28 291.14 211.448 290.864 211.688C290.588 211.916 290.45 212.222 290.45 212.606ZM298.291 209.276C298.291 208.796 298.381 208.358 298.561 207.962C298.741 207.566 298.987 207.23 299.299 206.954C299.611 206.666 299.971 206.444 300.379 206.288C300.787 206.132 301.219 206.054 301.675 206.054C302.071 206.054 302.467 206.12 302.863 206.252H305.869V207.584H304.573C304.729 207.824 304.849 208.088 304.933 208.376C305.017 208.664 305.059 208.964 305.059 209.276C305.059 209.756 304.969 210.194 304.789 210.59C304.609 210.986 304.363 211.322 304.051 211.598C303.739 211.874 303.379 212.09 302.971 212.246C302.563 212.402 302.131 212.48 301.675 212.48C301.147 212.48 300.643 212.378 300.163 212.174C299.863 212.27 299.659 212.396 299.551 212.552C299.443 212.696 299.389 212.852 299.389 213.02C299.389 213.284 299.497 213.47 299.713 213.578C299.929 213.686 300.211 213.74 300.559 213.74H302.989C303.925 213.74 304.669 213.932 305.221 214.316C305.773 214.7 306.049 215.252 306.049 215.972C306.049 216.476 305.923 216.914 305.671 217.286C305.419 217.67 305.083 217.982 304.663 218.222C304.255 218.474 303.775 218.66 303.223 218.78C302.683 218.9 302.119 218.96 301.531 218.96C300.967 218.96 300.445 218.912 299.965 218.816C299.497 218.72 299.089 218.57 298.741 218.366C298.393 218.174 298.117 217.922 297.913 217.61C297.721 217.298 297.625 216.926 297.625 216.494C297.625 216.074 297.739 215.702 297.967 215.378C298.207 215.066 298.465 214.82 298.741 214.64C298.501 214.472 298.321 214.268 298.201 214.028C298.093 213.776 298.039 213.512 298.039 213.236C298.039 212.996 298.069 212.786 298.129 212.606C298.201 212.414 298.291 212.252 298.399 212.12C298.507 211.976 298.627 211.856 298.759 211.76C298.891 211.652 299.023 211.556 299.155 211.472C298.879 211.196 298.663 210.878 298.507 210.518C298.363 210.146 298.291 209.732 298.291 209.276ZM304.609 216.116C304.609 215.732 304.441 215.468 304.105 215.324C303.781 215.18 303.289 215.108 302.629 215.108H300.469C300.361 215.108 300.259 215.102 300.163 215.09C300.079 215.09 299.989 215.084 299.893 215.072C299.329 215.372 299.047 215.786 299.047 216.314C299.047 216.566 299.113 216.782 299.245 216.962C299.377 217.142 299.557 217.286 299.785 217.394C300.013 217.514 300.277 217.598 300.577 217.646C300.889 217.706 301.219 217.736 301.567 217.736C302.011 217.736 302.419 217.7 302.791 217.628C303.163 217.556 303.481 217.448 303.745 217.304C304.021 217.172 304.231 217.004 304.375 216.8C304.531 216.608 304.609 216.38 304.609 216.116ZM299.713 209.276C299.713 209.852 299.899 210.32 300.271 210.68C300.655 211.028 301.123 211.202 301.675 211.202C302.227 211.202 302.689 211.028 303.061 210.68C303.445 210.32 303.637 209.852 303.637 209.276C303.637 208.712 303.445 208.25 303.061 207.89C302.689 207.53 302.227 207.35 301.675 207.35C301.123 207.35 300.655 207.53 300.271 207.89C299.899 208.25 299.713 208.712 299.713 209.276ZM315.012 214.082C314.52 214.43 313.986 214.706 313.41 214.91C312.834 215.102 312.24 215.198 311.628 215.198C310.932 215.198 310.302 215.084 309.738 214.856C309.174 214.616 308.688 214.292 308.28 213.884C307.884 213.464 307.578 212.978 307.362 212.426C307.146 211.874 307.038 211.274 307.038 210.626C307.038 209.978 307.146 209.378 307.362 208.826C307.578 208.262 307.872 207.776 308.244 207.368C308.628 206.96 309.084 206.642 309.612 206.414C310.14 206.174 310.722 206.054 311.358 206.054C311.97 206.054 312.528 206.174 313.032 206.414C313.536 206.642 313.968 206.96 314.328 207.368C314.7 207.776 314.982 208.256 315.174 208.808C315.378 209.348 315.48 209.93 315.48 210.554C315.48 210.65 315.474 210.734 315.462 210.806C315.462 210.866 315.462 210.92 315.462 210.968C315.45 211.016 315.444 211.064 315.444 211.112H308.586C308.622 211.472 308.718 211.82 308.874 212.156C309.042 212.48 309.258 212.762 309.522 213.002C309.798 213.242 310.122 213.434 310.494 213.578C310.866 213.722 311.28 213.794 311.736 213.794C312.852 213.794 313.944 213.332 315.012 212.408V214.082ZM313.914 209.834C313.878 209.486 313.788 209.168 313.644 208.88C313.512 208.58 313.332 208.322 313.104 208.106C312.888 207.89 312.624 207.722 312.312 207.602C312.012 207.47 311.682 207.404 311.322 207.404C310.962 207.404 310.62 207.476 310.296 207.62C309.984 207.764 309.708 207.95 309.468 208.178C309.228 208.406 309.03 208.664 308.874 208.952C308.73 209.24 308.646 209.534 308.622 209.834H313.914Z" fill="#D9D9E0"/>
</g>
<defs>
<radialGradient id="paint0_radial_1_71" cx="0" cy="0" r="1" gradientUnits="userSpaceOnUse" gradientTransform="translate(238.806 60.6327) rotate(-178.845) scale(229.775 14.7386)">
<stop stop-color="#6348FE"/>
<stop offset="1" stop-color="#6348FE" stop-opacity="0"/>
</radialGradient>
<radialGradient id="paint1_radial_1_71" cx="0" cy="0" r="1" gradientUnits="userSpaceOnUse" gradientTransform="translate(448 6.21091) rotate(161.344) scale(161.059 32.2587)">
<stop stop-color="#6348FE"/>
<stop offset="1" stop-color="#6348FE" stop-opacity="0"/>
</radialGradient>
<radialGradient id="paint2_radial_1_71" cx="0" cy="0" r="1" gradientUnits="userSpaceOnUse" gradientTransform="translate(-1.65747e-06 1.73091) rotate(9.663) scale(111.916 44.924)">
<stop stop-color="#6447FF"/>
<stop offset="1" stop-color="#6447FF" stop-opacity="0"/>
</radialGradient>
<radialGradient id="paint3_radial_1_71" cx="0" cy="0" r="1" gradientUnits="userSpaceOnUse" gradientTransform="scale(108.45 21.9598)">
<stop stop-color="white" stop-opacity="0.81"/>
<stop offset="1" stop-color="white" stop-opacity="0.19"/>
</radialGradient>
<radialGradient id="paint4_radial_1_71" cx="0" cy="0" r="1" gradientUnits="userSpaceOnUse" gradientTransform="translate(448.133) rotate(90) scale(22.456 94.9516)">
<stop stop-opacity="0.5"/>
<stop offset="1" stop-opacity="0"/>
</radialGradient>
</defs>
</svg>
