<svg width="456" height="256" viewBox="0 0 456 256" fill="none" xmlns="http://www.w3.org/2000/svg">
<g filter="url(#filter0_d_1_3)">
<mask id="mask0_1_3" style="mask-type:luminance" maskUnits="userSpaceOnUse" x="4" y="0" width="448" height="248">
<path d="M436 0H20C11.1634 0 4 7.16344 4 16V232C4 240.837 11.1634 248 20 248H436C444.837 248 452 240.837 452 232V16C452 7.16344 444.837 0 436 0Z" fill="white"/>
</mask>
<g mask="url(#mask0_1_3)">
<path d="M436 0H20C11.1634 0 4 7.16344 4 16V232C4 240.837 11.1634 248 20 248H436C444.837 248 452 240.837 452 232V16C452 7.16344 444.837 0 436 0Z" fill="#272471" fill-opacity="0.32"/>
<g filter="url(#filter1_d_1_3)">
<path d="M4 8C4 3.58 7.5817 0 12 0H444C448.418 0 452 3.58 452 8V58H4V8Z" fill="#151550"/>
<path d="M171.417 32.75L169.75 31.08L171.417 29.42" stroke="white" stroke-width="1.5" stroke-linecap="round" stroke-linejoin="round"/>
<path d="M181.414 29.42L183.081 31.08L181.414 32.75" stroke="white" stroke-width="1.5" stroke-linecap="round" stroke-linejoin="round"/>
<path d="M185.583 21.08H167.25V37.75H185.583V21.08Z" stroke="white" stroke-width="1.5" stroke-linecap="round" stroke-linejoin="round"/>
<path d="M167.25 24.42H185.583" stroke="white" stroke-width="1.5" stroke-linecap="round" stroke-linejoin="round"/>
<path d="M178.083 26.92H174.75V35.25H178.083V26.92Z" stroke="white" stroke-width="1.5" stroke-linecap="round" stroke-linejoin="round"/>
<path d="M171.414 21.08V24.42" stroke="white" stroke-width="1.5" stroke-linecap="round" stroke-linejoin="round"/>
<path d="M203.686 22.4H207.97C210.706 22.4 212.596 23.88 212.596 26.47C212.596 29.04 210.706 30.54 207.97 30.54H206.386V35H203.686V22.4ZM206.386 24.83V28.14H208.024C209.104 28.14 209.878 27.53 209.878 26.49C209.878 25.44 209.104 24.83 208.024 24.83H206.386ZM217.002 30.39V35H214.32V22.4H218.514C221.232 22.4 223.122 23.8601 223.122 26.4301C223.122 28.2301 222.042 29.4899 220.53 30.0699L224.004 35H220.818L217.722 30.39H217.002ZM217.002 24.83V28.16H218.532C219.612 28.16 220.404 27.53 220.404 26.49C220.404 25.42 219.612 24.83 218.532 24.83H217.002ZM224.437 31.38V29.02H230.143V31.38H224.437ZM236.068 22.4H238.462L243.52 35H240.694L239.632 32.28H234.826L233.764 35H230.992L236.068 22.4ZM237.22 25.84L235.654 29.96H238.822L237.22 25.84ZM252.532 32.3199V30.25H249.724V27.9301H255.07V33.88C253.882 34.71 252.37 35.23 250.57 35.23C246.646 35.23 243.802 32.75 243.802 28.77C243.802 25.05 246.628 22.17 250.75 22.17C252.1 22.17 253.72 22.53 254.818 23.21V26.1801C253.72 25.3301 252.406 24.72 250.768 24.72C248.176 24.72 246.538 26.45 246.538 28.77C246.538 31.18 248.284 32.71 250.606 32.71C251.398 32.71 252.082 32.5299 252.532 32.3199ZM257.439 35V22.4H264.855V24.85H260.139V27.4H264.441V29.78H260.139V32.55H264.891V35H257.439ZM275.677 22.4H278.305V35H275.605L269.683 26.6801V35H267.055V22.4H269.809L275.677 30.75V22.4ZM279.969 24.92V22.4H289.329V24.92H286.017V35H283.299V24.92H279.969Z" fill="white"/>
</g>
<path d="M86.47 99.6C85.906 100.04 85.246 100.42 84.49 100.73C83.734 101.04 82.846 101.2 81.826 101.2C80.878 101.2 80.014 101.03 79.234 100.69C78.454 100.36 77.782 99.9 77.218 99.33C76.654 98.74 76.216 98.05 75.904 97.26C75.592 96.46 75.436 95.61 75.436 94.7C75.436 93.79 75.598 92.94 75.922 92.14C76.258 91.35 76.714 90.6599 77.29 90.0699C77.866 89.4899 78.544 89.0199 79.324 88.6899C80.104 88.3499 80.95 88.1801 81.862 88.1801C82.642 88.1801 83.392 88.3 84.112 88.54C84.844 88.77 85.534 89.1099 86.182 89.5699V91.39C85.462 90.82 84.742 90.4 84.022 90.13C83.314 89.85 82.582 89.71 81.826 89.71C81.142 89.71 80.506 89.85 79.918 90.11C79.342 90.36 78.844 90.72 78.424 91.17C78.004 91.62 77.674 92.14 77.434 92.76C77.194 93.36 77.074 94 77.074 94.7C77.074 95.38 77.182 96.03 77.398 96.63C77.626 97.23 77.944 97.75 78.352 98.21C78.772 98.65 79.276 99.01 79.864 99.27C80.464 99.54 81.13 99.67 81.862 99.67C82.51 99.67 83.08 99.5901 83.572 99.4301C84.064 99.2801 84.502 99.06 84.886 98.79V95.87H81.556V94.36H86.47V99.6ZM96.538 100.08C96.046 100.43 95.512 100.71 94.936 100.91C94.36 101.1 93.766 101.2 93.154 101.2C92.458 101.2 91.828 101.08 91.264 100.86C90.7 100.62 90.214 100.29 89.806 99.88C89.41 99.46 89.104 98.9801 88.888 98.4301C88.672 97.8701 88.564 97.27 88.564 96.63C88.564 95.98 88.672 95.38 88.888 94.83C89.104 94.26 89.398 93.78 89.77 93.37C90.154 92.96 90.61 92.64 91.138 92.41C91.666 92.17 92.248 92.05 92.884 92.05C93.496 92.05 94.054 92.17 94.558 92.41C95.062 92.64 95.494 92.96 95.854 93.37C96.226 93.78 96.508 94.2601 96.7 94.8101C96.904 95.3501 97.006 95.93 97.006 96.55C97.006 96.65 97 96.7301 96.988 96.8101C96.988 96.8701 96.988 96.92 96.988 96.97C96.976 97.02 96.97 97.06 96.97 97.11H90.112C90.148 97.47 90.244 97.82 90.4 98.16C90.568 98.48 90.784 98.76 91.048 99C91.324 99.24 91.648 99.43 92.02 99.58C92.392 99.72 92.806 99.79 93.262 99.79C94.378 99.79 95.47 99.33 96.538 98.41V100.08ZM95.44 95.83C95.404 95.49 95.314 95.17 95.17 94.88C95.038 94.58 94.858 94.32 94.63 94.11C94.414 93.89 94.15 93.72 93.838 93.6C93.538 93.47 93.208 93.4 92.848 93.4C92.488 93.4 92.146 93.48 91.822 93.62C91.51 93.76 91.234 93.9501 90.994 94.1801C90.754 94.4101 90.556 94.66 90.4 94.95C90.256 95.24 90.172 95.53 90.148 95.83H95.44ZM100.709 101H99.161V92.25H100.709V93.51C100.985 93.08 101.351 92.73 101.807 92.47C102.275 92.19 102.839 92.05 103.499 92.05C104.627 92.05 105.497 92.4 106.109 93.1C106.721 93.78 107.027 94.71 107.027 95.87V101H105.479V96.05C105.479 95.26 105.281 94.6301 104.885 94.1801C104.501 93.7201 103.931 93.49 103.175 93.49C102.419 93.49 101.819 93.76 101.375 94.29C100.931 94.81 100.709 95.5301 100.709 96.4301V101ZM117.122 100.08C116.63 100.43 116.096 100.71 115.52 100.91C114.944 101.1 114.35 101.2 113.738 101.2C113.042 101.2 112.412 101.08 111.848 100.86C111.284 100.62 110.798 100.29 110.39 99.88C109.994 99.46 109.688 98.9801 109.472 98.4301C109.256 97.8701 109.148 97.27 109.148 96.63C109.148 95.98 109.256 95.38 109.472 94.83C109.688 94.26 109.982 93.78 110.354 93.37C110.738 92.96 111.194 92.64 111.722 92.41C112.25 92.17 112.832 92.05 113.468 92.05C114.08 92.05 114.638 92.17 115.142 92.41C115.646 92.64 116.078 92.96 116.438 93.37C116.81 93.78 117.092 94.2601 117.284 94.8101C117.488 95.3501 117.59 95.93 117.59 96.55C117.59 96.65 117.584 96.7301 117.572 96.8101C117.572 96.8701 117.572 96.92 117.572 96.97C117.56 97.02 117.554 97.06 117.554 97.11H110.696C110.732 97.47 110.828 97.82 110.984 98.16C111.152 98.48 111.368 98.76 111.632 99C111.908 99.24 112.232 99.43 112.604 99.58C112.976 99.72 113.39 99.79 113.846 99.79C114.962 99.79 116.054 99.33 117.122 98.41V100.08ZM116.024 95.83C115.988 95.49 115.898 95.17 115.754 94.88C115.622 94.58 115.442 94.32 115.214 94.11C114.998 93.89 114.734 93.72 114.422 93.6C114.122 93.47 113.792 93.4 113.432 93.4C113.072 93.4 112.73 93.48 112.406 93.62C112.094 93.76 111.818 93.9501 111.578 94.1801C111.338 94.4101 111.14 94.66 110.984 94.95C110.84 95.24 110.756 95.53 110.732 95.83H116.024ZM124.317 93.6899C124.293 93.6899 124.257 93.69 124.209 93.67C124.173 93.67 124.125 93.67 124.065 93.67C124.005 93.66 123.945 93.66 123.885 93.66C123.069 93.66 122.427 93.95 121.959 94.54C121.503 95.13 121.275 95.89 121.275 96.84V101H119.745V92.25H121.257V93.8C121.353 93.55 121.491 93.32 121.671 93.12C121.863 92.9 122.079 92.72 122.319 92.58C122.559 92.43 122.817 92.32 123.093 92.23C123.369 92.15 123.651 92.11 123.939 92.11C123.999 92.11 124.047 92.11 124.083 92.13C124.131 92.13 124.173 92.13 124.209 92.13C124.257 92.14 124.293 92.14 124.317 92.14V93.6899ZM131.271 95.22C131.271 94.67 131.085 94.2401 130.713 93.9301C130.353 93.6101 129.849 93.46 129.201 93.46C128.601 93.46 128.067 93.57 127.599 93.8C127.143 94.03 126.687 94.35 126.231 94.77V93.15C126.627 92.83 127.065 92.56 127.545 92.36C128.037 92.16 128.601 92.05 129.237 92.05C130.365 92.05 131.235 92.3499 131.847 92.9399C132.471 93.5099 132.783 94.31 132.783 95.33V101H131.325V99.85C130.977 100.29 130.551 100.63 130.047 100.86C129.543 101.08 129.003 101.2 128.427 101.2C128.043 101.2 127.689 101.13 127.365 101C127.041 100.88 126.759 100.71 126.519 100.5C126.291 100.27 126.111 100 125.979 99.7C125.847 99.39 125.781 99.06 125.781 98.7C125.781 97.14 126.753 96.19 128.697 95.87L131.271 95.4399V95.22ZM127.329 98.61C127.329 98.98 127.455 99.28 127.707 99.51C127.971 99.72 128.307 99.83 128.715 99.83C129.087 99.83 129.429 99.78 129.741 99.67C130.065 99.55 130.341 99.3901 130.569 99.1801C130.797 98.9701 130.971 98.7199 131.091 98.4399C131.223 98.1599 131.289 97.84 131.289 97.51V96.77L128.949 97.1801C128.421 97.2801 128.019 97.4499 127.743 97.6899C127.467 97.9199 127.329 98.22 127.329 98.61ZM137.26 90.2H137.314V92.25H139.762V93.64H137.314V98.26C137.314 98.78 137.428 99.16 137.656 99.4C137.896 99.64 138.268 99.76 138.772 99.76C138.94 99.76 139.114 99.74 139.294 99.7C139.474 99.66 139.63 99.58 139.762 99.49V100.93C139.606 101.01 139.414 101.08 139.186 101.13C138.97 101.17 138.712 101.2 138.412 101.2C137.584 101.2 136.936 100.96 136.468 100.48C136 100 135.766 99.33 135.766 98.48V93.64H134.254V93.4399L137.26 90.2ZM149.079 100.08C148.587 100.43 148.053 100.71 147.477 100.91C146.901 101.1 146.307 101.2 145.695 101.2C144.999 101.2 144.369 101.08 143.805 100.86C143.241 100.62 142.755 100.29 142.347 99.88C141.951 99.46 141.645 98.9801 141.429 98.4301C141.213 97.8701 141.105 97.27 141.105 96.63C141.105 95.98 141.213 95.38 141.429 94.83C141.645 94.26 141.939 93.78 142.311 93.37C142.695 92.96 143.151 92.64 143.679 92.41C144.207 92.17 144.789 92.05 145.425 92.05C146.037 92.05 146.595 92.17 147.099 92.41C147.603 92.64 148.035 92.96 148.395 93.37C148.767 93.78 149.049 94.2601 149.241 94.8101C149.445 95.3501 149.547 95.93 149.547 96.55C149.547 96.65 149.541 96.7301 149.529 96.8101C149.529 96.8701 149.529 96.92 149.529 96.97C149.517 97.02 149.511 97.06 149.511 97.11H142.653C142.689 97.47 142.785 97.82 142.941 98.16C143.109 98.48 143.325 98.76 143.589 99C143.865 99.24 144.189 99.43 144.561 99.58C144.933 99.72 145.347 99.79 145.803 99.79C146.919 99.79 148.011 99.33 149.079 98.41V100.08ZM147.981 95.83C147.945 95.49 147.855 95.17 147.711 94.88C147.579 94.58 147.399 94.32 147.171 94.11C146.955 93.89 146.691 93.72 146.379 93.6C146.079 93.47 145.749 93.4 145.389 93.4C145.029 93.4 144.687 93.48 144.363 93.62C144.051 93.76 143.775 93.9501 143.535 94.1801C143.295 94.4101 143.097 94.66 142.941 94.95C142.797 95.24 142.713 95.53 142.689 95.83H147.981ZM160.2 88.4C160.8 88.4 161.346 88.48 161.838 88.65C162.342 88.81 162.774 89.04 163.134 89.35C163.494 89.67 163.77 90.05 163.962 90.51C164.166 90.95 164.268 91.46 164.268 92.04C164.268 92.61 164.166 93.13 163.962 93.58C163.77 94.03 163.494 94.41 163.134 94.72C162.774 95.02 162.342 95.25 161.838 95.42C161.346 95.58 160.8 95.65 160.2 95.65H157.896V101H156.294V88.4H160.2ZM157.896 94.1801H160.2C160.92 94.1801 161.508 93.99 161.964 93.62C162.42 93.25 162.648 92.72 162.648 92.04C162.648 91.34 162.42 90.8101 161.964 90.4301C161.508 90.0601 160.92 89.88 160.2 89.88H157.896V94.1801ZM167.951 101H166.349V88.4H170.039C170.627 88.4 171.167 88.48 171.659 88.65C172.163 88.81 172.595 89.04 172.955 89.35C173.315 89.65 173.591 90.03 173.783 90.49C173.987 90.94 174.089 91.46 174.089 92.04C174.089 92.53 174.011 92.97 173.855 93.37C173.699 93.76 173.483 94.11 173.207 94.41C172.931 94.71 172.601 94.96 172.217 95.17C171.833 95.36 171.413 95.5 170.957 95.58L174.917 101H173.027L169.175 95.65H167.951V101ZM167.951 94.23H170.021C170.741 94.23 171.329 94.04 171.785 93.66C172.241 93.27 172.469 92.73 172.469 92.04C172.469 91.33 172.241 90.7901 171.785 90.4301C171.329 90.0601 170.741 89.88 170.021 89.88H167.951V94.23ZM189.551 88.4V101H188.021V99.61C187.709 100.09 187.277 100.48 186.725 100.77C186.173 101.05 185.573 101.2 184.925 101.2C184.301 101.2 183.719 101.08 183.179 100.86C182.651 100.62 182.189 100.29 181.793 99.88C181.397 99.48 181.085 98.9999 180.857 98.4399C180.641 97.8799 180.533 97.27 180.533 96.63C180.533 95.98 180.641 95.38 180.857 94.83C181.085 94.27 181.397 93.79 181.793 93.39C182.189 92.97 182.651 92.64 183.179 92.41C183.719 92.17 184.301 92.05 184.925 92.05C185.573 92.05 186.167 92.19 186.707 92.45C187.259 92.71 187.697 93.0899 188.021 93.5699V88.4H189.551ZM188.111 96.63C188.111 96.18 188.033 95.77 187.877 95.38C187.733 95 187.523 94.67 187.247 94.39C186.983 94.11 186.665 93.88 186.293 93.73C185.933 93.56 185.537 93.48 185.105 93.48C184.673 93.48 184.271 93.56 183.899 93.73C183.539 93.88 183.221 94.11 182.945 94.39C182.681 94.67 182.471 95 182.315 95.38C182.171 95.77 182.099 96.18 182.099 96.63C182.099 97.07 182.171 97.48 182.315 97.87C182.471 98.25 182.681 98.59 182.945 98.88C183.221 99.15 183.539 99.37 183.899 99.54C184.271 99.7 184.673 99.78 185.105 99.78C185.537 99.78 185.933 99.7 186.293 99.54C186.665 99.37 186.983 99.15 187.247 98.88C187.523 98.59 187.733 98.25 187.877 97.87C188.033 97.48 188.111 97.07 188.111 96.63ZM199.774 100.08C199.282 100.43 198.748 100.71 198.172 100.91C197.596 101.1 197.002 101.2 196.39 101.2C195.694 101.2 195.064 101.08 194.5 100.86C193.936 100.62 193.45 100.29 193.042 99.88C192.646 99.46 192.34 98.9801 192.124 98.4301C191.908 97.8701 191.8 97.27 191.8 96.63C191.8 95.98 191.908 95.38 192.124 94.83C192.34 94.26 192.634 93.78 193.006 93.37C193.39 92.96 193.846 92.64 194.374 92.41C194.902 92.17 195.484 92.05 196.12 92.05C196.732 92.05 197.29 92.17 197.794 92.41C198.298 92.64 198.73 92.96 199.09 93.37C199.462 93.78 199.744 94.2601 199.936 94.8101C200.14 95.3501 200.242 95.93 200.242 96.55C200.242 96.65 200.236 96.7301 200.224 96.8101C200.224 96.8701 200.224 96.92 200.224 96.97C200.212 97.02 200.206 97.06 200.206 97.11H193.348C193.384 97.47 193.48 97.82 193.636 98.16C193.804 98.48 194.02 98.76 194.284 99C194.56 99.24 194.884 99.43 195.256 99.58C195.628 99.72 196.042 99.79 196.498 99.79C197.614 99.79 198.706 99.33 199.774 98.41V100.08ZM198.676 95.83C198.64 95.49 198.55 95.17 198.406 94.88C198.274 94.58 198.094 94.32 197.866 94.11C197.65 93.89 197.386 93.72 197.074 93.6C196.774 93.47 196.444 93.4 196.084 93.4C195.724 93.4 195.382 93.48 195.058 93.62C194.746 93.76 194.47 93.9501 194.23 94.1801C193.99 94.4101 193.792 94.66 193.636 94.95C193.492 95.24 193.408 95.53 193.384 95.83H198.676ZM201.891 98.59C202.287 98.95 202.731 99.24 203.223 99.47C203.715 99.7 204.231 99.8101 204.771 99.8101C204.987 99.8101 205.197 99.79 205.401 99.76C205.605 99.71 205.785 99.64 205.941 99.54C206.097 99.45 206.223 99.3301 206.319 99.1801C206.415 99.0301 206.463 98.83 206.463 98.61C206.463 98.38 206.409 98.19 206.301 98.03C206.205 97.87 206.067 97.74 205.887 97.63C205.719 97.53 205.515 97.44 205.275 97.36C205.047 97.29 204.795 97.23 204.519 97.17C204.207 97.09 203.889 97.01 203.565 96.91C203.253 96.81 202.971 96.66 202.719 96.48C202.467 96.29 202.263 96.05 202.107 95.76C201.951 95.47 201.873 95.12 201.873 94.7C201.873 94.26 201.957 93.87 202.125 93.55C202.305 93.21 202.533 92.94 202.809 92.72C203.097 92.49 203.421 92.32 203.781 92.22C204.153 92.11 204.537 92.05 204.933 92.05C205.401 92.05 205.863 92.13 206.319 92.27C206.775 92.4 207.195 92.6 207.579 92.86V94.5C207.195 94.19 206.781 93.93 206.337 93.73C205.893 93.52 205.437 93.42 204.969 93.42C204.789 93.42 204.603 93.44 204.411 93.48C204.219 93.51 204.045 93.58 203.889 93.67C203.745 93.76 203.625 93.87 203.529 94.02C203.433 94.15 203.385 94.32 203.385 94.52C203.385 94.92 203.553 95.22 203.889 95.42C204.225 95.61 204.645 95.77 205.149 95.91C205.557 96 205.935 96.12 206.283 96.25C206.631 96.38 206.931 96.55 207.183 96.75C207.435 96.94 207.633 97.18 207.777 97.47C207.921 97.75 207.993 98.08 207.993 98.48C207.993 98.92 207.903 99.32 207.723 99.67C207.555 100 207.321 100.29 207.021 100.51C206.733 100.74 206.391 100.91 205.995 101.02C205.599 101.14 205.185 101.2 204.753 101.2C204.273 101.2 203.781 101.13 203.277 100.98C202.773 100.84 202.311 100.61 201.891 100.3V98.59ZM209.589 96.63C209.589 95.99 209.697 95.4 209.913 94.84C210.141 94.28 210.459 93.79 210.867 93.39C211.275 92.97 211.755 92.64 212.307 92.41C212.871 92.17 213.489 92.05 214.161 92.05C215.073 92.05 215.901 92.3101 216.645 92.8101V94.38C215.877 93.79 215.073 93.49 214.233 93.49C213.789 93.49 213.375 93.58 212.991 93.75C212.619 93.9 212.295 94.12 212.019 94.41C211.755 94.69 211.545 95.02 211.389 95.4C211.233 95.77 211.155 96.18 211.155 96.63C211.155 97.06 211.233 97.47 211.389 97.85C211.545 98.23 211.755 98.57 212.019 98.86C212.295 99.13 212.619 99.36 212.991 99.52C213.375 99.68 213.789 99.76 214.233 99.76C214.689 99.76 215.127 99.67 215.547 99.51C215.967 99.33 216.351 99.12 216.699 98.89V100.46C216.315 100.7 215.913 100.88 215.493 101C215.073 101.13 214.635 101.2 214.179 101.2C213.495 101.2 212.871 101.08 212.307 100.86C211.743 100.62 211.257 100.29 210.849 99.88C210.453 99.46 210.141 98.9801 209.913 98.4301C209.697 97.8701 209.589 97.27 209.589 96.63ZM223.475 93.6899C223.451 93.6899 223.415 93.69 223.367 93.67C223.331 93.67 223.283 93.67 223.223 93.67C223.163 93.66 223.103 93.66 223.043 93.66C222.227 93.66 221.585 93.95 221.117 94.54C220.661 95.13 220.433 95.89 220.433 96.84V101H218.903V92.25H220.415V93.8C220.511 93.55 220.649 93.32 220.829 93.12C221.021 92.9 221.237 92.72 221.477 92.58C221.717 92.43 221.975 92.32 222.251 92.23C222.527 92.15 222.809 92.11 223.097 92.11C223.157 92.11 223.205 92.11 223.241 92.13C223.289 92.13 223.331 92.13 223.367 92.13C223.415 92.14 223.451 92.14 223.475 92.14V93.6899ZM227.207 89.66C227.207 89.95 227.105 90.19 226.901 90.4C226.697 90.6 226.451 90.7 226.163 90.7C225.875 90.7 225.629 90.6 225.425 90.4C225.221 90.19 225.119 89.95 225.119 89.66C225.119 89.37 225.221 89.13 225.425 88.92C225.629 88.72 225.875 88.62 226.163 88.62C226.451 88.62 226.697 88.72 226.901 88.92C227.105 89.13 227.207 89.37 227.207 89.66ZM226.937 92.25V101H225.389V92.25H226.937ZM229.819 104.74V92.25H231.349V93.64C231.661 93.16 232.093 92.77 232.645 92.49C233.197 92.2 233.797 92.05 234.445 92.05C235.069 92.05 235.645 92.17 236.173 92.41C236.713 92.64 237.181 92.96 237.577 93.37C237.973 93.78 238.279 94.26 238.495 94.83C238.723 95.38 238.837 95.98 238.837 96.63C238.837 97.27 238.723 97.8701 238.495 98.4301C238.279 98.9801 237.973 99.46 237.577 99.88C237.181 100.29 236.713 100.62 236.173 100.86C235.645 101.08 235.069 101.2 234.445 101.2C233.797 101.2 233.197 101.07 232.645 100.8C232.105 100.54 231.673 100.17 231.349 99.6899V104.74H229.819ZM237.271 96.63C237.271 96.18 237.193 95.77 237.037 95.38C236.893 95 236.683 94.67 236.407 94.39C236.143 94.11 235.825 93.88 235.453 93.73C235.093 93.56 234.697 93.48 234.265 93.48C233.833 93.48 233.431 93.56 233.059 93.73C232.699 93.88 232.381 94.11 232.105 94.39C231.841 94.67 231.631 95 231.475 95.38C231.331 95.77 231.259 96.18 231.259 96.63C231.259 97.07 231.331 97.48 231.475 97.87C231.631 98.25 231.841 98.59 232.105 98.88C232.381 99.15 232.699 99.37 233.059 99.54C233.431 99.7 233.833 99.78 234.265 99.78C234.697 99.78 235.093 99.7 235.453 99.54C235.825 99.37 236.143 99.15 236.407 98.88C236.683 98.59 236.893 98.25 237.037 97.87C237.193 97.48 237.271 97.07 237.271 96.63ZM242.747 90.2H242.801V92.25H245.249V93.64H242.801V98.26C242.801 98.78 242.915 99.16 243.143 99.4C243.383 99.64 243.755 99.76 244.259 99.76C244.427 99.76 244.601 99.74 244.781 99.7C244.961 99.66 245.117 99.58 245.249 99.49V100.93C245.093 101.01 244.901 101.08 244.673 101.13C244.457 101.17 244.199 101.2 243.899 101.2C243.071 101.2 242.423 100.96 241.955 100.48C241.487 100 241.253 99.33 241.253 98.48V93.64H239.741V93.4399L242.747 90.2ZM249.215 89.66C249.215 89.95 249.113 90.19 248.909 90.4C248.705 90.6 248.459 90.7 248.171 90.7C247.883 90.7 247.637 90.6 247.433 90.4C247.229 90.19 247.127 89.95 247.127 89.66C247.127 89.37 247.229 89.13 247.433 88.92C247.637 88.72 247.883 88.62 248.171 88.62C248.459 88.62 248.705 88.72 248.909 88.92C249.113 89.13 249.215 89.37 249.215 89.66ZM248.945 92.25V101H247.397V92.25H248.945ZM255.769 92.05C256.429 92.05 257.035 92.17 257.587 92.41C258.151 92.65 258.637 92.98 259.045 93.4C259.453 93.81 259.771 94.29 259.999 94.84C260.227 95.4 260.341 95.99 260.341 96.63C260.341 97.26 260.227 97.86 259.999 98.41C259.771 98.96 259.453 99.45 259.045 99.87C258.637 100.27 258.151 100.6 257.587 100.84C257.035 101.08 256.429 101.2 255.769 101.2C255.109 101.2 254.497 101.08 253.933 100.84C253.381 100.6 252.901 100.27 252.493 99.87C252.085 99.45 251.767 98.96 251.539 98.41C251.311 97.86 251.197 97.26 251.197 96.63C251.197 95.99 251.311 95.4 251.539 94.84C251.767 94.29 252.085 93.81 252.493 93.4C252.901 92.98 253.381 92.65 253.933 92.41C254.497 92.17 255.109 92.05 255.769 92.05ZM255.769 93.48C255.337 93.48 254.935 93.56 254.563 93.73C254.203 93.88 253.885 94.11 253.609 94.39C253.345 94.68 253.135 95.02 252.979 95.4C252.835 95.79 252.763 96.19 252.763 96.63C252.763 97.06 252.835 97.47 252.979 97.85C253.135 98.23 253.345 98.57 253.609 98.86C253.885 99.15 254.203 99.37 254.563 99.54C254.935 99.7 255.337 99.78 255.769 99.78C256.201 99.78 256.597 99.7 256.957 99.54C257.329 99.37 257.647 99.15 257.911 98.86C258.187 98.57 258.397 98.23 258.541 97.85C258.697 97.47 258.775 97.06 258.775 96.63C258.775 96.19 258.697 95.79 258.541 95.4C258.397 95.02 258.187 94.68 257.911 94.39C257.647 94.11 257.329 93.88 256.957 93.73C256.597 93.56 256.201 93.48 255.769 93.48ZM264.133 101H262.585V92.25H264.133V93.51C264.409 93.08 264.775 92.73 265.231 92.47C265.699 92.19 266.263 92.05 266.923 92.05C268.051 92.05 268.921 92.4 269.533 93.1C270.145 93.78 270.451 94.71 270.451 95.87V101H268.903V96.05C268.903 95.26 268.705 94.6301 268.309 94.1801C267.925 93.7201 267.355 93.49 266.599 93.49C265.843 93.49 265.243 93.76 264.799 94.29C264.355 94.81 264.133 95.5301 264.133 96.4301V101ZM272.555 98.59C272.951 98.95 273.395 99.24 273.887 99.47C274.379 99.7 274.895 99.8101 275.435 99.8101C275.651 99.8101 275.861 99.79 276.065 99.76C276.269 99.71 276.449 99.64 276.605 99.54C276.761 99.45 276.887 99.3301 276.983 99.1801C277.079 99.0301 277.127 98.83 277.127 98.61C277.127 98.38 277.073 98.19 276.965 98.03C276.869 97.87 276.731 97.74 276.551 97.63C276.383 97.53 276.179 97.44 275.939 97.36C275.711 97.29 275.459 97.23 275.183 97.17C274.871 97.09 274.553 97.01 274.229 96.91C273.917 96.81 273.635 96.66 273.383 96.48C273.131 96.29 272.927 96.05 272.771 95.76C272.615 95.47 272.537 95.12 272.537 94.7C272.537 94.26 272.621 93.87 272.789 93.55C272.969 93.21 273.197 92.94 273.473 92.72C273.761 92.49 274.085 92.32 274.445 92.22C274.817 92.11 275.201 92.05 275.597 92.05C276.065 92.05 276.527 92.13 276.983 92.27C277.439 92.4 277.859 92.6 278.243 92.86V94.5C277.859 94.19 277.445 93.93 277.001 93.73C276.557 93.52 276.101 93.42 275.633 93.42C275.453 93.42 275.267 93.44 275.075 93.48C274.883 93.51 274.709 93.58 274.553 93.67C274.409 93.76 274.289 93.87 274.193 94.02C274.097 94.15 274.049 94.32 274.049 94.52C274.049 94.92 274.217 95.22 274.553 95.42C274.889 95.61 275.309 95.77 275.813 95.91C276.221 96 276.599 96.12 276.947 96.25C277.295 96.38 277.595 96.55 277.847 96.75C278.099 96.94 278.297 97.18 278.441 97.47C278.585 97.75 278.657 98.08 278.657 98.48C278.657 98.92 278.567 99.32 278.387 99.67C278.219 100 277.985 100.29 277.685 100.51C277.397 100.74 277.055 100.91 276.659 101.02C276.263 101.14 275.849 101.2 275.417 101.2C274.937 101.2 274.445 101.13 273.941 100.98C273.437 100.84 272.975 100.61 272.555 100.3V98.59ZM290.195 95.22C290.195 94.67 290.009 94.2401 289.637 93.9301C289.277 93.6101 288.773 93.46 288.125 93.46C287.525 93.46 286.991 93.57 286.523 93.8C286.067 94.03 285.611 94.35 285.155 94.77V93.15C285.551 92.83 285.989 92.56 286.469 92.36C286.961 92.16 287.525 92.05 288.161 92.05C289.289 92.05 290.159 92.3499 290.771 92.9399C291.395 93.5099 291.707 94.31 291.707 95.33V101H290.249V99.85C289.901 100.29 289.475 100.63 288.971 100.86C288.467 101.08 287.927 101.2 287.351 101.2C286.967 101.2 286.613 101.13 286.289 101C285.965 100.88 285.683 100.71 285.443 100.5C285.215 100.27 285.035 100 284.903 99.7C284.771 99.39 284.705 99.06 284.705 98.7C284.705 97.14 285.677 96.19 287.621 95.87L290.195 95.4399V95.22ZM286.253 98.61C286.253 98.98 286.379 99.28 286.631 99.51C286.895 99.72 287.231 99.83 287.639 99.83C288.011 99.83 288.353 99.78 288.665 99.67C288.989 99.55 289.265 99.3901 289.493 99.1801C289.721 98.9701 289.895 98.7199 290.015 98.4399C290.147 98.1599 290.213 97.84 290.213 97.51V96.77L287.873 97.1801C287.345 97.2801 286.943 97.4499 286.667 97.6899C286.391 97.9199 286.253 98.22 286.253 98.61ZM295.984 101H294.436V92.25H295.984V93.51C296.26 93.08 296.626 92.73 297.082 92.47C297.55 92.19 298.114 92.05 298.774 92.05C299.902 92.05 300.772 92.4 301.384 93.1C301.996 93.78 302.302 94.71 302.302 95.87V101H300.754V96.05C300.754 95.26 300.556 94.6301 300.16 94.1801C299.776 93.7201 299.206 93.49 298.45 93.49C297.694 93.49 297.094 93.76 296.65 94.29C296.206 94.81 295.984 95.5301 295.984 96.4301V101ZM313.441 88.4V101H311.911V99.61C311.599 100.09 311.167 100.48 310.615 100.77C310.063 101.05 309.463 101.2 308.815 101.2C308.191 101.2 307.609 101.08 307.069 100.86C306.541 100.62 306.079 100.29 305.683 99.88C305.287 99.48 304.975 98.9999 304.747 98.4399C304.531 97.8799 304.423 97.27 304.423 96.63C304.423 95.98 304.531 95.38 304.747 94.83C304.975 94.27 305.287 93.79 305.683 93.39C306.079 92.97 306.541 92.64 307.069 92.41C307.609 92.17 308.191 92.05 308.815 92.05C309.463 92.05 310.057 92.19 310.597 92.45C311.149 92.71 311.587 93.0899 311.911 93.5699V88.4H313.441ZM312.001 96.63C312.001 96.18 311.923 95.77 311.767 95.38C311.623 95 311.413 94.67 311.137 94.39C310.873 94.11 310.555 93.88 310.183 93.73C309.823 93.56 309.427 93.48 308.995 93.48C308.563 93.48 308.161 93.56 307.789 93.73C307.429 93.88 307.111 94.11 306.835 94.39C306.571 94.67 306.361 95 306.205 95.38C306.061 95.77 305.989 96.18 305.989 96.63C305.989 97.07 306.061 97.48 306.205 97.87C306.361 98.25 306.571 98.59 306.835 98.88C307.111 99.15 307.429 99.37 307.789 99.54C308.161 99.7 308.563 99.78 308.995 99.78C309.427 99.78 309.823 99.7 310.183 99.54C310.555 99.37 310.873 99.15 311.137 98.88C311.413 98.59 311.623 98.25 311.767 97.87C311.923 97.48 312.001 97.07 312.001 96.63ZM325.305 93.6899C325.281 93.6899 325.245 93.69 325.197 93.67C325.161 93.67 325.113 93.67 325.053 93.67C324.993 93.66 324.933 93.66 324.873 93.66C324.057 93.66 323.415 93.95 322.947 94.54C322.491 95.13 322.263 95.89 322.263 96.84V101H320.733V92.25H322.245V93.8C322.341 93.55 322.479 93.32 322.659 93.12C322.851 92.9 323.067 92.72 323.307 92.58C323.547 92.43 323.805 92.32 324.081 92.23C324.357 92.15 324.639 92.11 324.927 92.11C324.987 92.11 325.035 92.11 325.071 92.13C325.119 92.13 325.161 92.13 325.197 92.13C325.245 92.14 325.281 92.14 325.305 92.14V93.6899ZM334.212 100.08C333.72 100.43 333.186 100.71 332.61 100.91C332.034 101.1 331.44 101.2 330.828 101.2C330.132 101.2 329.502 101.08 328.938 100.86C328.374 100.62 327.888 100.29 327.48 99.88C327.084 99.46 326.778 98.9801 326.562 98.4301C326.346 97.8701 326.238 97.27 326.238 96.63C326.238 95.98 326.346 95.38 326.562 94.83C326.778 94.26 327.072 93.78 327.444 93.37C327.828 92.96 328.284 92.64 328.812 92.41C329.34 92.17 329.922 92.05 330.558 92.05C331.17 92.05 331.728 92.17 332.232 92.41C332.736 92.64 333.168 92.96 333.528 93.37C333.9 93.78 334.182 94.2601 334.374 94.8101C334.578 95.3501 334.68 95.93 334.68 96.55C334.68 96.65 334.674 96.7301 334.662 96.8101C334.662 96.8701 334.662 96.92 334.662 96.97C334.65 97.02 334.644 97.06 334.644 97.11H327.786C327.822 97.47 327.918 97.82 328.074 98.16C328.242 98.48 328.458 98.76 328.722 99C328.998 99.24 329.322 99.43 329.694 99.58C330.066 99.72 330.48 99.79 330.936 99.79C332.052 99.79 333.144 99.33 334.212 98.41V100.08ZM333.114 95.83C333.078 95.49 332.988 95.17 332.844 94.88C332.712 94.58 332.532 94.32 332.304 94.11C332.088 93.89 331.824 93.72 331.512 93.6C331.212 93.47 330.882 93.4 330.522 93.4C330.162 93.4 329.82 93.48 329.496 93.62C329.184 93.76 328.908 93.9501 328.668 94.1801C328.428 94.4101 328.23 94.66 328.074 94.95C327.93 95.24 327.846 95.53 327.822 95.83H333.114ZM339.197 101L335.543 92.25H337.199L339.845 98.88L342.491 92.25H344.111L340.457 101H339.197ZM347.688 89.66C347.688 89.95 347.586 90.19 347.382 90.4C347.178 90.6 346.932 90.7 346.644 90.7C346.356 90.7 346.11 90.6 345.906 90.4C345.702 90.19 345.6 89.95 345.6 89.66C345.6 89.37 345.702 89.13 345.906 88.92C346.11 88.72 346.356 88.62 346.644 88.62C346.932 88.62 347.178 88.72 347.382 88.92C347.586 89.13 347.688 89.37 347.688 89.66ZM347.418 92.25V101H345.87V92.25H347.418ZM357.643 100.08C357.151 100.43 356.617 100.71 356.041 100.91C355.465 101.1 354.871 101.2 354.259 101.2C353.563 101.2 352.933 101.08 352.369 100.86C351.805 100.62 351.319 100.29 350.911 99.88C350.515 99.46 350.209 98.9801 349.993 98.4301C349.777 97.8701 349.669 97.27 349.669 96.63C349.669 95.98 349.777 95.38 349.993 94.83C350.209 94.26 350.503 93.78 350.875 93.37C351.259 92.96 351.715 92.64 352.243 92.41C352.771 92.17 353.353 92.05 353.989 92.05C354.601 92.05 355.159 92.17 355.663 92.41C356.167 92.64 356.599 92.96 356.959 93.37C357.331 93.78 357.613 94.2601 357.805 94.8101C358.009 95.3501 358.111 95.93 358.111 96.55C358.111 96.65 358.105 96.7301 358.093 96.8101C358.093 96.8701 358.093 96.92 358.093 96.97C358.081 97.02 358.075 97.06 358.075 97.11H351.217C351.253 97.47 351.349 97.82 351.505 98.16C351.673 98.48 351.889 98.76 352.153 99C352.429 99.24 352.753 99.43 353.125 99.58C353.497 99.72 353.911 99.79 354.367 99.79C355.483 99.79 356.575 99.33 357.643 98.41V100.08ZM356.545 95.83C356.509 95.49 356.419 95.17 356.275 94.88C356.143 94.58 355.963 94.32 355.735 94.11C355.519 93.89 355.255 93.72 354.943 93.6C354.643 93.47 354.313 93.4 353.953 93.4C353.593 93.4 353.251 93.48 352.927 93.62C352.615 93.76 352.339 93.9501 352.099 94.1801C351.859 94.4101 351.661 94.66 351.505 94.95C351.361 95.24 351.277 95.53 351.253 95.83H356.545ZM368.206 101L365.902 94.52L363.598 101H362.41L359.152 92.25H360.754L363.04 98.8L365.362 92.25H366.478L368.8 98.8L371.086 92.25H372.652L369.394 101H368.206ZM373.805 98.59C374.201 98.95 374.645 99.24 375.137 99.47C375.629 99.7 376.145 99.8101 376.685 99.8101C376.901 99.8101 377.111 99.79 377.315 99.76C377.519 99.71 377.699 99.64 377.855 99.54C378.011 99.45 378.137 99.3301 378.233 99.1801C378.329 99.0301 378.377 98.83 378.377 98.61C378.377 98.38 378.323 98.19 378.215 98.03C378.119 97.87 377.981 97.74 377.801 97.63C377.633 97.53 377.429 97.44 377.189 97.36C376.961 97.29 376.709 97.23 376.433 97.17C376.121 97.09 375.803 97.01 375.479 96.91C375.167 96.81 374.885 96.66 374.633 96.48C374.381 96.29 374.177 96.05 374.021 95.76C373.865 95.47 373.787 95.12 373.787 94.7C373.787 94.26 373.871 93.87 374.039 93.55C374.219 93.21 374.447 92.94 374.723 92.72C375.011 92.49 375.335 92.32 375.695 92.22C376.067 92.11 376.451 92.05 376.847 92.05C377.315 92.05 377.777 92.13 378.233 92.27C378.689 92.4 379.109 92.6 379.493 92.86V94.5C379.109 94.19 378.695 93.93 378.251 93.73C377.807 93.52 377.351 93.42 376.883 93.42C376.703 93.42 376.517 93.44 376.325 93.48C376.133 93.51 375.959 93.58 375.803 93.67C375.659 93.76 375.539 93.87 375.443 94.02C375.347 94.15 375.299 94.32 375.299 94.52C375.299 94.92 375.467 95.22 375.803 95.42C376.139 95.61 376.559 95.77 377.063 95.91C377.471 96 377.849 96.12 378.197 96.25C378.545 96.38 378.845 96.55 379.097 96.75C379.349 96.94 379.547 97.18 379.691 97.47C379.835 97.75 379.907 98.08 379.907 98.48C379.907 98.92 379.817 99.32 379.637 99.67C379.469 100 379.235 100.29 378.935 100.51C378.647 100.74 378.305 100.91 377.909 101.02C377.513 101.14 377.099 101.2 376.667 101.2C376.187 101.2 375.695 101.13 375.191 100.98C374.687 100.84 374.225 100.61 373.805 100.3V98.59Z" fill="#D9D9E0"/>
<path opacity="0.08" d="M28 124H428" stroke="white"/>
<path d="M62.62 146.4H64.222V151.71H70.99V146.4H72.592V159H70.99V153.22H64.222V159H62.62V146.4ZM77.4768 147.66C77.4768 147.95 77.3748 148.19 77.1708 148.4C76.9668 148.6 76.7208 148.7 76.4328 148.7C76.1448 148.7 75.8988 148.6 75.6948 148.4C75.4908 148.19 75.3888 147.95 75.3888 147.66C75.3888 147.37 75.4908 147.13 75.6948 146.92C75.8988 146.72 76.1448 146.62 76.4328 146.62C76.7208 146.62 76.9668 146.72 77.1708 146.92C77.3748 147.13 77.4768 147.37 77.4768 147.66ZM77.2068 150.25V159H75.6588V150.25H77.2068ZM79.7464 153.28C79.7464 152.8 79.8364 152.36 80.0164 151.96C80.1964 151.57 80.4424 151.23 80.7544 150.95C81.0664 150.67 81.4264 150.44 81.8344 150.29C82.2424 150.13 82.6744 150.05 83.1304 150.05C83.5264 150.05 83.9224 150.12 84.318 150.25H87.324V151.58H86.028C86.184 151.82 86.304 152.09 86.388 152.38C86.472 152.66 86.514 152.96 86.514 153.28C86.514 153.76 86.424 154.19 86.244 154.59C86.064 154.99 85.818 155.32 85.506 155.6C85.194 155.87 84.834 156.09 84.426 156.25C84.018 156.4 83.5864 156.48 83.1304 156.48C82.6024 156.48 82.0984 156.38 81.6184 156.17C81.3184 156.27 81.1144 156.4 81.0064 156.55C80.8984 156.7 80.8444 156.85 80.8444 157.02C80.8444 157.28 80.9524 157.47 81.1684 157.58C81.3844 157.69 81.6664 157.74 82.0144 157.74H84.444C85.38 157.74 86.124 157.93 86.676 158.32C87.228 158.7 87.504 159.25 87.504 159.97C87.504 160.48 87.378 160.91 87.126 161.29C86.874 161.67 86.538 161.98 86.118 162.22C85.71 162.47 85.23 162.66 84.678 162.78C84.138 162.9 83.5744 162.96 82.9864 162.96C82.4224 162.96 81.9004 162.91 81.4204 162.82C80.9524 162.72 80.5444 162.57 80.1964 162.37C79.8484 162.17 79.5724 161.92 79.3684 161.61C79.1764 161.3 79.0804 160.93 79.0804 160.49C79.0804 160.07 79.1944 159.7 79.4224 159.38C79.6624 159.07 79.9204 158.82 80.1964 158.64C79.9564 158.47 79.7764 158.27 79.6564 158.03C79.5484 157.78 79.4944 157.51 79.4944 157.24C79.4944 157 79.5244 156.79 79.5844 156.61C79.6564 156.41 79.7464 156.25 79.8544 156.12C79.9624 155.98 80.0824 155.86 80.2144 155.76C80.3464 155.65 80.4784 155.56 80.6104 155.47C80.3344 155.2 80.1184 154.88 79.9624 154.52C79.8184 154.15 79.7464 153.73 79.7464 153.28ZM86.064 160.12C86.064 159.73 85.896 159.47 85.56 159.32C85.236 159.18 84.744 159.11 84.084 159.11H81.9244C81.8164 159.11 81.7144 159.1 81.6184 159.09C81.5344 159.09 81.4444 159.08 81.3484 159.07C80.7844 159.37 80.5024 159.79 80.5024 160.31C80.5024 160.57 80.5684 160.78 80.7004 160.96C80.8324 161.14 81.0124 161.29 81.2404 161.39C81.4684 161.51 81.7324 161.6 82.0324 161.65C82.3444 161.71 82.6744 161.74 83.0224 161.74C83.4664 161.74 83.8744 161.7 84.246 161.63C84.618 161.56 84.936 161.45 85.2 161.3C85.476 161.17 85.686 161 85.83 160.8C85.986 160.61 86.064 160.38 86.064 160.12ZM81.1684 153.28C81.1684 153.85 81.3544 154.32 81.7264 154.68C82.1104 155.03 82.5784 155.2 83.1304 155.2C83.6824 155.2 84.144 155.03 84.516 154.68C84.9 154.32 85.092 153.85 85.092 153.28C85.092 152.71 84.9 152.25 84.516 151.89C84.144 151.53 83.6824 151.35 83.1304 151.35C82.5784 151.35 82.1104 151.53 81.7264 151.89C81.3544 152.25 81.1684 152.71 81.1684 153.28ZM90.812 159H89.264V146.4H90.812V151.51C91.088 151.08 91.454 150.73 91.91 150.47C92.378 150.19 92.942 150.05 93.602 150.05C94.73 150.05 95.6 150.4 96.212 151.1C96.824 151.78 97.13 152.71 97.13 153.87V159H95.582V154.05C95.582 153.26 95.384 152.63 94.988 152.18C94.604 151.72 94.034 151.49 93.278 151.49C92.522 151.49 91.922 151.76 91.478 152.29C91.034 152.81 90.812 153.53 90.812 154.43V159ZM101.429 146.4V159H99.881V146.4H101.429ZM106.129 147.66C106.129 147.95 106.027 148.19 105.823 148.4C105.619 148.6 105.373 148.7 105.085 148.7C104.797 148.7 104.551 148.6 104.347 148.4C104.143 148.19 104.041 147.95 104.041 147.66C104.041 147.37 104.143 147.13 104.347 146.92C104.551 146.72 104.797 146.62 105.085 146.62C105.373 146.62 105.619 146.72 105.823 146.92C106.027 147.13 106.129 147.37 106.129 147.66ZM105.859 150.25V159H104.311V150.25H105.859ZM108.399 153.28C108.399 152.8 108.489 152.36 108.669 151.96C108.849 151.57 109.095 151.23 109.407 150.95C109.719 150.67 110.079 150.44 110.487 150.29C110.895 150.13 111.327 150.05 111.783 150.05C112.179 150.05 112.575 150.12 112.971 150.25H115.977V151.58H114.681C114.837 151.82 114.957 152.09 115.041 152.38C115.125 152.66 115.167 152.96 115.167 153.28C115.167 153.76 115.077 154.19 114.897 154.59C114.717 154.99 114.471 155.32 114.159 155.6C113.847 155.87 113.487 156.09 113.079 156.25C112.671 156.4 112.239 156.48 111.783 156.48C111.255 156.48 110.751 156.38 110.271 156.17C109.971 156.27 109.767 156.4 109.659 156.55C109.551 156.7 109.497 156.85 109.497 157.02C109.497 157.28 109.605 157.47 109.821 157.58C110.037 157.69 110.319 157.74 110.667 157.74H113.097C114.033 157.74 114.777 157.93 115.329 158.32C115.881 158.7 116.157 159.25 116.157 159.97C116.157 160.48 116.031 160.91 115.779 161.29C115.527 161.67 115.191 161.98 114.771 162.22C114.363 162.47 113.883 162.66 113.331 162.78C112.791 162.9 112.227 162.96 111.639 162.96C111.075 162.96 110.553 162.91 110.073 162.82C109.605 162.72 109.197 162.57 108.849 162.37C108.501 162.17 108.225 161.92 108.021 161.61C107.829 161.3 107.733 160.93 107.733 160.49C107.733 160.07 107.847 159.7 108.075 159.38C108.315 159.07 108.573 158.82 108.849 158.64C108.609 158.47 108.429 158.27 108.309 158.03C108.201 157.78 108.147 157.51 108.147 157.24C108.147 157 108.177 156.79 108.237 156.61C108.309 156.41 108.399 156.25 108.507 156.12C108.615 155.98 108.735 155.86 108.867 155.76C108.999 155.65 109.131 155.56 109.263 155.47C108.987 155.2 108.771 154.88 108.615 154.52C108.471 154.15 108.399 153.73 108.399 153.28ZM114.717 160.12C114.717 159.73 114.549 159.47 114.213 159.32C113.889 159.18 113.397 159.11 112.737 159.11H110.577C110.469 159.11 110.367 159.1 110.271 159.09C110.187 159.09 110.097 159.08 110.001 159.07C109.437 159.37 109.155 159.79 109.155 160.31C109.155 160.57 109.221 160.78 109.353 160.96C109.485 161.14 109.665 161.29 109.893 161.39C110.121 161.51 110.385 161.6 110.685 161.65C110.997 161.71 111.327 161.74 111.675 161.74C112.119 161.74 112.527 161.7 112.899 161.63C113.271 161.56 113.589 161.45 113.853 161.3C114.129 161.17 114.339 161 114.483 160.8C114.639 160.61 114.717 160.38 114.717 160.12ZM109.821 153.28C109.821 153.85 110.007 154.32 110.379 154.68C110.763 155.03 111.231 155.2 111.783 155.2C112.335 155.2 112.797 155.03 113.169 154.68C113.553 154.32 113.745 153.85 113.745 153.28C113.745 152.71 113.553 152.25 113.169 151.89C112.797 151.53 112.335 151.35 111.783 151.35C111.231 151.35 110.763 151.53 110.379 151.89C110.007 152.25 109.821 152.71 109.821 153.28ZM119.465 159H117.917V146.4H119.465V151.51C119.741 151.08 120.107 150.73 120.563 150.47C121.031 150.19 121.595 150.05 122.255 150.05C123.383 150.05 124.253 150.4 124.865 151.1C125.477 151.78 125.783 152.71 125.783 153.87V159H124.235V154.05C124.235 153.26 124.037 152.63 123.641 152.18C123.257 151.72 122.687 151.49 121.931 151.49C121.175 151.49 120.575 151.76 120.131 152.29C119.687 152.81 119.465 153.53 119.465 154.43V159ZM130.282 148.2H130.336V150.25H132.784V151.64H130.336V156.26C130.336 156.78 130.45 157.16 130.678 157.4C130.918 157.64 131.29 157.76 131.794 157.76C131.962 157.76 132.136 157.74 132.316 157.7C132.496 157.66 132.652 157.58 132.784 157.49V158.93C132.628 159.01 132.436 159.08 132.208 159.13C131.992 159.17 131.734 159.2 131.434 159.2C130.606 159.2 129.958 158.96 129.49 158.48C129.022 158 128.788 157.33 128.788 156.48V151.64H127.276V151.44L130.282 148.2ZM141.074 147.66C141.074 147.95 140.972 148.19 140.768 148.4C140.564 148.6 140.318 148.7 140.03 148.7C139.742 148.7 139.496 148.6 139.292 148.4C139.088 148.19 138.986 147.95 138.986 147.66C138.986 147.37 139.088 147.13 139.292 146.92C139.496 146.72 139.742 146.62 140.03 146.62C140.318 146.62 140.564 146.72 140.768 146.92C140.972 147.13 141.074 147.37 141.074 147.66ZM140.804 150.25V159H139.256V150.25H140.804ZM143.092 156.59C143.488 156.95 143.932 157.24 144.424 157.47C144.916 157.7 145.432 157.81 145.972 157.81C146.188 157.81 146.398 157.79 146.602 157.76C146.806 157.71 146.986 157.64 147.142 157.54C147.298 157.45 147.424 157.33 147.52 157.18C147.616 157.03 147.664 156.83 147.664 156.61C147.664 156.38 147.61 156.19 147.502 156.03C147.406 155.87 147.268 155.74 147.088 155.63C146.92 155.53 146.716 155.44 146.476 155.36C146.248 155.29 145.996 155.23 145.72 155.17C145.408 155.09 145.09 155.01 144.766 154.91C144.454 154.81 144.172 154.66 143.92 154.48C143.668 154.29 143.464 154.05 143.308 153.76C143.152 153.47 143.074 153.12 143.074 152.7C143.074 152.26 143.158 151.87 143.326 151.55C143.506 151.21 143.734 150.94 144.01 150.72C144.298 150.49 144.622 150.32 144.982 150.22C145.354 150.11 145.738 150.05 146.134 150.05C146.602 150.05 147.064 150.13 147.52 150.27C147.976 150.4 148.396 150.6 148.78 150.86V152.5C148.396 152.19 147.982 151.93 147.538 151.73C147.094 151.52 146.638 151.42 146.17 151.42C145.99 151.42 145.804 151.44 145.612 151.48C145.42 151.51 145.246 151.58 145.09 151.67C144.946 151.76 144.826 151.87 144.73 152.02C144.634 152.15 144.586 152.32 144.586 152.52C144.586 152.92 144.754 153.22 145.09 153.42C145.426 153.61 145.846 153.77 146.35 153.91C146.758 154 147.136 154.12 147.484 154.25C147.832 154.38 148.132 154.55 148.384 154.75C148.636 154.94 148.834 155.18 148.978 155.47C149.122 155.75 149.194 156.08 149.194 156.48C149.194 156.92 149.104 157.32 148.924 157.67C148.756 158 148.522 158.29 148.222 158.51C147.934 158.74 147.592 158.91 147.196 159.02C146.8 159.14 146.386 159.2 145.954 159.2C145.474 159.2 144.982 159.13 144.478 158.98C143.974 158.84 143.512 158.61 143.092 158.3V156.59ZM150.774 156.59C151.17 156.95 151.614 157.24 152.106 157.47C152.598 157.7 153.114 157.81 153.654 157.81C153.87 157.81 154.08 157.79 154.284 157.76C154.488 157.71 154.668 157.64 154.824 157.54C154.98 157.45 155.106 157.33 155.202 157.18C155.298 157.03 155.346 156.83 155.346 156.61C155.346 156.38 155.292 156.19 155.184 156.03C155.088 155.87 154.95 155.74 154.77 155.63C154.602 155.53 154.398 155.44 154.158 155.36C153.93 155.29 153.678 155.23 153.402 155.17C153.09 155.09 152.772 155.01 152.448 154.91C152.136 154.81 151.854 154.66 151.602 154.48C151.35 154.29 151.146 154.05 150.99 153.76C150.834 153.47 150.756 153.12 150.756 152.7C150.756 152.26 150.84 151.87 151.008 151.55C151.188 151.21 151.416 150.94 151.692 150.72C151.98 150.49 152.304 150.32 152.664 150.22C153.036 150.11 153.42 150.05 153.816 150.05C154.284 150.05 154.746 150.13 155.202 150.27C155.658 150.4 156.078 150.6 156.462 150.86V152.5C156.078 152.19 155.664 151.93 155.22 151.73C154.776 151.52 154.32 151.42 153.852 151.42C153.672 151.42 153.486 151.44 153.294 151.48C153.102 151.51 152.928 151.58 152.772 151.67C152.628 151.76 152.508 151.87 152.412 152.02C152.316 152.15 152.268 152.32 152.268 152.52C152.268 152.92 152.436 153.22 152.772 153.42C153.108 153.61 153.528 153.77 154.032 153.91C154.44 154 154.818 154.12 155.166 154.25C155.514 154.38 155.814 154.55 156.066 154.75C156.318 154.94 156.516 155.18 156.66 155.47C156.804 155.75 156.876 156.08 156.876 156.48C156.876 156.92 156.786 157.32 156.606 157.67C156.438 158 156.204 158.29 155.904 158.51C155.616 158.74 155.274 158.91 154.878 159.02C154.482 159.14 154.068 159.2 153.636 159.2C153.156 159.2 152.664 159.13 152.16 158.98C151.656 158.84 151.194 158.61 150.774 158.3V156.59ZM165.099 150.25H166.647V159H165.099V157.74C164.823 158.17 164.457 158.53 164.001 158.8C163.545 159.07 162.987 159.2 162.327 159.2C161.211 159.2 160.347 158.86 159.735 158.17C159.135 157.48 158.835 156.55 158.835 155.38V150.25H160.383V155.2C160.383 155.99 160.575 156.62 160.959 157.07C161.343 157.53 161.907 157.76 162.651 157.76C163.395 157.76 163.989 157.49 164.433 156.97C164.877 156.44 165.099 155.72 165.099 154.82V150.25ZM176.87 158.08C176.378 158.43 175.844 158.71 175.268 158.91C174.692 159.1 174.098 159.2 173.486 159.2C172.79 159.2 172.16 159.08 171.596 158.86C171.032 158.62 170.546 158.29 170.138 157.88C169.742 157.46 169.436 156.98 169.22 156.43C169.004 155.87 168.896 155.27 168.896 154.63C168.896 153.98 169.004 153.38 169.22 152.83C169.436 152.26 169.73 151.78 170.102 151.37C170.486 150.96 170.942 150.64 171.47 150.41C171.998 150.17 172.58 150.05 173.216 150.05C173.828 150.05 174.386 150.17 174.89 150.41C175.394 150.64 175.826 150.96 176.186 151.37C176.558 151.78 176.84 152.26 177.032 152.81C177.236 153.35 177.338 153.93 177.338 154.55C177.338 154.65 177.332 154.73 177.32 154.81C177.32 154.87 177.32 154.92 177.32 154.97C177.308 155.02 177.302 155.06 177.302 155.11H170.444C170.48 155.47 170.576 155.82 170.732 156.16C170.9 156.48 171.116 156.76 171.38 157C171.656 157.24 171.98 157.43 172.352 157.58C172.724 157.72 173.138 157.79 173.594 157.79C174.71 157.79 175.802 157.33 176.87 156.41V158.08ZM175.772 153.83C175.736 153.49 175.646 153.17 175.502 152.88C175.37 152.58 175.19 152.32 174.962 152.11C174.746 151.89 174.482 151.72 174.17 151.6C173.87 151.47 173.54 151.4 173.18 151.4C172.82 151.4 172.478 151.48 172.154 151.62C171.842 151.76 171.566 151.95 171.326 152.18C171.086 152.41 170.888 152.66 170.732 152.95C170.588 153.24 170.504 153.53 170.48 153.83H175.772ZM178.987 156.59C179.383 156.95 179.827 157.24 180.319 157.47C180.811 157.7 181.327 157.81 181.867 157.81C182.083 157.81 182.293 157.79 182.497 157.76C182.701 157.71 182.881 157.64 183.037 157.54C183.193 157.45 183.319 157.33 183.415 157.18C183.511 157.03 183.559 156.83 183.559 156.61C183.559 156.38 183.505 156.19 183.397 156.03C183.301 155.87 183.163 155.74 182.983 155.63C182.815 155.53 182.611 155.44 182.371 155.36C182.143 155.29 181.891 155.23 181.615 155.17C181.303 155.09 180.985 155.01 180.661 154.91C180.349 154.81 180.067 154.66 179.815 154.48C179.563 154.29 179.359 154.05 179.203 153.76C179.047 153.47 178.969 153.12 178.969 152.7C178.969 152.26 179.053 151.87 179.221 151.55C179.401 151.21 179.629 150.94 179.905 150.72C180.193 150.49 180.517 150.32 180.877 150.22C181.249 150.11 181.633 150.05 182.029 150.05C182.497 150.05 182.959 150.13 183.415 150.27C183.871 150.4 184.291 150.6 184.675 150.86V152.5C184.291 152.19 183.877 151.93 183.433 151.73C182.989 151.52 182.533 151.42 182.065 151.42C181.885 151.42 181.699 151.44 181.507 151.48C181.315 151.51 181.141 151.58 180.985 151.67C180.841 151.76 180.721 151.87 180.625 152.02C180.529 152.15 180.481 152.32 180.481 152.52C180.481 152.92 180.649 153.22 180.985 153.42C181.321 153.61 181.741 153.77 182.245 153.91C182.653 154 183.031 154.12 183.379 154.25C183.727 154.38 184.027 154.55 184.279 154.75C184.531 154.94 184.729 155.18 184.873 155.47C185.017 155.75 185.089 156.08 185.089 156.48C185.089 156.92 184.999 157.32 184.819 157.67C184.651 158 184.417 158.29 184.117 158.51C183.829 158.74 183.487 158.91 183.091 159.02C182.695 159.14 182.281 159.2 181.849 159.2C181.369 159.2 180.877 159.13 180.373 158.98C179.869 158.84 179.407 158.61 178.987 158.3V156.59ZM196.626 153.22C196.626 152.67 196.44 152.24 196.068 151.93C195.708 151.61 195.204 151.46 194.556 151.46C193.956 151.46 193.422 151.57 192.954 151.8C192.498 152.03 192.042 152.35 191.586 152.77V151.15C191.982 150.83 192.42 150.56 192.9 150.36C193.392 150.16 193.956 150.05 194.592 150.05C195.72 150.05 196.59 150.35 197.202 150.94C197.826 151.51 198.138 152.31 198.138 153.33V159H196.68V157.85C196.332 158.29 195.906 158.63 195.402 158.86C194.898 159.08 194.358 159.2 193.782 159.2C193.398 159.2 193.044 159.13 192.72 159C192.396 158.88 192.114 158.71 191.874 158.5C191.646 158.27 191.466 158 191.334 157.7C191.202 157.39 191.136 157.06 191.136 156.7C191.136 155.14 192.108 154.19 194.052 153.87L196.626 153.44V153.22ZM192.684 156.61C192.684 156.98 192.81 157.28 193.062 157.51C193.326 157.72 193.662 157.83 194.07 157.83C194.442 157.83 194.784 157.78 195.096 157.67C195.42 157.55 195.696 157.39 195.924 157.18C196.152 156.97 196.326 156.72 196.446 156.44C196.578 156.16 196.644 155.84 196.644 155.51V154.77L194.304 155.18C193.776 155.28 193.374 155.45 193.098 155.69C192.822 155.92 192.684 156.22 192.684 156.61ZM202.416 159H200.868V150.25H202.416V151.51C202.692 151.08 203.058 150.73 203.514 150.47C203.982 150.19 204.546 150.05 205.206 150.05C206.334 150.05 207.204 150.4 207.816 151.1C208.428 151.78 208.734 152.71 208.734 153.87V159H207.186V154.05C207.186 153.26 206.988 152.63 206.592 152.18C206.208 151.72 205.638 151.49 204.882 151.49C204.126 151.49 203.526 151.76 203.082 152.29C202.638 152.81 202.416 153.53 202.416 154.43V159ZM219.873 146.4V159H218.343V157.61C218.031 158.09 217.599 158.48 217.047 158.77C216.495 159.05 215.895 159.2 215.247 159.2C214.623 159.2 214.041 159.08 213.501 158.86C212.973 158.62 212.511 158.29 212.115 157.88C211.719 157.48 211.407 157 211.179 156.44C210.963 155.88 210.855 155.27 210.855 154.63C210.855 153.98 210.963 153.38 211.179 152.83C211.407 152.27 211.719 151.79 212.115 151.39C212.511 150.97 212.973 150.64 213.501 150.41C214.041 150.17 214.623 150.05 215.247 150.05C215.895 150.05 216.489 150.19 217.029 150.45C217.581 150.71 218.019 151.09 218.343 151.57V146.4H219.873ZM218.433 154.63C218.433 154.18 218.355 153.77 218.199 153.38C218.055 153 217.845 152.67 217.569 152.39C217.305 152.11 216.987 151.88 216.615 151.73C216.255 151.56 215.859 151.48 215.427 151.48C214.995 151.48 214.593 151.56 214.221 151.73C213.861 151.88 213.543 152.11 213.267 152.39C213.003 152.67 212.793 153 212.637 153.38C212.493 153.77 212.421 154.18 212.421 154.63C212.421 155.07 212.493 155.48 212.637 155.87C212.793 156.25 213.003 156.59 213.267 156.88C213.543 157.15 213.861 157.37 214.221 157.54C214.593 157.7 214.995 157.78 215.427 157.78C215.859 157.78 216.255 157.7 216.615 157.54C216.987 157.37 217.305 157.15 217.569 156.88C217.845 156.59 218.055 156.25 218.199 155.87C218.355 155.48 218.433 155.07 218.433 154.63ZM226.823 153.28C226.823 152.8 226.913 152.36 227.093 151.96C227.273 151.57 227.519 151.23 227.831 150.95C228.143 150.67 228.503 150.44 228.911 150.29C229.319 150.13 229.751 150.05 230.207 150.05C230.603 150.05 230.999 150.12 231.395 150.25H234.401V151.58H233.105C233.261 151.82 233.381 152.09 233.465 152.38C233.549 152.66 233.591 152.96 233.591 153.28C233.591 153.76 233.501 154.19 233.321 154.59C233.141 154.99 232.895 155.32 232.583 155.6C232.271 155.87 231.911 156.09 231.503 156.25C231.095 156.4 230.663 156.48 230.207 156.48C229.679 156.48 229.175 156.38 228.695 156.17C228.395 156.27 228.191 156.4 228.083 156.55C227.975 156.7 227.921 156.85 227.921 157.02C227.921 157.28 228.029 157.47 228.245 157.58C228.461 157.69 228.743 157.74 229.091 157.74H231.521C232.457 157.74 233.201 157.93 233.753 158.32C234.305 158.7 234.581 159.25 234.581 159.97C234.581 160.48 234.455 160.91 234.203 161.29C233.951 161.67 233.615 161.98 233.195 162.22C232.787 162.47 232.307 162.66 231.755 162.78C231.215 162.9 230.651 162.96 230.063 162.96C229.499 162.96 228.977 162.91 228.497 162.82C228.029 162.72 227.621 162.57 227.273 162.37C226.925 162.17 226.649 161.92 226.445 161.61C226.253 161.3 226.157 160.93 226.157 160.49C226.157 160.07 226.271 159.7 226.499 159.38C226.739 159.07 226.997 158.82 227.273 158.64C227.033 158.47 226.853 158.27 226.733 158.03C226.625 157.78 226.571 157.51 226.571 157.24C226.571 157 226.601 156.79 226.661 156.61C226.733 156.41 226.823 156.25 226.931 156.12C227.039 155.98 227.159 155.86 227.291 155.76C227.423 155.65 227.555 155.56 227.687 155.47C227.411 155.2 227.195 154.88 227.039 154.52C226.895 154.15 226.823 153.73 226.823 153.28ZM233.141 160.12C233.141 159.73 232.973 159.47 232.637 159.32C232.313 159.18 231.821 159.11 231.161 159.11H229.001C228.893 159.11 228.791 159.1 228.695 159.09C228.611 159.09 228.521 159.08 228.425 159.07C227.861 159.37 227.579 159.79 227.579 160.31C227.579 160.57 227.645 160.78 227.777 160.96C227.909 161.14 228.089 161.29 228.317 161.39C228.545 161.51 228.809 161.6 229.109 161.65C229.421 161.71 229.751 161.74 230.099 161.74C230.543 161.74 230.951 161.7 231.323 161.63C231.695 161.56 232.013 161.45 232.277 161.3C232.553 161.17 232.763 161 232.907 160.8C233.063 160.61 233.141 160.38 233.141 160.12ZM228.245 153.28C228.245 153.85 228.431 154.32 228.803 154.68C229.187 155.03 229.655 155.2 230.207 155.2C230.759 155.2 231.221 155.03 231.593 154.68C231.977 154.32 232.169 153.85 232.169 153.28C232.169 152.71 231.977 152.25 231.593 151.89C231.221 151.53 230.759 151.35 230.207 151.35C229.655 151.35 229.187 151.53 228.803 151.89C228.431 152.25 228.245 152.71 228.245 153.28ZM243.544 158.08C243.052 158.43 242.518 158.71 241.942 158.91C241.366 159.1 240.772 159.2 240.16 159.2C239.464 159.2 238.834 159.08 238.27 158.86C237.706 158.62 237.22 158.29 236.812 157.88C236.416 157.46 236.11 156.98 235.894 156.43C235.678 155.87 235.57 155.27 235.57 154.63C235.57 153.98 235.678 153.38 235.894 152.83C236.11 152.26 236.404 151.78 236.776 151.37C237.16 150.96 237.616 150.64 238.144 150.41C238.672 150.17 239.254 150.05 239.89 150.05C240.502 150.05 241.06 150.17 241.564 150.41C242.068 150.64 242.5 150.96 242.86 151.37C243.232 151.78 243.514 152.26 243.706 152.81C243.91 153.35 244.012 153.93 244.012 154.55C244.012 154.65 244.006 154.73 243.994 154.81C243.994 154.87 243.994 154.92 243.994 154.97C243.982 155.02 243.976 155.06 243.976 155.11H237.118C237.154 155.47 237.25 155.82 237.406 156.16C237.574 156.48 237.79 156.76 238.054 157C238.33 157.24 238.654 157.43 239.026 157.58C239.398 157.72 239.812 157.79 240.268 157.79C241.384 157.79 242.476 157.33 243.544 156.41V158.08ZM242.446 153.83C242.41 153.49 242.32 153.17 242.176 152.88C242.044 152.58 241.864 152.32 241.636 152.11C241.42 151.89 241.156 151.72 240.844 151.6C240.544 151.47 240.214 151.4 239.854 151.4C239.494 151.4 239.152 151.48 238.828 151.62C238.516 151.76 238.24 151.95 238 152.18C237.76 152.41 237.562 152.66 237.406 152.95C237.262 153.24 237.178 153.53 237.154 153.83H242.446ZM247.844 148.2H247.898V150.25H250.346V151.64H247.898V156.26C247.898 156.78 248.012 157.16 248.24 157.4C248.48 157.64 248.852 157.76 249.356 157.76C249.524 157.76 249.698 157.74 249.878 157.7C250.058 157.66 250.214 157.58 250.346 157.49V158.93C250.19 159.01 249.998 159.08 249.77 159.13C249.554 159.17 249.296 159.2 248.996 159.2C248.168 159.2 247.52 158.96 247.052 158.48C246.584 158 246.35 157.33 246.35 156.48V151.64H244.838V151.44L247.844 148.2ZM256.189 154.63C256.189 153.99 256.297 153.4 256.513 152.84C256.741 152.28 257.059 151.79 257.467 151.39C257.875 150.97 258.355 150.64 258.907 150.41C259.471 150.17 260.089 150.05 260.761 150.05C261.673 150.05 262.501 150.31 263.245 150.81V152.38C262.477 151.79 261.673 151.49 260.833 151.49C260.389 151.49 259.975 151.58 259.591 151.75C259.219 151.9 258.895 152.12 258.619 152.41C258.355 152.69 258.145 153.02 257.989 153.4C257.833 153.77 257.755 154.18 257.755 154.63C257.755 155.06 257.833 155.47 257.989 155.85C258.145 156.23 258.355 156.57 258.619 156.86C258.895 157.13 259.219 157.36 259.591 157.52C259.975 157.68 260.389 157.76 260.833 157.76C261.289 157.76 261.727 157.67 262.147 157.51C262.567 157.33 262.951 157.12 263.299 156.89V158.46C262.915 158.7 262.513 158.88 262.093 159C261.673 159.13 261.235 159.2 260.779 159.2C260.095 159.2 259.471 159.08 258.907 158.86C258.343 158.62 257.857 158.29 257.449 157.88C257.053 157.46 256.741 156.98 256.513 156.43C256.297 155.87 256.189 155.27 256.189 154.63ZM269.445 150.05C270.105 150.05 270.711 150.17 271.263 150.41C271.827 150.65 272.313 150.98 272.721 151.4C273.129 151.81 273.447 152.29 273.675 152.84C273.903 153.4 274.017 153.99 274.017 154.63C274.017 155.26 273.903 155.86 273.675 156.41C273.447 156.96 273.129 157.45 272.721 157.87C272.313 158.27 271.827 158.6 271.263 158.84C270.711 159.08 270.105 159.2 269.445 159.2C268.785 159.2 268.173 159.08 267.609 158.84C267.057 158.6 266.577 158.27 266.169 157.87C265.761 157.45 265.443 156.96 265.215 156.41C264.987 155.86 264.873 155.26 264.873 154.63C264.873 153.99 264.987 153.4 265.215 152.84C265.443 152.29 265.761 151.81 266.169 151.4C266.577 150.98 267.057 150.65 267.609 150.41C268.173 150.17 268.785 150.05 269.445 150.05ZM269.445 151.48C269.013 151.48 268.611 151.56 268.239 151.73C267.879 151.88 267.561 152.11 267.285 152.39C267.021 152.68 266.811 153.02 266.655 153.4C266.511 153.79 266.438 154.19 266.438 154.63C266.438 155.06 266.511 155.47 266.655 155.85C266.811 156.23 267.021 156.57 267.285 156.86C267.561 157.15 267.879 157.37 268.239 157.54C268.611 157.7 269.013 157.78 269.445 157.78C269.877 157.78 270.273 157.7 270.633 157.54C271.005 157.37 271.323 157.15 271.587 156.86C271.863 156.57 272.073 156.23 272.217 155.85C272.373 155.47 272.451 155.06 272.451 154.63C272.451 154.19 272.373 153.79 272.217 153.4C272.073 153.02 271.863 152.68 271.587 152.39C271.323 152.11 271.005 151.88 270.633 151.73C270.273 151.56 269.877 151.48 269.445 151.48ZM284.736 146.4V159H283.206V157.61C282.894 158.09 282.462 158.48 281.91 158.77C281.358 159.05 280.758 159.2 280.11 159.2C279.486 159.2 278.904 159.08 278.364 158.86C277.836 158.62 277.374 158.29 276.978 157.88C276.582 157.48 276.27 157 276.042 156.44C275.826 155.88 275.718 155.27 275.718 154.63C275.718 153.98 275.826 153.38 276.042 152.83C276.27 152.27 276.582 151.79 276.978 151.39C277.374 150.97 277.836 150.64 278.364 150.41C278.904 150.17 279.486 150.05 280.11 150.05C280.758 150.05 281.352 150.19 281.892 150.45C282.444 150.71 282.882 151.09 283.206 151.57V146.4H284.736ZM283.296 154.63C283.296 154.18 283.218 153.77 283.062 153.38C282.918 153 282.708 152.67 282.432 152.39C282.168 152.11 281.85 151.88 281.478 151.73C281.118 151.56 280.722 151.48 280.29 151.48C279.858 151.48 279.456 151.56 279.084 151.73C278.724 151.88 278.406 152.11 278.13 152.39C277.866 152.67 277.656 153 277.5 153.38C277.356 153.77 277.284 154.18 277.284 154.63C277.284 155.07 277.356 155.48 277.5 155.87C277.656 156.25 277.866 156.59 278.13 156.88C278.406 157.15 278.724 157.37 279.084 157.54C279.456 157.7 279.858 157.78 280.29 157.78C280.722 157.78 281.118 157.7 281.478 157.54C281.85 157.37 282.168 157.15 282.432 156.88C282.708 156.59 282.918 156.25 283.062 155.87C283.218 155.48 283.296 155.07 283.296 154.63ZM294.96 158.08C294.468 158.43 293.934 158.71 293.358 158.91C292.782 159.1 292.188 159.2 291.576 159.2C290.88 159.2 290.25 159.08 289.686 158.86C289.122 158.62 288.636 158.29 288.228 157.88C287.832 157.46 287.526 156.98 287.31 156.43C287.094 155.87 286.986 155.27 286.986 154.63C286.986 153.98 287.094 153.38 287.31 152.83C287.526 152.26 287.82 151.78 288.192 151.37C288.576 150.96 289.032 150.64 289.56 150.41C290.088 150.17 290.67 150.05 291.306 150.05C291.918 150.05 292.476 150.17 292.98 150.41C293.484 150.64 293.916 150.96 294.276 151.37C294.648 151.78 294.93 152.26 295.122 152.81C295.326 153.35 295.428 153.93 295.428 154.55C295.428 154.65 295.422 154.73 295.41 154.81C295.41 154.87 295.41 154.92 295.41 154.97C295.398 155.02 295.392 155.06 295.392 155.11H288.534C288.57 155.47 288.666 155.82 288.822 156.16C288.99 156.48 289.206 156.76 289.47 157C289.746 157.24 290.07 157.43 290.442 157.58C290.814 157.72 291.228 157.79 291.684 157.79C292.8 157.79 293.892 157.33 294.96 156.41V158.08ZM293.862 153.83C293.826 153.49 293.736 153.17 293.592 152.88C293.46 152.58 293.28 152.32 293.052 152.11C292.836 151.89 292.572 151.72 292.26 151.6C291.96 151.47 291.63 151.4 291.27 151.4C290.91 151.4 290.568 151.48 290.244 151.62C289.932 151.76 289.656 151.95 289.416 152.18C289.176 152.41 288.978 152.66 288.822 152.95C288.678 153.24 288.594 153.53 288.57 153.83H293.862ZM301.401 156.59C301.797 156.95 302.241 157.24 302.733 157.47C303.225 157.7 303.741 157.81 304.281 157.81C304.497 157.81 304.707 157.79 304.911 157.76C305.115 157.71 305.295 157.64 305.451 157.54C305.607 157.45 305.733 157.33 305.829 157.18C305.925 157.03 305.973 156.83 305.973 156.61C305.973 156.38 305.919 156.19 305.811 156.03C305.715 155.87 305.577 155.74 305.397 155.63C305.229 155.53 305.025 155.44 304.785 155.36C304.557 155.29 304.305 155.23 304.029 155.17C303.717 155.09 303.399 155.01 303.075 154.91C302.763 154.81 302.481 154.66 302.229 154.48C301.977 154.29 301.773 154.05 301.617 153.76C301.461 153.47 301.383 153.12 301.383 152.7C301.383 152.26 301.467 151.87 301.635 151.55C301.815 151.21 302.043 150.94 302.319 150.72C302.607 150.49 302.931 150.32 303.291 150.22C303.663 150.11 304.047 150.05 304.443 150.05C304.911 150.05 305.373 150.13 305.829 150.27C306.285 150.4 306.705 150.6 307.089 150.86V152.5C306.705 152.19 306.291 151.93 305.847 151.73C305.403 151.52 304.947 151.42 304.479 151.42C304.299 151.42 304.113 151.44 303.921 151.48C303.729 151.51 303.555 151.58 303.399 151.67C303.255 151.76 303.135 151.87 303.039 152.02C302.943 152.15 302.895 152.32 302.895 152.52C302.895 152.92 303.063 153.22 303.399 153.42C303.735 153.61 304.155 153.77 304.659 153.91C305.067 154 305.445 154.12 305.793 154.25C306.141 154.38 306.441 154.55 306.693 154.75C306.945 154.94 307.143 155.18 307.287 155.47C307.431 155.75 307.503 156.08 307.503 156.48C307.503 156.92 307.413 157.32 307.233 157.67C307.065 158 306.831 158.29 306.531 158.51C306.243 158.74 305.901 158.91 305.505 159.02C305.109 159.14 304.695 159.2 304.263 159.2C303.783 159.2 303.291 159.13 302.787 158.98C302.283 158.84 301.821 158.61 301.401 158.3V156.59ZM315.726 150.25H317.274V159H315.726V157.74C315.45 158.17 315.084 158.53 314.628 158.8C314.172 159.07 313.614 159.2 312.954 159.2C311.838 159.2 310.974 158.86 310.362 158.17C309.762 157.48 309.462 156.55 309.462 155.38V150.25H311.01V155.2C311.01 155.99 311.202 156.62 311.586 157.07C311.97 157.53 312.534 157.76 313.278 157.76C314.022 157.76 314.616 157.49 315.06 156.97C315.504 156.44 315.726 155.72 315.726 154.82V150.25ZM329.081 153.28C329.081 152.8 329.171 152.36 329.351 151.96C329.531 151.57 329.777 151.23 330.089 150.95C330.401 150.67 330.761 150.44 331.169 150.29C331.577 150.13 332.009 150.05 332.465 150.05C332.861 150.05 333.257 150.12 333.653 150.25H336.659V151.58H335.363C335.519 151.82 335.639 152.09 335.723 152.38C335.807 152.66 335.849 152.96 335.849 153.28C335.849 153.76 335.759 154.19 335.579 154.59C335.399 154.99 335.153 155.32 334.841 155.6C334.529 155.87 334.169 156.09 333.761 156.25C333.353 156.4 332.921 156.48 332.465 156.48C331.913 156.48 331.421 156.38 330.989 156.19C330.713 156.29 330.521 156.41 330.413 156.55C330.317 156.7 330.269 156.85 330.269 157.02C330.269 157.28 330.377 157.47 330.593 157.58C330.809 157.69 331.091 157.74 331.439 157.74H333.779C334.715 157.74 335.459 157.93 336.011 158.32C336.563 158.7 336.839 159.25 336.839 159.97C336.839 160.48 336.713 160.91 336.461 161.29C336.209 161.67 335.873 161.98 335.453 162.22C335.045 162.47 334.565 162.66 334.013 162.78C333.473 162.9 332.909 162.96 332.321 162.96C331.781 162.96 331.283 162.91 330.827 162.82C330.383 162.72 329.993 162.57 329.657 162.37C329.321 162.17 329.057 161.92 328.865 161.61C328.685 161.3 328.595 160.93 328.595 160.49C328.595 160.09 328.697 159.72 328.901 159.4C329.117 159.08 329.363 158.84 329.639 158.66C329.387 158.49 329.201 158.28 329.081 158.03C328.973 157.78 328.919 157.51 328.919 157.24C328.919 157.01 328.949 156.8 329.009 156.62C329.081 156.44 329.165 156.29 329.261 156.16C329.357 156.01 329.465 155.89 329.585 155.8C329.717 155.69 329.849 155.59 329.981 155.51C329.705 155.23 329.483 154.91 329.315 154.54C329.159 154.15 329.081 153.73 329.081 153.28ZM319.811 153.28C319.811 152.8 319.901 152.36 320.081 151.96C320.261 151.57 320.507 151.23 320.819 150.95C321.131 150.67 321.491 150.44 321.899 150.29C322.307 150.13 322.739 150.05 323.195 150.05C323.591 150.05 323.987 150.12 324.383 150.25H327.389V151.58H326.093C326.249 151.82 326.369 152.09 326.453 152.38C326.537 152.66 326.579 152.96 326.579 153.28C326.579 153.76 326.489 154.19 326.309 154.59C326.129 154.99 325.883 155.32 325.571 155.6C325.259 155.87 324.899 156.09 324.491 156.25C324.083 156.4 323.651 156.48 323.195 156.48C322.667 156.48 322.163 156.38 321.683 156.17C321.383 156.27 321.179 156.4 321.071 156.55C320.963 156.7 320.909 156.85 320.909 157.02C320.909 157.28 321.017 157.47 321.233 157.58C321.449 157.69 321.731 157.74 322.079 157.74H324.311C325.211 157.74 325.925 157.93 326.453 158.32C326.993 158.7 327.263 159.25 327.263 159.97C327.263 160.48 327.143 160.91 326.903 161.29C326.663 161.67 326.345 161.98 325.949 162.22C325.553 162.47 325.097 162.66 324.581 162.78C324.065 162.9 323.531 162.96 322.979 162.96C322.427 162.96 321.917 162.91 321.449 162.82C320.981 162.72 320.573 162.57 320.225 162.37C319.889 162.17 319.625 161.92 319.433 161.61C319.241 161.3 319.145 160.93 319.145 160.49C319.145 160.07 319.259 159.7 319.487 159.38C319.727 159.07 319.985 158.82 320.261 158.64C320.021 158.47 319.841 158.27 319.721 158.03C319.613 157.78 319.559 157.51 319.559 157.24C319.559 157 319.589 156.79 319.649 156.61C319.721 156.41 319.811 156.25 319.919 156.12C320.027 155.98 320.147 155.86 320.279 155.76C320.411 155.65 320.543 155.56 320.675 155.47C320.399 155.2 320.183 154.88 320.027 154.52C319.883 154.15 319.811 153.73 319.811 153.28ZM335.399 160.12C335.399 159.73 335.231 159.47 334.895 159.32C334.571 159.18 334.079 159.11 333.419 159.11H331.349C331.253 159.11 331.163 159.1 331.079 159.09C330.995 159.09 330.911 159.08 330.827 159.07C330.575 159.22 330.377 159.39 330.233 159.59C330.089 159.81 330.017 160.05 330.017 160.31C330.017 160.82 330.245 161.18 330.701 161.39C331.157 161.62 331.709 161.74 332.357 161.74C332.801 161.74 333.209 161.7 333.581 161.63C333.953 161.56 334.271 161.45 334.535 161.3C334.811 161.17 335.021 161 335.165 160.8C335.321 160.61 335.399 160.38 335.399 160.12ZM330.503 153.28C330.503 153.85 330.689 154.32 331.061 154.68C331.445 155.03 331.913 155.2 332.465 155.2C333.017 155.2 333.479 155.03 333.851 154.68C334.235 154.32 334.427 153.85 334.427 153.28C334.427 152.71 334.235 152.25 333.851 151.89C333.479 151.53 333.017 151.35 332.465 151.35C331.913 151.35 331.445 151.53 331.061 151.89C330.689 152.25 330.503 152.71 330.503 153.28ZM321.233 153.28C321.233 153.85 321.419 154.32 321.791 154.68C322.175 155.03 322.643 155.2 323.195 155.2C323.747 155.2 324.209 155.03 324.581 154.68C324.965 154.32 325.157 153.85 325.157 153.28C325.157 152.71 324.965 152.25 324.581 151.89C324.209 151.53 323.747 151.35 323.195 151.35C322.643 151.35 322.175 151.53 321.791 151.89C321.419 152.25 321.233 152.71 321.233 153.28ZM325.823 160.12C325.823 159.73 325.667 159.47 325.355 159.32C325.043 159.18 324.575 159.11 323.951 159.11H321.989C321.881 159.11 321.779 159.1 321.683 159.09C321.599 159.09 321.509 159.08 321.413 159.07C320.849 159.37 320.567 159.79 320.567 160.31C320.567 160.82 320.801 161.18 321.269 161.39C321.749 161.62 322.331 161.74 323.015 161.74C323.423 161.74 323.795 161.7 324.131 161.63C324.479 161.56 324.779 161.45 325.031 161.3C325.283 161.17 325.475 161 325.607 160.8C325.751 160.61 325.823 160.38 325.823 160.12ZM345.813 158.08C345.321 158.43 344.787 158.71 344.211 158.91C343.635 159.1 343.041 159.2 342.429 159.2C341.733 159.2 341.103 159.08 340.539 158.86C339.975 158.62 339.489 158.29 339.081 157.88C338.685 157.46 338.379 156.98 338.163 156.43C337.947 155.87 337.839 155.27 337.839 154.63C337.839 153.98 337.947 153.38 338.163 152.83C338.379 152.26 338.673 151.78 339.045 151.37C339.429 150.96 339.885 150.64 340.413 150.41C340.941 150.17 341.523 150.05 342.159 150.05C342.771 150.05 343.329 150.17 343.833 150.41C344.337 150.64 344.769 150.96 345.129 151.37C345.501 151.78 345.783 152.26 345.975 152.81C346.179 153.35 346.281 153.93 346.281 154.55C346.281 154.65 346.275 154.73 346.263 154.81C346.263 154.87 346.263 154.92 346.263 154.97C346.251 155.02 346.245 155.06 346.245 155.11H339.387C339.423 155.47 339.519 155.82 339.675 156.16C339.843 156.48 340.059 156.76 340.323 157C340.599 157.24 340.923 157.43 341.295 157.58C341.667 157.72 342.081 157.79 342.537 157.79C343.653 157.79 344.745 157.33 345.813 156.41V158.08ZM344.715 153.83C344.679 153.49 344.589 153.17 344.445 152.88C344.313 152.58 344.133 152.32 343.905 152.11C343.689 151.89 343.425 151.72 343.113 151.6C342.813 151.47 342.483 151.4 342.123 151.4C341.763 151.4 341.421 151.48 341.097 151.62C340.785 151.76 340.509 151.95 340.269 152.18C340.029 152.41 339.831 152.66 339.675 152.95C339.531 153.24 339.447 153.53 339.423 153.83H344.715ZM347.93 156.59C348.326 156.95 348.77 157.24 349.262 157.47C349.754 157.7 350.27 157.81 350.81 157.81C351.026 157.81 351.236 157.79 351.44 157.76C351.644 157.71 351.824 157.64 351.98 157.54C352.136 157.45 352.262 157.33 352.358 157.18C352.454 157.03 352.502 156.83 352.502 156.61C352.502 156.38 352.448 156.19 352.34 156.03C352.244 155.87 352.106 155.74 351.926 155.63C351.758 155.53 351.554 155.44 351.314 155.36C351.086 155.29 350.834 155.23 350.558 155.17C350.246 155.09 349.928 155.01 349.604 154.91C349.292 154.81 349.01 154.66 348.758 154.48C348.506 154.29 348.302 154.05 348.146 153.76C347.99 153.47 347.912 153.12 347.912 152.7C347.912 152.26 347.996 151.87 348.164 151.55C348.344 151.21 348.572 150.94 348.848 150.72C349.136 150.49 349.46 150.32 349.82 150.22C350.192 150.11 350.576 150.05 350.972 150.05C351.44 150.05 351.902 150.13 352.358 150.27C352.814 150.4 353.234 150.6 353.618 150.86V152.5C353.234 152.19 352.82 151.93 352.376 151.73C351.932 151.52 351.476 151.42 351.008 151.42C350.828 151.42 350.642 151.44 350.45 151.48C350.258 151.51 350.084 151.58 349.928 151.67C349.784 151.76 349.664 151.87 349.568 152.02C349.472 152.15 349.424 152.32 349.424 152.52C349.424 152.92 349.592 153.22 349.928 153.42C350.264 153.61 350.684 153.77 351.188 153.91C351.596 154 351.974 154.12 352.322 154.25C352.67 154.38 352.97 154.55 353.222 154.75C353.474 154.94 353.672 155.18 353.816 155.47C353.96 155.75 354.032 156.08 354.032 156.48C354.032 156.92 353.942 157.32 353.762 157.67C353.594 158 353.36 158.29 353.06 158.51C352.772 158.74 352.43 158.91 352.034 159.02C351.638 159.14 351.224 159.2 350.792 159.2C350.312 159.2 349.82 159.13 349.316 158.98C348.812 158.84 348.35 158.61 347.93 158.3V156.59ZM357.954 148.2H358.008V150.25H360.456V151.64H358.008V156.26C358.008 156.78 358.122 157.16 358.35 157.4C358.59 157.64 358.962 157.76 359.466 157.76C359.634 157.76 359.808 157.74 359.988 157.7C360.168 157.66 360.324 157.58 360.456 157.49V158.93C360.3 159.01 360.108 159.08 359.88 159.13C359.664 159.17 359.406 159.2 359.106 159.2C358.278 159.2 357.63 158.96 357.162 158.48C356.694 158 356.46 157.33 356.46 156.48V151.64H354.948V151.44L357.954 148.2ZM364.422 147.66C364.422 147.95 364.32 148.19 364.116 148.4C363.912 148.6 363.666 148.7 363.378 148.7C363.09 148.7 362.844 148.6 362.64 148.4C362.436 148.19 362.334 147.95 362.334 147.66C362.334 147.37 362.436 147.13 362.64 146.92C362.844 146.72 363.09 146.62 363.378 146.62C363.666 146.62 363.912 146.72 364.116 146.92C364.32 147.13 364.422 147.37 364.422 147.66ZM364.152 150.25V159H362.604V150.25H364.152ZM370.976 150.05C371.636 150.05 372.242 150.17 372.794 150.41C373.358 150.65 373.844 150.98 374.252 151.4C374.66 151.81 374.978 152.29 375.206 152.84C375.434 153.4 375.548 153.99 375.548 154.63C375.548 155.26 375.434 155.86 375.206 156.41C374.978 156.96 374.66 157.45 374.252 157.87C373.844 158.27 373.358 158.6 372.794 158.84C372.242 159.08 371.636 159.2 370.976 159.2C370.316 159.2 369.704 159.08 369.14 158.84C368.588 158.6 368.108 158.27 367.7 157.87C367.292 157.45 366.974 156.96 366.746 156.41C366.518 155.86 366.404 155.26 366.404 154.63C366.404 153.99 366.518 153.4 366.746 152.84C366.974 152.29 367.292 151.81 367.7 151.4C368.108 150.98 368.588 150.65 369.14 150.41C369.704 150.17 370.316 150.05 370.976 150.05ZM370.976 151.48C370.544 151.48 370.142 151.56 369.77 151.73C369.41 151.88 369.092 152.11 368.816 152.39C368.552 152.68 368.342 153.02 368.186 153.4C368.042 153.79 367.97 154.19 367.97 154.63C367.97 155.06 368.042 155.47 368.186 155.85C368.342 156.23 368.552 156.57 368.816 156.86C369.092 157.15 369.41 157.37 369.77 157.54C370.142 157.7 370.544 157.78 370.976 157.78C371.408 157.78 371.804 157.7 372.164 157.54C372.536 157.37 372.854 157.15 373.118 156.86C373.394 156.57 373.604 156.23 373.748 155.85C373.904 155.47 373.982 155.06 373.982 154.63C373.982 154.19 373.904 153.79 373.748 153.4C373.604 153.02 373.394 152.68 373.118 152.39C372.854 152.11 372.536 151.88 372.164 151.73C371.804 151.56 371.408 151.48 370.976 151.48ZM379.34 159H377.792V150.25H379.34V151.51C379.616 151.08 379.982 150.73 380.438 150.47C380.906 150.19 381.47 150.05 382.13 150.05C383.258 150.05 384.128 150.4 384.74 151.1C385.352 151.78 385.658 152.71 385.658 153.87V159H384.11V154.05C384.11 153.26 383.912 152.63 383.516 152.18C383.132 151.72 382.562 151.49 381.806 151.49C381.05 151.49 380.45 151.76 380.006 152.29C379.562 152.81 379.34 153.53 379.34 154.43V159ZM387.762 156.59C388.158 156.95 388.602 157.24 389.094 157.47C389.586 157.7 390.102 157.81 390.642 157.81C390.858 157.81 391.068 157.79 391.272 157.76C391.476 157.71 391.656 157.64 391.812 157.54C391.968 157.45 392.094 157.33 392.19 157.18C392.286 157.03 392.334 156.83 392.334 156.61C392.334 156.38 392.28 156.19 392.172 156.03C392.076 155.87 391.938 155.74 391.758 155.63C391.59 155.53 391.386 155.44 391.146 155.36C390.918 155.29 390.666 155.23 390.39 155.17C390.078 155.09 389.76 155.01 389.436 154.91C389.124 154.81 388.842 154.66 388.59 154.48C388.338 154.29 388.134 154.05 387.978 153.76C387.822 153.47 387.744 153.12 387.744 152.7C387.744 152.26 387.828 151.87 387.996 151.55C388.176 151.21 388.404 150.94 388.68 150.72C388.968 150.49 389.292 150.32 389.652 150.22C390.024 150.11 390.408 150.05 390.804 150.05C391.272 150.05 391.734 150.13 392.19 150.27C392.646 150.4 393.066 150.6 393.45 150.86V152.5C393.066 152.19 392.652 151.93 392.208 151.73C391.764 151.52 391.308 151.42 390.84 151.42C390.66 151.42 390.474 151.44 390.282 151.48C390.09 151.51 389.916 151.58 389.76 151.67C389.616 151.76 389.496 151.87 389.4 152.02C389.304 152.15 389.256 152.32 389.256 152.52C389.256 152.92 389.424 153.22 389.76 153.42C390.096 153.61 390.516 153.77 391.02 153.91C391.428 154 391.806 154.12 392.154 154.25C392.502 154.38 392.802 154.55 393.054 154.75C393.306 154.94 393.504 155.18 393.648 155.47C393.792 155.75 393.864 156.08 393.864 156.48C393.864 156.92 393.774 157.32 393.594 157.67C393.426 158 393.192 158.29 392.892 158.51C392.604 158.74 392.262 158.91 391.866 159.02C391.47 159.14 391.056 159.2 390.624 159.2C390.144 159.2 389.652 159.13 389.148 158.98C388.644 158.84 388.182 158.61 387.762 158.3V156.59Z" fill="#D9D9E0"/>
<path opacity="0.08" d="M28 182H428" stroke="white"/>
<path d="M139.234 210.7C139.234 211.6 139.072 212.43 138.748 213.2C138.424 213.97 137.98 214.64 137.416 215.2C136.852 215.76 136.186 216.21 135.418 216.53C134.662 216.84 133.846 217 132.97 217H128.992V204.4H132.97C133.846 204.4 134.662 204.56 135.418 204.89C136.186 205.2 136.852 205.64 137.416 206.2C137.98 206.76 138.424 207.43 138.748 208.2C139.072 208.97 139.234 209.8 139.234 210.7ZM137.578 210.7C137.578 210.03 137.458 209.4 137.218 208.81C136.99 208.22 136.666 207.71 136.246 207.28C135.838 206.85 135.352 206.51 134.788 206.27C134.224 206.02 133.606 205.89 132.934 205.89H130.594V215.51H132.934C133.606 215.51 134.224 215.39 134.788 215.15C135.352 214.89 135.838 214.55 136.246 214.12C136.666 213.69 136.99 213.18 137.218 212.59C137.458 212 137.578 211.37 137.578 210.7ZM145.551 208.05C146.211 208.05 146.817 208.17 147.369 208.41C147.933 208.65 148.419 208.98 148.827 209.4C149.235 209.81 149.553 210.29 149.781 210.84C150.009 211.4 150.123 211.99 150.123 212.63C150.123 213.26 150.009 213.86 149.781 214.41C149.553 214.96 149.235 215.45 148.827 215.87C148.419 216.27 147.933 216.6 147.369 216.84C146.817 217.08 146.211 217.2 145.551 217.2C144.891 217.2 144.279 217.08 143.715 216.84C143.163 216.6 142.683 216.27 142.275 215.87C141.867 215.45 141.549 214.96 141.321 214.41C141.093 213.86 140.979 213.26 140.979 212.63C140.979 211.99 141.093 211.4 141.321 210.84C141.549 210.29 141.867 209.81 142.275 209.4C142.683 208.98 143.163 208.65 143.715 208.41C144.279 208.17 144.891 208.05 145.551 208.05ZM145.551 209.48C145.119 209.48 144.717 209.56 144.345 209.73C143.985 209.88 143.667 210.11 143.391 210.39C143.127 210.68 142.917 211.02 142.761 211.4C142.617 211.79 142.545 212.19 142.545 212.63C142.545 213.06 142.617 213.47 142.761 213.85C142.917 214.23 143.127 214.57 143.391 214.86C143.667 215.15 143.985 215.37 144.345 215.54C144.717 215.7 145.119 215.78 145.551 215.78C145.983 215.78 146.379 215.7 146.739 215.54C147.111 215.37 147.429 215.15 147.693 214.86C147.969 214.57 148.179 214.23 148.323 213.85C148.479 213.47 148.557 213.06 148.557 212.63C148.557 212.19 148.479 211.79 148.323 211.4C148.179 211.02 147.969 210.68 147.693 210.39C147.429 210.11 147.111 209.88 146.739 209.73C146.379 209.56 145.983 209.48 145.551 209.48ZM151.824 212.63C151.824 211.99 151.932 211.4 152.148 210.84C152.376 210.28 152.694 209.79 153.102 209.39C153.51 208.97 153.99 208.64 154.542 208.41C155.106 208.17 155.724 208.05 156.396 208.05C157.308 208.05 158.136 208.31 158.88 208.81V210.38C158.112 209.79 157.308 209.49 156.468 209.49C156.024 209.49 155.61 209.58 155.226 209.75C154.854 209.9 154.53 210.12 154.254 210.41C153.99 210.69 153.78 211.02 153.624 211.4C153.468 211.77 153.39 212.18 153.39 212.63C153.39 213.06 153.468 213.47 153.624 213.85C153.78 214.23 153.99 214.57 154.254 214.86C154.53 215.13 154.854 215.36 155.226 215.52C155.61 215.68 156.024 215.76 156.468 215.76C156.924 215.76 157.362 215.67 157.782 215.51C158.202 215.33 158.586 215.12 158.934 214.89V216.46C158.55 216.7 158.148 216.88 157.728 217C157.308 217.13 156.87 217.2 156.414 217.2C155.73 217.2 155.106 217.08 154.542 216.86C153.978 216.62 153.492 216.29 153.084 215.88C152.688 215.46 152.376 214.98 152.148 214.43C151.932 213.87 151.824 213.27 151.824 212.63ZM167.276 208.25H168.824V217H167.276V215.74C167 216.17 166.634 216.53 166.178 216.8C165.722 217.07 165.164 217.2 164.504 217.2C163.388 217.2 162.524 216.86 161.912 216.17C161.312 215.48 161.012 214.55 161.012 213.38V208.25H162.56V213.2C162.56 213.99 162.752 214.62 163.136 215.07C163.52 215.53 164.084 215.76 164.828 215.76C165.572 215.76 166.166 215.49 166.61 214.97C167.054 214.44 167.276 213.72 167.276 212.82V208.25ZM173.514 217H171.966V208.25H173.496V209.51C173.736 209.06 174.072 208.7 174.504 208.45C174.936 208.19 175.458 208.05 176.07 208.05C176.718 208.05 177.27 208.2 177.726 208.5C178.194 208.8 178.56 209.22 178.824 209.76C178.932 209.58 179.07 209.39 179.238 209.19C179.406 208.98 179.61 208.8 179.85 208.63C180.102 208.46 180.384 208.32 180.696 208.22C181.02 208.11 181.392 208.05 181.812 208.05C182.832 208.05 183.624 208.38 184.188 209.04C184.752 209.7 185.034 210.6 185.034 211.73V217H183.486V212C183.486 211.22 183.318 210.6 182.982 210.16C182.658 209.7 182.166 209.48 181.506 209.48C180.822 209.48 180.276 209.74 179.868 210.27C179.472 210.8 179.274 211.51 179.274 212.41V217H177.726V212.03C177.726 211.24 177.558 210.62 177.222 210.16C176.886 209.7 176.394 209.48 175.746 209.48C175.062 209.48 174.516 209.74 174.108 210.27C173.712 210.8 173.514 211.51 173.514 212.41V217ZM195.13 216.08C194.638 216.43 194.104 216.71 193.528 216.91C192.952 217.1 192.358 217.2 191.746 217.2C191.05 217.2 190.42 217.08 189.856 216.86C189.292 216.62 188.806 216.29 188.398 215.88C188.002 215.46 187.696 214.98 187.48 214.43C187.264 213.87 187.156 213.27 187.156 212.63C187.156 211.98 187.264 211.38 187.48 210.83C187.696 210.26 187.99 209.78 188.362 209.37C188.746 208.96 189.202 208.64 189.73 208.41C190.258 208.17 190.84 208.05 191.476 208.05C192.088 208.05 192.646 208.17 193.15 208.41C193.654 208.64 194.086 208.96 194.446 209.37C194.818 209.78 195.1 210.26 195.292 210.81C195.496 211.35 195.598 211.93 195.598 212.55C195.598 212.65 195.592 212.73 195.58 212.81C195.58 212.87 195.58 212.92 195.58 212.97C195.568 213.02 195.562 213.06 195.562 213.11H188.704C188.74 213.47 188.836 213.82 188.992 214.16C189.16 214.48 189.376 214.76 189.64 215C189.916 215.24 190.24 215.43 190.612 215.58C190.984 215.72 191.398 215.79 191.854 215.79C192.97 215.79 194.062 215.33 195.13 214.41V216.08ZM194.032 211.83C193.996 211.49 193.906 211.17 193.762 210.88C193.63 210.58 193.45 210.32 193.222 210.11C193.006 209.89 192.742 209.72 192.43 209.6C192.13 209.47 191.8 209.4 191.44 209.4C191.08 209.4 190.738 209.48 190.414 209.62C190.102 209.76 189.826 209.95 189.586 210.18C189.346 210.41 189.148 210.66 188.992 210.95C188.848 211.24 188.764 211.53 188.74 211.83H194.032ZM199.301 217H197.753V208.25H199.301V209.51C199.577 209.08 199.943 208.73 200.399 208.47C200.867 208.19 201.431 208.05 202.091 208.05C203.219 208.05 204.089 208.4 204.701 209.1C205.313 209.78 205.619 210.71 205.619 211.87V217H204.071V212.05C204.071 211.26 203.873 210.63 203.477 210.18C203.093 209.72 202.523 209.49 201.767 209.49C201.011 209.49 200.411 209.76 199.967 210.29C199.523 210.81 199.301 211.53 199.301 212.43V217ZM210.118 206.2H210.172V208.25H212.62V209.64H210.172V214.26C210.172 214.78 210.286 215.16 210.514 215.4C210.754 215.64 211.126 215.76 211.63 215.76C211.798 215.76 211.972 215.74 212.152 215.7C212.332 215.66 212.488 215.58 212.62 215.49V216.93C212.464 217.01 212.272 217.08 212.044 217.13C211.828 217.17 211.57 217.2 211.27 217.2C210.442 217.2 209.794 216.96 209.326 216.48C208.858 216 208.624 215.33 208.624 214.48V209.64H207.112V209.44L210.118 206.2ZM218.463 212.63C218.463 211.99 218.571 211.4 218.787 210.84C219.015 210.28 219.333 209.79 219.741 209.39C220.149 208.97 220.629 208.64 221.181 208.41C221.745 208.17 222.363 208.05 223.035 208.05C223.947 208.05 224.775 208.31 225.519 208.81V210.38C224.751 209.79 223.947 209.49 223.107 209.49C222.663 209.49 222.249 209.58 221.865 209.75C221.493 209.9 221.169 210.12 220.893 210.41C220.629 210.69 220.419 211.02 220.263 211.4C220.107 211.77 220.029 212.18 220.029 212.63C220.029 213.06 220.107 213.47 220.263 213.85C220.419 214.23 220.629 214.57 220.893 214.86C221.169 215.13 221.493 215.36 221.865 215.52C222.249 215.68 222.663 215.76 223.107 215.76C223.563 215.76 224.001 215.67 224.421 215.51C224.841 215.33 225.225 215.12 225.573 214.89V216.46C225.189 216.7 224.787 216.88 224.367 217C223.947 217.13 223.509 217.2 223.053 217.2C222.369 217.2 221.745 217.08 221.181 216.86C220.617 216.62 220.131 216.29 219.723 215.88C219.327 215.46 219.015 214.98 218.787 214.43C218.571 213.87 218.463 213.27 218.463 212.63ZM231.719 208.05C232.379 208.05 232.985 208.17 233.537 208.41C234.101 208.65 234.587 208.98 234.995 209.4C235.403 209.81 235.721 210.29 235.949 210.84C236.177 211.4 236.291 211.99 236.291 212.63C236.291 213.26 236.177 213.86 235.949 214.41C235.721 214.96 235.403 215.45 234.995 215.87C234.587 216.27 234.101 216.6 233.537 216.84C232.985 217.08 232.379 217.2 231.719 217.2C231.059 217.2 230.447 217.08 229.883 216.84C229.331 216.6 228.851 216.27 228.443 215.87C228.035 215.45 227.717 214.96 227.489 214.41C227.261 213.86 227.147 213.26 227.147 212.63C227.147 211.99 227.261 211.4 227.489 210.84C227.717 210.29 228.035 209.81 228.443 209.4C228.851 208.98 229.331 208.65 229.883 208.41C230.447 208.17 231.059 208.05 231.719 208.05ZM231.719 209.48C231.287 209.48 230.885 209.56 230.513 209.73C230.153 209.88 229.835 210.11 229.559 210.39C229.295 210.68 229.085 211.02 228.929 211.4C228.785 211.79 228.713 212.19 228.713 212.63C228.713 213.06 228.785 213.47 228.929 213.85C229.085 214.23 229.295 214.57 229.559 214.86C229.835 215.15 230.153 215.37 230.513 215.54C230.885 215.7 231.287 215.78 231.719 215.78C232.151 215.78 232.547 215.7 232.907 215.54C233.279 215.37 233.597 215.15 233.861 214.86C234.137 214.57 234.347 214.23 234.491 213.85C234.647 213.47 234.725 213.06 234.725 212.63C234.725 212.19 234.647 211.79 234.491 211.4C234.347 211.02 234.137 210.68 233.861 210.39C233.597 210.11 233.279 209.88 232.907 209.73C232.547 209.56 232.151 209.48 231.719 209.48ZM247.01 204.4V217H245.48V215.61C245.168 216.09 244.736 216.48 244.184 216.77C243.632 217.05 243.032 217.2 242.384 217.2C241.76 217.2 241.178 217.08 240.638 216.86C240.11 216.62 239.648 216.29 239.252 215.88C238.856 215.48 238.544 215 238.316 214.44C238.1 213.88 237.992 213.27 237.992 212.63C237.992 211.98 238.1 211.38 238.316 210.83C238.544 210.27 238.856 209.79 239.252 209.39C239.648 208.97 240.11 208.64 240.638 208.41C241.178 208.17 241.76 208.05 242.384 208.05C243.032 208.05 243.626 208.19 244.166 208.45C244.718 208.71 245.156 209.09 245.48 209.57V204.4H247.01ZM245.57 212.63C245.57 212.18 245.492 211.77 245.336 211.38C245.192 211 244.982 210.67 244.706 210.39C244.442 210.11 244.124 209.88 243.752 209.73C243.392 209.56 242.996 209.48 242.564 209.48C242.132 209.48 241.73 209.56 241.358 209.73C240.998 209.88 240.68 210.11 240.404 210.39C240.14 210.67 239.93 211 239.774 211.38C239.63 211.77 239.558 212.18 239.558 212.63C239.558 213.07 239.63 213.48 239.774 213.87C239.93 214.25 240.14 214.59 240.404 214.88C240.68 215.15 240.998 215.37 241.358 215.54C241.73 215.7 242.132 215.78 242.564 215.78C242.996 215.78 243.392 215.7 243.752 215.54C244.124 215.37 244.442 215.15 244.706 214.88C244.982 214.59 245.192 214.25 245.336 213.87C245.492 213.48 245.57 213.07 245.57 212.63ZM257.234 216.08C256.742 216.43 256.208 216.71 255.632 216.91C255.056 217.1 254.462 217.2 253.85 217.2C253.154 217.2 252.524 217.08 251.96 216.86C251.396 216.62 250.91 216.29 250.502 215.88C250.106 215.46 249.8 214.98 249.584 214.43C249.368 213.87 249.26 213.27 249.26 212.63C249.26 211.98 249.368 211.38 249.584 210.83C249.8 210.26 250.094 209.78 250.466 209.37C250.85 208.96 251.306 208.64 251.834 208.41C252.362 208.17 252.944 208.05 253.58 208.05C254.192 208.05 254.75 208.17 255.254 208.41C255.758 208.64 256.19 208.96 256.55 209.37C256.922 209.78 257.204 210.26 257.396 210.81C257.6 211.35 257.702 211.93 257.702 212.55C257.702 212.65 257.696 212.73 257.684 212.81C257.684 212.87 257.684 212.92 257.684 212.97C257.672 213.02 257.666 213.06 257.666 213.11H250.808C250.844 213.47 250.94 213.82 251.096 214.16C251.264 214.48 251.48 214.76 251.744 215C252.02 215.24 252.344 215.43 252.716 215.58C253.088 215.72 253.502 215.79 253.958 215.79C255.074 215.79 256.166 215.33 257.234 214.41V216.08ZM256.136 211.83C256.1 211.49 256.01 211.17 255.866 210.88C255.734 210.58 255.554 210.32 255.326 210.11C255.11 209.89 254.846 209.72 254.534 209.6C254.234 209.47 253.904 209.4 253.544 209.4C253.184 209.4 252.842 209.48 252.518 209.62C252.206 209.76 251.93 209.95 251.69 210.18C251.45 210.41 251.252 210.66 251.096 210.95C250.952 211.24 250.868 211.53 250.844 211.83H256.136ZM263.639 212.63C263.639 211.99 263.747 211.4 263.963 210.84C264.191 210.28 264.509 209.79 264.917 209.39C265.325 208.97 265.805 208.64 266.357 208.41C266.921 208.17 267.539 208.05 268.211 208.05C269.123 208.05 269.951 208.31 270.695 208.81V210.38C269.927 209.79 269.123 209.49 268.283 209.49C267.839 209.49 267.425 209.58 267.041 209.75C266.669 209.9 266.345 210.12 266.069 210.41C265.805 210.69 265.595 211.02 265.439 211.4C265.283 211.77 265.205 212.18 265.205 212.63C265.205 213.06 265.283 213.47 265.439 213.85C265.595 214.23 265.805 214.57 266.069 214.86C266.345 215.13 266.669 215.36 267.041 215.52C267.425 215.68 267.839 215.76 268.283 215.76C268.739 215.76 269.177 215.67 269.597 215.51C270.017 215.33 270.401 215.12 270.749 214.89V216.46C270.365 216.7 269.963 216.88 269.543 217C269.123 217.13 268.685 217.2 268.229 217.2C267.545 217.2 266.921 217.08 266.357 216.86C265.793 216.62 265.307 216.29 264.899 215.88C264.503 215.46 264.191 214.98 263.963 214.43C263.747 213.87 263.639 213.27 263.639 212.63ZM274.5 217H272.952V204.4H274.5V209.51C274.776 209.08 275.142 208.73 275.598 208.47C276.066 208.19 276.63 208.05 277.29 208.05C278.418 208.05 279.288 208.4 279.9 209.1C280.512 209.78 280.818 210.71 280.818 211.87V217H279.27V212.05C279.27 211.26 279.072 210.63 278.676 210.18C278.292 209.72 277.722 209.49 276.966 209.49C276.21 209.49 275.61 209.76 275.166 210.29C274.722 210.81 274.5 211.53 274.5 212.43V217ZM288.522 211.22C288.522 210.67 288.336 210.24 287.964 209.93C287.604 209.61 287.1 209.46 286.452 209.46C285.852 209.46 285.318 209.57 284.85 209.8C284.394 210.03 283.938 210.35 283.482 210.77V209.15C283.878 208.83 284.316 208.56 284.796 208.36C285.288 208.16 285.852 208.05 286.488 208.05C287.616 208.05 288.486 208.35 289.098 208.94C289.722 209.51 290.034 210.31 290.034 211.33V217H288.576V215.85C288.228 216.29 287.802 216.63 287.298 216.86C286.794 217.08 286.254 217.2 285.678 217.2C285.294 217.2 284.94 217.13 284.616 217C284.292 216.88 284.01 216.71 283.77 216.5C283.542 216.27 283.362 216 283.23 215.7C283.098 215.39 283.032 215.06 283.032 214.7C283.032 213.14 284.004 212.19 285.948 211.87L288.522 211.44V211.22ZM284.58 214.61C284.58 214.98 284.706 215.28 284.958 215.51C285.222 215.72 285.558 215.83 285.966 215.83C286.338 215.83 286.68 215.78 286.992 215.67C287.316 215.55 287.592 215.39 287.82 215.18C288.048 214.97 288.222 214.72 288.342 214.44C288.474 214.16 288.54 213.84 288.54 213.51V212.77L286.2 213.18C285.672 213.28 285.27 213.45 284.994 213.69C284.718 213.92 284.58 214.22 284.58 214.61ZM294.311 217H292.763V208.25H294.311V209.51C294.587 209.08 294.953 208.73 295.409 208.47C295.877 208.19 296.441 208.05 297.101 208.05C298.229 208.05 299.099 208.4 299.711 209.1C300.323 209.78 300.629 210.71 300.629 211.87V217H299.081V212.05C299.081 211.26 298.883 210.63 298.487 210.18C298.103 209.72 297.533 209.49 296.777 209.49C296.021 209.49 295.421 209.76 294.977 210.29C294.533 210.81 294.311 211.53 294.311 212.43V217ZM303.038 211.28C303.038 210.8 303.128 210.36 303.308 209.96C303.488 209.57 303.734 209.23 304.046 208.95C304.358 208.67 304.718 208.44 305.126 208.29C305.534 208.13 305.966 208.05 306.422 208.05C306.818 208.05 307.214 208.12 307.61 208.25H310.616V209.58H309.32C309.476 209.82 309.596 210.09 309.68 210.38C309.764 210.66 309.806 210.96 309.806 211.28C309.806 211.76 309.716 212.19 309.536 212.59C309.356 212.99 309.11 213.32 308.798 213.6C308.486 213.87 308.126 214.09 307.718 214.25C307.31 214.4 306.878 214.48 306.422 214.48C305.894 214.48 305.39 214.38 304.91 214.17C304.61 214.27 304.406 214.4 304.298 214.55C304.19 214.7 304.136 214.85 304.136 215.02C304.136 215.28 304.244 215.47 304.46 215.58C304.676 215.69 304.958 215.74 305.306 215.74H307.736C308.672 215.74 309.416 215.93 309.968 216.32C310.52 216.7 310.796 217.25 310.796 217.97C310.796 218.48 310.67 218.91 310.418 219.29C310.166 219.67 309.83 219.98 309.41 220.22C309.002 220.47 308.522 220.66 307.97 220.78C307.43 220.9 306.866 220.96 306.278 220.96C305.714 220.96 305.192 220.91 304.712 220.82C304.244 220.72 303.836 220.57 303.488 220.37C303.14 220.17 302.864 219.92 302.66 219.61C302.468 219.3 302.372 218.93 302.372 218.49C302.372 218.07 302.486 217.7 302.714 217.38C302.954 217.07 303.212 216.82 303.488 216.64C303.248 216.47 303.068 216.27 302.948 216.03C302.84 215.78 302.786 215.51 302.786 215.24C302.786 215 302.816 214.79 302.876 214.61C302.948 214.41 303.038 214.25 303.146 214.12C303.254 213.98 303.374 213.86 303.506 213.76C303.638 213.65 303.77 213.56 303.902 213.47C303.626 213.2 303.41 212.88 303.254 212.52C303.11 212.15 303.038 211.73 303.038 211.28ZM309.356 218.12C309.356 217.73 309.188 217.47 308.852 217.32C308.528 217.18 308.036 217.11 307.376 217.11H305.216C305.108 217.11 305.006 217.1 304.91 217.09C304.826 217.09 304.736 217.08 304.64 217.07C304.076 217.37 303.794 217.79 303.794 218.31C303.794 218.57 303.86 218.78 303.992 218.96C304.124 219.14 304.304 219.29 304.532 219.39C304.76 219.51 305.024 219.6 305.324 219.65C305.636 219.71 305.966 219.74 306.314 219.74C306.758 219.74 307.166 219.7 307.538 219.63C307.91 219.56 308.228 219.45 308.492 219.3C308.768 219.17 308.978 219 309.122 218.8C309.278 218.61 309.356 218.38 309.356 218.12ZM304.46 211.28C304.46 211.85 304.646 212.32 305.018 212.68C305.402 213.03 305.87 213.2 306.422 213.2C306.974 213.2 307.436 213.03 307.808 212.68C308.192 212.32 308.384 211.85 308.384 211.28C308.384 210.71 308.192 210.25 307.808 209.89C307.436 209.53 306.974 209.35 306.422 209.35C305.87 209.35 305.402 209.53 305.018 209.89C304.646 210.25 304.46 210.71 304.46 211.28ZM319.759 216.08C319.267 216.43 318.733 216.71 318.157 216.91C317.581 217.1 316.987 217.2 316.375 217.2C315.679 217.2 315.049 217.08 314.485 216.86C313.921 216.62 313.435 216.29 313.027 215.88C312.631 215.46 312.325 214.98 312.109 214.43C311.893 213.87 311.785 213.27 311.785 212.63C311.785 211.98 311.893 211.38 312.109 210.83C312.325 210.26 312.619 209.78 312.991 209.37C313.375 208.96 313.831 208.64 314.359 208.41C314.887 208.17 315.469 208.05 316.105 208.05C316.717 208.05 317.275 208.17 317.779 208.41C318.283 208.64 318.715 208.96 319.075 209.37C319.447 209.78 319.729 210.26 319.921 210.81C320.125 211.35 320.227 211.93 320.227 212.55C320.227 212.65 320.221 212.73 320.209 212.81C320.209 212.87 320.209 212.92 320.209 212.97C320.197 213.02 320.191 213.06 320.191 213.11H313.333C313.369 213.47 313.465 213.82 313.621 214.16C313.789 214.48 314.005 214.76 314.269 215C314.545 215.24 314.869 215.43 315.241 215.58C315.613 215.72 316.027 215.79 316.483 215.79C317.599 215.79 318.691 215.33 319.759 214.41V216.08ZM318.661 211.83C318.625 211.49 318.535 211.17 318.391 210.88C318.259 210.58 318.079 210.32 317.851 210.11C317.635 209.89 317.371 209.72 317.059 209.6C316.759 209.47 316.429 209.4 316.069 209.4C315.709 209.4 315.367 209.48 315.043 209.62C314.731 209.76 314.455 209.95 314.215 210.18C313.975 210.41 313.777 210.66 313.621 210.95C313.477 211.24 313.393 211.53 313.369 211.83H318.661ZM321.876 214.59C322.272 214.95 322.716 215.24 323.208 215.47C323.7 215.7 324.216 215.81 324.756 215.81C324.972 215.81 325.182 215.79 325.386 215.76C325.59 215.71 325.77 215.64 325.926 215.54C326.082 215.45 326.208 215.33 326.304 215.18C326.4 215.03 326.448 214.83 326.448 214.61C326.448 214.38 326.394 214.19 326.286 214.03C326.19 213.87 326.052 213.74 325.872 213.63C325.704 213.53 325.5 213.44 325.26 213.36C325.032 213.29 324.78 213.23 324.504 213.17C324.192 213.09 323.874 213.01 323.55 212.91C323.238 212.81 322.956 212.66 322.704 212.48C322.452 212.29 322.248 212.05 322.092 211.76C321.936 211.47 321.858 211.12 321.858 210.7C321.858 210.26 321.942 209.87 322.11 209.55C322.29 209.21 322.518 208.94 322.794 208.72C323.082 208.49 323.406 208.32 323.766 208.22C324.138 208.11 324.522 208.05 324.918 208.05C325.386 208.05 325.848 208.13 326.304 208.27C326.76 208.4 327.18 208.6 327.564 208.86V210.5C327.18 210.19 326.766 209.93 326.322 209.73C325.878 209.52 325.422 209.42 324.954 209.42C324.774 209.42 324.588 209.44 324.396 209.48C324.204 209.51 324.03 209.58 323.874 209.67C323.73 209.76 323.61 209.87 323.514 210.02C323.418 210.15 323.37 210.32 323.37 210.52C323.37 210.92 323.538 211.22 323.874 211.42C324.21 211.61 324.63 211.77 325.134 211.91C325.542 212 325.92 212.12 326.268 212.25C326.616 212.38 326.916 212.55 327.168 212.75C327.42 212.94 327.618 213.18 327.762 213.47C327.906 213.75 327.978 214.08 327.978 214.48C327.978 214.92 327.888 215.32 327.708 215.67C327.54 216 327.306 216.29 327.006 216.51C326.718 216.74 326.376 216.91 325.98 217.02C325.584 217.14 325.17 217.2 324.738 217.2C324.258 217.2 323.766 217.13 323.262 216.98C322.758 216.84 322.296 216.61 321.876 216.3V214.59Z" fill="#D9D9E0"/>
</g>
<path d="M436 0.5H20C11.4396 0.5 4.5 7.43959 4.5 16V232C4.5 240.56 11.4396 247.5 20 247.5H436C444.56 247.5 451.5 240.56 451.5 232V16C451.5 7.43959 444.56 0.5 436 0.5Z" stroke="url(#paint0_radial_1_3)"/>
<path d="M436 0.5H20C11.4396 0.5 4.5 7.43959 4.5 16V232C4.5 240.56 11.4396 247.5 20 247.5H436C444.56 247.5 451.5 240.56 451.5 232V16C451.5 7.43959 444.56 0.5 436 0.5Z" stroke="url(#paint1_radial_1_3)"/>
<path d="M436 0.5H20C11.4396 0.5 4.5 7.43959 4.5 16V232C4.5 240.56 11.4396 247.5 20 247.5H436C444.56 247.5 451.5 240.56 451.5 232V16C451.5 7.43959 444.56 0.5 436 0.5Z" stroke="url(#paint2_radial_1_3)"/>
<path d="M436 0.5H20C11.4396 0.5 4.5 7.43959 4.5 16V232C4.5 240.56 11.4396 247.5 20 247.5H436C444.56 247.5 451.5 240.56 451.5 232V16C451.5 7.43959 444.56 0.5 436 0.5Z" stroke="url(#paint3_radial_1_3)"/>
<path d="M436 0.5H20C11.4396 0.5 4.5 7.43959 4.5 16V232C4.5 240.56 11.4396 247.5 20 247.5H436C444.56 247.5 451.5 240.56 451.5 232V16C451.5 7.43959 444.56 0.5 436 0.5Z" stroke="url(#paint4_radial_1_3)" stroke-opacity="0.5"/>
<path d="M436 0.5H20C11.4396 0.5 4.5 7.43959 4.5 16V232C4.5 240.56 11.4396 247.5 20 247.5H436C444.56 247.5 451.5 240.56 451.5 232V16C451.5 7.43959 444.56 0.5 436 0.5Z" stroke="url(#paint5_radial_1_3)" stroke-opacity="0.5"/>
</g>
<defs>
<filter id="filter0_d_1_3" x="0" y="0" width="456" height="256" filterUnits="userSpaceOnUse" color-interpolation-filters="sRGB">
<feFlood flood-opacity="0" result="BackgroundImageFix"/>
<feColorMatrix in="SourceAlpha" type="matrix" values="0 0 0 0 0 0 0 0 0 0 0 0 0 0 0 0 0 0 127 0" result="hardAlpha"/>
<feOffset dy="4"/>
<feGaussianBlur stdDeviation="2"/>
<feComposite in2="hardAlpha" operator="out"/>
<feColorMatrix type="matrix" values="0 0 0 0 0 0 0 0 0 0 0 0 0 0 0 0 0 0 0.25 0"/>
<feBlend mode="normal" in2="BackgroundImageFix" result="effect1_dropShadow_1_3"/>
<feBlend mode="normal" in="SourceGraphic" in2="effect1_dropShadow_1_3" result="shape"/>
</filter>
<filter id="filter1_d_1_3" x="-58" y="-46" width="572" height="182" filterUnits="userSpaceOnUse" color-interpolation-filters="sRGB">
<feFlood flood-opacity="0" result="BackgroundImageFix"/>
<feColorMatrix in="SourceAlpha" type="matrix" values="0 0 0 0 0 0 0 0 0 0 0 0 0 0 0 0 0 0 127 0" result="hardAlpha"/>
<feOffset dy="16"/>
<feGaussianBlur stdDeviation="31"/>
<feComposite in2="hardAlpha" operator="out"/>
<feColorMatrix type="matrix" values="0 0 0 0 0 0 0 0 0 0 0 0 0 0 0 0 0 0 0.24 0"/>
<feBlend mode="normal" in2="BackgroundImageFix" result="effect1_dropShadow_1_3"/>
<feBlend mode="normal" in="SourceGraphic" in2="effect1_dropShadow_1_3" result="shape"/>
</filter>
<radialGradient id="paint0_radial_1_3" cx="0" cy="0" r="1" gradientUnits="userSpaceOnUse" gradientTransform="translate(242.806 268.52) rotate(-174.897) scale(230.643 65.0252)">
<stop stop-color="#6348FE"/>
<stop offset="1" stop-color="#6348FE" stop-opacity="0"/>
</radialGradient>
<radialGradient id="paint1_radial_1_3" cx="0" cy="0" r="1" gradientUnits="userSpaceOnUse" gradientTransform="translate(452 27.51) rotate(123.775) scale(274.486 83.8255)">
<stop stop-color="#6348FE"/>
<stop offset="1" stop-color="#6348FE" stop-opacity="0"/>
</radialGradient>
<radialGradient id="paint2_radial_1_3" cx="0" cy="0" r="1" gradientUnits="userSpaceOnUse" gradientTransform="translate(4 7.67) rotate(37.018) scale(138.179 161.136)">
<stop stop-color="#6447FF"/>
<stop offset="1" stop-color="#6447FF" stop-opacity="0"/>
</radialGradient>
<radialGradient id="paint3_radial_1_3" cx="0" cy="0" r="1" gradientUnits="userSpaceOnUse" gradientTransform="translate(4 -2.53454e-06) scale(108.45 97.2507)">
<stop stop-color="white" stop-opacity="0.81"/>
<stop offset="1" stop-color="white" stop-opacity="0.19"/>
</radialGradient>
<radialGradient id="paint4_radial_1_3" cx="0" cy="0" r="1" gradientUnits="userSpaceOnUse" gradientTransform="translate(452.133 -1.77587e-06) rotate(90) scale(99.448 94.9516)">
<stop stop-opacity="0.5"/>
<stop offset="1" stop-opacity="0"/>
</radialGradient>
<radialGradient id="paint5_radial_1_3" cx="0" cy="0" r="1" gradientUnits="userSpaceOnUse" gradientTransform="translate(4 213.9) rotate(68.4441) scale(109.993 193.031)">
<stop stop-opacity="0.5"/>
<stop offset="1" stop-opacity="0"/>
</radialGradient>
</defs>
</svg>
