<svg width="18" height="18" viewBox="0 0 16 28" fill="none" xmlns="http://www.w3.org/2000/svg">
<path d="M4.0105 5.4034C4.0105 5.22887 4.03474 4.85191 4.08323 4.27497C4.13535 3.69681 4.35352 3.09199 4.74502 2.45686C5.13288 1.82416 5.76194 1.2557 6.63706 0.752695C7.50853 0.25211 8.76787 0 10.4114 0H15.0415V5.04584H11.6514C11.3156 5.04584 11.0029 5.1719 10.7205 5.42037C10.4405 5.66885 10.2963 5.9052 10.2963 6.12458V9.26384H15.0403C14.9906 9.87836 14.9361 10.4759 14.8731 11.0529L14.6852 12.5776C14.61 13.0928 14.5337 13.5703 14.4585 14.0103H10.2624V28H4.0105V14.0091H0.960938V9.26384H4.0105V5.4034Z" fill="#7CE3E2"/>
</svg>
