<svg width="20" height="16" viewBox="0 0 20 16" fill="none" xmlns="http://www.w3.org/2000/svg">
<path d="M19.6203 5.28333C19.7726 5.15417 19.9992 5.275 19.9992 5.47917V14C19.9992 15.1042 19.1594 16 18.1242 16H1.87421C0.83905 16 -0.000793457 15.1042 -0.000793457 14V5.48333C-0.000793457 5.275 0.221863 5.15833 0.378113 5.2875C1.25311 6.0125 2.41327 6.93333 6.39764 10.0208C7.22186 10.6625 8.61249 12.0125 9.99921 12.0042C11.3937 12.0167 12.8117 10.6375 13.6047 10.0208C17.5891 6.93333 18.7453 6.00833 19.6203 5.28333ZM9.99921 10.6667C10.9055 10.6833 12.2101 9.45 12.8664 8.94167C18.05 4.92917 18.4445 4.57917 19.6398 3.57917C19.8664 3.39167 19.9992 3.1 19.9992 2.79167V2C19.9992 0.895833 19.1594 0 18.1242 0H1.87421C0.83905 0 -0.000793457 0.895833 -0.000793457 2V2.79167C-0.000793457 3.1 0.132019 3.3875 0.358582 3.57917C1.55389 4.575 1.94843 4.92917 7.13202 8.94167C7.78827 9.45 9.09296 10.6833 9.99921 10.6667Z" fill="#1E4397"/>
</svg>
