<svg width="61" height="66" viewBox="0 0 61 66" fill="none" xmlns="http://www.w3.org/2000/svg">
<ellipse cx="28.9692" cy="28.9692" rx="28.9692" ry="28.9692" fill="#DDF1F1"/>
<path d="M42.3014 49.4692L42.8673 48.825H41.7109L42.3014 49.4692Z" fill="white"/>
<path d="M48.8778 34.0423H28.1808V31.0699H48.8778V34.0423ZM48.8778 38.9708H24.6509V35.9985H48.8778V38.9708ZM20.9668 20.9637V63.8474H45.2521V57.735C45.2521 57.4713 45.3599 57.2136 45.547 57.0271C45.7339 56.8408 45.9918 56.734 46.2564 56.734H52.6432V43.2165L43.6867 53.37C43.3465 53.7551 42.8578 53.9782 42.3255 53.9837C41.8186 53.9837 41.3309 53.7701 40.9887 53.3976L36.7842 48.8276H24.6509V45.8552H45.4349V45.9116L47.2103 43.8994H24.6509V40.9266H48.8778V42.0085L52.6432 37.7404V20.9637H20.9668Z" fill="white"/>
<path d="M47.2637 63.8833V58.7361H52.6101L47.2637 63.8833ZM52.6466 56.734H46.2597C45.9951 56.734 45.7373 56.8408 45.5503 57.0271C45.3633 57.2136 45.2554 57.4713 45.2554 57.735V63.8474H20.9701V20.9637H52.6466V37.7404L54.6542 35.4648V19.9627C54.6542 19.699 54.5469 19.4413 54.3604 19.2547C54.1734 19.0685 53.9146 18.9616 53.6504 18.9616H19.9668C19.7016 18.9616 19.4438 19.0685 19.2568 19.2547C19.0697 19.4413 18.9629 19.699 18.9629 19.9627V64.8489C18.9629 65.1128 19.0697 65.3705 19.2568 65.5569C19.4438 65.7432 19.7016 65.8501 19.9668 65.8501H47.5147C47.7788 65.8501 48.0352 65.7451 48.2217 65.5593L51.3166 62.4926L51.3207 62.4884L54.3615 59.4428C54.5485 59.2557 54.6542 58.9995 54.6542 58.7361V40.9407L52.6466 43.2165V56.734Z" fill="#616E7D"/>
<path d="M47.2637 63.8833L52.6101 58.7361H47.2637V63.8833Z" fill="white"/>
<path d="M28.1816 34.0425H48.8786V31.0701H28.1816V34.0425Z" fill="#82BFAB"/>
<path d="M24.6562 38.9712H48.8832V35.9988H24.6562V38.9712Z" fill="#82BFAB"/>
<path d="M24.6562 40.9264V43.8992H47.2157L48.8832 42.0083V40.9264H24.6562Z" fill="#82BFAB"/>
<path d="M24.6562 45.8553V48.8276H36.7896L36.0675 48.0427L35.1793 47.0771C35.0308 46.915 35.0058 46.6752 35.1184 46.486C35.2095 46.3324 35.3742 46.2415 35.5476 46.2415L35.6675 46.2564L40.2746 47.388C40.37 47.412 40.4559 47.4631 40.5226 47.5353L41.7119 48.8276H42.8679L45.4403 45.9116V45.8553H24.6562Z" fill="#82BFAB"/>
<path d="M59.8309 34.321L57.8586 32.5897C57.7674 32.5089 57.6502 32.4649 57.5288 32.4649L57.497 32.466C57.3642 32.474 57.2407 32.5349 57.1536 32.6343L54.6568 35.4647L52.6491 37.7403L48.8837 42.0084L47.2162 43.8993L45.4408 45.9115L42.8684 48.8275L42.3027 49.469L41.7124 48.8275L40.5232 47.5352C40.4564 47.463 40.3705 47.4119 40.2752 47.3879L35.668 46.2563L35.5482 46.2414C35.3747 46.2414 35.2101 46.3323 35.1189 46.4859C35.0063 46.6751 35.0314 46.9149 35.1798 47.077L36.0681 48.0426L36.7901 48.8275L40.9946 53.3975C41.3368 53.77 41.8245 53.9836 42.3314 53.9836C42.8637 53.9781 43.3524 53.755 43.6926 53.3699L52.6491 43.2164L54.6568 40.9406L59.8762 35.0238C60.059 34.8175 60.0387 34.5026 59.8309 34.321Z" fill="#AAD4C8"/>
</svg>
