<svg width="61" height="68" viewBox="0 0 61 68" fill="none" xmlns="http://www.w3.org/2000/svg">
<ellipse opacity="0.2" cx="28.2808" cy="28.3336" rx="28.2808" ry="28.3336" fill="#7CE3E2"/>
<path d="M15.1686 27.7046C15.1686 20.2142 21.354 14.1203 28.9566 14.1203C33.8328 14.1203 38.1169 16.6334 40.568 20.4097L41.2685 20.0081C38.6757 15.996 34.1315 13.3211 28.9566 13.3211C20.9073 13.3211 14.3574 19.774 14.3574 27.7046C14.3574 35.6357 20.9073 42.0887 28.9566 42.0887C29.7364 42.0887 30.4958 42.0099 31.2422 41.8943C32.2495 47.1399 36.9174 51.109 42.535 51.109C48.8877 51.109 54.0375 46.0368 54.0375 39.7786C54.0375 33.8461 49.4069 28.9844 43.5158 28.4937C43.5307 28.231 43.5563 27.9714 43.5563 27.7046C43.5563 25.3295 42.9588 23.0919 41.9177 21.1158L41.2168 21.5175C42.1868 23.377 42.7447 25.4763 42.7447 27.7046C42.7447 27.9584 42.719 28.2046 42.7051 28.4534C42.6483 28.4534 42.5926 28.4444 42.535 28.4444C42.3334 28.4444 42.1382 28.4653 41.9411 28.4742C41.9565 28.2192 41.9807 27.9657 41.9807 27.7046C41.9807 25.6112 41.4606 23.6421 40.558 21.8955L37.739 23.5133C38.3643 24.7823 38.7252 26.1997 38.7252 27.7046C38.7252 28.194 38.6757 28.6701 38.6046 29.1386C35.0534 30.4137 32.3247 33.3583 31.3929 37.0147C30.6141 37.212 29.7997 37.329 28.9566 37.329C23.5613 37.329 19.1881 33.0202 19.1881 27.7046C19.1881 22.3909 23.5613 18.082 28.9566 18.082C32.3598 18.082 35.3527 19.7975 37.101 22.3982L39.9125 20.7852C37.5968 17.2325 33.5602 14.8737 28.9566 14.8737C21.7652 14.8737 15.9325 20.6191 15.9325 27.7046C15.9325 34.7921 21.7652 40.536 28.9566 40.536C29.6765 40.536 30.3756 40.4651 31.0636 40.3539C31.0766 40.6058 31.091 40.8579 31.1207 41.1054C30.4135 41.2165 29.6941 41.2892 28.9566 41.2892C21.354 41.2892 15.1686 35.1955 15.1686 27.7046Z" fill="#616E7D"/>
<path d="M28.956 21.2889C31.157 21.2889 33.1006 22.3685 34.2789 24.0172L37.1003 22.3979C35.352 19.7972 32.3591 18.0818 28.956 18.0818C23.5606 18.0818 19.1875 22.3906 19.1875 27.7043C19.1875 33.0199 23.5606 37.3287 28.956 37.3287C29.7991 37.3287 30.6135 37.2117 31.3923 37.0145C32.324 33.3581 35.0528 30.4134 38.604 29.1383C38.675 28.6698 38.7245 28.1938 38.7245 27.7043C38.7245 26.1994 38.3637 24.7821 37.7383 23.513L34.9183 25.1305C35.2692 25.9195 35.4676 26.7881 35.4676 27.7043C35.4676 31.2481 32.5526 34.1203 28.956 34.1203C25.3594 34.1203 22.444 31.2481 22.444 27.7043C22.444 24.1608 25.3594 21.2889 28.956 21.2889Z" fill="white"/>
<path d="M28.9554 24.4976C29.9551 24.4976 30.8383 24.9499 31.4339 25.6481L34.2783 24.0172C33.1 22.3685 31.1564 21.2889 28.9554 21.2889C25.3588 21.2889 22.4434 24.1609 22.4434 27.7044C22.4434 31.2482 25.3588 34.1204 28.9554 34.1204C32.5519 34.1204 35.467 31.2482 35.467 27.7044C35.467 26.7882 35.2686 25.9196 34.9177 25.1305L32.0539 26.7735C32.1462 27.0701 32.2101 27.3782 32.2101 27.7044C32.2101 29.4761 30.7542 30.913 28.9554 30.913C27.1571 30.913 25.6984 29.4761 25.6984 27.7044C25.6984 25.9326 27.1571 24.4976 28.9554 24.4976Z" fill="#616E7D"/>
<path d="M29.3996 26.8149L31.4328 25.6483C30.8371 24.9501 29.9539 24.4977 28.9542 24.4977C27.1559 24.4977 25.6973 25.9328 25.6973 27.7046C25.6973 29.4763 27.1559 30.9132 28.9542 30.9132C30.753 30.9132 32.2089 29.4763 32.2089 27.7046C32.2089 27.3783 32.145 27.0703 32.0528 26.7737L29.9728 27.9672C29.7083 28.1199 29.3672 28.0383 29.2017 27.782L29.1711 27.7343C28.9695 27.42 29.073 27.002 29.3996 26.8149Z" fill="white"/>
<path d="M47.7764 19.9026C47.905 19.9707 48.0616 19.9693 48.1876 19.8953L48.6213 19.6478C48.6861 19.6108 48.7248 19.5407 48.7248 19.4667C48.7234 19.3911 48.6829 19.3231 48.615 19.2874L46.6479 18.2273L46.8725 18.0965L46.9701 17.9693L46.9476 17.8119L46.6758 17.3658C46.6155 17.2694 46.4869 17.2366 46.3875 17.2931L46.1557 17.4268L46.1441 15.2396C46.1427 15.1656 46.1035 15.0987 46.037 15.0616H45.8283L45.3977 15.3092C45.268 15.3832 45.1898 15.5198 45.1898 15.6667L45.2033 17.9737L45.0895 18.0404L45.076 15.852C45.076 15.7793 45.0355 15.7095 44.9707 15.674L44.7601 15.6756L44.3291 15.9216C44.1995 15.9958 44.1213 16.1319 44.1213 16.2789L44.1366 18.5859L44.0205 18.6526L44.0074 16.4644C44.0074 16.3917 43.9669 16.3235 43.9017 16.2862L43.6925 16.2877L43.262 16.534C43.1328 16.6082 43.0531 16.7445 43.0549 16.8913L43.0662 18.8574C43.0662 18.9301 43.0289 18.9968 42.9641 19.0354L41.2684 20.0079L40.5679 20.4096L39.9123 20.785L37.1008 22.398L34.2794 24.0173L31.4351 25.6481L29.4019 26.8148C29.0753 27.0019 28.9718 27.4199 29.1734 27.7342L29.204 27.7819C29.3695 28.0382 29.7106 28.1198 29.9751 27.9671L32.0551 26.7736L34.9188 25.1306L37.7388 23.5131L40.5579 21.8954L41.2166 21.5173L41.9176 21.1156L43.6115 20.1445L43.8139 20.1413L45.6411 21.1272C45.7693 21.1955 45.9254 21.1941 46.0505 21.1232L46.4842 20.8738C46.5508 20.8355 46.5894 20.7672 46.5877 20.6915C46.5877 20.6172 46.5463 20.5492 46.4802 20.5135L44.5127 19.4518L44.6225 19.3898L46.71 20.5135C46.8379 20.5846 46.9926 20.582 47.119 20.5093L47.5523 20.2615C47.6189 20.2229 47.658 20.1533 47.658 20.0792C47.6562 20.005 47.6144 19.9352 47.5487 19.8998L45.5812 18.8397L45.6915 18.7759L47.7764 19.9026Z" fill="#AAD4C8"/>
<path d="M41.2273 57.5458L39.9193 55.1755H39.918L41.2273 57.5458Z" fill="#616E7D"/>
<path d="M46.8158 66.1716H38.2468L35.7669 53.3402C36.0107 53.3224 36.2545 53.305 36.501 53.305H48.5614C48.8098 53.305 49.0536 53.3224 49.2957 53.3402L46.8158 66.1716ZM35.8735 52.1795C29.9027 52.1795 25.0625 56.9478 25.0625 62.8314V67.9999H60.0018V62.8314C60.0018 56.9478 55.1608 52.1795 49.1887 52.1795H35.8735Z" fill="#616E7D"/>
<path d="M43.8924 57.5456L45.2233 66.1716H46.8204L49.3003 53.3403C49.0583 53.3225 48.8144 53.305 48.5661 53.305H36.5057C36.2592 53.305 36.0153 53.3225 35.7715 53.3403L38.2514 66.1716H39.8481L41.1812 57.5456H41.2284L39.9192 55.1761H39.9205H45.1531L43.8447 57.5456H43.8924Z" fill="white"/>
<path d="M39.8477 66.1716H45.2228L43.8919 57.5456H43.8443L45.1527 55.1761H39.9201L41.228 57.5456H41.1808L39.8477 66.1716Z" fill="#AAD4C8"/>
</svg>
