<svg width="62" height="59" viewBox="0 0 62 59" fill="none" xmlns="http://www.w3.org/2000/svg">
<ellipse opacity="0.2" cx="25.8443" cy="27.6408" rx="25.8443" ry="27.6408" fill="#7CE3E2"/>
<path d="M19.2914 19.0147C18.6634 19.0944 18.14 19.3684 17.7167 19.8392C17.3376 20.2626 17.1282 20.706 17.0352 21.2839C17.0049 21.4682 17.0003 23.3812 17.0003 36.2566C17.0003 52.6067 16.9863 51.2019 17.1515 51.6951C17.4353 52.547 18.0749 53.1672 18.9309 53.4237L19.1286 53.4835L31.7005 53.496L44.2724 53.5084L44.4352 53.8347C44.8679 54.7016 45.3377 55.3716 46.0285 56.1139C46.4588 56.5747 46.8403 56.9234 47.266 57.2398C49.1733 58.6646 51.5016 59.2549 53.8089 58.8987C57.8143 58.281 60.9916 54.8784 61.5638 50.5941C61.687 49.6775 61.687 48.6562 61.5638 47.7794C61.3195 46.0258 60.6659 44.4217 59.6309 43.0418L59.4029 42.7404V32.1192C59.4029 20.5615 59.4099 21.2914 59.275 20.8679C59.1075 20.3349 58.7819 19.8591 58.3586 19.5228C58.1888 19.3858 57.8701 19.214 57.6445 19.1343C57.2258 18.9873 58.7051 18.9973 38.19 19.0022C27.8347 19.0022 19.3309 19.0097 19.2914 19.0147ZM53.46 40.5285C54.0555 40.6131 54.5463 40.7302 55.0161 40.8971C56.307 41.3579 57.3747 42.0728 58.3213 43.1115C59.3099 44.195 59.9891 45.4654 60.3542 46.9076C60.5682 47.7495 60.6473 48.4818 60.6287 49.3985C60.6148 50.0411 60.5822 50.3625 60.4729 50.9354C60.0914 52.9355 59.0284 54.7838 57.5421 56.0292C56.3303 57.0455 55.0231 57.6259 53.4251 57.86C53.0716 57.9098 51.883 57.9024 51.4946 57.8476C49.9618 57.6259 48.6173 57.0181 47.4311 56.0068C47.0682 55.7004 46.4356 55.0254 46.1588 54.6542C45.5284 53.8049 45.0726 52.9081 44.7585 51.8894C44.1073 49.7696 44.2492 47.4581 45.1586 45.428C45.9541 43.6545 47.2497 42.2521 48.9011 41.3778C49.8804 40.8597 50.7735 40.5957 51.9365 40.4836C52.1598 40.4637 53.2158 40.4936 53.46 40.5285ZM43.8351 45.981C43.8282 46.0109 43.7747 46.2027 43.7188 46.4094C43.5421 47.0396 43.4304 47.6698 43.3606 48.427L43.342 48.6263H35.9221H28.5023L28.4906 48.1157C28.479 47.6349 28.4767 47.6001 28.4255 47.5104C28.2092 47.1393 27.7231 47.1617 27.53 47.5527C27.4835 47.6449 27.4788 47.6997 27.4719 48.1456L27.4626 48.6388H24.0271H20.5916L20.4893 48.6936C20.1241 48.8928 20.1241 49.4458 20.4893 49.6526L20.5893 49.7098H24.0271H27.4626L27.4719 50.2005C27.4788 50.6514 27.4835 50.7037 27.53 50.7984C27.6254 50.9877 27.8045 51.1047 28.0022 51.1047C28.1115 51.1047 28.3069 51.0026 28.372 50.9154C28.479 50.7685 28.4906 50.7037 28.4906 50.1931V49.7098H35.9198H43.3467L43.363 49.9266C43.4095 50.5891 43.549 51.3812 43.7235 52.0064L43.8351 52.4L31.5284 52.395L19.2216 52.3875L19.0704 52.3327C18.8471 52.2505 18.6401 52.1111 18.468 51.9242C18.2912 51.7349 18.1865 51.5581 18.0982 51.299L18.0354 51.1172L18.0284 48.5192L18.0237 45.9237H30.9352H43.8468L43.8351 45.981Z" fill="#616E7D"/>
<path d="M34.9125 26.1707C34.8078 26.2181 34.7008 26.3252 34.652 26.4298L34.6055 26.5369L34.6101 32.4528L34.6171 38.3711L34.6892 38.4782C34.8009 38.6426 34.9288 38.7049 35.1288 38.6949L35.2916 38.6849L38.0014 37.0086C42.7883 34.0444 43.8885 33.3644 44.3397 33.0879C44.5188 32.9783 44.6956 32.8588 44.7305 32.8239C44.9491 32.6122 44.9468 32.2161 44.7281 32.0193C44.6909 31.9845 44.4351 31.8201 44.1629 31.6507C43.0278 30.9507 37.1501 27.3141 36.2569 26.7611L35.2916 26.1608L35.1288 26.1533C35.0404 26.1508 34.9427 26.1583 34.9125 26.1707Z" fill="#AAD4C8"/>
<path d="M52.2466 43.333C52.1629 43.3853 52.1047 43.4426 52.0605 43.5248C51.9977 43.6418 51.9954 43.6543 51.9884 44.0977L51.9791 44.5485L51.8372 44.566C51.6093 44.5909 51.1976 44.6955 51.0022 44.7752C50.2672 45.0791 49.7578 45.6196 49.5461 46.322C49.4787 46.5462 49.4485 46.7654 49.4485 47.0519C49.4485 47.6273 49.6252 48.1055 49.9811 48.4891C50.1858 48.7108 50.3509 48.8353 50.658 48.9997C51.0604 49.2164 51.4255 49.3435 52.1931 49.5353C53.8446 49.9463 54.3772 50.2028 54.6005 50.6885C54.8378 51.2091 54.6982 51.8667 54.2749 52.2329C53.4933 52.9079 51.8721 52.9054 50.9441 52.2304C50.644 52.0137 50.3998 51.6426 50.2858 51.2316C50.1951 50.9053 50.0416 50.7533 49.7834 50.7359C49.5043 50.7159 49.274 50.8779 49.2019 51.1469C49.16 51.3013 49.1693 51.391 49.2554 51.6899C49.4624 52.4023 49.9625 53.0474 50.5766 53.3887C50.9068 53.5705 51.5279 53.7648 51.8907 53.7997L51.9721 53.8071L51.9838 54.2679C51.9954 54.6765 52.0024 54.7412 52.0466 54.8284C52.1419 55.0202 52.3024 55.1223 52.5094 55.1198C52.7211 55.1173 52.9281 54.9529 52.9816 54.7487C52.9956 54.6964 53.0072 54.4722 53.0072 54.2505V53.847L53.1189 53.8345C54.0423 53.7175 54.6633 53.421 55.1773 52.8506C55.6356 52.3425 55.8449 51.7447 55.8147 51.0298C55.7821 50.2427 55.5425 49.7669 54.9354 49.2862C54.5051 48.9449 53.8678 48.6983 52.6002 48.3895C51.1511 48.0358 50.7161 47.7966 50.5742 47.2785C50.4789 46.9198 50.5579 46.5014 50.7743 46.2324C51.1139 45.8089 51.8931 45.5773 52.7258 45.6495C53.3375 45.7018 53.7213 45.8662 54.0213 46.2C54.1911 46.3918 54.2656 46.5213 54.3586 46.7978C54.4447 47.0494 54.5098 47.1465 54.654 47.2362C54.7447 47.2935 54.7912 47.3059 54.9261 47.3059C55.0634 47.3059 55.1076 47.2935 55.2006 47.2362C55.3425 47.1465 55.4402 47.002 55.4727 46.8302C55.496 46.7156 55.4914 46.6708 55.4495 46.5064C55.2774 45.8313 54.8261 45.2659 54.1795 44.9197C53.919 44.7777 53.2631 44.5784 53.063 44.5784H53.0072V44.1525C53.0072 43.9034 52.9956 43.6842 52.9816 43.6294C52.8909 43.3056 52.5281 43.1586 52.2466 43.333Z" fill="#6A7B86"/>
</svg>
