<svg width="70" height="64" viewBox="0 0 70 64" fill="none" xmlns="http://www.w3.org/2000/svg">
<circle opacity="0.2" cx="27.5816" cy="27.5816" r="27.5816" fill="#7CE3E2"/>
<path d="M61.331 11.041C60.8381 11.1266 60.167 11.5013 59.8524 11.8546C59.758 11.9724 59.5797 12.2829 59.4644 12.5398C59.2651 12.9895 59.2441 13.2357 59.2441 15.9658C59.2441 18.8243 59.2546 18.9206 59.4958 19.4452C59.6217 19.745 59.9048 20.1304 60.1145 20.3231C60.7647 20.912 61.0059 20.9441 64.1729 20.9441H67.0672L67.5811 20.6657C68.1683 20.366 68.7241 19.6915 68.8919 19.0919C69.0597 18.4389 69.0282 13.2999 68.8395 12.7646C68.6088 12.0795 68.1893 11.6084 67.5496 11.2872L66.9519 10.9874L64.3826 10.966C62.9669 10.9553 61.5932 10.9874 61.331 11.041Z" fill="#AAD4C8"/>
<path d="M40.8389 13.9748C39.6224 14.2745 38.5108 15.206 37.976 16.3729L37.6929 16.9832L37.6614 26.0512L37.6404 35.13H35.0712H32.502V37.2712V39.4124H35.0712H37.6404L37.6614 48.4805L37.6929 57.5592L37.976 58.1695C38.5003 59.3257 39.5805 60.225 40.8284 60.5676C41.2584 60.6854 42.9048 60.7175 49.2597 60.7175H57.1457V58.5763V56.4351L49.5219 56.4137L41.8876 56.3816L41.8561 47.8916L41.8351 39.4124H49.1234H56.4116V37.2712V35.13H49.1234H41.8351L41.8561 26.6401L41.8876 18.1608L49.5219 18.1287L57.1457 18.1073V15.9661V13.8249L49.2597 13.8356C43.4396 13.8356 41.2269 13.8784 40.8389 13.9748Z" fill="#AAD4C8"/>
<path d="M22.1675 20.9015C21.2761 21.1584 20.2799 22.1969 20.0282 23.1177C19.6087 24.6807 20.3008 26.3723 21.6536 27.0896C22.5974 27.5821 23.8034 27.5821 24.7472 27.1003C25.1667 26.8755 25.9112 26.1047 26.1419 25.6443C26.4356 25.0555 26.5404 24.2311 26.4146 23.5245C26.2258 22.4111 25.6071 21.5867 24.5899 21.0942C24.0761 20.8373 23.8349 20.7837 23.2266 20.7944C22.8281 20.7944 22.3457 20.848 22.1675 20.9015Z" fill="#616E7D"/>
<path d="M17.0003 29.1344C16.4236 29.2735 15.8678 29.7232 15.6056 30.2799L15.3539 30.7938L15.3225 36.7571L15.291 42.7204L15.5846 43.0523C15.7524 43.2343 16.0356 43.4163 16.2453 43.4698C16.7487 43.5769 17.4303 43.4163 17.6925 43.1272C17.9022 42.9024 17.9127 42.7418 17.9861 38.4701L18.0595 34.0592H18.5629H19.0767L19.0977 45.1078C19.1291 55.1608 19.1501 56.1993 19.3074 56.4884C19.9052 57.6125 22.034 57.559 22.5478 56.4027C22.7261 55.9745 22.7471 55.6319 22.7471 50.4609V44.9794H23.219H23.6909V50.5893V56.1886L23.9321 56.5526C24.2886 57.0986 24.7605 57.3128 25.5785 57.2699C26.3859 57.2271 26.8788 56.938 27.1095 56.3706C27.2354 56.0709 27.2563 54.1545 27.2563 45.0329V34.0592H27.8331H28.4099V38.4058C28.4099 41.1787 28.4518 42.8167 28.5148 42.9559C28.8818 43.6518 30.5597 43.6518 30.9267 42.9559C31.0735 42.6775 31.0735 31.2649 30.9267 30.7296C30.7589 30.13 30.3919 29.6482 29.878 29.3485C29.4271 29.0915 29.3327 29.0808 27.6548 29.0808C25.526 29.0808 25.6519 28.9952 24.792 30.9544C24.4459 31.7252 24.1418 32.3462 24.1103 32.3462C24.0684 32.3462 23.9111 32.0678 23.7538 31.7252L23.4602 31.1043L23.8482 30.2264C24.3515 29.1129 24.3096 29.0273 23.1665 29.0273C22.0235 29.0273 21.971 29.1236 22.4849 30.205L22.8939 31.0614L22.5898 31.7038C22.422 32.0571 22.2647 32.3462 22.2332 32.3462C22.2018 32.3462 22.034 32.0143 21.8557 31.6182C21.0902 29.8195 20.8175 29.3378 20.5344 29.1772C20.2093 29.0166 17.6505 28.9738 17.0003 29.1344Z" fill="#616E7D"/>
<path d="M61.2576 32.3463C60.4291 32.5283 59.8209 33.0315 59.4644 33.8451C59.2651 34.2948 59.2441 34.541 59.2441 37.2711C59.2441 40.1403 59.2546 40.2259 59.4958 40.7505C59.758 41.3287 60.2299 41.7997 60.8171 42.0781C61.1213 42.2173 61.6561 42.2494 64.1205 42.2494C67.4133 42.2494 67.4867 42.2387 68.2732 41.4357C68.9339 40.7612 68.9968 40.3865 68.9968 37.2711C68.9968 34.1556 68.9339 33.7809 68.2732 33.1064C67.5077 32.3249 67.3713 32.2927 64.3826 32.2713C62.9145 32.2606 61.5093 32.2927 61.2576 32.3463Z" fill="#AAD4C8"/>
<path d="M61.3939 53.619C60.4291 53.8331 59.8629 54.2827 59.4958 55.0964C59.2546 55.621 59.2441 55.7173 59.2441 58.5759C59.2441 61.4451 59.2546 61.5307 59.4958 62.0553C59.779 62.6763 60.0516 62.9547 60.7123 63.308C61.1737 63.5435 61.2471 63.5542 64.068 63.5542H66.9519L67.5496 63.2544C67.8747 63.0938 68.2627 62.7941 68.42 62.5907C68.9758 61.8412 69.0073 61.5415 68.9758 58.351L68.9443 55.4176L68.6507 54.9037C68.2837 54.2613 67.6755 53.8117 66.9938 53.6618C66.4905 53.544 61.8448 53.5119 61.3939 53.619Z" fill="#AAD4C8"/>
</svg>
