<svg xmlns="http://www.w3.org/2000/svg" width="27" height="22" viewBox="0 0 27 22" fill="none">
<path d="M26.9457 3.36189C25.9692 3.78587 24.9361 4.0652 23.8789 4.19105C24.9899 3.54093 25.8254 2.5081 26.2288 1.28626C25.1783 1.90006 24.031 2.33072 22.836 2.55982C22.3327 2.0328 21.7275 1.61354 21.0571 1.32753C20.3867 1.04151 19.6651 0.89472 18.9361 0.896066C15.9848 0.896066 13.5964 3.24808 13.5964 6.14745C13.5943 6.55074 13.6405 6.95283 13.7341 7.34513C11.6178 7.24599 9.54547 6.7065 7.64974 5.76119C5.75402 4.81587 4.07663 3.48553 2.72489 1.8553C2.25067 2.65418 1.99987 3.56568 1.99871 4.49454C1.99871 6.31545 2.94941 7.92501 4.38495 8.86798C3.53443 8.84781 2.70135 8.62286 1.95641 8.21224V8.27727C1.95641 10.8244 3.80032 12.9434 6.24079 13.4257C5.78186 13.5479 5.30895 13.6099 4.83399 13.6099C4.49698 13.6105 4.16073 13.5779 3.83015 13.5124C4.5086 15.5989 6.48321 17.1163 8.82226 17.1596C6.92161 18.6234 4.58811 19.4145 2.18853 19.4087C1.7626 19.4081 1.33706 19.3827 0.914062 19.3328C3.35517 20.8905 6.19276 21.7144 9.08908 21.7065C18.9247 21.7065 24.2981 13.7021 24.2981 6.75984C24.2981 6.53223 24.2921 6.30461 24.2813 6.08242C25.3242 5.34108 26.2265 4.41981 26.9457 3.36189Z" fill="#7CE3E2"/>
</svg>