<svg width="680" height="681" viewBox="0 0 680 681" fill="none" xmlns="http://www.w3.org/2000/svg">
<g opacity="0.1">
<path d="M435.591 635.873C373.21 656.141 306.013 656.141 243.632 635.873C181.251 615.604 126.888 576.107 88.3342 523.042C49.7805 469.977 29.0156 406.07 29.0156 340.478C29.0156 274.887 49.7805 210.979 88.3342 157.915C126.888 104.85 181.251 65.3528 243.632 45.084C306.013 24.8151 373.21 24.8151 435.591 45.084C497.972 65.3528 552.335 104.85 590.889 157.915C629.443 210.979 650.208 274.887 650.208 340.478" stroke="#7BC0E3" stroke-width="4"/>
<path d="M390.888 99.2532C441.83 110.081 488.036 136.758 522.884 175.461C557.732 214.164 579.434 262.906 584.877 314.7C590.321 366.495 579.228 418.683 553.188 463.785C527.148 508.888 487.498 544.589 439.921 565.772C392.344 586.954 339.282 592.531 288.34 581.703C237.398 570.875 191.192 544.198 156.344 505.495C121.496 466.793 99.7948 418.051 94.351 366.256C88.9072 314.462 100 262.274 126.04 217.171" stroke="#7BC0E3" stroke-width="4"/>
<path d="M216.713 476.97C187.889 451.017 168.021 416.604 159.957 378.665C151.892 340.726 156.046 301.207 171.822 265.774C187.598 230.34 214.187 200.811 247.777 181.417C281.367 162.024 320.235 153.762 358.81 157.816C397.384 161.871 433.685 178.033 462.509 203.986C491.333 229.94 511.201 264.352 519.266 302.292C527.33 340.231 523.176 379.749 507.4 415.183C491.624 450.617 465.036 480.146 431.445 499.54" stroke="#7BC0E3" stroke-width="4"/>
</g>
</svg>
