<svg width="364" height="56" viewBox="0 0 364 56" fill="none" xmlns="http://www.w3.org/2000/svg">
<g clip-path="url(#clip0_575_59)">
<path d="M3.50478 33.4716C3.50674 29.3309 4.60797 25.2649 6.69593 21.6891C8.78389 18.1134 11.7837 15.156 15.3889 13.1193C18.9941 11.0825 23.0754 10.0394 27.2157 10.0965C31.3561 10.1536 35.407 11.3088 38.9547 13.4442C36.5275 11.279 33.6753 9.64403 30.5803 8.64376C27.4854 7.64348 24.2158 7.29994 20.9805 7.63507C17.7452 7.9702 14.6154 8.97665 11.7912 10.5901C8.96702 12.2035 6.5105 14.3884 4.57867 17.0052C2.64684 19.6219 1.28222 22.6129 0.57201 25.787C-0.138195 28.9611 -0.178355 32.2485 0.454098 35.439C1.08655 38.6295 2.37771 41.653 4.24503 44.3161C6.11236 46.9793 8.51477 49.2235 11.2987 50.9055C8.84429 48.713 6.88109 46.0263 5.53789 43.0218C4.1947 40.0173 3.50184 36.7627 3.50478 33.4716Z" fill="white"/>
<path d="M34.2649 54.8223C29.2372 54.8088 24.3607 53.102 20.422 49.9773C16.4833 46.8526 13.7121 42.4921 12.5554 37.5993C11.3987 32.7065 11.924 27.5667 14.0466 23.009C16.1691 18.4514 19.7651 14.7417 24.2545 12.4783C21.3743 13.278 18.6859 14.6526 16.3514 16.5194C14.0168 18.3862 12.0845 20.7064 10.671 23.3402C9.2574 25.9739 8.39184 28.8667 8.12647 31.844C7.86111 34.8213 8.20144 37.8215 9.12694 40.6638C10.0524 43.506 11.544 46.1314 13.5115 48.3816C15.4791 50.6318 17.882 52.4603 20.5754 53.7567C23.2687 55.0532 26.1967 55.7907 29.1828 55.925C32.1689 56.0592 35.1513 55.5874 37.9501 54.5378C36.7319 54.7366 35.4991 54.8318 34.2649 54.8223Z" fill="white"/>
<path d="M37.152 49.1853C33.1103 49.1868 29.1268 48.2219 25.5336 46.3713C21.9405 44.5206 18.8418 41.8377 16.4961 38.5463C18.093 42.0517 20.5795 45.0781 23.7084 47.3247C26.8374 49.5713 30.4998 50.96 34.3317 51.3527C38.1636 51.7454 42.0315 51.1284 45.5511 49.5631C49.0706 47.9978 52.1193 45.5386 54.394 42.4301C49.7061 46.7786 43.5463 49.192 37.152 49.1853Z" fill="white"/>
<path d="M60.0427 55.7751C59.717 55.6315 59.4359 55.4029 59.2289 55.1134C59.0335 54.8272 58.9318 54.4874 58.9377 54.1408H60.0625C60.0847 54.3954 60.203 54.632 60.3933 54.8025C60.6195 54.9943 60.911 55.0915 61.2071 55.0737C61.5137 55.0871 61.8154 54.9936 62.0606 54.8091C62.1556 54.7269 62.232 54.6254 62.2845 54.5112C62.3369 54.3971 62.3644 54.2731 62.365 54.1475C62.3721 53.9548 62.3032 53.7671 62.1731 53.6248C62.0434 53.4838 61.8825 53.375 61.7034 53.3072C61.4477 53.2133 61.1871 53.1338 60.9226 53.069C60.5755 52.9806 60.235 52.8679 59.9037 52.7316C59.6418 52.6143 59.414 52.4321 59.2421 52.2023C59.047 51.9193 58.9515 51.5795 58.9708 51.2363C58.9612 50.8943 59.0558 50.5574 59.2421 50.2703C59.4325 49.9786 59.7038 49.7487 60.0228 49.6087C60.3872 49.4566 60.7793 49.3823 61.174 49.3904C61.7214 49.3659 62.2607 49.5293 62.7024 49.8535C62.8991 50.0067 63.0602 50.2009 63.1744 50.4225C63.2887 50.6441 63.3534 50.8879 63.364 51.1371H62.1996C62.1904 51.019 62.1561 50.9042 62.0991 50.8004C62.042 50.6965 61.9635 50.6061 61.8688 50.535C61.6376 50.359 61.3518 50.27 61.0616 50.2836C60.7974 50.2736 60.5379 50.3554 60.3272 50.5151C60.2306 50.5952 60.1539 50.6967 60.1034 50.8115C60.0529 50.9264 60.0298 51.0514 60.0361 51.1768C60.0329 51.2656 60.0477 51.3541 60.0795 51.4371C60.1114 51.5201 60.1596 51.5958 60.2213 51.6597C60.3496 51.7915 60.5055 51.8932 60.6778 51.9575C60.9235 52.0557 61.1755 52.1375 61.4321 52.2023C61.7873 52.2906 62.1347 52.4079 62.4708 52.5529C62.7326 52.6766 62.9599 52.863 63.1325 53.0955C63.3314 53.3794 63.4292 53.7219 63.4103 54.0681C63.4108 54.3925 63.3215 54.7108 63.1523 54.9877C62.9633 55.2855 62.6984 55.5276 62.3848 55.689C62.0157 55.874 61.6066 55.9649 61.1939 55.9537C60.8021 55.9707 60.4109 55.91 60.0427 55.7751Z" fill="white"/>
<path d="M71.8073 49.5095V50.3696H70.1003V55.9339H69.0417V50.3696H67.3281V49.5095H71.8073Z" fill="white"/>
<path d="M79.1901 55.9338L77.708 53.38H76.9075V55.9471H75.8555V49.5227H78.0719C78.504 49.509 78.9329 49.5998 79.3224 49.7873C79.6371 49.9285 79.9038 50.1585 80.0899 50.449C80.2607 50.7442 80.3476 51.0805 80.3413 51.4215C80.3456 51.8301 80.218 52.2292 79.9774 52.5595C79.703 52.9222 79.3052 53.1717 78.8592 53.2609L80.4472 55.9074L79.1901 55.9338ZM76.9075 52.5265H78.0719C78.3972 52.5488 78.7182 52.4418 78.9651 52.2287C79.0661 52.1236 79.1446 51.999 79.1958 51.8624C79.247 51.7259 79.2698 51.5804 79.2628 51.4348C79.2712 51.291 79.249 51.1471 79.1977 51.0125C79.1464 50.8779 79.0671 50.7558 78.9651 50.6541C78.7166 50.4451 78.3955 50.3428 78.0719 50.3696H76.9075V52.5265Z" fill="white"/>
<path d="M88.5785 54.6238H85.8856L85.4225 55.9471H84.3242L86.6267 49.5161H87.8441L90.1465 55.9471H89.035L88.5785 54.6238ZM88.2807 53.7637L87.2354 50.7798L86.1834 53.7637H88.2807Z" fill="white"/>
<path d="M98.2518 49.5095V50.3696H96.5183V55.9339H95.4597V50.3696H93.7461V49.5095H98.2518Z" fill="white"/>
<path d="M103.353 50.3629V52.2486H105.569V53.1087H103.353V55.0936H105.847V55.9537H102.301V49.5227H105.847V50.3828L103.353 50.3629Z" fill="white"/>
<path d="M114.772 51.3951C114.62 51.0872 114.378 50.8333 114.078 50.6673C113.763 50.4974 113.409 50.413 113.052 50.4225C112.655 50.4184 112.263 50.5164 111.914 50.707C111.583 50.9003 111.313 51.1821 111.133 51.5208C110.942 51.8998 110.846 52.3202 110.855 52.7448C110.849 53.1692 110.944 53.589 111.133 53.9688C111.313 54.3075 111.583 54.5893 111.914 54.7826C112.262 54.9761 112.654 55.0743 113.052 55.0671C113.561 55.0902 114.06 54.92 114.448 54.5907C114.824 54.2458 115.059 53.7748 115.11 53.2675H112.701V52.4272H116.241V53.2476C116.174 53.7424 115.991 54.2142 115.705 54.6238C115.421 55.0458 115.037 55.3912 114.587 55.6295C114.117 55.8789 113.591 56.0063 113.059 56C112.481 56.0059 111.911 55.8623 111.405 55.5832C110.912 55.3064 110.503 54.9019 110.22 54.4121C109.93 53.896 109.777 53.3138 109.777 52.7217C109.777 52.1295 109.93 51.5473 110.22 51.0312C110.505 50.5412 110.916 50.1367 111.411 49.8601C111.948 49.5727 112.551 49.4296 113.159 49.4447C113.768 49.4597 114.363 49.6325 114.885 49.9461C115.419 50.2877 115.824 50.7976 116.036 51.3951H114.772Z" fill="white"/>
<path d="M125.008 49.5095L122.885 53.6049V55.9339H121.833V53.6049L119.676 49.5095H120.853L122.342 52.6654L123.824 49.5095H125.008Z" fill="white"/>
<path d="M137.988 49.5095V50.3696H135.263V52.2684H137.393V53.1219H135.263V55.9339H134.23V49.5095H137.988Z" fill="white"/>
<path d="M143.235 55.5766C142.738 55.3038 142.326 54.8984 142.044 54.4055C141.754 53.8882 141.602 53.3049 141.602 52.7117C141.602 52.1185 141.754 51.5352 142.044 51.018C142.329 50.5279 142.741 50.1235 143.235 49.8469C143.744 49.5735 144.312 49.4305 144.889 49.4305C145.467 49.4305 146.035 49.5735 146.543 49.8469C147.038 50.1218 147.447 50.5268 147.728 51.018C148.015 51.5364 148.165 52.1192 148.165 52.7117C148.165 53.3042 148.015 53.887 147.728 54.4055C147.451 54.8995 147.041 55.3054 146.543 55.5766C146.036 55.8545 145.468 56.0003 144.889 56.0003C144.311 56.0003 143.742 55.8545 143.235 55.5766ZM146.021 54.7958C146.354 54.5969 146.625 54.308 146.802 53.9622C146.995 53.574 147.092 53.1453 147.086 52.7117C147.094 52.278 146.996 51.8489 146.802 51.4613C146.626 51.1178 146.355 50.8327 146.021 50.6408C145.674 50.4435 145.281 50.343 144.883 50.3497C144.484 50.3446 144.092 50.445 143.745 50.6408C143.412 50.8348 143.141 51.1193 142.964 51.4613C142.772 51.8495 142.676 52.2786 142.686 52.7117C142.678 53.1447 142.773 53.5734 142.964 53.9622C143.143 54.3066 143.413 54.595 143.745 54.7958C144.092 54.9894 144.485 55.0875 144.883 55.0803C145.281 55.0894 145.674 54.9912 146.021 54.7958Z" fill="white"/>
<path d="M155.522 55.9338L154.04 53.38H153.239V55.9471H152.188V49.5227H154.404C154.836 49.509 155.265 49.5998 155.654 49.7873C155.969 49.9285 156.236 50.1585 156.422 50.449C156.59 50.7454 156.676 51.0809 156.673 51.4215C156.678 51.8301 156.55 52.2292 156.309 52.5595C156.034 52.924 155.633 53.1738 155.185 53.2609L156.779 55.9074L155.522 55.9338ZM153.239 52.5265H154.404C154.564 52.5385 154.725 52.5183 154.877 52.4672C155.03 52.4161 155.17 52.335 155.291 52.2287C155.394 52.1249 155.474 52.0006 155.526 51.8639C155.579 51.7272 155.602 51.581 155.595 51.4348C155.603 51.291 155.581 51.1471 155.53 51.0125C155.478 50.8779 155.399 50.7558 155.297 50.6541C155.048 50.4457 154.727 50.3436 154.404 50.3696H153.239V52.5265Z" fill="white"/>
<path d="M167.343 55.7751C167.018 55.6315 166.737 55.4029 166.53 55.1134C166.334 54.8272 166.233 54.4874 166.239 54.1408H167.363C167.385 54.3954 167.504 54.632 167.694 54.8025C167.92 54.9943 168.212 55.0915 168.508 55.0737C168.814 55.0871 169.116 54.9936 169.361 54.8091C169.456 54.7269 169.533 54.6254 169.585 54.5112C169.638 54.3971 169.665 54.2731 169.666 54.1475C169.673 53.9548 169.604 53.7671 169.474 53.6248C169.344 53.4838 169.183 53.375 169.004 53.3072C168.749 53.2133 168.488 53.1338 168.223 53.069C167.876 52.9806 167.536 52.8679 167.204 52.7316C166.943 52.6143 166.715 52.4321 166.543 52.2023C166.345 51.9202 166.248 51.5802 166.265 51.2363C166.258 50.8936 166.355 50.5568 166.543 50.2703C166.733 49.9786 167.005 49.7487 167.324 49.6087C167.688 49.4566 168.08 49.3823 168.475 49.3904C169.022 49.3659 169.561 49.5293 170.003 49.8535C170.2 50.0067 170.361 50.2009 170.475 50.4225C170.589 50.6441 170.654 50.8879 170.665 51.1371H169.5C169.491 51.019 169.457 50.9042 169.4 50.8004C169.343 50.6965 169.264 50.6061 169.17 50.535C168.938 50.359 168.653 50.27 168.362 50.2836C168.098 50.2736 167.839 50.3554 167.628 50.5151C167.531 50.5952 167.455 50.6967 167.404 50.8115C167.354 50.9264 167.331 51.0514 167.337 51.1768C167.334 51.2656 167.348 51.3541 167.38 51.4371C167.412 51.5201 167.46 51.5958 167.522 51.6597C167.65 51.7915 167.806 51.8932 167.979 51.9575C168.224 52.0557 168.476 52.1375 168.733 52.2023C169.088 52.2906 169.436 52.4079 169.772 52.5529C170.033 52.6766 170.261 52.863 170.433 53.0955C170.632 53.3794 170.73 53.7219 170.711 54.0681C170.712 54.3925 170.622 54.7108 170.453 54.9877C170.264 55.2855 169.999 55.5276 169.686 55.689C169.316 55.874 168.907 55.9649 168.495 55.9537C168.103 55.9707 167.712 55.91 167.343 55.7751Z" fill="white"/>
<path d="M176.007 49.5095V53.6049C175.992 53.8046 176.018 54.0054 176.084 54.1945C176.15 54.3836 176.254 54.5568 176.391 54.7032C176.536 54.8321 176.704 54.9312 176.887 54.9948C177.07 55.0584 177.263 55.0852 177.456 55.0737C177.656 55.0887 177.856 55.0636 178.046 55C178.236 54.9364 178.411 54.8355 178.561 54.7032C178.697 54.5559 178.801 54.3826 178.867 54.1937C178.932 54.0048 178.959 53.8045 178.945 53.6049V49.5095H179.997V53.5851C180.011 54.05 179.892 54.5093 179.653 54.9083C179.437 55.2645 179.119 55.5479 178.74 55.7221C178.344 55.9044 177.912 55.997 177.476 55.9934C177.04 55.9984 176.608 55.9057 176.212 55.7221C175.838 55.5475 175.524 55.2639 175.313 54.9083C175.081 54.5068 174.966 54.0484 174.982 53.5851V49.5095H176.007Z" fill="white"/>
<path d="M184.409 51.018C184.694 50.5279 185.105 50.1235 185.6 49.8469C186.137 49.5595 186.739 49.4163 187.348 49.4314C187.957 49.4465 188.551 49.6193 189.073 49.9329C189.607 50.2698 190.016 50.7716 190.238 51.362H188.968C188.821 51.0424 188.578 50.7765 188.273 50.6011C187.959 50.4293 187.605 50.3426 187.247 50.3497C186.851 50.3438 186.46 50.4444 186.116 50.6408C185.78 50.8308 185.508 51.1164 185.335 51.4613C185.148 51.8504 185.051 52.2766 185.051 52.7084C185.051 53.1402 185.148 53.5664 185.335 53.9556C185.509 54.3015 185.781 54.589 186.116 54.7826C186.46 54.9791 186.851 55.0796 187.247 55.0737C187.606 55.084 187.96 54.9972 188.273 54.8223C188.577 54.6494 188.82 54.3857 188.968 54.068H190.238C190.017 54.6578 189.608 55.1579 189.073 55.4905C188.549 55.8013 187.953 55.9718 187.344 55.9857C186.734 55.9996 186.131 55.8564 185.593 55.5699C185.1 55.2932 184.691 54.8886 184.409 54.3989C184.123 53.8814 183.973 53.2997 183.973 52.7084C183.973 52.1171 184.123 51.5354 184.409 51.018Z" fill="white"/>
<path d="M194.539 51.018C194.824 50.5279 195.235 50.1235 195.73 49.8469C196.267 49.5595 196.869 49.4163 197.478 49.4314C198.087 49.4465 198.681 49.6193 199.203 49.9329C199.753 50.2731 200.172 50.788 200.394 51.3951H199.071C198.938 51.068 198.707 50.7904 198.409 50.6011C198.095 50.4298 197.742 50.3432 197.384 50.3497C196.985 50.3446 196.593 50.445 196.246 50.6408C195.913 50.8348 195.642 51.1193 195.465 51.4613C195.282 51.8515 195.187 52.2773 195.187 52.7084C195.187 53.1395 195.282 53.5653 195.465 53.9556C195.642 54.2993 195.913 54.586 196.246 54.7826C196.593 54.9784 196.985 55.0789 197.384 55.0737C197.742 55.084 198.096 54.9972 198.409 54.8223C198.706 54.6372 198.937 54.3643 199.071 54.0416H200.394C200.176 54.6308 199.769 55.1311 199.236 55.4641C198.687 55.7986 198.054 55.9706 197.41 55.9603C196.832 55.9683 196.262 55.8246 195.756 55.5435C195.263 55.2667 194.854 54.8622 194.572 54.3724C194.281 53.8563 194.129 53.2741 194.129 52.682C194.129 52.0898 194.281 51.5076 194.572 50.9915L194.539 51.018Z" fill="white"/>
<path d="M205.626 50.3629V52.2486H207.843V53.1087H205.626V55.0936H208.121V55.9537H204.574V49.5227H208.121V50.3828L205.626 50.3629Z" fill="white"/>
<path d="M213.354 55.7751C213.027 55.6335 212.746 55.4046 212.54 55.1134C212.34 54.8294 212.235 54.4885 212.243 54.1408H213.367C213.392 54.3947 213.51 54.6304 213.698 54.8025C213.926 54.9954 214.22 55.0926 214.519 55.0737C214.823 55.0902 215.124 54.9962 215.365 54.8091C215.461 54.7278 215.538 54.6264 215.591 54.5121C215.644 54.3978 215.671 54.2733 215.67 54.1475C215.675 54.0519 215.66 53.9563 215.627 53.8665C215.594 53.7766 215.544 53.6944 215.478 53.6248C215.349 53.4824 215.188 53.3735 215.008 53.3072C214.753 53.2124 214.492 53.1329 214.227 53.069C213.881 52.9796 213.54 52.8669 213.209 52.7316C212.946 52.6151 212.718 52.4327 212.547 52.2023C212.349 51.9202 212.252 51.5802 212.269 51.2363C212.262 50.8936 212.359 50.5568 212.547 50.2703C212.736 49.9804 213.005 49.7508 213.321 49.6087C213.688 49.4567 214.082 49.3823 214.479 49.3904C215.026 49.3659 215.565 49.5293 216.007 49.8535C216.203 50.0076 216.363 50.202 216.477 50.4234C216.592 50.6449 216.657 50.8882 216.669 51.1371H215.504C215.494 51.0185 215.458 50.9036 215.4 50.7998C215.342 50.696 215.263 50.6057 215.167 50.535C214.938 50.3589 214.655 50.2699 214.366 50.2836C214.1 50.2726 213.838 50.3545 213.625 50.5151C213.53 50.5955 213.454 50.6972 213.404 50.8121C213.355 50.927 213.333 51.0519 213.341 51.1768C213.337 51.2651 213.351 51.3534 213.381 51.4363C213.412 51.5193 213.459 51.5953 213.519 51.6597C213.648 51.7915 213.804 51.8932 213.976 51.9575C214.224 52.0565 214.478 52.1383 214.737 52.2023C215.091 52.2927 215.439 52.4099 215.776 52.5529C216.038 52.6759 216.265 52.8624 216.437 53.0955C216.641 53.3772 216.742 53.7208 216.722 54.0681C216.72 54.3931 216.628 54.7114 216.457 54.9877C216.27 55.2872 216.005 55.5298 215.69 55.689C215.323 55.8739 214.916 55.9649 214.505 55.9537C214.113 55.9714 213.722 55.9107 213.354 55.7751Z" fill="white"/>
<path d="M221.918 55.7751C221.592 55.6315 221.311 55.4029 221.104 55.1134C220.908 54.8272 220.807 54.4874 220.813 54.1408H221.938C221.96 54.3954 222.078 54.632 222.268 54.8025C222.495 54.9943 222.786 55.0915 223.082 55.0737C223.389 55.0871 223.69 54.9936 223.936 54.8091C224.031 54.7269 224.107 54.6254 224.159 54.5112C224.212 54.3971 224.239 54.2731 224.24 54.1475C224.247 53.9548 224.178 53.7671 224.048 53.6248C223.918 53.4838 223.758 53.375 223.578 53.3072C223.322 53.2143 223.062 53.1348 222.798 53.069C222.45 52.9818 222.11 52.869 221.779 52.7316C221.517 52.6143 221.289 52.4321 221.117 52.2023C220.92 51.9202 220.822 51.5802 220.839 51.2363C220.832 50.8936 220.929 50.5568 221.117 50.2703C221.308 49.9786 221.579 49.7487 221.898 49.6087C222.262 49.4566 222.654 49.3823 223.049 49.3904C223.596 49.3659 224.136 49.5293 224.577 49.8535C224.774 50.0067 224.935 50.2009 225.049 50.4225C225.164 50.6441 225.228 50.8879 225.239 51.1371H224.075C224.065 51.019 224.031 50.9042 223.974 50.8004C223.917 50.6965 223.839 50.6061 223.744 50.535C223.513 50.359 223.227 50.27 222.937 50.2836C222.672 50.2725 222.412 50.3544 222.202 50.5151C222.106 50.5952 222.029 50.6967 221.978 50.8115C221.928 50.9264 221.905 51.0514 221.911 51.1768C221.908 51.2656 221.923 51.3541 221.955 51.4371C221.986 51.5201 222.035 51.5958 222.096 51.6597C222.225 51.7915 222.381 51.8932 222.553 51.9575C222.799 52.0557 223.051 52.1375 223.307 52.2023C223.662 52.2906 224.01 52.4079 224.346 52.5529C224.608 52.6766 224.835 52.863 225.007 53.0955C225.206 53.3794 225.304 53.7219 225.285 54.0681C225.287 54.3936 225.195 54.7127 225.021 54.9877C224.836 55.287 224.573 55.5296 224.26 55.689C223.891 55.874 223.482 55.9649 223.069 55.9537C222.677 55.9707 222.286 55.91 221.918 55.7751Z" fill="white"/>
<path d="M64.7916 39.4858C62.9631 38.7439 61.3647 37.5291 60.1603 35.966C59.0258 34.4681 58.3708 32.6623 58.2812 30.7854H63.7926C63.8611 31.5633 64.0977 32.317 64.4861 32.9944C64.8745 33.6718 65.4054 34.2568 66.0421 34.7089C67.592 35.7826 69.4517 36.3172 71.3351 36.2306C73.0383 36.3309 74.727 35.8658 76.1385 34.9074C76.6843 34.5249 77.129 34.0155 77.4344 33.4231C77.7398 32.8308 77.8968 32.1731 77.8918 31.5066C77.9153 30.859 77.751 30.2184 77.4188 29.662C77.0866 29.1056 76.6006 28.6571 76.0194 28.3705C74.1708 27.4733 72.2234 26.796 70.217 26.3526C68.2319 25.8618 66.2858 25.2249 64.3947 24.4471C62.8948 23.8107 61.5681 22.8265 60.5242 21.5756C59.5047 20.2056 58.9421 18.5495 58.916 16.842C58.8898 15.1345 59.4015 13.462 60.3786 12.0614C61.4445 10.6186 62.8832 9.49331 64.5402 8.80624C66.4856 7.95548 68.5901 7.52918 70.7132 7.55577C74.2683 7.55577 77.1354 8.45337 79.3143 10.2486C80.4049 11.1517 81.285 12.2823 81.893 13.5611C82.501 14.84 82.8222 16.2362 82.8342 17.6522H77.5015C77.476 16.8762 77.2858 16.1145 76.9436 15.4175C76.6015 14.7206 76.115 14.1043 75.5166 13.6096C74.1001 12.5299 72.3463 11.9883 70.5676 12.0813C68.9517 11.9962 67.3507 12.4272 65.9958 13.3119C65.4659 13.6643 65.0326 14.1438 64.7356 14.7066C64.4386 15.2694 64.2873 15.8977 64.2954 16.534C64.2792 17.0155 64.3619 17.4953 64.5382 17.9436C64.7146 18.392 64.981 18.7994 65.3209 19.1408C66.0582 19.8605 66.9369 20.4192 67.9013 20.7817C69.3116 21.3164 70.7494 21.7758 72.2085 22.1578C74.1193 22.6568 75.9975 23.2733 77.8323 24.0038C79.2685 24.6079 80.5423 25.5418 81.5506 26.7297C82.631 28.0709 83.2006 29.7518 83.1584 31.4735C83.1774 33.1686 82.6661 34.8272 81.6962 36.2174C80.6521 37.6804 79.2231 38.8255 77.5676 39.5255C75.6366 40.3581 73.5501 40.7686 71.4476 40.7297C69.1673 40.7734 66.9022 40.3501 64.7916 39.4858Z" fill="white"/>
<path d="M97.1283 12.4716V31.3941C97.1283 32.9556 97.4613 34.0583 98.1274 34.7023C98.7934 35.3462 99.9447 35.6704 101.581 35.6749H105.505V40.1805H100.701C97.737 40.1805 95.5118 39.4968 94.0253 38.1295C92.5389 36.7621 91.7978 34.517 91.8022 31.3941V12.4716H87.6406V8.07845H91.8022V0H97.0953V8.07845H105.471V12.4716H97.1283Z" fill="white"/>
<path d="M121.287 9.05105C123.233 7.98623 125.429 7.46085 127.646 7.52931V13.0208H126.243C120.266 13.0208 117.278 16.2628 117.278 22.7467V40.2004H111.945V8.07846H117.278V13.2921C118.177 11.521 119.57 10.0481 121.287 9.05105Z" fill="white"/>
<path d="M133.801 15.3762C135.047 12.9771 136.943 10.9776 139.273 9.60681C141.628 8.23111 144.313 7.52211 147.04 7.55578C149.598 7.49095 152.126 8.11723 154.358 9.36863C156.29 10.4414 157.891 12.0224 158.989 13.9405V8.07846H164.375V40.1805H158.989V34.2259C157.857 36.1619 156.228 37.7607 154.272 38.8573C152.057 40.1191 149.542 40.757 146.994 40.7032C144.269 40.7376 141.589 40.0063 139.259 38.5926C136.931 37.1641 135.046 35.1162 133.814 32.6777C132.454 29.9944 131.772 27.0184 131.829 24.0104C131.758 21.0131 132.435 18.0453 133.801 15.3762ZM157.52 17.7448C156.612 16.0221 155.236 14.591 153.551 13.6163C151.881 12.6833 150.001 12.1935 148.089 12.1935C146.177 12.1935 144.296 12.6833 142.627 13.6163C140.956 14.5825 139.594 16.0025 138.697 17.7117C137.686 19.6663 137.184 21.8437 137.235 24.0435C137.182 26.2689 137.684 28.4723 138.697 30.4546C139.591 32.1825 140.953 33.6245 142.627 34.6163C144.28 35.5755 146.161 36.0715 148.072 36.052C149.993 36.0684 151.884 35.5728 153.551 34.6163C155.244 33.6361 156.621 32.1921 157.52 30.4546C158.535 28.492 159.041 26.3055 158.989 24.0964C159.045 21.889 158.54 19.7035 157.52 17.7448Z" fill="white"/>
<path d="M179.884 12.4716V31.3941C179.884 32.9556 180.215 34.0583 180.877 34.7023C181.538 35.3639 182.696 35.6749 184.33 35.6749H188.261V40.1805H183.457C180.484 40.1805 178.257 39.4968 176.775 38.1295C175.293 36.7621 174.565 34.517 174.591 31.3941V12.4716H170.43V8.07845H174.591V0H179.884V8.07845H188.261V12.4716H179.884Z" fill="white"/>
<path d="M194.723 15.3762C195.968 12.9771 197.865 10.9776 200.195 9.60681C202.55 8.2311 205.235 7.5221 207.962 7.55577C210.52 7.49192 213.047 8.11814 215.28 9.36863C217.212 10.4414 218.813 12.0224 219.911 13.9405V8.07845H225.297V40.1805H219.911V34.2259C218.779 36.1619 217.15 37.7607 215.194 38.8573C212.979 40.1191 210.464 40.757 207.916 40.7032C205.191 40.7376 202.511 40.0063 200.181 38.5926C197.853 37.1641 195.968 35.1162 194.736 32.6777C193.376 29.9944 192.694 27.0184 192.751 24.0104C192.68 21.0131 193.357 18.0453 194.723 15.3762ZM218.449 17.7448C217.538 16.024 216.163 14.5935 214.479 13.6163C212.81 12.6833 210.93 12.1935 209.017 12.1935C207.105 12.1935 205.225 12.6833 203.556 13.6163C201.885 14.5825 200.522 16.0025 199.626 17.7117C198.615 19.6663 198.112 21.8437 198.163 24.0435C198.11 26.2688 198.613 28.4723 199.626 30.4546C200.52 32.1825 201.882 33.6245 203.556 34.6163C205.209 35.5755 207.09 36.0715 209.001 36.052C210.922 36.0684 212.813 35.5728 214.479 34.6163C216.17 33.6335 217.547 32.1902 218.449 30.4546C219.459 28.4905 219.962 26.3046 219.911 24.0964C219.966 21.8899 219.463 19.7052 218.449 17.7448Z" fill="white"/>
<path d="M254.853 9.36862C256.787 10.4389 258.389 12.0205 259.484 13.9405V8.07845H264.877V40.8885C264.925 43.6105 264.278 46.2999 262.998 48.7023C261.767 50.9708 259.906 52.8344 257.639 54.0681C255.154 55.399 252.371 56.0731 249.553 56.0265C245.332 56.0265 241.817 55.0296 239.007 53.0359C237.651 52.1067 236.506 50.9014 235.647 49.499C234.788 48.0966 234.236 46.5287 234.025 44.8979H239.318C239.914 46.8586 241.206 48.5339 242.95 49.6087C244.933 50.8396 247.234 51.4607 249.567 51.3951C250.886 51.4462 252.202 51.2285 253.435 50.7554C254.668 50.2822 255.792 49.5635 256.739 48.6427C258.6 46.8078 259.529 44.2319 259.524 40.9149V34.1465C258.399 36.092 256.784 37.7092 254.84 38.8374C252.634 40.1237 250.115 40.7719 247.562 40.7098C244.826 40.7448 242.136 40.0111 239.796 38.5923C237.457 37.1735 235.563 35.1265 234.329 32.6843C232.969 30.001 232.287 27.025 232.345 24.017C232.276 21.0163 232.958 18.0461 234.329 15.3762C235.575 12.9752 237.474 10.9752 239.808 9.6068C242.16 8.23008 244.843 7.52096 247.569 7.55576C250.115 7.49949 252.63 8.12541 254.853 9.36862ZM258.049 17.7448C257.138 16.024 255.763 14.5935 254.079 13.6163C252.41 12.6833 250.529 12.1935 248.617 12.1935C246.705 12.1935 244.825 12.6833 243.156 13.6163C241.485 14.5825 240.122 16.0025 239.225 17.7117C238.215 19.6663 237.712 21.8437 237.763 24.0435C237.71 26.2688 238.213 28.4723 239.225 30.4546C240.12 32.1825 241.482 33.6245 243.156 34.6163C244.809 35.5749 246.69 36.0708 248.601 36.052C250.522 36.0684 252.413 35.5728 254.079 34.6163C255.77 33.6335 257.147 32.1902 258.049 30.4546C259.059 28.4905 259.562 26.3046 259.511 24.0964C259.566 21.8899 259.063 19.7052 258.049 17.7448Z" fill="white"/>
<path d="M303.03 26.121H277.372C277.57 29.2836 278.655 31.7536 280.627 33.5312C282.591 35.2994 285.158 36.2467 287.799 36.1777C289.842 36.2531 291.859 35.6912 293.569 34.5699C295.088 33.5208 296.229 32.0106 296.824 30.2628H302.567C301.748 33.2843 299.929 35.9388 297.406 37.7921C294.834 39.724 291.632 40.69 287.799 40.69C284.942 40.7387 282.123 40.0311 279.628 38.6389C277.226 37.2761 275.265 35.2532 273.978 32.81C272.566 30.1099 271.86 27.0964 271.927 24.0501C271.857 21.0218 272.539 18.0234 273.912 15.3233C275.174 12.8945 277.12 10.8888 279.509 9.55388C282.048 8.17182 284.903 7.47624 287.793 7.53592C290.615 7.4762 293.404 8.16078 295.878 9.52079C298.172 10.7938 300.055 12.6971 301.303 15.0057C302.597 17.4254 303.253 20.1352 303.208 22.879C303.206 23.9621 303.146 25.0442 303.03 26.121ZM296.328 16.5473C295.451 15.1164 294.18 13.968 292.669 13.2391C291.071 12.4656 289.316 12.0738 287.541 12.0945C285.001 12.037 282.536 12.9612 280.66 14.6749C278.759 16.3951 277.674 18.7769 277.405 21.8204H297.677C297.734 19.9705 297.266 18.1424 296.328 16.5473Z" fill="white"/>
<path d="M314.98 39.4858C313.152 38.7439 311.553 37.5291 310.349 35.966C309.217 34.4676 308.564 32.6616 308.477 30.7855H313.981C314.05 31.5641 314.287 32.3184 314.677 32.996C315.066 33.6736 315.599 34.2581 316.237 34.7089C317.785 35.7866 319.647 36.3217 321.53 36.2306C323.234 36.331 324.922 35.8658 326.334 34.9074C326.88 34.5252 327.326 34.0161 327.633 33.4238C327.939 32.8314 328.097 32.1736 328.094 31.5066C328.117 30.8583 327.951 30.2172 327.618 29.6607C327.285 29.1043 326.797 28.6562 326.215 28.3705C324.368 27.4742 322.423 26.7969 320.419 26.3526C318.432 25.8616 316.483 25.2247 314.59 24.4471C313.092 23.8105 311.768 22.8262 310.726 21.5756C309.597 20.1578 309.023 18.3773 309.112 16.5671C309.106 14.9477 309.618 13.3689 310.574 12.0614C311.642 10.6203 313.08 9.49534 314.736 8.80625C316.679 7.9768 318.776 7.56865 320.889 7.60871C324.439 7.60871 327.306 8.50631 329.49 10.3015C330.578 11.1956 331.459 12.3166 332.069 13.5863C332.679 14.856 333.005 16.2436 333.023 17.6522H327.697C327.664 16.8735 327.467 16.1106 327.118 15.4138C326.769 14.7169 326.276 14.102 325.672 13.6097C324.256 12.5299 322.502 11.9883 320.723 12.0813C319.119 11.9978 317.528 12.4214 316.178 13.2921C315.649 13.6448 315.217 14.1245 314.921 14.6874C314.625 15.2503 314.475 15.8783 314.484 16.5142C314.467 16.9958 314.549 17.4759 314.725 17.9244C314.902 18.373 315.169 18.7803 315.51 19.121C316.245 19.8405 317.121 20.3992 318.083 20.7618C319.494 21.2946 320.932 21.7539 322.391 22.138C324.301 22.637 326.18 23.2535 328.014 23.9839C329.452 24.5861 330.726 25.5203 331.733 26.7098C332.815 28.0502 333.387 29.7312 333.347 31.4537C333.367 33.1498 332.853 34.8093 331.878 36.1976C330.837 37.6635 329.407 38.8093 327.75 39.5057C325.819 40.3382 323.732 40.7488 321.63 40.7098C319.353 40.7582 317.091 40.3417 314.98 39.4858Z" fill="white"/>
<path d="M345.561 39.4858C343.733 38.7439 342.134 37.5291 340.93 35.966C339.795 34.4681 339.14 32.6623 339.051 30.7854H344.562C344.631 31.5633 344.867 32.317 345.256 32.9944C345.644 33.6718 346.175 34.2568 346.812 34.7089C348.361 35.7826 350.221 36.3172 352.105 36.2306C353.808 36.3299 355.496 35.8648 356.908 34.9074C357.454 34.5249 357.899 34.0155 358.204 33.4231C358.509 32.8308 358.666 32.1731 358.661 31.5066C358.685 30.859 358.521 30.2184 358.188 29.662C357.856 29.1056 357.37 28.6571 356.789 28.3705C354.94 27.4733 352.993 26.796 350.986 26.3526C349.001 25.8618 347.055 25.2249 345.164 24.4471C343.664 23.8107 342.338 22.8264 341.294 21.5756C340.274 20.2056 339.712 18.5495 339.686 16.842C339.659 15.1345 340.171 13.462 341.148 12.0614C342.214 10.6186 343.653 9.49331 345.31 8.80624C347.251 7.97732 349.346 7.56918 351.456 7.6087C355.007 7.6087 357.874 8.5063 360.057 10.3015C361.146 11.1964 362.027 12.3173 362.639 13.5866C363.252 14.8558 363.581 16.2431 363.604 17.6522H358.271C358.246 16.8762 358.055 16.1145 357.713 15.4175C357.371 14.7206 356.885 14.1043 356.286 13.6096C354.87 12.5299 353.116 11.9883 351.337 12.0813C349.721 11.9962 348.12 12.4272 346.765 13.3119C346.235 13.6643 345.802 14.1438 345.505 14.7066C345.208 15.2694 345.057 15.8977 345.065 16.534C345.049 17.0155 345.131 17.4953 345.308 17.9436C345.484 18.392 345.751 18.7994 346.09 19.1408C346.828 19.8605 347.706 20.4192 348.671 20.7817C350.081 21.3164 351.519 21.7758 352.978 22.1578C354.889 22.6568 356.767 23.2733 358.602 24.0038C360.038 24.6079 361.312 25.5418 362.32 26.7297C363.4 28.0709 363.97 29.7518 363.928 31.4735C363.947 33.1686 363.436 34.8272 362.466 36.2174C361.422 37.6804 359.993 38.8255 358.337 39.5255C356.404 40.3586 354.315 40.7691 352.211 40.7297C349.932 40.7727 347.67 40.3494 345.561 39.4858Z" fill="white"/>
</g>
<defs>
<clipPath id="clip0_575_59">
<rect width="363.894" height="56" fill="white"/>
</clipPath>
</defs>
</svg>
