<svg xmlns="http://www.w3.org/2000/svg" xmlns:xlink="http://www.w3.org/1999/xlink" fill="none" version="1.1" width="129.0009765625" height="21" viewBox="0 0 129.0009765625 21"><g transform="matrix(1.1583346128463745,0,0,1.1583346128463745,0,0)"><g transform="matrix(1.386418342590332,0,0,1.386418342590332,-13.494264376815408,-0.70062140021696)"><g><path d="M50.909911328125,1.8133177220269776L50.479941328125,1.8620698120269776C49.794641328125,1.9579213120269776,49.058091328125,2.1982373120269774,48.599560328125,2.7125223120269775C48.107586328125,3.2642063120269773,47.950045328125,3.9528363120269776,47.854286328125,4.6463563120269775L47.791225028125,5.269296312026977L47.768293228125,5.4859763120269776L47.745361328125,5.935576312026978L47.745361328125,7.463136312026977L47.768293228125,7.7827363120269775L47.768293228125,8.319006312026978L47.791225028125,8.579016312026978L47.791225028125,8.860696312026977L47.814156928125,9.071956312026977L47.894416328125,9.781576312026978C48.044990328125,10.569006312026978,48.447332328125,11.406606312026977,49.178581328125,11.850816312026977C49.388291328125,11.978316312026978,49.622881328125,12.065416312026978,49.860791328125,12.132516312026977C50.151471328125,12.214416312026978,50.449381328125,12.237716312026977,50.749381328125,12.257116312026978L50.978701328125,12.273316312026978C51.680381328125,12.281116312026978,52.554911328125,12.248416312026977,53.185861328125,11.932116312026977C53.448331328125,11.800556312026977,53.665141328125,11.626156312026978,53.862341328125,11.417476312026977C54.388661328124996,10.860206312026978,54.605761328125,9.906486312026978,54.687871328125,9.180296312026979L54.733741328125,8.644026312026977L54.756671328125,8.427346312026977L54.756671328125,8.194426312026977L54.773851328125,7.934416312026977L54.773851328125,7.203126312026978L54.773851328125,6.195586312026977L54.750921328125,5.827236312026978L54.710791328125,5.074286312026977C54.627771328125,3.9515863120269774,54.362361328125,2.7464073120269776,53.231711328125,2.1491663120269777C53.040881328124996,2.0483723120269777,52.830051328125,1.9771483120269775,52.618291328125,1.9270733120269776C52.366051328124996,1.8675428120269775,51.987851328125004,1.8092356020269775,51.729701328125,1.8133189340269775L50.909911328125,1.8133177220269776ZM51.322671328125,3.6550663120269773C51.590611328125,3.6568563120269775,51.885161328125,3.6970063120269776,52.090881328125,3.8175663120269774C52.262831328125,3.9183663120269774,52.426311328125,4.145976312026978,52.503651328125,4.321336312026977C52.673781328125,4.707756312026977,52.699291328125,5.215516312026978,52.704301328125,5.632226312026978L52.727231328125,5.935576312026978L52.727231328125,6.428516312026978L52.750161328125,6.796866312026977L52.750161328125,7.3548063120269775L52.727231328125,7.696066312026978L52.727231328125,8.086086312026978L52.704301328125,8.427346312026977C52.703931328125,8.727796312026978,52.663881328125,9.123776312026978,52.601101328125,9.418636312026978C52.549251328125,9.662346312026978,52.454651328125,9.940156312026977,52.268601328125,10.122836312026978C52.093241328125,10.295196312026977,51.816201328125,10.390036312026977,51.569191328125,10.420766312026977C51.173431328125,10.469976312026978,50.628751328125,10.457556312026977,50.319421328125,10.187836312026977C50.033971328125,9.938756312026978,49.953241328125,9.526086312026978,49.900921328125,9.180296312026979L49.860791328125,8.730696312026978L49.837861328125,8.514016312026978L49.820671328125,7.674396312026977L49.797741328125,7.311466312026978L49.797741328125,6.623516312026977L49.820671328125,6.260586312026978L49.889471328125,5.247626312026977C49.937461328124996,4.824036312026978,49.988641328125,4.1913563120269774,50.365291328125,3.9042363120269776C50.554071328125,3.7602463120269776,50.835481328125,3.6996363120269775,51.070441328125,3.6658963120269776C51.149311328125,3.6589163120269776,51.233371328125,3.654466312026978,51.322671328125,3.6550663120269773Z" fill="#241F20" fill-opacity="1" style="mix-blend-mode:passthrough"/></g><g><path d="M35.0871514375,1.8729373273919776C35.0419244375,1.8728063851519776,34.9824181375,1.8744575451519776,34.9552945375,1.8946049651519776C34.9166314075,1.9236182651519775,34.9218079155,1.9827027651519775,34.9208984375,2.0246107651519774L34.9208984375,2.3442077651519777L34.9208984375,3.0104807651519776L34.9438303375,3.3571707651519773L34.9438303375,3.763430765151978L36.0101484375,3.763430765151978L36.0101484375,12.062130765151977L38.0797184375,12.062130765151977L38.0797184375,8.941990765151978L39.8339784375,8.941990765151978C40.0630184375,8.941550765151977,40.3180384375,8.894730765151976,40.5391184375,8.839060765151977C40.7206284375,8.793070765151977,40.917708437499996,8.710980765151977,41.0837484375,8.627810765151978C42.2446384375,8.045180765151978,42.4499884375,6.648390765151977,42.4481684375,5.529340765151978L42.4481684375,5.182660765151978L42.4252384375,4.798060765151977C42.4235884375,4.477410765151978,42.3134684375,3.8856807651519776,42.2188584375,3.5738407651519775C42.1303784375,3.2830707651519777,42.0065084375,2.9772907651519773,41.8118184375,2.7342237651519774C41.351918437500004,2.1597637651519777,40.582508437499996,1.8763761451519776,39.8339784375,1.8729373273919776L35.1272854375,1.8729373273919776C35.1159644375,1.8729373273919776,35.1022334375,1.8729811429519776,35.0871514375,1.8729373273919776ZM38.0338484375,3.7417707651519776L39.3524184375,3.7417707651519776C39.4950184375,3.7419707651519776,39.6566484375,3.7615107651519777,39.7881084375,3.8176007651519774C40.0471784375,3.9280707651519777,40.1386984375,4.1227207651519775,40.2180784375,4.364710765151978C40.3668284375,4.818600765151977,40.3613584375,5.271660765151978,40.3556684375,5.740600765151978L40.3097984375,6.108950765151977C40.2740884375,6.309460765151978,40.1945684375,6.588080765151978,40.0690184375,6.753560765151978C39.8804684375,7.0017807651519774,39.5471284375,7.050200765151978,39.2434884375,7.051490765151978L38.0338484375,7.051490765151978L38.0338484375,3.7417707651519776Z" fill="#241F20" fill-opacity="1" style="mix-blend-mode:passthrough"/></g><g><path d="M45.9284648046875,1.8738462924957275L45.9284648046875,12.060646292495727L43.9041748046875,12.060646292495727L43.9041748046875,1.8738462924957275L45.9284648046875,1.8738462924957275Z" fill="#241F20" fill-opacity="1" style="mix-blend-mode:passthrough"/></g><g><path d="M56.4593505859375,12.060746292495727L56.4593505859375,1.8738527011857276L58.8703105859375,1.8738527011857276C58.982440585937496,1.8740675924957275,59.103210585937504,1.8817980824957274,59.2114805859375,1.9121005924957275C59.6513705859375,2.0352452924957274,59.7045905859375,2.4854862924957275,59.8062605859375,2.8409512924957276L61.6451705859375,9.374286292495729L61.6451705859375,1.8738462924957275L63.5102605859375,1.8738462924957275L63.5102605859375,12.060646292495727L61.4633005859375,12.060646292495727C61.3311505859375,12.060446292495728,61.1576105859375,12.043946292495727,61.031150585937496,12.008246292495727C60.6701905859375,11.906646292495727,60.4315905859375,11.663746292495727,60.3151305859375,11.329986292495727L58.3699105859375,4.452796292495727L58.3699105859375,12.060646292495727L56.4593505859375,12.060746292495727Z" fill="#241F20" fill-opacity="1" style="mix-blend-mode:passthrough"/></g><g><path d="M71.1978263671875,1.8738519001057274L71.1978263671875,3.7220962924957277L68.2636563671875,3.7220062924957276C67.8428063671875,3.7220062924957276,67.6722863671875,4.006866292495728,67.6722863671875,4.280866292495728L67.6722863671875,6.043146292495727L70.7883363671875,6.043146292495727L70.7883363671875,7.912876292495728L68.21816636718751,7.912876292495728C67.8078463671875,7.913526292495727,67.6729763671875,8.160026292495727,67.6722863671875,8.514636292495727L67.6722863671875,10.212446292495727L71.2204863671875,10.212446292495727L71.2204863671875,12.060646292495727L65.6707763671875,12.060646292495727L65.6707763671875,1.8738462924957275L71.1978263671875,1.8738519001057274Z" fill="#241F20" fill-opacity="1" style="mix-blend-mode:passthrough"/></g><g><path d="M79.9296875,1.8738608303957276L79.9296875,12.062046292495728L81.9763175,12.062046292495728L81.9763175,8.362346292495728C82.1087075,8.362346292495728,82.32167749999999,8.348776292495728,82.43494749999999,8.411106292495727C82.5650575,8.482886292495728,82.6110875,8.609706292495726,82.6699975,8.730696292495727L82.9623775,9.288636292495728L83.8624375,10.984126292495727L84.3095975,11.802076292495727C84.4660875,11.978546292495727,84.7669575,12.059346292495727,85.0032775,12.062046292495728L86.8263375,12.062046292495728L86.5798175,11.585406292495728L86.1039875,10.707866292495728L85.1236675,8.904036292495729L84.7338275,8.172756292495727C84.9915275,8.101626292495727,85.1418175,8.059966292495726,85.3701775,7.9127462924957275C86.1375875,7.4182362924957275,86.3764475,6.522716292495727,86.4364875,5.697236292495727L86.4594175,5.485976292495728C86.4660175,4.938806292495728,86.4759075,4.388646292495728,86.3619575,3.8500762924957277C86.2423175,3.2848562924957276,85.9626475,2.6813252924957274,85.4790975,2.3116762924957275C84.9383575,1.8983461924957274,84.3140875,1.8740668844957276,83.6674975,1.8738609312957275Q83.5751375,1.8738316536957276,79.9296875,1.8738608303957276ZM81.9763175,3.6984062924957275L83.3866075,3.6984062924957275C83.5178475,3.6986062924957275,83.6027575,3.7086362924957275,83.7305875,3.7417362924957276C83.9025375,3.7862262924957273,84.0389475,3.8616262924957274,84.1433475,4.001746292495728C84.3767075,4.315306292495728,84.3485475,4.959496292495727,84.3440075,5.334306292495727C84.3405875,5.594776292495728,84.2654775,5.992716292495728,84.0860275,6.195596292495727C83.9243075,6.378486292495728,83.6551975,6.447386292495728,83.4095475,6.450186292495728L81.9763175,6.450186292495728L81.9763175,3.6984062924957275Z" fill="#241F20" fill-opacity="1" style="mix-blend-mode:passthrough"/></g><g><path d="M72.8124389723875,12.060669632339478L72.8123779296875,1.8952696323394775L78.3394379296875,1.8952696323394775L78.3394379296875,3.7650096323394777L75.6782879296875,3.7650096323394777C75.0626279296875,3.7650096323394777,74.8367279296875,3.9245496323394775,74.8367279296875,4.216319632339477L74.8367279296875,6.064569632339477L77.9300179296875,6.064569632339477L77.9300179296875,7.934299632339478L75.3825979296875,7.934299632339478C74.9066479296875,7.934299632339478,74.8139779296875,8.158439632339476,74.8139779296875,8.579039632339477L74.8139779296875,10.233869632339477L78.3621779296875,10.233839632339478L78.3621779296875,12.060669632339478L72.8124389723875,12.060669632339478Z" fill="#241F20" fill-opacity="1" style="mix-blend-mode:passthrough"/></g><g><path d="M88.8499598828125,10.084743776714477C88.8034698828125,10.085640196714477,88.7586598828125,10.089962856714477,88.7123698828125,10.095577716714477C88.3097868828125,10.165853816714478,87.9860298828125,10.345559616714478,87.8065781828125,10.707687616714477C87.7463019828125,10.829542616714477,87.7109378428125,10.957751616714477,87.7091201318125,11.092288616714477C87.7066173828125,11.303118616714478,87.7022630028125,11.404878616714477,87.7893777828125,11.606888616714478C87.9565538828125,11.994598616714477,88.3837298828125,12.268228616714477,88.8270298828125,12.273168616714477C89.0512898828125,12.275538616714478,89.1873698828125,12.262228616714477,89.3945798828125,12.170248616714478C89.5478898828125,12.102118616714478,89.6649598828125,12.031018616714478,89.7786898828125,11.910238616714478C90.1707998828125,11.493528616714478,90.1513298828125,10.799779616714478,89.7328198828125,10.404341616714477C89.4991798828125,10.183572216714477,89.1754198828125,10.078464856714477,88.8499598828125,10.084743776714477ZM88.8671598828125,10.279752616714477C88.9725898828125,10.279176616714478,89.0904798828125,10.300860616714477,89.1882098828125,10.328503616714478C89.2946498828125,10.358591616714477,89.3758198828125,10.405299616714478,89.4633798828125,10.469342616714478C90.1502698828125,10.973097616714478,89.7563398828125,12.126948616714477,88.8499598828125,12.078158616714477C88.3513908828125,12.051298616714478,87.9672768828125,11.699398616714477,87.9613618828125,11.222288616714478C87.9581808828125,10.958379616714478,88.0062688828125,10.759319616714478,88.1964108828125,10.556013616714477C88.3731358828125,10.367320616714478,88.5756888828125,10.321058616714478,88.8270198828125,10.285168616714477C88.8415598828125,10.284173616714478,88.8520998828125,10.279833616714477,88.8671598828125,10.279752616714477ZM88.7410298828125,10.528929616714478C88.6237298828125,10.528652616714478,88.5141248828125,10.534346616714478,88.4371898828125,10.534346616714478L88.4371898828125,11.823568616714478L88.6435758828125,11.823568616714478L88.6435758828125,11.265628616714478C88.7143098828125,11.265628616714478,88.8031998828125,11.254498616714478,88.8614198828125,11.298128616714477C88.8964498828125,11.324128616714477,88.9297198828125,11.381198616714478,88.9531498828125,11.417298616714477L89.1021998828125,11.650228616714477C89.2081898828125,11.816788616714478,89.2502498828125,11.859068616714477,89.4633698828125,11.801898616714478L89.0964698828125,11.265628616714478C89.1813098828125,11.238548616714478,89.2746998828125,11.216558616714478,89.3372398828125,11.151868616714477C89.4793998828125,11.005086616714477,89.4400898828125,10.700786616714478,89.2569898828125,10.599348616714478C89.1526498828125,10.541455616714478,88.9365298828125,10.529387616714477,88.7410298828125,10.528929616714478ZM88.8098298828125,10.723937616714478C88.9203898828125,10.723591616714478,89.0445898828125,10.730247616714477,89.0964698828125,10.756439616714477C89.2211198828125,10.818979616714477,89.2183898828125,10.997676616714477,89.0964698828125,11.059786616714478C89.0009498828125,11.107928616714478,88.7586598828125,11.092288616714477,88.6435758828125,11.092288616714477L88.6435758828125,10.729355616714477C88.6831518828125,10.729354616714478,88.7434898828125,10.724146616714478,88.8098298828125,10.723937616714478Z" fill="#241F20" fill-opacity="1" style="mix-blend-mode:passthrough"/></g></g><g><path d="M23.2123,0L21.7339,0.0123574L18.8908,0.0123574L10.0885,0.0123574C9.89906,0.0125722,9.61725,0.0538354,9.42892,0.0897261C8.44429,0.276915,7.69212,0.7566,7.20675,1.60271L6.71318,2.72025C5.35783,5.91595,4.07864,9.14095,2.69758,12.3268C2.52631,12.7685,2.36118,13.4042,2.35527,13.8742L2.35527,14.2825C2.35595,14.7128,2.5138,15.353,2.70326,15.7439C2.89182,16.1332,3.07696,16.3309,3.37537,16.6466C3.86257,17.1624,4.48419,17.6372,5.17563,17.8839C5.68479,18.0665,6.23067,18.0914,6.76777,18.1295L27.0107,18.1295C27.7745,18.1092,28.5027,17.9564,29.1942,17.6502C29.5308,17.4779,29.834,17.2455,30.104,16.9904C30.7934,16.339,31.2903,15.5454,31.4295,14.6264L31.4687,14.2825C31.4755,13.7332,31.4715,13.4291,31.3351,12.8856L26.7537,1.75315C26.4405,1.20577,26.0172,0.696101,25.4413,0.378246C25.0471,0.16054,24.2174,0.0175154,23.7582,0.0123572L23.2123,0ZM23.2805,0.85159L23.6899,0.872007C23.8151,0.873511,24.0636,0.908757,24.1903,0.932183C24.7219,1.03083,25.1181,1.18213,25.48,1.58122C25.714,1.83933,25.9005,2.18039,26.0611,2.48385L29.9812,11.9185C30.1936,12.4113,30.5068,13.1953,30.5134,13.7238L30.5134,14.0461C30.5121,14.9041,29.9568,15.9464,29.2624,16.4865C28.6547,16.9591,27.6125,17.2473,26.8287,17.2483L6.74502,17.2483C5.28972,17.1697,4.3967,16.586,3.65854,15.4001C3.38106,14.8278,3.34853,14.4244,3.35604,13.8097C3.36354,13.2075,3.79513,12.3481,4.02872,11.7681L7.44557,3.42946C7.72965,2.74604,7.97848,1.88209,8.58736,1.39747C8.9531,1.10626,9.41504,0.959154,9.88382,0.899408L10.4297,0.856963L10.7481,0.872007L11.6352,0.872007L14.41,0.872007L22.9849,0.872007L23.2805,0.85159ZM16.9347,1.53824C16.7039,1.78357,16.5189,2.0681,16.3502,2.3549C15.9272,3.06401,15.7975,3.85445,15.7975,4.65447C15.799,5.29632,15.9838,5.83676,16.2296,6.50271C15.9137,5.86735,15.7114,5.67556,15.3198,5.35132C14.4392,4.66016,13.0781,4.48211,12.0673,5.01659L10.5434,6.41675C12.3469,6.10641,14.2108,6.55214,15.3062,8.02859C15.7293,8.59314,15.9346,9.25506,15.9567,9.94131C15.0165,9.19005,13.8802,8.69121,12.6814,8.44606C10.7371,8.19068,8.80707,8.70949,7.77195,10.3496C7.51949,10.7676,7.31979,11.3703,7.31365,11.854C7.33713,13.084,7.92698,14.1007,8.97402,14.7983C10.7013,15.8912,12.7939,15.7069,14.5693,14.8445C15.4902,14.3972,16.2052,13.6973,16.9706,13.1806C17.78,13.7993,18.6839,14.4938,19.5504,14.9418C21.2896,15.841,23.3843,15.7338,25.0319,14.6232C25.6155,14.2297,26.029,13.7775,26.2954,13.1435C26.5485,12.4908,26.6226,11.7604,26.4506,11.0803C26.2809,10.4539,25.9506,9.97688,25.4618,9.52922C24.0766,8.36106,22.5272,8.16214,20.7786,8.51483C19.8015,8.74565,18.6729,9.29851,17.9128,9.91982C17.8997,9.12218,18.2619,8.40608,18.7754,7.79219C19.6642,6.78597,21.0029,6.29425,22.3708,6.30929C22.7095,6.3207,23.038,6.38046,23.3715,6.43824L21.7794,4.9403C21.554,4.82339,21.304,4.75666,21.0515,4.71733C20.2559,4.59311,19.4872,4.75344,18.8226,5.18906C18.2971,5.5074,17.979,6.02536,17.6398,6.50271C17.8338,6.05206,17.9286,5.73397,18.0219,5.34219C18.2296,4.41334,18.0945,3.35618,17.6455,2.50534C17.4681,2.23063,17.1536,1.75972,16.9347,1.53824ZM23.7542,10.8235C24.4086,11.4803,24.317,12.5351,23.599,13.1156C21.8446,14.2409,19.8968,12.9639,18.5087,11.8766C19.3381,11.1535,20.2717,10.6459,21.2563,10.347C22.1281,10.1422,23.0601,10.2659,23.7542,10.8235ZM15.3608,11.9378C13.8162,13.2258,12.2552,14.1725,10.3387,13.2134C9.51603,12.6445,9.42164,11.5205,10.1579,10.8461C10.5471,10.4896,11.0486,10.3631,11.5669,10.2911C13.1777,10.2333,14.2377,11.007,15.3608,11.9378ZM1.17083,15.8315C1.13364,15.8322,1.09612,15.8347,1.05881,15.839C0.638027,15.9042,0.299697,16.0719,0.110914,16.4532C-0.156565,16.9932,0.0739544,17.6596,0.649399,17.9194C0.787688,17.9817,0.927796,18.0203,1.08155,18.022C1.40703,18.0255,1.62766,18.004,1.90037,17.8125C2.02046,17.728,2.11599,17.6261,2.19491,17.5062C2.29772,17.3498,2.35299,17.1746,2.35526,16.9904C2.35731,16.8258,2.35754,16.7196,2.29726,16.5606C2.13422,16.129,1.68546,15.8365,1.20779,15.8315C1.19543,15.8314,1.18322,15.8313,1.17083,15.8315ZM1.15945,16.0427C1.17521,16.0424,1.19062,16.0425,1.20608,16.0427C1.47407,16.0465,1.69801,16.1255,1.89297,16.3457C2.32445,16.8335,2.09552,17.7252,1.309,17.8222C1.18254,17.8378,1.04493,17.8306,0.922337,17.798C0.164706,17.596,0.0248256,16.6133,0.649399,16.191C0.764034,16.1134,0.876393,16.0758,1.01332,16.0513C1.06334,16.0466,1.11217,16.0435,1.15945,16.0427ZM1.04004,16.2963C0.914387,16.2974,0.796103,16.3027,0.717634,16.3027L0.717634,17.5707L0.945082,17.5707L0.945082,17.0334L1.14581,17.0334L1.5211,17.5707L1.7639,17.5707L1.39998,17.0119C1.48868,16.9922,1.57773,16.9668,1.64051,16.9002C1.76879,16.7641,1.74411,16.4691,1.5808,16.3672C1.4793,16.3039,1.24947,16.2943,1.04004,16.2963ZM1.11396,16.4725C1.22143,16.4725,1.33843,16.4784,1.39771,16.5085C1.52144,16.571,1.51871,16.7495,1.39771,16.8121C1.31582,16.8544,1.04925,16.84,0.945082,16.84L0.945082,16.4746C0.988241,16.4746,1.04948,16.4725,1.11396,16.4725Z" fill="#20772C" fill-opacity="1" style="mix-blend-mode:passthrough"/></g></g></svg>