<svg width="30" height="40" viewBox="0 0 30 40" fill="none" xmlns="http://www.w3.org/2000/svg">
<g clip-path="url(#clip0_788_14472)">
<path fill-rule="evenodd" clip-rule="evenodd" d="M8.26868 0.291626H21.7034L28.2757 7.88287V32.1164L21.7034 39.7077H8.26868L1.79297 32.1164V7.88287L8.26868 0.291626Z" stroke="#555555" stroke-miterlimit="10"/>
<path fill-rule="evenodd" clip-rule="evenodd" d="M9.13709 2.91936C13.0032 2.91936 16.8693 2.91936 20.832 2.91936C22.6685 5.1578 24.6014 7.29892 26.4379 9.53736C26.4379 16.5447 26.4379 23.552 26.4379 30.5593C24.6014 32.7977 22.6685 34.9388 20.832 37.1773C16.966 37.1773 13.0032 37.1773 9.13709 37.1773C7.30069 34.8415 5.36764 32.7004 3.53125 30.4619C3.53125 23.4546 3.53125 16.4473 3.53125 9.44004C5.36764 7.29892 7.30069 5.06048 9.13709 2.91936Z" stroke="#555555" stroke-miterlimit="10"/>
<path fill-rule="evenodd" clip-rule="evenodd" d="M10.1031 5.54712C13.3894 5.54712 16.6755 5.54712 19.9617 5.54712C21.5082 7.39627 23.1513 9.24542 24.6976 11.0945C24.6976 17.0313 24.6976 22.8707 24.6976 28.8074C23.1513 30.6566 21.5082 32.5057 19.9617 34.3549C16.6755 34.3549 13.3894 34.3549 10.1031 34.3549C8.55671 32.5057 6.91362 30.6566 5.36719 28.8074C5.36719 22.8707 5.36719 17.0313 5.36719 11.0945C6.91362 9.24542 8.46006 7.39627 10.1031 5.54712Z" stroke="#555555" stroke-miterlimit="10"/>
<path fill-rule="evenodd" clip-rule="evenodd" d="M10.9755 8.27209H18.9976L22.8637 12.749V27.1529L18.9976 31.7271H10.9755L7.10938 27.1529V12.749L10.9755 8.27209Z" stroke="#555555" stroke-miterlimit="10"/>
<path d="M10.9758 8.27217L8.26953 0.291626" stroke="#555555" stroke-miterlimit="10"/>
<path d="M18.9922 8.27217L21.6985 0.291626" stroke="#555555" stroke-miterlimit="10"/>
<path d="M22.8633 12.749L28.2758 7.88281" stroke="#555555" stroke-miterlimit="10"/>
<path d="M22.8633 27.153L28.2758 32.1165" stroke="#555555" stroke-miterlimit="10"/>
<path d="M18.9922 31.7269L21.6985 39.7075" stroke="#555555" stroke-miterlimit="10"/>
<path d="M10.9758 31.7269L8.26953 39.7075" stroke="#555555" stroke-miterlimit="10"/>
<path d="M7.10885 27.153L1.79297 32.1165" stroke="#555555" stroke-miterlimit="10"/>
<path d="M7.10885 12.749L1.79297 7.88281" stroke="#555555" stroke-miterlimit="10"/>
</g>
<defs>
<clipPath id="clip0_788_14472">
<rect width="28.8" height="40" fill="white" transform="translate(0.601562)"/>
</clipPath>
</defs>
</svg>
