<svg width="45" height="50" viewBox="0 0 45 50" fill="none" xmlns="http://www.w3.org/2000/svg">
<path d="M44.915 22.7494C44.9083 22.2674 44.5659 21.8558 44.0934 21.7612C43.9522 21.7329 41.5653 21.2851 38.6523 22.5118C40.1007 18.0078 38.7524 13.1098 38.6755 12.8387C38.5506 12.3984 38.1486 12.0954 37.6921 12.0954C37.6872 12.0954 37.682 12.0954 37.6772 12.0955C37.4754 12.0984 33.3033 12.1922 29.6404 14.7774C28.7811 7.00379 23.483 0.651561 23.2383 0.362206C23.0441 0.132519 22.7584 0 22.4577 0C22.1568 0 21.8711 0.132519 21.6769 0.362304C21.4323 0.651659 16.1341 7.00389 15.2751 14.7775C11.612 12.1923 7.43992 12.0986 7.23826 12.0956C6.7782 12.0927 6.36619 12.3937 6.24002 12.8388C6.16316 13.1098 4.81473 18.0078 6.26326 22.5118C3.34999 21.2851 0.963371 21.7331 0.82216 21.7613C0.349505 21.8557 0.00722093 22.2675 0.000385003 22.7495C-0.00107984 22.8539 -0.0264704 25.3438 0.756145 28.6663C1.48212 31.7482 3.07343 36.1582 6.5327 39.6663C10.2174 43.4031 15.2279 45.3915 21.4354 45.5868V48.9777C21.4354 49.5424 21.8931 50 22.4577 50C23.0223 50 23.4799 49.5423 23.4799 48.9777V45.5868C29.6874 45.3915 34.698 43.4031 38.3826 39.6663C41.8419 36.1582 43.4333 31.7481 44.1592 28.6663C44.9419 25.3436 44.9164 22.8538 44.915 22.7494ZM36.9151 38.2425C33.9361 41.2576 29.9495 43.0013 25.0413 43.4449L32.4142 36.0721C32.8134 35.6729 32.8134 35.0256 32.4142 34.6263C32.015 34.2271 31.3677 34.2271 30.9684 34.6263L23.4799 42.1148V31.1685L32.4143 22.2341C32.8135 21.8349 32.8135 21.1877 32.4143 20.7883C32.0151 20.3891 31.3677 20.3891 30.9685 20.7883L23.48 28.2768V13.1956C23.48 12.6309 23.0223 12.1733 22.4578 12.1733C21.8931 12.1733 21.4355 12.631 21.4355 13.1956V28.2744L13.9494 20.7882C13.5502 20.389 12.9029 20.389 12.5036 20.7882C12.1044 21.1875 12.1044 21.8348 12.5036 22.2341L21.4355 31.166V42.1124L13.9494 34.6263C13.5502 34.2271 12.9029 34.2271 12.5036 34.6263C12.1044 35.0255 12.1044 35.6728 12.5036 36.0721L19.8766 43.4451C14.9671 43.0019 10.9797 41.2581 8.00017 38.2425C3.11356 33.2966 2.23563 26.2073 2.0787 23.6993C3.42733 23.6871 6.13572 24.0402 8.72068 26.6253C9.1198 27.0246 9.76716 27.0246 10.1664 26.6253C10.5656 26.2261 10.5657 25.5788 10.1664 25.1794C10.1647 25.1779 10.163 25.176 10.1614 25.1746C6.88387 21.8904 7.60877 16.2882 8.02254 14.2065C9.55417 14.3895 12.9366 15.071 15.4574 17.5919C15.7499 17.8842 16.1894 17.9715 16.5715 17.8133C16.9536 17.6551 17.2026 17.2824 17.2026 16.8688C17.2026 10.6905 20.8254 4.96962 22.4578 2.70585C24.0905 4.9703 27.7129 10.691 27.7129 16.8688C27.7129 17.2822 27.962 17.655 28.344 17.8133C28.7259 17.9717 29.1657 17.884 29.458 17.5919C31.9664 15.0834 35.3609 14.3955 36.895 14.2088C37.312 16.2902 38.0411 21.8808 34.7541 25.1745C34.7525 25.1761 34.7506 25.178 34.7491 25.1794C34.3499 25.5788 34.3499 26.226 34.7491 26.6252C35.1483 27.0245 35.7956 27.0245 36.1948 26.6252C38.7802 24.0399 41.4884 23.6859 42.8367 23.6992C42.6796 26.2084 41.8015 33.297 36.9151 38.2425Z" fill="#555555"/>
</svg>
