<svg width="37" height="42" viewBox="0 0 37 42" fill="none" xmlns="http://www.w3.org/2000/svg">
<path d="M21.868 24.0273L22.9716 21.3658M21.868 24.0273L26.2823 23.5755L25.8308 27.9944M21.868 24.0273L25.7806 33.6685M21.868 24.0273L19.0581 20.5625L16.2491 24.0274L25.8308 27.9944M25.8308 27.9944L28.5385 26.8897M28.5385 34.7731L25.8297 33.6182L26.2311 38.0873L21.8169 37.5852L18.9575 40.9999L16.1986 37.5351L11.7844 37.9369L12.2861 33.5179L8.875 30.6558L12.3863 27.8939L11.9851 23.4249L16.3994 23.9773M21.868 37.6354L22.9716 40.2968M16.2477 37.6354L15.1441 40.2968M12.286 33.6182L9.62735 34.7731M9.62735 26.8897L12.286 27.9944L21.8662 24.0273M16.2477 24.0273L15.1441 21.3658M25.829 27.9942L29.2902 30.8564L25.7789 33.6183M25.8799 28.0444L21.7666 37.5853M25.8291 33.6685L16.1479 37.5351L12.3864 27.8435M21.7659 37.6354L12.2852 33.4676M12.237 33.4674L16.4506 23.9265M19.0579 40.9999C24.6761 40.9999 29.2408 36.3802 29.2408 30.756C29.2408 25.1319 24.6761 20.5121 19.0579 20.5121C13.4397 20.5624 8.875 25.1319 8.875 30.8063C8.875 36.4304 13.4397 40.9999 19.0579 40.9999Z" stroke="#555555" stroke-width="0.4" stroke-miterlimit="10"/>
<path d="M27.6852 1L22.7866 1.57662M27.6852 1L32.8312 1.47178M27.6852 1L23.133 3.20179M27.6852 1L32.1875 3.14925M22.7866 1.57662L20.8073 2.31051L19.9166 4.51218M22.7866 1.57662L23.6273 5.08867L22.7866 9.75431M19.9166 4.51218L19.5703 9.91148L19.8672 14.9439L20.8568 17.3028L22.8855 18.1939M19.9166 4.51218L21.599 5.0365M32.8312 1.47178L34.761 2.31051M32.8312 1.47178L32.336 2.99187L31.7918 5.3508M23.133 3.20179L27.8337 4.45988L31.7918 5.3508M23.133 3.20179L20.8073 2.36305L21.599 5.0365M34.761 2.31051L35.4537 4.25008M34.761 2.31051L31.9896 3.2018L27.6848 4.45989L23.4294 5.2462L21.599 5.0365M31.7918 5.3508L32.7814 9.64926M31.7918 5.3508L33.9692 4.98408M32.7814 9.64926L33.9689 14.6292M32.7814 9.64926L33.968 4.98364L34.7598 2.36261M32.7814 9.64926L31.9888 14.1049M33.9689 14.6292L36.0969 9.59702M33.9689 14.6292L31.9888 14.1049M33.9689 14.6292L34.6616 16.9881M33.9689 14.6292L35.5514 14.8388M36.0969 9.59702L35.4537 4.25008M36.0969 9.59702L35.5527 14.8391L34.7115 17.0932L32.8312 17.8795L27.8337 18.561L22.8855 18.1939M36.0969 9.59702L33.9692 4.98408M35.4537 4.25008L33.9692 4.98408M21.599 5.0365L22.7866 9.75431M21.599 5.0365L19.5703 9.59691L21.6485 14.5245M22.8855 18.1939L23.3309 16.2545L23.6772 14.2625L22.7866 9.75431M22.7866 9.75431L21.6485 14.5245M21.6485 14.5245L20.9059 17.1454L23.182 16.3591L27.783 14.839M31.9888 14.1049L32.1868 16.2017M31.9888 14.1049L27.783 14.839M32.1868 16.2017L32.83 17.8791M32.1868 16.2017L27.8325 18.5609L23.3297 16.2543M32.1868 16.2017L27.783 14.839M32.1868 16.2017L34.6616 16.9881M27.783 14.839L23.676 14.2624L21.6473 14.6818L19.866 14.9439M34.6616 16.9881L34.7598 16.831" stroke="#555555" stroke-width="0.4" stroke-miterlimit="10"/>
<path d="M3.42131 1.97569L1.19248 4.35919L5.08108 7.3881M3.42131 1.97569H13.7593M3.42131 1.97569L6.21849 6.14683L11.5305 6.19634L12.8584 7.33854M5.08108 7.3881L4.98625 13.2478M5.08108 7.3881L6.17108 6.09693M13.7593 1.97569L16.6521 4.35919M13.7593 1.97569L11.4823 6.19648M16.6521 4.25998V15.7802L13.9016 18.5608M13.9498 18.5611H3.75403L1.14582 15.8298M1.19248 4.30974V15.8796M1.09766 15.8298L5.0811 13.1484M3.84816 18.5112L6.3141 14.4394M6.3141 14.4394H11.4831L12.8584 13.049L12.9058 7.28883M6.3141 14.4394L4.98625 13.1981M13.8067 18.5609L11.3882 14.4891M16.6521 15.8297L12.8109 13.0489M16.6054 4.35905L12.7642 7.33844M2.42549 5.30262V14.9359L4.55949 17.2202L13.048 17.2699M13.0014 17.2697L15.3725 14.8863V5.25287M4.2749 3.36616H12.9058L15.3709 5.30277M4.3698 3.31642L2.42549 5.40198M3.84816 14.0422V6.44462L5.31824 4.80596L12.0515 4.8064M12.0529 4.8064L14.0446 6.44505M13.9965 6.29594V13.8437M13.9965 13.9925L12.1471 15.8298L5.46046 15.78M5.55535 15.7304L3.84816 13.9925" stroke="#555555" stroke-width="0.4" stroke-miterlimit="10"/>
</svg>
