<svg width="40" height="40" viewBox="0 0 40 40" fill="none" xmlns="http://www.w3.org/2000/svg">
<g clip-path="url(#clip0_949_7341)">
<path d="M6.69141 1.02563H31.9135" stroke="#555555" stroke-miterlimit="10"/>
<path d="M6.69558 1.02563L1.25781 6.47927" stroke="#555555" stroke-miterlimit="10"/>
<path d="M31.918 1.02563L38.9755 6.47927" stroke="#555555" stroke-miterlimit="10"/>
<path d="M38.9727 6.25195V32.6112" stroke="#555555" stroke-miterlimit="10"/>
<path d="M38.9722 32.6113L32.2617 38.9739" stroke="#555555" stroke-miterlimit="10"/>
<path d="M32.3827 38.9744H7.50781" stroke="#555555" stroke-miterlimit="10"/>
<path d="M7.50788 38.9744L1.14453 32.7255" stroke="#555555" stroke-miterlimit="10"/>
<path d="M1.25781 6.3656V32.8384" stroke="#555555" stroke-miterlimit="10"/>
<path d="M1.02734 32.725L10.7459 26.5896" stroke="#555555" stroke-miterlimit="10"/>
<path d="M7.73438 38.8603L13.7506 29.5437" stroke="#555555" stroke-miterlimit="10"/>
<path d="M32.0334 38.9738L26.1328 29.6572" stroke="#555555" stroke-miterlimit="10"/>
<path d="M38.973 32.7249L29.6016 26.3623" stroke="#555555" stroke-miterlimit="10"/>
<path d="M38.8597 6.479L29.4883 13.296" stroke="#555555" stroke-miterlimit="10"/>
<path d="M31.9168 1.02563L26.3633 10.6831" stroke="#555555" stroke-miterlimit="10"/>
<path d="M6.69141 1.02563L13.5176 10.5695" stroke="#555555" stroke-miterlimit="10"/>
<path d="M1.25781 6.47925L10.745 13.4099" stroke="#555555" stroke-miterlimit="10"/>
<path d="M10.7422 13.4097L13.4032 10.4557" stroke="#555555" stroke-miterlimit="10"/>
<path d="M10.7431 13.4098L10.5117 26.8167" stroke="#555555" stroke-miterlimit="10"/>
<path d="M4.26562 8.63806V30.6798" stroke="#555555" stroke-miterlimit="10"/>
<path d="M4.26562 30.6798L9.472 35.9062" stroke="#555555" stroke-miterlimit="10"/>
<path d="M9.47266 35.9061L30.1824 36.0201" stroke="#555555" stroke-miterlimit="10"/>
<path d="M30.0664 36.0199L35.8513 30.5663" stroke="#555555" stroke-miterlimit="10"/>
<path d="M35.8516 8.52393V30.5657" stroke="#555555" stroke-miterlimit="10"/>
<path d="M8.77734 4.20691H29.8343" stroke="#555555" stroke-miterlimit="10"/>
<path d="M29.832 4.20667L35.8483 8.63774" stroke="#555555" stroke-miterlimit="10"/>
<path d="M9.00921 4.09326L4.26562 8.86519" stroke="#555555" stroke-miterlimit="10"/>
<path d="M7.73438 11.2512L11.321 7.50183" stroke="#555555" stroke-miterlimit="10"/>
<path d="M11.3203 7.50195H27.7493" stroke="#555555" stroke-miterlimit="10"/>
<path d="M27.7539 7.50195L32.6132 11.2513" stroke="#555555" stroke-miterlimit="10"/>
<path d="M32.4961 10.9104V28.1802" stroke="#555555" stroke-miterlimit="10"/>
<path d="M32.4966 28.521L27.9844 32.7249" stroke="#555555" stroke-miterlimit="10"/>
<path d="M11.668 32.6113L27.9813 32.7253" stroke="#555555" stroke-miterlimit="10"/>
<path d="M11.8995 32.4976L7.73438 28.521" stroke="#555555" stroke-miterlimit="10"/>
<path d="M7.73438 11.2512V28.6347" stroke="#555555" stroke-miterlimit="10"/>
<path d="M13.5195 10.5696L26.4777 10.6835" stroke="#555555" stroke-miterlimit="10"/>
<path d="M26.4805 10.6832L29.72 13.2964" stroke="#555555" stroke-miterlimit="10"/>
<path d="M29.8344 13.1827L29.7188 26.3624" stroke="#555555" stroke-miterlimit="10"/>
<path d="M26.3633 29.5434L29.7186 26.3622" stroke="#555555" stroke-miterlimit="10"/>
<path d="M26.3649 29.5437H13.7539" stroke="#555555" stroke-miterlimit="10"/>
<path d="M13.7512 29.5435L10.5117 26.7031" stroke="#555555" stroke-miterlimit="10"/>
</g>
<defs>
<clipPath id="clip0_949_7341">
<rect width="40" height="40" fill="white"/>
</clipPath>
</defs>
</svg>
