<svg width="36" height="40" viewBox="0 0 36 40" fill="none" xmlns="http://www.w3.org/2000/svg">
<path d="M6.26172 1.44421H28.1863" stroke="#555555" stroke-miterlimit="10"/>
<path d="M6.26592 1.44421L1.53906 6.77754" stroke="#555555" stroke-miterlimit="10"/>
<path d="M28.1875 1.44421L34.3224 6.77754" stroke="#555555" stroke-miterlimit="10"/>
<path d="M34.3242 6.55542V32.3332" stroke="#555555" stroke-miterlimit="10"/>
<path d="M34.3214 32.3331L28.4883 38.5554" stroke="#555555" stroke-miterlimit="10"/>
<path d="M28.5916 38.5558H6.96875" stroke="#555555" stroke-miterlimit="10"/>
<path d="M6.96893 38.5558L1.4375 32.4447" stroke="#555555" stroke-miterlimit="10"/>
<path d="M1.53906 6.66638V32.5552" stroke="#555555" stroke-miterlimit="10"/>
<path d="M1.33594 32.4442L9.78394 26.4442" stroke="#555555" stroke-miterlimit="10"/>
<path d="M7.16797 38.4442L12.3977 29.3331" stroke="#555555" stroke-miterlimit="10"/>
<path d="M28.2893 38.5553L23.1602 29.4442" stroke="#555555" stroke-miterlimit="10"/>
<path d="M34.3221 32.4442L26.1758 26.222" stroke="#555555" stroke-miterlimit="10"/>
<path d="M34.2244 6.77734L26.0781 13.444" stroke="#555555" stroke-miterlimit="10"/>
<path d="M28.1868 1.44423L23.3594 10.8887" stroke="#555555" stroke-miterlimit="10"/>
<path d="M6.26172 1.44421L12.1955 10.7776" stroke="#555555" stroke-miterlimit="10"/>
<path d="M1.53906 6.77759L9.78592 13.5554" stroke="#555555" stroke-miterlimit="10"/>
<path d="M9.78125 13.5552L12.0944 10.6663" stroke="#555555" stroke-miterlimit="10"/>
<path d="M9.78317 13.5553L9.58203 26.6664" stroke="#555555" stroke-miterlimit="10"/>
<path d="M4.15234 8.88867V30.4442" stroke="#555555" stroke-miterlimit="10"/>
<path d="M4.15234 30.4442L8.67806 35.5554" stroke="#555555" stroke-miterlimit="10"/>
<path d="M8.67578 35.5553L26.678 35.6664" stroke="#555555" stroke-miterlimit="10"/>
<path d="M26.582 35.6664L31.6106 30.3331" stroke="#555555" stroke-miterlimit="10"/>
<path d="M31.6094 8.77713V30.3327" stroke="#555555" stroke-miterlimit="10"/>
<path d="M8.07422 4.55534H26.3782" stroke="#555555" stroke-miterlimit="10"/>
<path d="M26.375 4.55518L31.6047 8.88851" stroke="#555555" stroke-miterlimit="10"/>
<path d="M8.27577 4.44421L4.15234 9.11088" stroke="#555555" stroke-miterlimit="10"/>
<path d="M7.16797 11.4442L10.2857 7.77759" stroke="#555555" stroke-miterlimit="10"/>
<path d="M10.2852 7.77779H24.5663" stroke="#555555" stroke-miterlimit="10"/>
<path d="M24.5703 7.77783L28.7943 11.4445" stroke="#555555" stroke-miterlimit="10"/>
<path d="M28.6914 11.1109V27.9998" stroke="#555555" stroke-miterlimit="10"/>
<path d="M28.6918 28.3331L24.7695 32.4442" stroke="#555555" stroke-miterlimit="10"/>
<path d="M10.5898 32.3331L24.7704 32.4442" stroke="#555555" stroke-miterlimit="10"/>
<path d="M10.7885 32.222L7.16797 28.3331" stroke="#555555" stroke-miterlimit="10"/>
<path d="M7.16797 11.4442V28.4442" stroke="#555555" stroke-miterlimit="10"/>
<path d="M12.1992 10.7776L23.4632 10.8887" stroke="#555555" stroke-miterlimit="10"/>
<path d="M23.4609 10.8887L26.2769 13.4442" stroke="#555555" stroke-miterlimit="10"/>
<path d="M26.3779 13.3331L26.2773 26.222" stroke="#555555" stroke-miterlimit="10"/>
<path d="M23.3594 29.3329L26.2759 26.2218" stroke="#555555" stroke-miterlimit="10"/>
<path d="M23.3607 29.3331H12.3984" stroke="#555555" stroke-miterlimit="10"/>
<path d="M12.398 29.3331L9.58203 26.5554" stroke="#555555" stroke-miterlimit="10"/>
</svg>
