<svg width="39" height="39" viewBox="0 0 39 39" fill="none" xmlns="http://www.w3.org/2000/svg">
<g clip-path="url(#clip0_788_14420)">
<path fill-rule="evenodd" clip-rule="evenodd" d="M19.7492 4.30487C22.0052 1.50631 30.127 -0.20895 34.0073 2.86045C37.8877 5.92985 43.4826 21.9088 19.7492 37.7072C-3.98427 21.8185 1.70093 5.83957 5.49106 2.86045C9.37143 -0.20895 17.4932 1.50631 19.7492 4.30487Z" stroke="#555555" stroke-miterlimit="10"/>
<path d="M10.451 1.23517L2.05859 11.8878" stroke="#555555" stroke-miterlimit="10"/>
<path d="M19.7519 6.83262L10.457 1.23547" stroke="#555555" stroke-miterlimit="10"/>
<path d="M5.49219 2.86047L7.65798 4.84656" stroke="#555555" stroke-miterlimit="10"/>
<path d="M13.7005 3.22192L11.625 5.83995" stroke="#555555" stroke-miterlimit="10"/>
<path d="M2.0625 11.8882L8.10867 19.2908" stroke="#555555" stroke-miterlimit="10"/>
<path d="M4.41016 21.7283L8.11005 19.2909" stroke="#555555" stroke-miterlimit="10"/>
<path d="M8.65082 28.1383L8.10938 19.2911" stroke="#555555" stroke-miterlimit="10"/>
<path d="M13.8828 33.2836L15.9584 30.0337" stroke="#555555" stroke-miterlimit="10"/>
<path d="M19.751 37.6169L15.9609 30.0337" stroke="#555555" stroke-miterlimit="10"/>
<path d="M8.64844 28.1379L15.958 30.0337" stroke="#555555" stroke-miterlimit="10"/>
<path d="M7.66016 4.84619L9.46499 12.1586" stroke="#555555" stroke-miterlimit="10"/>
<path d="M8.10938 19.2912L9.46299 12.1593" stroke="#555555" stroke-miterlimit="10"/>
<path d="M11.6267 5.8396L9.46094 12.159" stroke="#555555" stroke-miterlimit="10"/>
<path d="M7.66016 4.84619L11.6308 5.83923" stroke="#555555" stroke-miterlimit="10"/>
<path d="M9.46094 12.1591L14.4242 23.0825" stroke="#555555" stroke-miterlimit="10"/>
<path d="M15.9599 30.0337L14.4258 23.0824" stroke="#555555" stroke-miterlimit="10"/>
<path d="M8.10938 19.2911L14.4263 23.0828" stroke="#555555" stroke-miterlimit="10"/>
<path d="M15.9609 30.0338L19.751 26.8741" stroke="#555555" stroke-miterlimit="10"/>
<path d="M14.4258 23.0824L19.7499 26.874" stroke="#555555" stroke-miterlimit="10"/>
<path d="M11.625 5.8396L19.7467 6.83264" stroke="#555555" stroke-miterlimit="10"/>
<path d="M19.75 4.30493V6.83268" stroke="#555555" stroke-miterlimit="10"/>
<path d="M28.957 1.23523L37.3495 11.7073" stroke="#555555" stroke-miterlimit="10"/>
<path d="M19.75 6.83266L28.9546 1.23552" stroke="#555555" stroke-miterlimit="10"/>
<path d="M33.9193 2.86047L31.8438 4.84655" stroke="#555555" stroke-miterlimit="10"/>
<path d="M25.7031 3.22192L27.869 5.83995" stroke="#555555" stroke-miterlimit="10"/>
<path d="M37.347 11.7076L31.3008 19.2908" stroke="#555555" stroke-miterlimit="10"/>
<path d="M35.0909 21.7283L31.3008 19.2909" stroke="#555555" stroke-miterlimit="10"/>
<path d="M30.7578 28.1383L31.2993 19.2912" stroke="#555555" stroke-miterlimit="10"/>
<path d="M25.5286 33.2841L23.4531 30.0342" stroke="#555555" stroke-miterlimit="10"/>
<path d="M19.75 37.6169L23.4498 30.0337" stroke="#555555" stroke-miterlimit="10"/>
<path d="M30.7627 28.1384L23.4531 30.0343" stroke="#555555" stroke-miterlimit="10"/>
<path d="M31.8443 4.84619L29.9492 12.1586" stroke="#555555" stroke-miterlimit="10"/>
<path d="M31.3028 19.2912L29.9492 12.1593" stroke="#555555" stroke-miterlimit="10"/>
<path d="M27.875 5.8396L29.9505 12.159" stroke="#555555" stroke-miterlimit="10"/>
<path d="M31.8457 4.84619L27.875 5.83923" stroke="#555555" stroke-miterlimit="10"/>
<path d="M29.9477 12.159L24.9844 23.0824" stroke="#555555" stroke-miterlimit="10"/>
<path d="M23.4531 30.0337L24.9872 23.0824" stroke="#555555" stroke-miterlimit="10"/>
<path d="M31.3013 19.2909L24.9844 23.0824" stroke="#555555" stroke-miterlimit="10"/>
<path d="M23.4498 30.0337L19.75 26.8741" stroke="#555555" stroke-miterlimit="10"/>
<path d="M24.9839 23.0824L19.75 26.8741" stroke="#555555" stroke-miterlimit="10"/>
<path d="M27.8717 5.83961L19.75 6.83266" stroke="#555555" stroke-miterlimit="10"/>
<path d="M19.75 4.30493V6.83268" stroke="#555555" stroke-miterlimit="10"/>
</g>
<defs>
<clipPath id="clip0_788_14420">
<rect width="37.6" height="38.4" fill="white" transform="translate(0.601562)"/>
</clipPath>
</defs>
</svg>
