<svg width="40" height="40" viewBox="0 0 40 40" fill="none" xmlns="http://www.w3.org/2000/svg">
<g clip-path="url(#clip0_788_14260)">
<path fill-rule="evenodd" clip-rule="evenodd" d="M19.8867 39.2892C30.6453 39.2892 39.3867 30.495 39.3867 19.7891C39.3867 9.0833 30.6453 0.289185 19.8867 0.289185C9.1281 0.384772 0.386719 9.0833 0.386719 19.8847C0.386719 30.5906 9.1281 39.2892 19.8867 39.2892Z" stroke="#555555" stroke-miterlimit="10"/>
<path d="M25.3516 7.0358L27.4721 1.92737" stroke="#555555" stroke-miterlimit="10"/>
<path d="M32.9648 14.6507L38.1696 12.5302" stroke="#555555" stroke-miterlimit="10"/>
<path d="M32.9648 25.4458L38.1696 27.6627" stroke="#555555" stroke-miterlimit="10"/>
<path d="M25.3516 33.1566L27.4721 38.265" stroke="#555555" stroke-miterlimit="10"/>
<path d="M14.5501 33.1566L12.4297 38.265" stroke="#555555" stroke-miterlimit="10"/>
<path d="M6.94047 25.4458L1.83203 27.6627" stroke="#555555" stroke-miterlimit="10"/>
<path d="M6.94047 14.6507L1.83203 12.5302" stroke="#555555" stroke-miterlimit="10"/>
<path d="M14.5501 7.0358L12.4297 1.92737" stroke="#555555" stroke-miterlimit="10"/>
<path d="M14.5547 7.03622L19.9523 0.38562L25.3499 7.03622" stroke="#555555" stroke-miterlimit="10"/>
<path d="M6.9375 14.6505L25.3471 7.03601" stroke="#555555" stroke-miterlimit="10"/>
<path d="M25.3516 7.03678L33.8335 6.16931L32.966 14.6512" stroke="#555555" stroke-miterlimit="10"/>
<path d="M32.9636 14.6508L39.6142 20.1447L32.8672 25.4459" stroke="#555555" stroke-miterlimit="10"/>
<path d="M32.9648 25.4458L33.7359 34.0241L25.2539 33.0603" stroke="#555555" stroke-miterlimit="10"/>
<path d="M25.2522 33.0602L19.7582 39.6145L14.457 32.9639" stroke="#555555" stroke-miterlimit="10"/>
<path d="M14.4585 32.9639L5.97656 33.735L6.94041 25.2531" stroke="#555555" stroke-miterlimit="10"/>
<path d="M6.94094 25.253L0.386719 19.7591L7.13371 14.4579" stroke="#555555" stroke-miterlimit="10"/>
<path d="M7.13436 14.458L6.36328 5.87964L14.8453 6.93988" stroke="#555555" stroke-miterlimit="10"/>
<path d="M14.5547 7.03625L32.9643 14.6507" stroke="#555555" stroke-miterlimit="10"/>
<path d="M25.3516 7.03601L32.8696 25.542" stroke="#555555" stroke-miterlimit="10"/>
<path d="M33.0599 14.747L25.1562 33.0602" stroke="#555555" stroke-miterlimit="10"/>
<path d="M32.9618 25.5419L14.3594 32.9636" stroke="#555555" stroke-miterlimit="10"/>
<path d="M25.1544 33.1561L6.9375 25.1561" stroke="#555555" stroke-miterlimit="10"/>
<path d="M14.3617 32.9639L7.13281 14.3615" stroke="#555555" stroke-miterlimit="10"/>
<path d="M6.84375 25.1564L14.9401 6.84314" stroke="#555555" stroke-miterlimit="10"/>
</g>
<defs>
<clipPath id="clip0_788_14260">
<rect width="40" height="40" fill="white"/>
</clipPath>
</defs>
</svg>
