<svg width="50" height="50" viewBox="0 0 50 50" fill="none" xmlns="http://www.w3.org/2000/svg">
<path d="M21.666 21.6666H23.3327V23.3333H21.666V21.6666ZM26.666 21.6666H28.3327V23.3333H26.666V21.6666Z" fill="#555555"/>
<path d="M49.25 20L43.875 19.4667C43.7203 19.4547 43.5725 19.3978 43.4497 19.3031C43.3268 19.2084 43.2343 19.0799 43.1833 18.9333C42.8964 18.0801 42.5512 17.2475 42.15 16.4417C42.0808 16.3011 42.0541 16.1434 42.0734 15.988C42.0926 15.8325 42.1569 15.6861 42.2583 15.5667L45.6833 11.3833C45.812 11.2223 45.8772 11.0197 45.8664 10.8139C45.8557 10.6081 45.7698 10.4134 45.625 10.2667L39.7333 4.375C39.5866 4.23024 39.3919 4.14435 39.1861 4.13359C38.9803 4.12284 38.7777 4.18798 38.6167 4.31667L34.4333 7.74167C34.3139 7.84307 34.1675 7.90735 34.012 7.9266C33.8566 7.94585 33.6989 7.91922 33.5583 7.85C32.7531 7.44737 31.9205 7.10206 31.0667 6.81667C30.9201 6.76574 30.7916 6.67319 30.6969 6.55033C30.6022 6.42748 30.5453 6.27967 30.5333 6.125L30 0.75C29.9766 0.544805 29.879 0.355258 29.7254 0.217101C29.5719 0.0789437 29.3732 0.00172304 29.1667 0H20.8333C20.6268 0.00172304 20.4281 0.0789437 20.2746 0.217101C20.121 0.355258 20.0234 0.544805 20 0.75L19.4667 6.125C19.4547 6.27967 19.3978 6.42748 19.3031 6.55033C19.2084 6.67319 19.0799 6.76574 18.9333 6.81667C18.0795 7.10206 17.2469 7.44737 16.4417 7.85C16.3011 7.91922 16.1434 7.94585 15.988 7.9266C15.8325 7.90735 15.6861 7.84307 15.5667 7.74167L11.3833 4.31667C11.2224 4.18781 11.0198 4.12256 10.8139 4.13331C10.608 4.14407 10.4133 4.23008 10.2667 4.375L4.375 10.2667C4.23008 10.4133 4.14407 10.608 4.13331 10.8139C4.12256 11.0198 4.18781 11.2224 4.31667 11.3833L7.74167 15.5667C7.84307 15.6861 7.90735 15.8325 7.9266 15.988C7.94585 16.1434 7.91922 16.3011 7.85 16.4417C7.44737 17.2469 7.10206 18.0795 6.81667 18.9333C6.76574 19.0799 6.67319 19.2084 6.55033 19.3031C6.42748 19.3978 6.27967 19.4547 6.125 19.4667L0.75 20C0.544805 20.0234 0.355258 20.121 0.217101 20.2746C0.0789437 20.4281 0.00172304 20.6268 0 20.8333V29.1667C0.00172304 29.3732 0.0789437 29.5719 0.217101 29.7254C0.355258 29.879 0.544805 29.9766 0.75 30L6.125 30.5333C6.27967 30.5453 6.42748 30.6022 6.55033 30.6969C6.67319 30.7916 6.76574 30.9201 6.81667 31.0667C7.10206 31.9205 7.44737 32.7531 7.85 33.5583C7.91922 33.6989 7.94585 33.8566 7.9266 34.012C7.90735 34.1675 7.84307 34.3139 7.74167 34.4333L4.31667 38.6167C4.18781 38.7776 4.12256 38.9802 4.13331 39.1861C4.14407 39.392 4.23008 39.5867 4.375 39.7333L10.2667 45.625C10.4133 45.7699 10.608 45.8559 10.8139 45.8667C11.0198 45.8774 11.2224 45.8122 11.3833 45.6833L15.5667 42.2583C15.6861 42.1569 15.8325 42.0926 15.988 42.0734C16.1434 42.0541 16.3011 42.0808 16.4417 42.15C17.2469 42.5526 18.0795 42.8979 18.9333 43.1833C19.0799 43.2343 19.2084 43.3268 19.3031 43.4497C19.3978 43.5725 19.4547 43.7203 19.4667 43.875L20 49.25C20.0234 49.4552 20.121 49.6447 20.2746 49.7829C20.4281 49.9211 20.6268 49.9983 20.8333 50H29.1667C29.3732 49.9983 29.5719 49.9211 29.7254 49.7829C29.879 49.6447 29.9766 49.4552 30 49.25L30.5333 43.875C30.5453 43.7203 30.6022 43.5725 30.6969 43.4497C30.7916 43.3268 30.9201 43.2343 31.0667 43.1833C31.9205 42.8979 32.7531 42.5526 33.5583 42.15C33.6989 42.0808 33.8566 42.0541 34.012 42.0734C34.1675 42.0926 34.3139 42.1569 34.4333 42.2583L38.6167 45.6833C38.7777 45.812 38.9803 45.8772 39.1861 45.8664C39.3919 45.8557 39.5866 45.7698 39.7333 45.625L45.625 39.7333C45.7698 39.5866 45.8557 39.3919 45.8664 39.1861C45.8772 38.9803 45.812 38.7777 45.6833 38.6167L42.2583 34.4333C42.1569 34.3139 42.0926 34.1675 42.0734 34.012C42.0541 33.8566 42.0808 33.6989 42.15 33.5583C42.5512 32.7525 42.8964 31.9199 43.1833 31.0667C43.2343 30.9201 43.3268 30.7916 43.4497 30.6969C43.5725 30.6022 43.7203 30.5453 43.875 30.5333L49.25 30C49.4552 29.9766 49.6447 29.879 49.7829 29.7254C49.9211 29.5719 49.9983 29.3732 50 29.1667V20.8333C49.9983 20.6268 49.9211 20.4281 49.7829 20.2746C49.6447 20.121 49.4552 20.0234 49.25 20ZM48.3333 28.4167L43.7083 28.875C43.234 28.921 42.7829 29.1027 42.409 29.3982C42.0351 29.6938 41.7543 30.0907 41.6 30.5417C41.3386 31.3207 41.024 32.0808 40.6583 32.8167C40.4478 33.2452 40.3649 33.7252 40.4196 34.1995C40.4742 34.6737 40.6641 35.1223 40.9667 35.4917L43.9167 39.0833L39.0833 43.9083L35.4917 40.9667C35.1223 40.6641 34.6737 40.4742 34.1995 40.4196C33.7252 40.3649 33.2452 40.4478 32.8167 40.6583C32.0815 41.0254 31.3212 41.3401 30.5417 41.6C30.0907 41.7543 29.6938 42.0351 29.3982 42.409C29.1027 42.7829 28.921 43.234 28.875 43.7083L28.4083 48.3333H21.5833L21.125 43.7083C21.079 43.234 20.8973 42.7829 20.6018 42.409C20.3062 42.0351 19.9093 41.7543 19.4583 41.6C18.6788 41.3401 17.9185 41.0254 17.1833 40.6583C16.7548 40.4481 16.2748 40.3654 15.8006 40.42C15.3264 40.4747 14.8778 40.6644 14.5083 40.9667L10.9167 43.9083L6.09167 39.0833L9.03333 35.4917C9.33585 35.1223 9.52577 34.6737 9.58044 34.1995C9.63511 33.7252 9.55222 33.2452 9.34167 32.8167C8.97456 32.0815 8.65989 31.3212 8.4 30.5417C8.24571 30.0907 7.96485 29.6938 7.59097 29.3982C7.2171 29.1027 6.76603 28.921 6.29167 28.875L1.66667 28.4167V21.5833L6.29167 21.125C6.76603 21.079 7.2171 20.8973 7.59097 20.6018C7.96485 20.3062 8.24571 19.9093 8.4 19.4583C8.65989 18.6788 8.97456 17.9185 9.34167 17.1833C9.55222 16.7548 9.63511 16.2748 9.58044 15.8005C9.52577 15.3263 9.33585 14.8777 9.03333 14.5083L6.09167 10.9167L10.9167 6.09167L14.5083 9.03333C14.8778 9.33557 15.3264 9.52531 15.8006 9.57997C16.2748 9.63463 16.7548 9.55192 17.1833 9.34167C17.9185 8.97456 18.6788 8.65989 19.4583 8.4C19.9093 8.24571 20.3062 7.96485 20.6018 7.59097C20.8973 7.2171 21.079 6.76603 21.125 6.29167L21.5833 1.66667H28.4083L28.875 6.29167C28.921 6.76603 29.1027 7.2171 29.3982 7.59097C29.6938 7.96485 30.0907 8.24571 30.5417 8.4C31.3212 8.65989 32.0815 8.97456 32.8167 9.34167C33.2451 9.55243 33.7252 9.63542 34.1995 9.58075C34.6738 9.52608 35.1224 9.33604 35.4917 9.03333L39.0833 6.09167L43.9167 10.9167L40.9667 14.5083C40.6644 14.8778 40.4747 15.3264 40.42 15.8006C40.3654 16.2748 40.4481 16.7548 40.6583 17.1833C41.024 17.9192 41.3386 18.6793 41.6 19.4583C41.7543 19.9093 42.0351 20.3062 42.409 20.6018C42.7829 20.8973 43.234 21.079 43.7083 21.125L48.3333 21.5833V28.4167Z" fill="#555555"/>
<path d="M32.3743 32.0917L28.3327 30.2917V29.1C29.0964 28.6553 29.7648 28.0642 30.2996 27.3606C30.8344 26.6571 31.2251 25.8549 31.4494 25H31.666C32.3291 25 32.9649 24.7366 33.4338 24.2678C33.9026 23.799 34.166 23.1631 34.166 22.5C34.166 21.837 33.9026 21.2011 33.4338 20.7323C32.9649 20.2634 32.3291 20 31.666 20V19.85C32.1566 19.6789 32.5812 19.3583 32.8802 18.9334C33.1792 18.5084 33.3375 18.0005 33.3329 17.4809C33.3283 16.9614 33.161 16.4563 32.8546 16.0367C32.5481 15.6172 32.1179 15.3041 31.6243 15.1417C31.4719 13.8445 30.8844 12.6372 29.9577 11.7167C29.2773 11.0272 28.4306 10.5249 27.4993 10.2584V10C27.498 9.55842 27.322 9.13526 27.0097 8.82299C26.6975 8.51071 26.2743 8.33469 25.8327 8.33337H24.166C23.7244 8.33469 23.3012 8.51071 22.989 8.82299C22.6767 9.13526 22.5007 9.55842 22.4993 10V10.25C21.4078 10.5709 20.4347 11.2058 19.7012 12.0756C18.9678 12.9453 18.5063 14.0116 18.3743 15.1417C17.8808 15.3041 17.4506 15.6172 17.1441 16.0367C16.8377 16.4563 16.6704 16.9614 16.6658 17.4809C16.6612 18.0005 16.8195 18.5084 17.1185 18.9334C17.4175 19.3583 17.8421 19.6789 18.3327 19.85V20C17.6696 20 17.0338 20.2634 16.5649 20.7323C16.0961 21.2011 15.8327 21.837 15.8327 22.5C15.8327 23.1631 16.0961 23.799 16.5649 24.2678C17.0338 24.7366 17.6696 25 18.3327 25H18.5493C18.7736 25.8549 19.1643 26.6571 19.6991 27.3606C20.2339 28.0642 20.9023 28.6553 21.666 29.1V30.2917L17.6243 32.0917C16.5952 32.5505 15.7209 33.2975 15.1072 34.2425C14.4935 35.1874 14.1666 36.2899 14.166 37.4167V39.1667C14.166 39.3877 14.2538 39.5997 14.4101 39.756C14.5664 39.9122 14.7783 40 14.9993 40H34.9993C35.2204 40 35.4323 39.9122 35.5886 39.756C35.7449 39.5997 35.8327 39.3877 35.8327 39.1667V37.4167C35.8321 36.2899 35.5052 35.1874 34.8915 34.2425C34.2778 33.2975 33.4035 32.5505 32.3743 32.0917ZM18.3327 23.3334C18.1117 23.3334 17.8997 23.2456 17.7434 23.0893C17.5871 22.933 17.4993 22.7211 17.4993 22.5C17.4993 22.279 17.5871 22.0671 17.7434 21.9108C17.8997 21.7545 18.1117 21.6667 18.3327 21.6667V23.3334ZM28.7743 32.3084L28.5743 33.0917L27.2577 32.65L26.9493 32.0417L27.5243 31.7584L28.7743 32.3084ZM32.4993 22.5C32.4993 22.7211 32.4116 22.933 32.2553 23.0893C32.099 23.2456 31.887 23.3334 31.666 23.3334V21.6667C31.887 21.6667 32.099 21.7545 32.2553 21.9108C32.4116 22.0671 32.4993 22.279 32.4993 22.5ZM27.4993 12.025C27.9765 12.233 28.4115 12.5268 28.7827 12.8917C29.3621 13.4659 29.7567 14.2001 29.916 15H27.4993V12.025ZM24.166 10H25.8327V15H24.166V10ZM22.4993 12.025V15H20.0827C20.2154 14.3459 20.5046 13.7336 20.9254 13.2156C21.3463 12.6975 21.8863 12.289 22.4993 12.025ZM18.3327 17.5C18.3327 17.279 18.4205 17.0671 18.5768 16.9108C18.733 16.7545 18.945 16.6667 19.166 16.6667H30.8327C31.0537 16.6667 31.2657 16.7545 31.4219 16.9108C31.5782 17.0671 31.666 17.279 31.666 17.5C31.666 17.7211 31.5782 17.933 31.4219 18.0893C31.2657 18.2456 31.0537 18.3334 30.8327 18.3334H19.166C18.945 18.3334 18.733 18.2456 18.5768 18.0893C18.4205 17.933 18.3327 17.7211 18.3327 17.5ZM19.9993 23.3334V20H29.9993V23.3334C29.9993 24.6595 29.4726 25.9312 28.5349 26.8689C27.5972 27.8066 26.3254 28.3334 24.9993 28.3334C23.6733 28.3334 22.4015 27.8066 21.4638 26.8689C20.5261 25.9312 19.9993 24.6595 19.9993 23.3334ZM22.4743 31.7584L23.0493 32.0417L22.741 32.65L21.4243 33.0917L21.2243 32.3084L22.4743 31.7584ZM21.8743 38.3334H15.8327V37.4167C15.8326 36.6105 16.0664 35.8216 16.5057 35.1457C16.945 34.4697 17.5709 33.9357 18.3077 33.6084L19.6827 33L20.0243 34.3667C20.0525 34.4787 20.1032 34.5838 20.1734 34.6756C20.2436 34.7673 20.3319 34.8437 20.4327 34.9C20.5555 34.9664 20.6931 35.0007 20.8327 35C20.9231 34.9984 21.0128 34.9844 21.0993 34.9584L23.066 34.3L21.8743 38.3334ZM23.616 38.3334L24.416 35.5917C24.5707 35.7464 24.7806 35.8333 24.9993 35.8333C25.2181 35.8333 25.428 35.7464 25.5827 35.5917L26.3827 38.3334H23.616ZM24.3493 33.1667L24.6827 32.5H25.316L25.6493 33.1667L24.9993 33.825L24.3493 33.1667ZM26.666 30.3167L25.6327 30.8334H24.366L23.3327 30.3167V29.7834C24.425 30.0723 25.5737 30.0723 26.666 29.7834V30.3167ZM34.166 38.3334H28.1243L26.9327 34.3L28.8993 34.9584C28.9859 34.9844 29.0756 34.9984 29.166 35C29.3056 35.0007 29.4432 34.9664 29.566 34.9C29.6668 34.8437 29.7551 34.7673 29.8253 34.6756C29.8955 34.5838 29.9462 34.4787 29.9743 34.3667L30.316 33L31.691 33.6084C32.4278 33.9357 33.0537 34.4697 33.493 35.1457C33.9323 35.8216 34.1661 36.6105 34.166 37.4167V38.3334Z" fill="#555555"/>
<path d="M35.6667 17L34.3333 18C35.7508 19.8905 36.5611 22.1667 36.6571 24.5277C36.7531 26.8887 36.1302 29.2232 34.8708 31.2225L36.28 32.1125C37.7195 29.8275 38.4316 27.1594 38.3221 24.4609C38.2126 21.7625 37.2866 19.1608 35.6667 17ZM13.3333 25C13.3262 22.4745 14.1457 20.0161 15.6667 18L14.3333 17C12.713 19.1608 11.7868 21.7625 11.6769 24.4611C11.5671 27.1597 12.279 29.828 13.7183 32.1133L15.1283 31.2233C13.9528 29.3607 13.3304 27.2026 13.3333 25ZM24.1667 5H25.8333V6.66667H24.1667V5ZM10.2692 11.4467L11.4475 10.2683L12.6258 11.4467L11.4475 12.625L10.2692 11.4467ZM5 24.1667H6.66667V25.8333H5V24.1667ZM10.2683 38.5533L11.4475 37.3742L12.6258 38.5533L11.4475 39.7317L10.2683 38.5533ZM24.1667 43.3333H25.8333V45H24.1667V43.3333ZM37.375 38.5525L38.5533 37.3742L39.7317 38.5525L38.5533 39.7308L37.375 38.5525ZM43.3333 24.1667H45V25.8333H43.3333V24.1667ZM37.375 11.4475L38.5542 10.2683L39.7325 11.4475L38.5542 12.6258L37.375 11.4475Z" fill="#555555"/>
</svg>
