<svg width="19" height="37" viewBox="0 0 19 37" fill="none" xmlns="http://www.w3.org/2000/svg">
<mask id="mask0_788_14302" style="mask-type:luminance" maskUnits="userSpaceOnUse" x="0" y="0" width="19" height="37">
<path d="M18.5506 0H0.785156V36.8H18.5506V0Z" fill="white"/>
</mask>
<g mask="url(#mask0_788_14302)">
<path fill-rule="evenodd" clip-rule="evenodd" d="M10.0295 36.5281C8.39792 35.0779 6.7664 32.54 5.22551 29.4582C3.68462 26.2857 2.14373 22.5695 1.41861 18.4C0.693489 14.3212 0.965411 10.5144 2.32502 7.34193C3.68462 4.16951 6.22256 1.72222 9.39497 0.271973C12.658 1.72222 15.2866 4.16951 16.7368 7.34193C18.1871 10.4237 18.5497 14.3212 17.9151 18.4C17.2807 22.4789 15.921 26.2857 14.4708 29.4582C13.1113 32.4494 11.661 34.9873 10.0295 36.5281Z" stroke="#555555" stroke-miterlimit="10"/>
<path d="M8.12349 30.3649C8.03284 31.5432 7.9422 32.8122 7.85156 33.9905" stroke="#555555" stroke-miterlimit="10"/>
<path d="M4.77136 23.2946C4.22752 23.9292 3.77432 24.473 3.23047 25.1074" stroke="#555555" stroke-miterlimit="10"/>
<path d="M6.67752 6.2546C6.31496 5.07627 5.9524 3.89795 5.58984 2.71962" stroke="#555555" stroke-miterlimit="10"/>
<path d="M10.0316 36.4378C9.48769 34.3531 8.85324 32.359 8.21875 30.2743" stroke="#555555" stroke-miterlimit="10"/>
<path d="M9.85106 28.2798C9.21659 29.0049 8.67275 29.6395 8.12891 30.3646" stroke="#555555" stroke-miterlimit="10"/>
<path d="M5.40712 29.7302C5.22584 27.5547 5.04457 25.47 4.86328 23.2947M8.21698 30.3646C7.49185 30.5459 6.76673 30.8178 6.04161 30.9991L8.21698 30.3646Z" stroke="#555555" stroke-miterlimit="10"/>
<path d="M1.41797 18.3094C2.05245 16.6779 2.86821 15.0464 3.59334 13.3242M1.41797 18.3094C2.59629 19.941 3.77461 21.6631 4.8623 23.2946L1.41797 18.3094Z" stroke="#555555" stroke-miterlimit="10"/>
<path d="M3.13838 5.61963C4.40735 5.89154 5.58568 6.07283 6.764 6.34475M3.59159 13.324C3.22902 11.1487 2.86647 9.06396 2.50391 6.88859L3.59159 13.324Z" stroke="#555555" stroke-miterlimit="10"/>
<path d="M6.76562 6.34488C7.58139 4.35079 8.48779 2.44733 9.39419 0.453247" stroke="#555555" stroke-miterlimit="10"/>
<path d="M9.84851 28.2798C9.03274 27.464 8.30761 26.5577 7.49185 25.7419C6.67609 24.9261 5.76968 24.1104 4.86328 23.204" stroke="#555555" stroke-miterlimit="10"/>
<path d="M8.12577 30.3646C7.49129 27.5548 6.85681 24.6542 6.13168 21.8444C5.40656 19.0346 4.50016 16.1341 3.59375 13.3242" stroke="#555555" stroke-miterlimit="10"/>
<path d="M4.76953 23.2943C4.95081 20.4845 5.13209 17.6747 5.49466 14.7741C5.85721 11.9643 6.31041 9.15445 6.76362 6.3446" stroke="#555555" stroke-miterlimit="10"/>
<path d="M3.59375 13.2335C4.50015 12.4177 5.4972 11.602 6.4036 10.8769C7.40065 10.0612 8.48833 9.2454 9.48538 8.52025" stroke="#555555" stroke-miterlimit="10"/>
<path d="M6.76562 6.25403C7.67203 6.97915 8.66908 7.61363 9.48484 8.33876" stroke="#555555" stroke-miterlimit="10"/>
<path d="M11.6602 30.3649C11.8414 31.5432 11.932 32.8122 12.0227 33.9905" stroke="#555555" stroke-miterlimit="10"/>
<path d="M14.832 23.2947C15.3758 23.9292 15.9197 24.473 16.3728 25.1075" stroke="#555555" stroke-miterlimit="10"/>
<path d="M12.3867 6.25422C12.6587 5.07589 13.0212 3.89757 13.3837 2.71924" stroke="#555555" stroke-miterlimit="10"/>
<path d="M10.0312 36.4378C10.4844 34.3531 11.0283 32.359 11.6628 30.2743" stroke="#555555" stroke-miterlimit="10"/>
<path d="M9.84766 28.2798C10.4821 29.0049 11.026 29.6395 11.6604 30.3646" stroke="#555555" stroke-miterlimit="10"/>
<path d="M14.47 29.7302C14.5606 27.5547 14.7419 25.47 14.8326 23.2947M11.6602 30.3646C12.3853 30.5459 13.1104 30.8178 13.8355 30.9991L11.6602 30.3646Z" stroke="#555555" stroke-miterlimit="10"/>
<path d="M18.0959 18.3094C17.3708 16.6779 16.555 15.0464 15.7393 13.3242M14.7422 23.2946C15.7393 21.6631 16.8269 19.941 18.0052 18.3094L14.7422 23.2946Z" stroke="#555555" stroke-miterlimit="10"/>
<path d="M15.9224 5.61975C14.7442 5.89167 13.5658 6.07295 12.2969 6.34488M15.6506 13.3242C15.9224 11.1488 16.285 9.06408 16.5569 6.88872L15.6506 13.3242Z" stroke="#555555" stroke-miterlimit="10"/>
<path d="M12.2951 6.34488C11.3887 4.35079 10.4822 2.44733 9.39453 0.453247" stroke="#555555" stroke-miterlimit="10"/>
<path d="M9.84766 28.2798C10.5727 27.464 11.3885 26.5577 12.2042 25.7419C13.02 24.9261 13.9265 24.1104 14.8329 23.204" stroke="#555555" stroke-miterlimit="10"/>
<path d="M11.6602 30.3648C12.204 27.5549 12.7478 24.6544 13.3823 21.8446C14.0168 19.0347 14.8326 16.1342 15.6484 13.3243" stroke="#555555" stroke-miterlimit="10"/>
<path d="M14.8348 23.2946C14.5628 20.4847 14.2909 17.6749 13.8377 14.7744C13.3845 11.9645 12.8407 9.15469 12.2969 6.34485" stroke="#555555" stroke-miterlimit="10"/>
<path d="M15.651 13.2337C14.7446 12.4179 13.7476 11.6021 12.7505 10.8771C11.7535 10.0613 10.6657 9.24555 9.57812 8.52039" stroke="#555555" stroke-miterlimit="10"/>
<path d="M12.2973 6.25403C11.3909 6.97915 10.4845 7.61363 9.57812 8.33876" stroke="#555555" stroke-miterlimit="10"/>
</g>
</svg>
