<svg width="41" height="40" viewBox="0 0 41 40" fill="none" xmlns="http://www.w3.org/2000/svg">
<path d="M20.8106 39.6732H10.3156L6.14453 35.8648V3.89859L10.1474 0.259155H20.8106H31.4739L35.4768 3.89859V35.8648L31.3057 39.6732H20.8106Z" stroke="#555555" stroke-width="0.5" stroke-miterlimit="10"/>
<path d="M7.82812 19.9662H33.9536" stroke="#555555" stroke-width="0.5" stroke-miterlimit="10"/>
<path d="M20.8125 0.270386V39.662" stroke="#555555" stroke-width="0.5" stroke-miterlimit="10"/>
<path d="M20.8109 19.9662L10.3047 39.6845" stroke="#555555" stroke-width="0.5" stroke-miterlimit="10"/>
<path d="M6.14453 35.8648L20.7994 19.9437" stroke="#555555" stroke-width="0.5" stroke-miterlimit="10"/>
<path d="M6.14453 35.8647L17.1778 19.9886" stroke="#555555" stroke-width="0.5" stroke-miterlimit="10"/>
<path d="M7.87424 19.955L6.62109 34.1941L11.7538 19.9776" stroke="#555555" stroke-width="0.5" stroke-miterlimit="10"/>
<path d="M10.3047 39.6846L20.8109 28.71" stroke="#555555" stroke-width="0.5" stroke-miterlimit="10"/>
<path d="M10.3047 39.6845L20.8109 34.1859" stroke="#555555" stroke-width="0.5" stroke-miterlimit="10"/>
<path d="M10.3047 39.6846L20.8109 38.1071" stroke="#555555" stroke-width="0.5" stroke-miterlimit="10"/>
<path d="M20.8116 19.9662L10.1484 0.259155" stroke="#555555" stroke-width="0.5" stroke-miterlimit="10"/>
<path d="M6.13281 3.90991L20.799 19.9437" stroke="#555555" stroke-width="0.5" stroke-miterlimit="10"/>
<path d="M6.13281 3.90991L17.1772 19.9437" stroke="#555555" stroke-width="0.5" stroke-miterlimit="10"/>
<path d="M7.87142 19.9886L6.57422 5.60681L11.751 19.9548" stroke="#555555" stroke-width="0.5" stroke-miterlimit="10"/>
<path d="M10.1484 0.259155L20.8116 11.1775" stroke="#555555" stroke-width="0.5" stroke-miterlimit="10"/>
<path d="M10.1484 0.259155L20.8116 5.71268" stroke="#555555" stroke-width="0.5" stroke-miterlimit="10"/>
<path d="M10.1367 0.270386L20.8112 1.83658" stroke="#555555" stroke-width="0.5" stroke-miterlimit="10"/>
<path d="M20.8125 19.9662L31.2963 39.6845" stroke="#555555" stroke-width="0.5" stroke-miterlimit="10"/>
<path d="M35.4674 35.8535L20.8125 19.9662" stroke="#555555" stroke-width="0.5" stroke-miterlimit="10"/>
<path d="M35.4797 35.8647L24.5586 19.9886" stroke="#555555" stroke-width="0.5" stroke-miterlimit="10"/>
<path d="M33.9087 19.9662L34.9302 34.031L29.9844 19.9775" stroke="#555555" stroke-width="0.5" stroke-miterlimit="10"/>
<path d="M31.3075 39.6732L20.8125 28.7098" stroke="#555555" stroke-width="0.5" stroke-miterlimit="10"/>
<path d="M31.2963 39.6845L20.8125 34.1859" stroke="#555555" stroke-width="0.5" stroke-miterlimit="10"/>
<path d="M31.2968 39.6846L20.8242 38.1071" stroke="#555555" stroke-width="0.5" stroke-miterlimit="10"/>
<path d="M20.8125 19.9663L31.386 0.315552" stroke="#555555" stroke-width="0.5" stroke-miterlimit="10"/>
<path d="M35.4562 3.93237L20.8125 19.9662" stroke="#555555" stroke-width="0.5" stroke-miterlimit="10"/>
<path d="M35.4573 3.93237L24.5586 19.9437" stroke="#555555" stroke-width="0.5" stroke-miterlimit="10"/>
<path d="M33.9087 19.9662L35.0424 5.49695L29.9844 19.9775" stroke="#555555" stroke-width="0.5" stroke-miterlimit="10"/>
<path d="M31.4421 0.292969L20.8125 11.1775" stroke="#555555" stroke-width="0.5" stroke-miterlimit="10"/>
<path d="M31.4421 0.292969L20.8125 5.71269" stroke="#555555" stroke-width="0.5" stroke-miterlimit="10"/>
<path d="M31.4421 0.292969L20.8125 1.83664" stroke="#555555" stroke-width="0.5" stroke-miterlimit="10"/>
<path d="M20.799 39.6845H10.3039L6.13281 35.8873V3.90982L10.1357 0.270386H20.799H31.4622L35.4651 3.90982V35.8873L31.294 39.6845H20.799Z" stroke="#555555" stroke-width="0.5" stroke-miterlimit="10"/>
<path d="M10.1484 0.247894L13.4898 2.85071L20.8116 7.01972" stroke="#555555" stroke-width="0.5" stroke-miterlimit="10"/>
<path d="M6.15625 3.92114L9.49761 6.56902L14.3303 7.15494L20.8672 7.00846" stroke="#555555" stroke-width="0.5" stroke-miterlimit="10"/>
<path d="M13.4796 2.86194L14.3206 7.19997L12.5826 20.2028L9.56641 33.5437" stroke="#555555" stroke-width="0.5" stroke-miterlimit="10"/>
<path d="M9.50781 6.60278L12.5801 19.8986L14.4077 32.7887L13.2977 37.0704L10.2927 39.6845" stroke="#555555" stroke-width="0.5" stroke-miterlimit="10"/>
<path d="M9.56626 33.5437L9.47656 6.55772L13.4795 2.86194L28.1792 2.89575L32.1486 6.62532L32.0813 33.5775L27.9438 37.0704H13.3001L9.56626 33.5437Z" stroke="#555555" stroke-width="0.5" stroke-miterlimit="10"/>
<path d="M13.3008 37.0704L20.8132 32.8225" stroke="#555555" stroke-width="0.5" stroke-miterlimit="10"/>
<path d="M6.15625 35.8761L9.55368 33.5324L14.3639 32.7887L20.8672 32.8225" stroke="#555555" stroke-width="0.5" stroke-miterlimit="10"/>
<path d="M31.4532 0.270386L28.2465 2.85066L20.8125 7.00841" stroke="#555555" stroke-width="0.5" stroke-miterlimit="10"/>
<path d="M35.4549 3.93237L32.136 6.64787L27.3818 7.14364L20.8672 7.00843" stroke="#555555" stroke-width="0.5" stroke-miterlimit="10"/>
<path d="M28.1917 2.88452L27.418 7.20001L29.1559 20.2028L32.0824 33.5775" stroke="#555555" stroke-width="0.5" stroke-miterlimit="10"/>
<path d="M32.1355 6.64795L29.1529 19.8987L27.3477 32.8339L27.9643 37.0705L31.2945 39.6846" stroke="#555555" stroke-width="0.5" stroke-miterlimit="10"/>
<path d="M27.9667 37.0479L20.8242 32.8225" stroke="#555555" stroke-width="0.5" stroke-miterlimit="10"/>
<path d="M35.4436 35.8535L32.0798 33.5775L27.3818 32.7549L20.8672 32.8225" stroke="#555555" stroke-width="0.5" stroke-miterlimit="10"/>
</svg>
