<svg width="47" height="50" viewBox="0 0 47 50" fill="none" xmlns="http://www.w3.org/2000/svg">
<path d="M45.6344 34.8956C45.049 33.86 44.0834 33.0931 42.9421 32.7573C41.8009 32.4216 40.5737 32.5434 39.5208 33.097L29.9586 38.0802C29.8455 37.3857 29.5421 36.7362 29.0819 36.2039C28.6218 35.6716 28.023 35.2773 27.3522 35.0649L20.5109 32.9133C20.5063 32.9133 20.5021 32.9091 20.4974 32.9078L14.124 30.9027C11.6988 30.1287 11.4213 30.1532 9.16877 31.3411L2.80681 34.6591C1.3769 35.4024 0.415745 35.9649 0.100286 36.9674C-0.215172 37.9699 0.249358 38.9792 0.993875 40.4083L4.55387 47.2378C6.14721 50.2863 6.97745 50.5701 10.105 49.1406L11.2152 48.6339L22.9518 49.7741L23.7867 49.8586C24.6368 49.943 25.2483 50 25.7572 50C26.9299 50 27.5574 49.7044 29.2998 48.7846L43.7641 41.2407C44.3114 40.9556 44.7957 40.5631 45.1879 40.0866C45.5801 39.6101 45.8723 39.0595 46.0469 38.4675C46.2215 37.8756 46.2749 37.2545 46.2041 36.6415C46.1332 36.0284 45.9395 35.4359 45.6344 34.8994V34.8956ZM44.0208 37.869C43.9275 38.1887 43.7702 38.4861 43.5583 38.7431C43.3465 39.0001 43.0846 39.2114 42.7886 39.364L29.06 46.522L28.3159 46.9126C26.2821 47.984 26.2817 47.984 23.9983 47.7534L11.1358 46.5046C10.9509 46.487 10.7645 46.5181 10.5953 46.595L9.22705 47.22C8.76252 47.4312 7.6789 47.9248 7.44072 47.8645C7.21141 47.7652 6.66031 46.7103 6.4272 46.2597L2.86636 39.4324C2.66196 39.0405 2.04034 37.8462 2.11424 37.6013C2.18814 37.3563 3.38832 36.7364 3.78148 36.532L9.6654 33.4653L10.1536 33.2089C10.9982 32.7638 11.4627 32.5189 11.7676 32.491C12.3571 32.5456 12.9351 32.6879 13.4826 32.9133L17.5789 34.2022C17.5832 34.2038 17.5875 34.2056 17.5916 34.2077L26.7187 37.078C27.1468 37.2128 27.5037 37.512 27.7111 37.91C27.9185 38.3079 27.9593 38.7719 27.8245 39.1999C27.6898 39.6279 27.3906 39.9849 26.9926 40.1922C26.5947 40.3996 26.1307 40.4404 25.7027 40.3057L24.6613 39.978L23.9316 39.7495H23.9265L16.5759 37.4357C16.443 37.3915 16.3026 37.3742 16.1629 37.3848C16.0232 37.3954 15.887 37.4337 15.7623 37.4975C15.6375 37.5612 15.5267 37.6492 15.4363 37.7562C15.3459 37.8632 15.2777 37.9871 15.2357 38.1208C15.1936 38.2544 15.1786 38.3951 15.1915 38.5346C15.2044 38.6741 15.2449 38.8096 15.3107 38.9333C15.3765 39.057 15.4662 39.1664 15.5747 39.255C15.6831 39.3437 15.8082 39.4098 15.9425 39.4497L23.8142 41.9265L25.4721 42.4501C25.6325 42.506 25.8052 42.5158 25.9709 42.4784C26.0494 42.4835 26.1284 42.4966 26.2069 42.4966C26.8429 42.4951 27.4685 42.3348 28.0268 42.0302C28.5852 41.7256 29.0586 41.2864 29.4042 40.7525L40.498 34.967C40.9293 34.7414 41.4176 34.6479 41.9018 34.6982C42.3859 34.7484 42.8446 34.9402 43.2204 35.2496C43.5962 35.5589 43.8725 35.9722 44.0149 36.4377C44.1573 36.9031 44.1593 37.4003 44.0208 37.8669V37.869Z" fill="#555555"/>
<path d="M41.1506 15.8506L41.1218 15.8405L41.1087 15.8359L40.8756 15.7548C40.6606 15.6864 40.4492 15.6072 40.2422 15.5174C40.1471 15.3138 40.0626 15.1055 39.9888 14.8933L39.9001 14.6602C39.7844 14.3581 39.6614 14.0605 39.531 13.7674L39.4305 13.5432C39.3169 13.2898 39.1991 13.0271 39.17 12.9194C39.2528 12.7092 39.3462 12.5032 39.4499 12.3025L39.5559 12.0833L39.5614 12.0723L39.5754 12.0432C40.8423 9.41688 40.7578 8.93377 38.667 6.84212L37.3156 5.49075C35.2531 3.42824 34.7696 3.34673 32.1437 4.61279L31.8819 4.73948C31.6824 4.84261 31.4777 4.93549 31.2687 5.01778C31.058 4.94195 30.8512 4.85555 30.6492 4.75891L30.4199 4.65629C30.1268 4.52594 29.8297 4.40305 29.5284 4.28762L29.2983 4.20062C29.0373 4.10138 28.7678 3.99919 28.6707 3.94387C28.5802 3.73574 28.5001 3.52319 28.4309 3.30704L28.3561 3.09082L28.3371 3.03634C27.3755 0.285053 26.976 0 24.0592 0H22.1073C19.1934 0 18.7927 0.284208 17.8167 3.07646C17.8142 3.08448 17.8113 3.09293 17.8083 3.10095L17.7352 3.3121C17.6668 3.52708 17.5875 3.7385 17.4979 3.94556C17.4004 4.00088 17.133 4.10223 16.8746 4.19894L16.6398 4.28804C16.3388 4.40319 16.0414 4.52622 15.7475 4.65713L15.522 4.75764C15.3189 4.85482 15.111 4.94164 14.8991 5.01778C14.7918 4.98526 14.5329 4.85984 14.2817 4.73821L14.0638 4.63222L14.0469 4.62419L14.0241 4.61321C11.3965 3.34631 10.9138 3.43077 8.85215 5.49118L7.47207 6.87125C5.4104 8.93293 5.32805 9.41604 6.59495 12.0432L6.72164 12.308C6.82412 12.5066 6.91658 12.7103 6.99867 12.9182C6.92304 13.1279 6.83693 13.3337 6.74064 13.5347L6.63845 13.7628C6.50753 14.0573 6.38422 14.3557 6.26851 14.6581L6.18109 14.8878C6.10597 15.1013 6.02013 15.3109 5.92391 15.5158C5.71599 15.6063 5.50358 15.6863 5.28751 15.7552L5.01597 15.8494C2.26383 16.8118 1.98047 17.2113 1.98047 20.1273V22.0787C1.98047 24.9947 2.26383 25.3942 5.01681 26.3566C5.39688 26.4875 5.80313 26.6256 5.9218 26.6886C6.03878 26.8959 6.24106 27.5572 6.61395 28.3883L6.63676 28.439C6.69098 28.5687 6.77058 28.6864 6.87088 28.7849C6.97119 28.8835 7.09017 28.961 7.22085 29.013C7.35153 29.0649 7.49128 29.0903 7.63188 29.0875C7.77248 29.0847 7.9111 29.0538 8.03961 28.9967C8.16812 28.9396 8.28393 28.8574 8.38023 28.7549C8.47653 28.6524 8.55139 28.5317 8.60041 28.3999C8.64943 28.2681 8.67162 28.1278 8.66568 27.9873C8.65974 27.8468 8.62579 27.7089 8.56583 27.5817L8.54176 27.5268C8.28837 26.9571 8.22418 26.7506 8.14944 26.5627C7.62747 25.1788 7.38465 24.9428 5.98472 24.4575L5.75879 24.379L5.4104 25.3756L5.71319 24.3621C5.18026 24.2155 4.66781 24.0027 4.18784 23.7287C4.08708 23.185 4.05487 22.6308 4.09197 22.0791V20.1281C4.05487 19.5766 4.08707 19.0226 4.18784 18.479C4.66758 18.2048 5.17991 17.992 5.71276 17.8456L5.97839 17.7527C7.38465 17.2658 7.62916 17.0284 8.15577 15.6382L8.24023 15.4144C8.34243 15.1475 8.45124 14.8841 8.56667 14.6243L8.66591 14.4026C9.27107 13.0558 9.266 12.718 8.62115 11.3886L8.51599 11.172L8.4953 11.1297C8.22209 10.6489 8.01054 10.1356 7.86565 9.60185C8.17826 9.14583 8.54716 8.73109 8.96363 8.36747L10.3433 6.98739C10.7072 6.571 11.122 6.2021 11.5781 5.88941C12.1106 6.03674 12.6234 6.24802 13.1051 6.51863L13.1436 6.53722L13.1588 6.54439L13.3581 6.64068C14.6934 7.28891 15.0329 7.2944 16.3843 6.68755L16.6039 6.58916C16.8638 6.47429 17.1266 6.36576 17.3923 6.26356L17.6208 6.1791C19.0068 5.65418 19.2429 5.41052 19.7293 4.00763L19.8079 3.78086L19.8218 3.73863C19.9681 3.20547 20.1809 2.69285 20.4553 2.21286C20.9885 2.1104 21.5326 2.07634 22.0744 2.1115H24.0592C24.6108 2.07824 25.1643 2.11056 25.7083 2.20779C25.9825 2.68784 26.1953 3.20045 26.3417 3.73356L26.4342 3.99919C26.9211 5.40503 27.1585 5.64869 28.5478 6.1753L28.7725 6.25976C29.0385 6.36196 29.3008 6.47049 29.5592 6.58536L29.7822 6.68502C31.131 7.2906 31.4714 7.28595 32.8021 6.63899L33.0584 6.51483C33.5387 6.24091 34.052 6.02945 34.5859 5.8856C35.042 6.19819 35.4569 6.5671 35.8207 6.98359L37.1721 8.33495L37.2016 8.36493C37.6179 8.72874 37.9868 9.14346 38.2996 9.59932C38.155 10.1329 37.9436 10.6461 37.6704 11.1268L37.6518 11.1656L37.6471 11.1753L37.5479 11.3802C36.8997 12.7151 36.8946 13.0546 37.5019 14.4076L37.6003 14.6277C37.7154 14.8861 37.8238 15.1482 37.9254 15.414L38.0099 15.6412C38.5352 17.028 38.7789 17.2645 40.1809 17.7501L40.3984 17.8257L40.4103 17.83L40.4525 17.8443C40.9855 17.9906 41.498 18.2035 41.9778 18.4778C42.079 19.0212 42.1114 19.5753 42.0741 20.1269V22.0787C42.1114 22.6303 42.0791 23.1843 41.9778 23.7278C41.4851 24.0089 40.959 24.2271 40.4119 24.3773L40.3989 24.382L40.1877 24.4554C38.781 24.9428 38.5369 25.1797 38.0107 26.569L37.9263 26.7941C37.8241 27.0596 37.7154 27.3219 37.6003 27.5809L37.5006 27.8043C36.895 29.1531 36.9005 29.4935 37.5475 30.8242L37.6471 31.0298C37.7626 31.2804 37.9715 31.4759 38.2292 31.5744C38.487 31.6729 38.773 31.6666 39.0262 31.5568C39.2793 31.447 39.4794 31.2425 39.5836 30.987C39.6879 30.7315 39.6879 30.4454 39.5838 30.1899C39.5745 30.1679 39.5648 30.1455 39.5543 30.124L39.4466 29.9018C39.3258 29.6527 39.2008 29.3951 39.1679 29.2878C39.1974 29.1801 39.314 28.9204 39.4267 28.6687L39.5293 28.4398C39.6597 28.1468 39.7827 27.8493 39.8984 27.5475L39.9863 27.3169C40.0613 27.1035 40.1471 26.8941 40.2435 26.6894C40.4516 26.5991 40.6641 26.5194 40.8803 26.4504L41.11 26.3701C41.1231 26.3655 41.1366 26.3609 41.1501 26.3554C43.9031 25.3929 44.1869 24.9934 44.1869 22.0775V20.1285C44.1873 17.2126 43.9035 16.8126 41.1506 15.8506Z" fill="#555555"/>
<path d="M23.0824 10.9376C20.9412 10.9379 18.8547 11.6142 17.1205 12.8699C15.3862 14.1257 14.0926 15.897 13.4242 17.9311C12.7557 19.9653 12.7465 22.1586 13.3979 24.1983C14.0492 26.238 15.3278 28.0201 17.0515 29.2904C17.1631 29.3727 17.2898 29.4323 17.4244 29.4656C17.559 29.499 17.6988 29.5055 17.8359 29.4848C17.973 29.4641 18.1047 29.4166 18.2235 29.3451C18.3422 29.2735 18.4457 29.1792 18.5281 29.0676C18.6104 28.956 18.6699 28.8293 18.7033 28.6948C18.7367 28.5602 18.7432 28.4203 18.7225 28.2832C18.7018 28.1461 18.6543 28.0144 18.5827 27.8956C18.5112 27.7769 18.4169 27.6734 18.3053 27.5911C16.8532 26.5205 15.8026 24.9934 15.3219 23.2545C14.8412 21.5156 14.9583 19.6657 15.6544 18.0013C16.3504 16.3369 17.5852 14.9544 19.1607 14.0754C20.7362 13.1965 22.5612 12.8719 24.3431 13.1539C26.1251 13.4358 27.7607 14.3079 28.9879 15.6304C30.2151 16.9528 30.9627 18.6489 31.1109 20.4469C31.2592 22.2449 30.7994 24.0406 29.8054 25.5462C28.8113 27.0517 27.3405 28.1799 25.6289 28.7498C25.4964 28.7929 25.3738 28.8617 25.2681 28.9524C25.1623 29.043 25.0756 29.1537 25.0128 29.278C24.9501 29.4023 24.9125 29.5378 24.9023 29.6767C24.8921 29.8156 24.9095 29.9552 24.9535 30.0873C24.9975 30.2194 25.0672 30.3416 25.1586 30.4466C25.25 30.5517 25.3612 30.6377 25.486 30.6996C25.6107 30.7615 25.7465 30.7981 25.8855 30.8073C26.0244 30.8165 26.1638 30.7981 26.2957 30.7532C28.5863 29.9899 30.5306 28.4364 31.7806 26.3707C33.0307 24.305 33.5049 21.8619 33.1184 19.4785C32.7319 17.0952 31.5099 14.9271 29.6712 13.3623C27.8324 11.7975 25.4969 10.938 23.0824 10.9376Z" fill="#555555"/>
<path d="M27.5638 17.6859C27.3658 17.488 27.0974 17.3768 26.8174 17.3768C26.5375 17.3768 26.269 17.488 26.071 17.6859L21.9379 21.8186L20.0925 19.9731C19.9951 19.8723 19.8786 19.7919 19.7498 19.7365C19.621 19.6812 19.4825 19.6521 19.3423 19.6509C19.2021 19.6496 19.0631 19.6763 18.9333 19.7294C18.8036 19.7825 18.6857 19.8609 18.5866 19.96C18.4874 20.0592 18.409 20.177 18.356 20.3068C18.3029 20.4365 18.2762 20.5756 18.2774 20.7157C18.2786 20.8559 18.3077 20.9945 18.3631 21.1233C18.4184 21.2521 18.4988 21.3686 18.5997 21.466L21.1917 24.058C21.3897 24.256 21.6582 24.3671 21.9382 24.3671C22.2181 24.3671 22.4866 24.256 22.6846 24.058L27.5638 19.1788C27.7618 18.9808 27.8729 18.7123 27.8729 18.4324C27.8729 18.1524 27.7618 17.8839 27.5638 17.6859Z" fill="#555555"/>
</svg>
