<svg width="22" height="40" viewBox="0 0 22 40" fill="none" xmlns="http://www.w3.org/2000/svg">
<g clip-path="url(#clip0_788_14576)">
<path d="M21 40H1V0H21V40ZM1.84848 39.1515H20.2121V0.848485H1.84848V39.1515Z" fill="#555555"/>
<path d="M17.3658 32.6665H4.69922V7.33325H17.5476V32.6665H17.3658ZM5.48709 31.8181H16.6386V8.18174H5.48709V31.8181Z" fill="#555555"/>
<path d="M15.8493 29.5152H6.15234V10.4849H15.8493V29.5152ZM7.00082 28.6667H15.0008V11.3333H7.00082V28.6667Z" fill="#555555"/>
<path d="M20.1515 39.8182L15 29.1515L15.8485 28.8485L21 39.3334L20.1515 39.8182Z" fill="#555555"/>
<path d="M1.84848 39.8182L1 39.3334L6.15152 28.8485L7 29.1515L1.84848 39.8182Z" fill="#555555"/>
<path d="M20.3154 0.257324L15.1758 10.7647L15.938 11.1375L21.0776 0.630149L20.3154 0.257324Z" fill="#555555"/>
<path d="M1.73077 0.292847L0.96875 0.666011L6.11308 11.1711L6.87511 10.7979L1.73077 0.292847Z" fill="#555555"/>
</g>
<defs>
<clipPath id="clip0_788_14576">
<rect width="22" height="40" fill="white"/>
</clipPath>
</defs>
</svg>
