<svg width="26" height="26" viewBox="0 0 26 26" fill="none" xmlns="http://www.w3.org/2000/svg">
<path d="M13 0C10.4288 0 7.91543 0.762438 5.77759 2.19089C3.63976 3.61934 1.97351 5.64967 0.989575 8.0251C0.00562843 10.4005 -0.251812 13.0144 0.249802 15.5361C0.751402 18.0578 1.98953 20.3742 3.80761 22.1924C5.62571 24.0105 7.94208 25.2486 10.4639 25.7502C12.9856 26.2518 15.5995 25.9943 17.9749 25.0104C20.3503 24.0265 22.3807 22.3602 23.8091 20.2224C25.2376 18.0845 26 15.5712 26 13C25.996 9.5534 24.6251 6.24911 22.188 3.81201C19.7509 1.3749 16.4465 0.00398666 13 0ZM19.1915 10.7236L11.8575 17.7236C11.6709 17.901 11.4235 18 11.166 18C10.9087 18 10.6611 17.901 10.4747 17.7236L6.8086 14.2236C6.61707 14.0401 6.5062 13.7881 6.50032 13.523C6.49445 13.2578 6.59407 13.0012 6.77729 12.8094C6.96051 12.6177 7.21236 12.5065 7.47751 12.5002C7.74265 12.4941 7.99941 12.5933 8.19141 12.7764L11.166 15.6172L17.8085 9.27636C18.0005 9.09337 18.2573 8.99409 18.5225 9.00029C18.7876 9.0065 19.0395 9.11769 19.2227 9.30945C19.406 9.50121 19.5056 9.75785 19.4997 10.023C19.4939 10.2881 19.3829 10.5401 19.1915 10.7236Z" fill="#293FCC"/>
</svg>
