<svg width="20" height="20" viewBox="0 0 20 20" fill="none" xmlns="http://www.w3.org/2000/svg">
<path d="M18.5907 1.40958L18.5904 1.4093C18.2938 1.11509 17.8929 0.95 17.4752 0.95C17.0574 0.95 16.6565 1.11509 16.3599 1.4093L16.3598 1.40944L1.41201 16.3572C1.11619 16.653 0.95 17.0542 0.95 17.4726C0.95 17.8909 1.11619 18.2922 1.41201 18.588C1.70783 18.8838 2.10905 19.05 2.52741 19.05C2.94576 19.05 3.34698 18.8838 3.6428 18.588L18.5906 3.64023L18.5907 3.64009C18.8849 3.34347 19.05 2.94262 19.05 2.52484C19.05 2.10706 18.8849 1.7062 18.5907 1.40958ZM2.01171 16.9214L2.01195 16.9211L14.0658 4.86364L15.1364 5.93416L3.07958 17.9874C3.07946 17.9875 3.07934 17.9876 3.07923 17.9877C2.93568 18.1255 2.7444 18.2025 2.54541 18.2025C2.34637 18.2025 2.15505 18.1255 2.01149 17.9876C1.94098 17.918 1.88499 17.835 1.84677 17.7436C1.8085 17.652 1.78879 17.5538 1.78879 17.4546C1.78879 17.3554 1.8085 17.2572 1.84677 17.1656C1.88503 17.0741 1.9411 16.9911 2.01171 16.9214ZM15.715 5.33456L14.648 4.26752L15.7613 3.16775L16.8317 4.23817L15.715 5.33456ZM18.0086 3.0583L17.4104 3.65657L16.3434 2.58964L16.9417 1.99137C17.0118 1.92132 17.0949 1.86574 17.1865 1.82783C17.278 1.78992 17.3761 1.7704 17.4752 1.7704C17.5742 1.7704 17.6723 1.78992 17.7639 1.82783C17.8554 1.86574 17.9386 1.92132 18.0086 1.99137C18.0787 2.06143 18.1343 2.1446 18.1722 2.23613C18.2101 2.32766 18.2296 2.42576 18.2296 2.52484C18.2296 2.62391 18.2101 2.72201 18.1722 2.81355C18.1343 2.90508 18.0787 2.98825 18.0086 3.0583Z" fill="#293FCC" stroke="#293FCC" stroke-width="0.1"/>
<path d="M7.41134 6.083L7.41119 6.08307C6.7873 6.39739 6.28035 6.90308 5.96449 7.52618C5.96447 7.52621 5.96445 7.52625 5.96443 7.52628L7.41134 6.083ZM7.41134 6.083C7.43103 6.07299 7.45049 6.06314 7.4697 6.05342M7.41134 6.083L7.4697 6.05342M3.03198 6.08325C2.8099 5.97578 2.61867 5.87784 2.48343 5.76233C2.34555 5.64456 2.2625 5.5056 2.2625 5.31839C2.2625 5.13052 2.34621 4.99847 2.48454 4.88704C2.61069 4.78542 2.78643 4.69771 2.98935 4.59643C3.00336 4.58944 3.0175 4.58238 3.03177 4.57525L3.05413 4.61997L3.03156 4.57535C3.65573 4.2597 4.16265 3.75279 4.47832 3.12864C4.47833 3.12861 4.47835 3.12858 4.47836 3.12855L3.03198 6.08325ZM3.03198 6.08325C3.65574 6.39759 4.16258 6.90325 4.47838 7.52628L4.52298 7.50367L3.03198 6.08325ZM7.4697 6.05342C7.66566 5.95422 7.83577 5.86811 7.95868 5.76697M7.4697 6.05342L7.95868 5.76697M7.95868 5.76697C8.09756 5.65268 8.18032 5.51605 8.18032 5.31839M7.95868 5.76697L8.18032 5.31839M8.18032 5.31839C8.18032 5.22118 8.16029 5.13823 8.12132 5.06523M8.18032 5.31839L8.12132 5.06523M8.12132 5.06523C8.08253 4.99254 8.02636 4.93236 7.95778 4.87854M8.12132 5.06523L7.95778 4.87854M7.95778 4.87854C7.84407 4.78931 7.68947 4.71296 7.51196 4.62529M7.95778 4.87854L7.51196 4.62529M7.51196 4.62529C7.47911 4.60907 7.44548 4.59246 7.41117 4.57531M7.51196 4.62529L7.41117 4.57531M7.41117 4.57531C6.78702 4.25964 6.28011 3.75271 5.96445 3.12855L5.91983 3.15111L7.41117 4.57531ZM3.40055 5.32349C3.40064 5.32344 3.40073 5.3234 3.40082 5.32336C4.1886 4.92823 4.82765 4.28918 5.22277 3.5014C5.22281 3.50131 5.22286 3.50123 5.2229 3.50114L5.23581 3.47614L5.24872 3.50114C5.24876 3.50123 5.2488 3.50131 5.24885 3.5014C5.64397 4.28918 6.28302 4.92823 7.0708 5.32336C7.07089 5.3234 7.07098 5.32344 7.07107 5.32349L7.09607 5.33639L7.07107 5.3493C7.07098 5.34935 7.07089 5.34939 7.0708 5.34943C6.28302 5.74455 5.64397 6.38361 5.24885 7.17139C5.2488 7.17147 5.24876 7.17156 5.24872 7.17165L5.23581 7.19665L5.2229 7.17165C5.22286 7.17156 5.22281 7.17147 5.22277 7.17139C4.82765 6.38361 4.1886 5.74455 3.40082 5.34943C3.40073 5.34939 3.40064 5.34935 3.40055 5.3493L3.37555 5.33639L3.40055 5.32349Z" fill="#293FCC" stroke="#293FCC" stroke-width="0.1"/>
<path d="M17.27 8.98018L17.2701 8.98055C17.3741 9.4876 17.6388 9.94765 18.0248 10.2925L17.27 8.98018ZM17.27 8.98018C17.2688 8.9748 17.2677 8.96943 17.2665 8.96407C17.227 8.77819 17.191 8.60911 17.1281 8.4768C17.0616 8.33703 16.9631 8.23407 16.7984 8.18988C16.6338 8.1457 16.4982 8.18514 16.3717 8.27319C16.2531 8.35576 16.1393 8.48343 16.0132 8.62489C16.0086 8.63008 16.004 8.63529 15.9993 8.64051L15.9993 8.64054C15.651 9.03178 15.1859 9.30024 14.6729 9.40605L14.683 9.45502L14.673 9.40602C14.4804 9.44526 14.3054 9.4814 14.1692 9.54622C14.0295 9.61266 13.9265 9.71103 13.8823 9.87393C13.838 10.037 13.8776 10.1735 13.9655 10.3007C14.0511 10.4246 14.185 10.5431 14.333 10.6733C14.7189 11.0188 14.9845 11.4784 15.0912 11.9852C15.1305 12.1796 15.1666 12.3545 15.2314 12.4903C15.2979 12.6296 15.3962 12.7314 15.5587 12.7757M17.27 8.98018L18.0248 10.2926L18.0326 10.2995C18.1773 10.4285 18.3081 10.5451 18.3922 10.6663C18.48 10.793 18.5196 10.9286 18.4754 11.0916C18.4314 11.2594 18.3298 11.3599 18.1881 11.4276C18.0512 11.493 17.8736 11.5291 17.6738 11.5698L17.6703 11.5705C17.6703 11.5705 17.6703 11.5705 17.6703 11.5705C17.1639 11.6736 16.7048 11.9384 16.3621 12.3251L16.3618 12.3254C16.3559 12.3319 16.3501 12.3384 16.3443 12.3448C16.237 12.4639 16.1385 12.5733 16.0393 12.6535C15.9337 12.7388 15.822 12.7955 15.691 12.7955H15.6901L15.6901 12.7955C15.6456 12.7948 15.6014 12.7881 15.5587 12.7757M15.5587 12.7757C15.5585 12.7756 15.5584 12.7756 15.5582 12.7755L15.5722 12.7275L15.5591 12.7758C15.559 12.7758 15.5588 12.7757 15.5587 12.7757ZM15.8725 11.6625C15.7239 11.0975 15.4258 10.5829 15.0098 10.1728C15.5754 10.0231 16.0909 9.7252 16.5031 9.3099C16.6518 9.87512 16.9485 10.3906 17.3624 10.8031C16.7971 10.9492 16.2821 11.2463 15.8725 11.6625Z" fill="#293FCC" stroke="#293FCC" stroke-width="0.1"/>
<path d="M9.00476 16.9002L8.96142 16.9251C9.04589 17.0719 9.17093 17.1408 9.32329 17.169C9.47185 17.1964 9.6504 17.1858 9.84653 17.1733C10.3626 17.1453 10.8742 17.2818 11.3077 17.5631C11.4913 17.7195 11.7144 17.8224 11.9526 17.8604L11.9525 17.861L11.9605 17.861C12.0447 17.861 12.1272 17.8373 12.1986 17.7927C12.3448 17.7083 12.4135 17.5844 12.4416 17.4327C12.4691 17.2845 12.4585 17.1059 12.446 16.9081C12.4182 16.3921 12.5554 15.8807 12.8376 15.4478L12.8406 15.4432C12.9481 15.2794 13.0451 15.1314 13.0953 14.9909C13.1472 14.8453 13.1503 14.7035 13.0658 14.5568C12.9814 14.4099 12.8572 14.3419 12.7052 14.3142C12.561 14.288 12.3875 14.2974 12.1958 14.3078L12.181 14.3086L12.1808 14.3086C11.6647 14.3381 11.1528 14.2009 10.7207 13.9171L10.7206 13.9171C10.5541 13.8078 10.4049 13.7141 10.2629 13.6658C10.1179 13.6165 9.97752 13.6136 9.83179 13.6875C9.68235 13.7632 9.61431 13.8903 9.58818 14.0446C9.56267 14.1953 9.57605 14.3781 9.59209 14.5743C9.62001 15.091 9.48299 15.6033 9.20081 16.0371C9.08675 16.2029 8.98558 16.3522 8.93353 16.4936C8.88005 16.639 8.87689 16.7802 8.96157 16.9254L9.00476 16.9002ZM9.00476 16.9002C9.15596 17.163 9.44758 17.1486 9.84359 17.1234M9.00476 16.9002L9.84359 17.1234M9.84359 17.1234C10.3714 17.0947 10.8946 17.2347 11.3376 17.523L9.84359 17.1234ZM9.96143 16.3462C10.2585 15.8434 10.4147 15.2698 10.4135 14.6858C10.9162 14.9814 11.4893 15.1361 12.0724 15.1337C11.7779 15.6366 11.6243 16.2097 11.6278 16.7925C11.1296 16.501 10.5624 16.3467 9.98404 16.3462H9.984H9.96143Z" fill="#293FCC" stroke="#293FCC" stroke-width="0.1"/>
<path d="M10.5553 3.5469C10.6641 3.5469 10.7684 3.5037 10.8452 3.42681C10.9221 3.34992 10.9653 3.24563 10.9653 3.13689V2.74087C10.9653 2.63213 10.9221 2.52784 10.8452 2.45095C10.7684 2.37406 10.6641 2.33086 10.5553 2.33086C10.4466 2.33086 10.3423 2.37406 10.2654 2.45095C10.1885 2.52784 10.1453 2.63213 10.1453 2.74087V3.13689C10.1453 3.24563 10.1885 3.34992 10.2654 3.42681C10.3423 3.5037 10.4466 3.5469 10.5553 3.5469Z" fill="#293FCC" stroke="#293FCC" stroke-width="0.1"/>
<path d="M10.5553 5.36855C10.6641 5.36855 10.7684 5.32535 10.8452 5.24846C10.9221 5.17157 10.9653 5.06728 10.9653 4.95854V4.54092C10.9653 4.43218 10.9221 4.32789 10.8452 4.251C10.7684 4.17411 10.6641 4.13091 10.5553 4.13091C10.4466 4.13091 10.3423 4.17411 10.2654 4.251C10.1885 4.32789 10.1453 4.43218 10.1453 4.54092V4.95854C10.1453 5.06728 10.1885 5.17157 10.2654 5.24846C10.3423 5.32535 10.4466 5.36855 10.5553 5.36855Z" fill="#293FCC" stroke="#293FCC" stroke-width="0.1"/>
<path d="M11.2585 4.24903H11.6581C11.7668 4.24903 11.8711 4.20583 11.948 4.12894C12.0249 4.05205 12.0681 3.94776 12.0681 3.83902C12.0681 3.73028 12.0249 3.62599 11.948 3.54909C11.8711 3.4722 11.7668 3.429 11.6581 3.429H11.2585C11.1497 3.429 11.0454 3.4722 10.9685 3.54909C10.8916 3.62599 10.8484 3.73028 10.8484 3.83902C10.8484 3.94776 10.8916 4.05205 10.9685 4.12894C11.0454 4.20583 11.1497 4.24903 11.2585 4.24903Z" fill="#293FCC" stroke="#293FCC" stroke-width="0.1"/>
<path d="M9.85338 3.42876H9.45376C9.34502 3.42876 9.24073 3.47196 9.16384 3.54885C9.08695 3.62574 9.04375 3.73003 9.04375 3.83877C9.04375 3.94752 9.08695 4.0518 9.16384 4.1287C9.24073 4.20559 9.34502 4.24879 9.45376 4.24879H9.85338C9.96212 4.24879 10.0664 4.20559 10.1433 4.1287C10.2202 4.0518 10.2634 3.94752 10.2634 3.83877C10.2634 3.73003 10.2202 3.62574 10.1433 3.54885C10.0664 3.47196 9.96212 3.42876 9.85338 3.42876Z" fill="#293FCC" stroke="#293FCC" stroke-width="0.1"/>
<path d="M17.6138 14.4879C17.6138 14.3792 17.5706 14.2749 17.4937 14.198C17.4168 14.1211 17.3125 14.0779 17.2038 14.0779C17.095 14.0779 16.9907 14.1211 16.9138 14.198C16.8369 14.2749 16.7937 14.3792 16.7937 14.4879V14.8876C16.7937 14.9963 16.8369 15.1006 16.9138 15.1775C16.9907 15.2544 17.095 15.2976 17.2038 15.2976C17.3125 15.2976 17.4168 15.2544 17.4937 15.1775C17.5706 15.1006 17.6138 14.9963 17.6138 14.8876V14.4879Z" fill="#293FCC" stroke="#293FCC" stroke-width="0.1"/>
<path d="M17.2038 17.0979C17.3125 17.0979 17.4168 17.0547 17.4937 16.9778C17.5706 16.9009 17.6138 16.7966 17.6138 16.6879V16.2882C17.6138 16.1795 17.5706 16.0752 17.4937 15.9983C17.4168 15.9214 17.3125 15.8782 17.2038 15.8782C17.095 15.8782 16.9907 15.9214 16.9138 15.9983C16.8369 16.0752 16.7937 16.1795 16.7937 16.2882V16.6879C16.7937 16.7966 16.8369 16.9009 16.9138 16.9778C16.9907 17.0547 17.095 17.0979 17.2038 17.0979Z" fill="#293FCC" stroke="#293FCC" stroke-width="0.1"/>
<path d="M18.3077 15.1761H17.9225C17.8138 15.1761 17.7095 15.2193 17.6326 15.2962C17.5557 15.3731 17.5125 15.4773 17.5125 15.5861C17.5125 15.6948 17.5557 15.7991 17.6326 15.876C17.7095 15.9529 17.8138 15.9961 17.9225 15.9961H18.3221C18.4309 15.9961 18.5352 15.9529 18.6121 15.876C18.6889 15.7991 18.7321 15.6948 18.7321 15.5861C18.7321 15.4773 18.6889 15.3731 18.6121 15.2962C18.5352 15.2193 18.4309 15.1761 18.3221 15.1761H18.3077Z" fill="#293FCC" stroke="#293FCC" stroke-width="0.1"/>
<path d="M16.5069 15.1761H16.1217C16.013 15.1761 15.9087 15.2193 15.8318 15.2962C15.7549 15.3731 15.7117 15.4773 15.7117 15.5861C15.7117 15.6948 15.7549 15.7991 15.8318 15.876C15.9087 15.9529 16.013 15.9961 16.1217 15.9961H16.5213C16.6301 15.9961 16.7344 15.9529 16.8113 15.876C16.8882 15.7991 16.9314 15.6948 16.9314 15.5861C16.9314 15.4773 16.8882 15.3731 16.8113 15.2962C16.7344 15.2193 16.6301 15.1761 16.5213 15.1761H16.5069Z" fill="#293FCC" stroke="#293FCC" stroke-width="0.1"/>
</svg>
