<svg width="18" height="18" viewBox="0 0 18 18" fill="none" xmlns="http://www.w3.org/2000/svg">
<g clip-path="url(#clip0_738_11977)">
<rect x="0.5" y="0.5" width="17" height="17" rx="1.5" stroke="#293FCC"/>
<path d="M12.5 18L6.93504 10.0501C6.19961 8.99944 4.67936 8.90271 3.81669 9.85164L0.5 13.5" stroke="#293FCC"/>
<path d="M21.5 14.5L15.9483 7.36206C15.1899 6.38704 13.7378 6.32574 12.9 7.23338L8.5 12" stroke="#293FCC"/>
<path d="M11.1771 4.04333H10.5075C10.4675 3.8363 10.3862 3.64389 10.2719 3.47535L10.7456 3.00162C10.8595 2.88775 10.8595 2.70311 10.7456 2.5893C10.6317 2.47543 10.4471 2.47543 10.3332 2.5893L9.85949 3.06303C9.69095 2.94878 9.49854 2.86739 9.29154 2.82745V2.1578C9.29154 1.99678 9.16104 1.86621 8.99996 1.86621C8.83887 1.86621 8.70837 1.99675 8.70837 2.1578V2.82738C8.50134 2.86736 8.30896 2.94871 8.14042 3.06296L7.66669 2.58923C7.55279 2.47536 7.36818 2.47536 7.25431 2.58923C7.14044 2.70311 7.14044 2.88775 7.25431 3.00155L7.72804 3.47528C7.61378 3.64382 7.53236 3.83626 7.49242 4.04326H6.82284C6.66178 4.04326 6.53125 4.1738 6.53125 4.33485C6.53125 4.4959 6.66175 4.62647 6.82284 4.62647H7.49242C7.53239 4.8335 7.61375 5.02591 7.72804 5.19445L7.25431 5.66818C7.14044 5.78205 7.14044 5.9667 7.25431 6.0805C7.31126 6.13741 7.3859 6.16593 7.4605 6.16593C7.5351 6.16593 7.60974 6.13748 7.66669 6.0805L8.14042 5.60677C8.30896 5.72102 8.50137 5.80241 8.70837 5.84235V6.51197C8.70837 6.67298 8.83887 6.80355 8.99996 6.80355C9.16104 6.80355 9.29154 6.67302 9.29154 6.51197V5.84238C9.49858 5.80241 9.69095 5.72106 9.85949 5.6068L10.3332 6.08053C10.3902 6.13745 10.4648 6.16596 10.5394 6.16596C10.614 6.16596 10.6887 6.13752 10.7456 6.08053C10.8595 5.96666 10.8595 5.78202 10.7456 5.66822L10.2719 5.19449C10.3861 5.02595 10.4676 4.8335 10.5075 4.6265H11.177C11.3381 4.6265 11.4686 4.49597 11.4686 4.33492C11.4686 4.17387 11.3381 4.04333 11.1771 4.04333ZM8.99996 5.28734C8.47472 5.28734 8.04747 4.86005 8.04747 4.33485C8.04747 3.80965 8.47472 3.38236 8.99996 3.38236C9.52519 3.38236 9.95245 3.80965 9.95245 4.33485C9.95245 4.86005 9.52519 5.28734 8.99996 5.28734Z" fill="#293FCC"/>
<path d="M7.85958 13H2.25042C2.1121 13 2 13.1305 2 13.2916C2 13.4526 2.11207 13.5832 2.25042 13.5832H7.85958C7.9979 13.5832 8.11 13.4526 8.11 13.2916C8.11 13.1305 7.9979 13 7.85958 13Z" fill="#293FCC"/>
<path d="M6.33477 14H2.29159C2.13054 14 2 14.1305 2 14.2916C2 14.4526 2.1305 14.5832 2.29159 14.5832H6.33477C6.49582 14.5832 6.62635 14.4526 6.62635 14.2916C6.62635 14.1306 6.49585 14 6.33477 14Z" fill="#293FCC"/>
<path d="M6.33477 15H2.29159C2.13054 15 2 15.1305 2 15.2916C2 15.4526 2.1305 15.5832 2.29159 15.5832H6.33477C6.49582 15.5832 6.62635 15.4526 6.62635 15.2916C6.62635 15.1306 6.49585 15 6.33477 15Z" fill="#293FCC"/>
</g>
<defs>
<clipPath id="clip0_738_11977">
<rect width="18" height="18" fill="white"/>
</clipPath>
</defs>
</svg>
