<svg width="150" height="50" viewBox="0 0 150 50" fill="none" xmlns="http://www.w3.org/2000/svg">
<rect x="0.5" y="0.5" width="148.25" height="49" rx="4.5" fill="black"/>
<rect x="0.5" y="0.5" width="148.25" height="49" rx="4.5" stroke="white"/>
<g clip-path="url(#clip0_217_3329)">
<mask id="mask0_217_3329" style="mask-type:alpha" maskUnits="userSpaceOnUse" x="20" y="11" width="27" height="28">
<path d="M45.2092 23.2773C46.5969 24.0292 46.5969 25.9707 45.2092 26.7226L23.0147 38.7479C21.6631 39.4802 20 38.5298 20 37.0252V12.9748C20 11.4702 21.6631 10.5199 23.0147 11.2522L45.2092 23.2773Z" fill="#C4C4C4"/>
</mask>
<g mask="url(#mask0_217_3329)">
<path d="M20.6942 38.5117L34.5385 24.8039L20.9222 11.3218C20.379 11.6647 20 12.2567 20 12.975V37.0253C20 37.6382 20.2759 38.159 20.6942 38.5117Z" fill="url(#paint0_linear_217_3329)"/>
<path d="M45.2097 23.2772C46.5975 24.0291 46.5975 25.9705 45.2097 26.7224L39.6105 29.7562L34.5391 24.8034L39.3519 20.1033L45.2097 23.2772Z" fill="url(#paint1_linear_217_3329)"/>
<path d="M39.6091 29.7565L34.5376 24.8038L20.6934 38.5116C21.3022 39.0249 22.2127 39.182 23.0138 38.7479L39.6091 29.7565Z" fill="url(#paint2_linear_217_3329)"/>
<path d="M20.9219 11.3216L34.5381 24.8037L39.3509 20.1035L23.0143 11.2522C22.3079 10.8695 21.5165 10.9463 20.9219 11.3216Z" fill="url(#paint3_linear_217_3329)"/>
</g>
</g>
<path d="M62.3 16.05C62.1067 15.6433 61.8267 15.33 61.46 15.11C61.0933 14.8833 60.6667 14.77 60.18 14.77C59.6933 14.77 59.2533 14.8833 58.86 15.11C58.4733 15.33 58.1667 15.65 57.94 16.07C57.72 16.4833 57.61 16.9633 57.61 17.51C57.61 18.0567 57.72 18.5367 57.94 18.95C58.1667 19.3633 58.4733 19.6833 58.86 19.91C59.2533 20.13 59.6933 20.24 60.18 20.24C60.86 20.24 61.42 20.0367 61.86 19.63C62.3 19.2233 62.5567 18.6733 62.63 17.98H59.85V17.24H63.6V17.94C63.5467 18.5133 63.3667 19.04 63.06 19.52C62.7533 19.9933 62.35 20.37 61.85 20.65C61.35 20.9233 60.7933 21.06 60.18 21.06C59.5333 21.06 58.9433 20.91 58.41 20.61C57.8767 20.3033 57.4533 19.88 57.14 19.34C56.8333 18.8 56.68 18.19 56.68 17.51C56.68 16.83 56.8333 16.22 57.14 15.68C57.4533 15.1333 57.8767 14.71 58.41 14.41C58.9433 14.1033 59.5333 13.95 60.18 13.95C60.92 13.95 61.5733 14.1333 62.14 14.5C62.7133 14.8667 63.13 15.3833 63.39 16.05H62.3ZM65.7132 14.77V17.1H68.2532V17.85H65.7132V20.25H68.5532V21H64.8032V14.02H68.5532V14.77H65.7132ZM74.2202 14.03V14.77H72.3202V21H71.4102V14.77H69.5002V14.03H74.2202ZM78.9163 14.03V21H78.0063V14.03H78.9163ZM84.7573 14.03V14.77H82.8573V21H81.9473V14.77H80.0373V14.03H84.7573ZM91.7034 21.07C91.0568 21.07 90.4668 20.92 89.9334 20.62C89.4001 20.3133 88.9768 19.89 88.6634 19.35C88.3568 18.8033 88.2034 18.19 88.2034 17.51C88.2034 16.83 88.3568 16.22 88.6634 15.68C88.9768 15.1333 89.4001 14.71 89.9334 14.41C90.4668 14.1033 91.0568 13.95 91.7034 13.95C92.3568 13.95 92.9501 14.1033 93.4834 14.41C94.0168 14.71 94.4368 15.13 94.7434 15.67C95.0501 16.21 95.2034 16.8233 95.2034 17.51C95.2034 18.1967 95.0501 18.81 94.7434 19.35C94.4368 19.89 94.0168 20.3133 93.4834 20.62C92.9501 20.92 92.3568 21.07 91.7034 21.07ZM91.7034 20.28C92.1901 20.28 92.6268 20.1667 93.0134 19.94C93.4068 19.7133 93.7134 19.39 93.9334 18.97C94.1601 18.55 94.2734 18.0633 94.2734 17.51C94.2734 16.95 94.1601 16.4633 93.9334 16.05C93.7134 15.63 93.4101 15.3067 93.0234 15.08C92.6368 14.8533 92.1968 14.74 91.7034 14.74C91.2101 14.74 90.7701 14.8533 90.3834 15.08C89.9968 15.3067 89.6901 15.63 89.4634 16.05C89.2434 16.4633 89.1334 16.95 89.1334 17.51C89.1334 18.0633 89.2434 18.55 89.4634 18.97C89.6901 19.39 89.9968 19.7133 90.3834 19.94C90.7768 20.1667 91.2168 20.28 91.7034 20.28ZM101.885 21H100.975L97.3148 15.45V21H96.4048V14.02H97.3148L100.975 19.56V14.02H101.885V21Z" fill="white"/>
<path d="M62.91 29.144C62.718 28.792 62.454 28.524 62.118 28.34C61.782 28.156 61.39 28.064 60.942 28.064C60.446 28.064 60.006 28.176 59.622 28.4C59.238 28.624 58.938 28.944 58.722 29.36C58.506 29.776 58.398 30.256 58.398 30.8C58.398 31.36 58.506 31.848 58.722 32.264C58.946 32.68 59.254 33 59.646 33.224C60.038 33.448 60.494 33.56 61.014 33.56C61.654 33.56 62.178 33.392 62.586 33.056C62.994 32.712 63.262 32.236 63.39 31.628H60.51V30.344H65.046V31.808C64.934 32.392 64.694 32.932 64.326 33.428C63.958 33.924 63.482 34.324 62.898 34.628C62.322 34.924 61.674 35.072 60.954 35.072C60.146 35.072 59.414 34.892 58.758 34.532C58.11 34.164 57.598 33.656 57.222 33.008C56.854 32.36 56.67 31.624 56.67 30.8C56.67 29.976 56.854 29.24 57.222 28.592C57.598 27.936 58.11 27.428 58.758 27.068C59.414 26.7 60.142 26.516 60.942 26.516C61.886 26.516 62.706 26.748 63.402 27.212C64.098 27.668 64.578 28.312 64.842 29.144H62.91ZM69.2409 35.108C68.6009 35.108 68.0249 34.968 67.5129 34.688C67.0009 34.4 66.5969 33.996 66.3009 33.476C66.0129 32.956 65.8689 32.356 65.8689 31.676C65.8689 30.996 66.0169 30.396 66.3129 29.876C66.6169 29.356 67.0289 28.956 67.5489 28.676C68.0689 28.388 68.6489 28.244 69.2889 28.244C69.9289 28.244 70.5089 28.388 71.0289 28.676C71.5489 28.956 71.9569 29.356 72.2529 29.876C72.5569 30.396 72.7089 30.996 72.7089 31.676C72.7089 32.356 72.5529 32.956 72.2409 33.476C71.9369 33.996 71.5209 34.4 70.9929 34.688C70.4729 34.968 69.8889 35.108 69.2409 35.108ZM69.2409 33.644C69.5449 33.644 69.8289 33.572 70.0929 33.428C70.3649 33.276 70.5809 33.052 70.7409 32.756C70.9009 32.46 70.9809 32.1 70.9809 31.676C70.9809 31.044 70.8129 30.56 70.4769 30.224C70.1489 29.88 69.7449 29.708 69.2649 29.708C68.7849 29.708 68.3809 29.88 68.0529 30.224C67.7329 30.56 67.5729 31.044 67.5729 31.676C67.5729 32.308 67.7289 32.796 68.0409 33.14C68.3609 33.476 68.7609 33.644 69.2409 33.644ZM76.8933 35.108C76.2533 35.108 75.6773 34.968 75.1653 34.688C74.6533 34.4 74.2493 33.996 73.9533 33.476C73.6653 32.956 73.5213 32.356 73.5213 31.676C73.5213 30.996 73.6693 30.396 73.9653 29.876C74.2693 29.356 74.6813 28.956 75.2013 28.676C75.7213 28.388 76.3013 28.244 76.9413 28.244C77.5813 28.244 78.1613 28.388 78.6813 28.676C79.2013 28.956 79.6093 29.356 79.9053 29.876C80.2093 30.396 80.3613 30.996 80.3613 31.676C80.3613 32.356 80.2053 32.956 79.8933 33.476C79.5893 33.996 79.1733 34.4 78.6453 34.688C78.1253 34.968 77.5413 35.108 76.8933 35.108ZM76.8933 33.644C77.1973 33.644 77.4813 33.572 77.7453 33.428C78.0173 33.276 78.2333 33.052 78.3933 32.756C78.5533 32.46 78.6333 32.1 78.6333 31.676C78.6333 31.044 78.4653 30.56 78.1293 30.224C77.8013 29.88 77.3973 29.708 76.9173 29.708C76.4373 29.708 76.0333 29.88 75.7053 30.224C75.3853 30.56 75.2253 31.044 75.2253 31.676C75.2253 32.308 75.3813 32.796 75.6933 33.14C76.0133 33.476 76.4133 33.644 76.8933 33.644ZM84.1976 28.244C84.6936 28.244 85.1296 28.344 85.5056 28.544C85.8816 28.736 86.1776 28.988 86.3936 29.3V28.352H88.0856V35.048C88.0856 35.664 87.9616 36.212 87.7136 36.692C87.4656 37.18 87.0936 37.564 86.5976 37.844C86.1016 38.132 85.5016 38.276 84.7976 38.276C83.8536 38.276 83.0776 38.056 82.4696 37.616C81.8696 37.176 81.5296 36.576 81.4496 35.816H83.1176C83.2056 36.12 83.3936 36.36 83.6816 36.536C83.9776 36.72 84.3336 36.812 84.7496 36.812C85.2376 36.812 85.6336 36.664 85.9376 36.368C86.2416 36.08 86.3936 35.64 86.3936 35.048V34.016C86.1776 34.328 85.8776 34.588 85.4936 34.796C85.1176 35.004 84.6856 35.108 84.1976 35.108C83.6376 35.108 83.1256 34.964 82.6616 34.676C82.1976 34.388 81.8296 33.984 81.5576 33.464C81.2936 32.936 81.1616 32.332 81.1616 31.652C81.1616 30.98 81.2936 30.384 81.5576 29.864C81.8296 29.344 82.1936 28.944 82.6496 28.664C83.1136 28.384 83.6296 28.244 84.1976 28.244ZM86.3936 31.676C86.3936 31.268 86.3136 30.92 86.1536 30.632C85.9936 30.336 85.7776 30.112 85.5056 29.96C85.2336 29.8 84.9416 29.72 84.6296 29.72C84.3176 29.72 84.0296 29.796 83.7656 29.948C83.5016 30.1 83.2856 30.324 83.1176 30.62C82.9576 30.908 82.8776 31.252 82.8776 31.652C82.8776 32.052 82.9576 32.404 83.1176 32.708C83.2856 33.004 83.5016 33.232 83.7656 33.392C84.0376 33.552 84.3256 33.632 84.6296 33.632C84.9416 33.632 85.2336 33.556 85.5056 33.404C85.7776 33.244 85.9936 33.02 86.1536 32.732C86.3136 32.436 86.3936 32.084 86.3936 31.676ZM91.4064 26.12V35H89.7264V26.12H91.4064ZM99.2463 31.532C99.2463 31.772 99.2303 31.988 99.1983 32.18H94.3383C94.3783 32.66 94.5463 33.036 94.8423 33.308C95.1383 33.58 95.5023 33.716 95.9343 33.716C96.5583 33.716 97.0023 33.448 97.2663 32.912H99.0783C98.8863 33.552 98.5183 34.08 97.9743 34.496C97.4303 34.904 96.7623 35.108 95.9703 35.108C95.3303 35.108 94.7543 34.968 94.2423 34.688C93.7383 34.4 93.3423 33.996 93.0543 33.476C92.7743 32.956 92.6343 32.356 92.6343 31.676C92.6343 30.988 92.7743 30.384 93.0543 29.864C93.3343 29.344 93.7263 28.944 94.2303 28.664C94.7343 28.384 95.3143 28.244 95.9703 28.244C96.6023 28.244 97.1663 28.38 97.6623 28.652C98.1663 28.924 98.5543 29.312 98.8263 29.816C99.1063 30.312 99.2463 30.884 99.2463 31.532ZM97.5063 31.052C97.4983 30.62 97.3423 30.276 97.0383 30.02C96.7343 29.756 96.3623 29.624 95.9223 29.624C95.5063 29.624 95.1543 29.752 94.8663 30.008C94.5863 30.256 94.4143 30.604 94.3503 31.052H97.5063ZM109.44 29.216C109.44 29.664 109.332 30.084 109.116 30.476C108.908 30.868 108.576 31.184 108.12 31.424C107.672 31.664 107.104 31.784 106.416 31.784H105.012V35H103.332V26.624H106.416C107.064 26.624 107.616 26.736 108.072 26.96C108.528 27.184 108.868 27.492 109.092 27.884C109.324 28.276 109.44 28.72 109.44 29.216ZM106.344 30.428C106.808 30.428 107.152 30.324 107.376 30.116C107.6 29.9 107.712 29.6 107.712 29.216C107.712 28.4 107.256 27.992 106.344 27.992H105.012V30.428H106.344ZM112.313 26.12V35H110.633V26.12H112.313ZM113.541 31.652C113.541 30.98 113.673 30.384 113.937 29.864C114.209 29.344 114.573 28.944 115.029 28.664C115.493 28.384 116.009 28.244 116.577 28.244C117.073 28.244 117.505 28.344 117.873 28.544C118.249 28.744 118.549 28.996 118.773 29.3V28.352H120.465V35H118.773V34.028C118.557 34.34 118.257 34.6 117.873 34.808C117.497 35.008 117.061 35.108 116.565 35.108C116.005 35.108 115.493 34.964 115.029 34.676C114.573 34.388 114.209 33.984 113.937 33.464C113.673 32.936 113.541 32.332 113.541 31.652ZM118.773 31.676C118.773 31.268 118.693 30.92 118.533 30.632C118.373 30.336 118.157 30.112 117.885 29.96C117.613 29.8 117.321 29.72 117.009 29.72C116.697 29.72 116.409 29.796 116.145 29.948C115.881 30.1 115.665 30.324 115.497 30.62C115.337 30.908 115.257 31.252 115.257 31.652C115.257 32.052 115.337 32.404 115.497 32.708C115.665 33.004 115.881 33.232 116.145 33.392C116.417 33.552 116.705 33.632 117.009 33.632C117.321 33.632 117.613 33.556 117.885 33.404C118.157 33.244 118.373 33.02 118.533 32.732C118.693 32.436 118.773 32.084 118.773 31.676ZM128.465 28.352L124.349 38.144H122.561L124.001 34.832L121.337 28.352H123.221L124.937 32.996L126.677 28.352H128.465Z" fill="white"/>
<defs>
<linearGradient id="paint0_linear_217_3329" x1="29.4904" y1="19.4797" x2="20.2248" y2="28.9674" gradientUnits="userSpaceOnUse">
<stop stop-color="#00C3FF"/>
<stop offset="1" stop-color="#1BE2FA"/>
</linearGradient>
<linearGradient id="paint1_linear_217_3329" x1="34.5391" y1="24.8036" x2="47.0582" y2="24.8036" gradientUnits="userSpaceOnUse">
<stop stop-color="#FFCE00"/>
<stop offset="1" stop-color="#FFEA00"/>
</linearGradient>
<linearGradient id="paint2_linear_217_3329" x1="20.403" y1="40.185" x2="36.8534" y2="26.7903" gradientUnits="userSpaceOnUse">
<stop stop-color="#DE2453"/>
<stop offset="1" stop-color="#FE3944"/>
</linearGradient>
<linearGradient id="paint3_linear_217_3329" x1="21.2112" y1="9.81686" x2="36.8622" y2="22.8002" gradientUnits="userSpaceOnUse">
<stop stop-color="#11D574"/>
<stop offset="1" stop-color="#01F176"/>
</linearGradient>
<clipPath id="clip0_217_3329">
<rect width="26.25" height="28" fill="white" transform="translate(20 11)"/>
</clipPath>
</defs>
</svg>
