<svg width="512" height="512" viewBox="0 0 512 512" fill="none" xmlns="http://www.w3.org/2000/svg">
<rect width="512" height="512" fill="white"/>
<path fill-rule="evenodd" clip-rule="evenodd" d="M56 190.703C56 147.393 73.1024 125 101.771 125C130.562 125 147.664 147.393 147.664 190.703V321.863C147.664 365.172 130.439 387.565 101.771 387.565C73.1024 387.565 56 365.172 56 321.863V190.703ZM364.582 125H269.842C184.945 125 178.301 161.666 178.301 210.635L178.178 301.93C178.178 352.868 184.576 387.565 270.211 387.565H364.582C449.725 387.565 456 351.023 456 302.176V210.758C456 161.666 449.479 125 364.582 125Z" fill="black"/>
</svg>
