<svg width="1316" height="194" viewBox="0 0 1316 194" fill="none" xmlns="http://www.w3.org/2000/svg">
<path d="M1045.5 37.9017V2.36475H1005.35C990.344 2.36475 978.175 14.5336 978.175 29.5446V185.8C978.175 200.811 990.344 212.98 1005.35 212.98H1045.5V179.339H1010.42V37.9017H1045.5Z" fill="#303F46"/>
<path d="M1066.37 36.4813V0.944336H1106.52C1121.53 0.944336 1133.7 13.1132 1133.7 28.1242V184.38C1133.7 199.391 1121.53 211.56 1106.52 211.56H1066.37V177.918H1101.45V36.4813H1066.37Z" fill="#303F46"/>
<path d="M909.427 214.17L939.588 194.464L819.341 0.244775L784.251 23.2187L909.427 214.17Z" fill="#303F46"/>
<rect width="36.0356" height="214.169" transform="matrix(1 0 0 -1 783.304 214.172)" fill="#303F46"/>
<rect width="36.0356" height="214.169" transform="matrix(1 0 0 -1 909.428 214.172)" fill="#303F46"/>
<rect width="57.8462" height="36.4843" transform="matrix(1 0 0 -1 205.301 214.172)" fill="#303F46"/>
<rect width="65.4325" height="36.4843" transform="matrix(1 0 0 -1 280.691 214.172)" fill="#303F46"/>
<rect width="29.3975" height="214.169" transform="matrix(1 0 0 -1 195.817 214.172)" fill="#303F46"/>
<rect width="57.8462" height="33.6414" transform="matrix(1 0 0 -1 32.2421 123.672)" fill="#303F46"/>
<rect width="36.0356" height="214.169" transform="matrix(1 0 0 -1 0 214.173)" fill="#303F46"/>
<rect width="104.313" height="33.6414" transform="matrix(1 0 0 -1 51.6822 33.6411)" fill="#303F46"/>
<rect width="104.313" height="33.6414" transform="matrix(1 0 0 -1 51.6822 213.699)" fill="#303F46"/>
<rect width="57.8462" height="33.6414" transform="matrix(1 0 0 -1 417.731 123.671)" fill="#303F46"/>
<rect width="36.0356" height="214.169" transform="matrix(1 0 0 -1 385.489 214.172)" fill="#303F46"/>
<rect width="104.313" height="33.6414" transform="matrix(1 0 0 -1 437.171 33.6445)" fill="#303F46"/>
<rect width="104.313" height="33.6414" transform="matrix(1 0 0 -1 437.171 213.698)" fill="#303F46"/>
<path d="M631.573 172.944H721.662V139.303H647.695L631.573 172.944Z" fill="#303F46"/>
<path d="M626.595 52.5928L655.519 66.3337L602.65 214.167H566.615L626.595 52.5928Z" fill="#303F46"/>
<path d="M690.843 33.203L679.937 0.472656H646.272L636.315 36.7606L661.919 46.9592L726.404 214.168H762.44L690.843 33.203Z" fill="#303F46"/>
<rect width="36.0356" height="214.169" transform="matrix(1 0 0 -1 1166.88 214.173)" fill="#303F46"/>
<path d="M1291.58 214.172L1239.66 121.641H1219.98V91.1131H1290.63V35.2635H1219.98V0.00244141H1302.41C1309.92 0.00244141 1316 6.08685 1316 13.5924V108.051C1316 115.557 1309.92 121.641 1302.41 121.641H1272.38L1316 184.354V214.172H1291.58Z" fill="#303F46"/>
</svg>
