<svg width="194" height="57" viewBox="0 0 194 57" fill="none" xmlns="http://www.w3.org/2000/svg">
<path d="M153.865 5.54335V0.345703H147.956C145.747 0.345703 143.956 2.12552 143.956 4.32104V27.1751C143.956 29.3706 145.747 31.1504 147.956 31.1504H153.865V26.23H148.701V5.54335H153.865Z" fill="url(#paint0_linear_71_1208)"/>
<path d="M156.935 5.33546V0.137817H162.844C165.053 0.137817 166.844 1.91763 166.844 4.11315V26.9672C166.844 29.1627 165.053 30.9425 162.844 30.9425H156.935V26.0221H162.099V5.33546H156.935Z" fill="url(#paint1_linear_71_1208)"/>
<path d="M133.838 31.3246L138.277 28.4423L120.58 0.0357565L115.416 3.39593L133.838 31.3246Z" fill="url(#paint2_linear_71_1208)"/>
<rect width="5.30328" height="31.3245" transform="matrix(1 0 0 -1 115.277 31.3245)" fill="url(#paint3_linear_71_1208)"/>
<rect width="5.30328" height="31.3245" transform="matrix(1 0 0 -1 133.838 31.3245)" fill="url(#paint4_linear_71_1208)"/>
<rect width="8.51316" height="5.33625" transform="matrix(1 0 0 -1 30.2136 31.3245)" fill="url(#paint5_linear_71_1208)"/>
<rect width="9.62964" height="5.33625" transform="matrix(1 0 0 -1 41.3085 31.3245)" fill="url(#paint6_linear_71_1208)"/>
<rect width="4.32636" height="31.3245" transform="matrix(1 0 0 -1 28.818 31.3245)" fill="url(#paint7_linear_71_1208)"/>
<rect width="8.51316" height="4.92044" transform="matrix(1 0 0 -1 4.745 18.0878)" fill="url(#paint8_linear_71_1208)"/>
<rect width="5.30328" height="31.3245" transform="matrix(1 0 0 -1 0 31.3246)" fill="url(#paint9_linear_71_1208)"/>
<rect width="15.3516" height="4.92044" transform="matrix(1 0 0 -1 7.60602 4.92036)" fill="url(#paint10_linear_71_1208)"/>
<rect width="15.3516" height="4.92044" transform="matrix(1 0 0 -1 7.60602 31.2551)" fill="url(#paint11_linear_71_1208)"/>
<rect width="8.51316" height="4.92044" transform="matrix(1 0 0 -1 61.4766 18.0878)" fill="url(#paint12_linear_71_1208)"/>
<rect width="5.30328" height="31.3245" transform="matrix(1 0 0 -1 56.7316 31.3246)" fill="url(#paint13_linear_71_1208)"/>
<rect width="15.3516" height="4.92044" transform="matrix(1 0 0 -1 64.3376 4.92036)" fill="url(#paint14_linear_71_1208)"/>
<rect width="15.3516" height="4.92044" transform="matrix(1 0 0 -1 64.3376 31.2551)" fill="url(#paint15_linear_71_1208)"/>
<path d="M92.9472 25.2947H106.205V20.3742H95.3198L92.9472 25.2947Z" fill="url(#paint16_linear_71_1208)"/>
<path d="M92.2146 7.69197L96.4712 9.70173L88.6907 31.3239H83.3875L92.2146 7.69197Z" fill="url(#paint17_linear_71_1208)"/>
<path d="M101.67 4.85594L100.065 0.0687866H95.1105L93.6451 5.37628L97.4132 6.86793L106.903 31.324H112.207L101.67 4.85594Z" fill="url(#paint18_linear_71_1208)"/>
<rect width="5.30328" height="31.3245" transform="matrix(1 0 0 -1 171.727 31.3245)" fill="url(#paint19_linear_71_1208)"/>
<path d="M190.079 31.3246L182.438 17.791H179.542V13.326H189.94V5.15741H179.542V0.00012207H191.673C192.777 0.00012207 193.673 0.89003 193.673 1.98779V15.8034C193.673 16.9011 192.777 17.791 191.673 17.791H187.253L193.673 26.9634V31.3246H190.079Z" fill="url(#paint20_linear_71_1208)"/>
<path fill-rule="evenodd" clip-rule="evenodd" d="M194 38.3405H0V37.3405H194V38.3405Z" fill="url(#paint21_linear_71_1208)"/>
<path d="M6.47852 52.2673V53.3405H1.20801V52.2673H6.47852ZM1.47461 43.3874V53.3405H0.155273V43.3874H1.47461ZM5.78125 47.6667V48.7399H1.20801V47.6667H5.78125ZM6.41016 43.3874V44.4675H1.20801V43.3874H6.41016ZM8.77539 45.944L10.3955 48.6374L12.0361 45.944H13.5195L11.0996 49.5944L13.5947 53.3405H12.1318L10.4229 50.5651L8.71387 53.3405H7.24414L9.73242 49.5944L7.31934 45.944H8.77539ZM16.1309 47.3659V56.1842H14.8594V45.944H16.0215L16.1309 47.3659ZM21.1143 49.5807V49.7243C21.1143 50.262 21.0505 50.7611 20.9229 51.2214C20.7952 51.6771 20.6084 52.0736 20.3623 52.4108C20.1208 52.7481 19.8223 53.0101 19.4668 53.1969C19.1113 53.3838 18.7035 53.4772 18.2432 53.4772C17.7738 53.4772 17.359 53.3997 16.999 53.2448C16.639 53.0898 16.3337 52.8643 16.083 52.568C15.8324 52.2718 15.6318 51.9163 15.4814 51.5016C15.3356 51.0869 15.2354 50.6198 15.1807 50.1003V49.3346C15.2354 48.7878 15.3379 48.2979 15.4883 47.8649C15.6387 47.432 15.8369 47.0628 16.083 46.7575C16.3337 46.4476 16.6367 46.2129 16.9922 46.0534C17.3477 45.8893 17.7578 45.8073 18.2227 45.8073C18.6875 45.8073 19.0999 45.8984 19.46 46.0807C19.82 46.2585 20.123 46.5137 20.3691 46.8464C20.6152 47.179 20.7998 47.5778 20.9229 48.0426C21.0505 48.5029 21.1143 49.0156 21.1143 49.5807ZM19.8428 49.7243V49.5807C19.8428 49.2116 19.804 48.8652 19.7266 48.5417C19.6491 48.2135 19.5283 47.9264 19.3643 47.6803C19.2048 47.4297 18.9997 47.2337 18.749 47.0925C18.4984 46.9466 18.1999 46.8737 17.8535 46.8737C17.5345 46.8737 17.2565 46.9284 17.0195 47.0378C16.7871 47.1471 16.5889 47.2953 16.4248 47.4821C16.2607 47.6644 16.1263 47.874 16.0215 48.111C15.9212 48.3434 15.846 48.585 15.7959 48.8356V50.6061C15.887 50.9251 16.0146 51.2259 16.1787 51.5085C16.3428 51.7865 16.5615 52.012 16.835 52.1852C17.1084 52.3538 17.4525 52.4382 17.8672 52.4382C18.209 52.4382 18.5029 52.3675 18.749 52.2262C18.9997 52.0804 19.2048 51.8822 19.3643 51.6315C19.5283 51.3809 19.6491 51.0938 19.7266 50.7702C19.804 50.4421 19.8428 50.0934 19.8428 49.7243ZM25.7969 53.4772C25.2819 53.4772 24.8148 53.3906 24.3955 53.2175C23.9808 53.0397 23.623 52.7913 23.3223 52.4723C23.026 52.1533 22.7982 51.7751 22.6387 51.3376C22.4792 50.9001 22.3994 50.4216 22.3994 49.902V49.6149C22.3994 49.0134 22.4883 48.4779 22.666 48.0085C22.8438 47.5345 23.0853 47.1335 23.3906 46.8053C23.696 46.4772 24.0423 46.2288 24.4297 46.0602C24.8171 45.8916 25.2181 45.8073 25.6328 45.8073C26.1615 45.8073 26.6172 45.8984 27 46.0807C27.3874 46.263 27.7041 46.5182 27.9502 46.8464C28.1963 47.1699 28.3786 47.5527 28.4971 47.9948C28.6156 48.4323 28.6748 48.9108 28.6748 49.4303V49.9977H23.1514V48.9655H27.4102V48.8698C27.3919 48.5417 27.3236 48.2227 27.2051 47.9128C27.0911 47.6029 26.9089 47.3477 26.6582 47.1471C26.4076 46.9466 26.0658 46.8464 25.6328 46.8464C25.3457 46.8464 25.0814 46.9079 24.8398 47.0309C24.5983 47.1494 24.391 47.3272 24.2178 47.5641C24.0446 47.8011 23.9102 48.0905 23.8145 48.4323C23.7188 48.7741 23.6709 49.1683 23.6709 49.6149V49.902C23.6709 50.2529 23.7188 50.5833 23.8145 50.8932C23.9147 51.1986 24.0583 51.4675 24.2451 51.6999C24.4365 51.9323 24.6667 52.1146 24.9355 52.2467C25.209 52.3789 25.5189 52.445 25.8652 52.445C26.3118 52.445 26.6901 52.3538 27 52.1716C27.3099 51.9893 27.5811 51.7454 27.8135 51.4401L28.5791 52.0485C28.4196 52.29 28.2168 52.5202 27.9707 52.7389C27.7246 52.9577 27.4215 53.1354 27.0615 53.2721C26.7061 53.4089 26.2845 53.4772 25.7969 53.4772ZM31.416 47.1061V53.3405H30.1514V45.944H31.3818L31.416 47.1061ZM33.7266 45.903L33.7197 47.0788C33.6149 47.056 33.5146 47.0423 33.4189 47.0378C33.3278 47.0287 33.223 47.0241 33.1045 47.0241C32.8128 47.0241 32.5553 47.0697 32.332 47.1608C32.1087 47.252 31.9196 47.3796 31.7646 47.5436C31.6097 47.7077 31.4867 47.9037 31.3955 48.1315C31.3089 48.3548 31.252 48.6009 31.2246 48.8698L30.8691 49.0749C30.8691 48.6283 30.9124 48.209 30.999 47.8171C31.0902 47.4251 31.2292 47.0788 31.416 46.778C31.6029 46.4727 31.8398 46.2357 32.127 46.0671C32.4186 45.8939 32.765 45.8073 33.166 45.8073C33.2572 45.8073 33.362 45.8187 33.4805 45.8415C33.599 45.8597 33.681 45.8802 33.7266 45.903ZM36.2695 45.944V53.3405H34.998V45.944H36.2695ZM34.9023 43.9821C34.9023 43.777 34.9639 43.6038 35.0869 43.4626C35.2145 43.3213 35.4014 43.2507 35.6475 43.2507C35.889 43.2507 36.0736 43.3213 36.2012 43.4626C36.3333 43.6038 36.3994 43.777 36.3994 43.9821C36.3994 44.1781 36.3333 44.3467 36.2012 44.488C36.0736 44.6247 35.889 44.693 35.6475 44.693C35.4014 44.693 35.2145 44.6247 35.0869 44.488C34.9639 44.3467 34.9023 44.1781 34.9023 43.9821ZM41.3691 53.4772C40.8542 53.4772 40.387 53.3906 39.9678 53.2175C39.5531 53.0397 39.1953 52.7913 38.8945 52.4723C38.5983 52.1533 38.3704 51.7751 38.2109 51.3376C38.0514 50.9001 37.9717 50.4216 37.9717 49.902V49.6149C37.9717 49.0134 38.0605 48.4779 38.2383 48.0085C38.416 47.5345 38.6576 47.1335 38.9629 46.8053C39.2682 46.4772 39.6146 46.2288 40.002 46.0602C40.3893 45.8916 40.7904 45.8073 41.2051 45.8073C41.7337 45.8073 42.1895 45.8984 42.5723 46.0807C42.9596 46.263 43.2764 46.5182 43.5225 46.8464C43.7686 47.1699 43.9508 47.5527 44.0693 47.9948C44.1878 48.4323 44.2471 48.9108 44.2471 49.4303V49.9977H38.7236V48.9655H42.9824V48.8698C42.9642 48.5417 42.8958 48.2227 42.7773 47.9128C42.6634 47.6029 42.4811 47.3477 42.2305 47.1471C41.9798 46.9466 41.638 46.8464 41.2051 46.8464C40.918 46.8464 40.6536 46.9079 40.4121 47.0309C40.1706 47.1494 39.9632 47.3272 39.79 47.5641C39.6169 47.8011 39.4824 48.0905 39.3867 48.4323C39.291 48.7741 39.2432 49.1683 39.2432 49.6149V49.902C39.2432 50.2529 39.291 50.5833 39.3867 50.8932C39.487 51.1986 39.6305 51.4675 39.8174 51.6999C40.0088 51.9323 40.2389 52.1146 40.5078 52.2467C40.7812 52.3789 41.0911 52.445 41.4375 52.445C41.8841 52.445 42.2624 52.3538 42.5723 52.1716C42.8822 51.9893 43.1533 51.7454 43.3857 51.4401L44.1514 52.0485C43.9919 52.29 43.7891 52.5202 43.543 52.7389C43.2969 52.9577 42.9938 53.1354 42.6338 53.2721C42.2783 53.4089 41.8568 53.4772 41.3691 53.4772ZM46.9883 47.5231V53.3405H45.7236V45.944H46.9199L46.9883 47.5231ZM46.6875 49.362L46.1611 49.3415C46.1657 48.8356 46.2409 48.3685 46.3867 47.9401C46.5326 47.5072 46.7376 47.1312 47.002 46.8122C47.2663 46.4932 47.5807 46.2471 47.9453 46.0739C48.3145 45.8962 48.7223 45.8073 49.1689 45.8073C49.5335 45.8073 49.8617 45.8574 50.1533 45.9577C50.445 46.0534 50.6934 46.2083 50.8984 46.4225C51.1081 46.6367 51.2676 46.9147 51.377 47.2565C51.4863 47.5938 51.541 48.0062 51.541 48.4938V53.3405H50.2695V48.4801C50.2695 48.0928 50.2126 47.7829 50.0986 47.5505C49.9847 47.3135 49.8184 47.1426 49.5996 47.0378C49.3809 46.9284 49.112 46.8737 48.793 46.8737C48.4785 46.8737 48.1914 46.9398 47.9316 47.0719C47.6764 47.2041 47.4554 47.3864 47.2686 47.6188C47.0863 47.8512 46.9427 48.1178 46.8379 48.4186C46.7376 48.7148 46.6875 49.0293 46.6875 49.362ZM56.4219 52.4382C56.7227 52.4382 57.0007 52.3766 57.2559 52.2536C57.5111 52.1305 57.7207 51.9619 57.8848 51.7477C58.0488 51.529 58.1423 51.2806 58.165 51.0026H59.3682C59.3454 51.4401 59.1973 51.848 58.9238 52.2262C58.6549 52.5999 58.3018 52.903 57.8643 53.1354C57.4268 53.3633 56.946 53.4772 56.4219 53.4772C55.8659 53.4772 55.3805 53.3792 54.9658 53.1833C54.5557 52.9873 54.2139 52.7184 53.9404 52.3766C53.6715 52.0348 53.4688 51.6429 53.332 51.2009C53.1999 50.7542 53.1338 50.2826 53.1338 49.7858V49.4987C53.1338 49.002 53.1999 48.5326 53.332 48.0905C53.4688 47.6439 53.6715 47.2497 53.9404 46.9079C54.2139 46.5661 54.5557 46.2972 54.9658 46.1012C55.3805 45.9053 55.8659 45.8073 56.4219 45.8073C57.0007 45.8073 57.5065 45.9258 57.9395 46.1628C58.3724 46.3952 58.7119 46.7142 58.958 47.1198C59.2087 47.5208 59.3454 47.9766 59.3682 48.487H58.165C58.1423 48.1816 58.0557 47.9059 57.9053 47.6598C57.7594 47.4137 57.5589 47.2178 57.3037 47.0719C57.0531 46.9216 56.7591 46.8464 56.4219 46.8464C56.0345 46.8464 55.7087 46.9238 55.4443 47.0788C55.1846 47.2292 54.9772 47.4342 54.8223 47.694C54.6719 47.9492 54.5625 48.2341 54.4941 48.5485C54.4303 48.8584 54.3984 49.1751 54.3984 49.4987V49.7858C54.3984 50.1094 54.4303 50.4284 54.4941 50.7428C54.5579 51.0573 54.665 51.3421 54.8154 51.5973C54.9704 51.8525 55.1777 52.0576 55.4375 52.2126C55.7018 52.363 56.0299 52.4382 56.4219 52.4382ZM63.8594 53.4772C63.3444 53.4772 62.8773 53.3906 62.458 53.2175C62.0433 53.0397 61.6855 52.7913 61.3848 52.4723C61.0885 52.1533 60.8607 51.7751 60.7012 51.3376C60.5417 50.9001 60.4619 50.4216 60.4619 49.902V49.6149C60.4619 49.0134 60.5508 48.4779 60.7285 48.0085C60.9062 47.5345 61.1478 47.1335 61.4531 46.8053C61.7585 46.4772 62.1048 46.2288 62.4922 46.0602C62.8796 45.8916 63.2806 45.8073 63.6953 45.8073C64.224 45.8073 64.6797 45.8984 65.0625 46.0807C65.4499 46.263 65.7666 46.5182 66.0127 46.8464C66.2588 47.1699 66.4411 47.5527 66.5596 47.9948C66.6781 48.4323 66.7373 48.9108 66.7373 49.4303V49.9977H61.2139V48.9655H65.4727V48.8698C65.4544 48.5417 65.3861 48.2227 65.2676 47.9128C65.1536 47.6029 64.9714 47.3477 64.7207 47.1471C64.4701 46.9466 64.1283 46.8464 63.6953 46.8464C63.4082 46.8464 63.1439 46.9079 62.9023 47.0309C62.6608 47.1494 62.4535 47.3272 62.2803 47.5641C62.1071 47.8011 61.9727 48.0905 61.877 48.4323C61.7812 48.7741 61.7334 49.1683 61.7334 49.6149V49.902C61.7334 50.2529 61.7812 50.5833 61.877 50.8932C61.9772 51.1986 62.1208 51.4675 62.3076 51.6999C62.499 51.9323 62.7292 52.1146 62.998 52.2467C63.2715 52.3789 63.5814 52.445 63.9277 52.445C64.3743 52.445 64.7526 52.3538 65.0625 52.1716C65.3724 51.9893 65.6436 51.7454 65.876 51.4401L66.6416 52.0485C66.4821 52.29 66.2793 52.5202 66.0332 52.7389C65.7871 52.9577 65.484 53.1354 65.124 53.2721C64.7686 53.4089 64.347 53.4772 63.8594 53.4772ZM78.2012 52.2673V53.3405H72.9307V52.2673H78.2012ZM73.1973 43.3874V53.3405H71.8779V43.3874H73.1973ZM77.5039 47.6667V48.7399H72.9307V47.6667H77.5039ZM78.1328 43.3874V44.4675H72.9307V43.3874H78.1328ZM80.498 45.944L82.1182 48.6374L83.7588 45.944H85.2422L82.8223 49.5944L85.3174 53.3405H83.8545L82.1455 50.5651L80.4365 53.3405H78.9668L81.4551 49.5944L79.042 45.944H80.498ZM89.4121 52.4382C89.7129 52.4382 89.9909 52.3766 90.2461 52.2536C90.5013 52.1305 90.7109 51.9619 90.875 51.7477C91.0391 51.529 91.1325 51.2806 91.1553 51.0026H92.3584C92.3356 51.4401 92.1875 51.848 91.9141 52.2262C91.6452 52.5999 91.292 52.903 90.8545 53.1354C90.417 53.3633 89.9362 53.4772 89.4121 53.4772C88.8561 53.4772 88.3708 53.3792 87.9561 53.1833C87.5459 52.9873 87.2041 52.7184 86.9307 52.3766C86.6618 52.0348 86.459 51.6429 86.3223 51.2009C86.1901 50.7542 86.124 50.2826 86.124 49.7858V49.4987C86.124 49.002 86.1901 48.5326 86.3223 48.0905C86.459 47.6439 86.6618 47.2497 86.9307 46.9079C87.2041 46.5661 87.5459 46.2972 87.9561 46.1012C88.3708 45.9053 88.8561 45.8073 89.4121 45.8073C89.9909 45.8073 90.4967 45.9258 90.9297 46.1628C91.3626 46.3952 91.7021 46.7142 91.9482 47.1198C92.1989 47.5208 92.3356 47.9766 92.3584 48.487H91.1553C91.1325 48.1816 91.0459 47.9059 90.8955 47.6598C90.7497 47.4137 90.5492 47.2178 90.2939 47.0719C90.0433 46.9216 89.7493 46.8464 89.4121 46.8464C89.0247 46.8464 88.6989 46.9238 88.4346 47.0788C88.1748 47.2292 87.9674 47.4342 87.8125 47.694C87.6621 47.9492 87.5527 48.2341 87.4844 48.5485C87.4206 48.8584 87.3887 49.1751 87.3887 49.4987V49.7858C87.3887 50.1094 87.4206 50.4284 87.4844 50.7428C87.5482 51.0573 87.6553 51.3421 87.8057 51.5973C87.9606 51.8525 88.168 52.0576 88.4277 52.2126C88.6921 52.363 89.0202 52.4382 89.4121 52.4382ZM96.8496 53.4772C96.3346 53.4772 95.8675 53.3906 95.4482 53.2175C95.0335 53.0397 94.6758 52.7913 94.375 52.4723C94.0788 52.1533 93.8509 51.7751 93.6914 51.3376C93.5319 50.9001 93.4521 50.4216 93.4521 49.902V49.6149C93.4521 49.0134 93.541 48.4779 93.7188 48.0085C93.8965 47.5345 94.138 47.1335 94.4434 46.8053C94.7487 46.4772 95.0951 46.2288 95.4824 46.0602C95.8698 45.8916 96.2708 45.8073 96.6855 45.8073C97.2142 45.8073 97.6699 45.8984 98.0527 46.0807C98.4401 46.263 98.7568 46.5182 99.0029 46.8464C99.249 47.1699 99.4313 47.5527 99.5498 47.9948C99.6683 48.4323 99.7275 48.9108 99.7275 49.4303V49.9977H94.2041V48.9655H98.4629V48.8698C98.4447 48.5417 98.3763 48.2227 98.2578 47.9128C98.1439 47.6029 97.9616 47.3477 97.7109 47.1471C97.4603 46.9466 97.1185 46.8464 96.6855 46.8464C96.3984 46.8464 96.1341 46.9079 95.8926 47.0309C95.651 47.1494 95.4437 47.3272 95.2705 47.5641C95.0973 47.8011 94.9629 48.0905 94.8672 48.4323C94.7715 48.7741 94.7236 49.1683 94.7236 49.6149V49.902C94.7236 50.2529 94.7715 50.5833 94.8672 50.8932C94.9674 51.1986 95.111 51.4675 95.2979 51.6999C95.4893 51.9323 95.7194 52.1146 95.9883 52.2467C96.2617 52.3789 96.5716 52.445 96.918 52.445C97.3646 52.445 97.7428 52.3538 98.0527 52.1716C98.3626 51.9893 98.6338 51.7454 98.8662 51.4401L99.6318 52.0485C99.4723 52.29 99.2695 52.5202 99.0234 52.7389C98.7773 52.9577 98.4743 53.1354 98.1143 53.2721C97.7588 53.4089 97.3372 53.4772 96.8496 53.4772ZM102.578 42.8405V53.3405H101.307V42.8405H102.578ZM105.982 42.8405V53.3405H104.711V42.8405H105.982ZM111.082 53.4772C110.567 53.4772 110.1 53.3906 109.681 53.2175C109.266 53.0397 108.908 52.7913 108.607 52.4723C108.311 52.1533 108.083 51.7751 107.924 51.3376C107.764 50.9001 107.685 50.4216 107.685 49.902V49.6149C107.685 49.0134 107.773 48.4779 107.951 48.0085C108.129 47.5345 108.37 47.1335 108.676 46.8053C108.981 46.4772 109.327 46.2288 109.715 46.0602C110.102 45.8916 110.503 45.8073 110.918 45.8073C111.447 45.8073 111.902 45.8984 112.285 46.0807C112.673 46.263 112.989 46.5182 113.235 46.8464C113.481 47.1699 113.664 47.5527 113.782 47.9948C113.901 48.4323 113.96 48.9108 113.96 49.4303V49.9977H108.437V48.9655H112.695V48.8698C112.677 48.5417 112.609 48.2227 112.49 47.9128C112.376 47.6029 112.194 47.3477 111.943 47.1471C111.693 46.9466 111.351 46.8464 110.918 46.8464C110.631 46.8464 110.367 46.9079 110.125 47.0309C109.883 47.1494 109.676 47.3272 109.503 47.5641C109.33 47.8011 109.195 48.0905 109.1 48.4323C109.004 48.7741 108.956 49.1683 108.956 49.6149V49.902C108.956 50.2529 109.004 50.5833 109.1 50.8932C109.2 51.1986 109.343 51.4675 109.53 51.6999C109.722 51.9323 109.952 52.1146 110.221 52.2467C110.494 52.3789 110.804 52.445 111.15 52.445C111.597 52.445 111.975 52.3538 112.285 52.1716C112.595 51.9893 112.866 51.7454 113.099 51.4401L113.864 52.0485C113.705 52.29 113.502 52.5202 113.256 52.7389C113.01 52.9577 112.707 53.1354 112.347 53.2721C111.991 53.4089 111.57 53.4772 111.082 53.4772ZM116.701 47.5231V53.3405H115.437V45.944H116.633L116.701 47.5231ZM116.4 49.362L115.874 49.3415C115.879 48.8356 115.954 48.3685 116.1 47.9401C116.245 47.5072 116.451 47.1312 116.715 46.8122C116.979 46.4932 117.294 46.2471 117.658 46.0739C118.027 45.8962 118.435 45.8073 118.882 45.8073C119.246 45.8073 119.575 45.8574 119.866 45.9577C120.158 46.0534 120.406 46.2083 120.611 46.4225C120.821 46.6367 120.98 46.9147 121.09 47.2565C121.199 47.5938 121.254 48.0062 121.254 48.4938V53.3405H119.982V48.4801C119.982 48.0928 119.925 47.7829 119.812 47.5505C119.698 47.3135 119.531 47.1426 119.312 47.0378C119.094 46.9284 118.825 46.8737 118.506 46.8737C118.191 46.8737 117.904 46.9398 117.645 47.0719C117.389 47.2041 117.168 47.3864 116.981 47.6188C116.799 47.8512 116.656 48.1178 116.551 48.4186C116.451 48.7148 116.4 49.0293 116.4 49.362ZM126.135 52.4382C126.436 52.4382 126.714 52.3766 126.969 52.2536C127.224 52.1305 127.434 51.9619 127.598 51.7477C127.762 51.529 127.855 51.2806 127.878 51.0026H129.081C129.058 51.4401 128.91 51.848 128.637 52.2262C128.368 52.5999 128.015 52.903 127.577 53.1354C127.14 53.3633 126.659 53.4772 126.135 53.4772C125.579 53.4772 125.093 53.3792 124.679 53.1833C124.269 52.9873 123.927 52.7184 123.653 52.3766C123.384 52.0348 123.182 51.6429 123.045 51.2009C122.913 50.7542 122.847 50.2826 122.847 49.7858V49.4987C122.847 49.002 122.913 48.5326 123.045 48.0905C123.182 47.6439 123.384 47.2497 123.653 46.9079C123.927 46.5661 124.269 46.2972 124.679 46.1012C125.093 45.9053 125.579 45.8073 126.135 45.8073C126.714 45.8073 127.219 45.9258 127.652 46.1628C128.085 46.3952 128.425 46.7142 128.671 47.1198C128.922 47.5208 129.058 47.9766 129.081 48.487H127.878C127.855 48.1816 127.769 47.9059 127.618 47.6598C127.472 47.4137 127.272 47.2178 127.017 47.0719C126.766 46.9216 126.472 46.8464 126.135 46.8464C125.747 46.8464 125.422 46.9238 125.157 47.0788C124.897 47.2292 124.69 47.4342 124.535 47.694C124.385 47.9492 124.275 48.2341 124.207 48.5485C124.143 48.8584 124.111 49.1751 124.111 49.4987V49.7858C124.111 50.1094 124.143 50.4284 124.207 50.7428C124.271 51.0573 124.378 51.3421 124.528 51.5973C124.683 51.8525 124.891 52.0576 125.15 52.2126C125.415 52.363 125.743 52.4382 126.135 52.4382ZM133.572 53.4772C133.057 53.4772 132.59 53.3906 132.171 53.2175C131.756 53.0397 131.398 52.7913 131.098 52.4723C130.801 52.1533 130.574 51.7751 130.414 51.3376C130.255 50.9001 130.175 50.4216 130.175 49.902V49.6149C130.175 49.0134 130.264 48.4779 130.441 48.0085C130.619 47.5345 130.861 47.1335 131.166 46.8053C131.471 46.4772 131.818 46.2288 132.205 46.0602C132.592 45.8916 132.993 45.8073 133.408 45.8073C133.937 45.8073 134.393 45.8984 134.775 46.0807C135.163 46.263 135.479 46.5182 135.726 46.8464C135.972 47.1699 136.154 47.5527 136.272 47.9948C136.391 48.4323 136.45 48.9108 136.45 49.4303V49.9977H130.927V48.9655H135.186V48.8698C135.167 48.5417 135.099 48.2227 134.98 47.9128C134.867 47.6029 134.684 47.3477 134.434 47.1471C134.183 46.9466 133.841 46.8464 133.408 46.8464C133.121 46.8464 132.857 46.9079 132.615 47.0309C132.374 47.1494 132.166 47.3272 131.993 47.5641C131.82 47.8011 131.686 48.0905 131.59 48.4323C131.494 48.7741 131.446 49.1683 131.446 49.6149V49.902C131.446 50.2529 131.494 50.5833 131.59 50.8932C131.69 51.1986 131.834 51.4675 132.021 51.6999C132.212 51.9323 132.442 52.1146 132.711 52.2467C132.984 52.3789 133.294 52.445 133.641 52.445C134.087 52.445 134.465 52.3538 134.775 52.1716C135.085 51.9893 135.356 51.7454 135.589 51.4401L136.354 52.0485C136.195 52.29 135.992 52.5202 135.746 52.7389C135.5 52.9577 135.197 53.1354 134.837 53.2721C134.481 53.4089 134.06 53.4772 133.572 53.4772Z" fill="#121C22"/>
<defs>
<linearGradient id="paint0_linear_71_1208" x1="153.865" y1="15.7481" x2="143.956" y2="15.7481" gradientUnits="userSpaceOnUse">
<stop stop-color="#EA5F32"/>
<stop offset="1" stop-color="#F68D3B"/>
</linearGradient>
<linearGradient id="paint1_linear_71_1208" x1="156.935" y1="15.5402" x2="166.844" y2="15.5402" gradientUnits="userSpaceOnUse">
<stop stop-color="#EA5F32"/>
<stop offset="1" stop-color="#F68D3B"/>
</linearGradient>
<linearGradient id="paint2_linear_71_1208" x1="135.84" y1="24.4885" x2="127.258" y2="28.2349" gradientUnits="userSpaceOnUse">
<stop stop-color="#EA5F32"/>
<stop offset="1" stop-color="#F68D3B"/>
</linearGradient>
<linearGradient id="paint3_linear_71_1208" x1="5.30328" y1="15.6622" x2="0" y2="15.6622" gradientUnits="userSpaceOnUse">
<stop stop-color="#EA5F32"/>
<stop offset="1" stop-color="#F68D3B"/>
</linearGradient>
<linearGradient id="paint4_linear_71_1208" x1="5.30328" y1="15.6622" x2="0" y2="15.6622" gradientUnits="userSpaceOnUse">
<stop stop-color="#EA5F32"/>
<stop offset="1" stop-color="#F68D3B"/>
</linearGradient>
<linearGradient id="paint5_linear_71_1208" x1="8.51316" y1="2.66812" x2="0" y2="2.66812" gradientUnits="userSpaceOnUse">
<stop stop-color="#EA5F32"/>
<stop offset="1" stop-color="#F68D3B"/>
</linearGradient>
<linearGradient id="paint6_linear_71_1208" x1="9.62964" y1="2.66812" x2="0" y2="2.66812" gradientUnits="userSpaceOnUse">
<stop stop-color="#EA5F32"/>
<stop offset="1" stop-color="#F68D3B"/>
</linearGradient>
<linearGradient id="paint7_linear_71_1208" x1="4.32636" y1="15.6622" x2="0" y2="15.6622" gradientUnits="userSpaceOnUse">
<stop stop-color="#EA5F32"/>
<stop offset="1" stop-color="#F68D3B"/>
</linearGradient>
<linearGradient id="paint8_linear_71_1208" x1="8.51316" y1="2.46022" x2="0" y2="2.46022" gradientUnits="userSpaceOnUse">
<stop stop-color="#EA5F32"/>
<stop offset="1" stop-color="#F68D3B"/>
</linearGradient>
<linearGradient id="paint9_linear_71_1208" x1="5.30328" y1="15.6622" x2="0" y2="15.6622" gradientUnits="userSpaceOnUse">
<stop stop-color="#EA5F32"/>
<stop offset="1" stop-color="#F68D3B"/>
</linearGradient>
<linearGradient id="paint10_linear_71_1208" x1="15.3516" y1="2.46022" x2="0" y2="2.46022" gradientUnits="userSpaceOnUse">
<stop stop-color="#EA5F32"/>
<stop offset="1" stop-color="#F68D3B"/>
</linearGradient>
<linearGradient id="paint11_linear_71_1208" x1="15.3516" y1="2.46022" x2="0" y2="2.46022" gradientUnits="userSpaceOnUse">
<stop stop-color="#EA5F32"/>
<stop offset="1" stop-color="#F68D3B"/>
</linearGradient>
<linearGradient id="paint12_linear_71_1208" x1="8.51316" y1="2.46022" x2="0" y2="2.46022" gradientUnits="userSpaceOnUse">
<stop stop-color="#EA5F32"/>
<stop offset="1" stop-color="#F68D3B"/>
</linearGradient>
<linearGradient id="paint13_linear_71_1208" x1="5.30328" y1="15.6622" x2="0" y2="15.6622" gradientUnits="userSpaceOnUse">
<stop stop-color="#EA5F32"/>
<stop offset="1" stop-color="#F68D3B"/>
</linearGradient>
<linearGradient id="paint14_linear_71_1208" x1="15.3516" y1="2.46022" x2="0" y2="2.46022" gradientUnits="userSpaceOnUse">
<stop stop-color="#EA5F32"/>
<stop offset="1" stop-color="#F68D3B"/>
</linearGradient>
<linearGradient id="paint15_linear_71_1208" x1="15.3516" y1="2.46022" x2="0" y2="2.46022" gradientUnits="userSpaceOnUse">
<stop stop-color="#EA5F32"/>
<stop offset="1" stop-color="#F68D3B"/>
</linearGradient>
<linearGradient id="paint16_linear_71_1208" x1="106.205" y1="22.8345" x2="92.9472" y2="22.8345" gradientUnits="userSpaceOnUse">
<stop stop-color="#EA5F32"/>
<stop offset="1" stop-color="#F68D3B"/>
</linearGradient>
<linearGradient id="paint17_linear_71_1208" x1="96.4712" y1="19.5079" x2="83.3875" y2="19.5079" gradientUnits="userSpaceOnUse">
<stop stop-color="#EA5F32"/>
<stop offset="1" stop-color="#F68D3B"/>
</linearGradient>
<linearGradient id="paint18_linear_71_1208" x1="114.963" y1="25.9006" x2="91.0265" y2="5.60739" gradientUnits="userSpaceOnUse">
<stop stop-color="#EA5F32"/>
<stop offset="1" stop-color="#F68D3B"/>
</linearGradient>
<linearGradient id="paint19_linear_71_1208" x1="5.30328" y1="15.6622" x2="0" y2="15.6622" gradientUnits="userSpaceOnUse">
<stop stop-color="#EA5F32"/>
<stop offset="1" stop-color="#F68D3B"/>
</linearGradient>
<linearGradient id="paint20_linear_71_1208" x1="193.045" y1="15.0566" x2="181.015" y2="12.5963" gradientUnits="userSpaceOnUse">
<stop stop-color="#EA5F32"/>
<stop offset="1" stop-color="#F68D3B"/>
</linearGradient>
<linearGradient id="paint21_linear_71_1208" x1="194" y1="37.8405" x2="0" y2="37.8405" gradientUnits="userSpaceOnUse">
<stop stop-color="#EA5F32"/>
<stop offset="1" stop-color="#F68D3B"/>
</linearGradient>
</defs>
</svg>
