<svg width="71" height="61" viewBox="0 0 71 61" fill="none" xmlns="http://www.w3.org/2000/svg">
<rect x="0.833984" width="56" height="57" rx="10" fill="#FFEFE4"/>
<path d="M25.834 44.375H33.0775C34.4023 44.375 35.0648 44.375 35.6881 44.5098C36.2409 44.6292 36.7692 44.8262 37.2539 45.0933C37.8005 45.3948 38.2689 45.8165 39.2057 46.6597L39.5456 46.9653C40.4824 47.8085 40.9508 48.2302 41.4974 48.5317C41.9821 48.7988 42.5105 48.9958 43.063 49.1152C43.6865 49.25 44.349 49.25 45.6739 49.25H49.3274C50.6523 49.25 51.3148 49.25 51.9383 49.1152C52.4908 48.9958 53.0192 48.7988 53.5039 48.5317C54.0505 48.2302 54.519 47.8085 55.4558 46.9653L55.7955 46.6597C56.7323 45.8165 57.2008 45.3948 57.7474 45.0933C58.2321 44.8262 58.7605 44.6292 59.313 44.5098C59.9365 44.375 60.599 44.375 61.9239 44.375H69.1673M47.4998 27.3125L50.3653 31.0754L55.227 32.3653L52.1362 35.9807L52.2754 40.5411L47.4998 39.0125L42.724 40.5411L42.8634 35.9807L39.7724 32.3653L44.6342 31.0754L47.4998 27.3125ZM34.5007 20H60.5006C63.5343 20 65.0512 20 66.2098 20.5314C67.229 20.9987 68.0577 21.7445 68.5769 22.6618C69.1673 23.7046 69.1673 25.0697 69.1673 27.8V51.2C69.1673 53.9302 69.1673 55.2955 68.5769 56.3383C68.0577 57.2555 67.229 58.0014 66.2098 58.4686C65.0512 59 63.5343 59 60.5006 59H34.5007C31.467 59 29.9502 59 28.7915 58.4686C27.7723 58.0014 26.9437 57.2555 26.4244 56.3383C25.834 55.2955 25.834 53.9302 25.834 51.2V27.8C25.834 25.0698 25.834 23.7046 26.4244 22.6618C26.9437 21.7445 27.7723 20.9987 28.7915 20.5314C29.9502 20 31.467 20 34.5007 20Z" stroke="#A34200" stroke-width="3" stroke-linecap="round" stroke-linejoin="round"/>
</svg>
