<svg width="120" height="49" viewBox="0 0 120 49" fill="none" xmlns="http://www.w3.org/2000/svg">
<path d="M39.8036 21.3969C39.8036 19.3497 37.8185 17.178 34.3769 17.178C30.5105 17.178 26.2697 20.0085 25.6133 25.6646C24.9508 31.3829 28.5109 33.9096 32.0881 33.9096C35.664 33.9096 37.5465 32.5163 39.4583 30.6485C37.8076 28.5695 35.6786 29.537 35.276 29.7396C34.8307 29.9628 34.2463 30.2715 33.0592 30.2715C31.6732 30.2715 30.2677 29.6444 30.2677 27.0713C39.1276 26.2221 39.8036 23.4453 39.8036 21.3969ZM35.4127 21.7398C35.3553 22.3705 35.0966 23.4624 30.6131 24.0627C31.5586 20.7051 33.3618 20.4563 34.195 20.4563C34.9759 20.4563 35.4736 21.0614 35.4127 21.7398ZM20.4062 22.2851C20.4062 22.2851 18.5006 28.2609 18.3529 28.7623C18.3017 28.2609 16.9072 17.527 16.9072 17.527C13.6618 17.527 11.9257 19.8329 11.0107 22.2827C11.0107 22.2827 8.69265 28.2755 8.50478 28.7769C8.49382 28.3072 8.14853 22.3449 8.14853 22.3449C7.9521 19.3485 5.2168 17.5343 3 17.5343L5.66578 33.7962C9.07088 33.7851 10.8936 31.4829 11.855 29.038C11.855 29.038 13.8937 23.7504 13.9779 23.5101C13.9986 23.7394 15.4444 33.7962 15.4444 33.7962C18.8519 33.7962 20.6905 31.6404 21.68 29.2833L26.4613 17.5343C23.094 17.5343 21.3212 19.8341 20.4062 22.2851ZM52.3186 17.1561C50.2239 17.1561 48.6097 18.2944 47.2507 19.9768L47.2531 19.9646L48.461 10.1934C45.6719 10.1934 43.3929 12.6213 42.9598 16.2228L40.8382 33.6693C42.4474 33.6693 44.1517 33.202 45.0716 32.0198C45.8952 33.0775 47.1189 33.9206 48.9306 33.9206C53.6339 33.9206 56.867 28.4536 56.867 23.3209C56.867 18.6372 54.5879 17.1561 52.3186 17.1561ZM51.8868 25.5378C51.3988 28.4073 49.8042 30.3422 48.2596 30.3422C46.7029 30.3422 46.0453 29.6541 46.0453 29.6541C46.3356 27.1458 46.5284 25.6073 47.0957 24.2823C47.6618 22.9574 49.0002 20.8431 50.4007 20.8431C51.7623 20.8431 52.3748 22.6695 51.8868 25.5378ZM68.6574 17.5356H65.3645L65.3803 17.3635C65.6048 15.2138 66.1197 14.0853 67.7863 13.912C68.9245 13.7949 69.4394 13.2032 69.559 12.5639C69.6529 12.0624 69.9713 10.2897 69.9713 10.2897C63.3661 10.2519 61.2957 13.1031 60.7674 17.4367L60.7552 17.5343L60.6905 17.5368C59.6181 17.5368 58.4408 18.7507 58.2346 20.2928L58.1627 20.8601H60.3587L58.5152 36.1215L57.9565 38.8641L58.1833 38.8715C61.2664 38.7543 63.2502 36.3228 63.6882 32.7823L65.1278 20.8601H66.16C67.1702 20.8601 68.3573 19.8475 68.5769 18.1553L68.6574 17.5356ZM85.7453 17.2525C81.951 17.2525 78.375 20.0451 77.2755 24.4385C76.1775 28.8306 77.847 34.017 83.4232 34.017C89.0017 34.017 92.2065 28.611 92.2065 24.1225C92.2065 19.6315 89.1713 17.2525 85.7453 17.2525ZM87.2835 25.4072C87.087 27.3995 86.2087 30.4093 83.808 30.4093C81.3968 30.4093 81.7395 26.8773 81.9727 25.201C82.2233 23.4039 83.2327 20.8601 85.3815 20.8601C87.3225 20.8601 87.5055 23.1574 87.2835 25.4072ZM110.944 22.2851C110.944 22.2851 109.038 28.2609 108.892 28.7623C108.839 28.2609 107.445 17.527 107.445 17.527C104.2 17.527 102.464 19.8329 101.548 22.2827C101.548 22.2827 99.2318 28.2755 99.0435 28.7769C99.0322 28.3072 98.6872 22.3449 98.6872 22.3449C98.4907 19.3485 95.754 17.5343 93.5385 17.5343L96.2032 33.7962C99.6082 33.7851 101.432 31.4829 102.394 29.038C102.394 29.038 104.432 23.7504 104.516 23.5101C104.537 23.7394 105.982 33.7962 105.982 33.7962C109.39 33.7962 111.228 31.6404 112.217 29.2833L117 17.5343C113.632 17.5343 111.859 19.8341 110.944 22.2851ZM71.7563 10.2897L68.9917 32.5871L68.9843 32.5834L68.4231 35.3407L68.6488 35.348C71.6257 35.3114 73.7376 32.6994 74.1353 29.4052L75.732 16.6071C76.2165 12.7091 73.8926 10.2897 71.7563 10.2897Z" fill="black"/>
</svg>
