<svg width="80" height="61" viewBox="0 0 80 61" fill="none" xmlns="http://www.w3.org/2000/svg">
<rect x="0.832031" width="56" height="57" rx="10" fill="#E0EDFF"/>
<path d="M51.832 33.9286V42.2857M51.832 50.6429H51.8609M52.0132 22.9605L51.6509 22.6109C50.6516 21.6473 50.1519 21.1655 49.5689 20.821C49.0518 20.5155 48.4881 20.2904 47.8988 20.1539C47.2338 20 46.5272 20 45.114 20H35.0765C31.8406 20 30.2227 20 28.9868 20.6073C27.8996 21.1414 27.0157 21.9937 26.4618 23.0421C25.832 24.2338 25.832 25.794 25.832 28.9143V50.0857C25.832 53.206 25.832 54.7663 26.4618 55.958C27.0157 57.0063 27.8996 57.8587 28.9868 58.3927C30.2227 59 31.8406 59 35.0765 59H68.5876C71.8234 59 73.4415 59 74.6774 58.3927C75.7645 57.8587 76.6485 57.0063 77.2023 55.958C77.832 54.7663 77.832 53.206 77.832 50.0857V34.4857C77.832 31.3654 77.832 29.8053 77.2023 28.6135C76.6485 27.5651 75.7645 26.7128 74.6774 26.1787C73.4415 25.5714 71.8234 25.5714 68.5876 25.5714H58.5501C57.1369 25.5714 56.4303 25.5714 55.7653 25.4175C55.1759 25.281 54.6123 25.0559 54.0952 24.7504C53.5122 24.4059 53.0124 23.9241 52.0132 22.9605Z" stroke="#0F3D7E" stroke-width="3" stroke-linecap="round" stroke-linejoin="round"/>
</svg>
