<svg width="79" height="59" viewBox="0 0 79 59" fill="none" xmlns="http://www.w3.org/2000/svg">
<rect x="0.666016" width="56" height="57" rx="10" fill="#FFF3E3"/>
<path d="M75.0505 20.0022H29.2815C28.8025 19.9852 28.3251 20.0681 27.8791 20.2458C27.4331 20.4235 27.028 20.6921 26.6891 21.0351C26.3501 21.378 26.0846 21.7879 25.9089 22.2391C25.7333 22.6903 25.6513 23.1733 25.6682 23.658V55.342C25.6513 55.8267 25.7333 56.3097 25.9089 56.7609C26.0846 57.2122 26.3501 57.622 26.6891 57.9649C27.028 58.3079 27.4331 58.5765 27.8791 58.7542C28.3251 58.9319 28.8025 59.0148 29.2815 58.9978H75.0505C75.5296 59.0148 76.0069 58.9319 76.4529 58.7542C76.8989 58.5765 77.304 58.3079 77.643 57.9649C77.9819 57.622 78.2475 57.2122 78.4231 56.7609C78.5987 56.3097 78.6807 55.8267 78.6639 55.342V23.658C78.6807 23.1733 78.5987 22.6903 78.4231 22.2391C78.2475 21.7879 77.9819 21.378 77.643 21.0351C77.304 20.6921 76.8989 20.4235 76.4529 20.2458C76.0069 20.0681 75.5296 19.9852 75.0505 20.0022ZM75.0505 55.342H52.7682L29.2815 55.342V39.5V23.658L52.166 23.658H75.0505V38.8907V55.342Z" fill="#FF9200"/>
<path d="M60.116 45.471H63.0067L63.368 45.2273C63.7294 44.3743 63.8498 43.765 63.9703 43.6431H68.0654C68.2427 44.1562 68.3639 44.6874 68.4267 45.2273L68.7881 45.471H71.0765C71.1969 45.471 71.3174 45.471 71.3174 45.3492C71.361 45.2997 71.3941 45.2418 71.4148 45.1789C71.4355 45.1161 71.4434 45.0496 71.4378 44.9836L68.9085 33.6505C68.9085 33.4067 68.7881 33.2849 68.6676 33.2849H66.3792C66.0191 33.2611 65.661 33.3548 65.3575 33.5522C65.054 33.7496 64.821 34.0403 64.6929 34.3816L60.116 44.9836C59.9956 45.2273 60.116 45.3492 60.116 45.471ZM66.62 36.697L66.8609 37.7937L67.5836 41.3277H64.9338L66.62 36.697Z" fill="#FF9200"/>
<path d="M51.3229 44.9833C52.3355 45.3259 53.3886 45.5308 54.4545 45.5926C57.8269 45.5926 59.8745 44.0084 59.9949 41.5712C60.1154 39.1339 59.1518 39.1339 57.3452 38.4028C55.5385 37.6716 55.5385 37.4279 55.5385 36.9404C55.5385 36.453 56.1407 35.8437 57.3452 35.8437H57.4656C58.1796 35.8109 58.8885 35.9797 59.5132 36.3311H59.8745C59.9949 36.3311 59.9949 36.2093 59.9949 36.0874L60.3563 34.3813C60.3563 34.2868 60.3345 34.1935 60.2927 34.1089C60.2509 34.0243 60.1902 33.9507 60.1154 33.8939C59.2884 33.6769 58.44 33.5543 57.586 33.5283C54.4545 33.5283 52.2865 35.1125 52.2865 37.4279C52.2865 39.7432 53.8523 40.1088 55.0567 40.5963C56.2612 41.0837 56.6225 41.5712 56.6225 42.0586C56.6225 42.5461 55.6589 43.2772 54.8158 43.2772C53.82 43.2887 52.8336 43.0808 51.9251 42.6679C51.9025 42.642 51.8747 42.6212 51.8436 42.607C51.8124 42.5928 51.7787 42.5854 51.7445 42.5854C51.7103 42.5854 51.6765 42.5928 51.6454 42.607C51.6142 42.6212 51.5864 42.642 51.5638 42.6679C51.4434 42.6679 51.4434 42.7898 51.3229 42.9116L51.082 44.7396C51.082 44.7396 51.082 44.9833 51.3229 44.9833Z" fill="#FF9200"/>
<path d="M33.1354 34.1382C35.0858 34.8059 36.8018 36.0339 38.0737 37.6722H38.435C38.6759 37.5503 38.6759 37.4285 38.6759 37.1848L38.0737 34.2601C37.9892 33.9487 37.7965 33.6787 37.5309 33.4995C37.2654 33.3204 36.9449 33.2443 36.6283 33.2852H33.2559C33.16 33.2852 33.0681 33.3237 33.0004 33.3923C32.9326 33.4608 32.8945 33.5538 32.8945 33.6508L33.1354 34.1382Z" fill="#FF9200"/>
<path d="M45.6621 45.4715H48.5528C48.6732 45.4715 48.7937 45.3496 48.7937 45.1059L50.7208 33.7728V33.4072H47.9506C47.8547 33.4072 47.7628 33.4457 47.6951 33.5143C47.6273 33.5829 47.5892 33.6759 47.5892 33.7728L45.6621 45.1059V45.4715Z" fill="#FF9200"/>
<path d="M35.6647 36.0882H35.3034C35.1829 36.0882 35.0625 36.3319 35.0625 36.4538L37.5918 45.3496L37.9532 45.5934H40.9643C41.0282 45.5934 41.0895 45.5677 41.1346 45.522C41.1798 45.4763 41.2052 45.4143 41.2052 45.3496L46.023 33.8947C46.1434 33.8947 46.1434 33.651 46.023 33.651C45.9025 33.651 45.9025 33.4072 45.7821 33.4072H43.1323C42.8914 33.4072 42.771 33.5291 42.771 33.651L39.6394 41.6938L39.2781 40.4752C38.4265 38.7489 37.1894 37.247 35.6647 36.0882Z" fill="#FF9200"/>
</svg>
