<svg width="1440" height="654" viewBox="0 0 1440 654" fill="none" xmlns="http://www.w3.org/2000/svg">
<g clip-path="url(#clip0_3610_10835)">
<path d="M-246 155H1674V671.5L1380.56 574.706C1266.84 537.193 1144.1 537.019 1030.27 574.209V574.209C765.7 660.652 482.23 671.415 211.863 605.283L-30.5 546L-219.5 511.959L-246 155Z" fill="#105C50"/>
<path d="M1554 -135H-388V561L-296.674 504.236C-122.211 395.8 85.7507 354.556 288.392 388.204L735.546 462.452C989.087 504.551 1248.01 429.09 1439.24 257.371L1554 154.319L1554 -135Z" fill="#AAF7ED" fill-opacity="0.41"/>
<path d="M1732 -456H-188V259.931V259.931C55.8652 551.286 475.938 620.914 800.764 423.82L869.957 381.836C1042.6 277.082 1247.03 237.55 1446.28 270.387L1732 317.475V-456Z" fill="#B2EED2"/>
</g>
<defs>
<clipPath id="clip0_3610_10835">
<rect width="1440" height="654" fill="white"/>
</clipPath>
</defs>
</svg>
