<svg width="200" height="42" viewBox="0 0 200 42" fill="none" xmlns="http://www.w3.org/2000/svg">
<path d="M2.98338 5.95927C3.77811 5.95927 4.52742 5.64895 5.09004 5.08633C5.39784 4.77853 5.62238 4.41775 5.76619 4.03427C5.90747 3.65835 6.26825 3.40857 6.6694 3.40857H6.68958C7.10082 3.40857 7.47422 3.64574 7.62812 4.02166C7.75931 4.33955 7.95105 4.6322 8.20335 4.88197C8.71298 5.39161 9.38913 5.67165 10.1082 5.67165C10.8272 5.67165 11.5034 5.39161 12.013 4.88197C12.2148 4.68014 12.3813 4.44803 12.505 4.20078C12.7421 3.73151 13.1937 3.40857 13.7185 3.40857H13.9203C14.4047 3.40857 14.874 3.65331 15.0935 4.08473C15.2045 4.29918 15.3483 4.50101 15.5275 4.68014C15.9816 5.13427 16.5871 5.38656 17.2304 5.38656C17.8738 5.38656 18.4793 5.13679 18.9334 4.68014C19.0545 4.55904 19.158 4.43037 19.2463 4.29413C19.6222 3.71638 20.2983 3.40857 20.9871 3.40857H21.0048C21.6759 3.40857 22.2713 3.76179 22.6825 4.28909C22.7355 4.35468 22.791 4.42027 22.8516 4.48083C23.2527 4.88197 23.785 5.10147 24.3527 5.10147C24.9204 5.10147 25.4527 4.87946 25.8539 4.47831C25.9144 4.41776 25.9699 4.35468 26.0229 4.28909C26.4846 3.70124 27.2314 3.40857 27.9807 3.40857H28.2532C28.9874 3.40857 29.6559 3.74918 30.1706 4.27142C30.1731 4.27395 30.1757 4.27647 30.1782 4.27899C30.5263 4.62716 30.9881 4.81638 31.4775 4.81638C31.9695 4.81638 32.4312 4.62464 32.7768 4.27899C33.125 3.93083 33.3142 3.46913 33.3142 2.97968C33.3142 2.4877 33.1225 2.026 32.7768 1.68036C32.4286 1.33219 31.967 1.14298 31.4775 1.14298C30.9855 1.14298 30.5238 1.33471 30.1782 1.68036C30.1757 1.68288 30.1731 1.68541 30.1706 1.68793C29.6559 2.21018 28.9848 2.55078 28.2532 2.55078H27.9807C27.2314 2.55078 26.4846 2.25812 26.0229 1.67027C25.9699 1.60467 25.9144 1.5416 25.8539 1.47852C25.4527 1.07738 24.9204 0.857883 24.3527 0.857883C23.785 0.857883 23.2527 1.0799 22.8516 1.47852C22.791 1.53908 22.733 1.60467 22.6825 1.67027C22.2688 2.19757 21.6733 2.55078 21.0048 2.55078H20.9871C20.2983 2.55078 19.6222 2.24045 19.2463 1.66522C19.158 1.52898 19.052 1.39779 18.9334 1.27921C18.4793 0.82508 17.8738 0.572789 17.2304 0.572789C16.5871 0.572789 15.9816 0.822557 15.5275 1.27921C15.3483 1.45834 15.202 1.66018 15.0935 1.87463C14.8715 2.30605 14.4047 2.55078 13.9203 2.55078H13.7185C13.1912 2.55078 12.7396 2.22784 12.5024 1.75858C12.3763 1.5088 12.2123 1.27921 12.0105 1.07738C11.5008 0.567743 10.8247 0.287695 10.1056 0.287695C9.38661 0.287695 8.71046 0.567743 8.20083 1.07738C7.94853 1.32967 7.75426 1.62486 7.62307 1.94527C7.47169 2.31614 7.10082 2.5533 6.69715 2.5533H6.69463C6.27582 2.5533 5.90242 2.29343 5.75105 1.90238C5.60724 1.52898 5.38522 1.17829 5.08499 0.878063C4.52238 0.315447 3.77306 0.00512695 2.97834 0.00512695C2.02971 0.00512695 1.15172 0.444118 0.571447 1.22623C-0.190482 2.25559 -0.190482 3.71133 0.571447 4.74069C1.15677 5.51775 2.03728 5.95927 2.98338 5.95927Z" fill="#3FE0D0"/>
<path d="M2.98338 13.084C3.77811 13.084 4.52742 12.7737 5.09004 12.211C5.39784 11.9032 5.62238 11.5425 5.76618 11.159C5.90747 10.7831 6.26825 10.5333 6.6694 10.5333H6.68958C7.10082 10.5333 7.47422 10.7704 7.62812 11.1464C7.75931 11.4643 7.95105 11.7569 8.20335 12.0067C8.71298 12.5163 9.38913 12.7964 10.1082 12.7964C10.8272 12.7964 11.5034 12.5163 12.013 12.0067C12.2148 11.8049 12.3813 11.5727 12.505 11.3255C12.7421 10.8562 13.1937 10.5333 13.7185 10.5333H13.9052C14.3972 10.5333 14.8715 10.7805 15.0986 11.217C15.2096 11.4315 15.3534 11.6308 15.53 11.8049C15.9841 12.259 16.5896 12.5113 17.233 12.5113C17.8763 12.5113 18.4818 12.2615 18.936 11.8049C19.052 11.6888 19.1554 11.5601 19.2463 11.4239C19.6272 10.8411 20.311 10.5308 21.0048 10.5308H21.0098C21.6809 10.5308 22.2763 10.884 22.6876 11.4113C22.7405 11.4769 22.7961 11.5425 22.8566 11.603C23.2577 12.0042 23.7901 12.2237 24.3578 12.2237C24.9254 12.2237 25.4578 12.0016 25.8589 11.603C25.9195 11.5425 25.975 11.4794 26.0279 11.4113C26.4896 10.8234 27.2364 10.5308 27.9857 10.5308H28.2582C28.9924 10.5308 29.661 10.8714 30.1757 11.3936C30.1782 11.3961 30.1807 11.3987 30.1832 11.4012C30.5314 11.7494 30.9931 11.9386 31.4825 11.9386C32.1057 11.9386 32.6809 11.6308 33.0367 11.0858C33.4202 10.498 33.4202 9.70576 33.0392 9.11539C32.6835 8.57044 32.1082 8.26012 31.4825 8.26012C30.9906 8.26012 30.5289 8.45186 30.1832 8.79751C30.1807 8.80003 30.1782 8.80255 30.1757 8.80508C29.661 9.32732 28.9899 9.66792 28.2582 9.66792H27.9883C27.239 9.66792 26.4922 9.37526 26.0305 8.78741C25.9775 8.72182 25.922 8.65874 25.8614 8.59567C25.4603 8.19452 24.9279 7.97502 24.3603 7.97502C23.7926 7.97502 23.2603 8.19704 22.8591 8.59567C22.7986 8.65622 22.7405 8.72182 22.6901 8.78741C22.2763 9.31471 21.6809 9.66792 21.0123 9.66792H21.0098C20.3135 9.66792 19.6298 9.3576 19.2488 8.7748C19.1605 8.63856 19.0571 8.51241 18.9385 8.39383C18.4843 7.9397 17.8788 7.68741 17.2355 7.68741C16.5921 7.68741 15.9866 7.93718 15.5325 8.39383C15.3559 8.57044 15.2121 8.76723 15.1011 8.98168C14.874 9.41815 14.3997 9.6654 13.9077 9.6654H13.7235C13.1963 9.6654 12.7446 9.34246 12.51 8.87319C12.3839 8.62342 12.2199 8.39384 12.018 8.192C11.5084 7.68237 10.8323 7.40232 10.1132 7.40232C9.39418 7.40232 8.71803 7.68237 8.2084 8.192C7.9561 8.4443 7.76183 8.73947 7.63064 9.05989C7.47926 9.43076 7.10839 9.66792 6.70472 9.66792H6.7022C6.28339 9.66792 5.90999 9.40806 5.75862 9.017C5.61481 8.64361 5.39279 8.29292 5.09256 7.99269C4.52994 7.43007 3.78063 7.11975 2.9859 7.11975C2.03728 7.11975 1.15929 7.55874 0.579015 8.34085C-0.182914 9.37022 -0.182914 10.826 0.579015 11.8553C1.15677 12.645 2.03728 13.084 2.98338 13.084Z" fill="#3FE0D0"/>
<path d="M2.98342 20.2088C3.77815 20.2088 4.52746 19.8985 5.09008 19.3358C5.38779 19.0381 5.61233 18.6874 5.75866 18.3065C5.90751 17.9154 6.28091 17.6581 6.69972 17.6581C7.10087 17.6581 7.47174 17.8927 7.62564 18.2636C7.75683 18.584 7.9511 18.8792 8.20339 19.1315C8.71303 19.6411 9.38917 19.9212 10.1082 19.9212C10.8273 19.9212 11.5034 19.6411 12.013 19.1315C12.2149 18.9296 12.3814 18.6975 12.505 18.4503C12.7422 17.981 13.1938 17.6581 13.7185 17.6581H13.9052C14.3972 17.6581 14.8715 17.9053 15.0986 18.3418C15.2096 18.5563 15.3534 18.7556 15.53 18.9296C15.9841 19.3838 16.5897 19.6361 17.233 19.6361C17.8764 19.6361 18.4819 19.3863 18.936 18.9296C19.052 18.8136 19.1555 18.6849 19.2463 18.5487C19.6273 17.9684 20.311 17.6556 21.0048 17.6556H21.0098C21.681 17.6556 22.2764 18.0088 22.6876 18.5361C22.7406 18.6017 22.7961 18.6673 22.8566 18.7278C23.2578 19.129 23.7901 19.3485 24.3578 19.3485C24.9255 19.3485 25.4578 19.1264 25.8589 18.7278C25.9195 18.6673 25.975 18.6042 26.028 18.5361C26.4897 17.9482 27.2365 17.6556 27.9858 17.6556H28.2583C28.9924 17.6556 29.661 17.9962 30.1757 18.5159C30.1782 18.5184 30.1807 18.5209 30.1833 18.5234C30.5314 18.8716 30.9931 19.0608 31.4826 19.0608C32.1058 19.0608 32.681 18.753 33.0367 18.2081C33.4202 17.6202 33.4202 16.828 33.0392 16.2377C32.6835 15.6927 32.1083 15.3824 31.4826 15.3824C30.9906 15.3824 30.5289 15.5741 30.1833 15.9198C30.1807 15.9223 30.1782 15.9248 30.1757 15.9273C29.661 16.4496 28.9899 16.7902 28.2583 16.7902H27.9883C27.239 16.7902 26.4922 16.4975 26.0305 15.9097C25.9775 15.8441 25.922 15.781 25.8615 15.7179C25.4603 15.3168 24.928 15.0973 24.3603 15.0973C23.7927 15.0973 23.2603 15.3193 22.8592 15.7179C22.7986 15.7785 22.7406 15.8441 22.6901 15.9097C22.2764 16.437 21.681 16.7902 21.0124 16.7902H21.0098C20.3135 16.7902 19.6323 16.4799 19.2488 15.8971C19.1605 15.7608 19.0571 15.6347 18.941 15.5161C18.4869 15.062 17.8814 14.8097 17.238 14.8097C16.5947 14.8097 15.9892 15.0595 15.5351 15.5161C15.3585 15.6927 15.2147 15.8895 15.1036 16.104C14.8766 16.5404 14.4023 16.7877 13.9103 16.7877H13.7261C13.1988 16.7877 12.7472 16.4647 12.5101 15.9929C12.3839 15.7432 12.2199 15.5136 12.0181 15.3117C11.5084 14.8021 10.8323 14.5221 10.1133 14.5221C9.39422 14.5221 8.71807 14.8021 8.20844 15.3117C7.95614 15.564 7.76187 15.8592 7.63068 16.1796C7.47931 16.5505 7.10843 16.7877 6.70476 16.7877C6.28595 16.7877 5.91256 16.5303 5.76371 16.1393C5.61737 15.7583 5.39283 15.4076 5.0926 15.1099C4.52999 14.5473 3.78067 14.237 2.98595 14.237C2.19122 14.237 1.4419 14.5473 0.879288 15.1099C0.316671 15.6725 0.00634766 16.4218 0.00634766 17.2166C0.00634766 18.0113 0.316671 18.7606 0.879288 19.3232C1.43938 19.8984 2.18869 20.2088 2.98342 20.2088Z" fill="#3FE0D0"/>
<path d="M31.485 22.5173C30.9931 22.5173 30.5313 22.709 30.1857 23.0547C30.1832 23.0572 30.1807 23.0597 30.1781 23.0622C29.6635 23.5845 28.9924 23.9251 28.2607 23.9251H27.9908C27.2414 23.9251 26.4946 23.6324 26.0329 23.0446C25.98 22.979 25.9245 22.9159 25.8639 22.8528C25.4628 22.4517 24.9304 22.2322 24.3628 22.2322C23.7951 22.2322 23.2628 22.4542 22.8616 22.8528C22.8011 22.9134 22.743 22.979 22.6926 23.0446C22.2788 23.5718 21.6834 23.9251 21.0148 23.9251H20.9972C20.3084 23.9251 19.6322 23.6147 19.2563 23.037C19.168 22.9008 19.0621 22.7696 18.9435 22.651C18.4893 22.1968 17.8838 21.9471 17.2405 21.9471C16.5971 21.9471 15.9916 22.1968 15.5375 22.6535C15.3584 22.8326 15.212 23.0345 15.1036 23.2489C14.8815 23.6803 14.4123 23.9251 13.9304 23.9251H13.7311C13.2038 23.9251 12.7522 23.6021 12.515 23.1303C12.3889 22.8806 12.2249 22.651 12.023 22.4491C11.5134 21.9395 10.8373 21.6595 10.1182 21.6595C9.39918 21.6595 8.72303 21.9395 8.2134 22.4491C7.95858 22.704 7.76684 22.9991 7.63817 23.3145C7.48427 23.6879 7.11592 23.9251 6.71225 23.9251H6.70972C6.29092 23.9251 5.91752 23.6652 5.76614 23.2742C5.62234 22.9008 5.40032 22.5501 5.10009 22.2498C4.53747 21.6872 3.78816 21.3769 2.99343 21.3769C2.0448 21.3769 1.1643 21.8159 0.58402 22.6005C-0.177909 23.6299 -0.177909 25.0856 0.58402 26.115C1.1643 26.8971 2.0448 27.3361 2.99091 27.3361C3.78563 27.3361 4.53495 27.0258 5.09756 26.4632C5.40536 26.1554 5.6299 25.7971 5.77371 25.4136C5.915 25.0352 6.27578 24.7879 6.67945 24.7879H6.69964C7.11087 24.7879 7.48427 25.0276 7.64069 25.406C7.76936 25.7189 7.95858 26.009 8.2134 26.2638C8.72303 26.7735 9.39918 27.0535 10.1182 27.0535C10.8373 27.0535 11.5159 26.7735 12.023 26.2638C12.2249 26.062 12.3914 25.8324 12.515 25.5826C12.7522 25.1134 13.2038 24.7904 13.7286 24.7904H13.9304C14.4148 24.7904 14.8841 25.0352 15.1036 25.4666C15.2146 25.681 15.3584 25.8829 15.5375 26.062C15.9916 26.5161 16.5971 26.7684 17.2405 26.7684C17.8838 26.7684 18.4893 26.5187 18.9435 26.062C19.0646 25.9409 19.168 25.8122 19.2563 25.676C19.6322 25.0982 20.3084 24.7904 20.9972 24.7904H21.0173C21.6884 24.7904 22.2839 25.1437 22.6951 25.6709C22.7481 25.7365 22.8036 25.8021 22.8641 25.8627C23.2653 26.2638 23.7976 26.4833 24.3653 26.4833C24.9329 26.4833 25.4653 26.2613 25.8664 25.8627C25.927 25.8021 25.9825 25.7391 26.0355 25.6709C26.4972 25.0831 27.244 24.7904 27.9933 24.7904H28.2658C28.9999 24.7904 29.6685 25.131 30.1832 25.6533C30.1857 25.6558 30.1882 25.6583 30.1908 25.6608C30.5389 26.009 31.0006 26.1982 31.4901 26.1982C31.982 26.1982 32.4437 26.0065 32.7894 25.6608C33.1376 25.3127 33.3268 24.851 33.3268 24.3615C33.3268 23.8696 33.135 23.4079 32.7894 23.0622C32.4387 22.709 31.977 22.5173 31.485 22.5173Z" fill="#3FE0D0"/>
<path d="M24.3603 29.357C23.7926 29.357 23.2603 29.579 22.8591 29.9776C22.7986 30.0382 22.7406 30.1038 22.6901 30.1694C22.2764 30.6967 21.6809 31.0499 21.0124 31.0499H20.9947C20.3059 31.0499 19.6298 30.7395 19.2539 30.1618C19.1656 30.0255 19.0596 29.8943 18.941 29.7758C18.4869 29.3216 17.8814 29.0719 17.238 29.0719C16.5947 29.0719 15.9892 29.3216 15.535 29.7758C15.3559 29.9549 15.2096 30.1567 15.1011 30.3737C14.8791 30.8051 14.4123 31.0499 13.9279 31.0499H13.7261C13.1988 31.0499 12.7472 30.7269 12.5126 30.2577C12.3864 30.0079 12.2224 29.7783 12.0206 29.5765C11.511 29.0668 10.8348 28.7868 10.1158 28.7868C9.39673 28.7868 8.72058 29.0668 8.21094 29.5765C7.70131 30.0861 7.42126 30.7622 7.42126 31.4813C7.42126 32.2003 7.70131 32.8765 8.21094 33.3861C8.72058 33.8957 9.39673 34.1758 10.1158 34.1758C10.8348 34.1758 11.511 33.8957 12.0206 33.3861C12.2224 33.1843 12.3889 32.9547 12.5126 32.7049C12.7497 32.2356 13.2013 31.9127 13.7261 31.9127H13.9279C14.4123 31.9127 14.8816 32.1574 15.1011 32.5889C15.2121 32.8033 15.3559 33.0051 15.535 33.1843C15.9892 33.6384 16.5947 33.8907 17.238 33.8907C17.8814 33.8907 18.4869 33.6409 18.941 33.1843C19.0621 33.0632 19.1656 32.9345 19.2539 32.7983C19.6298 32.2205 20.3059 31.9127 20.9947 31.9127H21.0149C21.686 31.9127 22.2814 32.2659 22.6926 32.7932C22.7431 32.8588 22.8011 32.9219 22.8617 32.9824C23.2628 33.3836 23.7952 33.6056 24.3628 33.6056C25.0617 33.6056 25.7076 33.27 26.1188 32.6797C26.6133 31.9657 26.6108 30.9843 26.1112 30.2728C25.6949 29.6875 25.0541 29.357 24.3603 29.357Z" fill="#3FE0D0"/>
<path d="M17.2355 36.1967C16.5922 36.1967 15.9866 36.4464 15.5325 36.9031C14.594 37.8416 14.594 39.3705 15.5325 40.309C15.9866 40.7632 16.5922 41.013 17.2355 41.013C17.8789 41.013 18.4844 40.7632 18.9385 40.309C19.877 39.3705 19.877 37.8416 18.9385 36.9031C18.4844 36.4464 17.8789 36.1967 17.2355 36.1967Z" fill="#3FE0D0"/>
<path d="M49.8294 28.7691V41.0129H43.797V-3.05176e-05H57.9103C70.9388 -3.05176e-05 73.8957 5.72956 73.8957 14.3555C73.8957 22.9814 70.9413 28.7716 57.9103 28.7716H49.8294V28.7691ZM49.8294 5.42681V23.3422H57.9129C66.115 23.3422 67.8659 20.9908 67.8659 14.3555C67.8659 7.53851 66.1175 5.42934 57.9129 5.42934H49.8294V5.42681Z" fill="#3FE0D0"/>
<path d="M114.873 -3.05176e-05L101.966 41.0155H92.4368L79.5294 -3.05176e-05H85.862L96.7182 35.4069H97.6845L108.541 -3.05176e-05H114.873Z" fill="#3FE0D0"/>
<path d="M128.601 14.9585V41.0155H122.568V-3.05176e-05H128.601L144.223 32.3315H145.189L160.811 -3.05176e-05H166.843V41.0155H160.811V14.9585H159.845L149.049 37.6372H140.363L129.567 14.9585H128.601Z" fill="#3FE0D0"/>
<path d="M200 35.5861V41.0155H177.2V-3.05176e-05H183.233V35.5861H200Z" fill="#3FE0D0"/>
</svg>
