<svg width="32" height="32" viewBox="0 0 32 32" fill="none" xmlns="http://www.w3.org/2000/svg"><rect x="0.5" y="0.5" width="31" height="31" rx="15.5" stroke="#4E9DDB"/><path d="M15.9999 6.50627C15.4091 6.49214 14.8215 6.5963 14.2716 6.81262C13.7216 7.02895 13.2205 7.35306 12.7977 7.7659C12.3749 8.17874 12.0389 8.67196 11.8095 9.21657C11.58 9.76117 11.4619 10.3462 11.4619 10.9371C11.4619 11.5281 11.58 12.113 11.8095 12.6576C12.0389 13.2022 12.3749 13.6955 12.7977 14.1083C13.2205 14.5211 13.7216 14.8453 14.2716 15.0616C14.8215 15.2779 15.4091 15.3821 15.9999 15.3679C16.5907 15.3821 17.1783 15.2779 17.7283 15.0616C18.2782 14.8453 18.7793 14.5211 19.2022 14.1083C19.625 13.6955 19.961 13.2022 20.1904 12.6576C20.4198 12.113 20.538 11.5281 20.538 10.9371C20.538 10.3462 20.4198 9.76117 20.1904 9.21657C19.961 8.67196 19.625 8.17874 19.2022 7.7659C18.7793 7.35306 18.2782 7.02895 17.7283 6.81262C17.1783 6.5963 16.5907 6.49214 15.9999 6.50627ZM13.4666 17.8988C12.2908 17.8988 11.1631 18.3658 10.3317 19.1973C9.50029 20.0287 9.0332 21.1563 9.0332 22.3321V25.495H22.9666V22.3321C22.9666 21.1563 22.4995 20.0287 21.6681 19.1973C20.8367 18.3658 19.7091 17.8988 18.5333 17.8988H13.4666Z" fill="#4E9DDB"/></svg>