<svg width="22" height="22" viewBox="0 0 22 22" fill="none" xmlns="http://www.w3.org/2000/svg">
<path d="M2.33073 2.16543H7.19202L8.75867 6.0827L6.24141 7.7609C6.09317 7.85981 5.97164 7.99377 5.88759 8.15092C5.80355 8.30806 5.75959 8.48352 5.75961 8.66172C5.76286 8.7635 5.75961 8.66281 5.75961 8.66281V8.68554C5.76026 8.73396 5.76242 8.78234 5.76611 8.83063C5.77261 8.91941 5.78343 9.03959 5.804 9.18792C5.84623 9.48026 5.92743 9.88303 6.08551 10.3573C6.40382 11.31 7.02745 12.5433 8.24223 13.7581C9.45701 14.9729 10.6902 15.5965 11.6419 15.9148C12.1172 16.0729 12.5189 16.153 12.8134 16.1963C12.9796 16.2195 13.1469 16.234 13.3146 16.2396L13.3287 16.2407H13.3374C13.3374 16.2407 13.4586 16.2342 13.3385 16.2407C13.5395 16.2406 13.7365 16.1846 13.9074 16.0788C14.0784 15.9731 14.2165 15.8218 14.3064 15.642L15.0318 14.1911L19.8346 14.9924V19.6697C17.5491 19.9999 11.3755 20.3258 6.52508 15.4752C1.67462 10.6247 1.99942 4.44996 2.33073 2.16543ZM8.00404 9.18792L9.96046 7.88433C10.3738 7.60864 10.6797 7.19921 10.827 6.72471C10.9742 6.2502 10.9538 5.73949 10.7692 5.27824L9.20258 1.36097C9.04181 0.959183 8.76434 0.614782 8.40597 0.372196C8.0476 0.129611 7.62477 -2.90097e-05 7.19202 4.86921e-09H2.27443C1.29026 4.86921e-09 0.364558 0.683194 0.203237 1.75075C-0.164879 4.1782 -0.664 11.3479 4.99415 17.0062C10.6523 22.6645 17.8219 22.1643 20.2493 21.7972C21.3168 21.6348 22 20.7102 22 19.726V14.9924C22.0001 14.4798 21.8183 13.9838 21.487 13.5926C21.1557 13.2014 20.6964 12.9405 20.1908 12.8562L15.388 12.056C14.9312 11.9798 14.462 12.052 14.0493 12.2621C13.6365 12.4721 13.302 12.809 13.0949 13.2232L12.7202 13.9735C12.5878 13.9409 12.4567 13.903 12.3272 13.8598C11.656 13.6368 10.7238 13.1777 9.77316 12.2271C8.82255 11.2765 8.36349 10.3443 8.14046 9.6719C8.0872 9.51296 8.04203 9.35143 8.00512 9.18792H8.00404Z" fill="#4E9DDB"/>
</svg>
