<svg width="21" height="21" viewBox="0 0 21 21" fill="none" xmlns="http://www.w3.org/2000/svg">
<path d="M2.83338 2H7.32338L8.77038 5.618L6.44538 7.168C6.30846 7.25935 6.19621 7.38308 6.11858 7.52822C6.04096 7.67335 6.00035 7.83541 6.00038 8C6.00338 8.094 6.00038 8.001 6.00038 8.001V8.022C6.00097 8.06672 6.00297 8.11141 6.00638 8.156C6.01238 8.238 6.02238 8.349 6.04138 8.486C6.08038 8.756 6.15538 9.128 6.30138 9.566C6.59538 10.446 7.17138 11.585 8.29338 12.707C9.41538 13.829 10.5544 14.405 11.4334 14.699C11.8724 14.845 12.2434 14.919 12.5154 14.959C12.6689 14.9804 12.8235 14.9938 12.9784 14.999L12.9914 15H12.9994C12.9994 15 13.1114 14.994 13.0004 15C13.186 14.9999 13.368 14.9481 13.5259 14.8504C13.6838 14.7528 13.8114 14.6131 13.8944 14.447L14.5644 13.107L19.0004 13.847V18.167C16.8894 18.472 11.1874 18.773 6.70738 14.293C2.22738 9.813 2.52738 4.11 2.83338 2ZM8.07338 8.486L9.88038 7.282C10.2621 7.02737 10.5447 6.64922 10.6807 6.21096C10.8167 5.77271 10.7979 5.30102 10.6274 4.875L9.18038 1.257C9.03189 0.885905 8.77562 0.567815 8.44462 0.343762C8.11362 0.119709 7.72308 -2.67934e-05 7.32338 4.49722e-09H2.78138C1.87238 4.49722e-09 1.01738 0.631 0.868378 1.617C0.528378 3.859 0.0673785 10.481 5.29338 15.707C10.5194 20.933 17.1414 20.471 19.3834 20.132C20.3694 19.982 21.0004 19.128 21.0004 18.219V13.847C21.0004 13.3736 20.8325 12.9155 20.5266 12.5542C20.2206 12.1929 19.7964 11.9519 19.3294 11.874L14.8934 11.135C14.4715 11.0646 14.0381 11.1313 13.6569 11.3253C13.2757 11.5193 12.9667 11.8304 12.7754 12.213L12.4294 12.906C12.307 12.8759 12.1859 12.8408 12.0664 12.801C11.4464 12.595 10.5854 12.171 9.70738 11.293C8.82938 10.415 8.40538 9.554 8.19938 8.933C8.15019 8.78621 8.10847 8.63702 8.07438 8.486H8.07338Z" fill="white"/>
</svg>
