<svg width="19" height="18" viewBox="0 0 19 18" fill="none" xmlns="http://www.w3.org/2000/svg">
<path d="M9.65583 0C4.68138 0 0.648438 4.02632 0.648438 8.9926C0.648438 12.8043 3.02075 16.0609 6.37165 17.3709C6.2901 16.6604 6.22338 15.565 6.40131 14.7878C6.5644 14.0847 7.45402 10.3174 7.45402 10.3174C7.45402 10.3174 7.18714 9.77714 7.18714 8.9852C7.18714 7.73438 7.91366 6.80181 8.81811 6.80181C9.58911 6.80181 9.95978 7.37911 9.95978 8.06743C9.95978 8.83717 9.47049 9.99178 9.21102 11.065C8.99603 11.9605 9.66324 12.6933 10.5455 12.6933C12.1468 12.6933 13.3774 11.0058 13.3774 8.57812C13.3774 6.42434 11.828 4.92188 9.61135 4.92188C7.04628 4.92188 5.54134 6.83882 5.54134 8.82237C5.54134 9.5921 5.83788 10.4211 6.20856 10.8725C6.28269 10.9613 6.29011 11.0428 6.26786 11.1316C6.20114 11.4128 6.04546 12.0271 6.01581 12.153C5.97874 12.3158 5.88236 12.3528 5.71185 12.2714C4.585 11.7459 3.88072 10.1102 3.88072 8.78536C3.88072 5.95066 5.94167 3.34539 9.83375 3.34539C12.9548 3.34539 15.3865 5.56579 15.3865 8.54112C15.3865 11.6423 13.4293 14.1365 10.716 14.1365C9.8041 14.1365 8.94414 13.6628 8.65501 13.1003C8.65501 13.1003 8.20279 14.8174 8.09158 15.2393C7.89142 16.0238 7.34282 17.0008 6.97215 17.6003C7.81728 17.8594 8.7069 18 9.641 18C14.6155 18 18.6484 13.9737 18.6484 9.0074C18.6632 4.02632 14.6303 0 9.65583 0Z" fill="white"/>
</svg>
