<svg width="24" height="16" viewBox="0 0 24 16" fill="none" xmlns="http://www.w3.org/2000/svg">
<mask id="mask0_289_763" style="mask-type:luminance" maskUnits="userSpaceOnUse" x="0" y="0" width="24" height="16">
<path d="M0 0H24V16H0V0Z" fill="white"/>
</mask>
<g mask="url(#mask0_289_763)">
<path d="M23.967 16.0022H0.03125V0.00219727H23.967V16.0022Z" fill="white"/>
</g>
<path d="M23.967 11.0803H0.03125V9.84863H23.967V11.0803Z" fill="#D21C31"/>
<path d="M23.9671 8.62263H12.1572V7.38599H23.9671V8.62263Z" fill="#D21C31"/>
<path d="M23.9671 6.15583H12.1572V4.91919H23.9671V6.15583Z" fill="#D21C31"/>
<path d="M23.9671 3.69831H12.1572V2.46167H23.9671V3.69831Z" fill="#D21C31"/>
<mask id="mask1_289_763" style="mask-type:luminance" maskUnits="userSpaceOnUse" x="12" y="0" width="12" height="2">
<path d="M12.1484 0H24.0003V1.29443H12.1484V0Z" fill="white"/>
</mask>
<g mask="url(#mask1_289_763)">
<path d="M23.9676 1.2339H12.1592V0.00219727H23.9676V1.2339Z" fill="#D21C31"/>
</g>
<path d="M23.967 13.5418H0.03125V12.3101H23.967V13.5418Z" fill="#D21C31"/>
<mask id="mask2_289_763" style="mask-type:luminance" maskUnits="userSpaceOnUse" x="0" y="14" width="24" height="2">
<path d="M0 14.7485H24V16H0V14.7485Z" fill="white"/>
</mask>
<g mask="url(#mask2_289_763)">
<path d="M23.967 16.0022H0.03125V14.7705H23.967V16.0022Z" fill="#D21C31"/>
</g>
<mask id="mask3_289_763" style="mask-type:luminance" maskUnits="userSpaceOnUse" x="0" y="0" width="13" height="9">
<path d="M0 0H12.2222V8.65331H0V0Z" fill="white"/>
</mask>
<g mask="url(#mask3_289_763)">
<path d="M12.1872 8.62386H0.03125V0.00219727H12.1872V8.62386Z" fill="#363570"/>
</g>
<path d="M1.07017 0.345459L1.18359 0.695343H1.55049L1.25362 0.911661L1.36704 1.26155L1.07017 1.04523L0.773293 1.26155L0.886719 0.911661L0.589844 0.695343H0.956742L1.07017 0.345459Z" fill="white"/>
<path d="M3.07827 0.345459L3.19141 0.695343H3.55859L3.26172 0.911661L3.37486 1.26155L3.07827 1.04523L2.78139 1.26155L2.89453 0.911661L2.59766 0.695343H2.96484L3.07827 0.345459Z" fill="white"/>
<path d="M5.08775 0.345459L5.20117 0.695343H5.56807L5.2712 0.911661L5.38462 1.26155L5.08775 1.04523L4.79087 1.26155L4.9043 0.911661L4.60742 0.695343H4.97432L5.08775 0.345459Z" fill="white"/>
<path d="M7.09751 0.345459L7.21094 0.695343H7.57784L7.28096 0.911661L7.39439 1.26155L7.09751 1.04523L6.80064 1.26155L6.91406 0.911661L6.61719 0.695343H6.98409L7.09751 0.345459Z" fill="white"/>
<path d="M9.1063 0.345459L9.21944 0.695343H9.58662L9.28975 0.911661L9.40318 1.26155L9.1063 1.04523L8.80943 1.26155L8.92256 0.911661L8.62598 0.695343H8.99287L9.1063 0.345459Z" fill="white"/>
<path d="M11.1151 0.345459L11.2285 0.695343H11.5954L11.2985 0.911661L11.412 1.26155L11.1151 1.04523L10.8182 1.26155L10.9316 0.911661L10.6348 0.695343H11.0017L11.1151 0.345459Z" fill="white"/>
<path d="M2.07603 1.20605L2.18945 1.55594H2.55635L2.25948 1.77255L2.3729 2.12243L2.07603 1.90582L1.77915 2.12243L1.89258 1.77255L1.5957 1.55594H1.9626L2.07603 1.20605Z" fill="white"/>
<path d="M4.08384 1.20605L4.19698 1.55594H4.56416L4.26729 1.77255L4.38071 2.12243L4.08384 1.90582L3.78696 2.12243L3.90039 1.77255L3.60352 1.55594H3.97041L4.08384 1.20605Z" fill="white"/>
<path d="M6.09361 1.20605L6.20703 1.55594H6.57393L6.27705 1.77255L6.39048 2.12243L6.09361 1.90582L5.79673 2.12243L5.91016 1.77255L5.61328 1.55594H5.98018L6.09361 1.20605Z" fill="white"/>
<path d="M8.10337 1.20605L8.2168 1.55594H8.5837L8.28682 1.77255L8.40025 2.12243L8.10337 1.90582L7.8065 2.12243L7.91992 1.77255L7.62305 1.55594H7.98995L8.10337 1.20605Z" fill="white"/>
<path d="M10.1131 1.20605L10.2266 1.55594H10.5935L10.2966 1.77255L10.41 2.12243L10.1131 1.90582L9.81626 2.12243L9.92969 1.77255L9.63281 1.55594H9.99971L10.1131 1.20605Z" fill="white"/>
<path d="M2.07603 2.93823L2.18945 3.28812H2.55635L2.25948 3.50414L2.3729 3.85403L2.07603 3.638L1.77915 3.85403L1.89258 3.50414L1.5957 3.28812H1.9626L2.07603 2.93823Z" fill="white"/>
<path d="M4.08384 2.93823L4.19698 3.28812H4.56416L4.26729 3.50414L4.38071 3.85403L4.08384 3.638L3.78696 3.85403L3.90039 3.50414L3.60352 3.28812H3.97041L4.08384 2.93823Z" fill="white"/>
<path d="M6.09361 2.93823L6.20703 3.28812H6.57393L6.27705 3.50414L6.39048 3.85403L6.09361 3.638L5.79673 3.85403L5.91016 3.50414L5.61328 3.28812H5.98018L6.09361 2.93823Z" fill="white"/>
<path d="M8.10337 2.93823L8.2168 3.28812H8.5837L8.28682 3.50414L8.40025 3.85403L8.10337 3.638L7.8065 3.85403L7.91992 3.50414L7.62305 3.28812H7.98995L8.10337 2.93823Z" fill="white"/>
<path d="M10.1131 2.93823L10.2266 3.28812H10.5935L10.2966 3.50414L10.41 3.85403L10.1131 3.638L9.81626 3.85403L9.92969 3.50414L9.63281 3.28812H9.99971L10.1131 2.93823Z" fill="white"/>
<path d="M2.07603 4.66943L2.18945 5.01932H2.55635L2.25948 5.23564L2.3729 5.58552L2.07603 5.3692L1.77915 5.58552L1.89258 5.23564L1.5957 5.01932H1.9626L2.07603 4.66943Z" fill="white"/>
<path d="M4.08384 4.66943L4.19698 5.01932H4.56416L4.26729 5.23564L4.38071 5.58552L4.08384 5.3692L3.78696 5.58552L3.90039 5.23564L3.60352 5.01932H3.97041L4.08384 4.66943Z" fill="white"/>
<path d="M6.09361 4.66943L6.20703 5.01932H6.57393L6.27705 5.23564L6.39048 5.58552L6.09361 5.3692L5.79673 5.58552L5.91016 5.23564L5.61328 5.01932H5.98018L6.09361 4.66943Z" fill="white"/>
<path d="M8.10337 4.66943L8.2168 5.01932H8.5837L8.28682 5.23564L8.40025 5.58552L8.10337 5.3692L7.8065 5.58552L7.91992 5.23564L7.62305 5.01932H7.98995L8.10337 4.66943Z" fill="white"/>
<path d="M10.1131 4.66943L10.2266 5.01932H10.5935L10.2966 5.23564L10.41 5.58552L10.1131 5.3692L9.81626 5.58552L9.92969 5.23564L9.63281 5.01932H9.99971L10.1131 4.66943Z" fill="white"/>
<path d="M2.07603 6.40137L2.18945 6.75125H2.55635L2.25948 6.96757L2.3729 7.31745L2.07603 7.10113L1.77915 7.31745L1.89258 6.96757L1.5957 6.75125H1.9626L2.07603 6.40137Z" fill="white"/>
<path d="M4.08384 6.40137L4.19698 6.75125H4.56416L4.26729 6.96757L4.38071 7.31745L4.08384 7.10113L3.78696 7.31745L3.90039 6.96757L3.60352 6.75125H3.97041L4.08384 6.40137Z" fill="white"/>
<path d="M6.09361 6.40137L6.20703 6.75125H6.57393L6.27705 6.96757L6.39048 7.31745L6.09361 7.10113L5.79673 7.31745L5.91016 6.96757L5.61328 6.75125H5.98018L6.09361 6.40137Z" fill="white"/>
<path d="M8.10337 6.40137L8.2168 6.75125H8.5837L8.28682 6.96757L8.40025 7.31745L8.10337 7.10113L7.8065 7.31745L7.91992 6.96757L7.62305 6.75125H7.98995L8.10337 6.40137Z" fill="white"/>
<path d="M10.1131 6.40137L10.2266 6.75125H10.5935L10.2966 6.96757L10.41 7.31745L10.1131 7.10113L9.81626 7.31745L9.92969 6.96757L9.63281 6.75125H9.99971L10.1131 6.40137Z" fill="white"/>
<path d="M1.07017 2.07373L1.18359 2.4239H1.55049L1.25362 2.63993L1.36704 2.98982L1.07017 2.77379L0.773293 2.98982L0.886719 2.63993L0.589844 2.4239H0.956742L1.07017 2.07373Z" fill="white"/>
<path d="M3.07827 2.07373L3.19141 2.4239H3.55859L3.26172 2.63993L3.37486 2.98982L3.07827 2.77379L2.78139 2.98982L2.89453 2.63993L2.59766 2.4239H2.96484L3.07827 2.07373Z" fill="white"/>
<path d="M5.08775 2.07373L5.20117 2.4239H5.56807L5.2712 2.63993L5.38462 2.98982L5.08775 2.77379L4.79087 2.98982L4.9043 2.63993L4.60742 2.4239H4.97432L5.08775 2.07373Z" fill="white"/>
<path d="M7.09751 2.07373L7.21094 2.4239H7.57784L7.28096 2.63993L7.39439 2.98982L7.09751 2.77379L6.80064 2.98982L6.91406 2.63993L6.61719 2.4239H6.98409L7.09751 2.07373Z" fill="white"/>
<path d="M9.1063 2.07373L9.21944 2.4239H9.58662L9.28975 2.63993L9.40318 2.98982L9.1063 2.77379L8.80943 2.98982L8.92256 2.63993L8.62598 2.4239H8.99287L9.1063 2.07373Z" fill="white"/>
<path d="M11.1151 2.07373L11.2285 2.4239H11.5954L11.2985 2.63993L11.412 2.98982L11.1151 2.77379L10.8182 2.98982L10.9316 2.63993L10.6348 2.4239H11.0017L11.1151 2.07373Z" fill="white"/>
<path d="M1.07017 3.80249L1.18359 4.15237H1.55049L1.25362 4.3684L1.36704 4.71829L1.07017 4.50226L0.773293 4.71829L0.886719 4.3684L0.589844 4.15237H0.956742L1.07017 3.80249Z" fill="white"/>
<path d="M3.07827 3.80249L3.19141 4.15237H3.55859L3.26172 4.3684L3.37486 4.71829L3.07827 4.50226L2.78139 4.71829L2.89453 4.3684L2.59766 4.15237H2.96484L3.07827 3.80249Z" fill="white"/>
<path d="M5.08775 3.80249L5.20117 4.15237H5.56807L5.2712 4.3684L5.38462 4.71829L5.08775 4.50226L4.79087 4.71829L4.9043 4.3684L4.60742 4.15237H4.97432L5.08775 3.80249Z" fill="white"/>
<path d="M7.09751 3.80249L7.21094 4.15237H7.57784L7.28096 4.3684L7.39439 4.71829L7.09751 4.50226L6.80064 4.71829L6.91406 4.3684L6.61719 4.15237H6.98409L7.09751 3.80249Z" fill="white"/>
<path d="M9.1063 3.80249L9.21944 4.15237H9.58662L9.28975 4.3684L9.40318 4.71829L9.1063 4.50226L8.80943 4.71829L8.92256 4.3684L8.62598 4.15237H8.99287L9.1063 3.80249Z" fill="white"/>
<path d="M11.1151 3.80249L11.2285 4.15237H11.5954L11.2985 4.3684L11.412 4.71829L11.1151 4.50226L10.8182 4.71829L10.9316 4.3684L10.6348 4.15237H11.0017L11.1151 3.80249Z" fill="white"/>
<path d="M1.07017 5.53027L1.18359 5.88016H1.55049L1.25362 6.09648L1.36704 6.44607L1.07017 6.23004L0.773293 6.44607L0.886719 6.09648L0.589844 5.88016H0.956742L1.07017 5.53027Z" fill="white"/>
<path d="M3.07827 5.53027L3.19141 5.88016H3.55859L3.26172 6.09648L3.37486 6.44607L3.07827 6.23004L2.78139 6.44607L2.89453 6.09648L2.59766 5.88016H2.96484L3.07827 5.53027Z" fill="white"/>
<path d="M5.08775 5.53027L5.20117 5.88016H5.56807L5.2712 6.09648L5.38462 6.44607L5.08775 6.23004L4.79087 6.44607L4.9043 6.09648L4.60742 5.88016H4.97432L5.08775 5.53027Z" fill="white"/>
<path d="M7.09751 5.53027L7.21094 5.88016H7.57784L7.28096 6.09648L7.39439 6.44607L7.09751 6.23004L6.80064 6.44607L6.91406 6.09648L6.61719 5.88016H6.98409L7.09751 5.53027Z" fill="white"/>
<path d="M9.1063 5.53027L9.21944 5.88016H9.58662L9.28975 6.09648L9.40318 6.44607L9.1063 6.23004L8.80943 6.44607L8.92256 6.09648L8.62598 5.88016H8.99287L9.1063 5.53027Z" fill="white"/>
<path d="M11.1151 5.53027L11.2285 5.88016H11.5954L11.2985 6.09648L11.412 6.44607L11.1151 6.23004L10.8182 6.44607L10.9316 6.09648L10.6348 5.88016H11.0017L11.1151 5.53027Z" fill="white"/>
<path d="M1.07017 7.25879L1.18359 7.60867H1.55049L1.25362 7.8247L1.36704 8.17458L1.07017 7.95827L0.773293 8.17458L0.886719 7.8247L0.589844 7.60867H0.956742L1.07017 7.25879Z" fill="white"/>
<path d="M3.07827 7.25879L3.19141 7.60867H3.55859L3.26172 7.8247L3.37486 8.17458L3.07827 7.95827L2.78139 8.17458L2.89453 7.8247L2.59766 7.60867H2.96484L3.07827 7.25879Z" fill="white"/>
<path d="M5.08775 7.25879L5.20117 7.60867H5.56807L5.2712 7.8247L5.38462 8.17458L5.08775 7.95827L4.79087 8.17458L4.9043 7.8247L4.60742 7.60867H4.97432L5.08775 7.25879Z" fill="white"/>
<path d="M7.09751 7.25879L7.21094 7.60867H7.57784L7.28096 7.8247L7.39439 8.17458L7.09751 7.95827L6.80064 8.17458L6.91406 7.8247L6.61719 7.60867H6.98409L7.09751 7.25879Z" fill="white"/>
<path d="M9.1063 7.25879L9.21944 7.60867H9.58662L9.28975 7.8247L9.40318 8.17458L9.1063 7.95827L8.80943 8.17458L8.92256 7.8247L8.62598 7.60867H8.99287L9.1063 7.25879Z" fill="white"/>
<path d="M11.1151 7.25879L11.2285 7.60867H11.5954L11.2985 7.8247L11.412 8.17458L11.1151 7.95827L10.8182 8.17458L10.9316 7.8247L10.6348 7.60867H11.0017L11.1151 7.25879Z" fill="white"/>
</svg>
