<svg width="24" height="16" viewBox="0 0 24 16" fill="none" xmlns="http://www.w3.org/2000/svg">
<mask id="mask0_289_842" style="mask-type:luminance" maskUnits="userSpaceOnUse" x="0" y="0" width="24" height="6">
<path d="M0 0H24V5.34144H0V0Z" fill="white"/>
</mask>
<g mask="url(#mask0_289_842)">
<path d="M0.0224609 0H23.9955V5.33331H0.0224609V0Z" fill="#FF9932"/>
</g>
<mask id="mask1_289_842" style="mask-type:luminance" maskUnits="userSpaceOnUse" x="0" y="5" width="24" height="6">
<path d="M0 5.26685H24V10.6931H0V5.26685Z" fill="white"/>
</mask>
<g mask="url(#mask1_289_842)">
<path d="M0.0224609 5.33301H23.9955V10.6663H0.0224609V5.33301Z" fill="white"/>
</g>
<mask id="mask2_289_842" style="mask-type:luminance" maskUnits="userSpaceOnUse" x="0" y="10" width="24" height="6">
<path d="M0 10.6189H24V15.9998H0V10.6189Z" fill="white"/>
</mask>
<g mask="url(#mask2_289_842)">
<path d="M0.0224609 10.667H23.9955V16.0003H0.0224609V10.667Z" fill="#128807"/>
</g>
<path d="M14.4856 7.99997C14.4856 8.08127 14.4816 8.16228 14.4735 8.243C14.4657 8.32401 14.4538 8.40415 14.4379 8.484C14.4222 8.56356 14.4025 8.64225 14.3788 8.72006C14.3553 8.79759 14.3281 8.87395 14.2969 8.94916C14.2659 9.02407 14.2314 9.09753 14.1932 9.16896C14.1547 9.24068 14.1133 9.31036 14.0681 9.37772C14.0229 9.44538 13.9749 9.51042 13.9233 9.57343C13.8718 9.63614 13.8173 9.69625 13.76 9.75374C13.7027 9.81123 13.6424 9.86553 13.5799 9.91721C13.5171 9.9686 13.4522 10.0171 13.3847 10.0621C13.3173 10.1071 13.2478 10.1489 13.176 10.1872C13.1044 10.2256 13.0312 10.2601 12.9562 10.2912C12.8815 10.3223 12.805 10.3496 12.7274 10.3734C12.6498 10.3969 12.5711 10.4166 12.4917 10.4323C12.4121 10.4483 12.3319 10.4602 12.2511 10.468C12.1703 10.4762 12.0895 10.4799 12.0084 10.4799C11.9271 10.4799 11.8463 10.4762 11.7655 10.468C11.6847 10.4602 11.6045 10.4483 11.5252 10.4323C11.4455 10.4166 11.3668 10.3969 11.2892 10.3734C11.2116 10.3496 11.1354 10.3223 11.0604 10.2912C10.9854 10.2601 10.9122 10.2256 10.8406 10.1872C10.7691 10.1489 10.6996 10.1071 10.6322 10.0621C10.5647 10.0171 10.4995 9.9686 10.4367 9.91721C10.3742 9.86553 10.3139 9.81123 10.2566 9.75374C10.1993 9.69625 10.1448 9.63614 10.0933 9.57343C10.042 9.51042 9.99368 9.44538 9.94851 9.37772C9.90363 9.31036 9.86193 9.24068 9.82371 9.16896C9.78548 9.09753 9.75074 9.02407 9.71975 8.94916C9.68877 8.87395 9.66126 8.79759 9.63781 8.72006C9.61435 8.64225 9.59466 8.56356 9.57874 8.484C9.56281 8.40415 9.55094 8.32401 9.54312 8.243C9.53501 8.16228 9.53125 8.08127 9.53125 7.99997C9.53125 7.91896 9.53501 7.83766 9.54312 7.75694C9.55094 7.67622 9.56281 7.59579 9.57874 7.51624C9.59466 7.43668 9.61435 7.35799 9.63781 7.28017C9.66126 7.20236 9.68877 7.12599 9.71975 7.05108C9.75074 6.97588 9.78548 6.90271 9.82371 6.83099C9.86193 6.75927 9.90363 6.68987 9.94851 6.62222C9.99368 6.55457 10.042 6.48953 10.0933 6.42681C10.1448 6.36409 10.1993 6.30399 10.2566 6.2465C10.3139 6.18901 10.3742 6.13442 10.4367 6.08302C10.4995 6.03134 10.5647 5.98314 10.6322 5.93814C10.6996 5.89284 10.7691 5.85132 10.8406 5.81299C10.9122 5.77466 10.9854 5.73982 11.0604 5.70875C11.1354 5.67768 11.2116 5.65039 11.2892 5.62687C11.3668 5.60335 11.4455 5.58361 11.5252 5.56764C11.6045 5.55196 11.6847 5.54005 11.7655 5.53192C11.8463 5.52408 11.9271 5.52002 12.0084 5.52002C12.0895 5.52002 12.1703 5.52408 12.2511 5.53192C12.3319 5.54005 12.4121 5.55196 12.4917 5.56764C12.5711 5.58361 12.6498 5.60335 12.7274 5.62687C12.805 5.65039 12.8815 5.67768 12.9562 5.70875C13.0312 5.73982 13.1044 5.77466 13.176 5.81299C13.2478 5.85132 13.3173 5.89284 13.3847 5.93814C13.4522 5.98314 13.5171 6.03134 13.5799 6.08302C13.6424 6.13442 13.7027 6.18901 13.76 6.2465C13.8173 6.30399 13.8718 6.36409 13.9233 6.42681C13.9749 6.48953 14.0229 6.55457 14.0681 6.62222C14.1133 6.68987 14.1547 6.75927 14.1932 6.83099C14.2314 6.90271 14.2659 6.97588 14.2969 7.05108C14.3281 7.12599 14.3553 7.20236 14.3788 7.28017C14.4025 7.35799 14.4222 7.43668 14.4379 7.51624C14.4538 7.59579 14.4657 7.67622 14.4735 7.75694C14.4816 7.83766 14.4856 7.91896 14.4856 7.99997Z" fill="#000080"/>
<path d="M14.1928 7.99968C14.1928 8.0714 14.1894 8.14283 14.1821 8.21396C14.1752 8.28539 14.1647 8.35624 14.1508 8.42622C14.1369 8.49648 14.1196 8.56588 14.0987 8.6344C14.0779 8.70293 14.0538 8.77029 14.0266 8.83649C13.9991 8.9027 13.9687 8.96745 13.9348 9.03045C13.9012 9.09375 13.8645 9.15502 13.8248 9.21454C13.7848 9.27406 13.7423 9.33156 13.6971 9.38701C13.6516 9.44218 13.6036 9.49532 13.5529 9.54584C13.5025 9.59665 13.4495 9.64456 13.3942 9.69015C13.3389 9.73544 13.2816 9.77813 13.2219 9.81791C13.1626 9.85769 13.1012 9.89456 13.0381 9.92824C12.9752 9.96192 12.9107 9.99241 12.8443 10.02C12.7783 10.0473 12.7111 10.0714 12.6425 10.0923C12.5742 10.1129 12.505 10.1303 12.4346 10.1443C12.3645 10.1585 12.2939 10.169 12.2227 10.1759C12.1514 10.1829 12.0802 10.1864 12.0087 10.1864C11.9371 10.1864 11.8656 10.1829 11.7944 10.1759C11.7232 10.169 11.6525 10.1585 11.5824 10.1443C11.5124 10.1303 11.4429 10.1129 11.3745 10.0923C11.3062 10.0714 11.2387 10.0473 11.1727 10.02C11.1067 9.99241 11.0421 9.96192 10.979 9.92824C10.9159 9.89456 10.8545 9.85769 10.7951 9.81791C10.7355 9.77813 10.6781 9.73544 10.6228 9.69015C10.5675 9.64456 10.5145 9.59665 10.4641 9.54584C10.4135 9.49532 10.3654 9.44218 10.3202 9.38701C10.2748 9.33156 10.2322 9.27406 10.1925 9.21454C10.1526 9.15502 10.1161 9.09375 10.0822 9.03045C10.0486 8.96745 10.0179 8.9027 9.99072 8.83649C9.96321 8.77029 9.93917 8.70293 9.91833 8.6344C9.89777 8.56588 9.88039 8.49648 9.86621 8.42622C9.85231 8.35624 9.84188 8.28539 9.83493 8.21396C9.82798 8.14283 9.82422 8.0714 9.82422 7.99968C9.82422 7.92825 9.82798 7.85682 9.83493 7.7854C9.84188 7.71426 9.85231 7.64341 9.86621 7.57314C9.88039 7.50288 9.89777 7.43348 9.91833 7.36496C9.93917 7.29643 9.96321 7.22907 9.99072 7.16287C10.0179 7.09666 10.0486 7.0322 10.0822 6.96891C10.1161 6.9059 10.1526 6.84434 10.1925 6.78482C10.2322 6.7253 10.2748 6.6678 10.3202 6.61264C10.3654 6.55718 10.4135 6.50433 10.4641 6.45352C10.5145 6.403 10.5675 6.3548 10.6228 6.3095C10.6781 6.26392 10.7355 6.22152 10.7951 6.18174C10.8545 6.14196 10.9159 6.10509 10.979 6.07141C11.0421 6.03744 11.1067 6.00695 11.1727 5.97965C11.2387 5.95207 11.3062 5.92797 11.3745 5.90735C11.4429 5.88645 11.5124 5.86903 11.5824 5.85509C11.6525 5.84115 11.7232 5.8307 11.7944 5.82373C11.8656 5.81647 11.9371 5.81299 12.0087 5.81299C12.0802 5.81299 12.1514 5.81647 12.2227 5.82373C12.2939 5.8307 12.3645 5.84115 12.4346 5.85509C12.505 5.86903 12.5742 5.88645 12.6425 5.90735C12.7111 5.92797 12.7783 5.95207 12.8443 5.97965C12.9107 6.00695 12.9752 6.03744 13.0381 6.07141C13.1012 6.10509 13.1626 6.14196 13.2219 6.18174C13.2816 6.22152 13.3389 6.26392 13.3942 6.3095C13.4495 6.3548 13.5025 6.403 13.5529 6.45352C13.6036 6.50433 13.6516 6.55718 13.6971 6.61264C13.7423 6.6678 13.7848 6.7253 13.8248 6.78482C13.8645 6.84434 13.9012 6.9059 13.9348 6.96891C13.9687 7.0322 13.9991 7.09666 14.0266 7.16287C14.0538 7.22907 14.0779 7.29643 14.0987 7.36496C14.1196 7.43348 14.1369 7.50288 14.1508 7.57314C14.1647 7.64341 14.1752 7.71426 14.1821 7.7854C14.1894 7.85682 14.1928 7.92825 14.1928 7.99968Z" fill="white"/>
<path d="M14.3063 8.30238C14.3039 8.32005 14.2984 8.33626 14.2897 8.35161C14.2808 8.36695 14.2695 8.37969 14.2553 8.3907C14.2414 8.40141 14.2258 8.40894 14.2087 8.41357C14.1916 8.41821 14.1745 8.41908 14.1568 8.41676C14.1395 8.41473 14.123 8.40894 14.1076 8.40025C14.0923 8.39128 14.0795 8.37998 14.0685 8.36609C14.0578 8.3519 14.0503 8.33655 14.0456 8.31947C14.041 8.30238 14.0399 8.2853 14.0422 8.26763C14.0445 8.25026 14.05 8.23376 14.059 8.2187C14.0677 8.20335 14.0792 8.19032 14.0931 8.17961C14.1073 8.16889 14.1227 8.16108 14.1398 8.15673C14.1568 8.1521 14.1742 8.15094 14.1916 8.15326C14.2093 8.15557 14.2255 8.16108 14.2408 8.17005C14.2562 8.17874 14.2692 8.19003 14.2799 8.20422C14.2906 8.21812 14.2984 8.23376 14.3031 8.25055C14.3074 8.26763 14.3086 8.28501 14.3063 8.30238Z" fill="#000080"/>
<path d="M12.0086 10.1867L12.0885 8.90679C12.0529 8.79994 12.0263 8.49797 12.0086 8C11.9907 8.49797 11.964 8.79994 11.9287 8.90679L12.0086 10.1867Z" fill="#000080"/>
<path d="M14.1498 8.88724C14.1429 8.90346 14.1333 8.91793 14.1209 8.93039C14.1084 8.94284 14.0939 8.95239 14.0777 8.95905C14.0612 8.966 14.0444 8.96919 14.0268 8.96919C14.0091 8.96919 13.992 8.966 13.9758 8.95905C13.9593 8.95239 13.9451 8.94284 13.9324 8.93039C13.9199 8.91793 13.9103 8.90346 13.9037 8.88724C13.8967 8.87103 13.8936 8.85394 13.8936 8.83628C13.8936 8.81861 13.8967 8.80182 13.9037 8.78531C13.9103 8.7691 13.9199 8.75491 13.9324 8.74217C13.9451 8.72972 13.9593 8.72016 13.9758 8.7135C13.992 8.70684 14.0091 8.70337 14.0268 8.70337C14.0444 8.70337 14.0612 8.70684 14.0777 8.7135C14.0939 8.72016 14.1084 8.72972 14.1209 8.74217C14.1333 8.75491 14.1429 8.7691 14.1498 8.78531C14.1565 8.80182 14.16 8.81861 14.16 8.83628C14.16 8.85394 14.1565 8.87103 14.1498 8.88724Z" fill="#000080"/>
<path d="M11.4434 10.1124L11.8516 8.89663C11.8447 8.78426 11.8971 8.48548 12.0089 8C11.8629 8.47619 11.759 8.76132 11.6973 8.85511L11.4434 10.1124Z" fill="#000080"/>
<path d="M13.8473 9.41161C13.8366 9.4258 13.8235 9.43709 13.8082 9.44578C13.7928 9.45476 13.7766 9.46026 13.759 9.46257C13.7416 9.46489 13.7242 9.46373 13.7071 9.4591C13.6901 9.45476 13.6744 9.44694 13.6605 9.43622C13.6466 9.42551 13.635 9.41248 13.6264 9.39713C13.6174 9.38208 13.6119 9.36557 13.6096 9.3482C13.6072 9.33053 13.6084 9.31345 13.613 9.29637C13.6177 9.27928 13.6252 9.26393 13.6359 9.24975C13.6466 9.23585 13.6597 9.22455 13.675 9.21558C13.6903 9.20689 13.7068 9.2011 13.7242 9.19878C13.7416 9.19676 13.759 9.19763 13.7761 9.20226C13.7931 9.20689 13.8088 9.21442 13.8227 9.22513C13.8366 9.23614 13.8482 9.24888 13.8568 9.26422C13.8658 9.27957 13.8713 9.29579 13.8736 9.31345C13.876 9.33082 13.8748 9.3482 13.8702 9.36528C13.8658 9.38208 13.858 9.39771 13.8473 9.41161Z" fill="#000080"/>
<path d="M10.916 9.89372L11.6246 8.8252C11.6472 8.71515 11.7749 8.44018 12.0082 8C11.7442 8.42218 11.5701 8.67073 11.4862 8.74535L10.916 9.89372Z" fill="#000080"/>
<path d="M13.4194 9.83964C13.4052 9.85035 13.3898 9.85817 13.3727 9.86251C13.3557 9.86715 13.3383 9.8683 13.3209 9.86599C13.3033 9.86367 13.2867 9.85817 13.2717 9.84948C13.2563 9.84051 13.2433 9.82921 13.2326 9.81503C13.2219 9.80113 13.2141 9.78578 13.2094 9.7687C13.2051 9.75161 13.2039 9.73424 13.2062 9.71686C13.2086 9.69949 13.2141 9.68299 13.2228 9.66764C13.2317 9.65258 13.243 9.63955 13.2572 9.62884C13.2711 9.61812 13.2867 9.61031 13.3038 9.60567C13.3206 9.60133 13.338 9.60017 13.3557 9.60249C13.373 9.6048 13.3895 9.61031 13.4049 9.61899C13.4199 9.62797 13.433 9.63926 13.444 9.65316C13.4547 9.66735 13.4622 9.6827 13.4669 9.69978C13.4715 9.71686 13.4726 9.73395 13.4703 9.75161C13.468 9.76899 13.4622 9.78549 13.4535 9.80084C13.4446 9.81589 13.4333 9.82892 13.4194 9.83964Z" fill="#000080"/>
<path d="M10.4648 9.54616L11.4253 8.69773C11.4757 8.59727 11.6703 8.36469 12.0094 8C11.6451 8.33943 11.4129 8.53426 11.3124 8.58449L10.4648 9.54616Z" fill="#000080"/>
<path d="M12.8951 10.1424C12.8789 10.1491 12.8618 10.1525 12.8441 10.1525C12.8265 10.1525 12.8097 10.1491 12.7932 10.1424C12.777 10.1357 12.7625 10.1262 12.75 10.1137C12.7376 10.1013 12.728 10.0868 12.7211 10.0706C12.7144 10.0541 12.7109 10.0373 12.7109 10.0196C12.7109 10.002 12.7144 9.98488 12.7211 9.96866C12.728 9.95245 12.7376 9.93797 12.75 9.92552C12.7625 9.91307 12.777 9.90351 12.7932 9.89685C12.8097 9.8899 12.8265 9.88672 12.8441 9.88672C12.8618 9.88672 12.8789 9.8899 12.8951 9.89685C12.9116 9.90351 12.9258 9.91307 12.9385 9.92552C12.951 9.93797 12.9605 9.95245 12.9672 9.96866C12.9741 9.98488 12.9773 10.002 12.9773 10.0196C12.9773 10.0373 12.9741 10.0541 12.9672 10.0706C12.9605 10.0868 12.951 10.1013 12.9385 10.1137C12.9258 10.1262 12.9116 10.1357 12.8951 10.1424Z" fill="#000080"/>
<path d="M10.1172 9.09349L11.2644 8.52265C11.3388 8.43844 11.587 8.26423 12.0089 8C11.5693 8.23345 11.2945 8.3615 11.1845 8.38414L10.1172 9.09349Z" fill="#000080"/>
<path d="M12.3107 10.2996C12.2934 10.3019 12.276 10.3008 12.2589 10.2961C12.2418 10.2915 12.2265 10.284 12.2123 10.2733C12.1984 10.2626 12.1868 10.2495 12.1781 10.2342C12.1691 10.2191 12.1636 10.2026 12.1613 10.1852C12.159 10.1676 12.1602 10.1505 12.1648 10.1334C12.1694 10.1163 12.177 10.1007 12.1877 10.0868C12.1984 10.0729 12.2114 10.0613 12.2268 10.0526C12.2421 10.0439 12.2586 10.0381 12.276 10.0358C12.2936 10.0335 12.3107 10.0347 12.3278 10.0393C12.3449 10.0439 12.3605 10.0515 12.3744 10.0622C12.3886 10.0729 12.3999 10.0859 12.4089 10.1013C12.4176 10.1166 12.4231 10.1328 12.4254 10.1505C12.4277 10.1679 12.4266 10.1852 12.4219 10.2023C12.4176 10.2191 12.4098 10.2348 12.399 10.2487C12.3883 10.2628 12.3753 10.2741 12.36 10.2828C12.3446 10.2918 12.3284 10.2973 12.3107 10.2996Z" fill="#000080"/>
<path d="M9.89844 8.56591L11.1543 8.31214C11.2481 8.25 11.5327 8.14605 12.0085 8C11.5235 8.11179 11.2249 8.16405 11.1129 8.15737L9.89844 8.56591Z" fill="#000080"/>
<path d="M11.7057 10.2996C11.6883 10.2973 11.6718 10.2918 11.6564 10.2828C11.6411 10.2741 11.6281 10.2628 11.6174 10.2487C11.6066 10.2348 11.5991 10.2191 11.5945 10.2023C11.5898 10.1852 11.5887 10.1679 11.591 10.1505C11.5933 10.1328 11.5988 10.1166 11.6078 10.1013C11.6165 10.0859 11.6281 10.0729 11.642 10.0622C11.6559 10.0515 11.6715 10.0439 11.6886 10.0393C11.7057 10.0347 11.723 10.0335 11.7404 10.0358C11.7581 10.0381 11.7743 10.0439 11.7896 10.0526C11.805 10.0613 11.818 10.0729 11.8287 10.0868C11.8394 10.1007 11.8473 10.1163 11.8516 10.1334C11.8562 10.1505 11.8574 10.1676 11.8551 10.1852C11.8528 10.2026 11.8473 10.2191 11.8383 10.2342C11.8296 10.2495 11.818 10.2626 11.8041 10.2733C11.7902 10.284 11.7746 10.2915 11.7575 10.2961C11.7404 10.3008 11.723 10.3019 11.7057 10.2996Z" fill="#000080"/>
<path d="M9.82422 7.9998L11.1029 8.07971C11.2095 8.0441 11.5112 8.01746 12.0087 7.9998C11.5112 7.98213 11.2095 7.95549 11.1029 7.92017L9.82422 7.9998Z" fill="#000080"/>
<path d="M11.1213 10.1424C11.1051 10.1357 11.0906 10.1262 11.0782 10.1137C11.0657 10.1013 11.0559 10.0868 11.0492 10.0706C11.0425 10.0541 11.0391 10.0373 11.0391 10.0196C11.0391 10.002 11.0425 9.98488 11.0492 9.96866C11.0559 9.95245 11.0657 9.93797 11.0782 9.92552C11.0906 9.91307 11.1051 9.90351 11.1213 9.89685C11.1375 9.8899 11.1546 9.88672 11.1723 9.88672C11.1899 9.88672 11.207 9.8899 11.2232 9.89685C11.2394 9.90351 11.2539 9.91307 11.2664 9.92552C11.2788 9.93797 11.2887 9.95245 11.2953 9.96866C11.302 9.98488 11.3055 10.002 11.3055 10.0196C11.3055 10.0373 11.302 10.0541 11.2953 10.0706C11.2887 10.0868 11.2788 10.1013 11.2664 10.1137C11.2539 10.1262 11.2394 10.1357 11.2232 10.1424C11.207 10.1491 11.1899 10.1525 11.1723 10.1525C11.1546 10.1525 11.1375 10.1491 11.1213 10.1424Z" fill="#000080"/>
<path d="M9.89844 7.43433L11.1129 7.84286C11.2249 7.83618 11.5235 7.88874 12.0085 8.00024C11.5327 7.85418 11.2481 7.75024 11.1543 7.68839L9.89844 7.43433Z" fill="#000080"/>
<path d="M10.598 9.83964C10.5838 9.82892 10.5725 9.81589 10.5636 9.80084C10.5549 9.78549 10.5494 9.76899 10.5471 9.75161C10.5448 9.73395 10.5459 9.71686 10.5503 9.69978C10.5549 9.6827 10.5627 9.66735 10.5734 9.65316C10.5841 9.63926 10.5972 9.62797 10.6125 9.61899C10.6276 9.61031 10.6441 9.6048 10.6617 9.60249C10.6791 9.60017 10.6965 9.60133 10.7136 9.60567C10.7306 9.61031 10.746 9.61812 10.7602 9.62884C10.7741 9.63955 10.7854 9.65258 10.7944 9.66764C10.803 9.68299 10.8088 9.69949 10.8111 9.71686C10.8135 9.73424 10.8123 9.75161 10.8077 9.7687C10.803 9.78578 10.7955 9.80113 10.7848 9.81503C10.7738 9.82921 10.7608 9.84051 10.7457 9.84948C10.7304 9.85817 10.7139 9.86367 10.6965 9.86599C10.6788 9.8683 10.6614 9.86715 10.6446 9.86251C10.6276 9.85817 10.6119 9.85035 10.598 9.83964Z" fill="#000080"/>
<path d="M10.1172 6.90698L11.1845 7.61633C11.2945 7.63869 11.5693 7.76673 12.0089 8.00018C11.587 7.73596 11.3388 7.56174 11.2644 7.47754L10.1172 6.90698Z" fill="#000080"/>
<path d="M10.1701 9.41161C10.1594 9.39771 10.1518 9.38208 10.1472 9.36528C10.1426 9.3482 10.1414 9.33082 10.1437 9.31345C10.1461 9.29579 10.1516 9.27957 10.1605 9.26422C10.1692 9.24888 10.1808 9.23614 10.1947 9.22513C10.2089 9.21442 10.2242 9.20689 10.2413 9.20226C10.2584 9.19763 10.2758 9.19676 10.2932 9.19878C10.3108 9.2011 10.327 9.20689 10.3424 9.21558C10.3577 9.22455 10.3708 9.23585 10.3815 9.24975C10.3922 9.26393 10.4 9.27928 10.4043 9.29637C10.409 9.31345 10.4101 9.33053 10.4078 9.3482C10.4055 9.36557 10.4 9.38208 10.3913 9.39713C10.3823 9.41248 10.371 9.42551 10.3569 9.43622C10.343 9.44694 10.3273 9.45476 10.3102 9.4591C10.2932 9.46373 10.2761 9.46489 10.2584 9.46257C10.241 9.46026 10.2245 9.45476 10.2092 9.44578C10.1938 9.43709 10.1808 9.4258 10.1701 9.41161Z" fill="#000080"/>
<path d="M10.4648 6.45386L11.3124 7.41553C11.4129 7.46576 11.6451 7.66059 12.0094 8.00002C11.6703 7.63562 11.4757 7.40304 11.4253 7.30229L10.4648 6.45386Z" fill="#000080"/>
<path d="M9.86756 8.88724C9.86061 8.87103 9.85742 8.85394 9.85742 8.83628C9.85742 8.81861 9.86061 8.80182 9.86756 8.78531C9.87422 8.7691 9.88377 8.75491 9.89622 8.74217C9.90896 8.72972 9.92315 8.72016 9.93966 8.7135C9.95587 8.70684 9.97296 8.70337 9.99062 8.70337C10.0083 8.70337 10.0251 8.70684 10.0416 8.7135C10.0578 8.72016 10.0723 8.72972 10.0847 8.74217C10.0972 8.75491 10.1067 8.7691 10.1137 8.78531C10.1203 8.80182 10.1238 8.81861 10.1238 8.83628C10.1238 8.85394 10.1203 8.87103 10.1137 8.88724C10.1067 8.90346 10.0972 8.91793 10.0847 8.93039C10.0723 8.94284 10.0578 8.95239 10.0416 8.95905C10.0251 8.966 10.0083 8.96919 9.99062 8.96919C9.97296 8.96919 9.95587 8.966 9.93966 8.95905C9.92315 8.95239 9.90896 8.94284 9.89622 8.93039C9.88377 8.91793 9.87422 8.90346 9.86756 8.88724Z" fill="#000080"/>
<path d="M10.916 6.10645L11.4862 7.2551C11.5701 7.32973 11.7442 7.57798 12.0082 8.00016C11.7749 7.56027 11.6472 7.2853 11.6246 7.17497L10.916 6.10645Z" fill="#000080"/>
<path d="M9.71112 8.30238C9.7088 8.28501 9.70996 8.26763 9.71459 8.25055C9.71894 8.23376 9.72676 8.21812 9.73747 8.20422C9.74818 8.19003 9.76121 8.17874 9.77656 8.17005C9.79191 8.16108 9.80812 8.15557 9.82579 8.15326C9.84316 8.15094 9.86053 8.1521 9.87762 8.15673C9.8947 8.16108 9.91034 8.16889 9.92424 8.17961C9.93814 8.19032 9.94972 8.20335 9.9584 8.2187C9.96738 8.23376 9.97288 8.25026 9.9752 8.26763C9.97752 8.2853 9.97636 8.30238 9.97172 8.31947C9.96709 8.33655 9.95956 8.3519 9.94885 8.36609C9.93814 8.37998 9.9251 8.39128 9.90976 8.40025C9.89441 8.40894 9.87791 8.41473 9.86053 8.41676C9.84316 8.41908 9.82579 8.41821 9.8087 8.41357C9.79162 8.40894 9.77598 8.40141 9.76208 8.3907C9.74818 8.37969 9.7366 8.36695 9.72791 8.35161C9.71894 8.33626 9.71344 8.32005 9.71112 8.30238Z" fill="#000080"/>
<path d="M11.4434 5.8877L11.6973 7.14466C11.759 7.23873 11.8629 7.52358 12.0089 7.99976C11.8971 7.51428 11.8447 7.21551 11.8516 7.10343L11.4434 5.8877Z" fill="#000080"/>
<path d="M9.71112 7.69659C9.71344 7.67922 9.71894 7.66271 9.72791 7.64765C9.7366 7.63231 9.74818 7.61928 9.76208 7.60856C9.77598 7.59785 9.79162 7.59003 9.8087 7.58569C9.82579 7.58105 9.84316 7.5799 9.86053 7.58221C9.87791 7.58453 9.89441 7.59003 9.90976 7.59901C9.9251 7.60769 9.93814 7.61899 9.94885 7.63318C9.95956 7.64707 9.96709 7.66271 9.97172 7.67951C9.97636 7.69659 9.97752 7.71396 9.9752 7.73134C9.97288 7.749 9.96738 7.76522 9.9584 7.78056C9.94972 7.79591 9.93814 7.80894 9.92424 7.81965C9.91034 7.83037 9.8947 7.8379 9.87762 7.84253C9.86053 7.84716 9.84316 7.84803 9.82579 7.846C9.80812 7.84369 9.79191 7.8379 9.77656 7.82921C9.76121 7.82023 9.74818 7.80894 9.73747 7.79504C9.72676 7.78085 9.71894 7.76551 9.71459 7.74842C9.70996 7.73134 9.7088 7.71425 9.71112 7.69659Z" fill="#000080"/>
<path d="M12.0086 5.81299L11.9287 7.09318C11.964 7.19974 11.9907 7.502 12.0086 7.99968C12.0263 7.502 12.0529 7.19974 12.0885 7.09318L12.0086 5.81299Z" fill="#000080"/>
<path d="M9.86756 7.11202C9.87422 7.09552 9.88377 7.08133 9.89622 7.06888C9.90896 7.05642 9.92315 7.04658 9.93966 7.03992C9.95587 7.03326 9.97296 7.02979 9.99062 7.02979C10.0083 7.02979 10.0251 7.03326 10.0416 7.03992C10.0578 7.04658 10.0723 7.05642 10.0847 7.06888C10.0972 7.08133 10.1067 7.09552 10.1137 7.11202C10.1203 7.12824 10.1238 7.14503 10.1238 7.16269C10.1238 7.18036 10.1203 7.19744 10.1137 7.21366C10.1067 7.22987 10.0972 7.24435 10.0847 7.2568C10.0723 7.26925 10.0578 7.27881 10.0416 7.28576C10.0251 7.29242 10.0083 7.2956 9.99062 7.2956C9.97296 7.2956 9.95587 7.29242 9.93966 7.28576C9.92315 7.27881 9.90896 7.26925 9.89622 7.2568C9.88377 7.24435 9.87422 7.22987 9.86756 7.21366C9.86061 7.19744 9.85742 7.18036 9.85742 7.16269C9.85742 7.14503 9.86061 7.12824 9.86756 7.11202Z" fill="#000080"/>
<path d="M12.573 5.8877L12.165 7.10343C12.1717 7.21551 12.1193 7.51428 12.0078 7.99976C12.1535 7.52358 12.2574 7.23873 12.3194 7.14466L12.573 5.8877Z" fill="#000080"/>
<path d="M10.1701 6.58739C10.1808 6.57349 10.1938 6.56191 10.2092 6.55322C10.2245 6.54454 10.241 6.53875 10.2584 6.53643C10.2761 6.5344 10.2932 6.53527 10.3102 6.5399C10.3273 6.54454 10.343 6.55207 10.3569 6.56278C10.371 6.57349 10.3823 6.58652 10.3913 6.60187C10.4 6.61722 10.4055 6.63343 10.4078 6.6511C10.4101 6.66847 10.409 6.68584 10.4043 6.70293C10.4 6.71972 10.3922 6.73536 10.3815 6.74926C10.3708 6.76345 10.3577 6.77474 10.3424 6.78343C10.327 6.7924 10.3108 6.7979 10.2932 6.80022C10.2758 6.80254 10.2584 6.80138 10.2413 6.79675C10.2242 6.7924 10.2089 6.78458 10.1947 6.77387C10.1808 6.76316 10.1692 6.75013 10.1605 6.73478C10.1516 6.71972 10.1461 6.70322 10.1437 6.68584C10.1414 6.66818 10.1426 6.6511 10.1472 6.63401C10.1518 6.61693 10.1594 6.60129 10.1701 6.58739Z" fill="#000080"/>
<path d="M13.0997 6.10645L12.3912 7.17497C12.3689 7.2853 12.2409 7.56027 12.0078 8.00016C12.2716 7.57798 12.4456 7.32973 12.5296 7.2551L13.0997 6.10645Z" fill="#000080"/>
<path d="M10.598 6.15934C10.6119 6.14863 10.6276 6.1411 10.6446 6.13647C10.6614 6.13184 10.6788 6.13068 10.6965 6.13299C10.7139 6.13531 10.7304 6.14081 10.7457 6.14979C10.7608 6.15848 10.7738 6.17006 10.7848 6.18396C10.7955 6.19786 10.803 6.21349 10.8077 6.23058C10.8123 6.24766 10.8135 6.26474 10.8111 6.28241C10.8088 6.29978 10.803 6.316 10.7944 6.33134C10.7854 6.34669 10.7741 6.35972 10.7602 6.37043C10.746 6.38115 10.7306 6.38868 10.7136 6.39331C10.6965 6.39794 10.6791 6.3991 10.6617 6.39678C10.6441 6.39447 10.6276 6.38897 10.6125 6.37999C10.5972 6.3713 10.5841 6.35972 10.5734 6.34582C10.5627 6.33192 10.5549 6.31629 10.5503 6.2992C10.5459 6.28241 10.5448 6.26503 10.5471 6.24766C10.5494 6.23 10.5549 6.21378 10.5636 6.19844C10.5725 6.18309 10.5838 6.17006 10.598 6.15934Z" fill="#000080"/>
<path d="M13.552 6.45386L12.5916 7.30229C12.5415 7.40304 12.3466 7.63562 12.0078 8.00002C12.3718 7.66059 12.604 7.46576 12.7045 7.41553L13.552 6.45386Z" fill="#000080"/>
<path d="M11.1213 5.85657C11.1375 5.84991 11.1546 5.84644 11.1723 5.84644C11.1899 5.84644 11.207 5.84991 11.2232 5.85657C11.2394 5.86352 11.2539 5.87308 11.2664 5.88553C11.2788 5.89798 11.2887 5.91246 11.2953 5.92867C11.302 5.94489 11.3055 5.96197 11.3055 5.97963C11.3055 5.9973 11.302 6.01409 11.2953 6.03031C11.2887 6.04681 11.2788 6.061 11.2664 6.07345C11.2539 6.0859 11.2394 6.09575 11.2232 6.10241C11.207 6.10907 11.1899 6.11254 11.1723 6.11254C11.1546 6.11254 11.1375 6.10907 11.1213 6.10241C11.1051 6.09575 11.0906 6.0859 11.0782 6.07345C11.0657 6.061 11.0559 6.04681 11.0492 6.03031C11.0425 6.01409 11.0391 5.9973 11.0391 5.97963C11.0391 5.96197 11.0425 5.94489 11.0492 5.92867C11.0559 5.91246 11.0657 5.89798 11.0782 5.88553C11.0906 5.87308 11.1051 5.86352 11.1213 5.85657Z" fill="#000080"/>
<path d="M13.8992 6.90698L12.752 7.47754C12.6776 7.56174 12.4294 7.73596 12.0078 8.00018C12.4471 7.76673 12.7219 7.63869 12.8319 7.61633L13.8992 6.90698Z" fill="#000080"/>
<path d="M11.7057 5.69997C11.723 5.69765 11.7404 5.69852 11.7575 5.70315C11.7746 5.70779 11.7902 5.71531 11.8041 5.72603C11.818 5.73703 11.8296 5.74977 11.8383 5.76512C11.8473 5.78047 11.8528 5.79668 11.8551 5.81434C11.8574 5.83172 11.8562 5.84909 11.8516 5.86618C11.8473 5.88297 11.8394 5.89861 11.8287 5.91251C11.818 5.92669 11.805 5.93799 11.7896 5.94667C11.7743 5.95565 11.7581 5.96115 11.7404 5.96347C11.723 5.96578 11.7057 5.96463 11.6886 5.95999C11.6715 5.95565 11.6559 5.94783 11.642 5.93712C11.6281 5.9264 11.6165 5.91337 11.6078 5.89803C11.5988 5.88297 11.5933 5.86647 11.591 5.84909C11.5887 5.83143 11.5898 5.81434 11.5945 5.79726C11.5991 5.78018 11.6066 5.76483 11.6174 5.75064C11.6281 5.73674 11.6411 5.72545 11.6564 5.71647C11.6718 5.70779 11.6883 5.70199 11.7057 5.69997Z" fill="#000080"/>
<path d="M14.1176 7.43433L12.8617 7.68839C12.7682 7.75024 12.4833 7.85418 12.0078 8.00024C12.4925 7.88874 12.7911 7.83618 12.9031 7.84286L14.1176 7.43433Z" fill="#000080"/>
<path d="M12.3107 5.69997C12.3284 5.70199 12.3446 5.70779 12.36 5.71647C12.3753 5.72545 12.3883 5.73674 12.399 5.75064C12.4098 5.76483 12.4176 5.78018 12.4219 5.79726C12.4266 5.81434 12.4277 5.83143 12.4254 5.84909C12.4231 5.86647 12.4176 5.88297 12.4089 5.89803C12.3999 5.91337 12.3886 5.9264 12.3744 5.93712C12.3605 5.94783 12.3449 5.95565 12.3278 5.95999C12.3107 5.96463 12.2936 5.96578 12.276 5.96347C12.2586 5.96115 12.2421 5.95565 12.2268 5.94667C12.2114 5.93799 12.1984 5.92669 12.1877 5.91251C12.177 5.89861 12.1694 5.88297 12.1648 5.86618C12.1602 5.84909 12.159 5.83172 12.1613 5.81434C12.1636 5.79668 12.1691 5.78047 12.1781 5.76512C12.1868 5.74977 12.1984 5.73703 12.2123 5.72603C12.2265 5.71531 12.2418 5.70779 12.2589 5.70315C12.276 5.69852 12.2934 5.69765 12.3107 5.69997Z" fill="#000080"/>
<path d="M14.192 7.9998L12.9133 7.92017C12.8067 7.95549 12.505 7.98213 12.0078 7.9998C12.505 8.01746 12.8067 8.0441 12.9133 8.07971L14.192 7.9998Z" fill="#000080"/>
<path d="M12.8951 5.85657C12.9116 5.86352 12.9258 5.87308 12.9385 5.88553C12.951 5.89798 12.9605 5.91246 12.9672 5.92867C12.9741 5.94489 12.9773 5.96197 12.9773 5.97963C12.9773 5.9973 12.9741 6.01409 12.9672 6.03031C12.9605 6.04681 12.951 6.061 12.9385 6.07345C12.9258 6.0859 12.9116 6.09575 12.8951 6.10241C12.8789 6.10907 12.8618 6.11254 12.8441 6.11254C12.8265 6.11254 12.8097 6.10907 12.7932 6.10241C12.777 6.09575 12.7625 6.0859 12.75 6.07345C12.7376 6.061 12.728 6.04681 12.7211 6.03031C12.7144 6.01409 12.7109 5.9973 12.7109 5.97963C12.7109 5.96197 12.7144 5.94489 12.7211 5.92867C12.728 5.91246 12.7376 5.89798 12.75 5.88553C12.7625 5.87308 12.777 5.86352 12.7932 5.85657C12.8097 5.84991 12.8265 5.84644 12.8441 5.84644C12.8618 5.84644 12.8789 5.84991 12.8951 5.85657Z" fill="#000080"/>
<path d="M14.1176 8.56591L12.9031 8.15737C12.7911 8.16405 12.4925 8.11179 12.0078 8C12.4833 8.14605 12.7682 8.25 12.8617 8.31214L14.1176 8.56591Z" fill="#000080"/>
<path d="M13.4194 6.15934C13.4333 6.17006 13.4446 6.18309 13.4535 6.19844C13.4622 6.21378 13.468 6.23 13.4703 6.24766C13.4726 6.26503 13.4715 6.28241 13.4669 6.2992C13.4622 6.31629 13.4547 6.33192 13.444 6.34582C13.433 6.35972 13.4199 6.3713 13.4049 6.37999C13.3895 6.38897 13.373 6.39447 13.3557 6.39678C13.338 6.3991 13.3206 6.39794 13.3038 6.39331C13.2867 6.38868 13.2711 6.38115 13.2572 6.37043C13.243 6.35972 13.2317 6.34669 13.2228 6.33134C13.2141 6.316 13.2086 6.29978 13.2062 6.28241C13.2039 6.26474 13.2051 6.24766 13.2094 6.23058C13.2141 6.21349 13.2219 6.19786 13.2326 6.18396C13.2433 6.17006 13.2563 6.15848 13.2717 6.14979C13.2867 6.14081 13.3033 6.13531 13.3209 6.13299C13.3383 6.13068 13.3557 6.13184 13.3727 6.13647C13.3898 6.1411 13.4052 6.14863 13.4194 6.15934Z" fill="#000080"/>
<path d="M13.8992 9.09349L12.8319 8.38414C12.7219 8.3615 12.4471 8.23345 12.0078 8C12.4294 8.26423 12.6776 8.43844 12.752 8.52265L13.8992 9.09349Z" fill="#000080"/>
<path d="M13.8473 6.58739C13.858 6.60129 13.8658 6.61693 13.8702 6.63401C13.8748 6.6511 13.876 6.66818 13.8736 6.68584C13.8713 6.70322 13.8658 6.71972 13.8568 6.73478C13.8482 6.75013 13.8366 6.76316 13.8227 6.77387C13.8088 6.78458 13.7931 6.7924 13.7761 6.79675C13.759 6.80138 13.7416 6.80254 13.7242 6.80022C13.7068 6.7979 13.6903 6.7924 13.675 6.78343C13.6597 6.77474 13.6466 6.76345 13.6359 6.74926C13.6252 6.73536 13.6177 6.71972 13.613 6.70293C13.6084 6.68584 13.6072 6.66847 13.6096 6.6511C13.6119 6.63343 13.6174 6.61722 13.6264 6.60187C13.635 6.58652 13.6466 6.57349 13.6605 6.56278C13.6744 6.55207 13.6901 6.54454 13.7071 6.5399C13.7242 6.53527 13.7416 6.5344 13.759 6.53643C13.7766 6.53875 13.7928 6.54454 13.8082 6.55322C13.8235 6.56191 13.8366 6.57349 13.8473 6.58739Z" fill="#000080"/>
<path d="M13.552 9.54616L12.7045 8.58449C12.604 8.53426 12.3718 8.33943 12.0078 8C12.3466 8.36469 12.5415 8.59727 12.5916 8.69773L13.552 9.54616Z" fill="#000080"/>
<path d="M14.1498 7.11202C14.1565 7.12824 14.16 7.14503 14.16 7.16269C14.16 7.18036 14.1565 7.19744 14.1498 7.21366C14.1429 7.22987 14.1333 7.24435 14.1209 7.2568C14.1084 7.26925 14.0939 7.27881 14.0777 7.28576C14.0612 7.29242 14.0444 7.2956 14.0268 7.2956C14.0091 7.2956 13.992 7.29242 13.9758 7.28576C13.9593 7.27881 13.9451 7.26925 13.9324 7.2568C13.9199 7.24435 13.9103 7.22987 13.9037 7.21366C13.8967 7.19744 13.8936 7.18036 13.8936 7.16269C13.8936 7.14503 13.8967 7.12824 13.9037 7.11202C13.9103 7.09552 13.9199 7.08133 13.9324 7.06888C13.9451 7.05642 13.9593 7.04658 13.9758 7.03992C13.992 7.03326 14.0091 7.02979 14.0268 7.02979C14.0444 7.02979 14.0612 7.03326 14.0777 7.03992C14.0939 7.04658 14.1084 7.05642 14.1209 7.06888C14.1333 7.08133 14.1429 7.09552 14.1498 7.11202Z" fill="#000080"/>
<path d="M13.0997 9.89372L12.5296 8.74535C12.4456 8.67073 12.2716 8.42218 12.0078 8C12.2409 8.44018 12.3689 8.71515 12.3912 8.8252L13.0997 9.89372Z" fill="#000080"/>
<path d="M14.3063 7.69659C14.3086 7.71425 14.3074 7.73134 14.3031 7.74842C14.2984 7.76551 14.2906 7.78085 14.2799 7.79504C14.2692 7.80894 14.2562 7.82023 14.2408 7.82921C14.2255 7.8379 14.2093 7.84369 14.1916 7.846C14.1742 7.84803 14.1568 7.84716 14.1398 7.84253C14.1227 7.8379 14.1073 7.83037 14.0931 7.81965C14.0792 7.80894 14.0677 7.79591 14.059 7.78056C14.05 7.76522 14.0445 7.749 14.0422 7.73134C14.0399 7.71396 14.041 7.69659 14.0456 7.67951C14.0503 7.66271 14.0578 7.64707 14.0685 7.63318C14.0795 7.61899 14.0923 7.60769 14.1076 7.59901C14.123 7.59003 14.1395 7.58453 14.1568 7.58221C14.1745 7.5799 14.1916 7.58105 14.2087 7.58569C14.2258 7.59003 14.2414 7.59785 14.2553 7.60856C14.2695 7.61928 14.2808 7.63231 14.2897 7.64765C14.2984 7.66271 14.3039 7.67922 14.3063 7.69659Z" fill="#000080"/>
<path d="M12.573 10.1124L12.3194 8.85511C12.2574 8.76132 12.1535 8.47619 12.0078 8C12.1193 8.48548 12.1717 8.78426 12.165 8.89663L12.573 10.1124Z" fill="#000080"/>
<path d="M12.4342 8.00002C12.4342 8.02819 12.4316 8.05577 12.4261 8.08336C12.4206 8.11094 12.4125 8.13736 12.4018 8.1635C12.3911 8.18934 12.378 8.21373 12.3624 8.23725C12.3471 8.26048 12.3294 8.28196 12.3094 8.30171C12.2897 8.32174 12.2683 8.33916 12.2448 8.35484C12.2217 8.37052 12.1971 8.38359 12.1713 8.39433C12.1455 8.40507 12.1189 8.4132 12.0914 8.41843C12.0639 8.42395 12.0361 8.42685 12.0083 8.42685C11.9802 8.42685 11.9524 8.42395 11.9249 8.41843C11.8977 8.4132 11.871 8.40507 11.845 8.39433C11.8192 8.38359 11.7946 8.37052 11.7714 8.35484C11.7482 8.33916 11.7265 8.32174 11.7068 8.30171C11.6871 8.28196 11.6695 8.26048 11.6538 8.23725C11.6382 8.21373 11.6252 8.18934 11.6145 8.1635C11.6037 8.13736 11.5956 8.11094 11.5901 8.08336C11.5846 8.05577 11.582 8.02819 11.582 8.00002C11.582 7.97215 11.5846 7.94427 11.5901 7.91698C11.5956 7.8894 11.6037 7.86268 11.6145 7.83684C11.6252 7.811 11.6382 7.78632 11.6538 7.76309C11.6695 7.73986 11.6871 7.71808 11.7068 7.69834C11.7265 7.6786 11.7482 7.66088 11.7714 7.6452C11.7946 7.62982 11.8192 7.61675 11.845 7.60601C11.871 7.59526 11.8977 7.58713 11.9249 7.58162C11.9524 7.5761 11.9802 7.57349 12.0083 7.57349C12.0361 7.57349 12.0639 7.5761 12.0914 7.58162C12.1189 7.58713 12.1455 7.59526 12.1713 7.60601C12.1971 7.61675 12.2217 7.62982 12.2448 7.6452C12.2683 7.66088 12.2897 7.6786 12.3094 7.69834C12.3294 7.71808 12.3471 7.73986 12.3624 7.76309C12.378 7.78632 12.3911 7.811 12.4018 7.83684C12.4125 7.86268 12.4206 7.8894 12.4261 7.91698C12.4316 7.94427 12.4342 7.97215 12.4342 8.00002Z" fill="#000080"/>
</svg>
