<svg width="38" height="38" viewBox="0 0 38 38" fill="none" xmlns="http://www.w3.org/2000/svg">
<path d="M27.0717 17.2865L14.6632 11.0803C14.3125 10.9048 13.9226 10.8219 13.5307 10.8395C13.1389 10.8571 12.758 10.9746 12.4244 11.1809C12.0908 11.3872 11.8155 11.6754 11.6246 12.0181C11.4337 12.3607 11.3337 12.7466 11.334 13.1388V24.8611C11.3337 25.2534 11.4337 25.6392 11.6246 25.9819C11.8155 26.3246 12.0908 26.6128 12.4244 26.819C12.758 27.0253 13.1389 27.1429 13.5307 27.1605C13.9226 27.1781 14.3125 27.0952 14.6632 26.9196L27.0717 20.7135C27.3897 20.5541 27.657 20.3095 27.8438 20.0068C28.0307 19.7042 28.1296 19.3556 28.1296 19C28.1296 18.6443 28.0307 18.2957 27.8438 17.9931C27.657 17.6905 27.3897 17.4458 27.0717 17.2865Z" fill="black" stroke="black" stroke-width="2" stroke-linecap="round" stroke-linejoin="round"/>
<path d="M19 36.25C28.5269 36.25 36.25 28.5269 36.25 19C36.25 9.47309 28.5269 1.75 19 1.75C9.47309 1.75 1.75 9.47309 1.75 19C1.75 28.5269 9.47309 36.25 19 36.25Z" stroke="black" stroke-width="2"/>
</svg>
