<svg width="15" height="8" viewBox="0 0 15 8" fill="none" xmlns="http://www.w3.org/2000/svg">
<path d="M4.01136 0.933594C4.42045 0.933594 4.79545 0.9942 5.13636 1.11541C5.48106 1.23284 5.79167 1.38814 6.06818 1.58132C6.34848 1.77071 6.5947 1.97147 6.80682 2.18359C6.94318 2.30859 7.06818 2.43738 7.18182 2.56996C7.29924 2.70253 7.40909 2.83132 7.51136 2.95632C7.60227 2.83132 7.69886 2.70822 7.80114 2.587C7.90341 2.46579 8.03409 2.33132 8.19318 2.18359C8.51136 1.86541 8.90341 1.57753 9.36932 1.31996C9.83902 1.06238 10.3864 0.933594 11.0114 0.933594C11.5871 0.933594 12.1098 1.07374 12.5795 1.35405C13.053 1.63056 13.428 2.00556 13.7045 2.47905C13.9848 2.94874 14.125 3.47147 14.125 4.04723C14.125 4.48284 14.0436 4.89193 13.8807 5.2745C13.7216 5.65329 13.5 5.98662 13.2159 6.2745C12.9318 6.55859 12.6004 6.78208 12.2216 6.94496C11.8466 7.10405 11.4432 7.18359 11.0114 7.18359C10.5947 7.18359 10.2121 7.12488 9.86364 7.00746C9.51894 6.88625 9.20644 6.73284 8.92614 6.54723C8.64962 6.35784 8.4053 6.16087 8.19318 5.95632C8.05682 5.81996 7.93182 5.68549 7.81818 5.55291C7.70455 5.41655 7.60227 5.28587 7.51136 5.16087C7.40909 5.28587 7.29924 5.41655 7.18182 5.55291C7.06818 5.68549 6.94318 5.81996 6.80682 5.95632C6.5947 6.16087 6.34848 6.35784 6.06818 6.54723C5.79167 6.73284 5.48106 6.88625 5.13636 7.00746C4.79545 7.12488 4.42045 7.18359 4.01136 7.18359C3.42803 7.18359 2.89962 7.04344 2.42614 6.76314C1.95265 6.48284 1.57576 6.10594 1.29545 5.63246C1.01515 5.15897 0.875 4.63056 0.875 4.04723C0.875 3.61541 0.954545 3.212 1.11364 2.837C1.27652 2.45821 1.5 2.12678 1.78409 1.84268C2.07197 1.55859 2.4053 1.337 2.78409 1.17791C3.16667 1.01503 3.57576 0.933594 4.01136 0.933594ZM2.17045 4.04723C2.17045 4.38814 2.25189 4.69874 2.41477 4.97905C2.58144 5.25556 2.80303 5.47715 3.07955 5.64382C3.35985 5.8067 3.67045 5.88814 4.01136 5.88814C4.38636 5.88814 4.72917 5.80291 5.03977 5.63246C5.35038 5.462 5.63636 5.25178 5.89773 5.00178C6.06818 4.83132 6.2178 4.66655 6.34659 4.50746C6.47538 4.34837 6.59091 4.19496 6.69318 4.04723C6.59091 3.91087 6.47727 3.76503 6.35227 3.60973C6.23106 3.45064 6.07955 3.28587 5.89773 3.11541C5.64773 2.86541 5.36364 2.65518 5.04545 2.48473C4.73106 2.31428 4.38636 2.22905 4.01136 2.22905C3.67045 2.22905 3.35985 2.31238 3.07955 2.47905C2.80303 2.64193 2.58144 2.86162 2.41477 3.13814C2.25189 3.41087 2.17045 3.7139 2.17045 4.04723ZM12.8295 4.04723C12.8295 3.7139 12.7462 3.41087 12.5795 3.13814C12.4167 2.86162 12.197 2.64193 11.9205 2.47905C11.6477 2.31238 11.3447 2.22905 11.0114 2.22905C10.7538 2.22905 10.5114 2.26882 10.2841 2.34837C10.0568 2.42412 9.8447 2.53018 9.64773 2.66655C9.45076 2.79912 9.26894 2.94875 9.10227 3.11541C8.89773 3.30859 8.72727 3.49609 8.59091 3.67791C8.45833 3.85594 8.36364 3.97905 8.30682 4.04723C8.40909 4.19496 8.52462 4.34837 8.65341 4.50746C8.7822 4.66655 8.93182 4.83132 9.10227 5.00178C9.36364 5.25178 9.64962 5.462 9.96023 5.63246C10.2746 5.80291 10.625 5.88814 11.0114 5.88814C11.3447 5.88814 11.6477 5.8067 11.9205 5.64382C12.197 5.47715 12.4167 5.25556 12.5795 4.97905C12.7462 4.69874 12.8295 4.38814 12.8295 4.04723Z" fill="#303245"/>
</svg>
