<svg width="23" height="23" viewBox="0 0 23 23" fill="none" xmlns="http://www.w3.org/2000/svg">
<path d="M5.28431 10.6153L5.30006 10.6355C5.50797 7.60697 8.06428 5.21303 11.1908 5.21303C11.1923 5.21303 11.1939 5.21303 11.1939 5.21303C11.1955 5.21303 11.1971 5.21303 11.1971 5.21303C12.7894 5.21303 14.2354 5.83516 15.2969 6.8452V0.766439C14.029 0.273064 12.6461 0 11.1986 0C5.0134 0 0 4.93841 0 11.0311C0 14.9843 2.11216 18.4504 5.28431 20.3975V10.6153Z" fill="#00E6FF"/>
<path d="M17.1054 1.66016V11.4485L17.0896 11.4284C16.8833 14.4568 14.3255 16.8508 11.1989 16.8508C11.1974 16.8508 11.1958 16.8508 11.1958 16.8508C11.1942 16.8508 11.1926 16.8508 11.1926 16.8508C9.60025 16.8508 8.15435 16.2288 7.09277 15.2186V21.2959C8.36541 21.7908 9.74988 22.0654 11.2005 22.0654C17.3858 22.0654 22.3991 17.1271 22.3991 11.0343C22.3991 7.07487 20.2823 3.60728 17.1054 1.66016Z" fill="#007AFF"/>
<path d="M14.6164 8.80124C14.5801 8.98897 14.514 9.17359 14.4115 9.34736C13.9218 10.1836 12.8381 10.4691 11.9892 9.98658C11.1402 9.50407 10.8504 8.43663 11.3403 7.60038C11.4741 7.3723 11.6537 7.18614 11.8585 7.04494C11.6442 7.01081 11.4237 6.99219 11.1985 6.99219C8.93357 6.99219 7.09863 8.79968 7.09863 11.0307C7.09863 13.2618 8.93514 15.0693 11.1985 15.0693C13.4619 15.0693 15.2984 13.2618 15.2984 11.0307C15.2984 10.2069 15.048 9.44045 14.6164 8.80124Z" fill="#9D60FB"/>
</svg>
