<?xml version="1.0" standalone="no"?>
<!DOCTYPE svg PUBLIC "-//W3C//DTD SVG 20010904//EN"
 "http://www.w3.org/TR/2001/REC-SVG-20010904/DTD/svg10.dtd">
<svg version="1.0" xmlns="http://www.w3.org/2000/svg" width="200.000000pt" height="157.000000pt" viewBox="0 0 200.000000 157.000000" preserveAspectRatio="xMidYMid meet">

    <g transform="translate(0.000000,157.000000) scale(0.100000,-0.100000)" fill="#57E4FF" stroke="none">
        <path d="M790 1560 c-250 -20 -473 -115 -599 -257 -62 -69 -125 -193 -151 -296 -33 -132 -41 -273 -38 -647 l3 -355 390 0 390 0 3 387 2 388 -149 0 -149 0 -7 31 c-4 17 -4 61 0 98 20 188 116 284 330 328 l85 18 0 157 c0 87 -3 157 -7 157 -5 -1 -51 -5 -103 -9z"/>
        <path d="M1890 1560 c-377 -30 -630 -199 -731 -487 -48 -137 -51 -175 -56 -636 l-5 -437 394 2 393 3 3 387 2 388 -150 0 -150 0 -6 26 c-13 49 5 174 32 235 51 114 150 172 347 204 l37 6 0 159 c0 88 -3 159 -7 159 -5 -1 -51 -5 -103 -9z"/>
    </g>
</svg>
