<svg width="26" height="33" viewBox="0 0 26 33" fill="none" xmlns="http://www.w3.org/2000/svg">
<path d="M5.76355 0.0541153C5.30887 0.195866 4.95025 0.518028 2.65123 2.84404C0.473892 5.04118 0.198522 5.34401 0.102463 5.62752C0.00640394 5.91746 0 6.96127 0 17.2511C0 25.4662 0.0192118 28.6234 0.0704433 28.7974C0.185714 29.1775 0.569951 29.635 0.960591 29.8541C1.27438 30.0345 1.37685 30.0538 1.96601 30.0732L2.62562 30.0989V30.827C2.62562 31.5036 2.63842 31.5744 2.82414 31.9481C3.05468 32.4121 3.44532 32.7471 3.92562 32.8889C4.41231 33.037 24.2133 33.037 24.7 32.8889C25.1803 32.7471 25.5709 32.4121 25.8015 31.9481L26 31.5487V17.947V4.34531L25.8463 4.02315C25.6286 3.54635 25.3788 3.28862 24.9433 3.08244C24.6103 2.92136 24.4823 2.89558 23.9699 2.89558H23.3744V2.1675C23.3744 1.47807 23.3616 1.41364 23.1759 1.03349C23.0414 0.769318 22.8813 0.563129 22.6892 0.414936C22.1128 -0.0296478 22.5931 -0.00387192 13.8389 0.00257111C9.48424 0.00257111 5.8532 0.0283432 5.76355 0.0541153ZM21.8887 1.05282C21.9847 1.10436 22.132 1.22034 22.2217 1.31699L22.3818 1.49096L22.4138 12.9277L22.4458 24.3645L22.6251 24.5191C22.8429 24.7059 22.9837 24.7124 23.2079 24.5384L23.3744 24.4096V14.1326V3.86207H23.8611C24.4374 3.86207 24.7256 3.97805 24.9113 4.28088C25.0394 4.48706 25.0394 4.53861 25.0266 17.9921L25.0074 31.4907L24.8473 31.6646C24.4951 32.0448 25.2059 32.019 14.3128 32.019C3.4197 32.019 4.13054 32.0448 3.77833 31.6646C3.63103 31.51 3.61823 31.4391 3.59901 30.7884L3.5734 30.086L12.8207 30.0732L22.0616 30.0538L22.3241 29.9121C22.7532 29.6801 22.9709 29.4611 23.1759 29.0422L23.3744 28.6492V27.4314C23.3744 26.3039 23.368 26.2137 23.2463 26.0912C23.0862 25.9302 22.7916 25.9237 22.5995 26.0848C22.4522 26.2072 22.4458 26.2459 22.4138 27.3928C22.3754 28.7007 22.3433 28.8232 21.9335 29.0165C21.7414 29.1067 20.7167 29.1196 11.6872 29.1196C0.563547 29.1196 1.36404 29.1518 1.08867 28.7007C0.960591 28.4946 0.960591 28.4108 0.960591 17.3349V6.18163H2.88818C4.16897 6.18163 4.90542 6.15586 5.06552 6.10432C5.39212 6.00767 5.79557 5.65973 5.97488 5.31824C6.10936 5.06696 6.11576 4.97675 6.13498 3.00512L6.15419 0.962612H13.935C20.4926 0.962612 21.7414 0.975498 21.8887 1.05282ZM5.15517 4.74479C5.13596 4.86077 5.04631 5.00897 4.95025 5.08628C4.79655 5.20871 4.70049 5.21515 3.20837 5.21515H1.633L3.39409 3.44326L5.15517 1.67137L5.17438 3.10177C5.18719 3.89429 5.17438 4.62881 5.15517 4.74479Z" fill="#4F46E5"/>
<path d="M16.6565 6.61935C16.4644 6.77399 16.458 7.10904 16.6437 7.29589C16.7526 7.41187 16.8807 7.44408 17.2969 7.46986L17.8157 7.50207L15.523 9.28685C13.2753 11.0394 13.2304 11.0716 13.0895 10.9621C13.0127 10.9041 12.4171 10.3693 11.7575 9.77654C10.4575 8.60387 10.3038 8.52011 9.85556 8.7134C9.63142 8.81005 3.87428 13.2623 3.72699 13.4492C3.48364 13.7713 3.84866 14.3319 4.21369 14.1966C4.30975 14.1579 5.68019 13.1206 7.25556 11.8899C8.83733 10.6593 10.1629 9.667 10.2014 9.68633C10.2462 9.69922 10.829 10.2147 11.495 10.8268C12.1674 11.4324 12.7758 11.9544 12.859 11.9866C13.1024 12.0832 13.4674 12.051 13.6723 11.9221C13.7812 11.8577 14.9275 10.975 16.2339 9.95695C17.5339 8.94536 18.6161 8.1464 18.6226 8.17861C18.6354 8.21727 18.6161 8.48789 18.5777 8.77783C18.5137 9.26108 18.5137 9.31907 18.6226 9.46726C18.8147 9.72499 19.2694 9.72499 19.4038 9.46726C19.4743 9.33195 19.724 7.46986 19.724 7.03172C19.724 6.84486 19.6856 6.72244 19.596 6.63224C19.4743 6.50982 19.3846 6.50337 18.1294 6.50337C16.9511 6.50337 16.7782 6.51626 16.6565 6.61935Z" fill="#4F46E5"/>
<path d="M18.6623 11.0331C18.3933 11.1942 17.1638 12.1865 17.0677 12.3218C16.9845 12.4442 16.9716 12.9339 16.9716 15.988V19.5189H16.1391H15.3066V17.1735V14.8282L15.1401 14.6284C14.9544 14.4094 14.6086 14.3127 14.378 14.4158C14.1859 14.506 12.8923 15.5176 12.681 15.7496L12.5209 15.9235L12.5017 17.7212L12.4825 19.5189H11.6884H10.8879V16.4841C10.8879 13.095 10.8879 13.1207 10.4588 12.9145C10.1322 12.7535 9.95933 12.8308 9.08199 13.4816C8.02534 14.2741 8.07017 14.1968 8.07017 15.2792C8.07017 16.1426 8.07657 16.1813 8.23026 16.3295C8.42879 16.5356 8.67214 16.5356 8.87066 16.3295C9.02435 16.1813 9.03076 16.1297 9.03076 15.4467L9.03716 14.7187L9.4278 14.4287C9.64553 14.2676 9.84406 14.1259 9.87608 14.1194C9.90169 14.1065 9.92731 15.3179 9.92731 16.8063V19.5189H9.47903H9.03076V18.8101C9.03076 18.14 9.02435 18.0885 8.87066 17.9403C8.67214 17.7341 8.42879 17.7341 8.23026 17.9403C8.07657 18.0885 8.07017 18.14 8.07017 18.8101V19.5189H7.23765H6.40514V18.1658C6.40514 16.7096 6.37312 16.5421 6.07854 16.3875C5.67509 16.1813 5.5214 16.2457 4.47115 17.0898C3.5746 17.805 3.62583 17.7148 3.60022 18.6812L3.5746 19.506L3.12632 19.5318C2.74849 19.5511 2.65243 19.5833 2.55637 19.7057C2.39627 19.899 2.40268 20.1954 2.56278 20.3565C2.69086 20.4854 2.77411 20.4854 11.6884 20.4854C20.6027 20.4854 20.6859 20.4854 20.814 20.3565C20.9741 20.1954 20.9805 19.899 20.8204 19.7057C20.7179 19.5833 20.6283 19.5511 20.2505 19.5318L19.7958 19.506L19.7766 15.4983C19.7638 12.3411 19.7381 11.4648 19.6741 11.3488C19.482 11.0138 18.9633 10.8527 18.6623 11.0331ZM18.8288 15.8462V19.5189H18.3805H17.9322V16.1684V12.8179L18.3357 12.5022C18.5534 12.3218 18.7519 12.18 18.784 12.1736C18.8096 12.1736 18.8288 13.823 18.8288 15.8462ZM14.346 17.5859V19.5189H13.8978H13.4495V17.9145V16.3166L13.8785 15.9815C14.1155 15.8011 14.314 15.6529 14.3268 15.6529C14.3396 15.6529 14.346 16.5228 14.346 17.5859ZM5.44455 18.5524V19.5189H5.02829H4.61204V18.8552V18.198L5.00908 17.8887C5.22682 17.7212 5.41253 17.5859 5.42534 17.5859C5.43815 17.5859 5.44455 18.0176 5.44455 18.5524Z" fill="#4F46E5"/>
<path d="M2.57482 23.1466C2.3763 23.3592 2.3891 23.662 2.60043 23.8295C2.76694 23.9584 2.83738 23.9648 5.34772 23.9648C7.85807 23.9648 7.92851 23.9584 8.09501 23.8295C8.30634 23.662 8.32556 23.3205 8.13344 23.1272C8.01176 23.0048 7.92211 22.9984 5.36053 22.9984H2.7093L2.57482 23.1466Z" fill="#4F46E5"/>
<path d="M2.56278 25.3826C2.40268 25.5437 2.39627 25.8401 2.55637 26.0334L2.67805 26.188H5.33568C7.85884 26.188 7.99972 26.1815 8.1278 26.0656C8.30071 25.9045 8.31352 25.5114 8.14701 25.3633C8.03815 25.2666 7.74997 25.2537 5.3613 25.2537C2.77411 25.2537 2.68445 25.2602 2.56278 25.3826Z" fill="#4F46E5"/>
</svg>
