<svg width="128" height="21" viewBox="0 0 128 21" fill="none" xmlns="http://www.w3.org/2000/svg">
<path d="M10 0.954956L12.2451 7.76009H19.5106L13.6327 11.9659L15.8779 18.771L10 14.5652L4.12215 18.771L6.36729 11.9659L0.489435 7.76009H7.75486L10 0.954956Z" fill="#FF814A"/>
<path d="M37 0.954956L39.2451 7.76009H46.5106L40.6327 11.9659L42.8779 18.771L37 14.5652L31.1221 18.771L33.3673 11.9659L27.4894 7.76009H34.7549L37 0.954956Z" fill="#FF814A"/>
<path d="M64 0.954956L66.2451 7.76009H73.5106L67.6327 11.9659L69.8779 18.771L64 14.5652L58.1221 18.771L60.3673 11.9659L54.4894 7.76009H61.7549L64 0.954956Z" fill="#FF814A"/>
<path d="M91 0.954956L93.2451 7.76009H100.511L94.6327 11.9659L96.8779 18.771L91 14.5652L85.1221 18.771L87.3673 11.9659L81.4894 7.76009H88.7549L91 0.954956Z" fill="#FF814A"/>
<path d="M118 0.954956L120.245 7.76009H127.511L121.633 11.9659L123.878 18.771L118 14.5652L112.122 18.771L114.367 11.9659L108.489 7.76009H115.755L118 0.954956Z" fill="#FF814A"/>
</svg>
