<svg width="20" height="24" viewBox="0 0 20 24" fill="none" xmlns="http://www.w3.org/2000/svg">
<path d="M13.1635 23.6302L20 22.1128C20 22.1128 17.534 5.01536 17.5137 4.90214C17.4933 4.79022 17.4044 4.71474 17.3129 4.71474C17.2214 4.71474 15.4847 4.5833 15.4847 4.5833C15.4847 4.5833 14.279 3.3483 14.1329 3.21686C14.0986 3.17912 14.0605 3.1609 14.0236 3.14138L13.1635 23.6302ZM13.7301 3.10494C13.7098 3.10494 13.6755 3.12316 13.6577 3.12316C13.6374 3.12316 13.382 3.19994 12.9806 3.32878C12.5765 2.13282 11.8638 1.02795 10.6035 1.02795H10.4942C10.127 0.558156 9.69 0.352539 9.30504 0.352539C6.3626 0.352539 4.95236 4.11611 4.51531 6.02522C3.38204 6.3831 2.5613 6.64467 2.46601 6.68241C1.82569 6.88803 1.80917 6.90625 1.73675 7.5257C1.66434 7.97337 0 21.1758 0 21.1758L12.8535 23.6471L13.7301 3.10494ZM10.3824 4.02111V4.15385C9.67221 4.37898 8.88578 4.62234 8.11714 4.8657C8.55673 3.14398 9.37746 2.29939 10.0902 1.98056C10.2757 2.46857 10.3824 3.12316 10.3824 4.02111ZM9.21357 1.15809C9.34062 1.15809 9.46894 1.19453 9.59853 1.29083C8.66853 1.7385 7.64325 2.88111 7.22145 5.16631C6.6262 5.36135 6.0286 5.54876 5.42879 5.72851C5.92301 3.98597 7.11218 1.15809 9.21357 1.15809ZM9.7243 11.3244C9.7243 11.3244 8.95693 10.9145 8.04472 10.9145C6.6726 10.9145 6.61796 11.7942 6.61796 12.0193C6.61796 13.2179 9.69 13.6851 9.69 16.513C9.69 18.7409 8.31787 20.1646 6.45407 20.1646C4.2231 20.1646 3.08982 18.7409 3.08982 18.7409L3.6933 16.7186C3.6933 16.7186 4.86469 17.7493 5.84932 17.7493C5.96758 17.7542 6.08559 17.7346 6.1963 17.6917C6.307 17.6488 6.40813 17.5835 6.49364 17.4997C6.57915 17.4159 6.64729 17.3153 6.69397 17.2039C6.74065 17.0925 6.76493 16.9726 6.76534 16.8513C6.76534 15.278 4.24215 15.2012 4.24215 12.6193C4.24215 10.4473 5.76039 8.33125 8.85021 8.33125C10.0394 8.33125 10.6225 8.68522 10.6225 8.68522L9.7243 11.3244ZM10.8957 1.84912C11.5538 1.9272 11.9756 2.69241 12.2475 3.55522C11.9197 3.66844 11.5525 3.78035 11.1511 3.91049V3.66713C11.1511 2.93706 11.0596 2.33713 10.8957 1.84912Z" fill="black"/>
</svg>
