<svg width="178" height="45" viewBox="0 0 178 45" fill="none" xmlns="http://www.w3.org/2000/svg">
<path d="M16.7589 5.66618C17.2349 4.4166 17.8895 3.26619 18.8614 2.33396C22.749 -1.45446 29.1754 -0.502398 31.8134 4.25792C33.7969 7.86783 35.8994 11.3984 37.9423 14.9686L48.177 32.7802C51.0134 37.7587 47.939 44.0463 42.306 44.8992C38.8547 45.4149 35.6217 43.8281 33.8366 40.7339L24.8316 25.1042C24.7721 24.9852 24.6928 24.886 24.6134 24.7868C24.2961 24.529 24.1572 24.1521 23.9589 23.8149L17.3341 12.3306C16.5606 10.9819 16.2035 9.51411 16.2432 7.96701C16.3027 7.17362 16.4019 6.38023 16.7589 5.66618Z" fill="#4185F4"/>
<path d="M16.7593 5.66618C16.5807 6.38023 16.4221 7.09428 16.3824 7.848C16.3229 9.51411 16.7394 11.0612 17.5725 12.5091L24.0981 23.7951C24.2964 24.1323 24.4551 24.4695 24.6534 24.7868L21.0634 30.9554L16.0452 39.6033C15.9659 39.6033 15.946 39.5636 15.9262 39.5041C15.9064 39.3455 15.9659 39.2066 16.0055 39.0479C16.8188 36.0727 16.1444 33.4347 14.1014 31.1736C12.8518 29.805 11.265 29.0314 9.44026 28.7736C7.0601 28.4364 4.95762 29.0513 3.07333 30.5389C2.73614 30.7967 2.51796 31.1736 2.12126 31.3719C2.04193 31.3719 2.00226 31.3322 1.98242 31.2727L4.81878 26.3339L16.6204 5.88436C16.6601 5.80503 16.7196 5.74552 16.7593 5.66618Z" fill="#F9BC02"/>
<path d="M2.06237 31.3323L3.19294 30.3207C8.01277 26.5125 15.2524 29.2695 16.3037 35.2992C16.5615 36.7471 16.4227 38.1356 15.9863 39.524C15.9665 39.643 15.9466 39.7422 15.907 39.8612C15.7285 40.1785 15.5698 40.5157 15.3714 40.8331C13.6061 43.7488 11.0078 45.1967 7.59624 44.9785C3.68881 44.7009 0.614436 41.7653 0.0788996 37.8777C-0.178951 35.9934 0.197908 34.2281 1.16981 32.6017C1.36815 32.2447 1.60617 31.9273 1.82435 31.5703C1.92352 31.491 1.88385 31.3323 2.06237 31.3323Z" fill="#33A752"/>
<path d="M62.9739 11.2324C57.3682 11.2324 52.7051 15.7339 52.7051 21.2742C52.7051 26.8146 57.3682 31.2666 62.9739 31.2666C66 31.2666 68.2324 30.2773 70.0182 28.447C71.8537 26.6167 72.3994 24.0938 72.3994 22.0657C72.3994 21.4226 72.3498 20.829 72.2506 20.3343H62.9739V23.055H69.5718C69.3733 24.5885 68.8773 25.7263 68.0835 26.5177C67.141 27.4576 65.6031 28.5459 62.9739 28.5459C58.9061 28.5459 55.7312 25.2811 55.7312 21.2742C55.7312 17.2674 58.9061 14.0025 62.9739 14.0025C65.1567 14.0025 66.7937 14.8435 67.9347 15.9812L69.8694 14.052C68.2324 12.469 66.0496 11.2324 62.9739 11.2324ZM79.791 18.4051C76.2688 18.4051 73.342 21.1258 73.342 24.9348C73.342 28.6943 76.2192 31.4645 79.791 31.4645C83.3628 31.4645 86.24 28.6943 86.24 24.9348C86.24 21.1753 83.3132 18.4051 79.791 18.4051ZM79.791 28.8922C77.8563 28.8922 76.1696 27.2598 76.1696 24.9348C76.1696 22.6098 77.8563 20.9774 79.791 20.9774C81.7257 20.9774 83.4124 22.5604 83.4124 24.9348C83.4124 27.2598 81.7257 28.8922 79.791 28.8922ZM93.7804 18.4051C90.2087 18.4051 87.3314 21.1258 87.3314 24.9348C87.3314 28.6943 90.2087 31.4645 93.7804 31.4645C97.3026 31.4645 100.229 28.6943 100.229 24.9348C100.229 21.1753 97.3522 18.4051 93.7804 18.4051ZM93.7804 28.8922C91.8457 28.8922 90.1591 27.2598 90.1591 24.9348C90.1591 22.6098 91.8457 20.9774 93.7804 20.9774C95.7152 20.9774 97.4018 22.5604 97.4018 24.9348C97.4018 27.2598 95.7648 28.8922 93.7804 28.8922ZM107.72 18.4051C104.496 18.4051 101.569 21.2248 101.569 24.8853C101.569 28.4964 104.496 31.3161 107.72 31.3161C109.258 31.3161 110.449 30.6235 111.094 29.8321H111.193V30.7719C111.193 33.2453 109.903 34.5809 107.77 34.5809C106.034 34.5809 104.992 33.3442 104.545 32.3054L102.065 33.3442C102.759 35.0756 104.645 37.1532 107.77 37.1532C111.094 37.1532 113.872 35.1745 113.872 30.4257V18.8503H111.193V19.8891H111.094C110.449 19.0977 109.258 18.4051 107.72 18.4051ZM107.968 28.7932C106.034 28.7932 104.397 27.1608 104.397 24.8853C104.397 22.6098 106.034 20.928 107.968 20.928C109.903 20.928 111.391 22.6098 111.391 24.8853C111.391 27.1608 109.903 28.7932 107.968 28.7932ZM115.955 12.0238H118.783V31.1182H115.955V12.0238ZM126.373 18.4051C123 18.4051 120.172 21.0269 120.172 24.9348C120.172 28.5954 122.95 31.4645 126.671 31.4645C129.697 31.4645 131.433 29.6342 132.127 28.5954L129.895 27.1114C129.151 28.1996 128.109 28.8922 126.671 28.8922C125.182 28.8922 124.14 28.2491 123.496 26.9135L132.276 23.3024L131.979 22.5604C131.433 21.1258 129.746 18.4051 126.373 18.4051ZM123 24.7369C122.9 22.2141 124.984 20.928 126.422 20.928C127.563 20.928 128.556 21.4721 128.853 22.313L123 24.7369ZM137.237 30.8214L143.785 13.4584H146.315L152.863 30.8214H150.383L148.696 26.122H141.404L139.717 30.8214H137.237ZM142.148 24.0444H147.952L145.125 16.2286H145.025L142.148 24.0444ZM155.145 29.3869C154.054 28.1502 153.508 26.6662 153.508 24.8853C153.508 23.154 154.054 21.67 155.145 20.3838C156.286 19.1471 157.576 18.5535 159.164 18.5535C160.057 18.5535 160.85 18.7514 161.545 19.0977C162.289 19.4934 162.835 19.9386 163.232 20.5817H163.331L163.232 18.9493V13.4584H165.464V30.8214H163.331V29.189H163.232C162.835 29.7826 162.289 30.2773 161.545 30.673C160.801 31.0687 160.007 31.2171 159.164 31.2171C157.576 31.2171 156.237 30.6235 155.145 29.3869ZM162.19 28.0018C162.934 27.2103 163.281 26.1715 163.281 24.8853C163.281 23.6487 162.934 22.6098 162.19 21.8184C161.495 21.0269 160.602 20.6311 159.511 20.6311C158.42 20.6311 157.527 21.0269 156.832 21.8184C156.088 22.6098 155.741 23.6487 155.741 24.8853C155.741 26.122 156.088 27.1608 156.832 27.9523C157.576 28.7438 158.469 29.1395 159.511 29.1395C160.602 29.189 161.495 28.7932 162.19 28.0018ZM175.782 30.1289C174.889 30.8214 173.748 31.2171 172.359 31.2171C171.169 31.2171 170.127 30.9203 169.184 30.2773C168.292 29.6342 167.647 28.8427 167.25 27.8039L169.234 26.963C169.532 27.6555 169.929 28.2491 170.524 28.6448C171.07 29.0406 171.714 29.2384 172.359 29.2384C173.054 29.2384 173.649 29.09 174.145 28.7932C174.641 28.4964 174.84 28.1007 174.84 27.705C174.84 26.963 174.245 26.3693 173.104 26.0231L171.07 25.5284C168.738 24.9348 167.597 23.8465 167.597 22.1646C167.597 21.0764 168.044 20.2354 168.936 19.5429C169.829 18.8998 170.97 18.5535 172.31 18.5535C173.317 18.5468 174.309 18.8025 175.187 19.2955C176.03 19.7902 176.626 20.4827 176.973 21.3237L174.989 22.1646C174.741 21.67 174.393 21.2742 173.897 20.9774C173.401 20.6806 172.806 20.5322 172.161 20.5322C171.566 20.5322 171.07 20.6806 170.574 20.9774C170.127 21.2742 169.879 21.6205 169.879 22.0657C169.879 22.7582 170.524 23.2529 171.814 23.5003L173.6 23.9455C175.981 24.5391 177.122 25.7263 177.122 27.5071C177.171 28.5459 176.675 29.4363 175.782 30.1289Z" fill="#5E6166"/>
</svg>
