<svg width="162" height="45" viewBox="0 0 162 45" fill="none" xmlns="http://www.w3.org/2000/svg">
<g clip-path="url(#clip0_244_118)">
<path d="M41.5957 12.9406V22.2885H44.4199V18.7299H45.9166L50.125 22.2885H54.4459L48.6184 17.5342L54.0225 12.9406H49.6543L46.0201 16.3296H44.4199V12.9406H41.5957Z" fill="#2F2F30"/>
<path d="M108.361 12.9406V22.2885H111.186V18.7299H112.682L116.891 22.2885H121.212L115.384 17.5342L120.788 12.9406H116.419L112.786 16.3296H111.186V12.9406H108.361Z" fill="#2F2F30"/>
<path d="M67.0564 14.8044C66.8034 13.4894 65.9809 13.0692 64.6388 12.9381C63.9113 12.8704 62.4291 12.8342 60.8295 12.8342C59.2298 12.8342 57.7476 12.8704 57.0201 12.9381C55.678 13.0692 54.8556 13.4894 54.6025 14.8044C54.3356 16.6733 54.3356 18.5706 54.6025 20.4394C54.8872 21.9939 55.9853 22.1746 56.6089 22.2876C56.9523 22.3509 58.8457 22.4413 60.8295 22.4548C62.8132 22.4413 64.7066 22.3509 65.05 22.2876C65.6736 22.1747 66.7717 21.9939 67.0564 20.4394C67.3233 18.5706 67.3233 16.6733 67.0564 14.8044ZM64.3496 18.9166C64.3496 18.9166 64.3722 19.9378 63.0301 19.9875C62.3839 20.0101 61.5751 20.0327 60.8295 20.0327C60.0839 20.0327 59.275 20.0101 58.6288 19.9875C57.2867 19.9378 57.3093 18.9166 57.3093 18.9166C57.2372 18.1002 57.2372 17.2792 57.3093 16.4628C57.4584 15.6992 57.6211 15.3422 58.7508 15.2653C59.2479 15.2292 60.0703 15.2292 60.8295 15.2337C61.5886 15.2292 62.4111 15.2292 62.9081 15.2653C64.0378 15.3422 64.2005 15.6991 64.3497 16.4628C64.4217 17.2792 64.4217 18.1003 64.3496 18.9166Z" fill="#2F2F30"/>
<path d="M68.3691 22.2606V12.9591H73.415L78.2727 19.9449H78.5742V12.9591H81.3984V22.2606H76.4466L71.5133 15.3315H71.2311V22.2606H68.3691Z" fill="#2F2F30"/>
<path d="M82.7168 22.2606V12.9591H87.7626L92.6204 19.9449H92.9219V12.9591H95.7461V22.2606H90.7943L85.8609 15.3315H85.5788V22.2606H82.7168Z" fill="#2F2F30"/>
<path d="M107.401 12.9591H97.0645V22.2606H107.401V20.0763H99.8698V18.5702H107.006V16.4993H99.8509V15.1434H107.401V12.9591Z" fill="#2F2F30"/>
<path d="M161.288 12.9591H150.951V22.2606H161.288V20.0763H153.756V18.5702H160.893V16.4993H153.738V15.1434H161.288V12.9591Z" fill="#2F2F30"/>
<path d="M121.352 12.9406V15.3315H125.55V22.2885H128.506V15.3315H132.667V12.9406H121.352Z" fill="#2F2F30"/>
<path d="M136.34 12.9404H133.365V22.2887H136.34V12.9404Z" fill="#2F2F30"/>
<path d="M136.801 12.9406H139.954L143.344 19.9633H143.89L147.279 12.9406H150.404L145.848 22.2885H141.423L136.801 12.9406Z" fill="#2F2F30"/>
<path d="M52.5153 28.3233C52.5351 27.7623 52.4972 27.2008 52.4024 26.6475C52.2612 26.1862 51.8846 25.5461 50.5195 25.3672C48.3297 25.1725 46.1264 25.1851 43.939 25.4049C43.4215 25.4009 42.9221 25.5944 42.5424 25.9461C42.1628 26.2977 41.9317 26.7809 41.8961 27.2971C41.6605 29.1076 41.6763 30.9419 41.9431 32.748C42.1973 33.8871 42.621 34.2354 43.6848 34.4425C44.7486 34.6496 49.2957 34.6784 50.6137 34.5178C51.9317 34.3573 52.2423 33.8777 52.4118 33.4446C52.5933 32.7796 52.6695 32.0903 52.6377 31.4017H51.4421L51.4139 32.3055C51.4139 32.3055 51.4327 33.1999 50.6325 33.3223C48.5275 33.5423 46.4068 33.5706 44.2967 33.407C43.9741 33.3714 43.6753 33.2202 43.4555 32.9814C43.2357 32.7426 43.1098 32.4323 43.1011 32.1078C43.1011 32.1078 43.007 31.1193 43.007 30.1873C43.007 28.9917 43.1199 27.7302 43.1199 27.7302C43.1199 27.7302 43.2258 26.5746 44.1931 26.5346C46.1647 26.2871 48.1584 26.2713 50.1335 26.4875C50.1335 26.4875 51.348 26.4969 51.348 27.6267V28.3139L52.5153 28.3233Z" fill="#2F2F30"/>
<path d="M62.9672 30.5345C62.9672 30.5345 64.0563 30.3357 64.2596 29.6443C64.5671 28.5504 64.526 27.3879 64.1421 26.3184C64.1421 26.3184 63.758 25.3469 62.0319 25.3017C62.0319 25.3017 60.8118 25.2294 59.9622 25.2294H53.6855V34.6195H54.9237V31.0135H61.3676C61.3676 31.0135 62.4566 30.9954 62.8136 31.61C62.8136 31.61 63.0215 31.8449 63.0215 32.6629V34.6195H64.2913V32.464C64.2913 32.464 64.3319 31.375 63.8123 30.9592C63.5636 30.7598 63.2757 30.615 62.9672 30.5345ZM62.6419 29.6398C62.2352 29.8431 61.7833 29.9244 60.5316 29.9244H54.9237V26.3139H60.4457C60.4457 26.3139 62.2126 26.2687 62.7232 26.6754C63.2293 27.0775 63.1932 27.7599 63.1932 28.2208C63.1932 28.6772 63.0531 29.4319 62.6419 29.6398Z" fill="#2F2F30"/>
<path d="M65.6016 34.6199V25.2297H68.1432L73.189 33.1623L78.1975 25.2297H80.7207V34.6199H79.4589V26.4029H78.9319L73.7164 34.6199H72.7188L67.4088 26.4218H66.8625V34.6199H65.6016Z" fill="#2F2F30"/>
<path d="M22.9515 5.70018C17.2029 15.6784 9.15177 22.9294 9.15177 22.9294C8.56387 17.9484 10.7522 9.08071 10.7522 9.08071C5.33036 11.6447 3.28898 17.2135 3.28898 17.2135C3.28898 17.2135 2.34173 26.0485 9.18443 37.9212C3.7135 34.9326 0.177912 29.1329 0.00643091 22.4558C-0.143748 16.608 2.3462 11.5272 6.4438 8.30462C9.43371 5.95321 13.4958 4.86727 17.5949 4.86727C18.3322 4.86632 19.0688 4.91541 19.7996 5.0142L17.9705 10.0278C18.1338 9.79928 19.9956 7.34963 21.2204 5.24287C22.2982 3.43015 22.6085 1.72916 21.2204 2.07205C18.8197 2.67629 17.732 4.16632 16.8991 4.248C16.1993 4.31661 16.3293 4.20292 16.46 4.05589C18.73 1.31227 28.7 -4.27803 22.9515 5.70018Z" fill="url(#paint0_linear_244_118)"/>
<path d="M21.2206 5.24287C19.9957 7.34963 18.134 9.79928 17.9707 10.0278L19.7998 5.01419C20.2772 5.06394 20.7516 5.14029 21.2206 5.24287Z" fill="#6F1D20"/>
<path d="M34.9388 35.4879C33.5507 35.6512 32.0537 35.1285 30.3389 34.5242C23.0389 31.9766 13.7576 24.3175 12.8594 23.5172C13.2677 23.7948 14.9333 24.8891 15.5866 24.9217C16.3542 24.9217 22.4784 16.103 26.2998 7.16989C28.3078 8.31465 30.0707 9.84372 31.4879 11.6698C32.905 13.4959 33.9485 15.5832 34.559 17.8125C35.1694 20.0419 35.3348 22.3697 35.0456 24.663C34.7564 26.9563 34.0184 29.1701 32.8736 31.1782C32.745 31.4038 32.6114 31.6264 32.473 31.8461C31.738 31.9767 27.9329 31.1602 27.5083 31.0622C29.0924 31.7971 30.5622 32.4667 31.738 32.9076C32.8812 33.3486 33.7304 33.5609 34.1387 33.3649C34.9716 32.973 33.6651 30.9152 33.7958 30.7029C33.9263 30.4743 34.3184 29.6577 34.3184 29.6577C34.3184 29.6577 37.5028 35.194 34.9388 35.4879Z" fill="url(#paint1_linear_244_118)"/>
<path d="M32.4725 31.8461C32.2438 32.2054 31.9988 32.5647 31.7376 32.9076C30.5617 32.4667 29.092 31.7971 27.5078 31.0622C27.9325 31.1602 31.7376 31.9767 32.4725 31.8461Z" fill="#6F1D20"/>
<path d="M22.1837 39.4563C20.6869 39.8569 19.1441 40.0601 17.5946 40.0606C15.9654 40.0637 14.3437 39.8383 12.7771 39.391H12.7444C12.5897 39.3879 12.4371 39.4274 12.3034 39.5053C11.9278 39.7993 12.1891 42.1182 12.1891 42.1182C11.7575 41.0523 11.4081 39.955 11.144 38.8357C10.0824 34.655 9.2006 28.9064 9.2006 28.9064C9.2006 28.9064 7.76346 26.4568 8.22068 27.0121C13.0874 33.1852 22.1837 39.4563 22.1837 39.4563Z" fill="url(#paint2_linear_244_118)"/>
<path d="M17.6173 45C23.2794 45 27.8694 44.6947 27.8694 44.318C27.8694 43.9414 23.2794 43.6361 17.6173 43.6361C11.9553 43.6361 7.36523 43.9414 7.36523 44.318C7.36523 44.6947 11.9553 45 17.6173 45Z" fill="#D1D2D4"/>
</g>
<defs>
<linearGradient id="paint0_linear_244_118" x1="0.0700969" y1="18.9606" x2="34.9706" y2="18.9606" gradientUnits="userSpaceOnUse">
<stop stop-color="#8C2529"/>
<stop offset="0.07698" stop-color="#9F2C33"/>
<stop offset="0.25434" stop-color="#C73A46"/>
<stop offset="0.39564" stop-color="#DF4353"/>
<stop offset="0.48231" stop-color="#E84657"/>
<stop offset="0.57534" stop-color="#DF4353"/>
<stop offset="0.72701" stop-color="#C73A46"/>
<stop offset="0.91738" stop-color="#9F2C33"/>
<stop offset="1" stop-color="#8C2529"/>
</linearGradient>
<linearGradient id="paint1_linear_244_118" x1="0.0769936" y1="21.344" x2="34.9755" y2="21.344" gradientUnits="userSpaceOnUse">
<stop stop-color="#8C2529"/>
<stop offset="0.07698" stop-color="#9F2C33"/>
<stop offset="0.25434" stop-color="#C73A46"/>
<stop offset="0.39564" stop-color="#DF4353"/>
<stop offset="0.48231" stop-color="#E84657"/>
<stop offset="0.57534" stop-color="#DF4353"/>
<stop offset="0.72701" stop-color="#C73A46"/>
<stop offset="0.91738" stop-color="#9F2C33"/>
<stop offset="1" stop-color="#8C2529"/>
</linearGradient>
<linearGradient id="paint2_linear_244_118" x1="0.0763067" y1="34.5242" x2="34.9748" y2="34.5242" gradientUnits="userSpaceOnUse">
<stop stop-color="#8C2529"/>
<stop offset="0.07698" stop-color="#9F2C33"/>
<stop offset="0.25434" stop-color="#C73A46"/>
<stop offset="0.39564" stop-color="#DF4353"/>
<stop offset="0.48231" stop-color="#E84657"/>
<stop offset="0.57534" stop-color="#DF4353"/>
<stop offset="0.72701" stop-color="#C73A46"/>
<stop offset="0.91738" stop-color="#9F2C33"/>
<stop offset="1" stop-color="#8C2529"/>
</linearGradient>
<clipPath id="clip0_244_118">
<rect width="161.288" height="45" fill="white"/>
</clipPath>
</defs>
</svg>
