<svg width="166" height="47" viewBox="0 0 166 47" fill="none" xmlns="http://www.w3.org/2000/svg">
<path d="M53.6284 9.77866C53.6129 9.68164 53.5655 9.59254 53.4937 9.52538C53.422 9.45822 53.33 9.41681 53.2321 9.40766C53.0738 9.38234 49.5981 9.14176 49.5981 9.14176L46.9479 6.49157C46.7098 6.22567 46.1806 6.30417 45.9805 6.35989C45.9552 6.35989 45.4512 6.51816 44.6294 6.78533C43.8292 4.47323 42.4136 2.35105 39.9217 2.35105H39.7089C38.9935 1.42671 38.1198 1 37.3791 1C31.5748 1.02532 28.8068 8.26554 27.9331 11.9654L23.8762 13.2101C22.6315 13.6064 22.5847 13.6356 22.42 14.822L19 41.201L44.6383 46L58.5337 43.0041C58.5337 42.9788 53.655 10.0319 53.6297 9.7812L53.6284 9.77866ZM43.2075 7.23104C42.5617 7.44377 41.8147 7.65649 41.0347 7.8958V7.41844C41.06 6.22567 40.8789 5.03796 40.5054 3.90343C41.8045 4.10349 42.6782 5.56217 43.2075 7.23104ZM38.9403 4.20985C39.3645 5.45961 39.5735 6.77647 39.5203 8.09713V8.33518L35.0379 9.72802C35.9154 6.45232 37.5323 4.83283 38.9378 4.22378L38.9403 4.20985ZM37.2183 2.59796C37.4842 2.60429 37.7412 2.6866 37.9603 2.83601C36.0901 3.70717 34.1135 5.90531 33.2652 10.3067L29.7198 11.3931C30.7201 8.05281 33.0537 2.59037 37.2158 2.59037L37.2183 2.59796Z" fill="#95BF47"/>
<path d="M53.2345 9.40643C53.0763 9.38111 49.6005 9.14053 49.6005 9.14053L46.9503 6.49034C46.8528 6.38904 46.7199 6.33333 46.5793 6.33206L44.6445 45.995L58.54 42.9991L53.6321 9.80149C53.5992 9.59889 53.4397 9.43682 53.2358 9.40516L53.2345 9.40643Z" fill="#5E8E3E"/>
<path d="M39.9204 17.0948L38.1958 22.185C37.1537 21.6785 36.0129 21.4088 34.8556 21.3873C32.1497 21.3873 32.0192 23.084 32.0192 23.5095C32.0192 25.8267 38.0907 26.7181 38.0907 32.1805C38.0907 36.4755 35.3595 39.2333 31.7001 39.2333C27.2988 39.2333 25.0449 36.5021 25.0449 36.5021L26.2149 32.6022C26.2149 32.6022 28.5194 34.5901 30.4846 34.5901C30.7195 34.5994 30.9538 34.5608 31.1733 34.4768C31.3928 34.3927 31.593 34.2649 31.7616 34.1012C31.9303 33.9374 32.0638 33.7411 32.1543 33.5241C32.2447 33.3071 32.2901 33.074 32.2877 32.839C32.2877 29.7874 27.3026 29.6557 27.3026 24.6719C27.3026 20.4807 30.3238 16.3972 36.3965 16.3972C38.7833 16.4326 39.9242 17.0936 39.9242 17.0936L39.9204 17.0948Z" fill="white"/>
<path d="M70.5998 24.677C69.6084 24.1451 69.0955 23.6855 69.0955 23.0562C69.0955 22.2585 69.792 21.7431 70.9227 21.7431C71.762 21.7613 72.5899 21.9424 73.3602 22.2762L74.2744 19.4981C74.2744 19.4981 73.4361 18.8498 70.9797 18.8498C67.5533 18.8498 65.1728 20.8125 65.1728 23.5703C65.1728 25.1303 66.277 26.3306 67.761 27.1866C68.9601 27.883 69.3817 28.3439 69.3817 29.0707C69.3817 29.7975 68.7917 30.404 67.6685 30.404C66.0136 30.404 64.4523 29.5481 64.4523 29.5481L63.4824 32.3262C63.4824 32.3262 64.9297 33.2961 67.3469 33.2961C70.867 33.2961 73.3994 31.5639 73.3994 28.4338C73.4184 26.7396 72.1421 25.5595 70.6137 24.6643L70.5998 24.677ZM84.6472 18.8334C82.915 18.8334 81.545 19.6526 80.4965 20.9176L80.4383 20.8986L81.9426 13.0278H78.0236L74.2161 33.072H78.1376L79.4507 26.2192C79.9647 23.6311 81.3031 22.0306 82.5529 22.0306C83.4266 22.0306 83.771 22.6206 83.771 23.4778C83.771 24.0603 83.7127 24.639 83.6 25.21L82.116 33.053H86.0375L87.5797 24.9492C87.7482 24.1097 87.8457 23.2575 87.8646 22.4041C87.8457 20.1958 86.6845 18.8638 84.6485 18.8638L84.6472 18.8334ZM96.7142 18.8334C91.9938 18.8334 88.8713 23.098 88.8713 27.8235C88.8713 30.87 90.7554 33.3062 94.278 33.3062C98.9086 33.3062 102.045 29.1556 102.045 24.3161C102.045 21.4988 100.39 18.8334 96.7205 18.8334H96.7142ZM94.7896 30.3116C93.4563 30.3116 92.8865 29.172 92.8865 27.7665C92.8865 25.5203 94.0438 21.847 96.1811 21.847C97.5702 21.847 98.0336 23.0461 98.0336 24.2085C98.0286 26.6206 96.8687 30.3116 94.7921 30.3116H94.7896ZM112.073 18.8334C109.414 18.8334 107.923 21.148 107.923 21.148H107.865L108.096 19.0638H104.623L103.825 24.2616L101.103 38.6154H105.007L106.093 32.8086H106.169C106.169 32.8086 106.967 33.3227 108.474 33.3227C113.08 33.3227 116.087 28.6022 116.087 23.8311C116.106 21.2037 114.93 18.8448 112.071 18.8448L112.073 18.8334ZM108.323 30.3686C107.731 30.3804 107.155 30.177 106.702 29.7963L107.35 26.1217C107.814 23.6842 109.083 22.047 110.453 22.047C111.652 22.047 112.013 23.1512 112.013 24.1996C112.019 26.7535 110.518 30.3699 108.328 30.3699L108.323 30.3686ZM121.707 13.1987C121.107 13.1949 120.529 13.433 120.108 13.8597C119.686 14.2864 119.452 14.8651 119.474 15.4652C119.474 16.6226 120.218 17.4279 121.327 17.4279H121.385C121.688 17.4399 121.99 17.3898 122.272 17.2806C122.554 17.1714 122.812 17.0055 123.027 16.7931C123.243 16.5808 123.413 16.3264 123.527 16.0457C123.641 15.7651 123.696 15.4641 123.688 15.1614C123.688 14.0218 122.926 13.1987 121.726 13.1987H121.707ZM116.229 33.034H120.151L122.815 19.1436H118.879M132.808 19.1246H130.069L130.203 18.4763C130.435 17.143 131.231 15.9439 132.518 15.9439C132.944 15.944 133.368 16.0081 133.775 16.1338L134.532 13.0658C134.532 13.0658 133.836 12.7239 132.4 12.7239C131.003 12.6891 129.639 13.1548 128.554 14.037C127.221 15.1765 126.592 16.815 126.275 18.4725L126.149 19.1208H124.321L123.749 22.0711H125.576L123.492 33.0365H127.428L129.512 22.0711H132.216L132.748 19.1208L132.808 19.1246ZM142.251 19.1436L138.69 28.6997H138.632L137.662 19.1436H133.529L135.891 31.8969C135.948 32.1149 135.921 32.3463 135.815 32.5452C135.302 33.4911 134.571 34.3002 133.683 34.9067C133.001 35.3752 132.258 35.7475 131.474 36.0108L132.561 39.341C133.997 38.9565 135.316 38.2217 136.399 37.2023C138.188 35.5259 139.843 32.9377 141.539 29.4151L146.336 19.136H142.25L142.251 19.1436Z" fill="black"/>
</svg>
