<svg width="233" height="45" viewBox="0 0 233 45" fill="none" xmlns="http://www.w3.org/2000/svg">
<path d="M138.826 16.845L141.913 24.9495H135.931L138.826 16.845ZM137.668 14.1435L130.914 31.896H133.423L135.16 27.072H142.685L144.422 31.896H146.931L140.177 14.1435H137.669H137.668ZM174.136 31.896H176.451V14.1435H174.136V31.896ZM150.395 21.4755C151.167 20.3175 152.71 19.353 154.254 19.353C157.341 19.353 158.885 21.4755 158.885 24.5633V32.0888H156.57V24.9488C156.57 22.44 155.22 21.4763 153.483 21.4763C151.553 21.4763 150.203 23.406 150.203 25.1423V31.896H147.887V19.5465H150.203L150.395 21.4763L150.395 21.4755ZM160.816 28.23C160.816 25.5285 163.325 23.985 166.219 23.985C167.956 23.985 169.114 24.3713 169.499 24.7575V24.3713C169.499 22.4415 167.956 21.4763 166.412 21.4763C165.062 21.4763 163.904 22.0553 163.517 23.2133L161.401 22.2473C161.787 21.0893 163.331 19.3523 166.426 19.3523C169.321 19.3523 171.829 21.0893 171.829 24.5625V31.8953H169.706V30.15H169.514C168.935 31.1145 167.584 32.2725 165.461 32.2725C162.953 32.2725 160.83 30.729 160.83 28.2203M169.514 26.6768C169.514 26.6768 168.549 25.9043 166.619 25.9043C164.303 25.9043 163.338 27.2543 163.338 28.2195C163.338 29.5695 164.688 30.1493 165.847 30.1493C167.584 30.1493 169.514 28.6058 169.514 26.6768Z" fill="#757575"/>
<path fill-rule="evenodd" clip-rule="evenodd" d="M179.724 37.2975L182.426 30.9225L177.602 19.731H179.917L183.583 28.221L187.249 19.731H189.564L182.04 37.2975H179.725H179.724ZM213.684 23.7915C213.104 22.2465 211.754 21.2828 210.404 21.2828C208.475 21.2828 206.738 23.0198 206.738 25.5278C206.738 28.0358 208.475 29.7728 210.404 29.7728C211.754 29.7728 213.106 28.8083 213.685 27.4575L215.615 28.6155C214.65 30.738 212.72 32.088 210.404 32.088C207.124 32.088 204.422 29.193 204.422 25.5278C204.422 21.6683 207.124 18.9668 210.404 18.9668C212.72 18.9668 214.649 20.3168 215.615 22.4393L213.685 23.7893L213.684 23.7915Z" fill="#757575"/>
<path d="M221.982 32.2815C225.069 32.2815 226.613 30.5445 226.613 28.422C226.613 23.7908 219.859 25.527 219.859 22.827C219.859 21.8625 220.632 21.2835 221.982 21.2835C223.332 21.2835 224.683 21.8625 225.262 22.827L226.612 21.477C225.84 20.5125 223.717 19.1618 221.788 19.1618C218.893 19.1618 217.351 20.8988 217.351 23.0213C217.351 27.459 224.297 25.9163 224.297 28.2315C224.297 29.3895 223.525 30.1613 221.982 30.1613C220.439 30.1613 219.667 29.1968 218.895 28.2315L217.158 29.5815C218.316 30.7395 220.053 32.283 221.982 32.283V32.2815ZM199.984 31.8953H202.3V19.5465H199.984V31.8953Z" fill="#757575"/>
<path fill-rule="evenodd" clip-rule="evenodd" d="M200.951 13.5645C201.915 13.5645 202.494 14.337 202.494 15.108C202.494 16.0725 201.722 16.6515 200.951 16.6515C200.18 16.6515 199.407 15.879 199.407 15.108C199.407 14.337 200.18 13.5645 200.951 13.5645ZM197.671 29.967L198.057 31.704H195.742C193.62 31.704 192.655 30.1605 192.655 27.8445V21.8625H190.34V19.5472H192.655V15.8812H194.97V19.5472H197.672V21.8625H194.97V28.2375C194.97 29.9745 196.32 29.9745 197.672 29.9745L197.671 29.967Z" fill="#757575"/>
<path d="M55.4584 21.2828V24.1778H62.2121C62.0194 25.7213 61.4396 26.8793 60.6686 27.6503C59.7041 28.6148 58.1599 29.7728 55.4584 29.7728C51.4061 29.7728 48.1256 26.4923 48.1256 22.2473C48.1256 18.195 51.4061 14.7218 55.4584 14.7218C57.7736 14.7218 59.3179 15.6863 60.4834 16.6515L62.4131 14.7218C60.6761 13.1783 58.5536 11.8268 55.4666 11.8268C49.8716 11.8268 45.0469 16.458 45.0469 22.0538C45.0469 27.6495 49.8634 32.28 55.4591 32.28C58.5461 32.28 60.8621 31.3155 62.5991 29.385C64.5289 27.4553 65.1079 24.9473 65.1079 22.824C65.1079 22.245 65.1079 21.474 64.9151 21.087H55.4651L55.4584 21.2828ZM72.6319 18.975C68.9659 18.975 66.0709 21.6765 66.0709 25.536C66.0709 29.3955 68.9659 32.0963 72.6319 32.0963C76.2979 32.0963 79.1929 29.2013 79.1929 25.536C79.1929 21.6765 76.2979 18.975 72.6319 18.975ZM72.6319 29.5875C70.7021 29.5875 68.9659 27.8505 68.9659 25.5353C68.9659 23.22 70.7029 21.483 72.6319 21.483C74.5609 21.483 76.2979 23.0265 76.2979 25.5353C76.2979 28.044 74.5609 29.5875 72.6319 29.5875ZM104.277 20.325C103.505 19.5525 102.348 18.7815 100.611 18.7815C97.3309 18.7815 94.4366 21.6765 94.4366 25.3425C94.4366 29.0085 97.3316 31.9028 100.611 31.9028C102.155 31.9028 103.506 31.1303 104.084 30.3593H104.277V31.3238C104.277 33.8325 102.927 35.1833 100.804 35.1833C99.0671 35.1833 97.9091 33.8333 97.5236 32.868L95.0149 33.8325C95.7874 35.5695 97.7164 37.692 100.803 37.692C104.276 37.692 107.178 35.7623 107.178 30.7455V18.783H104.477V20.3265L104.277 20.325ZM100.997 29.5875C99.0671 29.5875 97.5244 27.8505 97.5244 25.5353C97.5244 23.22 99.0679 21.483 100.997 21.483C102.926 21.483 104.469 23.22 104.469 25.5353C104.469 27.8505 102.926 29.5875 100.997 29.5875ZM86.9104 18.975C83.2444 18.975 80.3494 21.6765 80.3494 25.536C80.3494 29.3955 83.2444 32.0963 86.9104 32.0963C90.5764 32.0963 93.4714 29.2013 93.4714 25.536C93.6641 21.6765 90.5764 18.975 86.9104 18.975ZM86.9104 29.5875C84.9806 29.5875 83.2444 27.8505 83.2444 25.5353C83.2444 23.22 84.9814 21.483 86.9104 21.483C88.8394 21.483 90.5764 23.0265 90.5764 25.5353C90.5764 28.044 88.8394 29.5875 86.9104 29.5875ZM109.294 12.021H112.189V32.0888H109.294V12.021ZM120.1 29.58C118.557 29.58 117.591 28.8075 116.82 27.6503L125.696 23.9843L125.31 23.2118C124.731 21.6683 122.994 18.9668 119.715 18.9668C116.242 18.9668 113.54 21.6683 113.54 25.5278C113.54 29.1938 116.435 32.088 120.101 32.088C123.188 32.088 124.925 30.1583 125.696 29.193L123.381 27.6495C122.608 28.8075 121.644 29.58 120.1 29.58ZM119.907 21.4755C121.065 21.4755 122.03 22.0545 122.416 23.019L116.434 25.5278C116.434 22.6328 118.364 21.4755 119.907 21.4755H119.907Z" fill="#757575"/>
<path d="M27.7441 8.72489V34.9527C27.7441 37.8874 29.7708 39.5227 31.9168 39.5227C33.9037 39.5227 36.0894 38.1318 36.0894 34.9527V8.92359C36.0894 6.23325 34.1024 4.55229 31.9168 4.55229C29.7311 4.55229 27.7441 6.40612 27.7441 8.72489Z" fill="#F9AB00"/>
<path d="M16.8145 22.0375V34.9527C16.8145 37.8874 18.8412 39.5226 20.9871 39.5226C22.974 39.5226 25.1597 38.1318 25.1597 34.9527V22.2362C25.1597 19.5458 23.1727 17.8649 20.9871 17.8649C18.8014 17.8649 16.8145 19.7187 16.8145 22.0375Z" fill="#E37400"/>
<path d="M10.0593 39.5226C12.3638 39.5226 14.232 37.6545 14.232 35.35C14.232 33.0456 12.3638 31.1774 10.0593 31.1774C7.75486 31.1774 5.88672 33.0456 5.88672 35.35C5.88672 37.6545 7.75486 39.5226 10.0593 39.5226Z" fill="#E37400"/>
</svg>
