<svg width="220" height="45" viewBox="0 0 220 45" fill="none" xmlns="http://www.w3.org/2000/svg">
<mask id="mask0_244_148" style="mask-type:luminance" maskUnits="userSpaceOnUse" x="16" y="2" width="186" height="39">
<path d="M201.643 2.87233H16.2773V40.2128H201.643V2.87233Z" fill="white"/>
</mask>
<g mask="url(#mask0_244_148)">
<path d="M28.1004 39.503H21.1225V21.5156H16.3691V15.6592H21.1224V11.4921C21.1224 6.55396 23.2247 3.01236 30.1836 3.01236C31.6555 3.01236 33.9661 3.31913 33.9661 3.31913V8.75705H31.5392C29.0662 8.75705 28.1007 9.53488 28.1007 11.6853V15.6592H33.8735L33.3595 21.5156H28.1005L28.1004 39.503ZM44.1111 15.1913C44.0094 15.1913 43.9048 15.1951 43.8013 15.1978C37.3311 15.1978 34.3707 20.2305 34.3707 27.3746C34.3707 36.3742 38.2106 39.9761 43.8519 39.9761C47.0793 39.9761 49.1999 38.5714 50.4887 35.9499V39.5054H57.1256V15.6618H50.4887V19.3286C49.4364 16.9695 47.2565 15.2193 44.1111 15.1913ZM45.7987 20.8255C48.5162 20.8255 50.1472 22.7856 50.1472 26.1196L50.1536 29.5248C50.1536 31.7719 48.8063 34.4009 45.7987 34.4009C41.1747 34.4009 41.2982 29.238 41.2982 27.5184C41.2982 21.7341 43.7619 20.8255 45.7987 20.8255ZM59.8059 27.5848C59.8059 24.6874 59.6719 15.2068 71.6168 15.2068C76.4117 15.2068 78.4138 16.7833 78.4138 16.7833L76.8047 21.9446C76.8047 21.9446 74.805 20.8059 72.1996 20.8059C68.8624 20.8059 66.733 22.8065 66.733 26.3262L66.7367 28.8501C66.7367 32.2321 68.7913 34.4898 72.2064 34.4898C74.5801 34.4898 76.7678 33.3405 76.7678 33.3405L78.3729 38.3938C78.3729 38.3938 76.5422 39.9804 71.6503 39.9804C60.2768 39.9804 59.8059 31.4744 59.8059 27.5848ZM117.328 15.1978C123.799 15.1978 126.806 20.2305 126.806 27.3746C126.806 36.3742 122.966 39.9761 117.325 39.9761C114.097 39.9761 111.711 38.5715 110.422 35.9499V39.5054L103.869 39.5028V3.73733L110.827 3.10983V19.0056C111.831 16.2246 115.13 15.1978 117.328 15.1978ZM115.377 20.8255C112.66 20.8255 110.827 22.7856 110.827 26.1196L110.82 29.5248C110.816 31.7719 112.09 34.4009 115.377 34.4009C120.001 34.4009 119.878 29.238 119.878 27.5184C119.878 21.7341 117.415 20.8255 115.377 20.8255ZM90.4865 15.2175C83.1478 15.2175 79.2734 19.355 79.2734 26.7079V28.0739C79.2734 37.6172 84.7142 40.0742 91.2008 40.0742C97.5055 40.0742 100.359 38.2507 100.359 38.2507L99.0575 33.3945C99.0575 33.3945 95.7005 34.8714 92.035 34.8714C88.2351 34.8714 86.6009 33.8699 86.182 30.0937H100.916V26.1979C100.916 18.222 96.5676 15.2175 90.4865 15.2175ZM90.6634 20.0802C93.2037 20.0802 94.8498 21.691 94.7594 25.4268H86.1947C86.3433 21.4949 88.1184 20.0802 90.6634 20.0802ZM140.68 15.1847C133.143 15.1847 129.176 19.5764 129.176 27.4464C129.176 38.2445 136.015 39.9827 140.692 39.9827C147.539 39.9827 152.095 36.1707 152.095 27.5445C152.095 18.5661 146.973 15.1847 140.68 15.1847ZM140.585 20.845C143.898 20.845 145.212 23.4096 145.212 26.3289V28.8388C145.212 32.3752 143.375 34.4207 140.572 34.4207C137.951 34.4207 136.11 32.5073 136.11 28.8388V26.3289C136.11 22.4164 138.301 20.845 140.585 20.845ZM165.957 15.1847C158.42 15.1847 154.453 19.5764 154.453 27.4464C154.453 38.2445 161.292 39.9827 165.969 39.9827C172.816 39.9827 177.372 36.1707 177.372 27.5445C177.372 18.5661 172.25 15.1847 165.957 15.1847ZM165.862 20.845C169.175 20.845 170.488 23.4096 170.488 26.3289V28.8388C170.488 32.3752 168.651 34.4207 165.849 34.4207C163.229 34.4207 161.387 32.5073 161.387 28.8388V26.3289C161.387 22.4164 163.578 20.845 165.862 20.845ZM180.001 39.503V3.73733L186.979 3.11002V27.0824L193.903 15.6595H201.272L194.05 27.4903L201.55 39.503H194.159L186.979 27.8385V39.503H180.001Z" fill="#1877F2"/>
</g>
</svg>
