<svg width="20" height="20" viewBox="0 0 20 20" fill="none" xmlns="http://www.w3.org/2000/svg">
<g clip-path="url(#clip0_4012_37833)">
<path d="M17.8449 5.77208H14.7792C14.8625 5.31341 15.1589 5.05759 15.761 4.76653L16.326 4.49303C17.3355 3.99917 17.8726 3.44339 17.8726 2.53479C17.8726 1.96145 17.6411 1.51156 17.178 1.1852C16.7242 0.858829 16.1685 0.700073 15.5295 0.700073C15.02 0.700073 14.5569 0.823482 14.1308 1.07931C13.7141 1.32635 13.3991 1.64387 13.2047 2.04077L14.0938 2.88772C14.4365 2.2261 14.9367 1.89973 15.5943 1.89973C16.15 1.89973 16.4927 2.17323 16.4927 2.55246C16.4927 2.87005 16.326 3.13466 15.6869 3.44339L15.3257 3.611C14.5383 3.99023 13.9919 4.42249 13.6769 4.91651C13.3621 5.40163 13.2047 6.02791 13.2047 6.77775V6.9806H17.8449V5.77208ZM17.4351 8.37626H12.3586L9.82031 12.5633H14.8968L17.4351 16.7503L19.9733 12.5633L17.4351 8.37626Z" fill="#303030"/>
<path d="M10.2582 15.3549C7.02597 15.3549 4.39639 12.8505 4.39639 9.77224C4.39639 6.69397 7.02597 4.18957 10.2582 4.18957L12.265 0.189986C11.6041 0.0651873 10.9319 0.00256348 10.2582 0.00256348C4.59275 0.00256348 0 4.37661 0 9.77224C0 15.1679 4.59275 19.5419 10.2582 19.5419C12.517 19.5419 14.6048 18.846 16.2995 17.6679L14.0772 14.0021C13.0505 14.8441 11.7162 15.3549 10.2582 15.3549Z" fill="#303030"/>
</g>
<defs>
<clipPath id="clip0_4012_37833">
<rect width="20" height="20" fill="white"/>
</clipPath>
</defs>
</svg>
