<svg width="151" height="45" viewBox="0 0 151 45" fill="none" xmlns="http://www.w3.org/2000/svg">
<g clip-path="url(#clip0_244_105)">
<path d="M62.1462 25.4556C61.4508 26.8165 60.3182 27.9042 58.9303 28.5441C57.5424 29.184 55.9798 29.339 54.4932 28.9841C53.0067 28.6292 51.6826 27.785 50.7335 26.5872C49.7843 25.3893 49.2653 23.9073 49.2597 22.379C49.254 20.8507 49.7621 19.3648 50.7024 18.16C51.6427 16.9552 52.9605 16.1013 54.4444 15.7355C55.9282 15.3696 57.492 15.513 58.8846 16.1426C60.2771 16.7723 61.4177 17.8516 62.1231 19.2074L62.1855 19.3293H66.6394L66.5434 19.0346C65.7492 16.533 64.0857 14.3985 61.854 13.0172C59.6223 11.6359 56.9699 11.0992 54.3768 11.5043C51.7836 11.9093 49.4212 13.2293 47.717 15.2253C46.0128 17.2213 45.0795 19.7615 45.086 22.386C45.0925 25.0106 46.0383 27.5461 47.7524 29.5337C49.4664 31.5213 51.8354 32.8295 54.4305 33.2217C57.0256 33.6139 59.6754 33.0641 61.9002 31.6718C64.125 30.2795 65.7779 28.1367 66.5597 25.6313L66.6509 25.3365H62.2124L62.1462 25.4556Z" fill="#4A4F54"/>
<path d="M112.397 27.5467C112.031 27.545 111.669 27.6162 111.331 27.7561C110.992 27.8959 110.685 28.1017 110.427 28.3613C110.169 28.6209 109.965 28.9293 109.828 29.2684C109.69 29.6075 109.621 29.9706 109.625 30.3366C109.629 30.7026 109.706 31.0642 109.851 31.4002C109.996 31.7363 110.206 32.0402 110.47 32.2942C110.733 32.5482 111.045 32.7473 111.386 32.8798C111.727 33.0123 112.091 33.0757 112.457 33.0662C112.826 33.079 113.195 33.0158 113.539 32.8805C113.883 32.7452 114.195 32.5407 114.457 32.2797C114.719 32.0186 114.924 31.7066 115.06 31.363C115.196 31.0194 115.261 30.6514 115.249 30.2819C115.25 29.9127 115.175 29.5471 115.031 29.2073C114.886 28.8675 114.674 28.5605 114.408 28.3049C114.141 28.0493 113.826 27.8503 113.48 27.72C113.135 27.5897 112.766 27.5307 112.397 27.5467Z" fill="#4A4F54"/>
<path d="M10.2287 20.4267L9.82548 20.2961C7.53568 19.5617 5.55599 18.9271 5.55599 17.5119V17.4322C5.55599 16.2158 6.68505 15.4304 8.43624 15.4304C10.5299 15.5675 12.5522 16.2456 14.3052 17.3986L14.3561 17.4303L16.3118 13.926L16.2667 13.8981C13.971 12.3937 11.2976 11.5671 8.55337 11.5133C4.13699 11.5133 1.05225 14.1583 1.05225 17.9459V18.0255C1.05225 22.0281 4.44518 23.3214 7.62593 24.2171C7.79011 24.268 7.95524 24.3131 8.11941 24.3669C10.342 25.0389 12.2583 25.6207 12.2583 27.0945V27.1703C12.2583 28.548 11.0649 29.3699 9.06893 29.3699C6.58396 29.2531 4.19891 28.3565 2.25235 26.8074L2.20339 26.77L0.0288025 30.0707L0 30.1139L0.0393634 30.1447C2.58074 32.1437 5.71094 33.248 8.94412 33.286C13.7666 33.286 16.763 30.7457 16.763 26.6548V26.576C16.763 22.9613 13.6216 21.4838 10.2287 20.4267Z" fill="#4A4F54"/>
<path d="M26.865 6.61783H22.1683V12.2477H19.5684V16.2849H22.1683V27.0743C22.1683 31.5761 24.6145 33.0931 28.067 33.0931C29.5473 33.1357 31.0111 32.7728 32.3 32.0437V28.2034C31.3992 28.6656 30.4006 28.9049 29.3881 28.9013C27.7982 28.9013 26.865 28.164 26.865 26.3379V16.282H32.3787V12.2497H26.865V6.61783Z" fill="#4A4F54"/>
<path d="M41.7163 12.241H37.0195V32.7388H41.7163V12.241Z" fill="#4A4F54"/>
<path d="M88.8805 12.2353H83.1738L74.6723 21.3205V4.39331H69.9746V32.7388H74.6723V26.8717L77.5833 23.8436L83.6414 32.734H89.1522L80.7304 20.5813L88.8805 12.2353Z" fill="#4A4F54"/>
<path d="M106.195 12.2381L100.877 27.4583L95.094 12.2381H90.0449L98.5897 32.7743C97.8129 34.5207 96.9998 35.1044 95.6787 35.1044C94.7096 35.0805 93.7621 34.8134 92.9232 34.3277L91.3333 37.8205C92.8137 38.6533 94.4872 39.0817 96.1856 39.0628C99.4864 39.0628 101.311 37.5085 102.942 33.3158L111.095 12.2353H106.198L106.195 12.2381Z" fill="#4A4F54"/>
<path d="M39.3007 -1.89639e-05C38.7601 -0.00102994 38.2245 0.10467 37.7248 0.311021C37.225 0.517373 36.7709 0.82032 36.3885 1.2025C36.006 1.58468 35.7028 2.03858 35.4961 2.53818C35.2894 3.03778 35.1833 3.57326 35.1839 4.11393C35.1771 4.66463 35.2817 5.21103 35.4914 5.72026C35.7012 6.22949 36.0118 6.69103 36.4045 7.07713C36.7973 7.46323 37.264 7.76591 37.7768 7.96697C38.2895 8.16803 38.8376 8.26331 39.3881 8.24709C39.9397 8.26627 40.4893 8.17204 41.003 7.97021C41.5166 7.76838 41.9834 7.46326 42.3743 7.07373C42.7653 6.68421 43.0721 6.21857 43.2759 5.70566C43.4796 5.19275 43.5759 4.64347 43.5587 4.09185C43.5606 3.5398 43.4506 2.9931 43.2352 2.48482C43.0197 1.97653 42.7034 1.51724 42.3054 1.13472C41.9073 0.7522 41.4358 0.45441 40.9194 0.259367C40.4029 0.0643244 39.8523 -0.0239173 39.3007 -1.89639e-05Z" fill="#31B4E7"/>
<path d="M124.706 12.2708H120.01V32.7676H124.706L124.706 12.2708Z" fill="#4A4F54"/>
<path d="M122.432 44.9981C122.977 44.9981 123.517 44.8901 124.02 44.6801C124.523 44.4702 124.98 44.1625 125.364 43.7749C125.747 43.3873 126.05 42.9274 126.255 42.422C126.459 41.9166 126.562 41.3756 126.556 40.8303C126.55 40.2851 126.436 39.7464 126.221 39.2455C126.005 38.7446 125.693 38.2913 125.301 37.912C124.909 37.5327 124.446 37.2349 123.938 37.0358C123.431 36.8366 122.889 36.7402 122.343 36.7519C121.792 36.7329 121.242 36.8272 120.729 37.0291C120.215 37.231 119.749 37.5361 119.358 37.9256C118.967 38.3151 118.66 38.7807 118.457 39.2936C118.253 39.8064 118.157 40.3556 118.174 40.9072C118.172 41.459 118.283 42.0055 118.498 42.5136C118.714 43.0216 119.03 43.4807 119.428 43.863C119.826 44.2454 120.297 44.5431 120.814 44.7382C121.33 44.9333 121.88 45.0217 122.432 44.9981Z" fill="#31B4E7"/>
<path d="M139.551 11.6055C138.1 11.574 136.657 11.8326 135.308 12.3662C133.958 12.8997 132.728 13.6974 131.691 14.7125C130.654 15.7276 129.829 16.9396 129.267 18.2774C128.704 19.6152 128.414 21.052 128.414 22.5033V22.5821C128.414 24.0212 128.702 25.4457 129.261 26.7717C129.821 28.0977 130.64 29.2983 131.67 30.3028C132.701 31.3074 133.922 32.0954 135.261 32.6207C136.601 33.1459 138.033 33.3976 139.471 33.3609C140.922 33.3973 142.366 33.1438 143.717 32.615C145.069 32.0862 146.301 31.293 147.342 30.2817C148.383 29.2704 149.211 28.0615 149.779 26.7258C150.346 25.3901 150.641 23.9546 150.647 22.5033V22.4237C150.65 20.9786 150.363 19.5476 149.803 18.2154C149.243 16.8833 148.421 15.6771 147.386 14.6683C146.352 13.6595 145.125 12.8686 143.779 12.3425C142.433 11.8164 140.996 11.5658 139.551 11.6055ZM145.87 22.5821C145.87 26.1776 143.421 29.1769 139.554 29.1769C138.695 29.1683 137.846 28.9874 137.058 28.645C136.27 28.3025 135.558 27.8055 134.966 27.1833C134.373 26.561 133.911 25.8263 133.608 25.0224C133.304 24.2186 133.165 23.362 133.198 22.5033V22.4237C133.198 18.7926 135.647 15.7905 139.477 15.7905C140.342 15.7961 141.198 15.9761 141.992 16.3194C142.786 16.6628 143.503 17.1627 144.1 17.7892C144.697 18.4156 145.162 19.1559 145.466 19.9659C145.771 20.7758 145.909 21.6388 145.873 22.5033V22.5821H145.87Z" fill="#4A4F54"/>
</g>
<defs>
<clipPath id="clip0_244_105">
<rect width="150.646" height="45" fill="white"/>
</clipPath>
</defs>
</svg>
