<svg width="20" height="1em" viewBox="0 0 20 20" fill="none" xmlns="http://www.w3.org/2000/svg">
<path fill-rule="evenodd" clip-rule="evenodd" d="M10 2.5C5.85954 2.5 2.5 5.85954 2.5 10C2.5 14.1405 5.85954 17.5 10 17.5C14.1323 17.5 17.5 14.1405 17.5 10C17.5 5.85954 14.1323 2.5 10 2.5ZM14.9539 5.95716C15.8487 7.04718 16.3856 8.43817 16.4018 9.94308C16.1903 9.90242 14.0753 9.47125 11.9442 9.73967C11.8953 9.63392 11.8547 9.52008 11.8058 9.40617C11.6757 9.09708 11.5293 8.77983 11.3828 8.47883C13.7418 7.519 14.8156 6.13612 14.9539 5.95716ZM10 3.60629C11.6269 3.60629 13.1155 4.21638 14.2463 5.21693C14.1323 5.37961 13.1643 6.67299 10.8867 7.52711C9.83733 5.59924 8.67408 4.02115 8.49517 3.77712C8.975 3.66323 9.47942 3.60629 10 3.60629ZM7.27497 4.20824C7.44578 4.43601 8.58458 6.02223 9.65025 7.90942C6.65672 8.70667 4.01302 8.69033 3.72831 8.69033C4.14317 6.70553 5.48536 5.05422 7.27497 4.20824ZM3.59003 10.0082C3.59003 9.94308 3.59003 9.878 3.59003 9.81292C3.86659 9.821 6.97397 9.86175 10.1708 8.90183C10.3579 9.25975 10.5288 9.62583 10.6914 9.99183C10.6101 10.0162 10.5206 10.0407 10.4392 10.0651C7.13666 11.1307 5.37961 14.0428 5.23319 14.2868C4.21637 13.1562 3.59003 11.6513 3.59003 10.0082ZM10 16.41C8.5195 16.41 7.15293 15.9057 6.07104 15.0597C6.18493 14.8237 7.48642 12.3183 11.0982 11.0575C11.1144 11.0493 11.1226 11.0493 11.1388 11.0413C12.0418 13.3758 12.4078 15.3362 12.5054 15.8975C11.7327 16.231 10.8867 16.41 10 16.41ZM13.571 15.3118C13.506 14.9213 13.1643 13.0504 12.3264 10.7483C14.3357 10.4311 16.0927 10.9517 16.3124 11.025C16.0358 12.8064 15.0108 14.3438 13.571 15.3118Z" fill="#0F2C59"/>
</svg>
