<svg width="24" height="24" viewBox="0 0 24 24" fill="none" xmlns="http://www.w3.org/2000/svg">
<g id="phone 1" clip-path="url(#clip0_375_11955)">
<path id="Vector" fill-rule="evenodd" clip-rule="evenodd" d="M14.9104 0.372644C14.6525 0.334888 14.3933 0.41276 14.1872 0.580304C13.9753 0.750208 13.8427 0.995625 13.8139 1.27054C13.753 1.82626 14.1457 2.32889 14.6893 2.39143C18.4383 2.81855 21.3521 5.80012 21.7736 9.63946C21.8302 10.1539 22.2528 10.5421 22.7573 10.5421C22.7953 10.5421 22.8322 10.5397 22.8702 10.535C23.1339 10.5055 23.369 10.3722 23.5348 10.1598C23.6994 9.9474 23.7743 9.68316 23.7444 9.41295C23.2192 4.6226 19.5877 0.904773 14.9104 0.372644ZM14.9825 4.48384C14.432 4.38001 13.9263 4.7387 13.8215 5.28734C13.7167 5.83599 14.069 6.37166 14.6046 6.47903C16.2172 6.79996 17.4622 8.07424 17.7777 9.72611V9.72727C17.8675 10.2027 18.2776 10.5485 18.7499 10.5485C18.8132 10.5485 18.8764 10.5425 18.941 10.5308C19.4766 10.421 19.8289 9.88658 19.7241 9.33673C19.2531 6.86957 17.393 4.96406 14.9825 4.48384ZM16.812 15.8192C17.3341 15.5118 17.9239 15.1648 18.6677 15.3262C19.3415 15.4714 21.638 17.3745 22.267 18.0342C22.6792 18.466 22.9084 18.9119 22.9442 19.358C23.0063 21.1077 20.6775 23.1053 20.2536 23.3543C19.6904 23.7683 19.0352 23.9772 18.2991 23.9772C17.5471 23.9772 16.7085 23.7589 15.7941 23.3236C10.8323 21.2092 3.25271 13.6237 1.24867 8.59736C0.417113 6.72609 0.411354 5.18281 1.23485 4.02298C1.5631 3.47905 3.43468 1.20541 5.11048 1.27739C5.5562 1.31631 5.98926 1.54994 6.41426 1.97469C7.05692 2.61773 8.87436 4.96925 9.01492 5.65947C9.17036 6.4264 8.82945 7.0364 8.52654 7.57207C8.46197 7.68722 8.37487 7.82388 8.27955 7.97359C7.91759 8.54175 7.43585 9.298 7.60631 9.78081C8.8283 12.8439 11.6512 15.5162 14.6527 16.7717C15.1169 16.9439 15.8572 16.4485 16.412 16.0774C16.5564 15.9807 16.6883 15.8924 16.7995 15.8265L16.812 15.8192Z" fill="#11243F"/>
</g>
<defs>
<clipPath id="clip0_375_11955">
<rect width="23.8515" height="24" fill="#11243F"/>
</clipPath>
</defs>
</svg>
