<svg width="1200" height="165" viewBox="0 0 1200 165" fill="none" xmlns="http://www.w3.org/2000/svg"><path d="M126.092 198.747H92.8893V110.296C92.8893 90.961 85.3552 76.7313 65.5561 76.7313C45.757 76.7313 33.2025 90.3773 33.2025 112.859V198.747H0V51.1365H30.6823V70.767C36.8148 59.1068 50.7644 47.7217 73.9126 47.7217C94.8303 47.7217 109.346 56.8325 117.432 71.0354C128.585 56.8123 144.213 47.7217 166.532 47.7217C201.399 47.7217 219.251 72.4644 219.251 106.029V198.747H186.048V110.296C186.048 91.2495 178.797 76.7313 158.715 76.7313C138.633 76.7313 126.085 90.109 126.085 113.98V198.741L126.092 198.747Z" fill="#181C21"/><path d="M233.76 51.1348H288.163V198.739H254.96V81.2849H236.622L233.76 51.1415V51.1348Z" fill="#181C21"/><path d="M317.996 0H351.199V155.239C351.199 163.209 356.213 166.604 363.464 166.604C367.076 166.604 369.313 166.315 369.313 166.315V198.451C369.313 198.451 364.582 199.303 359.259 199.303C330.242 199.303 317.977 184.228 317.977 154.642L317.996 0Z" fill="#181C21"/><path d="M410.879 134.764C413.392 158.078 428.177 173.153 451.326 173.153C466.677 173.153 479.777 165.182 485.074 152.1H518.54C509.894 181.398 484.219 202.162 450.477 202.162C406.674 202.162 378.229 168.886 378.229 124.808C378.229 80.7298 407.247 47.7217 450.194 47.7217C493.141 47.7217 521.323 80.9982 521.323 124.224C521.323 129.625 521.04 134.744 521.04 134.744H410.859L410.879 134.764ZM411.425 109.733H488.41C485.627 89.2569 471.678 75.3224 450.194 75.3224C428.71 75.3224 414.774 89.5454 411.425 109.733Z" fill="#181C21"/><path d="M530.245 151.535H562.329C563.165 164.329 573.212 174.292 593.558 174.292C610.856 174.292 620.344 167.75 620.344 157.519C620.344 126.235 537.227 154.104 537.227 94.0992C537.227 69.3565 558.98 47.7402 594.689 47.7402C636.255 47.7402 650.211 76.7498 651.593 96.6621H619.792C618.673 86.1424 610.863 75.3342 593.86 75.3342C576.858 75.3342 569.027 82.164 569.027 92.9721C569.027 121.693 652.145 96.387 652.145 156.124C652.145 181.155 632.063 202.194 591.61 202.194C551.156 202.194 531.91 178.592 530.245 151.568V151.535Z" fill="#181C21"/><path d="M744.318 197.894C744.318 197.894 731.092 199.591 719.933 199.591C690.362 199.591 677.531 183.939 677.531 156.07V78.1385H660.818V51.1214H677.531V12.7461H710.734V51.1348H744.877L740.87 78.1519H710.734V152.668C710.734 164.329 715.485 169.347 726.914 169.347C732.5 169.347 744.318 168.589 744.318 168.589V197.887V197.894Z" fill="#181C21"/><path d="M749.048 125.095C749.048 83.5594 778.066 47.7402 824.08 47.7402C870.093 47.7402 899.394 83.5796 899.394 125.095C899.394 166.61 870.376 202.181 824.08 202.181C777.783 202.181 749.048 166.63 749.048 125.095ZM824.086 172.299C848.353 172.299 866.204 153.521 866.204 125.088C866.204 96.6553 848.353 77.5885 824.086 77.5885C799.819 77.5885 782.251 96.3669 782.251 125.088C782.251 153.809 800.102 172.299 824.086 172.299Z" fill="#181C21"/><path d="M943.914 70.767C950.047 59.1068 964.832 47.7217 988.546 47.7217C1023.7 47.7217 1042.38 71.6123 1042.38 106.029V198.747H1009.18V110.296C1009.18 90.109 1000.25 76.7313 980.446 76.7313C959.529 76.7313 946.415 90.109 946.415 113.134V198.747H913.212V51.1365H943.895V70.767H943.914Z" fill="#181C21"/><path d="M1089.55 134.764C1092.07 158.078 1106.85 173.153 1130 173.153C1145.35 173.153 1158.45 165.182 1163.75 152.1H1197.22C1188.56 181.398 1162.9 202.162 1129.15 202.162C1085.35 202.162 1056.91 168.886 1056.91 124.808C1056.91 80.7298 1085.92 47.7217 1128.87 47.7217C1171.82 47.7217 1200 80.9982 1200 124.224C1200 129.625 1199.72 134.744 1199.72 134.744H1089.54L1089.56 134.764H1089.55ZM1090.11 109.733H1167.1C1164.32 89.2569 1150.37 75.3224 1128.88 75.3224C1107.4 75.3224 1093.47 89.5454 1090.11 109.733Z" fill="#181C21"/><path d="M288.142 0H254.94V31.4852H288.142V0Z" fill="#181C21"/></svg>