<?xml version="1.0" encoding="UTF-8"?>
<svg width="88px" height="35px" viewBox="0 0 88 35" version="1.1" xmlns="http://www.w3.org/2000/svg" xmlns:xlink="http://www.w3.org/1999/xlink">
    <title>logo</title>
    <g id="Page-1" stroke="none" stroke-width="1" fill="none" fill-rule="evenodd">
        <g id="logo" transform="translate(-0.000365, 0.000116)" fill="#FFFFFF" fill-rule="nonzero">
            <g id="Combined-Shape">
                <path d="M4.27036523,1.36688402 C8.36536523,-0.412115983 14.7233652,-0.0131159825 21.3453652,0.173884017 C24.3723652,0.259884017 26.9983652,0.183884017 29.9683652,1.04588402 C31.5443652,1.50388402 32.8663652,2.26588402 34.0773652,3.67188402 C35.5963652,5.43488402 35.6253652,7.95288402 35.8013652,10.383884 C36.0173794,13.392884 36.1713652,19.969884 35.7573652,22.959884 C35.3093652,26.199884 34.3603652,29.228884 31.7933652,30.041884 C30.0973652,30.579884 29.3783652,30.338884 26.9013652,30.840884 C26.4013652,32.726884 27.7723652,34.062884 27.5563652,34.733884 C27.3413652,35.404884 24.4013652,34.653884 23.5093652,34.115884 C22.6173652,33.576884 20.5713652,32.712884 19.8353652,31.535884 C17.9833652,31.528884 12.6423652,31.469884 10.8783652,31.253884 L10.8783652,31.253884 L10.3608022,31.1934004 C10.1879791,31.1739595 10.0149331,31.1550971 9.84190228,31.1363881 L9.32309319,31.080296 L9.32309319,31.080296 L8.80580276,31.0225726 C5.79548097,30.6761339 2.93555128,30.1162096 1.50136523,27.063884 C0.191365228,24.277884 0.234365228,19.894884 0.0623652285,16.909884 C-0.179634772,12.703884 0.100365228,2.73288402 4.27036523,1.36688402 Z M5.75836523,6.50288402 C5.60136523,6.96888402 5.65036523,8.06788402 5.66036523,8.85988402 C5.69336523,12.899884 6.05336523,17.800884 6.10936523,21.697884 C6.14936523,22.883884 6.17936523,25.323884 6.17936523,25.452884 C6.18236523,25.857884 6.22736523,25.965884 6.63136523,26.009884 C7.89336523,26.079884 9.43936523,25.982884 10.7043652,26.018884 C11.3553652,26.059884 11.0413652,24.850884 11.1153652,24.368884 C11.1283652,23.289884 11.0823652,21.550884 11.0043652,20.621884 C10.9523652,18.499884 10.3803652,18.522884 12.5403652,18.414884 C12.7615417,18.3978252 13.4654171,18.3693477 14.2198727,18.3439029 L14.6751586,18.3291156 C15.05386,18.3172889 15.4236005,18.3069428 15.7303652,18.299884 C16.3993652,18.351884 16.9193652,18.026884 17.1533652,18.651884 L17.1543652,18.651884 C17.2973652,19.661884 17.4043652,24.105884 17.5563652,25.521884 C17.5783652,25.823884 17.6643652,25.993884 17.9693652,25.987884 C18.1819902,26.007134 18.5454434,26.0187278 19.0516855,26.0213254 L19.2773652,26.021884 C20.0153652,26.024884 20.7593652,26.002884 21.3753652,25.999884 C22.4333652,26.009884 21.9243652,24.019884 21.9353652,22.925884 C21.8333652,20.815884 21.7683652,15.613884 21.6523652,13.235884 C21.6443652,12.986884 21.6231152,11.895384 21.5991152,10.756634 L21.5878813,10.2305978 C21.5670679,9.27066508 21.5454422,8.3644994 21.5293652,7.99388402 C21.5093652,7.61888402 21.5813652,6.77688402 21.4583652,6.51188402 C21.3103652,6.26988402 20.6493652,6.19588402 20.2703652,6.22188402 C19.2923652,6.22188402 18.4833652,6.23188402 17.7023652,6.35988402 C17.0063652,6.47188402 16.7423652,6.73788402 16.7293652,7.33888402 L16.7286862,7.38083944 L16.7286862,7.38083944 L16.7288841,7.61987893 C16.7313687,8.07788748 16.7426593,8.99229578 16.7533652,9.94588402 C16.7663652,11.100884 16.7863652,12.327884 16.7883652,12.978884 C16.7633652,13.632884 15.6483652,13.294884 15.0203652,13.377884 C13.9913652,13.354884 11.3843652,13.441884 10.8683652,13.467884 C10.5513652,13.459884 10.5213652,13.189884 10.4563652,12.879884 C10.3123652,11.459884 10.1403652,9.27188402 10.0723652,7.77988402 C10.0483652,6.96488402 10.0073652,6.28788402 9.74436523,6.24588402 C9.06736523,6.11888402 5.93836523,6.16088402 5.75836523,6.50288402 Z M28.5715059,13.1035871 L28.3474532,13.1054905 C28.1987263,13.1073562 28.0525319,13.1092174 27.9163652,13.103884 C27.2853652,13.103884 26.6613652,13.116884 26.0583652,13.116884 C25.6833652,13.131884 25.5083652,13.149884 25.5283652,13.473884 C25.3283652,17.531884 25.5033652,20.124884 25.4323652,23.959884 C25.3723652,26.562884 25.4493652,25.799884 27.7233652,25.945884 C28.2323652,25.953884 29.2103652,26.053884 29.6033652,25.855884 C29.8013652,25.721884 29.7523652,25.505884 29.8003652,25.214884 C29.7961072,24.4869485 29.7936847,23.8886655 29.7927498,23.3637274 L29.7927602,22.3949609 C29.7957397,20.8877265 29.8126696,19.7783438 29.8306603,16.9813507 L29.8333652,16.549884 L29.834,16.549 L29.833097,16.1645896 C29.8284265,15.418333 29.8133652,14.809884 29.8313652,13.975884 C29.8913652,13.175634 29.2437402,13.103259 28.5715059,13.1035871 Z M27.6673652,5.83688402 C27.3293652,5.83688402 26.9813652,5.90088402 26.6353652,6.02488402 C26.4521445,6.09016694 26.2790928,6.18106958 26.1213652,6.29488402 L26.1143652,6.29888402 C25.3949574,6.81532117 25.0081808,7.67821858 25.1013652,8.55888402 C25.1913652,9.37588402 25.6813652,10.030884 26.4463652,10.356884 C26.4493652,10.356884 26.4513652,10.358884 26.4533652,10.359884 C26.8133652,10.511884 27.2553652,10.599884 27.6683652,10.599884 C28.0383652,10.599884 28.5673652,10.531884 28.9823652,10.204884 C29.7583652,9.59288402 30.0423652,8.89688402 29.9283652,7.87988402 L29.9273652,7.87988402 C29.7923652,6.65888402 28.8833652,5.83688402 27.6673652,5.83688402 Z"></path>
            </g>
            <path d="M54.5843652,20.167884 L54.5843652,20.158884 C54.5843652,18.312884 53.7513652,16.748884 52.2393652,15.755884 C52.1678295,15.7089657 52.1269784,15.6272636 52.1323652,15.541884 C52.1380256,15.4770943 52.1689101,15.4171208 52.2183652,15.374884 C53.2913652,14.406884 53.8583652,13.097884 53.8583652,11.585884 C53.8583652,8.31388402 51.2273652,5.93888283 47.6013652,5.93888283 L40.0963652,5.93888283 C39.9835668,5.93861767 39.8753115,5.98330879 39.7955508,6.06306956 C39.71579,6.14283033 39.6710989,6.25108557 39.671364,6.36388402 L39.671364,25.526884 C39.671364,25.760884 39.8613652,25.950884 40.0963652,25.950884 L48.1813652,25.950884 C51.8853652,25.950884 54.5783652,23.518884 54.5843652,20.167884 L54.5843652,20.167884 Z M43.6773652,10.021884 C43.6773652,9.89688402 43.7793652,9.79588402 43.9033652,9.79588402 L47.5903652,9.79588402 C48.4933652,9.79588402 49.1823652,10.320884 49.4323652,11.138884 C49.6193652,11.748884 49.5053652,12.409884 49.1213652,12.930884 C48.7293652,13.460884 48.1023652,13.7278862 47.4443652,13.7278862 L43.9043652,13.7278862 C43.8442532,13.72815 43.786512,13.7044568 43.7439123,13.6620447 C43.7013125,13.6196327 43.6773652,13.5619966 43.6773652,13.501884 L43.6773652,10.021884 L43.6773652,10.021884 Z M43.6623652,21.881884 L43.6623652,18.110884 C43.6623652,18.020884 43.7143652,17.944884 43.7893652,17.907884 L47.8943652,17.883884 C49.1203652,17.883884 49.9763652,18.752884 49.9763652,19.996884 C49.9763652,21.239884 49.1203652,22.108884 47.8943652,22.108884 L43.8883652,22.108884 C43.7635489,22.108884 43.6623652,22.0077004 43.6623652,21.882884 L43.6623652,21.881884 L43.6623652,21.881884 Z M63.5143652,11.283884 C59.3873652,11.283884 56.1523652,14.504884 56.1523652,18.617884 C56.1523652,22.729884 59.3863652,25.950884 63.5143652,25.950884 C67.6433652,25.950884 70.8773652,22.729884 70.8773652,18.617884 C70.8773652,14.505884 67.6433652,11.283884 63.5153652,11.283884 L63.5143652,11.283884 Z M63.5143652,22.133884 C61.5263652,22.133884 60.0843652,20.654884 60.0843652,18.617884 C60.0843652,16.579884 61.5263652,15.101884 63.5143652,15.101884 C65.5033652,15.101884 66.9463652,16.579884 66.9463652,18.617884 C66.9463652,20.654884 65.5033652,22.133884 63.5153652,22.133884 L63.5143652,22.133884 Z M85.0633652,23.837884 C86.4073652,22.473884 87.1483652,20.619884 87.1483652,18.616884 C87.1483652,16.613884 86.4073652,14.758884 85.0633652,13.396884 C83.7203652,12.033884 81.8923652,11.282884 79.9173652,11.282884 C78.7863652,11.282884 77.5973652,11.522884 76.5973652,11.995884 C76.546641,12.0189528 76.4877527,12.015202 76.4403652,11.985884 C76.3925052,11.955748 76.3631504,11.9034361 76.3623652,11.846884 L76.3623652,6.29288402 C76.3623661,6.1253792 76.2268691,5.98943502 76.0593652,5.98887679 L72.7593652,5.98887679 C72.5893525,5.98773837 72.4497208,6.12292323 72.4453652,6.29288402 L72.4453652,18.618884 C72.4453652,22.718884 75.7673652,25.931884 79.8753652,25.952884 L79.9163652,25.952884 C81.8913652,25.952884 83.7183652,25.201884 85.0623652,23.838884 L85.0633652,23.837884 Z M76.3763652,18.617884 C76.3763652,16.579884 77.9283652,15.101884 79.9163652,15.101884 C81.9043652,15.101884 83.2163652,16.514884 83.2163652,18.617884 C83.2163652,20.719884 81.8903652,22.132884 79.9163652,22.132884 C77.9433652,22.132884 76.3763652,20.653884 76.3763652,18.617884 Z" id="text-bob"></path>
        </g>
    </g>
</svg>