<svg width="56" height="56" viewBox="0 0 56 56" fill="none" xmlns="http://www.w3.org/2000/svg">
<g filter="url(#filter0_i_1_3940)">
<rect width="56" height="56" rx="8" fill="url(#paint0_linear_1_3940)"/>
<rect x="0.5" y="0.5" width="55" height="55" rx="7.5" stroke="url(#paint1_linear_1_3940)"/>
<g clip-path="url(#clip0_1_3940)">
<path d="M26.5 22C25.673 22 25 21.327 25 20.5C25 20.224 24.776 20 24.5 20C24.224 20 24 20.224 24 20.5C24 21.327 23.327 22 22.5 22C22.224 22 22 22.224 22 22.5C22 22.776 22.224 23 22.5 23C23.327 23 24 23.673 24 24.5C24 24.776 24.224 25 24.5 25C24.776 25 25 24.776 25 24.5C25 23.673 25.673 23 26.5 23C26.776 23 27 22.776 27 22.5C27 22.224 26.776 22 26.5 22Z" fill="white"/>
<path d="M31.5 23C32.327 23 33 23.673 33 24.5C33 24.776 33.224 25 33.5 25C33.776 25 34 24.776 34 24.5C34 23.673 34.673 23 35.5 23C35.776 23 36 22.776 36 22.5C36 22.224 35.776 22 35.5 22C34.673 22 34 21.327 34 20.5C34 20.224 33.776 20 33.5 20C33.224 20 33 20.224 33 20.5C33 21.327 32.327 22 31.5 22C31.224 22 31 22.224 31 22.5C31 22.776 31.224 23 31.5 23Z" fill="white"/>
<path d="M35.5 30.9932C34.673 30.9932 34 30.3202 34 29.4932C34 29.2172 33.776 28.9932 33.5 28.9932C33.224 28.9932 33 29.2172 33 29.4932C33 30.3202 32.327 30.9932 31.5 30.9932C31.224 30.9932 31 31.2172 31 31.4932C31 31.7692 31.224 31.9932 31.5 31.9932C32.327 31.9932 33 32.6662 33 33.4932C33 33.7692 33.224 33.9932 33.5 33.9932C33.776 33.9932 34 33.7692 34 33.4932C34 32.6662 34.673 31.9932 35.5 31.9932C35.776 31.9932 36 31.7692 36 31.4932C36 31.2172 35.776 30.9932 35.5 30.9932Z" fill="white"/>
<path d="M30.7082 26.2932L29.7082 25.2932C29.3172 24.9022 28.6852 24.9022 28.2942 25.2932L26.3242 27.2632L28.7382 29.6772L30.7082 27.7072C31.0992 27.3162 31.0992 26.6842 30.7082 26.2932Z" fill="white"/>
<path d="M25.2632 28.3232L20.2932 33.2932C19.9022 33.6842 19.9022 34.3162 20.2932 34.7072L21.2932 35.7072C21.4883 35.9022 21.7443 36.0002 22.0003 36.0002C22.2563 36.0002 22.5123 35.9022 22.7073 35.7072L27.6772 30.7372L25.2632 28.3232Z" fill="white"/>
</g>
</g>
<defs>
<filter id="filter0_i_1_3940" x="0" y="0" width="56" height="60" filterUnits="userSpaceOnUse" color-interpolation-filters="sRGB">
<feFlood flood-opacity="0" result="BackgroundImageFix"/>
<feBlend mode="normal" in="SourceGraphic" in2="BackgroundImageFix" result="shape"/>
<feColorMatrix in="SourceAlpha" type="matrix" values="0 0 0 0 0 0 0 0 0 0 0 0 0 0 0 0 0 0 127 0" result="hardAlpha"/>
<feOffset dy="4"/>
<feGaussianBlur stdDeviation="4"/>
<feComposite in2="hardAlpha" operator="arithmetic" k2="-1" k3="1"/>
<feColorMatrix type="matrix" values="0 0 0 0 0.496486 0 0 0 0 0.528316 0 0 0 0 0.599933 0 0 0 0.5 0"/>
<feBlend mode="normal" in2="shape" result="effect1_innerShadow_1_3940"/>
</filter>
<linearGradient id="paint0_linear_1_3940" x1="28" y1="0" x2="28" y2="56" gradientUnits="userSpaceOnUse">
<stop stop-color="#6F8499" stop-opacity="0.3"/>
<stop offset="1" stop-color="#202535"/>
</linearGradient>
<linearGradient id="paint1_linear_1_3940" x1="28" y1="0" x2="28" y2="56" gradientUnits="userSpaceOnUse">
<stop stop-color="#57616E"/>
<stop offset="1" stop-color="#1A1E29"/>
</linearGradient>
<clipPath id="clip0_1_3940">
<rect width="16" height="16" fill="white" transform="translate(20 20)"/>
</clipPath>
</defs>
</svg>
