<svg width="16" height="16" viewBox="0 0 16 16" fill="none" xmlns="http://www.w3.org/2000/svg">
<path d="M8.78424 6.549C8.08424 6.886 1.88424 9.871 0.879244 10.879C0.592713 11.1557 0.364166 11.4868 0.206939 11.8528C0.0497123 12.2188 -0.0330464 12.6125 -0.0365078 13.0108C-0.0399693 13.4091 0.0359358 13.8042 0.186778 14.1729C0.337621 14.5416 0.56038 14.8765 0.842059 15.1582C1.12374 15.4399 1.45869 15.6626 1.82738 15.8135C2.19607 15.9643 2.59111 16.0402 2.98945 16.0368C3.38778 16.0333 3.78145 15.9505 4.14746 15.7933C4.51347 15.6361 4.8445 15.4075 5.12124 15.121C6.12924 14.113 9.11424 7.921 9.45124 7.221C9.49599 7.12766 9.51066 7.02272 9.49322 6.92068C9.47579 6.81864 9.42712 6.72453 9.35392 6.65133C9.28072 6.57813 9.18661 6.52946 9.08457 6.51202C8.98253 6.49459 8.87759 6.50926 8.78424 6.554V6.549Z" fill="white"/>
<path d="M2 0C1.73478 0 1.48043 0.105357 1.29289 0.292893C1.10536 0.48043 1 0.734784 1 1V4C1 4.26522 1.10536 4.51957 1.29289 4.70711C1.48043 4.89464 1.73478 5 2 5C2.26522 5 2.51957 4.89464 2.70711 4.70711C2.89464 4.51957 3 4.26522 3 4V2.041C5.82584 2.28139 8.47568 3.51323 10.481 5.51871C12.4863 7.52419 13.7179 10.1741 13.958 13H12C11.7348 13 11.4804 13.1054 11.2929 13.2929C11.1054 13.4804 11 13.7348 11 14C11 14.2652 11.1054 14.5196 11.2929 14.7071C11.4804 14.8946 11.7348 15 12 15H15C15.2652 15 15.5196 14.8946 15.7071 14.7071C15.8946 14.5196 16 14.2652 16 14C15.996 10.2882 14.5198 6.72954 11.8951 4.10489C9.27046 1.48024 5.71181 0.00397056 2 0Z" fill="white"/>
</svg>