<svg width="96" height="96" viewBox="0 0 96 96" fill="none" xmlns="http://www.w3.org/2000/svg">
<g filter="url(#filter0_i_522_11873)">
<rect width="96" height="96" rx="24" fill="url(#paint0_linear_522_11873)"/>
<rect x="0.5" y="0.5" width="95" height="95" rx="23.5" stroke="url(#paint1_linear_522_11873)"/>
<path d="M46 51H35C34.448 51 34 50.552 34 50V34C34 33.448 34.448 33 35 33H46C46.552 33 47 33.448 47 34V50C47 50.552 46.552 51 46 51Z" fill="white"/>
<path d="M46 63H35C34.448 63 34 62.552 34 62V54C34 53.448 34.448 53 35 53H46C46.552 53 47 53.448 47 54V62C47 62.552 46.552 63 46 63Z" fill="white"/>
<path d="M61 43H50C49.448 43 49 42.552 49 42V34C49 33.448 49.448 33 50 33H61C61.552 33 62 33.448 62 34V42C62 42.552 61.552 43 61 43Z" fill="white"/>
<path d="M61 63H50C49.448 63 49 62.552 49 62V46C49 45.448 49.448 45 50 45H61C61.552 45 62 45.448 62 46V62C62 62.552 61.552 63 61 63Z" fill="white"/>
</g>
<defs>
<filter id="filter0_i_522_11873" x="0" y="0" width="96" height="100" filterUnits="userSpaceOnUse" color-interpolation-filters="sRGB">
<feFlood flood-opacity="0" result="BackgroundImageFix"/>
<feBlend mode="normal" in="SourceGraphic" in2="BackgroundImageFix" result="shape"/>
<feColorMatrix in="SourceAlpha" type="matrix" values="0 0 0 0 0 0 0 0 0 0 0 0 0 0 0 0 0 0 127 0" result="hardAlpha"/>
<feOffset dy="4"/>
<feGaussianBlur stdDeviation="4"/>
<feComposite in2="hardAlpha" operator="arithmetic" k2="-1" k3="1"/>
<feColorMatrix type="matrix" values="0 0 0 0 0.496486 0 0 0 0 0.528316 0 0 0 0 0.599933 0 0 0 0.5 0"/>
<feBlend mode="normal" in2="shape" result="effect1_innerShadow_522_11873"/>
</filter>
<linearGradient id="paint0_linear_522_11873" x1="48" y1="0" x2="48" y2="96" gradientUnits="userSpaceOnUse">
<stop stop-color="#6F8499" stop-opacity="0.3"/>
<stop offset="1" stop-color="#202535"/>
</linearGradient>
<linearGradient id="paint1_linear_522_11873" x1="48" y1="0" x2="48" y2="96" gradientUnits="userSpaceOnUse">
<stop stop-color="#57616E"/>
<stop offset="1" stop-color="#1A1E29"/>
</linearGradient>
</defs>
</svg>
