<svg width="136" height="136" viewBox="0 0 136 136" fill="none" xmlns="http://www.w3.org/2000/svg">
<g filter="url(#filter0_b_699_5255)">
<circle cx="68" cy="68" r="68" fill="white" fill-opacity="0.01"/>
<circle cx="68" cy="68" r="68" fill="#A0B3C9" fill-opacity="0.19"/>
</g>
<circle cx="68" cy="68" r="44" fill="#090A0C"/>
<path d="M66.5 57.5C66.3011 57.5 66.1103 57.579 65.9697 57.7197C65.829 57.8603 65.75 58.0511 65.75 58.25V76.25C65.75 76.4489 65.829 76.6397 65.9697 76.7803C66.1103 76.921 66.3011 77 66.5 77C66.6989 77 66.8897 76.921 67.0303 76.7803C67.171 76.6397 67.25 76.4489 67.25 76.25V58.25C67.25 58.0511 67.171 57.8603 67.0303 57.7197C66.8897 57.579 66.6989 57.5 66.5 57.5Z" fill="white"/>
<path d="M69.5 59C69.3011 59 69.1103 59.079 68.9697 59.2197C68.829 59.3603 68.75 59.5511 68.75 59.75V77.75C68.75 77.9489 68.829 78.1397 68.9697 78.2803C69.1103 78.421 69.3011 78.5 69.5 78.5C69.6989 78.5 69.8897 78.421 70.0303 78.2803C70.171 78.1397 70.25 77.9489 70.25 77.75V59.75C70.25 59.5511 70.171 59.3603 70.0303 59.2197C69.8897 59.079 69.6989 59 69.5 59Z" fill="white"/>
<path d="M60.5 65C60.3011 65 60.1103 65.079 59.9697 65.2197C59.829 65.3603 59.75 65.5511 59.75 65.75V70.25C59.75 70.4489 59.829 70.6397 59.9697 70.7803C60.1103 70.921 60.3011 71 60.5 71C60.6989 71 60.8897 70.921 61.0303 70.7803C61.171 70.6397 61.25 70.4489 61.25 70.25V65.75C61.25 65.5511 61.171 65.3603 61.0303 65.2197C60.8897 65.079 60.6989 65 60.5 65Z" fill="white"/>
<path d="M63.5 62C63.3011 62 63.1103 62.079 62.9697 62.2197C62.829 62.3603 62.75 62.5511 62.75 62.75V73.25C62.75 73.4489 62.829 73.6397 62.9697 73.7803C63.1103 73.921 63.3011 74 63.5 74C63.6989 74 63.8897 73.921 64.0303 73.7803C64.171 73.6397 64.25 73.4489 64.25 73.25V62.75C64.25 62.5511 64.171 62.3603 64.0303 62.2197C63.8897 62.079 63.6989 62 63.5 62Z" fill="white"/>
<path d="M57.5 66.5C57.3011 66.5 57.1103 66.579 56.9697 66.7197C56.829 66.8603 56.75 67.0511 56.75 67.25V68.75C56.75 68.9489 56.829 69.1397 56.9697 69.2803C57.1103 69.421 57.3011 69.5 57.5 69.5C57.6989 69.5 57.8897 69.421 58.0303 69.2803C58.171 69.1397 58.25 68.9489 58.25 68.75V67.25C58.25 67.0511 58.171 66.8603 58.0303 66.7197C57.8897 66.579 57.6989 66.5 57.5 66.5Z" fill="white"/>
<path d="M78.5 66.5C78.3011 66.5 78.1103 66.579 77.9697 66.7197C77.829 66.8603 77.75 67.0511 77.75 67.25V68.75C77.75 68.9489 77.829 69.1397 77.9697 69.2803C78.1103 69.421 78.3011 69.5 78.5 69.5C78.6989 69.5 78.8897 69.421 79.0303 69.2803C79.171 69.1397 79.25 68.9489 79.25 68.75V67.25C79.25 67.0511 79.171 66.8603 79.0303 66.7197C78.8897 66.579 78.6989 66.5 78.5 66.5Z" fill="white"/>
<path d="M72.5 62C72.3011 62 72.1103 62.079 71.9697 62.2197C71.829 62.3603 71.75 62.5511 71.75 62.75V73.25C71.75 73.4489 71.829 73.6397 71.9697 73.7803C72.1103 73.921 72.3011 74 72.5 74C72.6989 74 72.8897 73.921 73.0303 73.7803C73.171 73.6397 73.25 73.4489 73.25 73.25V62.75C73.25 62.5511 73.171 62.3603 73.0303 62.2197C72.8897 62.079 72.6989 62 72.5 62Z" fill="white"/>
<path d="M75.5 65C75.3011 65 75.1103 65.079 74.9697 65.2197C74.829 65.3603 74.75 65.5511 74.75 65.75V70.25C74.75 70.4489 74.829 70.6397 74.9697 70.7803C75.1103 70.921 75.3011 71 75.5 71C75.6989 71 75.8897 70.921 76.0303 70.7803C76.171 70.6397 76.25 70.4489 76.25 70.25V65.75C76.25 65.5511 76.171 65.3603 76.0303 65.2197C75.8897 65.079 75.6989 65 75.5 65Z" fill="white"/>
<defs>
<filter id="filter0_b_699_5255" x="-34.4" y="-34.4" width="204.8" height="204.8" filterUnits="userSpaceOnUse" color-interpolation-filters="sRGB">
<feFlood flood-opacity="0" result="BackgroundImageFix"/>
<feGaussianBlur in="BackgroundImageFix" stdDeviation="17.2"/>
<feComposite in2="SourceAlpha" operator="in" result="effect1_backgroundBlur_699_5255"/>
<feBlend mode="normal" in="SourceGraphic" in2="effect1_backgroundBlur_699_5255" result="shape"/>
</filter>
</defs>
</svg>
