<svg width="225" height="74" viewBox="0 0 225 74" fill="none" xmlns="http://www.w3.org/2000/svg">
<path d="M44.3339 17.0331V35.1198C44.3339 39.3716 43.2134 42.7309 40.9723 45.1982C38.7313 47.6655 35.7234 48.899 31.9484 48.899C30.07 48.9154 28.2144 48.4894 26.5325 47.6555C24.8551 46.8178 23.4025 45.5921 22.2969 44.0813C21.1465 45.5895 19.6708 46.8211 17.9792 47.6853C16.3287 48.5021 14.5071 48.9183 12.6642 48.899C8.88688 48.899 5.8738 47.6581 3.62528 45.1759C1.37676 42.6937 0.256239 39.3429 0.263709 35.1236V17.0331H5.86259V36.1139C5.86259 38.3254 6.48523 40.1077 7.73013 41.4603C8.97503 42.8129 10.6222 43.4882 12.6716 43.4856C14.5425 43.5508 16.3533 42.8047 17.6318 41.4416C18.9141 40.0816 19.5554 38.3057 19.5554 36.1139V17.0331H25.1207V36.1139C25.1207 38.3254 25.7433 40.1077 26.9882 41.4603C28.2331 42.8129 29.8803 43.4882 31.9297 43.4856C33.7946 43.5504 35.5975 42.8006 36.8637 41.4342C38.1288 40.0742 38.7623 38.2982 38.7649 36.1065V17.0331H44.3339Z" fill="#B9C1CC"/>
<path d="M71.6928 48.3256V32.7259C71.6928 29.4522 70.7639 26.7987 68.9065 24.7659C67.049 22.7331 64.6384 21.7178 61.6753 21.7205C58.7321 21.7205 56.3155 22.7257 54.4256 24.7361C52.5356 26.7466 51.5918 29.3353 51.5944 32.5025C51.5944 35.7293 52.5655 38.3775 54.5077 40.4476C56.45 42.5176 58.9252 43.5552 61.9331 43.5601C63.2915 43.5608 64.6395 43.3225 65.9147 42.8564C67.3116 42.3311 68.6222 41.601 69.8029 40.6896V46.7172C68.5326 47.4347 67.1708 47.9771 65.7541 48.3293C64.2933 48.6841 62.7944 48.8606 61.2906 48.8543C59.7817 48.8528 58.2813 48.6216 56.8422 48.1692C55.4172 47.7336 54.0677 47.0821 52.8419 46.237C50.6509 44.7622 48.8678 42.7607 47.6576 40.4178C46.4437 38.0086 45.8289 35.3436 45.8648 32.6477C45.8648 27.9592 47.3465 24.0883 50.3095 21.0354C53.2725 17.9825 57.039 16.4571 61.6081 16.4597C64.5174 16.4318 67.3773 17.2159 69.8626 18.7234C72.3401 20.207 74.3414 22.3657 75.6296 24.9446C76.2605 26.1751 76.7072 27.4909 76.9556 28.8502C77.2689 30.9448 77.4026 33.0621 77.3552 35.1794V48.3219L71.6928 48.3256Z" fill="#B9C1CC"/>
<path fill-rule="evenodd" clip-rule="evenodd" d="M80.625 2.64709H86.2575V48.3256H80.625V2.64709Z" fill="#B9C1CC"/>
<path d="M90.0703 48.3256V2.64709H95.7028V28.3885H98.1978C99.5738 28.4469 100.938 28.1026 102.12 27.3981C103.133 26.738 104.226 25.4409 105.399 23.5075L109.399 17.0331H115.958L111.353 24.4793C110.657 25.652 109.853 26.7574 108.951 27.7816C108.321 28.53 107.562 29.1603 106.71 29.6432C109.292 30.1395 111.197 31.1983 112.425 32.819C113.652 34.4396 114.265 36.742 114.262 39.7253V48.3256H108.6V40.414C108.6 38.1802 108.103 36.5048 107.106 35.4549C106.109 34.405 104.544 33.88 102.392 33.88H95.7028V48.3256H90.0703Z" fill="#B9C1CC"/>
<path fill-rule="evenodd" clip-rule="evenodd" d="M202.72 0H139.142C127.397 0 117.732 9.63348 117.732 21.3407V41.9517C117.732 53.6589 127.397 63.2924 139.142 63.2924H155.614L170.696 74L185.778 63.2924H202.72C214.465 63.2924 224.13 53.6589 224.13 41.9517V21.3444C224.13 9.63646 214.466 0.00186154 202.72 0Z" fill="#B9C1CC"/>
<path d="M132.316 47.6555V29.5464C132.316 25.2946 133.437 21.9353 135.678 19.468C137.919 17.0007 140.937 15.7673 144.732 15.7673C146.597 15.7494 148.44 16.1705 150.11 16.9959C151.79 17.8455 153.247 19.0745 154.365 20.5849C155.502 19.0749 156.97 17.8421 158.656 16.981C160.316 16.163 162.146 15.7472 163.997 15.7673C167.755 15.7673 170.758 17.0082 173.006 19.4904C175.255 21.9725 176.375 25.3233 176.368 29.5427V47.6555H170.814V28.4965C170.814 26.3073 170.185 24.5415 168.928 23.1985C166.207 20.5406 161.791 20.5406 159.071 23.1985C157.811 24.5389 157.181 26.3047 157.181 28.4965V47.6555H151.616V28.4965C151.616 26.3073 150.974 24.5415 149.692 23.1985C148.402 21.8564 146.596 21.1255 144.732 21.1918C142.685 21.1918 141.038 21.8608 139.79 23.1985C138.543 24.5362 137.92 26.3025 137.923 28.4965V47.6555H132.316Z" fill="white"/>
<path d="M209.543 33.7907C208.751 38.2584 206.937 41.789 204.101 44.3829C201.265 46.9768 197.81 48.2735 193.736 48.2735C192.348 48.2728 190.966 48.0847 189.628 47.715C188.283 47.3472 186.995 46.7943 185.803 46.0732C178.917 41.8594 176.06 33.2226 179.08 25.7526C179.882 23.7909 181.054 22.0001 182.531 20.477C185.474 17.4237 189.549 15.704 193.796 15.7226C196.826 15.6734 199.801 16.5409 202.327 18.2096C204.83 19.8776 206.861 22.3061 208.423 25.4957L187.846 36.8585L185.474 32.6179L200.74 24.1256C199.86 23.1274 198.781 22.3236 197.572 21.7652C196.366 21.2268 195.058 20.955 193.736 20.9684C191.018 20.9256 188.413 22.0753 186.617 24.1107C184.685 26.2031 183.719 28.7917 183.719 31.877C183.719 34.9624 184.69 37.5462 186.632 39.6285C188.466 41.6423 191.072 42.792 193.8 42.792C196.274 42.792 198.655 41.8475 200.452 40.1535C202.255 38.401 203.376 35.9937 203.814 32.9307L209.543 33.7907Z" fill="white"/>
</svg>
