<svg width="91" height="21" viewBox="0 0 91 21" fill="none" xmlns="http://www.w3.org/2000/svg">
<g clip-path="url(#clip0_1_3554)">
<path fill-rule="evenodd" clip-rule="evenodd" d="M84.2186 14.755L84.1555 14.2206C84.142 14.1314 83.8436 12.0253 85.2588 10.544C85.6707 10.1117 86.1677 9.86419 86.6221 9.86419C87.0094 9.86419 87.3279 10.0349 87.4894 10.3606C88.2711 11.9368 84.2186 14.755 84.2186 14.755ZM78.058 11.4361L78.0041 10.5469L77.996 10.4352C77.9943 10.4074 77.7981 7.59428 77.9729 5.59202C78.1649 3.41445 78.7948 2.00769 79.5769 2.00769C79.737 2.00769 79.8904 2.0908 80.0104 2.24249C80.4006 2.73467 80.5148 4.04748 80.2705 5.23029C79.8772 7.11911 79.2541 8.61689 78.7976 9.71366C78.6685 10.0238 78.5541 10.2982 78.4643 10.5366L78.058 11.4361ZM73.7843 17.3669C72.7856 17.3669 72.3139 16.3983 72.3139 15.4879C72.3139 10.7902 74.8755 9.86419 75.9955 10.225C75.9955 10.225 76.0323 11.1173 76.1225 12.2657C76.2011 13.263 76.2718 14.4434 76.2885 14.5453C76.2885 14.5453 75.3579 17.3669 73.7843 17.3669ZM65.6432 10.4077C65.6432 10.4077 65.3584 17.3669 62.7652 17.3669C61.5229 17.3669 61.4265 15.9644 61.4265 15.534C61.4265 10.5708 65.1441 9.68713 65.6432 10.4077ZM41.6512 17.5332C40.1636 17.5332 39.6339 16.0378 39.6339 14.6382C39.6339 12.0885 41.1005 10.1106 42.3615 10.1106C43.5899 10.1106 44.0361 11.8203 44.0361 12.9691C44.0361 15.5285 42.9883 17.5332 41.6512 17.5332ZM17.978 11.6142C17.1252 12.9579 15.1828 14.2873 14.6183 14.4991C14.6183 14.4991 14.2131 11.8672 16.3339 10.3303C17.8878 9.20419 18.5945 10.643 17.978 11.6142ZM82.8429 17.786C83.4486 18.7534 84.5275 19.2246 86.0527 19.2246C87.7296 19.2246 89.4647 17.9468 90.4576 16.7567C91.0476 16.0508 91.1114 15.6453 90.8632 15.4237C90.6375 15.2223 90.1387 15.4858 89.6819 15.9048C89.0659 16.4697 87.7611 17.2819 86.6192 17.2819C85.2348 17.2819 84.6039 16.3695 84.6039 16.3695C87.4233 14.6257 89.4999 12.6463 89.4999 10.9475C89.4999 9.04355 88.1074 8.19213 86.7272 8.19213C84.2583 8.19213 81.593 10.4796 81.593 14.1756C81.593 15.3971 81.9986 16.435 81.9986 16.435C81.9986 16.435 81.5088 17.2072 79.9519 17.0768C78.2972 16.9383 78.4021 13.9052 78.4021 13.9052C78.4021 13.9052 78.9083 12.9486 79.0994 12.5923C80.2194 10.5063 81.7524 7.65013 82.0001 4.22527C82.138 2.30625 81.6021 1.27573 81.1279 0.748817C80.7062 0.279652 80.1427 0 79.6206 0C77.7066 0 76.3786 1.99128 76.0567 3.95822C75.7419 5.88706 75.8687 8.75628 75.8687 8.75628C75.8687 8.75628 74.1491 8.32507 72.4233 9.51242C70.8442 10.5986 70.1437 12.7725 69.9232 13.8697C69.8228 14.3607 69.7888 14.8761 69.8214 15.4005C69.8366 15.6451 69.9105 16.1162 69.9105 16.1162C69.9105 16.1162 69.3428 17.3293 68.3339 17.3293C66.7086 17.3293 67.7815 9.6886 67.8438 9.25886C67.894 8.91281 68.1024 8.17425 66.9558 8.12252C66.263 8.0913 65.974 8.35365 65.9209 8.69604L65.8743 9.03695C65.8743 9.03695 63.5241 7.41518 60.8634 10.336C59.4459 11.8895 58.9312 14.1375 58.9079 15.9412L58.9067 16.0548C58.9067 16.0548 58.3237 17.7642 56.967 17.5083C56.0637 17.338 55.95 15.7082 55.95 15.0782C55.95 13.8697 56.2245 12.5231 56.4454 11.441C56.5849 10.7552 56.7058 10.1639 56.7058 9.84044C56.7058 8.6849 56.3864 8.19213 55.6388 8.19213C54.6212 8.19213 53.7079 9.00984 52.6961 10.2722C51.4048 11.8833 50.4441 14.4005 50.4441 14.4005C50.4441 14.4005 50.4864 13.9505 50.5531 13.5167C50.5963 13.2361 50.7137 11.9368 50.9305 10.7569C51.0507 10.1038 51.0945 9.56914 51.1021 9.51154C51.1401 9.19173 51.0688 8.9156 50.8966 8.71289C50.7271 8.51371 50.4679 8.39909 50.1857 8.39909C49.7336 8.39909 49.1519 8.70556 48.8756 9.56563C48.7494 9.95403 48.677 10.2404 48.587 10.7017L48.5024 11.1297L48.188 10.8389C46.9428 9.68391 45.2177 8.30748 42.7441 8.30748C39.2605 8.30748 37.3804 11.5782 37.3804 14.6564C37.3804 15.0357 37.4037 15.3974 37.4487 15.7325L37.4663 15.8647C37.4663 15.8647 36.7392 17.6505 35.4628 17.3251C34.9039 17.1826 34.5597 16.5782 34.5597 15.1389C34.5597 13.9414 34.797 12.3142 34.9388 11.3378C34.9868 11.0064 35.0253 10.7448 35.0359 10.6228L35.0674 10.2617C35.1649 9.17473 35.1924 8.68372 34.8373 8.44702C34.5762 8.27524 34.301 8.19213 33.9973 8.19213C33.7052 8.19213 33.4751 8.32932 33.2701 8.47736C32.9548 8.70615 31.9232 10.099 29.9747 13.3242C29.9432 13.3764 29.9251 13.4042 29.9233 13.4067L29.7107 13.8218L29.1996 14.9634L29.4782 13.3047L29.4958 13.1961C29.5413 12.9171 29.6219 12.4253 29.6552 12.2688L29.7369 11.9088C29.8685 11.331 30.1424 10.1293 30.1786 9.91695C30.2959 9.21298 30.2498 8.74265 30.0372 8.47985C29.88 8.28623 29.6173 8.19213 29.2335 8.19213C28.5267 8.19213 27.9578 8.73708 26.9771 10.3521C26.8241 10.6046 26.2512 11.5683 25.7985 12.3312C25.212 13.32 24.68 14.0513 24.68 14.0513L24.8037 12.7294C24.8984 12.1358 25.2529 9.40953 25.2576 9.28158C25.2564 8.70674 24.9761 8.4391 24.375 8.4391C24.1303 8.4391 23.5339 8.49377 23.2839 8.99987C23.0549 9.46244 22.4194 11.5576 22.1104 14.7618C22.1104 14.7618 19.6508 17.1763 17.0212 17.1763C16.0522 17.1763 15.2853 16.7917 15.0073 16.0404C15.0073 16.0404 16.4141 15.295 17.0821 14.8233C18.7928 13.6156 20.0372 12.3849 20.0372 10.8044C20.0372 8.87075 18.29 7.99998 16.8466 8.19213C14.3677 8.52206 12.2726 11.1701 12.2726 14.246C12.2726 17.1394 13.8537 19.2246 16.6053 19.2246C19.7923 19.2246 21.9922 16.5448 21.9922 16.5448L21.926 17.768C21.885 18.4056 22.1427 19.2246 23.1922 19.2246C23.4708 19.2246 23.9796 19.1342 24.25 18.5286C25.8826 14.8919 27.5923 12.0077 27.6091 11.9793L27.6676 11.881L27.9642 11.3007L28.4059 10.5494L28.0519 12.1619C27.9876 12.5298 27.4246 15.8017 27.344 17.2443C27.3025 17.9726 27.3019 18.6893 27.5811 18.9964C27.7225 19.1525 27.9497 19.2246 28.2954 19.2246C29.0682 19.2246 29.5477 18.9521 29.7206 18.4144C30.9787 14.5393 32.3345 11.9246 32.3916 11.8149L32.4448 11.7134L33.1562 10.2988C33.1562 10.2988 32.595 13.526 32.595 15.7269C32.595 16.7788 32.798 18.6939 34.2684 19.0577C36.5318 19.6179 37.9224 17.2303 37.9224 17.2303L38.0696 17.6486C38.7156 18.7537 39.7892 19.3382 41.1747 19.3382C44.0454 19.3382 45.9005 17.0652 45.9005 13.547C45.9005 11.3642 44.9134 10.1136 44.9134 10.1136C44.9134 10.1136 46.009 10.5056 46.8136 11.0927C47.6853 11.7287 48.3043 12.4023 48.3043 12.4023L48.2827 12.5461C48.2569 12.7136 48.2336 12.8823 48.2102 13.0529C48.1197 13.7279 48.0398 14.4355 47.972 15.1571C47.9095 15.8295 47.8773 16.4376 47.8773 16.9639C47.8773 17.2838 47.8943 17.5787 47.9304 17.8664C47.962 18.1346 48.0268 18.3792 48.1221 18.5916C48.1525 18.6565 48.4381 19.2246 49.16 19.2246C49.6418 19.2246 49.9511 19.0471 50.1793 18.5067C52.4102 13.2207 54.1973 11.5267 54.3543 11.3583C54.7684 10.9143 54.5815 11.7407 54.5815 11.7407L54.5652 11.8495C54.5622 11.867 54.2865 13.6574 54.2246 14.2019C54.1621 14.7389 54.1306 15.2517 54.1306 15.7269C54.1306 17.1993 54.4539 18.8774 56.1459 19.1425C58.4587 19.5051 59.2601 17.6648 59.2601 17.6648C59.2601 17.6648 60.0969 19.2246 62.0727 19.2246C64.9699 19.2246 65.8668 16.9724 65.8668 16.9724C66.1719 18.3275 66.715 19.0577 68.0214 19.0577C69.4354 19.0577 70.4176 17.4423 70.4176 17.4423C70.4176 17.4423 71.2356 19.2246 73.2344 19.2246C75.548 19.2246 76.7307 17.4281 76.7793 17.3529L77.0477 16.9263C77.0477 16.9263 77.801 18.8643 79.7436 18.9757C81.5807 19.081 82.8429 17.786 82.8429 17.786ZM3.46331 18.4784C1.42058 18.4016 1.3079 16.7913 3.18397 16.3755C4.89826 15.9956 6.32804 16.6037 6.32804 16.6037C6.32804 16.6037 5.89543 18.57 3.46331 18.4784ZM12.5345 2.1997C13.7148 2.29804 13.6261 3.96291 13.3049 5.00677C12.3636 8.06682 10.1123 8.15813 10.1123 8.15813C10.1123 8.15813 10.8245 2.05723 12.5345 2.1997ZM9.91283 9.62044C9.91283 9.62044 13.6972 9.64594 14.9861 5.11977C15.7361 2.48565 14.674 0.240665 12.4593 0.193177C10.223 0.145249 8.49057 2.15294 7.67875 8.15344C7.67875 8.15344 5.5172 7.86426 4.56229 6.13578C4.11056 5.31793 3.429 5.69857 3.64155 6.47582C4.36007 9.10408 7.5425 9.52722 7.5425 9.52722C7.5425 9.52722 7.4107 10.6907 7.21392 12.1149C7.02299 13.4966 6.69525 15.235 6.69525 15.235C6.69525 15.235 4.68739 14.5913 2.55108 15.0438C-0.731906 15.7392 -1.09312 19.8666 2.924 20.2742C7.63482 20.752 8.52432 17.4492 8.52432 17.4492C8.52432 17.4492 9.44981 17.9051 10.7631 19.0958C12.2186 20.4153 12.8837 21.2338 13.1855 20.9405C13.5163 20.6189 12.7876 19.4961 11.4386 18.0642C9.91199 16.4439 8.85541 16.0258 8.85541 16.0258C8.85541 16.0258 9.10798 14.9539 9.38328 13.2147C9.67476 11.3738 9.91283 9.62044 9.91283 9.62044Z" fill="white"/>
</g>
<defs>
<clipPath id="clip0_1_3554">
<rect width="91" height="21" fill="white"/>
</clipPath>
</defs>
</svg>
