<svg width="215" height="60" viewBox="0 0 215 60" fill="none" xmlns="http://www.w3.org/2000/svg">
<mask id="mask0_599_3014" style="mask-type:luminance" maskUnits="userSpaceOnUse" x="0" y="0" width="62" height="59">
<path d="M0.128906 0.610138H61.7356V58.7793H0.128906V0.610138Z" fill="white"/>
</mask>
<g mask="url(#mask0_599_3014)">
<path fill-rule="evenodd" clip-rule="evenodd" d="M45.7229 51.9454C30.8036 62.2893 12.0873 60.7127 3.91872 48.4239C-4.24982 36.1354 1.22254 17.788 16.1416 7.44407C31.0608 -2.89983 49.7772 -1.32323 57.9457 10.9655C66.1145 23.254 60.6419 41.6014 45.7229 51.9454Z" fill="#B9C1CC"/>
</g>
<path fill-rule="evenodd" clip-rule="evenodd" d="M45.2537 49.7118C31.2467 59.4293 13.6746 57.9482 6.00541 46.4038C-1.66378 34.8594 3.47401 17.6231 17.4811 7.90566C31.4882 -1.81176 49.0602 -0.330714 56.7294 11.2137C64.3986 22.7583 59.2606 39.9944 45.2537 49.7118Z" fill="#B9C1CC"/>
<path fill-rule="evenodd" clip-rule="evenodd" d="M48.1251 21.6192C46.874 20.3754 44.8339 17.9303 44.2718 14.7723C44.102 13.8175 43.8053 12.8237 43.1094 12.1502C36.1549 5.41831 26.7241 5.01985 20.102 6.22056C17.7408 6.0653 11.1028 4.10865 8.7083 6.94238C7.29569 8.61367 7.91295 11.2403 8.30747 12.652C8.37481 12.8924 8.94435 14.193 8.76889 14.3699C8.74252 14.3964 9.22116 14.6157 9.19522 14.6421C1.38697 24.3504 -1.51301 39.1562 5.37218 47.5828C14.2064 58.3947 30.2089 57.6383 39.3055 53.0894C17.1911 60.2374 20.1107 28.8755 34.6172 35.4365C36.1625 36.1353 39.4659 37.3634 41.4075 36.9389C44.0843 36.3535 44.7349 34.1841 45.43 32.4385L48.6205 23.8934C48.9156 23.1024 48.7227 22.2136 48.1251 21.6192Z" fill="#B9C1CC"/>
<path fill-rule="evenodd" clip-rule="evenodd" d="M41.0846 23.856C41.0413 24.0681 40.7353 24.0486 40.7176 23.833C40.4846 20.9781 39.1675 16.2168 30.1397 16.7641C29.8936 16.779 29.8354 16.6154 30.075 16.5551C34.1482 15.5275 38.8959 16.1256 40.3488 16.5174C40.7154 16.6165 40.3248 17.6937 40.3865 18.0698C40.5805 19.2526 41.6452 21.1145 41.0846 23.856ZM28.9272 11.2928C28.1031 11.1878 27.4956 10.6213 27.5712 10.0271C27.6464 9.43324 28.3755 9.03723 29.1994 9.14197C30.0238 9.24715 30.6303 9.81372 30.5556 10.4076C30.4804 11.0017 29.7513 11.3978 28.9272 11.2928ZM32.8862 10.9027C33.0083 10.5156 33.543 10.3401 34.0802 10.5108C34.6175 10.6818 34.9538 11.134 34.8315 11.5211C34.7091 11.9083 34.1746 12.0837 33.6376 11.9129C33.1001 11.7422 32.7637 11.29 32.8862 10.9027ZM19.4483 10.9508C15.907 10.9447 14.3541 13.9339 13.356 15.3784C13.21 15.1652 10.2263 10.7643 11.4881 9.4984C12.7139 8.26882 17.1919 9.65781 19.54 10.5056C19.7881 10.5952 19.7116 10.9512 19.4483 10.9508ZM11.8054 21.7856C11.0792 23.0397 9.84445 23.6795 9.04758 23.2153C8.25071 22.7508 8.19382 21.3575 8.91964 20.1034C9.64588 18.8493 10.8811 18.2093 11.6777 18.6737C12.4746 19.1384 12.5317 20.5316 11.8054 21.7856ZM8.20755 28.1788C8.00289 29.279 7.2701 30.0646 6.5711 29.9336C5.87166 29.8027 5.47105 28.8047 5.67572 27.7043C5.8806 26.6042 6.61317 25.8183 7.31261 25.9493C8.01161 26.0803 8.41266 27.0785 8.20755 28.1788ZM6.09551 34.8589C5.66721 34.8375 5.3442 34.335 5.37406 33.737C5.40392 33.1387 5.77511 32.6712 6.2034 32.6926C6.63169 32.7142 6.95493 33.2165 6.92507 33.8148C6.89543 34.4131 6.52359 34.8806 6.09551 34.8589ZM45.45 23.3683C45.7608 23.3561 47.4539 23.0303 47.4539 23.0303C47.4559 23.0303 47.4594 23.0296 47.4583 23.0292C47.3569 22.9701 44.1089 21.0358 43.1032 15.5218C42.9269 14.5556 42.5936 13.56 41.8706 12.8974C33.2372 4.98355 20.8273 7.82121 20.1656 8.61498C16.2835 7.70357 11.1228 6.31546 9.69907 8.33464C8.83964 9.55285 10.0105 11.4542 10.662 13.7537C10.713 13.938 10.9133 14.5405 10.7019 14.7532C-7.20733 33.7759 5.62232 62.629 34.4392 54.8759C33.6476 55.0556 32.3405 55.1884 31.4946 55.1884C25.3598 55.1884 21.0913 50.3951 21.0913 44.2405C21.0913 42.0846 21.7031 40.0729 22.7598 38.3675C20.2288 40.3604 18.5766 43.4098 18.3824 46.8048C18.285 46.3563 18.2057 45.9002 18.1566 45.4329C17.4727 38.9413 21.8402 33.1282 28.0268 32.006C29.8274 31.4941 32.0828 31.5555 34.8206 32.3989C36.5633 32.9351 39.7843 34.6766 42.0511 34.3002C42.8606 34.1658 43.4935 33.402 44.2372 31.5389C44.2372 31.5389 44.9293 30.0019 44.9282 30.003C43.7756 31.6349 37.0271 30.5341 38.3117 28.104C39.5964 25.6742 43.6071 32.3956 45.6276 27.7113C45.6276 27.7111 45.6276 27.7115 45.6276 27.7113L46.305 25.8472C46.4415 25.4715 46.3419 25.0412 46.0354 24.7851C45.0712 23.9789 45.2168 23.4322 45.45 23.3683Z" fill="white"/>
<path fill-rule="evenodd" clip-rule="evenodd" d="M139.178 21.8416C139.178 21.3878 139.465 21.1403 139.918 21.1403H144.772C145.225 21.1403 145.471 21.3878 145.471 21.8416V40.5356C145.471 47.7169 142.469 50.9354 135.723 50.9354C132.226 50.9354 129.759 50.2751 127.537 48.6654C127.126 48.4179 127.084 48.0459 127.332 47.6749L129.511 44.3327C129.759 43.9608 130.046 43.8788 130.458 44.0843C131.774 44.8691 133.502 45.4877 135.434 45.4877C137.903 45.4877 139.342 44.5392 139.302 41.4852C138.149 41.8152 136.875 42.0627 135.558 42.0627C130.581 42.0627 126.797 38.8439 126.797 33.2318V21.8416C126.797 21.3878 127.084 21.1403 127.537 21.1403H132.391C132.843 21.1403 133.09 21.3878 133.09 21.8416V33.108C133.09 35.5427 134.406 36.6159 136.504 36.6159C137.491 36.6159 138.561 36.3675 139.178 36.0373V21.8416Z" fill="#B9C1CC"/>
<path fill-rule="evenodd" clip-rule="evenodd" d="M84.536 24.4732C84.536 22.2909 83.034 20.7055 80.7871 20.7055H76.627V28.2408H80.7871C83.034 28.2408 84.536 26.6555 84.536 24.4732ZM90.273 24.4732C90.273 29.6486 86.2901 33.5022 81.0351 33.5022H76.627V41.6988H70.9648V15.4441H81.0351C86.2836 15.4441 90.273 19.2903 90.273 24.4732Z" fill="#B9C1CC"/>
<path fill-rule="evenodd" clip-rule="evenodd" d="M84.536 24.4732C84.536 22.2909 83.034 20.7055 80.7871 20.7055H76.627V28.2408H80.7871C83.034 28.2408 84.536 26.6555 84.536 24.4732ZM90.273 24.4732C90.273 29.6486 86.2901 33.5022 81.0351 33.5022H76.627V41.6988H70.9648V15.4441H81.0351C86.2836 15.4441 90.273 19.2903 90.273 24.4732Z" stroke="#B9C1CC" stroke-width="0.5582"/>
<path fill-rule="evenodd" clip-rule="evenodd" d="M93.0137 41.6989H98.4723V15.2555H93.0137V41.6989Z" fill="#B9C1CC"/>
<path fill-rule="evenodd" clip-rule="evenodd" d="M93.0137 41.6989H98.4723V15.2555H93.0137V41.6989Z" stroke="#B9C1CC" stroke-width="0.5582"/>
<path fill-rule="evenodd" clip-rule="evenodd" d="M118.057 31.5415C118.057 28.3599 115.732 25.9899 112.561 25.9899C109.39 25.9899 107.058 28.3664 107.058 31.5415C107.058 34.7166 109.39 37.0931 112.561 37.0931C115.732 37.0931 118.057 34.7231 118.057 31.5415ZM123.407 21.4147V41.6683H119.127L118.658 39.8564C116.925 41.379 114.663 42.2718 112.116 42.2718C106.043 42.2718 101.525 37.6725 101.525 31.5415C101.525 25.4345 106.043 20.8724 112.116 20.8724C114.707 20.8724 117.004 21.7884 118.749 23.3497L119.332 21.4138L123.407 21.4147Z" fill="#B9C1CC"/>
<path fill-rule="evenodd" clip-rule="evenodd" d="M118.057 31.5415C118.057 28.3599 115.732 25.9899 112.561 25.9899C109.39 25.9899 107.058 28.3664 107.058 31.5415C107.058 34.7166 109.39 37.093 112.561 37.093C115.732 37.093 118.057 34.7231 118.057 31.5415ZM123.407 21.4147V41.6683H119.127L118.658 39.8564C116.925 41.379 114.663 42.2718 112.116 42.2718C106.043 42.2718 101.525 37.6725 101.525 31.5415C101.525 25.4345 106.043 20.8724 112.116 20.8724C114.707 20.8724 117.004 21.7884 118.749 23.3497L119.332 21.4138L123.407 21.4147Z" stroke="#B9C1CC" stroke-width="0.5582"/>
<path fill-rule="evenodd" clip-rule="evenodd" d="M159.945 36.8227V41.6988H156.068C151.626 41.6988 148.896 38.9611 148.896 34.4668V21.404L152.956 16.5303H154.263V21.4453H159.833V25.8471H154.355V33.7404C154.355 35.6977 155.476 36.8227 157.465 36.8227H159.945Z" fill="#B9C1CC"/>
<path fill-rule="evenodd" clip-rule="evenodd" d="M159.945 36.8227V41.6988H156.068C151.626 41.6988 148.896 38.9611 148.896 34.4668V21.404L152.956 16.5303H154.263V21.4453H159.833V25.8471H154.355V33.7404C154.355 35.6977 155.476 36.8227 157.465 36.8227H159.945Z" stroke="#B9C1CC" stroke-width="0.5582"/>
<path fill-rule="evenodd" clip-rule="evenodd" d="M164.281 41.6989H169.74V21.4453H164.281V41.6989Z" fill="#B9C1CC"/>
<path fill-rule="evenodd" clip-rule="evenodd" d="M164.281 41.6989H169.74V21.4453H164.281V41.6989Z" stroke="#B9C1CC" stroke-width="0.5582"/>
<path fill-rule="evenodd" clip-rule="evenodd" d="M185.945 41.6989L179.484 32.0095V41.6989H174.025V15.6257H179.484V30.4447L185.544 21.4454H191.832L185.003 31.0902L192.559 41.6989H185.945Z" fill="#B9C1CC"/>
<path fill-rule="evenodd" clip-rule="evenodd" d="M185.945 41.6989L179.484 32.0095V41.6989H174.025V15.6257H179.484V30.4447L185.544 21.4454H191.832L185.003 31.0902L192.559 41.6989H185.945Z" stroke="#B9C1CC" stroke-width="0.5582"/>
<path fill-rule="evenodd" clip-rule="evenodd" d="M208.412 31.5415C208.412 28.3599 206.087 25.9899 202.917 25.9899C199.745 25.9899 197.414 28.3664 197.414 31.5415C197.414 34.7166 199.745 37.0931 202.917 37.0931C206.087 37.0931 208.412 34.7231 208.412 31.5415ZM213.762 21.4147V41.6683H209.483L209.014 39.8564C207.28 41.379 205.018 42.2718 202.472 42.2718C196.399 42.2718 191.881 37.6725 191.881 31.5415C191.881 25.4345 196.399 20.8724 202.472 20.8724C205.063 20.8724 207.359 21.7884 209.105 23.3497L209.688 21.4138L213.762 21.4147Z" fill="#B9C1CC"/>
<path fill-rule="evenodd" clip-rule="evenodd" d="M208.412 31.5415C208.412 28.3599 206.087 25.9899 202.917 25.9899C199.745 25.9899 197.414 28.3664 197.414 31.5415C197.414 34.7166 199.745 37.093 202.917 37.093C206.087 37.093 208.412 34.7231 208.412 31.5415ZM213.762 21.4147V41.6683H209.483L209.014 39.8564C207.28 41.379 205.018 42.2718 202.472 42.2718C196.399 42.2718 191.881 37.6725 191.881 31.5415C191.881 25.4345 196.399 20.8724 202.472 20.8724C205.063 20.8724 207.359 21.7884 209.105 23.3497L209.688 21.4138L213.762 21.4147Z" stroke="#B9C1CC" stroke-width="0.5582"/>
<path fill-rule="evenodd" clip-rule="evenodd" d="M168.753 18.2834C166.819 19.6003 164.393 19.3995 163.335 17.8352C162.276 16.2708 162.985 13.935 164.919 12.618C166.852 11.3011 169.278 11.5019 170.337 13.0664C171.395 14.6308 170.686 16.9666 168.753 18.2834Z" fill="#B9C1CC"/>
<path d="M1.95227 53.7395C2.21519 53.7395 2.47188 53.8073 2.72234 53.9429C2.97281 54.0771 3.16792 54.2702 3.30768 54.522C3.44744 54.7725 3.51733 55.034 3.51733 55.3066C3.51733 55.5765 3.44814 55.8359 3.30976 56.085C3.17276 56.3341 2.97973 56.5278 2.73064 56.6662C2.48295 56.8032 2.22349 56.8717 1.95227 56.8717C1.68105 56.8717 1.42089 56.8032 1.17181 56.6662C0.924117 56.5278 0.731079 56.3341 0.592701 56.085C0.454322 55.8359 0.385133 55.5765 0.385133 55.3066C0.385133 55.034 0.455014 54.7725 0.594776 54.522C0.735922 54.2702 0.931727 54.0771 1.18219 53.9429C1.43266 53.8073 1.68935 53.7395 1.95227 53.7395ZM1.95227 53.9989C1.73225 53.9989 1.51776 54.0557 1.30881 54.1692C1.10124 54.2812 0.938646 54.4425 0.821025 54.6528C0.703403 54.8617 0.644592 55.0797 0.644592 55.3066C0.644592 55.5322 0.702019 55.7487 0.816873 55.9563C0.933111 56.1625 1.09501 56.3237 1.30258 56.4399C1.51015 56.5548 1.72671 56.6122 1.95227 56.6122C2.17782 56.6122 2.39439 56.5548 2.60195 56.4399C2.80952 56.3237 2.97073 56.1625 3.08558 55.9563C3.20044 55.7487 3.25787 55.5322 3.25787 55.3066C3.25787 55.0797 3.19906 54.8617 3.08143 54.6528C2.9652 54.4425 2.8026 54.2812 2.59365 54.1692C2.3847 54.0557 2.1709 53.9989 1.95227 53.9989ZM2.45458 55.5599L2.70989 55.6346C2.66837 55.8076 2.57981 55.9459 2.4442 56.0497C2.30997 56.1521 2.14669 56.2033 1.95434 56.2033C1.7108 56.2033 1.51292 56.1244 1.3607 55.9667C1.20848 55.8089 1.13238 55.5903 1.13238 55.3108C1.13238 55.1281 1.16697 54.9697 1.23616 54.8354C1.30535 54.6998 1.4036 54.5981 1.53091 54.5303C1.6596 54.4611 1.80628 54.4265 1.97095 54.4265C2.15499 54.4265 2.3079 54.4708 2.42967 54.5594C2.55144 54.6466 2.63447 54.7656 2.67875 54.9164L2.43175 54.9766C2.39023 54.8742 2.32866 54.796 2.24701 54.742C2.16675 54.6867 2.07196 54.659 1.96265 54.659C1.80351 54.659 1.67205 54.7157 1.56827 54.8292C1.46587 54.9427 1.41467 55.1053 1.41467 55.317C1.41467 55.5287 1.4631 55.6892 1.55996 55.7986C1.65821 55.9065 1.78483 55.9605 1.93981 55.9605C2.06435 55.9605 2.17367 55.9245 2.26777 55.8525C2.36187 55.7806 2.42414 55.683 2.45458 55.5599Z" fill="#B9C1CC"/>
</svg>
