<svg width="77" height="16" viewBox="0 0 77 16" fill="none" xmlns="http://www.w3.org/2000/svg">
<g clip-path="url(#clip0_1_3588)">
<path d="M12.5722 14.4417C8.99216 14.4417 6.0908 11.5578 6.0908 8.00048C6.0908 4.44297 8.99216 1.56179 12.5722 1.56179C13.834 1.56179 15.0121 1.91932 16.0073 2.53904L12.5722 8.00048L19.0392 4.29074C18.3366 3.17856 17.3288 2.22024 16.1103 1.49304C14.5597 0.570766 12.4028 0 10.0177 0C6.61546 0 3.63065 1.22826 1.9661 3.06764C0.733714 4.42738 0 6.13872 0 8.00038C0 9.86338 0.733714 11.576 1.9661 12.9367C3.63498 14.7783 6.57532 15.9994 9.92145 15.9994C13.2671 15.9994 16.2066 14.7774 17.8765 12.9367C17.9679 12.8353 18.0565 12.733 18.1402 12.6268L17.8881 11.6878C16.7148 13.3517 14.7715 14.4417 12.5722 14.4417Z" fill="white"/>
<path d="M34.013 15.6122L31.2988 5.55278C30.8628 3.92722 29.3728 2.73242 27.5989 2.73242C27.1389 2.73242 26.698 2.81408 26.289 2.96191L20.4456 5.07286H26.4555L27.4825 8.88319C26.4863 8.0314 25.1888 7.51313 23.7682 7.51313C20.9471 7.51313 18.6631 9.39123 18.6631 11.708C18.6631 14.0249 20.9471 15.9057 23.7682 15.9057C25.7991 15.9057 27.5951 14.918 28.7029 13.4005L29.2987 15.6122H34.013ZM25.7336 14.0497C24.4323 14.0497 23.3774 13.0027 23.3774 11.708C23.3774 10.4151 24.4323 9.36713 25.7336 9.36713C27.0349 9.36713 28.0908 10.4151 28.0908 11.708C28.0908 13.0027 27.0349 14.0497 25.7336 14.0497Z" fill="white"/>
<path d="M45.0796 2.73389C44.7235 2.73389 44.3866 2.81211 44.0863 2.95219L40.3345 4.68926C40.1487 3.57966 39.1785 2.73389 38.0081 2.73389C37.6539 2.73389 37.3161 2.81211 37.0119 2.95219L32.4314 5.0726H35.6519V15.612H40.3662V6.24512C40.3662 5.59881 40.8927 5.0727 41.5453 5.0727C42.194 5.0727 42.7244 5.59881 42.7244 6.24512V15.612H47.4368V5.0726C47.4368 3.78008 46.3809 2.73389 45.0796 2.73389Z" fill="white"/>
<path d="M74.644 2.73389C74.2869 2.73389 73.9481 2.81211 73.643 2.95219L69.8951 4.68926C69.7103 3.57966 68.7401 2.73389 67.5697 2.73389C67.2155 2.73389 66.8776 2.81211 66.5725 2.95219L61.9939 5.0726H65.2135V15.612H69.9268V6.24512C69.9268 5.59881 70.4543 5.0727 71.1068 5.0727C71.7575 5.0727 72.284 5.59881 72.284 6.24512V15.612H77.0002V5.0726C77.0002 3.78008 75.9434 2.73389 74.644 2.73389Z" fill="white"/>
<path d="M62.7556 9.36678C62.7556 13.0301 59.767 15.9992 56.0806 15.9992C52.3914 15.9992 49.4009 13.0301 49.4009 9.36678C49.4009 5.70437 52.3914 2.73389 56.0806 2.73389C59.767 2.73389 62.7556 5.70447 62.7556 9.36678ZM56.3569 4.74691C56.147 3.96645 55.3395 3.50316 54.5541 3.71296C53.7697 3.92189 53.3009 4.72464 53.5117 5.505L55.8015 13.9864C56.0133 14.7676 56.8189 15.2304 57.6043 15.0239C58.3897 14.8125 58.8565 14.0103 58.6457 13.23L56.3569 4.74691Z" fill="white"/>
</g>
<defs>
<clipPath id="clip0_1_3588">
<rect width="77" height="16" fill="white"/>
</clipPath>
</defs>
</svg>
