<svg width="17" height="10" viewBox="0 0 17 10" fill="none" xmlns="http://www.w3.org/2000/svg">
<path d="M0.292787 0.793081C0.480314 0.60561 0.734622 0.500295 0.999786 0.500295C1.26495 0.500295 1.51926 0.60561 1.70679 0.793081L7.99979 7.08608L14.2928 0.793081C14.385 0.697571 14.4954 0.621388 14.6174 0.568979C14.7394 0.51657 14.8706 0.488985 15.0034 0.487831C15.1362 0.486677 15.2678 0.511979 15.3907 0.56226C15.5136 0.612541 15.6253 0.686794 15.7192 0.780686C15.8131 0.874579 15.8873 0.986231 15.9376 1.10913C15.9879 1.23202 16.0132 1.3637 16.012 1.49648C16.0109 1.62926 15.9833 1.76048 15.9309 1.88249C15.8785 2.00449 15.8023 2.11483 15.7068 2.20708L8.70679 9.20708C8.51926 9.39455 8.26495 9.49987 7.99979 9.49987C7.73462 9.49987 7.48031 9.39455 7.29279 9.20708L0.292787 2.20708C0.105316 2.01955 0 1.76525 0 1.50008C0 1.23492 0.105316 0.980609 0.292787 0.793081Z" fill="#0B0757"/>
</svg>
