<svg width="20" height="20" viewBox="0 0 20 20" fill="none" xmlns="http://www.w3.org/2000/svg">
<path d="M1 6.66667L6.44992 10.199C7.73295 11.0306 8.3745 11.4464 9.0678 11.608C9.6806 11.7507 10.3194 11.7507 10.9322 11.608C11.6255 11.4464 12.2671 11.0306 13.5501 10.199L19 6.66667M4.2 17.3611H15.8C16.9201 17.3611 17.4802 17.3611 17.908 17.1492C18.2843 16.9628 18.5903 16.6653 18.782 16.2994C19 15.8835 19 15.339 19 14.25V6.86111C19 5.77212 19 5.22762 18.782 4.81169C18.5903 4.44581 18.2843 4.14835 17.908 3.96193C17.4802 3.75 16.9201 3.75 15.8 3.75H4.2C3.0799 3.75 2.51984 3.75 2.09202 3.96193C1.71569 4.14835 1.40973 4.44581 1.21799 4.81169C1 5.22762 1 5.77212 1 6.86111V14.25C1 15.339 1 15.8835 1.21799 16.2994C1.40973 16.6653 1.71569 16.9628 2.09202 17.1492C2.51984 17.3611 3.07989 17.3611 4.2 17.3611Z" stroke="rgb(236 82 54)" stroke-linecap="round" stroke-linejoin="round"/>
</svg>
