<svg width="96" height="15" viewBox="0 0 96 15" fill="none" xmlns="http://www.w3.org/2000/svg">
<path d="M7.04894 0.92705C7.3483 0.00573921 8.6517 0.00573969 8.95106 0.92705L10.0206 4.21885C10.1545 4.63087 10.5385 4.90983 10.9717 4.90983H14.4329C15.4016 4.90983 15.8044 6.14945 15.0207 6.71885L12.2205 8.75329C11.87 9.00793 11.7234 9.4593 11.8572 9.87132L12.9268 13.1631C13.2261 14.0844 12.1717 14.8506 11.388 14.2812L8.58778 12.2467C8.2373 11.9921 7.7627 11.9921 7.41221 12.2467L4.61204 14.2812C3.82833 14.8506 2.77385 14.0844 3.0732 13.1631L4.14277 9.87132C4.27665 9.4593 4.12999 9.00793 3.7795 8.75329L0.979333 6.71885C0.195619 6.14945 0.598395 4.90983 1.56712 4.90983H5.02832C5.46154 4.90983 5.8455 4.63087 5.97937 4.21885L7.04894 0.92705Z" fill="#EC5236"/>
<path d="M27.0489 0.92705C27.3483 0.00573921 28.6517 0.00573969 28.9511 0.92705L30.0206 4.21885C30.1545 4.63087 30.5385 4.90983 30.9717 4.90983H34.4329C35.4016 4.90983 35.8044 6.14945 35.0207 6.71885L32.2205 8.75329C31.87 9.00793 31.7234 9.4593 31.8572 9.87132L32.9268 13.1631C33.2261 14.0844 32.1717 14.8506 31.388 14.2812L28.5878 12.2467C28.2373 11.9921 27.7627 11.9921 27.4122 12.2467L24.612 14.2812C23.8283 14.8506 22.7739 14.0844 23.0732 13.1631L24.1428 9.87132C24.2766 9.4593 24.13 9.00793 23.7795 8.75329L20.9793 6.71885C20.1956 6.14945 20.5984 4.90983 21.5671 4.90983H25.0283C25.4615 4.90983 25.8455 4.63087 25.9794 4.21885L27.0489 0.92705Z" fill="#EC5236"/>
<path d="M47.0489 0.92705C47.3483 0.00573921 48.6517 0.00573969 48.9511 0.92705L50.0206 4.21885C50.1545 4.63087 50.5385 4.90983 50.9717 4.90983H54.4329C55.4016 4.90983 55.8044 6.14945 55.0207 6.71885L52.2205 8.75329C51.87 9.00793 51.7234 9.4593 51.8572 9.87132L52.9268 13.1631C53.2261 14.0844 52.1717 14.8506 51.388 14.2812L48.5878 12.2467C48.2373 11.9921 47.7627 11.9921 47.4122 12.2467L44.612 14.2812C43.8283 14.8506 42.7739 14.0844 43.0732 13.1631L44.1428 9.87132C44.2766 9.4593 44.13 9.00793 43.7795 8.75329L40.9793 6.71885C40.1956 6.14945 40.5984 4.90983 41.5671 4.90983H45.0283C45.4615 4.90983 45.8455 4.63087 45.9794 4.21885L47.0489 0.92705Z" fill="#EC5236"/>
<path d="M67.0489 0.92705C67.3483 0.00573921 68.6517 0.00573969 68.9511 0.92705L70.0206 4.21885C70.1545 4.63087 70.5385 4.90983 70.9717 4.90983H74.4329C75.4016 4.90983 75.8044 6.14945 75.0207 6.71885L72.2205 8.75329C71.87 9.00793 71.7234 9.4593 71.8572 9.87132L72.9268 13.1631C73.2261 14.0844 72.1717 14.8506 71.388 14.2812L68.5878 12.2467C68.2373 11.9921 67.7627 11.9921 67.4122 12.2467L64.612 14.2812C63.8283 14.8506 62.7739 14.0844 63.0732 13.1631L64.1428 9.87132C64.2766 9.4593 64.13 9.00793 63.7795 8.75329L60.9793 6.71885C60.1956 6.14945 60.5984 4.90983 61.5671 4.90983H65.0283C65.4615 4.90983 65.8455 4.63087 65.9794 4.21885L67.0489 0.92705Z" fill="#EC5236"/>
<path d="M87.0489 0.92705C87.3483 0.00573921 88.6517 0.00573969 88.9511 0.92705L90.0206 4.21885C90.1545 4.63087 90.5385 4.90983 90.9717 4.90983H94.4329C95.4016 4.90983 95.8044 6.14945 95.0207 6.71885L92.2205 8.75329C91.87 9.00793 91.7234 9.4593 91.8572 9.87132L92.9268 13.1631C93.2261 14.0844 92.1717 14.8506 91.388 14.2812L88.5878 12.2467C88.2373 11.9921 87.7627 11.9921 87.4122 12.2467L84.612 14.2812C83.8283 14.8506 82.7739 14.0844 83.0732 13.1631L84.1428 9.87132C84.2766 9.4593 84.13 9.00793 83.7795 8.75329L80.9793 6.71885C80.1956 6.14945 80.5984 4.90983 81.5671 4.90983H85.0283C85.4615 4.90983 85.8455 4.63087 85.9794 4.21885L87.0489 0.92705Z" fill="#EC5236"/>
</svg>