<svg width="20" height="20" viewBox="0 0 20 20" fill="none" xmlns="http://www.w3.org/2000/svg">
<path d="M11.4769 4.76167C12.4072 4.94317 13.2621 5.39811 13.9323 6.06828C14.6025 6.73844 15.0574 7.59335 15.2388 8.52358M11.4769 0.952148C13.4096 1.16685 15.2118 2.03231 16.5877 3.40644C17.9635 4.78057 18.8313 6.58168 19.0484 8.51405M15.715 19.0474C7.56226 19.0474 0.953125 12.4382 0.953125 4.28548C0.953125 3.91765 0.966582 3.55297 0.99302 3.19189C1.02336 2.7775 1.03853 2.57031 1.14713 2.3817C1.23707 2.22549 1.39646 2.07735 1.55882 1.99905C1.75485 1.90453 1.98349 1.90453 2.44075 1.90453H5.12391C5.50844 1.90453 5.70071 1.90453 5.86553 1.96782C6.01112 2.02372 6.14075 2.11452 6.24305 2.23224C6.35885 2.36551 6.42455 2.54621 6.55597 2.90759L7.66655 5.96172C7.81941 6.38218 7.89589 6.59241 7.88294 6.79186C7.87151 6.96774 7.81141 7.13699 7.70951 7.28078C7.59394 7.44384 7.40213 7.55894 7.01849 7.78912L5.71503 8.5712C6.8597 11.094 8.9056 13.1425 11.4293 14.2855L12.2114 12.9821C12.4416 12.5983 12.5566 12.4065 12.7197 12.291C12.8635 12.1891 13.0327 12.129 13.2087 12.1176C13.4081 12.1046 13.6184 12.1811 14.0388 12.334L17.0929 13.4445C17.4543 13.576 17.635 13.6417 17.7683 13.7575C17.886 13.8598 17.9768 13.9894 18.0327 14.135C18.096 14.2998 18.096 14.4921 18.096 14.8766V17.5598C18.096 18.017 18.096 18.2457 18.0014 18.4417C17.9231 18.6041 17.775 18.7635 17.6188 18.8534C17.4302 18.962 17.223 18.9771 16.8087 19.0075C16.4475 19.034 16.0828 19.0474 15.715 19.0474Z" stroke="rgb(236 82 54)" stroke-linecap="round" stroke-linejoin="round"/>
</svg>