<svg width="22" height="22" viewBox="0 0 22 22" fill="none" xmlns="http://www.w3.org/2000/svg"><path fill-rule="evenodd" clip-rule="evenodd" d="M14.663 2.77915C12.8902 1.98926 10.9096 1.79357 9.01657 2.22128C7.12351 2.649 5.41942 3.67719 4.15845 5.15252C2.89749 6.62784 2.14721 8.47126 2.01951 10.4078C1.89181 12.3444 2.39354 14.2704 3.44987 15.8985C4.50619 17.5266 6.06051 18.7697 7.88102 19.4423C9.70153 20.1149 11.6907 20.1809 13.5518 19.6307C15.413 19.0804 17.0463 17.9432 18.2084 16.3888C19.3704 14.8344 19.9989 12.9459 20 11.0051V10.0857C20 9.53344 20.4477 9.08572 21 9.08572C21.5523 9.08572 22 9.53344 22 10.0857V11.0057C21.9986 13.3778 21.2305 15.6864 19.8103 17.5863C18.39 19.4862 16.3936 20.876 14.1189 21.5486C11.8442 22.2211 9.41298 22.1404 7.18792 21.3183C4.96285 20.4963 3.06312 18.977 1.77206 16.9871C0.480993 14.9971 -0.13223 12.6432 0.0238445 10.2762C0.179919 7.90931 1.09693 5.65625 2.63811 3.85307C4.17929 2.0499 6.26206 0.793216 8.57581 0.270457C10.8896 -0.252303 13.3103 -0.0131332 15.477 0.952296C15.9815 1.17708 16.2082 1.76825 15.9834 2.27272C15.7587 2.7772 15.1675 3.00393 14.663 2.77915Z" fill="#EC5236"/><path fill-rule="evenodd" clip-rule="evenodd" d="M21.7067 2.2984C22.0975 2.68873 22.0978 3.32189 21.7075 3.71261L11.7075 13.7226C11.52 13.9103 11.2656 14.0158 11.0002 14.0159C10.7349 14.0159 10.4805 13.9106 10.2929 13.723L7.29289 10.723C6.90237 10.3324 6.90237 9.69927 7.29289 9.30875C7.68342 8.91823 8.31658 8.91823 8.70711 9.30875L10.9996 11.6013L20.2925 2.29911C20.6829 1.90839 21.316 1.90807 21.7067 2.2984Z" fill="#EC5236"/></svg>