<svg width="30" height="30" viewBox="0 0 30 30" fill="none" xmlns="http://www.w3.org/2000/svg">
<path d="M16.9579 8.05263C18.1917 8.29335 19.3256 8.89675 20.2144 9.78561C21.1033 10.6745 21.7067 11.8083 21.9474 13.0421M16.9579 3C19.5212 3.28477 21.9115 4.43264 23.7364 6.25517C25.5611 8.07769 26.7121 10.4665 27 13.0295M22.5789 27C11.7658 27 3 18.2342 3 7.42105C3 6.9332 3.01785 6.44951 3.05291 5.97061C3.09316 5.42099 3.11328 5.14619 3.25731 4.89604C3.3766 4.68885 3.588 4.49237 3.80334 4.38853C4.06334 4.26316 4.36658 4.26316 4.97306 4.26316H8.53177C9.04179 4.26316 9.29679 4.26316 9.51539 4.34709C9.70849 4.42124 9.88043 4.54167 10.0161 4.69781C10.1697 4.87456 10.2568 5.11422 10.4311 5.59353L11.9041 9.64427C12.1069 10.2019 12.2083 10.4808 12.1911 10.7453C12.176 10.9786 12.0963 11.203 11.9611 11.3938C11.8078 11.61 11.5534 11.7627 11.0446 12.068L9.31579 13.1053C10.834 16.4512 13.5475 19.1683 16.8947 20.6842L17.932 18.9555C18.2373 18.4465 18.3899 18.1921 18.6062 18.0389C18.7969 17.9037 19.0214 17.824 19.2547 17.8089C19.5192 17.7917 19.7981 17.8931 20.3558 18.0959L24.4065 19.5688C24.8857 19.7432 25.1255 19.8303 25.3022 19.9839C25.4583 20.1196 25.5788 20.2915 25.6528 20.4846C25.7368 20.7032 25.7368 20.9582 25.7368 21.4683V25.0269C25.7368 25.6334 25.7368 25.9367 25.6114 26.1966C25.5076 26.412 25.3112 26.6235 25.104 26.7427C24.8538 26.8867 24.579 26.9068 24.0294 26.9471C23.5504 26.9822 23.0668 27 22.5789 27Z" stroke="white" stroke-width="1.5" stroke-linecap="round" stroke-linejoin="round"/>
</svg>
