<svg width="30" height="30" viewBox="0 0 30 30" fill="none" xmlns="http://www.w3.org/2000/svg">
<path d="M1.5 9.91071L9.67488 15.1011C11.5994 16.323 12.5617 16.934 13.6017 17.1714C14.5209 17.3811 15.4791 17.3811 16.3983 17.1714C17.4383 16.934 18.4007 16.323 20.3252 15.1011L28.5 9.91071M6.3 25.625H23.7C25.3801 25.625 26.2203 25.625 26.862 25.3136C27.4265 25.0397 27.8854 24.6026 28.173 24.065C28.5 23.4539 28.5 22.6537 28.5 21.0536V10.1964C28.5 8.59629 28.5 7.7962 28.173 7.18503C27.8854 6.64741 27.4265 6.21033 26.862 5.93641C26.2203 5.625 25.3801 5.625 23.7 5.625H6.3C4.61985 5.625 3.77976 5.625 3.13803 5.93641C2.57354 6.21033 2.11459 6.64741 1.82698 7.18503C1.5 7.7962 1.5 8.59627 1.5 10.1964V21.0536C1.5 22.6537 1.5 23.4539 1.82698 24.065C2.11459 24.6026 2.57354 25.0397 3.13803 25.3136C3.77976 25.625 4.61983 25.625 6.3 25.625Z" stroke="white" stroke-width="1.5" stroke-linecap="round" stroke-linejoin="round"/>
</svg>
